<svg xmlns="http://www.w3.org/2000/svg" width="1365.333" height="1365.333" preserveAspectRatio="xMidYMid meet" version="1.0" viewBox="0 0 1024 1024"><g fill="#000" stroke="none"><path d="M504.2 136.7c-.1 75.5-.3 137.3-.5 137.3-.1 0-2.7-.9-5.7-1.9s-9.5-2.7-14.3-3.7c-6.3-1.3-9.6-2.5-11.2-4.2l-2.3-2.3.5-25.7c.7-35.1-1.5-57.5-8.3-84.5-5.1-20.1-8.3-25.7-15-25.7-5.4 0-17.7 6.9-28.5 15.9-11.9 9.9-37.5 36.2-45.4 46.5-3.3 4.3-7.2 9.3-8.6 10.9l-2.6 3-25.9.2c-27.8.2-27.4.1-52.4 7-11.4 3.1-9.3 4-27.9-11.6-18.1-15.2-51.8-36.8-63.9-41-3.1-1.1-8.9-2.2-12.7-2.6-11.6-.9-15 1.9-20.3 16.8-5.1 14.4-6.6 27.2-5.9 50.9.3 11.3 1.3 24.9 2.2 30.3s1.5 10 1.3 10.1c-.1.2-15.8.8-34.8 1.4-40.5 1.4-124.2 5.6-118.8 6 2.1.2 21.2-.6 42.5-1.7s55.2-2.6 75.3-3.2c20.1-.7 36.7-1.3 36.9-1.5s-.4-5.2-1.4-11.1c-.9-6.1-1.9-19.5-2.2-30.8-.7-23.4 1-37 5.9-50 5.5-14.5 8.9-17.2 20-16.1 3.7.3 9.1 1.5 11.9 2.6 12.9 5.1 45.9 26.5 63 40.9 18.5 15.5 16.9 14.9 28.9 11.6 25.3-7 24.5-6.9 52.9-7l26.4-.1 2.6-3.1c1.4-1.7 6.4-7.8 11-13.7 9.5-12 39.5-41.9 48.8-48.5 8.2-5.9 18.2-11.1 21.3-11.1 6 0 9.5 5.8 14 23.1 7.1 27.7 9.4 50.2 8.7 85.8-.3 16-.1 26.3.5 27.7 1.3 2.9 3.6 3.9 13.8 5.9 17.1 3.5 30.9 9.3 42.2 17.8 2.7 2.1 5.7 3.6 6.4 3.3 1.2-.5 1.5-5.2 1.3-29.2-.1-16.6.3-29 .8-29.5.6-.6 95-.8 245.3-.7 134.3.2 242.5 0 240.4-.4-6.9-1.2-486.2-.9-487 .3-.3.6-.6 14.1-.5 30s-.1 28.9-.3 28.9c-.3 0-2.8-1.7-5.5-3.8-2.7-2-8.8-5.7-13.5-8.1l-8.6-4.4-.3-137.1-.2-137.1z"/><path d="M533.2 100.7 533 202l29.8.1c16.3.1 30.1.1 30.6 0s16.1-.2 34.7-.2c18.6.1 34-.2 34.2-.7.3-.4-14.4-.6-32.6-.4-40 .3-66 .2-66.4-.1-.1-.2-.3-36.3-.3-80.2l-.1-79.9 16-4.1c8.8-2.2 16.6-4.6 17.3-5.4 1.1-1.1 1-1.2-.8-.3-1.8 1-26.4 7.4-31.7 8.4-1.7.3-1.8 3.9-1.7 81V201h-28l-.3-100.8-.2-100.7zm415.3-86.4c-1.7 5.8-1.9 17.3-1.5 72.2.3 34.6.4 74.6.2 88.8l-.3 25.7-16.7-.2-16.7-.3v-174l14-.7c19.6-1 21.1-1.7 2.5-1.1-8.5.2-16.1.6-16.7.8-1 .4-1.3 18.8-1.3 87.9v87.5l-5.2.5c-2.9.4-9.5.5-14.6.3s-11-.1-13 .3 4.4.5 14.3.4 26.2-.3 36.2-.3h18.2l.3-26.3c.2-14.5.1-54.7-.2-89.5-.3-42.3-.2-64.6.5-67.5l1.1-4.3 12.1-.2c6.7-.2 13.1.1 14.2.5l2.2.8.2 92.9.2 93h35l.2-90c.1-49.5.2-90.8.2-91.9.1-1.6.7-1.8 5.4-1.3q5.1.6 2.7-.3c-1.4-.4-4-.8-5.7-.9-2.8-.1-3.3.3-3.4 2.1V110c0 48.7-.4 89.1-.8 89.8-.6.9-4.9 1.2-16.7 1l-15.9-.3-.2-93-.2-93-2.8-.7c-4.6-1.2-27.4-.8-27.8.5"/><path d="m752.1 19.3-2.5 1.2v33.3c0 18.2-.3 33.2-.7 33.2s-.5 3.3-.3 7.2c.4 6.8.6 48.2.5 89L749 201h-82.7l-.6-6.3c-.3-3.4-.6-23.5-.7-44.7s-.5-56.3-.9-78-.4-40.2 0-41c.6-1.2 3-1.4 13.5-1.2 7 .2 13.2.5 13.6.8s.8 2.2.8 4.3.4 6 .9 8.7c.8 4.2 3 24.4 3.6 32.4.1 1.4.4 3.2.8 4 .3.8.8 3.5 1.1 6s1 7.6 1.6 11.5c1.2 8 1.9 13.3 2.4 19 .2 2.2.6 4.7.9 5.5.8 2.2 2.5 13.4 3.2 21.5.7 7.4.7 7.5 3 23 .8 5.5 2 14.5 2.6 20s1.6 10.7 2 11.5c.7 1.1.8.8.4-1-.2-1.4-.9-6.6-1.5-11.5-.6-5-1.7-13.5-2.5-19s-1.7-11.4-1.9-13c-.2-1.7-.7-6.2-1.1-10-.3-3.9-1.5-12.4-2.5-19-1.1-6.6-2.2-13.8-2.5-16-.2-2.2-.9-7.2-1.5-11-.6-3.9-1.3-9.3-1.6-12-.3-2.8-.8-5.7-1.1-6.5-.6-1.7-.6-1.3-2.2-18-.7-6.9-1.7-14.7-2.2-17.4s-.9-6.9-.9-9.3c0-2.6-.5-4.5-1.2-4.8-1.3-.4-16.2-1.2-40.5-2.1l-13.3-.6-.1 12.4c-.4 34.7 0 159 .4 159.5.3.2.5-32.8.5-73.4s0-79.1.1-85.6L639 28h23.7l.2 34.2c.1 18.8.4 34.5.6 34.8s.4 21 .5 46 .4 48.5.7 52.2l.6 6.8 44.6-.1c24.5-.1 43.6-.4 42.3-.6l-2.2-.4v-51.7c0-28.4 0-54-.1-56.7 0-2.8 0-5 .2-5 .1 0 .3-14.9.4-33l.2-33 2.4-1.2c1.4-.8 6.6-1.3 13-1.3 13.7 0 14.3.4 14.6 10.2.1 4 .2 8.9.3 10.8.2 1.9-.1 4.4-.5 5.4-.6 1.4-.5 1.7.3 1.2.7-.4 1.2-1.3 1.2-1.9 0-.9 4.3-.8 17.8.6 9.7 1 18.8 2.1 20.2 2.5l2.5.7.5 76.5.5 76.5 25.8.3c24 .2 25.7.1 25.7-1.5 0-1 .1-40.9.1-88.6-.1-87.9 0-89.5 3.4-91.9.6-.4 7.9-.7 16.3-.7h15.3l1 2.6c.5 1.4 1.2 2.4 1.5 2.1.2-.3 0-1.7-.5-3.1l-1-2.6h-16.9l-16.8-.1-1.7 3.5L874 25h-23c-22.4 0-27 .5-27 3.2 0 .6.8.4 1.8-.5 1.5-1.4 5.1-1.6 25-1.7H874v6.7c.1 11.9.1 165.8 0 167.1 0 1-5.3 1.2-24.7 1l-24.8-.3-.3-76.7-.2-76.6-3.8-.6c-4-.6-6.5-.8-24.9-2.7-14.2-1.4-13.7-1-13.4-12.4.2-8.1-1.1-12.1-4.2-12.9-4.1-1.1-23.1-.6-25.6.7m-303.2 118c-3.4 1.5-7.4 6.3-13.1 15.7-7.8 12.8-23.3 44.3-26.8 54.5-1.1 3.2-2.8 6.7-3.8 7.8-1.3 1.6-1.4 1.9-.2 1.5.8-.2 2.9-3.8 4.5-7.9 10.3-25.1 27.5-57.5 35.7-67 2.8-3.3 6.5-5.2 8-4.3.7.4.8.3.4-.4-.9-1.5-1.4-1.4-4.7.1"/><path d="M448.5 142c.7 3.6 2.1 9.7 3.8 16 7.7 29.1 9.2 46.4 7.1 82-.5 8.1-.9 10.1-1.8 9-1.3-1.7-5.4-4.9-15-11.4-9.4-6.5-27.6-14.7-27.6-12.5 0 .5 1.2 1.2 2.8 1.5 8.1 1.9 30.8 15.4 39 23.2.8.7 1.7 1 2.2.7 1.1-.7 2.1-16.2 2.2-33.5.1-22-1.6-34.3-8.2-60.3-1.1-4.3-2-8.5-2-9.5-.1-.9-.7-3.1-1.5-4.7-1.2-2.7-1.4-2.7-1-.5m-277.7 25.8c-4.8 5.3-6.5 12.2-7.8 30.7-1.1 14.7 0 38.3 2.1 47.3 1.3 5.5 8.6 29.7 10 32.9.5 1.3 1.3 3.3 1.8 4.5.5 1.3 1.6 4.2 2.6 6.5s1.5 5.1 1.3 6.1c-.3 1.1-.1 2.6.4 3.3.8 1.1.9 1 .4-.4-.3-.9-.1-1.7.3-1.7 1.2 0-.2-5.4-2.9-11.5-2.9-6.6-10.6-30.3-12.5-38.4-2.4-10.2-3.6-32.9-2.6-48.1 1.2-16.6 2.4-22.3 6-27.5 2.2-3.3 3.2-3.9 5.4-3.7 11.3 1.4 43.3 33.1 61.3 60.9 4.6 7 7.4 10.5 7.4 9 0-.2-2.3-4-5.2-8.3-23.7-36.3-60.8-69.9-68-61.6m480.3 91.9c-7 .2-13.1.8-13.8 1.5-1.1.8-1.3 18.5-1.3 94.4 0 88.2-.1 93.4-1.7 93.6-1 .1-9.5.2-18.9.3s-17.5.5-18.1.8c-.6.4-.5 3.2.4 7.9.7 4 1.8 11.1 2.3 15.7.6 4.6 1.5 10.2 2 12.5s1 6 1 8.3.5 4.5 1.2 4.9c.8.5.9.2.5-.9-.5-1.3-.1-1.7 1.6-1.7 2.5 0 29.8 1.8 36.8 2.4 4.4.4 13.3 1.1 27.4 2.2 41.3 3 100.7 8 111.5 9.3 4.1.5 11.1 1 15.4 1.1 4.4 0 8.3.3 8.6.5.7.4 33.7 3.2 46.5 4 3.8.2 11.5.8 17 1.4s12.9 1.3 16.5 1.7c3.6.3 7.6 1 9 1.4 1.4.5 5.7 1.2 9.5 1.5 6.7.5 14.2 1.7 21.5 3.5 1.9.5 5.8 1.4 8.5 2 11 2.4 14 3.3 15 4 .6.4 2.9 1.1 5.2 1.5 2.2.3 4.9 1.3 6 2 1 .8 2.5 1.5 3.3 1.5 1.7 0 11.6 6 17.3 10.4 4.1 3.2 9.3 11.3 12.5 19.6 5.6 14.5 8.2 46.1 7.1 83.5-.7 22-1.3 32.4-3.4 65.5-.6 8.1-.9 14.7-2.5 42.5-.6 9.9-1.5 25.2-2 34-1 17.7-3.7 57.6-4.5 67-4.8 58.5-5.8 67.6-9.4 82.3-2.5 10.3-3.3 12-7.5 17.1-4.4 5.2-8.7 8.5-18.7 13.9-7.2 4-20.8 9.2-24 9.2-3.7 0-3.9 2-2.4 21.9.7 10.6 1.6 19.6 2 19.9.3.3.3-2.5 0-6.4-1.9-23.8-2.3-32-1.6-32.7.5-.5 5.5-2.4 11.2-4.3 19.2-6.5 33-15.8 38.2-25.9.8-1.7 2.4-7 3.6-11.7 3.8-16.2 4.8-24.3 9.6-83.3.8-9.4 3.5-49.3 4.5-67 .5-8.8 1.4-24.1 2-34 1.6-27.8 1.9-34.4 2.5-42.5 2.1-33.1 2.7-43.5 3.3-65.5 1.8-58.4-4.5-92.3-19.5-104.1-5.3-4.2-13.3-9-16.3-9.9-1.4-.4-2.9-1.1-3.5-1.5-.5-.5-3-1.3-5.5-1.9-2.5-.7-5.4-1.6-6.5-2-1.7-.8-5.6-1.8-23.5-6.1-6.4-1.5-15.4-3-22.5-3.6-3.8-.3-7.4-.9-7.9-1.2s-4.3-.9-8.5-1.3c-19-2.1-29.1-3.1-35.6-3.4-12.7-.7-45.8-3.6-46.5-4-.3-.2-4.2-.5-8.6-.5-4.3-.1-11.2-.6-15.3-1.1-9.4-1.1-46.3-4.3-79.6-6.9-14.3-1.1-28.5-2.2-31.5-2.4-3-.3-9.5-.8-14.5-1.1-4.9-.4-10.8-.9-13-1.1s-11.6-.8-21-1.4c-9.3-.6-17.3-1.4-17.6-1.8-.4-.4-1.4-5.7-2.3-11.7-3.3-21.3-3.9-25-4.6-28.8l-.8-3.7h4.2c2.2-.1 67.1-.2 144.1-.3s133-.3 124.4-.5l-15.6-.2-.5-4.3c-.3-2.3-.4-39-.3-81.5.2-64.7.4-77.6 1.6-78.7 1-1 5.3-1.5 15.7-1.8l14.2-.4.1 71.1c0 39.1 0 75.9-.1 81.8-.2 15.8-1.8 14.8 22 14.8 11 0 20.1-.4 20.4-.9.4-.5.7-6.2.7-12.7.1-10.4.3-11.6 1.5-9.9s1.4 1.7 1.4.2c0-.9-.4-1.7-.9-1.7-1 0-2.7-9.8-1.8-10.6.2-.2 1.2-.1 2.2.3 1.8.6 1.8.7-.1 1.5s-1.9.8 0 .5c2.6-.3 2.6-2-.1-3.1l-2.1-1 .3-50.9c.2-28 .1-50.7-.2-50.4-.2.3-.6 31-.8 68.1-.2 37.2-.7 68.1-1 68.6-.4.6-8.3 1-19.5 1-22.6 0-21.2.9-21-14.3.1-5.6.1-42.4.1-81.8l-.1-71.6-15.2.4c-11.2.3-15.7.8-16.7 1.8-1.2 1.1-1.4 14.6-1.5 82.9l-.1 81.6h-13.7c-14.1 0-15.9-.5-12.6-3.8 1-1 1-1.7-.1-3.4-1-1.7-1.3-8.2-1.1-30.7.2-15.7.3-30 .2-31.6 0-1.7-.1-20.6-.2-42.1-.1-28.8-.4-39.6-1.3-40.7-1.4-1.8-15.4-3.2-17.6-1.8-1.2.8-1.5 12.8-1.8 77.1-.1 41.9-.5 76.6-.9 77.1-.3.5-34.3.9-83.5.8l-82.9-.1v-93.3c0-73.4.3-93.5 1.3-94.3 1.7-1.4 31.3-2 32.7-.6.7.7 1.1 15.1 1.3 44.6.1 24 .5 43.4.8 43.2.9-.5 0-87.7-.8-88.5-1.2-1.2-7.8-1.6-21.2-1.2m171.6 37.5c1.2.9 1.5 27.3 1.2 98.8-.2 37.9 0 45.2 1.1 46.5.8 1 .8 1.5 0 2-.7.4-1 1.8-.7 3.1.4 2.4.4 2.4-9.4 2.4H805l.4-76.3c.1-42 .6-77 1.1-77.6.8-1.5 14.2-.6 16.2 1.1M420.2 273c-4.4 1.8-5.1 9.3-.9 10.6 1.1.3 5.9.3 10.6 0 6.6-.5 9.6-.3 13 .9 7.3 2.5 7.7-1.6.8-6.9-6.4-4.9-17.3-7-23.5-4.6m16.4 1.9c4.7 2.2 11.6 7.9 10.9 9.1-.3.5-2.5.2-4.8-.6-3.2-1.1-6.4-1.3-13.3-.8-7.7.6-9.3.4-10.7-1-2.3-2.3-2.1-3.2.8-6.1 2-2 3.4-2.5 7.7-2.5 3 0 7.1.9 9.4 1.9m-156.1 15.6c-10.4 2.8-12.2 3.9-19.2 11.5-4.8 5.3-6.3 9.4-3.8 10.4.9.3 2.9 0 4.3-.8 13.6-7.4 24.2-10.4 32.4-9.3 3.1.4 4.4.1 5.9-1.4 2-2 2.2-3.1 1.3-6.7-1.4-4.9-10.5-6.5-20.9-3.7m16.5.8c3.5 1.8 4.9 6.1 2.6 8.6-1.3 1.4-2.6 1.8-5.5 1.4-6.4-.9-17 1.6-26.6 6.2-8.6 4.1-11.7 4.5-9.8 1.1 1.7-3 11.3-12.6 14.3-14.1 7.7-4 20.3-5.6 25-3.2m722.1-1.6c-.1.9-7 1.3-27.5 1.5-15.1.2-27.8.7-28.3 1.1-.8.9-1.2 13.2-1.3 39.8 0 14.2-.2 15.7-1.7 15.5-1 0-1.9.7-2.1 1.6-.2 1 .1 1.8.7 1.8s.8-.7.5-1.5c-.5-1.1-.2-1.3 1-.9 1.4.5 1.6 3.4 1.6 23.5 0 15.1-.4 22.9-1 22.9-1.8 0-2.3-2.9-.9-4.7 1.2-1.4 1.2-1.6-.1-1.1-2.5.8-1.9 5.9.8 6.9l2.2.8.1-40.7c0-22.4 0-45.3-.1-50.8-.1-8.1.2-10.5 1.5-11.8 1.4-1.4 5.1-1.6 28.2-1.6 14.6 0 26.8-.2 27-.4.3-.3.3-1.1 0-1.8-.4-.9-.6-.9-.6-.1m-591.7 32.2c-13 5.9-18.1 27.6-10.3 43.8 2.8 5.8 4.7 6.7 11.4 5.3 9.2-1.9 15.5-10.9 15.5-22 0-6.1-2.1-13.3-4.6-16.1-.9-1-1.3-2.3-.8-3 .4-.7.3-1-.3-.6s-1.8 0-2.8-.7c-1.7-1.2-1.5-1.4 1.9-2 4.5-.9 8.9 0 13 2.5 2.7 1.6 3.2 2.7 4.3 8.6 2.2 13-1.2 24.8-9.4 32.4-4.7 4.4-12.8 6.3-15.5 3.6-.8-.8-2.2-1.1-3.2-.7-1.5.5-.9.9 2.7 2 16.8 4.6 30.1-14.4 26.3-37.8-1.2-8-2.1-9-9.9-11.2-4.1-1.2-12.7-.4-12.7 1.2 0 .5 1.4 2.4 3.2 4.1 4.7 4.7 6.8 10.2 6.8 17.8 0 5.5-.5 7.2-2.8 11-3.9 6.1-8.2 9.5-13.2 10.3-5.2.8-6.1.1-9.7-7.2-2.3-4.8-2.7-6.8-2.7-14.1 0-9.5 1.8-14.9 6.9-20.9 7.8-9.3 18.5-9.5 32.4-.7 3.4 2.1 4.1 2.9 3 3.7-1.2.8-1.2.9 0 .6 2.9-.8 2.1-2.7-2.1-5.4-10.1-6.4-19.7-8-27.4-4.5m-145.8 19.5c-6.5 2.7-11.4 7-14.2 12.2-1.9 3.4-1.4 5.5.8 3.6 1-.8 1.3.2 1.4 4.7.1 7.9 4.7 17.2 11.5 23.6 4.9 4.6 5.2 4.7 9.7 4.1 9.5-1.3 14.2-8.1 15-21.6.4-7.5.1-9.3-2.2-14.9-1.4-3.6-2.6-6.6-2.6-6.7s1.7.3 3.7.9c4.2 1.3 15.6 11.5 17.9 15.9 1.1 2.1 1.4 5.1 1.2 10.3-.4 7.3-.4 7.3-5.4 12.3-5.4 5.3-9.8 7.2-17.1 7.2-2.3 0-4.8-.6-5.5-1.3-.8-.8-2.2-1.1-3.2-.7-1.4.5-1 .9 2.1 1.8 8.9 2.7 19.4.3 24.1-5.4 1.8-2.2 3.2-3.2 3.6-2.5.4.6 1.3 1.1 1.9 1.1.8 0 .7-.4-.2-.9-1.2-.8-1.3-1.2-.1-2.6 2-2.4 3-.5 2.1 3.8-.5 2.1-.5 3.7 0 3.7s.9-1.1.9-2.5.4-2.5 1-2.5c1.4 0-.1-3.3-2.1-4.7-1.3-1-1.6-2.4-1.1-8.1.6-8.6-.5-10.9-9.1-18.9-4.5-4.1-7.7-6.3-10.6-7.1-5.5-1.3-5.9-.2-2.6 6.9 3.6 7.9 3.6 18.5-.2 25.9-3.3 6.3-6.5 8.9-11.9 9.7-3.7.5-4.2.2-9.1-4.9-7.3-7.8-10.6-14.7-10.7-22.5-.1-6.5-.4-7.1-2.4-5.1-.7.7-1.2.8-1.2.2 0-.5 2-3.2 4.4-6 3.1-3.5 6.4-5.9 10.7-7.9 5.4-2.4 7.1-2.7 13.4-2.3 4.8.3 8.8 1.2 11.6 2.7 8.1 4.2 16.3 13.4 19.1 21.5 1.1 3.3 1.7 4.3 1.8 2.7 0-3.5-6.2-13.9-11.2-18.8-9.1-8.9-23.7-11.7-35.2-6.9M542.5 353c-22.3 4.8-39.6 10-51.7 15.8-6.4 3-7.8 4.1-7.8 5.9 0 2.8.8 2.8 8.9.3 3.6-1.1 6.7-1.7 7-1.5.2.3.9.1 1.5-.3.6-.5 14-5.1 29.8-10.3 23.1-7.6 28.8-9.7 28.8-11.2 0-2.2-.6-2.1-16.5 1.3m15.5-1.2c0 .9-52.6 18.5-65.7 22.1-4.8 1.3-7.5 1.6-7.9.9-.8-1.3 1.6-2.9 3.4-2.3.7.3 1.1.1.8-.4s.9-1.4 2.7-2.1c1.7-.8 3.9-1.9 4.7-2.5 2.9-2.3 28.1-9.6 46.5-13.5 14.9-3.2 15.5-3.3 15.5-2.2M389.5 392c-7.2 1.5-15.4 5.1-17.5 7.7-1.8 2.3-1.8 2.8-.5 5.3 1.8 3.4 8.5 9.3 13.1 11.5 1.8.8 3.5 1.9 3.7 2.3.3.4.8 4.4 1.1 8.9.7 8 .7 8.2-2.1 10.8-4.7 4.5-12.5 7.5-19.7 7.5-6.2 0-14.3-2.1-18.1-4.7-1.1-.7-3-1.3-4.3-1.3-2 0-2.2.4-1.6 2.2.9 3.3 2 4.4 5.9 6.2 6.1 2.9 14.1 3.9 22.7 2.7 8.7-1.2 12.8-2.9 17.5-7.4 2.4-2.2 3.6-2.7 4.5-2 .7.6 3.2 1.6 5.4 2.3 4.7 1.4 14.8.1 20.2-2.5 3.4-1.7 9.2-7.3 9.2-8.9 0-.6-1.7.7-3.7 2.8-4.7 4.9-10 7.3-17.8 8.1-4.9.5-6.7.3-10-1.4-5.1-2.7-5.6-2.7-8.9.8-4.9 5.1-11.8 7.4-22.6 7.5-8.4.1-10.2-.2-14.4-2.4-2.7-1.4-5.6-3.6-6.5-4.9-1.9-2.9-2-2.9 9.2 1.3 12.2 4.6 25.7 2.7 33.6-4.6 3.3-3.1 3.3-3.3 2.7-9.1-.3-3.3-.6-7.4-.6-9.2 0-2.8-.7-3.6-5.9-6.9-3.3-2-7.6-5.6-9.6-7.9l-3.6-4.2 2.9-2.6c4.8-4.3 13.5-7 24.2-7.6 5.9-.3 10.6-.1 12.4.6 2.7 1.1 2.8 1.4 2.4 5.6-.7 5.7-5.4 11.7-12.4 15.7l-5.4 3-.2 8.4c-.1 4.6-.2 9.2-.2 10.1-.1 1.3 1.2 2.1 4.4 3 6.7 1.7 11.3 1.5 17.3-.7 5.2-2 14.3-8.7 13.3-9.8-.3-.3-1.8.7-3.2 2.2-1.5 1.4-5.6 4-9.1 5.8-5.7 2.8-6.9 3-12.4 2.5-9.5-1-9.5-1-8.9-11.8l.5-9.2 4.4-2.4c5.8-3 7.8-4.9 10.8-10 3.3-5.7 3-12.4-.7-13.4-3.4-.9-16.6-.9-21.5.1m103 2.2c-3.3.4-8.5 1-11.5 1.3-3 .4-9.3 1.3-13.9 2.1s-9.4 1.4-10.7 1.4-2.4.4-2.4.9c0 .4 3.7.2 8.3-.5 4.5-.8 10.5-1.7 13.2-2 2.8-.4 5.3-.8 5.8-1.1.4-.2.7.4.7 1.3 0 1.5.2 1.6 1.8.2.9-.8 2.5-1.8 3.6-2.2 3.9-1.4 34.2-1.9 44.6-.7 24.7 2.7 21.5 3.6-13.3 3.6-16 0-29.6.2-30.2.6-.5.3-8.6 1.2-18 1.9-9.3.6-17.7 1.6-18.5 2.1-1.1.7-.8.8 1 .4 8.8-1.7 47.1-3.9 69.7-3.9 23.8-.1 26.3-.3 26.3-1.8 0-1.8-1.1-2-16.5-3.9-9.5-1.1-29.9-1-40 .3M209 415c-6.3.5-14.6 1.4-18.5 2-3.8.7-8.2 1.3-9.8 1.5-5.6.8-30.5 7.7-36.1 10-2.5 1.1-3.4 2-2.9 3.1.6 1.6 3 1.4 11.3-1.2 2.5-.8 7.4-1.9 11-2.4s9.9-1.6 14-2.5c19.2-3.9 42.1-5.9 67-6 13.6 0 21.4-.3 17.5-.6-15.2-1.4-33.3-.8-55 1.6-26.3 3-34 4.1-36.5 5.5-1 .5-3.4 1-5.3 1s-7.7 1.1-12.8 2.4c-9 2.3-12 2.5-8.9.6s29.9-9.4 37.5-10.5c1.1-.2 4.9-.8 8.5-1.4 18.6-3 58.3-3.7 73.9-1.2 2.8.4 5.1.5 5.1.1 0-2-41.6-3.4-60-2m261 4.6c-10.3.6-13 1.3-13 3.2 0 1.5 1.9 1.7 19.8 1.8 20.7.2 39.7 2.3 57.1 6.5 4.6 1.1 8.5 1.8 8.8 1.5.2-.2-2.1-1-5.2-1.6-3.8-.8-5.4-1.5-4.7-2.2.6-.6 2.6-.4 5.7.7 2.6.8 5 1.3 5.3 1.1.3-.3-.1-.8-.9-1-21.9-7.4-50.4-11.3-72.9-10m27.6 1.4c10.1 1 33.1 5.4 34.2 6.4 1.6 1.7-2.1 1.5-17.4-.9-13.6-2.2-20.7-2.7-36.6-2.8-22.9-.2-27.2-2-7.3-3 13.5-.7 17.7-.7 27.1.3m-235.1 18.7c-11.3 1.4-31.4 5.7-39 8.3-4.9 1.7-10.2 3.4-11.7 3.7-1.6.3-2.8.9-2.8 1.3 0 .9 6.8-.7 8.5-2 4.1-3 47.9-12.1 50.6-10.4.5.3.9 0 .9-.5 0-1.1-.8-1.1-6.5-.4"/><path d="M253.5 444.5c-2.7.7-6.1 1.8-7.5 2.3s-3.7.6-5.2.1c-1.5-.4-2.8-.4-3 0s-6.4 2.4-13.8 4.5-13.9 3.9-14.5 4.1c-.5.2.2.4 1.7.4 1.5.1 3.9-.4 5.5-1 4.9-1.9 19.7-6 23.2-6.5 2.6-.3 3.2-.1 2.7 1.1-.3.8-.1 1.5.3 1.5.5 0 1.1-.6 1.4-1.4.6-1.5 8.7-4.6 12.1-4.6 1.2 0 2.8-.5 3.6-1 1.3-.9 1.3-1 0-.9-.8 0-3.7.6-6.5 1.4m208 5.1c.6 3.2.1 4-8.3 11.7-2.3 2.1-4.6 3.6-5.2 3.2-.5-.3-1 0-1 .8s-1.5 2.6-3.4 4.1c-2.5 1.8-3.3 3.1-2.9 4.5.3 1.1 5.3 5.9 11.1 10.6s19.8 17.4 31.1 28.3c43.2 41.6 48 45.4 95.1 74.5 8.5 5.3 18 11.2 21 13 3 1.9 8.7 5.1 12.5 7.1 6.5 3.4 7.3 3.6 10.9 2.5 6-1.7 23.4-1.4 25.2.4.4.4.1.7-.7.7-1.4 0 12 14.5 16.6 18.1 1.2.8 5.4 2.6 9.5 4 6.5 2.1 9.4 2.4 21.5 2.4 11.4 0 14.6-.3 17.4-1.8 1.9-.9 4.1-1.7 5-1.7s2.7-1 4.1-2.1l2.5-2-3.2 1.5c-1.8.9-3.9 1.6-4.8 1.6s-2.7.7-4 1.6c-3.2 2.1-18.8 2.9-28.8 1.5-8.7-1.2-14.6-3.6-12.9-5.3 1.4-1.4 5.8-.2 8.2 2.2 1.1 1.1 2.2 1.5 2.5 1 .8-1.2-3.4-3.8-7.4-4.6-2.6-.5-3.6-.3-4.3.9-1.4 2.6-2.8 2-2.2-1.1.4-2.3-.1-3.1-3.6-5.5-2.2-1.6-4.8-4.1-5.8-5.5-2.3-3.6-6.2-7.7-6.2-6.6 0 2 8.6 11.7 13 14.7 1.9 1.3 2.1 2 1.2 2.9s-2.9-.6-8.6-6.6l-7.4-7.8.1-5.4c.1-6.2-1.1-7.9-4.7-7-2.2.5-2.6 1.2-2.5 3.9.2 2.9.2 2.9.6.5.4-2.7 3-4.5 4.4-3.1.4.4 1 2 1.4 3.4.6 2.3.3 2.7-2.4 3.2-1.7.4-4.3.2-5.7-.3-3.4-1.3-7.6-1.2-15.2.4-5.6 1.1-6.6 1.1-10-.6-8.2-4-25.1-14.3-61-37-21.5-13.6-34.2-24.2-70.3-59-11.3-10.9-25.3-23.7-31.2-28.4-5.9-4.8-10.7-9.2-10.7-10 0-.7.8-1.9 1.9-2.6 2.7-2 14.2-12 16.8-14.7 2.5-2.6 2.9-5.7 1.2-8.1-.8-1.1-.9-.7-.4 1.6m-439 .1c-3.8.6-7.6 3.7-9.2 7.4-3.5 8.2-2.6 17.7 3.2 37.4C22.9 515.9 25 526 26 541c.6 8 1.4 16.5 2 19 .5 2.5 1.4 8.1 2 12.5 1.6 11.7 9.6 50.2 14.1 67.9 1.2 4.8 1.7 8.2 1.1 8.8-.5.5-8.9.1-21.1-1.2-11.1-1.2-21.1-2-22.4-1.8-1.2.2 8.1 1.3 20.7 2.6 15.2 1.6 23.2 2 23.9 1.3.6-.6.1-4.6-1.6-11.8-6-24.7-12.1-54.3-13.7-65.8-.6-4.4-1.5-10-2-12.5-.6-2.5-1.4-11-2-19-.9-13.2-2.2-21.4-5-31-.5-1.9-2.5-8.7-4.4-15-7.4-25.4-7.2-35.8 1-42.2 2.6-2.1 3.9-2.3 13.4-2.2 6.6 0 12.9.7 17 1.8 12.1 3.2 19.4 3.5 47 2.2 17.8-.8 35.6-1 54-.5 38 1.1 35.5.6 41.6 7.4 4.9 5.5 5.2 6 5.8 12.9 1 11-2 27.9-6.4 36.7-1.2 2.2-3.6 6.4-5.4 9.2-4.6 7.3-11.3 21.5-15.6 33.2-1.2 3.3-2.5 6.9-2.9 8-.5 1.1-2 6-3.6 11-1.5 4.9-3.1 9.9-3.6 11-1.3 3.1-4.8 15.8-5.8 20.6-.5 2.4-2.1 10.5-3.6 17.9-2.4 11.7-2.8 15.9-2.9 31.7-.1 15 .2 18.5 1.4 19.6.8.8 8.3 3.7 16.5 6.6 27.4 9.5 40.1 15 49.5 21.4 7.5 5.2 17.2 13.7 21.2 18.9 6.4 8 15.7 27.1 15.8 32.1 0 1.1.7 3.3 1.5 5 .8 1.8 2.1 6.3 2.9 10.2.8 3.8 2.1 9.9 3 13.5 1.6 7.2 4.2 23.1 5.2 33 .4 3.6.9 5.9 1.1 5.3.6-1.8-2-21.5-5.3-39.4-.6-3.4-.4-3.7 2.5-4.7 2.7-1 3.1-1.5 2.5-3.7-.4-1.5-.1-3.2.7-4.3 1.3-1.6 1.2-1.6-.4-.3-1.2.9-1.7 2.3-1.4 3.8.3 1.7-.2 2.6-2.4 3.7-3.2 1.6-3.9.7-3.9-4.3 0-1.5-.9-5.4-2.1-8.7-3.2-9.3-3.5-10.8-1.5-10.1.9.4 1.6.2 1.6-.3 0-.6-.6-1-1.3-1-1.5 0-1.9-.9-6.2-11-7.2-16.9-15.4-26.7-32.7-38.8-4-2.7-14.8-8.2-22.3-11.2-1.1-.4-4.1-1.7-6.7-2.9s-5.5-2.1-6.3-2.1-2.3-.4-3.3-.9c-.9-.5-7.2-2.8-13.9-5.1s-12.8-4.9-13.5-5.8c-1-1.1-1.3-6.2-1.2-19.1.1-16.2.4-19.1 3.9-36.1 2-10.2 5.9-25 8.5-33s5.5-17 6.4-20c4.4-14.1 12.8-32.5 20-44.1 8-12.7 12.3-30.7 11-45.9-.7-7.6-.8-7.9-5.8-13.4-4.6-5.1-5.6-5.7-10.1-6.2-11.4-1.2-62.2-1.9-77.5-1.2-30.1 1.6-44.5 1.2-53.5-1.2-7.9-2-23.2-3.3-29-2.3m695.3 138.9c.6 1.1.8 3 .5 4.2s.1 3.2.9 4.4c3.2 5.2 5 12 4.6 17.4-.3 3.1-.1 4.9.3 4.2.5-.7.9-3.4.9-5.9 0-5.3.7-6.4 2.8-4.6 1.3 1 1.4.9 1-.3-.3-.8-1.4-1.4-2.6-1.3-1.2.2-2.2-.5-2.5-1.7-.6-2.5.3-3.3 2.1-1.7 1.3 1 1.4.9 1-.3-.3-.8-1.4-1.4-2.4-1.3-1.4.1-2.4-1-3.6-3.9-1-2.3-1.5-4.4-1.2-4.7.8-.9 4.4 4.2 3.9 5.6-.2.7 0 1.3.5 1.3.6 0 1-.6 1-1.3s.7-.4 1.5.7 1.5 1.7 1.5 1.3-2.1-3.3-4.6-6.5c-5.7-7.1-7-8.3-5.6-5.6"/><path d="M697.7 611.2c.5 9.2.5 9.4-2.6 13.5-2.3 3.2-4.1 4.5-7.3 5.3-6.1 1.6-6.9 2.1-2.3 1.4 5.5-.8 9.4-3.3 11.7-7.4 1.6-2.9 1.9-5 1.6-12.3-.3-5.9-.1-8.6.6-8.3.6.2 1 1 .8 1.7-.2.8 0 1 .4.6 1.2-1.2 3.3 8.1 3.4 14.8 0 4.6-.3 5.6-1.2 4.7-1.7-1.7-3.5-1.5-4.3.5-.5 1.4-.4 1.5.6.6.8-.8 1.8-.9 3.1-.2 2.6 1.4 3.2-.7 2.5-8.9-.7-9.2-2.6-14.6-5.4-15-2.1-.3-2.1-.1-1.6 9m180.2-5.7c-3.9 1.4-4.3 1.7-15 10.8-6.9 5.8-7.6 7-6 9.6.7 1.1 1.8.5 5.2-2.6 6.1-5.4 9-7.1 15.4-8.7 7.6-2 12-1.1 15.2 3 2.9 3.9 3.9 4.2 4.8 1.4 1-3.2-3.8-9-7.5-9q-3 0-4.5-2.4c-2.1-3.2-3.3-3.6-7.6-2.1m6.5 3c1.1 1.7 2.6 2.5 4.6 2.5s3.6.9 5.4 3.2c3.3 4.2 2.1 5.9-1.3 1.8-2.4-2.9-3.1-3.2-8.6-3.2-7.8 0-16.6 3.3-22.1 8.4-2.3 2.1-4.5 3.5-4.8 2.9-.3-.5 2.2-3.3 5.6-6.3 9.7-8.3 9.6-8.2 11.3-6.8 1 .9 1.5.9 1.5.1 0-.6-.4-1.1-1-1.1-1.8 0-1-1.7 1.3-2.8 3.7-1.8 6.4-1.4 8.1 1.3M525.2 675c-1.8.4-4.3.6-5.5.3-2-.4-2-.3-.4.7 1.3.8 3.1.9 6.5.1 3.9-.8 4.9-.7 5.9.5.6.9 1.9 1.3 3 1 3.5-1 12.9-.7 22.8.8 13.7 2 24.9 5.6 40.5 12.9 10.5 4.9 26.4 16.7 36.3 26.9 6.1 6.3 8.1 7.8 8.8 6.7 1.2-1.9 1.1-3.8-.1-1.9-.9 1.3-1.4 1-3.5-1.5-1.4-1.7-2.3-3.5-2.1-4.2.6-1.4-1.8-3.6-2.8-2.6-.3.4-2.3-.9-4.4-2.8-3.6-3.4-12.9-10.4-22.2-16.6-5.7-3.8-21-10.4-32-13.8-13.6-4.2-35-6.8-41.1-4.9-.9.2-1.9-.2-2.3-1.1-.6-1.6-2.2-1.7-7.4-.5m111.2 42.1c-.3.5-1 .7-1.5.3-.5-.3-.7-1-.3-1.5.3-.5 1-.7 1.5-.3.5.3.7 1 .3 1.5m-247.4-.2c0 .8 1.8 3.7 3.9 6.5 6.5 8.4 8.2 12.6 8.2 19.9.1 3.6-.2 7.6-.6 8.9-.6 1.7-.4 2 .4 1.2.7-.7 1.2-4.3 1.2-8.9 0-6.4-.5-8.7-2.7-13.2-1.4-3.1-3.9-6.9-5.4-8.7-1.5-1.7-3.2-4-3.8-5.1-.7-1.3-1.2-1.5-1.2-.6m-17.3 6.8c-.4.3-.7 1.5-.7 2.5s-.4 1.8-.9 1.8-.7 1-.3 2.2c.5 2.1.4 2.2-1.4.8-1.5-1.1-1.6-1.1-.6 0 .6.8 1.2 2.3 1.2 3.4 0 1.2 1 4.1 2.1 6.6q4.8 10.5 2.4 17.4c-1.6 4.7-1.1 6.2.7 2 1.2-3 1.8-15.5.6-14.8-.9.6-5-10.5-4.5-12.5.2-1.1.8-.7 1.9 1.5 1.8 3.3 4.8 6.2 4.8 4.6 0-.5-.7-1.5-1.5-2.2-2.6-2.2-4.4-7-3.8-10.1.4-2.1.9-2.7 1.6-2 1.7 1.7 3.1 1.3 1.7-.4-1.4-1.6-2.3-1.9-3.3-.8m382 131.7c-.4 1 0 1.2 1.4.9 1-.3 2.5-.1 3.2.4.6.6 3.8 1.8 6.9 2.8 3.2 1 6.3 2.4 6.9 3.1.6.8 1.8 1.4 2.7 1.4 1.8 0 10.2 5.1 15.2 9.3 21.8 18.2 39.7 42.8 44.5 61.3 2.9 11.2 1.3 29-3.2 36.2-8.6 13.5-18.2 17.8-30.9 13.5-9.5-3.1-22.6-13.5-30-23.7-3.8-5.1-4.3-6.5-3.8-9.3.6-3 .4-3.3-1.7-3.1-2.1.3-2.4-.1-2.1-2.4.3-3.4-1.1-4.3-4.7-2.7l-2.9 1.3 3.6 2.9c2.1 1.6 4.4 2.6 5.4 2.3 1.6-.4 1.8 0 1.3 2.7-.5 2.8.1 4.2 4.2 9.7 5.2 7 16.5 17 22.7 20.2 14.4 7.4 27.4 5.8 35.5-4.3 6.9-8.7 8.5-14.3 8.5-29.4 0-11.8-.2-13.7-2.8-20.5-1.6-4.1-3.6-8.6-4.5-10s-2.3-3.6-2.9-5c-5.6-11.3-20.3-28.3-35.2-40.7-4.1-3.4-11.6-8.3-12.7-8.3-.5 0-2.6-1-4.8-2.2-2.2-1.1-5.8-2.7-8-3.4s-5.6-1.9-7.7-2.8c-3-1.3-3.7-1.3-4.1-.2m7.8 90.6c-.5.8-1.1.8-2.1-.1-1.2-1-1.2-1.4-.2-2 1.6-1 3.3.5 2.3 2.1m-110.4-49.5c.8.8 15.2 6 25.4 9.2 41.4 12.9 56.7 18.8 65.4 25.1 2.7 2 3.9 2.3 6 1.6 1.4-.5 2.7-1.8 2.9-2.8.3-1.5-.1-1.8-2.3-1.4-1.9.4-2.5.2-2.1-.8.3-.8.1-1.4-.4-1.4-.6 0-1 .9-1 2 0 1.7.5 1.9 2.5 1.4 3-.8 3.3.1.4 1.6-2.4 1.4-5.3-.5-4.4-2.8.4-1.2.2-1.2-.8-.4-.8.7-1.7.9-2.1.5-.3-.3.6-1.5 2.1-2.5 1.6-1 2.2-1.8 1.4-1.8s-2.3.7-3.3 1.7c-1.7 1.5-2.2 1.4-8.5-1.9-3.8-1.9-8.5-4.1-10.5-4.7-2.6-.9-3.5-1.7-3.1-2.7.3-.8 1.2-1.3 1.9-1 .8.3 1.4.1 1.4-.4 0-.6-.9-1-2-1s-2 .7-2 1.5c0 2.3-2.6 1.9-18.1-3.3-7.9-2.7-20.5-6.8-27.9-9.2s-13.9-4.7-14.5-5c-1.3-1-7.2-2.3-6.4-1.5M874 997.9c-3 1-6.2 2-7 2.3-2.4 1-52.4 14.5-71.5 19.3-7.1 1.8-12 3.5-11 3.7 1.1.2 2.7.1 3.5-.4.8-.4 6.7-2.1 13-3.7 6.3-1.7 21-5.5 32.5-8.7 31.4-8.4 32.5-8.7 33.1-8.1.3.3 1 5.1 1.6 10.8.5 5.7 1.2 10.6 1.5 10.9.5.5 0-6.5-1.3-18.5l-.6-5.1 8.4-2.1c4.5-1.2 7.2-2.1 5.8-2.1s-5 .8-8 1.7"/></g></svg>