<svg xmlns="http://www.w3.org/2000/svg" width="1365.333" height="1365.333" preserveAspectRatio="xMidYMid meet" version="1.0" viewBox="0 0 1024 1024"><g fill="#000" stroke="none"><path d="M608.1 11.4c-1 1.1-1.9 1.2-4.2.4-2.1-.7-3.4-.7-4.1 0-1.2 1.2-1.2 188.2 0 189.4.5.5 9.4.7 19.8.6l18.9-.3.1-93.5c.1-51.6-.2-94.2-.7-95.2-.7-1.4-2.8-1.6-13.9-1.7-7.2 0-13.5-.3-13.9-.6-.5-.2-1.4.2-2 .9m372.4 4.9c-1.3 2.1-1.5 13.2-1.3 93.8l.3 91.4h34l.2-8c.1-4.4.3-11.7.4-16.3.1-4.5.4-8.2.7-8.2s1 .7 1.7 1.7c.7.9 1.7 1.3 2.4.9 1.7-1.1-1.6-4.7-3.5-3.9-1.3.5-1.7-9.8-1.5-39.2v-56c.1-12.1 0-29.5-.1-38.7-.2-21 .9-19.8-18.2-19.8-13.1 0-13.6.1-15.1 2.3m-36.7 8.2c-.3.3-7 .8-14.9 1.1-7.9.2-14.7.8-15.1 1.2-.5.5-.7 39.9-.6 87.8l.3 86.9h34l.5-25.5c.3-14 .3-53.8 0-88.5-.4-55.8-.7-63-2-63.3-.9-.1-1.9 0-2.2.3m-114.1 1.3c-3 .3-4 .9-4.9 3-.8 1.9-1 23.7-.8 73.7.2 39 .4 77.3.4 85l.1 14 24.4.3c14.6.1 24.8-.1 25.5-.7 1.5-1.3 1.6-172.5.1-174-1-.9-36.9-1.9-44.8-1.3m188.9 2.1c-.4.5-.2 1.2.3 1.5.5.4 1.2.2 1.5-.3.4-.5.2-1.2-.3-1.5-.5-.4-1.2-.2-1.5.3m-355.2 2.4c-.3.9-.3 5.9 0 11.1.3 5.3.8 41.2 1.2 79.8.3 38.7.7 72.5.8 75.3l.1 5 40 .3 40 .2-.7-9.2c-.4-5.1-1.1-11.8-1.7-14.8-.5-3-1.6-10.5-2.5-16.5-1.9-12.9-3.6-25-4.2-28.5-.3-1.4-.9-5.7-1.4-9.5-.5-3.9-2-14.4-3.4-23.3-1.4-9-2.6-17.9-2.6-19.9 0-1.9-.4-4.2-.9-5.1s-1.1-4.4-1.5-7.7-1.4-12.3-2.4-19.9l-1.8-14-3.2-1.8c-2.6-1.4-5.3-1.8-12.5-1.7-5.1.1-16.7-.2-25.9-.6-14.8-.7-16.8-.6-17.4.8m356.1 1.7c-.4.6-.3 1.6.3 2.2s1.2.6 1.7-.2c.4-.6.3-1.6-.3-2.2s-1.2-.6-1.7.2M556 41.7c-1.4.2-3.2.6-4 .9s-4.9.8-9 1c-4.1.3-7.8.8-8.2 1.2-.5.5-.7 35.9-.5 78.7l.2 78h28v-80c0-79.3 0-80-2-80.1-1.1-.1-3.1 0-4.5.3m461.6 11.2c-.4.5-.2 1.2.3 1.5.5.4 1.2.2 1.5-.3.4-.5.2-1.2-.3-1.5-.5-.4-1.2-.2-1.5.3m4.8.2c-.3.6-.1 1.6.5 2.2.8.8 1.1.5 1.1-1.1 0-2.4-.5-2.8-1.6-1.1m-5.4 10.8c-.5 1.1-.6 2.2-.1 2.5 1.1.7 4.3-2.8 3.4-3.7q-1.65-1.8-3.3 1.2"/><path d="M1015.6 72.9c-.4.5-.2 1.2.3 1.5.5.4 1.2.2 1.5-.3.4-.5.2-1.2-.3-1.5-.5-.4-1.2-.2-1.5.3m6 12c-.4.5-.2 1.2.3 1.5.5.4 1.2.2 1.5-.3.4-.5.2-1.2-.3-1.5-.5-.4-1.2-.2-1.5.3m-1.1 3.1c-.3.5.4 1.4 1.5 2 1.6.8 2 .8 2-.4 0-1.6-2.7-2.9-3.5-1.6m-1.4 8.4c-.9 1-.9 1.6-.1 2.1 1.7 1 3.7-1.2 2.4-2.5-.8-.8-1.5-.6-2.3.4m3.3 8.7c-.3.6-.1 1.6.5 2.2.8.8 1.1.5 1.1-1.1 0-2.4-.5-2.8-1.6-1.1m.1 6.8c-.3.5-.1 1.2.5 1.6.5.3 1-.1 1-.9 0-1.8-.6-2.1-1.5-.7m-3.9 10c-.4.5-.2 1.2.3 1.5.5.4 1.2.2 1.5-.3.4-.5.2-1.2-.3-1.5-.5-.4-1.2-.2-1.5.3m-581.1 8.9c-3.9 2-9.9 5.9-13.5 8.6-10.5 8-41.8 40-51.4 52.6l-8.8 11.5-26.1.1c-28.2.1-30.5.4-52.1 6.8-4.8 1.4-9.6 2.6-10.6 2.6-1.8 0-6.8-3.7-20.5-15-7.4-6.1-25.3-19.4-31-23-10.5-6.5-27.9-16-32-17.4-7.8-2.6-17.5-3.2-21.3-1.2-6.3 3.2-12 17.2-14.8 35.8-2 13.4-1.4 44.6 1 59.3 2.5 14.4 4.1 13-14.2 13.3-19.2.3-46.7 1.3-74.2 2.7-9.6.5-20.5 1-40.5 2-6 .3-14.7.8-19.2 1.1l-8.3.6V1024l393.3-.3 393.2-.2 15-4.3c8.3-2.3 22.7-6.2 32-8.7 9.4-2.5 20.7-5.6 25.3-6.9 5.1-1.5 8.5-2 8.8-1.4.4.6 1 4.4 1.5 8.7.5 4.2 1.1 8.8 1.5 10.3l.6 2.8 15.9-.1c9.2 0 15.7-.4 15.4-.9s-1.3-.6-2.2-.3c-1 .4-1.4.2-.9-.5.9-1.5-1.2-2.6-2.8-1.3s-3.6-.5-3.6-3.2c0-1.4.3-1.7 1.3-.9.6.5 2.6 1.3 4.3 1.6 1.8.4 3.7 1.7 4.4 3.1.9 1.6 2.2 2.5 3.7 2.5 1.4 0 2.1-.4 1.8-1-.4-.6-1.1-.7-1.7-.4-.7.5-.9.1-.5-.9s-.1-2.1-1.2-2.9c-1.6-1.1-1.9-3.1-1.2-7 0-.4 1.3.4 2.7 1.7 1.9 1.8 3 2.2 3.9 1.5 1.2-1 3.2.3 3.4 2.2.1.5.4.7.9.5.8-.2.7-2.5-.2-4.8-.5-1.2-.1-1.5 1.6-1.5 1.3.1 2.3-.5 2.4-1.4 0-.8.2-2.4.2-3.4.2-2.5 1.5-1.3 1.7 1.6.1 1.6.8 2.2 2.9 2.3 3.4.1 4.2-1 1.9-2.4-1.5-.9-1.6-1.2-.3-2 1.4-1 2.1-5.7 1.1-7.6-.3-.6-.6-2.1-.6-3.5 0-1.7-.5-2.4-1.5-2.2-1.1.3-1.1-.1.3-1.6.9-1 1.7-3 1.7-4.4 0-2.3.8-2.8 10.1-5.7 20.2-6.4 34.7-16.1 40.4-27.1 1.8-3.5 5-17.4 6.9-30 2.2-15.1 6.6-68.1 8.6-105 .5-10.2 1.2-21.9 1.5-26 .2-4.1.7-11.8 1-17s.8-12.7 1-16.5c.6-7.6 2.2-34.4 3-49.5.3-5.2.8-13.3 1-18 3.5-59.1 3.2-86.5-.9-110-2.7-15.4-9-28.9-16.3-34.5-4.5-3.6-13.7-9.5-14.7-9.5-.4 0-2.6-.8-4.9-1.9-2.3-1-5.8-2.2-7.7-2.6s-4.4-1.4-5.6-2.1c-1.1-.8-2.3-1.2-2.6-.9s-2.5-.1-4.9-.9c-4.4-1.5-10.9-2.9-20.4-4.6-2.7-.5-7.2-1.3-10-1.8-2.7-.6-5.3-.8-5.7-.6-.5.3-1.3.2-2-.2-.6-.4-2.5-.8-4.2-1s-4.9-.5-7.1-.9c-12.2-1.7-31.4-3.6-41.5-4-4.1-.2-9.3-.6-11.5-.9s-8.5-.8-14-1.2c-10.1-.6-11.4-.7-19.5-1.8-2.5-.3-9.4-.9-15.5-1.2-11.8-.7-16-1-21.5-1.8-1.9-.2-9.6-1-17-1.6s-15.7-1.2-18.5-1.5c-2.7-.2-8.4-.7-12.5-1-4.1-.4-9.3-.8-11.5-1.1-2.2-.2-8.7-.6-14.5-.9s-11.4-.8-12.5-1-6.1-.7-11-1c-5-.2-11.8-.8-15.2-1.1s-8.6-.7-11.5-.9-12.6-.8-21.6-1.4-16.8-.9-17.2-.6c-.5.3-1.1-.4-1.4-1.7-1.4-7.4-3.6-19.9-4.1-23.8-.3-2.5-1.2-8.1-1.9-12.5-.8-4.4-1.2-8.2-1-8.4s1.6-.4 3.1-.5l2.8-.1.3-92.6c.2-81.6 0-92.8-1.3-93.9-2.2-1.8-36.9-1.8-39 0-1.3 1.1-1.5 5.2-1.5 28.9.1 17.1-.2 27.7-.9 27.9-.5.2-1.2-.6-1.6-1.7-.7-2.3-18.5-20.5-25.6-26.3-15.2-12.4-28.8-18.6-51.7-23.4-7.2-1.5-8.7-2.1-10.8-4.9-2.4-3.2-2.5-3.3-1.4-14.6 2.8-29.4-.6-70.3-8.4-99.9-3-11.7-4.8-15.9-8.2-19.9-3.5-4.2-7.1-4-15.9.7m13.5 18.7c1.2 4.4 3 11.1 4 15 5.7 21.3 7.5 44.3 5.8 72-.5 7.7-1.1 14.1-1.3 14.3s-3.5-2.1-7.4-5.2c-3.8-3.1-7.4-5.6-7.8-5.6-.5 0-2.5-1.3-4.5-3-2-1.6-7.4-4.6-12-6.6-12.1-5.2-13.3-5.8-13.3-7.2 0-.7-.5-1.6-1.1-2s-1.3-1.5-1.7-2.5c-.3-.9-1.4-1.7-2.2-1.7-2.5 0-1.2-4.6 5.7-19.9 13.7-30.4 30.4-58.9 33-56.3.4.4 1.6 4.3 2.8 8.7m-270.5 19.9c12.9 5.4 40.7 34.5 57.1 59.8 3.5 5.4 6.4 10.3 6.4 10.7 0 1.3-3.6 4.2-4.3 3.5-.3-.4-1.4-.3-2.4.1-1 .5-3.4.9-5.3.9-2.2.1-3.4.6-3.3 1.3.3 1.2-2.9 2.4-7.1 2.7-1.1.1-2 .7-1.8 1.4.4 2-1.7 5.2-3.5 5.2-2.2 0-8.3 3.9-8.3 5.3-.1 1.6-3.6 5.7-4.9 5.7s-3 3.1-2.4 4.6c.2.6-.6 1.9-1.7 2.9s-2 2.4-2 3.1-1.6 2.2-3.5 3.4-3.5 2.7-3.5 3.4c0 1.1-6.5 8.6-7.5 8.6-.4 0-1.5-2.4-5-10.5-2.7-6.3-9.5-28.3-10.9-35.5-2.5-12.8-2.7-16-2.7-34.1.1-19.2 1.8-32.5 5.1-38.9 2.7-5.3 5.4-6.1 11.5-3.6m252.8 101.9c.4-.3.7-.1.7.5 0 1.4-.2 1.4-2.4.6-.9-.3-1.6-1.1-1.6-1.6 0-.7.5-.6 1.3.1.8.6 1.7.8 2 .4m1 13.4c-1.3.2-3.3.2-4.5 0-1.3-.2-.3-.4 2.2-.4s3.5.2 2.3.4m6.4-.1c-.3.3-1.2.4-1.9.1-.8-.3-.5-.6.6-.6 1.1-.1 1.7.2 1.3.5m10.8 30.4c.3.5.1 1-.4 1-.6 0-1.1-.5-1.1-1 0-.6.2-1 .4-1 .3 0 .8.4 1.1 1m-15.1 1.5c-.4.9.2 1.8 1.7 2.4 2.2.9 2.1 1-1.1 1-1.9.1-5.8 1.2-8.7 2.5-8.9 4.2-14.3 14.3-14.3 26.8 0 3.4-.4 5.7-.9 5.3-.5-.3-1.2-.1-1.6.5-.3.5-1.1 1-1.7 1s-.3-.9.7-2 1.5-2 1.1-2-.1-1 .5-2.2c1-1.8.8-2.4-.7-3.5-1-.7-1.2-1.3-.6-1.3 1.7 0 3.3-4.2 2.1-5.5-1.3-1.3-1.1-2.5.4-2.3.6.2 1.2-.6 1.3-1.7s.2-2.5.4-3c.1-.6.2-1.4.1-1.8-.1-.5.2-.6.7-.3 1.2.7 7.6-6 6.8-7.2-.3-.5.2-.9 1.2-.8.9 0 1.6-.4 1.5-.9-.1-.6 1.5-1.1 3.5-1.1 2.7-.1 4.2-.9 5.6-2.8 2.3-3 2.8-3.3 2-1.1m14.8 7.3c4.7 3.1 5 4.1.4 1.3-1.9-1.2-5.1-2.8-7.2-3.6l-3.9-1.5 3.5.6c1.9.4 5.1 1.8 7.2 3.2m.1 5.3c1.2.6 2.3 1.3 2.5 1.4.1.1.9 3.4 1.7 7.4 1.7 8 .8 17-2.2 23.9-2.8 6.1-8 11.9-11.9 13.2-3.2 1.1-9.6 1-13.3-.1-.8-.2-2 .7-2.7 1.9-.6 1.3-1.4 1.9-1.8 1.4-.3-.5.1-1.5.9-2.2 1.2-1 1.3-1.6.4-2.6-.9-1.1-.7-1.4 1-1.4 5.9 0 12.5-5 16.2-12.2 4.4-8.7 1.2-24.6-6.1-30l-3.2-2.3 3.9-.5c4.3-.6 11.3.4 14.6 2.1m-57.1 9.1c-.7.7-1.2.8-1.2.2 0-1.4 1.2-2.6 1.9-1.9.2.3-.1 1.1-.7 1.7m-88.5.5c-.4.3-.1 1.3.6 2.1 1 1.3.9 1.4-.1.8-.7-.4-3.4-1.2-6-1.6l-4.7-.9 4.2.2c2.3.1 4.5-.2 4.9-.6s1-.7 1.2-.7c.3 0 .2.3-.1.7m51.3-.3c0 .2-.7.7-1.6 1-.8.3-1.2.2-.9-.4.6-1 2.5-1.4 2.5-.6m-13 1c0 .3-.4.8-1 1.1-.5.3-1 .1-1-.4 0-.6.5-1.1 1-1.1.6 0 1 .2 1 .4m-31 4.7c1.7 1.3 1.8 1.7.5 1-3.3-1.7-5.1-3.1-4-3.1.6 0 2.1 1 3.5 2.1m66-1.7c0 .3-.4.8-1 1.1-.5.3-1 .1-1-.4 0-.6.5-1.1 1-1.1.6 0 1 .2 1 .4m-16 5.5c-.6 1.2-1.5 1.9-2 1.6s-.2-1.4.8-2.4c2.2-2.2 2.7-1.9 1.2.8m-54.5.8c3.8 1.9 13.2 10.9 15.1 14.6 1 1.8 1.4 5 1.3 8.6-.1 3.2.1 6.3.5 6.9.4.7-.2 2.4-1.3 3.8-1.1 1.5-1.8 3-1.5 3.5s-.2.6-1 .3c-.9-.3-2.1.4-3.1 1.9-2.2 3.3-8.3 5.7-14.8 5.7-2.9 0-5.9.6-6.6 1.2-1 1-1.2 1-.7.1 1-1.8-4.7-4.6-6.3-3-1 .9-1.1.8-.6-.6.4-.9 1.7-1.7 3-1.7s3.8-1.2 5.6-2.7c8.3-7 10.6-23.1 4.9-35.1l-2.9-6.2 2.7.6c1.5.4 4.1 1.3 5.7 2.1M335 347c0 .5-.5 1-1.1 1-.5 0-.7-.5-.4-1 .3-.6.8-1 1.1-1 .2 0 .4.4.4 1m52.5 3c.3.6-.1.7-.9.4-1.8-.7-2.1-1.4-.7-1.4.6 0 1.3.4 1.6 1m-60.4 9.5c.9 2 1.3 3.7.9 4-.5.3-1.4-1-2.1-2.8-.7-1.7-1.4-3.5-1.7-4-.2-.4 0-.7.5-.7.4.1 1.5 1.6 2.4 3.5m2.6-1.3c-.3.8-.6.5-.6-.6-.1-1.1.2-1.7.5-1.3.3.3.4 1.2.1 1.9M362 357c0 .5-.2 1-.4 1-.3 0-.8-.5-1.1-1-.3-.6-.1-1 .4-1 .6 0 1.1.4 1.1 1m38 0c0 .5-.2 1-.4 1-.3 0-.8-.5-1.1-1-.3-.6-.1-1 .4-1 .6 0 1.1.4 1.1 1m15 1.9c0 1 1.1 4 2.5 6.7 2.9 5.7 3 6 1.1 4.4-.8-.6-2.3-3.5-3.2-6.3-.9-2.9-1.9-5.8-2.2-6.6-.3-.9-.1-1.2.6-.7.7.4 1.2 1.5 1.2 2.5m-48.5.1c.3.5.2 1-.4 1-.5 0-1.3-.5-1.6-1-.3-.6-.2-1 .4-1 .5 0 1.3.4 1.6 1m-27.6 2.4c.8 1 .8 1.6-.1 2.4-1 .8-1.3.4-1.4-1.4-.2-2.8-.1-2.9 1.5-1m7.9 1.1c-.3.3-.9-.2-1.2-1.2-.6-1.4-.5-1.5.5-.6.7.7 1 1.5.7 1.8m23.5.4c.3 1.5 0 1.9-1.4 1.8-2.2-.1-2.4-.8-.7-2.5 1.5-1.5 1.5-1.5 2.1.7m-14.7 0c-.3.4.3 1.6 1.3 2.5 1.4 1.3 2.4 1.4 4.5.7 1.4-.6 2.6-1.5 2.6-2.1 0-.5.5-1 1.1-1s.8.7.5 1.5c-.3.9.1 1.8.8 2.1 2 .8 1.2 3.9-1 3.9s-2.6 3-.4 3.1c.8.1 1.7.2 2 .4 1.4.8 5.6.7 6.7-.2.8-.6 1.5-.2 2.4 1.3 1.1 2.1 1.2 2.2 2.5.5 1.2-1.7 1.3-1.6 2.4.4 1 1.8 1.4 1.9 2.8.8 1.5-1.1 1.5-1.1.5.3-1 1.3-.7 2.1 1.6 5 2.2 2.6 2.7 3.9 2 5.6-1 2.6.6 4.1 1.8 1.8.8-1.4 1.1-1.4 2.6.3 1.6 1.8 1.5 1.9-3.5 3.1-5.8 1.3-15.1 5.5-16.8 7.6-.7.8-.9 2.3-.5 3.4.9 2.9 10.9 11.8 14.9 13.2l3.3 1.2.7 9.1.7 9.1-4.1 3.7c-5 4.5-11.5 6.8-19 6.8-5.8 0-15.4-2.7-19.8-5.6-3.4-2.2-5.1-.4-2.8 3 3.2 5 9 7 20.1 7 12.3 0 19.2-2.1 24.4-7.6l3.5-3.7 2.4 2.2c2 1.9 3.5 2.2 10.1 2.2 6.6-.1 8.7-.6 13.6-3 6-3.1 10.3-7.4 9.1-9.4-.4-.6-2.6.2-5.9 2.3-8.2 5.3-12.4 6.2-20.7 4.6-6.4-1.2-7-1.5-6.4-3.4.4-1.2.6-5.5.6-9.8l-.2-7.6 5.4-3c2.9-1.7 6.5-4.5 8-6.2 4.7-5.7 7.1-13.9 4.5-15.6-.8-.4-.7-.9.2-1.5.7-.4 1.9-.3 2.6.3.7.5 2 .7 2.9.4 1.3-.5 1.4-.9.4-2.1-.7-.8-.8-1.5-.3-1.5 1.5 0 5.4 3.1 4.9 3.9-.6.8 3.8 4.3 6.7 5.4 1 .4 1.7 1.4 1.5 2.3-.2 1.2.6 1.7 3 1.9 3.9.3 4.7.9 3.6 2.7-.5.7-.9 1.7-1 2.3-.1 1.8 1.7 4.6 2.9 4.4 2.9-.3 4.7.2 4.4 1.3-.1.7.3 1.2.8 1.1.6-.1 1.1.7 1.1 1.8s-.6 1.8-1.5 1.6c-2.1-.3-2.3 3.4-.1 4 1.4.4 1.8 1.3 1.7 4.1-.1 2.1.2 3.7.8 3.7.5 0 .9-.5.7-1-.1-.6.7.1 1.9 1.5s2.9 2.4 3.8 2.2c1-.2.7.4-.9 1.7-1.4 1.1-2.1 2.1-1.6 2.1s.3.6-.3 1.3c-1.3 1.7-.2 3 1.4 1.7.8-.7 1.8-.3 3.1 1.2 1.6 1.9 1.6 2 .2.9-1.5-1.1-2.1-1.1-3.3-.1-.9.7-1.3 1.5-1 1.8s0 1.1-.6 1.9c-.6.7-.8 1.3-.4 1.3s.2.6-.4 1.4c-1.4 1.6.2 3.2 2 2 .8-.5 1 .1.5 1.9-.5 2 0 3 2.2 4.7 2.3 1.8 2.4 2 .5 1.5-1.5-.4-2.5 0-3.2 1.2-.5 1-1.2 1.7-1.5 1.5-.3-.1-.5.1-.4.5.2.5.6.7 1.1.5.4-.1.2.7-.5 1.7-.9 1.5-1.5 1.7-2.5.9-.7-.6-1.3-.9-1.4-.7 0 .2-.2 1.3-.3 2.5-.1 1.1-1.9 3.6-3.9 5.5l-3.7 3.4 11.4 9c6.3 4.9 21.4 18.7 33.7 30.5 40.5 38.9 47.7 44.7 87.6 69.6 12.3 7.6 23.2 14.4 24.3 15s2.8 1.8 3.8 2.7c1 1 2.5 1.7 3.2 1.7s1 .3.7.7c-1.2 1.1 2.5 4.4 3.7 3.3 1.2-.9 7.1 2.1 7.1 3.7.1 1.9 1.9 3.4 3.7 3 1.5-.4 1.7-.2.9.7-1.4 1.7 2.2 5.1 4.1 4 .7-.4 1-.4.6.1-1.1 1.2 1.1 3.5 3.4 3.5 1.6 0 1.8.3.9 1.4s-.6 1.8 1.5 3.5c1.5 1.2 3.3 2 4 1.7.8-.3 1.1.1.7 1-.5 1.4 4.5 9 5.4 8 .8-.7 5 4.6 5.5 6.9.2 1.1 1 1.9 1.6 1.8.7-.2 1.3.4 1.3 1.2.2 1.6.5 3.2.9 4 .1.3.3.8.4 1.2.4 2.1 2.8 5.3 3.5 4.8 1.2-.7 3.4 2.2 2.7 3.4-.8 1.2 2.4 3 4.2 2.4.7-.3 1.2.3 1.2 1.4 0 1.3-.7 1.9-2.2 1.9-1.3-.1-2.3.3-2.3.9 0 .5 1.2.9 2.8.9 2.7-.2 3.6.9 1.7 2.1-.6.4-.8 1.1-.4 1.6.4.6 1.3.4 2.4-.6 1.6-1.5 1.8-1.4 1.8 1.2 0 1.5-.4 3.3-.9 3.9-.6.7-.4 1.6.6 2.4 1.2 1 1.3 1.6.4 2.6-.9 1.1-.8 1.5.4 2 .9.3 1.3 1.2 1.1 1.9-.3.7-.1 1.6.5 2 1.8 1 1.3 3.2-.8 3.8-1.5.3-1.8 1.1-1.4 2.7.3 1.2 1.1 2.4 1.8 2.6.7.3 1 1.6.7 3-.4 2-.7 2.2-1.9 1.3-.7-.7-1.2-1.8-.9-2.5.8-2-1-2.6-2.4-.9-.7.8-1.8 1.5-2.6 1.5-2 0-2.6 1.7-1.5 3.9.9 1.6.8 1.8-.9 1.4-1.1-.3-1.7-.9-1.4-1.4s.2-1.4-.1-1.9c-.9-1.5-3.7.9-3.1 2.6.3.8 0 1.1-.8.8-1.9-.7-4 2.2-3.1 4.3.5 1 .9 2.4 1.1 3 .3 1.5-5 5.6-5.9 4.6-.9-.9-3.8 1.8-3.1 2.8.3.5.9.7 1.3.4 1.8-1 4 2 3.4 4.7-.8 3.9-2.5 3.5-2.1-.4.3-3.3-1.3-4.4-3.8-2.6-1.2.9-2.6-1.3-2.8-4.2-.1-.9-1.1-1.5-2.4-1.5s-3.1-1-4-2.1c-3-3.9-24.5-18.6-32.2-22.1-4.1-1.9-8.4-3.9-9.4-4.5-4.6-2.4-20.9-6.9-30.6-8.4-9.2-1.5-23.8-1.9-24.9-.9-.2.2-1.2-.6-2.1-1.8-1.7-2-1.9-2.1-2.5-.4-.6 1.3-1.1 1.5-2 .7-1-.9-1.9-.6-3.3.8-1.9 1.9-1.9 1.9-3.1 0-.6-1-1.6-1.6-2.2-1.2s-.6 1.1.2 2c.6.8.9 1.7.5 2.1-.3.4-1.3-.2-2.1-1.3-1.4-1.7-1.6-1.7-2.7-.3-.7.9-2.6 1.5-4.1 1.5-3-.2-4.4.8-2.7 1.9.5.3 1 1.1 1 1.7s-1.1.1-2.5-1.2c-1.9-1.8-2.2-2.6-1.4-3.7.6-.7.9-1.3.5-1.3h-1.1c-.3 0-.5.3-.6.7-.1 1.9-3.4 4.3-5 3.8-2-.7-3.9 2.1-3.2 4.5.4 1.3.3 1.3-.6.1-.6-1-.6-2.1 0-3.2 1.2-2.3-.6-3.5-2.7-1.8-1.3 1-1.4.8-1-1.4.3-1.5-.1-3.1-1-3.8-.8-.6-1.4-.8-1.4-.4s-.6.2-1.4-.4c-1.1-.9-1.7-.6-3.1 1.5-1.6 2.4-1.7 2.5-3 .7-.8-1-1.5-1.4-1.5-.9 0 .6-.6.2-1.3-.8-1.2-1.6-1.4-1.6-3.1.3-1.1 1.2-2.4 2.1-2.9 2.1-.6 0-.2-.9.7-1.9 1.4-1.6 1.5-2.3.6-4-1.2-2.3-3.3-2-2.4.4.8 2-5.9 1.4-8.4-.8-1-.9-2.2-1.4-2.6-1-.4.5-1.2.8-1.7.8s-.8.4-.6 1c.1.5.8.9 1.5.7s1.1.3 1 1c-.2.8.7 1.3 2.5 1.2 1.5 0 2.7.4 2.7.9 0 .4-1 .7-2.2.5-1.7-.2-2.2.1-2 1.4.4 2.7-.7 2.1-1.9-.8-.5-1.5-1.2-2.4-1.5-2.1-.3.2-1.7-.6-3.1-1.9-2.8-2.6-4.6-2.4-3.6.4.4 1.3.2 1.3-1-.3-1.7-2.1-2.3-6-.8-5.1 1.1.7 3.3-1.8 2.4-2.7-.3-.4-1.2-.2-1.9.4-.8.7-1.4.7-1.9-.1-1.1-1.7-3.5.8-3.5 3.6 0 1.3-.5 2.4-1.1 2.4s-.9-.6-.6-1.3c.6-1.7-1.1-5.9-2.2-5.2-.5.3-1.3.1-1.6-.5-.5-.8-1.1-.7-2.1.1-.8.6-1.4.8-1.4.4s-.7-.2-1.5.5c-1.8 1.5-3.5.4-3.9-2.6-.2-1.2-1-1.8-2.1-1.6-1.2.2-1.6-.1-1.2-1.1.3-.8-.5-2.5-1.8-3.7-2.2-2.1-2.3-2.1-3.6-.3-1 1.2-2.7 1.8-5.6 1.8-2.7 0-3.9-.3-3.3-1 1-1.3-.3-4.6-2.4-6.4-1.2-1-1.9-1.1-3-.2s-1.4.8-1.2-.6c0-1.1-.5-1.8-1.6-1.7-.9.1-1.4-.4-1.2-1.1.8-2-1.5-2.8-3.3-1.3-.9.7-1.4.8-1 .2.4-.7 0-1.7-.7-2.3-1-.8-1.6-.9-2.1-.1-.3.6-1.1.8-1.6.5-.5-.4-1.2.1-1.5.9-.3.9-1 1.3-1.6 1-.5-.3-.7-1.2-.4-2 .3-.7.1-1.6-.5-1.9-.5-.4-.7-1.1-.3-1.6.7-1.2-1.5-4.1-2.6-3.4-.5.3-.6 1.5-.3 2.8.4 1.9.3 2-.7.4-.6-.9-1.8-1.7-2.6-1.7s-1.3-.4-.9-1c.3-.5-.6-1.7-2-2.6-1.3-.9-2.3-2-2-2.4 1.1-1.7-1.6-2.1-4.5-.7-3.3 1.7-4.4 1-5.5-3.6-.7-2.7-4.2-6-5.5-5.2-.4.2-.6-.6-.5-1.8.3-3.2-.4-4-2.3-2.5-1.2 1-1.4 1-.8 0 1.3-2.2-.5-3.5-2.5-1.6-1 .9-1.6 2.2-1.2 2.8s-.1.5-1-.3c-1.2-1-1.4-1.7-.7-2.6.7-.8.4-1.7-1-3s-1.7-2.2-1-3c.7-.9.6-1.6-.4-2.4-1.1-1-1.6-.8-2.4.6-.6 1-1.4 1.8-1.9 1.8-.4 0-.7.4-.5.9s-.4.3-1.3-.4c-1.5-1.3-1.5-1.5.5-2.2 1.7-.6 1.9-1.1 1-2.8s-1.4-1.9-3.3-.9c-1.2.7-1.9.8-1.5.4.4-.5.3-1.4-.3-2.2-.9-1-.8-1.8.5-3.2 1.2-1.3 1.4-2.1.6-2.6-.5-.3-.8-1-.5-1.5s.1-1.1-.4-1.4c-.5-.4-1.2-.2-1.5.3-.4.5-.2 1.2.4 1.6 1.7 1 .3 2.2-2.8 2.3-2.2 0-2.9-.4-2.8-1.6 0-.9-.5-1.6-1.1-1.4-1.9.3-1.6-1.5.3-2.2.9-.4 1.4-.9 1-1.3-1.2-1.3-3.5-1.1-4.7.3-1.6 1.9-3.3 1.8-2.5-.2.4-1-.1-2.5-1-3.5s-1.4-2.4-1.1-3.1c.7-2.1.7-2.8 0-2.9-.5 0-1.3-.5-2-1.1-.7-.5-1.7-.7-2.2-.4-.5.4-1.3.1-1.7-.5-.4-.7.1-1.6 1.1-2.2 1.8-.9 1.8-1 0-2.3-1-.8-1.6-1.4-1.2-1.4s.3-.9-.3-2c-1.2-2.2-3.5-1.7-2.6.6.3.8.1 1.4-.3 1.4-1.3 0-2.1-2.9-1-3.5.5-.4.7-1.1.3-1.6-.4-.6-1.4-.3-2.5.7-1 .9-2 1.4-2 1.1-.1-.4-.3-1.2-.4-1.7-.1-.6-.3-1.3-.4-1.6 0-.4-.8-.1-1.6.6-1.3 1.1-1.4 1-1-.2.7-1.9 6.5-1.9 8.7-.1 1.8 1.6 3.2.5 1.7-1.4-.6-.7-.8-1.3-.5-1.3.4 0 .4-.5.1-1-.5-.8-1.1-.8-2 0s-1.4.6-1.9-.6c-.4-1.1-1.1-1.3-1.9-.7-2.4 1.7-6.1.9-7.3-1.6-.7-1.3-1.6-2.6-2.1-3-1.4-1.1-3.5-5.3-3.8-7.8-.4-3.5-2-4.9-3.9-3.3-.9.7-1.4 1.6-1.1 2 .3.5.1 1.1-.4 1.5-.6.3-.7 1.3-.4 2.2.5 1.3.3 1.3-1.4-.3-1.1-1-1.8-2.1-1.7-2.3.2-.2-.1-1.2-.7-2.2-.7-1.4-.6-1.7.5-1.3 2.6 1 4.4-4.7 2-6.7-.8-.7-1.4-.7-1.9.1-.3.6-1.1.8-1.6.5-.5-.4-.2-1.7.7-3.1 1.5-2.2 1.2-2.9-1-2.5-.5.1-.6-.5-.3-1.3.8-2-.3-2.8-2-1.5-.9.8-1.3.8-1.3.1 0-.6.9-1.6 2.1-2.3 1.5-.8 1.8-1.4 1-2.2-1.4-1.4-5.2 1.9-4.4 3.9.3.8 0 1.4-.6 1.4s-1.1-.2-1.1-.4-.3-1.1-.6-1.9c-.3-.9.3-1.6 1.7-2 2.2-.6 2.2-.7.4-2.7-2-2.2-1.4-2.6 1.4-.8 2 1.2 5.6.4 4.6-1.1-.3-.5 0-1.3.6-1.7.9-.5.7-1.1-.5-2-1.2-.8-1.4-1.4-.6-1.9s.8-1.1-.1-2.1c-.9-1.1-.8-1.4.5-1.4 1 0 1.5.4 1.1.9-.3.5-.1 1.2.4 1.5 1.4.9 4.3-3.6 3.1-4.8-1.9-1.9-1-2.9 1-1.1 1.9 1.7 2.2 1.7 3.6.3 1.3-1.3 1.4-2 .3-3.9-1.1-2.1-1-2.3.3-1.1.9.7 2.2 1 3.1.6.8-.3 1.8 0 2.2.5.3.6 1.2.8 1.8.4.7-.3.4.3-.5 1.4-1.7 1.9-1.7 2 .6 4.2 1.8 1.7 2.6 1.9 3.1 1 .5-.7.1-1.7-.9-2.5-1-.7-1.3-1.5-.7-1.8 1.1-.7.8-4.1-.5-4.1-.5 0-1.5-.4-2.2-.9-1-.6-.9-1.1.5-2.1 1.7-1.3 1.7-1.4.1-2-2.7-1.1-4.9.1-4.1 2.2.3 1 .3 1.5-.1 1.1-.4-.3-.9-1.4-1-2.5-.2-1-.7-1.8-1.2-1.8-.5-.1-1.9-.6-3-1.3-1.2-.6-2.4-.9-2.7-.5-.8.7-3.7-1.6-3.7-2.9 0-.5 1.6-1.8 3.5-3 4-2.3 4.1-4.3.2-4.3-2.8-.1-5-1.4-2.6-1.7.8 0 1.9-.2 2.4-.2 2.5-.3 1.7-2-1-2.2-4.6-.2-4.8-.3-4.2-1.9.7-1.7-.9-2.9-3.8-3-1.1-.1-1.9-.7-1.7-1.3.4-2.1-1.8-5.3-3.1-4.5-.8.4-.7.1.1-.9 1.1-1.4 1.1-2.1-.3-4.2-1-1.4-2.2-2.6-2.8-2.6s-.2-.6.9-1.4c1-.8 1.6-1.8 1.2-2.2s-.3-1.3.3-2c1.9-2.3-.9-2.6-3.2-.3-1.7 1.7-2.3 1.9-3 .8-1.2-1.9-1.1-3.9.1-4 .6-.1 1.5-.3 2-.4.6-.1 1.3-.3 1.8-.4.4-.1-.3-1-1.5-2-1.9-1.6-2-2-.7-2.5 1-.4 1.3-1.3.9-2.5-.4-1.4.1-2.5 1.9-3.7 1.4-.9 2.3-2.1 1.9-2.7-.3-.5-.1-.7.5-.3.6.3 1.3.2 1.6-.3.4-.5.1-1.3-.4-1.6-.7-.5-.5-1.1.6-1.9 1-.8 1.4-1.8.9-2.5-.5-.9-1-1-1.8-.2-1.4 1.4-5 1.4-4.2.1.4-.6 1-.8 1.5-.5s1.4-.3 2-1.4c1.3-2.5-.5-3.8-1.9-1.4-.6 1-1.1 1.3-1.1.7 0-.5.6-1.8 1.3-2.8 1-1.4 1.8-1.5 3.9-.7 2.7 1 4.9-.1 2.8-1.4-.5-.3-1.5-1.6-2.2-2.8-1-2-1-2.1.6-.8 1.2 1 2 1.1 2.8.3 1.6-1.6 1.6-7.3 0-9.9-1.3-2-1.2-2.4.3-2.9 1-.4 2.6-.2 3.6.4 2.8 1.8 3.7-.8.9-3-2-1.6-2-1.8-.4-1.9 1.1-.1 2.4-.1 3 0s1.7-.5 2.3-1.3c1-1.1.7-1.7-1.1-3-1.9-1.4-2.1-1.8-.8-2.6.8-.5 1.5-1.3 1.5-1.7.1-1.7 2.4-4.7 3.1-4.1.4.4.2 1.4-.5 2.1-.9 1.2-.6 1.8 1.4 3.1 1.4.9 2.5 1.4 2.5 1s.6-.1 1.4.5c1.7 1.5 5 .1 6-2.5 1.1-2.8-.4-3.4-3.8-1.5-3.2 1.8-3.3 1.8-4.5-.1s-1.1-2 1.3-1.6c1.4.3 3.4-.1 4.3-.8 2-1.5 5.7-1.9 4.9-.5-1.1 1.8 2 3.2 4.8 2.1 2.9-1.1 3.4-2.8 1.1-3.6-2.6-1-1.6-2.1 1.6-1.9 2.3.1 3.3-.3 3.6-1.6.3-1.1.9-1.7 1.3-1.4.9.5 2.3-1.2 2.6-3 0-.6.2-1.6.2-2.3.2-.9.8-.9 2.6.3 2.1 1.4 2.5 1.4 3.6 0 .8-1 .9-1.9.3-2.8-.5-.6-.7-2.3-.3-3.7l.6-2.5 1.3 2.4c1.2 2.1 1.4 2.2 2.9.8 1.4-1.4 1.4-1.8-.1-4-1.5-2.4-1.5-2.5.5-3 3-.8 4 .1 2.6 2.3-.9 1.4-1 2.2-.1 3.1 1.6 1.6 6.8-1.8 5.3-3.6-.7-.9-.6-1.6.5-2.5 1.9-1.6 1-3.1-1.3-2.3-1.5.6-1.5.4-.4-1 .8-.8 2-1.3 2.8-1s2.6-.8 4.2-2.5c2.7-3.1 3.8-4 2.8-2.3m-85.9 2.3c-.3.8-.6.5-.6-.6-.1-1.1.2-1.7.5-1.3.3.3.4 1.2.1 1.9m102.3 2.2c0 .3-.4.8-1 1.1-.5.3-1 .1-1-.4 0-.6.5-1.1 1-1.1.6 0 1 .2 1 .4m3.4 3.2c.5 1.2.2 1.5-1 1-.8-.3-1.8-.6-2-.6-.3 0-.2-.5.1-1 .9-1.5 2.2-1.2 2.9.6m-40 2c.3.8.2 1.2-.4.9s-1-1-1-1.6c0-1.4.7-1.1 1.4.7m48.6.4c0 .5-.2 1-.4 1-.3 0-.8-.5-1.1-1-.3-.6-.1-1 .4-1 .6 0 1.1.4 1.1 1m9.5 4c-.3.5-1.4 1-2.3.9-1.4 0-1.3-.2.3-.9 2.7-1.1 2.7-1.1 2 0m26.1 2.7c-.6.6-3.6-.9-3.6-1.8 0-.5.9-.4 2 .3 1 .7 1.8 1.4 1.6 1.5m10.5 13.5c-1.1 1.1-1.3 1-.8-.3.3-.9.1-2.2-.4-2.8s-.1-.4.8.4c1.4 1.2 1.5 1.7.4 2.7m-24.3-2.5c-1.6.2-4 .2-5.5 0-1.6-.2-.3-.4 2.7-.4s4.3.2 2.8.4m28.4 3.5c-.2 1-.6 1.8-.7 1.8s-.5-.8-.7-1.8c-.3-1.1 0-1.9.7-1.9s1 .8.7 1.9m-149.7 15.7c.3.5.1 1.2-.5 1.6-.5.3-1-.1-1-.9 0-1.8.6-2.1 1.5-.7m1.5 10.4c0 .4-.8.2-1.9-.4-1.1-.8-1.6-1.9-1.3-3.2.5-1.8.6-1.8 1.8.4.7 1.3 1.3 2.7 1.4 3.2m-4.1 2.4c-.7 1-1.5 2-1.6 2.2-.2.2-.3-.5-.3-1.7 0-1.4.6-2.2 1.6-2.2 1.4 0 1.5.3.3 1.7m-4.5 2.8c-.4.8-1.1 1.5-1.6 1.5-.6 0-.5-.6.2-1.5.7-.8 1.4-1.5 1.6-1.5s.1.7-.2 1.5m174.6.5c0 .5-.2 1-.4 1-.3 0-.8-.5-1.1-1-.3-.6-.1-1 .4-1 .6 0 1.1.4 1.1 1m-176 7.6c0 .8-.4 1.2-1 .9-.5-.3-1-1-1-1.6 0-.5.5-.9 1-.9.6 0 1 .7 1 1.6m1.5 8.3c-1.5 1.3-6.5 2.3-6.5 1.2 0-.5 1.2-1.2 2.8-1.4 1.5-.2 3.1-.5 3.7-.6.5 0 .5.2 0 .8M263 445c-.8.5-1.9 1-2.5 1-.5 0-.3-.5.5-1s2-1 2.5-1c.6 0 .3.5-.5 1m10 2.1c0 .5-.4.9-1 .9-.5 0-1-.7-1-1.6 0-.8.5-1.2 1-.9.6.3 1 1 1 1.6m-230.1 4c3 .4 6.8 1.3 8.5 1.8 8.8 2.9 21.4 3.3 44.6 1.5 12.1-.9 52.9-.5 73.3.8l18.8 1.1 4.8 5.6c4.6 5.4 4.8 5.9 5.4 13.2 1.2 14.7-2.9 31.9-10.3 43.4-6.7 10.2-16 30.9-20.7 46-1.4 4.4-4 12.5-5.8 18-4 12-7.4 24.4-8.5 30.5-.4 2.5-1.6 8.5-2.6 13.5-1.3 6.7-1.8 14-1.8 28.7l-.1 19.7-2.5-.6c-1.4-.3-2.9-.9-3.5-1.3-.5-.4-2.8-1.1-5-1.5s-4.4-1-5-1.3c-.5-.4-1.7-.7-2.5-.9-2.5-.3-9.3-2.4-12.5-3.8-4.8-2.1-6.4-2.5-6.9-1.6-.3.5-2.3.5-4.3 0-9.3-2-13.9-3.1-15.3-3.6-.8-.4-1.9-.5-2.4-.4-.4.1-5.2-.8-10.5-1.9-5.3-1.2-11.4-2.3-13.6-2.6s-5.1-.7-6.5-.8c-1.4-.2-3.2-.6-4-.9s-2.8-.8-4.3-1.1c-1.5-.4-2.6-1-2.3-1.4.2-.4-.9-6.1-2.6-12.7s-3.4-14-3.8-16.5-2.2-10.8-3.9-18.4c-4.1-18.1-8.8-47.5-9.6-60.1-.9-15.1-4-30.4-10.5-51-6.6-20.8-6.1-34.1 1.4-39.5 2.2-1.6 15.2-4 17.6-3.3.8.3 3.9.9 6.9 1.4m231.7 15.1c.4-.4.2.1-.5 1-1.8 2.3-2.7 2.3-2.7-.1 0-1.4.4-1.7 1.2-1.1.6.6 1.5.6 2 .2m2.4 8.9c0 .6-.4.7-1 .4-.5-.3-1-1.1-1-1.6 0-.6.5-.7 1-.4.6.3 1 1.1 1 1.6m11 9.8c0 .4-.6.8-1.4.8s-1.2-.6-.9-1.4c.5-1.3 2.3-.9 2.3.6m1.5 7.8c-.2 1-.4 1.9-.4 2.1-.1.2-.6 0-1.1-.3-.8-.5-.7-1.1.1-2.1 1.5-1.8 1.8-1.8 1.4.3m25 82.4c1.1 1.7-.1 2.1-1.5.4-.8-.9-.8-1.5-.2-1.5s1.4.5 1.7 1.1M310 577c0 .5-.5 1-1.1 1-.5 0-.7-.5-.4-1 .3-.6.8-1 1.1-1 .2 0 .4.4.4 1m9.8 10.5c-.3.3-.9-.2-1.2-1.2-.6-1.4-.5-1.5.5-.6.7.7 1 1.5.7 1.8m4.2 2.5c0 .5-.2 1-.4 1-.3 0-.8-.5-1.1-1-.3-.6-.1-1 .4-1 .6 0 1.1.4 1.1 1m7.4 12.9c.3.4-.6.6-1.9.3-1.4-.2-2.5-.6-2.5-.8 0-.8 3.9-.4 4.4.5m8.9 1.6c-.8 2.2-2.2 1.8-1.6-.5.3-1.1.9-1.7 1.4-1.5.4.3.6 1.2.2 2m6.2 19.5c.3.5.1 1-.4 1-.6 0-1.1-.5-1.1-1 0-.6.2-1 .4-1 .3 0 .8.4 1.1 1m26.5 12.2c0 .6-.3.8-.7.5-.3-.4-1.2-.2-2 .4-.8.8-1.3.8-1.3.1 0-1 1.5-1.9 3.3-2.1.4-.1.7.4.7 1.1m5 .4c0 .8-.5 1.2-1 .9-.6-.4-.8-1.1-.5-1.6.9-1.4 1.5-1.1 1.5.7m3 2.3c0 .5-.7 1.2-1.6 1.5-1.4.5-1.5.4-.4-.9 1.4-1.7 2-1.9 2-.6m21.4 14.5c1.8-.7 2.5.6 1.7 2.8s-3.5.3-4.5-3.2c-.6-2-.5-2.2.4-.8.6.9 1.7 1.5 2.4 1.2m15.6 7c0 .2-.7.7-1.6 1-.8.3-1.2.2-.9-.4.6-1 2.5-1.4 2.5-.6m6.5 2.2c.2 2.2-2.1 2.8-4.3 1.1-1-.7-.8-1.3.5-2.3 2.3-1.7 3.6-1.3 3.8 1.2m15.6 7.7c-1 .9-1.1.8-.5-.6.3-1 .9-1.5 1.2-1.2s0 1.1-.7 1.8M470 676c1.3.8 1 1.4-1.4 3.7-2.6 2.5-2.7 2.6-1.3.4 1.2-1.8 1.4-2.8.5-3.8-1.2-1.5 0-1.7 2.2-.3m10 2.4c0 .3-.4.8-1 1.1-.5.3-1 .1-1-.4 0-.6.5-1.1 1-1.1.6 0 1 .2 1 .4m8 3.5c0 1.4-1.8 2.3-3.1 1.5-.8-.4-.7-.9.2-1.5 1.8-1.1 2.9-1.1 2.9 0m-16.5 1.1c.3.6-.1.7-.9.4-1.8-.7-2.1-1.4-.7-1.4.6 0 1.3.4 1.6 1m19.5 1.9c0 .5-.7 1.1-1.4 1.4q-1.5.6-.9-.9c.6-1.5 2.3-1.9 2.3-.5M665.3 706c-.6.7-2.3-2.3-2.3-4 0-.8.6-.4 1.3 1 .8 1.4 1.2 2.7 1 3m-10.3 1c0 .5-.4 1-1 1-.5 0-1-.5-1-1 0-.6.5-1 1-1 .6 0 1 .4 1 1m10.6 1.3c.4.4-.5.6-1.9.5-1.5-.1-2.7-.6-2.7-1 0-.9 3.6-.5 4.6.5m-7 5.3c1.3 1 1.2 1.2-.1 1.8-.9.3-1.4.2-1.1-.3s0-1.4-.8-2c-1.1-.9-1.8-.6-3.5 1.5-2.1 2.6-2.1 2.6-1.8.4.2-1.3 1.5-3.2 2.8-4.3 2.3-1.9 2.4-1.9 2.7-.1.2 1.1 1 2.4 1.8 3m11.4 3.9c0 1.2-1.9 1.2-2.3 0-.4-.9-.1-1.2.9-.8.7.3 1.4.7 1.4.8m-14.3 4.6c1.5 1.5-2.5 9.6-5.1 10.3-1.1.3-2.2.4-2.3.2-.8-.8 1-3.6 2.3-3.6 1.8 0 4.8-4.6 3.9-6-.3-.6-1.1-.8-1.6-.5-.5.4-.9.1-.9-.4 0-1.4 2.3-1.4 3.7 0m13.3-.7c0 .2-.7.9-1.5 1.6-1.3 1.1-1.4 1-.9-.4s2.4-2.3 2.4-1.2m-7 2.6c0 .5-.2 1-.4 1-.3 0-.8-.5-1.1-1-.3-.6-.1-1 .4-1 .6 0 1.1.4 1.1 1m-3.5 12c-1 1.1-2 1.8-2.3 1.5-.7-.6 1.8-3.5 3.1-3.5.5 0 .2.9-.8 2m264.2 259.7c-.2.2-1.4.6-2.7.8-1.8.3-2 .2-1-1 .6-.8 1.8-1.1 2.6-.8s1.3.7 1.1 1M921 999c0 .5-.5 1-1.1 1-.5 0-.7-.5-.4-1 .3-.6.8-1 1.1-1 .2 0 .4.4.4 1m-4.6 2.4c-.6 1.6-2.4 2.3-2.4.8 0-1 2.2-3.3 2.7-2.8.2.2.1 1.1-.3 2m-6.4 2.1c-1.4 1.7-3 2-3 .6 0-.5.8-1.2 1.8-1.4.9-.3 1.9-.5 2.1-.6.2 0-.2.6-.9 1.4m-.3 5.6c-1.1 1.8-1.2 1.8-1.8.1-.8-2.2-.2-3.3 1.6-2.6 1.1.5 1.2 1 .2 2.5m-8.6.3c-.6.7-1 1.5-.8 1.7.1.2-.2.2-.6-.2-1.1-.8.3-4 1.5-3.3.5.4.5 1.1-.1 1.8m14.4-.4c-.3.5-1.2 1-1.8 1-.7 0-.6-.4.3-1 1.9-1.2 2.3-1.2 1.5 0m-14.1 5.6c-.1 1.6-3.4 1.6-3.4.1 0-.9.8-1.4 1.8-1.3.9.2 1.7.7 1.6 1.2m-12.5 7c-1.5 1.8-2.2 1.3-1.3-1 .3-.9 1-1.3 1.6-1 .5.3.4 1.2-.3 2"/><path d="M350.6 368.9c-.4.5-.2 1.2.3 1.5.5.4 1.2.2 1.5-.3.4-.5.2-1.2-.3-1.5-.5-.4-1.2-.2-1.5.3m3.9 0c-.7 1.2 1.2 2.4 2.5 1.6 1.1-.7.4-2.5-1-2.5-.5 0-1.1.4-1.5.9m.1 6c-.4.5-.2 1.2.3 1.5.5.4 1.2.2 1.5-.3.4-.5.2-1.2-.3-1.5-.5-.4-1.2-.2-1.5.3m6.2.8c-.3.5-.4 1.4-.4 2 .1 1.6 2 1.2 2.2-.4.2-1.5-1.3-2.7-1.8-1.6m3.8.2c-.4.5-.2 1.2.3 1.5.5.4 1.2.2 1.5-.3.4-.5.2-1.2-.3-1.5-.5-.4-1.2-.2-1.5.3m14.3 3.5c-.1.3-.2.9-.3 1.3-.1.5-.5 1.3-.9 2-.4.6-.3 1.4.3 1.8.5.3 1.1.4 1.1.1.1-.3.3-1.1.4-1.6.1-.6.3-1.3.4-1.7 0-.3 1 .2 2 1.1 1.1 1 2.2 1.3 2.5.8s-.1-1.5-.9-2.2-1.5-.9-1.5-.5-.7.2-1.5-.5-1.6-1-1.6-.6m-37.8 2c-1.5 1.8-.1 2.8 1.7 1.3.8-.6 1.7-1.1 1.9-1 .1.2.4 0 .6-.4.4-1.2-3.2-1.1-4.2.1m17.5-.5c-.4.5-.2 1.2.3 1.5.5.4 1.2.2 1.5-.3.4-.5.2-1.2-.3-1.5-.5-.4-1.2-.2-1.5.3m-22 4c-.4.5-.2 1.2.3 1.5.5.4 1.2.2 1.5-.3.4-.5.2-1.2-.3-1.5-.5-.4-1.2-.2-1.5.3m48 0c-.4.5-.2 1.2.3 1.5.5.4 1.2.2 1.5-.3.4-.5.2-1.2-.3-1.5-.5-.4-1.2-.2-1.5.3m-83 24c-.4.5-.2 1.2.3 1.5.5.4 1.2.2 1.5-.3.4-.5.2-1.2-.3-1.5-.5-.4-1.2-.2-1.5.3m-5 2c-.4.5-.2 1.2.3 1.5.5.4 1.2.2 1.5-.3.4-.5.2-1.2-.3-1.5-.5-.4-1.2-.2-1.5.3m-6.2 8.2c-.2.4.2 1.1.9 1.7 1.5 1.2 6.1-.3 5.2-1.8-.6-1-5.4-1-6.1.1m-12.8 34.7c-.3.6.1 1.5.8 2.1.8.7 1.7.8 2 .3.3-.6-.1-1.5-.8-2.1-.8-.7-1.7-.8-2-.3m4.5 10.6c-.8 1-.7 1.7.4 2.6 1.3 1.1 1.9 1.1 3.2-.2 1.4-1.5 1.3-1.7-.5-2.7-1.5-.8-2.3-.7-3.1.3m1.5 10.5c-.4.5-.2 1.2.3 1.5.5.4 1.2.2 1.5-.3.4-.5.2-1.2-.3-1.5-.5-.4-1.2-.2-1.5.3m6 3c-1.1 1.7 1.4 5.5 2.7 4.2.7-.7 1.4-.7 2.3 0 .8.6 1.4.7 1.8 0 .4-.5.2-1.2-.4-1.6-.5-.3-1-.3-1 .1s-1.1-.3-2.4-1.5c-1.5-1.4-2.6-1.9-3-1.2m9 12c-.4.5-.1 1.3.4 1.6.8.5.6 1.3-.5 2.5-1.3 1.4-1.3 1.9-.2 2.8.8.7 1.6.9 2 .6.3-.3.3.3 0 1.4-.5 2.2 1.4 3.9 2.8 2.5.6-.6.2-1.9-1.1-3.6-1.3-1.6-1.7-2.8-1-3.2s.8-1.1.1-1.8c-.5-.7-1-1.7-1.1-2.2-.3-1.5-.7-1.7-1.4-.6m34.9 16.1c-.8 1.2 2 2.4 3.5 1.5.6-.3.8-1.1.5-1.6-.8-1.2-3.2-1.2-4 .1m-23 1c-.4.6-.3 1.6.3 2.2s1.2.6 1.7-.2c.4-.6.3-1.6-.3-2.2s-1.2-.6-1.7.2m30.1.9c-.4.5-.2 1.2.3 1.5.5.4 1.2.2 1.5-.3.4-.5.2-1.2-.3-1.5-.5-.4-1.2-.2-1.5.3m-40.5 8.5c-1.8 2.1-.6 3.5 2.7 3.2 2.4-.2 4.4-1.5 2.5-1.7-.5 0-1.5-.7-2.4-1.5-1.4-1.3-1.8-1.3-2.8 0m-5.6 3.6c-1 1.7 1.2 3.7 2.5 2.4.8-.8.6-1.5-.4-2.3-1-.9-1.6-.9-2.1-.1m2.6 10.4c-.7.8-.8 1.7-.3 2 .6.3 1.5-.1 2.1-.8.7-.8.8-1.7.3-2-.6-.3-1.5.1-2.1.8m-6.5 2.5c-.8 1.2 2.1 3.4 3.4 2.6.8-.5.8-1.1-.1-2.1-1.3-1.6-2.5-1.8-3.3-.5m11 20c-.4.5-.2 1.2.3 1.5.5.4 1.2.2 1.5-.3.4-.5.2-1.2-.3-1.5-.5-.4-1.2-.2-1.5.3m2.4 2.6c-.9 1.1-.6 1.7 1.4 3 3 2 5 1.2 3.6-1.4-1.3-2.5-3.6-3.3-5-1.6m52.5 56.4c-.7 1.2 1.2 2.4 2.5 1.6 1.1-.7.4-2.5-1-2.5-.5 0-1.1.4-1.5.9m15.6 13.1c-1.6 1-2.3 3.7-1.1 4.5.4.2 1.5-.4 2.5-1.5 2.1-2.3 1-4.5-1.4-3m12.9 6.9c-.6 1.2-.6 2.2-.1 2.6.6.3 1.5-.3 2.1-1.4.6-1.2.6-2.2.1-2.6-.6-.3-1.5.3-2.1 1.4m7.5 5c-.7 1.2 1.2 2.4 2.5 1.6 1.1-.7.4-2.5-1-2.5-.5 0-1.1.4-1.5.9m1 4.1c-.3.5-.2 1 .2 1.2 1.3.7 3.3.3 3.6-.6.3-1.2-3.1-1.7-3.8-.6m11.1.9c-.4.5-.2 1.2.3 1.5.5.4 1.2.2 1.5-.3.4-.5.2-1.2-.3-1.5-.5-.4-1.2-.2-1.5.3m30.5 16.5c-.7.8-.8 1.7-.3 2 .6.3 1.5-.1 2.1-.8.7-.8.8-1.7.3-2-.6-.3-1.5.1-2.1.8m12.5 1.5c-.4.5-.2 1.2.3 1.5.5.4 1.2.2 1.5-.3.4-.5.2-1.2-.3-1.5-.5-.4-1.2-.2-1.5.3m-7 1c-.4.5-.2 1.2.3 1.5.5.4 1.2.2 1.5-.3.4-.5.2-1.2-.3-1.5-.5-.4-1.2-.2-1.5.3m11 1c-.4.5-.2 1.2.3 1.5.5.4 1.2.2 1.5-.3.4-.5.2-1.2-.3-1.5-.5-.4-1.2-.2-1.5.3m2.5 5c-.6 1-.8 2.1-.5 2.4.9.9 5.5-2.4 4.8-3.4-.9-1.5-3.3-1-4.3 1m199.5 2c-.4.5-.2 1.2.3 1.5.5.4 1.2.2 1.5-.3.4-.5.2-1.2-.3-1.5-.5-.4-1.2-.2-1.5.3m4 3c-.4.5-.2 1.2.3 1.5.5.4 1.2.2 1.5-.3.4-.5.2-1.2-.3-1.5-.5-.4-1.2-.2-1.5.3m-1 5c-.4.5-.2 1.2.3 1.5.5.4 1.2.2 1.5-.3.4-.5.2-1.2-.3-1.5-.5-.4-1.2-.2-1.5.3m-161 1c-.4.5-.2 1.2.3 1.5.5.4 1.2.2 1.5-.3.4-.5.2-1.2-.3-1.5-.5-.4-1.2-.2-1.5.3m161 3c-.4.5-.2 1.2.3 1.5.5.4 1.2.2 1.5-.3.4-.5.2-1.2-.3-1.5-.5-.4-1.2-.2-1.5.3m3 2c-.4.5-.2 1.2.3 1.5.5.4 1.2.2 1.5-.3.4-.5.2-1.2-.3-1.5-.5-.4-1.2-.2-1.5.3m1.6 5.6c-1.6 1.7-1.9 2.6-1.1 3.1.7.4 2-.3 3.2-1.7 1-1.3 2.1-2.3 2.3-2.2.2.2.5 0 .7-.4.6-1.7-3.2-.8-5.1 1.2m-6.6 1.4c-.4.5-.2 1.2.3 1.5.5.4 1.2.2 1.5-.3.4-.5.2-1.2-.3-1.5-.5-.4-1.2-.2-1.5.3m-5.1 1.1c-.4.6-.3 1.6.3 2.2s1.2.6 1.7-.2c.4-.6.3-1.6-.3-2.2s-1.2-.6-1.7.2m-5.9 1.9c-.4.5-.2 1.2.3 1.5.5.4 1.2.2 1.5-.3.4-.5.2-1.2-.3-1.5-.5-.4-1.2-.2-1.5.3m-4 6.9c-.3.6.1 1.5.8 2.1.8.7 1.7.8 2 .3.3-.6-.1-1.5-.8-2.1-.8-.7-1.7-.8-2-.3m8.9.1c-.7 1.2 1.2 2.4 2.5 1.6 1.1-.7.4-2.5-1-2.5-.5 0-1.1.4-1.5.9m-11.6 3.4c-.1.4-.2 1-.3 1.4-.1.5-.5 1.4-.9 2-.5.7-.5 1.8-.2 2.3 1 1.6 3.2-.6 3-3-.1-1.9-1.4-4-1.6-2.7m2.7 10.6c-.4.5-.2 1.2.3 1.5.5.4 1.2.2 1.5-.3.4-.5.2-1.2-.3-1.5-.5-.4-1.2-.2-1.5.3M1018.5 133c-.4.6-.3 1.6.3 2.2s1.2.6 1.7-.2c.4-.6.3-1.6-.3-2.2s-1.2-.6-1.7.2m-2.7 14.7c-.3.5-.4 1.4-.4 2 .1 1.6 2 1.2 2.2-.4.2-1.5-1.3-2.7-1.8-1.6m-.3 7.2c-.7 1.2 1.2 2.4 2.5 1.6 1.1-.7.4-2.5-1-2.5-.5 0-1.1.4-1.5.9m2.1 20c-.4.5-.2 1.2.3 1.5.5.4 1.2.2 1.5-.3.4-.5.2-1.2-.3-1.5-.5-.4-1.2-.2-1.5.3m1 17c-.4.5-.2 1.2.3 1.5.5.4 1.2.2 1.5-.3.4-.5.2-1.2-.3-1.5-.5-.4-1.2-.2-1.5.3m-255.4 70.2c-1.7.6-2.3 1.6-2.1 3.6.1 1.6.1 5.9.1 9.8l-.2 7h-22.6c-19.8 0-22.7.2-23.8 1.6-1 1.5-1.4 1.5-3.1.3-1.3-.9-2.2-1.1-3.1-.3-.8.7-1.3.6-1.6-.2-.5-1.4-1.7-1.7-11.8-2.4-4.1-.3-9.6-.9-12.1-1.4-2.6-.4-5.6-.4-6.8 0l-2.1.8-.1 75.3c-.2 84.4-.1 91.9 1.1 93.2.4.4 29.7 1 64.9 1.2 55.2.3 64.3.1 64.7-1.1.3-.8.7-42.7.7-93.2l.2-91.8-3.5-1.7c-2.3-1.1-4.7-1.5-7-1.1-1.9.3-4.2.6-5 .5-4.7-.5-17.9-.4-18.8.2-.6.3-1.3.2-1.7-.4-.7-1.2-3.2-1.2-6.3.1m-50 108.1c-.8.8-.9.4-.5-1.3.4-1.3.8-1.8 1.1-1 .2.7-.1 1.8-.6 2.3M694 439c0 .5-.4 1-1 1-.5 0-1-.5-1-1 0-.6.5-1 1-1 .6 0 1 .4 1 1m193.6-171.8c-1.4 2-1.6 11.7-1.6 91.1 0 59.2.4 89.5 1.1 90.8.9 1.8 2.2 2 20.5 1.8 11.5-.1 19.7-.5 20-1.1.4-.6.7-3.8.8-7.2.2-6.3 1.2-9.1 3.4-9.1.6 0 1.1-.5 1-1-.2-.6-1.2-.9-2.2-.7-1.9.2-1.9.2-.1-1.8 1.6-1.8 1.4-2.4-.6-2.2-.7.1-1.9-10-1.3-10.7.2-.2 1 .2 1.8.8.9.8 1.6.8 2 .2.6-1-1.1-2.6-2.9-2.6-1 0-1.5-24.4-.5-25 .3-.2.3-3.1 0-6.5-.4-4-.2-7.1.6-8.5.8-1.7.9-2.6.1-3.4-1.4-1.4-1.7-5.1-.6-7.2.5-.9.6-1.9.2-2.3-.7-.7-.7-21.5 0-22.2.5-.5-.1-11.1-.8-13.1-.2-.6.3-1.7 1.1-2.4 1-.8 1.1-1.5.3-2.5-.7-.8-1-9.8-.9-26.3 0-20.6-.2-25.6-1.5-28l-1.5-3-18.4-.1c-18.1 0-18.5 0-20 2.2m-55 30.6c-.3.5-1.9.8-3.6.7-3.6-.2-4.7 1-2.9 3.1 1 1.2 1 1.5-.2 1.2-1-.2-1.3.5-1.2 2.2.4 4.8.5 10.6.2 41.7-.1 22.1.1 31.6.9 32.6.8.9.8 1.7.2 2.3-1.6 1.6-1.5 59.1 0 60.9 1 1.2 1 1.8 0 3-.7.8-1 2.2-.6 3 .5 1.3 2.6 1.5 13.8 1.3l13.3-.3.2-5.5c.7-14.9.1-56.5-.7-57.5-.6-.7-.6-1.5.1-2.2.6-.6.9-15.9.7-43.9-.3-37.3-.5-42.9-1.8-42.9-1.6 0-1.6.7-.4 4 .7 1.7.6 1.8-.8.7-.8-.7-2.4-.9-3.4-.6-1.7.6-1.7.5.1-.9 1.7-1.3 1.8-1.8.7-2.9s-1.8-.8-3.8 1.5c-1.3 1.6-2.2 3.3-1.9 3.8.4.5-.1.9-1 .9-1.4 0-1.4-.2.1-2.5.9-1.4 1.4-2.6 1-2.6-1.4-.3-2.6-.7-2.8-.9-1-.7-5.8-.9-6.2-.2m3.8 4.7c-.7 1.6-2.4 2.1-2.4.6 0-.8.7-1.3 2.7-2 .1-.1 0 .6-.3 1.4m11.1 27.3c-.3.3-1.1 0-1.8-.7-.9-1-.8-1.1.6-.5 1 .3 1.5.9 1.2 1.2M835 355c0 .5-.2 1-.4 1-.3 0-.8-.5-1.1-1-.3-.6-.1-1 .4-1 .6 0 1.1.4 1.1 1m10 27c0 .5-.5 1-1.1 1-.5 0-.7-.5-.4-1 .3-.6.8-1 1.1-1 .2 0 .4.4.4 1m90.6-50.1c-.4.5-.2 1.2.3 1.5.5.4 1.2.2 1.5-.3.4-.5.2-1.2-.3-1.5-.5-.4-1.2-.2-1.5.3m13.3 1.5c-.1.3-.2.9-.3 1.3-.1.5-.5 1.3-.9 2-.4.6-.3 1.4.3 1.8.5.3 1.1.4 1.1.1.1-.3.2-.9.3-1.4.1-.4.5-1.2.9-1.9.4-.6.3-1.4-.3-1.8-.5-.3-1.1-.4-1.1-.1"/><path d="M931.5 348c-1 1.6 2.6 5.3 3.9 4 .7-.7.4-1.7-1.1-3.1-1.4-1.5-2.3-1.8-2.8-.9m27 .9c-.3.6.3 1.5 1.4 2.1 1.2.6 2.2.6 2.6.1.3-.6-.3-1.5-1.4-2.1-1.2-.6-2.2-.6-2.6-.1m-3.9 7c-.4.5-.2 1.2.3 1.5.5.4 1.2.2 1.5-.3.4-.5.2-1.2-.3-1.5-.5-.4-1.2-.2-1.5.3m-13 2c-.4.5-.2 1.2.3 1.5.5.4 1.2.2 1.5-.3.4-.5.2-1.2-.3-1.5-.5-.4-1.2-.2-1.5.3m-11 3c-.4.5-.2 1.2.3 1.5.5.4 1.2.2 1.5-.3.4-.5.2-1.2-.3-1.5-.5-.4-1.2-.2-1.5.3m5 0c-.4.5-.2 1.2.3 1.5.5.4 1.2.2 1.5-.3.4-.5.2-1.2-.3-1.5-.5-.4-1.2-.2-1.5.3m25 6c-.4.5-.2 1.2.3 1.5.5.4 1.2.2 1.5-.3.4-.5.2-1.2-.3-1.5-.5-.4-1.2-.2-1.5.3m-13 2c-.4.5-.2 1.2.3 1.5.5.4 1.2.2 1.5-.3.4-.5.2-1.2-.3-1.5-.5-.4-1.2-.2-1.5.3m10 1c-.4.5-.2 1.2.3 1.5.5.4 1.2.2 1.5-.3.4-.5.2-1.2-.3-1.5-.5-.4-1.2-.2-1.5.3m3 13c-.4.5-.2 1.2.3 1.5.5.4 1.2.2 1.5-.3.4-.5.2-1.2-.3-1.5-.5-.4-1.2-.2-1.5.3m-.5 7.5c-1.6 1.9-1 5.1.9 5.1 1.7 0 2.6-4.3 1.2-5.7-.5-.5-1.4-.3-2.1.6m.5 15.5c-.4.5-.2 1.2.3 1.5.5.4 1.2.2 1.5-.3.4-.5.2-1.2-.3-1.5-.5-.4-1.2-.2-1.5.3m-18.1 2.1c-.4.6-.3 1.6.3 2.2s1.2.6 1.7-.2c.4-.6.3-1.6-.3-2.2s-1.2-.6-1.7.2m18.3 1.7c-.3.5-.4 1.4-.4 2 .1 1.6 2 1.2 2.2-.4.2-1.5-1.3-2.7-1.8-1.6m-8.2 3.2c-.4.5-.2 1.2.3 1.5.5.4 1.2.2 1.5-.3.4-.5.2-1.2-.3-1.5-.5-.4-1.2-.2-1.5.3m7.2 4.8c-.3.5-.4 1.4-.4 2 .1 1.6 2 1.2 2.2-.4.2-1.5-1.3-2.7-1.8-1.6m-18.1 1.9c-.3.4-.2 1.6.4 2.6.8 1.5 1.4 1.7 2.2.9s.7-1.5-.4-2.6c-.8-.9-1.8-1.3-2.2-.9m19.1 4.1c-.3.5-.4 1.4-.4 2 .1 1.6 2 1.2 2.2-.4.2-1.5-1.3-2.7-1.8-1.6m-23.3 4.2c-.7 1.2 1.2 2.4 2.5 1.6 1.1-.7.4-2.5-1-2.5-.5 0-1.1.4-1.5.9m14.9 2.2c-1 1.7 1.3 3.6 2.7 2.2 1.2-1.2.4-3.3-1.1-3.3-.5 0-1.2.5-1.6 1.1m-12.8 3.8c-.4.5-.2 1.2.3 1.5.5.4 1.2.2 1.5-.3.4-.5.2-1.2-.3-1.5-.5-.4-1.2-.2-1.5.3m1 10c-.3.5.1 1.4.8 2 1.6 1.3 3.2-.2 2.1-1.9-.8-1.2-2.2-1.3-2.9-.1m16 0c-.3.5.5 1.6 1.8 2.5 2.1 1.3 2.6 1.3 3.6.1s.7-1.7-1.5-2.5c-3.2-1.2-3.2-1.2-3.9-.1m-39 568.9c-.3.6.1 1.5.9 2.2 1.1.9 1.2 1.6.5 2.5s-.7 1.5-.1 1.9c.5.4 1.2.2 1.6-.4.6-1 3.3-.9 5.2.3.6.4 1.4.3 1.8-.3.6-1 .5-1.1-1.4-1.4-.5 0-1.2-.4-1.6-.8s-1.4-.4-2.3-.1c-1.2.4-1.4.3-.7-.5.6-.6 1.9-1.3 3-1.4 1.1-.2 2-.8 2-1.3 0-1.4-4.2-1.8-5-.5-.5.8-1.1.8-2 0-.8-.7-1.6-.7-1.9-.2m-6.8 6.8c-1.4 1.3.6 4.4 2.7 4.4 2.6 0 5.2-2.5 3.6-3.4-.5-.4-1.3-.1-1.6.4-.5.8-1.3.6-2.4-.4-1-.9-2-1.4-2.3-1"/></g></svg>