<svg xmlns="http://www.w3.org/2000/svg" width="1365.333" height="1365.333" preserveAspectRatio="xMidYMid meet" version="1.0" viewBox="0 0 1024 1024"><g fill="#000" stroke="none"><path d="M409.5 67.1c-5.2 2.6-5-4.2-5.3 132.6L404 327H290.7c-125.3 0-124.1 0-142.1 6.4-12.5 4.5-23.1 11.1-33.4 21-13.9 13.3-21.9 27.9-26.5 48.1-1.8 8.3-2 13.4-2.4 63.6l-.5 54.6-4.1 1.3c-15.9 5-29.5 18.9-35.4 36.3l-2.8 8.2-.3 110.9c-.3 108.7-.2 111.1 1.8 119 2.6 10.2 6.8 17.3 14.8 24.7 7.7 7 18.1 11.7 29.2 13.2 10.5 1.3 10.3 1.2 9.7 5-.2 1.7-2 18.3-3.8 36.9-3.6 36.9-3.5 39.5 1.4 43.2 2.6 1.9 4.4 2.1 20 2.4 21.2.4 24.1-.3 27.4-6.8 1.3-2.5 6.8-19.6 12.3-38s10.7-35.4 11.6-37.8l1.6-4.2H854l1 2.2c.5 1.3 6 19.1 12.1 39.7s11.8 38.6 12.7 39.9c2.8 4.3 6.8 5.2 22.9 5.2 16.4 0 20.8-.8 24.3-4.5s3.5-9 .6-44c-1.4-17.1-2.7-32.6-2.9-34.5l-.2-3.5 6.4-.7c23.2-2.6 39.6-15.4 46.3-36.2l2.3-7.1V680c0-104.8-.1-111.9-1.8-117.9-6.5-22.9-24-38.3-48.1-42.4l-7.6-1.3-.1-221.4c0-169.2-.3-222.3-1.2-225-.7-1.9-2.3-4-3.7-4.7-3.2-1.6-504.2-1.8-507.5-.2m506.7 1c5 2.7 4.8-8.6 4.8 228.6v222c0 .8 1.3 1.3 3.3 1.3 5.7 0 15.5 2.9 23 6.6 9.4 4.8 20.2 15.4 24.7 24.4 6.8 13.5 6.4 5.5 6.7 124.5.3 74.1 0 110.2-.7 115-3.7 23.7-26.2 43.4-49.6 43.5-2.5 0-4.4.5-4.6 1.2s.8 15.7 2.3 33.3c3.5 40.3 3.6 43.4.7 47-3.7 4.7-7.2 5.5-23.8 5.5-16.5 0-19.3-.7-22.5-5.7-1-1.5-7.1-20.3-13.5-41.8l-11.6-39-343.1-.3c-273.7-.2-343.3.1-344.1 1-.6.7-6 17.9-12 38.1-6.1 20.2-12.2 38.8-13.6 41.1-1.7 2.9-3.7 4.8-5.7 5.5-4.8 1.7-33.2 1.4-37.3-.3-4.5-1.9-6.6-5.2-6.6-10.4 0-2.4 1.6-19.9 3.5-38.8 1.9-19 3.3-35 2.9-35.5-.3-.5-2.2-.9-4.3-.9-16.9 0-35.4-10.9-44.3-26.1-7.1-12-6.9-7.4-6.6-130.9l.3-110.5 2.6-7.2c3.8-10.4 7.3-15.9 14.8-23.3 6.3-6.2 19.3-14 23.3-14 1.5 0 1.7-5.6 2.1-55.3.5-61.8.8-64.8 8-81.5 9.6-22.3 29.1-41.1 52-50.2 16.9-6.8 9.1-6.4 139.5-6.7l118.2-.4V202c0-76 .4-126.8.9-128.3.6-1.4 2-3.5 3.2-4.6l2.3-2.1h251.4c178.1 0 251.9.3 253.4 1.1"/><path d="M417.5 80.2c-.3.7-.4 56.6-.3 124.3l.3 123 9.4.3c6.9.2 9.7-.1 10.3-1 .4-.7.8-50.5.8-110.6V106.8l2.9-2.9 2.9-2.9h438.8l2.7 2.8 2.7 2.8v414.5l5.8-.6c3.1-.3 7.8-.8 10.5-1.1l4.7-.6-.2-219.6-.3-219.7-245.3-.3c-195.7-.2-245.4 0-245.7 1m490.3 219 .2 218.7-4.2.5c-2.4.3-6.7.8-9.5 1.1l-5.3.6V106.2l-2.6-3.1-2.6-3.1H443.1l-2.8 2.4-2.8 2.4-.5 110.9-.5 110.8h-18l-.3-122c-.1-67.1 0-122.6.3-123.3.3-1 49.8-1.2 244.7-1l244.3.3z"/><path d="M449 123.4v10.5l21.1.3 21.1.3 2.4 2.8c1.9 2.3 2.4 3.9 2.4 8.6 0 4.4.4 6 1.6 6.5.9.3 7.3.6 14.4.6s13.5-.3 14.4-.6c1.2-.5 1.6-2 1.6-6 0-4.5.5-5.9 2.9-8.6l2.9-3.3 20.9-.3c15.4-.2 21.5.1 23.3 1 4.1 2.1 6 7.3 6 16.2 0 9.1-1.1 8.8 12 3 10.4-4.6 17.1-5.4 21.7-2.5 3.9 2.5 5 4.7 31.7 65.6 19.1 43.5 20.3 46 22.9 46.3l2.7.3V141l2.9-3.2 2.9-3.3 19.4-.3c14.2-.2 20 .1 21.8 1 3.3 1.7 6 7.3 6 12.5v4.2l15.6.3 15.6.3 2.4 2.8c1.9 2.2 2.4 3.9 2.4 8.2 0 8.6-.1 8.5 10.6 8.5h9.4v-20c0-21.3.6-24.7 4.9-27 1.2-.6 10.2-1 22-1 19.7 0 20 0 22.8 2.4 2.6 2.3 2.8 3 3.3 12.3l.5 9.8h39v-35l-213.7-.3L449 113zm426.8 7.9.2 16.7-18.7-.2-18.8-.3-.5-9.7c-.8-14.7.2-14.2-26.5-14.6-14.6-.2-22.1.1-23.5.8-4.2 2.3-5 6.6-5 27.5v19.6l-8.7-.3-8.8-.3-.5-7.2c-.4-5.8-1-7.7-2.8-9.5-2.1-2.2-3.2-2.3-17.6-2.6l-15.3-.4-.6-5.6c-.7-6.7-3.1-10.3-7.7-11.5-1.9-.5-11.8-.7-22.2-.5l-18.8.3-2.7 2.8-2.8 2.7-.3 62c-.2 53.4-.4 62-1.7 62-1.9 0-1.2 1.6-26-55-11.9-27.2-22.6-51-23.8-52.9-2.3-3.7-6.9-6.1-12.1-6.1-3.6 0-15.3 3.8-21.7 7.1l-3.7 1.8-.4-8.9c-.5-10.4-2.3-13.8-7.8-15.3-1.8-.5-12.5-.7-23.6-.5l-20.4.3-2.6 2.7c-2.1 2.1-2.8 3.9-3.3 9l-.6 6.3h-29l-.6-6.8c-.9-11.2-.8-11.1-25.9-11.5l-21-.3V114l212.8.2 212.7.3z"/><path d="M796 200v64.1l14.8-.3 14.7-.3v-127l-14.7-.3-14.8-.3zm28.5 0v62.5l-13.7.3-13.8.3V136.9l13.8.3 13.7.3zm-374.8-53.3c-.4.3-.7 26.9-.7 59V264l17.8-.2 17.7-.3.3-57.9c.2-45.7 0-58.1-1-58.8-1.6-.9-33.2-1.1-34.1-.1m33.8 58.3v57.5l-16.7.3-16.8.2v-57.3c0-31.6.3-57.7.7-58.1.4-.3 7.9-.5 16.7-.4l16.1.3zm56-57.8c-.3.7-.4 27.2-.3 58.8l.3 57.5 16.3.3 16.2.2-.2-58.7-.3-58.8-15.8-.3c-12-.2-15.9 0-16.2 1m31.3 58.1.2 57.8-15.2-.3-15.3-.3-.3-56.5c-.1-31.1 0-57.1.3-57.8.3-1 4-1.2 15.2-1l14.8.3zM687 205v59h29l-.2-58.8-.3-58.7-14.2-.3-14.3-.3zm27.8.2.2 57.8h-27V146.9l13.3.3 13.2.3zm-110.3-42c-8.8 3-16.5 7.2-16.5 8.9 0 1 9.1 22 20.2 46.8l20.3 45.1h13.7c8.2 0 13.8-.4 13.8-1 0-1.1-9-22.1-29.3-68-15.6-35.5-14.8-34.4-22.2-31.8m15.1 18.8c4.6 10.2 10.4 23.4 13 29.5 2.6 6 6.4 14.7 8.6 19.3 2.1 4.6 3.8 8.5 3.8 8.8 0 .4 1.4 3.7 6.9 15.8 1.7 3.7 3.1 7 3.1 7.2s-5.8.4-12.8.4h-12.8l-2.4-5.3c-6-13.6-16-35.7-22.8-50.7-9.2-20.4-15.2-34.1-15.2-35 0-.6 12.6-6.8 17-8.3 4.4-1.6 5.2-.6 13.6 18.3m217.9-18.8c-.3.7-.4 23.6-.3 50.8l.3 49.5h39v-101l-19.3-.3c-14.8-.2-19.4 0-19.7 1m38 49.8v49.5h-37l-.3-49.8-.2-49.7 18.7.2 18.8.3zm-378.3-48.2c-1 .7-1.2 11.3-1 49.8l.3 48.9 15.8.3 15.7.3v-49.5c0-44.1-.2-49.5-1.6-50-2.3-.9-27.7-.7-29.2.2m29.6 49.5.2 48.8-14.7-.3-14.8-.3-.3-47.5c-.1-26.1 0-48.1.3-48.8.3-1 3.9-1.2 14.7-1l14.3.3zm201.4-49.1c-.9.9-1.2 13-1.2 48.4 0 26 .3 47.9.6 48.8.5 1.3 2.6 1.6 13 1.6H753v-49.4c0-44.1-.2-49.5-1.6-50-3-1.1-21.9-.7-23.2.6m23.6 49.1.2 48.8-11.7-.3-11.8-.3-.3-47.5c-.1-26.1 0-48.1.3-48.8.3-.9 3.3-1.2 11.7-1l11.3.3zm12.6-27.7c-.5 1.8.1 73.8.6 77.1 0 .2 4.3.3 9.5.3h9.5v-80h-9.5c-9.4 0-9.5 0-10.1 2.6M783 224v39h-8.5c-4.7 0-8.5-.1-8.5-.3-.5-2.5-1.1-75-.7-76.1.5-1.3 2.3-1.6 9.2-1.6h8.5zm-199.4 4.2c.1 17.2.2 32.3.3 33.5.1 2.3.2 2.3 15.2 2.3h15.2l-.6-2.8c-1-4.6-28.1-64.2-29.2-64.2-.8 0-1.1 9.4-.9 31.2M586 200c0 .6 5.8 13.9 12.9 29.8 7 15.8 13.1 29.8 13.5 31l.7 2.2h-14c-12.7 0-14.1-.2-14.2-1.8-.6-8.6-.3-62.9.3-62.6.4.3.8.9.8 1.4m-136.8 86.7.3 10.8h427v-21l-213.8-.3-213.8-.2zm426.3.3v9.5h-425l-.3-9.8-.3-9.7 212.8.2 212.8.3zM450 309.8c-.6.2-1 4.2-1 9.3v8.9l179.8.2 179.7.3 8 2.3c14.7 4.3 29.5 12.7 41.1 23.4 5.2 4.8 14.8 17.3 15.8 20.5.4 1.3 1.4 2.3 2.2 2.3 1.2 0 1.4-4.8 1.2-33.3l-.3-33.2-212.8-.5c-117-.3-213.2-.4-213.7-.2m425.9 34c0 25.3-.3 32.1-1.2 30.2-1.9-4.1-11.4-16.4-15.9-20.6-14.5-13.3-30.9-21.6-49.8-25-6.1-1.1-39.9-1.3-183.2-1.4H450v-7.8c0-4.3.2-8.1.4-8.3s96.1-.3 213-.1l212.6.2z"/><path d="M167.8 341.5c-10.4 1.8-22.1 5.8-29.8 10.3-14.2 8.2-28 25.6-33.4 42.2-5 15-5.1 17.2-5.1 73v52.5l15.5.6c8.5.3 15.6.5 15.7.5.1-.1-.7-6.9-1.7-15.1-1.3-10.2-2-21.1-2-34.2 0-17.3-.2-19.6-2.1-24-8.1-18.5-9.2-21.9-9.6-29.8-.3-7-.1-8.5 1.9-11.9 1.4-2.4 4.1-4.9 6.8-6.4 4.2-2.2 5.2-2.3 14.1-1.8 5.7.4 14.5 1.9 21.5 3.7 6.5 1.7 12.8 2.8 13.9 2.6 1.1-.3 8.2-2.1 15.7-4.1 7.6-1.9 20-4.5 27.5-5.6 19.3-2.8 52.3-4.3 70.8-3.2l15 .9L315 386c15.6-7.2 18-8 24.7-8 5 0 5.6.3 9.8 4.4 2.5 2.6 4.8 6 5.4 8.2 1.5 5.2 1.3 19.1-.3 28.9l-1.4 8 3.4 8.7c12.3 31.7 20.1 84.1 18.6 124.5l-.4 12.2 3.9 6.3c3.6 5.7 6.9 12.3 8.6 17 .8 2.1 3.7 2.6 21.2 3.2l14 .5 19.2-7.7c10.6-4.2 19.4-8.2 19.7-8.8.2-.6-1.9-4.2-4.7-8-2.9-3.8-7-10.8-9.2-15.6-4.6-10.1-3.4-9.7-19.2-7.4-10.7 1.5-13.6.7-14.1-3.6-.5-3.9 2.5-5.3 15.1-7.4l10.7-1.7v-9.4c0-6.6-.4-9.5-1.2-9.7-.7-.3-5.7-1.4-11.1-2.6-13-2.9-16.1-5.8-11.8-11.1l1.9-2.3 9.3 2.2c13.3 3.2 13.5 3.1 14.3-2.4.9-6.7 6.9-24 11.4-33.1 3.6-7.2 4.1-9 5.6-22.8 6.1-54.5 15.9-77.7 31.2-73.6 11.4 3.1 31.6 19.9 46.1 38.4 2.1 2.8 2.1 2.8 9 1.7 3.7-.6 17-1.1 29.5-1.1l22.6.1 9.1-10.9c15-18.1 32.5-33.2 40-34.7 10.1-2 17 6.5 22.6 28.1 2.6 9.9 8.7 44.3 10 56 .5 4 2.3 9.4 5.5 16.5 2.7 5.8 6.1 14.8 7.5 20 1.5 5.2 2.8 10.1 3.1 10.8.3 1 1.7 1.1 5.6.5 2.9-.4 15.2-.8 27.3-.8 23.6 0 31 1 46.5 6.1 9.7 3.2 24 10.1 30.9 14.8 7.3 5 8.4 4.8 10.5-2.1 6.4-20.3.3-44.8-15.5-61.7-8.2-8.8-15.5-13.8-33.5-23-15.6-8-22.6-13.8-27.5-22.8-3.1-5.8-3.4-7-3.4-14.8 0-7.2.4-9.2 2.7-13.6 3.2-6 9.3-11.8 15.7-14.7 3.7-1.7 6.5-2.2 14.1-2.1 15.1 0 29.5 5.2 47.1 16.9 12.8 8.5 24.2 19.4 33.9 32.3 11.4 15.2 24 40.4 24 48.2 0 1.6.4 3.1.9 3.5 1.7 1 0-6.7-3.6-16-14.8-39-45.6-70.3-80.5-82-9.7-3.3-12.6-3.8-20.8-3.9-11.9-.1-18.1 1.9-24.8 7.9-7 6.3-9.7 12.7-9.7 23.5 0 7.7.3 9.2 3.3 15.2 4.6 9.3 11.4 15.1 27.6 23.4 17.9 9.2 25.3 14.2 33.4 22.9 12.9 13.8 19.1 30.6 17.9 48-.6 7.9-3.1 17.5-4.7 17.5-.4 0-3.2-1.6-6.1-3.6-11-7.5-31.1-15.5-47.9-19.1-6.7-1.4-13.1-1.8-30.5-1.8-12.1 0-24.2.2-26.9.5-4.6.5-5 .3-5.6-2-4.7-15.7-7.6-23.8-10.8-30.5-2.5-5-4.2-10.3-4.6-14-2.9-24.1-10-58.5-14.7-71.1-4.1-10.9-12.1-16.2-20.8-13.5-8.5 2.5-24.2 16.2-39.2 34.2l-9.1 10.9h-22.6c-12.5 0-25.4.4-28.6 1-3.3.5-6 .9-6.1.7 0-.1-3.3-4-7.2-8.7-12.8-15.4-28.8-28-39.6-31.4-7.7-2.4-12.7-.9-17.4 5.2-6.9 9.1-13.5 36.5-17.3 72.1-.9 8.4-1.8 11.7-4.5 17.1-3.8 7.6-11.1 28.5-12.1 34.7-.8 5.1-1.3 5.2-12.4 2.3-4.1-1.1-8.3-2-9.2-2-2.5 0-5.8 3.6-5.8 6.3 0 4.5 2.2 5.8 14.1 8.6l11.4 2.7.3 8.6.3 8.6-6.8 1.1c-15.7 2.7-17.4 3.2-18.5 5.7-1.6 3.4 0 7.6 3.2 8.4 1.4.3 6.6 0 11.5-.7 12.9-1.8 14.6-1.7 15.2.8 1.3 5 8.4 17.9 12.6 23.2 2.6 3.1 4.3 5.8 3.9 6.1-.5.3-9.2 3.8-19.5 7.9l-18.6 7.5-15.3-.5c-8.4-.3-16-.9-16.9-1.4-.9-.4-2.4-3-3.4-5.6-.9-2.6-3.7-8-6-11.8l-4.3-7V550c-.1-39.9-6.9-82.9-17.9-112l-4-10.6 1.3-7.9c1.6-9.9 1.7-23.7.3-29-1.4-5-5.1-10-8.9-12-6.6-3.4-18.1-1-35.5 7.7l-9 4.4-15-.8c-26.4-1.5-67.5 1.5-90 6.6-3.8.9-11.2 2.8-16.3 4.2l-9.2 2.6-12.8-3.2c-9.9-2.6-14.9-3.3-22.7-3.4-12.4-.1-16.8 1.7-20.3 8.5-2 3.8-2.3 5.5-1.9 12.4.3 6.9 1.2 10 6 22.1l5.7 14v18.5c0 12.1.7 23.4 1.9 32.9 1.1 8 1.8 14.5 1.7 14.6 0 0-6.6-.2-14.6-.5l-14.5-.6V466c0-45.6.2-53.5 1.7-60 6.1-27.5 23.6-48.9 47.8-58.7 15.5-6.2-11.9-5.7 336-6.1 355.1-.3 324.8-.9 341.5 7.3 17.1 8.4 28.9 20.5 38.1 39 8.4 17 9.8 24.4 9.8 54.2.1 13.3.3 24.4.6 24.6.3.3.6-7.9.8-18.1.4-30.4-2.1-45.3-10.7-62.7-10.5-21.3-27.5-36-49.1-42.7l-7.5-2.3-317-.2c-255.7-.1-318.5.1-324.7 1.2"/><path d="M760.1 377c-10.6 2.6-16.1 13.6-12.7 25.3 2.3 7.8 8.7 13.3 26.6 22.7 16.5 8.7 24.1 13.9 32.4 22.3 22.5 22.9 28.6 53.6 16.5 83.4-1.2 3.1-1.2 3.2 5.2 10.1 3.5 3.8 8 9.5 9.9 12.5 1.9 3.1 4 5.6 4.6 5.7.6 0 3-2.4 5.2-5.3 15.8-20.5 22.3-48.4 17.6-75.1-6.7-38.8-31-73-65.4-92.4-12.1-6.8-31.6-11.3-39.9-9.2m20.9 2.6c15.4 4.4 33.3 15.9 47.5 30.5 41.9 43.2 49.5 102 18.3 142.6l-4 5.2-4.1-6.1c-2.3-3.4-6.8-9-10-12.5l-5.9-6.3 1.6-3.5c6.7-14 7.4-35.5 1.7-52.6-5.1-15.8-16.1-30.4-30.7-41-3.4-2.4-12.6-7.8-20.5-11.9-22.4-11.7-29.2-19.7-27.4-31.8.5-3.5 1.7-5.5 5.5-9.2 2.7-2.8 5.9-5 7.6-5.3 4.4-.7 14.3.2 20.4 1.9m-138 1.5c-5.4 3.2-24.7 23.2-33.3 34.4l-7.7 10-25.2.1c-19 .1-27.5.5-34.3 1.8l-9 1.7-2.5-3.2c-15.4-19.5-24.2-28.2-36.5-36.1-8.5-5.6-10.3-5.1-13.6 3.7-4.7 12.2-10.2 40.9-12.4 64.5-.6 5.8-1.6 9.2-4.7 15.3-4.9 9.9-10.8 27.3-11.5 34.2l-.6 5.2 7.4 1.8c8.5 2 11.1 3.8 10.7 7.3-.5 4-2.8 4.8-10.5 3.5-3.9-.7-7.2-.8-7.7-.3s-.5 3.3 0 6.7l.9 5.8h8.9c8.7 0 9 .1 10.5 2.7 2.4 4.3-.3 6.5-9 7.4-6.3.6-6.9.9-6.9 2.9 0 3 5.1 12.7 10.3 19.3 11.1 14.5 32.3 26.3 56.8 31.8 11.8 2.6 14.6 5.6 9.6 10.2-2.9 2.7-3.8 2.7-14.9.1-12-2.8-24-7.6-33.9-13.6-4.4-2.6-9-5.3-10.1-6-1.8-1-3.1-.7-7.8 1.7-9.1 4.6-27.9 12.3-53.5 21.9-33.5 12.5-46.3 18.4-57.2 26.4-8.1 6.1-13.8 13.3-15.3 19.7-1.3 5.2-.6 14 1 14 .6 0 .5-1.1 0-2.6-3.5-9.1 2.5-20.6 15.7-30.3 11.4-8.4 24.3-14.2 70.8-31.9 23.7-9 33.4-13 39.2-16.2 5.1-2.7 5.4-2.7 7.5-1.1 5.3 4 15.6 9.6 23.7 12.8 8.8 3.5 26.7 8.3 30.9 8.3 2.8 0 7.2-4.2 7.2-6.8 0-3.7-2.5-5.3-11.3-7.3-12.2-2.7-19.7-5.4-30.7-11-15.4-7.9-26-17.8-33.9-32-4.5-8-4.3-8.5 3.5-9.4 7.9-.8 11-3.1 9.9-7.3-1.2-5-2.2-5.4-11.4-5.1l-8.6.4-.9-4.8c-.5-2.8-.5-5.2 0-5.7s2.6-.5 4.9 0c5.6 1.3 10.9 1.2 12.3-.2.7-.7 1.2-2.7 1.2-4.5 0-3.6-2.2-5.5-7.5-6.7-10-2.3-10.5-2.6-10.5-5.5 0-5.1 5-20.4 10.5-32.1 4.4-9.5 5.5-12.8 6-19 2.9-32.3 11.7-69.8 16.6-70.8 4.9-.9 28.9 19.9 39.7 34.5 3 3.9 6 7.4 6.8 7.7.7.3 5.3-.2 10.1-1.1 6.5-1.2 15.6-1.6 34.6-1.7l25.7-.1 7.7-10c8.9-11.7 29.3-32.4 34.2-35 3.4-1.7 3.5-1.7 5.3.5 4 4.9 8.2 22.8 14.9 63 2.7 16.5 3.7 20.6 6.7 26.5 5.7 11.4 11.2 29.9 9.4 31.7-.4.4-8.4 2.6-17.7 4.9-9.4 2.3-17.8 4.9-18.7 5.7-3.8 3.2-1 10.2 3.9 10.2 1.2 0 8.7-1.6 16.7-3.5 8.1-1.9 15.3-3.5 16.1-3.5 1.1 0 1.5 1.3 1.5 5.2-.1 5.5-1.3 13.5-2.3 14.4-.3.4-7.2-.1-15.4-1-18.5-2-22.3-1.2-22.3 4.3 0 5.3 1.4 5.9 17.8 8 8.4 1 15.6 2.2 15.9 2.5.8.8-6.2 13.2-10.9 19.3-5.7 7.4-15.7 16.6-22.5 20.5-4.3 2.6-6 4.2-6.7 6.6-1.2 4.2 1.3 8.2 5.2 8.2 4.3 0 14.7-6.7 23.8-15.3 10.4-9.8 14.5-15.3 21-28.1l5.1-10.1 10 .4c11.1.3 13.3-.6 13.3-5.8 0-4.4-2.6-5.9-11.8-6.6l-8.3-.8.7-7.6c.4-4.2 1-9.9 1.3-12.6l.6-5 8-1.2c18.5-2.7 45.3-.9 61 4.2 9.8 3.2 24.9 10.3 32.2 15.1 14.1 9.4 29 26.5 37.7 43.2 8.6 16.7 11.7 27.2 13.5 44.8 1.8 17.9-.9 33.9-8.5 49.3-8.3 16.8-24.2 29.9-41.9 34.5-3.3.8-10.7 2-16.4 2.5-11.7 1.2-68.1 1.5-68.1.3.1-.4.7-1.8 1.5-3.2 1.8-3.1 1.9-9.2.3-10.8-3.5-3.5-8.7.7-11.4 9.2l-1.8 5.6h-8.9l.7-4.2c.6-3.9 2.6-8.2 6.6-14.5 2-3.2 0-7.3-3.6-7.3-4.5 0-9.8 6.3-12.5 15-1.3 4.1-2.5 7.7-2.7 8s-1.2-.6-2.3-1.9c-2.6-3.1-2.4-8.5.5-14.7 6-12.9 21.9-19.2 45.3-18 5.9.3 12.7.8 15.1 1.2 5.1.7 8.2-1.3 8.2-5.6 0-3.4-2.3-5.5-7.9-7.2-3.9-1.2-4.7-1.9-7-6.8-2.2-4.7-2.6-6.8-2.6-15 .1-8.8.3-10 3.8-17.4 3.1-6.6 5.3-9.5 13.2-17.2 10-9.8 11-11.9 7.4-15.5-2.7-2.7-6.8-1.8-13.1 2.8-19 13.8-28.8 39.4-23.3 60.6.8 3.2 1.5 6 1.5 6.2 0 .3-2.3.5-5 .5-19.4 0-39.5 10.3-47.1 24l-2.4 4.5-16 .7c-8.8.3-16.1.5-16.2.4-.1 0 3-3.6 6.9-7.9 5.4-6 7.1-8.6 7.5-11.5 1-7.2-5.1-9.6-10.3-4.1-6.2 6.7-22.3 20.4-31.4 26.9-16.5 11.8-37 23.6-74.5 43-9.9 5.2-23.3 12.1-29.7 15.6-12.9 6.8-13.2 6.7-10.1-1.8 2.1-5.9.8-9.8-3.2-9.8-4.2 0-7.2 4.2-9.3 13.3l-1.9 8.2-4.8.3c-7 .5-7.5.1-6.4-5 .6-2.4 2.3-7 4-10.2 3.3-6.8 3.5-7.9 1.3-10-4.2-4.3-10.9 1.4-14.4 12.1-1.2 3.8-2.4 7.4-2.6 8.2-.4 1.1-.8 1-2.4-.4-1.5-1.4-2-3.1-2-7.1 0-17.9 17.3-36.5 63-67.9 15.3-10.5 24-17 39-29 18.3-14.7 21-17.4 21-21.6 0-4.3-1.5-5.9-5.3-5.9-4 0-5.4.9-20.1 13.2-7.2 6-15.4 12.7-18.2 14.9l-5.1 3.9-5.4-1.1c-7.7-1.7-37.5-.5-52.4 2-21.8 3.7-38.4 8.1-73.5 19.7-9.1 3-17.4 5.4-18.4 5.4-1.9 0-1.7-1.6 1.1-8.2 1.7-4.1 1.1-8.5-1.2-9.5-5-1.9-9.3 3.4-11.9 14.5l-1.2 5.7-5.4.3-5.3.3.7-4.3c.4-2.4 2-7.2 3.6-10.7 3.3-6.9 3.6-9.1 1.8-10.9-4.8-4.8-13.5 4.5-15.2 16.3-.6 3.9-.5 3.9.8-.7 3.2-10.9 9.7-18.1 13.3-14.5 1.5 1.5 1.4 2-1 7.4-2.9 6.6-4.7 12.7-4.7 16.1 0 2.2.3 2.3 6.2 2l6.1-.3 1.2-5.5c1.3-6.7 5.4-14.4 7.8-14.8 1-.2 2.4.2 3.2.8 1.6 1.4 2 5.6.6 6.4-1.3.8-3.3 9.8-2.4 10.7.4.4 8.5-1.7 17.8-4.8 37.9-12.3 54.2-16.7 76-20.4 15.3-2.6 44-3.7 52.5-2l6.1 1.2 5.2-4c2.9-2.2 11.7-9.4 19.7-16 14.5-12.2 17.8-13.9 20.8-10.9 2.4 2.4 1.3 6-3.1 10.2-9.4 9-35.4 29.1-55.7 43.1-38.5 26.4-55.8 42.9-61 58.1-2.4 6.9-2.6 15.1-.4 18.2 2.5 3.6 4.1 2.7 5.9-3.6 3-10.3 8.6-17.9 12.3-16.8 3.1 1 3.3 3.2.7 8.3-3 5.9-5.8 16.4-4.6 17.6.4.4 3.6.7 7.1.5l6.3-.3 1.4-7c2.3-11.2 7.6-17.4 11.3-13 1.3 1.5 1.1 2.6-1.1 10.2-2.1 7-.6 7 12.7 0 6.5-3.5 20-10.5 29.9-15.7 37.5-19.4 58-31.2 74.5-43 9.1-6.5 25.2-20.2 31.4-26.9 3.3-3.5 4.8-3.8 7-1.5 3.1 3 1.9 6-5.9 14.7-4.1 4.7-7.5 8.9-7.5 9.5 0 1.1 27.2.7 32.7-.4 1.4-.3 3.1-2 4.4-4.6 6.8-13.3 27.2-23.8 46.4-23.8 3 0 5.5-.4 5.5-1 0-.5-.7-3.5-1.5-6.7-3.2-12.4-1.4-26 5.2-38.6 5.6-10.5 17.9-22.9 25.1-25.2 2.6-.8 6.2 1.7 6.2 4.3 0 .8-4.4 5.8-9.8 11.1-8.8 8.5-10.2 10.5-13.2 17.6-3.1 7.2-3.4 9-3.4 17.5 0 7.6.4 10.7 2.2 15.2 2.1 5.1 2.7 5.9 6.1 6.8 4.8 1.3 9.1 4.6 9.1 6.9 0 1-.9 2.6-2 3.6-1.6 1.4-2.7 1.6-6.2.9-2.4-.5-10.8-.8-18.8-.8-12.9.1-15.4.4-22.5 2.7-13.2 4.3-20.1 11.9-21.1 23.1-.6 6 1.1 9.9 4.4 10.4 1.6.3 2.2-.2 2.2-1.7 0-3.9 4.3-13.4 7.7-17.2 3.8-4.2 6.3-4.9 8.4-2.3 1.1 1.3 1 2-.5 4.2-3.2 4.9-5.6 11-6.2 15.6l-.7 4.6h10.9l1.2-4.3c1.4-5 4.6-10.5 6.7-11.3s4.5 1.4 4.5 4.1c0 1.2-.7 3.9-1.5 5.8-.8 2-1.5 4.1-1.5 4.7 0 1.4 55.4 1.3 69.1-.1 13.6-1.3 20.6-3.2 30.9-8.1 28.1-13.5 42.6-49.7 35.6-89.4-4.3-25-17.7-49.8-36.2-67.4-12.7-12.1-25.2-19.3-45-25.8-16.8-5.6-41.9-7.7-61.1-5.1-11.7 1.5-10.9.9-11.7 9.7-.3 4.2-.9 10.2-1.2 13.3l-.6 5.6 8.3.7c8.7.7 11.9 2.3 11.9 5.7 0 1-.8 2.5-1.7 3.5-1.5 1.4-3.1 1.6-11.5 1.1l-9.9-.5-4.6 9.1c-6 12-11.4 19.6-20.4 28.3-7.6 7.3-18.4 15-22.7 16.1-1.7.4-3-.1-4.5-1.5-3.3-3.4-1.5-6.8 5.8-11 7.9-4.6 22.1-19 27.3-27.7 4.2-7.1 6.8-13.2 6-14.1-.3-.2-7.4-1.3-15.8-2.4s-15.9-2.5-16.7-3.1c-2.2-1.9-1.2-6.2 1.9-7.7 2.2-1 5.4-1 18.3.4 8.5.9 15.8 1.5 16 1.2.9-.9 2.5-11.2 2.5-16.4 0-6.6.8-6.5-18.6-1.9-16.9 4.1-17.5 4.1-19.7 1.7-4.7-5.1-1.4-7.3 18.8-12.3 9.4-2.3 17.3-4.5 17.8-4.8 1.9-1.8-4.7-24.2-10.4-35.1-2.3-4.5-3.6-10.2-6.9-30-4.9-29.2-7.3-40.5-10.5-50.1-3.7-10.8-5-11.7-11.5-7.8"/><path d="M329.4 391.8c-4.5 1.6-11.3 4.6-15 6.8l-6.9 3.9h-32c-44.2.1-68.1 3.1-100.5 12.8-4.1 1.2-5.1 1.1-12-1.1-16.1-5-32.2-6.9-35.6-4.1-2.9 2.4-1.1 11 5.3 26.4l5.8 14-.3 16c-.4 17.4.7 31.6 3.9 49.5 1.6 9.5 2.3 11.7 4.2 12.9 5.4 3.5 15.5 15 18.9 21.6 6.4 12.4 6.8 14.9 6.8 43.6 0 15 .4 26 .9 26.4.6.3 4.8-1 9.5-3 20.2-8.3 53.5-14.3 97.6-17.5 8-.6 32.7-1.4 54.8-1.7l40.4-.6-.6-3.1c-.4-1.7-2.8-6.7-5.5-11.1l-4.8-8-.6-26c-.9-43.5-7.7-84.8-18.2-111.4l-3.6-9.1 1.7-13.2c1.6-12.6 1.5-23.2-.3-24.9-2.1-2-6.3-1.8-13.9.9m12-.5c2.7 2 3.1 9 1.1 25-1.7 14.1-1.7 14.4.3 18.3 6.7 13.2 13.6 42.9 17.8 76.4.8 6.3 1.7 23.6 2.1 38.5l.6 27 4.8 8c8.1 13.6 12.2 12.1-33.8 12.8-21.9.3-46.3 1.1-54.3 1.7-43.5 3.1-76.4 9-97.4 17.3-4.7 1.9-8.8 3.2-9.1 2.9s-.5-11.9-.5-25.8c0-24.1-.1-25.7-2.5-33.1-1.3-4.3-4.1-10.6-6.2-14.1-3.5-5.9-11.9-14.8-17.1-18.2-1.9-1.2-2.6-3.3-4.2-12-2.9-16.5-4.2-33.1-3.8-49.9l.3-15.6-5.9-14.5c-6.4-15.7-7.9-22.7-5.2-24.9 3.3-2.8 18.7-.9 34.6 4.1 6.9 2.2 7.9 2.3 12 1.1 32.5-9.7 56.4-12.8 100.5-12.8h32l10.6-5.3c9.5-4.8 17.5-7.9 20.5-8.1.5-.1 1.8.5 2.8 1.2m296.5 16c-2.9 2.2-15.9 19.9-16.5 22.4-1.1 4.3 1.3 7.1 11.5 13.8 11.2 7.4 15.1 8.7 18.1 6 4.4-4 1.7-8.8-8.4-15.4l-6.5-4.3 5-6.6c5.5-7.3 6.6-10.2 5.3-14.1-1.1-3-5.8-4-8.5-1.8m6.9.9c2.3 2.3 1.1 6.1-4.2 13.4-3 4.2-5.3 8-5 8.7s3.5 3.2 7.2 5.7c3.6 2.5 7.3 5.7 8.1 7.2 1.4 2.4 1.4 2.8-.3 4.7-1.1 1.2-2.7 2.1-3.6 2.1-2.4 0-22.6-13.5-24-15.9-1.6-3.1-.8-4.9 7.2-15.3 9.2-12 11.5-13.7 14.6-10.6m-155.2 7c-2.8 4-2 7 4.1 14.4 1.8 2.3 3.3 4.4 3.3 4.7 0 .4-3.4 3.2-7.5 6.3-7.7 5.8-9.3 8.3-8.1 12.9.7 2.9 4.1 4 7.6 2.7 4.7-1.9 23-16.2 24-18.8 1.3-3.3.3-5.2-8.8-15.8-6.1-7.1-7.8-8.6-10.2-8.6-1.8 0-3.4.8-4.4 2.2m11.6 5c3 3.5 6.9 8.2 8.7 10.5 3.3 4.1 3.3 4.3 1.8 6.7-1.9 2.8-23.3 18.6-25.2 18.6s-4.5-2.8-4.5-5c0-2.4 2.2-4.8 9.8-10.4 3.4-2.6 6.2-5.4 6.2-6.3 0-.8-1.8-3.8-4-6.6-5-6.2-5.8-9.1-3.5-11.7 2.9-3.2 4.9-2.4 10.7 4.2m-6.3 78.1c-7.3 4.9-7.4 17.5 0 22.4 8.3 5.6 17.1-.2 17.1-11.2 0-6-2.3-10.3-6.5-12.1-4.7-1.9-6.7-1.8-10.6.9m10 .1c4.2 2.2 6.1 5.8 6.1 11.5 0 4.4-.4 5.5-3.5 8.6-4.3 4.2-7.5 4.5-12.1 1-6.7-5.1-6.7-14.8-.1-20 3.7-2.9 5.7-3.1 9.6-1.1m88.2 1.2c-2.8 2-5.1 7.2-5.1 11.5 0 10.5 10.9 16.6 18 10.1 5.7-5 5.9-16.3.5-21-3.2-2.7-9.9-3-13.4-.6m12.2 1.5c5.5 4.2 5.5 13.4 0 19.1-8 8.4-20.4-4.3-14.8-15.2 3.1-6 9.9-7.8 14.8-3.9M538.6 518c-3.9.7-6.6 3.1-6.6 5.8 0 1.8 1.7 5 5.1 9.3 3.9 4.9 3.7 8.3-.5 12.5-4.8 4.8-6.1 4.6-10.9-1.9-2.1-2.8-3.5-3.7-5.7-3.7-9.5 0-7.3 13.5 3 18.8 5.5 2.9 13.6 2.7 19.6-.5 3.9-2 4.1-2 6.5-.3 1.3 1 5.1 2.4 8.4 3 8.2 1.7 13.6.2 19.2-5.5 3.6-3.5 4.3-4.9 4.3-8.2 0-7.6-5.7-8.7-12-2.3-2.2 2.2-4.9 4-6 4-4.2 0-11-7-11-11.4 0-.8 2-2.6 4.5-4 7.2-4.3 9.5-9.5 5.7-12.9-1.4-1.3-16.7-4.1-19.2-3.6-.3.1-2.3.5-4.4.9m17.6 1.6c8.6 1.3 8.5 7.2-.2 12.6-3.1 1.9-5 3.8-5 5 0 3.7 2.8 8.5 6.3 10.6 5.2 3.3 8.3 2.9 12.6-1.8 5.3-5.8 10.1-5.1 10.1 1.4 0 4.5-8.4 12.2-14.2 13.1-5.2.8-12-.8-16.1-3.7l-2.9-2-5.1 2.6c-3.4 1.7-6.8 2.6-9.7 2.6-10.5-.1-21-11.9-15.4-17.4 2.5-2.6 5.1-1.9 8.1 2.1 1.5 2.1 3.2 4.1 3.8 4.5 2.3 1.7 5.9.6 9.1-2.6 4.8-4.8 4.7-9-.6-16-4.4-5.9-4.8-7.6-2.2-9.9 2.8-2.5 9.2-2.9 21.4-1.1m317.4 4c-.8 3.1-.3 3.9 1.9 3.1 1.9-.8 2-5.7.1-5.7-.8 0-1.7 1.2-2 2.6m2 2.1c-1.1 1.1-1.7-.4-.9-2.3.7-1.8.8-1.8 1.1-.1.2 1 .1 2.1-.2 2.4"/><path d="M89 532.5c-12.4 3.5-21.5 10.4-26.8 20.3-6.5 12.1-6.3 7.8-6 129.4l.3 110.3 2.2 5.3c4.3 10.5 13.3 18.7 24.7 22.5 5.5 1.9 9.3 2.1 39.4 2.5 18.3.2 34.4.1 35.8-.2l2.4-.6-.2-126.8-.3-126.7-2.3-5.6c-5.5-13.8-15.7-24.6-27.2-29.1-7.4-2.8-33.4-3.6-42-1.3m42 2.6c11.8 5.5 21.7 16.5 26.6 29.4 1.8 4.8 1.9 9.7 1.9 131v126l-29.5.3c-33.2.3-42.9-.5-51-4.5-7.2-3.5-15.4-11.8-18.8-19l-2.7-5.8-.3-109.5c-.2-78.9 0-111.2.8-115.5 2.4-12.2 10.4-23.5 21.1-29.8 8-4.7 13.8-5.7 30.9-5.4 14.2.3 16 .5 21 2.8m764.2-2.6c-8.1 1.8-14.3 5.4-21.2 12.4-9 9.2-13.7 19.9-15.9 36.2-.9 6.9-.8 8.7 1.6 19 2.3 9.9 2.7 13.6 2.7 27.9.1 9.8-.4 18.6-1.2 21.8-.9 4-1.2 25.7-1.2 88.7V822l2.5.6c1.4.3 18.3.4 37.7.1 37.3-.5 40.4-.8 48.3-5.7 4-2.5 11.8-10.7 13.8-14.6.8-1.6 2.2-5.9 3.1-9.5 1.4-5.8 1.6-18 1.6-113.1 0-103.2-.1-106.7-2-114.3-2.5-9.7-5.3-14.6-12.2-21.1-6.5-6.1-13.9-9.9-23.6-11.9-8.9-1.8-25.5-1.8-34 0m33.9 1c4 .9 10.1 3.1 13.4 5 6.9 3.8 15.3 12.2 18.4 18.3 5.2 10.2 5.2 8.7 4.9 125.9l-.3 108.8-2.4 6c-3.4 8.4-13.3 18.3-21.6 21.5-5.9 2.3-6.6 2.4-43 2.4l-37 .1-.3-81.5c-.3-63.6 0-83.4 1-90 .7-4.7 1.3-15.3 1.2-23.5-.1-12.5-.5-16.9-2.7-26.4-2.4-10.2-2.5-12.1-1.6-19 .6-4.2 1.7-9.7 2.4-12.4 4.9-16.9 19.8-32.2 34.5-35.3 7.9-1.7 24.6-1.7 33.1.1m-627.6 77.2c-33.3 1.5-62.3 4.6-83.5 8.9-18.1 3.6-42.9 12.3-45.2 15.8-.4.6-.8 17.9-.8 38.4 0 41.7.1 42.2 6.6 46.3l3.9 2.4 131.7.3 131.6.2 4.6-6.4c6.2-8.6 15.1-17.6 27.2-27.3 10.2-8 30.7-22.6 33.4-23.6q1.8-.6-.3-.6c-2.2-.1-20.1 12.1-34.1 23.2-12.1 9.7-21 18.7-27.2 27.3l-4.6 6.4H185.6l-4.4-2.1c-8.3-4.1-8.2-3.2-8.2-46.1V636l5.8-2.9c13.6-6.9 33.8-12.3 59.7-16 27.1-3.9 50.3-5.3 103.5-6l51.5-.7h-43c-23.6 0-45.7.1-49 .3"/><path d="M375.4 617.9c-17.2 7.5-26 12.8-34.5 20.8-9.6 9.1-13.3 16.7-13.7 28.3-.3 7.3 0 9.1 2 13 3 5.8 9.2 10.4 17.4 13 13.3 4.1 25.3 2.2 60-9.1 13.7-4.4 30.2-9.3 36.8-10.9 16.8-4.2 40.8-8 55.5-9l12.6-.9-13 .4c-24.5.7-52.6 6.7-91.9 19.5-36.3 11.8-50.3 13.5-62.7 7.8-11.7-5.4-15.9-11.4-15.9-23 0-6 .5-8.4 3-13.6 3.6-7.7 12-16.7 21.2-22.8 7.4-5 24.7-13.4 34.8-17 3.7-1.3 5.4-2.3 4-2.3s-8.4 2.6-15.6 5.8M844 687.5c-3.6 5.9-15.5 16-23.9 20.4-17.8 9.3-31 10.9-93.6 11.3-40.3.2-41.1.2-45.1-1.9-8.3-4.4-14.4-11.7-14.4-17.3 0-1.1-.8-2.4-1.7-2.7-2.3-.9-35.1 1.4-45.1 3.2-7.2 1.2-9.7 2.3-22.4 9.8-7.9 4.7-15.2 8.9-16.3 9.5-1.4.8-1.6 1.1-.5 1.2.8 0 8.5-4.1 17-9.2 17.8-10.5 19.1-10.9 45.6-12.8 21.5-1.6 21.1-1.7 23.3 4.8 2.3 6.6 5.9 10.5 13.1 13.9l5.5 2.7 41-.2c48.7-.4 63.5-1.3 76.5-4.7 15.1-4.1 24.8-9.3 33.9-18.3 4.3-4.2 8.5-8.8 9.4-10.2 1.5-2.4 1.6-1.8 1.6 10.8.1 15.2-.7 17.6-6.6 21.4l-3.8 2.3-129 .5-129 .5h129c128.4 0 129 0 133-2.1 6.4-3.3 7.5-6.5 7.5-22.7 0-11.2-.3-13.7-1.4-13.7-.8 0-2.4 1.6-3.6 3.5m0 44.8c-1.9.9-38.5 1.3-146 1.7l-143.5.5-25.2 13.8c-37.2 20.4-43 22.7-56.2 22.7-13.4 0-24.5-4.6-29.9-12.5-2.5-3.7-2.7-4.9-2.8-14l-.2-10-131.3-.6c-72.3-.3-132.5-.8-133.9-1l-2.5-.4-.3 44c-.2 40.5-.1 44.1 1.5 45.2 2.5 1.9 671.1 1.9 673.6 0 1.6-1.1 1.7-4.7 1.5-45.6-.2-28.6-.7-44.5-1.3-44.7-.5-.1-2.1.3-3.5.9m4 44.1c0 32.3-.3 43.5-1.2 44.4s-77 1.2-336.2 1.2c-184.3 0-335.7-.4-336.4-.8-1-.7-1.2-10.2-1-44.3.3-42.8.3-43.4 2.3-42.9 1.1.2 60.9.7 132.8 1l130.8.5.2 10c.2 9 .5 10.4 2.9 13.8 5.2 7.6 13.5 11.5 26.5 12.4 16 1.2 23-1.4 61-22l27-14.7 140.9-.1c110.3 0 141.8-.3 144.9-1.3 2.2-.7 4.3-1.1 4.8-.9.4.2.7 19.9.7 43.7m-725.7 58.3-10.2.4-.5 4.2c-1.1 7.9-6.6 64.2-6.6 66.9v2.8h27.8l1.6-4.8c3.2-10 19.9-66.8 20-68.1.1-1.5-12.3-2-32.1-1.4m31.3 1.2c.1.1-4.7 16.2-10.5 35.8l-10.7 35.8-13.2.3c-13.2.3-13.2.3-13.2-2 0-2.8 5.8-62 6.6-66.5l.5-3.2 9.7-.4c7.5-.2 30.2-.1 30.8.2m715.8-.4c-.4.9 3.2 14.5 7.9 30.3s9.5 32 10.7 35.9l2.1 7.3H917v-4.3c0-8.5-5.3-68.2-6.2-69.4-.6-.8-7-1.2-20.9-1.2-17.2-.1-20 .1-20.5 1.4m41.1.8c.6 1.7 5.5 62.5 5.5 67.5v4.3l-12.7-.3-12.7-.3-1.9-6.5c-1-3.6-5.6-19.2-10.3-34.8-4.6-15.6-8.4-29-8.4-29.8 0-1.2 3-1.4 20.1-1.3 14.3 0 20.1.4 20.4 1.2m-778-745.4c-4.3 1.9-4.8 3.5-4.2 14.9.6 12.2 3.1 21.5 8.3 30.9 4.3 7.8 12.8 17 20 21.8 6.7 4.5 19.6 9.1 28.4 10.2l6.5.8v20l-20.6.5c-22.5.5-23 .7-25.5 6.6-1.2 2.8-.8 8.1 3 41 2.4 20.9 4.2 38.2 3.9 38.6-.2.5-9.6.8-20.8.8-19.9 0-20.4 0-21.9 2.2-2.4 3.4-2 7.3 1 9.7 2.7 2.1 3.3 2.1 81.9 2.1s79.2 0 81.9-2.1c3-2.4 3.4-6.3 1-9.7-1.4-2.1-2.2-2.2-15.5-2.2-11.3 0-14.1-.3-14.5-1.5-.3-.7 1.5-17.9 4.1-38.1 2.5-20.2 4.3-37.9 4-39.5-.4-1.6-2-4-3.7-5.4-2.9-2.5-3-2.5-23.4-2.5h-20.5l.3-10.2.3-10.3 6-.7c31.5-4 55.1-30.1 57.2-63.5.9-14.7-1.8-16.8-18.3-13.9-17 3-25.3 7.2-36.9 19-7.4 7.5-14.5 18.2-14.5 21.7 0 .8 1.7-1.8 3.8-5.6 2.4-4.7 6.5-9.8 12.2-15.6 10.6-10.7 20.5-15.9 34.4-18.4 11.5-2 12.8-1.9 16 .6 2.3 1.8 2.6 2.7 2.6 8.7-.1 21.2-12.3 44.2-29.7 55.8-7.7 5.1-18.7 9.2-27 10.1l-6.8.8-.3 11.2-.3 11.3h41.9l3.1 3.5c1.7 2 3.1 4.3 3.1 5.3 0 .9-2.1 18.2-4.6 38.4-2.6 20.2-4.4 37.4-4.1 38.2.5 1.3 2.9 1.6 14.5 1.6 12.2 0 14.1.2 15.5 1.8 2.3 2.6 2.1 5.5-.6 8l-2.3 2.2H113.3l-2.1-2.3c-2.7-2.8-2.8-5.8-.4-8 1.6-1.5 4.7-1.7 22-1.7 11 0 20.3-.4 20.6-.8.3-.5-1.5-18.1-3.9-39.1-3.9-34-4.3-38.6-3-41 2.8-5.4 3.3-5.6 25.4-6.1l20.6-.5.3-10.7c.3-10.5.2-10.8-2-11.2-23.5-4.2-30.6-7.4-42.3-19.1-13.3-13.2-20-29.7-19.3-47.3.3-6.9.5-7.7 3.1-9.5 2.6-2 3.2-2 12-.9 13 1.6 24.5 7.4 35.6 17.8 7.4 6.9 17.1 19.6 17.1 22.3 0 .6.4 1.1 1 1.1 3.2 0-7.6-15.4-16.9-24.2-8.2-7.8-15.7-12.3-25.6-15.7-6.9-2.3-20-3.5-23-2.2"/><path d="M140.3 103.6c-1 2.7 2.5 17.5 5.7 24.1 5.5 11 16.2 21 27 24.8 6.2 2.3 18.3 4.5 19.2 3.6 1.2-1.1-1.9-11.8-5.6-19.6-7-14.9-20.9-27-36.7-32-9.5-3-8.8-2.9-9.6-.9m16.2 4.6c12.6 6.4 22.8 16.6 29.1 29 3.3 6.6 6.6 16.6 5.8 17.9-.8 1.4-15.2-2.2-21.4-5.3-8.9-4.3-18.6-14.1-23.2-23.5-3.5-6.9-6.6-20.1-5.4-22.2.8-1.2 9.2 1.1 15.1 4.1m88-1.8c-9.7 3.1-15.4 6.7-22.2 13.9-6.8 7.4-12.4 17.4-15.2 27.5-1.8 6.5-1.8 7.4-.4 7.9 2.9 1.1 13.4-1.6 21.7-5.6 13.7-6.6 22.6-17.9 26.6-33.7 2.8-10.8 2.7-12.4-.7-12.4-1.6.1-6 1.1-9.8 2.4m11.5.3c-.1 4.3-3.3 15.1-6.3 20.7-5.3 10-12.6 17-23.1 22.1-6 3-11 4.7-14.8 5.1l-5.7.7 1.5-5.9c5.2-20 20.2-36.7 38.2-42.5 7.4-2.3 10.2-2.4 10.2-.2m-164.5 63c-3.4.8-8.1 5-9.9 8.6-2.4 5.2-2.1 13.7.7 17.7 4 5.9 7.1 7.5 14.7 7.5s10.7-1.6 14.8-7.5c2.6-3.9 3-12.5.8-16.8-4.1-7.7-12.6-11.6-21.1-9.5m10.8 1.7c1.8.7 5 3.3 7 5.6 3.2 3.8 3.7 5 3.7 9.5 0 9.1-7.1 16.5-15.9 16.5-13.1 0-20.9-15.1-13.2-25.7 4.8-6.6 11.6-8.8 18.4-5.9m55.7 34.8c0 6.1 8 70.2 8.8 71 .5.5 15.2.7 32.7.6l31.9-.3 4.3-33.5c2.3-18.4 4.2-35.2 4.3-37.3V203h-82zm81 .5c0 3.2-7.9 67.2-8.5 69-.6 1.7-62 1.9-63 .2-.7-1.1-8.5-64.4-8.5-69.2V204h80zm70.2 37c-1.7.6-4.2 5.7-4.2 8.3 0 3.3 5.3 8 8.9 8 3.8 0 7.9-3.6 8.7-7.6.9-4.6-3.5-9.4-8.4-9.3-2.1 0-4.3.3-5 .6m10 3c3.5 3.3 3.5 5.3.2 9.2s-6.8 4-10.6.4c-3.4-3.3-3.6-6.2-.3-9.7 3.2-3.4 7.1-3.4 10.7.1m81 642.9c-2.8 1.9-3 7.4-.4 9.7 1.7 1.6 11.9 1.7 126.4 1.7 119.3 0 124.6-.1 126.1-1.8 2.5-2.7 2.2-7.8-.5-9.6-2-1.4-15.6-1.6-125.8-1.6s-123.8.2-125.8 1.6m251 1.1c2.2 2 2.3 5.1.1 7.5-1.5 1.7-6.7 1.8-125.1 1.8-113.6 0-123.7-.1-125.4-1.7-2.2-2-2.3-5.1-.1-7.5 1.5-1.7 6.7-1.8 125.1-1.8 113.6 0 123.7.1 125.4 1.7m-303.5 1.1c-2.5 2.7-2.2 7.8.5 9.6 5.2 3.7 13.8.9 13.8-4.4 0-5.9-10.3-9.6-14.3-5.2m10.7 1.3c3 2.4 3.3 4.5.9 7.1-3.4 3.8-12.3 1.3-12.3-3.5 0-5.3 6.6-7.4 11.4-3.6m-161.7 27.7c-2.5 2.8-2.1 6.7.9 9.1 2.6 2.1 3.5 2.1 57.9 2.1s55.3 0 57.9-2.1c3.1-2.4 3.5-6.8.8-9.2-1.7-1.5-7.2-1.7-58.9-1.7-53.9 0-57.1.1-58.6 1.8m116.5.9c2.4 2.1 2.3 4.2-.4 7l-2.1 2.3H200.6l-2.3-2.2c-2.7-2.5-2.9-4.5-.6-7 1.5-1.7 4.6-1.8 57.6-1.8 50.7 0 56.2.2 57.9 1.7m123.5 10.1c-2.5 2.7-2.2 7.8.5 9.6 2 1.4 11.7 1.6 84.8 1.6 91.6 0 87 .3 87-6.4 0-7 5.7-6.6-87.2-6.6-79.6 0-83.6.1-85.1 1.8m169.5.9c2.2 2 2.3 5.1.1 7.5-1.5 1.7-5.4 1.8-83.7 1.8-72.7 0-82.4-.2-84.4-1.6-2.6-1.8-2.8-5-.5-7.6 1.5-1.7 5.5-1.8 84.1-1.8 75.4 0 82.7.1 84.4 1.7"/></g></svg>