<?xml version="1.0" encoding="UTF-8"?>
<!-- Generator: visioncortex VTracer 0.6.4 -->
<svg version="1.1" xmlns="http://www.w3.org/2000/svg" width="1024" height="1024">
<path d="M0 0 C337.92 0 675.84 0 1024 0 C1024 337.92 1024 675.84 1024 1024 C686.08 1024 348.16 1024 0 1024 C0 686.08 0 348.16 0 0 Z " fill="#0F162E" transform="translate(0,0)"/>
<path d="M0 0 C337.92 0 675.84 0 1024 0 C1024 337.92 1024 675.84 1024 1024 C686.08 1024 348.16 1024 0 1024 C0 686.08 0 348.16 0 0 Z M411 67 C408 69.26 408 69.26 406 72 C405.67 72.66 405.34 73.32 405 74 C404.91 75.4 404.88 76.81 404.88 78.21 C404.87 79.1 404.87 79.99 404.87 80.91 C404.88 82.38 404.88 82.38 404.88 83.88 C404.88 84.92 404.88 85.96 404.88 87.03 C404.88 90.54 404.88 94.04 404.89 97.54 C404.89 100.05 404.89 102.55 404.89 105.05 C404.89 110.45 404.89 115.85 404.89 121.25 C404.9 129.06 404.91 136.87 404.91 144.67 C404.91 157.34 404.92 170.01 404.92 182.67 C404.93 194.98 404.94 207.28 404.95 219.59 C404.95 220.35 404.95 221.11 404.95 221.89 C404.95 225.69 404.95 229.49 404.95 233.3 C404.96 264.86 404.98 296.43 405 328 C403.84 328 402.68 327.99 401.49 327.99 C373.94 327.93 346.39 327.88 318.83 327.85 C315.43 327.84 312.03 327.84 308.63 327.84 C307.95 327.83 307.28 327.83 306.58 327.83 C295.66 327.82 284.74 327.8 273.81 327.77 C262.59 327.74 251.36 327.72 240.13 327.72 C233.83 327.71 227.53 327.7 221.23 327.68 C215.29 327.66 209.35 327.66 203.41 327.66 C201.24 327.66 199.07 327.65 196.91 327.64 C181.54 327.56 166.5 328.31 151.69 332.75 C141.29 336.59 131.72 341.57 123.01 348.43 C113.97 356.15 105.95 364.19 99.93 374.51 C92.99 387.08 89.83 399.48 87.47 413.59 C86.15 423.15 86.39 432.78 86.51 442.41 C86.52 444.73 86.53 447.05 86.53 449.37 C86.55 455.37 86.6 461.38 86.66 467.39 C86.71 473.56 86.73 479.73 86.76 485.9 C86.81 497.93 86.89 509.97 87 522 C86.38 522.13 85.76 522.26 85.13 522.4 C84.32 522.57 83.51 522.75 82.67 522.93 C81.87 523.1 81.06 523.27 80.23 523.45 C76.54 524.36 73.72 526.14 70.55 528.18 C64.29 532.66 58.78 537.62 54.19 543.81 C50.24 549.84 47.15 556.19 45.47 563.22 C43.49 573.47 43.7 583.72 43.69 594.12 C43.69 596.24 43.68 598.37 43.67 600.49 C43.65 606.23 43.64 611.97 43.63 617.71 C43.63 621.3 43.62 624.9 43.62 628.49 C43.59 641.05 43.58 653.61 43.57 666.17 C43.57 677.84 43.54 689.51 43.5 701.18 C43.46 711.23 43.45 721.28 43.45 731.33 C43.45 737.32 43.44 743.31 43.41 749.3 C43.38 754.94 43.38 760.58 43.4 766.21 C43.4 768.27 43.39 770.33 43.38 772.39 C43.3 783.5 43.99 793.17 47.6 803.72 C49.74 808.75 52.45 812.87 56 817 C56.58 817.71 57.17 818.41 57.77 819.14 C61.49 823.25 65.49 826.08 70.31 828.81 C76.08 831.73 81.61 833.95 88 835 C90.11 835.07 92.23 835.09 94.34 835.07 C95.4 835.06 96.47 835.05 97.57 835.04 C98.37 835.03 99.17 835.01 100 835 C99.79 836.82 99.79 836.82 99.57 838.67 C95.72 870.28 95.72 870.28 93 902 C92.95 902.69 92.91 903.38 92.86 904.09 C92.49 909.57 92.49 909.57 93 915 C94.69 917.77 94.69 917.77 97 920 C98.68 921.24 98.68 921.24 101 922 C103.65 922.2 106.19 922.3 108.84 922.3 C109.59 922.31 110.35 922.31 111.13 922.31 C112.73 922.32 114.33 922.32 115.93 922.32 C118.36 922.31 120.79 922.34 123.23 922.36 C124.78 922.36 126.34 922.36 127.9 922.36 C128.98 922.38 128.98 922.38 130.09 922.39 C132.06 922.37 134.03 922.19 136 922 C139.34 920.88 139.34 920.88 142 919 C145.02 915.1 146.56 910.27 148.17 905.64 C149.4 901.78 150.55 897.89 151.69 894 C152.11 892.56 152.54 891.13 152.97 889.69 C154.09 885.91 155.2 882.13 156.31 878.34 C157.47 874.39 158.64 870.44 159.8 866.49 C161.13 861.97 162.46 857.46 163.78 852.94 C164.08 851.91 164.08 851.91 164.39 850.85 C164.93 849 165.47 847.14 166.01 845.28 C166.95 842.17 167.97 839.08 169 836 C395.38 836 621.76 836 855 836 C863.96 865.14 863.96 865.14 867.11 875.92 C867.78 878.23 868.47 880.53 869.15 882.83 C870.18 886.33 871.21 889.83 872.23 893.33 C873.23 896.8 874.26 900.27 875.29 903.73 C875.59 904.78 875.89 905.83 876.2 906.91 C877.77 912.14 877.77 912.14 880.24 916.99 C881.64 918.84 881.64 918.84 884 921 C887.57 922.19 890.84 922.18 894.55 922.2 C895.29 922.21 896.03 922.21 896.79 922.22 C898.35 922.23 899.92 922.24 901.48 922.24 C903.86 922.25 906.24 922.28 908.62 922.31 C910.14 922.32 911.66 922.32 913.18 922.33 C913.89 922.34 914.6 922.35 915.33 922.37 C917.63 922.39 917.63 922.39 921 922 C923.79 920.91 923.79 920.91 926 919 C928.23 916.84 928.23 916.84 930 914 C930.52 910.68 930.52 910.68 930.32 907.09 C930.3 906.43 930.28 905.78 930.27 905.1 C930.06 898.24 929.54 891.39 928.94 884.55 C928.83 883.25 928.72 881.95 928.61 880.61 C928.38 877.89 928.15 875.17 927.92 872.45 C927.62 868.98 927.33 865.5 927.04 862.02 C926.76 858.68 926.48 855.33 926.19 851.99 C926.09 850.74 925.98 849.5 925.88 848.22 C925.78 847.06 925.68 845.91 925.57 844.72 C925.49 843.71 925.4 842.7 925.31 841.66 C925.04 839.35 924.63 837.23 924 835 C924.95 835.07 924.95 835.07 925.91 835.14 C932.86 835.42 938.87 834.39 945.5 832.32 C952.05 829.84 957.8 826.54 963.28 822.19 C967.91 817.91 971.38 813 974.35 807.45 C977.17 801.55 978.96 795.45 980 789 C980.68 781.9 980.55 774.76 980.52 767.63 C980.52 765.52 980.53 763.4 980.54 761.29 C980.56 755.59 980.55 749.89 980.54 744.19 C980.53 738.2 980.54 732.2 980.54 726.21 C980.55 716.15 980.54 706.09 980.52 696.03 C980.5 684.44 980.51 672.84 980.53 661.25 C980.55 651.26 980.55 641.27 980.54 631.28 C980.53 625.32 980.53 619.37 980.55 613.42 C980.56 607.82 980.55 602.22 980.53 596.62 C980.52 594.58 980.52 592.54 980.53 590.5 C980.58 578.44 979.9 567.5 976 556 C973.2 549.41 969.99 543.77 965.09 538.49 C959.96 533.27 954.52 529.28 948 526 C946.86 525.42 946.86 525.42 945.69 524.82 C940.66 522.42 935.55 520.68 930 520 C928.62 519.98 927.23 519.97 925.85 519.98 C924.58 519.99 923.31 519.99 922 520 C922 518.58 922 518.58 922 517.14 C922.09 461.23 922.16 405.33 922.2 349.42 C922.21 342.71 922.21 336 922.22 329.3 C922.22 328.29 922.22 328.29 922.22 327.27 C922.24 305.63 922.27 283.98 922.31 262.34 C922.34 239.47 922.37 216.6 922.38 193.73 C922.38 180.02 922.4 166.32 922.43 152.62 C922.45 143.23 922.46 133.84 922.45 124.45 C922.45 119.03 922.46 113.61 922.48 108.18 C922.5 103.22 922.5 98.26 922.48 93.3 C922.48 91.5 922.49 89.71 922.5 87.91 C922.52 85.47 922.51 83.03 922.49 80.6 C922.5 79.89 922.51 79.19 922.52 78.46 C922.54 76.23 922.54 76.23 922 73 C920.24 70.08 920.24 70.08 918 68 C917.34 67.67 916.68 67.34 916 67 C913.29 66.9 910.6 66.86 907.88 66.86 C906.6 66.86 906.6 66.86 905.29 66.85 C902.4 66.85 899.51 66.85 896.62 66.85 C894.54 66.84 892.46 66.84 890.38 66.83 C884.63 66.82 878.89 66.82 873.15 66.81 C866.96 66.8 860.78 66.79 854.59 66.78 C840.35 66.76 826.11 66.74 811.87 66.73 C806.94 66.73 802.02 66.72 797.09 66.72 C770.92 66.69 744.74 66.67 718.56 66.66 C712.5 66.66 706.43 66.65 700.36 66.65 C699.23 66.65 699.23 66.65 698.08 66.65 C673.64 66.64 649.19 66.61 624.75 66.56 C599.63 66.52 574.51 66.49 549.39 66.49 C545.84 66.49 542.29 66.49 538.75 66.49 C538.05 66.49 537.35 66.49 536.63 66.49 C525.39 66.48 514.15 66.46 502.9 66.44 C491.6 66.41 480.31 66.4 469.01 66.41 C462.89 66.42 456.77 66.42 450.64 66.39 C445.04 66.37 439.44 66.37 433.84 66.39 C431.81 66.39 429.78 66.38 427.75 66.37 C425 66.35 422.25 66.36 419.5 66.38 C418.7 66.37 417.9 66.36 417.08 66.34 C414.57 66.33 414.57 66.33 411 67 Z " fill="#FEF5E7" transform="translate(0,0)"/>
<path d="M0 0 C2 0.23 2 0.23 4 1 C6.33 3.98 7.56 7.7 8.76 11.26 C9.52 13.83 10.18 16.4 10.81 19 C11.18 20.5 11.18 20.5 11.56 22.02 C14.85 35.86 17.11 49.91 19.48 63.92 C19.62 64.72 19.76 65.52 19.89 66.34 C20.47 69.76 21.03 73.18 21.53 76.61 C22.4 82.52 23.62 87.13 26.38 92.44 C31.4 102.54 34.3 112.85 36 124 C27.51 127.5 18.65 129.37 9.74 131.48 C8.52 131.78 7.3 132.07 6.04 132.38 C4.93 132.64 3.82 132.91 2.67 133.18 C1.35 133.58 1.35 133.58 0 134 C-0.66 134.66 -1.32 135.32 -2 136 C-2.33 138.5 -2.33 138.5 -2 141 C-1.34 141.66 -0.68 142.32 0 143 C5.01 143.35 9.38 142.64 14.25 141.47 C14.9 141.31 15.56 141.16 16.23 141 C18.3 140.51 20.37 140 22.44 139.5 C23.85 139.16 25.26 138.82 26.68 138.49 C30.12 137.67 33.56 136.84 37 136 C37.03 138.06 37.05 140.11 37.06 142.17 C37.07 143.31 37.09 144.46 37.1 145.64 C36.97 150 36.14 153.79 35 158 C29.23 158.21 23.72 157.77 18 157 C12.28 156.24 6.77 155.61 1 156 C-0.49 156.99 -0.49 156.99 -2 158 C-2.25 161.08 -2.25 161.08 -2 164 C0.26 165.31 2.1 166.02 4.69 166.49 C5.69 166.6 6.69 166.7 7.72 166.82 C9.36 167 9.36 167 11.04 167.19 C12.18 167.32 13.32 167.44 14.5 167.56 C16.76 167.81 19.02 168.06 21.28 168.32 C22.28 168.42 23.28 168.53 24.31 168.64 C26.62 168.95 28.77 169.38 31 170 C29.23 176.37 26.81 181.59 23.15 187.1 C17.17 195.16 10.06 203 2 209 C-0.63 210.69 -3.28 212.29 -6 213.84 C-7.93 214.85 -7.93 214.85 -9 216 C-9.25 218.96 -9.25 218.96 -9 222 C-8.34 222.66 -7.68 223.32 -7 224 C-4.22 224.06 -2.6 223.86 0 223 C8 218.88 14.53 213.18 21 207 C21.61 206.46 22.23 205.92 22.86 205.36 C28.82 199.93 33.09 192.99 37 186 C39.53 181.09 41.79 176.06 44 171 C44.66 171.01 45.32 171.01 46 171.02 C48.98 171.04 51.96 171.05 54.94 171.06 C55.98 171.07 57.02 171.08 58.09 171.09 C59.08 171.09 60.07 171.09 61.09 171.1 C62.01 171.1 62.92 171.11 63.87 171.11 C64.57 171.08 65.27 171.04 66 171 C66.33 170.67 66.66 170.34 67 170 C67.25 167.04 67.25 167.04 67 164 C66.34 163.34 65.68 162.68 65 162 C63.07 161.54 63.07 161.54 60.87 161.37 C60.14 161.29 59.42 161.21 58.67 161.14 C57.75 161.05 56.82 160.96 55.88 160.88 C51.48 160.44 51.48 160.44 47 160 C47.99 151.42 48.98 142.84 50 134 C63.47 129.51 78.26 130.47 92.34 130.82 C100.46 131.22 108.19 132.81 116 135 C116.67 135.18 117.34 135.36 118.03 135.55 C128.32 138.42 137.64 142.97 147 148 C147.93 148.48 148.85 148.96 149.81 149.46 C157.17 153.54 162.99 159.2 169 165 C169.73 165.67 170.47 166.34 171.22 167.03 C180.46 175.7 186.73 186.7 192.53 197.84 C196.16 205.04 198.93 212.19 201 220 C201.32 221.17 201.63 222.33 201.96 223.54 C205.07 237.08 205.09 251.58 203.77 265.37 C202.47 274.88 198.93 284.13 194.66 292.68 C190.5 300.07 185.07 306.22 178.88 311.97 C172.9 316.96 166.23 320.2 159 323 C139.99 329.42 119.26 328.27 99.49 328.14 C95.93 328.12 92.37 328.11 88.8 328.1 C81.87 328.08 74.93 328.04 68 328 C68.88 323.25 68.88 323.25 70 321 C70.04 318.67 70.04 316.33 70 314 C68.35 313.67 66.7 313.34 65 313 C62.38 316.85 59.95 320.49 58.69 325 C58.35 326.49 58.35 326.49 58 328 C54.7 328 51.4 328 48 328 C48.15 324.86 48.36 322.06 49 319 C50.14 316.35 51.43 313.87 52.84 311.36 C54.06 308.88 54.66 306.74 55 304 C54.67 303.67 54.34 303.34 54 303 C53.28 302.84 52.56 302.67 51.81 302.5 C50.88 302.66 49.96 302.83 49 303 C46.49 304.99 44.73 307.32 43 310 C40.8 314.43 39.25 318.78 38.25 323.62 C38.17 324.41 38.09 325.19 38 326 C36.12 325.25 36.12 325.25 34 324 C32.75 322.31 32.75 322.31 32 320 C31.62 316.87 31.62 316.87 32 313 C32.88 309.37 34.11 306.23 36 303 C38.72 299.9 41.64 297.38 45 295 C50.86 291.8 57.46 290.24 64 289 C68.53 288.65 73.02 288.67 77.56 288.75 C78.72 288.76 79.88 288.76 81.08 288.77 C89.53 288.84 89.53 288.84 93 290 C96.54 290.17 96.54 290.17 100 290 C100.66 289.67 101.32 289.34 102 289 C102.33 286.13 102.33 286.13 102 283 C101.5 282.44 101.01 281.89 100.5 281.31 C98.16 279.97 98.16 279.97 96.09 279.47 C93.85 278.83 92.01 278.21 90 277 C88.08 274.18 86.96 271.27 86 268 C84.66 262.32 84.51 256.81 85 251 C86.33 244.53 88.48 238.53 91.69 232.75 C95.08 227.48 99.27 223.09 104 219 C105.15 218.26 106.31 217.55 107.5 216.88 C108.33 216.26 109.15 215.64 110 215 C111.15 211.46 111.15 211.46 111 208 C110.34 207.34 109.68 206.68 109 206 C106.17 205.77 106.17 205.77 104.12 206.21 C101.37 207.24 99.39 208.7 97.06 210.5 C91.69 215.11 86.56 219.69 82.91 225.83 C79 232.89 75.33 239.97 74 248 C73.73 250.94 73.67 253.86 73.69 256.81 C73.69 257.59 73.69 258.37 73.69 259.18 C73.8 265.48 74.92 271.05 77 277 C76.43 277.03 75.86 277.07 75.28 277.1 C61.8 277.88 61.8 277.88 48.81 281.25 C46.85 282.12 44.91 283.03 43 284 C42.09 284.46 41.18 284.91 40.24 285.38 C35.96 287.73 32.44 290.28 29.12 293.88 C25.82 297.71 24.42 301.16 22 306 C10.45 306.33 -1.1 306.66 -13 307 C-9.2 302.57 -5.39 298.16 -1.52 293.8 C0.17 291.87 0.17 291.87 2 289 C2.08 286.67 2.09 284.33 2 282 C-0.75 281.05 -0.75 281.05 -4 281 C-5.98 282.61 -7.37 284.07 -9 286 C-14.9 292.24 -21.27 297.68 -28 303 C-29.45 304.17 -29.45 304.17 -30.93 305.37 C-52.95 322.86 -78.44 335.79 -103.34 348.62 C-107.28 350.66 -111.2 352.74 -115.12 354.81 C-122.94 358.93 -130.78 363.02 -138.62 367.09 C-139.95 367.78 -141.29 368.47 -142.62 369.16 C-144.49 370.13 -146.36 371.1 -148.23 372.07 C-149.32 372.64 -150.4 373.2 -151.53 373.78 C-152.75 374.38 -152.75 374.38 -154 375 C-154.33 375 -154.66 375 -155 375 C-155.12 372.31 -155.12 372.31 -155 369 C-154.35 367.33 -153.68 365.66 -153 364 C-152.75 361.33 -152.75 361.33 -153 359 C-153.33 358.67 -153.66 358.34 -154 358 C-156.42 357.58 -156.42 357.58 -159 358 C-159.54 358.47 -160.07 358.95 -160.62 359.44 C-162.99 363.84 -164.56 368.44 -165.41 373.36 C-165.65 375.24 -165.83 377.12 -166 379 C-170.62 379 -175.24 379 -180 379 C-178.65 369.4 -178.65 369.4 -176.72 365.22 C-175.82 363.56 -174.89 361.91 -173.93 360.29 C-173.62 359.53 -173.31 358.78 -173 358 C-173.27 355.28 -173.27 355.28 -174 353 C-176.37 352.74 -176.37 352.74 -179 353 C-180.99 354.5 -182.08 356.18 -183.51 358.22 C-186.51 363.82 -188.21 369.93 -190 376 C-192.46 373.82 -192.46 373.82 -195 371 C-195.71 368.16 -195.56 365.87 -195.4 362.95 C-194.71 357.85 -193.39 353.57 -191 349 C-181.74 334.94 -169.42 323.97 -156 314 C-146.93 307.27 -137.72 300.78 -128.38 294.44 C-109.31 281.48 -89.35 267.35 -73 251 C-72.83 247.5 -72.83 247.5 -73 244 C-73.33 243.67 -73.66 243.34 -74 243 C-77.28 242.5 -77.28 242.5 -81 243 C-83.38 244.58 -85.2 246.01 -87.25 247.94 C-88.39 248.96 -89.53 249.98 -90.68 251 C-91.52 251.76 -91.52 251.76 -92.38 252.54 C-95.52 255.37 -98.82 258 -102.12 260.65 C-104.27 262.41 -106.36 264.2 -108.45 266.04 C-109.65 267.07 -110.86 268.1 -112.06 269.12 C-112.87 269.87 -112.87 269.87 -113.7 270.63 C-115.44 272.08 -116.92 273.12 -119 274 C-121.46 274.1 -123.67 273.8 -126.11 273.41 C-146.65 270.49 -168.94 273.1 -189.11 277.22 C-213.42 282.44 -237.22 289.86 -260.73 297.9 C-261.92 298.31 -263.11 298.71 -264.33 299.13 C-265.38 299.49 -266.43 299.85 -267.51 300.22 C-270 301 -270 301 -272 301 C-271.6 297.6 -271.23 294.56 -269.94 291.38 C-268.86 289 -268.86 289 -268.81 286.25 C-268.87 285.51 -268.94 284.76 -269 284 C-269.33 283.67 -269.66 283.34 -270 283 C-271.67 282.96 -273.33 282.96 -275 283 C-277.4 286.79 -279.58 290.43 -280.74 294.79 C-281.07 296.53 -281.37 298.28 -281.64 300.03 C-281.76 300.68 -281.88 301.33 -282 302 C-282.33 302.33 -282.66 302.66 -283 303 C-284.85 303.07 -286.71 303.08 -288.56 303.06 C-289.57 303.05 -290.59 303.04 -291.63 303.04 C-292.8 303.02 -292.8 303.02 -294 303 C-293.78 298.62 -293.39 295.02 -291.82 290.91 C-290.92 288.86 -290 286.82 -289.06 284.8 C-287.86 282.05 -287.86 282.05 -287.85 279.14 C-287.9 278.43 -287.95 277.73 -288 277 C-288.87 276.81 -289.73 276.63 -290.62 276.44 C-291.74 276.62 -292.85 276.81 -294 277 C-296.62 279.66 -298.32 282.69 -300 286 C-301.5 289.62 -302.81 293.27 -304 297 C-304.66 296.34 -305.32 295.68 -306 295 C-307.13 291.62 -307.33 288.93 -307.27 285.39 C-307 283 -306.54 281.25 -305.56 279.06 C-302.49 273.7 -298.54 269.18 -294 265 C-289.52 261.64 -284.87 258.75 -280 256 C-279.12 255.5 -279.12 255.5 -278.23 254.99 C-266.7 248.59 -254.36 244.14 -242.05 239.52 C-234.07 236.52 -226.09 233.49 -218.12 230.44 C-217.28 230.11 -216.44 229.79 -215.57 229.46 C-204.39 225.18 -193.33 220.74 -182.49 215.64 C-181.34 215.1 -180.19 214.56 -179 214 C-178.16 213.5 -177.32 213 -176.46 212.49 C-175.65 212.33 -174.84 212.17 -174 212 C-171.35 213.36 -169.16 214.73 -166.75 216.44 C-155.49 223.94 -143.29 228.8 -130.23 232.28 C-123.18 233.88 -123.18 233.88 -116 234 C-113.68 232.78 -113.68 232.78 -112 231 C-111.67 228.37 -111.67 228.37 -112 226 C-116.54 223.49 -120.9 222.21 -125.94 221.19 C-137.94 218.54 -149.05 214.04 -159.8 208.04 C-167.51 203.13 -174.44 197.14 -180.38 190.19 C-184.81 184.32 -188.1 177.74 -191 171 C-191 170.34 -191 169.68 -191 169 C-190.02 168.88 -189.05 168.76 -188.04 168.63 C-186.77 168.47 -185.5 168.3 -184.19 168.12 C-182.92 167.96 -181.66 167.8 -180.36 167.63 C-178.69 167.32 -178.69 167.32 -177 167 C-176.01 166.34 -175.02 165.68 -174 165 C-173.58 162.5 -173.58 162.5 -174 160 C-174.66 159.34 -175.32 158.68 -176 158 C-177.94 157.72 -177.94 157.72 -180.13 157.8 C-180.94 157.81 -181.74 157.82 -182.57 157.82 C-183.42 157.84 -184.26 157.86 -185.12 157.88 C-185.97 157.88 -186.82 157.89 -187.7 157.9 C-189.8 157.93 -191.9 157.96 -194 158 C-194.99 153.54 -195.08 149.56 -195 145 C-194.05 145.16 -193.1 145.33 -192.12 145.5 C-187.45 146.17 -182.71 146.31 -178 146 C-177.67 145.67 -177.34 145.34 -177 145 C-177 142.69 -177 140.38 -177 138 C-185.41 135.52 -185.41 135.52 -194 133 C-193.64 124.27 -191.83 116.33 -188.88 108.14 C-187.99 105.98 -186.96 103.99 -185.81 101.95 C-182.45 95.9 -179.6 90.16 -178.3 83.3 C-177.47 77.62 -176.94 71.91 -176.38 66.2 C-176.24 64.72 -176.09 63.25 -175.95 61.77 C-175.88 61.03 -175.81 60.3 -175.73 59.54 C-174.03 42.9 -170.36 26.29 -164.59 10.58 C-164.07 9.73 -163.54 8.88 -163 8 C-162.22 7.65 -161.44 7.3 -160.63 6.94 C-159.76 6.96 -158.89 6.98 -158 7 C-149.1 10.82 -141.03 18.4 -134 25 C-129.13 29.78 -124.41 34.72 -120.7 40.46 C-118.68 43.57 -116.69 46.42 -114 49 C-111.52 49.74 -111.52 49.74 -108.88 49.38 C-106.91 48.96 -104.95 48.5 -103 48 C-92.92 46.11 -83.05 45.81 -72.81 45.81 C-71.54 45.81 -70.27 45.81 -68.96 45.81 C-63.02 45.84 -57.28 46.06 -51.39 46.82 C-48.54 47.15 -48.54 47.15 -46 47 C-44.55 45.99 -44.55 45.99 -43.07 44.97 C-42.38 43.99 -41.7 43.01 -41 42 C-40.18 40.98 -39.37 39.96 -38.53 38.91 C-37.66 37.77 -36.8 36.64 -35.94 35.5 C-30.77 28.81 -25.23 22.56 -19.39 16.45 C-18.1 15.11 -16.83 13.75 -15.56 12.4 C-11.36 8.04 -7.03 4.33 -2.04 0.9 C-1.37 0.6 -0.69 0.31 0 0 Z " fill="#FEB366" transform="translate(647,380)"/>
<path d="M0 0 C0.91 -0 1.82 -0.01 2.76 -0.01 C3.76 -0.01 4.75 -0.01 5.78 -0 C6.85 -0.01 7.91 -0.01 9.01 -0.01 C12.61 -0.02 16.21 -0.01 19.81 -0.01 C22.41 -0.02 25.01 -0.02 27.6 -0.02 C34.01 -0.03 40.41 -0.03 46.82 -0.03 C54.49 -0.03 62.16 -0.04 69.83 -0.05 C88.37 -0.06 106.91 -0.07 125.45 -0.07 C134.22 -0.08 143 -0.08 151.77 -0.08 C181.8 -0.1 211.82 -0.11 241.85 -0.11 C243.74 -0.11 245.62 -0.11 247.51 -0.11 C249.4 -0.11 251.29 -0.11 253.18 -0.11 C256.97 -0.11 260.76 -0.11 264.55 -0.11 C265.49 -0.11 266.43 -0.11 267.4 -0.11 C297.87 -0.12 328.34 -0.13 358.82 -0.16 C391.04 -0.18 423.26 -0.19 455.48 -0.2 C459.01 -0.2 462.55 -0.2 466.09 -0.2 C466.96 -0.2 467.83 -0.2 468.73 -0.2 C482.74 -0.2 496.75 -0.21 510.77 -0.22 C524.85 -0.24 538.94 -0.24 553.03 -0.23 C561.4 -0.23 569.76 -0.23 578.13 -0.25 C584.38 -0.26 590.64 -0.25 596.89 -0.24 C599.41 -0.24 601.94 -0.24 604.47 -0.25 C618.31 -0.3 631.04 -0.1 644.29 4.38 C654.19 8.61 662.62 14.2 670.76 21.2 C678.88 28.92 684.51 38.5 689.56 48.41 C692.07 53.51 693.93 58.62 695.35 64.13 C695.65 65.24 695.94 66.35 696.25 67.49 C698.49 77.59 698.61 87.64 698.6 97.94 C698.6 98.65 698.6 99.36 698.6 100.09 C698.57 108.81 698.24 117.45 697.35 126.13 C695.93 123.43 694.84 120.79 693.9 117.89 C688.58 101.73 681.76 87.7 671.35 74.13 C667.83 69.66 664.13 65.37 660.35 61.13 C659.68 60.36 659.01 59.59 658.32 58.8 C649.77 49.63 638.86 41.49 627.79 35.59 C618.37 30.89 608.28 26.79 597.79 25.38 C596.31 25.27 594.83 25.19 593.35 25.13 C592.4 25.06 591.46 25 590.48 24.94 C586.42 24.78 582.65 24.83 578.68 25.74 C574.98 27.05 571.98 28.65 568.83 31 C565.68 33.69 562.97 36.19 560.67 39.66 C558.86 43.05 557.92 46.35 557.35 50.13 C556.97 54.19 556.92 58.07 557.35 62.13 C558.64 66.85 560.72 70.96 563.04 75.25 C567 80.18 571.58 84.43 576.98 87.74 C579.77 89.22 582.58 90.62 585.41 92 C587.45 93.04 589.49 94.08 591.53 95.12 C592.52 95.63 593.51 96.13 594.53 96.66 C605.12 102.18 614.66 108.28 622.79 117.11 C628.08 123.35 632.4 130.2 635.51 137.78 C638.24 145.4 639.65 152.61 639.72 160.69 C639.68 166.7 638.99 172.16 637.2 177.93 C636.37 180.07 635.42 182.09 634.35 184.13 C627.96 180.51 627.96 180.51 625.22 178.77 C612.3 170.61 597.64 164.9 582.76 161.56 C571.18 159.1 560.15 158.62 548.35 158.82 C546.57 158.83 544.78 158.84 543 158.84 C534.08 158.91 525.23 159.17 516.35 160.13 C516.08 158.98 515.81 157.83 515.54 156.64 C512.63 144.67 508.82 133.2 503.35 122.13 C502.69 121.14 502.03 120.15 501.35 119.13 C500.88 117.21 500.88 117.21 500.56 115.01 C500.43 114.18 500.31 113.35 500.18 112.49 C500.06 111.59 499.93 110.69 499.8 109.76 C499.66 108.82 499.52 107.88 499.37 106.91 C498.77 102.89 498.19 98.87 497.61 94.85 C493.6 65.81 493.6 65.81 484.35 38.13 C481.32 33.23 481.32 33.23 477.35 29.13 C474.32 28.12 471.7 27.8 468.52 27.85 C466.19 28.15 464.59 28.75 462.51 29.8 C458.39 31.96 455 34.61 451.54 37.69 C450.64 38.48 450.64 38.48 449.72 39.28 C441.29 46.74 433.52 54.6 426.52 63.42 C425.8 64.32 425.09 65.21 424.35 66.13 C423.97 66.71 423.6 67.29 423.21 67.89 C421.73 69.98 420.36 71.54 418.35 73.13 C414.7 74.13 411.17 74.06 407.4 73.99 C406.34 74 405.29 74.01 404.2 74.02 C400.83 74.05 397.47 74.03 394.1 74 C390.75 74.01 387.4 74.03 384.04 74.04 C381.96 74.05 379.88 74.05 377.8 74.04 C372.24 74.03 366.87 74.3 361.36 75.07 C360.7 75.09 360.03 75.11 359.35 75.13 C358.19 74.3 358.19 74.3 357.01 73.46 C356.48 72.63 355.95 71.8 355.41 70.94 C352.43 66.66 349.39 62.76 345.85 58.94 C345.14 58.17 345.14 58.17 344.42 57.39 C337.83 50.35 330.62 44.13 322.35 39.13 C318.44 37.17 314.55 35.37 310.35 34.13 C307.24 33.83 307.24 33.83 304.35 34.13 C301.14 35.54 301.14 35.54 298.35 38.13 C294.63 43.12 292.18 48.42 290.29 54.32 C290.04 55.09 289.78 55.86 289.53 56.65 C284.04 74.22 281.45 93.26 279.97 111.58 C279.51 116.84 278.96 121.68 276.88 126.59 C275.68 128.88 274.46 131.16 273.22 133.43 C267.43 144.35 264.56 157.06 262.35 169.13 C261.8 169.01 261.25 168.89 260.68 168.76 C258.18 168.21 255.67 167.67 253.16 167.13 C252.3 166.94 251.43 166.75 250.54 166.55 C249.7 166.37 248.86 166.19 247.99 166 C247.22 165.84 246.45 165.67 245.66 165.49 C243.15 165.1 240.89 164.93 238.35 165.13 C237.69 165.79 237.03 166.45 236.35 167.13 C236.18 170.21 236.18 170.21 236.35 173.13 C241.34 175.95 246.11 177.14 251.66 178.25 C254.57 178.85 257.46 179.47 260.35 180.13 C260.68 180.46 261.01 180.79 261.35 181.13 C261.5 182.47 261.6 183.82 261.67 185.16 C261.71 185.97 261.75 186.78 261.79 187.61 C261.85 188.89 261.85 188.89 261.91 190.19 C261.95 191.04 262 191.9 262.04 192.78 C262.15 194.89 262.25 197.01 262.35 199.13 C261.67 199.24 260.99 199.35 260.29 199.46 C257.2 199.97 254.12 200.49 251.04 201 C249.96 201.18 248.89 201.35 247.79 201.53 C246.76 201.7 245.73 201.88 244.67 202.06 C243.73 202.21 242.78 202.37 241.8 202.53 C240.59 202.83 240.59 202.83 239.35 203.13 C237.86 204.12 237.86 204.12 236.35 205.13 C236.02 208.17 236.02 208.17 236.35 211.13 C236.68 211.46 237.01 211.79 237.35 212.13 C244.11 212.46 250.67 212.18 257.35 211.13 C260.02 211.06 262.68 211.11 265.35 211.13 C265.75 212.14 266.15 213.16 266.56 214.21 C270 222.61 273.68 229.59 279.43 236.67 C281.08 238.79 282.27 240.69 283.35 243.13 C279.68 244.78 276.01 246.4 272.31 247.97 C268.92 249.41 265.64 250.97 262.36 252.63 C256.49 255.43 250.76 257.84 244.35 259.13 C233.09 260.14 221.58 259.08 210.35 258.13 C210.03 257.33 209.7 256.52 209.37 255.7 C208.93 254.63 208.5 253.57 208.05 252.48 C207.62 251.43 207.19 250.38 206.75 249.3 C204.21 243.55 200.83 238.35 197.35 233.13 C197.17 230.24 197.17 230.24 197.26 226.66 C197.28 225.31 197.31 223.96 197.33 222.6 C197.34 221.89 197.36 221.17 197.37 220.43 C197.9 191.3 195.08 162.69 189.35 134.13 C189.16 133.13 188.96 132.13 188.76 131.11 C186.13 117.68 182.14 105.09 177.12 92.37 C176.29 89.96 175.75 87.64 175.35 85.13 C175.69 82.72 175.69 82.72 176.29 80.07 C177.33 74.33 177.61 68.75 177.66 62.94 C177.68 62.11 177.7 61.28 177.71 60.42 C177.71 55.29 176.94 50.95 175.28 46.1 C174.26 43.93 173.07 42.34 171.47 40.57 C169.62 39.09 169.62 39.09 167.35 38.13 C164.12 37.46 161.31 37.38 158.02 37.54 C151.17 38.64 144.55 41.01 138.35 44.13 C137.66 44.64 136.98 45.14 136.27 45.67 C133.31 47.72 130.79 48.98 127.35 50.13 C120.38 50.97 113.32 50.65 106.32 50.46 C100.57 50.32 94.82 50.28 89.06 50.23 C87.94 50.21 86.82 50.2 85.67 50.19 C58.07 49.9 30.38 53.27 3.93 61.34 C0.49 62.34 -2.64 63.12 -6.24 63.14 C-11.45 62.69 -16.33 61.58 -21.34 60.13 C-29.96 57.65 -38.08 56.77 -47.04 56.85 C-50.2 57.09 -52.47 57.43 -55.34 58.69 C-57.79 60.25 -59.17 61.72 -61.15 63.94 C-62.26 66.35 -62.72 68.52 -63.17 71.14 C-63.51 76.31 -63.27 80.89 -61.9 85.87 C-58.26 97.2 -58.26 97.2 -53.05 107.86 C-51.65 111.13 -51.65 111.13 -51.37 113.16 C-51.26 115.55 -51.24 117.92 -51.24 120.31 C-51.22 122.13 -51.2 123.96 -51.18 125.78 C-51.18 127.2 -51.18 127.2 -51.17 128.65 C-51.08 143.7 -50.64 158.35 -48.17 173.22 C-47.65 177.13 -47.65 177.13 -48.12 179.37 C-48.29 179.95 -48.47 180.53 -48.65 181.13 C-49.19 180.97 -49.72 180.81 -50.27 180.65 C-53.12 180.03 -55.82 179.91 -58.73 179.81 C-59.89 179.77 -61.05 179.73 -62.24 179.68 C-63.45 179.64 -64.66 179.61 -65.9 179.57 C-67.12 179.52 -68.34 179.48 -69.6 179.43 C-72.62 179.33 -75.64 179.23 -78.65 179.13 C-78.7 166.63 -78.73 154.13 -78.75 141.62 C-78.76 135.82 -78.78 130.01 -78.8 124.2 C-78.82 118.59 -78.84 112.97 -78.84 107.36 C-78.84 105.23 -78.85 103.1 -78.86 100.97 C-78.95 83.55 -78.35 66.74 -72.45 50.15 C-68.9 41.15 -63.4 33.02 -57.11 25.72 C-50.5 18.76 -43.47 13.15 -34.96 8.75 C-26.87 4.76 -18.48 2.8 -9.65 1.13 C-8.44 0.86 -8.44 0.86 -7.21 0.59 C-4.74 0.14 -2.51 0 0 0 Z " fill="#FEBEC3" transform="translate(178.65087360143661,340.8723495006561)"/>
<path d="M0 0 C0 30.03 0 60.06 0 91 C-223.08 91 -446.16 91 -676 91 C-676 61.3 -676 31.6 -676 1 C-670.56 1.99 -670.56 1.99 -665 3 C-661.28 3.18 -657.64 3.29 -653.92 3.28 C-652.86 3.28 -651.8 3.29 -650.71 3.3 C-647.19 3.31 -643.68 3.32 -640.16 3.32 C-637.63 3.33 -635.09 3.34 -632.56 3.35 C-627.12 3.37 -621.68 3.39 -616.24 3.4 C-608.38 3.41 -600.51 3.44 -592.65 3.46 C-579.89 3.51 -567.13 3.55 -554.37 3.58 C-541.98 3.61 -529.59 3.64 -517.2 3.68 C-516.43 3.69 -515.67 3.69 -514.88 3.69 C-511.04 3.7 -507.21 3.71 -503.37 3.73 C-471.58 3.83 -439.79 3.92 -408 4 C-408.06 5.28 -408.12 6.56 -408.18 7.88 C-408.22 9.58 -408.27 11.29 -408.31 13 C-408.35 13.84 -408.4 14.68 -408.44 15.54 C-408.49 18.12 -408.42 20.46 -408 23 C-406.67 25.96 -405.06 28.5 -403 31 C-400.71 33.07 -400.71 33.07 -398.19 34.38 C-397.4 34.84 -396.61 35.3 -395.79 35.77 C-391.59 37.62 -387.41 38.77 -382.85 39.2 C-380.63 39.3 -378.41 39.32 -376.19 39.31 C-375.46 39.33 -374.73 39.34 -373.97 39.36 C-367.65 39.37 -361.97 38.06 -356 36 C-352.23 34.46 -348.59 32.74 -344.94 30.94 C-343.44 30.21 -343.44 30.21 -341.91 29.47 C-335.79 26.46 -329.77 23.31 -323.81 20 C-323.14 19.63 -322.46 19.25 -321.76 18.87 C-317.99 16.76 -314.33 14.58 -310.74 12.15 C-305.72 8.88 -300.67 6.01 -295 4 C-285.84 2.13 -276.42 2.58 -267.12 2.71 C-264.37 2.71 -261.62 2.7 -258.87 2.69 C-252.98 2.67 -247.1 2.69 -241.21 2.74 C-232.69 2.82 -224.17 2.82 -215.64 2.82 C-201.79 2.8 -187.94 2.84 -174.09 2.91 C-160.68 2.97 -147.27 3.02 -133.86 3.05 C-133.04 3.05 -132.21 3.05 -131.36 3.05 C-122.31 3.07 -113.27 3.08 -104.23 3.09 C-103.43 3.09 -102.64 3.09 -101.82 3.09 C-97.05 3.1 -97.05 3.1 -92.27 3.1 C-82.99 3.11 -73.7 3.13 -64.42 3.18 C-58.6 3.21 -52.78 3.23 -46.96 3.24 C-43.61 3.25 -40.26 3.26 -36.9 3.29 C-33.26 3.31 -29.62 3.32 -25.98 3.32 C-24.93 3.34 -23.89 3.35 -22.81 3.36 C-16.34 3.34 -10.63 2.39 -4.4 0.64 C-2 0 -2 0 0 0 Z " fill="#FEBDC3" transform="translate(849,732)"/>
<path d="M0 0 C3.19 0.75 3.19 0.75 6 2 C7.29 5.88 7.19 9.27 7.17 13.34 C6.94 18.21 6.37 23.02 5.71 27.86 C5.08 32.64 4.72 37.18 5 42 C6.09 45.48 6.09 45.48 7.69 48.88 C16.65 69.94 19.94 93.06 23.25 115.56 C23.41 116.65 23.58 117.75 23.74 118.87 C25.49 131.27 26.07 143.6 26 156.1 C26 158.73 26 161.35 26.01 163.98 C26 165.75 25.98 167.52 25.95 169.29 C25.78 178.2 25.78 178.2 27 187 C28.73 191.33 31.17 195.08 33.87 198.85 C35.94 201.91 36.92 204.5 38 208 C36.87 208.01 36.87 208.01 35.71 208.02 C-60.68 207.01 -60.68 207.01 -154.04 227.49 C-156.26 228.35 -158.47 229.22 -160.66 230.12 C-161.43 230.41 -162.21 230.7 -163 231 C-163.66 231 -164.32 231 -165 231 C-165.01 230.35 -165.01 229.69 -165.02 229.02 C-165.08 222.17 -165.17 215.32 -165.26 208.48 C-165.3 205.93 -165.32 203.38 -165.35 200.83 C-165.38 197.15 -165.43 193.47 -165.49 189.79 C-165.49 188.66 -165.5 187.53 -165.51 186.37 C-165.63 179.45 -166.55 173.48 -169 167 C-172.39 159.19 -176.76 152.58 -182.5 146.32 C-184.79 144.03 -184.79 144.03 -186.96 142.84 C-189.33 141.39 -191.13 140.05 -193 138 C-194.67 133.79 -195.3 129.53 -195.94 125.06 C-196.13 123.93 -196.33 122.79 -196.53 121.62 C-198.46 109.75 -199.15 97.97 -198.79 85.96 C-198.13 71.4 -198.13 71.4 -200.38 57.13 C-201.71 53.3 -203.32 49.61 -205.08 45.96 C-207.82 40.14 -210.44 33.81 -211.38 27.43 C-211.44 25.25 -211.44 25.25 -211 22 C-210.34 21.34 -209.68 20.68 -209 20 C-201.72 19.15 -194.56 19.68 -187.43 21.29 C-186.35 21.55 -186.35 21.55 -185.25 21.81 C-184.52 21.99 -183.8 22.16 -183.05 22.34 C-180 23.12 -177.13 23.94 -174.22 25.14 C-171.3 26.3 -169.15 26.86 -166 27 C-160.74 26.03 -155.67 24.3 -150.58 22.7 C-133.65 17.39 -115.61 15.6 -98 14 C-96.87 13.89 -95.73 13.79 -94.56 13.68 C-86.21 13.03 -77.96 13.01 -69.59 13.18 C-67.34 13.22 -65.09 13.26 -62.84 13.3 C-59.38 13.36 -55.93 13.44 -52.47 13.55 C-39.86 14.24 -39.86 14.24 -27.51 12.23 C-23 10.31 -19.08 7.71 -15 5 C-11.39 3.46 -7.75 2.14 -4 1 C-2.96 0.68 -2.96 0.68 -1.9 0.36 C-1.27 0.24 -0.65 0.12 0 0 Z " fill="#99CCED" transform="translate(338,390)"/>
<path d="M0 0 C6.61 2.05 12.67 5.13 18.44 8.94 C22.64 12.28 26.08 15.83 28.99 20.35 C32.14 26.23 34.29 32.37 35.44 38.94 C36 45.88 35.85 52.87 35.83 59.82 C35.83 61.93 35.84 64.04 35.84 66.15 C35.86 71.86 35.85 77.57 35.84 83.27 C35.83 89.26 35.84 95.25 35.84 101.23 C35.85 111.29 35.84 121.34 35.83 131.39 C35.81 143 35.82 154.6 35.83 166.2 C35.85 176.18 35.85 186.16 35.84 196.14 C35.84 202.1 35.84 208.05 35.85 214 C35.86 219.6 35.85 225.2 35.83 230.8 C35.83 232.85 35.83 234.89 35.84 236.94 C35.89 255.5 35.89 255.5 33.35 264.58 C31.38 269.68 28.29 273.69 24.84 277.87 C22.41 280.54 20.03 282.59 16.91 284.45 C13.16 286.37 9.59 288.13 5.44 288.94 C2.95 289.03 0.49 289.06 -1.99 289.05 C-2.74 289.05 -3.48 289.05 -4.24 289.05 C-6.69 289.05 -9.13 289.04 -11.58 289.04 C-13.28 289.03 -14.97 289.03 -16.67 289.03 C-21.14 289.03 -25.6 289.02 -30.07 289.01 C-34.63 289 -39.18 288.99 -43.74 288.99 C-52.68 288.98 -61.62 288.96 -70.56 288.94 C-70.61 267.11 -70.64 245.28 -70.67 223.45 C-70.68 213.32 -70.69 203.18 -70.71 193.05 C-70.73 184.21 -70.75 175.37 -70.75 166.53 C-70.75 161.86 -70.76 157.18 -70.77 152.5 C-70.79 148.1 -70.79 143.69 -70.79 139.28 C-70.79 137.67 -70.79 136.06 -70.8 134.44 C-70.84 126.32 -70.63 118.51 -69.02 110.51 C-68.21 105.98 -68.22 101.46 -68.25 96.88 C-68.25 95.9 -68.25 94.92 -68.26 93.91 C-68.4 83.62 -69.29 72.76 -72.56 62.94 C-73.08 53.8 -72.98 44.88 -70.6 35.99 C-68.07 28.53 -64.53 21.93 -59.81 15.62 C-55.68 10.72 -51.08 7.16 -45.56 3.94 C-41.36 1.65 -37.71 0.12 -32.96 -0.65 C-22.32 -1.82 -10.49 -2.29 0 0 Z " fill="#FEBEC3" transform="translate(931.5625,533.0625)"/>
<path d="M0 0 C1.14 -0.01 2.28 -0.02 3.45 -0.04 C9.93 -0.05 15.98 0.21 22.19 2.19 C27.88 4.54 33.07 7.84 37.88 11.69 C42.45 15.98 45.41 21.02 48.46 26.43 C50.98 31.57 52.85 37.04 53.46 42.75 C53.56 45.46 53.57 48.16 53.55 50.88 C53.55 51.91 53.55 52.94 53.56 54 C53.56 57.42 53.54 60.85 53.53 64.27 C53.53 66.74 53.53 69.2 53.53 71.67 C53.53 76.96 53.52 82.25 53.5 87.54 C53.48 95.2 53.47 102.85 53.47 110.5 C53.46 122.92 53.44 135.34 53.41 147.75 C53.39 159.81 53.37 171.87 53.35 183.93 C53.35 184.67 53.35 185.41 53.35 186.18 C53.35 189.91 53.34 193.65 53.34 197.38 C53.31 228.32 53.25 259.25 53.19 290.19 C43.99 290.28 34.79 290.35 25.59 290.39 C21.32 290.42 17.05 290.44 12.78 290.49 C8.65 290.53 4.52 290.56 0.39 290.57 C-1.18 290.57 -2.75 290.59 -4.32 290.61 C-16.44 290.77 -16.44 290.77 -22.13 289.37 C-28.28 287.21 -33.75 284.31 -38.81 280.19 C-42.76 276.45 -45.53 272.31 -47.95 267.47 C-49.76 262.66 -50.91 257.96 -51.07 252.83 C-51.08 251.23 -51.08 249.63 -51.07 248.03 C-51.08 247.14 -51.08 246.25 -51.08 245.34 C-51.1 242.38 -51.09 239.42 -51.09 236.46 C-51.09 234.33 -51.1 232.2 -51.1 230.07 C-51.12 224.3 -51.12 218.52 -51.11 212.75 C-51.11 207.93 -51.12 203.1 -51.12 198.27 C-51.13 186.88 -51.13 175.49 -51.13 164.1 C-51.12 152.37 -51.13 140.64 -51.16 128.9 C-51.17 118.82 -51.18 108.73 -51.18 98.64 C-51.17 92.62 -51.18 86.6 -51.19 80.58 C-51.2 74.92 -51.2 69.26 -51.19 63.59 C-51.19 61.52 -51.19 59.45 -51.2 57.38 C-51.27 38.55 -51.27 38.55 -48.68 29.53 C-46.54 23.73 -43.49 18.81 -39.62 14 C-36.27 10.33 -32.57 7.85 -28.23 5.44 C-18.8 0.57 -10.51 0.01 0 0 Z " fill="#FEBEC3" transform="translate(107.8125,531.8125)"/>
<path d="M0 0 C162.03 0 324.06 0 491 0 C491 144.87 491 289.74 491 439 C484.4 439.66 477.8 440.32 471 441 C471 438.87 471 436.74 471 434.55 C470.96 384.04 470.9 333.54 470.82 283.03 C470.81 276.82 470.8 270.61 470.79 264.39 C470.79 263.16 470.79 261.92 470.79 260.65 C470.76 240.6 470.74 220.56 470.73 200.52 C470.71 179.96 470.69 159.41 470.65 138.85 C470.62 126.16 470.61 113.47 470.61 100.78 C470.61 92.08 470.59 83.39 470.57 74.69 C470.55 69.67 470.55 64.65 470.55 59.63 C470.56 55.04 470.55 50.44 470.53 45.85 C470.52 44.18 470.52 42.52 470.53 40.85 C470.54 38.6 470.53 36.34 470.51 34.08 C470.51 32.83 470.5 31.57 470.5 30.28 C470.18 26.94 470.18 26.94 468.43 24.1 C467.23 23.06 467.23 23.06 466 22 C463.34 21.5 461.31 21.33 458.65 21.37 C457.9 21.36 457.16 21.36 456.39 21.35 C453.88 21.33 451.36 21.35 448.85 21.37 C447.03 21.36 445.22 21.35 443.4 21.34 C438.41 21.32 433.41 21.33 428.41 21.35 C423.02 21.36 417.64 21.34 412.25 21.33 C401.7 21.3 391.14 21.31 380.59 21.32 C372.01 21.33 363.43 21.34 354.86 21.33 C353.64 21.33 352.42 21.33 351.16 21.33 C348.68 21.33 346.21 21.33 343.73 21.32 C320.49 21.31 297.25 21.33 274.01 21.35 C254.05 21.38 234.1 21.37 214.15 21.35 C190.99 21.32 167.84 21.31 144.68 21.33 C142.21 21.33 139.75 21.33 137.28 21.33 C135.46 21.33 135.46 21.33 133.6 21.33 C125.03 21.34 116.46 21.33 107.89 21.32 C97.45 21.3 87.01 21.31 76.57 21.33 C71.25 21.35 65.92 21.35 60.59 21.34 C55.71 21.32 50.84 21.33 45.96 21.36 C44.2 21.36 42.43 21.36 40.66 21.35 C38.27 21.33 35.87 21.35 33.48 21.37 C32.44 21.35 32.44 21.35 31.38 21.34 C29.17 21.33 29.17 21.33 26 22 C23 24.14 23 24.14 21 27 C20.27 29.01 20.27 29.01 20.37 31.07 C20.35 32.24 20.35 32.24 20.33 33.43 C20.34 34.7 20.34 34.7 20.36 35.99 C20.35 37.35 20.35 37.35 20.34 38.74 C20.31 41.78 20.33 44.82 20.34 47.85 C20.33 50.03 20.32 52.21 20.31 54.39 C20.28 60.3 20.28 66.22 20.29 72.13 C20.29 78.31 20.27 84.49 20.25 90.68 C20.21 102.38 20.2 114.08 20.19 125.79 C20.19 139.11 20.16 152.44 20.12 165.77 C20.05 193.18 20.01 220.59 20 248 C13.4 248 6.8 248 0 248 C0 166.16 0 84.32 0 0 Z " fill="#FBDC95" transform="translate(418,80)"/>
<path d="M0 0 C1.92 0 3.85 0 5.77 0 C10.76 0.01 15.76 0.02 20.75 0.03 C25.87 0.04 30.99 0.04 36.12 0.05 C46.11 0.06 56.11 0.08 66.11 0.1 C63.49 1.84 61.2 2.99 58.32 4.2 C57.36 4.6 56.41 5.01 55.43 5.42 C54.42 5.85 53.41 6.28 52.36 6.72 C38.89 12.52 26.16 18.23 15.11 28.1 C14.48 28.61 13.85 29.13 13.2 29.66 C9.31 33.09 6.72 37.03 4.18 41.54 C2.6 44.67 1.36 47.7 0.75 51.17 C0.27 55.9 0.47 60.39 1.11 65.1 C1.78 67.57 2.5 69.41 3.86 71.56 C6.02 74.21 8.22 76.32 11.11 78.1 C15.66 80.48 20.02 82.32 25.11 83.1 C38.04 83.91 49.84 81.69 62.22 78.1 C69.09 76.05 75.89 73.85 82.68 71.53 C103.53 64.43 124.59 59.21 146.31 55.57 C148.61 55.18 150.9 54.77 153.18 54.35 C163.43 52.6 173.75 52.9 184.11 53.1 C181.27 56.13 178.37 58.37 174.86 60.6 C163.06 68.33 151.9 77.01 141.11 86.1 C139.98 87.01 139.98 87.01 138.83 87.94 C131.37 94.16 124.94 102.06 119.74 110.26 C119.2 110.87 118.67 111.47 118.11 112.1 C116.08 112.6 116.08 112.6 113.71 112.6 C112.35 112.62 112.35 112.62 110.96 112.63 C109.97 112.62 108.97 112.61 107.94 112.61 C106.88 112.61 105.83 112.62 104.74 112.62 C101.17 112.64 97.61 112.63 94.05 112.62 C91.5 112.62 88.95 112.63 86.41 112.64 C80.19 112.65 73.98 112.65 67.77 112.64 C62.72 112.63 57.66 112.63 52.61 112.63 C51.89 112.63 51.17 112.63 50.43 112.63 C48.97 112.64 47.51 112.64 46.05 112.64 C32.35 112.65 18.65 112.64 4.95 112.62 C-6.79 112.6 -18.54 112.6 -30.29 112.62 C-43.93 112.64 -57.57 112.65 -71.21 112.64 C-72.67 112.64 -74.13 112.63 -75.58 112.63 C-76.3 112.63 -77.02 112.63 -77.75 112.63 C-82.79 112.63 -87.84 112.63 -92.88 112.64 C-99.67 112.66 -106.46 112.65 -113.26 112.62 C-115.75 112.62 -118.24 112.62 -120.74 112.63 C-124.14 112.64 -127.55 112.63 -130.95 112.61 C-131.94 112.61 -132.92 112.62 -133.93 112.63 C-137.67 112.59 -140.92 112.42 -144.49 111.24 C-147.65 109.87 -150.31 108.59 -152.93 106.34 C-153.89 104.1 -153.89 104.1 -154.25 100.58 C-154.26 99.15 -154.25 97.73 -154.23 96.3 C-154.23 95.52 -154.23 94.74 -154.23 93.93 C-154.23 91.36 -154.2 88.78 -154.18 86.21 C-154.17 84.42 -154.17 82.63 -154.17 80.84 C-154.16 76.14 -154.13 71.44 -154.09 66.74 C-154.06 61.94 -154.05 57.14 -154.03 52.34 C-154 42.93 -153.95 33.51 -153.89 24.1 C-150.62 22.65 -147.34 21.23 -144.07 19.8 C-142.7 19.2 -142.7 19.2 -141.31 18.58 C-109.77 4.91 -73.78 3.18 -39.89 1.1 C-39.16 1.05 -38.44 1.01 -37.69 0.96 C-25.12 0.18 -12.6 -0.04 0 0 Z " fill="#FEBEC4" transform="translate(327.88671875,610.90234375)"/>
<path d="M0 0 C8.19 0.1 15.96 1.72 23.63 4.53 C30.5 7.49 36.41 11.07 42.01 16.03 C43.56 17.52 45.1 19.02 46.63 20.53 C47.23 21.06 47.83 21.59 48.45 22.13 C54.78 27.87 59.07 35.39 63.63 42.53 C64.01 41.73 64.39 40.93 64.78 40.11 C69.23 31.22 74.58 24.51 81.63 17.53 C82.22 16.93 82.8 16.32 83.4 15.7 C87.87 11.42 93.43 8.69 98.98 6.07 C104.09 3.91 109.2 2.58 114.63 1.53 C115.9 1.26 115.9 1.26 117.19 0.98 C119.54 0.55 121.75 0.3 124.13 0.22 C124.87 0.18 125.6 0.14 126.35 0.11 C128.63 0.53 128.63 0.53 131.38 2.1 C132.12 2.9 132.87 3.7 133.63 4.53 C134.75 10.45 134.17 16.65 133.35 22.6 C131.9 31.07 129.05 38.77 124.91 46.29 C121.54 52.06 117.42 56.88 112.63 61.53 C112.02 62.16 111.41 62.8 110.78 63.45 C106.06 68 100.59 71.21 94.65 73.95 C87.65 76.9 80.09 78.28 72.63 79.53 C71.64 79.53 70.65 79.53 69.63 79.53 C69.63 86.46 69.63 93.39 69.63 100.53 C72.52 100.47 75.41 100.42 78.39 100.36 C81.2 100.32 84.01 100.29 86.82 100.26 C88.77 100.23 90.72 100.2 92.66 100.15 C95.47 100.09 98.27 100.06 101.08 100.04 C101.94 100.02 102.81 99.99 103.7 99.96 C106.11 99.96 108.27 100.04 110.63 100.53 C113.14 101.96 114.61 103.4 116.63 105.53 C116.96 106.19 117.29 106.85 117.63 107.53 C117.59 109.93 117.48 112.29 117.31 114.68 C117.26 115.4 117.21 116.11 117.16 116.85 C116.63 124.3 115.74 131.69 114.79 139.09 C114.61 140.51 114.43 141.92 114.25 143.33 C113.79 146.99 113.32 150.64 112.86 154.3 C112.38 158.05 111.9 161.81 111.43 165.56 C110.5 172.89 109.57 180.21 108.63 187.53 C109.93 187.51 109.93 187.51 111.25 187.48 C114.45 187.43 117.65 187.39 120.86 187.37 C122.24 187.35 123.63 187.33 125.02 187.3 C127.01 187.27 129 187.25 131 187.24 C132.79 187.21 132.79 187.21 134.63 187.19 C135.62 187.3 136.61 187.42 137.63 187.53 C138.26 187.97 138.88 188.41 139.52 188.87 C139.89 189.42 140.25 189.97 140.63 190.53 C141.07 193.47 141.07 193.47 140.63 196.53 C139.01 198.69 139.01 198.69 136.63 200.53 C133.65 201.03 133.65 201.03 130.1 201.04 C129.45 201.05 128.8 201.05 128.12 201.06 C125.93 201.07 123.74 201.06 121.55 201.05 C119.98 201.05 118.41 201.06 116.84 201.07 C112.58 201.09 108.31 201.08 104.05 201.07 C99.59 201.06 95.13 201.07 90.67 201.07 C83.18 201.08 75.68 201.07 68.19 201.05 C59.53 201.03 50.86 201.04 42.2 201.06 C34.76 201.08 27.33 201.08 19.89 201.07 C15.45 201.06 11.01 201.06 6.56 201.08 C2.39 201.09 -1.79 201.08 -5.96 201.06 C-7.5 201.05 -9.03 201.05 -10.56 201.06 C-12.66 201.07 -14.75 201.06 -16.84 201.04 C-18.01 201.04 -19.18 201.04 -20.39 201.03 C-21.37 200.87 -22.35 200.7 -23.37 200.53 C-25.75 198.69 -25.75 198.69 -27.37 196.53 C-27.8 193.47 -27.8 193.47 -27.37 190.53 C-26.1 188.87 -26.1 188.87 -24.37 187.53 C-22.41 187.17 -22.41 187.17 -20.17 187.19 C-18.91 187.19 -18.91 187.19 -17.62 187.19 C-16.72 187.21 -15.82 187.22 -14.89 187.24 C-13.96 187.24 -13.03 187.25 -12.07 187.25 C-9.11 187.27 -6.14 187.31 -3.18 187.34 C-1.17 187.36 0.84 187.37 2.85 187.38 C7.78 187.42 12.71 187.47 17.63 187.53 C17.45 186.4 17.28 185.27 17.09 184.11 C15.01 170.73 13.32 157.32 11.79 143.87 C11.38 140.31 10.96 136.75 10.53 133.19 C10.27 130.89 10 128.6 9.74 126.3 C9.62 125.25 9.49 124.2 9.36 123.12 C8.78 117.89 8.23 112.68 9.01 107.45 C9.22 106.82 9.42 106.18 9.63 105.53 C12.1 102.5 12.1 102.5 13.74 101.36 C15.93 100.4 17.69 100.12 20.08 99.96 C21.78 99.96 23.48 99.99 25.19 100.04 C26.54 100.05 26.54 100.05 27.92 100.06 C30.78 100.09 33.64 100.15 36.51 100.22 C38.46 100.24 40.4 100.27 42.35 100.29 C47.11 100.34 51.87 100.44 56.63 100.53 C56.63 93.27 56.63 86.01 56.63 78.53 C53.66 78.53 50.69 78.53 47.63 78.53 C40.55 77.63 34.04 75.51 27.57 72.53 C20.15 68.62 14.39 63.59 8.63 57.53 C3.32 51.66 -0.31 44.81 -3.37 37.53 C-6.36 29.32 -7.75 21.54 -7.93 12.84 C-7.96 12.08 -7.98 11.31 -8.01 10.52 C-8 8.33 -8 8.33 -7.37 4.53 C-5.01 1.9 -3.44 0.77 0 0 Z " fill="#0E152D" transform="translate(136.3671875,90.46875)"/>
<path d="M0 0 C140.91 0 281.82 0 427 0 C427 11.55 427 23.1 427 35 C414.13 35 401.26 35 388 35 C387.67 28.73 387.34 22.46 387 16 C385.35 14.35 383.7 12.7 382 11 C379.86 10.26 379.86 10.26 377.66 10.35 C376.83 10.34 376.01 10.32 375.16 10.31 C373.84 10.32 373.84 10.32 372.5 10.34 C371.13 10.33 371.13 10.33 369.73 10.32 C367.81 10.32 365.88 10.33 363.95 10.35 C361.01 10.37 358.07 10.35 355.12 10.32 C353.25 10.32 351.37 10.33 349.5 10.34 C348.62 10.33 347.75 10.32 346.84 10.31 C344.47 10.35 342.32 10.5 340 11 C338.49 11.96 338.49 11.96 336.95 12.94 C336.31 13.95 335.66 14.96 335 16 C334.3 19.23 334.28 22.38 334.29 25.68 C334.28 26.6 334.26 27.53 334.25 28.48 C334.2 31.42 334.2 34.37 334.19 37.31 C334.16 39.31 334.14 41.31 334.11 43.31 C334.04 48.21 334.02 53.1 334 58 C327.73 58 321.46 58 315 58 C314.9 54.52 314.8 51.03 314.71 47.55 C314.47 46.38 314.24 45.21 314 44 C311.96 41.19 311.96 41.19 309 39 C305.63 38.23 305.63 38.23 301.95 38.29 C301.29 38.28 300.63 38.26 299.95 38.25 C297.86 38.2 295.78 38.2 293.69 38.19 C292.26 38.16 290.84 38.14 289.42 38.11 C285.95 38.05 282.47 38.02 279 38 C278.91 37.11 278.83 36.22 278.74 35.3 C278.6 34.13 278.46 32.96 278.31 31.75 C278.12 30.01 278.12 30.01 277.93 28.23 C277.62 27.17 277.31 26.1 277 25 C276 23.82 276 23.82 274.98 22.61 C272.26 20.94 272.26 20.94 270.04 20.64 C267.66 20.47 265.32 20.45 262.94 20.47 C262.07 20.46 261.2 20.46 260.3 20.46 C258.47 20.45 256.64 20.46 254.81 20.48 C252.01 20.5 249.21 20.48 246.41 20.45 C244.63 20.46 242.85 20.46 241.06 20.47 C240.23 20.46 239.4 20.45 238.54 20.44 C236.29 20.48 234.21 20.58 232 21 C228.98 22.67 228.98 22.67 227 25 C226.01 27.96 225.86 29.91 225.84 32.99 C225.83 34.02 225.82 35.05 225.81 36.12 C225.81 37.25 225.8 38.38 225.79 39.54 C225.78 40.73 225.77 41.92 225.76 43.15 C225.74 46.41 225.72 49.68 225.7 52.94 C225.67 56.35 225.65 59.76 225.62 63.17 C225.57 69.63 225.53 76.09 225.48 82.55 C225.43 89.91 225.38 97.26 225.32 104.62 C225.21 119.74 225.1 134.87 225 150 C222.6 149.64 222.6 149.64 220 149 C218.46 146.73 218.46 146.73 217.16 143.68 C216.66 142.54 216.16 141.41 215.65 140.23 C215.12 138.97 214.59 137.7 214.06 136.44 C213.49 135.12 212.92 133.8 212.35 132.48 C211.15 129.71 209.96 126.94 208.78 124.17 C207.1 120.23 205.39 116.31 203.67 112.39 C203.4 111.77 203.12 111.14 202.84 110.5 C202.28 109.23 201.72 107.95 201.16 106.68 C199.71 103.39 198.27 100.09 196.84 96.8 C196.54 96.11 196.24 95.43 195.93 94.72 C193.78 89.8 191.64 84.87 189.51 79.95 C187.89 76.22 186.26 72.48 184.64 68.75 C183.84 66.94 183.06 65.12 182.27 63.3 C181.16 60.74 180.05 58.18 178.93 55.62 C178.61 54.87 178.29 54.12 177.95 53.34 C175.77 48.37 173.46 43.22 170 39 C167.93 37.78 166.3 37.06 163.95 36.59 C161.19 36.48 158.74 36.59 156 37 C152.08 38.32 148.31 39.84 144.52 41.49 C141.38 42.84 138.25 43.97 135 45 C134.94 43.25 134.94 43.25 134.89 41.46 C134.82 39.91 134.75 38.36 134.69 36.81 C134.66 36.04 134.64 35.27 134.62 34.48 C134.52 32.29 134.36 30.17 134 28 C132.79 25.1 132.79 25.1 131 23 C130.01 22.34 129.02 21.68 128 21 C125.99 20.7 125.99 20.7 123.78 20.74 C122.93 20.73 122.08 20.73 121.21 20.72 C120.29 20.73 119.38 20.73 118.44 20.73 C117.5 20.73 116.56 20.73 115.59 20.73 C113.6 20.73 111.61 20.73 109.62 20.74 C106.58 20.75 103.53 20.74 100.49 20.73 C98.56 20.73 96.62 20.73 94.69 20.73 C93.33 20.73 93.33 20.73 91.93 20.72 C91.08 20.73 90.23 20.73 89.35 20.74 C88.61 20.74 87.86 20.74 87.09 20.75 C84.95 20.93 84.95 20.93 82.85 21.77 C82.24 22.17 81.63 22.58 81 23 C80.34 24.32 79.68 25.64 79 27 C78.67 30.96 78.34 34.92 78 39 C67.77 39 57.54 39 47 39 C46.67 34.71 46.34 30.42 46 26 C45.02 24.38 45.02 24.38 44.03 22.73 C41.27 20.95 41.27 20.95 38.97 20.57 C36.48 20.32 34.04 20.28 31.54 20.29 C30.64 20.28 29.74 20.26 28.81 20.25 C25.93 20.2 23.06 20.2 20.19 20.19 C18.23 20.16 16.28 20.14 14.33 20.11 C9.55 20.04 4.78 20.02 0 20 C0 13.4 0 6.8 0 0 Z " fill="#B7A5E9" transform="translate(450,114)"/>
<path d="M0 0 C140.91 0 281.82 0 427 0 C427 6.93 427 13.86 427 21 C286.09 21 145.18 21 0 21 C0 14.07 0 7.14 0 0 Z " fill="#FEDF98" transform="translate(450,277)"/>
<path d="M0 0 C140.91 0 281.82 0 427 0 C427 21.78 427 43.56 427 66 C424.51 63.51 422.62 61.1 420.64 58.22 C414.33 49.04 407.41 41.52 398.44 34.88 C389.66 28.62 379.88 24.44 369.62 21.19 C368.09 20.78 366.54 20.39 365 20 C364.3 19.82 363.6 19.64 362.88 19.46 C355.37 17.74 347.99 17.71 340.32 17.72 C338.85 17.72 337.37 17.71 335.9 17.7 C331.88 17.69 327.85 17.68 323.83 17.68 C319.48 17.68 315.13 17.66 310.78 17.65 C303.25 17.63 295.73 17.61 288.2 17.6 C277.32 17.59 266.43 17.56 255.55 17.54 C237.89 17.49 220.23 17.45 202.57 17.42 C185.42 17.39 168.27 17.36 151.12 17.32 C150.07 17.31 149.01 17.31 147.92 17.31 C142.61 17.3 137.3 17.29 132 17.27 C88 17.17 44 17.08 0 17 C0 11.39 0 5.78 0 0 Z " fill="#B8A7EA" transform="translate(450,311)"/>
<path d="M0 0 C10.97 0.71 20.57 3.43 30.64 7.69 C44.62 14.3 55.71 23.21 66.53 34.13 C73.34 41.22 78.97 48.72 84.01 57.15 C84.38 57.76 84.75 58.36 85.13 58.98 C92.53 71.32 97.62 85.08 100.62 99.14 C102.86 110.72 102.86 123.29 101.26 134.96 C99.06 147.27 94.75 158.44 88.64 169.28 C85.8 174.04 82.89 178.19 79.01 182.15 C78.35 182.15 77.69 182.15 77.01 182.15 C75.97 180.61 75.01 179.01 74.07 177.4 C70.8 172.05 67.04 167.66 62.66 163.21 C60.85 161.35 59.24 159.59 58.04 157.27 C58 154.55 58.76 152.22 59.65 149.66 C59.89 149 60.14 148.34 60.39 147.65 C63.52 138.78 64.32 131.61 64.33 122.21 C64.23 114.92 63.55 108.54 61.33 101.56 C57.42 91.45 52.48 82.47 45.6 74.12 C38 65.41 29.06 58.79 19.01 53.15 C15.11 51.11 11.19 49.14 7.26 47.15 C0.02 43.46 -6.42 39.94 -12.32 34.29 C-14.34 31.7 -15.68 29.16 -16.99 26.15 C-17.82 22.81 -18.06 19.6 -17.99 16.15 C-17.61 13.9 -17.06 12.06 -16.14 9.97 C-14.44 7.28 -12.35 5.38 -9.9 3.38 C-6.61 1.27 -3.93 0.2 0 0 Z " fill="#FEB366" transform="translate(764.98828125,376.84765625)"/>
<path d="M0 0 C27.06 0 54.12 0 82 0 C80.7 10.75 79.4 21.49 78.06 32.56 C77.65 35.94 77.25 39.33 76.82 42.81 C76.5 45.5 76.17 48.19 75.85 50.88 C75.76 51.57 75.68 52.26 75.59 52.97 C75.35 55.03 75.1 57.09 74.85 59.15 C74.71 60.3 74.57 61.46 74.42 62.65 C73.51 69.84 73.51 69.84 73 73 C72.67 73.33 72.34 73.66 72 74 C70.01 74.09 68.01 74.12 66.01 74.11 C64.73 74.11 63.45 74.11 62.13 74.11 C60.72 74.11 59.31 74.1 57.9 74.1 C56.47 74.1 55.04 74.09 53.6 74.09 C49.82 74.09 46.04 74.08 42.26 74.07 C38.41 74.06 34.56 74.05 30.7 74.05 C23.13 74.04 15.57 74.02 8 74 C3.09 36.54 3.09 36.54 1.19 19 C1.06 17.88 0.94 16.75 0.81 15.59 C0.7 14.55 0.59 13.51 0.48 12.44 C0.39 11.55 0.29 10.66 0.2 9.75 C-0.04 6.5 0 3.25 0 0 Z " fill="#FEBDC3" transform="translate(159,204)"/>
<path d="M0 0 C0.82 -0.05 1.63 -0.09 2.48 -0.14 C3.31 0.24 4.14 0.61 5 1 C6.71 3.4 8.04 5.59 9.38 8.19 C9.76 8.9 10.15 9.62 10.54 10.35 C12.42 13.86 14.21 17.4 15.96 20.96 C16.42 21.89 16.42 21.89 16.88 22.84 C17.7 24.52 18.5 26.22 19.3 27.91 C21.2 31.36 23.05 34.39 26 37 C33.69 41.92 42.43 44.08 51.14 46.49 C52.62 46.92 52.62 46.92 54.12 47.35 C55.01 47.6 55.9 47.84 56.82 48.1 C57.9 48.54 57.9 48.54 59 49 C59.66 49.99 60.32 50.98 61 52 C60.92 55 60.92 55 60 58 C57.96 59.7 57.96 59.7 55.3 61.04 C54.34 61.53 53.38 62.03 52.38 62.55 C51.37 63.05 50.36 63.55 49.31 64.06 C39.99 68.58 39.99 68.58 32 75 C29.42 78.9 27.9 82.94 26.8 87.47 C26.48 89 26.17 90.53 25.88 92.06 C25.56 93.6 25.25 95.13 24.93 96.66 C24.78 97.39 24.63 98.12 24.47 98.88 C23.79 101.96 22.9 104.97 22 108 C21.67 109.26 21.34 110.52 21 111.81 C20.5 113.39 20.5 113.39 20 115 C19.34 115.66 18.68 116.32 18 117 C17.24 117.16 16.47 117.33 15.69 117.5 C14.8 117.34 13.91 117.17 13 117 C7.26 111.2 4.15 103.82 0.55 96.59 C-2.45 90.67 -5.46 84.9 -10 80 C-12.48 78.15 -12.48 78.15 -15.06 77.12 C-15.88 76.76 -16.69 76.39 -17.54 76.01 C-18.76 75.51 -18.76 75.51 -20 75 C-20.75 74.67 -21.5 74.33 -22.27 73.99 C-26.68 72.39 -31.26 71.54 -35.85 70.59 C-39.04 69.88 -41.63 69.21 -44.48 67.58 C-44.98 67.06 -45.48 66.54 -46 66 C-46.4 64.36 -46.4 64.36 -46.81 62.69 C-46.54 61.47 -46.28 60.25 -46 59 C-42.38 55.26 -37.36 53.18 -32.79 50.8 C-32.05 50.41 -31.3 50.02 -30.53 49.62 C-29.04 48.84 -27.54 48.08 -26.03 47.33 C-22.79 45.69 -20.05 44.04 -17.23 41.72 C-14.43 38.31 -12.55 35.14 -11 31 C-9.32 25 -7.99 18.91 -6.64 12.83 C-6.22 11 -6.22 11 -5.78 9.14 C-5.53 8.03 -5.29 6.92 -5.03 5.78 C-4.69 4.87 -4.35 3.95 -4 3 C-2.04 1.12 -2.04 1.12 0 0 Z " fill="#FFDE95" transform="translate(247,437)"/>
<path d="M0 0 C11.55 0 23.1 0 35 0 C35 38.61 35 77.22 35 117 C23.45 117 11.9 117 0 117 C0 78.39 0 39.78 0 0 Z " fill="#9ACCEC" transform="translate(450,147)"/>
<path d="M0 0 C12.87 0 25.74 0 39 0 C39 33.33 39 66.66 39 101 C26.13 101 13.26 101 0 101 C0 67.67 0 34.34 0 0 Z " fill="#9BC8E8" transform="translate(838,163)"/>
<path d="M0 0 C10.56 0 21.12 0 32 0 C32 38.61 32 77.22 32 117 C21.44 117 10.88 117 0 117 C0 78.39 0 39.78 0 0 Z " fill="#FFB365" transform="translate(540,147)"/>
<path d="M0 0 C9.57 0 19.14 0 29 0 C29 41.91 29 83.82 29 127 C19.43 127 9.86 127 0 127 C0 85.09 0 43.18 0 0 Z " fill="#FFDF98" transform="translate(797,137)"/>
<path d="M0 0 C9.24 0 18.48 0 28 0 C28 38.61 28 77.22 28 117 C18.76 117 9.52 117 0 117 C0 78.39 0 39.78 0 0 Z " fill="#98CCED" transform="translate(688,147)"/>
<path d="M0 0 C10.23 0 20.46 0 31 0 C31 32.67 31 65.34 31 99 C20.77 99 10.54 99 0 99 C0 66.33 0 33.66 0 0 Z " fill="#FDDD95" transform="translate(497,165)"/>
<path d="M0 0 C1.97 -0.38 1.97 -0.38 4.25 -0.38 C5.56 -0.39 5.56 -0.39 6.89 -0.4 C7.85 -0.39 8.81 -0.39 9.79 -0.38 C10.81 -0.39 11.83 -0.39 12.88 -0.4 C16.3 -0.41 19.73 -0.4 23.15 -0.39 C25.6 -0.39 28.05 -0.4 30.5 -0.4 C36.47 -0.42 42.44 -0.41 48.41 -0.41 C53.26 -0.4 58.11 -0.4 62.96 -0.4 C64 -0.4 64 -0.4 65.05 -0.4 C66.45 -0.4 67.85 -0.4 69.25 -0.41 C82.4 -0.41 95.55 -0.4 108.69 -0.39 C119.98 -0.37 131.27 -0.38 142.55 -0.39 C155.65 -0.41 168.75 -0.41 181.85 -0.4 C183.25 -0.4 184.64 -0.4 186.04 -0.4 C186.73 -0.4 187.41 -0.4 188.12 -0.4 C192.97 -0.4 197.81 -0.4 202.66 -0.41 C209.18 -0.42 215.7 -0.41 222.22 -0.39 C224.62 -0.39 227.02 -0.39 229.42 -0.4 C232.68 -0.41 235.94 -0.4 239.21 -0.38 C240.64 -0.39 240.64 -0.39 242.11 -0.4 C242.98 -0.39 243.85 -0.39 244.75 -0.38 C245.88 -0.38 245.88 -0.38 247.03 -0.38 C247.68 -0.25 248.33 -0.13 249 0 C250.74 1.34 250.74 1.34 252 3 C252.38 6 252.38 6 252 9 C250.74 10.66 250.74 10.66 249 12 C247.03 12.38 247.03 12.38 244.75 12.38 C243.88 12.39 243.01 12.39 242.11 12.4 C241.15 12.39 240.19 12.39 239.21 12.38 C238.19 12.39 237.17 12.39 236.12 12.4 C232.7 12.41 229.27 12.4 225.85 12.39 C223.4 12.39 220.95 12.4 218.5 12.4 C212.53 12.42 206.56 12.41 200.59 12.41 C195.74 12.4 190.89 12.4 186.04 12.4 C185 12.4 185 12.4 183.95 12.4 C182.55 12.4 181.15 12.4 179.75 12.41 C166.6 12.41 153.45 12.4 140.31 12.39 C129.02 12.37 117.73 12.38 106.45 12.39 C93.35 12.41 80.25 12.41 67.15 12.4 C65.75 12.4 64.36 12.4 62.96 12.4 C62.27 12.4 61.59 12.4 60.88 12.4 C56.03 12.4 51.19 12.4 46.34 12.41 C39.82 12.42 33.3 12.41 26.78 12.39 C24.38 12.39 21.98 12.39 19.58 12.4 C16.32 12.41 13.06 12.4 9.79 12.38 C8.36 12.39 8.36 12.39 6.89 12.4 C6.02 12.39 5.15 12.39 4.25 12.38 C3.12 12.38 3.12 12.38 1.97 12.38 C1.32 12.25 0.67 12.13 0 12 C-1.74 10.66 -1.74 10.66 -3 9 C-3.38 6 -3.38 6 -3 3 C-1.74 1.34 -1.74 1.34 0 0 Z " fill="#0C142C" transform="translate(402,889)"/>
<path d="M0 0 C0.33 0 0.66 0 1 0 C1.1 4.02 1.17 8.04 1.22 12.06 C1.24 13.43 1.27 14.79 1.3 16.16 C1.35 18.13 1.37 20.1 1.39 22.07 C1.41 23.25 1.43 24.44 1.45 25.66 C1 29 1 29 -0.4 32.18 C-3 35 -3 35 -5.06 36.13 C-9.47 37.98 -13.42 39.25 -18.21 39.49 C-20.1 39.51 -21.99 39.5 -23.88 39.48 C-24.93 39.48 -25.98 39.49 -27.06 39.49 C-30.56 39.5 -34.05 39.48 -37.54 39.45 C-40.06 39.45 -42.57 39.45 -45.08 39.46 C-50.48 39.46 -55.88 39.45 -61.28 39.42 C-69.09 39.39 -76.89 39.38 -84.7 39.37 C-97.37 39.37 -110.04 39.34 -122.7 39.3 C-135 39.27 -147.3 39.24 -159.6 39.22 C-160.36 39.22 -161.12 39.22 -161.9 39.22 C-165.71 39.21 -169.52 39.21 -173.33 39.2 C-204.88 39.16 -236.44 39.09 -268 39 C-264.44 36.1 -260.92 33.67 -256.93 31.4 C-255.79 30.74 -254.64 30.09 -253.46 29.41 C-252.27 28.73 -251.07 28.05 -249.88 27.38 C-247.52 26.03 -245.16 24.68 -242.8 23.34 C-241.76 22.74 -240.72 22.15 -239.65 21.54 C-237.73 20.42 -235.85 19.23 -234 18 C-231.86 17.51 -231.86 17.51 -229.39 17.18 C-228.48 17.06 -227.56 16.94 -226.63 16.81 C-225.66 16.69 -224.69 16.56 -223.69 16.44 C-222.69 16.31 -221.7 16.18 -220.67 16.05 C-207.4 14.37 -194.35 13.85 -181 14 C-180.94 14.56 -180.87 15.11 -180.81 15.69 C-180.4 18.24 -179.84 20.55 -179 23 C-177.11 26.29 -174.89 28.57 -172 31 C-168.18 33.36 -164.33 34.83 -160 36 C-153.55 36.81 -147.02 36.49 -140.54 36.34 C-138.65 36.31 -136.77 36.29 -134.89 36.27 C-130.95 36.21 -127.01 36.14 -123.08 36.06 C-118.1 35.95 -113.12 35.88 -108.13 35.81 C-103.31 35.75 -98.48 35.67 -93.66 35.59 C-92.77 35.58 -91.88 35.56 -90.97 35.55 C-81.21 35.39 -71.52 34.99 -61.79 34.1 C-60.95 34.02 -60.11 33.95 -59.24 33.87 C-49.05 32.86 -39.24 30.45 -29.9 26.21 C-22.89 22.8 -16.79 18.67 -11.16 13.24 C-7.11 9.04 -3.24 4.86 0 0 Z " fill="#FEBFC4" transform="translate(848,684)"/>
<path d="M0 0 C3.43 6.67 6.54 13.4 9.44 20.31 C11.78 25.88 14.17 31.41 16.72 36.89 C20.54 45.12 24.18 53.42 27.81 61.73 C29 64.43 30.18 67.13 31.37 69.83 C33.24 74.1 35.11 78.38 36.98 82.66 C37.64 84.18 38.31 85.7 38.98 87.23 C39.84 89.2 40.7 91.18 41.56 93.16 C42.04 94.25 42.51 95.34 43 96.47 C43.33 97.3 43.66 98.14 44 99 C44 99.66 44 100.32 44 101 C35.09 101 26.18 101 17 101 C12.44 90.44 12.44 90.44 11.05 87.21 C8.41 81.13 5.67 75.1 2.85 69.1 C-0.82 61.29 -4.35 53.42 -7.89 45.55 C-9.06 42.94 -10.24 40.33 -11.42 37.72 C-15.71 28.18 -19.93 18.63 -24 9 C-22.35 8.17 -20.69 7.33 -19.04 6.5 C-17.77 5.86 -16.5 5.21 -15.24 4.57 C-5.89 -0.12 -5.89 -0.12 0 0 Z " fill="#FEC1C5" transform="translate(612,163)"/>
<path d="M0 0 C5.96 -0.02 11.93 -0.04 17.89 -0.05 C19.92 -0.06 21.95 -0.07 23.98 -0.08 C26.89 -0.09 29.8 -0.09 32.71 -0.1 C33.63 -0.1 34.54 -0.11 35.48 -0.11 C37.66 -0.11 39.83 -0.06 42 0 C42.5 0.5 42.5 0.5 43 1 C43.24 2.83 43.42 4.68 43.57 6.52 C43.67 7.71 43.77 8.89 43.88 10.11 C43.98 11.4 44.08 12.69 44.19 14.02 C44.3 15.36 44.41 16.69 44.52 18.03 C44.76 20.85 44.98 23.66 45.21 26.48 C45.5 30.05 45.8 33.63 46.1 37.21 C46.33 39.98 46.55 42.75 46.78 45.52 C46.94 47.47 47.1 49.42 47.26 51.37 C47.36 52.58 47.46 53.8 47.56 55.05 C47.64 56.11 47.73 57.16 47.82 58.25 C48.07 63.49 48 68.75 48 74 C39.42 74 30.84 74 22 74 C16.94 57.81 11.95 41.6 7.1 25.34 C6.75 24.18 6.4 23.01 6.04 21.81 C5.71 20.69 5.37 19.57 5.03 18.41 C3.63 13.78 2.18 9.16 0.73 4.55 C0 2 0 2 0 0 Z " fill="#B6A4E8" transform="translate(869,835)"/>
<path d="M0 0 C13.86 0 27.72 0 42 0 C35.24 24.52 27.75 48.77 20 73 C11.09 73 2.18 73 -7 73 C-6.34 59.85 -5.18 46.79 -3.84 33.68 C-3.5 30.28 -3.16 26.88 -2.82 23.47 C-2.6 21.29 -2.38 19.11 -2.16 16.93 C-2.06 15.92 -1.95 14.91 -1.85 13.87 C-1.75 12.92 -1.66 11.98 -1.56 11 C-1.47 10.18 -1.39 9.35 -1.3 8.51 C-0.96 5.66 -0.47 2.83 0 0 Z " fill="#B7A5E9" transform="translate(113,836)"/>
<path d="M0 0 C10.97 0.71 20.57 3.43 30.64 7.69 C39.39 11.82 47.57 16.96 55.01 23.15 C55.01 23.81 55.01 24.47 55.01 25.15 C54.33 25.54 53.65 25.94 52.95 26.34 C47.89 29.46 44.19 33.65 40.48 38.25 C39.59 39.38 38.71 40.52 37.82 41.65 C37.2 42.45 37.2 42.45 36.56 43.27 C33.68 47.06 31.21 50.92 29.01 55.15 C29.01 56.14 29.01 57.13 29.01 58.15 C23.18 55.93 17.73 53 12.22 50.09 C10.97 49.43 9.71 48.78 8.45 48.13 C0.95 44.28 -5.73 40.13 -12.01 34.43 C-14.26 31.84 -15.61 29.29 -16.99 26.15 C-17.82 22.81 -18.06 19.6 -17.99 16.15 C-17.61 13.9 -17.06 12.06 -16.14 9.97 C-14.44 7.28 -12.35 5.38 -9.9 3.38 C-6.61 1.27 -3.93 0.2 0 0 Z " fill="#FEB467" transform="translate(764.98828125,376.84765625)"/>
<path d="M0 0 C8.25 0 16.5 0 25 0 C25 32.67 25 65.34 25 99 C16.75 99 8.5 99 0 99 C0 66.33 0 33.66 0 0 Z " fill="#FFB365" transform="translate(728,165)"/>
<path d="M0 0 C2.97 -0.38 2.97 -0.38 6.68 -0.38 C7.7 -0.39 7.7 -0.39 8.75 -0.4 C11.04 -0.41 13.33 -0.4 15.62 -0.39 C17.26 -0.39 18.9 -0.4 20.55 -0.4 C25.01 -0.42 29.47 -0.41 33.93 -0.4 C38.59 -0.4 43.25 -0.4 47.92 -0.41 C55.75 -0.41 63.58 -0.41 71.41 -0.39 C80.47 -0.37 89.53 -0.38 98.59 -0.4 C106.37 -0.41 114.14 -0.41 121.91 -0.4 C126.56 -0.4 131.2 -0.4 135.85 -0.41 C140.21 -0.42 144.58 -0.41 148.95 -0.39 C150.55 -0.39 152.16 -0.39 153.76 -0.4 C155.95 -0.41 158.13 -0.4 160.32 -0.38 C161.54 -0.38 162.77 -0.38 164.03 -0.38 C165.5 -0.19 165.5 -0.19 167 0 C167.94 0.66 167.94 0.66 168.89 1.34 C169.26 1.89 169.62 2.43 170 3 C170.38 6 170.38 6 170 9 C169.63 9.55 169.27 10.1 168.89 10.66 C168.27 11.1 167.64 11.55 167 12 C164.05 12.38 164.05 12.38 160.36 12.38 C159.69 12.39 159.01 12.39 158.31 12.4 C156.04 12.41 153.76 12.4 151.48 12.39 C149.86 12.39 148.23 12.4 146.6 12.4 C142.17 12.42 137.74 12.41 133.31 12.4 C128.68 12.4 124.04 12.4 119.41 12.41 C111.63 12.41 103.85 12.41 96.07 12.39 C87.07 12.37 78.07 12.38 69.08 12.4 C61.36 12.41 53.63 12.41 45.91 12.4 C41.3 12.4 36.69 12.4 32.07 12.41 C27.74 12.42 23.4 12.41 19.06 12.39 C17.47 12.39 15.87 12.39 14.28 12.4 C12.11 12.41 9.94 12.4 7.76 12.38 C5.94 12.38 5.94 12.38 4.08 12.38 C3.06 12.25 2.05 12.13 1 12 C-1.4 10.66 -1.4 10.66 -3 9 C-3.44 6 -3.44 6 -3 3 C-2.63 2.45 -2.27 1.9 -1.89 1.34 C-1.27 0.9 -0.64 0.45 0 0 Z " fill="#0C142C" transform="translate(439,931)"/>
<path d="M0 0 C0.66 0 1.32 0 2 0 C2 30.03 2 60.06 2 91 C-221.08 91 -444.16 91 -674 91 C-674 61.3 -674 31.6 -674 1 C-668.56 1.99 -668.56 1.99 -663 3 C-659.28 3.18 -655.64 3.29 -651.92 3.28 C-650.86 3.28 -649.8 3.29 -648.71 3.3 C-645.19 3.31 -641.68 3.32 -638.16 3.32 C-635.63 3.33 -633.09 3.34 -630.56 3.35 C-625.12 3.37 -619.68 3.39 -614.24 3.4 C-606.38 3.41 -598.51 3.44 -590.65 3.46 C-577.89 3.51 -565.13 3.55 -552.37 3.58 C-539.98 3.61 -527.59 3.64 -515.2 3.68 C-514.43 3.69 -513.67 3.69 -512.88 3.69 C-509.04 3.7 -505.21 3.71 -501.37 3.73 C-469.58 3.83 -437.79 3.92 -406 4 C-406.66 8.95 -407.32 13.9 -408 19 C-408.33 19 -408.66 19 -409 19 C-409 14.71 -409 10.42 -409 6 C-410.31 6 -411.62 5.99 -412.96 5.99 C-444.01 5.89 -475.05 5.78 -506.1 5.67 C-509.92 5.66 -513.74 5.64 -517.56 5.63 C-518.32 5.62 -519.08 5.62 -519.87 5.62 C-532.19 5.58 -544.5 5.53 -556.82 5.5 C-569.46 5.45 -582.1 5.41 -594.74 5.36 C-602.54 5.33 -610.34 5.31 -618.13 5.28 C-624.11 5.27 -630.1 5.24 -636.08 5.22 C-638.53 5.21 -640.98 5.2 -643.43 5.2 C-646.78 5.19 -650.13 5.17 -653.48 5.16 C-654.45 5.16 -655.42 5.16 -656.42 5.16 C-657.32 5.15 -658.23 5.14 -659.16 5.14 C-659.93 5.14 -660.7 5.13 -661.5 5.13 C-664.68 4.96 -667.84 4.45 -671 4 C-671 31.72 -671 59.44 -671 88 C-449.9 88 -228.8 88 -1 88 C-1 59.29 -1 30.58 -1 1 C-0.67 0.67 -0.34 0.34 0 0 Z " fill="#D1C1BE" transform="translate(847,732)"/>
<path d="M0 0 C3.06 0.25 3.06 0.25 6 1 C6.66 1.66 7.32 2.32 8 3 C8.5 5.03 8.92 7.07 9.31 9.12 C10.22 13.15 11.09 16.87 13.06 20.5 C14.31 22.41 14.31 22.41 16 24 C20.52 26.97 25.45 28.83 30.5 30.69 C31.65 31.12 32.81 31.55 34 32 C34.66 32.66 35.32 33.32 36 34 C35.81 37 35.81 37 35 40 C32 42 32 42 29.51 42.71 C28.58 42.93 27.65 43.15 26.69 43.38 C23.3 44.27 20.69 45.17 17.56 46.81 C15.36 48.7 13.41 50.42 11.86 52.89 C10.18 57.01 9.62 61.47 8.91 65.86 C8.61 66.89 8.31 67.93 8 69 C6.07 70.93 6.07 70.93 4 72 C1.44 71.88 1.44 71.88 -1 71 C-2.59 69.81 -2.59 69.81 -4 68 C-4.59 65.29 -4.59 65.29 -4.94 62.19 C-5.49 58.43 -6.01 55.99 -7.75 52.56 C-11.46 48.28 -11.46 48.28 -16 45 C-19.36 43.82 -22.73 42.82 -26.17 41.89 C-27.11 41.6 -28.04 41.3 -29 41 C-29.66 40.34 -30.32 39.68 -31 39 C-31.31 36.06 -31.31 36.06 -31 33 C-29.8 31.39 -29.8 31.39 -28 30 C-25.58 29.3 -25.58 29.3 -22.81 28.75 C-19.71 27.96 -17.31 27.2 -14.61 25.46 C-11.65 22.97 -9.35 20.52 -7.19 17.31 C-5.7 13.15 -4.75 8.93 -3.84 4.61 C-3.57 3.75 -3.29 2.89 -3 2 C-2.01 1.34 -1.02 0.68 0 0 Z " fill="#FFB466" transform="translate(757,868)"/>
<path d="M0 0 C2.5 -0.31 2.5 -0.31 5 0 C5.99 0.66 6.98 1.32 8 2 C8.81 5.05 8.81 5.05 9.44 8.75 C10.24 12.79 10.94 15.87 12.81 19.56 C16.51 23.76 16.51 23.76 21 27 C23.82 27.87 26.62 28.55 29.51 29.13 C30.33 29.42 31.15 29.7 32 30 C33.84 31.93 33.84 31.93 35 34 C34.88 36.56 34.88 36.56 34 39 C32.74 40.57 32.74 40.57 31 42 C28.8 42.7 28.8 42.7 26.31 43.25 C23.46 44.06 21.19 44.88 18.67 46.46 C16.56 48.19 14.75 49.9 13 52 C10.58 56.19 9.85 60.66 9 65.38 C8.81 66.62 8.81 66.62 8.62 67.9 C8.42 68.59 8.21 69.29 8 70 C7.01 70.66 6.02 71.32 5 72 C2.5 72.31 2.5 72.31 0 72 C-1.57 70.88 -1.57 70.88 -3 69 C-3.81 66.07 -3.81 66.07 -4.44 62.69 C-5.37 58.22 -5.37 58.22 -6.9 53.95 C-8.39 51.63 -10.18 49.83 -12.21 47.98 C-14.93 45.86 -14.93 45.86 -18.26 44.84 C-19.39 44.54 -20.52 44.24 -21.69 43.94 C-25.14 43.03 -25.14 43.03 -28 42 C-28.66 41.01 -29.32 40.02 -30 39 C-30.44 36 -30.44 36 -30 33 C-28.12 31.31 -28.12 31.31 -25 30 C-23.36 29.53 -21.71 29.07 -20.06 28.62 C-17.6 27.91 -15.4 27.22 -13.16 25.98 C-11.03 24.36 -9.34 22.49 -7.82 20.29 C-6.14 17.28 -5.11 14.52 -4.42 11.14 C-4.11 9.24 -3.83 7.33 -3.59 5.42 C-3.4 4.62 -3.2 3.82 -3 3 C-1.6 1.2 -1.6 1.2 0 0 Z " fill="#FFB366" transform="translate(324,126)"/>
<path d="M0 0 C2.71 0.46 5.36 0.91 8.01 1.62 C9 2.28 9.99 2.94 11.01 3.62 C11.01 6.75 11.01 6.75 10.75 8.67 C10.51 9.31 10.26 9.96 10.01 10.62 C7.07 13.54 3.71 15.77 0.01 17.62 C-0.41 20.41 -0.41 20.41 0.01 23.62 C2.47 26.55 4.83 28.5 8.01 30.62 C11.47 30.77 11.47 30.77 15.01 29.62 C16.68 27.62 18.35 25.62 20.01 23.62 C23.2 23.12 23.2 23.12 26.01 23.62 C27 24.61 27 24.61 28.01 25.62 C28.57 28.75 28.57 28.75 28.01 32.62 C26.04 35.71 23.72 38.17 21.01 40.62 C18.2 42.62 18.2 42.62 15.01 43.62 C11.61 44.02 8.4 44.03 5.01 43.62 C1.61 42.6 -1.38 40.98 -4.43 39.18 C-5.28 39 -6.12 38.81 -6.99 38.62 C-8.79 39.39 -8.79 39.39 -10.68 40.5 C-13.01 41.78 -14.82 42.59 -17.45 43.04 C-20.93 43.15 -23.94 42.96 -27.27 41.89 C-29.34 40.95 -31.14 39.95 -32.99 38.62 C-35.11 36.34 -36.61 34.39 -37.99 31.62 C-38.18 28.12 -38.18 28.12 -37.99 24.62 C-37.33 23.96 -36.67 23.3 -35.99 22.62 C-33.18 22.12 -33.18 22.12 -29.99 22.62 C-27.84 24.45 -26.61 26.24 -24.99 28.62 C-24.99 29.28 -24.99 29.94 -24.99 30.62 C-22.2 30.96 -22.2 30.96 -18.99 30.62 C-16.16 28.86 -16.16 28.86 -13.99 26.62 C-12.81 24.52 -12.81 24.52 -12.55 21.5 C-12.7 20.22 -12.84 18.94 -12.99 17.62 C-14.38 15.46 -15.95 13.53 -17.58 11.54 C-18.99 9.62 -18.99 9.62 -20.05 6.31 C-20.03 5.42 -20.01 4.53 -19.99 3.62 C-19.6 3.02 -19.21 2.42 -18.8 1.81 C-16.99 0.62 -16.99 0.62 -15.16 0.06 C-10.16 -0.95 -5.04 -0.64 0 0 Z " fill="#0E152D" transform="translate(552.9921875,518.37890625)"/>
<path d="M0 0 C5.94 0 11.88 0 18 0 C18 26.07 18 52.14 18 79 C12.06 79 6.12 79 0 79 C0 52.93 0 26.86 0 0 Z " fill="#B5A2E9" transform="translate(766,185)"/>
<path d="M0 0 C2.14 -0.38 2.14 -0.38 4.67 -0.38 C5.63 -0.39 6.59 -0.4 7.57 -0.41 C8.63 -0.4 9.68 -0.39 10.76 -0.39 C12.42 -0.4 12.42 -0.4 14.11 -0.4 C17.78 -0.42 21.45 -0.41 25.12 -0.4 C27.67 -0.4 30.21 -0.4 32.76 -0.41 C38.09 -0.41 43.43 -0.41 48.77 -0.39 C54.94 -0.37 61.11 -0.38 67.28 -0.4 C73.21 -0.41 79.15 -0.41 85.08 -0.4 C87.61 -0.4 90.14 -0.4 92.66 -0.41 C96.19 -0.42 99.72 -0.4 103.24 -0.39 C104.29 -0.39 105.34 -0.4 106.43 -0.41 C107.38 -0.4 108.34 -0.39 109.33 -0.38 C110.17 -0.38 111 -0.38 111.86 -0.38 C112.92 -0.19 112.92 -0.19 114 0 C115.8 1.3 115.8 1.3 117 3 C116.88 6.56 116.88 6.56 116 10 C115.01 10.66 114.02 11.32 113 12 C110.89 12.26 110.89 12.26 108.41 12.27 C107.47 12.28 106.53 12.28 105.56 12.29 C104.02 12.29 104.02 12.29 102.44 12.29 C101.36 12.3 100.27 12.3 99.15 12.31 C95.55 12.33 91.95 12.33 88.35 12.34 C85.85 12.34 83.35 12.35 80.86 12.36 C75.62 12.37 70.38 12.37 65.14 12.37 C59.09 12.37 53.03 12.39 46.98 12.42 C41.16 12.45 35.33 12.46 29.51 12.46 C27.03 12.46 24.55 12.47 22.07 12.48 C18.61 12.5 15.15 12.5 11.69 12.49 C10.66 12.5 9.63 12.51 8.57 12.52 C5.99 12.5 3.55 12.43 1 12 C0.13 11.38 -0.74 10.77 -1.64 10.13 C-2.09 9.43 -2.54 8.72 -3 8 C-3.44 5.44 -3.44 5.44 -3 3 C-1.76 1.37 -1.76 1.37 0 0 Z " fill="#0C142C" transform="translate(199,920)"/>
<path d="M0 0 C6.16 0.7 11.41 2.44 17 5.12 C24.84 9.14 31.52 14.23 37.62 20.56 C42.39 26.33 46.19 33.07 49 40 C50.44 44.58 51.3 49.26 52 54 C45.17 53.34 38.5 52.28 32 50 C25.63 46.8 19.77 43.01 14.56 38.12 C9.86 33.04 6.48 27.48 3.78 21.12 C1.23 14.12 0.26 7.43 0 0 Z " fill="#FCDE9A" transform="translate(141,103)"/>
<path d="M0 0 C0.33 0 0.66 0 1 0 C1.1 4.02 1.17 8.04 1.22 12.06 C1.24 13.43 1.27 14.79 1.3 16.16 C1.35 18.13 1.37 20.1 1.39 22.07 C1.41 23.25 1.43 24.44 1.45 25.66 C1 29 1 29 -0.4 32.18 C-3 35 -3 35 -5.06 36.13 C-9.47 37.98 -13.42 39.25 -18.21 39.49 C-20.1 39.51 -21.99 39.5 -23.88 39.48 C-24.93 39.48 -25.98 39.49 -27.06 39.49 C-30.56 39.5 -34.05 39.48 -37.54 39.45 C-40.06 39.45 -42.57 39.45 -45.08 39.46 C-50.48 39.46 -55.88 39.45 -61.28 39.42 C-69.09 39.39 -76.89 39.38 -84.7 39.37 C-97.37 39.37 -110.04 39.34 -122.7 39.3 C-135 39.27 -147.3 39.24 -159.6 39.22 C-160.36 39.22 -161.12 39.22 -161.9 39.22 C-165.71 39.21 -169.52 39.21 -173.33 39.2 C-204.88 39.16 -236.44 39.09 -268 39 C-265.69 36.94 -265.69 36.94 -263 35 C-262.01 35.33 -261.02 35.66 -260 36 C-260 36.33 -260 36.66 -260 37 C-229.31 37 -198.62 37 -167 37 C-168.32 35.68 -169.64 34.36 -171 33 C-168.31 33.47 -165.89 34.04 -163.34 35.03 C-159.39 36.18 -155.74 36.24 -151.67 36.17 C-150.44 36.16 -150.44 36.16 -149.19 36.15 C-146.5 36.12 -143.81 36.09 -141.12 36.05 C-139.23 36.03 -137.34 36.01 -135.45 35.99 C-131.47 35.94 -127.5 35.89 -123.53 35.83 C-118.5 35.76 -113.47 35.71 -108.44 35.66 C-104.53 35.62 -100.61 35.57 -96.7 35.52 C-94.85 35.5 -93 35.48 -91.15 35.46 C-81.32 35.36 -71.57 35 -61.78 34.1 C-60.94 34.03 -60.1 33.95 -59.23 33.87 C-49.05 32.85 -39.23 30.44 -29.9 26.21 C-22.89 22.8 -16.79 18.67 -11.16 13.24 C-7.11 9.04 -3.24 4.86 0 0 Z " fill="#FDC0C4" transform="translate(848,684)"/>
<path d="M0 0 C-0.28 7.02 -1.33 13.39 -3.71 20.02 C-6.61 26.73 -10.6 32.71 -15.44 38.19 C-20.7 43.18 -27.4 46.3 -33.98 49.21 C-37.86 50.73 -41.87 51.88 -46.05 52.12 C-47.7 52.12 -49.35 52.07 -51 52 C-49.28 42.52 -45.87 34.16 -41.13 25.82 C-38.34 21.33 -34.81 17.63 -31 14 C-30.43 13.42 -29.85 12.84 -29.26 12.24 C-26.09 9.23 -22.75 7.22 -18.81 5.31 C-13.2 2.9 -6.2 0 0 0 Z " fill="#FDDA91" transform="translate(257,104)"/>
<path d="M0 0 C0.99 0.66 1.98 1.32 3 2 C5.83 2.47 8.59 2.84 11.44 3.12 C12.24 3.21 13.04 3.29 13.87 3.38 C23.43 4.38 23.43 4.38 33 4 C33.66 3.34 34.32 2.68 35 2 C34.66 8.69 33.16 14.31 30.66 20.52 C26.62 29 21.31 37.03 15 44 C14.34 44 13.68 44 13 44 C11.96 42.46 10.99 40.86 10.06 39.25 C6.79 33.89 3.03 29.51 -1.36 25.06 C-2.62 23.75 -3.81 22.38 -5 21 C-5.72 19.09 -5.72 19.09 -6 17 C-5.56 14.99 -5.56 14.99 -4.79 12.89 C-4.51 12.14 -4.24 11.38 -3.96 10.61 C-3.51 9.44 -3.51 9.44 -3.06 8.25 C-2.77 7.46 -2.48 6.66 -2.18 5.85 C-1.46 3.89 -0.73 1.95 0 0 Z " fill="#FDB468" transform="translate(829,515)"/>
<path d="M0 0 C2 2 2 2 3.51 5.1 C4.1 6.44 4.69 7.78 5.27 9.12 C5.59 9.85 5.91 10.57 6.24 11.32 C7.29 13.69 8.33 16.06 9.38 18.44 C10.09 20.07 10.81 21.7 11.53 23.33 C12.99 26.62 14.44 29.92 15.89 33.22 C17.82 37.61 19.77 41.99 21.73 46.36 C22.01 46.99 22.29 47.63 22.58 48.28 C23.9 51.23 25.22 54.18 26.54 57.14 C27 58.17 27.46 59.2 27.94 60.26 C28.34 61.16 28.74 62.06 29.15 62.98 C29.43 63.65 29.71 64.31 30 65 C30 65.33 30 65.66 30 66 C20.1 66 10.2 66 0 66 C0 44.22 0 22.44 0 0 Z " fill="#B7A5E9" transform="translate(585,198)"/>
<path d="M0 0 C5.61 0 11.22 0 17 0 C16.67 0.99 16.34 1.98 16 3 C15.81 5.1 15.62 7.2 15.46 9.31 C14.78 17.75 13.62 25.99 11.75 34.25 C11.57 35.11 11.39 35.96 11.2 36.84 C10.38 40.29 9.44 43.25 7.63 46.31 C6.17 48.36 4.78 50.23 3 52 C0.94 53.25 0.94 53.25 -1 54 C-1.7 53.86 -2.4 53.71 -3.12 53.56 C-3.74 53.05 -4.36 52.53 -5 52 C-6.85 46.65 -7.37 41.84 -7.38 36.21 C-7.16 25.06 -4.89 13.97 -3 3 C-2.01 2.67 -1.02 2.34 0 2 C0 1.34 0 0.68 0 0 Z " fill="#F48D42" transform="translate(559,426)"/>
<path d="M0 0 C2.61 0.71 2.61 0.71 4.97 2.2 C7.64 4.47 9.92 6.62 11.8 9.6 C12.61 11.71 12.61 11.71 12.95 14.29 C12.99 17.14 12.94 19.87 12.61 22.71 C10.92 26.14 10.92 26.14 8.61 28.71 C6.05 31.02 6.05 31.02 3.61 32.71 C0.2 33.84 -2.55 33.98 -6.11 33.92 C-8.39 33.71 -8.39 33.71 -11.64 32.58 C-15.01 30.28 -16.96 27.98 -19.39 24.71 C-19.72 24.05 -20.05 23.39 -20.39 22.71 C-20.76 19.01 -20.76 15.41 -20.39 11.71 C-19.41 8.79 -18.3 7.23 -16.39 4.71 C-13.89 2.33 -13.89 2.33 -11.39 0.71 C-7.51 -0.55 -4.02 -0.45 0 0 Z " fill="#B5A2E9" transform="translate(101.390625,170.29296875)"/>
<path d="M0 0 C7.11 1.57 13.38 4.86 19.62 8.5 C24.15 11.49 28.06 14.68 31.61 18.8 C33.21 20.99 34.52 23.02 35.62 25.5 C35.67 26.57 35.71 27.64 35.75 28.75 C34.62 31.5 34.62 31.5 33 34.44 C32.22 35.12 31.43 35.8 30.62 36.5 C27.32 36.41 27.32 36.41 23.62 35.5 C20.84 33.53 20.84 33.53 18.12 31 C8.23 22.2 -3.47 16.15 -15.38 10.5 C-15.38 9.18 -15.38 7.86 -15.38 6.5 C-13.98 4.83 -13.98 4.83 -12.12 3.31 C-11.52 2.8 -10.92 2.29 -10.3 1.77 C-8.38 0.5 -8.38 0.5 -6.41 -0.21 C-4.09 -0.54 -2.31 -0.41 0 0 Z " fill="#F48E42" transform="translate(558.375,650.5)"/>
<path d="M0 0 C2.7 -0.25 5.24 -0.37 7.94 -0.38 C8.65 -0.4 9.37 -0.42 10.11 -0.45 C12.21 -0.46 12.21 -0.46 16 0 C16.77 0.5 17.54 1.01 18.34 1.52 C20.55 4.81 21.65 8.22 22.69 12 C22.9 12.76 23.11 13.51 23.33 14.29 C25.46 22.14 26.37 29.75 25.75 37.88 C25.35 40.68 24.72 42.73 23.69 45.44 C22 48 22 48 20.19 49.44 C18 50 18 50 14.94 50.06 C13.48 49.54 13.48 49.54 12 49 C8.72 43.02 7.9 36.66 6.75 30 C4.86 19.74 2.13 11.1 -3 2 C-2.01 1.34 -1.02 0.68 0 0 Z " fill="#F48E42" transform="translate(727,511)"/>
<path d="M0 0 C1.95 0.25 1.95 0.25 3.94 0.5 C9.53 3.44 14.31 7.82 19 12 C19.69 12.6 20.37 13.21 21.08 13.83 C24.89 17.38 27.73 21.16 30.12 25.79 C31 28 31 28 31.56 31.81 C31.28 33.39 31.28 33.39 31 35 C30.46 35.78 29.93 36.57 29.38 37.38 C27 39 27 39 24.06 40.06 C23.05 40.04 22.04 40.02 21 40 C17.35 36.71 14.26 32.97 11.06 29.25 C5.25 22.69 -1.49 18.4 -9 14 C-9.99 13.34 -10.98 12.68 -12 12 C-11.29 9.75 -11.29 9.75 -10 7 C-7.71 4.69 -5.37 3 -2.64 1.22 C-1.77 0.82 -0.9 0.41 0 0 Z " fill="#F48E42" transform="translate(521,673)"/>
<path d="M0 0 C1.35 0.62 2.69 1.29 4 2 C3.32 14.63 2.42 26.68 -1.49 38.76 C-3.25 42.53 -5.16 44.96 -8 48 C-9.02 48.5 -9.02 48.5 -10.06 49 C-12 49 -12 49 -14.19 48.25 C-15.08 47.63 -15.08 47.63 -16 47 C-17.51 42.46 -17.19 37.95 -17.19 33.19 C-17.19 32.15 -17.19 31.12 -17.19 30.05 C-17.12 21.32 -16.87 12.54 -14.05 4.2 C-13.71 3.47 -13.36 2.75 -13 2 C-11 1 -11 1 -8.54 0.61 C-7.58 0.51 -6.62 0.41 -5.62 0.31 C-4.67 0.21 -3.71 0.1 -2.73 -0.01 C-1.83 -0.01 -0.93 -0 0 0 Z " fill="#F58E42" transform="translate(544,428)"/>
<path d="M0 0 C1.75 0.28 3.5 0.58 5.25 0.88 C6.71 1.12 6.71 1.12 8.2 1.37 C10.77 1.95 12.72 2.71 15 4 C14.85 12.43 13.7 20.27 11.69 28.44 C11.49 29.28 11.29 30.12 11.08 30.98 C9.73 36.23 7.91 40.42 5 45 C3.62 46.88 3.62 46.88 2 48 C-1.19 48.69 -1.19 48.69 -4 49 C-5.56 46.65 -6.89 44.57 -8 42 C-8.16 38.48 -8.16 38.48 -7.62 34.62 C-7.48 33.57 -7.48 33.57 -7.33 32.5 C-5.67 21.52 -2.75 10.74 0 0 Z " fill="#F58E42" transform="translate(586,426)"/>
<path d="M0 0 C1.95 0.25 1.95 0.25 3.94 0.5 C7.24 2.22 9.56 4.14 12.25 6.69 C13.94 9.5 13.94 9.5 14.51 11.61 C14.88 13.97 15.04 16.12 14.94 18.5 C13.88 21.75 13.88 21.75 11.94 24.5 C10.03 26.42 8.15 27.89 5.94 29.5 C2.94 30.5 2.94 30.5 -0.31 30.81 C-4.06 30.5 -4.06 30.5 -5.93 29.85 C-7.85 28.89 -9.42 27.88 -11.06 26.5 C-12.45 24.85 -13.45 23.29 -14.4 21.35 C-15.06 19.5 -15.06 19.5 -15.56 16.06 C-15.14 13.08 -14.66 11.03 -13.5 8.31 C-12.34 6.22 -11.29 4.71 -9.52 3.11 C-6.46 1.12 -3.64 0.22 0 0 Z " fill="#B5A2E9" transform="translate(412.0625,398.5)"/>
<path d="M0 0 C0.66 0.66 1.32 1.32 2 2 C3.18 4.64 3.18 4.64 4.31 7.81 C4.89 9.37 4.89 9.37 5.49 10.96 C5.74 12.46 5.74 12.46 6 14 C5.56 15.32 5.56 15.32 5.11 16.67 C3 19 3 19 1.33 19.96 C-0.75 20.9 -2.86 21.71 -5 22.5 C-6.54 23.09 -8.07 23.69 -9.61 24.29 C-10.35 24.58 -11.1 24.86 -11.88 25.16 C-15.59 26.63 -19.19 28.34 -22.8 30.05 C-24.86 30.94 -26.81 31.53 -29 32 C-29.81 29.9 -30.63 27.79 -31.44 25.69 C-31.89 24.52 -32.34 23.34 -32.81 22.14 C-33.58 20.11 -34.31 18.06 -35 16 C-31.4 12.73 -27.79 10.86 -23.36 9.01 C-22.54 8.67 -21.72 8.34 -20.88 8 C-20.03 7.65 -19.19 7.31 -18.32 6.95 C-12.28 4.47 -6.19 2.11 0 0 Z " fill="#F48E43" transform="translate(855,447)"/>
<path d="M0 0 C1.72 1.11 1.72 1.11 3.5 2.75 C4.09 3.28 4.68 3.81 5.28 4.36 C5.85 4.9 6.42 5.44 7 6 C7.88 6.72 7.88 6.72 8.78 7.45 C9.18 7.96 9.59 8.47 10 9 C9.99 9.62 9.98 10.23 9.97 10.87 C8.63 13.81 6.73 15.73 4.5 18.06 C0.91 21.89 -2.48 25.76 -5.75 29.88 C-8.9 33.78 -11.98 37.01 -16 40 C-16.56 39.71 -17.11 39.42 -17.69 39.12 C-20 37.93 -20 37.93 -22.62 37.19 C-23.41 36.8 -24.19 36.4 -25 36 C-26.32 33.74 -26.32 33.74 -27 31 C-23.95 23.18 -17.21 16.36 -11.75 10.04 C-8.94 6.89 -6.07 3.89 -3 1 C-2.01 0.67 -1.02 0.34 0 0 Z " fill="#F48E42" transform="translate(820,401)"/>
<path d="M0 0 C4.22 1.36 8.29 2.9 12.38 4.62 C13.96 5.29 13.96 5.29 15.59 5.98 C16.38 6.31 17.18 6.65 18 7 C18.91 12.73 18.97 17.7 18.19 23.44 C18.04 24.55 18.04 24.55 17.9 25.68 C17.21 30.88 16.48 35.97 15 41 C13.64 42.66 13.64 42.66 12 44 C8.62 45 8.62 45 5 45 C2.3 42.95 2.3 42.95 0 40 C-0.55 36.61 -0.55 36.61 -0.45 32.76 C-0.44 31.73 -0.44 31.73 -0.42 30.68 C-0.39 28.49 -0.32 26.31 -0.25 24.12 C-0.2 21.95 -0.16 19.77 -0.12 17.59 C-0.08 15.61 -0.02 13.63 0.03 11.65 C0 8.01 -0.49 4.6 -1 1 C-0.67 0.67 -0.34 0.34 0 0 Z " fill="#F58E42" transform="translate(780,523)"/>
<path d="M0 0 C26.2 -0.23 26.2 -0.23 35 1 C35.66 1.33 36.32 1.66 37 2 C36.75 4.63 36.47 7.25 36.19 9.88 C36.12 10.62 36.05 11.37 35.97 12.14 C35.75 14.11 35.38 16.06 35 18 C34.01 18.66 33.02 19.32 32 20 C24.89 20.83 17.53 19.89 10.44 19.19 C9.26 19.08 9.26 19.08 8.06 18.98 C6.02 18.75 4.01 18.39 2 18 C0.27 16.68 0.27 16.68 -1 15 C-1.06 12.33 -0.97 9.95 -0.69 7.31 C-0.63 6.61 -0.57 5.91 -0.5 5.19 C-0.35 3.46 -0.18 1.73 0 0 Z " fill="#F48E43" transform="translate(830,500)"/>
<path d="M0 0 C2.69 -0.44 2.69 -0.44 5 0 C5.66 0.66 6.32 1.32 7 2 C7.44 5.16 7.44 5.16 7 9 C5.63 11.72 3.87 14.04 2 16.44 C1.52 17.07 1.05 17.71 0.55 18.37 C-0.62 19.92 -1.81 21.46 -3 23 C0.97 26.19 4.98 29.31 9.01 32.41 C11 34 11 34 13 36 C13.31 38.44 13.31 38.44 13 41 C12.47 41.93 12.47 41.93 11.94 42.88 C11.3 43.25 10.66 43.62 10 44 C7.35 43.95 5.5 43.76 3 43 C-0.26 41.28 -3.24 39.23 -6.25 37.12 C-7.05 36.58 -7.85 36.04 -8.68 35.48 C-15.9 30.54 -15.9 30.54 -18 28 C-18.05 24.82 -18.05 24.82 -17 21 C-15.33 18.09 -13.33 15.5 -11.25 12.88 C-10.72 12.19 -10.2 11.5 -9.66 10.79 C-6.67 6.92 -3.65 3.26 0 0 Z " fill="#0E152D" transform="translate(640,407)"/>
<path d="M0 0 C0.74 -0.16 1.48 -0.32 2.24 -0.48 C3.61 -0.24 3.61 -0.24 5 0 C7.23 1.97 9.07 3.83 11 6.06 C11.51 6.62 12.02 7.19 12.54 7.76 C14.07 9.48 15.54 11.23 17 13 C17.75 13.9 17.75 13.9 18.52 14.82 C19.94 16.62 19.94 16.62 22 20 C22 21.36 22 21.36 22 22.74 C21 25 21 25 19.71 26.63 C14.93 30.65 9.91 34.33 4.81 37.94 C4.12 38.43 3.43 38.93 2.72 39.44 C0.85 40.74 -0.98 41.94 -3 43 C-4.42 43.25 -4.42 43.25 -5.86 43.5 C-6.57 43.34 -7.27 43.17 -8 43 C-8.66 42.01 -9.32 41.02 -10 40 C-10.06 36.68 -10.06 36.68 -9 33 C-6.96 30.63 -4.6 28.88 -2.06 27.06 C-1.42 26.57 -0.77 26.08 -0.1 25.57 C1.56 24.32 3.28 23.16 5 22 C5.66 22 6.32 22 7 22 C6.36 21.2 5.72 20.41 5.07 19.59 C4.23 18.52 3.4 17.45 2.56 16.38 C2.14 15.85 1.72 15.33 1.29 14.79 C0.1 13.26 -0.95 11.63 -2 10 C-2.86 6.75 -2.86 6.75 -3 4 C-2.63 3.22 -2.26 2.43 -1.88 1.62 C-1.26 1.09 -0.64 0.55 0 0 Z " fill="#0E152D" transform="translate(492,414)"/>
<path d="M0 0 C0.68 0.16 1.36 0.33 2.06 0.5 C2.7 1 3.34 1.49 4 2 C4.93 2.72 5.87 3.43 6.83 4.17 C10.18 6.97 12.41 10.12 14.69 13.81 C15.07 14.43 15.46 15.05 15.86 15.69 C18.54 20.06 20.76 24.02 22 29 C22 30.09 22 31.19 22 32.31 C21.67 33.2 21.34 34.09 21 35 C18.44 36.88 18.44 36.88 16 38 C13.25 36.5 11.04 35.04 8.79 32.84 C1.55 24.6 -5.05 16.21 -11 7 C-9.68 6.34 -8.36 5.68 -7 5 C-7 4.34 -7 3.68 -7 3 C-3.75 1.38 -3.75 1.38 0 0 Z " fill="#F58E42" transform="translate(448,603)"/>
<path d="M0 0 C2.69 0.47 5.11 1.04 7.66 2.03 C11.61 3.18 15.25 3.23 19.32 3.15 C20.13 3.14 20.95 3.14 21.79 3.13 C24.47 3.1 27.16 3.06 29.84 3.01 C31.73 2.99 33.62 2.97 35.51 2.94 C39.48 2.89 43.45 2.84 47.41 2.78 C52.43 2.7 57.45 2.64 62.47 2.58 C66.38 2.53 70.3 2.48 74.21 2.42 C76.05 2.4 77.9 2.38 79.75 2.35 C93.18 2.17 106.58 1.68 120 1 C120 1.33 120 1.66 120 2 C118.02 2.33 116.04 2.66 114 3 C114 3.33 114 3.66 114 4 C119.67 4.02 125.35 4.04 131.02 4.05 C132.95 4.06 134.88 4.07 136.8 4.08 C139.59 4.09 142.37 4.09 145.15 4.1 C146.43 4.11 146.43 4.11 147.73 4.11 C153.23 4.11 158.54 3.69 164 3 C163.34 3.66 162.68 4.32 162 5 C159.14 5.96 156.52 6.12 153.53 6.12 C152.63 6.13 151.73 6.13 150.81 6.13 C149.83 6.13 148.85 6.12 147.84 6.12 C146.79 6.12 145.75 6.12 144.67 6.12 C141.16 6.12 137.65 6.12 134.14 6.11 C131.62 6.11 129.11 6.11 126.6 6.11 C121.18 6.11 115.77 6.11 110.35 6.11 C102.52 6.1 94.69 6.09 86.86 6.09 C74.16 6.09 61.45 6.08 48.75 6.08 C36.41 6.07 24.07 6.06 11.73 6.05 C10.59 6.05 10.59 6.05 9.42 6.05 C5.61 6.05 1.79 6.05 -2.02 6.05 C-33.68 6.04 -65.34 6.02 -97 6 C-94.69 3.94 -94.69 3.94 -92 2 C-91.01 2.33 -90.02 2.66 -89 3 C-89 3.33 -89 3.66 -89 4 C-58.31 4 -27.62 4 4 4 C2.68 2.68 1.36 1.36 0 0 Z " fill="#FDF3E6" transform="translate(677,717)"/>
<path d="M0 0 C0.27 0.64 0.54 1.28 0.81 1.94 C1.2 2.62 1.6 3.3 2 4 C2.99 4.33 3.98 4.66 5 5 C7.48 8.36 9.31 12.15 10.77 16.06 C11.97 20.35 12.26 24.58 12.36 29.02 C12.24 29.67 12.12 30.33 12 31 C10.69 32.75 10.69 32.75 9 34 C7.91 34.08 6.81 34.16 5.69 34.25 C4.47 33.84 3.25 33.42 2 33 C-4.41 26.54 -8.15 16.17 -12 8 C-12.33 7.01 -12.66 6.02 -13 5 C-11.71 3.62 -10.37 2.29 -9 1 C-5.8 -0.07 -3.34 -0.07 0 0 Z " fill="#F58E42" transform="translate(415,618)"/>
<path d="M0 0 C1.03 0.14 2.06 0.29 3.12 0.44 C5.46 1.9 7.13 3.48 9.12 5.44 C9.45 6.1 9.79 6.76 10.12 7.44 C10.49 11.47 10.52 15.41 10.12 19.44 C9.26 20.98 9.26 20.98 8.38 22.56 C7.04 23.67 5.69 24.76 4.31 25.81 C2.12 26.44 2.12 26.44 -1.31 26.31 C-4.88 25.44 -4.88 25.44 -7.69 23.69 C-9.88 21.44 -9.88 21.44 -11.25 19.25 C-11.84 16.58 -11.93 14.64 -11.75 11.94 C-11.42 9.59 -11.42 9.59 -10.88 7.44 C-9.06 4.5 -9.06 4.5 -6.88 2.44 C-4.51 0.78 -2.87 0.44 0 0 Z " fill="#0D152D" transform="translate(501.875,496.5625)"/>
<path d="M0 0 C10.56 0 21.12 0 32 0 C32 38.61 32 77.22 32 117 C21.44 117 10.88 117 0 117 C0 78.39 0 39.78 0 0 Z M3 2 C2.67 2.33 2.34 2.66 2 3 C1.9 4.45 1.87 5.91 1.87 7.37 C1.87 8.31 1.87 9.25 1.86 10.22 C1.87 11.26 1.87 12.31 1.87 13.38 C1.87 14.47 1.87 15.56 1.87 16.68 C1.86 20.31 1.86 23.94 1.87 27.56 C1.87 30.07 1.87 32.58 1.86 35.08 C1.86 40.35 1.86 45.61 1.87 50.87 C1.88 56.96 1.87 63.06 1.87 69.15 C1.86 75 1.86 80.85 1.87 86.7 C1.87 89.19 1.87 91.69 1.86 94.18 C1.86 97.66 1.87 101.14 1.87 104.62 C1.87 105.66 1.87 106.71 1.86 107.78 C1.87 108.72 1.87 109.66 1.87 110.63 C1.87 111.46 1.87 112.28 1.87 113.13 C1.92 113.75 1.96 114.36 2 115 C2.33 115.33 2.66 115.66 3 116 C4.99 116.1 6.98 116.13 8.97 116.13 C10.18 116.13 11.39 116.14 12.64 116.14 C14.55 116.13 14.55 116.13 16.5 116.12 C17.77 116.13 19.05 116.13 20.36 116.14 C21.57 116.14 22.78 116.13 24.03 116.13 C25.15 116.13 26.27 116.13 27.42 116.13 C28.27 116.09 29.12 116.04 30 116 C30.33 115.67 30.66 115.34 31 115 C31.1 113.55 31.13 112.09 31.13 110.63 C31.13 109.22 31.13 109.22 31.14 107.78 C31.13 106.74 31.13 105.69 31.13 104.62 C31.13 103.53 31.13 102.44 31.13 101.32 C31.14 97.69 31.14 94.06 31.13 90.44 C31.13 87.93 31.13 85.42 31.14 82.92 C31.14 77.65 31.14 72.39 31.13 67.13 C31.12 61.04 31.13 54.94 31.13 48.85 C31.14 43 31.14 37.15 31.13 31.3 C31.13 28.81 31.13 26.31 31.14 23.82 C31.14 20.34 31.13 16.86 31.13 13.38 C31.13 12.34 31.13 11.29 31.14 10.22 C31.13 9.28 31.13 8.34 31.13 7.37 C31.13 6.13 31.13 6.13 31.13 4.87 C31.08 4.25 31.04 3.64 31 3 C30.67 2.67 30.34 2.34 30 2 C28.01 1.9 26.02 1.87 24.03 1.87 C22.22 1.87 22.22 1.87 20.36 1.86 C19.09 1.87 17.81 1.87 16.5 1.88 C15.23 1.87 13.95 1.87 12.64 1.86 C11.43 1.86 10.22 1.87 8.97 1.87 C7.85 1.87 6.73 1.87 5.58 1.87 C4.73 1.91 3.88 1.96 3 2 Z " fill="#FBC57A" transform="translate(540,147)"/>
<path d="M0 0 C2.94 -0.28 5.14 -0.45 8 0 C10.88 1.69 10.88 1.69 13 4 C14.38 6.19 14.38 6.19 15 9 C15.16 12.17 14.88 14.95 14 18 C12.81 20.25 11.58 21.92 9.81 23.74 C8 25 8 25 6 25.57 C3.94 25.69 3.94 25.69 0 25 C-2.88 23.25 -2.88 23.25 -5 21 C-6.11 19.13 -6.11 19.13 -7 17 C-7.48 13.95 -7.44 11.06 -7 8 C-5.19 4.56 -5.19 4.56 -3 2 C-2.01 1.34 -1.02 0.68 0 0 Z " fill="#0E152D" transform="translate(596,499)"/>
<path d="M0 0 C2.39 -0.08 4.64 -0.06 7.01 0.24 C9.95 1.99 9.95 1.99 12.01 4.24 C13.32 6.11 13.32 6.11 14.01 8.24 C14.39 11.11 14.39 11.11 14.01 14.24 C12.2 17.49 12.2 17.49 10.01 20.24 C9.02 20.9 8.03 21.56 7.01 22.24 C4.73 22.65 2.63 22.67 0.3 22.63 C-1.99 22.24 -1.99 22.24 -3.88 21.19 C-5.49 19.86 -5.49 19.86 -7.99 17.24 C-8.32 16.58 -8.65 15.92 -8.99 15.24 C-9.28 12.3 -9.48 10.1 -8.99 7.24 C-7.57 4.77 -6.06 3.26 -3.99 1.24 C-1.99 0.24 -1.99 0.24 0 0 Z " fill="#B5A2E9" transform="translate(741.98828125,462.76171875)"/>
<path d="M0 0 C0.33 0 0.66 0 1 0 C1 36.3 1 72.6 1 110 C9.25 110.66 17.5 111.32 26 112 C25.56 105.94 25.1 99.88 24.49 93.84 C23.36 82.51 22.73 71.38 23 60 C23.33 60 23.66 60 24 60 C24.12 61.49 24.12 61.49 24.24 63 C26.33 89.03 26.33 89.03 29 115 C28.3 114.84 27.6 114.68 26.89 114.52 C23.83 113.97 20.92 113.79 17.82 113.68 C16.67 113.64 15.51 113.6 14.32 113.56 C13.12 113.52 11.92 113.48 10.69 113.44 C9.47 113.39 8.25 113.35 7 113.31 C4 113.2 1 113.1 -2 113 C-2.05 100.48 -2.08 87.96 -2.1 75.44 C-2.11 69.63 -2.13 63.82 -2.15 58 C-2.17 52.38 -2.18 46.76 -2.19 41.14 C-2.19 39 -2.2 36.87 -2.21 34.74 C-2.27 22.97 -2.02 11.61 0 0 Z " fill="#FCDDD7" transform="translate(102,407)"/>
<path d="M0 0 C9.24 0 18.48 0 28 0 C28 38.61 28 77.22 28 117 C27.67 117 27.34 117 27 117 C26.67 79.38 26.34 41.76 26 3 C18.08 3 10.16 3 2 3 C1.67 40.62 1.34 78.24 1 117 C0.67 117 0.34 117 0 117 C0 78.39 0 39.78 0 0 Z " fill="#D7DBFB" transform="translate(688,147)"/>
<path d="M0 0 C8.25 0 16.5 0 25 0 C24.67 1.65 24.34 3.3 24 5 C23.34 4.34 22.68 3.68 22 3 C15.73 3 9.46 3 3 3 C3 34.02 3 65.04 3 97 C9.93 97 16.86 97 24 97 C24.5 97.99 24.5 97.99 25 99 C16.75 99 8.5 99 0 99 C0 66.33 0 33.66 0 0 Z " fill="#CCB08D" transform="translate(728,165)"/>
<path d="M0 0 C1.97 -0.48 1.97 -0.48 4.06 -0.62 C5.36 -0.42 6.66 -0.21 8 0 C8.83 0.68 9.65 1.36 10.5 2.06 C12 5 12 5 12.5 8.5 C12.34 9.65 12.17 10.81 12 12 C11.48 12.95 10.97 13.9 10.44 14.88 C9.23 15.93 9.23 15.93 8 17 C4.56 18.06 4.56 18.06 1 18 C-1.88 16.19 -1.88 16.19 -4 14 C-4.33 13.34 -4.66 12.68 -5 12 C-5.38 8.69 -5.38 8.69 -5 5 C-4.34 4.03 -3.68 3.06 -3 2.06 C-1.51 1.04 -1.51 1.04 0 0 Z " fill="#B5A2E6" transform="translate(805,599)"/>
<path d="M0 0 C5.94 0 11.88 0 18 0 C18 26.07 18 52.14 18 79 C12.06 79 6.12 79 0 79 C0 52.93 0 26.86 0 0 Z M2 2 C1.67 2.33 1.34 2.66 1 3 C0.9 5.26 0.87 7.53 0.87 9.8 C0.87 10.51 0.87 11.22 0.87 11.95 C0.86 14.31 0.86 16.67 0.87 19.03 C0.87 20.66 0.87 22.3 0.86 23.93 C0.86 27.36 0.86 30.78 0.87 34.21 C0.88 38.61 0.87 43.01 0.87 47.42 C0.86 50.79 0.86 54.16 0.87 57.53 C0.87 59.16 0.87 60.78 0.86 62.41 C0.86 64.67 0.87 66.94 0.87 69.2 C0.87 70.49 0.87 71.78 0.87 73.12 C0.91 74.07 0.96 75.02 1 76 C1.33 76.33 1.66 76.66 2 77 C4.33 77.1 6.67 77.13 9 77.12 C10.28 77.13 11.56 77.13 12.88 77.13 C13.91 77.09 14.94 77.05 16 77 C16.5 76.5 16.5 76.5 17 76 C17.1 73.74 17.13 71.47 17.13 69.2 C17.13 68.49 17.13 67.78 17.13 67.05 C17.14 64.69 17.14 62.33 17.13 59.97 C17.13 58.34 17.13 56.7 17.14 55.07 C17.14 51.64 17.14 48.22 17.13 44.79 C17.12 40.39 17.13 35.99 17.13 31.58 C17.14 28.21 17.14 24.84 17.13 21.47 C17.13 19.84 17.13 18.22 17.14 16.59 C17.14 14.33 17.13 12.06 17.13 9.8 C17.13 8.51 17.13 7.22 17.13 5.88 C17.09 4.93 17.04 3.98 17 3 C16.67 2.67 16.34 2.34 16 2 C13.67 1.9 11.33 1.87 9 1.88 C7.72 1.87 6.44 1.87 5.12 1.87 C3.58 1.93 3.58 1.93 2 2 Z " fill="#D8D4F9" transform="translate(766,185)"/>
<path d="M0 0 C1.13 -0.21 2.27 -0.41 3.44 -0.62 C4.61 -0.42 5.79 -0.21 7 0 C10 2.62 10 2.62 12 6 C12.04 7.03 12.08 8.06 12.12 9.12 C11 12 11 12 8.88 14.44 C7.45 15.21 7.45 15.21 6 16 C2.44 16.06 2.44 16.06 -1 15 C-1.82 14.28 -2.65 13.56 -3.5 12.81 C-4 11.88 -4.49 10.96 -5 10 C-5 6.94 -5 6.94 -4 4 C-3.46 3.22 -2.93 2.43 -2.38 1.62 C-1.59 1.09 -0.81 0.55 0 0 Z " fill="#B5A2E9" transform="translate(311,244)"/>
<path d="M0 0 C3.62 0.06 3.62 0.06 7 1 C7.62 1.39 8.24 1.78 8.88 2.19 C10 4 10 4 10.88 6.88 C10.92 7.91 10.96 8.94 11 10 C9.69 12.81 9.69 12.81 8 15 C7.01 15.5 7.01 15.5 6 16 C2.62 16.31 2.62 16.31 -1 16 C-1.8 15.5 -2.61 15.01 -3.44 14.5 C-5 12 -5 12 -5.41 10.09 C-5.57 7.91 -5.5 6.14 -5 4 C-4.32 3.15 -3.64 2.31 -2.94 1.44 C-1.48 0.73 -1.48 0.73 0 0 Z " fill="#98CCED" transform="translate(68,339)"/>
<path d="M0 0 C3.38 -0.38 3.38 -0.38 7 0 C7.82 0.68 8.65 1.36 9.5 2.06 C10 3.03 10.49 4 11 5 C11 8.62 11 8.62 10 12 C9.16 12.96 9.16 12.96 8.31 13.94 C6 15 6 15 3 15.44 C2.01 15.29 1.02 15.15 0 15 C-2.31 13.25 -2.31 13.25 -4 11 C-4.46 10.07 -4.46 10.07 -4.94 9.12 C-4.96 8.42 -4.98 7.72 -5 7 C-3.69 3.81 -3.69 3.81 -2 1 C-1.34 0.67 -0.68 0.34 0 0 Z " fill="#98CCED" transform="translate(220,664)"/>
<path d="M0 0 C0.99 0.33 1.98 0.66 3 1 C4.03 3.56 4.86 5.99 5.62 8.62 C5.84 9.32 6.06 10.02 6.28 10.75 C7.61 15.15 8.46 19.43 9 24 C8.53 23.64 8.05 23.27 7.57 22.9 C2.51 19.05 -2.68 15.47 -8 12 C-5.62 7.66 -3.22 3.79 0 0 Z " fill="#FDC7C7" transform="translate(644,419)"/>
<path d="M0 0 C0.33 0 0.66 0 1 0 C2.32 9.9 3.64 19.8 5 30 C25.46 30 45.92 30 67 30 C67 30.99 67 31.98 67 33 C45.88 33 24.76 33 3 33 C0 10 0 10 0 0 Z " fill="#EBD6C8" transform="translate(164,245)"/>
<path d="M0 0 C3.12 0.06 3.12 0.06 6 1 C6.62 1.37 7.24 1.74 7.88 2.12 C8.25 2.74 8.62 3.36 9 4 C9.44 7.44 9.44 7.44 9 11 C8.48 11.83 7.97 12.65 7.44 13.5 C6.63 14 5.83 14.49 5 15 C1.44 14.94 1.44 14.94 -2 14 C-2.64 13.63 -3.28 13.26 -3.94 12.88 C-4.29 12.26 -4.64 11.64 -5 11 C-5.5 7.56 -5.5 7.56 -5 4 C-4.3 3.17 -3.6 2.35 -2.88 1.5 C-1.93 1 -0.98 0.51 0 0 Z " fill="#98CCED" transform="translate(608,773)"/>
<path d="M0 0 C3 -0.44 3 -0.44 6 0 C8.31 1.19 8.31 1.19 10 3 C10.31 3.78 10.62 4.57 10.94 5.38 C10.96 6.24 10.98 7.11 11 8 C9.86 10.28 8.81 12.19 7 14 C3.69 14.31 3.69 14.31 0 14 C-1.21 13.2 -1.21 13.2 -2.44 12.38 C-2.95 11.59 -3.47 10.81 -4 10 C-4.5 7 -4.5 7 -4 4 C-3.46 3.22 -2.93 2.43 -2.38 1.62 C-1.59 1.09 -0.81 0.55 0 0 Z " fill="#98CCED" transform="translate(267,643)"/>
<path d="M0 0 C0.66 0.33 1.32 0.66 2 1 C4.86 1.11 7.69 1.16 10.55 1.18 C12.3 1.2 14.05 1.22 15.79 1.25 C18.55 1.28 21.31 1.31 24.07 1.33 C26.73 1.34 29.39 1.38 32.05 1.43 C32.87 1.42 33.69 1.42 34.54 1.42 C36.76 1.47 38.82 1.57 41 2 C43.98 3.9 43.98 3.9 46 6 C47.25 8.25 47.25 8.25 48 11 C48.5 14.96 48.5 14.96 49 19 C57.58 19 66.16 19 75 19 C75.33 15.7 75.66 12.4 76 9 C76.33 9 76.66 9 77 9 C77 13.29 77 17.58 77 22 C66.77 22 56.54 22 46 22 C45.67 17.71 45.34 13.42 45 9 C44.35 7.92 43.7 6.84 43.03 5.73 C40.27 3.95 40.27 3.95 37.97 3.57 C35.48 3.32 33.04 3.28 30.54 3.29 C29.64 3.28 28.74 3.26 27.81 3.25 C24.93 3.2 22.06 3.2 19.19 3.19 C17.23 3.16 15.28 3.14 13.33 3.11 C8.55 3.05 3.78 3.02 -1 3 C-0.67 2.01 -0.34 1.02 0 0 Z " fill="#CAC3E2" transform="translate(451,131)"/>
<path d="M0 0 C3.38 -0.44 3.38 -0.44 7 0 C9.94 1.69 9.94 1.69 12 4 C12.28 5.27 12.28 5.27 12.56 6.56 C12.38 7.37 12.19 8.17 12 9 C11.48 9.6 10.97 10.2 10.44 10.81 C8 12 8 12 4.5 12.38 C1 12 1 12 -1.44 10.88 C-2.21 9.95 -2.21 9.95 -3 9 C-3.44 6 -3.44 6 -3 3 C-2.65 2.38 -2.3 1.76 -1.94 1.12 C-1.3 0.75 -0.66 0.38 0 0 Z " fill="#4E445D" transform="translate(350,891)"/>
<path d="M0 0 C0.33 0 0.66 0 1 0 C1 21.45 1 42.9 1 65 C0.01 64.01 -0.98 63.02 -2 62 C-2.75 59.88 -2.75 59.88 -3 58 C-2.5 57.5 -2.5 57.5 -2 57 C-1.88 55.29 -1.83 53.58 -1.81 51.87 C-1.79 50.77 -1.78 49.68 -1.76 48.55 C-1.75 47.36 -1.73 46.17 -1.72 44.94 C-1.7 43.73 -1.68 42.51 -1.66 41.26 C-1.6 37.36 -1.55 33.46 -1.5 29.56 C-1.43 24.44 -1.36 19.32 -1.28 14.19 C-1.27 13 -1.25 11.81 -1.24 10.59 C-1.22 8.94 -1.22 8.94 -1.19 7.26 C-1.18 6.29 -1.16 5.32 -1.15 4.32 C-1.1 3.56 -1.05 2.79 -1 2 C-0.67 1.34 -0.34 0.68 0 0 Z " fill="#B8ABC3" transform="translate(876,312)"/>
<path d="M0 0 C2.44 2.34 4.54 4.84 6.62 7.5 C7.24 8.27 7.85 9.05 8.48 9.84 C10 12 10 12 11 15 C5.56 18.96 5.56 18.96 0 23 C-0.66 22.67 -1.32 22.34 -2 22 C-1.94 21.4 -1.88 20.81 -1.82 20.2 C-1.54 17.51 -1.27 14.82 -1 12.12 C-0.9 11.19 -0.81 10.25 -0.71 9.29 C-0.58 7.94 -0.58 7.94 -0.44 6.57 C-0.31 5.33 -0.31 5.33 -0.18 4.06 C0.03 2.01 0.03 2.01 0 0 Z " fill="#FAC8C4" transform="translate(488,421)"/>
<path d="M0 0 C1.65 1.83 2.85 3.63 3.78 5.9 C4.58 8.2 5.33 10.5 6.06 12.81 C6.32 13.59 6.57 14.38 6.84 15.18 C8.33 19.76 9.71 24.36 11 29 C11.77 28.93 12.54 28.86 13.33 28.78 C26.54 27.71 39.76 27.91 53 28 C53 28.66 53 29.32 53 30 C51.64 30.04 51.64 30.04 50.25 30.08 C46.83 30.17 43.41 30.27 39.99 30.37 C38.52 30.42 37.05 30.46 35.58 30.5 C26.69 30.74 17.85 31.14 9 32 C8.69 30.74 8.37 29.49 8.05 28.2 C5.06 16.28 5.06 16.28 0.7 4.81 C0.47 4.21 0.24 3.62 0 3 C0 2.01 0 1.02 0 0 Z " fill="#E1CDC5" transform="translate(686,469)"/>
<path d="M0 0 C0.33 0 0.66 0 1 0 C1.74 3.34 2.14 6.47 2.21 9.88 C2.23 10.82 2.25 11.76 2.27 12.73 C2.29 14.24 2.29 14.24 2.32 15.77 C2.34 16.81 2.36 17.84 2.38 18.91 C2.44 22.21 2.5 25.51 2.56 28.81 C2.61 31.05 2.65 33.3 2.69 35.54 C2.8 41.02 2.9 46.51 3 52 C5.47 51.5 5.47 51.5 8 51 C6.81 52.44 6.81 52.44 5 54 C2.53 54.5 2.53 54.5 0 55 C0 36.85 0 18.7 0 0 Z " fill="#BAB2CA" transform="translate(173,566)"/>
<path d="M0 0 C2.7 0.48 5.14 1.05 7.72 2.03 C11.43 3.13 14.5 3.23 18.37 3.2 C19.05 3.19 19.73 3.19 20.43 3.19 C22.58 3.18 24.73 3.15 26.88 3.12 C28.34 3.11 29.81 3.11 31.27 3.1 C34.85 3.08 38.42 3.04 42 3 C41.67 3.66 41.34 4.32 41 5 C38.44 6.01 36.19 6.03 33.42 6.11 C32.01 6.11 30.59 6.11 29.17 6.1 C28.42 6.1 27.67 6.09 26.9 6.09 C24.52 6.09 22.13 6.08 19.75 6.06 C18.13 6.06 16.51 6.05 14.89 6.05 C10.93 6.04 6.96 6.02 3 6 C3.33 5.01 3.66 4.02 4 3 C2.68 2.01 1.36 1.02 0 0 Z " fill="#F5E1D7" transform="translate(677,717)"/>
<path d="M0 0 C27.06 0 54.12 0 82 0 C81.67 1.98 81.34 3.96 81 6 C80.01 4.02 80.01 4.02 79 2 C53.59 2 28.18 2 2 2 C2 5.96 2 9.92 2 14 C1.67 14 1.34 14 1 14 C0.67 9.38 0.34 4.76 0 0 Z " fill="#FDF3E5" transform="translate(159,204)"/>
<path d="M0 0 C24.42 0 48.84 0 74 0 C70.76 2.16 67.65 3.63 64 5 C63.01 4.67 62.02 4.34 61 4 C61.66 3.34 62.32 2.68 63 2 C42.21 1.67 21.42 1.34 0 1 C0 0.67 0 0.34 0 0 Z " fill="#FFF6E8" transform="translate(320,611)"/>
<path d="M0 0 C0.66 0.66 1.32 1.32 2 2 C2.85 3.95 2.85 3.95 3.62 6.12 C3.89 6.85 4.15 7.57 4.41 8.32 C4.7 9.15 4.7 9.15 5 10 C4.01 10 3.02 10 2 10 C1.92 17.49 1.87 24.99 1.84 32.48 C1.82 35.03 1.8 37.58 1.77 40.13 C1.74 43.79 1.72 47.45 1.71 51.11 C1.69 52.26 1.68 53.4 1.66 54.58 C1.66 55.64 1.66 56.7 1.66 57.79 C1.65 58.73 1.65 59.66 1.64 60.63 C1.76 61.41 1.88 62.19 2 63 C3.41 64.82 3.41 64.82 5 66 C3.35 66 1.7 66 0 66 C0 44.22 0 22.44 0 0 Z " fill="#DFDDFC" transform="translate(585,198)"/>
<path d="M0 0 C0.33 0 0.66 0 1 0 C1.07 4.08 1.13 8.15 1.16 12.23 C1.18 13.61 1.2 15 1.23 16.38 C1.26 18.38 1.28 20.37 1.29 22.36 C1.32 24.16 1.32 24.16 1.34 26 C1.23 26.99 1.12 27.98 1 29 C0.01 29.99 -0.98 30.98 -2 32 C-1.67 23.75 -1.34 15.5 -1 7 C-3.97 9.48 -3.97 9.48 -7 12 C-7.66 11.67 -8.32 11.34 -9 11 C-8.52 10.46 -8.04 9.91 -7.54 9.36 C-6.91 8.64 -6.28 7.92 -5.62 7.19 C-4.69 6.13 -4.69 6.13 -3.73 5.04 C-1.86 2.91 -1.86 2.91 0 0 Z " fill="#E1CABE" transform="translate(848,684)"/>
<path d="M0 0 C1.02 1.32 2.02 2.65 3 4 C3 4.33 3 4.66 3 5 C-20.1 5 -43.2 5 -67 5 C-67 4.67 -67 4.34 -67 4 C-45.22 3.67 -23.44 3.34 -1 3 C-0.67 2.01 -0.34 1.02 0 0 Z " fill="#DDDCFC" transform="translate(373,593)"/>
<path d="M0 0 C0.66 0.66 1.32 1.32 2 2 C2.31 4.57 2.51 7.05 2.62 9.62 C2.68 10.68 2.68 10.68 2.74 11.77 C2.84 13.51 2.92 15.25 3 17 C4.11 16.51 5.22 16.01 6.37 15.5 C19.87 9.63 19.87 9.63 25.75 8.94 C28.64 8.82 30.3 9.09 33.12 9.94 C33.74 10.29 34.36 10.64 35 11 C34.01 11.33 33.02 11.66 32 12 C30.58 11.92 29.17 11.81 27.75 11.69 C24.16 11.63 21.66 12.11 18.22 13.26 C15.63 14.28 13.07 15.38 10.52 16.49 C7.41 17.82 4.21 18.93 1 20 C0.67 13.4 0.34 6.8 0 0 Z " fill="#CFC8EB" transform="translate(584,139)"/>
<path d="M0 0 C0.33 0 0.66 0 1 0 C1 11.22 1 22.44 1 34 C-0.65 34 -2.3 34 -4 34 C-3.34 33.34 -2.68 32.68 -2 32 C-1.64 28.92 -1.64 28.92 -1.62 25.31 C-1.6 24.65 -1.59 24 -1.57 23.32 C-1.52 21.21 -1.48 19.11 -1.44 17 C-1.39 14.89 -1.35 12.79 -1.29 10.68 C-1.25 8.77 -1.21 6.86 -1.17 4.95 C-1.12 3.98 -1.06 3 -1 2 C-0.67 1.34 -0.34 0.68 0 0 Z " fill="#B8ACC3" transform="translate(876,115)"/>
<path d="M0 0 C1.65 1.83 2.85 3.63 3.78 5.9 C4.58 8.2 5.33 10.5 6.06 12.81 C6.32 13.59 6.57 14.38 6.84 15.18 C8.33 19.76 9.71 24.36 11 29 C14.3 29.33 17.6 29.66 21 30 C21 30.33 21 30.66 21 31 C17.04 31.33 13.08 31.66 9 32 C8.69 30.74 8.37 29.49 8.05 28.2 C5.06 16.28 5.06 16.28 0.7 4.81 C0.47 4.21 0.24 3.62 0 3 C0 2.01 0 1.02 0 0 Z " fill="#EDDACF" transform="translate(686,469)"/>
<path d="M0 0 C0.66 0.66 1.32 1.32 2 2 C3.86 2.33 3.86 2.33 5.99 2.32 C6.81 2.34 7.63 2.36 8.48 2.38 C9.81 2.4 9.81 2.4 11.16 2.41 C12.07 2.43 12.98 2.45 13.91 2.47 C16.82 2.53 19.72 2.58 22.62 2.62 C24.59 2.66 26.56 2.7 28.52 2.74 C33.35 2.84 38.17 2.92 43 3 C43 3.33 43 3.66 43 4 C28.48 4 13.96 4 -1 4 C-0.67 2.68 -0.34 1.36 0 0 Z " fill="#FCDC93" transform="translate(716,704)"/>
<path d="M0 0 C0.66 0.33 1.32 0.66 2 1 C1.28 1.63 0.55 2.26 -0.2 2.91 C-5.71 7.93 -5.71 7.93 -10.11 13.9 C-12.03 17.82 -13.57 21.87 -15 26 C-15.66 24.36 -15.66 24.36 -16 22 C-14.16 16.8 -11.44 11.93 -8.14 7.51 C-5.57 4.51 -3.3 2.2 0 0 Z " fill="#FADDD5" transform="translate(75,540)"/>
<path d="M0 0 C8.58 0.66 17.16 1.32 26 2 C26 2.33 26 2.66 26 3 C17.09 3 8.18 3 -1 3 C-0.67 2.01 -0.34 1.02 0 0 Z " fill="#F0DACD" transform="translate(101,517)"/>
<path d="M0 0 C0.78 0 1.56 0.01 2.36 0.01 C4.26 0.03 6.16 0.04 8.06 0.06 C8.39 3.03 8.72 6 9.06 9.06 C8.4 8.4 7.74 7.74 7.06 7.06 C6.4 5.41 5.74 3.76 5.06 2.06 C-1.87 2.06 -8.8 2.06 -15.94 2.06 C-15.94 1.73 -15.94 1.4 -15.94 1.06 C-10.57 0.16 -5.43 -0.06 0 0 Z " fill="#F2E0D5" transform="translate(658.9375,697.9375)"/>
<path d="M0 0 C0.66 0.33 1.32 0.66 2 1 C1.67 1.6 1.34 2.2 1 2.81 C0.67 3.53 0.34 4.26 0 5 C0 5.99 0 6.98 0 8 C-0.66 8 -1.32 8 -2 8 C-2 9.65 -2 11.3 -2 13 C-2.99 13 -3.98 13 -5 13 C-5.29 9.62 -5.45 6.37 -5 3 C-4.22 2.28 -3.43 1.56 -2.62 0.81 C-1.76 0.54 -0.89 0.28 0 0 Z " fill="#FFB466" transform="translate(253,110)"/>
<path d="M0 0 C2.62 -0.12 2.62 -0.12 5 0 C5 1.32 5 2.64 5 4 C3.5 5.75 3.5 5.75 2 7 C0.68 6.34 -0.64 5.68 -2 5 C-2 4.01 -2 3.02 -2 2 C-1.34 1.34 -0.68 0.68 0 0 Z " fill="#FFB76A" transform="translate(236,136)"/>
<path d="M0 0 C0.33 0 0.66 0 1 0 C1 5.28 1 10.56 1 16 C-0.86 12.28 -2.06 9.04 -3 5 C-2.75 2.62 -2.75 2.62 -2 1 C-1.34 0.67 -0.68 0.34 0 0 Z " fill="#FDEDE1" transform="translate(875,451)"/>
<path d="M0 0 C0.66 0.33 1.32 0.66 2 1 C-2.29 5.29 -6.58 9.58 -11 14 C-11.66 13.67 -12.32 13.34 -13 13 C-11.59 11.39 -10.17 9.79 -8.75 8.19 C-7.96 7.29 -7.17 6.4 -6.36 5.48 C-4.34 3.36 -2.4 1.66 0 0 Z " fill="#FCD5D1" transform="translate(131,358)"/>
<path d="M0 0 C0.99 0.5 0.99 0.5 2 1 C3.63 1.08 5.27 1.11 6.9 1.1 C7.87 1.09 8.85 1.09 9.85 1.09 C11.38 1.08 11.38 1.08 12.94 1.06 C14.46 1.06 14.46 1.06 16.01 1.05 C17.9 1.04 19.79 1.03 21.67 1.02 C23.45 1 25.22 1 27 1 C27 1.66 27 2.32 27 3 C18.09 3 9.18 3 0 3 C0 2.01 0 1.02 0 0 Z " fill="#FFF2E5" transform="translate(629,261)"/>
<path d="M0 0 C3.63 0 7.26 0 11 0 C7.76 2.16 4.65 3.63 1 5 C0.01 4.67 -0.98 4.34 -2 4 C-1.34 3.34 -0.68 2.68 0 2 C0 1.34 0 0.68 0 0 Z " fill="#FBEFE1" transform="translate(383,611)"/>
<path d="M0 0 C0.66 0.33 1.32 0.66 2 1 C-1.63 4.63 -5.26 8.26 -9 12 C-9 11.01 -9 10.02 -9 9 C-7.54 6.99 -7.54 6.99 -5.62 4.88 C-5 4.17 -4.37 3.47 -3.73 2.74 C-2 1 -2 1 0 0 Z " fill="#F9D6D0" transform="translate(880,541)"/>
<path d="M0 0 C1.02 1.32 2.02 2.65 3 4 C3 4.33 3 4.66 3 5 C-3.6 5 -10.2 5 -17 5 C-17 4.67 -17 4.34 -17 4 C-9.08 3.5 -9.08 3.5 -1 3 C-0.67 2.01 -0.34 1.02 0 0 Z " fill="#DCDAFC" transform="translate(612,259)"/>
<path d="M0 0 C3.96 0 7.92 0 12 0 C10.68 1.32 9.36 2.64 8 4 C5.75 4.75 5.75 4.75 4 5 C4.33 4.01 4.66 3.02 5 2 C3.35 1.67 1.7 1.34 0 1 C0 0.67 0 0.34 0 0 Z " fill="#FBEDE0" transform="translate(500,664)"/>
<path d="M0 0 C0.66 0.66 1.32 1.32 2 2 C2.85 3.95 2.85 3.95 3.62 6.12 C3.89 6.85 4.15 7.57 4.41 8.32 C4.7 9.15 4.7 9.15 5 10 C3.35 10 1.7 10 0 10 C0 6.7 0 3.4 0 0 Z " fill="#D8D4F4" transform="translate(585,198)"/>
<path d="M0 0 C0.33 0 0.66 0 1 0 C1 2.31 1 4.62 1 7 C0.4 7.1 -0.2 7.21 -0.81 7.31 C-1.53 7.54 -2.26 7.77 -3 8 C-4.73 9.48 -4.73 9.48 -6 11 C-6.66 10.67 -7.32 10.34 -8 10 C-7.51 9.45 -7.01 8.89 -6.5 8.32 C-5.86 7.6 -5.22 6.87 -4.56 6.12 C-3.92 5.41 -3.29 4.69 -2.63 3.95 C-0.95 2.09 -0.95 2.09 0 0 Z " fill="#FFE6DD" transform="translate(847,685)"/>
<path d="M0 0 C0.66 0.66 1.32 1.32 2 2 C2.31 4.51 2.51 6.92 2.62 9.44 C2.66 10.12 2.7 10.8 2.74 11.5 C2.9 14.34 3 17.16 3 20 C2.34 20 1.68 20 1 20 C0.67 13.4 0.34 6.8 0 0 Z " fill="#DDDBFB" transform="translate(584,139)"/>
<path d="M0 0 C0.99 0.33 1.98 0.66 3 1 C3.33 1.99 3.66 2.98 4 4 C1.03 4 -1.94 4 -5 4 C-2.69 1.94 -2.69 1.94 0 0 Z " fill="#FAEFE1" transform="translate(585,719)"/>
<path d="M0 0 C1.32 0 2.64 0 4 0 C3.57 1.44 3.13 2.88 2.69 4.31 C2.44 5.11 2.2 5.91 1.95 6.74 C1 9 1 9 -0.61 10.79 C-1.07 11.19 -1.53 11.59 -2 12 C-1.69 11.09 -1.38 10.18 -1.06 9.25 C0.14 5.67 0.14 5.67 1 2 C0.67 1.34 0.34 0.68 0 0 Z " fill="#F3CB89" transform="translate(674,550)"/>
<path d="M0 0 C0.99 0.99 1.98 1.98 3 3 C3.66 2.34 4.32 1.68 5 1 C5 2.98 5 4.96 5 7 C3.06 6.31 3.06 6.31 1 5 C0.25 2.38 0.25 2.38 0 0 Z " fill="#F1C382" transform="translate(680,699)"/>
<path d="M0 0 C2.12 0.38 2.12 0.38 4 1 C2.69 2.44 2.69 2.44 1 4 C0.01 4.33 -0.98 4.66 -2 5 C-2 4.01 -2 3.02 -2 2 C-1.34 1.34 -0.68 0.68 0 0 Z " fill="#FFB365" transform="translate(230,116)"/>
<path d="M0 0 C0.62 1.69 0.62 1.69 1 4 C0.06 6.75 0.06 6.75 -1 9 C-1.66 8.34 -2.32 7.68 -3 7 C-2.75 5.06 -2.75 5.06 -2 3 C-1.34 2.01 -0.68 1.02 0 0 Z " fill="#FCD48C" transform="translate(344,668)"/>
<path d="M0 0 C1.98 0 3.96 0 6 0 C6.33 0.66 6.66 1.32 7 2 C6.83 4.7 6.39 7.32 6 10 C5.67 10 5.34 10 5 10 C4.92 8.72 4.83 7.44 4.75 6.12 C4.54 3.95 4.54 3.95 4 2 C3.32 1.5 2.64 1.01 1.94 0.5 C1.3 0.34 0.66 0.17 0 0 Z " fill="#FFEBE1" transform="translate(433,521)"/>
</svg>
