<svg xmlns="http://www.w3.org/2000/svg" width="1365.333" height="1365.333" preserveAspectRatio="xMidYMid meet" version="1.0" viewBox="0 0 1024 1024"><g fill="#000" stroke="none"><path d="m408.8 69.9-3.3 2.9V328H293c-75.6 0-115.5.4-121.5 1.1-22.2 2.7-42.5 12.8-57.6 28.5-8.1 8.5-11.8 14-16.9 24.6-8.7 18.3-10 30.5-10 94.2l.1 45-6.2 2.3c-11.1 4.2-22.2 13.6-28.6 24.3-1.2 1.9-3.4 7.1-5 11.5l-2.8 8-.3 110.2c-.2 96.1-.1 111.1 1.3 116.8 5.2 22.5 23.6 38.2 47.1 40.2 4.4.3 7.4 1 7.4 1.7 0 .6-1.6 16.6-3.5 35.5S93 908.2 93 910.5c0 5.3 2.8 9.1 7.8 10.5 4.9 1.3 33.1 1.3 37-.1 1.8-.6 4.1-2.6 5.4-4.7 1.2-2 7.4-20.9 13.8-42.1l11.6-38.6 343.2-.3L855 835l1 2.2c.5 1.3 5.7 18.5 11.6 38.3s11.5 37.7 12.6 39.8c2.9 5.8 6.1 6.7 23 6.7 7.9 0 15.9-.5 17.9-1 5-1.4 8-5 8.6-10.2.4-3.7-3.7-59.7-5.3-71.6l-.5-4.2h4.3c6.3 0 16.3-2.6 23.2-6.1 12.1-5.9 20.5-15.6 25.5-29.3l2.6-7.1V681c0-124.1.4-116.7-6.8-130.5-4.1-7.8-15.4-19.1-23.4-23.3-6.6-3.5-19.5-7.2-25-7.2H921V71.9l-2.5-2.4-2.4-2.5H412zM909 299.5v219.4l-3.2.5c-1.8.3-6.3.7-10 1l-6.8.5V107.2l-2.6-3.1-2.6-3.1h-440l-2.9 2.9-2.9 2.9V328h-20V80h491zm-32-168V149h-39v-9.6c0-9.2-.1-9.7-2.9-12.5l-2.9-2.9h-20.7c-12.2 0-21.4.4-22.6 1-4.3 2.3-4.9 5.7-4.9 27v20h-19v-6.9c0-5.9-.4-7.4-2.4-9.8l-2.4-2.8-15.9-.5-15.8-.5-.1-5.9c-.1-5.4-.5-6.3-3.4-8.9l-3.2-2.8-20.4.3-20.4.3-2.7 2.8-2.8 2.7-.3 62.1-.2 62-2.2-.3c-1.9-.3-5.8-8.5-25.5-53.3-12.8-29.2-24.1-54.1-25.1-55.5-2.6-3.4-5.9-5-10.9-5-4.5 0-15 3.5-21.9 7.4l-4.2 2.3-.4-9.8c-.3-9.2-.6-10.1-3.1-12.7l-2.7-2.7-21.2-.3c-23.1-.3-25.9.1-28.3 4.9-.8 1.5-1.5 5.3-1.5 8.4v5.6l-15.2-.3-15.3-.3-.5-6.7c-.4-5.3-1-7.3-2.8-9-2.2-2.2-2.9-2.3-23.2-2.6l-21-.3V114h427zm-51 69V264h-29V137h29zm-341 5V264h-35V147h35zm87 0V264h-32V147h32zm144 0V264h-28V147h28zm-98.8-31c11.9 26.6 38.8 88.4 38.8 88.9 0 .3-6 .6-13.3.6h-13.3l-10.2-22.8c-5.5-12.5-14.8-33.2-20.6-46L588.1 172l4.2-2.2c8-4.1 15.2-6.8 17.6-6.5 2.1.2 3.2 1.9 7.3 11.2m259.8 39V264h-39V163h39zm-349 1V264h-31v-99h31zm225 0V264h-25v-48.8c0-26.9.3-49.2.7-49.5.3-.4 6-.7 12.5-.7H753zm31.2 10 .3 39.5h-9.2c-5.1 0-9.3-.1-9.3-.3-.1-.1-.3-17.9-.7-39.5l-.6-39.2H784zm-189-4.7c5.3 11.9 11.9 26.8 14.7 32.9l5 11.3h-30.4v-33c0-18.1.2-33 .5-33s4.9 9.8 10.2 21.8M877 287.5V298H450v-21h427zm-.3 56.7c.2 26.2-.1 32.9-1 31.4-14.6-23.1-31.7-36.3-57.4-44.3l-8.8-2.8-179.7-.3L450 328v-8.4c0-4.5.2-8.5.4-8.7s96.2-.3 213.3-.2l212.8.3zm-59.2-.4c22.4 7.6 38.4 21.8 49 43.7 8.9 18.4 11.2 32.9 10 62.2l-.8 17.8-1.7-6c-8.2-28.2-28.1-56.9-51.7-74.6-18.7-14.1-36.9-21.2-54.3-21.3-11.1-.1-16.1 1.7-23.3 8.3-6.4 6-9.1 12.6-9.2 22.6 0 16.6 7.8 26.3 30.8 38 18.1 9.3 25.4 14.3 33.6 23.1 15 16.1 21.1 37.3 16.5 57.3-2.3 10.5-2.8 10.8-9.9 5.9-11.6-7.9-30.1-15.4-48-19.5-6.4-1.4-12.4-1.8-30-1.8-12.1 0-24.5.4-27.7.8l-5.6.8-.7-4.3c-1.1-6.7-5.9-20.5-10.3-29.8-2.9-6.2-4.3-10.8-5.2-17-4.1-30.7-10.2-59.2-15-69.5-7.1-15.5-16.8-16.3-33.2-2.8-8.2 6.7-21.7 20.9-28.5 29.8l-4.8 6.4H574c-12.9 0-26.1.5-29.3 1.1-3.3.6-6 1-6.1.8s-3.4-4.1-7.3-8.8c-12.5-14.9-28.8-28-39.3-31.5-9.3-3.1-15.5.6-20.7 12.5-5.1 11.3-10 34.5-12.8 60.6-1.5 13.4-2 15.4-5.4 22.3-4.7 9.3-9.6 23.3-11.3 32.4-.7 3.7-1.7 6.6-2.3 6.4-.5-.2-5.7-1.5-11.4-2.7l-10.4-2.4-1.8 2.3c-4.7 5.7-1.4 9.1 11.7 12 5.4 1.2 10.5 2.4 11.2 2.6.8.3 1.2 2.8 1.2 7.9 0 4.1.2 8.1.5 8.9.5 1.1-1.7 1.8-10.2 3.1-5.9 1-11.6 2-12.6 2.2-4.3 1.3-4.6 8.7-.4 10.3 1.3.5 6.9.2 14.1-.9l11.8-1.7 1.5 3.6c3.7 9 7.9 16.4 12.5 22.1 2.7 3.4 4.6 6.6 4.1 7-.4.4-9.3 4.1-19.8 8.3l-19 7.5-14-.4c-20.2-.7-20-.6-21.4-5.7-.7-2.3-3.4-7.8-6.1-12.3l-4.9-8v-22.5c0-13.7-.6-27.8-1.5-36.4-3.4-30.1-10.1-61-17-78l-3.4-8.5 1.3-7.7c3.1-16.9 1.3-32.3-4.2-37.5-8.2-7.6-16.7-6.6-38.8 4.4l-9 4.5-15.5-.9c-33.9-1.9-74.1 2-104.7 10.4l-11.2 3-12.8-3.3c-16.9-4.3-30.7-4.7-36.6-1-5.8 3.6-8 8.9-7.5 18 .4 6.3 1.4 10 6.1 21.7l5.7 14v18.5c.1 16.1 1.3 31.9 3.5 45.6l.7 4.1-3.8-.9c-2.2-.4-9.2-.9-15.6-.9H100v-48.8c0-52.9.5-60.6 5-74.6 9.9-30.6 34-50.3 67.5-54.9 1.7-.2 145.9-.4 320.5-.3l317.5.1zm-32 37.3c16.1 5.4 30 14.6 44.2 29.2 14.8 15.3 23.8 29.7 30.6 49.3 11.9 34.2 7.4 68.1-12.5 94.1-2.2 2.9-4.3 5.3-4.7 5.3-.3-.1-2.2-2.6-4.1-5.7-1.9-3-6.3-8.6-9.8-12.3l-6.2-6.8 3.2-9.4c3.2-8.9 3.3-10 3.3-23.8-.1-13.6-.3-15-3.2-23.3-8.1-22.9-22.1-37.4-50.4-52.2-17.7-9.3-24.9-15.2-27.3-22.2-1.9-5.5-2-7.5-.5-12.6 1.4-5.1 6.4-10.4 11.4-12.2 5.5-2 14.7-1.1 26 2.6M652.7 385c3.2 6.5 7.5 25.8 12.4 54.5 3.5 21.2 4.7 26 7.4 31.5 5.6 11.2 11.6 31.4 9.8 33-.4.5-8.4 2.7-17.8 5-9.3 2.3-17.8 4.9-18.7 5.8-3.7 3.1-.9 9.2 4.1 9.2 1.4-.1 9.6-1.8 18.1-3.9l15.5-3.8.3 5.4c.4 8-1.5 16.3-3.7 16.3-1 0-8.2-.7-16-1.6-16.4-1.8-19.4-1.2-19.9 4.2-.2 1.8.3 3.6 1.1 4.2.8.7 8.3 2.1 16.6 3.1 8.4 1 15.5 2.1 15.8 2.5 1 .9-5.4 13-10.2 19.4-6 7.9-16.4 17.5-23.1 21.3-5.5 3.1-7.4 5.3-7.4 8.5 0 2.5 2.9 5.4 5.4 5.4 3.8 0 14.7-7.3 23.8-15.9 9.9-9.3 16.6-18.8 21.8-30.4l3.5-7.8 5 .6c8.6 1 15.4.8 17-.5 2-1.7 1.9-6.3-.2-8.3-1.2-1-4.8-1.8-10.6-2.3-7.5-.6-8.7-.9-8.2-2.3.4-.9 1.1-6.6 1.7-12.8.8-7.8 1.5-11.4 2.5-11.7 8.4-3.3 43.6-3.1 58.4.3 10.6 2.4 25 7.9 34.9 13.3 38 20.8 63.7 69.7 59 112.1-1.4 12.4-3.4 19.5-8.7 30.6-6.1 12.8-16.1 23-28.3 28.9-15.8 7.8-26.5 9.2-69.4 9.2-33.3 0-30.6.7-27.3-7.1 1.3-2.9 1.3-4 .4-6-2.9-5.7-9.4-.9-11.8 8.7-1.1 4.2-1.1 4.2-6.1 4.6-2.7.1-5.1.1-5.3-.2-.7-1.3 2.9-12 5.5-16.3 3.3-5.3 3.6-6.7 1.8-8.5-4.8-4.8-14.4 6.3-16.4 18.9-.4 2.1-1 3.9-1.4 3.9-1.8 0-4.3-4.3-4.7-8.3-1-8.8 6.2-19.4 16.1-23.6 10.9-4.7 33.5-6.7 44.1-3.9 5.4 1.5 9.4.3 10.6-3 1.2-3.2-3.4-7.8-8.6-8.8-3.3-.6-4-1.3-6.2-6-4.8-10.5-4-24.2 2.3-36.5 2.4-4.8 10.6-13.9 18.2-20.1 3.7-3 4.2-6.6 1.2-9.3-2.5-2.3-6-1.4-12.1 3.1-11.1 8.1-20 21.3-23.4 34.4-2 7.7-1.7 22.2.7 28.6l1.5 4.1-9.1.6c-10.3.7-17.5 2.6-26 6.9-6.8 3.5-14.5 10.8-17.6 16.7-1.1 2.3-2.6 4.4-3.3 4.6s-8.5.6-17.5.9l-16.3.6 8-9c6.8-7.6 8.1-9.6 8.1-12.5 0-3.4-2-5.5-5.3-5.5-.7 0-5.1 3.7-9.8 8.3-21.2 20.8-43.1 35-97.4 63.2-8.2 4.3-21.8 11.3-30.1 15.6-8.3 4.4-15.3 7.9-15.6 7.9-.6 0 .1-3 2.3-10.7 1-3.3 1-4.4 0-5.7-1.8-2.2-5.4-2-7.5.3S481 752 481 756.1v2.9h-7c-3.8 0-7-.3-7-.8.1-3 2.6-10.7 5.2-16 3.5-7.1 3.1-9.5-1.4-10-3.8-.5-8.3 5.6-11.6 15.6l-2.7 8.4-2.2-2.7c-4.4-5-2.2-18 4.7-28 8.6-12.5 22-24.1 52.3-45.3 24.5-17.2 34.4-24.7 50.2-37.8 11.3-9.5 13-11.3 13.3-14.2.4-4.2-1.2-6.2-5.2-6.2-2.5 0-5.9 2.3-17.6 12.1-25.3 21-23.8 20.1-30 18.9-7.6-1.4-27.6-1.2-42 .5-23.6 2.7-42.8 7.5-79.9 19.6-13.3 4.4-24.6 7.8-24.9 7.4-.4-.3.5-3.8 1.8-7.6 2.7-8.1 2.1-10.4-2.6-10.4-2.4 0-3.3.8-5.4 4.5-1.3 2.5-2.9 7-3.5 10l-1.1 5.5-5.9.3-5.8.3.5-3.8c.3-2.2 1.8-6.8 3.3-10.3 1.5-3.6 2.8-7.9 2.9-9.5.1-2.7-.2-3-3.1-3.3-2.8-.3-3.6.3-6.2 3.8-1.6 2.3-3.7 6.5-4.6 9.3-.9 2.9-1.9 5.9-2.1 6.7-.9 2.4-3.3-2.9-3.4-7.2 0-8.1 5.9-17.6 15.4-24.8 11.4-8.6 23.8-14.3 60.4-28.1 28-10.5 42-16.3 51.2-20.9l5.6-2.8 5.9 3.9c12.3 8.2 30 15.3 45 18 6.1 1.2 6.7 1.1 9.3-.8 3.6-2.7 4.1-6.7 1-8.6-1.3-.8-5.9-2.3-10.3-3.2-23.6-5.1-45.1-17.3-56.4-31.8-3.6-4.8-11.1-18-11.1-19.8 0-.3 3-.9 6.6-1.2 10.3-1 13.6-4.2 9.8-9.6-1.6-2.3-2-2.3-10.4-1.7l-8.8.7-.7-6.1c-.4-3.4-.5-6.3-.2-6.6.2-.3 2.4 0 4.8.5 6 1.4 11.2 1.4 12.7-.1 1.9-1.9 1.5-7.6-.5-8.6-1-.5-5.1-1.7-9-2.7-8.5-2-8.5-2-5.3-14.3 2.4-9.6 4.9-16.1 9.9-26 3.4-6.8 4-9.1 5-19.7 3.5-34 11.5-66.6 16.7-67.3 5.6-.8 28.7 19.1 40.7 35 3.2 4.3 6.1 7.8 6.5 7.8s4.8-.7 9.7-1.5c11.4-2 39.6-2.9 49.9-1.8 9.2 1.1 8.4 1.7 18.2-11.2 7.8-10.3 27.2-30.2 32.4-33.4 4.7-2.9 6.1-2.4 8.7 2.9m-310.2 6.4c2.7 1.9 3 10.1 1 25.5l-1.6 13.2 2.9 7.2c4.5 10.7 7.8 22.4 11.1 39.2 5.3 26.3 7.1 43.6 7.8 73l.5 27 4 6.3c2.2 3.5 4.8 8.3 5.8 10.6l1.8 4.3-40.2.6c-76.4 1.2-118.6 6.4-151.5 18.8-5.8 2.1-10.6 3.9-10.8 3.9s-.3-11.8-.3-26.3c0-29.3-.4-31.8-6.8-44.2-3.5-6.7-13.7-18.3-19-21.6-2-1.2-2.6-3.1-4.2-12.4-3-17.3-4.3-34.4-3.8-49.3.5-15.3.7-14.8-7.6-35.3-4.9-12.3-5.8-18.6-3-21 3.3-2.8 21.4-.3 36.7 5 5.3 1.9 6 1.9 10 .5 8.1-2.9 28.3-7.4 41.7-9.4 23.2-3.3 42.7-4.3 67-3.6l22.5.7 10.9-5.6c10.4-5.2 18.1-8.3 21.7-8.4.8-.1 2.3.5 3.4 1.3M876 525.5c-.6 1.5-1.3 2.6-1.6 2.3-.2-.3 0-1.8.6-3.3s1.3-2.6 1.6-2.3c.2.3 0 1.8-.6 3.3m-745 9.3c11.6 4.6 21.7 15.3 27.2 29.1l2.3 5.6.3 126.8.2 126.9-35.7-.4c-33.4-.4-36.2-.6-41.5-2.6-12.4-4.5-21.3-13.5-24.8-24.9-2-6.4-2-9-2-115.2 0-119.6-.3-114.2 6.2-126.3 5.2-9.7 16.1-17.9 27.5-20.8 2.1-.5 10.8-.8 19.3-.6 13.1.2 16.3.6 21 2.4m800.4-.8c18.8 4.8 30.6 17.1 34.7 35.9.6 2.9.8 45 .7 113.6l-.3 109-2.3 5.8c-3 7.4-11.6 16.8-18.5 20.2-7.6 3.7-16.5 4.4-52.4 4.5H861v-83.8c0-68.6.3-85.1 1.5-91.7 2.6-14.5 1.8-31.2-2.5-49.7-2.2-9.4-1.8-17 1.6-28.8 5.1-17.8 20.1-32.9 35.7-36 8.4-1.6 25.9-1.1 34.1 1m-538.9 78c-1.1.5-7.7 3.3-14.6 6.3-17.2 7.3-26.9 13-35.4 20.9-9.8 9.1-13.7 16.5-14.3 27-.8 13.2 3.3 19.9 15.8 25.7 5 2.3 6.6 2.6 17 2.5 13.3-.1 17.6-1 47.5-10.9 36-11.9 65.6-18.2 91-19.2l14-.6-11.5 7.8c-24.9 16.8-44.7 34.3-52 45.8l-3.5 5.6-130.4.1H185.6l-4.4-2.1c-8.4-4.1-8.2-3.2-8.2-46.7v-38.3l7.4-3.4c23.8-11 60.6-17.8 111.6-20.4 21.8-1.1 103-1.2 100.5-.1m454.8 103.3c-1 1.6-3.6 3.9-5.8 5.1-4 2.1-4.1 2.1-133.5 2.3-118.9.2-129.3.1-126.5-1.4 1.7-.8 9.8-5.5 18-10.3 13.4-7.8 15.8-8.9 22.5-9.9 9.2-1.3 31.2-3.1 39.1-3.1 5.7 0 5.9.1 5.9 2.6 0 6.8 7.3 14.9 16.4 18.3 4.9 1.8 7.3 1.8 53.1 1 58.9-1 64.8-1.8 83-10.4 9.8-4.7 20.1-13.2 25.8-21.4l3.2-4.6.3 14.4c.2 12.2 0 14.8-1.5 17.4m1.5 61.9-.3 45.3h-675l-.3-44.9-.2-44.8 2.7.8c1.6.4 61.8.9 133.9 1.1l131 .3-.4 8.9c-.4 7.7-.1 9.6 1.7 13.5 4.2 8.6 14 13.5 28.6 14.3 15.7.9 20.2-.8 60.4-22.7l25.7-14 141-.1c111.8 0 141.8-.3 145.4-1.3 2.5-.8 4.8-1.4 5.3-1.5.4 0 .6 20.3.5 45.1M154.5 837c-1.4 5.1-16.1 54.2-18.6 62.2l-3 9.8h-13.4c-13.3 0-13.5 0-13.5-2.3 0-1.2 1.6-17.7 3.5-36.6s3.5-34.4 3.5-34.5 9.4-.1 21-.1c18.2 0 20.9.2 20.5 1.5m759.7 29.5c1.4 17 2.7 33.6 2.7 36.7l.1 5.8h-25.8l-1.1-3.3c-.5-1.7-5.3-17.7-10.6-35.5s-9.9-33-10.1-33.7c-.5-1.1 3.2-1.3 20.8-1.2l21.3.2z"/><path d="M638.8 408.2c-2.9 2.3-15.8 20-16.5 22.6-.3 1.4-.2 3.2.4 4.1 1.5 2.6 22.2 16.1 24.7 16.1 2.8 0 5.6-2.9 5.6-5.7 0-2.4-4.1-6.3-11.8-11.2-2.8-1.8-5.2-3.5-5.2-3.7 0-.3 2.5-3.8 5.5-7.8 5.6-7.4 6.9-11.8 4.3-14.4-1.6-1.6-5-1.5-7 0m-148.4 8.3c-2.2 3.4-1.3 6.2 4.2 13 2.5 3.1 4.5 5.8 4.3 5.9-.2.2-3.9 2.9-8.2 6.1-4.7 3.5-8 6.7-8.3 8.2-.9 3.6 1.1 7.3 4 7.3 2.8 0 23.8-14.9 26.3-18.6 2.1-3.3 1.3-4.7-8.2-15.7-8.3-9.6-11.1-10.8-14.1-6.2m5.8 82.5c-8.4 5.2-7.7 18.4 1.2 22.7 4.2 2 7.9 1.1 11.7-2.7 2.5-2.5 2.9-3.6 2.9-8.7 0-6.5-1.5-9.5-6-11.8-3.9-2-5.9-1.9-9.8.5m98 1.6c-9.5 6.6-5.2 23.4 6.1 23.4 9.5 0 14-16.7 6-22.9-3.1-2.5-8.9-2.7-12.1-.5m-54.8 18.1c-4.1.5-6.8 3.5-6 6.6.3 1.3 2.1 4.4 4.1 7 4.6 6.1 4.7 9.7.1 14.3-5 5-7 4.7-11.9-1.9-2.1-2.7-3.5-3.7-5.6-3.7-8.7 0-5.9 12.8 3.9 17.7 6 3.1 12.4 3 18.4-.2l4.8-2.5 2.7 1.9c4 2.9 11.3 4.4 16.8 3.6 3.9-.6 5.7-1.6 9.5-5.5 3.9-3.8 4.8-5.4 4.8-8.2 0-7-5.5-7.9-11.1-1.8-2.2 2.4-4.6 4-5.9 4-3.3 0-8.8-3.7-10.5-7-2.5-4.8-1.9-6.6 3-9.5 8.3-4.8 10-11.1 3.5-13.1-4-1.3-16-2.2-20.6-1.7M133.5 91.9c-4.3 1.8-4.8 3.6-4.3 14.4 1.3 23.9 14 44.7 33.5 55 7.8 4.1 20.3 7.7 26.5 7.7h3.8v22h-19.4c-10.7 0-20.6.4-22 1-4 1.5-6.1 5.6-5.8 11.4.1 2.8 2 20.4 4.2 39 2.2 18.7 4 34.3 4 34.8 0 .4-9.4.8-20.9.8-20.6 0-21 0-22.5 2.2-2.3 3.3-1.9 6.4 1 8.7 2.6 2.1 3.3 2.1 81.4 2.1s78.8 0 81.4-2.1c2.9-2.3 3.3-5.4 1-8.7-1.4-2.1-2.2-2.2-15.8-2.2-7.8 0-14.5-.2-14.7-.5-.3-.2 1.5-15.4 3.8-33.7 2.4-18.3 4.4-36.4 4.6-40.1.2-6.6.1-7-3.1-9.8L247 191h-41.5l.1-10.8.1-10.7 6.6-.7c31.1-3.5 55.4-30.3 57.4-63.3.5-8.1.3-9.3-1.5-11.5-1.8-2.3-2.6-2.5-8.7-2.2-9.4.3-18.8 2.7-27.5 7-10.2 5-22.9 17.6-28.5 28.4l-4 7.6-2.6-4.9c-9.2-16.7-25.6-30.9-41.4-35.8-7.1-2.2-19.2-3.4-22-2.2m21 15.2c14 5.8 25.1 16.2 32 29.9 3.2 6.3 7.1 18.7 6.2 19.6-1.1 1.1-17-3-22.7-5.8-7.8-3.8-18.2-13.9-22.3-21.5-2.9-5.5-6.7-18.7-6.7-23.5 0-2.8.2-2.9 3.3-2.3 1.7.4 6.4 2 10.2 3.6m101 8.1c-4 16-13.4 28.2-26.9 34.8-6.7 3.4-21.3 7.7-22.3 6.6-.9-.8 3.3-13.2 6.8-20.4 7.7-15.7 20.1-26 36.1-30.1l7.3-1.9.3 2.4c.2 1.3-.4 5.2-1.3 8.6m-15.2 92.5c-.3 2.1-2.4 18.6-4.6 36.8l-4.2 33-32.2.3c-17.8.1-32.3-.1-32.3-.5 0-.5-2-17.1-4.3-37.1l-4.3-36.2h82.4zm160.9 682.9c-2.7 1.9-2.9 6.4-.4 8.7 1.7 1.6 11.9 1.7 125.9 1.7 118.8 0 124.1-.1 125.6-1.8 2.4-2.6 2.1-6.8-.5-8.6-3.4-2.4-247.2-2.4-250.6 0m-52 2c-5 3.5-1.5 10.4 5.3 10.4 6.9 0 9.9-6 4.9-9.9-3.2-2.5-7.1-2.7-10.2-.5m-151.5 29.2c-2.4 2.7-2.1 5.8.9 8.1 2.6 2.1 3.5 2.1 57.4 2.1s54.8 0 57.4-2.1c3-2.4 3.4-5.9.8-8.2-1.7-1.5-7.2-1.7-58.4-1.7-53.5 0-56.6.1-58.1 1.8m240 11c-2.4 2.6-2.1 6.8.5 8.6 2 1.4 11.7 1.6 84.3 1.6s82.3-.2 84.3-1.6c2.7-1.9 2.9-6.4.4-8.7-1.7-1.6-9-1.7-84.9-1.7-79.1 0-83.1.1-84.6 1.8"/></g></svg>