<svg version="1.1" xmlns="http://www.w3.org/2000/svg" style="display: block;" viewBox="0 0 2048 2048" width="1024" height="1024">
<path transform="translate(0,0)" fill="rgb(255,247,232)" d="M 0 0 L 2048 0 L 2048 2048 L 0 2048 L 0 0 z"/>
<path transform="translate(0,0)" fill="rgb(14,24,50)" d="M 825.707 134.364 L 1495.27 134.411 L 1717.07 134.389 L 1788.58 134.325 C 1801.23 134.309 1814.14 133.712 1826.75 134.468 C 1831.24 134.737 1834.75 135.712 1837.96 139 C 1840.88 141.982 1842.44 145.122 1842.82 149.27 C 1843.72 159.044 1843.04 169.376 1843.03 179.225 L 1842.95 240.15 L 1842.95 431.368 L 1842.92 1039.87 C 1872.73 1040.4 1901.06 1051.09 1923.04 1071.47 C 1947.77 1094.41 1958.18 1124.33 1959.29 1157.48 C 1960.35 1189.28 1959.5 1221.38 1959.49 1253.2 L 1959.51 1429.07 L 1959.58 1524.29 C 1959.59 1543.46 1961.08 1564.31 1957.91 1583.25 C 1954.57 1603.23 1945.3 1622.97 1931.31 1637.7 C 1909.49 1660.7 1879.67 1669.53 1848.77 1670.22 C 1849.65 1704.7 1854.36 1739.86 1857.29 1774.27 C 1858.44 1787.83 1860.44 1802.01 1860 1815.61 C 1859.82 1821.19 1859.05 1827.34 1856.51 1832.38 C 1854.11 1837.14 1848.65 1840.44 1843.68 1841.92 C 1835.91 1844.24 1787 1844.16 1777.23 1843.02 C 1774.15 1842.66 1770.82 1841.99 1768.12 1840.38 C 1763.14 1837.43 1759.78 1830.32 1757.59 1825.14 C 1750.67 1808.79 1746.53 1789.92 1741.44 1772.86 L 1710.98 1670.65 L 1224.25 1670.72 L 337.602 1670.74 C 327.132 1704.63 316.875 1738.58 306.833 1772.59 C 301.803 1789.41 297.576 1807.5 290.81 1823.68 C 288.574 1829.03 285.279 1835.61 280.678 1839.3 C 277.569 1841.8 273.653 1842.62 269.767 1843.07 C 257.938 1844.46 245.308 1843.08 233.387 1843.05 C 224.783 1843.03 216.053 1843.95 207.476 1843.16 C 201.037 1842.57 193.9 1840.21 189.809 1834.87 C 186.547 1830.61 185.897 1823.5 185.776 1818.34 C 185.412 1802.93 188.413 1786.22 189.957 1770.85 L 200.294 1670.22 C 178.68 1670.03 157.942 1666.3 138.982 1655.46 C 115.412 1641.99 98.2892 1619.57 91.5037 1593.28 C 84.9838 1568.28 87.9446 1513.24 87.9624 1485.78 L 87.9517 1313.46 L 87.9418 1208.51 C 87.9436 1188.13 86.8861 1166.98 88.8176 1146.68 C 90.5488 1128.49 95.8659 1110.39 105.221 1094.64 C 120.8 1068.41 145.68 1050.78 174.995 1043.17 C 174.838 1038.94 174.748 1034.71 174.726 1030.47 L 174.67 918.679 C 174.673 876.748 171.535 832.627 182.945 791.889 C 191.482 761.733 207.681 734.302 229.967 712.265 C 255.84 686.525 288.543 668.733 324.21 660.995 C 353.697 654.559 383.985 655.901 413.968 655.903 L 499.907 655.939 L 810.87 655.956 C 809.305 548.769 810.762 441.366 810.76 334.151 L 810.754 212.264 C 810.752 193.406 809.492 173.699 810.694 154.933 C 810.959 150.804 811.668 146.563 813.71 142.904 C 816.428 138.034 820.496 135.792 825.707 134.364 z"/>
<path transform="translate(0,0)" fill="rgb(254,179,101)" d="M 1299.03 758.971 C 1324.56 796.255 1326.42 880.935 1338.33 926.802 C 1340.58 935.497 1346.16 942.744 1349.67 950.939 C 1357.62 969.542 1362.39 988.651 1365.97 1008.51 C 1348.85 1013.07 1307.62 1021.12 1293.7 1027.72 C 1291.8 1028.62 1290.18 1029.75 1289.18 1031.68 C 1287.7 1034.53 1287.21 1039.17 1288.63 1042.13 C 1290.02 1045.02 1293.29 1046.54 1296.27 1047.15 C 1308.74 1049.69 1354.02 1035.89 1368.45 1032.08 C 1368.16 1046.91 1367.81 1062.05 1363.51 1076.37 C 1349.32 1075.26 1299.3 1066 1290.15 1075.12 C 1288.12 1077.14 1287.71 1079.4 1287.82 1082.16 C 1287.93 1084.94 1288.87 1087.98 1291.03 1089.83 C 1297.4 1095.33 1345.07 1098.1 1356.81 1100.36 C 1345.24 1127.92 1326.7 1156.44 1301.69 1173.71 C 1294.24 1178.85 1282.52 1183.87 1276.88 1190.82 C 1273.86 1194.53 1273.75 1199.64 1275.59 1203.91 C 1276.81 1206.72 1278.37 1208.91 1281.53 1209.69 C 1291.48 1212.16 1308.05 1199.15 1315.52 1193.55 C 1347.82 1169.33 1368.12 1138.91 1382.88 1101.83 C 1393.39 1103.02 1419.96 1108.75 1428.19 1100.89 C 1430.25 1098.91 1431.15 1096.92 1431.09 1094.07 C 1431.02 1090.96 1429.94 1088.04 1427.66 1085.86 C 1420.07 1078.61 1398.44 1080.52 1388.34 1079.04 C 1392.21 1061.98 1393.43 1045.09 1393.21 1027.61 C 1411.27 1024.72 1428.92 1021.94 1447.27 1022 C 1461.95 1021.95 1476.47 1022.16 1491.07 1023.93 C 1514.26 1026.98 1535.23 1032.99 1556.99 1041.27 C 1570.9 1047.36 1584.74 1053.77 1597.47 1062.12 C 1649.96 1097.84 1686.28 1152.79 1698.57 1215.08 C 1707.96 1262.47 1703.15 1315.99 1675.35 1356.76 C 1654.41 1387.46 1623.51 1404.91 1587.3 1411.47 C 1560.04 1416.41 1531.85 1416.11 1504.24 1416.15 L 1429.36 1416.12 C 1432.14 1407.73 1440.12 1393.95 1435.03 1385.5 C 1434.06 1383.9 1432.34 1383.2 1430.51 1383.31 C 1425.11 1383.63 1420.06 1389.39 1417.38 1393.57 C 1412.9 1400.53 1411.03 1408.73 1409.4 1416.74 L 1388.21 1416.92 C 1390.33 1406.39 1392.99 1397.26 1397.94 1387.7 C 1400.09 1383.53 1404.32 1377.78 1405.47 1373.4 C 1406.08 1371.06 1405.41 1369.25 1404.07 1367.34 C 1402.41 1364.97 1398.41 1363.31 1395.64 1363.57 C 1389.89 1364.12 1385.35 1370.35 1382.47 1374.75 C 1374.98 1386.19 1371.29 1399.52 1368.81 1412.84 C 1362.96 1407.79 1358.61 1403.64 1358.17 1395.36 C 1357.53 1383.13 1362.97 1370.08 1371.37 1361.41 C 1391.07 1341.07 1427.28 1336.94 1454.03 1337.1 C 1465.77 1337.17 1489.76 1346.76 1497.85 1338.44 C 1499.98 1336.25 1501.32 1333.17 1501.06 1330.09 C 1500.77 1326.67 1498.48 1324.11 1495.82 1322.22 C 1489.99 1318.07 1482.34 1316.33 1475.56 1314.36 C 1464.37 1295.05 1461.13 1274.42 1466.81 1252.67 C 1472.12 1232.34 1484.34 1214.6 1500.26 1201.08 C 1504.8 1197.22 1511.35 1193.49 1514.88 1188.75 C 1517.75 1184.89 1519 1179.64 1516.18 1175.36 C 1514.43 1172.71 1511.86 1171 1508.65 1170.67 C 1499.18 1169.7 1488.6 1179.15 1481.97 1185.09 C 1458.04 1206.48 1441.55 1235.46 1439.97 1267.95 C 1439.18 1284 1441.39 1299.07 1447.57 1313.93 C 1414.22 1314.05 1380.27 1319.23 1355.58 1343.8 C 1347.54 1351.8 1342.21 1360.8 1337.48 1371.02 C 1314.09 1371.1 1290.85 1373.8 1267.54 1374.18 C 1275.56 1364.88 1302.33 1340.71 1300.74 1328.86 C 1300.34 1325.93 1299.27 1324.01 1296.91 1322.25 C 1294.64 1320.57 1292.78 1320.12 1289.96 1320.54 C 1287.01 1320.97 1283.99 1322.98 1281.71 1324.78 C 1272.91 1331.73 1265.57 1341.09 1257.34 1348.77 C 1243.43 1361.75 1227.8 1373.51 1212.16 1384.33 C 1162.5 1418.69 1108.24 1445.63 1054.76 1473.4 C 1030.86 1485.81 1006.87 1500.12 982.181 1510.75 C 983.881 1503.22 992.533 1483.64 988.253 1477.58 C 986.868 1475.62 983.967 1473.66 981.564 1473.32 C 979.044 1472.96 976.736 1474.2 974.964 1475.87 C 965.277 1485.04 962.386 1505.35 961.186 1518.05 C 952.062 1518.04 942.909 1518.18 933.789 1517.94 C 935.757 1507.88 938.078 1498.93 942.235 1489.55 C 944.338 1484.81 947.902 1479.14 949.145 1474.18 C 949.744 1471.79 949.512 1470.03 948.168 1467.89 C 946.821 1465.74 944.196 1464.18 941.716 1463.82 C 938.393 1463.35 935.444 1465.07 933.111 1467.24 C 921.745 1477.81 917.293 1497.94 913.416 1512.46 C 906.875 1506.4 903.776 1501.53 903.381 1492.41 C 902.36 1468.89 920.779 1444.74 936.179 1428.81 C 956.436 1407.87 987.895 1381.95 1012.7 1367.36 C 1022.9 1359.87 1033.23 1352.33 1043.97 1345.61 L 1080.1 1319.33 L 1105.91 1299.11 C 1116.61 1290.35 1145.81 1270.09 1150.04 1258.22 C 1151.18 1255.04 1150.67 1251.13 1148.89 1248.26 C 1147.14 1245.43 1144.25 1244.09 1141.05 1243.75 C 1137.88 1243.42 1134.82 1244.17 1132.07 1245.73 C 1120.89 1252.06 1110.72 1262.45 1100.88 1270.68 C 1085.77 1283.47 1070.38 1295.91 1054.72 1308.01 C 988.425 1293.61 900.762 1314.17 837.051 1334.16 C 807.87 1343.32 778.888 1354.59 749.303 1362.26 C 751.062 1353.7 760.499 1335.58 756.697 1328.09 C 755.607 1325.94 753.807 1324.88 751.584 1324.25 C 748.72 1323.43 746.248 1324.05 743.828 1325.69 C 733.801 1332.47 730.384 1354.53 728.618 1365.55 C 721.039 1366.14 713.331 1365.94 705.727 1366 C 706.084 1359.52 707.064 1353.12 709.08 1346.94 C 711.314 1340.1 721.882 1323.82 720.027 1317.33 C 719.35 1314.96 717.261 1312.76 715.09 1311.68 C 712.566 1310.42 710.414 1310.73 707.937 1311.89 C 695.867 1317.52 689.367 1341.94 686.345 1353.53 L 684.955 1353.52 C 683.753 1351.96 682.643 1350.53 681.925 1348.67 C 678.052 1338.67 680.749 1326.07 685.234 1316.75 C 702.826 1280.17 764.396 1256.38 801.174 1243.26 C 811.06 1239.28 821.152 1235.69 831.126 1231.93 L 871.763 1216.69 L 900.96 1205.02 C 915.937 1198.52 930.706 1191.9 945.046 1184.08 C 955.17 1191.38 965.382 1198.16 976.483 1203.9 C 990.85 1211.34 1046.25 1234.42 1061.42 1229.08 C 1065.46 1227.66 1070.17 1224.48 1071.76 1220.3 C 1072.64 1217.98 1072.95 1215.72 1071.74 1213.44 C 1069.98 1210.1 1066.38 1208.2 1063.01 1206.87 C 1054.41 1203.47 1044.38 1202.43 1035.37 1200.29 C 1023.85 1197.55 1012.31 1193.18 1001.46 1188.47 C 959.063 1170.05 928.974 1142.41 911.932 1099.09 C 920.782 1098.08 929.622 1096.98 938.45 1095.79 C 940.656 1094.92 943.239 1094.07 944.918 1092.32 C 946.789 1090.38 947.488 1087.71 947.502 1085.1 C 947.525 1080.72 945.043 1077.28 942.201 1074.24 C 931.046 1072.28 917.969 1075.14 906.746 1076.23 C 905.333 1067.29 904.746 1058.37 904.17 1049.35 C 913.151 1051.62 926.188 1056.45 935.291 1054 C 938.435 1053.16 940.545 1051.47 941.948 1048.52 C 943.359 1045.55 943.207 1040.89 941.634 1038.08 C 937.361 1030.44 913.222 1027.26 904.544 1025.14 C 909.166 1003.23 914.311 982.495 923.046 961.759 C 926.837 952.761 933.142 944.146 935.978 934.892 C 939.746 922.594 939.891 908.288 941.377 895.534 C 943.49 877.411 956.195 783.85 971.195 775.514 C 973.652 774.148 975.728 774.471 978.308 775.259 C 1001.5 782.348 1050.83 834.963 1063.71 857.873 C 1064.14 858.185 1064.55 858.536 1065.02 858.808 C 1069.86 861.652 1088.97 856.675 1094.94 855.642 C 1100.89 854.826 1106.86 854.268 1112.83 853.66 C 1124.49 851.556 1137.79 852.014 1149.66 852.006 L 1171.66 852.263 C 1181.99 853.054 1192.31 853.713 1202.54 855.416 C 1210.86 850.852 1219.15 836.186 1225.02 828.538 C 1243.6 804.319 1271.09 771.359 1299.03 758.971 z"/>
<path transform="translate(0,0)" fill="rgb(247,143,66)" d="M 1112.83 853.66 C 1124.49 851.556 1137.79 852.014 1149.66 852.006 L 1149.53 852.819 C 1148.31 861.008 1148.42 869.431 1147.6 877.683 C 1145.7 896.93 1139.42 944.745 1123.55 956.177 C 1120.79 958.167 1117.55 959.002 1114.18 958.399 C 1111.39 957.899 1109.4 956.235 1107.97 953.88 C 1105.18 949.293 1104.79 943.324 1104.38 938.079 C 1102.89 919.21 1105.86 901.025 1109.16 882.525 C 1110.83 873.168 1113.49 863.182 1112.83 853.66 z"/>
<path transform="translate(0,0)" fill="rgb(247,143,66)" d="M 1105.91 1299.11 C 1133.06 1305.32 1167.5 1319.36 1183.12 1344.1 C 1186.23 1349.03 1188.15 1353.56 1186.88 1359.45 C 1185.81 1364.39 1183.11 1369.74 1178.68 1372.46 C 1175.97 1374.13 1172.86 1374.57 1169.82 1373.64 C 1159.33 1370.43 1142.31 1352.15 1131.79 1345.33 C 1120.38 1337.93 1107.96 1331.72 1095.59 1326.09 C 1090.53 1323.79 1084.95 1321.98 1080.1 1319.33 L 1105.91 1299.11 z"/>
<path transform="translate(0,0)" fill="rgb(247,143,66)" d="M 1447.27 1022 C 1461.95 1021.95 1476.47 1022.16 1491.07 1023.93 C 1498.72 1050.11 1511.62 1082.18 1502.1 1109.43 C 1500.45 1114.15 1497.58 1118.33 1492.83 1120.31 C 1489.26 1121.79 1485.14 1122.16 1481.58 1120.51 C 1470.79 1115.49 1466.56 1066.85 1462.14 1053.72 C 1458.43 1042.69 1451.5 1032.87 1447.27 1022 z"/>
<path transform="translate(0,0)" fill="rgb(247,143,66)" d="M 1012.7 1367.36 C 1022.9 1359.87 1033.23 1352.33 1043.97 1345.61 C 1065.59 1357.33 1097.02 1378.83 1103.85 1404.22 C 1105.05 1408.69 1104.96 1413.25 1102.43 1417.24 C 1099.74 1421.49 1094.49 1424.84 1089.54 1425.64 C 1086.54 1426.13 1084.39 1425.48 1081.98 1423.67 C 1072.51 1416.59 1065.24 1404.53 1056.8 1396.01 C 1043.75 1382.82 1028.29 1376.53 1012.7 1367.36 z"/>
<path transform="translate(0,0)" fill="rgb(247,143,66)" d="M 1063.71 857.873 C 1064.14 858.185 1064.55 858.536 1065.02 858.808 C 1069.86 861.652 1088.97 856.675 1094.94 855.642 C 1094.95 877.95 1091.73 932.127 1075.67 948.11 C 1072.62 951.146 1068.63 953.094 1064.27 952.9 C 1061.41 952.772 1059.37 951.543 1057.57 949.342 C 1049.53 939.547 1055.13 889.245 1057.7 875.94 C 1058.83 870.141 1060.18 862.691 1063.71 857.873 z"/>
<path transform="translate(0,0)" fill="rgb(247,143,66)" d="M 1171.66 852.263 C 1181.99 853.054 1192.31 853.713 1202.54 855.416 C 1197.45 881.432 1198.79 916.578 1183.52 939.493 C 1179.46 945.593 1174.55 948.597 1167.17 949.394 C 1165.8 949.541 1164.4 949.761 1163.33 948.802 C 1148.57 935.585 1164.24 887.136 1168.65 869.378 C 1169.75 864.927 1172.3 858.106 1171.85 853.67 C 1171.8 853.199 1171.72 852.732 1171.66 852.263 z"/>
<path transform="translate(0,0)" fill="rgb(247,143,66)" d="M 1556.99 1041.27 C 1570.9 1047.36 1584.74 1053.77 1597.47 1062.12 C 1595.29 1080.19 1597.21 1110.46 1588.77 1126.61 C 1586.62 1130.73 1583.5 1133.9 1578.9 1135.08 C 1574.7 1136.15 1570.41 1135.45 1566.83 1133 C 1563.39 1130.62 1560.99 1127.01 1560.12 1122.92 C 1558.5 1114.89 1560.48 1104.56 1560.81 1096.28 C 1561.56 1077.44 1561.05 1059.76 1556.99 1041.27 z"/>
<path transform="translate(0,0)" fill="rgb(247,143,66)" d="M 871.763 1216.69 L 900.96 1205.02 C 901.163 1205.31 901.363 1205.6 901.571 1205.89 C 914.661 1224.15 926.577 1231.38 936.094 1254.18 C 938.177 1259.17 940.137 1264.37 939.172 1269.88 C 938.538 1273.5 937.061 1277.59 933.883 1279.66 C 931.829 1281 928.866 1280.94 926.569 1280.26 C 922.852 1279.15 919.434 1276.67 916.628 1274.05 C 908.901 1266.84 876.437 1226.71 872.2 1217.77 C 872.033 1217.42 871.909 1217.05 871.763 1216.69 z"/>
<path transform="translate(0,0)" fill="rgb(247,143,66)" d="M 801.174 1243.26 C 811.06 1239.28 821.152 1235.69 831.126 1231.93 C 831.183 1232.25 831.232 1232.58 831.298 1232.9 C 832.748 1240.02 839.546 1247.32 843.339 1253.6 C 850.438 1265.35 859.485 1287.26 851.656 1300.07 C 850.307 1302.28 848.316 1304.38 845.67 1304.89 C 841.6 1305.66 837.241 1302.84 834.352 1300.27 C 818.182 1285.85 815.452 1259.42 801.174 1243.26 z"/>
<path transform="translate(0,0)" fill="rgb(254,190,193)" d="M 942.201 1074.24 C 942.87 1070.43 944.938 1067.48 948.032 1065.12 C 952.066 1062.03 957.928 1061.27 962.819 1062.13 C 968.585 1063.16 974.554 1067.14 977.83 1071.99 C 981.382 1077.24 983.039 1084.91 981.729 1091.13 C 980.432 1097.29 976.145 1102.24 970.782 1105.33 C 964.417 1109.01 956.147 1110.31 949.046 1108.18 C 944.229 1106.73 940.62 1103.94 938.325 1099.49 L 938.45 1095.79 C 940.656 1094.92 943.239 1094.07 944.918 1092.32 C 946.789 1090.38 947.488 1087.71 947.502 1085.1 C 947.525 1080.72 945.043 1077.28 942.201 1074.24 z"/>
<path transform="translate(0,0)" fill="rgb(14,24,50)" d="M 1080.06 1037.16 C 1092.61 1036.43 1115.32 1036.07 1126.3 1043.14 C 1128.84 1044.78 1129.31 1046.2 1129.78 1048.95 C 1126.82 1059.81 1113.61 1066.48 1104.85 1072.5 C 1103.71 1076.13 1104.77 1080.33 1105.26 1084.05 C 1107.79 1087.8 1110.24 1091.04 1113.67 1094.05 C 1132.49 1110.59 1139.61 1084.17 1155.78 1082.97 C 1157.65 1083.87 1158.32 1083.94 1159.57 1085.7 C 1162.19 1089.39 1163.19 1094.74 1162.39 1099.17 C 1160.99 1106.94 1154.44 1112.71 1148.12 1116.77 C 1135.79 1124.67 1123.99 1124.24 1110.29 1121.39 C 1103.96 1118.97 1098.97 1115.42 1093.55 1111.45 C 1085.04 1117.76 1076.56 1121.88 1065.71 1122 C 1054.92 1122.09 1044.53 1117.91 1036.81 1110.37 C 1032.4 1106.04 1029.32 1100.49 1029.56 1094.17 C 1029.75 1089.25 1031.66 1085.12 1035.36 1081.93 C 1048.03 1078.66 1052.1 1095.58 1062.59 1099.09 C 1065.28 1100 1068.23 1099.8 1070.76 1098.51 C 1076.13 1095.75 1080.06 1088.01 1081.87 1082.45 C 1085.35 1071.74 1071.79 1063.12 1067.7 1054.36 C 1066.23 1051.21 1065.36 1047.1 1067.09 1043.87 C 1069.56 1039.24 1075.42 1038.11 1080.06 1037.16 z"/>
<path transform="translate(0,0)" fill="rgb(14,24,50)" d="M 1303.69 884.294 C 1304.61 885.952 1305.38 887.671 1305.84 889.523 C 1306.51 892.297 1306.06 895.765 1304.28 898.052 C 1302.3 900.591 1298.99 901.339 1295.94 901.238 C 1284.74 900.868 1257.02 882.31 1249.24 873.892 C 1246.43 870.845 1243.17 865.857 1244.06 861.447 C 1245.5 854.305 1273.46 818.726 1280.51 814.971 C 1283.6 813.33 1285.82 813.206 1289.19 814.278 C 1291.64 816.214 1293.12 817.97 1294.09 821.005 C 1295.73 826.15 1292.81 831.156 1290.43 835.532 L 1289.7 836.85 C 1297.3 844.447 1304.39 871.068 1304.02 881.886 C 1303.99 882.674 1303.82 883.53 1303.69 884.294 z"/>
<path transform="translate(0,0)" fill="rgb(254,190,193)" d="M 1289.7 836.85 C 1297.3 844.447 1304.39 871.068 1304.02 881.886 C 1303.99 882.674 1303.82 883.53 1303.69 884.294 C 1294.75 874.993 1282.31 868.254 1271.54 861.26 C 1277.1 852.86 1283.64 844.904 1289.7 836.85 z"/>
<path transform="translate(0,0)" fill="rgb(14,24,50)" d="M 979.401 846.201 C 979.304 845.872 979.203 845.544 979.111 845.214 C 977.851 840.727 977.595 837.31 979.993 833.151 C 981.115 831.205 982.824 828.98 985.027 828.214 C 988.41 827.038 992.185 828.769 994.952 830.616 C 1000.75 834.489 1025.89 862.804 1026.78 868.842 C 1027.6 874.441 1022.06 880.688 1018.34 884.087 C 1009.98 891.731 981.975 914.36 971.226 913.075 C 968.742 912.778 966.593 911.932 965.166 909.755 C 963.45 907.137 963.131 902.284 964.076 899.304 C 965.632 894.395 970.411 891.068 974.207 887.909 C 973.982 887.421 973.727 886.939 973.589 886.42 C 972.036 880.61 976.9 851.736 979.401 846.201 z"/>
<path transform="translate(0,0)" fill="rgb(254,190,193)" d="M 979.401 846.201 C 985.315 854.443 991.723 862.204 998.198 870.003 C 990.338 876.152 982.339 882.123 974.207 887.909 C 973.982 887.421 973.727 886.939 973.589 886.42 C 972.036 880.61 976.9 851.736 979.401 846.201 z"/>
<path transform="translate(0,0)" fill="rgb(14,24,50)" d="M 999.208 994.074 C 1003.08 994.057 1006.52 994.221 1010.13 995.734 C 1016.34 998.331 1020.96 1003.28 1023.18 1009.62 C 1025.73 1016.92 1025.35 1025.86 1021.95 1032.83 C 1018.33 1040.25 1012.89 1043.71 1005.26 1046.28 C 1003.09 1046.23 1000.94 1045.92 998.846 1045.37 C 992.245 1043.63 986.682 1039.19 983.517 1033.14 C 980.027 1026.28 979.492 1018.29 982.036 1011.03 C 985.123 1002.27 991.003 997.74 999.208 994.074 z"/>
<path transform="translate(0,0)" fill="rgb(254,190,193)" d="M 1229.36 1075.35 C 1242.18 1072.94 1254.54 1081.33 1257.05 1094.13 C 1259.56 1106.93 1251.27 1119.36 1238.49 1121.97 C 1225.57 1124.61 1212.96 1116.21 1210.43 1103.26 C 1207.89 1090.32 1216.39 1077.78 1229.36 1075.35 z"/>
<path transform="translate(0,0)" fill="rgb(14,24,50)" d="M 1196.16 997.135 C 1199.14 996.963 1202.1 996.962 1205.01 997.753 C 1210.69 999.299 1215.58 1003.51 1218.22 1008.73 C 1221.95 1016.08 1222.25 1025.31 1219.32 1032.99 C 1216.24 1041.09 1211.49 1044.93 1203.78 1048.4 C 1200.88 1048.4 1197.84 1048.36 1195.03 1047.57 C 1188.56 1045.76 1183.03 1040.85 1180.18 1034.82 C 1176.93 1027.95 1176.8 1019.58 1179.65 1012.55 C 1182.93 1004.47 1188.36 1000.48 1196.16 997.135 z"/>
<path transform="translate(0,0)" fill="rgb(181,164,233)" d="M 1616.22 1197.7 C 1625.8 1197.24 1633.99 1204.56 1634.6 1214.13 C 1635.22 1223.71 1628.04 1232.02 1618.47 1232.79 C 1612.14 1233.3 1606.03 1230.36 1602.48 1225.09 C 1598.93 1219.83 1598.5 1213.06 1601.34 1207.38 C 1604.19 1201.7 1609.88 1198 1616.22 1197.7 z"/>
<path transform="translate(0,0)" fill="rgb(254,190,193)" d="M 410.418 681.502 L 1192.56 681.444 L 1448.73 681.476 C 1495.2 681.457 1541.86 680.584 1588.31 681.612 C 1633.84 682.619 1672.39 697.909 1704.04 731.312 C 1760.82 791.255 1753.84 862.02 1751.97 937.646 C 1748.46 922.265 1743.55 907.239 1737.3 892.754 C 1709.72 828.191 1656.35 768.138 1590.29 742.004 C 1564.86 731.94 1532.26 724.513 1506.06 736.005 C 1491.55 742.397 1480.17 754.269 1474.39 769.028 C 1469.95 780.48 1469.09 793.549 1471.27 805.593 C 1480.44 856.129 1538.39 867.642 1574.73 892.91 C 1596.32 907.922 1614.95 928.521 1625.51 952.773 C 1639.56 985.035 1638.58 1018.3 1626.01 1050.65 C 1622.66 1048.1 1619.23 1045.64 1615.75 1043.27 C 1551.07 999.368 1466.47 988.131 1390.55 1002.6 C 1388.1 983.45 1381.83 963.261 1373.83 945.726 C 1369.52 936.277 1363.74 926.542 1361 916.529 C 1357.95 905.381 1357.18 892.547 1355.47 881.082 C 1350.77 849.516 1340.31 766.931 1317.74 744.166 C 1312.74 739.124 1306.31 735.891 1299.12 735.926 C 1274.94 736.045 1242.93 771.554 1227.05 788.361 C 1215.21 801.269 1204.08 814.806 1193.69 828.915 C 1162.83 824.197 1107.86 826.213 1077.27 832.177 C 1056.71 803.21 1015.87 759.457 981.315 749.815 C 973.861 747.735 966.07 748.255 959.427 752.459 C 932.665 769.397 922.061 852.004 918.411 882.813 C 916.709 897.183 916.725 913.13 912.954 927.008 C 910.344 936.615 903.445 945.678 899.509 954.914 C 890.586 975.85 885.02 997.629 880.62 1019.88 C 869.388 1016.9 845.48 1008.11 835.22 1011.46 C 832.233 1012.43 829.847 1014.54 828.649 1017.49 C 827.415 1020.52 827.45 1024.01 829.149 1026.85 C 835.825 1038.03 867.225 1040.75 879.311 1043.02 C 878.696 1055.27 880.111 1067.57 881.399 1079.74 C 869.745 1081.04 840.827 1083.27 832.227 1089.78 C 829.706 1091.68 828 1094.33 827.827 1097.56 C 827.65 1100.87 828.942 1103.87 831.573 1105.92 C 840.542 1112.89 875.389 1104.45 887.145 1102.65 C 895.499 1127.74 907.557 1147.41 924.974 1167.16 C 912.654 1173.22 853.701 1198.23 842.871 1199.18 C 833.251 1200.03 822.936 1198.29 813.253 1197.74 C 801.286 1197.06 789.322 1196.96 777.339 1196.88 C 771.238 1177.64 762.745 1162.85 751.78 1146.09 C 755.625 1051.68 746.714 943.707 708.305 856.427 C 712.758 833.123 718.497 804.797 711.698 781.537 C 708.884 771.911 703.489 763.718 694.486 758.939 C 674.563 748.363 646.544 763.126 628.721 772.604 C 622.205 776.069 614.717 781.116 607.365 782.167 C 598.014 783.505 588.02 782.182 578.624 781.655 C 565.457 780.814 552.265 780.41 539.071 780.443 C 472.085 781.211 409.054 789.324 344.834 808.53 C 319.057 801.593 289.189 791.385 262.348 794.601 C 252.111 795.827 241.935 799.724 235.632 808.282 C 213.238 838.692 251.03 882.422 254.143 912.19 C 255.618 926.291 252.882 941.258 253.237 955.511 C 253.974 985.164 257.748 1014.46 262.437 1043.71 C 242.915 1037.98 220.356 1039.45 200.167 1039.86 L 200.127 919.514 C 200.143 883.288 197.058 843.614 205.493 808.241 C 212.514 778.791 226.981 750.439 248.372 728.828 C 294.387 682.338 349.541 681.953 410.418 681.502 z"/>
<path transform="translate(0,0)" fill="rgb(181,164,233)" d="M 817.169 798.844 C 827.632 796.49 838.553 799.944 845.757 807.888 C 852.962 815.832 855.338 827.037 851.976 837.221 C 848.615 847.405 840.036 854.994 829.518 857.088 C 813.534 860.27 797.961 850.008 794.581 834.064 C 791.201 818.12 801.269 802.422 817.169 798.844 z"/>
<path transform="translate(0,0)" fill="rgb(181,164,233)" d="M 1484.74 925.263 C 1497.15 923.149 1508.94 931.475 1511.09 943.88 C 1513.24 956.285 1504.94 968.091 1492.55 970.278 C 1480.1 972.473 1468.23 964.14 1466.07 951.683 C 1463.91 939.227 1472.28 927.386 1484.74 925.263 z"/>
<path transform="translate(0,0)" fill="rgb(254,190,193)" d="M 1695.98 1464.05 C 1696.04 1464.1 1696.11 1464.13 1696.16 1464.19 C 1696.17 1464.21 1697.19 1465.95 1697.2 1466 C 1698.59 1471.63 1697.24 1499.66 1697.23 1507.06 L 1697.37 1645.05 L 346.911 1645.02 L 346.891 1566.5 L 346.916 1465.06 C 355.07 1467.74 362.935 1469.61 371.49 1470.43 C 391.906 1472.4 413.69 1470.97 434.261 1470.96 L 555.216 1470.88 L 881.951 1470.86 C 879.107 1483.75 877.395 1497.89 881.967 1510.59 C 886.359 1522.78 895.933 1531.37 907.519 1536.67 C 952.385 1557.18 995.728 1534.21 1034.75 1512.81 C 1051.81 1503.46 1068.83 1494.1 1086.08 1485.09 C 1093.98 1480.95 1102.31 1474.19 1110.92 1471.99 C 1123.23 1468.83 1139.95 1470.76 1152.77 1470.81 L 1213.11 1470.92 L 1516.5 1470.92 L 1614.46 1470.96 C 1632.74 1470.96 1651.47 1471.79 1669.69 1470.38 C 1678.81 1469.67 1687.43 1467.19 1695.98 1464.05 z"/>
<path transform="translate(0,0)" fill="rgb(152,204,236)" d="M 1217.02 1546.63 C 1224.9 1544.91 1232.69 1549.89 1234.45 1557.76 C 1236.2 1565.64 1231.26 1573.45 1223.4 1575.24 C 1215.48 1577.05 1207.59 1572.07 1205.83 1564.14 C 1204.06 1556.21 1209.08 1548.35 1217.02 1546.63 z"/>
<path transform="translate(0,0)" fill="rgb(152,204,236)" d="M 673.133 781.116 C 675.234 780.945 677.535 780.627 679.635 780.771 C 682.33 780.956 684.036 782.131 685.763 784.154 C 695.607 795.686 685.422 845.512 683.145 860.257 C 714.147 925.881 724.84 1011.94 727.792 1083.92 C 728.505 1101.3 725.114 1135.25 728.119 1148.92 C 730.444 1159.5 738.689 1169.35 743.873 1178.78 C 746.985 1184.44 749.441 1190.35 751.819 1196.35 C 713.318 1195.09 674.46 1195.78 635.956 1196.82 C 559.476 1198.89 480.477 1202.57 406.121 1221.77 C 385.7 1227.05 366.411 1234.32 346.921 1242.31 L 346.918 1217.5 C 346.992 1191.82 349.547 1159.22 344.786 1134.3 C 338.29 1100.29 318.271 1074.49 290.212 1055.25 C 281.507 1021.97 278.19 983.601 277.917 949.208 C 277.8 934.494 281.353 917.786 278.255 903.387 C 274.217 884.618 248.538 842.706 254.56 826.209 C 255.546 823.51 257.476 821.778 260.071 820.65 C 277.223 813.196 323.663 829.459 341.613 835.752 C 405.363 815.519 471.901 805.449 538.783 805.913 C 552.889 805.889 567.05 806.679 581.131 807.438 C 590.597 807.948 601.184 809.413 610.585 807.879 C 620.606 806.244 630.646 799.199 639.665 794.624 C 650.532 789.112 661.292 784.137 673.133 781.116 z"/>
<path transform="translate(0,0)" fill="rgb(254,220,150)" d="M 495.329 873.812 C 498.203 874.138 500.548 874.803 502.708 876.784 C 516.22 889.173 527.357 930.105 544.056 947.161 C 558.012 961.415 586.011 963.116 604.104 970.09 C 608.421 971.754 614.094 974.77 615.506 979.587 C 619.102 991.857 583.201 1005.59 574.014 1010.86 C 568.525 1014.01 563.131 1017.79 558.659 1022.28 C 540.699 1040.35 545.472 1086.69 532.304 1104.09 C 529.642 1107.61 526.598 1108.16 522.495 1108.61 C 501.691 1096.64 493.85 1046.68 469.884 1030.39 C 455.46 1020.58 409.245 1016.27 402.261 1004.08 C 394.164 989.949 428.805 976.843 437.784 972.056 C 445.364 968.015 453.119 963.72 459.744 958.197 C 479.284 941.91 477.165 906.18 485.772 884.001 C 487.955 878.373 489.824 876.238 495.329 873.812 z"/>
<path transform="translate(0,0)" fill="rgb(126,170,226)" d="M 631.377 1064.05 C 633.561 1064.25 635.757 1064.48 637.884 1065.03 C 643.121 1066.41 647.723 1069.49 650.378 1074.3 C 652.328 1077.84 652.769 1082.01 651.599 1085.88 C 649.746 1091.89 644.69 1095.14 639.433 1097.94 C 635.982 1098.1 632.189 1098.39 628.912 1097.09 C 624.269 1095.24 620.476 1091.08 618.785 1086.41 C 617.239 1082.14 617.394 1077.19 619.515 1073.14 C 622.196 1068.02 626.05 1065.77 631.377 1064.05 z"/>
<path transform="translate(0,0)" fill="rgb(254,190,193)" d="M 1810.21 1064.41 C 1814.97 1064.2 1819.73 1064.06 1824.5 1063.97 C 1855.06 1063.54 1886.11 1070.25 1908.45 1092.52 C 1920.79 1104.82 1929.18 1122.62 1932.11 1139.71 C 1935.17 1157.54 1934.06 1176.68 1934.06 1194.72 L 1934.04 1274.48 L 1934.08 1547.92 C 1934 1576.3 1931.69 1602.82 1910.27 1623.78 C 1889.26 1644.34 1864.16 1645.13 1836.5 1645.02 L 1722.14 1645.02 L 1722.16 1327.72 C 1722.31 1299.88 1729.25 1276.44 1727.87 1247.25 C 1727.27 1235.12 1725.77 1223.06 1723.37 1211.16 C 1721.27 1200.9 1718.27 1190.46 1717.43 1180.02 C 1715.14 1151.55 1727.13 1117.58 1745.61 1096.02 C 1762.99 1075.74 1784 1066.57 1810.21 1064.41 z"/>
<path transform="translate(0,0)" fill="rgb(254,190,193)" d="M 209.656 1063.43 C 212.129 1063.23 214.583 1063.19 217.064 1063.18 C 246.444 1063.03 271.794 1069.03 293.044 1090.41 C 306.42 1103.87 316.814 1122.8 320.242 1141.53 C 323.656 1160.19 322.02 1181.13 322.012 1200.12 L 322.004 1293.75 L 322.009 1645.04 L 227.94 1645.03 C 196.023 1645.28 164.931 1647.03 139.565 1624.19 C 123.211 1609.47 115.234 1590.77 114.051 1569.01 C 112.453 1539.63 113.703 1509.52 113.7 1480.08 L 113.756 1307.65 L 113.691 1200.26 C 113.687 1180.86 112.145 1159.71 115.008 1140.51 C 117.624 1122.97 125.129 1105.18 137.128 1091.98 C 156.713 1070.44 181.767 1064.91 209.656 1063.43 z"/>
<path transform="translate(0,0)" fill="rgb(254,190,193)" d="M 628.733 1222.45 C 650.091 1221.39 671.731 1221.99 693.115 1221.99 C 725.345 1221.88 757.575 1221.95 789.803 1222.21 C 752.614 1237.32 711.386 1251.66 682.14 1280.17 C 666.429 1295.48 655.146 1315.07 655.021 1337.49 C 654.947 1350.76 659.512 1363.15 669.194 1372.41 C 708.152 1409.63 782.489 1378.62 825.651 1364.21 C 846.803 1357 868.248 1350.68 889.93 1345.28 C 935.389 1334.36 979.982 1328.1 1026.73 1327.74 C 985.459 1353.13 944.113 1383.15 911.468 1419.18 C 904.314 1427.68 897.974 1436.46 892.349 1446.03 L 505.551 1445.97 L 419.89 1446.08 C 404.925 1446.1 383.099 1448.27 368.965 1444.46 C 358.777 1441.71 352.444 1435.59 347.115 1426.81 C 346.34 1408.47 346.89 1389.91 346.879 1371.54 L 346.797 1271.4 C 429.995 1229.18 537.365 1226.12 628.733 1222.45 z"/>
<path transform="translate(0,0)" fill="rgb(152,204,236)" d="M 441.688 1328.33 C 449.746 1325.62 458.467 1329.99 461.111 1338.07 C 463.754 1346.15 459.307 1354.84 451.206 1357.42 C 443.197 1359.97 434.631 1355.58 432.017 1347.59 C 429.404 1339.61 433.721 1331 441.688 1328.33 z"/>
<path transform="translate(0,0)" fill="rgb(152,204,236)" d="M 539.849 1285.66 C 547.781 1285.29 554.533 1291.38 554.982 1299.3 C 555.432 1307.23 549.412 1314.04 541.488 1314.57 C 533.455 1315.1 526.529 1308.98 526.073 1300.94 C 525.617 1292.91 531.806 1286.04 539.849 1285.66 z"/>
<path transform="translate(0,0)" fill="rgb(254,220,150)" d="M 836.084 160.444 L 1415.23 160.361 C 1549.44 160.356 1683.81 158.898 1818 160.514 L 1818 1038.84 C 1804.53 1039.1 1791.59 1039.93 1778.39 1042.76 L 1778.58 630.879 L 1778.61 355.721 L 1778.69 266.983 C 1778.7 251.315 1779.49 235.162 1778.36 219.553 C 1778.03 215.007 1776.49 210.813 1773.45 207.368 C 1769.78 203.205 1765.49 202.173 1760.14 202.04 C 1703.07 200.626 1645.63 201.984 1588.52 201.982 L 1245.88 202.004 L 1011.32 202.035 L 937.615 201.943 C 923.682 201.906 909.522 201.342 895.624 202.101 C 889.928 202.412 885.456 203.233 881.324 207.476 C 877.633 211.266 876.071 216.21 875.562 221.365 C 874.007 237.126 875.019 253.869 875.023 269.744 L 875.056 360.86 L 875.115 656.002 L 836.011 655.992 L 836.084 160.444 z"/>
<path transform="translate(0,0)" fill="rgb(181,164,233)" d="M 900.097 227.95 L 1753.09 227.943 L 1753.19 298.86 C 1727.78 298.286 1702.26 298.714 1676.84 298.686 C 1676.8 287.633 1678.75 274.814 1676.2 264.051 C 1674.33 256.177 1670.35 252.425 1663.75 248.161 C 1637.69 246.017 1606.31 246.478 1580.31 248.199 C 1577.81 249.715 1575.37 251.481 1573.34 253.605 C 1570.42 256.666 1569.6 260.53 1569.03 264.593 C 1567.76 273.627 1568.57 283.25 1568.62 292.374 L 1568.89 344.079 L 1530.96 344.036 C 1531.2 331.522 1532.92 319.87 1525.07 309.19 C 1522.68 307.512 1520.4 306.061 1517.51 305.421 C 1503.8 302.382 1472.7 304.636 1457.08 304.743 C 1457.08 298.322 1457.97 290.757 1456.75 284.482 C 1455.28 276.89 1451.11 273.2 1444.9 269.118 C 1431.82 268.094 1368.7 266.246 1360.1 271.239 C 1356.33 273.43 1352.6 277.895 1351.4 282.11 C 1347.85 294.652 1350.2 335.038 1350.23 350.326 L 1350.2 485.432 C 1350.2 495.925 1352.19 518.305 1349.32 527.281 C 1347.07 528.225 1345.07 527.754 1342.74 527.439 C 1337.33 523.062 1264.81 352.157 1253.73 327.687 C 1249.06 317.378 1244.48 304.861 1232.75 300.891 C 1213.19 294.27 1186.04 310.935 1169.15 319.937 C 1168.72 308.506 1170.98 295.601 1168.57 284.462 C 1166.91 276.759 1163.25 273.196 1156.73 269.15 C 1127.64 267.743 1097.26 268.061 1068.15 269.131 C 1065.8 270.719 1063.24 272.244 1061.32 274.355 C 1054.03 282.358 1055.86 295.062 1056.03 305.082 L 994.622 304.996 C 994.753 298.682 995.474 291.407 994.393 285.204 C 993.023 277.346 989.173 273.507 982.819 269.131 C 955.498 267.473 927.474 268.726 900.075 268.769 L 900.097 227.95 z"/>
<path transform="translate(0,0)" fill="rgb(254,220,150)" d="M 900.131 553.293 L 1753.29 553.449 L 1753.18 595.825 L 900.054 595.855 C 899.955 581.668 899.981 567.48 900.131 553.293 z"/>
<path transform="translate(0,0)" fill="rgb(181,164,233)" d="M 900.129 620.99 L 1753.07 621.01 C 1752.72 665.493 1753.55 709.994 1752.95 754.475 C 1743.81 738.316 1732.5 723.478 1719.35 710.371 C 1693.01 684.007 1659.32 666.22 1622.69 659.343 C 1591.46 653.325 1557.51 655.758 1525.74 655.756 L 1387.07 655.785 L 900.161 655.96 L 900.129 620.99 z"/>
<path transform="translate(0,0)" fill="rgb(152,204,236)" d="M 900.047 294.863 L 969.514 294.748 L 969.614 522.25 C 969.787 524.197 969.78 525.314 969.071 527.146 C 961.693 529.52 911.537 527.872 900.115 527.872 C 898.919 450.294 900.056 372.462 900.047 294.863 z"/>
<path transform="translate(0,0)" fill="rgb(152,204,236)" d="M 1676.85 325.099 C 1702.28 325.526 1727.76 325.202 1753.19 325.213 L 1753.16 527.88 L 1676.89 527.917 L 1676.85 325.099 z"/>
<path transform="translate(0,0)" fill="rgb(254,179,101)" d="M 1081.34 294.449 C 1102.2 294.195 1123.15 293.96 1144.01 294.489 L 1144.09 475.838 C 1144.09 484.765 1145.56 520.732 1143.9 526.064 C 1143.67 526.79 1143.15 527.387 1142.78 528.049 L 1080.39 528.026 L 1080.56 356.419 C 1080.56 344.468 1078.77 303.393 1081.34 294.449 z"/>
<path transform="translate(0,0)" fill="rgb(254,220,150)" d="M 1593.97 273.845 L 1651.97 273.883 L 1651.98 528.01 L 1593.97 528.006 L 1593.97 273.845 z"/>
<path transform="translate(0,0)" fill="rgb(152,204,236)" d="M 1375.06 294.747 L 1432.02 294.702 L 1432.11 527.848 C 1413.11 527.76 1394.12 527.792 1375.13 527.944 C 1374.14 450.274 1375.07 372.432 1375.06 294.747 z"/>
<path transform="translate(0,0)" fill="rgb(254,179,101)" d="M 1582.6 867.68 C 1561.95 855.639 1537.11 845.478 1517.99 831.928 C 1506.33 823.663 1497.18 813.261 1495.02 798.605 C 1493.47 788.141 1495.73 777.108 1502.19 768.606 C 1508.18 760.721 1516.88 756.293 1526.62 755.126 C 1565.3 750.494 1610.22 777.55 1638.93 800.671 C 1647.29 807.796 1655.25 815.372 1662.78 823.366 C 1642.25 842.893 1625.88 865.894 1604.5 884.638 C 1597.48 878.545 1590.13 873.109 1582.6 867.68 z"/>
<path transform="translate(0,0)" fill="rgb(247,143,66)" d="M 1638.93 800.671 C 1647.29 807.796 1655.25 815.372 1662.78 823.366 C 1642.25 842.893 1625.88 865.894 1604.5 884.638 C 1597.48 878.545 1590.13 873.109 1582.6 867.68 C 1586.75 864.729 1589.13 860.516 1591.73 856.271 C 1604.97 834.689 1620.83 818.167 1638.93 800.671 z"/>
<path transform="translate(0,0)" fill="rgb(254,220,150)" d="M 994.318 330.985 L 1056.01 330.983 L 1056 528.029 L 994.388 528.006 C 992.814 462.489 994.243 396.541 994.318 330.985 z"/>
<path transform="translate(0,0)" fill="rgb(254,190,193)" d="M 1696.79 1367.72 C 1699.2 1377.41 1697.21 1415.67 1696.91 1427.98 C 1695.28 1430.17 1693.65 1432.43 1691.77 1434.41 C 1685.49 1441.05 1677.26 1444.02 1668.4 1445.07 C 1649.43 1447.31 1629.32 1446.05 1610.23 1446.04 L 1505.37 1445.96 L 1156.91 1445.94 C 1167.46 1440.86 1177.43 1434.77 1187.48 1428.78 C 1199.42 1421.65 1212.28 1412.11 1225.06 1406.86 C 1247.9 1397.48 1306.89 1396.29 1332.78 1395.85 C 1334.8 1409.93 1339.17 1421.06 1351.11 1429.78 C 1359.59 1435.98 1370.47 1440.07 1380.88 1441.38 C 1398.75 1443.61 1418.4 1440.28 1436.51 1439.99 C 1485.56 1439.19 1541.6 1443.23 1589.61 1435.01 C 1637.19 1426.86 1669.13 1406.94 1696.79 1367.72 z"/>
<path transform="translate(0,0)" fill="rgb(254,179,101)" d="M 1653.27 956.743 C 1676.11 949.069 1701.41 932.799 1724.49 929.538 C 1730.91 954.048 1734.43 977.209 1733.76 1002.61 C 1732.8 1015.85 1730.81 1029 1727.81 1041.93 C 1719.7 1071.29 1706.39 1096.33 1685.95 1119 C 1674.63 1099.68 1660.65 1083.61 1645.33 1067.46 C 1650.48 1056.35 1654.22 1045.27 1657.47 1033.47 C 1659.7 1021.86 1660.27 1010.69 1660.36 998.91 C 1660.05 984.457 1657.44 970.552 1653.27 956.743 z"/>
<path transform="translate(0,0)" fill="rgb(254,179,101)" d="M 1657.47 1033.47 C 1672.76 1038.22 1694.14 1038.57 1710.36 1039.9 C 1715.79 1040.35 1722.68 1040.14 1727.81 1041.93 C 1719.7 1071.29 1706.39 1096.33 1685.95 1119 C 1674.63 1099.68 1660.65 1083.61 1645.33 1067.46 C 1650.48 1056.35 1654.22 1045.27 1657.47 1033.47 z"/>
<path transform="translate(0,0)" fill="rgb(247,143,66)" d="M 1660.36 998.91 C 1663.72 1001.5 1672.04 1000.17 1676.59 1000.15 C 1689.55 1000.08 1702.47 1001.05 1715.39 1001.86 C 1720.89 1002.2 1727.49 1003.32 1732.91 1002.74 C 1733.2 1002.71 1733.48 1002.65 1733.76 1002.61 C 1732.8 1015.85 1730.81 1029 1727.81 1041.93 C 1722.68 1040.14 1715.79 1040.35 1710.36 1039.9 C 1694.14 1038.57 1672.76 1038.22 1657.47 1033.47 C 1659.7 1021.86 1660.27 1010.69 1660.36 998.91 z"/>
<path transform="translate(0,0)" fill="rgb(254,190,193)" d="M 1222.72 325.383 C 1230.2 334.351 1244.04 370.775 1249.47 383.104 L 1313.05 528.053 L 1265.75 528.062 C 1263.32 528.189 1261.64 528.207 1259.26 527.531 C 1249.38 511.047 1241.48 488.909 1233.44 471 L 1176.42 344.158 C 1191.17 336.523 1206.09 327.94 1222.72 325.383 z"/>
<path transform="translate(0,0)" fill="rgb(181,164,233)" d="M 225.987 1670.97 L 310.025 1670.95 L 273.382 1793.24 L 266.024 1818.15 L 211.408 1818.01 C 212.728 1797.7 215.247 1777.36 217.271 1757.1 C 220.138 1728.39 222.74 1699.63 225.987 1670.97 z"/>
<path transform="translate(0,0)" fill="rgb(181,164,233)" d="M 1738.15 1670.98 L 1822.83 1670.9 C 1828.64 1719.56 1831.4 1769.1 1835.16 1817.98 L 1782 1818.07 C 1767.68 1768.99 1753.63 1719.7 1738.15 1670.98 z"/>
<path transform="translate(0,0)" fill="rgb(254,179,101)" d="M 1456.94 330.858 L 1506 330.897 L 1506 528.053 L 1456.99 528.043 L 1456.94 330.858 z"/>
<path transform="translate(0,0)" fill="rgb(254,179,101)" d="M 1662.78 823.366 C 1683.05 845.058 1699.16 868.635 1711.61 895.615 C 1716.71 906.629 1720.67 918.028 1724.49 929.538 C 1701.41 932.799 1676.11 949.069 1653.27 956.743 C 1649.56 945.706 1644.59 935.595 1639.08 925.369 C 1629.38 910.024 1618.09 896.658 1604.5 884.638 C 1625.88 865.894 1642.25 842.893 1662.78 823.366 z"/>
<path transform="translate(0,0)" fill="rgb(247,143,66)" d="M 1711.61 895.615 C 1716.71 906.629 1720.67 918.028 1724.49 929.538 C 1701.41 932.799 1676.11 949.069 1653.27 956.743 C 1649.56 945.706 1644.59 935.595 1639.08 925.369 C 1661.05 911.286 1686.8 903.168 1711.61 895.615 z"/>
<path transform="translate(0,0)" fill="rgb(181,164,233)" d="M 1531.04 370.304 L 1568.74 370.292 L 1568.99 527.955 C 1556.35 527.821 1543.7 527.941 1531.06 527.951 L 1531.04 370.304 z"/>
<path transform="translate(0,0)" fill="rgb(181,164,233)" d="M 1169.23 394.746 C 1174.75 399.757 1222.27 510.991 1230.12 527.956 L 1169.02 527.982 C 1168.84 483.57 1168.91 439.157 1169.23 394.746 z"/>
<path transform="translate(0,0)" fill="rgb(14,24,50)" d="M 266.676 183.217 C 281.213 181.692 295.909 183.152 309.862 187.507 C 350.904 200.277 380.016 232.237 399.369 269.371 C 404.387 258.556 409.762 248.097 416.712 238.372 C 437.806 208.853 468.637 189.979 504.439 184.29 C 513.371 182.871 527.591 180.025 535.287 186.147 C 538.537 188.732 539.525 192.547 539.966 196.477 C 543.556 228.519 528.935 267.302 508.729 291.768 C 482.97 322.957 450.331 335.4 411.025 339.129 C 411.129 353.424 411.14 367.721 411.058 382.017 L 461.77 381.886 C 471.142 381.87 480.957 381.208 490.227 382.537 C 496.048 383.371 500.442 385.665 503.842 390.582 C 506.223 394.025 507.478 397.974 507.627 402.147 C 508.19 417.907 503.44 440.38 501.347 456.732 C 497.146 489.545 493.721 522.581 488.78 555.278 L 541.11 555.253 C 542.949 555.582 544.81 555.86 546.54 556.599 C 550.004 558.078 552.472 560.778 553.617 564.376 C 554.769 567.992 553.888 572.263 551.95 575.455 C 550.14 578.436 547.924 580.052 544.46 580.687 C 531.365 583.086 516.335 581.782 503.032 581.781 L 429.784 581.728 L 295.347 581.679 C 275.402 581.68 255.083 582.644 235.184 581.912 C 230.857 581.753 225.806 580.864 222.244 578.239 C 219.929 576.534 218.468 574.109 218.043 571.253 C 217.597 568.249 218.261 562.727 220.339 560.432 C 223.171 557.306 228.699 556.07 232.689 555.526 C 241.316 554.35 250.581 555.042 259.286 555.064 L 308.155 555.211 C 304.061 530.212 302.116 504.376 299.182 479.172 C 296.399 455.265 292.418 430.839 291.141 406.816 C 290.763 399.71 291.322 393.481 296.514 388.1 C 299.077 385.444 302.055 384.037 305.626 383.22 C 321.134 379.673 367.941 382.002 386.013 382.076 L 385.973 339.247 C 377.514 338.333 368.973 337.529 360.634 335.804 C 328.194 329.094 298.75 310.323 280.501 282.466 C 266.272 260.747 259.299 236.869 257.908 211.098 C 257.597 205.337 256.934 199.187 258.3 193.533 C 259.559 188.317 262.279 185.979 266.676 183.217 z"/>
<path transform="translate(0,0)" fill="rgb(254,190,193)" d="M 316.825 408.038 L 481.383 408.036 C 475.281 452.308 470.286 496.803 464.723 541.153 L 463.031 555.374 C 420.084 554.911 377.098 555.309 334.147 555.398 L 316.825 408.038 z"/>
<path transform="translate(0,0)" fill="rgb(254,220,150)" d="M 281.75 205.959 C 300.89 210.061 318.701 216.881 334.678 228.384 C 363.133 248.867 380.048 279.346 385.793 313.577 C 360.293 310.81 337.867 304.357 318.348 287.05 C 294.194 265.635 283.741 237.621 281.75 205.959 z"/>
<path transform="translate(0,0)" fill="rgb(254,220,150)" d="M 510.547 209.168 C 512.668 208.943 511.62 208.781 513.669 209.772 C 513.761 210.158 513.885 210.537 513.943 210.929 C 516.314 226.944 501.773 258.656 492.204 271.357 C 473.645 295.99 447.082 308.512 417.012 312.627 C 415.423 312.887 414.952 312.783 413.45 312.383 C 413.35 312.045 413.211 311.717 413.15 311.37 C 411.335 301.098 425.999 270.181 431.647 261.156 C 450.77 230.605 476.261 216.959 510.547 209.168 z"/>
<path transform="translate(0,0)" fill="rgb(14,24,50)" d="M 806.588 1778.16 C 846.618 1777.05 886.971 1778.05 927.031 1778.05 L 1159.1 1778.01 L 1258 1778.01 C 1269.8 1778.01 1288.46 1776.28 1299.48 1778.6 C 1302.61 1779.26 1305.1 1780.97 1306.83 1783.69 C 1308.74 1786.7 1308.66 1790.97 1307.5 1794.22 C 1305.98 1798.48 1303.23 1800.04 1299.4 1801.94 C 1260.91 1802.9 1222.18 1802.03 1183.67 1802.04 L 956.893 1802.05 L 851.631 1802.04 C 838.923 1802.04 818.552 1803.69 806.845 1801.6 C 803.699 1801.04 800.847 1799.24 799.254 1796.43 C 797.434 1793.21 797.395 1789.21 798.618 1785.78 C 800.124 1781.56 802.788 1780.03 806.588 1778.16 z"/>
<path transform="translate(0,0)" fill="rgb(14,24,50)" d="M 879.719 1862.15 C 932.019 1860.29 985.031 1861.95 1037.4 1861.95 C 1091.96 1861.94 1147.05 1860.33 1201.54 1862.03 C 1206.6 1862.19 1213.11 1862.27 1216.47 1866.73 C 1218.47 1869.37 1218.92 1872.15 1218.29 1875.32 C 1217.26 1880.55 1214.6 1882.75 1210.26 1885.48 C 1194.13 1887.53 1176.05 1886.03 1159.75 1886.03 L 1054.65 1886.06 L 937.817 1886.04 C 920.029 1886.04 900.936 1887.58 883.357 1885.82 C 879.702 1885.45 875.807 1883.66 873.658 1880.52 C 871.823 1877.83 871.154 1875.16 871.778 1871.94 C 872.734 1867 875.658 1864.72 879.719 1862.15 z"/>
<path transform="translate(0,0)" fill="rgb(254,179,101)" d="M 1515.97 1735.9 C 1536.46 1738.6 1528.95 1762.72 1540.59 1779.24 C 1551.39 1794.55 1572.92 1791.82 1584.46 1804.04 C 1585.53 1806.92 1585.59 1809.82 1584.18 1812.62 C 1580.09 1820.8 1564.86 1821.66 1556.96 1824.71 C 1528.65 1835.63 1537.28 1855.29 1528.32 1873.68 C 1526.37 1877.69 1523.36 1878.86 1519.39 1880.14 C 1518.69 1880.07 1517.98 1880 1517.28 1879.89 C 1503.15 1877.8 1506.73 1850.08 1496.52 1836.28 C 1485.68 1821.62 1457.79 1822.67 1451.91 1812.12 C 1450.75 1810.03 1450.67 1807.11 1451.51 1804.9 C 1455.14 1795.43 1475.67 1792.59 1484.31 1788.07 C 1501.92 1778.87 1501.58 1761.92 1507.09 1745.55 C 1508.86 1740.29 1511.13 1738.39 1515.97 1735.9 z"/>
<path transform="translate(0,0)" fill="rgb(254,179,101)" d="M 648.817 251.948 C 650.793 251.847 652.736 251.776 654.705 252.04 C 667.763 253.787 665.841 282.263 675.081 295.349 C 684.771 309.073 710.034 308.605 716.08 318.465 C 717.461 320.716 717.432 323.992 716.607 326.427 C 713.483 335.64 696.82 337.907 688.87 341.879 C 666.374 353.116 671.101 368.748 663.946 387.971 C 662.186 392.699 659.2 394.472 654.776 396.355 C 651.825 395.966 649.059 395.67 646.649 393.73 C 640.381 388.681 639.036 364.364 632.161 354.506 C 621.322 338.965 600.959 342.221 590.161 331.375 C 588.114 329.319 586.775 326.643 587.221 323.662 C 588.921 312.31 618.173 308.972 626.845 300.589 C 643.293 284.689 636.103 262.509 648.817 251.948 z"/>
<path transform="translate(0,0)" fill="rgb(14,24,50)" d="M 399.797 1840.16 C 416.85 1839.33 434.193 1839.95 451.276 1839.93 L 546.132 1839.86 C 560.785 1839.85 613.318 1838.05 624.068 1840.74 C 626.905 1841.45 629.606 1843.31 630.958 1845.95 C 632.262 1848.49 632.257 1851.54 631.483 1854.24 C 630.246 1858.56 627.478 1860.65 623.767 1862.84 C 610.976 1865.18 596.232 1863.87 583.221 1863.87 L 510.509 1863.88 L 440.122 1863.87 C 428.251 1863.87 415.629 1864.8 403.851 1863.36 C 399.83 1862.87 395.639 1861.27 393.441 1857.62 C 391.949 1855.14 391.818 1852.21 392.375 1849.44 C 393.33 1844.71 395.926 1842.72 399.797 1840.16 z"/>
<path transform="translate(0,0)" fill="rgb(181,164,233)" d="M 191.025 340.605 C 209.469 338.527 226.159 351.659 228.479 370.074 C 230.799 388.49 217.888 405.35 199.505 407.913 C 187.396 409.601 175.316 404.642 167.884 394.934 C 160.453 385.225 158.821 372.269 163.612 361.021 C 168.403 349.773 178.876 341.973 191.025 340.605 z"/>
<path transform="translate(0,0)" fill="rgb(181,164,233)" d="M 627.439 487.53 C 636.433 486.704 644.4 493.315 645.246 502.308 C 646.093 511.301 639.501 519.282 630.511 520.15 C 621.49 521.021 613.476 514.402 612.627 505.38 C 611.777 496.357 618.414 488.359 627.439 487.53 z"/>
<path transform="translate(0,0)" fill="rgb(152,204,236)" d="M 138.346 678.463 C 147.083 676.871 155.475 682.608 157.161 691.329 C 158.848 700.049 153.201 708.502 144.499 710.282 C 138.787 711.451 132.886 709.46 129.049 705.07 C 125.212 700.679 124.029 694.565 125.953 689.06 C 127.876 683.556 132.609 679.509 138.346 678.463 z"/>
<path transform="translate(0,0)" fill="rgb(56,64,81)" d="M 702.036 1782.07 C 704.184 1781.96 706.37 1781.82 708.519 1781.94 C 713.665 1782.23 719.908 1785.17 723.026 1789.34 C 724.705 1791.59 725.381 1794.36 724.606 1797.09 C 723.339 1801.57 719.526 1803.54 715.812 1805.73 C 712.539 1806.08 709.065 1806.61 705.79 1806.1 C 701.551 1805.42 696.922 1803.07 694.454 1799.46 C 692.947 1797.26 692.434 1794.81 693.074 1792.22 C 694.319 1787.17 697.798 1784.62 702.036 1782.07 z"/>
</svg>