<svg xmlns="http://www.w3.org/2000/svg" width="1365.333" height="1365.333" preserveAspectRatio="xMidYMid meet" version="1.0" viewBox="0 0 1024 1024"><g fill="#000" stroke="none"><path d="M83.4 46.5c.6 51.6 1 215.5.4 216-.2.2-5.1 0-10.8-.5-5.8-.5-22.4-1.4-37-2s-28.7-1.3-31.5-1.5c-4.3-.4-4.5-.3-1.5.4 1.9.5 16.1 1.4 31.5 2 15.4.7 32.9 1.6 38.9 2.1 6 .6 11.1.8 11.4.6 1.1-1.2-.3-262.4-1.5-263.6-.3-.3-.2 20.6.1 46.5m354.3 11.7c-.5 53.6.1 161.3 1.9 301.1l.7 55.8 19.6-.6c10.8-.3 29-.7 40.6-.8 18.4-.2 21 0 21.3 1.4.2 1.1-1 1.9-4 2.8-6.1 1.8-15.8 7.1-15.8 8.7 0 2.1 2 2.7 3.8 1.1 1.8-1.5 14.2-6.7 16.2-6.7 1 0 4.5 6.9 3.8 7.5-.2.1-2.3 1.3-4.8 2.5-13.5 6.7-34.5 27-27.9 27 .5 0 .8-.4.4-.9-.3-.5-.1-1.2.5-1.6.5-.3 1 0 1 .6 0 .7 1.9-.5 4.3-2.7 6.9-6.6 14-12.1 21.1-16.4 5.4-3.3 7-3.9 8.2-2.9.8.6 1.4 1.7 1.4 2.3s1.1 2.8 2.4 4.7l2.5 3.6-2.5 2.3c-2.1 2.1-3.4 7-1.8 7 .3 0 1.9-1.1 3.6-2.5 1.6-1.4 3.3-2.5 3.7-2.5s2.7 2 5.1 4.5 5.2 4.5 6.1 4.5c1.3 0 2.2 1.6 3.4 5.6.9 3.2 3 7 4.8 9 3 3.3 3.8 3.6 13.2 4.9 5.5.8 12.8 1.5 16.3 1.5 5.7 0 6.6-.3 8.5-2.7 1.2-1.5 4.1-4.6 6.5-7 2.3-2.3 4.2-4.7 4.2-5.3s-2.7-1-6.4-1c-6.1 0-6.7-.2-12-4.6-8.4-6.8-20.2-10.7-32.8-10.8-5.4-.1-9.8-.3-9.8-.6s1.9-1.2 4.2-2c5.5-2 6.5-3.8 4.9-8.8-.9-2.6-1.2-6.8-.9-11.6.5-7.5.4-7.7-2.9-11.5-3.8-4.5-4-5.2-1.4-7.5 1.6-1.5 3.1-1.6 11.2-.9 5.2.4 9.9.8 10.4.8 1.7 0 4.5-6.8 4.5-10.8 0-3.9 3.4-10.1 8.8-16 3-3.2 6.2-3.6 6.2-.8 0 2.9 2.2 3.1 4.3.4s7.7-5.7 12.3-6.7c3.3-.7 8.3-5.5 12.9-12.4 1.5-2.3 3.7-4.4 4.9-4.7 10.6-2.1 16.5-1.1 18.4 3.1 1.4 2.9.6 4.5-4.4 8.7-2.3 2-3.4 2.3-4.2 1.5-.9-.9-1.2-.9-1.2-.1 0 2.5 2.3 2.4 5.9-.1 5.3-3.7 6.7-6.6 5.1-10.6-1.5-3.6-4.2-4.5-12.4-4.3-8.6.2-10 .8-13.1 5.5-5.3 8-9.5 11.7-15.2 13.3-2.9.9-6.9 2.9-8.8 4.6-3.2 2.9-3.5 3-3.5 1 0-3.2-5-2.8-8.2.6-5.1 5.5-8.8 12.5-8.8 16.7 0 2.3-.8 5.5-1.9 7.2l-1.8 3-7.4-.7c-12.5-1.3-13.7-1.2-15.5 1.6-1.9 2.9-1.3 5 2.4 9 2.7 2.9 2.8 3.3 2.4 10.3-.3 4.6 0 8.8.8 11.3 1.2 3.4 1.1 4.1-.4 5.8-1 1-3.3 2.2-5.2 2.5-2.5.5-3.4 1.2-3.4 2.7 0 1.8.5 1.9 6.3 1.3 12-1.2 26.8 3.3 36.4 11.2 5.2 4.2 5.8 4.4 11.9 4.4h6.4l-4.2 4.3c-2.4 2.4-5.3 5.5-6.5 7-1.9 2.4-2.8 2.7-8.5 2.6-3.5 0-10.3-.6-15.2-1.3-8.7-1.2-9.1-1.4-12.7-5.5-2.4-2.6-4.1-5.9-4.9-9.1-.9-3.6-1.7-5-2.9-5-.9 0-3.7-2-6.1-4.5-4.9-5-6.6-5.4-10.4-2.4-3.4 2.7-3.4 1.3.1-2.3 2.7-2.8 2.7-2.9 1-5.6-1-1.5-2.5-4.2-3.3-6s-2.1-3.5-2.8-3.8c-3-1.1-16.8 7.7-28.5 18.2-7.5 6.8-6.2 3.8 1.7-3.8 6.8-6.6 16.3-13.4 22.2-15.8 2.6-1.1 3-1.7 2.6-3.6-1.2-4.8-2.6-7.4-3.9-7.4-2.2 0-12.8 3.9-15.5 5.6-1.3.8-2.9 1.3-3.5 1.1-1.4-.5 10.1-6.5 15.8-8.2 3.9-1.2 4.9-3.4 2.5-5.9-.4-.4-18.6-.3-40.6.3-21.9.6-39.8 1-40 .8-.7-.9-2.7-222.7-2.7-308.5.1-57.8 0-105.2-.1-105.2-.2 0-.5 26.2-.9 58.2M637.8 144c.2 79.5.5 145 .7 145.6.4 1.4 15.8 3.8 19.9 3 6.5-1.2 22.8-16.2 34.6-31.7 12.5-16.3 23.8-26.1 35.5-30.9l5.4-2.2 4.8 3.3c2.6 1.8 5.4 4 6.1 4.8 4.7 5.8 12.3 27.5 14.2 40.6.6 4.4 1.5 10.7 2.1 14.1.5 3.3.9 14.1.9 24 0 16.3-.3 18.8-2.7 27.9-3.5 12.9-3.5 19.3-.1 26.6 4.8 10.2 5.9 15.6 6.9 34.9.5 10.2 1.4 21.2 2 24.5 1.6 9.5 6.7 24.3 11 32.5 5.2 9.8 13.7 21.2 17 22.7 1.7.8 11.6 1.6 27.5 2.3 52.5 2 94.3 4 104.4 5 25.5 2.5 63.1 8.9 71.8 12.2l5.7 2.2-9.5 1.2c-12.4 1.6-27.2 6.4-34.6 11.2-10.5 6.9-20.2 18.9-24.5 30.7-.8 2.1-2.5 11.3-3.3 18-.3 2.2-.6 38.4-.7 80.5s-.5 79.2-.8 82.6l-.6 6-4.5-2c-2.5-1.1-7.9-3.2-12-4.7-20.5-7.3-18.7-6.2-23-15.3-8.1-17-18.1-44.7-22.5-62.4-10.2-41.1-11.4-79.6-3-104.1 5.3-15.7 17.7-30.3 31.7-37.6 8.6-4.4 10.1-7.1 4.6-7.9-1.8-.3-17.7-1-35.3-1.6s-38.7-1.8-47-2.6c-8.7-.8-15.3-1-15.8-.5s-.5 3 .2 6c1.3 6.1 2.7 30.9 1.7 29.9-.4-.3-1.2-3.9-1.7-8-2.1-17.4-9.5-32.2-24.1-48.3-7.6-8.4-9.6-11.2-13.5-18.6-5.4-10.2-8.8-22.1-10.3-36.9-2-19.4-4.2-30.1-8.6-41.8l-2.6-7.2 2.6-2.5c1.4-1.3 2.6-3.4 2.6-4.7s1.1-6 2.5-10.6c2.9-9.9 4.8-25.1 4.3-34.7l-.4-7-.2 8c-.3 12-2 24-4.7 33.7-1.4 4.8-2.5 9.6-2.5 10.7 0 1-1.2 2.8-2.7 3.9l-2.8 2 3.2 9.4c4.7 13.6 6.2 21 8.3 40.8 1.7 16.7 6.8 33 13.5 43.6 1.8 2.8 6.2 8.4 9.9 12.4 16.5 18.4 22.4 30.6 25.1 52.2.5 3.5 1.1 4.8 2.2 4.8 1.4 0 1.5-1.5.9-13-.3-7.2-1.1-15.2-1.6-17.7-.6-2.5-.7-5-.3-5.4s7.3-.2 15.3.6c8 .7 29.1 1.9 47 2.5 32.9 1.1 37 1.5 37 2.8 0 .4-3.5 2.5-7.8 4.7-9.1 4.7-19.9 14.9-25.4 24-7.6 12.5-11.8 31.4-11.8 52.6 0 38.6 8.4 75.5 27.7 121.9 6.8 16.3 5.6 15 19 19.9 6.5 2.4 14.6 5.7 18.1 7.2 3.5 1.6 6.7 2.9 7.2 2.9 1.4 0 1.6-11 1.9-90 .1-42.1.4-78.3.7-80.5 2.4-18.8 6.5-27.8 17.8-39.1 6.2-6.2 9.9-9 15.6-11.7 9.5-4.5 19.8-7.4 30-8.3 19.8-1.7 1.3-7.5-45.5-14.3-25.6-3.7-42.3-4.8-128.9-8.2-19.6-.7-25.5-1.3-27.3-2.5-6.1-4-18.6-25-23.2-38.9-4.1-12.2-4.9-17.9-6-39.6-1-19.4-2.5-26.4-8.3-38.9-2.4-5.2-2.1-8.9 1.6-23 2.3-8.5 2.6-11.4 2.6-27.4 0-9.9-.4-20.7-.9-24-.6-3.4-1.5-9.7-2.1-14.1-1.5-9.9-9.1-33.7-12.5-39-1.5-2.2-4.9-5.5-7.7-7.3l-5.1-3.4-5.4 1.7c-11.6 3.7-24.2 14.3-37.4 31.6-7.5 9.9-21.8 24.3-28.4 28.7-5.4 3.6-8.3 3.9-18 1.9l-6-1.3-.7-135.9c-.4-74.8-.9-140.1-1-145-.2-5-.2 56 0 135.5M875.5 26.6c-4.4.7-9 1.6-10.2 1.9l-2.3.5v148l12.8-.6c7-.4 13.1-1 13.5-1.4 1-.9 2.3-143.6 1.3-147.3-.8-3.2-2.3-3.3-15.1-1.1m14.1 2.1c.7 2.5-.1 145.2-.8 145.8-.2.1-5.8.5-12.5.8l-12.3.6V103c0-72.4 0-72.9 2-73.5 2.8-.9 16.8-3.2 20.2-3.4 2.2-.1 2.9.4 3.4 2.6M780 28.4l-7.5 1.1v149l9-.3c5-.2 9.5-.8 10-1.3.6-.7 1.1-27.5 1.3-75.4l.3-74.5-2.8.1c-1.5.1-6.2.7-10.3 1.3m11.8 73.1c-.2 47.2-.7 73.7-1.3 74.4-.5.5-4.6 1.1-9 1.3l-8 .3v-147l7-1.1c3.9-.7 8-1.2 9.3-1.3l2.3-.1zm109.5-53.8-2.3.4v61.8c0 46.6.3 62 1.2 62.9 1.3 1.3 14.2 1.7 19.7.6l3.1-.7V47l-9.7.1c-5.4.1-10.8.4-12 .6m20.7 62.2v61.9l-2.2.6c-4.1 1.1-17.3.7-18.6-.6-.9-.9-1.2-16-1.2-61.9 0-57 .1-60.8 1.8-61.2.9-.3 5.9-.5 11-.6l9.2-.1zm-81.8-59.6L830 52.4l.2 60.5.3 60.6 10.6.3c8.8.2 10.8 0 12-1.4 1-1.3 1.4-13.4 1.7-63l.5-61.4-2.4.1c-1.3.1-7 1.1-12.7 2.2m13.6 59.8c-.3 51.8-.6 61.2-1.9 62-.7.5-5.7.8-10.9.7l-9.5-.3-.3-59.6-.2-59.6 9.7-2.1c5.4-1.1 10.6-2 11.7-2.1 1.8-.1 1.8 1.7 1.4 61"/><path d="M529.2 226.2c-1.9 1.9-1.4 3.3.6 1.5 1-1 3-1.7 4.4-1.7 3.2 0 20.6 12.7 33.1 24.1 12.2 11.2 27.3 31.1 29.1 38.1.6 2.6.2 2.9-9.6 7.7-5.7 2.7-14.5 8.2-19.6 12.1-9 6.9-9.4 7.1-11.3 5.4-2.1-1.9-2.5-5.8-.9-9.8 1.3-3.6 3.2-19 3.1-25.9-.1-5.3-4.5-21.6-7.6-27.7-.6-1.4-2-4.2-3-6.3-2.2-4.5-13.5-14.7-16.2-14.6q-2.1 0-.3.6c.8.3 4.3 3.1 7.7 6 4.8 4.2 7 7.2 9.7 12.7 4.9 10.4 8.6 22.8 8.7 29.4.1 6.8-1.8 22.2-3.1 25.8-1.7 4.4-1.2 8.3 1.5 11l2.5 2.5 6.7-5.4c10.4-8.2 15.7-11.6 24.9-15.8l8.5-4-.6-3.2c-1.1-5.1-3.9-9.9-12-20.6-8.7-11.5-21.3-23.5-36.8-35.1-9-6.6-11.5-8-14.6-8-2 0-4.2.5-4.9 1.2m202.6 6.4c-7.3 2.5-18.4 9.8-25.5 16.7-4 3.9-7.3 7.5-7.3 8.1 0 .5 1.9-.8 4.3-3.1 2.3-2.3 4.8-3.8 5.6-3.5.8.2 2-.3 2.6-1.2 1.1-1.5 1.4-1.5 2.6 0 1.8 2.2 2.4 12.5 1 18.1-1.9 7.6-8.1 19.2-13.2 24.7-2.6 2.8-7.6 6.9-11.3 9-3.6 2.1-6.6 4.4-6.6 5.2 0 .7 2.8 2.9 6.3 5 3.4 2.1 9.4 6.1 13.3 9 7.8 5.7 22.1 19.1 21.2 19.9-.2.3-3.6-2.5-7.4-6.3-10.4-10-31.7-25.2-35.5-25.2-1.9 0-.8 2.7 2.6 6 2.2 2.1 3.3 4 3 5-.3.9.9 3.8 2.7 6.5 5 7.6 5.6 21.1 1.1 25.6-2.2 2.3-20.5 5.1-27.1 4.2-4.9-.7-13.8 1.3-14.6 3.2-.7 2 3.4 4.6 13.2 8.5 4.6 1.8 9.4 4.2 10.7 5.2l2.5 1.9-4.9 9.8c-5.5 10.9-11.9 18.2-18.4 21.1-2.3 1-8 2.3-12.6 2.9s-8.9 1.5-9.6 2.1c-1.6 1.4-2.6 4.8-1.5 5.5.5.3 6.3 1.9 13 3.6 13.5 3.4 28.2 9.3 41.1 16.6 12 6.8 12.5 7.1 11.7 7.8-.4.4-2.6-.6-5-2.3-10.4-7.1-31.2-15.5-50-20.3-10.4-2.5-13.1-2.9-14.3-1.9-.8.7-1.5 1.8-1.5 2.4s-.7 2.4-1.5 4c-1.8 3.4-1.3 5.6 1.2 5.6 3 0 19.9 5.8 30.9 10.6 19.4 8.6 38.5 20.7 51.2 32.8 3.9 3.8 7.2 7.3 7.2 7.9 0 .5-3.6-2.5-8-6.7-16.3-15.6-41.4-29.5-70.9-39.5-13.1-4.5-16.6-4.9-17.5-2.5-1.5 3.9-.5 4.9 10.6 10.4 22.4 11 32.5 17.7 43.6 28.6 5.6 5.6 10.2 11 10.2 11.9 0 1-1.5-.2-3.9-3.2-9.3-11.7-19.1-19-41.9-31.3-13.5-7.2-16.1-8-18.2-5.6-.6.8-2.7 2-4.5 2.6s-3.6 1.9-4 2.8c-.7 1.9-.3 2.3 11 10 4.2 3 7.5 5.6 7.2 5.9-.3.2-4.7-2.3-9.8-5.8-7.7-5.1-9.5-6-11-5-1 .6-4.2 1.4-7.2 1.7-5 .6-5.6.4-8.8-2.4-1.9-1.6-6.5-4.2-10.4-5.7-7.5-3-17.2-9-18.9-11.6-1.1-1.9 1-15.1 2.8-17.3 1.3-1.6 14.7-8.6 16.4-8.6.7 0 1.2-.8 1.2-1.9 0-1 .7-2.4 1.6-3.2.9-.7 2.3-2.9 3.2-4.8 2.3-4.9 7.4-8.1 12.8-8.1 5.2 0 5.9-1.1 7.7-10.7 1.1-6.1 1.5-6.9 4.7-8.7 2.6-1.5 5.5-2.1 11-2.3 10.3-.2 10-.1 10-1.7 0-1.8-2.7-2.9-3.6-1.4-.4.6-.3.8.4.4.6-.3 1.3-.2 1.6.3s-.1 1.2-1 1.5c-2.3.9-2.4.8-2.4-1.2 0-.9-.9-2.3-2-3s-2-2.1-2-3.1c0-2.4 3.6-6.9 4.6-5.8.4.4.2 1.3-.4 1.9-.7.7-1.2 2.2-1.2 3.4 0 2.6 4.1 3.7 7.9 2.1 1.5-.5 2.9-1 3.4-.9.4.1.7-.2.7-.8 0-1.4-1.7-1.2-4.3.5-1.2.8-3.2 1.2-4.5.8-2.3-.6-3-2.7-1.2-3.8s1.1-4.5-.9-4.5c-4.6 0-6.9 8.7-3 11.4 2.8 1.9 1.8 3.4-2 2.8-1.6-.2-5.4.3-8.5 1.2-6.4 1.9-7 2.7-8.6 12-1.2 7.2-2.3 8.6-6.7 8.6-5.1 0-10.1 2.5-12.1 6.1-.9 1.7-2.7 4.4-3.9 5.9-1.3 1.5-2.3 3.5-2.3 4.4s-.5 1.6-1.2 1.6c-1.2 0-14.7 6.7-16.1 8-1 .9-3.7 13.5-3.7 17.1 0 4.2 7.6 9.8 19 14 3.5 1.3 8 3.7 9.9 5.4 3.1 2.7 4.1 3 9.7 2.9 3.5 0 7-.6 7.8-1.3 1.2-1 3-.2 10.3 4.7 8.9 5.9 12.9 8 11.8 6.2-.3-.6-.1-1 .6-1 2.1 0-.8-2.6-10.2-9-4.9-3.4-8.9-6.3-8.9-6.6s1.9-1.3 4.3-2.4c2.3-1.1 4.9-2.5 5.8-3.1 1.2-.9 4.1.2 15 6.1 14.1 7.6 27.3 16 32.5 20.8 2.4 2.2 9 9.7 15 17.1.1.1.7 0 1.3-.4 2.1-1.3-3.2-9-12.3-18-9.8-9.7-20.1-16.4-41.8-27.2-6.5-3.2-11.8-6.3-11.8-6.8 0-.6.4-1.7 1-2.5.7-1.2 1.6-1.2 6.2-.1 5.8 1.5 27 9.3 31.5 11.6 1.5.8 3.1 1.5 3.5 1.5 1 0 18.2 9.9 26.8 15.4s17.9 13.2 23.1 18.9c3.5 4 6.4 4.5 5.2.9-1.7-4.8-19.8-20.1-34.8-29.2-13.1-8-30-15.4-46.5-20.5-4.7-1.4-9-2.8-9.7-3-1.4-.5.8-6.9 3.1-9.3 1.8-1.9 25.2 4 37.4 9.4 2 .9 4.8 2.1 6.2 2.6 4.4 1.9 12.4 6 18.2 9.5 5.3 3.2 7.8 3.6 7.8 1.3 0-2.4-19.8-13.3-34.7-19-4.6-1.7-13.3-4.4-19.5-6-9.2-2.3-11.3-3.1-11.3-4.6 0-2.3 4-4.4 8.5-4.4 5.9-.1 14.8-2.6 18.9-5.4 5.5-3.9 9.5-9.2 14.6-19.7 5.6-11.4 5.4-11.7-7.6-17.4-11.3-4.8-13.9-6.3-13.9-7.5 0-1.5 8.2-3.2 12.9-2.7 7 .8 26.3-2 28.4-4.1 4.5-4.6 3.8-20.7-1.3-27.8-1.7-2.4-2.8-4.9-2.5-5.4 1.1-1.7 8.4 3.3 28.5 19.5 2.5 2 1.2.5-2.9-3.4-7.1-6.7-20.9-17.1-22.8-17.1-.5 0-2.9-2-5.3-4.5s-4.1-4.5-3.7-4.5c1.2 0 18.5 11.7 25.2 17.1 3.3 2.6 8.2 7 11 9.8 4.9 5.1 7.5 6.4 7.5 3.7 0-1.6-7.3-9.1-16-16.5-7.1-6-11-8.9-18.7-13.5-3.5-2.1-6.3-3.9-6.3-4.1s2.5-1.7 5.6-3.5c11.7-6.6 18.8-15.7 23.9-30.5 2.3-6.7 2.7-9.2 2.3-15.3-.6-8.9-2.5-11.7-5.8-8.7-1.1 1-2.2 1.6-2.5 1.3-1.4-1.4 15-12.6 23.9-16.3 3.4-1.4 3.4-1.4 7.1 2.7 2.1 2.2 4.8 6.6 6.2 9.7 4.5 10.2 9.3 29 10 38.8l.6 9.3-6.2 8c-3.4 4.4-8 11.7-10.2 16.2-3.8 7.9-4 8.7-3.6 15.8.5 7.9 3.4 18 5.3 18 .7 0 1.5-1.2 1.9-2.7.3-1.5 1.6-4.8 2.7-7.3 5.5-12 10.6-29 8.7-29-.5 0-.9 1-.9 2.3s-.7 4.8-1.6 7.8c-1.5 5.2-2.6 7.9-6.4 16.4-1 2.2-2.5 5.8-3.3 7.9l-1.4 3.9-1.1-4.6c-.7-2.5-1.6-4.9-2.2-5.2-.5-.3-1-3.8-1-7.6 0-6.1.5-7.9 4.1-15.2 2.3-4.5 6.3-10.9 8.9-14.2s5.3-7.1 6-8.4c4.1-7.9-5.7-49.2-14.1-59.4-4.2-5.1-5.7-5.7-10.1-4.1M682.5 488c.3.5.1 1-.4 1-.6 0-1.1-.5-1.1-1 0-.6.2-1 .4-1 .3 0 .8.4 1.1 1m181.1-210.3c-.4 6.5-.6 38.3-.5 70.6l.2 58.8 8.6-.3 8.6-.3.3-70.3.2-70.2h-16.7zm16.4 58.8V406h-15.7l-.2-58.8c-.1-32.3.1-63.5.5-69.5l.7-10.7H880zm18.5-67.4c-4.4.5-8.6 1.1-9.2 1.4-1 .3-1.3 15.1-1.3 69V408h11.9c9.9 0 12-.3 12.5-1.6.3-.9.6-32.4.6-70V268l-3.2.1c-1.8.1-6.9.6-11.3 1m13.5 67.3c0 37.1-.3 68.1-.6 69-.5 1.3-2.5 1.6-11.5 1.6H889v-67.5c0-53.1.3-67.7 1.3-68 1.3-.5 14.4-2.2 19-2.4l2.7-.1zM15 278c18.7 1 68.6 2.6 125 4 94.4 2.3 141.8 4.8 162 8.5 15.1 2.8 31.3 7.6 40.6 12.1 12 5.7 17.7 11.8 27.1 29 10.5 19.1 10.6 19.4 18.8 43 8.4 24 12.2 37.3 15.5 53.9 2.8 14.3 7.6 32.5 8.9 33.8.5.5 6 1.3 12.3 1.8 21.5 1.5 52.8 6.4 77.8 12 24.1 5.5 31.4 7 38 7.9 3.6.5 7.7 1.2 9.3 1.6 2.7.6 2.7.6 2.7-4.4 0-2.8-.5-6.3-1-7.8-.8-2.1-.8-2.9.2-3.6.9-.5.8-.8-.6-.8s-1.7.5-1.1 2.2c.4 1.3.9 5 1.2 8.2.5 5.5.4 5.9-1.3 5.2-1.1-.5-5-1.2-8.9-1.7-7.1-.8-13.8-2.2-38.5-7.8-25.2-5.7-67-12.1-79.5-12.1-9.4 0-10.5-1-13.2-11.5-1.3-5-3.5-14.4-4.8-21-7-33.9-21.1-75-33.9-98.3-13.5-24.6-19.5-29.3-47.1-37.3-14.2-4.1-28.7-6.8-46-8.4s-77.1-4-139-5.5c-23.6-.6-56.3-1.5-72.5-2s-38-1.1-48.5-1.4l-19-.5zm910 67.5v62.8l11.6-.6c6.4-.3 12-.9 12.5-1.4s1.2-27.5 1.6-60.2c.7-52.2.6-59.4-.7-60.1-.8-.4-4.6-1-8.5-1.4-3.8-.4-9.1-.9-11.7-1.3l-4.8-.6zm15.5-60c3.3.3 6.9.8 8 1 2 .4 2 .9 1.2 59.6-.4 32.6-.9 59.5-1.1 59.7s-5.4.6-11.5.9l-11.1.6V283.8l4.3.5c2.3.4 6.9.9 10.2 1.2"/><path d="M10.5 288c5.5.4 39 1.5 74.5 2.4 120.9 3 138.9 3.6 190 6.6 26.2 1.6 28.6 1.9 40 4.1 5.8 1.1 12.5 2.4 15 2.9 8.3 1.5 18 5.4 23.3 9.4 5 3.7 5.1 3.7 2.2.6-3.5-3.7-6.1-5.2-14.1-7.9-6.2-2.2-8.8-2.8-26.8-6.1-11.7-2.2-13.2-2.4-39.6-4-51.3-3-71.3-3.7-189.5-6.6-34.7-.8-67.9-1.7-74-1.8l-11-.4zm541.9 33.8c-6.1 5.5-12.6 9.7-14.9 9.7-2.4 0-5.4 5-3.9 6.5 1.4 1.4 11.1-.8 11.8-2.7.3-.8-.5-1.8-2-2.5-2.5-1.2-2.5-1.2 3.3-4.9 5.7-3.6 11-8.5 10.2-9.3-.2-.3-2.3 1.2-4.5 3.2m-10 11.8c2.7 1 1.8 2.1-2.6 3.2-4.8 1.2-6.9.2-4.8-2.3 1.3-1.5 4.6-2 7.4-.9m150.6-9.9c0 .4 2.8 2.8 6.3 5.3 3.4 2.5 9.2 7.1 13 10.4 3.7 3.2 7 5.6 7.3 5.3.6-.5-15.2-14-22-18.6-2.5-1.8-4.6-2.8-4.6-2.4m-331.9 3.8c-1.1 2-2.1 3.8-2.1 4.1 0 2-19.9 30.4-25.5 36.4-7 7.5-14.7 18.2-17.2 24-1.4 3-3 6.6-3.6 7.8-.6 1.3-1.1 6.3-1.1 11 0 11.1 3.3 20.6 14.4 42 4.4 8.4 8 15.4 8 15.6 0 .8-28.6 5.5-43 7.1-3.6.4-7.4.9-8.5 1.2-1.1.2-4.9.9-8.5 1.5-3.6.5-10.1 1.8-14.5 2.9-19.3 4.5-29.7 7-31.8 7.9-1.2.5-6.5 2.1-11.7 3.5-5.2 1.5-10.8 3.3-12.5 4.1-1.6.7-7.5 3.2-13 5.5s-10.5 4.5-11 4.9c-.6.5-3.1 1.7-5.6 2.7-6.3 2.5-21.8 11.8-27.3 16.3-2.9 2.4-5.3 3.6-6.5 3.3-2.5-.6-17 3.4-20.6 5.7-5.4 3.5-8.3.2-20.8-24.2-20.1-39.1-28-52.6-48.3-82.9C27.4 393.6 2.9 360 .9 360c-.5 0 3.3 5.5 8.4 12.2 19 24.9 48.2 67.7 61.9 90.7 4.5 7.5 14.5 25.8 22.3 40.7 16.9 32.1 16.8 32 20.7 33.3 2.5.9 3.6.7 7.2-1.3 4.4-2.6 15.7-5.9 18.4-5.4 1 .2-3.4 4.5-11.6 11.3-7.6 6.4-13.2 11.7-13.2 12.7s.4 1.8.9 1.8c.4 0 4.4-2.8 8.7-6.1 11.8-9.2 24-17.2 32.9-21.6 10.6-5.3 29.5-13.5 37.3-16.3 3.5-1.2 11.9-4.5 18.5-7.2 29.6-12.2 37.5-14.2 101.2-25.2 37.8-6.6 78.6-7.4 116.8-2.4 5.5.7 8.6 1.5 8.4 2.2-.2.6-1.7 1.2-3.3 1.4-7.3.7-25.5 4.3-31.4 6.2-18.9 6-36.4 16.1-49.8 28.6-10.3 9.6-10.4 8 2 23.6 11.8 14.7 23.4 32.2 30.7 46.3 12.6 24.2 22.3 35.7 35.7 42.6 4.9 2.4 8.3 3.4 12.8 3.7 5.4.3 6.6 0 10.7-2.6 6.5-4.2 9.3-8.3 14.9-22.1 5.2-13 7.7-17.6 11.1-20.7 2.1-1.9 2.1-1.9 4.9 1.2 3 3.4 7.3 19.1 10.6 38.8 2.8 17 .7 50.5-4.2 67.4-3 10.5-3.2 21.8-.5 27.7 4.5 10.1 18.3 16 49.8 21.4 21.5 3.8 54.7 9 64.3 10.1 32.9 4 46 6.6 61.5 12 14.2 5 20.2 8.6 29.6 18 10.4 10.3 15.1 16.6 22.5 30.2 7.5 13.7 15.5 24.9 23.3 32.6 9.7 9.6 13.9 10.4 17.9 3.3 1.2-2.1 2.2-5.3 2.2-7s.5-3.1 1.1-3.1c1.5 0 3.9 6.4 3.9 10.4 0 8.6 4.1 11.3 14.4 9.6 3.3-.5 6.6-1.6 7.4-2.3 3.9-4 1.7-23.5-3.5-31-2.7-3.9-2.5-6 .3-3.6 1 .8 4.4 5.6 7.7 10.6 3.2 5.1 6.1 9.3 6.3 9.3 1.3 0-8-15.4-11.9-19.8-2.4-2.6-5.7-2.9-5.7-.5 0 .9 1.2 3.4 2.6 5.5 4.4 6.3 6.7 20.1 4.4 26.2-1.3 3.4-3.9 4.6-11.1 4.9-5.3.2-6.3-.1-8-2.2-1.1-1.4-1.9-4-2-6.5-.1-6.1-2.2-11-4.7-11.4-1.9-.3-2.2.1-2.2 3.2 0 4.1-3.5 10.3-6.3 11.2-5.7 1.8-22.8-17.9-35.1-40.4-7.3-13.3-12.1-19.8-22-29.8-9.7-9.7-14.2-12.4-28.9-17.6-17.7-6.3-29.9-8.7-63.7-12.8-8.6-1-16.3-2.2-58.5-9-34.5-5.6-49.2-11.6-54.5-22.1-2.9-5.5-2.7-16.3.4-27.1 3-10.3 4.6-23.5 5.3-42.9.6-16.3-1.2-30-6.8-51.1-4.1-15.6-7.9-19.2-13.3-12.7-3.3 3.8-5.1 7.3-7.2 13.6-2.6 7.5-7.3 17.5-10.1 21.2-1.4 1.8-4.6 4.6-7.1 6.2-6.6 4.2-11.9 4-21.1-.8-14-7.2-24.5-19.6-36.8-43.8-6.5-12.9-18.3-30.5-30-45.2-4.5-5.7-8.7-11.2-9.3-12.3-.8-1.5.2-2.9 6.8-9.1 10.5-9.9 23.1-17.9 39.7-25.5 8.7-3.9 32.7-9.4 41.1-9.4 1.8 0 3.7-.6 4.1-1.4.7-1.2 2.5-1.3 10.8-.6 8.4.8 31.5 4.4 51 8.1 5.4 1 25 3.6 33 4.3 3.7.4 4.2.3 2-.3-1.6-.5-7.9-1.4-14-2.1-6-.6-14.6-1.8-19-2.6-22.7-4.1-49.4-8.4-52.5-8.4-1.9 0-7.2-.7-11.8-1.5-35.7-6.3-85.4-5.9-125.7 1.1-61.2 10.6-75 13.9-96.3 23.1-5.7 2.4-16.3 6.6-23.5 9.3-32.9 12.2-50.3 21.5-71.1 38-14.6 11.6-7.2 4.1 10.8-10.9 16.2-13.5 29.9-23 39.5-27.2 2-.8 7-3.2 11.3-5.1 10.3-4.9 20.8-9.1 29.8-11.8 4.1-1.3 10-3.1 13-4.1 5.1-1.6 10.7-3 31.5-7.9 4.4-1 9.8-2.1 12-2.3 2.2-.3 8.1-1.2 13-2 5-.8 12.8-2 17.5-2.6 18.6-2.5 33-5.4 33-6.8 0-.7-3.5-7.9-7.7-16.1-12.5-23.7-14.7-29.9-14.6-41.7.1-8.2.4-9.6 3.6-16 3.7-7.5 11.4-18.3 17.9-25.1 2.1-2.2 5.8-6.8 8.1-10.1s6.5-9.4 9.3-13.4c5.9-8.5 12.8-20.8 12.1-21.5-.2-.3-1.4 1.1-2.6 3.1m262.8 1.1c-7.4 3.9-25.9 29-25.9 35.1 0 2 .3 2.1 2.4 1.3 1.3-.5 2.6-.7 2.9-.4.5.5 8.7-8.9 11.2-13.1 6.6-10.9 12.5-19.7 13.7-20.6.9-.6 0-4-1.1-3.8-.3.1-1.8.7-3.2 1.5m.8 4.7c-1.9 2.3-4.3 5.8-5.5 7.7-1.1 1.9-3.4 5.7-5 8.5-5.6 9.3-15.2 17.8-15.2 13.5 0-.6 2.6-5.2 5.7-10.3 6.1-10 17.9-23.1 20-22.3.7.3 1.2.2 1.2-.2-.3-1.6.2-2.3 1.1-1.7.6.4-.4 2.4-2.3 4.8m-79.4 19.1c.4 2.8.1 3.7-1.6 4.9-1.9 1.2-2 1.8-1.1 4.3.9 2.7 1.4 2.9 5.7 2.7 2.6-.1 4.7.3 4.7.8s-.7.9-1.5.9-1.5.4-1.5 1c0 .5.9.6 1.9.2 1.9-.7 2.1-1 2.1-3.2 0-.5-2.1-.9-4.6-.7-3.5.1-4.9-.2-5.8-1.6-.9-1.5-.7-2.1 1.2-3.5 1.8-1.4 2.1-2.4 1.7-5.2l-.6-3.5 3.3 3.7c4.1 4.4 8.2 12.4 7.4 14.3-.4 1.1-2.1 1.5-5.6 1.5-3.2 0-4.9-.4-4.5-1 .3-.6.1-1-.5-1-.7 0-1 .6-.7 1.2.2.9 2.4 1.3 6.3 1.3 5.3 0 5.9-.2 6.2-2.2.6-4.3-8.2-18.3-11.5-18.3-1.2 0-1.4.8-1 3.4m101.7 2.7c-2.1.6-1.9.7 1.3.6 2 0 3.7-.1 3.7-.3 0-.7-2.9-1-5-.3m-92.9 52.1c0 .9-.9 2.1-1.8 2.7-1 .5-1.5 1.2-1.2 1.5 1.1 1.2 4.1-2.1 3.6-4-.4-1.5-.5-1.6-.6-.2m5.3.4c-.3 1-1.2 3.6-2 5.6-.8 2.1-1 3.8-.5 3.8.9 0 4.4-10.1 3.6-10.8-.2-.3-.7.4-1.1 1.4"/><path d="M553 471.6c0 2.1 7.8 8.3 16.4 13 5.5 3.1 9.3 5.9 10.2 7.5.7 1.5 2.4 2.9 3.6 3.2 1.3.2 5.4 1.6 9.3 3.1 3.8 1.4 11 3.7 16 5.1 17.3 4.9 28.1 8.7 37.5 13.2 5.2 2.5 11.3 5.2 13.5 6.1 10.6 4.2 24 14 39.1 28.5 6.4 6.1 12 10.7 13.1 10.7s5.1-2.5 8.9-5.5c8.6-6.9 27.2-20.3 34.1-24.5 6.2-3.9 7.4-3.4 10.8 4.5 6 13.9 5.7 19.4-1.8 32-6.6 11-17.1 21.8-31.2 32-6 4.4-16.8 12.5-23.9 18-7 5.5-14.5 11.3-16.6 12.8l-3.7 2.8-5.9-4.1c-8.9-6.3-18.4-11.6-23.2-13.1-4-1.1-4.4-1.1-6.8 1.2-1.5 1.3-8.1 9.6-14.7 18.4s-15 19.6-18.7 24.1l-6.8 8-9.8 1.3c-12.4 1.5-13.4 1.8-13.4 4 0 2 3.1 3.2 15.5 6.1 8 1.8 36.9 11.2 45 14.5 1.7.7 5.3 2 8 3 2.8 1 6.4 2.3 8 3 1.7.7 7.1 2.9 12 5 13.7 5.6 36 17.4 47.6 25.1 14.6 9.6 31.2 26.1 45.8 45.4 20.3 26.7 27.1 38.1 28.6 47.5.6 3.7.3 3.4-4.8-4.8-5.9-9.5-9.1-13.7-10.6-13.7-2.5 0-2 2.8 1.8 10.3 2.3 4.5 5.2 12.5 6.5 17.7 2.6 10.4 3.5 11 1.1.8-2-8.9-5.1-17.4-8-22.4-1.4-2.4-2.1-4.5-1.6-4.8.9-.6 7.1 8.2 12.2 17.1 2.5 4.4 4.9 5.6 4.9 2.5 0-2.7-3-12.2-5.2-16.7-3-6-10.8-17.2-23.9-34.5-29.5-39-56.4-57.2-118.9-80.3-18.3-6.8-39.6-13.7-48.5-15.7-18.1-4.1-18.7-5.9-2.5-8l11.3-1.5 5.9-7c3.3-3.9 11.1-14 17.5-22.5 12.4-16.5 18-23 19.9-23s13.7 6.5 22.7 12.5c4.5 3 8.7 5.5 9.4 5.5s3.6-1.9 6.5-4.3c9.6-7.7 27.1-21.1 38.3-29.2 22.3-16.1 37.5-36.2 37.5-49.6 0-3.7-5.5-19.7-7.6-22-.9-1.1-2.5-1.9-3.4-1.9-2.3 0-16.4 9.4-31.9 21.1-6.8 5.2-13.4 10.1-14.6 10.8-2.2 1.4-2.8 1-14.1-9.8-14-13.4-25.4-21.8-36.1-26.8-4.3-2-11.6-5.4-16.3-7.6-8.4-3.9-20.6-8.1-39-13.3-5.2-1.5-12.6-4-16.5-5.5-3.8-1.6-7.6-2.9-8.2-2.9-.7 0-1.9-1.2-2.7-2.8-.9-1.7-4.5-4.4-10.2-7.6-4.9-2.7-10.8-6.7-13.1-8.9-2.4-2.3-4.3-3.7-4.3-3.1m-7.5 21.8c-11.4 5-25.8 16.2-31.5 24.6-7.9 11.7-12.5 30.9-7.6 31.8 1 .2 2.3-.3 2.8-1.2 2.9-5.2 22.6-27.1 31.2-34.7 9-8 10.2-9.5 11.3-13.7 1.7-7.2 1.6-8.2-.9-8.2-1.3.1-3.6.7-5.3 1.4m5.9 3.3c-1.1 6.3-1.6 6.9-12 16.2-8.6 7.6-28.3 29.6-31.2 34.8-1.4 2.4-3.2.6-3.2-3.1 0-10 9.3-27.4 19.1-35.7 5.7-4.9 20.5-14.4 23.6-15.2 4.1-1.1 4.4-.8 3.7 3m-2.2 24.3c-.1 7.5.4 17.4 1 22 .7 4.7 1.3 11 1.3 14.2 0 3.1.3 5.4.8 5.1 1-.6.8-8.1-.4-13.3-.6-2.5-1.5-12.8-1.8-23l-.8-18.5z"/><path d="M581.7 527.7c-.4.3-.7 1.7-.7 3 0 2.8 2.8 9.8 3.6 9 .3-.3-.2-1.9-1-3.6-2.1-4-1.5-7.5 1.2-7.9 1.8-.3 2.6.7 4.7 5.4 4.4 9.8 1.6 8.6-3.7-1.6-1.8-3.4-1.8-3.4-1.1-.5.8 3.9 5.2 10.5 6.9 10.5 1.8 0 1.8-3.5 0-6.8-.8-1.5-1.9-3.9-2.5-5.5-.8-2.1-1.7-2.7-3.9-2.7-1.6 0-3.2.3-3.5.7M277 543c-11.4 2.1-28.4 10.1-40 18.7-4.1 3.1-16 14.2-26.5 24.8-21.2 21.4-28.4 27.8-46.5 41.5-28.9 21.8-44.9 36-54 48.2-13.2 17.5-11.4 25.9 7.7 36.8 7 4 26.7 11.2 44.3 16.1 21.4 6 51.8 20.7 75.9 36.8 31.2 20.8 39.7 28.9 42.5 40.3 1.4 6 6.6 1.7 6.6-5.5 0-6.4-2.9-12.2-9.7-19.1-6.2-6.4-6-8 .9-6.9l3.8.6 2.5-5.7c3.8-8.7 2.9-20.2-2.1-25.7-2-2.3-1.3-3.5 1.3-2.1 5.7 3.2 18.3 21.7 18.3 27 0 4 3.3 2.2 5.2-2.8 3.2-8.5 1.6-17.3-4.7-25.6-2.2-2.9-2.4-4.4-.4-4.4 1.2 0 15 16.3 17 20.2 1.1 2.1 2.3 5.4 2.7 7.5 1.1 5.3 2.8 5.1 4.7-.7 2.6-7.8.3-16.9-6.7-26.6-5.3-7.4-11.9-9.9-33.3-12.9-9.9-1.4-20.5-3-23.5-3.5-22.8-4.2-44.3-8.3-54.5-10.5-6.6-1.3-19-3-27.5-3.6-14.9-1-21-2.2-21-4s18.7-8.4 36.5-12.8c14.5-3.6 19.8-5.1 39.9-11.7 39.8-13 55.7-21 77.6-38.8 39.6-32.1 45.5-58.6 18.2-81.2-6.9-5.7-15.6-10.4-23.9-13-5.8-1.7-25-2.6-31.3-1.4m30 2c14.1 4.5 28.5 15.1 35.8 26.3 4.7 7.2 4.7 7.3 4.7 15.8 0 7.8-.3 9.1-3.7 16-4.6 9.2-12.2 18.5-23 27.9-25.5 22.1-43.7 32-83.2 45-21.6 7.1-25.7 8.3-43.1 12.6-5.5 1.4-15.6 4.4-22.5 6.7-10.5 3.5-12.5 4.5-12.8 6.4-.4 3 3.6 3.9 22.3 5.3 8.3.6 20.5 2.2 27 3.6 10.2 2.1 31.8 6.2 54.5 10.4 3 .5 13.5 2.1 23.4 3.5 20.6 2.9 27.1 5.5 32.4 12.8 7.5 10.6 9.5 18.5 6.4 25.7l-1.9 4.5-.7-4.4c-.9-5.8-3.4-10.5-9.6-17.6-6.4-7.5-9.7-10.5-11.4-10.5-2.5 0-2.6 3.1-.2 6.3 6.8 9.1 8.2 16.7 4.5 24.7l-2.1 4.5-1.3-4.3c-2-6.5-8.8-17.3-13.9-22-7.3-6.7-11.6-5-5.9 2.4 2.1 2.9 2.7 4.8 3 10.7.3 6.1 0 7.9-2 11.7-2.3 4.4-2.5 4.5-7.2 4.5-2.7.1-5 .6-5.2 1.2-.3.7-4.1-1.4-9.1-4.8-26.8-18.5-37.2-24-51.7-27.4-3.8-.8-7.9-1.8-9-2.1-1.5-.4-1.7-.3-.5.4.8.5 4.8 1.7 8.9 2.6 11.1 2.5 22.7 7.9 34.6 16.1 4.4 3 12.4 8.4 17.8 12.1 15.7 10.5 23.7 20.3 23.7 28.8 0 3-.6 4.8-2 6.1-1.6 1.4-2 1.5-2.4.4-.2-.8-1-3.1-1.6-5.2-2.8-9.1-12.3-17.6-41.1-36.8-23.5-15.7-54-30.4-75.4-36.3-34.9-9.8-54.3-19.3-59.6-29.2-2-3.7-2.2-4.6-1.1-8.2 1.6-5.3 8.2-15.1 15.7-23 6.9-7.5 28.2-25.5 46.5-39.2 18.1-13.7 25.3-20.1 46.5-41.5 21.1-21.4 29.5-28.1 43.5-35 12.9-6.4 15.6-7.4 24-8.9 4.3-.8 24.3.3 28 1.4m370 17.2c0 .7 1.9 3.5 4.3 6.2 2.3 2.7 7.6 10.6 11.7 17.5 5.8 9.7 8.1 12.7 9.9 12.9 2.3.4 2.3.2 1.7-3.7-1.9-12.3-5.5-18.2-16.1-27.1-8-6.7-11.5-8.4-11.5-5.8m10.9 7.1c9.1 7.8 12.9 13.5 15.1 22.5 1.2 5.3 1 6.9-.8 5.8-.5-.3-4.2-6.1-8.2-12.8-4-6.8-8.5-13.7-9.9-15.3-8.7-9.9-7.6-10 3.8-.2m112.9 126c-3.1.7-6.3 1.9-7.1 2.5-1.8 1.6-4.2 16-3.4 21 1.2 7 4.8 16.8 8 21.7 2.5 3.8 4.8 5.8 10.2 8.7 8.3 4.5 16.8 13.1 21.2 21.5 3.5 6.6 6.4 17.8 8.8 33.8 3.5 23.5 8.8 40.5 12.6 40.5 2.2 0 4.6-3.3 6-8.3 1.9-7 3.2-4.3 2.8 6l-.4 9.8 2.5.3c1.4.2 4.4 1 6.6 1.9 5.6 2 7.9.7 11.2-6.5 2-4.3 2.6-7.2 2.6-12 0-3.4.2-6.2.5-6.2 1.5 0 2.9 4.2 3.6 10.8.6 5.8.4 7.7-.9 9.7-2.7 4.2-2.1 5.8 1.9 5.2 8.6-1.4 12.9-13.5 10.6-29.9-1.6-11.5-4.6-25.5-9.2-43.8-2.1-8.5-3.9-16.1-3.9-16.9 0-3.4-9.6-25.1-13.2-29.8-9-11.8-26.6-24.6-49.8-36.3-9.2-4.6-13.5-5.4-21.2-3.7m23.2 6.3c24.1 12.9 38 23.2 46.8 34.7 5.1 6.6 11.6 22.1 14.2 33.4 1 4.8 2.9 12.4 4 16.7 3.3 12.3 6.7 29.2 8.1 39.8 1 7.6 1 10.9 0 15.1-1.5 6.8-3.7 10-6.3 9.4-1.6-.5-1.7-.3-.7.9 1.4 1.7 1.2 1.9-2.3 2.8-3.3.8-3.3.8-1.2-3.3 2.9-5.7.2-22.1-3.6-22.1-1.5 0-1.7 1-1.7 6.7.1 5.5-.4 7.8-2.5 11.9-3.9 7.5-4.7 7.9-11 5.8-2.9-.9-5.8-1.8-6.4-2-.8-.2-1-3.2-.6-9.7.4-8 .2-9.5-1.2-10-1.7-.7-3.6 1.9-3.6 4.8 0 1.8-3.7 7.5-4.9 7.5-1.5 0-6-11.1-7.9-19.6-1.1-4.9-3-15.2-4.3-22.9-2.6-16.5-5.6-27.6-9.2-33.8-4.6-7.8-12.2-15.2-19.6-19.1-7.9-4.1-9.9-6.3-14.1-15-4.4-9.3-5.6-16.8-4.1-25.7.6-4 1.9-8.1 2.7-9.1 1.9-2 10.4-3.8 15.4-3.2 2 .2 8.3 2.9 14 6"/><path d="M327.5 714.6c-5.1 1.9-9.5 6.1-9.5 9.2 0 4 4.6 9 11.3 12.2 3.4 1.6 8.5 4.8 11.2 7 12.2 9.7 18.1 14 19.7 14 1.1 0 2.1-1.3 2.7-3.8 1.5-5.2 1.4-8.6-.5-15.4-1.3-4.4-2.5-6.4-5.1-8.4-1.9-1.4-3.7-2.4-3.9-2.1-.3.3 1.1 1.7 3 3.2 2.7 2.1 4 4.1 5.2 8.3 1.7 5.7 1.4 14.6-.5 16.5-1 1-11.9-6.1-15.5-10.1-2.6-3-13.6-9.9-16.9-10.7-3-.8-9.7-7.9-9.7-10.5 0-2.2 4.7-6.6 9.2-8.4 8.5-3.6 25.8-1.2 36.6 4.9 12.6 7.3 18.5 18.6 13.3 25.4l-1.8 2.4-3.3-5.8c-5.3-9.3-11.3-15.3-17-17-1.6-.4-.9.4 2 2.2 5.6 3.6 9.7 8.3 13.9 15.7 1.8 3.1 3.9 5.6 4.6 5.6 1.9 0 4.5-5.2 4.5-9 0-10.4-10.3-20.1-26.6-24.9-8.4-2.5-20.9-2.7-26.9-.5m560.9 24.7c-.2.7.9 3.8 2.7 7l3.1 5.7h6.8c7.9 0 17-1.8 17-3.4 0-1.2-10.6-5.2-22.3-8.6-5.2-1.4-6.9-1.6-7.3-.7m13.3 3.6c4.8 1.6 10.3 3.6 12.2 4.4l3.3 1.4-4.5 1.2c-2.5.6-7.5 1.1-11.1 1.1h-6.4l-3-5.5c-3.7-6.7-3.3-6.8 9.5-2.6M766 745c0 2.8 17.4 17.9 25.9 22.4l7.2 3.8 12-.7c8.7-.6 11.9-1.1 11.9-2.1 0-.7-2.7-3.9-6.1-7.1-4.4-4.1-7.8-6.4-12.2-8-5.3-1.9-36.2-10.3-38.1-10.3-.3 0-.6.9-.6 2m18.7 3.5c19.7 5 24.1 7 31.2 13.8 3.4 3.2 6.1 6 6.1 6.2 0 .1-5.1.6-11.2 1l-11.3.7-6.9-3.9c-3.8-2.1-11.1-7.5-16.3-12.1-9-8-11.2-10.9-7.5-9.8.9.3 8.1 2.1 15.9 4.1m-286.9 0c-6.3 3.3-21.9 9-32.8 11.8-24.8 6.6-70.3 12.6-95.2 12.7-5.9 0-7.8.3-7.8 1.3s3.2 1.9 10.3 3.1c15.5 2.5 57 12.5 58.5 14.1 1.4 1.4-1.4 1.4-9.9.1-21.2-3.4-47.3-4.9-75.4-4.2-28.7.7-36.6 1.5-39.6 4.2-2.4 2.2-2.4 4.4 0 4.4 3.1 0 23.3 7 27.9 9.6 4.7 2.8 8.2 7.6 8.2 11.3 0 6.2-6.5 11.5-17.5 14.6-5.9 1.6-38.1 3.8-55 3.8-13.1 0-27-4-45.3-13.2-9.8-4.9-32.8-14-45.7-18-13.6-4.2-24-6.7-44-10.7-9.3-1.8-21.3-4.2-26.5-5.4-7.5-1.6-11.6-1.9-19.5-1.4-12.3.7-55.3 6.8-67.2 9.5-4.9 1-11.3 2.4-14.3 3s-5.9 1.4-6.3 1.8c-.8.8 2.5.2 20.1-3.8 12.5-2.7 55.4-8.8 67.7-9.5 7.9-.5 12-.2 19.5 1.4 5.2 1.2 17.2 3.6 26.5 5.4 36.5 7.3 57.5 13.9 84.5 26.8 15.9 7.6 22.9 10.4 32.6 12.8 10.4 2.6 17.6 2.8 46.4 1.2 21.4-1.1 31.9-3.1 38.6-7.3 3.4-2 6.4-7.2 6.4-10.8 0-4.1-2.9-9-6.7-11.5-3.8-2.4-26.9-10.6-30.1-10.6-1.4 0-1.3-.3.5-2.1 3.1-3.1 8.6-3.8 38.3-4.5 27.5-.7 56 .9 75.9 4.2 11 1.8 11.1 1.7 11.1-.4 0-1.5-2.5-2.5-13.7-5.4-18.3-4.8-33.7-8.4-45.3-10.3-5.2-.9-9.7-1.8-9.9-2.1-.2-.2 2.9-.4 7-.4s15.4-.7 25.2-1.5c41.6-3.4 80.7-12 101.8-22.4 5.5-2.7 6-2.8 15.5-2 5.5.4 15.3 1.5 21.9 2.3s16.7 2 22.5 2.7c23.5 2.5 82.4 15.6 90.2 19.9 1 .6 2.4 1 3.1 1 4 0 39.7 19.7 39.7 21.8 0 1.1-2.4 1.6-39 8.2-25.1 4.6-39.8 7.5-50.5 10-2.2.5-13.7 3-25.5 5.5-11.8 2.6-29.1 6.4-38.5 8.5-9.3 2.1-20.1 4.6-24 5.4-8.9 1.9-67.2 14.9-79 17.7-31.3 7.3-92.3 22.9-105 27-1.6.5-7.7 2.3-13.5 4-13.8 4.1-22.2 8.5-21.8 11.3.3 2 .9 2.1 11.3 2.1 12-.1 22.8-2.2 57.3-11.1 19.8-5.1 49.8-12.5 70.2-17.3 52.7-12.3 142.7-32.9 153.5-35 2.2-.5 13.9-3.1 26-5.9 12.2-2.9 26.6-6.1 32-7.3 52.2-11 54-11.3 55.9-10.6 2.6 1 1.8 2.5-1.6 3.2-1.8.4-6 1.3-9.3 2-3.3.8-14.5 3.3-25 5.5-28 6.1-128.7 29.2-168 38.5-8.2 2-20.6 4.9-27.5 6.5-25.9 6-63.5 15.3-103.5 25.5-40.4 10.4-43.8 10.9-70.5 11h-23.5l-11.5-5.7c-17-8.3-70.1-24.9-102-31.8-1.9-.4-9.8-2.4-17.5-4.3-13.8-3.5-36.9-8.3-51.5-10.7-4.1-.6-9.5-1.6-12-2-2.5-.5-9.9-1.8-16.5-3-42.6-7.3-58.9-10-59.2-9.6-.4.4 6.7 1.7 38 7.1 11.5 1.9 24.7 4.2 29.5 5.1 4.8.8 11.2 1.9 14.2 2.4 21 3.3 40.2 7.2 59.5 12.2 6.6 1.6 13.6 3.4 15.5 3.8 31 6.7 82.3 22.6 98.5 30.6 14.4 7.1 18.5 7.7 43 7.1 22.2-.6 30.7-2 65.5-11 33.5-8.7 77.7-19.6 104-25.7 6.9-1.6 19.3-4.5 27.5-6.5 39.3-9.3 140-32.4 168-38.5 10.5-2.2 21.7-4.7 25-5.5s7.7-1.7 9.8-2.1c3.1-.5 3.8-1 3.5-2.8-.4-2.8-3.7-3.1-13.5-1.1-11.9 2.5-33.7 7.1-44.8 9.4-5.4 1.2-19.8 4.4-32 7.3-12.1 2.8-23.8 5.4-26 5.9-10.8 2.1-100.8 22.7-153.5 35-20.4 4.8-50.4 12.2-70.2 17.3-33.9 8.8-45.4 11-56.7 11.1-6.8 0-10.6-.4-10.8-1.1-.6-1.7 12.2-7.8 22.7-10.9 5.2-1.5 10.6-3.1 12-3.6 12.6-4.3 96.1-25.3 127-31.9 4.7-1 17.7-3.9 29-6.5 11.3-2.5 23.7-5.3 27.5-6.1 3.9-.8 14.7-3.3 24-5.4 9.4-2.1 26.7-5.9 38.5-8.5 11.8-2.5 23.3-5 25.5-5.5 10.7-2.5 25.4-5.4 50.5-10 42.9-7.8 40-7.1 40-9.2 0-4-28.2-19-47.5-25.2-25.2-8.2-68.2-16.9-96-19.6-4.9-.5-14.4-1.5-21-2.3-21.6-2.8-23.9-2.8-28.7-.2"/><path d="M5.5 838.6c6.8 1.5 40.3 8.1 48 9.4 2.8.5 17.2 2.9 32 5.4 41 6.8 55.9 10.1 102 22.3 27 7.1 35.2 9.7 44.9 14.4 12.9 6.3 13.1 6.9 4.3 12.1-5.9 3.5-16.4 7.2-27.2 9.6-2.7.6-12.6 3-22 5.2-9.3 2.3-22.4 5.4-29 7s-19.4 4.7-28.5 6.9-24.1 5.8-33.5 8.1c-9.3 2.2-31.8 7.7-50 12.1-18.1 4.4-35.2 8.5-38 9.1-5.9 1.2-10.8 3.1-6 2.2 4.2-.7 6.7-1.3 44-10.4 18.2-4.3 40.7-9.8 50-12 9.4-2.3 24.4-5.9 33.5-8.1s21.9-5.3 28.5-6.9 19.7-4.7 29-7c9.4-2.2 19.3-4.6 22-5.2 10.6-2.3 24.2-7 28.3-9.9 2.3-1.6 4.7-2.9 5.2-2.9.6 0 1-1.1 1-2.4 0-5.8-16.2-12.3-56.5-23-44.3-11.7-61.8-15.5-101.5-22.1-31.3-5.2-43.9-7.4-46-8-.8-.3-9.8-2-20-4C1.7 837-6 836 5.5 838.6"/><path d="M2 844.9c2.8 1 8.8 2.2 23 4.7 13.1 2.3 31.9 5.7 49.5 8.9 14.6 2.7 27.4 4.8 34.5 5.5 9.1 1 9.7 1.1 34 7.1 23.9 5.8 29.9 7.4 30.6 8.2.4.4 2 .7 3.5.7 1.4 0 8.7 1.6 16 3.5 7.4 2 15.1 4 17.1 4.5 2.1.6 7.2 2.4 11.5 4.1s9.2 3.5 10.8 3.9c1.7.4 3.9 1.1 5 1.5l2 .8-2-1.6c-1.1-.9-3-1.7-4.3-1.7-1.2 0-4.1-.9-6.5-1.9-6.9-3.1-13-5.3-16.7-6.2-1.9-.4-7.8-1.9-13-3.4s-12.4-3.3-16-4-10.1-2.3-14.5-3.5c-7.5-2-34.3-8.7-44.5-11-2.5-.6-8.4-1.5-13-2-7.1-.7-19.9-2.8-34.5-5.5-18.8-3.4-37-6.7-49.5-8.9-5.2-.9-11.5-2.1-14-2.6s-6.1-1.1-8-1.4c-2.8-.5-3-.4-1 .3m244.5 67c-1.3 1.2-24.6 7.6-72 19.7-20.9 5.3-52.8 13.4-71 18-18.1 4.7-34.8 8.8-37 9.3C52.7 961.8 1.4 974.4.7 975c-.5.4 11-2.1 25.5-5.5 14.5-3.5 29.7-7.1 33.8-8.1 8.7-2.1 60.3-15 114.5-28.8 46.9-12 70.5-18.3 72.7-19.6 2.4-1.3 2.8-1.3 2.8.5 0 3.2-11.9 8.4-30.5 13.2-1.1.3-12.1 3.4-24.5 6.8-32.8 9.2-104.2 27.7-128 33.1-15.6 3.6-66.4 16.5-66.9 17-.8.8 1.2.3 28.7-6.6 15.2-3.8 32.4-8 38.2-9.4 23.8-5.4 95.2-23.9 128-33.1 12.4-3.4 23.4-6.5 24.5-6.8 9.5-2.4 26.4-8.2 28.7-9.8 3.3-2.4 3.9-6.9 1-6.9-1 0-2.2.4-2.7.9m68.5 0c-2 1.1-20.5 3.1-29 3.1-7.8 0-9.5 1.7-3.9 4.1 5.1 2.1 14.6 9.6 17.9 14 7.2 10 8.8 20.2 9.9 63.4.8 27.4.8 27.6.9 9 .2-22.9-1.3-49.8-3.4-58-3.3-13.4-9.3-21-22.1-28.2l-5.8-3.3h7.5c4.1-.1 12.2-.8 18-1.7 20.1-3 29-1.4 38.4 6.8 2.5 2.2 4.6 3.6 4.6 3.1 0-.6-1.9-2.7-4.2-4.6-6.8-5.8-23.9-10.4-28.8-7.7"/></g></svg>