<svg version="1.1" xmlns="http://www.w3.org/2000/svg" style="display: block;" viewBox="0 0 2048 2048" width="1024" height="1024">
<defs>
	<linearGradient id="Gradient1" gradientUnits="userSpaceOnUse" x1="1231.21" y1="847.482" x2="1155.2" y2="771.853">
		<stop class="stop0" offset="0" stop-opacity="1" stop-color="rgb(0,0,4)"/>
		<stop class="stop1" offset="1" stop-opacity="1" stop-color="rgb(13,6,32)"/>
	</linearGradient>
	<linearGradient id="Gradient2" gradientUnits="userSpaceOnUse" x1="-30.2747" y1="656.64" x2="670.998" y2="926.614">
		<stop class="stop0" offset="0" stop-opacity="1" stop-color="rgb(12,26,126)"/>
		<stop class="stop1" offset="1" stop-opacity="1" stop-color="rgb(0,77,168)"/>
	</linearGradient>
	<linearGradient id="Gradient3" gradientUnits="userSpaceOnUse" x1="185.821" y1="2105.05" x2="305.688" y2="1721.35">
		<stop class="stop0" offset="0" stop-opacity="1" stop-color="rgb(5,2,25)"/>
		<stop class="stop1" offset="1" stop-opacity="1" stop-color="rgb(10,6,62)"/>
	</linearGradient>
	<linearGradient id="Gradient4" gradientUnits="userSpaceOnUse" x1="1388.9" y1="291.079" x2="1278.02" y2="292.184">
		<stop class="stop0" offset="0" stop-opacity="1" stop-color="rgb(2,4,20)"/>
		<stop class="stop1" offset="1" stop-opacity="1" stop-color="rgb(7,6,58)"/>
	</linearGradient>
</defs>
<path transform="translate(0,0)" fill="rgb(4,4,25)" d="M 0 0 L 168.971 0 L 604.653 0 L 878.584 0 L 1084.19 0 L 1276.59 0 L 1388.21 0 L 1412.94 0 L 2048 0 L 2048 346.041 L 2048 386.451 L 2048 823.174 L 2048 864.291 L 2048 2048 L 2012.94 2048 L 1896.61 2048 L 1862.07 2048 L 1549.62 2048 L 1244.77 2048 L 1182.66 2048 L 1100.09 2048 L 679.759 2048 L 621.939 2048 L 529.154 2048 L 0 2048 L 0 1968.97 L 0 1951.59 L 0 1927.69 L 0 1689.79 L 0 1675.44 L 0 1667.07 L 0 1603.9 L 0 1484.02 L 0 1358.81 L 0 718.361 L 0 576.021 L 0 555.466 L 0 519.197 L 0 0 z"/>
<path transform="translate(0,0)" fill="rgb(239,39,111)" d="M 604.653 0 L 878.584 0 L 1084.19 0 L 1276.59 0 L 1388.21 0 L 1412.94 0 L 2048 0 L 2048 346.041 L 2048 386.451 L 2048 823.174 L 2048 864.291 L 1731.9 859.92 L 1640.13 858.392 C 1606.03 857.52 1571.81 856.095 1537.7 857.063 C 1544.4 891.038 1557.04 920.516 1576.9 948.875 C 1581.64 955.65 1586.4 962.76 1592.38 968.501 C 1620.47 972.979 1650.2 971.604 1678.61 972.784 L 1755.34 976.604 C 1786.03 977.839 1816.89 978.442 1847.49 981.146 C 1873.29 983.427 1898.86 987.176 1924.48 990.906 C 1955.29 995.393 1988.6 998.696 2016.26 1013.97 C 1974.82 1014.29 1932.89 1024.78 1903.08 1055.14 C 1888 1070.44 1877.51 1089.66 1872.78 1110.63 C 1866.68 1137.65 1867.31 1166.79 1867.23 1194.39 L 1867.27 1270.42 L 1867.02 1475.29 C 1859.82 1472.06 1852.41 1468.07 1844.94 1465.61 C 1827.01 1458.72 1808.78 1452.6 1790.97 1445.4 C 1790.79 1445.07 1790.59 1444.75 1790.42 1444.42 C 1782.66 1429.83 1776.67 1413.62 1770.47 1398.33 C 1736.27 1314.01 1704.3 1192.02 1730.01 1102.26 C 1738.56 1072.39 1755.95 1045.04 1781.89 1027.33 C 1793.17 1019.63 1805.96 1013.43 1817.91 1006.77 C 1804.3 1003.39 1788.11 1004.27 1774.07 1003.72 L 1696.67 1000.69 C 1667.02 999.409 1637.58 995.492 1607.96 994.56 C 1616.19 1019.69 1616.87 1047.37 1614.55 1073.53 C 1608.34 1050.16 1607.76 1027.58 1597.26 1005.13 C 1579.49 967.126 1543.24 943.638 1528.14 903.914 C 1515.21 869.887 1515.58 843.84 1510.12 809.409 C 1506.5 786.61 1499.86 764.93 1490.83 743.721 C 1493.97 741.668 1497.28 739.806 1500.5 737.864 C 1503.14 722.59 1508.13 707.996 1511.22 692.848 C 1514.15 678.52 1520.4 633.381 1514.71 621.64 L 1513.27 621.473 C 1508.6 631.755 1507.45 645.332 1503.81 656.328 C 1498.19 673.266 1490.44 689.691 1484.22 706.478 L 1481.21 695.17 C 1481.28 694.91 1481.37 694.653 1481.42 694.389 C 1483.26 685.536 1477.82 669.98 1473.32 662.352 C 1478.75 634.614 1496.1 613.403 1513.21 591.893 C 1513.47 580.726 1513.78 569.493 1512.47 558.375 C 1509.89 536.48 1500.65 504.621 1490.14 485.231 C 1486.14 477.869 1481.27 471.671 1475.86 465.299 C 1469.25 463.356 1460.89 468.189 1455.04 471.377 C 1440.13 479.516 1424.07 488.534 1414 502.64 L 1413.23 503.331 C 1399.76 515.639 1388.63 530.906 1376.52 544.531 C 1360.19 562.911 1325.05 598.158 1302.69 606.532 L 1301.33 606.141 C 1302.29 601.575 1308.71 598.073 1308.43 594.262 C 1303.38 591.39 1297.17 592.619 1291.85 594.074 C 1275.82 598.464 1262.74 607.246 1245.92 609.907 C 1251.52 604.704 1271.34 593.464 1272.68 588.453 C 1268.66 585.858 1262.47 587.006 1257.96 588.007 C 1224.44 595.461 1206.26 643.377 1195.54 646.296 C 1194.31 643.803 1194.24 642.059 1195.2 639.401 C 1200.65 624.278 1216.63 607.992 1228.56 597.558 C 1232.51 594.099 1237.85 590.621 1241.06 586.609 C 1242.58 584.721 1242.21 584.581 1241.53 582.437 C 1238.99 580.512 1237.65 579.917 1234.52 579.352 C 1221.61 582.157 1216.43 594.363 1206.59 601.323 C 1201.58 608.083 1196.64 614.823 1192.32 622.051 C 1185.61 633.275 1180.38 645.344 1171.13 654.784 L 1171.6 652.825 C 1175.3 637.87 1187.82 618.521 1187.35 603.661 L 1186.14 603.436 C 1177.63 611.239 1140.01 677.396 1139.12 688.402 C 1137.66 706.551 1148.47 727.144 1146.16 751.08 C 1144.08 772.701 1126.15 784.395 1129.39 808.879 L 1130.73 810.112 C 1126.63 811.519 1125.08 812.669 1123.18 816.608 C 1120.01 823.161 1117.23 839.69 1113.08 844.041 L 1111.69 842.58 C 1110.33 841.175 1109.08 840.187 1107.15 839.648 C 1106.25 847.477 1105.13 855.492 1106.16 863.363 C 1106.85 868.618 1110.11 875.416 1109.67 880.459 C 1109.41 883.338 1108.43 884.949 1106.2 886.707 C 1101.34 890.541 1093.62 891.95 1087.72 893.678 C 1090.62 898.1 1093.84 901.676 1097.5 905.438 C 1098.82 909.835 1099.73 914.374 1100.77 918.844 C 1091.91 912.103 1085.19 903.111 1076.39 896.477 C 1076.35 896.88 1076.3 897.281 1076.27 897.685 C 1075.57 908.502 1081.32 920.954 1071.6 929.493 C 1062.79 937.23 1048.41 938.112 1037.52 941.716 C 1028.83 944.594 1021.45 948.218 1014.05 953.601 C 951.584 940.271 890.27 931.209 826.604 926.346 C 822.24 910.802 817.688 895.243 814.199 879.473 C 810.524 862.865 807.792 846.083 803.691 829.562 C 797.178 803.328 788.732 777.882 779.783 752.401 C 764.976 710.235 751.128 673.768 725.45 636.603 C 719.766 628.376 713.025 620.634 704.926 614.696 C 678.231 595.124 633.232 586.469 600.711 580.481 L 604.653 0 z"/>
<path transform="translate(0,0)" fill="rgb(4,4,25)" d="M 1388.21 0 L 1412.94 0 L 2048 0 L 2048 346.041 L 2048 386.451 L 2048 823.174 L 2048 864.291 L 1731.9 859.92 L 1640.13 858.392 C 1606.03 857.52 1571.81 856.095 1537.7 857.063 C 1536.03 845.422 1535.08 833.69 1534.85 821.932 C 1533.91 802.717 1534.53 782.518 1529.67 763.807 C 1525.91 749.317 1514.23 731.809 1513.59 717.588 C 1512.93 702.978 1521.75 687.095 1524.25 672.571 C 1530.78 634.642 1524.51 563.329 1513.76 526.207 C 1507.73 505.387 1500.67 474.708 1480.63 463.637 C 1477.08 461.014 1473.45 458.46 1470 455.707 C 1448.15 463.014 1431.6 472.996 1414.36 488.378 C 1405.89 497.621 1397.58 506.937 1389.82 516.797 C 1387.55 344.608 1388.59 172.213 1388.21 0 z"/>
<path transform="translate(0,0)" fill="rgb(4,4,25)" d="M 2048 386.451 L 2048 823.174 L 2048 864.291 L 1731.9 859.92 L 1640.13 858.392 C 1606.03 857.52 1571.81 856.095 1537.7 857.063 C 1536.03 845.422 1535.08 833.69 1534.85 821.932 C 1533.91 802.717 1534.53 782.518 1529.67 763.807 C 1525.91 749.317 1514.23 731.809 1513.59 717.588 C 1512.93 702.978 1521.75 687.095 1524.25 672.571 C 1530.78 634.642 1524.51 563.329 1513.76 526.207 C 1507.73 505.387 1500.67 474.708 1480.63 463.637 C 1477.08 461.014 1473.45 458.46 1470 455.707 C 1448.15 463.014 1431.6 472.996 1414.36 488.378 C 1413.59 462.667 1414.05 436.83 1414.05 411.103 L 2048 386.451 z"/>
<path transform="translate(0,0)" fill="rgb(13,8,82)" d="M 1534.85 821.932 C 1596.15 820.583 1657.68 821.765 1719 821.993 L 2048 823.174 L 2048 864.291 L 1731.9 859.92 L 1640.13 858.392 C 1606.03 857.52 1571.81 856.095 1537.7 857.063 C 1536.03 845.422 1535.08 833.69 1534.85 821.932 z"/>
<path transform="translate(0,0)" fill="rgb(13,8,82)" d="M 1816.14 538.393 C 1819.3 537.789 1822.81 537.777 1826.03 537.512 L 1826.09 716.081 C 1826.07 749.183 1827.85 783.507 1824.96 816.458 C 1813.79 817.165 1802.45 816.893 1791.25 816.99 L 1778.08 816.982 L 1778.1 542.126 C 1790.79 541.031 1803.47 539.787 1816.14 538.393 z"/>
<path transform="translate(0,0)" fill="rgb(13,8,82)" d="M 1658.18 517.304 C 1672.3 517.631 1686.39 516.345 1700.54 517.028 C 1703.28 543.542 1702.14 571.121 1702.15 597.78 L 1702.06 723.329 L 1701.98 780.595 C 1701.96 791.24 1703.02 803.937 1700.88 814.353 L 1698.76 815.426 C 1685.41 816.618 1671.53 815.004 1658.04 815.53 C 1660.59 739.837 1660.65 663.607 1660.15 587.869 C 1660 564.339 1657.81 540.831 1658.18 517.304 z"/>
<path transform="translate(0,0)" fill="rgb(4,28,132)" d="M 1851.07 566.809 C 1868.76 568.585 1886.52 570.143 1904.07 573.019 C 1902.21 593.884 1902.95 615.327 1902.76 636.272 L 1901.59 750.517 C 1901.33 772.434 1901.76 794.654 1900.23 816.514 C 1884.09 817.622 1867.5 817.103 1851.3 817.355 C 1853.15 790.204 1851.47 761.867 1851.42 734.605 L 1851.07 566.809 z"/>
<path transform="translate(0,0)" fill="rgb(13,8,82)" d="M 1600.87 561.823 C 1616.06 562.346 1632.09 563.187 1646.89 566.7 C 1648.6 597.696 1646.17 629.789 1645.93 660.924 C 1645.53 711.31 1646.58 762.154 1644.47 812.473 C 1629.09 814.687 1614.44 815.319 1598.94 815.162 L 1600.87 561.823 z"/>
<path transform="translate(0,0)" fill="rgb(13,8,82)" d="M 1939.6 509.578 C 1945.4 509.061 1951.27 509.008 1957.09 508.797 C 1958.68 610.282 1957.38 711.975 1957.08 813.482 C 1950.59 814.783 1944.3 815.891 1937.69 816.391 L 1921.61 816.313 C 1923.15 714.259 1921.65 612.073 1922.01 509.999 C 1927.88 510.025 1933.74 509.775 1939.6 509.578 z"/>
<path transform="translate(0,0)" fill="rgb(4,28,132)" d="M 1728.14 532.24 C 1739.76 532.136 1751.39 532.151 1763.01 532.283 C 1763.36 562.156 1766.03 809.55 1762.73 816.127 L 1727.39 816.041 C 1728.31 782.347 1727.66 748.503 1727.63 714.796 C 1727.4 653.943 1727.57 593.09 1728.14 532.24 z"/>
<path transform="translate(0,0)" fill="rgb(13,8,82)" d="M 1388.21 0 L 1412.94 0 L 1413.82 235.115 C 1413.92 280.027 1413.08 325.085 1414.39 369.968 C 1468.82 370.263 1523.43 366.381 1577.8 364.049 L 1810 355.185 C 1834.96 354.224 1859.76 352.024 1884.77 351.846 C 1890.36 352.513 1898.43 352.481 1903.77 350.575 C 1926.18 347.503 1949.08 348.495 1971.63 348.089 C 1997.09 347.63 2022.53 346.315 2048 346.041 L 2048 386.451 L 1414.05 411.103 C 1414.05 436.83 1413.59 462.667 1414.36 488.378 C 1405.89 497.621 1397.58 506.937 1389.82 516.797 C 1387.55 344.608 1388.59 172.213 1388.21 0 z"/>
<path transform="translate(0,0)" fill="rgb(13,8,82)" d="M 1854.09 59.8495 C 1870.4 55.7523 1886.05 53.4652 1902.86 52.9915 C 1903.39 97.2444 1902.28 141.559 1902.24 185.82 C 1902.18 240.268 1903.01 294.874 1901.53 349.303 L 1903.77 350.575 C 1898.43 352.481 1890.36 352.513 1884.77 351.846 L 1884.3 350.654 C 1874.42 348.734 1864.22 348.932 1854.2 349.026 C 1853.28 305.356 1854.04 261.553 1854.04 217.869 C 1854.05 165.207 1853.47 112.506 1854.09 59.8495 z"/>
<path transform="translate(0,0)" fill="rgb(13,8,82)" d="M 1472.69 77.5819 C 1485.98 76.0739 1499.99 76.7314 1513.36 76.7146 C 1514.69 172.346 1511.45 268.132 1513.79 363.733 C 1503.11 363.655 1492.43 363.835 1481.76 364.273 C 1468.19 365.509 1454.57 365.926 1440.98 367.283 C 1440.45 338.189 1441.58 308.874 1441.66 279.745 L 1442.06 80.3478 C 1452.28 79.7615 1462.5 78.5451 1472.69 77.5819 z"/>
<path transform="translate(0,0)" fill="rgb(4,28,132)" d="M 1768.78 52.4077 C 1772.87 51.7672 1777.27 51.8249 1781.42 51.5953 C 1783.94 81.9571 1782.23 113.721 1782.16 144.187 C 1781.99 213.341 1780.5 282.689 1781.48 351.82 C 1767.04 352.194 1752.61 353.129 1738.24 354.624 C 1734.63 355.048 1730.82 354.962 1727.18 355.098 C 1726.75 327.523 1727.34 299.866 1727.32 272.282 L 1727.19 59.1361 C 1740.78 55.9834 1754.92 53.9441 1768.78 52.4077 z"/>
<path transform="translate(0,0)" fill="rgb(4,28,132)" d="M 1578.61 55.4127 C 1579.24 55.3224 1579.87 55.2033 1580.5 55.1419 C 1582.86 54.9128 1584.12 54.8088 1585.89 56.5201 C 1588.08 99.7049 1586.26 143.777 1586.16 187.07 C 1586.02 244.047 1587.12 301.331 1584.92 358.254 C 1573.54 357.774 1562.24 357.771 1550.9 359.065 L 1547.01 358.733 C 1544.2 354.297 1545.52 89.6945 1545.21 59.2574 C 1556.25 58.7135 1567.62 56.7381 1578.61 55.4127 z"/>
<path transform="translate(0,0)" fill="rgb(13,8,82)" d="M 1706.45 97.1578 L 1709.25 97.3174 C 1712.51 103.686 1709.22 328.587 1707.9 348.974 C 1693.34 348.8 1678.89 350.217 1664.29 349.623 L 1662.47 348.561 C 1659.05 339.711 1661.3 133.401 1662.02 105.467 C 1676.95 104.092 1691.83 100.372 1706.45 97.1578 z"/>
<path transform="translate(0,0)" fill="rgb(13,8,82)" d="M 1841.28 95.4568 L 1844.56 95.2434 L 1846.26 96.7325 C 1848.49 105.167 1846.84 150.012 1846.79 162.189 L 1845.88 347.943 C 1832.69 347.756 1819.27 349.182 1806.04 349.527 C 1803.33 349.15 1802.24 349.209 1800.03 347.52 C 1796.84 337.697 1798.89 280.613 1798.91 265.278 L 1799.26 96.1362 C 1813.25 97.0859 1827.3 96.272 1841.28 95.4568 z"/>
<path transform="translate(0,0)" fill="rgb(13,8,82)" d="M 1945.55 41.3433 L 1955.16 40.51 C 1956.32 141.512 1954.98 242.703 1955.02 343.725 C 1945.33 343.262 1935.46 343.87 1925.75 344.101 C 1923.02 344.166 1921.1 344.71 1918.72 343.236 C 1914.6 331.214 1917.05 252.188 1917.08 234.118 C 1917.15 171.666 1916.27 109.047 1917.86 46.6252 C 1927.07 44.5848 1936.19 42.5693 1945.55 41.3433 z"/>
<path transform="translate(0,0)" fill="rgb(13,8,82)" d="M 1643.69 103.403 L 1645.65 103.5 C 1648.68 107.713 1646.47 332.174 1645.85 355.756 C 1632.85 356.469 1619.77 356.599 1606.75 356.997 L 1603.78 356.526 C 1602.24 353.874 1602.29 350.842 1602.24 347.854 C 1601.92 328.46 1602.82 308.811 1602.85 289.378 L 1602.65 108.163 C 1616.42 107.489 1630.05 105.301 1643.69 103.403 z"/>
<path transform="translate(0,0)" fill="rgb(13,8,82)" d="M 604.653 0 L 878.584 0 C 877.629 38.7791 878.174 77.61 877.789 116.4 C 877.473 148.28 876.453 180.151 876.412 212.034 C 876.142 418.206 881.569 624.412 881.966 830.584 C 936.622 828.12 991.318 826.642 1046.03 826.151 L 1047.23 835.039 C 1030.02 839.084 1015.03 846.167 1002.41 858.652 C 1017.85 852.615 1032.29 845.525 1048.19 840.413 C 1050.1 846.764 1051.71 853.358 1054.87 859.226 C 1025.14 872.518 1001.86 889.594 985.01 917.995 C 1003.32 899.46 1034.59 874.127 1058.34 864.755 C 1062.63 874.772 1067.01 883.1 1073.7 891.701 C 1067.25 896.845 1062.45 902.644 1057.61 909.289 C 1061.42 906.851 1073.51 896.866 1076.39 896.477 C 1076.35 896.88 1076.3 897.281 1076.27 897.685 C 1075.57 908.502 1081.32 920.954 1071.6 929.493 C 1062.79 937.23 1048.41 938.112 1037.52 941.716 C 1028.83 944.594 1021.45 948.218 1014.05 953.601 C 951.584 940.271 890.27 931.209 826.604 926.346 C 822.24 910.802 817.688 895.243 814.199 879.473 C 810.524 862.865 807.792 846.083 803.691 829.562 C 797.178 803.328 788.732 777.882 779.783 752.401 C 764.976 710.235 751.128 673.768 725.45 636.603 C 719.766 628.376 713.025 620.634 704.926 614.696 C 678.231 595.124 633.232 586.469 600.711 580.481 L 604.653 0 z"/>
<path transform="translate(0,0)" fill="rgb(1,76,169)" d="M 1084.19 0 L 1276.59 0 L 1388.21 0 C 1388.59 172.213 1387.55 344.608 1389.82 516.797 C 1374.9 537.117 1337.68 582.738 1313.77 586.332 C 1304.24 587.764 1288.24 583.653 1279.03 580.601 C 1256.87 572.498 1230.4 575.07 1207.95 580.585 C 1205.84 579.673 1204.88 578.849 1203.62 576.985 C 1190.82 558.148 1181.2 537.378 1166.19 519.909 C 1143.05 492.966 1115.11 471.304 1085.82 451.564 C 1086.16 354.634 1085.82 257.703 1084.8 160.778 C 1084.45 107.235 1085.69 53.5067 1084.19 0 z"/>
<path transform="translate(0,0)" fill="url(#Gradient4)" d="M 1276.59 0 L 1388.21 0 C 1388.59 172.213 1387.55 344.608 1389.82 516.797 C 1374.9 537.117 1337.68 582.738 1313.77 586.332 C 1304.24 587.764 1288.24 583.653 1279.03 580.601 C 1279.98 555.935 1279.1 530.921 1279.03 506.224 L 1278.26 355.586 L 1276.59 0 z"/>
<path transform="translate(0,0)" fill="rgb(1,76,169)" d="M 1817.91 1006.77 C 1818.21 1006.82 1818.51 1006.86 1818.81 1006.9 C 1830.42 1008.46 1842.6 1007.92 1854.35 1008.56 C 1869.3 1009.38 1884.17 1011.17 1899.14 1011.93 C 1909.75 1012.46 1923.09 1011.6 1933.27 1014.73 L 1933.41 1016.58 C 1925.43 1021.19 1915.94 1023.33 1907.71 1027.72 C 1877.27 1043.97 1857.25 1070.42 1848.52 1103.7 C 1840.69 1133.52 1841.86 1164.86 1841.97 1195.42 C 1841.94 1225.79 1842.51 1256.17 1843.69 1286.52 C 1845.46 1345.45 1847.49 1406.82 1844.94 1465.61 C 1827.01 1458.72 1808.78 1452.6 1790.97 1445.4 C 1790.79 1445.07 1790.59 1444.75 1790.42 1444.42 C 1782.66 1429.83 1776.67 1413.62 1770.47 1398.33 C 1736.27 1314.01 1704.3 1192.02 1730.01 1102.26 C 1738.56 1072.39 1755.95 1045.04 1781.89 1027.33 C 1793.17 1019.63 1805.96 1013.43 1817.91 1006.77 z"/>
<path transform="translate(0,0)" fill="rgb(1,76,169)" d="M 1046.1 793.522 C 1057.06 795.132 1067.83 796.558 1078.33 800.308 L 1077 813.046 C 1071.04 820.223 1068.37 825.199 1067.72 834.711 L 1047.23 835.039 L 1046.03 826.151 C 1046.06 815.29 1046.31 804.378 1046.1 793.522 z"/>
<path transform="translate(0,0)" fill="rgb(103,1,46)" d="M 1105.62 808.606 C 1108.75 806.56 1107.57 803.714 1111.95 804.36 C 1118.09 805.268 1119.12 809.494 1128.03 809.607 L 1129.39 808.879 L 1130.73 810.112 C 1126.63 811.519 1125.08 812.669 1123.18 816.608 C 1120.01 823.161 1117.23 839.69 1113.08 844.041 L 1111.69 842.58 C 1110.33 841.175 1109.08 840.187 1107.15 839.648 C 1106.67 832.607 1100.86 828.894 1095.95 824.434 L 1105.66 821.797 C 1106.21 821.615 1106.79 821.51 1107.31 821.252 C 1109.42 820.204 1109.54 819.043 1110.14 816.979 C 1109.4 813.467 1107.78 811.422 1105.62 808.606 z"/>
<path transform="translate(0,0)" fill="rgb(1,76,169)" d="M 1048.19 840.413 C 1053.03 840.576 1060.92 840.32 1064.12 844.745 C 1065.65 846.856 1066.36 848.644 1065.48 851.231 C 1063.94 855.779 1058.87 857.554 1054.87 859.226 C 1051.71 853.358 1050.1 846.764 1048.19 840.413 z"/>
<path transform="translate(0,0)" fill="rgb(4,4,25)" d="M 1102.57 807.515 L 1105.62 808.606 C 1107.78 811.422 1109.4 813.467 1110.14 816.979 C 1109.54 819.043 1109.42 820.204 1107.31 821.252 C 1106.79 821.51 1106.21 821.615 1105.66 821.797 C 1102.03 818.896 1099.79 816.066 1098.95 811.425 C 1099.91 808.638 1099.91 808.837 1102.57 807.515 z"/>
<path transform="translate(0,0)" fill="rgb(68,3,39)" d="M 1095.95 824.434 C 1095.33 822.724 1094.38 820.829 1094.35 818.973 C 1094.28 815.082 1095.84 810.365 1098.91 807.862 C 1100.37 806.669 1100.86 807.231 1102.57 807.515 C 1099.91 808.837 1099.91 808.638 1098.95 811.425 C 1099.79 816.066 1102.03 818.896 1105.66 821.797 L 1095.95 824.434 z"/>
<path transform="translate(0,0)" fill="rgb(4,4,25)" d="M 1077.23 452.597 C 1077.44 452.82 1077.64 453.048 1077.85 453.267 C 1086.8 462.698 1100.21 469.86 1110.63 477.928 C 1142.68 502.752 1186 544.214 1196.89 583.738 C 1167.87 596.889 1140.66 611.071 1117.58 633.538 C 1113.15 638.418 1108.78 643.471 1103.5 647.448 C 1096.03 653.069 1086.32 657.767 1080.24 664.861 C 1078.42 665.927 1076.02 666.552 1073.88 666.379 C 1073.34 666.335 1072.83 666.089 1072.31 665.944 C 1094.96 615.944 1086.1 574.332 1067.03 524.97 C 1058.84 503.759 1051.22 487.114 1054.73 463.907 C 1055.91 460.002 1056.87 456.058 1060.67 453.849 C 1065.32 451.144 1072.09 452.609 1077.23 452.597 z"/>
<path transform="translate(0,0)" fill="rgb(1,76,169)" d="M 1054.73 463.907 C 1056.86 461.414 1058.34 459.302 1061.63 458.356 C 1068.87 458.668 1081.93 473.008 1086.9 478.36 C 1103.3 496.025 1118.01 540.133 1116.96 564.471 C 1116.1 584.42 1108.74 603.924 1108.36 623.666 C 1111.21 627.939 1113.24 630.728 1117.58 633.538 C 1113.15 638.418 1108.78 643.471 1103.5 647.448 C 1096.03 653.069 1086.32 657.767 1080.24 664.861 C 1078.42 665.927 1076.02 666.552 1073.88 666.379 C 1073.34 666.335 1072.83 666.089 1072.31 665.944 C 1094.96 615.944 1086.1 574.332 1067.03 524.97 C 1058.84 503.759 1051.22 487.114 1054.73 463.907 z"/>
<path transform="translate(0,0)" fill="rgb(1,76,169)" d="M 1065.93 703.395 C 1066.17 703.161 1066.41 702.922 1066.66 702.694 C 1071.73 698.062 1077.77 699.084 1084.16 699.281 L 1084.36 701.783 C 1081.33 705.125 1077.28 708.567 1076.06 712.992 C 1076.77 720.231 1081.64 730.313 1086.9 735.425 L 1088.88 736.131 L 1093.05 737.219 C 1101.48 741.242 1108.84 738.799 1117.69 738.425 L 1117.7 741.846 C 1116.5 743.051 1116.13 743.113 1114.56 743.701 C 1106.83 746.593 1104.81 756.609 1095.57 757.208 L 1095.58 758.775 C 1096.67 759.451 1097.77 760.209 1098.91 760.797 C 1099.56 760.7 1100.22 760.629 1100.87 760.506 C 1105.86 759.564 1113.39 750.511 1117.66 753.079 C 1118.13 756.269 1117.24 758.79 1115.43 761.413 C 1113.57 764.103 1110.43 766.72 1107.14 767.281 C 1105.37 767.583 1103.28 766.083 1101.69 765.325 C 1090.23 772.179 1085.11 780.578 1081.53 793.131 C 1069.81 790.505 1058.07 788.856 1046.18 787.259 C 1044.28 757.549 1048.12 728.407 1065.93 703.395 z"/>
<path transform="translate(0,0)" fill="rgb(239,39,111)" d="M 1065.93 703.395 C 1066.17 703.161 1066.41 702.922 1066.66 702.694 C 1071.73 698.062 1077.77 699.084 1084.16 699.281 L 1084.36 701.783 C 1081.33 705.125 1077.28 708.567 1076.06 712.992 C 1076.77 720.231 1081.64 730.313 1086.9 735.425 L 1088.88 736.131 L 1093.05 737.219 C 1101.48 741.242 1108.84 738.799 1117.69 738.425 L 1117.7 741.846 C 1116.5 743.051 1116.13 743.113 1114.56 743.701 C 1106.83 746.593 1104.81 756.609 1095.57 757.208 L 1094.45 754.177 L 1093.42 755.181 C 1086.25 756.807 1077.66 755.784 1070.58 753.804 C 1066.23 752.588 1061.88 750.402 1059.68 746.249 C 1054.52 736.485 1063.97 722.187 1067.13 712.867 L 1067.43 711.954 C 1067.72 709.493 1067.67 710.029 1069.32 708.558 L 1071.26 709.053 L 1072 713.396 C 1074.95 710.642 1078.32 707.318 1078.86 703.17 L 1077.7 701.892 C 1073.61 701.687 1069.89 702.555 1065.93 703.395 z"/>
<path transform="translate(0,0)" fill="rgb(1,76,169)" d="M 1065.93 703.395 C 1066.17 703.161 1066.41 702.922 1066.66 702.694 C 1071.73 698.062 1077.77 699.084 1084.16 699.281 L 1084.36 701.783 C 1081.33 705.125 1077.28 708.567 1076.06 712.992 C 1076.77 720.231 1081.64 730.313 1086.9 735.425 L 1088.88 736.131 L 1093.05 737.219 C 1101.48 741.242 1108.84 738.799 1117.69 738.425 L 1117.7 741.846 C 1116.5 743.051 1116.13 743.113 1114.56 743.701 C 1106.83 746.593 1104.81 756.609 1095.57 757.208 L 1094.45 754.177 C 1094.65 752.645 1095.45 749.717 1095.21 748.302 C 1093.96 741.013 1077.02 742.548 1073.02 734.244 C 1069.93 727.82 1073.4 718.438 1069.71 712.32 L 1067.43 711.954 C 1067.72 709.493 1067.67 710.029 1069.32 708.558 L 1071.26 709.053 L 1072 713.396 C 1074.95 710.642 1078.32 707.318 1078.86 703.17 L 1077.7 701.892 C 1073.61 701.687 1069.89 702.555 1065.93 703.395 z"/>
<path transform="translate(0,0)" fill="rgb(4,4,25)" d="M 1088.25 699.249 C 1094.93 699.902 1098.82 703.099 1102.96 708.262 C 1109.82 716.824 1114.18 728.124 1117.69 738.425 C 1108.84 738.799 1101.48 741.242 1093.05 737.219 L 1088.88 736.131 L 1089.22 734.512 C 1088.39 733.493 1087.58 732.468 1086.87 731.357 C 1083.65 726.323 1084.4 721.827 1085.43 716.319 C 1086.64 716.378 1088.34 716.59 1089.57 716.402 C 1092.21 715.996 1092.5 715.513 1094.03 713.513 C 1094.22 708.426 1090.68 703.541 1088.25 699.249 z"/>
<path transform="translate(0,0)" fill="rgb(103,1,46)" d="M 1085.43 716.319 C 1086.22 720.679 1086.45 726.16 1090.48 728.787 C 1092.14 729.867 1093.92 729.598 1095.76 729.06 C 1099.92 727.843 1103.66 726.281 1108.03 725.981 C 1109.56 728.105 1109.22 728.739 1109.34 731.267 C 1107.62 733.916 1106.13 734.507 1103.06 735.137 C 1099.71 735.824 1096.38 736.429 1093.05 737.219 L 1088.88 736.131 L 1089.22 734.512 C 1088.39 733.493 1087.58 732.468 1086.87 731.357 C 1083.65 726.323 1084.4 721.827 1085.43 716.319 z"/>
<path transform="translate(0,0)" fill="rgb(4,28,132)" d="M 1080.24 664.861 C 1080.66 665.098 1081.06 665.342 1081.48 665.57 C 1086.02 668.068 1091.17 667.892 1095.64 670.907 L 1095.74 672.463 C 1090.83 675.369 1074.16 678.042 1068.36 676.885 C 1067.6 675.476 1067.23 675.502 1067.69 673.851 C 1068.47 671.024 1070.69 668.351 1072.31 665.944 C 1072.83 666.089 1073.34 666.335 1073.88 666.379 C 1076.02 666.552 1078.42 665.927 1080.24 664.861 z"/>
<path transform="translate(0,0)" fill="rgb(239,39,111)" d="M 1006.89 1494.28 L 1008.38 1494.53 C 1020.35 1496.48 1032.53 1496.61 1044.57 1497.91 C 1070.61 1500.72 1096.79 1503.68 1122.76 1507.04 C 1147.51 1510.23 1171.71 1515.21 1196.13 1520.28 C 1248.22 1531.1 1298.03 1542.91 1345.51 1567.78 C 1359.75 1575.25 1373.67 1583.27 1385.54 1594.26 L 1366.23 1598.52 C 1366.54 1598.69 1366.83 1598.91 1367.17 1599.03 C 1374.76 1601.78 1386.01 1592.88 1393.75 1605.45 C 1395.43 1608.18 1397.93 1612.25 1397.43 1615.46 C 1400.26 1616.47 1402.12 1617.08 1404.1 1619.5 L 1403.99 1621.44 C 1401.61 1623.47 1399.26 1624.24 1396.27 1625.13 C 1383.35 1628.94 1369.16 1630.8 1355.94 1633.69 L 1259.97 1654.88 C 1132.12 1683.91 1004.43 1713.69 876.924 1744.22 C 836.999 1753.82 797.134 1763.66 757.333 1773.77 C 725.276 1781.99 693.327 1791.15 660.816 1797.42 C 628.539 1803.66 595.305 1806.75 562.448 1804.16 C 549.041 1803.11 537.136 1800.35 524.705 1795.28 L 523.537 1796.6 C 524.972 1810.93 527.308 1825.09 528.209 1839.49 C 529.909 1866.69 528.92 1894.31 529.04 1921.57 C 529.461 1963.71 529.499 2005.86 529.154 2048 L 0 2048 L 0 1968.97 L 0 1951.59 L 0 1927.69 L 0 1689.79 L 0 1675.44 L 0 1667.07 L 0 1603.9 C 64.1714 1589.47 128.872 1577.26 194.733 1574.51 C 212.436 1576.22 229.632 1581.08 247.026 1584.59 C 294.865 1594.23 341.35 1603.61 387.404 1620.39 C 402.702 1625.96 418.1 1632.03 432.895 1638.84 C 469.915 1655.86 499.283 1671.63 541.226 1673.49 C 546.244 1670.81 552.904 1659.15 555.447 1653.94 C 570.023 1643.99 584.471 1637.32 589.565 1618.54 C 593.685 1603.35 588.332 1588.32 580.897 1575.23 C 617.477 1563.86 636.47 1572.1 669.552 1545.38 C 681.796 1548.59 692.56 1549.17 705.179 1548.47 C 711.057 1548.15 717.11 1547.35 722.961 1548.13 L 730.443 1547.89 C 798.078 1549.31 897.692 1535.76 962.044 1513.83 C 977.511 1508.55 992.04 1501.01 1006.89 1494.28 z"/>
<path transform="translate(0,0)" fill="url(#Gradient3)" d="M 0 1667.07 C 73.0846 1681.51 147.097 1691.36 220.218 1705.65 C 276.829 1716.71 333.397 1731.7 388.976 1747.12 C 416.609 1754.5 443.974 1762.85 471.018 1772.15 C 479.933 1775.16 489.224 1777.66 497.89 1781.33 C 507.153 1785.25 515.6 1790.98 524.705 1795.28 L 523.537 1796.6 C 524.972 1810.93 527.308 1825.09 528.209 1839.49 C 529.909 1866.69 528.92 1894.31 529.04 1921.57 C 529.461 1963.71 529.499 2005.86 529.154 2048 L 0 2048 L 0 1968.97 L 0 1951.59 L 0 1927.69 L 0 1689.79 L 0 1675.44 L 0 1667.07 z"/>
<path transform="translate(0,0)" fill="rgb(1,76,169)" d="M 0 1689.79 C 31.8501 1696.79 64.1577 1702.2 96.2624 1707.9 C 125.8 1713.34 155.369 1718.6 184.967 1723.69 C 201.827 1726.48 218.959 1727.95 235.726 1731.12 C 273.134 1738.21 309.449 1748.83 346.372 1757.86 C 381.307 1766.39 415.285 1774.3 449.191 1786.45 C 460.599 1790.54 475.238 1793.7 485.046 1800.66 C 478.865 1804.65 472.468 1809.37 465.79 1812.42 C 446.721 1821.12 424.14 1825.1 403.825 1829.89 L 324.38 1848.89 L 107.949 1901.28 L 39.6789 1917.85 C 26.5108 1921.04 12.9432 1923.73 0 1927.69 L 0 1689.79 z"/>
<path transform="translate(0,0)" fill="rgb(239,39,111)" d="M 0 1951.59 C 30.5159 1945.44 60.8349 1937.37 91.1175 1930.13 C 164.498 1913.01 237.585 1894.65 310.35 1875.08 C 354.374 1863.66 398.662 1853.4 442.551 1841.46 C 454.444 1838.22 466.956 1835.81 478.635 1832.04 C 486.517 1829.49 493.812 1825.84 501.537 1822.98 C 502.89 1824.92 502.852 1826.48 502.433 1828.77 C 501.668 1832.94 498.194 1835.28 494.695 1837.21 C 474.936 1848.1 428.435 1857.94 405.247 1864.64 C 321.713 1888.32 237.734 1910.39 153.355 1930.85 C 102.661 1943.16 49.8427 1953.96 0 1968.97 L 0 1951.59 z"/>
<path transform="translate(0,0)" fill="rgb(239,39,111)" d="M 0 1675.44 L 111.624 1696.9 C 152.637 1704.41 193.933 1710.05 234.87 1718 C 271.129 1725.04 474.988 1769.1 487.53 1792.94 C 488.898 1795.54 488.588 1796.01 487.594 1798.55 L 485.046 1800.66 C 475.238 1793.7 460.599 1790.54 449.191 1786.45 C 415.285 1774.3 381.307 1766.39 346.372 1757.86 C 309.449 1748.83 273.134 1738.21 235.726 1731.12 C 218.959 1727.95 201.827 1726.48 184.967 1723.69 C 155.369 1718.6 125.8 1713.34 96.2624 1707.9 C 64.1577 1702.2 31.8501 1696.79 0 1689.79 L 0 1675.44 z"/>
<path transform="translate(0,0)" fill="rgb(4,28,132)" d="M 1366.23 1598.52 C 1366.54 1598.69 1366.83 1598.91 1367.17 1599.03 C 1374.76 1601.78 1386.01 1592.88 1393.75 1605.45 C 1395.43 1608.18 1397.93 1612.25 1397.43 1615.46 C 1377.2 1618.92 1357.12 1623.57 1337.01 1627.71 C 1284.8 1638.47 1232.94 1650.2 1180.93 1661.87 L 855.923 1736.03 C 825.621 1743.13 795.379 1750.49 765.2 1758.1 C 732.836 1766.48 700.734 1774.83 668.101 1782.18 C 645.81 1787.19 622.51 1794.07 599.471 1792.6 C 594.147 1792.26 590.337 1791.73 586.61 1787.56 L 587.393 1785.75 C 595.781 1779.87 604.413 1775.31 614.025 1771.73 C 649.806 1758.39 688.921 1749.65 725.862 1739.95 C 756.442 1731.93 786.912 1723.56 817.647 1716.13 C 868.998 1704.03 920.461 1692.39 972.027 1681.24 C 1077.01 1657.76 1181.75 1632.84 1287.49 1612.91 C 1313.69 1607.97 1339.87 1602.6 1366.23 1598.52 z"/>
<path transform="translate(0,0)" fill="rgb(13,8,82)" d="M 669.552 1545.38 C 681.796 1548.59 692.56 1549.17 705.179 1548.47 C 711.057 1548.15 717.11 1547.35 722.961 1548.13 C 723.433 1548.44 723.894 1548.77 724.378 1549.06 C 732.256 1553.86 756.313 1556.41 766.852 1558.53 C 781.842 1561.55 867.429 1580.41 873.857 1587.62 C 863.783 1590.44 829.718 1583.17 817.083 1581.83 C 763.175 1576.1 710.583 1574.09 656.447 1577.39 C 644.211 1578.13 629.804 1577.88 618.231 1582.36 C 614.082 1583.97 610.951 1587.14 608.008 1590.37 C 627.685 1594.53 670.078 1604.8 681.832 1621.97 C 685.464 1627.28 686.649 1634.35 685.201 1640.61 C 683.41 1648.35 677.725 1653.55 671.035 1657.35 C 652.557 1667.84 624.806 1670.72 603.929 1670.44 C 595.292 1670.32 586.354 1669.15 577.752 1669.77 C 565.365 1670.66 553.876 1673.99 541.226 1673.49 C 546.244 1670.81 552.904 1659.15 555.447 1653.94 C 570.023 1643.99 584.471 1637.32 589.565 1618.54 C 593.685 1603.35 588.332 1588.32 580.897 1575.23 C 617.477 1563.86 636.47 1572.1 669.552 1545.38 z"/>
<path transform="translate(0,0)" fill="rgb(8,1,36)" d="M 0 0 L 168.971 0 L 604.653 0 L 600.711 580.481 C 562.01 573.332 522.411 571.957 483.174 570.354 C 447.298 568.709 411.405 567.434 375.502 566.529 C 299.657 564.921 223.823 562.861 148.002 560.35 C 116.658 559.568 85.3201 558.532 53.9923 557.242 C 36.0131 556.638 17.9526 556.586 0 555.466 L 0 519.197 L 0 0 z"/>
<path transform="translate(0,0)" fill="rgb(1,76,169)" d="M 0 0 L 168.971 0 L 171.454 528.11 L 63.4725 522.347 C 42.4038 521.239 21.0793 519.364 0 519.197 L 0 0 z"/>
<path transform="translate(0,0)" fill="url(#Gradient2)" d="M 0 576.021 C 25.2154 576.341 50.317 578.332 75.5029 578.951 L 314.895 584.474 C 374.968 585.522 435.015 587.741 495.001 591.132 C 538.439 593.274 582.061 594.54 625.082 601.387 C 653.998 605.989 701.381 614.477 721.86 636.487 C 724.888 639.742 727.52 643.719 727.041 648.341 C 726.327 655.245 719.608 664.902 716.124 671.039 C 704.478 691.558 689.139 712.558 674.321 730.942 C 646.396 765.587 615.66 794.04 626.325 842.959 C 633.982 878.08 656.921 906.684 670.694 939.17 C 638.727 944.355 606.453 948.046 574.556 953.39 C 478.319 969.514 365.18 998.241 287.205 1059.7 C 272.122 1061.47 245.472 1064.88 235.338 1077.58 C 233.661 1081.08 232.642 1083.26 233.327 1087.2 C 234.237 1092.45 235.68 1097.22 232.207 1101.87 C 231.302 1103.08 230.15 1104.1 229.061 1105.13 L 227.87 1106.29 C 213.945 1117.69 202.288 1132.31 190.281 1145.66 C 167.405 1171.11 145.185 1196.91 122.764 1222.75 C 98.7292 1250.45 75.2005 1278.69 50.461 1305.76 C 34.0159 1323.76 16.2483 1340.71 0 1358.81 L 0 718.361 L 0 576.021 z"/>
<path transform="translate(0,0)" fill="rgb(13,8,82)" d="M 0 718.361 C 14.4808 737.138 29.3672 755.718 43.314 774.889 C 64.0809 803.435 83.8648 833.002 103.435 862.383 C 115.025 879.782 127.059 897.055 137.866 914.943 C 151.326 937.222 164.757 960.071 176.601 983.24 C 190.928 1011.26 204.01 1041.82 222.167 1067.51 C 225.17 1071.76 228.694 1074.72 233.005 1077.56 L 235.338 1077.58 C 233.661 1081.08 232.642 1083.26 233.327 1087.2 C 234.237 1092.45 235.68 1097.22 232.207 1101.87 C 231.302 1103.08 230.15 1104.1 229.061 1105.13 L 227.87 1106.29 C 213.945 1117.69 202.288 1132.31 190.281 1145.66 C 167.405 1171.11 145.185 1196.91 122.764 1222.75 C 98.7292 1250.45 75.2005 1278.69 50.461 1305.76 C 34.0159 1323.76 16.2483 1340.71 0 1358.81 L 0 718.361 z"/>
<path transform="translate(0,0)" fill="rgb(13,8,82)" d="M 1812.9 1528.74 C 1830.25 1525.76 1848.99 1519.29 1865.48 1528.27 C 1866.34 1543.16 1865.77 1558.23 1865.66 1573.14 L 1865.12 1650.2 C 1865.3 1681.01 1865.08 1711.82 1864.45 1742.63 C 1864.16 1756.73 1864.91 1771.92 1862.27 1785.77 C 1860.91 1792.88 1857.95 1796.69 1853.21 1801.99 C 1845.83 1810.25 1837.28 1816.62 1826.98 1820.78 C 1809.4 1827.87 1790.84 1833.32 1772.73 1838.86 C 1732.63 1851.15 1692.07 1861.73 1652.01 1874.13 L 1335.7 1972.11 C 1291.99 1985.79 1248.22 1998.9 1204.71 2013.24 C 1184.57 2019.74 1164.38 2026.08 1144.15 2032.28 C 1130.12 2036.62 1112.54 2040.12 1100.09 2048 L 679.759 2048 C 682.333 2014.85 687.352 1980.47 692.944 1947.7 C 696.512 1926.79 701.929 1904.91 702.913 1883.74 C 703.374 1873.83 703.025 1862.53 698.497 1853.51 C 690.396 1837.37 675.028 1831.85 659.075 1826.52 C 673.011 1817.6 744.996 1802.19 766.183 1796.58 C 914.404 1758.4 1062.91 1721.35 1211.7 1685.44 L 1342.81 1654.72 C 1366.26 1649.38 1389.42 1645.6 1412.46 1638.4 C 1423.45 1658.37 1431.02 1679.85 1442.18 1699.7 C 1447.68 1709.48 1453.64 1719.15 1460.8 1727.81 C 1479.68 1750.66 1513.58 1779.06 1542.09 1787.38 C 1563.41 1793.6 1589.75 1792.19 1609.42 1781.27 C 1627.56 1771.2 1638.53 1752.78 1643.94 1733.2 C 1648.83 1715.48 1645.17 1700.4 1644.92 1682.5 C 1651.29 1692.37 1656.39 1702.91 1663.46 1712.35 C 1672.57 1724.51 1705.81 1757.95 1718.48 1766.51 C 1724.85 1770.81 1731.77 1773.61 1739.25 1775.24 C 1759.67 1779.68 1780.56 1774.43 1797.93 1763.19 C 1818.28 1750.02 1832.4 1733.81 1837.54 1709.59 C 1847.85 1661 1820.44 1604.89 1813.27 1556.74 C 1811.88 1547.38 1813.13 1538.13 1812.9 1528.74 z"/>
<path transform="translate(0,0)" fill="rgb(13,8,82)" d="M 296.065 1067.26 L 296.838 1066.73 C 325.425 1047.47 377.982 1028.31 411.014 1016.22 C 434.753 1007.54 457.131 996.259 481.407 988.894 C 514.913 978.729 548.968 973.641 583.342 967.456 C 601.947 964.108 620.451 960.177 639.147 957.35 C 724.082 944.504 810.032 942.835 894.565 959.587 C 937.427 962.431 980.098 972.983 1022.39 980.137 C 1045.73 984.085 1069.51 984.957 1092.81 989.315 C 1098.07 988.596 1101.3 985.138 1104.94 981.58 C 1106.11 991.103 1104.08 1001.63 1100.47 1010.47 C 1094.71 1043.02 1099.69 1087.38 1106.67 1119.62 C 1099.07 1136.87 1087.03 1152.07 1077.92 1168.55 L 1039.85 1237.94 C 1032.99 1250.25 1025.47 1262.18 1019.05 1274.73 C 1010.26 1291.88 1002.64 1309.64 994.799 1327.24 C 988.484 1341.42 981.536 1355.74 976.466 1370.42 C 968.943 1394.23 959.996 1419.98 969.695 1444.54 C 969.543 1444.56 969.391 1444.57 969.239 1444.59 C 950.237 1446.93 909.776 1422.26 890.835 1413.8 C 879.137 1408.57 866.636 1404.05 854.099 1401.33 C 823.843 1394.95 792.78 1393.34 762.026 1396.53 C 750.043 1397.76 738.173 1399.95 726.184 1401.25 C 724.539 1380.25 735.41 1364.73 742.527 1345.9 C 748.885 1329.08 755.065 1310.97 757.932 1293.22 C 764.23 1254.23 758.256 1203.05 734.549 1170.38 C 727.807 1161.09 690.28 1120.6 678.934 1120.59 C 675.94 1120.58 675.231 1122.1 673.367 1124.08 C 643.234 1097.68 611.983 1082.91 571.198 1085.81 C 542.506 1087.85 515.004 1099.29 491.077 1114.88 C 444.364 1145.31 418.334 1184.07 377.711 1219.41 C 344.571 1248.24 308.527 1273.42 274.707 1301.49 C 259.349 1314.24 243.838 1326.97 230.769 1342.14 C 218.238 1356.69 205.28 1374.12 203.334 1393.76 C 202.562 1388.08 201.106 1382.66 201.152 1376.86 C 201.297 1358.33 213.959 1342.37 216.339 1324.02 C 218.183 1309.8 217.633 1294.78 217.853 1280.45 C 218.545 1235.25 218.488 1183.83 239.753 1142.93 C 247.361 1128.3 257.631 1114.91 268.624 1102.66 C 275.164 1095.38 292.545 1080.55 296.049 1073 C 297.233 1070.45 296.858 1069.76 296.065 1067.26 z"/>
<path transform="translate(0,0)" fill="rgb(1,76,169)" d="M 894.565 959.587 C 937.427 962.431 980.098 972.983 1022.39 980.137 C 1045.73 984.085 1069.51 984.957 1092.81 989.315 C 1098.07 988.596 1101.3 985.138 1104.94 981.58 C 1106.11 991.103 1104.08 1001.63 1100.47 1010.47 C 1094.71 1043.02 1099.69 1087.38 1106.67 1119.62 C 1099.07 1136.87 1087.03 1152.07 1077.92 1168.55 L 1039.85 1237.94 C 1032.99 1250.25 1025.47 1262.18 1019.05 1274.73 C 1010.26 1291.88 1002.64 1309.64 994.799 1327.24 C 988.484 1341.42 981.536 1355.74 976.466 1370.42 C 974.45 1357.26 980.156 1333.74 981.046 1319.32 C 983.589 1271.12 976.819 1222.88 961.107 1177.24 C 957.948 1174.21 954.322 1171.71 950.822 1169.1 L 950.007 1169.7 C 922.79 1189.43 927.189 1234 899.933 1254.94 C 891.241 1261.62 881.332 1266.06 870.159 1264.34 C 859.831 1262.75 849.899 1257.76 841.182 1252.17 C 796.738 1223.69 781.799 1172.37 754.114 1130.42 C 746.543 1118.95 738.945 1107.32 730.612 1096.39 C 718.581 1080.6 705.575 1065.67 693.849 1049.62 C 731.461 1009.51 780.293 981.66 833.971 969.717 C 853.926 965.279 874.418 963.092 894.565 959.587 z"/>
<path transform="translate(0,0)" fill="rgb(4,4,25)" d="M 1092.81 989.315 C 1098.07 988.596 1101.3 985.138 1104.94 981.58 C 1106.11 991.103 1104.08 1001.63 1100.47 1010.47 C 1084.22 1023.91 1068.03 1037.65 1053.87 1053.31 C 1044.14 1064.07 1033.8 1075.57 1025.09 1087.17 C 1022.7 1090.35 1017.37 1100.56 1014.34 1101.58 L 1012.48 1100.36 C 1007.57 1090.34 1012.4 1076.29 1015.7 1066.32 C 1028.18 1028.72 1058.74 1006.33 1092.81 989.315 z"/>
<path transform="translate(0,0)" fill="rgb(239,39,111)" d="M 0 555.466 C 17.9526 556.586 36.0131 556.638 53.9923 557.242 C 85.3201 558.532 116.658 559.568 148.002 560.35 C 223.823 562.861 299.657 564.921 375.502 566.529 C 411.405 567.434 447.298 568.709 483.174 570.354 C 522.411 571.957 562.01 573.332 600.711 580.481 C 633.232 586.469 678.231 595.124 704.926 614.696 C 713.025 620.634 719.766 628.376 725.45 636.603 C 751.128 673.768 764.976 710.235 779.783 752.401 C 788.732 777.882 797.178 803.328 803.691 829.562 C 807.792 846.083 810.524 862.865 814.199 879.473 C 817.688 895.243 822.24 910.802 826.604 926.346 C 890.27 931.209 951.584 940.271 1014.05 953.601 C 1021.45 948.218 1028.83 944.594 1037.52 941.716 C 1048.41 938.112 1062.79 937.23 1071.6 929.493 C 1081.32 920.954 1075.57 908.502 1076.27 897.685 C 1076.3 897.281 1076.35 896.88 1076.39 896.477 C 1085.19 903.111 1091.91 912.103 1100.77 918.844 C 1099.73 914.374 1098.82 909.835 1097.5 905.438 L 1098.91 904.967 C 1104.07 913.828 1106.1 925.357 1109.33 935.147 C 1107.99 937.512 1106.78 939.618 1106.1 942.28 C 1109.91 947.504 1114.22 952.378 1119.63 956.011 C 1130.25 965.706 1144.87 970.333 1156.81 978.152 C 1158.65 980.329 1160.42 982.183 1161.63 984.792 C 1169.12 1003.55 1241.64 1046.78 1260.62 1060.68 C 1276.4 1072.23 1293.99 1086.27 1305.99 1101.68 L 1306.8 1102.7 L 1307.27 1103.32 C 1277.97 1092.97 1249.45 1080.54 1219.78 1071.07 C 1209.54 1067.81 1198.77 1068.91 1188.86 1066.1 C 1185.32 1065.09 1181.34 1062.39 1178.09 1060.6 C 1177.42 1059.72 1176.81 1058.85 1175.93 1058.13 C 1174.09 1056.63 1171.36 1055.53 1168.95 1056.06 C 1166.3 1056.64 1165.9 1057.96 1164.69 1060.11 C 1163.83 1067.44 1167.43 1074.59 1171.81 1080.24 C 1178.22 1088.51 1186.99 1096.06 1195.24 1102.45 C 1206.29 1111.01 1231.41 1122.74 1229.07 1139.18 C 1227.16 1152.64 1187.29 1182.37 1176.75 1194.95 C 1156.8 1218.8 1146.43 1248.29 1128.48 1273.15 C 1119.99 1284.89 1109.18 1296.49 1099.03 1306.85 C 1080.59 1325.67 1044 1354.21 1041.49 1382.34 C 1041.24 1385.17 1041.35 1389.99 1043.29 1392.31 C 1048.87 1398.97 1162.54 1435.4 1178.66 1440.19 C 1219.44 1452.28 1261.38 1460.38 1301.11 1476.03 C 1330.81 1487.73 1358.77 1502.6 1383.39 1523.13 C 1401.5 1538.23 1418.16 1555.56 1431.17 1575.29 C 1440.23 1589.03 1447.88 1603.58 1457.73 1616.81 C 1466.77 1628.94 1504.84 1666.04 1508.67 1675.05 C 1509.72 1684.39 1510.28 1695.32 1503.7 1703.03 C 1501.5 1705.61 1498.02 1707.98 1494.53 1707.89 C 1493.25 1707.86 1491.59 1707.28 1490.39 1706.95 C 1476.74 1699 1466.2 1686.9 1456.31 1674.8 C 1439.14 1652.23 1429.8 1632.27 1415.35 1608.9 C 1400.52 1584.92 1379.69 1559.84 1355.22 1545.2 C 1304.09 1514.61 1237.49 1511.92 1180.01 1503.99 C 1158.55 1501.03 1137.21 1496.94 1115.82 1493.54 C 1087.27 1489 1058.69 1485.11 1030.54 1478.29 C 1008.18 1472.88 982.369 1465.3 969.695 1444.54 C 959.996 1419.98 968.943 1394.23 976.466 1370.42 C 981.536 1355.74 988.484 1341.42 994.799 1327.24 C 1002.64 1309.64 1010.26 1291.88 1019.05 1274.73 C 1025.47 1262.18 1032.99 1250.25 1039.85 1237.94 L 1077.92 1168.55 C 1087.03 1152.07 1099.07 1136.87 1106.67 1119.62 C 1099.69 1087.38 1094.71 1043.02 1100.47 1010.47 C 1104.08 1001.63 1106.11 991.103 1104.94 981.58 C 1101.3 985.138 1098.07 988.596 1092.81 989.315 C 1069.51 984.957 1045.73 984.085 1022.39 980.137 C 980.098 972.983 937.427 962.431 894.565 959.587 C 810.032 942.835 724.082 944.504 639.147 957.35 C 620.451 960.177 601.947 964.108 583.342 967.456 C 548.968 973.641 514.913 978.729 481.407 988.894 C 457.131 996.259 434.753 1007.54 411.014 1016.22 C 377.982 1028.31 325.425 1047.47 296.838 1066.73 L 296.065 1067.26 C 283.42 1074.28 236.619 1109.82 230.03 1111.35 C 228.105 1111.97 226.754 1112.33 224.726 1112.2 C 224.452 1110.02 226.61 1108.06 227.87 1106.29 L 229.061 1105.13 C 230.15 1104.1 231.302 1103.08 232.207 1101.87 C 235.68 1097.22 234.237 1092.45 233.327 1087.2 C 232.642 1083.26 233.661 1081.08 235.338 1077.58 C 245.472 1064.88 272.122 1061.47 287.205 1059.7 C 365.18 998.241 478.319 969.514 574.556 953.39 C 606.453 948.046 638.727 944.355 670.694 939.17 C 656.921 906.684 633.982 878.08 626.325 842.959 C 615.66 794.04 646.396 765.587 674.321 730.942 C 689.139 712.558 704.478 691.558 716.124 671.039 C 719.608 664.902 726.327 655.245 727.041 648.341 C 727.52 643.719 724.888 639.742 721.86 636.487 C 701.381 614.477 653.998 605.989 625.082 601.387 C 582.061 594.54 538.439 593.274 495.001 591.132 C 435.015 587.741 374.968 585.522 314.895 584.474 L 75.5029 578.951 C 50.317 578.332 25.2154 576.341 0 576.021 L 0 555.466 z"/>
<path transform="translate(0,0)" fill="rgb(4,4,25)" d="M 1076.39 896.477 C 1085.19 903.111 1091.91 912.103 1100.77 918.844 C 1099.73 914.374 1098.82 909.835 1097.5 905.438 L 1098.91 904.967 C 1104.07 913.828 1106.1 925.357 1109.33 935.147 C 1107.99 937.512 1106.78 939.618 1106.1 942.28 L 1103.48 938.316 C 1103.04 944.072 1105.29 950.319 1105.59 956.231 C 1106.02 964.549 1104.96 972.633 1104.83 980.887 C 1104.23 978.795 1103.64 976.484 1102.56 974.585 C 1101.33 972.455 1099.38 970.841 1097.05 970.043 C 1088.67 967.109 1077.01 967.082 1068.11 965.546 C 1050.04 962.426 1031.75 958.383 1014.05 953.601 C 1021.45 948.218 1028.83 944.594 1037.52 941.716 C 1048.41 938.112 1062.79 937.23 1071.6 929.493 C 1081.32 920.954 1075.57 908.502 1076.27 897.685 C 1076.3 897.281 1076.35 896.88 1076.39 896.477 z"/>
<path transform="translate(0,0)" fill="rgb(4,4,25)" d="M 235.338 1077.58 C 245.472 1064.88 272.122 1061.47 287.205 1059.7 C 273.74 1072.89 238.547 1099.3 230.03 1111.35 C 228.105 1111.97 226.754 1112.33 224.726 1112.2 C 224.452 1110.02 226.61 1108.06 227.87 1106.29 L 229.061 1105.13 C 230.15 1104.1 231.302 1103.08 232.207 1101.87 C 235.68 1097.22 234.237 1092.45 233.327 1087.2 C 232.642 1083.26 233.661 1081.08 235.338 1077.58 z"/>
<path transform="translate(0,0)" fill="rgb(13,8,82)" d="M 1896.61 2048 L 1897.37 1776.6 L 1897.84 1411.94 L 1897.91 1236.97 C 1897.93 1204.46 1895.5 1169.54 1900.03 1137.38 C 1903.58 1112.14 1912.95 1089.63 1931.46 1071.7 C 1949.55 1054.18 1975.38 1041.1 2001.07 1042.04 C 2009.66 1042.35 2019.96 1044.66 2025.96 1051.28 C 2035.79 1062.14 2037.82 1080.47 2038.7 1094.51 C 2040.91 1129.63 2038.71 1165.1 2037.9 1200.22 L 2031.26 1413.19 L 2024.58 1672.15 C 2019.76 1797.4 2015.88 1922.69 2012.94 2048 L 1896.61 2048 z"/>
<path transform="translate(0,0)" fill="rgb(1,76,169)" d="M 1161.63 984.792 C 1177.07 994.097 1200.62 1004.27 1218.74 1006.79 C 1271.82 1022.69 1328.61 1041.15 1371.97 1077 C 1390.25 1092.1 1405.14 1110.64 1424.02 1125.09 C 1433.72 1118.86 1442.67 1111.25 1451.78 1104.18 C 1473.8 1087.11 1497.72 1067.97 1522.85 1055.79 C 1534.3 1069.5 1543.62 1092.2 1541.62 1110.29 C 1538.06 1142.52 1501.26 1177.71 1476.99 1196.25 C 1444.06 1221.39 1410.08 1244.7 1378.56 1271.74 C 1357.91 1257.45 1336.61 1241.1 1312.48 1233.34 C 1286.2 1257.98 1267.12 1291.07 1244.22 1318.9 C 1238.32 1326.07 1232.3 1333.94 1225.34 1340.06 C 1215.95 1341.15 1184.15 1342.41 1178.86 1348.52 C 1181.35 1352.89 1188.86 1354.27 1193.56 1355.55 C 1199.53 1357.18 1206.11 1358.26 1211.76 1360.68 C 1234.11 1382.06 1305.57 1403.46 1337 1416.01 C 1361.78 1425.98 1386.29 1436.65 1410.48 1447.99 C 1428.14 1456.18 1446.03 1464.99 1462.84 1474.84 C 1472.12 1480.27 1481.83 1488.79 1491.71 1492.6 C 1520.94 1517.45 1579.92 1593.27 1595.21 1627.78 C 1599.11 1636.81 1601.47 1646.44 1602.18 1656.25 C 1602.34 1658.26 1602.44 1660.27 1602.49 1662.28 C 1596.49 1651.21 1578.07 1616.01 1567.7 1612.49 L 1565.9 1613 C 1565.47 1618.15 1576.98 1634.43 1579.4 1640.73 C 1585.26 1655.98 1589.65 1671.72 1589.53 1688.12 C 1577.06 1671.62 1567.79 1648.11 1549.27 1638.63 L 1549.83 1640.01 C 1552.79 1647.16 1557.25 1653.22 1560.58 1660.13 C 1566.77 1672.99 1572.36 1696.05 1566.7 1709.71 C 1565.14 1713.48 1562.23 1716.39 1558.43 1717.89 C 1547.74 1722.1 1533.24 1720.45 1523.13 1715.69 C 1522.28 1705.78 1522.75 1684.48 1514.01 1678.06 C 1512.37 1676.86 1510.47 1675.96 1508.67 1675.05 C 1504.84 1666.04 1466.77 1628.94 1457.73 1616.81 C 1447.88 1603.58 1440.23 1589.03 1431.17 1575.29 C 1418.16 1555.56 1401.5 1538.23 1383.39 1523.13 C 1358.77 1502.6 1330.81 1487.73 1301.11 1476.03 C 1261.38 1460.38 1219.44 1452.28 1178.66 1440.19 C 1162.54 1435.4 1048.87 1398.97 1043.29 1392.31 C 1041.35 1389.99 1041.24 1385.17 1041.49 1382.34 C 1044 1354.21 1080.59 1325.67 1099.03 1306.85 C 1109.18 1296.49 1119.99 1284.89 1128.48 1273.15 C 1146.43 1248.29 1156.8 1218.8 1176.75 1194.95 C 1187.29 1182.37 1227.16 1152.64 1229.07 1139.18 C 1231.41 1122.74 1206.29 1111.01 1195.24 1102.45 C 1186.99 1096.06 1178.22 1088.51 1171.81 1080.24 C 1167.43 1074.59 1163.83 1067.44 1164.69 1060.11 C 1165.9 1057.96 1166.3 1056.64 1168.95 1056.06 C 1171.36 1055.53 1174.09 1056.63 1175.93 1058.13 C 1176.81 1058.85 1177.42 1059.72 1178.09 1060.6 C 1181.34 1062.39 1185.32 1065.09 1188.86 1066.1 C 1198.77 1068.91 1209.54 1067.81 1219.78 1071.07 C 1249.45 1080.54 1277.97 1092.97 1307.27 1103.32 L 1306.8 1102.7 L 1305.99 1101.68 C 1293.99 1086.27 1276.4 1072.23 1260.62 1060.68 C 1241.64 1046.78 1169.12 1003.55 1161.63 984.792 z"/>
<path transform="translate(0,0)" fill="rgb(4,4,25)" d="M 1164.69 1060.11 C 1165.9 1057.96 1166.3 1056.64 1168.95 1056.06 C 1171.36 1055.53 1174.09 1056.63 1175.93 1058.13 C 1176.81 1058.85 1177.42 1059.72 1178.09 1060.6 C 1180.26 1070.58 1186.14 1079.25 1188.35 1089.42 C 1185.34 1086.32 1182.54 1083.18 1180.18 1079.54 C 1177.03 1074.67 1172.19 1060.16 1167.81 1057.9 L 1165.91 1061.01 L 1164.69 1060.11 z"/>
<path transform="translate(0,0)" fill="rgb(4,4,25)" d="M 1351.53 1120.85 C 1363.78 1125.49 1376.91 1137.4 1386.6 1146.32 C 1402.78 1161.24 1408.52 1181.24 1409.5 1202.6 C 1398.62 1194.07 1382.89 1161.63 1374.38 1148.76 C 1367.74 1138.72 1359.65 1129.7 1351.53 1120.85 z"/>
<path transform="translate(0,0)" fill="rgb(1,76,169)" d="M 203.334 1393.76 C 205.28 1374.12 218.238 1356.69 230.769 1342.14 C 243.838 1326.97 259.349 1314.24 274.707 1301.49 C 308.527 1273.42 344.571 1248.24 377.711 1219.41 C 418.334 1184.07 444.364 1145.31 491.077 1114.88 C 515.004 1099.29 542.506 1087.85 571.198 1085.81 C 611.983 1082.91 643.234 1097.68 673.367 1124.08 C 686.967 1138.64 699.358 1154.12 698.786 1175.18 C 697.808 1211.13 672.089 1237.88 647.331 1260.94 C 617.734 1288.8 583.774 1311.63 546.799 1328.52 C 509.579 1345.46 461.18 1360.74 421.741 1371.44 C 395.076 1378.68 368.047 1384.76 341.866 1393.67 C 335.517 1395.83 322.587 1399.47 318.6 1405.12 C 319.253 1407.04 319.54 1407.14 321.304 1408.04 C 329.753 1412.39 374.907 1413.95 387.128 1415.34 C 406.685 1417.58 425.636 1422.42 444.891 1426.29 C 469.581 1431.26 494.454 1435.73 519.22 1440.31 C 546.464 1445.36 574.41 1446.99 601.519 1452.33 C 607.919 1453.59 614.48 1455.45 620.353 1458.32 C 635.564 1465.76 646.54 1480.41 652.202 1496.12 C 655.885 1506.35 657.659 1517.97 652.901 1528.16 C 651.451 1531.27 649.473 1534.38 647.23 1536.97 C 645.467 1533.44 645.272 1529.1 644.239 1525.27 C 640.889 1512.83 635.077 1503.4 626.439 1494 C 619.989 1487.18 611.495 1472.4 601.456 1472.06 L 600.344 1472.87 C 601.633 1477.46 604.893 1482.01 607.404 1486.06 C 618.856 1504.55 623.43 1518.33 612.219 1538.59 C 610.91 1540.96 609.411 1543.16 607.543 1545.12 C 602.707 1530.26 598.219 1517.32 589.315 1504.22 C 579.715 1492.15 571.679 1483.85 556.654 1478.86 C 567.516 1490.5 575.572 1502.49 574.982 1519.19 C 574.583 1530.48 569.769 1541.25 564.103 1550.84 C 555.601 1549.29 548.127 1548.13 539.908 1551.86 C 499.263 1523.37 458.746 1491.05 408.26 1483.34 C 401.32 1482.28 393.869 1480.75 386.851 1481.29 C 374.118 1477.24 361.548 1471.41 349.172 1466.33 C 319.476 1456.27 288.408 1449.34 259.391 1437.38 C 238.279 1428.68 212.529 1415.98 203.334 1393.76 z"/>
<path transform="translate(0,0)" fill="rgb(13,8,82)" d="M 564.295 1621.12 C 559.673 1625.58 553.602 1628.98 547.772 1631.62 C 528.343 1640.4 506.916 1641.79 486.225 1637.16 C 472.044 1633.98 458.877 1628.7 445.966 1622.11 C 417.987 1607.82 393.444 1588.62 363.291 1578.41 C 341.558 1571.05 318.551 1568.82 296.034 1565.09 C 260.574 1559.23 223.925 1552.1 190.188 1539.49 C 148.833 1524.03 117.237 1496.4 99.0563 1455.62 C 85.5831 1425.4 86.9704 1396.12 98.5732 1365.68 C 102.185 1356.21 106.355 1347.09 112.571 1339.02 C 119.241 1330.36 169.373 1284.87 178.995 1280.9 C 182.276 1279.55 184.545 1279.48 187.922 1280.77 C 189.916 1282.6 191.059 1284.2 192.029 1286.76 C 198.191 1303 171.081 1334.22 163.862 1349.42 C 158.701 1360.29 155.556 1373.14 159.99 1384.78 C 169.214 1409.01 203.426 1425.25 225.398 1434.67 C 237.785 1439.98 250.654 1444.39 263.508 1448.43 C 273.89 1451.7 343.169 1471.37 348.582 1469.23 L 349.172 1466.33 C 361.548 1471.41 374.118 1477.24 386.851 1481.29 C 393.869 1480.75 401.32 1482.28 408.26 1483.34 C 458.746 1491.05 499.263 1523.37 539.908 1551.86 C 554.145 1563.01 572.23 1579.23 574.698 1598.36 C 575.6 1604.94 573.638 1611.59 569.309 1616.62 C 567.832 1618.31 566.053 1619.73 564.295 1621.12 z"/>
<path transform="translate(0,0)" fill="rgb(239,39,111)" d="M 386.851 1481.29 C 393.869 1480.75 401.32 1482.28 408.26 1483.34 C 458.746 1491.05 499.263 1523.37 539.908 1551.86 C 554.145 1563.01 572.23 1579.23 574.698 1598.36 C 575.6 1604.94 573.638 1611.59 569.309 1616.62 C 567.832 1618.31 566.053 1619.73 564.295 1621.12 C 563.036 1615.39 562.176 1609.78 560.039 1604.28 C 556.375 1594.85 550.094 1587.22 543.009 1580.14 C 520.089 1557.25 463.03 1520.05 434.156 1504.14 C 418.822 1495.7 402.813 1488.45 386.851 1481.29 z"/>
<path transform="translate(0,0)" fill="rgb(1,76,169)" d="M 1414 502.64 C 1418.97 499.968 1423.07 496.361 1427.86 493.492 C 1436 507.445 1436.09 523.649 1431.98 539.005 C 1424.07 568.485 1406.28 592.6 1379.77 607.606 C 1375.9 609.798 1371.98 611.732 1367.5 612.188 C 1366.9 612.25 1366.29 612.325 1365.68 612.384 C 1365.23 612.427 1364.79 612.457 1364.34 612.494 C 1368.12 615.814 1372.94 618.009 1377.25 620.598 C 1391.05 628.889 1405.76 637.085 1416.29 649.531 C 1396.54 640.399 1379.7 626.172 1359.48 617.185 C 1365.73 623.548 1371.67 632.089 1378.62 637.469 C 1400.36 654.275 1424.23 665.873 1441.7 688.171 L 1441.57 689.262 C 1433.35 684.757 1426.36 676.506 1419.01 670.577 C 1404.75 659.176 1389.73 648.768 1374.04 639.429 C 1378.12 646.536 1383.64 652.932 1387.36 660.133 C 1392.57 670.215 1392.34 686.925 1389.58 697.776 C 1388.45 702.196 1386.43 707.079 1382.33 709.474 C 1376.14 713.088 1334.59 717.035 1327.63 714.554 C 1327.51 714.509 1327.4 714.416 1327.29 714.347 C 1321.54 714.575 1316.48 715.209 1310.86 716.43 C 1310.13 716.589 1309.39 716.729 1308.65 716.88 C 1305.48 717.946 1302.32 718.988 1299.12 719.935 C 1295.54 719.104 1294.36 719.49 1291.15 721.449 C 1283.46 731.581 1268.83 743.75 1255.78 745.779 C 1250.44 746.61 1244.53 744.657 1239.11 744.662 C 1235.1 744.666 1230.47 746.355 1226.59 747.342 C 1224.84 747.787 1223.5 748.087 1221.67 747.957 C 1217.22 750.345 1215.39 752.972 1213.96 757.838 C 1211.28 767.038 1213.08 777.448 1206.55 785.104 C 1194.85 791.221 1184.78 786.45 1173.57 797.756 C 1172.76 800.663 1172.03 804.082 1170.56 806.727 C 1167.6 812.052 1157.51 817.548 1158.76 823.716 C 1147.42 828.799 1134.38 834.509 1124.55 842.18 C 1123.69 853.576 1121.41 864.086 1118.33 875.065 C 1135.81 892.166 1152.8 898.714 1175.33 907.445 L 1175.84 908.466 C 1177.37 910.445 1178.81 912.355 1180.68 914.031 L 1179.7 916.185 C 1179.37 915.868 1179.03 915.547 1178.69 915.234 C 1176.28 913.006 1175.08 912.131 1171.79 911.434 C 1171.96 913.956 1173.05 914.421 1174.87 915.941 C 1176.86 917.598 1178.95 918.336 1179.55 921.019 C 1179.59 921.219 1179.55 921.428 1179.56 921.632 L 1183.33 925.349 C 1182.29 936.55 1183.75 946.649 1185.39 957.75 C 1171.46 958.249 1135.01 957.704 1123.21 951.722 C 1121.34 953.106 1120.43 953.796 1119.63 956.011 C 1114.22 952.378 1109.91 947.504 1106.1 942.28 C 1106.78 939.618 1107.99 937.512 1109.33 935.147 C 1106.1 925.357 1104.07 913.828 1098.91 904.967 L 1097.5 905.438 C 1093.84 901.676 1090.62 898.1 1087.72 893.678 C 1093.62 891.95 1101.34 890.541 1106.2 886.707 C 1108.43 884.949 1109.41 883.338 1109.67 880.459 C 1110.11 875.416 1106.85 868.618 1106.16 863.363 C 1105.13 855.492 1106.25 847.477 1107.15 839.648 C 1109.08 840.187 1110.33 841.175 1111.69 842.58 L 1113.08 844.041 C 1117.23 839.69 1120.01 823.161 1123.18 816.608 C 1125.08 812.669 1126.63 811.519 1130.73 810.112 L 1129.39 808.879 C 1126.15 784.395 1144.08 772.701 1146.16 751.08 C 1148.47 727.144 1137.66 706.551 1139.12 688.402 C 1140.01 677.396 1177.63 611.239 1186.14 603.436 L 1187.35 603.661 C 1187.82 618.521 1175.3 637.87 1171.6 652.825 L 1171.13 654.784 C 1180.38 645.344 1185.61 633.275 1192.32 622.051 C 1196.64 614.823 1201.58 608.083 1206.59 601.323 C 1216.43 594.363 1221.61 582.157 1234.52 579.352 C 1237.65 579.917 1238.99 580.512 1241.53 582.437 C 1242.21 584.581 1242.58 584.721 1241.06 586.609 C 1237.85 590.621 1232.51 594.099 1228.56 597.558 C 1216.63 607.992 1200.65 624.278 1195.2 639.401 C 1194.24 642.059 1194.31 643.803 1195.54 646.296 C 1206.26 643.377 1224.44 595.461 1257.96 588.007 C 1262.47 587.006 1268.66 585.858 1272.68 588.453 C 1271.34 593.464 1251.52 604.704 1245.92 609.907 C 1262.74 607.246 1275.82 598.464 1291.85 594.074 C 1297.17 592.619 1303.38 591.39 1308.43 594.262 C 1308.71 598.073 1302.29 601.575 1301.33 606.141 L 1302.69 606.532 C 1325.05 598.158 1360.19 562.911 1376.52 544.531 C 1388.63 530.906 1399.76 515.639 1413.23 503.331 L 1414 502.64 z"/>
<path transform="translate(0,0)" fill="url(#Gradient1)" d="M 1185.16 759.185 C 1198.49 745.652 1211.82 747.211 1224.19 737.344 C 1234.7 728.951 1237.64 712.413 1251.31 708.066 C 1261.14 704.942 1276.03 706.102 1285.11 710.77 C 1285.49 715.697 1288.02 717.899 1291.15 721.449 C 1283.46 731.581 1268.83 743.75 1255.78 745.779 C 1250.44 746.61 1244.53 744.657 1239.11 744.662 C 1235.1 744.666 1230.47 746.355 1226.59 747.342 C 1224.84 747.787 1223.5 748.087 1221.67 747.957 C 1217.22 750.345 1215.39 752.972 1213.96 757.838 C 1211.28 767.038 1213.08 777.448 1206.55 785.104 C 1194.85 791.221 1184.78 786.45 1173.57 797.756 C 1172.76 800.663 1172.03 804.082 1170.56 806.727 C 1167.6 812.052 1157.51 817.548 1158.76 823.716 C 1147.42 828.799 1134.38 834.509 1124.55 842.18 C 1123.69 853.576 1121.41 864.086 1118.33 875.065 C 1135.81 892.166 1152.8 898.714 1175.33 907.445 L 1175.84 908.466 C 1177.37 910.445 1178.81 912.355 1180.68 914.031 L 1179.7 916.185 C 1179.37 915.868 1179.03 915.547 1178.69 915.234 C 1176.28 913.006 1175.08 912.131 1171.79 911.434 C 1171.96 913.956 1173.05 914.421 1174.87 915.941 C 1176.86 917.598 1178.95 918.336 1179.55 921.019 C 1179.59 921.219 1179.55 921.428 1179.56 921.632 L 1183.33 925.349 C 1182.29 936.55 1183.75 946.649 1185.39 957.75 C 1171.46 958.249 1135.01 957.704 1123.21 951.722 C 1121.34 953.106 1120.43 953.796 1119.63 956.011 C 1114.22 952.378 1109.91 947.504 1106.1 942.28 C 1106.78 939.618 1107.99 937.512 1109.33 935.147 C 1106.1 925.357 1104.07 913.828 1098.91 904.967 L 1097.5 905.438 C 1093.84 901.676 1090.62 898.1 1087.72 893.678 C 1093.62 891.95 1101.34 890.541 1106.2 886.707 C 1108.43 884.949 1109.41 883.338 1109.67 880.459 C 1110.11 875.416 1106.85 868.618 1106.16 863.363 C 1105.13 855.492 1106.25 847.477 1107.15 839.648 C 1109.08 840.187 1110.33 841.175 1111.69 842.58 L 1113.08 844.041 C 1117.23 839.69 1120.01 823.161 1123.18 816.608 C 1125.08 812.669 1126.63 811.519 1130.73 810.112 L 1132.58 809.395 C 1136.18 809.587 1138.88 811.875 1141.8 813.785 C 1150.07 801.658 1148.12 795.22 1152.22 782.367 C 1155.19 773.069 1164.05 756.815 1173.27 752.756 C 1175.87 751.613 1179.15 750.849 1181.89 751.794 C 1183.42 755.392 1181.18 762.648 1180.52 766.557 C 1182.32 764.213 1183.72 761.752 1185.16 759.185 z"/>
<path transform="translate(0,0)" fill="rgb(239,39,111)" d="M 1094.5 896.643 C 1118.46 894.674 1143.84 899.142 1164.83 911.269 C 1170.07 914.3 1174.43 918.536 1179.56 921.632 L 1183.33 925.349 C 1182.29 936.55 1183.75 946.649 1185.39 957.75 C 1171.46 958.249 1135.01 957.704 1123.21 951.722 C 1121.34 953.106 1120.43 953.796 1119.63 956.011 C 1114.22 952.378 1109.91 947.504 1106.1 942.28 C 1106.78 939.618 1107.99 937.512 1109.33 935.147 C 1106.1 925.357 1104.07 913.828 1098.91 904.967 C 1097.21 902.252 1095.79 899.575 1094.5 896.643 z"/>
<path transform="translate(0,0)" fill="rgb(4,4,25)" d="M 1109.33 935.147 C 1113.07 942.058 1117.06 946.763 1123.21 951.722 C 1121.34 953.106 1120.43 953.796 1119.63 956.011 C 1114.22 952.378 1109.91 947.504 1106.1 942.28 C 1106.78 939.618 1107.99 937.512 1109.33 935.147 z"/>
<path transform="translate(0,0)" fill="rgb(198,21,87)" d="M 1253.37 714.245 C 1253.6 714.341 1253.85 714.411 1254.07 714.532 C 1256.48 715.833 1257.08 716.067 1258.01 718.531 C 1256.81 720.849 1255.46 723.227 1254.49 725.651 C 1253.48 728.192 1253.56 729.247 1254.76 731.623 C 1266.21 737.666 1270.11 727.445 1277.31 727.542 C 1277.56 730.02 1276.37 730.769 1274.97 732.718 C 1272 734.927 1268.34 737.24 1264.82 738.415 C 1260.13 739.979 1252.15 739.966 1247.81 737.232 C 1245.7 735.899 1244.6 733.722 1244.46 731.266 C 1244.23 727.352 1245.29 725.118 1247.87 722.262 C 1249.94 719.975 1251.39 717.929 1252.85 715.217 C 1253.03 714.895 1253.2 714.569 1253.37 714.245 z"/>
<path transform="translate(0,0)" fill="rgb(239,39,111)" d="M 1240.5 684.224 C 1244.08 683.921 1247.69 683.636 1251.26 684.157 C 1263.48 685.936 1275.57 690.028 1287.57 692.948 C 1294.55 694.648 1302.19 695.281 1308.9 697.817 C 1312.56 699.203 1316.28 701.203 1319.31 703.69 C 1322.82 706.57 1325.66 710.088 1327.29 714.347 C 1321.54 714.575 1316.48 715.209 1310.86 716.43 C 1310.13 716.589 1309.39 716.729 1308.65 716.88 C 1305.48 717.946 1302.32 718.988 1299.12 719.935 C 1295.54 719.104 1294.36 719.49 1291.15 721.449 C 1288.02 717.899 1285.49 715.697 1285.11 710.77 C 1276.03 706.102 1261.14 704.942 1251.31 708.066 C 1237.64 712.413 1234.7 728.951 1224.19 737.344 C 1211.82 747.211 1198.49 745.652 1185.16 759.185 C 1184.74 758.087 1184.34 757.222 1184.24 756.005 C 1183.51 747.503 1191.55 735.253 1196.35 728.621 C 1198.76 730.358 1200.49 732.223 1202.42 734.484 C 1218.04 718.719 1229 703.068 1240.5 684.224 z"/>
<path transform="translate(0,0)" fill="rgb(1,76,169)" d="M 1285.11 710.77 C 1285.45 710.855 1285.79 710.946 1286.14 711.027 C 1292.66 712.572 1303.22 709.987 1308.62 713.288 C 1308.87 714.755 1308.96 715.383 1308.65 716.88 C 1305.48 717.946 1302.32 718.988 1299.12 719.935 C 1295.54 719.104 1294.36 719.49 1291.15 721.449 C 1288.02 717.899 1285.49 715.697 1285.11 710.77 z"/>
<path transform="translate(0,0)" fill="rgb(4,4,25)" d="M 1233.71 672.967 C 1237.02 673.478 1240.01 673.147 1242.31 675.662 C 1242.08 677.456 1241.84 679.225 1241.53 681.009 L 1240.5 684.224 C 1229 703.068 1218.04 718.719 1202.42 734.484 C 1200.49 732.223 1198.76 730.358 1196.35 728.621 C 1201.47 721.7 1205.33 713.383 1209.66 705.923 C 1216.58 694.015 1224.51 683.208 1233.71 672.967 z"/>
<path transform="translate(0,0)" fill="rgb(8,1,36)" d="M 1233.71 672.967 C 1242.36 664.913 1249.97 659.315 1260.59 654.125 C 1253.21 662.481 1248.03 672.049 1241.53 681.009 C 1241.84 679.225 1242.08 677.456 1242.31 675.662 C 1240.01 673.147 1237.02 673.478 1233.71 672.967 z"/>
<path transform="translate(0,0)" fill="rgb(13,8,82)" d="M 1549.62 2048 C 1559.11 2042.29 1571.56 2039.03 1582 2035.21 L 1655.17 2009.09 C 1672.31 2003.03 1689.1 1995.95 1706.21 1989.78 C 1758.87 1970.97 1811.41 1951.84 1863.84 1932.4 C 1862.7 1970.82 1861.77 2009.57 1862.07 2048 L 1549.62 2048 z"/>
<path transform="translate(0,0)" fill="rgb(4,28,132)" d="M 554.104 1832.4 C 569.094 1829.76 585.175 1830.9 600.413 1829.58 C 614.372 1828.38 628.278 1824.96 642.256 1824.5 C 648.017 1824.31 653.511 1824.98 659.075 1826.52 C 675.028 1831.85 690.396 1837.37 698.497 1853.51 C 703.025 1862.53 703.374 1873.83 702.913 1883.74 C 701.929 1904.91 696.512 1926.79 692.944 1947.7 C 687.352 1980.47 682.333 2014.85 679.759 2048 L 621.939 2048 C 622.083 2011.97 622.011 1918.6 612.272 1888.38 C 602.675 1858.6 580.601 1845.79 554.104 1832.4 z"/>
<path transform="translate(0,0)" fill="rgb(239,39,111)" d="M 1158.76 823.716 C 1164.99 821.729 1171.24 819.631 1177.89 820.035 C 1185.78 820.515 1191.89 825.775 1199.37 827.159 C 1208.5 828.846 1218.43 828.504 1227.7 829.213 C 1237.91 829.994 1248.2 831.987 1258.32 833.611 C 1278.7 838.658 1325.59 848.791 1341 860.373 C 1342.92 862.134 1344.82 863.833 1346.91 865.404 L 1345.6 864.994 C 1342.41 864.014 1340.02 863.256 1336.68 863.631 C 1329.27 862.89 1318.44 856.879 1311.09 854.291 C 1293.08 847.95 1271.75 841.718 1252.74 839.782 C 1250.02 847.393 1247.54 855.247 1244.08 862.555 C 1311.17 880.288 1385.92 914.095 1429.35 970.294 C 1428.82 969.959 1428.28 969.632 1427.76 969.289 C 1416.85 962.149 1408.58 950.011 1397.85 942.1 C 1357.19 912.128 1288.41 876.399 1238.62 866.639 C 1235.98 870.245 1235.38 873.374 1234.53 877.714 L 1233.03 879.175 C 1282.81 903.878 1341.1 927.651 1367.69 980.212 C 1358.28 970.085 1350.14 958.999 1340.09 949.441 C 1313.13 923.781 1272.53 902.848 1238.76 887.592 C 1238.53 890.33 1238.75 891 1236.59 892.908 C 1230.78 898.032 1221.81 900.309 1215.13 904.282 C 1231.02 914.657 1248.16 925.441 1260.69 939.844 C 1256.75 937.697 1252.75 935.618 1248.95 933.231 C 1244.32 934.622 1241.85 935.449 1238.65 939.038 C 1227.14 951.944 1205 954.828 1188.8 957.414 L 1185.39 957.75 C 1183.75 946.649 1182.29 936.55 1183.33 925.349 L 1179.56 921.632 C 1179.55 921.428 1179.59 921.219 1179.55 921.019 C 1178.95 918.336 1176.86 917.598 1174.87 915.941 C 1173.05 914.421 1171.96 913.956 1171.79 911.434 C 1175.08 912.131 1176.28 913.006 1178.69 915.234 C 1179.03 915.547 1179.37 915.868 1179.7 916.185 L 1180.68 914.031 C 1178.81 912.355 1177.37 910.445 1175.84 908.466 L 1175.33 907.445 C 1152.8 898.714 1135.81 892.166 1118.33 875.065 C 1121.41 864.086 1123.69 853.576 1124.55 842.18 C 1134.38 834.509 1147.42 828.799 1158.76 823.716 z"/>
<path transform="translate(0,0)" fill="rgb(13,8,82)" d="M 1216.21 911.807 C 1226.88 918.759 1239.05 925.338 1248.95 933.231 C 1244.32 934.622 1241.85 935.449 1238.65 939.038 C 1227.14 951.944 1205 954.828 1188.8 957.414 L 1185.39 957.75 C 1183.75 946.649 1182.29 936.55 1183.33 925.349 L 1179.56 921.632 C 1179.55 921.428 1179.59 921.219 1179.55 921.019 C 1178.95 918.336 1176.86 917.598 1174.87 915.941 C 1173.05 914.421 1171.96 913.956 1171.79 911.434 C 1175.08 912.131 1176.28 913.006 1178.69 915.234 C 1179.03 915.547 1179.37 915.868 1179.7 916.185 L 1180.68 914.031 C 1183.86 915.937 1186.79 917.276 1190.52 917.665 C 1198.84 918.532 1209.68 917.33 1216.21 911.807 z"/>
<path transform="translate(0,0)" fill="rgb(1,76,169)" d="M 1183.33 925.349 C 1195.6 929.252 1206.02 928.33 1218.54 926.586 C 1205.82 934.36 1196.52 944.719 1188.8 957.414 L 1185.39 957.75 C 1183.75 946.649 1182.29 936.55 1183.33 925.349 z"/>
<path transform="translate(0,0)" fill="rgb(1,76,169)" d="M 1201.6 835.646 C 1218.65 834.931 1235.82 837.865 1252.74 839.782 C 1250.02 847.393 1247.54 855.247 1244.08 862.555 L 1236.19 860.223 C 1227.97 858.591 1219.45 858.279 1211.37 856.285 C 1208.59 853.867 1208.94 851.58 1208.4 847.979 C 1207.63 842.926 1204.61 839.621 1201.6 835.646 z"/>
<path transform="translate(0,0)" fill="rgb(1,76,169)" d="M 1215.13 904.282 C 1207.14 900.551 1198.01 897.116 1191.8 890.664 C 1189.53 888.296 1188.58 886.369 1188.71 883 C 1189.8 881.621 1189.98 881.103 1191.67 880.347 C 1205.89 873.952 1225.43 882.557 1238.76 887.592 C 1238.53 890.33 1238.75 891 1236.59 892.908 C 1230.78 898.032 1221.81 900.309 1215.13 904.282 z"/>
<path transform="translate(0,0)" fill="rgb(1,76,169)" d="M 1190.08 899.138 C 1199.05 902.979 1207.9 906.639 1216.21 911.807 C 1209.68 917.33 1198.84 918.532 1190.52 917.665 C 1186.79 917.276 1183.86 915.937 1180.68 914.031 C 1178.81 912.355 1177.37 910.445 1175.84 908.466 C 1176.97 908.462 1178.41 908.538 1179.53 908.262 C 1184.79 906.97 1187.25 903.445 1190.08 899.138 z"/>
<path transform="translate(0,0)" fill="rgb(1,76,169)" d="M 1233.03 879.175 C 1223.71 875.009 1209.84 872.536 1203.26 864.189 L 1203.67 862.884 C 1211.36 859.393 1222.89 863.094 1230.95 864.418 C 1233.51 865.121 1236.11 865.758 1238.62 866.639 C 1235.98 870.245 1235.38 873.374 1234.53 877.714 L 1233.03 879.175 z"/>
<path transform="translate(0,0)" fill="rgb(184,58,134)" d="M 1175.33 907.445 C 1176.4 905.977 1176.29 906.473 1176.64 905.034 C 1176.72 904.659 1176.78 904.277 1176.86 903.9 C 1177.59 900.473 1178.45 898.647 1181.42 896.708 C 1184.74 896.816 1187.07 897.82 1190.08 899.138 C 1187.25 903.445 1184.79 906.97 1179.53 908.262 C 1178.41 908.538 1176.97 908.462 1175.84 908.466 L 1175.33 907.445 z"/>
<path transform="translate(0,0)" fill="rgb(13,8,82)" d="M 0 1484.02 C 21.933 1483.63 43.9548 1483.9 65.8637 1482.89 C 89.786 1521.22 123.842 1541.38 163.746 1560.01 C 173.596 1564.61 185.624 1568.13 194.427 1574.36 C 194.519 1574.43 194.631 1574.46 194.733 1574.51 C 128.872 1577.26 64.1714 1589.47 0 1603.9 L 0 1484.02 z"/>
<path transform="translate(0,0)" fill="rgb(1,76,169)" d="M 1291.15 721.449 C 1294.36 719.49 1295.54 719.104 1299.12 719.935 C 1302.44 723.506 1306.17 726.083 1310.43 728.433 C 1318.26 731.091 1349.99 743.214 1353.55 749.524 C 1354.46 751.129 1353.34 754.275 1352.7 755.878 C 1343.92 777.861 1328.61 806.162 1305.54 815.495 C 1294.91 819.795 1270.34 818.356 1264.03 824.032 C 1261.04 826.72 1260.34 830.343 1258.32 833.611 C 1248.2 831.987 1237.91 829.994 1227.7 829.213 C 1218.43 828.504 1208.5 828.846 1199.37 827.159 C 1191.89 825.775 1185.78 820.515 1177.89 820.035 C 1171.24 819.631 1164.99 821.729 1158.76 823.716 C 1157.51 817.548 1167.6 812.052 1170.56 806.727 C 1172.03 804.082 1172.76 800.663 1173.57 797.756 C 1184.78 786.45 1194.85 791.221 1206.55 785.104 C 1213.08 777.448 1211.28 767.038 1213.96 757.838 C 1215.39 752.972 1217.22 750.345 1221.67 747.957 C 1223.5 748.087 1224.84 747.787 1226.59 747.342 C 1230.47 746.355 1235.1 744.666 1239.11 744.662 C 1244.53 744.657 1250.44 746.61 1255.78 745.779 C 1268.83 743.75 1283.46 731.581 1291.15 721.449 z"/>
<path transform="translate(0,0)" fill="rgb(239,39,111)" d="M 1291.15 721.449 C 1294.36 719.49 1295.54 719.104 1299.12 719.935 C 1302.44 723.506 1306.17 726.083 1310.43 728.433 L 1309.45 741.83 C 1292.64 752.809 1274.94 765.6 1254.37 767.494 C 1245.12 768.344 1235.1 766.436 1226.68 770.395 C 1225.71 770.854 1224.68 771.206 1223.68 771.6 C 1220.74 765.722 1222.3 754.664 1221.67 747.957 C 1223.5 748.087 1224.84 747.787 1226.59 747.342 C 1230.47 746.355 1235.1 744.666 1239.11 744.662 C 1244.53 744.657 1250.44 746.61 1255.78 745.779 C 1268.83 743.75 1283.46 731.581 1291.15 721.449 z"/>
<path transform="translate(0,0)" fill="rgb(13,8,82)" d="M 1182.66 2048 C 1192.86 2041.83 1206.96 2038.61 1218.34 2034.81 C 1237.2 2028.52 1256.04 2021.91 1275.05 2016.11 C 1291.43 2011.12 1307.99 2006.97 1324.29 2001.64 L 1637.31 1900.64 C 1689.68 1883.88 1741.96 1866.03 1794.63 1850.32 C 1800.97 1848.43 1811.3 1844.75 1817.81 1846.19 C 1819.38 1846.54 1819.6 1847.45 1820.48 1848.66 C 1820.66 1851.98 1820.2 1854.34 1817.89 1856.78 C 1815 1859.84 1810.73 1861.72 1806.86 1863.19 C 1796.07 1867.28 1784.71 1869.89 1773.75 1873.52 L 1664.63 1909.69 L 1375.7 2004.49 L 1292.98 2031.07 C 1278.39 2035.76 1257.09 2039.87 1244.77 2048 L 1182.66 2048 z"/>
<path transform="translate(0,0)" fill="rgb(13,8,82)" d="M 789.946 1482.07 C 819.512 1479.4 987.268 1486.33 1006.89 1494.28 C 992.04 1501.01 977.511 1508.55 962.044 1513.83 C 897.692 1535.76 798.078 1549.31 730.443 1547.89 C 737.695 1546.64 759.25 1536.18 765.405 1531.83 C 781.88 1520.18 786.565 1500.73 789.946 1482.07 z"/>
<path transform="translate(0,0)" fill="rgb(239,39,111)" d="M 1211.76 1360.68 C 1231.58 1364.37 1250.97 1372 1270.01 1378.48 C 1336.84 1401.22 1405.08 1426.89 1462.79 1468.42 C 1472.75 1475.59 1483.55 1483.4 1491.71 1492.6 C 1481.83 1488.79 1472.12 1480.27 1462.84 1474.84 C 1446.03 1464.99 1428.14 1456.18 1410.48 1447.99 C 1386.29 1436.65 1361.78 1425.98 1337 1416.01 C 1305.57 1403.46 1234.11 1382.06 1211.76 1360.68 z"/>
<path transform="translate(0,0)" fill="rgb(13,8,82)" d="M 589.315 1504.22 C 598.219 1517.32 602.707 1530.26 607.543 1545.12 C 605.662 1546.9 603.714 1548.19 601.459 1549.46 C 595.165 1553.03 579.009 1560.56 572.025 1558.68 C 571.57 1556.82 578.157 1550.88 579.581 1547.93 C 589.217 1528.02 583.926 1517.38 589.315 1504.22 z"/>
<path transform="translate(0,0)" fill="rgb(13,8,82)" d="M 626.439 1494 C 635.077 1503.4 640.889 1512.83 644.239 1525.27 C 645.272 1529.1 645.467 1533.44 647.23 1536.97 C 643.472 1538.2 639.705 1542.49 636.174 1544.64 C 630.416 1548.15 624.523 1550.52 618.184 1552.75 C 626.016 1539.94 630.174 1525.16 628.04 1510.09 C 627.29 1504.79 626.01 1500.69 626.346 1495.21 C 626.371 1494.8 626.408 1494.4 626.439 1494 z"/>
<path transform="translate(0,0)" fill="rgb(13,8,82)" d="M 1156.81 978.152 C 1159.27 977.913 1161.89 977.648 1164.34 978.101 C 1172.55 979.619 1211.67 995.932 1217.19 1000.73 C 1217.65 1001.13 1218.07 1001.57 1218.54 1001.95 C 1220.42 1003.49 1222.54 1004.87 1224.51 1006.29 L 1223.26 1007.06 C 1222.89 1006.94 1222.53 1006.81 1222.16 1006.71 C 1220.72 1006.32 1220.14 1006.41 1218.74 1006.79 C 1200.62 1004.27 1177.07 994.097 1161.63 984.792 C 1160.42 982.183 1158.65 980.329 1156.81 978.152 z"/>
<path transform="translate(0,0)" fill="rgb(13,8,82)" d="M 1456.31 1674.8 C 1466.2 1686.9 1476.74 1699 1490.39 1706.95 C 1484.81 1708.62 1481.16 1708.99 1475.89 1706.05 C 1466.89 1701.01 1457.65 1690.09 1455.01 1679.97 C 1454.37 1677.5 1455.13 1676.94 1456.31 1674.8 z"/>
<path transform="translate(0,0)" fill="rgb(198,21,87)" d="M 1341 860.373 C 1360.81 868.014 1381.82 879.553 1397.09 894.489 C 1385.17 888.211 1373.54 881.333 1361.53 875.246 C 1353.38 871.117 1344.75 867.813 1336.68 863.631 C 1340.02 863.256 1342.41 864.014 1345.6 864.994 L 1346.91 865.404 C 1344.82 863.833 1342.92 862.134 1341 860.373 z"/>
<path transform="translate(0,0)" fill="rgb(198,21,87)" d="M 1481.21 695.17 C 1474.47 684.119 1472.37 675.158 1473.32 662.352 C 1477.82 669.98 1483.26 685.536 1481.42 694.389 C 1481.37 694.653 1481.28 694.91 1481.21 695.17 z"/>
<path transform="translate(0,0)" fill="rgb(1,76,169)" d="M 1604.48 1491.19 C 1593.18 1490.88 1580.31 1485.21 1569.48 1482.05 C 1540.03 1473.46 1485.36 1460.2 1461.07 1445.54 C 1454.12 1441.35 1448.42 1435.98 1446.66 1427.77 C 1444.81 1419.15 1448.12 1410.32 1452.62 1403.07 C 1467.49 1379.1 1496.79 1359.84 1524.03 1353.49 C 1559.06 1345.33 1584.25 1360.78 1612.93 1378.74 C 1617.91 1382.68 1622.42 1384.57 1623.82 1391.17 L 1631.26 1393.53 C 1669.14 1411.71 1733.34 1446.72 1751.54 1484.77 C 1766.05 1508.67 1771.13 1537.15 1777.87 1563.81 C 1786.01 1595.98 1795.45 1629.95 1797.59 1663.18 C 1798.14 1671.63 1797.74 1680.02 1795.7 1688.26 C 1794.13 1694.64 1791.7 1702.25 1785.87 1705.93 C 1781.94 1706.31 1778.09 1706.84 1774.7 1704.69 C 1771.32 1697.59 1775.58 1685.71 1774.36 1677.47 C 1773.38 1670.85 1772.66 1665.52 1768.18 1660.24 L 1766.2 1659.49 C 1762.76 1664.95 1769.95 1703.64 1746.6 1712.09 C 1737.93 1709.76 1729.29 1706.26 1720.3 1705.81 C 1719.69 1705.78 1719.08 1705.73 1718.46 1705.7 C 1718.09 1705.68 1717.73 1705.67 1717.36 1705.65 C 1721.81 1690.99 1723.3 1677.85 1720.16 1662.73 C 1713.45 1667.63 1713.36 1677.83 1709.31 1684.69 C 1707.65 1687.5 1705.05 1689.94 1702.77 1692.25 C 1676.81 1655.79 1682.29 1595.27 1666.72 1552.71 C 1655.57 1522.24 1632.91 1504.44 1604.48 1491.19 z"/>
<path transform="translate(0,0)" fill="rgb(13,8,82)" d="M 1604.48 1491.19 C 1593.18 1490.88 1580.31 1485.21 1569.48 1482.05 C 1540.03 1473.46 1485.36 1460.2 1461.07 1445.54 C 1454.12 1441.35 1448.42 1435.98 1446.66 1427.77 C 1444.81 1419.15 1448.12 1410.32 1452.62 1403.07 C 1467.49 1379.1 1496.79 1359.84 1524.03 1353.49 C 1559.06 1345.33 1584.25 1360.78 1612.93 1378.74 C 1617.91 1382.68 1622.42 1384.57 1623.82 1391.17 C 1614.64 1390.56 1595.69 1391.3 1588.81 1397.98 C 1583.03 1403.6 1582.34 1425.54 1582.69 1433.55 C 1583.56 1453.33 1592.84 1475.35 1604.48 1491.19 z"/>
<path transform="translate(0,0)" fill="rgb(239,39,111)" d="M 1604.48 1491.19 C 1592.84 1475.35 1583.56 1453.33 1582.69 1433.55 C 1582.34 1425.54 1583.03 1403.6 1588.81 1397.98 C 1595.69 1391.3 1614.64 1390.56 1623.82 1391.17 L 1631.26 1393.53 C 1669.14 1411.71 1733.34 1446.72 1751.54 1484.77 C 1751.17 1484.62 1750.79 1484.5 1750.43 1484.31 C 1744.14 1481.03 1731.24 1467.01 1723.86 1461.55 C 1707.76 1449.64 1655.15 1423.73 1635.24 1428.88 C 1632.98 1429.46 1632.42 1430.09 1630.88 1431.73 C 1630.58 1435.41 1631.86 1438.39 1633.38 1441.68 C 1638.84 1453.55 1646.3 1464.7 1652.81 1476.04 C 1661.71 1491.87 1670.06 1508.01 1677.83 1524.43 C 1688.16 1546.74 1697.82 1572.17 1704.13 1595.95 C 1706.99 1606.74 1707.39 1618.33 1710.73 1628.95 C 1713.15 1636.62 1724.15 1655.87 1720.16 1662.73 C 1713.45 1667.63 1713.36 1677.83 1709.31 1684.69 C 1707.65 1687.5 1705.05 1689.94 1702.77 1692.25 C 1676.81 1655.79 1682.29 1595.27 1666.72 1552.71 C 1655.57 1522.24 1632.91 1504.44 1604.48 1491.19 z"/>
<path transform="translate(0,0)" fill="rgb(1,76,169)" d="M 635.491 1450.53 C 636.253 1448.55 637.061 1446.63 638.142 1444.8 C 643.103 1436.39 653.205 1431.3 662.354 1429.01 C 686.604 1422.95 714.708 1429.94 735.604 1442.84 C 750.732 1452.19 759.282 1463.73 763.43 1481.21 C 764.977 1490.06 765.551 1497.18 759.965 1504.88 C 753.536 1513.73 741.313 1520.5 732.331 1526.71 C 739.427 1512.09 744.573 1499.79 743.333 1483.05 C 733.579 1465.97 723.018 1457.49 704.869 1450.77 C 717.463 1461.87 727.009 1471.39 728.25 1489.23 C 728.91 1498.7 726.669 1508.33 723.014 1517.04 C 723.048 1520.27 722.177 1523.79 721.684 1526.99 C 714.242 1528.61 695.19 1532.46 688.742 1527.92 C 687.38 1526.96 686.495 1525.74 686.274 1524.11 C 685.589 1519.04 689.805 1514.08 692.452 1510.04 C 691.19 1504.48 689.375 1499.07 687.644 1493.64 C 683.26 1490.11 680.131 1487.58 677.818 1482.3 C 668.069 1475.22 655.06 1472.3 646.506 1464.29 C 642.437 1460.48 638.858 1454.97 635.491 1450.53 z"/>
<path transform="translate(0,0)" fill="rgb(13,8,82)" d="M 677.818 1482.3 C 693.856 1492.39 706.963 1506.74 723.014 1517.04 C 723.048 1520.27 722.177 1523.79 721.684 1526.99 C 714.242 1528.61 695.19 1532.46 688.742 1527.92 C 687.38 1526.96 686.495 1525.74 686.274 1524.11 C 685.589 1519.04 689.805 1514.08 692.452 1510.04 C 691.19 1504.48 689.375 1499.07 687.644 1493.64 C 683.26 1490.11 680.131 1487.58 677.818 1482.3 z"/>
<path transform="translate(0,0)" fill="rgb(13,8,82)" d="M 763.43 1481.21 C 764.977 1490.06 765.551 1497.18 759.965 1504.88 C 753.536 1513.73 741.313 1520.5 732.331 1526.71 C 739.427 1512.09 744.573 1499.79 743.333 1483.05 C 746.454 1488.91 749.663 1494.46 753.431 1499.92 C 758.902 1493.74 761.519 1489.13 763.43 1481.21 z"/>
<path transform="translate(0,0)" fill="rgb(239,39,111)" d="M 1530.99 1486.9 C 1555.82 1493.97 1603.01 1501.91 1623.11 1514.77 C 1630.8 1519.68 1637.51 1529.22 1644.89 1535.16 C 1646.4 1536.38 1646.42 1536.39 1647.23 1538.33 L 1645.25 1538.92 C 1631.42 1539.19 1615.02 1544.26 1601.6 1541.82 C 1578.72 1537.66 1543.57 1505.73 1530.99 1486.9 z"/>
<path transform="translate(0,0)" fill="rgb(13,8,82)" d="M 1599.99 1187.99 C 1599.48 1230.28 1570.2 1295.99 1589.96 1332.65 C 1598.84 1349.12 1612.34 1361.41 1622.86 1376.53 C 1622.79 1376.58 1622.72 1376.64 1622.64 1376.67 C 1619.83 1377.64 1618.01 1376.48 1615.27 1375.6 C 1608.2 1370.6 1601.44 1365.38 1595.28 1359.26 C 1591.16 1355.15 1560.3 1317.5 1559.21 1314.02 C 1554.1 1297.71 1576.98 1253.44 1582.72 1237.14 C 1588.43 1220.9 1591.67 1203.12 1599.99 1187.99 z"/>
<path transform="translate(0,0)" fill="rgb(239,39,111)" d="M 1777 1477.94 C 1797.86 1483.87 1817.98 1490.55 1838.26 1498.23 C 1843.78 1501.22 1847.68 1504.8 1851.49 1509.76 C 1838.81 1515.37 1828.03 1518.15 1814.49 1512.99 C 1809.65 1511.15 1804.34 1509.31 1800.06 1506.39 C 1797.45 1504.62 1794.53 1504.67 1791.47 1504.53 C 1785.56 1500.1 1780.35 1484.95 1777 1477.94 z"/>
<path transform="translate(0,0)" fill="rgb(13,8,82)" d="M 1838.26 1498.23 C 1843.78 1501.22 1847.68 1504.8 1851.49 1509.76 C 1838.81 1515.37 1828.03 1518.15 1814.49 1512.99 C 1809.65 1511.15 1804.34 1509.31 1800.06 1506.39 C 1797.45 1504.62 1794.53 1504.67 1791.47 1504.53 C 1807.36 1504.06 1823.12 1503.7 1838.26 1498.23 z"/>
<path transform="translate(0,0)" fill="rgb(8,1,36)" d="M 1615.27 1375.6 C 1618.01 1376.48 1619.83 1377.64 1622.64 1376.67 C 1622.72 1376.64 1622.79 1376.58 1622.86 1376.53 C 1626.93 1377.97 1632.71 1385.3 1636.49 1388.46 L 1628.56 1386.17 L 1627.5 1387.03 C 1628.34 1389.64 1629.63 1391.38 1631.26 1393.53 L 1623.82 1391.17 C 1622.42 1384.57 1617.91 1382.68 1612.93 1378.74 L 1615.27 1375.6 z"/>
</svg>