<svg xmlns="http://www.w3.org/2000/svg" width="1365.333" height="1365.333" preserveAspectRatio="xMidYMid meet" version="1.0" viewBox="0 0 1024 1024"><g fill="#000" stroke="none"><path d="M0 138.8v138.9l34.8 1.2c65.5 2.2 93.7 3 121.7 3.6 43.5.9 105.4 3.4 122 5 38.2 3.6 68.4 13.1 79.2 24.8 9.5 10.5 21 32.3 29.1 55.2 11.1 31.6 14.3 42.4 18.7 64 1.3 6.6 3.5 16 4.8 21 2.7 10.5 3.8 11.5 13.2 11.5 12.5 0 54.3 6.4 79.5 12.1 24.6 5.6 36.2 7.9 39.9 7.9 2 0 4.9.7 6.4 1.5 3.7 1.9 4.2.6 3.4-8.5l-.6-6.8 4.1 4.4c2.3 2.5 8 6.6 13.4 9.6 6.3 3.4 10 6.2 11.2 8.2 2.9 4.8 17.1 16.2 36.7 29.3 21.3 14.3 40.6 31.4 32.8 29-1-.3-5.2-2-9.3-3.7-17.7-7.4-39.3-14.2-42.6-13.4-2.3.6-8.2-2-10-4.3-1.7-2.4-5.9-1.2-6.2 1.7-.6 5.4 8.2 15.3 22.4 25.1 12.6 8.7 13.2 14.4 2.6 23.6-18 15.7-22.8 21.7-34.8 43.1-7.8 14-17.3 25.9-30.4 38.1-13.7 12.7-21.4 24.4-20.8 31.7.3 3.3.8 4.1 3.8 5.5 5 2.4 61.9 21.2 72 23.9 15.1 4 43.4 12 45.5 12.9 1.1.5 4.7 1.9 8 3.2 10.2 3.8 28.7 13.6 36 19.1 13.5 10.2 24.8 22.9 34 38.3 5.7 9.5 12 17.5 24.6 31.2 8.3 9 9.4 10.7 9.7 14.3.2 2.8-.4 5.4-1.9 8.1-4 6.9-7.4 6.2-17-3.3-7.5-7.3-15.8-18.9-21.9-30.3-7.3-13.6-13.1-21.6-23-31.5-10.4-10.5-15.7-13.8-30.5-19-15.5-5.4-28.6-8-61.5-12-9.6-1.1-42.8-6.3-64.3-10.1-31.1-5.3-44.7-11.1-49.7-21-3.9-7.6-1.7-25.6 5.1-41.4 12.1-28.5 19.6-44.4 25.1-53.5 2.5-4.1 6.4-11.1 8.8-15.5 8-15 19.3-35 22-39 5.8-8.7 7.3-12.2 6.6-15.7-4-21.3-4.6-40.9-1.5-53.5 2.4-10.3 2.2-11.6-2-10-4.3 1.6-24.5-.8-61.1-7.3-24.1-4.3-28.4-5-37-6-4.1-.4-9.9-1.3-12.8-1.9-19.8-4-64.7-5.3-91.7-2.6-22 2.2-20.4 1.9-62.5 9.5-35.5 6.4-42.9 8.5-73.4 20.9-8.2 3.4-15.2 6.1-15.7 6.1-1.4 0-28.6 11.9-37.4 16.2-8.1 4.1-21.5 12.7-31.6 20.4-5.6 4.2-9.9 6.8-9.9 6.1 0-.2 4.4-4.2 9.7-8.8 5.4-4.6 12.7-11.1 16.3-14.3 10.4-9.4 24.7-17.9 48-28.3 18-8.1 46.6-16.7 73.5-22.2 12.8-2.6 26.7-5.1 34.5-6.1 16.3-2.1 35.5-5.2 36.2-5.8.4-.4-.8-3.6-2.7-7.2-17.2-32.3-18.7-36.3-18.9-50-.1-10.5-.1-10.5 4.2-19 2.7-5.5 7.7-12.6 14.1-20.3 12.2-14.5 25.1-32.8 29.8-42.4l3.5-7.1-2.5-3.4c-9.3-12.2-39.1-19.9-87.7-22.8-51.7-3-71.3-3.7-188-6.6-34.4-.9-67.8-1.8-74.2-2.1L0 287.8V545c0 244.4.1 257.1 1.8 256.6.9-.3 3.7-1 6.2-1.5s8.6-1.8 13.5-2.9c11.7-2.7 55.3-8.9 67.5-9.6 7.4-.5 11.6-.1 19 1.4 5.2 1.2 17.2 3.6 26.5 5.4 20 4 30.4 6.5 44 10.7 12.9 4 35.9 13.1 45.7 18 18.5 9.3 32.2 13.2 45.8 13.2 17.4 0 49.5-2.2 55.5-3.8 11.4-3.1 17.5-8.4 17.5-15.1 0-4-3.1-8.7-7.5-11.4-3.9-2.4-25.7-10-28.8-10-2.4 0-1.8-1.9 1.4-4.2 7.3-5.3 75.6-4.9 113.3.8 6 .9 10.3 1.1 10.9.5 1.2-1.2.7-1.4-13.8-5.4-15.4-4.3-31.4-8-44.5-10.3-12.3-2.1-13.6-3.4-3.5-3.4 24.6-.1 66.5-5.5 92.7-12 12.1-3 27.9-8.5 35.8-12.5 4.2-2.1 5.2-2.2 14-1.4 5.2.4 14.9 1.5 21.5 2.3s16.7 2 22.5 2.7c11 1.2 48.5 8.3 65.5 12.5 5.5 1.3 15 4 21 6 18.1 5.7 50.5 23 47.9 25.3-1 .9-.9.9-39.9 8.1-25.1 4.7-40.3 7.7-50 10-2.2.5-13.7 3-25.5 5.5-18.2 3.9-40.1 8.7-56.5 12.5-16.1 3.7-29 6.6-49 11-51.4 11.4-119.9 28.4-141 35-1.6.6-8.2 2.6-14.5 4.5s-13.9 4.9-16.8 6.6c-4.5 2.5-5.2 3.3-4.1 4.5 1 1.2 3.3 1.4 11.3 1.2 11-.4 25.2-3.3 58.4-11.9 22-5.7 47.9-12.1 68.2-16.8 54.6-12.8 142.7-32.9 153.5-35 2.2-.5 13.9-3.1 26-5.9 19.7-4.6 56.9-12.6 79.1-16.9 4.4-.9 8.8-1.3 9.7-1 3 1.1 1.9 3.4-2 4.1-2.1.4-6.5 1.3-9.8 2.1s-14.5 3.3-25 5.5c-28 6.1-128.7 29.2-168 38.5-8.2 2-20.6 4.9-27.5 6.5-24.3 5.6-82.5 20-109 27-27.3 7.2-39.2 9.1-60 9.7-23.7.6-28.3-.1-41.5-6.7-8.8-4.4-30.7-12.5-40.5-15-1.9-.4-9.8-2.7-17.5-4.9-13.5-4-22.9-6.4-57-15-15.6-3.9-38.4-8.6-53.5-11.1-4.1-.6-9.5-1.6-12-2-10.2-2-74.9-13-76.1-13-.5 0-.9.8-.9 1.9 0 1.5 1.2 2.1 6.3 3 3.4.7 14.3 2.8 24.2 4.7 20.7 4.1 19.4 3.9 55 9.8 31.1 5.2 51.1 9.2 71 14.2 50.4 12.7 66.2 17.3 77.8 23 8.4 4.1 9.7 5.1 9.7 7.5 0 2.1-1.1 2.4-3.8 1s-6.5-2.9-8.7-3.4c-1.1-.3-7.2-2.3-13.5-4.6-6.3-2.2-17.8-5.6-25.5-7.5s-22.3-5.6-32.5-8.2c-22.8-5.8-44-10.5-50-11.1-5.3-.5-20.3-2.8-31.5-4.8-23.6-4.3-36.9-6.7-44.5-8-4.7-.8-10.3-1.9-12.5-2.4s-7.1-1.5-11-2.1c-3.8-.6-7.8-1.4-8.8-1.7-1.6-.4-1.7 3.2-1.7 65.2s.1 65.6 1.8 65.1c.9-.3 6.7-1.7 12.7-3.1 6.1-1.5 17.5-4.2 25.5-6.1s17.2-4.1 20.5-4.9c23.7-5.7 58.9-14.5 74-18.5 15.8-4.2 51.7-13.3 63-16 15.3-3.7 49.4-13.4 51.3-14.6 2.1-1.4 2.2-1.3 2.2 1 0 1.6-1 3.2-2.8 4.5-2.5 1.8-17.8 6.9-31.7 10.6-2.7.8-13.8 3.8-24.5 6.9-28.4 8-101.8 26.9-125 32.2-5.8 1.4-23 5.6-38.2 9.4-15.3 3.9-28 7-28.3 7s-.5 9-.5 20v20h1024V0H541.7l.6 66.7c.4 36.8.7 87.6.7 113v46.1l8.3 5.5c17.2 11.6 35.3 31.1 47.2 51.2 3.8 6.4 4.5 7 7.1 6.7 1.6-.2 9-.4 16.4-.5 10.3-.1 14.8.3 19 1.6 3 1 8.4 2 12 2.3 6.1.6 6.8.4 11.5-2.7 6.8-4.6 20.7-18.6 28.3-28.6 13-17.1 25.7-28 37-31.7l4.9-1.7 5.1 3.3c2.8 1.8 6.2 5.1 7.6 7.3 3.5 5.3 11.1 29.1 12.6 39 .6 4.4 1.5 10.7 2.1 14.1.5 3.3.9 13.9.9 23.5 0 15.5-.3 18.4-2.6 26.9-3.7 14-4 18.7-1.5 24 5.7 12.5 7.2 19.5 8.2 38.9 1.1 21.7 1.9 27.4 6 39.6 4.6 13.9 17.1 34.9 23.2 38.9 1.8 1.2 7.7 1.8 27.3 2.5 52.6 2.1 94.3 4.1 104.4 5.1 28.1 2.8 65.5 9.4 74 13.1l5.5 2.3-10.6 1.2c-12 1.3-25 5.4-33.5 10.5-7.8 4.7-18.5 16.2-22.3 24.1-6.9 13.9-6.8 13.1-7.3 134-.2 32.8-.6 59.9-.9 60.3-.4.3-2.7-.4-5.3-1.7l-4.6-2.3-.4-30.5c-1.8-121-1.9-129.6-.7-138 2.2-15.6 7.5-28.7 15.3-37.5 3.9-4.4 15.2-12.5 20.1-14.5 1.5-.5 3.9-1.5 5.4-2 4.9-2 .9-3.1-14.8-4.1-8.5-.6-21.2-1.5-28.4-2-7.1-.4-28.1-1.5-46.5-2.4-18.4-.8-41.1-2.2-50.3-3-9.3-.8-17.2-1.3-17.6-1-.5.2-.2 2.8.5 5.6 1.8 6.9 3.1 31.8 1.5 30.4-.6-.6-1.6-4.6-2.2-9-1.1-8.4-3.8-17.3-7.2-24-2.7-5.3-11.5-17.3-18.3-24.6-12.9-14-19.9-31.4-22.4-54.9-2-19.4-4.2-30.1-8.6-41.9l-2.7-7.4 2.6-1.9c1.5-1.1 2.7-2.9 2.7-4.1s1.1-5.9 2.5-10.5c2.8-9.8 4.7-25 4.3-34.7-.4-8.5-1.7-8.4-3.9.5-1.7 6.5-4.3 13.6-7.9 21.5-1 2.2-2.2 5.3-2.5 6.8-.9 3.5-1.2 3.1-4.1-4-3.7-9.1-3.3-16 1.6-26.1 2.2-4.5 6.7-11.8 10.1-16.2l6.2-7.9-.6-9.8c-.9-16.5-9.1-41.4-16.6-50.2l-2.9-3.5-4 1.6c-2.3.9-7.8 3.8-12.3 6.4-7 4.2-10 6.9-21.4 19.9-14.3 16.2-31.3 33.3-38.5 38.8-5.2 3.9-10 5.5-10 3.3 0-.8.8-1.7 1.7-2 1.5-.6 1.5-.8 0-2.3-1.4-1.5-2.1-1.5-5.9-.3-2.4.7-7.2 2.6-10.7 4.2-6.2 2.7-11.1 3.6-11.1 2 0-.4 2.5-2.3 5.5-4.1 4.1-2.5 5.3-3.7 4.5-4.6-2.2-2.7-11.9.9-18.6 6.7-3.9 3.5-15.4 18.1-15.4 19.6 0 1.4-2.8 2.3-3.5 1.2-1.3-2.2 5.4-12 14.2-20.8 5.2-5 9.1-9.7 8.8-10.2-1.5-2.5-5.6-.8-11.6 4.7-5.7 5.3-10.3 11.6-18.1 24.7-1.5 2.5-3.2 4.6-3.7 4.6-1.3 0 .5-6.5 3.1-11.1 1.9-3.4 2.2-8.4.5-8.4-.5 0-2.1 2.2-3.6 5-1.4 2.7-4.5 8.1-6.8 12-2.2 3.8-5.7 10.2-7.7 14.2l-3.7 7.2 1.7 7.3c.9 4 1.9 12.1 2.1 18 .4 9.4.2 11.1-1.4 13.5-3.7 5.3-5.7 10.8-6.1 16.6l-.5 5.9-6.9-.7c-5.8-.6-7.2-.4-8.9 1-2.7 2.5-2.4 4.4 1.2 8.1 3 3.1 3.2 3.6 3.4 13.1.1 5.4.5 11.2.9 12.9.8 3.3.9 3.2-7.8 6.4-2.3.9-2.6 1.3-1.6 2.5s1.6 1.3 2.7.4c2.2-1.9 16-.3 25.3 2.7 5.6 1.9 9.9 4.1 13.5 7 4.8 3.9 5.2 4.6 5.2 8.6 0 2.4.3 6 .7 8l.7 3.8h-5.8c-3.2-.1-10.2-.7-15.6-1.4-8.7-1.1-10.2-1.6-12.9-4.3-1.6-1.7-4-5.9-5.2-9.4-1.4-4-2.8-6.3-3.6-6.1-.7.2-3.7-2-6.6-4.9l-5.3-5.2-3.2 2.7c-4.3 3.6-5 2.4-1-1.8 2.8-2.8 3-3.5 1.7-4.5-.8-.7-2.5-3.3-3.7-5.8-1.2-2.4-2.7-4.7-3.4-4.9-1.8-.7-12.4 5.8-21.7 13.4-4.6 3.7-8.9 7.1-9.5 7.6-2.7 1.6-1.1-1.4 3.3-6.3 5.6-6.3 14.4-12.6 24.2-17.5 7.9-4 9.4-5.8 6.8-8.4-2.6-2.7-9.1-1.9-19 2.1-4.9 2-9.1 3.5-9.4 3.3-.7-.8 7.4-5.6 12.7-7.6 2.8-1.1 7.5-2.2 10.3-2.6 7.1-.7 7.8-1 7.8-3.2 0-1 1.1-3.3 2.5-5.2 2.7-3.7 3.2-7.2 1.3-8.8-1.6-1.3-12.7-3.4-13.9-2.6-.5.3-.9 3.8-.9 7.8v7.4l-25.7.6c-14.2.3-32.7.9-41 1.2l-15.3.6-.1-32.3c0-17.8-.2-33.1-.4-33.9-.7-3.9-1.9-178.6-1.8-259.3l.2-89.7H0zm713.4 189.7c2.2 1.9 3.5 3.5 3 3.5-.5-.1-2.7-1.6-4.9-3.5s-3.5-3.5-3-3.4c.6 0 2.8 1.5 4.9 3.4M638.3 345c5.9 1.6 12 3 13.5 3 3.8 0 12.8 6.9 11 8.4-1.1 1-8.8 1.4-9.3.6-.3-.5-2.5-1-4.8-1s-6.2-.7-8.7-1.6c-3-1-6-1.3-9.5-.9-7.5 1-8 1.2-11.1 5.8-4.5 6.8-9.5 11.6-12.8 12.3-4 .8-9.9 3.8-11.5 5.8-1.8 2.1-3.1 2-3.1-.2 0-2 4.6-12.2 5.5-12.2.4 0 1.5.5 2.5 1 1.6.9 2.8 0 7.9-6 3.3-3.8 6.5-8 7.2-9.2.6-1.3 2.1-3.8 3.3-5.5 2.7-4.2 5.8-4.3 19.9-.3m-9.3 14.2c0 .6-.7 2-1.6 3-1.4 1.4-1.4 2-.4 3.3 1.4 1.7 7.5 2.1 8.5.5.3-.6 1.1-1 1.8-1 .6 0 .1.7-1.1 1.6-1.2.8-2 2-1.6 2.5.7 1.1 5.7-2.3 10.1-6.9l3.2-3.4 3.5 2.9c5.2 4.1 5 8.1-.5 11.7-12.3 8.2-18.9 10.6-29.1 10.6-4.2 0-8 .4-8.3 1-1.5 2.5-2.5.5-2.5-4.9v-6l5.4-1.2c3.8-.8 6.2-.9 8.3-.1 2.3.8 3.4.6 5.2-.7 2.2-1.7 2-3.4-.4-2.5-2 .8-6.5-2.5-6.5-4.8 0-1 .7-3 1.6-4.3 1.7-2.6 4.4-3.4 4.4-1.3M595.5 412c3.1 1.6 5.9 2 13.2 2 5 0 9.5.4 9.8 1 .3.5 2.1 1 4 1 5.3 0 30.8 6.8 40.3 10.8 13.4 5.5 32.2 15.9 32.2 17.8 0 .3-4.2-1.8-9.2-4.5-13-6.9-27.7-12.6-43.1-16.5-16.3-4.1-38.1-6.9-40-5-.3.4.1 1.7.9 2.9.8 1.3 1.4 3.1 1.2 4.1-.2 1.5.8 2 6.1 3 3.5.6 8 1.7 10 2.3s7.4 2.2 12.1 3.6c28.2 8.6 54.4 23.3 72.4 40.8l8.1 7.9-9.5-7.9c-9.6-7.9-26.8-18.8-41.6-26.1-19.9-9.9-56.9-21.1-59.8-18.2-1.4 1.4 2.4 4.7 6.3 5.6 4 1 30.1 13.8 40.7 20.2 11.2 6.7 19.6 13.5 26 21.2 7 8.5 7.3 10.3.5 2.8-8.3-9-16.4-15.2-30.1-23-25.3-14.4-38.1-19.4-46-18-3.5.6-4.6 1.2-4.8 2.8-.4 2.5.6 3.4 7.8 7.2 5.9 3.1 22.5 14.6 23.5 16.3 1.5 2.3-.5 1.4-11-5.3-6-3.9-12.9-7.9-15.3-8.9-4.3-1.9-4.3-1.9-7.3.3-2.9 2.2-2.9 2.2-8.2.3-8.1-2.8-17.2-7.4-21.1-10.7-3.9-3.2-4.3-4.9-2.7-12.1.6-2.3 1.2-5.4 1.6-6.9.4-2.2 1.9-3.5 6.8-6 13.5-7.1 19.6-8.2 26.2-4.8m31.4 274.6c56.1 18.7 94.1 37.1 113.6 54.9l5 4.5-5.5-3.1c-3-1.7-5.9-3.5-6.5-3.9-1.8-1.4-8.9-5.3-19.5-10.5-10.8-5.4-14.2-7-27-12.5-4.1-1.8-9.3-4-11.5-5-10.3-4.4-43.6-17-45.1-17-1.2 0-21-10.2-22.4-11.6-2.6-2.6 1.5-1.7 18.9 4.2m195.2 13.5c22.9 11.5 40 23.9 48.9 35.4 2.2 2.8 4 5.5 4 5.9s-2.6-1.5-5.7-4.2c-11.3-9.6-22-15.6-36.1-20.2-10.3-3.3-13.9-3.7-16.6-1.7-1.6 1.2-1.4 1.8 2.2 8.7 2.1 4.1 6.2 11.8 9.2 17 11.9 21 23 49.4 26 66.5 1.3 7.1 1.8 8.6 5.1 16.2 2.4 5.5 2.4 7.5-.1 9.1-1.1.7-2 2.2-2 3.5 0 2.9-3.6 8.7-5.4 8.7-3.4 0-8.6-17.8-12.6-43.5-1.2-7.7-3.3-17.4-4.6-21.7-4.4-13.7-13.7-25-25.8-31-5.6-2.7-6.8-3.9-9.9-9.2-2-3.4-4.6-9.8-5.8-14.4-2.1-7.6-2.1-8.8-1-16.7.8-4.9 1.9-8.9 2.8-9.7 2.2-1.8 12.3-3.8 16.2-3.2 1.9.3 6.9 2.3 11.2 4.5m88.2 45.6c4.2 1.5 7.7 3 7.7 3.4 0 1.1-10.2 2.9-16.6 2.9H895l-3-6c-1.6-3.3-3-6.1-3-6.4 0-.6 11.8 2.8 21.3 6.1m-706.8-4.2c12.9 1.7 28.7 8.5 43.4 18.6 5.2 3.5 10.1 6.8 11 7.4 6.5 4.1 18.6 13.8 22 17.8 7.5 8.7 9.4 18.2 4.7 22.6l-2.4 2.3-.7-3.4c-1.7-7.6-7.3-15.2-17.5-23.3-12.1-9.7-42.9-29.5-55.3-35.6-11.8-5.8-16.6-8.8-12.2-7.6 1.1.3 4.3.9 7 1.2m577.7 6c22 5.6 28.8 8.1 32.8 12.3 1.9 2.1 5 4.9 6.9 6.4 1.8 1.6 3 2.9 2.5 3-.5 0-1.3.2-1.9.3-.5.1-5.6.5-11.2.9l-10.1.8-6.9-3.6c-7.2-3.8-21.3-15.3-25.1-20.5-1.2-1.7-2-3.1-1.7-3.1s6.9 1.6 14.7 3.5M888 854c-.6 1.1-1.5 2-2 2-1.4 0-1.2-2.7.3-3.3 2.3-1 2.8-.7 1.7 1.3"/><path d="M529.4 228.1c-1.6 1.8-1.9 3.6-1.8 10.8 0 7.5.5 9.9 3.7 18.1 2.1 5.2 4.2 10.3 4.7 11.2.6 1 1 2.7 1 3.8s.4 2.8.9 3.8c2.1 3.7 4.3 15.2 4.8 25.2.6 12.9-1.4 22.1-7.4 33.3-2 3.9-.7 4.8 4.7 3.5 5.9-1.4 6.9-2.5 3.7-3.7-3.8-1.5-3.3-3.4 1.6-6 2.3-1.3 7.1-5.2 10.7-8.6 10.2-9.8 20.6-17.2 31.8-22.6l10.3-5.1-.6-3.1c-1.3-5.8-13.5-22.7-24.5-33.8-13.8-13.8-33.8-28.9-38.4-28.9-2.1 0-4 .8-5.2 2.1m3.9 124.1c-2.8 3.1-5.5 8.9-8.2 17.3-1.7 5.4-2.1 8.9-1.9 15.4l.3 8.5 7 1.2c3.9.7 7.6 1.3 8.2 1.3.7.1 2.1-1.6 3.2-3.8 2.5-4.8 7.7-9.3 10-8.6 2.2.7 7.9-5.1 6.5-6.5-.7-.7-1.9-.4-3.6 1-2.8 2.1-6.3 2.6-7.3 1-.3-.6-2.7-1-5.3-1-3 0-6.1-.8-8.7-2.3-5.1-2.9-5.7-6.5-2.1-14.3 2.1-4.6 2.9-5.4 4-4.5s1.8.5 3.4-2.3c1.1-1.9 1.8-3.7 1.5-4-1.4-1.3-5.1-.5-7 1.6"/><path d="M545.6 350.8c-.2.4-.1 1.4.5 2.2 1.5 2.5 1 4.7-1.1 5.3-1.3.3-2 1.4-2 3 0 3.5 2.3 5 6.2 4.2 2.6-.6 3-.4 2.2.5-.7.7-2.8 1.4-4.7 1.7-3.3.4-3.7.2-6.2-4.1-2.8-4.8-4.5-5.2-4.5-1 0 3.9 1.8 6.4 5.7 8 3 1.3 3.7 1.3 5.2.1 2.3-2 4.7-1.1 2.8 1.2-2.4 2.8-2.8 5.1-1 5.8 1 .4 2.5-.4 4.2-2.4 1.4-1.7 3.4-3.3 4.4-3.6.9-.4 1.7-1.2 1.7-1.9 0-2.2-5.6-13.2-8.4-16.6-2.8-3.2-4.1-3.9-5-2.4"/></g></svg>