<svg xmlns="http://www.w3.org/2000/svg" width="1365.333" height="1365.333" preserveAspectRatio="xMidYMid meet" version="1.0" viewBox="0 0 1024 1024"><g fill="#000" stroke="none"><path d="M149.6 79.7c-.1.1-13.2.5-29.1.8-42.8.9-42.4.8-46.6 6.7-2.3 3.2-2.4 4-2.3 20.3.2 43.7.3 84.2.2 96-.1 20.6-.2 164.9 0 198.5v35.3c.1 13.9.4 21.3 1.2 22.2.7.9.8 1.5 0 2-.6.4-1 6-1.1 14.3-.1 7.5-.4 19.9-.8 27.5-.3 7.7-.3 14.1 0 14.3s.5 15.9.4 35 .1 36.6.5 38.8c.3 2.3.3 8.3 0 13.4-.5 8.8-.4 9.5 1.8 11.5l2.3 2.1 2.7-3.4c4.4-5.7 12.8-14.5 14.1-14.8 1.8-.4 8.8-5 9.6-6.2.4-.6-.1-2.1-1.2-3.3-1.7-2-1.8-3.4-1.3-14.7.4-6.9.3-13-.1-13.5-.9-1.3-.5-11.7.5-13.4.5-.7 1.5-1 2.3-.7 2.1.8 4.3-1.2 3.6-3.1-.4-1.1-.3-1.4.6-.9.6.4 3.3.7 5.9.7 6.8 0 10.2 1.5 10.3 4.8 0 1.4.2 3.5.4 4.5.2 1.1.6 7.4.9 14s1 12.4 1.5 12.9c1.4 1.4 8.3-1.2 8.8-3.4.5-1.9.6-1.9 1.9-.2 1.1 1.6 1.3 1.6 1.9.2.3-.8.3-4.2 0-7.5-.3-3.2-.7-8.2-.8-10.9l-.2-5 10.1-.2c9.1-.2 10.4 0 12 1.8 1.3 1.5 1.5 2 .4 1.7-1.5-.3-1.8 1.1-2 8.7-.3 7.4.1 8 5.9 8.3 7.6.5 8.1-.3 7.6-11-.3-4.9-.7-9.4-1.1-9.9-1.2-2 7.1-3.5 16.7-3 .7.1.9 2.4.4 7.3-.3 4-.2 8.6.3 10.3.9 2.9 1 3 6.6 2.7 7.1-.4 12.1-2.4 12.1-4.9 0-1.4.9-1.9 4.5-2.1 2.5-.1 5.2-.5 6-.9 2.9-1.2 3.9-1.1 4.4.4.4.8 1.1 1.1 1.8.6 2.2-1.3 4.1-.9 6.3 1.3 1.9 1.9 3 2.1 8.6 1.7 4.1-.3 6.8-1 7.6-1.9.7-1 1.3-1.2 1.8-.4.4.7 2.8.9 6.4.6 7.1-.6 13.1-3.8 13.1-6.9 0-3.3-2.6-9.9-4.2-11.1-1.1-.8.1-1.2 5-1.4 5.4-.2 7.1-.7 10.1-3.1 2-1.6 5.5-3.8 7.7-5 2.3-1.2 4.9-3 5.9-4.1s2.1-1.7 2.6-1.4c.4.2 4.8-.7 9.6-2.1 4.8-1.5 10.8-2.8 13.3-3.1 2.5-.2 6.3-.9 8.5-1.4 7.4-1.7 44.7-1.3 56 .6 6.3 1.1 20.2.5 26-1.1 3.3-.9 7.8-1.9 10-2.1 3.8-.5 7.5-2.7 7.5-4.6 0-.5-1.3-3.7-2.9-7.1-3.8-8-5.5-8.8-18.6-8.1-10.6.6-18.4.8-73 1.9-19.2.4-34.5 1.1-35.2 1.6-.6.6-1.4.6-1.7.1-.8-1.3-89.3-1.5-90.1-.2-.4.6-1.2.7-1.8.3-.7-.5-14.5-.9-30.7-.9-34.3-.2-74.1-1.2-78.6-2-4-.7-5.3-3.5-5-10.5.2-3-.1-5.9-.5-6.4-.5-.7 2.9-1 10.4-.8 39.3.9 103.4 1 115.2.2 7.7-.5 14.9-.9 16-.9s18.4.2 38.5.6c46.8.7 46.3.7 47.6-1.1 1-1.4 1.2-1.4 1.8 0 .5 1.3 2.2 1.6 8.8 1.5 4.6 0 16.2.2 26 .5 10.4.4 17.9.2 18.2-.3s-.3-2.1-1.4-3.5-2.6-4.2-3.2-6.3c-.7-2-2-3.8-2.8-3.9-.8-.2-3.1-.5-5-.8s-3.9-.2-4.6.4c-.8.7-1.2-1.2-1.3-7.3-.2-10.6-1.6-16.4-4.6-20-1.5-1.7-2.5-4.3-2.6-6.1-.2-9.1.4-17.3 1.3-18.4.5-.7.6-1.8.2-2.4-.5-.8-.3-.9.5-.5 1.8 1.2 5.1-2.3 5.1-5.3 0-1.4-.9-5-2-8-1.6-4-2.1-7.7-2.1-15.3 0-5.5.2-10.3.5-10.6s.1-1.1-.4-1.7c-.7-.8-.4-2 1.1-3.9 1.9-2.4 2-3.7 1.7-18.1-.3-17.8-.4-17.7 7.7-17.1 2.8.3 5.6.5 6.3.5.6.1 1.2 1.1 1.2 2.4s.3 2.7.8 3.1c.4.4.7 1.3.7 1.9 0 .8 3.3 1.3 10.4 1.4 6.2.1 12.3.9 14.9 1.8 5.2 1.7 7.2.8 7.2-3.2 0-3.3 2.9-13.1 4.1-13.8.5-.4.9-1.4.9-2.3s1.5-4.9 3.4-8.7c1.8-3.9 3.7-8.1 4.1-9.5s1.6-3.7 2.7-5.2c1-1.5 3-5.1 4.4-8s3.6-7.1 4.9-9.3c1.8-2.9 2.4-5.5 2.4-9.5 0-6-1.9-12.6-3.5-12.3-.6.1-1.2-.3-1.3-1s-.3-16.8-.5-35.9c-.2-25.4-.6-35.1-1.5-36.2-.7-.8-.8-1.7-.3-2 1-.6.9-77.7-.1-79.3-.4-.7-.3-1.4.3-1.8s.7-1.1.4-1.7c-.4-.6 2.2-.9 7.8-.7 4.6.2 9-.1 9.8-.6.8-.4 1.2-.4.7 0-.4.5 0 1.8.8 3.1 1.3 2 1.2 2.3-.2 2.8-1.2.5-1.3.9-.3 2.1.9 1.1 1 1.8.1 2.9-1.3 1.6-1.3 12.5.1 14.3.5.7.5 1.4-.2 1.8-.6.3-.7 1.2-.3 1.8 1 1.6 1.1 4.7.3 5.2-.6.3-.5 23.6 0 78.5v19.5c0 19.7.6 21.9 4.5 17.1 2.7-3.4 3.5-7.8 3.9-22.2.3-9 1.5-16.7 4.7-31.1.5-2.3.9-5.3.9-6.6s.9-4.2 2-6.4c2.1-4.5 2-1.5 2-55.8 0-45.1 0-45.2-3-49.3-4.1-5.5-9.8-6.4-38.5-6.2-12.1.1-38.8.2-59.4.4-34.3.2-37.4.4-38.3 2s-1.1 1.6-2.3-.1c-1.3-1.7-4.9-1.8-69.2-2-37.3-.1-74-.3-81.6-.5s-14-.2-14.1-.1m250.1 6.5c-.3.8-.6.5-.6-.6-.1-1.1.2-1.7.5-1.3.3.3.4 1.2.1 1.9m-220.7.3c.7.9.8 1.5.2 1.5-.5 0-1.2-.7-1.6-1.5-.3-.8-.4-1.5-.2-1.5s.9.7 1.6 1.5m-5.4 1.7c.5-.4.5-.3.1.3-1 1.1-5.7 1.5-5.7.4 0-1.2 2.4-1.7 3.6-.8.6.5 1.5.5 2 .1M309 93.5c1.1 1.3 1 1.4-.4.9-.9-.3-1.6-1-1.6-1.5 0-1.3.6-1.1 2 .6m-92.3 3.7c-.3.7-.5.2-.5-1.2s.2-1.9.5-1.3c.2.7.2 1.9 0 2.5M377.5 99c.3.5.1 1-.4 1-.6 0-1.1-.5-1.1-1 0-.6.2-1 .4-1 .3 0 .8.4 1.1 1m-217.2 2.5c-.3.9-.8 1.4-1 1.1-.3-.3-.2-.9.2-1.5.9-1.6 1.5-1.3.8.4M109 107c0 .5-.2 1-.4 1-.3 0-.8-.5-1.1-1-.3-.6-.1-1 .4-1 .6 0 1.1.4 1.1 1m18.3 1c-.5 1.9-2.3 2.9-2.3 1.2 0-.7 2-3.2 2.6-3.2.1 0 0 .9-.3 2M447 122c0 .5-.2 1-.4 1-.3 0-.8-.5-1.1-1-.3-.6-.1-1 .4-1 .6 0 1.1.4 1.1 1m-218.4 2.3c13.4.2 14.6.9 14.2 7.6l-.3 4.6h-14.3c-7.9 0-14.8-.3-15.4-.6-1.4-.9-1.8-7.1-.6-8.7.7-.8.7-1.7-.2-2.7-1-1.2-.7-1.4 2.2-.9 1.8.2 8.3.5 14.4.7m105.3 2.1c.9 1.1 1.5 7.2 1.2 13.6l-.1 3.5-14.7.2c-8.2 0-15.9.1-17.2.2-3.5.1-5.1-1.7-5.1-5.9 0-4.3-.8-5.4-2.7-3.8-1.1.8-1.2.7-.7-.6.3-.9 1.2-1.6 2-1.6.7 0 1.8-.9 2.4-2 1.6-3 4.3-3.7 16.1-4.5 5.7-.4 10.5-.8 10.6-.9.8-.6 7.4.8 8.2 1.8m64.1 1.9c.1 1.8.2 22.9.3 47 .2 35.2.5 43.9 1.5 44.6 1.1.7 1.1.9-.2 1.4s-1.5 2.5-1.1 13.4c.6 17 .6 30.3 0 31.2-.2.5-4.6.8-9.7.7l-9.3-.1.3-33.5c.1-18.4.3-33.7.3-34 .1-.3.3-16.7.5-36.5s.6-36.5.8-37c.2-.6 3.7-.9 8.5-.7l8.1.4zm-31.6.5c1.4 2.4 2.3 109.3 1 111.4-1 1.6-.6 8.9.6 10.3.8.9.8 1.5 0 2-.5.3-1 3.3-1 6.5s-.5 6.2-1.1 6.6c-1.7 1-14.2 1.1-15.6.1-.7-.5-1-1.9-.7-3.2s.2-2.5-.3-2.8-.8-5.5-.6-11.4.5-35.6.7-65.8c.2-30.3.4-55.2.5-55.5 0-.3 3.6-.3 7.8-.2 5.9.3 8 .8 8.7 2m-237.9.7c1.2.2 2.1 1.2 2.2 2.2 0 1 .3 5 .7 9 .4 4.5.2 7.4-.4 7.8-.5.3-7 .8-14.4 1-7.4.1-13.9.6-14.5 1-1.3.8-3.3-3.9-2.5-5.9.3-.8.1-2.4-.5-3.5-.7-1.3-.8-2.2-.1-2.6.5-.3.8-2.6.7-5-.2-3.3.1-4.5 1.3-4.9 1.7-.4 24.4.3 27.5.9m33.7.9c.2.5-.5 1-1.5 1.2-1.5.2-1.6 0-.6-1.2 1.2-1.5 1.5-1.5 2.1 0m35.3 11.6c.4.7.6 14 .4 50 0 .8.1 17.8.2 37.8.1 20.5-.3 36.8-.8 37.3-1.3 1.3-14.2 1.4-15.6 0-1.5-1.5-2.2-46.6-1.7-102.9l.2-23.2h8.4c4.5 0 8.5.4 8.9 1m-30.9 4.2c.1 1.3.2 7.7.4 14.3.1 8.2.7 12.6 1.6 14 1.7 2.4 1.8 3.6.2 3.2-.9-.1-1.3 1.5-1.5 5.3-.6 22.7-.7 33.6-.1 34.5.4.6.4 1.6 0 2.2s-.5 7.5-.2 15.3.2 14.4-.1 14.6c-.4.2-.7 2.5-.7 5.1 0 2.7-.8 6.7-1.7 9l-1.7 4.3H155c-5.2 0-8.2-.4-8.7-1.3-.4-.6-.9-5-1-9.7-.5-19.4-.3-109.9.3-111.4.5-1.3 2.3-1.6 10.8-1.6 9.8 0 10.1.1 10.2 2.2m62.5.1c12.7.3 16.9 1.3 15.4 3.8-.5.7-.8 2.9-.8 4.9.5 13.3.2 102.3-.3 106-.9 6.5-1.7 7-9.3 7-3.6-.1-7.7 0-9.1.1-4.7.5-9.1-1.1-10.1-3.8-.5-1.3-1.3-2.1-1.9-1.8-.5.3-1 .2-1-.4 0-.5.5-1.3 1-1.6.6-.4.9-2.2.5-4.2-.3-2 0-4.1.6-4.9.6-.7.7-1.8.3-2.5-.4-.6-.9-11.8-1.1-24.8-.6-33.4-.7-34.7-2.3-34.3-1.1.3-1.1 0-.1-1.1.8-1.1 1.3-8.1 1.6-22.4.3-11.4.5-21.2.5-21.6s.8-.3 1.9.2c1 .6 7.4 1.2 14.2 1.4m54.7 2.1c1.9 1.8 2.2 113.7.3 115.9-.6.8-.8 2.2-.5 3.2.6 1.5.4 1.5-1.3.4-2.4-1.5-5.8-.5-4.7 1.3.6 1 .5 1-.7.1-1.5-1.2-2.8-1.5-12.2-2.8-7.1-.9-7.8-3-7.7-21.3.2-34.5 0-41.6-.9-42.5-.7-.7-.7-1.5.2-2.5.9-1.1 1.2-8.4 1.1-27.9l-.1-26.3 12.6.6c8.3.3 13.1 1 13.9 1.8m43.4 4.2c8.6-.1 8.8.1 8.8 6.4 0 3.9-1.8 6.4-4.1 5.6-4-1.3-32-2.6-33.4-1.5-.6.5-1.1-1-1.2-4-.2-4.8-.1-4.8 3.8-6 2.2-.7 4.3-1 4.8-.7.4.3 2.1.2 3.7-.3 1.6-.4 4.5-.4 6.4-.1 1.9.4 7 .7 11.2.6m-195.6 9c1.3 1.6 1.1 3.7-.6 8.2-1.1 2.9-1.4 3.1-2.4 1.6-1-1.3-3.5-1.8-12.3-2.1-6.9-.3-11.3-.1-11.7.5-.9 1.5-5.7-1-5.1-2.6.3-.8.5-2.4.5-3.7 0-1.8.8-2.5 3.8-3.3 5.2-1.4 26.4-.4 27.8 1.4M402 168c0 .5-.5 1-1.1 1-.5 0-.7-.5-.4-1 .3-.6.8-1 1.1-1 .2 0 .4.4.4 1m-80.5 4.4c2.2.1 6.1.3 8.7.4 4.4.2 4.7.4 5.3 3.4.4 1.8.8 22 .8 45 0 31.8-.3 42.1-1.2 43.2-1.1 1.2-4.2 1.5-18.4 1.3l-17.2-.2-.1-9.5c-.3-38.1-.5-42.9-1.5-43.5-.7-.5-.7-1.1.1-2 1.1-1.3.7-20.6-.5-22.4-.3-.5-.1-1.2.4-1.5s.7-3.3.4-6.6c-.4-3.5-.1-6.5.5-7.2 1-1.2 6.7-1.3 22.7-.4m-191.7 9.7c1.7.7 2 1.8 2.1 10.1.1 5.1.1 10 0 10.8s-.2 15.4-.3 32.5l-.1 31H117c-8 0-15-.4-15.7-.8-.7-.5-1.8-.5-2.4-.1q-1.05.6-.6-.3c.4-.6.6-12.7.6-26.9s.1-27.6.1-29.7c.1-2.2-.5-4.5-1.1-5.3-1-1.2-1-1.5.2-1.2 1.6.3 1.9-3.5.9-11.3-.4-2.7-.4-5.2-.1-5.5.6-.5.7-.9 1-3.5.1-1.2 26.5-1 29.9.2M408 206.5c1.1 1.3 1 1.4-.4.9-.9-.3-1.6-1-1.6-1.5 0-1.3.6-1.1 2 .6m-324.3.1c-.3.3-1.2.4-1.9.1-.8-.3-.5-.6.6-.6 1.1-.1 1.7.2 1.3.5M208 222.9c0 .5-.7 1.2-1.6 1.5-1.4.5-1.5.4-.4-.9 1.4-1.7 2-1.9 2-.6M83.5 246c.3.5.1 1-.4 1-.6 0-1.1-.5-1.1-1 0-.6.2-1 .4-1 .3 0 .8.4 1.1 1m169 23.9c-.3.6-1.1 1.1-1.7 1.1s-.6-.6.2-1.5c1.4-1.7 2.6-1.3 1.5.4m-47.4 10.5c36.3-.8 80.7-.8 120.9.1 34.1.7 43.5.7 63 .1 9.1-.2 18.1-.1 20 .3 3.2.6 3.6 1.1 4.4 5.3 1 4.9-.5 10.7-2.8 10.9-.6 0-2.2.3-3.6.5-4 .7-40 1.3-72.5 1.3-56-.1-123.8 0-184.5.4-67.1.4-65.4.6-64.1-5.6.4-1.8.4-4.6 0-6.4-1.2-5.8-1.6-5.7 41.8-5.9 27.6-.1 39.8-.5 40.5-1.2.8-.8 1.5-.8 2.4-.1.8.6 12.5.7 34.5.3m81.9 26.5c0 .6-.4 1.2-.8 1.5-.5.3-.9-.1-.9-.9s.4-1.5.9-1.5c.4 0 .8.4.8.9m26 17.5c0 .3-.4.8-1 1.1-.5.3-1 .1-1-.4 0-.6.5-1.1 1-1.1.6 0 1 .2 1 .4m-69.2 4.7c3.4.1 6.5.5 6.7.9.7 1.2 1.5 26.8.9 28.3-.4 1.1-2.5 1.4-9.2 1.2-4.8-.1-9.2-.3-9.9-.4-1.5-.1-2.6-5.4-2.4-11.6.1-2.8.2-7.7.1-10.9 0-6.8 1-8.5 4.8-8.1 1.5.2 5.5.5 9 .6m-61.1 2.8c.7.1 1.3 2.9 1.7 7.3.6 8.8.5 5.4.2 28.3-.2 10.4.1 19.8.6 20.7.5 1 .4 1.9-.3 2.3-.7.5-.8 5.3-.5 14.9.4 7.7.7 26.2.8 41.1l.2 27-4.3.7c-2.4.4-5 1.3-5.8 1.9-1.1 1-1.4 1-1.1-.2.3-1.4-.4-1.6-6.4-1.8l-2.6-.1-.1-59.3c-.1-32.5-.2-62.4-.3-66.2 0-3.9.3-8.2.7-9.8.5-1.8.3-3.3-.6-4.4-.8-1-.9-1.4-.2-1 .6.4 1.5.2 1.8-.4.4-.5 2.2-.9 4-.7 1.9.1 3.7 0 4-.4.5-.5 2.2-.5 8.2.1m145.3 3.5c0 .3-.4.8-1 1.1-.5.3-1 .1-1-.4 0-.6.5-1.1 1-1.1.6 0 1 .2 1 .4m-54 2.5c0 .5-.7 1.2-1.6 1.5-1.4.5-1.5.4-.4-.9 1.4-1.7 2-1.9 2-.6m19.4 6.8c1 3.4.3 16.3-1 17.4s-24 .7-25.1-.5c-.8-.7-1.3-3.3-1.3-5.6 0-4.7.7-10 1.3-10.6 1.2-1.2 8.5-2.1 17.4-2.3 7-.1 8.2.2 8.7 1.6m93.9-1c-.7.2-1.9.2-2.5 0-.7-.3-.2-.5 1.2-.5s1.9.2 1.3.5m-236.9 2.2c.3.5.8 6.8 1.1 14 .6 15.3 1 14.6-10.4 15-7.2.2-8.5.7-7.4 2.4.3.7-.2.5-1.3-.4-1.6-1.4-4.2-1.7-16.2-1.5-13.1.1-14.5 0-15.4-1.7-.5-1-.7-2.9-.4-4 .3-1.2.1-3.9-.3-6-.6-2.3-.5-3.9.1-4.3s.6-1 0-1.6-.8-1.7-.5-2.4c.3-.8 0-2-.6-2.8-.9-1-.8-1.5.4-2 .8-.3 1.5-1.2 1.5-2.1 0-1.9-1.5-1.7 17.5-2.4 28.4-1.1 31.4-1.1 31.9-.2m188.2 13.5c.9 9.9.9 27.3.1 42.1-.3 6-.6 15.3-.6 20.5s.1 16.7.1 25.5c.1 18.1-.2 20.7-2.8 23.6-1.7 1.9-2.6 2.1-8.9 1.4-3.8-.4-8.7-.8-10.7-.9-7-.2-6.7 1.4-7.3-44.6-1-77-1.1-71.8 1.1-73.5 1.8-1.4 8.7-1.9 19-1.5 2.3.1 4.5-.3 4.8-.8.3-.6 1.5-.8 2.5-.5 1.7.4 2.1 1.8 2.7 8.7m-124.3.5c1.4.6 2.8 1.9 3.2 3.1s.6 22 .6 46.3c-.2 59.8-.2 60.6-1.7 62.2-.7.7-4.6 1.6-8.5 2-6.1.6-7.4.5-8.4-.9-1.3-1.7-2.9-15.2-2-16.6.4-.6.7-18.5.4-23 0-.8.2-11.4.6-23.5.3-12.1.6-23.6.5-25.5-.3-8.3 0-20.7.5-22.8.5-2 1.1-2.2 6.5-2.2 3.2 0 7 .4 8.3.9m37.4 11.3c.9.7.9 1.7.2 3.6-.6 1.5-.9 2.9-.7 3.2.5.8-14.3 1.2-17.9.5-3.1-.5-3.3-.9-3.3-4.5 0-2.1.6-4.1 1.3-4.4 1.9-.9 19 .5 20.4 1.6m35.6.5c.4.7 1.6 1.3 2.5 1.3 2.8 0 4.2 2.1 4.2 6.2v3.7l-12.2-.3c-6.8-.3-13-.7-13.9-1.1-2-.7-3.1-7.3-1.5-8.3.6-.4 4.2-.8 8-.9s7.3-.6 7.8-1.1c1.3-1.3 4.1-1 5.1.5m-175.2 14.9c.6.3 17.5.3 31.1 0l7.6-.2.7 5.4c.4 3 .4 5.6.1 5.9-.4.4-39.5.4-46.6-.1-3.8-.2-4.7-1.2-5.3-5.3-.7-6.2.5-7.4 6.6-6.7 2.9.4 5.5.8 5.8 1m138.6 1.2c1.1.7 1.9 20.5 2.5 63.7 0 .5 0 2.6-.1 4.5 0 1.9-.1 6.4-.1 9.9 0 3.6-.2 6.6-.4 6.8-.2.3-4.2.6-8.8.9-12.5.7-12 1.4-12.4-20.2-.9-41.6-1.1-63-.6-64.6.4-1.6 1.6-1.8 9.6-1.8 5 0 9.7.4 10.3.8m37.6 4.3 6.7-.1.1 7.2c.4 39.3.4 55.6-.1 63-.4 7.6-.8 9-2.8 10.4-1.2.8-1.9 2.1-1.5 2.7.3.7-.2.5-1.3-.4s-4.3-1.9-7.4-2.1-7.3-1.3-9.5-2.4c-4.5-2.2-5.2-4-6-15.4-.8-12.4-1.5-58.1-.9-60.6.7-2.9 2.4-3.3 9.9-2.7 3.3.2 9 .4 12.8.4M160.5 397c.3.5.2 1-.4 1-.5 0-1.3-.5-1.6-1-.3-.6-.2-1 .4-1 .5 0 1.3.4 1.6 1m-14.7 9.7c-.2.5.2.8.7.8.6 0 .9-.5.7-1-.2-.6.6-.1 1.8 1.1 2.3 2.3 2.3 2.1 3.4 47.6l.4 17.8-9.1.2c-23.8.5-41-.7-42.8-2.8-.9-1.1-1.2-6.2-1.1-17.2 0-8.6-.4-16.4-.9-17.4-.5-.9-.5-1.9-.1-2.2.5-.3 1-3.1 1.1-6.3.4-12.1.8-15.4 1.7-16.3.5-.5 10.4-1.1 21.9-1.2 19.4-.3 21-.4 20.7-2.1-.2-.9.2-1.7.8-1.7.5 0 .9.3.8.7m47.2 8.7c0 .3-.4.8-1 1.1-.5.3-1 .1-1-.4 0-.6.5-1.1 1-1.1.6 0 1 .2 1 .4m34.6 6.3c-.7.7-2.6-.7-2.6-1.9 0-.6.6-.6 1.5.2.9.7 1.3 1.5 1.1 1.7M76.5 428c.3.5.1 1-.4 1-.6 0-1.1-.5-1.1-1 0-.6.2-1 .4-1 .3 0 .8.4 1.1 1m19.9.6c.5 1.4.4 1.5-.9.4-1.7-1.4-1.9-2-.6-2 .5 0 1.2.7 1.5 1.6m97.3 5c-.3.3-1.2.4-1.9.1-.8-.3-.5-.6.6-.6 1.1-.1 1.7.2 1.3.5M355 484c0 .5-.2 1-.4 1-.3 0-.8-.5-1.1-1-.3-.6-.1-1 .4-1 .6 0 1.1.4 1.1 1m-114.7 28.4c.4 1 .1 1.3-.8.9-.8-.3-1.2-.9-.9-1.4.7-1.2 1.1-1.1 1.7.5m160.8 1.3c-1.2 2-1.4 1.4-.5-1.2.4-.9.9-1.4 1.1-1.1.3.2 0 1.3-.6 2.3m-299.9 1.8c1.6 1.9 1.5 2-.7 2-1.4 0-2-.4-1.5-.9s.6-1.6.3-2.5c-.4-.9-.4-1.4-.2-1.1s1.2 1.4 2.1 2.5m90.8 2c0 .1-.8.9-1.7 1.6-1 .7-1.5.9-1.1.5.4-.5.3-1.5-.3-2.2-.8-.9-.5-1.1 1-.7 1.2.3 2.1.7 2.1.8m123 1.5c0 .5-.2 1-.4 1-.3 0-.8-.5-1.1-1-.3-.6-.1-1 .4-1 .6 0 1.1.4 1.1 1m-140 2c0 .5-.2 1-.4 1-.3 0-.8-.5-1.1-1-.3-.6-.1-1 .4-1 .6 0 1.1.4 1.1 1m72 .4c0 .3-.4.8-1 1.1-.5.3-1 .1-1-.4 0-.6.5-1.1 1-1.1.6 0 1 .2 1 .4m50.3 1.1c.4.8.2 1.7-.2 2-.5.2-1.1-.4-1.4-1.5-.6-2.3.8-2.7 1.6-.5m-188.3 18c.7.9.8 1.5.2 1.5-.5 0-1.2-.7-1.6-1.5-.3-.8-.4-1.5-.2-1.5s.9.7 1.6 1.5m46.2.7c-.7.7-1.2.8-1.2.2 0-1.4 1.2-2.6 1.9-1.9.2.3-.1 1.1-.7 1.7m41.8 11.7c0 .4-.6.8-1.4.8s-1.2-.6-.9-1.4c.5-1.3 2.3-.9 2.3.6M98 564c0 .5-.2 1-.4 1-.3 0-.8-.5-1.1-1-.3-.6-.1-1 .4-1 .6 0 1.1.4 1.1 1m-21.9 9.7c-1.2 2-1.4 1.4-.5-1.2.4-.9.9-1.4 1.1-1.1.3.2 0 1.3-.6 2.3"/><path d="M217.6 198.9c-.4.5-.2 1.2.3 1.5.5.4 1.2.2 1.5-.3.4-.5.2-1.2-.3-1.5-.5-.4-1.2-.2-1.5.3m14.6 51.9c-.6 1.1-.4 3 .5 5.2 1.5 3.4 1.5 3.4 3.1 1.4 1-1.1 2.5-2.3 3.5-2.7 1.2-.4 1.7-1.5 1.5-2.9-.2-1.9-1-2.3-4-2.5-2.7-.2-4 .3-4.6 1.5m32.4-44.9c-.4.5-.2 1.2.3 1.5.5.4 1.2.2 1.5-.3.4-.5.2-1.2-.3-1.5-.5-.4-1.2-.2-1.5.3m9.6 10.7c-2.5 1.8-2.9 4.6-.7 6.4.8.7 1.5.9 1.5.5 0-.5.9 0 1.9.9 2.4 2.2 3.5.7 2.7-3.9q-1.35-6.9-5.4-3.9M271 244c-2.4 1.8-2.5 2-.8 4.7 1.9 3.1 4.4 3.7 4.2 1-.1-.9 1.1-2.6 2.7-3.8 1.6-1.1 2.7-2.5 2.4-3-1-1.6-5.9-1-8.5 1.1m45.1 117.3c-1 1.3-.9 1.7.8 2.6 2.4 1.4 3.5 0 1.8-2.3-1.2-1.6-1.4-1.6-2.6-.3m12 7.5c-1.8 3.3 2.9 5.8 5.7 3 .9-.9.8-1.6-.5-3-2.1-2.3-4-2.3-5.2 0m-11.5 10.1c-1 1.1-1.3 2.2-.8 2.5s1.7-.3 2.6-1.3c1-1.1 1.3-2.2.8-2.5s-1.7.3-2.6 1.3m9.1 9.9c-2 2.2-1.3 3.2 1.9 3.2 2.9 0 3.9-1.6 2.4-3.5-1.6-1.9-2.3-1.9-4.3.3m3.8 11.1c-.7 1.2 1.2 2.4 2.5 1.6 1.1-.7.4-2.5-1-2.5-.5 0-1.1.4-1.5.9m-.4 14.7-2.2 1.6 2.3 2.4c2.7 2.8 4.4 3 5.6.6 2-3.8-2.1-7.1-5.7-4.6m-9.8 10.8c-.4.8-1.1 1.5-1.5 1.5-.5.1-.8.4-.8.8 0 .5.3.8.8.9.4 0 1.6.4 2.6.9 1.4.6 2.3.3 3.3-1.1 1.2-1.6 1.1-2-.4-3.1-2.2-1.7-3-1.6-4 .1m8.3 8.5c-.4.5-.2 1.2.3 1.5.5.4 1.2.2 1.5-.3.4-.5.2-1.2-.3-1.5-.5-.4-1.2-.2-1.5.3m-10.4 9.7c-2.4 1.6-2.9 4.8-1.1 6 1.3.8 4.8-3.3 4.5-5.2-.3-2.2-1.1-2.4-3.4-.8m7 9.6c-1.7 1.7-1.5 5.7.3 6.4.8.3 2.8-.4 4.5-1.6 2.5-1.8 2.9-2.5 1.9-3.6-.7-.8-1.8-1.3-2.4-1-.7.2-1.7 0-2.2-.5s-1.4-.4-2.1.3m-54.1-53.9c-3.2 3.2.2 6 4.8 4.1 2.7-1.1 3.1-1.7 2.2-2.8-1.5-1.8-5.7-2.6-7-1.3m19.4 1.7c-.4.6-.4 1.4-.1 1.7s.1 1.2-.5 1.9q-.9 1.2 0 1.8c.5.4 1.2.2 1.6-.4.3-.5.3-1-.1-1-.3 0-.1-.7.6-1.5.9-1.1 1-1.9.3-2.6-.8-.8-1.3-.7-1.8.1m-9.9 9.9c-3.7 4.1.2 7.1 5.2 3.9 3.6-2.3 3.5-3.2-.7-4.6-2.4-.8-3.2-.7-4.5.7m-2.2 18.6c-1.9 1.3-1.9 1.4.1 2 1.1.4 2.8 1.1 3.7 1.6 1.9.9 3.4-.4 2.3-2.1-1.4-2.2-4.2-2.9-6.1-1.5m8.5 9.4c-2.2 1.8-2.3 2.1-.8 3.6 2.3 2.3 6 .5 5.2-2.5s-1.8-3.2-4.4-1.1M274 449.5c-1.7 2-.5 4.5 2 4.5 1.1 0 2.3-.7 2.6-1.5.6-1.5-1.1-4.5-2.6-4.5-.4 0-1.3.7-2 1.5m8.5 9.5c-.3.5-.3 2 .1 3.3.3 1.4.1 2.8-.6 3.2-.8.5-.8 1 .1 2.1 1.6 2 2.2 1.8 4.8-1.7 2.1-2.8 2.2-3.2.7-5.5-1.7-2.5-4-3.1-5.1-1.4"/><path d="M512.7 117c-3.4 1-9 6-17.6 15.4-7.7 8.5-11.4 14.2-14.1 21.4-1.7 4.5-1.8 5.7-.8 7 .8.9.8 1.3.2.9-1.6-.9-2.6.7-5.4 7.8-1.2 3.3-2.9 7.4-3.6 9.2-.8 1.7-1.4 3.7-1.4 4.5 0 .7-.9 3.1-2.1 5.2-1.1 2.1-1.8 4.1-1.5 4.4s.2 1-.4 1.7c-1.3 1.6-5 18.7-5 23.3 0 2.1-.4 4.2-.9 4.7-.5.6-1.2 2.8-1.5 5-1.7 12.4-2.4 21-2.6 29-.3 16-.6 18.5-3 21-1.4 1.5-1.9 2.8-1.4 3.7.6 1 .5 1.1-.7.1-1.1-.9-2-.5-4.3 1.8-2.4 2.4-2.7 3.1-1.6 4.4.8.9.8 1.5.2 1.5s-1.4-.5-1.8-1.1c-.8-1.3-2.2.2-9.3 10.6-3.8 5.6-13 22.8-13.7 25.5 0 .3-.6 1.8-1.2 3.3-.7 1.6-1.2 3-1.2 3.2 0 .3-1.3 3.3-2.9 6.9-4 8.6-10.3 27.7-9.7 29.3.3.7.1 1.5-.4 1.8-.6.4-1 3.9-1 8s-.4 8.5-1 9.9c-1 2.8-1.2 2.8-14 .1-3.6-.8-7.8-1.6-9.5-1.9-1.6-.2-5-.9-7.5-1.5-6.4-1.4-8.6-.9-8.2 2 .2 2.3.2 2.3-1.1.5-1.4-1.9-1.5-1.9-2.5.1-.6 1.1-.8 2.3-.5 2.7.3.3.6 2.1.5 4-.2 5.4 2.3 7.5 9.8 8.6 3.6.6 9.2 1.7 12.5 2.5 3.3.9 7.4 1.8 9 2.1 5.4.9 7.4 2.5 8 6.3.3 2 1 6.1 1.5 9.1 1.3 7.2.3 8-8.8 7.2-15-1.3-32.9-.5-35.4 1.6-2.2 1.9-2.3 3-.2 5.4 1.3 1.4 1.4 2.1.5 3.2-1.9 2.3 6.1 6.5 11.9 6.4 10.7-.3 28.7.5 30.7 1.3 2.3.8 6.7 6.8 7.7 10.4.7 2.6-1.6 5.6-4.6 6-13.1 1.6-22.8 5.1-25.5 9.1-1.6 2.5-1.6 2.8.8 7.2 2.7 5.3 5.5 6.4 10.9 4.6 1.9-.7 5.1-1.4 7-1.7s4.6-.9 6-1.4 4.7-1.1 7.3-1.2c4.5-.2 5.1.1 8.8 4.1 2.2 2.4 4.5 4.2 5.2 4s.9-.1.5.3.2 2.1 1.3 3.8c3 5.1 25.6 28.2 30.5 31.3 2.4 1.5 4.4 3.1 4.4 3.6 0 .4-1.7 1-3.7 1.3-5.9 1-11.7 2.2-27.3 5.9-14.8 3.6-19 4.5-22.5 5.3-3.6.9-29.9.9-33.5.1-1.9-.5-8.6-1.1-14.8-1.4-10.1-.6-11.5-.5-13.3 1.2-1.5 1.3-2 1.4-1.7.4.4-1.6-5.9-1.6-15.7 0-3.3.6-7.5 1.3-9.4 1.5-1.8.3-3.8.8-4.4 1.2-.6.3-2.3.7-3.8.8-3.7.3-12.1 4.4-11.3 5.6.3.5-.2.9-1 .9-.9 0-2.4.8-3.4 1.7-.9 1-4.1 3.5-6.9 5.6-6.2 4.5-9.8 9.3-15.4 20.4-1.3 2.4-4.7 2.5-7.3.4-1.2-1-2.1-1-4.6.2-1.6.9-3.2 1.2-3.5.8-.5-1-5.5-.2-7.2 1.1-.7.6-1.4.5-1.8-.2-.5-.8-2.3-1-5.4-.5-2.5.3-9.5.9-15.6 1.2-6 .3-11.4.8-12 1.2-.5.4-3.5.9-6.5 1s-7.3.6-9.5 1.1-6.1 1-8.7 1-5 .5-5.3 1c-.5.8-1.1.7-2.1-.1-.7-.6-2.2-.8-3.1-.4-1 .4-5.3.8-9.5 1-8.9.4-10.5.9-8.6 3.3.7 1 .9 1.4.4 1s-1.7-.3-2.8.3c-1.6.9-1.9.7-1.6-.8.2-1.4-.4-1.8-2.6-1.9-5-.2-25.8 6-29.1 8.6-.5.4-2.5 1.1-4.2 1.5-1.8.3-3.5 1.1-3.9 1.6-.3.5-3.3 2.3-6.6 4-8.7 4.4-22.2 18.2-27.1 27.7-5.5 10.8-8.2 22.4-8.2 35.7 0 8.5.4 11.8 1.8 14.7.9 2 2 5.1 2.3 7 1.1 6.1 8.4 19.4 14.1 25.7l5.5 6.2.4 12.7c.8 32.2 2 63 2.8 73.2.2 3.6.7 12.1 1.1 19 .3 6.9 1.1 14.8 1.6 17.7 1.7 8.7 7.1 14.2 18.2 18.2 1.5.6 2.8 1.6 2.8 2.3.1.7.3 2.6.4 4.3.5 7.6 2.8 21.6 4.2 25.5.3.8.6 2.8.8 4.5.4 4.7 2.3 8.7 3.7 7.9 1-.6 1-.5.1.8-1.4 1.6 0 3.4 4.2 5.6 5.4 2.8 46.5 4.1 52.7 1.7 2.8-1.1 7.6-10.4 10.7-20.9 3.6-12.3 4.7-13.6 11.5-13.1 2.8.2 5.8.6 6.6.9 1.8.7 33.3 5.3 45 6.6 10.5 1.1 29 3.8 35 5 13.8 2.8 18.5 3.1 18.5 1 0-.8-.9-1.7-2.1-2-5.2-1.3-16.9-9.8-23.8-17.1l-7.4-7.9-10.7-.5c-5.9-.3-11.1-.8-11.7-1.1-2-1.3-24.3-4.2-25.2-3.3-.5.5-1.4.2-2.1-.7-.7-1-3.8-1.9-9.1-2.5-17.5-1.9-26.7-3.5-29.1-4.9-1-.7-2.6-2.5-3.5-3.9-1.2-2.3-1.3-3.1-.2-4.5.7-1 1.1-2.3.8-3s-.1-2.3.4-3.7c.7-1.7.5-3.2-.5-5.2s-1.1-3.2-.3-4.7c1-1.8.7-2.4-1.2-2.1-.4 0-.5-.6-.2-1.3.6-1.5-2.1-3.4-5.6-4.1-2.1-.4-4.6 2.1-4.8 5-.3 3-.7 4.9-1.4 6.1-.4.6-.9 4.5-1.2 8.7-.2 4.2-.7 8-1 8.6-.3.5-2.1.6-4.3.1-2.1-.5-6.1-.8-8.9-.8-4.5 0-13.4-1.8-33.1-6.8-6.8-1.7-9.2-3.7-9.8-8-.2-1.6-.4-2.9-.5-2.9s-.8-14-1.5-31c-1.2-29.4-1.7-38-2.5-38.8-.4-.5-.4-2.5.1-4.5s.6-6.2.3-9.2c-.7-6.5-.7-6.5-.1-24.5.6-15.8.6-15.9-6.9-19.5-3.3-1.6-4.9-3.3-6.8-7.3-1.4-2.8-2.6-5.8-2.6-6.6-.1-3.4-5-15.6-6.1-15.3-.9.2-.9-.1 0-1.2.7-.9 1.2-4.6 1.2-9.5 0-10.6 1.3-18.1 4.2-24.4 2.4-5.2 8.4-12.7 10.2-12.7.5 0 1.9-1 3.1-2.1 1.3-1.2 4.7-2.7 7.6-3.4s5.2-1.6 5.1-2.1 3.3-.9 7.5-.8c4.3.1 8.3-.4 9.1-1 1.1-.8 1.3-.8.8.1-.4.6-.3 1.4.2 1.8.5.3 1.5-.3 2.1-1.2 1-1.7 1-1.7.8.2-.2 1.6.6 2.2 4.2 3 2.5.6 5.4 1.5 6.5 2 3.7 1.6 10.4 7.8 11.6 10.7.6 1.6 2.8 4.3 4.9 6.1 3.6 3.1 4.8 6.1 5.5 14 .2 1.6.8 3.4 1.3 3.9.8.8.8 1.7.1 3-1.6 3-.3 6.4 3.5 9.3 3.9 3 7.9 2.6 9.8-.9 1.9-3.3 1.6-17.5-.4-21.6-.9-1.9-2.6-6.2-3.8-9.5s-3.2-7.1-4.4-8.5c-1.3-1.4-3.1-3.7-4-5.2-2.1-3.2-13.5-11-19.6-13.4-6.6-2.5-7.7-3.6-4.8-4.7 1.2-.5 4.1-1 6.3-1.2 2.2-.1 6.5-.7 9.5-1.4s9.8-1.4 15-1.6c12.6-.5 17.7-1.6 16.5-3.5-.3-.5-.1-1.2.5-1.5.6-.4.9-.3.8.2-.2.4.2.8.7.8s.9-.3.8-.8c-.5-1.3 1.4-.7 2.8.9 1.4 1.7 8.1 1.5 22.9-.6 8.6-1.3 15.9-2 25.1-2.4 8.9-.4 9.1-.3 10.9 9.9.7 4.2 1.7 6.5 3.3 7.7 1.2 1 1.9 1.8 1.4 1.8-1.6 0 2.3 5.8 6 8.9 2.1 1.8 5.2 4.5 6.8 6 3.1 2.9 7.5 5.7 8.6 5.3.4 0 .2.9-.4 2.2-.9 2-2.4 2.6-8.1 3.5-4 .7-9.9 2.7-14 4.7-8.5 4.3-9.8 5.3-9.2 7 .3.8 0 1.1-.8.8-1.8-.7-13.9 12.4-13.2 14.3.3.8.2 1.1-.4.8-.5-.3-1.7.7-2.6 2.2-1 1.5-3.2 5.1-5.1 7.8-1.8 2.8-3.3 5.6-3.3 6.3s-.4 2-.9 3c-.5.9-1.4 2.8-2 4.2l-1.2 2.6-4.2-4.1c-2.5-2.4-6.1-4.6-8.7-5.4-2.5-.7-5-1.7-5.7-2.3-.6-.5-2.6-1.1-4.4-1.3-1.7-.3-4.6-.9-6.3-1.4-5.9-1.9-31.1-3.5-33.1-2.1-.5.4-2.8 1.3-5 2-4.2 1.3-10.2 4.3-14.6 7.3-3.6 2.4-14.2 14.6-14.4 16.6-.1.9-1.2 3.8-2.4 6.6-5.4 12-6.4 17.6-4.7 27.5.5 2.5.8 5.3.8 6.2-.1 1 .4 2 .9 2.3.5.4.7 1.1.3 1.6-.3.5.2 2.2 1.2 3.7s1.9 3.5 2.1 4.5c.2.9 1.5 3.6 3 6 1.5 2.3 3.6 5.8 4.6 7.7 1.1 1.9 3 4.6 4.3 6.1 1.3 1.4 2.4 3 2.4 3.6 0 1.6 13 13.4 14.1 12.8.5-.4.9 0 .9.8 0 .7 3.5 3.9 7.8 6.9 4.2 3.1 8.6 6.5 9.6 7.7 1.1 1.1 2.4 2.1 3.1 2.1.6 0 1.6.5 2.3 1.2.6.6 1.7 1.3 2.4 1.4s4 1.8 7.2 3.8c3.3 2 6.7 3.6 7.6 3.6s2 .4 2.5.9c1.3 1.2 16.2 6.7 26 9.6 16.4 4.9 33.3 6 43.9 3 2.7-.8 5.2-1.3 5.6-1 .7.5 3.5 15.2 3.2 17.1-.1.6 2 3.5 4.8 6.4 2.7 2.9 5 5.7 5 6 0 1.9 6.8 8.9 12.8 13.1 10.4 7.5 14.2 9.4 16.4 8 1.4-.9 1.8-.8 1.8.4 0 2.3 3.2 3.3 22 7.1 9.1 1.8 33.2 1 36.6-1.1 1.2-.8 2.5-1 3-.5 2.3 2.2 16.3-2.5 31.9-10.7 4.7-2.5 11.4-9.4 14-14.3 1.2-2.5 3.3-5.4 4.5-6.5 2.4-2.2 6-8.6 6-10.7 0-1.9 4.9-17.4 7.8-24.4 2.1-5.1 4.8-8.4 14.8-18.8 10.2-10.4 12.8-12.6 15.2-12.6 1.6 0 3.5.7 4.3 1.6 1.3 1.6 6.9 4.8 6.9 4 0-.3 1.3-.1 2.9.4 2.2.6 3.3.4 4.2-.7 1.8-2 8.4-5.3 10.9-5.3 1.2 0 3-.5 4.1-1.1 1.1-.5 4.6-1.5 7.7-2 3.1-.6 9.5-1.7 14.2-2.5s11.4-1.7 15-2c3.6-.4 7.5-1.2 8.6-1.9 1.5-1 2.4-1.1 3.2-.3 1.3 1.3 15.3 1.1 16.5-.1.5-.5 2.1-.3 3.5.4 1.5.7 6.1 1.6 10.2 1.9 4.1.4 9.3 1.1 11.5 1.6s5.1 1.1 6.5 1.4 3.1 1.5 3.8 2.7c3 4.8 2 23.1-1.4 25.6-1.6 1.2-5.1 1.1-20.4-.2-13.2-1.2-16.5-1.3-17.7-.3-.9.7-1.7.7-2.6 0-.7-.7-6.8-1.4-13.5-1.6-6.7-.3-12.7-.8-13.2-1.1-.6-.4-8.9-.8-18.3-1-9.5-.2-18.5-.8-20-1.4-1.4-.6-5.2-1.3-8.4-1.6-3.2-.4-7.5-1-9.6-1.5-2.2-.5-3.9-.4-4.3.2-.3.5-1.1.5-1.7 0-1.7-1.2-5.5-1.3-6.3-.1-.3.6.3 1.9 1.5 3 2.8 2.6 2.7 3.3-.2 1.4-2.5-1.6-3.7-1.2-3.7 1.4 0 2.1 5.6 7.1 7.9 7.1.9 0 2.1.4 2.7 1 .5.5 4.1 1.2 7.9 1.4 3.9.3 9.7 1 13 1.6 3.3.5 8.7 1 12 .9 3.3 0 13.9 1 23.5 2.4 12.5 1.8 23.9 2.7 39.8 3.1 15.8.4 23.9 1.1 28 2.2l5.8 1.6-.3 19.2c-.1 10.5-.5 22.2-.8 26.1-.3 3.8-.7 10-1 13.8-.2 3.7-.6 7.1-1 7.6-.3.5-.1 2.1.5 3.6l1 2.7-8.7-.5c-4.9-.3-11-1-13.8-1.5-4.3-.9-14.6-1.8-31.3-2.7-2.3-.1-4.6-.5-4.9-.9-.3-.3-1.9-.6-3.4-.6s-4-.5-5.5-1c-1.5-.6-7.5-1.2-13.3-1.4-5.8-.1-11.5-.7-12.6-1.2-1.1-.6-6.3-.9-11.5-.8-5.2.2-10.8-.1-12.5-.6-1.6-.5-5.7-1.2-9-1.5s-9.5-1-13.8-1.5-8.1-.9-8.5-.8-2.3-.2-4.2-.5c-3.5-.7-5.6-1-18.5-2.7-3.8-.5-8.4-1.3-10.1-1.9-2.4-.7-4.1-.5-7 .9-11 4.9-15.4 7.2-15.4 8.2 0 .7-.5.6-1.4-.1s-1.7-.8-2-.2c-.3.5-3.8 1.5-7.7 2.2s-7.3 1.8-7.6 2.5c-.2.7-1.1 1-1.8.8-.7-.3-1.6-.1-1.9.4-1.1 1.7 2.4 3.5 6.7 3.4 2.3 0 9 .6 14.9 1.4s11.3 1.4 12 1.3 2 0 2.8.4c1.7.6 7.8 1.7 13.5 2.3 5.9.6 10.2 1.1 18.3 2.3 4 .6 10.5 1.3 14.4 1.6 4 .3 8 .8 9 1.1 1.1.3 2.5.1 3.2-.5 1-.8 1.7-.7 2.6.4.7.8 2.7 1.5 4.4 1.5s4.7.5 6.6 1c1.9.6 5.8 1.2 8.5 1.4 2.8.3 9.9 1 15.9 1.6 5.9.6 11.1.9 11.4.6s1-.1 1.7.4c.6.5 4.1 1.2 7.6 1.5 8.7.8 36.8 3.8 46.9 5 1.9.3 5.3.7 7.5 1 2.2.2 6.9.7 10.5 1s9.1.9 12.2 1.4q5.7.75 6.9-.3c.9-.8 1-.8.5.2-.5.7.2 1.5 1.6 2.1 3.3 1.3 4.5 3 5.1 7.6 1.2 9 6.2 26.8 8.8 31.7 1.8 3.3 5.4 4.7 14.9 5.8 9.3 1.1 11.4 1.2 29.5.7 17.3-.5 22.8-3.6 26.1-14.3.8-2.6 1.9-5.3 2.4-6 .6-.6 2.4-6.3 4-12.6 2.1-8.6 2.6-11.7 1.7-12.8-.6-.8-.7-1.2-.2-.7.4.4 1.6 0 2.6-.9 1.7-1.5 8-3.6 25.4-8.5 3.9-1.1 8.4-2.6 10-3.4 1.7-.7 5.7-2.1 9-3s12.3-3.6 20-6 16.9-5.1 20.5-6.1c3.6-.9 8.6-2.8 11.2-4.1 2.6-1.2 5.4-2.3 6.3-2.3s1.8-.6 2.1-1.4 1.3-1.2 2.5-.9c1 .3 2.6-.1 3.5-.8 2.1-1.7 8.2-3.9 11.2-3.9 1.4 0 2.2.6 2.2 1.7 0 2.3 6.6 14.1 10.3 18.3 1.7 1.9 4.2 3.9 5.6 4.3 4.1 1.3 32.7.7 40.6-.8 6-1.1 12.5-11.3 15-23.4 2.2-10.7 2.5-12.3 3.1-19.6.4-3.9.9-7.5 1.3-8.2.3-.6 2.8-2.6 5.6-4.5 7.5-5 9.2-10.3 11.1-33.7.8-10.2 1.7-19.7 1.8-21.1.2-1.4.7-7.5 1.1-13.5.4-6.1.9-11.2 1-11.5.4-.6 1.3-12.6 1.9-23.5.6-10.3 1.8-19.9 2.8-21.9.6-1 4.6-5.3 8.9-9.7 4.4-4.3 7.9-8.1 7.7-8.6-.1-.4 1-3.3 2.5-6.4 3-6.4 5.3-13.1 6.1-17.4.2-1.7.9-5.3 1.5-8 1-5.2 0-20.8-1.8-27.5-3.3-12.6-8.2-22.3-15.6-31.4-2.4-3-4.1-5.7-3.8-6 1-.9 5.2-17.8 5.3-20.7 0-1.4-.6-3.1-1.2-3.8-1.1-1-1-1.2.2-.9 1.1.2 2-1.9 3.6-8.7 2.7-11.4 5.1-24.5 6.4-36 1.9-16.3 2.2-18 3.1-19.8 1.6-2.9 2.8-15 1.6-16.5-.8-1-.7-1.2.3-1 1.4.3 3.4-8.7 6-26.2.5-3.6 1.4-9 2-12s1.7-9.3 2.4-14c.8-4.7 1.9-11.2 2.5-14.5 1-6 1.4-10 3-35 .9-13.7.8-14.4-.3-21.5-1.1-6.9-8.3-23.6-11.5-26.4-1.2-1.1-2.1-2.5-2.1-3.2 0-1.7-9.7-12.1-14-15-1.9-1.3-5.1-3.4-7-4.7-7.5-5-17.6-10-25.9-12.7-8.5-2.8-27.2-7.7-30.1-7.8-.8 0-5-.4-9.4-.7-9-.8-11.6.1-14.6 5-3.2 5.2 0 11.8 5.9 12.3 4.5.3 29.1 6 33.3 7.7 2.2.9 4 1.1 4.3.5.3-.5 1.4-.1 2.4.9 1.1 1.1 3.4 2.2 5.2 2.6 1.9.4 4.1 1.3 4.9 1.9s3.1 1.9 5.1 2.8c2.8 1.3 3.9 1.4 4.8.5s1.1-.8.6.4c-.4 1.2.4 2.3 2.7 3.7 6.2 3.9 18.8 18.4 18.8 21.6 0 .7.7 3.3 1.6 5.7.8 2.4 1.7 6.1 2 8.2s.9 5 1.5 6.5c.9 2.4 1.3 28.8.5 35.7-1 8.4-2.8 21.3-3.2 23.1-.3 1.2 0 2.5.6 2.9.8.5.7 1.2-.4 2.4-.8.9-1.9 4.1-2.4 7.1-.6 3-1.9 11.1-3.1 18-3.7 22-5.2 30.4-6.2 35-.6 2.5-1.3 6-1.5 7.9-.3 1.9-.7 3.7-1 4.2-.8 1.4-9.4 52.9-10.8 65.1-.2 2-1.7 5.3-3.2 7.3-2.7 3.6-2.7 3.6-8.3 2.8-6.5-.8-31.5-.7-38 .2-2.8.4-4.1.3-3.7-.4.4-.5.2-1.2-.3-1.6-.6-.3-.4-2.2.5-4.8.9-2.3 1.7-7.5 1.9-11.6.2-4 .7-7.6 1-7.9s.5-1.7.5-3.2.3-3 .8-3.4c1.3-1.4 3.1-24 1.9-25.4-.8-1-.7-1.2.2-1 1.6.4 2.4-2.9 1-3.8-.6-.3-.5-1.1.2-2 .6-.7.9-2 .6-2.8-.3-.7-.2-1.7.3-2.2 1.5-1.7 3.1-11.6 2-12.9-.6-.8-.6-1.5.2-2.3.7-.7 1.3-1.7 1.4-2.4 2.6-14 3.4-23.1 2.3-24.4-1-1.2-1-1.5.2-1.2 1.4.3 1.6-.4 3.8-17.2 1.3-9.5 5.2-27.9 8.3-38.3 1-3.8 1.7-7.5 1.4-8.3-.3-.7-.1-1.6.5-2 .6-.3.8-1.2.5-2s0-1.3.6-1.1c.6.1 2.7-4.5 4.8-10.3 4.2-11.9 10.1-23.6 16.6-32.8 6.2-8.9 6-16.1-.5-14.3-1.4.5-3 .7-3.6.5-.5-.2-2.7.9-4.9 2.4-8.4 5.9-27.7 47.9-29.6 64.7-.5 3.8-2 10.1-3.3 14-1.4 3.8-2.8 9-3 11.5-.3 2.5-1 7-1.6 10-.6 3.1-1.1 6.7-1.1 8 0 1.4-.4 5.2-.9 8.5-.7 4.2-.7 6.3.1 7.3.9 1 .8 1.2-.3 1-.9-.2-1.5.8-1.7 3.2-.2 1.9-.7 3.9-1.1 4.5-.4.5-.9 3-1 5.5s-.8 8.4-1.6 13.1-1.5 10.5-1.6 13c0 2.4-.7 6.4-1.4 8.9-.8 2.5-1.7 7.6-2 11.5-.4 3.8-1 7.6-1.4 8.5-1.3 2.5-2 10-1 10.6.6.4.6 1 .1 1.7-.6.7-1.2 4.1-1.6 7.7-.6 7.4-2.2 17.4-3.2 20.8-.6 2.2-2.6 3.3-11.7 7.1-1.8.7-2.6 1.5-2.1 2.4.6.8.3.8-.9-.1-1.4-1.2-2-1.1-4.3.7-2 1.6-3 1.8-4 1-.7-.6-1.7-.8-2.2-.5-1.5.9-6.1-3.2-8.2-7.5-1.1-2.1-2.6-3.9-3.2-3.9-.7 0-.4-.6.6-1.3 1.4-1 1.7-2.3 1.3-6.7-.7-7 .2-8.5 8.9-16.3 11.7-10.3 20.2-20.6 18.9-22.8-.4-.6-.1-1.5.6-2 .8-.4 1.4-1.2 1.4-1.6.1-.4.6-1.7 1.2-2.8 2.4-4.3 4.5-21.2 4-32.7-.8-21.7-5-32.6-17.4-45.8l-7.4-7.9 1.6-4.8c.9-2.6 2-5.2 2.5-5.8.8-1 1.8-5.9 4.1-20.5 2.4-15.1 1.5-61.1-1.3-67.9-.6-1.4-1.2-2.8-1.3-3.1s-.7-1.8-1.4-3.5c-1-2.5-.9-4.2.9-11 1.2-4.4 2.9-9.4 3.7-11.1.8-1.8 1.6-4.8 1.7-6.7.2-2 .8-4.2 1.4-4.9.6-.8 1.1-2.3 1.1-3.3-.1-2.1 2.5-13.9 4-19 .5-1.6 1.2-4.8 1.6-7 .3-2.2.8-5.6 1.1-7.5s.7-6 1-9c.2-3 .8-9.6 1.4-14.6.6-4.9 1.1-10.6 1.1-12.5s.2-13.3.4-25.4 0-24-.5-26.5-1.6-9.5-2.4-15.7c-1.8-13.5-4.7-23.4-8.9-30.4-4.5-7.4-6.8-8.7-15.9-9.2-12.6-.6-22.9 1.3-31.9 5.9-2.5 1.3-8.2 3.7-12.7 5.3-9.4 3.5-29.5 13.1-34.7 16.7-2 1.3-3.9 2.4-4.4 2.4-.4 0-1.6.9-2.6 2s-2.2 2-2.7 2c-2 0-27.7 19.4-29.5 22.3-.5.7-2.7 2.9-5 4.9l-4.2 3.7-3.8-1.5c-2.1-.9-5.6-2.4-7.8-3.4-8.4-3.7-28.7-7.6-50.5-9.6-3-.3-6.8-1-8.5-1.4-1.6-.5-10.9-1.2-20.5-1.5-12.3-.4-17.6-.9-17.9-1.8-.2-.7-2.2-3-4.4-5.2s-5.6-5.9-7.5-8.3c-2.1-2.6-4.1-4.1-4.9-3.8-.8.4-1.1.1-.8-.5.4-.6-2.2-4.1-5.6-7.8-3.5-3.7-8.4-8.9-10.9-11.7-7.9-8.8-23.4-21.3-36.9-29.6-13.5-8.5-18.2-9.9-25.4-7.8m8.2 41.6c6.9 6.2 10.1 11.2 14 21.4 1.8 4.7 5 12.4 7.2 17.3 2.1 4.8 3.9 9.3 3.9 10.1 0 1.5-4.2 4.9-9 7.4-8.1 4.3-22.4 12.8-33 19.7-12.4 8.1-14.2 9.6-13.6 11.2.5 1.2.3 1.3-.6.5-.9-.7-2-.6-3.8.3-3.8 2.2-5 1.8-5-1.5 0-4 2.9-20.6 4.2-23.9.5-1.4 1.2-4.7 1.4-7.3.3-2.6 2.2-9.8 4.3-16s5.5-16.2 7.5-22.2 3.5-11.3 3.3-11.9 1.5-3 3.7-5.4c5.4-6 8.6-5.9 15.5.3m55.2 7.1c1.3 1.5 1.2 1.5-.8.4-2.4-1.2-2.9-2.1-1.4-2.1.5 0 1.5.7 2.2 1.7m264.5 25.8c2.7 4.2 4.4 17.8 4.4 36.2.1 10.6.5 17.5 1.1 17.9s.5 1-.5 1.7c-1 .9-1.6 3.8-1.9 9.9-.3 4.8-.7 9-1 9.5-.6 1-1.5 5.6-2.1 10.3-1.6 12.3-2.8 18.4-5.1 24.5-1.5 3.9-3 7.3-3.3 7.7-1.8 1.9-5.4-.9-9.3-7.1-8.3-13.2-10.6-16.1-21.9-28.7-13.7-15.2-20.8-22.4-22.3-22.4-1.3 0-11.7-10-11.7-11.3 0-1.5 14.4-16.6 15.3-16 .4.3 1.1-.4 1.4-1.6s1.1-2.1 1.7-2.1c.7 0 3.3-2 5.9-4.4 5.4-5.2 15.2-12.6 16.7-12.6.5 0 1.8-.8 2.8-1.8 1-.9 3.1-2.4 4.6-3.2 1.6-.8 4.2-2.7 5.8-4.2 3-2.8 8.1-4.5 14-4.7 3-.1 4.1.4 5.4 2.4m-81.6 7c.7.9.8 1.5.2 1.5-.5 0-1.2-.7-1.6-1.5-.3-.8-.4-1.5-.2-1.5s.9.7 1.6 1.5m-130.6 4.4c0 1.4-.5 2.4-1 2.2s-1.7-.6-2.6-.9c-1-.2-1.8-.9-1.8-1.4s.8-.8 1.8-.6c.9.2 1.6-.2 1.5-.8s.4-1.1 1-1.1c.7 0 1.2 1.2 1.1 2.6m5.6 2.1c0 .5-.4 1-1 1-.5 0-1-.5-1-1 0-.6.5-1 1-1 .6 0 1 .4 1 1m93 6c0 .5-.8 1-1.7 1-1.5 0-1.6-.2-.3-1 1.9-1.2 2-1.2 2 0m-123.6 4.6c.3.8.2 1.2-.4.9s-1-1-1-1.6c0-1.4.7-1.1 1.4.7m-32.4.4c0 .5-.5 1-1.1 1-.5 0-.7-.5-.4-1 .3-.6.8-1 1.1-1 .2 0 .4.4.4 1m76.5 5c.3.6-.1.7-.9.4-1.8-.7-2.1-1.4-.7-1.4.6 0 1.3.4 1.6 1m-60.5 2c0 .5-.4 1-1 1-.5 0-1-.5-1-1 0-.6.5-1 1-1 .6 0 1 .4 1 1m39.5.8c-.3.3-1.1 0-1.8-.7-.9-1-.8-1.1.6-.5 1 .3 1.5.9 1.2 1.2m5.9-.9c1.1.4 1.5 1 1 1.3-.5.4-1.8 0-2.9-.8-2-1.5-1.2-1.7 1.9-.5M524.5 228c.3.5.1 1-.4 1-.6 0-1.1-.5-1.1-1 0-.6.2-1 .4-1 .3 0 .8.4 1.1 1m30.6 1.7c1.3 1.6 1.2 1.7-.3.4-1-.7-1.8-1.5-1.8-1.7 0-.8.8-.3 2.1 1.3m36.9-.3c0 .3-.4.8-1 1.1-.5.3-1 .1-1-.4 0-.6.5-1.1 1-1.1.6 0 1 .2 1 .4m174 3.1c.7.9.8 1.5.2 1.5-.5 0-1.2-.7-1.6-1.5-.3-.8-.4-1.5-.2-1.5s.9.7 1.6 1.5m-38 1.5c0 .5-.2 1-.4 1-.3 0-.8-.5-1.1-1-.3-.6-.1-1 .4-1 .6 0 1.1.4 1.1 1m-203 3.4c0 .3-.4.8-1 1.1-.5.3-1 .1-1-.4 0-.6.5-1.1 1-1.1.6 0 1 .2 1 .4m37 1.6c0 .5-.2 1-.4 1-.3 0-.8-.5-1.1-1-.3-.6-.1-1 .4-1 .6 0 1.1.4 1.1 1m34.5 2c.3.5.1 1-.4 1-.6 0-1.1-.5-1.1-1 0-.6.2-1 .4-1 .3 0 .8.4 1.1 1m162.5 0c0 .5-.2 1-.4 1-.3 0-.8-.5-1.1-1-.3-.6-.1-1 .4-1 .6 0 1.1.4 1.1 1m108 0c0 .5-.5 1-1.1 1-.5 0-.7-.5-.4-1 .3-.6.8-1 1.1-1 .2 0 .4.4.4 1m-269.5 6c.3.6-.1.7-.9.4-1.8-.7-2.1-1.4-.7-1.4.6 0 1.3.4 1.6 1m167.5 4.1c0 .6-.4.7-1 .4-.5-.3-1-1.1-1-1.6 0-.6.5-.7 1-.4.6.3 1 1.1 1 1.6m-118 4.4c1.1 1.3 1 1.4-.4.9-.9-.3-1.6-1-1.6-1.5 0-1.3.6-1.1 2 .6m-111.5.5c-.3.6.2 1.4 1.2 1.8 4.3 1.7 13.2 7.9 14.7 10.2.9 1.4 3 4.5 4.8 6.9 3 4.2 3.2 4.3 4.6 2.5s1.4-1.8.8.1c-.4 1.1-.8 2.3-.9 2.6s1.4 4.1 3.4 8.5c4.1 9.1 5.3 12.5 6.9 20.9.7 3.3 1.5 6.7 1.8 7.5s.6 2.4.6 3.5c.1 1.1 1.3 2.5 2.8 3.3 2.5 1.2 3.1.9 9.5-3.9 3.7-2.8 9.9-7.2 13.6-9.7 3.8-2.6 8.2-5.6 9.7-6.7 16.7-11.8 22.7-15.3 37.5-21.5 7.1-3 10.9-5.1 10.7-6-.3-1.1 0-1.1 1.2-.1 1.1 1 2.9.7 8.9-1.3 17.1-5.7 31.6-5.2 45.9 1.6 15.6 7.5 30.2 22.5 40.4 41.7 3 5.5 5.7 9.5 6.5 9.3.9-.2 1 0 .2 1-.8.9-.2 3.6 2.2 9.8 5.1 13.5 5.6 15.2 6 20 .1 2.5 1 7 1.8 10 2.2 7.9 1.6 28-1.1 38.6-2.5 10-5 15.3-10.3 22.3-6.3 8.3-6.9 11.4-2.7 14.9 2 1.6 12.8 3.2 24.9 3.7 7.4.3 13.3 1.2 19.4 3 4.9 1.4 9.1 2.7 9.3 2.9.2.3-.1 1.3-.7 2.4-.6 1.2-1.1 2.9-1.1 4 0 1-1 2.4-2.2 3-3.5 1.8-10.5 3.1-11.5 2.1-.5-.5-4-1.1-7.8-1.5-6.3-.5-28.9-3.7-46.5-6.5-8.8-1.4-17.8-1.3-19.7.3-2.7 2.2-3.4 5.6-1.9 9.2.8 1.9 1.9 3.7 2.5 4.1 2.8 1.7 31.5 7.7 47.6 10 6 .8 11.5 2.1 12.2 2.8 1 1 .4 2.2-3.2 6.4-2.5 2.8-4.9 6.3-5.5 7.7-.8 2.2-1.4 2.5-4.2 2-6-1-13.3-2.7-14.3-3.3-.5-.3-1.9-.7-3-.9-1.1-.1-8.7-3.6-17-7.7-8.2-4.1-16.5-7.7-18.2-7.9-2.8-.3-3.6.1-5.3 2.9-2.2 3.5-1.9 5.2 1.2 9.7 1.9 2.8 12.2 10.3 16.4 11.8 1.3.5 2.4 1.4 2.4 1.9 0 .6 1.6 1.8 3.6 2.7 3.4 1.6 3.7 1.6 4.9.1 1.3-1.8 3-2.4 2-.7-.3.6.3 2.2 1.5 3.7l2.1 2.7-3.8 2.2c-2.1 1.2-6.4 4.1-9.6 6.4-4.8 3.5-5.7 4.6-5.1 6.4s.5 1.9-.8.9c-1.2-1.1-2.3-.4-6.4 4.1-5.7 6.2-10.1 8.7-14.7 8.5-1.7 0-6.1.7-9.7 1.6s-11.9 2.1-18.5 2.6-13.6 1.1-15.5 1.4c-3.4.6-18.9.8-36 .6-4.7 0-11.6-.5-15.5-1.1-3.8-.5-12.2-1.7-18.5-2.5-6.3-.9-13.3-1.9-15.5-2.2-2.2-.4-4.4-.7-5-.8-2.1-.2-13.2-2.7-16.3-3.7-1.8-.5-4.3-1.1-5.5-1.3-3.9-.6-19-4.5-25.2-6.5-3.3-1.1-6.5-2-7.2-2-2.6 0-19.5-8.2-31.3-15.2-17.3-10.3-24.4-15.4-30.5-21.9-7.3-7.9-21.5-26.8-21.5-28.7 0-.4-.7-2.1-1.6-3.7-.9-1.7-2.4-5.5-3.4-8.5-2.2-6.6-1.8-7.1 6.1-6.9 3.1.1 6.2-.2 7-.7s2.1-.7 3-.6c2.4.4 5.8-4.8 4.9-7.4-1.5-3.9-5.4-5.4-15.7-6-5.4-.4-10.1-1.2-10.5-1.8s-.8-3.9-.8-7.2c0-6.4.6-7 5-5.1 8.1 3.5 13.6 4.7 14.9 3.4.6-.6 1.1-.8 1.1-.4s.9.3 2-.3c1.2-.6 2-2.1 2-3.5 0-3-5-8.9-8.7-10.3-11.5-4.2-14.3-5.6-14.8-7.2-.7-2.3 3.8-31.1 6.4-40.5 4.9-18.2 10.2-30 20-44.7 7.3-11 20-24.2 31.1-32.6 4.7-3.4 6.4-5.3 6.2-6.7-.3-1.6-.1-1.7 1.1-.7s2 .8 4.3-1.1c8.2-6.6 22.3-11.8 36-13.2 3.5-.4 6.7-1.1 7-1.6s.7-.9 1-.9.2.5-.1 1m49.5 2c0 .4-.6 1-1.4 1.3-1 .4-1.2 0-.9-1.4.5-1.8 2.3-1.8 2.3.1m52.7.2c-.3.8-.6.5-.6-.6-.1-1.1.2-1.7.5-1.3.3.3.4 1.2.1 1.9m92 3c-.3.8-.6.5-.6-.6-.1-1.1.2-1.7.5-1.3.3.3.4 1.2.1 1.9m-235.2-.2c-.3.5-1.2 1-1.8 1-.7 0-.6-.4.3-1 1.9-1.2 2.3-1.2 1.5 0m242 0c.3.5.2 1-.4 1-.5 0-1.3-.5-1.6-1-.3-.6-.2-1 .4-1 .5 0 1.3.4 1.6 1m5.3 9.3c0 1.6-.6 2.4-1.7 2.3-.8 0-1.6.5-1.7 1.1-.3 2.6-.5 2.8-1.4 1.3-1.8-2.7-1.2-5 1.3-4.7 1.6.1 2.2-.3 2.1-1.5-.1-1 .2-1.6.6-1.3s.8 1.5.8 2.8m-26.8.7c-2 1.3-3 1.2-3-.1 0-.5.4-.8.9-.4.5.3 1.3 0 1.6-.6.4-.5 1-.8 1.3-.4.4.3 0 1-.8 1.5m-260.3 13.5c0 .8-.4 1.5-.9 1.5-1 0-1.1-1.4-.1-2.3.9-1 1-.9 1 .8m351.3 16c1.1 1.3 1 1.4-.4.9-.9-.3-1.6-1-1.6-1.5 0-1.3.6-1.1 2 .6m-211 4c1.1 1.3 1 1.4-.4.9-.9-.3-1.6-1-1.6-1.5 0-1.3.6-1.1 2 .6m193 17.9c0 .2-.9.6-2 .9s-1.8.1-1.4-.4c.5-.9 3.4-1.3 3.4-.5m-15 23c0 .2-.7.7-1.6 1-.8.3-1.2.2-.9-.4.6-1 2.5-1.4 2.5-.6M418 350c0 .5-.5 1-1.1 1-.5 0-.7-.5-.4-1 .3-.6.8-1 1.1-1 .2 0 .4.4.4 1m395 13c0 .5-.2 1-.4 1-.3 0-.8-.5-1.1-1-.3-.6-.1-1 .4-1 .6 0 1.1.4 1.1 1m3.3 12.5c.4.8.1 1.7-.6 2.1s-.9.4-.5-.1c.4-.4.3-1.4-.3-2.2-.7-.8-.8-1.3-.1-1.3.5 0 1.2.7 1.5 1.5m-6.6 6.5c.8 1.2.9 2.1.3 2.5-.6.3-1-.1-1-.9s-.8-2-1.7-2.5c-1.4-.8-1.5-1-.3-1.1.8 0 2.1.9 2.7 2m-4.7 11c0 .5-.5 1-1.1 1-.5 0-.7-.5-.4-1 .3-.6.8-1 1.1-1 .2 0 .4.4.4 1m-4 33c0 .5-.2 1-.4 1-.3 0-.8-.5-1.1-1-.3-.6-.1-1 .4-1 .6 0 1.1.4 1.1 1m0 7.4c0 .2-.7.9-1.5 1.6-1.3 1.1-1.4 1-.9-.4s2.4-2.3 2.4-1.2M416 438c0 .5-.5 1-1.1 1-.5 0-.7-.5-.4-1 .3-.6.8-1 1.1-1 .2 0 .4.4.4 1m561 6c0 .5-.5 1-1.1 1-.5 0-.7-.5-.4-1 .3-.6.8-1 1.1-1 .2 0 .4.4.4 1m-139.5 50.1c10.3 7 13 13.4 12 28.3-.3 5.8-1.4 12-2.5 14.9-1.1 2.8-1.7 5.3-1.5 5.8.3.4-.1.9-.9 1.2-.7.3-2.9 3.4-4.9 6.9-3.7 6.6-10.8 14-19 19.6-3.1 2-4.5 3.7-4.1 4.5.5.9.4.9-.5.1-1-.9-2.9-.5-7.9 1.8-10.6 4.8-15 5.9-26.5 6.5-12.2.7-13 1.2-12.6 8.6.5 10 0 12.5-3.2 16.1-2.9 3.3-3.3 3.5-7.7 2.9-5.4-.7-8.9-2.2-15.3-6.9-4-2.9-5.1-4.6-9.3-14.6-3.9-9.1-4.9-12.7-5.3-19-.9-12.6 2-19.7 12-29.9 5.1-5.1 11.7-10.4 13.2-10.5.6 0 4.1-1.5 7.9-3.2 5-2.4 6.7-3.6 6.2-4.7-.4-1.3-.2-1.4 1.4-.5 1.4.8 3.2.7 6.3-.1 2.3-.7 4.9-1.3 5.7-1.3.9-.1 1.4-.9 1.2-2.1-.2-1.9-.2-1.9.9-.2 1 1.8 1.2 1.8 3 .1 1-.9 1.9-3 1.9-4.5 0-4.5 2-7.7 7.2-11.4 3.5-2.5 6.3-3.7 10.3-4.1 4.9-.6 5.9-.4 9.6 2 4.3 2.9 6.9 7.6 6.9 12.3 0 3.1-5.1 17.2-7.4 20.5-1.5 2.1-.7 7.1 1.4 9.2 1.7 1.7 9.8-3.1 12.5-7.4 3-4.8 5.8-14.4 5.7-19.4-.3-7.7-4.3-18-8.6-22.1l-2-2 2.9-.5c4.1-.8 6.3-.2 11 3.1M754 505.4c0 .2-.7.7-1.6 1-.8.3-1.2.2-.9-.4.6-1 2.5-1.4 2.5-.6m-1.3 22.8c-.3.8-.6.5-.6-.6-.1-1.1.2-1.7.5-1.3.3.3.4 1.2.1 1.9M312 548c0 .5-.2 1-.4 1-.3 0-.8-.5-1.1-1-.3-.6-.1-1 .4-1 .6 0 1.1.4 1.1 1m221 2c0 .5-.2 1-.4 1-.3 0-.8-.5-1.1-1-.3-.6-.1-1 .4-1 .6 0 1.1.4 1.1 1m-180 6.4c9.4.7 20.3 3.4 26.6 6.5 2.2 1.1 5.2 2.3 6.7 2.6 4.2 1.1 9.9 7.5 10.4 11.6.3 3.2-.2 4.1-5.4 9-3.2 3-7.9 7-10.5 9-5.4 4.1-17.4 19-20 24.9-2 4.6-6.3 6.2-15.9 5.9l-8.5-.3.3-3.8c.4-5.2 4-15 5.8-16.1 3.7-2 .7-7.7-4.1-7.7-2.1 0-8.4 4.7-8.4 6.3 0 .7-.6 2.4-1.4 3.8-2.2 4.3-4.8 12.9-4.3 14.2.3.7-.1 2.1-.9 3.1-1.2 1.8-1.5 1.7-6.9-.5-8.3-3.4-10.2-5.6-11-12.5-.4-3.3-1.2-6.5-1.7-7.2q-1.05-1.2 0-1.2c.6 0 2-2.1 3.2-4.8 1.2-2.6 4.1-6.7 6.5-9.2s4.5-5.4 4.6-6.5c.5-3.4-1.9-6.5-4.9-6.5-3.5 0-7.5 2.7-6.8 4.7.3.8.2 1.2-.3.9-1-.7-9.1 11.5-9.1 13.7 0 2.5-1.1 4.7-2.4 4.7-2.1 0-3.8-4.4-4.3-11.2-.4-6.3-.2-7.2 2.8-12.1 3.9-6.3 5.8-7.8 17.4-13.6 6.1-3.1 20.6-7.1 25.4-7.1 1.5 0 3.6-.6 4.7-1.4 1-.8 2.3-1.1 2.9-.7.5.5 4.8 1.1 9.5 1.5m25 .6c0 .5-.2 1-.4 1-.3 0-.8-.5-1.1-1-.3-.6-.1-1 .4-1 .6 0 1.1.4 1.1 1m150.5 2.1c5.5.6 10.7 1.4 11.5 1.7s2.2.6 3 .7c3.8.5 24.2 8.1 33.4 12.6 11.4 5.4 22.9 14.5 28.8 22.5 2 2.7 5.6 9.2 8.1 14.4 16.8 35.5-1 73.4-42.3 90.2-3.2 1.4-3.6 1.4-14.8 2.7-5.1.6-11.6 1-14.5.9-4.9-.2-5.6-.5-12.3-6.8-9.8-9.3-20.1-15.9-30.4-19.5-1.9-.7-5.5-2.1-8-3.2-4.3-1.9-26.2-7.2-30.5-7.3-1.1-.1-7.3-.3-13.8-.6-6.4-.3-14.6-.1-18.1.4-11.6 1.8-31.6 12.2-30.2 15.8.3.8 0 1.1-.9.8-1.3-.6-13.5 7.9-13.5 9.4 0 .4-2.1 2.9-4.5 5.5-2.5 2.6-4.5 5.2-4.5 5.7s-1.6 3.5-3.5 6.7c-3.5 5.9-7.2 20.5-6.2 24.4.3 1 0 2-.6 2.2-.7.2-1 2.2-.9 4.8.2 2.4-.1 5.6-.6 6.9-.5 1.4-.6 3.4-.3 4.4.4 1.1-.1 3.7-1.3 6.2-2 4.5-1.3 4.2-13.1 6-7.6 1.2-27.7 8.8-31.5 11.8-.8.7-3.5 2.4-6.1 3.9-5.5 3.1-19.3 17.3-18.5 19.2.2.7-.2 1.9-1 2.6-.8.6-1.4 1.7-1.3 2.3.4 3.7-.6 4.5-11.1 7.3-10.3 2.7-36-1-49.7-7.2-2.9-1.4-5.6-2.5-5.9-2.5-1.6 0-23.8-11.6-29.1-15.2-18.5-12.8-26.9-21-31.9-31.4-1.9-3.9-3.4-7.4-3.4-7.7 0-.4 1.7-.7 3.8-.7 2.6 0 4.5-.7 5.6-1.9 2-2.2 1.8-6.8-.3-6.3-.8.2-1.1-.3-.8-1.2.4-.9-1.1-3-3.8-5.5-3.6-3.3-4.8-5.3-6-10-2.6-10-1.6-14.1 4.7-21.4 3-3.3 3.5-3.6 5.2-2.4 1.5 1.1 1.9 3 2.2 10.5.4 9.5 1.5 13 6 19.2 2.5 3.5 3.9 4.4 10.4 7.4 3.4 1.5 3.6 1.5 5.8-1 1.2-1.4 2.2-3.2 2.2-4.1 0-2.3-5.6-8.9-8.7-10.2l-2.8-1.2-.2-12.8-.2-12.9 2.5-.5c1.4-.2 4.2-.1 6.2.4s5.2.9 7 .9c4.5 0 14.9 4.3 24.4 9.9 6.7 4 20.5 16.4 29.9 26.7 1.4 1.6 4.1 4.3 6 5.9 4.6 4.1 13.9 15 13.9 16.3 0 .6.6 1.5 1.4 1.9 2.6 1.6 12.6 17.6 12.6 20.3 0 1.5 1 3.6 2.4 4.9 3 2.8 5.1 1.9 8.6-3.8 1.4-2.3 2.8-4.1 3.1-4.1s1.8-1.1 3.3-2.5c3.1-2.9 14.1-8.6 20.1-10.5 2.2-.7 5.4-1.8 7-2.5 1.7-.7 5.7-2 9-3 10.3-3 10.5-3.1 10.7-6.7.4-7.8.8-10.6 1.9-15.8 2.7-12.5 10.8-33.4 13.8-35.7.9-.7 1.3-1.3.9-1.3-.9 0 1-2.3 5.5-7l2.8-2.9-3.1-9.9c-3.3-10.7-3.8-16.1-2.6-26.2.4-3.6.9-7.6 1.1-9 .4-3.4 5.4-15.9 7.7-19.2 1-1.4 1.8-3.1 1.8-3.6 0-1.8 16.1-17.4 24.3-23.7 4.3-3.3 10.1-7.3 13-8.8 6.4-3.4 8.8-5.6 8-7.1-.3-.7-.1-.6.7.1 1 1 1.9.8 3.9-.6 2.7-2 22.5-11.1 24-11.1.5 0 2.9-.9 5.4-2 14.3-6.3 43.4-8.8 69.2-5.9m433.5-.6c-.7.9-1.5 1.3-1.9 1-.3-.3.1-1 .9-1.5 2.1-1.4 2.4-1.2 1 .5m-302.3 2.1c-.3.3-1.2.4-1.9.1-.8-.3-.5-.6.6-.6 1.1-.1 1.7.2 1.3.5m-85.7 3.8c0 .3-.4.8-1 1.1-.5.3-1 .1-1-.4 0-.6.5-1.1 1-1.1.6 0 1 .2 1 .4m385 1.8c0 .6-.6.5-1.5-.2-.8-.7-1.5-1.4-1.5-1.6s.7-.1 1.5.2c.8.4 1.5 1.1 1.5 1.6m-341 7.3c-.7.9-1.5 1.3-1.9 1-.3-.3.1-1 .9-1.5 2.1-1.4 2.4-1.2 1 .5m-355.1 9.9c.7.8.8 1.7.3 2-.6.3-1.2-.3-1.5-1.4-.6-2.4-.4-2.5 1.2-.6m424.1 2.7c0 1.4-1.7 1-2.3-.5q-.6-1.5.9-.9c.7.3 1.4.9 1.4 1.4m-501.3 4.5c-.3.3-1.2.4-1.9.1-.8-.3-.5-.6.6-.6 1.1-.1 1.7.2 1.3.5M144 597c0 .5-.4 1-1 1-.5 0-1-.5-1-1 0-.6.5-1 1-1 .6 0 1 .4 1 1m531.9 2.4c.7.8.8 1.7.3 2-.6.3-1.2-.3-1.5-1.4-.6-2.4-.4-2.5 1.2-.6M156 606c0 .5-.2 1-.4 1-.3 0-.8-.5-1.1-1-.3-.6-.1-1 .4-1 .6 0 1.1.4 1.1 1m499.3 1.1c.4 1.6.3 1.9-.5 1.1-.6-.6-1.8-.8-2.7-.5-1.2.3-1.1.1.3-1.1 2.4-2 2.3-2 2.9.5m-507.2 2.2c-1 .9-1.1.8-.5-.6.3-1 .9-1.5 1.2-1.2s0 1.1-.7 1.8M281 611c0 .5-.4 1-1 1-.5 0-1-.5-1-1 0-.6.5-1 1-1 .6 0 1 .4 1 1m440.7 3.2c-.3.8-.6.5-.6-.6-.1-1.1.2-1.7.5-1.3.3.3.4 1.2.1 1.9m-6.7 3.3c0 .5-.5.3-1-.5s-1-2-1-2.5c0-.6.5-.3 1 .5s1 1.9 1 2.5m227 3.7c0 .6-.6.5-1.5-.2-.8-.7-1.5-1.4-1.5-1.6s.7-.1 1.5.2c.8.4 1.5 1.1 1.5 1.6M711 623c0 .5-.5 1-1.1 1-.5 0-.7-.5-.4-1 .3-.6.8-1 1.1-1 .2 0 .4.4.4 1m-539.6 1.6c.3.8.2 1.2-.4.9s-1-1-1-1.6c0-1.4.7-1.1 1.4.7m757.9 5.8c15.7 4 25 12.1 27.1 23.6.8 4.6 1.8 12.2 1.8 13.5-.1 7.8-1.6 18.7-3.1 22.1-1.1 2.3-1.7 4.5-1.4 4.8s-.9 2.4-2.6 4.7c-2.3 3.3-2.8 4.6-1.9 5.6.8 1 .7 1.2-.4.8-.9-.4-2.3.6-3.8 2.7-4.8 7-16.6 13.8-23.9 13.8-1.5 0-5 .9-7.9 1.9-2.8 1.1-5.2 1.8-5.2 1.6s-1.5.1-3.2.6c-1.8.5-5.3 1.4-7.8 1.9s-7.6 1.6-11.4 2.5c-3.8.8-8.5 1.6-10.5 1.7s-4.7 1-6.1 1.9c-2.5 1.8-10 3.8-23.5 6.3-6.3 1.2-15.2 3.4-34 8.3-3.3.8-10.5 2.4-16 3.5s-12 2.6-14.5 3.3c-6.8 2.1-9.9 2.5-10.6 1.4-.7-1.2-4.3-.2-6.6 1.8-1.8 1.6-7 2.9-14.6 3.8-2.4.3-7 1.5-10.2 2.6-3.3 1.1-7.1 1.9-8.5 1.7-2.3-.3-2.4-.4-1-2.8 5.4-9.7 9.5-20.5 9.1-24.2-.2-1.6.2-2.9 1.1-3.2 1.5-.6 1.5-7.9 0-10.3-.4-.6-.4-1.4.1-1.7 1-.6.3-6.6-1-8.3-.6-.7-.6-1.9 0-3 .7-1.3.6-2.4-.4-3.8-.8-1-1.4-2.8-1.4-3.8 0-2.8-6.8-12.7-9.3-13.7-1.2-.5-1.8-.9-1.3-.9 1.4-.1-4.6-6.1-6.1-6.1-.7 0-1.7-.9-2.3-2s-1.7-2-2.5-2-1.5-.4-1.5-.9c0-.9-5.1-3.9-8-4.7-.8-.2-3.3-.8-5.5-1.5-6.4-1.8-16-2.2-21.7-.9-2.9.6-6.6 1.3-8.2 1.6-3.7.5-13.7 5.4-14.3 7.1-.3.6-1.1.9-1.9.6-2.2-.8-15.5 13.5-18.8 20.2-1.5 3.1-2.9 6.7-3 7.8-.1 1.2-1 3.6-1.9 5.3-1.5 3-4.5 16.8-5.3 24.8-.2 2.3-.6 5.2-.9 6.6-1.6 7.4-3.4 20.7-3 22 .9 2.9-1 4.2-4.9 3.4-4.9-.9-6.6-5.2-4.2-10.6.4-1 .6-2.3.3-3-.2-.7 0-2.3.4-3.5.5-1.2 1.1-8.4 1.4-16s.8-15.4 1-17.3c.6-6.1 4.6-16.9 8.2-22.3 1.9-2.9 4.6-7.3 5.9-9.8 2.6-5.2 14.8-16.8 22.2-21.1 6.8-4 11.2-5.9 12.1-5.3.5.3 2.8-.2 5.2-1.1 2.4-.8 9-1.9 14.7-2.4 9.2-.8 10.9-.7 15.5 1 2.9 1.1 5.9 2 6.7 2 .9 0 4.6 1.6 8.3 3.6 4.4 2.3 10.1 4.2 16.4 5.5 5.3 1.1 13.6 3.3 18.3 4.9 4.8 1.7 9.6 3 10.6 3 1.1 0 3.9.7 6.2 1.5 4.1 1.4 13.4 3.2 19.2 3.7 1.5.2 2.4-.2 2.3-.9-.3-1.3 2.2-.7 4.4.9.7.5 1.4.5 1.8-.2.4-.6 1.3-.9 2.1-.6.7.3 1.6.1 2-.5.4-.7 1-.6 1.9.1.8.6 2.1.7 3.6.2 1.3-.5 3.6-.6 5-.2 3.2 1 12.8-3 18-7.5 3.9-3.3 8.1-8.9 7.3-9.7-.2-.3.2-1.1 1.1-1.8.8-.7 1.5-1.8 1.5-2.4s.6-2.2 1.3-3.6c1.9-3.6 3.9-11.9 3.1-13.1-.3-.5-.1-1.5.4-2.2s1.3-2.6 1.7-4.4c.7-3.5 3.9-5.1 10.8-5.2 2.1 0 5.4-.5 7.5-1 5.5-1.5 23.8-4.2 30.5-4.6 3.2-.2 6.1-.6 6.5-.9 1.4-1.4 22.2.5 31.5 2.8m-160.3 0c0 .3-.4.8-1 1.1-.5.3-1 .1-1-.4 0-.6.5-1.1 1-1.1.6 0 1 .2 1 .4M308.5 632c.3.5.1 1-.4 1-.6 0-1.1-.5-1.1-1 0-.6.2-1 .4-1 .3 0 .8.4 1.1 1m52.2 10.6c-.3.3-1.2.4-1.9.1-.8-.3-.5-.6.6-.6 1.1-.1 1.7.2 1.3.5m374.3-.2c0 .3-.4.8-1 1.1-.5.3-1 .1-1-.4 0-.6.5-1.1 1-1.1.6 0 1 .2 1 .4m90 1c0 1.1-1.9 1.5-2.5.6-.3-.5.1-1 .9-1 .9 0 1.6.2 1.6.4m-471.3 7.3c-.9.9-2 1.3-2.4.9s-.1-1.1.7-1.6c2.5-1.6 3.5-1.1 1.7.7m269.6 6.8c-.3.9-.8 1.4-1 1.1-.3-.3-.2-.9.2-1.5.9-1.6 1.5-1.3.8.4m209.7 5c-.7.9-1.5 1.3-1.9 1-.3-.3.1-1 .9-1.5 2.1-1.4 2.4-1.2 1 .5m-188-.1c0 .2-.7.9-1.5 1.6-1.3 1.1-1.4 1-.9-.4s2.4-2.3 2.4-1.2m166 0c0 .2-.7.9-1.5 1.6-1.3 1.1-1.4 1-.9-.4s2.4-2.3 2.4-1.2m-13.5 2.4c-.3.3-1.1 0-1.8-.7-.9-1-.8-1.1.6-.5 1 .3 1.5.9 1.2 1.2m-548.1 12.7c-.7 1.6-2.4 2.1-2.4.6 0-.8.7-1.3 2.7-2 .1-.1 0 .6-.3 1.4m90.1.5c.3.5.1 1-.4 1-.6 0-1.1-.5-1.1-1 0-.6.2-1 .4-1 .3 0 .8.4 1.1 1m111 1c.3.5.1 1-.4 1-.6 0-1.1-.5-1.1-1 0-.6.2-1 .4-1 .3 0 .8.4 1.1 1m347.5 0c0 .5-.2 1-.4 1-.3 0-.8-.5-1.1-1-.3-.6-.1-1 .4-1 .6 0 1.1.4 1.1 1m-186.6 2.4c-1 .8-2.1 1.2-2.4 1-.5-.6 2.1-2.4 3.4-2.4.6 0 .1.6-1 1.4m195.6-1c0 .3-.4.8-1 1.1-.5.3-1 .1-1-.4 0-.6.5-1.1 1-1.1.6 0 1 .2 1 .4m-385 3.8c0 1.7-3.8.7-4.2-1-.5-1.7-.2-1.7 1.8-.8 1.3.6 2.4 1.4 2.4 1.8m280.3 9.5c4.3 1.7 12.1 7.1 16.9 11.5 1 1 1.8 2.9 1.8 4.1 0 1.3.9 5 1.9 8.3 1.5 4.4 1.9 7.8 1.6 13.4-.3 6.6-.9 10.9-1.5 11.7-.2.2-.3.6-.4 1-.5 3.3-3.4 10.4-5.3 13.3-1.3 1.9-2.3 4-2.3 4.6s-.9 1.9-2 2.9c-1.2 1-1.8 2.5-1.5 3.3.4 1.2.3 1.2-.9.3-.8-.7-1.7-.8-2-.3s-1.8 1.2-3.3 1.5c-1.6.3-4.5 2-6.5 3.7-4.7 3.9-6.1 8.5-4.7 15.2.6 2.7.8 5.7.4 6.6-1.4 3.2-2.4 16.2-2.6 32.7 0 6-.5 12.9-1.1 15.3-.7 3-.7 4.6 0 5.5 1.1 1.3 1.1 5.4 0 7.2-.3.6-.4 3-.2 5.5.1 2.5-.2 5-.8 5.7-.6.8-.6 1.8.1 3.1.8 1.5.7 2.3-.3 3.1-1.1.9-1.3 4.1-.5 7.8.1.4-.1 2.5-.5 4.5-.5 2.1-.5 4.6-.1 5.5.4 1 .9 2.5 1 3.5.3 2.7 3.5 6.9 4.7 6.2.6-.4.8-.3.4.4-1.2 1.9 1.7 2.6 3.1.6 1.1-1.5 1.7-1.6 3.3-.6 1.7 1 2.1.8 3.4-2.1 1.5-3 1.7-9.9.5-11.2-.8-.7-.3-37.6.5-41.3.3-1.5.8-8.6 1.1-15.7.4-12.4 1.1-21 2.1-26.5.3-1.4.8-4.1 1.1-6 .8-4.9 1.7-5.7 7.6-6.5 2.9-.4 5.9-.8 6.7-1 10.7-2.2 21.4-3.4 22.9-2.5 1.4.7 2.3.4 4.1-1.5 1.3-1.4 3.1-2.5 4-2.5.8 0 2.5-.7 3.7-1.5 1.4-1 2.4-1.2 2.8-.5.9 1.5 9.4.6 12.9-1.3 2.2-1.2 3.3-1.3 4.3-.5s1.8.7 3.1-.4c.9-.9 2.4-1.6 3.2-1.6 10.5-.8 12.5-1.2 12.4-2.4-.1-.9 1.6-1.4 5.3-1.6 5.6-.3 6.4.3 3.6 2.4-1.7 1.2-1.7 1.4 0 3.1 1.6 1.7 1.8 1.6 3.9-.5 1.7-1.7 2-2.4 1-3.4-.7-.7-1.2-1.9-1.2-2.7 0-1.1.3-1.2 1.1-.4s2.2.8 5.3-.2c4.7-1.6 19.3-4.9 21.6-5 .9 0 1.4-.8 1.2-2-.2-1.7-.1-1.8.7-.4.9 1.4 1.8 1.5 7.8.3 9.7-1.9 15.8-4 15.5-5.3-.3-1.4.4-1.4 2.9.1 1.7 1.1 2.2 1 3.2-.2.7-.8 2.3-1.4 3.6-1.2s4.2-.3 6.5-1.2c2.2-.8 5.9-1.8 8.1-2.2 2.2-.3 11.3-2.6 20.3-5 16.6-4.5 23.2-5.4 23.2-3.2 0 .7-.5 4.2-1 7.8-1.4 9.2-4.1 31.7-4.5 37-1.1 15.8-2.7 32.7-3.7 40-1.3 9.8-2 10.5-11.3 13.3-3.3 1-6.7 2-7.5 2.3s-1.7.5-2 .5-1.8.9-3.5 1.9c-1.6 1-4.6 2.1-6.5 2.5s-3.9 1-4.5 1.3c-1.1.7-2.7 1.1-6.4 1.7-1.3.2-2.8.8-3.4 1.4s-1.9 1.1-3 1.1c-1 0-4.6 1.1-8 2.4-3.4 1.2-8.9 3.1-12.2 4-3.3 1-7.3 2.3-9 3-1.6.8-4.8 1.9-7 2.6s-6.7 2.2-10 3.5c-3.3 1.2-10.7 3.7-16.5 5.5s-14.3 4.5-19 6-10.3 3.1-12.5 3.4c-4.7.8-9.8 2.3-14 4.1-1.6.7-5.7 2-9 2.9-3.3 1-7.3 2.3-9 3-4.2 1.8-16.1 5.6-17.5 5.6-.7 0-2.6.7-4.3 1.4-1.8.8-6.6 2.2-10.7 3s-9.5 2.1-12 2.9c-2.8.8-5.6 1.1-7.5.6-1.6-.5-8.6-.9-15.5-1s-13.7-.6-15.1-1c-1.5-.4-3.2-.3-4 .1-.7.5-2.1.4-3-.1-1-.5-4.6-1.1-8.1-1.4-7.3-.6-11.4-2-12.3-4.3-1.2-3.1-2.7-13.6-3-21-.2-4-.6-7.6-.9-7.9-.3-.4-.1-1.2.5-2 .6-.7.9-2.2.6-3.3s-.1-3.7.4-5.8c.4-2.1 1.1-15.1 1.3-28.8.3-13.7.8-26 1.1-27.4.6-2.8 2.5-36.2 2.3-40-.1-1.4.1-5 .5-8s.9-9.6 1.2-14.5c.7-11 1-12.9 4.2-23 3.7-12.1 5.9-16.1 11.4-21.6 8.1-8.1 13.5-9.8 29.4-9.4 8.1.1 12.3.7 15.8 2.2M300 695.6c0 .2-.7.4-1.5.4s-1.5-.4-1.5-1c0-.5.7-.7 1.5-.4.8.4 1.5.8 1.5 1m103-.6c0 .5-.2 1-.4 1-.3 0-.8-.5-1.1-1-.3-.6-.1-1 .4-1 .6 0 1.1.4 1.1 1m-84.3 4.7c-.7.6-4.6-1-4.1-1.8.3-.5 1.4-.3 2.4.3 1.1.7 1.8 1.3 1.7 1.5m93.8-1.7c.3.5.1 1-.4 1-.6 0-1.1-.5-1.1-1 0-.6.2-1 .4-1 .3 0 .8.4 1.1 1m35.4 6.1c1.3 3.9 1.3 3.9 0 3.9-.5 0-.8-.4-.4-.9.3-.6 0-1.3-.7-1.8-1.4-.9-2-4.3-.8-4.3.4 0 1.3 1.4 1.9 3.1m34.1 2.3c0 .3-.4.8-1 1.1-.5.3-1 .1-1-.4 0-.6.5-1.1 1-1.1.6 0 1 .2 1 .4m-60.5 1.6c.3.5.1 1-.4 1-.6 0-1.1-.5-1.1-1 0-.6.2-1 .4-1 .3 0 .8.4 1.1 1m67.5 4c-.6 1.1-1.6 1.8-2.1 1.4-.6-.3-.3-1.2.8-2 2.4-1.8 2.6-1.7 1.3.6m-169 1.9c0 .5-.9.7-2 .4s-2-.7-2-.9.9-.4 2-.4 2 .4 2 .9m7.5 2.1c.3.5.1 1-.4 1-.6 0-1.1-.5-1.1-1 0-.6.2-1 .4-1 .3 0 .8.4 1.1 1m9.5 2.5c1.1 1.3 1 1.4-.4.9-.9-.3-1.6-1-1.6-1.5 0-1.3.6-1.1 2 .6m135.5-.5c.3.5.1 1-.4 1-.6 0-1.1-.5-1.1-1 0-.6.2-1 .4-1 .3 0 .8.4 1.1 1m107.2-.4c-.3.3-1.2.4-1.9.1-.8-.3-.5-.6.6-.6 1.1-.1 1.7.2 1.3.5m-32.1 1.7c.4.4 0 .7-.9.7s-1.8-.4-2.1-.9c-.7-1 2-.9 3 .2m17.9-.3c.3.5.1 1-.4 1-.6 0-1.1-.5-1.1-1 0-.6.2-1 .4-1 .3 0 .8.4 1.1 1M424 721c0 .4-.8 1.4-1.7 2.1-1.5 1.2-1.6 1.2-1.1-.2.4-.9.2-2.1-.4-2.7-.8-.8-.5-.9 1.1-.5 1.1.3 2.1.9 2.1 1.3m132.7-1.4c-.3.3-1.2.4-1.9.1-.8-.3-.5-.6.6-.6 1.1-.1 1.7.2 1.3.5m-113.3 3c.3.8.2 1.2-.4.9s-1-1-1-1.6c0-1.4.7-1.1 1.4.7m78.6 1.9c1.1 1.3 1 1.4-.4.9-.9-.3-1.6-1-1.6-1.5 0-1.3.6-1.1 2 .6m16-.5c0 .5-.4 1-1 1-.5 0-1-.5-1-1 0-.6.5-1 1-1 .6 0 1 .4 1 1m-250 2c0 .5-.2 1-.4 1-.3 0-.8-.5-1.1-1-.3-.6-.1-1 .4-1 .6 0 1.1.4 1.1 1m61 2c0 .5-.4 1-1 1-.5 0-1-.5-1-1 0-.6.5-1 1-1 .6 0 1 .4 1 1m180.9 1.7c.2.2-.3.3-1.1.3-.9 0-1.9-.7-2.2-1.6-.6-1.5-.4-1.5 1.1-.3 1 .7 2 1.5 2.2 1.6m57.1-.3c0 .3-.4.8-1 1.1-.5.3-1 .1-1-.4 0-.6.5-1.1 1-1.1.6 0 1 .2 1 .4m-63.6 2.1c.3.8.1 1.5-.3 1.5-.5 0-1.1-.7-1.5-1.5-.3-.8-.1-1.5.3-1.5.5 0 1.1.7 1.5 1.5m-174 1c-.6 1.6-2.4 2.1-2.4.7 0-1.1 1.1-2.2 2.1-2.2.5 0 .6.7.3 1.5m40.6 3c.7.9.8 1.5.2 1.5-.5 0-1.2-.7-1.6-1.5-.3-.8-.4-1.5-.2-1.5s.9.7 1.6 1.5m111 1.6c0 .6-.4.7-1 .4-.5-.3-1-1.1-1-1.6 0-.6.5-.7 1-.4.6.3 1 1.1 1 1.6m-92.6 3.4c-.4.8-1.1 1.5-1.6 1.5-.6 0-.5-.6.2-1.5.7-.8 1.4-1.5 1.6-1.5s.1.7-.2 1.5M278 745.2c0 .6-.6.5-1.5-.2-.8-.7-1.5-1.4-1.5-1.6s.7-.1 1.5.2c.8.4 1.5 1.1 1.5 1.6m47-.2c0 .5-.4 1-.9 1-.6 0-1.3-.5-1.6-1-.3-.6.1-1 .9-1 .9 0 1.6.4 1.6 1m176.5 1c.3.5.1 1-.4 1-.6 0-1.1-.5-1.1-1 0-.6.2-1 .4-1 .3 0 .8.4 1.1 1M288 749.4c0 1-.7 1.2-2.2.8-2.1-.5-2.1-.6-.2-1.3 1-.4 2-.8 2.2-.8.1-.1.2.5.2 1.3m199-.4c0 .5-.2 1-.4 1-.3 0-.8-.5-1.1-1-.3-.6-.1-1 .4-1 .6 0 1.1.4 1.1 1m450 1.6c0 .2-.7.4-1.5.4s-1.5-.4-1.5-1c0-.5.7-.7 1.5-.4.8.4 1.5.8 1.5 1m-636 .4c0 .5-.4 1-1 1-.5 0-1-.5-1-1 0-.6.5-1 1-1 .6 0 1 .4 1 1m108 .9c0 .5-.7 1.2-1.6 1.5-1.4.5-1.5.4-.4-.9 1.4-1.7 2-1.9 2-.6m201 .1c0 .5-.2 1-.4 1-.3 0-.8-.5-1.1-1-.3-.6-.1-1 .4-1 .6 0 1.1.4 1.1 1m-167 .4c0 .3-.4.8-1 1.1-.5.3-1 .1-1-.4 0-.6.5-1.1 1-1.1.6 0 1 .2 1 .4m370 5.6c0 .5-.9.6-2 .3s-1.7-.9-1.5-1.4c.7-1 3.5-.1 3.5 1.1m-208.4 3.4c-.9 1.7-1.6 2.3-2.1 1.6-.4-.6.1-2 1.1-3.1 2.3-2.5 2.8-1.9 1 1.5m-61.9 2.8c-.3.8-.6.5-.6-.6-.1-1.1.2-1.7.5-1.3.3.3.4 1.2.1 1.9m-4.2 2.8c.3.5.1 1-.4 1-.6 0-1.1-.5-1.1-1 0-.6.2-1 .4-1 .3 0 .8.4 1.1 1m-86.1 1.6c.5 1.4.4 1.5-.9.4-1.7-1.4-1.9-2-.6-2 .5 0 1.2.7 1.5 1.6M440 773c0 .5-.5 1-1.1 1-.5 0-.7-.5-.4-1 .3-.6.8-1 1.1-1 .2 0 .4.4.4 1m90.5 0c.3.5.1 1-.4 1-.6 0-1.1-.5-1.1-1 0-.6.2-1 .4-1 .3 0 .8.4 1.1 1m-42.5 1.5c.7.9.8 1.5.2 1.5-.5 0-1.2-.7-1.6-1.5-.3-.8-.4-1.5-.2-1.5s.9.7 1.6 1.5m75.1 1.8c-1 .9-1.1.8-.5-.6.3-1 .9-1.5 1.2-1.2s0 1.1-.7 1.8m203.9 2.2c-.7.9-1.5 1.3-1.9 1-.3-.3.1-1 .9-1.5 2.1-1.4 2.4-1.2 1 .5M368 782c0 .5-.5 1-1.1 1-.5 0-.7-.5-.4-1 .3-.6.8-1 1.1-1 .2 0 .4.4.4 1m-16.3 2.6c-.3.3-1.2.4-1.9.1-.8-.3-.5-.6.6-.6 1.1-.1 1.7.2 1.3.5m126.8.4c.3.5-.1 1-1 1s-1.3-.5-1-1c.3-.6.8-1 1-1s.7.4 1 1m4.5.5c-.7.9-1.5 1.3-1.9 1-.3-.3.1-1 .9-1.5 2.1-1.4 2.4-1.2 1 .5m227 5.7c0 .6-.6.5-1.5-.2-.8-.7-1.5-1.4-1.5-1.6s.7-.1 1.5.2c.8.4 1.5 1.1 1.5 1.6m-215.3-.6c-.3.3-1.2.4-1.9.1-.8-.3-.5-.6.6-.6 1.1-.1 1.7.2 1.3.5M364.9 793c1.2.6 2.7 1 3.3.8.7-.3 1.9.2 2.7 1 .9.7 5.6 3.7 10.5 6.5 9.5 5.5 20.1 15 25.4 22.8 5.6 8.3 10.2 19.2 10.2 24.2 0 4-.4 4.9-3.7 7.7-2.1 1.7-7.1 4.7-11 6.6-4 1.9-7.2 3.9-7 4.5.1.6-.4 1.4-1.1 1.6-.7.3-1.1.1-1-.4.2-.4-.2-.8-.7-.8s-.9.4-.7.9-.3.4-1.1-.2c-.8-.7-1.6-1-1.9-.7-.2.3-4.5 1.3-9.4 2.3-8.9 1.8-9.1 1.8-15.5-.2-5.7-1.9-6.5-2.4-6.9-5.1-.4-1.7-.3-3.7.2-4.5.4-.8 1.4-3.1 2.3-5 2-4.4 7-10 9-10 2.1 0 2.9-2.4 1.5-4.9-2.3-4.3-12.2-.9-16.3 5.7-4.9 7.7-7.4 12.8-8.1 16.3-.3 1.9-1.2 4.3-1.9 5.3-1.2 1.7-1.6 1.7-5 .2-2-.8-5.7-3.2-8.1-5.2-4.5-3.8-6.4-8.3-5.7-14.2.1-1.3-.3-3-1.1-3.9-.9-1.2-1-1.5 0-.9.8.5 1.6-.2 2.3-2.1 2.5-6.6 4.1-8.9 7.8-11 5.6-3.2 6.2-6 2.1-9.4-2.8-2.4-3.6-2.6-6.1-1.7-1.6.6-4 2.4-5.4 4.2-2.8 3.7-8.5 15.5-8.5 17.6 0 2.2-2.9 6.2-4 5.5-.5-.3-.6-1.3-.3-2.1.4-1-.2-1.7-1.5-2-2.9-.8-5.6-7.7-5.7-14.4 0-5.5 3.7-16 5.7-16 .4 0 1.7-1.8 2.8-3.9 1.1-2.2 3.6-5.2 5.5-6.7 3.4-2.5 3.5-2.8 1.9-4.5-1-1.1-1.4-1.9-.9-1.9.4 0 1.3.8 2 1.7 1.2 1.5 1.6 1.5 6.1-.4 6.3-2.6 12.8-4.2 18.4-4.6 8.4-.5 16.7.1 18.9 1.3m61.1 5c0 .5-.2 1-.4 1-.3 0-.8-.5-1.1-1-.3-.6-.1-1 .4-1 .6 0 1.1.4 1.1 1m-180.5 19c.3.5.1 1-.4 1-.6 0-1.1-.5-1.1-1 0-.6.2-1 .4-1 .3 0 .8.4 1.1 1m50.5-.6c0 .3-.4.8-1 1.1-.5.3-1 .1-1-.4 0-.6.5-1.1 1-1.1.6 0 1 .2 1 .4m322 6.6c0 .5-.5 1-1.1 1-.5 0-.7-.5-.4-1 .3-.6.8-1 1.1-1 .2 0 .4.4.4 1m311.5 2c.3.5.1 1-.4 1-.6 0-1.1-.5-1.1-1 0-.6.2-1 .4-1 .3 0 .8.4 1.1 1M267 828c0 .5-.2 1-.4 1-.3 0-.8-.5-1.1-1-.3-.6-.1-1 .4-1 .6 0 1.1.4 1.1 1m432.4 19.5c-.4.8-1 1.5-1.5 1.5-.4 0-.6-.7-.3-1.5.4-.8 1-1.5 1.5-1.5.4 0 .6.7.3 1.5M436.8 850c-.7 1-1.4 1.8-1.5 1.6-.6-.6.9-3.6 1.8-3.6.5 0 .4.9-.3 2M136 853c0 .5-.2 1-.4 1-.3 0-.8-.5-1.1-1-.3-.6-.1-1 .4-1 .6 0 1.1.4 1.1 1m765 9.1c0 .6-.4.7-1 .4-.5-.3-1-1.1-1-1.6 0-.6.5-.7 1-.4.6.3 1 1.1 1 1.6m-8.6 4.5c.5 1.4.4 1.5-.9.4-1.7-1.4-1.9-2-.6-2 .5 0 1.2.7 1.5 1.6m-692 1.9c.3.8.1 1.5-.4 1.5-.6 0-1-.7-1-1.5s.2-1.5.4-1.5.6.7 1 1.5M894 871c0 .5-.2 1-.4 1-.3 0-.8-.5-1.1-1-.3-.6-.1-1 .4-1 .6 0 1.1.4 1.1 1m-643.5 1.8c-.3.3-1.1 0-1.8-.7-.9-1-.8-1.1.6-.5 1 .3 1.5.9 1.2 1.2m-95.8 8.1c1.8.5 4.6 1.9 6.2 3 1.6 1.2 4.3 2.1 6 2.1 2.8 0 3.1.3 3.1 3 0 1.8-1 3.9-2.7 5.6-2.5 2.5-2.9 2.6-7.7 1.6-2.8-.5-6.9-1.7-9.1-2.5l-4-1.5-.3-7-.3-7.1 2.8.9c1.5.5 4.3 1.3 6 1.9M386 882c0 .5-.5 1-1.1 1-.5 0-.7-.5-.4-1 .3-.6.8-1 1.1-1 .2 0 .4.4.4 1m32.1 18.3c-1 .9-1.1.8-.5-.6.3-1 .9-1.5 1.2-1.2s0 1.1-.7 1.8m69.4 7.7c-.3.5-1.1 1-1.6 1-.6 0-.7-.5-.4-1 .3-.6 1.1-1 1.6-1 .6 0 .7.4.4 1m179 35.7c2.2.3 4.4 1.1 5 1.9.5.7 3.7 2.2 6.9 3.2 6.8 2.3 8.1 3.9 6.4 7.9-2.1 4.6-3.5 5.2-8.6 3.7-2.5-.8-5-1.8-5.6-2.3-.7-.6-2.7-.6-5-.1s-4.9.4-6.6-.1c-2.6-1-2.7-1.2-1.8-5.1.5-2.3.8-4.8.7-5.7-.4-4.4.1-5.3 2.4-4.6 1.2.4 4 1 6.2 1.2m41-.7c.3.5.1 1-.4 1-.6 0-1.1-.5-1.1-1 0-.6.2-1 .4-1 .3 0 .8.4 1.1 1"/><path d="M511.5 188.1c-.4.6-.4 1.3-.1 1.6s.1 1.2-.6 2c-1.5 1.9.2 3.6 3.2 3.1 3.1-.4 4.8-3.3 3.4-5.5-1.2-1.9-5-2.7-5.9-1.2m8.5 9.2c-3.1 1.6-3.2 4.5-.3 6.4 2.1 1.4 2.3 1.3 4.2-1.8 1.5-2.4 1.7-3.6.9-4.6-1.3-1.6-1.7-1.6-4.8 0m-13.3 8.4c-1.4 1.7-1.3 2 .8 4.7 1.5 1.9 2.9 2.7 3.9 2.3 1.6-.6 1.6-2.5 0-7.5-.5-1.7-2.8-1.5-4.7.5m-8.1 11.2c-.8 1.2 2.1 3.4 3.4 2.6.8-.5.8-1.1-.1-2.1-1.3-1.6-2.5-1.8-3.3-.5m314.7 8.1c-1.6.7-2.1 1.6-2 3.6.3 3.4 3 5.3 5.5 3.8 2.3-1.5 2.5-3.5.4-6.1-1.3-1.6-2.2-1.9-3.9-1.3M803 238c-.9 1.6-.8 2.5.1 3.6 1.3 1.6 6.4 1.5 6.4-.1 0-.6-.3-.9-.6-.8s-.5-.8-.5-2c.1-3.1-3.9-3.6-5.4-.7m-18.1.6c-1.1 1.4-1 1.9 1.1 3.6l2.4 2 1.9-2.3c1.2-1.5 1.5-2.5.8-3.2-1.7-1.7-4.8-1.8-6.2-.1m37 1c-1 1.3-.6 1.8 1.4 1.5.4 0 .6.4.5 1.1-.4 1.6 3.1 2.3 4.5.9.7-.7.7-1.4-.2-2.4-1.7-2.2-4.9-2.7-6.2-1.1m-28.6 6.6c-2.2 2.9-2.2 4.8 0 6 4 2.2 5.7 2 6.8-.9 1.2-3.2.4-5.7-1.6-4.9-.8.3-1.7.1-2-.4-.8-1.4-2.1-1.2-3.2.2m20.1 1.3c-1.8 2.7-1.1 4.7 1.4 4.3 1-.1 2.3.1 3 .5 1.8 1.2 2.7-2 1.4-4.9-1.5-3.1-3.7-3.1-5.8.1m-5.8 9.4c-.4.6-1.3.8-2 .5-2.1-.8-3 1.6-1.3 3.4 1.3 1.3 2.1 1.3 4.2.4 1.6-.8 2.5-1.9 2.3-2.9-.4-2-2.4-2.8-3.2-1.4m14.5.9c-.8 1.5-.7 2.3.5 3.3 2.2 1.8 6.9 0 6.9-2.6 0-2.9-5.9-3.4-7.4-.7m-9.1 8.3c-.9 1.6-.8 2.5.6 4 2.3 2.5 3.2 2.4 4.6-.6 2-4.4-2.9-7.7-5.2-3.4m9.2 9.1c-1.7 1.7-1.5 3.2.6 5.2 1.8 1.5 2 1.5 3.7-.5 1.5-1.5 1.7-2.4.9-3.7-1.4-2.2-3.6-2.6-5.2-1m-314.3 17.5c-.1.5-.1 1.2.1 1.8.1.5-.4.5-1-.2-.9-.8-2.2-.7-5.3.7-4.4 2-5.4 3.3-5.3 6.9.2 4 2.8 4.8 8.6 2.7 5.5-2 8.8-1.7 14.6 1 3.7 1.8 5.4 1.1 7.5-2.7 1.4-2.6-10.3-10.9-15.5-10.9-2 0-3.7.3-3.7.7m176.3 15.6-2.2 2.3 2.8 2.6c1.9 1.8 4.2 2.7 7.7 3.1 7.1.8 9.9 2.3 12.4 6.8 2.7 4.8 8.1 6.4 11.2 3.2 1.8-1.8 1.8-2.2.5-5.4-1.7-4-10.3-12.4-14.1-13.9-1.5-.6-5.7-1-9.4-1-5.8 0-7.1.3-8.9 2.3m-206.7 63.5c-5.3 2.3-6.6 3.2-6 4.2.3.4-.3.6-1.4.3-1.4-.3-2.5.7-4.6 4.3-2.6 4.4-2.9 6.2-2.3 14.1.3 5 5.4 5.7 10.3 1.4 4.9-4.2 9.6-4.7 17.5-1.8 5.6 2.1 7.1 3.3 10.9 8.2 3.2 4.1 4.9 5.5 6.2 5.2 1-.3 1.7 0 1.6.7-.4 2 4.8 1.8 6.6-.2 2.4-2.6 3.2-10.7 1.8-17.1-1.5-7.1-6.8-13.4-14.5-17.3-7.6-3.9-19.5-4.8-26.1-2m171 23.8c-8.8 2.8-10.2 3.5-12.8 6.2-3.4 3.5-8 13.9-6.6 14.8.6.3.3 1.1-.7 1.9-1.7 1.2-1.7 1.4-.1 3.9 2.7 4.1 6 4.3 11.9.7 9.7-6 23.9-5.5 36.3 1.5 2.4 1.3 5.1 2.4 6 2.4s1.4.4 1 .9c-1 1.7 5.4 5.4 8.3 4.8 5.2-1 7.6-1.7 8.4-2.5 1.9-1.9 1-8.8-1.8-14.6-4.4-9-15.8-18-19.3-15.2-1.1.8-1.3.8-.8-.1 2.4-4-20.6-7.6-29.8-4.7m-109.1 18.5c-1.8.5-4.6 2.5-6.3 4.4-2.6 3-3.1 4.4-3 8.3 0 2.6.3 5.5.7 6.4 1.2 2.8 7.5 9.8 8.9 9.8.8 0 2.4.6 3.6 1.4s5 1.7 8.3 2.1c5.4.6 6.9.3 11.6-1.9 6.7-3.2 9.7-6.3 10.8-11.1 1.5-6.6-4.4-14.2-14.2-18.4-4.7-2.1-15.1-2.6-20.4-1m-36.2 37c-2.8 1-3.8 5.1-2.4 9.7.6 2.1 1.4 4.8 1.8 6.2 1 4 7.4 9.9 14.3 13.2 5.3 2.5 8 3.1 15.6 3.5 5.9.3 9.5.1 9.9-.6.4-.5 1.3-.8 2.1-.4.9.3 2.1 0 2.9-.6 1-.8 2.9.1 8.2 4.2 7.9 6 14.9 9.6 19.6 10.2 9.5 1.3 13 1.3 20.3-.1 11.6-2.1 18.5-4.2 22.9-7.1 2.8-1.8 3.5-2.8 2.7-3.6-1.8-1.8-1.2-2.8.9-1.5 1.7 1.1 2.4.8 5.3-2.2 4.6-4.8 5.8-7.3 5.1-10.9-.8-4-2.7-5.4-7.1-5.3-2.7.1-4.4 1-6.7 3.5-6.6 7.2-22.1 12.8-34.5 12.4-8.3-.3-17.8-4.4-22.1-9.6-5.1-6.2-5.5-6.7-7-9.7-.9-1.6-2.8-3.5-4.4-4.3-4-1.9-7-.2-9.4 5.3-1.1 2.4-2.9 4.9-4.1 5.5-2.8 1.6-10.6-.3-14.9-3.6-1.8-1.4-4.4-2.6-5.7-2.7-1.2 0-2.1-.6-1.9-1.1.7-1.6-5.2-10.2-7.3-10.7-1-.3-2.9-.1-4.1.3m434.7 217.1c-.1.2-.2 2-.4 4.1-.2 2.6.1 4 1.1 4.4 2.3.8 3.9-1.2 3.8-4.9-.1-2.6-.5-3.4-2.2-3.6-1.2-.2-2.2-.2-2.3 0m-79.3 2.6c-.8 1.4 1.8 5.7 3.8 6 3.3.7 4.2-1.5 1.6-4.3-2.4-2.5-4.5-3.2-5.4-1.7m42.4 3.7c-1 1.2-.9 1.6.5 2.1 2.3.9 4-1 2.2-2.5-1.1-.9-1.7-.8-2.7.4m-52 2.9c-1.3 1.6-.3 2.6 2.6 2.6 1.7 0 2.2.4 1.8 1.5-.5 1.2-1 1.3-2 .4-2-1.6-3.6-.2-2.4 2.2 2 3.7 7.3 1.2 6.7-3.2-.6-3.6-4.7-5.8-6.7-3.5m21.1 2.8c-.8 2.3-.4 5.5.9 6.3 1.1.7 5.3-4.2 4.5-5.4-.3-.6-1.5-1.6-2.6-2.1-1.6-.9-2.1-.7-2.8 1.2m19.8-1.5c-.2 1.4.3 5.8.8 6.6.6 1.1 4.3-1.2 4.3-2.7 0-2.2-4.8-5.9-5.1-3.9m38.6 1.2c-.3.6-.3 1.1.1 1.1s-.1.9-1.1 2c-1.7 1.9-1.7 2.2-.3 3.6s1.8 1.2 4.2-1.7c1.5-1.7 2.5-3.7 2.3-4.3-.5-1.5-4.3-2-5.2-.7m18.5 2.5c-1 1.3-.9 1.7.4 2.2 2.2.8 4.9-.3 4.4-1.9-.7-1.8-3.3-2-4.8-.3m-37.5.6c-1 1.7 1.2 3.7 2.5 2.4.8-.8.6-1.5-.4-2.3-1-.9-1.6-.9-2.1-.1m-76.8 1.7c-.8 1.7-.6 6.2.3 6.8.5.3 1.7-.6 2.6-2 1.3-2 1.4-2.8.4-4-1.4-1.6-2.7-1.9-3.3-.8m29.7 4.8c-1 .8-1.5 1.5-1 1.5s.3.6-.3 1.4c-.8 1-.8 1.6.3 2.5s1.7.6 3-1.3c2.7-4.2 1.5-6.7-2-4.1m17.2.8c-1.2.9-1.4 1.9-.8 4.2 1 3.7 2.2 3.7 4.5-.3 1.8-3 1.8-3.1-.1-4.1-1.4-.7-2.4-.7-3.6.2m18.9.1c-1.8 1.3-1.8 1.4.2 2.4 1.6.9 2.4.8 3.3-.3 1.1-1.4.6-3.5-.9-3.5-.4 0-1.6.6-2.6 1.4m38.6 0c-.8 1-.8 1.6.2 2.5 1.1.8 1.8.7 3.1-.7 1.6-1.9 1.3-3.2-.9-3.2-.7 0-1.8.6-2.4 1.4m-95.8.7c-1.1 1.1-.6 5.6.8 6.5 1.2.7 3.3-4.1 2.6-6s-1.9-2-3.4-.5m76.8.3c-1.8 2.2-.1 9.3 2 8 .5-.3.7-1 .4-1.5-.4-.5.1-.9.9-.9 2 0 3-1.8 1.8-3.3-.6-.7-1-1.6-.9-2.1.3-1.4-3.1-1.6-4.2-.2m17.3 3c-.4 1 0 2.4.8 3.2 1.3 1.3 1.6 1.3 2.6.1.9-1.1.8-1.8-.8-3.2-1.8-1.7-2-1.7-2.6-.1m-113.8.5c-.4.5-.2 1.2.3 1.5.5.4 1.2.2 1.5-.3.4-.5.2-1.2-.3-1.5-.5-.4-1.2-.2-1.5.3m-64.1 1.1c-.4.6-.3 1.6.3 2.2s1.2.6 1.7-.2c.4-.6.3-1.6-.3-2.2s-1.2-.6-1.7.2m19.1 1.9c-.4.5-.2 1.2.3 1.5.5.4 1.2.2 1.5-.3.4-.5.2-1.2-.3-1.5-.5-.4-1.2-.2-1.5.3m91.4 1.6c-1.4 1.7-.5 3.5 1.7 3.5 1.2 0 1.3.3.3 1.5-1.2 1.4-.6 3.5 1 3.5.6 0 1.7-1.6 2.5-3.6 1.1-2.8 1.2-4 .4-5-1.5-1.8-4.3-1.8-5.9.1m-83.7 2.1c-1.6 2.5-1.6 2.7.1 3.9 1.9 1.5 5 1 6.7-1.1.9-1.1.8-1.5-.5-2-.9-.3-2.3-.3-3.2 0-1.4.5-1.5.4-.5-.8.8-.9.8-1.6.2-2s-1.8.5-2.8 2m104.2-.6c-1 1.1-1.5 2.3-1.2 2.7.4.3.2 1.2-.4 1.9-1.4 1.8.8 2.9 2.7 1.3.8-.6 1.2-1.4.9-1.7s.2-1.3 1-2.2c1.3-1.4 1.3-1.9.2-2.9-1.1-.8-1.8-.6-3.2.9m38.7.2c-.5.7-1.2 2.2-1.4 3.3-.2 1.5.3 1.9 2.2 1.9 2.1 0 2.5-.4 2.5-2.8 0-3.2-1.6-4.4-3.3-2.4m-179.7.8c-.3.5-.2 1 .2 1.2 1.3.7 3.3.3 3.6-.6.3-1.2-3.1-1.7-3.8-.6m59.1-.2c-1.1 1 2.7 4.2 5 4.2 3.5 0 3.9-1.9.7-3.2-3.7-1.5-5-1.7-5.7-1m21.3.8c-.9 1.1-.8 1.8.1 2.9 1.9 2.3 5.6 1.8 7.4-1 1.9-2.9 2.1-2.7-2.6-3-2.2-.1-4.3.4-4.9 1.1m19.1-.1c-1.3 1.6-.4 3.9 1.1 2.9.5-.3 1.6-.1 2.3.5 1.6 1.3 4.1-1.1 3.3-3.2-.7-1.8-5.3-1.9-6.7-.2m58.5.7c-1.4 2.1-1.4 2.4.7 4 2.9 2.2 4.7 2.3 5.5.2s-1.3-6.4-3.1-6.4c-.8 0-2.2 1-3.1 2.2m-138.1-.1c-1 1.7 1.3 3.6 2.7 2.2 1.2-1.2.4-3.3-1.1-3.3-.5 0-1.2.5-1.6 1.1m159.1 4.9c-.4.6-.3 1.6.3 2.2s1.2.6 1.7-.2c.4-.6.3-1.6-.3-2.2s-1.2-.6-1.7.2m-67.3 2.3c-1.8 2.4-2.2 4.8-.8 5.3 1.7.7 6.8-2.5 6.3-3.9-.5-1.7-4.5-2.7-5.5-1.4m35.4.9c-.8 1.2-1.2 2.6-.8 3.2.3.6.5 1.9.4 2.9-.4 2.3 2.6 3.4 4.4 1.5.8-.7 1.8-2.9 2.4-4.6.8-3 .7-3.4-1.6-4.2-3.3-1.3-3-1.3-4.8 1.2m-120.3.4c-.9 2.3 1.3 4 3.2 2.4 1.2-1 1.3-1.6.4-2.6-1.5-1.8-2.8-1.8-3.6.2m103.2-.3c-1 .8-1.5 1.9-1.1 2.6.4.6.2 1.9-.5 2.7-.9 1.1-.9 1.8-.1 2.6 1.4 1.4 2.9.3 4.8-3.7 2.3-4.8.7-6.9-3.1-4.2m-124 2.1c-2.6 2.6-2.5 5.2.1 4.2.7-.3 1.6 0 2 .5.9 1.6 2.2-.2 2.6-3.5.4-3.9-1.5-4.4-4.7-1.2m39.9-1.3c-.3.5 0 1.8.6 3 1.1 2 1.2 2 3.1.3 1.1-1 1.8-2.2 1.6-2.8-.4-1.3-4.5-1.7-5.3-.5m21.2 1.4c-1.5 2.3-1.5 2.5.2 3.4.9.5 1.9 1 2.2 1.2.3.1 1.6-.3 2.9-1 1.6-.9 2-1.6 1.2-2.4-.7-.7-1.5-.6-2.7.4-1.6 1.3-1.7 1.2-1.2-.8.9-3.3-.7-3.7-2.6-.8m23-.6c-1.8 2-1.8 2.1.8 3.2 3.3 1.6 5.7-.1 4-2.8-1.6-2.5-2.8-2.6-4.8-.4m81.8 1.1c-3.6 1.4-4.2 6-.9 6 1.6 0 4.9-5.6 3.7-6.3-.4-.3-1.6-.1-2.8.3M772 715.5c-1 1.2-.9 1.6.5 2.1 2.3.9 4-1 2.2-2.5-1.1-.9-1.7-.8-2.7.4m-10.3 4.3c-1 1.5-.4 7.2.8 8.2.8.7 1.8.4 3.1-1.1 1.8-2 1.8-2.2.2-3.3-1-.7-1.5-1.5-1.3-1.8.3-.3-.1-1.1-.9-1.7-.8-.7-1.7-.8-1.9-.3m84.3.7c-1 1.2-1 1.8 0 3 1.5 1.8 2.3 1.3 2.5-1.6.2-2.6-1-3.3-2.5-1.4m-66.4 2.6c-1.2 2.4-1.2 3 0 4 1.5 1.2 7-.1 6.7-1.7-.1-.5.3-1.5.9-2.1 1.1-1.3.6-1.6-3.9-2.6-1.7-.4-2.6.2-3.7 2.4m22.4-.6c-2.9 3-1.7 5 2.4 3.9 3.3-.8 4.3-2.8 2.6-4.9-1.7-2-2.3-1.9-5 1m22.7-1.3c-2.2 1.2-2.1 3 .2 5.9l2 2.4 2.1-2.1c1.8-1.7 2-2.5 1.1-4.2-1.3-2.5-3.3-3.2-5.4-2m43.2-.8c-.3 1.3-.6 2.2-1.4 3.9-1 2.3.8 4.2 3 3.3 1.9-.7 1.7-6.7-.2-7.4-.7-.2-1.4-.1-1.4.2m-77.7 11c-1.5 1.6-1.8 2.7-1.1 4.3 1.1 2.9 2.7 2.9 6.4-.1 2.4-2 2.7-2.6 1.7-3.9-2.1-2.5-4.9-2.6-7-.3m24.4-1.7c-.4.4-1.2.9-1.7.9-.5.1-1.2.2-1.5.3-.4 0 0 .9.7 1.8.8 1 .9 1.4.2 1-.6-.4-1.4-.3-1.8.2-.3.6.7 1.7 2.3 2.5 2.7 1.4 3.1 1.4 4.7-.4.9-1 1.5-2.9 1.3-4.2-.3-2.3-2.7-3.5-4.2-2.1m18.6 1.6c-2 2.1-2.1 2.5-.6 4.5 2.2 3.2 5.1 2.8 6.8-1.1 2.3-5.5-2-7.9-6.2-3.4m20.4-1.4c-.3.4.3 1.6 1.3 2.5 1.6 1.4 2 1.5 3 .2.7-.8 1-2 .6-2.6-.8-1.2-4.2-1.3-4.9-.1m-85.4 2.3c-1.7 1.7-1.5 3.2.7 5.2 2.4 2.2 6.4.6 5.4-2.2-1.5-4.1-3.8-5.3-6.1-3m-17.6 4.7c-1.5 1.7-1.3 3.1.5 3.1 1.3 0 3-3.8 2-4.4-.4-.3-1.6.3-2.5 1.3m28.1 3.9c-2.2 2.4-2.1 4.5.1 6.5 2.5 2.3 2.7 2.2 5.1-1.9 1.7-2.8 1.9-3.9 1-5-1.6-1.9-4.3-1.7-6.2.4m18.7.7c-1 2.4 1.4 4.7 3.7 3.4q3.3-1.65-1.2-3.9c-1.5-.9-2.1-.7-2.5.5m-38.3 1.2c-1.9 1.6-2.1 2.2-1.2 4.6 1.1 2.7 1.1 2.7 3.6 1.1 1.9-1.2 2.5-2.4 2.3-4.2-.4-3.3-1.9-3.7-4.7-1.5m10.5 8.2c-.4.5-.2 1.2.3 1.5.5.4 1.2.2 1.5-.3.4-.5.2-1.2-.3-1.5-.5-.4-1.2-.2-1.5.3m-23 2.3c-3 4.2-1.6 6.5 2.8 4.8 3.1-1.1 3.5-4.5.7-6-1.6-.8-2.3-.6-3.5 1.2m-59-49.3c-.7 1 1.4 2.7 3.2 2.7 1.3-.1 1.7-2.1.5-2.1-.5 0-1.3-.4-2-.8-.6-.4-1.4-.3-1.7.2m9.5 9.5c-.7.8-.8 1.7-.3 2 .6.3 1.5-.1 2.1-.8.7-.8.8-1.7.3-2-.6-.3-1.5.1-2.1.8m-17.5 1.5c-.4.5-.2 1.2.3 1.5.5.4 1.2.2 1.5-.3.4-.5.2-1.2-.3-1.5-.5-.4-1.2-.2-1.5.3m25.9 6.1c-2.1 2.2-2.6 3.3-1.8 4.1 1.6 1.6 4.1.4 5.5-2.6 1.9-4.1-.3-5-3.7-1.5m-18.5-.5c-1.5 1.8-.5 3.5 2 3.5 1 0 2.2-.5 2.5-1 .7-1.1-1.2-4-2.5-4-.4 0-1.3.7-2 1.5m-18 2c-1.8 2.2 0 3.9 2.4 2.2 1.5-1.1 1.6-1.5.3-2.5-1.1-1-1.7-.9-2.7.3m46.7 6.9c-1.3 2-1.4 2.7-.3 4.1 1.7 2.4 3.6 1.1 3.6-2.5 0-3.8-1.4-4.5-3.3-1.6m-10.8 9.2c-.1.5-.1 1.2 0 1.6 0 .5-.5.8-1.3.8-.7 0-1.9.7-2.6 1.5-1 1.2-.9 1.6.3 2.1 2.4.9 5.7-1.4 5.4-3.6-.3-2.1-1.6-3.9-1.8-2.4m-36.4 7.4c-.4.6-.3 1.6.3 2.2s1.2.6 1.7-.2c.4-.6.3-1.6-.3-2.2s-1.2-.6-1.7.2m44.1 2.9c-1.2 1.4-1.4 2.1-.6 2.6 1.7 1 4.7-2.2 3.4-3.5-.7-.7-1.6-.4-2.8.9m-23.2 1.6c-.8 2 1.3 4.5 3.8 4.5 2.4 0 3.4-2.6 1.8-4.5s-4.9-1.9-5.6 0m-13.1 4.1c-.3 1 .4 2.6 2 4.2 2.4 2.3 2.7 2.4 3.3.8.9-2.3-1.1-6.6-3.1-6.6-.9 0-1.8.7-2.2 1.6m225.9 1.6c-1.3 1.3-.3 4.7 1.7 5.8 2 1 4.4-.2 4.7-2.4.4-2.6-4.6-5.2-6.4-3.4m17.9 1.1c-1.3 1.7-.5 2.7 2.4 2.7 1.2 0 2.5-.3 2.8-.7.9-.8-1.2-3.3-2.8-3.3-.7 0-1.8.6-2.4 1.3m-32.6 2.6c-.7 1.2 1.2 2.4 2.5 1.6 1.1-.7.4-2.5-1-2.5-.5 0-1.1.4-1.5.9m6 4.7c-1.8 2-2.2 3.1-1.5 4.4 1.4 2.6 4.6 3.1 6.5 1 1.5-1.7 1.5-2.1 0-4.9-.8-1.7-1.8-3.1-2.1-3.1s-1.6 1.2-2.9 2.6m-228.1-.5c-.2.3.7 1.5 1.9 2.6 1.7 1.6 2.7 1.9 4.5 1.2 1.9-.7 2.1-1.2 1.2-2.8-.7-1.4-1.9-2-4.1-1.8-1.7.1-3.3.5-3.5.8m247.8 1.1c-1.7 1.7-1.5 4.3.4 5.8 1.3 1.1 1.9 1 3.6-.8 2.1-2.1 2.1-2.2.3-4.2-2.1-2.3-2.7-2.4-4.3-.8m-38.5.5c-1.1 1.1-.8 4.8.5 6.1 1.9 1.9 6.1-2.5 4.7-4.9-1-1.9-3.9-2.5-5.2-1.2m-20.4 1.9c-.9 2.4 1 4.9 3.8 4.9 3 0 3.8-3.3 1.3-5.2-2.4-1.8-4.3-1.6-5.1.3m-194.4 4c-.1.5-.1 1.3 0 1.7.1.5-.3.6-.8.3-1.6-1-2.3 1.2-1.1 3.4.9 1.7 1.4 1.9 2.6.9.8-.6 1.3-2.2 1.1-3.5-.3-2.4-1.6-4.4-1.8-2.8m224.3 2.6c-2.6 2.6 0 7.7 3.3 6.4 2.5-.9 2.9-3.5 1-5.6-2.1-2.3-2.7-2.4-4.3-.8m-205.6.7c-.3.4.1 1.7.9 2.7 1.1 1.5 1.6 1.6 2.6.7 1-1 .9-1.5-.1-2.8-1.4-1.7-2.6-1.9-3.4-.6m146.5.5c-1.7 2 .3 5.6 3 5.6s3.5-2.7 1.4-5c-2.2-2.4-2.9-2.5-4.4-.6m21.3-.4c-3 1.2-3.8 2.8-2.3 4.6 1.5 1.9 4.9 1.4 6.3-.8 1.5-2.5-1.1-4.9-4-3.8m18.6.9c-2 1.6-2.2 2.1-1.1 3.5 1.9 2.2 4.8 2 6.1-.5.9-1.5.8-2.4-.1-3.5-1.5-1.8-1.9-1.8-4.9.5m37.1-.5c-1 1.2-.8 1.9.8 3.5 1.2 1.2 2.6 2.1 3.1 2.1 1.3 0 3.2-4.8 2.4-6.1-.8-1.4-5-1.1-6.3.5m-234.7 8.1c-.8 1.9.9 4 2.4 3.1 1.3-.8.9-3.9-.6-4.4-.7-.2-1.5.4-1.8 1.3m227.1.5c-1.5 1.7-1.6 2.4-.6 4.6 1.1 2.5 3.9 2.9 3.3.5-.1-.7.2-1 .8-.6 2 1.2 2.3-2.7.3-4.6-1.9-2-1.9-2-3.8.1m17.9.6c-1.6 2.4-1.6 2.6.4 4.7 2.1 2 2.2 2 4.2.2 2.3-2 2.6-4.5.8-6.3-1.9-1.9-3.6-1.4-5.4 1.4m-115-.1c-.9 2.3 1 4 2.5 2.2.9-1.1.8-1.7-.4-2.7s-1.6-.9-2.1.5m36.7-.1c-1.3 1.6-.4 4.3 2.2 6.4 1.1.9 1.9.7 3.6-1.2 1.9-2 2.1-2.8 1.2-4.5-1.3-2.4-5.3-2.8-7-.7m20.3.1c-.4 1 .2 2.5 1.5 3.8 2.2 2.2 2.2 2.2 3.7.2 2.1-2.8 1.3-4.9-1.9-5.3-1.8-.2-2.9.2-3.3 1.3m20.9-.3c-2.1 2.8-2.2 4.8-.3 5.8 2.9 1.6 4 1.2 5-1.6 1.6-4.1-2.2-7.4-4.7-4.2m-60.9 1.3c-.9 2.3.3 4.5 2.4 4.5 2.5 0 4.6-2.5 3.8-4.5-.7-1.9-5.5-2-6.2 0m-158.2 7.1c-4.5 3.2-1.4 6.9 3.2 3.9 3.1-2 3.3-3.1.8-4.4-1.4-.7-2.5-.6-4 .5m128.2.8c-1.1 2.9.1 5.1 2.9 5.4 3.2.4 4.4-1.6 2.7-4.7-1.2-2.4-4.8-2.8-5.6-.7m41.8-.3c-3.1 1.2-2.5 4 1.1 5.7 3.3 1.6 4.7.9 4.7-2.3 0-3-2.7-4.6-5.8-3.4m20.1.6c-2.7 1.8-2.9 3.5-.8 5.3 1.3 1 1.9 1 3.5-.5 3.7-3.4 1.3-7.5-2.7-4.8m37.5.8c-2.1 4.6 3.9 7.9 6.2 3.4.9-1.6.8-2.5-.6-4-2.3-2.6-4.2-2.4-5.6.6m-209.2-.6c-.4.5-.2 1.2.3 1.5.5.4 1.2.2 1.5-.3.4-.5.2-1.2-.3-1.5-.5-.4-1.2-.2-1.5.3m73.6.3c-.7.7-1.2 1.8-1.2 2.4 0 2.2 1.7 2.4 3.4.5 1.4-1.5 1.4-2 .3-2.9-1-.9-1.7-.8-2.5 0m16.5-.6c-.4.4-.3 1.2.1 1.8s.7 1.5.7 2 1 1 2.1 1.2c2.4.4 5.9-2.9 4.9-4.5-.7-1.2-6.8-1.5-7.8-.5m42.6.6c-2.7 4.5.6 7.8 3.9 3.8 1.4-1.7 1.6-2.6.7-3.6-1.4-1.7-3.5-1.8-4.6-.2m96.1.3c-.9 2.1.3 4.5 2.1 4.5 1.6 0 3.6-3.9 2.8-5.3-.8-1.3-4.3-.7-4.9.8m-39.4 1c-1.6 1.9-.4 3.3 3 3.7 2.1.3 2.5-.1 2.5-2.2 0-3-3.5-4-5.5-1.5m-108.5 7.1c-1.8 2.8-1.4 5.4 1 5.4 2.2 0 3-.4 2.8-1.3-.2-.4.2-.6.9-.5 2.3.5 1.9-2.9-.6-4.5-2.3-1.6-2.5-1.5-4.1.9m99.4.5c-.9 1.7-.8 2.5.4 3.7 1.8 1.7 4.5 1 5.4-1.4.4-1.1-.1-2.2-1.2-3-2.5-1.9-3.2-1.8-4.6.7m40.2-.2c-2.4 2.4-2.4 3.9.1 5.4 3.7 2.4 6.3-1.9 3.5-5.8-1.3-1.7-1.5-1.7-3.6.4m19.1-.7c-1.6 1.6-1.5 4.3.1 5.7 1.1.8 1.8.7 3-.7 1.8-2 1.9-3.2.5-5-1.3-1.5-2.1-1.5-3.6 0M737.5 804c-1.7 1.9-1.7 2.2-.3 3.7 3 2.9 7.4-1 4.8-4.2-1.6-2-2.3-1.9-4.5.5m37.7-.2c-.8 2.1 1.3 4.8 3.4 4.4 2.9-.6 4-2 2.8-3.9-1.3-2.1-5.4-2.4-6.2-.5m19.7-.1c-1.5 1.8.6 4.3 3.6 4.3 3.4 0 4.9-2.3 2.7-4.2-2.1-1.9-4.9-1.9-6.3-.1m20.3-.5c-1.6 1.6-1.5 3.3.2 4.7 2.2 1.8 5.8-.4 5.4-3.2-.3-2.5-3.7-3.4-5.6-1.5m18.1.5c-.8 2.2 3.1 5.3 5.7 4.6 2.7-.7 4.4-3.8 2.7-5.1-2-1.6-7.7-1.3-8.4.5m41.3.5c-1.8 2.5-.6 4.8 2.5 4.8 2.5 0 4.4-3.7 2.8-5.6-1.6-2-3.5-1.7-5.3.8m-150.2-.1c-.3.6 0 1.7.8 2.5 1.3 1.3 1.6 1.3 2.7 0 .7-.8 1-2 .6-2.6-.8-1.3-3.2-1.3-4.1.1m-52 8.3c-.9 2.4 1.2 4.4 2.8 2.8 1-1 .8-1.6-.5-2.9-1.5-1.5-1.7-1.5-2.3.1M806 812c-2.3 1.3-2 6.4.3 6.8 2.1.4 5.9-2.6 5.1-3.9-.3-.5-.9-.7-1.4-.4-.4.3-.7-.3-.6-1.2.1-1.9-1.4-2.5-3.4-1.3m18.5 1c-1.8 2-1.8 2.1.2 4.1 1.7 1.7 2.4 1.9 4.2 1 2.3-1.3 2.8-4 .9-5.9-1.7-1.7-3.2-1.5-5.3.8m59.8-.8c-1.9 3.2-.1 6.3 3.3 5.6 1.7-.3 3.7-5.1 2.6-6.2-1-1.1-5.1-.6-5.9.6m19.9 0c-.7.7-1.2 2-1.2 3 0 2 4.4 5.3 6 4.3 1.8-1.1 1.2-6.3-.9-7.5-2.4-1.3-2.4-1.3-3.9.2m-139.7.9c-.8 1.2 2.3 4.9 4.1 4.9 1.3 0 4-3.9 2.9-4.1-.3-.1-.9-.2-1.4-.3-.5 0-1.3-.4-1.7-.9-1.1-1-3.2-.9-3.9.4m20.5.4c-1 1.2-1 1.8 0 3 .7.8 1.8 1.5 2.5 1.5s1.8-.7 2.5-1.5c1-1.2 1-1.8 0-3-.7-.8-1.8-1.5-2.5-1.5s-1.8.7-2.5 1.5m80.2-.4c-3.1 1.2-2.5 4.3.9 4.7 2.9.3 5.4-2 4.5-4.3-.6-1.7-2-1.8-5.4-.4m-118.8 1.3c-1.5 1.2-1.6 1.7-.7 2.7 1 1 1.8 1 3.9 0 2.1-.9 2.4-1.4 1.4-2.6-1.5-1.9-2.1-1.9-4.6-.1m102.1-.3c-.4.6-1.3.8-2 .5-.7-.2-1.6-.2-1.9.1-.9.9 1.3 4.3 2.8 4.3 1.8 0 4.9-3.7 4.1-4.9-.8-1.4-2.2-1.4-3 0m-121.9 1.8c-.4.5-.2 1.2.3 1.5.5.4 1.2.2 1.5-.3.4-.5.2-1.2-.3-1.5-.5-.4-1.2-.2-1.5.3m108.1 5.9c-3.5 3.9-.3 7.1 4.6 4.5l2.9-1.5-2.3-2.4c-2.7-2.9-3.1-2.9-5.2-.6m41.6-.7c-2.7 1-3.1 4.7-.7 5.6.9.3 2.4-.3 3.5-1.4 1.6-1.5 1.7-2.2.7-3.5-1-1.2-1.9-1.4-3.5-.7m18.8.8c-2.4 2.4-2.6 3.5-.8 4.8 1.9 1.5 5.4 1.3 6.8-.3 1-1.2.8-2-1.3-4.1l-2.6-2.5zm-139.6.5c-1.6 1.2-1.7 1.6-.6 3 1.7 2 5 2.1 5.7.1.6-1.5-1.1-4.5-2.5-4.5-.4 0-1.6.6-2.6 1.4m19.5.1c-1.6 1.9-.6 4.5 1.8 4.5 2.9 0 4.8-2.6 3.2-4.5s-3.4-1.9-5 0m19.6.7c-1.7 2.4-1.4 3.3 1.3 4.1 2.6.6 5.6-3.4 3.8-5.2-1.7-1.7-3.4-1.3-5.1 1.1m20.4-.7c-1.9 2.3-.4 4.7 2.7 4.3 2.9-.3 3.7-2.3 2-4.6-1.3-1.6-3.2-1.5-4.7.3m39.6.4c-1.5 1.6-1.5 1.9.4 3.6s2.1 1.7 4 0c2.1-1.9 1.9-2.9-.9-4.5-1.4-.7-2.3-.5-3.5.9m-118.4.3c-1.4 1.4.2 3.8 2.8 3.8 2.4 0 3.1-1 1.9-3.1-1.1-2.2-3-2.4-4.7-.7m179.3.8c-1.1 1.7.5 3.2 2.1 1.9.7-.6 1.1-1.5.8-2-.7-1.2-2.1-1.1-2.9.1m-197.9.8c-.3.6.1 1.5.8 2.1.8.7 1.7.8 2 .3.3-.6-.1-1.5-.8-2.1-.8-.7-1.7-.8-2-.3m128.1 7c-1 1-1.7 2.4-1.7 3 0 1.8 3.3 3 5.6 2.2 3.5-1.3 4-3.1 1.4-5.2-2.8-2.2-3.3-2.2-5.3 0m-80 .9c-3.7 1.9-3.2 4.8.8 4.8 2.4 0 3.1-.5 3.3-2.4.5-3.3-.8-4-4.1-2.4m38.3-.2c-1 1.3-1 1.9.5 3.5 1 1.1 2.3 2 3 2 1.9 0 4.8-3.8 4.2-5.5-.8-2-6.1-2-7.7 0m20.7-.9c-1.3 1.4-.7 4.3 1.2 5.3 2.3 1.3 4.5-.8 3.9-3.6-.3-1.8-3.8-3-5.1-1.7m39.2 1c-1.5 1.9-.2 4.7 2.5 5.2 2.8.6 5.7-2.7 4.5-4.9-1.2-2.3-5.2-2.5-7-.3m22.6-.6c-.4.6-1.1.8-1.6.5-1.3-.9-2.4 2.4-1.1 3.7.6.6 1.8.7 2.9.3 1-.5 2.1-.9 2.5-.9 1.5-.2 3-2.5 2.4-3.5-.9-1.4-4.3-1.4-5.1-.1M726 833.6c-1.1 1.2-1.1 1.8.1 3 1.3 1.2 1.8 1.2 3.4 0s1.7-1.6.6-3c-1.7-2-2.5-2-4.1 0m20-.1c-1.1 1.3-1.1 1.9.3 3.2 2.1 2.1 4.9.9 4.5-1.9s-3-3.5-4.8-1.3m39 0c-1.1 1.3-1.1 1.9.4 3.3 2 2 5.1.6 5.1-2.4 0-2.4-3.7-3-5.5-.9m120.5-.5c-.4.6-.3 1.6.3 2.2s1.2.6 1.7-.2c.4-.6.3-1.6-.3-2.2s-1.2-.6-1.7.2m-31.3 7.2c-1.8 1.8-1.5 7.7.3 8.5 2.1.7 5.5-2.5 5.5-5.2 0-2.3-1.7-4.5-3.5-4.5-.6 0-1.6.5-2.3 1.2m21.9.2c-1.4 1.7-.7 3.6 1.4 3.6 2.2 0 2.9-2 1.3-3.6-1.3-1.3-1.6-1.3-2.7 0m-61.6.7c-.4.6-.4 1.3-.1 1.6s.1 1.2-.4 1.8c-.7.9-.3 1.7 1.4 2.8 2.2 1.5 2.5 1.5 4-.2 2.1-2.3 2-3.4-.2-5.4-2.1-2-3.8-2.2-4.7-.6m19.9 2c-1.9 3.7-.7 5.7 2.3 4 3.5-1.8 4.7-3.9 3.3-5.6-1.9-2.3-3.8-1.8-5.6 1.6m-119.3-.7c-1.1 1.3-1.1 1.9-.1 3.1 1.4 1.7 3.6 2 4.4.6.3-.5-.2-1.9-1.2-3.1-1.6-2-1.9-2.1-3.1-.6m20.3 0c-1 2.6.4 4.8 2.8 4.4 1.5-.2 2.3-1 2.3-2.3 0-1.1-.4-2-1-2-.5 0-1.6-.4-2.3-.8-.7-.5-1.4-.2-1.8.7m19.6.1c-.9 1-1 1.9-.4 2.5 1.3 1.3 4.9-1.3 4-2.8-1-1.6-2.1-1.5-3.6.3m19.6.4c-1.6 1.7-1.7 2.3-.6 3.6.7.9 2.3 1.5 3.4 1.3 1.6-.2 2.1-1 2.1-3.3 0-3.6-2.4-4.4-4.9-1.6m21.5-.5c-1.4 1.7-1.1 4.8.4 5.3.6.2 2-.3 3-1.1 1.6-1.2 1.8-1.9.9-3.2-1.4-2.4-2.9-2.7-4.3-1m-98.9.8c-2.9 2.9-.2 6 2.9 3.2 1.4-1.3 1.6-2 .8-3.1-1.4-1.6-2.2-1.6-3.7-.1m48.8 8.3c-1.8 2.1-.1 3.5 2.9 2.4 1.9-.8 2.1-1.2 1.1-2.4-1.6-1.9-2.4-1.9-4 0m38.2-.3c-.6.8-.6 2.2-.1 3.7.8 1.9 1.4 2.2 3.7 1.6 4.1-1 4.8-2.2 2.7-4.5s-4.8-2.6-6.3-.8m19.8.3c-1.8 2.2-.8 5 1.9 5 2.8 0 4.7-2.5 3.8-4.9-.8-2-4-2.1-5.7-.1m19.8 1c-.9 1.9-.9 2.8 0 3.7 1.6 1.6 5.7-2.3 4.9-4.6-1-2.4-3.6-1.9-4.9.9m-118.1.3c-1.9 2-1.3 3.2 1.4 3.2 2.5 0 3.4-1.9 1.7-3.6-1.2-1.3-1.7-1.2-3.1.4m58.3-.3c-1.7 2.1-.5 4.5 2.3 4.5 3.4 0 5.4-2.5 3.7-4.5-1.6-1.9-4.4-1.9-6 0m81 .1c-.9 1-1 1.8-.2 2.6 1.2 1.2 3.2.2 3.2-1.7 0-2.1-1.6-2.6-3-.9m-118.3.5c-2.1 1.2-1.3 2.9 1.3 2.9 2.4 0 3.3-1.5 1.7-2.8-.8-.7-1.8-.7-3-.1m-92.1 3.8c-.4.5-.2 1.2.3 1.5.5.4 1.2.2 1.5-.3.4-.5.2-1.2-.3-1.5-.5-.4-1.2-.2-1.5.3m199.9 1c-.7 1.2 1.2 2.4 2.5 1.6 1.1-.7.4-2.5-1-2.5-.5 0-1.1.4-1.5.9M734 861.4c-2.7 3.3 1.8 7.2 4.8 4.2 1.3-1.3 1.4-2 .6-3.4-1.5-2.3-3.8-2.6-5.4-.8m20 .7c-.9 1.5-.8 2.4.1 3.5 1.6 1.9 3.3 1.8 5.4-.6 1.5-1.6 1.5-2.2.5-3.5-1.8-2.1-4.7-1.9-6 .6m19.2-.9c-1.9 1.9-1.4 3.7 1.3 5 4.3 2 7.7-2.9 3.6-5.2-2.5-1.3-3.4-1.3-4.9.2m22.5-.6c-.4.4-.3 1.2.1 1.8s.7 1.5.7 2.1c0 1.6 3 1.1 3.1-.5.1-2.8-2.4-4.9-3.9-3.4m19 .1c-.9.8.7 5.5 1.9 6 2.1.8 4.5-1.7 4.2-4.1-.2-1.5-1.1-2.1-3-2.2-1.5-.1-2.9.1-3.1.3m19.3 1.2c-.6 1.2-.6 2.2-.1 2.6.6.3 1.5-.3 2.1-1.4.6-1.2.6-2.2.1-2.6-.6-.3-1.5.3-2.1 1.4m-116.9.2c-2.3.9-2.4 1.1-.8 2.6 1.6 1.6 1.8 1.6 3.4 0 2.3-2.2.6-3.8-2.6-2.6m88.5 6.8c-.4.5-.2 1.2.3 1.5.5.4 1.2.2 1.5-.3.4-.5.2-1.2-.3-1.5-.5-.4-1.2-.2-1.5.3m-41.7 2.7c-1.7 2.1 0 4.9 3.1 4.9s4.8-2.8 3.1-4.9c-.8-.9-2.1-1.6-3.1-1.6s-2.3.7-3.1 1.6m19-1.4c-.7 3.3-.6 4.8.4 5.5 2.2 1.4 5.4 1.3 6.7-.1 1.3-1.6.5-4-1.1-3-.5.3-.8 0-.7-.8.2-.8-.8-1.4-2.4-1.6s-2.8-.2-2.9 0m-59.5 2.3c-.8 2 1.3 4.5 3.7 4.5s4.2-3.3 2.7-4.8c-1.7-1.7-5.8-1.5-6.4.3m20 0c-.7 1.8 1.2 4.5 3.2 4.5.7 0 1.8-.9 2.4-2 .8-1.5.6-2.1-.9-3-2.7-1.4-4.1-1.3-4.7.5m-89.8 1.4c-.4.5-.2 1.2.3 1.5.5.4 1.2.2 1.5-.3.4-.5.2-1.2-.3-1.5-.5-.4-1.2-.2-1.5.3m81 7.4c-1.5 1.1-1.7 1.7-.7 3.5 1.5 2.7 3.3 2.8 5.6.2 3.4-3.7-.7-6.8-4.9-3.7m18.3.9c-1 1.8-.8 2.4.7 3.5 1 .7 2.3 1.2 2.8 1 1.7-.6 2.9-3.4 2.3-5.1-.9-2.3-4.4-2-5.8.6m-37.9.3c-1.6 1.9-.5 3.5 2.4 3.5 3.1 0 5-2.2 3.4-3.8s-4.3-1.5-5.8.3m-69 1.4c-.5 1.1-.6 2.2-.2 2.5 1.4.8 4.6-2 3.8-3.2-1.1-1.7-2.4-1.5-3.6.7m18.5-1c-.7 1.2 1.2 2.4 2.5 1.6 1.1-.7.4-2.5-1-2.5-.5 0-1.1.4-1.5.9m58.7 7.3c-.9.9-.8 1.6.5 3 .9 1 2.2 1.8 2.9 1.8 2.2 0 2.7-2.1.8-4.1-2-2.2-2.6-2.3-4.2-.7m-571.6-3.3c-.4.5-.2 1.2.3 1.5.5.4 1.2.2 1.5-.3.4-.5.2-1.2-.3-1.5-.5-.4-1.2-.2-1.5.3m512 64c-.4.5-.2 1.2.3 1.5.5.4 1.2.2 1.5-.3.4-.5.2-1.2-.3-1.5-.5-.4-1.2-.2-1.5.3m7 1c-.4.5-.2 1.2.3 1.5.5.4 1.2.2 1.5-.3.4-.5.2-1.2-.3-1.5-.5-.4-1.2-.2-1.5.3m203-612.8c-2.9 3.4-3 5.6-.4 7.3 2.7 1.7 6-1.9 5.6-6.3-.4-4.6-2-4.9-5.2-1m17.5 1.8c-.8 1.4-.7 2.2.4 3.1.8.7 1.5 1.1 1.6.9 1-4.7-.3-7.3-2-4m-9.9 6.7c-2.8 1.2-3.1 1.7-2.2 3.4.6 1.1 2 2.5 3.1 3.1 2.7 1.4 5.6-1.1 5.5-4.9-.1-3.2-1.8-3.6-6.4-1.6m-506.8 7.8c-1.5 1.2-1.7 1.7-.6 2.7 1 1.1 1.5 1 2.9-.4 2.4-2.3.4-4.3-2.3-2.3m541.1.6c-.9 1.5.3 3 2.4 3s4.4-2.3 3.4-3.3c-1-1.1-5.1-.8-5.8.3m-41.8.6c-1.1 1.1-.8 6.2.3 6.9 1.8 1.1 4.1-1.7 3.8-4.4-.3-2.5-2.7-3.9-4.1-2.5m18.5.5c-1.9.7-2.1 1.2-1.2 2.9 1.8 3.3 4.5 4.2 6.9 2.2 1.1-.9 2.1-2.6 2.3-3.7.2-1.5-.3-2-2.7-2.1-1.6-.1-4 .2-5.3.7m-500.1 2.8c-1.2 2.1-.6 2.8 1.9 2.7 1.8-.1 2-3.8.3-4.3-.6-.2-1.6.5-2.2 1.6m518.3 2.2c-1 1.7 1.3 3.6 2.7 2.2 1.2-1.2.4-3.3-1.1-3.3-.5 0-1.2.5-1.6 1.1M363.5 365c-1 1.7 1.2 3.7 2.5 2.4.8-.8.6-1.5-.4-2.3-1-.9-1.6-.9-2.1-.1m16.6 2.4c-1 1.2-.8 1.7.9 2.6 2.9 1.5 4.9-.2 3-2.5-1.6-1.9-2.4-1.9-3.9-.1m502.3 1c-1.9 1.5-1.8 1.6.8 4.2l2.6 2.7 1.6-3.2c.9-1.7 1.4-3.6 1.1-4.1-.9-1.4-3.8-1.2-6.1.4m8.5 9.7c-1.2 2.2.1 6.9 1.9 6.9s4.4-3.9 4-6.1c-.4-3.1-4.4-3.6-5.9-.8m56.5 3.2c-.3.9-.3 2.5 0 3.4.6 1.5.8 1.5 2.4 0 1.5-1.6 1.5-1.8 0-3.4-1.6-1.5-1.8-1.5-2.4 0m-66.1 5.7c-4.1 1.7-2.5 5.2 2.9 6.5 2.3.6 2.9.3 4-2 1.1-2.4 1-2.9-.7-4.1-2.1-1.6-3.1-1.6-6.2-.4m19.8.4c-1.9 2.3.3 5.6 3.5 5.4 3.4-.3 4.1-2.3 1.9-4.8-2.1-2.4-3.8-2.5-5.4-.6m-7.5 10.5c-.4.6-1.3.8-2 .5-1.7-.6-4.2 2.4-3 3.6.5.4 2.5 1 4.4 1.2 2.9.2 3.5 0 3.8-1.8.3-2.3-2.2-5.1-3.2-3.5m-20 2c-.4.5-.2 1.2.3 1.5.5.4 1.2.2 1.5-.3.4-.5.2-1.2-.3-1.5-.5-.4-1.2-.2-1.5.3m76 4c-.9 1.5 2.3 3.6 3.6 2.3.5-.5.7-1.5.4-2.1-.9-1.3-3.3-1.4-4-.2m-67 5.2c-1.6 2.4-1.3 3.9.9 3.9 2.3 0 3.7-3.6 2.1-4.9-1.1-.9-1.8-.7-3 1m-8.1 12.8c-.7 1.2 1.2 2.4 2.5 1.6 1.1-.7.4-2.5-1-2.5-.5 0-1.1.4-1.5.9m74.4.7c-1.8 2.2 1.4 5.3 3.9 3.8 2.3-1.5 2.1-3.5-.5-4.5-1.5-.5-2.5-.3-3.4.7m-21.5 1.5c-.9 1.6 1.2 3.3 3.1 2.5 1.4-.5 1.5-.9.5-2.1-1.5-1.8-2.6-1.9-3.6-.4m-45.3 7.2c-.9 1.1-.8 1.7.4 2.7s1.6.9 2.1-.5c.9-2.3-1-4-2.5-2.2m75.4 4.7c-1 1.7 1.2 3.7 2.5 2.4.8-.8.6-1.5-.4-2.3-1-.9-1.6-.9-2.1-.1m-29.5 6.5c-.7.8-.9 2.2-.6 3.1.8 2.1 4.2 1.3 3.8-.9-.2-1 .1-1.6.5-1.5.4.2 1-.1 1.3-.6.9-1.6-3.7-1.6-5-.1m-39 1c-1.1 1.3-1 1.9.5 3.5 1.6 1.7 1.9 1.8 4 .4 1.3-.8 2.2-2.3 2.1-3.2-.4-2.2-4.9-2.8-6.6-.7m-18.4.3c-.9 1.4 2.1 3.5 4 2.8.8-.3 1.4-1.2 1.2-1.9-.6-1.5-4.4-2.2-5.2-.9m78.9 1.3c-1.7 1.8-1.7 2.1-.3 3.5 2 2 3.8 1 3.8-2.1 0-3.3-1.4-3.8-3.5-1.4m-82.5 7.4c-.7 1.9-.7 3.2-.1 3.8q1.05 1.05 2.1-1.8c.7-1.9.7-3.2.1-3.8q-1.05-1.05-2.1 1.8m13.2-.9c-2.5 1.7-2.6 4.6-.2 5 .8.1 2.3.5 3.2.9 2.4.9 3.4-1.9 2-5.1-1.4-2.8-2-2.9-5-.8m57.8 2.9c-1.1 1.3-.9 2 1 4 2.9 3.1 3.8 3.1 5.2 0 2-4.3-3.2-7.6-6.2-4m-9 11.5c-1.7 1.7-1.9 2.4-.9 3.6 2.5 3 7.5.6 6.7-3.3-.5-2.6-3.4-2.7-5.8-.3m19 .6c-1.1 1.3-.9 2 1.7 4.5 2.3 2.4 3.2 2.8 4 1.7.8-.9.8-2.2-.2-4.6-1.5-3.5-3.5-4.1-5.5-1.6m-75.4 5.3c-.8 1.2 2.1 3.4 3.4 2.6.8-.5.8-1.1-.1-2.1-1.3-1.6-2.5-1.8-3.3-.5m66.6 6.4c-2.2 2.4-2.3 2.6-.5 3.5 1 .6 1.7 1.4 1.6 1.9-.2.4.7.8 2 .8 2.9 0 3.4-3.4 1-6.4l-1.8-2.2zm-59.6 3.6c-.4.5.6 1.9 2 3 2.1 1.7 3 1.9 4.1.9 1.1-.9 1.2-1.4.1-2.4-1.9-1.7-5.5-2.6-6.2-1.5m49.9 6.1c-.3.5-.4 1 0 1 .3 0 .1.9-.4 1.9-1.3 2.3.5 4.1 3.4 3.7 2.7-.4 3.3-4.6.9-6.3-2.1-1.6-3.1-1.6-3.9-.3m21 2c-1.5 1.6-1.6 2.2-.5 3.5 1.8 2.2 3.2 1.4 3.6-1.8.3-3.5-.9-4.2-3.1-1.7m-31.9 7.9c-1.8 1.9-1.2 3.1 1.5 3.1.9 0 2 .7 2.3 1.6.9 2.3 3.8-.2 3.4-2.9-.4-2.9-5.2-4-7.2-1.8m20.4 1.7c-.6 1.5-.9 3.3-.6 3.9.7 2.1 4.4 2.4 6 .6 1.2-1.4 1.3-2.1.3-4.1-1.8-3.6-4.5-3.7-5.7-.4m-10.1 8c-.1.5-.1 1.3 0 1.7.1.5-.3.6-.8.3s-1.4.1-2.1.8c-1.7 2.2 3.3 5.4 5.5 3.6 1.4-1.1 1.4-1.5.1-2.9-.8-.9-1.5-2.1-1.6-2.6-.2-1.4-1-2-1.1-.9m19.1 1.9c-1 1.2-1 2.1-.1 4.1 1.5 3.4 3.6 2.5 3.6-1.6 0-3.7-1.5-4.9-3.5-2.5m-11 8c-1.9 2.3-.8 5 2 5 1.8 0 2.6-.6 2.8-2.2.4-2.9-3-4.9-4.8-2.8m-18.3 1.3c-1.6 1.8-1.6 2 .3 3.7 2.6 2.3 4.6 1.4 4.5-2.1 0-3.5-2.4-4.3-4.8-1.6m-11.2 11.1c-.7 1.2 1.2 2.4 2.5 1.6 1.1-.7.4-2.5-1-2.5-.5 0-1.1.4-1.5.9m21 1.5c-1.4 1-1.5 1.5-.6 2.1.8.4 1.9.1 2.8-.8 2-1.9.1-3-2.2-1.3m11.7 8.2c-2.7 1.9-1.5 4.2 2.1 4 1.6-.1 2.2-.7 2.2-2.5 0-3.1-1.4-3.6-4.3-1.5m-35.6 1.3c-.7 1.1 3.9 4.3 4.8 3.4.7-.7-2.3-4.3-3.5-4.3-.4 0-1 .4-1.3.9m26 8.4c-1.7 1.3-1.7 1.4.8 3 4.6 3.1 8.4 1.3 5-2.4-2-2.2-3.4-2.4-5.8-.6m-18.2.8c-.3.6 0 1.8.9 2.6 1.2 1.2 1.9 1.3 3.6.3 1.8-.9 2-1.4 1-2.6-1.4-1.7-4.5-1.9-5.5-.3M114 556l-2.5 1.9 2.4 2.5c1.8 1.9 2.8 2.3 3.7 1.5.7-.6 1.1-1.6.8-2.4-.3-.7 0-1.6.6-2 .8-.5.8-1.1-.1-2.1-1.5-1.8-1.9-1.8-4.9.6m787.7 3.6c-1.2 1.3 1.4 4.4 3.7 4.4 3.1 0 5-2.2 3.4-3.8-1.3-1.3-6-1.6-7.1-.6m21.1 1c-.9.8 2.3 6.5 3.3 5.9.5-.4.9-1.2.9-1.9 0-1.6-3.4-4.8-4.2-4M105 565.5c-1.1 1.3-1.1 1.9.3 3.3 1.5 1.5 1.9 1.5 3.2.1 1.4-1.4 1.4-1.7-.3-3.2-1.7-1.6-2-1.6-3.2-.2m806.1 5.8c-.9 1.1-.7 1.9.9 3.8 2 2.4 2 2.4 3.5.4.9-1.1 1.4-2.6 1.3-3.5-.4-2-4.2-2.5-5.7-.7m18.8.3c-2.5 3.1 3.2 7.5 6.6 5 1.5-1.1 1.5-1.4-.5-3.9-2.4-3.1-4.2-3.4-6.1-1.1M113 573c-2.8.7-3.4 3.7-1 5.2 2 1.3 7-.7 7-2.6 0-2.1-3-3.4-6-2.6m787.5 8.9c-.3.6.1 1.3.8 1.8.7.4 1.6 1.6 2 2.5.7 1.9 5.2 2.5 6.2.8.3-.5.1-1.9-.6-3.2-1.1-2.1-1.2-2.1-2.5-.3-.8 1-1.4 1.4-1.4.7 0-1.6-3.7-3.5-4.5-2.3m21.6.5c-1.6 1.9-.6 5.3 2.1 6.7 1.8 1 2.4.8 3.5-.7 2.2-3 1.3-6.8-1.8-7.2-1.4-.2-3.1.4-3.8 1.2m-61.6 1.6c-1.9 2.1-1.4 4.7 1.1 5.7 3.6 1.3 6.4-3.2 4-6.5-1.2-1.7-3-1.5-5.1.8m-755 0c-.3.4.1 1.3.9 1.9 1 .9 1.6.8 2.6-.4.7-.8 1.1-1.5.9-1.6-3.1-.6-4-.6-4.4.1m805.9 9.1c-2.1 2.3-1.1 5.3 1.6 4.6 1.1-.3 1.8-.2 1.7.2-.1.3.2.8.8 1.1 1.4.8 3.6-4.2 2.4-5.6-1.7-2.1-4.7-2.3-6.5-.3m23.5-.7c-.5 2.4-.2 4.6.6 4.3 1.2-.3 1.4-3.6.3-4.3-.4-.3-.8-.3-.9 0m-82.4 1.5c-.3.6-.3 1.1.2 1.2.4 0-.3.5-1.6 1-2.3.9-2.3 1.1-.8 2.6 2.3 2.4 7 .3 6.5-2.9-.3-2.4-3.2-3.6-4.3-1.9m16 2.1c-1.4 1.5-1.6 2.3-.7 3.2 1.6 1.6 3.9.3 3.7-2.1-.2-3.1-1-3.3-3-1.1m31.1-.1c-1.7 1.8-1.7 2.1-.3 2.7 2 .7 5.9-1.4 5.4-2.9-.6-2-3.2-1.9-5.1.2m-40.5 9c-1 1.7-.9 2.2.4 2.7 2.6 1 4.2-1.3 2.3-3.2-1.5-1.5-1.7-1.5-2.7.5m-632.7 12.5c-2.2 1.9-2.6 2.7-1.7 3.7.9.9 1.9.6 4.3-1.1 3-2.1 3.5-4 1.3-4.7-.6-.2-2.4.7-3.9 2.1m32.1 2.5c-.7 1.2 1.2 2.4 2.5 1.6 1.1-.7.4-2.5-1-2.5-.5 0-1.1.4-1.5.9m-21.8 1.8c-1.2 1.1-.8 2.2 1.4 3.3 2.7 1.5 5.6-.5 3.8-2.6-1.2-1.5-4.1-1.9-5.2-.7m-23.1 10.5c-1.5 3.5-1.3 4.8.9 4.8 1.3 0 4.5-3.7 4.5-5.2 0-.4-.9-1.2-2-1.8-1.8-1-2.2-.7-3.4 2.2m32.5-.7c-3 3.2-1.5 5.7 2.7 4.6 2.2-.6 2.7-1.3 2.7-3.7 0-3.7-2.3-4.1-5.4-.9m-108 .4c-1.3.4-3 1.6-3.8 2.8-1.3 1.9-1.2 2.3.7 3.3 2.4 1.3 4.3.3 6.1-3.3 1.4-2.4.1-3.6-3-2.8m17.3.6c-.8 2.1.3 4.5 2 4.5 2.2 0 2.8-1.7 1.6-4-1.3-2.4-2.8-2.6-3.6-.5m-37.4 3c-1 1.2-.9 1.6.5 2.1 1.9.8 4-.9 3.1-2.5-1-1.5-2.1-1.4-3.6.4m106.2 3.3c-2 1.6-2.3 2.8-1.3 7 .1.2 1.4-.6 3-1.7 1.7-1.3 2.8-2.9 2.7-4.2-.1-2.9-1.6-3.3-4.4-1.1m-79.3 1.8c-1.1 1.4-1 1.9 1 3.5 3 2.5 4 2.4 5-.4 1.6-4.1-3.1-6.5-6-3.1m112.7-.7c-.4.5-.2 1.2.3 1.5.5.4 1.2.2 1.5-.3.4-.5.2-1.2-.3-1.5-.5-.4-1.2-.2-1.5.3m-132.2 1.5c-.3.8 0 2.4.6 3.6 1.1 2 1.4 2.1 2.7.7 1.2-1.1 1.3-1.9.4-3.6-1.3-2.4-2.9-2.7-3.7-.7m110.6.1c-1 1.2-.8 1.6 1.5 2.5 3.6 1.4 5.1.3 2.9-2.1-2.1-2.3-2.8-2.4-4.4-.4m-70.4.4c-.4.5-.2 1.2.3 1.5.5.4 1.2.2 1.5-.3.4-.5.2-1.2-.3-1.5-.5-.4-1.2-.2-1.5.3m-29.1 9.1c-2.5 2.8-.7 4.4 2.3 2.1 2-1.5 2.1-1.9.9-2.9-1.1-.9-1.8-.8-3.2.8m21.1-1.2c-.3.5-.4 2.2-.2 3.8.4 3.6 3 3.9 3.4.3.3-2.6-2.1-5.8-3.2-4.1M232 652c-1.1 2.1-.5 4.4.9 3.5 1.3-.7 2-4.4 1.1-5-.5-.3-1.4.4-2 1.5m-19 .9c-.7 1.4-.7 2.2.1 2.7 1.4.8 4.3-2.1 3.5-3.5-1.1-1.7-2.4-1.3-3.6.8m-95.9 1.5c-.7.8-.8 1.7-.3 2 .6.3 1.5-.1 2.1-.8.7-.8.8-1.7.3-2-.6-.3-1.5.1-2.1.8m56.4-.4c-1.1 1.7.5 3.2 2.1 1.9.7-.6 1.1-1.5.8-2-.7-1.2-2.1-1.1-2.9.1m-30.2 6.6c-.3.9.3 2.4 1.5 3.7 1.8 1.7 2.3 1.8 3.7.7 1.4-1.2 1.4-1.5-.6-3.7-2.6-2.7-3.7-2.9-4.6-.7m77.3-.7c-.4.5-.2 1.2.3 1.5.5.4 1.2.2 1.5-.3.4-.5.2-1.2-.3-1.5-.5-.4-1.2-.2-1.5.3m-96.2 2.6c-1 2.4.5 3.6 2.7 2.4 1.6-.8 1.8-1.3.8-2.5-1.5-1.8-2.8-1.8-3.5.1m42.2 1.3c-.3.6.1 1.5.8 2.1.8.7 1.7.8 2 .3.3-.6-.1-1.5-.8-2.1-.8-.7-1.7-.8-2-.3m46.9 4.2c-.4.6-.3 1.6.3 2.2s1.2.6 1.7-.2c.4-.6.3-1.6-.3-2.2s-1.2-.6-1.7.2m14.9 1.4c-1.8 1.4-1.8 1.5.6 2.4 3.2 1.2 4.3.6 3-1.9-1.3-2.3-1.1-2.3-3.6-.5m-95.1.8c-1.2 1.6-1.4 5.6-.4 6.2.5.3 1.8-.5 3-1.8 2.1-2.2 2.1-2.3.3-4-1.5-1.3-2.1-1.4-2.9-.4m18.2-.3c-.3.6.3 1.5 1.4 2.1 2.1 1.1 3.7-.2 2.6-2-.8-1.3-3.2-1.3-4-.1m-39.9 2.6c-1.8 2.7-1.9 2.6 3.1 4 1.6.5 3.6-2.1 2.8-3.5-.4-.6-1.4-.9-2.2-.6s-1.1.2-.8-.3c1.3-2.3-1.5-1.8-2.9.4m6.8 11.6c-1 1.7 1.3 3.6 2.7 2.2 1.2-1.2.4-3.3-1.1-3.3-.5 0-1.2.5-1.6 1.1m21.7 100.3c-1.7 2.1-.7 4.6 1.8 4.6 3 0 3.6-1.9 1.4-4.2-1.8-1.7-2.1-1.7-3.2-.4m457.5 6.4c-.3.6.2 2 1.2 3.3 2.2 2.6 5.2 2 5.2-1 0-2.3-1.6-3.6-2.5-2.1-.5.8-1.1.8-2 0-.8-.7-1.6-.7-1.9-.2m-468.2 2.7c-1.5 3.9 4.5 7.1 7.5 4 1.5-1.5 1.4-1.8-.8-3.6-2.8-2.3-5.9-2.5-6.7-.4m458.8 5.8c-1.7 2 1.4 5.9 4.1 5.5 2.8-.4 3.2-4.5.6-5.8-2.4-1.3-3.4-1.3-4.7.3m20.3-.1c-.7 2.3 0 6.1 1.2 6.5.6.2 2.1-.5 3.3-1.7 2.1-2.1 2.1-2.3.4-4.1-2-2.2-4.3-2.5-4.9-.7m-470.1 4.3c-.7 1.7 1.2 4.5 3.1 4.5.6 0 2-.9 2.9-1.9 1.7-1.9 1.7-2-.3-3-2.8-1.5-5.1-1.4-5.7.4m460.1 4.5c-.4.6-.3 1.6.3 2.2s1.2.6 1.7-.2c.4-.6.3-1.6-.3-2.2s-1.2-.6-1.7.2m-469.8 2.7c-1.2 1.1-.8 5 .7 6.2.9.8 2.1.8 4 .1 2.8-1 3.4-3.8 1.4-5.8-1.3-1.3-5-1.6-6.1-.5m19.9 2.8c-1.9 3-.8 3.9 4.1 3.3 2.2-.2 2.8-.8 2.8-2.8 0-3.7-4.6-4-6.9-.5m19.9.9c-1.9 1.4-1.9 1.6-.3 3.2 2.2 2.2 5 1.1 4.6-1.8-.4-2.7-1.9-3.2-4.3-1.4m-31.3 6.8c-2.9 2.9.3 8.2 3.6 6.1 2.5-1.5 2.2-6.7-.3-7.1-1.1-.1-2.6.3-3.3 1m20.9 1.9c-1.8.7-2.1 1.3-1.4 2 1.3 1.3 6.1 0 6.6-1.6.3-1.4-2.3-1.6-5.2-.4m-11.9 8.2c-1.7 2.1.4 5.9 3 5.5 3.2-.4 3.3-5.9.2-6.4-1.2-.2-2.6.2-3.2.9m322-.1c-1.7 1.7-1.5 3.2.8 5.3 1.9 1.7 2.2 1.7 3.7.2 1.4-1.3 1.4-2.1.5-4.2-1.3-2.7-3.1-3.2-5-1.3m-340.8 1.3c-.4.9-.2 2.1.4 2.7 1.6 1.6 4.7.5 4.7-1.7 0-2.6-4.2-3.4-5.1-1m39 0c-1 2.5 2.2 5.3 4.4 3.9.9-.6 1.7-2 1.7-3 0-2.5-5.2-3.3-6.1-.9m323.5-1.3c-.7 2.7-.4 3.9 1.2 5.4 1.7 1.5 1.9 1.5 2.5.1.7-2-.4-3.9-1.8-3.1-.6.4-.8.2-.4-.4.3-.6.2-1.3-.4-1.7-.5-.3-1-.5-1.1-.3m80 0c-.7 2.8-.6 4.5.3 5.5.9 1.1 1.4 1 2.9-.3 2-1.8 1.5-3.9-.8-3-.8.3-1.1.2-.8-.3s.1-1.2-.5-1.6c-.5-.3-1-.5-1.1-.3m-20.4 2.7c-.7 1.2 1.2 2.4 2.5 1.6 1.1-.7.4-2.5-1-2.5-.5 0-1.1.4-1.5.9m-41 2.1c-.8 1.3 2 2.4 4.1 1.6 2-.8.9-2.6-1.6-2.6-1 0-2.2.5-2.5 1m-352.1 4.5c-.8 2 .4 3.5 2.6 3.5 2.8 0 3.6-2.1 1.5-3.7-2.4-1.7-3.4-1.7-4.1.2m55.8 1.6c-3.7 2.2-3.9 4.4-.7 6.5 1.8 1.2 2.4 1.1 4.4-.2 1.8-1.3 2.1-2.2 1.6-4.3-1-3.9-1.7-4.2-5.3-2m386.2 0c-1.9 2.1-1.8 2.1.5 4 2.8 2.3 3.5 2.3 5.1.4 1-1.2.9-2-.4-4-2-3-2.7-3.1-5.2-.4m-138 .4c-.8 2.1 1 3.9 3 3.2 2.2-.9 2-2.4-.4-3.7-1.6-.9-2.2-.8-2.6.5m17.6 0c-1.5 1.9.3 4.5 3.1 4.5 2.4 0 3.2-1.6 1.9-4s-3.3-2.6-5-.5m19.7-.8c-1.4 1.3-.6 4.3 1.4 5.3 2.9 1.6 6.3-1.3 4.8-4.1-.9-1.8-4.9-2.6-6.2-1.2m20.9 0c-1.1 1.1-.6 4 .9 5.3 1.2 1 1.8 1 3 0 .8-.7 1.5-1.6 1.5-2 0-1.1-4.7-4-5.4-3.3m20.9.7c-1.8 1.3-1.8 1.6-.5 3 1.4 1.4 1.8 1.4 3.5.2 1.8-1.3 1.8-1.6.5-3-1.4-1.4-1.8-1.4-3.5-.2m19.5.1c-1 1.2-1 1.8 0 3 1.7 2 3.7 1.9 4.9-.3 1.8-3.4-2.4-5.7-4.9-2.7m19.5-.1c-1 .7-1.6 2-1.2 2.8.8 2.1 4.3 2.8 6.3 1.4 1.3-1 1.4-1.7.5-3.4-1.3-2.5-2.9-2.8-5.6-.8m-346 1.6c-.4.7.2 2.2 1.4 3.3 1.7 1.7 2.5 1.9 3.9 1.1 2.9-1.9 2.1-4.9-1.5-5.2-1.7-.2-3.4.2-3.8.8m23.2.1c-1.4.8-1.6 1.4-.6 2.5 1.4 1.7 3.1 1.8 4.7.2.8-.8.9-1.5.1-2.5-1.4-1.5-1.8-1.6-4.2-.2m-9.5 7.1c-1.7 1.7-1.5 3.6.7 4.7 1.4.8 2.2.7 3.1-.4 2.6-3.1-.9-7.2-3.8-4.3m21.1-.1c-2.7 1-3 3.1-.7 5 1.1.9 2 1 3.2.3 2.2-1.4 2.5-2.7 1-4.6-1-1.2-1.9-1.4-3.5-.7m243 0c-2.6 1-3 3.1-.8 4.9 1.9 1.5 4.5-.3 4.5-3.1 0-2.4-1-2.9-3.7-1.8m-42.6.6c-1.4 1.3-.7 4.3 1.2 5.3 1.5.7 2.5.5 4.2-.9 2-1.6 2.1-2.1 1-3.5-1.4-1.6-5.2-2.2-6.4-.9m20.2 1.2-2.4 1.9 2.9 1.3c2.5 1.2 3 1.1 4.2-.6 2.9-3.9-.7-5.9-4.7-2.6m40.2-.6c-1.3 1.7-.4 2.8 1.7 2 1-.4 1.3-.2.8.5-.9 1.4 1.3 2.7 2.6 1.4.7-.7.6-1.7-.1-3.1-1.3-2.4-3.3-2.7-5-.8m19.9.2c-1.6 1.9-.6 4.5 1.8 4.5 2.3 0 4.6-2.4 4-4.1-.6-1.8-4.4-2.1-5.8-.4m20.1.3c-1.2 2.2.3 4.2 3.1 4.2 2.3 0 4.1-3.3 2.6-4.8-1.8-1.8-4.6-1.4-5.7.6m21.1-.2c-1.2.8-2 1.9-1.7 2.3 1 1.7 4.4 1.8 6.5.4 1.7-1.2 1.9-1.8.9-2.9-1.5-1.8-2.9-1.8-5.7.2m19.1 1c-.3.8.2 2.3 1.1 3.2 1.5 1.5 1.7 1.5 3.2 0 2.1-2.1 1.1-4.8-1.6-4.8-1.1 0-2.3.7-2.7 1.6m-331.7 4.2c-.3.5.1 1.8.9 2.8 1.1 1.5 1.7 1.7 3.2.8 1-.6 1.8-1.7 1.8-2.5 0-1.6-5-2.5-5.9-1.1m178.7 3.9c-.4 1 .2 2.3 1.6 3.5 2.8 2.2 3.2 2.2 5.6.4 1.9-1.4 1.9-1.5.1-3.5-2.3-2.5-6.4-2.8-7.3-.4m25.2-.8c-.3.6-1.2.8-2 .5-2.1-.8-3.1 2.4-1.4 4.2 1.3 1.2 1.8 1.2 3.7-.2 2.3-1.6 2.9-3.9 1.3-4.9-.5-.3-1.2-.1-1.6.4m37.6 2c-2.2 3.1-1.9 4.1 1.4 4.1 4.2 0 6-4.1 2.6-6-1.6-.8-2.3-.5-4 1.9m19.3-1.5c-.6 1.5 1.2 5.6 2.4 5.6 1.9 0 4.4-2.8 4.1-4.6-.5-2.4-5.6-3.3-6.5-1m39.7 0c-.9 1-.7 1.9.7 3.6 2 2.5 4.8 2.2 5.8-.5 1.4-3.4-4.1-6-6.5-3.1m-79.5.5c-.9 2 .2 3.6 2.4 3.6 3.4 0 3.6-3.8.2-4-1.3-.1-2.4.1-2.6.4m59.7.7c-.3.8.1 2.2.9 3 1.3 1.3 1.7 1.3 3.8-.4 1.3-1.1 2-2.4 1.6-3-1.1-1.8-5.6-1.5-6.3.4m40.4-.9c-1.3 1.3-.7 3.2 1.4 4.4 1.8.9 2.5.7 4.1-.9 1.1-1.1 1.7-2.5 1.4-3.1-.8-1.2-5.9-1.5-6.9-.4m-130.8 10c-1.4 1.6-.5 4.1 1.7 5 1.9.7 4.6-2.3 4.2-4.6-.4-1.9-4.5-2.2-5.9-.4m20.9-.5c-.9.7-1.8 2.2-2 3.3-.4 2.8 3.3 3.2 5.6.6 1.5-1.7 1.6-2.3.6-3.6-1.5-1.8-2.1-1.9-4.2-.3m21.4 0c-1.7 1.7-1.5 4.8.4 5.5 1.6.6 4.4-1.9 4.4-3.9 0-1.5-3.7-2.7-4.8-1.6m18 .5c-1.3 2.4.3 5.3 2.9 5.3 2.4 0 3.6-2.7 2.2-4.9-1.5-2.3-4-2.5-5.1-.4m21.1-.7c-2.8 1.1-3 3.6-.4 5 2.5 1.3 6.7-1.9 5.8-4.3-.7-1.9-2.1-2-5.4-.7m60.2 1.1c-2.4 2.5-1 5.4 2.6 5.4 3.1 0 3.7-3.4 1.1-5.8-1.8-1.6-2-1.6-3.7.4m-41.1.4c-.7 1.8 1.3 4.5 3.3 4.5 1.4 0 3.4-3.9 2.6-5.3-.8-1.3-5.4-.7-5.9.8m20.9-.5c-2.8 1.1-2.9 2.2-.4 4.4 1.7 1.5 2 1.5 4.2-.3 2-1.6 2.1-2.1 1-3.5-1.5-1.8-1.7-1.8-4.8-.6m-139.9 1.4c-1.8 1.4-1.8 1.5-.1 2.2 2.2.8 4.6-1.1 3.1-2.6-.7-.7-1.7-.5-3 .4m5.9 7.9c-.3.6.4 1.9 1.7 2.9 2.3 1.9 2.5 1.9 3.7.2.7-1 1.2-2.3 1-2.9-.5-1.3-5.6-1.5-6.4-.2m23.4-.6c-1.2 1.2-.7 4 .9 5.4 1.4 1.1 1.8 1 3-.5 2.2-3-1.4-7.5-3.9-4.9m19.5.5c-1.6 1.6-1.5 4.3.2 5.7 1 .8 2 .6 4-1 2.6-2 2.6-2.2 1-4-2-2.2-3.5-2.4-5.2-.7m20.9.2c-.9 1.1-1 2-.1 3.6 1.3 2.4 3.8 2.3 5.3-.1 2.3-3.7-2.5-6.8-5.2-3.5m18 .3c-.7 1.4-.5 2.3 1.1 4 1.9 2 2.2 2.1 4.4.6q2.4-1.5 1.5-2.7c-.5-.6-.9-1.6-.8-2.1.3-1.9-5.1-1.7-6.2.2m61.9-.2c-1.7 2-.8 4.9 1.6 5.3 1.1.2 2.7-.4 3.4-1.3 1.1-1.3 1-1.9-.5-3.5-2.2-2.4-2.9-2.5-4.5-.5m-40.8.7c-.7.7-.8 1.7-.1 3 1.2 2.2 2.8 2.3 5.7.2 1.8-1.3 2.1-1.9 1.1-3-1.4-1.7-5.1-1.8-6.7-.2m20.2.2c-1 2.6.4 4.8 2.8 4.4 1.7-.2 2.3-1 2.3-2.8s-.6-2.6-2.3-2.8c-1.3-.2-2.5.3-2.8 1.2m-67.8 6.5c-.4.5-.2 1.2.3 1.5.5.4 1.2.2 1.5-.3.4-.5.2-1.2-.3-1.5-.5-.4-1.2-.2-1.5.3m58.3 2.3c-.7 1.4-.7 2.3.2 3.4 1 1.3 1.5 1.2 3.6-.8 1.5-1.4 2-2.5 1.3-3.2-1.7-1.7-4-1.5-5.1.6m-20.4-.3c-.7 1.2 1.2 2.4 2.5 1.6 1.1-.7.4-2.5-1-2.5-.5 0-1.1.4-1.5.9m38.8.7c-.6 1.6 1.6 4.8 2.6 3.8.3-.3.6-.9.6-1.2 0-.4.4-1.3.8-2 .5-.6.7-1.2.5-1.3-2.8-.7-4-.5-4.5.7m22 1c-.3.8.1 2.3 1 3.2 1.5 1.4 1.7 1.4 2.3-.1.8-2.1-.1-4.7-1.6-4.7-.6 0-1.3.7-1.7 1.6"/></g></svg>