<svg version="1.1" xmlns="http://www.w3.org/2000/svg" style="display: block;" viewBox="0 0 2048 2048" width="1024" height="1024">
<path transform="translate(0,0)" fill="rgb(0,0,0)" d="M 0 0 L 823.954 0 L 836.965 0 L 1023.99 0 L 1037.91 0 L 1101.99 0 L 1115.89 0 L 1188.93 0 L 2048 0 L 2048 73.046 L 2048 322.443 L 2048 336.44 L 2048 376.099 L 2048 482.868 L 2048 740.9 L 2048 754.269 L 2048 796.739 L 2048 867.725 L 2048 1163.2 L 2048 1177.16 L 2048 1215.11 L 2048 1314.67 L 2048 1439.34 L 2048 1455.26 L 2048 2048 L 524.6 2048 L 328.213 2048 L 0 2048 L 0 2001.26 L 0 1979.19 L 0 1769.35 L 0 1753.7 L 0 1419.77 L 0 1398.6 L 0 593.54 L 0 574.035 L 0 0 z"/>
<path transform="translate(0,0)" fill="rgb(104,78,53)" d="M 1543.92 1386.77 C 1584.9 1393.95 1626.98 1398.04 1668.25 1403.7 C 1756.27 1416.22 1844.38 1428.18 1932.55 1439.57 C 1970.93 1444.72 2009.93 1448.41 2048 1455.26 L 2048 2048 L 524.6 2048 C 537.853 2039.1 559.276 2031.94 574.394 2025.24 C 610.722 2008.76 647.234 1992.68 683.921 1977.01 C 767.25 1941.41 849.972 1903.89 932.682 1866.86 C 948.353 1859.85 1040.33 1816.14 1049.64 1817.52 C 1101.27 1825.61 1153.03 1832.86 1204.89 1839.28 C 1284.24 1848.83 1363.66 1855.99 1443.19 1863.7 C 1499.1 1869.12 1567.14 1881.38 1622.1 1873.38 C 1636.45 1871.3 1650.04 1864.58 1661.33 1855.59 C 1678.61 1841.82 1691.17 1822.04 1693.38 1799.8 C 1694.96 1783.97 1690.51 1767.72 1680.13 1755.51 C 1658.62 1730.2 1624.91 1729.31 1594.5 1727.67 L 1551.31 1724.96 C 1575.41 1711.28 1599.89 1698.23 1624.06 1684.67 C 1643.35 1673.85 1663.74 1663.04 1680.53 1648.52 C 1691.97 1638.62 1702.07 1626.5 1708.1 1612.52 C 1714.29 1598.19 1716.41 1581.24 1710.11 1566.55 C 1704.68 1553.86 1693.67 1543.53 1680.85 1538.55 C 1671.34 1534.86 1660.89 1533.94 1650.77 1534.18 C 1599.28 1535.38 1560.89 1570.87 1515.77 1590.39 L 1514.56 1590.9 C 1513.74 1580.65 1512.35 1570.44 1511.52 1560.17 C 1520.63 1556.43 1532.46 1552.88 1540.12 1546.74 C 1542.45 1544.87 1542.38 1541.21 1542.54 1538.49 C 1543.17 1527.59 1542.15 1516.23 1542.09 1505.28 C 1541.88 1479.1 1542.01 1452.92 1542.47 1426.74 C 1542.71 1413.98 1542.53 1400.99 1543.77 1388.28 L 1543.92 1386.77 z"/>
<path transform="translate(0,0)" fill="rgb(58,58,51)" d="M 0 0 L 823.954 0 L 823.82 359.858 L 823.519 464.807 C 823.663 500.002 824.533 535.337 822.226 570.478 C 800.434 538.386 779.341 519.117 740.307 511.825 C 712.553 506.639 683.065 507.319 654.968 509.076 C 643.069 509.82 630.708 511.655 618.814 511.295 C 617.444 497.832 617.082 484.425 615.108 471.006 C 612.518 453.399 593.953 358.767 584.389 347.79 C 582.04 346.962 580.901 346.847 578.542 347.848 C 570.938 351.077 563.925 360.571 558.555 366.788 C 534.923 394.153 509.117 427.765 497.455 462.251 C 496.358 465.494 495.507 468.805 494.703 472.131 C 450.993 472.99 412.981 476.093 374.852 499.634 L 373.739 498.898 C 362.983 491.657 353.37 482.792 342.875 475.163 C 325.817 462.764 264.243 421.199 245.264 424.696 C 241.914 425.313 239.02 426.953 237.103 429.818 C 225.473 447.199 239.738 525.404 244.073 548.749 C 199.696 549.457 155.053 555.989 111.003 561.049 C 85.0847 563.991 59.1853 567.093 33.3057 570.354 C 22.2501 571.675 10.9828 572.338 0 574.035 L 0 0 z"/>
<path transform="translate(0,0)" fill="rgb(58,58,51)" d="M 836.965 0 L 1023.99 0 L 1023.89 857.27 C 1011.38 854.436 998.11 853.127 985.41 851.161 C 957.116 846.78 928.959 842.626 900.563 838.924 C 895.97 824.279 893.726 808.688 890.654 793.661 C 884.852 765.282 879.19 736.946 871.872 708.91 C 865.897 686.02 859.553 662.982 852.264 640.474 C 847.885 626.949 840.152 612.346 838.276 598.336 C 835.813 579.949 837.771 559.16 837.807 540.529 C 837.838 505.321 837.68 470.113 837.335 434.906 L 836.965 0 z"/>
<path transform="translate(0,0)" fill="rgb(58,58,51)" d="M 0 593.54 C 19.7674 589.163 40.587 587.989 60.6796 585.488 C 82.3725 582.786 122.684 575.798 143.385 577.557 C 150.598 578.17 156.522 580.591 162.617 584.433 C 178.324 594.332 201.21 615.79 205.029 634.66 C 206.845 643.635 206.242 653.295 206.31 662.421 C 206.428 678.376 206.937 694.196 210.279 709.863 C 212.714 721.689 216.313 733.244 221.022 744.362 C 226.586 757.301 234.3 769.243 239.725 782.208 C 249.777 806.232 254.024 841.37 238.655 863.78 C 229.809 876.679 218.957 888.428 209.284 900.735 C 196.243 917.329 184.703 936.57 176.221 955.946 C 148.888 1018.38 131.799 1233.27 144.184 1301.45 C 147.285 1318.51 152.387 1337 164.025 1350.39 C 109.845 1363.22 47.5586 1367.79 0 1398.6 L 0 593.54 z"/>
<path transform="translate(0,0)" fill="rgb(58,58,51)" d="M 746.853 1734.94 C 766.711 1727.51 786.986 1721.12 806.962 1714 C 835.263 1703.91 863.324 1693.21 891.72 1683.38 C 913.659 1675.78 937.325 1664.61 960.225 1661.51 C 982.729 1687.19 998.552 1734.66 1006.06 1768.05 L 517.86 1969.6 L 389.203 2022.46 C 373.315 2028.92 341.174 2039.94 328.213 2048 L 0 2048 L 0 2001.26 C 11.8489 1998.38 23.2468 1993.55 34.6498 1989.28 L 84.0824 1970.88 L 261.647 1905.78 L 446.86 1838.91 C 470.847 1830.23 496.435 1823.34 519.743 1813.1 C 532.835 1807.35 546.851 1798.77 556.18 1787.78 C 572.213 1794.12 584.842 1789.83 600.518 1785.48 C 612.642 1803.01 627.147 1826.05 649.872 1830.02 C 657.166 1831.29 664.682 1829.83 670.657 1825.34 C 678.847 1819.2 682.266 1808.97 683.34 1799.15 C 683.825 1794.72 683.863 1790.11 683.825 1785.66 C 699.548 1786.28 715.142 1786.71 727.696 1775.47 C 739.332 1765.05 743.019 1749.4 746.853 1734.94 z"/>
<path transform="translate(0,0)" fill="rgb(58,58,51)" d="M 0 1769.35 C 116.411 1732.99 233.229 1697.94 350.432 1664.22 L 474.867 1628.4 C 493.125 1623.23 512.549 1619.39 530.401 1613.23 C 535.534 1611.46 539.64 1608.11 543.327 1604.23 C 565.584 1630.46 569.13 1674.96 566.343 1707.79 C 565.031 1723.24 557.929 1768.4 545.506 1778.59 C 527.691 1793.21 486.045 1804.23 463.363 1812.34 L 341.294 1855.15 L 211.429 1902.75 C 140.643 1927.37 70.1611 1952.85 0 1979.19 L 0 1769.35 z"/>
<path transform="translate(0,0)" fill="rgb(58,58,51)" d="M 0 1419.77 C 114.52 1447.94 227.622 1482.1 340.597 1515.79 C 375.733 1526.27 411.124 1536.09 446.081 1547.14 C 462.631 1552.36 479.835 1557.2 495.642 1564.39 C 510.633 1571.2 523.652 1582.89 535.16 1594.44 C 510.894 1598.36 486.601 1608.79 462.996 1615.98 C 423.352 1628.05 383.265 1638.92 343.469 1650.53 C 266.452 1672.33 189.67 1694.95 113.135 1718.38 C 88.4796 1725.72 63.8835 1733.25 39.349 1740.98 C 26.3646 1745.02 12.5257 1748.47 0 1753.7 L 0 1419.77 z"/>
<path transform="translate(0,0)" fill="rgb(58,58,51)" d="M 1544.18 1267.54 C 1612.08 1271.28 1680.04 1279.37 1747.72 1285.79 L 2048 1314.67 L 2048 1439.34 L 1702.59 1393.93 C 1649.49 1386.91 1596.21 1378.52 1542.96 1372.83 C 1542.66 1337.73 1543.06 1302.63 1544.18 1267.54 z"/>
<path transform="translate(0,0)" fill="rgb(104,78,53)" d="M 1037.91 0 L 1101.99 0 L 1100 868.464 C 1079.99 865.855 1059.49 860.88 1039.43 859.598 C 1036.4 855.655 1037.44 842.943 1037.37 837.801 C 1037.08 813.558 1038.42 789.264 1038.36 765.002 L 1038.38 494.153 L 1038.45 351.659 C 1038.42 330.006 1037.83 308.403 1038.29 286.745 C 1037.4 276.27 1038.16 265.098 1038.18 254.55 L 1038.29 189.157 L 1037.91 0 z"/>
<path transform="translate(0,0)" fill="rgb(121,105,77)" d="M 1038.29 286.745 C 1038.44 286.478 1038.62 286.228 1038.74 285.945 C 1040.93 280.619 1039.27 68.4275 1039.24 46.3834 C 1039.22 38.0636 1037.73 6.20427 1039.55 1.02464 C 1041.62 18.042 1040.03 37.1398 1040.02 54.3745 L 1040.05 159.595 L 1039.95 507.977 L 1039.98 769.279 L 1040.07 826.442 C 1040.12 836.916 1041.38 849.367 1039.43 859.598 C 1036.4 855.655 1037.44 842.943 1037.37 837.801 C 1037.08 813.558 1038.42 789.264 1038.36 765.002 L 1038.38 494.153 L 1038.45 351.659 C 1038.42 330.006 1037.83 308.403 1038.29 286.745 z"/>
<path transform="translate(0,0)" fill="rgb(104,78,53)" d="M 1117.41 720.054 C 1154.61 717.546 1193.66 721.643 1230.97 723.239 L 1425.64 731.047 L 2048 754.269 L 2048 796.739 C 2031.84 795.072 2015.11 795.078 1998.85 794.305 C 1962.75 792.607 1926.63 791.091 1890.51 789.755 L 1653.07 779.503 L 1353.04 767.13 C 1274.09 763.572 1194.93 759.151 1115.92 757.552 C 1114.5 745.052 1115.59 732.45 1117.41 720.054 z"/>
<path transform="translate(0,0)" fill="rgb(104,78,53)" d="M 1115.75 361.688 C 1115.06 353.072 1113.64 333.329 1119.4 326.406 C 1136.5 322.278 1207.88 325.305 1229.23 325.727 L 1370.16 327.548 L 2048 336.44 L 2048 376.099 C 1929.73 375.764 1810.82 372.22 1692.5 370.256 L 1115.75 361.688 z"/>
<path transform="translate(0,0)" fill="rgb(104,78,53)" d="M 1556.55 1141.96 C 1574.51 1141.71 1592.77 1143.78 1610.68 1145.2 C 1638.99 1147.55 1667.32 1149.72 1695.66 1151.71 L 2048 1177.16 L 2048 1215.11 L 1549.1 1173.39 C 1546.87 1165.66 1546.82 1158.58 1547.06 1150.63 L 1556.55 1141.96 z"/>
<path transform="translate(0,0)" fill="rgb(58,58,51)" d="M 1994.93 866.67 C 2012.62 867.178 2030.31 867.53 2048 867.725 L 2048 1163.2 C 2031.51 1160.6 2014.46 1161.1 1997.82 1158.74 C 1996.15 1146.75 1996.94 1134 1996.93 1121.89 L 1996.9 1059.24 C 1996.64 995.046 1995.99 930.855 1994.93 866.67 z"/>
<path transform="translate(0,0)" fill="rgb(58,58,51)" d="M 1115.89 0 L 1188.93 0 L 1196.84 6.66189 C 1185.86 7.27123 1159.01 4.35681 1150.59 9.82376 C 1148.82 20.4088 1149.44 31.7341 1149.39 42.4603 L 1149.14 91.9881 L 1147.99 204.882 C 1147.93 240.059 1148.74 275.32 1146.86 310.455 C 1136.54 310.894 1126.18 310.226 1115.86 309.789 C 1112.95 266.668 1115.07 222.411 1115.01 179.167 C 1114.92 119.596 1113.29 59.5013 1115.89 0 z"/>
<path transform="translate(0,0)" fill="rgb(58,58,51)" d="M 2022.09 482.34 L 2048 482.868 L 2048 740.9 C 2039.15 739.449 2029.87 739.399 2020.91 738.893 C 2019.49 709.594 2020.83 679.815 2020.98 650.454 L 2022.09 482.34 z"/>
<path transform="translate(0,0)" fill="rgb(104,78,53)" d="M 2035.82 72.9915 L 2048 73.046 L 2048 322.443 L 2034.47 321.628 C 2032.63 294.83 2034.67 266.722 2034.77 239.772 C 2034.76 184.177 2035.11 128.582 2035.82 72.9915 z"/>
<path transform="translate(0,0)" fill="rgb(239,95,5)" d="M 575.887 369.711 C 576.105 369.874 576.348 370.008 576.542 370.2 C 584.715 378.263 602.257 481.228 603.496 499.314 C 602.273 500.258 601.037 501.201 599.869 502.212 C 597.251 504.476 596.625 506.071 596.423 509.466 C 599.354 514.431 614.045 523.271 619.128 527.614 C 624.923 532.566 630.458 538.034 635.626 543.637 C 665.632 576.165 671.737 611.525 669.788 654.044 C 660.915 659.644 642.734 664.8 638.54 674.865 L 639.354 676.58 C 648.1 680.013 658.377 674.292 666.37 671.065 C 665.254 677.038 663.965 682.905 662.473 688.796 C 657.739 690.119 652.497 691.011 648.001 692.964 C 644.422 694.518 640.186 697.535 638.838 701.267 L 639.746 703.19 C 646.264 706.467 652.251 704.713 659.144 703.598 C 654.605 720.638 646.538 737.615 637.296 752.578 C 613.701 790.78 581.205 813.734 535.745 817.291 C 524.534 818.168 510.534 815.665 499.869 818.758 C 497.372 819.482 495.469 820.527 494.561 823.163 C 493.777 825.441 494.419 826.513 495.523 828.354 C 501.288 831.547 507.283 832.139 513.739 832.698 C 551.679 835.984 589.022 824.745 618.184 800.343 C 635.942 803.777 653.683 805.587 671.277 810.198 C 684.032 813.541 696.542 818.197 707.195 826.134 C 747.68 856.297 790.305 920.669 819.72 962.682 C 832.238 980.562 845.736 998.385 856.8 1017.2 C 834.019 1016.22 811.429 1014.1 788.594 1014.04 C 773.848 968.888 750.334 923.039 719.283 886.753 C 717.345 884.489 715.045 881.933 711.818 882.1 C 709.178 882.236 707.581 883.761 706.115 885.701 C 705.055 896.496 723.907 917.754 729.94 927.087 C 747.731 954.608 761.42 982.993 772.587 1013.79 C 751.498 1017.26 729.303 1015.54 708.345 1020.01 C 703.163 1021.11 698.431 1023.01 694.741 1026.93 C 690.408 1031.53 687.766 1038.79 684.672 1044.3 C 674.918 1061.68 665.77 1079.83 655.023 1096.59 C 611.288 1104.13 595.927 1109.96 556.707 1131.4 C 540.027 1140.51 523.127 1151.55 504.592 1156.28 C 485.495 1161.14 465.468 1160.41 445.92 1160.27 C 431.795 1160.17 416.608 1161.15 402.709 1158.65 C 393.352 1147.34 385.9 1132.79 378.053 1120.32 C 376.078 1083.18 379.629 1044.2 382.502 1007.14 C 383.181 998.375 384.592 989.576 385.002 980.822 C 385.125 978.183 385.297 975.085 384.3 972.571 C 383.378 970.244 382.036 968.746 379.585 967.96 C 377.14 967.176 375.019 968.284 372.993 969.438 C 365.563 981.859 362.081 1132.99 361.984 1157.26 C 354.849 1156.47 344.391 1154.22 337.583 1157.04 C 335.145 1158.05 333.408 1159.78 332.725 1162.39 C 332.041 1165 332.533 1167.37 334.395 1169.33 C 338.782 1173.95 468.283 1174.67 483.755 1173.21 C 541.713 1169.92 584.177 1121.06 647.146 1113.77 C 643.752 1120.52 640.177 1127.05 636.295 1133.53 C 625.577 1136 610.971 1133.83 601.851 1140.31 C 600.655 1142.41 599.809 1143.46 600.497 1146.01 C 601.026 1147.97 603.024 1150.83 605.044 1151.5 C 610.741 1153.38 622.109 1151.2 628.136 1150.78 C 650.41 1149.2 695.736 1145.66 714.349 1158.64 C 718.807 1161.75 722.839 1165.97 723.733 1171.52 C 724.412 1175.97 723.206 1180.5 720.406 1184.02 C 706.821 1200.82 661.079 1187.94 641.928 1190.37 C 638.676 1190.78 637.335 1191.57 635.291 1194.08 C 635.135 1195.53 635.114 1196.44 635.838 1197.78 C 637.674 1201.18 641.044 1203.19 644.649 1204.28 C 652.939 1206.79 684.647 1207.6 693.763 1207.09 C 700.207 1206.73 710.586 1202.69 716.592 1205.13 C 718.901 1206.07 720.343 1208.19 721.101 1210.46 C 722.488 1214.63 721.831 1219.61 719.865 1223.5 C 706.958 1249.01 647.149 1232.1 634.168 1238.03 C 632.92 1238.6 632.513 1239.97 632.203 1241.23 C 631.597 1243.68 632.433 1246.17 633.803 1248.15 C 643.966 1254.41 670.08 1253.63 682.151 1252.91 C 675.274 1257.51 669.007 1261.69 661.133 1264.49 C 625.369 1277.19 575.654 1261.53 537.223 1264.94 C 506.866 1267.64 477.085 1277.73 446.896 1282.32 C 427.942 1285.21 408.876 1286.51 389.75 1287.69 C 346.031 1290.39 290.004 1293.64 253.15 1266.07 C 234.326 1251.99 227.206 1230.31 223.965 1207.84 C 213.704 1136.68 219.948 1041.09 240.905 972.118 C 247.305 951.259 255.873 931.129 266.467 912.055 C 281.513 884.769 299.62 858.875 318.737 834.306 C 326.949 823.751 335.814 813.718 343.814 802.999 C 348.801 805.692 356.391 810.458 362.216 809.686 C 365.043 809.312 365.256 808.851 366.702 806.642 C 366.63 805.309 366.973 803.886 366.487 802.643 C 365.689 800.597 360.111 797.716 358.121 796.457 C 344.679 787.953 332.097 779.607 321.345 767.725 C 305.307 750.002 293.584 727.624 286.288 704.956 C 280.205 686.056 274.524 659.128 279.475 639.416 C 280.591 634.971 283.059 630.654 285.139 626.584 C 261.099 584.455 244.569 487.297 249.33 438.425 L 250.12 438.742 L 251.429 439.29 C 280.351 451.161 316.533 474.942 340.86 494.396 C 349.569 501.359 371.076 523.089 380.941 524.665 C 387.727 521.824 386.033 513.79 390.278 508.461 C 420.861 491.636 457.425 486.637 491.844 487.879 C 500.43 488.188 511.565 490.9 519.857 489.348 C 522.126 488.923 524.51 487.313 525.4 485.109 C 526.382 482.679 526.154 480.898 525.347 478.506 C 521.524 474.056 515.848 474.124 510.41 473.414 C 521.36 436.407 549.666 397.678 575.887 369.711 z"/>
<path transform="translate(0,0)" fill="rgb(0,0,0)" d="M 594.628 679.214 C 595.237 679.132 595.845 679.042 596.455 678.97 C 600.67 678.475 607.116 678.75 610.291 681.968 C 612.256 683.959 612.696 686.758 612.479 689.431 C 611.521 701.227 601.826 710.472 593.522 717.864 C 595.287 726.739 596.333 734.304 594.983 743.331 C 598.782 744.148 602.909 744.814 606.534 746.221 C 609.943 747.544 612.247 749.577 613.812 752.887 C 613.421 755.289 613.242 755.892 611.093 757.426 C 604.777 761.933 595.49 759.455 588.524 758.403 C 578.969 766.116 570.342 773.027 558.706 777.345 C 556.611 777.73 554.517 777.945 552.407 777.573 C 549.917 777.135 549.602 777.149 548.202 775.179 C 547.988 766.562 572.227 753.565 578.802 745.648 C 583.374 740.144 580.295 726.986 579.484 720.203 C 571.374 716.919 554.575 709.887 551.239 701.229 C 550.387 699.015 550.391 696.84 551.555 694.742 C 556.755 685.37 584.978 681.267 594.628 679.214 z"/>
<path transform="translate(0,0)" fill="rgb(0,0,0)" d="M 496.091 639.846 C 496.733 639.941 497.364 640.103 497.992 640.265 C 500.441 640.897 502.86 642.461 503.922 644.844 C 505.411 648.185 504.195 652.548 502.637 655.645 C 497.287 666.281 486.267 673.235 475.339 677.111 C 451.866 685.437 428.353 682.406 406.247 672.005 C 401.561 669.159 396.404 666.03 395.188 660.163 C 394.594 657.296 394.928 656.665 396.288 654.28 C 406.21 647.951 428.744 658.455 440.761 659.836 C 464.033 662.512 478.58 653.887 496.091 639.846 z"/>
<path transform="translate(0,0)" fill="rgb(0,0,0)" d="M 636.884 586.704 C 637.433 586.831 637.983 586.948 638.529 587.085 C 642.188 588.001 644.832 590.13 646.66 593.405 C 650.396 600.099 648.848 608.67 646.415 615.517 C 642.775 625.764 635.932 634.205 625.919 638.726 C 611.089 645.423 593.253 644.551 578.252 639.15 C 577.955 639.004 577.662 638.851 577.363 638.711 C 571.143 635.804 568.591 634.159 565.21 628.189 C 565.238 627.043 564.929 625.912 565.778 625.025 C 571.526 619.022 590.718 624.308 598.635 623.704 C 630.207 621.293 623.817 602.011 636.32 587.327 C 636.502 587.114 636.696 586.912 636.884 586.704 z"/>
<path transform="translate(0,0)" fill="rgb(0,0,0)" d="M 468.734 720.378 C 472.015 720.294 473.312 720.199 476.121 722.17 C 477.494 724.415 477.531 724.404 477.144 727 C 474.53 730.294 469.887 731.93 465.927 733.012 C 454.996 735.998 442.811 736.977 431.596 738.734 C 411.849 741.827 392.103 745.177 372.259 747.583 L 368.018 747.803 C 365.571 746.724 364.438 746.103 362.899 743.891 C 363.023 742.471 362.796 741.678 363.821 740.554 C 371.435 732.204 452.627 722.794 468.734 720.378 z"/>
<path transform="translate(0,0)" fill="rgb(0,0,0)" d="M 484.804 741.909 C 486.631 742.981 487.629 743.974 489.086 745.478 C 489.496 747.092 489.978 747.715 489.307 749.36 C 488.386 751.619 487.037 752.662 485.097 753.964 C 471.011 763.414 454.153 770.412 439.002 778.054 C 424.093 785.573 408.915 794.71 393.266 800.431 C 391.94 799.993 390.918 799.278 389.736 798.547 C 388.218 795.848 388.037 795.778 388.525 792.751 C 395.458 783.804 470.738 748.137 484.804 741.909 z"/>
<path transform="translate(0,0)" fill="rgb(239,95,5)" d="M 709.538 1294.55 C 736.187 1293.41 762.419 1294.3 789.017 1295.41 C 803.928 1296.02 818.885 1295.69 833.705 1297.71 C 849.953 1299.92 865.774 1306.57 882.104 1307.82 C 893.498 1308.69 904.065 1301.61 915.32 1303.73 C 930.023 1306.5 945.341 1312.94 959.639 1317.57 C 1014.47 1335.33 1093.55 1360.47 1139.02 1395.29 C 1157.1 1409.14 1171.45 1426.65 1185.72 1444.2 C 1240.9 1512.09 1283.56 1589.05 1324.54 1666.08 C 1337.68 1690.78 1352.67 1724.03 1367.53 1746.57 C 1375.35 1758.42 1388.84 1776.65 1402.71 1781.44 C 1411.69 1784.55 1421.22 1783.71 1430.45 1782.49 C 1460.9 1778.48 1480.44 1767.6 1507.48 1755.19 C 1517.69 1750.51 1528.48 1745.72 1539.53 1743.5 C 1564.2 1738.53 1623.39 1742.02 1646.17 1750.7 C 1658.83 1755.52 1670.22 1764.34 1675.52 1777.13 C 1680.95 1790.22 1678.29 1802.15 1673.29 1814.73 C 1670.5 1807.71 1668.13 1801.24 1663.45 1795.19 C 1652.93 1781.6 1635.94 1774.37 1619.17 1772.57 C 1614.04 1772.02 1607.64 1770.89 1603.36 1774.32 C 1602.51 1776.63 1602.37 1778.38 1602.78 1780.8 C 1602.98 1781.97 1603.58 1783.53 1604.53 1784.31 C 1609.86 1788.69 1634.76 1789.64 1646.45 1797.96 C 1652.74 1802.43 1656.77 1809.47 1657.9 1817.07 C 1659.01 1824.57 1656.78 1832.91 1651.97 1838.77 C 1646.54 1845.4 1635.44 1856.14 1626.68 1857 C 1620.65 1853.64 1630.92 1834.43 1620.56 1819.36 C 1613.47 1809.06 1599.47 1799.87 1586.97 1798.05 C 1583.85 1797.59 1580.31 1797.29 1577.69 1799.3 C 1576.67 1801.48 1575.55 1804.09 1575.88 1806.58 C 1576.24 1809.34 1577.64 1809.8 1579.77 1811.05 C 1589.18 1813.88 1598.31 1817.03 1605.05 1824.62 C 1610.02 1830.21 1613.07 1838.07 1612.19 1845.6 C 1611.66 1850.2 1609.58 1854.16 1605.88 1856.97 C 1600.49 1861.06 1593.12 1861.83 1586.58 1861.61 C 1577.53 1861.31 1568.3 1859.18 1559.32 1857.87 C 1534.94 1854.31 1510.79 1849.65 1486.45 1846 C 1458.44 1841.81 1429.77 1841.12 1401.66 1837.1 C 1388.47 1835.21 1371.86 1831.86 1360.46 1824.61 C 1343.55 1813.85 1338.04 1792.02 1322.83 1779.13 C 1304.51 1763.6 1282.33 1751.18 1262.69 1737.22 C 1229.11 1712.97 1196.24 1687.74 1164.14 1661.56 C 1146.41 1647.05 1129.29 1631.8 1112.83 1615.85 C 1093.6 1597.1 1074.18 1574.96 1051.18 1560.8 C 1016.11 1539.21 965.349 1530.7 925.171 1522.02 C 882.217 1512.61 839.387 1502.64 796.69 1492.12 C 698.634 1468.4 610.775 1445.33 537.101 1372 C 516.681 1351.67 502.645 1328.42 485.61 1305.59 C 521.825 1298.77 556.929 1304.94 593.237 1303.58 C 614.181 1302.79 634.33 1299.15 655.092 1297.04 C 673.137 1295.2 691.415 1295.04 709.538 1294.55 z"/>
<path transform="translate(0,0)" fill="rgb(58,58,51)" d="M 905.948 856.282 C 923.546 854.937 946.595 861.441 964.27 864.206 L 1050.02 876.95 C 1073.09 880.348 1096.36 882.247 1119.42 885.75 C 1170.54 893.515 1221.45 903.097 1272.65 910.183 C 1321.66 916.629 1370.54 923.965 1419.28 932.186 C 1447.27 936.949 1477.76 940.879 1504.41 951.046 C 1486.39 955.684 1470.58 963.53 1456.98 976.41 C 1404.76 1025.88 1409.96 1122.65 1410.04 1189 C 1410.08 1221.75 1409.64 1254.35 1408.92 1287.08 C 1377.66 1245.27 1306.1 1246.19 1258.11 1238.82 C 1244.58 1235.25 1231.55 1229.88 1217.96 1226.34 C 1174.82 1215.1 1131.84 1207.36 1087.83 1200.41 C 1097.55 1177.17 1101.57 1180.4 1115.38 1163.42 C 1124.03 1152.78 1125.62 1140.78 1124.33 1127.58 C 1127.69 1123.9 1130.86 1119.88 1133 1115.36 C 1137.24 1106.38 1138.61 1095.46 1134.74 1086.1 C 1131.08 1077.25 1125.01 1073.12 1116.46 1069.68 C 1125.82 1048.22 1135.54 1026.9 1144.74 1005.37 C 1150.24 992.497 1154.94 977.249 1162.5 965.546 C 1165.15 961.436 1169.93 955.445 1170.14 950.469 C 1170.26 947.798 1169.24 944.246 1167.1 942.502 C 1160.99 937.518 1146.55 941.314 1139.17 942.41 C 1136.43 936.663 1131.89 926.401 1126.17 923.284 C 1122.4 921.224 1117.12 923.077 1113.37 924.428 C 1078.76 936.916 1035.96 959.794 1011.28 987.323 C 994.321 1006.24 981.625 1029.04 970.731 1051.82 C 940.011 1036.37 909.966 1026.68 876.22 1020.05 C 867.147 1005.03 856.216 991.199 847.445 976.031 C 850.156 948.348 857.382 900.095 873.255 877.412 C 881.347 865.848 891.985 858.685 905.948 856.282 z"/>
<path transform="translate(0,0)" fill="rgb(239,95,5)" d="M 1064.71 1220.38 C 1068 1219.9 1071.64 1220.01 1074.97 1220.07 C 1091.6 1220.36 1108.8 1223.65 1125.31 1225.76 C 1170.58 1231.56 1213.43 1237.02 1255.13 1257.44 C 1267.7 1263.6 1280.63 1271.2 1290.27 1281.49 C 1307.17 1299.53 1319.54 1325.82 1331.07 1347.68 C 1346.07 1376.12 1359.37 1405.58 1372.99 1434.71 C 1393.72 1478.21 1413.7 1522.06 1432.92 1566.25 C 1437.51 1576.75 1454.3 1609.26 1455.99 1617.6 C 1456.42 1619.73 1455.98 1621.67 1456.26 1623.68 C 1456.63 1626.42 1457.35 1626.9 1459.3 1628.58 C 1483.96 1634.62 1589.59 1562.61 1625.59 1553.24 C 1642.79 1548.76 1666.36 1546.46 1682.11 1556.18 C 1691.17 1561.77 1696.82 1570.65 1699.03 1581.02 C 1700.12 1586.13 1700.5 1590.35 1697.67 1594.95 C 1688.83 1593.38 1683.72 1578.14 1661.83 1578.41 C 1652.97 1578.52 1629.98 1585.67 1624.29 1593.02 C 1622.06 1595.91 1621.66 1598.99 1622.31 1602.5 C 1629.11 1608.57 1653.19 1593.08 1667.12 1594.63 C 1673.87 1595.38 1680.91 1598.52 1685.08 1604.06 C 1687.34 1607.06 1688.18 1610.67 1687.42 1614.34 C 1683.84 1631.72 1657.61 1646.93 1643.68 1655.79 C 1602.79 1680.63 1559.4 1701.86 1516.7 1723.35 C 1495.64 1733.95 1471.03 1748.97 1448.28 1754.58 C 1430.95 1758.86 1412.67 1756.71 1398.99 1744.38 C 1388.59 1735.02 1383.29 1721.39 1377.85 1708.86 C 1364.25 1677.52 1346.81 1649.25 1328.85 1620.26 C 1308.34 1586.81 1286.83 1553.97 1264.37 1521.8 C 1248.58 1499.17 1231.4 1477.61 1214.46 1455.83 C 1197.99 1434.66 1181.83 1413.52 1162.01 1395.28 C 1124.49 1360.71 1072.78 1341.15 1025.34 1324.27 C 1010.81 1319.02 996.217 1313.94 981.571 1309.02 C 966.134 1303.94 948.339 1299.87 934.355 1291.45 C 958.532 1271.3 1007.7 1238.02 1036.46 1226.95 C 1045.74 1223.37 1054.87 1221.57 1064.71 1220.38 z"/>
<path transform="translate(0,0)" fill="rgb(58,58,51)" d="M 1509.87 964.291 C 1512.66 964.114 1515.44 963.993 1518.23 963.928 C 1530.57 963.708 1543.56 967.406 1552.36 976.4 C 1570.49 994.924 1575.51 1031.09 1574.49 1055.73 C 1573.51 1079.27 1566.28 1103.33 1553.16 1122.99 C 1545.95 1133.8 1532.65 1144.59 1530.84 1157.8 C 1529.04 1170.99 1530.08 1185.49 1529.89 1198.88 C 1529.39 1226.85 1529.1 1254.82 1529.02 1282.8 C 1528.78 1367.57 1528.11 1452.34 1527.01 1537.1 C 1511.91 1545.05 1494.98 1550.78 1479.1 1556.98 C 1469.27 1561.28 1459.15 1564.86 1449.09 1568.57 C 1442.28 1551.73 1426.73 1521.32 1423.3 1505.68 C 1420.75 1494.02 1421.98 1480.92 1422.07 1469.03 C 1422.28 1439.83 1423.81 1410.66 1423.93 1381.46 L 1424.23 1198.34 C 1424.2 1159.84 1421.99 1120.34 1426.72 1082.06 C 1430.01 1055.4 1436.11 1030.78 1451.07 1008.24 C 1465.08 987.109 1484.41 969.543 1509.87 964.291 z"/>
<path transform="translate(0,0)" fill="rgb(58,58,51)" d="M 676.808 522.468 C 711.242 521.77 750.333 522.336 778.991 544.222 C 794.103 555.764 807.46 575.595 816.104 592.338 C 847.393 652.934 876.546 776.358 885.881 845.198 C 883.429 846.558 881.031 848.014 878.694 849.563 C 843.13 872.811 842.475 919.992 834.537 957.312 C 798.838 911.939 773.111 865.184 729.348 825.694 C 700.578 797.216 669.367 793.423 631.574 785.486 C 650.573 759.662 667.134 733.069 674.077 701.336 C 694.097 696.821 716.975 696.966 737.518 695.325 C 745.633 694.677 754.764 694.521 762.55 692.077 C 765.351 691.198 766.215 690.502 767.503 687.928 C 767.138 686.973 766.895 686.139 766.193 685.328 C 763.801 682.564 758.913 681.164 755.404 680.84 C 749.24 680.27 742.06 682.351 735.802 682.922 C 716.658 684.682 697.489 686.16 678.301 687.357 C 680.375 679.979 681.376 672.131 682.704 664.577 C 697.303 655.975 756.35 637.42 761.485 629.615 C 762.48 628.103 761.963 627.318 761.723 625.651 C 760.457 623.953 759.753 622.951 757.774 622.021 C 756.245 621.303 754.618 621.24 752.992 621.698 C 745.541 623.795 737.933 627.491 730.643 630.261 L 685.016 647.261 C 685.069 644.039 685.097 640.817 685.101 637.595 C 685.101 593.412 667.513 556.244 636.599 525.32 C 649.915 523.227 663.361 522.837 676.808 522.468 z"/>
<path transform="translate(0,0)" fill="rgb(192,168,124)" d="M 698.086 1049.46 C 727.025 1051.17 756.911 1057.68 785.631 1062.22 C 838.555 1070.6 892.313 1078.85 944.815 1089.5 C 931.904 1120.36 916.688 1150.37 902.415 1180.63 C 886.42 1214.53 871.084 1248.8 854.592 1282.46 C 851.948 1283.69 848.515 1282.74 845.704 1282.39 C 817.922 1279.34 789.846 1278.12 762 1275.43 C 737.363 1273.06 712.694 1268.96 687.994 1267.55 C 693.735 1262.08 697.463 1257.2 700.714 1250.03 C 707.48 1248.5 714.005 1246.62 719.96 1242.93 C 728.13 1237.86 734.536 1230.21 736.485 1220.64 C 738.333 1211.56 735.748 1204.01 730.749 1196.51 C 734.487 1189.16 737.806 1182.36 738.127 1173.91 C 738.441 1165.68 735.415 1158.15 729.693 1152.26 C 712.004 1134.04 678.085 1134.65 654.335 1134.05 C 668.463 1105.59 683.435 1077.64 698.086 1049.46 z"/>
<path transform="translate(0,0)" fill="rgb(58,58,51)" d="M 195.177 1363.33 C 218.886 1361.16 243.687 1367.99 267.167 1371.12 C 305.542 1376.25 343.927 1377.67 382.006 1385.67 C 409.149 1391.38 435.278 1401.29 461.678 1409.63 C 459.257 1412.03 456.878 1414.47 454.542 1416.96 C 438.778 1433.82 429.732 1455.33 430.657 1478.54 C 431.565 1501.32 442.29 1515.54 458.435 1530.65 C 422.638 1527.31 377.963 1509.49 342.781 1498.84 C 300.377 1486.57 258.077 1474.51 215.375 1463.28 C 148.91 1445.8 82.0029 1429.45 15.9632 1410.44 C 56.5518 1384.06 146.48 1372.25 195.177 1363.33 z"/>
<path transform="translate(0,0)" fill="rgb(239,95,5)" d="M 525.358 1386.77 C 534.314 1389.14 558.197 1410.47 566.309 1417.37 C 556.255 1427.76 542.661 1434.23 534.029 1446.15 C 527.857 1454.67 524.673 1464.9 526.8 1475.37 C 533.958 1510.6 580.328 1519.11 608.466 1530.12 C 623.987 1536.2 638.947 1543.48 652.833 1552.74 C 693.145 1579.61 718.481 1621.23 727.74 1668.61 C 732.644 1693.71 736.421 1735.66 720.775 1757.9 C 715.419 1765.51 709.972 1768.26 701.036 1769.98 C 696.477 1770.2 692.04 1770.33 687.747 1768.53 C 664.061 1758.6 666.7 1711.81 662.994 1690.08 C 660.666 1676.67 656.71 1663.6 651.213 1651.14 C 625.914 1593.67 578.077 1577.51 524.348 1556.19 C 497.212 1545.42 471.175 1527.19 459.491 1499.52 C 451.947 1481.66 450.759 1460.5 458.211 1442.4 C 469.949 1413.89 498.317 1398.12 525.358 1386.77 z"/>
<path transform="translate(0,0)" fill="rgb(58,58,51)" d="M 828.316 1531.35 C 855.599 1527.03 901.367 1587.79 919.766 1605.02 C 932.36 1616.81 946.529 1626.19 960.85 1635.69 C 935.565 1646.66 909.844 1654.92 883.977 1664.28 C 857.712 1673.78 831.685 1683.97 805.217 1692.9 C 786.338 1700.05 767.366 1706.95 748.306 1713.6 C 747.285 1653.68 731.69 1609.66 692.252 1564.56 L 769.762 1545.18 C 789.033 1540.21 808.618 1534.18 828.316 1531.35 z"/>
<path transform="translate(0,0)" fill="rgb(58,58,51)" d="M 1682.11 415.317 C 1701.06 416.084 1719.68 415.717 1738.63 414.822 C 1740.41 456.738 1739.41 499.273 1739.23 541.222 C 1739.16 603.835 1738.64 666.446 1737.65 729.052 C 1718.93 727.472 1699.98 727.923 1681.2 726.755 C 1679.59 688.928 1681.46 650.517 1681.8 612.646 L 1682.11 415.317 z"/>
<path transform="translate(0,0)" fill="rgb(58,58,51)" d="M 1846.27 847.73 C 1865.71 847.535 1885.16 847.685 1904.6 848.178 C 1905.21 873.365 1904.04 898.697 1904.01 923.909 L 1902.96 1152.54 C 1883.86 1151.94 1865.03 1149.83 1846.07 1147.62 C 1844.94 1112.09 1845.57 1076.63 1845.76 1041.1 C 1846.12 976.687 1846.93 912.126 1846.27 847.73 z"/>
<path transform="translate(0,0)" fill="rgb(58,58,51)" d="M 1735.86 19.1493 C 1752.83 21.5592 1771.52 19.9187 1788.7 19.5721 C 1788.26 119.369 1790.05 219.346 1787.96 319.114 C 1770.37 319.309 1753.01 319.558 1735.49 317.674 C 1732.73 282.167 1734.01 246.119 1734.03 210.507 C 1734.27 146.718 1734.88 82.9313 1735.86 19.1493 z"/>
<path transform="translate(0,0)" fill="rgb(121,105,77)" d="M 1668.95 871.717 C 1688.47 872.01 1707.98 873.54 1727.51 874.014 C 1728.16 884.135 1727.4 894.48 1727.27 904.626 L 1726.95 955.939 C 1726.94 1016.91 1726.59 1077.87 1725.91 1138.84 C 1716.51 1141.29 1680.3 1135.92 1667.99 1134.78 C 1667.04 1083.64 1667.98 1032.32 1667.99 981.167 C 1668 944.978 1666.32 907.791 1668.95 871.717 z"/>
<path transform="translate(0,0)" fill="rgb(58,58,51)" d="M 1894.92 464.072 C 1913.78 463.954 1932.65 464.943 1951.52 465.002 C 1952.24 495.633 1951.44 526.433 1951.13 557.076 C 1950.49 616.704 1950.22 676.336 1950.31 735.969 C 1933.41 738.303 1911.37 735.395 1894.15 734.318 C 1892.24 705.621 1893.86 676.578 1893.91 647.823 L 1894.92 464.072 z"/>
<path transform="translate(0,0)" fill="rgb(104,78,53)" d="M 1615.07 444.081 C 1633.24 443.614 1651.77 443.649 1669.94 444.464 C 1671.33 492.398 1669.43 540.518 1669.05 588.46 C 1668.69 634.485 1669.93 680.899 1667.88 726.858 C 1650.68 727.102 1632.1 726.496 1615.13 723.612 C 1613.29 681.667 1614.73 639.725 1614.88 597.788 L 1615.07 444.081 z"/>
<path transform="translate(0,0)" fill="rgb(121,105,77)" d="M 1472.72 490.606 C 1493.78 491.482 1514.86 491.942 1535.95 491.985 L 1536.12 638.282 C 1536.23 657.91 1540.22 706.077 1535.54 722.028 C 1514.05 721.395 1492.61 719.27 1471.13 718.915 C 1470.5 696.085 1471.81 672.99 1471.87 650.122 C 1471.68 596.949 1471.96 543.775 1472.72 490.606 z"/>
<path transform="translate(0,0)" fill="rgb(104,78,53)" d="M 1789.57 820.465 C 1804.27 819.884 1819.26 820.923 1834 821.027 L 1833.98 1042.09 L 1834.07 1104.75 C 1834.08 1118.41 1834.78 1132.56 1832.82 1146.09 C 1818.9 1144.61 1804.63 1144.47 1790.64 1143.81 C 1788.47 1124.36 1789.13 1103.58 1789.12 1084.02 L 1788.97 999.349 L 1788.81 880.835 C 1788.72 862.747 1787.51 844.395 1788.1 826.345 C 1788.17 824.004 1787.85 822.113 1789.57 820.465 z"/>
<path transform="translate(0,0)" fill="rgb(121,105,77)" d="M 1566.84 15.832 C 1582.74 15.1625 1598.79 15.7948 1614.7 15.9878 C 1616.62 53.5186 1615.24 91.4282 1615.14 129.005 C 1615.25 191.318 1614.88 253.631 1614.04 315.938 C 1609.86 319.249 1576.03 316.39 1568.66 315.883 C 1567.35 304.081 1567.95 291.822 1567.95 279.948 L 1567.92 220.124 L 1566.84 15.832 z"/>
<path transform="translate(0,0)" fill="rgb(58,58,51)" d="M 1584.66 458.5 C 1590.61 458.237 1596.62 458.313 1602.58 458.257 C 1602.03 478.804 1602.72 499.486 1602.53 520.056 C 1601.81 588.08 1601.54 656.108 1601.72 724.136 C 1591.34 723.533 1580.95 723.014 1570.56 722.579 C 1563.33 722.2 1556.2 721.615 1549.01 720.782 C 1548.16 694.407 1548.77 667.892 1548.68 641.501 L 1548.95 458.557 C 1560.86 458.714 1572.76 458.695 1584.66 458.5 z"/>
<path transform="translate(0,0)" fill="rgb(58,58,51)" d="M 1188.53 410.56 C 1204.07 411.569 1219.55 411.723 1235.12 411.716 C 1237.03 451.902 1235.68 492.496 1235.38 532.726 C 1234.93 591.319 1234.88 650.077 1235.66 708.662 C 1235.58 708.762 1235.51 708.877 1235.42 708.961 C 1232.35 711.641 1195 708.128 1188.4 707.841 C 1186.07 670.616 1187.89 630.431 1187.94 592.945 C 1187.58 532.15 1187.77 471.352 1188.53 410.56 z"/>
<path transform="translate(0,0)" fill="rgb(121,105,77)" d="M 1436.96 18.955 C 1452.29 20.0135 1467.62 19.3322 1482.95 18.8935 C 1483.36 75.4891 1483.46 132.086 1483.25 188.683 C 1483.32 230.719 1484.07 272.828 1483.27 314.855 C 1479.76 317.774 1442.87 316.068 1436.55 316.015 C 1434.46 270.914 1436.08 225.143 1436.59 180 L 1436.96 18.955 z"/>
<path transform="translate(0,0)" fill="rgb(58,58,51)" d="M 1300.38 409.591 C 1315.59 410.304 1330.78 409.736 1345.97 411.135 C 1346.22 470.868 1345.99 530.602 1345.3 590.331 C 1345.46 631.539 1345.14 672.748 1344.34 713.949 C 1329.58 713.982 1314.73 712.764 1300 711.851 L 1300.38 409.591 z"/>
<path transform="translate(0,0)" fill="rgb(58,58,51)" d="M 1411.23 441.112 C 1427.37 442.517 1443.73 442.035 1459.92 441.906 C 1459.12 468.164 1459.96 494.735 1459.96 521.023 C 1459.96 586.847 1460.4 652.965 1458.48 718.756 C 1442.65 718.046 1426.93 717.404 1411.16 715.763 C 1408.74 684.161 1410.55 652.167 1410.83 620.501 C 1411.35 560.793 1412.18 500.804 1411.23 441.112 z"/>
<path transform="translate(0,0)" fill="rgb(121,105,77)" d="M 1638.2 58.4014 C 1651.33 57.7304 1664.3 58.1854 1677.41 59.2209 C 1678.88 79.1151 1676.99 99.6346 1676.81 119.604 L 1676.07 244.094 C 1676.05 253.498 1677.2 313.219 1675.84 316.978 C 1675.62 317.582 1675.1 318.028 1674.73 318.552 L 1670.25 318.735 C 1655.84 318.501 1641.43 317.962 1627.04 317.119 C 1626.5 260.739 1627.76 204.397 1627.89 148.025 L 1627.92 92.0365 C 1627.9 81.6043 1627.08 70.6414 1628.4 60.3154 C 1630.9 58.3502 1635.08 58.6106 1638.2 58.4014 z"/>
<path transform="translate(0,0)" fill="rgb(58,58,51)" d="M 1161.45 23.7423 C 1175.65 23.6671 1189.85 23.7425 1204.05 23.9684 L 1203.84 226.347 C 1203.72 254.761 1205.22 283.674 1203.3 311.997 C 1189.22 312.044 1175.14 311.57 1161.09 310.576 C 1159.62 294.665 1159.92 278.568 1159.84 262.605 C 1159.69 237.268 1159.7 211.931 1159.89 186.594 C 1160.08 132.48 1158.74 77.7764 1161.45 23.7423 z"/>
<path transform="translate(0,0)" fill="rgb(121,105,77)" d="M 1929.07 34.1921 L 1970.04 34.0034 C 1970.17 100.666 1969.77 167.328 1968.84 233.985 L 1968.42 290.228 C 1968.39 300.547 1969.33 311.858 1967.87 322.01 C 1954.9 322.055 1941.91 322.24 1928.95 321.605 C 1926.86 301.573 1927.91 280.77 1927.92 260.616 C 1927.79 225.893 1928 191.169 1928.53 156.45 C 1929.2 115.742 1927.19 74.8791 1929.07 34.1921 z"/>
<path transform="translate(0,0)" fill="rgb(58,58,51)" d="M 1619.03 816.109 C 1631.33 815.854 1643.66 816.501 1655.99 816.29 L 1656.08 1018.99 C 1656.06 1056.8 1657.27 1095.1 1654.88 1132.83 C 1647.18 1134.63 1628.65 1131.32 1620.21 1130.72 C 1618.24 1116.27 1619.01 1101.26 1619.06 1086.69 L 1619.08 1028.5 L 1619.03 816.109 z"/>
<path transform="translate(0,0)" fill="rgb(104,78,53)" d="M 1496.29 124.097 C 1516.05 123.816 1536.05 123.842 1555.78 125.034 C 1555.71 188.624 1554.51 252.433 1555.43 315.992 C 1535.29 316.151 1515.29 314.997 1495.18 313.886 C 1494.97 272.897 1495.07 231.908 1495.48 190.921 C 1495.5 169.464 1492.62 145.14 1496.29 124.097 z"/>
<path transform="translate(0,0)" fill="rgb(121,105,77)" d="M 1378.75 64.0682 C 1394.01 64.055 1409.34 63.8349 1424.56 64.9861 C 1425.52 93.5973 1424.41 122.406 1424.31 151.044 C 1424.41 205.865 1423.71 260.684 1422.19 315.483 L 1377.85 313.773 C 1377.07 279.377 1377.87 245 1377.89 210.607 C 1377.62 161.759 1377.91 112.909 1378.75 64.0682 z"/>
<path transform="translate(0,0)" fill="rgb(121,105,77)" d="M 1845.18 422.474 C 1857.4 422.6 1869.64 422.156 1881.88 422.24 L 1881.87 632.003 C 1881.81 665.569 1882.25 699.196 1881.46 732.751 L 1880.63 733.554 C 1872.94 736.174 1854.68 733.551 1845.91 732.862 C 1843.62 668.707 1844.9 604.191 1844.95 539.995 L 1844.91 467.655 C 1844.86 452.678 1844.2 437.415 1845.18 422.474 z"/>
<path transform="translate(0,0)" fill="rgb(58,58,51)" d="M 548.212 1454.78 C 594.2 1462.88 639.967 1472.2 685.467 1482.71 C 727.803 1492.16 770.922 1500.93 810.863 1518.19 L 780.462 1526.13 C 746.538 1534.37 712.733 1543.1 679.058 1552.31 C 658.631 1533.13 625.479 1517.26 599.029 1507.76 C 583.549 1502.21 566.492 1497.69 552.499 1488.82 C 547.382 1485.57 543.303 1479.96 542.24 1473.94 C 540.875 1466.21 543.935 1460.86 548.212 1454.78 z"/>
<path transform="translate(0,0)" fill="rgb(192,168,124)" d="M 1115.62 938.886 C 1118.17 939.568 1119.19 940.272 1121.03 942.146 C 1121.32 944.664 1121.38 945.806 1119.8 947.9 C 1112.61 957.401 1101.59 965.893 1092.87 974.106 L 1032.18 1032.11 C 1023.78 1040.18 1013.71 1048.02 1006.26 1056.9 C 1004.41 1059.11 1002.42 1061.73 1002.44 1064.74 C 1002.46 1066.28 1003.4 1066.78 1004.37 1067.85 C 1007.3 1068.68 1007.61 1068.93 1010.44 1067.48 C 1018.13 1063.53 1025.58 1054.34 1031.98 1048.41 C 1048.58 1033.22 1065.04 1017.89 1081.37 1002.4 C 1092.58 991.613 1103.75 979.024 1116.13 969.651 C 1126.03 962.158 1137.3 957.951 1148.77 953.528 L 1147.05 955.245 C 1129.51 972.551 1109.28 987.513 1090.98 1004.12 C 1067.48 1025.44 1042.3 1051.45 1018.36 1071.04 C 1012.78 1075.6 1004.42 1082.06 997.373 1083.93 C 980.511 1088.41 969.713 1076.93 955.034 1073.57 C 951.436 1072.74 947.174 1072.98 943.489 1072.95 L 730.019 1040.14 C 725.179 1039.44 714.804 1038.81 711.873 1034.89 C 712.747 1034.14 712.901 1033.92 714.108 1033.39 C 724.368 1028.87 748.807 1030.06 760.337 1029.57 C 815.564 1027.24 869.268 1028.72 922.035 1047.29 C 938.428 1053.06 953.533 1062.52 969.853 1067.98 C 972.206 1068.77 974.252 1070.06 976.514 1068.52 C 978.988 1066.84 1005.12 1020.83 1010.48 1013.66 C 1038.04 976.782 1075.64 958.755 1115.62 938.886 z"/>
<path transform="translate(0,0)" fill="rgb(104,78,53)" d="M 1853.43 24.4022 L 1866 23.9795 C 1864.56 122.465 1867.65 221.093 1866.58 319.618 C 1858.81 319.808 1851.03 319.842 1843.25 319.718 L 1828.89 319.082 C 1827.15 255.5 1828.07 191.623 1828.21 128.009 L 1828.3 67.0489 C 1828.26 53.5105 1827.58 39.6486 1828.82 26.1734 C 1836.96 25.1986 1845.25 24.9219 1853.43 24.4022 z"/>
<path transform="translate(0,0)" fill="rgb(121,105,77)" d="M 1739.95 834.007 L 1775.98 834.053 C 1777.34 875.506 1776.24 917.353 1776.17 958.836 L 1775.72 1144.05 L 1739.95 1140.72 C 1737.8 1100.41 1739.35 1059.59 1739.59 1019.23 L 1739.95 834.007 z"/>
<path transform="translate(0,0)" fill="rgb(58,58,51)" d="M 1356.08 8.42629 C 1358.45 8.24716 1360.76 8.23667 1363.14 8.26205 C 1363.62 8.81503 1364.36 9.2238 1364.6 9.92097 C 1367.13 17.3513 1365.68 113.504 1365.58 128.742 L 1364.76 313.82 C 1357.76 313.955 1350.75 313.744 1343.75 313.631 L 1331.3 312.949 C 1329 299.218 1329.8 284.508 1329.83 270.607 L 1329.96 212.488 L 1329.78 8.9957 C 1338.57 9.07796 1347.3 8.81608 1356.08 8.42629 z"/>
<path transform="translate(0,0)" fill="rgb(121,105,77)" d="M 1134.71 985.936 C 1135.72 991.375 1099.63 1068.52 1094.71 1079.29 C 1082.4 1084.91 1069.38 1091.67 1061.86 1103.42 C 1057.04 1110.96 1055.46 1118.36 1057.23 1127.07 C 1052.69 1130.64 1047.79 1134.55 1044.17 1139.1 C 1037.54 1147.43 1036.14 1157.38 1037.4 1167.66 C 1031.28 1175.12 1027.82 1182.24 1024.24 1191.14 C 994.344 1214.53 962.952 1236.21 934.845 1261.83 C 934.13 1261.28 934.557 1261.72 934.292 1260.07 C 952.816 1225.53 970.054 1190.13 987.254 1154.91 C 996.518 1135.94 1005 1114.47 1016.93 1097.06 C 1031.33 1076.05 1060.84 1053.71 1079.99 1036.05 C 1098.12 1019.33 1115.23 1001.08 1134.71 985.936 z"/>
<path transform="translate(0,0)" fill="rgb(58,58,51)" d="M 1751.22 489.239 C 1765.99 490.217 1780.9 490.432 1795.7 490.993 C 1793.75 529.525 1794.33 568.424 1794.38 607 L 1793.97 730.875 C 1779.67 729.827 1765.32 730.217 1751.01 728.93 C 1750.09 681.243 1750.75 633.619 1750.91 585.93 C 1751.02 553.726 1750.24 521.418 1751.22 489.239 z"/>
<path transform="translate(0,0)" fill="rgb(58,58,51)" d="M 1982.75 73.1564 C 1996.45 73.9365 2010.31 73.7084 2024.03 73.8466 L 2021.98 321.933 C 2008.28 322.201 1994.63 321.738 1980.94 321.288 C 1979.73 293.239 1981.01 264.591 1981.03 236.469 C 1981.09 182.14 1980.99 127.453 1982.75 73.1564 z"/>
<path transform="translate(0,0)" fill="rgb(58,58,51)" d="M 1878.08 62.0213 C 1891.01 61.7279 1903.95 61.6992 1916.88 61.9354 C 1915.35 90.016 1916.37 118.639 1916.25 146.8 L 1916.1 321.364 L 1880.29 319.914 C 1878.57 283.721 1879.04 247.414 1878.84 211.192 C 1878.21 161.471 1877.96 111.746 1878.08 62.0213 z"/>
<path transform="translate(0,0)" fill="rgb(58,58,51)" d="M 1559.12 846.873 C 1575.35 847.571 1591.76 848.52 1607.92 850.18 C 1605.49 943.223 1606.45 1036.6 1606.07 1129.69 C 1598.98 1129.37 1591.89 1128.94 1584.82 1128.4 C 1579.14 1127.59 1573.16 1127.48 1567.43 1127.04 C 1581.95 1100.98 1589.71 1077.01 1589.66 1046.9 C 1589.6 1013.8 1581.99 980.34 1557.87 956.469 C 1556.44 921.205 1556.97 882.066 1559.12 846.873 z"/>
<path transform="translate(0,0)" fill="rgb(104,78,53)" d="M 1917.61 1009.38 C 1939.09 1009.75 1960.8 1010.57 1982.24 1012.04 C 1983.28 1022.7 1982.97 1033.55 1983.19 1044.26 C 1983.66 1064.39 1983.92 1084.53 1983.96 1104.66 C 1984.01 1121.62 1985.51 1140.23 1983.7 1156.96 L 1982 1158.07 C 1961.34 1157.08 1936.78 1156.89 1917.08 1150.27 C 1916.66 1127.58 1917.53 1104.8 1917.54 1082.1 C 1917.55 1057.89 1916.74 1033.57 1917.61 1009.38 z"/>
<path transform="translate(0,0)" fill="rgb(58,58,51)" d="M 1279.03 76.141 C 1292.36 76.6475 1305.63 76.3717 1318.96 76.0788 C 1316.82 132.726 1318.1 189.832 1318.01 246.534 C 1317.97 268.925 1318.46 291.427 1317.28 313.792 C 1304.73 313.532 1291.41 313.937 1279.06 311.676 C 1276.26 289.799 1278.81 254.594 1278.91 231.487 L 1279.03 76.141 z"/>
<path transform="translate(0,0)" fill="rgb(104,78,53)" d="M 1688.39 47.0971 C 1700.08 47.9249 1711.75 47.953 1723.46 48.0096 C 1722.67 137.979 1724.06 228.136 1721.23 318.066 L 1689.07 317.99 C 1685.6 227.928 1688.86 137.241 1688.39 47.0971 z"/>
<path transform="translate(0,0)" fill="rgb(121,105,77)" d="M 1146.03 445.548 C 1156.06 445.055 1166.12 444.909 1176.15 444.633 C 1175.83 475.441 1177.6 699.252 1175.5 704.96 C 1175.27 705.594 1174.76 706.086 1174.39 706.65 L 1170.75 706.63 C 1160.85 706.006 1150.93 705.484 1141.02 705.064 C 1141.05 678.016 1139.68 450.928 1142.07 446.692 C 1142.73 445.508 1144.8 445.724 1146.03 445.548 z"/>
<path transform="translate(0,0)" fill="rgb(104,78,53)" d="M 1963.66 546.01 C 1978.75 545.853 1993.85 546.223 2008.91 547.119 C 2010.51 568.726 2009.21 591.083 2009.17 612.782 L 2008.84 738.098 C 1993.59 738.619 1978.22 737.581 1963 736.64 C 1962.78 673.096 1963 609.551 1963.66 546.01 z"/>
<path transform="translate(0,0)" fill="rgb(104,78,53)" d="M 1248.53 502.943 C 1261.69 503.079 1274.86 503.621 1288.02 503.967 L 1287.52 652.576 C 1287.31 671.826 1288.88 692.53 1286.58 711.579 C 1273.57 711.235 1260.6 710.835 1247.62 709.956 C 1246.67 679.785 1247.85 649.29 1247.88 619.075 C 1247.91 580.432 1247.01 541.542 1248.53 502.943 z"/>
<path transform="translate(0,0)" fill="rgb(121,105,77)" d="M 1358.04 518.05 C 1371.7 518.562 1385.36 519.231 1399.01 520.058 L 1398.46 651.994 C 1398.25 673.3 1398.73 694.855 1397.44 716.119 C 1383.81 715.79 1370.21 714.908 1356.65 713.476 C 1354.87 690.358 1356.91 665.984 1357.19 642.732 L 1358.04 518.05 z"/>
<path transform="translate(0,0)" fill="rgb(121,105,77)" d="M 1217.44 149.054 L 1266.76 149.91 C 1264.53 204.103 1268.47 258.576 1264.8 312.716 C 1258.51 316.234 1224.77 313.06 1216.2 312.036 C 1215.33 286.541 1216.65 261.152 1216.95 235.674 C 1217.29 206.815 1216.72 177.895 1217.44 149.054 z"/>
<path transform="translate(0,0)" fill="rgb(192,168,124)" d="M 958.276 1094.45 C 972.23 1099.71 983.856 1100.37 998.581 1100.02 C 986.617 1128.54 971.538 1155.73 957.849 1183.44 C 944.741 1209.97 923.052 1262.08 904.306 1283.31 C 902.805 1284.41 901.279 1285.53 899.651 1286.43 C 890.343 1291.62 878.768 1287.69 869.228 1285.27 C 877.989 1268.84 885.493 1251.43 893.374 1234.54 C 907.206 1205.02 920.862 1175.42 934.342 1145.74 C 942.131 1128.59 949.543 1111.14 958.276 1094.45 z"/>
<path transform="translate(0,0)" fill="rgb(58,58,51)" d="M 1807.01 473.979 L 1830.91 474.126 C 1831.96 517.309 1832.31 560.506 1831.96 603.7 C 1831.98 646.319 1832.5 689.11 1830.97 731.699 C 1823.01 732.137 1815.11 731.694 1807.16 731.323 C 1805.98 645.576 1807.52 559.743 1807.01 473.979 z"/>
<path transform="translate(0,0)" fill="rgb(58,58,51)" d="M 1399.6 1306.01 C 1401.3 1305.87 1401.18 1306.2 1402.46 1307.2 C 1411.23 1345.13 1415.58 1427.06 1402.3 1463 C 1395.84 1450.93 1390.67 1437.94 1385.14 1425.4 C 1369.78 1392.16 1352.74 1359.67 1336.25 1326.98 C 1357.01 1319.19 1378.42 1312.57 1399.6 1306.01 z"/>
<path transform="translate(0,0)" fill="rgb(58,58,51)" d="M 566.485 1599.23 C 572.898 1599.98 577.26 1601.87 582.018 1606.31 C 613.837 1636 616.939 1714.13 619.104 1755.08 C 614.692 1756.95 610.198 1758.67 605.748 1760.46 C 596.168 1764.19 586.581 1767.52 576.787 1770.63 C 572.621 1751.78 577.237 1733.62 578.889 1714.72 C 581.434 1685.6 580.658 1646.71 573.585 1618.35 C 572.021 1612.08 568.802 1606.51 566.855 1600.41 L 566.485 1599.23 z"/>
<path transform="translate(0,0)" fill="rgb(104,78,53)" d="M 1506.17 828.878 C 1519.41 828.729 1532.79 829.681 1546.03 830.045 L 1545.17 947.569 C 1539.47 946.963 1532.8 942.728 1527.32 940.704 C 1520.98 938.362 1514.68 936.655 1508.08 935.235 C 1507.1 899.79 1506.46 864.336 1506.17 828.878 z"/>
<path transform="translate(0,0)" fill="rgb(58,58,51)" d="M 1113.3 389.564 C 1128.06 398.677 1141.61 416.949 1152.83 430.27 C 1144.59 430.499 1136.36 430.885 1128.14 431.429 C 1126.81 459.845 1127.2 488.512 1127.08 516.968 L 1127.04 679.75 C 1126.98 688.538 1127.07 697.326 1127.31 706.11 L 1114.79 706.001 C 1113.25 681.316 1114.83 655.81 1114.89 631.05 C 1115.19 573.91 1115.06 516.77 1114.48 459.633 C 1114.18 436.355 1114.87 412.783 1113.3 389.564 z"/>
<path transform="translate(0,0)" fill="rgb(58,58,51)" d="M 1251.49 806.316 C 1266.74 807.444 1282.03 807.984 1297.33 807.935 C 1298.15 837.567 1298.69 868.892 1296.26 898.412 C 1281.59 895.33 1266.34 893.696 1251.5 891.477 C 1251.67 863.09 1251.67 834.703 1251.49 806.316 z"/>
<path transform="translate(0,0)" fill="rgb(58,58,51)" d="M 1310.69 829.944 C 1328.44 829.939 1346.36 831.068 1364.12 831.637 C 1364.02 857.041 1364.24 882.608 1363.05 907.982 C 1344.9 905.51 1326.79 902.769 1308.73 899.759 C 1308.63 890.877 1309.42 881.895 1309.63 873.005 C 1309.96 858.65 1309.66 844.272 1310.69 829.944 z"/>
<path transform="translate(0,0)" fill="rgb(121,105,77)" d="M 1801.78 70.138 L 1814.84 70.1354 C 1817.66 120.837 1815.9 172.543 1816.01 223.362 L 1815.98 284.84 C 1815.97 295.899 1816.79 307.417 1815.62 318.413 L 1814.29 319.461 C 1809.77 319.165 1805.23 319.147 1800.71 319.035 C 1801.14 255.385 1800.53 191.708 1801.4 128.052 C 1801.66 108.798 1800.78 89.3487 1801.78 70.138 z"/>
<path transform="translate(0,0)" fill="rgb(121,105,77)" d="M 1496.05 50.063 L 1555.29 50.0045 C 1554.34 70.1631 1555.89 90.6787 1555.23 110.961 C 1536.29 113.612 1515.18 112.109 1496.1 111.044 C 1495.29 90.764 1495.89 70.3573 1496.05 50.063 z"/>
<path transform="translate(0,0)" fill="rgb(104,78,53)" d="M 1917.73 900.722 C 1939.14 900.306 1960.7 901.233 1982.12 901.635 C 1982.65 917.753 1982.47 933.908 1982.48 950.034 C 1961.08 950.09 1939.38 950.765 1918.04 948.893 C 1917.33 932.845 1917.23 916.777 1917.73 900.722 z"/>
<path transform="translate(0,0)" fill="rgb(58,58,51)" d="M 1406.82 859.463 C 1424.56 859.172 1442.28 860.023 1460.04 859.593 C 1459.55 881.018 1460.26 902.472 1459.17 923.885 C 1441.92 920.476 1424.41 918.099 1407.03 915.408 L 1406.82 859.463 z"/>
<path transform="translate(0,0)" fill="rgb(58,58,51)" d="M 1286.96 1259.97 C 1297.79 1259.98 1308.73 1261.08 1319.47 1262.38 C 1348.39 1265.88 1368.17 1272.81 1389.96 1292.36 L 1375.76 1297.54 C 1360.14 1302.69 1344.61 1308.08 1329.16 1313.71 C 1318.75 1292.7 1304.91 1274.97 1286.96 1259.97 z"/>
<path transform="translate(0,0)" fill="rgb(121,105,77)" d="M 1165.67 827.956 C 1181.16 829.263 1196.81 829.29 1212.34 829.667 C 1211.53 848.197 1212.01 866.889 1212 885.44 C 1196.36 883.186 1180.55 880.997 1165.12 877.561 L 1165.67 827.956 z"/>
<path transform="translate(0,0)" fill="rgb(58,58,51)" d="M 1114.2 787.686 C 1119.63 791.962 1124.58 798.855 1129.2 804.047 C 1136.36 812.091 1143.67 819.833 1151.38 827.352 C 1150.94 843.357 1150.79 859.369 1150.92 875.379 C 1138.97 873.968 1126.83 872.28 1115.09 869.667 C 1114.23 842.327 1115.02 815.022 1114.2 787.686 z"/>
<path transform="translate(0,0)" fill="rgb(104,78,53)" d="M 1963 437.579 C 1979.1 437.81 1995.2 437.921 2011.3 437.911 C 2011.28 453.465 2011.13 469.019 2010.86 484.57 C 1994.95 484.863 1979.01 484.349 1963.1 484.063 C 1962.95 468.569 1962.91 453.074 1963 437.579 z"/>
<path transform="translate(0,0)" fill="rgb(104,78,53)" d="M 1918.01 964.212 C 1939.57 964.303 1961.17 963.837 1982.72 964.526 C 1982.82 975.821 1983.43 987.188 1982.21 998.437 C 1961.28 999.993 1938.77 998.15 1917.89 996.261 C 1917.71 985.578 1917.75 974.893 1918.01 964.212 z"/>
<path transform="translate(0,0)" fill="rgb(121,105,77)" d="M 1217.86 94.0301 C 1233.85 93.7038 1250.06 93.6063 1266.02 94.6937 C 1266.25 109.075 1266.36 123.459 1266.35 137.842 C 1249.96 138.199 1233.37 137.23 1216.97 136.816 C 1217 122.562 1216.76 108.248 1217.86 94.0301 z"/>
<path transform="translate(0,0)" fill="rgb(104,78,53)" d="M 1247.95 439.257 C 1261.41 439.153 1274.98 439.843 1288.45 440.098 C 1287.67 457.358 1287.89 474.728 1287.78 492.007 C 1274.56 491.135 1261.38 490.994 1248.19 489.688 C 1247.68 473.115 1246.89 455.784 1247.95 439.257 z"/>
<path transform="translate(0,0)" fill="rgb(121,105,77)" d="M 1358.08 406.108 C 1371.54 407.983 1385.71 406.992 1399.26 406.596 L 1398.88 456.121 C 1385.28 455.994 1371.59 454.721 1358.01 453.804 C 1357.9 437.905 1357.93 422.006 1358.08 406.108 z"/>
<path transform="translate(0,0)" fill="rgb(104,78,53)" d="M 1963.55 497.973 C 1979.08 497.797 1994.61 497.936 2010.14 498.39 C 2009.89 510.243 2010 522.124 2009.96 533.981 C 1994.51 534.284 1979.05 533.942 1963.62 532.954 C 1962.74 521.379 1963.38 509.576 1963.55 497.973 z"/>
<path transform="translate(0,0)" fill="rgb(121,105,77)" d="M 1357.98 467.078 C 1371.51 468.259 1385.27 468.024 1398.86 468.708 L 1398.91 507.357 C 1385.51 507.214 1372.12 506.413 1358.79 504.957 C 1357.15 492.6 1357.93 479.532 1357.98 467.078 z"/>
<path transform="translate(0,0)" fill="rgb(121,105,77)" d="M 1218.1 32.6469 C 1234.83 43.2064 1250.79 56.2965 1267.13 67.6393 C 1267.02 71.8552 1266.45 76.0951 1266.04 80.2923 C 1250.05 81.0554 1234.04 81.1934 1218.04 80.706 C 1217.89 64.6865 1217.91 48.6659 1218.1 32.6469 z"/>
<path transform="translate(0,0)" fill="rgb(239,95,5)" d="M 1114.13 1085.75 C 1115.64 1086.25 1116.67 1086.87 1117.85 1088.01 C 1120.81 1090.86 1122.48 1095.51 1122.56 1099.55 C 1122.7 1105.92 1119.25 1112.44 1114.74 1116.77 C 1105.6 1125.53 1092.79 1127.12 1080.72 1126.98 L 1079.67 1126.74 C 1075.02 1125.62 1072.82 1125.03 1070.25 1120.83 C 1070.1 1118.71 1070.09 1117.38 1070.91 1115.37 C 1076.23 1102.3 1102.23 1091.14 1114.13 1085.75 z"/>
<path transform="translate(0,0)" fill="rgb(239,95,5)" d="M 1108.9 1136.24 L 1109.93 1137.51 C 1110.39 1141.25 1110.71 1144.3 1109.19 1147.83 C 1105.63 1156.12 1097.03 1162.34 1088.78 1165.41 C 1078.43 1169.26 1065.31 1169.89 1055.23 1165.08 C 1053.56 1163.42 1052.48 1161.91 1051.31 1159.87 C 1051.1 1157.75 1050.97 1156.05 1051.67 1154 C 1054.09 1146.99 1061.5 1142.91 1067.76 1139.82 C 1082.76 1143.11 1094.69 1142.15 1108.9 1136.24 z"/>
<path transform="translate(0,0)" fill="rgb(104,78,53)" d="M 1472.01 872.571 C 1479.04 872.832 1485.94 873.221 1492.92 874.117 C 1496.84 892.378 1495.39 913.34 1496.04 932.024 C 1488.22 929.834 1480.2 928.17 1472.29 926.296 C 1471.71 908.434 1472.07 890.448 1472.01 872.571 z"/>
<path transform="translate(0,0)" fill="rgb(58,58,51)" d="M 1377.63 880.442 L 1392.9 882.374 C 1393.07 892.458 1393.04 902.545 1392.83 912.628 L 1377.27 910.418 C 1377.05 900.697 1376 890.014 1377.63 880.442 z"/>
<path transform="translate(0,0)" fill="rgb(239,95,5)" d="M 1044.59 1179.63 C 1055.78 1183.36 1066.07 1184.08 1077.82 1184.14 C 1075.24 1187.18 1072.42 1189.8 1069.5 1192.49 C 1068.13 1193.2 1066.75 1193.83 1065.28 1194.32 C 1059.55 1196.25 1049.21 1197.7 1043.75 1194.19 C 1041.31 1192.62 1041.08 1191.26 1040.32 1188.67 C 1040.75 1184.92 1042.48 1182.68 1044.59 1179.63 z"/>
<path transform="translate(0,0)" fill="rgb(58,58,51)" d="M 1224.98 858.705 C 1229.29 858.664 1233.63 858.981 1237.93 859.169 L 1237.98 888.568 C 1233.65 888.198 1229.36 887.527 1225.07 886.924 L 1224.98 858.705 z"/>
</svg>