<svg xmlns="http://www.w3.org/2000/svg" width="1365.333" height="1365.333" preserveAspectRatio="xMidYMid meet" version="1.0" viewBox="0 0 1024 1024"><g fill="#000" stroke="none"><path d="M0 512v512h1024V398l-4-.1c-2.2-.1-4.4-.3-5-.4-.5-.1-5.2-.4-10.2-.5-5.6-.2-7.5-.5-4.8-.7 2.4-.3 4.9-.8 5.5-1.2 2-1.5 4.5-2 4.2-.9-.3 1.5 4.5 2.7 6 1.6.7-.5 1.4-.5 1.8.2.3.5 1.9 1 3.6 1h2.9V0H0zM521.1 12.6c.7.8.6 1.4-.1 1.9-1.3.8-1.1 12.5.3 14.2.6.9.5 1.8-.4 2.9-1 1.2-1 2-.1 3.4.7 1.2.8 2.1.2 2.5-1.3.8-1.3 7.2 0 8 .7.5.8 1.1.1 1.9-1.6 1.9-1.2 24.5.5 27.1 1.3 2 1.3 2.3-.2 2.9-1.1.4-1.5 1.5-1.2 3.6.2 1.6.1 2.7-.4 2.4-.4-.3-.7-19.1-.6-41.7.1-22.7.3-38.7.5-35.7.3 3 .9 6 1.4 6.6M551 9.2c0 3.9-.3 6.8-.7 6.4-1-1-1-14.5 0-13.9.4.2.7 3.6.7 7.5m256.1 1.5c.1 1.6.1 10.4.1 19.8 0 9.3-.1 42-.1 72.5l-.1 55.5-11.2-.5-11.3-.5-.3-74.8L784 8h23zm-260.2-.3c.7.8.8 1.7.3 2-.6.3-1.2-.3-1.5-1.4-.6-2.4-.4-2.5 1.2-.6m194.2 68.2v74.1l-.1 5.3h-23.1l.3-73.8.3-73.7 11-.5c6.1-.3 11.1-.5 11.3-.4.1.1.3 31.1.3 69m127.6-58.4c-.2 1.8-.4.6-.4-2.7s.2-4.8.4-3.3.2 4.2 0 6m-267-2c-.3.7-.5.2-.5-1.2s.2-1.9.5-1.3c.2.7.2 1.9 0 2.5m-50.7.4c0 .8-.5 1.2-1 .9-.6-.4-.8-1.1-.5-1.6.9-1.4 1.5-1.1 1.5.7m69 5.9c4.7 3.4 9.6 6.7 10.8 7.4 1.6.9 2.2 2.1 2.2 4.6V40h-24V28.4c0-8.9.3-11.3 1.3-10.8.6.5 5 3.6 9.7 6.9m364.7 36.2c-.4 24.1-.7 56.5-.7 72V161h-9.4c-8.4 0-9.5-.2-10.1-1.9-.4-1.4 0-132.8.4-140.9.1-.9 2.8-1.2 10.2-1.2h10.2zm-383-38.5c-.3.8-.6.5-.6-.6-.1-1.1.2-1.7.5-1.3.3.3.4 1.2.1 1.9M551 28c0 3.8-.3 7-.8 7-.4 0-.6-1.7-.4-3.9.2-2.1-.1-4.1-.6-4.5-.7-.4-.6-1.5.1-3.1.7-1.4 1.3-2.5 1.5-2.5.1 0 .2 3.1.2 7m299-3.3c-1.4.3-3 .9-3.6 1.4q-1.2.9-1.8-.6c-.4-1.2.3-1.5 3.7-1.4 2.8.1 3.3.3 1.7.6m11 .3c0 .5-.7.7-1.5.4-.8-.4-1.5-.8-1.5-1s.7-.4 1.5-.4 1.5.4 1.5 1m-83.4 14.9c0 8.7-.4 14.9-1 15.3-1.2.8-23.5.9-26.5.1-2-.5-2.1-1.2-2.1-15.4V25.1l14.8.1h14.7zm83.1-9.7c-.3.8-.6.5-.6-.6-.1-1.1.2-1.7.5-1.3.3.3.4 1.2.1 1.9m-22.5.9c.5.8.7 5.6.4 10.9-.4 5.2-.6 33.7-.7 63.3v53.8l-10.1-.2c-5.5-.1-10.9-.4-11.9-.6-1.9-.5-1.9-2.6-1.9-64.4l.1-63.8 2.2-.4c4.8-1 20.9 0 21.9 1.4m103.5.5c-.3.3-1.2.4-1.9.1-.8-.3-.5-.6.6-.6 1.1-.1 1.7.2 1.3.5m9 0c-.3.3-1.2.4-1.9.1-.8-.3-.5-.6.6-.6 1.1-.1 1.7.2 1.3.5m5 0c-.3.3-1.2.4-1.9.1-.8-.3-.5-.6.6-.6 1.1-.1 1.7.2 1.3.5M711.7 95c-.3 34.4-.6 62.5-.7 62.5 0 0-4.8-.2-10.7-.5l-10.8-.5-.2-56c-.2-30.8 0-58.8.3-62.2l.7-6.3 11 .2 11 .3zm134-58.3c-.3 1-.5.4-.5-1.2 0-1.7.2-2.4.5-1.8.2.7.2 2.1 0 3m61.5 10c.2 6.5.5 34.5.6 62.4l.2 50.5-3.4-.4c-3.2-.4-3.4-.6-3.8-5.4-.3-2.8-.4-11.2-.2-18.7s.3-33.1.3-56.9L901 35h5.9zm87.5-9.1c-.3.3-1.2.4-1.9.1-.8-.3-.5-.6.6-.6 1.1-.1 1.7.2 1.3.5m17.3.9c0 .8-.2 1.5-.4 1.5s-.6-.7-1-1.5c-.3-.8-.1-1.5.4-1.5.6 0 1 .7 1 1.5m8.7-.9c-.3.3-1.2.4-1.9.1-.8-.3-.5-.6.6-.6 1.1-.1 1.7.2 1.3.5M551 42c0 3.3-1.5 4.1-2.2 1.2-.6-2.1.1-4.2 1.3-4.2.5 0 .9 1.3.9 3m309.7 7.7c-.2 2.1-.4.6-.4-3.2 0-3.9.2-5.5.4-3.8.2 1.8.2 5 0 7m158-1.5c-.2 1.3-.4.3-.4-2.2s.2-3.5.4-2.3c.2 1.3.2 3.3 0 4.5M551 46.4c0 .3-.4.8-1 1.1-.5.3-1 .1-1-.4 0-.6.5-1.1 1-1.1.6 0 1 .2 1 .4m81.8 12 .3 10.9-6.8-.6c-3.7-.4-9.2-.7-12-.7H609V46.9l11.8.3 11.7.3zM551 51.1c0 1.1-.4 1.8-1 1.4-.5-.3-.7-1.2-.3-2 .7-2.1 1.3-1.9 1.3.6m89.7.1c-.3.8-.6.5-.6-.6-.1-1.1.2-1.7.5-1.3.3.3.4 1.2.1 1.9M534.5 53c.3.6-.1.7-.9.4-1.8-.7-2.1-1.4-.7-1.4.6 0 1.3.4 1.6 1m106.2 2.2c-.3.8-.6.5-.6-.6-.1-1.1.2-1.7.5-1.3.3.3.4 1.2.1 1.9M551 55c0 .5-.5 1-1.1 1-.5 0-.7-.5-.4-1 .3-.6.8-1 1.1-1 .2 0 .4.4.4 1m309.7 6.7c-.2 1.6-.4.3-.4-2.7s.2-4.3.4-2.8c.2 1.6.2 4 0 5.5m33-5.5c-.3.8-.6.5-.6-.6-.1-1.1.2-1.7.5-1.3.3.3.4 1.2.1 1.9m-253 3c-.3.8-.6.5-.6-.6-.1-1.1.2-1.7.5-1.3.3.3.4 1.2.1 1.9m-89.8 5c0 2.7-.2 2.9-.8 1.3-.5-1.1-.6-2.6-.4-3.3.8-2.1 1.3-1.3 1.2 2M749 84l-.6 21.5-.2-21.1c-.1-11.6.1-21.4.5-21.7.9-.9.9-2.5.3 21.3m27.3-20.3c-.7.2-2.1.2-3 0-1-.3-.4-.5 1.2-.5 1.7 0 2.4.2 1.8.5m242.4 4c-.3 1-.5.2-.5-1.7s.2-2.7.5-1.8c.2 1 .2 2.6 0 3.5m-157.9 28c0 17-.4 28.5-.7 25.8-.7-5.7-.3-56.5.4-56.5.3 0 .4 13.8.3 30.7M551 75.6c0 3.5-.3 6.4-.7 6.4-.5 0-.8-3.1-.8-6.9s.3-6.7.8-6.4c.4.2.7 3.3.7 6.9m-25.2-3.1c-.3.3-.9-.2-1.2-1.2-.6-1.4-.5-1.5.5-.6.7.7 1 1.5.7 1.8m492.9-.3c-.3.8-.6.5-.6-.6-.1-1.1.2-1.7.5-1.3.3.3.4 1.2.1 1.9M633 111.4c0 20-.3 38.3-.6 40.8l-.6 4.4-11.6-.4c-6.4-.2-11.8-.5-12-.6-.1-.2.1-18.4.4-40.5l.7-40.1H633zm385.7-27.7c-.3 1-.5.4-.5-1.2 0-1.7.2-2.4.5-1.8.2.7.2 2.1 0 3M847 83.5c1.1 1.3 1 1.4-.4.9-.9-.3-1.6-1-1.6-1.5 0-1.3.6-1.1 2 .6m-296.4 2c.1 1.4-.2 2.5-.6 2.5-.6 0-.7-3.6-.1-4.8.4-.7.6.1.7 2.3m-30.4 35.9c0 20 .3 32.8.9 33.2.6.3.6 1 .1 1.7s-1 7-1 14c0 7.1-.3 13.1-.6 13.4-.3.4-.6-21.1-.6-47.7s.3-48.1.6-47.7c.4.3.6 15.2.6 33.1M551 91.8c0 1.5-.2 1.5-1 .2-1.3-2-1.3-3.3 0-2.5.6.3 1 1.4 1 2.3m-.3 4.4c-.3.8-.6.5-.6-.6-.1-1.1.2-1.7.5-1.3.3.3.4 1.2.1 1.9M846 97c0 .5-.2 1-.4 1-.3 0-.8-.5-1.1-1-.3-.6-.1-1 .4-1 .6 0 1.1.4 1.1 1m-295 4.5c0 1.4-.4 2.5-1 2.5-.8 0-.8-2.3-.1-4.8.4-1.2 1.1.3 1.1 2.3m197.7 18.7c-.2 2.9-.3.8-.3-4.7s.1-7.9.3-5.3.2 7.1 0 10m-198.2-6.3c.3.5.2 1.2-.3 1.5s-.9-.1-.9-.9c0-1.7.3-1.9 1.2-.6m-.2 7.1c-.4 1.6-.8 1.8-1.9.9-1.6-1.3-1.9-2.3-.5-1.4.5.3 1.2.1 1.6-.5 1-1.6 1.4-1.2.8 1m198.4 8.7c-.3 1-.5.4-.5-1.2 0-1.7.2-2.4.5-1.8.2.7.2 2.1 0 3m97 .5c-.3.8-.6.5-.6-.6-.1-1.1.2-1.7.5-1.3.3.3.4 1.2.1 1.9m-265 4c-.3.8-.6.5-.6-.6-.1-1.1.2-1.7.5-1.3.3.3.4 1.2.1 1.9m168 6c-.2 1.8-.4.6-.4-2.7s.2-4.8.4-3.3.2 4.2 0 6M550 137.9c0 3.1-.5 5.1-1.3 5.4-.9.3-1.3-.2-1.1-1.6.1-1.2.3-2.3.4-2.5.4-.4.7-2.1.9-4.2.2-4.1 1.1-1.8 1.1 2.9m296-2.8c-.7 1.1-1.4 1.8-1.7 1.5s0-1.2.7-2.1c1.8-2.1 2.3-1.9 1 .6m-311.9 11.2c-1 .9-1.1.8-.5-.6.3-1 .9-1.5 1.2-1.2s0 1.1-.7 1.8M846 145c0 .5-.5 1-1.1 1-.5 0-.7-.5-.4-1 .3-.6.8-1 1.1-1 .2 0 .4.4.4 1m-95.7 10.9c1 1.1.9 1.3-.3.9-1.1-.3-1.5-2.1-1.6-6.4-.1-5.3-.1-5.4.3-.9.2 2.7 1 5.6 1.6 6.4m-219.9-6.4c-.4.8-1.1 1.5-1.6 1.5-.6 0-.5-.6.2-1.5.7-.8 1.4-1.5 1.6-1.5s.1.7-.2 1.5m19.6 3.7c0 1.8-.2 2-.9.8-.6-.8-.7-1.8-.5-2.2.9-1.4 1.4-.9 1.4 1.4m-20.7 3.5c-.3.6-1.1.9-1.9.6-2-.7-1.7-1.9.5-1.9 1.1 0 1.7.6 1.4 1.3m230 0c-1.3.2-3.5.2-5 0-1.6-.2-.5-.4 2.2-.4 2.8 0 4 .2 2.8.4m173.4 1.5c-.3.8-.6.5-.6-.6-.1-1.1.2-1.7.5-1.3.3.3.4 1.2.1 1.9M860 158c0 .5-.8 1-1.7 1-1.5 0-1.6-.2-.3-1 1.9-1.2 2-1.2 2 0m-309.7 4.3c.2.7.1 2.1-.4 3.2-.7 1.8-.8 1.7-.8-.6-.1-1.4-.7-3.1-1.3-3.8-1.1-1-1-1.1.4-.6.9.4 1.8 1.2 2.1 1.8m12.9 1.4c-3.1.6-5 4.8-3.4 7.3.7 1.2.8 2.1.2 2.5-1.8 1.1-1 4.5 1.3 5.4 1.2.5 2.5.7 3 .4.4-.2.7.1.7.8s-.8.9-2.2.4c-1.3-.3-2.9-.7-3.5-.7-1.6-.2-1.8-10.4-.3-14.2.7-2 1.6-2.6 3.7-2.5 2.5.2 2.5.2.5.6m6.8-.3c0 .9-3 1.4-3.5.6-.4-.6.3-1 1.4-1 1.2 0 2.1.2 2.1.4m29.5.3c-3.2.2-6.5.9-7.1 1.4q-1.2 1.05-1.8 0c-.4-.5-4.7-1-9.8-1-5 0-9.3-.3-9.6-.6s7.3-.4 16.9-.3 14.7.3 11.4.5m27.2 0c-.8.7-19.8.5-20.6-.2-.2-.3 4.4-.5 10.4-.5s10.5.3 10.2.7m3.8.3c-.3.5-1.1 1-1.6 1-.6 0-.7-.5-.4-1 .3-.6 1.1-1 1.6-1 .6 0 .7.4.4 1m67.7.7c-5.5.3-9.2.9-10.8 2-2 1.3-2.4 1.3-2.2.2s-1.8-1.5-10.2-1.7c-19-.4-12.9-1 9.5-.9 12.1.1 18.2.3 13.7.4m14.4.2c-.5.8-5.6.3-5.6-.5 0-.2 1.4-.4 3.1-.4 1.6 0 2.8.4 2.5.9m3.4.1c0 .5-.2 1-.4 1-.3 0-.8-.5-1.1-1-.3-.6-.1-1 .4-1 .6 0 1.1.4 1.1 1m4.3-.3c-.7.2-1.9.2-2.5 0-.7-.3-.2-.5 1.2-.5s1.9.2 1.3.5m15 1c-.7.2-1.9.2-2.5 0-.7-.3-.2-.5 1.2-.5s1.9.2 1.3.5m7 0c-.7.2-2.1.2-3 0-1-.3-.4-.5 1.2-.5 1.7 0 2.4.2 1.8.5m27.2 0c-2.7.2-5.4.8-5.9 1.3-.6.6-1.4.6-2.1 0-.6-.5-4.9-1.1-9.5-1.3-4.7-.1-1.5-.3 7-.3s13.3.1 10.5.3m24 .2c.2.4-.5 1.2-1.5 1.9-1.4.9-1.9.8-2.4-.3-.3-1-2.7-1.5-7.8-1.8-6.7-.3-6.5-.4 2-.4 5.1 0 9.4.3 9.7.6m3.5.1c0 .5-.2 1-.4 1-.3 0-.8-.5-1.1-1-.3-.6-.1-1 .4-1 .6 0 1.1.4 1.1 1m15.3.7c-2.3.2-6.4.2-9 0s-.7-.3 4.2-.3c5 0 7.1.1 4.8.3m43.5-.2c-.7.7-36.9.7-37.6 0-.3-.3 8.2-.5 18.8-.5s19.1.2 18.8.5m15.2.3c0 .4-1.7.6-3.7.4-6.5-.6-7-1-1.5-1.1 2.8 0 5.2.3 5.2.7m9.8.1c1.8.1 3.1.5 2.8 1-.3.4-1.7.6-3.1.3-1.4-.2-3.1.1-3.9.7-1 .8-1.7.6-3.1-.8-1.7-1.9-1.6-2 1.1-1.6 1.6.2 4.4.4 6.2.4m15 .8c-2.1.2-5.5.2-7.5 0-2.1-.2-.4-.4 3.7-.4s5.8.2 3.8.4m45.8 0c-.3.4-2.9.6-5.8.6-2.9-.1-5.7.2-6.3.6-1.2.7-3.4.7-5.5-.2-.8-.4-6.7-.8-13-1s-1.9-.4 9.8-.4c11.8-.1 21.1.1 20.8.4m-390.9 1.7c0 .8-.9 1.7-2 2-1.8.4-1.8.4-.1-1.5 2.1-2.3 2.1-2.3 2.1-.5m426.6-.7c-2.9.2-7.8.2-11 0s-.8-.3 5.2-.3c6.1 0 8.7.1 5.8.3m20.7.8c-.9 1.1-1.6 1.3-2.4.5-.5-.5-2.6-1-4.6-1s-4.1.5-4.6 1c-.8.8-1.5.6-2.4-.5-1.1-1.3-.3-1.5 7-1.5s8.1.2 7 1.5m14-1.1c0 .2-1.1.6-2.5.8-1.3.3-2.2.1-1.9-.3.5-.9 4.4-1.3 4.4-.5m-419.7 4.7c-.4 1.6-.8 1.7-1.4.7-1.3-1.9-1.1-2.8.5-2.8q1.35 0 .9 2.1m-42 6.9c-.3 1.1-.7 2-.9 2s-.4-.9-.4-2 .4-2 .9-2 .7.9.4 2m38.3-.1c3.8-.1 7.4-.6 8.1-1.1.7-.6 1.4-.5 1.8.2s4.5 1 11.1.9c5.8-.1 10.8.1 11.1.5.4.3-11 .6-25.2.6s-25.6-.2-25.3-.5 2.2-.6 4.2-.7 3.9-.5 4.2-1 1.2-.4 1.9.2 4.4 1 8.1.9m-19.6.1c0 .5-.8 1-1.7 1-1.5 0-1.6-.2-.3-1 1.9-1.2 2-1.2 2 0m109 .5c1.1 1.3-1.1 1.5-19.1 1.3l-20.4-.3 18-.2c9.9-.2 18.4-.8 18.9-1.3 1.3-1.3 1.1-1.3 2.6.5m18.8 2c.2.2-3.4 0-8-.2-9.1-.5-11.8-1.3-4.5-1.3 2.5 0 4.8-.4 5.1-.9.5-.7 5.4.9 7.4 2.4m51.5-1.3c.5 1.7-.7 1.8-22.1 1.8-12.4 0-22.2-.3-21.8-.7s3.4-.6 6.8-.5c3.3.1 6.6-.2 7.3-.8s1.6-.7 1.9-.2c.7 1.2 16.4 1.4 17.1.1.5-.7 1.1-.6 2 .1 1.7 1.4 6.1.9 5.8-.6-.3-1.9 2.5-1.1 3 .8m-110.5.3c.3.3-1.8.5-4.6.5-2.9 0-5.2-.4-5.2-.9 0-.9 8.9-.5 9.8.4m119.9 1.7c-1.5.9-1.9.4-1.1-1.6.5-1.4.9-1.5 1.5-.5.5.8.3 1.7-.4 2.1m45.9.1c5.4.2-1.9.4-16.3.4-14.5.1-26.3-.1-26.3-.5s6.3-.5 14.1-.4c9.2.3 14.5 0 15.2-.7s1.5-.7 2.2-.1c.6.5 5.6 1.1 11.1 1.3m-49.2-.4c.3.4-.6.6-1.9.3-1.4-.2-2.5-.6-2.5-.8 0-.8 3.9-.4 4.4.5m121.3.6c0 .8-.7 1.5-1.5 1.5-1.2 0-1.2-.3-.2-1.5.7-.8 1.3-1.5 1.5-1.5.1 0 .2.7.2 1.5m-58.4.2c-.7.2-1.9.2-2.5 0-.7-.3-.2-.5 1.2-.5s1.9.2 1.3.5m8.7.3c.8.5 1.1 1 .5 1-.5 0-1.7-.5-2.5-1s-1-1-.5-1c.6 0 1.7.5 2.5 1m8 .6c0 .2-1.5.4-3.2.3-2.7 0-2.9-.2-1.3-.8 1.8-.8 4.5-.4 4.5.5m11 0c0 .2-2.1.3-4.7.3-4.6-.2-4.7-.2-1.3-.8 3.3-.7 6-.4 6 .5m26.5-.1c.6.2-4.8.3-12 .2-9.7 0-11.3-.2-6.5-.6 6.3-.6 16.4-.4 18.5.4m17.1.8c.3.2-1.8.5-4.6.6-2.8 0-4.9-.3-4.6-.7.5-.8 8.4-.8 9.2.1m-598.3 5.6c2.6 9.2 7.5 32 9.2 42.3 1.9 12.1 1.9 17.4 0 18.2-2.9 1.1-1.6 4.2 3.3 7.4 5 3.2 15.5 13.4 19.8 19.2 7.9 10.7 12.4 25.1 12.4 39.6v9.4l-5.8 2.9c-3.1 1.6-6.8 3.8-8.2 4.9-5.1 4.2 1.7 5.3 10.2 1.7 1.6-.6 1.7-.3 1.2 2.6-.9 4.5-1.9 5.6-5.9 6.3-1.8.4-4.4 1.5-5.6 2.5-2.1 1.7-2.2 2.1-.9 3.6 1.1 1.3 2.3 1.5 5.3 1.1 3.9-.7 3.9-.6 3.3 2.1-1.1 4.6-8.2 18.8-12.7 25.5-6.4 9.5-14.7 17.1-23.1 21.2-10.2 5-17.4 6.6-31.5 7.3-12.5.6-15.2 1.5-14 4.7.7 1.7 9 3.6 16 3.6 13.1 0 33.4-6.7 42.6-13.9l3.6-2.9 10 1.8c24.8 4.4 30.9 7.3 45 21.4 9.8 9.7 21.1 24.1 39.6 50.1 10.7 15 23.9 34.2 23.9 34.7 0 .2-3.7 0-8.2-.4-4.6-.3-12.1-.7-16.8-.7l-8.5-.1-3.3-9.3c-7-19.9-29.9-56.7-35.3-56.7-1 0-2.3.8-2.8 1.8-.8 1.5.6 4.3 7.5 14.7 9.6 14.3 17.8 29.2 22.3 40.8 1.7 4.3 3.1 7.9 3.1 8.1s-3.5.7-7.7 1c-19.8 1.6-28.3 2.9-29.7 4.5-.8.9-5.5 8.8-10.5 17.6s-9.4 16.6-9.8 17.3c-.5.7-6 2.3-12.4 3.6-12.9 2.6-20.2 5.7-44.1 18.7-12.2 6.7-16.2 8.3-22.6 9.5-10.1 1.8-43.8 1.9-46.9.1-1.3-.6-4.8-5.3-7.9-10.2l-5.6-9 .7-19.7c.3-10.8 1.2-27.3 1.9-36.5.9-11.2 1-17.2.3-18.1-1.5-2-4.7-1.4-5.6 1-1.8 5-5.1 55.4-5.1 79.5V578h-6.5c-6 0-6.6.2-7.7 2.5-2.4 5.3-1.7 5.4 38.2 6.1 47.6.9 45.6 1.3 76.5-14 12.7-6.3 25.5-12.1 28.5-12.9 7.4-2.1 13-2.9 13-2.1 0 .4-1.1 2.6-2.5 5-2.4 4.1-2.8 4.3-8.2 4.9-8.7.9-11.7 1.9-12.1 3.8-.8 4.2.8 4.5 22.1 4 26.5-.7 35.6 1.3 38.7 8.7 1.6 3.9.6 7.3-2.7 9.6-2.5 1.7-4.8 1.9-20.3 1.9-9.6 0-18.1.4-18.7.8-1.5.9-1.7 4.3-.4 5.1.5.3 6.5 1.1 13.5 1.7 9.1.8 14.2.8 18.8 0 5.3-.9 6.4-.8 8 .6 5.1 4.6-.7 12.2-10.8 14.3-3.4.7-11.1 1.1-18.8.9l-13.1-.4-.3 2.4c-.2 1.3.1 2.8.6 3.3s5.8 1.5 11.8 2.1l10.9 1.2-3.7 2.2c-8.3 4.9-16.7 5.4-47.4 3.2-17.5-1.3-22.3-.9-42.4 3.6-24.3 5.5-43.7 7.6-71.5 7.6-25.3 0-40.1-4-50.3-13.5-9.7-9.1-13-22.1-13.9-54.1s3.1-66.4 10.3-90.5c6.7-22.1 22-48.2 44.2-75.5 3.6-4.4 6.7-8.2 6.9-8.4.1-.2 2.1.4 4.4 1.4 3 1.4 4.5 1.6 5.7.8 2.9-1.8 1.9-3.5-4.7-7.5-13-7.9-21-16.8-28.1-31.3-5.9-11.8-8.7-22.3-9.6-34.9-.6-7.6-.4-9.8 1.1-12.5 2-3.9 1.8-5-2.5-15.1-4-9.4-6.2-18-9.4-36.2-4.3-24.9-5.5-46.8-2.5-46.8 1.1 0 11.7 5.7 19.4 10.4 11.1 6.9 24.1 16.1 33.7 24.2 9.4 7.8 10.3 8.3 12.2 7 1.3-.8 2.1-2.4 2.1-4-.1-2.3.8-2.9 7.5-5.7 15-6.3 19.7-7.2 40.9-7.4 16.3-.1 19.6-.4 20.4-1.7 1.5-2.4.1-4.8-3.3-5.4q-3-.6-3-2.4c0-2.9 8.4-18.8 15.2-28.8 6.3-9.2 15.8-21 16.9-21.1.3-.1 1.3 2.6 2.2 5.8m229.9 7.9c.2 7.3 0 13.2-.4 13.2-.5 0-.8-6.2-.8-13.7s.2-13.4.5-13.2c.2.3.6 6.5.7 13.7m373.1-13.1c-.7.2-1.9.2-2.5 0-.7-.3-.2-.5 1.2-.5s1.9.2 1.3.5m21.5 0c-3.2.2-8.4.2-11.5 0-3.2-.2-.6-.3 5.7-.3s8.9.1 5.8.3m9.5 0c-.7.2-1.9.2-2.5 0-.7-.3-.2-.5 1.2-.5s1.9.2 1.3.5m6 0c-.7.2-2.1.2-3 0-1-.3-.4-.5 1.2-.5 1.7 0 2.4.2 1.8.5m5.4-.1c-.3.3-1.2.4-1.9.1-.8-.3-.5-.6.6-.6 1.1-.1 1.7.2 1.3.5m16.1.8c.2.3-1.4.5-3.7.4-2.3 0-4.4-.4-4.6-.9-.5-.8 7.4-.3 8.3.5m11.5.3c-1.3.2-3.5.2-5 0-1.6-.2-.5-.4 2.2-.4 2.8 0 4 .2 2.8.4m24 0c-4 .2-10.6.2-14.5 0-4-.1-.8-.3 7.2-.3s11.2.2 7.3.3m12.4-.1c-.3.3-1.2.4-1.9.1-.8-.3-.5-.6.6-.6 1.1-.1 1.7.2 1.3.5M550.3 190c-.3 1.2-.8 1.9-1.1 1.6-.5-.6.5-3.6 1.2-3.6.2 0 .2.9-.1 2m.7 3.4c0 .3-.4.8-1 1.1-.5.3-1 .1-1-.4 0-.6.5-1.1 1-1.1.6 0 1 .2 1 .4m148 22.5v12.4l-5.2-.7c-2.9-.3-7.4-.6-10-.6H679v-23.5h20zM527 208c0 .5-.2 1-.4 1-.3 0-.8-.5-1.1-1-.3-.6-.1-1 .4-1 .6 0 1.1.4 1.1 1m24 .7c0 .5-.5 1.5-1 2.3-.8 1.2-1 1.1-1-.8 0-1.2.5-2.2 1-2.2.6 0 1 .3 1 .7m293.3 0c-.7.2-1.9.2-2.5 0-.7-.3-.2-.5 1.2-.5s1.9.2 1.3.5m4.4-.1c-.3.3-1.2.4-1.9.1-.8-.3-.5-.6.6-.6 1.1-.1 1.7.2 1.3.5m4 0c-.3.3-1.2.4-1.9.1-.8-.3-.5-.6.6-.6 1.1-.1 1.7.2 1.3.5m88.1 80.5-.1 77.9H935c-3.2 0-7.2-.3-8.9-.6l-3.1-.7V211.5l9-.2 9-.2zm-420.6-69c.3 5.4.6 6.4 2.2 6.7 1.1.3 2.6-.4 3.3-1.4 1.1-1.5 1.5-1.6 2.6-.4q1.2 1.35 0 .6c-.6-.3-1.8.2-2.5 1.3-.8 1.1-2.3 1.9-3.3 1.8-1.7-.2-2.1.6-2.6 5.3-.4 3.7-.6 1.1-.7-7.9-.2-13.7.5-17.7 1-6m11.5-4.7c0 .8-.6 1.2-1.4.9-.7-.3-1-.9-.7-1.4.8-1.4 2.1-1.1 2.1.5m18.6-.1c.3.8.2 2-.3 2.6-.5.9-.7.4-.7-1.3 0-2.9.2-3.2 1-1.3m454.7 4.4c0 .5-4.8.8-10.7.8h-10.8v20l9.4.3c5.2.1 9.8-.1 10.2-.5.5-.5.9-4.8 1-9.7.1-4.8.4-8.4.8-7.8.3.5.5 5.1.3 10.1l-.3 9.1H982v-23h11.5c6.3 0 11.5.3 11.5.7m-374.5 1c-2.2.2-4.5 1.1-5.2 2-1 1.3-1.2 1.3-1-.6.1-1.9.7-2.1 5.2-1.9 4.6.1 4.7.2 1 .5m10.2-.1c-.3.3-1.2.4-1.9.1-.8-.3-.5-.6.6-.6 1.1-.1 1.7.2 1.3.5M550 222c0 .5-.5 1-1.1 1-.5 0-.7-.5-.4-1 .3-.6.8-1 1.1-1 .2 0 .4.4.4 1m94 0c0 .5-.2 1-.4 1-.3 0-.8-.5-1.1-1-.3-.6-.1-1 .4-1 .6 0 1.1.4 1.1 1m173 .9c-1.4.5-2.4 1.4-2.2 2.2.2.9-.4.7-1.7-.6-1.4-1.1-2.5-1.5-3.1-.9-.5.5-1.1 6.1-1.3 12.4l-.3 11.5-.2-12.8-.2-12.7 5.8.1c4.1.1 5 .3 3.2.8m-229 65.2-.1 65.1-8-.5c-4.5-.3-8.3-.7-8.5-.9-.3-.4-.5-30.8-.4-97.1V223h17zm118.7-57.4c-.2 1.6-.4.3-.4-2.7s.2-4.3.4-2.8c.2 1.6.2 4 0 5.5m-63.5-2.5c-.6.6-.7 0-.4-1.9.5-2.1.7-2.3 1-.9.2 1 0 2.2-.6 2.8m-18.5 3.5c-.2 1.6-.4.5-.4-2.2 0-2.8.2-4 .4-2.8.2 1.3.2 3.5 0 5m210 .5c-.2 1.3-.4.3-.4-2.2s.2-3.5.4-2.3c.2 1.3.2 3.3 0 4.5M543 229.1c0 .4-.7.6-1.5.3-.8-.4-1.5-1-1.5-1.5 0-.4.7-.6 1.5-.3.8.4 1.5 1 1.5 1.5m7.5-1.1c.3.5.1 1-.4 1-.6 0-1.1-.5-1.1-1 0-.6.2-1 .4-1 .3 0 .8.4 1.1 1M699 243.9v9.6l-8.7-.5c-4.9-.3-9.4-.9-10-1.3-.9-.6-1.3-3.6-1.3-9.3v-8.5l10 .2 10 .3zm7.7-4.2c-.3 1-.5.2-.5-1.7s.2-2.7.5-1.8c.2 1 .2 2.6 0 3.5m-157-1.5c-.3.8-.6.5-.6-.6-.1-1.1.2-1.7.5-1.3.3.3.4 1.2.1 1.9m94.2 1.5c0 2.5-.1 2.6-.9.8-1.2-2.7-1.2-3.5 0-3.5.6 0 1 1.2.9 2.7m190.8 14.5c-.2 2.9-.3.6-.3-5.2s.1-8.1.3-5.3c.2 2.9.2 7.7 0 10.5m-314.5 17.5c0 18.4.4 31.3.9 32 .7.7.6 1.3-.1 1.8-1.4.9-1.4 36.1.1 37.1.8.4.8.9 0 1.7-1.3 1.3-1.4 5.4-.2 6.1 1 .6.9 2.4-.1 4.1-.3.5-.6 7.9-.6 16.3 0 8.5-.3 15.6-.6 15.9-.3.4-.6-32.6-.6-73.2s.3-73.6.6-73.2c.3.3.6 14.4.6 31.4m186.5-27.5c-.3.8-.6.5-.6-.6-.1-1.1.2-1.7.5-1.3.3.3.4 1.2.1 1.9m-69.4.5c-1.8.2-4.8.2-6.5 0-1.8-.2-.4-.4 3.2-.4s5 .2 3.3.4m130.9 51.1c.2 27.3.2 53.2 0 57.5l-.3 7.7-8.7-.5c-4.8-.3-12-.8-16-1.1l-7.4-.6.3-55.1c.1-30.4.4-55.9.6-56.7.3-1.3 2.8-1.5 15.8-1.2l15.5.3zm-95.5-45.6c-.3.8-.6.5-.6-.6-.1-1.1.2-1.7.5-1.3.3.3.4 1.2.1 1.9m138.3-.7c0 .1-.6.8-1.4 1.5-1.2.9-1.5.8-1.3-.8 0-1.2.6-1.8 1.4-1.5.7.3 1.3.6 1.3.8m180.5.4-8 .6-.1 6.5c-.1 3.6.3 7.1.8 7.7.8 1 .6 1.3-.6 1.3-1.3 0-1.6-1.3-1.6-8.5V249l8.8.2 8.7.2zm-284.8 2.3c-.3.8-.6.5-.6-.6-.1-1.1.2-1.7.5-1.3.3.3.4 1.2.1 1.9m-168.9 2.3c-.3.3-.9-.2-1.2-1.2-.6-1.4-.5-1.5.5-.6.7.7 1 1.5.7 1.8m13.2-.3c0 1.6-.3 1.9-1.1 1.1-.6-.6-.8-1.6-.5-2.2 1.1-1.7 1.6-1.3 1.6 1.1m88.5-1.3c-1.8.4-2.9 1.3-2.7 2.1.2 1-.3.9-2.1-.3-1.3-.9-4.2-1.7-6.3-2-2.1-.2.2-.4 5.1-.4 5.4 0 7.8.2 6 .6m365.2 2.3c-.3.8-.6.5-.6-.6-.1-1.1.2-1.7.5-1.3.3.3.4 1.2.1 1.9m-379.1 1.3c-.1.8-.5 1.7-.8 2.1-.5.4-.4-1.6.1-3.4.3-.9.9.1.7 1.3m184.9 10.1c1.1.8 1.1 1.2-.4 2.1-1.7 1.1-1.8.6-1.8-5.5 0-4.6.1-5.3.4-2.2.2 2.5 1 5 1.8 5.6m194.5-9.2c0 .3-.4.8-1 1.1-.5.3-1 .1-1-.4 0-.6.5-1.1 1-1.1.6 0 1 .2 1 .4m-298.3 2.8c-.3.8-.6.5-.6-.6-.1-1.1.2-1.7.5-1.3.3.3.4 1.2.1 1.9m-157 1c-.3.8-.6.5-.6-.6-.1-1.1.2-1.7.5-1.3.3.3.4 1.2.1 1.9m142.6-1.3 6.7.1v48.5c0 38-.3 48.7-1.2 49-.7.2-5.3.1-10.3-.3l-9-.7.1-6.5c0-3.6.1-25.5.2-48.7l.2-42.3 3.3.4c1.7.2 6.2.4 10 .5m-48.6 6.3c-.3.8-.6.5-.6-.6-.1-1.1.2-1.7.5-1.3.3.3.4 1.2.1 1.9m361.3-.2c0 .6-3.5.9-8.7.8l-8.8-.2 8-.6c4.4-.3 8.3-.7 8.8-.8.4-.1.7.2.7.8m-379.9 14.6c-.1 7.6-.4 14-.6 14.3-.3.2-.5-6.2-.5-14.4s.3-14.6.6-14.2c.3.3.5 6.7.5 14.3m-75.4-11.8c.1 1-.5 1.9-1.2 1.9-1 0-1.1-.5-.4-1.9.5-1 1.1-1.8 1.2-1.8.2 0 .3.8.4 1.8m0 6.4c-.3.8-.6.5-.6-.6-.1-1.1.2-1.7.5-1.3.3.3.4 1.2.1 1.9m435.8-1.3c-1.8.7-2.1 2-2.5 13.2l-.6 12.4-.2-13.3-.2-13.2 2.8.1c2.3 0 2.4.1.7.8m-342 1c.3.5.2 1.2-.3 1.5s-.9-.1-.9-.9c0-1.7.3-1.9 1.2-.6m360.2 2.3c.1 1.8-.1 2.4-.4 1.3s-1.2-2.6-2.1-3.3c-1.4-1.1-1.4-1.2.4-1.2 1.5 0 2 .7 2.1 3.2m-454 4c-.3.8-.6.5-.6-.6-.1-1.1.2-1.7.5-1.3.3.3.4 1.2.1 1.9m-3.7 1.2c0 .8-.7 1.6-1.5 2-1.2.4-1.3.2-.2-1.4 1.4-2.4 1.7-2.5 1.7-.6m262.7 8.3c-.2 2.1-.4.6-.4-3.2 0-3.9.2-5.5.4-3.8.2 1.8.2 5 0 7m195-3.5c-.2 1.3-.4.3-.4-2.2s.2-3.5.4-2.3c.2 1.3.2 3.3 0 4.5m-454-1c-.3.7-.5.2-.5-1.2s.2-1.9.5-1.3c.2.7.2 1.9 0 2.5m-15.7 3.3c0 .8-.2 1.5-.4 1.5s-.6-.7-1-1.5c-.3-.8-.1-1.5.4-1.5.6 0 1 .7 1 1.5m110 0c0 .8-.2 1.5-.4 1.5s-.6-.7-1-1.5c-.3-.8-.1-1.5.4-1.5.6 0 1 .7 1 1.5m189.8 29.2c-.2 17.5-.4 22.6-.5 12.9-.2-8.9-.8-16.5-1.4-17.2-.7-.8-.7-1.4.1-1.9.6-.4 1-5 1-11.6 0-6 .2-10.9.5-10.9s.4 12.9.3 28.7m-190.1-22c-.3 1-.5.4-.5-1.2 0-1.7.2-2.4.5-1.8.2.7.2 2.1 0 3m-94 6c0 4.9-.2 7.2-.4 5.3s-.7-4.2-1-5c-1.1-2.7-1.1-4-.2-4.6.5-.3.9-1.4.9-2.5 0-1 .2-1.9.4-1.9s.4 3.9.3 8.7m425-6.5c-.3.8-.6.5-.6-.6-.1-1.1.2-1.7.5-1.3.3.3.4 1.2.1 1.9m-166 1c-.3.8-.6.5-.6-.6-.1-1.1.2-1.7.5-1.3.3.3.4 1.2.1 1.9m195 1.5c-.3 1-.5.4-.5-1.2 0-1.7.2-2.4.5-1.8.2.7.2 2.1 0 3m-378.3 26.5.1 28.3 6.5.6 6.5.6-7.2.1-7.3.2v-29.7c0-16.3.3-29.4.6-29 .3.3.7 13.3.8 28.9m183.3-18.5c-.2 1.6-.4.5-.4-2.2 0-2.8.2-4 .4-2.8.2 1.3.2 3.5 0 5M983 325.5c0 13.7-.2 25-.5 25.3s-.5-11.1-.5-25.3.2-25.6.5-25.3.5 11.7.5 25.3m-8.3-22.3c-.3.8-.6.5-.6-.6-.1-1.1.2-1.7.5-1.3.3.3.4 1.2.1 1.9m29.2 8.5c-.1 6-.4 9.8-.7 8.5-.7-2.3-.4-19.2.4-19.2.2 0 .4 4.8.3 10.7m-332.2-3.5c-.3.8-.6.5-.6-.6-.1-1.1.2-1.7.5-1.3.3.3.4 1.2.1 1.9m-122 7.5c-.3 1-.5.4-.5-1.2 0-1.7.2-2.4.5-1.8.2.7.2 2.1 0 3m425 6c-.3 1-.5.4-.5-1.2 0-1.7.2-2.4.5-1.8.2.7.2 2.1 0 3M809 323.5c0 .8-.2 1.5-.4 1.5s-.6-.7-1-1.5c-.3-.8-.1-1.5.4-1.5.6 0 1 .7 1 1.5m-166.3 1.7c-.3.8-.6.5-.6-.6-.1-1.1.2-1.7.5-1.3.3.3.4 1.2.1 1.9m361 1c-.3.7-.5.2-.5-1.2s.2-1.9.5-1.3c.2.7.2 1.9 0 2.5M550 380c0 29.7-.3 54-.7 54-.5 0-.6-3.8-.4-8.5.2-5.5-.1-9-.8-9.9-.8-1-.9-1.6-.1-2.1.6-.4 1-6.3 1-16s-.4-15.6-1-16c-.8-.5-.8-1.1 0-2 .7-.9 1.1-9.3 1-25.7-.1-28.2-.2-27.8.5-27.8.3 0 .5 24.3.5 54m424.7-50.8c-.3.7-.5.2-.5-1.2s.2-1.9.5-1.3c.2.7.2 1.9 0 2.5m-427.7.7c0 .4-.9.7-2 .7-2 0-2.5-.7-1.4-1.9.7-.7 3.4.2 3.4 1.2m457 19.1v20l-2.7-.1c-2.7 0-2.7-.1-.5-.9 2.2-.9 2.2-1.2 2.2-20 0-10.4.2-19 .5-19s.5 9 .5 20m-135.3-14.8c-.3.8-.6.5-.6-.6-.1-1.1.2-1.7.5-1.3.3.3.4 1.2.1 1.9m-61 2c-.3.8-.6.5-.6-.6-.1-1.1.2-1.7.5-1.3.3.3.4 1.2.1 1.9m-165 2c-.3.7-.5.2-.5-1.2s.2-1.9.5-1.3c.2.7.2 1.9 0 2.5m254 0c-.3.8-.6.5-.6-.6-.1-1.1.2-1.7.5-1.3.3.3.4 1.2.1 1.9M643 348.1c0 4.4-.3 7.8-.7 7.6-.8-.5-.5-15.7.3-15.7.2 0 .4 3.6.4 8.1m-107-3.4c0 1.9-1.3.9-1.6-1.2-.1-.8.2-1.3.7-.9.5.3.9 1.2.9 2.1m135.7.5c-.3.7-.5.2-.5-1.2s.2-1.9.5-1.3c.2.7.2 1.9 0 2.5m137 3c-.3.8-.6.5-.6-.6-.1-1.1.2-1.7.5-1.3.3.3.4 1.2.1 1.9m25 6.5c-.2 1.6-.4.5-.4-2.2 0-2.8.2-4 .4-2.8.2 1.3.2 3.5 0 5m-162-.5c-.3.7-.5.2-.5-1.2s.2-1.9.5-1.3c.2.7.2 1.9 0 2.5m311 6c-.2 1.8-.4.6-.4-2.7s.2-4.8.4-3.3.2 4.2 0 6m-171.1.9c1.6.6 1.4.8-.8.8-2.4.1-2.8-.3-2.7-2.7 0-2.2.2-2.4.8-.8.4 1.1 1.6 2.3 2.7 2.7m22.4-.6c0 2.5-.1 2.5-8.2 2.5-4.5 0-7.8-.3-7.5-.7.4-.3 3.6-.5 7.3-.4 5.9.2 6.6 0 7.1-1.8.7-2.8 1.3-2.6 1.3.4m-257.4.3c-.3.5-3.8.7-7.8.6s-7.8.2-8.5.8c-1 .8-1.3.6-1.3-.6 0-1.4 1.4-1.6 9.1-1.6 4.9 0 8.8.4 8.5.8m6.5 1.1c-1.2.8-5.1.4-5.1-.5 0-.2 1.5-.4 3.3-.4q3.3 0 1.8.9m15.7-.3c-.3.3-3 .5-5.9.5-3 .1-5.9.5-6.5 1-.7.5-1.1.3-1.1-.6 0-1.2 1.5-1.5 7-1.5 3.9 0 6.8.3 6.5.6m5.2.4c0 .5-.5 1-1.1 1-.5 0-.7-.5-.4-1 .3-.6.8-1 1.1-1 .2 0 .4.4.4 1m212.7-.4c-.3.3-1.2.4-1.9.1-.8-.3-.5-.6.6-.6 1.1-.1 1.7.2 1.3.5m-205.4 1.1c-.7.2-2.1.2-3 0-1-.3-.4-.5 1.2-.5 1.7 0 2.4.2 1.8.5m10.7.7c-1.4.7-2.9.9-3.5.5-.5-.4-2.1-.9-3.5-1.2-1.4-.2.2-.5 3.5-.5 5.5-.2 5.8-.1 3.5 1.2m22.3.3c-2.3.2-6.4.2-9 0s-.7-.3 4.2-.3c5 0 7.1.1 4.8.3m-83.1 13.1c2.1.5 2.1.6.2 1.2-1 .4-2.2.6-2.6.3-.5-.2-.7-3.7-.6-7.6l.2-7.2.3 6.4c.4 5.5.7 6.4 2.5 6.9m94.5-12.2c-.3.3-1.2.4-1.9.1-.8-.3-.5-.6.6-.6 1.1-.1 1.7.2 1.3.5m20 0c-.7.7-15.8.6-16.5-.1-.3-.3 3.4-.5 8.3-.5s8.6.3 8.2.6m310.3 2.7c.9.3.5.6-1 .6-1.9.1-2.6-.4-2.7-2-.2-1.8 0-1.9 1-.6.7.8 1.9 1.7 2.7 2m-294.2-1.6c-1.6.2-4 .2-5.5 0-1.6-.2-.3-.4 2.7-.4s4.3.2 2.8.4m8 0c-1 .2-2.6.2-3.5 0-1-.3-.2-.5 1.7-.5s2.7.2 1.8.5m18.9 1c-2 .2-5.2.2-7 0-1.7-.2 0-.4 3.8-.4 3.9 0 5.3.2 3.2.4m27.1 1c-2.1.2-5.7.2-8 0-2.4-.2-.7-.4 3.7-.4s6.3.2 4.3.4m9.9.9c-.3.3-1.2.4-1.9.1-.8-.3-.5-.6.6-.6 1.1-.1 1.7.2 1.3.5m14.6.1c-2.3.2-6.4.2-9 0s-.7-.3 4.2-.3c5 0 7.1.1 4.8.3m227.4-.1c-.3.3-1.2.4-1.9.1-.8-.3-.5-.6.6-.6 1.1-.1 1.7.2 1.3.5m-212.9 1.1c-1 .2-2.8.2-4 0-1.3-.2-.5-.4 1.7-.4 2.2-.1 3.2.1 2.3.4m11.5 0c-1.3.2-3.3.2-4.5 0-1.3-.2-.3-.4 2.2-.4s3.5.2 2.3.4m21 1c-1.3.2-3.5.2-5 0-1.6-.2-.5-.4 2.2-.4 2.8 0 4 .2 2.8.4m9 0c-1.3.2-3.3.2-4.5 0-1.3-.2-.3-.4 2.2-.4s3.5.2 2.3.4m17.5 1c-1.5.2-4.2.2-6 0s-.6-.4 2.7-.4 4.8.2 3.3.4m6.5 0c-.7.2-1.9.2-2.5 0-.7-.3-.2-.5 1.2-.5s1.9.2 1.3.5m5.7.2c0 .5-.9.7-2 .4s-2-.7-2-.9.9-.4 2-.4 2 .4 2 .9m7.8.8c-1 .2-2.6.2-3.5 0-1-.3-.2-.5 1.7-.5s2.7.2 1.8.5m12.5 0c-1.3.2-3.5.2-5 0-1.6-.2-.5-.4 2.2-.4 2.8 0 4 .2 2.8.4m8.7.1c0 .5-1.3.7-3 .4-1.6-.2-3-.6-3-.8s1.4-.4 3-.4c1.7 0 3 .4 3 .8m6.7.8c-.3.3-1.2.4-1.9.1-.8-.3-.5-.6.6-.6 1.1-.1 1.7.2 1.3.5m12.2-.1c-.3.2-1.4.6-2.5.8-1 .1-2.4.5-2.9.9-.6.3-1.9 0-3-.8-1.7-1.3-1.4-1.4 3.5-1.4 2.9 0 5.1.2 4.9.5m5.6.2c-1.1.3-2.5.9-3.1 1.4-.7.5-1.1.3-1.1-.6 0-1 1-1.5 3.1-1.4s2.5.3 1.1.6m-54.4 2.6c-1 .9-1.1.8-.5-.6.3-1 .9-1.5 1.2-1.2s0 1.1-.7 1.8m71.7-1.6c-1.5.2-4.2.2-6 0s-.6-.4 2.7-.4 4.8.2 3.3.4m8.9-.1c-.3.3-1.2.4-1.9.1-.8-.3-.5-.6.6-.6 1.1-.1 1.7.2 1.3.5m11.1 1.1c-1 .2-2.6.2-3.5 0-1-.3-.2-.5 1.7-.5s2.7.2 1.8.5m8.9-.1c-.3.3-1.2.4-1.9.1-.8-.3-.5-.6.6-.6 1.1-.1 1.7.2 1.3.5m10.7.3c.4.5-.3.7-1.4.4-2.3-.6-2.6-1.3-.6-1.3.8 0 1.7.4 2 .9M582 378.3c1.9.2-1.1.5-6.7.5-5.6.1-10.4-.2-10.7-.7s1.9-.7 4.9-.5c3.1.2 5.7 0 6-.6.5-.7 1.1-.8 1.8-.1.7.5 2.8 1.1 4.7 1.4m405.8-1.6c-2.7.2-6.9.2-9.5 0-2.7-.2-.5-.3 4.7-.3s7.4.1 4.8.3m-375.3 3.2c-.8.7-21.2 0-24.1-.8-1.8-.6 1.3-.7 7.7-.3 6.9.3 10.8.1 11.3-.6.4-.7 1.4-.7 3 .1 1.4.7 2.3 1.4 2.1 1.6m61.5-.7c0 .6-.6.5-1.5-.2-.8-.7-1.5-1.4-1.5-1.6s.7-.1 1.5.2c.8.4 1.5 1.1 1.5 1.6m335.3-1.5c-.7.2-2.1.2-3 0-1-.3-.4-.5 1.2-.5 1.7 0 2.4.2 1.8.5m5 0c-.7.2-1.9.2-2.5 0-.7-.3-.2-.5 1.2-.5s1.9.2 1.3.5M632 380.4c.8.2-3 .4-8.5.5-5.5 0-9.5-.3-8.8-.7 1.1-.7 13.8-.5 17.3.2m32 1.7c0 .4-.9.7-1.9.6-1.4-.1-1.7-.5-1.1-1.3.6-.6.6-1.5.2-2-.4-.4.1-.2 1.1.5.9.7 1.7 1.7 1.7 2.2m-25-1.1c0 .5-.5 1-1.1 1-.5 0-.7-.5-.4-1 .3-.6.8-1 1.1-1 .2 0 .4.4.4 1m19.9.6c.2.2-4 .3-9.5.2-9.2-.1-9.5-.2-3.4-.7 6.2-.6 12-.4 12.9.5m25.1.7c.8.3-3.2.6-8.9.6-5.7.1-10.1-.2-9.8-.6.4-.4 3.6-.6 7.2-.5 3.5.1 6.7-.3 7.1-.9.3-.6 1-.6 1.7-.1s1.9 1.2 2.7 1.5m34.8 1.6c6 .1 10.9-.2 11.6-.8.9-.8 1.3-.7 1.3.4 0 1.2-2 1.5-11.2 1.5-13.9 0-18-.7-16.4-2.7 1-1.1 1.4-1.1 2.8 0 1.1 1 4.8 1.5 11.9 1.6m-18.8-.5c1.4.2-1.2.4-5.7.5-4.6 0-8.3-.2-8.3-.7 0-.6 8.1-.6 14 .2m47 1.9c4.7.3 4.4.4-2.2.5-4.3.1-7.8 0-7.8-.2s.3-1.2.6-2.1c.6-1.4.8-1.4 2.3-.1.9.8 4.1 1.6 7.1 1.9m-11-.3c0 .5-.4 1-1 1-.5 0-1-.5-1-1 0-.6.5-1 1-1 .6 0 1 .4 1 1m20.7.6c-.3.3-1.2.4-1.9.1-.8-.3-.5-.6.6-.6 1.1-.1 1.7.2 1.3.5m16.1.3c4.5.1 8.2.4 8.2.8 0 .9-21.6.1-22.5-.8-.3-.4.9-.5 2.7-.4 1.8.2 7 .3 11.6.4m24.2 1.4c1.4.2-.9.4-5 .4s-6.1-.2-4.5-.4c1.7-.3 3.4-.9 3.9-1.4.6-.5 1.4-.5 2 0s2.2 1.1 3.6 1.4m9 .7c0 .5-.2 1-.4 1-.3 0-.8-.5-1.1-1-.3-.6-.1-1 .4-1 .6 0 1.1.4 1.1 1m15.7.7c-2 .2-5.2.2-7 0-1.7-.2 0-.4 3.8-.4 3.9 0 5.3.2 3.2.4m31.3.9c0 .2-4.4.3-9.7.2-8.7-.1-9.1-.2-3.8-.7 5.8-.6 13.5-.3 13.5.5m-332.8 3.9c-.1 1.9.3 3.7.8 4 .6.4.5 1.4-.2 2.5-1 1.5-1 2.2-.1 3.1s.9 1.6 0 3-.7 2.2.8 3.9c1.4 1.6 1.6 2.1.5 1.8-1.2-.2-1.6 1.3-1.8 8.1-.5 15.9-1.2 9.4-1.2-10.9 0-11.2.3-20 .7-19.7.3.4.6 2.3.5 4.2m350.1-2.8c-2.4.2-6.2.2-8.5 0-2.4-.2-.5-.4 4.2-.4s6.6.2 4.3.4m26.7.9c0 .2-3.9.3-8.7.2-8.4-.1-8.5-.2-2.8-.7 5.7-.6 11.5-.3 11.5.5m13 1c0 .2-1.9.4-4.2.3-3.1 0-3.7-.3-2.4-.8 1.8-.7 6.6-.3 6.6.5m7.3.1c-1.3.2-3.3.2-4.5 0-1.3-.2-.3-.4 2.2-.4s3.5.2 2.3.4m5.7.5c0 .4-.4.8-.9.8-.6 0-1.2-.4-1.5-.8-.3-.5.1-.9.9-.9s1.5.4 1.5.9m20 .4c0 .2-4.4.3-9.7.2-8.7-.1-9.1-.2-3.8-.7 5.8-.6 13.5-.3 13.5.5m41 1.7c8.2.3 8.2.3-2.4.5-9.6.2-10.7 0-9.6-1.3q1.35-1.5 2.4-.6c.7.6 5 1.2 9.6 1.4m-21.2-.6c-2.7.2-6.9.2-9.5 0-2.7-.2-.5-.3 4.7-.3s7.4.1 4.8.3m31.9.8c0 .8-.4 1.5-.9 1.5-1 0-1.1-1.4-.1-2.3.9-1 1-.9 1 .8m-358 9.1c-.3.3-1.2.4-1.9.1-.8-.3-.5-.6.6-.6 1.1-.1 1.7.2 1.3.5m5 0c-.3.3-1.2.4-1.9.1-.8-.3-.5-.6.6-.6 1.1-.1 1.7.2 1.3.5m254.3 6.8c0 .3-.4.8-1 1.1-.5.3-1 .1-1-.4 0-.6.5-1.1 1-1.1.6 0 1 .2 1 .4m20.7 2.8c.1 2.8 0 2.9-.6.9-.3-1.3-1.5-2.8-2.6-3.2-1.8-.7-1.7-.8.5-.8 2.2-.1 2.6.4 2.7 3.1m-290 3c-.2 1.3-.4.5-.4-1.7-.1-2.2.1-3.2.4-2.3.2 1 .2 2.8 0 4m-29.9-2.2h9.2v27.3l-5.7-.7c-3.2-.3-8.4-1.1-11.5-1.7l-5.8-1.2v-12.4c0-12.5 0-12.5 2.3-11.9 1.2.3 6.4.6 11.5.6m176.2.7c0 .5-3.3.7-7.2.5-12.5-.4-13.7-.9-3-1 5.6-.1 10.2.1 10.2.5m-91.3 5.5c-.2 1.3-.4.5-.4-1.7-.1-2.2.1-3.2.4-2.3.2 1 .2 2.8 0 4m206.1 73-.3 77.2-5-.2c-2.7-.1-6.7-.5-8.7-.8l-3.8-.6V417h18.1zm28.9-69.5c-.2 1.6-.4.5-.4-2.2 0-2.8.2-4 .4-2.8.2 1.3.2 3.5 0 5m-20.5-3.3c.3 1.4.2 3-.2 3.6s-.7-.5-.8-2.5c-.2-4 .4-4.6 1-1.1m-269.5 1.8c-.3.7-.5.2-.5-1.2s.2-1.9.5-1.3c.2.7.2 1.9 0 2.5m176.1 2.5c-1 .2-2.6.2-3.5 0-1-.3-.2-.5 1.7-.5s2.7.2 1.8.5m-31.1 5.5c-.3.7-.5.2-.5-1.2s.2-1.9.5-1.3c.2.7.2 1.9 0 2.5m145 5c-.2 1.8-.4.6-.4-2.7s.2-4.8.4-3.3.2 4.2 0 6m-391-6.6c-.3.3-1.2.4-1.9.1-.8-.3-.5-.6.6-.6 1.1-.1 1.7.2 1.3.5m6.3 1c0 .2-.9.4-2 .4s-2-.4-2-.9.9-.7 2-.4 2 .7 2 .9m94.7.6c-.3.8-.6.5-.6-.6-.1-1.1.2-1.7.5-1.3.3.3.4 1.2.1 1.9m269 3c-.2 1.3-.4.5-.4-1.7-.1-2.2.1-3.2.4-2.3.2 1 .2 2.8 0 4M540 431.6c0 .2-1.5.4-3.2.3-2.7 0-2.9-.2-1.3-.8 1.8-.8 4.5-.4 4.5.5m176.3-.9c-.7.2-1.9.2-2.5 0-.7-.3-.2-.5 1.2-.5s1.9.2 1.3.5m5 0c-.7.2-1.9.2-2.5 0-.7-.3-.2-.5 1.2-.5s1.9.2 1.3.5m33.4 22c-.1 4.3-.3.8-.3-7.7s.2-12 .3-7.8c.2 4.3.2 11.3 0 15.5m-208.4-20c-.7.2-2.1.2-3 0-1-.3-.4-.5 1.2-.5 1.7 0 2.4.2 1.8.5m233.4 4.5c-.3.7-.5.2-.5-1.2s.2-1.9.5-1.3c.2.7.2 1.9 0 2.5m239-2.6c-.3.3-1.2.4-1.9.1-.8-.3-.5-.6.6-.6 1.1-.1 1.7.2 1.3.5m-155.5 3.8c.4.6.6 3.1.4 5.6-.3 2.5-.5 31.7-.5 64.9l-.1 60.3-11.2-.6c-6.2-.4-12.8-1-14.6-1.3l-3.2-.5v-63.2c0-34.7.3-64.1.7-65.4.5-2.3.6-2.3 14.2-1.6 8.2.4 13.9 1.1 14.3 1.8m-116.8.2c.3.9.5 3.2.4 5.2-.1 3.6-.1 3.6-.7-.8-.6-4.2-.8-4.5-3.8-4.8-2.3-.2-3.5.3-4.7 2l-1.6 2.3.2-2.8c.2-2.5.5-2.7 4.9-2.7 3.4 0 4.9.5 5.3 1.6m25.3 3.6c-.3.8-.6.5-.6-.6-.1-1.1.2-1.7.5-1.3.3.3.4 1.2.1 1.9m8 1c-.3.7-.5.2-.5-1.2s.2-1.9.5-1.3c.2.7.2 1.9 0 2.5m116 3c-.2 1.3-.4.3-.4-2.2s.2-3.5.4-2.3c.2 1.3.2 3.3 0 4.5m-159 .5c-.3 1-.5.4-.5-1.2 0-1.7.2-2.4.5-1.8.2.7.2 2.1 0 3m43 3c-.3 1-.5.4-.5-1.2 0-1.7.2-2.4.5-1.8.2.7.2 2.1 0 3m-75-.5c-.3.8-.6.5-.6-.6-.1-1.1.2-1.7.5-1.3.3.3.4 1.2.1 1.9m42 5.5c-.2 1.6-.4.5-.4-2.2 0-2.8.2-4 .4-2.8.2 1.3.2 3.5 0 5m25 .5c-.2 1.3-.4.3-.4-2.2s.2-3.5.4-2.3c.2 1.3.2 3.3 0 4.5m124-1c-.2 1.3-.4.5-.4-1.7-.1-2.2.1-3.2.4-2.3.2 1 .2 2.8 0 4m64 10.5c-.2 2.7-.3.5-.3-4.7s.1-7.4.3-4.8c.2 2.7.2 6.9 0 9.5M991 463v12l-10.2-.2-10.3-.2 9.5-.5 9.5-.6v-21l-10.4-.2c-14.3-.3-14.1-1.3.2-1.3H991zm-211.3-6.8c-.3.7-.5.2-.5-1.2s.2-1.9.5-1.3c.2.7.2 1.9 0 2.5m-75 0c-.3.8-.6.5-.6-.6-.1-1.1.2-1.7.5-1.3.3.3.4 1.2.1 1.9m191 8.5c-.2 1.6-.4.3-.4-2.7s.2-4.3.4-2.8c.2 1.6.2 4 0 5.5m-167-5.2c0 .8-.9 1.5-2.1 1.5-2 0-2 0 0-1.5 1-.8 1.9-1.5 2-1.5 0 0 .1.7.1 1.5m188.2 6.2c-.1 4.3-.5 7-.8 6.1-.6-1.8-.2-13.8.5-13.8.2 0 .4 3.5.3 7.7m-137.2-2c-.3 1-.5.2-.5-1.7s.2-2.7.5-1.8c.2 1 .2 2.6 0 3.5m-38.3-.7c1 0 1.7.3 1.3.6-1 1-6.8-.7-6.1-1.8.4-.6 1-.6 1.7.1.6.6 2 1.1 3.1 1.1m5.9 1.7c-.7.2-1.9.2-2.5 0-.7-.3-.2-.5 1.2-.5s1.9.2 1.3.5m8.7 1.8c1.1 1.3 1 1.4-.4.9-.9-.3-1.6-1-1.6-1.5 0-1.3.6-1.1 2 .6m23.7 8.7c-.2 1.8-.4.6-.4-2.7s.2-4.8.4-3.3.2 4.2 0 6m-8-2.6c-.2.3-1.1.2-2-.2-1.4-.5-1.4-.7.1-2.2 1.6-1.6 1.7-1.6 2 .1.2 1 .2 2.1-.1 2.3m124 24.1c-.1 5.4-.3 1-.3-9.7s.2-15.1.3-9.8c.2 5.4.2 14.2 0 19.5m-335.8-23c-1.3 1.8-23.9 23.6-49.7 47.9-7.1 6.7-9.4 9.4-8.9 10.7 1.6 4.2 4.1 2.2 40.7-32.4 9.7-9.1 18.9-17.3 20.5-18.2 5.6-2.8 10.5-4.6 10.5-3.8 0 .5-3.3 3.5-7.2 6.7-9.3 7.4-19.8 16.8-41.7 37.2-9.7 9-19.3 17.2-21.3 18.3-5.3 2.7-12.8 2.5-19-.6-2.7-1.4-6-2.5-7.2-2.5s-18.4-2.7-38.2-6c-30.6-5.2-45.3-7.4-78.7-11.7-4.1-.5-4.6-.8-3.5-2 1-1 7.4-1.6 23.8-2.4 42.1-2.1 68 1.9 95.4 14.9 13.8 6.5 11.2 7.7 21-8.9 14.1-24 24.3-33 53.1-47.3 7.5-3.6 9.2-4.2 10.4-3.1 1.1 1.1 1.1 1.6 0 3.2m402.2-.6c1.1.7.9.9-.6.9-1.4 0-2.1-.7-2.2-2.2q-.3-2.4.6-.9c.5.7 1.5 1.7 2.2 2.2m-45.4 3.1c-.3.8-.6.5-.6-.6-.1-1.1.2-1.7.5-1.3.3.3.4 1.2.1 1.9m0 8.5c-.3 1-.5.4-.5-1.2 0-1.7.2-2.4.5-1.8.2.7.2 2.1 0 3m43 6.5c-.2 1.8-.4.6-.4-2.7s.2-4.8.4-3.3.2 4.2 0 6m9.1-7.5c-1 .2-2.8.2-4 0-1.3-.2-.5-.4 1.7-.4 2.2-.1 3.2.1 2.3.4m8 0c-1 .2-2.8.2-4 0-1.3-.2-.5-.4 1.7-.4 2.2-.1 3.2.1 2.3.4m10.9-.1c-.3.3-1.2.4-1.9.1-.8-.3-.5-.6.6-.6 1.1-.1 1.7.2 1.3.5m3.3 7.4v8l-8.7-.2-8.8-.2 8-.5 8-.6.3-7.3c.2-3.9.5-7.2.7-7.2.3 0 .5 3.6.5 8m-74.3-1.8c-.3.8-.6.5-.6-.6-.1-1.1.2-1.7.5-1.3.3.3.4 1.2.1 1.9m0 4c-.3.8-.6.5-.6-.6-.1-1.1.2-1.7.5-1.3.3.3.4 1.2.1 1.9m-349 .5c-.7 1.1-17.1 38.2-18.7 42.1-.8 2.2-2.7 4-5.4 5.4-9.7 4.9-15.6 12-15.6 18.8 0 2.9-.8 4.4-4 7.5-4.3 4.2-6.3 8.8-5.9 13.3.2 1.6-.5 4-1.8 5.8-1.2 1.7-2.5 4.2-2.8 5.7-.5 1.8-3.1 4.5-7.9 7.9-9.8 7.3-31.4 24.4-35.5 28.2-1.8 1.7-3.2 2.6-3 2.1.3-.6 9.5-19.1 20.7-41.2 13.1-26.1 21.5-41.8 24-44.5 2-2.3 9.1-9.1 15.8-15.2s18.3-16.8 25.8-23.9c12.3-11.4 15.6-14.2 14.3-12m398.3 3.6c4.2.3 4.1.4-1.2.5-4.8.2-5.8-.1-5.8-1.4 0-1.2.3-1.4 1.3-.6.7.6 3.3 1.2 5.7 1.5m-49.3 3.9c-.3.8-.6.5-.6-.6-.1-1.1.2-1.7.5-1.3.3.3.4 1.2.1 1.9m53.8 4.7c1.3.6-.1.8-4 .7l-6-.1v67.9l2.5.7c1.4.4 1.8.7.8.8-4.9.3-4.8 1.4-4.8-36V505l4.8.1c2.6 0 5.6.4 6.7.8m20.4 4c-.1 3.6-.1 3.6-.8.6-.6-3-.7-3-8.6-3.6l-8-.6H991zm-95.2 41.9c-.1 8.1-.3 1.2-.3-15.3s.2-23.1.3-14.7c.2 8.4.2 21.9 0 30m21-40.1c-.3 1-.5.2-.5-1.7s.2-2.7.5-1.8c.2 1 .2 2.6 0 3.5m0 10c-.2 1.6-.4.3-.4-2.7s.2-4.3.4-2.8c.2 1.6.2 4 0 5.5m74.1 1c-.1 7.3-.2 7.8-.5 2.8-.2-3.3-.8-6.4-1.3-6.9-.7-.7.8-4.6 1.7-4.6.2 0 .2 3.9.1 8.7M375 528.4c38.6 5.9 97 16.1 97 16.8 0 .9-7.4 16.9-26.5 57.3-7 14.8-14 29.7-15.5 33l-2.7 6.1-25.4-2.2c-14-1.2-32.7-3-41.6-4l-16.1-1.8 2.9-3.3c1.6-1.9 2.9-3.7 2.9-4.2 0-.4 1.7-1.3 3.8-1.9 11.5-3.6 16.9-12.2 13.5-22-1.4-4.1-1.3-4.9.1-7.9 2-4.2 2.1-10.5.2-14.1-4-7.6-11.6-11-28.2-12.5l-12.4-1.1 7.1-13.5C348 526.6 349 525 351.3 525c1.2 0 11.9 1.5 23.7 3.4m541.7 10.3c-.3 1-.5.2-.5-1.7s.2-2.7.5-1.8c.2 1 .2 2.6 0 3.5m-114-.5c-.3.8-.6.5-.6-.6-.1-1.1.2-1.7.5-1.3.3.3.4 1.2.1 1.9m114 6c-.3.8-.6.5-.6-.6-.1-1.1.2-1.7.5-1.3.3.3.4 1.2.1 1.9m-356.8 2.3c3.5 7.2-3.2 15.3-13.7 16.2-12 1.1-14.4-1.9-7.1-8.9 4-3.8 16.5-10.9 18.4-10.4.6.1 1.6 1.5 2.4 3.1m-66.8 3.5c3.3 0 5.9.3 5.9.7 0 2.1-42.3 85.3-45 88.5-3.7 4.4-7.8 5.8-13.9 4.6-2.4-.4-4.6-1-4.8-1.1-.2-.2 5.1-12 11.8-26.3 6.6-14.2 16.4-35.4 21.6-46.9 5.2-11.6 9.7-21.3 9.9-21.7.3-.4 2.3 0 4.6.8 2.2.7 6.7 1.4 9.9 1.4m300.6 13.6c-.3.3-1.2.4-1.9.1-.8-.3-.5-.6.6-.6 1.1-.1 1.7.2 1.3.5m198 4.6c-.3.8-.6.5-.6-.6-.1-1.1.2-1.7.5-1.3.3.3.4 1.2.1 1.9m-76 1c-.3.8-.6.5-.6-.6-.1-1.1.2-1.7.5-1.3.3.3.4 1.2.1 1.9M554 574.1c-2.6 6.2-9.8 9.9-19.2 9.9-3.5 0-5.4-.6-7.4-2.3-2.7-2.4-2.7-2.4-.9-5.4 2.8-4.7 6-6.1 13.5-5.6 4 .3 8.1-.1 10.5-.9 4.7-1.6 5.5-.6 3.5 4.3m230-2.4c-.8.2-2.2.7-3 1-.8.4-1.9.5-2.4.4-1.7-.4-3.7 2.1-2.6 3.4.7.8.5 1.2-.5 1.2-2.1 0-1.9-1.7.7-4.4 1.5-1.6 3.2-2.3 5.7-2.2 2 0 2.9.3 2.1.6m119.3 0c-.7.2-2.1.2-3 0-1-.3-.4-.5 1.2-.5 1.7 0 2.4.2 1.8.5m5 0c-.7.2-1.9.2-2.5 0-.7-.3-.2-.5 1.2-.5s1.9.2 1.3.5m-115 1c-.7.2-2.1.2-3 0-1-.3-.4-.5 1.2-.5 1.7 0 2.4.2 1.8.5m5.7.3c0 .5-.2 1-.4 1-.3 0-.8-.5-1.1-1-.3-.6-.1-1 .4-1 .6 0 1.1.4 1.1 1m4.3.7c-.7.2-1.9.2-2.5 0-.7-.3-.2-.5 1.2-.5s1.9.2 1.3.5m5.7-.3c0 .2-.9.6-2 .9s-2 .1-2-.4.9-.9 2-.9 2 .2 2 .4m15.5 1.4c2.6.9 2.9 2.8.5 2.8-1 0-1.8-.5-1.7-1s-1.6-1.1-3.7-1.3c-2.2-.2-4.2-.6-4.5-.8-.7-.7 7.1-.4 9.4.3m7.2.8c-.3.3-1.2.4-1.9.1-.8-.3-.5-.6.6-.6 1.1-.1 1.7.2 1.3.5m19 1c-.7.8-13.8.6-14.6-.1-.2-.3 3.1-.5 7.4-.5s7.5.3 7.2.6m121.6.1c-1.3.2-3.3.2-4.5 0-1.3-.2-.3-.4 2.2-.4s3.5.2 2.3.4m19.7.8c0 .8-.4 1.5-1 1.5-.5 0-.7-.7-.4-1.5.4-.8.8-1.5 1-1.5s.4.7.4 1.5m7.7.7c-.3.8-.6.5-.6-.6-.1-1.1.2-1.7.5-1.3.3.3.4 1.2.1 1.9m-140-.6c-.3.3-1.2.4-1.9.1-.8-.3-.5-.6.6-.6 1.1-.1 1.7.2 1.3.5m3.3.4c0 .5-.2 1-.4 1-.3 0-.8-.5-1.1-1-.3-.6-.1-1 .4-1 .6 0 1.1.4 1.1 1m121.3-.3c-1.3.2-3.5.2-5 0-1.6-.2-.5-.4 2.2-.4 2.8 0 4 .2 2.8.4m-112 1c-.7.2-1.9.2-2.5 0-.7-.3-.2-.5 1.2-.5s1.9.2 1.3.5m5 0c-.7.2-1.9.2-2.5 0-.7-.3-.2-.5 1.2-.5s1.9.2 1.3.5m11 1c-.7.2-2.1.2-3 0-1-.3-.4-.5 1.2-.5 1.7 0 2.4.2 1.8.5m14.7 1.1c0 .4-1.8.6-4 .4s-4-.6-4-.8 1.8-.4 4-.4 4 .3 4 .8M776.3 586c-.6.7-2.3-2.3-2.3-4 0-.8.6-.4 1.3 1 .8 1.4 1.2 2.7 1 3m138.5-4.3c-1 .2-2.8.2-4 0-1.3-.2-.5-.4 1.7-.4 2.2-.1 3.2.1 2.3.4m16.5 1c-.7.2-2.1.2-3 0-1-.3-.4-.5 1.2-.5 1.7 0 2.4.2 1.8.5m6.4.9c-.3.3-1.2.4-1.9.1-.8-.3-.5-.6.6-.6 1.1-.1 1.7.2 1.3.5m8.3.2c0 .4-1.6.6-3.5.4s-3.5-.6-3.5-.8 1.6-.4 3.5-.4 3.5.4 3.5.8m13.3.9c-.7.2-2.1.2-3 0-1-.3-.4-.5 1.2-.5 1.7 0 2.4.2 1.8.5m-173.5 2c-1 .2-2.8.2-4 0-1.3-.2-.5-.4 1.7-.4 2.2-.1 3.2.1 2.3.4m198.5 0c-.7.2-2.1.2-3 0-1-.3-.4-.5 1.2-.5 1.7 0 2.4.2 1.8.5m-189 1c-1.3.2-3.5.2-5 0-1.6-.2-.5-.4 2.2-.4 2.8 0 4 .2 2.8.4m24.8.5c1.5-1 1.7-.9 1.2.4-.5 1.4-1.7 1.6-8.1 1-4.1-.3-9.3-.6-11.6-.7-2.7 0-3.5-.3-2.3-.8 1-.3 5.7-.3 10.4.3 6.1.6 9.1.6 10.4-.2m178.2-.5c-.7.2-2.1.2-3 0-1-.3-.4-.5 1.2-.5 1.7 0 2.4.2 1.8.5m9.4.9c-.3.3-1.2.4-1.9.1-.8-.3-.5-.6.6-.6 1.1-.1 1.7.2 1.3.5m5.6.1c-.7.2-1.9.2-2.5 0-.7-.3-.2-.5 1.2-.5s1.9.2 1.3.5m-481.6 3.1c6.9.5 7.5 1.9 1.8 4.6-4.1 2-9.5 2.1-12 .2-1.7-1.2-1.8-1.7-.7-4.1.9-2 1.7-2.5 3-2 .9.5 4.5 1 7.9 1.3m301.6-1.1c-1.8.2-4.8.2-6.5 0-1.8-.2-.4-.4 3.2-.4s5 .2 3.3.4m11 1c-1.3.2-3.3.2-4.5 0-1.3-.2-.3-.4 2.2-.4s3.5.2 2.3.4m25.2 1.6c1.7.2.2.5-3.2.6-4 0-6.3-.3-6.3-1 0-.6.7-.9 1.5-.6.8.4 1.7.2 2.1-.4s1-.7 1.7 0c.7.5 2.6 1.1 4.2 1.4m-13.2-.6c-1.3.2-3.5.2-5 0-1.6-.2-.5-.4 2.2-.4 2.8 0 4 .2 2.8.4m25 2c-1.3.2-3.5.2-5 0-1.6-.2-.5-.4 2.2-.4 2.8 0 4 .2 2.8.4m12 1c-1.3.2-3.5.2-5 0-1.6-.2-.5-.4 2.2-.4 2.8 0 4 .2 2.8.4m12 1c-1.8.2-4.8.2-6.5 0-1.8-.2-.4-.4 3.2-.4s5 .2 3.3.4m25.6 1.9c.7.6-7.7.3-14.4-.6-4.7-.7-3.8-.7 4-.4 5.5.3 10.2.7 10.4 1m8.9 1.1c-1 .2-2.6.2-3.5 0-1-.3-.2-.5 1.7-.5s2.7.2 1.8.5m15.7.8c.6.2-1.5.4-4.5.4s-6.1-.3-6.8-.8c-1.2-.7 9-.4 11.3.4m10.5.9c.8.2-.9.4-3.7.5-2.9 0-5.3-.3-5.3-.7 0-.7 5.2-.6 9 .2m14 1.4c0 .9-10.3.2-11.2-.6-.4-.4 2-.5 5.2-.4 3.3.2 6 .7 6 1m9.3.9c-1.3.2-3.5.2-5 0-1.6-.2-.5-.4 2.2-.4 2.8 0 4 .2 2.8.4m10.7.9c0 .2-1.9.4-4.2.4-2.6 0-3.8-.4-3-.8 1.2-.8 7.2-.4 7.2.4m8.3 1.1c-.7.2-2.1.2-3 0-1-.3-.4-.5 1.2-.5 1.7 0 2.4.2 1.8.5m5 0c-.7.2-1.9.2-2.5 0-.7-.3-.2-.5 1.2-.5s1.9.2 1.3.5m9.7.9c0 .2-1.8.4-4 .4s-4-.3-4-.8c0-.4 1.8-.6 4-.4s4 .6 4 .8M562.9 613c13.5 1.7 29.3 4.2 35.1 5.6 23.4 5.8 42.3 15.5 49.9 25.8 4.6 6.2 14 22.5 21.2 36.7 7.8 15.6 32.3 68.4 45.5 98.1 6.4 14.5 12.1 26.7 12.5 27.2.5.6.9 2.2.9 3.6 0 3.1 1.7 5 4.3 5 4.6 0 25.1-10 60.2-29.3 27.7-15.3 50.5-14.3 56 2.4 1 2.8 1.4 6.1 1.1 7.5l-.7 2.6-3.9-3.6c-7.4-6.6-16.5-7.1-27.3-1.4-6.5 3.5-8.2 6.3-5.2 8.8 1.3 1.1 2.5.8 7.8-1.6 7.9-3.7 14.9-3.8 19.5-.5 5.9 4.2 5.1 9.1-3 16.7-5.9 5.7-13.6 10.6-31.9 20.7-21.9 12-74.6 38.3-79.4 39.6-7 1.9-15 1.4-20.4-1.4-6.5-3.3-10.2-8-15.2-19.5-5.6-12.8-10.1-21-24.1-43.9-12.8-20.7-26.1-41-36.6-55.6-12.5-17.3-38.1-49.1-44.9-55.6-18.7-18.1-37-27.2-94.8-46.9-9.3-3.2-18.2-6.3-19.8-7.1l-2.7-1.2 4.7-3.5c10.6-7.7 31.7-21.2 39.3-25.1 7.9-4.2 17.2-6.9 23.9-7 1.9-.1 14.5 1.3 28 2.9m-163.4 34.9c13.5.7 20.8 1.6 29.4 3.6 8.3 2 12.6 2.6 16 2.1 13.7-2 12.1-2.2 39.1 6.7 51.3 17 76.8 29 91.8 43 3 2.9 9.6 10.2 14.7 16.2 17.6 21.1 31.7 42.3 51.7 77.5 8.8 15.6 15.8 28.5 38 70.5 6.1 11.5 17.2 22.9 23.5 24.1 4.5.8 19.6-1 26.1-3.2 2.6-.9 10.8-4.5 18.3-7.9 18.8-8.8 21.8-9.5 37.4-9.5 30.9 0 45.8 4.7 51.4 16.3 2.3 4.8 2.7 11.6 1 16.6l-1.1 3.2-2.3-4.9c-1.2-2.6-4.2-6.5-6.6-8.5-5.1-4.5-15.5-8-22-7.5-4.1.3-4.4.5-4.4 3.3 0 2.9.2 3 7.5 4.5 13.9 2.9 20.6 8.8 19.7 17.7-.5 4.9-3.5 9.4-9 13.4-6.4 4.7-7.6 4.1-7-3.4.8-9.9-2.8-15.7-13.2-20.7-2.6-1.2-5.8-2-7.7-1.8-2.8.2-3.4.7-3.6 3.1-.2 1.9.2 2.9 1.5 3.3 5.3 1.6 12.4 5.6 13.8 7.8 2.3 3.4 2.9 9.6 1.3 12.6-.8 1.5-3 3-5.3 3.8-4.4 1.5-8.7 1-44.5-4.8-9.6-1.6-25.4-3.6-35-4.5-36.1-3.5-39.7-5.1-52-23-4.3-6.4-6.4-8.2-20.6-18-18.2-12.4-32-22.5-41.4-30-3.6-2.8-11-8.7-16.5-13-13.6-10.8-22.5-18.6-39-34.5-17.4-16.8-21.2-19.9-30-24.2-12.2-6.1-24.5-9.6-65.5-18.7-47-10.3-91-21.5-111-28.1-24.7-8.1-49.9-22.3-68.5-38.8-9.9-8.7-16.7-16.6-26.1-30.2-5.3-7.5-6-9-4.6-9.6 1-.4 16.3-.8 34.2-.9 22.2-.1 34.4-.6 38.5-1.4 12.2-2.6 52.5-3.7 82-2.2m-127.8 51.8c4.1 3.2 8.4 6.5 9.5 7.4 2 1.6 1.9 1.7-5.2 7.4-12.5 10-15.7 18.3-10.9 28.2 3.8 7.9 10.9 12.4 30.4 19.3 19.4 6.9 31.1 13.4 42.3 23.5 18.7 16.9 30.5 50 27.2 76.7-1.8 15.4-5.8 21.4-14.6 22.4-3.9.4-5.6.1-8.2-1.6-5-3.1-6.9-8.7-9.2-26.7-3.1-24.7-8.2-37.2-20.4-50.1-10.1-10.7-23.7-18.6-45.7-26.5-18.4-6.7-29.8-15.7-36-28.2-2.9-6-3.4-8.1-3.8-15.8-.3-8.5-.2-9.2 3.3-16.3 2.6-5.2 5.3-8.8 9.1-12.1 5.8-5.1 19.8-13.3 22.9-13.3 1 0 5.2 2.6 9.3 5.7m503.8-4.8c-1.5.6-2.1 2-2.6 6.2l-.6 5.4-.1-6.3c-.2-6.2-.2-6.2 2.6-6.1 2.3 0 2.4.1.7.8m7.2.7c-.3.3-1.2.4-1.9.1-.8-.3-.5-.6.6-.6 1.1-.1 1.7.2 1.3.5m14.6 2.1c-.7.2-2.1.2-3 0-1-.3-.4-.5 1.2-.5 1.7 0 2.4.2 1.8.5m7 1c-.7.2-1.9.2-2.5 0-.7-.3-.2-.5 1.2-.5s1.9.2 1.3.5m15 2c-.7.2-1.9.2-2.5 0-.7-.3-.2-.5 1.2-.5s1.9.2 1.3.5m7 1c-.7.2-1.9.2-2.5 0-.7-.3-.2-.5 1.2-.5s1.9.2 1.3.5m9 1c-.7.2-1.9.2-2.5 0-.7-.3-.2-.5 1.2-.5s1.9.2 1.3.5m5.4.9c-.3.3-1.2.4-1.9.1-.8-.3-.5-.6.6-.6 1.1-.1 1.7.2 1.3.5m29 4c-.3.3-1.2.4-1.9.1-.8-.3-.5-.6.6-.6 1.1-.1 1.7.2 1.3.5m7.6 1.1c-.7.2-2.1.2-3 0-1-.3-.4-.5 1.2-.5 1.7 0 2.4.2 1.8.5m7.4.9c-.3.3-1.2.4-1.9.1-.8-.3-.5-.6.6-.6 1.1-.1 1.7.2 1.3.5m7 1c-.3.3-1.2.4-1.9.1-.8-.3-.5-.6.6-.6 1.1-.1 1.7.2 1.3.5m7.6 1.1c-.7.2-1.9.2-2.5 0-.7-.3-.2-.5 1.2-.5s1.9.2 1.3.5m6 1c-.7.2-1.9.2-2.5 0-.7-.3-.2-.5 1.2-.5s1.9.2 1.3.5m9 1c-.7.2-2.1.2-3 0-1-.3-.4-.5 1.2-.5 1.7 0 2.4.2 1.8.5m16 2c-.7.2-2.1.2-3 0-1-.3-.4-.5 1.2-.5 1.7 0 2.4.2 1.8.5m7.4.9c-.3.3-1.2.4-1.9.1-.8-.3-.5-.6.6-.6 1.1-.1 1.7.2 1.3.5m7 1c-.3.3-1.2.4-1.9.1-.8-.3-.5-.6.6-.6 1.1-.1 1.7.2 1.3.5m8 1c-.3.3-1.2.4-1.9.1-.8-.3-.5-.6.6-.6 1.1-.1 1.7.2 1.3.5m4 1c-.3.3-1.2.4-1.9.1-.8-.3-.5-.6.6-.6 1.1-.1 1.7.2 1.3.5m17.6 2.1c-.7.2-1.9.2-2.5 0-.7-.3-.2-.5 1.2-.5s1.9.2 1.3.5m14.4 1.9c-.3.3-1.2.4-1.9.1-.8-.3-.5-.6.6-.6 1.1-.1 1.7.2 1.3.5m16 2c-.3.3-1.2.4-1.9.1-.8-.3-.5-.6.6-.6 1.1-.1 1.7.2 1.3.5m15 2c-.3.3-1.2.4-1.9.1-.8-.3-.5-.6.6-.6 1.1-.1 1.7.2 1.3.5m-195.4 39.1c-.7.2-2.1.2-3 0-1-.3-.4-.5 1.2-.5 1.7 0 2.4.2 1.8.5m-13 2c-.7.2-1.9.2-2.5 0-.7-.3-.2-.5 1.2-.5s1.9.2 1.3.5m-21.7 8.8c-1.1.8-2.5 1.5-3 1.5-.6-.1 0-.7 1.4-1.5 3.2-1.9 4-1.8 1.6 0m-26.1.5c-.3.5-1.2 1-1.8 1-.7 0-.6-.4.3-1 1.9-1.2 2.3-1.2 1.5 0m-5.2 2.8c-1 1-2 1.4-2.2.9s.3-1.3 1-1.8c2.4-1.5 3-1 1.2.9m16.7 4.7c0 .2-1.3 1.1-3 2-3.8 1.9-4 1.1-.2-.9 3.1-1.7 3.2-1.8 3.2-1.1m-17.3 2.7c-.3.8-.6.5-.6-.6-.1-1.1.2-1.7.5-1.3.3.3.4 1.2.1 1.9m3.4 4.4c.8-.4.5 0-.6.9-1.8 1.4-2 1.4-2.7-.2-1.1-3-.9-3.8.5-1.8.9 1.1 1.9 1.5 2.8 1.1m89.9 21.8c0 .2-.8 1-1.7 1.7-1.6 1.3-1.7 1.2-.4-.4s2.1-2.1 2.1-1.3m-12 12c0 .2-.8 1-1.7 1.7-1.6 1.3-1.7 1.2-.4-.4s2.1-2.1 2.1-1.3m-29 18.1c0 .2-1.3 1.1-3 2-3.8 1.9-4 1.1-.2-.9 3.1-1.7 3.2-1.8 3.2-1.1m-18 10c0 .2-1.3 1.1-3 2-3.8 1.9-4 1.1-.2-.9 3.1-1.7 3.2-1.8 3.2-1.1m-11.5 6.5c-.3.5-1.2 1-1.8 1-.7 0-.6-.4.3-1 1.9-1.2 2.3-1.2 1.5 0m8.8 1.7c-.7.2-2.1.2-3 0-1-.3-.4-.5 1.2-.5 1.7 0 2.4.2 1.8.5m57.5 25.4c-.3.8-.7.3-1.1-1-.4-1.7-.3-2.1.5-1.3.5.5.8 1.6.6 2.3m.9 5.1c-.3.8-.6.5-.6-.6-.1-1.1.2-1.7.5-1.3.3.3.4 1.2.1 1.9m-321 16.4c-.3.3-1.2.4-1.9.1-.8-.3-.5-.6.6-.6 1.1-.1 1.7.2 1.3.5m5 1c-.3.3-1.2.4-1.9.1-.8-.3-.5-.6.6-.6 1.1-.1 1.7.2 1.3.5m-15.7 1.8c0 .2-.7.7-1.6 1-.8.3-1.2.2-.9-.4.6-1 2.5-1.4 2.5-.6m29.3.3c-.7.2-2.1.2-3 0-1-.3-.4-.5 1.2-.5 1.7 0 2.4.2 1.8.5m6.4.9c-.3.3-1.2.4-1.9.1-.8-.3-.5-.6.6-.6 1.1-.1 1.7.2 1.3.5m7 1c-.3.3-1.2.4-1.9.1-.8-.3-.5-.6.6-.6 1.1-.1 1.7.2 1.3.5m-53.2 2.4c-.3.5-1.2 1-1.8 1-.7 0-.6-.4.3-1 1.9-1.2 2.3-1.2 1.5 0m75.2.6c-.3.3-1.2.4-1.9.1-.8-.3-.5-.6.6-.6 1.1-.1 1.7.2 1.3.5m6.6 1.1c-.7.2-1.9.2-2.5 0-.7-.3-.2-.5 1.2-.5s1.9.2 1.3.5m4.8 1.1c-.7.2-1.8-.1-2.3-.6-.8-.8-.4-.9 1.3-.5 1.3.4 1.8.8 1 1.1m4.6-.2c-.3.3-1.2.4-1.9.1-.8-.3-.5-.6.6-.6 1.1-.1 1.7.2 1.3.5m241.3 2.7c0 .2-1.2 1.4-2.7 2.8l-2.8 2.4 2.4-2.8c2.3-2.5 3.1-3.2 3.1-2.4m-206.7 1.4c-.7.2-1.9.2-2.5 0-.7-.3-.2-.5 1.2-.5s1.9.2 1.3.5m8 1c-.7.2-1.9.2-2.5 0-.7-.3-.2-.5 1.2-.5s1.9.2 1.3.5m10 1c-.7.2-1.9.2-2.5 0-.7-.3-.2-.5 1.2-.5s1.9.2 1.3.5m9 1c-.7.2-2.1.2-3 0-1-.3-.4-.5 1.2-.5 1.7 0 2.4.2 1.8.5m14.4 1.9c-.3.3-1.2.4-1.9.1-.8-.3-.5-.6.6-.6 1.1-.1 1.7.2 1.3.5m16.6 1.1c-.7.2-2.1.2-3 0-1-.3-.4-.5 1.2-.5 1.7 0 2.4.2 1.8.5m21 2c-.7.2-1.9.2-2.5 0-.7-.3-.2-.5 1.2-.5s1.9.2 1.3.5m11 1c-.7.2-2.1.2-3 0-1-.3-.4-.5 1.2-.5 1.7 0 2.4.2 1.8.5M468 934c-.8.5-1.9 1-2.5 1-.5 0-.3-.5.5-1s2-1 2.5-1c.6 0 .3.5-.5 1m264.8-.3c-1 .2-2.8.2-4 0-1.3-.2-.5-.4 1.7-.4 2.2-.1 3.2.1 2.3.4m37.9 3.9c-.3.3-1.2.4-1.9.1-.8-.3-.5-.6.6-.6 1.1-.1 1.7.2 1.3.5m42.1.1c-1 .2-2.6.2-3.5 0-1-.3-.2-.5 1.7-.5s2.7.2 1.8.5m-30.1.9c-.3.3-1.2.4-1.9.1-.8-.3-.5-.6.6-.6 1.1-.1 1.7.2 1.3.5m19.6.1c-.7.2-2.1.2-3 0-1-.3-.4-.5 1.2-.5 1.7 0 2.4.2 1.8.5M414 958c-.8.5-1.9 1-2.5 1-.5 0-.3-.5.5-1s2-1 2.5-1c.6 0 .3.5-.5 1m-34 15c-.8.5-1.9 1-2.5 1-.5 0-.3-.5.5-1s2-1 2.5-1c.6 0 .3.5-.5 1m-15.1 6.4c-.2.2-1.5.9-2.9 1.5-2.4 1.1-2.4 1.1-.6-.3 1.6-1.3 4.9-2.4 3.5-1.2M334 992.5c0 .2-1 .9-2.2 1.5-2.2 1.1-2.2 1-.4-.4 2.1-1.7 2.6-1.9 2.6-1.1m-20.5 9.5c-.3.5-1.2 1-1.8 1-.7 0-.6-.4.3-1 1.9-1.2 2.3-1.2 1.5 0"/><path d="M833.6 89.9c-.4.5-.2 1.2.3 1.5.5.4 1.2.2 1.5-.3.4-.5.2-1.2-.3-1.5-.5-.4-1.2-.2-1.5.3M317.7 294.8c-.8.9-2.3 3.6-3.2 6-3.3 8.3-10.2 11.5-23.3 11-7.6-.3-7.7-.3-7.7 2.2 0 1.9 1.1 3.1 4.5 5 6 3.4 18.1 3.5 25.2.3 7.7-3.5 12.5-13.5 10.4-21.7-.9-3.6-3.9-5-5.9-2.8m-73.2 27.8c-8.7 7.3-18.7 9-32.3 5.5-10.2-2.6-12.8-2.7-14.2-.1-1.7 3.2.3 5.5 7.7 9.2 6.3 3.1 7.5 3.3 16.8 3.3 12.5 0 18.9-2 25.1-7.9 4.6-4.4 5.8-8.8 3.2-11.4-1.7-1.7-2.9-1.5-6.3 1.4m45.5 18.5c-18 4.8-19.4 9.2-5.2 16.9 4.3 2.3 4.8 2.9 5.3 6.8.8 6.3-1.4 9.9-9.1 15-6.9 4.5-8 6.1-5.6 8.1 2.3 1.9 6.7.5 13.2-4.1 5.1-3.7 6.3-4.1 10.9-3.9 8.6.4 10.4-5.2 2.3-7.3-3.5-.9-3.6-.9-4.1-7.5-.4-4.8-.2-6.8.7-7.3 2.2-1.3 6.7-7.7 7.6-10.9.8-2.6.5-3.5-1.5-5.5-2.9-2.9-4.7-2.9-14.5-.3m-67 20.5c-4.7.8-15.5 2.6-24 4-16.3 2.6-19.7 4.1-16.6 7.3 1.6 1.6 1.3 1.6 34.1-3.5 18.7-2.9 22-3.9 22-6.9 0-2.6-4-2.8-15.5-.9m-3.5 20.5c-12.1 6.1-22.9 11.9-23.9 12.9-2.2 2.1-1.5 5 1.1 5 1 0 12.2-5.3 24.8-11.8 20.5-10.5 23-12 23-14.2 0-1.4-.6-2.6-1.5-2.7-.8-.1-11.4 4.7-23.5 10.8m712.1-56.2c-.4.5-.2 1.2.3 1.5.5.4 1.2.2 1.5-.3.4-.5.2-1.2-.3-1.5-.5-.4-1.2-.2-1.5.3m-180-65c-.4.5-.2 1.2.3 1.5.5.4 1.2.2 1.5-.3.4-.5.2-1.2-.3-1.5-.5-.4-1.2-.2-1.5.3m13 79c-.4.5-.2 1.2.3 1.5.5.4 1.2.2 1.5-.3.4-.5.2-1.2-.3-1.5-.5-.4-1.2-.2-1.5.3m81 100c-.4.5-.2 1.2.3 1.5.5.4 1.2.2 1.5-.3.4-.5.2-1.2-.3-1.5-.5-.4-1.2-.2-1.5.3m4 1c-.4.5-.2 1.2.3 1.5.5.4 1.2.2 1.5-.3.4-.5.2-1.2-.3-1.5-.5-.4-1.2-.2-1.5.3m2 43c-.4.5-.2 1.2.3 1.5.5.4 1.2.2 1.5-.3.4-.5.2-1.2-.3-1.5-.5-.4-1.2-.2-1.5.3"/></g></svg>