<svg xmlns="http://www.w3.org/2000/svg" width="1365.333" height="1365.333" preserveAspectRatio="xMidYMid meet" version="1.0" viewBox="0 0 1024 1024"><g fill="#000" stroke="none"><path d="M411.1 138.5c-.1 76.4-.6 140.1-1 141.4-.6 2.3-.7 2.2-3.5-1.7-4.3-6.2-13.6-14.7-19.4-17.6-10.1-5.1-20.7-6.9-41.2-7-10.2-.1-22.5.1-27.5.4l-9 .5-.7-8.3c-.9-10.6-3.8-26-8.9-47.7-6-25-6-24.9-9.6-25.3-2.5-.3-3.8.6-9 6.2-14.6 15.5-29 37.7-34.1 52.6-1.1 2.9-1.3 3-6.9 3-16.3 0-33.7 3.7-46.2 9.7-4.8 2.3-7.9 3.2-8.7 2.7-.7-.5-5.1-3.8-9.8-7.4-18.5-14-43-27.8-51.2-28.8-3.5-.4-4.4-.1-6.2 2.3-2 2.5-2.2 4-2.2 14.2 0 12.4 1.4 27.1 3.5 37.3 1 4.9 1 6.8.2 7.6-.7.6-8.8 1.6-18.2 2.2-9.3.7-24 2-32.5 3.1s-25.8 3.1-38.5 4.6c-21.5 2.5-39 5.1-26 4 4.9-.5 30.2-3.4 64.1-7.5 9.5-1.2 24.9-2.7 34.3-3.4 9.4-.6 17.5-1.6 18.1-2.2s.5-3.3-.4-7.9c-2.2-10.7-3.6-25.2-3.6-37.8 0-10.6.2-11.5 2.3-13.5 1.3-1.2 3.3-2.2 4.6-2.2 6.3 0 36.9 17.9 54.3 31.7 3.7 2.9 7.4 5.3 8.3 5.3s5.3-1.8 9.8-3.9c4.5-2.2 10.9-4.7 14.2-5.5 7.3-1.9 21.8-3.6 30.3-3.6 5.1 0 6.4-.3 6.8-1.8 4.2-13.5 20.2-38.3 34.7-53.8 9.7-10.4 9.8-10.3 16.6 18.1 5.5 23.2 8.1 37.4 8.8 47.7.4 5.8 1 8.9 1.9 9.2.7.3 6.9 0 13.6-.6 16.6-1.4 40-.4 50.4 2.1 4.5 1.1 10.8 3.6 14 5.5 5.6 3.3 14.5 11.6 19.1 18.1 4.9 6.8 4.8 8.4 5.1-107.3.1-59.2.1-122.6 0-140.7-.2-18.2-.5 29.5-.7 106m6.7 11.8.3 150.2L422 311c8.5 23.2 14.2 45 22 84.5 5.2 25.9 4 23.9 14.5 25 3.3.3 12.8 1.7 21 3 8.3 1.4 18.2 3 22.2 3.6 3.9.6 7.9.9 8.7.6 1.4-.6 1.6-21.4 1.4-214.4L511.5-.5l-.2 213.7L511 427h-2.3c-1.3 0-4.8-.4-7.8-1-12.4-2.2-36.9-6-43.2-6.6-5-.5-7-1.1-7.7-2.5-.6-1-2.6-9.6-4.5-19.1-8.4-42-13.5-61.7-22.6-87.3l-3.8-11-.2-148c-.2-81.4-.5-148.8-.8-149.7s-.5 65.9-.3 148.5m100 57.5c-.2 114.3-.1 210.9.2 214.7l.5 7 13 2.2c7.2 1.2 14.2 2.2 15.7 2.2l2.6.1.4-22.8c.5-25.6.6-413.9.2-407.7-.2 2.2-.5 99.5-.6 216.2-.2 116.7-.6 212.5-1 212.9-.9.8-27.9-3.3-29.1-4.5-.4-.4-.7-96.9-.7-214.4S518.8 0 518.5 0s-.6 93.5-.7 207.8M556.7 9.2c-.8 12.4-.7 133.9.1 140.3l.7 5 7.4.3c5.3.2 7.7-.1 8.2-1 .5-.7.9-20.2 1-43.3s.4-56.4.8-74l.6-32 10.8-.3C596.2 4 597 3.8 597 2c0-1.1-.4-2-1-2-.5 0-.7.7-.4 1.5.5 1.3-1 1.5-10 1.5-7.6 0-10.8.4-11.1 1.2-.3.7-.8 34.6-1.2 75.3l-.8 74h-14l-.8-5.5c-.4-3-.6-37.6-.5-76.8.2-39.1.2-71.2.2-71.2-.1 0-.4 4.2-.7 9.2m108.6-5.5c-1.8.7-1.9 150.3-.1 152.1.7.7 4.2 1.2 8.9 1.2h7.6l.6-8.3c.9-10.5.9-137 .1-142l-.7-3.7-7.6.1c-4.2 0-8.2.3-8.8.6m16.1 3.4c.8 4.2.8 131.4-.1 141.3l-.6 7.7-7.6-.3-7.6-.3-.3-74.5c-.1-41 0-75.1.3-75.8.3-.8 2.8-1.2 7.8-1.2h7.5zm101.5.6c-.5 4.5.4 149 .9 149.5.4.4 5.7 1 11.8 1.4l11.1.7.5-30.4c.8-48.6 1-116.3.3-119.2l-.7-2.7h-11.9c-6.5 0-11.9.3-12 .7m23.6 2c.7 1.9.5 71.4-.3 118.7l-.5 29.9-10.1-.7c-5.5-.3-10.4-1-10.8-1.4-.5-.5-1.4-142.7-.9-147.5.1-.4 5-.7 11-.7 9.4 0 11 .2 11.6 1.7M718 8.8c-.7.3-1 25.3-1 74.8v74.5l12.3-.3 12.2-.3.2-73c.2-40.2.1-73.7-.2-74.5-.4-1.2-2.6-1.5-11.5-1.5-6 0-11.4.1-12 .3m22.5 74.4v73.3l-11.2.3-11.3.3V83.7c0-40.4.2-73.6.4-73.8s5.3-.3 11.3-.2l10.8.2zm126.3-57c-.6 32.2-.3 131.6.3 132.3 1.2 1.1 25.6 1.9 26.2.8.5-.8 1.1-127.2.7-147.6V9h-26.9zm26.2-14c.4 17.2-.2 145.3-.7 146.1-.6 1.1-23 .4-24.1-.8-.7-.7-1-98.9-.4-130.8l.3-16.7h12.4c12.3 0 12.5 0 12.5 2.2"/><path d="M579.6 14.7c-1 6.3-.7 137.6.4 139.3.7 1.2 3.2 1.5 11.2 1.5h10.3l.5-61c.3-33.6.3-66.1.1-72.3l-.4-11.2h-21.4zm21.5 8c.2 6 .2 38-.1 71.3l-.5 60.5-7.6.3c-4.2.1-8.8-.2-10.2-.7L580 153V85.6c0-37 .3-68.8.6-70.5l.7-3.1h19.4zm316.4-10.8-4 .6-.3 72.4c-.1 52.6.1 72.8.9 73.7.8 1 3.8 1.4 10 1.4h8.9l.1-12.8c.1-7 .1-18.6.1-25.7 0-7.2-.1-34.9-.1-61.8L933 11l-5.7.1c-3.2.1-7.6.5-9.8.8m14.6 48.3c0 26.6.1 54.1.1 61.3 0 7.1 0 18.5-.1 25.3l-.1 12.3-8.7-.3-8.8-.3v-145l3.5-.6c1.9-.4 5.9-.7 8.8-.8l5.2-.1zM608 27.9v11.9l3 .7c1.7.4 7.3.4 12.5 0 8.6-.7 9.3-.9 9.7-3 .6-3.1-.7-6.2-3.4-7.6-1.2-.7-6.2-4.1-11-7.6-4.8-3.4-9.2-6.3-9.8-6.3s-1 4.6-1 11.9m22.7 4.9c1.4 1.3 2 2.7 1.6 4-.4 1.8-1.6 2.1-9.8 2.7-14 1.1-13.5 1.5-13.5-11.6V17l9.8 6.9c5.3 3.8 10.7 7.8 11.9 8.9m332.8-14.6c-.3 1.3-.4 33.8-.3 72.3l.3 70 10.1.3 10.1.3.6-39.2c.4-21.6.7-54.2.7-72.6V16h-10.5c-10 0-10.5.1-11 2.2m20.5 32c0 18.3-.3 50.5-.7 71.6l-.6 38.3-9.1-.3-9.1-.3-.3-70c-.1-38.5 0-70.6.3-71.3.3-.8 3.3-1.2 10-1.2h9.5zM843 89.4c0 36.5.3 67.1.6 68 .5 1.3 2.2 1.6 8.4 1.6 4.4 0 8.1-.3 8.3-.8.3-.4.6-30.9.8-67.7l.4-67-9.2-.3-9.3-.3zm17.2 1.1c-.2 36.3-.7 66.4-1.1 66.8-.5.4-3.9.7-7.7.5l-6.9-.3-.3-66.8-.2-66.8 8.2.3 8.3.3zm-113-50.8.3 15.8h30v-31l-15.3-.3-15.3-.3zm29.3.3v14.5h-28l-.3-14.8-.3-14.8 14.3.3 14.3.3zm37.9-11.2c-1.2.7-2.8 123.9-1.7 128.1.5 2 1.2 2.1 12.8 2.1h12.3l.4-64.8c.2-43.6 0-64.9-.7-65.4-.5-.4-5.7-.8-11.5-.8s-11 .4-11.6.8m23.1 9.4c0 4.9-.2 33.8-.3 64.3L837 158h-11.4c-8.2 0-11.6-.4-11.9-1.3-.6-1.4.3-124.6.9-126.5.3-.9 3.1-1.2 11.6-1l11.3.3zM938.2 94c.3 36.8.9 64.4 1.4 64.9s4.7 1.1 9.4 1.2l8.5.4.3-65.3.2-65.2h-20.3zm18.6 1.2-.3 64.3-7.5-.3c-4.1-.2-7.9-.8-8.4-1.3-.6-.5-1.1-27.4-1.4-63.9l-.5-63H957zM688.7 31.7c-.4.3-.7 28.6-.7 62.8v62.2l11.2.6c6.1.4 11.4.4 11.7.1.7-.6 1.8-115.3 1.2-122.1l-.3-4.3h-11.2c-6.2 0-11.6.3-11.9.7m22.4 4c.6 5.9-.5 120.1-1.2 120.7-.3.3-5.1.3-10.7-.1l-10.2-.6V94.5c0-33.6.3-61.5.7-61.8.3-.4 5.2-.7 10.9-.7h10.2zm188.9 12c0 7.6-.3 35.7-.7 62.5l-.6 48.7 2.6.6c1.4.4 3.4.5 4.4.3 1.7-.3 1.8-3.1 2.1-60.8.1-33.3 0-61.5-.3-62.8-.4-1.7-1.2-2.2-4-2.2H900zm6.5 49.3v61.5h-6l.1-34c0-18.7.1-46.5.2-61.8l.2-27.8 2.8.3 2.7.3zm111.8-61.2c-.9.6-1.3 15.5-1.5 62.7l-.3 62 4 .2 4 .1-3.5-.6-3.5-.7v-48c0-26.4.2-54.1.5-61.5l.5-13.5 3-.6c2.7-.6 2.7-.7.5-.8-1.4 0-3 .3-3.7.7m-28.4 31.9c0 17.5-.2 44.6-.5 60.3-.2 15.7-.2 29.5.1 30.7.5 2.2 1 2.3 10.9 2.3h10.3l.5-24.8c.3-13.6.6-41.7.7-62.5l.2-37.7H990zm21 6.5c-.1 20.5-.4 48.2-.7 61.6l-.5 24.3-9.6-.3-9.6-.3.2-30c.1-16.5.2-44.1.2-61.3L991 37h20.1zM638.7 37.6c-.3.3-.6 26.9-.7 59 0 55.1.1 58.5 1.7 59.1 1 .4 5.6.8 10.3.8h8.5L659 98c.3-32.2.3-59.1.1-59.8-.2-.8-3.1-1.2-10-1.2-5.4 0-10 .3-10.4.6M658 96.4c0 31.8-.3 58.3-.7 58.9-.6 1.1-15.2.5-17.1-.7-1-.6-1.2-14.1-1.2-58.1.1-31.5.4-57.6.8-57.9.3-.4 4.6-.5 9.5-.4l8.8.3zm-50.4-40.2c-.8 13-1.1 12.8 14.1 12.8h11.4l-.3-11.3-.3-11.2-12.1-.3-12.1-.3zm24.2 1.5.3 10.3h-10.8c-5.9 0-11.4-.4-12.1-.8-1-.7-1.1-3.2-.6-10.6l.7-9.7 11.1.3 11.1.3zm115.8 4.1c-.6 1.1-1.1 94-.4 94.7.3.3 7.2.7 15.4.8l14.9.2.3-47.4c.2-37.3 0-47.6-1-48.3-1.7-1-28.5-1-29.2 0m28.9 47.7v47l-13.9-.2c-7.6-.1-14.1-.5-14.4-.8-.7-.7-.2-91.6.5-92.7.2-.5 6.6-.7 14.1-.6l13.7.3zM608 83.2c0 5.1-.3 23.3-.7 40.4-.5 26-.4 31.3.8 32 .8.5 6.3 1 12.3 1.2 8.4.3 11 .1 11.7-.9.5-.8.9-19.5.9-41.7V74h-25zm23.8 32-.3 40.3-9.1.3c-5 .1-10.3-.2-11.9-.8l-2.8-1.1.6-30.2c.4-16.6.7-34.4.7-39.5V75h23zM561 161.6c-3.1 1.3-4 3.8-4 11.1 0 5 .4 7.5 1.3 7.8.6.2 32.5.9 70.7 1.5 144.2 2.2 265.3 4.1 318.5 5 60.7 1.1 77 1.2 76.4.6-.2-.2-31.7-.9-69.9-1.5s-96-1.6-128.5-2.1c-32.4-.5-105.3-1.7-162-2.5-56.6-.9-103.6-1.8-104.2-2-.9-.3-1.3-2.7-1.3-7.4 0-11.3-7.6-10.4 80.2-9.2 41.4.6 108.4 1.5 148.8 2.1 40.4.5 110.1 1.5 154.8 2.1s81.5.9 81.8.7c.6-.7-73.7-1.8-310.6-4.8-42.6-.5-93.9-1.2-114-1.5-20.1-.2-37.2-.2-38 .1m-280.3 29.1c-8.4 10.4-16.5 22.9-21.3 32.7s-5.5 13.6-2.6 13.6c1 0 2.7.6 3.8 1.4 1.5 1.2 1.7 1.8.8 3.3-1 1.6-2.5 1.8-17 1.5-16.6-.4-24.3.6-37.3 4.8-9.6 3-14.1 5.7-14.1 8.3 0 2.5-1.7 4.7-3.6 4.7-.6 0-5.8-3.9-11.5-8.7-17.6-14.7-49.4-34.5-53.2-33-2.1.8-2.2 6.7-.7 23.2 2.5 25.9 10.3 59 16.2 68.4.9 1.5.8 2.6-.7 5.7-3.5 7.4-.1 31.3 6.5 45.9 6.4 14.1 17.7 27.5 28.4 33.5 6.7 3.8 8.4 5.6 6.8 7.2-.9.9-2.1.8-4.7-.5-2-.9-4.1-1.7-4.8-1.7-3.5 0-33 41.2-41.9 58.5-12.8 24.9-19.5 57.3-20.5 99.6-1.2 50.9 4 68.6 23.1 77.9 11.2 5.5 21.8 7.3 42.1 7.3 28.5.1 45.8-1.9 77-8.9 14.1-3.1 24.7-3.5 50-1.7 18.7 1.4 26.1.6 34.4-3.6 6.6-3.4 5.4-4.6-5.1-4.9-9.5-.3-14.3-1.7-14.3-4.2 0-1.2 2.8-1.6 16.5-2.1 17.9-.6 23.5-2 26.4-6.4 2-3 2.1-7.9.1-9.5-1-.8-7.1-1.2-19.9-1.3-16-.2-18.8-.4-20.2-1.9-1.4-1.4-1.5-2-.5-3.2 1.1-1.3 3.4-1.5 15-.9 21.7 1 26.7-.5 27.8-8.2.6-5.2-2-8.6-8.4-11.1-4.2-1.6-8-1.9-28.2-1.9-20.8-.1-23.6-.3-24.5-1.8-1.7-2.6.2-3.6 8.8-4.7 4.2-.5 8.2-1.2 8.7-1.6 1.1-.7 4.9-7.9 4.9-9.4 0-4-18.9 2.4-43.8 14.9-11.9 6-24.2 11.5-27.2 12.2-8.3 2.1-82.8 1.6-84.9-.6-1.3-1.3-1.2-1.7.4-3.5 1.4-1.6 3.1-2 7.7-2h5.8v-10.8c0-14.3 2.7-62.6 4-73.2 1.2-9.1 1.9-10.6 4.6-9.6 1.9.7 1.9-2.5-.6 39.1-.5 8.2-.9 19.9-1 25.9v10.9l4.3 7c2.3 3.8 5.4 8.3 6.9 9.8l2.6 2.9h20.6c28.1 0 30.4-.5 53.6-13 23.1-12.3 28.3-14.4 40.1-16.6 5.2-.9 9.9-1.8 10.6-2 .6-.1 2.2-2.2 3.6-4.6 14.4-25.6 18.2-32 19.6-32.7 1.4-.8 10.6-1.9 29.4-3.6 2.6-.2 5.2-.7 5.7-1 1.3-.8-3.2-13.4-8.8-24.5-2.6-5.2-8.9-15.7-13.9-23.3-5.1-7.6-9.3-14.2-9.3-14.6 0-.5.7-1.4 1.5-2.1 2-1.7 2.8-.9 11.1 10.7 10.8 15.1 24.4 41.2 26.9 51.4l.7 2.7 14.1.6c7.8.4 15.7 1 17.5 1.3 2.4.4 3.2.2 3.2-1 0-1.7-26.3-39.6-41.9-60.2-12.6-16.8-30.5-35.2-37.6-38.8-5.3-2.6-22.4-7.1-31.5-8.2-3-.3-6.2-.8-7.1-1.1-.9-.2-3.3 1-5.5 2.7-4.3 3.5-16 9.2-22.2 10.9-7.9 2.1-19.1 3-26.3 2.1-8-1-9.9-2.2-7.9-4.6.9-1.1 3.2-1.5 9.2-1.5 20.1 0 36.4-5.3 47.8-15.6 7.9-7.2 18.3-23.5 22.5-35.4 2.4-6.7 2.1-7.4-2.4-6.6-2.4.4-4.2.2-4.6-.5-1.1-1.6 2.3-4.6 6-5.3 4-.8 5-2 5.9-6.9.8-4.2.7-4.3-5.1-2.1-4.2 1.6-7.3 1.4-7.3-.5 0-.5 3.4-2.9 7.6-5.2l7.6-4.2-.4-12.1c-.4-9.7-1-13.6-3.2-19.9-4.6-13.6-13.8-25.9-26.3-35.3-6.6-5-7.3-5.8-6-7.3.8-.9 1.7-2.4 2-3.3 1.8-5.2-10.9-64.8-13.8-64.8-.7 0-3.7 3-6.8 6.7m9.3 1.9c2.6 8.9 7.6 33 9.5 45.3 1.4 9.2 1.4 9.7-.5 12.3-1.1 1.5-2 3.2-2 3.7s3.3 3.5 7.4 6.5c14 10.6 24.6 25.9 28.1 40.8.8 3.5 1.5 10.4 1.5 15.5v9.2l-7.5 4.1c-5.4 3-7.5 4.7-7.5 6.1 0 2.9 2.8 3.5 7.9 1.6 2.5-.9 4.6-1.5 4.8-1.4.1.2-.1 1.6-.6 3.3-.4 1.7-1.8 3.4-3.4 4.1-1.5.7-3.9 1.9-5.4 2.6-3.1 1.4-4.2 4.5-2.1 5.8.7.5 2.8.6 4.7.2 3.3-.6 3.4-.5 2.7 2.3-1.3 5-9.7 20.7-14.8 27.7-9 12.1-19.8 19.7-33.3 23.3-3.3.8-11.7 1.8-18.7 2.1-13.2.6-15.3 1.3-14.6 4.9.2 1 1.7 2.1 3.3 2.6 4.6 1.4 21.3 1.3 28-.1 9.2-2 20.9-6.8 26.5-11l5-3.8 8.3 1.3c12 1.8 23.8 4.9 29.9 8 7.5 3.7 25.1 21.8 37.9 38.9 11.7 15.5 42.2 58.6 41.7 59-.2.1-7.6-.3-16.5-.8l-16.1-1-2.2-6.1c-5.7-15.9-15.3-34-25.8-48.5-7.7-10.7-9.3-12.1-11.9-10.5-3.5 2.2-2.6 5.1 5 16.1 11.8 17.2 22.6 37.7 24.3 46.2.7 3.5 1.5 3.3-18.9 5.1-7.1.6-13.8 1.5-15.1 2-1.5.5-4.9 5.5-10.1 14.7-4.3 7.6-8.9 15.8-10.4 18.2l-2.6 4.4-11 2.3c-14 2.8-19.5 5.1-41.6 17-12.3 6.6-20 10.1-24.2 11-4 .9-13.6 1.3-26.9 1.4h-20.6l-2.2-2.8c-1.2-1.5-4.2-6-6.7-10l-4.6-7.4.6-19.1c.4-10.5 1.2-26.8 1.9-36.2.6-9.4.9-17.9.5-18.8-.7-2-5.5-2.3-6.2-.5-1.8 5.1-5.5 60.6-5.5 82.5v10.2l-6.2.3c-5.7.3-6.4.6-7.8 3.1-2.8 5.2-1.5 5.4 34.8 6.2 34.4.8 47.4.1 56.7-3 2.8-.9 14.7-6.5 26.5-12.5 15.1-7.5 23.8-11.3 29.2-12.5 4.3-1 8-1.6 8.4-1.3.3.3-.6 2.4-2 4.6-2.7 4.3-3.4 4.6-13.9 5.7-6.3.7-7.7 2-6 5.8 1 2.1 1.3 2.2 24.9 2.2 23.5 0 24 0 28.9 2.5 8.8 4.4 9.9 11.4 2.5 15.3-3.1 1.7-5.3 1.8-20.1 1.3-17.1-.5-18.9-.2-18.9 3.5 0 3.8 2.6 4.4 21.7 4.6 12.4.1 19 .6 19.9 1.4 3.3 2.7.6 8.3-5.6 11.5-2.8 1.5-6.8 1.9-20.5 2.4-16.3.5-17 .6-17.3 2.6-.2 1.1.4 2.6 1.2 3.3 1.6 1.3 19.1 3.2 21.4 2.4.6-.3 1.2-.2 1.2.1s-2.2 1.7-4.8 3c-8 4.1-14.3 4.7-33 3.3-24.9-1.8-35.6-1.4-49.7 1.7-31.2 7-48.5 9-77 8.9-20.6 0-31.3-1.9-41.7-7.5-18.9-10.1-23.7-26.6-22.5-76.8 1-41.9 6.6-69.8 19.1-95.5 9.8-20.1 40.1-62.4 43.6-60.9 5.4 2.3 6.9 2.7 8.4 2.1 2.1-.8 2.1-4-.1-5.9-1-.8-4-2.7-6.7-4.3-10.9-6.2-23-21.4-29.2-36.5-5.8-14.2-8.1-34.4-4.7-41.5 1.6-3.3 1.6-3.7-.1-7.2-3.3-7-6.7-16.8-8.6-24.8-6-25.8-10-62.2-7-64 2.7-1.7 35.6 19.2 52 32.9 11.9 9.9 14.7 10.7 16.5 4.7.8-2.9 2-3.9 7.3-6.4 12.7-5.9 18.8-7 40.5-7.2 12.2-.1 20.2-.6 20.8-1.2 2.1-2.1.6-5.7-2.8-6.7-1.8-.5-3.3-1.6-3.3-2.4 0-2.3 7.7-16.9 13.7-26.1 6.2-9.3 17.3-23.4 18-22.8.2.2 1.3 3.5 2.3 7.3"/><path d="M316.3 294.2c-.6.7-1.6 3-2.2 5-.7 2-3 5.2-5.1 7.2-4.5 4-9.9 5.2-18.9 4.2-4.5-.5-6.1-.3-7 .8-2.1 2.6-.8 5 4.1 7.4 3.7 1.9 6.4 2.4 12.5 2.4 11.2 0 16.9-2.3 20.7-8.5 3.8-6.1 4.8-14.7 2.1-17.7-2.1-2.3-4.8-2.6-6.2-.8m4.9 1.5c2.8 2.6 2.3 8.8-1.3 15.1-2.4 4.2-4 5.8-7.6 7.4-6.5 2.8-18.4 2.8-24.1-.1-4.8-2.5-5.8-3.7-4.2-5.6.9-1.1 2.7-1.3 7.5-.8 11.6 1.1 20.9-3.2 23-10.7.8-2.9 3.3-7 4.2-7 .4 0 1.5.7 2.5 1.7M241.7 323c-8.1 6.6-16.6 7.6-31.9 3.8-9.8-2.4-12.1-2-12.6 2.3-.9 7.4 18.5 13.8 33.3 11 8.2-1.5 16.5-5.8 19.3-10 3.5-5.3 2.5-11.2-1.7-11-.9 0-3.8 1.8-6.4 3.9m8.1-1.8c3.6 3.6-1.4 10.8-10.7 15.1-6 2.9-7.5 3.2-16.6 3.2-8.4 0-10.8-.4-15-2.4-5.5-2.5-9.5-5.8-9.5-7.7 0-.6.7-1.7 1.6-2.5 1.3-1 3-.9 10.3.9 15.2 3.8 25.9 2.4 33.6-4.3 4.5-3.9 4.7-3.9 6.3-2.3m39.6 19.3c-5 1.3-10.5 3-12.3 3.9-5.5 2.9-3.5 7.5 5.9 13 4.6 2.7 5.6 3.8 6.2 7 1.1 5.2-1.2 8.9-8.6 14.2-6.9 4.8-8 6.4-6.2 8.9 1.2 1.7 1.8 1.8 5.4.7 2.2-.7 6.4-3 9.2-5.1 4.9-3.7 5.6-3.9 10.4-3.4 3.9.4 5.5.2 6.5-1 2.2-2.7.9-5.1-3.5-6.6-4.1-1.5-4.2-1.5-4.7-7.5-.6-5.9-.4-6.2 2.7-9.6 4.2-4.4 5.6-7.1 5.6-10.8 0-5.8-4.5-6.8-16.6-3.7m14.4.7c2.5 2.1 1.3 6.5-3.3 11.5l-4.4 5 .6 7c.5 6.7.7 7.1 3.2 7.6 1.4.3 3.5 1.2 4.6 2 1.6 1.3 1.7 1.7.6 3.1-1 1.2-2.8 1.5-7 1.4-5.1-.2-6 .1-10.2 3.3-2.5 1.9-6 4.1-7.8 4.9-2.8 1.1-3.4 1.1-4.8-.2-1.3-1.4-1.1-1.8 1.9-4 1.8-1.3 5-3.7 7.2-5.2 4.9-3.7 6.8-8 5.8-13.7-.7-3.8-1.3-4.6-6.2-7.5-5.1-3-9-6.6-9-8.5 0-1.5 7.8-4.9 15.8-6.8 7.5-1.9 10.4-1.9 13 .1m-95.7 21.9c-13.4 2.1-25 4.4-25.7 5-1.8 1.5-1.8 4.8.1 5.5 1.2.5 41.3-5.3 51.4-7.4 4.2-.9 6-3.4 4.2-5.6-1.7-2.1-1.3-2.1-30 2.5m28.8-1.7c2 2.4-1 3.5-16.5 6-32.1 5.3-36.6 5.8-37.7 4.7-2.8-2.8 2-4.3 25.9-8.1 28.2-4.5 26.9-4.4 28.3-2.6m-16.6 19.1c-26.6 13.4-27.5 14-27.1 16.8.2 1.3 1.1 2.3 2.3 2.5 2 .3 44.3-20.6 47.8-23.6 2.2-2 2.2-3.9-.3-5.2-1.6-.9-5.5.7-22.7 9.5m22-5.5c-1 1-11.8 6.8-24.1 13.1-17.2 8.7-22.5 11-23.4 10.1-2-2 .1-3.3 24.2-15.6 17.2-8.8 22.8-11.2 23.8-10.4 1.1.9 1 1.4-.5 2.8m314.2-180.4c-.7.3-.8 27.1-.5 79.1.3 43.4.6 78.9.8 79 .1.2 1.8.3 3.7.3h3.5v-67.8c0-51.4.3-68.1 1.2-69 .7-.7 3.1-1.2 5.5-1.2 3.2 0 4.3-.4 4.3-1.6 0-1.9-17.1-19.4-18.5-18.8M570 214c-2.5.3-5.1.9-5.7 1.3-1 .6-1.3 15.5-1.3 68.8v68l-2.7-.3-2.8-.3-.2-78-.3-78 8.8 9 8.7 9zm108.5-11.2c-.9.9-.6 23 .4 23.6.4.3 5.1.8 10.4 1.2l9.5.7.7-6.4c.3-3.5.5-9.3.3-12.9l-.3-6.5-10.2-.1c-5.6-.1-10.5.1-10.8.4m20.3 7.2c.2 3.6 0 8.9-.3 11.9l-.7 5.4-8.5-.7c-4.7-.3-8.9-.9-9.4-1.2-.9-.5-1.3-20.7-.4-21.6.3-.3 4.7-.5 9.8-.4l9.2.1zm-105.4-4.6c-.2.6-.3 34.2-.2 74.6l.3 73.5 10.7.9c5.8.5 11.3.6 12.2.3 1.4-.6 1.6-8 1.6-74.7 0-58.4-.3-74.1-1.2-74.5-3.3-1-23-1.1-23.4-.1m22.4 1.1c.9.4 1.2 15.9 1.2 73.5 0 65.9-.2 73.1-1.6 73.7-.9.3-5.9.2-11.2-.3l-9.7-.9-.3-72.5c-.1-39.9 0-73 .2-73.6.4-.9 18.3-.9 21.4.1m33.2 73.3v75.9l6.1.7c3.4.3 8.6.6 11.4.6h5.3l.7-12.3c.3-6.7.5-41 .3-76.2l-.3-64-11.7-.3-11.8-.3zm22.8-10.3c.2 35.2 0 69.1-.3 75.2l-.7 11.3h-5.1c-2.9 0-7.6-.3-10.4-.6l-5.3-.7V204.9l10.8.3 10.7.3zm180.5-62.8-12.3.4-.2 63.2c-.4 97.3-.5 91.6 1.2 92.7.8.5 7.5 1 14.8 1 11.9 0 13.2-.2 13.2-1.8 0-.9.3-35 .6-75.7.3-42.2.2-75.3-.3-77-1.1-3.4 0-3.2-17-2.8m15.8 3c.8 2 1 24.3.5 76.8-.3 40.7-.6 74.6-.6 75.2 0 1-3.3 1.3-13 1.3-11.3 0-13-.2-13.8-1.8-.5-.9-.7-34.6-.4-77.4l.5-75.7 11.6-.4c6.4-.1 12.2-.4 12.9-.5s1.7 1 2.3 2.5m53.4 1.3c-.8 1.2-.4 133.5.4 146.5l.6 9 9.3.3 9.2.3-.2-78.3-.3-78.3-9.2-.3c-5.6-.2-9.4.1-9.8.8m18.3 77.8.2 77.3-8.2-.3-8.3-.3-.6-8.5c-.8-12.2-1.2-143.8-.4-145 .4-.7 3.8-1 8.8-.8l8.2.3zm40.8-69.2c-.8 2-.8 18.7 0 20.8.5 1.3 2.6 1.6 12.4 1.6h11.9l.6-4.3c.3-2.3.5-7.6.3-11.7l-.3-7.5-12.1-.3c-10.4-.2-12.3 0-12.8 1.4m24.2 7.4c.2 4.1 0 9-.3 10.8l-.6 3.3-11.2-.3-11.2-.3-.3-9.4c-.1-5.2 0-10.1.2-10.8.4-1.1 3.1-1.3 11.8-1.1l11.3.3zM623 231.5c0 10.2.3 12.7 1.5 13.1.8.3 5.4.7 10.2.7l8.8.2.3-13.3.3-13.2H623zm19.8.7-.3 12.3-7.7-.1c-11.4-.2-10.8.5-10.8-12.9V220h19.1zm62.2-8c0 2.4-.3 32.9-.6 67.8-.3 40.2-.2 64 .4 64.9.7 1 4.3 1.5 12.4 1.9l11.5.5.6-6.3c.4-3.5.7-34.8.7-69.6V220h-25zm24 60c0 34.8-.3 65.7-.7 68.7l-.6 5.3-10.2-.4c-5.6-.3-10.7-.8-11.5-1.3-1.1-.7-1.2-11.7-.7-64.4.4-35 .7-65.3.7-67.4V221h23z"/><path d="m574.8 221.7-4.8.4-.2 19.7c-.1 14.5 0 104 .2 110.4 0 .5 4.1.8 9 .8h9l-.2-65.8-.3-65.7-4-.1c-2.2 0-6.1.1-8.7.3m12 65.6.2 64.8-8-.3-8.1-.3-.1-45c-.1-24.8-.1-53.6 0-64.2l.2-19.2 4.3-.4c2.3-.2 5.8-.4 7.7-.3l3.5.1zm219.7-64.1c-.9 3.7-.1 137.5.8 138.5.5.4 6.7 1 13.8 1.2l12.9.3.2-28.8c.1-15.9.2-47.8.2-70.9l.1-42-13.7-.3c-13.6-.3-13.8-.2-14.3 2m26.9 40.8c0 22.8-.1 54.3-.2 69.8l-.2 28.4-12-.4c-9.4-.2-12.3-.6-13-1.8-1.1-1.7-1.4-136.3-.3-137.4.4-.3 6.3-.5 13.2-.4l12.6.3zm-59.8-34.4c-.3.8-.6 30.3-.6 65.4 0 49.8.3 64 1.3 64.8.6.5 6.8 1.1 13.7 1.3l12.5.4v-133l-13.1-.3c-11.3-.2-13.2 0-13.8 1.4m25.9 65.4v65.5l-11-.3c-6-.2-11.8-.6-12.7-.8-1.7-.5-1.8-4.5-1.8-64.8 0-35.3.3-64.6.7-65 .4-.3 6.1-.5 12.7-.4l12.1.3zm147.1-62.4c-.3.9-.6 31.2-.6 67.4 0 50 .3 66.1 1.2 66.6.7.4 7.2 1 14.5 1.2l13.3.5v-8.4c0-4.6.3-35.1.7-67.8.5-50.2.4-59.4-.8-60.2-.8-.5-7.3-.9-14.5-.9-11.1 0-13.3.2-13.8 1.6m27.9 41.9c0 23.1-.1 53.4-.3 67.4l-.4 25.3-12.1-.4c-6.7-.2-12.8-.7-13.5-1.1-.9-.7-1.2-15.1-1.2-66.6 0-36.2.3-66.1.7-66.5.4-.3 6.6-.5 13.7-.4l13.1.3zm-296.3-31.8.3 9.8 9 .8c5 .4 9.6.5 10.3.2.8-.3 1.2-3.4 1.2-10.5v-10h-21.1zm19.8.9v9.5l-8.2-.6c-4.6-.4-8.9-.8-9.5-1-.9-.3-1.3-3-1.3-9V234h19zm205 9.6c0 9.5-.2 37.5-.4 62.1-.3 24.7-.3 46.2.1 47.8.5 2.8.7 2.9 6.3 2.9 4.4 0 5.9-.4 6.4-1.6.8-2 .8-124.8 0-126.8-.5-1.2-2.1-1.6-6.5-1.6H903zm11.5 47.8v63.5l-5.1.3c-4.7.3-5.2.1-5.7-2-.4-1.3-.4-22.6-.1-47.3.2-24.8.4-52.6.4-61.8v-16.8l5.3.3 5.2.3zm96.1-59.8c-.3.7-.7 29.4-1.1 63.6-.4 47-.3 62.7.6 63.8.8 1 3.1 1.3 7.8 1.2l6.6-.2-7-.5-7-.6-.2-9c-.2-5 0-33.5.5-63.5l.7-54.5 6.5-.6 6.5-.6-6.8-.1c-4.7-.1-6.9.2-7.1 1m-275 3.7c-.3.4-.6 26-.7 57-.1 43.9.1 56.5 1.1 57.1 2.2 1.3 30.1 2.3 31.3 1.1 1.3-1.3 1.1-113.1-.1-114.2-1-.9-31.1-1.9-31.6-1m30.6 2c1 .9 1.4 110.4.4 111.9-.7 1.1-3.7 1.2-15 .7-7.7-.4-14.5-1.1-15-1.6-.9-.8-.9-110.6 0-112 .5-.9 28.6.1 29.6 1m108.4-1.3c-1.1 2.8-.7 115.4.4 117.5 1 1.7 2.2 1.9 11.4 1.9h10.3l.5-59.8c.4-43.4.2-59.9-.6-60.4-.6-.4-5.7-.8-11.2-.8-8.4 0-10.3.3-10.8 1.6m21.9 12.6c0 7.1-.1 33.7-.3 59.3L896 364h-9.3c-5.9 0-9.7-.4-10.5-1.2-.9-.9-1.2-15.3-1.2-58.8 0-31.7.3-58 .7-58.4s5.2-.5 10.7-.4l10.1.3zm84.5-1.3c0 7.2.3 9 1.6 9.5.9.3 6.3.6 12 .6h10.5l-.3-9.3-.3-9.2-11.7-.3-11.8-.3zm22.8.9.3 8.3-10.8-.3-10.8-.3-.3-8.3-.3-8.3 10.8.3 10.8.3zm-379.5-7.2c-1 .4-1.3 11.9-1.3 52.3v51.8l5.3.7c9.3 1.1 14.4.8 15.1-1 .3-.9.6-24.5.6-52.5V251h-6.4c-3.5 0-7.6-.2-9.2-.5-1.6-.2-3.5-.2-4.1.1m12.8 1.4h5.9l-.2 51.2-.3 51.3-3 .3c-1.6.2-5.8.1-9.2-.3l-6.3-.7v-50.7c0-27.9.3-51.1.7-51.5.5-.4 2.1-.5 3.7-.2s5.5.6 8.7.6m40.9 34.2c0 15.6-.3 37.6-.7 48.9-.3 13.2-.2 20.8.4 21.2 1.7 1.1 20 2 20.6 1.1.3-.5.7-22.7.9-49.4l.3-48.5-6.5-.6c-3.6-.4-8.4-.7-10.7-.8l-4.3-.1zm14.5-26.3 6 .6-.3 47.5c-.2 26.1-.6 47.9-.9 48.4-.6.9-16.8 0-18.6-1.1-.6-.4-.8-7.5-.3-20.7.3-11.1.6-32.6.6-47.9V259l3.8.1c2 .1 6.4.4 9.7.8m-368 .8c-2.7.2-5.4.8-5.8 1.3-.5.4 1.9 4.1 5.3 8.1 10.5 12.5 16.1 26.7 17.6 44.6.7 9 1 9.3 6.6 6.9 8.1-3.6 27.3-10.6 28.9-10.6 1 0 2.1.5 2.4 1.1.8 1.3-2.3 4.9-4.2 4.9-.7 0-2.1.4-3.1 1-.9.5-7.7 3.3-15.1 6.1-7.3 2.9-14.2 6-15.2 6.8-1.2 1.1-2.1 3.6-2.5 7.4l-.7 5.9 4.4-.6c2.4-.3 10.5-1 17.9-1.6s14.4-1.3 15.6-1.5c1.1-.3 2.9.2 4 1 4.1 3 0 4.1-22.1 5.9-11.5 1-21.3 2.1-21.6 2.4-.3.4-1.8 4.3-3.3 8.6-3.1 8.9-6.8 16-13.3 25.3-2.4 3.5-4.3 6.9-4.3 7.7 0 .9 2.6 1.9 7.8 3.1 21.9 4.7 26.9 7 39.5 18.1 12.2 10.7 23.8 24.9 42.7 51.9 7.6 10.9 9.6 13.3 10.7 12.3.7-.7 2.2-6.9 3.3-13.7 2.2-13.2 5.1-21.5 10-29 2.7-4.1 4.5-5.8 11.3-10.4 1.8-1.2 1.8-1.7.2-10.7-5.2-31.4-19.7-86.4-27.7-105-8.1-19.2-18.1-33.3-27.3-38.8-13.1-7.8-33.6-10.6-62-8.5m36.5 1.4c20.1 2.5 32.2 10.6 43.4 29.3 11.6 19.2 27.8 73.2 35.6 118.7 1.9 10.8 1.9 11.5.2 12.6-6.9 4.8-8.6 6.3-11.3 10.5-4.4 6.8-7.6 16.5-9.9 30.1-1.9 11.4-2.5 13.6-3.3 12.6-.2-.2-4.5-6.3-9.5-13.4-13.1-18.8-14.7-20.8-24.8-33-9.9-11.8-20.1-21.5-27.9-26.4-5.8-3.7-11.7-5.7-25.3-8.6-5.6-1.3-10.5-2.5-10.8-2.8s1.5-3.4 3.9-6.9c5.6-8 10.8-18.3 13.7-27.1 1.3-3.7 2.6-6.9 2.9-7.2.4-.2 9.6-1.1 20.6-2s21-2 22.3-2.5c1.3-.6 2.2-1.8 2.2-3 0-2.5-3.3-3.9-7.5-3.3-6.3.8-35 3.1-35.4 2.7-.2-.2 0-2.4.3-4.9.9-5.8 2.1-6.5 21.6-14.1 17.5-6.8 19.2-7.8 18.8-10.7-.5-3.7-4.5-3.1-21.1 3.3-8.7 3.3-16 6-16.2 6-.1 0-.6-3.7-1-8.3-1.5-17.3-7.3-32.2-16.9-43.9-3.1-3.7-5.6-7-5.6-7.2 0-1.5 30.2-1.9 41-.5m619.9 22.6c0 7.1-.2 28.1-.5 46.8-.3 21.1-.1 34.6.6 35.5.7 1.1 3.5 1.6 11.8 1.8l10.9.4.7-4.8c.3-2.6.6-23.7.6-47 0-37.1-.2-42.4-1.6-43.8-1.2-1.3-3.8-1.6-12-1.6H981zm21.9-10.5c.9.9 1.2 12 1.2 43.7 0 23.5-.3 44.3-.6 46.3l-.7 3.8h-8.9c-14.2 0-13 3.6-12.4-36.3.3-18.8.5-39.7.5-46.5l.1-12.2h9.8c6.3 0 10.2.4 11 1.2M48 289.5c-34.3 4-46.6 5.7-47.3 6.4-.5.5 1.3.5 4 0 9.1-1.6 47.3-5.9 58.1-6.6 9.3-.5 11.3-.3 14.8 1.3 5.4 2.6 18.5 15.3 21.6 21.1 2.4 4.5 2.6 6 3.1 21.8.7 20.8 2.6 28.6 12.1 48.4 7.6 16 9 21.6 8.4 33.9-.5 10.3-.8 10.9-12.8 25.7-17.5 21.6-25.1 36.8-30.4 61-2 9.5-7.3 52.4-8.7 71.5-.6 8.5-1.2 27.6-1.3 42.5-.1 22.9.2 28.3 1.8 35.5 1.4 6.7 5 16.1 8.3 22.1.2.3-4.7 1.6-10.9 2.8-21.3 4.2-42 9.3-51.2 12.6S-1.7 698 .9 698c.7 0 3.7-1.3 6.5-2.9 9.8-5.5 31.8-11.6 64.4-17.7 5-1 9.2-2.3 9.2-2.9s-1.5-4-3.4-7.5c-6-11.4-7.1-19.6-7-50.5.2-31.5 1.3-48.8 5.5-82.5 4.2-34 6.5-43.9 13.4-58.5 5.2-11 11.8-21.1 21.5-33 12.2-15.1 12.3-15.1 12.8-26.8.6-13-1.5-21.3-9.5-37-8.4-16.7-10.3-24.6-11-45.2-.4-13.4-.9-17.9-2.4-21.3-2.1-4.9-12.3-15.9-18.9-20.5-4.1-2.9-5.2-3.1-13.5-3.4-4.9-.1-14.2.4-20.5 1.2m509.5 71.8c-.3 1.2-.5 5.6-.3 9.7l.3 7.5 26.5 1.2c51.5 2.3 102.1 4.4 151.5 6.3 27.5 1.1 60.8 2.4 74 3 29.8 1.3 83.7 3.7 113.5 5 38.7 1.7 69.9 3 86 3.4 11.8.4 9.9.2-8-.9-12.9-.7-36.3-1.8-52-2.4s-42.4-1.8-59.5-2.6c-31.2-1.5-38.1-1.8-130.5-5.5-27.8-1.1-65.8-2.6-84.5-3.5-18.7-.8-46.4-2-61.5-2.6s-33.6-1.4-41-1.7l-13.5-.7v-17l8-.3c4.4-.2 19.5.1 33.5.7s53.9 2.2 88.5 3.6c34.7 1.3 69.1 2.7 76.5 3s37.6 1.5 67 2.5c29.4 1.1 71.1 2.7 92.5 3.5 82.5 3.1 98.7 3.6 99.1 3.2.6-.6-18.4-1.4-58.1-2.7-17-.6-47.6-1.7-68-2.5-20.3-.8-49.6-1.9-65-2.5-88.4-3.3-208.9-8-229.4-9-11.2-.5-25.9-1-32.7-1-12 0-12.4.1-12.9 2.3m-1.5 50.9c0 10.1.3 19.3.6 20.5.7 2.6 4.6 3.7 13.3 3.7l5.3.1.4-11.8.3-11.9-8.6-9.1c-4.8-5.1-9.3-9.3-10-9.5-1-.3-1.3 3.4-1.3 18m18.5 12.4V436H571c-5.6-.1-12.2-1.7-13.1-3.1-.5-.8-.9-9.6-.9-19.7v-18.3l8.8 9.2 8.7 9.2zm50.5-.7v21.8l11.1 1.7c6.1 1 11.4 1.4 11.8 1.1.3-.4.8-10.5.9-22.6.3-17.7.1-22-1-22.3-.7-.2-6.1-.7-12-1l-10.8-.5zm21.8-19.3c1.1.3 1.3 4.5 1 21.3-.1 11.5-.6 21.2-.9 21.5-.3.4-4.8 0-10-.9-5.2-.8-9.7-1.5-10.1-1.5-.5 0-.8-9.4-.8-20.9v-20.9l9.8.5c5.3.2 10.3.7 11 .9m162.1 3.6c-.4 5.8 0 156 .4 156.4 1.1 1.1 16.2 2.1 17.5 1.1.9-.7 1.2-17.9 1.2-79.8V407h-9.5c-6.9 0-9.5.3-9.6 1.2m18.1 78.2c0 43.2-.3 78.7-.7 78.9-1.1.6-15.2-.9-15.9-1.6-.5-.5-.9-151-.5-155 .1-.4 3.9-.7 8.6-.7h8.5zm66.3-75.8c-.9 2.3.6 159.7 1.5 160.6.4.4 5.4.8 11.2 1l10.5.3.3-80.9c.2-64.1 0-81.1-1-81.8-.7-.4-5.9-.8-11.6-.8-8.5 0-10.4.3-10.9 1.6m22.2 80.4v80.5l-9.5-.3c-5.2-.2-9.8-.6-10.2-1-1-1-2.4-156.3-1.5-158.6.6-1.4 2.2-1.6 10.9-1.4l10.3.3zM582 425.9c0 7.2.1 13.1.3 13.1.1 0 4 .7 8.7 1.5s10 1.5 11.8 1.5h3.2v-28h-3.7c-2.1 0-7.5-.3-12-.7l-8.3-.6zm19.7-10.9h3.3v26h-2.8c-2.6 0-11.3-1.3-16.9-2.5-2.2-.5-2.3-.9-2.3-12.7v-12.1l7.7.7c4.2.3 9.1.6 11 .6m151.1-1.4c-.9.8-.9 20.7.1 40.3l.6 13.4 7 2.4c3.9 1.3 8.2 2.7 9.8 3l2.7.5V414h-4.7c-2.7 0-7-.3-9.8-.6-2.7-.3-5.3-.3-5.7.2m14.8 1.4h4.4v28.5c0 15.7-.3 28.5-.7 28.5-.5-.1-4.4-1.3-8.8-2.8l-8-2.8-.6-12.9c-1-18.9-1-38-.1-38.9.4-.4 2.7-.5 5.1-.2s6.3.6 8.7.6m-112.9-.3c-.8 1.3-1.2 34.1-.5 34.8 1 1 25.9 4.6 26.9 3.9.5-.3.9-9 .9-19.3v-18.8l-6.1-.7c-8.4-.8-20.7-.8-21.2.1m21.1.9 5.2.7v17.8c0 9.8-.3 18-.7 18.2-1 .6-21.2-2.1-23.8-3.2-1.9-.8-2-1.6-1.6-16.7.2-8.7.5-16.2.8-16.7.5-.9 12.8-.9 20.1-.1m193.9 1c-.4.4-.7 35.1-.7 77V570l2.3.5c1.2.2 5.4.6 9.2.7l7 .3v-155l-8.5-.3c-4.7-.1-8.9 0-9.3.4m16.8 77.4v76.5l-7.5-.4c-4.1-.2-7.8-.5-8.2-.8-1-.5-1-150.7-.1-151.7.4-.4 4.1-.5 8.3-.4l7.5.3zm-107.8-69.6c-.4 1-.7 13.6-.7 28 0 25.4.1 26.4 2.1 28.2 3.7 3.3 9 13.6 11.1 21.4 1.5 5.6 2.1 10.8 2.1 20.5.1 15-1.4 22.2-6.9 32.9-2 3.7-3.2 7.2-2.7 7.6.4.5 4.9 1 9.8 1.2l9 .3.8-69.8c.5-38.4.7-70.1.4-70.3-.2-.3-5.8-.8-12.4-1.1-10.8-.5-12-.4-12.6 1.1m24 1c.3.2.1 31.4-.4 69.3l-.8 68.8-8-.4c-4.4-.1-8.3-.5-8.6-.7s.9-3.4 2.8-7.1c5.3-10.8 6.7-18 6.6-32.8-.1-18.6-4.2-32.6-12.3-41.8l-3-3.5v-25.9c0-14.3.3-26.3.8-26.8.7-.8 22 0 22.9.9m119.5 72.8.3 75.2 3.5.8c1.9.4 8.3 1 14.1 1.4l10.6.7.6-2.9c.3-1.5.6-36 .6-76.6l.2-73.8H922zm28.6.7c-.2 41.2-.6 75.3-1.1 75.7-.9.9-23.8-.9-25.6-2-.8-.5-1.1-20.8-1.1-74.7V424h28.1z"/><path d="M448.5 427.7c-3.7.8-10 5.8-13.1 10.5-3.5 5.2-6.5 14.1-8.9 26.8-.9 4.7-2 10.7-2.6 13.3-1.7 8.8-1.3 10.1 6.2 21.1l7.1 10.5 5.6 1.1c9.3 1.8 25.2 7 32.4 10.6 9.1 4.6 10 4.5 13.1-1.9 12.1-24.5 31.1-41.4 61.2-54.3 12.1-5.2 12.3-5.2 16.8 1.5l2.9 4.2 5.9-.7c4.1-.5 6.3-.3 7.4.6 1.8 1.5 2 5.4.2 6.8-1.4 1.2-3 4.5-14.8 31.2-11.3 25.7-11 24-5.4 29.3 4.3 4.2 4.5 4.6 4.5 10.1 0 5.7-1.6 10.2-4.4 12.5-1.1.9-1.6 3.1-1.6 6.8 0 6.9-2.5 11.8-8.8 17.4-7.7 6.9-10.6 14.3-5.9 15.4 1.2.3 10.3 1.9 20.2 3.5 18.1 3.1 49.1 10.5 56.2 13.5 2.1.9 13.7 3 25.8 4.6 12 1.6 24 3.5 26.5 4.1 8 1.9 18.5 7.3 23.5 12.2 2.7 2.5 5.2 4.3 5.6 3.9.4-.5.9-22.4 1.2-48.8.5-56.8 1.7-68.1 9.3-84.5 8-17 19.3-28 33.8-32.5 1-.3 1.7-.8 1.4-1.1-1.1-1.1-12 3.9-17.8 8.1-7.1 5.3-11.6 11.1-16.9 22-9 18.5-10.3 29-10.8 88.3-.4 41.9-.7 48.1-1.9 46.4-2.6-3.7-9.5-8.5-16.5-11.3-8.6-3.5-16.6-5.2-38.4-7.9-10.6-1.4-20.5-3.3-26.1-5-15.8-5-36.2-9.8-55.9-13.1-10.4-1.8-19.4-3.6-19.9-4-1.7-1.5 2.4-8.4 7.6-12.9 6-5.2 8.7-10.7 8.8-17.6 0-3.4.5-5.6 1.6-6.4 2.6-2.3 4.4-8 4.4-14.3 0-5.9-.1-6.2-4.5-10.4l-4.6-4.4 8.6-19.7c11.4-26 14.7-33.1 16.2-34.4.7-.6 1.3-2.5 1.3-4.4 0-4.5-2.6-5.8-9.6-5-5.1.6-5.4.5-7.1-2.1-2.8-4.6-5.6-7.3-7.4-7.3-3.3 0-23.2 9.1-33.8 15.3-16.8 10-30.9 25.3-39.8 43.4-1.4 2.9-2.9 5.3-3.4 5.3s-3.6-1.3-6.7-2.9c-6.3-3.2-21.7-8.4-29.7-10.1-2.7-.5-5.9-1.2-7.1-1.5-2.6-.6-16.4-20.6-16.4-23.8 0-2.9 3.6-22.6 5.5-30.2 2-7.8 6.7-17.3 10.2-20.7 3.9-3.6 10.2-6.8 13.7-6.8 1.6 0 8.3.9 15 2.1 14.7 2.5 47.7 7.3 68.6 9.9 21.4 2.7 26.2 3.4 61 9.1 16.8 2.8 43.1 6.8 58.5 9 35.3 5 66.9 10.3 80.7 13.4 5.9 1.4 11.3 2.5 12 2.4.7 0-3-1.2-8.2-2.4-12.5-3.2-49.7-9.5-84.5-14.4-15.4-2.2-41.7-6.2-58.5-9-34.8-5.7-39.6-6.4-61-9.1-20.9-2.6-53.9-7.4-68.6-9.9-11.7-2-15.6-2.3-19.9-1.4m162.9 2.9c-.7 2.6.1 10.8 1.2 12.5.3.5 1.8.9 3.5.9h2.9v-7.4c0-5.8-.3-7.5-1.6-8-3.3-1.3-5.4-.6-6 2m6.4 5.6c.3 6.3.1 6.8-1.8 6.8-2.4 0-4-3.5-4-8.9 0-4.4.6-5.3 3.5-4.9 1.7.3 2 1.1 2.3 7m84.9-6.5c-.9.9-.9 25.5.1 26.9.8 1.2 24 5.4 26 4.6.9-.3 1.2-4.5 1.2-16.3V429h-13.3c-7.4 0-13.7.3-14 .7m26.3 15.2c0 8.3-.3 15.2-.7 15.4-.8.4-21.6-2.9-24-3.8-1-.3-1.3-3.8-1.3-12.8 0-6.8.3-12.7.7-13 .3-.4 6.2-.7 13-.7H729zm267.9-11.6c-.3 7.9.3 139.2.8 142 .4 2.7 1.1 3.9 2.7 4.3 3.8.9 23.4 1.9 23 1.2-.3-.5-3.5-.8-7.2-.9-3.7 0-8.9-.4-11.6-.7-4.4-.6-5.1-1-5.7-3.6-.4-1.5-.9-34.2-1-72.5l-.1-69.6 13.3.4c7.4.2 13.2.1 12.9-.1-.3-.3-6.5-.8-13.7-1.1-10.1-.5-13.3-.3-13.4.6m-261.2 2.3c-.4.4-.7 6.7-.7 14V463l2.8.6c1.5.3 4 1 5.6 1.5 1.5.5 3.3.6 3.9.2 1.2-.7.4-27-.9-28.3-1.3-1.2-9.8-2.3-10.7-1.4m9.7 2.4c1 1 2.2 23.1 1.3 25.3-.4 1.2-1.3 1.2-5.4.2l-4.8-1.2-.3-11.9c-.1-6.5 0-12.4.3-13.2.4-1.1 1.5-1.2 4.3-.7 2 .3 4.1 1 4.6 1.5m88.4-2.4c-.7.6-1.2 131.3-.5 131.5 1.8.6 28.4 2.6 28.8 2.1.9-1 2-132 1.1-132.6-1.4-.8-28.7-1.8-29.4-1m28.4 2c.9.6-.2 129.6-1.1 130.5-.3.4-6.4.1-13.6-.5l-13-1.1-.3-64c-.1-35.2 0-64.6.3-65.4.4-1.1 2.9-1.3 13.7-.7 7.3.4 13.6 1 14 1.2m-174 9.7.3 8.2h8l-.2-7.4c-.1-4-.3-7.5-.5-7.6s-2-.5-4.1-.8l-3.8-.6zm7.4-.7c.8 7 .2 8.6-3.3 8.2-2.7-.3-2.8-.5-3.1-7.4l-.3-7.1 3 .5c2.8.4 3 .8 3.7 5.8m262.8 3.7c-.2.7-.3 6.5-.2 12.8l.3 11.4 16.3.3 16.2.2v-24.7l-11.2-.6c-16.8-1-20.8-.9-21.4.6m20.9.4 10.7.6v22.8l-15.2-.3-15.3-.3-.3-10.4c-.1-5.8 0-11.1.2-11.8.6-1.5 4.3-1.6 19.9-.6"/><path d="M545 474.4c-25.8 13-35.9 22.2-49.6 45.5-3.5 5.8-6.9 11.4-7.6 12.4-1.2 1.7-1.9 1.5-11.8-3.2-27.7-13.1-54-17.3-96.2-15.3-22.9 1.1-26.2 1.6-25.5 3.6.4 1.2 2.2 1.6 25.2 4.5 8.8 1.2 34.5 5.1 57 8.7 30.7 5 42.3 7.3 46.2 9 6.3 2.9 14.1 3.1 19.8.5 2.2-1 11.4-8.7 20.5-17.2 22.9-21.3 34.3-31.5 42.8-38.2 3.9-3.2 7.2-6.4 7.2-7.2 0-2 0-2-7.5 1.4-5.3 2.4-9.8 6.1-24.3 19.8-30.9 29.2-37.1 34.6-38.7 33.9-.8-.3-1.5-.9-1.5-1.3 0-.9 51.9-50.8 55.1-53.1 2.4-1.7 5.2-6.9 4.4-8.2-1.2-2-5.2-.8-15.5 4.4m14.5-3.5c.7 1.2-.6 2.4-32.8 33.1-27.4 26.1-29.7 29-23.9 29.8 2.5.4 6.7-3.3 39.2-33.9 12.8-12.1 19.3-17.5 23.8-19.8 3.4-1.7 6.2-2.8 6.2-2.4-.1.5-3.1 3-6.8 5.8-7.5 5.6-18.8 15.6-43.1 38.3-9.1 8.4-18.2 16.2-20.2 17.3-5.5 2.7-12.7 2.5-18.3-.6-2.5-1.4-5.6-2.5-7.1-2.5-1.4 0-18.6-2.7-38.3-6-19.6-3.3-44.5-7.2-55.2-8.6-28.3-3.7-28.9-3.8-26.5-4.7 1.1-.5 11.9-1.3 23.9-1.9 41.4-2 66.3 1.9 93.6 14.8 6.6 3.1 12.6 5.4 13.4 5.1.7-.3 3-3.6 5.1-7.4 14.5-26.6 26.7-38.5 53.3-51.9 11-5.5 12.7-6.1 13.7-4.5M748.2 483c-20 7.2-33.1 29.6-36.1 61.8-.6 5.9-1.2 54.8-1.5 109.2l-.4 98.5 5.4 13c7.3 17.5 7.6 18.1 10.3 17.7 1.9-.2 15.1-5.1 24.6-9.1 1.1-.5 4-1.7 6.5-2.7s5-2.3 5.6-3.1c.8-.9 1.3-30 1.8-96 .7-92.3.8-94.8 2.7-98 1.1-1.8 3.8-5.4 5.9-8 5.5-6.5 10.5-17.3 12.5-26.7 3.6-16.2.2-39.4-7.3-50.1-5.4-7.7-18.7-10.6-30-6.5m21.5 1.4c6.1 2.9 10.1 8.4 13.4 18.6 3 9.2 3.7 27.1 1.5 36.5-2.1 8.6-7.3 19.5-12.6 25.8-2.1 2.6-4.8 6.2-5.9 8-1.9 3.2-2 5.7-2.7 98.5-.5 66.8-1 95.5-1.8 96.1-.6.5-9 4.1-18.6 8-13.5 5.4-17.8 6.7-18.6 5.8-.6-.7-3.8-7.6-7.2-15.3l-6-14.1.8-105.9c.7-103.1.8-106.2 2.9-115.9 2.5-11.8 7.9-23.4 14.8-32 5-6.3 15.2-13.8 20.6-15.4 6.1-1.8 13.9-1.2 19.4 1.3m188.3 5v8.4l3.3.6c1.7.3 7.7.6 13.2.6 17.2.2 16.2.4 16.9-3 .3-1.7.3-5.7-.1-9l-.6-6H958zm32.4-1.9c.9 7.7 0 10.5-3.3 10.6-8.3.2-23.9-.3-25.8-.8-2.1-.5-2.3-1.1-2.3-7.9V482h30.7zm-437.5 16.2c-6.8 6.5-18.9 17.6-26.8 24.8-7.8 7.1-15.8 15-17.6 17.5s-11.7 21.5-22 42.3-19.2 38-19.6 38.3c-1.5.9-1 4.4.5 4.4.8 0 2.3-1 3.3-2.3 1.8-2.2 18.2-15.5 34.1-27.5 4.5-3.5 8.2-6.9 8.2-7.6s1.3-3.3 3-5.7c1.6-2.5 2.7-5.1 2.4-6.1-1-3.2 1.7-9.8 5.6-14 2.8-2.8 4-5 4-7 0-6.3 6.1-13.9 15.3-19.2 2.8-1.6 5.3-3.9 5.9-5.4s1.4-3.6 1.9-4.7c.4-1.1 2.2-5.2 3.9-9 1.7-3.9 3.8-8.4 4.5-10 .7-1.7 2.2-5 3.3-7.5 5.3-11.7 5.6-13 3.3-13-.4 0-6.3 5.3-13.2 11.7m7 4.9c-3.4 7.7-7.5 17-9.1 20.9-3.8 8.7-4.1 9.1-9.7 12-8.1 4.1-14.1 12.3-14.1 19.1 0 1.6-1 3.4-2.4 4.5-4.1 3.2-6.7 8.5-7 13.9-.2 2.9-.9 5.7-1.9 6.8-.9 1-2.2 3.3-2.8 5.1-.8 2.2-3.7 5.1-9.3 9.4-15.8 12-32.1 25.2-34 27.5-2.5 3.2-3.3 2-.9-1.5 1.1-1.5 9.9-19 19.7-38.8s19.3-38 21.1-40.5 9.8-10.4 17.6-17.5c7.9-7.2 19.7-18.1 26.3-24.3 6.5-6.2 12.1-11.1 12.3-10.8.2.2-2.4 6.6-5.8 14.2m397.9 25c-.3 34.6-.2 40.4.9 41.5s11.8 2.7 23.6 3.5l9.8.7-.3-36.6c-.2-20.1-.6-36.8-1-37.2-.3-.4-7.9-.9-16.7-1.2l-16.1-.6zm32-27.1c.4.4.8 16.7 1 36.2l.3 35.5-9.8-.7c-12.2-.9-20.4-2.2-21.6-3.4s-1.2-4-.9-40l.2-29.4 15.1.5c8.2.3 15.3.9 15.7 1.3m-645.6 24.7c-10 18.4-17.2 32.6-17.2 34 0 1.1 2.6 1.7 12 2.6 12.5 1.1 19.3 3.3 23.8 7.5 5.3 4.9 6.6 11.7 3.5 18.2-1.4 3-1.5 4.1-.5 6.8 3.3 9.1-.2 17.1-9.1 21.3-2.9 1.3-5.7 2.4-6.4 2.4-.6 0-1.4.8-1.8 1.9-.3 1-1.4 2.6-2.5 3.6s-2 2.3-2 3 6.8 1.9 20.3 3.4c26.3 2.9 61.5 5.8 62.6 5.1.7-.4 8.3-16.4 37.7-79 3.5-7.4 6.5-14.6 6.6-15.9.3-2.2-.2-2.6-4.2-3.3-40-7.2-112-18.8-116.3-18.8-2.1 0-3.2 1.2-6.5 7.2m31.7-2.7c24.1 3.8 85.3 14.1 91.1 15.4 2.2.5 3.4 1.3 3.2 2.2-.4 1.6-5.8 13.3-25.2 54.4-7.3 15.4-14.5 30.7-16 34.1l-2.7 6-25.9-2.2c-14.3-1.2-32.5-3-40.6-4l-14.7-1.7 2.4-2.9c1.4-1.6 2.5-3.3 2.5-3.7 0-.5 2.7-1.8 6-3 7.9-2.9 11.2-7.1 11.8-15.1.2-3.3-.1-6.6-.8-7.9-.9-1.8-.8-3.1.6-6.6 4.1-10.8-1.6-21.1-13.5-24.5-2-.6-8.5-1.5-14.6-2.2-6-.6-11.2-1.2-11.4-1.4s2.7-6.1 6.4-13.1c13.5-25.6 14.6-27.3 16.7-27.3 1.1 0 12.2 1.6 24.7 3.5"/><path d="M549 545.1c-3.4 1.8-8.2 5.1-10.6 7.4-7.3 6.9-5.4 11 4.8 10.8 8.2-.3 14.5-3.4 16.5-8.1 2.3-5.4.4-13.2-3.2-13.2-.6 0-4 1.4-7.5 3.1m9.4.1c5.2 7.4-2.8 16.5-14.8 17.1-4.1.1-6-.2-7.2-1.5-1.6-1.6-1.6-1.9-.1-4.2.9-1.3 3.2-3.6 5-5 3.6-2.7 13.7-8.6 14.9-8.6.4 0 1.4 1 2.2 2.2m-81.1 3c-.6.7-5.4 11-10.8 22.8-5.3 11.8-11.2 24.6-13 28.5-1.8 3.8-4.5 9.7-6 13s-5.2 11.1-8.1 17.3c-3 6.2-5.4 11.7-5.4 12.2 0 1.3 10.1 2.7 13.5 1.8 1.7-.4 4.5-2.4 6.3-4.5 3.4-3.8 43.9-83.9 44.4-87.8.3-1.8-.5-2.1-6.7-2.6-3.8-.4-8.4-1-10.1-1.4-2-.4-3.4-.2-4.1.7m13 1.5c4.4.4 6.7 1 6.7 1.8 0 2.1-39.6 80.7-43 85.3-4 5.6-7.7 7.2-13.8 6.1-2.5-.5-4.6-1-4.8-1.2-.1-.1 1.8-4.5 4.3-9.7 7.6-15.7 35.3-76.2 35.3-76.9 0-.3.9-2.1 2.1-4 1.6-2.7 2.4-3.2 4.2-2.6 1.2.3 5.2.9 9 1.2m59.2 19.1c-2.6.9-6.2 1.2-10.6.9-7.8-.7-11.8 1.1-13.9 6.3-1.3 3.1-1.2 3.4 1.4 5.6 3 2.6 9.6 3.2 17.1 1.4 5.2-1.2 11.5-7.7 11.5-11.9 0-3.8-.6-4.1-5.5-2.3m4.5 1.7c0 3.5-6.4 10.2-10.8 11.5-2.1.5-6 1-8.8 1-4 0-5.5-.5-7.3-2.4-2.2-2.3-2.2-2.5-.6-4.9 2.9-4.5 5.5-5.5 12.6-5 5.5.4 9.9-.4 14.7-2.6.1 0 .2 1 .2 2.4m221.3 1c-2.5 1.7-3.5 6.6-2.5 11.5 1 4.4-15 2.6 130.2 14.5 16.2 1.4 48.3 4 71.2 6 23 1.9 43.7 3.4 46 3.3l4.3-.1-4-.4c-6.2-.6-84.7-7.1-117.5-9.8-96.3-7.9-117.1-9.6-122.5-10.3-5.8-.7-5.9-.8-6.8-4.2-.5-2.2-.4-4.7.2-6.3 2-5.1 3.5-5.2 35.4-2.8 16 1.2 35.1 2.7 42.2 3.2 7.2.5 22 1.6 33 2.4s29.9 2.2 42 3c25.8 1.8 89.5 6.4 94.2 6.8 1.8.2 3 0 2.5-.3-.6-.6-34.3-3.2-97.7-7.5-11.5-.8-29.8-2.2-40.5-3s-26-1.9-34-2.5c-8-.5-26-1.9-40-3-30.5-2.4-32.9-2.4-35.7-.5m-255.2 19.3c-2.5 4.7-.2 7.2 6.6 7.2 4.5 0 10.7-2.8 11.1-5.1.2-1.3-.9-1.7-6-2.2-3.5-.3-7.3-.9-8.5-1.2-1.5-.5-2.4-.1-3.2 1.3m11.9 1.1 5.5.7-3.5 2.2c-6.9 4.3-17.7 1.3-12.8-3.6.7-.7 2.1-.9 3.3-.6 1.1.4 4.5 1 7.5 1.3m-9.9 19.1c-8.1 2.2-17.2 7.1-36.2 19.5-14.3 9.5-18.9 13.1-18.9 15 0 .8 2.9 2.3 6.8 3.5 38.9 12.8 68.8 24.6 84.5 33.3 9.8 5.5 21.4 14.5 28.7 22.3 9 9.6 37.3 46.4 49.9 64.7 24.3 35.7 47.5 74.8 53.2 90.1 2.8 7.6 10.6 15.9 16.4 17.5 7.2 2 16 1.4 23.3-1.6 17-6.7 78.8-38.9 95.8-49.9 12.1-7.7 18.4-14.9 18.4-20.9 0-3.1-5.4-7.3-10.3-8-4.7-.7-12.8 1.2-17.3 4.2-1.8 1.1-2.3 1.1-3.9-.7-2.3-2.6-1.2-4 6.3-7.3 9.7-4.3 17.3-4.1 23.6.8 5.7 4.3 7.6 4.5 7.6.7 0-5-3-12-6.6-15.1-4.6-4.1-10.2-5.4-20.4-4.8-11.7.7-19.1 3.3-36 12.7-23.4 13-52.1 27-55.4 27-1.9 0-3.3-1.9-3.9-5.5-.5-3.4-21.6-50.5-39.4-88.5-33.7-71.4-40.1-81.5-58.1-90.8-13.3-6.9-36.9-13.9-53.7-15.7-3.3-.4-13-1.5-21.5-2.6-19-2.3-23.5-2.3-32.9.1m34.3 1c37.4 4.5 51.5 7.8 69.4 16.6 15.8 7.7 21 13.1 32 33 12.1 22 49.7 101.1 58.2 122.4 1 2.5 3.9 8.9 6.4 14.4 2.5 5.4 4.6 10.9 4.6 12.2 0 1.6.8 2.8 2.5 3.6 2.2 1 3.8.7 10.8-2.2 11-4.4 25.8-11.9 45.6-22.9 21.7-12.2 25.6-13.5 39.8-13.5 10.9-.1 11.2 0 15 3 4.3 3.4 8.3 10.4 8.3 14.6 0 1.5-.3 2.8-.6 2.8s-2.2-1.3-4.2-3c-6.8-5.4-16.7-5.7-27.8-.6-6.8 3.1-8.2 7-3.6 9.5 1.2.7 3.3.2 7.2-1.6 3-1.4 7.1-2.8 9-3 4.5-.6 10.3 1.8 12.5 5.1 2.2 3.4.9 6.9-4.7 12.7-7.8 8.1-37.7 25.1-84.4 48.1-26 12.8-27.1 13.3-34.2 13.7-9.7.4-14.8-1.5-20.6-8-2.4-2.7-5.2-7-6.2-9.6-6.7-17.2-29.1-55.2-53.5-91-13.3-19.4-41.3-55.6-50.6-65.3-17.6-18.6-38.5-29.3-92.3-47.8-29.8-10.2-27.3-9.1-25.8-10.9 1.9-2.3 18.1-13.4 31.2-21.3 22.6-13.8 26.4-14.5 56-11"/><path d="M644 629.9c0 .7 2.2 3.4 4.9 6.1 2.7 2.6 7 8.3 9.6 12.4 2.7 4.2 5.3 7.6 5.9 7.6 2.8.1 29.6-9.6 29.6-10.6 0-1.7-6.1-6.6-11.4-9.3-8.4-4.1-38.6-9-38.6-6.2m23.5 2.7c9.1 1.8 16.9 5.3 22.3 9.9l3.6 3.2-14.3 4.8c-7.8 2.6-14.4 4.5-14.6 4.3s-2.6-3.8-5.4-8.1-7.3-9.9-9.9-12.4l-4.7-4.6 7.5.7c4.1.4 11.1 1.4 15.5 2.2m103.1 26c-.4 17-.3 26.1.4 26.9.6.7 3.4 1.5 6.3 1.8 10.5 1.2 81 10.5 111.7 14.7 4.1.6 14.3 1.9 22.5 3 8.3 1.1 21.5 2.8 29.5 3.9 17.5 2.4 59.4 7.8 70.5 9.2 4.4.5 9.1 1.1 10.5 1.4 1.8.4 2.1.3 1-.4-.8-.5-4.2-1.2-7.5-1.5-7-.8-25.6-3.2-62.5-8.1-14.6-2-33.2-4.4-41.5-5.5-8.2-1.1-18.4-2.4-22.5-3-16.8-2.3-68.8-9.2-87-11.6-10.7-1.4-22-2.8-25-3.2l-5.5-.7.4-25.5c.2-14 .5-25.7.7-25.9.4-.4 34.1 2.4 76.4 6.4 19.5 1.9 45.2 4.3 57.1 5.5 11.9 1.1 40.5 3.8 63.5 6.1 23.1 2.2 44.8 4.2 48.4 4.4l6.5.4-6.5-.9c-3.6-.5-23.1-2.5-43.5-4.5-20.3-1.9-48.9-4.7-63.5-6.1-14.6-1.3-40.2-3.8-57-5.4-30.8-3-76.7-7-80.6-7-2 0-2.1.5-2.8 25.6M333 647.1c-5.8.4-13.6 1.3-17.5 2-4.9.9-14.7 1.2-32.5 1.1-31.2-.3-40 .3-40 2.6 0 1 2.5 5.4 5.5 9.9 19.6 28.9 50.2 52.3 85 65.1 17.5 6.5 56.6 16.9 103.5 27.5 10.7 2.5 27.8 6.4 38 8.7 30.7 7 44.8 12.2 55.5 20.7 2.8 2.2 11.5 10.2 19.5 17.9 19.1 18.3 26.3 24.6 46 40.1 20.3 15.9 27.4 21.1 46.5 34.3 17.7 12.1 21.4 15.4 26.7 23.7 8.5 13.3 14.9 16.1 45.6 19.3 17.4 1.9 33.4 4.1 68.5 9.7 14.6 2.3 21 .5 22.3-6.3 1.5-7.8-3.3-15-11.7-17.5-5-1.5-6.6-3.3-4.9-5.4 1.8-2.1 4.3-1.9 9.8.9 10.2 5.2 13.7 10.8 12.9 20.3-.6 5.8-.5 6.3 1.4 6.3 5.3 0 14.3-8.4 15.5-14.4 2-11-4.2-17.6-19.4-20.6-7-1.4-9.2-3.1-7.1-5.6 1.1-1.3 2.4-1.5 6.9-1 10.8 1.3 21.4 8.1 24.4 15.7.9 2.3 1.9 3.9 2.2 3.6.3-.2-.3-2.3-1.2-4.6-3.2-8-14-14.5-26.5-15.8-5.6-.6-5.9-.5-7 2.1-1.7 3.6-.1 5 7.4 6.4 19.4 3.8 25.6 16.5 13.5 27.8-3.4 3.2-6.9 5.4-8.7 5.4-.6 0-.7-2.1-.4-5.4 1-9.9-3.2-16.7-13.4-21.3-5.8-2.7-10-2.7-11.7-.1-1.5 2.5.1 4.7 4.7 6.3 10.8 3.7 15.9 13.1 10.7 19.8-2.8 3.5-8.1 4.2-19.8 2.3-35.2-5.5-51-7.7-68.5-9.6-10.9-1.1-22.6-3-26-4-7.7-2.4-13.2-6.9-18.5-15.3-5.3-8.3-9-11.6-26.7-23.7-19.1-13.2-26.2-18.4-46.5-34.3-19.7-15.5-26.9-21.8-46-40.1-17-16.3-22.4-20.8-29.9-24.6-8.3-4.1-25.3-9.3-46.1-14-49.7-11.3-59.3-13.5-83.4-19.6-41.8-10.4-54.6-14.5-74-23.8-27.7-13.4-51.7-33.8-68.2-58.2-3.2-4.6-5.4-8.7-5-9.1.4-.5 15-.8 32.4-.9 24.8-.1 34-.4 42.2-1.8 13.5-2.2 53.9-3.1 79.5-1.8 14.9.7 21.5 1.6 30.8 3.8 11.7 2.7 11.9 2.8 19.3 1.2l7.4-1.5 22.2 7.1c36.2 11.7 64 22.8 79.8 32.2 28.9 17 62.3 64 109.3 153.9 14.6 27.9 18.3 33.9 25.1 40.3 7 6.7 10.9 7.7 22.9 6.2 10.7-1.4 18.4-3.8 28.7-9 4.1-2 11.6-5.4 16.6-7.4 9.1-3.6 9.2-3.6 24.7-3.6 31.3 0 44.7 4.3 50.9 16.4 1.7 3.4 2 5.3 1.6 11.6-.3 4.2-.2 6.4.2 5 1.5-4.6 1-13.4-.9-17.5-5.3-11.7-19.9-16.4-51.2-16.5-18.1 0-21.1.8-42.7 10.8-15.1 7.1-17.1 7.8-28.4 9.3-11 1.4-14.4.4-21.5-6.3-6.7-6.4-10.4-12.4-25-40.3-11.7-22.4-20.3-37.9-31.9-58.1-25.9-45.1-54-80.7-73.4-93.3-15.5-10.1-41.5-20.7-84.8-34.6l-22.2-7.2-7.4 1.5c-7.4 1.6-7.6 1.5-19.3-1.2-9-2.2-15.9-3.1-28.8-3.7-19.3-1-51.9-.9-67.5.2m350.3 10c-10.7 3.5-15.3 5.5-15.3 6.5 0 .8 4.7 10.8 10.4 22.2s12.7 26 15.6 32.5 5.8 11.6 6.4 11.4c2.9-1 4-10.2 3.9-35.7 0-27.4-1.4-41.3-4.3-41.7-.8-.1-8.4 2-16.7 4.8m18.5 3.5c2 9.9 2.2 54.9.3 62.9l-1.4 6-2.5-5.5c-1.4-3-8.6-17.8-15.9-32.9-7.4-15-13.1-27.6-12.8-28 1-.9 28.9-10 30-9.7.6.1 1.6 3.4 2.3 7.2M87 682.5c-6.9 1.4-18.8 3.6-26.5 5.1C32.4 693 8 700.8 8 704.5c0 .7 2.1 1.7 4.8 2.3 2.6.6 10.5 2.7 17.7 4.6 39.4 10.4 87.5 23.1 97.5 25.7 14.7 3.8 48.9 13.9 64.5 18.9 12.7 4.2 30.8 9 33.8 9 2.5 0 2.1-1.8-1.1-4.5-1.6-1.3-4.4-5.2-6.3-8.7-3.1-5.8-3.4-7-3.3-14.8 0-10.1 2.2-16 9.6-25.8 2.7-3.5 4.8-6.6 4.8-7 0-1-32.3-10.9-41.5-12.7-10.5-2-26.2-4.1-41-5.5-6.6-.6-17.8-2-25-3-21.2-3.1-22.1-3.1-35.5-.5m35.5 1.5c7.2 1 18.4 2.4 25 3 29.6 2.8 43.8 5.4 65.1 12.2l16.2 5.2-4.1 5c-2.2 2.8-5.4 8-7 11.6-2.7 5.7-3.1 7.7-3.1 15.5-.1 8.3.2 9.6 3.2 15.7 1.8 3.7 4.6 7.8 6.3 9.2s2.5 2.6 1.7 2.6c-2.5 0-21.4-5.1-33.3-9-15.6-5-49.8-15.1-64.5-18.9-6.3-1.6-27.9-7.3-48-12.6s-42.3-11.2-49.5-13.1c-7.2-1.8-15-3.9-17.5-4.7l-4.5-1.3 5.5-2.6c9-4.3 26.5-9.3 44-12.7 9.1-1.7 22.1-4.3 29-5.6 13.4-2.6 14.3-2.6 35.5.5"/><path d="M253.9 695.9c-19.3 9.7-28.1 21.7-28.1 38.1 0 12.7 5.3 23.7 15.4 32.3 7.3 6.1 12.6 9 24.2 13.2 11.9 4.3 27.2 11.8 35.3 17.3 16.5 11.2 27.5 30.1 30.3 52.2 3.2 25.7 4.2 29.3 9.3 33.6 2.8 2.4 3.7 2.6 9.2 2.1 5.2-.5 6.4-1 9.2-4.1 4.9-5.3 6.7-12.8 6.7-27.6 0-13.5-1.1-20-5.4-32.7-5-14.5-10.6-23.9-19.5-32.9-12.5-12.7-22.9-18.8-45.4-26.6-13.1-4.5-15.9-5.8-22.2-10.4-5.2-3.8-9.9-11.6-9.9-16.5 0-5.4 5.1-13 12.4-18.8 3.9-3 6.6-5.9 6.6-7 0-2.4-16.9-15.1-20.1-15.1-1.3 0-4.9 1.3-8 2.9m18.2 4.8c4.9 3.6 8.9 7 8.9 7.4 0 .5-3.1 3.3-6.9 6.3-12 9.6-14.9 19.4-8.8 29.9 3.7 6.3 11.4 11.1 25.8 16.2 24.5 8.6 35.7 15 48.4 27.9 14.3 14.5 23.5 36 25.1 59.1 1.5 21.6-4.2 35.2-15.3 36.2-5.7.6-9.2-1.6-12.3-7.8-1.9-3.6-2.4-6.3-5-26.9-2.2-17.5-9.4-33.5-19.8-44.3-8.8-9.1-25.1-18.6-42.8-24.7-27.8-9.8-42.6-25.7-42.6-45.9 0-16.3 7.5-25.6 31.2-39.1 3.1-1.8 5.5-.8 14.1 5.7m498.5-2.5c-.3 2.9-.6 20.7-.6 39.6v34.3l-7.6 3.6-7.7 3.6.7 7.1c.4 3.9 1.1 7.5 1.6 8 1.2 1.2 4.6-.3 21.5-9.9 25.4-14.5 36.3-18.1 50.6-17.2 11.1.7 17.4 4.4 23.5 13.7 2.6 3.8 2.9 5.2 2.9 11.9 0 6.5-.5 8.4-3.2 13.7-7.2 13.8-16.2 20.7-53.6 41.4-12.5 6.9-22.7 13.1-22.7 13.7 0 .9 1.6 1.3 4.8 1.3 9.9.1 33.2 1.9 37.4 3 11.3 2.9 19.8 8.9 24.3 17.1 2.6 4.7 3 6.4 3 13.4 0 10.4-3.3 17.3-12.5 26.5-14.6 14.4-27.9 16.5-75.5 11.5-13.2-1.4-40.9-4.1-61.5-6-59.8-5.6-109-11.4-150-17.6-20.5-3.1-24-3.3-28.5-1.6-2.2.8-13.2 5.6-24.5 10.7-11.3 5-27 12-35 15.5s-20.6 9.1-28 12.5-20 9-28 12.5c-24.3 10.6-48.2 21.1-55 24.3-3.6 1.7-9 4-12 5.2-5.4 2.1-25.7 11-35.5 15.5-2.7 1.3-11.1 5-18.5 8.3-18.6 8.2-19 8.4-19 9.4 0 .4 2.1-.2 4.8-1.6 5-2.5 66-29.6 66.7-29.6.3 0 2.8-1.1 5.7-2.4s17.2-7.7 31.8-14.1c14.6-6.5 28.9-12.8 31.8-14.1s5.4-2.4 5.7-2.4c.2 0 3.2-1.3 6.7-2.9 18.1-8.2 29.7-13.4 66.3-29.6 45.5-20.2 38.2-18.6 64.5-14.6 41 6.2 90.2 12 150 17.6 20.6 1.9 48.3 4.6 61.5 6 46.2 4.8 61.4 2.7 75.7-10.4 4.1-3.8 6.9-7.5 9.5-12.9 3.5-6.9 3.8-8.3 3.8-15.6-.1-10.1-3.4-17.7-9.9-23.1-8.5-6.9-16.9-9.2-39.1-10.5-9.3-.6-17.7-1.2-18.7-1.3-.9-.1 8.5-5.8 21-12.7 38-21 47.1-28.2 53.6-42 2.6-5.6 3.1-7.7 3.1-14.6 0-7.7-.2-8.5-3.5-13.3-6.7-9.9-16.5-13.9-31.2-12.8-13.3 1.1-21.3 4.4-52.3 21.6-6 3.3-11.3 5.7-11.7 5.3s-1.1-3.5-1.4-6.9l-.7-6.1 7.6-3.5 7.6-3.5.3-39c.2-21.5.6-39.4 1.1-39.8.8-.8 5.1-.3 55.7 6.7 25.7 3.5 110.3 14.9 170.4 22.9 12.6 1.7 23.6 3 24.5 2.8.8-.2-6.3-1.4-15.9-2.6-75.2-10-151.9-20.3-154-20.7-4.8-.9-76.9-10.5-79.3-10.5-2.2 0-2.5.5-3.1 5.2"/><path d="M.1 709.4c.4.4 9.8 3.1 21 6.2 72 19.5 92.5 25.3 149.4 42.4 55.4 16.6 70.7 21.5 77.1 24.6 5.2 2.5 16.5 11.1 17.1 12.9.2.6-1.6 1.5-3.9 2.1-2.4.6-13.7 4.1-25.3 7.7-19.4 6-36.7 11-76.5 22.3-8.5 2.5-20.7 6-27 7.9-6.3 1.8-17.6 5.2-25 7.4-43.8 13-65.1 19.4-70 21-3 1-12.6 4-21.3 6.6-8.6 2.7-15.5 5-15.3 5.3.4.4 13-3.4 34.6-10.3 6.9-2.2 38-11.5 72-21.6 7.4-2.2 18.7-5.6 25-7.4 6.3-1.9 19.4-5.7 29-8.4 52.3-14.9 77.9-22.5 91.6-27.1 4.9-1.6 9.9-3 11.1-3 5.3 0 3.1-4-5.7-10.5-9.7-7.1-12.3-8-87.5-30.5-57.3-17.2-68.5-20.4-132-37.6-19.2-5.2-35.9-9.8-37-10.1s-1.7-.3-1.4.1M271.5 729c-1.4 1.6-1.6 2.9-1.1 6.7 1 7.6 3.7 9.5 21.7 15.7 12.4 4.3 31.6 13.8 40.8 20.2l6.4 4.5 9.1-2.5c14.1-4 52.9-13.6 54.9-13.6.9 0 1.7-.6 1.7-1.3 0-1.4-15.5-6.9-30.5-10.7-24.4-6.3-94.1-21-99.4-21-1 0-2.6.9-3.6 2m19.2 1.5c12.6 2.4 58.4 12.3 74.3 16.1 12.3 3 24.5 6.5 31.9 9.1l7.4 2.7-28.4 7.1c-15.6 4-30.1 7.7-32.2 8.3-3.6 1-4.1.9-10.2-3.4-8.5-6-27.6-15.3-39.5-19.4-11.2-3.9-17.8-7-20.3-9.8-2.7-3-3.4-8.8-1.2-11.2 2.3-2.5 1.6-2.5 18.2.5m89.6 42.2c-18.9 4.7-34.3 9-34.3 9.5s2.3 3.7 5.1 7.1c6.5 8 15.2 25.6 18.4 37.7 1.5 5.4 2.9 13.7 3.2 19.2.7 11.4.5 11.3 10.5 7.4 3.5-1.4 10.4-3.9 15.3-5.7 5-1.8 12.9-4.7 17.7-6.6 4.9-1.8 9.4-3.3 10.1-3.3s1.7-.4 2.3-.9c.5-.5 8.3-3.4 17.4-6.5 28.5-9.7 34-11.8 34-13.4 0-.4-3-2.8-6.7-5.2-4.2-2.7-14.2-11.8-25.8-23.5-18.4-18.5-23.4-22.4-30.5-23.9-1.5-.3-16.5 3-36.7 8.1m41.5-5c4.5 2.2 9.8 6.9 25.2 22.3 11.5 11.4 21.9 20.9 25.2 23 3.1 1.9 5.7 3.8 5.8 4.2 0 .8-12.3 5.7-27.5 10.8-6 2-25.2 9-42.6 15.4S375.8 855 375.3 855c-.6 0-1.3-3.9-1.5-8.8-1.1-18.6-10.9-44.7-21.8-57.9-4.8-6-5-6.3-2.8-6.8 1.3-.3 16.5-4.1 33.8-8.5s31.9-7.9 32.3-8c.5 0 3.4 1.2 6.5 2.7M283 800.5c0 .9.6 2.8 1.4 4.3 3.9 7.7 5.7 41 3.2 60.1-1.5 11.4-1.4 18.5.3 19.6 1.1.6 19.2-5.3 20.7-6.8 1.4-1.4-1-31-3.5-44.4-1.5-7.5-7.6-22.7-11.2-27.7-4.1-5.8-10.9-8.9-10.9-5.1m6.9 2.6c4 4 7.3 9.7 10.6 18.4 3.2 8.5 4.1 13.2 6 30 1.8 16.9 2.1 24.3.9 25.4-.5.4-4.9 2.2-9.7 4l-8.8 3.1-1-2.8c-.8-2-.6-6.1.5-15.2 3-23.2 1.2-52.4-3.9-64.3-1.2-2.8 2-2.1 5.4 1.4m-22.9.9c-1.4 1.1-8.3 3.5-15.5 5.4-7.1 1.8-31.2 8.7-53.5 15.1-22.3 6.5-49.5 14.3-60.5 17.5s-25.2 7.3-31.5 9.2C41.3 870.7 11.3 879.9.5 883.5c-.6.2-.3.4.5.4.8.1 7.8-1.9 15.5-4.4 12-3.8 33.1-10.3 89.5-27.3 6.3-1.9 20.5-6 31.5-9.2s38.2-11 60.5-17.5c22.3-6.4 45.5-13 51.5-14.6 14.9-3.9 17.7-4.9 19.8-6.8 1.7-1.5 2-1.4 3.4.4 2.6 3.4 5.1 9.6 7.4 18.5 3.1 12 3.1 30.6-.1 44-3.2 13.5-5.6 19.3-8.8 21.7-3.4 2.5-11.8 6.8-15.2 7.8-1.4.4-11.7 4-23 8-28.6 10.3-34.1 12.2-45.5 16-9.7 3.2-46.4 16.5-51.5 18.7-3.1 1.3-23 8.5-28.5 10.3-2.2.7-9.2 3.2-15.5 5.5-11.3 4.1-22.3 7.9-41 14.5-5.2 1.8-12.6 4.5-16.5 6-3.8 1.4-12.6 4.7-19.5 7.2s-13.2 4.9-14 5.4c-2.2 1.4 3.9-.1 7-1.6 1.4-.7 4.1-1.7 6-2.3s10.5-3.7 19-7c8.5-3.2 18-6.7 21-7.6 3-1 7.1-2.3 9-3.1 1.9-.7 8.7-3.2 15-5.5 6.3-2.2 15.8-5.6 21-7.5 5.2-1.8 13.6-4.8 18.5-6.5 5-1.8 14.9-5.4 22-8 7.2-2.7 14.8-5.5 17-6.3s8.5-3.1 14-5.1 13.8-5 18.5-6.6c12.2-4.1 33.3-11.5 41.5-14.5 3.9-1.5 12.9-4.7 20-7.2 20.9-7.3 23.6-9.1 26.5-17.7 3-9.2 5.8-22.2 6.5-30.6 1.5-18.2-6.3-49.1-12.3-48.9-.9 0-2.8.9-4.2 1.9m205.5 27.2c-1.6.5-6.6 2.3-11 3.8-4.4 1.6-17.7 6.3-29.5 10.5s-23.7 8.5-26.5 9.6c-2.7 1.1-11.2 4.1-18.9 6.7l-13.9 4.7-1.8 6.2c-3.9 12.5-12.1 19.3-23.4 19.3h-6.2l-.6 6c-.4 3.3-1.4 7.4-2.2 9.1-2.1 3.9-7.1 6.9-11.7 6.9-7.1 0-11.2-3.1-24.5-18.8l-2.8-3.3-6.8 1.6c-5.5 1.4-7.5 1.5-11.3.6-4.5-1.2-4.5-1.1-9.2 3-6.8 5.9-13.2 8.9-39.4 18-12.8 4.4-27.1 9.6-31.8 11.4s-11.4 4.2-15 5.4c-3.6 1.1-13.9 4.8-23 8.1-9.1 3.4-22.6 8.3-30 11-7.4 2.6-17.3 6.2-22 8s-13.9 5.1-20.5 7.5c-10.8 3.8-22.7 8.2-37 13.5-2.7 1.1-9.5 3.6-15 5.6s-14 5.2-19 7.2c-4.9 1.9-11.5 4.3-14.5 5.3s-4.7 1.8-3.8 1.8c.9.1 12.6-4 26-9 72.1-26.8 185.2-67.8 218.9-79.4 15.3-5.2 21-8.1 26.9-13.3 4.5-3.9 4.7-4 9-3 3.5.8 5.8.6 10.5-.6l6-1.6 2.8 3.3c11.1 12.8 13.3 14.9 17.2 16.7 7.6 3.5 16.5 1.9 20-3.4 1-1.5 2.2-5.8 2.8-9.6l1.1-7h5c12.1 0 19.7-5.7 23.8-18.1l2.5-7.4 9.4-3.3c5.2-1.9 20.4-7.4 33.9-12.2 39.8-14.4 58.9-21 60.9-21 2.3 0 6.9 6.6 12.1 17.5 4.6 9.8 12.4 33.5 11.2 34.7-.4.4-3.5 1.9-6.7 3.2-3.3 1.3-17.2 7-31 12.6-13.7 5.6-28.4 11.5-32.5 13.2-4.1 1.6-14.2 5.8-22.5 9.3-8.2 3.5-19.5 8.1-25 10.3s-14.9 6.1-21 8.7c-23.8 10-72 29.9-125.5 51.9-15.7 6.4-29.4 12.1-30.5 12.7-1.1.5-10.8 4.5-21.5 8.8s-19.6 8.4-19.8 9c-.3.9.1 1 1.4.2 3-1.6 13-6.1 13.8-6.1.3 0 2.5-.9 4.9-1.9 2.3-1.1 7.4-3.2 11.2-4.6 3.9-1.5 9-3.6 11.5-4.7 2.5-1.2 5.5-2.5 6.8-2.9 3.5-1.4 21.1-8.6 28.2-11.6 1.9-.8 4.4-1.9 5.5-2.3s6.3-2.6 11.7-4.9c5.3-2.2 9.9-4.1 10.3-4.1.3 0 3-1.1 5.8-2.4 6.5-2.9 27.5-11.6 28.1-11.6.3 0 3.5-1.4 7.1-3 3.6-1.7 6.8-3 7.1-3 .6 0 2.7-.9 10.9-4.5 1.7-.7 9.8-4.1 18-7.5 8.3-3.4 20.6-8.6 27.5-11.5s15.2-6.3 18.5-7.5c3.3-1.3 6.5-2.6 7-3 .6-.4 1.9-1 3-1.3s5.4-2 9.5-3.7c10.1-4.3 30.4-12.7 36-14.9 22.5-8.9 52.7-21.4 53.4-22.1 1.3-1.3-8.8-31.7-13.5-40.6-7.2-13.7-8.7-14.8-16.4-12.2"/></g></svg>