<svg xmlns="http://www.w3.org/2000/svg" width="1365.333" height="1365.333" preserveAspectRatio="xMidYMid meet" version="1.0" viewBox="0 0 1024 1024"><g fill="#000" stroke="none"><path d="M372.2 109.7c-.1 60.4-.6 110.1-1.1 110.6-1 1-3.4-2.6-8.6-12.8-5.8-11.3-18.7-29.6-27.5-38.9-15.2-16-37.3-29.3-56.5-34-24.2-5.8-110-10-227.5-11l-51.5-.4 46 .8c114.6 2.1 187.8 5 215 8.6 20.6 2.7 29.6 5.5 42.5 13.3 13.3 7.9 23.3 15.7 31 23.7 8.8 9.3 21.6 27.4 27.8 39.4 8.1 15.7 8.1 15.7 12.1 15.7 2 0 2.6-.2 1.4-.4-1.3-.2-2.3-1-2.3-1.6-.1-.7-.1-7.7 0-15.7.5-111.6.5-203 .1-204.8-.3-1.3-.7 47.1-.9 107.5M372 223c0 .5-.2 1-.4 1-.3 0-.8-.5-1.1-1-.3-.6-.1-1 .4-1 .6 0 1.1.4 1.1 1m6.9-124.4c0 54.4-.1 109.5-.2 122.4l-.2 23.5 4.7 9.6c2.5 5.3 5.1 11.2 5.6 13 1 3.5 6.6 19.1 14.2 39.9 2.4 6.3 5.1 14.6 6.2 18.5 1.8 6.4 2.4 8.9 4.8 19.5.4 2 .8 2.7.9 1.5.2-1.8.3-1.8 1.2.4.5 1.3 1.1 2.2 1.2 2 .2-.2 0-4.9-.3-10.4s-.5-78.8-.4-162.9c0-84.1-.2-158.1-.5-164.5s-.6 65.9-.5 160.6c0 94.8-.2 172.1-.4 171.8-.4-.4-1.6-4.9-4.3-16-1-4.1-15.1-44.6-17.4-50-.7-1.7-2.1-5.5-3-8.5-1.7-5.4-2.9-8.4-8.7-20.7l-2.8-6.2.5-23.3c.6-30.3.6-218 0-218.7-.3-.2-.5 44.1-.6 98.5m41.3-91.4c-.2 6.7.1 8.1 1.9 9.9 1.3 1.3 2.7 1.8 3.7 1.4 3.3-1.4 17.2-1.8 17.2-.6 0 .7.5.9 1.3.4.6-.4 8.9-.9 18.2-1 9.4-.1 22.2-.3 28.5-.5 11.5-.3 14.9.3 18.4 3.1 1.6 1.4 1.8 1.4 1.4.1-1-3.3-6.3-4.5-18.5-4.3-6.5.1-14.6.5-18 .9-3.4.3-7 .3-8-.1-1-.5-2.2-.7-2.8-.5-3.2.8-40.8.4-41.5-.5-.5-.6-1.1-4.4-1.3-8.5l-.3-7.5zM1001.7.7c-.3.5-.3 2.1-.1 3.8.8 5.4.4 16.7-.7 18.6-.8 1.6-2.3 1.9-10.7 2.1-16.8.3-24.7 1.2-25.7 2.9-.4.5-1.8 1-3.3 1q-2.7.15-.9.6c1 .3 3.7-.3 5.9-1.2 2.7-1.1 8.4-1.7 17.2-2.1 7.2-.2 14.3-.7 15.8-.9s2.8.1 3.1.8c.2.7.4-.2.4-1.8 0-1.7.1-7.1.1-12 .1-12.5 0-13.7-1.1-11.8m4.7 105.3c1.5 272.4 2.3 350.8 3.7 398.5.9 30.6.9 39.4-.5 58.5-.8 12.4-2.1 24.2-2.7 26.2-1 3-1 4.3.1 6.5 1 2.1 1.5 13.9 2.2 48.8.4 25.3 1.2 60.6 1.6 78.5s.5 34.1.2 36l-.6 3.5-14.6-.3c-14.4-.3-14.5-.3-15.2 2-.8 3.2-.7 10.1.2 11.4.4.7 5.3 1.2 13.2 1.3 6.9.1 16.6.3 21.5.5 5.2.2 7.3.1 5-.3-2.2-.4-10.5-.8-18.5-1s-15.8-.4-17.5-.5c-2.7-.1-3-.4-3.3-4-.2-2.2-.1-5 .3-6.3l.6-2.3 14.7.2 14.7.3.5-4c.3-2.2.2-18.6-.2-36.5s-1.2-53.4-1.6-79c-.6-34.5-1.2-47.2-2.2-49.2-1-2.1-1-3.4-.1-6 .7-1.8 1.9-13.4 2.8-25.8 1.3-19 1.3-28.1.4-58.5-1.4-47.9-2.1-121.7-3.7-398.5-.3-58-.8-105.7-1.1-106s-.2 47.4.1 106M722.2 9.1c.5 1.3-.9 1.5-10.7 1.5-6.2-.1-10.9.2-10.3.5 1.6 1-.9 2.1-3.1 1.4-1.6-.5-2.4.5-4.5 5-2.8 5.9-3.3 6.1-11.6 5.4-1.9-.1-4.4-.2-5.5-.1-17.9 1.1-21 .9-23.8-1.4-3-2.5-9.7-3.4-9.7-1.3 0 .8-1.5.9-5.2.3-8.3-1.2-27.9-1-31.8.4-1.9.7-4.7 2.3-6.3 3.5l-2.7 2.3v85.9c0 47.2.1 86 .3 86.1.3.3 35.1 2.3 35.3 2.1.1-.1.5-37.8.7-83.7.4-52 .9-84.5 1.6-86.1 1-2.7 5.9-6.9 8-6.9.7 0 1.1-.8.9-1.8-.5-2.8 4.4-2.7 7.8.1 2.7 2.3 3.5 2.4 12.9 2.1 5.5-.2 10.7-.4 11.5-.5.8 0 4.5 0 8.2.1 7.7.2 8.3 0 9.3-3.7.9-3.6 4.1-7.7 5-6.3.5.8 1.5.6 3.1-.5 1.8-1.2 5.3-1.7 12.4-1.9 5.5-.1 10.1-.4 10.4-.7.2-.2-.3-1.1-1.2-1.9-1.4-1.3-1.5-1.3-1 .1m-83.9 12.5 4.8.6-3.3 1.8c-1.8.9-4.1 3.1-5.1 4.8-1.7 2.9-1.9 8.3-2.4 86.9-.2 46.1-.6 83.9-.6 84-.3.2-33.2-1.8-33.4-2.1-.2-.2-.4-130.4-.3-166.7 0-3.1.6-4 4-6.4 2.3-1.6 5.8-3.2 7.8-3.6 3.9-.8 20.4-.4 28.5.7"/><path d="M811 9.1c0 .4-1.2 1-2.7 1.4-4.2 1-7.3 3.3-7.3 5.4 0 1-.9 3-2.1 4.5l-2 2.6-2.7-1.9c-1.5-1.1-4.2-2.2-5.9-2.6-2.9-.6-3.4-.3-4.2 1.8-.5 1.3-2.1 2.7-3.4 3.1-4 1-24.9.5-27-.6-1.3-.7-2.3-.6-3.1.2s-1 24.2-.7 89.7l.3 88.5-25.8-.5-25.9-.6-.2-85.8c-.1-47.1.1-87.9.4-90.5.9-7.7 1.8-7.9 30.1-7.8 25.7.1 30.2.7 36.4 4.6 3.7 2.4 4.7 2.5 10.4 1.9 6.1-.6 6.2-.7 4.6-2.6-.9-1-2.9-1.9-4.4-1.9s-3-.4-3.3-1c-.9-1.5-9.3-4.9-12.3-5-1.5 0-6.5-.3-11-.7-4.6-.5-8.6-.5-8.8-.2-.2.4-2.5.4-5.1.1-2.7-.2-4.5-.1-4.1.3.8.9 9.8 1.5 9.8.6 0-.3 3.4-.5 7.5-.3s7.3.7 7 1.1c-.2.5 1.1.7 3.1.5 3.4-.2 11.7 2.7 12.9 4.6.3.6 2.3 1 4.3 1 4.5 0 3.1 1.8-2.1 2.7-2.9.4-4.5 0-7.5-2-4-2.6-11.2-5.1-11.2-3.9 0 .4-.4.1-.9-.7-.5-.7-1.4-1-2-.7-.6.4-11.4.7-23.9.6-28.5-.1-29.6.2-30.5 8.5-.9 8.6-.9 177.5 0 177.5.4 0 12.7.3 27.2.6l26.3.7-.3-88.4c-.2-48.6 0-89 .4-89.7q.9-1.35 2.1-.3c1.3 1.1 22.2 1.4 27.4.5 2.3-.5 3.6-1.4 4.2-3 .5-1.3 1.2-2.4 1.5-2.4 1.5 0 7.5 3 7.5 3.8 0 1.4 3.3 1.1 5.2-.5.9-.8 1.9-2.6 2.3-4.1.8-3.3 2.4-5.4 3.6-4.6.5.3.9 0 .9-.6s.4-.9.9-.6c.5.4 1.1.1 1.3-.4.5-1.6 10.4-2.3 21.2-1.5 8.3.6 9.7.9 9.4 2.3-.3 1.2-1.1 1.6-2.8 1.2-3.9-.8-24.2-.6-27.3.3-1.6.4-3.1 1.7-3.5 3-.4 1.2-.6 43.3-.4 93.4l.2 91.3h23v-5.3c.4-166.7.5-172.2 2.2-175.2l1.6-3.1 22.1-.1c15.3-.2 24.3.2 29.3 1.2 4 .7 7.6 1.1 8 .9s1.1.4 1.7 1.3c1 1.7 1 1.7 1.1 0 0-.9-.3-1.7-.7-1.8-2.9-.2-7.7-1-12.8-1.9-3.6-.7-12.7-1-23-.7-16.4.4-23-.1-19.2-1.6.9-.3 1.7-1.3 1.7-2.2 0-.8.7-1.5 1.5-1.5s1.5.5 1.5 1.1c0 .5.5.7 1 .4 1.8-1.1.1-2.3-4.1-3-6.1-1.1-28.9-2.1-28.9-1.4m21.9 5.5c3.7.8 4.1 2.4.6 2.4-1.7 0-3 .9-4.2 3.2-1.8 3.4-1.9 12.2-2.3 176v4.8h-21l-.2-90.8c-.2-70.3 0-91.2.9-92.9.8-1.3 2.5-2.3 4.5-2.6 5.6-.7 18.4-.7 21.7-.1m-209.6-1.1c-1.2 1.4-14.7 3-16.3 2-.6-.4-1.6-.2-2.3.3-.7.6-2.7 1.4-4.6 1.9s-3.9 1.8-4.5 2.8c-.6 1.1-1.7 2.4-2.3 2.8-.7.4-1.3 1.4-1.3 2.2 0 2.5-1.8 2.6-5.6 0-4.2-2.8-1.1-2.7-52.9-2.8-26-.1-29.3.1-31.7 1.7-5.7 3.7-5.5 1.5-6.2 85.1-.3 42.3-.6 79.4-.6 82.3v5.3l-10-.3-10-.3-.4-86.7-.3-86.8 3.6-1c4.4-1.1 25.8-1.5 28.6-.5 1.6.6 1.8.5.8-.5-1.4-1.6-23.5-1.5-29.9.1l-4.1 1.1.3 87.6.3 87.7 11.1.3 11 .3v-6.3c0-3.5.3-40.5.6-82.3.7-82.5.5-80.3 6.2-84.2 2.5-1.6 5.6-1.8 41.1-1.6l38.4.2 3.7 3c3.7 3 7 2.8 7-.4 0-.8.4-1.5.9-1.5.6 0 1.6-1.2 2.3-2.7.8-1.8 2.5-3.1 4.8-3.7 1.9-.5 3.8-1.4 4.1-1.9.4-.5 1.2-.6 1.8-.2.7.3 6.1.1 12.2-.6 9.8-1 11.1-1 12.8.5.9.9 2.9 1.6 4.2 1.6 1.4 0 3.1.6 3.8 1.2 1.1 1.1 1.3 1 .9-.2-.3-.8-2.2-1.8-4.3-2.1-2.2-.4-4.1-1.2-4.3-1.8s-1.9-1.1-3.7-1.1-3.5-.4-3.7-.9c-.1-.5-.8-.3-1.5.4m298.3.4c-.4.5-.2 1.2.4 1.6.5.3 1 .1 1-.5s.5-.8 1-.5c3.3 2-1.5 4.1-5.4 2.4-1.7-.8-3-.9-3.8-.2-.7.6-3.3 1.1-5.7 1.2-2.4 0-5.7.8-7.4 1.6s-3.9 1.5-4.9 1.5c-1.1 0-1.7.4-1.4.9.7 1.1 4.3.3 7.2-1.6 1.1-.7 4-1.4 6.5-1.4 2.4-.1 5.3-.6 6.3-1.2 1.4-.7 2.2-.6 3 .5s1.8 1.3 3.3.7c1.2-.4 4.8-.4 8 .1 3.2.6 5.9 1 6 1s0 1.3-.3 2.9c-.6 2.8-.4 3 2.5 2.9 1.7-.1 4 .7 5.1 1.7 1.3 1.2 2 1.4 2 .6 0-.7-1.3-1.8-3-2.4-1.6-.6-3-1.5-3-1.9s.7-.5 1.5-.2c.8.4 1.5.1 1.5-.6 0-.6-.4-.8-1-.5-.5.3-1 .2-1-.4 0-.5.6-1.2 1.3-1.4.7-.3.5-.6-.5-.6-1-.1-1.8.3-1.8.9 0 1.7-1.8 1.1-2.2-.7-.2-1-1-1.8-1.8-1.9s-3.2-.2-5.2-.2c-3-.2-3.7-.6-4-2.4-.3-2.4-3.2-3.6-4.2-1.9M938 24c0 .5-.4 1-1 1-.5 0-1-.5-1-1 0-.6.5-1 1-1 .6 0 1 .4 1 1m-497.2-4.4c-.2.1-4.5.4-9.6.5-6 .2-9.6.7-10.3 1.5-1.1 1.3-1 173.7.1 175.4.3.4 11.7 1 25.3 1.2l24.8.3-.6-77c-.3-42.4-.9-82.4-1.3-89l-.7-12-12-.2c-6.6-.2-12.8-.5-13.7-.7s-1.8-.2-2 0m15.2 1.7 11.5.2.7 12c.4 6.6 1 46.2 1.3 88l.6 76-20.3-.3c-11.2-.1-22.1-.4-24.3-.5l-3.9-.2-.4-85.4c-.2-47-.1-86.4.2-87.5.5-2 1.3-2.2 9.7-2.4 5.1-.1 9.4-.4 9.6-.6s1.2-.2 2.1 0 6.9.5 13.2.7"/><path d="M831.5 24.2c-.3 1.8-.5 6-.3 9.3l.3 6 19.7.3 19.7.2.5-3.2c.3-1.8.7-5.3.8-7.8.3-3.8.7-4.5 2.8-5.1s2.2-.7.5-.9c-1.2-.2-.6-.5 1.5-1 1.9-.4-7.4-.8-20.7-.9l-24.2-.1zm40.7-1c-.7.7-1.2 3.9-1.2 7.2 0 3.4-.4 6.7-.8 7.4-.7.9-5.2 1.2-19.3 1l-18.4-.3-.3-6c-.4-11.4-2.2-10.5 21-10.5 15.7 0 19.9.3 19 1.2m31.5-1c-.9.6-1.3 20-1.5 87.5-.1 47.7 0 88.3.3 90.1l.6 3.3 13.7-.3 13.7-.3.2-85.8c.2-53.1.6-86.5 1.2-87.6.6-1 .7-3.1.2-4.7l-.8-2.9h-13.1c-7.3-.1-13.8.2-14.5.7m27.2 2c.4 1.3.4 3.4-.1 4.8-.4 1.4-.9 40.8-1.1 87.5l-.2 85-12.4.3c-9.3.2-12.6-.1-13.2-1-1.2-1.8-1.1-174.5 0-176.6.8-1.5 2.9-1.8 13.5-2 12.4-.3 12.6-.3 13.5 2"/><path d="M885.5 24.7c-4.3.2-8.5.9-9.2 1.5-1 .8-1.3 17.5-1.2 86.2.1 46.8.4 86.2.8 87.6.7 2.5.8 2.5 11.6 2.5h11l.1-88c.1-57.3-.2-88.4-.8-89.3-.6-.6-1.8-1.1-2.7-1s-5.2.4-9.6.5m11.3 1.5c.6.9.9 31.8.8 88.3l-.1 87-10.1.3-10.1.3-.7-3.2c-.3-1.7-.6-40.8-.6-86.9 0-67.3.3-84 1.3-84.8.7-.6 4.6-1.3 8.7-1.5 4.1-.1 8-.4 8.6-.5s1.6.4 2.2 1m-391.7 1c-1.4.7-2.8 2.6-3.2 4.1-1.3 4.7-2 15.1-1.2 16.4 1 1.4 23.1 2.6 28.1 1.5 1.9-.4-2.8-.8-11.4-.8-8.8-.1-15-.6-15.7-1.3s-.7-3.3.1-8.8c1.5-11.1 2-11.4 18.6-11.1l13.1.3.3 8c.2 4.4 0 9.9-.3 12.2l-.6 4.3h-31.7l-.6 5.2c-.5 4.2-1.2 135.6-.7 140.6.1 1 3.9 1.2 17.4 1l17.2-.3v-172l-13.5-.3c-9.3-.1-14.3.2-15.9 1m28.7 98-.3 72.3h-33l.3-68c.1-37.4.5-69.9.8-72.3l.6-4.2H534zM550.3 27c-6.2.4-7.7.9-10 3.2l-2.7 2.7.3 16.8c.2 9.2.4 46.7.5 83.2l.1 66.5 16-.3c8.8-.1 16.2-.4 16.4-.7.2-.2.5-37 .6-81.9.1-44.8.5-81.8.8-82.2.4-.3.7.4.7 1.7s.3 2.1.6 1.8c.8-.9-.7-7.8-1.8-7.8-.5 0-.6.4-.3 1 .3.5.3 1.5-.1 2.2s-.9 37.8-.9 82.5c-.1 44.7-.4 81.5-.6 81.7-.2.3-7.2.6-15.4.7l-15 .2-.1-65.9c-.1-36.2-.3-73.2-.5-82.2l-.3-16.3 3-3 3.1-3h15.4c21.4-.1 21.1-.1 24.4 2.6l3 2.5h-3.2c-1.7 0-3.9-.7-4.7-1.6-1.5-1.4-1.6-1.4-1.6.5 0 1.1-.4 2.3-1 2.6-1.6 1-1.2 2.5.5 1.9.8-.4 1.5-1.2 1.5-2s.5-1.4 1-1.4c2.2 0 .9 4-1.5 4.6-1.4.3-2.5 1-2.5 1.5 0 .6.7.6 1.8 0 1-.5 4.5-1.3 7.8-1.6 4.7-.6 6.2-.4 6.6.6.2.8.2 6.5 0 12.7l-.4 11.3-7.7-.3-7.6-.3-.6-11c-.7-12.5-.6-11.5-2-11.5-.6 0-.7.5-.2 1.2.4.7 1 6 1.3 11.8l.5 10.5 8.6.3 8.7.3.4-11.8c.6-16 .7-15.7-5.8-15-4.3.4-5.4.3-5.4-.9 0-.9 1.1-1.4 3-1.4 3.8 0 3.9-2 .1-4.8-2.5-1.8-4.5-2.1-15.2-2.4-6.8-.2-15.7-.1-19.6.2m246.6-.6c-.2.2-9.5.6-20.7.9-11.1.2-20.4.6-20.7.8-.8.9-1.2 19.5-.3 21.1.8 1.6 3 1.8 23.9 1.8h23.1l-.4-11.5c-.2-8.9-.7-11.8-1.8-12.5-1.6-1.1-2.4-1.2-3.1-.6m3.1 3.2c.6 1.4 1 6.6 1 11.5V50h-22.4c-17 0-22.5-.3-22.8-1.3-.6-1.4.1-19 .8-19.6.2-.2 9.3-.6 20.1-.9 10.9-.2 20-.6 20.2-.8 1.1-1 2.2-.2 3.1 2.2m-161.1-.5c-2.1 2.1-2-5.9-2.1 114.8l-.1 56.4 8.7.3 8.6.3.1-22.2c.1-12.2.2-45.2.3-73.2.1-28.1.5-51.6.9-52.2s.1-1.5-.6-2.1c-.9-.8-1.2 10-1.3 52.1-.1 29.3-.2 63-.3 74.9l-.1 21.7-7.7-.4-7.7-.3.2-83.8c.2-83 .2-83.9 2.2-85.6 1.7-1.4 5.2-1.6 27-1.7 19.1 0 25 .2 25.1 1.2.4 6.8.2 17.5-.3 18.8-.5 1.4-3.1 1.6-17.7 1.7-17.3.1-20.2-.5-16.5-3.4 1.7-1.2 1.7-1.3.2-.8-1.4.5-1.8.1-1.8-1.9 0-1.4.6-2.8 1.3-3 .9-.4.9-.6-.1-.6-1.9-.1-5.2 1.8-5.2 3.1 0 .7.5.6 1.5-.2 1.3-1.1 1.5-.7 1.5 2.8 0 3 .5 4.2 1.8 4.6.9.3 9.3.5 18.5.4 14.5-.1 17-.3 17.5-1.7.5-1.3.7-12.4.3-20.3-.1-1.6-2.1-1.8-26.2-1.7-24.3.1-26.2.2-28 2m337.3.3c-5.7.7-10.8 1.8-11.5 2.5-1.5 1.5-2.2 35.1-2.2 113.1v58.5l9.3.1c5.9 0 9.5-.3 9.7-1 .2-.6.9-38 1.5-83.1s1.3-83.7 1.6-85.8c.5-2.8 1-3.7 2.1-3.3.8.3 1.1.1.8-.4-.4-.6 1.1-1 3.7-.9 2.4.1 3.5.3 2.6.6-2.5.6-2.2 1.8.7 4.1 2.5 1.9 2.4 3.5 0 2.5-.8-.2-2.2 0-3.2.6-1.5.9-1.3 1 1.2.7 1.7-.2 3.8-.7 4.7-1.1.9-.3 2.5-.5 3.5-.3 1.7.3 1.8 4.3 1.8 83.8v83.5l-5.4.3c-3 .2-6.5.1-7.8-.3l-2.4-.6.6-82.2c.3-45.2.6-83 .6-84 0-.9.4-1.7.8-1.7.5 0 1.1-1.1 1.3-2.4.4-2.1.3-2.3-1.4-1.3-2 1.3-2.5 3.2-.5 2.2.6-.4.5-.1-.3.7-1.3 1.1-1.5 12.1-1.8 85.2-.2 67.9 0 84.1 1 84.7 1.7 1.1 13.9 1.1 15.6.1 1-.7 1.2-17.6 1-83.8-.2-45.6 0-83.4.4-83.9.4-.7-.7-1.2-2.9-1.3-1.9-.2-4.7-1-6.1-2l-2.6-1.7 2.3-.3c1.3-.2 2.8.1 3.4.7s2 1.1 3.2 1.1c1.4-.1.8-.7-2-2-3.5-1.7-3.7-1.9-1.4-2 1.4 0 3.1.6 3.8 1.2 1.1 1.1 1.3 1 .9-.2-.6-2-12.7-2.3-26.6-.6m7.4 3.8c-.3 1.8-1.1 40.2-1.6 85.3-.6 45.1-1.3 82.5-1.5 83-.2.7-3.6 1.1-8.6 1h-8.4l.2-60.5c.2-109.9.2-106.4 1.7-108.5 1.3-1.9 6.8-3.1 15-3.4 3.8-.1 3.8-.1 3.2 3.1"/><path d="M506.6 29.9c-.3.5.1 1.1.9 1.4.9.4 1.2.1.8-.9-.6-1.6-1-1.7-1.7-.5m428.4.4c-.6 4.3-1.1 21.6-.6 24l.6 3.2 12.2-.5 12.3-.5.3-12.6.3-12.7-3.3-.5c-3.2-.6-21.8-.9-21.8-.4m20.3 1.4 3.8.5-.3 11.6-.3 11.7h-23l-.1-9.5c-.1-5.2.1-10.8.4-12.3.5-2.8.5-2.8 8.1-2.6 4.2 0 9.3.3 11.4.6m-123.6 88.5c.2 42.5.6 78.3.8 79.5.5 2.1 1 2.1 19.2 2.5 10.4.2 19.2.2 19.7-.1 1-.4 0-156.7-1-158.3-.3-.4-9.2-.8-19.8-.8h-19.3zM870.2 86c.4 22.8.7 58.1.5 78.4l-.2 36.9-18-.2c-9.9-.1-18.3-.5-18.7-.9-.3-.4-.8-35.7-1-78.5l-.4-77.7 18.5.2 18.6.3zM658.6 54.9c-.4.6-.9 124.2-.6 144.4 0 1.6 1.3 1.7 17.5 1.5l17.6-.3-.1-46V54h-16.9c-9.4 0-17.2.4-17.5.9M692 82v117.5l-16.5.3c-12.8.2-16.5 0-16.5-1-.3-15.3.2-142.3.6-142.9.3-.5 7.7-.9 16.5-.9H692zm63.2 45.7.3 73.8 20.5.5c11.3.3 21.6.4 23 .2l2.5-.3-.2-73.7-.2-73.7-23.1-.3-23-.2zm45.1.5c.2 72.1.2 72.7-1.8 73-1.1.2-11 .1-22-.2l-20-.5-.3-72.8L756 55l22 .2 22 .3zm134.6-65V112c.1 24.5.1 55.2.1 68.2V204h24v-4.8c.8-76.8 1-132.5.5-135.9l-.6-4.3H935zm23.6.1c.5 2.6.3 73.7-.5 135.4v4.3h-22v-23.3c0-12.7 0-43.2-.1-67.7V63.7l.1-3.7h21.9zM575.1 67c-.3.8-.6 30.5-.6 66s-.4 64.8-.8 65.1c-1.4 1 11.4 1.9 15.8 1.1l4-.7v-65.7c0-36.1-.2-65.8-.5-66.1s-4.3-.7-8.9-.9c-6.8-.3-8.5 0-9 1.2m16.9.7c.3.3.5 29.6.6 65.3v64.8l-4.4.6c-7 .9-11.9-.2-12.6-3-.8-3-.7-97.5.1-115.4l.6-13.5 7.6.3c4.2.3 7.8.6 8.1.9M26 130c14.6.5 47.4 1.3 73 2 48.8 1.1 60.2 1.5 97.1 3 29.2 1.2 54.7 3.6 74.1 7 11.8 2 24.1 7.2 37.1 15.6 10.8 7 25.7 22.2 32.4 32.9 3.1 4.9 8.2 13.1 11.5 18.2 6.5 10.3 17.8 29.2 17.8 29.9 0 .3.9 2.4 1.9 4.7s3.1 7.1 4.5 10.7c1.5 3.6 3.1 7.4 3.6 8.5 3 7.1 12.8 35.7 16.1 47 1.1 3.8 2.7 9 3.6 11.5 5.8 16.8 17.1 66.7 27.3 120 1.7 9.1 4.2 21.9 5.5 28.5 3.2 16.8 6.5 39.3 6.5 44.9 0 4.2.4 4.1-12.5 2.2-6.6-1.1-17.9-1.4-43-1.1-30.1.2-36.2.5-53 2.8-21.5 3-31.5 4.9-39.5 7.7-3 1-10.2 3.3-16 5-18.8 5.4-33.1 11.2-53 21.3-27.4 14-40.2 22.7-57.8 39.2-6.8 6.4-22.8 24.7-27.9 32-3.7 5.3-15.3 27.4-15.3 29.1 0 .4-.9 2.5-1.9 4.8-1.1 2.3-3 7.7-4.3 12.1-2.1 6.8-2.9 8.3-5.9 10.2-6.2 4-16.8 12.5-26.4 21.2-1.6 1.5-6.3 5.6-10.2 9-4 3.4-7.3 6.8-7.3 7.6s-.8 1.8-1.8 2.3c-2.4 1.3-8.4 2.3-8 1.4.3-.4 1-2.2 1.7-4 .7-1.7 1.7-3.2 2.3-3.2.5 0 .7-.4.4-.9-.3-.4-.1-2.3.4-4.1 1.2-4.1 2.8-15.8 3.7-27 1-12.6.6-57.2-.6-69.7-.6-5.9-1.5-18.9-2.1-28.8s-1.5-20.3-2-23c-.5-2.8-1.4-8.8-2-13.5-5.6-48-8-63.4-13.8-89-9.2-39.8-23.8-98.5-28.4-113.5-2.2-7.2-5.3-17.3-6.8-22.5-4.2-13.6-5.4-17-6.2-17-.3 0 .7 3.7 2.2 8.2C12.2 339.8 20.4 370 36 436c8.1 34.4 11.9 53.4 14 70 2.8 22.7 4.1 33.2 5 41 .6 4.7 1.5 10.9 2 13.8s1.4 13.2 2 23c.6 9.7 1.5 22.5 2.1 28.4s1.1 21.9 1.2 35.5c.2 34.6-2.1 61.3-5.3 61.3-.5 0-.6.7-.3 1.7.4 1 .2 1.4-.4 1-.7-.5-.9 0-.6 1.3.3 1.1-.2 3.1-1.1 4.5-1.5 2.3-2.2 5.5-1.1 5.5.2 0 2.7-.5 5.4-1.1 3.5-.7 5.2-1.6 5.6-3 .4-1.1 3.9-4.7 7.8-8 4-3.4 7.7-6.6 8.2-7.3 3.1-3.5 24.2-20.5 28.4-22.8 2.5-1.4 3.4-3.1 6.1-11.4 1.7-5.4 3.5-10.3 3.9-10.9.4-.5 1.6-3.3 2.6-6 2.3-6.1 9.7-20.4 13.9-26.5 5.4-8 21.1-26.3 28.8-33.5 9.1-8.5 22.3-18.9 31.6-24.9 18.3-11.7 54-28.2 74.2-34.4 1.9-.6 9.4-2.8 16.5-5 16.1-5 19.3-5.6 43-8.9 16.8-2.3 23-2.6 53-2.8 25.1-.3 36.4 0 43 1.1 13.8 2.1 13.5 2.1 13.5-2.7 0-2.2-.5-7.3-1-11.2-.6-4-1.5-10.6-2.1-14.7-.5-4.1-2.1-12.9-3.4-19.5s-3.7-19.4-5.5-28.5c-10.6-55.9-20.5-98.8-29-126-4.4-14.1-14.6-43.9-17.7-52-8.6-22.3-13.1-31.4-25.8-51.5-4.5-7.2-10.7-17.1-13.8-22-6.9-11.1-21.8-26.1-33.2-33.4-10.5-6.7-24.2-12.6-33.5-14.5-8.5-1.7-26.7-4-44.4-5.6-25.2-2.3-118.9-5.3-195.6-6.4-34.4-.4-34.4-.4-8 .4m395.8 72.6c-.5.4-.8 5.2-.8 10.6s.3 9.8.8 9.8c.4 0 5.4.2 11.2.5 5.8.2 31 .7 56 1s71.2 1 102.5 1.5c31.4.5 89.9 1.4 130 2 40.2.6 78.6 1.2 85.5 1.5 6.9.2 31.9.6 55.5 1 41.3.5 70.9 1.2 88 2 6.6.4 39.9.7 50.8.5h2.7v-24h-4.7c-5.7-.1-30.9-.7-55.3-1.5-18.5-.6-67.9-1.1-194-2-74.5-.5-117-1-163-2-47.4-1-164.5-1.7-165.2-.9m164.7 1.9c47.7 1 89.2 1.5 163.5 2 126.1.9 175.5 1.4 194 2 23.4.7 49.5 1.4 54.8 1.5h4.2v11c0 10.7-.1 11-2.2 11-9.4.2-43.8-.1-50.3-.5-17.1-.8-46.7-1.5-88-2-23.6-.4-48.6-.8-55.5-1-6.9-.3-45.3-.9-85.5-1.5-40.1-.6-98.6-1.5-130-2-31.3-.5-77.5-1.2-102.5-1.5s-50.2-.8-56-1l-10.5-.4-.3-8.2c-.2-4.5 0-8.9.3-9.7.5-1.3 9.6-1.4 71.3-.8 38.9.3 80.6.8 92.7 1.1M428 225.6c0 .5-1.4.9-3 1-1.7.1-3.3.4-3.6.7-.6.6-1.4 13.7-1.2 19.7.1 1.9.2 5.3.2 7.6l.1 4 4.5-.7c2.5-.4 8-.3 12.3.3s9.3.8 11.2.6c2-.2 3.5 0 3.5.7 0 .5.5.3 1-.5.9-1.3 1.1-1.3 2 0 .6 1 1 1.1 1 .2 0-.7 1.3-1.2 3.3-1.2 1.8 0 3.9.6 4.6 1.2 1.1 1 1.3 1 .7 0-.7-1.3 2.3-1.6 12.9-1.4 4.5.1 5.4-.3 8.7-3.5 3.7-3.6 4-3.7 13.5-4.3 10.4-.7 14.3-.4 14.3 1.2 0 .6.6.5 1.5-.2.8-.7 2.6-.9 4.4-.5 1.7.3 5.5.6 8.6.6 4.1 0 5.5.4 5.5 1.5 0 .8-.4 1.5-1 1.5-.5.1-1.6.2-2.2.3-.9.1-1.3 2.7-1.4 9.3l-.1 9.1 14.1.5c18.3.7 46 .5 42.1-.3-1.6-.3-6.7-.5-11.3-.4-7.6.2-8.2.1-7-1.5 1.1-1.4 1.1-1.4-.2-.5-2.7 2.1-10 2.6-23.4 1.9l-13.2-.7-.2-7.9c-.2-7.7-.2-7.9 2.4-8.5 1.7-.4 2.9-.2 3.5.7.7 1.1.9 1.1.9-.3 0-.9-.4-2-1-2.3-2.8-1.7-.5-2.6 6-2.3 4.5.1 7 .7 7 1.4 0 1.5-5 2.5-7.2 1.3-2.3-1.3-4.8-1.1-2.6.2 1 .5 10.9 1.1 22.5 1.2 20.1.2 20.9.3 24.1 2.6 2.7 1.9 3.2 2.8 2.7 4.5-.4 1.1-.8 3.7-1 5.6-.2 2.6-.1 2.7.2.5.2-1.7.9-3.4 1.4-3.9 2.1-2.3.9-5.6-3.1-8.1-3.8-2.4-4.6-2.5-20-2.5-15.3 0-16-.1-16-2 0-2.8.3-3.5 1.7-3.5.6 0 1.5-.4 1.9-.8.9-.9-1.8-.9-4-.1-.9.3-1.6 1.1-1.6 1.8 0 1.2-14.6 1.2-29.2 0-9.1-.8-25.3-.6-28 .2-1.4.4-1.8 0-1.8-1.7 0-1.2-.7-3.1-1.7-4.1-.9-1-1.1-1.8-.5-1.8s1.9 1.1 2.8 2.5 1.9 2.4 2.1 2.1c1-.9-3-5.6-4.8-5.6-2.4 0-2.5 2.6-.1 3.9.9.6 1.4 1.1 1 1.1s-.4 1 .1 2.2c.6 1.7.1 2.7-2.8 5.3l-3.6 3.1-15 .4c-17.2.4-23.5.4-35.7 0l-8.6-.3-.8-6.1c-.4-3.4-.6-6.6-.4-7.1.2-.6.5-4.1.6-7.9.2-6.9 1.2-8.9 4.3-8.3 1.6.2 1.7 2.2.2 2.2-1.9 0-1.9 1.1-.1 1.2 1.4.1 2.2-.6 2.6-2.3.4-1.4.4-2.8 0-3.1-.3-.4-.6-.2-.6.3"/><path d="M432 225.8c0 .7.6 1.5 1.3 1.7.6.2 23.9.6 51.7.9 27.8.2 61.3.7 74.5.9 13.2.3 25.4.5 27 .4 1.7-.1 6.7 0 11.3.1 4.5.1 8.2-.1 8.2-.5 0-.8-20.7-1.1-122-2-37.2-.3-50.7-.8-51.2-1.6-.6-.9-.8-.9-.8.1m212.7 2.8c-.3.3-7.9.5-16.8.5-9-.1-16.1.1-15.8.3.7.8 32.9.9 33.6.2.4-.3.4-.8.1-1.1-.2-.3-.7-.2-1.1.1m2.9.3c-1.1 1.7 2.7 2.1 17 2.1 7.6 0 14.6 0 15.4.1 3 .2 44.3.9 83 1.4 21.7.3 48.2.7 58.8 1 10.5.2 19.2.1 19.2-.3s-8.7-.8-19.3-.9c-44.6-.6-97.3-1.4-99.2-1.6-1.1-.1-2.3-.7-2.7-1.2-.5-.6-.8-.5-.8.3 0 1.8-32.7 1.6-36.3-.3-1.6-.8-2.7-.9-2.9-.3-.5 1.4-28.7 1.1-30.4-.2-.8-.7-1.4-.7-1.8-.1m-40.9 3.8c-1.6.8-2.6 1.7-2.4 2 .3.2 2-.3 3.7-1.2 3-1.6 3.3-1.6 5 .3 1.5 1.6 1.8 3.1 1.4 7.3-.6 7.4-1.2 8.7-3.7 9.1-2.5.3-3.5 3.4-1.7 5.2.9.8 1.4.8 1.7-.2.3-.6 1.4-1.2 2.6-1.2 3.8 0 7.2-2.4 7.7-5.4.3-1.6 1.3-3.4 2.2-4 1.4-.9 2.1-.6 3.4 1.2 1.1 1.6 2.5 2.3 4.3 2.2 3.8-.3 5.1-.1 5.1.8 0 .4-1.9.8-4.2.8-4.2.2-6.8 2.2-6.8 5.3 0 1 .5.7 1.3-.8 1-2 6.4-4.8 7.4-3.8.1.2-.3 2-.9 4l-1.1 3.7h-8.1c-4.5 0-12.8.2-18.6.4-10.4.4-10.5.4-13.5-2.4-4.1-4-13.2-6-26.5-5.9-5.8 0-11.3.3-12.2.7-1 .4 4 .6 11 .5 14.7-.2 21.8 1.3 26.7 5.6l3.3 2.9 18.3-.5c10.1-.2 18.9-.6 19.6-.8.6-.2 1.4-1.7 1.8-3.3.3-1.6 1.9-4.2 3.5-5.7l2.9-2.7 21.4-.5c17.8-.3 22.4-.1 27.1 1.2 5.7 1.7 7.9 4.1 2.9 3.1-10.5-2-11.2-1.9-12.3.9-1.1 3-1.3 10.1-.4 15.7l.7 3.8h7.2c4.1 0 8-.3 8.9-.6 1.9-.7 2.2-8.1.5-13.4-.6-1.9-1.2-4.6-1.4-6-.1-1.4-.3-3-.4-3.7 0-.7-.8-1-1.6-.6-.9.3-3.5.1-5.8-.5-4.1-1.1-29.1-2.2-26.2-1.2.8.3-3.8.6-10 .6-6.5.1-12.1.6-12.8 1.2s-1.8.7-2.5.3c-.8-.4-2.3-.6-3.5-.4-2.3.3-6.3-2.7-8.3-6.3-.6-1-2.6-2.9-4.5-4.1s-4.1-2.9-5-3.8c-1.9-1.8-3.5-1.8-7.2.2m13.8 6.3c2.7 2.8 2.7 3.1 1.2 4.8-.9 1-1.7 2.8-1.7 3.9 0 2.6-1.8 4.1-6.1 5-1.9.3-3.7 1.1-4.1 1.7-.5.7-.8.4-.8-.7 0-1 1.1-2.2 2.4-2.6 2.4-1 3.6-3 3.6-6.2 0-1.2 1-2.3 2.5-2.9 1.6-.6 2.3-1.4 1.9-2.5-.3-.8-1-1.5-1.5-1.5-.4 0-.6.7-.3 1.5.4.8.1 1.5-.6 1.5-.6 0-.8-.5-.5-1 .3-.6.2-1-.4-1s-.8-.7-.5-1.5c.9-2.1 1.6-1.9 4.9 1.5m71.7 13.2c2.2 1.1 4 7.7 3.6 13.1l-.3 4.2-7.6.3-7.6.3-.7-3.2c-.9-4.8-.7-12.8.4-14.9.9-1.7 1.8-1.9 5.8-1.3 2.6.3 5.5 1 6.4 1.5M843 232.9c0 .7 3.9 1.1 10.8 1.2 5.9 0 22.8.2 37.5.4 14.8.2 26.6.1 26.4-.2-.3-.2-16.8-.6-36.7-.9-20-.2-36.7-.7-37.1-1-.5-.3-.9 0-.9.5"/><path d="m703.1 236.6-2 2.5-3.8-2c-2.6-1.3-4.4-1.6-5.4-1-1.1.7-1.1.9 0 .9.9 0 1.2 1.1.9 3.8-.3 3.6-.2 3.8 2.5 3.4 1.5-.2 3-.8 3.3-1.3.9-1.5 6.4-1.1 6.4.4 0 2.1-1.2 2.8-2.5 1.7-1.7-1.5-6.5.8-6.5 3 0 1 .9 3.8 2 6.2 1.1 2.5 2.1 7.2 2.2 10.4l.3 5.9 10 .3c5.6.2 11-.2 12.6-.8 1.4-.6 6.6-1.3 11.5-1.4 4.9-.2 13.9-.7 19.9-1.1 8.5-.6 12-.4 15.1.7 3.8 1.2 4.1 1.5 2.9 3.2-1.1 1.4-1.7 1.5-3.4.7-2.4-1.3-9.8-1.5-10.5-.2-.6 1-.7 4.1-.2 14.6.1 3.8.4 9.6.4 12.8l.2 5.9 14.3-.6 14.2-.5v-21.6l-12.7.1c-10.5 0-12.6-.2-11.9-1.3.9-1.8 12.1-2.6 18.4-1.4 4.2.7 4.5.6 6.1-2 .9-1.5 1.6-3.5 1.6-4.6-.1-1.2-.5-.7-1.4 1.3-.8 1.8-1.9 3.5-2.6 3.9-1.5.9-3.2-1.6-2-3 1.4-1.7-5-3.3-7.9-1.9-2.3 1.2-2.3 1.2-.3 2.3 1.1.6 2.9 1.1 3.9 1 1.4 0 1.3-.2-.5-1-1.3-.5-2.1-1.3-1.8-1.8.9-1.5 5.2 1 5.3 3.1.2 1.6-.3 1.8-3.5 1.2-2-.4-4.3-1.2-5.1-1.8-1.1-.8-1.3-.8-.8 0 .8 1.4-1.4 2.4-4.9 2.4-2 0-2.4-.5-2.5-3.3-.2-3-.2-3-.6-.5-.2 1.5-1.4 3.5-2.6 4.3s-1.6 1.5-1 1.5c.7 0 1 .6.7 1.4-.4 1.1 1.9 1.3 12.3 1.2l12.8-.1.1 10 .1 10-13.3.3-13.4.3-.1-5.3c-.2-5.3-.7-17.2-1-21.6-.2-4 .8-5.2 4.6-5.2 2 0 4.6.5 5.7 1.1 1.8 1 2.5.8 3.9-1 .9-1.1 2.4-2.1 3.3-2.1s2.2-1.1 2.8-2.5c.7-1.5 1.7-2.4 2.5-2.1.7.3 1.3.1 1.3-.4 0-1.9-2.4-1-4.5 1.5l-2 2.6-5.5-1.7c-4.5-1.4-7.5-1.5-17-.8-6.3.4-15.1.8-19.5.9s-9.8.7-12 1.4-7.7 1.1-12.5.9l-8.4-.3-.3-5c-.2-2.8-1.2-7.6-2.4-10.8-1.9-5.4-1.9-8.4.1-7.2.5.3 1.2.1 1.5-.5.5-.7 1.1-.8 1.9-.1 1.9 1.6 4-.4 3.3-3.1-.6-2.1-1.1-2.4-4.2-2-1.9.2-3.8.8-4.1 1.3-1.3 2.1-3.4.8-3.4-2v-3l3.7 1.5c3.6 1.5 3.6 1.5 6.7-1.5 1.7-1.7 2.5-3.1 1.9-3.1s-2.1 1.1-3.2 2.6m223.4-1.4c3.3.5 7.1.7 8.5.4s3.2-.1 4 .4c1.2.7 1.2 1.2-.3 2.8-.9 1-1.7 2.2-1.7 2.6s1.1-.6 2.4-2.1c2.2-2.6 3.1-2.8 9.8-3 9.3-.2 9-.1 8.4-1.2-.3-.5-2.5-.5-4.8-.1-2.4.4-6.1.5-8.3.3-2.2-.1-8.5-.4-14-.7-8.9-.3-9.3-.2-4 .6m32.5-.2c0 .6 1.2 1 2.8 1 1.5 0 8.8.2 16.2.4 13 .4 18.7-.2 16.3-1.7-.7-.4-1.4-.3-1.7.2-.6.9-29.8.5-32.3-.4-.7-.2-1.3 0-1.3.5m39.8 1.7c2.6.4 3.2.9 3.2 2.8 0 1.3-1.1 3.2-2.5 4.3s-2.5 2.7-2.5 3.6c0 .8-.9 2-2 2.6-1.7.9-2.2.7-3-1.5-.6-1.5-1.7-2.5-2.9-2.5-1.7 0-1.9.7-1.8 5.9.1 3.2.6 5.7 1 5.4.4-.2.6-2.7.3-5.4-.5-5.2.8-6.6 2.4-2.4.5 1.4 1.4 2.5 2 2.5 2.2 0 5-2.1 5-3.8 0-.9 1.1-2.7 2.4-3.9l2.4-2.3.4 6.8c.6 9-.2 11.7-3.3 11.5-1.3-.1-12.8-.3-25.4-.5-20.6-.3-23.4-.1-25.8 1.4-3.2 2.2-4.1 2.3-3.4.4.7-1.8-.9-2.4-7.8-3.2-3-.4-5.4-.9-5.3-1.3.3-2.6-.3-3.1-2.2-2.1-1.1.6-2 1.6-2 2.2 0 .9.3.9 1.2 0 1.7-1.7 2.9-1.5 2.2.3-.4 1.1.1 1.5 1.7 1.6 1.7.1 1.9.3.7.6-1 .2-1.8.9-1.8 1.4s-.8.9-1.9.9c-1 0-2.4.7-3.1 1.5-1.1 1.3-1 1.4.5.9 1.5-.6 1.7-.3 1.3 1.4-.4 1.2-.2 2.2.2 2.2 1.6 0 2.2-2.1 1-3.5-1.7-2-.1-1.9 2.2.2 1 .9 1.8 1.1 1.8.5s-.5-1.4-1-1.7c-1.4-.9-.3-2.5 1.7-2.5 1.2 0 1.3.3.4 1.3-.8 1-.7 1.9.4 3.3 1.3 1.7 1.3 1.5 1-2.4-.4-4.1-.3-4.2 2.3-3.6 5.4 1.1 5.4 1.2 3.8 3.6-.8 1.3-1.7 3.7-2.1 5.5l-.6 3.2-12.2-.3c-6.7-.1-14.9.1-18.2.5-3.9.5-6.2.4-6.6-.3-.4-.6-1.6-.7-3-.2-3.2 1-6.9 1.1-6.9.2 0-.3 1.5-.8 3.2-1 2.4-.2 3.3-.8 3.5-2.3.1-1.6.1-1.6-.3-.3s-1.6 1.8-4 1.8c-2.8 0-3.5.4-3.2 1.6.4 2 5.3 2.8 7.9 1.3 3.5-1.8 2.7.9-1.1 4-2.2 1.8-3.8 3.6-3.5 4.2.4.5-.1.9-1 .9-1.1 0-1.5-.5-1.2-1.4 1-2.6-1.8-3.6-12.9-4.6-6.2-.6-12.3-1.7-14.2-2.7-2.6-1.3-3.5-1.4-4.5-.4-1 1.1-.8 1.2 1 .7 1.2-.4 2.4-.2 2.8.4.3.5 0 1-.7 1-8.6.3-19.3 1.4-23.6 2.6-6.2 1.7-9.6 5.9-8.8 10.9.6 3.5 2 88.7 2 127.4l.1 26.5-6-.3c-3.3-.1-6.1-.4-6.3-.6-.5-.5 1.7-19.9 3.4-30 1.5-8.7 1.5-36.2 0-48.5-.3-2.5-.6-8-.6-12.4-.1-4.3-.8-9.7-1.6-12-1.2-3.1-1.6-10.5-2-31.7-.4-24-.3-27.8 1.1-28.9.8-.7 1.5-2 1.5-2.9 0-1-.7-.5-2 1.4-1.9 2.9-2 4.2-1.6 31 .3 22.3.7 28.7 2 31.6.9 2.2 1.5 6.6 1.5 11 0 4.1.3 9.6.6 12.4 1.6 12.5 1.6 40.1.1 49-2.3 13.8-3.8 29.7-2.9 30.6 1.1 1 11.6 1.4 13.2.5 1.3-.8 1.3-3-.4-114.1-.3-19.3-.8-36.8-1.1-39.1-.4-3.5-.1-4.5 2.4-7.2 3.4-3.7 7.7-4.9 20.2-5.7 12.1-.8 13.5-.8 24.9.5 10.2 1.1 11.1 1.4 11.1 3.5 0 1.1-1 1.3-4.4.9-3.8-.6-4.4-.4-4.9 1.5-.7 2.7-3.7 2.8-3.7.1 0-1.3-1-2.4-2.6-3-3.3-1.3-16.4-1.3-24 0-3.2.6-7.4 1.3-9.1 1.6-4.1.6-6.7 5.1-5.9 9.8.3 1.7.8 36.4 1.2 77.1.3 40.7.9 74.3 1.3 74.7 1 1.2 26.5 2.8 27.5 1.8.5-.5.7-34.7.4-78.9-.3-69.7-.2-78.1 1.2-78.5 1.2-.3 1.1-.4-.2-.5-1.9-.1-2.4-2.6-.8-3.6.6-.4.7-1.1.4-1.7-.4-.7-.9-.6-1.4.1-.3.7-.5 37.2-.2 81.2.3 46 .1 80.4-.4 80.9-.7.7-25.3-.5-26-1.3-.1-.1-.5-33.3-.8-73.7-.4-40.4-.9-75.3-1.2-77.5-.9-6.3 1.3-8.2 11.6-10 9.8-1.7 23.3-2 26.1-.5 1 .6 1.9 2 1.9 3 0 2.8 5 2.8 5.7 0 .5-1.8 1.1-2 6-1.5 6.7.6 7.3 1 7.3 4.1v2.6l-11.7-.6c-6.5-.3-12.1-.5-12.4-.6-.3 0-.5-1-.5-2.1.1-1.2-.6-2.4-1.4-2.7-1.2-.4-1.3-.3-.2 1 .7.9 1 2.3.6 3.2-.3.9-.2 1.6.2 1.7.5 0 6.7.2 13.8.5l12.9.6-.6-4.9c-.5-4.8.7-8.3 3.1-8.3.6 0 1.5-.7 2-1.6 1.2-2.1 10.3-3.1 25.5-2.7 10.9.2 12.7.1 12.7-1.2 0-.9.7-3.2 1.5-5.2 1.2-2.7 1.8-3.4 2.7-2.5.8.8 1.4.7 2.3-.4 1.9-2.7 9.3-3.3 32.5-2.5 12.4.4 22.9.4 23.4 0 1.1-1 1.1-10.1.1-18.8l-.7-6.1-3.6.2-3.7.1zm-351.6 12.5c-.9.4-2.9.7-4.3.7-1.4.1-3.5 1.1-4.7 2.4-2.2 2.3-2.2 2.5-2.3 50.8-.1 30.5.2 49.3.9 50.9.5 1.4 1.9 3.4 3.1 4.4 1.1 1.1 2.1 2.3 2.1 2.7s2.1 4 4.7 7.9l4.7 7h22.5l.4-60.8c.3-33.4.7-62 .9-63.6l.3-2.9-13.3-.1c-7.3-.1-14 .2-15 .6m26.9 2.9c-.2 1.3-.5 29.5-.8 62.6l-.4 60.3h-10.4c-10.3 0-10.5 0-12.1-2.8-.9-1.5-3-4.6-4.5-6.9-1.6-2.3-2.9-4.5-2.9-5.1 0-.5-1-1.7-2.1-2.8-1.2-1-2.6-3-3.1-4.4-.7-1.6-1-20-.9-50 .1-46 .2-47.5 2.1-49.4 3-3.1 9.2-4.1 23-4l12.5.1zm-175.6.6c-4.8.3-7.8 1-9.5 2.3l-2.5 1.9-.2 48.8c-.1 26.8-.3 61.8-.4 77.6-.1 16 .2 29.2.7 29.7.5.4 8.7 1.3 18.3 2 9.6.6 17.8 1.3 18.2 1.6.4.2 1 .1 1.3-.4.8-1.3 2.3-138.6 1.7-158.9-.1-2.8-.5-3.2-3.8-3.7-6.4-.9-16.4-1.3-23.8-.9m23.8 1.9c2.1.4 2.7 1.1 2.8 3.2.5 15.6-.9 156.3-1.6 157s-35-2-35.9-2.8c-.5-.5-.8-13.4-.7-29.2.1-15.6.3-50 .4-76.6l.2-48.3 2.5-1.9c3.5-2.7 21.6-3.4 32.3-1.4m-94 6.3c-3.4.3-6.5 1-7 1.4-.4.5-.9 20.2-1 43.9s-.2 46.7-.3 51.2c-.1 4.4.3 10.8.8 14.1 1.7 10.8 7.9 38.6 8.8 39.5.5.4 4.3 1 8.4 1.2l7.5.3.5-72.3c.3-39.7.2-72.2-.2-72.2-.5 0-.9 32.3-1 71.7l-.3 71.8-6.5-.3c-3.6-.2-7-.9-7.6-1.5-1.6-1.6-9.5-40.2-9.5-46.2-.2-62.3.3-98.3 1.4-99.8 1-1.5 2.8-1.7 10.7-1.6 5.2.1 18.2.1 28.8 0l19.3-.2-.3 6.3-.3 6.3h-29.8l-1.4-3.5-1.3-3.5.7 3.5c.3 1.9.6 3.9.6 4.5s5.7.8 16.1.5l16.1-.5.3-7.3.3-7.3-20.3.3c-11.2.2-21.9 0-23.8-.3s-6.3-.3-9.7 0m167.2 1.8c-4.4 1.1-4.4 1.4-4 23.9l.5 21.4 7.8 7.8c4.2 4.2 12.8 13.2 19 19.9 6.3 6.8 12 12.3 12.8 12.3 1.2 0 1.4-6.4 1.4-43v-43l-17.7.1c-9.8.1-18.7.4-19.8.6m36.5 42.5v42.3l-7.8-8.1c-4.2-4.4-13-13.6-19.4-20.4L593 306.6l-.2-20.5-.3-20.5 2.5-1.3c1.7-.9 7.8-1.3 19.8-1.3H632z"/><path d="M836.9 263c-.9.5-9.4 1.1-19 1.2-14.2.3-18 .7-20.6 2.1-3.8 2-4.7 2.1-3.7.4.4-.6-.5-.1-1.9 1.2-2.1 1.9-2.4 2.7-1.6 3.8 1.5 1.7 1.7 1.6 1.5-.3-.1-1.2 1.8-2.4 6.4-4 5.7-2 8.3-2.3 21.7-2.3 9 0 16-.4 17.2-1.1 2.6-1.4 29.7-1.1 37.1.4 4.5.9 5.6 1.5 6.2 3.6.7 2.4.7 2.3.5-.4s-.6-3.1-5.7-4.2c-6.5-1.5-35.8-1.8-38.1-.4m111.9 1.7c-1.4.9-3.1 2.6-3.6 3.8-1.3 2.9-1.6 184.1-.3 184.9.5.4 2.9 1 5.3 1.5 4.3.9 11.6 3.3 17.5 5.8 5.1 2.1 7.3 1.7 7.4-1.5.1-1.5.3-44.6.4-95.7.2-51.2.4-94.5.6-96.3.2-3.1.4-3.2 4.4-3.2 2.3 0 8.3.3 13.3.6l9.2.7v10.9c0 14.5-.3 14.9-8.8 14.4-3.7-.2-8.7-.4-11.1-.5l-4.3-.1.3-12.4c.2-6.8.1-11.9-.3-11.3-.4.7-.8 6.5-.8 12.9V291l4.3.1c2.3 0 7.7.3 12 .5 7.7.5 7.7.5 8.8-2.3 1-2.7 1.4-24.2.4-25.1-.3-.3-12.1-.7-26.2-.9-23-.3-26.1-.1-28.5 1.4m26.5.7c.3.8.1 4.5-.4 8.1-.7 4.4-.9 36.9-.7 94.8.2 48.5.2 89.2 0 90.5-.5 2.8-.5 2.8-14.2-1.8-5.2-1.8-10.6-3.5-12-3.9l-2.5-.6-.2-89.5c-.1-49.2 0-90.5.2-91.7.3-1.2 1.7-3.3 3.2-4.7 2.4-2.3 3.3-2.4 14.3-2.5 9.5-.1 11.9.1 12.3 1.3"/><path d="M837.4 266.9c-3.9.9-8.4 2.6-10 3.8-2.6 1.9-2.8 2.4-1.6 4.2 1.5 2.6 1.5 3.4 0 2.5-.7-.4-.8-.3-.4.4s1.1 1.2 1.7 1.2c1.2 0 1.1-3.4-.2-4.7-1.8-1.8 4.1-5.1 11.7-6.7 9.7-2 26.6-2 33.2.1 5.2 1.6 6.9 3.3 3.2 3.3-1.2 0-2 .7-2 1.7 0 1.2.3 1.4.8.7.4-.7 1.6-1.3 2.6-1.5 2.6-.5 3.2-2.8.9-3.5-1-.3-3.1-1.2-4.6-1.9-4.2-1.9-26.5-1.6-35.3.4m-29.9 1.1c-8.1.8-11.3 1.9-13.9 4.9-1.8 2-1.9 3.5-1.3 27.2.4 13.9.9 25.4 1.2 25.7s2 0 3.8-.6c5-1.8 8.7-1.4 13.6 1.3 2.3 1.4 4.7 2.5 5.2 2.5s.9-11 .9-25.4v-25.3l2.5-3.7c2.9-4.3 3.2-6.6.8-6.6-1 0-2.7-.2-3.8-.4s-5.1 0-9 .4m13.3 1.5c.2.2-.7 1.8-2 3.5-2.3 3.1-2.3 3.7-2.6 29l-.3 25.8-4.5-2.4c-4.8-2.6-9.6-3-14-1.4-1.5.6-2.9.9-3.1.7-.2-.3-.6-11.3-1-24.6-.6-22.7-.5-24.2 1.3-26.2 1-1.1 2.8-2.6 3.9-3.2 3.6-1.9 20.5-2.8 22.3-1.2m-87.3 2.5c-1.1.5-3.7.9-5.7.9-2 .1-3.9.5-4.2.9-1.1 1.9-.9 107.2.2 107.2.5 0 2.9-1.9 5.3-4.1 2.4-2.3 7.3-6.5 10.9-9.4s8.5-7 10.8-9.1l4.4-3.9.1-10c0-5.5-.1-24.3-.2-41.8l-.3-31.7-9.6.1c-5.4 0-10.6.4-11.7.9m20.6 31.2c.1 17.2.2 35.6.2 40.8l-.1 9.5-4.3 3.9c-2.4 2.1-7.3 6.2-10.9 9.1s-8.4 7-10.8 9.2l-4.2 4 .2-52.6.3-52.6 4.8-.7c2.7-.4 5.2-.9 5.5-1.2s4.7-.6 9.8-.6h9.2zm-75.7-29.3c-.2.2-.4 5.5-.4 11.8V297h20.5c23.9 0 21.8 1.4 21.3-14l-.3-9.4-20.3-.1c-11.2 0-20.5.2-20.8.4m40.1 11.2v10.4l-19.7.3-19.8.2v-10.3c0-5.7.2-10.6.4-10.8.3-.2 9.1-.4 19.8-.4l19.3.1zm202.5-9.2c-14.1.6-18.3 1.5-19.1 4.3-.3.7-.1 15.9.2 33.8.4 17.9.8 53.9.8 80 .1 26.1.6 49.1 1.2 51.1l.9 3.5 12.2 1.3c6.8.7 14.5 1.7 17.1 2.3 2.7.5 5.1.7 5.5.3s.7-40.2.8-88.6c.1-70-.2-87.9-1.2-87.9-.7 0-1.8-.1-2.6-.3-.7-.2-7.8-.1-15.8.2m17.9 1.1c.6 0 .9 166.7.3 173.4-.2 1.5-.7 1.7-2.9 1.1-1.6-.4-9.1-1.5-16.7-2.4-13.8-1.6-14-1.6-14.7-4.4-.4-1.5-.8-26.4-.8-55.4-.1-28.9-.4-52.9-.6-53.3s-.5-13-.5-28.1l-.2-27.4 2.3-1.5c1.6-1.1 6.2-1.7 16.3-2 7.8-.3 14.7-.5 15.4-.3.8.2 1.7.3 2.1.3m-409.4 0c-.9 1.5-.7 138.2.2 139 .4.4 4.5 1 8.9 1.3l8.1.5.8-17.7c.4-9.7.9-20.3 1-23.6.5-15.5 4.7-33.4 12.6-53.9 1-2.7 1.9-5.4 1.9-6.1 0-.6 2-2.9 4.4-5.1l4.3-3.9-.1-15.5-.1-15.5-20.7-.3c-13.4-.1-20.9.1-21.3.8m41.2 15 .1 14.5-3.9 3.5c-3.6 3.2-4.5 5-9.5 20-7.4 22.4-9.4 31.7-9.9 46.5-.1 3.3-.5 13.7-1 23.1l-.8 17.1-7.1-.5c-3.9-.2-7.5-.8-7.9-1.2-.9-.8-1.1-135.5-.2-137 .4-.7 7.5-.9 20.3-.8l19.7.3zm4.8-14.1c-.7 1.2-.6 18.6.2 24.8l.5 4.3h12.9l-.3-14.8-.3-14.7-6.2-.3c-3.5-.2-6.4.2-6.8.7m12.3 14.3.3 13.8h-5.5c-5.3 0-5.4 0-5.9-3.3-.8-4.7-.9-22.6-.1-23.8.3-.5 2.9-.9 5.7-.7l5.2.3zM449.6 345c.3 37.1.8 67.7 1.1 68 .2.2 7.3.6 15.7.8l15.4.4.6-10.8c.4-6 .5-36.3.3-67.4l-.4-56.5-15.7-.5c-8.6-.3-15.6-.2-15.6.2s6.8.9 15.1 1l15.2.3.4 56.5c.2 31.1 0 60.9-.3 66.4l-.6 9.8-14.3-.4c-7.9-.2-14.6-.5-14.8-.8-.3-.3-.8-30.4-1.1-67-.4-36.5-.9-66.6-1.2-66.9s-.2 29.8.2 66.9m422-52.2c-1 1.6-.5 29.5.5 31.4.8 1.6 2.6 1.8 12.9 1.8 6.5 0 12.1-.4 12.4-.8.7-1.2 1.2-31 .4-31.7-1.1-1.2-25.5-1.8-26.2-.7m25.2 1.7c.8.7.3 28.5-.4 29.7-.9 1.4-22 .9-23.2-.5-1.1-1.3-1.6-28.2-.6-29.9.7-1.1 23-.5 24.2.7m81.7.7c-.9 2.3 0 26.7 1 27.5.6.5 6 .6 12 .2l11-.5-11.2-.2-11.1-.2-.6-2.8c-.3-1.5-.5-7.5-.5-13.5V295h11.4c6.3 0 11.6.4 12 1 .3.5.8 24.5 1.1 53.2.2 28.8.6 66.6.8 84l.4 31.8h-11.2c-6.1 0-11.6-.4-12.2-.8-1.2-.7-1.3-5.9-1.7-93.2l-.2-44.5 11.5-.6 11.5-.5-11.7-.2c-10.3-.2-11.7 0-12.2 1.5-.3 1-.4 21.8-.1 46.3.2 24.5.5 55 .6 67.8.1 21.3.3 23.3 2 24.2 1 .6 6.9 1 13.2 1h11.5l-.4-33.3c-.2-18.2-.6-56.5-.8-85-.3-28.5-.8-52.2-1.1-52.7-1-1.5-24.5-1.3-25 .2m-296.2 4.6-4.3.3v7.7c0 4.2-.3 21.2-.7 37.8l-.6 30.1 3.9.6c2.1.4 6.1.7 8.7.7 2.7 0 6.9.9 9.5 1.9 2.6 1.1 5.8 2.2 7.2 2.5 2.2.5 5.2 2.2 10.2 5.8.9.7 2 1 2.3.7.3-.4.8-20.3 1.2-44.3l.6-43.6-9.4-.1c-5.2 0-12.8-.2-16.9-.2-4.1-.1-9.4-.1-11.7.1m28 1.1 8.7.1v22.7c0 12.6-.3 31.9-.7 43.1l-.6 20.2-2.3-2.1c-3.1-2.9-20.9-8.9-26.5-8.9-2.6 0-6.1-.3-7.9-.7l-3.3-.6.6-29.6c.4-16.3.7-32.8.7-36.8v-7.2l3.8-.3c2-.2 7.1-.2 11.2-.1 4.1 0 11.4.2 16.3.2m48.7 28.5c0 12.4.2 22.6.5 22.6.5 0 5.4-3.8 20.4-15.9l9.2-7.3-.3-10.2-.3-10.1-13.5-.1c-7.5 0-14.1-.4-14.8-.8-.9-.5-1.2 4.4-1.2 21.8m28.8-10.8.3 9.2-9.1 7.3c-5.1 4.1-10.8 8.7-12.8 10.2-2.1 1.5-4.3 3.5-4.9 4.4-1.1 1.4-1.3-2.3-1.3-19.3v-21h13.8l13.7.1z"/><path d="M575.5 315.7c-3.4.5-6.5 2.9-6.5 5 0 .7-.4 2.1-.9 3.1-4.6 8.6-6.2 14.5-10.5 38.3-3.5 18.9-4.7 39.8-3.1 53.7.9 7.6 1.3 8.9 3.1 9.6 1.4.5 3.3-.7 16.9-10.9 9.6-7.1 18.7-13.4 22.3-15.2 1.7-.9 3.2-2.5 3.2-3.4 0-1.9-8-9-15-13.4-2.5-1.6-3.9-3-3.2-3.3 2-.6 10 3.8 16.3 9 3.2 2.6 6.3 4.8 7 4.8.9 0 1-2.2.6-7.9-.9-13.8-14.7-45.8-23.7-54.9-5.5-5.6-5.8-6.2-3.3-6.2 3.6 0 12.9 11.6 19.2 23.8 7 13.8 10.3 23.2 13.1 36.9l1.9 9.8-2.7 2.2c-1.5 1.3-7.4 5.1-13.2 8.4-10.6 6.2-21.7 13.5-30 19.6-17.8 13.2-40.4 53.7-43.5 77.8l-.6 5 11 5.5c12.6 6.2 17.1 9.3 15.6 10.9-.7.7-4.3-.1-11.5-2.5-5.8-2-11.3-4-12.2-4.5-2.6-1.4-3.2.7-1.8 7.2 1.3 6.2 1.4 6.3 9 7.4 4.5.7 10 3.3 10 4.7s-1.6 1.5-8 .8c-3.5-.5-6.8-.6-7.1-.4-1.3.7 3.1 12.5 7.2 19.7 5.8 9.9 20.7 24.6 33.4 32.9 19.8 12.9 37.2 20 63.3 25.8 12.3 2.8 14.1 3.4 12.9 4.7-1.1 1-24.5-2.5-32.2-4.8-6.6-2-8.8-2.9-21.3-8.5-2.9-1.3-5.5-2.4-5.8-2.4-1.2 0-18.9-11.4-23.9-15.3-9.9-8-20.5-17.5-22.7-20.3-1.2-1.6-3.9-4.8-6-7.1-2.1-2.4-4.5-6-5.4-8.2s-2.4-4.3-3.3-4.6c-2.5-.8-15.9 2-24.3 5-5.1 1.9-7.4 2.3-8.2 1.5-2.4-2.4 10.7-9.4 20.9-11.2 7.1-1.2 7.9-1.8 6.2-4.2-1.1-1.5-3.9-1.8-21.2-2.6-11-.4-22.2-1.3-25-2-2.7-.6-8.6-2-13-3-8.2-2-28-5.4-37-6.4-20.3-2.3-65.3-2.4-82-.1-5.5.7-13.1 1.6-17 2-23.6 2.2-45 7.8-71 18.8-7.1 3-15.2 6.7-17.9 8.3-2.7 1.5-7.2 3.7-10 4.8-7.6 3.1-19.8 10.4-28.4 16.9-35 26.3-37.8 29-50.4 48.2-15.3 23.2-18.2 29.3-23.8 49.3-3.1 10.9-3.7 18.7-2 27.2.4 2.5.6 4.7.4 4.9-1.1 1.2-8.4-11.3-8.4-14.3 0-1.3-.3-2.5-.6-2.9-2.9-2.8-36.6 27.9-45.5 41.4-5.6 8.6-11 22.2-13.4 33.4-3.6 17.5-.8 36.2 8.2 55.5C67 832.4 83 850.4 97 859.9c14.4 9.8 40.5 21.9 78 36.3 7 2.6 31.1 13.3 37 16.3 2.5 1.2 8.8 3.7 14 5.5 21.2 7.2 41.1 4.4 48.7-6.8 4.3-6.4 4-22.2-.7-32.8-.9-2.2-5.1-7.4-9.1-11.6-6.6-6.6-8.9-8.2-21.1-14.1-7.5-3.7-14-6.7-14.5-6.7-1.1 0-17.8-6.7-36.3-14.5-39-16.4-66.3-33.9-75.3-48.2-1.4-2.2-3.5-7.2-4.7-11.1-1.9-6.2-2-7.6-.9-10.9 2.5-7.8 7.8-12.7 20.9-19.4 6.4-3.2 6.9-4.2 4.4-7.7-2.7-3.9-6.4-13.1-5.4-13.7.5-.3 2.5 1.9 4.4 5 3.7 5.6 15.8 18.5 17.5 18.5.5 0 3.9 1.4 7.5 3 3.6 1.7 9.5 3.8 13.1 4.7 6.2 1.5 6.6 1.5 8.6-.3 3.9-3.5 5.2-7.3 4.6-13.5-.3-3.2-.2-6 .1-6.3 1.2-1.2 4.2 5 4.2 8.7 0 5.4-1.9 9.3-8.1 16.6-7.4 8.7-10.3 13.6-11.8 20.3-2.5 11.7 3.8 22.3 17 28.6 8.6 4.1 38.8 14.1 57.9 19.2 17.1 4.5 22.6 6.7 32.1 12.9 8.8 5.7 16.2 8.4 23.4 8.5 5.9.1 5.9.1 8.2-3.9 2.1-3.5 2.4-5 2.1-13-.4-9.7-1.7-12.8-8.1-20.2-1.6-1.8-2.4-3.3-1.8-3.3 2.5 0 9 7.4 11.7 13.2 2.4 5.3 2.9 7.5 2.8 13.8-.1 4.2-.6 8.5-1.2 9.7-1.7 3.2.5 4.3 8.4 4.5 11.4.3 16.8-4 16.7-13.4-.1-8.1-2.1-13.2-7.9-20.2-6.3-7.7-5.5-8.6 1.6-2 6.4 6 11 15.5 11.4 23.6.2 3.2.6 6.1 1 6.5 1.2 1.2 6.6-5.1 7.7-8.9 2.2-8.2-4.8-20.9-17.5-32-9.4-8.3-17.6-12.7-32.1-17.3-10.6-3.5-41.6-11.2-55-13.8-4.4-.9-8.9-1.9-10-2.3-1.4-.5-1.7-.4-1 .4.6.5 5.1 1.8 10 2.7 14 2.7 45 10.4 55 13.7 20.4 6.7 36.3 18.1 44.8 32.2 5.2 8.4 6.2 12.1 4.7 16.2-1.1 2.8-4.8 7.4-5.9 7.4-.3 0-.7-2.3-.8-5.2-.3-8.4-3.9-16.5-10.3-23-3.5-3.6-6.4-5.8-7.8-5.8-3.3 0-2.7 1.4 2.9 8.3 6.3 7.4 7.8 11 8.2 18.1.4 9.5-5.1 14.2-16.1 13.8-7.7-.3-8.6-.7-7.1-3.5 2.2-4 1.6-16.6-1-23.2-2.7-6.7-9.6-14.5-13-14.5-3 0-2.6 1.6 1.4 6.3 5.7 6.6 7.5 11.4 7.5 19.5 0 6-.4 7.9-2.5 11.2-2.2 3.5-3 4-6.3 4-4.8 0-12.4-2.5-18.2-6.1-16-9.9-17.7-10.6-41-16.8-11.4-3-32.5-9.7-45.1-14.3-14.1-5.2-22.5-12-25.4-20.8s.1-16.7 11.6-30.4c7.8-9.2 9.8-16.9 6.3-24.2-1.1-2.2-2.3-3.4-3.3-3.2-1.3.3-1.5 1.5-1.3 6.5.4 6.4-.9 10.3-4.6 13.6-2.5 2.3-7.6 1.2-19.8-4-9.9-4.3-18.7-12-25-21.8-2.4-3.8-4.1-5.5-5.2-5.3-2.5.5-1.8 4.2 2.2 12l3.4 6.8-6.1 3.1c-3.4 1.7-6.9 3.7-7.8 4.5-.8.8-2 1.4-2.7 1.4-2 0-8.1 8.2-9.7 13.1-1.5 4.4-1.5 5.3.1 11.1 3.7 13.6 9.6 21 25.5 32.5 9.1 6.6 36.8 21.4 48.9 26.1 4.1 1.7 11.3 4.6 16 6.7 4.7 2 13.2 5.4 19 7.6s16.1 6.8 22.9 10.1c10.8 5.2 13.4 7 19.8 13.4 4 4.1 8.1 9.1 9.2 11.2 2.9 5.7 4.4 15.2 3.7 22.6-.6 5.4-1.3 7.1-4.3 10.5-5.9 6.9-10.7 8.6-24.8 8.5-13.9 0-18.2-1.2-43.5-12.9-8-3.7-19.7-8.7-26-11.1-16.1-6.3-25-9.9-36.3-15-5.3-2.4-10-4.4-10.3-4.4-2 0-26-13-33.4-18-13.4-9.1-33.8-32.1-36.5-41-.4-1.4-1.1-3-1.5-3.5-1.9-2.3-5.1-12.6-6.5-20.4-2.7-15.1-1.2-32.2 3.6-42.8 1-2.3 1.9-4.7 1.9-5.3 0-1.8 4-9 9-16.5 7.1-10.4 38.2-39.5 42.2-39.5.5 0 .8 1.1.8 2.5 0 2.5.7 4 5.4 11.2 2.5 3.9 6.2 4.6 5.2 1-.4-1.2-.9-6.3-1.2-11.2-.5-8.3-.3-10 3-21.3 4.5-15.4 9.5-25.6 22.1-44.7 11.5-17.6 18-24.7 33-36.1 6.1-4.6 14.4-10.9 18.6-14.1s9.9-7 12.5-8.5c2.7-1.5 6.5-3.6 8.4-4.7 5.2-2.8 29.7-14.5 35.5-16.9 2.8-1.1 8.2-3.3 12-5 15.3-6.5 37.8-11.8 58-13.7 3.9-.4 11.5-1.3 17-2 16.1-2.2 64.4-2.2 81.5 0 10.3 1.3 30.5 4.8 37.5 6.5 4.4 1 10.3 2.4 13 3 2.8.7 13.7 1.6 24.4 2 14.7.6 19.7 1.1 20.8 2.2 1.2 1.3.5 1.6-5.4 2.6-3.7.6-8.7 2.1-11 3.2s-4.6 2-5 2c-1.4 0-6.3 5-6.3 6.4 0 .8.7 1.6 1.5 1.9 1.4.6 9.3-1.5 12.6-3.3 1.5-.8 16.8-4 19.1-4 .5 0 1.8 2.1 3 4.6 1.1 2.6 3.7 6.5 5.7 8.8 2.1 2.3 4.7 5.4 5.9 7 2.2 2.8 12.8 12.3 22.7 20.2 4.8 3.9 21 14.4 22.1 14.4.3 0 2.9 1.1 5.7 2.4 2.9 1.3 7.2 3.2 9.7 4.4 10.8 4.8 34.2 10.1 45.3 10.2 3.5 0 3.9-3.7.5-4.4-16.1-3.4-23.7-5.2-30.8-7.3-10.9-3.2-30.7-12.8-43.5-21.1-12.9-8.4-27.6-22.9-33.5-33.1-4.1-7.1-7.9-16.6-6.9-17.4.2-.2 3.1-.1 6.4.3 6.6.8 8.1.5 8.9-1.5.8-2.1-3.9-4.5-11.2-5.9-6.6-1.2-6.7-1.3-7.9-5.2-.6-2.1-1.2-4.9-1.2-6.2-.1-1.9.2-2.1 1.7-1.3.9.5 6.6 2.6 12.6 4.6 11.6 3.9 14 3.8 11.9-.8-.8-1.6-5.1-4.4-13.7-8.8l-12.6-6.4.6-5c2.9-22.2 26.2-63 43.4-75.8 8.3-6.1 19.4-13.4 30-19.6 5.8-3.3 11.8-7.1 13.4-8.4l2.8-2.3-2.1-10.4c-3-14.2-7.2-26.4-13.8-39.3-6.5-12.7-15.1-22.7-19.6-22.7-4.1 0-3.4 2.4 2.3 8.2 4.6 4.6 11.3 16.4 15.7 27.3 6.6 16.7 7.5 19.6 8.1 26.5l.5 7.4-5.4-4.6c-6.1-5.2-15.1-10.1-17.6-9.6-3.1.6-2.4 2.7 1.9 5.4 5.1 3.2 14.8 11.2 14.8 12.3 0 .4-1.5 1.5-3.2 2.4-3.6 1.8-12.7 8.1-22.3 15.2-15.8 11.9-15.4 11.6-16.4 9.7-2.9-5.6-2.9-36 0-52.7 3.6-21.5 6.3-33 9.6-41 2-5 4.4-9.8 5.3-10.8 1.1-1.2 3.7-1.9 8-2.3 9.4-.8 13.6 1.7 22.5 13.1 3.9 4.9 10.4 12.5 14.6 17 12 12.8 27.6 34.4 25.3 35.2-3.6 1.3-5.9 3.2-6.2 5.1-.2 1.3.2 2.2 1 2.2 1.7 0 14.3-2.7 18.8-4 5.1-1.5 28.5-1.2 34.6.4 2.8.7 8 3.3 11.4 5.6 7.1 4.8 17.2 9.2 19.3 8.4.8-.3 3.8-3.7 6.7-7.7 6.9-9.3 18.1-20.2 30-29 5.2-3.9 12-8.9 15-11.2s7.1-5 9-6 6.7-3.7 10.5-6.1c9.4-5.6 13.6-6.4 16.9-3.1 6.3 6.3 8.5 26.8 6.7 60.9-2.6 46.7-2.4 44.9-5.6 51.2-1.6 3.1-4.3 7.4-6.1 9.4l-3.2 3.7-1.8-3.4c-6-11-15.6-23.6-23.6-31-4.7-4.3-9.6-8.2-10.7-8.6-2.7-.8-2.6-1.7.2-4.2 3.7-3.5 13-7.1 20-7.8 5.4-.6 6.7-1.1 6.7-2.5 0-5.9-28.2-.7-32 5.9-2.4 4.2-2.6 4.3-4.8 3-1.7-1-1.8-1.7-1-3.8 5.6-15.1 17.9-33 31.5-46.1 6-5.8 12.8-12 15.1-13.8 3.9-3 5.7-7.2 3.2-7.2-2 0-10.7 4.9-15.6 8.8-9.2 7.3-20.3 18.3-25.7 25.5-6.3 8.3-15.2 22.6-17.2 27.4-1.1 2.5-2 3.3-3.9 3.3s-2.6.5-2.6 2c0 1.1.4 2 .9 2 2.2 0 19 12.5 32 23.7 5.8 5 27.9 32.7 30.2 37.9 1 2.2 3.2 9.4 4.9 16 2.7 10.2 3.2 14.3 3.7 29 .5 15.7.4 17.7-1.6 24.3-3 10-5.2 13.6-8.2 13.5-1.3 0-9.8-.8-18.9-1.7-42.4-4.2-46.8-4.4-47.7-2.1-.3.8-.2 1.9.3 2.4 1.7 1.7 30.2 5.4 57.4 7.6 4.1.3 7.7.8 7.9 1 .6.6-9.1 16.2-11.5 18.5l-2.2 2.1-4.9-2.2c-8.9-4-35.4-13-44.1-15-4-.9-5.6-1-6.5-.1-2.3 2.3.9 4.4 11.8 8 6.1 2.1 16.9 6.4 24.2 9.6 15.3 6.9 15.1 5.7 1.9 15.6-7.2 5.4-11.1 7.6-21.6 12.2-5.8 2.6-16.2 4.6-26.5 5.1-5.4.3-10 .8-10.3 1-.2.3-.2 1.1.1 1.9 1.1 2.9 21 3.7 31.2 1.3 13.3-3.2 27.5-8.7 31.6-12.2 1.5-1.3 1.7-.5 2.3 8.8.4 5.7 1.8 17.2 3.1 25.6 2.8 17.1 3 21.6 1.4 32.7-.9 6.5-.8 8 .5 10 .9 1.3 6.6 6.1 12.8 10.8 14.5 10.8 31.5 25.5 39.8 34.3 7.1 7.6 16.1 22.5 19 31.4 2.8 8.9 3.5 17.9 1.6 22.4-1.7 4-3.6 4-3.6 0 0-7.5-7.1-25.4-10.1-25.4-1.8 0-2.1 3-.6 6.3 5 10.6 6.2 23.6 2.7 29.2-2.5 4.1-6.9 6.2-11.5 5.7-3.4-.4-3.6-.6-3.1-3.1 2.5-10.1 1.5-18.6-3-25.4-2.4-3.6-5.4-5-5.4-2.4 0 .8.8 2.9 1.7 4.8 2.7 5.4 2.1 16-1.1 21-3 4.5-5.6 5-11.5 1.9-4.5-2.3-10.1-8.8-15.8-18.5-6.3-10.7-16.4-19.8-28.7-25.9-8.1-4-14.7-5.3-48.6-9.2-2.5-.3-5.9-.7-7.7-1l-3.1-.6 7.3-7c8.3-7.8 12.5-14.1 12.5-18.8 0-4.8-2.6-3.5-8.8 4.4-5.5 7.2-13.5 13.5-25.4 20l-6.6 3.7-7.9-3.9c-4.3-2.1-12.5-6.2-18.3-9.2-14.8-7.5-25.1-11.4-42.2-15.7l-14.8-3.7-1.6-5c-3.6-11.1-12.7-24.6-16.5-24.6-2.7 0-2.4 2.2 1 7.2 5.3 8 8.2 14.6 9.1 20.9.5 3.4 1.3 6.5 1.7 7 .4.4 4.2 1.7 8.3 2.8 45 12.6 42.1 11.4 67.6 26.8 23.3 14 35.8 25.1 42.6 37.7 3.9 7.5 5.1 18.9 2.4 23.1-2.5 3.8-3.6 3-3.6-2.8 0-2.9-.7-7.4-1.5-9.9-2-5.7-11.8-17.8-14.5-17.8-3.1 0-2.4 2.4 2.9 9.4 2.8 3.6 5.5 8.3 6 10.3 1.8 6.3 1.3 13.8-1 17.7-2.4 4.1-8.9 7.6-14.3 7.6-3.5 0-3.8-.2-3.1-2.3 1.4-4.8 1.7-11.9.5-16.1-1.5-5.3-6.4-11.6-9.1-11.6-2.6 0-2.4 1.3.7 6 5.1 7.7 3.9 17.4-2.8 22.3-4.3 3.2-9 1.2-18.8-7.8s-22.8-18.8-29.2-22.1c-7.2-3.7-16.4-5.4-37.1-7-20.9-1.5-63.5-8.2-76.5-12-10.9-3.2-15.3-5.5-19.4-10.3-8.3-9.8-9.8-17.2-7.8-39.5 1.1-12.6 1-14.6-.4-18-2.4-5.8-3.9-4.1-5.3 6-3.9 29.3-3.5 40.4 2.1 53.6.5 1.1.2 1.8-1.1 2.2-4.9 1.4-28.2 5.7-39.6 7.2l-12.8 1.7-4.2-3.2c-9.8-7.4-16.5-10.3-35.2-15.4-7.3-2-10-2.2-31.4-2l-23.3.2 4.1-2.9c9.1-6.6 18.9-23.4 21.7-37.4 2.5-12.2 1.6-31.6-2-42.4-2.2-6.7-3.1-8.2-4.8-8.2-1.6 0-1.9.5-1.5 2.2.3 1.3 1.3 6.3 2.2 11.3 4.3 23.2-2.7 46-19.7 64-9.3 9.9-18.9 16.7-33.4 23.7-12.7 6.2-12.4 6.2-37.7 3-9.8-1.2-19.5-2.1-21.5-2.1-4.4.2-4.6.2 16.8 2.5 8 .8 17.3 2 20.8 2.6 7.8 1.3 12.2.2 24.7-6 39.2-19.4 57.9-52.6 50.7-89.7-1.9-9.4-2-11.6-.6-10.3.3.3 1.7 3.9 3.2 7.9 3.4 9.7 4.3 29.4 1.8 41.4-2.4 11.7-9.4 24.3-18.3 33.2-4 4-7.3 7.5-7.3 7.9s8.7.4 19.3 0c21.3-.8 29.3 0 42.7 4 11.2 3.4 18.3 6.7 24.6 11.4 2.9 2.2 6.3 4.2 7.6 4.5 3.1.8 22.3-1.8 40.8-5.6 7.9-1.6 14.5-2.9 14.7-2.9.9 0 .1-3.8-1.1-5.5-3.7-5.4-5.1-26.3-2.7-40.2.5-3.2 1.3-8.6 1.6-12.1.4-3.4 1-6.2 1.5-6.2.4 0 1.3 1.3 2 3 1 2.4 1 5.7 0 16.5-2.1 22.4-.5 30.9 7.9 40.7 6.2 7.3 17 10.7 53.6 16.8 14.4 2.4 30.6 4.4 40.5 5 19.4 1.2 29.3 3 37.5 6.9 7.3 3.5 19.6 12.6 30.4 22.5 8.1 7.5 14.5 10.6 18.8 9.2 5.8-1.9 9.6-11.5 7.5-19.2-.7-2.6-2.2-6-3.3-7.5-2.8-4-.7-3.7 2.7.3 5.4 6.5 6.5 13.2 3.8 24.2l-.7 2.9 5.4-.5c11.5-1 16.9-6.5 16.9-17.1 0-7.8-2.3-14.2-7.5-20.9-2.6-3.3-4.3-6.3-4-6.6 1.1-1.1 10.2 9.7 13 15.2 1.9 3.8 2.5 6.5 2.5 11.6 0 5.9.2 6.6 2 6.6 3.4 0 5.3-5.8 4.8-14.2-1.3-20-17.9-36.3-62.2-61.2-6.1-3.4-20.5-8.6-34.1-12.2-20.2-5.3-25.4-7-26.1-8.2-.5-.7-1.1-3.6-1.5-6.5-.8-5.9-4.3-14.2-8.9-21-4-5.8-2.9-7 1.6-1.8 4.9 5.7 10 14.5 12 20.8l1.7 5.4 10.1 2.2c15.8 3.6 30 8.7 44.1 15.9 19.8 10.1 28.4 14.2 29.8 14.2 1.7 0 14.9-7.6 22-12.7 3.2-2.3 8-7.1 10.7-10.7 5.8-7.5 7-8.5 7-5.6 0 3.7-4.8 10.6-12.5 17.9-4.1 3.9-7.5 7.5-7.5 8 0 .8 5.6 1.7 26 4.2 25.4 3 29.7 4.3 40.4 11.4 12.2 8.2 17 13.2 22.7 23.3 7.1 12.6 14.8 19.1 22.6 19.2 4.2 0 7.1-4.1 8.3-11.8.9-5.6.1-11.4-2.5-17.6-1.5-3.4 1.3-.8 4 3.8 3.3 5.6 4.2 13.1 2.5 20.2-.7 3-1.1 5.6-.8 5.9 1.3 1.3 10.7.6 13.1-.9 7.1-4.7 7.7-17.7 1.5-33.4-1.1-2.9-1.8-5.5-1.5-5.8.2-.3 1.9 1.8 3.6 4.6 2.7 4.4 4.7 10.9 6.7 21.8.7 3.4 3.7 2.4 5.1-1.8 1.7-4.5.8-15.2-1.9-23.8-2.9-9.5-11.3-23.7-18.8-31.6-8.3-8.8-25.3-23.5-39.8-34.3-6.2-4.7-11.9-9.5-12.7-10.7-1.3-1.9-1.4-3.5-.5-9.2 1.5-10.5 1.2-15.9-1.5-33-1.4-8.6-2.8-20.3-3-25.8-.5-10.4-1.3-12-4.4-9.2-3.2 2.9-16.9 8.6-27.1 11.2-8.9 2.3-11.7 2.6-21.2 2.2-6.4-.3-11.3-.9-12-1.6-.9-.9-.6-1.2 1.2-1.3 1.4-.1 5.6-.3 9.4-.5 19.2-.9 37.1-8.3 53.4-22.1 4.8-4.1 6.6-7.3 4.2-7.3-.5 0-3.8-1.3-7.2-2.9-13.9-6.4-18.2-8.2-28.5-11.6-11.4-3.8-14-5.2-12.5-6.7 1.6-1.6 22.4 4.6 44.6 13.4 12 4.7 12.1 4.7 19.5-7.4 6.3-10.1 6.4-11.8 1.4-11.9-12.8-.3-55.8-5.4-60.2-7.1-1.8-.6-2.1-1.2-1.3-2 1.2-1.2 15.1-.3 46.7 2.9 22.3 2.3 21.7 2.3 23.4-1.1 5.2-10.9 5.6-13.2 5.5-33.1-.1-20.3-.7-24-6.4-42.5-2.8-9.1-3.5-10.1-15.3-25-6.9-8.5-14.4-17.2-16.8-19.3-13-11.2-29.8-23.7-32-23.7-.5 0-.9-.5-.9-1 0-.6 1.1-1 2.5-1 1.8 0 2.8-.7 3.6-2.7 2.2-6 13.9-23.7 21.8-33.2 9.5-11.4 33.9-30.7 36-28.5.3.3-1.4 2.3-3.8 4.3-13.7 11.2-26.6 25-33.6 35.6-6.1 9.4-14.5 25.7-14.5 28.4 0 .4 1.2 1.3 2.7 2 2.6 1.2 3 1 5.3-1.7 4.2-4.9 10.1-7.9 17.7-9.1 6.8-1 13.3-.6 13.3.9 0 .4-3.3 1.2-7.3 1.7-11.2 1.6-21.7 7.1-21.7 11.4 0 1 .9 2.1 2.1 2.4 1.1.4 5.9 4.2 10.6 8.5 8.4 7.7 17.2 19.1 21.9 28.3 4 7.8 6 7.4 12.2-2.2 5.7-8.8 5.6-8.4 8.3-56.9.9-17.6 1-26.3.1-35.5-1.1-12.9-4.1-24.6-6.9-26.8-2.1-1.8-9.2-1.6-12.9.3-8.8 4.7-20.8 11.9-25.5 15.4-3 2.2-9.7 7.2-14.9 11.1-12 9-23 19.6-30.4 29.6-4.4 5.8-6.3 7.6-7.5 7.1-.9-.3-2.9-1.1-4.6-1.7-1.6-.6-6.2-3.3-10.1-5.9-9.6-6.3-15.8-7.8-32.7-7.8-7.5 0-14.8.5-16.2 1-4.4 1.7-17.7 4.2-18.4 3.5-.8-.9 3.7-4.5 5.5-4.5 2.2 0 1.6-3.2-1.4-8.1-5.3-8.3-15.6-21.4-23.2-29.4-4.1-4.5-10.6-12.1-14.5-17-3.8-4.9-8.6-9.8-10.5-10.8-3.5-2-12-2.9-17.5-2m-575 2.8c1.4 3.7 9.1 30.8 14.1 49.5 5.3 20.3 14.9 59.2 17.4 70.5 1.2 5.5 3 13.8 4.1 18.5 5.6 24.8 8.7 41.6 10.3 55 .3 2.5 2.1 16.9 4 32 6.3 49.6 8.8 98 6.6 127-2.7 34.1-7.1 49.9-15 52.9-4.9 1.9-34.1 8.1-38.2 8.1-1.5 0-2.9.4-3.2.8-.6 1.1 6.7 0 22.4-3.2 16.3-3.3 21.8-5 23.6-7.3 2-2.4 5.4-9.9 6.6-14.3 1.3-5.1 3.7-23.7 4.8-37 2.2-28.9-.3-77.6-6.5-126.5-1.9-14.9-3.9-31.1-4.5-36-.6-5-2.2-14.4-3.5-21-2.3-11.2-3.3-16.3-8.3-39-1.1-5-2.9-13.3-4.1-18.5-2.7-12.5-18.4-74.5-20-79-.5-1.4-2.8-9.3-5.1-17.5-2.3-8.3-4.7-15.5-5.3-16-.7-.7-.8-.4-.2 1m871.2 11.2c-.3.5-.4 26.7-.3 58.3l.3 57.5 4.4.6c2.4.3 8.7.9 14 1.3l9.6.6-.4-58.2c-.2-32.1-.6-58.9-.8-59.6-.3-.9-3.9-1.2-13.4-1.2-7.1 0-13.2.3-13.4.7m25.8 1.5c.2.7.6 27.1.8 58.5l.4 57.3-9.1-.7c-5-.3-10.9-.8-13-1.2l-3.9-.6-.2-56.5c-.2-31.1-.1-56.8.2-57.3.8-1.3 24.3-.8 24.8.5"/><path d="M431.6 418.9c-.4.6-.4 3.2-.1 5.9 1.6 11.8 4.7 29 5.6 31.7s2.3 11.3 7.4 48c.8 5.5 1.5 11.9 1.5 14.1v4.1l5.4 1.1c2.9.6 10 1.6 15.7 2.2s18.7 1.9 28.8 3c10.2 1 18.8 1.7 19.3 1.4 1.4-.9.8-3.3-1.1-4.4-1.1-.5-7-1.4-13.1-2-12.3-1-15.4-2.3-11.9-4.7 1.6-1.2 4.6-1.4 13.7-1.2 11.6.4 11.7.4 12-2 .6-3.8-.7-6.9-3.1-7.6-6.7-2.1-25-11.1-27.1-13.4-1.5-1.7-1.6-2.3-.6-3.6 1.7-2.1 4.5-1.2 17.1 5.1 12.2 6.2 14.6 6.6 15.4 2.6.9-3.9 4.7-17.4 5.5-19.2 6.6-14.5 15.7-29.8 26.4-44.5 1.2-1.6 1.3-3 .5-6.7-.9-4.3-1.4-4.8-4.2-5.2-9.4-1.4-30.6-2.7-57.7-3.6-16.8-.5-36-1.2-42.6-1.6-8.4-.4-12.4-.2-12.8.5m55.7 2.2c18.1.5 36.1 1.4 40 1.9 4 .5 9.5 1 12.2 1 6.3 0 7.4.8 8.5 5.6.8 3.4.6 4.2-1.4 6.4-3.3 3.4-14.5 20.9-19.4 30-3.6 6.6-10.1 24.6-11.7 32.2-.3 1.6-1.1 2.8-1.9 2.8-.7 0-5.8-2.3-11.2-5.1-5.5-2.9-11.4-5.5-13.3-6-4-.9-7.1.4-7.1 3 0 3.4 4.7 6.2 24.5 14.8 6.7 2.9 7 3.2 7.3 6.7l.3 3.7-11.5-.7c-9.8-.6-11.9-.4-14.1 1-5.4 3.6-2.1 5.4 12.7 6.7 10.5.9 14.9 2.2 13.1 4-.4.4-8.4-.1-17.8-1.1-9.3-1-22.1-2.3-28.4-2.9-6.3-.7-13.6-1.7-16.3-2.2-4.7-1-4.8-1.2-4.8-4.7 0-2-.7-8.2-1.5-13.7-5.1-36.7-6.5-45.3-7.4-48-2.1-6-6.4-35.1-5.5-36.7.4-.6 4.5-.8 11.3-.4 5.8.4 25.4 1.1 43.4 1.7m87.8 23.7c-7.8 1.8-10.7 4-8.3 6.4 1 1 2.5.9 7.6-.5 4.5-1.2 10.3-1.7 19.4-1.7 12.2 0 13.1.1 16.7 2.6 4.4 3 6.9 2.6 5.6-.8-.4-1.2-1.9-3.1-3.3-4.1-5-3.7-24.8-4.7-37.7-1.9m34.8 1.6c2.9 1.5 6.5 5.6 5.7 6.4-.3.2-1.9-.7-3.6-2-2.9-2.1-4.4-2.3-16.8-2.6-10.6-.3-15.1 0-20 1.3-6.5 1.8-9.8 1.1-6.9-1.3 4.9-4.1 34.7-5.3 41.6-1.8m210.3 2.5c-.6.3-2.2 3.2-3.6 6.4s-3.5 7.2-4.7 8.8l-2.1 3 2.7 6.1c3.8 8.4 6.6 27.5 6.6 45.4.1 15.3-.4 19-3.2 27.6-2.6 7.8-2.5 10.6.4 11.2 1.2.3 7.7 1.1 14.5 1.9 6.7.8 12.5 1.7 12.8 2s.3 1.1-.1 1.7c-.5.9-4.6 1-15.4.5-8-.4-15-.8-15.5-.9-.5 0-3 3.3-5.5 7.6-2.5 4.2-6 9.6-7.8 12-1.7 2.4-2.8 4.9-2.5 5.5.4.6 2.8 1.8 5.5 2.7 5.7 1.9 12 5.7 16.5 9.9 5.4 5.2 3.1 6.6-3.4 2.2-2.1-1.4-4.9-2.8-6.3-3.2-1.4-.3-5.5-1.9-8.9-3.5-7.8-3.5-10.2-3.5-14-.3l-3 2.5.2 14.8c.3 13.7 1.3 20.8 4.8 34.2.6 2.5 1.3 10.1 1.4 16.9l.3 12.4 2.8 1.2c1.6.7 6.5 1.6 10.8 2 9.9.9 33.6 5.6 44.9 8.9 16.4 4.7 33.5 13.6 44.1 22.9 3.2 2.8 4 4.2 4 6.8 0 3.5 2.4 4.8 3.3 1.9.5-1.3.3-1.3-1.1-.1-1.5 1.2-1.6 1-1.1-1.8.6-2.9.2-3.7-4.7-8.2-2.9-2.7-5.9-4.9-6.5-4.9-.7 0-1.4-.3-1.6-.8-.8-1.9-7.3-5.5-20-11.1-13.7-5.9-38-11.8-59.8-14.5-14.7-1.8-14.3-1.5-14.1-12.3.2-6.8-.5-12.5-3-23.8-2.5-12-3.2-17.9-3.4-29.2l-.3-14.3 3-2.5c1.6-1.4 3.5-2.5 4.3-2.5 1.9 0 18.4 6.8 23.2 9.6 5 2.9 8.3 3.1 8.3.6 0-3.2-10.8-11.8-17-13.6-4.7-1.4-9.3-3.8-8.4-4.5 1.3-.9 6.6-8 8.4-11.1.8-1.5 2.5-4.7 3.8-7.1l2.4-4.4 14.4.9c15.9.9 19.4.5 19-2.1-.3-2.2-3.5-2.9-18.6-4.6l-11.5-1.3.3-4.4c.1-2.4.9-5.7 1.7-7.4 5-11.2 2.7-55.4-3.7-71.2-2.2-5.4-2.3-6.4-1-8 .8-1.1 2.9-5.1 4.7-9l3.3-7.1 10.3.4c5.7.2 15.4.9 21.4 1.4 6.1.5 20 1.6 31 2.4 35 2.4 50 4.7 76.8 11.6 12.5 3.2 27.6 13.6 34.3 23.6 11 16.6 13.2 44.4 6.8 84.3-3.3 20.5-7.4 31.9-16.8 46.3-10.6 16.5-9.9 12.9-10.7 56.2-.4 20.9-1 66.3-1.4 100.9-.3 34.7-.8 63.2-1 63.5-.1.3-.6 13.4-.9 29.1s-.9 37.5-1.3 48.5-.5 20.4-.4 21c.1.5-.3 8-.9 16.5-1.2 16-2.7 21.8-6.6 25.1-2.2 1.9-17.7 11.6-27.7 17.4-3.8 2.2-9.9 5.7-13.5 7.9-10.8 6.2-21.3 11.8-21.6 11.4-.2-.1 0-7.5.5-16.3.4-8.8.8-39.3.8-67.7l.1-51.8 2.4-3.5c6.5-9.6 9.3-42.3 8.3-99-.6-32.6-.6-33.1-3.6-44.8l-3-11.8v-62.7c0-102.6 1.6-123 10.9-141.8 4.7-9.5 11.5-16.4 23-23.3 8.3-4.8 23-9.1 31.8-9.1 4.4 0 5.2-.3 5.2-1.9 0-6.3-21.2-3.1-39 5.9-11.3 5.7-20.6 14.6-25.4 24.4-2 4-3.6 7.9-3.6 8.8 0 .8-.7 2.8-1.5 4.5-2.5 5-4.5 18-5.5 36.3-1.1 20.9-1.4 155-.3 155 .5 0 .7-30.3.5-67.3-.3-85.4 1-111.5 6-122.7.9-1.9 1.9-4.9 2.3-6.5 2.3-10.7 14.9-24.6 28.5-31.6 13.8-7.1 29.2-10.7 35.4-8.3 3.2 1.2 1.5 2.4-3.4 2.4-6 0-22.3 4.1-28.2 7.1-20.1 10.2-28.9 22.7-33.6 47.9-3.2 16.7-3.4 23.5-3.9 102l-.4 80.5 3.1 12c3.1 12 3.1 12.1 3.7 45 1 56.9-1.5 86.6-8.1 97.9l-2.4 4.1-.6 65.5c-.3 36-.8 67-1.2 68.7-.8 4.4.5 4.3 9.7-.6 16.5-8.7 50.4-29 55-32.8 1.5-1.3 3.4-4.5 4.3-7.1 1.4-4.2 4.1-32 3.5-35.3-.2-.8 0-10.4.4-21.4s1-32.8 1.3-48.5.8-28.8.9-29.1c.2-.3.7-28.8 1-63.5.4-34.6 1-80 1.4-100.9.8-43.2-.2-38.2 10.8-55.2 10.8-16.8 15.4-32.6 19.3-65.8 2.1-18.9.7-41.1-3.6-54.2-5.5-16.9-17.6-28.4-36.6-34.7-19.5-6.6-43.8-10.5-81.3-13.1-11-.8-24.9-1.9-31-2.4-15.1-1.3-31.2-1.9-32.3-1.2m-121.6 5.8c-5.3 1.8-11.6 7.1-11.6 9.7s2.9 3.1 5.3.8c4.2-3.8 8.4-5.2 15.9-5.3 10.5-.2 19.3 2.6 27.6 8.8 3.4 2.6 5.2 2.4 5.2-.7 0-4-12.9-11.6-23.8-13.9-7.1-1.5-12.7-1.3-18.6.6m18.6.4c9.2 2 22.8 10 22.8 13.4 0 .9-1.9.1-5.1-2.1-13.5-9.1-35.1-10.2-43.5-2.3-2.8 2.7-3.9.9-1.5-2.3 1.7-2.1 7.8-5.7 12.1-7.1 2.7-.9 9.8-.7 15.2.4m272.1 15.6c-.3.8 1.9 3.8 5 7 3 3 6.5 7.8 7.8 10.4 1.2 2.7 2.9 4.9 3.7 4.9 1.2 0 1.3-1.8.7-10.8-.4-5.9-.8-10.8-.9-10.9-.1-.2-3.7-.6-8-1.1-6.2-.7-7.9-.6-8.3.5m11.3.9 4.1.5.7 9.5c.4 5.3.5 9.8.3 10.1-.3.2-1.6-2-3-4.9-1.3-2.9-4.8-7.6-7.6-10.3-2.8-2.8-5.1-5.3-5.1-5.6 0-.5 1.5-.4 10.6.7M564 477.5l-3.5 1.3.1 7.3c0 10.6 3.4 20 9.3 26.2 5.2 5.5 8.7 6.6 19.7 6.7 9.3 0 16.1-2.1 20.2-6.3 8.8-9.1 5.2-18.7-11.1-29-6.9-4.4-8.4-4.9-16.4-5.7-4.8-.5-10.1-1.2-11.8-1.4-1.6-.2-4.6.2-6.5.9m17.7 1.4c7.3.8 8.9 1.4 15.9 5.7 4.2 2.7 9.3 6.8 11.4 9.2 6.2 7 6.1 12-.5 18.1-5.6 5.2-10.6 6.5-22.5 5.8l-9.4-.4-5.6-5.9c-6.3-6.8-9-13.5-9.8-24.6l-.5-6.7 3.4-1.5c1.9-.8 4.8-1.2 6.4-1 1.7.2 6.7.8 11.2 1.3"/><path d="M564.4 487.1c-.3.6.4 4.9 1.6 9.5 2.9 10.7 6.6 15.3 14.2 17.7 3 .9 6.2 1.7 7.1 1.7 2.6 0 1.6-2.2-1.8-3.9-5-2.7-7-7.4-6.8-16.3.2-8.7.8-8.1-8.9-9.2-2.8-.3-5-.1-5.4.5m12.2 1.4c.8.2 1.2 3 1.1 7.7-.1 8.9 1.9 13.9 6.5 16.9l3.3 2.1-2.9-.7c-5.1-1.1-9.9-3.9-12.8-7.6-2.8-3.4-7.2-16.3-6.4-18.5.4-1.1 7.7-1 11.2.1"/><path d="M586.2 491.7c-3.1 2.4-3.3 2.8-2.7 6.7.8 4.6 3.9 8.6 6.7 8.6 1 0 2.1.7 2.4 1.5.4.8 1 1.5 1.5 1.5 1.8 0 5.8-7.7 6.1-11.9.3-4 0-4.6-2.7-6.1-5.5-3.1-7.7-3.1-11.3-.3m10.3 1.3c2.6 1.4 3 2.2 2.7 5.1-.5 4.5-4.1 10.4-5.5 9-.6-.6-1.8-1.1-2.7-1.1-2.4 0-5.6-4-6.3-7.7-.5-2.8-.2-3.6 2.5-5.7 3.2-2.5 4.1-2.5 9.3.4m7.6 9.2c-.7 2.3-2.6 5.4-4.3 7-3.2 3-2.7 3.8.9 1.3 1.2-.8 2.9-3.8 3.9-6.7 1.5-4.7 1.8-5 3-3.3 2.8 3.8 1.1 6.8-6.6 11.4-4.1 2.5-3.3 2.8 1.3.5 7-3.6 9.2-7.7 6.7-12.5-1.7-3.1-3.6-2.2-4.9 2.3m86.4-3.8c-4.8 1.2-11.2 4.4-14.7 7.4-2 1.6-4.8 10.5-4.8 14.9 0 3.7 6.8 13.4 11.3 16.2 15.7 9.7 34.2 9.2 48.4-1.2 7.3-5.5 14-12.8 15.9-17.4 2.6-6.2.1-11.3-5.5-11.3-1.3 0-2.1-.6-2.1-1.6 0-1.2-.7-1.5-3-1.2-2.4.4-3 .1-3-1.4 0-1.4-.5-1.7-2.4-1.2-2.1.5-2.4.3-2-1.4.5-1.7-.2-1.9-9.3-2.5-13.9-1-23-.7-28.8.7m28.4.3c8.5.6 9.1.7 8.5 2.6-.5 1.7-.3 1.9 2 1.5 2-.4 2.6-.1 2.6 1.3 0 1.5.5 1.7 3 1.2 2.3-.4 3-.2 3 1.1 0 1 .9 1.6 2.5 1.6 2.9 0 6.5 3.2 6.5 5.8 0 5.7-14.2 20.2-25 25.5-5.9 2.9-7.4 3.2-16 3.2-9.1 0-10-.2-17.4-3.8-6.5-3.3-8.4-4.8-12.3-10-4-5.5-4.5-6.6-4-10.3.7-6.8 3.6-11.5 9.2-14.8 9.1-5.4 16.8-6.4 37.4-4.9"/><path d="M683.6 510.1c-6.1 1-7.7 2.5-8.3 8-.4 4.1-.1 4.8 4.2 9.9 2.5 3 6.5 6.5 8.8 7.8 5.2 2.7 15.5 4.6 22 3.8 13.9-1.6 37-19.7 31.7-25-1-1-14-1.8-17.2-.9-1 .2-1.8 1.4-1.8 2.5 0 7.7-6.7 16.7-14.1 18.9-3.7 1.1-4.5 1.1-7.7-.7-2-1-5-3.8-6.6-6.2-2.6-3.7-3.1-5.4-3.4-11.8-.3-4.7-.8-7.4-1.6-7.3-.6.1-3.3.5-6 1m6.6 7.4c.8 12 6.7 19.1 15.8 18.9 8.7-.1 15.1-6.3 17.5-16.8l1.2-5.1 7.7-.1c11.8 0 12.2 2.2 2.3 11.3-6.6 6-17.9 12.1-24 12.9-6 .8-17.6-1.2-21.9-3.9-5.3-3.2-12.8-12.5-12.8-15.8 0-4.1 3.1-7.1 8.1-7.9 2.4-.4 4.7-.8 5-.9.4 0 .9 3.3 1.1 7.4m-74.7 12.2c-3.9 1-4.7 2.5-4.2 7.6.4 4.3 1 5.4 5.6 9.8l5.1 4.9v6.6c0 6.4-.1 6.8-3.7 10-6.7 6.1-15 3.8-19.8-5.5-2.7-5.5-5.5-6.1-5.5-1.2 0 4.5 4.1 10.4 9 12.9 5.6 2.9 13.7 2.5 18.3-.8l2.9-2.2 4.2 4.5c7.2 7.4 21.8 11.2 35 9 2.5-.4 5.2-1.9 7.7-4.3 6.7-6.3 4.5-7.9-4.8-3.4-4.9 2.4-6.2 2.6-13.4 2.1-5.9-.4-9.3-1.2-13.2-3.2-9.7-5-12.1-9.1-11.5-19.4l.3-5.3 5.1-1.9c7.1-2.7 9.8-5.8 9.8-11.6l.1-4.8-6-2.2c-5.7-2.1-15.8-2.9-21-1.6m20.5 2.6c5.3 2.2 5.5 2.4 5.4 6-.2 5.6-4.1 9-13.8 12.1-1.7.6-1.8 1.5-1.4 9.1.6 10.6 1.9 12.8 11.3 17.5 6.4 3.2 7.6 3.5 16 3.5 7.5 0 9.8-.4 13.8-2.4 2.6-1.3 5-2.1 5.3-1.8 1 .9-7.7 7.5-10.8 8.1-11.6 2.3-26.2-1.7-33.3-9.1-4.7-4.8-5.9-5.2-9-2.3-3.4 3.2-11.2 3.7-16.3 1.1-4.4-2.2-9.2-8.5-9.2-12.1 0-3.3 1.5-2.3 3.8 2.5 3.9 8 12.7 10.9 19.8 6.4 4.6-2.8 5.4-4.6 5.4-12.8v-7l-5.6-5.5c-5-5-5.5-5.9-5.2-9.3.2-2.8.9-4.1 2.8-5 4.1-2.1 14.7-1.5 21 1"/><path d="M616 537.4c0 3.3 1.2 3.9 7.7 4h5.4l-.7 4-.6 3.9 4.3-2.4c3.6-2 4.5-3 4.7-5.6.5-4.8-2.5-6.3-12.5-6.3-8.1 0-8.3 0-8.3 2.4m17.8.2c3.1 2.1 2.8 4.9-.9 7.4-1.6 1.2-3.2 2.1-3.3 1.9-.2-.2-.1-1.9.1-3.7.4-2.5 1-3.2 2.7-3.2 2.1.1 2.1.1.2 1.5-1.1.8-1.5 1.5-.9 1.5s1.6-.6 2.2-1.4c1.9-2.3-.4-2.9-5.7-1.7-5.5 1.3-10.5.3-11-2.2-.3-1.5.7-1.7 7-1.7 5 0 8.1.5 9.6 1.6m369.9 59.1c-.2.4-.7 2.1-1.1 3.8-1 4.2-7.1 14.8-16.8 29.2-1.4 2.2-3.1 5.8-3.7 7.9-.6 2.4-1.1 19.7-1.1 44.4-.1 22.3-.3 48.4-.5 58.1l-.5 17.5 10.8 1.2c5.9.7 12 1.2 13.6 1.2h2.7l-.6-26.8c-.3-14.7-.7-51.4-.9-81.5s-.6-55-.9-55.3-.7-.2-1 .3m1 59.6c.1 32 .5 68.2.9 80.4l.6 22.3h-2.3c-1.3 0-7-.5-12.6-1.2l-10.2-1.1.4-17.1c.2-9.4.4-35.1.5-57.1s.5-41.6.9-43.5c.4-2 2.1-5.5 3.7-7.9s4.1-6.2 5.6-8.5c1.6-2.2 3.5-5.5 4.4-7.1.8-1.7 2.9-5.5 4.5-8.5s2.9-6.2 2.9-7.2.1-1.8.3-1.8c.1 0 .3 26.2.4 58.3"/><path d="M990.2 629.6c-.1 1.9.3 2.4 2.3 2.4 1.4 0 2.5-.5 2.5-1v-1.8c0-.4-1.1-1-2.3-1.3-1.9-.5-2.3-.2-2.5 1.7m3.8.4c0 .5-.7 1-1.5 1s-1.5-.5-1.5-1c0-.6.7-1 1.5-1s1.5.4 1.5 1m6-.1c0 1.6-4.3 5.8-6.8 6.5-1.2.4-2.1 1.3-2 2.1.2.7-.8 2.1-2.1 3.2-1.6 1.3-2.2 2.6-1.8 3.6.7 2 2.8 1.4 4.5-1.3 1-1.6.9-1.8-.3-1.4-.8.4-1.5 1-1.5 1.5s-.4.9-1 .9c-1.6 0 0-2.7 2.3-3.8 1.2-.6 3.4-1.3 5-1.6 2.2-.5 2.7-.3 2.7 1.4 0 1.1.4 2 1 2 1.5 0 0-3.3-2.4-5.2-1.4-1.2-1.7-1.8-.7-1.8.8 0 2.3.7 3.3 1.7 1 .9 1.8 1.1 1.8.5s-.9-1.6-2-2.2c-2.4-1.3-1.8-3 1.1-3 1.2 0 1.9-.7 1.9-2 0-1.1-.7-2-1.5-2s-1.5.4-1.5.9m-4 8.1c0 .5-.9 1-2.1 1-1.1 0-1.7-.5-1.4-1 .3-.6 1.3-1 2.1-1s1.4.4 1.4 1m-9.5 57.7c-.4 1.5-1.1 3.8-1.7 5-.8 1.7-.8 2.6.2 3.8 1.9 2.3 3.1-.1 2.3-4.9-.5-3.4-.4-3.8 1-3.3 2.1.8 2.2 0 .2-1.9-1.3-1.3-1.5-1.1-2 1.3m.5 6.9c0 .8-.5 1.2-1 .9-.6-.4-.8-1.1-.5-1.6.9-1.4 1.5-1.1 1.5.7m-854.4-84.1c-.3.8-1.4 1.5-2.5 1.5s-2.3.4-2.6 1c-.3.5-1.9 1-3.4 1-1.6 0-3.4.7-4.1 1.5s-2 1.5-3 1.5c-.9 0-2.5 1-3.6 2.1-1 1.2-3 2.5-4.3 3s-2.1 1.2-1.8 1.5c.6.6 6.3-2.2 7.1-3.5 1.2-1.9 12.5-6.4 16.4-6.6.8 0 1.9-.7 2.5-1.6.7-.9 1.9-1.8 2.7-2.2 1-.4.9-.6-.6-.6-1.2-.1-2.4.6-2.8 1.4m655.7 64.2c-.5 1.2.3 2.5 2.6 4.2 1.8 1.5 7 5.5 11.5 9.1 4.4 3.6 12.8 10.2 18.6 14.7 14.2 11.1 18.1 14.8 23.4 21.6 7.4 9.8 16.6 34.7 16.6 45.1 0 2.3-1 6.1-2.1 8.6-2.1 4.6-7.5 11-9.3 11-.6 0-3.1 2.2-5.6 4.9-3.9 4.2-5.2 5-9.6 5.6-3.9.5-6 .3-8.3-.9-2.8-1.5-3.4-1.5-6.7-.1-5.2 2.2-9.2 1.8-14.9-1.3s-10.5-9-16-19.9c-2.2-4.1-5-8.2-6.2-9-1.3-.9-2.3-2.1-2.3-2.8 0-2-8.4-9-15.4-12.9-8.5-4.7-18.5-7.2-36.8-9.1-8.6-.9-18.1-2.3-21-3.1s-7.4-1.8-9.9-2.1c-3.8-.4-4.7-.2-5.3 1.2-.5 1.3.8 3.1 4.6 6.6 14.1 13.1 16.6 16 20.7 24.1 2.3 4.6 4.5 10.2 4.8 12.6s1.1 4.2 1.8 4.2c.8 0 7.3-2.2 14.7-4.9 7.3-2.6 16.5-5.9 20.3-7.1 3.9-1.3 9.7-3.6 13-5.2 6.1-2.8 8.5-3.4 8.5-2.1 0 1.2-13.2 7.2-20.3 9.4-7.6 2.2-34.8 12.1-36.4 13.2-.7.4-2.1 3.7-3.2 7.3-2.4 8-6.1 13.6-10.4 15.7-15.8 7.4-25.7 10.2-27.3 7.6-.4-.8-2.9-.9-7.8-.4-9.3.8-13.5-1-24.3-10.9-12.3-11.2-17.9-15.4-26.3-19.5-10.4-5.2-20.1-7.4-40.5-9.1-20.2-1.7-49.1-5-53-6.1-2.2-.6-6.5-1.5-9.5-1.9-10.4-1.4-20.3-4-25.1-6.7-5.2-2.8-4.5-2.8-19.9 0-10.5 2-31.6 5.4-37.2 6.2-2.7.3-4.8 1.1-4.8 1.6s1.2 2.8 2.7 5.2c2.4 3.7 2.8 5.4 3.1 13.5l.4 9.4-5.5 5.3c-9.1 8.9-12.1 10-26.7 10.1-6.9.1-14.5.7-17 1.4-4.4 1.2-18 .9-26.2-.6-3.8-.7-3.8-.6-3.8 2.6 0 7.6-10.7 19-17.9 19-1.4 0-4.5 1.4-6.9 3-5.8 3.9-13.9 5.7-19.1 4.2-2.1-.7-6.4-1.2-9.5-1.2-10.7 0-18.8-2.6-25.8-8.2-9.9-7.9-16-10.4-44.8-18.2-35.1-9.6-56.9-18.7-65.2-27.3-4.1-4.3-6.8-10.8-6.8-16.8 0-4.4 3-11.1 8.5-19 2.1-2.9 3.1-5.3 2.6-5.8s-3.7-1.6-7-2.3c-3.3-.8-8.3-2.8-11.1-4.4-2.8-1.7-5.4-3-5.8-3s-2.7-1.6-5.1-3.5c-4.7-3.8-6.1-4.1-9.3-2.4-4.2 2.3-14.4 10.2-17.7 13.7-3 3.3-3.3 4.2-2.9 8.2.8 8.1 5.8 16.7 15.1 26.1 4.7 4.7 10 9.3 11.8 10.3 4.1 2 6.1 3.2 11.4 6.6 7.2 4.7 19.7 10.7 34 16.3 7.7 3.1 17.2 6.9 21 8.5 3.9 1.6 9.7 3.9 13 5 3.3 1.2 12.3 5 20 8.6 18.2 8.4 27.7 15.6 33.4 25.5 3.7 6.2 4.3 8.3 5.6 18.1 1.5 11.4.8 18.9-2.3 24.7-1.3 2.3-6.9 7.3-8.2 7.3-.5 0-3.5 1.2-6.7 2.7-5.5 2.6-6.5 2.8-18.8 2.7-12-.1-13.8-.4-23.5-3.7-5.8-1.9-13.2-4.7-16.5-6.2s-10.5-4.4-16-6.6-11.3-4.6-13-5.3c-1.6-.7-7.3-3-12.5-5.1-26.6-10.4-59.1-25-66.5-29.7-15-9.7-33.8-28.3-42.5-42.3-11-17.5-16.3-43.8-12.9-64.4 1.2-7.5 6.5-21.1 11.6-29.3 4-6.7 3.6-8.8-1-5.9-1.8 1-4.8 2.2-6.7 2.6s-5.1 1.6-7.1 2.6c-2.9 1.4-6.9 1.9-21.3 2.3-9.8.3-18.1.8-18.4 1-.3.3 7.8.3 17.9 0 15.2-.4 19.1-.8 22.4-2.4 2.2-1.1 6-2.3 8.4-2.9 2.4-.5 4.8-1.4 5.4-2 2.6-2.6 2.4-.7-.3 3.3-3 4.4-7.8 15.2-10.6 23.6-.8 2.5-1.7 10.4-2.1 17.6-.5 11.4-.3 14.4 1.6 22.5 3.2 13.6 4.8 18.4 9.7 27.6 8.2 15.8 28 36.5 44.9 47 5 3.2 19.1 9.9 30 14.5 12.5 5.3 18.9 8 24.2 10.4 1.7.8 3.4 1.4 3.8 1.4s2.1.6 3.8 1.4c6.6 2.8 13.6 5.6 23.7 9.6 5.8 2.3 15 6.1 20.5 8.5 28.2 12.2 50.6 14.9 64 7.5 1.7-.9 4.2-2 5.6-2.3 4.6-1.2 8.5-6.7 10.2-14.6 1.5-6.4 1.5-8.2.2-18.3-1.5-11.3-3.7-17.3-9-24.3-2.1-2.8-16.5-14.5-17.9-14.5-.3 0-5-2.1-10.3-4.6-13.4-6.2-14.4-6.7-26.3-11.2-35.1-13.4-55.9-22.7-63.9-28.7-1.9-1.4-3.9-2.5-4.3-2.5-2.4 0-12.8-7.9-19.5-14.8-5.2-5.4-8.5-9.8-10.9-14.9-3.6-7.6-4.7-15-1.9-13.9.8.3 1.4.2 1.3-.2-.4-2 2.1-4.8 8.6-9.6 10.8-8 11.4-8.2 14.5-5.7 5.1 4.1 18.7 11 23.6 12.1 9.1 2 8.8 1.6 4.9 6.8-5.5 7.5-8.4 14.5-8.4 20.7 0 2.9.4 5.6.9 5.9s1.2 2.1 1.5 3.9c2 10.6 25.6 22.2 70.2 34.2 27.3 7.4 34.3 10.3 43.7 18 4.4 3.6 7.3 5 13.3 6.5 4.3 1.1 10.1 2 13.1 2s7.4.5 9.9 1.1c5.9 1.5 15-.4 20.7-4.2 2.3-1.6 5.4-2.9 6.8-2.9 7.2 0 17.9-11.4 17.9-19 0-3 .2-3.2 2.8-2.6 7.5 1.6 21.9 1.8 27.7.4 4.1-1.1 9.4-1.4 16.5-1.2 9.3.3 11.1.1 15.5-2 2.8-1.2 7.5-4.6 10.5-7.3l5.5-5.1.3-9.3c.3-8.7.1-9.8-2.6-15.1l-2.9-5.8 3.1-.4c13.2-2 35.3-5.8 47.8-8.1 2.8-.6 4.8-.2 9 1.9 5.5 2.7 14.7 5.1 25.3 6.5 3.3.5 7.8 1.4 10 2 3.9 1.1 32.9 4.4 53 6.1 31.9 2.7 42.2 7 64.5 27.5 4.7 4.3 10.9 8.9 13.8 10.2 4.7 2.2 6.1 2.4 12.1 1.8 4.7-.5 7.1-.3 7.6.4 1.1 1.8 11.2.2 18-2.8 3.3-1.5 7.3-3.1 8.7-3.4 4.6-1.2 9.6-7.3 11.9-14.6 2.8-9.1 4-10.6 10.1-12.5 2.9-.9 6.2-2.1 7.3-2.6 3.3-1.4 15.5-5.8 25.1-9 5-1.6 11.2-4.1 13.9-5.5 3.1-1.7 5.1-2.2 5.9-1.6.6.5 3.3 5 6 9.9 6.4 11.9 9.7 15.7 16 18.7 5.8 2.7 10.5 3.1 15.1 1.1 2.5-1 3.6-1 6.4.1 2.3 1 5 1.2 8.9.7 5-.6 6.2-1.2 10.8-5.8 2.9-2.8 6.8-6.4 8.8-7.9 4-3.2 7.6-11.5 7.6-17.5 0-7.1-6.4-28.2-11.8-38.7-4.1-8.1-12-16.1-28.2-28.8-5.8-4.5-13.9-10.9-18-14.2s-9.2-7.3-11.3-8.8c-4.6-3.5-3.9-5.3 1.1-2.7 2 1 7.8 2.3 12.7 3 8.2 1 15.8 2.5 33 6.6 26.1 6.3 44.8 17 54.7 31.5 4.6 6.9 5.4 10 6.9 29.1 1.4 18.5.7 94.3-1.1 105.3-2.2 14.2-9.9 22.3-30.4 32.2-7.7 3.7-23.9 11.6-35.9 17.6-12 5.9-24.4 11.8-27.5 13.1-3.1 1.4-9.7 4.3-14.7 6.6-4.9 2.3-11.9 5.5-15.5 7.2s-11.7 5.5-18 8.6c-24.6 11.8-38.1 18.2-38.6 18.2-.3 0-7.6 3.4-16.2 7.6-53.7 26.1-65.5 31.5-92.2 42.4-5.8 2.3-12.3 5-14.5 6s-4.8 2-5.7 2.3c-1 .4-1.8 1.1-1.8 1.6s2.3-.2 5-1.5c2.8-1.3 6.7-3 8.8-3.8 4.1-1.5 22.6-9.1 25.7-10.6 1.1-.5 9.4-4.3 18.5-8.3 9.1-4.1 23.5-10.9 32-15s17.1-8.2 19-9.1c1.9-.8 4.2-2 5-2.6.8-.5 7.1-3.5 14-6.6 13.9-6.3 21.3-9.7 44-20.7 8.5-4.1 17.8-8.5 20.5-9.7 2.8-1.2 8.7-4 13.2-6.1 4.6-2.2 8.6-3.9 8.9-3.9.4 0 10.2-4.7 21.8-10.4s27-13.2 34.1-16.5c19.4-9.2 24.6-12 28.5-15.4 5.7-5 9.9-10.9 11.5-16.1 5.1-16.8 4.5-124.3-.7-136.2-2.1-4.9-8.4-12.9-14-17.8-12.9-11.3-41.6-21.2-77.3-26.5-6.5-.9-12-2.3-13.5-3.4-3.1-2.2-4.9-2.2-5.7 0m-81.5 66.7c2.9.8 12.4 2.2 21 3.1s18.4 2.3 21.7 3.2c7.7 1.9 19 8.1 25.2 13.7l4.8 4.4-3 .8c-1.6.4-5.5 1.9-8.5 3.4s-7.3 3.3-9.5 4c-4.8 1.4-18.7 6.4-27.2 9.6-3.4 1.3-6.5 2.4-7 2.4-.4 0-1.4-2.4-2-5.3-2.9-12.4-10.1-22.6-24.6-35-3.2-2.7-5.4-5.3-5.1-5.9.8-1.2 6.6-.5 14.2 1.6"/><path d="M860.3 731.3c-3.3.7-4.3 1.5-4.3 3 0 1.8.5 1.9 4.8 1.3 2.6-.4 6.8-.9 9.5-1.3 2.6-.3 4.7-.9 4.7-1.3s-2.1-.3-4.7.1c-11.9 2-13.3 2.2-13.3 1.1s7.7-3 14.5-3.5c2.8-.3 2.3-.4-1.5-.4-3 0-7.4.4-9.7 1M330 758.7c-1.4.3-5.4 2.7-9 5.3s-8.7 6-11.5 7.5c-2.7 1.4-5 3.1-5 3.7s2.9 2.2 6.5 3.5 7.6 2.8 9 3.4c13.2 5.6 26.8 16.9 34.5 28.5 3.6 5.4 5.2 6.4 15.5 9 6.9 1.7 19.8 1.4 25.6-.6 4.2-1.6 6.7-5.5 7.2-11.7.7-8.5-1.4-13.9-7.8-20.5s-5.2-7.9 1.5-1.7c6.2 5.7 10.5 14.6 10.5 21.8 0 3.1-.7 6.9-1.5 8.4-2.5 4.9-1.1 6 6.6 5.5 7.9-.6 11.5-2.5 13.5-7.3 2.9-6.9.6-20.8-4.3-26.6-.7-.8-1.3-2.1-1.3-2.9 0-2 3.8 3.3 7.6 10.6 2.5 4.9 3.4 7.8 3.4 11.5 0 3.5.4 4.9 1.4 4.9 2.4 0 2.9-7.1 1.2-14.2-2.4-9.3-7.6-16.3-16.8-22.4-11.7-7.9-21.4-11.2-40.8-14-15.5-2.2-38.5-3.1-46-1.7m46.1 2.7c14.4 2 17.8 2.9 26 6.5 13 5.8 20.5 11.3 25.6 18.8 4.6 6.9 6.9 15.3 5.7 20.6-.8 3-.8 2.8-1.5-2.5-.7-6.5-4.7-15.4-9.2-20.5-2.6-2.9-3.2-3.2-3.9-1.9-.6 1.1-.3 2.5 1.1 4.5 3.8 5.3 6.1 12.1 6.1 17.9 0 9.9-5.3 15.2-15.3 15.2-5 0-6.2-.7-4.6-2.7.7-.7 1.4-4.4 1.6-8.1.4-5.2 0-7.9-1.7-12.4-2.4-6.4-9.9-15.5-13.5-16.4-4.9-1.2-4.6.8 1 6.7 6.6 6.9 8.5 11 8.5 18.1 0 5.7-2.7 10.9-6.7 12.7-4.8 2.2-17.7 2.5-25.4.6-9.1-2.2-10.8-3.3-14.7-9.3-9.2-14.2-22.3-23.5-44.1-31.5l-6.3-2.3 5.3-2.8c2.9-1.5 8.3-4.9 11.9-7.6 3.6-2.6 7.4-5 8.5-5.3 5.8-1.4 30-.5 45.6 1.7m-357.6-1.3c-1.6.5-6.6 1-11 1.1-7.5.1-7.7.2-2.5.7 3 .3 8.6.1 12.4-.6 8.8-1.6 9.8-1 6.8 4.4-1.9 3.4-1.4 3.9 1.1 1.2 1.6-1.6 2-2.8 1.4-3.7q-.9-1.2.3-1.2c1 0 1-.3 0-1.5-1.4-1.7-4-1.8-8.5-.4m962.1 20.8c-.3.4-.8 9.6-1.2 20.3l-.7 19.6 22.2.7c12.2.4 22.4.5 22.7.2.3-.2-9.5-.8-21.7-1.2l-22.2-.7.7-18.6c.4-10.2.9-18.9 1.1-19.3.3-.4 10.1-.5 21.8-.2 11.6.3 21 .3 20.7 0-.8-.8-42.9-1.6-43.4-.8m-148.4 31.3c-.7.7-1.2 1.8-1.2 2.6 0 1-.8 1.2-3.2.7-1.8-.4-3.6-1.2-3.9-1.8-.8-1.2-3.9-.2-3.9 1.3 0 .5.5 1 1 1 .6 0 1-.5 1-1.1 0-.5.5-.7 1-.4 2.5 1.6-5.7 5.5-12.7 6.1-1.8.2-4.1.8-5 1.4-1.6.9-1.5 1 .5.5 1.3-.4 3.8-.8 5.5-1.1 5.8-.6 9.2-1.7 11.6-3.6 1.7-1.3 3.3-1.7 5.5-1.3 2.7.5 3.3.2 4.3-2.1 1.4-3.1 1.2-3.9-.5-2.2m146.4 18c-.4 3.5-.9 27.9-1.1 54.3-.9 91-1.6 95.1-19.5 107-3.9 2.6-7 4.7-7.1 4.8 0 .1-.5 5.4-.9 11.7-.5 6.3-1.1 12.6-1.4 14s.1.7.8-1.5c.8-2.2 1.5-7.7 1.5-12.2.1-4.5.4-8.9.7-9.8.4-.9 3.8-3.7 7.5-6.2 17.6-11.5 18.5-16.8 19.4-107.8.2-27 .7-51.4 1.1-54.3l.7-5.3 22.1.7c12.2.4 21.9.4 21.6.2-.3-.3-10.4-.9-22.6-1.2l-22.1-.7zM635 828.5c-5.3 1.9-26.8 9.7-40.5 14.6-1.6.6-8.2 2.8-14.5 4.9s-14.2 4.8-17.5 6-14.1 5.1-24 8.5-23.2 8.1-29.5 10.4-17.1 6-24 8.3c-6.9 2.2-18.8 6.4-26.5 9.3s-23.7 8.5-35.5 12.4-24.9 8.3-29 9.7-8.8 3-10.5 3.5c-2.4.6-37.6 12.7-44.5 15.2-.8.3-9.4 3.5-19 7.1s-18.8 6.8-20.5 7.2c-1.6.4-3.4 1-4 1.4-.5.4-3.5 1.5-6.5 2.4-3 1-6.4 2.1-7.5 2.6s-7.4 2.7-14 4.8c-11.9 3.9-17.1 5.1-31.2 7.3-6.1.9-7.3 1.4-7.3 3 0 1 .7 1.9 1.5 1.9 3.2 0 22.3-3.1 28-4.6 6.6-1.7 52.3-16.8 57-18.9 1.7-.7 6.4-2.4 10.6-3.9 4.2-1.4 11.9-4.2 17-6.2 12.6-4.8 44.8-15.9 81.4-28.1 16.5-5.5 34.5-11.7 40-13.7 5.5-2.1 10.9-4 12-4.3 1.1-.2 2.9-.9 4-1.4s10.6-3.9 21-7.5c27.6-9.6 29.7-10.3 56-19.6 13.2-4.7 26.7-9.3 30-10.2s6.9-2.1 8-2.6c1.8-.9 25.3-9.5 42.3-15.5 7-2.5 8.8-3.8 7.8-5.4s-3.2-1.3-10.6 1.4m9.4-.6c.3.4-3.8 2.4-9.2 4.4-5.3 1.9-14.2 5.2-19.7 7.2s-22.8 8.1-38.5 13.5c-15.7 5.3-31.6 10.9-35.5 12.3-3.8 1.3-20 7-36 12.6-15.9 5.6-36.3 12.9-45.3 16.2-16.4 6-45.1 15.8-61.7 20.9-9.4 2.9-41.9 14.2-59 20.6-35.6 13.1-62.5 22.5-77.6 26.8-9.1 2.6-30.7 6.1-31.7 5.2-1.1-1.2.8-1.8 9.5-3.1 15.8-2.4 22.4-4.3 63.3-19 3.6-1.2 8.8-3 11.5-4 2.8-.9 5.9-2.1 7-2.6 4.6-2.1 72.3-25.7 83-28.8 8.9-2.7 48.2-16.2 62-21.4 6.6-2.5 17-6.1 23-8 6.1-2 16.2-5.4 22.5-7.7s18.9-6.8 28-10 19.9-7 24-8.4c4.1-1.5 16.7-5.8 28-9.6 11.3-3.9 27-9.4 35-12.5 15.2-5.7 16.5-6 17.4-4.6M417 829.5c-1.4.8-3.9 1.4-5.7 1.5-1.7 0-3.4.4-3.7.9-.4.5-2.9 1.4-5.7 2-4.5 1-5.3.9-6.4-.5-1.3-1.8-3.5-1.2-3.5 1 0 .9-4.1 1.6-14.5 2.6-11.6 1-14.5 1.6-14.5 2.8 0 1 .3 1.2 1.3.4.6-.6 8.9-1.8 18.2-2.7 9.4-1 19.6-2.6 22.7-3.6 3.2-1 6.8-1.9 8-1.9 1.3 0 3.4-.9 4.8-2 2.9-2.3 2.5-2.5-1-.5m-22 4.5c0 .5-.4 1-1 1-.5 0-1-.5-1-1 0-.6.5-1 1-1 .6 0 1 .4 1 1M94.1 881.6c-1 2.2-.9 3 .4 4.4.8.9 1.2 2 .8 2.3-.3.4.3.7 1.3.7 1.1 0 3.9.9 6.2 2 2.2 1.1 4.5 2 5 2s1.5.7 2.2 1.5 2.8 1.7 4.9 2.1c2 .3 4.7 1.3 6 2.1 1.2.8 3.1 1.3 4.1 1 1.2-.3 2.1.1 2.3 1.2.3 1 .5.8.6-.8.1-1.8-.3-2.2-1.5-1.7-2.2.9-7.3-1.5-8-3.6-.6-2.1-2.5-2.3-4.2-.6-.9.9-1.6.8-2.9-.4-1-.8-3.4-2.1-5.3-2.7-5.5-1.8-10.3-5-9.6-6.6.3-1 0-1.2-1.1-.8-1.3.5-1.4.3-.3-1.6.6-1.3 1-2.5.7-2.7-.2-.2-.9.8-1.6 2.2M117 895c0 .5-.4 1-1 1-.5 0-1-.5-1-1 0-.6.5-1 1-1 .6 0 1 .4 1 1m772-7c-2.5 1.6-8.1 4.7-12.5 6.9-4.4 2.1-19.9 9.7-34.5 16.9-25.3 12.4-35.9 17.6-60.5 29.2-6.1 2.8-15.5 7.4-21.1 10.1-5.5 2.7-10.4 4.9-10.8 4.9-.5 0-8.1 3.5-17 7.9-8.8 4.3-20.6 10-26.1 12.6s-17.3 8.3-26.3 12.7c-15.5 7.6-16.4 7.9-17.7 6.2-1.3-1.8-1.4-1.8-.9.1.4 1.5-.2 2.4-1.8 3.3-5.4 2.7-22.9 10.2-23.8 10.2-.5 0-3.8 1.3-7.2 2.9-14.4 6.6-23.3 10.1-23.6 9.1-.4-1.1-4.2-1.4-4.2-.3 0 .5.5 1.5 1.1 2.3.9 1.3 1 1.2.5-.3-.7-2.1.2-2.1 2.8-.2 1.2.9 2.2 1.1 2.6.6.6-1.1 25.6-12.3 31.5-14.1 2.2-.7 5.1-1.9 6.5-2.6 5-2.7 18.3-8.4 19.6-8.4.8 0 1.4-.5 1.4-1 0-.6.5-1 1-1 .6 0 8.8-3.8 18.3-8.4s21.7-10.5 27.2-13.1 15.6-7.5 22.5-11c6.9-3.4 13.6-6.6 15-7s7.5-3.1 13.5-6c23.1-11.1 37.3-17.9 46.5-22.1 5.2-2.5 10.6-5.1 12-6 1.4-.8 3.8-2 5.4-2.6s10.6-5 20-9.7 20-9.9 23.6-11.6c3.6-1.6 10.2-5 14.8-7.6l8.2-4.7v16.6c-.1 33.5-2 108.8-2.9 112.7-.6 2.1-2 4.7-3.3 5.6-1.2 1-2 2-1.8 2.3 1.4 1.3 5.3-3.4 6.1-7.5.9-4.4 2.8-81.5 2.9-113.7 0-13.1-.3-17.2-1.2-17.1-.7 0-3.3 1.3-5.8 2.9M.5 893.8c.6.5 3.7 1.5 7 2.2 22 4.9 68.7 19.5 99.5 31.1 22.2 8.3 52 22.3 60.4 28.3 19.8 14.1 30.2 33.2 32.6 60.1l.9 9-.4-9c-.3-9.1-3.2-22.8-6-28.1-.8-1.6-1.5-3.6-1.5-4.5 0-2.1-7.6-12.8-13.4-18.9-8.8-9.2-18.6-15-43.1-26-1.1-.5-5-2.2-8.6-3.8-23.6-10.6-87.4-31.4-120.9-39.3-2.5-.6-5.2-1.3-6-1.6-.9-.2-1.1-.1-.5.5"/><path d="M1.5 899c1.1.4 10.1 2.9 20 5.6 24.3 6.4 84.7 26.4 91.7 30.4 1 .6 2.2 1 2.7 1 1.7 0 40.3 19.4 46.1 23.2 5.2 3.3 14.5 12.1 18.8 17.8 8.2 10.6 12.6 24.6 12 38.4-.2 4.6 0 8.2.4 7.9 1.6-.9.8-17.8-1.1-25.4-1.9-7.3-6.3-16.7-10.3-21.9-4.3-5.6-13.6-14.5-18.6-17.7-6.9-4.4-39.6-20.7-48.1-23.9-3.6-1.4-10-3.7-14.1-5.1s-7.9-2.9-8.5-3.3c-1.9-1.4-48-16.2-67-21.4-18.4-5.2-28.3-7.5-24-5.6m132 5c.3.5 2 1.2 3.8 1.6 1.7.3 4.3 1.1 5.7 1.7s2.7 1.1 3 1.2c.3 0 2.1.9 4 2 4.5 2.5 9.4 4.2 14.2 5 2.1.4 4.1 1.1 4.4 1.6.3.6 1.5.7 2.6.3 2-.6 8.8 2.3 8.8 3.8 0 .4 1.7 1 3.8 1.4 2 .4 5.2 1.5 7 2.6 1.8 1 4.3 1.8 5.5 1.8s3.5.7 5.1 1.5c1.5.8 3.3 1.2 3.9.8.5-.3 2.4-1 4.1-1.4l3.1-.7-3.2-.1c-1.7-.1-3.5.4-3.8.9-.4.7-1.1.8-1.8.2-.7-.5-2.8-1.3-4.7-1.6-5.8-1.2-10.9-3.7-10.3-5.2.8-2.2-2.6-2.9-4.1-.9-1 1.5-1.5 1.5-2.7.4-.8-.8-2.8-2.2-4.4-3.1-1.7-.9-3.1-2.6-3.3-3.7-.4-2.2-2.6-2.8-3.7-1.1-.3.6.1.7.9.4 1-.4 1.6-.1 1.6.9 0 1.8-2.7 3-3.5 1.7-.4-.6-1.4-1-2.4-1-2.8 0-13.3-3.6-16.7-5.6-1.7-1.1-2.9-2.5-2.7-3.1.6-1.7-2.7-2.9-3.7-1.4-.6 1-1.9.9-5.9-.3-2.8-.8-4.9-1.1-4.6-.6m13.5 1.4c0 .3-.4.8-1 1.1-.5.3-1 .1-1-.4 0-.6.5-1.1 1-1.1.6 0 1 .2 1 .4m41 15.6c0 .5-.4 1-1 1-.5 0-1-.5-1-1 0-.6.5-1 1-1 .6 0 1 .4 1 1m690.6-6.2c-.3.6-1.4.9-2.4.7-.9-.1-1.1 0-.4.2.6.3 1.2 1 1.2 1.6s.7.4 1.7-.6c.9-.9 1.4-1.9 1.1-2.2-.3-.4-.9-.2-1.2.3m-43.2 24.5c-1 1.2-1.2 1.6-.4.9 1.7-1.4 3-1.6 3-.2 0 .5-1.8 1.9-4.1 3-2.3 1.2-3.9 2.4-3.6 2.6 1.1 1.1 8.7-3.9 8.7-5.6 0-2.9-1.5-3.2-3.6-.7m-639.1 26.4c-3.6.3-4.3.8-4.3 2.5 0 2 .4 2.1 9.1 1.6s11.7-1.7 10.3-4c-.5-.8-6.8-.8-15.1-.1m5.7 1.8c0 1.1-1.2 1.5-4.5 1.5-5.4 0-6-1.7-.7-2.3 2-.2 4-.4 4.5-.5.4-.1.7.5.7 1.3m8-.5c0 .5-.6 1-1.2 1-.7 0-2.3.3-3.5.6-1.7.5-2.3.2-2.3-1s.9-1.6 3.5-1.6c1.9 0 3.5.4 3.5 1"/><path d="M150 991.4c-2.5.8-7.6 2.5-11.5 3.8-11.4 4.1-76.1 25.6-78 26-1 .1-2 .9-2.3 1.6-.3 1.1 0 1.1 1.4.3 1.1-.6 18.1-6.5 37.9-13 19.8-6.6 39.7-13.3 44.2-14.9 9.1-3.3 17.5-5.1 15.8-3.4-.6.6-6.2 2.9-12.5 5.2-21.6 7.7-36.5 12.8-46.5 16-5.5 1.7-11.3 3.8-13 4.5-4.8 2.1-12.7 4.5-14.8 4.5-1.1 0-1.8.3-1.5.6 1 .9 5.8 1.2 5.8.4 0-.5 2.6-1.7 5.8-2.8 3.1-1 16.1-5.4 28.7-9.6 12.7-4.3 24.4-8.4 26.1-9.2s7.6-2.9 13-4.7c7-2.3 10-3.7 10.2-5 .4-2.1-2.2-2.2-8.8-.3m784.5 13.4c-14.6 9.6-19.2 12.4-25.7 15.5-5.4 2.5-5.9 3.2-2.4 3.2 1.3 0 2.2-.2 2-.4-.4-.4 10.2-7.1 11.2-7.1.3 0 3.4-2 7-4.5 3.5-2.5 6.7-4.5 7-4.5s1.8-.9 3.4-2c1.5-1.1 2.9-1.7 3.2-1.5.2.2.1 3-.3 6.2s-.7 7.8-.7 10.3.6-.2 1.3-6c.6-5.8 1-10.8.8-11.3-.7-1.2-2.7-.7-6.8 2.1"/></g></svg>