<svg xmlns="http://www.w3.org/2000/svg" width="1365.333" height="1365.333" preserveAspectRatio="xMidYMid meet" version="1.0" viewBox="0 0 1024 1024"><g fill="#000" stroke="none"><path d="M419.9 12.7c-.4 78.8-1 147-1.3 147.9-.3.8-1.8.9-5.3.3-2.6-.5-10.6-1.4-17.8-2-48.5-3.8-47-3.7-77.5-4.6-29.4-1-105.1-.8-128.1.2-9 .3-18.9.7-21.9.6-8.5 0-45.7 2.8-53.5 4.1-3.8.6-12.2 1.2-18.5 1.3-9.9.2-24.9 2-48 5.5-3 .5-10.5 1.5-16.6 2.3s-12 1.9-13 2.5c-1.1.5-5 1.3-8.9 1.7s-7.7 1.2-8.5 1.7c-1.2.7-1.1.8.5.4 1.1-.2 4.9-.8 8.5-1.1 3.6-.4 8.1-1.3 10-2s8-1.9 13.5-2.5c5.5-.7 12.3-1.6 15-2 19.9-3.2 37.7-5.3 47.5-5.5 6.3-.1 14.7-.7 18.5-1.3 7.8-1.3 45-4.1 53.5-4.1 3 .1 12.9-.3 21.9-.6 23-1 98.7-1.2 128.1-.2 26.1.8 32.3 1.1 52 2.6 6.9.6 18.5 1.5 25.8 2.1 7.3.5 15.3 1.5 17.9 2 2.5.6 5 .7 5.4.3.8-.9 2.2-162.3 1.4-162.3-.3 0-.5 5.7-.6 12.7m13.6-11.5c-1.1 3.4-2 153.3-.9 160 .6 4.1.5 4 12.9 5.8 6.8 1 16.3 2.8 25.3 4.7 2.2.5 2.2.5 2.3-13.8.1-7.9.3-18.7.5-23.9.1-5.2.6-21.9.9-37s.8-33.6 1-41C476.9 8.6 477-.4 476.6.1c-.3.3-.8 9.7-1.1 20.9-.3 11.3-.8 27-1 35-.3 8-.7 25.5-1 39-1 47.7-1.7 75.5-2 75.8-.1.1-3.7-.6-7.9-1.8-4.1-1.1-9.1-2-11-2-3 0-7.2-.7-16.3-2.5-1.4-.3-2.4-1.5-2.7-3.2-1.1-5.1-.2-156.8.9-160.1.2-.6.2-1.2-.1-1.2-.2 0-.7.6-.9 1.2m55.1 2.3c-1 4.9 0 7.2 3.7 9.2 2.9 1.5 14.3 1.7 135.2 1.9 114.2.2 149 .6 181.5 2 6.2.3 30.5.3 121.5 0l41-.1.1-8.5.1-8.5-.6 8-.6 8-40.5.1c-89.8.3-114.8.3-121 0-32.5-1.4-67.3-1.8-181.6-2l-132.1-.2-3.2-2.3c-3.1-2.2-3.2-2.6-2.6-6.7.7-5.2 0-5.9-.9-.9m495.6 26c-.2 30.1-.2 184.9 0 191.5.1 1.9 0 14.7-.1 28.5-.1 13.7-.1 28.8-.2 33.5 0 4.7 0 9.6-.1 11-.1 3.7 0 48 .2 51.5.1 1.6.1 3.9.2 5 .4 16.4-1.6 142.7-2.3 147.4l-1 6.5 3.1 2.4c7.5 5.9 16.9 18 19.4 24.9 1 2.7 2.4 6 3.1 7.4.8 1.4 2.6 8.6 4.1 15.9 2.3 11.9 2.6 14.9 2.2 29.9l-.5 16.6-4.6 13.5c-4.8 14.2-7.4 19.9-10.5 23.4-1.1 1.2-2.5 3.2-3.2 4.5-4.1 7.9-19.3 24.8-26.5 29.4-2.7 1.8-5.9 3.7-7 4.3-3.7 2.1-5.2 6.6-6.4 20.3-1.4 15-.4 21.8 3.4 22.7 3 .7 49.7 1 59 .4 4.4-.3-7-.6-25.4-.7-18.3-.1-33.7-.5-34.1-1-2.6-2.8-3.2-8.7-2-21.1 1.3-14.3 2.7-17.8 8.1-20.4 1.9-.9 4.1-2.3 4.8-3.2.8-.9 1.9-1.6 2.5-1.6 2.5 0 21.3-21.6 25-28.7.8-1.6 2.2-3.5 3-4.3 2.2-1.7 7.4-13.4 9.6-21.5.5-1.7 1.9-5.7 3.1-9 1.8-5 2.3-8.8 2.6-23 .5-15.6.3-18.3-2.2-31-1.5-7.7-3.3-15.1-4-16.5-2.1-4.1-4.5-9.7-4.5-10.7 0-2.4-12.3-17-17.9-21.4-3-2.4-3.1-2.5-2.1-8.4.8-5 2.6-138.6 2.1-148-.2-3.5-.2-1.6-.3-30.5 0-12.4 0-23.6.1-25 0-1.4.1-6.3.1-11s0-19.8.1-33.5c.1-13.8.2-26.6.1-28.5-.3-8.4-.1-176.3.1-184 .2-4.7 0-15-.3-23-.5-11.8-.6-9-.8 15.5M494.8 38c-2.7.3-5.3 1.1-6 1.8-1.5 1.5-2.5 21.3-3.2 66.2-.9 50.7-.7 66.3.7 67.6.7.7 5.5 2.4 10.7 3.9 5.2 1.4 10.5 3.3 11.7 4.1s2.9 1.4 3.7 1.4c.7 0 4.6 1.3 8.4 3 3.9 1.6 7.7 3 8.4 3 1.1 0 1.3-13 1.1-71.8-.1-39.4-.6-73.3-1.1-75.2-.7-3.2-1.2-3.6-5.2-4.2-5.2-.8-22.4-.7-29.2.2m28.6.8c3.3.6 4.1 1.2 4.8 3.7 1.3 4.4 1.6 145.5.3 145.5-.6 0-2.6-.8-4.5-1.8s-5.5-2.4-8-3.2c-2.5-.7-5-1.7-5.5-2.1-.6-.4-5.7-2.1-11.5-3.9-5.8-1.7-11-3.6-11.7-4.3-1.7-1.7-1.6-43.3.2-107.7.8-24.7 1.1-25.7 7.7-26.2 8.9-.7 24.5-.7 28.2 0m21.7 27.4c-2 .7-2.2 1.4-1.9 6.9l.3 6.1 17 .1 17 .2V65.9l-15.1-.3c-8.4-.1-16.1.1-17.3.6m31.4 6.5v5.7h-16.2l-16.3.1v-5.2c0-3.7.5-5.5 1.6-6.1.9-.5 8.2-.7 16.2-.6l14.7.3zM833 66.4l-10.5 1.1v51c.1 28 .2 52.3.3 54 .1 1.6-.1 13.9-.4 27.2l-.6 24.3 11.8.1c6.6.1 14.5.2 17.7.3 3.3.1 6.4-.2 7-.6.8-.5 1.1-20.3 1-73-.1-62.2-.3-72.9-1.7-76.8-1-3-1.2-4.8-.5-5.6 1-1.2-.4-1.6-11.1-2.8-1.4-.1-7.2.2-13 .8m20.7 1.2c1.5.3 2 .9 1.7 1.9-.4.8-.2 2.1.4 2.8.6.6 1.3 2.8 1.7 4.7.8 4.3 1.2 122.7.5 136.4l-.5 9.9h-6c-3.3 0-11.1-.1-17.4-.2l-11.3-.1.6-23.8c.3-13 .5-25.1.4-26.7-.1-1.7-.2-25.7-.3-53.5V68.5l10-1c9.4-1 14.9-1 20.2.1M702 66.7c-9.8.7-10 .9-10.6 12-.5 8.9-.6 8.8 13.4 9.6 9.3.6 10.5.4 12.2-1.3 1.3-1.3 2-3.4 2.1-5.8 0-2 .2-5.3.5-7.2s.2-4.5-.1-5.8c-.5-2-1.1-2.2-6.8-2-3.4.1-8.2.3-10.7.5m16.2 8.8c-.2 4.8-.9 8.9-1.7 10.2-1.4 2.1-1.9 2.2-11.7 1.6-5.7-.3-10.8-1-11.5-1.5-1.5-1.2-1-14.5.6-16.1 1.4-1.4 10.3-2.5 18.6-2.3l6 .1zM647 70.7c-1.1.8-2.8 3.1-3.8 5.1-1.5 3.4-1.7 9.6-1.7 75.5 0 62.9.2 71.8 1.5 72.2.8.2 9.2.3 18.5.2l17-.2.3-33c.3-36 .2-59.1-.1-84.5-.1-9.1 0-20.7.2-25.8s.1-9.5-.2-9.8-7.1-.7-15.2-.8c-11.1-.2-15 .1-16.5 1.1m30.9 1.1c.3.6.3 5.9-.1 11.9-.3 5.9-.5 16.9-.2 24.3.5 16.6.5 39.5.2 82l-.3 32.5h-34.7l-.3-69.8c-.5-89-2.1-82.5 20.6-82.1 8.5.1 14.4.6 14.8 1.2m53.8-1c-1.9 2.1-2 9.3-1.7 95.3l.2 57.6 14.4.2 14.4.2-.5-70.3c-.4-50.3-.9-72.1-1.8-76.8l-1.2-6.5-4-.7c-2.2-.4-7.2-.7-11.1-.7-5.5-.1-7.4.3-8.7 1.7m19.5 2.4c2 2.3 2.7 2.6 1.9 1.1-1.4-2.8-1.4-3.6.1-3.1 3.3 1.1 3.9 12.4 4.3 82.6l.4 69.3-13.3-.2-13.4-.2-.2-57.1c-.3-84.7-.2-91.7 1.7-93.8 1.2-1.4 3.2-1.8 8.5-1.8 6.5 0 7.1.2 10 3.2m199.8-.5c-3 .2-8.3.5-11.7.9l-6.2.5-.1 11.2c0 6.2-.2 17.1-.5 24.2-.2 7.2 0 17.1.5 22 .6 5 1.2 26.8 1.4 48.5.2 21.8.6 40.5 1 41.6.8 2.7 3.4 3.1 20.4 2.9 8.9-.1 13.7-.6 14.5-1.4 1.5-1.5 1.6-142.8 0-147.6-.9-2.9-1.1-3-7.4-3-3.5 0-8.9.1-11.9.2m18.3 3.1c1.7 4.1 1.7 144.6 0 146.3-.9.9-5.4 1.3-14 1.4-15.9.2-18.1-.2-18.9-2.9-.4-1.1-.8-19.7-1-41.1-.2-21.5-.8-42.9-1.3-47.7-.6-4.7-.9-14.6-.6-22 .3-7.3.5-18.1.6-24l.1-10.7 5.1-.6c5.3-.5 12.4-.9 23-1.2 5.4-.1 5.9.1 7 2.5m-375.9 8.4c-.4.6-.9 12.9-1.1 27.2-.7 41.8-1.4 102.8-1.3 106.1.1 5.4 1.3 5.8 19.2 6.1 9 .2 17 .1 17.9-.2 1.3-.4 1.6-2.9 1.7-17.7.1-20.4.1-48.4-.1-58.2-.1-3.9 0-11.1.2-16 .1-5 0-17.3-.4-27.5-.6-15.2-1-18.7-2.3-19.8-2.2-1.7-32.8-1.7-33.8 0m33.4 1c1.1 1.5 2.6 33.7 2.1 46.8-.2 4.7-.3 11.6-.2 15.5.2 11.8.3 40.1 0 58l-.2 17h-16.8c-14.1 0-17.1-.3-18.3-1.6-1.7-1.9-1.6 1.9-1-44.9 1-80.6 1.2-89.6 2-90.8 1-1.7 31-1.7 32.4 0m275.1 2.2c-.2.3-6.2.6-13.3.7-14.8.3-13.9-.4-15.1 11.6-.6 6.1-.5 7.3.8 7.3.8 0 10-.6 20.3-1.4 10.4-.8 20-1.4 21.4-1.3 2.5.2 2.5.2 2.5-8.3v-8.5l-8-.3c-4.5-.1-8.3-.1-8.6.2m15.6 8.6c0 6.9-.2 7.5-2 7.3-1.1-.2-10.5.4-20.9 1.2-10.3.8-19.3 1.5-19.8 1.5-1 0-.6-7.2.8-14.1l.5-2.5 12.7-.3c7-.1 12.9-.5 13.1-.7.3-.3 3.9-.3 8.1-.2l7.5.3zm-375.2-3.7c-.7 1.1-.7 42.9 0 69.7.3 11.3.2 23-.3 26-.9 6.6.2 9 5.8 11.9 2 1.1 6.1 4.3 9 7 2.9 2.8 6.1 5.7 7.1 6.3.9.7 2.9 2.9 4.4 5 4.5 5.9 10.1 6.2 11.1.5.4-2.5.9-46.6.5-56.2 0-1.1.3-11.5.7-23 .8-23.5.6-45.6-.4-46.7-1-1-37.3-1.4-37.9-.5m37.9 10c.2 10.5.3 9.4-.6 37.2-.4 11.5-.7 21.9-.7 23 .5 13.7-.3 55.3-1 57.2-1.2 3.2-4.4 2.4-7.9-2-1.4-1.7-3.6-4-4.9-5.1-1.3-1.2-4.7-4.3-7.5-6.9s-6.7-5.6-8.6-6.6c-6-3.2-6.9-4.8-6-11.1.5-3 .6-14.7.3-26-.7-27.2-.7-67.6 0-68.6.3-.5 8.6-.8 18.6-.6l18.1.3zM777 93.1c-3.3 1.4-4 2.6-4 8.1 0 3.1.4 4.8 1.3 4.9.6 0 6.2 0 12.2-.1 6.1-.1 13 .3 15.5.9 2.6.6 5.6.8 6.8.4 2.1-.5 2.3-1 2-7.7l-.3-7.1-15.5-.2c-8.5-.1-16.6.3-18 .8m32.8 6.5c.3 7.3-.5 7.9-7.6 6.3-2.6-.6-9.9-.9-16.2-.8l-11.5.3-.3-4.7c-.5-7 1.5-7.7 20.3-7.4l15 .2zm-119 3.3c-.2 1.4-.3 29.1-.3 61.5v58.8l13.2.2c7.2 0 13.4-.2 13.8-.6.8-.8.9-118 .1-120.5-.5-1.6-2.1-1.8-13.5-1.9l-12.9-.2zm25.8.4c.3.9.5 27.9.6 59.8 0 47.6-.3 58.3-1.4 59-.7.5-6.5.6-12.8.4l-11.5-.5v-58.3c-.1-32 .1-59.2.3-60.3.4-2.1.9-2.2 12.3-2 10.4.1 12 .3 12.5 1.9m198.3 13.1c-.6.6-22.7 1.9-32.9 2-4.7.1-9 .4-9.6.8-1.2.8-1.3 6.1-1.7 68.1-.1 20.3.1 37 .4 37.2s8.1.3 17.5.3c9.3 0 20.9 0 25.8.1l8.9.1-.8-50.2c-.4-27.7-.6-52.2-.6-54.6.1-4.1.1-4.2-3.2-4.2-1.9 0-3.6.2-3.8.4m6 4.3c-.1 2.1.2 26.2.6 53.6l.8 49.9-7.4-.7c-4.1-.3-8.7-.2-10.4.2-1.6.5-9.7.6-18 .3l-14.9-.5.2-36.5c.2-60.5.4-67 1.6-67.1.6-.1 4.7-.2 9.1-.4 11.7-.3 32.9-1.6 33.4-2.1.2-.2 1.5-.4 2.7-.4 2.1 0 2.3.5 2.3 3.7m-147.1-2c-2 .3-2.8 1.1-3.2 3.1-.3 1.5-.5 24.8-.4 51.8l.1 49.2 8.1.6c7.2.5 28.3 1 31.2.7.9-.1 1.2-13.9 1.3-52.6V119l-2.2-.1c-12.8-.4-32.8-.5-34.9-.2m34.4 1.2c1.6.1 1.7 3.6 1.5 51.8l-.2 51.8-12-.3c-6.6-.1-15.2-.5-19.1-.8l-7.1-.6-.1-49.7c0-27.4.3-50.2.6-50.8.4-.6 1.6-1.3 2.7-1.5 1.6-.4 22.6-.3 33.7.1"/><path d="M238.9 167.4c-.2.3-16.8.7-36.9 1.1-20.1.3-39 .8-42 .9-3 .2-12.8.7-21.8 1-8.9.4-18.1.9-20.5 1.1-2.3.1-8.7.6-14.2 1S91.9 173.6 90 174c-1.9.5-8.2 1.4-14 2s-14.3 1.7-19 2.5c-4.7.7-14 1.9-20.6 2.5-13.7 1.2-37.3 5.5-36.2 6.5.2.2 5.7-.7 12.2-2 6.6-1.3 17.3-2.9 24-3.5s15.9-1.8 20.6-2.5c4.7-.8 13.2-1.9 19-2.5s12.1-1.5 14-2c1.9-.4 8-1.1 13.5-1.5s11.9-.9 14.2-1c2.4-.2 11.6-.7 20.5-1.1 9-.3 18.8-.8 21.8-1 28.7-1.7 142.7-2.4 169-1.1 8.5.5 23.4 1.2 33 1.7 24.1 1.2 41.9 2.7 52.5 4.5 5 .8 15.5 2.4 23.5 3.6s15.2 2.5 16 2.9 3.5 1.1 6 1.4c6.2.9 33.8 8.2 41.5 10.9 1.7.6 5.7 2.4 9 3.9 3.3 1.6 9.4 4.2 13.6 5.8 12 4.4 23.7 13.1 36.3 27.1 9.7 10.6 15.4 18.3 17.2 23.2 2.4 6.2 5.2 12.7 7.3 16.7 1 1.9 2.2 5.1 2.6 7s1 3.9 1.4 4.5c.7 1.2 4 13.6 4.7 18 .3 1.6.9 3.9 1.4 5 1.8 4.1 4.3 15.3 5 22.6.4 4.1 1.2 10 1.8 13 1.6 8.1 3.2 25.6 3.7 41.4.3 7.7 1 17.3 1.6 21.2.5 4 .8 7.6.6 8-.3.5-.1 5.3.4 10.8.9 12.2.5 14.2-3.5 16-4.7 2.2-9.7 5.2-12.3 7.5-1.3 1.1-2.7 2-3.2 2-1.1 0-18.1 16.7-19.6 19.1-4.8 8-9.4 17.7-10 20.7-.4 2-1.1 4.2-1.6 4.8-3.7 4.5-8.3 47.5-8.2 75.7l.1 12.8-3.9 2.6c-3.3 2.2-3.9 3.1-3.9 6.1 0 2 .7 4.3 1.5 5.3 2 2.1 2.9 16.6 1.4 22.4-1.8 7.2-5.2 14.9-8.7 19.4-3.4 4.5-17.7 16.7-22.8 19.5-5.6 3-8.3 6.2-15.8 18.6-11.4 18.9-15 22.1-32.4 28.8-6.5 2.5-8 2.7-14.6 2.1-6-.6-8.7-1.5-14.4-4.7-3.9-2.2-7.9-4.3-9-4.6-3.8-1.3-11.2-11.6-11.2-15.8 0-.9-.4-2-1-2.3-2.8-1.7.3-23.2 5.2-35.5 7.2-18.4 17.3-32.3 32.6-44.8 5.8-4.8 6.6-7.6 3.1-10.8-1.2-1-3-3.2-4.2-4.8l-2.1-2.9 3 .7c1.6.4 4.8 2.1 7.2 3.8 4.5 3.2 5.5 3.2 14.7.9 3.8-1 3.8-1 .5-.6-1.9.2-5 .7-6.8 1.1-2.5.5-3.9.1-6.5-1.8-1.7-1.3-5.1-3.2-7.4-4.1-3.7-1.4-4.2-1.5-4.7-.1-.6 1.7 1.7 5.6 5.3 8.8 1.2 1.1 2.1 2.5 2.1 3.2s-2.4 3.2-5.2 5.6c-8.1 6.6-19.1 18.2-21.3 22.5-1.1 2.1-2.9 5.4-4.2 7.3-6.4 10.2-13.3 33.6-13.3 44.8.1 4.8 2.2 12.1 5.3 17.8 1.6 3.1 7.1 8.4 8.7 8.4.4 0 3.9 1.7 7.7 3.8 8 4.6 9.7 5.1 18.5 5.3 5.2.1 8.1-.4 13.5-2.5 17.5-7.1 20.6-9.8 31.9-28.6 7.5-12.4 10.2-15.6 15.8-18.6 6.1-3.3 20.2-15.8 23.7-20.9 5.7-8.4 8.4-18.1 8.3-29.7-.1-7.2-.5-10.4-1.8-12.2-2.7-4.2-2.1-7 2.3-9.9l3.9-2.6v-13.3c-.2-28.7 3.8-66.9 7.7-74.8.7-1.4 1.6-3.9 1.9-5.6.6-2.5 6-13.4 10.1-20.3 1.6-2.6 18.4-19.1 19.5-19.1.5 0 2-.9 3.3-2 2.6-2.3 7.5-5.3 12.3-7.5 4-1.8 4.4-4.2 3.4-17-.4-5.5-.6-10.3-.3-10.7.2-.4-.1-4.3-.7-8.6s-1.2-13.8-1.5-21.2c-.6-16.1-2.1-32.6-4.1-43.3-.8-4.2-1.4-9.5-1.4-11.6 0-2.2-1.2-8.2-2.6-13.3-1.5-5.1-2.9-10.9-3.1-12.8-.3-1.9-.9-4-1.3-4.5-.4-.6-1.3-3.7-2-7s-1.9-7.4-2.6-9.2c-.8-1.7-1.4-3.6-1.4-4.3 0-.6-1.1-3.5-2.4-6.3-5.6-12-7.6-16.8-7.6-18 0-3-19-25.4-28.4-33.5-10-8.7-19.4-13.9-29.6-16.7-1.4-.4-3.2-1.3-4-1.9-.8-.7-4-2.2-7-3.5s-6.3-2.7-7.2-3.2c-1-.5-2.5-.9-3.4-.9s-3.7-.7-6.3-1.5c-7.9-2.5-27.4-7.4-32.1-8.1-2.5-.3-5.2-1-6-1.4s-8-1.7-16-2.9-18.5-2.8-23.5-3.6c-10.7-1.8-28.5-3.3-53-4.5-9.9-.5-22.9-1.2-29-1.6-12.9-.7-93-1.6-93.6-1"/><path d="M409.5 228.7c-5.6 1.5-17.2 12.8-32.9 32.1-8.2 10.1-27.6 39.8-27.6 42.2 0 .7-.9 2.7-1.9 4.4s-2.2 4.6-2.6 6.4-2.1 4.8-4 6.7l-3.2 3.5h-17.1c-18.2 0-27.5 1-38.6 4.2-7.8 2.3-10.3 1.8-12.6-2.8-6-12.1-9.7-17.2-25.2-35.2-9-10.3-36.3-33.8-43.3-37.1-3.8-1.9-11.4-4-14.2-4.1-3.8 0-11 3.7-13.4 7.1-1.3 1.9-2.6 5.6-3 8.8-.5 3.1-1.2 7.8-1.8 10.6-.5 2.7-1.6 8.8-2.5 13.5-2.3 12.3-3.5 18-4.1 18.9-1.1 1.9-3.5 52.2-3.3 70.2.1 18.7 0 19.7-2.6 27.9-3.7 11.5-6.6 24.2-7.1 31-.2 3-.9 8-1.5 11s-1.4 6.9-1.7 8.7-1.1 3.7-1.7 4.3c-1.6 1.2-16.8 2.9-29.4 3.1-11.8.3-14.5 1.9-14 8.3.3 3.6.7 4.3 3.8 5.8 1.9 1 4.6 1.5 6 1.3 1.4-.3 8.1-.7 14.8-1 6.8-.3 14.4-1 16.9-1.5 4.9-1.1 6.3-.7 6.3 1.8.1.9 1.4 5.5 2.9 10.2 2.7 7.8 2.8 8.6 1.3 9.8-2.6 2.1-11.9 6.1-16 6.8-2 .4-5.7 1.7-8.2 3s-5 2.4-5.6 2.4c-1.8 0-4.4 3.5-4.4 5.8 0 4 7.3 7 12.9 5.4 2-.6 6.4-1.8 9.9-2.7s9.1-3 12.5-4.6 6.7-2.9 7.2-2.9c1.2 0 7.3 5.2 15.9 13.5 2.9 2.7 7.3 6.3 9.7 8 5.5 3.7 7.9 6.4 7.1 8.4-.3.9-1.7 3.4-3.2 5.6-3.1 4.6-12 20.2-12 21 0 .3-1.2 2.4-2.6 4.6-3.4 5.5-12 21.3-14.6 26.9-1.1 2.5-3.9 8.5-6.3 13.5-2.3 4.9-5 11.2-6 14-1 2.7-2.2 5.4-2.6 6-.4.5-1.9 5-3.3 10-1.5 4.9-3.1 9.8-3.6 10.7-.6 1-1 2.4-1 3.2s-.4 1.7-.8 2c-.5.3-7.1 1-14.8 1.6-7.6.6-16.6 1.7-19.9 2.5-3.3.7-8.2 1.4-10.9 1.4-2.6.1-5.1.3-5.5.6-.4.2-4.1.6-8.3.9-4.1.3-11.1 1.2-15.4 2s-11.5 1.7-15.9 2.1c-7.1.5-16.2 1.9-39.8 5.7-3.7.6-6.6 1.3-6.3 1.5.2.3 3.5 0 7.3-.7 18.6-3.1 31.6-4.9 38.8-5.5 4.4-.4 11.6-1.3 15.9-2.1s11.3-1.7 15.4-2c4.2-.3 7.9-.7 8.3-.9.4-.3 2.9-.5 5.5-.6 2.7 0 7.6-.7 10.9-1.4 3.3-.8 12.2-1.9 19.7-2.5 15.6-1.2 16.8-1.5 16.8-4 0-1.1.4-2.1.8-2.4.5-.3 1.4-3 2.1-6 1.5-6.9 7.9-23.4 13.2-34.4 2.2-4.5 4.6-9.7 5.2-11.5.7-1.8 2.6-5.6 4.2-8.5 3.4-6 9.3-16.7 17.9-32.2 3.2-5.8 7.1-12.3 8.6-14.5 5.3-7.8 4.7-10.3-3.9-16-2.4-1.7-6.8-5.3-9.7-8-2.8-2.8-7.4-6.9-10-9.3-5.6-5-6.7-5-16.7-.4-3.4 1.6-8.7 3.5-11.7 4.2s-6.6 1.6-7.9 2.1c-5.4 2.1-13.8-2.2-11.5-5.9 1.3-2.1 12.7-7.8 17.4-8.7 1.9-.4 5.4-1.5 7.7-2.6 2.3-1 4.6-1.9 5-1.9s1.8-.8 3-1.8l2.3-1.7-3.5-11.4c-2-6.3-3.7-11.7-3.9-11.9-.3-.2-2.8.1-5.6.7-4.4 1-27.2 2.6-33.8 2.4-6.5-.2-9.5-6.9-4.9-11 1.8-1.6 3.7-2 10.7-2.2 11.6-.2 29.3-2 30.4-3.1 1.4-1.3 4.5-16.9 5.1-25.2.6-8.4 6.6-32.5 9.4-37.8.5-.9.7-10.1.4-20.6-.4-22 2-64.8 4.2-73.9.8-3.3 2.2-10.1 3.1-15 .9-5 2-11.3 2.5-14 .6-2.8 1.3-7.3 1.8-10.2 1-6.7 4.7-11.6 10.7-13.9 4-1.5 5.2-1.6 9.4-.5 2.7.7 6.4 2 8.2 3 7.8 3.9 34.5 26.8 43.6 37.3 13.9 16.2 16.9 20.1 22 29.2 3.8 6.7 6 9.6 7.7 10 2.6.7 8.4-.2 10.1-1.5 2.2-1.8 15.6-3.2 35.8-3.8l20.8-.6 2.9-3.5c1.6-1.9 2.9-4.2 2.9-5.1s1.1-3.7 2.5-6.3 2.5-5.2 2.5-5.7c0-2.3 19.9-32.8 27.3-41.8 12.1-14.9 25.4-28.6 30-30.9s12.1-3 13.2-1.2c.3.5 1.4 1 2.4 1 2.8 0 6.9 5.1 7.6 9.5.4 2.2 1.6 6.7 2.7 9.9 1 3.3 2.3 7.8 2.8 10 .5 2.3 1.8 7.7 2.9 12.1 2 7.8 7 33.7 9 46.5.6 3.6 1.8 10.5 2.6 15.5.8 4.9 1.5 13 1.5 17.9 0 7.3.4 9.6 2.4 13.5 4.7 9.1 12.6 25.7 12.6 26.5s.8 2.7 4.6 11.1c.9 2.2 2.1 5.8 2.6 8 3.4 16.9 4.1 22.1 4.2 29.7.1 4.7.4 8.9.8 9.3.3.4 7.3.8 15.5 1 20.7.5 32 1.3 34.3 2.5 1.1.6 2.5 2 3.1 3.2.9 1.7.7 2.5-1.9 5.1-2.9 2.9-3.3 3-11.9 2.8-4.8 0-15.1-.6-22.9-1.2-7.8-.7-15.2-.9-16.6-.6-2.1.6-2.7 1.7-4.2 7.4-1 3.8-1.9 7.9-2 9.3-.1 2.8-.2 2.7 28.9 12 14.8 4.7 17.5 6.1 17.5 9.3 0 5.4-5.7 8.5-10.8 5.8-2.7-1.4-12.2-4.1-14.6-4.1-1.1 0-3.4-.7-5-1.5-1.5-.8-3.8-1.5-5-1.5-1.1 0-4.1-.9-6.5-2s-6.2-2-8.5-2c-3.7 0-4.5.5-8.3 5.1-2.4 2.8-4.3 5.5-4.3 6s-.6.9-1.4.9-2.3 1.1-3.4 2.4c-3.8 5-10.3 9.2-25.4 16.8-7 3.5-6.1 4 22.7 12.4 30.3 8.9 46.1 14.7 63 23 11.6 5.7 16.5 9.7 21.9 17.9 5.4 8.3 5.9 10.9 4.5 23.8-1.4 13.7-3.5 19.6-9.8 27.8-5.1 6.9-8.7 10-22.2 19.7-10 7.1-12 9.6-17.6 21.3-4.5 9.4-10.4 16.9-13.4 16.9-3.3 0-4.2-3.8-3.1-13.6.8-8.1.7-9.2-1-11.7-1.1-1.5-2.5-2.7-3.2-2.7-2.9 0-3.8 3.1-4.2 15.7-.3 7-.7 13.8-1 15-.9 4.6-9.8 7.4-13 4.1-2.6-2.5-2.8-12.3-.6-20.7 1.6-5.6 1.8-8 1-10.2-1.3-3.7-3.8-3.7-6.4-.1-2.5 3.3-3.3 6.1-4.4 16.5-.5 4.4-1.5 8.5-2.1 9.3-3.3 4-9.6-.7-12.5-9.4-3-9.5-1.1-26.9 4-36.7.9-1.7 1.6-3.5 1.6-4.1 0-1.2 4.5-9.2 10.2-18.1 5.5-8.7 21-21.9 31.9-27.1 6.4-3.1 8.2-5.5 5-6.7-1.4-.6-1.3-.8.3-2.1 1.8-1.2 1.8-1.4.3-1.4-2.3 0-3.2 2.6-1.6 4.6 1 1.3 1 1.7-.2 2.5-.8.5-1.9.9-2.5.9s-1.7.6-2.3 1.4c-.7.8-2.4 1.7-3.8 2.1-3.1.7-8 4.4-17.5 13-8 7.2-11 11.3-16.8 22.5-8.8 17.4-10 21-10.7 33.5-.9 16.4 3.6 27.5 11.3 27.5 4.3 0 5.2-1.8 6.4-12.1 1.1-9.7 1.6-11.5 4.3-15.1 2.6-3.5 3.5-3.5 4.7-.3.7 1.8.5 3.8-.7 7.3-2.3 6.5-2.4 21.5-.2 23.8 3 3 12.7 1.5 14.7-2.3.5-1 1.2-8 1.4-15.5.6-15.8 1.7-18.9 5.3-14.4 1.9 2.4 2 3.2 1.2 11.7-1.1 11-.2 13.9 4.2 13.9 4.1 0 9.4-6.3 14.4-16.9 5.4-11.5 7.5-14.1 17.6-21.3 13.5-9.7 17.1-12.8 22.2-19.6 5.9-7.9 8.4-15.4 9.9-29.7 1-9.5.9-11.6-.4-15.4-4.3-11.9-11.4-19.3-24.6-25.8-17.1-8.3-46.6-18.9-70-24.9-7.9-2.1-20-6.5-20-7.3 0-.4 1.5-1.4 3.3-2.3 11-5.4 14.4-7.3 18.1-10.1 4.7-3.6 16.1-15.1 18.3-18.5 1.9-2.8 5.6-2.9 13.2-.3 12.6 4.2 15.7 5.1 17.3 5.1 1 0 5.1 1.1 9.2 2.5 9.4 3.1 13 3.2 15 .3 1.9-2.7 2.1-8.2.3-9.6-1.5-1.3-9.4-4.1-21.2-7.7-16-4.8-21.2-6.5-22.8-7.8-1.5-1.1-1.4-1.8.4-8.7 1.1-4.1 2.4-7.9 2.9-8.4.6-.6 6.8-.5 16.2.2 8.4.7 19.5 1.3 24.7 1.3 9.1.1 9.4.1 12.4-2.9 2.3-2.4 2.8-3.6 2.3-5.6-1.4-5.5-6.2-6.4-38.3-7.1-7.8-.2-14.6-.6-15.2-.9-.5-.4-.8-3.4-.6-6.9.4-5.6-.5-11.8-3.6-27.7-1.4-6.7-2.4-9.9-5.6-16.9-1.3-3-2.7-6.7-3-8.2-.3-1.6-1.2-3.4-1.9-4-.8-.6-1.4-1.7-1.4-2.5 0-.7-1.3-3.7-2.9-6.6s-3.2-6.4-3.6-7.8-1.6-3.7-2.6-5.2c-1.5-2.1-1.9-4.4-1.9-11.5 0-4.8-.7-12.9-1.5-17.8-.9-5-2-12.2-2.6-16-.6-3.9-2.2-12.4-3.5-19s-3-15.6-3.8-20c-1.6-8.5-7.2-29.9-8.6-32.5-.4-.8-1.1-3.8-1.5-6.6-.7-5.6-4.2-10.4-7.5-10.4-1 0-2.2-.5-2.5-1-.6-1-8.4-1.2-12-.3M585 235c-1.1.7-.9 1.8 1.1 5.7 1.4 2.6 3 5.7 3.6 6.8 9 18 9.2 18.4 12.8 19.1 1.9.3 3.9.3 4.5-.1 1-.6 17.8-.6 161.5 0 146.4.6 201.6.6 202.5 0 .6-.4 1-6.8 1-15v-14.4l-3.2-.6c-1.8-.3-30.7-.4-64.3-.3-61.8.2-257-.9-296.6-1.6-11.9-.2-22.2 0-22.9.4m151.5 1.7c58.9.3 134.7.6 168.5.5s62.5 0 63.8.3c2.1.5 2.2.9 2.2 14 0 7.6-.4 13.6-1 14-.9.6-54.5.6-201.5 0-144.4-.6-159.1-.6-161.6 0-5.3 1.3-7-.5-14.5-15.3-4-7.8-7-14.3-6.7-14.6.2-.2 10.2-.2 22.1 0s69.9.7 128.7 1.1"/><path d="M402.9 282.7c-2.9 4.9-7.4 11.9-9.9 15.8-2.6 3.8-7.1 11-10 15.9-4.4 7.6-5.1 9.5-4.6 12.5.3 1.9 1.1 4 1.8 4.7 1.7 1.7 18.2 8.4 20.5 8.4 1.1 0 2.3.4 2.8.9 1.4 1.3 17.6 5.3 19.1 4.7 2.3-.9 3.3-7.2 2.3-14.8-4-32.3-6.2-43.9-10.1-54.1-.8-2-1.7-2.7-3.9-2.7-2.4 0-3.4 1.1-8 8.7m10.7-6c.7 1 1.4 2.8 1.4 4s.4 2.4.9 2.7c.4.3 1.1 2.5 1.5 4.8.4 2.4 1.2 6.5 1.7 9.3 2.6 14.4 5.7 40 5.2 42.9-.9 4.5-2.4 4.9-10.5 2.7-10.2-2.8-16.4-4.9-22.9-7.7-3.1-1.3-6.1-2.4-6.7-2.4-1.6 0-5.2-5-5.2-7.1 0-2 7.7-15.6 15-26.4 2.5-3.9 7-10.9 9.9-15.8 5.3-8.8 7.2-10.2 9.7-7M835 287c-1.1.7-2.9 12.7-2.8 19 .1 9.2.1 48-.1 57-.2 12.5-.3 39.1-.1 50 .1 5.2-.1 17.9-.4 28.2L831 460l2.2.5c2.4.5 20.4 2.9 29.3 3.9l5.1.6.1-51.2c.1-28.2.2-59.6.3-69.8s-.2-26.3-.6-35.9c-.9-21.4-.7-21.1-12.6-21.2-4.6 0-10.7-.1-13.6-.2-3-.1-5.7 0-6.2.3m28.6 2.5c1.9 1.2 2.2 2.4 2.3 11.1.1 5.4.4 10.1.7 10.6.3.4.4 12.1.4 26-.1 13.9-.2 48.1-.3 76l-.1 50.6-5.6-.5c-3-.4-10.7-1.3-17-2.2l-11.5-1.6.1-14c.2-17.4.3-37.2.3-58 .1-8.8.1-19.8.2-24.5.2-9.7.2-48.5.1-57.5-.1-5.1 1.4-15.9 2.3-17.5.2-.3 6.1-.4 13.2-.2 8.8.2 13.5.7 14.9 1.7m-665.8 3.2c-1.7.3-2.8 1.2-3.2 2.6-2.2 8.8-3.6 59-1.8 65.1 1.1 4 5.1 5.3 9.3 3.2 1.8-.9 3.7-1.6 4.4-1.6.6 0 1.6-.5 2.3-1.2 1.4-1.4 10.2-6.5 18.7-10.8 7.5-3.7 14.9-9.2 15.3-11.1.1-.9-.9-3.3-2.4-5.5-1.5-2.1-4-5.7-5.5-7.9-1.5-2.3-7.8-9.2-13.9-15.5-6.2-6.3-12.3-13-13.7-14.8-2.5-3.2-3.4-3.4-9.5-2.5m8.5 3.5c1.4 1.8 7.9 8.9 14.6 15.7 6.7 6.9 12.1 12.8 12.1 13.2s1.7 2.9 3.9 5.6c5.8 7.4 5.9 8.3.5 11.8-4.3 2.8-7.1 4.4-23.8 13.7-15.6 8.7-17.7 9.2-19.7 4-1.9-4.9-.5-57.2 1.7-64.4.5-1.5 2.4-2.3 6.5-2.7.9 0 2.8 1.4 4.2 3.1m409.1 9.5c-2.8.5-3.6 4.5-2.4 11.9.5 3.2.7 6.8.4 8.1-.4 1.3 0 3 .7 3.9 1.2 1.5 2 10.6 3.3 36.9.2 3.3.6 8 1 10.5.7 4.4 1.6 21.4 1.6 27.5-.1 6.5 2.2 22.2 3.6 25.7 1.7 3.9 3.5 4.8 9.7 4.8 2.1 0 4.6.4 5.5.9s3.4 1.1 5.6 1.2l3.9.4.2-57c.3-52.7.2-57.5-1.6-64.2-3-12-2-11.3-16.7-11.2-7 .1-13.7.4-14.8.6m27.8 2.5c3.7 5.8 4.1 11.8 4.2 70.9l.1 57.5-4-.9c-2.2-.5-6.8-1.2-10.2-1.5-3.4-.4-6.3-1-6.5-1.2-2.6-3.4-3.7-7.2-4.7-16-.7-5.8-1.1-11.6-1.1-13 .2-4.2-.9-22.2-1.6-27-.4-2.5-.8-7.2-1-10.5-1.2-25.1-2.2-36.5-3.3-37.9-.7-.8-1-2.3-.7-3.3s.1-4.5-.4-7.7c-1.1-6.8-.5-10.3 1.8-10.9 1-.3 7.2-.5 13.8-.6 11.6-.1 12.2 0 13.6 2.1m110.8 2.7c-1.2.9-1.6 5-1.9 24.8-.1 13.1-.3 26.7-.2 30.3.3 30.8.1 58.7-.5 69.6-.5 9.9-.4 13.3.6 13.9.6.4 3.5.9 6.3 1.1 2.9.1 8 .6 11.5.9l6.2.7.1-4.9c1-34.9 1.1-134.5.1-135.4-1.3-1.2-20.6-2-22.2-1m21.2 2c.9.8.9 105.9-.1 133.9l-.1 4.3-5.7-.6c-3.2-.4-7.8-.7-10.3-.9-7.4-.4-7.3-.2-6.6-14.5.6-10.5.7-31.7.5-69.1-.2-20.5.7-52.7 1.5-53.8.6-1.1 2.9-1.2 10.5-.7 5.3.4 9.9 1 10.3 1.4m109.6 5.4c-3.8.8-4.7 1.4-5.1 3.6-.7 4.3-.9 133.6-.2 139.5l.7 5.4 6.7.7c3.6.4 10.2 1.3 14.6 2 8.4 1.5 10.1 1 8.9-2.7-.7-2.3-.7-18 .1-87.6.5-39.6.4-59.7-.3-60.5-1.3-1.5-18.9-1.9-25.4-.4m24.1 1.1c1.1.7 1.2 11.1.6 60-.6 57.7-.7 84-.2 88.1.1 1.5-.3 1.9-1.8 1.8-1.1-.1-7.5-1-14.2-1.9l-12.1-1.7-.7-4.4c-.7-4.8-.5-135.4.2-138.9.3-1.5 1.6-2.4 4.6-3.2 4.8-1.2 21.5-1 23.6.2m18.5 1.3c-3.1.4-3.1.5-3.8 7.1-1 11.6-.8 14 1.5 15.2 1.4.8 8.1 1 21 .7 10.4-.3 20.3-.2 21.9.3 1.9.5 2.8.5 2.5-.1-.4-.5-.2-.9.4-.9s1-4.1 1-10.9c0-8.9-.3-11-1.5-11.5-1.7-.6-37.8-.5-43 .1m43.1 11.2v10.5h-22.4c-19.3.1-22.5-.1-23.4-1.5-.6-.9-.7-4.9-.2-10.2.6-8.3.8-8.6 3.3-9 1.5-.2 11.7-.4 22.7-.3l20 .1zm-259.8-.1c-3.3.4-4.7 3.3-4.7 9.5 0 7.2 0 7.2 18 7.4l16 .3v-3.8c0-2 .3-6.1.6-9l.7-5.2-13.9.2c-7.6.1-15.2.3-16.7.6m28.9 3.9c-.3 2.1-.6 5.7-.6 8v4.1h-13.7c-17.5 0-18.3-.3-18.3-6.6 0-5.2 1.4-7.8 4.5-8.5 1.1-.2 8-.5 15.4-.6l13.4-.1zm59.7-2c-8.6.3-10.3.6-10.7 2.1-.2.9-.4 28.1-.3 60.3l.2 58.6 9.8.7c5.5.3 11.9 1.1 14.3 1.7 7.1 1.8 7.3 1.5 7.4-11.3v-17.6c-.1-.9 0-13.4.1-27.7s0-34.9-.1-45.7l-.3-19.7-3-1.1c-1.7-.5-3.9-.9-5.1-.8s-6.7.4-12.3.5m17 1.2 2.4.9.3 19.4c.6 39.6.5 69.3-.4 70.6-.5.7-.5 2.2.1 3.5.6 1.4.7 4.2.3 7.2-.4 2.8-.5 8.3-.2 12.2.6 8.3-.1 9.1-6.4 7.4-2.2-.6-8.2-1.3-13.4-1.7l-9.5-.7V335.5l10-.6c5.5-.3 11-.6 12.2-.7s3.2.2 4.6.7M354 339.5c0 .9.9 1.5 2.5 1.5s2.5-.6 2.5-1.5-.9-1.5-2.5-1.5-2.5.6-2.5 1.5m3.7.1c-.3.3-1.2.4-1.9.1-.8-.3-.5-.6.6-.6 1.1-.1 1.7.2 1.3.5m305.6 1.6c-1.6.8-2.3 2.2-2.7 5.7-.4 3.8-.2 85.9.3 89.9 0 .7 1.1 1.6 2.4 2.1 3.4 1.3 28.6 4.3 29.8 3.6.7-.5 1-12.3.8-37.9-.2-20.4-.1-42.9 0-49.9.2-7 .2-13 0-13.2-1-.9-28.6-1.2-30.6-.3m25 .7c4.2.1 5.6.4 5.1 1.3-.4.6-.7 22.9-.6 49.4.1 27.4-.3 48.6-.8 48.9s-6.1-.1-12.5-1c-6.4-.8-12.3-1.5-13.1-1.5-.7 0-2.2-.8-3.2-1.8-1.7-1.7-1.8-4.6-1.8-47.5.1-53.5-1.1-48.8 12.6-48.2 4.7.2 11.1.4 14.3.4m235.8 14c-1.4.9-1.6 7.2-2.3 87.6l-.3 31 5 .7c2.8.4 6.8 1 9 1.2 6.5.8 13.8 2.4 17.5 3.9 1.9.8 4 1.3 4.6 1 .5-.2 3 1.5 5.4 3.7 6.9 6.4 7.4 5.8 8.1-10.5.8-20.2.9-117.4.1-117.9-1.5-.9-45.8-1.6-47.1-.7m46.2 1.8c.4.3.6 29.2.4 64.4-.3 66.2-.6 69.4-4.2 64.2-1.7-2.5-8.3-6.8-9.1-6-.3.3-2.5-.2-4.7-1.2-4-1.7-9.7-2.9-17.7-3.7-1.9-.2-5.5-.7-8-1.2l-4.5-.8.3-30.4c.7-70.8.9-84.7 1.6-85.9.6-1 5.9-1.1 23-.6 12.1.4 22.5.9 22.9 1.2M710.7 359c-.3 1.2-1.4 2-2.6 2-1.9 0-2.1.6-2.2 6.7-.3 21.2-.1 76.4.3 76.8.5.5 8.7 1.6 24.3 3.4 4.4.4 8.3.5 8.7.2.9-.8 1.5-85.7.7-86.6-.3-.2-6.1-.6-13-.8-10.8-.2-12.4-.5-12.7-2-.5-2.3-2.8-2.1-3.5.3m2 1.2c-.3.8-.6.5-.6-.6-.1-1.1.2-1.7.5-1.3.3.3.4 1.2.1 1.9m26.3 2.5c.4.4.2 84.5-.3 84.8-.2.2-11-.9-23.5-2.4-4.1-.5-7.6-1.2-7.9-1.5-.5-.5-.8-53.1-.4-75.3l.1-6.2 6.8-.3c7.2-.4 24.4.2 25.2.9m-334.5 46.8c-.5.2-3.7 1.1-6.9 2-7.9 2.2-16.6 10.2-19.8 18.4s-3 20.7.5 28.3c4.2 9.1 7.6 12.3 14.9 13.9 9.4 2.1 23.5 1.8 27.8-.5 13.6-7.2 23.6-23.6 20.2-33-.7-1.8-1.2-5.3-1.2-7.8 0-2.8-.6-5-1.5-5.8-.8-.7-2.5-3-3.8-5.2-2.3-4.2-6.6-6.9-14.6-9.4-4.2-1.2-13.1-1.8-15.6-.9m15.6 2c7.7 2.7 11 4.9 13.5 9.2 1.4 2.3 3.1 4.7 3.9 5.3.9.7 1.5 3 1.5 5.3 0 2.2.5 5.5 1.2 7.4 1.4 4-.3 12.1-3.6 16.7-4.8 6.7-13.5 14.2-18.6 16-5.7 2-16.2 1.8-25.4-.5-12.7-3.2-20.3-25.7-13.7-40.7 3.5-7.9 13.2-16.5 20.7-18.5 7.7-2 15.1-2.1 20.5-.2"/><path d="M398.5 420.6c-4.4 2.4-8.4 6.4-10.8 10.9-1.9 3.4-2.2 5.5-2 13.2.2 10.7 1.9 14.9 8.2 20.6 5.1 4.6 10.1 5 16.1 1.2 4.9-3.1 6.4-5.4 8.6-13.2 1.6-5.7 1.6-6.6 0-14.5-1.7-8.6-4.8-14.6-8.9-17.3-3.6-2.3-7.9-2.7-11.2-.9m9.2 1.4c4.8 2.9 8.3 8.9 10 17.2 2.4 11.9-.6 21.2-8.6 26.3-5.7 3.6-9.2 3.3-14.2-1.2-6.2-5.6-8-9.9-8.2-20.1-.2-8.2 0-9 2.8-13.2 3.3-4.9 10.7-11 13.3-11 .9 0 3.1.9 4.9 2m-160.5-1.4c-7.7 1.6-14.9 4.8-18.5 8.2-4.6 4.4-8.5 12.4-9.2 18.8-.8 7.7 1.5 21.2 4.4 25.3 2.6 3.6 12.7 12.1 14.4 12.1.7 0 2.5.7 4.1 1.5 7.4 3.9 19.9 2.8 31.2-2.5 12-5.8 17.1-15.7 16.2-31.2-.7-11.1-3.5-17.4-10.4-23.7-5.8-5.3-8.2-6.4-19-8.4-5.8-1.1-8.3-1.1-13.2-.1m25.4 4.9c5.1 3 11.8 10.3 14 15.2.9 2.1 1.8 7.7 2.1 12.4 1 15.5-4 24.2-17.6 30.7-6.9 3.3-8.4 3.6-16.1 3.6-10.1 0-15.5-2-23.6-9-7-5.9-8.9-9.4-10.4-18.8-1.5-9.8-.7-15.4 3.2-22.2 5.1-9.1 11.3-13.3 23.2-15.8 7.3-1.5 18.9.3 25.2 3.9"/><path d="M248.9 430.7c-3.3.5-7 4.4-10.4 10.7-2.1 4-2.6 6.3-2.7 13-.1 7.2.2 8.8 3.1 14.3 2.5 5 3.9 6.6 6.7 7.8 7.8 3.2 14.9.6 19.9-7.3 2.8-4.4 3-5.4 3-14.3 0-8.1-.4-10.2-2.4-14.1-4.3-8.5-9.4-11.5-17.2-10.1m10.3 3.2c5.8 5.1 8.1 10.5 8.5 20.1.3 7.9.1 8.7-2.8 13.5-7.5 12.4-18.4 12.6-25.1.5-2.7-4.8-3.1-6.4-3-13.1.1-5.9.6-8.6 2.6-12.5 5.4-10.8 13.3-14.2 19.8-8.5m95.2.9c-2.1.3-4.2 5.2-2.3 5.2.5 0 .9-.9.9-2 0-2.1 1.5-2.7 2.5-1 .9 1.5 2.5 1.2 2.5-.4 0-1.8-.9-2.3-3.6-1.8M620.8 448c-5.8.7-8.3 1.6-17.3 5.5-6.5 2.9-21.8 18.6-26.8 27.6-4.2 7.5-9.4 23.4-10.7 32.9-.5 3.6-1.4 16.6-2 29s-1.5 24.9-1.9 27.8c-.5 3.3-.5 5 .1 4.4.5-.5 1.6-12.6 2.4-26.8 1.7-31.6 2.5-38.4 6.1-49.9 4-12.9 9.2-21.5 19.7-32.4 7.4-7.7 10.4-10 16.3-12.8 11-5.1 27.8-6.5 41.6-3.3 2.7.6 11.4 1.7 19.5 2.6 8 .8 15 1.8 15.5 2.1.9.5 9 1.7 22.2 3.3 4.4.5 14.5 1.8 22.5 2.9 8 1.2 20.6 2.6 28 3.1 14.5 1.2 15.9 1.3 50 6 29.2 4.1 41.4 5.8 47.5 6.9 2.8.4 12.2 1.8 21 3s20.1 2.8 25 3.6c5 .8 13.2 2 18.4 2.6s10.5 1.5 11.6 1.9c1.2.5 6 1.1 10.6 1.4l8.4.5-9-1.3c-4.9-.8-11.7-1.8-15-2.4-6.2-1.1-16-2.6-46.5-6.8-9.6-1.3-20.2-2.8-23.5-3.4-8.2-1.4-21.9-3.3-48.8-6.9-12.5-1.6-23.1-3.2-23.6-3.6-.5-.3-7.8-1-16.3-1.5-13.5-.9-31.8-3-51.8-6-3.6-.5-11-1.5-16.5-2.1s-11.3-1.5-13-2c-1.6-.5-9.5-1.6-17.4-2.4s-16.1-2-18.2-2.5c-5.1-1.4-21-2-28.1-1m-284.2 17.1c-3.3.5-6.4 1.3-7 1.9-1.5 1.5 1 8.1 5.9 15.4 3.7 5.4 4.5 7.3 4.5 11.2 0 4.3-.4 5-5.7 10.5-3.2 3.2-5.8 6.4-5.8 7.1 0 1.7 5.4 1.2 7.5-.7.8-.7 3.4-2.2 5.8-3.4 3.7-1.9 4.8-2 7.7-1.1 1.8.6 4.1 2.2 4.9 3.6 1.3 1.9 2.5 2.4 6.1 2.4 3.5 0 4.5-.4 4.5-1.6 0-3.4-3.4-7-9.1-9.6l-5.9-2.7v-4.9c0-3.9.5-5.3 2.6-7.3 3.7-3.4 7.5-11.4 7.7-16.2.2-3.5-.1-4.2-2.3-4.8-3.4-.9-14.1-.9-21.4.2m22.6 1.7c1.8 1.8-1.6 11-6.3 16.7-3.5 4.2-3.9 5.3-3.9 10.1v5.3l5.8 2.8c9.1 4.4 12.1 9.3 5.7 9.3-2.5 0-3.9-.6-5-2.3-.8-1.3-3.3-2.9-5.4-3.6-4-1.2-7.1-.2-17 5.4-4.7 2.6-3.9.4 2-5.3 5.8-5.8 5.9-5.9 5.9-11.6 0-5.1-.5-6.4-4.3-12-5.5-7.9-7.4-12.3-5.9-13.8 2.6-2.6 25.9-3.5 28.4-1m-216.4 12.3c-1 .5-1.8 1.7-1.8 2.4 0 .8-.3 1.5-.7 1.5-.5 0-.9 1.2-1 2.7 0 1.4-1 3.4-2.1 4.2-2 1.6-5.2 9.6-5.2 12.9.1.9 1-1 2.1-4.3s2.8-6.7 3.8-7.5 2.4-3.6 3.2-6.2c.8-2.8 2.1-5.1 3.3-5.7 1.2-.5 1.7-1 1.1-1-.5 0-1.8.4-2.7 1"/><path d="M659.8 488.2c-2.8.9-6.1 2.4-7.4 3.3-1.3.8-3.3 1.5-4.5 1.5-1.3 0-5.1 3.1-10.4 8.5-8.9 9.1-16.1 21.1-19.6 33-1 3.3-2.7 9.1-3.8 13-1.7 5.5-2.1 9.4-1.9 18l.2 10.9 9.8 10.5c13.7 14.5 17.5 21 21.2 37.1 1.6 6.8 2.1 17 .9 17-1.1 0-5.3-7.6-5.3-9.4 0-2.8-4.2-13.9-7.8-20.9-9.7-18.5-32.6-36.9-47.9-38.4-7-.8-21.8 2.5-19.9 4.4.3.3 1.1.1 1.8-.4 2.4-1.8 12.5-3.6 17.6-3.1 14.5 1.4 38.1 20.5 47.6 38.7 3.6 6.9 7.6 17.5 7.6 20.1 0 .8 1.2 3.7 2.6 6.4 2.4 4.5 2.6 5.9 2.5 16.5 0 10.7-3 30.3-5.6 36.3-.9 2.2 1.2 2.4 4 .4 11.6-8.1 49.4-21.6 60.5-21.6 1.6 0 3.2-.4 3.5-1 1.1-1.7-16 1.8-29 6-14.7 4.8-17.6 5.9-26.8 10.6-6.9 3.5-8.9 4.1-9.3 3-.3-.8.4-6.3 1.5-12.3 1.1-5.9 2.2-13.2 2.5-16.2.3-2.9.7-5.5.8-5.6.2-.2 4.6.8 9.8 2.1 20.2 5 48.6 10.7 50.5 10.1.5-.2-3.3-1.1-8.5-2-16.2-2.9-51.8-11.2-52.9-12.3-.3-.3.1-.9.8-1.3 2.4-1.5.9-23.8-2.3-34.6-3.6-11.8-7.7-18.4-19.5-30.7l-9.8-10.3.1-12.5c.2-14.8 2.3-22.3 11.3-40.8 4.7-9.6 6.7-12.4 13.8-19.7 4.6-4.7 9-8.5 9.9-8.5s4.5-1.4 7.9-3.2c5.6-2.8 7-3.1 14.7-3 13.6.2 17.2.7 22.5 3.5 6.3 3.2 10.2 7.4 14.9 15.8 2.8 5.2 3.6 7.7 3.6 11.7 0 8.3-3 21.1-7 29.7-2 4.4-4.2 9.6-4.9 11.6-1.5 4.6-4.4 19.7-4.4 22.9.2 10.9 1.3 28.6 2.1 34 1.9 11.7 3.3 21.8 3.8 28.1.8 8.5 1.9 11.3 4.1 10.1 1.1-.7 3-.3 6.2 1.3 2.6 1.3 7.6 2.5 11.6 2.9 3.8.4 7.4 1.1 8 1.5.5.4 6.6 1.8 13.5 3.1 6.9 1.2 15 3 18 4 4.9 1.6 17.3 5.3 22.5 6.7 1.1.3 4.3 1.6 7 2.8 2.8 1.3 6.9 2.8 9.2 3.4 6.2 1.7 16.6 7.7 22.8 13.3 4.2 3.8 9.4 5.2 9.6 2.5 0-.6.2-16.5.4-35.2.3-18.7.9-38.3 1.5-43.5.5-5.2 1.4-14 1.9-19.6 1.3-14.4 2.8-20.5 7.8-32.4 10.4-24.5 17.4-34.5 34.2-48.9 5.9-5.2 9-7.1 22.6-13.9 12.1-6.2 22.7-8.9 36.5-9.7 5.7-.3 10.6-.8 10.9-1.1s-4.3-.2-10.2.1c-19.3 1-30.2 4.6-51.5 16.7-8.9 5.1-22.8 18.6-29.8 29-4.6 7-11.8 21.5-16 32.7-3 7.9-5.4 21.2-5.4 29.7 0 3.4-.4 6.5-.9 6.8-1.3.8-2.4 24.9-2.7 58.1-.1 16.5-.3 30.3-.3 30.7-.2 1.9-3.7.5-7.8-3.2-2.5-2.2-5.1-4-5.8-4-.6 0-2.2-1.1-3.4-2.4-1.3-1.4-5.8-3.7-10-5.1-4.2-1.5-8.9-3.2-10.6-3.9-1.6-.7-4.1-1.8-5.5-2.4-1.4-.5-6.5-2.2-11.5-3.6-4.9-1.5-11.9-3.5-15.5-4.6-7.5-2.3-28.2-6.7-38.5-8.2-3.8-.5-9.1-2-11.6-3.3-2.6-1.3-5.6-2.1-6.7-1.8-2.2.5-2.8-1.1-3.7-10.2-.5-5.5-2.1-16.6-3.7-26.5-.8-5.4-1.9-23.2-2-34-.1-4.8 3.2-19.7 5.7-25.9 2.4-5.9 3-7.1 5.5-12.2 1.8-3.4 5-20.1 5-25.9 0-4.3-.8-7-3.6-12.5-1.9-3.9-5-8.5-6.7-10.3-4.3-4.5-12.2-8.4-17.7-8.7-2.5-.1-4.5-.4-4.5-.5 0-.2-3.5-.4-7.8-.4-5.4-.2-9.5.4-12.9 1.6m-15.1 160c-.2 1.3-.4.3-.4-2.2s.2-3.5.4-2.3c.2 1.3.2 3.3 0 4.5m-4.2 42.9c-1 1.5-2.5 1-1.9-.6.4-.8 1-1.2 1.5-.9s.7 1 .4 1.5M359 496c0 1.6.7 2 3.5 2 2.4 0 3.5-.5 3.5-1.5 0-.8-.9-1.5-2-1.5s-2 .4-2 1c0 .5-.5 1-1.1 1s-.9-.7-.5-1.5c.3-.8.1-1.5-.4-1.5-.6 0-1 .9-1 2"/><path d="M930.2 506c-10.8 1.4-20.3 4.7-30.8 10.8-9.7 5.6-27.4 21.2-27.4 24.1 0 1-1.2 2.8-2.6 4.2-3.8 3.5-8.6 13.6-13.9 29.4-6.2 18.7-7.5 29.2-8.1 64-.3 15.4-.5 28.4-.5 29-.1 1.4-.3 27.5-.2 36.2v7.1l6.8 7c3.7 3.9 8.1 9.7 9.7 12.9s4 7.6 5.3 9.8c1.2 2.2 3.2 8 4.4 13 1.2 4.9 2.5 10.3 3 12 2.3 7.4 3.5 38.6 1.8 46.5-.3 1.4-1.5 7.2-2.8 13-2.3 11.1-3.9 14.1-12.4 24.1-2.5 2.9-4.5 5.7-4.5 6.1 0 .5-.9 2.1-2 3.6-1.8 2.5-2 4.9-2.5 39.2-.3 20.1-.2 37.8.3 39.5.7 2.4 1.4 3.1 4 3.3 4.7.5 22.5-2.6 28.5-4.8 2.9-1.1 7-2 9.3-2 7.3 0 7.1 1.3 6.3-41.5-1-50.4-.2-221 1-235 1.6-17.9 5.5-34.1 11-46 8.4-18 8.5-18.2 8.3-25.6-.1-7.8.8-10.1 5.6-13.6 2.8-2.1 3.2-2.1 8.1-.7 6.1 1.9 10.1 6.3 10.1 11.4 0 3.3-1.4 5.8-11.6 21.3-5.9 9-12 20.8-12.9 24.8-.4 1.9-1 3.8-1.4 4.4-2.4 3.4-6.3 26.7-5 30.1.3 1.1.2 2.8-.4 3.9-.8 1.6-1.7 163.4-1 191.5.1 3.6.1 20 0 36.5-.1 16.8.2 30.6.7 31.3 1 1.5 7.1.6 10.1-1.4 1.1-.8 2.5-1.4 3.2-1.4 1.9 0 7.9-4.1 9.4-6.5 1.1-1.6 1.4-16.1 1.5-74.5.3-102.2 1.7-151.6 4.7-161.9 2.7-9.2 5.6-12.4 19.3-21.5 4.5-3 6.9-5.2 14.6-13.6.9-1 4-5.3 6.8-9.4 2.9-4.2 5.6-7.6 6.1-7.6s.9-.9.9-2c0-1 .7-3.6 1.6-5.7s2.2-5.2 2.9-6.8c2-4.7 3.3-12.2 4.6-26.1 1.1-12.7 1.1-13.8-1.7-34.9-.3-2.2-.9-4.9-1.4-6-3.9-8.8-7-16.5-7-17.4 0-3-21.2-21.1-24.8-21.1-.7 0-2.4-.8-3.8-1.7-3.1-2-19.8-2.7-31.2-1.3m30.1 2.3c1.4.9 3.2 1.7 3.9 1.7 4.4 0 24.2 17.8 25.4 22.8.4 1.5 1.7 4.7 3 7.2s2.4 5.2 2.4 6c0 .9.4 2 .9 2.5.9 1 1.2 2.8 3.2 18 1.7 13.3-.7 38.1-4.6 47-.7 1.6-2.1 5.5-3.1 8.5-1.1 3-2.2 5.6-2.6 5.8s-3 3.7-5.8 7.8c-2.8 4.2-5.9 8.4-6.8 9.4-7.1 7.7-9.3 9.8-12.3 12.1-1.9 1.4-4.8 3.3-6.5 4.2-1.8.9-5.2 3.7-7.7 6.2-3.8 3.8-5 5.9-7.1 12.8-2.6 8.7-2.4 5.3-4.2 69.2-.4 11.5-.8 51.8-.9 89.5s-.2 70.4-.3 72.6c-.3 5.9-3.1 8.5-14.7 13.4-3.7 1.6-5.5 1.9-6.7 1.5-1-.4-1.3-7.3-1.1-30.8.1-16.6.1-33.1.1-36.7-.7-26.4.1-188.9.9-191 .6-1.4.7-3.3.4-4.4-1.3-3.5 2.7-26.6 5-29.1.5-.5.9-1.9.9-3.2 0-2.7 7.4-17 13.5-25.9 2.5-3.6 4.5-6.9 4.5-7.5 0-.5 1.6-2.9 3.5-5.5 3.9-5.1 4.6-10.3 2.1-15.3-2.1-3.9-3.6-5-9.7-6.5-5-1.3-5.6-1.3-8.5.5-5.2 3.2-6.4 5.8-6.2 14.3.1 5.8-.3 8.5-1.9 11.8-7.1 14.5-9.5 20.2-11.3 27.3-3.7 14.3-5.1 21.8-6.1 33-1.2 13.8-2 184.3-1.1 234.5.8 42.5 1.1 41-6.5 41-2.4 0-5.8.7-7.5 1.6-3.3 1.7-22 5.4-27.5 5.4-2.7 0-3.5-.5-4.4-2.7-.7-1.9-.8-14.9-.4-39.1l.6-36.2 3.1-4.8c1.8-2.6 4.6-6.4 6.4-8.4 7.7-8.6 10.3-15.1 13.4-32.8 1.7-9.3 1.9-26.9.5-39-2.9-26.1-11.4-47.1-24.5-60.7l-6.4-6.6v-6.6c0-3.6.1-12.8.2-20.4s.1-14.1.1-14.5c-.1-.4-.1-.9 0-1.2s.4-13.1.6-28.5c.4-29.9 1.9-46 5.3-55.5 1.1-3 3-8.7 4.2-12.5 2.7-8.7 8.3-19.9 12.1-24.3 1.6-1.8 2.9-3.9 2.9-4.6 0-1.6 12.1-13.1 19.8-18.8 6.8-5 19.1-11.4 26-13.4 12.4-3.7 36.6-4.3 41.5-1.1m-830.5 17.4c.8 1.6 2.2 8.6 2.4 12.3 0 .8.5 2 1 2.6.5.7 1.1 3.6 1.3 6.5.3 3 .8 7.1 1.1 9.1.5 3.4.3 3.8-1.5 3.8-1.2 0-2.1.4-2.1 1 0 .5.7.7 1.5.4 1.2-.5 1.5.3 1.5 3.8 0 2.4-.6 5-1.2 5.6-1 1-1 1.7 0 3.2.7 1.1.8 2 .2 2-.5 0-1.9 3.3-3.1 7.2-1.2 4-2.6 7.7-3 8.2-.5.6-.9 2.3-.9 3.9 0 1.5-.4 3.6-1 4.6-1.8 3.4-10.3 35.2-9.5 35.9.5.6.8-.2 2.5-7.8.7-3 2.1-8.4 3.2-12s2.4-8.3 3-10.5c.7-2.2 1.5-4.4 2-4.9.4-.6.8-2.1.8-3.5.1-4.1 5.6-19.3 7.4-20.3.9-.5 1.6-1.4 1.6-1.9 0-.6-.5-.7-1-.4-1.4.9-2.4-2.3-1.2-3.8 1.4-1.9 2.1-11.3 1.2-19.7-.4-4.1-.5-7.7-.4-7.9.2-.2 1 .2 1.9.9.9.8 1.5.8 1.5.2s-.9-1.3-1.9-1.7c-2.5-.8-3.9-3.8-4.5-10-.6-4.8-1.7-8.5-2.7-8.5-.6 0-.6.7-.1 1.7m108.4 113.5c-1.1 1.8-2.5 5.6-3.2 8.5-.6 2.8-1.9 5.8-2.8 6.6-1.2 1-5.1 1.6-12.2 2-12.3.7-15 1.3-14.9 3.6q0 1.5.6.3c.8-1.9 2.3-1.4 2.3.9 0 2.6 5.3 4.9 12.9 5.5 21.1 1.7 44.2 4.6 51.7 6.5 9.7 2.4 29.2 8.6 30.9 9.8.5.4 3.5 1.8 6.5 3.1 3 1.2 8.7 4.4 12.5 7.1 14.5 10 25.1 22.2 30 34.4 2.4 5.9 2.8 8.2 2.6 15-.1 4.3-.7 8.8-1.3 9.8-1.7 3.3.6 4.1 4 1.3 1.6-1.4 3.7-2.6 4.6-2.6s1.6-.3 1.6-.8c0-.4.4-3.3 1-6.5 2.4-15-8.2-36.3-25.4-51-7-6-21.4-15.2-26.4-16.8-2-.6-4.1-1.5-4.7-1.9-4.8-3.3-36.5-11.6-57.2-15-9-1.5-10-2.5-8-8.3 1.1-3.2 1.2-5.6.6-8.8-.4-2.4-.8-4.7-.9-5.2-.1-1.9-3-.4-4.8 2.5m4.6 2.5c.8 3.7.7 5.5-.5 8.5-2.6 6.5-1.1 8.2 8.4 9.7 43.3 6.8 72.7 18.9 91.9 37.7 8.6 8.5 11.1 11.8 15.9 21.2 5.1 10 6.7 17.4 5.5 24.8-.6 3.3-1 6-1 6.1 0 .2-.8.3-1.7.3s-3 1.2-4.6 2.7c-2.4 2.3-2.8 2.4-2.2.8 1.8-4.3 2.1-17.8.4-22.5-4.2-12-10.8-22-19.9-30-6.3-5.5-19.9-15-21.5-15-.7 0-3.2-1-5.6-2.3-5.3-2.8-23.1-8.7-35.3-11.7-7.2-1.7-53.5-7.4-55.5-6.7-.3.1-2-.4-3.8-1.2-3-1.2-5.2-4.5-3.9-5.8.3-.4 5.4-.8 11.3-1.1 6-.2 11.4-.9 12.1-1.5.7-.5 1.9-3.5 2.8-6.6 1.4-4.9 4.9-12.1 5.9-12.1.2 0 .8 2.1 1.3 4.7"/><path d="M734.5 672.9c2.2.4 6.5 1.8 9.5 3.2s10.9 4 17.5 5.6c24.1 6.2 35.6 10.7 50.2 19.9 3.4 2.1 8.1 5 10.4 6.4s7.8 6.5 12.3 11.4c4.4 4.9 9.8 10.7 11.8 12.9 2.1 2.1 4.9 6.4 6.3 9.5 1.5 3.2 3.3 7.1 4.2 8.8.8 1.7 1.5 4.6 1.6 6.3.2 3.1 0 3.2-10.8 7.6-6 2.5-11.4 4.5-11.9 4.5-.4 0-5.8 2-12 4.4-6.1 2.4-14 5.1-17.6 6.1-10.2 2.7-20.1 5.4-25.5 7-2.7.8-9 2.6-14 4.1-4.9 1.4-9.7 2.8-10.5 3.1s-2.5.5-3.7.4-3.7.5-5.5 1.3c-3.8 1.7-11.8 3.6-30 7-6.9 1.3-16.8 3.5-22 4.9-5.1 1.4-13.1 3.2-17.8 4.1-8.9 1.6-14.2 2.9-22.6 5.2-6.7 1.9-9.6 1.8-12.5-.4-1.3-1-3.7-2.4-5.2-3.2-1.5-.7-4.5-2.8-6.5-4.5-2-1.8-7-5.2-11-7.6-10.4-6.3-11.5-6.9-13.2-6.9-.8 0-2.8-1.1-4.4-2.3-2.7-2.2-3-3.1-3.7-11.3-2.9-34.8-5.1-41.6-17.2-53.8-6.7-6.7-12.1-10.2-21.2-13.6-5.8-2.2-20.2-4.1-32.2-4.3-6.8-.1-12.3-.3-12.3-.5s1.3-.8 3-1.3c2.7-1 2.8-1.2 1.4-2.7-1.5-1.5-1.5-1.6.2-2.3 2.9-1.1 22.1-1 29.4.2 3.6.5 7.8 1.7 9.4 2.5s3.5 1.4 4.1 1.4c2.6 0 12.8 5.2 17.9 9 3 2.2 7.4 6.7 9.9 9.8 9.5 12.1 13.6 24.2 13.7 39.9 0 7.7.2 8.3 2 8.3 1.2 0 3.3-.6 4.8-1.4 5.2-2.6 40.1-10.9 59.2-14.1 15.1-2.5 48.4-9.5 56.1-11.9s22.5-10.3 25.3-13.6c3.6-4.4 3.6-9.9-.2-14.1-2.6-2.9-3.4-3.2-10.2-3.5-4.1-.2-8.2-.7-9.2-1s-1.8-.1-1.8.5 1.7 1.1 3.8 1.2c13.3.3 13.3.3 16.3 3.7 3.8 4.2 3.8 8.1 0 12.4-2.8 3.2-17.9 11.4-25.1 13.7-6.1 2-40.4 9.2-55 11.6-18.2 3-54 11.4-59.8 14-1.8.8-3.6 1.5-4.1 1.5-.4 0-1.1-5.1-1.4-11.3-.7-15.5-4.2-25-13.5-36.9-7.8-10.1-14.8-14.4-33.2-20.5-8.1-2.7-27.3-4.2-36.3-2.9-4.3.7-4.7.9-4.1 3 .4 1.8.1 2.5-1.5 2.9-1.2.3-2.1 1.1-2.1 1.9 0 1 2.7 1.3 12 1.4 27.3.3 43 5.9 55.6 19.7 10.8 12.1 12.1 16.3 15.4 51.7 1 10.6 1.9 12.1 9.1 14 2.1.6 4.1 1.4 4.3 1.9.3.5 3.8 2.8 7.8 5.1 4 2.4 9 5.8 11.2 7.6 2.1 1.8 5.2 4 7 4.9 1.7.9 4.2 2.3 5.6 3.1 3.2 1.8 6.1 1.8 12.4 0 5.4-1.6 11.2-2.9 21.6-5 14.2-3 16.8-3.5 24.9-5.6 4.6-1.2 13.2-3 19-4 11.1-1.9 16.6-3.3 24.1-5.7 2.5-.9 6.1-1.7 8-1.8 1.9-.2 7.8-1.7 13-3.3s12.4-3.7 16-4.7c3.6-.9 7.5-2.1 8.7-2.6 2.2-.8 15.3-4.3 22.3-5.9 1.9-.4 7.9-2.7 13.3-4.9 5.3-2.3 10.6-4.1 11.6-4.1 1.1 0 2.2-.4 2.6-.9.3-.5 2.9-1.7 5.8-2.7 2.8-.9 5.7-2 6.2-2.4.6-.5 2.6-1.2 4.5-1.7 3.2-.9 3.5-1.2 3.4-4.7s-1.1-6-6.7-18.4c-1-2.3-3.1-5.5-4.6-7s-6.4-6.8-10.9-11.9c-8.4-9.4-10.9-11.4-22.2-18.3-17.1-10.5-31.4-16.1-56.5-22.3-5.5-1.4-12.6-3.7-15.8-5.1s-7.2-2.5-9-2.5c-3 .1-3 .2.8.8m-610 1.2c-22.9 1.9-41.4 4.1-46.9 5.5-3.2.9-7.2 1.3-8.9 1-1.7-.4-5.7.2-9.6 1.4-3.6 1-10.2 2.4-14.6 3-4.4.5-11.1 1.5-15 2.1-3.8.6-8.1 1-9.5 1-1.3-.1-3.8.3-5.5.9s-5.8 1.4-9 1.9c-4.4.6-5.1.9-2.5 1 2 0 6.2-.6 9.3-1.4s6.7-1.4 8-1.4c1.2.1 5.4-.4 9.2-1 3.9-.6 10.5-1.5 14.7-2.1 4.2-.5 10.3-1.8 13.5-2.7s8.1-1.6 11-1.5c2.8.1 6.4-.3 8-.9 5.1-2 54.5-6.9 57.8-5.8.6.2.9 2.3.7 4.6-.5 6.5 1.6 23.9 3.3 28.1 4.4 10.4 16.1 17 35 19.7 9.1 1.3 46.5 4 52.5 3.8 5.2-.2 23.7 3 28.8 4.9 10.8 4 15.9 8.6 22.2 19.9 4 7.1 10.7 14.4 16.8 18.3 3.1 1.9 5.5 2.6 9.3 2.6 10.7 0 38.5-4.9 43.9-7.7 3.2-1.7 5.2-1.6 10.9.2 2.5.9 9.6 3.1 15.6 4.9 32.5 9.9 51.8 17 90.9 33.2 3.2 1.4 6.1 2.3 6.3 2 .5-.5-7-4-10.9-5.1-2.4-.6-3.7-1.2-9.8-3.8-1.9-.9-8.2-3.4-14-5.6-5.8-2.3-11.4-4.6-12.5-5.1-5.3-2.3-25.7-9.1-50-16.6-6-1.9-13.3-4.2-16.2-5.1-4.4-1.4-5.7-1.5-9-.4-11.7 4-34.4 8.1-44.6 8.1-8.2 0-18.9-8.7-25.7-20.9-3.8-6.9-9.6-14.1-11.3-14.1-.6 0-2-.8-3.1-1.9-4-3.6-27.5-9.2-37.1-8.8-2.7.1-12.2-.5-32.5-1.9-24.8-1.7-34.2-3.6-42.6-8.9-11.5-7.3-14.5-14.2-14.8-34.4-.1-6.3-.7-11.6-1.2-11.6-.5-.1-5.4.2-10.9.6"/><path d="M733.5 675c1.7.4 4.2 1.2 5.7 1.8 3.3 1.3 4.8 3.5 2.2 3.1-2.8-.4-11.4 1.2-11.4 2.1 0 .4 1.7.4 3.8-.1 2-.5 5.2-.9 7-.9 2.2 0 3.2-.5 3.2-1.5 0-1.9-7.4-5.5-11-5.4-2.3.1-2.3.2.5.9m-.5 10.6c2.3 1 6.9 1.7 13 1.8 5.2.1 10 .5 10.7.9 2 1.2 5.4 9.8 6 15 .4 3.5.1 5.8-1.3 8.7-1 2.2-2.2 4-2.5 4-.4 0-2.6-2-5-4.4-5.2-5.1-10.7-6.5-19.2-4.8l-5.2 1 6.6-.5c8.5-.7 12.8.8 17.3 5.8 4.6 5 6.7 5 8.9-.1 2.2-5.3 2.2-9.7-.4-17.3-3-9-3.2-9.2-15.5-9.3-6.2-.1-11-.6-11.7-1.3-.6-.6-2-1.1-3.1-1.1-1.5.1-1.1.5 1.4 1.6m-3 25.4c0 .5.5 1 1 1 .6 0 1-.5 1-1 0-.6-.4-1-1-1-.5 0-1 .4-1 1m-619.3 1.4c-.3.7.7 2.3 2.4 3.5 1.6 1.2 2.9 2.9 2.9 3.8s.3 1.4.6 1c.4-.3 2.3.1 4.2.9 2 .8 4.2 1.2 4.9 1 .7-.3 1.5-.1 1.8.4.4.6 1.7 1 3 1s2.6.4 3 .9c1 1.7 10.9 5.9 15 6.4 2.2.3 5.8 1 8 1.6 6.1 1.7 17.8 3.1 30.5 3.7 32.6 1.4 48.5 2.9 49.6 4.5.3.5 1.6.9 2.9.9 2.6 0 19.4 5.4 23.8 7.6 1.5.8 2.7 2.1 2.7 2.9 0 1.8 5.6 4.8 7.8 4.2 1.5-.4 1.4-.5-.2-.6-1.3-.1-1.6-.6-1.1-1.9s.4-1.4-.6-.5c-1.4 1.4-5.4-.2-4.4-1.7s-3.3-3.7-14.8-7.3c-18.3-5.9-21.7-6.6-32.9-7.3-10.7-.7-13-1.7-11.1-4.6.4-.7.1-.8-.6-.3-.7.4-1 1.6-.8 2.7.5 1.8.2 2-3.6 1.4-2.3-.3-9.9-.8-16.9-1.1s-14.6-.9-16.7-1.4c-2.2-.5-4.2-.7-4.4-.5-.2.3-3.3-.3-6.8-1.2s-8.4-1.9-10.9-2.3c-5.2-.9-8.3-2.2-12.5-5-1.6-1.2-3.8-2.1-4.8-2.1-.9 0-2.5-.9-3.4-2-1-1.1-2.4-2-3.2-2-1.1 0-1 .4.5 1.5 2.2 1.6 1.2 2-1.6.5-1-.5-2.1-2.1-2.4-3.5-.4-1.4-1.3-2.5-2.2-2.5-1.4 0-1.4.2 0 1.6 1.6 1.5 2.1 3.4 1 3.4-.3 0-2.1-1.7-4-3.7-2.6-2.7-3.1-3.9-2.2-4.5 1-.6.9-.8-.3-.8-.9 0-1.9.6-2.2 1.4m374.3.2c0 .9.7 1.4 1.7 1.2 2.5-.5 2.8-2.8.4-2.8-1.2 0-2.1.6-2.1 1.6m469.3 20.8-3.2 1 .2 28.5.2 28.6 36.4.3c20.1.1 36.2 0 36-.3-.3-.2-16.5-.6-36-.7l-35.4-.3-.2-27.8c-.2-26.6-.1-27.7 1.7-27.7 1 0 2.1-.4 2.4-.9s15.5-.9 33.8-1c18.2-.1 33.4-.4 33.7-.6.9-1-66.4-.1-69.6.9M330 742.1c0 .5-.4.7-1 .4-.5-.3-1-.2-1 .4 0 .5.4 1.1 1 1.3.5.1 1.2 3.4 1.5 7.2.4 5.4.2 7.3-1 8.6-2.6 2.8-.9 4.8 3.8 4.7 4.7-.2 5.4-1.5 5.6-10.3.1-4.2-.4-5.7-3.1-9.2-3.1-4-5.8-5.5-5.8-3.1m4.9 4.3c2.4 3 3.1 4.9 3.1 8.2 0 5.8-1.7 10.1-3.3 8.5-.9-.9-.9-1.4.3-2.1.8-.5 1-1 .4-1s-1.9.9-2.9 2c-1.3 1.5-2.2 1.7-2.9 1-.8-.8-.6-1.4.7-2.1 1.5-.9 1.7-2 1.3-8.4-.3-4-.6-7.7-.7-8.2-.2-1.3.1-2.7.5-2.2.2.2 1.8 2.1 3.5 4.3m-32.8.5c-.9.6-.9 2.4-.1 7.7 1.3 8.2 2.9 11 6.7 11.7 1.5.3 3.9.8 5.2 1.2 1.9.7 2.2.5 2-1-.2-1-1.1-2.1-1.9-2.3-1.3-.5-1.3-.3 0 1.3 1.4 1.7 1.3 1.8-.5 1.1-1.1-.5-3-1.1-4.3-1.4-1.3-.2-3-1.5-3.8-2.8-1.8-2.7-3.5-13.5-2.4-14.8 1.4-1.5 4.7 3 6.5 9 .9 3.3 1.9 6.3 2 6.9.2.5.4-.1.4-1.5.1-1.4-.9-5.2-2.2-8.4-2.2-5.9-5-8.3-7.6-6.7m59.9 6.7c0 1.6-.2 1.7-1 .4s-1-1.2-1 .2c0 1 .5 1.8 1 1.8 1.3 0 2.5-2.8 1.6-3.7-.3-.4-.6.2-.6 1.3M3 755c9.5 2.2 13 3.3 19 5.9 3.6 1.6 9.4 4.1 13 5.5 13.9 5.7 16.6 6.9 20 8.6 6.5 3.3 19.5 10.3 21.8 11.8 3.7 2.4 8 4.7 18 9.7 5.1 2.6 13.5 7.4 18.6 10.8s11.4 7.7 14.2 9.4c12.3 8.2 22.3 15.7 29.8 22.5 16.6 15.2 16.3 15 20.8 15.5 2.4.3 14.5.7 27 1 19.6.4 24.5.2 37-1.7 7.8-1.2 20.4-3 27.8-4.1 7.4-1 14.4-2.4 15.5-2.9 1.1-.6 4.7-1.4 8-1.9 6.4-1 15.9-2.9 43.5-8.6 3.6-.7 8.9-1.8 11.9-2.4s5.9-1.5 6.5-2c.6-.6 4.7-1.3 9.1-1.6 4.4-.4 9.7-1.3 11.8-2.1 2-.8 5.6-1.4 8-1.4 2.3-.1 8.7-1 14.2-2.1 18.9-3.8 25-4.9 39.7-7.2 8.2-1.3 15.1-2.7 15.5-3 .3-.4 1.1-.3 1.7.2.7.6 3.7.1 8.1-1.4 3.9-1.3 6.5-2.4 5.9-2.4-.6-.1-3.6.7-6.7 1.7-3.1 1.1-6.1 1.6-6.8 1.1-.6-.4-2.4-.3-3.8.2-1.4.4-8.4 1.7-15.6 2.8-14.7 2.3-24.7 4.1-38.5 7-5.2 1.1-11.4 2-13.7 2.1-2.3 0-6.2.6-8.5 1.4-2.4.8-7.9 1.7-12.3 2.1s-8.6 1.2-9.3 1.8c-.7.5-3.4 1.4-6 1.8-5.1.9-16.2 3.4-22.7 5-2.2.5-6.9 1.4-10.5 1.9-10.2 1.4-14.4 2.2-15.5 3-.5.4-3.6 1-6.9 1.4-3.2.3-6.7 1.1-7.7 1.6-1 .6-5.1 1.5-9.1 2s-10 1.4-13.3 1.9c-34.1 5.3-33.9 5.2-57.3 4.7-12.5-.2-24.4-.6-26.4-.9-3.8-.4-4-.5-20.4-15.5-6.9-6.2-16.3-13.4-27.4-20.9-7.3-4.9-24.8-16.2-26.8-17.2-2.7-1.5-2.1-3.1 1-2.3 1.3.3 1.9.1 1.5-.6-.8-1.1-2.5-1.1-4.3.1-1.9 1.1-6.8-.9-17.9-7.6-1.1-.6-4.7-2.8-8-4.7-12.3-7.4-30.3-15.6-57-26.2-6.5-2.6-15-4.8-17.8-4.7-1.4.1-1 .4 1.3.9"/><path d="M167.7 759.2c-10.5 2.6-15.7 5.3-15.7 8.3 0 .6-1.3 1.6-3 2.2-1.6.6-3 1.6-3 2.2 0 1.1 6.3-1.8 6.9-3.2 2.7-6.3 16.8-10.9 32.8-10.8 15.5.2 26.4 4.6 30.4 12.4 2.7 5.2 1.5 6.4-2.5 2.4-1.8-1.8-5-3.7-7.2-4.2-3-.8-3.9-1.5-3.9-3.2 0-1.1-.4-2.5-.9-3-.5-.4-.7-.3-.3.2.3.6.2 1.7-.3 2.5-.8 1.3-1.4 1.3-4.1-.3-3.7-2.1-14.4-2.3-24.9-.5-6.1 1-7.3 1-8.2-.2-.8-1.2-.9-1.2-.4.2.4 1.3 0 1.8-1.3 1.8-1.1 0-3.3 1.6-5 3.6-2.6 2.9-3.5 3.4-4.6 2.4-1-.8-1.5-.9-1.5-.2 0 .6.8 1.5 1.7 2.1 1.3.7 2.5.1 5.3-3 3-3.3 4.4-4 10-5 3.6-.7 10.6-1.4 15.7-1.6 7.3-.4 9.7-.2 11.5 1.1 1.2.9 3.2 1.6 4.3 1.6s2.9.7 3.9 1.5c1.1.8 2.7 1.5 3.7 1.5.9 0 3.3 1.5 5.4 3.4 5.7 5.2 8.4 2.9 4.7-4.1-3.9-7.2-14.6-11.8-29.1-12.5-7.8-.4-11.1 0-20.4 2.4M1.5 765.7c1.1.3 2.7 1.1 3.5 1.7 2 1.7 10.3 5.6 11.8 5.6.7 0 2 .4 3 1 3.8 2.1 15.4 7 16.6 7 .6 0 1.6.4 2.1.9.6.4 6.9 3.9 14 7.6 7.2 3.7 13.5 7.2 14.2 7.7s2.7 1.8 4.5 2.7c1.8 1 4.7 2.5 6.3 3.4 1.7.9 5.9 3 9.5 4.8 3.6 1.7 7.9 4.2 9.7 5.5 1.7 1.3 3.8 2.4 4.5 2.4s3.8 1.8 6.8 4 8.3 5.9 11.7 8.2c3.5 2.3 6.3 4.5 6.3 4.9 0 .5 1.7 1.7 3.8 2.8 5.9 3.1 21.4 16.4 25 21.4l3.3 4.6-3.8 1.6c-2 .9-5.8 2.1-8.2 2.7-2.5.6-5.7 1.7-7.1 2.5-1.4.7-3.3 1.3-4.2 1.3-1 0-3.5.6-5.5 1.3-2.1.8-5.4 2-7.3 2.7-1.9.6-5.3 1.6-7.5 2s-7.6 1.6-12 2.5c-4.4 1-10.9 2.4-14.5 3.1-11.9 2.6-17.4 3.4-32.5 4.9-8.2.9-17.9 2-21.5 2.5-8.3 1.2-21.9 2.3-29 2.2H-.5l5 .8c2.8.4 5.3.6 5.6.4.4-.2 4.5-.6 9-1 4.6-.3 13.4-1.1 19.4-1.9 6.1-.7 14.2-1.6 18-2 8.6-.7 19.3-2.3 26-3.7 9.4-1.9 18-3.8 24.3-5.3 3.5-.8 7.3-1.5 8.5-1.5s3.5-.7 5.1-1.5c1.5-.8 3.7-1.5 4.8-1.5 1 0 3.1-.6 4.6-1.4 1.5-.7 4.5-1.7 6.7-2.1s4.5-1 5-1.4c.6-.5 4.5-1.9 8.9-3.2 4.3-1.3 8.1-3 8.3-3.7 1.3-3.2-18.7-22.6-28.4-27.6-1.8-.9-3.3-2-3.3-2.4 0-.9-7.7-6.2-8.9-6.2-.5 0-1.6-.9-2.6-2-2.3-2.6-12-9-13.5-9-.6 0-2.6-1.1-4.3-2.4-1.8-1.3-7-4.3-11.7-6.5-8.8-4.3-16.4-8.4-18.4-10-2.9-2.3-29.4-15.4-39.6-19.6-6.3-2.5-12.7-5.3-14.2-6.1-1.4-.8-3.1-1.4-3.8-1.4-.6 0-2.3-.9-3.7-2s-3.5-1.9-4.7-1.9c-2 .1-2 .2-.1.6m851.3 11.2c-2 1-6.1 2.4-9 3.1s-6 1.8-6.8 2.5-3.5 1.9-6 2.6-4.9 1.6-5.5 2c-.5.4-5 1.7-10 2.9-4.9 1.2-10.4 2.8-12.1 3.6-1.7.7-6.2 2.1-10 2.9-8.1 1.8-11.2 2.6-21.9 6-4.4 1.4-8.8 2.5-9.9 2.5-1.8 0-11.2 2.3-26.1 6.5-2.7.7-7 1.8-9.5 2.4-2.5.5-5.6 1.3-7 1.6-3.3.8-13.9 3-22 4.5-3.6.6-12.1 2.5-19 4.1s-14 2.9-15.7 2.9c-2.1 0-3.6.6-4.2 1.8-1.1 2.1.1 4.5 5.5 10.2 6.4 6.9 27.4 37.5 30.5 44.5 1.6 3.6 2.5 4.5 4.4 4.5 3 0 11.3-1.9 13.7-3.1.9-.5 4.3-.9 7.5-1s8.1-.5 10.8-1c2.8-.5 11.1-1.6 18.5-2.5 7.4-.8 13.9-1.9 14.4-2.4.6-.6 2.1-1 3.6-1 1.4-.1 4.3-.7 6.5-1.5s8.5-2.2 14-3.1 10.9-2.2 12-2.9 8.8-3.3 17-5.9c18.1-5.8 19.8-6.5 25.4-10.7 2.4-1.9 5.6-4.1 7-5 1.4-.8 3.1-2.6 3.7-3.8.7-1.3 1.7-2.8 2.3-3.4s1.1-2 1.1-3c0-1.1 1.1-3.2 2.4-4.8 1.7-2 2.6-4.7 3.1-8.6.3-3.2 1.3-7.4 2.1-9.3 1.5-3.6 2.6-15.9 1.2-13.7-.4.6-.8 3.1-.8 5.5s-.5 5.2-1.1 6.4c-.6 1.1-1.5 5-2 8.6-.6 4.3-1.9 8-3.4 10.2-1.4 2-2.5 4.2-2.5 4.8 0 2.1-4.8 9-7.1 10.3-1.2.6-4.7 3-7.8 5.3-4.5 3.4-8.8 5.2-22.1 9.5-9.1 2.8-17.8 5.8-19.5 6.6-1.6.8-6.1 1.9-10 2.5-3.8.6-10.4 2-14.5 3.2-4.1 1.1-9.7 2.6-12.5 3.3-2.7.7-8.4 1.6-12.5 2-4.1.3-11.3 1.2-16 1.9-4.7.8-10.9 1.5-13.9 1.6-3 0-5.8.3-6.3.6-1.3.8-11.8 3.4-13.8 3.4-1.3 0-2.8-1.8-4.9-6.3-1.7-3.4-4.5-8.3-6.3-10.9-1.8-2.5-6.8-9.5-11-15.6-4.2-6-10.2-13.8-13.2-17.3-5.9-6.7-6.1-8.9-.7-8.9 1.4 0 8.2-1.3 15.1-2.9s15.4-3.5 19-4.1c7.4-1.4 17.6-3.5 23.5-4.9 2.2-.5 5.6-1.2 7.5-1.6s5.5-1.3 8-2c6.1-1.9 16-4.3 24.5-6.1 3.9-.8 9.5-2.3 12.5-3.3 6.1-2 9.3-2.9 22.4-6.2 4.9-1.2 10-2.8 11.5-3.5 1.4-.8 3.4-1.4 4.4-1.4 2.4 0 12.3-2.8 16.2-4.5 1.7-.7 4.4-1.7 6-2.1 1.7-.3 3.7-1.2 4.5-1.9.8-.6 3.8-1.8 6.5-2.5 2.8-.7 6.7-2.1 8.7-3.2 2.1-1 4.8-1.8 6.1-1.8 2.1 0 2.6.7 3.6 5.7 1.5 7 1.7 11.8.8 15.8-.6 2.3-.4 2.2.7-.7s1.2-5 .5-9.5c-2.1-12.9-1.8-12.3-5.3-12.3-1.7.1-4.8.9-6.8 1.9m106.7 26.9c-3.8.2-7.4.7-7.9 1.2s-.8 26.2-.8 57.1c.1 53.5 0 56.5-1.9 60.6-1 2.3-1.9 4.6-1.9 5 0 .5-1.7 2.5-3.7 4.5-2.6 2.5-5.4 4-8.8 4.8-10.5 2.4-14 3.3-15.1 4.2q-1.05.75-.3 6c.5 2.8.6 5.4.4 5.9-.3.4-.7 4.9-1 10.1-1.2 24.5-5 39.8-13 51.8-2.5 3.7-4.5 7.4-4.5 8.1 0 1.8 11-15.2 11-17.1.1-.8.8-3.3 1.6-5.5 3.2-8.4 5.2-21 6-37.7.2-4.4.6-8.8.9-9.7.3-1 .1-3.8-.4-6.4l-.8-4.6 4.5-1.6c2.5-.8 5.5-1.5 6.8-1.5 3.4 0 10.6-2.9 13.2-5.3 1.3-1.2 3.6-4.7 5-7.7l2.7-5.5.1-56.8c.1-40 .5-57.2 1.3-58 .7-.7 12.1-1.2 35.7-1.4 19.1-.1 34.9-.4 35.1-.6.4-.5-53.9-.4-64.2.1M493 820.1c-8.5.9-16.8 2.3-18.5 2.9-1.6.7-5.9 1.6-9.5 2.1-11.6 1.4-25.4 4-26.5 4.8-.5.5-4.6 1.2-9 1.5-4.4.4-11.4 1.4-15.5 2.1-12.9 2.5-23.1 4.4-35.5 6.9-12.2 2.5-18.8 3.7-21.5 4.1-.8.2-5.8 1.2-11 2.3s-10.6 2.3-12 2.5c-1.4.3-5.6 1.2-9.5 2-3.8.9-11.9 2.5-18 3.7-6 1.1-13.9 2.9-17.5 4-6.5 1.8-22.4 3.9-35.5 4.6-3.8.2-10 1.1-13.6 1.9-5.4 1.4-11.4 1.6-32.8 1.3-25.5-.3-26.1-.3-26.1 1.7 0 1.1.9 3.1 2 4.5s2 3.2 2 4c0 .9 1.1 6 2.5 11.5 3.2 12.5 4.1 27.7 2.5 40.4-.7 5.3-1.6 10-2 10.6-1.1 1.5-5 14.2-5 16.3 0 1.7 1 2.1 6.2 2.6 20 2.1 86.8-1.1 95.8-4.6 1.4-.5 5.7-1.1 9.5-1.3 3.9-.2 12.2-1.4 18.5-2.5 6.3-1.2 15.3-2.6 20-3 9.1-.9 22.2-3.9 34-7.7 2.5-.8 9.9-2.3 16.5-3.4 16.4-2.7 15.8-2.7 26.5-3.9 9.4-1.2 14.6-2.3 18.5-4 1.1-.5 6.9-1.8 12.8-2.9 10.4-2 15.7-2.7 38.7-5.2 5.8-.6 15.7-2 22-3.1 6.3-1 14.2-2.3 17.5-2.7 3.3-.5 7.8-1.3 10-1.9s6.9-1.3 10.5-1.7c3.6-.3 8.5-1.2 11-2 2.5-.7 9-2 14.5-3 5.5-.9 11.8-2 14-2.5s6.5-1.2 9.5-1.6c3-.3 6.3-1.1 7.3-1.6s3.2-1 5-1.2 5.3-.9 8-1.6c3.6-.9 4.7-1.7 4.7-3.3 0-9-51.5-53.2-73-62.7-10.6-4.7-22.5-9.8-25.5-11-4.1-1.7-7.4-1.7-22.5.1m20.7.5c2.6.9 7.1 2.6 9.8 3.9 2.8 1.3 9.7 4.4 15.5 7 13.4 5.9 29.8 17.9 53.2 38.9 9.6 8.6 20.8 21.2 20.8 23.4 0 1.3-6.7 3.4-11.9 3.8-1.9.2-4.6.8-6 1.3-1.4.6-5.5 1.5-9.1 2-3.6.6-10.3 1.7-15 2.6s-10.3 1.9-12.5 2.1c-2.2.3-5.6 1.2-7.5 1.9s-7.1 1.6-11.5 2-9.1 1.2-10.5 1.7-5.2 1.3-8.5 1.7c-3.3.5-11.6 1.8-18.5 2.9-17.7 2.9-27.9 4.2-32.5 4.2-2.2 0-9.4.9-16 2s-14.9 2.5-18.5 3.1-7.7 1.7-9.1 2.5c-2.3 1.1-13.9 3.3-26.4 4.8-10.7 1.3-28.8 4.7-35.5 6.6-4.1 1.2-10.6 2.9-14.5 3.7-3.8.8-7.4 1.9-7.9 2.4-.6.5-3.5.9-6.5.9-3.1 0-11.9 1.2-19.6 2.5-7.7 1.4-17.5 2.7-21.7 2.9-4.2.3-8.5.9-9.5 1.4-7 3.8-96.6 7.2-100 3.9-.7-.8 2.4-12.4 4.1-15.2 2-3.2 3.9-22 3.3-32.8-.7-10.8-4.7-30-7.8-36.2-1-2.2-1.9-4.2-1.9-4.5s11.8-.4 26.2-.2c21.3.3 27.3 0 31.8-1.2 3-.9 9.3-1.8 14-2.1 14.6-.8 31-3.3 43.5-6.3 6.6-1.7 17-3.9 23-5.1 6.1-1.1 16.4-3.2 23-4.7 12.9-2.8 13-2.8 22-4.4 3.3-.5 10.3-1.9 15.5-2.9 29.3-6 39.7-7.9 48-8.6 3.6-.3 8.8-1.2 11.5-2 6.5-1.8 21.5-4.5 25.4-4.5 1.7 0 5.2-.7 7.8-1.6s11.6-2.5 19.8-3.4c8.3-1 15.1-1.8 15.2-1.9.1 0 2.4.6 5 1.5"/><path d="M480 824.6c0 1.3 4.6 6.4 5.8 6.4.4 0 2.1 1.8 3.8 4.1 1.6 2.2 5.7 7.7 9.1 12.2 3.5 4.5 6.3 8.6 6.3 9.2 0 .5.6 2.2 1.4 3.7s1.7 4.2 2.1 6 1.4 5.3 2.3 7.7c1.2 3.4 1.3 4.7.4 6.2-1 1.6-.9 1.9.3 1.9.8 0 1.5.3 1.6.7.4 3.7 1.3 8 3 14.8 1.2 4.4 2.4 9.2 2.6 10.7.3 1.6.9 2.8 1.3 2.8.5 0 .4-1.5-.2-3.3-1-3.4-3.4-12.6-4.7-19-.5-2.2-.5-4 .1-4.3.5-.3.3-1.1-.5-1.7-1.6-1.3-2.9-7.7-1.6-7.7.5 0 1.3.8 1.8 1.7.9 1.5 1 1.5 1.1.2 0-.8-1.3-2.5-2.9-3.6-1.9-1.5-3-3.4-3.4-6.1-1-5.8-5.3-14.9-9.8-20.6-2.8-3.5-3.6-5.2-2.7-5.7.6-.4 1.7-.5 2.3-.2.5.3.5 0-.2-.7-1-1-1.5-1.1-2.7-.1s-1.7.8-2.6-.8c-.9-1.8-.8-2.1.9-2.1 1.1 0 2.3-.5 2.6-1 .4-.7-.3-.8-2-.4-2.3.6-3.4.1-6.4-3-8.1-8.2-9.1-9-9.1-8m344.5 48.9c-3.3 1.1-6.7 2.4-7.5 2.7-3.9 1.6-12.1 3.8-13.9 3.8-1.1 0-2.2.4-2.5.9-.3.4-3.4 1.4-6.8 2.1-9.4 1.9-16.8 4-21.3 6-2.2 1-7.6 2.1-12 2.5-4.4.3-9.4 1.1-11.1 1.6s-6.5 1.4-10.5 1.9c-4.1.5-8.3 1.1-9.4 1.4s-4.7 1-8 1.6c-3.3.7-7.4 1.6-9.1 2.1s-3.9.9-5 .9-2.8.6-3.8 1.3c-1.7 1.3-1.6 2.1 2.8 15.8 7.4 23.5 8 28.3 4.5 35.6-2.6 5.3-10.7 12.8-15.7 14.4-2 .6-4.2 1.6-4.9 2.1-.7.6-4.6 1-8.7 1-6.3-.1-8.6-.6-13.8-3.1-8.8-4.2-16.8-10.9-22.1-18.3-4.2-5.9-20.7-37.5-20.7-39.7 0-.5-.6-1.1-1.2-1.3-1.7-.6-11.4 1.5-15.8 3.4-2 .8-6 1.5-9.1 1.5-3 0-7.1.5-9 1.1-1.8.6-9.9 1.8-17.9 2.7s-15.4 1.9-16.5 2.4c-6 2.6-15.6 4.3-34.5 6.1-8.8.9-17.7 2.4-29 4.9-8.6 1.9-23 4.2-32.2 5.2-5.1.5-10.2 1.2-11.3 1.6-1.1.3-3.3.7-5 .9-1.6.1-7.9 1.2-13.8 2.3-5.9 1.2-14 2.4-18 2.7-4 .4-9 1.5-11.2 2.5-4.9 2.2-12.6 3.8-31 6.4-2.7.3-6.1 1.1-7.5 1.5-1.4.5-6.9 1.4-12.3 2-5.3.5-13 1.9-17 2.9-3.9 1.1-12.1 2.5-18.2 3.1-13.1 1.3-22 2.7-29.5 4.5-3 .8-9.3 1.7-14 2.1-4.7.3-10.5.8-13 .9-7.9.6-19.4 1.6-23.5 2-10.6 1.1-42.1 0-46.2-1.6-6.7-2.6-19.1-.4-21.6 3.7-1 1.7-10.8 6.9-16.8 8.9-2.7.9-5.1 2.1-5.4 2.6-.4.5-1.8.9-3.3.9s-4.5.6-6.7 1.4c-2.2.7-6.5 1.6-9.5 2-4.7.5-21.8 3.6-37 6.5-2.5.5-5.8 1.4-7.3 2-1.6.6-5.6 1.1-9 1.1s-10.5.7-15.7 1.6c-16.5 2.8-20.3 3.3-26.5 4-3.3.4-6.4 1-7 1.4-1.1.9-17.7 2.6-21 2.2-1.6-.1-1.7 0-.5.7 1.7 1 15.7-.7 40-4.8 20.1-3.4 25.2-4.1 30.7-4.1 3.4 0 7.4-.5 9-1.1 1.5-.6 4.8-1.5 7.3-1.9 14.8-2.9 32.2-6 36.5-6.6 2.8-.3 6.8-1 9-1.6 2.2-.5 5.6-1.3 7.5-1.7s4.9-1.5 6.5-2.3c1.7-.9 4.5-1.9 6.2-2.3 1.8-.3 3.5-1.1 3.9-1.6.3-.5 2.1-1.6 4.1-2.4 1.9-.8 5-2.8 6.9-4.4 1.8-1.7 4.9-3.4 6.7-3.9 3.1-.9 12.5-.1 14.6 1.2.5.3 8.2.8 17.2 1.2 16.1.6 20.3.6 26.4 0 7.1-.7 21.6-1.9 38.5-3.1 5.8-.4 11.3-1.2 12.2-1.6.9-.5 3.4-1.1 5.5-1.4s5.8-1 8.3-1.5 9.7-1.4 16-2 14.8-2 18.7-3.1c4-1 11.7-2.4 17-2.9 5.4-.6 11.2-1.5 12.8-1.9 1.7-.5 6.4-1.4 10.5-2 4.1-.7 9.5-1.6 12-2.1s6.3-1.1 8.5-1.5c2.2-.3 5.8-1.4 8-2.5 2.2-1 8.4-2.3 13.8-2.9s13.3-1.8 17.5-2.7 9.1-1.8 10.7-2c6-.7 19.2-2.6 28-4 5-.9 12.4-2 16.5-2.5 4.1-.6 7.9-1.4 8.5-1.8 1.2-1 14-3.1 25.5-4.2 10.8-1 25.4-3.4 30.5-4.9 2.2-.7 9.2-1.9 15.5-2.7s15.8-2.3 21-3.3 10.9-1.6 12.6-1.3c1.8.3 4.8-.3 7.5-1.5 2.4-1.1 6.5-2.5 9.1-3l4.6-.9 4.2 8.6c15.1 31.1 19.6 37.8 30.7 45.7 3.9 2.8 9.5 5.9 12.4 6.9 5.9 1.9 18.5 2.3 21.6.6 1-.5 3.9-1.9 6.5-3.1 5.8-2.6 13-10.4 14.6-15.8 2.3-7.5 1.3-13.4-5.7-35.2-4.2-13-4.2-15 .2-15 1.1 0 3.4-.4 5.1-.9s5.8-1.4 9.1-2.1c3.3-.6 6.9-1.3 8-1.6s5.5-1 9.9-1.5c4.3-.5 8.3-1.2 8.8-1.5.6-.4 5.9-1.2 11.8-1.9s12.3-2 14.1-2.9c3.6-1.8 7.5-2.9 17.9-5.1 3.6-.7 7.6-1.8 9-2.3 1.4-.6 5.2-1.8 8.5-2.7s7.1-2.1 8.3-2.6c9.3-3.8 14.2-4.9 16.7-3.7 1.4.6 2.5 1.6 2.5 2.1 0 .6.7 1.8 1.5 2.7.9 1 1.8 4.1 2.2 7.1.8 6.2.4 44-.6 54.3l-.6 7-9 1.8c-4.9 1-10.6 2.1-12.5 2.4-1.9.4-4.7 1.3-6.2 2-1.5.8-4.6 1.4-7 1.4-2.4.1-7.2.7-10.8 1.5-3.6.9-9.2 2-12.5 2.6s-6.4 1.5-6.9 2c-.6.5-2.8.9-5.1.9s-4.5.4-5.1.9c-.5.5-3.6 1.4-6.9 2-3.3.7-8.9 1.8-12.5 2.6-13.8 2.8-18.8 3.8-27.5 5-12.3 1.9-18.2 3.1-23.5 4.8-5.1 1.8-22.8 5.2-31 6.2-3 .3-8.9 1.3-13 2.1-4.1.9-8.6 1.7-10 1.9-1.4.1-5 1-8 1.8s-9.5 2-14.5 2.7c-4.9.7-12.1 2.1-16 3.1-3.8 1.1-8.5 1.9-10.5 1.9-1.9 0-7 1.1-11.3 2.5s-8.7 2.5-9.9 2.5-4.4.6-7.2 1.4c-7.1 2-27.4 5.6-31.7 5.6-2 0-3.9.3-4.3.7-1 1.1-10.3 3.4-14.6 3.7-4.8.4-17.2 2.4-25 4.1-3.6.8-9.2 1.9-12.5 2.5-3.3.7-7 1.6-8.3 2.1s-3.4.9-4.7.9c-1.4 0-2.5.3-2.5.8 0 1.1 6.3.9 7.6-.3.6-.6 3.9-1.6 7.5-2.3 3.5-.7 9.6-1.9 13.4-2.7 9.3-2 19.1-3.6 24-4 5.1-.5 15.1-2.8 16.1-3.8.4-.4 2.1-.7 3.8-.7s6.7-.7 11.1-1.6c4.4-.8 10.3-1.9 13-2.4 8.7-1.4 23.9-5 27.8-6.5 2-.8 5.6-1.5 8-1.5 2.3 0 6.5-.7 9.2-1.6 4.8-1.5 8.7-2.2 24.5-4.5 4.1-.6 8.2-1.5 9.2-2 .9-.5 3.2-1.1 5-1.4 1.8-.2 5.8-.9 8.8-1.5s10-1.7 15.5-2.5c12.3-1.8 28-5 32-6.5 3.6-1.4 9.9-2.7 22.5-4.5 5.2-.8 11.8-1.9 14.5-2.5 2.8-.6 7.9-1.5 11.5-2.1 3.6-.5 7.2-1.3 8-1.6 2.4-1.1 13.1-3.4 18-4 2.5-.3 5-.9 5.5-1.3.6-.5 3.5-1.3 6.5-1.9s8.4-1.8 12-2.6 8.8-1.4 11.6-1.5c2.7 0 5.4-.4 6-.9 1-1.1 15.9-4.8 22.7-5.7 2.5-.4 5-.9 5.6-1.3 1.6-1 3.6-53.8 2.1-57.5-.6-1.6-.8-3.7-.5-4.7 1-3.2-3.6-11.7-6.9-12.9-3.4-1.2-2.5-1.3-10.1 1.5m-668.5 2c-3.6 1.9-7.2 3.4-8 3.5-.9 0-2 .4-2.5.9-1.2 1.1-20.7 6.8-26 7.6-2.2.4-6 1.3-8.5 2s-6.3 1.6-8.5 2c-2.2.3-5.3 1-7 1.5-9.1 2.7-63.5 9.3-87.4 10.5-4 .2-7.6.6-7.9.9-.9 1 21.9-.6 47.8-3.4 21-2.2 60.1-8.7 63-10.5.5-.3 4.4-1.2 8.7-2 9.9-1.9 30.8-8.7 38.5-12.6 6.6-3.3 8.6-3.6 9.5-1.2 1 3 4.3 10.7 5.3 12.5 1.5 2.6 3 14.1 3.1 22.6.1 8.6-1.8 25.1-3 26.7-.5.5-1.1 2.5-1.4 4.3-.4 1.8-1.8 4.9-3.2 7-1.4 2-2.5 4.4-2.5 5.3 0 1-2.9 4.4-6.5 7.7-6.4 5.8-6.8 6-18.8 9.2-6.7 1.7-13.5 3.8-15.2 4.5-1.6.7-5.9 1.7-9.5 2.3-3.6.7-8.3 1.6-10.5 2.1-12.9 3-36.3 6.8-58 9.6-5.5.7-11.8 1.8-14 2.4-4.6 1.4-20.6 3.4-28.2 3.5q-5.1.15-3.6.9c.8.5 3.3.6 5.6.3s7.4-.8 11.2-1.1c3.9-.4 10.6-1.5 15-2.5s11.6-2.3 16-2.8c10.7-1.3 39.6-5.8 46.5-7.2 7.9-1.7 12.9-2.8 17.5-4 2.2-.5 5.5-1 7.3-1s4.3-.6 5.5-1.4 7.6-2.8 14.1-4.6c6.6-1.7 12.8-3.6 13.9-4.2 4-2.1 11-9.4 12.8-13.3 1-2.2 2.5-5.1 3.3-6.5 7.1-12.1 9-49.1 3.1-61.5-.7-1.7-2.4-5.4-3.6-8.3-2.8-6.4-4.5-6.6-13.9-1.7"/><path d="M836.9 882.4c-.2.2-2.6.7-5.4 1-2.7.3-7.9 1.3-11.5 2.2-3.6.8-7.6 1.7-8.9 1.9s-7.6 1.3-14 2.4-15 2.4-19.1 3l-7.5.9 9-.5c5-.3 13.2-1.4 18.4-2.4 5.1-1 10.8-1.9 12.5-1.9 1.8 0 3.6-.4 4.2-.8.5-.5 5.4-1.6 10.9-2.6 9.2-1.7 15.5-3.4 12.9-3.5-.6-.1-1.3.1-1.5.3m-309.2 59.3c-.4.3-3.3.8-6.5.9-5.2.3-7.3.9-12.4 3.5-1 .5-3.3.9-5.1.9-1.9 0-3.7.3-4 .6-.4.4-2.3.8-4.4 1-8 .7-13.8 1.6-14.6 2.4-1.2 1.1 8.4.1 11-1.2 1.2-.6 3.3-.8 4.8-.6 1.4.3 2.8.1 3.1-.3.3-.5 2-.9 3.9-.9 1.8 0 5.5-.9 8.1-2.1 2.7-1.1 5.6-1.8 6.6-1.6 1 .3 2.1.1 2.4-.4s2-.7 3.9-.3c2 .3 3.5.1 4-.6.9-1.5 3.5.6 3.5 2.9 0 1 .7 2.6 1.5 3.7.8 1 1.5 2.9 1.5 4 0 1.2.7 2.7 1.5 3.4s1.5 2 1.5 2.9 1.1 3.6 2.5 6c1.4 2.3 2.5 5.1 2.5 6.1 0 2.8 1.1 5.1 2.1 4.4.6-.3 2.5.6 4.4 2.1 3.9 2.9 4.1 2.9 2-1.1-.8-1.6-1.5-2.3-1.5-1.6 0 .9-.7.9-3-.3-2.1-1.1-3-2.3-3-4 0-1.4-1.1-4.3-2.5-6.5s-2.5-4.8-2.5-5.9c0-1-.7-2.4-1.5-3.1s-1.5-2.1-1.5-3.2-.7-2.6-1.5-3.4c-.8-.9-1.5-2.5-1.5-3.8 0-3.4-3.4-5.9-5.3-3.9M469.4 952c-1.5 1.5-12.4 2.5-12.4 1.1 0-.6-1-1.1-2.2-1-2.2 0-2.2.1.2 1.1l2.5 1.1-3.3.9c-2.4.6-3.8.5-4.8-.3-.8-.6-1.4-.7-1.4-.2 0 1.4-8 4.7-10.7 4.4-1.2-.1-3.9.5-5.9 1.4-2 .8-6.6 1.8-10.1 2.1-5.7.5-6.3.4-6.4-1.2 0-1.2-.3-1.4-.6-.6-.3.7 0 1.8.6 2.6 1.2 1.5 13.5.4 15.7-1.4.7-.6 3.2-1.3 5.6-1.5 2.4-.1 6.3-1.2 8.7-2.3 3.2-1.5 5.1-1.8 6.8-1.1 1.3.5 2.3.5 2.3 0 0-.9 3.3-1.7 10.5-2.5 4.2-.5 10.7-3.4 8-3.5-1.2-.1-2.5.3-3.1.9m-83 12.7c.1 4-.1 4.3-2.6 4.3-1.6 0-3.3-.9-4.4-2.3-1.4-1.9-1.6-1.9-.9-.2 1.2 3.7 1 4-3 4.3-5.7.3-8.5 1.1-8.5 2.3 0 .6.6.6 1.9-.1 1.1-.5 3.8-1 6-1s4.2-.4 4.5-.9c.3-.4 3.3-1.1 6.6-1.4 3.4-.4 6.9-1.1 7.8-1.6 1.2-.7.4-.8-2.5-.4l-4.2.5-.4-3.8c-.4-3.9-.4-3.9-.3.3m484.8.6c-.6.6-1.3 2.4-1.7 3.9-.6 2.3-.3 2.7 2.8 3.7 1.9.7 4.7.9 6.1.5 2.1-.5 2.6-1.2 2.6-3.8 0-1.8-.5-3.7-1.2-4.4-1.6-1.6-7.3-1.5-8.6.1m7.6.9c2.1 2.1 1.4 5.7-1.1 6.3-2.4.6-7.7-.9-7.7-2.3 0-.4.7-1.8 1.6-3 1.7-2.4 5.3-2.9 7.2-1m-79 2.3c-.3.3-3 .8-5.9 1-3 .3-8.8 1.4-12.9 2.5-4.1 1.2-10 2.5-13 2.9-8.3 1.2-20.7 4-28.1 6.2-3.7 1-7.3 1.7-8.2 1.3-.8-.3-1.8-.1-2.2.5-.3.6-2.1 1.1-3.8 1.1-1.8.1-5 .8-7.2 1.6s-6.9 1.7-10.5 2.1c-3.6.3-7.4 1-8.4 1.6-1 .5-4.6 1.3-8 1.8s-9.5 1.6-13.6 2.5c-4.1.8-12 2.1-17.5 2.9-5.5.7-10.9 1.5-12 1.8s-6.3 1.6-11.5 3-11.7 2.9-14.5 3.2c-2.7.4-5.7.9-6.5 1.2-.8.4-2.4.7-3.5.9-1.1.1-5.6.9-10 1.9s-8.9 1.8-10 2c-3 .4-7.8 1.6-10 2.5-1.1.5-5.1 1.1-8.9 1.5-6.9.6-14.3 2.1-18.1 3.6-1.9.7-7.3 1.8-12.5 2.4-1.4.2-5.5.4-9.2.4-5.8.1-6.8.4-6.8 1.8 0 1.2.3 1.4.8.7.4-.7 4.6-1.4 9.7-1.7 9.5-.6 14.2-1.4 24-4.1 3.3-1 9.5-2 13.8-2.3s8-1 8.3-1.5c.3-.4 1.6-.8 2.9-.8s2.7-.5 3-1c.4-.6 1-.8 1.4-.5.5.2 5.1-.5 10.2-1.6 5.2-1.2 10.5-2.3 11.9-2.5 6.1-.8 18.6-3.5 25.6-5.4 10.1-2.8 10.3-2.9 22.4-4.5 5.8-.8 13.9-2.2 18-3.1 4.1-.8 10.4-1.9 13.9-2.4s6.8-1.4 7.5-1.8c.6-.5 4-1.2 7.6-1.5s8.5-1.3 10.9-2.1c2.4-.9 5.8-1.6 7.6-1.6 1.7 0 3.5-.3 3.8-.7.4-.3 1.9-.7 3.4-.9 1.6-.1 5.3-.9 8.3-1.7 8.7-2.5 20-5 26-5.8 4.8-.6 15.5-3.1 20-4.6 1.5-.5 10.7-1.5 12.5-1.3 4.8.4 6.7.8 7.7 1.8.7.7 2.4 1.2 3.9 1.2s3.1.6 3.7 1.3c.7.7 2.5 6.9 4.2 13.8 1.7 6.8 3.8 14.6 4.7 17.4 1.8 6 8.3 19.6 8.3 17.7 0-.8-1.6-4.8-3.6-8.9-2-4.3-5.3-14.6-7.6-23.7-2.2-8.8-4.5-16.7-5-17.4-.6-.6-2.2-1.2-3.7-1.2-1.4 0-3.4-.7-4.4-1.4-1-.8-2.6-1.2-3.6-.9s-2.2 0-2.5-.6c-.8-1.2-1.9-1.4-2.8-.6m-447.5 6.4c-5.6.9-10.5 1.9-10.9 2.3-.4.5-2.8.8-5.3.8-2.5.1-7.5.7-11.1 1.5s-8.1 1.4-10 1.5c-1.9 0-8.7 1.1-15 2.4-14.7 3.1-26.8 5.1-30 5-1.3-.1-2.9.4-3.5 1.1-.5.7-3.7 1.6-7 1.9-11.4 1-17 1.9-18 2.6-.6.5-5.5 1.6-11 2.4-12.5 2-19.3 3.4-20.7 4.2-.6.4-1.8-.2-2.6-1.2-1.3-1.6-1.4-1.7-.9-.2.4 1 .3 1.8-.1 1.8s-3.8.7-7.7 1.5c-4.2.8-7.3 1.1-7.9.5-.5-.5-1.9-.4-3.5.4-1.4.7-6.2 2.1-10.6 3-4.4 1-9.7 2.2-11.8 2.7-2.1.6-7.1 1.3-11 1.5-6.1.4-13.1 1.9-19.7 4.1-.8.2-5.5.7-10.5.9-4.9.3-9.3.8-9.9 1.1-.5.3-1.9.7-3 .9-1.2.1-5.2 1-9.1 2.1-3.8 1-9.2 1.8-12 1.8-4.4 0-5.1-.3-6.3-2.8-1.7-3.5-2.6-3-1.3.6 1 2.6 7.2 5.4 7.9 3.5.5-1.2 3.6-1 5 .4.8.8 1.2.8 1.2.1 0-.6 3.3-1.8 7.3-2.7 3.9-.9 8.6-2.1 10.2-2.6 1.7-.5 6.9-1.1 11.8-1.2 4.8-.2 8.7-.6 8.7-.9 0-.4 2-1 4.5-1.3 2.4-.4 4.7-1.1 5-1.7.4-.5 3.2-.9 6.4-.9 5.7 0 32.5-5.1 35.9-6.8.9-.5 4.1-1 7-1 2.9-.1 6.8-.6 8.5-1.1 1.8-.6 4.6-1.3 6.2-1.5 1.7-.2 5.3-.9 8-1.5 2.8-.6 6.6-1.4 8.5-1.7 11.6-1.8 16.6-2.8 17.5-3.4 1-.8 5.6-1.5 18.3-2.6 4.8-.4 7.6-1.2 7.9-2s.9-1.1 1.4-.8c1 .6 11.3-1.1 31.4-5.1 12-2.4 23.8-4.2 35-5.4 3.3-.3 6.5-.9 7.1-1.3.5-.4 3.2-.9 6-1.2 6.8-.8 16.7-2.6 17.3-3.1.7-.7-2.5-.4-13.6 1.4"/></g></svg>