<svg xmlns="http://www.w3.org/2000/svg" width="1365.333" height="1365.333" preserveAspectRatio="xMidYMid meet" version="1.0" viewBox="0 0 1024 1024"><g fill="#000" stroke="none"><path d="M421.7.8c-.3.4-.5 6.3-.6 13.2 0 6.9-.1 19.1-.2 27.1-.1 8.1.1 15.1.5 15.7.3.6.3 1.3-.1 1.5-.5.3-.7 3.4-.6 6.9.3 12.2.3 18.3-.3 21.3-.3 1.6-.4 4.8-.3 7 .2 3.7.1 55.2 0 65.3-.1 4.3-.1 4.3-3.3 3.7-4.4-.8-7.9-1.2-17.3-2-4.4-.4-9.3-.9-11-1.1-3.2-.3-27-2.1-39.5-2.9-8.7-.6-16.7-.8-19.5-.5-1.1.1-9.4-.2-18.5-.7-19.7-1-85-.9-114.5.1-29.8 1-42.6 1.5-45.5 1.7-25.2 1.6-36.9 2.7-38.3 3.6-.5.3-6.9.7-14.1.9-13.2.2-36.2 2.6-42.6 4.4-1.9.6-6 1.2-9.1 1.4s-6.1.6-6.5.9c-.5.3-4.5.8-8.9 1.2s-9.4 1.4-11.2 2.2-3.6 1.2-4.2.9c-.5-.4-1.2-.2-1.5.2-.3.5-2.4.9-4.8 1s-5.5.4-7.1.8c-2.6.5-2.7.8-2.7 7s.1 6.4 2.2 5.9c13.2-2.8 24.2-4.6 33.8-5.5 6.3-.6 15.8-1.7 21-2.5s14-1.9 19.4-2.5c5.5-.6 11.6-1.4 13.5-1.9 2-.5 8.1-1.2 13.6-1.6 5.5-.3 12.5-.8 15.5-1 9.9-.7 27.3-1.7 38.5-2 6.1-.2 15.5-.7 21-1 5.5-.4 10.7-.6 11.5-.5 3.4.2 46.9-.3 52-.6 11.4-.8 60.6-.3 89.5 1 17.3.7 36.7 1.7 44 2.2 3.9.3 9.3.7 12 .8 2.8.2 7.7.6 11 1s8.1.9 10.6 1.2c2.5.2 5.6.7 7 .9 3.4.7 20.7 3.4 24.9 3.9 1.9.3 3.5.5 3.5.6s1.6.3 3.5.5 4.2.5 5 .6 2 .6 2.6 1c.6.5 3.3 1.2 6 1.5 2.7.4 9.5 1.9 15 3.5 5.6 1.6 11 2.9 12 2.9 1.1 0 3.2.7 4.8 1.5 1.5.8 3.1 1.3 3.5 1 .4-.2 2 .3 3.5 1.1 1.6.7 3.2 1.4 3.7 1.4s4.2 1.6 8.2 3.6c3.9 2 9.2 4.3 11.7 5.1 6 2.1 13.3 5.5 14.5 6.8.6.6 2.8 2.3 5 3.8 8.1 5.4 20 17.9 30.8 32.2 2 2.7 3.7 5.4 3.7 6s1 3.1 2.2 5.6c1.2 2.4 2.3 5.2 2.5 6.2.2.9 1.4 3.9 2.7 6.5 1.4 2.6 2.8 6 3.2 7.7.4 1.6 1.1 3.5 1.6 4.2.5.6 1.2 2.7 1.4 4.5.9 5.6 1.1 6.2 2.3 9.1.6 1.6 1.1 4.1 1.1 5.7s.4 3.1.9 3.4c.5.4 1.2 2.5 1.6 4.9.4 2.3 1.2 4.8 1.7 5.4.6.7.8 1.3.4 1.3-.3 0-.1 1.2.5 2.7.6 1.6 1 5.3 1 8.3s.7 8.2 1.4 11.5c1.3 5.7 2.5 16 3.1 27 .1 2.7.3 5 .4 5s.3 5.1.5 11.3.7 14 1.1 17.5c.4 3.4.9 8.2 1 10.7s.2 4.7.3 5 .3 4.3.5 9c.4 9-.2 14.3-1.4 13.5-.4-.2-2.8.9-5.3 2.5-2.5 1.5-4.7 2.6-5 2.4-.2-.3-1.8 1.1-3.6 3.1-1.7 2-3.5 3.3-4.1 3-.5-.3-1.4.4-2 1.5s-1.4 1.9-1.8 1.8c-.8-.3-15.2 13.8-15.2 14.9 0 .4-.8 1.6-1.8 2.7-1 1.2-2.5 3.7-3.2 5.6s-2.1 4.6-3 6c-1 1.4-2 4.1-2.4 6.1-.4 2.1-1.3 5-2.1 6.6s-1.7 4.4-2 6.3c-.7 5.3-2.4 13-2.9 13.9-.3.4-.7 7.2-1 15.1-.4 8-.9 15.9-1.2 17.7-.8 4.3-1 28.6-.3 31.5.6 2.4-1.8 4.8-6.7 6.8-2.4 1-2.3 4 .3 9.9 2.9 6.4 2.5 20.7-.8 28.7-1.3 3.1-1.6 3.9-1.8 5.3-.2 1.8-7.4 11.4-10.4 14.1-6.2 5.3-14.2 11.5-16.7 12.8-5.2 2.8-9.1 7-14.4 16-3.1 5.1-5.6 9.5-5.6 9.8 0 .7-6.5 8.7-10 12.3-5 5.3-24 12.8-31.5 12.6-6.8-.3-8.4-.8-20.1-6.7-8.9-4.5-10.6-5.8-13.5-10.2-1.8-2.8-3.5-6.2-3.7-7.6-.2-1.3-.7-2.9-1.1-3.5-1.3-1.6-1.3-10.4 0-17.5 2-11.6 8.2-28.3 12.9-35 1-1.4 1.8-2.7 1.7-3-.3-2.8 12.4-17 23.1-25.8 5.8-4.8 6.1-6.5 2-10.9-2.3-2.6-4.8-6.5-4.8-7.6 0-1.4 7.3 1.6 11.4 4.8 3.3 2.5 8.9 3.4 10.1 1.6.5-.8 2.9-.9 7-.2.6.1-.1.7-1.4 1.2-1.9.8-2.1 1.2-1.1 2.4.7.8 2 1.5 2.9 1.5 1.2.1 1.1.5-.8 2-1.3 1.1-2.9 2-3.6 2s-1.8.6-2.4 1.4c-.7.8-2.3 1.7-3.7 2-2.8.7-12.8 8.2-16.2 12-1.2 1.5-3.4 3.1-4.7 3.6-1.4.5-2.5 1.6-2.5 2.5 0 .8-.5 1.5-1 1.5-.6 0-1.6 1.2-2.3 2.7-.6 1.6-1.7 3.2-2.4 3.8-1.6 1.3-9.3 16.1-9.3 17.8 0 .8-.9 2.6-2 4s-2 3.6-2 4.9c0 1.4-.3 2.8-.7 3.2-1.3 1.3-1.6 4-1.6 16.1-.1 12.9 1 17.1 5.5 21.1 5.8 5.2 9.6 3 10.4-6.1.8-9.9 2.4-16.2 4.4-18 1.1-1 2-2.4 2-3.2 0-1.5.9-1.6 3-.3.8.5 1.1 1.2.8 1.6-.4.4-.3 1.5.2 2.5.7 1.2.5 3.2-.7 6.6-1.8 5.3-2.5 17.5-1.2 21.1 1.2 3.1 4.9 4.3 9.3 3.1 5.9-1.6 6.8-4.2 6.5-17.4-.2-6.5 1.2-16 2.4-17.2.7-.8 2-1.1 2.8-.8 1.5.6 4.1 5.4 3.4 6.4-.8 1.3-1.6 16.3-1 18.2 2.4 7.4 10.2 1.5 17.3-13 6.6-13.4 8.2-15.2 21.2-24.6 20.3-14.7 25.6-22.3 28.6-41.5 2.4-15.3 1.7-19.8-4.3-28.1-1.8-2.6-3.3-5-3.3-5.5 0-1.2-9.3-9.4-10.8-9.4-1.1 0-2.8-.7-7.2-3.1-4-2.2-11.1-5.4-16.5-7.4-3.3-1.2-9.8-3.7-14.5-5.5-8-3.1-23.6-7.8-39.7-12.1-3.9-1.1-9.2-2.8-11.8-3.9-2.5-1.1-4.9-1.9-5.3-1.9-2.1.3-2.3-.3-.7-2.1 1-1.1 2.2-2 2.7-2s2.6-1.1 4.8-2.5 4.5-2.5 5.1-2.5c1.6 0 14.6-9.9 15.3-11.6.3-.8 1.7-1.9 3.1-2.4s2.5-1.5 2.5-2.3c0-.7 1.9-3.3 4.3-5.8 4.7-4.9 7.8-5.5 13.2-2.7 1.7.9 4.8 2 6.9 2.4 2.2.4 5.1 1.3 6.5 2 1.4.8 3.8 1.4 5.2 1.4s6.6 1.3 11.4 2.9c6.4 2.2 9.3 2.7 10.6 2 4-2.1 5.2-8.5 2.2-11.1-1-.8-7-3-13.3-5-27-8.4-32.1-10.1-32.6-11-.3-.5 0-1.5.6-2.4 1.2-1.3 3.1-8.8 3.3-12.7.1-.9 1-2 2-2.3 2-.6 22.4.3 27.2 1.3 1.6.3 7.4.6 12.9.5 9.6 0 9.9-.1 12.8-3 3.4-3.4 3.2-6.2-.7-8.8-2.3-1.5-12.4-2.5-30.5-2.9-5.2-.1-12-.3-15.1-.3l-5.7-.2.3-7.3c.2-3.9-.4-10.3-1.1-14.1-.8-3.8-1.2-7.1-1-7.4.3-.2 0-1.6-.5-3.1-.6-1.4-1.5-4.8-2-7.4-.5-2.7-1.6-6.4-2.4-8.3s-2.1-4.9-2.9-6.7c-.8-1.7-1.7-4.4-2.1-5.9s-1.3-3.2-2.1-3.9c-.8-.6-1.4-1.7-1.4-2.5 0-.7-1.3-3.7-3-6.7-1.6-3-3-6.3-3-7.2s-1.1-3.1-2.4-4.8c-2.2-2.9-2.5-4.3-2.7-13.7-.2-5.8-.6-12.1-1.1-14.1-.4-2-1-5.6-1.2-8-.6-5.9-4.3-26.5-6.1-34.2-.8-3.4-2-9.3-2.5-13.2-.6-3.8-2-10.1-3.2-14-1.2-3.8-2.1-7.3-2-7.8.1-.4-.4-2.3-1.2-4.1-.8-1.9-1.2-3.7-.9-3.9.2-.3-.3-1.9-1.1-3.6-.9-1.7-1.9-5.2-2.2-7.8-.6-5.1-4.7-10.8-7-9.9-.7.3-1.8-.2-2.5-1-2.2-2.6-11.7-1.3-17 2.3-5.1 3.5-18.1 17.5-29 31.3-8.5 10.7-9.4 12-16.8 24.7-1.9 3.2-4.8 7.6-6.3 9.7s-2.8 4.6-2.8 5.5-.7 2.7-1.6 3.9c-.8 1.2-2.2 4.4-3 7.1-.9 3.1-2.6 5.9-4.5 7.5-2.9 2.5-3.6 2.6-15.7 2.7-28.4.1-44.2 2.3-44.2 6.1 0 .7-.4.7-1.3 0-.7-.6-2.2-.9-3.4-.6-2.8.8-5.6-.9-7.3-4.3-4-8-9.7-16.7-14.1-21.8-2.7-3.1-4.9-6-4.9-6.4 0-1.1-20-21.7-23.7-24.4-1.7-1.2-7.5-5.8-13-10.2-10.4-8.4-13.7-10.4-21.8-12.8-4-1.2-5.4-1.2-7-.2-1.1.7-3.2 1.6-4.8 1.9-3.4.8-8.8 7.9-8.5 11.5.1 2.7-1.6 12.3-3.3 17.7-.5 1.6-1.1 5-1.3 7.5-.3 2.4-1.2 7.2-2 10.6-.8 3.5-1.2 6.3-1 6.3.3 0 0 .9-.7 2.1-.6 1.2-1.3 6.5-1.5 11.8s-.4 9.6-.5 9.6c-1.1 0-1.9 64.4-.8 66.7.6 1 .5 1.8-.3 2-.6.2-1.2 1.1-1.4 1.9-.1.7-1.2 4.5-2.4 8.4-3.3 10.6-5.9 22.8-6.5 29.7-1 11.4-1.4 14.1-2.5 15.2-.5.5-1 2.4-1 4.1 0 1.6-.4 3.5-.8 4.1-1 1.5-18.2 3.5-32.4 3.8-6.6.1-8 .4-10.2 2.5-2 1.8-2.4 3-1.9 5 .7 3 2.3 5.4 3.1 4.6.3-.3 1.6.2 2.9 1 1.5 1 3.2 1.3 4.6.9 1.2-.4 6.9-.8 12.7-.9 11.4-.3 19.5-1.2 22.3-2.7 1.6-.8 2.2-.1 1.8 2.4 0 .4.6 2.3 1.4 4.2.9 2 1.3 3.6 1 3.6s.2 1.1 1.1 2.5 1.4 2.8 1.1 3.1.1 2.1.9 3.9c1.6 4 1.7 4.8.5 4.1-.5-.3-1.4.1-2.1.9s-1.8 1.5-2.4 1.5-2.7.8-4.6 1.9c-1.9 1-5.1 2.1-7.1 2.5-2 .3-5.4 1.5-7.7 2.6s-4.5 2-5 2c-1.9 0-6.2 4.2-6.2 6 0 2.7 4.6 5.4 8.9 5.3 6.8-.1 15.6-2.4 23.6-6.3 9.9-4.7 10.3-4.7 15.9.5 2.7 2.5 5.5 4.5 6.3 4.5s1.2.4.9.9c-.6 1 8.8 9.6 14 12.7 6.8 4.1 7.4 6.8 2.9 12.9-1.2 1.6-4.2 6.5-6.6 10.9-2.4 4.3-5.8 10.4-7.6 13.5-1.7 3.1-5 9.2-7.4 13.6-2.3 4.4-4.9 9.1-5.9 10.5s-3 5.6-4.5 9.5c-1.6 3.8-3.9 8.9-5.1 11.2-3 5.3-11.1 26.2-12 30.8-.3 1.9-1 3.8-1.5 4-.4.3-.6 1.2-.3 1.9s-.2 1.6-1.1 2c-1.1.4-1.4 1.3-1 2.5.7 2.2-1.9 3.1-10.4 3.6-12.9.8-21.7 1.8-22.6 2.6-.6.4-4.2 1-8 1.3-3.9.4-8.3.8-10 1.1-1.6.2-5.9.6-9.5.9s-10.5 1.2-15.3 2.1c-4.8.8-10 1.5-11.5 1.4s-7.4.6-13.2 1.5-12.7 1.9-15.5 2.2c-2.7.3-6.3.9-8 1.4-1.6.5-5.6 1.2-8.7 1.6l-5.8.6V692h3.8c2.1 0 6.1-.7 8.9-1.5s6.1-1.5 7.4-1.4c2.9.1 17.7-1.9 18.8-2.5.4-.3 3.6-.7 7.1-1 3.6-.3 9-1.3 12-2.2s8.4-1.8 12-1.9 8.1-.7 10-1.3c3.4-1.1 23.5-3.4 42.5-4.8 5-.3 10.1-.8 11.5-.9l2.5-.3.1 12.6c.2 16.7 1.8 22.2 8.2 28.4 3.9 3.8 14.7 11.1 14.7 9.9 0-.2 1.9.2 4.3.8 5.3 1.5 14.2 2.6 28.7 3.6 1.7.1 3.1.3 3.2.4.2 0 5.3.3 11.5.6 34.9 1.6 47.2 3.6 55.3 9.1 2 1.3 3.9 2.4 4.3 2.4 1.4 0 7 6.4 8.9 10.2 5.3 10.5 12.7 18.6 21.2 23.1 3 1.7 4.8 1.9 11.6 1.4 4.4-.4 8.9-.8 10-1.1 1.1-.2 4.5-.7 7.5-1.1 6.9-.9 16-3.1 22.6-5.5 3-1.1 5.5-1.5 6-1s3.4 1.6 6.4 2.4c8.5 2.3 43.9 13.4 49.5 15.6 10.7 4.1 34.2 13.4 38 15 2.2 1 5.6 2.3 7.5 3 9.3 3.4 15 6.1 15 7.2 0 .4-.8.8-1.8.8s-2.2.3-2.6.7-1.9.9-3.4 1.1c-1.4.2-3.2.8-3.9 1.4-.9.7-1.7.7-2.7-.1-1.1-1-2.1-.9-4.3.2-1.5.8-4.1 1.3-5.8 1.2-1.6 0-4.3.3-6 .7-1.6.5-5.2 1.1-8 1.4-6.9.8-7.8 1-9.5 1.6-.8.4-3.7.9-6.5 1.3-2.7.4-8.8 1.6-13.5 2.7s-12.5 2.3-17.3 2.8c-4.9.5-9.5 1.4-10.3 2.1-.9.7-5.1 1.3-10 1.5-4.7.1-9.1.7-9.8 1.3-1.3 1.1-5.8 2.2-17.1 4.2-3.3.5-6.8 1.4-7.7 2-1 .5-2.9.9-4.2.9-1.4 0-2.7.4-3.1.9-.3.6-1.3 1-2.3 1-5.4-.1-19.2 2-20.7 3.1-.5.4-3.6 1-6.9 1.4-3.2.3-6.7 1.1-7.7 1.6-1 .6-5.1 1.5-9.1 2s-8.4 1.2-9.8 1.4c-1.4.3-4.3.7-6.5.9-2.2.3-6.7 1-10 1.5-3.3.6-6.7 1-7.5 1s-3.7.5-6.5 1c-4.1.8-14.1 1.4-23.5 1.4-4.3 0-31-1.1-34.2-1.4-2.6-.3-4.8-1.4-7.1-3.6-1.8-1.8-3.6-3.2-4-3.2-.5 0-2.8-2.1-5.2-4.8-5.8-6.2-30.2-25.2-32.4-25.2-.5 0-1.4-.7-2.2-1.6-.7-.8-3-2.5-5.2-3.7-4.4-2.4-4.4-2.4-14.2-8.8-3.8-2.6-10.4-6.3-14.5-8.3s-8.4-4.2-9.5-4.8c-10.6-6.5-14.6-8.8-15.6-8.8-.6 0-2.3-.8-3.7-1.8-1.5-1-4-2.4-5.7-3.2-1.6-.8-3.6-1.9-4.4-2.4-.7-.6-1.8-1.1-2.5-1.2s-3.3-1.1-6-2.3c-2.6-1.3-8.2-3.6-12.4-5.3-4.3-1.7-8.1-3.4-8.7-3.8-2.3-1.7-20.1-7-23.5-7-1.7 0-2 .7-2 5.5s.2 5.5 2 5.5c1.1 0 2.2-.1 2.5-.3.2-.1 1.2.8 2.1 2.1s2.1 2.1 2.7 1.9c.7-.2 2.3.3 3.7 1.2s4.9 2.5 7.9 3.5c2.9 1.1 7.4 3 9.9 4.3 3 1.6 5.4 2.2 7 1.8 1.4-.3 2.1-.2 1.7.4-.3.6 1.1 1.9 3.2 2.9 7.3 3.6 23.8 12.5 25.1 13.5 2 1.5 9 5.3 18.2 9.8 4.7 2.2 9.9 5.2 11.7 6.5 1.7 1.3 3.7 2.4 4.2 2.4 1.7 0 5.1 2.1 10.5 6.5 5.2 4.2 7.3 5.6 11.9 7.8 1.5.7 2.4 1.6 2.1 2-.4.3.8 1.4 2.6 2.4s5.7 3.7 8.6 6c3 2.4 5.6 4.3 5.8 4.3.9 0 10.5 9.8 13.2 13.3 3.2 4.5 3.2 4.6-6.6 7.7-3.6 1.2-7.8 2.9-9.5 3.8-1.6.9-3.1 1.5-3.2 1.4-.2-.1-.4-.1-.5-.1-.2.1-1.4.3-2.8.4-2.5.3-6.9 1.7-12.8 4.1-1.8.8-4.6 1.4-6.2 1.4s-4 .4-5.5 1c-1.4.5-4.9 1.4-7.8 2-15.4 2.9-20.9 4-21.5 4.4-.4.2-3.2.7-6.2 1.1s-5.7.8-6 1-4.7.7-9.8 1c-5.1.4-10.6 1-12.3 1.5-1.8.5-3.6.7-4 .4-.5-.3-3.5 0-6.6.5-7.2 1.3-22 2.4-29.5 2.3l-5.8-.1v12.5l7.7-.2c9.9-.2 22.9-1.2 31.3-2.4 3.6-.5 9.7-1.2 13.5-1.6 7.2-.8 8.3-.9 10-1.4.6-.1 2.4-.3 4-.4 2.5-.2 19.7-2.7 28-4.2 4.3-.7 15.8-3.4 16.5-3.9.5-.3 4.6-1.2 9.2-2.1 10.2-1.9 26.3-7.2 38.1-12.6 8.8-4 9.6-4.1 10.1-1.6.2 1.1 1.8 4.9 5.6 13.3 2.4 5.2 4.1 26.9 2.7 34-.3 1.6-.8 5.8-1.2 9.3-.4 3.4-1.1 6.5-1.6 6.8s-.9 1.5-.9 2.7-.7 3.5-1.6 5.2c-.9 1.6-2.7 5-4 7.5-6 11.3-13.3 15.5-35.9 20.6-1.6.4-3.9 1.2-5 1.8s-5.1 1.6-9 2.2c-3.8.7-11.5 2.2-17 3.4s-11.3 2.4-13 2.6c-1.6.2-4 .6-5.2.9s-4.1.7-6.5 1.1c-6.7.8-15.7 2.2-22.3 3.4-3.3.6-7.6 1.1-9.5 1.1s-6.6.8-10.5 1.9c-7.2 1.9-17.6 3.2-27.8 3.4l-5.7.1v14.4l3.8-.4c2-.2 7-.6 11.1-1 4.1-.3 7.9-.9 8.5-1.3s2.7-.8 4.6-1c4.9-.3 15.8-2.2 20.5-3.4 4.4-1.2 4.5-1.2 19.5-2.2 5.8-.4 12.4-1.4 14.8-2.2 2.3-.8 5.4-1.4 6.8-1.4s3.4-.5 4.4-1c1.1-.6 4.1-1.2 6.7-1.3 2.6-.2 5.5-.6 6.3-.9 2-.8 13.4-2.9 18.4-3.4 7.2-.6 11.6-1.6 12.2-2.5.3-.5 2-.9 3.7-.9 1.8 0 4.1-.6 5.2-1.4 1.1-.7 3.4-1.6 5-2 1.7-.4 4.1-1.5 5.5-2.4s2.7-1.7 3-1.8c3.9-.8 8.2-4.2 7.3-5.8-.3-.6-.3-.8.1-.4.5.4 2.3-.2 4.1-1.2 2.9-1.6 7.7-2.6 9.8-2 .4.1 1.9.4 3.5.6 1.5.2 4.3.6 6.2.9 3.8.6 22.5 1.6 30.5 1.7 7.4 0 27-1.5 27-2.1 0-.1 4.1-.3 9-.6 9.6-.4 19.6-1.4 20.7-2.1.4-.2.9 0 1.3.6.4.7 1.4.6 2.8-.2 1.2-.6 2.9-1.3 3.7-1.4s4.4-.8 8-1.4c3.6-.7 8.3-1.4 10.5-1.5 2.2-.2 7.2-.9 11-1.5 3.9-.6 7.9-1.1 9-1.1s4.5-.7 7.5-1.5c3-.9 6.6-1.7 8-1.9 13.7-1.6 15.9-1.9 21-2.9.8-.1 2.2-.5 3-.8 1.4-.6 6.5-1.4 15-2.4 1.9-.2 4.6-.7 6-1.1 1.4-.3 2.7-.7 3-.8.3 0 2.7-.5 5.5-.9 2.7-.4 6.5-1.6 8.5-2.6 2.1-1 7.2-2 12.5-2.5 5-.4 12.6-1.5 17-2.6 4.4-1 10-2 12.5-2.3 2.5-.2 6.8-.9 9.5-1.5 2.8-.5 8.2-1.2 12-1.6 3.9-.3 7.9-.8 9-1 5.1-1.2 8.5-1.8 14.3-2.6 3.5-.4 6.8-1.2 7.5-1.6.6-.4 1.8-.8 2.7-.9.8 0 5.8-.9 11-1.8 5.2-1 12.3-1.7 15.7-1.7s6.5-.4 6.8-1c.4-.5 1-.7 1.4-.4.9.5 12.5-1.2 15.1-2.2.8-.3 2.4-.8 3.5-1s2.7-.6 3.5-1c.8-.3 2.6-.8 4-.9 1.4-.2 4.1-.6 6-.9s6-.7 9-.9 6.2-.6 7-.9c1.7-.6 8.1-1.7 12.2-2.2 1.4-.2 3.1-.6 3.6-.9.6-.3 2.2-.2 3.6.3 1.9.8 3.4.5 6.8-1.3 2.4-1.2 5.9-2.5 7.8-2.9 1.9-.3 4.5-.9 5.7-1.3 1.8-.5 2.5-.1 3.3 2.1 2.6 6.7 16.5 33.4 20.3 38.8 6.1 8.8 15.1 15.6 27.3 21 3.6 1.5 16.6 1.1 19.9-.7 1.7-.9 3.7-1.6 4.6-1.6 2.7 0 13-10.1 15-14.8 3.1-7.3 2.4-13.6-4-33.2-1.6-5.2-3-9.7-2.9-10s-.4-1.5-1.1-2.8c-1.8-3.4-.6-5.7 3-6 1.7-.1 3.9-.7 5-1.2 1-.6 4.3-1.2 7.4-1.5s6.1-.7 6.6-1.1c1.2-.7 4.8-1.3 11.1-1.9 2.6-.2 7.3-1.1 10.5-1.9s9.4-1.7 13.7-2.1c4.3-.3 9.5-1.3 11.5-2.2 4.6-2.1 10.6-3.8 20.1-5.9 4.1-.9 8-2 8.7-2.6.7-.5 1.7-.7 2.2-.3.6.3 2.4-.1 4-1 1.7-.8 3.8-1.5 4.8-1.5s2.9-.6 4.3-1.3 4.8-1.9 7.5-2.7c2.8-.7 5.4-1.6 5.9-2.1 1.8-1.6 6.7 1.3 8.7 5.2 1 2.1 2.4 3.9 3 3.9s.6.7-.1 2c-.8 1.5-.8 3 0 5.3.6 2 .8 8.3.5 16.3-.3 7.1-.7 19.3-.9 27.2s-.6 14.6-.9 14.8c-.3.3-2.4.7-4.8.9-2.4.3-6.6.9-9.4 1.5-2.7.7-6.6 1.4-8.5 1.7s-4.4 1.2-5.6 2c-1.2.7-5.3 1.5-9.1 1.7-3.9.3-9 1-11.4 1.7s-4.7 1.3-5.1 1.5c-.5.1-.9.2-1 .4-.2.1-2.2.3-4.5.5s-5.1 1-6.3 1.8c-1.3.9-3.4 1.3-5.1 1-1.7-.2-3.6 0-4.2.6-.7.5-3.7 1.3-6.7 1.7s-6 1.1-6.7 1.6c-.6.5-2.7 1.1-4.5 1.3-3.7.5-6 .9-13.8 2.5-3 .6-6.8 1.2-8.5 1.5-1.6.2-3 .4-3 .5 0 0-2.7.3-5.9.6s-6.8.9-7.8 1.5c-1.1.6-3.3 1.1-5.1 1.1-1.7.1-5.3.9-8 1.9-2.8 1-5.4 1.6-5.8 1.3-.5-.3-1.5-.2-2.1.3-1.4.8-2.4 1-7.7 1.8-1.8.3-3.7.7-4.1 1-.5.3-5.7 1.2-11.7 2-5.9.8-13 1.9-15.8 2.5-2.7.6-6.3 1.3-8 1.5-1.6.2-5.3 1-8 1.9-2.8.8-7.4 1.6-10.3 1.7s-5.5.6-5.7 1c-.3.4-1.7.6-3.2.4-1.5-.1-5 .5-7.9 1.5s-5.5 1.6-5.8 1.3-1.1-.1-1.8.5c-.7.5-4 1.2-7.3 1.5-3.3.2-8.6 1.4-11.7 2.5s-6.5 1.9-7.5 1.8c-1-.2-2.2 0-2.8.4-1.6 1.3-12.6 3.9-13.9 3.4-.7-.2-3 .2-5.3 1s-4.3 1.2-4.6 1c-.2-.3-2.4 0-4.8.6s-5.9 1.1-7.8 1c-1.8 0-4 .5-4.8 1.1-.8.7-2.9 1.3-4.7 1.5-1.8.1-4.2.6-5.2 1.2-1.1.6-3.5 1-5.4 1s-5.1.2-7 .6c-1.9.3-6.3 1-9.7 1.5s-6.7 1.2-7.3 1.6c-1.1.7-2.9 1.1-9 1.9-6.9 1-12.2 2.4-13.3 3.5-.8.8 7.3 1.1 31.1 1.1 28.5 0 32.2-.2 32.2-1.6 0-1 .4-1.2 1.3-.7 1.6 1 9.6 1.3 10.2.3.3-.5 1.3-.6 2.3-.4.9.3 3.6-.2 5.9-1 2.2-.8 4.4-1.2 4.7-.9.3.4 1.6.1 2.9-.5 1.2-.6 3.6-1.3 5.2-1.6 1.7-.4 4.1-.9 5.5-1.1 1.4-.3 5.3-.7 8.7-.9 3.4-.3 6.8-.8 7.5-1.2.7-.5 1.9-.9 2.6-1 .8-.2 2.1-.6 3-1s3.1-.8 4.7-1c1.7-.1 6.2-1 10-1.9 3.9-.9 8.2-1.6 9.7-1.6 1.5.1 2.9-.3 3.3-.9.3-.5 1.7-1 3.1-1 3.5 0 17.1-2.8 22.4-4.7 2.5-.9 5.4-1.5 6.5-1.5 1 .1 2.5-.4 3.2-.9.7-.6 5.4-1.3 10.4-1.5 5.1-.1 9.7-.8 10.3-1.4.5-.5 2.2-1 3.6-1 1.5 0 3-.3 3.3-.6.6-.6 2.5-.9 11.2-1.8 3.8-.4 9.7-1.7 10.9-2.4.5-.3 2.3-.6 4-.8 5.2-.5 9.9-1.4 14.4-3 2.3-.7 5.6-1.4 7.2-1.4s3.2-.5 3.5-1c.4-.6 1.4-.8 2.4-.5.9.3 4.3-.4 7.6-1.6 3.2-1.1 7.1-2.1 8.7-2.1 1.6-.1 3.1-.5 3.4-1 .3-.4.9-.6 1.3-.3.5.2 3-.1 5.7-.8s6.3-1.2 7.9-1.1c1.7.1 3.9-.3 4.9-.9 3-1.5 12.8-3.6 14.3-3 .7.3 1.5-.1 1.8-.8.3-.9 2-1.4 4.3-1.3 2 .1 4.9-.2 6.4-.7 1.6-.4 3-.3 3.4.2.3.6 1.8.9 3.2.7 1.8-.2 2.7.2 2.7 1.1 0 1 1.2 1.5 3.5 1.7 1.9 0 3.7.2 4 .3 1.2.3 4.3 10.6 7.5 25.1.2.8 1.1 3.5 1.9 5.9.9 2.4 1.4 4.7 1.1 5.1s.1 1.3.9 1.9c.8.7 2.4 3.6 3.6 6.6l2.2 5.5h68.3l3.5-5.6c6.2-10.1 6.6-10.8 8.8-17.9 3.8-12.2 5.2-21.4 5.6-35.7.1-3.1.4-6 .7-6.3.5-.5.3-9.3-.4-15-.1-1.2.4-2 1.3-2.1.8 0 2.3-.4 3.3-.7.9-.4 2.5-1 3.5-1.4.9-.3 2.3-.5 3.1-.4.7.1 2-.1 3-.5.9-.3 2.7-.8 4-1 2.3-.3 10.1-7 10.1-8.7 0-.4.8-2.7 1.9-5 1.6-3.7 1.9-6.9 1.9-26.9 0-12.5.3-23.2.6-23.7.4-.5.3-1.2-.1-1.4-.9-.6-.7-61.8.1-65.2.5-1.9 1.4-2 16.3-2.2 28.4-.4 41.3-.1 43 1 .6.4 1.4.3 1.8-.3.3-.5 2.8-1 5.6-1h4.9v-6c0-5-.3-6-1.7-6.1-1-.1-9.2-.1-18.3 0-9.1 0-21.2 0-27-.1s-13.7-.1-17.5-.1l-7.1.1.1-25.2c0-13.8.3-25.6.8-26.3.4-.6.3-2.2-.2-3.5-.7-1.9-.5-2.4.8-2.6 2-.3 34.4-.9 54.9-1.1l15.2-.1v-12.7l-32.2-.1c-17.8 0-32.7-.1-33.3-.2-.5-.2-1.3-.2-1.7-.1q-.75 0-.9-.6c0-.5-.3-1.9-.6-3.3s-.5-6.3-.5-11c.3-19.6 1.9-25.1 8.3-28.2 1.9-.9 4.1-2.3 4.8-3.2.8-.9 1.9-1.6 2.5-1.6 1.4 0 12.6-11.6 12.6-13.1 0-.5.7-.9 1.5-.9.9 0 1.8-.8 2.2-1.7.3-1 2-3.6 3.8-5.8s3.9-5.4 4.8-7c.8-1.7 2.4-3.9 3.6-4.9 1.2-1.1 2.1-2.6 2.1-3.3 0-.8.9-2.6 2-4s2-3.2 2-4 .6-2.9 1.3-4.6c1.5-3.4 5.1-14.5 5.3-16.2.1-.6.3-1.2.4-1.5 2.7-5.6 2.6-42.4-.1-45.7-.6-.6-.8-1.6-.6-2.1.7-1-2.6-16-4.1-18.7-1.9-3.6-4.2-9.3-4.2-10.5 0-.6-1.3-2.8-3-4.8-1.6-2-4.6-5.7-6.6-8.1-1.9-2.5-5.6-6-8-7.9-2.9-2.3-4.1-3.9-3.5-4.6 1.2-1.5 2.3-11.6 2.2-21.1v-23c-.1-29.8.3-46.6.9-47 .4-.2.4-3 0-6.2-.3-3.2-.5-15-.3-26.3s.4-23 .3-26c-.1-8.3-.1-13.9-.1-32 0-9.1-.2-18.9-.4-21.9-.1-3 .2-6.6.8-8 .5-1.4.9-3.1.7-3.6-.9-3.2-1.4-36.8-.8-62.5.1-3 0-7.5-.1-10s-.2-5.4-.3-6.5c0-1.1-.1-13.5 0-27.5v-54c.2-19.8.2-24.2-.3-25-.3-.5-.2-1.1.3-1.4.4-.2.5-3.4.2-7.1-.3-3.6-.4-15.2-.2-25.8.5-36.4.7-65.2.4-66.5-.3-.8-2.6-1.2-6.8-1.2H972l-.1 5.7c-.1 3.2 0 7 .1 8.5l.1 2.7h-45.3c-24.9 0-52.7.2-61.8.3-9.1.2-17.7 0-19.2-.4-1.5-.3-3-.3-3.2.1-.3.4-4.4.6-9.3.4-17.2-.5-23.8-.6-24.8-.3-.5.1-1.2.1-1.5 0-2.4-.9-5.7-1.2-13-1-12 .3-12.5.3-22.5-.6-6.9-.6-224.7-1.1-251.5-.6-12.4.3-26.8-.4-26.3-1.1.3-.5-.4-1.1-1.6-1.4s-2.2-1-2.2-1.7c-.1-.6-.3-2.3-.5-3.8-.1-1.5.2-3 .7-3.4.6-.4.6-1.1-.2-2-.7-.9-3.2-1.4-7-1.4H477l-.1 6.7c-.1 3.8-.3 11.7-.5 17.8-.1 6-.5 19.5-.8 30-.3 10.4-.8 24.7-1.1 31.7-.4 8.5-.2 12.9.5 13.3.8.5.7 1.1-.1 2.1-.8.9-1.1 4.1-.9 8.7.2 4 .2 9.7.1 12.7s-.4 15.1-.6 26.9c-.3 11.8-.7 21.7-1 21.9-.3.3-2.2 0-4.2-.6-8.3-2.3-12-3.1-17.3-3.6-5.1-.5-10-1.2-14.2-1.9-2.6-.5-3-1.2-3.3-6.1-.2-2.4-.6-4.9-.9-5.4-.4-.6-.2-1.3.4-1.7s.8-1.1.4-1.6c-.3-.6-.6-9.9-.5-20.7v-21.7c-.1-6.1.9-68 1.1-68 0 0 .2-9.1.3-20.3l.2-20.2h-6.2c-3.4 0-6.4.3-6.6.8M528 39.6c1.7 1.7 2.7 12.3 2.1 21.9-.1 1.6-.1 17.4-.1 35 .1 17.6.1 32.2 0 32.5s-.1 4.5 0 9.5c.1 4.9.3 18.3.5 29.7.2 13 0 20.8-.6 20.8s-4.2-1.4-8.1-3c-3.8-1.7-7.8-3-8.7-3s-2.1-.4-2.7-1c-1-1-19-7.1-20.2-6.8-.4.1-1.4-.2-2.3-.6-1.4-.6-1.7-3-1.8-16.3-.1-8.6-.4-16-.7-16.5-.3-.4-.3-1.2.1-1.7.3-.5.8-8.1 1.1-16.8s.7-18.7.8-22.3c.2-3.6-.1-7-.6-7.7s-.7-2.1-.3-3.2c.3-1.1.8-10 1-19.8.3-9.8.5-17.8.6-17.8s.2-2.4.3-5.2c.2-6 1.1-7.2 5.8-8.2 5.2-1.1 32.6-.7 33.8.5m92.7 7.6c-.3.8-.6.5-.6-.6-.1-1.1.2-1.7.5-1.3.3.3.4 1.2.1 1.9m-50.5 19.6 7.8-.5v13.2h-34v-5.8c0-5.2.2-5.8 2.4-6.7 1.4-.5 4.3-.7 6.5-.4 2.2.2 4.2 0 4.6-.6.4-.7 1.3-.6 2.7.1 1.3.7 5.2 1 10 .7m284.6.8c2.6.5 3 .9 2.1 2s-.8 1.8.2 3c1.2 1.5 1.7 6.5 2.1 23.7.1 4.8.5 9 1 9.3s.5 1.1-.1 1.8-1 11.4-1 26.6c0 14 0 26.2-.1 27 0 .8.1 9.1.2 18.3.2 9.3-.1 17.1-.5 17.4s-.3 1 .2 1.7c.6.7.9 3 .7 5.1-.2 2.2-.4 7.8-.5 12.5l-.1 8.6-14.7-.3c-8.2-.1-16.4-.2-18.5-.3-2.9 0-3.5-.3-3.2-1.8s1.5-42.6 1.4-47.7c-.1-1.1-.3-8.8-.5-17-.2-8.3-.5-17.8-.6-21.2-.2-3.4-.1-6.4.1-6.7.3-.2.4-9.3.3-20.2-.3-30.9-.2-36.2.6-41.2 0-.4 2.2-.6 4.7-.3 2.5.2 5-.1 5.5-.6 1-1 15.6-.8 20.7.3m-135.1 8.1c-.2 5.2-.9 9.7-1.8 11.1-1.4 2.2-1.7 2.3-12.9 1.6-6.3-.3-11.7-.8-12-1.1s-.6-4-.6-8.4c-.1-5.7.2-8.2 1.3-9 2-1.7 7.3-2.5 17.6-2.8l8.8-.2zm31.4-4.7c1.3.8 2.5 1.3 2.7 1.2 1-.7 2.3.1 1.9 1.2-.3.7 0 1.9.6 2.5s.8 1.1.5 1.1c-.4 0-.2 1.5.3 3.2 1.3 4.4 2 31.6.8 32.4-.5.3-.6 1.1-.2 1.7.4.7.9 19 1 40.7.3 56.1.3 65.3-.2 65.8-.3.3 0 1.1.7 1.9.9 1.1-1.2 1.3-13.5 1.2l-14.5-.1-.4-3.4c-.2-2-.1-3.7.2-3.9.5-.3.5-16.3-.1-18.5-.4-1.9.1-29.2.6-30 .3-.6.3-1.5 0-2.1-1.2-1.8-.8-93 .3-94.1 2.6-2.6 14.9-3.1 19.3-.8M679 72.1c.5.7.7 2.3.5 3.4-.8 4.1-1.5 27.6-.9 28.7.4.7.7 3 .6 5.2-.1 2.3-.1 11.1-.1 19.6.1 22.7.1 27.2-.1 30-.1 1.4-.1 14.6 0 29.3.2 14.7 0 27-.3 27.3-.3.4-.2 1.6.2 2.8 1.5 4.3.9 5.1-4.4 5.3-2.8.1-6.6.3-8.5.4-8.1.5-23.5-.4-24.1-1.3-.4-.6-.4-2.2 0-3.7.6-1.9.5-105.1 0-110.6-.1-.6-.1-2.8 0-5 0-2.2.1-5.4.1-7v-7.9c0-6.7 2.6-15.2 5.1-17 3-2.1 30.6-1.7 31.9.5m291 2.6c1.2 2.6 2 18.7 1.8 36.8-.3 25-.2 44.1.1 44.9.5 1.2-.1 53.1-.8 65.6l-.1 2.6-15.2-.2c-18.9-.1-20.1-.2-19.3-1.3.3-.5.1-1.2-.3-1.5-.5-.3-.8-2.1-.6-4.1.1-1.9-.2-3.7-.7-4.1-.5-.3-.6-1-.3-1.6 1-1.6 1.2-62.1.2-63.4-.4-.6-.4-2.4.1-4.1.6-2 .5-3.5-.1-4.1-1.2-1.2-2-41.2-.8-42.7.4-.5.5-3.1.1-5.6-.4-2.6-.5-5.5-.1-6.5.8-2.4.6-7.7-.4-9.2-.4-.7-.1-1.3.6-1.4 3-.3 10.9-.8 20-1.1 5.4-.2 10.1-.6 10.4-1 1.6-1.5 4.2-.6 5.4 2m-356.9 9.4 16.4.3.2 11c0 6.1.2 11.7.3 12.3.1 1.4.1 7.7.1 20.3-.3 29.8-.2 42 .2 42.7.2.5.2 5.1 0 10.3-.8 22.8-.8 37.7-.1 39.7 1 3.1-.1 3.2-19 3.1-13.3-.2-16.5-.5-17.6-1.7-1.8-2.1-2.8-6.8-1.7-7.5 1-.7.9-2.5-.2-4.4-.5-.6-.5-1.7-.1-2.3.9-1.5 1.2-11.6.4-18.4-.3-3.1-.3-5.8 0-6 .4-.2.5-2.1.2-4.2-.4-4.5-.4-4.8.1-9.6.2-2.1 0-4-.5-4.3-.4-.3-.6-1-.2-1.5 1.3-2.1 2.1-47.5 1-58.1-.3-3.3-.1-6 .4-6.3s.8-3.2.7-6.4c-.4-5.9.7-10.6 2.1-9.7.5.3 8.2.6 17.3.7m305.5 10.7c-.1 3.7.2 7.3.7 7.9.5.7.8 1.3.6 1.4-.2 0-4 .2-8.4.4-8.3.3-17.6 1-30.4 2.1l-7.4.7.7-5.9c1.4-12.3 1.6-12.6 4.5-12 1.4.3 3.1.3 3.8-.2.6-.4 9-.8 18.7-.9l17.5-.2zm-347.4-1.6c9 .3 9.8.5 9.9 2.3.2 5.3-.1 23.9-.6 41-.5 18.4-.5 24.2-.4 37 .2 14.1-.3 43.3-.8 46.2-.4 2.8-.8 3.1-3.6 2.7-2.2-.2-4-1.4-5.7-3.6-1.4-1.8-3.5-4.2-4.8-5.3s-5.1-4.6-8.5-7.7c-3.4-3.2-6.7-5.8-7.4-5.8s-2.5-1.3-4.1-2.8c-2.8-2.7-2.9-3.2-2.2-7.8.4-2.7.7-7.3.6-10.2s.2-5.6.6-5.8c.5-.3.6-.9.4-1.3-1.1-1.7-2.1-47.2-1.6-70.1l.2-9.5 9.1.2c5.1.1 13.6.3 18.9.5m239.3 7.3v7l-3-.3c-1.6-.1-9.5-.5-17.5-.7s-15-.4-15.5-.5c-.6 0-.9-2-.6-4.7.6-7.6 1.6-8 20.5-7.9l16.1.1zm-101 .7 9-.2-.1 27.3c-.1 15.3.2 27.7.7 28.3.6.7.6 2.1 0 3.5-1 2.8-.9 17.8.2 19.6.4.6.3 1.4-.2 1.7-1 .7-.9 29.1.1 30.2.4.4.4 1.2-.1 1.8-1.4 1.8-1.9 5.2-1 6.8 1.7 3.1-1.4 3.8-14.4 3.6l-12.5-.3-.2-26c-.1-14.3-.1-26.9-.1-28s.1-16.9.2-35l.2-33 3.1-.6c1.7-.4 3.8-.4 4.6-.1.8.4 5.6.5 10.5.4m212.6 23.3c.1 10.2.7 37 .8 37s.2 14.3.4 31.7l.2 31.7-9.5.1c-14.5.1-35.1.1-39.2.1l-3.8-.1.3-9.3c.2-5.1.6-9.8 1-10.4.4-.7.4-1.4 0-1.6-.6-.4-.7-51.3-.2-70.7.1-1.9 0-5.8-.2-8.7-.2-2.8-.1-4.9.3-4.7s.9 0 1.2-.5c.4-.6 1.8-.6 3.8 0 2.9.8 6.7.7 23.3-.7 3.3-.3 8.1-.5 10.7-.4 2.5 0 4.9-.3 5.2-.8.3-.6 1.7-.9 3.1-.8 2.4.1 2.5.3 2.6 8.1M810.6 172l-.1 52.5-11.5-.3c-6.3-.1-15.2-.5-19.6-.8l-8.2-.6.4-27.7c.1-15.2.3-27.8.5-28.1.1-.3 0-1-.1-1.5-.7-2.3-.8-43.2-.2-44.2 1-1.6 3.9-1.8 22.3-1.8h16.6zm-134 64c8.7 0 23.6.1 32.9.1 9.4 0 18.1.1 19.5.1s7.2-.1 13-.1c5.8-.1 31.2.2 56.5.6 37.7.5 106.1.8 116.5.4 1.4-.1 14.7 0 29.7 0l27.1.2.1 14.8.1 14.9-4.3.1c-12.3.2-88.8-.1-119.4-.5-19.3-.2-35.4-.2-35.6.1-.6.5-.2.5-78.7-.3-74.3-.7-119.8-.7-125.5 0-7.5 1.1-8.4.2-16.3-15.5-4-7.9-6.8-14.6-6.3-14.9.8-.5 20.7-.5 90.7 0m-262 40.7c.4 1 .8 2.2.9 2.8 0 .5.6 2 1.3 3.2s1.2 3.4 1.2 4.8.5 3.6 1.2 4.8 1.1 3.3.9 4.5c-.1 1.3.2 3.6.8 5 .6 1.5 1.2 5.2 1.5 8.2s.7 6.4.9 7.5c.7 3 2 17.4 2.1 22.4.1 6-2.2 7-10.6 4.7-3.5-1-7.4-2.3-8.8-2.9s-3.5-1.2-4.6-1.3c-2-.2-4.6-1.2-13.1-5.1-2.1-.9-4.3-1.6-4.8-1.5-1.4.2-4.5-5.1-4.5-7.7 0-1.1 1.4-4.3 3-7.1 1.7-2.8 3-5.3 3-5.6s1.1-2 2.5-3.8 2.5-3.5 2.5-3.9c0-.3 2.8-4.8 6.3-10 3.4-5.3 7.7-12.1 9.5-15.1 3.5-5.9 7.1-7.5 8.8-3.9m449.5 12.4c1.4.5 2.6 1.5 2.7 2.2.6 5.6 1.1 28.4 1.1 48.2-.1 84.3-.3 126.5-.6 126.5s-1.2-.4-2.1-.9-4.8-1.1-8.7-1.5c-3.8-.3-11-1.2-16-2-4.9-.8-9.1-1.5-9.3-1.6-.2 0-.1-.4.3-.9.3-.6.7-8.6.9-17.8s.4-17.3.6-17.8c.1-.6.2-1.2.1-1.5-.7-1.8-.7-12.2 0-12.5.4-.3.4-1.8 0-3.3s-.6-9.9-.4-18.7c.1-8.8.2-16.7.3-17.5 0-.8 0-3.3.1-5.5s.1-5.1.1-6.5c-.4-35.8.1-60.5 1.2-67 .2-1.4.5-2.8.5-3.1.2-.9 26.4.1 29.2 1.2m-654.8 9.4c2.3 2.7 8.5 9.3 13.6 14.5 5.2 5.2 10.1 10.6 10.9 12 .9 1.4 3 4.3 4.7 6.5s3.6 5.2 4.2 6.6c1.1 2.4.8 2.7-5.5 6.7-3.7 2.2-7 4-7.3 3.9-.4-.1-1.6.7-2.8 1.7-1.2 1.1-2.1 1.6-2.1 1.3 0-.4-2.4.8-5.2 2.6-2.9 1.8-6.4 3.8-7.8 4.5s-4.4 2.3-6.7 3.6c-4.3 2.4-8.5 2.8-10.4.9-2.4-2.4-2.8-15.9-1.4-43.3.7-13.7 1-18.1 2-23.5.5-2.9.8-3.1 5-3 4 0 4.8.4 8.8 5m435 9c-.1.5.2 1.4.7 2 .5.5 1.1 3 1.5 5.5.4 2.4 1.1 5.3 1.7 6.3.5 1.1.8 2.8.5 3.8s-.1 2.2.4 2.5c.6.3.6 1 .1 1.7-.9 1.3-.7 48.1.3 49.6.3.5.1 1.2-.4 1.6-.6.3-1 8.4-1 19.3 0 10.3 0 20.5-.1 22.7s.2 6.6.6 9.8l.7 5.7-3.4-.6c-1.9-.3-4.7-1.1-6.4-1.7-1.6-.6-3.8-1-4.9-.8-3.5.5-8.1-.9-9.4-2.9-1.7-2.7-3.4-11.5-3.3-16.2.1-2-.3-3.9-.9-4.3-.6-.3-.7-1.1-.4-1.7 1.3-2.1 1.1-7.3-.3-9.6-1.1-1.7-1.1-2.7-.3-3.7.6-.7.8-3 .5-5.1-.8-5.9-1.6-16.1-1.6-23.4-.1-3.6-.5-7.2-.9-8s-1-7.7-1.2-15.2c-.4-11.2-.8-14.1-2.2-15.7-.9-1-1.3-2.2-.8-2.5 1.1-.7.4-11.6-.9-13.2-.5-.6-.5-1.4-.1-1.8s.8-1.2.8-1.7c.1-.5.2-1.3.3-1.8.2-1.6 3.1-1.9 17.1-1.8 8.4.1 13.4.6 13.3 1.2m131.8 5.2c.7.7 1.5 35.4.9 37.8-.1.5-.2 1.2 0 1.5.8 2.1.8 5 .1 5.5-.6.3-.6 1.8-.1 3.7.5 1.7.6 3.6.3 4.1-1 1.6-1.1 40.9-.1 42.9.4.9.5 1.9 0 2.2-.4.2-.8 9.7-.7 21.1v20.6l-7.5-.7c-4.1-.4-9.2-.8-11.3-.9s-4.3-.8-4.7-1.6c-1-1.5-.5-35.5.6-38.2.3-.9.3-2.5-.1-3.5-.3-.9-.5-7.1-.4-13.7s.1-14-.1-16.5c-.3-5.1-.3-8 .1-40.8.2-20 .4-23.4 1.8-24.2 1.8-1.1 20.1-.4 21.2.7M911 320c.4.6.4 3 0 5.3-.5 2.3-.6 5.5-.4 7.2.4 3.4.4 12.4 0 50.5-.4 29.7-.6 62.2-.5 66 0 1.4 0 5.6-.1 9.5 0 3.8.1 8.1.2 9.5.3 2.9 1.1 2.9-14.5.6-5.9-.9-11.1-1.5-11.5-1.5-.4.1-1.5.1-2.4 0-1.6-.1-1.7-5-1.5-73 .1-40.1.5-73.2.8-73.5s2.3-.8 4.5-1.2c2.1-.3 4.1-.8 4.4-1.1 1-1 20.3.5 21 1.7m56.6 1.6 4 .5v22.6l-3.6-.8c-1.9-.4-11.4-.5-21-.4-9.6.2-18.7.2-20.2-.1-2.5-.5-2.6-.7-2.3-7.2.1-3.7.3-8.4.4-10.4.1-3.4.4-3.7 3.4-4 5.9-.6 35.2-.8 39.3-.2m-237.5 10.8c9.9-.3 10.7-.2 11.2 1.6.3 1.1.1 2.3-.5 2.6-.5.3-.8 3.1-.6 6.3l.3 5.6-14 .1c-19.2.1-19 .2-19-7.2-.1-7.7.2-8.4 3.5-8.4 1.6 0 3.1-.4 3.5-1 .3-.5 1.5-.6 2.8-.1 1.2.4 7 .6 12.8.5m85.9 2c2.9.9 4.4 1.9 4.1 2.7-.5 1.7-.3 20 .3 25.4.2 2.2 0 5-.5 6.2-.4 1.2-.5 2.4-.1 2.7.5.3.8 12 .7 26.1 0 14.1.3 25.9.7 26.1.4.3.1 1.6-.8 2.9-1 1.5-1.1 2.5-.5 2.9 1.1.7 1 8.3 0 10.1-.4.5-.5 2.1-.4 3.5.3 4 .7 12.4.6 13.7-.1 1.6-4 1.7-7.7.3-1.5-.6-6.6-1.2-11.3-1.4s-9.3-.5-10.1-.5c-1.3-.1-1.6-3-1.7-20.6-.1-12 .2-20.7.8-21.1.5-.3.6-1 .2-1.7-1.1-1.8-1.4-9.9-1.1-28.7.1-4.1 0-8.6-.1-10-.2-1.4-.1-8.2 0-15.2.2-7 .1-13-.2-13.3-.6-.5 0-8.7.6-9.3.2-.2 4.9-.5 10.4-.6s10.3-.5 10.7-.9.8-.7.8-.7c.1 0 2.1.7 4.6 1.4M359 340c0 .5-.6 1-1.4 1s-1.8-.5-2.1-1c-.3-.6.3-1 1.4-1 1.2 0 2.1.4 2.1 1m335.6 2.3c.1.1-.1 2.4-.6 5-.4 2.6-.4 5 0 5.2s.4 2.4.1 4.7c-.3 2.4-.6 12.4-.5 22.3s.2 28 .3 40.3-.1 22.8-.5 23.3c-.5.8-4.7.3-6.8-.9-.5-.3-2.9-.6-5.4-.8-12.3-.8-17.8-2.1-18.8-4.2-.4-1-.8-22.2-.9-47.2-.2-44.7-.1-45.5 1.9-47.2 1.7-1.4 4-1.5 16.5-1.1 8.1.3 14.7.6 14.7.6m270.9 15 6 .2v56c0 56.2-.4 73.7-1.7 75-.4.4-2.8-1.1-5.4-3.4s-5.5-4.1-6.3-4c-.9.1-2.9-.3-4.6-1-1.6-.7-4.6-1.5-6.5-1.8s-4-1-4.6-1.4c-.6-.5-1.4-.6-1.7-.2-.4.3-1.3 0-2.1-.6-1-.8-1.6-.9-2.1-.1-.3.6-1.1.8-1.6.4-.5-.3-3.1-.8-5.7-1-2.6-.3-5.2-.7-5.9-.9-.9-.3-1.1-5.4-.7-20.2.3-10.9.5-20.9.4-22.3-.4-5.7-.3-7.6.5-9.4.5-1.1.3-2.6-.4-3.8-.6-1-.9-2.4-.5-3s.8-13.2 1-28c.1-14.9.5-27.2.8-27.5.2-.3.2-1.1 0-1.8-.9-2.3.6-2.4 41.1-1.2M714 359c0 .5-.5 1-1.1 1-.5 0-.7-.5-.4-1 .3-.6.8-1 1.1-1 .2 0 .4.4.4 1m19.5 2.8 7 .2-.3 32.2c-.1 17.8-.3 33.4-.3 34.8-.1 1.4 0 6.2.2 10.7.1 4.6.1 8.5-.2 8.7-.4.3-12.5-.8-25.4-2.5l-8-1 .3-38.7c.1-21.3.2-40.1.2-41.7v-3l9.7.1c5.4.1 13 .2 16.8.2m-312 49.8c7.4 2.3 11.2 4.9 13.5 9.4 1 1.9 2.7 4.3 3.8 5.3 1.6 1.4 1.9 2.7 1.5 5.3-.3 1.9-.1 4 .6 4.8 1.4 1.6 2.1 8.6 1.1 10.1-.4.5-1.2 2.9-1.8 5.2-.9 3-3.3 6.3-8.5 11.5-10.5 10.8-17.4 12.5-36 9.2-9-1.5-11-3.3-16.3-14-2.7-5.4-3.1-7.4-3.1-14.1 0-4.3.3-8.5.7-9.3.5-.8 1.6-3.4 2.6-5.8 2.1-5.1 10.6-13.9 15.4-16 4-1.7 16.8-4.2 19-3.7.8.2 4.2 1.2 7.5 2.1m-158.1 10.5c8.3 1.4 12.3 3.6 18.4 10.1 5.6 6 7 9.7 8.1 20.8.6 7 .5 9.4-1 13.7-3.1 9.1-8.8 15.7-14.7 16.9-1.8.3-3.6 1.2-4 1.9-.9 1.6-9.8 3.5-16 3.5-7.6-.1-16.4-3.8-23.2-9.8-7.7-6.8-10.3-11.9-10.1-19.7 0-1-.5-2.5-1-3.2-.6-.6-.8-1.7-.4-2.2.3-.6.7-3.6.9-6.6.2-3.4 1-6.3 2-7.3.9-1 1.6-2.4 1.6-3 0-2.3 7.4-9.4 12.3-11.9 5.2-2.6 16.1-5.4 18.7-4.8.8.2 4.6.9 8.4 1.6m94.6 15c0 .5-.4.9-1 .9-.5 0-1-.7-1-1.6 0-.8.5-1.2 1-.9.6.3 1 1 1 1.6m288.5 12.5c12.4 2.1 13.5 2.2 22 2.9 4.4.4 10 1.1 12.5 1.7 2.5.5 6.1 1.1 8 1.3s4.6.7 6 1c1.4.4 4.8.8 7.5 1.1 2.8.2 7 .7 9.5 1 2.5.4 5.8.8 7.3.9 1.6.2 4.3.6 6 .9 1.8.3 5.5.8 8.2 1.1 2.8.3 7.3 1 10 1.5 2.8.5 9.1 1.2 14 1.5 19.6 1.3 28 2.1 28 2.5 0 .2 3.1.7 9 1.4 2.8.3 11.8 1.5 20 2.7 8.3 1.2 19.3 2.7 24.5 3.5 16.7 2.3 23.1 3.3 23.8 3.8.6.4 9.5 1.4 18.2 2.1 1.9.1 4.7.7 6.1 1.3 1.5.6 2.9.9 3.2.6.2-.2 4.6.2 9.8 1.1 10.1 1.6 16.1 2.4 22.4 3 2.2.2 5.9 1 8.2 1.9 2.2.8 4.3 1.2 4.6.9.3-.2 4.1.1 8.4.8 7.1 1.1 7.5 1.3 4.8 2.2-1.6.5-6.6 1.1-11 1.3s-12.1 1.4-17.1 2.7c-8.4 2.2-11.3 3.3-16.9 6.4-1.1.7-2.7 1.4-3.5 1.7-.8.4-3.3 1.7-5.5 3.1-2.2 1.3-5.3 3-7 3.8-7.5 3.6-30.5 27.9-30.5 32.3 0 .7-.7 1.4-1.5 1.8-.8.3-1.5 1.2-1.5 2.1s-.6 2.6-1.4 3.8-3.3 6.7-5.6 12.2-4.5 10.9-5 12-1.1 3.3-1.5 5c-.3 1.6-.8 4.1-1.1 5.5s-.7 6.7-.9 11.9c-.3 5.1-.9 9.9-1.5 10.6s-1.1 4.6-1.1 8.6c-.1 4.1-.3 7.7-.5 8.1-.9 1.4-1.3 28.6-.5 34.2.5 3.8.3 6.5-.5 8.5-.7 1.7-.9 3.3-.5 3.5.5.4.7 21.7.2 25.7-.1.4-.9.9-2 1.2-1.2.3-3.4-1-6.3-3.7-2.5-2.2-6-5-7.8-6.1-8.4-5.1-11.2-6.5-13.3-6.8-2.5-.4-4.9-1.3-9.2-3.2-7.9-3.4-10.3-4.3-13.5-5.1-1.9-.4-3.7-.8-4-.9-.3 0-1.8-.5-3.5-1.1-7.4-2.8-24.9-7-37-8.9-2.2-.4-4.5-1.1-5-1.5-.6-.5-4.2-1.1-8.1-1.4-3.9-.4-8.5-1.3-10.2-2.2-1.8-.8-3.6-1.2-4.2-.9-.6.4-.9.1-.8-.7.2-.9-.6-1.2-2.7-.9-1.6.1-2.7 0-2.3-.5.4-.4.3-1.3-.4-2.1-.6-.8-1.3-3.7-1.4-6.6-.3-5-.5-6.5-1.8-15.2-.3-2.2-.8-6.3-1.1-9-.6-6.2-1.3-10.9-2.4-17.2-.6-3.2-.6-5.2.1-6.1.8-.9.8-3.2 0-8-1-5.8-1-9.3-.1-11.2.1-.3.3-1.6.5-3 .1-1.4.9-5.6 1.8-9.4.8-3.8 1.3-7.3 1-7.8-.3-.4-.2-.7.3-.6.4.2.9-.2 1.1-.7.2-.6 1.1-1.8 1.9-2.8.9-.9 1.3-1.7 1-1.7s.5-2.3 2-5.1c3-6 5.2-15.5 5.9-25.6.5-7.4-.1-9.6-5.6-19.2-4.5-8-13.7-14.1-22-14.7-20.1-1.4-19.3-1.4-27.7 2.2-4.3 1.9-8.4 3.4-9.1 3.4-.8 0-5.2 3.9-9.8 8.6-7.2 7.4-9.2 10.3-13.8 19.8-3 6.1-5.7 12.7-6.1 14.6s-1.1 3.9-1.5 4.5c-1.4 2-4.3 14.8-4.1 18.3.4 8.2.7 10.8 1.4 11.9.4.6.3 1.4-.3 1.8-.5.3-1 1-1 1.5s4.5 5.7 10.1 11.7c12.2 13 16 19.1 19.4 30.8 2.9 9.8 4.7 32.6 2.7 33.9-.6.4-1-1.3-1-4.6-.1-3.8-.6-5.6-1.8-6.5-1-.7-1.5-1.3-1.1-1.3s.1-1-.7-2.3c-.7-1.2-1.7-4.1-2-6.5-.4-2.4-1-5.1-1.5-6s-2.5-5.1-4.4-9.3c-3.6-7.7-8.3-14.5-14.1-20.7-4-4.3-14.3-12.5-18.1-14.5-11.5-6-11.9-6.1-19.5-6.1-6.8 0-9.4.5-16.9 2.9-1.7.5-2.1.4-1.6-.4.3-.7.8-6.4 1.1-12.8.2-6.5.6-13.1.9-14.7.5-2.9 1.5-20.4 1.5-25.5 0-4.3 2.1-15.5 4.1-22.1 1.1-3.6 2.3-7.6 2.5-9 .3-1.4 1.1-3.2 1.7-4 .7-.8 2.3-3.8 3.7-6.5 1.5-3.1 6.6-9.2 13.5-16.1 10-10 11.6-11.2 17.7-13.3 12.1-4.1 23.4-4.9 37.3-2.5m-286.7 16.7c.6.5 1.2 1.9 1.2 3.1 0 3-5.6 14.5-8 16.4-2.5 2-4.4 11.7-2.6 13.1.6.5 3.4 1.9 6.1 3.2 5.4 2.5 8.4 5.4 8.5 8.1 0 1-.8 1.9-1.7 1.9-1 .1-2.8.3-4.1.4-1.6.2-2.7-.6-3.7-2.6-2.4-4.5-7.4-5.4-13.9-2.4-2.9 1.3-5.8 3.1-6.5 3.8-1.2 1.5-6.1 2-6.1.6 0-.4 2.6-3.3 5.7-6.3 5.3-5 5.8-5.9 6.3-10.8s.3-5.7-3.1-10.3c-4.2-5.9-7.9-12.8-7.9-14.9 0-.8.5-1.8 1.1-2.2 3.4-2.1 26.3-3 28.7-1.1m5.7 30.7c.3.5-.1 1-.9 1-.9 0-1.6-.5-1.6-1 0-.6.4-1 .9-1 .6 0 1.3.4 1.6 1m596.9 11.9c.6.4 2.3 1.1 3.8 1.5 5.9 1.4 24.8 19.1 24.8 23.2 0 1.2 3.1 8.6 6.1 14.6.5 1 .9 3.6.9 5.7 0 2.2.5 4.3 1 4.6.6.3 1 3 1.1 5.8.1 2.9.4 6.3.8 7.7.4 1.3.4 5.6 0 9.5-.4 3.8-1 9.9-1.3 13.5-.4 3.6-.8 7.2-1 8-.1.8-.6 3.3-1.1 5.5-.4 2.2-1.4 4.9-2.1 6-.8 1.1-1.4 2.6-1.4 3.5 0 .8-.7 2.8-1.5 4.4-.9 1.6-1.4 3.5-1.1 4.2.3.8-.8 2.3-2.4 3.4-1.7 1.2-3 2.6-3 3.1s-1.6 3.1-3.5 5.8c-1.9 2.6-3.5 5.4-3.5 6 0 .7-.4 1-.9.6-.6-.3-1.5.3-2 1.3-2.4 4.4-11.3 12.2-18 15.7-1.6.8-4.9 3.5-7.4 6-3.8 3.8-5 5.9-7 12.8-1.3 4.5-2.4 9.1-2.5 10.2-.1 6.3-1.4 47.6-1.8 56.5-.2 5.8-.4 14.3-.4 19s0 12.1-.1 16.5-.2 35.9-.3 70c-.1 70.3.4 65.7-8.5 69.6-2.5 1.1-5.4 2.4-6.4 3-1 .5-3.5 1.1-5.5 1.3l-3.7.4v-24c0-13.2-.3-24.2-.8-24.5-.4-.2-.5-.8-.2-1.2.2-.5.7-2.8 1-5.2s.8-5.6 1.1-7.1.2-3.3-.2-4-.8-3.7-.9-6.8c0-3-.3-6-.7-6.5-.4-.6-.3-1.7.2-2.5s.4-2.2-.1-3.3c-.6-1-.7-2.3-.2-3s.8-29.6.6-64.2c-.2-34.7-.3-63.7-.3-64.5 0-7 1-38.1 1.3-40.1.2-1.4.7-3.1 1.1-3.8.4-.6.3-1.7-.2-2.4-1.1-1.3-.2-10.7 1.8-20.2.6-2.8 1.2-5.7 1.4-6.7.1-.9.7-2.2 1.3-3 .6-.7 1.4-2.9 1.8-4.8s1.4-4.9 2.3-6.6c5.1-9.4 6.8-12.4 10.3-17.3 2.2-3 3.9-5.9 3.9-6.5s1.8-3.4 4-6.1c3.1-3.9 4-5.8 4-9 0-6.5-4.9-12.6-10.5-13.1-1.1-.1-2.9-.5-4.1-.9-1.6-.5-3.2.4-6.8 4-3.2 3.1-4.5 5-3.9 5.8 1.8 2.3.6 14-1.7 18-1.2 2-1.9 4.4-1.6 5.2s.1 1.5-.5 1.5c-1.2 0-6.6 11.5-8.5 18.3-3.1 11.1-5.5 23.5-5.9 30.7-.3 4.1-.7 10-1 13s-.8 39.2-1 80.5c-.3 41.2-.5 75.4-.6 76 0 .9.9 49.5 1.2 61V898c-.1 4.7 0 14.1.1 21 .4 14.2.1 14.9-6.9 15-2.3 0-6.1.8-8.5 1.8-4.4 1.9-9.5 3.1-16 3.8-4.3.4-9.7 1.3-11.8 1.9-.8.3-2.2 0-3-.5-1.3-.8-1.5-6.3-1.4-40 .1-38.5.2-39.1 2.3-41.4 1.1-1.2 2.1-2.7 2.1-3.3 0-.5 1.7-3 3.8-5.4 7.9-9.1 10.9-14.2 12.2-20.9.7-3.6 1.7-7.6 2.3-9 2.8-7.5 2.5-49.7-.4-55.3-.7-1.2-1.4-3.6-1.6-5.2-.8-6.7-4.6-17.8-8.8-25.5-2.5-4.4-4.5-8.3-4.5-8.7 0-.6-3.2-4.1-11.5-12.5-2.8-2.8-2.9-3.4-3-12-.1-4.9.2-9.1.7-9.4.4-.2.5-1.8.3-3.3-1-7.9-.8-22 .3-23.4.6-.7.8-1.7.4-2.1s-.8-1.7-.8-2.9c-.5-7.6-.5-21.2 0-34.2.6-13.9.9-18.2 2.1-26 .2-1.7.7-4.8.9-7 .9-7 1.1-8.1 3.6-14 .5-1.1 1.4-3.8 2-6 2.5-8.8 10.1-24.3 13.4-27.4 1.3-1.3 2.2-2.9 2-3.6-.5-1.3 11.8-13.3 20.1-19.6 7.3-5.4 21.1-12.4 27.5-13.8 3-.7 6.2-1.5 7-1.8s6.6-.7 12.9-.9 11.6-.5 11.8-.8c.5-.5 9.2 2.1 10.7 3.3M243.1 637.7c0 .5.2 1.7.4 2.8.9 4.8.8 7.3-.5 11.3-1.6 5.1-.6 6.8 5 7.7 15.4 2.5 26.9 4.7 29 5.4 1.4.5 7 2.2 12.5 3.7 16.6 4.5 26.5 8.9 40.5 17.9 6.8 4.4 20.1 16.8 23.7 22 7.5 11 12.5 25.6 11.6 33.8-.6 5.4-2.3 9.8-3.4 9.1-.5-.3-2.3.6-4 2.1-3.6 3-4.3 2.8-3-.8.6-1.4 1.1-6.1 1.2-10.4.2-6.6-.2-8.9-2.6-14.8-2.8-6.9-11.6-19.5-17.2-24.7-5.2-4.7-18.7-14-23.3-16-2.5-1.1-5.8-2.6-7.5-3.4-1.6-.9-3.7-1.7-4.5-1.9-.8-.3-5.3-1.7-10-3.3-17.3-5.9-29.7-8.2-52-9.7-3-.2-6.6-.7-8-1.1-1.4-.3-5.2-.7-8.5-.8-5.7-.2-14.4-3.1-13.1-4.3.3-.3.1-1.2-.5-1.9-1.7-2 .6-2.6 12.3-3.2 12.3-.6 13.1-1 15-9.4 1-4.6 4.4-10.8 5.9-10.8.5 0 .9.3 1 .7M651 655.3c1.3.5 11.6 3.2 16 4.2.8.2 6.2 1.3 12 2.4 5.8 1.2 11.2 2.4 12 2.8.8.3 3.6.7 6.1.9 4.7.4 10.5 2.1 9.8 2.9-.3.2-2 .6-3.9 1-9.3 1.5-22.7 5.3-39 11-4.8 1.7-21.6 10-23.8 11.8-1.6 1.3-2.8.1-1.5-1.5.6-.7 1.6-4.7 2.3-8.8.6-4.1 1.4-8.2 1.7-9 .4-.8.7-3.5.8-6s.6-6.4.9-8.7c.8-4.3 1.9-4.8 6.6-3m91.5 20.3c2.2 1 4.2 1.8 4.5 1.9s1.2.4 2 .8c.8.3 4.9 1.3 9 2.2s8.2 1.9 9 2.2c.8.4 1.9.5 2.4.4s2.3.5 4 1.3 5.4 2 8.1 2.6c6 1.4 22.8 9.3 31.6 14.9 3.5 2.2 8.3 5.1 10.6 6.6 2.2 1.4 7.6 6.4 12 11.1 4.3 4.8 9.5 10.5 11.6 12.7 2 2.3 4.7 6.2 5.8 8.7 1.2 2.5 3 6.3 4 8.5s2.1 5.8 2.4 8l.6 4-7.8 2.5c-4.3 1.4-9.4 3.3-11.3 4.2-1.9 1-3.9 1.8-4.5 1.8-1.5 0-12.7 4.4-18.5 7.3-2.4 1.2-4.8 2.1-5.3 1.9-.5-.1-3.5.5-6.6 1.4s-6.5 1.8-7.5 2c-1.1.2-4 1-6.5 1.8-2.5.7-7.3 2.1-10.6 3.1-13.2 3.7-23.1 6.7-24.5 7.4-.8.4-2.8.7-4.5.6-1.6-.2-4.1.4-5.5 1.1-2.9 1.6-10 3.3-31 7.3-13.2 2.5-13.5 2.6-20.1 4.6-3 .9-6.7 1.8-8.4 2-1.6.2-4.6.6-6.5.9s-4.9.9-6.7 1.5c-1.7.5-3.4.7-3.7.4s-1.2-.1-2 .6-3.6 1.6-6.3 2.1c-2.6.4-5.9 1.1-7.3 1.5-5 1.5-10.5 1.4-13-.3-1.4-.9-4.1-2.5-6-3.5-1.9-1.1-4.8-3.1-6.5-4.7-2.5-2.3-8-5.8-18.5-12-.8-.5-3.7-1.9-6.5-3.1-2.7-1.2-5.1-2.3-5.3-2.5-.2-.1-.6-3.7-.9-8.1-.2-4.3-1-10.9-1.7-14.6s-.9-7-.5-7.3c.5-.3.5-1.3 0-2.2s-1.4-4.6-2-8.2c-1.4-8.7-3.8-13.1-11.9-22-5.3-5.8-8.6-8.4-14.3-11.2-7.4-3.7-10.1-4.9-12.9-5.4-9.1-1.7-18.7-2.6-28.3-2.7-6.4-.1-11.7-.5-11.7-.8s1.2-1.1 2.7-1.8c2.6-1.2 2.7-1.4 1-2.6-3-2.2-.2-2.9 12.3-3.3 25.9-.8 48.1 8 60.3 23.8 9.2 11.8 12.4 20.6 13.3 36 .7 13.8.5 13.5 5.1 11.2 7.5-3.7 36.8-10.7 61.3-14.6 4.7-.8 9.6-1.7 11-2s10.2-2.2 19.5-4.1c22.6-4.8 26.4-5.9 37-11.2 14.1-6.9 18-12.6 14-20.2-1.7-3.4-3.5-4.3-10-4.7-2.7-.2-6.1-.5-7.5-.8-1.4-.2-3.2-.4-4-.5-1.1-.1-1-.4.4-1.3 1.8-1 1.8-1.1.2-2.4-1.6-1.1-1.4-1.4 2-2.3 6.7-1.7 13.8-.8 17.8 2.3 2 1.5 4 3.5 4.6 4.5 1.9 3.6 3.8 3.2 6-1.2 1.8-3.5 2.1-5.2 1.6-10-.6-5.9-3.5-13.5-5.8-15.5-.9-.7-4.9-1-10.8-.8-8.2.2-10.1 0-14-2l-4.4-2.3 2.9-.6c1.7-.4 4-1.4 5.2-2.1 1.8-1.2 2.7-1.2 4.3-.2 1.5 1 2.2 1 3.1.1 1-1 .2-1.7-3.5-3.3-2.6-1.1-5.4-2-6.1-2-.8 0-1.7-.5-2.1-1.2-1-1.5 4.9-.5 10.1 1.8m-10.2 3.1c-.7.2-1.9.2-2.5 0-.7-.3-.2-.5 1.2-.5s1.9.2 1.3.5M488 713c0 .5-.2 1-.4 1-.3 0-.8-.5-1.1-1-.3-.6-.1-1 .4-1 .6 0 1.1.4 1.1 1m-152.2 33.5c3.1 3.7 3.3 4.4 3 10.2-.4 6.9-1.8 9.4-4.1 7.4-1.1-.9-1.7-.8-2.7.4-1.8 2.1-2.5 1.9-2.6-.9-.1-1.4.4-2.7 1.2-3 1.7-.7 1.1-15.1-.8-17.3-1-1.2-.9-1.4.8-1.1 1 .1 3.4 2.1 5.2 4.3m-29.6 1.7c1.8 1.4 5.8 11.1 5.8 14 0 1 .9 2.3 2 3s2 1.7 2 2.2c0 .6-.5.5-1.1-.1s-1.7-.9-2.4-.7c-.7.3-1.6.1-1.9-.5-.4-.6-1.3-.8-2-.5-1.7.6-3.1-1.2-4.9-6.3-.8-2.5-1.1-4.7-.5-5.6.5-.9.4-1.8-.2-2.2-1.5-.9-1.2-4.5.3-4.5.7 0 2.1.6 2.9 1.2m56 7c-.7.7-1.2.8-1.2.2 0-1.4 1.2-2.6 1.9-1.9.2.3-.1 1.1-.7 1.7M863.6 779c.1 1.4.6 4.6 1.2 7.1.8 4.1.8 8 0 12.1-.2.7.2 1.2.9 1.1.9-.2 1 .4.2 2.4-.5 1.5-.8 3.7-.5 4.9.4 1.3.1 2.6-.4 2.9-.8.5-.8 1.1 0 2 .8 1 .8 1.4-.1 1.7-.7.2-1.4 1.1-1.5 1.9-.2.7-.5 2.5-.8 3.9s-.7 4.1-1 6.2c-.5 4.1-1.8 6.9-4 8.8-.9.7-1.6 2.3-1.6 3.5s-.7 2.8-1.5 3.5-1.3 1.6-1 2c.2.4-.9 2-2.5 3.5-1.7 1.6-3 2.5-3 1.9-.1-.5-.8 0-1.8 1.1-.9 1.1-3.4 3.1-5.5 4.4-2 1.2-3.5 2.6-3.2 3.1.3.4-.1.7-.8.7-1.4-.1-9.2 1.9-12.2 3.2-2.6 1.1-13.6 4.8-19.9 6.6-2.7.8-5.4 1.9-5.9 2.4-.6.6-2.1 1.1-3.2 1.1-1.2 0-2.5.3-2.9.7-.3.4-2.1.7-3.9.8-4.6.2-11.9 1.6-14 2.7-1 .5-3.3 1.1-5.3 1.4-1.9.2-4.5.9-5.6 1.5-2.2 1.2-2.3 1.2-18.8 2.9-6.3.7-11.8 1.4-12.2 1.6-.4.3-3.6.7-7 .9-8.6.6-18.5 2.5-26.9 5.1-1.2.3-2.1-.8-3.3-3.9-2.5-6.7-23.1-36.7-32.7-47.7-6.2-7.2-5.9-8.5 2.4-9.4 3.4-.3 8.5-1.3 11.2-2.2 2.8-.8 9.7-2.4 15.5-3.4 5.8-1.1 13.9-2.7 18-3.5 4.1-.9 8.4-1.7 9.5-1.9 1.1-.3 4.7-1.1 8-1.9 3.3-.9 9.8-2.5 14.5-3.6 4.7-1.2 9.5-2.7 10.7-3.3 1.3-.6 2.6-.8 3-.5.3.4 1.1.3 1.7-.2.6-.4 3.3-1.1 6-1.5 2.7-.3 5.4-1 6-1.4.6-.5 3.6-1.4 6.6-2.1 3-.8 6-1.6 6.5-2 .6-.3 2.1-.7 3.5-.9 1.4-.1 3.9-.7 5.5-1.2 1.7-.5 4.2-1.1 5.8-1.4 4-.7 7-1.7 8.5-2.9.7-.6 2.3-1.2 3.5-1.3 2.5-.4 6-1.1 6.7-1.5.3-.1 1-.3 1.5-.4 3.2-.6 7.4-1.9 10-3 1.7-.7 4.5-1.6 6.2-2 1.8-.3 3.6-1.2 4-2 .5-.7 3.5-1.8 6.7-2.5s7.3-2.1 9-3.1c1.9-1.2 4.5-1.8 6.6-1.7 2.8.3 3.4.7 3.6 2.8m-348.1 42c8.2 3.2 28.2 12.2 33 14.7 13.6 7.2 50.3 38.1 60.7 51.2 7.5 9.3 6.8 10.4-7.5 11.5-2.6.2-5.4.9-6.1 1.5-.8.7-1.8 1.1-2.2.9-.5-.1-2.4.2-4.3.6-1.8.5-4.5 1-6 1.1-5.9.7-16.8 2.6-20.1 3.5-1.9.6-4.9 1-6.7 1-1.7 0-3.4.4-3.7.9-.6 1-4.5 1.7-13.6 2.6-3 .4-8 1.2-11 2-3 .7-7.3 1.6-9.5 1.9-6.8.9-10.1 1.5-14.6 2.5-2.3.5-4.6.8-5 .5-.4-.2-1 0-1.3.5-.3.4-3.3.9-6.6 1-3.4.1-8.1.6-10.5 1.1s-6.5.9-9.2.9c-2.6 0-10.2.9-16.8 2.1-6.6 1.1-14.9 2.5-18.5 3.1s-7.3 1.8-8.2 2.7c-1 .8-1.8 1.2-1.8.8s-.6-.4-1.2 0c-1.4.9-2.5 1.1-11.1 1.9-3.2.2-6.6.9-7.5 1.4s-3.3.8-5.2.7c-1.9-.2-4.2.1-5 .5-1.3.6-8 1.5-18.6 2.4-1.8.2-4.1.8-5.3 1.4-1.2.7-2.1.9-2.1.5 0-.3-.6-.1-1.4.5-.8.7-3 1.3-5 1.5-1.9.2-4.2.8-4.9 1.5-.8.6-3.7 1.3-6.5 1.6-2.9.3-7.3 1.4-9.9 2.4-2.7 1-5.7 1.7-6.8 1.4-3.7-.7-5-.6-11 .6-18.4 3.6-22.7 4.3-29.3 4.6-4 .2-8.9.9-10.8 1.5-1.9.7-3.8.9-4.1.6s-1.3-.1-2.2.3c-.9.5-5.9 1.2-11.1 1.5-5.2.4-12 .9-15 1.1-14.9 1.3-24 1.7-41 1.6-19-.1-25.9-.6-27.1-1.9-.4-.4-.2-1.8.4-3.2.5-1.4 1.2-3.6 1.4-5s1.3-4.4 2.4-6.7 1.9-5 1.7-6c-.1-1 .2-2.5.7-3.3 1.6-2.5 1.4-28-.2-36.1-.8-4.1-1.6-8.1-1.8-8.9-.1-.8-.7-2.8-1.4-4.3-.6-1.6-1.1-3.8-1.1-5s-.8-3.6-1.8-5.2c-3.9-6.5-5.6-6.1 23.9-5.7 17.8.2 28.1 0 30.3-.8 4.2-1.4 8.3-1.9 17.1-2.4 3.9-.2 10.7-.9 15.2-1.5 4.4-.7 9.6-1.3 11.5-1.5 1.8-.2 5.8-1.2 8.8-2 3-.9 6.7-1.9 8.2-2.1s3.5-.8 4.5-1.3 3.5-1 5.5-1.1c2.1-.1 8-1.1 13-2.2 5.1-1.1 11.6-2.4 14.4-2.9 2.8-.4 7.1-1.4 9.5-2 2.4-.7 5.5-1.4 6.9-1.6 1.4-.3 3.6-.7 5-.9 1.4-.3 4.5-.8 7-1.1 2.5-.4 5.1-1.1 5.8-1.7.7-.5 1.5-.7 1.8-.5.3.3 2.2.2 4.2-.3s5.1-1.2 6.7-1.4c3.5-.6 5.2-.9 12-2.5 7.5-1.7 21.8-4 33-5.3 5.5-.7 10.5-1.5 11.1-1.9.9-.6 8.7-2.1 16.9-3.3 1.1-.2 2-.4 2-.5 0-.4 4.4-1.1 7.3-1.1 1.9 0 5-.6 6.9-1.4s3.9-1.3 4.3-1c.5.3 1.1.2 1.4-.3s2.7-1 5.3-1.1 6.4-.5 8.3-.7c1.9-.3 6.1-.6 9.3-.8 3.1-.2 6-.6 6.4-.9.6-.7 4.5-.1 7.8 1.3m365 145.6c1 1 1.3 2.4.9 3.8-1.2 3.7-4 4.5-8.9 2.6-2.3-.9-2.6-1.4-2-3.8.4-1.5 1.2-3 1.8-3.4 2.1-1.3 6.5-.9 8.2.8M127 982.5c1.1 1.3 1 1.4-.4.9-.9-.3-1.6-1-1.6-1.5 0-1.3.6-1.1 2 .6"/><path d="M397.6 423c-3.1 2-4.6 3.6-4.2 4.5q.45 1.35-.9.9c-1.3-.5-4.4 4-5.2 7.6-1.3 5.6-1.4 9.1-.4 10.4.7.8 1 2.6.7 4-.7 3.9 1.9 9.2 6.9 14.1 5.9 5.7 9.1 6.1 15.3 1.9 5.3-3.5 7.4-6.8 8.9-13.4 2.7-11.8-3.1-28.2-11.3-31.6-4.4-1.8-4.3-1.9-9.8 1.6M250 431.7c-6 1.1-12.7 11.5-13 20.5-.2 2.9-.1 5.5 0 5.8s.3 2 .4 3.8.8 3.7 1.6 4.2c.8.6 1.2 1 .7 1-.4 0 .2 1.8 1.3 4 2.1 4.2 6.9 7 11.9 7 3.5 0 9.8-4 11.6-7.3.8-1.5 2.1-3.8 2.8-5.1.9-1.6 1.3-5.6 1.2-11.3-.2-9.8-1.9-14.1-8.2-20.1-3.3-3.1-4.8-3.5-10.3-2.5"/></g></svg>