<svg xmlns="http://www.w3.org/2000/svg" width="1365.333" height="1365.333" preserveAspectRatio="xMidYMid meet" version="1.0" viewBox="0 0 1024 1024"><g fill="#000" stroke="none"><path d="M509.1 133.7c-1.9 1-4.4 3.1-5.5 4.6-2.1 2.8-2.1 3.6-2.4 93-.2 102.2-.8 95.1 7.8 99.5 3.8 2 5.6 2.3 12.1 1.9 8.1-.4 12.5-2.5 15.2-7 .9-1.7 1.3-20.6 1.7-80.7l.5-78.5h305v162l-8.7.3-8.6.3-.4-19.5-.3-19.4-3.1-3.9c-6.2-7.6-6.8-7.7-35.3-8.3l-25.4-.5-1.4-5c-5.6-19.7-22.9-74.7-24.3-77.5-2.5-4.9-6.8-8.6-11.5-10-2.7-.8-11.4-1-26.2-.8l-22.1.3-3.9 3.1c-5.2 4.1-8.3 10.5-8.3 17.1v5.3h-19v-4.8c0-2.6-.5-6.3-1-8.2-1.1-4-7.1-10.4-11.3-11.9-1.8-.7-13.3-1.1-30-1.1-24.1 0-27.7.2-31.2 1.9-5.7 2.6-10.1 7.9-11.4 14.1-.7 3.3-1.1 23.7-1.1 59.4 0 52.8-.1 54.4-2 56.9-1.1 1.4-2 2.9-2 3.4 0 .4-.9 1.4-2 2.1s-2 1.6-2 2.1c0 .6-1.3 2.5-3 4.3-1.6 1.8-3 3.7-3 4.3s-.9 1.6-2 2.3-2 1.9-2 2.8c0 1.1-.5 1.4-1.7.9-1-.4-11.7-.9-23.8-1.1l-22-.5-13-13c-7.2-7.1-13.4-12.9-13.8-12.9s-2.3-1.8-4.3-4-4.3-4-5-4c-.8 0-1.4-.5-1.4-1 0-.6-2.4-2.2-5.2-3.5-4.7-2.2-6.7-2.5-17.7-2.5-10.7 0-13.1.3-17 2.1-5.2 2.5-10.1 6.6-10.1 8.6 0 .7-.4 1.3-.8 1.3-.5 0-1.4 1.7-2.2 3.7-.9 2.9-1.3 14.7-1.5 47.8l-.2 44 .8-41c.4-22.6.7-42.4.8-44.1.1-6.3 7.6-18.2 10.7-17 .8.3 1.3 0 1.1-.6-.8-3.9 28-5.1 35.3-1.5 6 2.9 14.2 10.7 13.7 12.9-.5 1.6-.3 1.7 1 .7 1.2-1.1 3.5.7 14.5 11.9l13.1 13.1 22.6.5c12.4.3 23.8.8 25.4 1 1.6.3 2.5 0 2.1-.6-.8-1.3 2.6-4.9 3.9-4.1.6.3.7.1.3-.5-.9-1.5 4.3-8.4 5.7-7.5.6.4.7.1.3-.6-1-1.5 2.3-5.3 3.7-4.4q.9.45.3-.6c-.4-.6.2-2.3 1.3-3.7 2.1-2.6 2.1-3.6 2.1-57.9 0-61.2.1-62.4 6.2-68.2 6.6-6.2 7.1-6.3 36.2-6.3 16.2 0 27.6.4 29.3 1.1 9.9 3.7 15.9 19 10.3 26.2-1.9 2.4-2 4.3-2.2 61.8l-.3 59.4-8.3.3-8.3.3.3 13.9c.3 12.7.5 14 2.6 16.2 2 2.2 2.2 3.4 2.2 13.6v11.1l53.8.3 53.7.4 10 2.7c10.7 3 13.6 4.1 22.9 8.8 25.6 13 45.7 37.1 53.2 63.9 2.3 8.4 2.7 11.8 3.1 29.8l.5 20.3h13.2c7.2 0 17.2.2 22.1.5 10.7.6 14.9-1 17.7-6.6 1.7-3.3 1.8-14.2 1.8-184.3 0-198.5.4-185.1-6.1-189.8l-3.4-2.4-179-.3c-168.9-.2-179.2-.1-182.4 1.5m363.8 2.2c6.5 4.7 6.1-8.6 6.1 188.8 0 169.2-.1 180-1.8 183.3-2.3 4.7-7.1 7-15 7-7 0-11.7-1.6-14.7-5-1.9-2.2-2-4-2.5-73.4l-.5-71.1-108.2-.3-108.2-.2-2-2.6c-1.9-2.4-2.1-4-2.1-15v-12.3l8.3-.3 8.2-.3.5-59.5c.4-50.5.7-59.8 2-61.8 1.4-2 2.2-2.2 11.3-2.2 15.1 0 13.6-6.7 13.7 63.6 0 53 .2 59.2 1.6 59.8.9.3 7.3.6 14.3.6 11.5 0 13-.2 14.6-2 1.7-1.9 3.1-2 19.2-2 15.3 0 17.7.2 21 2 3.5 1.9 5.7 2 42.9 2h39.3l2.9-2.5c2.5-2.1 4.1-2.5 11.8-2.7l8.9-.3v-164h-307L537 244c-.4 60.1-.8 79-1.7 80.7-4 6.9-16.8 9.5-25.3 5.1-8.6-4.4-8 2.6-7.8-98.5.3-88.4.3-89.2 2.4-92 1.1-1.5 3.6-3.6 5.5-4.6 3.2-1.6 13.4-1.7 181.4-1.5l178 .3zm-147.8 50.5c7.1 3 10.3 8.2 15.4 25.1 2 6.6 4 13.1 4.5 14.5 3.3 9.6 6.1 20.4 5.6 21.6-.3.8-.2 1.2.3.9s1.2.3 1.5 1.2c.2 1 2.1 7.4 4.1 14.1 2 6.8 3.4 13 3.1 13.7-.4 1.1 4.2 1.4 25.5 1.5 25.8.1 26.1.1 29.9 2.5 2.1 1.3 5.1 4.1 6.7 6.1l2.8 3.7.3 19.1.3 19.1-2.4 2.3c-2.3 2.1-3.1 2.2-14.8 2l-12.4-.3-.3-10.4c-.1-5.8-.8-11.1-1.4-11.8-.8-1-4.8-1.3-15.4-1.3H764v2.7c0 1.6 1.1 6.6 2.5 11.2s2.2 8.7 1.9 9.2-6.1.9-13 .9c-11 0-13-.3-16.3-2.2-2.7-1.6-4-3.2-5-6.2-6.6-21.8-8.4-27.4-9-29.1-.5-1.1-1.3-3.6-1.9-5.5-2.6-8.8-8.8-28.9-13.2-43-2.7-8.5-5.6-18.2-6.6-21.5s-2.1-6.4-2.5-6.9c-.4-.4-.8 24.1-.8 54.5-.2 67 1.8 60.1-17.6 59.7l-13-.3-.3-59.4c-.2-57.5-.3-59.4-2.2-61.8-4-5.1-1.9-16.4 4.2-22 5.3-5 6.9-5.3 29.4-5.3 16 0 22 .3 24.5 1.4m-10.6 80.1c5.3 17 11.7 37.5 14.2 45.5s4.8 15.3 5 16.2c.5 1.7-.7 1.8-16.1 1.8H701l.1-52.8c.1-52.2.1-52.6 1.9-47.2 1 3 6.2 19.4 11.5 36.5m78.3 45.7c.8.8 1.2 4.8 1.2 11.5V334h-23.6l-2.7-9.5c-4.1-14.6-5-13.5 10.6-13.5 9 0 13.7.4 14.5 1.2M844 437.7l.5 71.1 2.4 2.6 2.4 2.6h-23.1l-.5-19.8c-.4-17-.8-21-3-29.4-2.5-9.6-9.9-25.5-13.7-29.6-1.1-1.2-2-2.6-2-3.2 0-1.5-18-20-19.5-20-.7 0-1.5-.7-1.9-1.5-.3-.8-1.2-1.5-2.1-1.5-.8 0-1.5-.4-1.5-.9 0-2.3-20-12.2-31.5-15.5-14.4-4.2-20.1-4.6-71.7-4.6H629v-22l107.3.2 107.2.3zM224.6 248c-12.5 1.6-22.6 4.3-34.1 9.2-8.3 3.6-23.5 12.5-23.5 13.9 0 .5-.7.9-1.5.9-.9 0-1.8.7-2.1 1.5-.4.8-1.2 1.5-1.9 1.5s-2.9 1.8-4.9 4-3.9 4-4.4 4c-.8 0-6.2 5.5-6.2 6.4 0 .4-1.6 2-3.5 3.7s-3.5 3.7-3.5 4.4-.7 1.5-1.5 1.9c-.8.3-1.5 1-1.5 1.5 0 .6-1 2.1-2.3 3.4-3.1 3.4-10.2 16.1-14.3 25.6-11.9 27.4-13.7 68.6-4.4 97.1 3.4 10.3 10.9 25.5 14.6 29.5 1.3 1.4 2.4 3 2.4 3.6 0 .5.7 1.2 1.5 1.5.8.4 1.5 1.1 1.5 1.8 0 1.4 18.2 19.6 19.6 19.6.6 0-3.3-4.4-8.8-9.7-5.8-5.7-9.6-10.3-9.3-11.1.2-.7.1-1.1-.4-.8-1.3.8-3.4-2.1-2.5-3.5.4-.7.3-.9-.4-.5-2.7 1.6-14-19.5-18.1-33.9-3.7-13.1-4.6-20.5-4.6-39.5.1-20.8 1.3-28.6 7-45.6 5.2-15.2 20-40.5 22.7-38.8.7.5.8.2.3-.5-.8-1.5 4.1-7.1 6.2-7.1.8 0 1.1-.5.8-1-.9-1.4 5-7.4 6.4-6.5.6.3 1.1 0 1.1-.7 0-2.2 6.6-8.1 8.1-7.3.7.5 1 .4.6-.2-.9-1.4 1.9-3.7 3.4-2.7.8.4.9.3.5-.4-1.4-2.3 19.9-14.2 33.1-18.6 14.8-4.8 23.5-6.1 42.3-6.1 23.7 0 27.6.9 35.1 8.4 4.9 5 5.8 6.5 6.9 11.6 1.5 7.3.6 17.4-2 22.5-2.5 4.9-8.9 10.4-13.9 11.8-2.1.7-7.4 1.2-11.7 1.2-19.6.1-35.8 4.5-50.1 13.6-3 1.9-5.8 3.2-6.4 2.9-.5-.4-.9-.1-.9.6 0 1.7-12.1 13.9-13.8 13.9-.7 0-1 .4-.7 1 .3.5-.7 3-2.4 5.4s-4.4 7.4-6.2 11.2c-1.7 3.8-3.5 7.6-3.9 8.6-.5.9-1.7 5.6-2.6 10.5-3.3 17.5-.4 34.2 8.9 51.5 4.3 8 5.5 8.9 7.7 6.3.7-.8 1.9-1.5 2.7-1.5s1.1-.5.7-1.1c-.8-1.4 4.7-7.1 6.3-6.5.7.3 1.3-.1 1.3-.8 0-1.6 3.8-5.1 4.7-4.3.3.4 1.1-.3 1.8-1.6.6-1.2 1.9-2.1 2.8-2.1.9.1 1.5-.2 1.2-.6-1.1-1.7 18.9-13.2 33-19 7.4-3.1 29.1-8.3 31.6-7.7 1 .3 1.9.1 2.1-.4s7.6-1.4 16.5-2.1c18.9-1.4 39.6-.2 56.3 3.2 13.1 2.7 34.7 9.8 44.1 14.5 4 2 7.4 3.4 7.6 3.1.9-.9-13.5-7.5-25.1-11.5-45-15.5-100.9-14.4-140.5 2.8-9.7 4.2-21.5 10.9-24.8 14-1.2 1.2-2.7 2.1-3.2 2.1-.6 0-1.6.9-2.3 2s-1.8 2-2.5 2c-.6 0-2 1.1-3.1 2.5s-2.4 2.5-2.9 2.5c-1.2 0-6.3 5.3-6.3 6.6 0 1.4-4.1 3.7-5 2.7-2.2-2.2-8.2-14.7-10.5-21.8-6.8-20.1-2.8-44.7 10.4-63.9 1.7-2.4 3.1-4.7 3.1-4.9 0-.4 15.1-15.7 15.5-15.7.1 0 3.9-2.3 8.5-5 13.2-8 29-12 46.6-12 10.4 0 15.6-1.5 20.8-6.1 5.3-4.7 7.4-9.7 8.2-19.3 1-10.9-1.3-17.7-8-24.2-4.3-4.2-6.4-5.4-10.7-6.4-6.8-1.5-34.2-2.2-43.3-1"/><path d="M633.5 434.7c0 18.7-1.4 25.9-8.1 40.2-5.4 11.5-11.2 19.7-19.6 27.8-6.9 6.6-22.4 17.1-29.5 20-5 2.1-5.2 3.1-1.9 11.1 2.8 6.8 4.4 12.8 5.4 20.2l.7 5.5 24.8.6c13.6.4 27.8 1 31.5 1.4 16.8 1.7 34.6 8.6 46.5 18 7 5.6 14.8 15.9 18.1 24l2.4 6 13.3 1.2c18.1 1.6 29 3 37.6 5 4 .9 7.5 1.4 7.8 1.1s1-7.5 1.5-15.9c.4-8.5 1.6-18.6 2.6-22.4 3.5-14.5 11.6-28.5 22.5-39.3l6.2-6.2-.2-20.9c-.3-29.7-3.1-42.3-13-57.3-10.7-16.2-25.9-26.6-48.1-32.6-9.5-2.6-9.7-2.6-55-3l-45.6-.3zm100.6-11.5c30.8 8.4 52 29.9 57.9 58.8 1.4 6.9 1.9 14.2 2.1 29.6l.2 20.4-6.2 6.2c-7.9 7.7-13.6 16.1-17.6 25.8-4.8 11.4-6.6 20-7.5 36.3-.5 8.2-1.1 15.1-1.4 15.4s-3.6-.2-7.3-1c-8.6-2.1-18.4-3.4-34.8-4.7-7.1-.6-13.5-1.3-14.1-1.5s-2.1-2.9-3.3-6.2c-5.5-14.7-20.7-28.9-38-35.4-15.1-5.6-24.2-6.9-58.2-7.8l-24.3-.6-1.2-7.1c-.7-3.8-2.6-11.2-4.4-16.3s-3.1-9.4-2.9-9.5c.2-.2 2.6-1.3 5.2-2.4 7.6-3.4 21.6-12.9 28.5-19.6 12.8-12.2 20.5-25.8 25.8-45.6 1.4-4.9 1.8-10.5 1.9-22.3v-15.8l45 .3c44.8.4 45 .4 54.6 3m-580.5 62.5c-1.4 5-2.6 14.5-2.6 21.3v7.6l-6.6 2.4c-6.9 2.4-21.4 11.2-21.4 13 0 .5-.6 1-1.3 1-1.3 0-5.7 4-5.7 5.2 0 .3-1.6 2.2-3.5 4.2-1.9 2.1-3.5 4.4-3.5 5.2s-.4 1.4-.8 1.4c-1.4 0-8 15.1-9.7 22-2.3 9.9-2 31.6.5 41.6 2.1 8.4 6.7 18.6 9.7 21.9 1.1 1.1 2.2 2.8 2.6 3.7.3 1 1.1 1.8 1.7 1.8.5 0 1 .7 1 1.5 0 .7.6 1.8 1.3 2.2 1.3.9 2.4 2.5 6.4 9.8l2.8 5 .6 59c.5 55.8.7 59.3 2.6 65.1 2.5 7.5 8.2 18.4 10 19.1.7.3 1.3 1.1 1.3 1.8 0 2 14.1 14.8 20.1 18.3 6.2 3.5 19.1 7.8 26.2 8.7l4.7.6v18.4c0 14.6.3 19.3 1.6 22.5.9 2.2 2 4 2.4 4s1 .9 1.3 2.1c.3 1.1 1.5 2.3 2.6 2.6 1.2.3 2.1.9 2.1 1.3s1.8 1.5 4 2.4c3.2 1.3 7.9 1.6 23.3 1.6 10.9 0 20.9-.5 23.2-1.1 2.5-.7 5.8-2.9 8.6-5.8 5-5 4.6-3.9 13-32.8l4.4-15.3h464l5.4 18.3c6.8 22.9 8.4 26.9 13.2 31.1 5.6 5.2 9.4 5.8 32.9 5.4l20.8-.3 4.4-3c2.4-1.7 5.4-5.1 6.8-7.5 2.4-4.3 2.5-5.3 2.8-24.8l.3-20.2h3.6c11.6 0 27.4-7.4 39-18.4 8-7.5 9.5-9.8 7.3-11.1-.5-.3-.7 0-.4.8.9 2.4-15.3 16.7-23.7 20.9-11 5.6-25.6 8.6-27.4 5.8-.3-.6-1.1-1-1.7-1s-.3.9.6 1.9c1.6 1.8 1.7 4 1.4 21.8-.3 19.6-.3 19.8-3.1 24-1.5 2.4-4.6 5.5-6.9 7-4.1 2.8-4.3 2.8-23.8 3.1-12.3.2-21.3-.1-23.8-.8-7.9-2.1-13.6-8.9-16.6-20-1-3.6-2.4-8.3-3.1-10.5-6.5-20.2-6.8-21.7-5.5-23.9 1-1.7 1-1.9-.1-.9-1.9 1.9-466.9 1.9-468.8 0-1.1-1-1.1-.8-.1.8 1.2 2.1 1.4 1.3-6.5 28.5-4.5 15.3-5.3 16.7-11 21.8-5.8 5.1-8.5 5.5-33 5-15.5-.3-18.4-.6-20.7-2.2-1.5-1-2.5-2.2-2.2-2.7s-.2-.6-1-.3c-.9.3-2.6-1.1-4.8-4.3l-3.3-4.8-.3-19.8c-.3-14.4 0-20.2.8-21.2s.9-1.5.2-1.5c-.6 0-1.4.5-1.7 1-.8 1.2-4.5 1.3-4.5.1 0-.5-.9-.7-1.9-.4-2.9.7-12.6-2.3-21-6.5-8.3-4.1-23.6-17.5-22.7-19.8.3-.8 0-1.3-.6-1.1-2.9.6-13.3-21.9-12.7-27.7.1-1.1-.1-2.8-.4-3.6-.4-.8-.8-26.5-.9-57l-.3-55.5-2.4-4.5c-1.3-2.5-3-5.3-3.8-6.2s-1.2-2.2-.7-2.9c.4-.7.3-1-.3-.6-1.4.9-3.7-1.9-2.7-3.4q.6-1.05-.3-.6c-1.4.9-3.7-1.9-2.7-3.4q.6-1.05-.3-.6c-1.6 1-7.3-8.5-10.6-17.7-2.7-7.1-3.1-9.8-3.5-22.1-.4-13.8.5-23.3 3.2-30.6 3.5-9.8 12.5-23.9 15.2-23.9.8 0 1.2-.5.9-1.1-.9-1.4 3.6-6.1 5.3-5.4.7.2 1 0 .7-.5-1.2-1.9 10.2-9 24.8-15.4l3.7-1.7v-8.2c.1-4.5.7-11.4 1.4-15.2 1.3-6.6 1.4-9.9.2-5.8m718.8 33.5c7.9 2.8 17.7 8.6 18.3 10.9.3.9 1 1.6 1.7 1.3 1.6-.6 9 7.1 8.2 8.5-.4.6 0 1.1.8 1.1 2.5 0 11.6 15 14.4 24 1.8 5.6 3.2 16 3.2 23.5 0 15.1-3.6 28.6-10.6 39.7-1.4 2.2-2.3 4.2-2 4.5.6.6 5.3-6.8 7.5-12.1 4.2-9.7 5.5-17.7 5.5-32.6 0-10.8-.4-16-1.7-20.5-2-7-7.7-19.5-8.9-19.5-.4 0-.8-.7-.8-1.5s-.4-1.5-1-1.5c-.5 0-1-.7-1-1.5s-.9-2-2-2.7-2-1.8-2-2.3c0-1.4-7.3-8.5-8.7-8.5-.6 0-1.3-.6-1.6-1.4-1.2-3-18.9-11.7-23.6-11.6-.9.1 1.1 1 4.3 2.2"/><path d="M166.2 545.5c-9.9 1.8-17.6 5.8-24.3 12.5-8.9 8.8-12.9 18.5-12.9 31.1 0 12.1 3.5 20.1 14.9 34 2.4 3 6 8.8 8 12.9l3.6 7.5.5 60c.6 65 .5 63.9 6.3 73.8 3.1 5.3 11.1 12.8 16.5 15.6 10.3 5.3-2.6 5 249.5 5.4 128.8.3 271.1.2 316.2-.2l82-.6 5.7-2.3c7.7-3.1 16.6-10 20.5-15.9 6.8-10.1 6.6-7.6 7.7-75.3l1.1-61.5 3.1-6.5c1.7-3.6 6-10.1 9.5-14.5 3.6-4.4 7.4-9.6 8.6-11.5 7-11.6 7-31.5 0-43-10.1-16.6-30.3-25.2-50.6-21.6-19.4 3.4-33.2 15.2-39.3 33.5-2.2 6.4-2.2 8-2.8 65.7l-.5 59.1-4.3 8.7c-5.9 11.9-12.9 18.9-24.6 24.7l-8.9 4.4-241.1.3c-237.8.2-241.2.2-247.6-1.8-13.5-4-24.4-13.6-30.9-27l-3.6-7.5-.7-55.5c-.4-30.5-1.2-59.1-1.8-63.5-3.6-28.4-30.1-46.6-59.8-41m23.8 1.7c16.9 4 31.9 20.1 34.8 37.3.6 3.3 1.3 31.2 1.7 62 .7 60 .7 59.8 6.1 70.5 3 6.1 10.2 14.1 16.1 17.8 2.7 1.7 8.3 4.2 12.5 5.6l7.7 2.6 241.3-.2 241.3-.3 6.5-2.8c14.6-6.2 23.2-14.7 29.3-28.7l3.2-7.5.6-59c.4-44 .9-60 1.8-63 4.2-13.2 14.1-24.9 25.7-30.7 14-7 30.3-7 44.4-.1 7.3 3.5 16.9 13.2 20.6 20.8 2.7 5.5 2.9 6.9 2.9 17 0 10-.3 11.5-2.8 16.6-1.5 3.1-6.1 9.8-10.2 14.9-4.4 5.6-8.5 11.9-10.2 15.9l-2.7 6.6-1.1 61.5-1 61.5-3.3 6.8c-4.3 8.8-11.5 15.8-21.1 20.5l-7.5 3.7-82 .5c-118 .8-321.9.9-447.1.1l-108-.6-6.8-3.2c-12.7-6-22.3-17.9-24.6-30.7-.7-3.8-1.1-25.8-1.1-61v-55.1l-2.4-6.7c-3-8.5-6.1-13.7-12.6-21.3-2.8-3.3-6.5-8.9-8.3-12.5-3-6-3.2-7.2-3.2-17s.2-11 3.2-17.3c3.8-8 12.2-16.8 20.1-21.1 9.7-5.1 23.5-6.4 36.2-3.4"/><path d="M641.6 631.8c-.3.5-1 3.1-1.6 5.8-2.4 10.7-10.7 20.7-21.9 26.1-5.1 2.6-6.6 2.8-16.6 2.8-8.8-.1-13.8-.7-24.6-3.3-7.5-1.8-14.6-3.2-15.7-3.2-5 0-15 18-18.4 33.1-1.2 5.3-1.9 10.3-1.5 11.2.6 1.6 7 1.7 84.3 1.5l83.6-.3 10.4-26c5.7-14.3 11.5-28.5 12.9-31.6 3.8-8.6 3.8-8.5-6.7-9.8-9.2-1.1-34.3-3.3-59.3-5.1-7.1-.5-15.5-1.2-18.7-1.5-3.1-.3-5.9-.2-6.2.3m24.9 2.2c21.6 1.6 58.5 4.8 63.3 5.6 3.4.5 4.2 1 3.8 2.3-.3.9-6.1 15.3-12.9 32.1l-12.3 30.5-82.7.3c-72.7.2-82.8 0-83.3-1.3-2-5.2 7.8-30.8 15-39.1l3.4-3.9 14.8 3.4c18.7 4.2 29.8 5 38 2.6 13.6-3.9 23.4-13.6 26.8-26.8.8-3.2 1.8-6.2 2.1-6.7.4-.6 2.7-.8 5.3-.5s11 .9 18.7 1.5m236.9-.1c.4.7-1.3 4-4.3 7.9-2.7 3.8-5.6 8.1-6.3 9.8-.9 2.2-1.4 17-1.8 60.4-.4 40.6-1 58.7-1.8 61.5-.7 2.2-1.8 5.8-2.4 8-.7 2.2-2.7 6.6-4.5 9.8-3.6 6.3-3.9 7.2-2.3 6.2 1.8-1.1 6.8-12 9.2-19.7 2.1-7.1 2.2-9.1 2.8-64.8.4-43.5.8-58.2 1.8-60.4.7-1.7 3.5-6 6.2-9.7 5.2-6.9 5.8-8.3 3.8-9.5-.7-.4-.8-.3-.4.5M759 651.7c-1.2 3.8-3.1 8.6-4.1 10.8-4.4 9.9-20.6 52.1-20.2 52.7.2.5 2.8.8 5.7.8 10.9 0 20.7-8.2 22.1-18.4.3-2.2.7-15 1-28.4.4-19.8.2-24.2-.9-24.2-.8 0-2.3 2.9-3.6 6.7m3.4 20c-.5 25-.6 26-3 31.1-3.6 7.4-9.7 11.5-18.2 12l-6.3.4 1.4-3.3c3.1-7.7 24.6-62.5 25.1-64.2.3-.9.8-1.7 1-1.7.3 0 .3 11.6 0 25.7m-508.2 5.5c.3 25.6.5 26.3 7 32.5 1.8 1.8 5.1 4 7.3 5 3.8 1.7 10.8 1.8 121.5 2.1 64.6.2 118.9 0 120.6-.3l3.1-.5.6-11.3c.9-16.7 4.8-28.5 14.3-43.5 1.9-2.9 3.4-5.7 3.4-6.2 0-.7-48.9-1-139.1-1H253.8zm273.4-17c-9 14.2-13.4 27.7-14.3 44.1-.6 9.8-.8 10.8-2.7 11.3-1.2.2-55.2.3-120.1.2-112.4-.3-118.2-.4-121.7-2.1-5.1-2.6-11.4-9.7-12.7-14.3-.6-2.2-1.1-12.8-1.1-24.2V655h276z"/></g></svg>