<svg xmlns="http://www.w3.org/2000/svg" width="1024" height="1024" version="1.1"><path fill="#FCBE41" fill-rule="evenodd" d="M188.872 796.593c-4.196-1.254-9.217-3.261-11.16-4.461-1.941-1.2-6.19-5.026-9.44-8.501-6.98-7.461-9.753-14.032-11.238-26.631-.552-4.675-.993-31.783-.98-60.24l.021-51.742-2.424-6.972c-2.277-6.547-5.38-11.478-11.67-18.546-6.103-6.858-8.957-12.188-11.104-20.739l-2.194-8.738 1.799-8.574c1.288-6.136 2.846-10.194 5.48-14.27 4.476-6.924 11.006-12.822 18.744-16.928 11.106-5.893 24.45-6.652 38.794-2.207 10.901 3.378 22.903 13.096 27.749 22.47 2.382 4.608 4.638 13.165 5.715 21.677.534 4.23 1.013 30.556 1.063 58.5l.09 50.809 2.097 7c2.378 7.936 7.647 16.335 13.648 21.757 4.674 4.222 13.363 8.783 20.638 10.834 4.238 1.194 41.64 1.409 245.5 1.409h240.5l7.175-2.663c7.64-2.835 16.281-8.62 20.67-13.835 3.903-4.638 7.474-11.055 9.74-17.503l1.991-5.667.391-56.166c.46-66.15.379-65.461 9.332-79.03l5.701-8.64 8.182-5.38 8.181-5.378 9.552-1.8c8.057-1.517 10.688-1.623 16.818-.674 9.094 1.406 21.81 7.654 27.532 13.527 5.703 5.854 10.95 15.626 12.256 22.827.605 3.336.795 8.51.421 11.498-.926 7.417-6.267 18.121-13.331 26.72-5.704 6.944-10.385 14.968-12.34 21.155-.523 1.655-1.29 29.784-1.703 62.509l-.752 59.5-1.908 5.217c-2.74 7.492-9.664 16.472-16.281 21.113-3.145 2.206-8.623 5.06-12.173 6.34l-6.454 2.33-313.5.186-313.5.186zm83.473-80.732c-5.3-1.2-12.493-7.47-15.356-13.384l-2.179-4.5-.155-19.441-.155-19.441 1.786-1.798 1.785-1.797H525.93l1.773 1.774 1.774 1.774-5.158 10.226c-2.838 5.624-5.866 12.976-6.73 16.337-.864 3.362-2.2 10.947-2.97 16.856-.93 7.131-1.953 11.297-3.045 12.388l-1.644 1.645-116.715.151c-69.927.09-118.38-.226-120.869-.79m464.694-1.314c-.973-1.172.577-5.952 8.027-24.75 11.28-28.463 13.478-33.031 15.69-32.606.91.176 1.969 1.442 2.35 2.814.382 1.372.74 9.726.794 18.563.124 19.883-.964 24.392-7.287 30.221-2.411 2.223-5.763 4.755-7.449 5.626-3.847 1.99-10.523 2.062-12.125.132M755 615.96c-6.622-1.577-24.52-4.01-36.344-4.94-6.514-.512-12.398-1.39-13.075-1.953-.678-.562-3.088-4.745-5.356-9.295s-6.141-10.56-8.607-13.356c-6.256-7.095-19.3-15.41-30.118-19.2-4.95-1.733-13.725-3.798-19.5-4.589-5.775-.79-19.275-1.489-30-1.552-10.725-.064-21.898-.388-24.828-.72-6.245-.709-6.463-1.05-8.2-12.855-.648-4.4-1.851-9.575-2.674-11.5-2.343-5.48-3.137-8.646-2.44-9.732.353-.55 2.667-2.023 5.142-3.273 16.713-8.446 33.983-23.632 42.01-36.942 9.193-15.244 12.947-29.656 12.973-49.803L634 423l2-2 2-2 37.75.017c27.549.013 40.057.396 46.286 1.418 17.832 2.924 27.256 6.302 38.139 13.672 12.594 8.529 22.942 20.289 28.063 31.893 2.466 5.587 4.88 14.706 6.736 25.434 1.344 7.771 1.324 36.641-.028 40.25-.58 1.55-3.647 5.516-6.816 8.816-7.45 7.757-10.037 11.38-14.597 20.435-5.2 10.325-8.407 23.735-9.015 37.696-.274 6.292-.78 12.561-1.123 13.93-.344 1.37-1.444 2.93-2.444 3.465-1 .536-1.962.927-2.135.87-.174-.056-1.891-.478-3.816-.936"/><path fill="#DE9787" fill-rule="evenodd" d="M544 706.723c-1.375-.7-2.649-2.314-2.831-3.585-.538-3.76 2.645-16.234 5.915-23.181 4.886-10.379 10.836-18.899 13.7-19.618 1.465-.367 8.832.736 17.47 2.618l14.937 3.253 11.155-.402 11.154-.402 5.002-2.594c2.751-1.427 7.26-5.006 10.018-7.953 4.966-5.305 7.096-9.224 9.658-17.767.727-2.425 2.078-4.877 3.001-5.45 1.194-.741 11.452-.247 35.5 1.711 45.475 3.703 53.044 4.602 55.505 6.595l2.036 1.649-12.71 31.662c-6.99 17.414-13.409 32.242-14.263 32.952-1.234 1.024-18.118 1.34-82.15 1.537-63.669.196-81.122-.02-83.097-1.025m314.247-194.4c-3.556-.73-8.915-6.464-10.129-10.835-.758-2.733-1.109-25.147-1.112-71.238L847 363H737.191c-93.258 0-110.101-.214-111.75-1.42l-1.941-1.419v-11.997c0-6.599.374-12.372.83-12.83.458-.459 3.833-1.059 7.5-1.334l6.67-.5.5-58.215.5-58.215 1.786-1.785c1.514-1.514 3.598-1.785 13.714-1.785s12.2.271 13.714 1.785l1.786 1.785.5 58.193.5 58.192 42-.141c23.1-.078 62.587-.18 87.75-.228L847 333V163H535.047l-.273 78.25-.274 78.25-1.853 2.732c-6.052 8.921-19.242 8.921-25.294 0L505.5 319.5V146.186l3.099-3.843c2.324-2.882 4.324-4.155 8-5.092 3.845-.98 42.067-1.196 177.401-1l172.5.249 3.118 2.224c1.715 1.223 3.965 3.473 5 5l1.882 2.776v356.197l-1.437 2.686c-2.608 4.873-10.676 8.203-16.816 6.94"/><path fill="#6BA0C5" fill-rule="evenodd" d="M594 641.736c-1.925-.582-8.9-2.827-15.5-4.989s-14.475-4.381-17.5-4.934-24.625-1.322-48-1.709l-42.5-.703-7.575-2.539c-6.5-2.178-11.09-4.781-24.542-13.922-1.263-.858-3.183-2.687-4.266-4.064s-6.85-5.93-12.813-10.118c-15.6-10.954-25.985-14.475-45.123-15.3-6.354-.273-11.763-.707-12.02-.964-.256-.256.337-3.878 1.32-8.047 3.294-13.993.615-32.982-6.55-46.426-4.022-7.545-17.05-21.671-24.887-26.985C322.77 493.392 311.307 489 302.631 489c-3.676 0-5.247.602-8.096 3.104L291 495.207v5.674c0 3.575.59 6.516 1.595 7.951 1.64 2.341 9.708 6.365 16.348 8.153 6.145 1.654 17.176 9.53 21.405 15.281 5.516 7.503 9.296 16.136 10.735 24.519.988 5.76.996 8.665.035 13.88-.668 3.626-2.318 8.77-3.667 11.431-1.716 3.387-2.451 6.483-2.451 10.324 0 11.07 3.43 13.572 18.651 13.595 9.843.016 14.699 1.104 10.652 2.389-3.212 1.02-18.602.877-21.342-.198-3.912-1.535-9.76-8.616-10.537-12.76-.732-3.901-.12-6.358 3.97-15.946 2.106-4.94 2.563-7.603 2.582-15.075.019-6.972-.526-10.693-2.351-16.058-1.307-3.841-3.11-8.405-4.008-10.14-2.559-4.949-12.547-14.13-18.854-17.33-3.155-1.602-8.045-3.407-10.866-4.013-9.097-1.95-16.013-10.556-14.512-18.058.33-1.647 1.54-4.317 2.691-5.933 2.31-3.243 8.653-6.893 11.98-6.893 7.352 0 25.337 8.161 36.61 16.613 8.44 6.328 12.822 11.225 18.311 20.466 9.502 15.993 13.026 30.941 10.959 46.476-.684 5.14-.783 8.998-.245 9.536.497.497 5.832 1.378 11.856 1.959 6.024.58 13.878 1.988 17.453 3.127 10.053 3.203 19.24 8.423 27.603 15.687 4.203 3.65 9.162 7.655 11.02 8.9s3.377 2.677 3.377 3.18c0 1.694 14.441 9.86 21.5 12.157l7 2.277 42.5.634c34.834.52 43.402.921 47.5 2.227 2.75.876 7.025 1.908 9.5 2.294 2.475.385 8.775 2.32 14 4.298 7.625 2.888 10.92 3.605 16.692 3.633l7.192.036 3.558-3.446c1.957-1.896 3.558-4.172 3.558-5.059s.707-2.486 1.572-3.554l1.571-1.941-.58 3.416c-.805 4.743-4.71 9.493-9.852 11.982-4.757 2.303-6.468 2.425-11.711.838M254.217 627.75c-.605-.736-1.211-10.508-1.472-23.75l-.445-22.5-2.173-7.321c-3.542-11.932-8.171-19.91-17.23-29.7-11.566-12.499-21.047-18.574-35.038-22.45-4.025-1.116-8.51-2.029-9.966-2.029-4.696 0-5.384-2.02-4.063-11.938 3.124-23.464 14.3-44.237 33.069-61.47 9.335-8.57 21.682-17.1 31.15-21.521 6.371-2.975 21.736-7.824 31.451-9.927 8.919-1.93 14.275-2.37 16.146-1.322l1.826 1.021-2.486.53c-1.367.292-6.536 1.042-11.486 1.668s-11.666 1.805-14.924 2.62c-9.055 2.268-22.813 8.07-31.37 13.232-10.326 6.227-22.226 16.027-25.537 21.031-1.484 2.242-3.081 4.076-3.55 4.076-1.031 0-9.853 13.569-13.495 20.756-4.151 8.192-7.535 19.74-8.232 28.093-.52 6.227-.351 7.94.877 8.96.835.692 4.829 2.171 8.875 3.285 8.167 2.25 22.36 9.476 28.053 14.283 2.034 1.718 5.1 4.194 6.816 5.503 3.908 2.983 12.106 14.52 16.555 23.299 1.862 3.673 4.359 9.973 5.548 14 1.8 6.096 2.24 10.667 2.623 27.321.263 11.416.9 20.536 1.483 21.25.8.978 16.096 1.25 70.329 1.25h69.306l1.572-1.571c2.322-2.322 1.918-6.01-.9-8.228-1.36-1.069-5.522-2.7-9.25-3.624-14.342-3.555-14.789-3.712-13.133-4.639 1.794-1.004 19.016 3.283 22.587 5.623 1.232.807 2.995 2.62 3.919 4.03 2.314 3.532.848 7.397-3.663 9.657l-3.489 1.749-69.628.001c-54.488.002-69.85-.27-70.655-1.248m358.527-8.25c-2.358-4.48-8.569-10.028-14.588-13.032-8.972-4.478-17.551-5.395-50.875-5.433L517.06 601l-7.658-2.5c-4.212-1.375-8.29-2.5-9.064-2.5-.773 0-3.673-1.15-6.445-2.554-3.894-1.973-5.473-3.508-6.945-6.75-2.318-5.105-2.442-8.842-.423-12.746.839-1.622 1.626-2.951 1.75-2.952.123-.001.078 3.074-.102 6.833l-.325 6.836 2.734 3.25c3.338 3.966 11.563 7.738 19.785 9.073 3.373.547 18.282 1.002 33.132 1.01 14.85.01 31.01.476 35.91 1.037 10.521 1.205 20.38 5.019 27 10.443 4.953 4.059 9.006 9.783 8.334 11.772-.236.699-1.116-.072-2-1.752m50.756-11.124c-6.05-.654-13.776-1.23-17.168-1.282-3.393-.052-6.878-.366-7.745-.7-.868-.332-2.535-2.308-3.705-4.39s-4.097-5.432-6.505-7.445S624 590.18 624 589.3v-1.603l10.25.63c5.638.345 12.674 1.35 15.637 2.23 7.765 2.31 15.832 6.866 21.89 12.364 3.934 3.569 4.953 5.025 4 5.716-.791.575-5.457.476-12.277-.26m5-4.828c0-2.814-6.851-7.231-14.673-9.46-3.67-1.047-10.083-2.222-14.25-2.613l-7.577-.71.005 2.868c.003 1.87 1.201 4.17 3.449 6.617l3.444 3.75 5.801.088c3.19.048 8.051.448 10.801.889 2.75.44 6.8.738 9 .662 3.253-.113 4-.503 4-2.091m-146-29.442c-7.045-2.057-21.53-9.23-19.825-9.818.647-.223 3.122.59 5.5 1.805 2.379 1.216 7.65 3.267 11.714 4.559 6.014 1.911 9.573 2.348 19.128 2.348 9.157 0 12.009-.326 12.97-1.484.977-1.178.922-4.056-.27-13.97-.994-8.284-2.147-13.592-3.422-15.767l-1.923-3.279-4.936.061c-2.715.033-9.93.662-16.034 1.397-10.905 1.312-17.068.929-15.884-.987.33-.534 4.061-.99 8.291-1.014s12.191-.871 17.691-1.883c10.317-1.898 11.548-1.721 13.51 1.944 1.888 3.528 5.187 17.847 6.076 26.372.664 6.369.607 9.276-.202 10.25-1.747 2.105-24.638 1.727-32.384-.534m-33.5-5.003c0-1.262 5.418-5.11 7.154-5.08.758.012.254.898-1.154 2.028-3.787 3.04-6 4.165-6 3.052m4-30.758c-19.965-5.087-35.971-11.813-49.42-20.766-16.595-11.047-30.656-26.455-38.113-41.763-3.724-7.646-5.868-14.923-9.216-31.289-.624-3.046-1.739-4.613-4.782-6.72-4.314-2.986-22.14-10.844-31.271-13.785-12.446-4.009-32.24-8.008-39.78-8.037-2.155-.009-4.518-.396-5.252-.861-2.3-1.458 1.698-2.278 7.787-1.596 7.169.802 23.415 4.16 28.547 5.902 2.2.746 7.825 2.564 12.5 4.039 9.812 3.097 32.804 14.275 33.967 16.515.434.834 1.11 5.03 1.501 9.323 1.259 13.779 9.264 32.269 19.456 44.939 13.362 16.609 33.86 29.547 59.604 37.622 7.135 2.237 14.997 4.336 17.472 4.663 7.422.981 9.112 1.48 8.482 2.498-.788 1.276-4.707 1.042-11.482-.684m17.244-25.01c-.691-.278-1.002-.917-.691-1.42.31-.503 3.801-.924 7.756-.935 3.955-.01 10.118-.443 13.695-.96 9.761-1.414 23.489-5.61 32.755-10.012 14.756-7.011 23.825-14.393 30.713-24.997 5.94-9.147 6.616-10.588 8.67-18.493 2.282-8.782 2.433-24.637.33-34.703-.841-4.023-3.328-12.885-5.527-19.692-2.355-7.29-3.737-13.202-3.363-14.383.505-1.59.818-1.718 1.512-.622.481.76.882 2.411.89 3.67.01 1.257 2.033 8.232 4.498 15.5 8.145 24.014 8.397 40.835.873 58.35-3.034 7.061-5.103 10.076-11.708 17.054-4.413 4.661-10.751 10.41-14.085 12.776-8.292 5.882-20.958 12.075-29.747 14.544-12.44 3.494-32.69 5.888-36.571 4.324M497 511.443c-16.315-3.158-27.65-8.74-47.162-23.223-7.344-5.451-17.858-21.447-21.456-32.64-2.052-6.387-2.609-10.174-2.657-18.079-.045-7.324.491-11.873 2.004-17 1.136-3.85 3.004-10.375 4.151-14.5l2.086-7.5.017-30.595.017-30.595 1.974-1.787 1.975-1.787 2.775 1.768c3.504 2.232 15.117 12.705 25.098 22.634 4.223 4.201 10.091 9.264 13.04 11.25l5.362 3.612h7.438c5.197 0 8.401-.527 10.638-1.75 2.446-1.337 5.44-1.734 12.7-1.68 5.792.042 11.707.725 15.154 1.75 3.34.992 9.068 1.677 14 1.672l8.346-.008 4.66-2.742c5.052-2.972 7.605-5.92 19.801-22.864 5.346-7.427 9.001-11.534 11.004-12.364 3.353-1.388 5.78-.84 6.681 1.506.802 2.09-.381 3.145-1.863 1.663-1.976-1.976-5.266-1.334-8.021 1.567-1.437 1.512-5.74 7.25-9.56 12.75-3.822 5.5-8.918 11.913-11.325 14.251-5.392 5.237-11.716 8.437-17.775 8.994-2.586.237-8.743-.49-14.055-1.661-11.262-2.483-22.15-2.635-31.047-.435-3.575.884-8.59 1.66-11.145 1.724-3.797.096-5.53-.512-9.5-3.33-8.184-5.814-15.261-12.07-26.434-23.37l-10.706-10.827-2.857.327-2.858.327-.603 29c-.332 15.95-1.093 31.025-1.691 33.5s-2.264 8.528-3.701 13.452c-3.533 12.104-4.341 25.718-2.114 35.62 3.254 14.465 7.376 21.937 18.609 33.733 6.515 6.842 11.836 10.626 22.57 16.052 8.238 4.164 16.026 6.955 25.43 9.111 7.195 1.65 9.592 2.56 8.44 3.206-.517.289-3.865-.04-7.44-.732m11.5-15.104c-1.65-.87-4.012-2.505-5.25-3.634-1.789-1.632-2.25-3.132-2.25-7.32 0-2.896.479-5.562 1.064-5.923.719-.445.849.487.4 2.875-.807 4.305 1.022 10.318 3.55 11.672 1.077.576 11.759.992 25.466.992h23.61l2.455-2.455c1.946-1.945 2.455-3.481 2.455-7.41v-4.957l-3.077-2.59c-2.387-2.008-4.167-2.588-7.94-2.588-2.676 0-5.19-.524-5.585-1.166-.419-.677.404-2.062 1.965-3.306 2.066-1.647 2.826-3.328 3.294-7.28l.608-5.136-3.055-3.056-3.056-3.056h-22.245l-2.575 2.575-2.574 2.574.478 4.972c.354 3.691 1.208 5.735 3.313 7.932 1.755 1.832 2.476 3.308 1.892 3.873-.518.502-3.868 1.086-7.443 1.298-3.575.213-7.4.739-8.5 1.169-1.498.586-1.296.134.806-1.805 1.694-1.563 3.972-2.588 5.75-2.588 2.453 0 2.944-.406 2.944-2.435 0-1.34-.437-3.583-.97-4.987-1.4-3.682 1.918-10.966 6.18-13.565 2.693-1.642 5.045-2.006 12.963-2.01l9.674-.003 2.957 2.488c1.626 1.369 3.738 4.134 4.692 6.146l1.736 3.657-1.616 3.388c-.889 1.864-1.616 4.054-1.616 4.868 0 .824 2.35 2.517 5.311 3.827l5.311 2.349 1.77 4.631c1.437 3.764 1.56 5.26.659 7.992-1.29 3.906-4.378 7.076-8.366 8.587-1.662.63-10.88 1.05-22.5 1.027-15.961-.033-20.253-.34-22.685-1.622m-25-46.791c-2.2-.81-4.754-2.398-5.676-3.529s-2.422-4.303-3.334-7.048l-1.658-4.992 2.134-4.409c3.82-7.891 12.078-12.043 19.219-9.662 4.33 1.444 10.649 7.49 11.394 10.902.324 1.48.785 3.316 1.026 4.08.736 2.33-3.606 10.01-7.214 12.762-4.16 3.172-10.398 3.917-15.891 1.896m77.5-.67c-3.883-1.549-7.06-4.961-9.187-9.865-1.323-3.052-1.745-5.56-1.317-7.84.81-4.317 7.628-11.728 12.17-13.227 7.761-2.561 17.658 3.729 20.431 12.984l1.214 4.054-1.714 3.758c-2.01 4.407-5.458 8.58-8.386 10.146-2.533 1.356-9.8 1.35-13.21-.01m-61.355-4.056c4.758-4.757 5.52-10.15 2.293-16.232-1.28-2.413-3.547-5.108-5.037-5.989-3.197-1.888-10.474-2.044-13.626-.293-1.224.68-3.361 2.777-4.75 4.66-1.897 2.57-2.525 4.65-2.525 8.359v4.937l4.493 4.493 4.493 4.493 5.578-.463c4.73-.392 6.112-.995 9.081-3.965m75.414.642c2.21-1.395 4.451-3.675 4.98-5.065 1.418-3.73 1.169-10.096-.524-13.369-2.393-4.628-6.62-7.029-12.372-7.029-2.777 0-6.138.496-7.47 1.103-3.655 1.666-6.68 7.83-6.638 13.533.02 2.675.636 5.947 1.37 7.27 1.85 3.341 7.288 6.002 12.365 6.052 2.903.029 5.556-.77 8.289-2.495m-270.31-32.126c.688-.278 1.813-.278 2.5 0 .688.277.125.504-1.25.504s-1.937-.227-1.25-.504m464.418-83.025c-.643-1.2-1.198-2.999-1.234-3.997-.037-.999-.886-4.291-1.887-7.316l-1.82-5.5 1.541-1.75c1.28-1.454 3.286-1.75 11.84-1.75 6.101 0 11.422.51 13.055 1.25l2.757 1.25-12.46.5-12.46.5-.323 2.815c-.177 1.548.435 5.223 1.361 8.167 1.84 5.85 1.606 9.525-.37 5.831m24.471.993c-.932-.932-.753-8.578.237-10.14.675-1.064.975-.997 1.485.332.934 2.434.78 9.296-.222 9.916-.473.292-1.148.244-1.5-.108m-199.004-23.379L592 305.855v-84.946l2.455-2.454 2.454-2.455h6.923c4.934 0 7.28.431 8.168 1.5.685.825.852 1.525.372 1.556-.48.03-4.472.143-8.872.25l-8 .194-.261 42.384c-.192 31.195.048 42.756.907 43.792.84 1.01 3.022 1.326 7.736 1.116l6.567-.292 1.26-2.5 1.262-2.5.014 2.693c.022 3.89-3.305 5.807-10.073 5.807-4.194 0-6.319-.532-8.277-2.073"/><path fill="#A07757" fill-rule="evenodd" d="M378.166 799.124c-1.064-.675-.997-.975.332-1.485 2.177-.835 287.827-.835 290.004 0 1.329.51 1.396.81.332 1.485-1.744 1.105-288.924 1.105-290.668 0m-221.434-41.38c-.301-.784-.201-1.985.221-2.669.593-.958.894-.917 1.315.182.301.783.201 1.984-.221 2.668-.593.958-.894.917-1.315-.182m121.434-13.62c-1.064-.675-.997-.975.332-1.485 2.526-.97 461.803-.734 463.336.237 1.064.675.997.975-.332 1.485-2.526.97-461.803.734-463.336-.237m2-27c-1.064-.675-.997-.975.332-1.485 2.177-.835 228.827-.835 231.004 0 1.329.51 1.396.81.332 1.485-1.744 1.105-229.924 1.105-231.668 0m579.473-13.622c-.954-2.486-.742-35.79.237-37.336 1.64-2.588 2.124 1.806 2.109 19.166-.015 16.215-.79 22.223-2.346 18.17m-633-11c-.833-2.172-.833-39.832 0-42.004 1.612-4.2 2.33 2.273 2.33 21.002s-.718 25.203-2.33 21.002m535.988-24.554c-1.363-6.536-1.645-15.045-.567-17.06.922-1.722 1.332-1.878 2.032-.773 1.162 1.834 1.13 16.985-.039 18.833-.724 1.145-1.022.935-1.426-1m.53-59.948c0-1.375.228-1.937.505-1.25.278.688.278 1.813 0 2.5-.277.688-.504.125-.504-1.25M620.75 560.338c.688-.278 1.813-.278 2.5 0 .688.277.125.504-1.25.504s-1.937-.227-1.25-.504m-445.584-14.214c-1.074-.68-1.025-.964.25-1.453.871-.335 2.297-.335 3.168 0 1.275.489 1.324.772.25 1.453-.734.465-1.559.845-1.834.845s-1.1-.38-1.834-.845m687.334-35.06c2.2-.378 5.512-1.484 7.36-2.458s3.03-1.238 2.628-.587c-1.145 1.854-7.088 3.994-10.706 3.856l-3.282-.125zm12.182-10.716c-1.041-1.04-.829-350.14.213-350.783.493-.305 1.168.156 1.5 1.023.919 2.394.693 347.726-.229 349.177-.441.696-1.11.958-1.484.583m-249.047-139.42L623 358.854l.015-9.678c.009-5.322.428-10.329.932-11.125.726-1.148 1.033-.941 1.484 1 .313 1.346.682 6.498.82 11.448l.249 9 109.917.5c86.687.394 110.005.764 110.333 1.75.332.995-21.918 1.25-109.032 1.25H628.27zm201.531-25.784c-2.261-1.467 1.21-2.144 11-2.144 6.755 0 8.897.312 8.586 1.25-.28.849-3.276 1.332-9.333 1.505-4.905.14-9.52-.135-10.253-.611m-321.561-19.732c-.79-2.06-.79-162.765 0-164.824.332-.867 1.007-1.328 1.5-1.023 1.187.733 1.187 166.137 0 166.87-.493.305-1.168-.156-1.5-1.023m27.062.921c-.367-.366-.667-34.587-.667-76.045v-75.379l2.458-2.458 2.457-2.457 154.71.253c122.489.2 154.795.513 155.124 1.5.33.991-31.495 1.299-155.417 1.5L535.5 163.5l-.5 76.167c-.275 41.892-.763 76.43-1.083 76.75-.321.32-.884.283-1.25-.084M517 138.107c0-.491.712-1.166 1.582-1.5 2.064-.792 341.766-.794 343.83-.002.867.332 1.328 1.007 1.023 1.5-.735 1.19-346.435 1.192-346.435.002"/><path fill="#48749D" fill-rule="evenodd" d="M595.5 642.313c-1.1-.25-6.5-1.998-12-3.882s-16.3-4.681-24-6.214l-14-2.788-22 .357c-12.1.196-25.375.362-29.5.368-24.789.036-42.767-5.276-53.68-15.862-2.101-2.038-5.733-4.952-8.07-6.476s-4.25-3.125-4.25-3.557c0-1.268-10-8.633-16.5-12.152-11.623-6.293-14.981-7.173-29.83-7.814-10.237-.441-14.214-.98-15.306-2.072-1.122-1.122-1.324-2.824-.841-7.098.349-3.093 1.092-7.11 1.652-8.929.593-1.93.724-6.22.314-10.307-.742-7.39-6.098-24.003-9.434-29.268-1.088-1.715-2.87-4.738-3.959-6.717-3.022-5.488-16.343-17.346-24.615-21.913-7.607-4.199-18.253-8.308-24.57-9.483-4.469-.832-10.128 1.369-12.387 4.817-.936 1.428-1.715 4.909-1.828 8.162l-.196 5.672 3.203 2.865c1.852 1.658 6.155 3.745 10.209 4.952 3.853 1.147 8.262 3.136 9.797 4.42 1.535 1.282 3.74 2.629 4.898 2.991 1.159.362 5.018 3.462 8.576 6.887 5.21 5.016 7.134 7.785 9.888 14.228l3.42 8 .14 10c.088 6.334-.323 10.916-1.123 12.5-2.019 3.998-3.856 12.005-4.279 18.644l-.39 6.144 2.83 3.16c1.725 1.923 4.395 3.517 6.831 4.075 2.2.505 8.275.658 13.5.342 7.384-.448 11.737-.122 19.544 1.466 12.009 2.443 20.523 5.481 22.987 8.203 2.48 2.74 2.295 7.585-.392 10.272l-2.195 2.194H257.071l-1.785-1.784-1.786-1.784-.654-21.716c-.36-11.944-1.112-23.454-1.67-25.578-2.006-7.627-5.672-16.243-9.418-22.138-2.098-3.3-4.589-7.308-5.536-8.907-2.157-3.64-3.192-4.608-11.222-10.487-8.952-6.554-18.373-11.592-25.5-13.637-3.3-.947-8.025-2.53-10.5-3.517l-4.5-1.796-.5-4.828c-.275-2.655.098-7.078.828-9.828s1.937-7.479 2.682-10.509 2.23-7.553 3.302-10.051c4.727-11.028 18.875-29.848 27.997-37.243 17.283-14.01 27.42-19.865 43.691-25.239 10.794-3.564 23.132-5.74 28.224-4.977 3.49.524 4.87.292 6.377-1.073l1.924-1.74 13.737 1.127c16.516 1.356 24.306 2.467 31.407 4.477 22.876 6.477 25.118 7.277 37.331 13.314 9.795 4.842 12.524 6.36 14.732 8.191 1.418 1.178 3.04 7.322 4.279 16.223.901 6.471 3.285 13.548 7.073 21 4.629 9.105 7.978 13.813 16.39 23.038 12.252 13.439 32.636 25.865 54.026 32.933 8.602 2.843 24.406 5.997 26.848 5.358 1.217-.318 4.295.218 6.84 1.19 3.659 1.397 5.278 1.546 7.721.712 1.7-.58 6.241-1.355 10.091-1.721s8.95-1.144 11.333-1.728l4.332-1.061 1.762 1.89c3.423 3.67 6.094 11.98 6.138 19.1.026 4.15.658 7.987 1.625 9.87l1.582 3.08-1.386 2.877c-.762 1.583-2.511 3.19-3.886 3.57-1.375.381-6.84.737-12.145.792-7.212.075-11.373-.433-16.5-2.015-3.77-1.163-9.43-3.413-12.576-5-5.583-2.815-10.692-3.55-15.574-2.243-5.482 1.469-8.15 14.655-4.257 21.04l1.94 3.181 11.306 3.67L514.5 598.2l34 .336 34 .335 6.556 1.938c3.605 1.066 8.098 2.735 9.983 3.71C603.653 606.905 614 616.104 614 617.82c0 .757.702 2.857 1.56 4.665l1.561 3.289-1.51 3.612c-2.434 5.827-6.428 10.323-10.683 12.025-3.972 1.59-5.684 1.753-9.428.9m62-34.442c-2.75-.474-8.122-1.096-11.938-1.381-4.564-.342-7.587-1.108-8.835-2.237-3.652-3.305-8.876-11.243-8.541-12.98.243-1.264 1.724-1.95 5.326-2.467 10.591-1.52 28.46 4.464 36.702 12.29 2.098 1.991 3.786 4.555 3.786 5.75V609l-5.75-.134c-3.163-.073-8-.521-10.75-.995m-150.894-94.599c-.216-.216-3.359-.813-6.983-1.326-7.019-.994-20.612-5.36-27.158-8.723-12.497-6.42-22.257-13.544-23.087-16.852-.34-1.356-1.338-2.371-2.331-2.371-1.862 0-5.047-2.974-5.047-4.714 0-.58-1.057-1.749-2.35-2.595-3.57-2.34-10.115-16.066-12.655-26.537-3.023-12.468-2.358-20.624 2.997-36.706l3.978-11.948.021-11.5c.015-8.222.447-12.316 1.515-14.364 1.79-3.433 1.869-5.063.358-7.483-.87-1.392-.732-3.796.585-10.236 2.054-10.041 2.093-11.126.614-16.826-.832-3.204-.844-4.708-.046-5.5 1.591-1.58 9.918 3.27 12.748 7.424 1.246 1.829 3.562 4.114 5.147 5.078 1.632.992 3.384 3.275 4.04 5.262.86 2.605 1.88 3.669 3.957 4.125 1.539.338 5.226 2.767 8.194 5.398 8.258 7.32 13.686 10.122 19.61 10.122 2.77 0 6.868-.646 9.107-1.436 5.762-2.033 23.136-2.186 31.18-.274 3.575.85 9.288 1.848 12.696 2.22l6.196.674 4.829-2.629c2.656-1.445 6.393-4.16 8.304-6.035 7.338-7.194 9.975-10.287 9.975-11.703 0-.808 1.164-2.56 2.587-3.893s3.185-3.85 3.916-5.594c1.453-3.468 4.962-6.004 5.995-4.333.341.552 1.493 1.003 2.561 1.003 1.274 0 1.941-.687 1.941-2 0-1.44.667-2 2.378-2 4.904 0 5.117 1.267 5.195 30.909l.073 27.591 1.767 4.5c.972 2.475 2.216 6.3 2.765 8.5a255 255 0 0 0 2.324 8.5c1.977 6.711 2.565 10.598 3.05 20.192.356 7.031-.024 10.429-1.99 17.777-2.443 9.126-4.566 13.526-8.786 18.208-1.252 1.389-3.344 4.604-4.65 7.144-1.646 3.205-4.708 6.412-10 10.472-4.194 3.22-10.101 7.23-13.126 8.913-6.62 3.684-20.434 8.757-28 10.283-3.025.61-7.75 1.56-10.5 2.11-5.053 1.01-23.168 1.9-23.894 1.173m12.22-15.497c1.812-1.813 12.16-1.783 15.358.045 2.096 1.197 2.999 1.273 4.116.346.786-.653 4.753-1.604 8.814-2.114l7.384-.927 3.364-3.671 3.364-3.672-.567-3.497c-.891-5.491-3.187-8.137-8.145-9.386-2.45-.617-5.011-1.793-5.692-2.614-.998-1.202-.907-2.072.47-4.47.94-1.637 1.708-4.313 1.708-5.946 0-3.625-2.35-8.405-4.545-9.248-.89-.341-6.492-.621-12.448-.621h-10.83l-2.588 3.077c-3.012 3.58-3.396 8.461-1.026 13.044 2.048 3.962.73 5.563-5.332 6.472-2.776.416-5.524 1.609-6.918 3.003-1.78 1.78-2.31 3.417-2.298 7.109.009 2.637.348 5.318.755 5.956 1.156 1.818 10.555 8.121 12.28 8.236.853.057 2.101-.448 2.775-1.122m-19.533-51.79c5.5-4.327 6.002-14.98.953-20.25-3.174-3.313-8.97-5.065-13.778-4.163-1.926.361-4.81 1.878-6.407 3.371-5.25 4.904-5.281 14.99-.064 20.207l2.85 2.85h6.941c5.446 0 7.495-.434 9.505-2.016m76.913-.671c3.609-3.266 5.05-7.293 4.534-12.664l-.482-5.02-4.09-3.815-4.09-3.815h-4.891c-6.11 0-10.935 2.991-13.6 8.431l-1.912 3.905 1.222 4.569c1.404 5.249 2.968 7.259 7.428 9.546 4.071 2.088 13.025 1.447 15.88-1.137M772.08 335.735c-1.91-.975-2.8-2.813-4.234-8.735-.998-4.125-1.821-8.412-1.83-9.527-.01-1.116.684-3.028 1.54-4.25l1.556-2.223h11.789c9.983 0 12.02.268 13.302 1.75 1.151 1.331 1.487 4.136 1.405 11.72l-.109 9.97-2.5 1.265c-3.214 1.627-17.75 1.648-20.919.03m7.312-16.317c.334-.87.607-2.445.607-3.5 0-1.529-.717-1.918-3.531-1.918-4.23 0-5.508 2.194-2.935 5.037 2.14 2.366 5.025 2.554 5.859.381m-182.726-11.085c-.367-.366-.667-1.568-.667-2.67 0-1.103-.758-2.843-1.685-3.867l-1.685-1.862-.257-34.217c-.141-18.82.054-37.367.435-41.217l.692-7 9.5.344c6.52.236 9.97.796 11 1.785 1.265 1.215 1.546 6.875 1.795 36.156.162 19.093.007 38.02-.344 42.06-.856 9.837-2.19 11.155-11.284 11.155-3.759 0-7.134-.3-7.5-.667"/><path fill="#47704C" fill-rule="evenodd" d="M0 512V0h1024v1024H0zm248.282 364.653c5.1-2.135 10.419-8.793 12.273-15.362 5.642-19.994 10.508-34.783 11.903-36.177l1.613-1.614h470.106l1.695 2.093c.932 1.151 3.839 9.251 6.46 18s5.474 17.867 6.34 20.262c1.961 5.427 6.782 11.019 11.03 12.794 2.285.955 8.213 1.351 20.2 1.351 9.592 0 18.192-.464 19.783-1.067 4.003-1.516 7.29-4.805 9.425-9.433l1.846-4 .022-18.559c.016-13.27.378-19.03 1.272-20.211.764-1.01 3.931-2.073 8.146-2.734 14.985-2.35 25.195-7.818 36.718-19.667 8.924-9.175 13.94-18.257 16.896-30.589l1.976-8.24.022-52c.018-42.876.287-53.127 1.535-58.42 1.185-5.026 3.003-8.504 8.366-16 8.927-12.481 12.422-18.916 15.249-28.08 1.9-6.16 2.311-9.734 2.3-20-.017-14.472-1.369-20.115-7.783-32.5-3.091-5.969-6.313-10.158-12.688-16.5-9.69-9.64-16.845-13.776-29.487-17.044-6.783-1.754-10.47-2.027-24.235-1.797-12.05.202-16.56-.054-17.5-.992-.897-.896-1.438-7.285-1.859-21.965-.482-16.816-1.008-22.275-2.804-29.083-2.4-9.093-8.175-21.405-14.13-30.119-5.236-7.662-20.075-21.834-28.674-27.385-8.754-5.652-20.067-10.593-31.358-13.697l-8.44-2.32-53.716-.549-53.715-.549-1.785-1.786-1.784-1.785V364.07l1.786-1.785 1.786-1.786h219.857l1.785 1.785 1.786 1.786.27 70.392.27 70.392 3.056 2.573c2.473 2.08 4.108 2.572 8.558 2.572h5.5l2.923-2.923 2.923-2.923V146.445l-1.56-2.228c-.86-1.226-2.862-2.9-4.451-3.723l-2.89-1.494H514.8l-3.4 3.4-3.4 3.4v173.755l1.56 2.228c3.397 4.85 10.89 6.587 16.312 3.783 5.951-3.077 5.585 1.899 6.128-83.184l.5-78.311 1.786-1.786 1.785-1.785H846.93l1.785 1.786 1.786 1.785V331.93l-1.786 1.785c-1.471 1.472-3.923 1.85-13.932 2.147l-12.147.36-1.317-1.801c-.976-1.335-1.318-6.516-1.318-19.963v-18.161l-2.274-3.374c-1.25-1.856-3.792-4.398-5.648-5.648L808.704 285l-23.102-.1c-12.706-.055-24.22-.41-25.587-.791-1.367-.38-3.04-1.798-3.717-3.15-.678-1.353-4.88-14.609-9.34-29.459-12.711-42.33-14.98-49.238-17.319-52.707-1.202-1.785-3.705-4.269-5.56-5.52L720.703 191h-38.408l-3.306 2.25c-5.2 3.538-7.282 7.11-8.076 13.85-.412 3.493-1.427 6.842-2.355 7.77-1.325 1.325-3.864 1.63-13.559 1.63-9.65 0-12.237-.309-13.545-1.616-.941-.941-1.972-4.485-2.468-8.49l-.853-6.874-4.509-4.26-4.509-4.26h-25.124c-16.608 0-25.864.38-27.308 1.122-2.825 1.452-7.535 5.826-9.02 8.378-.833 1.43-1.306 18.537-1.664 60.085l-.5 58.085-8.836 11.588c-4.86 6.373-9.634 12.31-10.61 13.194-2.08 1.881-1.365 1.854-29.054 1.107-11.825-.32-22.74-.576-24.255-.57-2.218.009-6.31-3.422-21-17.606-10.035-9.69-20.495-18.91-23.245-20.49l-5-2.874-9.79-.01c-7.756-.007-10.586.397-13.624 1.947-4.131 2.108-8.628 6.877-10.36 10.988-.686 1.627-1.286 19.131-1.652 48.154-.453 35.999-.856 45.939-1.915 47.212l-1.341 1.614-11.764-5.897c-6.47-3.244-16.27-7.466-21.776-9.382-22.578-7.86-47.736-11.405-72.487-10.218-16.649.798-28.066 2.568-41.291 6.4-25.512 7.391-43.983 18.37-62.06 36.891-4.983 5.105-9.55 9.282-10.147 9.282-1.608 0-6.552-5.961-10.13-12.214C168.14 415.51 164 400.022 164 386.022c0-10.43 3.202-25.426 7.343-34.39 4.565-9.878 12.244-20.939 19.313-27.818 7.704-7.495 21.562-16.058 31.14-19.24 9.204-3.058 24.927-5.56 34.986-5.568 8.142-.007 13.216-1.685 17.557-5.809 3.827-3.635 5.425-6.936 6.205-12.816.893-6.733-.912-12.673-5.348-17.598-5.68-6.306-10.213-7.843-25.011-8.48-20.53-.885-38.204 2.115-54.423 9.237-15.703 6.896-26.67 14.518-40.239 27.965-4.631 4.59-11.185 12.074-14.563 16.63-7.957 10.732-17.238 29.767-20.413 41.865-4.603 17.542-5.645 36.086-3.09 55 .78 5.775 2.568 13.99 3.973 18.256 3.08 9.353 9.504 22.416 14.38 29.244 1.965 2.75 8.717 10.254 15.005 16.677l11.434 11.676-.519 2.824c-.285 1.552-1.233 5.973-2.107 9.823-.873 3.85-1.596 10.195-1.606 14.1-.01 3.906-.502 8.493-1.095 10.193-.903 2.593-2.187 3.516-7.951 5.718-15.72 6.007-29.651 18.446-37.33 33.333-6.102 11.828-7.641 18.439-7.641 32.82 0 8.859.515 13.736 2.028 19.195 2.636 9.511 5.414 14.867 13.068 25.19 7.31 9.86 9.56 13.515 11.141 18.105.788 2.288 1.352 21.846 1.783 61.846.69 64.013.398 60.936 7.011 74.086 2.243 4.459 6.006 9.19 12.347 15.525 7.212 7.203 10.723 9.877 16.768 12.77 4.205 2.012 11.553 4.489 16.329 5.503s9.435 2.596 10.354 3.514c1.407 1.404 1.75 4.707 2.171 20.885.522 20.077 1.11 22.87 5.648 26.844 4.97 4.353 7.25 4.792 25.134 4.833 12.31.028 18.208-.348 20.5-1.307M699 336.335c-3.985-1.501-4-1.734-3.985-59.776.011-43.188.305-56.633 1.28-58.559 1.025-2.028 2.006-2.5 5.196-2.5s4.172.472 5.2 2.5c.698 1.375 7.393 22.3 14.877 46.5s15.426 49.77 17.649 56.821c3.098 9.832 3.766 13.097 2.864 14-.812.813-7.444 1.241-21.379 1.379-11.111.11-20.877-.054-21.702-.365"/><path fill="#436F97" fill-rule="evenodd" d="M601.128 635.655c-.614-.74-1.413-2.828-1.775-4.64-.494-2.472-.063-4.384 1.729-7.664l2.387-4.37-1.282-2.053c-2.76-4.42 2.067-8.818 5.885-5.363 1.06.96 1.928 3.025 1.928 4.59 0 2.193.466 2.845 2.031 2.845 2.451 0 3.679 2.66 2.256 4.886-.716 1.12-2.144 1.513-4.66 1.286l-3.627-.328v2.578c0 2.026.494 2.578 2.309 2.578 1.27 0 3.176.634 4.237 1.41l1.927 1.41-1.891 2.09c-1.35 1.491-3.101 2.09-6.115 2.09-2.322 0-4.725-.605-5.339-1.345M481 629.999c-.825-.533-2.907-.975-4.628-.984-1.72-.008-3.638-.63-4.262-1.382-.866-1.043-.757-1.681.458-2.69.876-.726 3.019-1.348 4.762-1.382l3.17-.061.793-5c.436-2.75.926-6.24 1.089-7.755s.698-2.64 1.19-2.5c.493.14.757 1.07.589 2.065s.115 2.345.63 3c1.632 2.073 2.264 11.977.933 14.611-1.445 2.858-2.676 3.4-4.724 2.078m22.122.097c-.758-.48-1.052-1.4-.654-2.045.399-.644.166-2.52-.516-4.167-.932-2.249-.956-3.28-.096-4.14.629-.629 1.144-1.954 1.144-2.944 0-1.21-.738-1.79-2.25-1.768-4.25.06-7.643 4.68-4.75 6.468 1.71 1.057 1.097 3.5-.878 3.5-2.483 0-4.319-2.324-3.506-4.44.357-.933.048-2.819-.687-4.192-1.134-2.12-1.116-2.644.117-3.462 1.443-.956 4.38-.748 8.704.617l2.25.71v-3.425c0-1.884.675-4.3 1.5-5.367l1.5-1.941 1.5 1.941c1.936 2.505 1.92 7.514-.032 10.301l-1.532 2.187 1.647 5.036c1.288 3.937 2.113 5.042 3.782 5.067l2.135.032-1.941 1.468c-2.17 1.641-5.355 1.883-7.437.564m73.693-.95c-.75-1.071-2.478-2.105-3.84-2.297l-2.475-.349v-8.889l-2.5-.706c-1.375-.388-3.575-.75-4.89-.805l-2.39-.1.566 5.486c.611 5.92-.648 8.107-2.897 5.032-.719-.984-1.602-3.752-1.962-6.153l-.654-4.365h-6.358l-1.208-4.514c-1.528-5.713-1.53-8.763-.007-10.286.66-.66 3.27-1.2 5.8-1.2s5.14.54 5.8 1.2 1.2 2.82 1.2 4.8.54 4.14 1.2 4.8c1.386 1.386 5.679 1.563 7.649.315.893-.567 1.23-2.325 1-5.214-.291-3.634-.035-4.42 1.543-4.73l1.891-.372-.502 9.6-.502 9.601h2.801c1.541 0 3.122.518 3.514 1.152 1.166 1.887.995 7.946-.254 8.982-.786.652-1.6.334-2.525-.987m8.738.94a1.117 1.117 0 0 1 .362-1.533 1.117 1.117 0 0 1 1.532.362c.322.52.16 1.21-.362 1.532-.52.322-1.21.16-1.532-.362m-72.396-9.336c.085-3.987.059-9.594-.059-12.458-.349-8.518 3.04-12.063 6.494-6.792 1.373 2.095 2.42 2.5 6.464 2.5 4.94 0 7.51 1.56 4.257 2.586-.997.314-3.007 1.21-4.467 1.992S522.504 610 521.663 610c-2.15 0-2.947 3.3-2.166 8.976.567 4.127.354 5.173-1.415 6.942-1.145 1.145-2.757 2.082-3.581 2.082-1.209 0-1.47-1.405-1.344-7.25m29.643 4.71c-1.287-2.823-.174-7.506 1.95-8.212.85-.282 1.25.77 1.25 3.285v3.7l2.524-.482c3.46-.662 3.974.693 1.003 2.64-3.466 2.27-5.39 2.004-6.727-.931m-183.59-1.33c-1.808-.346-3.293-1.08-3.298-1.63-.006-.55 2.6-1.383 5.79-1.85 8.49-1.245 8.616-1.315 7.99-4.415-.304-1.504-.834-3.464-1.18-4.356-.35-.907.09-2.339 1.002-3.25 2.08-2.08 3.486-2.079 3.486.002 0 1.3.698 1.517 3.438 1.073 2.323-.377 3.822-.095 4.623.869.682.822 2.966 1.427 5.387 1.427 4.368 0 6.237 1.358 9.815 7.135 1.88 3.035 1.315 4.243-1.238 2.648-.968-.604-2.5-.815-3.403-.468-.904.347-1.96.755-2.346.908-.387.152-.72-1.073-.74-2.723l-.036-3-3.825-.315-3.824-.315.324 4.23.325 4.23-9.5.215c-5.225.118-10.98-.068-12.79-.415m103.94-.08c.43-1.29 1.801-1.52 1.925-.325.041.399-.465.905-1.125 1.125s-1.02-.14-.8-.8m65.077-.3c-1.216-1.494-.134-9.25 1.29-9.25.54 0 1.123 1.211 1.294 2.691.255 2.214.876 2.746 3.5 3 1.754.17 3.189.688 3.189 1.152s-1.8 1.47-4 2.235c-2.2.766-4.057 1.399-4.128 1.407s-.585-.548-1.145-1.235m-267.786-.845c-.372-.603-.12-2.137.561-3.41 1.026-1.916.96-2.71-.382-4.627-1.976-2.822-2.116-8.212-.253-9.758 2.517-2.088 3.54 1.028 3.342 10.18-.13 6.01-.56 8.71-1.39 8.71-.66 0-1.506-.493-1.878-1.095m9.253.456c-.933-.934.194-2.361 1.865-2.361.793 0 1.441.675 1.441 1.5 0 1.506-2.111 2.056-3.306.86m7.859-.276a1.117 1.117 0 0 1 .362-1.532 1.117 1.117 0 0 1 1.532.362c.322.52.16 1.21-.362 1.532-.52.322-1.21.16-1.532-.362m16 0a1.117 1.117 0 0 1 .362-1.532 1.117 1.117 0 0 1 1.532.362c.322.52.16 1.21-.362 1.532-.52.322-1.21.16-1.532-.362M312 622.073c0-1.43.642-2.073 2.073-2.073s1.97.539 1.739 1.739c-.184.956-1.117 1.889-2.073 2.073-1.2.23-1.739-.308-1.739-1.739m8.523-2.823c.164-2.612.676-4.617 1.138-4.455.461.163.694 1.202.516 2.31s.199 2.643.836 3.41c1.318 1.588.523 3.485-1.46 3.485-.961 0-1.246-1.316-1.03-4.75m9.03 3.835a1.117 1.117 0 0 1 .362-1.532 1.117 1.117 0 0 1 1.532.362c.322.52.16 1.21-.362 1.532-.52.322-1.21.16-1.532-.362m9.266.181c-.175-.421-.319-2.72-.319-5.106v-4.341l4.371-1.488c2.947-1.003 4.701-1.159 5.383-.477 1.595 1.595.042 4.146-2.523 4.146-2.94 0-4.731 1.756-4.731 4.641 0 2.218-1.566 4.103-2.18 2.625m6.734-.18a1.117 1.117 0 0 1 .362-1.533 1.117 1.117 0 0 1 1.532.362c.322.52.16 1.21-.362 1.532-.52.322-1.21.16-1.532-.362m-60.844-.71c-1.176-1.176-.803-3.797.881-6.201 2.056-2.936 3.91-1.518 3.91 2.99 0 2.595-.453 3.4-2.041 3.627-1.123.16-2.36-.027-2.75-.416m300.844-.29a1.117 1.117 0 0 1 .362-1.533 1.117 1.117 0 0 1 1.532.362c.322.52.16 1.21-.362 1.532-.52.322-1.21.16-1.532-.362M302 615c0-1.506.522-2.046 1.75-1.81.962.186 1.75 1 1.75 1.81s-.788 1.624-1.75 1.81c-1.228.236-1.75-.304-1.75-1.81m58.25 1.302c-1.541-.578-1.648-3.938-.154-4.861.603-.373 1.732-.041 2.51.736 1.146 1.147 1.175 1.715.154 3.003-.693.875-1.822 1.38-2.51 1.122m-66.408-.793c-.896-.896.636-8.025 1.662-7.734.533.151.825 1.726.648 3.5-.326 3.282-1.362 5.181-2.31 4.234m169.71-.424a1.117 1.117 0 0 1 .363-1.532 1.117 1.117 0 0 1 1.532.362c.322.52.16 1.21-.362 1.532-.52.322-1.21.16-1.532-.362m121.896-.36c-.796-2.073-.23-4.775 1.052-5.028 1.394-.275 1.9 4.303.617 5.586-.735.735-1.237.568-1.669-.557m-134.895-.64a1.117 1.117 0 0 1 .362-1.532 1.117 1.117 0 0 1 1.532.362c.322.52.16 1.21-.362 1.532-.52.322-1.21.16-1.532-.362m-13.01-4.016c-.683-1.105.894-2.299 1.818-1.375.95.95.773 2.306-.302 2.306-.518 0-1.2-.419-1.516-.93m157.01-.984a1.117 1.117 0 0 1 .362-1.532 1.117 1.117 0 0 1 1.532.362c.322.52.16 1.21-.362 1.532-.52.322-1.21.16-1.532-.362m-316-1a1.117 1.117 0 0 1 .362-1.532 1.117 1.117 0 0 1 1.532.362c.322.52.16 1.21-.362 1.532-.52.322-1.21.16-1.532-.362M646.5 604c-.34-.55-2.091-1-3.892-1s-3.57-.296-3.933-.658c-1.254-1.254 1.548-3.324 3.751-2.771 1.674.42 2.475-.058 3.364-2.01 1.125-2.47 3.567-3.41 4.583-1.766.27.437.238 2.687-.072 5-.537 4.002-2.359 5.538-3.801 3.205m-377.046-2.26c-.859-2.237-.155-6.284 1.046-6.021.55.12 1.148 1.413 1.328 2.872.391 3.162-1.438 5.589-2.374 3.149m51.193.498c-.318-.514-.706-5.166-.863-10.337l-.284-9.401h4l-.053 9.253c-.03 5.241-.523 9.723-1.137 10.337-.648.648-1.317.708-1.663.148m162.11.163c-.302-.495-.869-4.782-1.26-9.525-.735-8.901.046-11.336 2.636-8.215 1.663 2.003 1.866 14.955.27 17.14-.604.826-1.345 1.096-1.646.6m8.778-2.508c-1.196-3.257-.981-6.322.465-6.627 1.107-.233 1.497.59 1.487 3.139-.014 3.743-1.127 5.732-1.952 3.488m-59.2-1.46c-.33-.863 0-2.69.734-4.062 1.052-1.966 1.08-2.902.133-4.42-.661-1.058-1.202-2.578-1.202-3.378 0-2.3 2.042-2.96 3.78-1.22l1.59 1.588-1.384 2.585c-1.059 1.978-1.13 3.255-.302 5.447.774 2.052.774 3.17-.002 3.945-1.513 1.513-2.642 1.349-3.346-.485m9.218.652a1.117 1.117 0 0 1 .362-1.532 1.117 1.117 0 0 1 1.532.362c.322.52.16 1.21-.362 1.532-.52.322-1.21.16-1.532-.362m8.379.748c-.037-.183-.235-3.114-.438-6.512-.255-4.25.037-6.517.935-7.262.957-.795 1.623-.7 2.496.35.837 1.01.95 3.142.383 7.18-.445 3.16-1.37 5.933-2.058 6.162s-1.28.266-1.318.082m22.784-1.496c-.937-1.538-1.937-16.065-1.255-18.215.724-2.28 3.474-2.938 3.64-.872.054.688.019 5.075-.08 9.75-.165 7.833-1.047 11.404-2.305 9.337m184.978.024c-.933-.934.194-2.361 1.865-2.361.793 0 1.441.675 1.441 1.5 0 1.506-2.111 2.056-3.306.86m-379.141-3.276a1.117 1.117 0 0 1 .362-1.532 1.117 1.117 0 0 1 1.532.362c.322.52.16 1.21-.362 1.532-.52.322-1.21.16-1.532-.362m184.833-1.522c-.788-2.053.322-4.862 1.607-4.067.554.342 1.007 1.469 1.007 2.504 0 2.464-1.845 3.567-2.614 1.563m170.167-.478a1.117 1.117 0 0 1 .362-1.532 1.117 1.117 0 0 1 1.532.362c.322.52.16 1.21-.362 1.532-.52.322-1.21.16-1.532-.362m-373.633-.335c-.045-.138-.191-5.425-.326-11.75s.156-12.314.647-13.309c.49-.994.601-3.132.246-4.75-.498-2.267-1.2-2.941-3.066-2.941-1.681 0-2.421.56-2.421 1.833 0 1.009-.263 2.096-.584 2.417s-2.12-.323-3.998-1.431c-3.499-2.064-3.72-3.819-.481-3.819 1 0 2.356-.648 3.014-1.44.657-.793 2.4-1.58 3.872-1.75l2.677-.31.306-3.674c.37-4.449 2.353-6.545 4.147-4.383.956 1.152.957 2.927.005 8.262-.667 3.737-1.135 8.145-1.04 9.795s.35 6.15.568 10 .697 8.694 1.066 10.764c.704 3.952-.608 6.736-3.174 6.736-.758 0-1.414-.112-1.458-.25m43.633-2.665a1.117 1.117 0 0 1 .362-1.532 1.117 1.117 0 0 1 1.532.362c.322.52.16 1.21-.362 1.532-.52.322-1.21.16-1.532-.362m138.04-.982c-2.176-2.404-1.294-6.103 1.455-6.103 2.537 0 3.768 4.613 1.765 6.616l-1.447 1.446zm-171.417-2.327c-.647-.647-1.176-3.111-1.176-5.476 0-3.552.33-4.3 1.893-4.3 1.041 0 2.166.712 2.5 1.582 1.827 4.76-.563 10.848-3.217 8.194m153.27.137c-.37-.598-.17-1.588.441-2.2.817-.817 1.409-.817 2.226 0 1.154 1.154.432 3.287-1.113 3.287-.485 0-1.184-.49-1.554-1.087m-110.893-1.828a1.117 1.117 0 0 1 .362-1.532 1.117 1.117 0 0 1 1.532.362c.322.52.16 1.21-.362 1.532-.52.322-1.21.16-1.532-.362m92.893-.172c-.37-.598-.17-1.588.441-2.2.817-.817 1.409-.817 2.226 0 1.154 1.154.432 3.287-1.113 3.287-.485 0-1.184-.49-1.554-1.087m-10.525-1.509c-.974-1.173-2.314-1.437-5.062-.997-2.322.37-4.004.168-4.439-.536-.466-.754-2.78-.94-6.91-.554l-6.21.58-3.323-2.775-3.324-2.775 2.174-2.174c2.399-2.399 2.7-4.319 1.137-7.24-.57-1.065-1.233-4.972-1.474-8.684s-.563-7.632-.714-8.71c-.398-2.834 2.647-3.074 5.133-.406 1.15 1.234 2.091 3.51 2.091 5.056 0 2.926 1.714 3.697 3.733 1.678 1.543-1.543 4.267-.344 4.267 1.88 0 2.72-2.857 6.253-5.057 6.253-1.92 0-2.001.266-2.36 7.738-.064 1.339 1.064 1.905 4.917 2.47 2.75.402 5.788.49 6.75.194 1.485-.455 1.658-1.331 1.138-5.754-.451-3.84-.245-5.522.783-6.375.768-.637 1.902-.846 2.521-.463.809.5.847 2.222.138 6.123-.674 3.712-.652 6.162.07 7.748 1.11 2.437 3.962 3.057 5.764 1.255 1.5-1.5 4.436 1.601 3.638 3.843-.796 2.237-2.348 4.221-3.302 4.221-.415 0-1.351-.718-2.08-1.596m68.632-1.319a1.117 1.117 0 0 1 .362-1.532 1.117 1.117 0 0 1 1.532.362c.322.52.16 1.21-.362 1.532-.52.322-1.21.16-1.532-.362m-185-1a1.117 1.117 0 0 1 .362-1.532 1.117 1.117 0 0 1 1.532.362c.322.52.16 1.21-.362 1.532-.52.322-1.21.16-1.532-.362m54.696-.571c-4.94-1.695-5.688-2.817-4.379-6.572.677-1.942.871-5.876.491-9.965l-.628-6.756 2.634-1.726c3.163-2.072 3.436-5.052.532-5.811-1.218-.319-1.81-1.018-1.41-1.665.445-.72 1.1-.779 1.85-.163.639.524 2.27 1.108 3.624 1.298 1.89.265 2.645 1.161 3.246 3.846 1.356 6.068 1.794 19.274.765 23.095-.543 2.02-1.548 4.091-2.231 4.603-.779.584-2.457.515-4.494-.184m-31.913-2.081c-.33-.862-.092-2.077.531-2.7.844-.844 1.422-.844 2.266 0 1.28 1.28.487 4.267-1.133 4.267-.585 0-1.333-.705-1.664-1.567m131.217.652a1.117 1.117 0 0 1 .362-1.532 1.117 1.117 0 0 1 1.532.362c.322.52.16 1.21-.362 1.532-.52.322-1.21.16-1.532-.362m-140.107-2.172c-.37-.598-.17-1.588.441-2.2.817-.817 1.409-.817 2.226 0 1.154 1.154.432 3.287-1.113 3.287-.485 0-1.184-.49-1.554-1.087m189.107.172a1.117 1.117 0 0 1 .362-1.532 1.117 1.117 0 0 1 1.532.362c.322.52.16 1.21-.362 1.532-.52.322-1.21.16-1.532-.362M405.4 575.6c-.366-.954-.17-2.23.434-2.834.8-.8 1.282-.627 1.766.634.366.954.17 2.23-.434 2.834-.8.8-1.282.627-1.766-.634m45.153.485a1.117 1.117 0 0 1 .362-1.532 1.117 1.117 0 0 1 1.532.362c.322.52.16 1.21-.362 1.532-.52.322-1.21.16-1.532-.362m31.776-6.671c-1.093-2.849-.948-17.427.171-17.218 1.744.325 3.613 7.692 3.3 13.015-.305 5.211-2.203 7.509-3.471 4.203m43.338.92c-.367-.367-.667-1.852-.667-3.3 0-1.449-.525-3.16-1.167-3.801-.89-.89-.788-1.313.427-1.78.877-.336 2.64-.452 3.917-.258 1.475.224 2.174.891 1.914 1.829-.226.812-.526 2.601-.67 3.976a935 935 0 0 1-.34 3.25c-.1.93-2.51.988-3.414.083m16.777-.424c-.413-.67-2.035-.834-4.205-.427-2.39.449-3.784.253-4.315-.606-1.023-1.654.724-4.877 2.643-4.877.822 0 1.742-.641 2.043-1.425.3-.784 2.311-1.724 4.468-2.088l3.922-.663v-8.058l-2.579.494c-1.638.313-2.771-.01-3.107-.884-.29-.757-1.31-1.376-2.266-1.376-1.876 0-4.367-2.438-5.365-5.25-1.269-3.578-6.287-1.312-8.052 3.636l-.673 1.886-1.808-1.636c-.994-.9-2.94-1.636-4.324-1.636-2.377 0-5.826-2.664-5.826-4.5 0-.463-.745-1.665-1.655-2.671-2.025-2.238-2.38-2.167 12.155-2.436 6.05-.111 13.777-.509 17.171-.883l6.172-.68 1.66 2.534c1.681 2.566 4.686 13.523 5.895 21.498.784 5.17-.444 7.138-4.453 7.138-1.932 0-3.009.625-3.445 2-.686 2.161-2.966 2.673-4.056.91m-271.833-.993c-.25-.78-.666-5.38-.925-10.223l-.472-8.805 2.143.306c1.764.252 2.096.893 1.88 3.627l-.264 3.32 2.264-.32c1.858-.265 2.263-.948 2.263-3.822 0-1.925.388-4.102.863-4.837 1.589-2.462 2.912.518 2.673 6.02-.127 2.924-.317 7.209-.421 9.521s-.498 4.512-.874 4.889c-.377.376-1.149-.536-1.716-2.027-.675-1.774-1.63-2.596-2.766-2.377-.955.184-1.897 1.229-2.095 2.322-.495 2.748-1.991 4.158-2.553 2.406m23.264.75c-.069-.367-.267-1.904-.441-3.417-.792-6.89-1.683-9.25-3.488-9.25-1.006 0-2.11.457-2.456 1.016-.346.56-1.049.757-1.563.439-.926-.573-.24-5.342.952-6.62.342-.367 2.19-.817 4.107-1l3.486-.335.825 5c.454 2.75.78 5.45.725 6s-.235 2.465-.4 4.256c-.271 2.945-1.438 5.557-1.747 3.91m169.813-.313c-1.061-1.06-.813-7.159.32-7.858 1.147-.71 1.795.729 2.207 4.9.274 2.783-1.097 4.389-2.527 2.958m-177.135-1.269a1.117 1.117 0 0 1 .362-1.532 1.117 1.117 0 0 1 1.532.362c.322.52.16 1.21-.362 1.532-.52.322-1.21.16-1.532-.362m225.578-3.745-3.369-3.522 1.058-2.322c.582-1.278 1.957-2.608 3.056-2.957s2.138-1.53 2.31-2.626c.62-3.942 2.327-2.308 2.954 2.828.352 2.883.912 5.953 1.246 6.823.744 1.938-1.01 5.461-2.671 5.367-.668-.038-2.731-1.654-4.584-3.59M396.2 565.8c-.66-.66-1.2-1.807-1.2-2.55 0-2.165 3.005-7.365 3.927-6.795 1.309.809 1.938 6.844.918 8.795-1.076 2.057-2 2.196-3.645.55m94.36-3.972c.333-2.38.79-4.914 1.012-5.63.223-.717-.046-4.488-.598-8.38-.733-5.167-.694-7.45.144-8.46.884-1.066 1.47-1.115 2.553-.216 1.046.868 1.222 2.342.687 5.762-.395 2.528-.75 8.189-.788 12.58l-.07 7.983-1.774.345-1.775.344zm-47.867 2.484c-.968-1.566-1.08-13.812-.127-13.812 1.413 0 2.95 12.383 1.694 13.64-.569.569-1.274.646-1.567.172m28.86-.227a1.117 1.117 0 0 1 .362-1.532 1.117 1.117 0 0 1 1.532.362c.322.52.16 1.21-.362 1.532-.52.322-1.21.16-1.532-.362m-151.107-1.172c-.37-.598-.17-1.588.441-2.2.817-.817 1.409-.817 2.226 0 1.154 1.154.432 3.287-1.113 3.287-.485 0-1.184-.49-1.554-1.087m94.107.172a1.117 1.117 0 0 1 .362-1.532 1.117 1.117 0 0 1 1.532.362c.322.52.16 1.21-.362 1.532-.52.322-1.21.16-1.532-.362m120.569-3.989c-1.614-1.021-.65-3.096 1.437-3.096.793 0 1.441.9 1.441 2 0 2.171-.738 2.452-2.878 1.096m-231.57-1.01a1.117 1.117 0 0 1 .363-1.533 1.117 1.117 0 0 1 1.532.362c.322.52.16 1.21-.362 1.532-.52.322-1.21.16-1.532-.362m9.4.723c-.565-3.694-.771-10.292-.342-10.986.33-.536 1.127-.457 1.906.19 1.017.845 1.091 1.816.308 4.061-.565 1.623-.777 3.606-.47 4.406.307.801.128 1.722-.398 2.047s-.977.452-1.003.282m137.714-6.543c-.259-.421-.778-2.817-1.153-5.323-.52-3.475-.322-4.856.833-5.815 1.252-1.04 1.703-.906 2.601.774 1.73 3.231-.483 13.285-2.28 10.364m12.887-.18a1.117 1.117 0 0 1 .362-1.533 1.117 1.117 0 0 1 1.532.362c.322.52.16 1.21-.362 1.532-.52.322-1.21.16-1.532-.362M241 548.654c0-1.29.816-3.084 1.814-3.986 1.399-1.266 2.085-1.37 3-.455 2.512 2.512.614 6.786-3.014 6.786-1.222 0-1.8-.754-1.8-2.345M547 549c0-1.1-.337-2.006-.75-2.014-.413-.007-1.763-.285-3-.616-1.793-.48-2.25-.19-2.25 1.43 0 2.096 1.21 2.984 4.25 3.121 1.11.05 1.75-.653 1.75-1.921m-243.447.085a1.117 1.117 0 0 1 .362-1.532 1.117 1.117 0 0 1 1.532.362c.322.52.16 1.21-.362 1.532-.52.322-1.21.16-1.532-.362m85 0a1.117 1.117 0 0 1 .362-1.532 1.117 1.117 0 0 1 1.532.362c.322.52.16 1.21-.362 1.532-.52.322-1.21.16-1.532-.362m-67.87-.735c-.375-.376-.683-2.666-.683-5.09 0-3.667.294-4.346 1.75-4.048 1.38.283 1.683 1.195 1.434 4.323-.327 4.102-1.314 6.002-2.5 4.815m112.87-3.265a1.117 1.117 0 0 1 .362-1.532 1.117 1.117 0 0 1 1.532.362c.322.52.16 1.21-.362 1.532-.52.322-1.21.16-1.532-.362m-200.581-2.62c-1.032-1.242-1.027-1.994.028-3.965 1.075-2.008 1.067-2.714-.043-4.052-.912-1.099-2.248-1.44-4.151-1.06l-2.806.562v-4.784c0-2.658-.652-5.646-1.468-6.725-.808-1.067-1.483-2.986-1.5-4.263-.027-1.929-.489-2.267-2.733-2-2.18.26-2.814-.159-3.293-2.173-.327-1.372-1.316-2.634-2.199-2.804-1.297-.25-1.769 1.095-2.456 6.995-.635 5.448-1.232 7.304-2.351 7.304-.961 0-1.613-1.167-1.813-3.25l-.314-3.25h-2.936c-2.256 0-2.937-.457-2.937-1.971 0-1.376.96-2.22 3.182-2.796 2.318-.601 3.426-1.627 4.08-3.779a272 272 0 0 1 1.389-4.454l.492-1.5 1.226 1.664c.674.915 2.554 1.815 4.178 2l2.953.336.313 3.25c.228 2.357.812 3.25 2.128 3.25 2.89 0 4.238-2.544 3.937-7.435-.153-2.497.149-4.658.672-4.803.522-.144 1.339 2.325 1.814 5.488.704 4.693 1.214 5.75 2.774 5.75 1.13 0 2.31-1.046 2.885-2.56 1.08-2.84 2.977-2.425 2.977.65 0 2.817 2.98 3.657 4.69 1.322q1.398-1.912.773-5.625c-.76-4.502.096-6.398 2.126-4.713.857.711 1.411 3.061 1.411 5.99 0 2.65.472 5.11 1.049 5.466.72.446.694 1.075-.085 2.013-.754.908-.903 3.515-.446 7.785.727 6.781-.38 10.672-3.034 10.672-.795 0-1.728-1.125-2.073-2.5-.624-2.484-3.411-3.57-3.411-1.329 0 .644-.749 1.999-1.664 3.01l-1.664 1.838 1.297 2.423c1.311 2.45.856 5.558-.815 5.558-.5 0-1.482-.69-2.182-1.534m236.434-.617c-.391-.633.124-1.763 1.146-2.51 1.57-1.148 2.076-1.14 3.27.056.778.778 1.11 1.907.737 2.51-.891 1.443-4.25 1.406-5.153-.056m30.94-.391c-.327-.849-.323-1.813.006-2.143.865-.864 3.731 1.742 3.078 2.8-.854 1.38-2.432 1.044-3.085-.657m-250.128-.611c.52-1.558 2.756-1.83 2.835-.346.029.55-.698 1.155-1.615 1.346-1.043.215-1.5-.16-1.22-1m20.335.24a1.117 1.117 0 0 1 .362-1.533 1.117 1.117 0 0 1 1.532.362c.322.52.16 1.21-.362 1.532-.52.322-1.21.16-1.532-.362m22.943-.093c-.76-1.229 1.992-2.427 3.472-1.513.586.362.806 1.077.49 1.59-.764 1.234-3.18 1.188-3.962-.077m10.057.092a1.117 1.117 0 0 1 .362-1.532 1.117 1.117 0 0 1 1.532.362c.322.52.16 1.21-.362 1.532-.52.322-1.21.16-1.532-.362m93 0a1.117 1.117 0 0 1 .362-1.532 1.117 1.117 0 0 1 1.532.362c.322.52.16 1.21-.362 1.532-.52.322-1.21.16-1.532-.362m28 0a1.117 1.117 0 0 1 .362-1.532 1.117 1.117 0 0 1 1.532.362c.322.52.16 1.21-.362 1.532-.52.322-1.21.16-1.532-.362m16.99-.016c-.74-1.197 1.141-2.382 2.473-1.559 1.119.691.384 2.49-1.016 2.49-.485 0-1.14-.419-1.457-.93m22.01.016a1.117 1.117 0 0 1 .362-1.532 1.117 1.117 0 0 1 1.532.362c.322.52.16 1.21-.362 1.532-.52.322-1.21.16-1.532-.362m17.684-.248c-1.441-1.441-1.65-5.463-.327-6.281 1.516-.937 4.09.548 4.09 2.36 0 .936-.569 2.48-1.263 3.43-1.004 1.372-1.518 1.473-2.5.49m-156.768-6.887c-.95-1.538.351-2.53 1.635-1.246.718.718.735 1.277.052 1.7-.56.345-1.319.141-1.687-.454m-71.916-.865a1.117 1.117 0 0 1 .362-1.532 1.117 1.117 0 0 1 1.532.362c.322.52.16 1.21-.362 1.532-.52.322-1.21.16-1.532-.362m18 0a1.117 1.117 0 0 1 .362-1.532 1.117 1.117 0 0 1 1.532.362c.322.52.16 1.21-.362 1.532-.52.322-1.21.16-1.532-.362m42.183.317c-.33-.329-.353-1.237-.053-2.018s.006-2.721-.653-4.311c-.893-2.156-.913-3.424-.079-4.982.616-1.15 1.809-2.091 2.651-2.091 2.328 0 9.36 6.25 9.38 8.338l.018 1.838-3.992-.675-3.992-.674-.983 2.586c-1.032 2.715-1.321 2.965-2.297 1.99m53.817-.317a1.117 1.117 0 0 1 .362-1.532 1.117 1.117 0 0 1 1.532.362c.322.52.16 1.21-.362 1.532-.52.322-1.21.16-1.532-.362m31 0a1.117 1.117 0 0 1 .362-1.532 1.117 1.117 0 0 1 1.532.362c.322.52.16 1.21-.362 1.532-.52.322-1.21.16-1.532-.362m8 0a1.117 1.117 0 0 1 .362-1.532 1.117 1.117 0 0 1 1.532.362c.322.52.16 1.21-.362 1.532-.52.322-1.21.16-1.532-.362m36.422-1.65c-1.69-4.448-1.251-5.435 2.418-5.435 1.952 0 3.617-.582 3.92-1.371.696-1.817 5.691-3.025 7.018-1.698.723.723.348 1.782-1.224 3.455-1.247 1.327-2.118 3.29-1.937 4.36.182 1.071-.107 2.013-.642 2.093-.534.08-.984-.864-1-2.097-.019-1.515-.72-2.34-2.161-2.546-1.608-.23-2.396.448-3.198 2.75-.586 1.68-1.325 3.054-1.642 3.054s-1.015-1.154-1.552-2.565M260 525c0-1.273.667-2 1.833-2 1.009 0 2.103.269 2.431.598 1.12 1.12-.472 3.402-2.371 3.402-1.226 0-1.893-.704-1.893-2m9.905-.177c-1.925-3.597-1.414-31.819.595-32.823.579-.29 1.13 1.523 1.307 4.303.337 5.273 2.102 6.86 5.363 4.823l1.905-1.19 1.463 3.5c.804 1.925 1.462 4.19 1.462 5.032 0 .843.675 1.532 1.5 1.532s1.5-.81 1.5-1.8c0-1.797 1.774-4.2 3.101-4.2.386 0 1.584 1.496 2.662 3.324l1.961 3.323-1.818 3.545-1.819 3.545-5.293.52c-2.912.286-5.444.12-5.627-.369-.184-.488-1.172-.888-2.196-.888-1.506 0-1.92.891-2.166 4.672-.168 2.57-.837 4.847-1.487 5.06-.65.215-1.736-.645-2.413-1.91m91.07.225c.619-1.157 1.553-1.84 2.075-1.517 1.38.853 1.194 1.268-1.126 2.51l-2.075 1.11zm71.751 1.202c-.215-.413-.328-3-.25-5.75l.142-5 2.19-.32c2.468-.36 2.782.903.951 3.834-.987 1.58-.987 2.391 0 3.972.683 1.093 1.241 2.443 1.241 3 0 1.165-3.684 1.393-4.274.264m-154.173-1.165a1.117 1.117 0 0 1 .362-1.532 1.117 1.117 0 0 1 1.532.362c.322.52.16 1.21-.362 1.532-.52.322-1.21.16-1.532-.362m22.893-.172c-.37-.598-.17-1.588.441-2.2.817-.817 1.409-.817 2.226 0 1.154 1.154.432 3.287-1.113 3.287-.485 0-1.184-.49-1.554-1.087m76.107.172a1.117 1.117 0 0 1 .362-1.532 1.117 1.117 0 0 1 1.532.362c.322.52.16 1.21-.362 1.532-.52.322-1.21.16-1.532-.362m29 0a1.117 1.117 0 0 1 .362-1.532 1.117 1.117 0 0 1 1.532.362c.322.52.16 1.21-.362 1.532-.52.322-1.21.16-1.532-.362M232.82 520.25c.26-1.832-.158-2.25-2.25-2.25s-2.57.477-2.57 2.57.418 2.51 2.25 2.25c1.446-.206 2.364-1.124 2.57-2.57m208.733.835a1.117 1.117 0 0 1 .362-1.532 1.117 1.117 0 0 1 1.532.362c.322.52.16 1.21-.362 1.532-.52.322-1.21.16-1.532-.362M241 519.5c0-.825-.675-1.5-1.5-1.5s-1.5.675-1.5 1.5.675 1.5 1.5 1.5 1.5-.675 1.5-1.5m-56.347-2.331c-.912-1.007-1.405-2.083-1.097-2.391s1.174-5.222 1.925-10.92c1.92-14.559 3.738-18.581 7.13-15.767 1.238 1.028 1.42 2.956.974 10.337-.302 4.99-.581 10.644-.62 12.565-.074 3.507-3.156 8.007-5.484 8.007-.644 0-1.917-.824-2.828-1.831m211.413.41c-.785-.946-.65-2.33.495-5.072.883-2.11 1.948-3.382 2.421-2.889.794.828 1.377 4.459 1.129 7.025-.172 1.77-2.84 2.388-4.045.937m-19.587-.613c-.388-.627-.204-1.641.408-2.253S378 512.593 378 511.36c0-2.166 1.24-3.786 2.18-2.846.252.252.202 2.34-.11 4.641-.569 4.175-2.258 5.969-3.591 3.812m38.213.337c-.52-.851-.988-4.96-.803-7.053.061-.687.777-1.25 1.592-1.25 1.585 0 2.914 3.716 2.358 6.588-.37 1.909-2.364 2.995-3.147 1.715m-163.14-1.218a1.117 1.117 0 0 1 .363-1.532 1.117 1.117 0 0 1 1.532.362c.322.52.16 1.21-.362 1.532-.52.322-1.21.16-1.532-.362m9.944-.234c-.313-.817-.665-2.804-.783-4.418-.148-2.035.246-2.933 1.287-2.933.973 0 1.613 1.185 1.823 3.377.35 3.664-1.339 6.549-2.327 3.974m91.654.199c.43-1.29 1.801-1.52 1.925-.325.041.399-.465.905-1.125 1.125s-1.02-.14-.8-.8m11.195-.3c-.538-.872-.461-.89 4.155-1 1.925-.046 3.387.286 3.25.738-.316 1.04-6.784 1.269-7.405.262m23.349.61c-.933-.933.194-2.36 1.865-2.36.793 0 1.441.675 1.441 1.5 0 1.506-2.111 2.056-3.306.86m18.859-.275a1.117 1.117 0 0 1 .362-1.532 1.117 1.117 0 0 1 1.532.362c.322.52.16 1.21-.362 1.532-.52.322-1.21.16-1.532-.362m92.996-6.626c-1.396-1.507-3.127-2.451-3.928-2.144-.788.303-2.233-.333-3.21-1.413-1.448-1.6-1.815-4.034-1.985-13.183l-.209-11.219 3.087-2.872c2.313-2.152 3.476-2.628 4.641-1.899.855.536 1.699 2.687 1.875 4.782.222 2.65-.303 4.651-1.727 6.577-2.583 3.494-3.677 9.952-2.164 12.779 1.251 2.338 4.01 2.795 5.838.966.89-.89 1.295-.83 1.706.25 1.136 2.99 1.007 9.206-.2 9.634-.676.239-2.351-.777-3.724-2.258m13.72-.321c-.896-1.45-2.29-3.186-3.097-3.856l-1.468-1.219 1.444-3.781 1.444-3.782 7.454-.02c4.1-.01 8.241.435 9.204.99 1.226.708 2.345.64 3.736-.23 2.814-1.757 8.703-1.537 12.07.452l2.863 1.691 2.062-1.866 2.063-1.867 3.531 1.684c3.553 1.695 3.836 3.666.526 3.666-.979 0-2.293 1.125-2.919 2.5-.627 1.375-1.769 2.5-2.538 2.5-.77 0-1.926.635-2.571 1.412-1.79 2.157-9.444 3.588-21.373 3.995l-10.8.369zM277 506.5c0-1.556-.567-2.5-1.5-2.5s-1.5.944-1.5 2.5.567 2.5 1.5 2.5 1.5-.944 1.5-2.5m120.553-2.415a1.117 1.117 0 0 1 .362-1.532 1.117 1.117 0 0 1 1.532.362c.322.52.16 1.21-.362 1.532-.52.322-1.21.16-1.532-.362m16 0a1.117 1.117 0 0 1 .362-1.532 1.117 1.117 0 0 1 1.532.362c.322.52.16 1.21-.362 1.532-.52.322-1.21.16-1.532-.362m67.854-2.598c-.362-1.444-.104-3.148.608-4.005.794-.957 1.013-2.905.61-5.427-.714-4.466.699-6.187 2.427-2.958.884 1.651.857 2.705-.114 4.52-.93 1.736-.985 2.984-.209 4.688.68 1.491.72 2.927.115 4.009-1.348 2.41-2.706 2.083-3.437-.827m-103.854-.402a1.117 1.117 0 0 1 .362-1.532 1.117 1.117 0 0 1 1.532.362c.322.52.16 1.21-.362 1.532-.52.322-1.21.16-1.532-.362m-22-1a1.117 1.117 0 0 1 .362-1.532 1.117 1.117 0 0 1 1.532.362c.322.52.16 1.21-.362 1.532-.52.322-1.21.16-1.532-.362m-138-1a1.117 1.117 0 0 1 .362-1.532 1.117 1.117 0 0 1 1.532.362c.322.52.16 1.21-.362 1.532-.52.322-1.21.16-1.532-.362m42.845-.49c-.887-2.311.01-7.91 1.338-8.347.68-.223 1.764.755 2.41 2.173.885 1.942.894 3.197.036 5.079-1.26 2.767-2.954 3.257-3.784 1.095m-61.845-1.51a1.117 1.117 0 0 1 .362-1.532 1.117 1.117 0 0 1 1.532.362c.322.52.16 1.21-.362 1.532-.52.322-1.21.16-1.532-.362m264.367-2.796c-.567-1.491-.772-3.741-.456-5 .407-1.623 1.303-2.289 3.08-2.289 3.175 0 4.881-3.637 4.924-10.5l.032-5h4v6.5c0 4.608-.53 7.3-1.818 9.25-1 1.512-2.486 2.75-3.301 2.75-.816 0-2.141 1.575-2.945 3.5-.805 1.925-1.693 3.5-1.974 3.5s-.975-1.22-1.542-2.711m-229.584-.856c-.33-.862-.11-2.058.489-2.658.787-.787 1.523-.731 2.645.2 1.184.983 1.284 1.616.42 2.658-1.498 1.804-2.813 1.73-3.554-.2m9.217.652a1.117 1.117 0 0 1 .362-1.532 1.117 1.117 0 0 1 1.532.362c.322.52.16 1.21-.362 1.532-.52.322-1.21.16-1.532-.362m326.888-.181c-.373-.603-1.983-.905-3.578-.67-1.596.234-3.295-.06-3.776-.654-1.276-1.574-1.802-15.08-.587-15.08.55 0 .88.951.733 2.114-.146 1.162.416 2.68 1.25 3.372.835.693 1.517 2.343 1.517 3.668s.682 2.67 1.516 2.99 3.524-.079 5.978-.886c2.454-.808 4.691-1.24 4.972-.958.565.564-5.554 7.172-6.657 7.19-.38.005-.996-.483-1.368-1.086m-291.28-3.144c-1.248-1.247-1.585-6.003-.503-7.085 1.226-1.225 3.342 1.554 3.342 4.388 0 3.254-1.171 4.366-2.84 2.697m173.328-2.642c-2.286-1.549-4.128-3.669-4.316-4.964-.181-1.257-1.36-2.655-2.652-3.146-1.28-.487-2.634-1.382-3.01-1.99-1.023-1.655 1.293-3.882 3.45-3.318 3.077.805 4.73-4.025 5.255-15.354.259-5.585.069-10.873-.422-11.75-1.246-2.226-4.533-1.995-5.283.37-.344 1.082-.155 4.51.42 7.617.574 3.107.798 6.046.497 6.533-.3.486-2.124.884-4.053.884s-4.35.451-5.38 1.003c-1.287.689-2.084.661-2.547-.087-1.001-1.62 1.29-3.416 4.358-3.416h2.694v-13l-2.178-.31c-1.736-.247-2.243.26-2.5 2.5-.456 3.977-2.33 2.978-1.982-1.057.206-2.39-.429-4.18-2.249-6.342-1.394-1.657-2.266-3.283-1.936-3.612.724-.724 6.446 2.12 7.845 3.9.55.7 3.236 1.418 5.97 1.596l4.968.325.723-4c.398-2.2.75-7.01.781-10.691.055-6.388 1.122-9.133 2.612-6.72.381.616.61 10.185.51 21.265-.31 34.13-.305 34.327 1.026 36.814.703 1.314 1.75 1.846 2.995 1.52 2.345-.613 3.654 1.091 1.478 1.926-.86.33-1.563 1.65-1.563 2.934s-.342 2.545-.76 2.804c-.419.259-2.556-.747-4.75-2.234m-73.936.967a1.117 1.117 0 0 1 .362-1.532 1.117 1.117 0 0 1 1.532.362c.322.52.16 1.21-.362 1.532-.52.322-1.21.16-1.532-.362m-84.497-1.98c-.745-1.392-.642-2.204.387-3.057 1.07-.889 1.889-.858 3.47.13l2.07 1.292 1.666-2.38 1.667-2.379 1.273 1.742c1.831 2.504.646 4.547-2.637 4.547-1.559 0-3.112.45-3.452 1-1.001 1.62-3.35 1.147-4.444-.895m-94.588-2.157c-.364-.589.713-1.567 2.44-2.22 2.077-.783 3.092-1.843 3.092-3.225 0-1.132.787-2.765 1.75-3.628s2.246-2.42 2.851-3.46l1.102-1.89 1.67 3.229c1.029 1.99 1.438 4.287 1.065 5.987-1.178 5.372-1.214 5.416-3.395 4.054-1.656-1.034-2.508-.952-4.927.477-3.371 1.992-4.734 2.155-5.648.676m44.171.358c-1.195-1.195-.645-3.306.861-3.306.825 0 1.5.648 1.5 1.441 0 1.67-1.427 2.798-2.36 1.865m8.86-.306c-.4-.646-.276-1.624.274-2.174q1-1 1.726.174c.4.646.276 1.624-.274 2.174q-1 1-1.726-.174m68.946-.087c-.37-.598-.17-1.588.441-2.2.817-.817 1.409-.817 2.226 0 1.154 1.154.432 3.287-1.113 3.287-.485 0-1.184-.49-1.554-1.087m75.006-.176c-.297-.776-.633-3.397-.747-5.824l-.205-4.413 2.715-.313c2.163-.25 2.838.176 3.32 2.093.862 3.438-.846 9.156-2.851 9.542-.93.18-1.934-.31-2.232-1.085m-134.494.213c-.804-8.66-.826-13.914-.059-14.388.53-.327 1.278-.085 1.662.537 1.096 1.773.723 12.017-.48 13.22-.595.595-1.1.878-1.123.631m8.725-.6c-1.035-1.035-.818-13.149.248-13.807 1.558-.963 2.355 1.455 2.355 7.15 0 5.185-1.145 8.114-2.603 6.657m14.317-.743c0-1.696 2.704-2.894 3.527-1.563.325.526.313 1.406-.027 1.956-.924 1.495-3.5 1.206-3.5-.393m27.45-.949c-.34-1.36-.088-3.466.563-4.682.997-1.863 1.392-1.995 2.522-.843.736.752 1.48 2.717 1.652 4.367.256 2.453-.091 3.057-1.902 3.315-1.653.235-2.372-.312-2.835-2.157m43.103 1.427a1.117 1.117 0 0 1 .362-1.532 1.117 1.117 0 0 1 1.532.362c.322.52.16 1.21-.362 1.532-.52.322-1.21.16-1.532-.362m231.978-2.035c-.323-.522.264-1.405 1.304-1.962 1.217-.651 2.095-2.529 2.462-5.265.534-3.985 2.694-6.843 5.144-6.808.583.009 1.73.44 2.55.958l1.49.942-1.88 3.293c-2.438 4.27-7.648 9.792-9.238 9.792-.685 0-1.51-.427-1.832-.95m-105.09-1.343c-.703-1.832.864-8.733 2.042-8.992 1.404-.307 2.522 7.522 1.29 9.035-1.312 1.612-2.704 1.594-3.332-.043m-188.411-3.651c-1.5-2.804-.946-6.556.97-6.556.973 0 1.613 1.185 1.823 3.377.41 4.292-1.21 6.136-2.793 3.179m85.667 1.194c-1.113-1.984-1.602-6.19-.78-6.7 1.1-.679 4.293 5.302 3.508 6.571-.665 1.076-2.157 1.146-2.728.129m-152.722-2.815c-1.317-3.465-1.227-4.98.373-6.309 1.027-.852 1.76-.664 3.073.787l1.724 1.905-1.598 3.091c-.88 1.7-1.823 3.091-2.097 3.091-.275 0-.938-1.154-1.475-2.565m15.96-.108c-.768-2.017-.68-3.011.36-4.05 1.17-1.17 1.556-1.162 2.562.051.842 1.014.897 2.19.19 4.05-.549 1.442-1.245 2.622-1.547 2.622s-1.007-1.203-1.566-2.673m44.618 1.758a1.117 1.117 0 0 1 .362-1.532 1.117 1.117 0 0 1 1.532.362c.322.52.16 1.21-.362 1.532-.52.322-1.21.16-1.532-.362m33.9-.345c-.858-2.237-.154-6.284 1.047-6.021.55.12 1.148 1.413 1.328 2.872.391 3.162-1.438 5.589-2.374 3.149m26.1.345a1.117 1.117 0 0 1 .362-1.532 1.117 1.117 0 0 1 1.532.362c.322.52.16 1.21-.362 1.532-.52.322-1.21.16-1.532-.362m-128-4a1.117 1.117 0 0 1 .362-1.532 1.117 1.117 0 0 1 1.532.362c.322.52.16 1.21-.362 1.532-.52.322-1.21.16-1.532-.362m32 0a1.117 1.117 0 0 1 .362-1.532 1.117 1.117 0 0 1 1.532.362c.322.52.16 1.21-.362 1.532-.52.322-1.21.16-1.532-.362m112 0a1.117 1.117 0 0 1 .362-1.532 1.117 1.117 0 0 1 1.532.362c.322.52.16 1.21-.362 1.532-.52.322-1.21.16-1.532-.362m25 0a1.117 1.117 0 0 1 .362-1.532 1.117 1.117 0 0 1 1.532.362c.322.52.16 1.21-.362 1.532-.52.322-1.21.16-1.532-.362m103.983-.027c-1.024-1.657-1.298-19.087-.31-19.698 2.203-1.361 3.191 2.046 3.232 11.148.03 6.7-.308 9.492-1.149 9.492-.655 0-1.453-.424-1.773-.942M553.5 473c-.34-.55-2.391-1-4.559-1-4.248 0-5.121-1.298-1.998-2.97 1.36-.727 2.035-2.314 2.25-5.285l.307-4.245 1.798 3.293c.989 1.811 2.913 3.717 4.276 4.235 3.34 1.27 4.232 3.91 1.897 5.617-2.209 1.615-3.14 1.698-3.971.355m-318.947-.915a1.117 1.117 0 0 1 .362-1.532 1.117 1.117 0 0 1 1.532.362c.322.52.16 1.21-.362 1.532-.52.322-1.21.16-1.532-.362m278.722-1.302c-2.873-3.596-3.937-7.655-3.744-14.283.112-3.85.6-6.794 1.086-6.543s1.394 1.943 2.018 3.76c.625 1.816 1.593 3.86 2.151 4.542 1.461 1.786 1.972 12.953.614 13.425-.605.21-1.561-.195-2.125-.9m-235.19-1.18c-1.534-1.85-.77-4.603 1.277-4.603 2.02 0 2.724 2.5 1.267 4.493l-1.234 1.688zm42.468-5.518a1.117 1.117 0 0 1 .362-1.532 1.117 1.117 0 0 1 1.532.362c.322.52.16 1.21-.362 1.532-.52.322-1.21.16-1.532-.362m-114.347-1.132c-1.823-.732-2.096-1.29-1.33-2.721.747-1.397 1.878-1.713 5.044-1.411 4.436.423 5.448 2.377 2.146 4.144-2.268 1.214-2.808 1.212-5.86-.012m20.286.034c-.346-.56-.642-4.41-.659-8.557l-.03-7.539-1.643.317c-.905.174-1.873 1.556-2.152 3.07-.32 1.739-1.748 3.505-3.87 4.792-1.85 1.12-3.518 1.883-3.706 1.695-.507-.507 2.556-9.045 3.769-10.507.574-.692 1.9-1.258 2.946-1.258 1.074 0 2.29-1.018 2.792-2.339 1.125-2.96 6.65-7.661 9.003-7.661.983 0 2.932.9 4.33 2 1.4 1.1 3.035 2 3.636 2 .6 0 1.092-1.548 1.092-3.441 0-3.528 1.499-5.46 3.04-3.92.476.477.546 3.099.155 5.827l-.71 4.961-2.992.037-2.993.036-.77 6.5c-.424 3.575-.927 7.966-1.117 9.758-.191 1.792-.744 3.142-1.23 3s-.77-1.075-.633-2.074c.345-2.506-1.51-5.684-3.317-5.684-2.115 0-2.891 2.7-1.595 5.545.926 2.03.796 2.58-.807 3.439-1.295.693-2.112.694-2.539.003m34.477-.178c-.017-.17-.226-3.135-.464-6.59-.76-11.043 2.714-14.914 4.532-5.05.595 3.227.437 4.733-.62 5.91-.779.868-1.417 2.304-1.417 3.19s-.45 1.891-1 2.231-1.014.479-1.031.309m7.703-.53c-.667-1.08 1.103-7.279 2.078-7.279 1.233 0 .847 7.301-.408 7.72-.637.212-1.389.013-1.67-.442m44.245.388c-.418-3.338-.088-7.667.583-7.667.987 0 1.133 6.7.167 7.667-.367.366-.704.366-.75 0m57.636-.582a1.117 1.117 0 0 1 .362-1.532 1.117 1.117 0 0 1 1.532.362c.322.52.16 1.21-.362 1.532-.52.322-1.21.16-1.532-.362m8 0a1.117 1.117 0 0 1 .362-1.532 1.117 1.117 0 0 1 1.532.362c.322.52.16 1.21-.362 1.532-.52.322-1.21.16-1.532-.362m10.115.181c-.98-1.598-1.098-7.224-.155-7.387 1.193-.206 2.51 6.989 1.404 7.672a.907.907 0 0 1-1.249-.285m93.875-.197c-.74-1.197 1.141-2.382 2.473-1.559 1.119.691.384 2.49-1.016 2.49-.485 0-1.14-.419-1.457-.93m-240-1c-.74-1.197 1.141-2.382 2.473-1.559 1.119.691.384 2.49-1.016 2.49-.485 0-1.14-.419-1.457-.93m155 0c-.317-.512-.118-1.213.44-1.559 1.194-.737 3.017.199 3.017 1.549 0 1.217-2.707 1.225-3.457.01m-111.876-4.736c-1.268-1.267-.66-2.333 1.333-2.333 1.111 0 2 .667 2 1.5 0 1.522-2.115 2.051-3.333.833m7.886-.248a1.117 1.117 0 0 1 .362-1.532 1.117 1.117 0 0 1 1.532.362c.322.52.16 1.21-.362 1.532-.52.322-1.21.16-1.532-.362m7.5-.521c-.885-1.066-.907-1.968-.087-3.5q2.034-3.8 3.914-.288c.603 1.126.598 2.406-.014 3.5-1.176 2.1-2.242 2.181-3.813.288m19.395.162c-.796-2.074-.23-4.776 1.052-5.029 1.394-.275 1.9 4.303.617 5.586-.735.735-1.237.568-1.669-.557m152.24.628c-.379-.378-.704-1.625-.723-2.77-.02-1.147-.662-3.209-1.428-4.584l-1.392-2.5 2.102-2.25c1.156-1.238 2.588-2.25 3.182-2.25.68 0 1.057 2.667 1.017 7.186-.058 6.576-.973 8.954-2.759 7.168m104.405-1.18c-1.495-2.794-1.373-7.409.255-9.636 2.272-3.106 3.606-.978 2.973 4.74-.318 2.872-.93 5.608-1.357 6.08-.428.47-1.27-.062-1.871-1.185m23.574 1.16c-1.147-1.147-.729-5.038.665-6.195.98-.814 1.788-.772 3.059.158 1.406 1.028 1.535 1.768.693 3.983-.983 2.584-2.965 3.505-4.417 2.053m-37.07-2.178c-.346-.56-.142-1.319.453-1.687 1.538-.95 2.53.351 1.246 1.635-.718.718-1.277.735-1.7.052m-312.841-1.273c-.893-.5-2.98-.79-4.636-.646s-2.924-.187-2.816-.737 1.771-1.025 3.696-1.056c1.925-.03 3.95-.196 4.5-.368 1.982-.62 3.5-.049 3.5 1.317 0 1.845-2.218 2.624-4.244 1.49m27.797-.798a1.117 1.117 0 0 1 .362-1.532 1.117 1.117 0 0 1 1.532.362c.322.52.16 1.21-.362 1.532-.52.322-1.21.16-1.532-.362m51 0a1.117 1.117 0 0 1 .362-1.532 1.117 1.117 0 0 1 1.532.362c.322.52.16 1.21-.362 1.532-.52.322-1.21.16-1.532-.362M499 451c0-1.1.395-2 .878-2 1.31 0 3.204 2.585 2.447 3.342-1.37 1.37-3.325.58-3.325-1.342m92.553 1.085a1.117 1.117 0 0 1 .362-1.532 1.117 1.117 0 0 1 1.532.362c.322.52.16 1.21-.362 1.532-.52.322-1.21.16-1.532-.362m-212-1a1.117 1.117 0 0 1 .362-1.532 1.117 1.117 0 0 1 1.532.362c.322.52.16 1.21-.362 1.532-.52.322-1.21.16-1.532-.362m-110.518-5.02c-.57-1.063-1.035-2.808-1.035-3.877 0-2.402 2.528-4.76 3.47-3.237.855 1.384 4.836 1.343 6.243-.064 1.49-1.49 3.287-.253 3.287 2.26v2.029l-3.879-.656-3.878-.655-1.07 3.068c-.588 1.687-1.302 3.067-1.586 3.067s-.982-.87-1.552-1.934m122.705-.385c-1.232-1.321-3.252-2.72-4.49-3.108-2.94-.923-2.862-3.125.183-5.12 1.892-1.24 2.892-1.348 4.5-.488 1.137.609 2.067 1.696 2.067 2.416s.9 2.125 2 3.12 2 2.174 2 2.62c0 .445-.905 1.294-2.01 1.885-1.648.882-2.414.643-4.25-1.325m143.882 1.237c-1.251-3.993-1.296-5.981-.169-7.522 1.02-1.395 1.393-1.453 2.09-.325.467.755.745 2.728.62 4.385-.264 3.457-1.861 5.633-2.541 3.462m-242.07-3.832a1.117 1.117 0 0 1 .363-1.532 1.117 1.117 0 0 1 1.532.362c.322.52.16 1.21-.362 1.532-.52.322-1.21.16-1.532-.362m54 0a1.117 1.117 0 0 1 .363-1.532 1.117 1.117 0 0 1 1.532.362c.322.52.16 1.21-.362 1.532-.52.322-1.21.16-1.532-.362m116 0a1.117 1.117 0 0 1 .363-1.532 1.117 1.117 0 0 1 1.532.362c.322.52.16 1.21-.362 1.532-.52.322-1.21.16-1.532-.362m61 0a1.117 1.117 0 0 1 .363-1.532 1.117 1.117 0 0 1 1.532.362c.322.52.16 1.21-.362 1.532-.52.322-1.21.16-1.532-.362m25.99-.016c-.316-.512-.117-1.213.442-1.559 1.193-.737 3.016.199 3.016 1.549 0 1.217-2.707 1.225-3.457.01m-180.848-.708c-.933-.934.194-2.361 1.865-2.361.793 0 1.441.675 1.441 1.5 0 1.506-2.111 2.056-3.306.86m8.034.034c-1.089-1.09.227-2.395 2.414-2.395 1.175 0 1.85.525 1.608 1.25-.475 1.428-3.015 2.151-4.022 1.145m136.448-.619c-1.588-1.588-1.487-5.97.192-8.265l1.369-1.871 1.131 2.114c1.523 2.845 1.43 6.753-.192 8.1-.966.802-1.64.781-2.5-.078m87.377.31a1.117 1.117 0 0 1 .362-1.533 1.117 1.117 0 0 1 1.532.362c.322.52.16 1.21-.362 1.532-.52.322-1.21.16-1.532-.362m-349.518-3.02c-.57-1.064-1.035-3.111-1.035-4.55s-.663-3.898-1.474-5.465l-1.473-2.85 1.432-1.189c.876-.727 2.635-.925 4.525-.51 2.54.558 3.521.217 5.494-1.911 2.553-2.756 3.993-3.214 4.996-1.591.998 1.614 3.707 1.154 6.025-1.024 1.185-1.113 3.59-2.435 5.345-2.939 2.67-.766 3.386-.6 4.4 1.024 1.44 2.304 4.282 2.55 5.092.439.316-.825 1.306-1.5 2.199-1.5s2.768-.9 4.166-2 3.168-2 3.933-2 1.817 1.125 2.34 2.5c.574 1.51 1.738 2.5 2.94 2.5 2.27 0 3.56 2.26 3.56 6.231 0 3.729-1.788 3.595-2.774-.208l-.803-3.1-3.712.086c-2.04.047-4.949-.213-6.461-.578l-2.75-.664v2.45c0 3.112-.95 4.07-2.645 2.662-1.904-1.58-4.216-.372-5.445 2.845l-1.06 2.776-1.44-1.963-1.442-1.963-2.893 1.092c-1.591.6-4.059.869-5.484.596l-2.591-.495v2.535c0 4.678-.95 5.798-4.372 5.156l-3.14-.589-1.157 3.065c-.637 1.687-1.63 3.066-2.209 3.066-.578 0-1.517-.87-2.087-1.934m49.518 1.02a1.117 1.117 0 0 1 .362-1.533 1.117 1.117 0 0 1 1.532.362c.322.52.16 1.21-.362 1.532-.52.322-1.21.16-1.532-.362m60 0a1.117 1.117 0 0 1 .362-1.533 1.117 1.117 0 0 1 1.532.362c.322.52.16 1.21-.362 1.532-.52.322-1.21.16-1.532-.362M312.595 437c-.302-.825-.503-3.075-.447-5s-.164-6.399-.487-9.941c-.591-6.476.226-9.059 2.864-9.059.95 0 1.205 1.87.986 7.25-.162 3.988-.603 8.002-.98 8.922s-.218 2.545.353 3.612c.763 1.426.67 2.44-.351 3.828-1.163 1.579-1.48 1.642-1.938.388m-20.1-3.007c-.794-1.285 2.015-2.395 4.068-1.607 2.004.769.9 2.614-1.563 2.614-1.035 0-2.162-.453-2.504-1.007m28.422.674c-.418-3.338-.088-7.667.583-7.667.987 0 1.133 6.7.167 7.667-.367.366-.704.366-.75 0m121.75-.334c-.367-.366-.681-1.829-.699-3.25-.017-1.42-.63-3.37-1.36-4.333-1.365-1.797-3.608-2.383-3.608-.941 0 .445-.616 1.65-1.368 2.68l-1.369 1.871-1.191-2.226c-.656-1.225-1.611-4.793-2.123-7.93-.65-3.98-.58-6.762.231-9.204.64-1.925 1.65-6.425 2.242-10l1.078-6.5 2.5.348c3.234.45 5 1.939 5 4.215 0 1 .435 2.088.966 2.416.532.329.802 2.718.601 5.31-.294 3.79-.756 4.77-2.364 5.017-2.226.341-3.169 2.838-3.19 8.444-.013 3.826 1.46 4.877 3.7 2.637 2.068-2.068 3.125.102 2.782 5.71-.353 5.788-.697 6.868-1.828 5.736m81.886-.248a1.117 1.117 0 0 1 .362-1.532 1.117 1.117 0 0 1 1.532.362c.322.52.16 1.21-.362 1.532-.52.322-1.21.16-1.532-.362m19.188.323c-1.33-1.33.416-2.408 3.901-2.408 2.372 0 3.39.409 3.114 1.25-.448 1.365-5.907 2.266-7.015 1.158m57.726-3.278c-2.151-3.251-2.74-5.44-2.973-11.054-.22-5.284.079-7.306 1.216-8.25 1.234-1.024 1.755-.911 2.877.623.753 1.031 1.116 2.885.806 4.12-.31 1.234-.037 3.228.607 4.43 1.213 2.267 1.772 12.563.738 13.597-.324.323-1.795-1.237-3.27-3.466m-254.914-2.045a1.117 1.117 0 0 1 .362-1.532 1.117 1.117 0 0 1 1.532.362c.322.52.16 1.21-.362 1.532-.52.322-1.21.16-1.532-.362m15.122-1.743c-1.036-1.037 1.32-3.281 2.835-2.7.75.288 1.119 1.161.82 1.94-.569 1.482-2.526 1.889-3.655.76m113-.744c-.624-1.63.216-2.784 1.464-2.012 1.136.702 1.11 3.414-.032 3.414-.491 0-1.135-.631-1.431-1.402m-146.28-3.196c-.827-1.98-1.362-4.342-1.19-5.25.174-.909 1.319-1.795 2.546-1.97 1.61-.23 2.565.418 3.439 2.335 1 2.195 1.686 2.558 3.97 2.1 3.186-.636 6.08 1.593 5.165 3.978-.45 1.174-1.475 1.386-4.355.9-2.279-.385-4.026-.214-4.426.434-1.325 2.144-3.681.987-5.15-2.527m186.26 1.85c-.842-1.364.835-6.835 1.917-6.252 1.068.575.692 5.091-.527 6.337-.45.46-1.076.422-1.39-.086m8.888-.183c-.74-1.197 1.141-2.382 2.473-1.559 1.119.691.384 2.49-1.016 2.49-.485 0-1.14-.419-1.457-.93M535 424c0-1.506.522-2.046 1.75-1.81.962.186 1.75 1 1.75 1.81s-.788 1.624-1.75 1.81c-1.228.236-1.75-.304-1.75-1.81m12.037-1.404c-.66-1.734-.698-4.15-.107-6.778 1.12-4.986.197-25.82-1.223-27.612-1.247-1.575-6.414-.683-8.936 1.541l-1.73 1.525-.6-1.563c-.33-.86-.451-2.609-.27-3.886l.329-2.323h11l.306-3.674c.168-2.02.843-4.1 1.5-4.62.657-.519 3.323-1.172 5.925-1.45 3.206-.343 5.08-.085 5.815.8.814.98.586 1.57-.916 2.374-1.099.589-2.733 1.07-3.63 1.07-1.187 0-1.546.741-1.316 2.71.218 1.87 1.032 2.878 2.625 3.25 3.462.81 3.133 2.497-.556 2.853-3.83.37-4.383 1.844-4.008 10.687l.255 6h3.5c1.925 0 3.5.45 3.5 1s-1.575 1-3.5 1h-3.5v8h8l.327 2.308c.18 1.27-.392 3.405-1.27 4.746l-1.598 2.438-1.937-1.21c-1.633-1.02-2.332-.84-4.45 1.15l-2.51 2.36zm-200.552-.62c-.408-.66-.121-1.585.637-2.056 1.663-1.033 2.56.799 1.103 2.255q-.999 1-1.74-.2m232.669-1.688c-.567-1.06-1.172-5.271-1.343-9.358-.254-6.076-.038-7.43 1.189-7.43 1.189 0 1.428 1.103 1.154 5.31-.19 2.92.212 6.658.894 8.306.868 2.095.925 3.311.189 4.047s-1.362.473-2.083-.875m-128.978-6.512c-2.676-2.676-.307-8.96 2.5-6.63.728.604 1.324 2.114 1.324 3.354 0 2.977-2.22 4.88-3.824 3.276m41.643.49c-.767-1.84-.226-9.788.681-10.002 1.11-.262 1.416 9.662.32 10.345-.375.233-.825.079-1-.343m22.734-1.18a1.117 1.117 0 0 1 .362-1.533 1.117 1.117 0 0 1 1.532.362c.322.52.16 1.21-.362 1.532-.52.322-1.21.16-1.532-.362m21-2a1.117 1.117 0 0 1 .362-1.533 1.117 1.117 0 0 1 1.532.362c.322.52.16 1.21-.362 1.532-.52.322-1.21.16-1.532-.362m55.923-5.48c-2.668-1.951-1.201-4.822 2.26-4.423 3.307.382 4.197 3.247 1.462 4.71-1.39.745-2.42.665-3.722-.287m-126.923-.52a1.117 1.117 0 0 1 .362-1.533 1.117 1.117 0 0 1 1.532.362c.322.52.16 1.21-.362 1.532-.52.322-1.21.16-1.532-.362m50 0a1.117 1.117 0 0 1 .362-1.533 1.117 1.117 0 0 1 1.532.362c.322.52.16 1.21-.362 1.532-.52.322-1.21.16-1.532-.362m10 0a1.117 1.117 0 0 1 .362-1.533 1.117 1.117 0 0 1 1.532.362c.322.52.16 1.21-.362 1.532-.52.322-1.21.16-1.532-.362m-9.185-7.3c-.424-.686-.793-3.26-.82-5.721l-.048-4.474-2.309-.546c-3.477-.82-2.734-2.447 1.523-3.331 2.483-.516 4.564-.368 6.055.43 1.745.934 2.545.942 3.451.036 2.868-2.868 5.674.28 3.64 4.082l-1.134 2.118-1.773-2.19c-3.743-4.622-7.275-1.817-6.336 5.032.616 4.495-.674 7.112-2.25 4.564m-64.815-1.7a1.117 1.117 0 0 1 .362-1.533 1.117 1.117 0 0 1 1.532.362c.322.52.16 1.21-.362 1.532-.52.322-1.21.16-1.532-.362m106-2a1.117 1.117 0 0 1 .362-1.533 1.117 1.117 0 0 1 1.532.362c.322.52.16 1.21-.362 1.532-.52.322-1.21.16-1.532-.362m33.447-1.02c0-2.778 1.47-3.303 3.369-1.204 1.812 2.002 1.254 3.145-1.536 3.145-1.148 0-1.833-.725-1.833-1.941m-147.907-3.886c-.601-1.123-1.093-4.447-1.093-7.388v-5.347l-3-1.132c-2.244-.847-3-1.77-3-3.66 0-1.39.45-2.806 1-3.146 1.302-.805 1.289-4.811-.02-6.12-.561-.561-1.058-5.91-1.103-11.888l-.084-10.868 1.795-1.312c2.758-2.017 4.349-1.586 6.209 1.682 1.341 2.358 2.393 2.995 4.953 3 3.063.006 7.25 2.828 7.25 4.887 0 .485 2.09 2.914 4.646 5.398 5.7 5.54 5.453 7.721-.874 7.721-3.235 0-4.604.502-5.564 2.039-1.48 2.37-2.944 1.785-4.273-1.709-1.115-2.934-4.234-2.815-4.763.181-.194 1.094-1.277 2.715-2.407 3.603l-2.056 1.614 1.149 3.294c.631 1.812 2.106 3.965 3.276 4.784l2.128 1.49-.61 6.531c-.683 7.314-1.89 9.465-3.56 6.346m47.59-.216c-1.093-1.56-2.09-1.962-3.642-1.47-1.177.374-2.762.16-3.53-.477-.765-.636-2.298-1.01-3.406-.833s-2.049-.127-2.09-.677c-.043-.55 1.077-1.144 2.488-1.32l2.566-.32-.284-3.68c-.24-3.108.026-3.68 1.715-3.68 1.59 0 2.064.77 2.31 3.75.234 2.825.753 3.75 2.106 3.75 1.143 0 2.12-1.116 2.69-3.075.491-1.692 1.344-3.076 1.894-3.076s1.403 1.384 1.895 3.076c1.114 3.831 3.844 4.041 5.492.423.835-1.831 1.53-2.331 2.246-1.615.57.57.886 2.1.702 3.402-.274 1.937-.927 2.365-3.61 2.365-2.459 0-3.578.602-4.5 2.421-.673 1.332-1.746 2.593-2.382 2.802s-1.833-.585-2.66-1.766m88.449.289c-2.463-4.601-.597-7.368 3.493-5.18 3.94 2.11 5.177-.158 6.03-11.066.862-11.034.754-16.85-.497-26.75-.087-.687-1.058-1.25-2.158-1.25-1.602 0-2 .667-2 3.35 0 3.412-1.294 8.347-3.251 12.4-.81 1.678-.76 2.861.2 4.655 1.577 2.947.569 5.27-1.531 3.527-.982-.815-1.22-2.314-.794-4.981l.61-3.816-3.79-.318c-2.084-.174-3.977-.887-4.205-1.583-.23-.696.882-2.496 2.47-4 1.587-1.504 3.497-4.234 4.245-6.068.747-1.834 2.413-3.735 3.702-4.225 1.597-.607 2.344-1.69 2.344-3.393 0-3.26 3.844-5.783 8.18-5.367l3.32.319-.262 3.5c-.144 1.925-.747 4.702-1.339 6.172-.781 1.938-.748 4.687.12 10 .658 4.03 1.138 7.778 1.067 8.328-.072.55-.287 5.65-.478 11.334-.254 7.576-.754 10.741-1.875 11.861l-1.527 1.528-3.805-1.256c-2.441-.805-3.925-.896-4.139-.253-.184.551-.934 1.822-1.666 2.824l-1.333 1.822zm-127.997-3.994c-1.093-2.043.387-5.665 1.926-4.714 1.224.756 1.215 5.173-.01 5.931-.523.323-1.385-.225-1.916-1.217m19.418.833a1.117 1.117 0 0 1 .362-1.532 1.117 1.117 0 0 1 1.532.362c.322.52.16 1.21-.362 1.532-.52.322-1.21.16-1.532-.362m96 0a1.117 1.117 0 0 1 .362-1.532 1.117 1.117 0 0 1 1.532.362c.322.52.16 1.21-.362 1.532-.52.322-1.21.16-1.532-.362m-107-1a1.117 1.117 0 0 1 .362-1.532 1.117 1.117 0 0 1 1.532.362c.322.52.16 1.21-.362 1.532-.52.322-1.21.16-1.532-.362m63.783-7.652c-.33-.862-.11-2.058.489-2.658.787-.787 1.503-.748 2.573.14 1.721 1.429 1.047 4.085-1.036 4.085-.784 0-1.695-.705-2.026-1.567m-71.783-2.348a1.117 1.117 0 0 1 .362-1.532 1.117 1.117 0 0 1 1.532.362c.322.52.16 1.21-.362 1.532-.52.322-1.21.16-1.532-.362m21.647-.285c-1.468-1.468-1.506-2.864-.175-6.367l1.026-2.697 1.974 1.787c1.086.983 1.975 2.752 1.975 3.932 0 2.017-1.669 4.545-3 4.545-.33 0-1.14-.54-1.8-1.2m38.88-.894c-2.61-1.044-2.13-1.868 2.15-3.686l2.732-1.16.972 1.817c.661 1.236.604 2.185-.18 2.97-1.357 1.356-2.401 1.367-5.674.06m53.427-3.898c-1.479-1.634-1.676-2.516-.856-3.817.587-.93 1.918-1.691 2.958-1.691 2.328 0 2.979 3.314 1.144 5.824l-1.323 1.809zm209.572-44.897c-1.131-1.589-3.13-3.158-4.441-3.487-2.608-.655-5.235-5.626-4.283-8.106.397-1.035 2.103-1.56 5.364-1.652 10.063-.282 20.832.383 22.031 1.36 1.86 1.515 1.582 9.253-.39 10.89-1.903 1.58-9.648 3.776-13.542 3.84-1.846.03-3.323-.856-4.739-2.845M594.572 307.43c-.949-.949-1.572-3.301-1.572-5.935 0-2.4-.42-5.466-.932-6.814s-.672-5.877-.355-10.065l.576-7.615h2.355c1.99 0 2.357-.505 2.362-3.25.003-1.788.492-5.005 1.088-7.15 1.375-4.953-.309-11.557-3.699-14.504-1.317-1.146-2.429-2.873-2.47-3.84l-.321-7.486c-.255-5.919.551-8.946 1.83-6.877.376.609 1.332 1.107 2.125 1.107 2.324 0 1.847-6.94-.661-9.609l-2.102-2.237 3.352-3.048c2.746-2.496 4.223-3.053 8.168-3.077 2.648-.016 5.632.408 6.63.942 1.47.786 1.734 1.882 1.389 5.75-.235 2.629-.937 6.494-1.56 8.59-.947 3.18-.857 4.28.545 6.654 1.178 1.994 1.68 5.123 1.68 10.47 0 6.177-.315 7.749-1.656 8.263-1.047.402-2.3-.16-3.41-1.531-.965-1.192-2.236-2.167-2.825-2.167-1.486 0-2.3 3.835-1.925 9.075l.316 4.415 2.973.51c4.525.776 7.236 7.337 4.105 9.935-1.098.911-1.91.882-3.57-.128l-2.147-1.307-2.218 2.75c-1.22 1.512-3.182 2.75-4.36 2.75-2.997 0-5.561 2.84-4.874 5.4.31 1.155.57 2.888.577 3.85.024 2.977 3.798 2.067 5.56-1.34l1.598-3.09 1.757 1.59c1.958 1.772 5.099 2.135 5.099.59 0-.55.959-1 2.13-1h2.132l-.76 3.75c-.784 3.863-.874 6.988-.32 11.132.26 1.941-.329 2.605-3.182 3.596-1.925.668-5.38 1.508-7.678 1.868-3.126.49-4.574.259-5.75-.917M597 238c0-1.111-.667-2-1.5-2s-1.5.889-1.5 2 .667 2 1.5 2 1.5-.889 1.5-2"/><path fill="#655555" fill-rule="evenodd" d="M821.541 858.986c-1.009-4.076-.166-31.517.959-31.238 1.31.324 1.867 29.775.605 32.03l-.948 1.694zm-547.976-33.881c-.305-.493.156-1.168 1.023-1.5 2.06-.79 465.764-.79 467.824 0 .867.332 1.328 1.007 1.023 1.5-.737 1.192-469.133 1.192-469.87 0m640.923-234.297c-.368-1.465-.213-3.477.344-4.471l1.011-1.809.669 2.664c.368 1.465.213 3.477-.344 4.471l-1.011 1.809zM404.956 412.372c-.358-7.058.293-77.857.726-78.985 1.757-4.58 2.289 4.473 2.303 39.24l.015 38.128-1.5 1.245c-.825.685-1.52.852-1.544.372m-291.317-20.87c-.92-2.396-.759-10.765.237-12.336.675-1.064.975-.997 1.485.332.92 2.396.759 10.765-.237 12.336-.675 1.064-.975.997-1.485-.332m50.821-2.804c-.372-1.484-.372-3.912 0-5.396.531-2.115.875-2.385 1.593-1.25.504.796.916 2.573.916 3.948s-.412 3.152-.916 3.948c-.718 1.135-1.062.865-1.593-1.25m137.706-2.574c-1.064-.675-.997-.975.332-1.485 2.149-.824 8.855-.824 11.004 0 2.712 1.04-.333 2.33-5.502 2.33-2.475 0-5.1-.38-5.834-.845m201-43c-2.094-1.328 1.03-2.124 8.334-2.124 3.485 0 7.086.288 8.002.64 3.147 1.207-.707 2.33-8.002 2.33-3.85 0-7.6-.381-8.334-.846m60.473-26.818c-.835-.835-.835-103.631 0-105.808.51-1.329.81-1.396 1.485-.332 1.115 1.76 1.13 105.559.015 106.248-.473.292-1.148.244-1.5-.108m-325.473-63.182c-1.064-.675-.997-.975.332-1.485.916-.351 3.392-.639 5.502-.639s4.586.288 5.502.64c2.712 1.04-.333 2.33-5.502 2.33-2.475 0-5.1-.381-5.834-.846"/><path fill="#39373C" fill-rule="evenodd" d="M290.166 799.124c-1.064-.675-.997-.975.332-1.485 2.51-.963 81.798-.738 83.336.237 1.064.675.997.975-.332 1.485-2.51.963-81.798.738-83.336-.237m382.886-.07c-1.135-.719-.865-1.063 1.25-1.594 1.484-.372 3.912-.372 5.396 0 2.115.531 2.385.875 1.25 1.593-.796.504-2.573.916-3.948.916s-3.152-.412-3.948-.916m213.595-43.53c-.357-.933-.267-2.381.202-3.22l.853-1.523.65 1.695c.358.933.268 2.381-.201 3.22l-.853 1.523zm-27.158-41.838c-.406-1.547-.283-3.797.273-5l1.011-2.186.738 2.814c.406 1.547.283 3.797-.273 5l-1.011 2.186zm-96.85-24.184c-.932-2.429-.753-14.774.237-16.336 1.348-2.127 2.126 1.07 2.109 8.666-.016 7.019-1.16 10.76-2.346 7.67m-536-44c-.936-2.44-.75-16.777.237-18.336 1.394-2.2 2.126 1.153 2.109 9.666-.016 7.878-1.105 11.903-2.346 8.67M888.158 589c0-1.375.227-1.937.504-1.25.278.688.278 1.813 0 2.5-.277.688-.504.125-.504-1.25m-93.519-63.498c-.91-2.37-.763-8.758.237-10.336.675-1.064.975-.997 1.485.332.91 2.37.763 8.758-.237 10.336-.675 1.064-.975.997-1.485-.332m-171-149c-.923-2.406-.757-11.768.237-13.336.675-1.064.975-.997 1.485.332.923 2.406.757 11.768-.237 13.336-.675 1.064-.975.997-1.485-.332M475.462 328.75l-4.962-5.25 5.25 4.962c4.878 4.612 5.709 5.538 4.962 5.538-.158 0-2.52-2.363-5.25-5.25"/><path fill="#012348" fill-rule="evenodd" d="M214.097 880.452C197.759 876.908 193 867.966 193 840.81v-14.77l-2.25-.44c-16.1-3.142-22.88-5.956-34.114-14.16-12.305-8.986-21.373-22.67-25.803-38.939l-2.179-8-.413-56.46-.414-56.459-2.055-4.04c-1.13-2.223-3.947-6.516-6.259-9.541-11.315-14.806-16.537-26.59-18.388-41.499-.766-6.169-.659-9.94.469-16.499 1.788-10.404 2.84-13.803 6.651-21.502 8.525-17.218 22.715-30.036 41.866-37.815l3.612-1.467.7-8.03c.385-4.416 1.567-12.228 2.626-17.359 1.058-5.13 1.93-10.12 1.938-11.087.007-.966-4.173-5.97-9.289-11.12-9.64-9.703-19.258-22.743-24.428-33.122-3.656-7.338-7.693-19.47-9.817-29.5-2.558-12.082-2.95-27.817-1.024-41 1.804-12.346 7.468-30.892 12.446-40.753 1.662-3.292 6.283-10.883 10.268-16.867 16.482-24.751 42.224-44.34 69.89-53.186 10.9-3.484 27.538-6.21 37.595-6.16 10.084.052 21.747 2.41 26.923 5.443 5.332 3.125 9.265 8.685 11.073 15.654 1.725 6.65.29 13.515-4 19.14-4.76 6.241-10.717 9.429-19.946 10.674-4.303.58-10.91 1.055-14.685 1.055-14.333 0-29.408 5.125-42.452 14.433-7.293 5.205-17.452 15.825-22.126 23.133-4.259 6.657-7.97 15.035-10.117 22.835-2.174 7.901-2.45 35.463-.437 43.599 2.698 10.903 13.045 30 16.254 30 .515 0 5.087-4.181 10.16-9.292 9.929-10 27.367-22.404 38.765-27.572 17.056-7.733 36.662-12.912 57.17-15.1 13.323-1.421 22.206-1.301 36.724.496 23.83 2.95 43.46 8.577 62.787 17.998 6.171 3.009 11.909 5.47 12.75 5.47H405v-41.053c0-47.174.51-51.678 6.66-58.864 4.253-4.967 8.995-7.548 16.372-8.91 6.327-1.169 13.308-.159 19.416 2.81 5.627 2.733 11.723 7.949 28.795 24.637l14.743 14.412 12.257-.645c6.973-.367 18.24-.143 26.137.52l13.88 1.167 1.904-1.722c1.046-.947 5.488-6.437 9.87-12.2l7.966-10.48.006-55.086c.003-36.525.37-56.404 1.09-58.996 1.576-5.673 5.397-10.94 9.672-13.329 5.438-3.04 13.82-4.262 29.232-4.262 15.504 0 23.795 1.222 29.348 4.327 4.783 2.674 8.17 8.373 9.575 16.107.688 3.79 1.077 26.65 1.077 63.282 0 63.474.041 63.028-6.042 65.149-1.79.624-4.99 1.135-7.107 1.135H626l.007 20.25c.004 11.137.294 23.288.645 27l.637 6.75h43.647c50.034 0 60.97.914 77.724 6.498 12.387 4.128 21.475 8.65 31.24 15.542 10.114 7.138 18.595 15.864 25.242 25.97 6.799 10.337 9.911 16.456 12.727 25.019 3.616 10.997 5.114 20.762 5.791 37.758.357 8.957 1.011 16.51 1.453 16.783s4.286.064 8.542-.464c9.695-1.204 22.957.169 33.286 3.445 18.834 5.974 34.27 19.855 43.127 38.78 1.703 3.64 4.057 11.309 5.23 17.04l2.133 10.421-1.25 8.637c-2.16 14.94-7.64 27.2-18.46 41.299-2.436 3.174-5.123 7.122-5.971 8.772l-1.541 3-.49 55.5-.488 55.5-2.104 9c-2.551 10.918-8.33 22.914-14.953 31.038-5.073 6.223-15.55 14.124-25.148 18.963-3.01 1.518-9.31 3.535-14 4.483l-8.526 1.724-.5 18.896-.5 18.896-2.34 4.751c-1.287 2.613-3.942 6.072-5.9 7.687-1.959 1.614-5.856 3.525-8.66 4.247-6.46 1.663-27.647 1.62-33.484-.067-6.177-1.785-11.416-5.525-13.853-9.886-1.147-2.052-4.651-12.057-7.788-22.232-3.136-10.175-6.117-19.288-6.624-20.25l-.921-1.75H273.135l-.496 1.75c-.272.962-2.142 7.375-4.155 14.25-8.027 27.421-9.274 30.134-15.924 34.653-7.25 4.927-25.125 6.692-38.463 3.8M748.5 796.12l81-.62 6.375-3.328c7.794-4.067 15.024-11.116 18.763-18.291l2.804-5.381.677-28c.372-15.4.73-41.725.794-58.5.126-33.003.756-38.364 5.685-48.431 1.422-2.905 5.825-9.306 9.785-14.226 3.96-4.919 8.185-11.237 9.391-14.04 4.298-9.99 3.86-25.161-1-34.73-2.67-5.256-11.215-14.161-16.637-17.339-5.988-3.509-16.34-6.234-23.682-6.234-14.13 0-25.706 4.34-34.991 13.122-4.948 4.68-10.298 13.148-12.746 20.173-.744 2.136-1.316 22.714-1.714 61.705l-.597 58.5-2.254 6.782c-1.24 3.73-4.606 10.242-7.483 14.47-4.114 6.05-6.842 8.787-12.796 12.836-4.162 2.83-10.674 6.219-14.47 7.53L748.5 744.5h-479l-8-2.765c-11.396-3.94-20.227-10.723-26.531-20.38-2.732-4.184-5.709-9.914-6.616-12.732l-1.65-5.123-.863-59.316-.863-59.316-2.045-6.07c-3.96-11.753-11.794-21.16-21.877-26.27-10.036-5.086-24.67-6.863-36.256-4.403-12.715 2.7-24.177 11.972-29.852 24.147l-3.156 6.773.397 11.727.397 11.728 2.602 5c1.43 2.75 5.134 8.087 8.23 11.86 7.032 8.572 10.232 13.998 12.93 21.926l2.114 6.214.52 59.5.519 59.5 3.11 6.562c3.838 8.1 11.321 15.78 19.093 19.593l5.797 2.845 48.5.527c69.876.76 417.21.823 512.5.093M512 710.676c0-6.793 2.987-22.495 5.74-30.176 1.38-3.85 4.254-10.188 6.385-14.085s3.875-7.61 3.875-8.25c0-.88-33.06-1.165-135.5-1.165H257v42.369l2.102 4.342c2.233 4.612 6.47 8.36 11.398 10.082 2.023.708 41.834 1.075 122.25 1.128L512 715zm240.823.337c2.267-1.642 5.132-4.905 6.365-7.25l2.242-4.263.389-20.343.39-20.344-1.839.354c-1.378.266-4.27 6.483-11.554 24.844-5.343 13.469-9.738 25.726-9.766 27.239L739 714h4.85c3.797 0 5.745-.648 8.973-2.987m-44.099-8.263c1.94-2.502 23.276-56.686 23.276-59.11v-2.496l-5.25-.612c-2.888-.337-13.125-1.265-22.75-2.063-41.214-3.416-58.234-4.593-59.486-4.113-.733.282-2.035 2.925-2.893 5.875s-3.367 8.16-5.577 11.579c-2.92 4.519-5.715 7.314-10.234 10.234-12.276 7.934-23.189 9.07-42.81 4.452-6.325-1.488-14.007-2.932-17.07-3.208l-5.572-.502-2.846 3.357c-1.565 1.846-4.751 7.407-7.08 12.357-4.177 8.878-6.432 16.784-6.432 22.55V704h81.878c64.318 0 82.085-.268 82.846-1.25m-101.763-64.23c1.574-.814 3.802-2.675 4.95-4.135 1.534-1.95 2.089-4.093 2.089-8.07 0-2.978-.637-6.63-1.415-8.115-1.735-3.312-6.9-8.19-11.585-10.941-1.925-1.131-5.75-2.86-8.5-3.843l-5-1.786-36-.654-36-.655-9-2.72c-4.95-1.498-10.854-3.805-13.12-5.128-7.067-4.125-9.594-13.005-5.91-20.769 2.122-4.47 7.057-7.704 11.76-7.704 2.046 0 7.174 1.758 12.382 4.245l8.888 4.245 16.406.344 16.407.343-.61-10.015c-.58-9.515-2.758-20.529-4.824-24.389-1.165-2.176-4.574-2.24-15.379-.288-10.499 1.897-24.103 1.886-35.119-.028-10.902-1.894-29.603-8.043-39.502-12.988-21.854-10.917-38.606-25.918-49.216-44.072-4.441-7.6-9.083-20.878-10.626-30.397-.668-4.125-1.61-8.501-2.093-9.725-1.05-2.66-18.184-11.538-30.984-16.056-12.074-4.262-27.717-7.9-39.96-9.294-13.104-1.491-37.679-.706-48.5 1.55-18.339 3.823-34.87 10.983-47.915 20.753-9.097 6.813-21.878 19.947-27.209 27.961-9.255 13.916-14.227 27.716-15.854 44.003l-.669 6.691 4.324 1.061c14.188 3.48 20.953 6.374 31.323 13.396 9.021 6.108 15.058 12.187 21.056 21.201 5.777 8.682 9.602 17.68 12.051 28.353.912 3.972 1.743 14.282 2.084 25.856l.568 19.25h142.496l1.195-1.44c1.859-2.24.82-6.661-2.07-8.81-1.441-1.07-5.716-2.843-9.5-3.939-5.123-1.484-11.605-2.18-25.38-2.725-19.937-.788-22.827-1.507-26.908-6.697-2.87-3.647-4.265-9.329-3.18-12.944.485-1.62 2.099-5.558 3.584-8.751l2.702-5.806-.354-12.694-.354-12.694-3.21-6.788c-4.002-8.462-12.454-17.489-20.07-21.433-3.14-1.627-8.587-3.795-12.102-4.82-3.934-1.146-7.64-3.039-9.638-4.922-3.983-3.757-5.677-9.203-4.354-13.996 1.296-4.694 6.142-9.311 10.662-10.16 5.054-.947 13.248.934 21.847 5.018 25.462 12.092 40.728 30.752 45.995 56.22 1.571 7.597 1.517 15.525-.189 27.472l-.655 4.591 10.362.641c22.843 1.413 35.598 7.288 57.679 26.565 10.97 9.577 20.02 14.908 30.183 17.777l6.5 1.835 38.5.037 38.5.036 10.5 2.274c5.775 1.251 15.675 4.028 22 6.17 12.631 4.28 20.972 5.083 25.961 2.503m155.19-36.02c1.507-27.78 8.984-46.35 25.649-63.703l6.437-6.702-.705-22.298c-.425-13.466-1.303-25.07-2.217-29.297-.832-3.85-3.507-11.252-5.945-16.449l-4.432-9.449-9.323-9.218c-7.552-7.466-11.035-10.077-18.333-13.742-4.955-2.489-12.558-5.532-16.896-6.764l-7.886-2.238-46.17-.375-46.169-.374.08 12.804c.061 9.886-.422 14.95-2.12 22.217-1.208 5.176-3.541 12.638-5.183 16.581-3.592 8.629-11.194 20.439-17.827 27.694-5.795 6.338-17.676 15.057-28.361 20.812-4.888 2.633-7.75 4.789-7.75 5.838 0 .915.952 4.138 2.115 7.163 1.162 3.025 2.897 9.325 3.854 14l1.74 8.5 22.395.715c12.318.394 27.51 1.424 33.76 2.29 13.777 1.91 27.573 6.183 35.644 11.04 14.025 8.438 20.815 15.553 27.57 28.89l3.58 7.065 3.42.7c1.882.386 10.622 1.425 19.422 2.31 8.8.884 18.7 2.22 22 2.967 3.3.748 7.125 1.284 8.5 1.192l2.5-.169zM670 604.094c0-2.344-7.149-7.24-14.895-10.2-3.742-1.431-8.845-2.312-15.355-2.652-7.885-.412-9.747-.245-9.736.874.008.761 1.743 3.634 3.857 6.384l3.842 5 8.894 1.118c4.891.615 12.156 1.178 16.143 1.25L670 606zM539.146 508.97c10.386-2.116 23.963-7.422 33.597-13.13 3.101-1.837 9.531-7.165 14.289-11.84 6.849-6.73 9.388-10.061 12.198-16 1.951-4.125 4.046-9.3 4.653-11.5 1.652-5.976 1.375-29.772-.436-37.5-.837-3.575-3.306-11.993-5.485-18.707L594 388.085v-51.2l-4.245.308-4.245.307-9.104 12.775c-5.008 7.026-10.185 13.937-11.505 15.356-4.198 4.514-10.677 8.387-15.615 9.335-3.75.72-6.95.458-14.786-1.215-12.725-2.715-27.103-2.703-36.923.032-4.821 1.343-7.973 1.691-10.382 1.148-5.477-1.235-13.688-7.458-27.695-20.99C444.679 339.623 441.484 337 438.865 337H437v25.369c0 27.759-.776 34.562-5.987 52.51-2.558 8.811-3.013 12.08-3.013 21.637 0 8.813.505 13 2.324 19.282 2.808 9.695 7.215 17.262 15.048 25.843 6.982 7.648 15.209 13.67 26.128 19.123 15.822 7.904 25.083 10.049 43.843 10.157 10.23.058 16.442-.45 23.803-1.95M512.5 497.38c-8.89-2.189-12.255-6.549-11.656-15.097.086-1.219 1.68-3.74 3.544-5.604 2.326-2.327 4.713-3.6 7.622-4.065l4.236-.677-.8-4.218c-1.69-8.933-.137-13.94 5.212-16.804 3.461-1.852 18.706-1.895 23.043-.064 1.76.743 3.973 2.53 4.917 3.97 1.957 2.987 2.297 10.664.549 12.412-2.094 2.094-1.33 4.69 1.583 5.388 4.843 1.161 8.176 3.334 9.733 6.346 3.309 6.399.88 14.098-5.3 16.803-2.87 1.256-7.767 1.666-22.183 1.858-10.175.135-19.4.023-20.5-.248m-26.135-47.372c-1.725-.39-4.486-1.67-6.137-2.845-3.06-2.18-6.228-8.47-6.228-12.368 0-3.857 4.02-10.645 7.626-12.873 4.725-2.92 12.165-2.92 16.268.002 1.664 1.186 4.03 3.566 5.259 5.29 2.863 4.021 2.993 11.033.29 15.625-3.351 5.691-10.443 8.668-17.078 7.169m75.805-.674c-3.325-.705-9.937-7.668-10.963-11.545C548.8 428.695 557.335 418 567 418c7.637 0 14.862 6.595 15.738 14.365.96 8.512-5.632 16.6-13.994 17.173-2.334.16-5.293.068-6.574-.204m109.838-113.173c-1.37-.411-3.051-1.853-3.735-3.204-.95-1.875-1.247-16.477-1.258-61.658-.01-39.207.356-60.99 1.084-64.5.605-2.914 2.18-7.178 3.499-9.475 1.76-3.062 3.846-4.883 7.82-6.828 4.564-2.233 7.223-2.741 16.796-3.213 13.454-.662 23.486.795 29.462 4.28 3.041 1.773 4.896 3.908 6.829 7.857 1.459 2.983 5.568 15.02 9.132 26.751s8.525 28.079 11.026 36.329 4.943 15.745 5.427 16.656l.88 1.656 23.265.344 23.265.344 4.706 2.318c5.877 2.895 10.327 7.877 11.986 13.419.787 2.632 1.282 10.085 1.292 19.485l.016 15.222-2.278 2.278-2.278 2.278h-10.936c-14.276 0-14.389-.103-14.852-13.534l-.343-9.966H766.78l.448 3.25c.246 1.788 1.29 6.29 2.32 10.004l1.871 6.754-1.746 1.746c-1.464 1.465-3.654 1.746-13.605 1.746-13.572 0-14.92-.616-16.986-7.766-2.846-9.846-33.237-107.43-34.098-109.484-.62-1.481-1.795-2.25-3.44-2.25h-2.498l-.273 57.965-.274 57.965-1.76 1.76c-1.417 1.415-3.767 1.805-12 1.989-5.632.126-11.361-.108-12.732-.518M612 262.96v-44.039l-8.75.29-8.75.288-.238 35.5c-.13 19.525.022 39.212.34 43.75l.578 8.25H612z"/><path fill="#030527" fill-rule="evenodd" d="M638.553 334.085a1.117 1.117 0 0 1 .362-1.532 1.117 1.117 0 0 1 1.532.362c.322.52.16 1.21-.362 1.532-.52.322-1.21.16-1.532-.362"/></svg>