<svg version="1.1" xmlns="http://www.w3.org/2000/svg" style="display: block;" viewBox="0 0 2048 2048" width="1024" height="1024">
<path transform="translate(0,0)" fill="rgb(0,35,73)" d="M 1129.1 623.142 C 1130.87 573.606 1129.21 523.433 1129.19 473.849 C 1129.18 453.568 1127.25 431.001 1130.37 410.977 C 1131.49 403.77 1134.06 397.204 1138.91 391.665 C 1147.45 381.917 1160.04 378.535 1172.55 378.02 C 1187.66 377.398 1238.59 376.58 1251.85 379.473 C 1258.74 380.975 1265.12 383.984 1270.22 388.918 C 1281.68 400.019 1281.88 415.297 1281.92 430.12 C 1300.61 430.101 1319.34 429.817 1338.02 430.286 L 1337.87 588.865 L 1337.98 635.447 C 1338 643.9 1338.65 653.084 1337.67 661.447 C 1337.28 664.132 1337.31 667.412 1335.72 669.632 C 1318.02 671.202 1299.74 669.855 1281.96 669.987 L 1248.89 669.875 C 1248.91 687.831 1248.27 706.039 1249.09 723.962 L 1249.48 741.852 C 1249.63 755.112 1249.04 768.897 1250.27 782.075 C 1250.29 783.642 1249.98 784.384 1250.93 785.677 L 1252.2 785.758 C 1268.54 786.697 1285.22 786.044 1301.6 786.023 L 1388.61 785.903 C 1408.14 785.886 1428.11 785.031 1447.55 786.809 C 1502.9 791.874 1555.2 816.356 1592.58 857.78 C 1635.54 905.377 1643.17 950.986 1644.1 1012.42 C 1643.65 1022.51 1643.83 1032.61 1643.91 1042.7 C 1650.97 1040.94 1658.13 1040.59 1665.13 1038.99 C 1706.61 1035.14 1747.58 1043.36 1780.15 1070.41 C 1808.77 1094.6 1826.74 1129.07 1830.18 1166.39 C 1833.31 1201.85 1822.13 1230.16 1804.59 1260.15 C 1795.77 1271.76 1782.51 1285.68 1778.43 1299.9 C 1773.21 1318.11 1775.7 1340.39 1775.75 1359.25 L 1775.76 1449.46 C 1775.74 1481.62 1777.92 1515.56 1769.86 1546.96 C 1756.19 1600.42 1711.35 1640.19 1656.64 1647.36 C 1652.49 1647.92 1648.36 1648.19 1644.17 1648.34 C 1644.39 1668.58 1647.31 1710.24 1643.41 1727.17 C 1641.65 1734.82 1637.81 1742.58 1632.12 1748.07 C 1629.69 1750.41 1626.88 1752.49 1624.08 1754.38 C 1614.59 1758.54 1605.87 1759.29 1595.64 1760.08 C 1575.1 1757.36 1550.56 1765.05 1532.31 1752.2 C 1526.38 1748.03 1521.73 1742.31 1518.42 1735.9 C 1511.91 1723.26 1493.84 1662.33 1491.48 1648.28 C 1458.28 1648.9 1424.99 1648.52 1391.77 1648.57 L 633.289 1648.5 C 603.836 1648.45 574.124 1649.23 544.704 1648.14 C 540.854 1664.6 535.681 1680.79 530.956 1697.02 C 527.304 1709.57 524.399 1723.96 518.257 1735.52 C 514.428 1742.73 508.909 1749.13 501.964 1753.5 C 484.441 1764.51 460.594 1757.43 441.356 1760.08 C 433.082 1759.66 425.148 1758.75 417.236 1756.22 C 412.324 1753.85 407.746 1751.11 403.825 1747.28 C 398.136 1741.74 394.087 1734.75 392.126 1727.05 C 387.491 1709.45 390.201 1668.91 390.174 1648.58 C 353.801 1647.08 321.852 1632.34 296.769 1605.79 C 281.464 1589.77 270.557 1570.07 265.104 1548.59 C 257.442 1518.73 260.076 1485.11 260.115 1454.43 L 260.237 1359.01 C 260.255 1341.7 262.017 1322.41 258.287 1305.51 C 255.794 1294.22 247.987 1284.4 241.167 1275.39 C 211.587 1236.29 203.153 1212.2 204.738 1163.01 C 208.343 1141.42 214.724 1124.47 224.6 1105.07 C 229.156 1101.6 235.377 1090.11 239.586 1085.12 C 258.551 1062.66 284.361 1048.33 312.157 1039.98 C 311.684 1012.35 315.38 987.855 323.284 961.418 C 286.479 934.437 256.189 893.353 241.702 850.203 C 219.808 784.988 227.236 713.014 257.461 651.791 L 261.45 644.282 C 273.891 623.421 287.243 603.808 304.228 586.294 C 357.115 531.761 416.235 506.384 491.977 505.134 C 513.197 506.324 536.842 506.007 552.495 522.934 C 560.367 531.446 564.133 543.171 564.344 554.633 C 563.073 568.79 559.719 581.416 548.126 590.79 C 531.58 604.169 509.395 601.275 489.519 602.329 C 479.92 602.838 470.259 604.282 460.859 606.269 C 393.423 620.523 340.436 681.308 332.005 749.104 C 325.688 799.895 340.045 841.354 370.544 881.495 C 417.541 820.248 487.789 784.775 563.529 774.729 C 650.486 762.598 738.955 781.097 813.766 827.055 L 813.859 706.48 C 813.864 686.142 812.094 663.78 814.88 643.685 C 816.13 634.671 818.69 627.172 823.928 619.627 C 835.198 607.887 847.58 601.984 863.991 601.589 C 898.59 600.755 920.85 627.276 943.796 649.452 C 953.29 658.627 962.401 668.352 972.096 677.293 C 975.922 681.275 980.75 687.35 986.874 687.071 C 989.428 686.955 992.016 686.427 994.533 685.989 C 1009.66 685.663 1024.66 684.695 1039.8 685.456 C 1052.66 686.103 1066.29 688.545 1079.06 688.123 C 1081.49 688.429 1084.26 688.939 1086.67 688.323 C 1091.7 687.04 1094.68 681.528 1097.48 677.572 C 1102.98 671.298 1107.82 664.159 1112.85 657.489 C 1118.73 650.93 1124.77 643.426 1129.29 635.876 C 1129.38 631.619 1129.26 627.395 1129.1 623.142 z"/>
<path transform="translate(0,0)" fill="rgb(219,148,134)" d="M 1281.92 430.12 C 1300.61 430.101 1319.34 429.817 1338.02 430.286 L 1337.87 588.865 L 1337.98 635.447 C 1338 643.9 1338.65 653.084 1337.67 661.447 C 1337.28 664.132 1337.31 667.412 1335.72 669.632 C 1318.02 671.202 1299.74 669.855 1281.96 669.987 L 1281.92 430.12 z"/>
<path transform="translate(0,0)" fill="rgb(254,190,66)" d="M 343.088 1091.37 C 343.543 1091.31 343.996 1091.23 344.454 1091.18 C 370.112 1088.46 398.878 1096.85 418.931 1113.07 C 434.311 1125.52 445.185 1143.36 450.271 1162.42 C 455.648 1182.57 453.989 1204.24 454.242 1224.91 C 454.76 1261.57 454.991 1298.24 454.936 1334.91 C 454.975 1356.42 453.685 1379.01 456.148 1400.38 C 459.334 1426.41 472.912 1450.04 493.795 1465.91 C 508.715 1477.46 527.443 1484.33 546.177 1486.12 C 565.773 1487.99 586.2 1486.9 605.887 1486.88 L 709.526 1486.82 L 1058.69 1486.87 L 1354.14 1486.86 L 1439.41 1486.91 C 1457.51 1486.95 1476.48 1488.03 1494.43 1485.72 C 1509.8 1483.73 1524.48 1477.25 1537.29 1468.68 C 1557.01 1455.75 1571.41 1436.15 1577.84 1413.46 C 1583.48 1393.92 1582.02 1372.39 1582 1352.24 L 1581.9 1243.46 C 1581.89 1220.05 1579.78 1194.5 1584.47 1171.55 C 1587.61 1155.69 1594.42 1140.78 1604.34 1128.01 C 1621.15 1106.48 1645.48 1094.43 1672.38 1091.42 C 1698.43 1088.66 1724.52 1096.25 1745.04 1112.54 C 1762.96 1126.82 1774.29 1147.78 1776.41 1170.6 C 1779.61 1204.74 1762.29 1225.99 1741.76 1250.74 C 1733.38 1261.98 1726.78 1274.67 1723.81 1288.45 C 1718.73 1312 1721.22 1345.47 1721.14 1370.42 L 1720.16 1476 C 1720.09 1493.09 1722.06 1512.34 1718.47 1529.09 C 1715.97 1540.35 1711.16 1550.98 1704.35 1560.29 C 1690.56 1579.09 1668.89 1591.68 1645.9 1595.09 C 1627.97 1597.74 1608.3 1596.25 1590.12 1596.25 L 1489.93 1596.22 L 1167.71 1597.08 L 643.245 1596.73 L 482.698 1596.31 C 452.567 1596.31 421.388 1598.03 391.406 1595.73 C 375.638 1594.52 359.993 1587.78 347.495 1578.21 C 334.174 1568.01 323.62 1553.44 318.728 1537.35 C 311.318 1512.98 314.397 1471.54 314.433 1445.03 L 314.588 1344.48 C 314.595 1327.25 316.181 1307.93 312.464 1291.07 C 302.894 1247.64 265.285 1231.89 260.156 1189.92 C 257.311 1166.63 263.662 1144.18 278.1 1125.72 C 294.494 1104.76 317.213 1094.65 343.088 1091.37 z"/>
<path transform="translate(0,0)" fill="rgb(70,115,155)" d="M 598.293 826.412 C 664.48 820.892 739.64 846.452 796.335 878.94 C 797.14 890.577 798.26 902.044 800.871 913.436 C 812.987 966.289 847.851 1007.6 893.362 1035.7 C 956.658 1074.78 1021.56 1085.44 1093.88 1068.36 C 1107.65 1093 1109.53 1122.36 1110.29 1149.97 C 1087.92 1150.08 1062.42 1152.75 1040.8 1146.45 C 1028.02 1142.73 1013.39 1130.84 1001.11 1130.07 C 994.464 1129.66 988.77 1131.53 983.848 1135.98 C 977.936 1141.31 974.312 1148.49 973.993 1156.5 C 973.686 1164.21 976.429 1172.56 981.8 1178.17 C 1008.43 1205.99 1109.44 1196.94 1147.93 1198.16 C 1174.59 1199 1202.93 1206.27 1221.59 1226.59 C 1228.41 1234.01 1232.38 1243.97 1231.65 1254.1 C 1231.04 1262.76 1227 1271.19 1220.3 1276.76 C 1201.6 1292.32 1175.47 1279.16 1155.89 1272.51 C 1133.54 1264.93 1108.52 1259.53 1084.98 1258.25 C 1031.88 1255.38 969.621 1268.31 919.098 1250.82 C 900.339 1244.32 884.82 1232.57 870.022 1219.65 C 834.974 1189.04 808.266 1169.45 760.25 1166.02 C 749.379 1165.54 738.489 1165.76 727.611 1165.84 C 731.718 1150.77 735.28 1136.06 734.945 1120.3 C 733.976 1081.27 717.343 1044.27 688.792 1017.64 C 670.186 999.989 631.409 975.342 604.809 976.679 C 597.561 977.043 590.701 979.891 585.916 985.455 C 581.553 990.53 579.014 998.28 579.529 1004.96 C 581.209 1026.77 608.852 1029.91 624.63 1036.81 C 633.226 1040.62 641.234 1045.64 648.414 1051.71 C 675.283 1074.42 689.421 1115.45 679.892 1149.73 C 676.174 1163.1 666.762 1176.1 668.421 1190.47 C 669.115 1196.49 672.281 1204.4 677.461 1207.95 C 692.098 1217.99 726.271 1213.26 744.489 1214.81 C 756.123 1215.8 767.581 1218.17 778.839 1221.23 C 786.014 1223.17 794.337 1225.23 800.1 1230.16 C 803.274 1232.87 805.175 1236.38 805.377 1240.58 C 805.557 1244.31 804.657 1248.27 801.888 1250.93 C 798.494 1254.2 794.851 1255.5 790.238 1255.97 C 780.103 1257 769.27 1256.05 759.068 1255.96 L 704.964 1255.93 L 507.015 1256.01 C 508.002 1197.29 512.574 1143.23 472.649 1094.68 C 445.701 1061.91 408.449 1041.88 366.328 1037.64 C 368.887 988.973 384.24 947.838 416.325 910.713 C 463.859 855.714 527.151 831.339 598.293 826.412 z"/>
<path transform="translate(0,0)" fill="rgb(254,190,66)" d="M 1266.39 840.055 L 1366.28 840.031 C 1433.68 839.974 1493.18 837.001 1545.54 888.261 C 1596.38 938.033 1590.23 1001.1 1591.07 1065.87 C 1583.7 1073.36 1575.75 1079.89 1568.79 1087.87 C 1544.36 1115.88 1531.8 1149.8 1528.61 1186.61 C 1527.21 1202.71 1527.31 1218.9 1525.96 1235.02 C 1508.46 1230.54 1491.11 1227.58 1473.24 1225.12 C 1452.23 1222.94 1431.09 1220.62 1409.97 1219.95 C 1401.26 1197.24 1390.86 1177.92 1372.2 1161.77 C 1331.69 1126.71 1282.18 1122.43 1231.01 1120.53 C 1208.48 1119.69 1185.07 1119.19 1162.58 1120.7 C 1161.31 1096.14 1154.14 1073.99 1143.71 1051.93 C 1181.89 1035.83 1216.25 1011.71 1239.46 976.85 C 1266.05 936.554 1275.72 887.42 1266.39 840.055 z"/>
<path transform="translate(0,0)" fill="rgb(70,115,155)" d="M 872.036 668.914 C 901.386 671.872 937.826 735.793 972.637 746.567 C 987.116 751.049 1013.23 738.986 1030.76 738.754 C 1049.02 738.513 1066.63 746.435 1084.83 747.628 C 1121.5 750.031 1138.66 716.824 1156.68 690.758 C 1161.53 683.751 1166.21 676.477 1172.71 670.876 C 1173.02 670.616 1173.33 670.366 1173.63 670.111 C 1178.27 669.942 1185.3 668.965 1189.34 671.465 C 1192.8 673.603 1191.99 690.424 1191.99 694.396 L 1191.81 747.555 C 1191.77 758.595 1190.82 770.84 1192.81 781.701 C 1195.32 795.365 1201.84 808.343 1205.79 821.683 C 1218.4 864.343 1219.05 903.983 1197.46 943.644 C 1195.65 946.579 1193.83 949.511 1191.82 952.309 C 1162.58 992.981 1112.27 1016.43 1063.8 1023.84 C 1008.92 1032.22 954.521 1017.74 910.003 984.74 C 880.18 962.634 858.094 929.054 852.896 892.016 C 847.499 853.567 860.827 834.296 867.219 799.262 C 869.022 789.377 869.052 779.754 869.075 769.74 L 868.96 707.23 C 868.938 696.78 868.208 685.609 869.331 675.232 C 869.619 672.569 870.44 671.024 872.036 668.914 z"/>
<path transform="translate(0,0)" fill="rgb(0,35,73)" d="M 1047.03 902.151 C 1055.53 901.883 1064.1 901.632 1072.61 901.752 C 1080.27 901.86 1089.33 903.243 1094.72 909.285 C 1098.27 913.264 1099.27 918.461 1098.78 923.647 C 1097.75 934.461 1090.98 941.691 1082.95 948.115 C 1093.97 947.811 1106.2 946.483 1115.16 954.338 C 1119.28 957.92 1121.74 963.055 1121.94 968.516 C 1122.18 974.601 1119.92 981.041 1115.69 985.464 C 1107.8 993.724 1090.05 991.129 1079.5 991.03 C 1064.93 990.937 1019.75 994.941 1010.22 985.999 C 1006.14 982.176 1004.16 976.485 1003.93 970.997 C 1003.67 964.93 1005.5 958.605 1009.79 954.176 C 1017.91 945.796 1034.55 947.947 1045.34 948.138 C 1040.9 943.95 1036.69 939.463 1034.15 933.833 C 1031.36 927.632 1029.98 920.181 1032.79 913.722 C 1035.56 907.355 1040.77 904.366 1047.03 902.151 z"/>
<path transform="translate(0,0)" fill="rgb(0,35,73)" d="M 1129.41 838.661 C 1145.46 836.205 1160.47 847.2 1162.98 863.246 C 1165.48 879.291 1154.53 894.338 1138.49 896.891 C 1122.39 899.454 1107.26 888.447 1104.75 872.333 C 1102.23 856.219 1113.28 841.127 1129.41 838.661 z"/>
<path transform="translate(0,0)" fill="rgb(0,35,73)" d="M 976.221 841.555 C 991.957 839.584 1006.32 850.713 1008.35 866.442 C 1010.37 882.171 999.289 896.574 983.566 898.651 C 967.769 900.737 953.283 889.592 951.25 873.788 C 949.217 857.984 960.41 843.535 976.221 841.555 z"/>
<path transform="translate(0,0)" fill="rgb(254,190,66)" d="M 509.069 1310 L 1066.35 1310.03 C 1045.25 1333.8 1033.6 1366.77 1029.14 1397.77 C 1027.88 1409.56 1028 1421.22 1028.42 1433.05 L 700.955 1432.95 L 604.953 1433.08 C 587.421 1433.1 568.928 1434.24 551.504 1432.4 C 542.324 1431.43 533.427 1428.07 526.43 1421.96 C 519.827 1416.24 514.997 1408.75 512.511 1400.37 C 506.818 1380.83 510.253 1333.44 509.069 1310 z"/>
<path transform="translate(0,0)" fill="rgb(219,148,134)" d="M 1284.37 1263.97 C 1303.26 1266.22 1322.51 1266.87 1341.49 1268.37 C 1384.85 1271.61 1428.15 1275.58 1471.38 1280.28 L 1418.2 1411.72 C 1364.33 1412.41 1310.38 1411.81 1256.5 1411.8 L 1083.77 1411.85 C 1086.22 1380.42 1098.08 1343.63 1121.5 1321.39 C 1139.74 1324.14 1157.33 1329.32 1175.4 1332.81 C 1201.82 1337.91 1228.61 1338.02 1251.53 1322.12 C 1272.08 1307.87 1280.19 1287.84 1284.37 1263.97 z"/>
<path transform="translate(0,0)" fill="rgb(70,115,155)" d="M 1191.06 433.364 C 1200.41 432.94 1211.19 431.996 1220.42 433.406 C 1221.99 433.645 1225.6 434.355 1226.39 435.816 C 1228.38 439.503 1229.59 605.993 1227.1 613.414 C 1226.21 616.084 1224.07 616.57 1221.78 617.752 C 1212.71 617.996 1193.7 620.504 1186.47 615.125 C 1184.21 604.671 1183.46 448.947 1185.48 439.399 C 1186.19 436.058 1188.37 434.974 1191.06 433.364 z"/>
<path transform="translate(0,0)" fill="rgb(254,190,66)" d="M 1526.39 1289.78 C 1527.64 1291.14 1527.45 1292.6 1527.47 1294.39 C 1527.63 1306.62 1526.87 1318.93 1526.87 1331.19 C 1526.87 1350.78 1529.52 1379.14 1524.73 1397.66 C 1522.65 1405.72 1518.88 1412.97 1513.05 1418.96 C 1501.48 1430.84 1487.86 1432.25 1472.25 1432.56 C 1470.69 1431.92 1471.38 1432.43 1470.29 1430.92 L 1505.7 1341.59 C 1512.53 1324.35 1518.83 1306.7 1526.39 1289.78 z"/>
<path transform="translate(0,0)" fill="rgb(70,115,155)" d="M 1244.09 1176.9 C 1260.04 1176.4 1278.23 1177.3 1293.93 1180.26 C 1318.62 1184.91 1339.88 1197.35 1354.04 1218.29 C 1327.72 1215.82 1301.16 1212.15 1274.71 1212.01 C 1266.02 1198.07 1257.04 1187.07 1244.09 1176.9 z"/>
<path transform="translate(0,0)" fill="rgb(219,148,134)" d="M 1067.35 324.061 L 1067.45 325.088 C 1068.98 342.01 1067.87 359.911 1067.87 376.924 L 1067.86 474.526 L 1067.85 578.92 C 1067.85 595.317 1069.04 612.468 1067.83 628.765 C 1067.33 635.507 1065.89 642.422 1061.42 647.713 C 1056.52 653.502 1049 656.758 1041.5 657.144 C 1033.86 657.537 1025.75 654.734 1020.15 649.483 C 1008.8 638.834 1012.16 616.805 1012.14 602.461 L 1012.09 396.127 L 1012.1 333.851 C 1012.11 322.758 1011.28 310.899 1012.54 299.904 C 1013.24 293.705 1015.4 287.399 1019.87 282.889 C 1025.38 277.332 1032.25 275.017 1039.89 274.357 C 1064.09 272.268 1097.78 274.193 1123.11 274.195 L 1298.45 274.176 L 1578.31 274.151 C 1625.17 274.15 1672.4 272.761 1719.2 274.255 C 1729.29 274.577 1737.71 276.055 1744.74 283.964 C 1749.54 289.355 1751.28 295.435 1751.72 302.501 C 1752.57 316.367 1751.84 330.585 1751.83 344.487 L 1751.81 422.468 L 1751.81 669.826 L 1751.81 891.335 L 1751.82 961.899 C 1751.83 973.251 1752.63 985.048 1751.79 996.345 C 1751.18 1004.52 1748.6 1012.88 1742.24 1018.43 C 1736.36 1023.55 1728.58 1024.74 1721.01 1023.85 C 1717.83 1023.47 1714.55 1022.71 1711.53 1021.66 L 1710.89 1021.22 C 1708.63 1019.44 1706.34 1017.65 1704.34 1015.57 C 1700.31 1011.38 1698.27 1007.12 1697.47 1001.37 C 1696.05 991.12 1696.86 980.04 1696.91 969.688 L 1697.03 917.422 L 1697.02 723.816 C 1646.85 724.839 1596.46 723.901 1546.26 723.899 L 1249.09 723.962 C 1248.27 706.039 1248.91 687.831 1248.89 669.875 L 1281.96 669.987 C 1299.74 669.855 1318.02 671.202 1335.72 669.632 C 1337.31 667.412 1337.28 664.132 1337.67 661.447 C 1338.65 653.084 1338 643.9 1337.98 635.447 L 1337.87 588.865 L 1338.02 430.286 C 1338.09 422.555 1338.15 415.071 1339.5 407.438 C 1341.73 399.209 1345.72 393.591 1351.04 387.177 C 1355.27 384.586 1360.07 381.2 1364.84 379.835 C 1377.61 376.179 1425.06 376.571 1438.16 379.832 C 1446.14 381.817 1451.7 384.939 1457.86 390.289 C 1460.71 394.258 1463.1 398.116 1464.96 402.653 C 1475.63 428.651 1482.53 457.495 1490.75 484.405 C 1498.9 511.115 1509.31 538.762 1514.78 566.102 L 1573.64 565.907 C 1586 565.867 1599.77 564.592 1611.89 567.06 C 1619.71 568.651 1627.29 572.294 1633.03 577.874 C 1634.66 579.46 1636.14 581.155 1637.57 582.92 C 1647.75 604.716 1643.9 644.614 1643.79 669.188 C 1661.51 668.408 1679.33 668.793 1697.07 668.835 L 1696.96 323.942 L 1285.21 323.917 C 1212.62 323.915 1139.93 323.139 1067.35 324.061 z M 1394.1 649.329 C 1393.93 656.002 1393.87 662.678 1393.91 669.353 C 1411.68 668.24 1429.78 668.883 1447.6 668.903 C 1459.81 668.916 1472.73 668.073 1484.84 669.351 C 1477.11 650.141 1471.6 628.919 1465.83 608.985 C 1454.69 575.383 1444.57 541.4 1434.06 507.595 C 1426.28 482.548 1417.79 457.515 1410.9 432.218 C 1405.06 431.419 1399.86 431.145 1393.96 432.003 C 1393.44 478.506 1393.78 525.04 1393.82 571.547 C 1393.84 597.254 1392.65 623.714 1394.1 649.329 z"/>
<path transform="translate(0,0)" fill="rgb(0,35,73)" d="M 1351.04 387.177 C 1355.27 384.586 1360.07 381.2 1364.84 379.835 C 1377.61 376.179 1425.06 376.571 1438.16 379.832 C 1446.14 381.817 1451.7 384.939 1457.86 390.289 C 1460.71 394.258 1463.1 398.116 1464.96 402.653 C 1475.63 428.651 1482.53 457.495 1490.75 484.405 C 1498.9 511.115 1509.31 538.762 1514.78 566.102 L 1573.64 565.907 C 1586 565.867 1599.77 564.592 1611.89 567.06 C 1619.71 568.651 1627.29 572.294 1633.03 577.874 C 1634.66 579.46 1636.14 581.155 1637.57 582.92 C 1647.75 604.716 1643.9 644.614 1643.79 669.188 C 1626.19 670.972 1607.85 669.977 1590.19 669.771 C 1572.47 669.262 1554.43 668.747 1536.74 669.976 C 1519.79 669.287 1501.55 671.948 1484.84 669.351 C 1477.11 650.141 1471.6 628.919 1465.83 608.985 C 1454.69 575.383 1444.57 541.4 1434.06 507.595 C 1426.28 482.548 1417.79 457.515 1410.9 432.218 C 1405.06 431.419 1399.86 431.145 1393.96 432.003 C 1393.44 478.506 1393.78 525.04 1393.82 571.547 C 1393.84 597.254 1392.65 623.714 1394.1 649.329 C 1393.93 656.002 1393.87 662.678 1393.91 669.353 C 1382.48 671.059 1350.67 670.969 1338.97 669.536 C 1337.43 667.202 1337.76 664.152 1337.67 661.447 C 1338.65 653.084 1338 643.9 1337.98 635.447 L 1337.87 588.865 L 1338.02 430.286 C 1338.09 422.555 1338.15 415.071 1339.5 407.438 C 1341.73 399.209 1345.72 393.591 1351.04 387.177 z"/>
<path transform="translate(0,0)" fill="rgb(70,115,155)" d="M 1536.74 669.976 L 1539.52 668.561 C 1541.68 660.393 1524.71 626.835 1532.94 622.583 C 1537.32 620.322 1580.67 621.516 1585.99 623.089 C 1588.87 625.609 1589.54 626.906 1589.83 630.748 C 1590.78 643.685 1589.16 656.868 1590.19 669.771 C 1572.47 669.262 1554.43 668.747 1536.74 669.976 z"/>
</svg>