<svg xmlns="http://www.w3.org/2000/svg" width="1365.333" height="1365.333" preserveAspectRatio="xMidYMid meet" version="1.0" viewBox="0 0 1024 1024"><path fill="#000" d="M0 512v512h1024V0H0zm869.9-372.1c6.5 4.7 6.1-8.3 6.1 185.3 0 165.8-.1 176.5-1.8 179.8-4.1 8.2-16.1 9.3-22.7 2-1.9-2.2-2-4-2.5-73.4l-.5-71.1-112-.5-112-.5-.3-13.2-.3-13.2 8.3-.3 8.3-.3.3-59.8.2-59.7h28l.2 59.7.3 59.8h88c48.4 0 88.8-.3 89.8-.7 1.6-.7 1.7-5.5 1.5-86l-.3-85.3h-314L534 241c-.4 60.1-.8 79-1.7 80.7-1.8 3.1-6.3 6-10.3 6.8-4.9.8-11.9-2.8-14.3-7.5-1.6-3.3-1.7-9.1-1.5-89.2.3-84.9.3-85.7 2.4-88.5 1.1-1.5 3.6-3.6 5.5-4.6 3.2-1.6 13.3-1.7 177.9-1.5l174.5.3zM733.8 422.8c27.1 7.1 47.4 24.5 55.9 48 4 10.9 5.1 19.4 5.4 41.4l.3 20.7-6.3 6.2c-16.5 16.4-23.4 33.5-25.1 61.7-.5 8.5-1.1 15.6-1.4 15.9s-3.8-.2-7.8-1c-10.2-2.2-19-3.4-35.3-4.7-7.7-.7-14.3-1.5-14.6-1.9-.3-.3-1.6-3.1-2.8-6.1-7-17.7-26.1-32.8-48.8-38.6-10.9-2.7-31.9-4.4-56.3-4.4h-15.6l-1.1-7.9c-.7-4.4-2.7-12.1-4.6-17.1l-3.5-9.1 5.5-2.4c8.3-3.7 22-13 29.1-19.9 12-11.5 20.4-25.7 24.9-42.4 2.2-8 2.7-11.9 2.7-22.7.1-7.2-.3-14.3-.7-15.8l-.8-2.8 46.3.4c43.7.3 46.8.5 54.6 2.5M193.5 548.1c7.7 2.4 17.3 8.6 22 14.3 5.2 6.4 9.6 16.7 10.6 24.9.5 4 1.3 32.4 1.7 63.2l.7 56 3.7 7.8c4.6 9.5 13.6 19 21.9 23.1 12.3 6-4.9 5.6 255 5.6 234.4 0 238.8 0 245-2 18.5-5.7 33-21.7 35.9-39.5.6-3.3 1-29.3 1-58.5 0-56.6.3-59.7 5.4-69.8 8.1-15.9 22.3-25.5 41.1-27.6 11.9-1.4 27.1 3.6 36.3 11.9 10.4 9.4 14.7 19.7 14 33.9-.5 11.3-3 16.8-12.8 29.1-14 17.3-13.2 12.1-14.4 84.5l-1.1 61.5-3.3 6.7c-5.5 11.1-14.8 19.1-26.9 22.8-5.9 1.8-13 1.9-199 2.5-106 .3-248.6.2-316.8-.2l-124-.8-6.8-3.2c-12.8-6.1-22.2-18-24.7-31.2-.6-3.2-1-27.7-1-60.1 0-51.9-.1-55.1-2-61.1-2.5-8-6.4-14.7-13-22.4-2.8-3.3-6.5-8.9-8.3-12.5-3-6.1-3.2-7.1-3.2-17.5 0-10.3.2-11.4 3.1-17.5 10.5-22 34.8-31.7 59.9-23.9m468 85.4c33.3 2.5 55.7 4.5 65.1 5.6l9 1.1-13.1 32.7-13.2 32.6-83.6.3-83.7.2v-2.8c0-13 14-42.2 20.2-42.2 1.1 0 7.9 1.4 15.1 3.1 17.3 4 28.3 4.7 36.2 2.5 14.4-4.2 24.6-14.9 27.5-29.1.6-3 1.2-5.5 1.3-5.5s8.8.7 19.2 1.5m102 39.1c-.8 26.3-.8 26.8-3.4 31.8q-5.55 10.65-18.9 11.4c-5.2.4-6.4.2-6-.9 1.3-3 26.1-65.5 26.9-67.8.5-1.3 1.2-2.1 1.5-1.8s.3 12.6-.1 27.3m-234.2-12.4C519.2 675.3 514 692 514 709.8v7.3l-120.7-.3c-115.6-.3-121-.4-124.3-2.2-1.9-1-5-3.2-6.8-5-6.5-6-6.7-6.9-7.2-31.9l-.5-22.7h278.4z"/></svg>