<?xml version="1.0" encoding="UTF-8"?>
<!-- Generator: visioncortex VTracer 0.6.4 -->
<svg version="1.1" xmlns="http://www.w3.org/2000/svg" width="1024" height="1024">
<path d="M0 0 C7.04 1.62 13.12 4.04 19.25 7.88 C23.45 10.88 26.94 14.08 30 18.26 C33.88 24.43 37.23 31.17 38.78 38.33 C39.43 43.23 39.44 48.09 39.48 53.03 C39.5 54.14 39.51 55.26 39.52 56.41 C39.55 58.82 39.58 61.24 39.6 63.66 C39.64 67.49 39.69 71.32 39.75 75.15 C39.76 76.45 39.78 77.75 39.8 79.09 C39.81 79.75 39.82 80.41 39.83 81.09 C39.95 90 40.06 98.91 40.15 107.81 C40.22 114.48 40.31 121.15 40.41 127.81 C40.44 130.35 40.47 132.88 40.49 135.41 C40.52 138.97 40.57 142.52 40.63 146.07 C40.63 147.11 40.63 148.14 40.64 149.21 C40.75 154.5 41.41 158.92 43.2 163.92 C45.65 170.11 48.65 175.66 52.84 180.84 C56.51 184.79 60.65 187.83 65.36 190.43 C70.45 192.97 75.65 194.84 81.25 195.88 C87.79 196.58 94.39 196.42 100.96 196.38 C102.94 196.39 104.92 196.39 106.9 196.4 C112.32 196.42 117.74 196.41 123.16 196.4 C129.02 196.39 134.88 196.4 140.73 196.41 C152.19 196.43 163.65 196.43 175.12 196.42 C184.43 196.41 193.75 196.41 203.06 196.41 C204.06 196.41 204.06 196.41 205.07 196.41 C207.76 196.41 210.45 196.41 213.14 196.42 C238.37 196.43 263.59 196.42 288.81 196.39 C311.2 196.38 333.59 196.38 355.98 196.4 C381.16 196.42 406.34 196.43 431.51 196.41 C434.2 196.41 436.88 196.41 439.57 196.41 C440.23 196.41 440.89 196.41 441.57 196.41 C451.54 196.4 461.51 196.41 471.48 196.42 C482.82 196.43 494.16 196.43 505.5 196.41 C511.29 196.4 517.07 196.39 522.85 196.41 C528.15 196.42 533.45 196.41 538.75 196.39 C540.66 196.39 542.57 196.39 544.49 196.4 C556.53 196.48 556.53 196.48 568.25 193.94 C575.29 191.21 581.78 187.85 587.54 182.91 C592.46 177.81 595.65 171.88 598.8 165.6 C601.2 159.43 602.33 153.23 602.51 146.62 C602.52 144.72 602.53 142.82 602.52 140.92 C602.53 139.88 602.53 138.83 602.54 137.76 C602.55 135.5 602.55 133.25 602.55 131 C602.56 127.42 602.58 123.85 602.6 120.27 C602.65 110.12 602.68 99.96 602.71 89.8 C602.72 83.57 602.75 77.34 602.79 71.11 C602.8 68.75 602.81 66.39 602.81 64.02 C602.81 41.74 602.81 41.74 605.48 32.95 C608.03 26.07 611.68 20.26 616.38 14.62 C620.53 10.24 624.95 7.14 630.26 4.28 C636.68 1.27 643.19 -0.47 650.25 -1.12 C656.46 -1.55 661.97 -0.6 668.01 0.91 C672.83 2.35 677.03 4.13 681.25 6.88 C686.4 10.81 690.93 15.07 694.69 20.38 C696.77 23.83 698.64 27.22 699.78 31.1 C701.04 38.57 700.95 46.4 699.78 53.88 C698.7 58.01 697.03 61.52 694.75 65.12 C692.81 67.89 690.73 70.52 688.59 73.13 C683.27 79.63 679.01 85.47 676.05 93.45 C675.79 94.25 675.52 95.05 675.25 95.88 C674.92 96.87 674.59 97.86 674.25 98.88 C674.15 100.47 674.1 102.08 674.08 103.68 C674.07 104.67 674.06 105.66 674.04 106.68 C674.03 107.76 674.03 108.85 674.02 109.96 C674 111.11 673.99 112.25 673.98 113.43 C673.95 115.92 673.92 118.41 673.9 120.89 C673.86 124.84 673.81 128.78 673.75 132.72 C673.74 134.08 673.72 135.43 673.7 136.78 C673.69 137.46 673.68 138.14 673.67 138.83 C673.55 148.01 673.44 157.19 673.35 166.37 C673.28 173.22 673.19 180.08 673.09 186.94 C673.06 189.55 673.03 192.16 673.01 194.77 C672.98 198.43 672.93 202.09 672.87 205.75 C672.87 206.82 672.87 207.89 672.86 208.99 C672.75 214.35 672.13 218.86 670.32 223.93 C668.34 228.96 665.81 233.08 662.52 237.36 C658.9 241.37 654.96 244.27 650.25 246.88 C645.72 249 641.15 250.82 636.25 251.88 C634.67 251.97 633.08 252.02 631.5 252.03 C630.53 252.04 629.57 252.05 628.58 252.06 C626.98 252.07 626.98 252.07 625.36 252.08 C623.65 252.1 623.65 252.1 621.9 252.11 C618.7 252.14 615.49 252.16 612.29 252.18 C609.47 252.2 606.66 252.22 603.84 252.24 C594.2 252.31 584.55 252.37 574.91 252.42 C572.31 252.44 569.72 252.45 567.12 252.47 C483.32 252.98 399.52 253.02 188.25 252.88 C186.93 252.87 185.61 252.87 184.25 252.87 C152.3 252.82 120.35 252.73 88.4 252.6 C81.57 252.57 74.74 252.55 67.91 252.53 C59.81 252.51 51.71 252.47 43.61 252.43 C39.58 252.4 35.55 252.38 31.53 252.38 C27.9 252.37 24.27 252.35 20.65 252.32 C18.75 252.31 16.84 252.31 14.94 252.31 C8.66 252.24 3.22 251.64 -2.75 249.65 C-8.03 247.61 -12.53 244.64 -16.95 241.13 C-20.92 237.49 -23.62 233.7 -26.12 228.94 C-28.53 224.05 -29.88 219.23 -30.75 213.88 C-31.01 210.11 -31.01 206.37 -30.99 202.59 C-30.99 201.5 -30.99 200.41 -31 199.28 C-31 196.93 -31 194.57 -30.99 192.21 C-30.99 188.47 -31 184.72 -31.01 180.98 C-31.05 170.34 -31.07 159.7 -31.06 149.07 C-31.05 142.55 -31.07 136.03 -31.1 129.51 C-31.11 127.03 -31.11 124.56 -31.1 122.09 C-30.72 108.71 -30.72 108.71 -32.79 95.59 C-35.43 88.48 -39.26 81.97 -43.75 75.88 C-44.92 74.55 -46.11 73.23 -47.31 71.94 C-51.62 67.24 -54.27 61.71 -56.75 55.88 C-58.34 51.28 -58.06 46.32 -58.07 41.51 C-57.99 37.05 -57.58 33.14 -56.12 28.88 C-53.49 22.81 -50.25 17.53 -45.71 12.71 C-41.4 8.65 -36.94 5.39 -31.56 2.91 C-20.83 -1.03 -11.1 -2.04 0 0 Z " fill="#FABE41" transform="translate(187.75,546.125)"/>
<path d="M0 0 C11.96 3.63 23.43 8.1 34.7 13.5 C35.57 13.9 36.43 14.29 37.32 14.71 C39.57 15.82 41.62 16.93 43.64 18.43 C45.12 21.25 45.12 21.25 45.64 24.43 C45.85 25.67 46.06 26.9 46.28 28.18 C46.38 28.84 46.48 29.51 46.58 30.19 C48.16 40.88 51.23 50.63 56.08 60.3 C62.19 70.97 70.53 80.25 79.64 88.43 C91.52 97.95 105.42 105.45 119.78 110.47 C133.62 115.11 146.78 117.97 161.45 117.81 C162.76 117.8 164.06 117.8 165.4 117.79 C175.07 117.66 184.26 116.75 193.64 114.43 C197.9 122.07 199.83 129.79 201.33 138.37 C201.71 141.98 201.67 145.57 201.66 149.19 C201.66 150.94 201.66 150.94 201.65 152.73 C201.65 153.62 201.64 154.52 201.64 155.43 C197.62 155.56 193.61 155.65 189.59 155.71 C187.57 155.75 185.55 155.81 183.54 155.87 C178.1 155.94 172.92 155.94 167.68 154.38 C162.66 152.61 157.89 150.63 153.2 148.12 C149.74 146.26 149.74 146.26 146.02 145.93 C142.53 146.27 142.53 146.27 139.33 148.12 C136.62 150.22 136.62 150.22 135.27 152.68 C134.44 156.33 134.21 159.73 134.64 163.43 C135.07 165.01 135.07 165.01 135.52 166.62 C137.39 169.4 137.39 169.4 139.5 170.77 C146.1 174.42 153.41 176.68 160.8 178.05 C171.43 179.47 182.42 179 193.13 179 C198.77 178.99 204.41 179.01 210.05 179.05 C211.99 179.06 213.92 179.05 215.86 179.04 C224.41 179.09 232.4 180.12 240.64 182.43 C245.99 184.51 250.55 187.14 255.02 190.75 C257.52 193.09 259.46 195.37 261.14 198.37 C262.04 200.45 262.61 202.28 262.98 204.51 C263.08 206.56 263.08 206.56 262.64 210.43 C261.52 213.62 261.52 213.62 259.64 216.43 C257.74 218.36 255.85 219.82 253.64 221.43 C250.08 222.62 247.14 222.71 243.41 222.67 C238.74 222.27 234.54 220.75 230.14 219.18 C223.05 216.79 216.02 214.64 208.7 213.06 C207.99 212.9 207.27 212.75 206.54 212.59 C199.97 211.21 193.62 210.3 186.9 210.35 C184.95 210.36 184.95 210.36 182.97 210.37 C182.28 210.38 181.6 210.38 180.89 210.39 C178.72 210.41 176.55 210.42 174.37 210.42 C168.2 210.45 162.03 210.48 155.86 210.53 C152.07 210.56 148.29 210.57 144.5 210.58 C143.07 210.59 141.64 210.6 140.21 210.61 C128.99 210.72 118.37 209.94 107.58 206.75 C99.65 203.89 92.62 199.96 86.12 194.59 C83.13 192.05 80.19 189.46 77.25 186.85 C68.63 179.26 59.89 173.01 49.2 168.68 C36.58 164.12 23.93 163.89 10.64 163.43 C10.78 162.71 10.93 161.99 11.08 161.25 C13.23 150.24 14.09 140.25 12.36 129.1 C10.57 119.98 7.29 111.78 2.75 103.68 C-1.94 96.48 -7.93 90.28 -14.48 84.75 C-22.76 78.69 -32.54 73.32 -42.36 70.31 C-45.71 69.57 -48.81 69.27 -52.23 69.43 C-54.4 69.72 -54.4 69.72 -56.36 70.43 C-59.38 72.7 -59.38 72.7 -61.36 75.43 C-61.69 76.09 -62.02 76.75 -62.36 77.43 C-62.54 80.23 -62.66 82.67 -62.36 85.43 C-61.24 88.27 -61.24 88.27 -59.36 90.43 C-57.66 92.04 -57.66 92.04 -55.36 93.43 C-53.03 94.24 -50.67 94.99 -48.3 95.68 C-41.22 97.91 -35.29 100.91 -29.36 105.43 C-24.76 109.1 -21.68 113.24 -18.61 118.25 C-14.01 126.65 -14.01 126.65 -12.8 131.35 C-11.71 138.96 -11.45 146.79 -12.36 154.43 C-13.38 158.73 -15.2 162.59 -17.36 166.43 C-17.69 167.09 -18.02 167.75 -18.36 168.43 C-18.67 171.46 -18.63 174.41 -18.36 177.43 C-17.41 180.84 -17.41 180.84 -15.36 183.43 C-12.63 185.18 -12.63 185.18 -9.36 186.43 C-6.18 186.87 -6.18 186.87 -2.84 186.8 C-1.6 186.82 -0.36 186.83 0.92 186.85 C2.23 186.86 3.54 186.86 4.89 186.87 C17.15 187.07 28.98 187.83 40.57 192.15 C42.29 192.85 43.97 193.64 45.64 194.43 C48.14 196.75 48.14 196.75 49.64 199.43 C49.64 202.56 49.64 202.56 48.64 205.43 C46.95 207.09 46.95 207.09 44.64 208.43 C41.88 208.8 41.88 208.8 38.65 208.79 C36.82 208.8 36.82 208.8 34.94 208.81 C33.59 208.8 32.23 208.79 30.88 208.77 C29.45 208.77 28.02 208.77 26.59 208.78 C22.71 208.78 18.83 208.76 14.96 208.74 C10.9 208.72 6.85 208.72 2.8 208.71 C-4.88 208.7 -12.55 208.68 -20.23 208.65 C-28.97 208.62 -37.7 208.6 -46.44 208.58 C-64.41 208.55 -82.39 208.5 -100.36 208.43 C-100.34 207.4 -100.33 206.37 -100.31 205.31 C-100.26 201.39 -100.22 197.48 -100.19 193.56 C-100.18 191.88 -100.16 190.2 -100.13 188.52 C-99.93 175.5 -100.53 162.77 -104.68 150.3 C-107.91 141.36 -112.45 133.85 -118.36 126.43 C-124.86 118.67 -132.68 113.46 -141.36 108.43 C-150.45 103.28 -160.21 101.43 -170.36 99.43 C-170.02 88.83 -168.75 78.52 -165.36 68.43 C-163.13 62.87 -160.33 57.63 -157.36 52.43 C-156.78 51.41 -156.2 50.39 -155.6 49.34 C-151.58 42.68 -146.74 37.04 -141.36 31.43 C-140.15 30.17 -140.15 30.17 -138.92 28.87 C-138.08 28.07 -137.23 27.26 -136.36 26.43 C-135.74 25.8 -135.11 25.17 -134.47 24.52 C-125.8 16.17 -115.43 9.67 -104.53 4.58 C-71.28 -9.42 -34.45 -9.97 0 0 Z " fill="#48749D" transform="translate(353.359375,419.56640625)"/>
<path d="M0 0 C1.21 -0 2.43 -0.01 3.68 -0.01 C5.03 -0.01 6.39 -0.01 7.74 -0.01 C9.17 -0.02 10.61 -0.02 12.04 -0.02 C15.99 -0.03 19.93 -0.04 23.88 -0.04 C28.14 -0.04 32.39 -0.05 36.64 -0.06 C46.92 -0.08 57.2 -0.09 67.47 -0.1 C72.31 -0.11 77.15 -0.11 81.99 -0.12 C98.06 -0.13 114.14 -0.15 130.22 -0.16 C134.39 -0.16 138.57 -0.16 142.74 -0.16 C143.78 -0.16 144.81 -0.16 145.88 -0.16 C162.69 -0.17 179.5 -0.2 196.31 -0.23 C213.56 -0.26 230.81 -0.28 248.06 -0.28 C257.74 -0.28 267.43 -0.29 277.12 -0.32 C285.37 -0.34 293.62 -0.35 301.87 -0.34 C306.08 -0.33 310.29 -0.34 314.49 -0.36 C318.35 -0.37 322.2 -0.37 326.06 -0.36 C327.45 -0.35 328.84 -0.36 330.24 -0.37 C334.26 -0.4 338.22 -0.37 342.22 0.13 C345.07 1.17 346.77 2.26 349.22 4.13 C351.09 6.2 351.09 6.2 352.22 8.13 C353.29 11.34 353.34 13.64 353.35 17.02 C353.35 18.25 353.35 19.49 353.36 20.76 C353.36 22.14 353.36 23.52 353.36 24.89 C353.36 26.35 353.36 27.81 353.37 29.27 C353.37 33.29 353.37 37.3 353.38 41.32 C353.38 45.65 353.39 49.98 353.39 54.31 C353.41 63.78 353.41 73.25 353.42 82.72 C353.42 88.64 353.42 94.55 353.43 100.46 C353.44 116.82 353.45 133.18 353.45 149.54 C353.45 150.58 353.45 151.63 353.45 152.71 C353.45 153.76 353.45 154.81 353.45 155.89 C353.45 158.02 353.46 160.15 353.46 162.28 C353.46 163.33 353.46 164.39 353.46 165.47 C353.46 182.58 353.48 199.69 353.5 216.79 C353.52 234.35 353.54 251.9 353.54 269.45 C353.54 279.31 353.55 289.17 353.56 299.03 C353.58 307.43 353.58 315.82 353.58 324.22 C353.57 328.5 353.57 332.78 353.59 337.07 C353.6 340.99 353.6 344.91 353.59 348.83 C353.58 350.25 353.59 351.67 353.6 353.09 C353.61 355.02 353.6 356.95 353.59 358.88 C353.59 359.95 353.59 361.02 353.59 362.12 C353.22 365.13 353.22 365.13 351.82 368.41 C350.22 371.13 350.22 371.13 348.22 372.95 C346.22 374.13 346.22 374.13 343.22 375.13 C340.35 375.37 338.03 375.52 335.22 375.13 C332.13 373.5 329.94 371.91 327.57 369.36 C327.12 368.62 326.68 367.89 326.22 367.13 C325.83 364.44 325.83 364.44 325.82 361.3 C325.8 359.51 325.8 359.51 325.78 357.69 C325.78 355.73 325.78 355.73 325.78 353.74 C325.77 352.35 325.76 350.96 325.75 349.57 C325.72 345.8 325.72 342.03 325.71 338.26 C325.7 334.32 325.67 330.37 325.65 326.43 C325.61 318.97 325.58 311.51 325.55 304.05 C325.53 295.55 325.48 287.06 325.44 278.56 C325.34 261.08 325.27 243.61 325.22 226.13 C324.07 226.13 322.92 226.13 321.74 226.12 C293.84 226.02 265.94 225.91 238.04 225.79 C235.36 225.78 232.68 225.77 229.99 225.76 C229.33 225.76 228.66 225.76 227.97 225.75 C217.17 225.71 206.36 225.67 195.55 225.63 C184.47 225.59 173.39 225.54 162.3 225.5 C156.08 225.47 149.85 225.45 143.62 225.43 C137.77 225.41 131.91 225.38 126.06 225.35 C123.9 225.34 121.75 225.34 119.59 225.33 C116.66 225.32 113.73 225.31 110.8 225.29 C109.94 225.29 109.07 225.29 108.18 225.29 C106.19 225.28 104.2 225.21 102.22 225.13 C101.89 224.8 101.56 224.47 101.22 224.13 C101.13 222.21 101.11 220.28 101.12 218.35 C101.12 216.59 101.12 216.59 101.13 214.8 C101.14 212.96 101.14 212.96 101.15 211.07 C101.16 209.84 101.16 208.6 101.17 207.33 C101.18 204.26 101.2 201.2 101.22 198.13 C106.5 197.8 111.78 197.47 117.22 197.13 C117.71 138.23 117.71 138.23 118.22 78.13 C127.46 78.13 136.7 78.13 146.22 78.13 C146.22 74.5 146.22 70.87 146.22 67.13 C147.42 63.82 148.18 61.84 150.22 59.13 C152.38 56.88 154.62 54.88 157.22 53.13 C160.89 51.91 164.31 51.95 168.14 51.93 C168.92 51.93 169.69 51.92 170.5 51.91 C172.14 51.9 173.79 51.9 175.44 51.89 C177.94 51.88 180.45 51.85 182.95 51.82 C184.55 51.82 186.16 51.81 187.76 51.81 C188.5 51.79 189.25 51.78 190.01 51.77 C192.91 51.78 195.46 51.89 198.23 52.77 C200.73 53.82 202.94 54.92 205.07 56.61 C208.34 60.51 210.29 64.33 212.12 69.06 C214.36 75.33 216.25 81.7 218.16 88.06 C218.63 89.59 219.09 91.11 219.55 92.63 C220.52 95.8 221.48 98.98 222.43 102.15 C223.66 106.21 224.89 110.27 226.13 114.33 C227.31 118.22 228.49 122.11 229.66 126 C229.89 126.74 230.11 127.48 230.34 128.24 C230.98 130.33 231.61 132.42 232.24 134.5 C232.6 135.69 232.96 136.88 233.32 138.1 C234.01 140.44 234.65 142.77 235.22 145.13 C235.82 145.14 236.43 145.14 237.06 145.14 C243.42 145.16 249.78 145.21 256.14 145.29 C258.51 145.31 260.88 145.32 263.25 145.33 C266.67 145.34 270.08 145.38 273.5 145.43 C275.08 145.42 275.08 145.42 276.69 145.42 C279.61 145.47 282.34 145.62 285.22 146.13 C288.21 147.45 290.72 149.03 293.22 151.13 C295.19 153.06 296.61 154.85 298.22 157.13 C299.5 161.17 299.34 165.2 299.31 169.4 C299.31 170.59 299.31 170.59 299.31 171.8 C299.3 174.33 299.29 176.86 299.28 179.38 C299.27 181.1 299.27 182.82 299.26 184.53 C299.25 188.73 299.23 192.93 299.22 197.13 C307.8 196.8 316.38 196.47 325.22 196.13 C325.22 140.03 325.22 83.93 325.22 26.13 C221.93 26.13 118.64 26.13 12.22 26.13 C11.89 77.28 11.56 128.43 11.22 181.13 C8.22 187.13 8.22 187.13 6.03 189.45 C3.22 191.13 3.22 191.13 -0.6 192.13 C-2.66 192.3 -2.66 192.3 -4.78 192.13 C-7.74 191.19 -10.24 189.9 -12.78 188.13 C-14.72 186.07 -14.72 186.07 -15.78 184.13 C-16.94 180.68 -16.92 178 -16.92 174.36 C-16.93 173.67 -16.93 172.97 -16.93 172.26 C-16.94 169.94 -16.94 167.61 -16.95 165.28 C-16.95 163.62 -16.96 161.95 -16.96 160.29 C-16.97 155.76 -16.98 151.23 -16.98 146.7 C-16.99 143.87 -16.99 141.04 -17 138.21 C-17.01 129.36 -17.02 120.51 -17.02 111.66 C-17.03 101.44 -17.05 91.22 -17.07 81 C-17.1 73.11 -17.11 65.21 -17.11 57.31 C-17.11 52.59 -17.11 47.88 -17.13 43.16 C-17.15 38.72 -17.15 34.28 -17.14 29.85 C-17.14 28.22 -17.15 26.59 -17.16 24.96 C-17.17 22.74 -17.16 20.51 -17.15 18.29 C-17.15 17.05 -17.15 15.8 -17.16 14.52 C-16.78 11.13 -16.78 11.13 -15.42 7.83 C-13.78 5.13 -13.78 5.13 -11.28 2.82 C-7.43 0.22 -4.55 0.01 0 0 Z M174.22 79.13 C173.89 118.4 173.56 157.67 173.22 198.13 C188.73 198.13 204.24 198.13 220.22 198.13 C218.98 194.48 217.74 190.83 216.47 187.07 C212.67 175.75 209.08 164.37 205.59 152.95 C205.35 152.15 205.1 151.35 204.85 150.53 C204.61 149.73 204.36 148.92 204.1 148.09 C203.59 146.4 203.07 144.72 202.56 143.04 C202.3 142.18 202.04 141.33 201.77 140.44 C198.58 130.04 195.34 119.64 192.1 109.25 C191.43 107.1 190.76 104.95 190.09 102.8 C189.15 99.78 188.21 96.77 187.27 93.75 C186.85 92.4 186.85 92.4 186.42 91.02 C185.16 86.99 183.87 83.03 182.22 79.13 C179.58 79.13 176.94 79.13 174.22 79.13 Z " fill="#DA9584" transform="translate(522.7844352722168,136.86577892303467)"/>
<path d="M0 0 C11 -0.09 22 -0.16 32.99 -0.21 C38.1 -0.23 43.21 -0.26 48.32 -0.3 C53.27 -0.35 58.22 -0.37 63.16 -0.38 C65.03 -0.39 66.9 -0.4 68.77 -0.42 C82.54 -0.58 96.16 0.33 109.31 4.78 C119.15 8.44 127.8 13.45 136 20 C142.66 25.68 147.77 31.87 152.18 39.44 C154.19 43.23 155.84 47.13 157.38 51.12 C157.73 52.06 157.73 52.06 158.1 53 C162.35 64.83 162.46 76.88 162.54 89.3 C162.56 92.32 162.64 95.35 162.71 98.37 C162.73 100.3 162.74 102.24 162.75 104.18 C162.78 105.07 162.81 105.97 162.84 106.89 C162.83 109.45 162.72 111.55 162 114 C159.95 116.48 157.63 118.18 155 120 C148.38 127.02 143.12 135.29 139 144 C134.26 155.22 132.18 166.57 131.56 178.67 C131.48 180.44 131.41 182.2 131.34 183.97 C131.17 188.4 130.86 192.64 130 197 C123.65 196.36 117.43 195.4 111.16 194.2 C105.84 193.26 100.61 192.86 95.22 192.7 C78.71 192.08 78.71 192.08 72 190 C69.95 188.46 69.95 188.46 68.51 186.6 C66.67 183.23 65.6 179.67 64.62 175.96 C64 173.73 64 173.73 62.16 171 C56.48 164.02 50.29 158.72 42.7 153.9 C33.89 148.7 24.71 145.42 14.69 143.45 C-7.13 139.78 -29.93 140.43 -52 140 C-52.18 138.81 -52.36 137.61 -52.54 136.38 C-54.38 124.37 -54.38 124.37 -58.19 112.88 C-58.46 112.19 -58.73 111.51 -59.01 110.81 C-59.66 109.2 -60.33 107.6 -61 106 C-59.94 105.47 -58.87 104.93 -57.77 104.38 C-44.31 97.52 -32.06 89.97 -21.53 78.98 C-14 70.12 -8.13 59.86 -4 49 C-0.41 38.02 1.18 27.39 1.12 15.88 C1.13 15.01 1.13 14.14 1.14 13.25 C1.14 12.4 1.13 11.55 1.13 10.68 C1.13 9.55 1.13 9.55 1.13 8.39 C0.98 5.54 0.48 2.81 0 0 Z " fill="#FBBE41" transform="translate(633,420)"/>
<path d="M0 0 C2 -0.06 4 -0.05 6 0 C14.82 4.94 21.98 13.97 29 21.1 C35.2 27.34 41.36 32.76 49.03 37.16 C50.96 38.08 50.96 38.08 53.01 38.3 C57.24 38.32 60.78 37.89 64.81 36.56 C70.56 34.72 75.95 33.86 82 34 C88.62 34.77 95.16 36.16 101.67 37.59 C106.11 38.37 110.51 38.34 115 38 C118.45 37.01 120.93 35.75 123.85 33.7 C133.49 25.96 140.32 14.72 147.19 4.58 C149 2 149 2 151 0 C153.13 -0.23 153.13 -0.23 155.56 -0.19 C156.77 -0.18 156.77 -0.18 158 -0.17 C158.99 -0.08 158.99 -0.08 160 0 C160.33 0.33 160.66 0.66 161 1 C161.08 2.62 161.09 4.24 161.08 5.86 C161.07 6.9 161.07 7.94 161.06 9.01 C161.05 10.15 161.04 11.29 161.04 12.47 C161.04 14.9 161.04 17.34 161.05 19.77 C161.06 23.6 161.06 27.42 161.02 31.24 C160.9 45.06 161.46 57.55 165.93 70.72 C166.64 72.68 167.36 74.64 168.09 76.59 C171.04 84.56 172.25 92.28 172.38 100.75 C172.35 116.44 172.35 116.44 170.31 123.38 C169.59 125.27 168.82 127.15 168 129 C167.64 129.87 167.28 130.75 166.9 131.64 C163.47 139.22 158.49 145.41 152.72 151.35 C143.96 159.64 133.92 165.44 122.94 170.25 C111.3 175.08 99.62 177.73 87.04 178.38 C75.44 178.73 64.23 178.07 53.08 174.69 C40.45 170.49 28.39 164.28 17.81 156.19 C9.62 149.34 3.18 141.57 -2.27 132.39 C-4.95 127.13 -6.58 121.71 -8 116 C-8.17 115.37 -8.35 114.73 -8.53 114.08 C-10.12 107.07 -9.62 99.12 -9 92 C-8.16 87.2 -6.81 82.57 -5.39 77.92 C-4.92 76.28 -4.45 74.64 -4 73 C-3.73 72.06 -3.46 71.11 -3.19 70.14 C0 57.01 -0.44 43.52 -0.33 30.08 C-0.3 26.68 -0.25 23.28 -0.21 19.88 C-0.12 13.26 -0.06 6.63 0 0 Z " fill="#49759E" transform="translate(435,335)"/>
<path d="M0 0 C91.74 0 183.48 0 278 0 C274.53 5.45 274.53 5.45 271 11 C268.73 15.23 266.83 19.56 265 24 C264.61 24.94 264.21 25.87 263.81 26.84 C261.04 34.45 260.46 41.92 259.89 49.95 C259.8 51.11 259.72 52.27 259.63 53.47 C259.41 56.31 259.2 59.16 259 62 C229.09 62.05 199.18 62.08 169.26 62.1 C165.73 62.1 162.2 62.11 158.66 62.11 C157.96 62.11 157.26 62.11 156.53 62.11 C145.15 62.12 133.77 62.14 122.39 62.15 C110.71 62.17 99.02 62.18 87.34 62.19 C80.78 62.19 74.22 62.2 67.66 62.21 C61.48 62.23 55.31 62.23 49.13 62.23 C46.86 62.23 44.6 62.23 42.33 62.24 C39.24 62.25 36.14 62.25 33.04 62.24 C31.7 62.25 31.7 62.25 30.34 62.26 C24.7 62.23 19.4 61.67 14 60 C10.28 58.03 7.57 55.7 4.75 52.62 C3.3 50.98 3.3 50.98 2 49 C-3.17 33.49 0 16.35 0 0 Z " fill="#FBBE41" transform="translate(255,655)"/>
<path d="M0 0 C0.78 -0.01 1.56 -0.01 2.36 -0.02 C4.01 -0.03 5.65 -0.03 7.3 -0.04 C9.81 -0.05 12.31 -0.08 14.81 -0.11 C16.42 -0.12 18.02 -0.12 19.62 -0.12 C20.37 -0.14 21.11 -0.15 21.87 -0.16 C24.77 -0.15 27.32 -0.04 30.09 0.84 C32.6 1.88 34.81 2.99 36.93 4.68 C40.21 8.58 42.15 12.4 43.98 17.13 C46.22 23.39 48.11 29.77 50.03 36.13 C50.49 37.66 50.95 39.18 51.42 40.7 C52.38 43.87 53.34 47.05 54.3 50.22 C55.52 54.28 56.76 58.34 57.99 62.4 C59.17 66.29 60.35 70.18 61.53 74.07 C61.86 75.18 61.86 75.18 62.21 76.31 C62.84 78.4 63.47 80.48 64.1 82.57 C64.46 83.76 64.82 84.95 65.19 86.17 C65.87 88.51 66.52 90.83 67.08 93.2 C67.69 93.2 68.3 93.21 68.92 93.21 C75.28 93.23 81.64 93.28 88 93.36 C90.37 93.38 92.74 93.39 95.11 93.4 C98.53 93.41 101.94 93.45 105.36 93.5 C106.94 93.49 106.94 93.49 108.55 93.48 C111.47 93.54 114.2 93.69 117.08 94.2 C120.07 95.51 122.58 97.1 125.08 99.2 C127.05 101.13 128.47 102.92 130.08 105.2 C131.06 107.86 131.11 110.08 131.21 112.95 C131.21 114.44 131.21 115.94 131.21 117.43 C131.21 118.22 131.21 119.02 131.21 119.83 C131.21 121.5 131.21 123.16 131.21 124.83 C131.2 127.39 131.21 129.95 131.21 132.51 C131.21 134.13 131.21 135.75 131.21 137.37 C131.21 138.14 131.21 138.91 131.22 139.7 C131.21 141.54 131.15 143.37 131.08 145.2 C130.75 145.53 130.42 145.86 130.08 146.2 C128.24 146.3 126.39 146.33 124.55 146.34 C123.43 146.34 122.31 146.34 121.15 146.34 C119.97 146.34 118.79 146.33 117.58 146.33 C115.81 146.33 115.81 146.33 114 146.34 C112.32 146.34 112.32 146.34 110.61 146.34 C109.57 146.33 108.54 146.33 107.47 146.33 C106.29 146.27 106.29 146.27 105.08 146.2 C104.75 145.87 104.42 145.54 104.08 145.2 C103.93 143.65 103.85 142.1 103.8 140.55 C103.74 139.14 103.74 139.14 103.68 137.7 C103.58 134.7 103.58 134.7 103.47 131.71 C103.42 130.3 103.42 130.3 103.36 128.86 C103.33 127.99 103.3 127.12 103.27 126.23 C103.21 125.56 103.14 124.89 103.08 124.2 C102.75 123.87 102.42 123.54 102.08 123.2 C100.01 123.04 97.93 122.95 95.86 122.89 C94.6 122.84 93.34 122.8 92.04 122.76 C90.7 122.72 89.36 122.68 88.02 122.64 C86.67 122.6 85.33 122.55 83.98 122.51 C80.68 122.4 77.38 122.3 74.08 122.2 C74.36 123.28 74.63 124.35 74.92 125.46 C75.28 126.89 75.65 128.33 76.02 129.77 C76.29 130.82 76.29 130.82 76.57 131.9 C77.69 136.32 78.62 140.66 79.08 145.2 C78.75 145.53 78.42 145.86 78.08 146.2 C73.79 146.54 69.5 146.53 65.2 146.58 C63.99 146.62 62.78 146.65 61.54 146.69 C60.38 146.7 59.22 146.71 58.02 146.73 C56.96 146.75 55.89 146.77 54.79 146.79 C53.89 146.59 53 146.4 52.08 146.2 C50.35 144.12 50.35 144.12 49.08 141.2 C48.22 138.78 47.45 136.39 46.73 133.93 C46.52 133.22 46.31 132.52 46.09 131.79 C45.63 130.27 45.18 128.74 44.72 127.22 C43.51 123.12 42.27 119.02 41.03 114.92 C40.78 114.09 40.53 113.26 40.27 112.4 C38.04 105.01 35.67 97.67 33.27 90.33 C26.54 69.72 20.34 48.95 14.08 28.2 C11.44 27.87 8.8 27.54 6.08 27.2 C6.08 27.81 6.08 28.42 6.08 29.04 C6.1 43.8 6.12 58.55 6.13 73.31 C6.14 80.44 6.14 87.58 6.15 94.71 C6.16 101.59 6.17 108.47 6.17 115.35 C6.17 117.98 6.18 120.61 6.18 123.24 C6.19 126.92 6.19 130.59 6.19 134.26 C6.2 135.36 6.2 136.46 6.2 137.59 C6.2 138.58 6.2 139.58 6.2 140.6 C6.2 141.47 6.2 142.34 6.2 143.24 C6.14 144.21 6.14 144.21 6.08 145.2 C5.75 145.53 5.42 145.86 5.08 146.2 C3.16 146.3 1.25 146.33 -0.67 146.34 C-1.84 146.34 -3 146.34 -4.2 146.34 C-5.43 146.34 -6.66 146.33 -7.92 146.33 C-9.15 146.33 -10.38 146.34 -11.64 146.34 C-12.81 146.34 -13.97 146.34 -15.17 146.34 C-16.25 146.33 -17.33 146.33 -18.44 146.33 C-19.67 146.27 -19.67 146.27 -20.92 146.2 C-21.25 145.87 -21.58 145.54 -21.92 145.2 C-22.03 143.54 -22.06 141.87 -22.07 140.2 C-22.08 139.12 -22.08 138.03 -22.09 136.92 C-22.09 135.72 -22.1 134.52 -22.1 133.28 C-22.11 131.4 -22.11 131.4 -22.12 129.48 C-22.14 126.02 -22.15 122.57 -22.15 119.11 C-22.16 116.95 -22.17 114.8 -22.17 112.64 C-22.19 105.88 -22.21 99.12 -22.21 92.36 C-22.22 84.56 -22.25 76.77 -22.29 68.97 C-22.32 62.94 -22.34 56.92 -22.34 50.89 C-22.34 47.29 -22.35 43.69 -22.38 40.09 C-22.4 36.07 -22.4 32.05 -22.39 28.03 C-22.4 26.84 -22.42 25.66 -22.43 24.44 C-22.38 16.54 -22.38 16.54 -21.06 12.71 C-19.7 9.9 -18.17 7.48 -16.11 5.14 C-15.53 4.69 -14.95 4.23 -14.36 3.77 C-13.78 3.29 -13.2 2.82 -12.61 2.33 C-8.68 -0.3 -4.53 0.03 0 0 Z " fill="#012347" transform="translate(690.921875,188.796875)"/>
<path d="M0 0 C16.16 0.65 32.26 1.91 48.37 3.27 C51.05 3.49 53.74 3.71 56.42 3.93 C59.68 4.2 62.95 4.47 66.21 4.75 C67.98 4.89 67.98 4.89 69.78 5.04 C77.91 5.73 85.93 6.77 94 8 C93.75 8.61 93.51 9.23 93.26 9.86 C92.59 11.52 91.92 13.19 91.26 14.86 C90.4 16.99 89.55 19.12 88.7 21.25 C86.09 27.76 83.49 34.27 80.9 40.79 C79.44 44.45 77.99 48.1 76.53 51.76 C75.8 53.59 75.07 55.42 74.34 57.25 C73.31 59.85 72.28 62.44 71.25 65.03 C70.93 65.82 70.62 66.61 70.3 67.43 C69.55 69.29 68.78 71.15 68 73 C67.67 73.33 67.34 73.66 67 74 C64.85 74.1 62.69 74.12 60.54 74.12 C59.86 74.12 59.17 74.12 58.47 74.12 C56.17 74.12 53.86 74.12 51.56 74.11 C49.91 74.11 48.27 74.11 46.62 74.11 C42.14 74.11 37.66 74.11 33.18 74.1 C28.5 74.1 23.82 74.09 19.14 74.09 C10.28 74.09 1.41 74.08 -7.45 74.07 C-17.54 74.06 -27.63 74.06 -37.72 74.05 C-58.48 74.04 -79.24 74.02 -100 74 C-100.08 66.95 -98.88 60.77 -96.75 54.09 C-94.48 47.75 -91.35 41.82 -88 36 C-87.52 35.14 -87.03 34.29 -86.54 33.4 C-85.19 31.44 -85.19 31.44 -83.72 29.95 C-83.15 29.63 -82.58 29.32 -82 29 C-79.28 28.61 -77.06 28.83 -74.34 29.27 C-68.88 30.46 -63.44 31.7 -58.02 33.06 C-49.4 35.15 -40.83 35.63 -32 35 C-27.71 34.16 -23.92 32.92 -20 31 C-15.73 28.3 -12.16 25.22 -8.69 21.56 C-4.2 14.75 -1.96 7.9 0 0 Z " fill="#DD9686" transform="translate(642,632)"/>
<path d="M0 0 C3.15 -0.03 6.29 -0.05 9.44 -0.06 C10.34 -0.07 11.23 -0.08 12.16 -0.09 C13.01 -0.09 13.87 -0.09 14.75 -0.1 C15.93 -0.11 15.93 -0.11 17.14 -0.11 C17.76 -0.08 18.37 -0.04 19 0 C19.33 0.33 19.66 0.66 20 1 C20.11 3.76 20.15 6.49 20.15 9.25 C20.15 10.12 20.15 10.98 20.16 11.87 C20.16 14.75 20.17 17.62 20.17 20.5 C20.17 22.49 20.17 24.47 20.18 26.46 C20.18 30.64 20.19 34.81 20.19 38.99 C20.19 44.35 20.2 49.71 20.22 55.08 C20.23 59.19 20.23 63.29 20.23 67.4 C20.23 69.38 20.23 71.36 20.24 73.34 C20.25 76.1 20.25 78.86 20.24 81.62 C20.25 82.44 20.25 83.27 20.26 84.11 C20.25 86.08 20.13 88.04 20 90 C19.01 90.99 19.01 90.99 18 92 C16.14 92.24 16.14 92.24 13.9 92.23 C13.1 92.23 12.3 92.23 11.47 92.22 C10.64 92.21 9.8 92.2 8.94 92.19 C8.1 92.19 7.26 92.19 6.39 92.19 C4.26 92.17 2.13 92.09 0 92 C-0.33 91.67 -0.66 91.34 -1 91 C-1.25 88.17 -1.42 85.37 -1.55 82.53 C-1.59 81.61 -1.63 80.69 -1.68 79.75 C-2.2 66.81 -2.19 53.86 -2.19 40.92 C-2.19 37.2 -2.2 33.47 -2.22 29.75 C-2.23 26.85 -2.23 23.95 -2.23 21.05 C-2.23 19.67 -2.23 18.3 -2.24 16.92 C-2.25 15.02 -2.25 13.11 -2.24 11.2 C-2.24 10.12 -2.25 9.04 -2.25 7.93 C-2 5 -2 5 -0.98 2.11 C-0.66 1.42 -0.33 0.72 0 0 Z " fill="#48759D" transform="translate(594,217)"/>
<path d="M0 0 C3.26 -0.27 6.54 -0.23 9.81 -0.25 C10.72 -0.27 11.62 -0.29 12.55 -0.31 C15.07 -0.33 17.5 -0.28 20 0 C23.01 1.33 23.01 1.33 25 3 C25.66 3.99 26.32 4.98 27 6 C27.46 8.27 27.5 10.33 27.47 12.64 C27.24 13.81 27.24 13.81 27 15 C25.31 17.69 23.33 19.85 21 22 C21.89 22.1 22.78 22.2 23.7 22.3 C24.87 22.45 26.04 22.6 27.25 22.75 C28.41 22.89 29.57 23.03 30.77 23.17 C32.37 23.58 32.37 23.58 34 24 C36.36 25.8 36.36 25.8 38 28 C38.76 30.33 38.93 32.37 39.11 34.81 C39.07 35.53 39.04 36.26 39 37 C37.69 39.94 37.69 39.94 36 42 C35.34 42.66 34.68 43.32 34 44 C29.36 45.39 24.52 45.18 19.72 45.2 C18.83 45.21 17.94 45.21 17.02 45.22 C15.14 45.23 13.26 45.24 11.38 45.24 C8.51 45.25 5.64 45.28 2.77 45.31 C0.94 45.32 -0.89 45.32 -2.72 45.33 C-4 45.35 -4 45.35 -5.31 45.37 C-7.58 45.36 -9.75 45.3 -12 45 C-14.78 43.67 -16.58 42.39 -18.81 40.31 C-20 38 -20 38 -20.5 34.12 C-20.43 32.04 -20.43 32.04 -20 30 C-18.57 27.54 -17.07 26.02 -15 24 C-14.34 23.67 -13.68 23.34 -13 23 C-10.96 22.77 -8.92 22.59 -6.88 22.44 C-5.78 22.35 -4.68 22.27 -3.55 22.18 C-2.71 22.12 -1.87 22.06 -1 22 C-1.64 21.22 -2.28 20.43 -2.94 19.62 C-5 17 -5 17 -6 15 C-6.36 11.96 -6.39 9.04 -6 6 C-4.12 3 -4.12 3 -2 1 C-1.34 0.67 -0.68 0.34 0 0 Z " fill="#012348" transform="translate(522,451)"/>
<path d="M0 0 C0.33 0 0.66 0 1 0 C1.11 13.54 1.08 27.08 0.69 40.62 C0.67 41.74 0.64 42.86 0.62 44.01 C0.46 48.78 0.21 53.09 -1.43 57.6 C-3 61 -3 61 -4.75 63.75 C-7.64 66.64 -10.34 68.17 -14 70 C-17.13 71 -19.97 71.11 -23.25 71.06 C-24.59 71.05 -24.59 71.05 -25.95 71.04 C-26.63 71.02 -27.3 71.01 -28 71 C-26.1 65.12 -24.03 59.35 -21.74 53.62 C-21.44 52.85 -21.13 52.08 -20.82 51.29 C-19.84 48.81 -18.86 46.34 -17.88 43.88 C-16.53 40.47 -15.18 37.07 -13.83 33.67 C-13.5 32.83 -13.17 32 -12.83 31.14 C-9.69 23.22 -6.59 15.29 -3.53 7.34 C-3.2 6.5 -2.87 5.66 -2.54 4.79 C-2.26 4.08 -1.99 3.36 -1.7 2.62 C-1.47 2.09 -1.24 1.55 -1 1 C-0.67 0.67 -0.34 0.34 0 0 Z " fill="#FBBE41" transform="translate(763,645)"/>
<path d="M0 0 C2.44 0.17 4.62 0.45 6.98 1.09 C9.16 2.34 10.81 3.67 12.61 5.42 C13.98 7.09 13.98 7.09 15.48 9.96 C15.98 13.09 16.17 15.92 15.64 19.06 C14.89 21.38 13.95 23.01 12.48 24.96 C10.86 26.67 10.86 26.67 8.98 28.09 C6.7 29.1 4.69 29.63 2.22 30 C-0.02 30.09 -0.02 30.09 -3.7 29.65 C-7.02 28.09 -7.02 28.09 -8.75 26.46 C-10.81 24.12 -12.62 21.89 -14.02 19.09 C-14.27 15.84 -14.27 15.84 -14.02 12.09 C-12.89 8.96 -12.89 8.96 -11.02 6.09 C-9.11 4.16 -7.23 2.7 -5.02 1.09 C-2.02 0.09 -2.02 0.09 0 0 Z " fill="#012348" transform="translate(566.015625,418.91015625)"/>
<path d="M0 0 C91.74 0 183.48 0 278 0 C274.53 5.45 274.53 5.45 271 11 C266 20.22 262.91 29.98 260 40 C259.41 38.36 259.41 38.36 259 36 C260.57 27.54 264.3 19.93 268.27 12.38 C269.94 9.21 271.12 6.51 272 3 C182.9 3 93.8 3 2 3 C2 15.54 2 28.08 2 41 C1.34 41 0.68 41 0 41 C0 27.47 0 13.94 0 0 Z " fill="#FDF64A" transform="translate(255,655)"/>
<path d="M0 0 C3.95 -0.05 7.9 -0.09 11.85 -0.11 C13.86 -0.12 15.87 -0.15 17.87 -0.18 C19.13 -0.18 20.38 -0.19 21.68 -0.2 C22.84 -0.21 24 -0.22 25.2 -0.23 C26.13 -0.15 27.05 -0.08 28 0 C28.66 0.66 29.32 1.32 30 2 C30.32 4.25 30.32 4.25 30.41 7.01 C30.45 7.9 30.49 8.78 30.52 9.7 C30.56 10.83 30.59 11.96 30.62 13.12 C30.75 16.71 30.87 20.3 31 24 C22.09 24 13.18 24 4 24 C3.67 21.36 3.34 18.72 3 16 C2.3 13.45 1.48 10.99 0.62 8.49 C-0.1 5.59 -0.04 2.98 0 0 Z " fill="#4D7BA3" transform="translate(765,311)"/>
<path d="M0 0 C3.37 -0.37 6.63 -0.37 10 0 C13.44 1.69 13.44 1.69 16 4 C16.62 4.7 17.24 5.4 17.88 6.12 C18.98 8.96 19.3 10.93 19.44 13.94 C19.35 16.56 19.35 16.56 19 19 C17.31 22.44 17.31 22.44 15 25 C14.3 25.62 13.6 26.24 12.88 26.88 C10.04 27.98 8.07 28.3 5.06 28.44 C2.44 28.35 2.44 28.35 0 28 C-3.44 26.31 -3.44 26.31 -6 24 C-7.81 21.62 -7.81 21.62 -9 19 C-9.88 16.19 -9.88 16.19 -10 13 C-9.37 10.11 -8.45 7.58 -7 5 C-4.73 2.84 -2.78 1.39 0 0 Z " fill="#012348" transform="translate(485,421)"/>
<path d="M0 0 C23.93 0.61 23.93 0.61 33 4 C38.45 6.33 43.81 8.84 48.5 12.5 C51.13 15.13 52.98 17.89 55 21 C50.81 20.8 46.62 20.58 42.44 20.31 C38.69 20.08 34.95 19.95 31.19 19.88 C19.87 19.48 19.87 19.48 15 18 C12.07 15.63 12.07 15.63 10.06 12.75 C9.04 10.83 8.02 8.92 7 7 C4.79 4.77 2.46 2.95 0 1 C0 0.67 0 0.34 0 0 Z " fill="#4B78A1" transform="translate(622,588)"/>
<path d="M0 0 C0.33 0 0.66 0 1 0 C1 6.27 1 12.54 1 19 C-28.98 19.02 -58.96 19.04 -88.94 19.05 C-92.48 19.05 -96.02 19.05 -99.56 19.05 C-100.61 19.06 -100.61 19.06 -101.69 19.06 C-113.1 19.06 -124.51 19.07 -135.92 19.08 C-147.63 19.09 -159.33 19.09 -171.04 19.09 C-177.61 19.1 -184.19 19.1 -190.77 19.11 C-196.95 19.11 -203.14 19.11 -209.32 19.11 C-211.6 19.11 -213.87 19.12 -216.14 19.12 C-219.24 19.12 -222.34 19.12 -225.44 19.12 C-226.34 19.12 -227.25 19.13 -228.18 19.13 C-232.25 19.12 -236.03 19.03 -240 18 C-239.67 17.34 -239.34 16.68 -239 16 C-160.79 16 -82.58 16 -2 16 C-1.34 10.72 -0.68 5.44 0 0 Z " fill="#D1BB50" transform="translate(513,698)"/>
<path d="M0 0 C14.85 0 29.7 0 45 0 C45 0.33 45 0.66 45 1 C34.61 1.5 34.61 1.5 24 2 C24.66 2.66 25.32 3.32 26 4 C26.04 6.33 26.04 8.67 26 11 C26.33 11.33 26.66 11.66 27 12 C32.2 11.96 37.05 11.13 41.94 9.38 C42.65 9.09 43.36 8.81 44.09 8.52 C44.72 8.35 45.35 8.18 46 8 C46.99 8.33 47.98 8.66 49 9 C38.45 13.17 27.76 16.6 16.34 17.12 C10.56 17.24 4.78 17.16 -1 17 C-1 16.67 -1 16.34 -1 16 C2.3 15.67 5.6 15.34 9 15 C8.98 13.97 8.96 12.94 8.94 11.88 C8.99 8.45 9.35 5.35 10 2 C6.7 1.67 3.4 1.34 0 1 C0 0.67 0 0.34 0 0 Z " fill="#5381A9" transform="translate(509,496)"/>
<path d="M0 0 C11 -0.09 22 -0.16 32.99 -0.21 C38.1 -0.23 43.21 -0.26 48.32 -0.3 C53.27 -0.35 58.22 -0.37 63.16 -0.38 C65.03 -0.39 66.9 -0.4 68.77 -0.42 C81.8 -0.57 94.43 0.31 107 4 C112.49 6 117.77 8.4 123 11 C122.01 11.33 121.02 11.66 120 12 C117.68 11.14 117.68 11.14 114.88 9.81 C106.5 6.19 97.7 3.6 88.58 2.78 C82.49 2.46 76.4 2.54 70.31 2.61 C68.38 2.62 66.46 2.62 64.53 2.63 C59.52 2.64 54.51 2.68 49.5 2.73 C44.37 2.77 39.23 2.78 34.1 2.8 C24.06 2.85 14.03 2.92 4 3 C3.98 3.8 3.95 4.61 3.93 5.43 C3.82 9.11 3.71 12.78 3.59 16.46 C3.55 17.72 3.52 18.98 3.48 20.28 C2.93 37.2 2.93 37.2 0 45 C-0.99 45.5 -0.99 45.5 -2 46 C-1.18 38.86 -1.18 38.86 -0.49 35.5 C0.85 28.84 1.19 22.4 1.19 15.62 C1.19 14.77 1.19 13.91 1.19 13.03 C1.15 8.56 0.76 4.41 0 0 Z " fill="#F8DD48" transform="translate(633,420)"/>
<path d="M0 0 C2.49 -0.13 4.94 -0.19 7.44 -0.19 C8.13 -0.2 8.83 -0.21 9.54 -0.22 C11.36 -0.23 13.18 -0.12 15 0 C15.66 0.66 16.32 1.32 17 2 C17.33 1.67 17.66 1.34 18 1 C20.67 0.86 23.32 0.96 26 1 C26 4.3 26 7.6 26 11 C24.02 11.99 24.02 11.99 22 13 C22 11.68 22 10.36 22 9 C21.67 8.67 21.34 8.34 21 8 C20.01 8.5 20.01 8.5 19 9 C19.33 9.99 19.66 10.98 20 12 C18.68 12.99 17.36 13.98 16 15 C14.68 14.34 13.36 13.68 12 13 C11.67 13.99 11.34 14.98 11 16 C9.06 14.31 9.06 14.31 7 12 C6.25 9.25 6.25 9.25 6 7 C4.02 7.99 4.02 7.99 2 9 C1.34 8.34 0.68 7.68 0 7 C-0.69 3.94 -0.69 3.94 -1 1 C-0.67 0.67 -0.34 0.34 0 0 Z " fill="#436F97" transform="translate(767,312)"/>
<path d="M0 0 C12.05 1.97 23.59 4.87 34.32 10.85 C37.33 12.78 40.17 14.82 43 17 C43.87 17.67 44.75 18.33 45.64 19.02 C52.28 24.51 56.6 30.9 61.03 38.18 C62 40 62 40 62.76 42.17 C63.54 44.36 63.54 44.36 64.58 46.38 C65.05 46.91 65.52 47.45 66 48 C69.58 49.25 73.11 49.25 76.88 49.31 C79.04 49.42 81.2 49.53 83.37 49.64 C84.47 49.7 85.57 49.75 86.7 49.8 C91.84 50.11 96.91 50.78 102 51.5 C103.33 51.68 103.33 51.68 104.69 51.86 C109.97 52.6 114.76 53.69 120 55 C120.66 46.42 121.32 37.84 122 29 C122.33 29 122.66 29 123 29 C123.03 32.54 123.05 36.08 123.06 39.62 C123.07 40.62 123.08 41.62 123.09 42.65 C123.1 47.55 123.04 52.19 122 57 C115.65 56.36 109.43 55.4 103.16 54.2 C97.84 53.26 92.61 52.86 87.22 52.7 C70.71 52.08 70.71 52.08 64 50 C61.95 48.46 61.95 48.46 60.51 46.6 C58.67 43.23 57.6 39.67 56.62 35.96 C56 33.73 56 33.73 54.16 31 C48.48 24.02 42.29 18.72 34.7 13.9 C25.6 8.54 16.22 5.76 5.96 3.45 C3.97 2.99 1.98 2.5 0 2 C0 1.34 0 0.68 0 0 Z " fill="#EFDE4B" transform="translate(641,560)"/>
<path d="M0 0 C0.33 0 0.66 0 1 0 C1.07 5.41 1.13 10.82 1.16 16.22 C1.18 18.06 1.2 19.9 1.23 21.73 C1.26 24.39 1.28 27.04 1.29 29.69 C1.31 30.5 1.32 31.31 1.34 32.15 C1.34 35.33 1.23 38.19 0.37 41.26 C-0.74 44.31 -2.01 47.01 -3.75 49.75 C-6.64 52.64 -9.34 54.17 -13 56 C-16.13 57 -18.97 57.11 -22.25 57.06 C-23.14 57.05 -24.03 57.04 -24.95 57.04 C-25.63 57.02 -26.3 57.01 -27 57 C-25.02 50.89 -22.86 44.89 -20.5 38.91 C-20.17 38.09 -19.85 37.27 -19.51 36.42 C-18.84 34.7 -18.16 32.97 -17.47 31.25 C-16.43 28.61 -15.4 25.97 -14.36 23.33 C-13.7 21.65 -13.03 19.97 -12.37 18.29 C-11.91 17.11 -11.91 17.11 -11.44 15.9 C-11.15 15.17 -10.86 14.44 -10.56 13.69 C-10.3 13.04 -10.05 12.4 -9.79 11.74 C-9 10 -9 10 -7 7 C-7.56 12.95 -9.33 17.89 -11.6 23.4 C-11.95 24.27 -12.31 25.15 -12.67 26.05 C-13.79 28.83 -14.93 31.6 -16.06 34.38 C-17.2 37.17 -18.33 39.97 -19.47 42.76 C-20.17 44.5 -20.88 46.23 -21.59 47.97 C-22.4 49.97 -23.2 51.99 -24 54 C-24 54.33 -24 54.66 -24 55 C-20.62 54.87 -17.33 54.59 -14 54 C-10.31 52.12 -8.11 50.11 -5.25 47.12 C-2.97 44.2 -2.97 44.2 -1.89 41.36 C-0.79 37.21 -0.65 33.37 -0.59 29.1 C-0.57 28.27 -0.55 27.43 -0.53 26.57 C-0.47 23.92 -0.42 21.27 -0.38 18.62 C-0.34 16.82 -0.3 15.02 -0.26 13.21 C-0.16 8.81 -0.08 4.41 0 0 Z " fill="#F6E84A" transform="translate(762,659)"/>
<path d="M0 0 C1.98 0.99 1.98 0.99 4 2 C4.99 2 5.98 2 7 2 C6.01 3.49 6.01 3.49 5 5 C4.34 5 3.68 5 3 5 C3.99 6.49 3.99 6.49 5 8 C5.99 7.34 6.98 6.68 8 6 C9.02 9.05 9.2 11.3 9.25 14.5 C9.29 15.94 9.29 15.94 9.33 17.41 C9.22 18.26 9.11 19.12 9 20 C7.48 21.84 7.48 21.84 6 23 C5.86 22.26 5.71 21.51 5.56 20.75 C5.1 18.48 4.58 16.24 4 14 C3.02 18.05 2.92 21.84 3 26 C2.01 26 1.02 26 0 26 C0 17.42 0 8.84 0 0 Z " fill="#436F97" transform="translate(436,337)"/>
<path d="M0 0 C2.7 -0.07 5.37 -0.09 8.06 -0.06 C8.82 -0.06 9.58 -0.05 10.36 -0.05 C12.24 -0.04 14.12 -0.02 16 0 C16 1.32 16 2.64 16 4 C15.01 4.5 15.01 4.5 14 5 C14.84 6.05 14.84 6.05 15.69 7.12 C16.12 8.07 16.55 9.02 17 10 C15.69 13.31 15.69 13.31 14 16 C13.34 15.34 12.68 14.68 12 14 C11.88 10.88 11.88 10.88 12 8 C9.52 7.01 9.52 7.01 7 6 C6.01 6.99 5.02 7.98 4 9 C1.5 7.81 1.5 7.81 -1 6 C-1.38 3.38 -1.38 3.38 -1 1 C-0.67 0.67 -0.34 0.34 0 0 Z " fill="#447098" transform="translate(595,218)"/>
<path d="M0 0 C1.32 0.33 2.64 0.66 4 1 C3.67 1.66 3.34 2.32 3 3 C2.34 3 1.68 3 1 3 C1.28 3.87 1.28 3.87 1.56 4.75 C1.71 5.49 1.85 6.24 2 7 C1.69 8.34 1.35 9.67 1 11 C1.33 11.66 1.66 12.32 2 13 C2.99 12.67 3.98 12.34 5 12 C5 12.99 5 13.98 5 15 C1.32 16.18 -2.16 16.14 -6 16 C-6.33 15.67 -6.66 15.34 -7 15 C-7.07 13.48 -7.08 11.96 -7.06 10.44 C-7.05 9.61 -7.04 8.78 -7.04 7.93 C-7.02 7.3 -7.01 6.66 -7 6 C-6.38 5.71 -5.75 5.43 -5.11 5.13 C-4.41 4.76 -3.72 4.39 -3 4 C-1.27 1.97 -1.27 1.97 0 0 Z " fill="#436F97" transform="translate(601,291)"/>
<path d="M0 0 C0.66 0 1.32 0 2 0 C2.12 0.68 2.23 1.36 2.35 2.06 C3.38 6.72 5.07 11.13 6.65 15.62 C8.41 21.33 9.66 27.18 11 33 C26.18 33.33 41.36 33.66 57 34 C57 34.33 57 34.66 57 35 C40.83 35 24.66 35 8 35 C7.01 29.06 6.02 23.12 5 17 C4.02 13.78 3.11 10.92 1.81 7.88 C1.54 7.19 1.27 6.51 0.99 5.81 C0.34 4.2 -0.33 2.6 -1 1 C-0.67 0.67 -0.34 0.34 0 0 Z " fill="#FAEE4A" transform="translate(573,525)"/>
<path d="M0 0 C1.68 0.29 3.34 0.62 5 1 C5 1.66 5 2.32 5 3 C5.99 3.33 6.98 3.66 8 4 C7.69 5.01 7.38 6.02 7.06 7.06 C6.02 10.67 5.46 14.27 5 18 C4.01 18 3.02 18 2 18 C1.93 16.79 1.93 16.79 1.85 15.55 C1.74 13.95 1.74 13.95 1.62 12.31 C1.56 11.26 1.49 10.2 1.41 9.11 C1.01 6.09 0.26 3.76 -1 1 C-0.67 0.67 -0.34 0.34 0 0 Z " fill="#436F97" transform="translate(448,346)"/>
<path d="M0 0 C2.33 -0.04 4.67 -0.04 7 0 C7.33 0.66 7.66 1.32 8 2 C7.68 4 7.35 6 7 8 C6.96 10 6.95 12 7 14 C6.01 14.5 6.01 14.5 5 15 C4.01 14.34 3.02 13.68 2 13 C1.56 10.69 1.56 10.69 1.44 8 C1.35 5.37 1.35 5.37 1 3 C0.34 2.34 -0.32 1.68 -1 1 C-0.67 0.67 -0.34 0.34 0 0 Z " fill="#436F97" transform="translate(512,497)"/>
<path d="M0 0 C0.33 0 0.66 0 1 0 C1.03 0.99 1.05 1.99 1.08 3.01 C1.17 6.69 1.27 10.37 1.37 14.04 C1.42 15.64 1.46 17.23 1.5 18.83 C1.55 21.11 1.62 23.4 1.68 25.68 C1.7 26.4 1.72 27.12 1.73 27.86 C1.79 29.57 1.89 31.29 2 33 C2.33 33.33 2.66 33.66 3 34 C5.49 34.1 7.95 34.14 10.44 34.12 C11.48 34.13 11.48 34.13 12.54 34.14 C14.36 34.13 16.18 34.07 18 34 C18.99 33.5 18.99 33.5 20 33 C19.67 33.99 19.34 34.98 19 36 C16.02 36.03 13.04 36.05 10.06 36.06 C9.21 36.07 8.36 36.08 7.49 36.09 C6.68 36.09 5.87 36.09 5.04 36.1 C4.29 36.1 3.54 36.11 2.77 36.11 C2.18 36.08 1.6 36.04 1 36 C0.67 35.67 0.34 35.34 0 35 C-0.16 33.58 -0.25 32.16 -0.32 30.73 C-0.36 29.85 -0.4 28.96 -0.44 28.05 C-0.48 27.11 -0.52 26.16 -0.56 25.19 C-0.6 24.24 -0.65 23.28 -0.69 22.3 C-1.32 7.07 -1.32 7.07 -1 2 C-0.67 1.34 -0.34 0.68 0 0 Z " fill="#6092B8" transform="translate(593,273)"/>
<path d="M0 0 C3.3 0 6.6 0 10 0 C10.33 0.66 10.66 1.32 11 2 C10.01 2.99 9.02 3.98 8 5 C7.34 4.67 6.68 4.34 6 4 C5.23 5.84 5.23 5.84 5 8 C6.35 9.77 6.35 9.77 8 11 C6.35 11.33 4.7 11.66 3 12 C2.34 11.01 1.68 10.02 1 9 C1.38 5.81 1.38 5.81 2 3 C1.01 2.67 0.02 2.34 -1 2 C-0.67 1.34 -0.34 0.68 0 0 Z " fill="#436F97" transform="translate(533,497)"/>
<path d="M0 0 C0.99 0.33 1.98 0.66 3 1 C2.67 1.99 2.34 2.98 2 4 C2.17 4.62 2.33 5.24 2.5 5.88 C2.67 6.58 2.83 7.28 3 8 C2.45 12.1 1.17 16.03 0 20 C-1.56 18.81 -1.56 18.81 -3 17 C-2.62 14.5 -2.62 14.5 -2 12 C-2.33 11.01 -2.66 10.02 -3 9 C-2.56 6.31 -2.56 6.31 -2 4 C-1.34 4 -0.68 4 0 4 C-0.33 3.01 -0.66 2.02 -1 1 C-0.67 0.67 -0.34 0.34 0 0 Z " fill="#436F97" transform="translate(435,406)"/>
<path d="M0 0 C0.33 0 0.66 0 1 0 C1 8.58 1 17.16 1 26 C0.67 26 0.34 26 0 26 C-0.05 25.15 -0.1 24.29 -0.15 23.41 C-0.22 22.31 -0.3 21.2 -0.38 20.06 C-0.48 18.41 -0.48 18.41 -0.59 16.72 C-0.72 15.82 -0.86 14.93 -1 14 C-1.66 13.67 -2.32 13.34 -3 13 C-3.66 14.65 -4.32 16.3 -5 18 C-5.65 16.42 -5.65 16.42 -6 14 C-5.04 10.8 -5.04 10.8 -3.62 7.31 C-3.16 6.15 -2.7 4.99 -2.23 3.8 C-1.82 2.88 -1.42 1.95 -1 1 C-0.67 0.67 -0.34 0.34 0 0 Z " fill="#D9C14E" transform="translate(763,645)"/>
<path d="M0 0 C2.33 1 4.02 2.01 5.89 3.74 C11.23 9.67 15.25 15.97 19 23 C19.43 24.09 19.87 25.18 20.31 26.31 C20.87 27.2 21.43 28.08 22 29 C24.94 29.94 24.94 29.94 28.19 29.88 C29.27 29.91 30.36 29.95 31.48 29.99 C32.31 29.99 33.14 30 34 30 C34 30.33 34 30.66 34 31 C29.38 31 24.76 31 20 31 C19.52 29.96 19.03 28.92 18.53 27.85 C14.49 19.38 10.24 12.09 4 5 C2.66 3.34 1.32 1.67 0 0 Z " fill="#F5E74B" transform="translate(685,579)"/>
<path d="M0 0 C3.19 -0.19 3.19 -0.19 6 0 C6.23 3.03 6.36 5.97 6 9 C5.34 9.68 4.68 10.36 4 11.06 C3.34 11.37 2.68 11.68 2 12 C0.2 9.05 -1.5 6.11 -3 3 C-1.88 1.5 -1.88 1.5 0 0 Z " fill="#436F97" transform="translate(587,336)"/>
<path d="M0 0 C23.51 0.6 23.51 0.6 33 4 C34.35 4.64 35.68 5.3 37 6 C36.34 6.33 35.68 6.66 35 7 C32.9 6.48 32.9 6.48 30.38 5.62 C22.51 3.16 15.22 2.85 7 3 C7.33 4.32 7.66 5.64 8 7 C6.66 6.02 5.33 5.04 4 4.06 C3.26 3.52 2.51 2.97 1.75 2.41 C1.17 1.94 0.6 1.48 0 1 C0 0.67 0 0.34 0 0 Z " fill="#6194BA" transform="translate(622,588)"/>
<path d="M0 0 C0.33 0 0.66 0 1 0 C1.33 2.97 1.66 5.94 2 9 C3.24 9.29 4.49 9.58 5.77 9.88 C15.31 12.2 23.71 14.58 32 20 C31.01 20.5 31.01 20.5 30 21 C28.14 20.17 26.31 19.26 24.5 18.31 C16.32 14.37 7.88 12.69 -1 11 C-0.67 7.37 -0.34 3.74 0 0 Z " fill="#6093B9" transform="translate(184,508)"/>
<path d="M0 0 C1.32 0.33 2.64 0.66 4 1 C4.12 6.3 3.32 10.9 2 16 C1.48 15.67 0.97 15.34 0.44 15 C-0.27 14.01 -0.27 14.01 -1 13 C-0.91 11.09 -0.91 11.09 -0.56 8.94 C-0.38 7.64 -0.19 6.34 0 5 C-0.66 4.34 -1.32 3.68 -2 3 C-1.34 2.01 -0.68 1.02 0 0 Z " fill="#436F97" transform="translate(548,375)"/>
<path d="M0 0 C1.73 1.31 1.73 1.31 3 3 C4.25 5.44 4.25 5.44 5 8 C4.67 9.32 4.34 10.64 4 12 C2.68 9.03 1.36 6.06 0 3 C-0.93 3.14 -1.86 3.29 -2.82 3.44 C-4.05 3.62 -5.29 3.81 -6.56 4 C-7.78 4.19 -9 4.37 -10.25 4.56 C-13.88 4.99 -17.36 5.08 -21 5 C-21 4.67 -21 4.34 -21 4 C-17.57 3.24 -14.13 2.52 -10.69 1.81 C-9.71 1.6 -8.73 1.38 -7.73 1.16 C-6.32 0.87 -6.32 0.87 -4.89 0.58 C-3.59 0.31 -3.59 0.31 -2.27 0.03 C-1.52 0.02 -0.77 0.01 0 0 Z " fill="#6093B9" transform="translate(546,534)"/>
<path d="M0 0 C2.12 0.38 2.12 0.38 4 1 C4 2.32 4 3.64 4 5 C4.99 5.33 5.98 5.66 7 6 C6.01 6.99 5.02 7.98 4 9 C2.02 8.34 0.04 7.68 -2 7 C-2.12 4.62 -2.12 4.62 -2 2 C-1.34 1.34 -0.68 0.68 0 0 Z " fill="#436F97" transform="translate(524,497)"/>
<path d="M0 0 C0.66 0.33 1.32 0.66 2 1 C1.93 2.99 1.87 4.97 1.8 6.96 C1.87 7.63 1.93 8.31 2 9 C2.99 10.49 2.99 10.49 4 12 C2.02 12.99 2.02 12.99 0 14 C-1.06 11.81 -1.06 11.81 -2 9 C-1.62 6.38 -1.62 6.38 -1 4 C-1 3.01 -1 2.02 -1 1 C-0.67 0.67 -0.34 0.34 0 0 Z " fill="#436F97" transform="translate(590,367)"/>
<path d="M0 0 C0.66 0.33 1.32 0.66 2 1 C-3.28 6.28 -8.56 11.56 -14 17 C-14 16.01 -14 15.02 -14 14 C-10.05 8.64 -5.25 4.07 0 0 Z " fill="#5C8DB4" transform="translate(220,443)"/>
<path d="M0 0 C0.33 0 0.66 0 1 0 C0.67 3.96 0.34 7.92 0 12 C2.97 12.33 5.94 12.66 9 13 C9 13.33 9 13.66 9 14 C3.06 14.5 3.06 14.5 -3 15 C-0.99 3.75 -0.99 3.75 0 0 Z " fill="#6598BE" transform="translate(367,568)"/>
<path d="M0 0 C1.81 0.75 1.81 0.75 4 2 C5.75 4.12 5.75 4.12 7 6 C5.35 6.66 3.7 7.32 2 8 C0.79 5.67 -0.17 3.5 -1 1 C-0.67 0.67 -0.34 0.34 0 0 Z " fill="#436F97" transform="translate(457,353)"/>
<path d="M0 0 C2 1.12 2 1.12 4 3 C4.44 6.06 4.44 6.06 4 9 C2.51 9.99 2.51 9.99 1 11 C1 10.01 1 9.02 1 8 C0.65 7.36 0.3 6.72 -0.06 6.06 C-0.37 5.38 -0.68 4.7 -1 4 C-0.62 1.75 -0.62 1.75 0 0 Z " fill="#436F97" transform="translate(600,420)"/>
<path d="M0 0 C0.66 0.33 1.32 0.66 2 1 C1.84 1.74 1.67 2.49 1.5 3.25 C0.88 6.19 0.88 6.19 1 10 C-0.32 8.68 -1.64 7.36 -3 6 C-2.36 4.32 -1.69 2.66 -1 1 C-0.67 0.67 -0.34 0.34 0 0 Z " fill="#436F97" transform="translate(580,345)"/>
<path d="M0 0 C0.66 0.66 1.32 1.32 2 2 C1.62 4.62 1.62 4.62 1 7 C0.01 7 -0.98 7 -2 7 C-2.66 6.01 -3.32 5.02 -4 4 C-2.68 2.68 -1.36 1.36 0 0 Z " fill="#436F97" transform="translate(451,479)"/>
<path d="M0 0 C0.66 0.33 1.32 0.66 2 1 C1.67 1.66 1.34 2.32 1 3 C5.46 3.99 5.46 3.99 10 5 C9.01 5.33 8.02 5.66 7 6 C5.1 5.91 3.2 5.76 1.31 5.56 C0.32 5.46 -0.68 5.36 -1.7 5.25 C-2.46 5.17 -3.22 5.09 -4 5 C-2.68 3.35 -1.36 1.7 0 0 Z " fill="#6396BB" transform="translate(546,469)"/>
<path d="M0 0 C0.99 0.99 1.98 1.98 3 3 C2.11 3.06 1.22 3.12 0.3 3.18 C-1.46 3.31 -1.46 3.31 -3.25 3.44 C-4.99 3.56 -4.99 3.56 -6.77 3.68 C-9.31 3.93 -11.56 4.28 -14 5 C-12.82 3.54 -12.82 3.54 -11 2 C-8.55 1.52 -8.55 1.52 -5.88 1.38 C-4.25 1.28 -2.62 1.16 -1 1 C-0.67 0.67 -0.34 0.34 0 0 Z " fill="#699EC3" transform="translate(519,471)"/>
<path d="M0 0 C0.55 0.72 0.55 0.72 1.11 1.46 C2.05 2.22 2.05 2.22 3 3 C5.96 3.58 5.96 3.58 9.19 3.69 C10.27 3.75 11.36 3.82 12.48 3.89 C13.73 3.94 13.73 3.94 15 4 C15 4.33 15 4.66 15 5 C10.38 5 5.76 5 1 5 C0.67 3.35 0.34 1.7 0 0 Z " fill="#FDF54A" transform="translate(704,605)"/>
<path d="M0 0 C0.33 0.66 0.66 1.32 1 2 C-1.31 4.5 -1.31 4.5 -4 7 C-4.99 7 -5.98 7 -7 7 C-4.69 4.69 -2.38 2.38 0 0 Z " fill="#EEE24D" transform="translate(758,705)"/>
</svg>
