<svg version="1.1" xmlns="http://www.w3.org/2000/svg" xmlns:xlink="http://www.w3.org/1999/xlink" width="600" height="600" viewBox="0,0,600,600"><g fill="none" fill-rule="nonzero" stroke="none" stroke-width="1" stroke-linecap="butt" stroke-linejoin="miter" stroke-miterlimit="10" stroke-dasharray="" stroke-dashoffset="0" font-family="none" font-weight="none" font-size="none" text-anchor="none"><g><path d="M78.45442,361.34191c2.2916,0.93807 4.51256,2.07484 6.60664,3.39628c1.504,0.94908 2.84991,2.14317 4.12926,3.37849c3.48972,3.36961 5.24448,6.26284 7.26669,10.88535c1.04431,2.38716 2.07076,4.83584 2.50229,7.40545c0.57816,3.44275 0.35538,6.97299 0.49814,10.46104c0.03279,0.80116 0.01941,1.60355 0.02847,2.40533c0.01941,1.71978 0.03582,3.4396 0.05693,5.15936c0.03345,2.72559 0.07142,5.45112 0.10675,8.17669c0.10042,7.74735 0.18847,15.49422 0.28465,23.24201c0.0589,4.74427 0.12658,9.48843 0.18503,14.2327c0.02221,1.80277 0.03521,3.60565 0.05693,5.40843c0.03047,2.52871 0.07214,5.05729 0.09963,7.58603c0.03096,2.84872 -0.1009,4.26739 0.46968,7.546c0.73447,4.22031 2.18625,7.69281 4.32496,11.44665c1.14608,2.01158 2.39752,3.98477 3.89442,5.7509c1.21311,1.43129 2.68782,2.63165 4.1773,3.77256c3.27272,2.50682 6.34462,4.05197 10.25022,5.39153c1.889,0.6479 3.80209,1.34883 5.79004,1.53891c4.65571,0.44515 9.35034,0.26102 14.02633,0.35582c1.40876,0.02856 2.81807,0.01296 4.22711,0.01423c3.85706,0.00347 7.71413,-0.00114 11.57119,0c18.95323,0.0056 37.90642,0.01344 56.85966,0.00712c2.3911,-0.0008 4.78219,0.00769 7.17328,0.00712c17.94981,-0.00429 35.89962,-0.01884 53.84944,-0.02135c43.33147,-0.00607 86.66294,0.02135 129.99441,0.02135c12.18557,0 24.37114,0.00021 36.5567,-0.00712c5.13326,-0.00309 10.26653,-0.01372 15.39979,-0.00712c2.52003,0.00324 5.92188,0.0949 8.53962,-0.17613c1.14526,-0.11857 2.28165,-0.31751 3.41318,-0.53039c1.65904,-0.31213 3.36734,-0.47217 4.95565,-1.0441c2.49004,-0.89663 4.90783,-2.0212 7.20531,-3.3349c2.2953,-1.31245 4.59717,-2.70185 6.52214,-4.51444c1.78689,-1.68257 3.14053,-3.7869 4.47885,-5.8443c2.98137,-4.58326 4.40361,-7.77389 5.44668,-13.1101c0.87506,-4.47672 0.72066,-6.7627 0.73476,-10.92716c0.00254,-0.7496 0.01197,-1.49917 0.01423,-2.24877c0.00485,-1.60355 0.00162,-3.20711 0.00712,-4.81065c0.00873,-2.54529 0.0257,-5.09056 0.03558,-7.63585c0.02807,-7.22783 0.05034,-14.45569 0.07828,-21.68353c0.0202,-5.22687 0.06109,-12.56762 0.07116,-18.34596c0.00456,-2.61505 -0.00752,-6.53846 0.02969,-9.26405c0.01361,-0.99718 0.06858,-4.21355 0.20782,-5.39119c0.14228,-1.20336 0.30034,-2.40851 0.56408,-3.5912c0.88685,-3.97684 2.23104,-7.06442 4.40313,-10.71712c1.29922,-2.18483 2.76888,-4.2865 4.45217,-6.19123c1.36276,-1.54203 2.97887,-2.85537 4.62919,-4.08479c1.65347,-1.23176 3.38793,-2.3846 5.24831,-3.27352c4.30983,-2.05931 9.46198,-3.46343 14.22559,-3.84283c4.0519,-0.32272 8.74486,0.39138 12.63864,1.44462c2.79654,0.75644 7.04654,2.55714 9.42205,4.24846c1.8462,1.31446 3.55416,2.82916 5.15313,4.43527c3.66962,3.68601 6.63027,7.63169 8.03347,12.80054c0.70989,2.61494 0.64848,5.39327 0.64848,8.10286c0,2.71136 -0.18651,5.43648 -0.64848,8.10819c-0.37937,2.19401 -2.34834,6.18658 -3.57953,7.99878c-2.87888,4.23747 -6.78827,8.18115 -9.47542,12.53545c-1.49393,2.42079 -2.62105,5.05121 -3.83216,7.62517c-0.25837,0.54911 -0.37836,1.15324 -0.56931,1.72927c-0.23603,0.71203 -0.60036,1.39308 -0.71164,2.13491c-0.16901,1.12673 -0.09031,2.27693 -0.12098,3.41585c-0.03094,1.14909 -0.03276,3.35152 -0.0427,4.46907c-0.04799,5.39905 -0.12419,10.79803 -0.19214,16.19682c-0.10047,7.9822 -0.18842,15.96389 -0.28465,23.94653c-0.05883,4.87948 -0.12661,9.75885 -0.18503,14.63834c-0.02224,1.85733 -0.03521,3.71477 -0.05693,5.5721c-0.03046,2.60462 -0.07215,5.2091 -0.09963,7.81375c-0.00811,0.76853 0.03845,1.53848 -0.00712,2.3057c-0.24567,4.1367 -0.35201,6.70088 -1.80755,10.63183c-1.04745,2.82882 -3.5747,7.26847 -5.55075,9.55726c-1.20796,1.39914 -2.61458,2.62789 -4.075,3.76099c-1.46084,1.13343 -2.97035,2.25568 -4.65676,3.01378c-3.21637,1.44585 -6.56242,2.62418 -9.96289,3.55818c-1.08706,0.29858 -2.25326,0.0803 -3.38027,0.10675c-0.71156,0.0167 -3.73429,0.03083 -4.36944,0.03558c-5.10479,0.03821 -10.20956,0.08109 -15.31439,0.11386c-8.71041,0.05593 -17.42079,0.11517 -26.13125,0.16368c-7.51343,0.04184 -15.02684,0.08619 -22.54031,0.12083c-49.96878,0.23035 -99.9385,0.22854 -149.9077,0.21842c-23.34001,-0.00472 -46.68002,-0.01654 -70.02002,-0.03035c-12.00017,-0.0071 -19.78734,0.00438 -29.99575,-0.02425c-22.73675,-0.06376 -45.4735,-0.12569 -68.21024,-0.19214c-13.49025,-0.03942 -26.98054,-0.09193 -40.4707,-0.15656c-2.58087,-0.01236 -5.16171,-0.03181 -7.74259,-0.0427c-1.35447,-0.00572 -2.71016,0.05007 -4.06344,-0.00712c-4.58717,-0.19385 -8.20805,-0.33098 -12.58883,-1.89295c-3.03314,-1.08147 -7.69663,-3.94314 -10.10522,-6.06313c-1.36292,-1.19962 -2.56364,-2.58757 -3.65514,-4.03853c-2.3114,-3.07262 -3.80091,-6.20294 -4.92896,-9.87216c-0.55041,-1.79033 -1.04249,-3.61841 -1.23647,-5.48137c-0.27741,-2.66432 -0.12493,-5.35603 -0.17079,-8.03436c-0.01344,-0.78506 -0.00712,-1.57034 -0.00712,-2.35551c0,-1.67709 0.00803,-3.35417 0.00712,-5.03126c-0.00813,-14.87319 -0.05623,-29.74636 -0.07828,-44.61953c-0.00261,-1.76011 -0.01801,-3.52031 0,-5.28033c0.01079,-1.05405 0.06152,-2.10732 0.08638,-3.16113c0.04922,-2.08625 0.09822,-4.26572 -0.0339,-6.33742c-0.08136,-1.27574 -0.25178,-2.54447 -0.40774,-3.81325c-0.05714,-0.46484 -0.81486,-5.45968 -0.8474,-5.54653c-1.96865,-5.25365 -4.51696,-9.50316 -7.79952,-14.02633c-0.73984,-1.01945 -1.76085,-1.80897 -2.53342,-2.80384c-2.81443,-3.62427 -5.22279,-7.02821 -6.71784,-11.42886c-1.03737,-3.05349 -1.02949,-7.07076 -0.93936,-10.2262c0.04339,-1.51904 0.09369,-3.04548 0.32557,-4.54735c0.66588,-4.31286 1.75403,-6.64069 4.25647,-10.52775c1.23875,-1.92416 2.62827,-3.76981 4.21377,-5.41999c2.40568,-2.50381 6.88994,-5.58592 10.06964,-6.97403c1.79458,-0.78343 3.7142,-1.26012 5.61981,-1.71059c3.69319,-0.87305 7.27875,-1.23106 11.07149,-1.04344c1.93371,0.09566 10.56846,1.95643 12.86025,2.89458z" fill="#fabe41"/><path d="M201.747,273.39785c4.11853,1.60231 8.11402,3.50456 12.16274,5.27589c0.62718,0.27439 1.26502,0.5305 1.86448,0.86108c1.52333,0.84005 3.17691,1.51495 4.49753,2.64728c0.57111,0.48968 0.72993,1.32515 0.96782,2.03883c0.24002,0.72005 0.31672,1.48477 0.45545,2.23098c0.16494,0.8872 0.3101,1.77801 0.45545,2.66863c0.07765,0.47578 0.11029,0.95949 0.21349,1.43039c1.75652,8.01487 2.67899,14.1456 6.76053,21.42734c2.13389,3.807 4.78025,7.32786 7.58247,10.67364c2.8042,3.34814 5.93255,6.42851 9.18365,9.34466c2.02453,1.81595 4.32712,3.30215 6.59286,4.80643c6.86928,4.56068 14.14789,8.08878 21.97218,10.87801c6.58423,2.34717 14.76527,4.27974 22.0012,4.91962c2.54296,0.22488 5.10073,0.23316 7.65264,0.30378c0.93664,0.02592 1.87505,0.03101 2.81096,-0.01423c3.37742,-0.16326 6.76799,-0.21162 10.12568,-0.61112c3.35253,-0.39888 6.93025,-3.24729 9.9709,-1.77998c2.69201,1.29907 2.55864,5.42158 3.47278,8.26742c2.38206,7.41566 2.06979,9.07594 2.23453,16.46902c0.01871,0.83952 -0.00442,1.67946 -0.00712,2.51919c-0.00205,0.64047 0.61466,1.76778 -0.00712,1.92142c-2.77569,0.68587 -5.71688,0.12977 -8.5752,0.19926c-2.79461,0.06794 -7.37995,0.26502 -10.00203,0.01868c-1.88258,-0.17686 -3.80022,-0.35487 -5.58989,-0.96516c-3.54181,-1.20776 -6.88417,-2.93676 -10.30448,-4.45484c-0.50405,-0.22372 -0.96727,-0.53115 -1.46486,-0.7689c-1.20857,-0.57747 -2.16837,-0.79113 -3.64468,-0.78958c-1.89926,0.00199 -3.19006,0.52342 -4.76084,1.55848c-0.65851,0.43392 -1.28314,0.93746 -1.80755,1.52646c-0.45011,0.50555 -0.97259,1.05056 -1.08169,1.7186c-0.41171,2.521 -0.49413,5.09609 -0.44833,7.65008c0.01408,0.78484 0.28666,1.5624 0.62624,2.27012c0.33077,0.68935 0.82287,1.30108 1.35211,1.85292c1.83929,1.91785 8.7106,4.25211 8.84829,4.29917c2.53531,0.86653 5.13633,1.61032 7.78974,1.9819c7.20636,1.00919 15.77186,0.67769 23.00717,0.67605c4.01364,-0.00091 8.02723,0.02852 12.04087,0.03558c1.3782,0.00243 2.75784,-0.07007 4.1346,-0.00712c6.35262,0.29047 11.50176,0.51361 17.63432,2.41244c1.88787,0.58454 3.64089,1.56237 5.3515,2.5521c4.12633,2.38741 6.76718,4.52188 9.23703,8.79136c1.19466,2.06514 1.38361,3.85188 1.33254,5.99019c-0.00781,0.32686 -0.05191,0.6519 -0.08517,0.97716c-0.0551,0.53884 -0.03813,1.0922 -0.17991,1.61497c-0.20921,0.77135 -0.50722,1.52147 -0.86464,2.23631c-0.35742,0.71484 -0.70776,1.46575 -1.27027,2.0335c-1.30396,1.3161 -2.64665,2.66499 -4.26981,3.55818c-1.07355,0.59075 -2.37819,0.62201 -3.59465,0.76946c-3.24552,0.3934 -5.21597,0.04161 -8.47913,-0.8166c-1.58041,-0.41565 -3.08305,-1.089 -4.64965,-1.55403c-5.07029,-1.50507 -10.16337,-2.93275 -15.25746,-4.35521c-0.50505,-0.14103 -1.02091,-0.24242 -1.53713,-0.33447c-2.31268,-0.4124 -4.6142,-0.91244 -6.94823,-1.17865c-2.33173,-0.26594 -4.68339,-0.31967 -7.02829,-0.41542c-0.42257,-0.01725 -3.38226,0.02326 -4.27693,0.02847c-1.54661,0.00899 -3.09325,0.0127 -4.63986,0.02135c-7.08551,0.03963 -14.17102,0.07764 -21.25654,0.11386c-5.02225,0.02567 -9.50249,0.15261 -14.778,-0.47146c-3.87779,-0.45873 -7.75845,-1.12203 -11.49558,-2.2541c-5.45926,-1.65376 -10.82587,-5.21104 -15.27169,-8.65348c-2.20797,-1.70966 -4.14855,-3.74265 -6.3122,-5.50806c-3.08519,-2.51732 -6.08631,-5.17035 -9.42828,-7.33518c-3.33676,-2.16146 -6.8863,-4.01196 -10.53309,-5.59523c-3.23236,-1.40334 -10.04765,-2.65333 -13.54153,-2.96218c-4.62219,-0.4086 -9.32541,0.0089 -13.89913,-0.7739c-0.51999,-0.089 0.24035,-1.02886 0.31312,-1.55136c0.52872,-3.79644 1.33839,-7.57213 1.49088,-11.40218c0.32705,-8.21468 -0.42206,-13.27259 -3.26552,-20.79398c-1.14411,-3.02635 -2.46141,-6.01491 -4.15328,-8.77268c-1.59106,-2.59345 -3.58633,-4.93118 -5.63437,-7.18129c-5.10351,-5.60705 -9.24633,-8.67334 -16.13633,-12.24191c-8.27262,-4.28467 -9.27411,-4.58877 -17.355,-4.95031c-0.54337,-0.02431 -2.45561,0.41569 -2.93905,0.71164c-1.51191,0.92552 -2.58828,2.10099 -3.55818,3.55818c-0.2939,0.44156 -0.65886,0.89548 -0.71164,1.42327c-0.18883,1.88828 -0.21303,3.80738 0,5.69308c0.08018,0.70974 0.49716,1.34809 0.86464,1.96056c0.56815,0.94692 1.63564,2.05045 2.53342,2.72378c0.50064,0.37548 1.00134,0.77884 1.58339,1.00874c1.6348,0.64573 3.37536,0.99204 5.02414,1.60118c2.3775,0.87835 4.79258,1.69804 7.04608,2.85811c2.25754,1.16214 4.42703,2.52279 6.43229,4.08034c3.32761,2.58466 5.43023,5.60852 7.65008,9.12316c0.71067,1.12518 1.2863,2.33039 1.90596,3.50814c0.97205,1.84751 1.89967,3.70544 2.22864,5.81428c0.731,4.68602 1.00524,11.71101 0.31312,16.42454c-0.40375,2.74962 -2.34754,6.12682 -3.55818,8.53962c-0.23788,0.47409 -0.66361,0.89503 -0.71164,1.42327c-0.19329,2.12614 -0.18791,4.2781 0,6.40472c0.11784,1.33364 1.15006,3.35397 2.13491,4.26981c0.56752,0.52775 1.29763,0.8543 1.9908,1.20088c0.73432,0.36716 1.48517,0.72463 2.27901,0.93402c1.41809,0.37404 3.20413,0.25443 4.63986,0.26331c0.89198,0.00551 1.78379,0.0275 2.67575,0.03558c0.9417,0.00853 1.88465,-0.0333 2.82519,0.01423c4.29383,0.21701 8.59588,0.35668 12.87437,0.77924c4.10383,0.40531 8.64599,1.605 12.51677,2.97819c2.63747,0.93567 3.69591,1.30278 5.29812,3.30555c0.45875,0.57344 0.97051,1.16472 1.15641,1.87516c0.18615,0.71141 0.03194,1.47893 -0.08895,2.20429c-0.11822,0.70933 -0.25989,1.44463 -0.62268,2.06552c-0.28692,0.49106 -0.80283,0.81161 -1.25782,1.15285c-0.49807,0.37355 -0.99875,0.78321 -1.58873,0.98206c-0.86075,0.29011 -3.4486,0.24939 -4.2627,0.25619c-0.88004,0.00735 -1.7601,0.0165 -2.64017,0.01423c-0.96312,-0.00248 -1.92612,-0.02501 -2.88924,-0.02847c-1.01763,-0.00366 -2.03528,0.00903 -3.05292,0.00712c-2.75878,-0.0052 -5.51754,-0.02035 -8.27632,-0.02847c-14.56478,-0.04286 -29.12961,-0.07387 -43.6944,-0.11386c-12.79046,-0.03512 -25.60436,0.66823 -38.37137,-0.10675c-0.73884,-0.04485 0.02712,-1.48015 0.03558,-2.2203c0.03186,-2.7872 0.05552,-5.57449 0.0854,-8.36171c0.06947,-6.47983 0.18914,-8.87601 -0.41542,-17.33277c-0.1625,-2.2731 -0.5468,-4.53023 -1.00796,-6.76198c-1.24795,-6.03929 -2.72864,-10.01362 -5.92425,-15.58959c-1.62885,-2.84215 -3.43797,-5.61169 -5.58278,-8.08773c-5.01644,-5.79114 -9.81827,-8.97501 -16.36761,-12.80943c-1.57267,-0.92075 -3.24749,-1.66576 -4.93786,-2.34673c-1.66119,-0.66922 -3.36404,-1.24807 -5.09798,-1.69625c-3.50529,-0.90604 -8.50105,0.58711 -10.60159,-2.36174c-1.51272,-2.12364 2.89703,-20.28295 3.55818,-22.06069c1.47914,-3.97723 3.76142,-7.60795 5.69308,-11.38616c1.49029,-2.91491 4.32774,-6.80347 5.95639,-8.85185c1.69298,-2.1293 3.60389,-4.07599 5.42978,-6.09249c0.56308,-0.62186 1.14319,-1.22859 1.73639,-1.82179c0.5932,-0.5932 1.22188,-1.14997 1.82179,-1.73639c0.4558,-0.44556 0.85155,-0.95574 1.34499,-1.35922c3.31072,-2.70715 6.49861,-5.59438 10.05807,-7.96498c3.56669,-2.37541 7.37051,-4.4011 11.24828,-6.22503c4.74549,-2.23207 13.04719,-4.60739 18.15782,-5.71009c12.32688,-2.65973 25.09662,-3.03396 37.59124,-1.43417c3.14292,0.40241 6.27171,0.93278 9.37363,1.57934c3.11542,0.64938 17.67681,5.03443 21.79555,6.63682z" fill="#48749d"/><path d="M309.78408,67.88738c8.69139,-0.02362 17.3829,-0.03073 26.07431,-0.0427c22.19829,-0.03056 44.39651,-0.05727 66.59483,-0.07116c3.71474,-0.00233 7.42947,0.00393 11.14421,0c11.96259,-0.01267 23.92517,-0.03577 35.88776,-0.04981c12.27571,-0.01442 24.55142,-0.02191 36.82712,-0.03558c15.75797,-0.01755 31.51595,-0.0439 47.27393,-0.05693c2.74454,-0.00227 5.48908,0.00174 8.23362,0c0.99155,-0.00063 1.98354,-0.03717 2.97464,-0.00712c2.84296,0.0862 5.7086,-0.03863 8.52539,0.35582c1.18775,0.16633 4.12553,2.11812 4.98145,2.84654c0.46891,0.39907 1.89902,2.16331 2.13491,2.84654c0.80905,2.34336 0.75161,3.88495 0.80415,6.32644c0.01909,0.88697 0.00599,1.77434 0.00712,2.66152c0.00257,2.01867 0.00466,4.03734 0.00712,6.05602c0.00348,2.8584 0.00483,5.7168 0.00712,8.5752c0.00246,3.08138 0.00414,6.16276 0.00712,9.24414c0.00651,6.73919 0.01551,13.47837 0.02135,20.21756c0.01504,17.35678 0.00773,34.71358 0.02135,52.07035c0.02665,33.95448 0.05348,67.90898 0.07828,101.86347c0.00436,5.97536 0.00952,11.95073 0.01423,17.92609c0.0024,3.04817 0.00588,6.09634 0.00712,9.14451c0.00113,2.78961 -0.00174,5.57922 0,8.36883c0.00063,1.01052 0.00712,2.02104 0.00712,3.03157c0,1.37346 -0.0056,2.74691 -0.00712,4.12037c-0.00085,0.76857 0.06081,1.53954 0,2.3057c-0.13527,1.70427 -0.48758,2.92918 -1.25959,4.47619c-0.6041,1.21053 -1.47134,2.40388 -2.56189,3.23082c-0.45738,0.34682 -0.98606,0.59431 -1.51222,0.82372c-0.66351,0.28929 -1.3253,0.65989 -2.04595,0.72765c-1.88936,0.17764 -3.8359,0.39002 -5.69308,0c-1.11867,-0.23493 -2.00155,-1.11923 -2.91415,-1.80755c-1.09253,-0.82404 -2.96826,-2.34983 -3.49057,-3.88553c-0.29754,-0.87483 -0.27244,-3.31011 -0.28465,-4.14883c-0.01247,-0.8563 -0.02393,-1.71263 -0.02847,-2.569c-0.00496,-0.93697 0.00346,-1.87398 0,-2.81096c-0.00365,-0.98919 -0.01688,-1.97833 -0.02135,-2.96752c-0.02482,-5.48907 -0.04549,-10.97817 -0.07116,-16.46724c-0.02483,-5.30879 -0.04787,-10.6176 -0.07116,-15.9264c-0.02653,-6.04653 -0.05267,-12.09305 -0.07828,-18.13958c-0.05267,-12.43701 0.71879,-24.90476 -0.15656,-37.31104c-0.0581,-0.82345 -1.651,-0.0039 -2.47649,-0.00712c-19.85463,-0.07743 -39.70924,-0.15694 -59.56387,-0.23484c-22.39752,-0.08788 -44.7951,-0.16348 -67.1926,-0.25619c-5.7002,-0.02359 -11.40039,-0.04875 -17.10059,-0.07116c-2.0851,-0.0082 -4.17017,-0.02116 -6.25527,-0.02847c-0.62149,-0.00218 -1.2431,0.01159 -1.86448,0c-1.41405,-0.02637 -2.8463,0.11865 -4.24135,-0.11386c-0.3309,-0.05515 -0.65791,-0.3805 -0.71164,-0.71164c-0.21961,-1.35359 -0.05794,-2.74203 -0.07116,-4.11325c-0.00812,-0.84207 0.00365,-1.68421 0.00712,-2.52631c0.0073,-1.77198 0.01888,-3.54394 0.02847,-5.31592c0.01181,-2.18235 -1.80632,-5.37649 0.03558,-6.54704c3.2095,-2.03969 8.2819,1.48491 11.38616,-0.71164c2.01053,-1.42263 0.04098,-4.92573 0.06147,-7.3886c0.01811,-2.17675 0.03622,-4.35351 0.05434,-6.53026c0.15698,-18.85557 0.31546,-37.71112 0.47535,-56.56666c0.00468,-0.55146 0.12046,-14.19906 0.12048,-14.19907c6.21467,-2.34373 13.7438,2.42864 19.92579,0c2.42864,-0.95411 -0.28703,-5.23449 0,-7.82799c0.12462,-1.12604 2.05994,-4.86764 2.84654,-5.69308c1.50873,-1.58324 3.08026,-3.18889 4.98145,-4.26981c1.56753,-0.89122 6.11302,-0.81819 7.77106,-0.85396c1.73127,-0.03735 3.46331,-0.01595 5.19494,-0.02847c1.78149,-0.01288 3.56288,-0.03825 5.34438,-0.04981c1.14097,-0.00741 2.282,0.00096 3.42297,-0.00712c2.627,-0.0186 4.52327,-0.25769 7.45082,0.68317c1.77149,0.56932 3.48068,1.49219 4.86758,2.73268c1.8061,1.61543 4.2406,6.66295 5.01703,8.85986c1.57589,4.45899 2.87643,9.01059 4.29828,13.52107c0.34066,1.08067 0.66055,2.16778 0.98917,3.25217c0.68427,2.25792 1.36488,4.51695 2.04951,6.77477c1.87659,6.18877 3.75072,12.37832 5.62903,18.56656c0.45072,1.48494 0.90315,2.96936 1.35211,4.45484c0.25794,0.85344 0.5279,1.70342 0.76857,2.56189c0.46629,1.66331 0.54167,3.47727 1.35211,5.0028c0.20478,0.38546 0.87295,0.00378 1.30941,0.00712c4.52601,0.03462 9.05198,0.07391 13.578,0.10675c1.68656,0.01224 3.37318,0.01486 5.05973,0.02847c2.43146,0.01961 4.86278,0.05488 7.29426,0.07116c2.45667,0.01645 6.46346,-0.1502 8.34036,0.49814c3.12149,1.07826 7.69009,4.70501 9.25126,7.82799c0.65366,1.3076 0.60808,2.86704 0.73743,4.32318c0.13004,1.46382 0.02906,2.93903 0.03825,4.40858c0.0148,2.36734 -0.01205,4.73475 -0.02135,7.10212c-0.00978,2.4908 -0.04964,12.62842 -0.0427,12.63153c5.63508,2.51799 17.57474,5.3903 18.50252,-0.71164c6.06177,-39.86779 35.43657,-101.73129 0,-120.97799c-65.24498,-35.43657 -156.16429,-32.86471 -222.74183,0c-32.97039,16.27519 -0.0695,73.54048 -0.71164,110.30346c-0.01626,0.93114 -0.82684,1.66913 -1.25859,2.49428c-0.64507,1.23283 -1.34156,2.51157 -2.43479,3.42652c-0.60785,0.50872 -1.37333,0.79547 -2.08954,1.13506c-0.32567,0.15441 -0.67994,0.24045 -1.02576,0.34203c-1.41948,0.41696 -1.63513,0.52083 -3.07415,0.52083c-0.50202,0 -1.03853,0.09898 -1.50333,-0.09073c-1.96436,-0.80177 -3.88578,-1.73513 -5.69308,-2.84654c-0.55451,-0.341 -0.91171,-0.93452 -1.30229,-1.45529c-1.16503,-1.55337 -1.29761,-2.67268 -1.54781,-4.81688c-0.08968,-0.7686 -0.09892,-3.73021 -0.10319,-5.02148c-0.0095,-2.87511 -0.01672,-5.65333 -0.02135,-8.51827c-0.00521,-3.22371 -0.00839,-6.44742 -0.01423,-9.67112c-0.01506,-8.31189 -0.0183,-16.6238 -0.02847,-24.9357c-0.0089,-7.27292 -0.02354,-14.54582 -0.03558,-21.81874c-0.00931,-5.61955 -0.01955,-11.23909 -0.02847,-16.85864c-0.01033,-6.51383 -0.01061,-13.02767 -0.02135,-19.5415c-0.00191,-1.15997 -0.01323,-2.31992 -0.01423,-3.4799c-0.00137,-1.5822 0.00712,-3.1644 0.00712,-4.74661c0,-0.89429 -0.06858,-1.79069 -0.00712,-2.68286c0.05569,-0.80838 0.15363,-1.62023 0.3576,-2.40444c0.41538,-1.59705 1.07399,-2.97218 2.12423,-4.24313c0.50767,-0.61435 1.02223,-1.26352 1.70259,-1.67857c1.19096,-0.72653 2.4734,-1.35623 3.82682,-1.69458c1.36209,-0.34052 2.80028,-0.20815 4.20043,-0.31223M433.76517,124.19907l-0.71164,84.68459h33.44686c-0.88243,-2.59747 -1.76486,-5.19494 -2.66863,-7.87069c-2.70421,-8.05571 -5.25898,-16.15412 -7.74259,-24.28099c-0.17079,-0.56931 -0.3487,-1.13862 -0.52661,-1.72216c-0.17079,-0.56931 -0.3487,-1.14573 -0.53373,-1.73639c-0.36293,-1.20266 -0.73298,-2.39821 -1.09592,-3.59376c-0.18503,-0.61201 -0.37005,-1.2169 -0.56219,-1.85025c-2.27012,-7.40101 -4.57581,-14.80201 -6.88151,-22.1959l-1.43039,-4.59005l-2.00681,-6.4403l-0.60489,-1.94276c-0.89666,-2.86789 -1.81467,-5.68597 -2.98887,-8.46134z" fill="#da9584"/><path d="M411.69452,269.22606c7.15665,-0.04443 14.31337,-0.07898 21.47003,-0.12098c1.33077,-0.00781 2.66216,-0.07081 3.99227,-0.02847c8.72785,0.27784 13.90994,0.07184 21.77204,1.7703c6.5496,1.41493 10.92362,3.10256 17.01209,6.57451c3.17652,1.81142 6.2277,3.87277 9.05912,6.18678c4.37168,3.57282 8.74998,8.92389 11.51426,13.83419c1.48778,2.64281 2.48705,5.53243 3.7005,8.3119c0.93664,2.14542 2.0429,6.5878 2.27401,7.68288c1.39042,6.5883 1.19105,12.6132 1.39803,19.48735c0.06476,2.15091 0.09061,4.30286 0.12098,6.45453c0.01945,1.3781 0.00744,2.75653 0.02847,4.1346c0.00981,0.64312 0.11303,1.2872 0.06405,1.92853c-0.12933,1.69337 0.27387,3.60217 -0.59777,5.05973c-1.12246,1.87696 -3.50272,2.65852 -4.98145,4.26981c-4.1743,4.54851 -8.99909,11.34005 -11.38616,17.07925c-1.62165,3.89891 -2.86076,7.97265 -3.74676,12.10136c-0.88585,4.12801 -1.10987,8.37182 -1.54781,12.57104c-0.13052,1.25152 -0.04986,2.51789 -0.15656,3.77167c-0.26349,3.09598 1.81781,7.86768 -0.95359,9.27261c-4.02992,2.04292 -8.92319,-1.4382 -13.40721,-1.99258c-3.76916,-0.466 -7.55765,-0.76521 -11.34347,-1.06745c-1.29265,-0.1032 -2.59175,-0.09603 -3.88745,-0.14853c-0.99333,-0.04024 -1.98728,-0.06969 -2.97961,-0.12968c-2.64284,-0.15977 -4.24881,-0.19132 -6.71294,-0.78057c-0.99461,-0.23784 -2.01402,-0.43763 -2.94417,-0.86264c-0.56734,-0.25923 -2.21619,-1.80323 -2.48361,-2.41956c-1.06965,-2.46527 -1.85684,-5.04375 -2.76826,-7.5718c-0.56161,-1.55774 -0.53943,-2.16841 -1.75062,-3.52971c-2.04895,-2.30289 -4.099,-4.62622 -6.4145,-6.66091c-5.31808,-4.67313 -10.38895,-7.59296 -17.07747,-10.08832c-7.70779,-2.87563 -13.84078,-3.57314 -22.04702,-4.29872c-3.95883,-0.35003 -7.93243,-0.53712 -11.9051,-0.64981c-7.9298,-0.22495 -15.92116,0.59425 -23.79619,-0.36293c-0.86186,-0.10476 -0.25144,-1.71813 -0.38428,-2.57612c-0.37891,-2.44732 -0.87504,-5.96496 -1.48465,-8.50048c-0.27221,-1.1322 -0.60496,-2.24951 -0.94814,-3.36225c-0.97758,-3.16967 -1.20014,-3.95554 -2.17149,-6.33378c-0.46688,-1.14311 -1.64997,-2.21052 -1.41615,-3.42297c0.16231,-0.84165 1.55355,-0.72899 2.29858,-1.15285c4.58126,-2.60631 9.22452,-5.11453 13.67674,-7.93562c3.04962,-1.93235 9.80344,-7.37132 12.11292,-10.13991c5.10368,-6.11827 9.79464,-13.7997 12.47497,-21.33482c3.17785,-8.9338 3.06054,-14.23667 3.64357,-23.56936c0.02766,-0.44284 0.00806,-3.23956 0.00712,-3.7005c-0.00112,-0.54321 0.05716,-1.08945 0,-1.62964c-0.2113,-1.99703 14.84708,-6.07148 22.6727,-6.12006z" fill="#fbbe41"/><path d="M251.58371,208.88651c2.17816,0.7736 7.14346,5.39814 8.66416,6.92332c5.25205,5.26756 8.69913,9.69608 14.43819,14.29764c2.381,1.90908 4.96427,3.55442 7.51932,5.2234c0.42017,0.27446 0.90167,0.45424 1.38413,0.59244c0.46933,0.13443 0.95998,0.22226 1.44818,0.21883c1.41993,-0.00997 2.84725,-0.05171 4.25202,-0.25886c1.40461,-0.20712 2.76391,-0.65125 4.14528,-0.97939c4.01931,-0.95479 8.00373,-2.27672 12.23301,-1.82179c11.79719,1.269 12.80063,3.64539 23.48396,2.84654c1.16968,-0.08746 2.23541,-0.73454 3.29042,-1.24714c3.27177,-1.58967 5.21521,-3.57141 7.80942,-6.3598c4.42726,-4.75865 8.2403,-11.03374 11.8077,-16.17591c0.40006,-0.57667 2.00027,-2.86997 2.71133,-3.25929c0.45283,-0.24793 1.02666,-0.11817 1.54247,-0.13966c0.16003,-0.00667 3.29863,0.01267 3.43898,0.01868c0.4757,0.02036 0.97968,-0.05202 1.42327,0.12098c1.51,0.5889 0.7643,3.60023 0.76857,4.17018c0.0056,0.74721 -0.00971,1.49443 -0.01423,2.24165c-0.01545,2.55235 -0.0044,5.1048 -0.00712,7.6572c-0.00879,8.25021 -0.16471,13.56053 0.50081,22.3836c0.35846,4.75223 1.57398,9.34395 2.97197,13.87422c0.4375,1.41774 1.10832,2.75691 1.53713,4.1773c0.84437,2.79686 1.76824,5.58658 2.27901,8.46312c0.86768,4.8865 0.78804,7.94636 0.76402,12.42514c-0.00507,0.94572 0.00173,1.89175 -0.02514,2.8371c-0.07491,2.63477 -0.05142,4.08558 -0.59844,6.54237c-0.6944,3.11873 -1.17039,3.84834 -2.4835,7.02907c-1.53226,3.71158 -1.97446,4.84075 -5.20383,9.32954c-1.69019,2.34935 -3.5271,4.63016 -5.66995,6.57551c-3.10866,2.82214 -6.45887,5.40382 -10.00381,7.65364c-7.141,4.53206 -15.47293,7.93879 -23.71169,9.80455c-4.27359,0.96781 -8.65022,1.5242 -13.0247,1.77731c-7.40211,0.42829 -17.05248,-0.39648 -24.16713,-2.62593c-8.39622,-2.63105 -18.15646,-7.76304 -25.09937,-13.16525c-5.45759,-4.2465 -10.78848,-11.04023 -14.28964,-16.93692c-1.05271,-1.77299 -1.6946,-3.76532 -2.37508,-5.71176c-0.68101,-1.94795 -1.13849,-3.96698 -1.70259,-5.95194c-0.12916,-0.45448 -0.31932,-0.89741 -0.37717,-1.36634c-0.32094,-2.60148 -0.70122,-5.20649 -0.757,-7.8271c-0.05602,-2.63178 -0.01125,-5.28942 0.42253,-7.88581c0.56819,-3.40084 1.69152,-6.68538 2.569,-10.01982c0.30864,-1.17283 0.65917,-2.33424 0.98917,-3.50125c0.19186,-0.6785 0.4364,-1.34421 0.57642,-2.03528c0.47421,-2.34038 0.95731,-4.68323 1.26471,-7.0513c0.88864,-6.84574 0.6846,-14.85198 0.77057,-21.4568c0.04522,-3.47415 3.16346,-21.88233 4.50465,-21.40599z" fill="#49759e"/><path d="M317.05415,436.60979c0.91035,0.01068 -0.97794,1.53592 -1.46686,2.30392c-0.82979,1.30345 -1.1931,1.87436 -2.02371,3.18012c-0.49699,0.78129 -1.07888,1.51468 -1.49088,2.34395c-1.51114,3.04166 -2.86601,6.15859 -4.26981,9.25126c-0.30191,0.66512 -0.65043,1.31752 -0.84685,2.02104c-0.74842,2.68065 -1.51646,5.36689 -1.9819,8.11086c-0.46681,2.75205 -0.55314,5.5553 -0.80771,8.33503c-0.15401,1.68171 -0.56069,8.56827 -0.63336,8.5752c-21.19099,2.02366 -42.57476,0.04783 -63.86215,0.07116c-19.43238,0.0213 -38.86477,0.04274 -58.29716,0.06405c-4.66833,0.00512 -9.33665,0.00935 -14.00498,0.01423c-6.00857,0.00629 -12.01714,0.01761 -18.02572,0.02135c-2.2037,0.00137 -4.4074,-0.00368 -6.61109,0c-2.88993,0.00482 -4.33075,0.12751 -7.79952,-0.35226c-1.94237,-0.26865 -3.91997,-0.5376 -5.75001,-1.2418c-2.29065,-0.88144 -4.92593,-3.57489 -6.58263,-5.25187c-0.36825,-0.37276 -0.70156,-0.78009 -1.01853,-1.19733c-2.32266,-3.05746 -2.06266,-4.49535 -2.713,-9.84747c-0.35174,-2.89469 -0.35558,-5.82649 -0.31679,-8.74222c0.07836,-5.8901 132.56232,-18.43288 198.50264,-17.65923z" fill="#fbbe41"/><path d="M431.11647,104.82907c1.17182,-0.00642 2.34367,-0.00576 3.51548,-0.01423c1.78149,-0.01288 3.56288,-0.03825 5.34438,-0.04981c1.14097,-0.00741 2.282,0.00096 3.42297,-0.00712c0.5338,-0.00378 1.0696,-0.07721 1.60118,-0.02847c4.52907,0.41527 7.13758,0.24367 10.71723,3.44431c1.26936,1.13496 2.05643,2.72674 2.89547,4.20843c2.80787,4.95859 5.1477,14.1198 6.42696,18.1725c0.34108,1.08054 0.66055,2.16778 0.98917,3.25217c0.68427,2.25792 1.36583,4.51666 2.04951,6.77477c1.87398,6.18956 3.75739,12.3763 5.62903,18.56656c0.44892,1.48477 0.89623,2.97002 1.34499,4.45484c0.25813,0.85409 0.53484,1.70276 0.77568,2.56189c0.46612,1.66271 0.53654,3.47692 1.34499,5.0028c0.20435,0.38569 0.87295,0.00378 1.30941,0.00712c4.52601,0.03462 9.05198,0.07391 13.578,0.10675c1.68656,0.01224 3.37318,0.01486 5.05973,0.02847c2.43146,0.01961 4.86277,0.05669 7.29426,0.07116c2.49881,0.01487 6.3513,-0.19015 8.34036,0.49814c2.11481,0.73181 3.98474,2.11265 5.69308,3.55818c1.41431,1.19673 2.60292,2.68238 3.55818,4.26981c0.65077,1.08144 0.78688,4.35179 0.80415,5.51517c0.04182,2.81777 0,5.63615 0,8.45423c0,1.82179 0,3.64357 0,5.46536c0,1.15285 -0.0016,2.3057 0,3.45855c0.00077,0.55271 0.01629,1.10548 0.00712,1.65811c-0.02167,1.30491 0.12582,2.62853 -0.09963,3.91399c-0.05795,0.33042 -0.38117,0.65394 -0.71164,0.71164c-1.29265,0.22567 -2.6233,0.07906 -3.93534,0.09963c-0.56954,0.00893 -4.44476,-0.00712 -4.9601,-0.00712c-1.65337,0 -3.30673,0.00965 -4.9601,0.00712c-0.09231,-0.00014 -3.55653,0.02664 -3.93534,-0.09963c-0.31825,-0.10608 -0.63751,-0.38446 -0.71164,-0.71164c-0.24416,-1.07772 -0.14041,-2.20564 -0.19926,-3.3091c-0.06643,-1.2455 -0.11401,-2.92314 -0.15745,-4.16218c-0.04858,-1.38573 -0.1051,-2.77118 -0.15567,-4.15684c-0.00477,-0.13071 -0.06462,-2.9734 -0.19926,-3.31622c-0.12263,-0.31225 -0.38156,-0.65175 -0.71164,-0.71164c-1.45356,-0.26373 -2.9505,-0.15593 -4.42637,-0.22061c-0.9058,-0.0397 -1.81223,-0.06362 -2.71845,-0.09251c-1.91187,-0.06097 -3.82389,-0.11756 -5.73578,-0.17791c-2.34838,-0.07412 -4.81109,-0.94805 -7.04519,-0.22061c-0.75933,0.24724 0.39922,1.54644 0.59777,2.31993c0.3921,1.52746 0.84901,3.03984 1.1742,4.58293c0.66206,3.1416 1.44906,6.27189 1.7862,9.46475c0.03523,0.33361 -0.37781,0.67845 -0.71164,0.71164c-3.04162,0.30241 -6.11059,0.17991 -9.16586,0.27042c-1.71046,0.05067 -6.33551,0.205 -7.40812,0.14944c-0.65702,-0.03403 -1.37269,-0.06791 -1.92853,-0.41986c-0.797,-0.50466 -1.86412,-2.81558 -2.13491,-3.55818c-0.6209,-1.70271 -1.1235,-3.4463 -1.67234,-5.17359c-0.16045,-0.50497 -0.3034,-1.01533 -0.45545,-1.5229c-0.32475,-1.08413 -0.6498,-2.16816 -0.97494,-3.25217c-0.87515,-2.91775 -1.7499,-5.83563 -2.62593,-8.75311c-0.17956,-0.59799 -0.35294,-1.1979 -0.54084,-1.79332c-1.65288,-5.23767 -3.35019,-10.46135 -4.98145,-15.70579c-2.58437,-8.30866 0.20683,-46.97893 -19.34936,-44.92553c-0.43408,0.04558 -0.00047,0.87294 0,1.30941c0.01139,10.50136 0.02439,21.00273 0.03558,31.50409c0.01262,11.84398 0.02306,23.68797 0.03558,35.53195c0.0036,3.40399 0.01044,6.80798 0.01423,10.21197c0.00149,1.34025 0.02113,2.68066 0,4.02074c-0.00734,0.46575 0.07945,0.95914 -0.0854,1.39481c-0.62449,1.65044 -4.65442,0.80901 -4.80354,0.81126c-0.5892,0.00889 -4.63102,-0.00712 -5.15936,-0.00712c-1.71979,0 -3.43957,0.00965 -5.15936,0.00712c-0.08502,-0.00013 -3.70251,0.02681 -4.0919,-0.09963c-1.51855,-0.49309 -0.81525,-4.11715 -0.81838,-4.26981c-0.01307,-0.63666 -0.01923,-4.39807 -0.02135,-4.92452c-0.01355,-3.36128 -0.0256,-6.72257 -0.03558,-10.08387c-0.00456,-1.53476 -0.01079,-3.06952 -0.01423,-4.60428c-0.01079,-4.81065 -0.01525,-9.62132 -0.02847,-14.43196c-0.02703,-9.83718 -0.06186,-19.67434 -0.09251,-29.51151c-0.00798,-2.56189 -0.02286,-5.12376 -0.02847,-7.68566c-0.00626,-2.86077 0.00202,-5.72156 -0.00712,-8.58232c-0.00889,-2.7818 -0.07858,-2.8252 0.00678,-5.84753c0.04761,-1.68556 0.14946,-3.51482 0.93969,-5.05472c0.97957,-1.90885 2.2359,-3.6702 3.52259,-5.38708c0.31617,-0.42187 0.83426,-0.64489 1.24536,-0.97494c0.4192,-0.33656 0.75645,-0.80122 1.24536,-1.02475c1.39053,-0.63577 2.82322,-1.24509 4.32674,-1.5229c1.52385,-0.28157 5.76661,-0.14638 6.32644,-0.14944z" fill="#012347"/><path d="M394.62239,420.24218c11.36789,-1.73896 22.94947,1.52793 34.4218,2.32705c1.91133,0.13314 3.81926,0.31128 5.72866,0.46968c2.32246,0.19267 4.64448,0.39058 6.96691,0.58354c0.84672,0.07035 1.69665,0.10768 2.54054,0.20637c5.74884,0.67232 11.56602,0.94254 17.23581,2.10644c0.46515,0.09549 -0.35048,0.88267 -0.52661,1.32364c-0.47383,1.1863 -0.94849,2.37226 -1.42327,3.55818c-0.6069,1.51593 -1.21595,3.031 -1.82179,4.54735c-3.41112,8.53769 -6.82009,17.07633 -10.21908,25.61887c-0.73413,1.84505 -1.46647,3.69081 -2.19895,5.53652c-0.22585,0.56911 -0.44486,1.14096 -0.67605,1.70792c-0.53976,1.32366 -0.99515,2.68641 -1.63676,3.96381c-0.89297,1.77782 -4.49908,0.78564 -5.3088,0.79703c-0.49098,0.00691 -0.98206,0.00055 -1.47308,0c-9.32953,-0.01039 -18.65907,-0.01446 -27.98861,-0.02135c-13.48786,-0.00996 -26.97572,-0.01826 -40.46358,-0.02847c-14.77355,-0.01117 -29.74414,2.36929 -44.32064,-0.03558c-2.36976,-0.39097 0.1797,-4.81265 0.56664,-7.18307c0.38667,-2.36882 0.97948,-4.71116 1.74617,-6.98559c1.57336,-4.66743 3.88556,-8.57745 6.22681,-12.87348c0.70627,-1.29596 1.10098,-2.0907 2.01037,-3.20325c0.31902,-0.39028 0.63931,-0.7904 1.03543,-1.10215c1.91197,-1.50474 4.2829,-0.88894 6.67514,-0.48391c10.27883,1.74029 11.08911,3.38802 20.81622,4.11325c3.09623,0.23085 6.24927,0.45922 9.31442,-0.03558c5.85833,-0.94569 8.65221,-2.50613 12.77741,-5.94927c1.34421,-1.12196 2.81722,-2.17342 3.81081,-3.61511c3.64215,-5.28473 3.44232,-14.92344 6.18411,-15.34286z" fill="#dd9686"/><path d="M367.18173,124.87086c1.2596,-0.00932 2.51916,-0.02341 3.77878,-0.02847c0.56694,-0.00228 1.13402,-0.02045 1.70081,-0.00712c0.4661,0.01097 1.91617,-0.16813 2.03528,0.78992c0.24148,1.94237 0.07794,3.91388 0.10675,5.87099c0.00915,0.62143 0.00601,1.24299 0.00712,1.86448c0.00615,3.46092 0.01049,6.92184 0.01423,10.38276c0.0105,9.71145 0.02494,19.42289 0.03558,29.13435c0.00369,3.37315 0.00085,6.74631 0.00712,10.11945c0.0011,0.59068 0.03114,1.18154 0.01423,1.77197c-0.07437,2.59662 0.73661,4.28932 -1.6083,5.6148c-0.33362,0.18858 -2.66292,0.16306 -2.9177,0.16368c-1.17661,0.00286 -2.35312,-0.02152 -3.52971,-0.02847c-0.60488,-0.00357 -1.20992,0.01285 -1.81467,0c-1.51611,-0.03222 -3.05018,0.10588 -4.54735,-0.13521c-0.3312,-0.05333 -0.65745,-0.38057 -0.71164,-0.71164c-0.32522,-1.98698 -0.26992,-4.0178 -0.3914,-6.02755c-0.03983,-0.65897 -0.08236,-1.31825 -0.09251,-1.97835c-0.14167,-9.21064 -0.26345,-18.42161 -0.36293,-27.6328c-0.01862,-1.7239 -0.02475,-11.7552 -0.02847,-14.14019c-0.00364,-2.33653 -0.00452,-4.67307 -0.00712,-7.00961c-0.00086,-0.77569 -0.04916,-1.5525 -0.00712,-2.32705c0.09504,-1.75097 0.2776,-2.49549 0.90378,-4.14172c0.1962,-0.51581 5.17598,-1.52767 7.41524,-1.54425z" fill="#48759d"/><path d="M309.22616,291.4362c2.31487,-0.24501 4.65405,-0.12043 6.98114,-0.17791c2.24868,-0.05555 5.29846,-0.14013 7.25156,0.17791c0.74747,0.12172 1.40189,0.58708 2.05129,0.97672c0.54324,0.32594 1.08576,0.6849 1.50689,1.15819c0.56854,0.63896 1.21098,1.30639 1.42327,2.13491c0.39192,1.52961 0.33447,3.14623 0.33447,4.72526c0,3.40598 -2.88103,2.84887 -4.60428,6.66091c-0.26545,0.5872 1.28159,0.13671 1.92142,0.21349c0.84279,0.10114 1.68382,0.21656 2.52631,0.32024c1.23179,0.15158 3.62722,0.31636 4.80354,0.88954c0.62446,0.30428 1.12422,0.82534 1.61541,1.31653c2.06048,2.06048 1.61768,2.74594 2.02104,6.37625c0.05744,0.51697 0.06767,1.05923 -0.07828,1.55848c-0.36965,1.2645 -1.27591,2.57478 -2.13491,3.55818c-0.44139,0.50531 -0.78861,1.20563 -1.42327,1.42327c-2.94216,1.00894 -7.13956,0.82152 -10.16215,0.85396c-2.20285,0.02364 -3.48761,0.01301 -5.93504,0.02847c-2.04242,0.0129 -4.08476,0.03678 -6.12718,0.04981c-1.30227,0.00831 -2.60461,0.00456 -3.90688,0.01423c-2.0024,0.01487 -4.92831,0.16105 -6.60397,-0.23484c-1.03586,-0.24473 -4.18193,-2.54511 -4.84624,-3.33757c-0.5756,-0.68664 -0.84039,-1.88241 -0.98372,-2.78305c-0.22326,-1.40287 -0.30481,-1.71667 -0.1371,-3.09862c0.05947,-0.49002 -0.0006,-1.04509 0.27398,-1.45529c1.03055,-1.53961 2.24813,-2.95977 3.55818,-4.26981c0.37506,-0.37506 0.90237,-0.61156 1.42327,-0.71164c0.53648,-0.10307 5.40615,-0.48486 6.72495,-0.58354c0.6047,-0.04525 1.67411,0.46179 1.81467,-0.12809c0.16883,-0.70852 -0.93059,-1.12096 -1.38057,-1.69369c-0.23024,-0.29305 -2.10739,-2.60101 -2.1776,-3.28775c-0.21713,-2.12384 -0.33903,-4.2969 0,-6.40472c0.13002,-0.80838 0.84774,-1.4066 1.35922,-2.04595c0.44167,-0.55209 0.92551,-1.08297 1.48732,-1.51222c0.42148,-0.32203 0.8958,-0.65581 1.42327,-0.71164z" fill="#012348"/><path d="M480.73025,429.49344h0.71164c0.07828,9.63554 0.05693,19.27108 -0.22061,28.90662c-0.01423,0.79703 -0.03558,1.59406 -0.04981,2.41244c-0.11386,3.3945 -0.29177,6.46165 -1.45885,9.67112c-1.11727,2.41956 -1.11727,2.41956 -2.36263,4.37656c-2.05663,2.05663 -3.97804,3.14543 -6.58263,4.44772c-2.22742,0.71164 -4.24846,0.78992 -6.58263,0.75433l-1.92142,-0.01423c-0.48391,-0.01423 -0.96071,-0.02135 -1.45885,-0.02847c1.35211,-4.18442 2.82519,-8.29055 4.45484,-12.36822c0.21349,-0.54796 0.4341,-1.09592 0.6547,-1.65811c0.6974,-1.76486 1.39481,-3.52259 2.09221,-5.27322c0.96071,-2.42668 1.92142,-4.84624 2.88212,-7.2658c0.23484,-0.59777 0.46968,-1.18843 0.71164,-1.80044c2.23453,-5.63615 4.4406,-11.27942 6.61821,-16.93692c0.23484,-0.59777 0.46968,-1.19555 0.70452,-1.81467c0.19926,-0.50526 0.3914,-1.01764 0.59777,-1.54425c0.16368,-0.37717 0.32735,-0.76145 0.49814,-1.15285z" fill="#fbbe41"/><path d="M340.5495,268.59983c1.73639,0.12098 3.28775,0.32024 4.96721,0.77568c1.55136,0.88954 2.72556,1.83602 4.00651,3.08138c0.97494,1.18843 0.97494,1.18843 2.04239,3.23082c0.35582,2.22742 0.49103,4.24135 0.11386,6.47588c-0.53373,1.65099 -1.20266,2.81096 -2.24877,4.19865c-1.15285,1.2169 -1.15285,1.2169 -2.49072,2.22742c-1.62253,0.71875 -3.05292,1.09592 -4.81065,1.35922c-1.59406,0.06405 -1.59406,0.06405 -4.21288,-0.24907c-2.36263,-1.11015 -2.36263,-1.11015 -3.59376,-2.27012c-1.46597,-1.66523 -2.75403,-3.25217 -3.75032,-5.24475c-0.17791,-2.31281 -0.17791,-2.31281 0,-4.98145c0.80415,-2.22742 0.80415,-2.22742 2.13491,-4.26981c1.35922,-1.37346 2.6971,-2.41244 4.26981,-3.55818c2.13491,-0.71164 2.13491,-0.71164 3.57241,-0.77568z" fill="#012348"/><path d="M119.21955,436.60979h197.83459c-2.46937,3.87841 -2.46937,3.87841 -4.98145,7.82799c-3.55818,6.56128 -5.75713,13.50684 -7.82799,20.63742c-0.41986,-1.16708 -0.41986,-1.16708 -0.71164,-2.84654c1.11727,-6.02043 3.77167,-11.43598 6.59686,-16.80882c1.18843,-2.25588 2.02816,-4.1773 2.6544,-6.67514h-192.14151v27.04214h-1.42327z" fill="#fdf64a"/><path d="M482.15352,191.80727c2.81096,-0.03558 5.62192,-0.06405 8.43288,-0.07828c1.43039,-0.00712 2.86077,-0.02847 4.28404,-0.04981c0.89666,0 1.7862,-0.00712 2.71133,-0.01423l2.50496,-0.02135c0.66182,0.05693 1.31653,0.10675 1.99258,0.16368l1.42327,1.42327c0.22772,1.60118 0.22772,1.60118 0.29177,3.56529c0.02847,0.63336 0.05693,1.25959 0.07828,1.9143c0.02847,0.80415 0.04981,1.6083 0.07116,2.43379c0.09251,2.55477 0.17791,5.10954 0.27042,7.74259h-19.21415l-0.71164,-5.69308c-0.49814,-1.81467 -1.08169,-3.56529 -1.69369,-5.34438c-0.51238,-2.06374 -0.46968,-3.92111 -0.44121,-6.04178z" fill="#4d7ba3"/><path d="M282.89566,270.08714c2.39821,-0.26331 4.71814,-0.26331 7.11635,0c2.44803,1.20266 2.44803,1.20266 4.26981,2.84654c0.44121,0.49814 0.88243,0.99629 1.33787,1.50867c0.7828,2.02104 1.01052,3.42297 1.11015,5.56499c-0.06405,1.86448 -0.06405,1.86448 -0.31312,3.60087c-1.20266,2.44803 -1.20266,2.44803 -2.84654,4.26981c-0.49814,0.44121 -0.99629,0.88243 -1.50867,1.33787c-2.02104,0.7828 -3.42297,1.01052 -5.56499,1.11015c-1.86448,-0.06405 -1.86448,-0.06405 -3.60087,-0.31312c-2.44803,-1.20266 -2.44803,-1.20266 -4.26981,-2.84654c-1.28806,-1.69369 -1.28806,-1.69369 -2.13491,-3.55818c-0.62624,-1.9997 -0.62624,-1.9997 -0.71164,-4.26981c0.44833,-2.05663 1.10303,-3.85706 2.13491,-5.69308c1.61541,-1.53713 3.0031,-2.569 4.98145,-3.55818z" fill="#012348"/><path d="M380.38968,388.93023c17.02943,0.4341 17.02943,0.4341 23.48396,2.84654c3.87841,1.65811 7.69278,3.44431 11.03035,6.0489c1.8716,1.8716 3.18813,3.83571 4.62563,6.0489c-2.98175,-0.14233 -5.9635,-0.29889 -8.93814,-0.49103c-2.66863,-0.16368 -5.33015,-0.25619 -8.0059,-0.306c-8.05571,-0.28465 -8.05571,-0.28465 -11.52137,-1.33787c-2.08509,-1.68658 -2.08509,-1.68658 -3.51548,-3.73608c-0.72587,-1.36634 -1.45174,-2.72556 -2.1776,-4.0919c-1.57271,-1.58695 -3.23082,-2.88212 -4.98145,-4.26981z" fill="#4b78a1"/><path d="M302.82144,467.2101h0.71164v13.52107c-21.33482,0.01423 -42.66965,0.02847 -64.00447,0.03558h-7.55757c-0.74722,0.00712 -0.74722,0.00712 -1.51578,0.00712c-8.11976,0 -16.23952,0.00712 -24.35927,0.01423c-8.33325,0.00712 -16.65938,0.00712 -24.99263,0.00712c-4.67544,0.00712 -9.358,0.00712 -14.04056,0.01423h-13.20083c-1.62253,0 -3.23794,0.00712 -4.85335,0.00712h-6.61821c-0.64047,0 -1.28806,0.00712 -1.94988,0.00712c-2.89636,-0.00712 -5.58634,-0.07116 -8.41153,-0.80415l0.71164,-1.42327h168.65755z" fill="#d1bb50"/><path d="M299.9749,323.45979h32.02359v0.71164c-7.39389,0.35582 -7.39389,0.35582 -14.94434,0.71164l1.42327,1.42327c0.02847,1.65811 0.02847,3.32334 0,4.98145l0.71164,0.71164c3.7005,-0.02847 7.15193,-0.61912 10.63183,-1.86448c0.50526,-0.20637 1.01052,-0.40563 1.53002,-0.61201c0.44833,-0.12098 0.89666,-0.24196 1.35922,-0.37005l2.13491,0.71164c-7.50775,2.96752 -15.11513,5.40843 -23.24201,5.77848c-4.11325,0.0854 -8.2265,0.02847 -12.33975,-0.0854v-0.71164l7.11635,-0.71164l-0.0427,-2.2203c0.03558,-2.44091 0.29177,-4.64698 0.75433,-7.03096l-7.11635,-0.71164z" fill="#5381a9"/><path d="M411.69452,269.22606c7.15665,-0.04443 14.31337,-0.07898 21.47003,-0.12098c5.9337,-0.03482 11.73681,-0.17202 17.71794,0.51949c8.71694,1.00782 17.28264,2.91204 24.86631,7.57892c0.63885,0.39314 -1.38486,0.70031 -2.13491,0.71164c-0.415,0.00627 -3.45008,-1.48615 -3.64357,-1.55848c-7.00153,-2.61731 -11.18276,-4.37656 -18.71601,-5.0028c-4.31915,-0.35905 -8.66761,-0.09395 -13.00158,-0.12098c-1.37107,-0.00855 -2.74218,0.00633 -4.11325,0.01423c-3.56531,0.02056 -7.13056,0.05125 -10.69588,0.07116c-5.66863,0.03167 -31.60283,0.12445 -32.3794,0.19214c-0.57449,0.05008 -0.03226,1.15288 -0.04981,1.72927c-0.0797,2.61647 -0.16267,5.23285 -0.24196,7.84934c-0.06772,2.23466 -0.12949,4.46954 -0.21154,6.70372c-0.07869,2.14249 -0.18442,5.21681 -0.46985,7.24434c-0.19321,1.37247 -1.18902,5.29481 -1.87338,6.36202c-0.28633,0.4465 -1.19514,1.19049 -1.42327,0.71164c-0.42936,-0.90122 0.22556,-1.98377 0.34503,-2.97486c0.07119,-0.59054 0.1317,-1.18283 0.22694,-1.76997c0.14802,-0.91249 0.36614,-1.81305 0.50259,-2.72734c0.34964,-2.34277 0.75591,-4.68133 0.95537,-7.04163c0.19956,-2.36149 0.17659,-4.73662 0.24018,-7.10568c0.01648,-0.61416 0.04667,-1.23053 0,-1.84314c-0.23577,-3.09476 14.80438,-9.37346 22.63,-9.42205z" fill="#f8dd48"/><path d="M483.57679,192.5189c1.74814,-0.24648 3.5296,-0.09451 5.29457,-0.13521c0.49806,-0.01149 0.9964,-0.03387 1.49443,-0.02135c1.29582,0.03257 2.64315,-0.21316 3.88553,0.15656c0.64307,0.19137 0.78676,1.2111 1.42327,1.42327c0.31825,0.10608 0.37822,-0.67459 0.71164,-0.71164c1.88609,-0.20957 4.5076,-1.48185 5.69308,0c1.48185,1.85231 0.75013,4.86596 0,7.11635c-0.33547,1.0064 -1.89769,1.89769 -2.84654,1.42327c-0.84867,-0.42434 0.18608,-1.91612 0,-2.84654c-0.06579,-0.32895 -0.37617,-0.71164 -0.71164,-0.71164c-3.12517,0 -0.133,1.68926 -0.71164,2.84654c-0.53042,1.06084 -1.66964,1.98779 -2.84654,2.13491c-1.05265,0.13158 -1.8063,-1.63132 -2.84654,-1.42327c-0.73556,0.14711 -0.01931,1.84614 -0.71164,2.13491c-0.577,0.24066 -0.94918,-0.81575 -1.39125,-1.25782c-0.50782,-0.50782 -1.1066,-0.96089 -1.45529,-1.58873c-0.3195,-0.57527 -0.3602,-1.26726 -0.48925,-1.91252c-0.10856,-0.54279 0.3297,-1.60565 -0.22239,-1.64566c-1.05807,-0.07667 -1.7857,1.42327 -2.84654,1.42327c-0.67094,0 -1.11196,-0.82893 -1.42327,-1.42327c-0.1732,-0.33067 -0.77965,-3.85115 -0.71164,-4.26981c0.05379,-0.33113 0.37945,-0.6648 0.71164,-0.71164z" fill="#436f97"/><path d="M393.91075,369.00444c4.26485,0.46411 8.41647,1.6937 12.56392,2.7905c3.24111,0.85712 8.9883,3.21382 11.8594,4.93074c2.16573,1.29511 4.13082,2.89977 6.17699,4.37656c3.17226,2.28952 5.15118,4.29968 7.94452,7.77728c0.2777,0.34572 4.39107,5.9304 5.55787,8.62146c0.43246,0.9974 0.70635,2.05861 1.13773,3.05647c0.21427,0.49564 0.41858,1.00258 0.71697,1.45263c0.28238,0.4259 0.5362,0.96272 1.01052,1.15285c2.39895,0.96161 5.24181,0.81998 7.74259,0.93224c1.53994,0.06913 3.07894,0.15802 4.61851,0.23484c0.78984,0.03941 1.58283,0.0353 2.36975,0.11386c3.63361,0.36278 7.26005,0.79435 10.88802,1.20978c0.63961,0.07324 1.28235,0.13331 1.9143,0.25619c3.63915,0.70761 8.65712,5.19011 10.89514,2.23453c3.73418,-4.93144 0.71424,-12.35756 1.42327,-18.50252c0.02719,-0.23565 0.68808,-0.23604 0.71164,0c0.25021,2.50677 0.02609,5.03839 0.0427,7.55757c0.01572,2.38459 0.09011,4.96399 -0.08629,7.28626c-0.12941,1.70365 1.00079,4.71567 -0.66805,5.08197c-4.4131,0.96863 -8.92319,-1.4382 -13.40721,-1.99258c-3.76916,-0.466 -7.55765,-0.76521 -11.34347,-1.06745c-1.29265,-0.1032 -2.59175,-0.09603 -3.88745,-0.14853c-0.99333,-0.04024 -1.98728,-0.06969 -2.97961,-0.12968c-2.64284,-0.15977 -4.24881,-0.19132 -6.71294,-0.78057c-0.99461,-0.23784 -2.01402,-0.43763 -2.94417,-0.86264c-0.56734,-0.25923 -2.21619,-1.80323 -2.48361,-2.41956c-1.06965,-2.46527 -1.85684,-5.04375 -2.76826,-7.5718c-0.19463,-0.53984 -0.29476,-1.11733 -0.54974,-1.63142c-1.52167,-3.06809 -6.14512,-7.26723 -7.61539,-8.55919c-2.3167,-2.03574 -4.76459,-3.96339 -7.43392,-5.50806c-7.66009,-4.43268 -11.99577,-5.18396 -20.4524,-7.43659c-1.40599,-0.37452 -2.98208,-0.30294 -4.24135,-1.03187c-0.41059,-0.23768 -0.47164,-1.4746 0,-1.42327z" fill="#efde4b"/><path d="M480.73025,439.45633c0.27448,3.83796 0.07314,7.69518 0.11386,11.54272c0.01383,1.30707 0.0372,2.61403 0.04981,3.92111c0.01822,1.88817 0.02277,3.77646 0.0427,5.66462c0.03056,2.89486 0.28051,4.99987 -0.6547,8.23362c-0.62191,2.15041 -1.64337,4.21131 -2.93194,6.04178c-0.76284,1.08365 -1.98776,1.7648 -3.08583,2.50674c-1.10461,0.74636 -2.25271,1.46195 -3.4968,1.94099c-2.0314,0.7822 -4.46574,0.72099 -6.58263,0.75433c-0.64041,0.01009 -1.28098,-0.00614 -1.92142,-0.01423c-0.48634,-0.00614 -1.57479,0.44389 -1.45885,-0.02847c1.08693,-4.42832 3.06619,-8.58867 4.62563,-12.87348c0.21739,-0.5973 0.47072,-1.1809 0.70452,-1.77197c0.48495,-1.22598 0.96905,-2.45229 1.45174,-3.67915c0.73895,-1.87824 1.47409,-3.75797 2.21319,-5.63615c0.69345,-1.76217 1.38459,-3.52525 2.07797,-5.28745c0.20661,-0.52508 0.4182,-1.0482 0.62624,-1.57271c0.18336,-0.46228 0.34586,-0.93329 0.54796,-1.38769c0.45071,-1.01337 0.61552,-1.29187 1.15385,-2.11956c0.2734,-0.42036 0.86873,-1.75366 0.83161,-1.25359c-0.32924,4.43558 -1.7352,7.57309 -3.27352,11.67082c-0.23826,0.63467 -0.50633,1.25775 -0.76145,1.88583c-0.80284,1.9765 -1.60833,3.95193 -2.41244,5.92792c-0.80893,1.98782 -1.61779,3.97567 -2.42668,5.9635c-0.36028,0.88539 -3.00955,7.37408 -3.22371,7.99878c-0.07693,0.22439 -0.23721,0.71164 0,0.71164c2.38395,0 4.81714,-0.08169 7.11635,-0.71164c1.27593,-0.34958 2.29493,-1.33409 3.3349,-2.15181c1.55618,-1.2236 3.36627,-3.02981 4.40769,-4.8151c1.14028,-1.95477 1.37828,-4.12217 1.61541,-6.35846c0.15459,-1.45791 0.13117,-2.92926 0.18503,-4.39435c0.02205,-0.59991 0.03067,-1.20024 0.0427,-1.80044c0.03779,-1.88579 0.06863,-3.77172 0.10675,-5.6575c0.02594,-1.28337 0.05921,-2.56658 0.0854,-3.84995c0.06395,-3.13352 0.87974,-9.63731 0.89666,-9.4007z" fill="#f6e84a"/><path d="M248.02553,210.30978l2.84654,1.42327h2.13491c-0.70452,1.06034 -0.70452,1.06034 -1.42327,2.13491h-1.42327c0.70452,1.06034 0.70452,1.06034 1.42327,2.13491l2.13491,-1.42327c0.72587,2.17049 0.85396,3.77167 0.88954,6.0489l0.05693,2.07086c-0.07828,0.60489 -0.15656,1.2169 -0.23484,1.84314c-1.08169,1.30941 -1.08169,1.30941 -2.13491,2.13491c-0.09963,-0.52661 -0.20637,-1.06034 -0.31312,-1.60118c-0.32735,-1.61541 -0.6974,-3.20947 -1.11015,-4.80354c-0.6974,2.88212 -0.76857,5.57922 -0.71164,8.53962h-2.13491z" fill="#436f97"/><path d="M361.17553,125.62519c1.92142,-0.04981 3.82148,-0.06405 5.73578,-0.0427c0.54084,0 1.08169,0.00712 1.63676,0.00712c1.33787,0.00712 2.67575,0.02135 4.01362,0.03558v2.84654c-0.70452,0.35582 -0.70452,0.35582 -1.42327,0.71164c0.59777,0.74722 0.59777,0.74722 1.20266,1.50867c0.306,0.67605 0.61201,1.35211 0.93224,2.04951c-0.93224,2.35551 -0.93224,2.35551 -2.13491,4.26981l-1.42327,-1.42327c-0.0854,-2.2203 -0.0854,-2.2203 0,-4.26981c-1.76486,-0.70452 -1.76486,-0.70452 -3.55818,-1.42327l-2.13491,2.13491c-1.77909,-0.84685 -1.77909,-0.84685 -3.55818,-2.13491c-0.27042,-1.86448 -0.27042,-1.86448 0,-3.55818z" fill="#447098"/><path d="M365.44534,177.57456l2.84654,0.71164l-0.71164,1.42327h-1.42327c0.19926,0.61912 0.19926,0.61912 0.39852,1.24536c0.10675,0.52661 0.20637,1.06034 0.31312,1.60118c-0.22061,0.95359 -0.46256,1.90007 -0.71164,2.84654l0.71164,1.42327l2.13491,-0.71164v2.13491c-2.61882,0.83973 -5.09531,0.81126 -7.82799,0.71164l-0.71164,-0.71164c-0.04627,-1.08103 -0.06051,-2.16319 -0.0427,-3.24506c0.00712,-0.59066 0.01423,-1.18131 0.01423,-1.7862c0.01423,-0.44833 0.02135,-0.90378 0.02847,-1.37346c0.44121,-0.20637 0.88954,-0.40563 1.34499,-0.61912c0.49814,-0.26331 0.98917,-0.52661 1.50155,-0.80415c1.23113,-1.44462 1.23113,-1.44462 2.13491,-2.84654z" fill="#436f97"/><path d="M345.51956,344.09721h1.42327c0.0854,0.48391 0.16368,0.96782 0.24907,1.46597c0.73298,3.31622 1.93565,6.45453 3.06003,9.64977c1.25248,4.06344 2.14202,8.2265 3.09561,12.36822l32.73522,0.71164v0.71164h-34.87013l-2.13491,-12.80943c-0.6974,-2.29147 -1.34499,-4.32674 -2.27012,-6.49011c-0.19214,-0.49103 -0.38428,-0.97494 -0.58354,-1.47308c-0.46256,-1.14573 -0.93936,-2.28435 -1.41615,-3.42297z" fill="#faee4a"/><path d="M256.56515,216.7145c1.19555,0.20637 2.37686,0.44121 3.55818,0.71164v1.42327l2.13491,0.71164l-0.66894,2.1776c-0.7401,2.569 -1.13862,5.13089 -1.46597,7.78529h-2.13491c-0.04981,-0.86108 -0.04981,-0.86108 -0.10675,-1.74351c-0.07828,-1.13862 -0.07828,-1.13862 -0.16368,-2.3057c-0.0427,-0.74722 -0.09251,-1.50155 -0.14944,-2.27723c-0.28465,-2.14914 -0.81838,-3.80725 -1.71504,-5.77136zM302.10981,324.17142c1.65811,-0.02847 3.32334,-0.02847 4.98145,0l0.71164,1.42327c-0.22772,1.42327 -0.46256,2.84654 -0.71164,4.26981c-0.02847,1.42327 -0.03558,2.84654 0,4.26981c-0.70452,0.35582 -0.70452,0.35582 -1.42327,0.71164l-2.13491,-1.42327c-0.31312,-1.64388 -0.31312,-1.64388 -0.39852,-3.55818c-0.06405,-1.8716 -0.06405,-1.8716 -0.31312,-3.55818l-1.42327,-1.42327z" fill="#436f97"/><path d="M359.75226,164.76513c0.16773,-0.16773 0.63152,-0.22327 0.71164,0c0.24122,0.67229 0.03811,1.42801 0.05693,2.14202c0.06895,2.61644 0.13691,5.23291 0.20637,7.84934c0.0733,2.76115 0.15028,5.52221 0.22061,8.28343c0.03327,1.3061 0.07999,4.49495 0.22772,5.20917c0.06795,0.32851 0.37908,0.66751 0.71164,0.71164c1.74975,0.23219 3.52967,0.0595 5.29457,0.0854c1.42438,0.0209 4.54798,0.04174 5.37996,-0.0854c0.52433,-0.08013 1.18606,-1.18606 1.42327,-0.71164c0.33547,0.67094 0.00529,1.9142 -0.71164,2.13491c-2.02685,0.62396 -4.24136,0.02612 -6.36202,0.0427c-1.1908,0.00931 -2.38158,0.02342 -3.57241,0.02847c-0.11375,0.00048 -2.57976,0.04715 -2.87501,-0.07116c-1.36091,-0.54535 -0.89536,-3.05527 -0.93936,-3.75032c-0.04021,-0.63509 -0.05785,-1.27141 -0.0854,-1.90718c-0.11085,-2.55871 -0.22198,-5.11737 -0.32545,-7.6764c-0.04976,-1.23064 -0.22038,-5.40029 -0.21628,-6.34993c0.00649,-1.50467 -0.0713,-3.02246 0.14322,-4.51177c0.07562,-0.525 0.33657,-1.04821 0.71164,-1.42327z" fill="#6092b8"/><path d="M317.05415,324.17142h7.11635l0.71164,1.42327l-2.13491,2.13491l-1.42327,-0.71164c-0.54796,1.30941 -0.54796,1.30941 -0.71164,2.84654c0.96071,1.25959 0.96071,1.25959 2.13491,2.13491l-3.55818,0.71164l-1.42327,-2.13491c0.27042,-2.27012 0.27042,-2.27012 0.71164,-4.26981l-2.13491,-0.71164zM247.31389,259.41261l2.13491,0.71164l-0.71164,2.13491c0.12098,0.44121 0.23484,0.88243 0.35582,1.33787c0.12098,0.49814 0.23484,0.99629 0.35582,1.50867c-0.3914,2.9177 -1.30229,5.71443 -2.13491,8.53962c-1.11015,-0.84685 -1.11015,-0.84685 -2.13491,-2.13491c0.27042,-1.77909 0.27042,-1.77909 0.71164,-3.55818l-0.71164,-2.13491c0.31312,-1.9143 0.31312,-1.9143 0.71164,-3.55818h1.42327l-0.71164,-2.13491z" fill="#436f97"/><path d="M480.73025,429.49344h0.71164v18.50252h-0.71164l-0.10675,-1.84314c-0.04981,-0.7828 -0.10675,-1.57271 -0.16368,-2.38398c-0.07116,-1.1742 -0.07116,-1.1742 -0.14944,-2.37686c-0.09251,-0.64047 -0.19214,-1.27383 -0.29177,-1.93565l-1.42327,-0.71164l-1.42327,3.55818c-0.46256,-1.12438 -0.46256,-1.12438 -0.71164,-2.84654c0.68317,-2.27723 0.68317,-2.27723 1.69369,-4.76084c0.32735,-0.8255 0.6547,-1.65099 0.98917,-2.49784c0.29177,-0.6547 0.57642,-1.31653 0.87531,-1.99258z" fill="#d9c14e"/><path d="M425.2227,382.52551c1.65811,0.71164 2.86077,1.43039 4.19153,2.66152c3.80013,4.22 6.66091,8.7033 9.32954,13.70609c0.306,0.77568 0.61912,1.55136 0.93224,2.35551c0.39852,0.63336 0.79703,1.25959 1.20266,1.9143c2.09221,0.66894 2.09221,0.66894 4.40502,0.62624c0.76857,0.02135 1.54425,0.04981 2.34128,0.07828c0.59066,0 1.18131,0.00712 1.79332,0.00712v0.71164h-9.96289c-0.34158,-0.7401 -0.69029,-1.4802 -1.0461,-2.24165c-2.87501,-6.02755 -5.89946,-11.21537 -10.34006,-16.26087c-0.95492,-1.18119 -1.90378,-2.36726 -2.84654,-3.55818z" fill="#f5e74b"/><path d="M355.48245,209.59815c2.27012,-0.13521 2.27012,-0.13521 4.26981,0c0.16368,2.15625 0.25619,4.24846 0,6.40472l-1.42327,1.46597l-1.42327,0.66894c-1.28094,-2.09932 -2.49072,-4.19153 -3.55818,-6.40472c0.79703,-1.06745 0.79703,-1.06745 2.13491,-2.13491z" fill="#436f97"/><path d="M380.38968,388.93023c16.73054,0.42698 16.73054,0.42698 23.48396,2.84654c0.96071,0.45545 1.90718,0.92513 2.84654,1.42327l-1.42327,0.71164c-1.49443,-0.37005 -1.49443,-0.37005 -3.28775,-0.98206c-5.60057,-1.75062 -10.78839,-1.97123 -16.63803,-1.86448l0.71164,2.84654c-0.95359,-0.6974 -1.90007,-1.39481 -2.84654,-2.09221c-0.52661,-0.38428 -1.06034,-0.77568 -1.60118,-1.1742c-0.41275,-0.33447 -0.81838,-0.66182 -1.24536,-1.00341z" fill="#6194ba"/><path d="M68.69345,331.99941h0.71164l0.71164,6.40472c0.88243,0.20637 1.77197,0.41275 2.68286,0.62624c6.789,1.65099 12.76674,3.34469 18.66619,7.20175c-0.70452,0.35582 -0.70452,0.35582 -1.42327,0.71164c-1.32364,-0.59066 -2.62593,-1.23825 -3.91399,-1.9143c-5.82118,-2.80384 -11.82738,-3.99939 -18.1467,-5.20205z" fill="#6093b9"/><path d="M327.72868,237.35192l2.84654,0.71164c0.0854,3.77167 -0.48391,7.04519 -1.42327,10.67453c-0.37005,-0.23484 -0.73298,-0.46968 -1.11015,-0.71164c-0.50526,-0.70452 -0.50526,-0.70452 -1.02475,-1.42327c0.06405,-1.35922 0.06405,-1.35922 0.31312,-2.88924c0.12809,-0.92513 0.26331,-1.85025 0.39852,-2.80384l-1.42327,-1.42327z" fill="#436f97"/><path d="M326.30541,350.50192c1.23113,0.93224 1.23113,0.93224 2.13491,2.13491c0.88954,1.73639 0.88954,1.73639 1.42327,3.55818l-0.71164,2.84654l-2.84654,-6.40472c-0.66182,0.09963 -1.32364,0.20637 -2.00681,0.31312c-0.87531,0.12809 -1.75774,0.26331 -2.66152,0.39852c-0.86819,0.13521 -1.73639,0.26331 -2.62593,0.39852c-2.58324,0.306 -5.05973,0.37005 -7.65008,0.31312v-0.71164c2.44091,-0.54084 4.88893,-1.05322 7.33696,-1.55848c0.6974,-0.14944 1.39481,-0.306 2.10644,-0.46256c1.00341,-0.20637 1.00341,-0.20637 2.02104,-0.41275c0.92513,-0.19214 0.92513,-0.19214 1.86448,-0.3914z" fill="#6093b9"/><path d="M310.64943,324.17142c1.50867,0.27042 1.50867,0.27042 2.84654,0.71164v2.84654l2.13491,0.71164l-2.13491,2.13491l-4.26981,-1.42327c-0.0854,-1.69369 -0.0854,-1.69369 0,-3.55818zM357.61736,231.65884l1.42327,0.71164c-0.04981,1.41615 -0.09251,2.82519 -0.14233,4.24135c0.04981,0.4768 0.09251,0.96071 0.14233,1.45174c0.70452,1.06034 0.70452,1.06034 1.42327,2.13491l-2.84654,1.42327c-0.75433,-1.55848 -0.75433,-1.55848 -1.42327,-3.55818c0.27042,-1.86448 0.27042,-1.86448 0.71164,-3.55818v-2.13491z" fill="#436f97"/><path d="M94.31232,285.74312l1.42327,0.71164l-11.38616,11.38616v-2.13491c2.81096,-3.81436 6.22681,-7.06654 9.96289,-9.96289z" fill="#5c8db4"/><path d="M198.9227,374.69752h0.71164l-0.71164,8.53962l6.40472,0.71164v0.71164c-4.22711,0.35582 -4.22711,0.35582 -8.53962,0.71164c1.43039,-8.0059 1.43039,-8.0059 2.13491,-10.67453z" fill="#6598be"/><path d="M262.96987,221.69595c1.28806,0.53373 1.28806,0.53373 2.84654,1.42327c1.24536,1.50867 1.24536,1.50867 2.13491,2.84654l-3.55818,1.42327c-0.86108,-1.65811 -1.54425,-3.20236 -2.13491,-4.98145zM364.73371,269.37551c1.42327,0.79703 1.42327,0.79703 2.84654,2.13491c0.31312,2.1776 0.31312,2.1776 0,4.26981c-1.06034,0.70452 -1.06034,0.70452 -2.13491,1.42327v-2.13491l-0.75433,-1.38057l-0.66894,-1.46597c0.27042,-1.60118 0.27042,-1.60118 0.71164,-2.84654M350.501,216.00287l1.42327,0.71164c-0.11386,0.52661 -0.23484,1.06034 -0.35582,1.60118c-0.44121,2.09221 -0.44121,2.09221 -0.35582,4.80354l-2.84654,-2.84654c0.45545,-1.19555 0.93224,-2.37686 1.42327,-3.55818zM258.70006,311.36199l1.42327,1.42327c-0.27042,1.86448 -0.27042,1.86448 -0.71164,3.55818h-2.13491l-1.42327,-2.13491z" fill="#436f97"/><path d="M326.30541,304.24563l1.42327,0.71164l-0.71164,1.42327c3.17389,0.70452 3.17389,0.70452 6.40472,1.42327l-2.13491,0.71164c-1.35211,-0.06405 -2.70421,-0.17079 -4.0492,-0.31312c-0.70452,-0.07116 -1.41615,-0.14233 -2.14202,-0.22061c-0.54084,-0.05693 -1.08169,-0.11386 -1.63676,-0.17791z" fill="#6396bb"/><path d="M307.09125,305.6689l2.13491,2.13491c-0.63336,0.0427 -1.26671,0.0854 -1.92142,0.12809c-1.25248,0.09251 -1.25248,0.09251 -2.52631,0.18503c-1.23825,0.0854 -1.23825,0.0854 -2.50496,0.17079c-1.80755,0.17791 -3.40873,0.42698 -5.14512,0.93936c0.83973,-1.03899 0.83973,-1.03899 2.13491,-2.13491c1.74351,-0.34158 1.74351,-0.34158 3.64357,-0.44121c1.15997,-0.07116 2.31993,-0.15656 3.47278,-0.27042z" fill="#699ec3"/><path d="M438.74377,401.02803c0.3914,0.51238 0.3914,0.51238 0.78992,1.03899c0.66894,0.54084 0.66894,0.54084 1.34499,1.09592c2.10644,0.41275 2.10644,0.41275 4.40502,0.49103c0.76857,0.0427 1.54425,0.09251 2.34128,0.14233c0.88954,0.03558 0.88954,0.03558 1.79332,0.07828v0.71164h-9.96289z" fill="#fdf54a"/><path d="M477.17207,472.19155l0.71164,1.42327c-1.64388,1.77909 -1.64388,1.77909 -3.55818,3.55818h-2.13491z" fill="#eee24d"/></g></g></svg>