<svg xmlns="http://www.w3.org/2000/svg" width="1024" height="1024" version="1.1"><path fill="#FF8A02" fill-rule="evenodd" d="M664.075 728.047c-.958-.593-.917-.894.182-1.315.783-.301 1.984-.201 2.668.221.958.593.917.894-.182 1.315-.783.301-1.984.201-2.668-.221M754.5 702.94c-1.677-.537-16.45-.918-33.5-.864l-30.5.096-1.09-4.836c-.6-2.66-1.803-6.208-2.672-7.884-2.702-5.21-15.719-16.681-23.655-20.845-13.511-7.089-17.031-7.81-41.583-8.509l-22-.626-4.767-2.333c-2.622-1.284-5.238-3.214-5.814-4.29-1.604-2.997-7.005-5.841-11.1-5.845-2.935-.003-4.107.592-5.773 2.931-2.925 4.108-4.491 13.191-2.99 17.343l1.166 3.226-3.982 7.498c-2.843 5.352-4.177 9.287-4.661 13.748L560.9 698l14.3.183c7.864.101 19.962.047 26.883-.12 12.668-.305 18.407.397 15.9 1.946-2.515 1.555-140.057 1.595-145.9.042l-2.584-.686-.51-7.933c-.298-4.61-1.205-9.189-2.168-10.932-2.646-4.791-8.87-10.189-14.945-12.963-4.779-2.182-8.244-2.77-23.061-3.916-9.59-.741-18.423-1.875-19.627-2.52-1.204-.644-2.189-1.743-2.189-2.442s1.156-2.82 2.57-4.715c2.937-3.938 2.866-5.809-.755-19.773-1.749-6.744-1.95-8.933-1.062-11.5.604-1.744.965-5.527.803-8.407-.245-4.35-1-6.17-4.454-10.745-2.288-3.03-6.904-7.649-10.258-10.264s-7.48-5.935-9.17-7.377l-3.072-2.622 1.7-2.593c2.392-3.652 5.32-4.949 11.173-4.949 8.894 0 18.76 6.651 27.695 18.672 3.317 4.463 6.673 9.351 7.456 10.864 1.035 1.997 2.185 2.75 4.2 2.75 1.526 0 3.202-.396 3.724-.88.523-.483 2.75-1.45 4.95-2.147s6.286-2.552 9.08-4.12c2.795-1.57 5.879-2.853 6.853-2.853s3.864-1.08 6.42-2.4 8.05-4.013 12.208-5.984l7.56-3.585 3 1.132c2.478.935 3.462.829 5.662-.613 2.965-1.943 4.485-7.205 2.944-10.195-1.281-2.484-.606-4.193 3.3-8.355 3.422-3.645 4.2-6.705 4.837-19.018.167-3.22 1.044-6.675 2.106-8.296l1.82-2.777-1.176-3.922-1.175-3.922 2.28-3.524c1.255-1.938 4.138-4.403 6.408-5.48 2.27-1.075 5.806-3.892 7.859-6.258s7.784-10.462 12.736-17.99C543.583 484.105 547 480.196 547 483.341c0 .703-.95 5.038-2.113 9.634-1.765 6.979-2.04 10.431-1.674 20.94.357 10.245.921 13.944 3.032 19.89 1.426 4.02 4.41 10.365 6.632 14.104 4.859 8.179 15.965 20.3 24.439 26.67 8.096 6.087 19.501 11.758 30.402 15.118l8.782 2.707 20 .048 20 .048 9.83-2.883 9.832-2.884 1.497 1.497c1.398 1.398 2.33 4.806 7.322 26.789 1.065 4.685 2.45 13.91 3.08 20.5s1.834 13.463 2.676 15.275c2.628 5.648 4.963 6.206 25.983 6.206 15.96 0 19.957.315 26.3 2.071 4.114 1.14 9.737 3.568 12.495 5.398 6 3.98 10.884 11.126 12.904 18.88l1.472 5.654-1.455 4.9c-.8 2.694-2.238 5.842-3.195 6.995-2.08 2.504-6.61 3.365-10.741 2.042m-308.382-1.846c-1.086-.688-.925-1.02.75-1.552 1.173-.372 3.091-.372 4.264 0 1.675.532 1.836.864.75 1.552-.76.481-2.057.875-2.882.875s-2.122-.394-2.882-.875m-182.975-.984c-1.947-1.234.317-2.416 2.998-1.565 1.669.53 1.828.86.741 1.549-1.714 1.086-2.048 1.087-3.739.016m11.023.014c-1.064-.675-.997-.975.332-1.485 2.265-.869 36.311-.798 45.002.094l7 .718-5.5.675c-8.05.99-45.273.987-46.834-.002m61.334-.006-4-.724 7.623-.803c4.192-.441 16.117-.547 26.5-.234 10.382.312 20.415.585 22.294.605s3.182.272 2.896.558c-.845.845-50.95 1.387-55.313.598M223 650.89c-21.513-6.124-42.393-18.726-58.346-35.214-5.416-5.597-12.225-13.551-15.132-17.676-9.38-13.312-18.557-35.345-20.03-48.093-.406-3.524-1.116-7.402-1.577-8.619-1.176-3.109 1.235-9.517 4.131-10.981 1.298-.657 3.056-2.093 3.907-3.192 1.285-1.66 2.816-2.019 9.047-2.115 4.125-.064 8.725.185 10.222.553 2.042.502 4.128-.124 8.351-2.507 3.096-1.748 5.866-2.94 6.155-2.651.62.62 1.833 6.526 3.219 15.676 1.754 11.584 6.655 24.604 12.735 33.836 7.448 11.31 14.12 18.212 23.818 24.647 9.657 6.406 20.994 11.037 31.334 12.798l7.666 1.306-.155 2.921c-.085 1.607-1.273 6.521-2.64 10.921-1.366 4.4-3.16 12.62-3.984 18.265-.825 5.645-2.055 10.933-2.733 11.75s-2.19 1.458-3.36 1.424c-1.17-.033-6.853-1.405-12.628-3.05m405.333-89.987c-4.033-1.168-8.333-6.238-8.333-9.825 0-3.035 2.685-6.078 5.364-6.078.938 0 2.771.698 4.072 1.55 1.666 1.091 4.247 1.462 8.715 1.25l6.349-.3.294-2.52c.204-1.749-.638-3.415-2.75-5.438-1.674-1.604-3.044-3.429-3.044-4.055s1.082-2.155 2.406-3.398l2.405-2.26 8.63-.056 8.629-.056 2.465 2.316c1.356 1.273 2.465 2.739 2.465 3.256 0 .518-1.616 2.422-3.592 4.231-2.226 2.04-3.454 3.991-3.23 5.135.3 1.525 1.227 1.818 5.342 1.689 2.739-.086 6.46-.477 8.27-.87 2.472-.536 3.776-.272 5.25 1.062 4.723 4.274.01 10.748-9.08 12.472-3.002.569-7.934.757-10.96.417-3.493-.393-8.313-.035-13.208.978-8.523 1.766-11.748 1.864-16.46.5m-190.167-36.78c-1.064-.674-.997-.974.332-1.484.916-.351 4.292-.639 7.502-.639s6.586.288 7.502.64c3.072 1.178-.635 2.33-7.502 2.33-3.575 0-7.1-.381-7.834-.846m259.497-62.933c-3.39-3.195-8.046-7.26-10.348-9.033-4.401-3.389-22.041-12.157-24.458-12.157-2.203 0-5.857-2.94-5.857-4.713 0-1.582 23.128-25.16 27.986-28.532 2.01-1.394 3.818-1.633 9.014-1.188 3.575.306 7.452.747 8.616.98 2.173.435 2.96 2.564 5.151 13.953 1.348 7 1.59 40.433.316 43.78-.568 1.496-1.759 2.72-2.645 2.72s-4.385-2.614-7.775-5.81M553.5 445.623l-2-1.466v-16.829c0-13.203.332-17.474 1.543-19.828l1.543-3 3.957.23c2.941.171 4.647.992 6.645 3.197 3.431 3.786 5.038 9.35 3.709 12.845-.544 1.43-1.173 5.39-1.398 8.797-.39 5.909-3.1 13.025-5.82 15.282-2.293 1.904-6.14 2.267-8.179.772M214.158 442c0-1.375.227-1.937.504-1.25.278.688.278 1.813 0 2.5-.277.688-.504.125-.504-1.25M799.72 262.964c-.82-3.34-.903-109.324-.088-111.447.515-1.342.82-1.413 1.495-.35 1.031 1.62.964 109.524-.07 112.297l-.733 1.963z"/><path fill="#9CC425" fill-rule="evenodd" d="M854.166 586.124c-2.094-1.328 1.03-2.124 8.334-2.124 3.485 0 7.086.288 8.002.64 3.147 1.207-.707 2.33-8.002 2.33-3.85 0-7.6-.381-8.334-.846M602.405 431.75l-1.905-2.25 2.25 1.905c1.237 1.048 2.25 2.06 2.25 2.25 0 .8-.805.21-2.595-1.905M666.5 423c.995-1.1 2.035-2 2.31-2s-.315.9-1.31 2-2.035 2-2.31 2 .315-.9 1.31-2m23.735-111.988c-1.245-.527-2.714-2.143-3.265-3.59-.648-1.706-.907-34.97-.735-94.492l.265-91.859 1.785-1.786 1.785-1.785h46.873l2.278 2.278 2.279 2.277v185.873l-1.785 1.786-1.785 1.786-22.715.235c-12.837.133-23.7-.181-24.98-.723"/><path fill="#08AEB9" fill-rule="evenodd" d="M887.166 444.124C884.961 442.726 888.321 442 897 442c4.31 0 8.586.288 9.502.64 3.349 1.284-.914 2.33-9.502 2.33-4.675 0-9.1-.381-9.834-.846M619 339.056l-4.5-.634 5-.534c2.75-.294 5.9-.192 7 .225s1.474.789.832.824c-.643.034-1.768.218-2.5.408-.733.19-3.357.06-5.832-.29m152.166.106c-1.053-.698-.948-1.032.5-1.59 2.055-.79 89.683-.555 92.76.25l1.967.514-1.947.684c-2.923 1.028-91.738 1.163-93.28.142m100-.038c-2.623-1.663 1.897-2.124 20.666-2.109 17.549.015 23.802.76 19.67 2.346-2.489.955-38.792.742-40.336-.237m51 0c-1.064-.675-.997-.975.332-1.485 2.125-.815 6.31-.797 9.448.043l2.447.654-1.947.762c-2.662 1.041-8.654 1.057-10.28.026m-231.416-.786c.688-.278 1.813-.278 2.5 0 .688.277.125.504-1.25.504s-1.937-.227-1.25-.504m155.691-27.757-1.941-1.42-.3-79.83c-.206-55.247.036-80.98.786-83.565.597-2.053 2.081-4.303 3.3-5 1.58-.903 7.831-1.266 21.81-1.266 15.946 0 19.931.28 21.404 1.5 4.514 3.741 4.5 3.472 4.5 87.896v79.961l-1.571 1.572c-1.335 1.334-4.927 1.571-23.81 1.571-17.624 0-22.64-.294-24.178-1.42M642.166 130.124c-2.548-1.615 1.712-2.124 17.79-2.124 16.31 0 22.408.603 21.469 2.122-.696 1.125-37.484 1.127-39.259.002m-174-41c-1.064-.675-.997-.975.332-1.485 2.167-.831 22.837-.831 25.004 0 3.663 1.406-1.3 2.33-12.502 2.33-6.325 0-12.1-.38-12.834-.845"/><path fill="#00687E" fill-rule="evenodd" d="M752.323 939.304c-1.198-.233-2.658-1.002-3.244-1.709-.586-.706-2.895-7.767-5.131-15.69a7014 7014 0 0 0-6.978-24.551c-1.602-5.58-3.213-12.105-3.579-14.5s-1.036-5.08-1.49-5.966c-.5-.98-.32-2.3.459-3.365l1.282-1.754 23.619-.134c14.808-.085 24 .243 24.643.879.563.558 2.138 4.833 3.5 9.5s5.202 17.711 8.533 28.986c3.332 11.275 6.058 21.052 6.06 21.727.006 2.521-4.842 4.224-16.302 5.726-10.932 1.434-26.246 1.849-31.372.85M741.5 878.5c0-1.438-.772-2.089-2.75-2.316l-2.75-.317v5.266l2.75-.317c1.978-.227 2.75-.878 2.75-2.316m126.537-265.955c-.699-.842-2.592-4.326-4.208-7.742-1.615-3.416-4.968-8.383-7.45-11.037-2.493-2.664-4.37-5.576-4.191-6.502.418-2.173 3.723-3.041 12.042-3.164l6.73-.1.27-69.465.27-69.464 1.68-1.68 1.68-1.679 19.32.189 19.32.188 2.5 2.478 2.5 2.478.27 68.372.27 68.373 7.95.361c11.136.506 11.51.988 11.51 14.849 0 9.155-.29 11.218-1.784 12.714l-1.785 1.786-32.811.288-32.812.289zm-382.076-90.09c-1.212-1.46-1.562-9.347-2.054-46.357l-.593-44.598-2.192-9.82c-2.725-12.21-5.726-20.255-12.15-32.572l-5.012-9.608.27-144.214.27-144.215 1.783-1.785c1.495-1.498 3.914-1.836 15-2.097 10.47-.247 13.633-.004 15.217 1.17l2 1.48.263 109.08.263 109.081H633l.015-87.25c.011-68.385.288-87.79 1.28-89.75l1.267-2.5h49.369l1.785 1.785 1.784 1.786.266 87.92.266 87.921 28.234.294c15.529.162 33.297.153 39.484-.018l11.25-.313v-2.286c0-2.706-2.01-11.809-13.495-61.089-4.743-20.35-9.917-42.85-11.498-50-1.582-7.15-3.173-13.974-3.536-15.165-.491-1.613-.061-2.552 1.685-3.68 1.289-.834 8.23-2.657 15.426-4.051 10.192-1.976 13.868-2.319 16.641-1.553 1.958.54 4.079 1.608 4.712 2.37 1.879 2.265 4.813 13.715 9.502 37.079 5.735 28.58 10.095 46.848 12.574 52.685l1.989 4.686v41.934l66.46-.153 66.462-.152 1.789 1.785 1.789 1.784v25.089l-1.941 1.421c-1.647 1.205-17.21 1.425-102.5 1.446-85.516.02-165.885.244-307.809.857L499 341v89.309c0 72.078-.253 89.655-1.31 91.101-.79 1.079-3.096 1.994-5.79 2.298-3.478.392-4.805.112-5.94-1.253"/><path fill="#FD413E" fill-rule="evenodd" d="M195.166 815.124c-1.064-.675-.997-.975.332-1.485.916-.351 125.521-.639 276.9-.639 194.74 0 276.963-.32 281.144-1.092 9.013-1.667 17.518-5.933 21.27-10.671 5.029-6.349 7.376-12.611 7.542-20.116l.146-6.621-2.177-.31c-1.198-.17-2.716-.958-3.373-1.75-1.378-1.66-6.069-1.921-7.57-.42-.692.692-2.392.534-5.3-.492-2.356-.831-5.7-1.476-7.431-1.434-1.732.042-4.445-.25-6.03-.65-2.108-.532-3.11-.317-3.737.803-1.368 2.445-5.756 3.066-8.581 1.214-1.43-.936-5.586-1.864-9.77-2.18-5.395-.408-8.07-.159-10.315.962l-3.032 1.512-1.623-1.622c-1.2-1.2-4.02-1.713-10.842-1.97-16.98-.641-25.192-.48-28.92.566l-3.7 1.038-1.78-1.966c-1.392-1.539-2.544-1.83-5.299-1.34-9.015 1.605-14.848 2.002-18.576 1.263-2.274-.45-5.13-.397-6.5.121-1.768.669-3.188.492-5.134-.64l-2.69-1.565-3.976 1.313c-2.188.721-5.027 1.058-6.31.748-1.284-.31-4.344-1.068-6.801-1.686s-5.607-.83-7-.474c-3.473.89-20.315 1.62-33.16 1.44-6.97-.099-11.313.277-12.615 1.09-1.583.989-2.88.986-6.373-.012-7.6-2.171-10.49-2.315-13.652-.68l-3.032 1.568-1.295-1.56c-.949-1.144-2.245-1.386-4.85-.908-5.16.947-8.011.972-23.366.205-8.539-.427-14.512-.314-15.65.294-2.557 1.37-20.806 2.21-21.557.994-.912-1.475-5.08-1.162-6.446.483-.96 1.158-1.594 1.214-3.101.273-1.462-.913-2.63-.905-5.123.036-2.135.806-3.566.883-4.221.228-1.5-1.5-8.108-1.19-13.701.639l-4.986 1.63-3.702-1.576c-7.84-3.336-18.645-4.072-21.89-1.49-.755.601-1.96.53-3.32-.199-1.552-.83-2.975-.85-5.213-.07-1.693.591-5.469 1.074-8.39 1.074-3.931 0-5.777-.495-7.101-1.905l-1.789-1.905-11.5.451c-14.753.579-24.4.688-32.333.366-3.484-.141-7.871.218-9.75.8-1.88.58-6.214 1.445-9.632 1.92-4.804.669-6.842.537-8.972-.579-2.275-1.192-3.546-1.233-7.272-.237-2.483.665-5.343 1.957-6.355 2.873l-1.84 1.665-1.673-2.106-1.673-2.105-10.232-.664c-6.668-.432-10.936-.287-12.25.417L266 769.07v-2.036c0-2.444-2.623-2.616-8.417-.552l-3.916 1.396-2.92-1.51c-2.218-1.147-4.52-1.343-9.583-.816-3.665.382-7.503 1.132-8.528 1.667-1.347.703-2.774.482-5.149-.797l-3.285-1.769-6.35 2.318c-4.582 1.671-8.191 2.267-12.95 2.137-4.752-.129-6.94.231-7.816 1.287-.67.807-1.525 6.11-1.902 11.786-.4 6.038-1.099 10.219-1.684 10.078-1.097-.263-1.232-2.327-2.304-35.26l-.732-22.5-3.167-6.723c-3.605-7.654-10.493-15.53-16.828-19.242-2.375-1.392-7.4-3.179-11.167-3.971s-8.105-1.919-9.64-2.503c-1.691-.642-12.378-1.061-27.105-1.061-18.616 0-24.563.302-25.381 1.288-.588.709-1.206 4.196-1.373 7.75-.171 3.658-.737 6.357-1.303 6.22-1.381-.336-1.85-15.132-.53-16.723 1.697-2.043 93.252-2.695 242.03-1.722 72.325.473 133.122.496 135.105.05 1.983-.444 29.452-.483 61.041-.085l57.437.722 2.958 2.323c1.628 1.278 7.459 5.479 12.959 9.335s12.925 9.579 16.5 12.716c17.36 15.233 21.208 17.317 33.079 17.92 9.2.466 11.747-.297 18.746-5.618 4.562-3.468 11.87-13.955 13.058-18.736 2.514-10.131 4.152-14.903 5.614-16.358l1.589-1.582 25.707.136c30.921.163 37.19 1.164 46.902 7.49 7.689 5.01 12.412 10.31 16.373 18.374 4.759 9.689 6.219 18.793 5.613 35-.287 7.7-1.063 16.475-1.723 19.5-3.095 14.181-12.567 27.122-23.482 32.08-3.314 1.504-8.684 3.227-11.934 3.828-4.182.773-86.157 1.088-280.476 1.077-151.011-.009-275.166-.396-275.9-.861M869.64 646.502c-.934-2.435-.752-15.776.237-17.336 1.372-2.164 2.126 1.112 2.109 9.166-.016 7.448-1.132 11.334-2.346 8.17m-89.848-9.195c-.646-2.47.631-5.273 1.431-3.14.276.733.19 2.209-.192 3.28l-.694 1.946zm-.11-12.526c-1.387-5.364 2.158-14.685 9.544-25.089 3.252-4.58 3.282-2.173.035 2.73-2.669 4.028-5.34 11.248-7.981 21.578l-.896 3.5zm87.307-9.803c-.81-1.514-.852-2.514-.136-3.23s1.246-.205 1.713 1.654c.87 3.47-.064 4.403-1.577 1.576M855.09 594.75c-.51-1.357-.458-2.395.13-2.616 1.441-.54 4.129 2.494 3.34 3.77-1.087 1.76-2.558 1.27-3.47-1.154M849.5 591c-.34-.55-1.513-1-2.607-1s-3.096-1.195-4.45-2.656l-2.46-2.655-3.858 1.155c-5.106 1.53-6.678 1.462-10.736-.464l-3.413-1.62-7.668 1.14c-5.214.776-7.993.815-8.687.12-.695-.694-.637-1.404.179-2.22.66-.66 1.2-1.973 1.2-2.918v-1.719l-12.467-.331c-10.345-.276-12.77-.636-14.25-2.118l-1.783-1.785V413.527l3-1.513c2.346-1.184 6.27-1.468 18-1.302 20.185.284 24.963.922 28.283 3.777l2.717 2.337.273 79.517.273 79.517 3.688 1.217c2.028.67 5.844 2.3 8.48 3.624 3.55 1.784 5.309 3.478 6.789 6.54 1.098 2.274 1.997 4.275 1.997 4.447 0 .752-1.94.218-2.5-.688M458.573 438.75c-.255-1.238-.68-3.6-.942-5.25-.849-5.324-7.577-22.653-11.817-30.434-5.861-10.756-12.75-19.82-20.925-27.532-9.663-9.115-17.8-14.955-27.956-20.062-10.337-5.198-21.135-8.838-34.109-11.497l-9.675-1.983-128.325.254L96.5 342.5l-.533 34c-.294 18.7-.645 34.225-.78 34.5-.137.275-.633-.175-1.104-1-1.283-2.247-1.819-95.66-.556-96.925 1.449-1.451 265.92-1.539 273.473-.09 23.931 4.59 48.447 15.661 66.22 29.906 10.127 8.117 22.509 21.211 28.47 30.109 4.7 7.014 11.31 20.433 11.31 22.957 0 .618.9 2.887 2 5.043 2.355 4.616 2.753 13.497.642 14.307-.748.287-1.655 2.374-2.017 4.638-.509 3.18-1.239 4.338-3.207 5.086-1.401.533-4.022.969-5.823.969-2.554 0-3.534.57-4.456 2.595-.731 1.604-.934 4.467-.532 7.5.648 4.886-.15 6.935-1.034 2.655m21.066-10.248c-1.059-2.76-.726-4.502.861-4.502 1.63 0 1.978 2.698.624 4.834-.675 1.064-.975.997-1.485-.332m326.37-116.624c-4.01-.833-5.801-2.466-6.842-6.236-.477-1.728-.646-38.34-.376-81.36l.49-78.216 1.808-2.972c1.173-1.929 3.14-3.342 5.609-4.027 4.535-1.26 25.95-1.337 32.273-.117 2.877.555 5.29 1.814 6.767 3.532l2.296 2.67-.267 81.388-.267 81.39-1.783 1.785-1.783 1.785-17.463.5c-9.605.275-18.813.22-20.461-.122m-262.774-.887c-1.245-.516-2.708-2.104-3.25-3.53-.62-1.629-.98-34.036-.97-87.276.011-65.221.298-85.237 1.25-87.089.68-1.322 2.505-3.347 4.058-4.5l2.823-2.096H583.5l3.992 2c2.196 1.1 4.556 3.125 5.244 4.5.98 1.956 1.2 21.264 1.008 88.715l-.244 86.214-1.784 1.786-1.783 1.785-22.217.214c-12.219.118-23.235-.208-24.48-.723"/><path fill="#E92E2C" fill-rule="evenodd" d="M130.173 873.128c-.73-.463-2.08-1.985-3-3.384s-3.291-4.95-5.269-7.893c-4.977-7.406-7.588-11.888-8.835-15.17-1.423-3.741.442-2.55 2.555 1.632 3.164 6.263 12.587 19.78 14.799 21.228l2.252 1.476 342.413-.258L817.5 870.5l6.71-2.324c5.58-1.932 7.648-3.335 12.26-8.316 3.05-3.296 6.24-7.331 7.086-8.968 1.909-3.691 6.106-20.504 6.963-27.892.351-3.025 1.706-13.15 3.01-22.5 4.673-33.504 9.757-81.224 8.816-82.75-.621-1.007-2.98-.948-5.109.127-3.251 1.643-8.87 3.123-11.857 3.123-1.638 0-3.417.438-3.953.974s-4.639 1.162-9.117 1.39-8.742.775-9.476 1.214c-.733.44-1.921 1.615-2.64 2.61-.718.997-2.53 1.812-4.027 1.812s-3.609.62-4.693 1.376c-1.085.756-4.448 1.711-7.473 2.121-4.25.577-6.367 1.527-9.319 4.184-2.706 2.436-4.585 3.348-6.446 3.129l-2.628-.31-1.642-5.5c-.903-3.025-2.902-7.97-4.44-10.987l-2.8-5.488.525-46.512.525-46.513 2.597-8c1.428-4.4 3.602-9.575 4.83-11.5l2.234-3.5.032-11.22.032-11.22 2.194-2.197c2.91-2.913 8.026-2.927 10.372-.03 2.21 2.73 6.066 2.784 8.477.12 2.493-2.755 6.84-2.279 7.277.797.208 1.468 1.007 2.25 2.3 2.25 1.088 0 3.365.716 5.058 1.592 1.84.952 4.133 1.346 5.7.98 1.442-.335 5.165-.815 8.272-1.064 4.184-.336 5.968-.071 6.873 1.02.672.81 2.752 1.472 4.621 1.472h3.4l2.932 4.624c1.613 2.543 3.847 5.264 4.963 6.046 3.158 2.212 6.716 9.07 9.248 17.83l2.313 8-.163 24c-.156 22.9-2.2 55.576-4.346 69.5-.55 3.575-1.93 15.275-3.063 26-3.108 29.39-7.797 65.926-10.975 85.5-2.511 15.467-6.597 26.368-12.835 34.242-3.585 4.526-14.337 10.796-21.762 12.69L812.21 874l-340.355-.015c-187.196-.009-340.953-.394-341.683-.857m55.98-58.012c-.99-.628-.55-1.13 1.669-1.904l3.014-1.05.54-5.331c.297-2.932.766-12.19 1.042-20.572s.983-16.14 1.572-17.24c1.27-2.375 5.965-4.938 7.83-4.275.725.258 3.729.168 6.674-.2l5.354-.669 1.077-3.091 1.078-3.091 1.986 1.797c1.683 1.523 4.093 1.828 15.78 2.001 8.098.12 14.681.68 15.946 1.356 3.427 1.834 5.707 1.366 8.735-1.795 2.314-2.415 3.386-2.844 5.937-2.378 1.712.313 4.023 1.133 5.134 1.821 2.214 1.37 8.467 2.505 15.479 2.81l4.5.195.041-2.843c.081-5.54 6.494-5.637 7.88-.12l.65 2.592 7.428-.217c4.742-.139 7.969.231 8.924 1.024 1.812 1.504 7.135.541 10.176-1.841 1.437-1.127 3.8-1.592 7.5-1.478 2.97.092 6.668.666 8.216 1.275 4 1.575 9.222 1.371 10.706-.417l1.266-1.525 1.817 1.644c1.28 1.158 2.79 1.465 5.107 1.039 5.34-.983 23.866-1.318 24.408-.44.744 1.203 6.387.896 10.493-.572 3.017-1.078 4.367-1.05 8.198.174l4.587 1.463 3.47-2.047 3.47-2.048 1.737 1.919c2.546 2.813 6.26 2.483 7.457-.663 1.286-3.384 3.386-2.602 3.782 1.408.255 2.58.755 3.173 2.678 3.173 1.507 0 3.463-1.334 5.398-3.681 2.106-2.556 3.17-3.244 3.477-2.25.243.787.718 2.276 1.056 3.309l.613 1.878 3.733-.834c2.052-.458 7.618-.853 12.366-.878 6.82-.035 9.05-.417 10.607-1.82l1.972-1.774 1.347 1.623c.966 1.164 2.319 1.465 4.784 1.065 1.89-.307 4.276-.109 5.301.44 1.245.666 5.942.647 14.127-.058 9.201-.793 13.632-.758 17.746.14 7.63 1.663 12.404 1.379 16.399-.978l3.42-2.019 1.812 2.002c1.464 1.618 2.581 1.883 5.831 1.384 2.211-.34 6.11-.715 8.665-.833 2.77-.129 5.428-.925 6.587-1.974l1.943-1.758 1.705 1.883c1.31 1.448 4.257 2.165 12.751 3.103l11.048 1.22 1.467-2.095c1.098-1.567 2.537-2.095 5.71-2.095 2.335 0 4.767-.523 5.407-1.163.884-.884 1.415-.498 2.216 1.608l1.053 2.77 3.234-.546a578 578 0 0 0 8.709-1.583c3.557-.674 5.816-.695 6.45-.061 1.655 1.655 5.88 1.062 10.256-1.44 2.3-1.315 4.437-2.134 4.75-1.821s.569 1.584.569 2.823c0 3.004 2.905 3.52 15.5 2.75 10.524-.643 13.646-.63 33 .148 6.6.265 18.075.685 25.5.934s17.775.718 23 1.042c7.18.445 9.988.255 11.5-.78 2.144-1.466 6.931-1.5 26.233-.189 7.51.51 11.611 1.218 12.373 2.136.626.754 2.223 1.372 3.548 1.372s2.556.563 2.736 1.25.84 2.856 1.468 4.82c.915 2.862.828 4.646-.44 9-.87 2.986-3.12 8.258-5 11.714-2.748 5.053-3.421 7.405-3.433 12-.017 6.207-1.22 9.652-2.346 6.718-.351-.916-.639-2.529-.639-3.584 0-2.645-2.981-2.468-8.892.528-2.655 1.345-7.843 3.145-11.53 4l-6.7 1.554-280.188-.015c-154.103-.009-280.794-.4-281.534-.869m-87.272-3.866c-.589-1.513-2.04-7.7-3.226-13.75l-2.155-11v-84.429l1.786-1.786 1.785-1.785H146.5l9.677 2.315c14.288 3.42 26.014 11.218 28.244 18.785l.619 2.1-8.27.81c-10.082.987-23.564 1.043-42.77.178-13.778-.62-17.343-1.06-29.86-3.692-2.947-.62-5.984-.886-6.75-.593-1.143.44-1.39 5.679-1.39 29.46 0 15.909.46 33.585 1.02 39.281.943 9.56 3.076 21.336 4.57 25.232.35.91.126 1.624-.508 1.624-.622 0-1.613-1.237-2.201-2.75m553.202-68.617c.23-.203 3.342-.666 6.917-1.03 4.525-.46 6.044-.354 5 .352-1.345.91-12.926 1.568-11.917.678m28.174-15.869c1.204-5.31 5.726-11.51 7.566-10.374 2.3 1.422 1.112 4.541-3.732 9.79l-4.908 5.32zM93.639 619.502c-.967-2.522-.735-199.802.237-201.336.675-1.064.975-.997 1.485.332.967 2.522.735 199.802-.237 201.336-.675 1.064-.975.997-1.485-.332m607.915-42.398-1.947-.768 2.447-.654c1.345-.36 19.246-.66 39.78-.668 29.426-.011 37.244.25 36.916 1.236-.322.966-8.922 1.292-37.833 1.436-20.58.102-38.293-.16-39.363-.582M461 524.348c-3.93-1.515-4-2.338-4-46.917v-43.186l-1.504-1.248c-.827-.687-1.865-2.642-2.306-4.345-.65-2.508-1.575-3.32-4.865-4.273-2.234-.647-5.903-2.51-8.152-4.139l-4.09-2.963-11.757-.724c-6.777-.417-12.914-1.323-14.491-2.138-3.13-1.619-15.399-1.93-16.335-.415-1.103 1.785-7.08 1.12-9-1-.995-1.1-2.364-2-3.04-2-.678 0-2.52.672-4.096 1.494-3.629 1.893-6.354 1.902-9.025.031-1.31-.918-5.452-1.649-10.972-1.935-4.877-.254-9.798-.746-10.937-1.095-1.3-.398-2.554-.051-3.372.935-1.73 2.084-3.268 1.98-6.33-.43-1.536-1.208-4.065-2.002-6.386-2.006-2.113-.004-5.05-.636-6.525-1.406-4.787-2.497-8.315-2.773-12.757-.995-3.381 1.353-5.94 1.557-12.836 1.027-5.382-.413-9.226-1.216-10.247-2.14-2.11-1.911-6.384-1.9-7.977.02-.685.825-1.813 1.5-2.508 1.5-.694 0-3.576.747-6.403 1.66l-5.142 1.66-2.099-2.253-2.1-2.253-8.124.704c-4.468.387-8.654 1.132-9.302 1.656-.77.622-2.225.41-4.2-.611-1.663-.86-3.918-1.563-5.013-1.563s-2.27-.45-2.609-1c-.94-1.52-8.778-1.194-11.144.463-1.681 1.178-2.686 1.239-5.141.312-2.516-.95-3.749-.838-7.013.634l-3.961 1.786-7.87-2.668-7.871-2.67-7.5.676c-4.125.37-9.23 1.508-11.346 2.526-2.425 1.168-4.919 1.638-6.748 1.272-1.75-.35-3.54-.05-4.512.757-1.363 1.13-1.803 1.073-2.862-.376-1.335-1.825-5.143-2.245-7.4-.815-.904.573-2.036.199-3.337-1.102-1.523-1.523-2.57-1.78-4.632-1.139-3.442 1.073-16.205 1.049-22.835-.042l-5.172-.851-.328 2.868c-.273 2.387-.847 2.92-3.413 3.17-1.878.183-3.589-.306-4.373-1.25-.708-.853-2.312-1.551-3.566-1.551-1.562 0-2.995 1.18-4.555 3.75l-2.277 3.75-.862-4.853c-.475-2.67-.732-18.742-.573-35.716l.291-30.862 1.786-1.785 1.786-1.784H352.5l10.5 2.38c12.267 2.78 25.043 7.114 33.5 11.364 9.771 4.91 23.383 14.732 31.536 22.756 8.51 8.374 17.534 21.33 23.501 33.74 2.76 5.74 4.504 8.244 5.745 8.25.98.006 3.398-.665 5.372-1.49 1.975-.825 4.4-1.5 5.388-1.5 1.262 0 2.279-1.45 3.415-4.87l1.617-4.868-2.56-7.881c-1.408-4.335-3-8.662-3.537-9.617-1.226-2.178-1.253-3.764-.065-3.764 1.486 0 9.615 14.9 12.548 23 1.494 4.125 3.872 12.9 5.285 19.5l2.568 12 .401 41.5.401 41.5-1.475 2-1.475 2-11.332.213c-6.233.117-12.008-.047-12.833-.365M99.2 315.014c-4.143-.982-4.894-1.72-3.333-3.28.965-.965 28.613-1.234 126.933-1.234 69.135 0 126.99.36 128.568.799 1.577.439 2.595 1.07 2.262 1.404s-3.649 1.195-7.368 1.915c-5.35 1.035-31.516 1.295-125.262 1.243-65.175-.036-119.985-.417-121.8-.847m716.966-3.89c-1.064-.675-.997-.975.332-1.485 2.149-.824 8.855-.824 11.004 0 2.712 1.04-.333 2.33-5.502 2.33-2.475 0-5.1-.38-5.834-.845M800 308.845v-2.155l2 1.81c1.1.995 2 1.965 2 2.155s-.9.345-2 .345c-1.381 0-2-.667-2-2.155"/><path fill="#5E2A3C" fill-rule="evenodd" d="M92.624 772.461c-.343-.893-.624-17.156-.624-36.138v-34.514l1.716-2.905c2.035-3.445 3.88-3.893 2.693-.654-.453 1.237-1.068 18.526-1.367 38.418-.298 19.893-.824 36.45-1.168 36.793-.345.344-.908-.106-1.25-1M772 710.95c-2.475-2.225-3.6-3.612-2.5-3.084 1.881.905 8.381 7.137 7.437 7.131-.24-.001-2.462-1.823-4.937-4.047m-8-5.45c-.997-1.2-.98-1.818.08-3.097l1.326-1.597.727 1.847c1.631 4.146.357 5.847-2.133 2.847m-627.171-5.441c-6.969-.308-12.994-.884-13.389-1.281s.583-1.237 2.171-1.867c1.982-.786 20.99-1.344 60.557-1.778 31.717-.348 58.002-.968 58.41-1.377.41-.41.03-2.21-.842-4-2.93-6.018-6.048-18.198-6.525-25.492-.26-3.98-.976-7.615-1.592-8.077-.615-.463-4.898-1.828-9.517-3.034-4.62-1.206-11.145-3.48-14.5-5.054a705 705 0 0 0-12.337-5.61c-3.43-1.512-6.748-3.366-7.373-4.12-2.019-2.431.906-1.583 7.145 2.073 6.098 3.574 16.084 7.037 28.963 10.043 11.369 2.654 11.588 2.88 12.284 12.75.872 12.355 5.627 23.986 12.482 30.532 1.306 1.247 2.228 3.027 2.049 3.956-.18.93-1.448 2.002-2.82 2.383-2.916.812-96.569.773-115.166-.047m629.204-.16c-.018-.33.461-2.018 1.065-3.75 1.116-3.203 2.902-4.286 2.902-1.76 0 1.332-3.898 6.747-3.967 5.51m-1.498-24.486c-.932-1.422-1.395-2.885-1.029-3.25.711-.708 4.494 3.457 4.494 4.948 0 1.732-1.793.854-3.465-1.698m-11.108-11.892c-1.06-.801-1.477-1.465-.927-1.474 1.486-.024 4.026 1.76 3.398 2.388-.3.3-1.411-.112-2.471-.914M93.157 643c0-1.375.228-1.937.505-1.25.278.688.278 1.813 0 2.5-.277.688-.504.125-.504-1.25m-.476-37.39c-.82-2.138-.88-289.93-.06-292.065.523-1.361.833-1.44 1.513-.379 1.095 1.707 1.06 290.903-.036 292.675-.658 1.064-.938 1.019-1.417-.23M673.5 521.074c-3.125-1.308-5.57-4.559-5.795-7.702l-.205-2.871h3.987c3.362 0 4.192.43 5.304 2.75.725 1.513 1.692 2.75 2.15 2.75.456 0 2.12-.672 3.695-1.494 3.23-1.684 5.252-1.863 7.188-.636 1.065.675.99 1.174-.386 2.55-1.291 1.29-2.639 1.553-5.495 1.07l-3.784-.639-.33 2.325c-.358 2.528-2.96 3.308-6.329 1.897m21.088-.931c-.29-.468.585-1.895 1.943-3.171s2.485-3.254 2.504-4.395l.036-2.076 1.356 2.45c.747 1.347 1.126 3.051.844 3.787-.68 1.772-6.013 4.49-6.683 3.405m-88.017-2.362c-1.1-.616-1.149-1.276-.235-3.213l1.15-2.437 1.735 1.57c1.225 1.109 2.808 1.395 5.397.975 2.015-.327 4.572-.109 5.682.486l2.02 1.08-1.91 1.073c-2.246 1.261-11.84 1.584-13.84.466m-10.032-4.15c-2.2-2.2-2.438-2.95-1.498-4.706l1.118-2.09 1.75 1.583c.961.87 2.306 1.583 2.987 1.583.82 0 1.009.762.559 2.25-1.15 3.806-2.196 4.1-4.916 1.38m29.243-1.598c.509-3.465 2.557-5.5 4.705-4.675 2.101.806 1.889 3.267-.487 5.643-2.978 2.978-4.738 2.575-4.218-.968m81.857-47.53c-.833-2.172-.833-40.832 0-43.004 1.62-4.223 2.33 2.327 2.33 21.502s-.71 25.725-2.33 21.502m71.01-34.974c-.357-.93-.649-3.942-.649-6.693 0-3.554.362-4.883 1.25-4.59 1.51.497 2.23 9.074.953 11.356l-.905 1.618zM539.015 222.333c.014-78.657.461-94.445 2.441-86.28.327 1.345.47 40.435.32 86.864-.217 66.447-.542 84.505-1.526 84.833-.994.331-1.247-17.19-1.235-85.417"/><path fill="#03294A" fill-rule="evenodd" d="M246.444 938.523c-12.911-1.762-23.21-4.192-36.785-8.679-18.485-6.11-35.443-15.346-52.45-28.57-9.285-7.22-22.978-20.308-25.712-24.575-1.394-2.177-1.527-3.069-.596-4 .927-.927 68.936-1.19 299.399-1.155 209.84.03 301.243.37 308.47 1.144 5.65.606 10.937 1.654 11.75 2.329s1.48 2.29 1.48 3.586c0 1.712-.72 2.54-2.623 3.017-1.443.362-4.635 1.783-7.094 3.157l-4.47 2.498.45 3.113c.246 1.711 2.833 11.437 5.746 21.612s5.495 20.129 5.737 22.12l.44 3.62-3.243 1.13c-2.38.83-68.174 1.098-247.342 1.01-187.743-.092-246.192-.406-253.157-1.357m551.188-4.636c-.226-.763-3.666-12.637-7.644-26.387s-7.628-26.045-8.113-27.321c-.62-1.639-1.54-2.235-3.127-2.027-1.237.162-2.331-.143-2.432-.679-.102-.535.528-.825 1.4-.645s2.599-.944 3.84-2.5l2.254-2.828 18.845-.536 18.845-.535 5-2.261c2.75-1.244 7.175-4.378 9.834-6.965 5.52-5.372 9.844-13.198 12.032-21.783 2.718-10.658 7.8-47.938 13.079-95.92 5.347-48.604 7.743-84.162 7.43-110.266-.18-15.011.077-20.586.99-21.5.927-.927 9.17-1.234 33.148-1.234h31.915l1.786 1.786 1.786 1.786V782.5l-2.766 13.672c-3.408 16.852-10.248 37.107-16.91 50.076-7.563 14.723-18.729 29.834-31.239 42.277-18.312 18.214-43.272 33.428-68.862 41.976-12.651 4.226-20.471 5.481-21.091 3.386m-38.08-53.477c-1.838-1.84-1.854-1.977-.517-4.476.698-1.303 2.085-1.929 4.25-1.919 1.768.009 3.89.446 4.715.972 1.147.73 1.245 1.366.415 2.696-.596.957-2.485 2.311-4.197 3.01-2.641 1.077-3.348 1.035-4.665-.283m160.77-293.056c-1.197-.26-2.772-1.191-3.5-2.067-1.057-1.274-1.422-15.432-1.822-70.69l-.5-69.097-20-.5c-11-.275-20.675-.95-21.5-1.5s-10.597-1.225-21.716-1.5l-20.216-.5-1.784-1.784c-1.428-1.428-1.884-4.024-2.284-13l-.5-11.216-12.663-.66c-6.964-.364-15.064-1.158-18-1.765-4.125-.853-6.36-.806-9.837.205l-4.5 1.308-.5 79.67-.5 79.671-1.784 1.786-1.785 1.785-35.215.313c-19.369.171-37.155.027-39.524-.32-2.37-.348-4.543-1.244-4.83-1.99-.29-.76 2.554-4.916 6.451-9.426 8.138-9.417 14.552-21.583 16.683-31.641.808-3.815 1.474-11.661 1.48-17.436.016-16.223-3.563-28.74-11.862-41.486L707.5 471.5l-.515-30.5-.516-30.5-1.984-4-1.985-4-4.42-.316c-2.43-.173-5.574-.026-6.986.328-1.45.365-9.82 7.817-19.255 17.148l-16.69 16.503-5.824-.832c-7.602-1.085-26.841-1.063-36.28.041l-7.454.872-16.545-17.093c-9.1-9.4-17.813-17.556-19.361-18.122S564.659 400 561.958 400h-4.912l-1.773 2.703-1.773 2.704-.593 33.656-.593 33.656-2.197 4.39c-4.178 8.35-25.63 39.298-29.205 42.133-2.484 1.97-5.562 3.17-10 3.902-7.901 1.301-12.915.204-14.656-3.207-.97-1.9-1.19-21.883-1-90.652l.244-88.214 1.786-1.786 1.785-1.785H934.93l1.785 1.786 1.786 1.785V583.93l-1.738 1.737c-1.22 1.22-3.601 1.8-8 1.95-3.444.117-7.242-.001-8.44-.262M682 523.05c-2.133-.665-7.153-2.974-13-5.98-.825-.425-1.638-1.92-1.807-3.324-.21-1.745.405-3.052 1.944-4.13l2.25-1.576 1.557 1.394c.856.767 4.437 2.36 7.958 3.542l6.401 2.147 5.37-3.697 5.369-3.698 1.979 1.79c1.088.986 1.979 2.59 1.979 3.566 0 2.849-6.159 8.59-10.512 9.798-4.505 1.25-5.93 1.275-9.488.168m-75.214-5.015c-4.7-.617-8.817-3.395-10.978-7.407-.782-1.451-.536-2.344 1.095-3.975l2.104-2.104 3.675 1.975c2.843 1.528 5.24 1.915 10.582 1.708 3.798-.148 8.196-.935 9.772-1.75 1.575-.815 3.347-1.482 3.936-1.482s1.575 1.107 2.191 2.459c.896 1.967.79 2.964-.53 4.98-.909 1.385-2.885 3.14-4.392 3.9-3.45 1.738-11.316 2.502-17.455 1.696M458.98 372.294c-6.63-8.88-21.6-23.909-30.29-30.411-4.296-3.214-11.496-7.852-16-10.306-14.73-8.025-26.185-12.032-46.69-16.33l-7.5-1.571-131.215-.588-131.214-.588-1.786-1.787-1.785-1.786V239.5l2.781-13.758c1.53-7.567 4.154-17.692 5.831-22.5 7.243-20.76 18.796-40.653 33.371-57.462 9.167-10.572 18.43-18.502 33.017-28.264 25.132-16.819 50.346-26.105 81.5-30.014l12.5-1.569 101.7.284c81.814.228 101.955.537 103 1.583 1.052 1.052 1.35 28.225 1.56 142.32.143 77.562-.11 142.452-.563 144.2s-1.513 3.31-2.357 3.472c-.902.174-3.315-2.09-5.86-5.498m41.028-61.147c-1.37-.403-3.055-1.839-3.743-3.19-.982-1.93-1.198-25.561-1.008-110.171L495.5 90.07l1.786-1.785 1.785-1.786 137.715-.299 137.714-.299 12 1.655c13.784 1.9 31.098 6.176 40.43 9.983 12.077 4.926 25.953 12.418 37.766 20.39C876.725 126.05 890 137.517 890 139.79c0 3.083-5.372 3.401-45.252 2.684-31.07-.559-40.08-.443-41.25.528L802 144.245l-.1 56.627c-.055 31.146-.412 57.753-.795 59.128-.438 1.577-1.417 2.5-2.65 2.5H796.5l-3.261-13c-1.794-7.15-5.307-23.35-7.806-36-4.783-24.21-7.974-37.168-9.663-39.25-.62-.763-3.404-1.235-7.142-1.21-6.617.042-23.228 3.16-24.705 4.637-.54.54-.457 3.308.206 6.864 1.75 9.387 8.237 38.456 15.389 68.959 3.61 15.4 7.842 33.95 9.403 41.224 2.375 11.068 2.626 13.513 1.54 15l-1.3 1.776h-27.09l-1.785-1.786-1.786-1.785.06-61.715c.033-33.943.138-63.739.232-66.214s-.158-16.875-.56-32l-.732-27.5-24.118-.267-24.118-.268-.519 4.604c-.285 2.533-.907 4.97-1.382 5.416-1.07 1.005-90.025 1.409-119.576.542-14.82-.434-22.355-.293-23.734.445l-2.021 1.081-.266 87.938-.266 87.938-1.784 1.786-1.783 1.785-17.717.19c-9.744.105-18.837-.14-20.208-.543m397-.009c-1.37-.398-3.051-1.83-3.735-3.181-.959-1.895-1.247-20.126-1.258-79.642-.01-47.768.357-78.162.96-79.75.537-1.41 1.496-2.565 2.132-2.565 3.496 0 18.832 21.991 26.777 38.398 6.354 13.12 10.347 25.028 13.783 41.102l2.78 13 .026 34.712.027 34.713-1.783 1.787-1.783 1.788-17.717.181c-9.744.1-18.838-.144-20.209-.543"/><path fill="#C91D29" fill-rule="evenodd" d="M132.036 872.694c-3.92-1.352-8.193-6.557-15.955-19.44-4.72-7.833-9.575-18.126-10.733-22.754l-.5-2 2.076 2.36c1.142 1.3 2.076 2.932 2.076 3.628s.692 1.841 1.537 2.543c1.237 1.026 58.366 1.335 292.25 1.58 159.892.169 308.766.034 330.83-.298l40.118-.603.663-17.105.663-17.105 4.72-9.343 4.719-9.343.522-22.157.522-22.157 2.269-4.29c1.248-2.36 3.397-4.804 4.775-5.432 1.883-.858 2.433-1.782 2.21-3.71-.245-2.112.161-2.621 2.288-2.869 1.438-.167 3.156.388 3.872 1.25 2.314 2.789 6.337 1.858 10.53-2.437l3.895-3.989 7.059.083c14.868.175 19.38-.188 20.6-1.656.666-.803 2.905-1.45 5.021-1.45 2.1 0 4.097-.45 4.437-1s1.695-1 3.012-1 3.527-.516 4.911-1.147c1.963-.894 2.87-.855 4.116.18 1.206 1 1.468 2.451 1.067 5.897-.292 2.513-1.024 10.195-1.627 17.07-1.66 18.945-4.714 44.197-8.405 69.5-.802 5.5-1.733 12.422-2.068 15.382s-1.65 9.78-2.92 15.157c-5.228 22.12-16.73 33.766-36.586 37.042-3.22.531-144.961.886-342 .857-258-.04-337.308-.33-339.964-1.244m-30.054-51.444c-3.447-9.173-6.723-23.86-7.974-35.75-.685-6.522-1.024-22.265-.832-38.671l.324-27.671 2.329-2.477 2.328-2.477 6.172.513c3.394.282 7.219 1.17 8.5 1.972 2.104 1.32 6.018 1.654 14.671 1.256 1.65-.076 5.42.386 8.378 1.027 4.139.897 6.044.889 8.275-.035 2.426-1.005 3.192-.935 4.701.431 2.257 2.043 6.503 2.112 8.146.132 1.365-1.645 5-2.057 5-.567 0 .513.932 1.228 2.072 1.59 1.3.413 2.75.042 3.899-.996 1.177-1.066 3.894-1.733 7.638-1.876l5.81-.222 3.164 2.778c1.74 1.528 4.155 5.081 5.366 7.896 4.374 10.168 5.015 16.473 5.034 49.498.01 19.48-.381 32.243-1.049 34.158-.68 1.954-2.035 3.355-3.75 3.882-1.476.453-19.784.867-40.684.92s-39.745.174-41.879.268l-3.879.171.664 5c.364 2.75.455 5 .2 5-.254 0-1.435-2.587-2.624-5.75m544.305-79.116c-6.768-2.339-13.676-7.008-24.775-16.747-4.943-4.338-13.493-11.04-19-14.892-10.57-7.395-12.411-10.238-7.512-11.6 3.993-1.11 20.438-.994 25.93.183 3.58.768 6.403 2.303 9.799 5.33 10.261 9.142 22.937 18.968 26.266 20.361 4.315 1.806 16.142 1.246 20.505-.97 1.65-.839 3.563-1.324 4.25-1.078 3.86 1.377-1.999 11.324-9.458 16.057-8.615 5.468-16.825 6.527-26.005 3.356m-552.62-44.8c-.927-.928-.703-69.384.235-71.78l.762-1.947.654 2.447c.968 3.616.824 71.946-.151 71.946-.459 0-1.134-.3-1.5-.667m70.77-81.584-2.937-3.25 3.25 2.937c3.03 2.738 3.71 3.563 2.937 3.563-.172 0-1.635-1.462-3.25-3.25m617.598-9.684c-.57-1.064-1.035-2.646-1.035-3.515 0-2.356-5.45-5.226-11.317-5.96-6.615-.826-14.867-3.157-20.973-5.922-3.853-1.745-5.279-3.13-7.294-7.09l-2.504-4.92 1.577-1.58c1.307-1.308 5.297-1.665 23.294-2.079 11.944-.275 22.842-.243 24.217.072l2.5.572.098 11.928.098 11.928-2.896 4.25c-1.593 2.337-3.309 4.25-3.813 4.25s-1.382-.87-1.952-1.934M94.162 583.882c-.832-3.606-1.162-28.236-1.162-86.8 0-68.034.24-82.562 1.43-86.518.787-2.614 2.207-5.61 3.156-6.659 2.065-2.282 5.692-2.48 7.414-.405 1.916 2.308 3.796 1.795 5.5-1.5.853-1.65 2.078-3 2.723-3 .644 0 6.23.494 12.415 1.098l11.244 1.098 2.309-1.617c1.845-1.292 3.815-1.497 9.809-1.018 4.125.33 8.95 1.334 10.724 2.233l3.224 1.633 4.276-1.244c7.834-2.28 18.982-3.376 23.276-2.29 2.2.556 5.35 1.206 7 1.445 1.65.238 4.417 1.016 6.15 1.729l3.148 1.295 2.601-1.704c1.43-.937 2.601-2.539 2.601-3.559s.629-2.376 1.398-3.014c1.105-.917 1.812-.634 3.374 1.353l1.977 2.512 12.375-.269c8.606-.187 13.138.123 14.876 1.019 3.001 1.546 5.655 1.667 6.502.297.408-.66 1.329-.623 2.696.109 1.142.611 3.57.869 5.394.573 2.372-.385 4.016.011 5.77 1.391 1.35 1.062 2.91 1.93 3.469 1.93s2.404-1.168 4.101-2.596c1.717-1.445 4.874-2.837 7.117-3.137 3.29-.442 4.483-.116 6.497 1.776l2.466 2.317 11.244-.317c6.184-.175 15.82-.368 21.415-.43l10.17-.113 2.432 2.286 2.432 2.285 4.605-1.231 4.605-1.232 5.38 1.696c2.96.933 6.145 1.696 7.078 1.696s2.776-.706 4.093-1.57l2.396-1.57 1.684 2.57c1.151 1.756 2.579 2.57 4.51 2.57 1.554 0 3.063-.384 3.353-.852.854-1.382 12.638-2.017 18.591-1.003 3.025.515 7.3 1.108 9.5 1.318s6.647.88 9.883 1.493c4.972.941 6.146.875 7.581-.423 1.902-1.722 3.036-1.111 3.036 1.634 0 1.295.743 1.833 2.535 1.833 1.395 0 3.626-.715 4.96-1.588l2.424-1.589 5.053 5.053c3.106 3.107 6.493 5.443 8.79 6.064 4.68 1.265 8.238 3.715 8.238 5.672 0 .824.986 3.61 2.192 6.193l2.192 4.695.356 40.5c.28 31.826.077 41.02-.942 42.93-.714 1.337-2.648 2.808-4.298 3.269-1.65.46-22.575 1.074-46.5 1.363-23.925.29-47.1.981-51.5 1.538-24.256 3.067-47.437 14.147-70 33.459-3.3 2.824-7.575 5.838-9.5 6.697s-8.621 1.984-14.88 2.5l-11.38.938L250 573l-1.737 2.304-6.643-.68c-3.922-.402-7.41-.27-8.515.32-1.03.552-4.962 1.064-8.738 1.14-8.696.173-20.245 2.743-22.931 5.103-1.136.998-2.77 1.814-3.633 1.814-1.468 0-5.402-3.59-12.2-11.136-3.625-4.023-9.936-17.405-12.012-25.47-.864-3.358-2.05-9.545-2.634-13.75-.854-6.14-.753-9.465.513-16.894.868-5.088 2.304-11.5 3.193-14.25 2.327-7.202 6.858-15.934 12.567-24.216 4.774-6.928 8.557-10.801 17.764-18.19 5.334-4.281 7.962-9.924 7.962-17.094 0-7.502-2.728-13.16-8.043-16.676l-4.244-2.809-7.584.08c-6.13.063-8.58.586-12.773 2.727-7.406 3.781-21.487 18.635-29.554 31.178-6.497 10.1-10.4 18.264-14.287 29.88-5.154 15.403-6.792 27.795-6.216 47.02.403 13.42.937 17.764 3.211 26.1 1.5 5.5 2.946 11.125 3.212 12.5s1.215 3.945 2.11 5.71c.893 1.766 1.317 3.518.942 3.893-1.136 1.137-3.688-1.66-4.542-4.979-.627-2.439-1.42-3.196-3.618-3.452-1.547-.18-3.299.157-3.892.75S125.125 575 123.323 575c-2.392 0-3.72.675-4.915 2.5l-1.638 2.5h-13.617l-3.076 2.589c-1.692 1.424-3.077 3.197-3.077 3.94 0 .745-.377 1.586-.838 1.87-.46.286-1.36-1.747-2-4.517m705.413-2.799c-1.384-1.529-1.509-2.338-.62-4 2.027-3.787 12.045-2.66 12.045 1.354 0 1.243-6.097 4.563-8.379 4.563-.721 0-2.092-.863-3.046-1.917m-535.868.29c-.99-.988 2.188-6.373 3.76-6.373 2.337 0 2.805 1.937 1.096 4.544-1.555 2.373-3.558 3.128-4.856 1.83m-166.54-269.25c-1.065-.674-.998-.974.33-1.484 2.178-.835 238.828-.835 241.005 0 1.329.51 1.396.81.332 1.485-1.744 1.105-239.924 1.105-241.668 0"/><path fill="#9C0F2C" fill-rule="evenodd" d="M113.354 841.31c-1.18-.232-2.924-1.282-3.875-2.333-2.398-2.65-9.531-20.678-8.867-22.409.299-.777 1.295-1.786 2.215-2.24.92-.456 148.823-1.053 328.673-1.328l327-.5 7.231-3.864c3.978-2.125 7.922-3.6 8.765-3.276 2.834 1.088 3.654 5.862 3.326 19.357-.27 11.077-.611 13.506-2.108 15l-1.785 1.783-329.215.117c-181.068.064-330.18-.074-331.36-.306m656.733-131.397c-3.348-2.797-6.087-5.696-6.087-6.442s.96-2.983 2.132-4.97l2.133-3.615-.664-6.472c-.364-3.56-.931-7.815-1.26-9.456-.342-1.712-3.023-5.542-6.287-8.983-4.359-4.595-7.078-6.505-11.622-8.165l-5.932-2.167-18 .24c-10.546.14-20.061-.224-22.978-.878-6.01-1.347-11.283-5.156-12.997-9.387-.695-1.715-1.557-6.943-1.916-11.618-.862-11.226-2.036-17.669-6.329-34.717-2.912-11.568-3.346-14.498-2.33-15.724.688-.828 4.693-3.88 8.9-6.782l7.65-5.277h21.599c15.116 0 22.319.369 24 1.23 1.32.676 3.638 1.677 5.151 2.225 2.266.82 2.75 1.594 2.75 4.398 0 1.871.662 3.952 1.472 4.623 1.96 1.627 8.087 3.265 13.028 3.482 2.2.097 5.24.533 6.757.97 1.923.552 3.478.32 5.136-.766 2.588-1.696 3.607-1.294 3.607 1.421 0 .963 1.167 2.6 2.593 3.639 1.79 1.305 2.859 3.314 3.454 6.499.68 3.638.449 5.782-1.093 10.17L781 618.95v45.46c0 27.117-.394 46.495-.975 48.025-.537 1.41-1.622 2.565-2.413 2.565s-4.176-2.289-7.525-5.087m-669.713-9.569c-1.169-.248-3.194-1.588-4.5-2.977L93.5 694.84V586.114l3.409-3.519c4.316-4.455 8.811-6.595 13.853-6.595 2.574 0 5.248-.875 7.643-2.5 2.026-1.375 4.451-2.503 5.39-2.506.937-.004 2.515-1.429 3.504-3.167l1.8-3.16 4.375 4.916c2.407 2.704 4.654 5.975 4.995 7.267.34 1.293 1.437 3.543 2.437 5 1 1.458 3.644 5.82 5.877 9.692 2.233 3.874 7.624 11.074 11.98 16 13.575 15.353 28.234 26.82 44.12 34.515 10.18 4.93 25.11 9.943 29.618 9.943 1.253 0 3.296.825 4.54 1.833l2.264 1.832.736 9.418c.775 9.922 4.144 20.795 7.94 25.62 2.451 3.117 2.537 4.622.366 6.425-1.342 1.113-13.663 1.515-65.25 2.131-34.979.418-67.422.934-72.097 1.148s-9.457.185-10.626-.063M236.5 608.042c-16.051-4.238-25.815-9.713-37-20.747-10.086-9.95-13.155-14.04-11.658-15.537.808-.808 1.773-.386 3.584 1.568 2.541 2.742 5.94 3.508 7.118 1.603.397-.642 2.137-.82 4.353-.446 2.031.343 4.924.155 6.429-.417s6.884-1.095 11.955-1.162c7.144-.095 9.985-.56 12.623-2.07 2.796-1.6 3.885-1.75 6.088-.837 2.263.937 3.896.63 10.42-1.962 5.076-2.017 10.374-3.285 15.412-3.69 4.222-.34 8.19-1.023 8.82-1.516 1.266-.994 4.356 1.5 4.356 3.514 0 1.337-7.613 9.837-10.078 11.251-.868.498-2.443 2.56-3.5 4.582-3.632 6.946-13.714 23.326-15.741 25.574-1.116 1.237-2.964 2.225-4.105 2.195s-5.226-.887-9.076-1.903m541.59-76.102c.091-23.238.497-43.419.9-44.846l.735-2.594.608 4.5c.334 2.475.508 22.462.387 44.415-.174 31.523-.49 40.006-1.508 40.347-1.04.347-1.257-7.736-1.122-41.822m.55-51.438c-.904-2.353-.767-7.754.236-9.336.675-1.064.975-.997 1.485.332.903 2.353.766 7.754-.237 9.336-.675 1.064-.975.997-1.485-.332m.007-18.978c-.357-.933-.267-2.381.202-3.22l.853-1.523.65 1.695c.358.933.268 2.381-.201 3.22l-.853 1.523zm-.008-12.022c-.93-2.422-.754-13.772.237-15.336 1.323-2.086 2.126 1.027 2.109 8.166-.017 6.592-1.19 10.18-2.346 7.17"/><path fill="#13192E" fill-rule="evenodd" d="M0 512V0h1024v1024H0zm791.077 422.6c10.87-1.764 26.136-5.91 35.588-9.666 11.629-4.619 25.017-11.643 35.835-18.799 12.055-7.974 32.398-27.674 41.422-40.111 12.163-16.764 22.71-41.229 28.248-65.524l2.28-10 .328-273.5c.238-197.569.018-276.055-.79-282.703-1.368-11.235-5.743-28.248-10.101-39.276-4.269-10.803-13.681-27.67-20.658-37.021-8.816-11.816-28.31-30.552-39.729-38.183-5.5-3.676-16.417-9.813-24.26-13.639-15.266-7.446-29.622-11.996-46.24-14.654l-9.5-1.52-265.64-.013-265.64-.015-10.86 1.582c-42.73 6.224-80.77 27.249-108.173 59.788-8.754 10.394-13.757 17.879-19.5 29.174-6.87 13.511-11.663 26.65-14.4 39.48l-2.454 11.5-.936 53c-.515 29.15-.764 154.475-.553 278.5.29 170.257.68 227.317 1.595 232.918 1.73 10.59 7.398 29.469 12.26 40.833 5.913 13.82 14.696 27.614 25.248 39.656 8.438 9.628 24.38 23.64 35.015 30.776 20.67 13.868 44.825 23.288 70.038 27.311 6.331 1.01 63.804 1.3 275.5 1.388 224.21.092 268.888-.115 276.077-1.282"/></svg>