<svg xmlns="http://www.w3.org/2000/svg" width="1365.333" height="1365.333" preserveAspectRatio="xMidYMid meet" version="1.0" viewBox="0 0 1024 1024"><g fill="#000" stroke="none"><path d="M465 231.5c0 79.5-.3 144.5-.7 144.5-.5 0-3-3-5.7-6.6-22.4-30.2-54.9-49.4-96.6-57.1-8.6-1.5-21.4-1.7-139.1-2l-129.6-.4-.7 29.8c-1.1 44.1-.5 426.6.6 441.3 2.2 29.7 11.6 57 27.9 81.3l6.9 10.2 301.1.5 301.1.5 4.3 14c2.4 7.7 6.4 21.6 9 31 2.5 9.3 4.8 17.6 5.1 18.4.4 1.1 3.7 1.3 18.7.8 19-.6 31.7-2.2 31.7-4.1 0-.6-2.7-10.3-6.1-21.6-11.5-38.9-11-37.3-9.7-38.2.7-.4 8.1-.8 16.5-.8 13.5 0 16.1-.3 23.2-2.5 14.1-4.5 22.6-14.8 27-32.5 3.3-13.6 8.8-54.3 13.5-99.5 2.3-22 3.4-34.3 6.7-79.7 1-13.1.8-32.9-.3-43.8l-.3-2.5 33.5-.5 33.5-.5.3-13.2.3-13.2-9.8-.3-9.8-.3-.3-69.4c-.2-62.9-.4-69.6-1.9-71.3-1.5-1.6-3.4-1.8-21.7-1.6l-20.1.3 19.6.2c17.4.3 19.8.5 21.3 2.1 1.4 1.7 1.6 8.7 1.8 71.3l.3 69.4 9.8.3 9.7.3V611l-33.7.2-33.8.3.2 3c1.2 15 1.4 31.1.4 44.3-3.3 45.4-4.4 57.7-6.7 79.7-4.6 44.7-10.3 86.2-13.4 98.8-3.8 15.5-12.9 27.2-24.8 31.8-4.9 2-8.2 2.4-23.9 2.8-10 .3-18.4.9-18.8 1.3-.7.7.5 5.4 10 37.3 3.6 12.1 6.5 22.3 6.5 22.7 0 1.5-15.8 3.2-31.4 3.2l-16.9.1-3.9-14c-2.2-7.7-5.8-20.1-8-27.5-2.3-7.4-4.6-15.5-5.3-18l-1.2-4.5-301.2-.5-301.1-.5-7-10.4c-10.7-15.8-22.1-40.7-20.6-44.6.5-1.3 42.4-1.5 327.3-1.7 310.8-.3 327-.4 331.3-2.1 2.4-1 6.5-3 9-4.5 2.5-1.4 4.9-2.5 5.3-2.4.5.1.7-.3.5-.9-.2-.7.7-2.4 2-3.8 3.4-3.7 6.8-10.7 8.7-18.1 1.4-5.3 1.6-10.2 1.3-27.5-.4-18.9-.6-21.6-2.6-26.7-1.3-3.1-3.4-7.2-4.7-9.2s-2-3.8-1.5-4.1c.6-.4 1-19 1-47.6 0-44.9.1-47.2 2.1-53.2 1.1-3.4 3.4-8.4 5.1-11 2.9-4.6 3.1-5.4 3.2-15.7.1-5.9-.3-10.6-.7-10.3-.5.3-.7 4.9-.6 10.2.2 9.2.1 9.8-2.9 15.1-7.1 12.2-7.2 13-7.2 64.5 0 25.5-.4 46.6-.8 46.9-.5.3-2.4-1.1-4.3-3s-4.9-4.4-6.7-5.6l-3.2-2 1.9-2.6c9.4-13.3.8-34.4-16.8-41.4-5-1.9-8-2.2-28.1-2.7-23.8-.6-25.1-.9-28.9-5.7-2.3-2.9-2.4-3.3-4.7-22.4-.8-7.4-3.1-19.5-5-26.9-1.9-7.3-3.4-13.7-3.4-14.2 0-.4 2.8-2.3 6.2-4.1 8.1-4.3 21-16.6 26.9-25.5 9.9-15.2 14.4-33.9 12.2-50.6-1.6-11.3-5.5-22.8-10.6-30.7l-4.2-6.5-.2-24.5c-.3-43-1.4-47-12.4-47-6.1 0-10.3 3.1-26.5 19.1l-16.2 16.1-5.8-1.3c-7.5-1.6-23.7-1.6-33.3.1l-7.5 1.2-16.2-16.5c-9-9.1-17.7-17.3-19.4-18.2s-5.3-1.9-8.1-2.2c-4-.5-5.3-.2-7.1 1.3-4.9 4.4-5.2 6.7-5.8 42.4l-.5 33.5-10.9 16.8c-12.1 18.6-18.4 26.3-23.3 28.4-3.5 1.4-71.1 3.2-121.7 3.3-36.4 0-52.6 3-75.1 14-12.6 6-27.2 16.2-38.3 26.4-10.6 9.9-23 26.5-29.7 39.6l-2.6 5.2-4.7-.7c-7.8-1.1-21.6-6.1-29.3-10.7-7.9-4.6-21.6-17.4-26.6-24.8-16.3-24-19.6-52.4-9-76.9 5.3-12.1 10.6-19.4 22.7-31.1 9.8-9.5 11-11 12.5-16.2 4.5-15.6-6.6-29-22.9-27.6-8.5.7-15.7 4.7-24.9 14-23.2 23.3-36.8 55-38.4 89.4-1.2 26.6 6.3 52.5 21.9 75 6.3 9.2 25.2 27.6 34.8 33.9 14.3 9.3 31.9 16.7 47.2 19.8l6.3 1.3.7 7.9c1.4 15.6 7.5 29.3 15.6 35l4.4 3 103.1.5c56.8.3 104.4.2 105.9-.2 1.5-.3 37.2-.4 79.3-.1l76.5.6 10.5 8.9c16.3 13.6 20.5 16.4 26.2 17.8 5.7 1.3 13.3.3 18.7-2.5 3.5-1.8 4.2-1.4 2.6 1.5-2.3 4.3-8.5 10.2-13.4 12.8-4.2 2.2-6.4 2.6-12.3 2.6-10.4-.1-17.8-4.3-35.3-19.8-8.6-7.6-27.9-21-28.9-20-.3.4-.1.9.5 1.1 2.8 1 21.6 14.7 27.9 20.3 16.8 15 24.8 19.3 35.9 19.4 9 .1 16-2.9 21.3-8.9 5.8-6.5 10.9-13.2 8.7-11.2-3.5 3-3.4.7.1-3.9 1.9-2.5 3.9-6.4 4.5-8.7s1.5-5.3 1.8-6.7l.8-2.5 27.9.1c22.9.1 29.2.5 34.4 1.8 11.5 3.1 20.7 11.5 26.9 24.4l3.7 7.7.3 21c.3 16.8 0 22.3-1.2 27.1-3.3 12.8-10.3 21.7-21.4 27.1l-7.6 3.8-327.5.5c-193.3.3-327.9.1-328.3-.4-1.4-2-4.9-21.8-5.7-32.6-1-13.9-1.5-400.6-.5-441.3l.7-28.8 129.1.4c142.5.3 135 0 158.6 6.8 29 8.3 58.5 28.7 76 52.7 4.2 5.7 5.6 7 6.6 6.1 1.2-1 1.4-25 1.4-145V88h30l.2 110.7.3 110.8 20.9.3c14.5.2 21.3-.1 22.2-.9 1.2-1 1.4-15.6 1.4-88.9v-87.9l2.6-2c2.5-2 4-2.1 21.1-2.1 14.3 0 19.2.3 22.1 1.5 3.6 1.5 3.6 1.5 1.9-.2-1.6-1.6-3.9-1.8-23.1-1.8-19.6 0-21.6.2-23.5 1.9l-2.1 1.9V308l-2.2.5c-1.3.3-10.8.4-21.3.3l-19-.3-.3-110.8L497 87h-32zm103.7 168.4c2.7 1.3 9.7 7.6 20.6 18.7l16.4 16.7 8.4-1.3c10.9-1.8 24.6-1.8 33.2-.1l6.9 1.4 16.1-16.1C687 402.8 690.7 400 696 400c9.9 0 11 4.2 11.3 46.5l.2 25 3.6 5.5c16.1 24.6 15.6 54.8-1.2 80.7-5.4 8.2-18.9 21-26.7 25.1-3.4 1.8-6.2 3.9-6.2 4.6 0 .8 1.5 7.4 3.4 14.7 1.9 7.4 4.2 19.7 5.1 27.4 2.3 20.2 3.5 23.7 9 26.8 1.3.8 10.3 1.4 25 1.7 22.2.5 23.2.6 28.6 3.1 17.4 8.1 25.1 27.5 15.6 39.2l-2.2 2.9-6.5-1.7c-5.4-1.5-11.5-1.8-35-1.9l-28.5-.1-.8 4c-2.8 13.2-10.4 21-22.3 22.9-8.6 1.5-13.8-1.3-32.9-17.5-5-4.1-9.9-8-11-8.6-2.2-1.1-80.9-1.6-260-1.5-101.3.1-103.1 0-107.2-1.9-5.1-2.4-8.4-6.2-12.3-13.8-3.6-7.3-5-12.5-5.8-22.4l-.7-8.1-6.5-1.2c-14.2-2.6-32.1-10.2-47-19.9-9.6-6.3-28.5-24.7-34.8-33.9-15.9-23-23.1-47.4-21.9-74 1.6-33.8 15.1-65 38.4-88.4 12.7-12.8 23.8-16.9 34.1-12.7 10.8 4.6 15.8 17.8 10.5 28-1.2 2.2-6.4 7.9-11.5 12.7-20 18.3-29.8 41-28.4 65.8 1.5 28 17.4 54.4 41.3 68.7 7.5 4.4 22.7 9.8 31.1 10.9l5 .6 2.7-5.2c14.1-27.8 39.3-52.1 69-66.6 22.2-10.8 36.4-13.4 73.6-13.4 41.9-.1 116.8-1.9 120.9-3 5.4-1.5 11.5-8.6 24.5-28.6l11-16.9.5-34c.5-35.7.6-36.1 5.3-41.3 2.5-2.7 6.7-2.8 12.4-.3"/><path d="M595.2 506.2c-1.8 1.8-1.5 5.3.7 7.2 7.6 6.9 32.6 4.8 34.5-2.9 1.4-5.4-3.6-7.2-9.6-3.5-2.3 1.4-5.1 2-8.8 2s-6.5-.6-8.8-2c-3.7-2.3-6.3-2.5-8-.8m7.3 1.8c2.5 1.3 5.9 2 9.5 2s7-.7 9.5-2c4.6-2.4 5.9-2.5 7.4-.6 1.7 2.1.3 4.5-4.3 6.8-5.7 3-18.4 3.2-24 .3-5-2.5-6.5-4.8-4.7-6.9 1.7-2 1.9-2 6.6.4m64.5 1.5c-2.2 2.6-.2 7.3 3.9 9.4 14.2 7.3 34.8 1.5 30.3-8.4-1.4-3.1-5.2-3.3-7.8-.4-4.1 4.5-11.5 4.7-18 .3-4-2.7-6.6-3-8.4-.9m6.9 1.6c6 4.4 16.2 4.6 20.2.3 2.8-2.9 4.5-3 5.9-.3 1.5 2.8-1 6.6-5.7 8.5-11 4.6-31.7-2.6-26.3-9.1 1.6-2 2.6-1.9 5.9.6M686 213.5V310l26.8-.2 26.7-.3.3-93.9c.2-82.9 0-94.2-1.3-96.3L737 117h-51zm51.5-93.2c1.3 2.1 1.5 13.3 1.3 95.3l-.3 92.9-25.7.3-25.8.2V118h49zm-123.7 8.4-22.8.3v181l21.8-.2 21.7-.3.5-90 .5-90h24.7c13.5 0 24.4-.3 24.1-.8-.4-.7-15.2-.7-70.5 0m20 90.5-.3 89.3-20.7.3-20.8.2V130h42z"/><path d="m801.9 140.9-2.4 1.9-.3 59.1c-.1 32.5-.6 59.1-1 59.1-.9 0-7.6-29-12.3-53-4.1-20.9-7.9-35.2-9.7-36.8-2.3-1.8-9.5-1.5-20.8.8-13.2 2.7-14.7 3-14.2 3.5.2.3 5.7-.7 12.1-2 13-2.8 19.5-3.1 21.9-1.3 2.5 2 5.6 14.2 10.8 42.3 1.2 6 2.9 14.6 4 19 1 4.4 2.9 12.6 4.2 18.2 1.5 6.7 2.9 10.5 4 11.2 1.7 1.1 1.8-1.9 1.8-58.4v-59.6l2.5-2.4c2.4-2.5 2.6-2.5 20.3-2.5 13.7 0 18.6.3 20.8 1.4 1.9 1 3.3 1.2 4.5.5 1-.5 10.8-.9 21.8-.9 19.5 0 20 .1 21.5 2.2 1.4 2 1.6 11.6 1.6 84V309h-47l-.3-82.8-.2-82.7-.3 83.3-.2 83.3 24.3-.1c13.3 0 33.8-.1 45.5 0H936v28l-219.7.2-219.8.3v181l.5-90 .5-90 219.8-.3L937 339v-30l-21.2-.2-21.3-.3-.5-82.6c-.4-69.9-.7-82.9-1.9-84.3-1.3-1.6-3.7-1.7-24.8-1.5-12.8.2-23.6 0-23.9-.4-.4-.4-9.4-.7-20-.7-17.4 0-19.4.2-21.5 1.9"/><path d="M742.1 185.7c.5 3.2 1.8 10.1 3 15.3 1.1 5.2 2.4 11.1 2.9 13 3.1 14.1 5.2 22.9 5.9 25.5.5 1.6 1.4 5.7 2.1 9s2 9.4 3 13.5c6.4 26.5 8.7 37.1 9.6 42.7l.6 4.2-14.3.4-14.4.3 14.9.2 14.9.2-.7-4.8c-.8-5.8-3.5-18.3-9.6-43.7-1.1-5-2.5-10.8-3-13s-1.8-7.8-2.9-12.5-2.7-11.7-3.6-15.5c-.9-3.9-2.2-9.7-3-13-3.1-13.3-4.5-20.6-4.5-23.9 0-2-.4-3.6-.8-3.6-.5 0-.5 2.6-.1 5.7m45.8 224.7c-.3.4-2.5 1-4.8 1.4l-4.2.7.1 80.7c0 44.5-.1 80.9-.2 81-.2.1-18.5.5-40.8.8l-40.5.5 40.2.3c28.5.1 40.4-.1 40.9-.9s.8-.8 1.3 0c.7 1.1 33.8 1.8 34.9.7.3-.3-7.2-.6-16.6-.6s-17.3-.4-17.6-.9c-.3-.4-.6-36.8-.6-80.7l-.1-79.8 5.6-1.3c4.1-.9 7.4-1 12.3-.3 3.7.5 11.1 1 16.5 1 15.4 0 13.7-10.1 13.7 83.9v79.9l4.8 1.1c2.6.7 7.4 2.6 10.7 4.4 5.7 3 6.5 3.2 17.5 3.2h11.5l.3-71.9c.1-49.5-.1-72.3-.8-73s-9.3-1.3-21.8-1.6l-20.7-.5-.5-11.7c-.3-7.5-1-12.2-1.8-13s-6-1.5-14.5-1.9c-7.2-.4-15.7-1-18.7-1.4s-5.8-.4-6.1-.1m82.4 30.8c1.6 1.2 1.7 6.4 1.5 72.3l-.3 71h-10.6c-9.6 0-11-.3-15.5-2.7-2.7-1.4-7.5-3.4-10.6-4.3l-5.8-1.6v-67.3c0-37 .3-67.6.7-67.9 1.3-1.3 38.8-.8 40.6.5M134.8 698.7c22.2.2 58.2.2 80 0 21.8-.1 3.7-.2-40.3-.2s-61.9.1-39.7.2m599 175.5c-.3.7.2 3.4 1 6 1.5 4.4 1.7 4.7 4.9 4.5 2.1-.2 3.9-1.1 4.9-2.5 1.1-1.6 2.1-2.1 4-1.6 2 .5 2.4.3 2.4-1.7 0-4-1.2-4.6-9.1-5.3-6-.6-7.8-.5-8.1.6m15 1.3c.6.3 1.2 1.3 1.2 2.4q0 2.1-1.5 1.5c-.8-.4-2.3-.3-3.2.1-1 .5-2.6.7-3.5.6s-2.2.8-2.9 2c-1.1 2.2-1.2 2.2-2.5-1.1-.8-1.8-1.4-4.1-1.4-5.2 0-1.7.5-1.8 6.3-1.3 3.4.4 6.8.8 7.5 1m-5.8 6.3c0 1.3-1.2 2.2-2.2 1.6s-.1-2.4 1.3-2.4c.5 0 .9.4.9.8m15.6-6.2c-1.3 3.3-.6 4.4 2.7 4.4 3.7-.1 6.7-2 6.7-4.4 0-2.3-8.5-2.3-9.4 0m8.4.5c0 .6-.7.9-1.5.5-.8-.3-1.4 0-1.2.7.1.7-1 1.3-2.5 1.5-2.7.3-3.8-1.4-2.1-3.1 1.1-1.1 7.3-.8 7.3.4"/></g></svg>