<svg version="1.1" xmlns="http://www.w3.org/2000/svg" style="display: block;" viewBox="0 0 2048 2048" width="1024" height="1024">
<defs>
	<linearGradient id="Gradient1" gradientUnits="userSpaceOnUse" x1="880.318" y1="1375.59" x2="939.507" y2="1205.08">
		<stop class="stop0" offset="0" stop-opacity="1" stop-color="rgb(255,99,4)"/>
		<stop class="stop1" offset="1" stop-opacity="1" stop-color="rgb(255,130,2)"/>
	</linearGradient>
	<linearGradient id="Gradient2" gradientUnits="userSpaceOnUse" x1="1425.5" y1="1357.23" x2="1550.54" y2="1138.99">
		<stop class="stop0" offset="0" stop-opacity="1" stop-color="rgb(142,7,39)"/>
		<stop class="stop1" offset="1" stop-opacity="1" stop-color="rgb(186,23,41)"/>
	</linearGradient>
	<linearGradient id="Gradient3" gradientUnits="userSpaceOnUse" x1="1341.75" y1="1067.82" x2="610.388" y2="1549.66">
		<stop class="stop0" offset="0" stop-opacity="1" stop-color="rgb(255,138,2)"/>
		<stop class="stop1" offset="1" stop-opacity="1" stop-color="rgb(255,182,2)"/>
	</linearGradient>
	<linearGradient id="Gradient4" gradientUnits="userSpaceOnUse" x1="359.68" y1="1292.99" x2="404.054" y2="844.39">
		<stop class="stop0" offset="0" stop-opacity="1" stop-color="rgb(255,134,0)"/>
		<stop class="stop1" offset="1" stop-opacity="1" stop-color="rgb(255,182,4)"/>
	</linearGradient>
	<linearGradient id="Gradient5" gradientUnits="userSpaceOnUse" x1="545.846" y1="1399.42" x2="554.762" y2="679.313">
		<stop class="stop0" offset="0" stop-opacity="1" stop-color="rgb(141,6,40)"/>
		<stop class="stop1" offset="1" stop-opacity="1" stop-color="rgb(236,44,43)"/>
	</linearGradient>
	<linearGradient id="Gradient6" gradientUnits="userSpaceOnUse" x1="986.358" y1="1050.57" x2="1456.28" y2="345.567">
		<stop class="stop0" offset="0" stop-opacity="1" stop-color="rgb(0,99,110)"/>
		<stop class="stop1" offset="1" stop-opacity="1" stop-color="rgb(0,128,131)"/>
	</linearGradient>
	<linearGradient id="Gradient7" gradientUnits="userSpaceOnUse" x1="1359.42" y1="910.279" x2="1405.03" y2="804.741">
		<stop class="stop0" offset="0" stop-opacity="1" stop-color="rgb(255,113,0)"/>
		<stop class="stop1" offset="1" stop-opacity="1" stop-color="rgb(255,165,3)"/>
	</linearGradient>
	<linearGradient id="Gradient8" gradientUnits="userSpaceOnUse" x1="989.5" y1="1762.35" x2="972.485" y2="1174.13">
		<stop class="stop0" offset="0" stop-opacity="1" stop-color="rgb(194,25,40)"/>
		<stop class="stop1" offset="1" stop-opacity="1" stop-color="rgb(243,55,49)"/>
	</linearGradient>
</defs>
<path transform="translate(0,0)" fill="rgb(20,27,47)" d="M 0 0 L 2048 0 L 2048 2048 L 0 2048 L 0 0 z"/>
<path transform="translate(0,0)" fill="url(#Gradient8)" d="M 187.106 622.104 C 187.082 572.597 183.597 509.371 191.664 461.707 C 207.48 368.25 252.962 295.273 330.387 240.487 C 371.269 211.773 417.713 191.945 466.727 182.28 C 523.218 171.587 582.504 175.614 639.789 175.627 L 878.862 175.696 C 905.192 175.731 931.46 174.896 957.78 174.722 C 969.349 174.646 982.539 173.48 993.943 175.443 C 1118.97 176.816 1244.12 175.848 1369.16 175.803 L 1477.16 175.756 C 1504.87 175.743 1533.49 174.275 1561.08 176.526 C 1579.05 177.993 1597.46 181.674 1614.98 185.917 C 1672.8 199.915 1732.86 232.861 1774.29 275.757 C 1776.08 277.606 1777.71 280.157 1779.75 281.63 C 1783.32 284.594 1786.09 287.433 1788.45 291.453 C 1797.36 298.834 1805.09 309.807 1811.83 319.195 C 1846.26 367.585 1867.34 424.196 1872.93 483.324 C 1874.76 503.28 1874.05 523.646 1874.04 543.67 C 1874.04 569.459 1874.33 595.293 1873.98 621.077 C 1873.73 640.053 1873.73 659.031 1873.98 678.006 L 1874.11 1171.9 C 1874.1 1189.04 1873.89 1206.21 1874.09 1223.36 L 1874.09 1427.7 L 1874.07 1503.55 C 1874.08 1523 1874.55 1542.55 1872.86 1561.95 C 1866.06 1641.63 1831.78 1716.48 1775.9 1773.69 C 1738.26 1811.01 1692.72 1839.39 1642.63 1856.74 C 1628.43 1861.63 1613.3 1864.03 1599.3 1868.99 C 1565.55 1876.05 1533.24 1876.06 1499.04 1875.94 C 1419.49 1874.67 1339.7 1875.9 1260.14 1875.91 L 790.642 1875.92 L 602.069 1875.94 C 565.911 1875.96 527.946 1878.4 492.105 1874 C 445.635 1868.41 400.722 1853.72 359.931 1830.77 C 328.263 1812.92 299.288 1789.24 274.361 1762.85 C 270.484 1758.75 264.084 1753.15 262.575 1747.73 C 265.558 1747.18 268.553 1746.7 271.558 1746.28 C 268.693 1746.3 262.544 1746.94 260.112 1745.54 C 250.405 1739.94 225.076 1692.94 219.336 1681.02 C 211.269 1665.06 205.544 1647.87 200.334 1630.82 C 186.81 1583.47 187.147 1540.66 187.127 1492.03 L 187.204 1397.44 L 187.295 668.406 C 186.712 654.635 187.231 640.631 187.226 626.833 L 187.106 622.104 z"/>
<path transform="translate(0,0)" fill="rgb(3,41,75)" d="M 993.943 175.443 C 1118.97 176.816 1244.12 175.848 1369.16 175.803 L 1477.16 175.756 C 1504.87 175.743 1533.49 174.275 1561.08 176.526 C 1579.05 177.993 1597.46 181.674 1614.98 185.917 C 1672.8 199.915 1732.86 232.861 1774.29 275.757 C 1776.08 277.606 1777.71 280.157 1779.75 281.63 C 1783.32 284.594 1786.09 287.433 1788.45 291.453 C 1797.36 298.834 1805.09 309.807 1811.83 319.195 C 1846.26 367.585 1867.34 424.196 1872.93 483.324 C 1874.76 503.28 1874.05 523.646 1874.04 543.67 C 1874.04 569.459 1874.33 595.293 1873.98 621.077 C 1873.73 640.053 1873.73 659.031 1873.98 678.006 L 1874.11 1171.9 C 1861.08 1172.03 1846.89 1173.15 1834 1171.45 C 1822.23 1169.77 1808.75 1170.93 1796.8 1170.96 C 1780.13 1171 1762.71 1170.12 1746.12 1171.7 C 1732.48 1169.02 1713.77 1171.23 1699.45 1170.78 C 1687.88 1161.45 1672.28 1156.72 1657.92 1154.07 C 1656.12 1153.73 1654.34 1153.48 1652.53 1153.23 C 1630.57 1152.25 1608.87 1151.69 1586.88 1152.12 L 1558.88 1151.89 C 1544.43 1150.97 1529.49 1151.61 1515.01 1151.62 L 1432.41 1151.7 C 1421.7 1151.71 1401.46 1153.62 1392.2 1150.76 C 1380.31 1160.56 1368.3 1168.82 1354.06 1174.82 C 1317.38 1187.63 1283.16 1193.59 1244.19 1188.4 C 1192.45 1181.3 1145.63 1153.97 1114 1112.41 C 1089.36 1079.9 1076.08 1038.09 1083.98 997.581 C 1086.2 986.196 1091.94 975.105 1093.39 963.77 C 1093.43 963.499 1093.45 963.227 1093.48 962.955 L 1092.77 963.836 C 1075.66 985.362 1053.14 1039.55 1024.16 1043.49 C 1014.23 1044.83 1004.06 1043.87 994.078 1044.24 C 986.732 1044.62 979.362 1044.9 972.035 1045.55 L 972.088 945.833 C 972.089 869.159 971.965 828.859 930.971 759.398 C 934.144 743.219 932.082 721.776 932.068 704.91 L 932 594.673 L 932.003 175.699 C 952.486 175.889 973.529 176.91 993.943 175.443 z"/>
<path transform="translate(0,0)" fill="rgb(3,41,75)" d="M 1873.98 678.006 L 1874.11 1171.9 C 1861.08 1172.03 1846.89 1173.15 1834 1171.45 C 1822.23 1169.77 1808.75 1170.93 1796.8 1170.96 C 1780.13 1171 1762.71 1170.12 1746.12 1171.7 C 1732.48 1169.02 1713.77 1171.23 1699.45 1170.78 C 1687.88 1161.45 1672.28 1156.72 1657.92 1154.07 C 1656.12 1153.73 1654.34 1153.48 1652.53 1153.23 C 1630.57 1152.25 1608.87 1151.69 1586.88 1152.12 L 1558.88 1151.89 C 1544.43 1150.97 1529.49 1151.61 1515.01 1151.62 L 1432.41 1151.7 C 1421.7 1151.71 1401.46 1153.62 1392.2 1150.76 C 1380.31 1160.56 1368.3 1168.82 1354.06 1174.82 C 1317.38 1187.63 1283.16 1193.59 1244.19 1188.4 C 1192.45 1181.3 1145.63 1153.97 1114 1112.41 C 1089.36 1079.9 1076.08 1038.09 1083.98 997.581 C 1086.2 986.196 1091.94 975.105 1093.39 963.77 C 1093.43 963.499 1093.45 963.227 1093.48 962.955 L 1092.77 963.836 C 1075.66 985.362 1053.14 1039.55 1024.16 1043.49 C 1014.23 1044.83 1004.06 1043.87 994.078 1044.24 C 992.844 1002.36 993.894 960.167 993.889 918.244 L 993.885 678.041 L 1873.98 678.006 z"/>
<path transform="translate(0,0)" fill="rgb(254,181,2)" d="M 1100.8 950.55 C 1101.11 928.693 1102.05 906.889 1101.98 885.016 C 1101.93 864.614 1099.91 842.195 1102.96 822.081 C 1104.09 814.66 1106.06 806.303 1111.54 800.821 C 1114.95 797.405 1119.48 795.914 1124.25 796.01 C 1130.59 796.137 1137.54 797.93 1143.02 801.14 C 1155.18 808.259 1165.76 821.578 1175.4 831.687 C 1188.23 845.143 1200.96 858.677 1214.22 871.717 C 1237.15 865.184 1261.14 863.198 1284.83 865.872 C 1291.82 866.711 1298.58 869.159 1305.6 869.73 C 1309.57 870.054 1311.64 867.344 1314.58 865.023 C 1313.95 866.935 1313.31 868.837 1312.62 870.726 C 1315.69 875.785 1338.18 881.221 1344.58 883.942 C 1350.45 886.437 1356.23 889.621 1361.73 892.834 C 1381.13 904.164 1401.39 920.396 1414.13 939.104 C 1414.38 934.566 1414.25 930.167 1416.75 926.183 L 1417.15 941.882 C 1441.69 980.066 1454.55 1018.83 1444.76 1064.47 C 1437.35 1099.01 1418.39 1127.54 1392.2 1150.76 C 1380.31 1160.56 1368.3 1168.82 1354.06 1174.82 C 1317.38 1187.63 1283.16 1193.59 1244.19 1188.4 C 1192.45 1181.3 1145.63 1153.97 1114 1112.41 C 1089.36 1079.9 1076.08 1038.09 1083.98 997.581 C 1086.2 986.196 1091.94 975.105 1093.39 963.77 C 1093.43 963.499 1093.45 963.227 1093.48 962.955 C 1095.12 958.785 1098.46 954.435 1100.8 950.55 z"/>
<path transform="translate(0,0)" fill="rgb(233,99,0)" d="M 1293.94 1080.79 C 1293.55 1080.68 1293.16 1080.57 1292.77 1080.46 C 1287.64 1078.94 1282.46 1076.67 1279.49 1071.99 C 1279.55 1069.33 1279.58 1068.81 1281.67 1066.87 C 1288.18 1060.84 1311.34 1061.07 1320.02 1062.39 C 1323.43 1062.91 1327.31 1064.78 1329.03 1067.98 C 1330.4 1070.5 1330.05 1071.06 1329.08 1073.51 C 1326.3 1075.91 1314.98 1079.35 1314.75 1079.65 C 1314.67 1079.75 1314.36 1081.66 1314.34 1082 C 1313.96 1086.52 1314.85 1092.08 1315.47 1096.6 C 1322.95 1097.27 1330.17 1097.62 1337.68 1097.37 C 1341.7 1094.56 1345.41 1091.21 1350.68 1092.16 C 1353.14 1092.6 1355.28 1093.94 1356.41 1096.21 C 1357.61 1098.6 1357.37 1101.48 1356.32 1103.87 C 1354.16 1108.76 1349.11 1111.89 1344.27 1113.62 C 1332.48 1117.83 1319.53 1114.16 1307.4 1114.49 C 1293.85 1114.85 1280.17 1119.15 1266.4 1119.95 C 1262.62 1120.35 1258.72 1121.24 1254.92 1121.2 C 1250.85 1121.15 1246.64 1119.86 1243.83 1116.81 C 1239.78 1112.39 1240.3 1106.44 1241.03 1101 C 1242.53 1098.08 1244.11 1094.34 1247.25 1092.82 C 1249.53 1091.72 1251.56 1092.34 1253.64 1093.47 C 1256.73 1095.15 1259.34 1097.73 1262.53 1099.28 C 1270.36 1103.08 1285.49 1099.5 1293.88 1098.46 L 1293.94 1080.79 z"/>
<path transform="translate(0,0)" fill="rgb(255,158,1)" d="M 1266.4 1119.95 C 1262.62 1120.35 1258.72 1121.24 1254.92 1121.2 C 1250.85 1121.15 1246.64 1119.86 1243.83 1116.81 C 1239.78 1112.39 1240.3 1106.44 1241.03 1101 C 1243.44 1108.38 1248.71 1113.6 1255.58 1117.02 C 1259.01 1118.73 1262.65 1119.36 1266.4 1119.95 z"/>
<path transform="translate(0,0)" fill="rgb(3,41,75)" d="M 1340.28 1017.52 C 1347.64 1018.81 1354.56 1026.01 1362.26 1028.27 C 1380.63 1033.66 1379.42 1025.82 1392.04 1019.76 C 1395.2 1018.24 1397.65 1018.08 1400.9 1019.3 C 1401.82 1020.45 1402.54 1021.44 1402.88 1022.91 C 1404.04 1027.94 1402.68 1031.32 1400.12 1035.6 C 1393.74 1040.79 1386.57 1043.58 1378.41 1044.49 C 1366.2 1045.86 1348.14 1043.07 1338.43 1035.04 C 1335.92 1032.97 1334.01 1030.29 1334.08 1026.89 C 1334.19 1022.44 1337.19 1020.15 1340.28 1017.52 z"/>
<path transform="translate(0,0)" fill="rgb(3,41,75)" d="M 1196.2 1010.44 C 1201.69 1011.73 1206.25 1016.21 1211.4 1018.49 C 1225.82 1024.87 1237.35 1016.97 1250.36 1012.81 C 1253.55 1011.79 1255.95 1011.75 1258.97 1013.31 C 1260.59 1015.17 1261.2 1016.49 1261.34 1018.92 C 1261.56 1022.71 1259.94 1024.53 1257.52 1027.05 C 1248.88 1032.14 1240.15 1034.8 1230.15 1035.54 C 1220.05 1036.29 1200.01 1034.47 1192.68 1026.81 C 1190.85 1024.89 1189.79 1022.98 1190.06 1020.25 C 1190.5 1015.87 1193.1 1013.24 1196.2 1010.44 z"/>
<path transform="translate(0,0)" fill="rgb(254,71,95)" d="M 1558.88 1151.89 L 1558.85 917.992 C 1558.85 903.217 1561.12 839.298 1557.99 830.398 C 1557.51 829.023 1557.26 827.74 1557.03 826.302 C 1563.26 824.661 1568.91 828.248 1574.45 824.747 L 1574.28 825.121 C 1575.38 824.285 1576.57 823.258 1577.89 822.761 C 1582.85 820.889 1587.97 822.22 1592.71 823.903 C 1607.52 829.171 1644.7 821.535 1653.78 829.266 C 1661.11 835.512 1658.1 870.542 1658.02 879.982 C 1657.99 971.307 1659 1062.76 1657.92 1154.07 C 1656.12 1153.73 1654.34 1153.48 1652.53 1153.23 C 1630.57 1152.25 1608.87 1151.69 1586.88 1152.12 L 1558.88 1151.89 z"/>
<path transform="translate(0,0)" fill="rgb(254,181,2)" d="M 1658.02 879.982 C 1670.62 879.974 1737.71 877.589 1743.91 882.945 C 1745.82 884.597 1746.15 887.2 1746.32 889.557 C 1744.61 935.742 1745.99 982.485 1746 1028.73 C 1746 1076.26 1744.69 1124.2 1746.12 1171.7 C 1732.48 1169.02 1713.77 1171.23 1699.45 1170.78 C 1687.88 1161.45 1672.28 1156.72 1657.92 1154.07 C 1659 1062.76 1657.99 971.307 1658.02 879.982 z"/>
<path transform="translate(0,0)" fill="rgb(1,92,130)" d="M 1746.32 889.557 C 1748.47 888.329 1750.75 887.031 1753.18 886.502 C 1763.22 884.318 1816.38 884.341 1826.14 886.846 C 1828.37 887.418 1829.8 888.187 1831.57 889.622 C 1833.22 894.101 1833.74 898.613 1834.04 903.347 C 1836.04 934.61 1834.33 966.995 1834.29 998.351 L 1834 1171.45 C 1822.23 1169.77 1808.75 1170.93 1796.8 1170.96 C 1780.13 1171 1762.71 1170.12 1746.12 1171.7 C 1744.69 1124.2 1746 1076.26 1746 1028.73 C 1745.99 982.485 1744.61 935.742 1746.32 889.557 z"/>
<path transform="translate(0,0)" fill="url(#Gradient7)" d="M 1314.58 865.023 C 1323.38 855.227 1333.24 846.3 1342.51 836.941 C 1352.39 826.969 1361.56 815.285 1373.12 807.256 C 1378.67 803.401 1385.19 800.24 1392.02 799.749 C 1397.34 799.367 1402.56 800.917 1406.45 804.666 C 1422.42 820.059 1416.49 901.228 1416.75 926.183 C 1414.25 930.167 1414.38 934.566 1414.13 939.104 C 1401.39 920.396 1381.13 904.164 1361.73 892.834 C 1356.23 889.621 1350.45 886.437 1344.58 883.942 C 1338.18 881.221 1315.69 875.785 1312.62 870.726 C 1313.31 868.837 1313.95 866.935 1314.58 865.023 z"/>
<path transform="translate(0,0)" fill="url(#Gradient6)" d="M 932.003 175.699 C 952.486 175.889 973.529 176.91 993.943 175.443 L 994.003 621.01 C 1012.71 620.915 1031.42 620.929 1050.13 621.05 C 1060.09 621.092 1071.31 622.063 1081.09 620.482 C 1113.83 618.14 1150.93 620.03 1183.98 620.085 L 1240.81 619.969 C 1250.13 619.958 1260.99 618.926 1270.09 620.659 C 1281.02 622.544 1295.64 620.702 1306.9 620.665 C 1328.74 620.593 1351.28 622.079 1373.01 620.13 C 1373.11 600.172 1370.69 564.826 1373.74 546.7 C 1373.84 557.613 1372.06 614.009 1374.95 619.598 L 1376.97 620.037 C 1411 621.268 1445.22 619.022 1479.24 620.456 C 1499.85 622.024 1521.23 620.925 1541.95 620.881 C 1553.6 620.896 1590.49 618.92 1600.06 621.756 C 1630.48 623.414 1661.59 621.409 1692.05 621.063 C 1723.54 618.6 1756.57 619.779 1788.18 620.676 C 1816.76 621.593 1845.39 620.471 1873.98 621.077 C 1873.73 640.053 1873.73 659.031 1873.98 678.006 L 993.885 678.041 L 993.889 918.244 C 993.894 960.167 992.844 1002.36 994.078 1044.24 C 986.732 1044.62 979.362 1044.9 972.035 1045.55 L 972.088 945.833 C 972.089 869.159 971.965 828.859 930.971 759.398 C 934.144 743.219 932.082 721.776 932.068 704.91 L 932 594.673 L 932.003 175.699 z"/>
<path transform="translate(0,0)" fill="rgb(1,92,130)" d="M 1269.99 259.441 C 1285.66 257.09 1301.75 257.831 1317.56 257.866 C 1333.94 257.901 1350.38 257.691 1366.75 258.058 L 1373.64 264.732 L 1373.84 444.379 C 1373.84 478.286 1375.25 512.873 1373.74 546.7 C 1370.69 564.826 1373.11 600.172 1373.01 620.13 C 1351.28 622.079 1328.74 620.593 1306.9 620.665 C 1295.64 620.702 1281.02 622.544 1270.09 620.659 C 1260.99 618.926 1250.13 619.958 1240.81 619.969 L 1183.98 620.085 L 1184.02 389.217 C 1184.03 347.226 1184.85 305.055 1183.76 263.083 L 1184.18 261.564 C 1188.15 258.208 1258.22 260.436 1269.99 259.441 z"/>
<path transform="translate(0,0)" fill="rgb(254,181,2)" d="M 1183.76 263.083 L 1184.18 261.564 C 1188.15 258.208 1258.22 260.436 1269.99 259.441 C 1269.98 379.806 1268.71 500.311 1270.09 620.659 C 1260.99 618.926 1250.13 619.958 1240.81 619.969 L 1183.98 620.085 L 1184.02 389.217 C 1184.03 347.226 1184.85 305.055 1183.76 263.083 z"/>
<path transform="translate(0,0)" fill="rgb(7,164,176)" d="M 1693.08 285.41 C 1706.47 278.551 1761.13 282.187 1779.75 281.63 C 1783.32 284.594 1786.09 287.433 1788.45 291.453 C 1797.36 298.834 1805.09 309.807 1811.83 319.195 C 1846.26 367.585 1867.34 424.196 1872.93 483.324 C 1874.76 503.28 1874.05 523.646 1874.04 543.67 C 1874.04 569.459 1874.33 595.293 1873.98 621.077 C 1845.39 620.471 1816.76 621.593 1788.18 620.676 C 1756.57 619.779 1723.54 618.6 1692.05 621.063 L 1692.03 399.642 L 1691.95 331.2 C 1691.95 316.05 1691.32 300.468 1693.08 285.41 z"/>
<path transform="translate(0,0)" fill="rgb(3,41,75)" d="M 1788.45 291.453 C 1797.36 298.834 1805.09 309.807 1811.83 319.195 C 1846.26 367.585 1867.34 424.196 1872.93 483.324 C 1874.76 503.28 1874.05 523.646 1874.04 543.67 C 1874.04 569.459 1874.33 595.293 1873.98 621.077 C 1845.39 620.471 1816.76 621.593 1788.18 620.676 C 1787.96 510.994 1786.97 401.118 1788.45 291.453 z"/>
<path transform="translate(0,0)" fill="rgb(156,197,39)" d="M 1373.74 235.84 C 1403.68 235.761 1434.25 234.391 1464.11 235.802 C 1470.02 236.081 1473.75 236.28 1477.89 240.842 C 1481.95 253.698 1479.54 336.253 1479.53 355.406 L 1479.24 620.456 C 1445.22 619.022 1411 621.268 1376.97 620.037 L 1374.95 619.598 C 1372.06 614.009 1373.84 557.613 1373.74 546.7 C 1375.25 512.873 1373.84 478.286 1373.84 444.379 L 1373.64 264.732 L 1373.74 235.84 z"/>
<path transform="translate(0,0)" fill="rgb(254,71,95)" d="M 1081.09 620.482 L 1081.1 389.991 C 1081.08 351.229 1079.38 311.837 1081.16 273.169 C 1081.32 269.573 1081.26 265.641 1083.42 262.588 C 1086.44 258.335 1091.24 257.293 1096.1 256.581 C 1108.73 254.733 1160.57 254.556 1172.23 257.059 C 1175.58 257.777 1178.41 260.199 1181.06 262.249 L 1182.02 263.011 L 1183.76 263.083 C 1184.85 305.055 1184.03 347.226 1184.02 389.217 L 1183.98 620.085 C 1150.93 620.03 1113.83 618.14 1081.09 620.482 z"/>
<path transform="translate(0,0)" fill="rgb(249,58,49)" d="M 1599.85 540.34 L 1599.96 374.881 C 1599.96 350.158 1598.62 324.66 1600.11 300.028 C 1600.36 295.963 1600.65 288.455 1603.1 285.263 C 1606.02 281.442 1613.33 280.19 1617.74 279.833 C 1626.73 279.104 1636.04 280.147 1645.07 280.157 C 1657.48 280.17 1672.02 277.947 1684.15 280.658 C 1687.7 281.451 1690.34 283.096 1693.08 285.41 C 1691.32 300.468 1691.95 316.05 1691.95 331.2 L 1692.03 399.642 L 1692.05 621.063 C 1661.59 621.409 1630.48 623.414 1600.06 621.756 C 1599.6 594.638 1600.09 567.469 1599.85 540.34 z"/>
<path transform="translate(0,0)" fill="rgb(1,92,130)" d="M 1483.48 351.948 C 1494.66 349.134 1544.22 337.202 1551.98 343.354 C 1561.73 351.083 1578.28 450.946 1582.22 468.525 C 1587.62 492.616 1593.88 516.421 1599.85 540.34 C 1600.09 567.469 1599.6 594.638 1600.06 621.756 C 1590.49 618.92 1553.6 620.896 1541.95 620.881 C 1530.5 563.211 1515.7 505.9 1502.43 448.606 C 1497.28 426.368 1491.38 404.023 1487.42 381.547 C 1485.7 371.748 1484.9 361.798 1483.48 351.948 z"/>
<path transform="translate(0,0)" fill="url(#Gradient5)" d="M 187.106 622.104 C 187.082 572.597 183.597 509.371 191.664 461.707 C 207.48 368.25 252.962 295.273 330.387 240.487 C 371.269 211.773 417.713 191.945 466.727 182.28 C 523.218 171.587 582.504 175.614 639.789 175.627 L 878.862 175.696 C 905.192 175.731 931.46 174.896 957.78 174.722 C 969.349 174.646 982.539 173.48 993.943 175.443 C 973.529 176.91 952.486 175.889 932.003 175.699 L 932 594.673 L 932.068 704.91 C 932.082 721.776 934.144 743.219 930.971 759.398 C 971.965 828.859 972.089 869.159 972.088 945.833 L 972.035 1045.55 C 954.495 1046.92 936.452 1046.1 918.847 1046.18 C 879.936 1048.07 840.659 1047.9 801.691 1047.9 C 720.278 1047.89 668.324 1049 598.056 1099.83 C 579.621 1113.17 562.322 1127.79 547.001 1144.66 C 526.934 1166.82 510.281 1191.85 497.589 1218.92 C 485.776 1248.96 480.187 1274.38 477.86 1306.71 C 477.926 1316.28 478.787 1325.69 479.055 1335.23 C 483.976 1357.85 491.395 1381.43 511.798 1394.72 C 513.553 1395.87 515.312 1396.79 517.206 1397.67 C 504.006 1399.13 488.737 1398.42 475.419 1397.83 C 448.811 1398.92 421.748 1397.98 395.091 1397.98 C 326.743 1397.98 258.243 1396.98 189.91 1398.15 L 187.204 1397.44 L 187.295 668.406 C 186.712 654.635 187.231 640.631 187.226 626.833 L 187.106 622.104 z"/>
<path transform="translate(0,0)" fill="rgb(3,41,75)" d="M 187.106 622.104 C 187.082 572.597 183.597 509.371 191.664 461.707 C 207.48 368.25 252.962 295.273 330.387 240.487 C 371.269 211.773 417.713 191.945 466.727 182.28 C 523.218 171.587 582.504 175.614 639.789 175.627 L 878.862 175.696 C 905.192 175.731 931.46 174.896 957.78 174.722 C 969.349 174.646 982.539 173.48 993.943 175.443 C 973.529 176.91 952.486 175.889 932.003 175.699 L 932 594.673 L 932.068 704.91 C 932.082 721.776 934.144 743.219 930.971 759.398 C 921.928 745.922 912.243 732.736 901.407 720.633 C 848.175 661.179 772.461 627.85 693.313 623.522 C 674.907 621.621 655.81 622.442 637.3 622.465 L 548.329 622.57 L 315.725 622.564 C 272.918 622.551 229.886 623.482 187.106 622.104 z"/>
<path transform="translate(0,0)" fill="rgb(249,58,49)" d="M 187.106 622.104 C 229.886 623.482 272.918 622.551 315.725 622.564 L 548.329 622.57 L 637.3 622.465 C 655.81 622.442 674.907 621.621 693.313 623.522 C 772.461 627.85 848.175 661.179 901.407 720.633 C 912.243 732.736 921.928 745.922 930.971 759.398 C 971.965 828.859 972.089 869.159 972.088 945.833 L 972.035 1045.55 C 954.495 1046.92 936.452 1046.1 918.847 1046.18 C 919.377 1038.05 919.283 1029.94 919.278 1021.81 L 919.132 944.455 C 919.102 919.337 919.557 893.211 915.641 868.32 C 908.888 825.401 884.511 781.83 853.825 751.47 C 816.598 714.637 769.52 693.585 718.676 683.564 C 692.555 678.415 665.581 679.848 639.086 679.866 L 543.551 679.917 L 188.559 679.96 C 188.459 675.959 188.178 672.314 187.295 668.406 C 186.712 654.635 187.231 640.631 187.226 626.833 L 187.106 622.104 z"/>
<path transform="translate(0,0)" fill="url(#Gradient4)" d="M 477.86 1306.71 C 475.38 1306.51 472.906 1306.25 470.442 1305.92 C 407.649 1297.26 343.212 1254.17 305.271 1204.23 C 266.333 1152.9 249.359 1088.22 258.077 1024.38 C 266.471 963.032 299.422 892.726 350.051 854.989 C 362.973 845.356 378.463 839.742 394.742 842.499 C 406.196 844.439 416.151 850.726 422.528 860.473 C 427.225 867.606 429.604 876.016 429.341 884.553 C 428.383 913.779 396.868 928.894 379.94 950.354 C 363.154 971.447 351.782 996.325 346.814 1022.82 C 339.183 1065.15 348.72 1108.79 373.32 1144.07 C 405.468 1190.47 443.487 1209.12 497.589 1218.92 C 485.776 1248.96 480.187 1274.38 477.86 1306.71 z"/>
<path transform="translate(0,0)" fill="rgb(160,21,49)" d="M 475.419 1397.83 C 462.346 1395.97 447.892 1396.85 434.651 1396.75 L 352.98 1396.38 C 363.856 1395.26 375.361 1395.99 386.333 1395.99 C 417.599 1395.97 449.701 1397.56 480.876 1395.89 C 487.264 1395.55 493.316 1393.59 499.639 1392.88 C 500.366 1394.76 500.816 1395.9 502.349 1397.24 C 504.536 1396.75 504.092 1397.26 505.484 1395.07 C 503.954 1390.11 497.623 1384.69 494.517 1380.21 C 488.492 1371.41 483.801 1361.77 480.593 1351.61 C 479.166 1346.95 476.759 1339.56 479.055 1335.23 C 483.976 1357.85 491.395 1381.43 511.798 1394.72 C 513.553 1395.87 515.312 1396.79 517.206 1397.67 C 504.006 1399.13 488.737 1398.42 475.419 1397.83 z"/>
<path transform="translate(0,0)" fill="url(#Gradient3)" d="M 994.078 1044.24 C 1004.06 1043.87 1014.23 1044.83 1024.16 1043.49 C 1053.14 1039.55 1075.66 985.362 1092.77 963.836 L 1093.48 962.955 C 1093.45 963.227 1093.43 963.499 1093.39 963.77 C 1091.94 975.105 1086.2 986.196 1083.98 997.581 C 1076.08 1038.09 1089.36 1079.9 1114 1112.41 C 1145.63 1153.97 1192.45 1181.3 1244.19 1188.4 C 1283.16 1193.59 1317.38 1187.63 1354.06 1174.82 C 1368.3 1168.82 1380.31 1160.56 1392.2 1150.76 C 1401.46 1153.62 1421.7 1151.71 1432.41 1151.7 L 1515.01 1151.62 C 1529.49 1151.61 1544.43 1150.97 1558.88 1151.89 L 1586.88 1152.12 C 1586.41 1152.34 1585.94 1152.56 1585.47 1152.77 C 1583.26 1153.74 1580.94 1154.11 1578.58 1154.53 C 1576.29 1157.58 1571.31 1196.47 1571.74 1201.53 C 1571.91 1203.59 1572.35 1204.28 1573.88 1205.47 C 1567.89 1215.76 1561.67 1227.14 1559.55 1239.01 C 1555.9 1259.43 1558.37 1289.14 1558.35 1310.51 C 1558.3 1352.89 1557.29 1395.45 1558.27 1437.8 C 1549.06 1425.26 1537.61 1415.36 1523.45 1408.83 C 1491.96 1396.91 1418.87 1399.61 1383.4 1399.48 C 1382.84 1416.9 1378.61 1429.17 1366.87 1442.25 C 1359.52 1448.63 1349.79 1453.13 1340.24 1454.84 C 1310.81 1460.11 1287.43 1434.31 1267.26 1416.65 C 1260.94 1411.12 1254.61 1404.91 1246.65 1401.86 C 1231.71 1396.13 1197.48 1399.46 1180.08 1399.74 C 1167.63 1398.53 1154.64 1399.27 1142.13 1399.3 C 1116.07 1399.35 1089.93 1399.81 1063.89 1399.01 C 1049.07 1399.79 1034.01 1399.24 1019.15 1399.21 L 938.795 1399.04 C 932.396 1401.39 924.779 1401.41 918.03 1401.51 C 899.709 1401.77 881.34 1400.47 863.027 1399.94 C 841.754 1399.49 820.476 1399.3 799.199 1399.37 L 602.01 1399.33 C 584.968 1399.32 531.119 1401.44 517.206 1397.67 C 515.312 1396.79 513.553 1395.87 511.798 1394.72 C 491.395 1381.43 483.976 1357.85 479.055 1335.23 C 478.787 1325.69 477.926 1316.28 477.86 1306.71 C 480.187 1274.38 485.776 1248.96 497.589 1218.92 C 510.281 1191.85 526.934 1166.82 547.001 1144.66 C 562.322 1127.79 579.621 1113.17 598.056 1099.83 C 668.324 1049 720.278 1047.89 801.691 1047.9 C 840.659 1047.9 879.936 1048.07 918.847 1046.18 C 936.452 1046.1 954.495 1046.92 972.035 1045.55 C 979.362 1044.9 986.732 1044.62 994.078 1044.24 z"/>
<path transform="translate(0,0)" fill="url(#Gradient2)" d="M 1392.2 1150.76 C 1401.46 1153.62 1421.7 1151.71 1432.41 1151.7 L 1515.01 1151.62 C 1529.49 1151.61 1544.43 1150.97 1558.88 1151.89 L 1586.88 1152.12 C 1586.41 1152.34 1585.94 1152.56 1585.47 1152.77 C 1583.26 1153.74 1580.94 1154.11 1578.58 1154.53 C 1576.29 1157.58 1571.31 1196.47 1571.74 1201.53 C 1571.91 1203.59 1572.35 1204.28 1573.88 1205.47 C 1567.89 1215.76 1561.67 1227.14 1559.55 1239.01 C 1555.9 1259.43 1558.37 1289.14 1558.35 1310.51 C 1558.3 1352.89 1557.29 1395.45 1558.27 1437.8 C 1549.06 1425.26 1537.61 1415.36 1523.45 1408.83 C 1527.42 1405.23 1530.89 1401.4 1533.32 1396.57 C 1538.87 1385.54 1539.14 1373.78 1535.26 1362.21 C 1517.68 1309.79 1465.34 1315.79 1420.89 1316.14 C 1410.61 1316.22 1399.22 1317.08 1389.86 1312.02 C 1384.41 1309.08 1380.93 1304.85 1378.89 1299.03 C 1373.56 1283.87 1374.34 1265.13 1371.98 1249.1 C 1368.2 1223.86 1362.2 1199.01 1354.06 1174.82 C 1368.3 1168.82 1380.31 1160.56 1392.2 1150.76 z"/>
<path transform="translate(0,0)" fill="url(#Gradient1)" d="M 812.776 1319.51 C 826.636 1306.22 835.884 1292.2 836.182 1272.36 C 836.621 1243.02 820.743 1214.16 800.677 1193.75 C 796.976 1189.99 793.235 1186.06 788.953 1182.96 C 783.026 1178.67 773.663 1174.73 768.902 1169.45 C 767.549 1167.95 767.079 1166.74 766.511 1164.84 C 767.076 1162.45 767.579 1161.33 769.66 1159.88 C 777.19 1154.63 791.646 1153.57 800.466 1155.59 C 821.86 1160.48 845.815 1193.64 855.93 1211.3 C 867.844 1232.11 875.238 1256.37 880.743 1279.65 C 882.411 1286.7 882.721 1298.16 885.98 1304.23 C 935.665 1305.52 985.434 1311.13 1021.49 1349.09 C 1036.56 1364.94 1046.96 1385.12 1063.89 1399.01 C 1049.07 1399.79 1034.01 1399.24 1019.15 1399.21 L 938.795 1399.04 C 943.663 1387.87 943.988 1377.94 939.358 1366.53 C 932.453 1349.52 917.704 1336.85 900.928 1330.03 C 879.321 1321.24 837.784 1322.39 812.776 1319.51 z"/>
<path transform="translate(0,0)" fill="rgb(249,58,49)" d="M 517.206 1397.67 C 531.119 1401.44 584.968 1399.32 602.01 1399.33 L 799.199 1399.37 C 820.476 1399.3 841.754 1399.49 863.027 1399.94 C 881.34 1400.47 899.709 1401.77 918.03 1401.51 C 924.779 1401.41 932.396 1401.39 938.795 1399.04 L 1019.15 1399.21 C 1034.01 1399.24 1049.07 1399.79 1063.89 1399.01 C 1089.93 1399.81 1116.07 1399.35 1142.13 1399.3 C 1154.64 1399.27 1167.63 1398.53 1180.08 1399.74 C 1197.48 1399.46 1231.71 1396.13 1246.65 1401.86 C 1254.61 1404.91 1260.94 1411.12 1267.26 1416.65 C 1287.43 1434.31 1310.81 1460.11 1340.24 1454.84 C 1349.79 1453.13 1359.52 1448.63 1366.87 1442.25 C 1378.61 1429.17 1382.84 1416.9 1383.4 1399.48 C 1418.87 1399.61 1491.96 1396.91 1523.45 1408.83 C 1537.61 1415.36 1549.06 1425.26 1558.27 1437.8 C 1564.02 1448.08 1568.92 1458.38 1571.5 1469.94 C 1576.36 1491.67 1575.97 1548.9 1569.88 1570.18 C 1566.15 1583.2 1559.6 1594.06 1551.69 1604.91 C 1537.38 1619.03 1521.86 1626.66 1501.79 1629.11 C 1487.05 1630.9 1471.78 1630.24 1456.95 1630.24 L 1386.5 1630.2 L 1156.93 1630.19 L 386.209 1630.13 L 272.712 1630.22 C 248.661 1630.18 224.335 1629.4 200.334 1630.82 C 186.81 1583.47 187.147 1540.66 187.127 1492.03 L 187.204 1397.44 L 189.91 1398.15 C 258.243 1396.98 326.743 1397.98 395.091 1397.98 C 421.748 1397.98 448.811 1398.92 475.419 1397.83 C 488.737 1398.42 504.006 1399.13 517.206 1397.67 z"/>
<path transform="translate(0,0)" fill="rgb(206,36,43)" d="M 187.204 1397.44 L 189.91 1398.15 L 190.404 1399.17 L 250.679 1398.92 C 261.46 1398.91 272.769 1398.23 283.491 1399.34 C 292.082 1400.24 300.59 1403.05 308.911 1405.3 C 327.302 1410.28 343.261 1413.1 357.414 1426.93 C 380.104 1449.11 386.019 1476.97 386.135 1507.47 L 386.209 1630.13 L 272.712 1630.22 C 248.661 1630.18 224.335 1629.4 200.334 1630.82 C 186.81 1583.47 187.147 1540.66 187.127 1492.03 L 187.204 1397.44 z"/>
<path transform="translate(0,0)" fill="rgb(206,36,43)" d="M 1180.08 1399.74 C 1197.48 1399.46 1231.71 1396.13 1246.65 1401.86 C 1254.61 1404.91 1260.94 1411.12 1267.26 1416.65 C 1287.43 1434.31 1310.81 1460.11 1340.24 1454.84 C 1349.79 1453.13 1359.52 1448.63 1366.87 1442.25 C 1366.78 1444.37 1366.66 1446.22 1365.98 1448.25 C 1361.26 1462.41 1348.17 1474.24 1334.88 1480.46 C 1321.23 1486.86 1305.75 1486.55 1291.76 1481.41 C 1283.26 1478.29 1275.52 1473.65 1268.18 1468.42 C 1252.68 1457.38 1239.68 1443.12 1224.52 1431.66 C 1217.27 1426.17 1182.45 1404.9 1180.08 1399.74 z"/>
<path transform="translate(0,0)" fill="rgb(3,41,75)" d="M 271.558 1746.28 L 1085.68 1746.21 L 1373.64 1746.22 L 1467.16 1746.2 C 1483.26 1746.2 1499.76 1745.47 1515.81 1746.31 C 1531.53 1746.23 1547.25 1746.23 1562.98 1746.31 C 1567.37 1757.37 1570.26 1769.57 1573.62 1781.02 C 1582.21 1810.28 1589.74 1840.03 1599.3 1868.99 C 1565.55 1876.05 1533.24 1876.06 1499.04 1875.94 C 1419.49 1874.67 1339.7 1875.9 1260.14 1875.91 L 790.642 1875.92 L 602.069 1875.94 C 565.911 1875.96 527.946 1878.4 492.105 1874 C 445.635 1868.41 400.722 1853.72 359.931 1830.77 C 328.263 1812.92 299.288 1789.24 274.361 1762.85 C 270.484 1758.75 264.084 1753.15 262.575 1747.73 C 265.558 1747.18 268.553 1746.7 271.558 1746.28 z"/>
<path transform="translate(0,0)" fill="rgb(1,92,130)" d="M 1515.81 1746.31 C 1531.53 1746.23 1547.25 1746.23 1562.98 1746.31 C 1567.37 1757.37 1570.26 1769.57 1573.62 1781.02 C 1582.21 1810.28 1589.74 1840.03 1599.3 1868.99 C 1565.55 1876.05 1533.24 1876.06 1499.04 1875.94 C 1489.09 1832.63 1474.05 1790.35 1463.45 1747.18 C 1480.33 1746.31 1499.33 1749.32 1515.81 1746.31 z"/>
<path transform="translate(0,0)" fill="rgb(3,41,75)" d="M 1746.12 1171.7 C 1762.71 1170.12 1780.13 1171 1796.8 1170.96 C 1808.75 1170.93 1822.23 1169.77 1834 1171.45 C 1846.89 1173.15 1861.08 1172.03 1874.11 1171.9 C 1874.1 1189.04 1873.89 1206.21 1874.09 1223.36 L 1874.09 1427.7 L 1874.07 1503.55 C 1874.08 1523 1874.55 1542.55 1872.86 1561.95 C 1866.06 1641.63 1831.78 1716.48 1775.9 1773.69 C 1738.26 1811.01 1692.72 1839.39 1642.63 1856.74 C 1628.43 1861.63 1613.3 1864.03 1599.3 1868.99 C 1589.74 1840.03 1582.21 1810.28 1573.62 1781.02 C 1570.26 1769.57 1567.37 1757.37 1562.98 1746.31 C 1586.85 1746 1615.59 1749.27 1638.66 1743.77 C 1659.16 1738.88 1676.18 1727.14 1687.14 1709.05 C 1693.09 1699.24 1697.17 1688.37 1699.9 1677.25 C 1704.53 1658.42 1707.05 1638.88 1709.78 1619.69 C 1713.83 1590.04 1717.63 1560.36 1721.17 1530.65 C 1728.39 1471.54 1734.07 1412.26 1738.2 1352.86 C 1740.16 1324.94 1742.82 1296.93 1742.58 1268.92 C 1742.45 1253.38 1740.8 1238.71 1737.09 1223.62 C 1728.66 1200.69 1718.35 1186.16 1699.45 1170.78 C 1713.77 1171.23 1732.48 1169.02 1746.12 1171.7 z"/>
<path transform="translate(0,0)" fill="rgb(0,98,109)" d="M 1746.12 1171.7 C 1762.71 1170.12 1780.13 1171 1796.8 1170.96 C 1808.75 1170.93 1822.23 1169.77 1834 1171.45 C 1846.89 1173.15 1861.08 1172.03 1874.11 1171.9 C 1874.1 1189.04 1873.89 1206.21 1874.09 1223.36 L 1787.13 1223.22 C 1770.57 1223.21 1753.6 1222.45 1737.09 1223.62 C 1728.66 1200.69 1718.35 1186.16 1699.45 1170.78 C 1713.77 1171.23 1732.48 1169.02 1746.12 1171.7 z"/>
<path transform="translate(0,0)" fill="rgb(160,21,49)" d="M 1551.69 1604.91 C 1551.23 1630.26 1551.05 1655.61 1551.15 1680.97 L 498.4 1681.11 L 280.115 1681.04 C 270.464 1681.03 224.949 1679.34 219.336 1681.02 C 211.269 1665.06 205.544 1647.87 200.334 1630.82 C 224.335 1629.4 248.661 1630.18 272.712 1630.22 L 386.209 1630.13 L 1156.93 1630.19 L 1386.5 1630.2 L 1456.95 1630.24 C 1471.78 1630.24 1487.05 1630.9 1501.79 1629.11 C 1521.86 1626.66 1537.38 1619.03 1551.69 1604.91 z"/>
<path transform="translate(0,0)" fill="rgb(206,36,43)" d="M 1586.88 1152.12 C 1608.87 1151.69 1630.57 1152.25 1652.53 1153.23 C 1646.44 1153.89 1639.54 1153.34 1633.71 1154.7 C 1616.32 1158.77 1596.39 1175.8 1585.36 1189.43 C 1581.23 1194.53 1578.14 1200.57 1573.88 1205.47 C 1572.35 1204.28 1571.91 1203.59 1571.74 1201.53 C 1571.31 1196.47 1576.29 1157.58 1578.58 1154.53 C 1580.94 1154.11 1583.26 1153.74 1585.47 1152.77 C 1585.94 1152.56 1586.41 1152.34 1586.88 1152.12 z"/>
</svg>