<svg xmlns="http://www.w3.org/2000/svg" width="1365.333" height="1365.333" preserveAspectRatio="xMidYMid meet" version="1.0" viewBox="0 0 1024 1024"><g fill="#000" stroke="none"><path d="M0 512v512h1024V0H0zm738.4-391.8c1.4 2 1.6 12.8 1.6 96V310h-53V118h24.9c24.7 0 25 0 26.5 2.2m-150.7 8.9c1.8.7 11.1 1 25.1.9l22.2-.1V310h-94v-89.4c0-94.4-.2-90.7 4.5-91.9 4.1-1 39.4-.7 42.2.4m256.6 12.3c1.6 1.3 1.7 6.1 1.7 84.7 0 45.8-.2 83.4-.3 83.6-.2.2-10.6.6-23 1l-22.7.6V144.9l2.5-2.4c2.4-2.5 2.6-2.5 21.2-2.5 14.2.1 19.2.4 20.6 1.4M362.5 313.2c40.2 7.8 68.4 23.6 91.4 51.3 15.3 18.4 24.5 37.4 29.3 60.2 2 9.9 2.3 14.2 2.8 54.3l.5 43.5 13-.3c7.2-.2 14.4-.8 16.1-1.3 1.6-.5 4.9-2.8 7.1-5.2 3.7-3.8 6.9-8.4 22.9-32.7l4.9-7.5.3-31.5c.3-33.7 1.1-39.9 5.4-44 1.4-1.2 3.5-2 5.7-2 7 .1 11.4 3.2 28.5 20.8l16.6 16.9 6.2-1.4c8.6-1.8 25.9-2.1 34.1-.4l6.8 1.4 16.7-16.6c17.9-17.7 21.1-19.7 28.6-18.3 7.4 1.4 8.5 6.7 8.8 43.6l.3 27.5 3.8 5.8c2.1 3.2 5 8.8 6.4 12.5 10.4 27.5 4.7 56.7-15.4 78.2-3.5 3.7-6 7-5.6 7.4.9.9 80.1.7 80.7-.2.8-1.4 1.1-159.6.3-161-.6-.9.3-1.2 3.2-1.3 5.4-.2 5.8-.3 6.7-1.2 1-1 6.2-.9 6.8.1s3.6.9 5.3-.1c.6-.4 1.4-.3 1.8.3s5.2 1 11.4 1c15 0 15 0 15.3 15l.3 11.5 20.5.5c11.3.3 21.1.9 21.8 1.3.9.6 1.2 16.3 1.2 72.8V586h-9.8c-5.4 0-10.2.3-10.5.7-.4.3 1.5 2.9 4.2 5.8 9.7 10.2 13.2 20.1 13.8 39.3 1.4 38.2-14.7 189.6-22.6 212.4-4.3 12.6-10.6 19.8-22 25.2l-6.6 3.1-345 .3-345 .2-7.2-10.7c-11.8-17.8-20.4-37.9-25.5-60.2l-2.2-9.6-.3-240.8-.3-240.8 130.2.4c112 .3 131.4.6 138.3 1.9"/><path d="M596.2 507.2c-5.3 5.3 7.1 11.8 19.9 10.4 10.2-1 17.2-6.2 13.9-10.1-1.6-2-2.9-1.9-8.1.5-5.8 2.6-13.3 2.6-18.4 0-4.6-2.3-5.7-2.4-7.3-.8m71.8 3.3c-4.2 5 5.7 11.6 17.4 11.6 10.9 0 18.3-5 15.8-10.6q-2.25-4.8-7.2 0c-4 3.9-12.7 3.9-18.4 0-4.2-2.9-5.9-3.1-7.6-1M687.2 630c0 1.4.2 1.9.5 1.2.2-.6.2-1.8 0-2.5-.3-.6-.5-.1-.5 1.3m-495.7 7.5c2.2 1.9 14.6 8.3 13 6.8-.5-.6-4.1-2.7-8-4.7-3.8-2.1-6.1-3-5-2.1m496.6 1.1c0 1.1.3 1.4.6.6.3-.7.2-1.6-.1-1.9-.3-.4-.6.2-.5 1.3M206.5 645c1.3 2 25.3 9.6 27.8 8.7.6-.2-2.9-1.4-7.8-2.6-5-1.2-11.6-3.3-14.7-4.5-3.2-1.3-5.5-2-5.3-1.6m30.5 10.1c.7 1.1 1.4 1.8 1.7 1.5.8-.8-.5-3.6-1.7-3.6-.7 0-.7.6 0 2.1m455-1.7c0 .2.8 1 1.8 1.7 1.5 1.3 1.6 1.2.3-.4s-2.1-2.1-2.1-1.3m5 3c0 .2.7.7 1.6 1 .8.3 1.2.2.9-.4-.6-1-2.5-1.4-2.5-.6m39.8 1.3c.7.3 1.6.2 1.9-.1.4-.3-.2-.6-1.3-.5-1.1 0-1.4.3-.6.6m-498.8.8c-.9 4.2 1.9 19.4 4.7 24.8 1.2 2.4 1.2 3.1.1 4.5-1.1 1.3-1.1 1.5.3 1 2-.8 6.3 4.6 5.5 6.8-.6 1.6-2.2 1.8-3.1.4-.5-.8-1.1-.8-2 0-1 .8-1.5.8-2 0-.5-.7-1.1-.8-1.9-.1s-20.8 1.1-56.9 1.1c-32.8.1-55.9.5-56.2 1.1-.7 1 126.8 1.3 127.8.2.4-.3-1.1-2.5-3.2-4.9-6.5-7-10.4-16.4-12-28.9-.4-3.9-.9-6.6-1.1-6m514.5 4c1.1.9 2.9 2.1 4 2.6l2 1-2-1.6c-1.1-.9-2.9-2.1-4-2.6l-2-1zm10.5 9.1c0 .3 1.1 2.2 2.5 4.2 3 4.4 3.3 3.3.4-1.4-1.9-3.2-2.9-4.1-2.9-2.8m4.9 23.9c-.9 2.5-1.3 4.2-.8 4 .9-.6 3.3-7.5 2.7-8-.2-.2-1.1 1.6-1.9 4M95 696.8c0 1.2 1.9 2.6 2.6 1.9.2-.2-.2-1-1.1-1.7-.9-.8-1.5-.8-1.5-.2m27.5 1.2c-.3.5.1 1 1 1s1.3-.5 1-1c-.3-.6-.8-1-1-1s-.7.4-1 1m641.7 4.2c-1.7 1.7-1.5 2.6 1.1 3.9 2.1 1.2 2.1 1.1.5-.8-1.4-1.5-1.5-2.2-.6-3.1.7-.7 1-1.2.7-1.2s-1 .5-1.7 1.2m3.8 5.1c0 .2 2.2 2.3 4.9 4.5 3.4 2.8 5.2 3.8 5.7 3.1q.6-1.05-.3-.6c-.6.4-1.9-.3-2.9-1.4-2-2.2-7.4-6.3-7.4-5.6m6 97.6c0 .5.5 1.3 1 1.6.6.3 1 .2 1-.4 0-.5-.4-1.3-1-1.6-.5-.3-1-.2-1 .4"/></g></svg>