<svg version="1.1" xmlns="http://www.w3.org/2000/svg" style="display: block;" viewBox="0 0 2048 2048" width="1024" height="1024">
<defs>
	<linearGradient id="Gradient1" gradientUnits="userSpaceOnUse" x1="720.735" y1="1405.83" x2="752.566" y2="1127.29">
		<stop class="stop0" offset="0" stop-opacity="1" stop-color="rgb(0,189,229)"/>
		<stop class="stop1" offset="1" stop-opacity="1" stop-color="rgb(0,164,237)"/>
	</linearGradient>
</defs>
<path transform="translate(0,0)" fill="rgb(0,186,232)" d="M 0 0 L 2048 0 L 2048 2048 L 665.557 2048 L 0 2048 L 0 1662.65 L 0 0 z"/>
<path transform="translate(0,0)" fill="rgb(108,229,212)" d="M 1307.89 199.235 C 1380.66 200.742 1453.64 199.936 1526.42 200.136 L 1942.03 202.866 L 1942.89 1160.65 C 1944.15 1317.53 1944.54 1474.41 1944.04 1631.28 C 1906.97 1632.49 1869.71 1631.74 1832.62 1631.73 C 1781.74 1631.83 1730.85 1631.67 1679.97 1631.25 C 1694.28 1606.07 1698.01 1590.92 1697.98 1562.29 L 1697.99 1513.18 C 1697.4 1409.11 1699.8 1304.64 1695.91 1200.67 C 1695.12 1179.69 1697.81 1157.63 1694.6 1136.85 C 1692.93 1126 1687.98 1115.86 1683.62 1105.88 C 1672.26 1085.97 1654.16 1071.04 1636.46 1056.98 C 1617.9 1044.37 1599.12 1036.28 1577.95 1029.14 C 1558.42 1022.1 1537.48 1019.59 1517.05 1016.52 C 1514.78 1011.07 1516.46 988.293 1516.45 980.355 C 1516.28 958.578 1515.17 936.818 1513.12 915.137 C 1508.45 864.334 1501.08 831.191 1464.32 792.954 C 1449.05 777.069 1432.16 765.743 1412.37 756.287 C 1399.17 749.984 1385.61 743.823 1371.38 740.299 C 1326.71 729.244 1257.22 734.845 1209.5 733.786 C 1242.09 732.237 1275.18 733.338 1307.82 733.464 L 1307.89 199.235 z"/>
<path transform="translate(0,0)" fill="rgb(0,117,139)" d="M 1700.27 746 C 1719.12 745.982 1745.93 744.031 1763.76 746.43 C 1765.62 748.663 1765.19 751.704 1765.24 754.47 C 1766.93 765.721 1765.96 778.062 1766.07 789.454 C 1775 789.553 1817.39 791.748 1822.8 788.467 L 1823.4 786.186 C 1824.41 797.56 1823.81 809.406 1823.78 820.833 L 1823.59 880.64 L 1823.21 1059.12 C 1844.77 1060.36 1866.34 1059.16 1887.87 1060.1 L 1887.84 1105.8 L 1683.62 1105.88 C 1672.26 1085.97 1654.16 1071.04 1636.46 1056.98 C 1640.6 1056.05 1644.84 1055.84 1649.07 1055.48 C 1666.1 1055.71 1683.13 1055.71 1700.16 1055.48 L 1700.27 746 z"/>
<path transform="translate(0,0)" fill="rgb(23,203,184)" d="M 1765.24 754.47 C 1766.93 765.721 1765.96 778.062 1766.07 789.454 C 1775 789.553 1817.39 791.748 1822.8 788.467 L 1823.4 786.186 C 1824.41 797.56 1823.81 809.406 1823.78 820.833 L 1823.59 880.64 L 1823.21 1059.12 C 1804.08 1058.48 1784.77 1059 1765.61 1058.99 C 1763.64 1019.37 1765.3 978.79 1765.32 939.051 C 1765.34 877.551 1764.55 815.958 1765.24 754.47 z"/>
<path transform="translate(0,0)" fill="rgb(0,117,139)" d="M 1824.94 1198.04 L 1887.88 1198.04 L 1887.86 1562.21 L 1697.98 1562.29 L 1697.99 1513.18 C 1710.05 1513.21 1758.88 1515.43 1767.48 1513.05 C 1765.4 1419.19 1767.32 1324.98 1767.16 1231.08 L 1825.19 1229.74 C 1824.95 1219.17 1824.87 1208.61 1824.94 1198.04 z"/>
<path transform="translate(0,0)" fill="rgb(5,74,167)" d="M 1825.19 1229.74 C 1827.79 1230.91 1829.25 1231.2 1830.89 1233.59 C 1831.93 1249.51 1830.85 1265.49 1831.28 1281.44 C 1832.43 1323.87 1834.11 1366.54 1833.62 1408.98 C 1833.36 1431.36 1833.33 1453.66 1833.65 1476.05 C 1833.82 1488.2 1833.31 1500.88 1835.27 1512.9 C 1826.23 1513.17 1771.51 1516.22 1767.48 1513.05 C 1765.4 1419.19 1767.32 1324.98 1767.16 1231.08 L 1825.19 1229.74 z"/>
<path transform="translate(0,0)" fill="rgb(0,186,232)" d="M 1823.05 742.472 C 1845.08 742.485 1867.13 742.711 1889.16 742.487 C 1889.11 848.292 1890.53 954.334 1887.87 1060.1 C 1866.34 1059.16 1844.77 1060.36 1823.21 1059.12 L 1823.59 880.64 L 1823.78 820.833 C 1823.81 809.406 1824.41 797.56 1823.4 786.186 C 1822.74 771.619 1822.95 757.049 1823.05 742.472 z"/>
<path transform="translate(0,0)" fill="rgb(5,74,167)" d="M 1578.14 768.628 L 1648.21 768.301 C 1651.24 797.665 1649.1 829.552 1649.06 859.208 C 1648.99 924.572 1647.93 990.141 1649.07 1055.48 C 1644.84 1055.84 1640.6 1056.05 1636.46 1056.98 C 1617.9 1044.37 1599.12 1036.28 1577.95 1029.14 L 1578.14 768.628 z"/>
<path transform="translate(0,0)" fill="rgb(0,117,139)" d="M 1824.04 306.104 L 1887.58 306.035 L 1887.49 548.479 C 1887.5 590.786 1888.86 633.669 1887.23 675.918 L 1367.04 675.958 L 1367.02 628.036 L 1431.16 628.074 C 1458.07 628.589 1484.99 628.712 1511.9 628.444 C 1529.05 628.4 1546.46 628.977 1563.59 628.165 C 1590.86 628.059 1618.27 627.491 1645.54 628.168 C 1664.12 628.888 1683.36 629.144 1701.93 628.13 C 1723.01 627.88 1744.12 628.079 1765.2 628.075 L 1765.2 340.407 C 1776.96 340.206 1816.6 341.185 1824.6 338.06 C 1823.54 327.5 1824 316.71 1824.04 306.104 z"/>
<path transform="translate(0,0)" fill="rgb(5,74,167)" d="M 1824.6 338.06 C 1826.6 339.485 1827.36 339.915 1827.97 342.491 C 1830.11 351.576 1828.88 367.437 1828.92 377.096 C 1828.91 408.548 1828.71 440.001 1828.33 471.451 C 1827.8 523.572 1829.42 575.975 1827.76 628.048 C 1817.55 628.15 1771.88 630.484 1765.2 628.075 L 1765.2 340.407 C 1776.96 340.206 1816.6 341.185 1824.6 338.06 z"/>
<path transform="translate(0,0)" fill="rgb(0,117,139)" d="M 1473.5 406.004 L 1472.7 405.528 C 1462.14 399.416 1450.48 395.525 1440.01 389.147 C 1403.8 367.099 1382.12 329.888 1371.09 289.885 C 1369.43 283.832 1366.58 276.335 1369.5 270.372 C 1372.7 268.052 1376.89 268.867 1380.55 269.415 C 1414.93 274.565 1450.05 299.401 1470 327.265 C 1484.66 347.75 1492.36 369.811 1488.22 394.949 C 1494.07 406.816 1498.1 419.105 1502.17 431.665 L 1510.19 415.385 C 1500.97 401.893 1501.52 387.468 1504.47 371.887 C 1510.81 338.417 1532.48 304.098 1560.91 285.066 C 1567.59 280.587 1579.33 273.071 1587.63 275.311 C 1590.74 276.153 1592.8 278.614 1594 281.469 C 1600.55 296.984 1587.6 339.442 1580.72 354.632 C 1576.04 364.971 1570.39 375.672 1563.44 384.676 C 1545.16 408.37 1505.05 441.929 1517.18 475.594 C 1517.39 476.192 1517.63 476.782 1517.85 477.375 L 1519.23 477.691 C 1519.79 476.065 1519.75 475.435 1519.61 473.683 C 1518.76 462.949 1530.68 447.529 1537.48 439.884 C 1551.82 423.766 1574.74 415.241 1595.87 414.037 C 1604.37 413.553 1612.79 413.899 1619.42 419.859 C 1620.33 420.677 1620.68 421.296 1620.87 422.568 C 1622.58 434.167 1605.52 456.042 1597.58 463.786 C 1579.06 481.841 1559.51 489.02 1534.04 490.092 C 1529.54 494.784 1525.83 498.905 1523.73 505.224 C 1513.76 505.918 1495.87 507.722 1486.81 503.932 C 1485.43 500.172 1483.85 493.363 1479.88 491.579 C 1472.22 488.128 1460.77 490.056 1452.4 488.465 C 1422.87 482.848 1386.28 462.143 1372.14 434.601 C 1370 430.427 1367.59 424.948 1368.75 420.144 C 1369.63 416.51 1372.47 414.226 1375.69 412.712 C 1391.41 405.335 1421.09 409.376 1436.88 415.562 C 1455.25 422.762 1482.44 440.139 1490.04 459.235 C 1492.17 464.594 1491.76 471.336 1494.34 476.376 L 1494.94 476.066 L 1493.97 475.795 L 1494.75 476.414 C 1497.93 462.048 1481.46 418.807 1473.5 406.004 z"/>
<path transform="translate(0,0)" fill="rgb(23,203,184)" d="M 1486.81 503.932 C 1495.87 507.722 1513.76 505.918 1523.73 505.224 C 1541.82 506.96 1561.74 506.387 1579.77 504.343 C 1579.9 516.4 1579.77 528.331 1578.82 540.359 C 1577.65 555.25 1569.96 618.001 1563.59 628.165 C 1546.46 628.977 1529.05 628.4 1511.9 628.444 C 1484.99 628.712 1458.07 628.589 1431.16 628.074 C 1425.53 586.554 1419.96 545.518 1417.16 503.69 C 1417.4 503.791 1417.64 503.904 1417.88 503.995 C 1425.43 506.806 1480.09 507.181 1486.81 503.932 z"/>
<path transform="translate(0,0)" fill="rgb(23,203,184)" d="M 1673.26 338.422 C 1692.65 337.357 1712.81 337.2 1732.22 337.935 C 1720.15 434.433 1713.01 531.497 1701.93 628.13 C 1683.36 629.144 1664.12 628.888 1645.54 628.168 L 1658.63 499.102 C 1664.32 445.686 1670.57 392.086 1673.26 338.422 z"/>
<path transform="translate(0,0)" fill="rgb(254,137,114)" d="M 1209.5 733.786 C 1257.22 734.845 1326.71 729.244 1371.38 740.299 C 1385.61 743.823 1399.17 749.984 1412.37 756.287 C 1432.16 765.743 1449.05 777.069 1464.32 792.954 C 1501.08 831.191 1508.45 864.334 1513.12 915.137 C 1515.17 936.818 1516.28 958.578 1516.45 980.355 C 1516.46 988.293 1514.78 1011.07 1517.05 1016.52 C 1537.48 1019.59 1558.42 1022.1 1577.95 1029.14 C 1599.12 1036.28 1617.9 1044.37 1636.46 1056.98 C 1654.16 1071.04 1672.26 1085.97 1683.62 1105.88 C 1687.98 1115.86 1692.93 1126 1694.6 1136.85 C 1697.81 1157.63 1695.12 1179.69 1695.91 1200.67 C 1699.8 1304.64 1697.4 1409.11 1697.99 1513.18 L 1697.98 1562.29 C 1698.01 1590.92 1694.28 1606.07 1679.97 1631.25 C 1655.82 1659.31 1633.97 1671.89 1598.02 1679.6 C 1576.46 1681.68 1553.46 1680.05 1531.76 1680.01 C 1532.06 1670.7 1531.44 1584 1530.1 1581.07 C 1529.35 1579.45 1526.24 1578.5 1524.61 1578.05 C 1506.62 1573.07 1415.36 1567.84 1399.06 1570.17 C 1397.25 1570.42 1395.78 1571.27 1394.21 1572.13 C 1388.45 1564.68 1383.58 1556.09 1378.45 1548.18 L 1349.04 1502.55 L 1279.65 1396.05 C 1267.31 1376.73 1255.71 1355.4 1241.41 1337.59 C 1227.86 1320.71 1205.25 1298.99 1187.01 1287.42 C 1157.84 1268.91 1121.06 1259.27 1087.57 1251.76 C 1087.68 1251.33 1087.83 1250.91 1087.9 1250.47 C 1092.91 1222.5 1074.59 1174.34 1058.5 1151.45 C 1045.97 1135.73 1032.97 1119.85 1017.8 1106.58 C 982.455 1075.66 934.188 1059.11 888.339 1052.56 L 872.167 1050.75 C 876.1 1048.21 877.202 1046.1 878.78 1041.79 L 880.432 1037.41 L 882.931 1036.3 L 887.939 1033.85 C 884.279 1030.18 882.862 1024.19 879.221 1020.27 C 873.726 1014.36 865.48 1010.73 860.434 1004.41 C 854.96 997.546 851.383 988.051 847.555 980.145 C 838.995 962.242 830.204 944.45 821.184 926.774 C 816.974 918.414 813.081 908.393 807.266 901.057 C 802.059 894.052 798.629 884.52 794.928 876.588 C 786.906 859.391 778.917 841.708 768.016 826.125 C 753.901 805.947 723.316 775.825 702.241 762.608 C 689.467 754.711 675.584 748.769 661.052 744.981 C 642.552 740.353 623.453 740.036 604.731 736.662 L 603.871 734.095 C 657.814 733.724 711.757 733.631 765.701 733.817 L 1053.31 733.854 C 1105.22 733.848 1157.63 735.321 1209.5 733.786 z"/>
<path transform="translate(0,0)" fill="rgb(0,186,232)" d="M 887.939 1033.85 C 957.918 992.259 1048.85 909.146 1129.22 900.915 C 1146.96 899.099 1168.77 902.176 1186.05 906.485 C 1232.71 918.124 1261.78 959.786 1286.66 997.721 C 1294.5 1009.68 1302.76 1021.38 1310.07 1033.67 C 1319.63 1049.76 1330.63 1064.68 1341.03 1080.21 C 1361.33 1110.46 1381.11 1141.05 1400.36 1171.98 C 1414.52 1194.23 1428.42 1216.42 1441.08 1239.57 C 1430.03 1246.44 1418.39 1252.27 1407.31 1259.08 C 1388.92 1266.91 1371.44 1278.01 1354.08 1287.89 C 1338.38 1296.83 1322.05 1305.26 1306.86 1315.03 C 1295.54 1320.96 1284.17 1326.79 1272.75 1332.52 C 1266.77 1310.27 1251.38 1290.51 1239.43 1271.06 C 1218.54 1237.06 1196.86 1203.4 1175.35 1169.79 C 1161.91 1148.8 1147.66 1127.86 1135.86 1105.9 C 1129.02 1105.94 1122 1105.65 1115.19 1106.19 C 1108.55 1119.98 1090.06 1128.22 1077.81 1136.57 C 1071.08 1141.16 1064.73 1146.21 1058.5 1151.45 C 1045.97 1135.73 1032.97 1119.85 1017.8 1106.58 C 982.455 1075.66 934.188 1059.11 888.339 1052.56 L 872.167 1050.75 C 876.1 1048.21 877.202 1046.1 878.78 1041.79 L 880.432 1037.41 L 882.931 1036.3 L 887.939 1033.85 z"/>
<path transform="translate(0,0)" fill="rgb(5,74,167)" d="M 1115.19 1106.19 C 1116 1100.67 1117.71 1093.51 1121.92 1089.71 C 1124.4 1089.04 1125.46 1088.72 1127.86 1090.22 C 1132.57 1093.18 1134.29 1100.9 1135.86 1105.9 C 1129.02 1105.94 1122 1105.65 1115.19 1106.19 z"/>
<path transform="translate(0,0)" fill="rgb(5,74,167)" d="M 1306.86 1315.03 C 1322.05 1305.26 1338.38 1296.83 1354.08 1287.89 C 1371.44 1278.01 1388.92 1266.91 1407.31 1259.08 C 1419.46 1278.84 1433.37 1297.82 1445.03 1317.76 C 1471.71 1320.59 1547.22 1336.83 1563.49 1357.31 C 1569.62 1365.02 1572.95 1379.96 1571.38 1389.74 C 1570.85 1392.98 1569.82 1394.97 1567.76 1397.48 C 1556.64 1400.74 1494.45 1398.61 1478.03 1398.6 C 1431.94 1398.56 1384.19 1400.14 1338.29 1398.33 C 1332.49 1398.1 1327.03 1397.25 1321.42 1395.75 C 1318.13 1393.54 1317.31 1387.64 1316.61 1383.96 C 1312.3 1361.2 1311.14 1337.84 1306.86 1315.03 z"/>
<path transform="translate(0,0)" fill="rgb(108,229,212)" d="M 604.731 736.662 C 623.453 740.036 642.552 740.353 661.052 744.981 C 675.584 748.769 689.467 754.711 702.241 762.608 C 723.316 775.825 753.901 805.947 768.016 826.125 C 778.917 841.708 786.906 859.391 794.928 876.588 C 798.629 884.52 802.059 894.052 807.266 901.057 C 813.081 908.393 816.974 918.414 821.184 926.774 C 830.204 944.45 838.995 962.242 847.555 980.145 C 851.383 988.051 854.96 997.546 860.434 1004.41 C 865.48 1010.73 873.726 1014.36 879.221 1020.27 C 882.862 1024.19 884.279 1030.18 887.939 1033.85 L 882.931 1036.3 L 880.432 1037.41 L 878.78 1041.79 C 877.202 1046.1 876.1 1048.21 872.167 1050.75 L 888.339 1052.56 C 934.188 1059.11 982.455 1075.66 1017.8 1106.58 C 1032.97 1119.85 1045.97 1135.73 1058.5 1151.45 C 1074.59 1174.34 1092.91 1222.5 1087.9 1250.47 C 1087.83 1250.91 1087.68 1251.33 1087.57 1251.76 L 1085.7 1251.96 C 1083.12 1258.55 1083.49 1267.4 1082.47 1274.51 C 1081.19 1283.43 1078.53 1292.23 1075.36 1300.64 C 1069.73 1315.57 1062.28 1330.79 1054.16 1344.53 C 1038.09 1371.73 1020.95 1391.48 1035.35 1424.47 C 1037.05 1428.38 1039.5 1432.11 1041.78 1435.7 C 1047.74 1446.13 1058.83 1451.21 1064.05 1461.98 C 1068.27 1470.52 1068.69 1480.45 1065.21 1489.32 C 1061.32 1499.54 1054.82 1505.82 1045.19 1510.37 C 1033.99 1509.64 1023 1506.91 1013.59 1500.55 C 989.654 1484.39 983.749 1455.44 978.346 1429.14 C 958.037 1429.57 937.235 1426.67 917.003 1424.79 L 798.496 1412.91 L 639.393 1397.53 C 605.93 1394.02 569.213 1394.18 537.526 1381.73 C 506.68 1369.6 480.088 1344.35 467.679 1313.39 C 461.552 1298.1 457.897 1282.16 451.267 1266.92 C 450.177 1265.3 449.147 1264.3 447.284 1263.64 C 439.991 1261.04 431.613 1260.25 424.039 1258.44 C 398.014 1252.21 352.196 1242.44 329.593 1231.17 C 313.509 1223.15 297.1 1209.81 286.674 1195.1 C 276.241 1180.38 268.742 1161.58 266.209 1143.72 C 261.931 1113.54 273.352 1039.65 278.538 1008.07 C 282.564 979.943 283.587 951.613 289.992 923.848 C 299.63 882.065 328.102 831.537 359.458 801.868 C 368.698 793.126 379.6 785.933 390.376 779.234 C 406.979 768.912 456.138 740.24 473.617 744.294 C 474.209 746.244 474.784 747.619 476.056 749.247 C 491.205 768.637 522.838 777.79 546.282 779.855 C 562.339 781.27 576.533 776.964 588.837 766.564 C 598.431 758.456 603.585 749.055 604.731 736.662 z"/>
<path transform="translate(0,0)" fill="rgb(254,211,115)" d="M 604.731 736.662 C 623.453 740.036 642.552 740.353 661.052 744.981 C 675.584 748.769 689.467 754.711 702.241 762.608 C 723.316 775.825 753.901 805.947 768.016 826.125 C 778.917 841.708 786.906 859.391 794.928 876.588 C 798.629 884.52 802.059 894.052 807.266 901.057 C 813.081 908.393 816.974 918.414 821.184 926.774 C 830.204 944.45 838.995 962.242 847.555 980.145 C 851.383 988.051 854.96 997.546 860.434 1004.41 C 865.48 1010.73 873.726 1014.36 879.221 1020.27 C 882.862 1024.19 884.279 1030.18 887.939 1033.85 L 882.931 1036.3 L 880.432 1037.41 L 878.78 1041.79 C 877.202 1046.1 876.1 1048.21 872.167 1050.75 C 847.991 1048.56 823.927 1050.24 799.917 1053.55 C 796.855 1053.97 787.937 1056.59 785.779 1054.95 C 779.402 1057.53 771.399 1057.92 764.589 1059.06 C 749.771 1061.55 727.511 1065.54 714.706 1073.49 C 714.466 1074.97 714.709 1074.39 713.888 1075.68 C 713.132 1076.87 712.203 1078.09 711.616 1079.37 C 710.632 1081.51 710.96 1082.86 711.579 1085 C 712.203 1087.15 712.546 1088.9 712.727 1091.14 C 711.602 1093.24 711.575 1093.46 709.446 1094.48 C 700.322 1093.56 688.353 1081.58 682.144 1075.25 C 678.539 1071.58 676.606 1068.38 676.659 1063.19 C 675.057 1061.87 673.427 1060.59 671.768 1059.34 C 665.63 1054.76 658.059 1053.6 650.66 1052.41 C 622.553 1047.92 610.937 1050.8 584 1054.78 L 585.937 1056.58 C 576.044 1069.22 561.666 1077.55 550.511 1089.36 C 547.711 1089.21 546.31 1087.68 544.292 1085.95 C 525.213 1111.45 524.201 1121.49 512.241 1149.17 C 504.863 1146.76 495.222 1146.29 487.414 1144.84 C 463.504 1140.43 432.748 1133.69 411.708 1121.44 C 412.151 1110.36 414.924 1098.72 416.751 1087.75 C 420.423 1065.72 423.801 1043.76 429.626 1022.16 C 402.242 1020.04 374.872 1017.73 347.519 1015.23 C 324.556 1013.34 301.212 1012.33 278.538 1008.07 C 282.564 979.943 283.587 951.613 289.992 923.848 C 299.63 882.065 328.102 831.537 359.458 801.868 C 368.698 793.126 379.6 785.933 390.376 779.234 C 406.979 768.912 456.138 740.24 473.617 744.294 C 474.209 746.244 474.784 747.619 476.056 749.247 C 491.205 768.637 522.838 777.79 546.282 779.855 C 562.339 781.27 576.533 776.964 588.837 766.564 C 598.431 758.456 603.585 749.055 604.731 736.662 z"/>
<path transform="translate(0,0)" fill="rgb(98,191,250)" d="M 807.266 901.057 C 813.081 908.393 816.974 918.414 821.184 926.774 C 830.204 944.45 838.995 962.242 847.555 980.145 C 851.383 988.051 854.96 997.546 860.434 1004.41 C 865.48 1010.73 873.726 1014.36 879.221 1020.27 C 882.862 1024.19 884.279 1030.18 887.939 1033.85 L 882.931 1036.3 L 880.432 1037.41 L 878.78 1041.79 C 877.202 1046.1 876.1 1048.21 872.167 1050.75 C 847.991 1048.56 823.927 1050.24 799.917 1053.55 C 796.855 1053.97 787.937 1056.59 785.779 1054.95 C 782.035 1043.65 777.36 1032.61 773.384 1021.38 C 764.99 997.673 757.171 973.752 748.92 949.99 C 768.297 933.78 788.882 918.348 807.266 901.057 z"/>
<path transform="translate(0,0)" fill="rgb(98,191,250)" d="M 676.659 1063.19 C 679.295 1051.85 684.909 1019.71 694.192 1013.66 C 696.009 1012.47 697.233 1012.31 699.334 1012.14 C 702.465 1013.35 703.796 1015.12 705.169 1018.06 C 713.247 1035.35 710.77 1055.49 714.706 1073.49 C 714.466 1074.97 714.709 1074.39 713.888 1075.68 C 713.132 1076.87 712.203 1078.09 711.616 1079.37 C 710.632 1081.51 710.96 1082.86 711.579 1085 C 712.203 1087.15 712.546 1088.9 712.727 1091.14 C 711.602 1093.24 711.575 1093.46 709.446 1094.48 C 700.322 1093.56 688.353 1081.58 682.144 1075.25 C 678.539 1071.58 676.606 1068.38 676.659 1063.19 z"/>
<path transform="translate(0,0)" fill="rgb(98,191,250)" d="M 544.292 1085.95 C 548.951 1069.68 540.493 1027.86 552.718 1016.7 C 554.663 1014.92 555.386 1014.86 557.833 1014.83 C 569.899 1020.35 571.328 1040.88 578.361 1051.33 C 580.095 1053.91 581.014 1054.21 584 1054.78 L 585.937 1056.58 C 576.044 1069.22 561.666 1077.55 550.511 1089.36 C 547.711 1089.21 546.31 1087.68 544.292 1085.95 z"/>
<path transform="translate(0,0)" fill="rgb(5,74,167)" d="M 441.886 941.99 C 445.19 941.958 449.51 941.392 452.437 942.972 C 454.056 956.619 452.33 971.75 451.765 985.482 C 451.086 1001.94 451.034 1018.74 449.206 1035.11 C 445.466 1034.27 441.513 1034.1 437.699 1033.75 C 437.979 1003.15 440.374 972.551 441.886 941.99 z"/>
<path transform="translate(0,0)" fill="rgb(98,191,250)" d="M 278.538 1008.07 C 301.212 1012.33 324.556 1013.34 347.519 1015.23 C 374.872 1017.73 402.242 1020.04 429.626 1022.16 C 423.801 1043.76 420.423 1065.72 416.751 1087.75 C 414.924 1098.72 412.151 1110.36 411.708 1121.44 C 432.748 1133.69 463.504 1140.43 487.414 1144.84 C 495.222 1146.29 504.863 1146.76 512.241 1149.17 C 522.337 1154.88 536.907 1156.42 544.777 1162.27 C 553.22 1168.54 554.663 1180.13 562.056 1186.9 C 566.85 1191.28 573.592 1193.93 579.406 1196.7 C 605.267 1209.02 635.845 1217.61 664.498 1209.69 C 673.04 1207.33 678.372 1197.2 688.557 1201.44 C 690.097 1206.33 690.109 1211.94 690.201 1217.06 C 703.88 1221 742.306 1240.02 750.323 1250.86 C 752.781 1255.93 757.693 1268.45 756.108 1273.86 C 755.82 1274.84 755.073 1275.89 754.517 1276.75 L 759.138 1283.08 L 758.89 1284.86 L 757.491 1287.58 C 756.995 1287.96 756.511 1288.35 756.004 1288.7 C 749.492 1293.29 736.741 1291.52 733.964 1300.26 C 732.979 1303.37 733.675 1306.92 734.133 1310.06 C 734.941 1313.78 735.567 1317.2 735.661 1321.01 L 734.409 1322.58 C 733.719 1322.77 733.027 1322.97 732.325 1323.11 C 728.681 1323.86 726.012 1322.8 722.488 1322.05 C 705.588 1318.47 700.76 1311.83 687.128 1303.44 L 686.359 1302.98 C 686.469 1303.26 686.572 1303.54 686.688 1303.81 C 689.954 1311.51 702.968 1317.59 703.176 1325.87 C 700.99 1327.4 698.963 1327.34 696.374 1327.65 C 693.927 1326.65 693.064 1325.22 691.512 1323.17 C 685.065 1324.52 678.755 1327.79 672.703 1330.4 C 664.052 1325.51 657.548 1317.83 649.101 1313.09 C 637.805 1306.75 621.368 1308.1 608.762 1304.08 C 594.624 1299.57 582.437 1289.26 568.344 1285.61 C 556.899 1282.65 544.727 1282.08 533.002 1280.81 C 516.159 1278.97 498.924 1276.8 482.323 1273.49 C 475.698 1272.16 457.077 1265.37 451.267 1266.92 C 450.177 1265.3 449.147 1264.3 447.284 1263.64 C 439.991 1261.04 431.613 1260.25 424.039 1258.44 C 398.014 1252.21 352.196 1242.44 329.593 1231.17 C 313.509 1223.15 297.1 1209.81 286.674 1195.1 C 276.241 1180.38 268.742 1161.58 266.209 1143.72 C 261.931 1113.54 273.352 1039.65 278.538 1008.07 z"/>
<path transform="translate(0,0)" fill="rgb(34,116,203)" d="M 657.978 1260.68 C 655.944 1257.58 653.418 1254.74 651.082 1251.87 C 655.762 1252.47 660.411 1253.29 665.013 1254.34 C 699.38 1262.18 716.097 1281.05 734.133 1310.06 C 734.941 1313.78 735.567 1317.2 735.661 1321.01 L 734.409 1322.58 C 733.629 1321.42 732.9 1320.62 731.919 1319.64 C 730.874 1320.02 729.278 1320.77 728.127 1320.92 C 725.557 1321.26 725.22 1320.49 723.421 1318.87 C 723.741 1318.35 723.962 1317.76 724.38 1317.32 C 726.419 1315.17 727.857 1315.81 730.383 1316.31 L 730.362 1314.81 L 729.773 1316.21 C 730.014 1314.34 730.111 1313.66 729.097 1311.94 C 726.903 1308.21 722.771 1305.09 720.024 1301.67 C 700.129 1276.93 688.178 1270.49 657.978 1260.68 z"/>
<path transform="translate(0,0)" fill="rgb(34,116,203)" d="M 691.512 1323.17 C 683.296 1311.91 672.917 1296.45 660.677 1289.37 C 653.391 1285.15 644.939 1282.28 637.329 1278.58 L 638.053 1277.35 C 639.349 1277.12 639.475 1277.04 641.008 1277.07 C 659.715 1277.44 673.917 1290.72 686.359 1302.98 C 686.469 1303.26 686.572 1303.54 686.688 1303.81 C 689.954 1311.51 702.968 1317.59 703.176 1325.87 C 700.99 1327.4 698.963 1327.34 696.374 1327.65 C 693.927 1326.65 693.064 1325.22 691.512 1323.17 z"/>
<path transform="translate(0,0)" fill="rgb(34,116,203)" d="M 675.771 1233.34 C 709.427 1236.12 731.678 1252.2 754.517 1276.75 L 759.138 1283.08 L 758.89 1284.86 L 757.491 1287.58 C 749.649 1282.16 743.381 1274.33 736.3 1267.93 C 716.434 1250.01 699.981 1242.74 675.771 1233.34 z"/>
<path transform="translate(0,0)" fill="url(#Gradient1)" d="M 829.362 1263.88 C 827.524 1239.14 828.212 1221.45 839.202 1198.76 C 849.927 1176.61 889.099 1154.79 911.596 1147.09 C 916.832 1145.3 921.6 1144.12 926.73 1146.66 C 930.166 1150.61 928.91 1161.92 928.885 1166.93 C 916.715 1166.79 899.404 1167.74 888.633 1173.31 C 886.813 1172.86 886.843 1172.47 885.094 1173.47 C 870.818 1181.63 849.838 1209.63 845.776 1225.89 C 844.446 1231.22 843.666 1236.73 842.808 1242.15 C 840.724 1251.22 842.219 1260.11 840.54 1269.05 C 828.392 1273.4 815.543 1275.44 803.166 1279.04 C 797.793 1280.6 792.345 1283.88 787.127 1285.12 L 786.623 1285.95 C 784.77 1288.97 779.37 1294.71 779.155 1297.95 C 781.671 1297.38 782.657 1296.61 784.799 1295.23 C 782.018 1305.56 776.595 1315.24 771.98 1324.87 C 792.23 1329.3 980.971 1317.58 992.51 1310.29 C 999.861 1305.65 1003.84 1291.67 1008.49 1284.29 C 1010.74 1280.72 1013.63 1277.42 1016.52 1274.36 C 1021.17 1295.93 1014.66 1314.26 1002.97 1332.43 C 984.185 1361.62 978.918 1366 977.598 1402.47 C 977.282 1411.19 976.525 1420.58 978.346 1429.14 C 958.037 1429.57 937.235 1426.67 917.003 1424.79 L 798.496 1412.91 L 639.393 1397.53 C 605.93 1394.02 569.213 1394.18 537.526 1381.73 C 506.68 1369.6 480.088 1344.35 467.679 1313.39 C 461.552 1298.1 457.897 1282.16 451.267 1266.92 C 457.077 1265.37 475.698 1272.16 482.323 1273.49 C 498.924 1276.8 516.159 1278.97 533.002 1280.81 C 544.727 1282.08 556.899 1282.65 568.344 1285.61 C 582.437 1289.26 594.624 1299.57 608.762 1304.08 C 621.368 1308.1 637.805 1306.75 649.101 1313.09 C 657.548 1317.83 664.052 1325.51 672.703 1330.4 C 678.755 1327.79 685.065 1324.52 691.512 1323.17 C 693.064 1325.22 693.927 1326.65 696.374 1327.65 C 698.963 1327.34 700.99 1327.4 703.176 1325.87 C 702.968 1317.59 689.954 1311.51 686.688 1303.81 C 686.572 1303.54 686.469 1303.26 686.359 1302.98 L 687.128 1303.44 C 700.76 1311.83 705.588 1318.47 722.488 1322.05 C 726.012 1322.8 728.681 1323.86 732.325 1323.11 C 733.027 1322.97 733.719 1322.77 734.409 1322.58 L 735.661 1321.01 C 735.567 1317.2 734.941 1313.78 734.133 1310.06 C 733.675 1306.92 732.979 1303.37 733.964 1300.26 C 736.741 1291.52 749.492 1293.29 756.004 1288.7 C 756.511 1288.35 756.995 1287.96 757.491 1287.58 L 758.89 1284.86 C 766.45 1283.14 775.106 1275.51 782.4 1272.08 C 796.649 1265.39 814.004 1265.67 829.362 1263.88 z"/>
<path transform="translate(0,0)" fill="rgb(0,186,232)" d="M 771.98 1324.87 L 771.118 1324.73 C 769.464 1322.91 767.569 1321.37 765.709 1319.77 C 765.502 1322.2 765.084 1324.15 764.304 1326.46 L 763.06 1326.39 C 762.474 1325.53 761.932 1324.87 761.636 1323.83 C 760.765 1320.77 762.234 1316.65 763.369 1313.86 C 767.927 1302.64 775.679 1289.9 787.127 1285.12 L 786.623 1285.95 C 784.77 1288.97 779.37 1294.71 779.155 1297.95 C 781.671 1297.38 782.657 1296.61 784.799 1295.23 C 782.018 1305.56 776.595 1315.24 771.98 1324.87 z"/>
<path transform="translate(0,0)" fill="rgb(5,74,167)" d="M 842.808 1242.15 C 843.666 1236.73 844.446 1231.22 845.776 1225.89 C 849.838 1209.63 870.818 1181.63 885.094 1173.47 C 886.843 1172.47 886.813 1172.86 888.633 1173.31 C 865.823 1190.46 854.346 1207.27 849.388 1235.68 C 848.751 1247.72 846.11 1262.18 852.343 1272.85 C 849.048 1274.94 844.8 1274.8 841.001 1275.12 C 841.484 1272.6 841.428 1271.45 840.54 1269.05 C 842.219 1260.11 840.724 1251.22 842.808 1242.15 z"/>
<path transform="translate(0,0)" fill="rgb(34,116,203)" d="M 787.127 1285.12 C 792.345 1283.88 797.793 1280.6 803.166 1279.04 C 815.543 1275.44 828.392 1273.4 840.54 1269.05 C 841.428 1271.45 841.484 1272.6 841.001 1275.12 C 824.759 1278.97 795.573 1282.17 784.799 1295.23 C 782.657 1296.61 781.671 1297.38 779.155 1297.95 C 779.37 1294.71 784.77 1288.97 786.623 1285.95 L 787.127 1285.12 z"/>
<path transform="translate(0,0)" fill="rgb(64,202,237)" d="M 750.323 1250.86 C 754.432 1253.34 758.454 1255.81 762.307 1258.68 C 758.682 1267.59 758.097 1273.55 759.138 1283.08 L 754.517 1276.75 C 755.073 1275.89 755.82 1274.84 756.108 1273.86 C 757.693 1268.45 752.781 1255.93 750.323 1250.86 z"/>
<path transform="translate(0,0)" fill="rgb(5,74,167)" d="M 627.316 1154.48 L 632.571 1154.45 C 638.326 1154.42 647.95 1152.96 652.167 1157.13 C 653.161 1164.44 643.152 1170.94 640.068 1177 C 639.065 1178.97 639.191 1179.49 639.75 1181.48 C 641.138 1182.49 642.371 1183.37 644.021 1183.9 C 651.038 1186.16 658.383 1184.08 664.75 1180.9 C 669.155 1178.7 676.063 1174.75 677.677 1169.77 C 676.052 1167.83 676.776 1168.55 674.86 1166.87 C 674.41 1166.48 673.952 1166.1 673.499 1165.71 L 674.006 1164.93 C 675.042 1164.95 675.458 1164.89 676.548 1165.24 C 678.713 1165.92 680.283 1167.16 681.14 1169.16 C 680.535 1172.84 678.6 1175.19 675.929 1177.68 C 669.1 1184.04 659.591 1188.79 650.07 1188.25 C 642.356 1187.82 637.837 1184.64 632.938 1178.94 C 631.686 1178.5 622.718 1186.29 617.396 1187.41 C 608.075 1189.38 598.406 1186.53 590.665 1181.22 C 587.385 1178.98 584.343 1175.84 583.63 1171.79 C 583.193 1169.3 583.153 1168.34 584.89 1166.4 C 586.239 1164.88 587.934 1163.93 589.909 1164.12 L 590.073 1165.76 C 588.83 1166.9 587.583 1167.85 586.823 1169.4 C 586.227 1170.61 587.088 1172.42 587.664 1173.51 C 590.333 1178.56 597.663 1181.8 602.859 1183.24 C 608.802 1184.88 619.022 1185.23 624.265 1181.38 C 626.26 1179.91 626.08 1178.86 626.131 1176.65 C 624.248 1173.26 620.432 1172.05 617.065 1170.48 C 614.224 1165.63 612.437 1160.29 610.493 1155.03 C 616.084 1154.7 621.717 1154.65 627.316 1154.48 z"/>
<path transform="translate(0,0)" fill="rgb(5,74,167)" d="M 670.417 1122.75 C 672.656 1122.86 674.08 1123.12 676.121 1124.06 C 677.304 1127.05 675.479 1130.9 675.303 1134.29 C 680.717 1133.14 682.398 1125.25 689.174 1125.1 C 690.958 1127.01 691.084 1128.34 691.454 1130.88 C 688.046 1134.73 684.485 1137.05 679.44 1138.35 C 674.916 1139.53 670.54 1139.27 666.507 1136.84 C 665.594 1135.47 664.805 1134.8 664.77 1133.07 C 664.678 1128.56 667.443 1125.77 670.417 1122.75 z"/>
<path transform="translate(0,0)" fill="rgb(5,74,167)" d="M 570.984 1122.63 C 578.241 1122.05 590.655 1130.05 596.628 1134.19 C 598.922 1135.79 598.692 1136.19 599.185 1138.86 C 593.486 1140.6 586.855 1139.5 581.693 1136.6 C 575.763 1133.27 572.782 1129.06 570.984 1122.63 z"/>
<path transform="translate(0,0)" fill="rgb(254,137,114)" d="M 189.962 1009.43 L 190.37 963.75 C 191.457 896.971 201.276 831.73 251.691 783.313 C 283.065 753.182 328.206 737.15 371.2 734.132 C 386.173 733.081 401.6 733.758 416.625 733.76 C 436.719 733.694 456.813 733.776 476.906 734.007 C 475.861 737.39 475.006 741.047 473.617 744.294 C 456.138 740.24 406.979 768.912 390.376 779.234 C 379.6 785.933 368.698 793.126 359.458 801.868 C 328.102 831.537 299.63 882.065 289.992 923.848 C 283.587 951.613 282.564 979.943 278.538 1008.07 C 273.352 1039.65 261.931 1113.54 266.209 1143.72 C 268.742 1161.58 276.241 1180.38 286.674 1195.1 C 297.1 1209.81 313.509 1223.15 329.593 1231.17 C 352.196 1242.44 398.014 1252.21 424.039 1258.44 C 431.613 1260.25 439.991 1261.04 447.284 1263.64 C 449.147 1264.3 450.177 1265.3 451.267 1266.92 C 457.897 1282.16 461.552 1298.1 467.679 1313.39 C 480.088 1344.35 506.68 1369.6 537.526 1381.73 C 569.213 1394.18 605.93 1394.02 639.393 1397.53 L 798.496 1412.91 L 917.003 1424.79 C 937.235 1426.67 958.037 1429.57 978.346 1429.14 C 983.749 1455.44 989.654 1484.39 1013.59 1500.55 C 1023 1506.91 1033.99 1509.64 1045.19 1510.37 C 1054.82 1505.82 1061.32 1499.54 1065.21 1489.32 C 1068.69 1480.45 1068.27 1470.52 1064.05 1461.98 C 1058.83 1451.21 1047.74 1446.13 1041.78 1435.7 C 1051.31 1436.82 1060.72 1438.49 1070.17 1440.16 C 1081.71 1455.04 1091.06 1472.31 1101.07 1488.28 L 1152.76 1569.59 C 1151.86 1569.71 1150.95 1569.82 1150.05 1569.91 C 1135.82 1571.35 1121.24 1570.77 1106.95 1570.7 L 1046.77 1570.62 L 832.667 1570.54 C 745.791 1570.85 658.915 1570.68 572.042 1570.04 L 493.55 1569.85 C 481.814 1569.81 469.702 1570.39 458.003 1569.66 C 454.649 1569.45 453.45 1568.45 450.964 1566.41 C 404.793 1577.77 356.62 1586.06 308.858 1586.03 L 256.562 1585.96 L 256.502 1645.19 C 256.502 1657.34 255.977 1669.86 257.095 1681.96 L 229.818 1681.99 L 185.995 1682.04 C 180.367 1680.9 174.424 1680.98 168.709 1680.02 C 153.238 1677.41 139.734 1670.98 125.913 1663.82 C 120.8 1660.76 116.097 1657.05 111.626 1653.12 C 94.7421 1638.28 82.3699 1617.89 80.4214 1595.19 C 79.5059 1584.52 80.1682 1573.67 79.5055 1562.95 C 77.5387 1561 76.653 1559.49 76.1849 1556.78 C 74.8927 1549.3 75.6118 1541 75.4753 1533.37 C 75.3451 1522.43 74.7518 1511.5 73.697 1500.61 C 75.6155 1498.58 77.6299 1497.31 79.9802 1495.87 L 80.0322 1195.72 L 79.9694 1121.77 C 79.9532 1107.53 78.3864 1091.12 81.2216 1077.17 C 84.2268 1062.39 92.8724 1048.04 103.486 1037.46 C 127.096 1013.91 158.079 1009.49 189.962 1009.43 z"/>
<path transform="translate(0,0)" fill="rgb(108,229,212)" d="M 332.507 1467.18 C 340.995 1471.04 354.493 1468.75 363.952 1469.93 C 396.743 1474.02 461.548 1484.07 489.661 1498.98 C 491.892 1515.81 489.639 1532.9 490.468 1549.83 C 478.548 1557.95 464.72 1562.42 450.964 1566.41 C 404.793 1577.77 356.62 1586.06 308.858 1586.03 L 256.562 1585.96 L 256.502 1645.19 C 256.502 1657.34 255.977 1669.86 257.095 1681.96 L 229.818 1681.99 L 185.995 1682.04 C 180.367 1680.9 174.424 1680.98 168.709 1680.02 C 153.238 1677.41 139.734 1670.98 125.913 1663.82 C 120.8 1660.76 116.097 1657.05 111.626 1653.12 C 94.7421 1638.28 82.3699 1617.89 80.4214 1595.19 C 79.5059 1584.52 80.1682 1573.67 79.5055 1562.95 C 77.5387 1561 76.653 1559.49 76.1849 1556.78 C 74.8927 1549.3 75.6118 1541 75.4753 1533.37 C 75.3451 1522.43 74.7518 1511.5 73.697 1500.61 C 75.6155 1498.58 77.6299 1497.31 79.9802 1495.87 C 118.812 1480.98 164.788 1472.9 206.313 1471.67 C 210.062 1479.46 212.335 1487.95 216.72 1495.48 C 221.772 1504.14 228.913 1509.94 238.674 1512.45 C 253.981 1516.38 294.048 1516.02 307.548 1507.97 C 322.493 1499.06 328.443 1483.14 332.507 1467.18 z"/>
<path transform="translate(0,0)" fill="rgb(254,137,114)" d="M 79.5055 1562.95 L 80.648 1561.74 C 93.7962 1564.46 106.248 1569.34 119.432 1572.07 C 155.576 1579.56 193.353 1583.49 230.17 1585.83 C 238.962 1585.88 247.771 1586.05 256.562 1585.96 L 256.502 1645.19 C 256.502 1657.34 255.977 1669.86 257.095 1681.96 L 229.818 1681.99 L 185.995 1682.04 C 180.367 1680.9 174.424 1680.98 168.709 1680.02 C 153.238 1677.41 139.734 1670.98 125.913 1663.82 C 120.8 1660.76 116.097 1657.05 111.626 1653.12 C 94.7421 1638.28 82.3699 1617.89 80.4214 1595.19 C 79.5059 1584.52 80.1682 1573.67 79.5055 1562.95 z"/>
<path transform="translate(0,0)" fill="rgb(254,111,88)" d="M 230.17 1585.83 C 238.962 1585.88 247.771 1586.05 256.562 1585.96 L 256.502 1645.19 C 256.502 1657.34 255.977 1669.86 257.095 1681.96 L 229.818 1681.99 L 230.17 1585.83 z"/>
<path transform="translate(0,0)" fill="rgb(5,74,167)" d="M 211.57 1326.19 C 225.283 1325.62 315.535 1324.27 322.506 1326.96 C 323.206 1327.23 324.516 1328.39 324.928 1328.79 C 332.923 1336.61 331.937 1354.61 332.381 1365.2 C 349.639 1366.37 367.097 1362.36 381.358 1375.08 C 392.371 1384.9 398.727 1399.85 399.032 1414.52 C 399.197 1429.66 393.215 1444.22 382.454 1454.87 C 367.486 1469.56 353.164 1466.12 333.989 1465.85 L 332.507 1467.18 C 328.443 1483.14 322.493 1499.06 307.548 1507.97 C 294.048 1516.02 253.981 1516.38 238.674 1512.45 C 228.913 1509.94 221.772 1504.14 216.72 1495.48 C 212.335 1487.95 210.062 1479.46 206.313 1471.67 C 202.387 1457.36 202.847 1364.88 205.115 1347.07 C 206.104 1339.3 208.012 1333.12 211.57 1326.19 z"/>
<path transform="translate(0,0)" fill="rgb(254,137,114)" d="M 335.351 1394.2 C 343.732 1396.07 350.749 1395.59 358.408 1400.48 C 362.778 1403.27 367.427 1408.09 367.91 1413.55 C 368.464 1419.8 364.787 1426.97 360.851 1431.55 C 352.46 1437.49 345.091 1437.95 335.143 1438.06 C 335.469 1423.46 335.302 1408.81 335.351 1394.2 z"/>
<path transform="translate(0,0)" fill="rgb(108,229,212)" d="M 256.562 1585.96 L 308.858 1586.03 C 308.608 1619.32 308.097 1652.77 308.704 1686.05 L 308.777 1703.26 C 324.467 1707.25 339.758 1713.46 354.921 1719.11 C 463.841 1759.67 558.49 1833.49 618.284 1933.84 C 637.678 1966.39 659.615 2010.44 665.557 2048 L 0 2048 L 0 1662.65 C 27.9064 1660.19 59.1946 1660.52 87.2038 1661.67 C 99.509 1662.18 113.892 1664.3 125.913 1663.82 C 139.734 1670.98 153.238 1677.41 168.709 1680.02 C 174.424 1680.98 180.367 1680.9 185.995 1682.04 L 229.818 1681.99 L 257.095 1681.96 C 255.977 1669.86 256.502 1657.34 256.502 1645.19 L 256.562 1585.96 z"/>
<path transform="translate(0,0)" fill="rgb(0,117,139)" d="M 256.562 1585.96 L 308.858 1586.03 C 308.608 1619.32 308.097 1652.77 308.704 1686.05 L 308.777 1703.26 L 308.656 1846.21 C 308.66 1871.58 308.155 1897.07 308.778 1922.43 C 291.53 1922.68 274.278 1922.75 257.028 1922.63 L 256.982 1774.25 C 257 1754.83 259.168 1722.49 256.176 1704.69 C 255.367 1697.54 257.378 1689.4 257.095 1681.96 C 255.977 1669.86 256.502 1657.34 256.502 1645.19 L 256.562 1585.96 z"/>
<path transform="translate(0,0)" fill="rgb(5,74,167)" d="M 257.095 1681.96 C 257.378 1689.4 255.367 1697.54 256.176 1704.69 C 250.055 1744.17 242.218 1783.32 235.618 1822.72 C 219.759 1824.82 203.709 1824.45 187.749 1824.4 C 187.847 1776.88 187.698 1729.55 185.995 1682.04 L 229.818 1681.99 L 257.095 1681.96 z"/>
<path transform="translate(0,0)" fill="rgb(254,111,88)" d="M 308.858 1586.03 C 356.62 1586.06 404.793 1577.77 450.964 1566.41 C 453.45 1568.45 454.649 1569.45 458.003 1569.66 C 469.702 1570.39 481.814 1569.81 493.55 1569.85 L 572.042 1570.04 C 658.915 1570.68 745.791 1570.85 832.667 1570.54 L 1046.77 1570.62 L 1106.95 1570.7 C 1121.24 1570.77 1135.82 1571.35 1150.05 1569.91 C 1150.95 1569.82 1151.86 1569.71 1152.76 1569.59 C 1165.78 1591.4 1179.69 1612.7 1193.28 1634.15 C 1204.23 1651.43 1214.81 1668.98 1226.3 1685.9 C 1119.16 1687.18 1011.89 1686.08 904.737 1686.08 L 308.704 1686.05 C 308.097 1652.77 308.608 1619.32 308.858 1586.03 z"/>
<path transform="translate(0,0)" fill="rgb(98,191,250)" d="M 626.488 464.741 C 636.246 486.581 647.674 508.299 654.616 531.2 C 654.914 531.488 655.209 531.78 655.511 532.064 C 664.17 540.25 685.086 547.212 685.459 560.468 C 685.59 565.153 683.092 570.757 679.699 573.958 C 674.141 579.199 665.858 578.231 658.824 578.023 C 659.521 591.644 660.288 605.389 661.699 618.953 C 663.117 620.141 662.899 619.473 663.031 620.851 C 663.394 624.649 663.054 628.467 662.177 632.184 C 662.114 632.52 662.045 632.855 661.987 633.192 C 658.778 651.679 665.212 668.513 646.779 681.404 C 631.249 692.265 611.355 693.837 593.06 695.377 C 597.868 707.222 598.583 723.566 603.871 734.095 L 604.731 736.662 C 603.585 749.055 598.431 758.456 588.837 766.564 C 576.533 776.964 562.339 781.27 546.282 779.855 C 522.838 777.79 491.205 768.637 476.056 749.247 C 474.784 747.619 474.209 746.244 473.617 744.294 C 475.006 741.047 475.861 737.39 476.906 734.007 C 477.897 732.596 478.597 731.372 479.129 729.715 C 482.76 718.392 483.638 689.758 478.667 679.363 C 478.39 668.124 490.887 656.695 496.56 647.369 C 498.928 643.477 500.525 639.077 502.17 634.841 C 499.653 635.647 497.119 636.4 494.57 637.101 C 488.883 638.624 483.249 637.795 478.249 634.605 C 472.25 630.778 468.893 623.849 467.288 617.133 C 465.119 608.056 465.625 597.683 470.912 589.72 C 478.351 578.516 493.076 579.769 504.895 577.643 C 505.149 561.366 502.602 520.736 506.057 507.66 C 510.712 503.989 551.28 502.275 560.474 500.648 C 571.604 498.72 582.518 495.708 593.061 491.655 C 606.692 486.296 620.358 478.761 626.488 464.741 z"/>
<path transform="translate(0,0)" fill="rgb(5,74,167)" d="M 662.177 632.184 C 648.837 632.165 633.084 625.044 623.512 615.62 C 620.185 612.343 618.107 608.747 618.227 603.987 C 618.283 601.782 618.034 601.621 619.73 600.061 C 632.996 601.831 647.177 613.149 659.845 618.221 L 661.699 618.953 C 663.117 620.141 662.899 619.473 663.031 620.851 C 663.394 624.649 663.054 628.467 662.177 632.184 z"/>
<path transform="translate(0,0)" fill="rgb(5,74,167)" d="M 616.766 527.859 C 622.082 528.14 627.655 530.017 631.51 533.824 C 633.543 535.832 635.225 538.343 634.854 541.355 C 634.379 545.208 631.667 547.699 628.71 549.807 C 626.471 550.074 624.197 550.371 621.941 550.411 C 618.528 550.471 615.02 549.109 612.608 546.673 C 610.684 544.731 609.705 542.468 609.853 539.727 C 610.134 534.498 613.202 531.332 616.766 527.859 z"/>
<path transform="translate(0,0)" fill="rgb(5,74,167)" d="M 478.667 679.363 C 465.479 671.145 440.409 649.389 430.232 637.759 C 403.484 607.193 394.84 554.638 397.457 515.292 C 399.367 486.566 408.363 471.362 429.889 452.734 C 465.21 422.168 503.132 405.41 550.102 408.903 C 573.1 410.613 603.846 418.011 619.243 436.674 C 626.584 445.572 627.552 453.73 626.488 464.741 C 620.358 478.761 606.692 486.296 593.061 491.655 C 582.518 495.708 571.604 498.72 560.474 500.648 C 551.28 502.275 510.712 503.989 506.057 507.66 C 502.602 520.736 505.149 561.366 504.895 577.643 C 493.076 579.769 478.351 578.516 470.912 589.72 C 465.625 597.683 465.119 608.056 467.288 617.133 C 468.893 623.849 472.25 630.778 478.249 634.605 C 483.249 637.795 488.883 638.624 494.57 637.101 C 497.119 636.4 499.653 635.647 502.17 634.841 C 500.525 639.077 498.928 643.477 496.56 647.369 C 490.887 656.695 478.39 668.124 478.667 679.363 z"/>
<path transform="translate(0,0)" fill="rgb(254,111,88)" d="M 1394.21 1572.13 C 1395.78 1571.27 1397.25 1570.42 1399.06 1570.17 C 1415.36 1567.84 1506.62 1573.07 1524.61 1578.05 C 1526.24 1578.5 1529.35 1579.45 1530.1 1581.07 C 1531.44 1584 1532.06 1670.7 1531.76 1680.01 C 1528.38 1680.05 1525.15 1679.38 1522.46 1681.53 C 1522.46 1683.38 1522.56 1684.89 1523.02 1686.69 C 1496.78 1684.29 1468.98 1686.03 1442.56 1686.04 C 1448.47 1682.58 1454.56 1679.39 1460.56 1676.1 C 1438.63 1641.35 1415.85 1607.03 1394.21 1572.13 z"/>
<path transform="translate(0,0)" fill="rgb(5,74,167)" d="M 1531.76 1680.01 C 1553.46 1680.05 1576.46 1681.68 1598.02 1679.6 L 1597.97 1796.49 C 1587.16 1796.19 1554.47 1799.4 1547.77 1792.56 C 1536.15 1780.72 1534.63 1706.22 1523.02 1686.69 C 1522.56 1684.89 1522.46 1683.38 1522.46 1681.53 C 1525.15 1679.38 1528.38 1680.05 1531.76 1680.01 z"/>
<path transform="translate(0,0)" fill="rgb(5,74,167)" d="M 1424.04 1694.98 C 1429.48 1698.4 1476.18 1771.68 1492.61 1786.23 C 1504.26 1796.55 1520.71 1803.16 1534.54 1810.13 C 1563.02 1824.49 1592.57 1837.49 1619.9 1853.97 C 1622.87 1855.76 1629.55 1859.33 1629.92 1862.92 C 1630.18 1865.53 1629.83 1866.52 1628.48 1868.57 C 1616.6 1873.51 1537.09 1871.08 1518.5 1871.07 L 1405.87 1871.18 C 1387.15 1871.21 1368.12 1872.04 1349.46 1871.1 C 1344.02 1870.83 1338.87 1870.09 1335.24 1865.56 C 1325.35 1853.21 1336.6 1797.51 1338.55 1780.23 C 1338.46 1779.99 1338.36 1779.76 1338.26 1779.52 C 1338.1 1779.12 1337.92 1778.73 1337.76 1778.34 C 1332.69 1766.1 1323.85 1755.26 1316.11 1744.6 C 1350.86 1726.23 1388.07 1710.88 1424.04 1694.98 z"/>
<path transform="translate(0,0)" fill="rgb(108,229,212)" d="M 502.191 55.8769 C 504.902 56.0831 508.024 56.3189 510.378 57.8019 C 521.516 64.8156 518.906 103.299 521.175 115.408 C 521.772 118.592 522.916 121.835 525.912 123.497 C 539.274 130.912 569.62 115.945 592.816 132.378 C 619.319 151.156 601.803 185.073 605.65 210.342 C 626.752 222.462 650.883 209.774 674.429 220.952 C 691.121 228.7 702.065 245.146 702.766 263.534 C 703.11 270.68 702.252 278.85 703.559 285.811 C 704.301 289.762 705.935 293.761 707.297 297.542 L 702.733 306.431 C 697.877 307.07 693.037 308.094 688.216 308.964 C 686.841 309.131 685.747 309.142 684.398 308.672 C 662.244 300.96 678.232 261.408 672.825 251.317 C 666.737 239.956 634.363 245.579 621.795 242.789 C 545.65 225.883 591.121 172.818 578.517 155.813 C 572.807 148.108 555.405 152.095 546.95 152.344 C 541.534 152.458 536.119 152.064 530.776 151.169 C 518.447 149.11 506.293 144.581 498.93 133.88 C 488.947 119.373 487.076 91.4907 490.573 74.5408 C 492.181 66.7517 495.389 60.2526 502.191 55.8769 z"/>
<path transform="translate(0,0)" fill="rgb(108,229,212)" d="M 101.013 209.476 C 107.772 209.691 116.28 212.606 122.036 216.005 C 136.64 224.627 147.258 244.314 148.321 261.024 C 149.054 272.539 147.27 285.279 150.339 296.423 C 160.377 307.883 197.689 301.884 215.305 310.228 C 258.492 330.684 227.573 376.335 236.344 397.992 C 246.154 422.216 285.518 404.199 300.226 410.743 C 303.5 412.2 306.837 414.935 307.824 418.531 C 308.518 421.062 307.812 423.395 306.5 425.559 C 303.1 431.167 297.429 432.543 291.582 434.245 C 283.763 436.452 276.292 437.321 268.177 437.556 C 251.332 438.044 234.482 434.342 222.138 422.077 C 201.897 401.962 210.48 372.362 209.516 347.338 C 209.33 342.5 208.366 337.281 204.312 334.147 C 192.036 324.655 151.387 338.481 131.193 319.1 C 112.87 301.513 119.879 269.776 118.871 247.053 C 112.216 235.4 103.488 234.503 92.0271 229.724 C 87.6 227.877 84.3481 226.414 82.4038 221.801 C 82.2686 218.493 82.9987 216.068 85.3026 213.646 C 89.2773 209.467 95.686 209.804 101.013 209.476 z"/>
<path transform="translate(0,0)" fill="rgb(108,229,212)" d="M 89.8598 471.207 C 106.694 470.436 135.19 476.873 148.795 487.258 C 161.48 496.941 163.846 516.127 160.461 530.876 C 158.682 538.626 154.162 549.097 155.702 556.911 C 158.58 571.511 185.406 563.111 195.552 563.209 C 206.255 563.312 216.707 565.937 225.623 572.049 C 240.641 582.342 252.226 611.504 250.096 629.587 C 249.069 638.305 243.385 647.516 245.275 656.283 C 245.583 657.711 245.828 658.516 245.735 660.031 C 245.561 662.851 240.737 666.42 238.696 668.141 L 237.199 668.003 L 235.537 668.911 C 233.445 670.225 231.857 671.035 229.448 671.606 C 212.367 664.15 225.857 618.143 216.113 602.49 C 206.307 586.736 175.731 596.715 159.606 592.953 C 149.272 590.542 139.286 583.333 133.775 574.239 C 123.777 557.742 129.418 542.367 133.43 525.439 C 134.733 519.942 136.159 509.817 132.239 505.016 C 127.163 498.799 90.8453 499.953 81.2788 498.53 C 78.2439 493.393 76.1856 487.799 73.9469 482.283 C 78.5698 475.398 81.7041 472.981 89.8598 471.207 z"/>
<path transform="translate(0,0)" fill="rgb(108,229,212)" d="M 342.516 148.168 C 347.408 148.498 351.871 148.62 355.934 151.65 C 367.106 159.983 364.768 181.309 366.631 193.846 C 368.62 196.332 370.796 198.562 373.029 200.829 C 390.147 198.568 410.969 194.821 427.249 202.396 C 435.696 206.327 442.454 212.691 446.657 221.019 C 459.451 246.365 443.658 271.112 450.961 289.62 C 458.236 308.059 488.264 298.385 502.82 305.508 C 510.968 309.495 513.451 316.281 516.189 324.278 C 512.584 327.366 508.975 329.612 504.865 331.936 C 501.644 333.744 499.797 334.767 496.097 333.958 C 485.694 331.684 475.077 331.214 464.611 329.501 C 457.345 328.312 449.92 325.094 443.822 320.989 C 407.068 296.241 432.854 246.263 420.898 231.701 C 413.418 222.59 390.287 227.045 379.778 226.651 C 367.631 226.196 356.077 221.18 347.883 212.126 C 334.716 197.575 334.45 180.84 335.441 162.477 C 334.323 160.788 332.302 159.055 331.54 157.241 C 330.957 155.853 330.811 154.645 331.603 153.363 C 333.746 149.893 338.873 149.133 342.516 148.168 z"/>
<path transform="translate(0,0)" fill="rgb(108,229,212)" d="M 774.771 58.0448 C 775.781 57.9856 776.793 57.9106 777.805 57.9145 C 784.986 57.9418 788.599 61.9049 793.24 66.7519 C 791.394 78.4688 788.147 113.24 792.981 122.879 C 803.259 131.154 826.522 123.678 839.343 124.145 C 850.641 124.556 863.574 126.716 871.447 135.557 C 885.997 151.894 881.622 181.314 880.034 201.271 C 884.023 203.347 888.459 205.199 891.096 209.004 C 893.012 211.769 893.994 216.571 892.908 219.729 C 891.306 224.386 886.542 228.381 882.11 230.218 C 875.217 230.141 869.254 229.032 862.661 227.188 C 844.202 205.834 855.589 183.955 855.049 159.15 L 855.005 157.485 C 836.333 145.192 815.506 155.7 794.768 151.097 C 783.622 148.624 773.501 143.227 767.386 133.267 C 756.029 114.772 761.796 90.9765 766.585 71.3583 C 768.03 65.4373 769.409 61.3224 774.771 58.0448 z"/>
<path transform="translate(0,0)" fill="rgb(108,229,212)" d="M 170.885 75.2308 C 174.905 75.0275 179.069 75.2111 183.051 75.8466 C 204.704 79.3024 219.484 101.289 220.781 122.313 C 221.559 134.912 215.838 152.195 222.005 163.806 C 228.403 175.854 249.893 169.143 255.834 179.589 C 257.388 182.32 256.938 185.609 255.991 188.457 C 253.791 195.073 248.979 198.665 243.07 201.804 C 236.81 202.324 231.413 201.101 225.636 198.647 C 188.45 182.849 188.962 162.76 189.622 127.469 C 189.747 120.79 190.206 113.309 187.332 107.099 C 183.09 97.9366 167.758 98.1957 159.467 94.9635 C 156.794 93.9212 155.615 92.5215 154.425 89.9303 C 154.283 86.9133 154.299 85.1464 156.066 82.4867 C 159.196 77.7733 165.75 76.237 170.885 75.2308 z"/>
<path transform="translate(0,0)" fill="rgb(190,211,230)" d="M 1196.29 73.4253 C 1218.83 74.7613 1243.1 76.0761 1265.33 72.1562 C 1252.11 89.155 1244.38 121.276 1237.07 142.22 C 1235.7 146.879 1233.8 151.427 1232.09 155.969 C 1231.73 155.69 1231.37 155.405 1231.01 155.132 C 1217.3 144.827 1188.37 94.3391 1177.3 77.0532 C 1183.8 75.3662 1189.57 73.9667 1196.29 73.4253 z"/>
<path transform="translate(0,0)" fill="rgb(190,211,230)" d="M 988.529 365.61 C 992.492 369.329 1023.06 424.964 1027.54 434.379 C 1029.37 438.204 1030.7 442.263 1031.95 446.303 C 1019.93 447.676 1001 443.424 988.242 442.288 C 972.097 441.584 955.8 439.171 939.604 438.098 C 958.011 417.141 972.465 388.794 988.529 365.61 z"/>
<path transform="translate(0,0)" fill="rgb(190,211,230)" d="M 1133.65 467.39 C 1144.3 468.676 1155.4 468 1166.14 468.626 C 1187.08 469.846 1207.91 471.554 1228.88 472.484 C 1217.59 485.27 1208.04 500.812 1197.72 514.5 C 1189.63 524.235 1183.16 534.366 1176.72 545.231 C 1171.8 536.951 1167.57 528.306 1162.66 520.03 C 1152.42 502.804 1141.24 486.02 1133.65 467.39 z"/>
<path transform="translate(0,0)" fill="rgb(190,211,230)" d="M 1121.43 247.921 C 1129.86 251.557 1137.92 256.347 1146.3 260.164 C 1163.91 268.181 1183.49 275.97 1201.95 281.758 C 1190.03 290.73 1178.85 301.955 1168.13 312.364 C 1157.53 323.091 1145.71 332.624 1135.09 343.408 C 1132.5 311.293 1126.14 279.762 1121.43 247.921 z"/>
<path transform="translate(0,0)" fill="rgb(190,211,230)" d="M 1053.09 571.281 C 1053.23 571.535 1053.42 571.771 1053.53 572.044 C 1056.43 579.161 1041.11 642.853 1037.51 655.035 C 1024.05 646.223 1012.49 635.011 998.948 626.299 C 988.964 619.84 979.025 613.313 969.131 606.718 C 984.227 593.915 1031.71 581.117 1053.09 571.281 z"/>
<path transform="translate(0,0)" fill="rgb(190,211,230)" d="M 816.052 535.858 C 824.854 544.267 832.665 554.035 841.097 562.859 C 848.457 570.559 856.642 577.467 863.775 585.379 C 866.991 588.946 872.385 594.948 872.121 599.951 C 858.986 603.951 842.602 603.97 828.903 605.272 C 812.517 607.378 795.187 608.463 779.502 613.9 C 793.71 588.901 804.037 561.953 816.052 535.858 z"/>
<path transform="translate(0,0)" fill="rgb(190,211,230)" d="M 1022.1 71.7221 C 1024.78 73.2708 1027.9 75.7183 1030.16 77.8317 L 1029.48 79.1458 C 1027.21 79.2786 1025.73 79.2886 1023.78 80.5311 C 1023.89 81.3027 1023.78 82.1399 1024.11 82.8459 C 1025.67 86.1926 1068.82 136.03 1074.34 141.852 C 1063.89 145.185 1051.1 146.106 1040.23 148.16 C 1022 150.646 1003.89 153.856 985.917 157.784 C 996.284 136.915 1003.23 113.626 1012.43 92.0878 C 1015.35 85.2515 1017.97 77.9331 1022.1 71.7221 z"/>
<path transform="translate(0,0)" fill="rgb(190,211,230)" d="M 825.623 310.867 C 830.651 317.335 854.485 377.375 858.892 389.658 C 845.362 385.095 830.765 382.896 816.769 380.204 C 804.873 377.361 782.485 376.189 773.68 367.489 C 774.887 362.895 776.725 359.263 779.692 355.53 C 784.484 349.502 791.004 344.402 796.723 339.237 C 806.818 330.121 816.657 321.119 825.623 310.867 z"/>
<path transform="translate(0,0)" fill="rgb(190,211,230)" d="M 1645.04 65.895 C 1659.71 73.6624 1673.9 82.3052 1688.58 90.0416 C 1697.98 94.9905 1707.76 99.1285 1717.23 103.933 C 1708.96 111.575 1699.77 116.838 1690.06 122.405 L 1684.98 126.515 C 1673.96 135.506 1660.14 142.215 1648.02 149.793 C 1643.49 122.867 1643.86 93.0515 1645.04 65.895 z"/>
<path transform="translate(0,0)" fill="rgb(190,211,230)" d="M 1871.97 86.8569 C 1874.86 87.0202 1877.7 87.2285 1880.36 88.4626 C 1889.93 92.8971 1898.92 98.8586 1908.4 103.54 C 1922.45 110.476 1937.59 116.198 1950.98 124.321 C 1940.9 127.195 1932.86 130.832 1923.95 136.39 C 1910.05 145.99 1896.3 155.919 1881.33 163.813 C 1880.93 154.791 1878.62 145.76 1877.45 136.795 C 1875.39 120.175 1873.57 103.528 1871.97 86.8569 z"/>
<path transform="translate(0,0)" fill="rgb(5,74,167)" d="M 1764.59 1715.23 C 1770.71 1738.55 1772.29 1764.78 1775.73 1788.72 C 1760.39 1784.53 1745.18 1780.04 1730.24 1774.6 C 1721.48 1771.24 1712.43 1768.58 1704.32 1763.78 C 1719.14 1748.18 1746.84 1729.5 1764.59 1715.23 z"/>
<path transform="translate(0,0)" fill="rgb(5,74,167)" d="M 1758.75 1883.23 L 1759.45 1883.78 C 1760.12 1889.43 1746.02 1951.65 1743.05 1961.06 C 1734.72 1952.45 1727.13 1943.14 1718.75 1934.53 C 1709.39 1924.74 1699.59 1915.93 1688.89 1907.63 C 1711.41 1897.84 1735.25 1890.24 1758.75 1883.23 z"/>
<path transform="translate(0,0)" fill="rgb(5,74,167)" d="M 1946.95 1712.94 L 1947.68 1713.53 C 1949.56 1719.17 1948.12 1774.28 1948.18 1785.12 C 1932.97 1780.02 1917.81 1771.03 1903.43 1763.8 L 1879.76 1752.41 C 1902.89 1740.77 1923.67 1724.48 1946.95 1712.94 z"/>
<path transform="translate(0,0)" fill="rgb(5,74,167)" d="M 1861.51 1888.14 C 1885.38 1896.52 1908.84 1906.75 1932.43 1915.94 L 1904.83 1934.12 C 1892.33 1943.13 1879.28 1951.11 1866.11 1959.09 C 1862.9 1936.41 1861.25 1911.08 1861.51 1888.14 z"/>
<path transform="translate(0,0)" fill="rgb(190,211,230)" d="M 80.8727 701.862 C 83.3049 703.6 85.6641 706.077 87.8166 708.178 C 103.036 723.031 134.956 734.178 154.511 745.534 C 143.039 745.801 133.493 747.41 122.743 751.441 C 122.387 751.576 122.032 751.716 121.673 751.845 C 104.485 758.057 89.8625 769.08 72.3111 775.043 C 75.2719 750.776 76.8569 725.916 80.8727 701.862 z"/>
<path transform="translate(0,0)" fill="rgb(5,74,167)" d="M 1555.56 1927.53 C 1562.31 1932.34 1588.42 1979.54 1595.36 1991.05 C 1585.38 1990.94 1575.44 1990.34 1565.48 1989.77 C 1551.47 1988.41 1537.19 1988.17 1523.13 1987.47 C 1532.67 1966.81 1544.02 1947.12 1555.56 1927.53 z"/>
<path transform="translate(0,0)" fill="rgb(190,211,230)" d="M 1489 107.328 C 1493.58 110.328 1497.96 115.369 1502.32 118.899 C 1515.82 129.837 1534.54 144.318 1550.24 151.69 C 1539.77 153.629 1529.32 155.461 1519.04 158.248 C 1503.49 161.748 1486 165.715 1471.62 172.619 C 1482.6 153.848 1484.72 128.54 1489 107.328 z"/>
<path transform="translate(0,0)" fill="rgb(5,74,167)" d="M 1128.8 1773.03 C 1131.53 1772.9 1134.38 1773.39 1136.98 1774.24 C 1141.89 1775.86 1146.49 1779.28 1148.7 1784.04 C 1150.64 1788.2 1150.74 1792.78 1149.12 1797.07 C 1146.62 1803.68 1141.61 1806.3 1135.48 1809.06 C 1131.88 1809.18 1128.77 1808.55 1125.4 1807.24 C 1120.32 1805.26 1116 1801.53 1113.94 1796.41 C 1112.19 1792.13 1112.32 1787.32 1114.3 1783.14 C 1117.34 1776.87 1122.53 1775.01 1128.8 1773.03 z"/>
<path transform="translate(0,0)" fill="rgb(5,74,167)" d="M 1142.86 1974.99 C 1147.18 1974.91 1152 1975.39 1156.18 1976.53 C 1161.86 1978.07 1167.86 1981.81 1170.61 1987.19 C 1172.04 1990.01 1172.28 1992.8 1171.25 1995.82 C 1169.44 2001.1 1163.93 2004.16 1159.24 2006.41 C 1155.04 2007.27 1148.79 2007.83 1144.59 2006.96 C 1140.14 2006.03 1135.58 2002.83 1133.22 1998.96 C 1131.16 1995.57 1130.29 1991.49 1131.38 1987.62 C 1133.08 1981.62 1137.58 1977.84 1142.86 1974.99 z"/>
<path transform="translate(0,0)" fill="rgb(5,74,167)" d="M 1257.3 1972.07 C 1259.46 1971.8 1261.8 1971.6 1263.93 1972.2 C 1268.37 1973.45 1272.83 1976.99 1275.18 1980.94 C 1278.15 1985.99 1278.84 1992.06 1277.09 1997.65 C 1275.2 2003.48 1270.42 2005.73 1265.31 2008.35 C 1261.83 2008.84 1257.9 2009.63 1254.41 2008.86 C 1250.32 2007.96 1246.63 2004.87 1244.69 2001.2 C 1242.35 1996.79 1242.32 1991.43 1243.78 1986.73 C 1246.1 1979.25 1250.51 1975.45 1257.3 1972.07 z"/>
<path transform="translate(0,0)" fill="rgb(5,74,167)" d="M 786.781 1771.11 C 789.672 1770.97 792.674 1770.76 795.56 1771.03 C 800.023 1771.44 804.506 1773.98 807.26 1777.49 C 809.831 1780.76 810.698 1784.96 810.201 1789.05 C 809.232 1797.02 804.154 1802.68 797.939 1807.22 C 795.575 1807.64 793.382 1807.74 791.056 1807.05 C 785.794 1805.48 781.232 1802.2 778.583 1797.34 C 776.068 1792.72 775.3 1787.09 776.846 1782.03 C 778.555 1776.44 781.848 1773.86 786.781 1771.11 z"/>
<path transform="translate(0,0)" fill="rgb(5,74,167)" d="M 674.95 1775.2 C 679.27 1774.72 684.599 1774 688.805 1775.11 C 692.922 1776.2 697.013 1779.2 699.081 1782.94 C 700.888 1786.22 701.291 1790.32 700.22 1793.9 C 698.265 1800.42 693.839 1804.39 688.169 1807.73 C 685.139 1807.74 681.972 1807.76 679.02 1807 C 673.425 1805.56 667.896 1801.87 665.038 1796.75 C 663.092 1793.27 662.561 1789.34 663.89 1785.54 C 665.8 1780.09 669.991 1777.56 674.95 1775.2 z"/>
<path transform="translate(0,0)" fill="rgb(5,74,167)" d="M 808.197 1970.26 C 809.651 1970.32 811.123 1970.35 812.561 1970.62 C 818.433 1971.68 821.644 1976.96 824.777 1981.49 C 825.4 1987.95 826.979 1996.57 822.852 2002.16 C 819.727 2006.39 815.005 2006.83 810.14 2007.49 C 807.392 2006.44 804.422 2005.4 801.903 2003.86 C 797.322 2001.07 793.85 1996.05 792.606 1990.85 C 791.636 1986.8 792.107 1982.33 794.498 1978.84 C 797.692 1974.18 802.776 1971.4 808.197 1970.26 z"/>
<path transform="translate(0,0)" fill="rgb(5,74,167)" d="M 920.959 1974.03 C 923.265 1973.98 925.69 1973.88 927.969 1974.3 C 933.499 1975.32 939.292 1979.69 942.182 1984.44 C 944.563 1988.36 945.306 1992.98 943.945 1997.39 C 942.165 2003.15 937.192 2005.49 932.217 2008.11 C 929.264 2008.69 925.917 2008.94 922.952 2008.29 C 918.374 2007.28 914.401 2004.46 911.945 2000.47 C 909.433 1996.38 908.94 1991.55 910.008 1986.93 C 911.48 1980.55 915.615 1977.31 920.959 1974.03 z"/>
<path transform="translate(0,0)" fill="rgb(5,74,167)" d="M 1035.64 1975.01 C 1038.7 1974.88 1041.29 1975.23 1043.99 1976.72 C 1048.57 1979.28 1051.87 1983.65 1053.06 1988.77 C 1054.31 1993.95 1053.64 1999.69 1050.71 2004.22 C 1047.76 2008.79 1043.73 2009.87 1038.67 2011 C 1036.05 2010.46 1033.4 2009.91 1030.89 2008.95 C 1026.18 2007.16 1022.73 2004.56 1020.79 1999.79 C 1019.13 1995.73 1019.45 1991.07 1021.26 1987.11 C 1024.38 1980.24 1028.85 1977.65 1035.64 1975.01 z"/>
<path transform="translate(0,0)" fill="rgb(5,74,167)" d="M 902.28 1773.72 C 911.284 1770.86 920.915 1775.74 923.934 1784.69 C 926.953 1793.64 922.247 1803.36 913.353 1806.54 C 907.454 1808.66 900.875 1807.42 896.148 1803.3 C 891.42 1799.19 889.28 1792.85 890.552 1786.72 C 891.823 1780.58 896.308 1775.61 902.28 1773.72 z"/>
<path transform="translate(0,0)" fill="rgb(5,74,167)" d="M 1089.1 1876.18 C 1092.59 1875.76 1096.14 1875.18 1099.48 1876.64 C 1103.57 1878.44 1106.63 1882.6 1108.17 1886.68 C 1110.19 1892.05 1110.11 1898.54 1107.45 1903.69 C 1105.11 1908.23 1101.57 1909.64 1096.91 1911.06 C 1093.97 1911.1 1090.52 1911.38 1087.66 1910.79 C 1083.94 1910.03 1080.18 1906.07 1078.38 1902.89 C 1076.05 1898.81 1075.85 1893.89 1077.05 1889.42 C 1078.94 1882.44 1083.1 1879.68 1089.1 1876.18 z"/>
<path transform="translate(0,0)" fill="rgb(5,74,167)" d="M 973.822 1875.25 C 975.886 1875.1 977.963 1874.95 980.032 1874.97 C 985.371 1875.02 990.824 1876.57 994.521 1880.63 C 997.186 1883.55 998.194 1887.37 997.798 1891.26 C 996.978 1899.29 991.828 1904.07 986.102 1909.01 C 983.818 1909.08 981.424 1909.19 979.198 1908.59 C 973.473 1907.06 967.522 1902.81 964.534 1897.67 C 962.517 1894.2 961.671 1889.96 962.897 1886.07 C 964.69 1880.38 968.725 1877.75 973.822 1875.25 z"/>
<path transform="translate(0,0)" fill="rgb(5,74,167)" d="M 1015.82 1771.12 C 1018.06 1770.99 1020.32 1770.84 1022.56 1770.91 C 1026.44 1771.06 1030.1 1772.77 1032.69 1775.66 C 1035.46 1778.74 1036.51 1782.83 1036.3 1786.9 C 1035.82 1795.82 1030.69 1801.99 1024.41 1807.8 C 1022.63 1808 1020.78 1808.23 1018.98 1808.16 C 1015.17 1808.01 1011.16 1805.86 1008.72 1802.98 C 1005.28 1798.92 1004.45 1793.21 1005.11 1788.07 C 1006.16 1779.97 1009.59 1776.01 1015.82 1771.12 z"/>
<path transform="translate(0,0)" fill="rgb(5,74,167)" d="M 868.443 1875.17 C 871.206 1875.2 873.865 1875.27 876.523 1876.12 C 880.876 1877.5 884.92 1880.26 886.886 1884.5 C 888.534 1888.06 888.414 1891.89 887.108 1895.52 C 884.897 1901.69 879.562 1905.18 873.968 1907.98 C 870.119 1908.19 866.71 1908.21 863.08 1906.7 C 858.936 1904.99 855.569 1901.98 854.089 1897.66 C 852.616 1893.35 853.154 1888.78 855.33 1884.8 C 858.456 1879.1 862.453 1877.08 868.443 1875.17 z"/>
<path transform="translate(0,0)" fill="rgb(5,74,167)" d="M 1204.6 1879.1 C 1207.38 1878.9 1210.24 1878.61 1212.96 1879.39 C 1216 1880.26 1218.82 1882.14 1220.28 1885.02 C 1223.26 1890.89 1221.25 1897.44 1219.34 1903.27 C 1215.28 1907.3 1211.12 1909.39 1205.77 1911.29 C 1202.66 1911.28 1199.53 1911.16 1196.59 1910.04 C 1192.94 1908.66 1190.09 1906.19 1188.71 1902.48 C 1187.12 1898.18 1188 1893.61 1190.05 1889.64 C 1193.3 1883.31 1198.12 1881.17 1204.6 1879.1 z"/>
<path transform="translate(0,0)" fill="rgb(5,74,167)" d="M 754.093 1877.14 C 757.896 1877 761.706 1876.81 765.327 1878.18 C 770.018 1879.97 774.164 1883.77 775.997 1888.48 C 777.422 1892.15 777.374 1896.03 775.586 1899.56 C 773.153 1904.36 769.744 1906.29 764.855 1908.09 C 761.797 1908.16 758.511 1908.4 755.5 1907.78 C 750.728 1906.79 746.16 1903.09 743.746 1898.92 C 741.757 1895.49 741.126 1891.44 742.336 1887.62 C 744.253 1881.58 748.712 1879.7 754.093 1877.14 z"/>
<path transform="translate(0,0)" fill="rgb(64,202,237)" d="M 1247.01 1723.53 C 1253.31 1727.84 1253.47 1735.72 1258.18 1741.15 C 1262.5 1746.14 1272.84 1749.75 1275.24 1755.31 C 1275.82 1756.65 1276.24 1757.64 1276.98 1758.87 C 1279.35 1757.86 1279.68 1757.51 1282.15 1758.08 C 1278.24 1760.05 1272.94 1760.84 1268.61 1759.72 C 1259.04 1757.27 1256.32 1742.57 1253.13 1734.65 C 1251.57 1730.79 1249.14 1727.1 1247.01 1723.53 z"/>
</svg>