<svg xmlns="http://www.w3.org/2000/svg" width="1365.333" height="1365.333" preserveAspectRatio="xMidYMid meet" version="1.0" viewBox="0 0 1024 1024"><g fill="#000" stroke="none"><path d="M247.5 29.6c-3 3.2-3.9 9-3.3 20.3.9 14.4 4.7 20.4 15.4 24.2 5 1.8 7.4 2 15.7 1.6 9-.5 10-.3 12.2 1.6l2.5 2.2-1.5 8c-1.9 10.6-1.8 15.2.4 20 4.1 9.2 14.1 13.8 30.5 14.1 15.7.4 16.1.7 16.1 15.2 0 9.7.3 11.4 2.1 13.9 2 2.5 2.7 2.8 7.9 2.7 6.7-.2 7.8-1.3 7-6.9-.4-2.2-.8-7.6-1-12.1-.4-9.5-2.9-15.8-8.3-20.5-6.5-5.7-10.4-6.9-23.8-6.9-10.9 0-12.4-.2-14.9-2.2-2.6-2-2.7-2.4-1.9-7.2.4-2.8.8-8.9.8-13.6 0-10.8-2-15.2-8.9-19.5-4.8-2.9-5.1-3-18.3-3-15.8 0-16.2-.2-16.2-9.9 0-9.2-2.5-21.8-4.6-23.3-2.7-2-5.3-1.6-7.9 1.3m6.9-.3c2.2 1.6 4.6 13.6 4.6 22.8 0 10.3.2 10.4 16.7 10.4 13.6 0 13.9 0 18.1 2.9 6.8 4.7 8.6 8.5 8.6 18.6 0 4.7-.4 10.8-.9 13.7-.7 4.7-.5 5.4 1.8 7.7 2.5 2.5 3 2.6 15.4 2.6 12.3 0 13 .1 17.9 3 9.6 5.5 13.5 12.1 13.9 24 .2 4.1.6 9.1.9 11 .9 4.9-.4 6.4-6 6.4-4.4.1-5-.2-7.2-3.4-2.1-3.2-2.3-4.3-2-13.9.3-10.1.2-10.4-2.3-12.3-2.1-1.6-4.4-1.9-14-2.1-10.2-.2-12-.5-17.4-3-7.2-3.4-10.7-6.5-13.1-11.9-1.6-3.6-1.7-4.9-.6-13.1.7-5.1 1.4-10.1 1.8-11.3.3-1.2-.2-2.9-1.4-4.4-1.8-2.2-2.5-2.4-14.8-2.4-13.9-.1-18.1-1.3-23-6.8-5-5.4-5.9-8.6-5.9-21.3 0-11 .2-12.3 2.3-15.3 2.5-3.5 3.9-3.9 6.6-1.9m130.8-.4c-3.7 2.3-6.9 26.9-4.3 33.4 1.8 4.7 6 9.4 9.8 11.2 4.9 2.3 16.3 3.5 21.3 2.3 4.7-1.2 10.1-.4 12.9 2 2.1 1.6 2.1 2 .9 12.2-1.3 12.4-.7 17 3.1 21.2 2.2 2.4 3.7 3.2 7.7 3.5 4.2.4 5.2.2 7.1-1.9 3.3-3.5 3.9-7.2 1.5-9.6-1.1-1.1-2.6-2.2-3.3-2.4-1-.3-1.4-3.4-1.4-12.9-.1-9.9-.5-13.1-1.9-15.9-4.8-9.3-10.4-11.4-28.1-10.4-10.4.6-12.2.4-13.4-1-1-1.1-1.3-5.4-1.4-15.7 0-13-.2-14.1-2.1-15.5-2.3-1.5-6.4-1.8-8.4-.5m7.4 1.5c1.7 1.3 1.9 2.9 2.1 15.6.1 9.3.6 14.6 1.4 15.6.9 1.1 4 1.4 15.8 1.2 16.9-.3 19.4.5 24.6 8.2 2.9 4.4 2.9 4.8 3 17.2 0 6.9.2 12.8.5 13s1.7 1.2 3.3 2.1c3.4 2.2 3.4 3.7.1 7.6-3.1 3.8-7.8 4.1-11.8 1-5.6-4.4-6.6-9.6-4.6-24.3.8-5.3.8-8.1 0-9.5-1.6-3-8.4-4.6-14.5-3.4-6.8 1.4-17.5.1-21.8-2.6-4.4-2.7-9.6-10.4-9.9-14.5-.5-9.5 2.2-24.5 4.9-27.1 1.8-1.9 4.4-1.9 6.9-.1m429.2 7.3c-.7 5.9.6 35 1.5 35.9.4.4 1.7.2 2.9-.4 4.9-2.5 13.6-7.8 16.4-10 1.6-1.3 5.7-4.1 9.2-6.2 3.4-2.2 6.2-4.5 6.2-5.3 0-.7-2.8-2.5-6.3-4s-11-5.4-16.8-8.7c-5.7-3.3-10.9-6-11.5-6s-1.4 2.1-1.6 4.7m8.9.5c3.8 2.3 11.3 6.3 16.8 8.9l9.9 4.7-6.4 4c-3.6 2.2-7.8 5.1-9.5 6.5-1.6 1.3-5.2 3.6-7.8 5-2.6 1.5-5.9 3.4-7.2 4.3-2.3 1.5-2.4 1.5-2.9-1.8-1.3-8.7-1.3-35.8 0-35.8.2 0 3.4 1.9 7.1 4.2M609 36.1c-11.3.3-20.6.7-20.7.7-.9.6.2 3 4.4 9.4 19.1 29.9 20.4 31.6 23.2 29.9.6-.4 3.8-8.5 7-17.9 3.3-9.5 6.3-17.8 6.9-18.5.5-.6.7-1.9.3-2.7-.5-1.3-3.4-1.4-21.1-.9m19.5 2.6c-.4 1-2 5.8-3.6 10.8-1.6 4.9-3.3 9.9-3.8 11s-1.7 4.5-2.7 7.5c-1.9 6.2-3.2 8.3-4.6 7.4-.9-.6-8.1-11.3-20.1-30.1-3.9-6-4.3-7.2-2.9-7.6.9-.3 10-.5 20.1-.6 17.1-.1 18.3 0 17.6 1.6M503.7 49.2c-7.4 17.6-11.1 27.7-10.4 28.4 1 1.1 41.9-6 42.4-7.3.5-1.2-3.4-6.2-15.9-20.7-5-5.8-6.6-8.4-6.5-10.4.2-2-.3-2.8-1.9-3-1.8-.3-2.8 1.5-7.7 13m8.5-9.1c-.2 1.9 1.5 4.5 6.5 10.4 13.5 15.6 16.4 19.5 15.1 19.9-3.3 1.1-39 6.7-39.5 6.2-.3-.2.2-1.9 1.1-3.7s1.6-3.6 1.6-4.1.8-2.8 1.9-5.1c1-2.3 4-9.3 6.6-15.5 2.7-6.4 5.2-11.1 5.9-10.9.6.2 1 1.5.8 2.8m-433.7-.6c-4.7 4.6-3 7.6 5.1 8.9 2.2.4 5.3 1.8 7 3.1l2.9 2.3.5 14.9c.4 11.3 1 15.5 2.2 17.9 4.1 7.6 17.6 15.2 24.5 13.9 5.7-1 9.4-9.2 5.8-12.8-.8-.8-3.8-1.8-6.6-2.2-3.5-.5-6-1.5-7.6-3.1-2.2-2.2-2.3-3.1-2.3-14.4s-.2-12.4-2.9-17.8C101.9 39.9 97.4 37 87 37c-5.1 0-6.5.4-8.5 2.5m18.5.6c4.2 2.6 5.2 3.9 9 11.1 2.8 5.4 3 6.4 3 17.8 0 11.3.2 12.2 2.3 14.4 1.5 1.5 4.1 2.5 7.5 3 5.4.7 8.2 2.6 8.2 5.6 0 2.7-5.4 8-8.2 8-3.4 0-11.8-4.2-16.2-8-6.4-5.7-7.6-9.2-7.7-23.2-.1-6.8-.4-13.4-.8-14.8q-1.05-4.05-12-7.2c-5.4-1.6-6-3-2.7-6.3 2.1-2.1 3.4-2.5 8.3-2.5 4.1 0 6.8.6 9.3 2.1m839.5 11.6c.3 4.3.8 9.8 1 12.3.3 4.2 1 9.7 2.1 14.7.2 1.3 1.1 2.3 1.8 2.3.8 0 7.2-3.8 14.2-8.5 7.1-4.7 14.1-8.8 15.7-9.2 3.4-.7 3.5-3 0-4.4-1.4-.5-9-4.1-16.9-7.9-7.8-3.9-15.2-7-16.4-7-2.1 0-2.2.2-1.5 7.7m11.7-2.4c4.6 2.3 12.1 6 16.7 8.2l8.4 3.9-3.6 1.2c-2.1.7-9.1 4.9-15.7 9.4-6.7 4.4-12.4 7.8-12.9 7.6-.8-.5-2.3-9.5-2.6-16.1-.1-1.7-.5-6.5-.9-10.8-.9-9.4-1-9.4 10.6-3.4M741.1 65.2c-1.2 6.8-3 13.8-3.8 15.6-.9 1.8-1.3 3.5-1 3.9.4.3 3.7-.4 7.4-1.6 8.6-2.7 23.1-6.1 26.1-6.1 1.2 0 2.2-.4 2.2-.9s-.8-.7-1.7-.5c-1 .2-6.9 1.5-13.2 2.9-6.3 1.5-12.2 3-13 3.4-.9.5-2.8 1.1-4.3 1.5-2.7.6-2.7.6-1.4-2.6.8-1.8 2.4-8.6 3.7-15.1 2.1-11.1 2.4-11.7 3.8-9.9 3.2 3.9 23.7 18.2 26.2 18.2.7 0-1.6-1.9-5.2-4.2-8.7-5.7-19.2-13.6-20.2-15.4-2-3.5-3.3-1-5.6 10.8m-573.9 9.1c-1.9.9-2.2 1.6-1.7 3.6.4 1.4 1 6.4 1.4 11.2.6 8.8 1.7 11.6 7 17.2 4.8 5.2 7.7 6.1 20.7 6.7 16.7.7 16.4.3 16.1 17.4-.1 10 .2 14.1 1.5 17.4 4.2 11.1 11.1 16.1 24.3 17.4 4.4.4 9.4 1 11 1.3 2.1.4 4-.1 6.3-1.4 3.9-2.5 4.3-6.7 1-10.6-2-2.2-3.8-2.8-12.3-4-13.6-2-14.3-2.2-16-4.8-1.8-2.7-1.9-6.2-1-18.2.9-11.2-.2-15.8-5.5-21.8-5.9-6.7-10.5-8.2-23.4-7.3-12.6.8-13.4.3-14.2-10-.4-3.8-1.3-8.3-2.1-10-2.2-4.9-7.9-6.7-13.1-4.1m10.2 2.4c2.9 2.9 3.2 3.8 4.1 13.3 1 9.8 1.6 10.2 15 9.4 10-.6 11.4-.5 15.1 1.4 4.7 2.4 10 8.1 12 12.8 1.5 3.7 1.8 13.5.5 20.1-1 5.2.1 11.9 2.2 14.1 1 1 5.9 2.2 13.4 3.3 10.4 1.5 12 2 14.1 4.4 3 3.6 2.5 6.4-1.6 8.8-2.9 1.7-3.9 1.8-7.1.8-2.1-.6-6.2-1.1-9-1.1-5.6 0-13.3-3.2-17.2-7.2-1.2-1.3-3.3-4.8-4.8-7.8-2.5-5.2-2.6-6.2-2.4-19.1.3-17.6.8-17.1-16-17.9-13.1-.6-16-1.5-20.8-6.7-5.5-5.8-6.9-9.3-6.9-17.1 0-4-.5-8.2-1.1-9.3-.8-1.7-.7-2.3.8-3.5 2.9-2.2 6.8-1.7 9.7 1.3m475.8 155.9.3 133.9 3 .2c25 1.9 35.2 4.5 51.7 13 21.6 11.1 39.9 33.8 44.3 54.9 2.5 12.4 4.5 36.3 4.5 55 0 16.5.2 18.3 1.8 18.8.9.2 5.1 1 9.2 1.6 13.7 2.1 22.6 4.8 35.3 10.4 11.7 5.2 23.3 14.4 32.4 25.8l5.5 6.8h50.9c35.9 0 51-.3 51.5-1.1.3-.6.9-41.1 1.2-90 .4-71 .2-89.1-.8-90.4-1.8-2.2-31.1-2.2-33 0-.8 1-1.1 4.6-.8 11.7l.3 10.3-13.5.6-13.5.5h14l14-.1-.4-10.9c-.2-8.4 0-11 1-11.7 1.6-1 27.9-1.2 30.4-.3 1.5.6 1.6 6.8 1.4 72.8-.2 39.6-.5 74.9-.7 78.4l-.4 6.2-29.6-.2-29.7-.3-.5-77.2c-.3-53.2-.8-77.5-1.6-78.3-.7-.7-6.4-1-16.5-.8l-15.4.3-.5 77-.5 77h-24l.3-68c.1-37.4-.1-69.6-.6-71.5l-.8-3.5h-34.9l-.3 64.7c-.1 35.7-.6 64.8-1 64.8s-2.3-.5-4.2-1c-1.9-.6-7.5-1.7-12.5-2.6-4.9-.8-9.8-1.7-10.7-2-1.6-.5-1.8-2.2-1.8-18.4 0-16.3-1.6-37.9-3.9-51.9-3.8-23.3-21.6-46.4-44.9-58.5-15.3-7.8-28-11-51.7-12.9l-3-.2-.3-132.9-.2-132.9 157.2.7c86.5.4 157.6 1.1 157.9 1.4.4.4.8 160.9 1 356.7l.4 356-64.7.3c-35.7.1-64.8 0-64.8-.3s1.1-2.7 2.4-5.3c3.1-6.1 5.6-16.5 5.6-23V781l47.3-.2 47.2-.3v-182l-14.9-.3c-8.2-.1-15.4.2-15.9.7s-.9 4-1 7.7l-.2 6.9-13.2.5c-7.3.3-13.7 1-14.2 1.5-.7.7-1.2 24.1-1.3 70.5l-.3 69.5-17 .5-17 .5-.2 17.4c-.3 18.7-1.4 25.4-5.8 34.1-4.5 8.8-10.7 8 63.3 7.8l65.7-.3-.4-357c-.2-196.4-.6-357.3-1-357.7-.3-.3-71.8-1-158.9-1.4L653 98.7zm227.7 141.7c.8 1 1.2 23.5 1.3 78.3l.3 76.9 30.3.3 30.3.2-.3 10.8-.3 10.7-50.2.3-50.1.2-5.2-6.4c-5.9-7.5-13.2-14.3-21-19.6-6.1-4.2-17.1-9.4-21.9-10.5-1.6-.3-3.4-1.2-4-1.9-.8-.9-1-20.7-.9-65.2l.3-63.9h32.9l.8 3c.5 1.6.7 33.4.5 70.6-.3 37.2-.1 68.2.2 68.8.5.8 4.6 1.1 13.2.9l12.4-.3.2-76c.2-41.8.5-76.6.8-77.3.7-1.8 28.8-1.7 30.4.1m61.6 315.2v90h-93v-22l17-.5 17-.5.3-69.5c.1-46.3.6-69.8 1.3-70.5.5-.5 6.9-1.2 14.2-1.5l13.2-.5.1-6.6c.1-3.7.5-7.2.8-7.8.5-.8 5.1-1.1 14.9-.9l14.2.3zM42 106c-1.1 1.1-2 3.1-2 4.4 0 2 .9 2.7 4.8 4.1 7.4 2.6 11.2 4.7 12.5 6.9.7 1.3 1.2 7.3 1.3 15.1.1 13.7.9 17 5.8 22.3 3.9 4.4 7.3 5.3 22 6.4 9.9.7 14.6 1.4 15.6 2.4 1.2 1.2 1.5 4.4 1.5 15.7 0 17.1 1.5 22.6 7.5 28.1 6.4 5.7 10.1 6.9 21.5 6.9 7.2-.1 11.4-.6 15-2 4.6-1.7 5-2.1 5.3-5.5.2-2.7-.3-4.3-1.9-5.9-1.9-1.9-2.7-2-6.8-1.3-2.5.5-7.8.9-11.7.9-6.2 0-7.5-.4-10.7-2.8-4.5-3.4-5.2-5.8-3.8-13.3 3.2-16.9.5-27.4-8.3-32.8-4.1-2.6-6.2-3.1-17.4-4.1-7-.6-13.4-1.5-14.3-1.9-2.8-1.2-3.9-5.4-3.9-15.2 0-10.5-1.9-15.8-8.2-23-6.1-6.9-19.3-9.9-23.8-5.4m15.2.9C62.3 109 67 114 70.5 121c2.1 4.2 2.5 6.3 2.5 13.8 0 11.3 1.2 14.8 5.3 16.1 1.8.5 7.9 1.3 13.7 1.7 12.9.8 18.8 3.4 23.2 10.3 2.4 3.9 2.8 5.5 2.8 12.1 0 4.2-.5 10.2-1.1 13.4-1.4 7.6-.5 11.1 3.8 14.3 3 2.3 4.4 2.7 11.1 2.7 4.2.1 9.6-.3 11.8-.8 3.6-.7 4.5-.5 6.3 1.3 1.2 1.2 2.1 3.3 2.1 4.7 0 4.1-6.9 6.6-18.9 6.7-10.8.1-14.4-1-20.6-6.4-6.8-6-8-10.1-8-27.6 0-12.2-.3-15.5-1.5-16.7-1.1-1-5-1.7-13.5-2.1-14.4-.8-18.4-1.7-22.5-5.2-6-5-7.3-9.3-7.5-23.8-.1-7.2-.5-13.8-.9-14.7-.9-2.1-6.7-5.8-8.9-5.8-2.7 0-8.7-3.3-8.7-4.7 0-.7.9-2.2 2-3.3 2.6-2.6 8.4-2.6 14.2-.1m503.4 17c-.5.8 1.2 13.6 4.4 32.6.5 3.3 1 7.9 1 10.2 0 2.6.5 4.3 1.1 4.3.7 0 7.5-5.9 15.3-13.2 7.8-7.2 14.9-13.9 15.8-14.7 1-1 1.4-2.1 1-2.9-.5-.7-6-3.2-12.3-5.6s-14.6-5.9-18.6-7.9-7.4-3.3-7.7-2.8m17.9 8.7c1.7.7 6.2 2.4 10 3.8 11 4.1 10.9 3.4.9 12.8-4.9 4.5-11.9 11.2-15.6 14.7l-6.8 6.4v-3.9c0-2.1-.5-6.6-1-9.9-1-5.6-5-31.6-5-32 0-.1 3.3 1.5 7.3 3.4 4 2 8.6 4.1 10.2 4.7"/><path d="M683.4 135.5c-1.1 2.8 3.3 17.5 8.5 28 8.3 16.7 19.2 27.5 35.4 35.3 5 2.4 9.1 5 9.8 6.3 2.8 5.4 9.9 26.3 9.8 29.2-.1 2.7-.3 2.4-1.3-1.9-2.3-9.3-9.8-16.9-23.5-23.7l-8.4-4.2H701c-17.9 0-20.6 2.1-16 12.4 2.5 5.5 12.9 15.7 19.8 19.4 8.1 4.4 19 7.8 27 8.4 7.2.6 7.4.7 9.8 4.5l2.4 3.8 22.3-.1 22.2-.1-.1 10.8c-.1 9-2.5 27.6-5.9 46.4-.4 2.2-.3 2.2.5.5 2-4.4 6.3-36.3 6.4-47.4l.1-11.5-13.8.3c-13.2.3-13.8.2-12.9-1.6 1.9-3.5 4.7-5 11.6-6.1 9-1.4 16.3-5.1 23.5-11.8 6.4-5.9 12.1-15.5 12.1-20.3 0-5.9-8.4-7.6-22-4.5-14.1 3.2-26.5 14.9-29.1 27.4-.6 3-.7 2.6-.8-2.5-.1-7.8 1.4-13.3 4.8-17 1.6-1.7 4.3-5.2 6-7.8 1.8-2.6 5.9-7.8 9.1-11.4 7.1-8 14.3-21.7 17-32.6 2.3-9.3 2.9-22.2 1.1-25.6-1.1-2-1.8-2.2-4.9-1.6-6.3 1.1-13.4 5.6-20.7 13-8.4 8.5-12.7 15.5-16.7 27.1-2.5 7.2-3 10.2-2.9 17.6 0 6.9.4 9.5 1.6 10.8 1.5 1.7 1.5 2.1-.3 5.6l-1.9 3.7-1.2-4.8c-.7-2.7-2.1-6.6-3.1-8.7-1.4-2.9-1.7-5.2-1.3-8.7.7-6.2-1.8-15.8-6.4-24.1-4.3-7.8-16.5-20.1-24.6-24.9-13-7.6-28.8-11.6-30.3-7.6m20.1 3.8c16.6 7.9 28.3 18.9 35.6 33.3 4 8 4.3 9.1 4.5 17.2.1 6.4.7 10 2.2 13.4 1.2 2.6 2.4 6.3 2.8 8.3.8 4.7 2.8 4.4 4.8-.6 1.5-3.8 1.5-4.3.1-6.6-1.9-2.9-2.3-15.7-.6-22 3.3-12.1 12-26.5 21.1-34.6 4.9-4.4 15.9-10.7 18.6-10.7 4.1 0 4.8 13.3 1.4 26.6-2.6 10.1-10 23.8-17.1 31.8-3.2 3.6-7.2 8.7-9 11.3-1.7 2.6-4.4 6.1-5.9 7.8-3.2 3.6-5 10.1-5 18.4 0 4.8.3 6.1 1.5 6.1.9 0 1.5-.9 1.5-2.5 0-6.6 8.6-18.1 17.4-23.4 13-7.8 31.6-8.1 31.6-.5 0 3.7-6.5 13.7-12.5 19.2-7.3 6.7-15.8 10.9-24.1 11.7-6 .7-6.7 1-9.6 4.6-3.1 3.9-3.2 3.9-10.4 3.9-6.9 0-7.5-.2-9.1-2.8-2.6-4.2-4.3-5.2-9.3-5.2-12.4 0-29.9-7.8-39.9-17.9-6.7-6.7-10.8-13.7-9.7-16.6 1.2-3.3 7.4-4.7 18.6-4.3 10.1.4 10.8.5 18.8 4.7 13.8 7.3 23.2 17.6 23.2 25.4 0 1.7.5 2.7 1.5 2.7 2.6 0 1.7-6-2.5-17.8-6.8-19.1-5.8-17.7-15.6-22.3-16.1-7.7-26.8-18.3-35.4-35-5.1-9.9-9.6-23.9-8.6-26.6 1.1-2.6 10.2-1.2 19.1 3"/><path d="M911.5 153.2c-.3.7-.6 4.4-.7 8.3l-.3 7-14 .5-14 .5-.5 71.5-.5 71.5-99 .5-99 .5v24h260v-185l-15.8-.3c-12.1-.2-15.8 0-16.2 1m31 91.8v91.5h-258v-22l99-.5 99-.5.5-71.5.5-71.5 14-.5 14-.5.3-7c.1-3.9.5-7.6.7-8.3.3-1 4-1.2 15.2-1l14.8.3zm-534.2-86.6c-1.5 1.8-6.7 6.8-11.5 11.1-10.8 9.6-12.6 13.5-7.3 16.2 2.5 1.3 38.5 8.6 39.1 8 .4-.4-4.8-13.7-12.2-30.9-1.6-3.7-3.4-7-4.1-7.2-.7-.3-2.5 1-4 2.8m4.7-.4c0 .5 2.2 5.6 4.9 11.2 2.6 5.7 5.4 12.1 6.1 14.3s1.9 5.2 2.7 6.7c.7 1.6 1.2 2.8 1 2.8-2.8 0-35.6-7.4-37.8-8.6-2.8-1.4-2.9-1.6-1.5-4.2.8-1.5 5.2-6 9.8-10.1 4.5-4 9.3-8.6 10.6-10.2 2.4-2.9 4.2-3.8 4.2-1.9"/><path d="M836.3 169.2c-.5.7-1.5 8.9-2.2 18.3-.7 9.3-3 33.9-5.1 54.5s-4.4 42.7-5 49.1c-.5 6.4-1.2 13.9-1.5 16.5l-.4 4.9.9-4.3c.5-2.3 1.4-9.7 2-16.5.6-6.7 2.8-29.1 5-49.7 2.1-20.6 4.4-44.9 5.1-54s1.7-17.1 2.2-17.8c.7-.9 4.4-1.2 14.1-1l13.1.3-.1 2.5c0 1.4-1 11.7-2.2 23s-4.1 38.9-6.3 61.5c-2.2 22.5-4.4 44.1-4.9 48-.9 7.2-.6 10.3.4 4.4.7-4.2 3.7-32.7 7.1-67.4 1.3-14.3 3.5-35.2 4.7-46.5s2.2-21.9 2.2-23.5l.1-3-14.1-.3c-10.5-.2-14.4.1-15.1 1m-354.9 30.5c-6 9.2-11 17.2-11.2 17.9s1.8 1.3 5.5 1.7c31.3 3.1 37.6 3.6 38.4 3.1 1.5-.9 0-6-3.6-12.2-13.1-22.8-15.9-27.2-17-27.2-.6 0-6.1 7.5-12.1 16.7m18.6-5c3.4 6 7.8 13.4 9.6 16.6 3.6 6.2 5.2 10.7 3.8 10.7-1.1 0-28-2.7-36-3.6l-6.1-.7 11-16.8c6.1-9.3 11.2-16.9 11.3-16.9s3 4.8 6.4 10.7m-246.5 9.7c-13.9 3.6-27.1 10.5-38.7 20.4-13.9 11.8-16.8 18.7-16.8 39.2 0 16.8 3.8 33.8 10.3 46.5 3.5 6.8 25.3 27.5 28.9 27.5.8 0 3-2.3 4.9-5.1 9.2-13.6 9.7-16.1 3.2-15.2-4.9.6-9.4-2.8-11.1-8.5-3.2-10.8 1.6-19.2 11.1-19.2 1.8 0 4.2-.6 5.3-1.4 1.7-1.3 1.9-2.8 1.9-18.1 0-13.8.3-16.8 1.5-17.4.8-.5 6.5-1.1 12.5-1.4 23.4-1.3 43.7-9.7 46.4-19.3 1.1-4.1-.1-10.9-2.6-14.3-8.2-11.1-38.3-18.4-56.8-13.7m34.5 2.4c10.8 3.2 19.5 8.5 22.2 13.5 2.2 4.1 2.7 9 1.4 12.1-4 9.4-23.1 17.1-45.1 18.3-16.9.9-15.7-.5-14.9 17 .4 9.7.2 15.7-.5 17.5-1 2.7-1.8 3.1-9.5 4.3-7.6 1.2-11.1 9.2-8.5 19.5 1.7 6.8 5.6 10.2 11 9.9 2.1-.2 4.1 0 4.5.3.3.4-.7 2.6-2.3 5-6.2 9.1-8.4 12.3-8.8 12.6-.6.6-16.3-12.9-21.6-18.4-5.6-5.9-9.1-12.3-12.3-22.9-4-13.1-4.8-19.3-4.4-34.1.3-12.4.6-14.5 2.9-19.4 6.5-14 30.4-31 51.4-36.6 7-1.9 26-1.1 34.5 1.4m278.7 27c-.8 1.1 2.9 8.2 12.3 23.9 3.8 6.2 7 11.8 7.2 12.5.7 2 3.6 0 6.4-4.4 1.4-2.4 3.7-5.4 4.9-6.8 4.1-4.5 15.5-20.9 15.5-22.3 0-1.1-3.2-1.6-14.7-2.1-8.2-.3-18.5-.9-22.9-1.2-5.1-.4-8.4-.3-8.7.4m31.1 1.8c7.8.4 14.2.8 14.2 1 0 .7-11.8 16.9-15.3 21.2-2 2.4-4.6 6.1-5.9 8.3-2 3.6-3.8 5.1-3.8 3 0-.4-3.1-6-6.8-12.2-3.8-6.3-8.3-14.1-10.2-17.3l-3.3-5.9 8.4.6c4.6.4 14.8.9 22.7 1.3m-558.6 1c-2.5 1.7-2.8 4.2-1 9 1.4 3.9 2.8 4.4 13.5 4.4 10.4 0 12.8.9 14.3 5.4 1 3.1.8 4.5-.9 9.6-3.7 10.6-2.1 20 4.5 26.2 5 4.6 9.3 5.8 21.4 5.8 6.1 0 12 .5 13.2 1.1 3.5 1.9 5.1 7.5 4.9 17.7-.2 9.5.8 15.4 3.2 18.7 1.4 1.8 1.6 1.8 5 .2 4.5-2.2 5-2.9 5.9-9.7 2.2-16.3 2.2-16.6-.7-24.7-3.6-10.1-6-13.2-13-16.7-5.6-2.8-6.1-2.9-16.9-2.4-6.1.3-11.7.4-12.4.1-2.9-1.1-3.2-4-1.1-11.9 3.8-14.3 1.2-23.5-8.1-28.5-9.3-5.1-27.2-7.5-31.8-4.3m18.3.8c8.5 1.7 17 6.2 19.6 10.5 3 5 3.4 12.4 1 21.4-2.1 8.1-1.8 11.9 1.3 13 .9.4 6.7.4 12.9 0l11.2-.6 5.8 3.3c6.7 3.8 8.7 6.3 12.2 15.6 2.8 7.2 2.8 9 .7 23.4-.9 6.6-1.4 7.4-5.3 9.4l-3 1.5-2-4.4c-1.6-3.6-1.9-6.5-1.8-14.2.1-11.4-1.4-17.1-5.1-19-1.6-.8-6.7-1.3-13.8-1.3-12.4 0-16.3-1.2-21.3-6.7-4.8-5.1-6.2-9-5.6-16 .2-3.5.9-6.9 1.5-7.6 3.4-4.2 1.5-14.6-2.9-15.8-1.3-.4-6.4-.8-11.4-.8-9.7-.1-10.6-.4-12.4-3.8-4.2-8 2.7-11 18.4-7.9m248.2 27.4c-2.2 2.4-2.1 6.5.1 8.5s8.3 2.2 10 .5c2.1-2.1 1.4-6.5-1.4-8.7-3.3-2.6-6.6-2.7-8.7-.3m7.7 1.3c4.2 3.3 2.9 7.9-2.3 7.9-2.8 0-6.1-2.6-6.1-4.8 0-1.9 2.9-5.2 4.5-5.2.7 0 2.4.9 3.9 2.1m90.9 6.8c-1.2 2.6-4.1 9.3-6.4 14.7s-5 11.1-6.1 12.6c-1.6 2.3-2.5 5.8-1.4 5.8.1 0 6.1-.9 13.2-1.9 7.1-1.1 17.1-2.3 22.2-2.6 13.3-1 13.3-2.8.3-15.5-4.2-4.1-9.8-9.9-12.4-12.8-2.6-2.8-5.3-5.2-6-5.2s-2.2 2.2-3.4 4.9m8.4 1.3c2.6 2.9 8.8 9.2 13.6 14 4.9 4.8 8.7 9.3 8.5 10-.3.8-3.5 1.6-8.9 2.1-4.6.5-14.2 1.7-21.4 2.7-7.1 1-13.1 1.7-13.3 1.5s.4-1.4 1.3-2.8c.8-1.3 3.7-7.4 6.4-13.4 5.8-13.2 8.5-19.2 8.8-19.3.1 0 2.4 2.4 5 5.2M522 286.4c-1.4.8-9.7 3.9-18.5 7.1-8.8 3.1-16.6 6.2-17.2 6.7-2.6 2.1-1 4.4 6.5 9.3 4.2 2.7 11.3 7.8 15.9 11.2 7.4 5.7 8.3 6.1 9.7 4.7.9-.8 1.6-1.7 1.6-1.8s1.6-8.1 3.5-17.6 3.5-18.2 3.5-19.2c0-2.1-1.5-2.2-5-.4m4 .9c0 3.2-7.1 36.2-8 37.1-.5.5-3.8-1.3-8.7-5-4.4-3.2-11.3-8.2-15.6-10.9-4.2-2.8-7.6-5.3-7.7-5.7-.1-1.6 5.3-4 18.7-8.7 7.7-2.7 15.3-5.5 16.9-6.4 3.7-1.9 4.4-2 4.4-.4m-217.3 12.4c-2.9 2.8 2.1 9.2 10.7 13.7 7.4 3.9 12.6 3.2 12.6-1.9 0-1.5-2.2-3.1-9.3-6.7-10.1-5.1-13-6.2-14-5.1m14.6 6.7c7.6 3.8 8.8 5.1 6.5 7.4-1.9 1.9-4.7 1.4-10.2-1.7-6.5-3.7-11.1-8.5-10.3-10.6.7-1.7.3-1.9 14 4.9m6.5 17.3c-1 10.8-3.1 13.9-12.3 18.7-3.6 1.8-7.4 2.8-12.8 3.2-4.3.4-8 1.1-8.3 1.5-.4.7 2.9 15.4 4.3 18.9 2.3 5.8-3.5 14.5-13.8 20.4-3.4 1.9-5.9 2.6-10 2.6-7.6 0-18.2-2.5-25.4-5.9-6.6-3-14.9-9.7-13.9-11.2.3-.5-.3-.6-1.2-.2-1.4.5-1.3.1.5-2.4 1.2-1.6 2.6-4.7 3.1-6.9 1.1-4.4 1.1-17.7.2-21.2-.4-1.3-.7 3.2-.7 10 0 11.4-.2 12.6-2.4 15.9-2.1 3-3.5 3.8-9.1 5.3-12.9 3.3-42.7 20.4-51.1 29.3-13.8 14.5-27.9 39.5-32.4 57.3-1.4 5.7-3 15-3.6 20.5-.5 5.5-1.3 13.3-1.7 17.3-.5 4-.6 7.5-.3 7.7.3.1 6.7.8 14.1 1.4 7.4.7 20.5 1.8 29 2.6s18.8 1.7 22.8 2.1c3.9.3 7.4 1 7.7 1.5.3.4.1 2.7-.4 5.1-1.3 5.7-3.5 17.8-5.7 31.5-1.3 8.3-1.5 11.6-.7 12.4 1.9 1.9 21 7.7 34.5 10.6 9.2 1.9 12.8 3.1 12.8 4.1s.8 1.3 2.7.9c3.6-.7 13.9 2.6 16.9 5.4 2.7 2.5 3.3 1.5.8-1.2-.9-1-4.9-2.8-9-4s-7.4-2.6-7.4-3c0-.5-1.2-.9-2.7-.9-8.3 0-42.2-9-46.8-12.4-1.8-1.3-1.8-1.7-.1-12.2 2.3-13.8 4.4-25.6 5.7-31.6.6-2.6.8-5.1.5-5.6s-4.1-1.3-8.3-1.6c-4.3-.4-15-1.3-23.8-2.1-29.4-2.7-39.1-3.5-40.6-3.5-1.3 0-1.4-1-.7-6.8.4-3.7 1.2-11.4 1.8-17.2.5-5.8 2.1-14.8 3.4-20.1 4.1-16.8 19-42.9 32.5-57.2 8-8.5 40-27 51.4-29.8l4.8-1.1 4.8 4.5c8.2 7.7 20.4 12.4 34.8 13.4 7.6.5 8.6.4 13.9-2.3 6.9-3.5 13.2-10.4 14-15.3l.6-3.6 7.1.8c17 2 24.2 3.7 33.2 8.1 12.6 6.3 30.7 22.2 40.2 35.4 3.5 4.9 19.3 35.5 19.3 37.4 0 .2-6.3 5.6-14 11.9-7.7 6.2-14 12-14 12.7 0 3 16.7 50 18.4 51.8.8.8 3.8.8 11.6-.3 19.9-2.8 46.5-.4 64 5.6 24.7 8.4 39.3 18.7 58.3 41.1 5.4 6.3 12.1 20.9 14.6 31.6 2.1 9.3 2.8 19.9 1.2 20.8-.4.3-1.1 3.6-1.5 7.3-.3 3.7-1.2 8.8-2 11.3-2.2 7.1-10.9 25-15.5 32-7.7 11.6-8.5 13.6-8.5 23-.1 10.7 2.7 17.4 10.7 25.2 6.1 6 8.2 10.3 7.4 15.3-.3 2.1-.2 3.3.4 3 1.3-.9 1.1-7.9-.3-11.2-.6-1.5-3.5-5.1-6.4-8-2.9-2.8-6.5-7.5-8.1-10.5-2.3-4.5-2.8-6.5-2.8-13.3 0-8.8.8-10.8 8.6-22.5 5-7.6 13-24.3 15.2-32 .9-3.1 1.9-8.3 2.3-11.5.4-3.3 1.1-6.6 1.7-7.3 1.4-1.8.2-16.3-2.1-25.4-2.5-9.6-8.9-22.9-13.9-28.8-14.7-17.3-28.5-28.6-43-35.1-9.3-4.2-24.1-8.8-33.1-10.5-12.2-2.2-35.1-2.8-47-1.2-7.1 1-10.6 1.1-11.2.3-1.3-1.5-16.4-43.5-17.6-49-.4-1.6 2-4 11.2-11.5 6.4-5.2 12.9-10.7 14.5-12.1l2.7-2.5-7.8-16.2c-9.2-18.9-13.9-25.9-24.7-36.4-21.1-20.6-32.4-26.3-57.1-28.8-7.9-.8-10.9-1.5-11.8-2.8-1.4-1.9-5.5-17.2-4.9-18.3.3-.3 3.7-.9 7.6-1.3 8.5-.8 17.9-4.6 21.4-8.7 2.6-3.2 4.8-11.9 4.3-17.6-.2-2.8-.5-1.9-1 3.4M256 575c0 .5-.4 1-1 1-.5 0-1-.5-1-1 0-.6.5-1 1-1 .6 0 1 .4 1 1M39 352.7c0 2.8-2.9 28.5-3.6 31.5-.8 3.9 1.3 3.6 11.1-1.3 4.4-2.3 9.8-5 11.9-6.1s6.6-2.5 9.9-3.2c3.4-.7 6.3-1.8 6.5-2.4s-5.2-3.7-12-7c-6.8-3.2-14.4-7.5-17.1-9.5-5.3-4.1-6.7-4.5-6.7-2m23 12.6 12.5 6-6.5 1.3c-4 .8-11.2 3.7-18.7 7.5-6.8 3.5-12.4 6.1-12.6 5.8-.2-.2.2-4.9.8-10.4.7-5.5 1.6-13 2-16.7l.6-6.7 4.7 3.6c2.6 2 10.3 6.3 17.2 9.6"/><path d="M220.6 470.9c-1 1.5-3.1 42.5-2.3 44.5.5 1.2 1.5 1.6 3.4 1.4l2.8-.3.8-10.5c.4-5.8.6-16.1.5-23-.3-11.9-.4-12.5-2.5-12.8-1.1-.2-2.4.1-2.7.7m4.2 9.2c.6 14.9-.8 35-2.5 35.6-3.4 1.3-3.7-1.1-2.5-22.2.6-11.3 1.4-21 1.7-21.6 1.8-2.8 3 .3 3.3 8.2m333.6 66.5c-2.1 5-1.3 6.4 3.6 6.4s5.7-1.4 3.6-6.4c-1-2.5-2.1-3.6-3.6-3.6s-2.6 1.1-3.6 3.6m6.1.4c1.9 3.7 1.3 5-2.5 5-1.6 0-3.2-.4-3.5-1-.7-1.2 2.2-7 3.5-7 .5 0 1.7 1.4 2.5 3m-278.4 13.9c-2.9 1.9 2.7 7.9 8.3 8.8 3.1.5 3.6.3 3.6-1.4 0-1.3-1.7-3.1-5.1-5.2-2.8-1.7-5.1-3.1-5.2-3.1s-.8.4-1.6.9m8.3 4.7c1.1.6 2.2 1.6 2.4 2.4.7 2.1-4.9.2-8-2.7-3.4-3.2-2.6-5 1-2.6 1.5 1 3.6 2.3 4.6 2.9m38.3-3.9c-.4.3-.7 1.9-.7 3.5 0 4 3.2 5.3 8.5 3.6 3.2-1 4.1-1.8 4.3-4.1.3-2.1-.1-2.7-1.6-2.7-1.1 0-2.5.7-3.3 1.6-1.2 1.4-1.4 1.4-2.1-.5-.7-2-3.7-2.8-5.1-1.4m4 2.3c.6 2.4 2 2.5 4.5.3 1-.9 2.1-1.3 2.5-.9 1.3 1.3-1.3 4-4.6 4.9-3.6.9-6.1-.4-6.1-3.3 0-3.4 2.9-4.2 3.7-1m120.3 7.9c-1.9.4-8.6 3.4-14.8 6.6-21.5 11.2-29.2 23-29.2 45.1v7.3l-4.7.5c-11 1.3-17.1 2.9-22.1 5.7-2.9 1.6-5.7 2.7-6.2 2.4-.6-.4-1-.1-1 .4 0 1.8 2.2 1.3 9.5-2.4 5.4-2.8 9-3.8 16-4.6 4.9-.5 9-1.1 9.2-1.3.2-.1.5-5.2.7-11.2.3-10 .6-11.5 3.7-17.8 4.9-10.1 11.3-16 25.6-23.3 11.6-5.9 17.7-8 18.7-6.4.3.4.8 2.6 1.2 4.9.6 3.8.4 4.1-1.7 4.6-1.3.2-5.1 1-8.4 1.6s-7.1 1.4-8.4 1.6c-3.3.7-13.4 10.6-16.2 15.9-1.4 2.5-3.1 4.5-4 4.5-1 0-1.9 1.1-2.2 2.7-.7 3.6 0 4.3.9.9.3-1.4 1.1-2.6 1.6-2.6.6 0 .8.6.5 1.4-1.5 3.9-2.8 14.7-2.5 20.5l.3 6.6-7 1.8c-5.5 1.5-7.3 1.7-8.8.7-1.5-.9-3.1-.8-7.5.6-7.3 2.2-11.5 5.9-10.8 9.5.3 1.5-.4 5-1.4 7.8-1.1 2.8-2 5.6-2 6.2 0 1.9 42.6 0 93-4.2 7.6-.6 14.7-1.7 16.3-2.5 1.7-.9 3.7-3.5 5.2-6.7 1.3-2.9 3.2-6.3 4.3-7.6l2-2.4 1.1 2.2c2.5 4.6-2.5 17.5-12.3 31.9-4.8 7.2-5.5 8.7-6.6 16.4-2.2 14.8.2 39.6 4.1 43.2.9.8 1 .6.4-.9-4-10.1-5.6-29.9-3.5-42.3 1-6.3 2.1-8.6 7.5-16.8 6.4-9.5 9.6-16.6 11.5-24.9 1.1-4.9 0-9.5-2.3-9.5-1.7 0-4.8 4.3-7.5 10.2-2.8 6.3-5.4 7.5-20.3 8.7-24 2.1-58.6 4.3-75.3 4.8-16.3.5-16.9.5-16.1-1.3.4-1.1 1.5-4 2.5-6.7 1.9-5.4 5-9.1 8.8-10.6 1.5-.5 7.7-2.2 13.7-3.7 6.1-1.5 11.1-2.8 11.3-2.9.2-.2.4-4.9.6-10.6.3-11.9 1.6-17.3 6.1-24.4 4.1-6.4 12.5-14.3 16.2-15 1.5-.3 4.4-1 6.4-1.5 2-.6 5-1 6.6-1 1.7 0 3.6-.7 4.3-1.5 2.1-2.5-.3-11.9-3-11.4-.3.1-2.1.4-4 .8M407 639c0 .5-.7 1-1.5 1s-1.5-.5-1.5-1c0-.6.7-1 1.5-1s1.5.4 1.5 1m-4 .9c0 .5-1.4 1.2-3.1 1.6s-4.6 2-6.5 3.7c-2.2 2-3.4 2.5-3.4 1.6 0-1.9 2.7-4.3 7-6.1 4.1-1.8 6-2 6-.8m-97.6-62.4c-1.2 3.1 1.7 7.1 8 11.3 8.4 5.5 9.6 5.9 8.9 3.3-.3-1.2-.9-2.1-1.4-2.1-1.8 0-.8-2.5 1.7-4.5 1.8-1.4 2.6-3.1 2.7-5.5l.2-3.5-9.8-.3c-8.1-.2-9.8 0-10.3 1.3m19.4 1.8c.2 1-1 3-2.7 4.6s-3.1 3.6-3.1 4.5c0 2.2-.8 2-5.9-1.4-5.2-3.5-7.5-6.5-6.7-8.6.5-1.2 2.3-1.4 9.3-1.2 7.5.3 8.8.6 9.1 2.1m7.4 8.8c-1.8 1.2-3.1 2.4-2.8 2.7.3.2 1.7-.3 3-1.2 4-2.6 5.4-1.9 1.6.8-1.9 1.3-3.8 2.2-4.2 1.9-.5-.2-.8.1-.8.6 0 1.7 1.4 1.3 5.1-1.2 5.8-3.9 4-7.3-1.9-3.6m-22.9 2.9c-.3 1.1-.9 2-1.3 2-.5 0-1.5.3-2.4.6s-1.6.1-1.6-.4c0-.6.8-1.3 1.8-1.5 1.1-.3.7-.5-1-.6-2.1-.1-2.5.3-2.1 1.9.6 2.3 1.5 2.4 6.5.7 4.7-1.7 5.6-2.6 3.8-3.7-2.3-1.4-3.1-1.2-3.7 1m2.7 0c0 .5-.5 1-1.1 1-.5 0-.7-.5-.4-1 .3-.6.8-1 1.1-1 .2 0 .4.4.4 1"/><path d="M420.7 617.4c-.4 2.7-.7 7.3-.7 10.2 0 4-.4 5.6-1.7 6.4-1.6 1-1.6 1 .2.8 1.8-.3 2.1-1.4 2.7-10.3.8-11 .5-14.8-.5-7.1m-69 3c-.4 1 1.6 3 6.1 6.3 3.7 2.6 9 6.9 11.9 9.6 4.9 4.6 7.3 5.3 7.3 2.3 0-2.6-17.7-17.5-22.6-19-1.5-.4-2.4-.2-2.7.8m12.3 7.2c5.9 4.5 12.9 11.4 11.6 11.4-.5 0-3.2-2.2-6.2-4.9-2.9-2.7-8-6.7-11.3-8.9s-5.7-4.3-5.4-4.6c.7-.7 3.7 1.1 11.3 7m-35.7-.1c-.8 2.1-.3 2.5 7.2 5.1 8.1 2.9 14.1 7 20.2 13.9 5.2 5.9 7.3 6.8 7.3 3.2 0-2.8-8.5-12.6-14.3-16.6-4-2.6-15.5-7.1-18.4-7.1-.8 0-1.6.7-2 1.5m9 1.4c3.1 1.1 7.7 3.3 10.1 5 5.2 3.6 14.6 13.9 14.6 16 0 .8-2.3-1.1-5.1-4.2-6.1-6.9-12-11.1-18.5-13.3-8.5-2.9-9.5-3.4-8.9-4.4.8-1.4 1.3-1.3 7.8.9M677 642.4l-23.5 13.4.3 6.3c.4 12.2 4.2 34.3 5.9 35.7 1.3.9 15 1.2 63.2 1l61.4-.3 1-3c1.3-3.8-.7-13.8-3.6-17.9-3.1-4.3-15.9-9.8-34.2-14.5-8.8-2.3-18-4.4-20.5-4.7-4.3-.7-4.7-1-10.2-9.3-3.1-4.7-7.3-11.2-9.2-14.4-2.2-3.3-4.4-5.7-5.4-5.7-.9 0-12.3 6-25.2 13.4m29.6-6.7c1.9 3.2 6.1 9.7 9.2 14.4l5.7 8.6 5.1.6c9.5 1.2 35.5 8.7 43.8 12.5 9.5 4.5 12.1 7.5 13.8 15.6.9 4.1.9 6.1 0 8L783 698h-60.3c-46.7 0-60.7-.3-62-1.3-1.3-.9-2.2-4.8-3.7-14.7-1.1-7.4-2.1-16.1-2.2-19.4l-.3-5.8 23.5-13.4c12.9-7.4 23.8-13.4 24.2-13.4s2.4 2.6 4.4 5.7m-381 4.8c-.3.9.5 2.1 2.2 3.2 1.5.9 5.5 4.3 8.8 7.6 5.8 5.6 8.4 6.5 8.4 3.1 0-2-10.8-12.3-14.7-14-4-1.7-4-1.7-4.7.1m12.7 8c3.3 3.1 5.6 5.9 5.3 6.2-.3.4-3.4-2.1-6.9-5.4-3.4-3.3-7.2-6.3-8.5-6.7-1.2-.4-2-1.2-1.7-1.7.9-1.4 5.5 1.5 11.8 7.6m43.7 8.3c0 .4.9.8 2 .8s2-.4 2-.8-.9-.8-2-.8-2 .4-2 .8m-277.7 6.4c-2.5 3.1-3.3 13-3.3 40.3v28.3l3.1 8.2c3.6 9.3 7.9 14.3 13.6 15.9 2.1.6 9.6 1.1 16.7 1.1 11.2 0 13.6-.3 17.3-2.1 5.5-2.7 9.1-7 12.4-15.1l2.6-6.3h6.9c8.7 0 13.1-1.6 17.7-6.3 9.4-9.6 10.6-25.1 3-36.5-4.2-6.1-8.5-8.1-18.8-8.7l-9-.5-.7-6.9c-.4-4.4-1.4-7.9-2.6-9.5l-1.9-2.6-28-.3c-21.7-.2-28.3.1-29 1m58 3c1.4 1.8 2.2 5 2.6 9.5l.6 6.8 9 .5c10.3.6 14.5 2.5 18.8 8.7 3.7 5.4 4.8 8.8 4.9 15.7.2 13.7-11.5 26.3-23.2 24.9-7.3-.9-9.5 0-10.8 4.4-1.9 6.3-6.9 13.1-11.9 16.3-4.6 2.9-4.9 3-18.2 3-11.7 0-14-.3-17.9-2.1-5.1-2.5-8.5-7.2-11.8-16.4-2.3-6.4-2.4-7.5-2.4-34.8 0-26.9.8-35.5 3.2-38.4.8-1.1 6.8-1.3 28.1-1.1l27 .3z"/><path d="M167 708v11h3.4c8.1 0 12.6-4 12.6-11.3 0-4-.5-5.3-2.9-7.8-2.5-2.4-3.7-2.9-8-2.9H167zm12.1-7.1c6.4 6.5 1.6 17.1-7.8 17.1H168v-20h4.1c3.1 0 4.7.6 7 2.9m5.4 34.2c.3.3 3.1 1 6.2 1.3 5.5.6 7.9 1.1 21.3 3.8 11.5 2.3 23.6 5.6 27.5 7.4l4 1.9v25l-6.5 3.2c-7.1 3.5-31.6 9.7-44.5 11.2-29.1 3.6-84.6 4-104.5.7-5.2-.8-15.1-2.4-22-3.5s-15.9-3.1-20-4.4l-7.5-2.4-.6-14.4c-.4-7.9-.5-14.8-.2-15.2 2.3-3.8 30.8-10.5 59.3-14 1.9-.3.1-.3-4-.1-17 .8-52.7 8.9-55.9 12.8-.6.6-.7 7.2-.3 16.5l.7 15.4 10 2.9c10.3 2.9 36.9 7.3 53.5 8.8 22.9 2.1 76.8.5 98.1-2.9 11.7-1.9 33.5-7.8 39.5-10.7l5.9-2.9v-27l-3.6-1.7c-3.5-1.6-16.3-5.2-24.4-6.8-19-3.8-32.5-5.9-32-4.9m-57.7 82-.3 22.4-17 .5-17 .5.4 35c.2 19.2.5 35.3.8 35.7.8 1.5 22 .9 23.2-.5 1.2-1.5 4.9-20.3 8.7-44.1 1.3-8.2 2.4-15 2.6-15.1.2-.2.3 24.3.3 54.3v54.7h25v-166L153 877l-.5 82.5h-23v-54.8c0-30.1-.3-54.7-.6-54.7-.4 0-.7-12.2-.8-27.2s-.4-27.4-.6-27.7c-.3-.2-.6 9.7-.7 22m.8 28.1c-4.1 30.3-9.1 59.1-10.9 62.8-1.2 2.4-1.6 2.5-11.7 2.5H94.5l-.6-34c-.3-18.7-.4-34.3-.2-34.8.2-.4 8.1-.7 17.4-.7h17zM29.5 831c25.8.5 30.6.8 34.5 2.4 8.5 3.4 15.5 5.7 19.5 6.3 2.2.3 4.8 1 5.8 1.5 1.1.5 1.7.5 1.7-.1s-1-1.3-2.2-1.5c-10.6-2-14-3-18.5-5.1-8.5-3.9-14.8-4.5-43.7-4.3l-27.1.2zm731.1 9.6c-.3.8-.1 2.4.5 3.5s2.8 11.6 4.9 23.2c5.3 28.6 5 27.4 7.2 29.4 1.7 1.5 3.6 1.7 13.1 1.5 6.2-.2 11.5-.6 12-1.1.4-.4.6-13.5.5-29.2l-.3-28.4-18.6-.3c-16.3-.2-18.7 0-19.3 1.4m36.9 27.9v28l-9.5.6c-10.6.7-13.8-.1-15.6-4.1-.7-1.4-2.9-11.7-4.9-23s-4.2-22.4-5-24.7c-.7-2.3-1.1-4.4-.7-4.7.3-.4 8.5-.5 18.1-.4l17.6.3z"/><path d="M707 848.3c-4.9 1.8-46.2 20.9-47.8 22-1.7 1.3-.9 3.4 4.5 11.4 4.3 6.5 4.5 7 3.8 11.8-2 15.3-2.4 19.8-2.5 27.7 0 4.7.3 9.4.6 10.3 1.8 4.5 2.2 4.5 76.7 4.5 53.3 0 70.6-.3 71.5-1.2.7-.7 1.2-2.2 1.2-3.4 0-2.9-5.3-6.1-33-19.9-34.9-17.4-35.2-17.6-44.6-30.2-4.5-5.9-11.8-16-16.4-22.3-4.5-6.3-8.7-11.6-9.3-11.7-.7-.1-2.8.3-4.7 1m13 11.7c4.6 6.3 11.9 16.4 16.4 22.3 9.4 12.6 9.7 12.8 44.6 30.2 24.2 12 33 17.1 33 18.9 0 3.5-1 3.6-71.7 3.6-73.5 0-73.9 0-75.7-4.5-.9-2.4-.7-16.9.4-25.5 2.5-19.2 2.8-16.7-2.8-25-3.8-5.7-4.8-7.8-3.9-8.6.7-.6 5-2.8 9.7-4.9s15.7-7.1 24.5-11.2c8.8-4 16.3-7.2 16.7-7 .3.1 4.3 5.4 8.8 11.7m-565-8.7c.6.6 11 4.6 21.5 8.2 18.9 6.5 50.8 24.1 70 38.5 10.9 8.2 31.1 27.8 41.2 40 19.6 23.8 37.8 58 42.8 80.5.9 4 1.4 5 1.4 3 .1-4.1-6.7-24-12.2-35.6-7.3-15.8-19.4-34.9-31-48.9-10.1-12.2-30.3-31.8-41.2-40-16.9-12.7-44.3-28.4-61-34.8-17.4-6.8-32.5-12-31.5-10.9m800 14.2c-8.7 5.3-13.6 9-13.7 10.1-.2 1.5 2.9 3.4 15.1 9.3 8.5 4 15.9 7 16.5 6.6.7-.4 1.1-6.5 1.1-17.6V857l-2.7.1c-1.6 0-8.5 3.6-16.3 8.4m18 8.3c0 8.7-.3 16.1-.6 16.5-.8.8-30.3-13.6-30-14.7.3-1.3 26.9-17.4 28.9-17.5 1.5-.1 1.7 1.3 1.7 15.7m-102.5-8.7C855 877.2 853 879 853 881c0 1.1.8 2.3 1.8 2.8 2.5 1.4 25.1 8.8 29.1 9.7l3.4.7-.6-7.3c-.3-4.1-1.3-12.2-2.3-18.2-1.4-8.3-2.1-10.7-3.3-10.7-.9 0-5.6 3.2-10.6 7.1m12-1.9c3.1 18.7 4.3 29.8 3.2 29.8-.9 0-17.1-5.2-23.1-7.3-8.7-3.2-9.6-4.1-7-6.8 2.7-2.6 24.7-19.8 25.5-19.9.4 0 1 1.9 1.4 4.2M393 884.7c-6.8 2.5-8.1 10.4-2.6 15.9 4.1 4.1 7.7 4.4 11.1 1 4.1-4.1 4.6-13.4.7-15.5-2.5-1.3-7.5-2.1-9.2-1.4m6.5 1.7c5.5 2.3 6 9.2 1 14.2-3.2 3.2-5.1 3-9.1-1-4.5-4.5-4.6-8.4-.3-12 3.6-3 3.9-3.1 8.4-1.2m108.5-1.7c-4.1 1.5-6 4.6-6 10 0 6.2 2.3 9.3 6.8 9.3 10 0 12.8-17.4 3.2-19.3-1.4-.3-3.2-.3-4 0m7.3 3.5c3 3.6 1.6 9.7-3.1 13.5-4.3 3.5-9.2-.4-9.2-7.1 0-3.7.5-4.8 3.1-7 3.5-3 6.2-2.8 9.2.6m-66.1-1.7c-8.6 3.7-5.3 17.5 4.2 17.5 4.8 0 8.6-4.4 8.6-9.8 0-4.3-2.5-8.2-5.4-8.2-.8 0-2-.2-2.8-.5-.7-.2-2.8.2-4.6 1m6.9.5c.5 0 1.8.9 2.9 2 3 3 2.6 8-.8 11.3-3.6 3.5-6.6 3.4-10.3-.2-3-3.1-3.6-5.9-1.9-9.1 1.3-2.4 6-5.1 7.8-4.5.8.3 1.8.5 2.3.5m-120.8 0c-3 1.2-4.5 4.4-4.1 8.8.2 2.9 1 4.1 3.7 5.9 4.6 3.1 8.8 3 12.3-.4s4-9.9.8-12.8c-2.2-2-9.5-2.9-12.7-1.5m11.1 2.1c3.6 2.9 3.6 7.6-.2 11.2-3.4 3.3-5.9 3.4-10.3.4-2.5-1.6-3.5-3.1-3.7-5.5-.7-6.9 8.3-10.8 14.2-6.1m212.3-1.9c-3.9 3.1-4.3 11-.6 14.4 1 .9 4.1 1.9 6.8 2.2 4.3.4 5.3.1 7.5-2.1 6.2-6.2 1.4-15.7-7.8-15.7-2.3 0-5 .6-5.9 1.2m12.2 2.4c3.9 3.3 4.1 7.4.6 10.9-4.5 4.6-13.4 2.2-14.9-4-.7-2.7 1.5-8 3.6-8.8 3.4-1.4 7.8-.6 10.7 1.9m-196 48.8c-3.8 1.2-5.6 4.8-4.5 9 1.1 4.5 4.1 6.6 9.1 6.6 5.8 0 8.5-2.5 8.5-7.8 0-6.5-6-10.1-13.1-7.8m9.9 2.9c4.5 4.1 1.5 11.7-4.7 11.7-4.3 0-6-.9-7.7-4.2-2.1-4.1-1.1-7.6 2.8-9.2 3.7-1.6 6.5-1.1 9.6 1.7m43.3-1.7c-3.1 3.9-2.8 9.7.5 12.3 6.1 4.8 15.4.4 15.4-7.1 0-5-3.4-7.8-9.2-7.8-3.8 0-5 .5-6.7 2.6m12.6.6c3.1 2.9 2.9 6.4-.6 9.9-3.5 3.4-6.8 3.7-10.5.8-3.2-2.5-3.4-6.6-.5-10.3 2.7-3.4 8.2-3.6 11.6-.4m41.4-.6c-3.1 3.9-2.7 7.5 1.2 11.2 2.5 2.4 4.2 3.2 6.9 3.2 7.1 0 11.7-10.1 6.8-15-1.5-1.5-3.3-2-7.4-2-4.7 0-5.7.4-7.5 2.6m13.9.4c2.7 2.7 2.5 6.2-.6 9.9-3.4 4.1-6.8 4-11.1-.1-3.8-3.7-4.1-5.5-1.2-9.2 2.7-3.4 9.8-3.7 12.9-.6m46.3-2c-3.6 1.4-5.6 5.5-5 9.7.9 5.2 3.5 7.4 8.7 7.5 3.6 0 4.8-.5 6.8-2.7 2-2.3 2.2-3.4 1.7-6.9-1.3-8-5.2-10.4-12.2-7.6m9.1 2.2c2.8 4.5 2.9 8.3.3 11.3-4.5 5.3-13.7 1.9-13.7-5.1 0-6.4 10.2-11.1 13.4-6.2m48.9-1.5c-5.7 1.1-9.5 11-5.5 14.6 4.3 3.9 13.3 2.2 15.3-3 2.9-7.7-1.8-13.2-9.8-11.6m7.1 2.4c3.5 2.8 3.5 7.2-.1 10.5-3.8 3.5-6.9 4.1-10.1 1.7-3.5-2.6-3.9-6.2-1.1-9.7 3.7-4.8 7.4-5.6 11.3-2.5m255.6 4.5c-6.9 2.5-13.5 4.8-14.8 5.1s-2.6 1.1-2.9 1.8c-.6 1.7 24.3 26.9 26 26.2 1.2-.4 7.8-30.6 7.7-35.5 0-3.1-1.4-2.8-16 2.4m15-1.4c0 2.5-5.9 31.9-6.7 33.1-.4.6-24.5-23-24.7-24.2-.1-.7 27.9-10.9 30.2-11 .6-.1 1.2.9 1.2 2.1m52.7.5c-1.5 1.4 0 31.4 1.6 32.9 1.3 1.4 6.4-1.2 19.2-9.8 7.3-4.8 12.5-9 12.5-9.9 0-1.2-4-3.2-14.2-7.2-16.4-6.4-18.2-7-19.1-6m23.1 8.8c5 2 9.2 4 9.2 4.4-.1.6-22.7 15.9-26.8 18.1-1.3.6-2.7.9-3 .5-1.4-1.4-2.9-29.5-1.6-30.7.6-.7 7.3 1.7 22.2 7.7m-181.1 16.2c-5.3 8.8-10.7 20-10.7 22.2 0 1.7 1 1.9 12.8 2.5 7 .4 14.6.8 17 1.1 3.7.4 4.2.2 4.2-1.6 0-3.2-16.2-29.8-18.2-29.9-1 0-3.1 2.4-5.1 5.7m14.1 9.3c4.5 7.6 8.2 14.3 8.2 14.8s-1.9.8-4.2.6c-2.4-.2-9.6-.6-16-1-6.5-.3-11.8-1-11.8-1.5 0-2.5 13.5-26.9 14.8-26.9.4 0 4.4 6.3 9 14M400 985.3c-2.9 1.5-5 5.1-5 9 0 7.4 11.6 12 16.4 6.4 1.4-1.7 1.7-3.2 1.2-7.1-.9-8.2-6.1-11.6-12.6-8.3m8.9 2.1c4.3 4.6 3.7 12.7-1.2 14.5-4.7 1.8-11.7-3.4-11.7-8.6 0-3.2 5.1-8.3 8.2-8.3 1.4 0 3.4 1.1 4.7 2.4m215.8-.3c-3.9 3-5.4 8.7-3.3 12.8 2.1 4 5.7 5.5 10.3 4.2 5.1-1.4 7.3-3.8 7.3-7.8 0-9.2-7.9-14.3-14.3-9.2m8.4-.1c1 .6 2.6 2.4 3.4 4 3 5.9 1.3 9.8-5.2 12.1-4 1.3-6.7 0-8.9-4.2-1.9-3.7-.6-7.8 3.4-10.9 2.8-2.2 4.5-2.5 7.3-1m-176.2.9c-1.9 1.6-2.4 2.9-2.4 6.9 0 6.6 2.2 9.2 8.1 9.2 10.3 0 13.5-11.8 4.4-16.5-3.9-2-7.3-1.9-10.1.4m9.7 1c1.7 1.1 3.6 3.3 4.3 5.1 1 2.9.8 3.4-1.8 6.1-3.9 3.9-9.1 4-12 .3-2.8-3.6-2.7-7.9.4-10.9 2.9-3 5-3.1 9.1-.6m46.8-.9c-1.2.5-2.7 2.3-3.3 4.1-2.7 7.9-.3 11.9 7.7 12.7 4.4.4 5.1.2 7.1-2.4 1.8-2.3 2.2-3.8 1.8-6.7-1-7.1-6.6-10.4-13.3-7.7m10 3.1c3.1 3.7 3.3 6.7.5 10.3-2.6 3.3-7.5 3.5-11.3.5-3-2.3-3.3-5.6-1.1-9.9 2.6-5.1 8.1-5.5 11.9-.9m43.3-1.7c-2.1 3.2-2.2 8.5-.2 11.3 3.5 5 16.4 3.4 18.5-2.2 2.5-6.5-1.5-10.7-10.4-11.3-5.8-.4-6.3-.2-7.9 2.2m14.6.6c5.1 4 4.1 9.4-2.2 12-8.7 3.6-16.4-4.1-11.5-11.5 1.4-2.1 2.4-2.5 6.4-2.5 3.2 0 5.5.6 7.3 2"/></g></svg>