<svg xmlns="http://www.w3.org/2000/svg" width="1365.333" height="1365.333" preserveAspectRatio="xMidYMid meet" version="1.0" viewBox="0 0 1024 1024"><g fill="#000" stroke="none"><path d="M0 512v512h1024V0H0zM836 40.8c4.1 2.3 10.5 5.7 14.3 7.4 3.7 1.8 6.7 3.6 6.7 4 0 .5-2.8 2.6-6.2 4.8-3.5 2.1-7.6 4.9-9.3 6.2-1.6 1.2-6.1 4.2-10 6.5l-7 4.2-.7-3.2c-.6-2.8-1-18.1-.9-31.9l.1-4.8 2.7 1.3c1.5.6 6.2 3.1 10.3 5.5M513.8 39c.3.7 0 1-.6.6-.6-.3-1.3-.3-1.6.2s5.3 7.6 12.3 15.8c7.1 8.2 12.8 15 12.6 15.2-.1.1-8.2 1.6-18.1 3.3-9.8 1.6-19.4 3.3-21.2 3.6l-3.3.6 2.7-7.4c3.4-9.5 12.4-31 13.7-32.7 1.2-1.5 2.9-1.1 3.5.8m114.2-.4c.5.5-1.7 8.6-5.2 19.1-4.7 14.1-6.5 18.3-7.8 18.3-1.5 0-5.1-5.1-23.2-32.8-2.9-4.4-3.4-5.7-2-4.9.4.3 1.6.1 2.7-.4 2.5-1.1 34.3-.5 35.5.7m330.3 15.3c13.6 6.6 17.3 9.1 13 9.1-1 0-7.9 4.1-15.5 9.2-7.6 5-14.1 8.8-14.5 8.5-.5-.6-4.1-28.8-4.3-33.6 0-2.5 5.9-.6 21.3 6.8M760.6 66.7c4.7 3.2 9.7 6.5 11.1 7.4l2.5 1.7-3.3.6c-7.3 1.4-21.6 4.8-26.3 6.2-6.4 1.9-6.7 1.8-5.7-.9.5-1.2 1.8-7.4 3-13.7s2.4-12 2.6-12.7 1.8.2 4 2.2c1.9 1.9 7.4 6 12.1 9.2m-664.9 6c-.3 1-.5.4-.5-1.2 0-1.7.2-2.4.5-1.8.2.7.2 2.1 0 3m487.6 61.6c18.5 6.9 18.3 5.1 2.3 20.2-7.5 7.1-14.5 13.5-15.6 14.2-1.7 1.2-1.9 1.1-2.4-1.9-.3-1.8-1.7-10.7-3.1-19.8s-2.8-17.9-3.1-19.7l-.6-3.2 5.6 3c3 1.7 10.7 4.9 16.9 7.2m-357.6-7.1c-.3.8-.6.5-.6-.6-.1-1.1.2-1.7.5-1.3.3.3.4 1.2.1 1.9M424.1 182c2.6 6.3 4.6 11.6 4.5 11.8-.6.6-34.3-6.9-37.3-8.3-3.3-1.5-4.1-2.9-2.3-4 .6-.3 1-1.4 1-2.4 0-.9 3.9-5.1 8.6-9.2s9.7-9 11.2-10.9l2.6-3.4 3.5 7.4c1.9 4.1 5.6 12.7 8.2 19m84.4 26c2.9 5.2 5.5 10.6 5.6 12 .4 2.2.1 2.5-2.6 2.4-2.8-.1-20.1-1.8-34.1-3.3l-6.2-.6 6.4-10c3.6-5.5 8.7-13.5 11.5-17.8l5.1-7.7 4.5 7.7c2.5 4.3 6.9 12.1 9.8 17.3m86.5 27.5c9.1.4 16.8.9 17.3 1.2.9.5-3.2 6.6-13.3 19.8-4.2 5.5-8.2 11-8.9 12.2-1.4 2.8-2.8 2.9-3.6.4-.3-1-3.5-6.7-7.1-12.7-3.6-5.9-7.9-13.3-9.5-16.5l-2.9-5.8 5.8.4c3.1.2 13.1.6 22.2 1m-159.8 62.6c.7 1.9-.3 2.1-29.2 5.5-7.4.9-13.8 1.8-14.3 2.1s.8-2.7 2.8-6.6c1.9-3.9 4.4-9.3 5.4-11.9 1.1-2.6 3.3-7.8 5.1-11.7l3.1-6.9 13.2 13.8c7.3 7.7 13.5 14.7 13.9 15.7m91.8-10.7c0 1.5-7 35.6-7.7 37.4-.9 2.4-.9 2.3-6.9-2.3-3.2-2.5-10.8-7.9-16.8-11.9l-10.8-7.4 2.7-1.8c1.4-.9 9.9-4.3 18.7-7.5 8.9-3.2 16.3-6.1 16.6-6.4.6-.6 4.2-.7 4.2-.1M44.1 354.6c1.3 1.4 8.6 5.7 16.3 9.6l13.8 7.1-9.5 3.2c-5.3 1.7-11.4 4.4-13.7 5.9-4.4 2.9-13.5 6.8-14.2 6-.3-.2-.1-2.7.3-5.4.4-2.8 1.3-10.4 2-17 .6-6.6 1.5-12 1.9-12 .3 0 1.7 1.2 3.1 2.6m193.7 15c-.8 3.2-.7 3.9 1.4 6.1 6.3 7 21.2 12.9 34.9 14 6.6.5 8.3.3 12.2-1.6 8.9-4.3 15.7-11.9 15.7-17.5v-3.1l186.3.1c139.1.1 187.8.5 192.2 1.4 8.3 1.6 18.2 5.4 29.9 11.3 8.2 4.2 11.6 6.7 19.2 14.1 5 5 11 11.9 13.2 15.4 4.8 7.5 9.9 19.3 11.2 26.1 2.2 11.5 4 35.7 4 53.1v18.8l5 1.1c2.8.6 6 1.1 7.1 1.1 3.1 0 18.7 4 21.7 5.6 1.5.8 3.2 1.4 3.8 1.4 2.2 0 14.9 6.3 20.9 10.3 3.3 2.2 9.9 7.9 14.6 12.7 8.9 9.1 13.3 16.3 15.7 26 1.5 6.3 2.2 49.5 2.2 144.6.1 53.9-.3 83.7-1 86.8-1.7 7.8-7 17.3-13 23.4-6 6.2-17.4 14.2-20.2 14.2-.9 0-2 .5-2.3 1-.5.8-1.1.8-2 0-1-.8-1.6-.7-2.2.5-1.3 2.3-5.8 2.8-26.8 3.2-15.4.3-19.2.6-20.1 1.9-1 1.2-4 1.4-18.5 1.2-17-.3-20.3-1-15.1-3.3 2.7-1.2 2.7-1.4-.1-5.6-1.2-1.9-4.5-7-7.2-11.4s-9.1-14.4-14.3-22.3c-5.1-7.8-9-14.7-8.7-15.2.3-.6 0-1-.7-1-.7-.1-6.7-8.5-13.3-18.8-6.5-10.3-18.7-29.1-27-41.7-8.3-12.7-19.8-30.4-25.6-39.4-9-14.1-11.8-17.7-20.9-26.4-5.8-5.5-13-11.7-16.1-13.7-4.8-3.1-24.1-11.9-27.4-12.4-.5-.1-5.8-1.5-11.7-3l-10.8-2.9v-5.1c0-5.9-3.8-22.8-6.8-30.3-1.2-2.9-3.5-7.3-5.1-10l-3-4.7 6.7-4.9c3.7-2.7 9.5-6.7 12.9-8.8 3.3-2.2 6.8-5.1 7.7-6.4 1.4-2.1 2.4-2.5 6.5-2.5 4.7 0 5 .2 7.4 4.2 1.3 2.4 5.5 9.2 9.4 15.3 3.8 6 10.3 16.2 14.3 22.5s9.8 15.5 12.9 20.3c3.1 4.9 7.6 12.1 10 16 2.4 4 6.9 11.2 10.1 16.2 3.1 4.9 6.7 11.2 7.8 13.8l2.1 4.8 7.9-4.1c4.3-2.2 8.1-4 8.4-4s.9 2.6 1.2 5.7c2.5 20.6 4.7 32.9 6.3 34.1 1.3.9 14.9 1.2 62.7 1l61.1-.3.9-2.8c1.3-3.7-.6-12.8-3.5-16.9-3.5-4.8-16-10.1-36.3-15.3-9.8-2.5-19-4.5-20.4-4.6-2.3 0-3.6-1.5-8.3-8.7-3.1-4.8-7.5-11.5-9.7-15-2.3-3.4-3.7-6.2-3.3-6.2 1 0 14-7.5 15.4-8.9.6-.6-.2-3-2.3-6.8-6-10.6-26.2-42.5-45-70.8-10.2-15.4-23.5-35.7-29.6-45-11.5-17.7-19.1-26.4-30.1-34.8-5.9-4.5-13.4-8.4-17.8-9.3-1.1-.2-3.3-.7-5-1-1.6-.4-4.1-.9-5.5-1-1.4-.2-4.5-.6-7-1-7.3-.9-10.1-.8-18 .9-9.4 1.9-23.4 6.9-32.2 11.3-6.1 3.1-37.3 23.3-52.8 34.3-3.5 2.5-6.9 4.6-7.5 4.6-.5 0-1.2.4-1.3 1-.4 1.1-12.1 9-13.4 9-.5 0-1.2.5-1.6 1-.9 1.3-6.3 4.8-6.7 4.3-.1-.2-1-1.7-1.8-3.4-.9-1.8-3.9-4.8-6.7-6.9-4.7-3.5-5.6-5-17.5-28.8-6.9-13.8-12.9-25.5-13.3-25.9-.6-.6-12.3 8.4-25.3 19.6l-4.3 3.6 5.4 15.8c2.9 8.6 7.1 20.4 9.2 26.1s3.7 10.5 3.4 10.8c-.2.2-3.2.8-6.7 1.3-5.2.8-16.4 3.6-27 6.7-1.4.4-1.8-.6-2.4-5.9-.9-8.3-3.2-19.4-4.5-21.9-3.3-6-8.7 2.1-12.1 17.8-.6 2.9-1.5 5.3-2 5.3-.6 0-2.2-.9-3.7-1.9-4.7-3.3-23.1-4.6-38.2-2.7l-6.6.8-1.3-2.8c-.7-1.6-2.2-5.3-3.2-8.3-2.2-6.4-3.5-8.1-6-8.1-3.9 0-5.1 4.1-5.6 19.2-.5 13.1-.7 14.6-3 18.2-5.4 8.4-8 13.4-10.8 21l-3 7.8-5.2-.6c-12.4-1.4-39.6-8.9-43.9-12-1.8-1.4-1.8-1.7 0-12.8 1-6.2 2.9-16.9 4.2-23.7 1.4-6.8 2.1-12.8 1.7-13.2s-11.6-1.7-24.8-2.8c-13.2-1.2-28.7-2.6-34.5-3.1-16-1.5-14.5-2.1-15.9 6.2-2.3 14.9-5.1 42.6-5.1 51.4 0 13.5 4.4 26.4 12.2 36.1 4.3 5.4 13 12.4 19.5 15.6 6 3.1 36.7 11.7 58 16.3 2.5.5 4.3 3.9 7.5 14.4 4.7 15.6 10.3 24.8 20.4 33.9 8.6 7.6 23.3 14.1 35.4 15.7 1.9.2 5.1.7 7 .9 1.9.3 6.2.7 9.5.9 15.5 1.1 41.5 3.5 45 4.3 3.2.6 3.7.7 18 1.8 4.9.4 9.3.9 9.6 1.1.4.2 4.4.6 9 1 11.9.8 16.9 1.2 20.9 1.8 1.9.3 7.1.8 11.5 1.1s11.6 1 16 1.6c4.4.5 10.3 1.1 13 1.3 2.8.2 7.7.7 11 1.1 9.3 1 21.7 2 29 2.3l4 .2 1.7 7.8c3.8 18.5 13.4 29.5 27.6 31.8 5.1.8 8.1-.9 11.8-6.7 1.9-3.1 2.6-5.5 2.6-9.5.1-6-.8-7.7-7.7-14.7-2.6-2.6-4.5-5-4.2-5.4.3-.3 3.6 0 7.2.7 7.4 1.4 6.5.6 15.9 15.5 3.5 5.5 12.3 19.4 19.6 31 7.3 11.5 17.1 27.1 21.8 34.5 4.6 7.4 9.5 15.1 10.7 17 1.3 1.9 5.5 8.6 9.3 14.7l7.1 11.3H154.1l-.3-24.9-.3-25 8.5-.6c19.4-1.3 44.3-4.7 55.5-7.5 11.8-3 23.8-7.2 26.3-9.2.8-.7 1.2-4.7 1.2-13.3s-.4-12.6-1.2-13.3c-5.7-4.6-57-14.8-71.1-14-4.6.2-6.4 0-6.4-1 0-.8 2.3-1.2 7.8-1.2 9.1 0 12.2-1 16.7-5.3 9.8-9.3 11.4-24.6 3.7-35.7-4.5-6.5-8.6-8.4-19-9l-9-.5-.6-6.5c-.3-3.6-1.3-8-2.3-9.8l-1.7-3.2-28.2.2-28.2.3-1.5 3c-1.2 2.5-1.5 8.6-1.5 36.2V736H99c-9.2 0-44.5 6.7-53.5 10.1-6.1 2.3-6.4 2.3-5.9.1.3-.9.6-48.5.7-105.7l.2-104 2.8-5.6c8.3-17 23.3-25.4 46.5-25.8 2.8-.1 5.1-.4 5.1-.9-.1-.4-.1-1.2 0-1.7 0-.6.3-10 .6-21s1-22.3 1.6-25c.5-2.8 1.1-7 1.3-9.5 1.1-13 10.9-38.2 16.2-41.3.8-.4 1.4-1.3 1.4-1.8 0-1.6 4-6.4 5.3-6.4.7-.1 1.1-.6 1-1.2-.3-1.4 11.7-12.4 12.7-11.8.4.3 1.3-.2 2-1 3.4-4.1 21.5-12 30.2-13.1 2.9-.4 6.4-1.1 7.8-1.6 1.4-.6 15.6-.9 32.2-.8 19.6 0 29.8-.3 30.3-1 1.2-1.9 1.3-1 .3 2.6m584.9 14c-.3.3-1.2.4-1.9.1-.8-.3-.5-.6.6-.6 1.1-.1 1.7.2 1.3.5m-642 317.8c3.1 3.6 3.2 10.3.2 13.5-2.5 2.7-6 4.1-10 4.1H168v-21.6l5.2.6c3.8.5 5.7 1.4 7.5 3.4M40 780.3c.3.2 4.8 1.6 10.2 3.1 14.8 4.1 43 8.1 65.3 9.2l13 .7-.3 23.8-.3 23.9-16.9.1c-9.4.1-17.6.2-18.2.3-3 .4-18-3.5-22.7-5.8-2.8-1.4-5.5-2.6-6.2-2.6-1.7 0-11-9.2-12-11.9-.5-1.3-1.2-2.1-1.6-1.8-.3.4-1.3-.4-2.3-1.6-2.2-2.8-6.2-10.7-5.5-10.7.4 0 .3-.6-.2-1.3-1.3-2.1-1.5-3.9-1.7-14-.1-5.9-.7-10.2-1.4-10.9-.8-.8-1.1-4.9-1-12.8l.2-11.5.5 11.7c.3 6.4.8 11.8 1.1 12.1m87.7 81.9c-.3.7-.5.2-.5-1.2s.2-1.9.5-1.3c.2.7.2 1.9 0 2.5"/><path d="M221.6 471.8c-.9 1.5-3 41.7-2.3 43.6.4 1.1 1.5 1.6 2.9 1.4 2.2-.3 2.3-.9 3.1-11.3.4-6.1.6-16.2.5-22.5-.3-9.8-.5-11.5-2-11.8-.9-.2-1.9.1-2.2.6"/></g></svg>