<svg xmlns="http://www.w3.org/2000/svg" width="1365.333" height="1365.333" preserveAspectRatio="xMidYMid meet" version="1.0" viewBox="0 0 1024 1024"><g fill="#000" stroke="none"><path d="M722.5 50c-10.4.4-68 .6-127.8.6-59.9-.1-109.3.1-109.7.4-2.8 1.8-3 9.7-2.4 165.3.3 87.5.3 160.5-.1 162l-.8 2.8-7.1-.6c-14.7-1.3-110.6-1.1-121.1.3-23.2 3.1-43.4 9.2-59.1 17.9-37.2 20.7-65.5 60-71.5 99.3-.7 4.4-1.5 8-1.9 8-.3 0-2.1-1.1-3.9-2.4-5.7-4.2-15.9-7.7-24.6-8.4l-8-.7-.2-31c-.3-32.8 1.5-67.2 4.3-81.8 2-10.4 6.3-23.3 11.8-35.4 7.8-17.1 8.9-23.5 6-33.4-3.4-11.6-15.6-18.8-30.1-17.7-12.9 1-20.3 5.2-40.7 22.9-4.9 4.3-11.4 9.1-14.5 10.7-23.4 12.3-52.3 3-58.8-18.8-3.3-10.8-1.3-28.1 4.4-37.7 5.9-10.1 18.4-19.4 33.2-24.8s22.1-10.9 24.7-18.7c1.4-4.3 1.5-5.9.5-10-2.1-9.4-6.9-13.3-27.1-22.3-23.9-10.6-33.2-23.5-30.2-41.4 1.5-8.8 7.2-20.1 12.5-24.6 8.7-7.5 22.3-12.4 31.3-11.1 5.6.7 24.3 8.2 27 10.7 2.6 2.4 7.6 2.5 9.7.1 1.4-1.5 1.7-4 1.7-12.3 0-11.7 2.7-26.5 6-33 4.4-8.6 14.8-16 26.4-19 2.5-.6 8.2-.9 12.8-.7 16.6.7 28.4 9.5 33.2 24.6 2.2 7 2.5 10 3 31.6.5 22.3.7 24.2 2.8 28.5 2.2 4.4 2.5 4.6 7.2 4.9 5.5.4 7.5-.7 20.4-11.2 9.5-7.6 19.1-13.1 27.5-15.8 9.2-3 26.6-2.7 36.4.5 12.8 4.2 23.1 14.7 26.7 27.1 6.8 23.3-9.7 45.9-41.1 56.5-5.5 1.8-19 4.8-29.8 6.6-2.2.4-9.5 2.4-16.3 4.6-15.2 5-26.1 11.8-30.6 19.2-2.5 4.1-3 6.1-3.4 13-.3 7.3-.1 8.6 2 11.6 1.2 1.9 4.8 4.8 7.8 6.5l5.5 3.1 22 .1c14.5 0 23.3.4 25.7 1.3 2.1.6 6 3.3 8.8 5.9 4.5 4.1 5.4 5.7 7.1 11.7 2.3 8.4 2.4 17.5.3 23.7s-11 15.1-19.4 19.3c-7.1 3.5-10.5 4.7-28 9.5-22.5 6.2-29.8 11.3-36.3 24.9-2.4 5.2-3.1 8-3.5 15.6-.4 8.4-.3 9.4 1.7 11.4 2.4 2.4 5.3 2.7 6.8.8.6-.6 1.3-5.1 1.6-10 .4-6.9 1.1-9.9 3.3-14.3 4.8-9.4 11.5-13.6 29.6-18.3 28.8-7.6 36.7-11.1 46.2-20.7 6-6.2 9.3-13.1 10.7-22.7 3.5-24-9.6-43.9-32.7-49.3-5.7-1.3-9.6-1.5-22.4-.8-18.3 1-19.7.9-23-1.5-8.7-6.3-2.5-17.3 14.4-25.7 8-3.9 11.7-5 30.9-8.9 22.8-4.6 31.9-7.1 40.2-11.3 14.2-7.1 25.6-18.4 30.9-30.5 2.9-6.8 3.1-7.9 3.1-20.2 0-14.7-.7-17.4-6.9-27.9-11.9-20-44.9-29.9-72.2-21.5-12.3 3.7-27.7 13.3-37.6 23.1-2.1 2.1-4 3.8-4.2 3.8s-.6-10.7-.9-23.8c-.5-26.8-1.8-33.8-7.7-43.6-4.6-7.5-9.1-11.7-17.6-16.4-12-6.6-25.7-7.8-41.7-3.6-16.3 4.2-26.3 12.8-31.8 27.3-2.2 6-4.9 21.6-4.9 28.8 0 2.5-.5 4.3-1.1 4.3s-5.3-1.6-10.5-3.5c-8.3-3.1-10.3-3.5-19.3-3.5-10.8 0-20.4 2.3-27 6.5-16.9 10.6-26.3 29.5-24.9 49.7.7 9.1 5.3 18.3 13.3 26.3 6 6.1 7 6.6 31.7 18.4 8 3.8 13.8 8.6 13.8 11.4 0 2.7-4.2 7.7-8.6 10.3-2.6 1.5-9.2 4.6-14.8 6.9-22.9 9.3-35.4 22-40.7 41-1.8 6.6-2.1 9.8-1.7 19 .4 9.6.9 12 3.8 18.8 4.2 10.2 9.8 15.8 21.5 21.7l8.8 4.5h14.6c12.4-.1 15.5-.4 20.3-2.2 9.8-3.6 21.1-11.1 31.9-21.1 13.2-12.1 22.1-16.8 30.4-15.9 10.4 1.1 14.8 6.1 14.7 17.1 0 5.1-1 8.7-6.5 22.6-7.5 19-10 27.1-12.1 39-2.3 13.1-3.7 45.3-3.4 79.2.1 19-.1 31.1-.7 31.6s-5 1.7-10 2.6c-37.2 7-78.6 24.1-96 39.5-9.9 8.8-18.3 23.4-21.3 36.9-1.4 6.3-1.4 8.9-.4 18 1 9 1.8 11.9 4.9 18.1 4.1 8 9.6 14.4 18.4 20.8l5.7 4.2.6 12.8c.4 7 .9 33.7 1.1 59.3.3 25.6.9 51 1.5 56.5.5 5.5 1 10.3 1 10.7s-2.6 2.1-5.8 3.7c-3.1 1.6-8.2 4.7-11.2 7-5.8 4.3-12.9 13.8-13.1 17.5-.8 11.2 2.6 17.7 13.1 25.3 13.7 10 35.3 14.7 83.5 18.1l10 .7.6 10.5c.4 5.8.8 17.2 1 25.5l.4 15-7.1.7c-10.5 1.1-23.9 4.2-33.2 7.8-13.9 5.3-23.1 16.6-21.6 26.3 2.8 18.1 22.6 29.4 55.3 31.6 37.6 2.5 71.1-6.9 81.2-22.8 3.3-5.1 3.5-7.3 1.4-15-3.6-13.5-23.5-24-51.5-27.1-5.2-.6-9.9-1.5-10.5-2.1-1.5-1.5-2.4-48.1-.9-49.4.7-.6 7.9-1.2 17-1.3 26.8-.4 46.1-3.2 66-9.7 11.2-3.7 18.9-7.9 25-13.8l4.2-3.9 13.3 1.1c7.4.7 19.7 1.6 27.4 2.1 7.7.6 15.4 1.2 17 1.5 1.7.3 17.6 1.6 35.5 3s37.2 2.9 43 3.5c5.8.5 19.1 1.4 29.5 2 10.5.5 27.3 1.6 37.5 2.5 10.2.8 25.9 1.9 35 2.5 17.9 1.2 75.6 5.4 96.5 7 7.2.6 21.3 1.5 31.5 2 10.2.6 20.5 1.2 23 1.5 4.1.5 38.1 2.9 79 5.5 9.1.6 19.9 1.4 24 1.8l7.4.7.8 3.5c.4 1.9 1.2 8.7 1.8 15 2.8 29.6 9.3 70.8 12 76 2.3 4.5 3.2 4.9 14 6 6.5.7 10 .6 15.5-.6 10.6-2.3 11.1-3.1 16-24.9 2.8-12.5 4.2-28.6 5-55.9.3-10.4.8-19.3 1.1-19.7.2-.4 4.1-2 8.7-3.5 15.6-5.1 29.4-13.3 42.3-25.1 11.3-10.3 17.6-15.3 18.6-14.7.4.3.8 13 .8 28.3 0 20.2.3 28 1.2 28.9 1.8 1.8 7.3 1.5 9-.6 1.3-1.5 1.4-5.5.9-30.4-.4-15.8-.5-30.2-.3-32.1.3-2.6 1.5-4.2 5.4-7.3 5.6-4.4 12.4-13.4 15.7-20.7 4.7-10.3 5.1-16.4 5.1-71l.1-51.2 4.4-5.9c8-10.6 11.6-26 9.6-41.5-1.3-10.3-4.2-16.7-11.2-25.1l-5.5-6.5.3-40.5c.1-22.3.5-140 .9-261.5.5-189.1.4-221.2-.8-222.2-1-.9-26.1-1.3-95.8-1.8-52-.3-99.2-.7-105-.9s-19 0-29.5.4m134 1.5c69.4.4 94.3.9 95.3 1.8 1.2 1 1.3 32.8.8 221.7-.4 121.3-.8 238.9-.9 261.5l-.3 41 5.3 6.3c7.5 8.9 10.2 14.7 11.4 24.5 1.7 13.4-.9 27.8-6.7 36.2-1.3 1.9-3.5 5.1-4.9 7.1l-2.5 3.7v51.3c0 54.9-.5 61.3-5.1 70.5-3.9 7.6-10.5 16.3-15.7 20.3-6.2 4.8-6 3.2-5.1 40 .5 24.2.4 28.3-.9 29.8-1.8 2.1-5.5 2.3-7.1.5-.7-.9-1.2-10.7-1.3-29.3-.3-23.9-.5-27.9-1.8-28.2-1.6-.3-11.8 7.8-20.5 16.1-9.8 9.5-27.9 20.1-42 24.7-3.8 1.2-7.3 2.5-7.7 2.9s-1 9.4-1.3 20.1c-.7 27.5-2.2 43.7-5.1 57-2.7 12.1-5.1 18.7-7.6 20.7-2.7 2.3-13.8 4.2-20.7 3.7-10.3-.9-12.8-2-15.2-6.6-2.8-5.4-8.9-43.9-11.9-74.8-.7-6.3-1.5-13.3-1.8-15.5l-.7-4-8-.7c-4.4-.4-15.4-1.2-24.5-1.8-43.6-2.8-74.9-5-79-5.5-2.5-.3-12.8-.9-23-1.5-10.2-.5-24.3-1.4-31.5-2-20.9-1.6-78.6-5.8-96.5-7-9.1-.6-24.8-1.7-35-2.5-10.2-.9-27-2-37.5-2.5-10.4-.6-23.7-1.5-29.5-2s-24.9-2.1-42.5-3.5c-17.6-1.3-33.9-2.7-36.1-3-2.3-.3-9.9-1-17-1.5s-19.3-1.4-27.2-2.1l-14.4-1.2-4.1 4c-7.9 7.5-18.5 12.7-34.3 16.8-18.2 4.7-31.5 6.3-60.2 6.9-7.3.1-13.6.7-14 1.2-1.2 1.3.1 50.1 1.3 51.3.6.5 5.5 1.5 11 2.1 20.4 2.2 37.3 8.8 45.8 17.9 3.5 3.7 4.8 6.1 5.8 10.6 1.2 5.4 1.1 6-1.1 10.3-4.8 8.9-20.7 18.1-38 21.7-10.7 2.3-29.6 3.3-43.1 2.4-31.1-2.1-50.9-13.3-54.2-30.6-.9-4.7 2.4-11.6 8.2-17.2 8.1-7.8 26.3-14.1 46.1-15.9l7.5-.7-.3-15.2c-.2-8.4-.7-20.3-1-26.5l-.7-11.3-11-.7c-48.5-3.2-69.1-7.9-83.5-18.7-7.9-6-12-12.6-12.2-19.4-.1-4.9.3-6 3.9-11.1 4.5-6.4 11.8-12.3 20.5-16.7 3.2-1.6 5.8-3.5 5.8-4.2 0-.6-.5-5.7-1-11.2-.6-5.5-1.2-30.9-1.5-56.5-.2-25.6-.7-52.3-1.1-59.4-.7-14.6 0-13.1-11.2-21.9-10.7-8.4-16.7-19.4-18.4-33.6-1.5-12.6-.3-19.6 5.1-31.2 8.7-18.6 22.7-31 47.1-41.7 14.9-6.5 19.4-8.3 28-11.2 11.8-3.9 29.1-8.4 39-10 4.1-.7 7.9-1.7 8.5-2.2s.8-13 .7-32.1c-.5-57.5 2.4-87 10.5-105.7 1.9-4.5 2.4-5.6 6.7-16.7 4.7-11.9 5.7-17.3 4.4-24.5-1.6-9.3-5.8-12.3-17.3-12.3-8.9 0-16.8 4.1-28.5 15-10.8 10-14.5 12.7-25 18.2-9.2 4.9-15.3 6.3-27.8 6.3-11.7 0-15.1-.9-24.4-6.2-9.7-5.6-14.3-10.5-18.6-19.7-3.2-6.9-3.5-8.6-4-18.6-.5-13.5 1.2-21 6.9-30.8 7.5-12.6 21.5-23.7 36.4-28.7 8.1-2.7 17.4-8 19.9-11.3 2.8-3.7 2.6-9-.4-12.2-1.3-1.3-5.5-4-9.4-5.9-23.6-11.3-27.3-13.4-32-17.7-2.9-2.6-7.1-8.1-9.6-12.5l-4.5-7.9v-11.7l.1-11.8 4.8-9.5c3.6-7.1 6.2-10.8 10.4-14.6 11.8-10.7 19.8-13.9 35.4-13.9 9.1 0 10.8.3 18.7 3.4 12.6 5.1 12.5 5.1 12.9-.9.1-2.8.9-9.5 1.7-14.9 3.9-26.7 19.8-41 48-43.2 10.4-.8 17.5.7 26.7 5.7 8.2 4.4 14.9 11 19.2 18.8 4.9 9.2 5.8 14.5 6.3 40.8.6 27.2.5 27.1 7.1 20.5 9.6-9.5 27-20.3 38.2-23.6 13.4-4 32.6-2.9 45.5 2.5 11.5 4.8 19.2 11.2 24.8 20.7 5.7 9.7 7.1 16 6.4 29.2-.4 7.9-1 10.7-3.6 16.3-6.8 15-22.7 28.2-42.1 34.9-3 1-14.5 3.7-25.5 5.9-24.2 4.8-27.6 5.8-36.5 10.5-14.9 7.8-20.5 20.4-11.9 26.5 3.2 2.3 5.5 2.5 23.5 1.5 17.5-.9 23.8 0 32.8 4.7 16.2 8.6 24.5 25.5 21.7 44.3-1.3 9.1-4.5 15.5-11 22.1-8.2 8.3-14.2 11.4-32.2 16.6-27.7 8-29.3 8.6-34.1 11.6-8.1 5.2-12.7 15.4-12.8 28.2 0 7.1-1.7 9-5.6 6.4-2.6-1.7-2.7-1.9-2.2-10.9.4-7.6 1-10.1 3.6-15.1 6.8-13.3 15.2-19 36.7-24.9 24.8-6.8 31.5-9.9 39.7-18.1 4.4-4.4 6.1-7.1 7.3-11 3.3-11.4.5-28.9-5.7-35.2-7.7-8-14.9-9.6-41.4-9.1l-17.9.3-5.2-3.3c-8.3-5.3-9.6-7.8-9.1-17.1.6-10.2 3.9-15.3 14.5-22.1 10.8-7.1 24.5-11.7 45.8-15.6 21.8-3.9 36.5-10 47.2-19.8 10.2-9.3 13.7-16.2 14.9-29.6 1-11.6-3.4-23-12.3-31.5-8.5-8.2-18.9-11.6-35.5-11.6-18-.1-29.4 4.3-46 17.7-12.4 10-15 11.6-19.4 11.2-3.4-.3-4.2-.8-6.2-4.5-2.1-3.9-2.3-5.6-2.8-27.8-.5-21.1-.8-24.6-2.9-31.6-2.7-8.8-4.5-11.9-10.3-17.1-10.9-9.9-32-11.6-48.2-3.9-6.3 2.9-13 9.2-15.8 14.8-3.1 6-6.2 23-6.2 33.9 0 7.7-.4 10.1-1.7 11.6-2.1 2.3-5.1 2.3-7.7-.1-1.2-1-4.6-2.9-7.6-4.1s-6.9-2.8-8.5-3.5c-7.3-3.1-14.2-3.9-21.8-2.5-18.5 3.2-29.8 14.1-34.3 32.9-1.5 6.4-1.6 8.4-.5 14.5 2.3 13.9 10.4 22.4 29.4 30.7 6.5 2.9 14.2 6.7 17.1 8.5 13.5 8.5 15.1 22.3 3.5 31.6-4.1 3.2-7.4 4.9-24.9 12.3-8.4 3.6-12.4 6.2-18.2 11.8-8.7 8.4-11.9 15.6-13.8 30.2-.8 6.1-.6 9.3.6 15.3 1.9 9.2 3.3 12.1 8.4 17.2 10.2 10.2 27.8 13.9 44.1 9.2 8.6-2.4 13.6-5.4 23.9-14.4 20.3-17.6 27.7-21.8 39.6-22.6 12.2-.8 22.5 4.5 27.7 14.2 3.2 6.1 3 17.1-.5 25.1-1.4 3.3-4.4 10-6.5 15-4.2 9.4-8.5 23.8-10.2 34-2.4 13.7-4.1 48.6-3.8 79.5l.2 31.5 8.8.7c9 .7 18.4 4 24.4 8.8 4.8 3.8 5.8 2.9 7.1-6.6 5.5-38 34.7-78.2 71.6-98.7 17.1-9.5 35.7-15.2 58.6-17.8 11.3-1.3 51.8-1.7 98.9-.9l29.4.4.9-2.4c.6-1.5.7-64.9.4-162.3C483 58.3 483.1 54 486.1 52c.4-.3 49.5-.5 109.1-.4 59.5 0 116.9-.2 127.3-.6 10.5-.4 23.7-.6 29.5-.4s52.8.6 104.5.9"/><path d="m510.5 62-16 .5-.3 87.5c-.1 48.1 0 88.5.3 89.7.5 2.3.7 2.3 17.2 2.3h16.6l-.9-65.8c-1.1-88.7-1.2-81.8.8-83.8 1.5-1.5 4.5-1.7 27.5-1.5 22.9.1 25.9.3 27.1 1.8.8 1.1 1.2 5.9 1.2 14.9v13.2l17.5.4c14.5.2 17.7.6 19.1 1.9 1.5 1.5 1.6 6.7 1.5 53 0 28.3.2 54.7.5 58.6l.6 7.3H645v-25.2c0-13.9-.4-38.1-1-53.8-.5-15.7-1.1-36.8-1.4-46.9l-.5-18.3 2.9-2.9 2.8-2.9h19c15 0 19.2.3 20.1 1.4.6.8 1.6 4 2.1 7.2 2.8 17.3 6.3 37.4 8.5 49.4 1.3 7.4 4.5 25.9 7 41s5.2 31.1 6 35.5 1.5 9.4 1.5 11.1.6 3.6 1.3 4.2c1.5 1.3 22.1 1.2 23.4-.1 1-1.1 1.1-178.3 0-179.3-.8-.8-200.8-1.2-226.2-.4m225.2 1.4c1.1 1 1 176.2 0 177.3-.5.4-5.7.8-11.5.8h-10.7l-.3-3c-.1-1.7-.9-6.8-1.7-11.5s-3.5-20.9-6-36-5.7-33.6-7-41c-2.5-13.4-6.3-35.8-8.5-49.7-.6-4-1.8-7.7-2.5-8.3-.9-.8-7.7-1-21.4-.8-26.8.4-24.7-1.9-24.3 26.1.2 11.7.7 32.9 1.2 47.2.6 14.3 1 37.4 1 51.2V241h-19.8l-.6-6.3c-.3-3.4-.5-29.8-.5-58.6.1-47.3 0-52.5-1.5-54-1.4-1.3-4.6-1.7-19.1-1.9l-17.5-.4v-13.2c0-9-.4-13.8-1.2-14.9-1.2-1.5-4.2-1.7-28.1-1.8-23.9-.2-27 0-28.5 1.5-2 2-2-3.6-.8 84.4l.9 65.3-15.9-.3-15.9-.3v-177L511 63c24.7-.8 223.9-.4 224.7.4m22.7-1.7-10.1.4V152l.1 90h26.3c29.9 0 28 .6 26.8-8.5-.5-4.3-1.5-6.6-4.5-10.4-5.6-7-17.8-27.9-19.2-32.6-.6-2.2-1.2-7.6-1.2-12-.1-10.8 2.2-15.3 14.5-28 10.9-11.4 11.5-12.8 10.4-24.1-.7-8-3.5-13.1-9.3-17.3-1.8-1.2-3.3-3.4-3.7-5.3-.6-2.7-.3-3.6 2.2-5.8 2.9-2.6 3.2-2.7 22.4-3.3 10.7-.3 31.1-.6 45.4-.7l26.1-.1 2.7 2.5c3.9 3.6 3.5 6.6-1.9 12.8-2.5 2.9-5.2 6.4-5.9 7.8-1.7 3.2-3.5 13-3.5 18.9 0 4.3.3 4.7 10.8 15 14.2 14 17.3 19.9 17.5 32.9.1 8.9 0 9.3-4.6 18.5-3.4 6.8-7 12.1-13 18.8-10.6 12-11.7 13.7-11.7 17.5v3.2l9.3.5c5 .3 20 .4 33.2.4l24-.2.5-13c.3-7.2.5-47.4.4-89.3-.1-56.5-.5-76.7-1.3-77.5-.9-.9-23.2-1.2-86.9-1.2-47.1-.1-90.3.1-95.8.2m181.7 2c.8.8 1.2 20.8 1.3 77 .1 41.7-.1 81.4-.4 88.3l-.5 12.5-24 .2c-13.2 0-27.7-.1-32.2-.4-7.7-.4-8.3-.6-8.3-2.7 0-2.8 1.6-5.1 11.7-16.4 9.1-10.3 15.6-21.9 17.3-30.9 1.3-7.4-.2-18-3.7-25-2-4.1-5.9-8.9-13.7-16.5L876.7 139l.6-7.2c.9-9.9 2.2-13.4 7.7-19.8 5.4-6.3 6.4-8.8 5.5-13-1.3-5.7-3.3-6.1-35.3-5.9-15.8.1-36.5.4-46.1.8l-17.3.6-2.5 2.9c-3.5 4.1-2.5 9 2.7 13.4 2.1 1.8 4.8 4.7 5.9 6.5 2.2 3.6 3.8 14.9 2.7 19.3-.4 1.6-4.7 6.9-9.5 11.9-11 11.3-12.7 13.8-14.7 21.6-1.7 6.8-1.4 14.3 1.1 22.4 1.6 5.4 13.3 25.2 18.7 31.7 3.5 4.2 3.9 5.4 4.1 10.5l.2 5.8-25.6.3-25.5.2-.1-88.9v-89l9.6-.4c5.3-.1 47.9-.3 94.8-.2 63.5 0 85.5.3 86.4 1.2"/><path d="M537.5 103.2c-.3 1.3-.2 32.9.3 70.3l.7 68 17.2.3 17.1.2.7-9.7c1.2-15.4-.5-129.6-1.9-130.5-.6-.4-8.4-.8-17.3-.8-16 0-16.3 0-16.8 2.2m33.8-.5c.9 1.4 2 120.6 1.2 129.6l-.7 8.7-16.1-.2-16.2-.3-.7-68c-.4-37.4-.6-68.6-.3-69.3.3-.9 4.5-1.2 16.4-1.2 8.8 0 16.2.3 16.4.7m82.7 1.8c-.6.8-.8 6.7-.4 16.6.3 8.5.9 39 1.3 67.9l.6 52.5 23.8.3c19.1.2 23.7 0 23.7-1.1 0-.7-.4-1.7-1-2.3-.5-.5-2.3-10.4-4-21.9-3.1-21.6-4.7-31.5-10.6-63.6-1.9-10.2-4.5-25.2-5.9-33.4-1.3-8.1-2.6-14.9-2.7-15.1-.2-.1-5.6-.5-12-.7-8.6-.3-12-.1-12.8.8m23.9 1c.2.3 1.4 6.8 2.7 14.5s3.9 22.5 5.8 32.8c5.9 32.6 7.5 42.2 10.7 64.2 1.7 11.8 3.6 22.1 4.1 22.8.9 1-3.4 1.2-21.8 1l-22.9-.3-.6-51.5c-.4-28.3-.9-58.7-1.3-67.6-.3-8.8-.3-16.3 0-16.6.6-.6 22.6.1 23.3.7m125.7-1c-.3.9.8 3 2.6 5 3.4 3.9 7.8 17.2 7.8 23.6 0 5.5-2.6 10.6-7.8 15.2-11.6 10.5-16.1 15.5-17.3 19.8-3.5 12 .2 27 10 40.7 13.8 19.1 13.1 17.7 12.4 23.1-.3 2.7-.3 6.1.1 7.5l.6 2.6h27.5c23.3 0 27.5-.2 27.5-1.4 0-.8-.4-1.8-1-2.1-2.7-1.7.3-6.9 12.4-20.9 9.1-10.7 13.1-18 14.6-26.9 2.5-14.2-.5-21.6-12.9-32.7-8.7-7.7-13.6-14.3-14.4-19-1.3-8.4 4.8-30.1 8.8-31.7.8-.3 1.5-1.1 1.5-1.8 0-1.8-12.2-2.5-44.1-2.5-23.7 0-27.8.2-28.3 1.5m63.8.2c5.4.4 7.3.9 6.2 1.5-2.8 1.6-5.7 8.7-7.6 18.9-3.1 16.2-1.3 20.9 13.1 33.9 4.4 4 9.2 9.3 10.7 11.8 2.4 4.2 2.7 5.7 2.6 13.4 0 7.9-.3 9.3-3.6 16-2.1 4.1-7 11.2-11.4 16.3-12.3 14.4-15.4 20.1-12.2 23.3 1 1-4.6 1.2-25.7 1l-27-.3-.1-6.5c-.1-3.6-.2-7.3-.3-8.2 0-.9-3.7-6.5-8.1-12.4-4.5-5.9-8.8-12.3-9.7-14.3-6.2-14.2-7.2-20.4-4.9-28.6 1.8-5.8 3.9-8.4 18.2-21.6 8-7.4 9.1-13.7 4.8-28.4-1.8-6.3-3.4-9.9-5.5-12.1-1.6-1.7-2.6-3.3-2.3-3.7.9-.9 52.6-.9 62.8 0M587 131.9l-2.5.7-.5 50.3c-.3 27.7-.3 52.4-.1 54.8l.3 4.3h28l-.4-54.5c-.3-47.2-.5-54.7-1.8-55.5-1.7-1.1-19.2-1.2-23-.1m23.1 5.6c.4 2.7.7 27.2.8 54.2l.1 49.3h-25.8l-.3-3.8c-.2-2-.3-26.1-.1-53.5l.3-49.8 2.2-.9c1.2-.5 6.7-.8 12.2-.7l10 .2zM495.2 252.8c-.6.2-.5 128.3.2 128.9.1.1 7.7.5 16.8.9l16.5.7.5-31.8.4-31.8 2.8-2.3c2.7-2.3 3.1-2.4 22.6-2.4 10.9 0 20.5-.3 21.4-.6 1.4-.5 1.6-2.7 1.6-14.3 0-7.5.4-14.2.9-15 1.3-2.1 9.4-2.9 27.7-3 16.3-.1 23.6 1.1 25.6 4.2.4.7.8 6.8.8 13.7s.4 12.9.8 13.5 9.9 1.1 24 1.2l23.3.2 2.5 2.6 2.4 2.6 18.9-.2c14.6-.2 19.3 0 20.5 1 1.5 1.2 1.6 5.1 1.2 36.5-.3 19.3-.2 36.9.2 39 .6 3.2 1.2 4.1 3.4 4.7 4.3 1.1 17.8 8.2 25.9 13.5 9.9 6.6 26.2 23 33.6 33.9 7.7 11.4 15.2 26.3 19.3 38.5 3.6 10.9 8 30.2 8 35.8 0 6.5.5 6.7 15 7.1l13 .3.1-2.3c.1-2.7-.2-36.7-.6-66.4l-.3-19.9-6.3-1.3c-22.9-4.7-37.6-11.6-49.6-23.2-7.6-7.4-16.7-27.5-13.4-29.6.6-.3 1.1-2.1 1.1-3.9 0-2.1.8-4 2.1-5.2 2-1.8 2.3-1.8 10.7 0 20 4.1 38.7 16.4 49 32.2 5 7.7 5.2 8 3.7 4-1.6-4.1-6.4-10.5-12.6-16.7-10.3-10.3-23.7-17.2-40.1-20.5-8-1.7-8.7-1.7-11.1-.1-2.7 1.7-3.9 6.3-3.8 14.7 0 6 7 19.7 13.1 25.7 5.5 5.5 16 12.5 22 14.9 2.5.9 5 2 5.5 2.5 1.3.9 14.5 4.4 22.5 5.9l6.5 1.3.1 18.1c.1 9.9.2 28.7.4 41.6.1 12.9.1 24.3.1 25.2-.1 1.6-1.3 1.8-10.5 1.8-13.7 0-15.6-.7-15.6-6 0-5.8-4.3-24.8-8.4-37.2-11.8-35.8-36.6-65.5-67.1-80.6-3.8-1.9-8.6-4-10.5-4.7-2.7-.9-3.6-1.9-4.2-4.6-.4-1.9-.5-19.2-.3-38.4.4-29 .3-35.4-.9-37-1.3-1.8-2.7-1.9-20.9-1.6l-19.5.2-1.9-2.6-1.8-2.6-24-.4-24-.4-.2-12.3c-.4-16.7-.3-16.4-6.7-18.2-8.7-2.6-46.7-1.8-49.5.9-.3.4-.8 7.3-1.1 15.3l-.5 14.7-21.7.5c-20.7.5-21.9.6-23.9 2.7-2.2 2.1-2.2 2.9-2.7 33.9l-.5 31.7-15.5-.7c-8.6-.3-15.7-.7-15.8-.9-.1-.1-.4-28.7-.6-63.6l-.3-63.4 222 .2c122.1.1 222.2.5 222.6.9.8.8 1.4 141.9 1.1 241.1l-.2 65.5-3.2-3.1c-6.8-6.3-16-11.8-26.3-15.8-2.7-1-15.8-4.2-29-7l-24-5.1-.7-5.4c-.3-3-.9-15.7-1.2-28.2-.7-26.2-1.2-24.8 9.1-24.8 11.1 0 29.8-6.2 40.9-13.6 10.8-7.2 21.4-22.2 21.4-30.4 0-2.7-.8-4.5-3.4-7.3l-3.4-3.7h-8.8c-20.6 0-33.7 5.4-47.9 19.8l-8.5 8.6v-19c0-10.5.3-21.1.6-23.6.6-4.1 1-4.6 5.8-7.1 5.4-2.9 19.1-14 28.9-23.5 10.9-10.6 21.8-27.3 26.3-40.3 6.6-19.3 7.2-35.7 1.6-42.2-3.8-4.3-18-.2-31.2 9.1-9.8 6.9-23.3 21.8-29.2 32.2-3.1 5.6-8.2 20.4-9.9 29l-1.3 6.5-.7-4c-1.1-6.7-9.7-38.5-10.7-39.8-.5-.7-2.4-4.6-4.2-8.7-4.7-10.9-15.3-23.7-24.6-29.9-7.5-5-18.3-9.1-24.1-9.1-3.8 0-9.7 6-11.4 11.7-2.1 7.4 1.7 24.7 8.3 37.1 10.7 20.1 25 33.7 48.6 46.4 4.4 2.4 5.6 3.8 9.6 11.1 4.6 8.3 4.6 8.5 4.7 18.3 0 5.4.4 11.9.8 14.4.5 2.6.6-1.5.4-10l-.4-14.5-4.3-8.5c-3.8-7.6-4.8-8.8-9.5-11.5-26.3-15-37.9-26.2-49.3-47.5-5.9-11-9.7-26.4-8.3-33.6.9-4.8 7.8-12.4 11.4-12.4 6.2 0 15 3.8 24.4 10.3 6.4 4.5 18.7 19.2 21.3 25.4.9 2.1 2.9 6.4 4.5 9.6 3 6 10.8 34 11.6 41.4.8 6.9 2.7 5.1 4.6-4.3 2.8-13.3 8.1-25.6 15.1-34.9 10.8-14.3 23.4-25 36.5-31.2 9.2-4.3 14.3-4.3 17.5 0 1.8 2.5 2.1 4.2 2.1 13-.1 11.4-1.7 18.9-6.9 30.9-3.9 9-13 22.9-20.1 30.6-9.2 10.1-31.2 28.1-36.1 29.6-2.8.9-3.4 5.8-3.4 30.3 0 14.8.3 19.3 1.3 19.3.6 0 4.9-3.8 9.4-8.4 6.5-6.6 10.1-9.3 17-12.9 10-5.1 16.9-6.7 29.4-6.7h8.7l3.1 3.9c1.7 2.2 3.1 5.1 3.1 6.6 0 4.6-6.1 14.6-13.5 22-11.2 11.3-29 19.1-46.8 20.4-6.7.5-10.2 1.2-10.8 2.2-.9 1.4-.4 34.7.7 49.7.4 4.8 1.1 8.5 1.8 8.7.6.2 11.5 2.5 24.1 5.1 12.7 2.6 25 5.5 27.5 6.6 9.2 3.9 17.2 8.4 22.7 12.8 7.8 6.3 8.1 6.5 8.8 5.8 1-1 .8-306.9-.2-307.9-.7-.7-443.8-1.9-446.1-1.1"/><path d="M783.5 288.1c-1.5 2.3 2.3 20.1 6 28.4 2.5 5.8 13.9 21 20.3 27.4 4.5 4.3 17.9 13.1 20.1 13.1 1.7 0 1.3-5.7-1.3-16.5-3.5-14.3-5-18.3-10.6-27.9-8-13.4-18.6-21.9-31.2-25-1.5-.3-3-.1-3.3.5m12.7 4c1.5.8 5.6 4 9.2 7.2 6.9 6.1 14.6 17.8 18.4 27.9 2.6 7.1 6.5 24 6 26.6-.3 2-.8 1.8-7.5-2.3-8.9-5.4-13.7-10.1-23.1-22.5-4.8-6.3-8.2-12-10.1-17-3-7.8-5.7-21.2-4.7-22.9.7-1.1 7.2.6 11.8 3M591 293.9l-2.5.7.3 42.9c.2 23.7.5 44.2.8 45.6l.5 2.6 15.7.9c10.5.6 16 .6 16.5-.1.7-.9.2-91.4-.5-92-.8-.6-28.6-1.1-30.8-.6m29.8 1.6c.5.4 1.5 88.4 1 89.7-.4 1-3.5 1.1-15.6.4-12.6-.7-15.2-1.2-15.6-2.5-.3-.9-.6-20.9-.8-44.5-.3-42.1-.3-42.9 1.7-43.6 1.7-.7 28.5-.2 29.3.5m280.5 7.9c-10.2 4.8-19.9 13.9-29.1 27.2-2.4 3.5-6.9 15.1-8.2 20.9-.4 2.2-2 9.4-3.4 16-2.8 13.1-3.1 16.5-1.6 16.5 2.9 0 26.2-21.7 33.4-31 10.7-13.8 18.6-33.9 18.6-47.3 0-4.2-.2-4.7-2.2-4.7-1.3 0-4.6 1.1-7.5 2.4m8.7 2.8c0 6.8-2.7 17.4-6.1 24-.5 1-.9 2.2-.9 2.7 0 1.6-7.1 13.2-11.6 19.1-8.5 11.1-32.4 32.7-32.4 29.3 0-1 1.2-7.2 2.6-13.8s3-13.8 3.4-16c1.2-5.6 5.4-15.9 8.1-19.7 9-13.1 17.8-21.5 28.4-27.1 7.2-3.9 8.5-3.6 8.5 1.5m-371.3 18.5c-.9.8-.9 30.3 0 46.1.5 9.9.9 12.2 2.2 12.6.9.2 9.9.8 20 1.1l18.4.7-.7-28.3c-.4-15.6-1-29.4-1.3-30.7-.5-2.2-.6-2.2-19.2-2.2-10.3 0-19.1.3-19.4.7m37.7 2c.3 1 .8 14.3 1.2 29.6l.7 27.9-18.4-.7c-10.1-.4-18.8-1.1-19.2-1.5-1-.9-2.3-53-1.4-55.4.6-1.4 3-1.6 18.6-1.6 16.2 0 18 .2 18.5 1.7m56.9-.1c-.9 3.6-1.1 60-.1 60.9.8.8 38.5 3.1 39.2 2.4.8-.8.9-63.9.2-64.7-.4-.4-9.3-.9-19.6-1.1l-18.9-.3zm38.3-.4c.7.8.6 61.9-.2 62.7-.7.7-36.4-1.6-37.2-2.3-.9-1-.9-57.6.1-59.9.7-1.8 2-1.9 18.6-1.5 9.9.1 18.3.6 18.7 1m12 3.7c-.8 1.3-.9 61.1-.1 61.9 1 1 30.9 5.1 31.6 4.3.4-.3.9-15.1 1.2-32.8.6-30.9.5-32.3-1.3-33.3-2.3-1.2-30.7-1.3-31.4-.1m30.8.7c1.3.5 1.4 4.3 1 31.7-.3 17.2-.7 31.7-.9 32.3-.3 1.1-28.7-2.4-30-3.8-.8-.8-.7-58.6.1-59.9.6-1 27.3-1.3 29.8-.3m71.6 61c.1 8 10.2 20.3 22.4 27.3 8 4.6 23.4 9.7 24.8 8.3.5-.5.4-2.2-.2-3.7-1.2-3.3-9.7-15.5-10.8-15.5-.4 0-4-3-8.1-6.5-4.1-3.6-7.9-6.5-8.5-6.5s-3.8-1.2-7.1-2.5c-3.3-1.4-7.5-2.8-9.2-3.1-3.1-.6-3.3-.5-3.3 2.2m11.4 1.5c6.5 2.4 10 4.4 14.8 8.6 3.5 3 7.3 6.2 8.6 7 2.7 1.9 12.4 16.2 11.7 17.3-1 1.6-14.8-3.2-23-8-11.7-7-22.5-19.4-22.5-26 0-2.6.2-2.6 10.4 1.1m-433.9-1.5c-1.6.2-7 .9-12 1.5-10.4 1.2-17.4 2.8-30 6.9-27.6 8.9-48.6 25.1-65.3 50.5-13.9 21.2-19.1 34.2-22.4 57-1.5 10.5-1.5 9.8-.4 61.7l.8 39.8h3.2c1.8 0 7.9-.7 13.7-1.5 11.3-1.5 21.4-2 38.4-1.8 14.3.3 16.8.1 18.2-1.3.9-.9.1-1.9-3.7-4.2-5.5-3.4-10.7-10.1-13.5-17.2-1.1-2.7-2.4-5.1-3-5.4-1.2-.4-20.4 4.2-28.5 6.9-4.6 1.5-5.4 1.6-6.7.2-1.3-1.3-1.2-1.7 1.1-3.4 1.4-1.1 7.8-3.7 14.3-5.7 6.5-2.1 12.9-4.1 14.3-4.5 2.1-.7 2.5-1.4 2.2-4.2-.1-1.8-.5-3.5-.7-3.7-.2-.3-7.4-.7-16-1-12.7-.4-16-.8-17.7-2.2-4.4-3.5-1.6-4.2 16.1-3.9 15.9.3 16.6.2 16.4-1.7-.1-1-.6-7.8-.9-15-.7-12.5-.6-13.3 2-20 4.3-11.2 7.1-16.6 10.9-21.2 2.5-3 3.9-5.9 4.7-10 4.9-25.7 10.2-40 15.6-42.4 6.3-2.9 11.9 2.6 20.5 20.3 3.6 7.4 7.3 14 8 14.6 1.6 1.3 12.6 2.8 28.2 3.9l9.8.7 17.2-17.7c15.3-15.7 17.6-17.6 20.4-17.6 2.5 0 3.6.6 4.6 2.7 1.3 2.7 3 12.3 4.2 24.8 1 10.2 3.6 30.9 4.2 33.5 1.5 7.3 4.9 15.5 7.4 18 6.7 6.7 20.7 4.5 46.5-7.2 18.3-8.4 39.6-15 59.4-18.5 15.2-2.6 43.9-2.4 57 .4 20.1 4.4 48.9 17.5 62.5 28.6 18.1 14.7 30.9 29.8 39.2 46.4 6.4 12.9 6.6 13 15.2 8.6 7.3-3.6 16.1-12.5 19.6-19.7 2.3-4.8 3-7.6 3.3-14.7.8-17.1-4.4-26.9-20.6-38.2-6.4-4.5-8.4-6.5-11-11.5-3.9-7.3-5.2-14.5-3-17 .9-.9 2.1-3.4 2.8-5.5 2.6-8.1 12.8-15.7 21.3-15.7 2 0 7.8 1.6 12.7 3.5s9.4 3.5 9.9 3.5c1.9 0 13.3 11.5 17.3 17.2 5.4 8 11.3 20.6 14.4 30.8 3.8 12.8 5.3 40.2 2.9 53.8-3.3 18.5-8.1 29.5-18 41.9-5.9 7.4-9.8 11.3-21.4 21.1-4.3 3.7-3.4 5.2 3 5.2 7.4 0 29.1 5.3 38.7 9.4 8.7 3.7 17.7 9.7 26 17.2 2.8 2.4 5.5 4.4 6 4.4.6 0 1.6-2.6 2.2-5.8 7.5-37.4 21-67.5 35.9-80 6.5-5.5 16.4-11.5 21.6-13.2 2.2-.7 4.5-1.6 5-2 2.7-2 20.3-5.3 29-5.4 5.6 0 9.5-.5 9.5-1.1 0-1.3-10.2-7.8-16.5-10.5-5.8-2.5-34.5-9.3-46-10.9-4.4-.6-11.4-1.5-15.5-2.1s-14.2-1.1-22.5-1.1c-10.3.1-15.8-.3-17.5-1.2-2.4-1.2-2.5-1.7-2.2-8.5.4-9.1-1.7-21.1-6.3-37.2-4.4-15.1-8.3-24.1-14.8-34-7.4-11.2-8.4-12.4-18.2-22.7-9-9.4-19.6-17.5-27-20.5-2.2-1-7.3-3.1-11.3-4.7-6.9-2.9-24.1-6.7-41.2-9-19.1-2.7-32.1-3.6-89.5-6.1-12.1-.5-30.5-1.4-41-2-10.4-.5-26.6-1.2-36-1.5-9.3-.4-21.5-.8-27-1.1-13.7-.6-126.3-1.3-130-.8m130 1.8c5.5.3 17.7.7 27 1.1 9.4.3 25.6 1 36 1.5 10.5.6 28.9 1.5 41 2 57.4 2.5 70.4 3.4 89.5 6.1 11.3 1.5 33.9 5.9 35.8 6.8 1 .5 4.6 2.1 8.2 3.6 10.8 4.6 11.3 4.8 18.5 9.7 6.5 4.3 22.1 19.6 27.1 26.4 11.5 15.8 17.1 26.9 21.9 43.6 5 17.2 6.7 27.7 5.9 36.8-.9 10.5-1 10.4 18.5 10.7 22.2.3 38.3 2.3 63.6 8 16.7 3.8 25 6.9 33.3 12.5l4.9 3.3-9.2.2c-19.5.4-41.3 8.4-55.8 20.6-15.1 12.7-26.7 39.5-36.3 83.5-.5 2.2-.7 2.2-5.5-2.2-8.7-7.8-17.4-13.5-26.6-17.1-9.8-4-31.9-9.5-38.2-9.5-2.2 0-4.2-.4-4.6-.9-.3-.5 2.1-3 5.3-5.5 10-7.6 23.5-23.7 27.2-32.1 3.6-8.5 6.2-16.8 8.1-26.7 1.7-8.8 1.9-12.5 1.4-25.3-.8-17.8-1.6-23-5.4-35.1-5.3-16.5-12.9-29.3-22.9-38.6-3.6-3.3-7.5-5.9-9.8-6.6-2.2-.6-7-2.3-10.9-3.7-8.1-3.1-14.6-3-21.2.4-4.8 2.4-10 8.1-10.9 11.9-.4 1.5-1.6 4.2-2.7 6-2.6 4.4-1.8 10.4 2.4 19 2.6 5.4 4.1 7 10.8 11.7 9.4 6.6 15.4 12.9 18.4 19.3 1.8 3.9 2.1 6.6 2.2 15.7 0 10.4-.2 11.3-3 16.5-1.6 3-5.3 7.8-8.1 10.6-5.1 5.2-14.6 11.4-17.5 11.4-1.1 0-3.6-3.9-7.2-11.3-12-23.9-34.9-46.8-59.2-58.9-14.5-7.3-33.2-14.1-45.2-16.5-12.5-2.5-41-2.5-55.3 0-20.5 3.6-42 10.4-65 20.5-7.4 3.2-15.7 6.5-18.5 7.3-7.2 2-16.4 1.8-19.7-.5-3.1-2-7.2-10-8.7-16.7-1-4.4-3.4-23.5-4.6-35.9-1.1-10.6-3.3-23.8-4.5-26-.8-1.5-2.1-2-5.3-2-4.1-.1-4.4.2-21.4 17.6l-17.1 17.7-9.9-.8c-15.4-1.1-24.5-2.4-26.1-3.7-.8-.7-4-6.5-7.1-12.8s-6.7-13.2-7.9-15.2c-4-6.4-11.2-9.5-16.3-6.8-4.5 2.4-11.4 22-14.4 41-.9 5.4-1.9 7.4-5.7 11.9-3.1 3.5-5.6 8.7-10.3 20.8-2.7 7.1-2.8 7.6-2.2 20.8.4 7.4.8 14 .9 14.6.2.8-4.5 1.2-16.7 1.3-16.4.1-17 .2-17.3 2.2-.6 4 2.1 4.8 19 5.5 8.8.4 16.1.8 16.2 1 .2.2.7 1.4 1 2.6.9 2.7 1.3 2.5-17.3 8.5-14.5 4.7-17.4 6.7-14.7 10.3 1.4 1.9 1.5 1.9 7 .2 6.9-2.2 23.2-6.4 26.4-6.9 2-.2 2.7.5 4.6 4.9 3.3 7.9 8 14 13.3 17.3 2.6 1.7 4.5 3 4.2 3.1-3.5.6-8.3.8-17.4.7-16.9-.3-27 .2-38.4 1.7-5.8.8-11.7 1.5-13.2 1.5h-2.7l-.8-38.3c-1.1-53.7-1.1-52 .8-64.4 3.4-22.1 7-31 22.3-54.3 18.7-28.5 43.8-45.8 79-54.4 3.3-.8 10.1-1.9 15-2.5 5-.6 10.4-1.3 12-1.5 3.7-.5 116.3.2 130 .8M898 429.7c-1.4.3-5.8 2-9.8 4-8.6 4-17.2 12.2-21.5 20.1-3.3 6.1-2.7 6.9 5.1 5.8 15.2-2 31.6-11.3 38.8-22 5.2-7.7 4.8-8.6-3.3-8.5-3.8.1-7.9.4-9.3.6m15 1.1c0 2.2-7.7 11.7-12.3 15.1-10.1 7.6-23.8 13.1-32.4 13.1H865l3.2-5.3c8.7-14.1 24.1-23.6 38.6-23.7 3.4 0 6.2.3 6.2.8"/><path d="M316.5 459.2c-1.4 4.1-5.9 21.5-7.5 29-2 9.3-4.3 15-9.2 22.9-2.7 4.5-3.1 4.7-4.5 3.3-1.5-1.4-1.7-1.4-2.9.8-4.4 8-4.3 32.9.2 48.8 3 10.8 4.3 13.6 9.1 20 4.6 6.1 9.3 9 21.5 13.6 10.3 3.8 10.3 3.8 27.3 4.1 9.4.1 18.7-.2 20.8-.8 4.5-1.2 7 .2 6.5 3.5-.7 5-14 8.6-31.9 8.6h-11.6l-8.4 6.4c-10.5 8.1-32.1 18.2-54.9 25.9-32 10.8-49.6 18.2-57.7 24.4-4.5 3.5-6 8.7-3.9 13.6.8 2 2.2 3.7 3 3.7.9 0 3.1-1.7 5-3.8 3.9-4.2 5.3-3.8 6.5 2 .6 3.1.9 3.3 4.1 3 5.3-.5 17.8-4.2 24-6.9 5.3-2.4 18.3-6.9 32-11.1 13.6-4.2 34.6-7.2 56.5-8 22.3-.9 24.3-1.4 30.8-6.8 1.6-1.3 3.7-2.4 4.7-2.4s3.1-1.1 4.7-2.3c2.6-2.2 3.1-2.3 6.1-1 2.7 1.1 3.1 1.6 2.3 3.1-.5 1-2.2 2.4-3.7 3.2-1.6.8-4.3 3.1-6.1 5.2-5.5 6-21.1 13.3-48.3 22.8-29.2 10.1-38 15.9-41.9 27.6-2.8 8.1-2.2 13.5 1.9 17.6 3.9 3.9 6 3.7 6-.5 0-3.1 1.4-5.7 3.1-5.7 1.8 0 3.9 3.4 3.9 6.1 0 1.7.6 3.2 1.5 3.6 2.3.8 10-2.4 12.9-5.5 12.8-13.6 19-17.6 32.1-20.5 15.4-3.5 17.2-3.9 21.5-5.3 2.5-.7 11-2.7 19-4.4 15.1-3.1 42.8-11.2 53.4-15.6 5.9-2.6 15.1-7.5 27-14.8 6.8-4.1 9.3-4.4 12.7-1.7 3.5 2.7 10.4 4.8 20.2 6.2l8.6 1.2 4.4-4.6c10.9-11.2 28.4-18.9 50.9-22.3 5.9-.9 10.8-2.1 10.8-2.6 0-.6-2.8-3.9-6.2-7.4-12.2-12.4-17.2-23.8-17.2-38.9-.1-16.9 3.8-26.7 13.2-33.6 4.2-3.1 9.1-3.7 9.9-1.2.3.7-1.4 3.2-3.6 5.6-4.9 5.3-7.8 12.9-8.7 23-.7 8.1 1 16.6 5 25.2 5 10.7 21.2 26.2 29.6 28.5 5.3 1.4 6.5 3.1 4 5.8-2.8 2.9-6.2 3.6-11.4 2.3-7.5-1.9-23.4.5-39.7 6-11.1 3.7-15.4 5.8-23.1 11.2-7.2 5-8.8 7.5-9.1 13.8-.2 4.4.1 5.4 2.6 7.5 2.9 2.5 7.1 3.2 8.2 1.4.3-.6 2-1 3.6-1 1.8 0 2.8.4 2.4 1-1.5 2.4 3.4 1.9 18.7-2 9-2.2 19.7-4.7 23.8-5.5 12.1-2.4 35.2-3.6 52.5-2.9 12.5.5 19.3.3 30.5-1.1 16.1-1.9 24.3-4.2 30.5-8.5 7.1-4.9 8.8-11.5 6-23.1-1.1-4.2 2.7-7 9-6.8 5.2.3 14-1.3 20.8-3.7 12.6-4.4 33.8-24.7 41.2-39.4 7-13.8 10.3-30.6 9-45.5-3.6-42.2-21.2-74.4-42.9-78.5-3.5-.7-7.8-.9-9.5-.5-9.3 2-14.8 14.1-10.5 23 1.6 3.4 10.5 12.5 12.2 12.5s15.4 17.1 17.3 21.7c1.1 2.7 2.4 5.5 2.9 6.4s1 8.5 1.1 16.8l.2 15.1-2.9 3.3c-1.7 1.7-4.6 5.3-6.4 7.8-3.6 4.7-12.9 12.3-19 15.4-2 1-6.8 2-11.1 2.2-7.5.5-7.5.5-10.2-2.7-1.5-1.7-2.7-3.7-2.7-4.5 0-.7-.6-1.8-1.3-2.4-.8-.6-1.9-2.8-2.5-4.9-2.4-7.8-18.6-29.5-29.2-38.9-18.7-16.7-43.9-28.9-69-33.4-11.6-2.1-37-1.6-51.3.9-22.5 4.1-35.9 8.5-61.7 20.2-17.6 8-25.6 9.6-38.2 7.9-8.1-1.1-9.2-1.5-13.4-5.2-2.5-2.2-5.3-5.6-6.4-7.6-4-8-6.3-22.4-7.6-49.9-.6-11.2-.9-13.2-2.3-13.2-.9 0-5 4.1-9.1 9.2-4.1 5-10.1 11.7-13.2 15-6.6 6.6-5.1 6.3-25.8 4.8-19.6-1.5-29.9-3.5-32.7-6.2-1.2-1.3-5.3-8.4-9-15.8-6.5-12.8-8.7-15.8-9.8-12.8m9.3 14.5c3.8 7.8 7.8 14.4 9.2 15.5 3.3 2.4 15.9 4.5 35.4 5.9 14.6 1.1 16.2 1 19.2-.6 3.2-1.7 7.8-6.6 19.9-21.2 3.3-3.9 6.3-7 6.6-6.7.4.2 1 6.3 1.4 13.6 2 38.4 6.5 53.6 17.5 59.3 3.8 1.9 18.4 3.7 23.8 2.9 9.1-1.4 23.3-6.6 46.7-17.4 17-7.9 44.3-13.2 68-13.4 17.5-.1 25.3 1 40.7 5.5 9.4 2.8 28.4 12.4 39.2 19.9 8.1 5.5 18.3 15.2 24.3 23 3.1 4.1 7.2 9.5 9.1 12s4.6 7 6 10c1.3 3 2.9 6.2 3.3 7 .5.8 1.4 2.6 2.1 4 2.7 5.8 4.7 7 11.5 7 3.8 0 8.6-.8 12-2 6.9-2.4 16.7-9.8 21.3-15.9 1.8-2.5 4.7-6 6.4-7.8l2.9-3.2-.2-16.3c-.1-8.9-.6-16.7-1.1-17.3-.4-.5-1.7-3.3-2.8-6.2-1.8-4.9-15.4-22.3-17.4-22.3-1.5 0-9.7-8.1-11.9-11.7-4.2-6.7-.3-17.2 7.7-21 2.9-1.4 4.3-1.5 9.6-.5 23.7 4.4 43.2 42.6 43.2 84.7 0 15.2-1.5 21.9-7.5 34.5-4.4 9.2-7.9 14.1-17.3 23.8-14.5 15.1-29.6 22.8-44.1 22.3-9.4-.3-13.2 3.4-10.6 10.4 5.3 14.7-5.5 23.9-32.9 27.7-12 1.6-17.6 1.9-32.5 1.4-19.3-.7-41.4.5-53.5 2.9-4.1.8-14.7 3.2-23.5 5.4-17.5 4.5-18.6 4.7-18.3 2.9.4-1.8-5.9-2.8-7.3-1.2-1.8 2.1-3.8 1.7-7-1.6-2.6-2.6-2.9-3.4-2.3-6.7.4-2.1 1.3-4.8 2.1-5.9 1.7-2.7 11-9.2 18-12.8 15.1-7.6 41.3-12.9 50.8-10.4 5.6 1.5 11.6-.1 13.5-3.7 1.7-3.1.4-4.8-4.9-6.4-8.5-2.5-24-17.4-29.7-28.4-8.1-15.7-6.5-35.3 3.6-46.3 5.2-5.7 5.2-8.8 0-9.2-2.6-.2-4.7.5-7.8 2.5-9.3 6.3-13.4 16.5-13.6 33.8-.2 16.7 5.1 29 17.9 41.7 3.2 3.2 5.4 5.8 5 5.8s-5.3.7-10.9 1.6c-20.9 3.3-39.6 11.5-49.9 21.8l-4.9 4.9-9.9-1.6c-9-1.5-11.6-2.4-18.3-6.5-3.5-2.1-8.2-.6-18.9 5.8-5.6 3.4-13.8 7.9-18.3 10-10.8 5.2-37.6 13.4-55.4 17-8 1.6-16.5 3.6-19 4.4-4 1.2-15 4-20.6 5-4.4.9-10.7 2.8-14.7 4.5-5.4 2.4-14.2 9.6-16.5 13.5-2.1 3.5-11.5 9.1-13.7 8.2-.9-.3-1.5-1.8-1.5-3.5 0-3.3-2.2-6.1-4.9-6.1-2.6 0-4.1 2.1-4.1 5.7 0 1.8-.4 3.3-.9 3.3-1.8 0-6-6.1-6.7-9.5-1-5.4 2.8-14.5 8.1-19.4 4-3.6 22.9-14.1 25.6-14.1 1 0 19.2-6.4 30.9-10.9 11.9-4.6 23.8-11.2 27.4-15.1 1.9-2.1 4.8-4.6 6.5-5.4 2.8-1.5 4.9-5.1 3.7-6.4-.4-.3-2.3-1.1-4.4-1.8-3.4-1.2-3.8-1.2-6.2 1.1-1.5 1.4-3.6 2.5-4.8 2.5s-3.6 1.3-5.4 2.9c-5.4 4.7-11.3 5.9-31.9 6.5-17.8.5-38.6 3.3-50.4 6.7-10.4 3.1-30.7 9.9-36.5 12.4-7.3 3.1-14.2 5.2-21.2 6.4-4.8.8-4.8.8-4.8-2 0-2.7-2.2-5.9-4.2-5.9-.5 0-2.6 1.6-4.5 3.5s-3.8 3.3-4.3 3c-.4-.2-1.3-1.8-2-3.5-1.6-3.9 0-8 4.4-11.3 7.9-6.1 28.2-14.9 57-24.7 29-9.8 44.5-17 56-25.9l7.8-6.1h11.2c11.8 0 22.5-1.8 28.5-4.7 2.8-1.4 3.7-2.5 3.9-4.9.4-4.6-1.7-5.9-7.5-4.5-2.7.5-12.2.9-21.3.8-15.4-.3-17-.5-24-3.1-11.2-4.2-16.5-7.2-20.5-11.3-4.1-4.3-4-5.9.4-5.7 1.7.1 2.8-.2 2.5-.7-.7-1.3-6.4-1.1-6.4.2 0 2-2.1-.3-4.4-4.9-1.3-2.6-3.4-8.5-4.7-13.2-2-7.3-2.4-10.8-2.4-24 0-13 .3-16.2 1.9-19.5 1-2.2 2-3.4 2.3-2.8 2.2 6 12.4-12.1 15.2-27 1.7-9.4 7.3-28.7 8.2-28.7.5 0 3.9 6.1 7.7 13.7"/><path d="M298.3 527.5c-1.3.9-2.3 2-2.3 2.6 0 2.4 4.2 4.8 10.8 5.9 9.2 1.5 14.9 5.1 16.3 10.2.5 2.1 1.5 3.8 2.1 3.8.7 0 .7-.4 0-1.3-.5-.6-1.3-2.6-1.6-4.2-.9-4.2-5.9-7.2-14.7-9.1-4.1-.8-8.5-2.2-9.8-3.1l-2.5-1.6 2.5-2c2.1-1.7 3.3-1.8 9.4-1.3 3.8.4 8.5 1.4 10.5 2.4 4.9 2.4 8.7 8.5 9.5 15.3.6 5.2.4 5.7-1.6 6.2-1.2.3-3.2-.1-4.6-1-2-1.3-2.4-2.2-1.9-4.5.3-1.8.2-2.7-.4-2.3-.6.3-1 1.9-1 3.5 0 3.6 4 6.1 8.4 5.3l2.8-.6-.7-6.1c-1.6-13.7-6.5-18-22-19.2-5.5-.5-7.5-.2-9.2 1.1m81.5 6.5c-6.4 1.6-17.5 7.8-19.8 11-1.2 1.6-2 4-1.8 5.3.3 1.9 1 2.2 5.5 2.5 4.7.3 5.4 0 8.6-3.2 4-3.9 10-5.6 22.4-6 13.1-.4 16.4-4.4 6.4-7.8-6.5-2.3-16.2-3.1-21.3-1.8m15.4 1.1c2.9.6 6.6 1.8 8.2 2.6 2.6 1.4 2.7 1.6 1.3 3.1-1.2 1.1-3.9 1.6-9.3 1.8-13 .4-20.3 2.2-24.1 6-2.7 2.7-4.2 3.4-7.4 3.4-8.4 0-4.9-7 6.4-12.7 10.8-5.4 15.4-6.2 24.9-4.2m-62.6 22.5c-2 2-2 4.3 0 7.2q1.5 2.25.9 5.1c-1.1 5-3.1 5.9-13.1 6.2-10.2.2-11.8-.3-10.8-3.3.4-1.3.1-2.4-.7-2.9-2-1.3-6.3-1.1-7.7.3s-1.6 6.4-.4 7.2c.5.3.7-.7.4-2.3-.4-3.2 1.7-5.4 5-4.9 1.9.2 2.2.8 2 3.1-.2 1.7.3 2.9 1.3 3.3.8.3 1.5 1.1 1.5 1.6 0 .6 2.1 3 4.6 5.5l4.5 4.5 7.2-.4c6.3-.3 7.6-.1 10.6 1.9 7.1 4.8 22.9 1.7 21.3-4.2-.8-2.7-6.2-6.7-11.6-8.5-4.6-1.5-4.8-4.5-.7-9.2 6-6.9 5-9.5-4-10.8-8.4-1.3-8.5-1.3-10.3.6m15.7 1.6c2.3 1.2 2.2 2.1-.7 5.5-5.8 7.1-6.2 11.3-1.1 13.2 5.3 1.9 11.5 6.2 11.5 8 0 2.5-5.6 5.1-11.1 5.1-3.6 0-6-.7-8.5-2.4-3.1-2.1-4.3-2.3-10.5-1.8l-7.1.5-4.3-4.6c-2.4-2.5-4.1-4.8-3.8-5.1.4-.3 4.5-.6 9.3-.6 7.3 0 9-.3 10.4-1.9 2.5-2.8 3.2-9.3 1.2-11-1.9-1.6-2.1-4.2-.4-5.9 1.4-1.4 11.9-.7 15.1 1m34.1 4.3c-1.8 4.6 1.1 5.8 21.7 9.2 17 2.9 21.2 2.7 20.7-1-.5-3.3-3.7-4.3-22.9-7.1-20.7-3.1-18.8-3-19.5-1.1M405 566c13.5 2 19 3.7 19 6 0 2.1-5.5 2.1-18.2.1-16.2-2.7-20.2-3.7-21.8-5.6-1.8-2.2-.2-3.8 3.4-3.1 1.7.3 9.6 1.5 17.6 2.6m-25.2 11c-2.1 1.3-2.4 4.3-.5 5.8.6.5 5 2.4 9.7 4 4.7 1.7 10.9 4 13.8 5.1 6.5 2.6 11 2.7 11.9.4 1.1-2.9-3.7-5.6-22.7-13-8.3-3.2-10.1-3.6-12.2-2.3m6 .9c.9.5 4.4 2 7.7 3.2s6.9 2.8 8 3.6c1.1.7 2.6 1.3 3.5 1.3 2.3 0 9.1 5 8.4 6.1-.3.6-2 .9-3.8.6-4.7-.7-27.8-9.5-29.6-11.3-1.3-1.4-1.3-1.7.4-3 2.3-1.6 3-1.7 5.4-.5m147.9 107.7c-1.3 1.3-.8 2.7.6 1.6 1.8-1.6 5.3-.4 6.5 2.1.8 1.6 1.1 1.8 1.1.6.1-.9-.5-2.1-1.2-2.7-1.7-1.5-6.1-2.5-7-1.6M172.5 507.7c-11.2 1.5-31.7 6.9-46 12.1-21.6 7.8-28.5 10.7-28.5 11.8 0 .6 2.7 1.7 5.9 2.3 14.7 2.9 28.1 14.3 36.1 30.8 7 14.2 7.8 19.2 8.2 46.2.1 13 .2 28.4 0 34.3-.2 12.7.4 13.2 6.3 5.7 14.1-17.8 37.4-31.6 65.4-38.6l3.5-.8-.3-31.2c-.3-39.4-1.2-52.9-3.7-57.4-4.6-8.3-10.7-12.8-20.2-14.8-5-1-20.1-1.3-26.7-.4m32 3.2c6.5 2.9 11.1 7.3 14.2 14l2.5 5.3.7 39.7c.4 21.8.5 39.9.1 40.3-.3.4-4.1 1.7-8.5 2.8-24.4 6.2-46.9 20.4-61.3 38.4l-3.1 4 .2-10.5c.5-27.9-.4-57.5-2-63.9-3.9-15.5-10.5-27.2-20.8-36.8-6.5-6.2-12.6-9.2-22.7-11.3-2.7-.6-4.8-1.2-4.6-1.3.7-.6 23.7-9.5 31.8-12.4 10.1-3.6 13.1-4.5 27.5-7.7 15.1-3.3 15.4-3.3 29-3.1 10 .2 12.9.6 17 2.5"/><path d="M82.5 544.7c-24.8 7.6-34.5 39-19.7 64.5 3.1 5.5 8.7 10.4 16.9 14.9 1.6.9 3.8 3.3 4.8 5.5 1.7 3.6 1.9 7.6 2.2 55.4.3 46.8 1.8 87 3.2 87 .3 0 2.4-.5 4.5-1.1s8.4-1.6 14-2.3l10.1-1.2-.4-20.5c-.4-22.9-.6-22.1 6.8-25.9 9.4-4.8 37.3-7.1 54.2-4.6 10.9 1.6 13 2.4 18.7 6.4 2.7 2 3.2 2.9 3.2 6.6 0 2.3.3 4.5.6 4.9.3.3 2.9-.3 5.7-1.4 3.1-1.2 7.7-2.1 11.9-2.1 6.1-.1 7.1.1 10.5 2.8 7.5 6 9.9 15.9 6.8 28.5-.9 3.9-1.3 7.4-.8 7.8.4.4 4.4 2.1 8.8 3.6 21.8 7.7 35.9 18.1 39 28.8.9 3.1 1.7 5.7 1.8 5.7s7 .7 15.2 1.5c14.3 1.4 81.7 6.6 129.5 10 12.4.9 37.1 2.7 55 4s37.2 2.7 43 3 15.5 1 21.5 1.5c6.1.6 17.5 1.4 25.5 2 8 .5 27.1 1.8 42.5 2.9s42 2.9 59 4.1c17.1 1.1 36.2 2.5 42.5 3 6.3.6 21 1.7 32.5 2.5 11.6.9 23.5 1.8 26.5 2 3 .3 13 .8 22.2 1.1l16.7.7-.1-27.4c-.1-15.1.2-33.4.6-40.6.9-17.6 1.1-17.3-10.7-17.3-5.1 0-13.9-.4-19.7-1-5.8-.5-18.6-1.4-28.5-2s-31.7-1.9-48.5-3-42-2.6-56-3.5c-14-.8-34.5-2.2-45.5-3s-27.2-1.9-36-2.5-22.1-1.5-29.5-2c-7.4-.6-23.8-1.7-36.5-2.5-12.6-.8-41.4-2.8-64-4.5-22.5-1.6-51.3-3.7-64-4.6-24.5-1.7-27.5-2.4-27.5-6.8 0-4.7 1.6-5 21.8-4.2 10.3.4 20.3.9 22.2 1.1 4.1.5 77.5 5.9 100 7.5 8.5.6 31.5 2.1 51 3.5 19.5 1.3 39.6 2.7 44.5 3 9.4.6 12.9.8 72.5 4.9 70.6 4.9 83.1 5.7 114 7.6 10.2.6 23.4 1.4 29.3 1.8 6 .4 11.1.4 11.3 0 .3-.4.7-6.9.9-14.5s1.1-21.7 2-31.3c.8-9.6 1.5-18.2 1.5-19.1s-2.1-3.1-4.8-4.7c-2.6-1.7-7.9-5.6-11.7-8.7-17.9-14.2-40.1-20.4-75-20.8l-17-.2.3 6.3c.3 5.3 0 6.9-2.3 10.7-4.1 7.1-14.9 14.7-27 18.9-6.6 2.3-24 3.6-50.8 3.6-34.8 0-42.8 1-82.2 10.6-21.8 5.3-36.1.6-39.5-12.9-1.7-6.6-1.8-6.7-4.8-6.7-1.6 0-4.7-.6-6.8-1.4-2.2-.7-8.1-2.1-13.3-3l-9.5-1.8-14 7.1c-21 10.5-51 20.7-75 25.6-7.1 1.5-13.9 3-15.2 3.5s-6.3 1.6-11.2 2.5c-14.4 2.5-19.4 4.6-29.5 12.8-12 9.7-16 12.1-23.5 14.2-8.4 2.4-14.9 1.4-22.7-3.3-15.2-9.3-14.3-26.4 2.4-42.5 3.8-3.7 7.6-6.7 8.5-6.7s3.8-1.1 6.4-2.4c7.2-3.6 19.8-8.6 28.2-11.2 4.1-1.3 6.6-2.3 5.5-2.3-2.5-.1-12.8 3.1-18.6 5.7-8.4 3.8-23.9 10.2-24.7 10.2-2 0-14.3 14.1-16.2 18.5-3.8 8.9-4.2 12.7-2 19.9 1.6 4.9 2.9 7.2 5.3 9 9.2 6.9 18.4 8.9 28.2 6.1 8.8-2.6 12.2-4.5 24-14 11.1-8.8 16.5-11.3 28-12.9 2.8-.4 8.2-1.6 12-2.6 3.9-1.1 11.7-2.8 17.5-4 11.8-2.3 27.4-7 46-13.7 17.7-6.3 21.3-7.9 31.8-13.4l9.3-5 8.7 1.6c4.8.9 10.7 2.2 13.2 3s5.6 1.5 6.9 1.7c2.1.2 2.8 1.3 4.2 6.2 2.1 6.9 4.8 10.2 10.7 12.8 7.4 3.3 17 3.4 29.7.4 39.4-9.6 47.4-10.6 82.2-10.6 32.8 0 45-1.3 56.8-5.9 9.3-3.6 17.7-9.8 21.6-15.9 2.7-4.2 3-5.4 2.7-11.2l-.3-6.5 15.9.2c34.8.3 55.8 6.3 74.2 20.9 3.8 3 9 6.9 11.6 8.6 2.7 1.6 4.8 3.5 4.8 4.2s-.7 9-1.5 18.6c-1.3 14.6-1.8 23-2.5 43.9 0 1.2-2.2 1.3-13.2.7-24.2-1.3-58.6-3.5-140.8-9.2-60.4-4.1-63.2-4.3-72.5-4.9-4.9-.3-25-1.7-44.5-3-19.5-1.4-42.5-2.9-51-3.5-23.1-1.6-96-7-100-7.5-1.9-.2-12.3-.7-23-1.1-21.8-.8-22.4-.6-21.8 5.8.2 2.4 1 3.6 2.8 4.5 1.4.6 12.9 1.8 25.5 2.7 12.7.9 41.5 3 64 4.6 22.6 1.7 51.4 3.7 64 4.5 12.7.8 29.1 1.9 36.5 2.5 7.4.5 20.7 1.4 29.5 2s25 1.7 36 2.5 31.5 2.2 45.5 3c14 .9 39.2 2.4 56 3.5s38.6 2.4 48.5 3 22.7 1.5 28.5 2c5.8.6 14.4 1 19.1 1 6.2 0 9 .4 9.8 1.4s1 5.3.4 15.2c-.4 7.7-.6 25.8-.6 40.3l.2 26.4-16.2-.7c-8.9-.3-18.7-.8-21.7-1.1-3-.2-14.9-1.1-26.5-2-11.5-.8-26.2-1.9-32.5-2.5-6.3-.5-25.4-1.9-42.5-3-17-1.2-43.6-3-59-4.1S583 829.5 575 829c-8-.6-19.4-1.4-25.5-2-6-.5-15.7-1.2-21.5-1.5s-25.1-1.7-43-3-42.6-3.1-55-4c-93.6-6.7-142.8-10.8-144-12.2-.4-.4-1.3-3.1-2-5.8-2.7-9.8-14.6-18.7-35.6-26.6-6-2.3-11.3-4.4-11.7-4.8s-.1-3.4.8-6.6c3.7-14.2.1-26.5-9-31.3-4.1-2.1-14.8-1.8-21.3.6l-5.2 2V729c0-4.2-.4-5-3.2-7.2-5.1-3.7-8-4.6-19.6-6.4-23.9-3.6-59.3 2.1-61.8 9.9-.4 1.1-.5 10.9-.3 21.6l.4 19.6-6.5.7c-7 .8-17.4 2.6-19.4 3.4-2.1.8-3.6-29.9-4.1-85.6-.2-28.3-.7-52.7-1.1-54.3-.8-3.4-4.2-6.7-12.4-12.1-10.9-7.1-17.3-20-17.1-34.7.1-9.2.6-11.9 3.4-17.4 7.5-15.1 20.5-23.2 35.7-22.3 13.2.8 24.8 9.5 32.7 24.5 6.8 12.8 7.1 15.2 7.8 64.8.3 24.2.8 45.4 1.1 47.2.6 4.3 2.8 6.3 6.8 6.3s4.8-.9 7.6-8.3c2.3-6.2 9.5-17.4 15.6-24.6 4.6-5.3 21.3-17.9 26.9-20.3 14.9-6.2 22.4-8.5 39.5-11.7 18.1-3.4 26.6-4.2 49.4-4.5 18.2-.2 22.8-.6 25.9-2 2.2-.9 4.3-1.6 4.9-1.4.5.2-4.4 3.1-10.9 6.5-11.7 6.1-24.1 11-50.8 20.5-19.1 6.7-42.1 16.5-47.2 20.1-5.5 3.9-7.1 6.5-8.4 13.2-1.4 7.7 0 12.3 5.5 17.3 5.4 5 10.3 6.4 21.6 6.4 10.2 0 15.6-1.3 38.7-9.6 18.1-6.5 42.2-12.5 58.3-14.6 4.7-.6 10.8-1.5 13.5-2l5-.9-5 .4c-22.5 1.9-48.6 7.8-71.8 16.1-22.5 8.1-28.4 9.6-37.7 9.6-11.7.1-15.3-.8-20.6-5.5-5.9-5.2-7.7-9.3-6.8-15.5 1.8-12.9 10.8-18.1 67.9-38.8 27.1-9.8 31.6-11.6 43.3-18.1 6-3.2 8.1-4.8 7.3-5.6s-2.7-.5-6.8.8c-4.9 1.6-9.3 2-26.8 2.1-29.8.3-53.4 3.9-76 11.6-14.8 5-16 5.5-26.7 13.5-13.2 9.8-22.5 21.3-28.2 35-1.7 4.2-3.8 8-4.7 8.6-2.5 1.6-6.5 0-7.7-3-.6-1.7-1.3-20.2-1.7-47.8-.7-49.6-1-52.5-7-65-6.3-13.2-14.1-20.7-25.1-24.5-6.8-2.4-15.7-2.5-22.9-.3m826 31.4c-13.4 1.8-29.2 8.2-39.9 16-8.1 5.9-20.6 25.4-24.1 37.4-.8 2.7-2.6 8.8-4 13.5-3.8 12.4-9.1 39.8-10.4 53-2.8 30-4.9 138.8-2.8 146.3.7 2.7.9 2.7 6 2.1 21.9-2.6 39.1-10.4 55.5-25.2l5.2-4.7.4-48c.4-57.2 1.4-65.7 9.3-81 7.8-15.2 15.3-22.4 31.9-30.8 7.4-3.8 15.6-10.2 18.1-14.5 7.1-11.5 8.3-29.8 2.8-42-3-6.8-8.7-12.8-15.5-16.2-4.4-2.3-22-7.1-24.9-6.9-.9.1-4.3.5-7.6 1m17.3 1.9c15 3.6 24 9.8 29.5 20.4 3 5.8 3.2 6.7 3.2 17.6 0 11.4-.1 11.7-3.7 19.1-3 6.1-4.8 8.3-9.5 11.8-3.2 2.4-8 5.4-10.8 6.8-16.8 8.6-25 16.6-32.1 31.6-7.6 16.3-8.6 24.6-9 80.7l-.4 47.5-4.8 4.3c-10.8 9.7-22.8 17.1-34.1 21.2-8.3 2.9-24.1 5.4-25.6 3.9-2.4-2.4-.4-114.5 2.6-146.4 2.4-26.5 12-64.3 20-79.5 4.6-8.6 14.2-20.8 19.3-24.5 13-9.3 29-15 45.6-16.4.8 0 5.2.8 9.8 1.9"/><path d="M934.8 665.3c-3.2 1.7-7.7 4.8-10 6.8-11.2 9.5-18.2 30.2-20.7 60.9-1.1 14.4-.2 70.3 1.2 71.2 1.2.7 3.6-.9 13.1-8.4 11.6-9.3 18.2-16.5 21.7-24.1l3.4-7.2.3-51.3c.4-58.5 1.3-53.8-9-47.9m8 48.4-.3 50.8-3.7 7c-2.1 3.8-5 8.3-6.6 10-5.7 6.2-24.5 21.5-26.2 21.5-1.1 0-1.8-58.1-.8-70.5 2.4-29.5 8.2-47 19.3-58 4.4-4.3 15.4-11.4 17.8-11.5.5 0 .7 22.8.5 50.7m-802.3 12.9c-8.1 1.8-11.7 3.7-10.9 5.9 1 2.6 5.1 3 26.9 2.9 18.4-.1 21.7-.3 26.5-2.1 11.7-4.3 4-7.4-19.5-7.9-11.8-.3-17.8.1-23 1.2m43.5 1.6 4.5 1.5-4 1.8c-6.4 2.8-15.7 3.7-34 3.3-13.1-.2-17.6-.6-18.9-1.7-1.6-1.4-1.6-1.6.9-2.9 1.5-.7 5.5-2 8.8-2.8 8.2-1.8 36.3-1.3 42.7.8m26.5 14.6c-7.6 2.8-9.4 4-10 6.5-1.8 8.4-3.3 18.3-2.7 18.9.4.4 4.8 1 9.7 1.3 8.4.7 9.2.5 12.5-1.7 5.6-3.8 7.2-7.9 6.6-16.8-.4-4.1-1-7.8-1.5-8.3-1.8-1.8-9.5-1.8-14.6.1m12.8.5c1.3.9 1.9 3.2 2.3 8.2.6 8-1.1 12-6.8 15.6-2.9 1.8-4.3 2-11.2 1.4-4.4-.3-8.2-.8-8.6-1s0-4.6.9-9.7c1.6-8.7 1.9-9.3 5-11.2 7.5-4.4 15.1-5.7 18.4-3.3m-41.8.3c-13.7 3-31.2 3.3-49.2.9l-5.3-.8v3.4c0 9.1 5.8 38.4 8.9 44.8 2.8 6 15.3 8.9 33.6 7.6 5.7-.4 11.1-1.2 12-1.9 1.6-1.2 2.5-5.4 6.9-34.6 2-12.9 2.1-21.1.4-20.9-.7.1-4 .8-7.3 1.5m7.5 4.4c0 2.7-.6 8.9-1.4 13.7-.8 4.9-2.2 14.2-3.2 20.8-1.2 8.2-2.3 12.6-3.5 13.9-1.6 1.7-3.4 1.9-16.6 2-16.4.1-24.1-1.6-27.1-6.2-2.8-4.2-9.2-35.5-9.2-44.7 0-2.7.1-2.7 4.8-2 16.2 2.5 35.1 2.1 48.7-.9 3.3-.7 6.3-1.4 6.8-1.5.4 0 .7 2.1.7 4.9"/><path d="M112 777.7c-4.4.7-19.3 4.5-25.1 6.3-11.6 3.7-21 9.7-24.6 15.8-6.1 10 .2 18.1 20.2 26.3 7.6 3.1 27.1 6.2 49 7.9 8.3.6 19.3 1.5 24.5 2.1 10.7 1.1 39.2.5 49-1.1 3.6-.5 11-1.7 16.5-2.5 9.8-1.5 28-6.1 30-7.5.6-.4 2.1-1 3.5-1.3 1.4-.4 5.4-2.4 8.7-4.6 15.8-10.2 11.2-22.2-11.9-31.7-3.5-1.5-7.2-3-8.3-3.5-1.1-.4-6-2-10.9-3.5l-8.9-2.6-10.6 3.1c-5.8 1.7-12.3 3.3-14.4 3.6s-4 1.1-4.1 1.8c-.2.7-.9 4.3-1.6 8.2-2.4 13.3-2.7 13.5-28.8 13.8-18.6.2-20 .1-26-2.2-8.5-3.2-11.4-6.8-13.7-17.4-1-4.5-2.2-9-2.7-10-.9-1.7-3.8-2-9.8-1m8.7 1.5c.6.7 1.9 5.3 2.9 10.2 2.4 11 5.2 14.6 13.9 17.9 5.6 2 7.5 2.2 26.2 2 27.6-.3 27.6-.3 30.3-14.8 1.4-7.5 2.9-9.5 6.9-9.5 1.4 0 7.1-1.4 12.8-3.1l10.2-3.2 11 3.6c23.1 7.5 37.1 16.6 37.1 24.2 0 9.7-21.6 20.5-50 24.9-5.8.9-13.4 2.1-17 2.6-9.8 1.6-38.3 2.2-49 1.1-5.2-.6-16.2-1.5-24.5-2.1-26.9-2-41.7-4.8-53.2-10-10.6-4.8-17.3-11.4-17.3-16.9 0-2.9 3.9-8.6 8.1-11.8 5.8-4.4 19-10 29.9-12.6 16-4 20.2-4.4 21.7-2.5m672.6 77.5c-.3.8.2 5.6 1.1 10.6.9 5.1 2.7 18 4.1 28.7 5 39.8 6.3 47.6 7.9 48.9.7.6 4.8 1.2 9.1 1.3 7.3.2 7.8.1 10.1-2.5 1.5-1.7 2.4-4.1 2.4-6 0-1.8.7-6.4 1.5-10.2 2.3-11.3 4.4-34.7 4.6-53.2.2-9.5.1-17.4-.1-17.6-.3-.3-9.4-.7-20.3-.9-16.7-.4-20-.3-20.4.9m38.7.6c3 .4.4 51.1-3.5 70.2-.8 3.8-1.5 8.2-1.5 9.7s-1.1 4-2.4 5.5c-2.3 2.6-2.9 2.8-9.2 2.5-3.7-.1-7.3-.7-8-1.3-1.9-1.6-2.1-2.8-8.4-51.4-1.6-12.7-3.5-25.3-4.1-28.2-1.9-8.3-2.5-8.1 17.8-7.6 9.8.2 18.5.5 19.3.6m-691.1 53.2c-16.4 3.3-27.7 8.6-31.3 14.6-2.7 4.5-2.1 10.3 1.5 14.3 7.2 8.3 28.4 14.6 48.9 14.6 19.9 0 36-3.1 48.1-9.1s15.9-12.8 10.8-19.3c-4.6-5.8-21-12.7-37.4-15.6-11.2-2-11.8-1.7-13 6-.8 5.4-1.4 6.7-3.7 7.9-2.4 1.4-2.8 1.4-4.7-.3-1.7-1.6-2.1-3.1-2.1-8.3V909l-5.2.1c-2.9 0-8.3.7-11.9 1.4m16.1 5.7c0 6.8 1.7 9.8 5.5 9.8 4 0 5.9-2.5 7-9.2l1-6.3 6 .2c8.6.3 20.7 3.6 30.3 8.4 17.9 9 17.5 16.7-1.5 25.7-12.6 5.9-22.1 7.6-43.3 7.6-19.2.1-23.5-.6-36.3-5.6-14.2-5.6-19.6-13.1-15.1-20.7 2-3.4 9.4-8.5 15.4-10.7 6.6-2.3 20.8-5.2 26.3-5.3l4.7-.1zm251.5-63.1c-5.8 2.2-33.1 13.8-39 16.7-6.7 3.3-38.7 17.7-54 24.3-7 3-11.3 5.6-14.6 8.9-5.2 5-6.7 8.8-7.6 19.3l-.6 6.8 6.1 5.9c5.9 5.7 6.3 5.9 20.8 10.5 8.2 2.5 17.8 5.7 21.4 7 3.6 1.4 22.9 7.9 43 14.6s38.9 13.3 41.9 14.7c4.9 2.2 5.8 2.4 9 1.2 5-1.7 34.1-15.1 54.6-25 65.4-31.7 66.1-32.1 65.3-37.2-.2-1.9-1.6-2.7-7.7-4.8-6.9-2.3-7.5-2.8-8.4-5.9-1.2-4.9.4-7.8 5.8-10.1 5.1-2.2 6.5-5.2 4.3-9.7-1.6-3.4-5.8-4.9-43.8-15.9-14-4-36.5-10.5-50-14.5-21.3-6.2-25.7-7.2-34-7.5-5.4-.2-10.8.1-12.5.7m46.5 7.8c13.5 4 34 9.9 45.5 13.2 35.7 10.3 43.6 12.9 46.2 15.5 3.6 3.7 2.7 6.5-3 9.2-5.6 2.7-7.1 5.6-6 11.5.8 3.9 1.1 4.2 6.3 5.7 6.9 2.1 10 3.7 10 5.3 0 3.9-8.1 8.3-75.5 40.5-44.1 21-46.6 22.1-48.8 20.5-.7-.5-3.4-1.8-6.2-2.8-8.4-3.1-80-27.2-97.5-32.8-19.3-6.2-19.8-6.5-26.7-13-4.9-4.6-5.3-5.3-5.3-9.7 0-8.2 2.7-15 7.9-20 2.5-2.5 6.7-5.5 9.1-6.7 7.2-3.4 13.8-6.3 14.6-6.3.6 0 4.7-1.9 20.1-9.1 3.4-1.6 6.4-2.9 6.7-2.9s5.6-2.4 11.8-5.3c6.2-3 12.9-6.1 14.8-6.9 1.9-.9 6.5-3 10.3-4.7 3.7-1.7 7-3.1 7.3-3.1s2-.7 3.7-1.5c8.4-3.9 11.2-4.5 20.7-4.1 8.2.3 12.7 1.3 34 7.5"/><path d="M408.5 865.4c-8.2 3.1-20.9 8.9-40.9 18.5-9.3 4.4-17 8.1-17.2 8.1s-3.2 1.3-6.6 2.9c-14.2 6.4-15.7 7.1-16.7 7.1-2.1 0-1.1 2.8 1.2 3.3 3.6.9 31.8 9.4 36.7 11.1 8.5 3 65.5 20.8 68 21.3 1.9.3 6.9-1.6 17.5-6.7 19-9.2 28.6-13.6 40.5-19 5.2-2.3 12.8-5.8 16.8-7.6 4.1-1.9 7.6-3.4 7.9-3.4.4 0 3-1.1 6-2.5 5.8-2.8 6.8-5 2.6-5.8-1.6-.2-10-2.6-18.8-5.2-62.7-18.7-83.6-24.5-87.4-24.4-2 0-6.3 1-9.6 2.3m32.1 4.1c23.5 6.8 58 16.9 83.4 24.4 2.3.7 1.9 1.1-4.2 3.9-3.7 1.8-6.9 3.2-7.2 3.2s-4.4 1.8-9.1 4-8.8 4-9 4c-.5 0-20.7 9.5-47.5 22.2-7.6 3.7-13.2 5.8-14.5 5.5-1.1-.3-9.9-3.1-19.5-6.2-25-8.1-50.6-16-64.5-20.1-6.6-1.9-14.1-4.2-16.7-5.1l-4.7-1.7 6.7-2.9c3.7-1.6 9.5-4.2 13-5.8s6.5-2.9 6.6-2.9c.2 0 7.4-3.4 16.1-7.6 19.7-9.4 36.9-17.3 41.5-19 5.9-2.2 10-1.6 29.6 4.1m66.9 46.1c-8.8 4.1-18 8.4-20.5 9.6-13.6 6.1-42.7 20.3-46.7 22.8l-3.3 2v9c0 10.5.7 11.4 6.7 8.1 2.1-1.1 11.2-5.4 20.3-9.7 25-11.6 60-28 64.2-30 4.3-2.2 4.6-3.5 1.8-7.1-1.1-1.4-2.3-4.7-2.6-7.4-.5-3.6-1.1-4.9-2.3-4.9-.9 0-8.8 3.4-17.6 7.6m19.3-1c.6 3.2 1.9 6.5 2.8 7.6 1 1 1.5 2 1.3 2.2-.4.4-29.3 14.3-32.4 15.6-1.1.5-10.1 4.7-20 9.3-35.6 16.8-39.4 18.5-39.9 17.9-.3-.3-.6-4.1-.6-8.4 0-7.8 0-7.8 3.3-9.8 4.5-2.8 21.5-11.1 48.7-23.8 3.6-1.7 12.8-6 20.5-9.6s14.2-6.6 14.5-6.6 1.1 2.5 1.8 5.6m-218.6-.9c-.4 1-.7 4.2-.6 7 0 6.6 3.1 10.2 10.1 12.2 6.9 1.9 38 12.3 73.8 24.6 17.1 5.9 31.8 10.9 32.8 11.2 1.5.5 1.7-.5 1.7-10.5v-11.1l-11.7-3.6c-6.5-2-17.9-5.6-25.3-8-39.6-12.7-75-23.5-77.4-23.5-1.6 0-2.9.7-3.4 1.7m44.7 11.4c21.2 6.7 46 14.5 55.1 17.4l16.5 5.1.3 10.2c.1 5.6.1 10.2 0 10.2-.2 0-3.9-1.4-8.3-3.1s-11.6-4.1-16-5.4c-4.5-1.3-18.9-6.2-32-10.9-13.2-4.6-30.7-10.5-39-13.1-16.5-5.2-20.2-7.5-21.1-13.5-.8-4.8 1-9 3.7-9 1.2 0 19.5 5.5 40.8 12.1"/></g></svg>