<svg xmlns="http://www.w3.org/2000/svg" width="1365.333" height="1365.333" preserveAspectRatio="xMidYMid meet" version="1.0" viewBox="0 0 1024 1024"><g fill="#000" stroke="none"><path d="M723 51c-8 .3-64.6.5-125.8.5-94.9 0-111.5.2-112.5 1.4-.9 1.1-1.2 41.1-1.2 165v163.5L454 381c-79.2-1.3-102.1-.3-125.3 5.6-40.9 10.3-73.8 37.6-94 77.9-6.3 12.8-11.7 31.4-11.7 40.8 0 3.3-.5 3.3-4.7.1s-14.7-7.9-19.3-8.7c-1.9-.4-6.5-.7-10.2-.8s-6.5-.5-6.3-.9c.3-.4-.2-1.3-1-2-1.9-1.6-4.9-.5-4.1 1.5.7 1.8-.5 2-2.3.2-1-1-1.2-.9-.9.2.2 1-2.8 1.9-11.7 3.6-17.9 3.5-42 10.8-56 17.1-34.8 15.6-46 24.7-55.6 45.4-5.4 11.5-6.6 19.3-5.1 31.6 1.9 14.9 7.7 25.7 18.4 34.1 11.2 8.8 10.5 7.4 11.2 21.4.4 6.8.9 33.8 1.1 59.9.5 43.7 1.4 64.4 3 66.9.6 1 7.9-1.2 9.9-3 .6-.5.5-7.7-.2-18.1-.7-9.5-1.4-40.5-1.5-68.8-.3-47.8-.5-51.8-2.2-55.4-1-2.2-3.2-4.6-4.8-5.5-11.9-6.5-18.1-13.9-22.2-26-2.2-6.6-2.2-19.2 0-26.6 2.2-7.7 8.6-16.7 14.8-20.8 15.6-10.3 34.1-8.4 47.2 4.9 6 6.1 13.7 20.6 15.4 28.9.5 2.7 1.2 24.6 1.6 48.5.3 23.9.8 45.4 1.1 47.7.6 4.6 2.4 6.3 6.8 6.3 3 0 4.6-2.2 7.6-10.2 2.1-5.6 10.4-18.3 15.8-24.2 5.5-5.8 21.3-16.9 28.4-19.8 24.9-10.2 50.3-14.7 85.9-15.2 18.2-.3 23.3-.6 27.1-2 7.8-2.9 7.5-1.3-.6 3.3-9.4 5.4-21.2 10.5-38.1 16.5-7.1 2.6-13.9 5.1-15 5.6s-4.5 1.6-7.5 2.6c-5.1 1.6-28.2 11-37.8 15.5-7.1 3.2-11.8 8.8-13.2 15.5-1.6 7.5-.3 11.9 5 17.2 5.8 5.8 15.3 7.9 28.5 6.2 7.4-.9 11.8-2.3 36.5-11 8-2.8 21.5-6.6 30-8.5 15.3-3.3 39.8-7 40.7-6.1.3.3-1.7 1.1-4.4 1.9-4.9 1.5-23.7 9.1-33 13.3-2.8 1.3-5.5 2.4-5.8 2.4-.4 0-3.6 2.8-7.2 6.2-6.6 6.5-11.5 14.8-12.8 22-1 5.3 1.9 13.6 6 17.3 12.8 11.7 29.1 10.9 46.1-2.4 4.4-3.3 9.8-7.6 12.1-9.5 4.8-3.8 11.3-6.2 22.3-8.1 36.4-6.3 81.9-20.5 105.7-33l10.7-5.6 11 2.1c6 1.2 11.8 2.6 12.9 3.1 1 .6 3.2 1.1 4.9 1.1 1.6.1 3.1.6 3.3 1.2s.9 3 1.5 5.3c3.4 13.5 18.2 18.3 40 13 5.8-1.4 15.7-3.7 22-5.1 6.3-1.3 14-3 17-3.7 3.4-.7 20.3-1.5 43.5-2 20.9-.4 40.3-1.2 43-1.8 19-4.2 31.6-12.4 36.7-23.8 1.7-3.9 1.8-4.6.4-8.5-1.3-3.8-1.2-4.4.2-5.2 2.1-1.2 31.1 0 43.2 1.8 20.5 3 36.9 9.8 49.1 20.3 1.9 1.6 6.1 4.8 9.5 7.1l6.1 4.1 1-5.5 1-5.5-5.7-5.2c-8.9-8.2-18.5-14.7-27.4-18.3-9.4-3.8-31.6-9.2-39.3-9.5-2.9-.2-5.3-.6-5.3-1 0-.5 3-3.2 6.8-6.2 11.6-9.3 23.3-23.3 27.7-33.2 7.3-16.7 9.8-30.6 9-51.1-.8-21.3-3.8-34.1-11.5-49.4-7-13.8-19.4-28.2-25.6-29.5-1.6-.4-5.6-1.8-8.9-3.2-3.3-1.5-8.1-2.8-10.8-3.1-9.6-.9-20 5.7-23.4 14.7-.9 2.6-2.2 5.3-3 6.2-2.3 2.7-1.5 9 2.1 16.6 3.1 6.5 4.2 7.7 11.5 12.8 16.4 11.5 21.8 21.2 20.9 37.9-.5 10.6-3.9 17.9-11.8 25.7-5.5 5.4-14.6 10.9-18 10.9-1 0-3.6-4-7.3-11.3-8.6-17.1-23.8-34.8-41.3-48.3-13-10-43.9-23.4-62.4-27.1-11.9-2.4-42.8-2.4-56 0-21.5 4-41 10.1-62.5 19.7-7.1 3.2-15.7 6.6-19 7.6-8.2 2.4-18.2 2.4-21.7.1-6.5-4.4-9.9-17.9-13.3-53.7-.4-3.6-1.3-10.6-2.1-15.5-1.5-10.1-3.6-13.1-8.3-12.1-1.6.4-9.1 7.3-19.8 18.2l-17.1 17.7-9.4-.7c-15.5-1.2-26.1-2.6-27.6-3.9-.8-.6-4.3-6.9-7.7-13.8-7.7-15.7-9.4-18.2-14.6-20.7-3.8-1.9-4.5-1.9-6.9-.7-1.5.8-3.5 2.6-4.4 4-3.9 5.9-9.5 24.7-11.2 37.4-.5 4-1.8 6.7-5.3 11.5-4.7 6.4-5.9 8.7-10.7 21-2.6 6.8-2.7 7.5-2.1 20.6.4 7.6.9 14.3 1.2 15.1.4 1.2-2.2 1.3-16.3 1.1-14.1-.3-17-.2-18.1 1.1-1 1.3-.9 1.9.7 3.5 1.7 1.7 3.9 2 18.1 2.4 8.9.3 16.3.7 16.6.9.2.2.5 1.7.7 3.3.3 2.9.2 2.9-12.2 6.8-6.9 2.1-14 4.6-15.9 5.6-7.5 3.7-6.6 8.6 1.2 6.4 12.7-3.8 30.3-8 30.8-7.4.3.4 1.7 3.4 3 6.6 2.7 6.8 9 14.3 14.3 17.1l3.6 2-6.7 1.1c-4.4.7-10.4.8-16.8.3-9.8-.7-26.5.2-37.4 2.1-3 .6-7.2 1-9.3 1H235l-.1-14.8c0-8.1-.4-28-.9-44.2-.7-26.4-.6-30.8 1.1-42.5 1-7.2 2.6-15.7 3.6-19 5-18.1 21.4-44.5 36.4-59 5.2-5 12.6-11.1 16.4-13.7 16.4-11 38.5-18.9 61-22 15.5-2 114.6-1.7 170.5.6 3.6.2 14.4.6 24 1s22.7 1.1 29 1.6 15.8.9 21 .9c5.2.1 12 .4 15 .6 3 .3 15.4 1 27.5 1.6 27.8 1.3 37.7 2.2 59.8 6 23.2 3.8 37.5 8.9 51.2 18.1 6.4 4.3 22.1 19.6 27.1 26.4 11.1 15.2 15.8 24.5 20.8 40.5 5.7 18.6 6.9 24.5 7 36.9.1 14.4-.5 13.9 19.6 13.9 8 0 19.7.6 26 1.5 20.3 2.7 26.2 3.6 27 4.1.5.3 2.8.9 5.2 1.4 21.5 4.4 30.1 7.6 39.2 14.5 2.6 2.1 5.7 3.9 6.8 4.1 1.1.3 2.6.9 3.3 1.5.8.6 2.4 1.2 3.7 1.4 2.6.3 7.9 2.7 12.4 5.6l3.1 2 .7-13.7c.4-7.6.6-26.2.5-41.3s.2-126.7.6-248c.6-192.1.5-220.7-.7-221.8-1.1-.9-23.8-1.3-92.9-1.7-50.3-.3-98.4-.7-106.9-.8s-22 0-30 .3m14.2 18c.2 3.6.4 43.9.5 89.6l.1 83.2-2.7.5c-1.4.3-7 .5-12.3.5l-9.8-.1v-4.3c0-2.4-.7-7.6-1.5-11.6s-3.3-18.6-5.6-32.3c-2.2-13.8-5.8-34.7-7.9-46.5-2.2-11.8-5.1-28.7-6.5-37.4-1.4-8.8-3-16.5-3.6-17.3-.9-1-5.7-1.3-20.6-1.3h-19.5l-2.9 3-3 3 .5 13.7c1.1 27 1.9 57.3 2.5 93.5l.6 36.8-75-.3-75-.2-.3-89.2L495 63l16.2-.2c9-.2 63.4-.3 121-.3h104.7zm203.9-5.3c.8.8 1.2 21 1.3 79 0 42.8 0 82.8-.2 89l-.3 11.2-66.7-.5c-36.7-.2-80-.4-96.3-.4h-29.5l-.1-89.5V63.1l10.1-.3c5.6-.2 48.4-.3 95.3-.3 63.7 0 85.5.3 86.4 1.2m-262.2 41.9c.2.2 1.6 7.9 3.2 17.1 1.5 9.3 4 23.1 5.4 30.8s3.2 18.3 4 23.5c.9 5.2 1.7 10.2 2 11 .2.8 2 12.5 4 26 1.9 13.5 4 25.3 4.5 26.2 1 1.7-.4 1.8-22.3 1.8h-23.4l-.7-60.8c-.4-33.4-.9-63.8-1.2-67.6s-.3-7.4 0-8.1c.3-1 3.4-1.2 12.3-.8 6.5.3 12 .6 12.2.9m262.8 148.8c.3.3.6 184.5.4 264l-.1 44.8-4.5-4.1c-7.5-6.9-20.5-14.2-31-17.4-5.8-1.8-44.2-9.7-46.7-9.7-1 0-1.8-.6-1.8-1.3 0-.6-.3-4.1-.5-7.7s-.7-16.3-.9-28.2l-.6-21.7 3.3-.5c1.7-.3 6.7-.7 10.9-1 13.4-1 32.1-8.8 42.1-17.6 7.5-6.8 14.8-17.9 15.5-23.5.4-3.8 0-4.9-2.8-8.4l-3.2-4.1h-9.6c-20 .1-32.6 5.6-47.2 20.4l-9 9.1v-20.1c0-11.1.3-22.2.6-24.7.6-4.3 1-4.7 5.8-7.1 5.8-2.9 25.5-19.4 33.1-27.7 7.1-7.9 16.2-21.8 20.2-30.9 7.2-16.7 9.5-38.3 4.7-44.7-1.9-2.5-2.8-2.8-7.5-2.8-15 .2-40.7 20.8-53.3 42.7-3.1 5.6-9.1 23.2-10.1 30.1-.9 5.7-2.1 6.1-2.8.9-.9-7.3-8.7-35.8-11.3-41-1.4-3-3.4-7.4-4.5-9.9s-5.1-8.6-9-13.4c-8.2-10.4-18.3-17.7-28.5-20.9-9.8-3-11.5-2.7-16.2 2.4-5 5.4-5.8 9.1-4.2 18.8 1.5 9.8 2.6 12.9 7 22 10.7 21.6 23.8 34.7 47.9 47.8 5.7 3.2 7 4.5 11 11l4.5 7.5.6 13c.8 18.4.6 19-4 11.8-7.4-11.6-20.8-23.2-33.4-28.7-6.1-2.7-20.7-6.6-24.7-6.6-3.4 0-5.9 2.8-5.9 6.6 0 1.8-.5 3.6-1 3.9-3.6 2.2 5.1 22.4 12.9 30.2 6.5 6.3 16.8 13 26.4 16.9 7.8 3.1 26.2 7.8 28.7 7.2.9-.2 1.2 5.3 1.5 21.2.4 30.9.7 62.1.6 65l-.1 2.5-12.2-.5c-6.8-.3-12.9-.9-13.5-1.3-.7-.5-1.3-2.7-1.3-5 0-6.4-3.6-23-7.6-35.2-12.7-38.6-38.9-69.3-72-84.3-3.9-1.8-7.8-3.2-8.7-3.2s-1.7-.4-1.7-.9-.8-.7-1.7-.5c-1 .3-3.8-.2-6.3-1.1-4.4-1.6-27.9-5.5-33.2-5.5-1.6 0-2.8-.3-2.8-.8 0-.4-1.7-.7-3.7-.8-2.1 0-5.6-.3-7.8-.7-2.2-.3-9.2-.8-15.5-1.2-14.8-.8-22.3-1.5-23-2.1-.5-.5-.5-17.2-.1-74.7.1-14.2-.1-26.2-.4-26.7s-3-1.6-5.9-2.4c-8.9-2.6-45.8-1.8-48.6 1-1.2 1.2-1.5 37.1-.5 72.4l.8 28.5-10.9-.7c-6-.3-14.5-.7-18.9-.9-4.4-.1-8.3-.3-8.6-.5-.4-.2-10.4-.5-22.3-.8-12-.2-21.9-.6-22.1-.8-.4-.4-1-126.3-.6-127.8.1-.5 445.3-.2 445.8.4m-151.1 35.2c5.5 1.6 11.8 5.7 18.7 12.3 5.2 4.9 13.2 18.8 16.3 28.1 2.5 7.7 6.6 27.1 5.9 27.8-.2.2-2.3-.9-4.7-2.6-2.4-1.6-5.7-3.6-7.3-4.5-7.3-3.7-24.5-24-29-34.2-3.9-8.9-8-28.5-6-28.5.4 0 3.1.7 6.1 1.6m-176.1 5.3 8 .1.4 46.6.3 46.7-2.3-.6c-1.3-.3-8.5-.9-15.9-1.3-7.4-.3-13.8-1.1-14.2-1.7-.3-.6-.7-14.8-.8-31.6s-.3-36.8-.5-44.3c-.4-15.7-1.2-14.6 10.5-14.2 3.6.2 10.1.3 14.5.3m296.2 13.8c-1.3 15-7.9 30.8-18.3 44.3-7 9.1-30.5 31-33.2 31-1 0-.5-3.2 3.4-21 5-22.5 7.2-27.7 17.4-40.3 6.5-8.2 14.4-14.6 22.3-18.3 8.5-3.9 9.1-3.6 8.4 4.3m-112.3 84.5c6.7 2.5 10.3 4.6 15 8.7 3.3 2.9 7.1 6 8.3 6.8 2.6 1.7 10.8 13.7 11.8 17.1.8 2.7 1.6 2.7-10-.7-17.7-5.2-36.4-22-36.5-32.9 0-2.9.9-2.8 11.4 1m114.4 41.1c-5 9.2-16.7 18.1-29.7 22.6-6.5 2.2-18.1 3.9-18.1 2.6 0-.4 2.1-3.9 4.6-7.7 8.4-12.6 21.2-20.4 35.8-21.7 4.5-.4 8.4-.5 8.9-.3.4.2-.3 2.2-1.5 4.5m-586.3 39.1c3.5 7.2 7.4 14.1 8.7 15.4 3.1 2.9 14.2 4.8 36 6.3l16.7 1.2 3.3-2.5c1.9-1.4 8.3-8.5 14.3-15.7 8.5-10.1 11.1-12.7 11.6-11.3.3.9.9 7.1 1.3 13.7 1.2 21.3 2.6 32.8 5.1 41 4.2 13.9 9.1 18.4 22.3 20.4 12.8 2.1 23-.2 42.2-9.2 19-8.9 38.2-15.5 52-17.7 3.6-.5 7.6-1.2 9-1.5 13.3-2.8 33.7-2.9 48.6-.5 23.6 4 49.2 16.4 68.1 33.1 10.8 9.6 27.1 31.2 29.5 39.1.6 2.1 1.7 4.3 2.5 4.9.7.6 1.3 1.9 1.3 2.8 0 1 1.3 3 2.9 4.5 2.8 2.7 3.3 2.8 10.3 2.4 11.5-.6 23.8-7.8 31.2-18.1 1.6-2.3 4.3-5.6 5.9-7.4l3-3.2v-15c-.1-15.3-.2-15.7-4.8-25.7-2.3-4.9-16.1-21.4-18-21.4-1.7 0-10.3-9.4-11.5-12.5-3-7.8 1.8-18 9.7-20.6 5.3-1.7 15.1.5 21 4.7 9.1 6.4 20 22.6 24.7 36.7 2.2 6.6 6.3 27.6 7.1 36.7 1.8 19.2-4.7 41.8-15.8 55.5-6.4 7.9-13.7 15.3-19.7 20-5.5 4.2-15.5 10.1-17.5 10.3-.5 0-3.7.6-7 1.3s-7.8 1.2-10 1c-8.3-.5-12.8 3.4-10 8.8 3.6 7 .9 16.4-5.9 20.9-8.1 5.4-11.1 6.3-30.1 8.7-10.1 1.3-16.9 1.6-30.5 1.1-17.5-.7-40.5.5-51 2.5-3 .6-13.5 3-23.3 5.5-9.8 2.4-18.6 4.4-19.4 4.4-1.4 0-1.4-.2 0-1.8 2.1-2.3 1.2-3.4-1.8-2.2-1.3.5-2.6.6-3 .2-.3-.4-1.4.3-2.3 1.6-1.7 2.2-1.8 2.2-5.2.4-4.3-2.1-6.1-5.7-5.3-10.5 1.9-12.1 33.5-26.9 62.3-29.1 3.2-.2 6.8.2 8.7.9 2.2.9 4.3 1.1 7 .5 3.8-.9 7.7-4.4 7-6.3-.4-1.2-.8-1.4-8.9-5.2-6.7-3.1-18.3-14.1-23.9-22.8-5.8-8.9-7.4-14.6-7.3-25.7.1-12 2.7-19.7 8.5-25.6 4.7-4.8 4.9-7.7.6-8.2-3.7-.4-10.6 3.7-14.2 8.4-3.7 4.8-6.2 13.3-7.1 23.7-1.4 17.9 6.3 35.3 21.3 48.3l3.6 3-8.1 1.2c-11.2 1.6-24.1 4.9-32.2 8.2-8.7 3.6-20.4 11.3-23.7 15.7-2.5 3.3-2.9 3.4-7.7 2.9-9.1-.8-19.3-3.6-22.7-6.2-5.4-3.9-5.9-3.8-26.4 8-5.5 3.2-13.7 7.3-18.1 9.1-12.7 5.1-37 12.1-56.4 16-9.7 2-12.2 2.7-17.9 4.4-3.6 1.1-6.7 1.8-7 1.6-.2-.3-.9-.1-1.5.4-.6.6-3.3 1.2-6 1.5-11.5 1.4-27.4 10.5-31.2 17.8-1.6 3-10.7 8.8-14 8.8-1.6 0-2-.7-2.1-3.5-.1-4.5-1.9-6.7-5.2-6.3-2.3.3-2.6.8-2.9 4.5-.2 2.4-.8 4.3-1.3 4.3-2.1 0-6.8-5.8-7.4-9.3-1.1-5.9 2.7-15.7 8-20.6 4.1-3.8 23.1-14.1 26-14.1 2.6 0 32.6-11.5 43-16.5 8.1-3.9 12.1-6.5 15.3-9.9 2.4-2.5 4.9-4.6 5.7-4.6 1.7 0 5.7-4.9 4.9-6.1-.3-.5-1.5-.9-2.8-.9-1.2 0-2.7-.5-3.3-1.1-.9-.9-2-.5-4.3 1.5-1.7 1.4-4.2 2.6-5.4 2.6-1.3 0-3.1.9-4.2 2.1-1 1.2-3.7 3-5.9 4.2-3.5 1.8-6.7 2.2-25 2.9-30.5 1.2-52.3 5.6-81 16.3-20.5 7.7-23.1 8.5-28 9.1-7.1.9-7 .9-6.7-2.3.7-6.4-6.1-6.7-8.9-.4-1.7 3.8-2.9 3.6-5.2-1.2-3.8-7.7.1-12.3 17.8-20.8 12.8-6.2 14.7-6.9 41-15.9 29.5-10 46.2-17.8 57.9-26.9l7.9-6.1h11.4c22.1 0 37.1-6.1 31.1-12.6-1.8-2-2.1-2-6.5-.6-3.6 1.2-4.9 1.3-6.5.3-1.4-.9-2.3-.9-3.2-.2-.8.7-6.2 1-14.2.8-11.6-.3-13.8-.6-22.4-3.7-11.9-4.1-17.5-7.7-22.4-14.3-8.7-11.7-11.9-23.5-12-44.7-.1-16 .8-21.5 4.1-24.2 1.4-1.1 1.6-1.1 1 .4-.3 1-.2 2 .3 2.3 2.2 1.4 12.2-18.1 13.6-26.4.7-4.3 7.4-30.3 8.1-31.4 1-1.6 2.8 1.1 8.8 13.7m-121 37.5c6.5 2.9 11 7.3 14.2 13.9 2.4 5.2 2.5 5.8 2.9 34.5.2 16 .6 34.5.8 40.9l.4 11.7-5.5 1.1c-13.2 2.8-28.7 9.4-40.8 17.3-7.3 4.7-19.9 16.3-25.4 23.2l-3.1 4 .2-11.5c.1-6.3.1-22.2 0-35.2-.3-26.9-1.2-31.9-8.4-46.6-4.8-9.8-15.1-21.4-22.6-25.5-2.7-1.5-8.4-3.5-12.7-4.5s-7.2-2.1-6.4-2.4c29.8-12.2 43.4-16.9 57.4-19.9 15.5-3.4 19.1-3.8 32-3.5 9.8.2 12.9.7 17 2.5"/><path d="m298.5 529-2 2.2 2.4 1.9c1.3 1.1 3.3 2.1 4.5 2.3 11.6 2.2 14 3 16.6 5.4 3 2.9 4.9 7.2 3.1 7.2-.6 0-1-.3-.8-.8.1-.4-.2-.7-.8-.7-1.7 0-1.4 2.3.5 4 1.7 1.5 7.1 2.6 7.9 1.5 1-1.4-1.4-13-3.5-16.6-2.9-5.2-8-7.4-18.4-8.1-6.8-.5-7.7-.3-9.5 1.7m82 5.9c-1.6.4-3.9 1.2-5 1.8-1.1.5-4.2 2-6.8 3.3-5 2.4-9.7 7.4-9.7 10.3 0 4.4 9.9 3.8 13.6-.9 1.7-2 3.8-3 8.1-3.9 3.2-.7 6.8-.9 7.9-.4 1.3.4 2.6.3 3.3-.4.6-.6 3.8-1.2 7-1.2 6.4 0 9.9-1.8 8-4.1-2.8-3.4-19.5-6.3-26.4-4.5m-47.2 23.2c-1.8 1.8-1.6 6.8.2 7.5 2.1.8 1.9 4.3-.5 8.1l-1.9 3.2-9.7.3c-10.2.3-13 1.7-8 3.9 1.4.7 2.6 1.8 2.6 2.4 0 3.4 9.5 6 15.7 4.3 2.9-.8 3.8-.6 6.2 1.5 1.8 1.5 4.8 2.7 8 3.1 4.4.6 5.7.3 9.6-2 4.6-2.7 4.9-3.1 3.9-5.8-.6-1.6-11.8-7.6-14.1-7.6-3 0-1.2-5.9 3.2-10.6 2.9-3.2 3.2-6 .8-7.2-3.2-1.7-14.7-2.4-16-1.1m49.8 6.2c-3 3.7 4.3 6.3 25.9 9.3 13.5 1.9 16 1.6 16-1.6 0-2.9-2.3-3.5-22.2-6.4-20.5-3.1-18.3-2.9-19.7-1.3m-3.2 14.3c-2.1 2.6.1 4.7 8.7 7.8 4.3 1.6 11.2 4.2 15.2 5.8 5.7 2.2 7.6 2.6 9.2 1.8 2.5-1.3 2.5-2.2.1-4.4-2-1.8-28-12.6-30.4-12.6-.8 0-2 .7-2.8 1.6m539.9-11.9c.6.2 1.8.2 2.5 0 .6-.3.1-.5-1.3-.5s-1.9.2-1.2.5m30.1 87.5c-1.9 1.8-4 4.4-4.7 5.8-.8 1.8-1.2 17.1-1.4 54l-.3 51.5-3.7 7c-2.1 3.8-5 8.3-6.6 10-5.5 5.9-24.6 21.5-26.3 21.5-.4 0-1.7 1.5-2.8 3.3-1.8 2.9-6.7 6.4-7.7 5.4-.2-.2-3.2 2.3-6.6 5.5-14.8 13.8-32.5 22.7-50.3 25.4-5.4.8-10.4 1.9-11.1 2.5-1.6 1.3-31.8-.2-83.4-4.2-25.6-2-63-4.6-105-7.4-12.4-.8-28.3-2-35.5-2.5-7.1-.5-20.2-1.4-29-2-8.8-.5-18-1.2-20.5-1.5-8.3-.9-15.4-1.4-26.5-2-6-.3-22.5-1.5-36.5-2.5-14-1.1-28.9-2.2-33-2.5-4.1-.2-16.5-1.1-27.5-2-11-.8-27.2-1.9-36-2.5-28.6-1.9-67.5-5-89.4-7.1-14.4-1.4-21.7-1.7-22.4-1-.5.5-1.1 3-1.4 5.4l-.3 4.4 5.2.6c2.9.3 11.6 1.1 19.3 1.7 16.7 1.3 34.5 2.8 47.5 4 5.2.5 13.1 1.1 17.5 1.4s16.3 1.2 26.5 2.1c38 3.1 42.7 3.5 53 4 12.6.7 16.4 1 44 3 47.8 3.4 63.2 4.5 78 5.5 17.6 1.2 22.8 1.5 42.5 3 7.7.6 21 1.5 29.5 2 15.4.9 28.2 1.8 58 4.1 8.5.7 17.3 1.3 19.5 1.4s7.6.5 12 .9c14.9 1.2 47 2.9 51.8 2.7 2.7-.1 5.4.3 6.1.9 1.4 1.1 48.4.8 52.1-.3 23.7-7.4 39.1-15.7 54.1-29.4 13.3-12.1 18.8-16.3 19.6-15 .5.8.8.7.8-.4 0-2.4 2.9-4.4 5.7-4.1 1.8.3 2.6-.2 3-1.6.3-1.2 3.2-4.2 6.4-6.7 9.7-7.6 17.6-21 19.8-33.6.7-4.3 1.1-24.1 1.1-58 0-36.5.3-51.8 1.1-52.6 1.3-1.3.4-3.3-1.5-3.3-.7 0-2.8 1.5-4.7 3.2M148.5 716c-11.8 1.2-20.8 3.4-26.1 6.5l-4.7 2.8.7 21.4c.5 17 1 22 2.2 23.9.9 1.3 1.3 2.4.9 2.4s-.2.6.4 1.4c.8 1 .9 1.6.1 2.1-.6.4-.7 1.3-.1 2.3.4.9 1.6 5.6 2.6 10.4 2.3 11.1 5 14.6 13.7 17.9 5.4 2.1 8.1 2.4 18.8 2.4 23.2 0 28.7-.5 32.3-2.9 1.7-1.2 3.2-2.6 3.3-3.1 0-.6.6-4.4 1.4-8.5 1.4-8 2.8-10 6.9-10 1.5 0 7.7-1.5 14-3.3 17.4-5.1 22.4-10.7 23.8-26.1 1-12.8-4-22-13.4-24.5-4.6-1.2-14.7 0-19.1 2.3-1.7.9-3.3 1.6-3.7 1.6-.3 0-.5-2.2-.5-4.9 0-4.3-.4-5.1-3.2-7.3-5.1-3.7-8.5-4.9-18.7-6.4-10-1.5-18.6-1.6-31.6-.4m36.3 12c2.3.7 4.1 1.8 3.9 2.4s-2.6 2-5.3 3.1c-4.3 1.7-7.4 1.9-27.5 2-17.7 0-22.9-.3-24.2-1.4-1-.7-1.7-1.7-1.7-2.1 0-1.1 5.7-3.3 12.5-4.7 7.4-1.5 36.1-1 42.3.7m40.4 15.8c.6.6 1.2 4.3 1.5 8.4.5 8.4-1.2 12.3-6.9 15.9-2.9 1.8-4.3 1.9-12.3 1.4-4.9-.4-9-.7-9.1-.8-.3-.3 3.3-20.7 3.7-21.1.2-.2 3.3-1.5 6.9-3 6.6-2.7 13.9-3.1 16.2-.8m-34.8 3.4c-.7 6-3.3 25.2-5.4 38.7-1 6.4-2.3 11.7-3.1 12.1-1.9 1.2-21.3 2.3-27.4 1.6-7.7-.9-15.5-3.7-17.1-6.1-3.1-4.7-9.4-36.2-9.4-46.6 0-2.6.3-3 1.8-2.4 7.4 2.9 33.1 3.5 47.6 1.1 4.8-.8 9.1-1.7 9.4-2s1.3-.6 2.3-.6c1.4 0 1.6.7 1.3 4.2"/><path d="M357.5 720.8c-5 .4-6.5 1.7-6.5 5.3 0 5 2.4 5.6 27.5 7.3 12.7.9 44.6 3.2 71 5.1s51.6 3.7 56 4c4.4.2 17.9 1.2 30 2s29.2 1.9 38 2.5 24.8 1.7 35.5 2.5 30.8 2.2 44.5 3c47.8 2.8 106.1 6.5 120 7.6 7.7.6 20.5 1.3 28.4 1.6 16 .6 16.1.6 16.1-5.9 0-4.7 1.1-4.4-24.5-5.8-11-.7-22.2-1.3-25-1.5-2.7-.3-12.9-.9-22.5-1.5-9.6-.5-19.3-1.2-21.5-1.5-2.2-.2-9.2-.7-15.5-1s-13.7-.8-16.5-1c-4.4-.5-35-2.6-79-5.5-25.5-1.7-46.9-3.2-117-8-42.9-2.9-73.1-5.2-82.5-6-5.8-.5-15.2-1.3-21-1.6s-15.2-.9-21-1.3c-5.8-.3-12.3-.5-14.5-.3M408 854.5c-7.5 2.6-23.4 9.4-36.5 15.5-13.6 6.4-17.5 8.1-36.5 16.5-9.6 4.2-19.8 8.7-22.7 10-8 3.6-14.7 10.4-16.8 17.1-2.6 8.4-2.3 14.6 1 19 5.1 6.6 10.1 9.1 34.5 16.8 6.3 2 21.9 7.1 34.5 11.4 12.7 4.4 30.2 10.3 39 13.2s18.7 6.5 22 8.1c3.3 1.5 6.4 2.4 7 2 .5-.4 3.3-1.6 6-2.6 2.8-1 17.2-7.6 32-14.7 14.9-7.1 32-15.3 38-18.1 27.1-12.8 43-21.3 44.5-24 2-3.6.5-5.8-5.1-7.5-2.4-.7-5.5-1.6-6.9-2-2.2-.7-2.5-1.3-2.8-6.4l-.3-5.6 5.3-2.9c4.5-2.4 5.3-3.3 5.6-6 .6-6.2.8-6.1-46.3-19.7-14.3-4.1-34.8-10-45.5-13.1-36.6-10.6-38.9-11-50-7m31.5 14.5c9.4 2.8 21.1 6.2 26 7.6 5 1.4 20.3 5.9 34 10 13.8 4.1 25.6 7.4 26.3 7.4 2.8 0 .8 1.9-5.2 4.9-3.5 1.7-6.6 3.1-6.9 3.1s-3.4 1.3-6.9 2.9-13.7 6.3-22.8 10.4-23.7 11-32.4 15.2c-9.8 4.7-16.7 7.5-18 7.2-1.2-.2-15.1-4.6-31.1-9.6-35.2-11.2-54-17.1-66.2-20.7-5.1-1.5-9.3-3-9.3-3.3s2.1-1.5 4.8-2.5c2.6-1.1 8.4-3.7 13-5.8s8.5-3.8 8.6-3.8c.2 0 7.8-3.6 17-8 13.9-6.6 24-11.2 42.1-19 4.1-1.8 10.5-.8 27 4m87.9 41.1c-1.1 1.8.8 9 3.2 11.8l2.3 2.8-6.2 3.3c-3.4 1.8-15.2 7.4-26.2 12.5s-29.2 13.6-40.4 18.9c-11.3 5.3-20.8 9.6-21.3 9.6-.4 0-.8-4.1-.8-9v-9l3.3-2c4.4-2.7 33.4-16.9 46.7-22.9 2.5-1.1 12.2-5.6 21.5-9.9 15.6-7.4 19.5-8.7 17.9-6.1M349.5 924c15.4 4.8 39 12.2 52.5 16.5l24.5 7.7v10.4c0 5.7-.3 10.4-.7 10.4s-5.6-1.8-11.5-3.9c-5.9-2.2-18.9-6.6-28.8-9.9s-24.7-8.4-33-11.2c-8.2-2.9-20.2-6.8-26.5-8.7-14.7-4.4-17.4-6.7-17.4-14.7 0-2.9.5-6.1 1.2-6.9 1.6-1.8-1.3-2.6 39.7 10.3"/></g></svg>