<svg xmlns="http://www.w3.org/2000/svg" width="1365.333" height="1365.333" preserveAspectRatio="xMidYMid meet" version="1.0" viewBox="0 0 1024 1024"><g fill="#000" stroke="none"><path d="M0 512v512h38l-.2-24.7-.3-24.8-11-.2c-6-.1-12.8-.2-15-.3-2.5 0-3.6-.3-2.9-1 .5-.5 7.2-1.1 14.9-1.2l14-.3.3-3.3c.5-5.1-.3-6.5-3-5.2-1.9.9-1.8.7.5-1.2l2.7-2.4-.2-26.5-.3-26.4-11-.5-11-.6 11-.4 11-.5v-58L21 846l-16.5-.5L21 845l16.5-.5v-59L21 785l-16.5-.5L21 784l16.5-.5v-89.9l-2.5-.7-2.5-.6 2.5-.4 2.5-.4.3-81.8.2-81.8-2.2-.8-2.2-.8 2.2-.5 2.2-.6-.2-41.3-.3-41.4-3-.6c-3-.7-3-.7-.3-.8 1.5 0 2.9-.5 3.2-1s.6-35.9.6-78.7l.1-77.9-5.8-.6-5.8-.6 5.2-.1c2.8-.1 5.4-.6 5.7-1.1 1-1.6.8-146.3-.2-147.3-1.1-1.1-4 3.2-7.8 11.8-4.1 9.5-8.7 18.5-9.1 18.1-.2-.2 1.2-3.7 3.1-7.8s4.1-9 4.9-10.9c.8-2 3.3-6.8 5.6-10.9l4.1-7.3.2-36.4c.1-21.4-.2-36.8-.8-37.4-.5-.5-8.7-1.1-18.2-1.3S1.7 51 1.3 50.6c-.3-.3 7.5-.6 17.5-.6 10.9 0 18.3-.4 18.7-1 .5-.8 1-40 .6-47.3C38 .1 36.4 0 19 0H0zm30.3-70.3c-.7.2-1.9.2-2.5 0-.7-.3-.2-.5 1.2-.5s1.9.2 1.3.5m2.4 84.9c-.3.3-1.2.4-1.9.1-.8-.3-.5-.6.6-.6 1.1-.1 1.7.2 1.3.5M8.3 905.7c-.7.2-2.1.2-3 0-1-.3-.4-.5 1.2-.5 1.7 0 2.4.2 1.8.5M7 973c0 .5-1.3 1-3 1s-3-.5-3-1c0-.6 1.3-1 3-1s3 .4 3 1M40.2 24.7l.3 24.8 29.7.3 29.6.2 9.9-7.3c8.7-6.5 19.1-13 26.3-16.7 4.7-2.3.5.7-6.5 4.8-10.4 6.1-25.7 17.4-24.7 18.4s325.6 1.3 327.2.3c.6-.4 1-5 1-11.1 0-5.7.3-10.4.8-10.4.4 0 .8 4.6.9 10.2s.6 10.5 1.1 11 25.7.9 56.2 1c50.7.1 55.4-.1 56.5-1.6s1.3-1.5 1.9-.1c.3.9 1.8 1.5 4.1 1.5 2.9 0 3.7-.5 4.5-2.6.6-1.4.8-2.9.5-3.4-.3-.4-.1-1.9.4-3.2.8-1.9 1-1.4 1 2.9.1 2.8.5 5.5 1.1 5.8 1.6 1 374.2.7 375.2-.3.6-.6-1-2.1-3.9-3.7-6.2-3.7-25.5-16.5-26.8-17.8-1.1-1.2-.6-.9 16 9.3 6.6 4.1 13.7 8.7 15.7 10.3l3.7 2.8H963c13 0 21 .3 21 .9s-7 1-17.9 1c-9.9 0-18.2.4-18.5.9s1.8 2.8 4.6 5.2c2.9 2.4 9.4 8.2 14.3 12.9l9 8.7 5.4-.1 5.3-.1.2-11c.1-6.1-.1-12.6-.5-14.5-.5-1.9-.4-3.9.1-4.5s.9-10.7.9-22.4c.1-11.8.3-21.6.6-21.9s.6 5.5.6 12.9c.1 7.4.2 17.6.3 22.8l.1 9.5 7.8-.2c4.4-.1 7.7.2 7.7.8 0 .5-3.5 1-7.7 1.2l-7.8.3v45.8l4.4 5.6c9.9 12.7 16.9 25.3 25.7 45.8 2.5 5.8 4.3 10.7 4.1 11-.3.2-2-3.3-3.8-7.9-8.2-20.3-25.2-49.3-28.9-49.3-1.2 0-1.5 7.7-1.7 47.5-.5 90.6-.4 129.3.4 130.1.5.5 5.3 1 10.8 1.2l10 .3-10.2.2c-5.6.1-10.4.6-10.7 1.1-.4.5-.6 76.8-.6 169.5-.1 109.5-.4 168.6-1.1 168.6-.6 0-.9-16.8-.9-46.8 0-25.7 0-47.2-.1-47.7-.1-.6-.1-1.3 0-1.7.4-2.7.1-212.2-.3-212.6-.3-.3-53.1-.5-117.3-.5H751.5v39.8l42 .1c44.6.1 50.4.5 64.7 5 10.5 3.3 19.4 8 28.2 14.8l6.9 5.3 5.1-3.8c2.7-2.1 5.3-3.6 5.6-3.2.3.3-.6 1.3-2 2.2-1.3.9-3.7 2.7-5.3 4l-2.8 2.4 2.9 3.1c4.5 4.7 10 13.9 12.9 21.4 4.9 13 5.5 19.1 5.9 57.1.1 19.5.6 35.7 1.1 36.1.4.4 3.1 1.5 5.8 2.5 9.7 3.5 17.9 8.8 26.5 17.4 4.7 4.6 9 8.3 9.7 8.2 1.5-.2 2.6 1.6 1.4 2.4-.6.3.4 2.8 2.3 5.8 7 10.9 14.5 27 16.2 34.5 4.2 19.1-2.4 41.3-16.3 54.8-2.7 2.6-7.2 6.2-10.1 8.1l-5.2 3.4.2 74.7.3 74.7h19l19-.1.3-80.2c.1-50.9.6-80.2 1.2-80.2s.9 22.2.9 60.7v103.8c0 23.6 0 45.1.1 47.8 0 2.6-.3 4.7-.8 4.7-.6 0-1-11.2-1.1-26.7-.1-14.7-.5-27.1-1-27.6-.4-.4-9-.6-19.2-.5l-18.4.3-.6 24.5c-.4 18.3-.9 25.7-2.1 29.2-.9 2.6-1.3 4.9-1 5.2.3.4 3.9.6 8.1.6s7.1.4 6.4.8c-.6.4-4.4.5-8.3.2l-7.2-.5-2.4 4.8c-3 5.9-9.3 12.1-15.4 15.2-4.8 2.4-14.5 4.6-16.6 3.8-.7-.2-1.4-.1-1.7.4-.5.9-1.6 13.5-2.2 25.6-.4 8.2-1.4 19.2-2 23.5-.2 1.3-.7 7.1-1.1 13s-.8 11.4-.9 12.2c-.2 1.3-2.9 1.5-16.5 1.8-17.6.3-19-.1-19-4.8 0-1.5-.6-3.3-1.4-3.9-.7-.6-1.2-2.1-.9-3.4.2-1.2-.7-7.8-2-14.7l-2.4-12.5-33.4-.5-33.4-.5 32.7-.3c18-.1 32.9-.6 33.2-1 .6-1-5.3-32.4-6.2-33.4-.4-.4-9-.9-19.2-1.2l-18.5-.4-7.5 5.7c-11.8 9.1-21.6 15.4-34.3 22.1-6.5 3.4-11.5 6.6-11 7.1s7.6 1 15.8 1.2l15 .3-16.3.2c-9.9.1-16.1-.2-15.7-.7 1.1-1.9-1.1-1.9-4.9-.1l-3.9 1.8v8.3l-.1 8.4-.3-7.5c-.2-4.1-.7-7.8-1.1-8.2s-4.3.4-8.6 1.7c-19.4 6-47.1 8.6-63.1 6-8.8-1.4-18.4-4.5-25.9-8.2-2.6-1.3-5.5-2.2-6.3-1.9s-1.1.2-.8-.4c.3-.5-1.9-2.7-4.8-4.9-6-4.4-13.1-12-15.5-16.6-.8-1.7-2.3-5.5-3.2-8.5l-1.6-5.5-40 .2c-30.9.1-39.8.5-39.6 1.4.2 1 0 1-1.1 0-1.1-.9-25.2-1.1-101.3-1.1-54.9 0-100.2.4-100.6.8-.5.5-.7 8.2-.6 17.3l.3 16.4 76.4.3c67.3.2 76.7 0 78.8-1.3 1.7-1.1 2.3-1.2 2.1-.3-.2 1 3.3 1.4 15.2 1.8 9.7.3 13.5.7 10 1-3 .3-10.4.3-16.5 0-9.2-.4-11.5-.2-14.2 1.3-2.3 1.2-3.2 1.3-3.1.5.2-1-15.1-1.3-74.2-1.3h-74.5L336 920l-.6 13.5-.4-13.5-.5-13.5H160.6l-1.6 7c-2.9 12.3-6.3 27.9-6.5 29.7-.1 1-.4 2.1-.8 2.4-.7.7-30.9.6-31.5-.1-.4-.3-1.7-10.4-2.7-19.5-1.4-12.7-1.7-15-2.3-15.4-.4-.2-6.1 3-12.7 7.3-14.9 9.5-20.3 12.7-19 11.4.6-.6 7.8-5.4 16-10.8 8.3-5.3 15-10.2 15-10.8 0-.9-9.1-1.2-37-1.2h-37l-.3 24.4c-.1 13.9.2 24.9.7 25.4s4-1.3 8.7-4.5c8.6-6 10.4-7.1 10.4-6.5 0 .2-4.5 3.4-10 7.2l-10 6.8v5.8c0 3.2.5 6.1 1.1 6.5.6.3 19.3.6 41.5.5 25.3 0 40.4.3 40.4.9s-15.7 1.1-41.2 1.2l-41.3.3-.3 24.8-.2 24.7h946.5l-.3-23.7c-.1-13.1-.5-24.4-.7-25-.3-1-4.6-1.3-16.6-1.3-8.9 0-15.9-.3-15.5-.8.4-.4 8-.7 16.9-.7l16.1-.1v-3c0-1.6-.4-3.5-.8-4.2s-.4-1.6-.1-2.2c.3-.5.6-13.1.6-28 0-15.9.4-27 1-27 .5 0 .9 11.8.9 28.9 0 19.1.4 29.2 1 29.6.8.5.7 1.1 0 2.1-2.4 2.7-.5 3.6 8.5 3.9 12.4.4 12.7.8 1 1.4l-10 .6-.3 24.8-.2 24.7h36V0H40zM161.5 13c-.3.5-1.2 1-1.8 1-.7 0-.6-.4.3-1 1.9-1.2 2.3-1.2 1.5 0M435 15.7c0 .7-.4 1.3-.9 1.3s-.8-1.2-.8-2.6c0-1.8.2-2.2.8-1.3.5.8.9 2 .9 2.6m-.6 6.4c-.3 5.4-1.4 6.3-1.4 1.2 0-3.3.6-5.3 1.5-5.3.1 0 .1 1.8-.1 4.1M144.5 22c-.3.5-1.2 1-1.8 1-.7 0-.6-.4.3-1 1.9-1.2 2.3-1.2 1.5 0m759 4c.3.6-.1.7-.9.4-1.8-.7-2.1-1.4-.7-1.4.6 0 1.3.4 1.6 1m107.1 25.3c.4.4-.7.7-2.4.7-1.8 0-3.2-.5-3.2-1 0-1.1 4.5-.9 5.6.3m3.4-.3c0 .5-.4 1-1 1-.5 0-1-.5-1-1 0-.6.5-1 1-1 .6 0 1 .4 1 1m4.4-.2c.2.4-.4.8-1.5.8-1 0-1.9-.4-1.9-.8s.6-.8 1.4-.8 1.7.4 2 .8m4.6.2c0 .5-.7.7-1.5.4-.8-.4-1.5-.8-1.5-1s.7-.4 1.5-.4 1.5.4 1.5 1M895.6 364.2l2.9 3.3-3.2-2.9c-3.1-2.8-3.8-3.6-3-3.6.2 0 1.6 1.5 3.3 3.2m19.5 21.5c1.3 1.6 1.2 1.7-.3.4-1-.7-1.8-1.5-1.8-1.7 0-.8.8-.3 2.1 1.3m23.9 40.8c0 .5-.5.3-1-.5s-1-2-1-2.5c0-.6.5-.3 1 .5s1 1.9 1 2.5m1.8 4.6c-.3.8-.7.3-1.1-1-.4-1.7-.3-2.1.5-1.3.5.5.8 1.6.6 2.3m3.6 7.5c.3.8.2 1.2-.4.9s-1-1-1-1.6c0-1.4.7-1.1 1.4.7m4.6 11.9c0 .5-.5.3-1-.5s-1-2-1-2.5c0-.6.5-.3 1 .5s1 1.9 1 2.5m3.7 13.7c-.3.8-.6.5-.6-.6-.1-1.1.2-1.7.5-1.3.3.3.4 1.2.1 1.9m1 4c-.3.8-.6.5-.6-.6-.1-1.1.2-1.7.5-1.3.3.3.4 1.2.1 1.9m1 6.5c-.3 1-.5.4-.5-1.2 0-1.7.2-2.4.5-1.8.2.7.2 2.1 0 3m2.7 15.6.5 8.2-1.4-9.5c-1.6-10.7-1.7-13.8-.5-9.7.5 1.6 1.1 6.6 1.4 11m1.5 19.9c-.2 12.3-.7 11.3-1.1-2.5-.2-4.8 0-8.7.5-8.7.4 0 .6 5.1.6 11.2m15.4 15.5c-.7.2-2.1.2-3 0-1-.3-.4-.5 1.2-.5 1.7 0 2.4.2 1.8.5m26.8 245c-1.2 2-1.4 1.4-.5-1.2.4-.9.9-1.4 1.1-1.1.3.2 0 1.3-.6 2.3M996 784c0 .5-.5 1-1.1 1-.5 0-.7-.5-.4-1 .3-.6.8-1 1.1-1 .2 0 .4.4.4 1m-3.3.6c-.3.3-1.2.4-1.9.1-.8-.3-.5-.6.6-.6 1.1-.1 1.7.2 1.3.5m-5.1 58c-.4 1.1.1 1.8 1.4 2.1 1.8.5 1.9.7.4 1.7-1.3 1-1.5 3.8-1.5 19.4 0 10-.4 18.2-.9 18.2-.4 0-.9-8.2-.9-18.2s-.4-18.5-.8-18.9c-.5-.4-1.7-.9-2.8-1.2-1.7-.4-1.7-.5.3-.6 1.5-.1 2.6-.9 2.9-2.1.3-1.1 1-2 1.5-2 .6 0 .7.7.4 1.6m-23.6 3c0 .2-.9.4-2.1.4-1.1 0-1.8-.4-1.4-1 .5-.8 3.5-.3 3.5.6m16-.6c0 .5-.8 1-1.7 1-1.5 0-1.6-.2-.3-1 1.9-1.2 2-1.2 2 0m-4.7.7c-.7.2-1.9.2-2.5 0-.7-.3-.2-.5 1.2-.5s1.9.2 1.3.5m20 0c-.7.2-1.9.2-2.5 0-.7-.3-.2-.5 1.2-.5s1.9.2 1.3.5m-44.8 11.7c-3.7 4.9-4.3 4.6-.8-.3 1.5-2.2 3-3.8 3.2-3.6.1.2-.9 2-2.4 3.9m-3.5 4.9c0 .2-1.9 2.1-4.2 4.2l-4.3 4 4-4.3c3.6-3.9 4.5-4.7 4.5-3.9m-515.3 12.9c-.3.8-.6.5-.6-.6-.1-1.1.2-1.7.5-1.3.3.3.4 1.2.1 1.9M987.3 906c-.4.3-2.4.3-4.3-.1-3-.5-3.1-.7-.8-.8 1.5 0 3-.6 3.4-1.2.3-.6.6-4.7.6-9.1-.1-4.5.2-8.6.6-9.2s.8 3.6 1 9.3c.1 5.7-.1 10.7-.5 11.1M507 893.4c0 .2-1.8 1.5-4 3-2.2 1.4-4 2.4-4 2.2 0-.5 7.1-5.6 7.7-5.6.2 0 .3.2.3.4m-9 6c0 .2-.8 1-1.7 1.7-1.6 1.3-1.7 1.2-.4-.4s2.1-2.1 2.1-1.3m411 1c0 .2-.8 1-1.7 1.7-1.6 1.3-1.7 1.2-.4-.4s2.1-2.1 2.1-1.3m-379.7 5.3c-.7.2-2.1.2-3 0-1-.3-.4-.5 1.2-.5 1.7 0 2.4.2 1.8.5m36.7 0c0 .5-5.3.7-11.7.5-21.8-.4-23.9-.8-6-1 9.7-.1 17.7.1 17.7.5m8.3 0c-1.3.2-3.5.2-5 0-1.6-.2-.5-.4 2.2-.4 2.8 0 4 .2 2.8.4m5.4-.1c-.3.3-1.2.4-1.9.1-.8-.3-.5-.6.6-.6 1.1-.1 1.7.2 1.3.5m17.6.1c-2.9.2-7.8.2-11 0s-.8-.3 5.2-.3c6.1 0 8.7.1 5.8.3m11.5 0c-1 .2-2.8.2-4 0-1.3-.2-.5-.4 1.7-.4 2.2-.1 3.2.1 2.3.4m304.5 0c-.7.2-1.9.2-2.5 0-.7-.3-.2-.5 1.2-.5s1.9.2 1.3.5m20.5 0c-1 .2-2.8.2-4 0-1.3-.2-.5-.4 1.7-.4 2.2-.1 3.2.1 2.3.4m23.4 0c-4 .2-10.3.2-14 0s-.4-.3 7.3-.3 10.7.2 6.7.3m10.5-.1c-.3.3-1.2.4-1.9.1-.8-.3-.5-.6.6-.6 1.1-.1 1.7.2 1.3.5m7.6.1c-1.3.2-3.3.2-4.5 0-1.3-.2-.3-.4 2.2-.4s3.5.2 2.3.4m17.4-.1c-.3.3-1.2.4-1.9.1-.8-.3-.5-.6.6-.6 1.1-.1 1.7.2 1.3.5m8.6.1c-1.3.2-3.5.2-5 0-1.6-.2-.5-.4 2.2-.4 2.8 0 4 .2 2.8.4M481 911.4c0 .3-1.5 1.4-3.2 2.6l-3.3 2.2 3-2.6c3.1-2.7 3.5-2.9 3.5-2.2m-8 6.2c-.8.8-2.3 2-3.4 2.5-1.3.7-.9.1.9-1.5 3.4-2.9 4.3-3.3 2.5-1m277.7 13.6c-.3.7-.5.2-.5-1.2s.2-1.9.5-1.3c.2.7.2 1.9 0 2.5M82 930.4c0 .2-.8 1-1.7 1.7-1.6 1.3-1.7 1.2-.4-.4s2.1-2.1 2.1-1.3m551 1.6c.6 1.1.8 2 .6 2-.3 0-1-.9-1.6-2s-.8-2-.6-2c.3 0 1 .9 1.6 2m-556.9 2.9c-3.1 2.3-9 5.7-7.6 4.4 1.3-1.4 8.8-6.3 9.5-6.3.3 0-.6.9-1.9 1.9m259.6 1.3c-.3.8-.6.5-.6-.6-.1-1.1.2-1.7.5-1.3.3.3.4 1.2.1 1.9m415 18.5c-.2 3.7-.3.9-.3-6.2 0-7.2.1-10.2.3-6.8s.2 9.3 0 13M66 941.4c0 .2-1.2 1.1-2.7 2l-2.8 1.7 2.4-2c2.3-2.1 3.1-2.5 3.1-1.7m269.7 3.3c-.3 1-.5.4-.5-1.2 0-1.7.2-2.4.5-1.8.2.7.2 2.1 0 3m307.7 4.6c.4 1.8.1 1.6-1.9-.8-1.3-1.7-2.4-3.4-2.5-3.9 0-1.7 3.8 2.5 4.4 4.7m-307.7-.1c-.3.8-.6.5-.6-.6-.1-1.1.2-1.7.5-1.3.3.3.4 1.2.1 1.9M647 956c.6 1.1.8 2 .6 2-.3 0-1-.9-1.6-2s-.8-2-.6-2c.3 0 1 .9 1.6 2m-311.3 5.2c-.3.7-.5.2-.5-1.2s.2-1.9.5-1.3c.2.7.2 1.9 0 2.5m335.7 10.6c9.1.1 15.3-.1 15.9-.7.7-.7 1.5-.7 2.3 0 1.4 1.2 58.4 1.3 59.6.1.4-.4.9-2.5 1.1-4.7.3-3.4.4-3.2.3 1v5l4.2-.3c2.3-.2 5.2 0 6.4.5 1.8.6 1 .9-3.7 1.3-5.5.5-6 .7-6.4 3l-.4 2.5-.6-2.5-.7-2.5-44.4-.3c-24.5-.1-45.1 0-45.7.3-.9.3.5 3.3 4.1 9.3 6.4 10.6 7.8 13.2 7.2 13.2-.3 0-3.2-4.7-6.6-10.4-3.3-5.7-6.7-10.9-7.4-11.5-.9-.8-39-1.1-133.7-1.1H228.7c-70.3 0-104.7-.3-104.7-1s44.3-1 135.5-.9l135.5.1 3.2-2.3c1.9-1.3 2.7-1.6 2-.7-.9 1.1-.9 1.8-.3 2.3 1.3.8 252.8.8 254.1 0 .6-.3-.5-3-2.5-6.1-1.9-3-3.5-5.8-3.5-6.2s1.9 2.2 4.3 5.8l4.2 6.5zm-335.7-4.1c-.3 1-.5.2-.5-1.7s.2-2.7.5-1.8c.2 1 .2 2.6 0 3.5M770 973c0 .5-.7 1-1.5 1s-1.5-.5-1.5-1c0-.6.7-1 1.5-1s1.5.4 1.5 1m26 .2c0 .4-5.6.8-12.5.7-6.9 0-12.5-.4-12.5-.8s5.6-.8 12.5-.8 12.5.4 12.5.9m11.4-.1c.3.3-1.9.7-4.9.8s-5.5-.2-5.5-.6c0-.9 9.5-1.1 10.4-.2m58.6 0c0 .5-11.9.9-28.5.9-18.2 0-28.5-.4-28.5-1s10.3-1 28.5-.9c16.5 0 28.5.5 28.5 1m52 .1c0 .5-11.5.8-25.5.8-17.1 0-25.5-.3-25.5-1 0-.8 8.2-1 25.5-.8 14 .2 25.5.6 25.5 1m34-.1c0 .5-6.8.9-16.5.9-9.2 0-16.5-.4-16.5-.9s7.3-.9 16.5-1c9.7 0 16.5.4 16.5 1m61.5-.1c.3.5.1 1-.4 1-.6 0-1.1-.5-1.1-1 0-.6.2-1 .4-1 .3 0 .8.4 1.1 1m-262.8 16.7c-.2 2.1-.4.6-.4-3.2 0-3.9.2-5.5.4-3.8.2 1.8.2 5 0 7M362 996.4c0 .2-.8 1-1.7 1.7-1.6 1.3-1.7 1.2-.4-.4s2.1-2.1 2.1-1.3"/><path d="M41.9 52.2c-1.9.7-1.9 1.8-1.7 33.5.2 21.1.7 32.8 1.3 32.8.6-.1 2.6-3 4.6-6.5 1.9-3.6 6-9.9 9-14.1C62.8 87 82.4 64.6 89.5 58.6c3.3-2.8 6.2-5.5 6.5-5.9.6-1-51.4-1.5-54.1-.5"/><path d="m115.3 52-16.1.5-8.2 7c-14.9 12.7-35.3 38.2-47.2 58.9l-3.8 6.5.3 157.8.2 157.8 22 .5 22 .5-22 .5-22 .5-.3 41c-.2 36 0 41.1 1.3 42.1 1.4 1 1.4 1.2 0 1.7-1.3.6-1.5 14.8-1.2 128.4l.2 127.8 16.4.3c9.1.1 16.8-.1 17.3-.6s.9-20.8 1-45.1c0-33.9-.2-44.5-1.1-45.1-1-.5-1-.8.1-1.2 1-.4 1.3-4.6 1.2-20 0-10.7-.4-20-.8-20.7-.6-.9-1.3-.8-2.9.6-1.2 1-.7.1 1-1.9 2.7-3.2 3.2-4.5 3-8.2-.2-4.3-.5-4.7-6.6-8.7-7-4.7-18.2-16.4-21.1-21.9-6.9-13.4-6.9-35.6.2-52.3 4.6-10.9 13.6-21.1 23.6-26.9 2.9-1.7 5-3.4 4.5-3.9s-7.6-1-15.8-1.2c-13.9-.2-13.5-.3 5.5-.5 11.3-.1 22.3-.7 24.5-1.2s8.1-1.4 13-2c5-.6 10.6-1.2 12.5-1.5 9.1-1.2 44.5-4.5 52.4-4.8l8.8-.4 4-8.8c4.3-9.5 10.4-19.1 19.1-30l5.5-6.8 1.3-10.6c.7-5.8 1.3-12.2 1.3-14.1l.1-3.5-43.5-.5c-43.1-.5-43.2-.5-13.5-.8 16.5-.2 36.1-.3 43.7-.2 8 .1 13.9-.3 14.2-.9.4-.5 2.2-9 4.2-18.8 1.9-9.8 3.8-18.5 4.1-19.3s.5-2.1.4-2.8c-.1-.8.2-1.9.8-2.6.7-.9.3-2.2-1.3-4.7-1.3-1.9-3.5-5.3-4.9-7.5l-2.6-4.1-11.9 1.8c-29.2 4.4-50.3 13.2-71.7 29.7l-7 5.3 5.5-5.1c8.9-8.4 26.9-19.2 39.5-23.7 12.3-4.5 31.2-8.8 41-9.5 3-.2 3.9-.7 3.6-1.8-1.6-6-4.5-15.9-5.2-17.8-.8-2.2-1.1-2.2-21.1-2.3-41.4-.1-84.7-1.4-85.8-2.6-.3-.3 23.5-.4 52.7-.2l53.3.4.4-13.5c.3-8.6 1.2-16.7 2.5-22.4l2.1-8.9-6.7-13.4-6.6-13.3-40.1.2-40.1.3-.5 14-.4 14-.6-14-.5-14-31-.5-31-.5 31.5-.3c17.3-.1 49.4-.2 71.2-.2s39.9-.3 40.2-.8-.6-4.3-1.8-8.4c-3.6-11.5-4.9-21-5-35.3-.1-20.4 2.2-44.9 5.5-57.7.9-3.7.8-4-7.2-15-4.5-6.2-8.5-11.7-9-12.3-.6-.6-3.3 1.3-7.2 5l-6.2 6 6.2-6.5 6.2-6.5-2-2.5c-1.1-1.4-2.4-3.4-3-4.5-1-1.9.7-.1 4.4 5 1.5 2 1.6 2 4.4-.5l2.8-2.4-2.7 2.8-2.6 2.9 2.7 3.6c1.6 2 5.4 7.2 8.6 11.6 8.5 11.6 11.9 15 22.5 22 10.2 6.7 16.2 11.3 43.1 33 24.3 19.6 20.9 18.1 32.6 14.6 12.7-3.7 22-5.2 36.8-6l12-.6.5-70c.3-38.5.6-69.1.8-68 .1 1.1.4 32.6.5 70l.2 68 10 1.1c5.5.7 12.8 1.8 16.1 2.6l6.2 1.5 8.3-5.6c9.3-6.3 24.5-16.8 35.5-24.6 3.9-2.7 9.9-6.7 13.3-8.8s6.5-4.7 7-5.9c.5-1.4 1-1.7 1.5-1 .5.8 2.7-.2 6.9-3.1 6.6-4.5 11.6-9.1 21.3-19.7 7.4-8.2 5.9-6-2.9 4.3-5.9 6.8-6.6 8.1-6 10.5.4 1.5.7 11.5.7 22.2 0 26.7-2.2 41.5-9.6 64.5-2.3 7.1-4.2 13.2-4.2 13.5-.1.3 10.7.7 23.9 1l24 .6-24.6.2c-13.5.1-24.9.5-25.2.9-.4.3-.3 1.1.2 1.7 1.8 2.3 6.3 11 8.7 16.9 5.2 13 6.8 21.2 6.9 36.8.1 8 .4 15 .7 15.5.4.5 5.8.7 13.5.3 30.3-1.6 52-1.9 163.3-2.1l117.5-.3v-39.8h-189l-.2 4.4c-.1 2.4-.2 10.7-.2 18.3-.1 7.7-.3 13.7-.6 13.4s-.7-15.1-.8-32.9l-.2-32.4h-7l-.6 33.5c-.3 18.4-.8 33.7-1 34s-.6-14.8-.9-33.5l-.5-34-7-.5-7-.6 7-.4 7-.5.5-85c.3-46.8.3-98.3 0-114.5l-.5-29.5H434.6l-.3 67c-.1 36.8-.3 67.2-.5 67.5-.1.3-.5-29.9-.8-67l-.5-67.5L282 52c-82.8-.3-157.8-.3-166.7 0M337 64c0 .5-.4 1-1 1-.5 0-1-.5-1-1 0-.6.5-1 1-1 .6 0 1 .4 1 1m-1.3 7.2c-.2 1.3-.4.5-.4-1.7-.1-2.2.1-3.2.4-2.3.2 1 .2 2.8 0 4m.4 8c-.3 6.2-1.2 6.1-1 0 .1-2.9.5-5 .8-4.7.2.3.4 2.4.2 4.7m-.4 8c-.3.8-.6.5-.6-.6-.1-1.1.2-1.7.5-1.3.3.3.4 1.2.1 1.9m-39.4 9.5c-.7.2-2.1.2-3 0-1-.3-.4-.5 1.2-.5 1.7 0 2.4.2 1.8.5m-8 1c-.7.2-2.1.2-3 0-1-.3-.4-.5 1.2-.5 1.7 0 2.4.2 1.8.5m-13.7 2.4c-4.9 1-9.1 1.7-9.3 1.5-.7-.7 11.1-3.4 14.7-3.4 2 0-.2.7-5.4 1.9m-16.1 3.9c-2.7 1.2-4.3 1.2-2.5 0 .8-.5 2.2-.9 3-.9 1 0 .8.3-.5.9m-22.5 7.5c0 .2-2.1 1.4-4.7 2.6-2.7 1.2-5.1 2.3-5.5 2.6-.5.2-.8.2-.8-.1 0-.6 9-5.5 10.3-5.6.4 0 .7.2.7.5m-18 8.9c0 .2-3.3 2.3-7.2 4.6-4 2.4-12 7.9-17.8 12.4-5.8 4.4-9.8 7.1-9 6.1 2.2-2.7 19.2-15.1 26.8-19.6 6.8-4 7.2-4.2 7.2-3.5m232.3 17.5c.7.8-.7.2-3-1.4-2.4-1.5-4.3-3-4.3-3.2 0-.7 6.1 3.1 7.3 4.6m7.2 6.1c2.7 2.7 4.7 5 4.4 5s-2.7-2.3-5.4-5c-2.7-2.8-4.7-5-4.4-5s2.7 2.2 5.4 5m24.5.3c0 .2-1.2 1.4-2.7 2.8l-2.8 2.4 2.4-2.8c2.3-2.5 3.1-3.2 3.1-2.4m-9 10.6c-.5 1.1-1.5 2.3-2.2 2.7-.7.5-.8.2-.3-.7 2.1-3.7 4.4-5.5 2.5-2m6.6 12.8c2.1 2.7 2.8 3.9 1.5 2.8-2.4-2.1-6.6-7.5-5.8-7.5.3 0 2.2 2.1 4.3 4.7m-321.2 1.5c-1.6 1.8-3.2 3.7-3.6 4.2-.5.6-.8.7-.8.3 0-.8 6-7.7 6.8-7.7.3 0-.7 1.5-2.4 3.2m332.2 13.3c2.3 4.2.5 2.1-4-4.5-3.1-4.4-3.2-4.8-.8-2 1.7 1.9 3.8 4.8 4.8 6.5M150 180.4c0 .2-.8 1-1.7 1.7-1.6 1.3-1.7 1.2-.4-.4s2.1-2.1 2.1-1.3m-4 5.5c-.5 1.1-1.5 2.3-2.1 2.7-.6.3-.3-.5.6-2 2-3 3-3.5 1.5-.7m349 3.2c1.5 2.8.5 2.3-1.5-.7-.9-1.5-1.2-2.3-.6-2 .6.4 1.6 1.6 2.1 2.7m4.8 8.4c-.3.3-.9-.2-1.2-1.2-.6-1.4-.5-1.5.5-.6.7.7 1 1.5.7 1.8M140 196.4c0 .2-.8 1-1.7 1.7-1.6 1.3-1.7 1.2-.4-.4s2.1-2.1 2.1-1.3m361.8 5.1c-.3.3-.9-.2-1.2-1.2-.6-1.4-.5-1.5.5-.6.7.7 1 1.5.7 1.8m-364.8-.7c0 .5-.7 1.7-1.5 2.8-1.4 1.8-1.4 1.7-.4-.9 1.2-2.7 1.9-3.4 1.9-1.9m366.8 4.7c-.3.3-.9-.2-1.2-1.2-.6-1.4-.5-1.5.5-.6.7.7 1 1.5.7 1.8m-372.7 6.8c-1 .9-1.1.8-.5-.6.3-1 .9-1.5 1.2-1.2s0 1.1-.7 1.8m-3 7.4c-1.2 2-1.4 1.4-.5-1.2.4-.9.9-1.4 1.1-1.1.3.2 0 1.3-.6 2.3m-3.4 9.5c-.3.8-.6.5-.6-.6-.1-1.1.2-1.7.5-1.3.3.3.4 1.2.1 1.9m390.8 6.4c.4 2.5.3 2.4-.8-.6-.8-1.9-1.7-4.6-2-6-.5-1.9-.3-1.7.8.6.7 1.7 1.6 4.4 2 6m-394.8 5.6c-.3.8-.6.5-.6-.6-.1-1.1.2-1.7.5-1.3.3.3.4 1.2.1 1.9M119 249c-.7 2.8-1.5 4.9-1.7 4.6-.3-.3 0-2.8.7-5.6s1.5-4.9 1.7-4.6c.3.3 0 2.8-.7 5.6m398.7-3.8c-.3.8-.6.5-.6-.6-.1-1.1.2-1.7.5-1.3.3.3.4 1.2.1 1.9m1 4c-.3.8-.6.5-.6-.6-.1-1.1.2-1.7.5-1.3.3.3.4 1.2.1 1.9m4.7 22.8 1.2 9.5 4.9.6 5 .6-5.2.1c-2.9.1-5.5.3-5.8.4-.3.2-.8-3.1-1-7.3-.2-4.1-1.1-10.9-1.9-15-.9-4.1-1.6-7.9-1.5-8.4.2-2.6 3.2 11 4.3 19.5m-406.5-11.9c-.5 2.8-1.1 5.4-1.5 5.8-.4.3-.4-.5-.1-1.9.4-1.4.7-4 .7-5.8 0-1.7.4-3.2.9-3.2.4 0 .4 2.3 0 5.1m-67.2 22.5c-.3.3-1.2.4-1.9.1-.8-.3-.5-.6.6-.6 1.1-.1 1.7.2 1.3.5m454.6.1c-2.9.2-7.7.2-10.5 0-2.9-.2-.6-.3 5.2-.3s8.1.1 5.3.3m14.5 0c-1.5.2-4.2.2-6 0s-.6-.4 2.7-.4 4.8.2 3.3.4m5.9 15.5c-.2 1.8-.4.6-.4-2.7s.2-4.8.4-3.3.2 4.2 0 6m-1 15c-.3.8-.6.5-.6-.6-.1-1.1.2-1.7.5-1.3.3.3.4 1.2.1 1.9m-409 3c-.3.8-.6.5-.6-.6-.1-1.1.2-1.7.5-1.3.3.3.4 1.2.1 1.9m.3 105.2c0 .2-.8 1-1.7 1.7-1.6 1.3-1.7 1.2-.4-.4s2.1-2.1 2.1-1.3m-20.7 20.3c-1.8.2-4.8.2-6.5 0-1.8-.2-.4-.4 3.2-.4s5 .2 3.3.4m21.5 0c-3.2.2-8.6.2-12 0-3.5-.2-.9-.3 5.7-.3s9.4.1 6.3.3M55 669.5c-2.4 2.5-4.6 4.5-4.9 4.5s1.5-2 3.9-4.5 4.6-4.5 4.9-4.5-1.5 2-3.9 4.5m-7 6.9c0 .2-.8 1-1.7 1.7-1.6 1.3-1.7 1.2-.4-.4s2.1-2.1 2.1-1.3"/><path d="m640 52-78.5.5v27h188l.5-7.5.4-7.5.6 7.5.5 7.5h108c59.4 0 108.8-.4 109.9-.8 1.6-.8 1-1.7-5-7.9-3.8-3.8-9.1-8.6-11.9-10.5-2.7-2-6.1-4.7-7.5-6l-2.6-2.3-111.9-.2c-61.6-.2-147.3-.1-190.5.2m-88.5 1.2c-.3.7-.4 52.4-.3 114.8l.3 113.5 2.6.3c1.4.2 3.1-.3 3.7-1.1.9-1 1.1-30.1.9-114.8l-.2-113.4-3.3-.3c-2-.2-3.4.2-3.7 1m300 28.8-100 .5v199h4.9c3.3 0 5.1-.5 5.7-1.5.5-.8 2.7-8 5-16s5.4-18.8 6.9-24c3.6-12.4 13.2-48.2 27.1-101.3.8-3 1.4-3.8 2.7-3.4.9.3 5.5 1.7 10.1 3.1 5.2 1.6 8.8 2.3 9.4 1.7.5-.5 1-6.5 1.1-13.3l.1-12.3 16.5-.1 16.5-.1.2-6.2c.3-12.4 1.3-7.1 1.4 7.5 0 8.2.2 16.2.2 17.9l.2 2.9h35.7l.1-9.4c0-15.4 1.2-12.8 1.7 4l.5 15.5 7.9.3c4.4.2 8.3-.1 8.7-.5s.9-3.4 1-6.5c.3-6.8 1.8-10.2 2-4.3 0 2.2.1 5.6.2 7.5l.2 3.5h26l.5-19.5c.5-16.8 1-22.8 1.4-15.5.1 1.9.8 2 17 2h16.9l-.7 47c-.3 25.8-.6 63.6-.7 84v37l3.2.3c1.7.2 3.5 0 4-.5s.9-42.4.9-93.1l.1-92.3-4.5-5.7c-2.4-3.2-5.1-6.4-5.9-7.1-2.1-1.7-5.9-1.7-124.2-1.1m7.2 17.2c-.3.7-.5.2-.5-1.2s.2-1.9.5-1.3c.2.7.2 1.9 0 2.5m38 15c-.3.8-.6.5-.6-.6-.1-1.1.2-1.7.5-1.3.3.3.4 1.2.1 1.9M561.4 83.3c-.2.7-.3 7.4-.2 14.8l.3 13.4 16.3-.1 16.2-.1v6.8c0 3.7.4 7 .9 7.4.5.3 9 .6 18.8.6l17.8.2.5-3.4c.5-3.3.6-3.2 1.3 1.5.4 2.7.7 10.4.7 17.2 0 6.7.4 12.5.8 12.8 1.3.8 32.8 1 34.1.2.7-.5 1.1-4.1 1.1-9.4 0-13.7-.6-13 11.3-13.1 5.6-.1 13.2-.4 16.8-.7l6.7-.6 2.7 14.8c1.5 8.2 4.7 24.8 7.1 36.9 2.3 12.1 4.6 23.6 4.9 25.5s3.2 16.8 6.5 33c3.2 16.2 6.2 31.6 6.5 34.2.4 2.6 1.3 5.2 2 5.8.8.6 4.3 1 8.2.8l6.8-.3v-199l-93.8-.3c-76.4-.2-93.9 0-94.3 1.1m417.3-.7c-.3.4.8 2.4 2.5 4.6 3.5 4.4 5.1 4 4.6-1.3-.3-3-.7-3.4-3.3-3.7-1.7-.2-3.4 0-3.8.4"/><path d="M561.5 115.2c-.3.7-.4 38.4-.3 83.8l.3 82.5h29.6l.2-83.5.2-83.5-14.8-.3c-11.2-.2-14.9 0-15.2 1m384.9 2.3c-.2.5-.3 37.7-.2 82.5l.3 81.5 13.4.3c7.4.1 13.8-.1 14.2-.5.8-.9 1.7-49.2 2.1-120.3l.3-44.5h-14.9c-9 0-15 .4-15.2 1M827 119.4c-1.1 3-.8 159.5.3 161.3 1 1.6 27.8 1.8 29.2.4.6-.6.8-31.6.5-82.3l-.5-81.3-14.3-.3-14.2-.3zm-232.6 10.9c-.3.8-.4 5.2-.2 9.8l.3 8.4 16.8.5c9.3.3 17.7.2 18.8-.2 1.8-.7 1.9-1.6 1.7-10l-.3-9.3-18.3-.3c-14.6-.2-18.3 0-18.8 1.1m85.1 4.5c-3.2.2-6.4.7-7.1 1.2-1.3 1.2-.5 7.7 3.1 26 1.3 6.9 5.4 28.2 9 47.5 3.7 19.2 8.3 43.3 10.3 53.5l3.7 18.5 15.4.3c8.5.1 15.8-.1 16.3-.6s.4-3.1-.2-5.8c-1.8-8.4-9.2-45.6-10.1-50.9-.5-2.8-1.8-9.3-2.9-14.5s-4.3-21.9-7-37c-2.8-15.1-5.6-30-6.3-33l-1.2-5.5H694c-4.7 0-11.2.1-14.5.3m124.1 3.3c-.2.8-2.3 8.6-4.6 17.4-5.3 20.3-8.7 33.3-11 41.5-1 3.6-2.9 10.8-4.4 16-6 22.2-16.6 60-18 63.9-1.8 5.3-1.7 5.3 10.4 4.9l9.4-.3 2.7-9.5c1.5-5.2 5.3-19.4 8.4-31.5 8.8-33.8 19.4-73.3 23.6-87.9 1.1-3.7 1.8-7.4 1.6-8-.3-.6-3.3-2-6.8-3-3.5-1.1-7.4-2.6-8.6-3.4-1.9-1.2-2.4-1.2-2.7-.1m55.9 2.1c-.3.7-.4 8.5-.3 17.3l.3 16H877l17.5-.1.3-7.3c.2-4-.2-7.8-.7-8.5-.7-.9-.7-1.6 0-2.3.5-.5.9-4.3.7-8.4l-.3-7.4-17.3-.3c-13.2-.2-17.4 0-17.7 1m24.3 16.5c-4.3.2-11.3.2-15.5 0-4.3-.1-.8-.3 7.7-.3s12 .2 7.8.3m13.7-6.5c-.3.7-.4 30.5-.3 66.3l.3 65h17v-132l-8.3-.3c-6-.2-8.4.1-8.7 1m20.2-.5c-.2.4-.4 30.3-.3 66.3l.1 65.5 11.9.3c6.5.1 12.3-.2 13-.7.8-.7 1.1-18.5 1.1-66.3v-65.3l-12.7-.3c-6.9-.1-12.8.1-13.1.5m-323.3 2.2c-.8.8-.4 110 .4 110.5.5.3 8.9.6 18.8.6l17.9.2V151.5h-18.3c-10.1 0-18.5.2-18.8.4m227.2 4.2c-.4 1.2-4.2 15.3-10.6 38.9-1.1 4.1-3.8 14.5-6 23-4.9 19-8.1 31.3-13 49.2-2 7.6-3.4 14-3.2 14.3 1 1 34.1.5 34.7-.5 1-1.6.6-124.3-.5-125.4-.6-.6-1.1-.4-1.4.5M640 158l-5.5.5v19h35v-19l-12-.5c-6.6-.3-14.5-.3-17.5 0m32.9 9.7c-.4 2.3.4 112.9.8 113.5.6 1.1 21.1 1 21.7 0 .2-.4-.8-7.5-2.4-15.8-1.6-8.2-5-25.7-7.5-38.9-2.6-13.2-5.9-30.7-7.6-39-1.6-8.2-2.9-15.9-2.9-17.2 0-2.1-1.8-4.4-2.1-2.6m186.4 8.9c-.2.6-.2 24.4-.1 53l.3 51.9h35V175.7l-17.4-.1c-11.6-.1-17.5.3-17.8 1M651.5 180l-17 .5v101h35.6L670 231c0-27.7-.4-50.7-.8-51s-8.3-.3-17.7 0m-456.2 4.1c-1.4 1.8-4.1 19.2-5.2 33.9-1.6 22.5-.1 41.3 4.7 55.3l2.7 8.2 12.1.3 12.1.3 7.4-8.6c4-4.7 10.6-11.3 14.5-14.6l7.3-5.9-12.9-18c-17.2-24-26.5-36-34.7-44.9-5.5-6-7.1-7.1-8-6m248.6 7.5c-3 3.6-6.4 8.1-7.7 9.9l-2.3 3.2.1 36.8c0 33.8.6 42.2 2.7 40.1 2.2-2.2 10.5-32.1 13-46.9 2-12.1 2.5-46.9.7-48.7-.8-.8-2.6.7-6.5 5.6m-233.2 1c-.3.3 4 6.7 9.5 14.2 11.7 15.8 17.9 24.2 26.7 36.3l6.3 8.6 8.1-4.9c4.5-2.7 8.6-5.3 9-5.7.5-.5-2.2-3.4-6-6.4-3.7-3.1-13.3-10.9-21.3-17.4-21.4-17.4-31.7-25.3-32.3-24.7m223.8 1.3c-.7 1.2 1.2 2.4 2.5 1.6 1.1-.7.4-2.5-1-2.5-.5 0-1.1.4-1.5.9M413 207.8c-20.4 13.7-37.7 25.9-38.5 27.3-.4.5.4 1.3 1.7 1.8s6.6 2.8 11.8 5c9 3.9 9.5 4 11.2 2.4.9-1 9.1-11.7 18.2-23.7 12.7-16.9 16.3-22.3 15.4-23.3-.6-.7-1.3-1.3-1.7-1.3-.3 0-8.5 5.3-18.1 11.8m12.3 7.4c-3.1 4-10.1 12.8-15.5 19.5s-9.8 12.4-9.8 12.6 3 2.3 6.6 4.7c3.6 2.3 10.8 8.2 15.8 13.1 5.1 4.9 9.6 8.6 10 8.2 1-1 .7-64.1-.3-64.8-.6-.3-3.6 2.7-6.8 6.7M310 234.1c-20.1 2.5-39.3 9.4-51.8 18.6l-3.2 2.4 10.2 13.5 10.2 13.4 29.5-.2 29.6-.3.3-20.1.2-20.2-4.6-4.1c-5.2-4.5-6.7-4.8-20.4-3m19.5-.2c-.8 1.4 3.7 4.3 4.8 3.2 1.5-1.5 0-4.1-2.2-4.1-1.1 0-2.2.4-2.6.9m7.2-.2c-.4.3-.7 1.8-.7 3.3 0 1.9 2.1 4.8 8.1 11 8.6 9 17.1 20.4 21.3 28.7 1.4 2.8 3 5.4 3.4 5.7.8.5 25.8-30.7 26.4-32.9.7-2.6-25.4-11.9-41-14.6-12-2-16.4-2.3-17.5-1.2"/><path d="M336.8 243.7c-.3.4-.4 18.1-.3 39.3.1 31.1.4 38.5 1.5 38.5 2.1 0 29.5-34.6 29.5-37.2 0-1.4-1.2-1.6-7-1.6-6.1 0-6.3-.1-1.5-.4 3-.2 5.9-.8 6.4-1.3 1.2-1.2-5.7-13-12.4-21.4-7-8.6-15.6-17.1-16.2-15.9m12 39c-2.1.2-5.5.2-7.5 0-2.1-.2-.4-.4 3.7-.4s5.8.2 3.8.4m36.6-18.1c-6.6 8-11.9 15.1-11.9 15.7 0 .9 7.9 1.3 29 1.7l29 .6-29.8.1c-16.3.1-30.2.5-30.8.9-1 .6-.8 2.2.7 7.1.3 1-.2.5-1.1-1-1.6-2.8-1.7-2.8-3.7-1-1.1 1-5.3 6.1-9.3 11.3s-10.4 13.4-14.2 18.2l-6.9 8.7.3 13.8c.2 7.6.8 14.2 1.2 14.6.9.9 40.8 1 42.2.1 2.3-1.4-.8-30.8-5.1-48.9-1.7-7-2.9-12.9-2.7-13.2 1.1-1 7.6 30 8.6 40.7 1.8 18.7 2.1 21.2 2.7 22.1.7 1.3.8 19.8.1 20.6-.4.3-.7-2.6-.7-6.5s-.4-7.3-.8-7.6-2.4 1.6-4.3 4c-1.8 2.5-6.4 8.2-10.1 12.6-3.8 4.4-6.8 8.8-6.8 9.7 0 2.1 2.6 4.5 10.8 10.1 3.5 2.3 6.8 3.8 7.2 3.4.5-.5 1.3-3.2 1.8-5.9.5-2.8 1-3.9 1.1-2.5 0 1.4-.3 4.2-.8 6.3-.9 3.8-.9 3.9 3.6 6.5 7.4 4.4 8.4 5.3 4.3 4.1-1.9-.6-4.5-1.6-5.8-2.2-1.8-.8-2.8-.8-4.4.2-1.8 1.1-2 1.1-1.5-.3.5-1.1-1.8-3.3-8.5-7.9l-9.1-6.4-8.1 5c-4.4 2.7-9.5 5.6-11.3 6.3-3 1.3-3.3 1.8-3.3 5.7-.1 2.3-.1 10.5-.2 18.2l-.2 14 4.5-.3c4.9-.3 10.7-1.9 12.7-3.5.8-.6 1.7-.6 2.6.2 2.3 1.9 23.4-4.6 35.1-10.7 13.9-7.3 31.8-21.8 38.4-31.1l2.2-3.1-2.7-1c-1.5-.6-7.8-2.3-14-3.7-6.3-1.5-11.4-3-11.4-3.4 0-1 5.3-.1 18.5 3.1l11 2.8 2.2-2.7c3.8-4.6 7.6-12.2 6.6-13.2-1.3-1.3-7.4-1.8-23-2-19.5-.2-14.3-1.8 6.9-2.1l19.2-.3 1.8-6c1-3.2 1.6-6.5 1.4-7.2-.4-.9-2.8-1.3-7.3-1.4l-6.8-.2 7-.8c4.5-.5 7.4-1.3 8.1-2.4 1.8-2.4 2.7-14.2 1.9-23.2-1.2-12.8-9.3-36.5-14.7-43-2.3-2.9-2.9.7-2.9 18.5.1 26.3 0 32.1-.6 29.2-.8-4.3-1.8-4.2-5.9 1-8.4 10.7-21.7 12.9-32.6 5.4-4.1-2.9-8.9-10.7-7.4-12.1.4-.4 1.2.1 1.8 1.2s3 3.9 5.2 6.1c4.1 4.2 9.3 6.4 15 6.4 6.8 0 15.3-6.5 20.9-16.2 2.6-4.3 2.6-4.7 2.7-25.1l.1-20.7-4.9-6.3c-2.8-3.4-7-8.1-9.4-10.4-4.7-4.3-19.5-15.3-20.8-15.3-.4 0-6.1 6.6-12.6 14.6m48.3 79.6c-.3.8-.6.5-.6-.6-.1-1.1.2-1.7.5-1.3.3.3.4 1.2.1 1.9m0 8c-.3.8-.6.5-.6-.6-.1-1.1.2-1.7.5-1.3.3.3.4 1.2.1 1.9m-50 31c-.2 1.3-.4.5-.4-1.7-.1-2.2.1-3.2.4-2.3.2 1 .2 2.8 0 4m-.5 5.5c-.3 1.6-.7 2.2-1 1.5-.4-1.3.4-4.2 1.1-4.2.2 0 .2 1.2-.1 2.7m-8.7 29.6c-4.2 8.2-5.6 8.7-1.6.5 2-4 3.8-7 3.9-6.5.2.4-.8 3.1-2.3 6M246 261.3c-7.4 6.1-19.3 19.1-18.3 20.1.9.9 44.1.7 44.7-.2.5-.8-17.7-24.4-19.2-25-.4-.1-3.7 2.2-7.2 5.1m348.4 5c-.3.8-.4 4.5-.2 8.3l.3 6.9h37v-16l-18.3-.3c-14.7-.2-18.3 0-18.8 1.1m-394.9 17.6c-1.2 2.1 7.8 22.6 9.6 21.6.5-.4 2.2-3.4 3.7-6.8 1.6-3.4 4-8.1 5.5-10.3 1.4-2.3 2.3-4.5 2-4.8-1-1-20.1-.7-20.8.3m24.1 2.3c-3.6 4.9-7.9 12.6-10.6 19l-2.3 5.6 4.5 6.9c2.5 3.7 4.8 7.5 5.2 8.3 1.4 2.7-3.4-3.4-6-7.8-1.4-2.3-3-4-3.4-3.7-1.8 1.1-4.3 16.5-4.4 27.3-.1 9.7.2 11.5 1.6 12.6 1 .8 6.6 1.6 13.5 1.9 19.8 1.1 50.6 6.3 70.6 11.8 7.6 2.1 7.8 2.2 9.9.3 1.4-1.1 1.8-1.3 1.1-.3-1 1.2-1 1.8 0 2.9 1 1 .9 1.2-.5.7-1.1-.4-2.3.1-3.2 1.5-1.9 2.7-1.5 3.3 2.5 3.6 5.2.4 4.7 1.2-.6 1.2-3.2 0-5.5.6-6.7 1.7-1.5 1.4-1.9 1.4-1.6.3.6-3-74.6-2-77.6 1-1.1 1.1 8.9 16.2 14.5 22l3.8 3.9 8.3-3.8c9.2-4.3 26.5-10.1 37.3-12.7 5.4-1.2 7.7-2.3 9.9-4.8 1.8-1.9 2.4-2.3 1.7-1-1.4 3-.8 3.3 5 2.2 2.8-.5 5.8-.8 6.7-.6s-1.2.9-4.8 1.6c-26.7 5.2-60.3 16.5-61.7 20.9-.5 1.5 15.8 14.2 24.3 18.9 9.7 5.4 21.8 10 33.9 13 9.1 2.2 13.5 2.7 25.5 2.8l14.5.1V426c0-12.4-.3-17.4-1.1-17.3-8.7 1.6-14 2.1-14.7 1.4-.5-.5.5-1.2 2.5-1.5 8.6-1.7 12.8-2.9 13.3-3.7.8-1.2.8-71.7 0-72.9-.4-.7-2.6 1-5.6 4.3-3.9 4.4-6.3 6.1-11.9 8.3-6 2.3-7.9 2.6-13.9 2.1-12.1-1-20.7-7-25.5-17.9-2.3-5.2-2.4-5.7-.7-5.5 1.1 0 2.9 2.2 4.6 5.4 6.4 12.2 19.1 17.8 31.9 14 2.2-.7 4.1-1.7 4.3-2.4.4-1-2.2-4.6-20.6-28.7-4.6-6-7.9-10.6-7.4-10.3.6.4 6.6 7.9 13.4 16.8s13.5 17.5 14.9 19.2l2.6 2.9 7.2-6.7 7.2-6.7-.2-21.7-.3-21.6-27.5-.3c-15.1-.1-28.1 0-28.8.3-1 .3-.4 1.7 2.1 4.7 4.4 5.6 9.4 12.6 8 11.3-.6-.6-3.8-4.5-7.2-8.8L275 283h-48.9zm.4 44.3c1.4 1.9 1.4 1.9-.2.6-1-.7-1.8-1.8-1.8-2.4q0-.9.3-.6c.1.2.9 1.3 1.7 2.4m92 20.9c0 .2-.8 1-1.7 1.7-1.6 1.3-1.7 1.2-.4-.4s2.1-2.1 2.1-1.3m-5 6.6c-1.1 1.6-2.6 3.3-3.3 3.7-1.2.7 0-1.1 3.2-5 2.3-2.8 2.4-2 .1 1.3m250.4-72.9c-1 1.7-.8 23.9.3 25 .5.5 37.7.8 94.4.7l93.4-.3v-26l-93.7-.2c-67.2-.2-93.9 0-94.4.8m190 .2c-.2.7-.3 6.7-.2 13.3l.3 11.9h234v-26l-116.8-.2c-93.5-.2-116.9 0-117.3 1"/><path d="M618.9 355.7c-.8.1-33.3.4-72.4.7-75.9.6-93.5 1.2-94 3-.1.6-1 3.7-2 7-.9 3.2-1.3 6.2-.8 6.6.4.5 4 1.1 7.8 1.5 21.6 1.8 50 9.7 65.3 18.2 3.5 1.9 6.2 3.7 5.9 3.9-.2.2-3.8-1.1-7.9-3-16.4-7.5-41.9-14.2-62.7-16.5-10.1-1.1-11.4-.8-12.7 3.2-.4 1.2-2.2 4.6-4.1 7.5-3.3 5.2-3.5 7.2-.8 7.2 4.6 0 40.9 20.9 39.2 22.6-.3.3-2.9-1.3-5.8-3.5-6.7-5.1-21.1-12.4-30.4-15.5l-7-2.3-8.4 8.9c-7.9 8.4-17.9 16.7-27.7 23l-4.2 2.7 3.9 7.4c2.1 4.1 4.6 8 5.4 8.7.9.7 6.4 2.6 12.3 4.1s11.3 2.9 12 3.1c.9.2 1.3-2.6 1.6-11 .5-15.4 1.8-15.6 1.5-.2l-.1 12.4 7.8 2.2c4.4 1.2 15.1 4.3 23.9 6.9 8.8 2.5 28.1 8 42.9 12.2l26.9 7.5 6.1-3c25.6-12.7 51.7-22 71.1-25.3 16.6-2.8 43.2 1.3 58.5 9.1 4.1 2.1 8.9 4.5 10.5 5.3 1.7.9 5 2.1 7.5 2.8 12.1 3.4 32.4 12.9 45.7 21.5l8.4 5.5 4-3.2 3.9-3.1v-68.4c0-53.9-.3-68.6-1.2-68.9-1.2-.5-126.8-1.2-129.9-.8m-113.6 22.8c-.3.9-.8 1.4-1 1.1-.3-.3-.2-.9.2-1.5.9-1.6 1.5-1.3.8.4m-72.6 50.7c-.3.7-.5.2-.5-1.2s.2-1.9.5-1.3c.2.7.2 1.9 0 2.5m319-72.6c-1.1 1.1-.9 134.2.2 134.8.5.4 7-4.5 14.4-10.6 26.1-21.8 78.8-65.1 80.5-66.2 4.1-2.5-1 2-16.5 14.5-9.8 7.9-23.6 19.3-30.8 25.4-7.1 6-16.6 13.9-21.1 17.5-4.4 3.6-12.4 10.1-17.7 14.5l-9.6 8-.1 6.5v6.5l8.6 8.5c24.9 24.7 41 55.1 46.1 86.9l1.7 11.3 7.1 4c3.8 2.2 7.9 4.6 9 5.3s2.5 1.2 3 1.1c.7-.1.9-10.6.7-30.1-.3-24.5-.1-31.7 1.3-39.4 3-17.1 9.1-29.5 20.1-40.6 7.3-7.5 15.1-12.2 26.4-16.1 7.8-2.7 9.7-2.9 23.5-3h15l.3-9.5c.5-16.5-1.6-59.9-3.3-67.9-2.8-12.8-8.3-24.3-15.9-33.4l-3.3-3.8-11.7 9.2c-6.5 5-11.9 9-12.1 8.8s4.1-3.9 9.6-8.2c5.5-4.4 10.5-8.6 11.2-9.4 2.6-3.1-16.3-16-29.7-20.2-13.4-4.3-13.8-4.3-60.6-4.7-25.1-.2-45.9-.1-46.3.3M862 403.5c-.7.9-2.7 2.5-4.4 3.6-2.4 1.6-2.2 1.2.9-1.5 4.3-3.8 5.5-4.6 3.5-2.1m-8 5.8c0 .2-1.2 1.4-2.7 2.8l-2.8 2.4 2.4-2.8c2.3-2.5 3.1-3.2 3.1-2.4m-645.5-50c-.7 1.7 3.1 15.7 4.7 17.3 1 1 3.3 1.1 10.8.4 5.2-.5 23.8-1 41.2-1 30.4 0 31.8-.1 32.8-1.9.6-1.3.7-2.2 0-2.6-4.7-2.9-39.1-9.6-62.4-12-17.3-1.9-26.5-1.9-27.1-.2m135.4 1.3c-1.2 1.4-.7 2.2 10.5 16.1 2.7 3.5 5.2 6.3 5.6 6.3 1 0 18.6-22.4 18-22.9-.3-.2-7.8-.5-16.8-.6-12.4-.1-16.5.1-17.3 1.1m-6.9-.6c-.1.3-.2 9.6-.2 20.8-.1 13.4.2 20.6.9 21.3 1.3 1.3 2.3.8 13.1-5.8 8.6-5.4 9.2-7.6 3.9-13.9-1.8-2.1-6.2-7.7-9.7-12.4-6.9-9.3-8-10.6-8-10m-116.5 39.2c-.2.7-.9 4.4-1.5 8.1-.9 5.5-.8 7.2.2 8.5 1 1.2 1 1.4 0 .8-1.5-.9-2.7 1.9-3.6 8.9-.4 2.7-1.8 11.1-3.1 18.5-4 23.2-4 23.5.5 19.9 7.2-5.7 15.2-10.6 22.9-13.9 4.7-2.1 8.6-4.2 8.6-4.8s2.6-4.5 5.8-8.6l5.7-7.5-5.9-4c-3.3-2.3-8.7-6.6-12-9.7l-6-5.5-4.4 2.5c-6.1 3.6-7.3 3.2-1.4-.4l4.8-3-4.8-5.5c-2.6-3-4.8-5.5-5-5.5s-.5.6-.8 1.2m30.6 37.8c-3.3 4.4-5.6 8.2-5.1 8.5.4.3 3.8-.2 7.5-1 3.7-.9 10.8-1.9 15.9-2.3 5-.4 9.1-1.1 9.1-1.6s-3.2-2.3-7-4c-3.9-1.7-8.7-4.1-10.7-5.3l-3.7-2.2z"/><path d="M383.8 436.1c-10.2 4.5-24.5 8.3-37.2 9.9-5 .6-9.3 1.3-9.6 1.5-.6.3-.6 19.3-.1 20.2 0 .1 3.8-1.3 8.2-3.3 8.8-3.7 24.9-8.6 24.9-7.5 0 .4-3.2 1.5-7.1 2.5s-11.4 3.7-16.6 6l-9.6 4.2-.3 6.3c-.4 8-1.4 9.3-1.4 1.8 0-3.1-.5-5.9-1-6.2-1.3-.8-15.1 7.2-20.8 12.1-2.3 1.9-3.9 4-3.6 4.6.4.7.2.8-.5.4-2.2-1.4-15.5 11.5-28.4 27.4l-2.9 3.5 1.9-3.4c3-5.6 24-26.7 33.7-34 5-3.7 11.9-8.3 15.4-10.1l6.3-3.2-.3-10.7-.3-10.6-14.5-.7c-8.4-.3-18.1-1.4-23.1-2.6-7.3-1.6-10.2-1.8-20-1.1-16.5 1.2-38.8 6.8-38.9 9.7 0 .4-1.4 2.3-3.1 4.2-2.9 3.3-3 3.3-1 .4 1.1-1.7 1.8-3.4 1.4-3.7-1.5-1.6-16.7 8.8-15.9 10.9.3.8 0 1.1-.9.8-2.1-.8-8.6 5.1-16.4 14.8-9 11.2-15.5 21.9-19.6 32-5 12.5-5 12.7-2.3 13.8l2.3 1-2.5-.3c-3.5-.3-6.4 5.6-9.6 19.4-7 31.3-7.2 59.6-.3 73.1 3.3 6.5 10.3 13.3 16.7 16.1 7.4 3.3 10.8 4.1 33.7 7.2 23.3 3.2 42.8 6.7 56 9.9 5.5 1.3 10.3 2.2 10.7 2 .4-.3-.1-2.2-1.1-4.2-3.2-6.2-9-26.2-10.6-36.4-2.3-14.7-1.6-15 1-.5 3.7 20.5 9.7 36.7 17.4 47.2 2.1 2.7 5.6 7.6 7.9 10.7 6.6 9 23.2 17.5 32.4 16.6 3.3-.3 3.3-.3 3.1-5.5-.3-6.6-2.9-11.7-8.7-17.1-5.2-4.8-5-5.2.9-1.8 6.1 3.6 9.6 9.5 10.3 17.3.2 3.5.8 6.6 1.2 6.8 1.2.7 12.8-3.5 14.1-5.2 3.9-4.6-.7-19-8.3-25.9-4.8-4.3-3.3-4.5 2-.2 4.8 3.9 9 11.1 10 17 .4 2.4 1.2 4.3 1.7 4.3.6 0 2-2 3.3-4.5 3-5.8 2.3-12.1-2.1-20.5-3.7-6.9-25.7-30.2-34.1-36-11.1-7.6-62.5-27.3-90.5-34.7-6.7-1.8-11.2-2.3-20.6-2.2-10.6 0-12.9.4-19.5 2.9-7.6 2.8-13.4 6.3-19.6 11.7-1.9 1.7-3.7 2.9-3.9 2.6-.6-.6 7.3-7.2 13.8-11.7 8.1-5.5 14.8-7.4 27.9-7.9 8.4-.3 14 .1 19.8 1.2 10 2.1 9.6 2.3 17-11l5.3-9.5-1.9-3.5c-2.1-4-10.5-13.1-17.4-18.8l-4.5-3.8 4.5 3c4.9 3.3 13.4 11.8 16.9 17 1.2 1.8 2.7 2.9 3.3 2.6 1.3-.8 4.3-7.9 7.8-18.4 2.4-7.3 3.8-14.1 5.3-27.5.2-1.7.5-.6.6 2.5.2 3 .3 7.3.4 9.5.1 2.5.6 3.9 1.4 3.8.7-.2 1 .4.7 1.2s-1.1 1.3-1.7 1.2-1.2.5-1.2 1.3c-.1.8-.4 2.2-.7 3-.4.8-1.4 4-2.4 7-.9 3-3.2 8.9-5.1 13.1-3.4 7.5-3.4 7.7-1.8 10.9 2.5 4.8 8.7 21.2 8.2 21.6-.2.3-1.4-2.4-2.7-5.8-3.6-9.9-7-16.9-7.9-16.3-.5.3-2.1 2.6-3.6 5.3-1.6 2.6-4.3 6.6-6.1 8.8-2.5 3.2-3.1 4.4-2.1 5.2 1.1.9 20.1 7.6 22.2 7.8.6.1 2.7.8 4.7 1.8 4.7 2 4.7 2 5.9-.7l1-2.2-.5 2.2c-.2 1.2.1 2.6.8 3.1.6.5 8.5 3.7 17.6 7.2 17.8 6.8 26.7 10.9 31.6 14.6 1.7 1.3 3.4 2 3.8 1.7.9-.9.7-101.1-.2-101.6-.4-.3-4.3 1.8-8.7 4.7-9.9 6.5-22.1 19.3-28.1 29.5-3.7 6.4-11 23.5-15.2 35.6-.6 1.6-1.1 2.5-1.1 1.8-.1-1.9 5.8-18 9.9-26.9 8.5-18.5 19.6-31.6 35.3-41.8l8.7-5.7.1-7.7c0-4.2 0-9.6-.1-12-.1-2.3.2-4.2.7-4.2.4 0 .7 5 .7 11-.1 6.1.2 11.2.6 11.5.4.2 2.5-.4 4.8-1.5 7-3.4 19.4-7.2 29.7-9.1 10.7-1.9 31.2-1.9 37 0 2.3.8 1.6.9-3.5.4-9.7-.9-25.6-.6-33.4.7-8.5 1.3-26.7 7.2-32 10.3l-3.9 2.2.3 8c.1 4.4.3 28.3.4 53.2l.1 45.2 6.4 6.5c3.6 3.6 6.8 6.3 7.3 6s2.4-3.6 4.2-7.2c1.9-3.7 5.4-9.4 7.8-12.7 4.4-5.9 18.5-20.5 19.8-20.5.4 0 3.3-2 6.5-4.5 6.2-4.9 29.3-16.6 36.1-18.4 2.3-.6 4.7-1.7 5.3-2.4.7-.9 1.1-9.3 1.1-24 .1-13.3.5-22.7 1.1-22.7.5 0 .9 9.3.9 22.4 0 12.4.4 22.7.9 23 .4.3 3.3-.1 6.4-.9s9.3-1.7 13.9-2c4.6-.4 10.1-.8 12.3-1 11.5-1.1 43.9-1.7 43-.8-.5.6-13.1 1.6-28 2.2-26.1 1.2-45.3 3.5-47.7 5.9-1.1 1.1-1.4 56.5-.3 58.2.5.8 1.1.7 2.1-.1 1.9-1.6 1.7 0-.5 3.6-1.1 2-2 6.1-2.5 11.5-.3 4.6-.9 8.6-1.1 8.9-.3.2-.5-17.7-.5-39.8 0-32.5-.3-40.3-1.3-40.7-1.8-.7-14.3 3.9-25.2 9.2-15 7.3-34.2 23.1-42.5 34.9-3.9 5.7-10.2 18.3-9.8 19.7.2.6 4.7 2.2 9.9 3.4 16.8 4 60.8 15.7 65.2 17.3 2.4 1 2.9.8 3.7-1.2l.9-2.2v2.3c.1 2.5 2.9 4 11.9 6.3 5.4 1.3 6.4 2.7 3.5 5-2 1.7-6 10.5-6.5 14.5l-.3 2.9 10 1.1c5.5.7 16.3 1.6 24 2.2l14 1 1.9-2.6c4.5-6.1 12.5-12.5 21.1-16.8 9.6-4.7 26-9.4 33.5-9.4 9.5 0 11.5-.9 21.7-9.4 5.4-4.4 10.7-8.8 11.8-9.6 5-3.8-1.2 2.4-9.2 9.1-4.8 4.1-8 7.6-7.5 8.1s4.9 1.1 9.8 1.4c4.9.2 12.9 1 17.8 1.5 10.5 1.3 12.4.4 7.4-3.4-6-4.6-13.7-15.3-18.7-25.9-7-14.7-8.2-19.4-8.6-33.7-.3-6.8-.9-12.8-1.4-13.5-1.4-1.7-26.1-13.4-44.6-21.1-8.8-3.7-20-8.5-24.9-10.7-19.6-8.7-34.7-21.4-54.1-45.6-5.7-7.2-10.2-11.9-10.7-11.4-1.4 1.4-1.2 12 .3 13.8.7.9 3.3 2.6 5.8 3.9s5.5 3.1 6.6 4-2.7-.8-8.5-3.8-13.4-6.4-17-7.5c-3.6-1.2-7.2-2.3-8-2.6-1.3-.4-1.3-.5 0-.5.9-.1 4.7.8 8.5 1.9 10.6 3.2 9.9 3.5 9.7-4.3-.1-3.7.1-6.6.5-6.5 2.3.8.7-2.4-4.3-8.4-6.5-8-10.2-12.9-16.7-22.1-2.6-3.7-5.5-6.7-6.3-6.7s-1.3-.4-1-.9c.7-1-9.2-22.2-10.2-22-.4.1-4.6 1.9-9.4 4m5.7 18.9c-3.8.4-9.7 1-13 1.5-3.3.4-5.7.5-5.4.1 1-1 11.2-2.4 18.4-2.3h7zm11.8-.3c-.7.2-2.1.2-3 0-1-.3-.4-.5 1.2-.5 1.7 0 2.4.2 1.8.5M231 462.4c0 .2-.8 1-1.7 1.7-1.6 1.3-1.7 1.2-.4-.4s2.1-2.1 2.1-1.3m106 23c0 .3-.4.8-1 1.1-.5.3-1 .1-1-.4 0-.6.5-1.1 1-1.1.6 0 1 .2 1 .4m-22.3 3.2c-.3.3-1.2.4-1.9.1-.8-.3-.5-.6.6-.6 1.1-.1 1.7.2 1.3.5M202 496.3c0 .2-1 1.2-2.2 2.3l-2.3 1.9 1.9-2.3c1.8-2.1 2.6-2.7 2.6-1.9m-13 15.6c-.5 1.1-1.5 2.3-2.1 2.7-.6.3-.3-.5.6-2 2-3 3-3.5 1.5-.7m244 3.7c0 1.9-.4 3.4-1 3.4-.5 0-1-1.8-1-4.1 0-2.4.4-3.8 1-3.4.6.3 1 2.2 1 4.1m22 4.9c0 1-1.6.4-4-1.6l-2.5-2 3.3 1.6c1.7.8 3.2 1.8 3.2 2m-232.9 5.3c3 1.2 6.4 2.9 7.5 3.7 1 .8-.7.4-3.8-1-7.5-3.2-16.8-4.7-26.2-4.3-4.2.2-7.6-.1-7.6-.6 0-.4 5.5-.6 12.3-.4 9.4.3 13.5.9 17.8 2.6m-31.4-1.2c-.3.3-1.2.4-1.9.1-.8-.3-.5-.6.6-.6 1.1-.1 1.7.2 1.3.5m-4 1c-.3.3-1.2.4-1.9.1-.8-.3-.5-.6.6-.6 1.1-.1 1.7.2 1.3.5M496 570.9c-.8.5-2.6 1.1-4 1.5-2.1.5-2 .3.5-.9 3.2-1.5 6-2 3.5-.6m-12.5 5.4c-16.4 8.8-30.4 22.3-40.3 38.7-3.5 5.8-6.1 9.6-5.7 8.5 1.7-5.2 13.5-22.4 19.4-28.3 7.6-7.5 20.8-17.6 26.6-20.3 6.5-3 6.5-2.1 0 1.4"/><path d="M408.7 451.6c-.3.4 1.7 4 4.4 8.1 3.7 5.4 5.5 7.3 6.6 6.9 1.2-.5 1.3-.3.5.6-.8 1 .2 2.9 4.1 7.5 4.5 5.4 5.4 6 6.7 4.8 1.4-1.2 1.6-1.2 1.7.5.1 1.1-.1 1.9-.5 1.9-.4-.1-1-.1-1.4 0-1.3.2 23.9 31.1 32.6 39.9 9 9.3 16.5 15.4 24.6 20.2 5.7 3.4 29.9 14 31.8 14 .6 0 5.5-2.9 10.7-6.5 26-17.6 45-26.5 66-31 11.5-2.5 13-3.2 11.4-5.2-1.2-1.4-1.1-1.5.9-.9 2.4.8 4.5-1.1 27.5-25.2 4.8-5.1 9-9.2 9.3-9.2.4 0-4.7 5.6-11.2 12.6l-11.7 12.5 7.4 7.5c5.7 5.8 9.3 8.4 15.4 11.4 9.6 4.6 14 5.7 16.1 3.9 1.2-1 1.5-1 1.2.2-.4 2.1 5.2 2.3 11.5.5 6.4-1.9 11.8-6.2 15.5-12.4 2.3-4.1 2.7-5.8 2.7-12.7 0-8.6-1.4-12.3-7.8-21.2-5-7.1-9.7-9.7-19.7-11-3.9-.5-4.1-.7-2-1.5 3.2-1.2 1.8-2.2-6.5-4.7-11.5-3.4-18.3-4.4-32-4.5-18.5-.1-34.2 3.9-63.5 16.4-20 8.5-24.7 11.3-20.7 12.4.6.2 3.2.9 5.5 1.6 2.4.6 4.2 1.4 3.9 1.6-.3.3-3.8-.4-7.7-1.6l-7.3-2.2-7.1 3.7c-6.9 3.7-9.4 5.2-20.6 12.9l-5.5 3.8 4-3.6c2.1-2 8.4-6.6 13.9-10.3 8.7-5.8 9.7-6.8 8.2-7.9-.9-.6-3.4-1.5-5.4-1.9-4.2-.7-48.8-13.2-71.9-20.1-8.4-2.5-15.7-4.3-16.3-3.9-.5.3-1 1.4-1.1 2.3-.1 1-.4.6-.8-.8-.5-2.1-2.3-3.1-11.1-6.1-12.1-4.2-11.5-4.1-12.3-3.3m24.2 18.4c-.1 3.3-.4 6-.8 6-.8 0-1.2-8.6-.5-10.8.8-2.8 1.3-.8 1.3 4.8m222-1.6c-.7.7-3.1.9-6.9.6-3.1-.3-2.9-.4 1.5-.9 4.9-.6 6.3-.5 5.4.3m4.4.3c-.7.2-1.9.2-2.5 0-.7-.3-.2-.5 1.2-.5s1.9.2 1.3.5m-18 1c-.7.2-1.9.2-2.5 0-.7-.3-.2-.5 1.2-.5s1.9.2 1.3.5m-11 2.3c-3.9 1-9.1 2.8-11.5 4.1-7 3.5-17.3 11.6-24 18.7-3.4 3.7-5.2 5.3-4 3.6 3.4-5 16.4-16.6 22.8-20.4 6.4-3.9 17.5-8 21.4-7.9 1.4 0-.7.9-4.7 1.9m21.7-.7c0 .2-1 1.2-2.2 2.3l-2.3 1.9 1.9-2.3c1.8-2.1 2.6-2.7 2.6-1.9M555 492c.8.5 1.1 1 .5 1-.5 0-1.7-.5-2.5-1s-1-1-.5-1c.6 0 1.7.5 2.5 1m33.3 11.5c-.3.9-.8 1.4-1 1.1-.3-.3-.2-.9.2-1.5.9-1.6 1.5-1.3.8.4m-93.3 9.8c0 .2-1.2 1.4-2.7 2.8l-2.8 2.4 2.4-2.8c2.3-2.5 3.1-3.2 3.1-2.4m171.1 5.4c-1.2 2-1.4 1.4-.5-1.2.4-.9.9-1.4 1.1-1.1.3.2 0 1.3-.6 2.3"/><path d="M687.7 476.6c-.2.3 1.4 4.1 3.6 8.5 7 13.6 6.1 25.6-2.6 35.5-5.7 6.4-11.7 9.7-20.4 11-6.3 1-24.2-5.2-32-11.2-2.6-2-4.3-2.4-10-2.4-3.7 0-9.4.4-12.7 1-5.3.8-6.3 1.5-11.5 6.8-11 11.4-21 28.8-25.5 44.6-3.8 12.8-3.8 12.8 4.4 18.2 3.9 2.5 11.7 9 17.4 14.5l10.3 9.8 7.9-6.6c12.6-10.5 31.3-26.4 52.9-44.9 11-9.4 24.1-20.4 29.1-24.5 20.1-16.3 40.4-34.1 39.9-34.9-1.7-2.7-29.5-18-38.5-21.3-.8-.2-3.8-1.4-6.6-2.5-2.9-1.2-5.4-1.9-5.7-1.6m-8.7 61.2c-.9.3-9-3.5-9-4.3 0-.2 2.2.6 4.9 1.8s4.5 2.3 4.1 2.5m66.2-38.5-2.2 2.3 3 2.3c3.4 2.5 4.4 1.6 3.8-3.5-.4-3.6-1.9-4-4.6-1.1m140.8-.7c-5.2 1-5.7 1.4-3.5 3 1.8 1.3 1.5 1.5-3.5 1.4-3-.1-6.6.2-8 .7-15.7 5.2-31.4 22.8-36.9 41.3-3.3 11-4.1 21-4.1 52v29.9l7.6 5.2c4.2 2.8 10.4 7.5 13.9 10.4 3.5 3 6.6 5.1 6.9 4.8s.3-11.2 0-24.2c-1-38.4 2-53.5 14.5-72.6 17.8-27.2 56.1-34.6 82.3-15.9 2.6 1.8 5 2.9 5.3 2.4s.1-1.1-.5-1.5c-.5-.3-1.7-2.1-2.6-4-4.4-9.4-23.2-25-34.8-28.9-7-2.4-7.6-1.9-7.5 6.4.1 3.9-.2 7.4-.5 7.7-.6.7-.9-4.3-.6-11.3.1-2.6-.4-4.5-1.4-5.4-1.7-1.3-21.5-2.4-26.6-1.4m28.7 21.6c-.3.8-.6.5-.6-.6-.1-1.1.2-1.7.5-1.3.3.3.4 1.2.1 1.9m-176.8-14.9c-1.4 1.2-12 10.1-23.5 19.8-19.6 16.6-37.7 31.8-57.4 48.2-4.7 3.9-10.5 8.9-13 11.1-2.5 2.3-11.4 9.9-19.7 16.9l-15.2 12.9 8.8 11.7c8.1 10.7 16.7 21.2 24.5 29.8 1.6 1.8 3.2 3 3.6 2.8.5-.3 1 .1 1.3.9.9 2.2 25.3 14.1 36.3 17.6 7.2 2.3 12.6 3.3 19.7 3.7 5.4.3 10 1 10.4 1.6.3.6-.7.6-2.8.1-5.3-1.2-75.7-.8-91.3.5-14.9 1.2-31.2 4.3-36.1 6.8-14.8 7.6-22.9 21.6-19.5 33.9 1.2 4.3 8.5 13.2 9.8 12 .3-.3.4-3.2.3-6.4-.2-4.8.3-6.8 3.4-12.9 2.3-4.7 5-8.3 7.7-10.5l4.1-3.2-3.7 4.8c-5.3 7-7.9 13.3-8.4 20.2-.4 5.3-.1 6.5 1.7 8.3 1.9 1.9 3.1 2.1 9.4 1.9 5.8-.2 7.1-.6 6.8-1.8-2.3-9.9 0-18.1 7.3-25.6 2.8-3 5.8-5.4 6.4-5.4.7 0-.3 1.4-2.2 3.1-7.8 6.8-12.1 21.6-7.8 26.8l1.7 2.1 18-4.4c9.9-2.5 21.8-5.2 26.5-6 4.7-.9 9.4-1.8 10.5-2 11.1-2.2 26.3-3.4 55.5-4.6 22.3-.8 28.8-1.9 35.8-6.2l3.2-2v-120l-4.9-6.2c-4.9-6.1-16.2-17.3-25.6-25.5-3.5-3-3.9-3.6-1.5-2 1.9 1.3 9.7 8.5 17.2 16s13.9 13.4 14.2 13.1.6-17.5.6-38.2v-37.6l-2.7-2.5c-6.8-6.1-6.5-6-9.4-3.6M706 550.5c0 .3-1.8-.4-4-1.5s-4-2.3-4-2.5c0-.3 1.8.4 4 1.5s4 2.3 4 2.5m5 3.1c0 .2-.9 0-2-.6s-2-1.3-2-1.6c0-.2.9 0 2 .6s2 1.3 2 1.6"/><path d="M616.6 509.4c-2.5 3.1-3.3 4.7-2.4 5.2 1.6 1 14.4.8 13.9-.2-1-2.3-6.3-9.4-7-9.4-.5 0-2.5 2-4.5 4.4m135.1 4.2c-.4.4-.7 18.3-.7 39.7 0 37.6.1 39 2.1 41.8 3 4.3 10.9 21.4 10.8 23.5 0 1.1-.8-.4-1.8-3.1-2.9-8-9.1-19.6-10.1-19-1.2.8-1.4 112.1-.2 112.9.9.5 4.6-3.9 7.9-9.4 2.8-4.7 6.8-17.8 8.3-27.3 1.7-10.5.7-31.6-2-42.6-2.3-9.6-2.1-11.7.4-3.9 5.4 16.7 4.4 50.9-1.9 66.9-2.5 6.5 9.1-.8 20.5-12.7 13-13.8 18.6-28.1 19.4-49.6.4-10.9-1.4-29.2-4-39.3-3.9-15.5-13.1-35.4-22.8-49-10.3-14.6-24.4-30.3-25.9-28.9m-578.8 4.8c-.2.2-4.2.6-8.9 1-7.5.5-26 2.3-43.3 4.2-8.8 1-8.5 2.5 1.3 5.9 15.6 5.2 29.3 20.2 35.5 38.5 3.1 9.2 4.7 8.6 6.1-2.5 1.9-14 5.1-28.1 7.3-32.8 3.9-8.1 5.1-12.5 3.7-13.6-.7-.6-1.5-.9-1.7-.7m417.8 4.6c-14 3.7-27.3 9.6-44.6 19.7-11.3 6.6-23.1 14.2-23.1 14.8 0 .3 2.1 1.4 4.8 2.6 15.3 7 24.3 11.4 32.3 16 5 2.8 9.4 4.7 9.8 4.3.4-.5 1.5-3.8 2.5-7.3 4.4-16.5 13-32.9 23.5-44.9 6.8-7.8 6.3-8.3-5.2-5.2m325.5 5.8c-1.5 1.5-2.1 1.6-2.8.6-2-3-17.1 3.1-27.1 10.7-9.8 7.6-17.4 20-22 36.2-2.6 9-2.7 9.9-2.9 42.1l-.3 33 3.2 3.5c8.9 9.9 18.3 29.5 21.2 44.1 1 4.7 2.1 8.9 2.5 9.3 1 1.1 11.4-11.3 18.4-21.8 7.7-11.6 9.6-15.1 8.5-16.2-.5-.5-.1-.9 1-.9 1.8 0 1.8.2.4 3-.9 1.7-1.6 4.3-1.5 5.7 0 1.9-.4 2.6-1.6 2.5-1-.1-3.6 2.9-6.7 7.6-2.8 4.3-8 11.3-11.7 15.6l-6.5 7.9-.5 15.4c-1 28.5-8.8 56.4-22.6 80.3l-3.5 6.1.1 26.5.2 26.5h27.7c27 0 27.9-.1 32.5-2.3 8.1-4 16.3-13.8 18.9-22.4 2.7-9.2 3-17.2 2.9-111.5v-98.2l5.9-3.6c7.8-4.7 17.3-15.1 21.1-23.2 3.4-7.2 6-18.1 6-25.1-.1-12-5.3-25.7-13-34.1-4.4-4.8-6.6-4.9-7.3-.4-.3 1.8-.5 1.3-.4-1.4.1-5.3-1.7-7.5-10-11.4-11.5-5.5-26.7-7.5-30.1-4.1m-1.5 23.4c-.1 4-.3 1-.3-6.7s.1-11 .3-7.3.2 10 0 14m40.4 6.9-1.1 3.4.5-3.4c.3-1.8.6-4.5.6-6l.2-2.6.4 2.6c.2 1.5-.1 4.2-.6 6m-40.4 4.1c-.3.7-.5.2-.5-1.2s.2-1.9.5-1.3c.2.7.2 1.9 0 2.5m39 5.5c-.3 1-.5.2-.5-1.7s.2-2.7.5-1.8c.2 1 .2 2.6 0 3.5m-39-1.5c-.3.8-.6.5-.6-.6-.1-1.1.2-1.7.5-1.3.3.3.4 1.2.1 1.9m0 9.5c-.2 1.6-.4.5-.4-2.2 0-2.8.2-4 .4-2.8.2 1.3.2 3.5 0 5m38-2c-.3 1-.5.4-.5-1.2 0-1.7.2-2.4.5-1.8.2.7.2 2.1 0 3m-1.4 7.3c-.3 1.2-.8 1.9-1.1 1.6-.5-.6.5-3.6 1.2-3.6.2 0 .2.9-.1 2m-36.6 8.2c-.2 1.3-.4.3-.4-2.2s.2-3.5.4-2.3c.2 1.3.2 3.3 0 4.5m32 7c-.3.8-.6.5-.6-.6-.1-1.1.2-1.7.5-1.3.3.3.4 1.2.1 1.9m-32 9.5c-.2 2.1-.4.6-.4-3.2 0-3.9.2-5.5.4-3.8.2 1.8.2 5 0 7m31-4.5c-.3.8-.6.5-.6-.6-.1-1.1.2-1.7.5-1.3.3.3.4 1.2.1 1.9m-31 16c-.2 1.3-.4.5-.4-1.7-.1-2.2.1-3.2.4-2.3.2 1 .2 2.8 0 4m24.3 5.5c-.7 2.1-1.6 4.2-2.1 4.7-.4.5-.1-1.4.8-4.2.9-2.9 1.9-5 2.1-4.7.2.2-.1 2.1-.8 4.2m-24.3-.5c-.3.8-.6.5-.6-.6-.1-1.1.2-1.7.5-1.3.3.3.4 1.2.1 1.9m0 5.5c-.3 1-.5.4-.5-1.2 0-1.7.2-2.4.5-1.8.2.7.2 2.1 0 3m21.3 3.6c0 .7-.7 2.2-1.5 3.3-1.3 1.7-1.3 1.6-.3-1.4 1.3-3.4 1.8-4 1.8-1.9m-21.3 2.9c-.3.8-.6.5-.6-.6-.1-1.1.2-1.7.5-1.3.3.3.4 1.2.1 1.9m0 19.5c-.2 3.2-.3.6-.3-5.7s.1-8.9.3-5.8c.2 3.2.2 8.4 0 11.5m16.1-10.2c-.6 1.4-1.3 2.3-1.5 2.1-.5-.5 1.5-4.6 2.2-4.6.3 0-.1 1.1-.7 2.5m-4.8 10.4c-2.8 5.6-3.5 5.2-.8-.4 1.2-2.4 2.3-4.3 2.6-4.1.2.2-.6 2.2-1.8 4.5m-3 5.9c0 .5-.7 1.7-1.5 2.8-1.4 1.8-1.4 1.7-.4-.9 1.2-2.7 1.9-3.4 1.9-1.9m-8.3 5.4c-.3.8-.6.5-.6-.6-.1-1.1.2-1.7.5-1.3.3.3.4 1.2.1 1.9"/><path d="M84.9 529.9c-9.1 2.5-16.3 6.6-22.7 13.1-6 6.2-9.1 10.9-12.7 19.8-2.6 6.4-4.7 19.9-3.3 20.8.5.3.4 1.1-.1 1.8-1 1.2-.9 3.1.4 12.6 1.5 10.4 10.9 23 23.6 31.6 7.6 5.2 11.9 11.3 9.5 13.3-1.7 1.5-2.2 184.8-.5 194.8 2 11.8 9.7 22.5 19.7 27.5 4.6 2.2 5.4 2.3 32.7 2.3h28l-.3-33.5c-.2-18.4-.6-33.8-.8-34.2-.3-.5-2.9-.9-5.7-1l-5.2-.1 5.5-.6 5.5-.6.1-32.5c.1-17.9-.1-35.7-.5-39.5l-.6-7-26.5-.5-26.5-.6 26.2-.2c27.1-.2 30-.7 25.5-4.1-1.1-.9-4.8-3.2-8.2-5-11.1-6.3-16.5-17.5-16.4-34.1.2-15.9 6.8-24.5 22.1-28.4l4.8-1.2-.2-31c-.1-28.2-.3-31.6-2.3-39.4-3.7-14.6-9.6-24.5-19.4-32.9-13.2-11.4-34-15.9-51.7-11.2m67.1 38.5c0 .2-1.9 1.9-4.2 3.6l-4.3 3.2 3.9-3.6c3.8-3.5 4.6-4 4.6-3.2m-9 6.9c0 .2-1.7 1.9-3.7 3.8l-3.8 3.4 3.4-3.8c3.3-3.4 4.1-4.2 4.1-3.4m-16.3 9.3c-.3.3-1.2.4-1.9.1-.8-.3-.5-.6.6-.6 1.1-.1 1.7.2 1.3.5m4.6.7c.3.7-.4 2.4-1.5 3.8l-2 2.4 1.6-2.7c1.5-2.5 1.5-2.8-.2-3.7-1.5-.9-1.5-1-.1-1.1.9 0 1.9.6 2.2 1.3m-9.4 12.5c-3 3.2-5.6 5.6-5.8 5.5-.5-.4 10-11.3 10.8-11.3.2 0-2 2.6-5 5.8m-17.5 18.7c-5.9 6.3-10.9 11.5-11.2 11.5-.2 0 1.5-2.1 3.8-4.8 6.8-7.4 17.2-18.2 17.7-18.2.3 0-4.4 5.2-10.3 11.5M86 636.4c0 .2-.8 1-1.7 1.7-1.6 1.3-1.7 1.2-.4-.4s2.1-2.1 2.1-1.3m41 61.9c0 .2-1 1.2-2.2 2.3l-2.3 1.9 1.9-2.3c1.8-2.1 2.6-2.7 2.6-1.9m-44.3 86.3c-.3.3-1.2.4-1.9.1-.8-.3-.5-.6.6-.6 1.1-.1 1.7.2 1.3.5m63.6 14.1c-.7.2-1.9.2-2.5 0-.7-.3-.2-.5 1.2-.5s1.9.2 1.3.5m426.9-211c-1 2.7-.6 15.1.8 21.7 1.2 5.8 7.1 20.8 9.1 23.3.8.9 3.8-1.1 12.2-8.3 6.2-5.2 11.2-9.9 11.2-10.5 0-1.9-18.1-19.1-24.6-23.5-3.7-2.4-7-4.4-7.3-4.4-.4 0-1 .8-1.4 1.7m-411.5 23.1c-.6.8.1 32.9.6 32.6.1-.1 4.7-.9 10.2-1.9s10.4-2.1 10.8-2.5c.5-.4-1.4-2.3-4.1-4.3-5.7-4-10.4-10.3-13.4-18-2.4-6-3.3-7.3-4.1-5.9m434.8 13.8c-6 5.2-11.1 9.9-11.3 10.4-1.1 3.1 12 18.2 20.5 23.7 3.5 2.2 9.1 4.3 16.5 6.2 9.2 2.4 28.7 8.8 35.8 11.8 3.8 1.6 15.7 2.6 16.5 1.4.3-.6-4-3.2-9.7-5.9s-13.1-7-16.4-9.5c-6.3-4.6-24.6-25.9-34.6-40.2-2.8-4.1-5.4-7.5-5.7-7.5s-5.5 4.3-11.6 9.6m212.2-4.8c-.3.4-.9 5.5-1.2 11.3-.6 11.8-2.8 23.1-5.6 29.7-2.3 5.3-1.9 7.2 1.4 7.2 3.5 0 12.1 4.7 17.5 9.5 5.6 5.1 11.4 15.3 14.3 25.3 2 7 2.8 24.7 1.4 32.8-1.2 6.8-4.5 19.7-6.5 25.1-1.9 5.2-1.4 7.6 1.3 5.6 16.8-12.9 36.8-31.5 43.7-40.8 2.1-2.8 4.8-5.9 6.1-7l2.4-2-1.6 2c-8.3 10.5-16.9 20.2-23 26-7.2 6.8-24 20.7-30.7 25.4-1.8 1.3-4.6 4.9-6.3 8.2-1.6 3.3-4.7 8.5-6.9 11.7-2.6 3.7-3.6 6-3 6.6 1.5 1.5 1.2 3-.4 1.7-1.1-.9-2.7.4-8 6.8-13.4 16.3-35.9 36.1-47.6 42.1-2.1 1.1-4.2 2.4-4.5 3-.4.6-.7 9.5-.8 19.8 0 10.3-.2 14.6-.4 9.7-.3-6.5-.8-9.3-1.9-10.1-1.3-1-1.3-1.2.1-1.8 1.2-.4 1.5-2.2 1.5-7.9 0-4.1-.2-7.6-.6-7.9-.3-.3-3.1.7-6.2 2.2-17.8 8.5-32.9 12.3-47.2 11.8-16.7-.5-25.1-5.3-32.2-18.5-2.1-3.9-3.7-5.5-7.4-7.3-11.5-5.3-24.7-1-30.4 10-2.3 4.5-4.4 14.6-3.5 16.8.4.9.8 3 1 4.7.2 3.7 4.7 12.6 8.8 17.7 7 8.7 21.6 17.1 37.5 21.6 22.6 6.3 59.1 1.8 88.8-11 37.4-16 74.4-47.7 98.4-84.3 16.6-25.4 26.8-57.1 27.5-85.5.6-23.3-2.2-37.5-10.7-54.5-9.7-19.2-21.7-30.9-48-47.1-15.7-9.6-16.4-9.9-17.1-8.6m22 177.8c-.3.3-1.2.4-1.9.1-.8-.3-.5-.6.6-.6 1.1-.1 1.7.2 1.3.5M687 868c0 .5-.5 1-1.1 1-.5 0-.7-.5-.4-1 .3-.6.8-1 1.1-1 .2 0 .4.4.4 1m-55.7.7c-.7.2-2.1.2-3 0-1-.3-.4-.5 1.2-.5 1.7 0 2.4.2 1.8.5m8 0c-1.3.2-3.3.2-4.5 0-1.3-.2-.3-.4 2.2-.4s3.5.2 2.3.4m10 0c-.7.2-2.1.2-3 0-1-.3-.4-.5 1.2-.5 1.7 0 2.4.2 1.8.5m27.5 0c-4.2.2-11.4.2-16 0-4.6-.1-1.1-.3 7.7-.3s12.5.2 8.3.3m62.9-.1c-.3.3-1.2.4-1.9.1-.8-.3-.5-.6.6-.6 1.1-.1 1.7.2 1.3.5m32 0c-.3.3-1.2.4-1.9.1-.8-.3-.5-.6.6-.6 1.1-.1 1.7.2 1.3.5m15 0c-.3.3-1.2.4-1.9.1-.8-.3-.5-.6.6-.6 1.1-.1 1.7.2 1.3.5m6.6.1c-.7.2-2.1.2-3 0-1-.3-.4-.5 1.2-.5 1.7 0 2.4.2 1.8.5M356.7 638.6c-.3.4 1.2 3 3.3 5.8 5 6.6 7.9 13.2 8.7 19.5.5 4.2.1 5.7-2.8 11.1-4 7.5-8.7 11-20 14.7l-8.2 2.7-7.9-1.6c-9-1.9-20.7-7.4-25.7-12.1-1.8-1.8-5.5-6.5-8.2-10.4-5.8-8.6-7.1-9.5-16.9-12.2-11.2-3-55.6-10.8-72-12.6-3-.3-8.2-1-11.5-1.6-5.2-.8-7.9-.6-20 1.9l-14 2.8-.6 4.8c-.4 3.7-.2 4.9 1 5.5.9.5 9.3 3.4 18.6 6.4 19.9 6.6 48.6 16.3 70.5 24 44.9 15.8 56.7 20 58.2 20.8 1.2.7 2.8.5 4.9-.6 1.7-.9 6.5-2.8 10.7-4.1 8.7-2.9 9.5-3.1 10.2-3.2 1.8-.4 93.8-31.4 95-32.1.8-.5 1.4-1.5 1.2-2.2-.2-.9 0-1 1.1-.1 1.6 1.4 9.9-.6 9.9-2.3 0-.6-1.9-1.5-4.2-2.2-3.9-1.1-4.2-1.1-4.7.7-.7 2.7-2.1 2.5-1.9-.1.1-2.7-3.8-4.2-27.4-10.4-23-6.1-33.5-9-40.4-11.4-6.8-2.4-6.1-2.3-6.9-1.5"/><path d="M151.1 649.5q-6.15 2.7 3 5.4c4.8 1.5 6.2.6 5.7-3.5-.4-3.5-3.5-4.2-8.7-1.9m-11.8 8c-6.8 8.2-7.3 21.8-1.4 35 4.5 9.9 12.4 15.1 35.1 23 12.1 4.2 24.9 9 42 15.5 13 5 31.3 12 65.8 24.9 18.9 7.1 18.8 7.1 18.4 5.1-4-17.9-4.3-20.6-3.3-27.8 1.3-8.5 4-14.4 8.8-18.9 4.1-3.9 5.1-3.3-16.4-10.9-56.7-20.1-99.3-34.5-99.4-33.6-.1.4-.1 1 0 1.4 0 .4-1.3.2-2.9-.3-1.6-.6-2.8-1.6-2.7-2.2.3-1.5-21.1-8.8-21.9-7.5-.3.5-1.1.3-1.7-.6-.7-.8-4.1-2.3-7.7-3.4s-7.2-2.3-8.1-2.7c-1.1-.4-2.6.5-4.6 3m21.4 20.7c-.2 2.9-.3.6-.3-5.2s.1-8.1.3-5.3c.2 2.9.2 7.7 0 10.5m35.3-3.7c1.4.8 2.1 1.4 1.5 1.4-.5 0-2.1-.6-3.5-1.4s-2-1.4-1.5-1.4c.6 0 2.1.6 3.5 1.4m19 7.5c.8.5 1.1 1 .5 1-.5 0-1.7-.5-2.5-1s-1-1-.5-1c.6 0 1.7.5 2.5 1m-54.3 5.2c-.3.7-.5.2-.5-1.2s.2-1.9.5-1.3c.2.7.2 1.9 0 2.5m-1 18.5c-.2 1.6-.4.3-.4-2.7s.2-4.3.4-2.8c.2 1.6.2 4 0 5.5M544 668.8c-16.1 13.4-23.7 21.3-27 28.5-3.5 7.2-3.9 13.4-1.2 16.6l1.7 2.1 21.3-2.2 21.2-2.3 2.9-6c3-6.4 10.6-14.2 17-17.4 9.9-5 27.6-8 52.6-9 9.4-.3 17-1 17-1.5 0-2.3-27.3-10.3-46.1-13.6-11.7-1.9-34-4-43.9-4-4.8 0-5.4.3-15.5 8.8"/><path d="M538.5 661.6c-22 4.6-36.9 12.4-44.4 23.3-3.5 5-5.3 11.8-4.5 16.9.7 4.6 4.9 10.6 6.6 9.5.7-.3.8-.1.4.5-1.2 2 4 4.3 10 4.5l5.9.2-.3-6c-.5-11.5 7-22.3 28.1-40.2 4.8-4.1 8.5-7.9 8.2-8.4-.6-.9-6.2-1-10-.3M511 699.3c0 .2-1.5 1.6-3.2 3.3l-3.3 2.9 2.9-3.3c2.8-3 3.6-3.7 3.6-2.9m-123-13.9-51.5 17.2v7c0 5.5.3 6.9 1.5 6.8.8-.1 14.8-4.8 31-10.4s38-13 48.4-16.4c10.5-3.5 19.3-6.9 19.7-7.7 1.6-3.3 3.8-12.4 3.1-13-.4-.4-23.9 7.1-52.2 16.5m406.7-11.6c-5.3 8.1-27.5 27.2-31.6 27.2-.6 0-1.6 1-2.2 2.2-.7 1.3-2.7 4.2-4.6 6.5s-3 4.3-2.6 4.6 18.6.6 40.3.8l39.5.4-.3-5c-.4-5.9-5.1-18.5-9.2-24.8-3.7-5.5-7.9-8.8-16.2-12.7-8.3-4-10-3.8-13.1.8"/><path d="M396.5 697.9c-59.9 20.3-59.8 20.3-60.5 23.1-.5 2.2-.7 2.3-1.3.6-.6-1.4-1.4-1.7-3.5-1.2-2.4.5-2.3.4.7-1.2 3.5-1.7 3.5-1.7 3.2-8.2-.1-3.5-.4-6.7-.6-7.1-.6-.9-19 5.6-22.4 8-4 2.9-8.6 8.4-10.8 12.8-2.7 5.7-2.4 25.8.6 33.5l1 2.8 5.8-2.6c3.2-1.4 14.1-6.1 24.3-10.4 16.7-7 29.1-12 63.5-25.5 6.1-2.4 19.3-7.1 29.5-10.5s18.9-6.6 19.5-7.1c.6-.6 0-1.9-1.7-3.5-2.5-2.5-2.6-2.6-7.4-1.2-3.3 1-4.8 1.9-4.6 2.9.3 1 .1 1.1-.8.3-1.2-1.2-2.9-.6-39 12-5.8 2.1-12.7 4.6-15.5 5.6-24 9.3-36.8 14-37.2 13.7-.2-.2 2-1.3 4.9-2.5 2.9-1.1 11.2-4.4 18.3-7.2 7.2-2.8 14.8-5.7 17-6.5 2.2-.7 9.2-3.2 15.5-5.5s18.7-6.7 27.5-9.7 16.3-5.8 16.8-6.2c1.2-1.1-1.8-11.6-3.4-11.8-.8-.1-18.5 5.5-39.4 12.6M326 722c-.8.5-1.9 1-2.5 1-.5 0-.3-.5.5-1s2-1 2.5-1c.6 0 .3.5-.5 1m10 14.4c-1.4.7-3.6 1.6-5 2-1.9.5-1.6.2 1-1.3 1.9-1.1 4.2-2 5-2s.4.6-1 1.3m-16 6.6c-.8.5-1.9 1-2.5 1-.5 0-.3-.5.5-1s2-1 2.5-1c.6 0 .3.5-.5 1m-7 3c-.8.5-1.9 1-2.5 1-.5 0-.3-.5.5-1s2-1 2.5-1c.6 0 .3.5-.5 1"/><path d="M440.3 686.6c-.2.6.6 3.2 1.8 5.8 2.3 5 7.9 10.1 12.3 11.2 1.5.3 2.5.9 2.2 1.1-.3.3-6 2.4-12.8 4.7-6.8 2.2-12.3 4.5-12.3 5.1 0 1 56.7 2 59.2 1.1.9-.4.5-1.8-1.2-4.9-3-5.3-4.1-12-2.7-17 .6-2 .7-3.9.4-4.1-.4-.2-5.6-.7-11.6-1.1s-16.3-1.2-22.9-1.9c-9.2-1-12-1-12.4 0"/><path d="M160.7 714.8c-.2.4-.2 2.7-.2 5.2.1 2.5.5 14.6.9 27 .8 26.4 1.8 33.5 5.6 39.1 3.3 5 6.9 7.4 14 9.5 4.8 1.4 14.3 1.6 79 1.5 63.4 0 73.6-.2 74.5-1.5 1-1.2 1.2-1.3 2.1 0 .7 1.2 7.8 1.4 44.3 1.4 27.8.1 43.7-.3 44.5-.9.8-.7 1.6-.7 2.2-.1 1.1 1.1 319.8 1.5 321.5.4.5-.3 1-3.5 1.1-7.2l.2-6.7.5 7 .6 7 14.4.3c14.1.3 14.5.2 20.7-2.7 3.5-1.6 11.2-5.8 17.1-9.2s12-6.9 13.5-7.6c6.9-3.5 17.3-36.6 16.6-52.8l-.3-6.8-42.2-.3-42.2-.2-4.1 5.3c-5.4 7-18.2 19.2-24.5 23.4-2.8 1.8-3.9 2.3-2.5 1.2 1.4-1.2 5.6-4.7 9.3-7.8 8.8-7.4 18.3-18.1 17.1-19.3-.6-.6-2.9-.4-5.9.5-5.3 1.7-11.7 2.2-39 3.1-9.9.3-19.6.7-21.5.9-4.2.4-13.8 1.6-16 2-.8.1-4.9.8-9 1.5-10.6 1.7-31.8 6.5-43 9.6-12.8 3.7-30.1 4-37 .8-8.4-3.9-12.6-9.9-13.3-18.9l-.2-4-4.5-.1c-2.5 0-9.2.5-15 1.2-27.7 3.3-34.7 3.7-40.2 2.3-7.9-1.9-8.7-1.8-12.2 1-1.7 1.4-2.5 1.8-1.7.9 1.1-1.5 1.1-1.9-.1-2.3-.7-.3-13-.4-27.3-.3l-26 .3-.6 11.5-.5 11.5-.2-11.2c-.1-6.1-.6-11.4-1.1-11.7-.5-.4-3.3-.7-6.3-.8-3.9-.2-7.6.7-14.3 3.2-18.7 7-65.2 25.3-69.5 27.3-2.5 1.1-4.9 2.2-5.5 2.3-1.6.3-21.4 8.8-28.7 12.3l-6.6 3.2-16.9-6.4c-9.2-3.5-26.7-10.1-38.8-14.7s-27.6-10.4-34.5-13c-14.1-5.3-38.6-14.4-44.2-16.5-2-.8-3.9-1.1-4.1-.7m590 51.4c-.1 9-.3 1.9-.3-15.7s.2-24.9.3-16.3c.2 8.6.2 23 0 32m-319-19c-.3.8-.6.5-.6-.6-.1-1.1.2-1.7.5-1.3.3.3.4 1.2.1 1.9m-96 8.5c-.3 1-.5.4-.5-1.2 0-1.7.2-2.4.5-1.8.2.7.2 2.1 0 3m110.6 1.8c-.3.9-.8 1.4-1 1.1-.3-.3-.2-.9.2-1.5.9-1.6 1.5-1.3.8.4m-3.7 10.2c-.8 1.5-1.5 2.5-1.6 2.1 0-1.2 2.3-5.8 2.7-5.4.3.2-.2 1.7-1.1 3.3m-106.9 6.5c-.3.7-.5.2-.5-1.2s.2-1.9.5-1.3c.2.7.2 1.9 0 2.5m104.5-1c-.7.7-1.2.8-1.2.2 0-1.4 1.2-2.6 1.9-1.9.2.3-.1 1.1-.7 1.7m-4.7 9.5c-2 3.7-4.4 7.5-5.2 8.3-1 .9-.7.1.5-2 1.2-1.9 3.4-5.8 4.9-8.7s2.9-5.1 3.1-4.8c.2.2-1.2 3.5-3.3 7.2m-99.8-1.5c-.3.8-.6.5-.6-.6-.1-1.1.2-1.7.5-1.3.3.3.4 1.2.1 1.9m0 10.5c-.3 1-.5.4-.5-1.2 0-1.7.2-2.4.5-1.8.2.7.2 2.1 0 3m465.5-4.4c-8.3 4.6-13.9 8.4-13.4 8.9s4.9.8 9.8.6l8.9-.3 5.4-7.8c2.9-4.3 4.9-8.2 4.5-8.7-.5-.4-7.3 2.9-15.2 7.3m-760.7-1c-.3.7-.4 14-.3 29.7l.3 28.5 17.5.3c9.6.1 18 0 18.7-.2.9-.4.9-1.3.1-3.8-.5-1.8-1.2-14.5-1.4-28.2s-.6-25.6-.8-26.3c-.7-1.8-33.4-1.9-34.1 0m121-.1c-.4.9-.5 3.7-.3 6.4l.3 4.9 6.2.3c3.3.2 6.4-.1 6.7-.7.3-.5-1-1.9-2.9-3.1s-4.8-3.8-6.5-5.8c-2.3-2.8-3.1-3.2-3.5-2m631.1 12.5c-.1.1-4.3.3-9.4.4s-9.5.6-9.8 1.1-1.1.5-1.9-.2c-.9-.8-88.6-1-305.6-.8l-304.4.3v68h173l.6-6.5.5-6.5.5 6.5.4 6.5 140.4-.3c77.2-.1 140.8-.5 141.3-.8.4-.3.8-1.7.8-3.1 0-5 3.1-13.8 6.5-18.4 7.1-9.8 21.2-12.9 32.6-7.2 4.5 2.3 5.9 3.7 8.4 8.5 5.7 10.6 11.8 15 23.8 16.8 5.2.8 9 .7 16.7-.5 28.8-4.3 57.3-20.5 83.2-47.3 11.4-11.8 13.5-14.6 11.7-15.7-1-.6-8.8-1.3-9.3-.8m-374.3 5.6c-1.5 1.8-4.1 4.3-5.8 5.7-1.6 1.3-.5-.2 2.5-3.3 6-6.3 7.8-7.6 3.3-2.4M338.5 832c1.7.6 1.6.7-.8 1.2l-2.7.5.2-14.6.2-14.6.6 13.4c.5 12.2.7 13.5 2.5 14.1m412.2 1.2c-.3.7-.5.2-.5-1.2s.2-1.9.5-1.3c.2.7.2 1.9 0 2.5m-393.4-.5c-.7.2-2.1.2-3 0-1-.3-.4-.5 1.2-.5 1.7 0 2.4.2 1.8.5m-21.6 5.5c-.3.7-.5.2-.5-1.2s.2-1.9.5-1.3c.2.7.2 1.9 0 2.5m0 12.5c-.2 2.1-.4.4-.4-3.7s.2-5.8.4-3.8c.2 2.1.2 5.5 0 7.5M552 862.4c0 .2-.8 1-1.7 1.7-1.6 1.3-1.7 1.2-.4-.4s2.1-2.1 2.1-1.3m303.3-39.2c-3.6 6.1-14.7 19.2-26.2 31-7.8 8.1-10.9 11.9-10 12.3.8.3 10.2.4 20.9.3l19.5-.3-.3-22.5c-.2-12.4-.7-22.9-1.2-23.3-.4-.5-1.6.7-2.7 2.5m-814.8 24c-.3.7-.4 13.9-.3 29.3l.3 28 36.4.3c20.1.1 36.8-.1 37.3-.6.8-.8-2.7-31.6-3.8-33.3-.3-.5-1.4-.9-2.4-.9-3 0-11.8-3.6-16.2-6.6-3.6-2.5-10-10.2-12.3-14.9-1-1.9-2.1-2-19.8-2.3-14.6-.2-18.9 0-19.2 1m814.8 23.6c-.3.7.9 9 2.7 18.5 1.8 9.4 3.7 19.4 4.2 22.2.4 2.7 2.1 11.1 3.6 18.5l2.7 13.5 13.9.3c7.7.1 14.3-.1 14.7-.5.8-.8 2.4-15.8 3.4-31.3.2-4.1.6-9.8.9-12.5 2.3-22.6 2.8-28.7 2.3-29.1-.3-.3-11.2-.6-24.2-.7-18.3-.2-23.9.1-24.2 1.1m23.7 53.6c0 .2-.8 1-1.7 1.7-1.6 1.3-1.7 1.2-.4-.4s2.1-2.1 2.1-1.3m-765.2-53.9c-.2.2.1 4.4.8 9.2 1.1 8.6 3.7 30.8 5 42.8 1.4 13.9 2.3 19.8 3.1 20.6.5.5 6.2 1 12.7 1 8.8.1 12.1-.2 13.1-1.2.7-.8 4.1-13.6 7.5-28.4 9.8-42.2 9.8-42.4 8.5-43.5-1.1-.9-49.8-1.4-50.7-.5m54.7.8c-.2.7-1.5 6.6-3 13.2s-3.1 13.5-3.6 15.4c-.4 1.9-.6 3.8-.3 4.3.6 1 38.1 1.1 38.6 0 .2-.4.2-8.1-.2-17.2l-.5-16.5-15.3-.2c-11.3-.2-15.4.1-15.7 1m33.9-.1c-.9 1.4.7 31.3 1.7 32.3.6.5 5.3 1 10.7 1h9.6l.7-4c3.6-23 4.1-27.7 3.1-28.7-1.3-1.3-25-1.9-25.8-.6m29 .3c-.1.5-.8 5.3-1.4 10.5s-1.3 11.1-1.7 13c-.3 1.9-.6 4.8-.7 6.5l-.1 3 53.8.5c29.6.3 53.9.4 54 .3s0-7.9-.3-17.5l-.5-17.3h-51.4c-33.4 0-51.5.4-51.7 1"/></g></svg>