<svg xmlns="http://www.w3.org/2000/svg" width="1365.333" height="1365.333" preserveAspectRatio="xMidYMid meet" version="1.0" viewBox="0 0 1024 1024"><g fill="#000" stroke="none"><path d="m36.8 24.2-.3 24.3L18 49l-18.5.6L15 50l15.5.4L15 51l-15.5.6 18.8.2L37 52v74.1l-2.5 3.3c-1.3 1.8-4.1 6.8-6 11.2-2 4.3-4.7 10.1-6 12.9-5.2 10.8-12.9 32.4-12 33.4.5.4.8-.3 2.8-7.4 3.7-12.5 17.8-43.8 22.9-50.4 1.7-2.2 1.8-5.9 1.8-65.7C38 28.5 37.8 0 37.5 0s-.6 10.9-.7 24.2m-1 26.5c-1 .2-2.6.2-3.5 0-1-.3-.2-.5 1.7-.5s2.7.2 1.8.5m3.7 8.2c0 40.4.3 59.5 1 59.8.6.2 2.1-1.8 3.4-4.4C50 101.6 71 75.1 86.8 60.1c8.1-7.7 8.1-8.6-.1-1.7-6 5.1-25.9 27.9-33.3 38.3-3.1 4.3-7 10.6-8.7 14-1.7 3.5-3.5 6.3-3.9 6.3-.5 0-.7-14.5-.6-32.3l.3-32.2 27-.5c26.3-.5 26.6-.6 10-1l-17-.4 20.3-.6c16.6-.4 20.5-.8 21.2-2 1.7-3.1 21.4-16.2 40.9-27.2 9.9-5.6 21-10.7 33.6-15.5C184.2 2.4 190 .1 189.3 0c-4.2-.1-35.5 13.2-46.8 19.9-2.7 1.7-5.7 3.4-6.5 3.8-10.1 4.9-30.4 18.5-35.3 23.5C99.1 48.9 96.8 49 70 49c-16 0-29.1-.1-29.2-.3-.1-.1-.5-11.2-.8-24.7-.3-15.2-.5-1.9-.5 34.9m10.3-8.2c-1.5.2-4.2.2-6 0s-.6-.4 2.7-.4 4.8.2 3.3.4m9 0c-1 .2-2.8.2-4 0-1.3-.2-.5-.4 1.7-.4 2.2-.1 3.2.1 2.3.4"/><path d="m431.9 24-.4 24.5-162.7.3c-89.6.1-162.8-.1-162.8-.5.1-.8 15.5-12.5 17.4-13.2.6-.2 5.8-3.2 11.6-6.6 15.6-9.2 28.7-16 36-18.5 3.6-1.2 7.4-2.6 8.5-3.1s5.2-2 9-3.4c3.9-1.4 6.3-2.5 5.4-2.5-.8 0-8.2 2.5-16.4 5.5-19.5 7.3-48.8 22.9-64.6 34.5-8.1 5.9-9.2 7.1-8.1 8.2.4.4 31.6.9 69.2 1.1l68.5.2-71.7.3-71.7.2-7.6 6.7c-14 12.3-38.3 41.7-44.2 53.5-1.3 2.6-3.6 6.2-5.1 8l-2.7 3.2-.5 79-.5 79.1-.3-73.8c-.1-40.5-.5-73.7-.9-73.7-.5 0-.7 159.8-.6 355l.3 355H18.6c-17.9 0-18.4.1-17.9 2s1.4 2 18.5 2h17.9l-.1 29.5-.2 29.5-18.6.3-18.7.2 18.8.3 18.8.2-.3 26.9c-.2 14.8 0 26.4.4 25.8.4-.7.9-12.9 1-27.2l.2-26 .6 25.8c.3 14.2.2 28.8-.1 32.5-.5 5.8-.6 6.1-.7 1.9-.1-2.8-.7-4.7-1.4-4.7-1.1 0-10.8 5.9-10.8 6.6 0 1.1 2.1.1 5.5-2.6 2.1-1.7 4.2-3 4.7-3s.8 1.7.6 3.8l-.3 3.7-18.2.3c-15.4.2-18.3.5-18.3 1.7 0 1.6 1.7 1.7 25 1.9l11.5.1.5 25c.3 15.7.9 25 1.5 25s1.2-9.3 1.5-25l.5-25 173.3-.2c106.1-.2 173.2.1 173.2.7 0 .5 1.1.5 2.8-.1 4.1-1.4 308.4-.8 310.3.7 2 1.6 5.1 2.6 4.4 1.4-.3-.6-1.3-1-2.1-1s-1.4-.5-1.4-1c0-.7 12.4-1 35.5-.9 24.1 0 35.5.4 35.5 1.1s.4.7 1.3 0 33.6-1 106.2-.9l105 .2.5 25c.4 20 .6 22.8 1 14l.6-11 .4 11c.3 8.1.6 4.4 1-14l.5-25 17.3-.2c9.6-.1 17.6-.4 17.9-.7s-4.6-.5-10.8-.5c-21.7 0-24.2-.1-23.7-.7.4-.3 8.4-.5 17.9-.4 9.5 0 17.1-.2 16.8-.4-.3-.3-7.4-.6-15.9-.6-8.9-.1-16-.6-16.7-1.2-.9-.7-1.3-.7-1.3.1 0 .7-.4 1-.9.6-1.1-.6-1.6-119.8-.5-123.9.6-2.5.6-2.5 13.8-2.9l13.1-.3-13.8-.2-13.8-.2.3-317.8c.2-174.7.4-341.3.6-370.1l.3-52.3 7.1 10.3c7.1 10.4 15 24.9 18.8 34.7 2.8 7.4 6 13.5 6.7 12.8.3-.3.1-1.1-.5-1.8-.5-.7-2.9-5.8-5.2-11.3-2.2-5.5-6.3-14.1-8.9-19-5.1-9.7-16.6-26.5-18.1-26.5-.6 0-1.1 19.5-1.2 50.7-.4 103.2-.6 127.8-1.3 127.1-.4-.3-.6-41.9-.5-92.5V95.5l-5.7-7.3-5.7-7.2h-108c-59.3 0-107.6-.3-107.3-.7.7-.7 59.6-1.1 156.5-1.2 43.3-.1 54.2-.4 54.2-1.4 0-1.6-11-12.4-20.9-20.6l-7.3-6.1-15.7-.2-15.6-.2 13.3-.3c7.2-.2 13.2-.8 13.2-1.3s-1-1.6-2.2-2.5c-4.7-3.3-24.5-15.9-29.6-18.8-2.9-1.6-5.1-3.2-4.8-3.4 1-1 28.4 15.8 37 22.6l3.8 3.1 17.2.2 17.1.2-14.2.3c-11.4.3-14.3.6-14.3 1.7 0 .8 2.9 3.7 6.4 6.5 3.6 2.9 9.6 8.5 13.4 12.6l7 7.5H986l-.2-39.8c-.2-28.9-.3-33-.5-15L985 49h-21.4c-21.1 0-21.5 0-24.3-2.4-1.5-1.3-6.2-4.5-10.3-7.1s-10.4-6.7-14-8.9c-8-5.1-25.5-14.1-24.5-12.7.3.6 2.7 2.1 5.3 3.3 2.6 1.1 4.2 2.3 3.5 2.5s-2.2-.1-3.3-.7c-1.2-.6-2.4-.9-2.7-.7-.2.3 2.4 1.9 5.9 3.7s13.1 7.5 21.5 12.8l15.2 9.7-186.2.3c-102.4.1-186.8 0-187.6-.3-1.1-.4-1.3-2.7-.8-11.5.3-6 .2-11.2-.1-11.4-.4-.2-.7 5.5-.7 12.7v13.2l-48-.3c-26.4-.1-49.6-.4-51.5-.6-1.9-.1 19.4-.3 47.4-.4l50.8-.1-.1-12.3c-.1-6.7-.4-12.4-.7-12.7-.2-.2-.4 5-.4 11.7v12.1l-61.2-.2-61.3-.2L435 24c-.3-13.5-.7-21.1-1-17l-.4 7.5L433 7c-.4-5.2-.8.1-1.1 17m1.8.7c-.2 1.6-.4.3-.4-2.7s.2-4.3.4-2.8c.2 1.6.2 4 0 5.5m0 18.5c-.2 2.9-.3.6-.3-5.2s.1-8.1.3-5.3c.2 2.9.2 7.7 0 10.5m12.3 7.5c.3.3-2.3.3-5.7.1l-6.3-.3.3 68.5.2 68.5.5-67.5.5-67.5h112l.3 115.2.2 115.3-11.2.2-11.3.2 11.3.3 11.2.4.2 33.2c.1 18.3.4 31.4.7 29.2l.5-4 .6 4.5c.4 2.5.8-10.7.8-29.3l.2-33.7h2.7c3.6 0 2.5-.9-1.5-1.2-1.8-.1-3.2-.6-3.2-1.1s.6-.7 1.3-.4c.9.3 1.2-22.9 1.2-114.2V52.5h6v149c-.1 81.9.2 134.4.5 116.5s.9-33.1 1.3-33.8c.5-.6.4-1.2-.1-1.2-.7 0-.9-11.6-.8-31.3.2-17.1.4-69 .4-115.1.1-46.2.4-83.7.7-83.4s.6 13.2.6 28.6c0 17.6.3 28.3 1 28.7.5.4 7.4.6 15.2.6 7.8-.1 14.7.3 15.4.7s1.3 3.6 1.5 7.2l.3 6.5 19 .3 19 .2-.2-7.1c-.3-9.5-1.3-10.2-1.3-1v7.1l-17.7-.2-17.8-.3-.5-7-.5-7-15-.2c-8.2-.1-15.5-.5-16.2-.8-1.1-.3-1.3-3.5-1.1-13.7l.3-13.3 206.1-.2 206.2-.3 2.7 3.8c1.6 2 4.1 5.1 5.7 6.8l2.9 3.1-.3 92.4-.3 92.4h-6l.3-83.8.3-83.7H946l-.2-8.3-.1-8.2-.7 6c-.7 5.9-.7 5.9-1 1.5-.1-2.5-.1-5.2 0-6s-.1-1.2-.5-.9c-.3.4-.7 11.4-.8 24.5l-.2 23.9-11.7.3c-13.8.3-13.9.3-13.5-10.4.2-5.8-.1-6.9-1.5-7.2-1.5-.3-1.8.8-2 8.5l-.3 8.8h-16l-.3-17.8c-.2-14.8-.5-17.7-1.7-17.7s-1.5 2.1-1.5 12.5V135l-17.2-.2-17.3-.3v-22.7c-.1-12.5-.3-22.9-.6-23.2s-.5 10.1-.5 23.2l.1 23.7 18.3.3 18.2.2.2-7.2c.1-4.9.4-3.1.7 5.7.3 7.1.4 42.9.1 79.5l-.5 66.5-.5-52.5-.5-52.5-17.7-.3c-17-.2-17.7-.2-18.3 1.8-.3 1.1-.4 24.7-.1 52.5.4 33.4.3 50.5-.4 50.5-.6 0-1.1-28.1-1.2-81.8l-.3-81.7h-30l-.5 11c-.3 6-.3 43.2 0 82.5l.5 71.5h88l.5-66.3c.3-36.4.2-66.2-.2-66.2-.5 0-.8-.7-.8-1.5 0-1.5 1.5-2.1 3.5-1.4.6.2 6.4.6 13 1l12 .6-12.8-.1-12.7-.1-.1 2.5c-.4 10.8.1 130.2.6 131 .7 1.2 22.4 1.3 24.2.2.9-.5 1.2-17.1 1.4-65.7.3-57.1 1.2-112.2 1.7-104.3l.2 2.8h33.2l-.8 83.2c-.7 80.1-.6 83.2 1.1 84.5 1.6 1.1.5 1.3-8.1 1.3-171.3.1-222.5-.1-214.1-.7 4-.4 4.9-.8 5.8-2.9 3.1-8.3 20.6-71.7 33.4-120.9 3.2-12.1 6.1-22.4 6.5-22.8.4-.5 5.2.5 10.5 2.3 5.4 1.7 10.2 2.7 10.6 2.3.5-.5 1-6.5 1.1-13.3l.3-12.5 16.3-.3 16.2-.2-.2-12.8-.2-12.7-.3 12.2-.4 12.3h-15.8c-13.6 0-16 .2-16.5 1.6-.3.9-.6 6.7-.6 12.9 0 6.3-.3 11.6-.7 11.8-.5.3-5.2-.9-10.5-2.6-5.4-1.7-10.1-2.8-10.4-2.4-.3.3-2.3 7-4.4 14.9s-7.4 28-11.8 44.8c-9 33.9-22.8 82.4-24.2 85-.8 1.5-2.7 1.7-13.4 1.8-8.6.1-12.7-.3-13.4-1.1-.5-.7-1.5-4.6-2.2-8.7s-2.3-12.7-3.6-19c-2.7-12.8-18.3-93.1-21-108-2.8-15.5-.6-14.1-20.1-13.4-9.3.4-17 .9-17.3 1.1-.3.3-.7 5.3-1 11.1l-.5 10.7h-34l-.3-20.5c-.1-11.2-.6-20.8-1-21.2-.7-.7-.5 39.8.3 42 .4 1 4.5 1.2 18.2 1l17.8-.3.5-11 .5-11 16-.7c13.4-.7 16.2-.5 17.1.7.6.8 1.6 4.7 2.3 8.7 2.1 11.8 14.7 77.3 20 103.8 2.7 13.5 5.3 26.7 5.6 29.3 1 6.6 2.4 7.7 10.3 7.9 5.5.1 4.8.3-3.8.8-5.8.3-32.1.4-58.5.3-26.4-.2-63.7-.4-83-.6-19.2-.1-28.7-.3-21-.4 7.7-.2 14.3-.7 14.6-1.1.6-.6 1.5-162.3 1-167-.1-.9-3.8-1.2-15.1-1.2-8.2 0-15.1.1-15.2.2-.5.6-1.3 167.8-.8 167.8.3 0 .3 6.5.2 14.4-.4 13.3-.2 14.4 1.5 14.9 1 .3 43.4.4 94.3.4l92.5-.2.2-14.3c.2-14.3.6-17 2.3-14.2.5.8.5 1.7 0 2-.4.3 51.9.5 116.3.5h117.2l.3 12.1c.3 12.1.2 12.2-2.1 12.8-1.3.3-53.8.5-116.6.5l-114.1-.1-.2-12.1c-.1-13.4-.6-11.7-1 3.8l-.3 10-94.5.3c-51.9.1-94.7.5-95.2 1-.6.6-1.3 34.4-.6 36.7.1.5.5-7.3.8-17.5l.5-18.5 93.3-.3 93.2-.2.2 18.7.3 18.8.2-18c.2-9.9.6-18.7 1.1-19.5.4-.8.9 7.3 1.2 18l.6 19.5.2-18.8.2-18.7 116.3.2 116.2.3V782l-18.5-.2-18.5-.3-.3-73.7-.2-73.7 5.2-3.4c16.6-10.6 26.3-27.5 27.5-47.8.6-9.7-1.2-19.6-5.3-28.4-3-6.4-10.5-20.4-12.7-23.5-.9-1.4-1.7-3.2-1.7-4.2 0-.9-.9-2-2-2.3-2.1-.7-2.8-2.5-.9-2.5 2.7 0-2.1-44.7-6.6-61.5-5-18.3-16.3-43.3-27.8-61.5-6.9-10.8-17.6-25-18.9-25-.5 0 1.5 3 4.4 6.7 18.5 23.4 32.1 49.6 40.9 78.3 4 13.2 9.3 57 7.5 61.7-.5 1.2-2.8-.5-8.9-6.3-7.9-7.7-18.6-14.1-28.2-17l-3-.9-.6-35.5c-.6-38.1-1.4-45.2-6.5-58.6-2.6-7.1-8-16.2-12.2-20.7l-2.6-2.7 2.3-1.6c1.2-.9 3.4-2.7 4.9-4 2.5-2.2 2.6-2.5 1-3.8-1-.7-1.8-1.7-1.8-2.2s-2.7-3.3-6-6.2c-7.9-7-7.7-5.4.2 2l6.2 5.8-3.4 2.5c-1.8 1.4-3.7 3-4.1 3.7-.6.9-1.5.7-3.6-.9-13.8-11-26.3-16.9-43.2-20.4-9.4-2-12.4-2.1-174.1-2-90.5.1-167.9.3-172 .6-4.1.2-16.4.7-27.2 1l-19.7.7.6-10.4c.3-5.7 0-13.8-.6-18.2-1.4-9.9-7.1-27.1-11.7-35.3-1.8-3.4-3.4-6.3-3.4-6.5 0-.1 18.8-.2 41.8 0l41.8.3-.8-9.1c-2-25.7-13.8-62.4-26.5-82.8-2.5-4-4.3-7.6-4-7.9.9-.9 7.6 10.2 12.8 21.1 19.3 41 24.8 87.1 15.5 130.1-.8 3.8-1.7 7.7-2 8.5-1 3.4-1.7 7.5-1.1 6.8.7-.7 1.4-3.3 4.1-15.3 3.1-14 4.4-25.3 4.4-39.8V281l10.8-.2 10.7-.2-10.6-.3-10.6-.4-1.2-9.2c-2.3-17.4-8-38.1-16.4-60.2-5.3-13.7-24.8-43.6-34-51.7-1.9-1.7-1.7-2 5.5-10 9.1-10.1 17.8-21 17.8-22.1 0-.5-1.9 1.4-4.2 4.3-10.2 12.4-22.3 26-23.2 26-.5 0 0-1 1.1-2.3 3-3.4 16.3-18.9 20.7-24.2 2.1-2.5 3.6-4.8 3.3-5.1s-2.2 1.6-4.3 4.2c-2.2 2.6-6.8 8.1-10.4 12.3s-7.5 8.8-8.6 10.2l-2 2.6-2.9-3.9c-5.6-7.4-28.4-25.3-30.1-23.6-.3.3 3.2 2.9 7.8 5.8 10.6 6.8 24.7 20.8 24.3 24.4-.2 1.3-3.9 6.5-8.2 11.5l-7.9 9.2.9 8.7c1.1 12 0 36.8-2.3 50.9-2.2 13.2-8.8 36.9-12.2 44-.9 1.9-.3 3.9 4 12.5 2.8 5.7 6.4 14.3 7.8 19.3 2.5 8.1 2.7 10.6 2.8 25.3l.1 16.3 20.5-.6c11.3-.3 23.4-.8 27-1s80.8-.5 171.5-.6c162.7-.1 165.1 0 174.7 2 15.8 3.3 25.9 8.1 41.9 20.1 2.6 1.9 5 4.2 5.3 5s2.4 3.7 4.6 6.5c5.8 7.2 10.9 18.5 13.2 28.9 1.8 7.9 2.1 13.9 2.5 44.3.3 19.4.1 35.3-.3 35.3-.5 0-1-13.6-1.2-30.3-.4-39.1-1.9-50.7-8.8-65.6-8-17.2-24.6-31.6-44.4-38.4-15.5-5.2-20.7-5.7-66.6-5.7-23.2 0-42.5.3-42.7.7-.3.5 18.6.7 42 .5 35.7-.2 44 0 51.1 1.3 16 3 28.8 8.7 39 17.3l5.3 4.4-15.8 12.5c-35.2 27.7-43.5 34.4-66.2 53.2-13 10.8-27 22.3-31 25.6-4.1 3.3-11 9-15.3 12.8L752 490v-66.2c0-36.4-.2-65.9-.4-65.7-.3.3-.6 34.1-.7 75.3l-.1 74.8 9.1 9.1c24.9 25.2 40.8 56 45.1 87.6l1.3 9 9.5 5.6c5.3 3.1 10 5.4 10.6 5.2.7-.2.9-10.4.8-30.8-.3-32.4.4-40.7 4.8-53.4 4.8-13.8 16.7-28.7 28.7-35.8 10.4-6 20.3-8.9 32.8-9.4 11.5-.5 22.1.6 21.8 2.3-.1.5 1.2.9 2.9 1 1.6.1 6.9 2.1 11.6 4.5 6.9 3.4 10.7 6.3 18.2 13.6 5.2 5.1 9.8 9.3 10.2 9.3.5 0 .8.8.8 1.8 0 .9 1 3.3 2.3 5.2 5.5 8.3 13.8 25.5 15.8 32.7 2.6 9.5 2.2 22.2-1 32.4-3.8 12.1-13.4 24.3-24.9 31.6l-5.2 3.4v98.2c0 93.7 0 98.5-1.9 105.7-2.7 10.8-7.9 19.1-15.3 24.6-6 4.4-9.4 5.7-18.1 7-3.7.5-4.8 1.1-5.2 2.8-.3 1.1-1.4 14.2-2.5 29.1-1.1 14.8-2.4 30.8-2.8 35.5l-.7 8.5-15.9.3c-10.1.2-16.3-.1-17.1-.8-.7-.6-1.5-2.5-1.8-4.3-2.3-14.1-13-69.3-13.5-69.9-.4-.3-9.3-.8-19.9-.9l-19.2-.4-9 6.9c-35.4 26.8-71.7 40-110.1 40-12 .1-16-.3-23-2.2-20.8-5.6-39.3-18.1-46-31.2-2.5-5-5.4-15-5.2-18 .8-9 6.9-22.9 9.4-21.4.5.3.2 1.4-.7 2.4-2 2.2-5.1 10.2-6 15.7-.4 2.7-.1 6.3.9 10.2 5 19.7 19.9 32.3 47.1 39.8 21.7 6.1 54.6 2.4 85-9.4 38.1-14.8 77.4-47.7 102.6-86.1 11.2-17.1 21.8-44.1 25.5-65.2 2.9-16 2.4-41.2-.9-54.2-5.9-22.6-17.5-40.5-35.3-54.4-9.9-7.8-36.1-23.7-37.8-23.1-.9.3-1.6 5.4-2.4 15-.8 11-1.7 16.3-3.7 21.9-4.3 12.2-4.4 11.6.9 12.9 5.8 1.4 15 7.3 19.4 12.3 4.1 4.7 9.8 16 11.7 23.3 3.5 13.3 1.2 38-5.2 55.6-1.3 3.8-2.2 7.1-1.9 7.4 2.2 2.2 35.4-27.2 46.4-41.2 3-3.9 6.2-7.6 7-8.2.9-.7 1.3-1.5 1-1.8-.7-.8-2.8 1.3-9.2 9.4-5.5 6.8-19.7 21-27.7 27.7-12.8 10.7-16.2 13.4-16.5 13.1-.2-.2.6-2.8 1.7-5.8 1.2-3 3.2-10.1 4.5-15.9 2.9-12.8 3.3-31.1.9-40.5-2.1-8.2-7.5-19.3-11.6-24-4.5-5.1-14-11.2-18.9-12-2.2-.4-4.2-1-4.4-1.4-.3-.4.8-4.6 2.5-9.3 2.3-6.6 3.2-11.7 4-22.4.6-7.7 1.4-14.2 1.8-14.5.9-1 27.1 15.1 36.5 22.5 18.6 14.5 31 34.1 36.2 57.1 2.4 11.1 2.5 37.4.1 50.5-6.8 36.6-25.9 71.3-55.6 101-40.1 40-85.8 61.2-132.6 61.4-12.3.1-15.2-.2-23.7-2.6-22.2-6.2-37.3-17.5-44.3-32.9-8.3-18.5 2.2-39 20-39 5.6 0 11.7 2.4 14.6 5.7.9 1.1 2.7 4 4.2 6.5 3.3 5.7 8.6 10.5 14.6 13.1 6.8 2.9 22.3 3.5 33.1 1.3 10-2 26.7-7.7 32.8-11.1 2.5-1.4 4.6-2.3 4.9-2 .2.2 1.4-.5 2.6-1.6s5.6-4.1 9.7-6.8c14.4-9.1 29.2-22.8 42.5-39.2l4-4.9 27.5-.1c15.1 0 25.9-.4 24-.8-3.9-.8-3.8-.9.5-1.6 1.6-.3 3.1-.6 3.2-.8.4-.3-49.1.5-50.7.9-.8.2 8.5.3 20.8.2 12.2-.1 22.2.1 22.2.5 0 .5-10.3.8-23 .8-12.6 0-23-.3-23-.6s2-3.3 4.3-6.7c2.4-3.4 6-9.2 8.1-12.9 2.5-4.6 4.7-7.3 6.9-8.4 4.8-2.5 21-15.7 31.1-25.4 7.3-7 13.7-14.2 21.9-24.8.5-.7.6-1.2 0-1.2-.5 0-3.3 3.1-6.1 6.9-9.5 12.4-36.3 36.9-46.9 42.9-3.3 1.8-5.2 4-8 9-2 3.7-5.1 8.8-7 11.5-1.8 2.6-3.3 5.1-3.3 5.6s-.3 1.1-.7 1.3c-.5.1-2.8 2.8-5.3 5.8-9.8 12-19.5 22.1-28.6 29.6-8.3 6.7-12.7 10-23.9 17.2-5 3.2-20.8 10.2-28 12.4-12.5 4-20.8 5.1-31 4.5-14.3-.8-22.6-5.5-28.6-16.3-3.5-6.1-5.2-7.8-10.3-9.9-7.2-3-18.6-1.5-23.7 3.1-1 .9-2 1.1-2.3.6s1.3-2.2 3.7-3.8c3.5-2.3 5.4-2.8 12.2-3.1 7.3-.3 8.5-.1 13 2.4 3.8 2.2 5.7 4.2 8.3 8.8 4.2 7.6 6.1 9.6 12 12.8 20 10.8 60.1-.6 93.5-26.7 9.4-7.3 28.8-27 31.2-31.6l1.6-3-16.8.1c-22.7.2-35.7 0-35.1-.6.2-.3 7.2-.6 15.5-.7 12.1-.3 15.5-.6 16.9-1.9 2.9-2.4 30.1-17.3 33.5-18.3 3.3-.9 11-20.6 14.3-36.8.9-4.3 1.6-11.1 1.6-15.3V717l-31.2-.1H759c-10.1-.1-13.9.3-19.5 2.1-5.9 1.8-10.8 2.3-30.5 3-12.9.5-28.2 1.4-34 1.9-18.2 1.9-45 7.1-65 12.6-5.8 1.6-13.4 2.8-19.5 3.2-8.6.4-10.7.2-15.5-1.6-6.4-2.5-8.9-4.4-12.4-9.6-1.7-2.5-2.6-5.1-2.6-7.9 0-7.2.2-7.1-17.6-5.2-35.2 3.8-37.9 3.9-43.1 2.4-3.2-.9-6.1-1.1-8.6-.6-2.3.5-4.6.4-5.5-.2-1.4-.7-1-.9 1.6-1 4.4 0 5-2.2 2.1-7.3-2-3.5-2.4-5.5-2.3-12 .1-7.1-.1-7.8-2-8.2-2.9-.6-42.9-3.7-44.1-3.5-3 .7-3.5-.1-2.9-4.3.4-2.3 1.3-5.9 2-8 1.2-3.3 1.2-3.9-.3-4.4-1.8-.7-117.7 37.5-125.4 41.3-6 3-11.9 9.7-14.3 16.3-1.5 4.3-1.8 7.1-1.4 14.9.7 12 2.4 19.2 4.7 19.2.9 0 10.6-3.9 21.6-8.6s25.2-10.6 31.5-13.1c6.3-2.4 12.9-5 14.5-5.7 1.7-.7 6.8-2.8 11.5-4.6s9.9-3.8 11.5-4.5c5.6-2.4 21.9-8.2 36.7-13.1 8.1-2.7 15-5.5 15.2-6.1.3-.7-.5-2.5-1.7-3.9l-2.3-2.7-15 5.1c-20.1 6.7-59.7 21.1-75.1 27.3-6.9 2.7-12.8 4.7-13.1 4.4s-1.2.1-2.1.9-7.9 4-15.6 7.1c-14 5.7-21.1 9.1-17 8.1 1.8-.4 12.5-4.9 23.2-9.7 2.4-1 4.6-1.9 5-1.9.5-.1 2.6-.9 4.8-2s4.7-1.9 5.5-2c.9 0 2-.4 2.5-.8.9-.8 6.3-3 25-10 4.4-1.7 10-3.8 12.5-4.7 2.5-1 8.1-3 12.5-4.5 4.4-1.6 13.8-4.9 20.9-7.4 14.2-5.1 16.2-5.4 17-2.8.3 1 .4.8.3-.7-.2-1.9.5-2.6 3.7-3.7 3.7-1.3 4.1-1.3 6.3.8 1.3 1.2 2 2.5 1.6 2.9-.5.5-10 3.9-21.3 7.7-11.3 3.9-25.9 9.1-32.5 11.7-13.2 5.1-12.5 4.8-24.7 9.9-4.7 2-9 3.6-9.4 3.6s-4.3 1.5-8.8 3.4-12.6 5.4-18.1 7.7-11.8 4.9-14 5.9c-6.9 3.1-11.7 5-12.5 5-1.5 0-3.1-8-3.7-18.1-.5-10.1-.4-10.9 2.1-16.1 3-6.2 8.2-11.5 14.1-14.6 4.4-2.3 120.3-41.2 122.8-41.2 1.4 0 1.4.5.2 4.3-.8 2.3-1.5 5.1-1.7 6.1-.2 1.5-7.6 4.3-39.3 15.1-21.4 7.3-43.7 14.8-49.3 16.9-5.7 2-10.6 3.6-10.7 3.6-.2 0-.6-2.6-.8-5.8l-.3-5.7-.4 6.5-.3 6.5-.7-6-.7-6-.1 5.7c-.1 3.1-.6 5.9-1.1 6.2-1.2.8-19.1 7.2-25.3 9.2-2.6.8-5 1.9-5.3 2.4-.4.7 6.8-1.7 25.9-8.6 4.6-1.7 4.6-1.7 4.6-.4 0 .5-.5 1-1.2 1-1.7 0-29.8 10.3-29.4 10.8.2.2 6.8-2 14.6-4.8 7.7-2.9 14.8-4.9 15.6-4.6 1.2.4 1.4 2 1.2 6.7l-.3 6.1-6.5 2.8c-3.6 1.6-10.9 4.7-16.3 7.1-5.4 2.3-9.6 4.3-9.4 4.5s7.7-2.7 16.8-6.5l16.4-6.9v-7.6c0-4.2.3-7.6.8-7.6.4 0 .7 2.9.7 6.5 0 5.7.2 6.5 1.9 6.5 1 0 8.3-2.5 16.1-5.5 20.9-8.2 49-18.4 73.3-26.6 11.6-3.9 12.8-4.5 12.2-6.3-1.5-5.2-1.8-8.9-.7-8.2.7.4 1.2 1.4 1.2 2.3 0 3 3.3 8.4 6.9 11.2 3.9 3 9.1 4.8 9.1 3.1 0-.5-1.1-1-2.4-1-4.8 0-15-12.9-12.3-15.7.3-.2 10.4.4 22.4 1.4l21.8 1.8v7.5c0 5.7.5 8.6 2.2 11.9 1.2 2.4 1.9 4.9 1.6 5.4-.4.6-8.3.8-21.7.5-11.6-.3-24.7-.2-29.1.2l-8 .8 9.8-.4c5.4-.2 17.3 0 26.5.4l16.7.7-26.5.5c-14.6.3-28.7.2-31.4-.2-4-.6-6.4-.2-12.5 1.9-8.7 2.9-32.2 11.7-36.6 13.7-1.6.7-5.5 2.3-8.5 3.4-9.4 3.6-49.3 19.9-55.5 22.7-3.3 1.5-7.9 3.6-10.2 4.7-3 1.4-4.7 1.7-6 .9-1-.5-5.2-2.1-9.3-3.5-4.1-1.5-10.8-4-15-5.6-4.1-1.6-14.7-5.7-23.5-8.9-8.8-3.3-26.8-10.1-40-15.2-22.9-8.7-48.1-17.9-49.1-17.9-.3 0-.2.4.1 1 1.1 1.7-.3 1.1-2.8-1.3-1.3-1.2-5.2-3.8-8.6-5.7-11.1-6.2-16.3-16.2-16.5-32-.1-7.8.3-10.3 2.1-14.3 3.6-7.8 10.3-12.8 21.2-15.7l4.4-1.2-.6-31.6c-.5-30.4-.7-32.1-3.2-40.7-1.4-4.9-4-11.7-5.8-15-4.5-8.5-15.9-19.7-23.8-23.5-12.8-5.9-29-7.6-41.2-4.1C74 532 69 535 60.9 543c-6.2 6.2-8.1 8.9-10.7 15.2-4.6 11-5.5 16.5-5 30.2.3 10.3.8 12.9 3 17.6 3.4 7.4 10.8 16.1 18.2 21.5 3.3 2.4 7.3 5.3 8.7 6.4l2.7 2.1-.5 96.3c-.6 101.5-.4 106.2 3.9 115.3 4.4 9.6 14.1 17.4 23.9 19.3 3.4.7 15.4 1.1 31 1 14-.1 28.3-.1 31.9.1 6.3.2 6.4.2 2.8 1.2-2.5.6-3.8 1.6-3.8 2.6s-3 14.7-6.6 30.7c-3.6 15.9-7.1 31.8-7.9 35.2-.7 3.4-1.6 6.6-1.9 7.2-.6 1-29.4.7-30.4-.4-.6-.5-2.3-13.1-4.2-30-.6-6.1-2.1-18.1-3.1-26.8-1.1-8.7-1.7-16.2-1.4-16.7.6-.9-.9-1.5-7-2.5-8.8-1.5-19.4-10.1-24.7-20-4.7-9-4.9-13-4.7-116.3 0-53-.1-96.4-.3-96.5-11.3-6.6-23.6-19.1-28.2-28.7-2.8-5.9-3.1-7.5-3.4-18.5-.4-14.3 1.1-22.3 6.5-33.5 4.2-8.8 12.8-17.9 21.5-22.9 3.9-2.2 5.5-3.7 5.1-4.6-.4-1.2.6-1.5 4.8-1.5 3 0 7.2-.5 9.4-1 7.8-1.9 74.5-9 84.8-9 1.3 0 2.9-2.4 5.6-8.4 4.5-9.7 11.1-19.9 19.1-29.8 5.5-6.7 5.8-7.4 6.5-14.2 1-10.6 2.8-21.7 7.4-45.1 5-24.9 4.9-24.6 6.3-22.1.6 1.1.7 2.1.1 2.5-.5.3-1.7 4.9-2.6 10.1s-2.1 12-2.7 15c-1.5 7.9-5.8 32.9-6.3 37.2-.4 2.3-.1 3.8.7 4.1.6.3 4.1-1.8 7.6-4.5 10.3-7.8 24.6-14.3 37-16.7 12.7-2.4 24-3.4 24-2.1 0 .6-2.6 1-5.7 1-13.1 0-36.8 7.2-47.3 14.3-8.2 5.5-16.2 12.7-22.1 19.7-11.3 13.5-17 23.3-23.4 40-2 5.2-4.5 11.3-5.5 13.5-7.2 15.1-12.4 60.3-8.9 76.7 4.4 20.3 16.5 30.1 41.1 33.3 30.9 3.9 61.4 9.3 74.6 13.1 2.9.9 5.6 1.4 6.1 1.2s-.8-4.4-2.9-9.3c-4.7-10.9-7.3-20.8-10-37.3-1.1-6.9-2.3-12.8-2.5-13.1-.7-.7-.6.5 1.4 12.9 3 17.7 6.4 30.5 10.8 39.8 1.4 2.9 2.3 5.5 2.1 5.8-.3.2-2.7-.3-5.4-1.1-12.4-3.6-43.5-9.1-74.3-13-22.9-3-36-13.5-40-32.3-3.5-16.6 1.9-63.1 8.9-76.1 1-2 2.6-5.7 3.4-8.2 5.8-18.1 18.4-38.5 32.3-52.3 5.6-5.6 22.3-17.6 24.5-17.6 1.5 0 .5 2-4.4 8.9-4 5.7-7.7 8.9-6.5 5.7.6-1.5-1.1-3.6-2.7-3.6-.6 0-.3.7.7 1.4 1.6 1.2 1.4 1.7-2 6.1-2.1 2.7-7.8 9.1-12.8 14.2-4.9 5.2-9.2 10-9.4 10.6-.6 2.1 10.8-9.5 17.7-17.8 8.7-10.6 8.5-10.4 7.7-7.5l-.6 2.5 2-2.5c1.1-1.4 2.1-2 2.1-1.4 0 1 5.1 3.2 21 9 3.6 1.3 7.2 2.4 8 2.3.8 0-1.7-1.1-5.5-2.3-7-2.3-13.9-5.5-12-5.6.6 0 3.5.9 6.5 2.1 6.7 2.6 26.8 7.9 29.5 7.9 1.1-.1-4-1.6-11.3-3.5-7.4-1.9-15.5-4.4-18-5.5-2.7-1.2-5.7-1.9-7-1.5-1.3.3-4.2-.3-6.9-1.5-5.4-2.4-5.4-3.8 0-1.5 5.6 2.3 6.8 1.7 1.4-.7-2.7-1.2-4.4-2.4-4-2.7 1.8-1.2 8.3-10.4 8.3-11.7 0-3.5 22.6-10.4 34.2-10.4 2.3 0 6.8-.4 10-.9 4.1-.7 7.2-.6 11.5.4 9.1 2.1 20.8 3.4 32.6 3.6l10.7.2v9.9c0 5.4.2 9.8.5 9.8s4.4-1.6 9.2-3.6c4.9-2 11.7-4.5 15.3-5.5 7.5-2.2 25.4-4.8 34.3-5.1 6.1-.2 6.1-.2 1.2-.6-12-.9-34.1 3.4-50 9.7l-9.5 3.9v-9.4c0-5.2.2-9.4.5-9.4.2 0 5.4-.7 11.5-1.5 12.2-1.7 28-6.1 37.4-10.4l6.3-2.8 5.1 10.1c5.5 10.7 17.8 28.4 29.5 42.5 4.1 4.9 6.6 8.6 5.9 8.9-.8.2-1.2 2.7-1.2 6.7v6.3l8.7 4.8c4.8 2.6 8.3 4.9 7.7 5.1s-5.1-1.9-10-4.8c-14.4-8.3-26.1-11.6-44.9-12.6-16.7-.9-38.2 3.6-53 10.9l-4.7 2.3.1 52.9.1 52.8-3.7-3.2c-5-4.4-22.1-12.2-46.8-21.2-1.6-.6-3.4-1.4-3.8-1.8-1.2-1 5.5-20.5 10.7-31.6 5.9-12.3 10.2-18.9 18.3-27.4 8.3-8.9 21.1-17.9 22.4-15.9.5.8.9 23 .9 49.3 0 26.4.2 48.1.5 48.4s.5-27.8.4-62.4c0-34.6 0-63.4.1-63.9.1-.6.2-4.5.1-8.8-.1-6-.5-7.9-1.6-8.4-2-.7-16.7 8-21.7 12.9-2 2.1-4.9 4-6.3 4.4-1.4.3-2.5 1.1-2.5 1.6 0 .6-4.7 5.9-10.3 11.8-8.8 9.1-14.5 16.2-19.1 23.8-2.1 3.5 1.6-.3 4.6-4.6 4.8-7.2 12.3-15.9 20.7-24.2l7.6-7.4 13 .3c7.1.1 13.3.5 13.7.8.5.2.8 4.9.8 10.3v10l-3.9 2c-16.2 8.2-31.7 24.9-39.6 42.6-4.2 9.4-7.6 18.4-10.9 28.8-2.7 8.3-.6 4.2 2.9-5.6 11.8-33.8 26.2-53.3 47.3-64.2 5.8-3 3.3-.2-3 3.4-7.7 4.3-18.6 14.5-24.3 22.5-8 11.3-13.1 22.1-19.6 41.5-2.4 7.5-3 8.5-5.1 8.3-1.8-.1-20-6.1-29.2-9.6-1.5-.6-1.2-1.4 2.2-6.4 2.2-3.2 4.7-7.3 5.7-9.2l1.7-3.5 1.6 3c.9 1.6 3.3 7.2 5.3 12.4 2.1 5.2 3.8 9 3.8 8.4.1-1.5-7.8-21.6-9.1-23.1-.6-.8-.8-1.6-.5-1.9 1-1 3.7 4.1 7.8 15.2 4 10.6 5.9 14.5 4.5 9.4-1.6-5.9-9-23.6-10.2-24.6-1.8-1.5-1.9-1.3 1.6-8.7 6-12.9 8.7-23.4 9.3-35.2l.6-11-1.4 12c-1.5 14.1-2.2 16.7-8.1 30.2-2.4 5.6-4.4 10.5-4.4 10.8s-.8 1.8-1.8 3.3c-6.6 9.7-11.3 17.5-11 18.4.2.5 6.2 3 13.3 5.4 30 10.4 48.8 17.7 60.5 23.5 8.2 4.1 11.1 6.4 20.7 15.9 8.7 8.5 11.8 11 13.9 11 1.5 0 8.4 1.5 15.3 3.4s20.5 5.5 30.1 8.1c17.3 4.6 39.8 11.3 45.4 13.4l2.9 1.2-2.2 2.3c-2.8 2.9-6.1 11.6-6.1 15.9v3.2l6.8.2c3.7.1 14.6.9 24.2 1.7l17.5 1.5 1.9-2.7c10.2-14.2 30.9-24 55.4-26.2l10.3-.9 6.6-5.8c8.3-7.2 17.5-16.1 14.8-14.2-1.1.7-3.8 2.9-6.1 4.9-2.2 1.9-6.9 5.9-10.3 8.8l-6.2 5.4-9.7.9c-25 2.2-45.3 11.7-55.8 26l-1.9 2.7-16.5-1.4c-30.8-2.4-30-2.3-30-4.9 0-3.7 2.9-10.8 5.6-13.7 1.5-1.4 2.4-3.2 2.2-3.8-.6-1.8-20.5-8.1-54.3-17-6.6-1.8-17.7-4.7-24.6-6.6s-13.5-3.4-14.7-3.4c-3.5 0-3.4-1.4.6-8.7 8.1-14.6 17-24.7 31.2-35.2 12.5-9.3 40-22.5 42.2-20.3.4.4.9 19.2 1.1 41.7l.2 41 .2-41c.2-23.5-.1-41.6-.6-42.4-.8-1.3-2.3-1-9.8 1.8-13.4 5-26.1 12.1-37 20.5-13.7 10.6-22.6 21.1-28.9 34.3-1.3 2.9-3 5.3-3.7 5.3-.6 0-4-2.8-7.4-6.2l-6.3-6.2V513l6.8-3c8.2-3.8 21.1-7.5 31.5-9.1 11.7-1.8 32.6-.3 42.7 3.1 1.4.4 4.6 1.5 7.3 2.5l4.7 1.7v56.9l-4.2 1.9c-2.4 1.1-5 2-5.8 2-2.9 0-28.5 13.5-35 18.4-14.4 10.9-25.2 22.9-31.5 35.3-4.7 9.2-4.4 10.6.3 1.8 2.1-3.9 4.9-8.6 6.3-10.6 11.8-16.9 34-33.4 57.3-42.5 5-1.9 10.7-4.1 12.6-4.9 8.6-3.4 42.5-6.6 67-6.3l11.5.1-12 .8c-6.6.4-19.9 1.3-29.5 1.8-9.6.6-21.3 1.8-26 2.8l-8.5 1.8-.3 29.4c-.2 25.6 0 29.5 1.3 30.5 1.4 1 1.4 1.5 0 4.8-1 2.6-1.4 6.6-1.3 13l.2 9.3.6-10c.3-5.5 1.2-11.4 2-13 4.3-9.3 16.2-27.7 21.4-33.2 7.2-7.8 21-18.3 29.1-22.2 7.1-3.5 27.3-10.1 31.2-10.2 1.6-.1 3.9-.5 5.3-.9q2.4-.9-3-.3c-5.8.6-26.4 6.7-34.2 10.2-6.5 3-20.1 13.2-27.8 21-5.8 5.8-16.7 21.8-20.1 29.3-1 2.3-1.4 2.5-2.5 1.3-1.1-1.1-1.4-7-1.4-29.5v-28l2.3-.9c6-2.3 23.7-4.1 48.2-5.1 14.9-.6 27.6-1.3 28.3-1.5.7-.3 1-.9.7-1.5-1.4-2.2-52.5-.4-68.8 2.5-4.5.8-8.8 1.5-9.4 1.5-1 0-1.3-6.1-1.5-26.8-.1-15.1-.4-24.1-.8-20.7l-.7 6-.1-6.8c-.1-3.8.1-6.6.6-6.4.4.2 5 3 10.4 6.1 5.3 3.1 10.2 5.6 11 5.6.7-.1.1-.8-1.4-1.6-3.1-1.6-3.8-3-1-2 3.2 1.1-3.1-3.3-10.5-7.4l-7.3-4.1v-5.4c0-2.9.4-5.6.9-5.9.4-.3 4.6 4.3 9.2 10.1 11.9 15.1 26.8 29.9 37.1 36.7 5.8 3.8 17.1 9.3 34.5 16.7 24.1 10.4 47 21.2 51.7 24.5 1.8 1.2 2 2.3 1.8 8.2-.5 11.7 1.4 21.4 6.4 33.3 5.5 13.1 10.2 20.6 17.8 28.3 3.1 3.2 5.5 6 5.3 6.3-.3.2-4.2 0-8.8-.6s-12.4-1.3-17.4-1.6c-4.9-.2-9.1-.9-9.3-1.5-.5-1.4-1.9-1.2-2.5.3-.3.8 0 1.4.6 1.4 11.2.7 21.9 1.6 29.1 2.4 11.6 1.4 12.2.5 4.6-7.1-7.7-7.7-12.7-15.3-18.3-28.1-5.2-11.7-7.1-21.8-6.5-34.3l.3-7-11.5-6c-6.3-3.3-23.8-11.3-38.9-17.8-15-6.5-30-13.4-33.2-15.4-8.5-5.1-20-14.4-19.3-15.5.3-.5 2.3.5 4.3 2.4 5.1 4.6 14.6 11 21.7 14.6 7.9 3.9 24.8 11.1 26.3 11.1.7 0 6.5-3.4 12.9-7.7 25.2-16.5 45.9-26.1 65.7-30.2l10-2.1 5.6-6c6.6-7 8.8-8 3.5-1.5-2.1 2.5-3.3 4.5-2.8 4.5s2.2-1.6 3.6-3.5c1.5-1.9 3-3.5 3.4-3.5s2 1.8 3.5 4l2.8 4-5.3.1c-2.9.1-6.4 0-7.8-.1s-2.2.1-1.9.5c.4.3 4.3.7 8.7.8 6.7.2 7.9 0 7.4-1.3-.7-2.1-5.3-8.4-6.9-9.3-.7-.5-1.1-1.3-.8-1.8.4-.5 3.9 2.6 8 6.9 8 8.5 17 13.9 28 16.7 7.6 1.9 10.5 1.9 17.9-.2 20.8-5.8 24.6-33.1 7.1-50.6-4.6-4.6-7.5-6.1-13.7-7.2-2.1-.3-3.8-1-3.8-1.5s.7-.6 1.7-.3c1 .4 1.4.2.9-.5-.7-1.2-13.7-5.3-23.1-7.3-3.3-.7-12.1-1.3-19.5-1.3-15.7 0-26.2 2.2-46.5 9.7-13.7 5.1-37.3 15.3-39.5 17.2-2.7 2.2-7.1 2.7-8.9 1.1-1-.9-5.5-2.5-10.2-3.7-12.1-3-46-12.6-92.9-26.4-6.3-1.9-13.4-3.8-15.7-4.3l-4.2-1 2.6 4.2c6.7 10.7 39.6 52.4 51.3 64.9 3.9 4.2 6.6 7.8 6.1 8.1-1.1.7-14.6-14.2-24.7-27.2-3.8-4.8-9.8-12.3-13.4-16.6-12.3-14.9-22.9-30.1-28.6-41.1-3.1-6.1-5.8-11.1-5.9-11.3-.2-.2-4 1.2-8.4 3.2-19.4 8.5-41.9 12.5-65.1 11.5-8-.4-18.8-1.6-24-2.7s-11.2-1.7-13.2-1.5c-3 .4-3.8.2-3.8-1.1 0-.9-1.2-2.1-2.7-2.7-12.4-4.7-28.3-14.4-37.5-22.8-3.1-2.8-6.1-5.1-6.8-5.1-1.6 0-10.2 5.1-9.6 5.8.3.3 2.4-.7 4.6-2.2 2.2-1.4 4.2-2.6 4.6-2.6.3 0 3.2 2.3 6.3 5.2 3.1 2.8 8 6.7 10.8 8.6l5.2 3.4-5.4 7.1c-3 3.9-5.5 7.5-5.5 8.1.1 1.2.6.6 6.9-7.9 2.4-3.3 4.6-6.2 4.8-6.4.1-.2.5-.2.8.1s-1.7 3.5-4.5 7.2-4.8 7.2-4.5 7.7c.4.5-.4.9-1.6.9-3.3 0-21.7 9.3-28.4 14.4-3.3 2.6-6.2 4.6-6.6 4.6-.8 0 2.1-19.5 6.1-40 .6-3 1.8-9.3 2.6-14 2.1-12.2 1.9-12.1 6.4-7 4 4.6 4.7 6 3.1 6-1.5 0-8.3 4.2-7.7 4.7.6.7 9.6-4.7 9.6-5.8 0-.5-2.8-4.4-6.3-8.7-3.5-4.2-7.8-10.3-9.6-13.5-3.8-6.6-3.8-6.6-19.1-4.2-20.3 3.3-41.7 11.4-57.8 21.8-8.4 5.5-29.2 23.5-34.5 30-4.9 6.1-4 6.1 1.5 0 7-7.6 26.9-24.6 34.4-29.4 16.9-10.9 35.9-18 56.4-21.4 14.8-2.3 14.2-2.5 18.8 5.3 3.8 6.4 4 7 3.1 11.2-5.9 27.2-9 44.3-10.9 60.2l-1.3 10.6-5.7 7c-9.4 11.5-19.9 28.7-20 32.7 0 .5-.8 2-1.8 3.2-1.5 2-3.1 2.3-16.2 3.3-17.4 1.2-64.9 6.6-70.4 7.9-2.1.5-13.9.7-26.5.4-12.4-.3-22.3-.3-22 .1.4.4 7.9.7 16.8.7 14.7-.1 16.1 0 16.1 1.6 0 1.1-2 2.9-5.3 4.7-7.6 4.3-16.8 13.9-20.5 21.6-5.5 11.1-7.5 21.3-7 35.4.4 10.3.8 13.1 3.2 18.7 3.2 7.9 13.4 19.5 22.3 25.5 7.4 4.9 7.5 5.1 6.9 9.9-.3 2.2-.5 6.9-.4 10.5 0 3.6.1 7.2 0 8 0 .8 0 39.1-.1 85-.2 93.4 0 95.5 6.1 105.7 5.8 9.7 15.1 16.4 25 17.9 2.2.4 4.2 1.2 4.4 1.8.5 1.4 4.3 31 4 31.3-.1.2-16.3.3-36 .4-19.6.1-35.5.4-35.2.7.3.2 16.5.4 36.1.3 23.4-.1 35.5.2 35.5.9 0 .6-12.5 1.1-36.2 1.2l-36.3.3 36.3.2c34.3.3 36.2.4 36.2 2.2 0 1-1.2 2.3-2.6 3-5.2 2.3-69.7 45.2-69 45.8.2.3 10.4-6.2 22.5-14.4 12.2-8.1 22.9-15.3 23.9-15.8 1-.6 6.8-4.3 12.9-8.2 6.1-4 11.6-7.3 12.1-7.3.6 0 1.3 3 1.7 6.8 1 10.1 3.3 26.4 3.8 26.8.2.3 7.5.6 16.3.7l15.8.2.8-3c.4-1.7 2.4-10.1 4.3-18.8 2-8.7 3.8-16.4 4.1-17 .3-.9 5.8-1.2 19.7-1.1h19.2l-19-.5c-18.6-.6-19-.6-18.9-2.7.2-4.5 6.8-31.9 7.8-32.7 1.4-.9 27.7 0 28.8 1.1.4.4.8 7.7.8 16.3.1 8.6.6 16.2 1 16.9 1 1.6 9.1 1.8 80.7 1.9l52.3.1.3 31.2.2 31.3.3-31.8.2-31.7h-53c-34.4 0-53-.3-53-1 0-.6 17.5-1 49.8-1 27.3.1 51.2.1 53 0h3.2l-.2-16.3-.2-16.2-.3 15.8-.4 15.7h-2.7c-11.3.2-102.6 0-102.7-.2-.3-.6 4-30.7 4.5-31.1.3-.3 23.5-.8 51.5-1.1 43.5-.5 51-.8 50.7-2-.2-1.3 19-1.5 142-1.5 82.6 0 141.5.4 140.3.9-1.1.5-63.6.9-141.2.9-97.3.1-139.3.4-139.3 1.2 0 .5.4.8.9.5s64-.6 141.2-.6l140.4-.1 2.1 6.5c2.3 7.2 3.9 9.9 9.2 15.8 14.4 16 42.1 25.9 68.2 24.5 18-1 47.5-7.3 56.9-12.1 1.8-1 3.9-1.5 4.7-1.2s1.4.2 1.4-.3c0-.4 4.2-2.8 9.3-5.4 11.3-5.7 21.9-12.3 33.7-21.3l9-6.8 18.3.3c10 .1 18.5.6 18.9.9.6.6 10 49.4 13.5 69.7 1 5.6.5 5.5 28.2 5.3 14.1-.1 21.8-.4 17.2-.6l-8.4-.3.6-8.7c1.6-23.6 4.8-63.8 5.2-64.8.2-.7 3.3-1.7 6.9-2.3 8.8-1.5 11.1-2.5 17.3-7.2 6.6-5 11.5-13.1 14.2-24 1.8-7.1 2.1-11.3 2.1-29.3 0-11.6.3-22.1.6-23.4.6-2.1 1.1-2.2 8.8-2l8.1.2-7 .3c-3.8.2-7.3.7-7.7 1.1s7 .5 16.5.2c16.1-.4 16.6-.5 7.7-1l-9.5-.6 9.7-.2 9.7-.2.6 3.2c.3 1.8.5 15.2.3 29.8l-.3 26.5-11.2.3c-6.2.1-11.3 0-11.3-.4 0-.3 1.7-2.7 3.8-5.3 5-6.1 10.2-13.9 10.2-15.4 0-.7-.9.2-1.9 1.9s-4.7 6.9-8.1 11.4c-4.3 5.9-5.7 8.5-4.9 9.1 1.9 1.2-7.5 2.2-12.8 1.4-2.7-.4-4.4-.3-4 .2.5.4 9.7.8 20.5.8h19.7l.2 57.2c.2 31.5 0 57.3-.3 57.3s-4.6-2.8-9.5-6.2-9.1-5.9-9.4-5.6 1.1 1.5 3.1 2.7 3.4 2.4 3.1 2.8c-.3.3-3.9-1.7-7.9-4.4-4-2.8-9.1-6-11.3-7.2-2.2-1.1-5-2.8-6.2-3.7-1.3-.9-2.3-1.2-2.3-.7s1 1.5 2.3 2.1c1.2.7 3.1 1.8 4.1 2.4 1.1.7 4.4 2.9 7.4 4.8 7 4.5 11.6 7.6 18.6 12.4 3.1 2.1 5.9 3.6 6.2 3.3s-.5-1.1-1.8-1.8c-3.5-1.8-8.9-6.1-8.4-6.6.7-.7 11 6.8 11.8 8.5.4 1 .7 2.9.7 4.5l.1 2.7H867l-118-.1-.2-31.2-.3-31.2-.2 31.2-.3 31.3-45.4-.1h-45.4l-5.6-9.5c-3.1-5.2-5.6-9.7-5.6-10s2.1.7 4.8 2.2c5.2 2.9 9.2 4.6 9.2 3.9 0-.3-3.5-2.3-7.7-4.4-4.3-2.2-7.4-4-6.9-4.1.6 0-.3-1.3-1.8-2.9-2.3-2.4-6.7-9.5-21.3-34.9l-2.5-4.2h11.1c6 0 11.2-.3 11.4-.7.3-.5-4.9-.7-11.4-.5-14.3.4-14-1-3.3 16.9 4 6.7 8.3 14.1 9.5 16.5s2.9 5.2 3.9 6.3 3.6 5.4 5.7 9.5c2.2 4.1 5 9.2 6.2 11.2 1.3 2.1 1.9 3.8 1.4 3.8-.7 0-7.8-11.9-11.7-19.7-.9-1.7-2.7-4-4.1-5.1s-2.5-2.8-2.5-3.8c0-1.1-3.2-7.1-7-13.4s-8.1-13.9-9.6-16.7l-2.5-5.3h-61.4c-33.7 0-62-.3-62.9-.6-.8-.3-2.9.1-4.6.9-2.4 1.2-3 1.3-3 .2 0-.7 1.1-1.6 2.5-1.9 1.4-.4 5.6-3 9.4-5.9 7.2-5.4 20.6-14.6 32.6-22.2 3.9-2.5 6.4-4.5 5.7-4.5-1.5 0-35.6 22.6-42 27.8l-4.3 3.5-75.9.1-76 .1-.2-16-.3-16-.5 18.5c-.3 10.2-.3 32.2 0 49l.5 30.5.3-31.2.2-31.3h73.4c40.4 0 73.7.4 74 .9.3.4-3.8 3.9-9.2 7.7-5.3 3.8-14 10.1-19.2 14-5.2 3.8-12.9 9.4-17 12.2-4.1 2.9-10.9 7.6-15 10.5-18.4 13-25.1 17.7-25.6 17.7-1.4 0 1.5-2.5 8.3-7.3 4.1-2.8 11-7.7 15.3-10.7s11.3-7.9 15.6-10.9c4.4-3 13.1-9.3 19.5-14 6.3-4.7 14.9-11 19-13.8 4.1-2.9 6.9-5.3 6.4-5.3-1.3 0-6.1 3.4-26.2 18.1-8.7 6.4-17.1 12.4-18.8 13.5-1.6 1-4.6 3-6.5 4.5-1.9 1.4-9.8 7-17.5 12.4s-15.2 10.9-16.6 12.1l-2.5 2.4-177-.2-176.9-.3-.3-61.2c-.1-33.6.1-61.4.6-61.7.4-.2 8.3-.6 17.5-.7 9.3-.1 17-.5 17.2-.8.4-.7-33.3-.2-35.3.4-1 .4-1.3 6.6-1.2 29.7.1 16.1-.1 29.3-.5 29.3-.3 0-.6-13.4-.5-29.7l.1-29.8H20c-11.3 0-18-.4-18-1s6.7-1 18-1h18l.2-24.3.2-24.2.6 24c.3 13.2.7 24.1.8 24.2.1.2 8.2.2 18 .1l17.7-.2L58 843l-17.5-.5-.2-359.2-.3-359.2 2.4-2.8c1.3-1.5 3.4-4.8 4.6-7.3 6.1-12 30.4-41.8 44.8-54.8l8-7.2h165.5c156.6 0 165.6.1 166.1 1.8.3.9.4 32.1.1 69.2l-.4 67.5-12.8 8.5c-7 4.7-21 14.3-31.1 21.3S368 233 367 233s-4.7-.6-8.2-1.4-9.8-1.8-14.1-2.1l-7.7-.7v-87.1c0-47.8-.2-87.2-.5-87.5s-.6 1.5-.7 3.9l-.1 4.4-.7-4.5c-.6-4.1-.7-3.8-.9 3-.6 24.9-.5 165.7.2 165.3.4-.2.7-36.9.6-81.5 0-44.5.2-81.3.5-81.6s.6 37.1.6 83v83.5l8.3.7c4.5.4 11 1.4 14.5 2.2s7.4 1.4 8.7 1.4c1.4 0 9.9-5.2 21.2-13.1 10.3-7.2 24.4-16.8 31.3-21.4l12.5-8.3V49.3l6.5.5c3.6.2 6.7.7 7 .9m-122.8 0c-15 .2-39.3.2-54 0-14.7-.1-2.4-.2 27.3-.2s41.7.1 26.7.2m39.6 0c-2.1.2-5.7.2-8 0-2.4-.2-.7-.4 3.7-.4s6.3.2 4.3.4m13 0c-1.5.2-4.2.2-6 0s-.6-.4 2.7-.4 4.8.2 3.3.4m29 0c-4.9.2-12.7.2-17.5 0-4.9-.1-.9-.3 8.7-.3s13.6.2 8.8.3m22.5 0c-2.3.2-6.4.2-9 0s-.7-.3 4.2-.3c5 0 7.1.1 4.8.3m27.5 0c-1.6.2-4 .2-5.5 0-1.6-.2-.3-.4 2.7-.4s4.3.2 2.8.4m172.2 0c-34.1.7-65 .7-65 0 0-.4 17.7-.6 39.3-.5 21.5.1 33.1.4 25.7.5m71.3 0c-10.6.2-28 .2-38.5 0-10.6-.1-2-.2 19.2-.2s29.8.1 19.3.2m73.7.3c-12.4.3-29.7.3-38.5 0-9.7-.4-.8-.6 22.5-.6 31.2 0 34.2.1 16 .6m41.3-.3c-3.5.2-9.1.2-12.5 0-3.5-.2-.7-.3 6.2-.3s9.7.1 6.3.3m14.5 0c-1 .2-2.8.2-4 0-1.3-.2-.5-.4 1.7-.4 2.2-.1 3.2.1 2.3.4m34 0c-5.4.2-14.2.2-19.5 0-5.4-.1-1-.3 9.7-.3s15.1.2 9.8.3m39 0c-5.4.2-14.2.2-19.5 0-5.4-.1-1-.3 9.7-.3s15.1.2 9.8.3m82.5 0c-1.3.2-3.5.2-5 0-1.6-.2-.5-.4 2.2-.4 2.8 0 4 .2 2.8.4m-38.5 4.6c2 1.8 5.1 4.3 6.7 5.6 4.5 3.4 17.7 16.2 17.2 16.7-.3.3-92 .6-203.8.7l-203.4.2-.3-12.4c-.2-9.3.1-12.6 1-13.3.7-.4 86.2-.8 190.1-.8H941zM985 65v13h-5.1c-5 0-5.1-.1-12.4-7.8-4-4.2-10-9.7-13.4-12.2-3.3-2.5-6-4.8-6.1-5.3 0-.4 8.3-.7 18.5-.7H985zM549.7 223.8c-.1 31.2-.2 5.4-.2-57.3s.1-88.2.2-56.7c.2 31.6.2 82.9 0 114m130-143.4c.4.3-26.1.6-58.8.5s-58.3-.4-56.9-.8c3-.9 114.8-.6 115.7.3m51.5.3c-9.5.2-24.8.2-34 0-9.2-.1-1.4-.3 17.3-.3s26.2.2 16.7.3m22.3.3c-2.7 1.1-4.5 1.2-4.5.2 0-.5 1.5-.9 3.3-.9 2.6-.1 2.8.1 1.2.7m142.2 37.7c-.2 1.6-.4.3-.4-2.7s.2-4.3.4-2.8c.2 1.6.2 4 0 5.5M590.2 197c-.2 45.4-.7 82.9-1.1 83.3s-6.8.6-14.2.5l-13.4-.3-.3-82c-.1-45.1 0-82.6.3-83.3.3-1 3.9-1.2 14.7-1l14.3.3zm265.3 2v81.5l-13.4.3c-7.4.1-13.8-.1-14.2-.5-1-1-1.5-160.5-.5-162.1.5-.9 4.4-1.2 14.4-1l13.7.3zm61-62.4c-.5 10.3-1.5 10.7-1.5.6 0-4.5.4-8.2.9-8.2s.8 3.4.6 7.6m-6.7 11.1c-2.1.2-5.7.2-8 0-2.4-.2-.7-.4 3.7-.4s6.3.2 4.3.4m3.7 67.3v65.5h-16l-.3-64.5c-.1-35.5 0-65.1.3-65.8.3-.9 2.6-1.2 8.2-1l7.8.3zm28.6-64.8c.2.7.2 30.3-.1 65.8l-.5 64.5-10.9.3c-6 .1-11.3-.1-11.8-.6-.7-.7-1.5-119.1-.9-129.5.1-1.5 1.4-1.7 12-1.7 8.6 0 12 .3 12.2 1.2m-462.9 16.7c8.1 10 12.3 16 11.6 16.6-.2.3-2.6-2.5-5.2-6.1-6.7-9.1-14.8-18.6-15.3-18-.3.2 3.3 5.1 7.9 10.8 15.3 18.9 24.6 35.3 31.6 55.9 5.2 15 10.2 37 10.9 48.1l.6 8.8h-40.1c-25.6 0-40.3-.4-40.7-1-.4-.7 13.1-1.1 39.7-1.2l40.3-.3-39.7-.2c-26.2-.2-39.8-.7-39.8-1.3s.7-2.7 1.5-4.6c2.7-6.5 8.4-28.7 9.9-38.9 2-13 2.9-37.7 1.9-48.7-.5-4.8-.6-8.9-.3-9 1-.5 12.7-14.3 14.5-17.1 1-1.5 2.3-2.6 2.9-2.4s4.1 4.1 7.8 8.6m414.3 61.6v52l-16.7.3-16.8.2v-3.7c0-2.1-.3-25.3-.6-51.5-.3-26.3-.2-48.2.1-48.8.4-.7 6.6-1 17.3-.8l16.7.3zM39 352.5c0 39-.2 71.1-.5 71.3-.3.3-.5-31.8-.5-71.3s.2-71.6.5-71.3.5 32.4.5 71.3M988 282c0 .5-.3 1-.7 1-.5 0-.8 10.5-.7 23.2 0 12.8-.2 19.5-.5 14.8l-.6-8.5L868 312c-64.6-.3-114.1-.6-110-.8 4.1-.1 57-.4 117.5-.5l110-.2v-14.8c0-11.1.3-14.7 1.3-14.7.6 0 1.2.4 1.2 1m-4.3.6c-.3.3-1.2.4-1.9.1-.8-.3-.5-.6.6-.6 1.1-.1 1.7.2 1.3.5m-434 36.6c-.1 6.8-.3 1.5-.3-11.7s.2-18.7.3-12.3c.2 6.4.2 17.2 0 24M747.5 297v12.5h-186l-.3-11.4c-.1-6.3 0-12.1.3-12.8.4-1.2 15.5-1.4 93.2-1.1l92.8.3zm239.2 38.2c-.2 1.3-.4.5-.4-1.7-.1-2.2.1-3.2.4-2.3.2 1 .2 2.8 0 4m-437 4.5c-.2 1.6-.4.3-.4-2.7s.2-4.3.4-2.8c.2 1.6.2 4 0 5.5m437.2 17.8-.5 14-.1-17c-.1-9.4.2-15.7.6-14 .3 1.6.4 9.3 0 17m-88.4 17c-2.2 1.8-4.2 3.1-4.5 2.8s1.3-2 3.5-3.8c2.2-1.9 4.2-3.2 4.5-2.9.2.3-1.3 2-3.5 3.9m88.2 2.2c-.3 1-.5.2-.5-1.7s.2-2.7.5-1.8c.2 1 .2 2.6 0 3.5m0 12c-.2 2.1-.4.6-.4-3.2 0-3.9.2-5.5.4-3.8.2 1.8.2 5 0 7m-97.2-7.8c-.3.6-10.3 8.7-22.3 18.1-24.2 19.1-35.6 28.4-67.1 54.3-43.6 36.1-47.1 39-46.6 39.5.2.3 3.1-1.7 6.3-4.4s9.4-7.8 13.7-11.4c4.4-3.6 14.5-11.9 22.5-18.5 29.3-24.3 47.9-39.4 64.5-52.5 9.4-7.3 20-15.8 23.7-18.8l6.8-5.4 2.7 3.2c7.5 8.7 13.3 20.9 15.9 33.5 1.6 7.5 4.2 69.4 3.1 73.6-.6 2.4-.7 2.4-14.9 2.4-12.8 0-15.1.3-22.6 2.7-12.1 4-19.8 8.5-27.4 16-11.2 11.3-17.1 23.3-20.4 41.8-1.2 6.6-1.4 15.2-1.3 38.5.2 18.4-.1 29.9-.7 29.7-.5-.2-4.8-2.6-9.5-5.3l-8.7-4.9-1.1-8.3c-2.5-17.5-9.6-38.2-18.2-53.3-6.3-11-18.7-27-28.1-36.3l-8.5-8.3.2-6.2c.2-3.3.3-6.8.4-7.7s5.8-6.3 12.9-12.1c58.3-48.4 74.9-61.9 93.2-76.3 8.4-6.6 18.7-14.8 22.9-18.2 7.1-5.8 10-7.6 8.6-5.4m97.2 28.8c-.2 3.2-.3.6-.3-5.7s.1-8.9.3-5.8c.2 3.2.2 8.4 0 11.5m0 18.5c-.2 2.4-.4.5-.4-4.2s.2-6.6.4-4.3c.2 2.4.2 6.2 0 8.5m-948 4.5c-.2 1.6-.4.3-.4-2.7s.2-4.3.4-2.8c.2 1.6.2 4 0 5.5m226 1.2c4.3 2.1 8.9 4.2 10.3 4.6 2.4.8 2.4.8.5 1.6-1.1.4-4.1.8-6.7.8-2.6.1-8.4.8-12.8 1.7-4.5.9-8.3 1.4-8.6 1.1-.3-.2.8-1.9 2.5-3.7 1.6-1.8 3.7-4.8 4.7-6.6 1-1.9 1.9-3.4 2.1-3.4.1 0 3.7 1.7 8 3.9m722 27.8c-.1 5.4-.3 1-.3-9.7s.2-15.1.3-9.8c.2 5.4.2 14.2 0 19.5m-948-23.5c-.3.8-.6.5-.6-.6-.1-1.1.2-1.7.5-1.3.3.3.4 1.2.1 1.9M40 441c0 .5-.7 1-1.5 1s-1.5-.5-1.5-1c0-.6.7-1 1.5-1s1.5.4 1.5 1m-1.3 63.3c-.1 11.1-.2 1.7-.2-20.8 0-22.6.1-31.6.2-20.2.2 11.5.2 29.9 0 41m383.6-48.6c4 1.3 9.2 2.8 11.6 3.4 2.4.5 13.4 3.6 24.5 6.8 19.3 5.7 55.5 15.8 64.4 18.1 2.3.6 4.2 1.4 4.2 1.8s-2.6 2.3-5.7 4.1c-10.2 6.1-20.6 14.2-30.5 23.9-5.4 5.3-9.8 9.9-9.8 10.3s4.3-3.5 9.6-8.7c9.2-9 11.4-10.6 11.4-8.4 0 .5 3.5-1.5 7.8-4.6 9.2-6.6 23.5-15.4 25.1-15.4.6 0 1.9.5 2.9 1 .9.6 7.8 3 15.2 5.4 18.5 6.1 34.5 11.9 40.5 14.6 2.8 1.3 6.1 2.8 7.5 3.3 1.4.6 2.8 1.3 3.3 1.5.4.2.7 0 .7-.3s-2.1-1.5-4.7-2.6c-9.5-4.1-11.3-5-11.3-5.9 0-1 1.7-3.2 7.8-10.1 4-4.6 16.1-13.9 21.8-16.8 5.7-3 16-5.8 24.1-6.7l6.8-.7-13.4 14.4c-7.4 7.9-17.3 18.3-22 23-7.9 7.9-9 8.7-13.6 9.4-19.8 2.9-42.5 13-70.4 31.3l-11.3 7.4-10.2-4.3c-20.9-9-31.8-16.2-44.8-29.8-12.7-13.2-48.8-58.4-54.3-68-.9-1.7 2.6-1 12.8 2.6m221.9 4.4c10.7 2.2 18.8 5.2 18.8 7 0 1.5-1 1.8-7.2 1.7-26.6-.5-48.2 9.2-62.9 28-2.9 3.7-5.4 6.9-5.5 7-.1.2-4.9-1.3-10.6-3.3s-16.4-5.7-23.8-8.1c-7.4-2.5-14.1-4.7-14.9-4.9-1.7-.6 2.1-3.8 5.9-5 1.4-.4 5-2 8-3.5 16.8-8.3 44.4-17.7 58.6-20 6.9-1.1 26.1-.5 33.6 1.1m29.7 11.4c4.8 2.4 10.3 8.6 14.2 15.7 3 5.6 3.4 7.2 3.4 13.9s-.4 8.1-3 12.4c-6.4 10.3-16.8 14.9-28.7 12.7-10.5-2-21.4-8.1-30.2-17.2l-7.8-7.9 8.3-8.8c19.1-20.3 21.2-22.4 21.6-21.9.3.3-5.9 7.3-13.7 15.6s-14 15.3-13.7 15.6c.5.6 25.5-25.8 28-29.7 1.6-2.5 2.1-2.6 10.1-2.3 5.4.1 9.5.8 11.5 1.9m-340.1 8.3.3 7.2-5.3-.1c-2.9-.1-8-.4-11.3-.8l-6-.6 3.4-2.5c6.6-4.8 16.6-10.8 17.6-10.6.6.1 1.1 3.5 1.3 7.4m652.9 1.4c-.2 1.8-.4.4-.4-3.2s.2-5 .4-3.3c.2 1.8.2 4.8 0 6.5m0 10c-.2 1.3-.4.3-.4-2.2s.2-3.5.4-2.3c.2 1.3.2 3.3 0 4.5m-457.3-4.3c.3.5-3.1 3.1-7.7 5.9-4.5 2.8-10.6 6.9-13.6 9.1-3 2.3-5.7 3.9-5.9 3.6-.7-.7 1.4-2.3 13.8-10.5 5.8-3.8 11-7.3 11.5-7.9 1.3-1.3 1.3-1.3 1.9-.2M327.5 488c6.6.6 6.3.7-4.7.8-6.9.1-11.9-.2-12.3-.8-.7-1.1 6.1-1.1 17 0m659.2 10.7c-.3 1-.5.2-.5-1.7s.2-2.7.5-1.8c.2 1 .2 2.6 0 3.5m0 19c-.2 3.2-.3.6-.3-5.7s.1-8.9.3-5.8c.2 3.2.2 8.4 0 11.5m-555 19c-.2 2.7-.3.5-.3-4.7s.1-7.4.3-4.8c.2 2.7.2 6.9 0 9.5m555-10.5c-.3.8-.6.5-.6-.6-.1-1.1.2-1.7.5-1.3.3.3.4 1.2.1 1.9M40 526c0 .5-.4 1-1 1-.5 0-1-.5-1-1 0-.6.5-1 1-1 .6 0 1 .4 1 1m-1.3 42.7c-.1 7.6-.3 1.4-.3-13.7s.2-21.3.3-13.8c.2 7.6.2 20 0 27.5m73.6-39.1c11.2 2.6 17.3 6 25.7 14.4 12.2 12.1 17.6 24.6 19 44 .5 6.3.9 21.2 1 33.2l.1 21.6-5.3 1.7c-7.8 2.5-10.9 4.1-14.4 7.3-8.4 7.7-10.6 23.3-5.5 38.5 3.3 10.2 6.9 14 20 21.3 2.7 1.5 3.5 2.6 3.8 5.4.1 1.9.6 36.4.9 76.6l.6 73.1-26.9-.1c-23.3-.1-27.3-.3-30.7-1.9-6.1-2.7-12.5-8.5-16.6-14.8-6.3-9.7-6.3-10-5.7-113.6.4-50.5.8-93 1-94.5.7-4.6-1.8-8.4-8-12.4-7.8-4.9-17.3-15.1-21.4-22.7-3.1-5.8-3.3-6.9-3.7-18.3-.3-6.9.1-14.4.7-17.3 1.9-8.8 7.3-19.1 13.5-25.8 13.7-14.8 31.8-20.2 51.9-15.7m874.4 47.1c-.1 8.2-.3 1.5-.3-14.7s.2-22.9.3-14.8c.2 8.2.2 21.4 0 29.5m-555-17.5c-.2 3.5-.3.9-.3-5.7s.1-9.4.3-6.3c.2 3.2.2 8.6 0 12m80 1.4c-.3.3-1.2.4-1.9.1-.8-.3-.5-.6.6-.6 1.1-.1 1.7.2 1.3.5M38.9 686.5c-.4 2.2-.6-20.3-.5-50l.1-54 .5 50c.3 27.5.2 51.8-.1 54m948-79.8c-.1 8.2-.4 13.8-.7 12.5-.7-2.4-.4-27.2.4-27.2.2 0 .4 6.6.3 14.7m-.2 17.5c-.3.8-.6.5-.6-.6-.1-1.1.2-1.7.5-1.3.3.3.4 1.2.1 1.9m.2 14.5c0 7.1-.4 11.7-.8 10.3s-.6-4.3-.5-6.5.2-6.8.3-10.3c.1-3.4.3-6.2.6-6.2s.5 5.7.4 12.7m.1 78.5c0 35.8-.3 64.9-.6 64.6-.7-.8-1.4-120.2-.7-125.6.3-2.3.7-4.2.9-4.2s.4 29.3.4 65.2m-550.1-29.4c.5 2.6 1.3 5.4 1.6 6.3.5 1.2-.2 2-2.6 2.8-4.5 1.6-4.9 1.4-5-1.7 0-1.5-.4-3.6-.9-4.7-.5-1.3-.7-.2-.6 3.4l.1 5.3-14 4.8c-18.7 6.3-36.2 12.7-58 21.1-10 3.8-18.7 6.9-19.3 6.9-.9 0-1.2-1.8-1-6.7l.3-6.6 15.5-5.4c8.5-3 30.6-10.5 49-16.8s33-11.4 32.5-11.4c-1.7-.1-94.5 31.2-97.7 32.9-2.2 1.2-2.8 1.2-2.8.1 0-.5 4.6-2.5 10.3-4.4 36.7-12.6 90.2-30.7 90.8-30.7.4 0 1.2 2.1 1.8 4.8M39.2 749.3c.2 28 0 35.7-.9 35.7-.7 0-1.3-.5-1.3-1 0-.6.3-1 .8-1 .4 0 .7-20.1.7-44.7-.1-24.7 0-40.3.2-34.8s.4 26.1.5 45.8m137.5-29.2c7.6 2.8 15.8 5.9 18.3 6.9s10.6 4.1 18 6.9c23.7 8.8 32.4 12.1 34.5 13.1 1.1.5 5.8 2.2 10.5 3.8 4.7 1.7 12.6 4.6 17.5 6.5 5 1.9 12.3 4.8 16.3 6.3l7.3 2.7 3.7-2c2-1.1 10.9-5.1 19.7-8.7 8.8-3.7 17.4-7.3 19-8 7-3.2 10.5-4.7 18-7.5 4.4-1.6 15.9-6 25.5-9.9 9.6-3.8 21.6-8.3 26.6-10.1 8.3-2.8 9.7-3 14.5-2.1 2.9.6 5.4 1.1 5.5 1.3.2.2.4 12.4.4 27.1.1 14.8.4 26.6.7 26.3.2-.3.4-12.7.3-27.6l-.1-27.1h25.6c14 0 25.5.3 25.4.7 0 .5-3.8 4.2-8.4 8.3s-8.4 7.9-8.5 8.4c0 .9 4.9-3.2 13.4-11.2l5.8-5.6 6.2.2c18.3.5 27.3.3 38.6-1.2 6.9-.8 15.9-1.7 20-1.8l7.5-.3.6 5.7c1 9.3 5.7 14.6 15.8 17.9 5.5 1.9 7.9 2.1 16 1.6 5.5-.3 13.7-1.7 19.1-3.2 20.1-5.5 46.8-10.7 65-12.6 5.8-.5 21.1-1.4 34-1.9 18.9-.7 24.8-1.2 30.3-2.8 6.7-2.1 7.9-1.7 5.8 1.7-2.7 4.2-18.9 19.2-26.9 24.9-10.8 7.7-11.6 9.7-1 2.6 9.3-6.3 29.5-26 30-29.4l.3-2.4 12 .1c6.6.1 25.8.2 42.8.3H833v7c0 18.4-10.5 49-17.5 51.3-1.6.6-5.2 2.4-8 4-2.7 1.6-8.4 4.8-12.5 7s-8.8 4.9-10.5 6.1l-3 2.1-176.7.3c-126.6.2-176.8-.1-176.8-.8 0-.6.5-.8 1-.5.6.3 1 .1 1-.4 0-1.6-1.8-1.3-2.7.4-.7 1.3-16.3 1.4-123.3 1.2l-122.5-.2-4.9-2.5c-5.7-2.9-11.1-8.9-12.7-13.9-1-3.1-2-22.4-3-54.4-.2-4.8-.6-8.4-.9-8-.3.5-.3 7.1.1 14.8s.7 19.9.8 27c.2 21.8 3.3 29.3 14.6 35l6 3 76.9.2c42.3.2 77 .4 77.2.5.1.2 20.6.1 45.6-.2 42.6-.5 207.9.2 206.8.8-1.2.7-384.3 1.4-398.4.7-9-.4-15.6-1.1-15.6-1.7 0-1.6-11.4-11.9-12.6-11.4-1.1.4-1.2 3-.6 9.8.2 1.5 1.2 1.8 6.1 1.8 3.3 0 6.3.4 6.6 1 .4.6-1.8 1-5.9 1-5.6 0-6.5.3-7.1 2-.8 2.4-.3 64.2.4 63.4.3-.3.4-14.6.2-31.8-.1-18 .1-31.6.6-31.9s144.8-.9 320.7-1.2l319.7-.6-1.1 2.1c-2.1 3.9-22.3 24.1-30.7 30.6-34.7 27.1-73.9 38-93 25.8-5-3.2-7.6-6.3-12.5-15.4-1.2-2.1-3.5-3.9-7.5-5.7-5-2.2-6.8-2.5-13.4-2.1-13.6.8-21.3 7.7-24.5 22-.9 4-1.8 7.9-2 8.6-.3.9-27.4 1.2-131.1 1.2-71.9.1-134.8.2-139.8.3l-9 .2-.3-17.9-.2-17.8 6.2.6c7.5.8 24.6-1.5 34-4.5 10.4-3.4 26-11.4 31.1-15.9 2.6-2.3 4.7-3.7 4.7-3.2 0 2-8.6 8.4-16.4 12.4-16.9 8.5-28.4 11.7-47.1 12.9l-12 .7 13-.3c12.1-.3 27.8-3.1 31-5.5.6-.4 2.8-1.3 5-2 7.4-2.4 18-8.3 24-13.4 6.8-5.8 11.6-10.9 10.9-11.6-.3-.2-2.1 1.3-3.9 3.5-1.9 2.2-3.4 3.5-3.5 2.8 0-.6.4-1.5 1-1.8.5-.3 1.5-1.6 2.1-2.7.6-1.2-2.6 1.2-7.2 5.2s-9.1 7.5-9.9 7.8-6 2.6-11.5 5.2c-14.6 7-33.2 10.8-45.5 9.4l-5.9-.7-.4-14.1c-.1-7.7-.4.5-.6 18.4-.1 18-.6 31.6-1.1 30.5-.4-1.1-.8-15.7-.9-32.4-.1-16.8-.4-30.7-.7-31s-.4 14.3-.3 32.4l.2 33-87.1.3-87.2.3-.1-53.8c-.2-71.2-.5-91.3-1.3-94.5-.6-2.1-.4-2.7 1.1-3.1 3.4-.9 4.1-.7 18 4.4m810.5 70.1c.2 4 0 11.8-.3 17.3-.5 9.6-.5 9.5-.7-5-.1-8.3-.5-16-.8-17.3-.4-1.2-.2-2.2.4-2.2s1.2 3.1 1.4 7.2m-948.5 2.5c-.2 1.6-.4.5-.4-2.2 0-2.8.2-4 .4-2.8.2 1.3.2 3.5 0 5m128.4 3.1c-2.4.2-4.6.1-4.9-.2-.6-.7-1.1-7.8-.6-8.7.2-.3 2.5 1.5 5.1 4l4.8 4.6zM751 797c0 .5-.4 1-1 1-.5 0-1-.5-1-1 0-.6.5-1 1-1 .6 0 1 .4 1 1m-131.2.5c-.6.7-29.9.8-30.6.1-.3-.3 6.6-.6 15.3-.6s15.6.2 15.3.5m46.2.5c-13.5.3-29.2.2-35-.1s5.3-.5 24.5-.5c33.5 0 33.9.1 10.5.6m34.7-.3c-2 .2-5.2.2-7 0-1.7-.2 0-.4 3.8-.4 3.9 0 5.3.2 3.2.4m10.6 0c-1.3.2-3.3.2-4.5 0-1.3-.2-.3-.4 2.2-.4s3.5.2 2.3.4m10.5 0c-1.6.2-4 .2-5.5 0-1.6-.2-.3-.4 2.7-.4s4.3.2 2.8.4m9.5 0c-.7.2-1.9.2-2.5 0-.7-.3-.2-.5 1.2-.5s1.9.2 1.3.5m13.5 0c-2.1.2-5.7.2-8 0-2.4-.2-.7-.4 3.7-.4s6.3.2 4.3.4m241.9 37.5c-.2 3.5-.3.9-.3-5.7s.1-9.4.3-6.3c.2 3.2.2 8.6 0 12m.7 8.4c.9 2.2.8 2.4-.9 2.4-.8 0-1.5-.9-1.5-2 0-2.4 1.5-2.7 2.4-.4m-8.1 1.1c-2.9.2-7.8.2-11 0s-.8-.3 5.2-.3c6.1 0 8.7.1 5.8.3m7.4 9c-.2 1.6-.4.5-.4-2.2 0-2.8.2-4 .4-2.8.2 1.3.2 3.5 0 5m0 10.5c-.2 1.3-.4.5-.4-1.7-.1-2.2.1-3.2.4-2.3.2 1 .2 2.8 0 4m-654.1 4.1c.4.4-5.8.7-13.7.7-8.7 0-13.9-.4-13-.9 1.6-1 25.7-.8 26.7.2m654.1 7.9c-.2 1.8-.4.4-.4-3.2s.2-5 .4-3.3c.2 1.8.2 4.8 0 6.5m-683.1-7.4c-.3.5-16.6 1-36.3 1-22.2.1-35.9.6-36.3 1.2-.3.5-1.5 7.7-2.5 16-1 8.2-2.3 15-2.8 15-.9 0-.3-6.3 2.2-21.8l1.7-10.3-17.5.1c-19 .1-36.1-.6-36.9-1.5-.3-.3 28.6-.5 64.2-.5s64.5.4 64.2.8m-102 17.8c.3 8.2.7 15.5.9 16.1.3.9 3.3 1.3 10.5 1.3 6.9 0 10 .4 10 1.2s-2.9.9-10.7.5c-5.8-.4-10.9-1-11.2-1.3s-.7-8.1-.9-17.2c-.2-9.2-.1-16.4.2-16.1s.8 7.3 1.2 15.5m26.4-14.7c0 1.7-4.1 28.6-4.5 29.8-.3.9-3.3 1.3-10 1.3-6.8 0-9.7-.4-10-1.3-.7-2.3-1.5-29.4-.8-30 1-1.1 25.3-.8 25.3.2m758.7 11.8c-.3 1-.5.4-.5-1.2 0-1.7.2-2.4.5-1.8.2.7.2 2.1 0 3m.2 13.5c0 6.2-.3 10.5-.7 9.6-.7-1.8-.4-20.8.4-20.8.2 0 .4 5.1.3 11.2M227 904c0 .5-.7 1-1.5 1s-1.5-.5-1.5-1c0-.6.7-1 1.5-1s1.5.4 1.5 1m256.6 1.1c.3.5-30 .9-73.1.9-48.5 0-73.4-.3-73-1 .8-1.3 145.3-1.2 146.1.1m82.1 3.4c2.9 1.9 3.9 1.9 2.3 0-1.1-1.3 1.6-1.5 23.4-1.5H616l2.4 4.7c1.3 2.7 4.2 7.7 6.5 11.3 2.2 3.6 4.8 7.8 5.6 9.5.9 1.6 2.2 4.1 3 5.5s1.5 3.3 1.5 4.4c0 1 1.1 2.7 2.5 3.8s4.1 5 6 8.7c1.9 3.6 4.8 8.6 6.4 11.1l3.1 4.5-125.7.3c-69.1.1-125.9-.1-126.2-.4-.3-.4 0-.9.6-1.1.7-.3 7.2-4.7 14.4-9.9s13.3-9.4 13.7-9.4c.3 0 1.5-.8 2.6-1.9 1.2-1 5.3-4 9.1-6.6 6.6-4.5 35.1-25.2 44.1-31.9l4.1-3.1 36.9.3c30.2.2 37.3.6 39.1 1.7m421 11.7c-.2 2.4-.4.7-.4-3.7s.2-6.3.4-4.3c.2 2.1.2 5.7 0 8m0 7c-.3.8-.6.5-.6-.6-.1-1.1.2-1.7.5-1.3.3.3.4 1.2.1 1.9m0 13c-.2 2.4-.4.7-.4-3.7s.2-6.3.4-4.3c.2 2.1.2 5.7 0 8m.5 34.4c-.1 14.7-.4 26.9-.7 27.2s-.5-5.8-.5-13.6-.1-14.3-.2-14.4c-.2-.1-8.2-.5-17.8-.8l-17.5-.6h17.8l17.9.1-.2-5c-.4-9 0-20.8.6-20.2.4.3.6 12.6.6 27.3m-575-2.4c9.7.2 8.8.3-6.2.7-9.6.3-19.3.3-21.5 0-3.3-.5-2.8-.7 3-.8 3.9-.1 7.7-.5 8.4-1 .9-.6 2.2-.6 3.2 0 1 .5 6.9 1 13.1 1.1m-372.2.2c0 .7-4.2 1.1-12.8 1-23.6-.3-26.8-.8-8.2-1.4 10.2-.3 19.1-.5 19.8-.6.6 0 1.2.4 1.2 1m678.9-.5c16.2.1 29.2.3 28.9.6-.5.5-83.2.8-100.8.4l-9.5-.3 8.5-.5c4.7-.3 16.4-.5 26-.4s30.7.2 46.9.2m86.6.6c.6.2-3.4.4-8.7.4-5.4.1-9.8-.3-9.8-.8 0-.8 16-.4 18.5.4m-628.8.2c-25.2.2-66.2.2-91 0-24.9-.1-4.2-.2 45.8-.2 50.1 0 70.4.1 45.2.2m52.6 0c-1.3.2-3.3.2-4.5 0-1.3-.2-.3-.4 2.2-.4s3.5.2 2.3.4m37.5 0c-6.5.2-17.1.2-23.5 0-6.5-.1-1.2-.3 11.7-.3s18.2.2 11.8.3m41 0c-5.4.2-14.2.2-19.5 0-5.4-.1-1-.3 9.7-.3s15.1.2 9.8.3m42.7.2c-8.8.3-19.8.3-24.5 0s2.5-.6 16-.5c22.2 0 23 0 8.5.5m27.3-.2c-1.5.2-4.2.2-6 0s-.6-.4 2.7-.4 4.8.2 3.3.4m64 0c-3.2.2-8.6.2-12 0-3.5-.2-.9-.3 5.7-.3s9.4.1 6.3.3m104.5 0c-16.7.2-43.9.2-60.5 0-16.7-.1-3.1-.2 30.2-.2s46.9.1 30.3.2m40 0c-1.8.2-4.8.2-6.5 0-1.8-.2-.4-.4 3.2-.4s5 .2 3.3.4m26.5 0c-4.3.2-11.3.2-15.5 0-4.3-.1-.8-.3 7.7-.3s12 .2 7.8.3m16 0c-1.6.2-4 .2-5.5 0-1.6-.2-.3-.4 2.7-.4s4.3.2 2.8.4m7.5 0c-.7.2-2.1.2-3 0-1-.3-.4-.5 1.2-.5 1.7 0 2.4.2 1.8.5m129.2-.2c-2.4.8-16.5 1.1-16.5.3 0-.4 3.9-.8 8.8-.7 4.8 0 8.3.2 7.7.4m17.8.6c-1.8.5-5.3.5-8.5 0-5.2-.8-5.1-.9 3.2-.9 6.7 0 7.8.2 5.3.9m39-.4c-2.4.2-6.2.2-8.5 0-2.4-.2-.5-.4 4.2-.4s6.6.2 4.3.4m33 0c-5.1.2-13.6.2-19 0-5.4-.1-1.2-.3 9.2-.3 10.5 0 14.9.2 9.8.3m23 0c-2.3.2-6.4.2-9 0s-.7-.3 4.2-.3c5 0 7.1.1 4.8.3m12.5 0c-1.6.2-4 .2-5.5 0-1.6-.2-.3-.4 2.7-.4s4.3.2 2.8.4m5.9-.1c-.3.3-1.2.4-1.9.1-.8-.3-.5-.6.6-.6 1.1-.1 1.7.2 1.3.5m23.6.1c-4 .2-10.7.2-15 0-4.3-.1-1-.3 7.2-.3 8.3 0 11.8.2 7.8.3m22 0c-2.4.2-6.2.2-8.5 0-2.4-.2-.5-.4 4.2-.4s6.6.2 4.3.4m7.4-.1c-.3.3-1.2.4-1.9.1-.8-.3-.5-.6.6-.6 1.1-.1 1.7.2 1.3.5m-911 37.6c-.1 6.8-.3 1.5-.3-11.7s.2-18.7.3-12.3c.2 6.4.2 17.2 0 24"/><path d="M748.5 181.5c0 53.9.1 75.8.2 48.7.2-27.2.2-71.3 0-98-.1-26.8-.2-4.6-.2 49.3m3 0c0 53.9.1 75.8.2 48.7.2-27.2.2-71.3 0-98-.1-26.8-.2-4.6-.2 49.3m-452-87.9c-31 3.6-53.1 9.7-74.8 20.6-4.4 2.1-7.7 4.2-7.4 4.4.3.3 4.2-1.5 8.8-3.9 9.2-4.9 16.9-7.8 32.9-12.5 18.6-5.5 48.5-9.5 64.1-8.5 5.2.3 9.2.3 8.9.1-1.3-1.4-21.6-1.5-32.5-.2"/><path d="M305.9 95.4c-.2.2-3.5.6-7.3 1-27.9 2.6-50 8.8-73.1 20.3-14.7 7.4-23.7 13-33.8 21-3.8 3.1-6.8 5-6.5 4.2.6-1.8 16.4-13.7 24.4-18.4 3.5-2.1 6.2-4 6-4.3-1.8-1.7-38.6 25-38.6 28.1 0 .6 1.6-.4 3.5-2.3s3.5-3 3.5-2.5c0 1.3-5.2 6.5-6.5 6.5-.7 0-4.3-4.4-8-9.8-9.4-13.3-15.7-21.3-16.3-20.7-.3.3.4 1.5 1.5 2.8 3.9 4.2 20.3 27.7 19.4 27.7-.5 0-4.2-4.6-8.2-10.3-9.6-13.4-14.9-20.1-14.9-18.8 0 .6 2.8 4.8 6.3 9.3 3.4 4.6 8 10.9 10.2 14 2.1 3.2 4.2 5.8 4.8 5.8.5 0-3.4 4.6-8.7 10.1-18.2 19.3-30.4 39.1-39.9 64.9-6.3 17.2-8.5 26.4-12.1 52.7-.2 1.2.1 2 .5 1.7.5-.3.9-1.8.9-3.4 0-5.1 4-26.7 6.6-35.7 6.4-22.3 18.8-47.2 32.2-64.6 7.4-9.7 22.3-24.9 23.8-24.3 1.4.5 3.2-.7 17.1-11.7 34.2-27.2 72.6-40.3 124.8-42.7l15-.7-13.1-.1c-7.2-.1-13.3 0-13.5.2m639.6 21.8c-.3.7-.4 38-.3 82.8l.3 81.5 13.9.3c7.7.1 14.3-.1 14.7-.5s1-29.8 1.4-65.3c.3-35.5.8-71.7 1-80.6.3-8.9.3-16.8-.1-17.8-.5-1.4-2.6-1.6-15.5-1.6-11.1 0-15.1.3-15.4 1.2m29.7 30.8c-.7 82-1.5 131.6-2.1 132.3-.4.4-6.6.6-13.7.5l-12.9-.3-.3-80.5c-.1-44.3 0-81.1.3-81.8.3-1 3.9-1.2 14.7-1l14.3.3zm-381.8-18.7c-.2.8-.4 5.4-.2 10.3l.3 8.9 18.8.5c21.9.6 20 1.7 19.5-12l-.3-8.5-18.8-.3c-15-.2-18.8 0-19.3 1.1m37.1 9.2v9h-36l-.3-7.9c-.2-4.4-.1-8.5.2-9.3.5-1.1 4.1-1.3 18.3-1.1l17.8.3zm52-4.8c-12.2.5-11.9.3-11.2 8.1.3 3.7 2.6 17 5.1 29.7 10.7 54.3 20.7 107.7 20.2 108.2-.9.9-.6 2-8-36.2-4.1-21.6-12.2-64-13.5-71-.5-2.9-.9-3.9-1-2.3 0 1.4 1.7 11.8 3.8 23 2.2 11.1 6 31.1 8.6 44.3 2.5 13.2 5.4 28 6.4 33 1 4.9 1.6 9.3 1.4 9.7-.6 1-20 1-20.7 0-.2-.4-.6-26.1-.7-57-.1-31-.5-56.5-.8-56.7-.7-.3-.2 112.3.4 114.2.6 1.8 57.1 1.8 57.8 0 .3-.8.1-3.3-.4-5.8-5.6-26.7-20.8-105.3-25.5-131.8-.8-4.6-1.7-8.8-2-9.2-.5-.9-4.2-.9-19.9-.2m19 1.3c.4.6 1.3 4.6 2.1 8.8 4.7 26.5 19.9 105.3 25.3 131.2.5 2.4.7 4.8.5 5.2-.7 1-30.1 1-30.7 0-.3-.4-4.2-19.8-8.6-43.2-4.5-23.4-10.2-52.9-12.7-65.5-2.5-12.7-4.7-25.9-4.7-29.5l-.2-6.5 8.5-.6c14.9-1 19.9-.9 20.5.1m101.1 3.1c-1 3.4-5.7 21.2-7.6 28.9-4.9 19.9-19.2 72-27.6 100.7-2 6.7-3.3 12.7-2.9 13.3.7 1.1 18.4 1.4 20 .2.6-.4 2.4-5.4 3.9-11.2 1.6-5.8 3.7-13.4 4.7-17s4.5-17.1 7.8-30c7-27.2 9.2-35.2 15.6-58.5 2.6-9.4 5-18 5.2-19.1.4-1.9-.4-2.5-7.9-4.9-4.5-1.6-8.9-3-9.5-3.3-.7-.2-1.5.2-1.7.9m18 6.1c.3.3-.4 3.7-1.5 7.4-4.1 14.1-15.2 55.3-23 85.4-5.8 22.4-8.5 32.6-10.4 39l-1.3 4.5h-18.9l.3-2.5c.2-1.4 1.6-6.8 3.1-12 6.4-21.4 21.8-78.1 27.1-99 2.7-10.7 6.2-23.7 7.5-27.7.3-.8 2.8-.3 8.5 1.6 4.4 1.5 8.3 3 8.6 3.3m38-4.5c-.7 2.4-.6 28.2.1 31.1.5 2.2.6 2.2 18.2 2l17.6-.3v-34l-17.7-.3c-16.2-.2-17.7-.1-18.2 1.5m34.9 15.8v16l-16.4.3c-12.4.2-16.6-.1-17.2-1-.9-1.4-1.1-29.7-.3-31 .3-.5 8.1-.7 17.2-.6l16.7.3z"/><path d="M861.8 155.2c.4.3 7.5.2 15.7-.2l15-.8-15.7.1c-8.6.1-15.4.5-15 .9m7 2.5c4.6.2 11.8.2 16 0 4.2-.1.5-.3-8.3-.3s-12.3.2-7.7.3m-701.9 2c-28.4 29.2-45.5 64.9-51.5 107.5l-1.7 12.8h-36c-19.8 0-35.8.2-35.5.5s34.4.5 75.8.5c49.7 0 75.1.3 74.4 1-.6.6-28.1 1.1-75.4 1.3l-74.5.2 76 .2 75.9.2 4.8 10.7c2.6 5.9 5.5 11.5 6.3 12.4 1.4 1.6 1.3 2.9-1 14.2-1.7 8.6-2.5 15.8-2.5 22.8v10.2l-42.7-.6c-23.6-.4-47.5-.8-53.3-1-11.8-.5-10.2 0 4 1.3l9.5.8-11.9.2c-6.6 0-11.7.3-11.5.6.3.2 23 .7 50.5 1 27.4.3 51.4.8 53.1 1.1 2.6.4 3.4 1.1 3.9 3.2.3 1.5 1.4 5.6 2.5 9.2 1 3.5 1.7 6.5 1.5 6.7-.1.1-5.5 1.2-12 2.3-32.2 5.5-53.9 15.4-76.5 34.8-10 8.6-23.1 22.3-23.1 24.1 0 .6-.6 1.1-1.2 1.1-.7.1-13 .1-27.3 0-14.2 0-25.7.2-25.4.5.8.7 164 .7 164.8 0 .3-.4-4.6-.5-11-.4l-11.5.3-6.5-6.9c-3.6-3.9-8.4-9-10.6-11.5s-6-6.5-8.3-9-5.3-6.2-6.7-8.3c-1.4-2-3-3.7-3.5-3.7-2.1 0 9.3 13.6 26.6 31.7l6.9 7.3h-42.7c-23.4 0-42.6-.3-42.6-.6 0-1.7 11.7-13.8 21.5-22.2 20-17.3 37.6-26.9 60.2-32.7 11.3-2.8 29-5.8 30.2-5 .5.2 0-2.3-1.1-5.8-1-3.4-2.4-8.3-2.9-10.8-.9-4.1-1.4-4.7-4.1-5.3-1.7-.3-16.6-.6-33.2-.7-16.5 0-31.9-.4-34.1-.9-2.4-.5 10.5-.6 32-.3 19.8.3 36.3.7 36.8 1 .4.2.7-4.7.7-10.9 0-8 .7-14.8 2.5-23.3l2.4-12-4.8-10c-8.7-18-10.1-21.3-12.6-30.6-3.5-13.1-4.9-27.9-4.1-43.4.8-14.2 2.9-32.3 5.1-42.5 1.5-7.5 2.1-6.2-9.1-21.2-4-5.3-7-9.9-6.6-10.2.3-.3.3-.6.1-.6-.3 0-4.4 3.9-9 8.7m22.4 29.7c-5.8 34.8-5.3 62.4 1.7 84.7l1.8 5.9h-38.9c-32.8 0-38.9-.2-38.9-1.4 0-3.8 4.1-28 5.9-35.2 7.3-28.5 24-58.7 44.1-79.9l9.5-10 8.5 11.4 8.5 11.4zm-62 165.6c-1.2.5-3.4.5-5 0-2.4-.7-2.1-.8 2.2-.9 3.8 0 4.5.2 2.8.9M177 151.5c0 .8 16.3 23.4 20.1 27.8 1.8 2.1 6.2 5.6 9.8 7.7 7.2 4.4 19 13.3 44.8 34.1 9.2 7.4 18.3 14.6 20.2 15.9l3.4 2.3 8.1-2.6c11.7-3.8 29.4-6.7 40.7-6.7 5.4 0 10-.3 10.2-.8.9-1.3-19.6-.1-31.3 1.9-6.3 1.1-15 3.1-19.2 4.5l-7.8 2.6-3.2-2.3c-1.8-1.2-10.9-8.4-20.1-15.8-25.8-20.8-37.6-29.7-44.8-34.1-7.6-4.5-10.3-7.4-21.7-23.4-7.8-10.8-9.2-12.5-9.2-11.1m416.5.8c-.3.7-.4 30.1-.3 65.2l.3 64 18.2.3c21.3.3 20.6.6 20.1-10.6l-.3-6.7-18.5-.5-18.5-.5 18.5-.5 18.5-.5v-111l-18.8-.3c-14.7-.2-18.9 0-19.2 1.1m37 54.7v54.5h-36l-.3-53.5c-.1-29.4 0-54.1.3-54.8.3-1 4.6-1.2 18.2-1l17.8.3zm.3 65.1c.2 4.8-.1 6.9-1.1 7.8-1 .8-6.5 1.1-18.3.9l-16.9-.3-.3-6.4c-.2-3.5-.1-7 .2-7.8.5-1.1 4-1.3 18.3-1.1l17.8.3zm189.8-116c-.3.8-2.4 8.4-4.7 16.9-2.2 8.5-4.9 18.4-5.9 22s-3.7 13.9-6 23-6.9 26.6-10.2 38.9c-3.2 12.3-5.7 23-5.4 23.7.5 1.2 3.8 1.4 17.8 1.2l17.3-.3v-127l-.5 63-.5 63-15.9.3c-8.8.1-16.3-.1-16.8-.6-.6-.6 1.6-10.2 5-23.3 3.3-12.3 7.9-29.8 10.2-38.9 4.5-17.7 5.6-21.9 12.4-46.5 2.5-8.8 4.3-16.2 4.1-16.4-.3-.2-.7.2-.9 1"/><path d="M633.7 157.6c-.3.3-.6 27.8-.7 61.1 0 33.3-.3 60.9-.5 61.4-1 1.5 5.8 2 21.5 1.7l15.5-.3v-124l-17.6-.3c-9.6-.1-17.8 0-18.2.4m34.8 9.9v9l-16.4.3c-12.5.2-16.6-.1-17.3-1-.9-1.6-1.1-16.2-.1-17.2.4-.3 8.1-.5 17.2-.4l16.6.3zm-7.7 11.2c-4.9.2-12.7.2-17.5 0-4.9-.1-.9-.3 8.7-.3s13.6.2 8.8.3m7.7 51.8v50h-34l-.3-49c-.1-27 0-49.6.3-50.3.3-1 4.4-1.2 17.2-1l16.8.3zm-209-64.8C448.1 179 446 181 439.8 185.1c-3.4 2.1-5.5 3.9-4.7 3.9 2.1 0 11.5-6.6 15.3-10.8 8.4-9.3 16.8-19.4 16.3-19.8-.3-.3-3.5 3-7.2 7.3m-265.3 17.6c-1.6 1.9-4.2 21-5.2 38.6-1.2 18.7.1 34.6 3.5 46.5 4.2 14.4 2.3 12.9 16.9 13l12.8.1 7.1-8.3c4-4.6 10.2-10.9 14-13.9 3.7-3 6.7-6.1 6.7-6.8 0-1.3-11.8-18.1-29.2-41.6-8.9-12.1-23.3-28.9-24.8-28.9-.4 0-1.2.6-1.8 1.3m25.2 28.2c11.4 15.3 29.6 40.4 29.6 41 0 .1-3 2.8-6.7 5.8-3.8 3-10 9.3-14 13.9l-7.1 8.3-11.9-.1-11.8-.1-2.7-7.9c-1.5-4.4-3.2-11.1-3.9-14.9-2.5-14.5-.5-57 3.3-71l1-4 6.5 7c3.6 3.8 11.5 13.7 17.7 22m221.2-18-6.8 8.5.1 39.1c0 21.5.2 39.3.4 39.5 2.2 2.2 6.6-8.6 11.7-29 4.6-18.3 6.9-41.9 5.5-57.9-.9-11.4-2.1-11.4-10.9-.2m10 .2c1.9 20.5-3.5 57.4-11.5 78-1 2.7-2.1 5.7-2.5 6.7-.3 1-.9 1.6-1.2 1.3-.3-.2-.5-17.6-.5-38.6V203l6.7-8.5c3.7-4.7 7.1-8.5 7.5-8.5s1.1 3.5 1.5 7.7M207 189.3c0 .5 5.8 8.6 12.8 18 7.1 9.5 17 23 22.1 30 5.1 7.1 9.9 13.1 10.6 13.3 1.6.6 17.1-8.2 17.9-10.1.8-2.1-58.6-50.1-60.4-49-.5.3-1.3-.3-1.9-1.2-.6-1-1.1-1.4-1.1-1m6.2 4.5c.2.4 8 6.9 17.3 14.3 28.3 22.7 38 30.9 38 31.9 0 1.2-14.7 10-15.7 9.3-.4-.2-4.9-6.1-10-13.1-5-7-13.7-18.7-19.2-26.1-5.6-7.4-10.7-14.2-11.5-15.3-.8-1-.9-1.8-.3-1.8s1.2.3 1.4.8m220.7-.8c-1.3 1.1-2 1.9-1.5 2 .5 0 1.8-.7 2.8-1.7 1.1-1 1.8-1.2 1.8-.4 0 .6-.7 1.4-1.5 1.7-.8.4-1.5 1.3-1.5 2.2 0 1.3.3 1.2 2-.3 3.8-3.5 1.8-6.8-2.1-3.5"/><path d="M420.9 201c-15.6 9.8-47.4 32.5-47.4 33.9 0 .8 1.7 2 3.8 2.7s7.4 3 11.9 5l8.2 3.7 2.3-2.9c2.5-3.1 16.5-21.3 27-35.2 10.2-13.5 8.3-15.9-5.8-7.2m9.6-.3c-1 1.5-5.1 7.1-9.1 12.3-4.1 5.2-11.2 14.6-15.9 20.7l-8.6 11.3-4.7-2.4c-2.6-1.3-7.5-3.4-10.9-4.6-3.5-1.2-6.3-2.6-6.3-3 0-.8 35-25.4 48.5-34.2 7.4-4.8 10-4.8 7-.1m-1.2 7.5c-5 5.4-29.3 37.2-29.3 38.4 0 .7 3 3.4 6.8 6 3.7 2.7 10.6 8.6 15.4 13.2 5.9 5.7 8.9 8 9.3 7.1.3-.8.4-16.2.3-34.2l-.3-32.9zm1.7 32.4v31.7l-8.2-7.9c-4.6-4.4-11.3-10.1-15.1-12.8-4.1-2.9-6.4-5.2-6-5.9 1.2-2.1 28.5-36.7 28.9-36.7.2 0 .4 14.2.4 31.6m-124.5-7.1c-12.5 2.1-22.8 4.9-32.1 8.8-8.9 3.8-19.4 10.2-19.4 11.9 0 1.1 16.4 23.3 20.2 27.3 1 1.1 3.5 4.2 5.6 7 2.1 2.7 9.7 12.6 16.8 22 17.7 23.1 21.6 28.5 20.6 28.5-.5 0-4.5-4.8-8.9-10.8-4.4-5.9-13.7-18.1-20.6-27.1-7-9.1-12.8-16.9-12.9-17.3-.2-.5-11.8-.9-25.8-1h-25.5l-2.9 3.8c-4.3 5.8-11.8 22.2-11.1 24.4.3 1 .2 2.1-.4 2.4-3.2 2-6.3 37.8-3.5 40.6.6.6 6.7 1.5 13.5 2 23.6 1.8 48 5.6 67.9 10.7 5.2 1.3 10.6 2.6 11.8 2.8 1.3.2 2.6.6 3 .9 1.1 1.1-4.3.6-9.3-.9-8-2.5-37.9-8.3-51.4-10-6.9-.9-17.4-1.7-23.5-1.8l-11.1-.2.2 4c.4 5 3.1 13.7 4.8 15 .8.7 4.4.8 9.6.4 10.2-.9 74.9-1.2 75.7-.5.7.8 1.4.8-27.8.6-27.7-.1-54 1.4-55.2 3.3-2.3 3.8 15.8 26.3 30.2 37.4s27.6 17.3 47.8 22.5c12.3 3.2 13.3 3.3 32.2 3.2 15.8 0 20.5-.4 24.7-1.8 2.9-1 5.7-1.5 6.2-1.1 1.3.7 11-1.7 22.1-5.6 15.3-5.4 31.8-15.9 43.4-27.5 7.7-7.7 10-10.8 9.3-12.8-.6-1.4-18.2-6.1-26.7-7-5.5-.6-3.9-.2 11 3.1 13.8 3 15.4 3.7 14.1 6.2-1.9 3.5-15.3 16.2-22.4 21.2-9.2 6.4-21.8 13.3-29.3 16-9.6 3.4-19.3 5.7-21.4 5.2-1.2-.3-4.2.3-6.8 1.3-4 1.5-7.8 1.8-24.7 1.8-19.3 0-20.4-.2-32-3.2-14.2-3.8-22.3-7-32.5-13.1-7.3-4.3-24.4-17-23.8-17.6.2-.2 3.5-1.9 7.4-3.9 12.6-6.4 35.7-13.2 56.9-16.7 6.9-1.2 8.8-1.7 5.1-1.4-3.6.2-5.5 0-5-.5s3.3-1 6.2-1.1 4.9-.6 4.5-1-5.5-.1-11.2.7-10.6 1.3-10.9 1c-.2-.3.3-1.8 1.2-3.3l1.7-2.8-2 2.5c-4.2 5.1-5.3 5.8-11.1 6.9-8 1.6-30 9-38.2 12.9-3.6 1.8-7.3 2.9-8.2 2.6-3.1-1.2-18.3-22.9-16.7-23.8 2.4-1.5 34-2.7 62.8-2.4 17.7.2 32 .1 31.8-.1-.3-.2-3-.7-6.2-1.1l-5.8-.8 6.2.1c3.3.1 5.9-.1 5.6-.6-.2-.4-3.3-.7-6.9-.7-4.9 0-6.4-.3-6.4-1.4s1.1-1.4 3.8-1.3c3.4.2 3.8 0 3.5-1.8-.3-1.3 2.3-5.5 7.8-12.8 4.5-5.9 8-10.9 7.8-11.2-.4-.3-14.2 17.2-17.6 22.4-.2.2-.6.2-.9-.1s3.1-5.4 7.5-11.2c7.6-10 9.9-13.6 6.7-10.3-2.2 2.2-15.4 19.6-15.8 20.9-.3.8-1 .8-2.3 0-2.4-1.2-20.8-5.4-36.5-8.2-13.6-2.4-25.4-3.8-40.8-4.9-6.3-.5-11.9-1.4-12.5-2-2.5-2.5-.2-34.9 2.7-37.8.2-.3 1 .6 1.7 1.9 2.1 4 14.2 20.8 14.7 20.4.2-.3-3.3-5.7-7.8-12.1s-7.9-11.9-7.6-12.2c.3-.4.7-.4.9-.2.1.2 1.6 2.3 3.1 4.7 1.6 2.3 3.1 4 3.3 3.8.4-.4-2-4.2-7.1-11-1-1.4 5.9-15.7 10.7-22.4l3.2-4.4H274l9.7 12.9c5.3 7 15 19.7 21.5 28.1L317 340l-2.7 1.1c-8.6 3.3-19.6 1.3-26.2-4.7-2.1-1.9-5.1-5.8-6.7-8.8-2.1-4-3.2-5.2-4.6-4.8-2.3.6-2.2 1.6.1 6.8 2.8 6.2 8.4 11.9 14.4 14.5 4.2 1.9 6.9 2.4 13.7 2.3 10.2 0 17.2-2.8 23.5-9.3 2.1-2.3 4.3-4.1 4.7-4.1s.8 16 .8 35.5V404l-2.7 1.1c-1.6.6-5 1.3-7.6 1.6-3.4.4-5.1 1.2-5.8 2.6-1.1 1.9-.9 1.9 4.7 1.2 3.3-.5 7-.9 8.4-.9l2.5-.1.6 16 .5 16V425l-.1-16.5h-3c-1.6.1-5.1.4-7.7.9q-4.8.75-4.8-.3c0-.6 1.2-1.1 2.8-1.1 1.5 0 5-.6 7.7-1.3l5-1.3.3-36.4c.1-23-.1-36.7-.8-37.4-.6-.6-2.9.9-6.7 4.6-12.6 12-30.6 13-42.2 2.5-3-2.8-7.6-9.5-8.5-12.5-1.2-3.8 1.2-2.5 3.4 1.8 1.2 2.3 3.7 5.9 5.7 8.1 6.4 7.1 22.2 10 30.3 5.4 1.4-.7 3.9-2.1 5.7-3 1.7-.9 5.4-4.1 8.2-7l5.1-5.4v-20c0-10.9-.3-20.6-.6-21.5-.5-1.4-4-1.6-28.6-1.6-18.3 0-27.7-.3-27.3-1 .4-.6 11-1 28.5-1h27.8l.2-18.2c0-10 .3-18.4.5-18.7.3-.2.5 17 .5 38.2 0 31.5.2 38.7 1.3 38.7 1.4 0 5.7-5.1 19.5-23.1 4.4-5.8 8.8-11.1 9.6-11.8 1.4-1.1 1-2.2-2.6-8.9-5.6-10.5-11.7-19-19.9-27.5-3.7-3.9-6.6-7.3-6.3-7.6s3.9 3.1 8.1 7.4c7.5 7.9 17.6 22 20.2 28.3l1.4 3.3 31.8-.3c20.7-.2 31.9 0 32 .7.1.5.1 10.4 0 21.8l-.1 20.8-3.4 5.2c-1.9 2.9-4.5 6.2-5.8 7.4-3.4 3.1-9.9 6.3-12.9 6.3-6.5 0-14.7-4.8-18.1-10.6-2.6-4.4-5.3-4.6-4.5-.4 2.2 10.8 16.8 17.6 29.3 13.6 4-1.3 6.4-2.9 10.3-7.2 2.8-3.1 5.1-6.3 5.1-7.1 0-.9-1.3.1-2.9 2.3-9.8 13.3-21.4 16-33.3 7.8-4-2.8-8.2-8.6-7.6-10.6.2-.6 1.3.5 2.5 2.4 3 5.1 8.2 8.7 14.6 10 4.7 1 6.1.9 10.3-.7 5.5-2 12.3-8.4 15.4-14.5 1.8-3.6 2-6 2.2-25.9.2-17.8 0-22.2-1.2-23.7-8.9-11.4-19.5-21.2-28.9-26.6l-5-2.9-11.8 14.7c-6.5 8.2-12.1 15.3-12.5 15.8-.4.6-.9.8-1.2.5s4.8-7.3 11.4-15.5 11.9-15.4 12-16c0-2.3-20.1-9.9-35.9-13.5-11.5-2.7-39.7-3.4-52.6-1.4m26.5 1.1c0 1-.5 1.2-1.2.8-.9-.5-.9-.2.1.9 1.7 2.1.8 2.2-2.7.1-2-1.2-1.7-.7 1.1 1.7l3.7 3.4v18.7c0 10.3-.4 18.9-.8 19.2-.5.3-13.6.6-29.2.7l-28.4.1-9.7-12.7c-5.4-7.1-9.6-13.1-9.4-13.5 1-1.6 14.3-9.1 21.1-11.8 13.1-5.4 31.6-9 46.7-9 7 0 8.7.2 8.7 1.4m2.9 1.6c-.1 1.8-.1 3.7.1 4.3.6 2.4-.2 2.8-1.4.7-1.3-2.5-1-8.2.5-8.2.5 0 .9 1.5.8 3.2m21.6-.6c10.7 2.2 20.2 5.3 28.8 9.1 7.2 3.3 8.9 4.6 6.9 5.5-1.1.4-20.6 24.8-22.1 27.5-.6 1.3-1.5 2.3-1.9 2.3-.5 0-2.3-2.8-4.1-6.3-5.2-9.6-11.4-17.9-20.4-27-6.9-7-8.2-8.7-7.9-11.1l.4-2.8 6.6.7c3.7.4 9.9 1.3 13.7 2.1m-14.6 14.6c7 7.5 12.2 14.2 17 22.3l4.2 7-13.3.5-13.3.6 14 .2c17.2.2 17.2 2 0 2.5l-12 .3 13 .1c7.2.1 13.3.2 13.7.2.3.1-.8 1.6-2.4 3.3-1.7 1.8-6.8 8.2-11.4 14.3s-9.9 12.9-11.8 15.1l-3.5 3.9-.1-37.8c0-20.7.2-37.7.4-37.7.3 0 2.7 2.4 5.5 5.2m70.3 11.4c5.9 4.9 14 13.5 16.2 17.1.6 1-5.2 1.3-27.3 1.3H374l11.7-14.8 11.8-14.8 4.5 2.8c2.5 1.6 7.5 5.4 11.2 8.4m-79.4 43.3.2 20.5-6.4 6.3c-3.6 3.5-6.9 6.3-7.3 6.3-.5 0-1.6-1.3-2.6-2.9-.9-1.6-6.5-9.1-12.5-16.7-5.9-7.7-14.3-18.5-18.5-24.2l-7.8-10.2 27.3.2 27.3.3zm-90.9 55.7c11.2 1.4 41.7 7.3 49.4 9.5 2.7.7 3.7 1.5 3.5 2.7-.3 1.6-3.8 1.7-39.8 2.2-21.7.3-40 .9-40.7 1.3-.7.5-1.8-.1-2.7-1.5-2-3.1-4.9-14.5-4-15.9.8-1.4 16.7-.6 34.3 1.7M298 387c-.8.5-2.4 1-3.6 1-6.7 0-40.6 10.4-51.7 15.9-4.3 2-8 3.4-8.2 3.1-.7-1.1 16.2-8.6 28-12.4 15-4.8 28.9-8.2 34.5-8.5 2 0 2.2.1 1 .9"/><path d="M248.9 257.2c-4.4 2.6-21.9 20.5-21.9 22.4 0 1.2 3.7 1.4 22.5 1.4 12.4 0 22.5-.2 22.5-.5 0-.7-18-24.4-19-25-.3-.2-2.2.5-4.1 1.7m15.5 14.8c2.8 3.6 5.5 6.8 6.1 7.2.5.4-8.8.8-20.9.8h-21.9l5.5-6.3c3-3.4 8.5-8.8 12.2-11.9l6.8-5.7 3.5 4.7c2 2.6 5.9 7.6 8.7 11.2m289.2 9.2c.3.5 1 .6 1.5.3 1.3-.9 1.1-1.2-.6-1.2-.8 0-1.2.4-.9.9m-183.4 2.4c-1.3.9-1.2 1.4.1 4.1 2 3.8 4.9 14.6 7.6 27.8 2.1 10.7 4.6 34.9 3.9 38.1-.6 2.3-1.3-2.9-2.7-19.4-1.2-12.9-2.6-20.7-6.8-35.7-2.5-9.2-3.9-11.9-5.4-10.9-.5.3-5.8 6.9-11.8 14.8-6.1 7.9-12.8 16.3-15.1 18.7l-4 4.3v14.2c0 11.9.3 14.5 1.6 15.9 1 1 2.6 1.4 3.8 1.1 1.6-.4 32.6-.9 40.4-.6.7 0 1.2 1.3 1.2 3 0 2.2-.5 3-1.7 3-1 0-4 2.9-6.6 6.5-2.7 3.5-7.1 8.9-9.8 12-5.4 6.2-6.1 9.1-2.6 12.2 3.4 3.2 19.1 13.1 24.3 15.4 2.5 1.1 4.4 2.3 4.1 2.5-1.1 1.1-13.7-5.2-21.6-10.7-4.6-3.2-9.1-5.9-9.9-5.9s-4.6 2-8.6 4.4c-3.9 2.5-8.8 5.2-10.8 6.1L336 406l.2 17.8.2 17.7.3-17.2.3-17.3 3.8-1.5c2-.9 7-3.7 11-6.2l7.4-4.5 8.4 5.7c4.6 3.2 8.4 6.2 8.4 6.7s-1.6 4.1-3.5 8c-2 3.9-3.3 7.3-3 7.6.2.3 2.1-3.1 4.2-7.4 2-4.3 3.8-8.1 3.9-8.2.1-.2 1.7.3 3.6 1.2 6.6 3 10.9 4.5 10.3 3.6-.3-.4.1-1 .7-1.3.7-.2-1.6-1.8-5-3.6-5.5-2.8-6.3-3.5-5.8-5.4 2.3-9.3 3.7-23.3 3.3-32.2-.7-12.4-3.3-39.8-4.7-48.5-1.7-10.3-7.1-31.2-8.7-33.6-.9-1.5-1.1-2.4-.4-2.9.6-.3 14.3-.7 30.3-.8 29.5-.1 25.7-.5-10.1-.9-12.6-.2-19.9.1-20.9.8m2.8 21.3c3.3 13.1 5.6 28.7 6.2 41.6l.3 8-20 .5c-11 .3-20.6.1-21.2-.4-.9-.6-1.3-4.7-1.3-14.7 0-13.3.1-13.9 2.4-16.1 2.5-2.4 10.5-12.3 21.6-27 7.7-10.2 7.3-10.5 12 8.1m8.6 70.3c-.4 6-1.3 14.1-2.1 18.1-.7 3.9-1.2 7.3-1 7.6.2.2.6-.7.9-2 2.1-9.7 2.7-15.1 2.9-24.8.1-6.1.5-11.1 1-11.1 2.1 0-.8 34.9-3.3 38.9-.5.9-3.2-.5-9-4.6-10.2-7.1-11.1-8.4-8.5-11.6 1.1-1.4 5.6-7 10-12.5s8.4-9.7 8.9-9.4.6 5.3.2 11.4m-183.1-90c.4 1.3 2.4 6.1 4.4 10.8 4.3 9.9 6.3 11 9 4.5.9-2.3 3.1-6.6 4.9-9.8 1.7-3.1 3.2-6.1 3.2-6.7s-4.2-1-11.1-1c-11 0-11 0-10.4 2.2m15.3 8.8c-2.8 5.5-5.4 9.8-5.9 9.5-.9-.6-3.6-6.3-7-14.8L199 284h19.7zm-102.6 2c-.1 6.3.3 14.6.8 18.5 1.2 8.2 8 36.8 8.7 36.2.2-.3-.7-5-2.1-10.5-4.9-19-5.8-24.8-6.5-40.2l-.8-15.5z"/><path d="M113.5 292.2c-.4 4.7-.1 11.6.9 19.4 1.6 12 6.9 35.5 8.8 38.4.6 1.1.7.9.3-.8-6.9-24.9-10.1-45.4-9-57 .4-3.9.4-7.2.2-7.2-.3 0-.8 3.3-1.2 7.2m408.4 2c0 15-2 31.8-4.5 38.2-.5 1.3-.4 1.7.3 1.3.6-.4 1.4-2.1 1.7-3.9s.8-4.4 1.1-5.8c1.9-9.8 3.5-39 2-39-.3 0-.5 4.2-.6 9.2m-88.1 10.5c-.4 25.3-.1 50.4.7 51.1.3.4 3.5.5 7.1.4 4.2-.2 7.1.1 8.2.9 1.4 1.1 1.5 1.1.5-.1-.9-1-.9-1.8-.1-3.4.8-1.3 1.2-7.1 1.2-15.1 0-11.1-.4-14.5-2.7-23-2.8-10.2-11.2-28.7-13.4-29.3-.8-.2-1.2 4.7-1.5 18.5m7.2-6.5c7.2 15.2 9.4 24.4 9.4 40.5.1 15.6-.1 16-8.9 16.5-5.9.3-5.9.3-6.5-2.7-.9-5.1-.4-64.5.6-64.5.3 0 2.7 4.6 5.4 10.2m-9.9 53.8c0 10 .2 18 .5 17.7.6-.6.6-34.9-.1-35.5-.3-.3-.5 7.7-.4 17.8m45.4 4.2c-13.2.5-24.1 1.1-24.3 1.2-.7.8-4.2 14.8-3.8 15.5.3.5 4.2 1.1 8.7 1.5 11.5.9 31.7 5.2 43.4 9.1 11 3.7 28.1 11.2 27.3 12.1-.3.3-3.7-.9-7.4-2.6-15.1-6.9-33.8-12.4-52.4-15.4-14.1-2.2-21.1-2.4-22.1-.6-.4.8-2.4 4.3-4.4 7.8-2 3.4-3.5 6.9-3.3 7.8.2 1 4 3.1 9.6 5.4 13.4 5.5 31.2 16.5 31.2 19.2 0 .6-1 .2-2.2-.9-6.9-6.3-26.5-16.6-37-19.4l-4.6-1.3-8.3 8.9c-7.9 8.3-18.9 17.4-27.1 22.4-2.1 1.2-3.8 3-3.8 3.8 0 1.7 6.4 14 8.6 16.4.8.9 3.2 1.9 5.3 2.2 2 .2 22.4 5.9 45.2 12.5s49.8 14.3 60 17.2l18.6 5.2 10.4-5c22.7-10.9 44.9-19 61.4-22.3 20.7-4.1 45.9-.9 63.5 8.1 12.6 6.4 13.2 6.6 23.5 10 5.5 1.8 15 5.7 21 8.8 11.1 5.5 29 16.7 31.4 19.6 2.5 3 4.1 1.9 4.1-3 0-4.7-.4-4.9-4.1-1.8-1.3 1.2-2.7.6-10-4.2-12-7.9-27.6-15.6-41.6-20.4-6.7-2.2-15.2-5.8-19-7.8-8.8-4.8-10.8-5.6-22.8-8.7-14.9-3.9-31.6-4.4-46-1.6-16.1 3.2-41.3 12.3-62.7 22.5l-9.7 4.6-28.3-7.9c-15.6-4.4-38-10.8-49.8-14.3l-21.5-6.3-.5-17.5-.6-17.5-.4 12-.4 12-.6-12-.6-12V436c-.1 9.7.2 14.6.6 12l.7-4.5.1 5.3c.2 4.7 0 5.3-1.5 4.8-10.1-3-19.9-5.6-21.3-5.6-.9 0-2.4-.8-3.3-1.8-1.5-1.7-8.7-14.5-8.7-15.5 0-.3 1.7-1.6 3.8-2.8 8.2-5 19.1-14.1 27-22.4l8.4-8.8 5.6 1.8c9 2.8 21.6 9.4 30.8 16.2l3.1 2.3-7.3 7.7c-4 4.3-7.1 7.9-6.8 8.2.2.2 3.6-3 7.5-7.3 4.2-4.4 7.8-7.5 8.8-7.4 1 .2 1.6-.4 1.6-1.7.1-1.2 2.1-4.8 4.6-8 6.1-8 14.3-20.4 13.8-20.9-.2-.3-2.3 2.3-4.6 5.7-8 11.7-9.9 14.4-12.3 17.4l-2.5 2.9-8.4-5.4c-4.6-3-13.2-7.4-19-9.9s-11-4.9-11.5-5.3c-.5-.5.5-3 2.1-5.7 1.7-2.7 3.3-5.9 3.7-7 1.2-3.7 2.6-4.1 11.6-3.2 20.5 2.1 46.9 9.1 63.2 16.9 7.8 3.7 9.7 3.8 8.5.6-.7-1.7-19.9-9.9-30.8-13.1-10.7-3.2-30.5-7.2-40.2-8.1-4.3-.4-7.9-1-8.2-1.4-.2-.3.5-3.6 1.6-7.2l1.9-6.6 18.8-.8c10.3-.5 76.9-.9 147.9-.9 71.1 0 129.3-.3 129.3-.8 0-1-242.7-.6-272.5.5m271.5 145c0 3 0 3.1-2 1.3-1.9-1.7-1.9-1.9-.2-3.1 2.3-1.8 2.2-1.8 2.2 1.8"/><path d="m438.7 357.7-5.7.4.6 5.7c.4 3.1.9 5.9 1.2 6.2s.2-2-.1-5.1l-.5-5.7 6.1-.5c3.4-.2 6.6-.1 7.1.4.5.4.1 3.3-1 6.6l-1.9 5.8-21.5.5-21.5.6 22-.1h21.9l1.9-6.3c2-6.8 1.8-9.3-1-9-1 .1-4.4.3-7.6.5m-94.9 1c-3 .7-2.1 3.1 4.5 11.5 3.4 4.4 6.8 8.9 7.6 9.9 2.6 3.6 4.9 2.2 13.6-8.4 4.7-5.6 8.5-10.8 8.5-11.5s-1.4-1.2-3.2-1.3c-17.5-.4-29.6-.5-31-.2m30.5 1.2 2.8.1-4.5 5.7c-2.5 3.2-6.6 8-9 10.8l-4.5 5-1.8-2.1c-8.6-10.2-14.4-18.7-13.3-19.4 1-.6 10-.7 30.3-.1m373.9 64.6c-.1 36.8-.2 67.6-.2 68.2 0 .7-1.3 1.9-3 2.8-1.6.9-3 2-3 2.5 0 1.4 6.8-3.3 7.2-5 .2-.8.1-31.7-.2-68.5l-.5-67zm-412.2-44c-.1 18.5.1 21.6 1.5 22.1 1.6.6 14.2-6.2 18.3-9.9 3.3-3.1 2.8-6.5-1.9-12.2-2.3-2.8-6.8-8.7-10.1-13.3-3.3-4.5-6.4-8.2-6.8-8.2-.5 0-.9 9.7-1 21.5m8.1-10.5c3.4 4.7 7.7 10.3 9.6 12.4 3.9 4.6 4.1 6.5 1.1 9.2-3.9 3.5-15.9 10.5-16.9 9.9-.5-.4-.9-9.5-.9-20.7 0-11.1.2-19.9.4-19.7s3.2 4.2 6.7 8.9m567.2 10.3c13.8 17.6 24.1 36 33.9 60.7 8.4 20.9 12.3 40.3 13.7 68.9.7 12.7.8 13.4.9 5.5.2-10.2-1.1-25.3-3.4-38.9-1.5-9.3-6.1-27.2-7.4-29-.4-.6-1.1-2.1-1.5-3.5-2.6-8.9-14.1-32.9-21.3-44.5-6.5-10.4-19.2-27.5-20.5-27.5-.5 0 2.1 3.7 5.6 8.3m-509-5.7c.3.3 8.9.7 19 .9 10.2.1 19 .6 19.6.9 1.3.8-.6 4.9-5.1 11.3l-3 4.1-3.9-1.3c-3.3-1.2-27.3-6.5-29.3-6.5-.4 0-.5.4-.2.8.2.4 1.9.9 3.7 1 4 .3 23.4 4.7 27.1 6.1 2.4.9 3.1.7 5.3-1.7 4-4.3 8.2-12.9 6.9-14.2-.7-.7-8.5-1.3-20.9-1.6-10.9-.2-19.6-.1-19.2.2M146 401.5c.1 2.1 30.5 36.5 32.2 36.5.6 0-1.7-3-5.2-6.8-13.4-14.2-15.8-16.9-20.4-22.7-6.1-7.6-6.6-8.1-6.6-7m229.1 14.1c-1.7 3.7-2.9 6.9-2.6 7.2s1.9-2.5 3.6-6.3c1.6-3.7 2.8-6.9 2.6-7.2-.3-.2-1.9 2.6-3.6 6.3M69 442l-27.5.5 26.8.5c14.8.3 27 .4 27.2.2.1-.1 20.2-.2 44.6-.2 52.8.1 66.2 0 66.8-.6.2-.2-5.2-.4-12-.4s-31.7-.2-55.4-.3c-23.6-.1-55.4 0-70.5.3m264.8 16 .3 8.7-7.3 4.1c-4 2.2-10.2 6.2-13.7 8.9-3.5 2.6-7.1 5.3-8 6-1.2.9-2.8.9-6 .2-2.5-.5-5.4-.8-6.5-.7-1.2.2.5.7 3.7 1.2 7.3 1 7.5 2.4.2 1.6-3-.3-5.5-.2-5.5.2s2 .8 4.5.8 4.5.3 4.5.6c0 .4-4.2 5.1-9.4 10.4-9.3 9.7-14.7 16.6-15.9 20.5-.6 1.9-.6 1.9.6.1 5.1-7.9 23.8-28.2 33.5-36.2 5.3-4.4 14.9-10.7 21-13.8l5.2-2.6v-9c0-4.9-.3-9.1-.7-9.3-.5-.3-.7 3.4-.5 8.3m51.8-2.9c-13.5 1.1-26 4.1-38.6 9.3l-10.5 4.4v17.7l6.5-.2c15.4-.4 43.9-7.2 61.3-14.5 7.7-3.3 4.8-3-3.9.3-11.6 4.5-25.6 8.5-36.4 10.4-13.8 2.4-21.1 3.5-24.2 3.5H337v-15.9l3.3-1.5c9.5-4.4 21.1-8.5 27.7-10 7.9-1.7 27.3-3.5 31.8-3l2.7.4-2.5-.9c-2.9-1-1.8-1-14.4 0M686.3 478c7.6 9.6 10.5 22.2 7.3 31.8-3.2 9.5-12.6 17.7-23.3 20.2-7.8 1.8-19.3-1.4-30.9-8.6-6.5-4-7.7-4.4-13.5-4.4-3.5 0-9.3.5-12.9 1.1-6.3 1-6.7 1.2-12.5 7.6-13.4 14.9-21.4 29.5-25.8 47.3-6 24.8-4.2 36.9 9.8 64.1 4.8 9.4 20.7 23.9 27.8 25.4 8.4 1.8 25.4 6.9 36.4 11 7.4 2.7 13.9 4.5 16.5 4.5 2.7 0 3.9.3 3.2 1-.5.5-12.8 1.4-27.4 2-44.9 1.8-58.8 4.9-69.4 15.5-10.8 10.8-12.5 25.7-4.1 34.9 4.8 5.3 6.5 4.8 6.5-1.9 0-6.3 2.8-14.1 7.1-19.9 3.5-4.8 3.9-3.2.5 1.9-3.8 5.6-5.9 13-5.3 18.8.6 6.6 2.2 7.7 11.3 7.7h7.2l-.2-8.3c-.1-10 1.5-13.9 9-21.5 6-5.9 5.8-6.9-.4-1.7-2.2 2-5.3 6.1-6.9 9.3-2.4 4.8-2.8 6.9-2.7 13.4l.1 7.8h-6.8c-5.9 0-7-.3-8.3-2.2-3.9-5.5 0-18.9 7.8-27.6 3.1-3.4 3.4-4.1 1.9-4.6-2.4-1-8.8 5.7-12 12.3-1.5 3.4-2.8 8.2-3.2 12.5l-.7 7.1-3.7-3.9c-4.6-4.9-6.1-9.4-5.4-15.8 1.1-9 8.5-18.7 18.6-24.2 6.5-3.5 20.4-6.3 37.9-7.6 17.1-1.3 60.1-1.7 83.2-.8 9.6.4 15.7.3 13.5-.1l-4-.8 4.5-.3c6.2-.4 2.9-.8-14-1.9-15.5-1-17.6-1.5-33.5-8.6-21.3-9.5-29.2-16.7-52.2-47.4-7.1-9.5-7.1-9.5-5-11 2.3-1.6 16.3-13.4 44.7-37.6 9.1-7.8 21.1-18 26.7-22.7l10.3-8.7 7.2 4.1c16.4 9.2 30.9 21 40.4 32.8 2.7 3.2 5 5.7 5.3 5.5.8-.8-5.3-8.1-13.8-16.4-11.1-10.7-19.8-17-32.9-23.7-2.9-1.5-4.9-3.1-4.5-3.4 3.6-3.2 36.7-31.2 39.7-33.7 2.2-1.8 3.8-3.5 3.5-3.7-.3-.3-7.9 5.8-16.9 13.5-9.1 7.7-22.3 18.8-29.5 24.7-7.1 5.9-17.7 14.7-23.4 19.7-5.7 4.9-12.3 10.6-14.6 12.5-2.4 1.9-12.8 10.7-23.2 19.4-10.3 8.8-19.7 16.6-20.7 17.5-1.1.9-1.7 1.1-1.5.4s8.1-7.7 17.6-15.7c17.5-14.6 22.2-18.6 36.7-31.1 10.5-9.1 25.7-21.9 32.1-27 2.8-2.2 11.3-9.4 19-16s16-13.7 18.5-15.7c2.5-2.1 4.1-3.8 3.5-3.8-.5 0-7.5 5.5-15.4 12.3-30.1 25.6-30.2 25.6-32 24.7-4.9-2.6-16.2-7.2-16.6-6.8-.3.3 3.5 2.2 8.5 4.3 4.9 2.1 8.7 4.1 8.4 4.6s-1.3.4-2.2-.1-5.3-2.7-9.7-4.7-8.4-3.9-8.9-4.1c-.5-.3-.6 0-.2.6.7 1.2 1.9 1.8 13.3 6.7l6.1 2.7-9.1 7.6c-5.1 4.2-12.8 10.8-17.3 14.6-12.1 10.6-18.3 15.8-35.9 30.6-8.8 7.4-16.3 13.8-16.6 14.2-.3.5-3.9-2.5-8-6.7-7.8-8.1-18.2-16.4-23.8-19.1-3.2-1.5-3.3-1.8-2.8-5.8 2.2-15.2 13.5-36.8 27.3-52 5.7-6.3 6.3-6.7 12-7.6 10.7-1.8 18.1-1.3 21.7 1.4 5.2 3.9 12.7 7.3 21.4 9.6 8 2.2 8.3 2.2 15 .6 8.2-2.1 12-4.3 17.1-10.1 4.4-5.1 7.2-12.6 7.2-19.6 0-6.1-3.3-16.3-6.8-20.8l-2.5-3.4 3 .6c1.7.3 8.2 2.9 14.5 5.7 22.3 10.1 44.5 25.2 44.1 30.1-.1 1.3-.2 18.7-.3 38.6 0 20-.4 36.3-.9 36.3-.4 0-3.1-2.9-6-6.5-10.1-12.4-28.3-27.1-42.9-34.4-6.8-3.5-5.9-1.9 1.1 1.9 14.2 7.6 29.2 20.1 44.5 37.3l4.3 4.8v60.1c0 68.6 1.1 61.1-9.8 64.9-4.8 1.7-9.8 2.2-28.8 2.9-39.2 1.5-59.1 4.3-93.5 12.9-18.1 4.5-19 4.3-19-3.9 0-6.3 4-13.9 10.2-19.5 6.3-5.7 5.9-6.8-.5-1.4-6.6 5.7-9.8 11.6-10.4 19.2-.4 5.1-.2 6.6 1.3 8.5l1.9 2.2 18-4.4c35.4-8.7 52.3-11.1 92-12.6 19.4-.7 24-1.2 29.5-3 11.3-3.8 10.1 3.8 10.1-65.1-.1-115.6-.1-135.9.5-138.7.5-2.5 0-3.4-3.8-6.6-6.6-5.8-19.5-14.1-29.7-19.2-12.4-6.2-28.5-12.5-28.9-11.3-.3.6-1.1.5-2-.3-1-.7-.5.3 1.1 2.2M585 590.9c7.8 5.7 22.7 21.3 30.8 32.1 14.3 19.2 26.5 33.2 33.1 37.8 9.2 6.5 35.7 18.2 41.1 18.2 1 0 2.1.4 2.4.9.3.4-4.9.8-11.4.7-6.6-.1-12-.4-12-.9 0-.4 1.1-.7 2.5-.7 1.7 0 2.5-.5 2.5-1.8 0-1.2-2.1-2.6-7-4.6-3.9-1.6-11-5.5-15.9-8.7-7.2-4.8-10.7-8-18.3-17.1-13.3-15.9-24.8-31.4-24-32.3q.6-.6-.3-.3c-.5.1-1 .1-1-.2-.1-1.4-23.5-22.5-28.1-25.3-3-1.7-5.4-3.5-5.4-4 0-.9 5.5 2.2 11 6.2m-7.1-1.7c4.9 2.9 9.1 6.5 19.1 16.4 9.9 9.8 9 8.7 16.4 18.9 22.8 31 34.5 41.8 53.9 49.5 3.1 1.2 5.7 2.6 5.7 3.1 0 2-13.3-.7-25.5-5.1-7.1-2.6-17.7-5.9-23.5-7.4-14.5-3.7-18.2-5.8-28-15.6-7.2-7.2-9.3-10.1-13.7-19-6.8-13.7-8-17.4-9.3-27.6-1-7.7-.6-15.4.7-15.4.3 0 2.2 1 4.2 2.2M710.5 681c1.4.6-.4.9-5.5.9-4.1 0-8.4-.4-9.5-.9-1.4-.6.4-.9 5.5-.9 4.1 0 8.4.4 9.5.9M587 705c-2 1.3-3.3 1.3-2.5 0 .3-.6 1.4-1 2.3-1 1.5 0 1.5.2.2 1"/><path d="M594.6 622.1c-5.3 4.4-9.6 8.5-9.6 9 0 1 7.2-4.9 16.4-13.3 7.3-6.6 3.1-4-6.8 4.3m5.5-1.3c-8 6.9-14.9 13.7-12.5 12.1 4.1-2.7 18.4-15.1 18.4-16 0-1.3.1-1.3-5.9 3.9M337.3 488.7c-.9.3-1.3 3.5-1.3 10.9 0 5.7.2 10.4.5 10.4s3.3-1.2 6.7-2.6c25.7-10.8 55.5-12.5 79.7-4.5 3.5 1.1 6.8 2.1 7.3 2.1.4 0 .7-3.3.6-7.3l-.2-7.2-.3 6.7c-.2 3.8-.5 6.8-.7 6.8-.1 0-3.2-1-6.7-2.1-14.9-4.9-36.6-6.3-53-3.4-8.2 1.4-21.7 5.5-29.1 8.9L337 509v-9.5c0-10.6-.4-10 8.5-10.8 3.1-.3 2.7-.4-1.5-.5-3 0-6.1.2-6.7.5m548.7 8.9c-5.8 1.1-7 1.5-7 2.5 0 .6.9.5 2.3-.3 3.1-1.8 28.1-1.8 29.9 0 .7.7 1.3 3.4 1.3 6 .1 13 .5 15.9 2 15.9 1.2 0 1.5-1.9 1.5-10.4V501l2.8.6c1.5.4 3.1 1.1 3.7 1.5.5.5 1.5.9 2.2.9 2.7 0 18 10.8 22.9 16.2 5.4 5.9 12.8 15.8 11.8 15.8-.3 0-2.5-1.4-5-3.1-16.5-11.3-39.7-12.8-58.9-3.8-13.2 6.2-24.8 18.7-30.8 33.4-6.5 16.1-7.2 21-7.1 53.7 0 16.4-.2 29.8-.4 29.8s-2.4-1.8-4.9-3.9c-2.4-2.2-8.5-6.7-13.4-10.1l-8.9-6.1v-29.2c0-31 .8-41.7 4.1-52.2 4.5-14.7 15.9-29.3 28.9-37 7.4-4.4 14-5.4 23-3.6 9.8 2 11.6 2.2 10 1.2-2.6-1.6-16.8-3.4-22.3-2.8-11.9 1.2-27.9 14.6-35.5 29.7-7.9 15.8-8.5 19.6-9 59.6l-.4 35.2 9 6.1c5 3.4 11.1 8 13.5 10.2 2.5 2.1 5.1 3.9 5.9 3.9 1.2 0 1.4-4.8 1.4-30.3-.1-33.5.7-39.2 7.3-54 4.8-10.6 14.2-23.4 16.3-22.1.4.3-.5 1.9-2.2 3.6-7.3 7.2-12.4 17.1-16.7 32.2-2.6 8.9-2.7 9.9-2.9 41.8l-.3 32.8 3.4 4c10.1 12.1 18.4 29.8 21.6 46.3 1.8 8.6 2 12.7 1.6 26.2-.9 26.4-6.1 46.4-18.9 72.2l-7.1 14.3.2 26c.2 17.6-.1 26-.8 26s-1.2-7.9-1.4-23.3l-.2-23.2-.3 23.2-.2 23.3h-19.5c-10.7 0-19.5-.3-19.5-.7 0-.3 5.1-5.8 11.3-12.2 14.5-14.9 28-32.2 26.4-33.8-.3-.2-1.1.6-1.8 1.9-2.8 5.3-15.1 20.1-26.3 31.6-8.2 8.4-11.6 12.6-10.9 13.3.6.6 17.3.9 49.9.7 47.8-.3 49-.3 53.6-2.5 6.3-2.9 13.8-10.1 16.8-16 5.6-11 5.3-5.8 5.7-115l.4-101.1 6.4-4.2c16.9-11 25.8-27.3 25.9-47.5.2-17.2-4.1-27.5-15.8-38-4.2-3.8-9-7.7-10.8-8.8-5.2-3.2-16.2-6.5-23.5-7.2-12.4-1.2-29.8 3.9-39.3 11.5-2.1 1.7-4.1 2.7-4.3 2.3-.9-1.4 10.4-9.1 17.2-11.8 18.9-7.6 39.8-5 55.4 6.9 2.6 2 4.7 3 4.7 2.3 0-.6.7-.3 1.5.7 3.1 4.1 1.3.2-2.8-6.2-9.5-14.7-23.9-26.5-37.3-30.6-3.3-1-7.2-2.2-8.9-2.8-3.3-1-22.5-1.9-26.5-1.2m28.9 13.1-.2 9.8-.9-7.4c-.8-6.8-.5-12.1.7-12.1.3 0 .4 4.4.4 9.7m24.4 19.6c6.9 2.6 14.5 7.1 15.3 9.1.9 2.3-4.5 35.7-7.7 47.6-2.4 9.3-10.1 34.3-12.6 41-.4 1-.2 1.2.5.5 1.2-1.2 8.9-25.4 13.1-41.5 1.7-6.3 4.2-19.1 5.6-28.4 1.3-9.3 2.7-17.1 3-17.4 1-1.1 10.7 9.3 13.3 14.3 3.7 7 5.1 11.9 5.8 20.5 1.6 19.3-8.2 39-25 50.2-3.3 2.3-6.3 4.3-6.6 4.5-.3.3-.7 46.2-1 102.1-.5 91.4-.7 102.2-2.2 106.4-3.7 10.6-10.9 19.1-20 24-4.1 2.2-5.3 2.3-31.5 2.6l-27.2.3-.3-25.3-.3-25.3 4.3-8.5 4.3-8.5 5.7.1 5.7.1-5.2-.4c-2.9-.2-5.3-.8-5.3-1.3s1.3-3.8 2.9-7.2c8.6-18.8 13.9-44.2 14.2-68.2l.1-12.9 6.2-7.6c3.5-4.2 9.1-11.8 12.5-16.8l6.3-9.3-.1-72.2c-.1-39.7-.4-72.4-.7-72.7s-.4 32-.4 71.8l.2 72.2-5.2 7.7c-6.2 9.3-18.3 25.1-19.1 25.2-.4 0-1.2-2.8-1.8-6.3-3.4-17.2-12.7-37.2-22.1-47.2l-2.9-3 .3-32.5c.2-31.8.3-32.7 2.9-41.7 6-21.1 16.3-34.4 33.1-43 13-6.6 28.9-7.7 41.9-3"/><path d="M956.5 547.7c-2.6 22.3-5.5 35.4-14.2 63.8-6.8 22.2-16.4 44.8-23.4 55.3-1.6 2.4-3.5 6.1-4.2 8.3-.6 2.1-1.5 3.9-1.9 3.9s-3.1 3.5-5.9 7.7c-2.9 4.3-8.1 11.3-11.6 15.5-3.5 4.3-5.9 7.8-5.3 7.8 1.3 0 12-13.5 17.4-21.9l4.1-6.4.3 18.4c.1 10.1.6 18.7 1 19.1s.6-2.8.5-7c-.9-26.5-.8-32.2.5-32.2.6 0 1.2-.9 1.2-2 0-2.5 2-7 4.1-9.1 1.6-1.6 7.3-13.1 13.9-27.9 3.4-7.7 12.9-36 14.6-43.5.3-1.7 1.7-6.7 3-11.2 3.1-10.9 8.5-44.3 7.1-44.3-.2 0-.8 2.6-1.2 5.7m-68-45.8c2.2.4 5.1 1.1 6.5 1.5 1.9.6 2.2.5 1.4-.3-.6-.6-3.5-1.3-6.5-1.6-4.6-.4-4.8-.3-1.4.4M268.9 514c-.7 11.5-2.7 20.2-7 29.7-1.1 2.4-2.4 5.5-3 7l-1 2.8-2.2-3c-4.5-6.3-13.4-14.8-20.2-19.4-10.3-6.9-19.4-9.6-32.5-9.6-9.2 0-23.8 2.1-22.6 3.2.2.2 3.8-.3 8-1.1 22.2-4.6 39.9.8 56.6 17.4 9.9 9.9 12.3 12.7 11.7 14.3-.2.6-1.7-.9-3.4-3.4-4.6-6.7-16.3-17.2-23.5-21.2-9-5-16.6-7-27.3-6.9-8 0-25.3 2.7-24.2 3.9.3.2 3.5-.3 7.3-1.1 13.6-3.1 27.1-2.5 36.7 1.6 9.8 4.1 20.7 12.5 27.2 20.9 2.2 2.8 4.6 5.8 5.3 6.5 1.2 1.2.9 2.2-1.3 6.2-4.5 7.9-10.7 17.2-11.4 17.2-.3 0-2.6-.5-5.1-1.1-15.3-3.6-31.7-2.8-43.5 2.2-10.3 4.3-25.5 16.3-25.5 20.2 0 .6 1.6-.8 3.5-3 4.6-5.5 15.6-13.3 23-16.6 10.5-4.6 27.6-5.3 42.5-1.8 2.5.6 5 1.1 5.7 1.1 1.4 0 11-15.2 15.1-24.1 9.1-19.8 12.4-32 12-44.5l-.3-8.9zm481.9 35.7c-.1 20.3-.2 38.1-.1 39.8 0 1.6.1 29.5.2 61.9l.1 58.9 2.1-1.9c4.7-4.2 8-10.6 10.9-21.1 3.9-14 4.9-23.9 3.9-39.4-.9-15.2-5.1-31.3-11.3-43.4-5.2-10.1-5.1-9.9-3.7-9.1 2.2 1.4 8.9 16.2 12 26.6 6.6 22.5 6.7 46.1.2 66.9-1.6 5.2-1.7 6.3-.5 6.8 3.8 1.4 25.2-18.5 30.7-28.5 6.3-11.7 10.5-33 9.2-46.9-.3-3.2-.8-8.5-1.1-11.8-1.9-20.3-10.2-43-22.7-62.3-8.9-13.8-25.5-33.2-28.4-33.2-1.1 0-1.3 6.7-1.5 36.7m16.6-19.2c21.2 26.4 31.6 49.6 35.1 78.5 3.6 30.8-1.9 52.4-17.8 69.5-6.9 7.5-19.7 17.7-19.7 15.8 0-.5 1.1-5.3 2.6-10.8 4.9-19.4 4.2-42.2-2.1-62.9-3.2-10.4-8.3-22-12.3-27.6-1.6-2.3-1.7-5.5-1.4-40.9l.3-38.4 4 3.9c2.3 2.1 7.3 7.9 11.3 12.9m-4.2 94.4c3.5 12.2 5 30.7 3.6 43.9-1.7 15.6-8.6 34.5-13.8 37.7-.7.4-1-18.4-1-54.2l.1-54.8 4 8.5c2.3 4.7 5.5 13.2 7.1 18.9M155 519.1c-13.3 1.1-39.3 4-40.7 4.4-2.1.7-.3 3.5 2.6 4.2 17.4 4.2 33.8 21.2 40.2 41.7 1.8 5.7 2.3 6.5 3.8 5.6 1.3-.7 2-2.7 2.5-7.7 1.2-12.2 5.5-30.8 8.5-37.4 1.7-3.5 3.2-7.5 3.3-8.9.3-2.4 0-2.5-5.2-2.6-3-.1-9.8.2-15 .7m19.4 2.1c-.3 1.3-1.9 5-3.5 8.3-2.9 6.4-6.4 20.9-8.3 35.3-.6 4.9-1.5 8.5-2.1 8.3-.5-.2-2.1-3.6-3.5-7.5-3.2-9-8.5-17.8-14.7-24.1-6.5-6.7-11.5-10-19.8-12.9-3.8-1.3-7.1-2.8-7.2-3.3-.5-1.3 39.9-5.8 54.5-6.2 5.1-.1 5.3 0 4.6 2.1m414.1 1.2c-11.8 3.4-23.3 8.2-34.3 14.4-5.3 3-10.8 6-12.2 6.8-5.8 3.2-18.4 12-18.8 13.2-.2.7 2.7 2.6 7.5 4.8 10.7 4.9 20.2 9.5 30.2 14.8 8.6 4.6 10.1 4.8 10.1 1.8 0-2.8 5.7-19.7 8.6-25.5 3.9-7.6 10.9-18.3 16.5-25 7-8.4 6-9.1-7.6-5.3m10.5-.9c0 .3-2.2 3.2-4.8 6.4-10.3 12.3-18.1 27.6-22.8 44.3-1 3.8-2.2 6.8-2.6 6.8s-6.1-2.9-12.7-6.5c-6.7-3.6-12.3-6.5-12.6-6.5s-4.9-2-10.3-4.5l-9.6-4.6 8.9-5.8c21.4-13.7 41.3-23.5 56-27.7 8.4-2.4 10.5-2.7 10.5-1.9m367.3 3.2c3.1.2 8.3.2 11.5 0 3.1-.2.5-.3-5.8-.3s-8.9.1-5.7.3M48 527.1c-3.9.3.1.6 10 .6 16.1 0 17.5-.4 3.5-.9-3.8-.2-9.9 0-13.5.3m916.5-.1c-1.6.4 1.7.5 7.5.2s10.7-.6 10.9-.8c.8-.7-15.3-.2-18.4.6M485 572.3c-9.1 4-21 12.6-30.1 21.8-6.3 6.4-17.7 23.5-19.4 29-.4 1.3 2.4-2.7 6.1-9 4.3-7 9.6-14.1 13.9-18.6 8.2-8.5 21.6-18.6 28.9-21.8 9.5-4.3 10.1-4.6 9.1-4.6-.5-.1-4.4 1.4-8.5 3.2"/><path d="M205.5 579c-6.5 1.4-14.9 4.8-19.8 8.1-6.1 4-14.7 11.8-14.7 13.2 0 .6 2.1-.9 4.8-3.4 13.7-13.2 23.7-17.4 41.2-17.3 9.7 0 13.3.5 23.1 3.2 10 2.7 28.2 8.8 35.9 12 1.4.6 6.3 2.5 11 4.2 35.4 13.1 37.4 14.3 55.5 32.4 20.6 20.6 25.2 29.6 20.7 40-1.2 2.5-2.5 4.6-3 4.6s-1.2-2.2-1.6-4.8c-.3-2.7-1.9-6.9-3.5-9.4-2.9-4.5-8.8-9.8-10.9-9.8-2.5 0-2.1 2.2.8 4.6 7.3 6.2 11.9 16.6 9.8 22.4-1 2.9-6.8 6.4-11.8 7.1-2.4.4-2.5.1-3.2-6.2-.4-4.8-1.4-7.8-3.3-10.7-3-4.6-8.5-9.2-10.9-9.2-2.7 0-1.8 2.6 1.9 5.4 4.9 3.8 8.4 10.2 8.7 16.2l.3 4.9-5.5-.1c-9.6-.2-23.9-8.3-29.6-16.6-1.6-2.4-5-7.1-7.6-10.6-2.7-3.5-4.8-6.9-4.8-7.7 0-.7-1.1-3.5-2.4-6.2-3.7-7.4-7.3-20.5-10-35.8-1.3-7.7-2.4-13.2-2.5-12.1-.3 5.1 4.5 28.4 7.9 38.1 6.3 18.2 7 19.8 11.8 26.2 2.6 3.4 5.9 8 7.4 10.1 3.6 5.2 12 10.7 21 13.8 6 2.1 8.4 2.5 14.6 2 4.2-.2 9.8-1.4 12.8-2.6 4.5-1.9 5.5-2.8 6.3-5.6 1.9-6.7-2.6-17.5-9.6-23.3-2.1-1.7-3.2-3.1-2.5-3.1 2.3 0 9.1 7.1 11.6 12.3 1.4 2.8 2.6 6.5 2.6 8.2 0 1.8.3 3.5.6 3.8 1.5 1.5 4.4-1.6 5.9-6.4 1.5-4.4 1.6-6 .6-10.3-2-8.9-6.6-15.3-22-30.6-16.5-16.5-18.1-17.5-42.1-26.8-48.3-18.8-65.6-24.1-81.5-24.7-5.5-.2-11.8 0-14 .5m125.8 86.2c5.6 5.7 7.7 10.3 7.6 17l-.1 5.3-1.3-6.8c-1.6-7.9-4.1-12.4-9.3-16.6-2-1.7-3.1-3-2.4-3.1.7 0 3.2 1.9 5.5 4.2m-170.7-39c.4 9 .8 16.5 1 16.7.5.6 19.9-3.2 20.9-4.1.7-.7.3-.8-1-.4-3.3 1-18.7 3.7-19 3.4-.8-1-1.3-30.8-.6-30.8.5 0 1.7 2.1 2.5 4.8 3.1 9.3 13.4 21.2 18.4 21.2.9 0-.5-1.3-3.1-2.9-5.5-3.6-10.9-10.5-13.9-18.4-1.6-3.9-2.8-5.7-4-5.7-1.7 0-1.8 1.2-1.2 16.2"/><path d="M354.7 637.7c-.3.2 1.6 3.2 4.2 6.6 5.9 7.8 8 12.4 8.8 18.7 2.1 17.7-22.9 32.3-43.7 25.5-13-4.2-21.4-10.7-29.4-22.8-2.2-3.2-4.8-6.5-6-7.2-5.3-3.4-46.8-11.5-79.6-15.6-4.1-.5-10-1.4-13.1-2-4.8-1-7.2-.8-18.8 1.6-7.3 1.4-13.9 2.4-14.7 2.1s-1.2-.2-.9.3c.6 1.1-1 1.6-7.2 2.6-4.9.8-8.3 2.9-6.8 4.3.6.6 20.7 7.6 44.8 15.6 24 8 47.9 16.1 53 18 5 1.8 19.1 6.8 31.2 11 12.1 4.3 24.6 8.8 27.8 10l5.9 2.3 6.6-2.4c3.7-1.4 8.3-3.1 10.2-3.8 1.9-.8 25.6-8.6 52.5-17.5 27-8.8 49.7-16.5 50.5-16.9s3.9-1.4 6.8-2.1c6.3-1.7 6.6-3.8.7-5.5-2.2-.7-8.5-2.6-14-4.4-5.5-1.7-17.9-5.1-27.5-7.6-9.6-2.6-21.8-5.9-27-7.4-11.6-3.5-13.8-4-14.3-3.4m9.4 2.9c2.4.8 16.1 4.6 30.4 8.5 14.3 3.8 28.3 7.8 31 8.8 2.8 1.1 6.6 2.2 8.6 2.5 1.9.4 4.4 1.2 5.4 1.9 1.6 1.2 1.3 1.5-3.1 2.6-2.7.7-5.8 1.7-6.9 2.2s-27.4 9.4-58.6 19.7c-31.1 10.4-57.4 19.4-58.4 19.9-1.5.9-3.1.6-7-.9-2.7-1.1-9.9-3.8-16-5.9-6-2.1-18.2-6.3-27-9.5-25.3-9-100.4-34.4-106.5-36-3-.8-5.9-1.9-6.4-2.5-1.6-1.5.8-3 5.7-3.4 2.5-.2 5.4-.8 6.4-1.3 1-.6 7.8-2.2 15.2-3.7 11.8-2.4 14.2-2.6 19-1.6 3.1.6 9 1.5 13.1 2 30.7 3.8 70.6 11.4 77.2 14.8 1.6.7 5.2 4.8 8.2 9.1 8.7 12.4 14.5 16.7 28.1 21.2 12.5 4.2 25.7 2.2 36.8-5.7 5-3.5 9.7-12 9.7-17.6 0-5.7-2.9-13.4-7.5-20.2-4.8-7-4.5-7.5 2.6-4.9"/><path d="M161.2 651.5c0 1.6.2 2.2.5 1.2.2-.9.2-2.3 0-3-.3-.6-.5.1-.5 1.8m269 11.5c0 1.4.2 1.9.5 1.2.2-.6.2-1.8 0-2.5-.3-.6-.5-.1-.5 1.3m1.9.6c0 1.1.3 1.4.6.6.3-.7.2-1.6-.1-1.9-.3-.4-.6.2-.5 1.3m-98 32c0 1.1.3 1.4.6.6.3-.7.2-1.6-.1-1.9-.3-.4-.6.2-.5 1.3m242.8-55c-1.3 1.4-5.2 4.9-8.7 7.6-3.5 2.8-6.1 5.3-5.8 5.6.3.2 2.5-1.1 4.8-3 8.4-6.9 13.3-11.6 12.7-12.2-.3-.3-1.6.6-3 2m-438.1 15.1c-4.2 4.8-5.3 8.7-5.3 18.3 0 7.5.5 10.8 2.3 15.7 4.5 11.8 10.6 16.3 32.7 24.3 5 1.8 20.7 7.6 35 13s33.4 12.6 42.5 16 21 7.9 26.5 10c23.7 9.1 26.5 9.9 26.5 8.2 0-.4-.9-5.4-2-11.1-3.1-16-1.1-26.3 7.2-35.6 3.9-4.5 3.2-5.4-7.2-8.9-4.1-1.3-15.4-5.3-25-8.7-51.1-18-84.1-29.2-84.6-28.6-.3.2 3.7 1.8 8.8 3.5 7.8 2.5 22.5 7.6 53.3 18.2 28.3 9.9 54.2 19.3 54.9 20 .6.6.2 1.8-1.2 3.3-3.9 4.2-7.2 11.8-8.2 19-.8 5.9-.7 9.1.9 17.7 1.1 5.8 1.8 10.6 1.7 10.7-.4.4-57.4-20.4-66.1-24.2-2.2-.9-9.4-3.7-16-6.1s-12.9-4.9-14-5.4c-2.8-1.2-17.3-6.6-28.5-10.4-13.3-4.6-23.9-9.7-28.3-13.5-5.6-5-9.8-14.6-10.4-24-.6-8.7.6-13.7 4.5-18.9 2.1-3 2.9-3.3 5.6-2.8 2.7.6 35.1 10.9 38.4 12.2.6.3 1.2.2 1.2-.3s-3.3-1.9-7.2-3.1c-4-1.2-12.9-4-19.8-6.2-14.2-4.5-16.1-4.7-18.2-2.3m414.5 3.9c-.6.3-3.1 2.4-5.5 4.7s-7.9 7.3-12.3 11c-15.7 13.4-23.3 25.1-22.2 34.1.9 6.9 1 6.9 21.6 4.6 10.1-1.1 19.8-2 21.7-2 3.1 0 3.5-.4 6-6 3.3-7.5 11.2-15.1 19.6-19 8.7-4.1 27-6.9 49.1-7.7 15.6-.5 17.7-.8 17.7-2.3 0-1.3-3.2-2.6-13.2-5.8-18.5-5.8-23.9-7-39.6-9.2-13.8-1.9-40.7-3.4-42.9-2.4m42.9 3.4c7.5 1.1 17.4 2.9 22 4 11.2 2.9 29.8 9.1 29.8 10 0 .4-7.8 1-17.2 1.3-24.4.9-43 4.2-52.8 9.2-6 3.1-13.2 10.7-16 17l-2.8 6-20.8 2.2-20.9 2.2-1.7-2c-5.6-6.6 2.1-20.6 19.5-35.6 5.6-4.8 12.2-10.8 14.7-13.1l4.5-4.4 14 .7c7.7.4 20.1 1.5 27.7 2.5"/><path d="M534 661.5c-19.7 4.3-35.5 13.4-41.9 24-5.3 8.7-4.7 19.4 1.6 25.9 3.9 4 5.9 4.8 13.6 5l5.2.1-.4-6.8c-.6-12.3 5.5-21 27.7-40 5.6-4.9 10.2-8.9 10.2-9.1 0-.9-10.5-.3-16 .9m12.9.2c0 .5-3.2 3.3-7 6.3-10.1 7.9-23.1 21.7-25.9 27.5-1.9 3.8-2.5 6.8-2.7 12.5l-.2 7.5-5.6-.3c-6-.2-8.3-1.5-12.4-6.4-11-13.4 3-33.7 29.9-43.2 9.2-3.3 24.1-5.7 23.9-3.9m-389 19.5c-.1 11.2-.2 21.5-.3 23s.1 2.5.5 2.2c.8-.5 1.2-45.4.4-45.4-.3 0-.6 9.1-.6 20.2m2.9-14.5c-.6 6.9-1 41.9-.5 41.3.5-.5 1.7-46 1.2-46-.2 0-.5 2.1-.7 4.7m24.2 4c1.9.8 4.2 2.1 5 2.7 1.4 1.3 13.7 6.4 40 16.8 6.9 2.7 13.4 5.3 14.5 5.8s8.1 3.2 15.5 6 15.1 5.8 17 6.5c1.9.8 5.3 1.9 7.5 2.6 2.2.6 4.5 1.5 5 1.9 2.2 1.5 9.5 3.9 9.5 3.1 0-.5-1.2-1.2-2.7-1.6-1.6-.3-4.1-1.3-5.8-2.1-1.6-.7-6.8-2.7-11.5-4.3-14.8-5.1-78.8-30.6-80-31.9-.5-.5 1.9 0 5.5 1.3 1.1.3.7-.1-.8-1-1.6-.9-3.7-1.3-4.8-1-1.3.4-4.2-.6-8.3-2.9-3.5-2-7-3.6-7.8-3.5-.7 0 .3.7 2.2 1.6m606.1 5.6c-6.2 7.5-14.4 14.7-24.2 21.1-6.1 4-15.6 15.3-14.2 16.7.4.4 18.9 1 41.1 1.1 46 .3 41.6 1.4 38.7-9.6-3.1-12-7.3-20.1-13.1-25.6-5.3-5-16.3-11-20.3-11-1.2 0-4.3 2.8-8 7.3m15.6-3.3c13.6 6.4 22.7 19.5 25.9 37.2l.6 3.8H753l4.6-5.9c2.5-3.3 7.1-7.6 10.3-9.7 9.8-6.4 18-13.6 24.2-21.1 3.3-4 6.6-7.3 7.2-7.3.7 0 4 1.3 7.4 3m-366.2 36.1c-6.6 2.2-12.4 4.5-13 5.1-.7.8-.4.9 1 .3 4.7-1.7 24.2-8.3 26-8.8l2-.5h-2c-1.1-.1-7.4 1.7-14 3.9m370.9 77.6-5.9 8.8-8.2.3c-4.6.2-8.3-.1-8.3-.5 0-.5 1.7-1.6 3.8-2.6 6.8-3.1 16.7-8.8 18.7-10.8 1.8-1.8-.9-.4-18.5 9.6-3 1.7-5.4 3.6-5.2 4.1.1.5 4.4.9 9.4.9h9.3l5.2-7.5c4.3-6.3 6.9-11 5.9-11-.1 0-2.9 3.9-6.2 8.7m-762.1-4c4.2.2 11.2.2 15.5 0 4.2-.1.7-.3-7.8-.3s-12 .2-7.7.3m0 3c4.2.2 11.2.2 15.5 0 4.2-.1.7-.3-7.8-.3s-12 .2-7.7.3m924.8 32.8c-1.1 2-2.1 3.8-2.1 4s-2.9 4.2-6.4 8.8c-3.5 4.7-6.8 9.2-7.3 10-.6 1.1-2.8 1.7-7.3 2l-6.5.3 7.3.2c3.9.1 7.2-.2 7.2-.7s2.7-4.6 6.1-9.1c7.2-9.8 12.3-17.9 11.6-18.6-.2-.3-1.4 1.1-2.6 3.1m-22.8 37.1c-5.9 8.4-14.8 18.1-31.5 34.6-7.1 6.9-12.5 12.9-12 13.2 1.1.6 74.1 1 74.8.3.3-.2-2.8-.5-6.8-.5s-20.9-.1-37.6-.1L908 903l7.7-7.1c14.9-13.5 42.6-45 41-46.6-.3-.3-2.7 2.6-5.4 6.3m-203.1 3.6-.2 6.8-14.7.2-14.8.2 16 .6 16 .5.3 10.5c.4 17.2.9 18.6 1 2.7 0-11.7-.3-14.7-1.4-14.7-.9 0-1.4-1.9-1.7-6.8l-.3-6.7zm-109.4 7.5c8.4.2 21.9.2 30 0 8.1-.1 1.2-.3-15.3-.3s-23.1.2-14.7.3m-12.9 2.4c-.5.3 13.9.5 32.1.4 18.1 0 33.1-.3 33.4-.6.7-.7-64.4-.5-65.5.2"/><path d="M702.1 868.4c.4.4 9.9.7 43.1 1.5l2.7.1.4 12.7.3 12.8-.1-13.3v-13.4l-23.5-.4c-12.9-.3-23.2-.3-22.9 0m-587.3 1.3c-2.2.5-2.2.8-.3 16.1.8 6.7 2.6 22.2 3.9 34.3 1.4 12.2 2.8 22.4 3.1 22.7.8.8 27.4 1.9 27.3 1.2-.1-.3.1-1.2.5-2 .8-2.2 14.5-61.7 15.3-66.9.5-3.1.3-4.5-.7-5.1-1.4-.9-45.9-1.1-49.1-.3m48.5 4.8c-.2 5.1-14.2 65.6-15.5 67.2-1.2 1.5-22.4 1.8-24.7.4-.8-.5-1.8-5.3-2.7-13.7-.8-7.1-2.6-22.7-4-34.8-2.1-18.1-2.3-22-1.2-22.7.7-.5 11.9-.8 24.8-.6l23.5.2zm690.7-3.8c0 1.9 5.6 32.7 10.1 55.3 2 9.9 3.7 16 4.7 16.7 1.8 1.5 27.7 1.8 28.6.4.3-.5 1.5-12.5 2.6-26.7 1.1-14.3 2.5-30.3 3-35.8.6-5.4 1-10.2 1-10.7s-11-.9-25-.9c-22.8 0-25 .2-25 1.7m48.6 4c-.9 7.8-1.6 15.5-3.6 41.6-1.1 13.6-2.2 25.2-2.5 25.8-1 1.4-26 1.2-27.3-.4-.5-.6-1.9-5.5-3-10.7-2.4-11.1-11.2-58.2-11.2-59.9 0-.8 7-1.1 24.1-1.1h24.1z"/><path d="M890.1 912.6c-4 3.1-7 5.9-6.7 6.2.5.5 14.6-10.4 14.6-11.3s-.7-.5-7.9 5.1m-370.8-27.7c-11.1 7.5-21.6 14.8-23.5 16.3l-3.3 2.7 5 .2c12.7.4 141.7 0 142.1-.4.3-.3-31.9-.5-71.5-.4-39.7 0-72.3-.2-72.5-.4-.3-.2 9.6-7.1 22-15.4 12.3-8.2 22.4-15.2 22.4-15.7 0-1 2.3-2.5-20.7 13.1m-348.1 18.8c4.8.2 12.9.2 18 0 5.1-.1 1.2-.3-8.7-.3s-14.1.2-9.3.3m592-.1c.7.6 90.8.8 91.4.1.3-.3-20.2-.5-45.7-.6-25.4 0-45.9.2-45.7.5m-3.9 2.6c.7.4 22.8.7 49.2.6s41.9-.4 34.5-.5c-33.6-.7-84.7-.7-83.7-.1m148.6.1c.4.4 17.6.6 38.2.5l37.4-.3-38.2-.5c-21-.3-37.9-.2-37.4.3m-808 9.5c-17 10.7-34.3 22.4-34.7 23.4-.2.4-.8.8-1.3.8-1.3 0-22.2 14.1-21.7 14.6.3.2 12.6-7.6 27.4-17.4s29.7-19.6 33.2-21.7c3.5-2.2 7.3-4.8 8.5-5.7 4.7-3.7.4-1.5-11.4 6M751.4 939c0 17.3.2 24.4.3 15.7.2-8.6.2-22.8 0-31.5-.1-8.6-.3-1.5-.3 15.8m-3-873.5c0 6.6.1 9.2.3 5.7.2-3.4.2-8.8 0-12-.2-3.1-.3-.3-.3 6.3m2.5-8.8c-.2 1.6-.1 6.8.2 11.8l.6 9V65.7c0-6.4-.1-11.7-.2-11.7-.2 0-.4 1.2-.6 2.7M430.2 469.5c0 6.1.3 9.2.8 8 .6-1.7.8-1.4 1.2 1.5.3 1.9.5-1.7.5-8s-.2-10.4-.5-9l-.5 2.5-.8-2.5c-.4-1.5-.7 1.5-.7 7.5m1.5 3.2c-.2 1.6-.4.3-.4-2.7s.2-4.3.4-2.8c.2 1.6.2 4 0 5.5m213.1-6.1c-12.6 1.6-24 4.8-30.5 8.5-11.1 6.3-21.5 16-28 25.8-.3.4-16.3-5-17.8-6-1.4-1-26.5-8.9-27.9-8.8-.6 0 4.1 1.8 10.4 3.9s17 5.8 23.6 8.2l12.2 4.5 4.6-6.4c13.3-17.9 35.1-28.4 59.2-28.7 5.6-.1 10-.4 9.8-.7-.8-1.4-6.3-1.4-15.6-.3m18.3 7c.9 1 2.9 4.3 4.4 7.2 2.3 4.4 2.9 7 3.2 14.5.5 8.2.2 10-2.1 16.1-2.9 7.6-3.2 9.3-1.1 5.6 3.3-5.8 4.7-13.3 4.2-22.4-.4-7.5-1-9.8-3.8-15.4-1.9-3.6-4.1-6.8-4.9-7-1.2-.4-1.2-.2.1 1.4m-517.2 96.1c-2.4 2-6.5 5.6-9 8l-4.6 4.4-42.9.1c-24.2.1-37.9.4-31.4.8 10.7.6 11 .6 4 .9-4.1.2-9.1.2-11 .1s-3.2.1-2.9.4 17.1.7 37.5 1c20.3.2 38.3.5 40 .5l3.2.1-3.7 3.7c-2 2.1-9.3 9.9-16.1 17.3-6.9 7.4-16.1 17.2-20.4 21.7-4.4 4.6-7.7 8.5-7.4 8.8.5.5 48-49.8 48.6-51.5.2-.6-2-1-5-1-9.1 0-24.1-1-24.7-1.6-.3-.3 6.9-.4 16.1-.3l16.8.3 5.7-5.5c3.2-3 7.3-6.7 9.2-8.2 1.8-1.5 3.1-3 2.9-3.2-.3-.3-2.4 1.2-4.9 3.2M99 583.9c0 .8-28 .4-28.9-.5-.2-.2 6.2-.4 14.2-.4 8.1 0 14.7.4 14.7.9m43-7.2c-8.7 8.3-9.5 9.1-34.4 35.7-8.8 9.4-18.2 19.5-21 22.3-2.7 2.9-4.7 5.5-4.4 5.8s11.5-11.3 24.9-25.7 25.1-26.9 26-27.8c.9-.8 5.5-5.2 10.3-9.8 4.9-4.5 8.4-8.2 7.9-8.2-.6 0-4.7 3.5-9.3 7.7m-40.5 139.2c1.7.3 14.5.4 28.5.1l25.5-.6-28.5-.1c-15.7 0-27.1.2-25.5.6m-3.5 2.3c0 .5 12.9.7 28.8.6 30.4-.2 27.6-.6-7.6-1-11.6-.2-21.2 0-21.2.4m27.3 78.5c5.9.2 15.4.2 21 0 5.6-.1.8-.3-10.8-.3-11.5 0-16.1.2-10.2.3m-.3 2.4c-8.5.4-5.8.5 10.5.5 12.1 0 20.4-.1 18.5-.2-8.1-.8-18.2-.9-29-.3m623.5-42.6c0 20.9.1 29.6.2 19.3.2-10.3.2-27.4 0-38-.1-10.6-.2-2.2-.2 18.7m3 0c0 20.9.1 29.6.2 19.3.2-10.3.2-27.4 0-38-.1-10.6-.2-2.2-.2 18.7m-322.2-9c0 15.4.3 27.1.6 26s.4-13.7 0-28l-.6-26zm15.9-23.4c.6 2.5.8 9.6.5 16.4-.5 9.9-1.1 13.4-3.5 20-4.3 11.8-4.5 12.2-2.8 9.3.9-1.5 2.8-6 4.3-10 2.5-6.7 2.7-8.6 2.7-22.5.1-10.3-.3-15.6-1.1-16.4-.9-.9-.9-.1-.1 3.2"/><path d="M447.6 727.1c.3 4.1.7 8.2.9 9.1.5 3-1.5 18.1-3.2 23.3-2.2 6.9-9.7 23-12.2 26.1-1.2 1.5-2.1 4-2 5.8l.1 3.1.7-3c.4-1.7 1.9-4.8 3.3-7 3.2-5.2 9.5-19.1 11.3-25.2 2.2-7.4 3.2-19.9 2.4-29.6-.4-4.8-.9-9.1-1.2-9.4-.4-.3-.4 2.8-.1 6.8m286.7 2.3c-5 5.1-11.2 10.8-13.7 12.6s-4.4 3.5-4.1 3.8c.6.6 7.3-4.4 12.7-9.5 7.7-7.3 15.2-15.2 14.7-15.7-.2-.3-4.5 3.7-9.6 8.8m-398.1 38.3c-.1 10.9-.6 17.3-1.2 17.3-.7 0-.9-5.7-.6-16.6.3-9.2.3-16.4 0-16.1-.4.3-.7 5.7-.9 11.9s-.4 12.5-.4 14l-.1 2.7-5.8-2.7c-3.2-1.5-9.5-4.9-14-7.6-4.6-2.7-8.5-4.6-8.8-4.3-.6.5 8.1 5.6 21.3 12.5 7.2 3.6 7.3 3.8 7.4 7.7 0 2.2.4 4.9.9 6 .6 1.3.7.6.3-2.4-.6-4.2-.5-4.3 1.8-3.6 1.3.4 2.9 1.1 3.4 1.5.6.4 1.8 1 2.8 1.3 3 1.1 1-.9-2.3-2.3l-3-1.2-.3-17.7-.2-17.6zm93.5 13.6c.5 4.1.2 5.2-2.2 8.3-1.5 1.9-2.5 3.8-2.2 4 .7.8 4.7-4.6 5.3-7.2.3-1.3.1-4.1-.4-6.1-1.1-3.8-1.1-3.8-.5 1M988.2 49.8c-.2 44.4 0 50.3 1.3 50.9 4.5 1.7 21.2 29.8 28.5 47.8 1.8 4.4 3.9 8.6 4.6 9.4 1.6 1.8-5.1-14.4-10.8-25.9-5.1-10.3-15.9-27-19.9-30.7l-2.9-2.8V52h17.3c14.8 0 17.4-.2 17.4-1.5s-2.6-1.5-17.3-1.5H989l-.3-24.8c-.1-13.6-.3-2.1-.5 25.6m26.1.9c-4.5.2-12.2.2-17 0-4.8-.1-1.1-.3 8.2-.3 9.4 0 13.3.2 8.8.3m-466-11.2c0 4.4.2 6.1.4 3.7.2-2.3.2-5.9 0-8-.2-2-.4-.1-.4 4.3m433.5 41.3c-2.1.2-3.8.8-3.8 1.3 0 1.7 5.1 7.9 6.5 7.9 1.2 0 2.7-8.9 1.5-9.4-.3 0-2.2 0-4.2.2m3 5.2.3 3.5-3.1-3.2c-3.7-3.9-3.7-4.5-.2-4.1 2.3.3 2.7.8 3 3.8M26.6 150.5c-4.3 9.1-7.5 16.9-7.2 17.2.2.3 1.1-1 1.9-2.8 3.7-8.5 8.1-17.9 10.8-23.3 1.6-3.2 2.8-6.3 2.7-6.8-.2-.6-3.9 6.5-8.2 15.7m-2.8 130.2c2.3.2 5.9.2 8 0 2-.2.1-.4-4.3-.4s-6.1.2-3.7.4m966.9 0c-.3.5 3.4.7 8.1.5 15.3-.4 17-.8 4.5-1-6.7-.1-12.4.1-12.6.5m11.3 2.3-12.5.6 12.2.2c7.3.1 12.4-.2 12.8-.8.3-.6.5-.9.3-.8s-5.9.5-12.8.8m-983.2.7c3.4.2 8.8.2 12 0 3.1-.2.3-.3-6.3-.3s-9.2.1-5.7.3m-5.5 156c4.3.2 11 .2 15 0 4-.1.5-.3-7.8-.3-8.2 0-11.5.2-7.2.3m2 3c3.7.2 9.7.2 13.5 0 3.7-.2.6-.3-6.8-.3s-10.5.1-6.7.3M14 694l13.4.5-4.2 3.6c-2.3 2-4.2 3.9-4.2 4.3 0 .5 1.6-.6 3.6-2.4 6.2-5.4 4.8-2.6-1.8 3.8-3.5 3.3-7.4 6.9-8.8 8.1-1.4 1.1-1.9 2-1.2 2.1.7 0 5.9-4.5 11.5-10s10.8-10.1 11.7-10.4c.8-.2.4-.4-.8-.5-1.3 0-3.3.9-4.3 2.1l-2 2.3.6-2.3.6-2.2-13.8.2-13.8.2zm-5.8 88.7c4.8.2 12.9.2 18 0 5.1-.1 1.2-.3-8.7-.3s-14.1.2-9.3.3m984.8.2c2.4.4 3.1.9 2.2 1.5-.7.4-2.5.5-4 .1-2.5-.6-2.6-.5-.8.8 1.6 1.1 1.7 1.7.6 3.6-.6 1.3-1 2.5-.7 2.7.2.3 1-.9 1.7-2.5 1.4-3.6 4.2-4.4 12.5-3.6 3.2.3 5.7.3 5.3 0-.3-.3-2.3-.8-4.4-.9-8.4-.8-8.6-1-1.9-1.6 6.6-.6 6.4-.6-3.5-.7-5.8 0-8.9.2-7 .6M8.2 785.7c4.8.2 12.9.2 18 0 5.1-.1 1.2-.3-8.7-.3s-14.1.2-9.3.3m981.9 59.7c.2.3 6 .6 12.9.9 6.9.2 11 .1 9.2-.3-3.5-.8-22.8-1.3-22.1-.6M1.3 903.7c-.6.5 6.5.7 15.9.6 9.3-.1 17.2-.4 17.4-.6.8-.8-32.1-.8-33.3 0M32.5 961c-.3.5-.2 1 .4 1 .5 0 1.3-.5 1.6-1 .3-.6.2-1-.4-1-.5 0-1.3.4-1.6 1m625.3 18.2c1.1 1.8 3.2 5.5 4.7 8.1s3 4.6 3.2 4.3c.7-.7-8-15.6-9-15.6-.5 0 0 1.5 1.1 3.2m2.4-1c.8 1.3 3.6 6 6.3 10.6 2.6 4.6 5 8.1 5.2 7.8.7-.7-11-20.6-12-20.6-.5 0-.3 1 .5 2.2m88 9.5-.2 12.2-4.5-2.4c-2.5-1.4-6.6-3.7-9.2-5.1-2.7-1.4-6.2-3.4-7.8-4.4-3.6-2.2-8.5-4.2-8.5-3.4 0 .3 1.7 1.2 3.8 2.1 2 .8 4.8 2.3 6.2 3.3s6.5 3.9 11.3 6.4c6.4 3.4 8.9 4.3 9.3 3.3.2-.7.3-6.5.1-12.8l-.3-11.4zm2.8-9.5c-.3 15.4-.2 27 .2 27.3.3.3.6-6.2.7-14.5.1-8.2-.1-15-.4-15s-.5 1-.5 2.2"/></g></svg>