<svg xmlns="http://www.w3.org/2000/svg" width="1365.333" height="1365.333" preserveAspectRatio="xMidYMid meet" version="1.0" viewBox="0 0 1024 1024"><g fill="#000" stroke="none"><path d="M279.4 1.7c-2.9 4.7-3.4 13.2-3.9 60.8-.3 26.9-.5 53.7-.3 59.5.2 12.9 0 124.2-.3 132.6-.4 10.3-3.5 9.5 33.6 9.4 17.9-.1 33.1.2 33.8.7.6.4 3.5.9 6.2 1 2.8.2 7.7.8 11 1.3 3.3.6 8.7 1.2 12 1.4s7.8.7 10 1.1c2.2.3 7.2.8 11 1 3.9.2 9.7.8 13 1.3 3.3.6 8.7 1.3 12 1.7s6.7.9 7.5 1.2c2.2.8 7.1 1.4 10.5 1.3 1.7 0 5 .4 7.5.9 2.5.6 10.4 1.2 17.5 1.5 7.2.2 14.4.9 16 1.5 1.7.5 6.6 1.4 11.1 2 7.3.9 14.5 2.7 19.9 5.1 1.1.4 5.8 2.3 10.5 4.1 17.1 6.6 32.3 16 38 23.5 2.7 3.5 10.4 12.7 12.9 15.4 12 12.8 21.3 30.2 22.5 42 .3 2.5 1.1 6.6 1.9 9.2s1.3 4.9 1 5.2c-.3.2.3 1.6 1.3 3 .9 1.5 1.4 2.9 1 3.3-.3.3-.1 1.2.5 2 .7.7 1.3 5.1 1.4 9.6.1 4.6.8 9.3 1.4 10.6 1.2 2.1 4 19.3 4 23.7-.1 2.6.6 5.2 1.4 6 .4.4.7 2.4.7 4.5s.5 4.1 1 4.4c.6.3 1 3 1 5.8 0 2.9.7 7.1 1.5 9.5 1.5 4.1 3.5 15 3.8 20.2.2 2.4.5 2.5 13.2 4.2 16.5 2.2 19.5 2.7 22 3.8 1.1.4 5.2 1.7 9 2.8 3.9 1.1 9.1 2.8 11.7 3.7 8.2 3 10.4 1.9 20-9.6 4.6-5.6 8.5-10.8 8.7-11.7.2-1 .8-2.3 1.4-3.1 2.1-2.5 14.6-10.2 18.3-11.3 8.3-2.3 18.4 2.2 18.4 8.2 0 1.6.4 3.1 1 3.5.5.3.6 1.5.1 2.8-1.2 3.4-1.4 15.4-.1 16.2.6.3.7 1.2.3 1.8-.6 1-2.3 33.8-1.7 34.5.1.2 3.1.8 6.6 1.3s8.8 1.3 11.8 1.9c3 .5 8.4 1.2 12 1.5s8.8.9 11.5 1.4c14.7 2.7 17.5 3.1 21.6 3.1 2.4 0 9.4 1.2 15.4 2.6 6.1 1.4 12.7 2.8 14.8 3.1s4 1 4.3 1.4c.3.5 1.5.9 2.8.9 1.2 0 2.6.4 3.2.8.8.8 4.9 1.8 17.9 4.4 5.8 1.1 11 2.5 24.5 6.2 3 .9 7.6 2 10.2 2.6 2.6.5 8 2.1 12 3.4s9.9 3.1 13 4c3.1 1 6.2 2.4 6.9 3.2.6.8 1.7 1.4 2.4 1.4s1.8.7 2.5 1.5 1.9 1.5 2.8 1.5 4.1 2 7.1 4.3c3.1 2.4 6.8 4.7 8.2 5 1.4.4 5 2.9 8 5.7 2.9 2.7 5.7 5 6.1 5 1 0 14.8 14.3 14.8 15.3 0 .4.9 1.7 2 2.9s2 2.8 2 3.5.5 1.3 1 1.3c.6 0 1 .9 1 1.9 0 1.1.5 2.3 1 2.6.6.3 1 1.7 1 3s.4 2.6.9 2.9 1.1 1.8 1.3 3.3c.3 1.6 1.3 6.3 2.2 10.6 1.3 6.1 1.6 11.3 1.2 25.5-.8 34.1-2.9 40.5-18.7 56.3-5.6 5.6-11.6 10.7-13.4 11.5-3.8 1.5-5.1 4.5-5.9 12.9-.3 3.3-.8 7.1-1.1 8.4-.7 3.6-.7 59.9 0 61.1.4.7 9.5.9 25.8.6 13.9-.2 30.3-.5 36.5-.5l11.2-.1V0H652.2C299.3 0 280.4.1 279.4 1.7m103.3 50.6c1.4 1.4 1.8 3.6 1.8 12v10.2l3.8.1c2.1.1 5.6-.2 7.7-.6 2.5-.5 3.7-.4 3.3.2-.3.6.3.7 1.8.2 1.3-.4 3.3-.7 4.4-.7 1.1.1 4.7.4 8 .6 9.8.6 13.4 2 11.4 4.3-.6.8-.8 1.4-.3 1.4.4 0 .3.5-.3 1.1-.9.9-.8 1.8.4 3.5 1.2 1.9 1.3 2.7.4 3.8s-.9 1.9 0 3.4 1 5.9.2 18.8c-1.4 23.2-1.4 98.8 0 103.7.5 2 .7 4 .3 4.4s-5.1.9-10.4 1c-5.3.2-11.5.5-13.7.7-2.2.3-7.8-.2-12.5-1-6.7-1.2-9.3-1.3-12-.4-3.4 1.1-16.6.9-34.6-.6l-7.2-.6.5-4.1c.2-2.3.9-5.8 1.4-7.7.7-2.2.8-11.2.4-24.5-.8-26-.9-51.4-.4-71 .2-8.3 0-24.1-.5-35.3-.8-16.6-.7-20.7.5-22.8l1.4-2.6 21.2.4c18.6.3 21.5.5 23 2.1m183 2.4c4.1 2.2 3.8 1.1 4.4 14.8.1 2.7.4 5.4.7 6 1.2 1.9 1.3 8.7.2 10-.8 1-.8 1.5 0 2s.8 1.1.1 1.9c-.6.7-.8 1.6-.4 2 1 1 1 19.9 0 21.3-.4.6-.3 1.4.3 1.8.6.3.7 1.2.3 1.8-1.1 1.7-1.2 8-.2 9.3.5.6.5 2.5 0 4.2-.5 1.8-.6 3.4-.2 3.6 1.3.9 1.1 6.9-.3 8.5-1.6 1.8-1.7 2.7-.5 5.8.5 1.3.4 2.5-.1 2.8s-.5 1.8-.1 3.3.5 3.8.4 5.2c-.2 1.4-.4 3.3-.3 4.2v12.3c0 3.8 0 9 .1 11.5 0 2.5-.1 8.5-.2 13.5-.2 9.3 0 11.6 1.4 12.6.4.3.5 1.2.2 2-.6 1.6-5.9 2-25.5 2.3l-11.5.1-.3-3c-.3-4.4-.3-3.8.2-20 .3-8.3.7-16.6 1-18.5.2-1.9.4-13.9.5-26.5 0-43.8.3-74 .8-78 .5-4.7.5-5.7-.2-11-.8-6 .3-6.9 9.2-7.5 11.6-.8 15.8-.5 20 1.7m86.8-.8c4 .7 9 .9 11.5.5s23.2-.8 46-.9c22.8-.2 44.5-.6 48.2-.9 9.6-.9 11.4 0 12.3 6.6.7 5.7.9 14.8.3 26.8l-.3 7.5-15.5-.2c-8.5-.1-40.2-.4-70.5-.8-30.2-.3-56.1-.7-57.5-.9-1.4-.1-4.1-.4-6-.5-5.6-.2-6.4-1.3-6.6-8.3-.6-20.1-.6-27.9 0-28.6 2-1.9 27.3-2.1 38.1-.3m-156.9 7.6c2.6.4 5.1 1.6 6.7 3.3 2.3 2.5 2.5 3.7 3.1 14.2.3 6.3.6 23.8.7 38.8s.4 27.4.8 27.6c1 .7 1.2 70.9.1 72.6s-14.2 2-28.5.6c-10.2-1-11-1.2-9.6-2.9.6-.8 1.1-2.9 1.2-4.8.2-4.8-1-82.5-1.8-113.1-.7-29 0-33.9 4.6-35.7 1.4-.6 3.9-.9 5.4-.7 1.5.1 4.4 0 6.5-.4 2-.4 4.4-.6 5.2-.4.8.1 3.4.5 5.6.9m435.6-.2c1.3.9 2.1.8 3-.1 2.2-2.2 6.1-1.5 14.5 2.6 4.9 2.4 5.7 4.8 4.8 14.9-.7 7.5-1.1 56.9-.7 82.8 0 4.4 0 16.1-.1 26s.1 20.8.5 24.3c.5 3.8.4 6.1-.1 5.7-.5-.3-1.2-.1-1.5.4-.6.9-29.8.6-42.3-.5-6.8-.6-7.4-1.4-4.6-5.3 1.5-2.3 1.5-2.5-.3-3.8s-1.9-3.2-2.1-37c-.2-22-.6-36-1.3-36.8q-.9-1.2 0-8.1c.6-3.8 1.1-18.3 1.1-32.2.1-28.1.6-31.9 4.7-32.8 1.5-.3 3.2-.7 3.7-.9 2.6-.8 19.1-.1 20.7.8M869.5 85c1.5.6 5.5 1.1 8.9 1.1 13.7.2 17.2 2.9 15.6 11.9-1.1 6.4-2.6 11.7-3.7 13.3-.5.7-1.5 3-2.2 5.2-1.1 3.6-2.9 8.4-5.2 14-.4 1.1-1 3.3-1.2 5-.3 1.6-1.5 6.4-2.7 10.5-2.9 9.9-7.8 28-9.7 35.5-.8 3.3-2.3 7.6-3.4 9.6-1 2-1.9 4.5-1.9 5.6s-.9 3.8-2 6.1c-1.1 2.2-2 4.7-2 5.5s-.7 3-1.5 5c-.8 1.9-1.1 3.7-.8 4.1 1.2 1.2-35.9-1-41.8-2.5-3.6-.9-3.7-1-3.4-5.5.2-2.5.6-4.8.9-5.1.3-.4.6-1.7.6-2.9 0-1.3.5-2.6 1-2.9.6-.3 1-1.9 1-3.6 0-1.6.4-2.9.9-2.9.4 0 1.4-3.5 2.1-7.8.7-4.2 1.7-8.1 2.1-8.7.5-.5.9-1.6.9-2.5s.9-3.5 2-5.8c1.1-2.2 2-4.5 2-5s.7-2.3 1.5-4c.9-1.7 1.8-4.1 2-5.3.3-1.3.9-2.7 1.5-3.3.5-.5 1-2.5 1-4.3s.4-4.1 1-5.1c.5-.9 2.3-4.9 4-8.7 1.7-3.9 3.5-7.8 4-8.8 2.3-4.1 2.9-5.5 4.9-12 1.2-3.7 2.1-7.6 2.1-8.7s.5-2.9 1-4c.6-1.1 1.5-2.9 2-4 .6-1.1 1-2.9 1-3.9 0-2.4 1.3-3.3 7-4.7 6-1.5 7.4-1.6 10.5-.4M710 135.8c5.8.4 11 1 11.6 1.4s15.4.8 32.7.8l31.7.1.9 3.7c1.1 4.2 1 26.6-.1 27.8-1.4 1.3 2.5 6.4 4.9 6.4h2.4l-.3 20.4c-.2 11.2-.5 20.7-.8 20.9-.8.8-28.5 2-39.5 1.7-5.5-.1-13.1-.1-17 .1-8.1.3-21.3.4-37 .2-6 0-14.4-.1-18.5-.1-4.1.1-9.3 0-11.5-.1s-20.6-.2-40.9-.2-37.3-.2-37.7-.5c-.5-.3-1-4.7-1-9.7-.1-5.1-.4-12.1-.8-15.7-.3-3.6-.3-7.6.1-9s1-3.7 1.3-5.1c.5-2.7.6-2.7 9.5-2.7 6.1 0 9.7-.5 10.7-1.4 1.4-1.1 1.6-1.1.8.2-.7 1.3-.6 1.3.7.2 1.6-1.3 1.7-2.3.5-5.2-.7-1.8-.4-30.6.3-31.3.7-.6 40.7-2.7 53-2.8 5.2 0 11.3-.4 13.5-.9 3.9-.8 7.8-.7 30.5.8m5.2 150.9c1.6 1.7 2.3 3.9 2.6 8.4.5 6.2 1.9 8.2 4.5 6.1.6-.6 4.9-1.2 9.4-1.5s8.6-.8 9.2-1.1c.5-.4 4-.7 7.8-.8 8.3-.1 12.6 1.8 14.2 6.2.7 2.1 1.1 16.3 1.1 40.3 0 73.2.5 91.9 2.3 95.3 1.6 3.1 1.6 3.2-.6 3.8-3 .8-74.5.8-84 0l-7.6-.7-.1-48c0-26.4-.3-48.4-.7-49-1-1.7-1.5-28.8-.5-30.1.4-.6.9-6.2 1.1-12.4.1-9.5 1.1-15.9 2.3-16.3.2 0 4.7-.3 10-.5s10.7-.8 12-1.3 5.1-.9 8.5-.8c5.2 0 6.6.4 8.5 2.4m235.3.3c.3.5 1.7 1 3 1 1.8 0 2.7.7 3.2 2.7.9 3.3.9 78.3 0 96.8-.4 7.1-.8 22.7-.9 34.5l-.3 21.5-14-.1c-16.1-.1-23.3-.8-24.9-2.4-1-1-2-52.1-1.3-67.5.1-2.8.1-10.6 0-17.5s-.2-15.7-.2-19.5c0-3.9-.1-7.9-.1-9-1.1-29-1-36.1.2-37.7 1-1.4 3.5-1.8 12.2-2.3 6-.3 11.2-.7 11.4-1 1-.9 11.1-.5 11.7.5m-84.1 26c1-.7 2.3-.6 4.7.3 1.9.8 5.8 1.5 8.8 1.6s6.3.7 7.3 1.2c4.1 2.2 5 10.4 1.9 17.2-1.1 2.3-2.4 7.1-3 10.7-.7 3.6-1.9 9-2.7 12-.9 3-2 7.3-2.6 9.5-.7 2.2-1.6 4.6-2.1 5.3-.6.7-1.1 3.3-1.2 5.7-.2 2.5-1 5.6-1.9 7-.9 1.3-1.2 2.6-.6 3 .5.3.5 1.7 0 3.3-.5 1.5-1.1 4.8-1.5 7.4-.3 2.6-1 5-1.6 5.3-.5.4-.7 1-.4 1.5.7 1.1-1.2 8.9-3.6 15.5-1 2.7-2.7 8.4-3.7 12.5-3.2 12.9-1.7 12-20.4 12-8.9 0-15.8-.3-15.5-.7.4-.3.2-1.2-.4-2-.9-1-.8-1.3.1-1.3.7 0 1-.6.7-1.4s.1-1.7.9-2c.9-.4 1.2-1.1.7-1.8-.9-1.6-.5-5.6 1-8.3.6-1.1 1-3.1.8-4.5-.1-1.4.3-4.6.9-7 .6-2.5 1.2-5.6 1.4-7s1.1-5.7 2-9.5c.8-3.9 1.6-8.2 1.6-9.7 0-1.4.4-2.8.9-3s1.1-1.9 1.4-3.9c.2-2 .8-4.3 1.3-5 .5-.8.9-2.1.9-2.9.1-4.2 2-10.8 3.7-13.3 1.6-2.2 1.8-3.1.7-4.3-.9-1.1-.9-2.3 0-5.2.7-2 1.3-5.3 1.5-7.2.6-6.6 3.2-20.1 4.8-24.5 1.7-4.5 2.8-5.7 4.3-4.5 1 .8 1.5.6 2-.9.7-2.4 3.7-3.2 4.8-1.3.6.9 1.2 1 2.1.2M581.2 556.8c-2.6 2.6-2.8 5-.4 7.8 2.1 2.6 7.3 5.4 10.2 5.4 1.1 0 2.9.5 3.9 1.2 2.8 1.7 14.9-.6 17.9-3.4 2.2-2.2 3-7.2 1.2-8.3-.5-.3-3.6.6-6.9 2-9.8 4.1-15.6 2.9-21.7-4.3l-2.1-2.5z"/><path d="M671.7 568.7c-.3.5-.2 2.4.2 4.3 1.2 6.2 12.8 12.3 18.8 9.9 1.5-.6 3.9-1.6 5.3-2.1 5.4-2.2 7.5-3.7 7.8-5.7.5-2.9-2.4-3.8-5.7-1.9-1.4.9-4.4 1.9-6.6 2.2-3.4.6-4.4.3-6-1.3-1-1.2-2.4-2.1-3.2-2.1-.7 0-2.4-.6-3.6-1.4-3.1-1.9-6.4-2.8-7-1.9m-60.3 42.8c-.9 2.1 1 4 6.4 6.6 3.9 2 6.1 2.3 14.6 2.1 9.3-.2 15.2.9 18.3 3.1.7.5 3.6.9 6.4.9 3.8-.1 5.8-.6 7.2-2 1.9-1.9 1.6-4.9-.4-3.7-1.3.9-12.4-2.4-18.8-5.5-5.4-2.6-5.7-2.7-10.6-1.2-6.5 1.9-9.4 1.9-13.5-.1-4.2-2.1-8.9-2.2-9.6-.2"/></g></svg>