<svg xmlns="http://www.w3.org/2000/svg" width="1365.333" height="1365.333" preserveAspectRatio="xMidYMid meet" version="1.0" viewBox="0 0 1024 1024"><g fill="#000" stroke="none"><path d="M585 42c-121.8 1.4-160.7 2-175.6 2.6-13.7.6-15.5.5-18.3-1.2l-3.2-1.9-2.4 3c-2.1 2.5-2.4 3.6-1.8 6.5 1 4.8.9 25.2 0 85.5-.5 28-1 88.1-1.3 133.5s-.8 91-1.3 101.5c-.4 10.4-.6 19.3-.4 19.7.6 1.2 7.1.9 7.8-.3 1.2-1.9 1.6-14.5 2-62.9.5-75.5 1.5-152.4 2.2-180 .4-14 .7-41.1.7-60.3l.1-34.7 3-.5c3.6-.5 146.6-1.7 224-1.9 52.3-.1 145 .9 173.5 1.9 6.9.2 22.6.7 35 1 12.4.4 23.3.8 24.2 1.1 1.6.5 1.7 2.6 1 29.7-.4 16.1-.7 40.8-.7 55v25.9l2.4 1.9c1.3 1.1 2.9 1.8 3.5 1.6.7-.2 1.3-7.2 1.7-20.3.3-10.9 1.1-37.8 1.9-59.7 1.1-30 1.1-40 .2-40.9-.6-.6-3.7-1.2-6.9-1.3s-15.2-.7-26.8-1.4c-11.5-.6-53.2-1.6-92.5-2.2s-75.5-1.2-80.5-1.4c-4.9-.1-37.1.1-71.5.5"/><path d="M803.5 68.1c-13.7.5-100.4.8-192.5.7-202.8-.1-198.7-.2-199.9 2-1 2-.7 293.1.4 307.7.8 11.3 1.6 13.9 4.3 15.4 1.5.8 2.3.7 3.2-.4 1.5-1.8 1.5-3 .7-16.5-1.1-18.5-1.1-86 0-87.1s23.4-2.8 26.4-2.1c2.4.5 2.9 11.5 2.9 64.9 0 43.5-.1 46.3-1.7 46.4-1 0-20.9-.1-44.3-.2-49.1-.3-43.8-.3-95.5.5-40.9.6-52.7 1-76.5 2.6-7.4.5-20 1.2-28 1.5s-15.6.8-17 1c-1.4.3-7.2.9-13 1.5-40 3.8-45.7 4.8-57.5 9.7-17 7.1-27.8 13.9-37.7 24-10.1 10.2-16.4 24.6-20.2 45.9-.9 4.9-2.1 10.6-2.7 12.5-1.3 4.5-2 66.1-.9 81.4.5 6.6 1.4 15.1 2 19 .6 3.8 1.3 10.8 1.7 15.5.5 8.5.5 8.6-2 9.7-5 2.3-10.9 8.7-14.4 15.6-6.1 12.3-6.3 14.6-6.3 70.1 0 27.4.2 50.1.4 50.5.2.3.7 13.9 1 30.1.7 32 .9 35 3.4 45.5 2.5 11 7.4 19.5 16.3 28.6L64 872v6.3c0 3.4-.5 9.3-1.1 13.2-3 19.4 0 26.2 12.6 29.5 7.1 1.8 11.3 1.9 16.8.3 4.2-1.2 5.3-2.1 8.7-7.5 2.2-3.3 4.2-6.9 4.5-7.9.4-1 1-1.9 1.4-1.9.6 0 13.9 9.7 27.1 19.8 4.1 3.1 17 9.8 24.7 12.7l7.2 2.8.6 4.6c.8 6.3 5.4 29.7 6.8 34.6.9 2.8 2.4 4.8 5.5 7 4 2.8 5 3 12.7 3 7.6 0 8.7-.3 12.7-3 5.5-3.8 8.8-10.2 8.8-17 .1-6.3 2.5-23.1 3.8-26.7.7-1.7 2.1-2.8 3.9-3.2 1.5-.3 16.3-.8 32.8-1.1 16.5-.4 32.9-.8 36.5-1 21.2-1.1 48.3-2.7 60-3.5 7.4-.6 21.8-1.5 32-2 51.9-2.9 77.5-4.8 99-7.5 11.6-1.5 39.5-4.2 67-6.5 6.3-.6 15.6-1.4 20.5-1.9 40.5-4.3 42.1-4.4 56-5.6 49.4-4.1 70.6-6.1 90.5-8.5 4.7-.5 16.2-1.7 25.5-2.5 9.4-.9 19.8-1.9 23.2-2.3 6-.8 6.1-.8 6.6 1.7.3 1.4 1.2 5.7 2.2 9.6.9 3.8 2.5 11.5 3.6 16.9 1 5.5 2.6 11 3.5 12.3 2.8 4.3 7.5 5.5 18.3 4.8 12-.8 15.4-1.8 18.5-5.6 3.9-4.5 4.8-9.5 3.8-20.1-.4-5.1-.6-12.5-.4-16.4l.4-7.2 4.6-1.8c11.7-4.4 20.4-12.5 22.6-21.2 1.2-4.3 1.5-4.7 4.2-4.5 35.9 2.7 58.5 2.7 73.4-.1 15.6-2.9 18-3.6 26.1-7.4 12.5-5.8 17.2-12.3 15.5-21.5-.7-3.8-6.8-10.2-13.6-14-9.1-5.2-16.4-7.4-46.7-13.8l-6.3-1.3-.1-34.6c0-19 0-68.7.1-110.5s.3-131.2.4-198.7l.1-122.6 3-.5c1.7-.3 6.2-.2 10.1.1l7.2.5.6 20.1c.3 11 .7 28.6.9 38.9l.4 18.9-3.9 4.6c-4.5 5.6-5.5 9.6-3.5 14.5 1.4 3.1 2.3 3.8 7.1 5.2 6.8 2 8.4 1.5 13-3.5 4.8-5.4 5-10.4.5-14.9-1.7-1.7-3.4-3.1-3.9-3.1s-.9-9.1-.9-20.3c0-11.1-.4-29.5-.7-40.8l-.7-20.6 10.4-.7c22.8-1.4 36.5-2.8 38.9-4 2.8-1.3 3.7-4.8 2.2-8-3.9-8.2-5.3-11.9-6.7-17.8-.8-3.7-2-8-2.6-9.5-.7-1.6-1.5-4.4-1.9-6.3-.9-3.9-8.6-33.8-12.3-47.5-1.4-5-3.8-13.3-5.5-18.5-3.9-12.5-10.2-36-10.2-38.5 0-1.1-.8-3-1.8-4.3-1.5-2-2.9-2.4-9.3-2.7-4-.1-9.4-.6-11.9-1-2.5-.3-20.2-.7-39.5-.9l-35-.2-3 3.2c-1.9 1.8-3.9 5.6-5 9.3-1.9 6.4-4.4 9.9-3.1 4.5 1.2-5.2 2.4-35.1 3.2-78.4.4-23.4.8-43.8.7-45.4 0-3.4-2.6-5.7-6.2-5.4-1.4.1-13.8.5-27.6.9M670 77.5c82.2.2 151.4.3 153.6.4l4.1.1.7 6.5c.4 3.6.4 9.4 0 13l-.7 6.4-15.6-.1c-9.1 0-16.7.4-18.3 1-3.2 1.3-5.8 5.9-5.8 10.1 0 4-.9 4.3-6.6 2.7-3-.8-11.2-1.4-21-1.5l-16.1-.2-3.3 2.7-3.3 2.8.7 18.7.6 18.7-2.4.6c-4.1 1-48-1.2-51-2.5-2.3-1.1-2.9-1-4.7.7-1.7 1.8-2.1 3.8-2.6 16.1l-.6 14.1-3.4 1.6c-3.9 1.9-5.1 4.1-3.5 6.7 1.8 2.9.9 36.1-.9 34.2-1-1-7.9-26.3-11.4-41.8-1.5-6.6-3.7-16.5-5-22s-2.6-12-3-14.5-1.8-9.1-3.1-14.7c-1.3-5.7-2.4-12.3-2.4-14.8 0-6.3-1.6-6.9-16.7-6.6l-12.2.2-.3-12.2-.3-12.3-3-1.7c-2.6-1.5-5-1.7-18.9-1.2-15.2.6-16.1.7-18.4 3l-2.4 2.4.7 18 .8 17.9-14.4.1c-7.9 0-18.4 0-23.4.1h-9v-11.5c0-8.4-.4-11.8-1.4-13.1-1.3-1.6-3.2-1.7-18.5-1.2-9.4.2-18.6.5-20.4.5-2.1 0-4.1.9-5.7 2.5-2.5 2.5-2.9 4.9-2.5 13.8l.2 3.8h-6.5c-3.5 0-8.5-.3-11.1-.6-4.3-.6-4.7-.9-4.1-2.8 1.3-4.3 1.6-11.2.6-13.9-1.2-3-7.1-6.2-9.9-5.3-2.2.7-27.9 1.2-28.5.6-.2-.3-.2-6 .1-12.8l.4-12.2 4.7-.1c2.5-.1 9.8-.5 16.1-.9s26.8-.5 45.5-.3c18.7.3 101.3.6 183.5.8m-62.7 28.7c.3 5.1.6 35.3.7 67l.1 57.8h-12.5c-7.3 0-12.7-.4-13.1-1-1.2-1.9-.7-129.1.5-130.6 1.4-1.5 4.7-2 15.6-2.2l8.1-.2zm-158.7 26.3c.1 11.5.5 38.2.8 59.2l.7 38.3h-3.8c-2.2 0-9.2.2-15.6.5l-11.7.5v-17.7c0-9.8-.1-28.4-.1-41.3-.1-12.9-.1-31.7 0-41.7l.1-18.2 7.3-.4c3.9-.2 10.6-.3 14.7-.3l7.5.1zm376.6-19.9c2.4.7 2.9 4.2 2.4 20.4-.2 8-.8 31.6-1.2 52.5-.6 34-.9 38.5-2.6 43.2-1.9 5.2-2 5.3-6.1 5.5-8.8.3-22.2-.4-23.1-1.2-.9-.9-.9-21.3-.1-41 .2-6.3.7-25.4 1.1-42.5.4-22.5.9-31.8 1.9-34.2 1.3-3.1 1.6-3.2 8.2-3.6 7-.4 16.5 0 19.5.9m-306.8 4.6c.4 2.9.7 29.4.9 58.8l.2 53.5-15.7.3-15.6.2-.7-6.2c-.3-3.5-.4-29.3-.2-57.3l.4-51 3.4-1.7c2.6-1.3 6.2-1.7 15.1-1.8h11.7zm117.3 8c1 1.3 5.1 18.3 9.8 40.3 1.4 6.6 3.7 16.9 5.1 23 1.4 6 3.4 14.8 4.4 19.5s3 11.8 4.3 15.8c1.8 5.4 2.1 7.5 1.2 7.8-.7.3-4.3.4-8 .2l-6.9-.3-2.9-8.5c-1.5-4.7-4.6-14.4-6.7-21.5-2.1-7.2-6.7-22.7-10.3-34.5-7.1-23.7-10.3-37-9.4-39.4.4-1.1 1.9-1.6 4.4-1.6 2.1 0 4.5-.5 5.3-1 2.2-1.4 8.6-1.2 9.7.2m151 56.8c-.3 27.5-.9 50.5-1.2 51-.3.6-2.5 1-4.7 1h-4.1l.6-41.8c.4-22.9.7-45.4.7-50V134h3.4c1.9 0 3.8-.5 4.1-1 .3-.6.9-1 1.2-1s.3 22.5 0 50m-307.5-47.8c.1.7.2 22.6.3 48.5V230h-21.2l-.7-4.8c-.3-2.6-.9-24.1-1.2-47.9l-.6-43.2 3.9-.4c9.4-.9 19.3-.7 19.5.5m94.3 50c.1 40.4-.1 45.7-1.5 46-.8.2-11.1.2-22.7 0l-21.3-.4v-16.7c0-9.1-.3-29-.5-44.2-.5-22.1-.3-27.8.7-28.7 1.8-1.4 8.8-1.9 28.8-1.8l16.5.1zm44.5-17.3c0 .9 2.2 9.3 4.8 18.6 9.3 32.5 11.3 40 11.5 43l.2 3-7.7-.1c-4.2-.1-8.4-.4-9.2-.7-1.4-.6-1.6-4.6-1.6-33.7 0-21.8.3-32.9 1-32.5.6.3 1 1.4 1 2.4m102 .7c10.2.3 18.6.7 18.7.8.3.3.6 9.6.5 15.1l-.2 6-26.6-.3-26.7-.3.7-9.5c.4-5.3 1-10.2 1.3-10.9.7-1.9 3-2.4 8.8-1.9 2.8.2 13.3.6 23.5 1m194.6 21.9c2.2.6 6.6 1 9.7.7l5.6-.4 2.4 5.3c4.6 10.5 17.1 50.7 19.7 63.4.9 4.2 10.1 40.1 14.5 56.4 1.4 5.2 2.5 10 2.5 10.6 0 1.7-45.1 4.6-70.5 4.6-29.2.1-89.8-4.3-93.7-6.7-1.5-1-.8-4.4 4.1-19.1 4.4-13.1 9.3-28.5 19.2-60.3 1.6-5.2 4-12.2 5.4-15.5 1.3-3.3 3.8-10.5 5.5-16 1.8-5.5 4.5-12.9 6.1-16.4 2.9-6.3 2.9-6.4 6.3-5.8 2.1.3 4.1 0 5.4-.9 3.6-2.5 49.3-2.5 57.8.1m-176.1 8.1c1.3 1.3 1.5 4 1.3 17.7l-.3 16.2-29.5-.3c-16.2-.2-29.7-.6-30-.9-.9-.8-.5-31.1.3-32 .8-.8 19.8-1.7 44.9-2.1 9.5-.2 11.9.1 13.3 1.4m-183 40.9c11 .3 40.9.7 66.5.9 25.5.3 48.1.8 50.2 1.1 2.5.5 4.4.2 5.3-.5 1.1-.9 8.9-1.1 32.2-.7 17 .4 35.1.9 40.3 1.2s15.6.8 23 1c17.1.4 40.8 1.2 43.8 1.4 1.9.1 2.2.5 1.7 2.3-1.8 6.8-6 20.4-8.5 27.8-1.6 4.7-4.9 14.9-7.5 22.7-2.5 7.9-5.9 17.3-7.6 20.9-3.5 7.6-3.4 12.5.4 14.6 1.2.6 6.3 1.5 11.2 1.9 5 .4 15.5 1.4 23.5 2.2 8 .9 21.8 2.1 30.7 2.8l16.3 1.2.4 3.1c.3 1.7.7 5 1 7.3 1.1 7.6.8 125.3-.9 411.8-.1 33.5-.6 61.7-1 62.6-.8 2.2 4.1 7.9 6.8 7.9 1.1 0 2.8.7 3.8 1.6 2 1.8 4.1 1.3 7.8-1.5 1.9-1.5 2.7-3.5 3.6-8.7l1.1-6.9 4.5.3c6.4.4 24.1 4 30.5 6.2 21 7.3 29.1 18 18.3 24.4-9.9 5.9-34.4 9.8-64.9 10.4-18.8.3-36.4-.9-37.4-2.7-.4-.7 2.2-18.8 2.9-20.9.2-.7 1.5-1.6 2.7-2.1 1.3-.5 4.2-2.6 6.5-4.6 11.4-9.8 11.3-36.3-.1-57.8-2.5-4.7-4.6-9.2-4.6-9.9s-.6-2.4-1.3-3.8c-1-1.9-1.2-12.8-1.1-47.5 0-24.8-.3-48.2-.8-52-1.5-12.2-4.3-18.9-10.9-26-6.7-7.2-13.7-10.6-25.2-12.5-3.8-.6-8.6-1.8-10.6-2.6l-3.7-1.5v-36l.1-36.1-2.6-2.2c-2.6-2.2-3.1-2.3-20.7-1.8l-18.1.5-.3-8.3c-.4-11.9-.9-12.2-20.9-12.3-23.8-.1-30.6 2-32.9 10.2-.5 2-1 15.9-1 30.8 0 16.1-.4 27.3-.9 27.3-1.4 0-26-5.8-31.1-7.4-4.4-1.3-4.5-1.4-4.7-5.7-.1-2.4-.9-11.4-1.8-19.9-.8-8.5-2.4-26.5-3.6-40-2.1-25.6-4.3-46.1-5.5-51.9l-.7-3.4 10.9.7c47.3 2.7 147.8 3.1 152.6.5l2.1-1.1-.6 13.8c-.4 7.7-.8 42.9-.9 78.3-.2 59.7-.1 64.5 1.5 65.5 2.5 1.6 5-.4 5.9-4.5.9-4.4 1.7-55.4 2.3-156.4.3-44.6 1-85.1 1.6-90 1.2-11.1.2-17.9-2.7-18.3-4.7-.7-5.2 1.5-6.4 30.3-.6 14.9-1.2 31.9-1.3 38l-.2 11-8.3.3-8.3.4.1-7.9c.5-18.8-1.4-72.4-2.5-74-1.1-1.4-1.4-1.4-4.6.1-2.1 1-5.4 1.5-8.9 1.3-3-.1-7.7.2-10.4.6l-4.9.9.7-17.4.7-17.4-2.6-2.4-2.5-2.4-35.3-.4c-19.3-.2-36.4-.4-37.9-.4l-2.8-.1V298c0-7.1-.4-9.2-1.9-11.2-1.8-2.2-2.5-2.4-10.8-2.2-31.1.6-30.1.4-33.3 5.7-1.5 2.5-2 5-2 11.3v8.1l-4.2-.3c-2.4-.1-7.3-.5-11-.9-6.7-.8-6.8-.7-9.8 2.5-1.6 1.8-3 3.7-3 4.4 0 .6-1.2 3.8-2.6 7.1s-6.1 16.1-10.4 28.5c-10.4 29.6-10.7 30.6-12.9 34.9-1.1 2-2.6 6.2-3.5 9.2-2.5 8.4-3.6 9.5-8.2 8.4-3.5-.9-3.9-1.3-4.6-5.3-.4-2.4-.3-29.6.1-60.5l.9-56.2-2.3-2.1c-2.5-2.3-1.9-2.2-32.8-3.8l-9.8-.6-3.6 3.4-3.7 3.4 1.2 6.3c1.1 6 1.5 12.3 1.3 21.1l-.1 3.8-9.2-.1c-5.1-.1-12-.4-15.3-.8l-6-.6-.6-4.2c-.3-2.3-1.1-4.8-1.8-5.6-1.7-2.2-8.8-3.5-22.1-4.2-6.3-.3-13-.9-14.8-1.2l-3.2-.5.1-6.1c.3-9.9-1.1-10.4-27.4-9.7l-11.8.2.3-8.8.3-8.9 7.5-.8c7-.7 153 0 172.5.8 22.9 1 209.5-.5 211.8-1.7 2-1 2.3-4.1.5-5.6-.9-.7-65.9-1.1-196-1.4-124.1-.2-195.1-.7-195.7-1.3s-.7-3.5-.4-6.7l.6-5.7 4.1-.6c2.2-.4 25.3-.7 51.3-.8 25.9-.1 47.4-.4 47.7-.7.3-.4 3.4-.5 6.8-.3 3.5.1 15.3.5 26.3.8m11 47.4 4 .1-.3 58.2c-.2 32.1-.5 58.4-.7 58.6-.3.3-29.8-1.8-30.1-2.1-.1-.1-.4-26.2-.7-57.9l-.5-57.7 12.2.3c6.6.2 13.9.4 16.1.5m122 8.3c.5.4.6 93.2.1 121.3l-.1 10h-14.2c-7.8-.1-14.4-.3-14.7-.5-1.1-1.2-1.5-18.2-1.7-70 0-30.5-.1-56.3 0-57.2.2-3.7 4.8-4.9 17.9-4.5 6.7.2 12.5.6 12.7.9m-200.7 13.5c1.9 3.6 2.2 17.7 1.6 55.1l-.7 38.3-16.1-.7c-8.9-.3-16.5-.9-17-1.2-.5-.2-.5-6.6-.2-14.1.4-7.5.9-27.9 1.1-45.5.3-17.5.8-32.2 1.1-32.7s7-.9 14.9-.9c12.7 0 14.5.2 15.3 1.7M767 316c1.3.8 1.5 8.3 1.7 56l.3 55h-12.8c-7 0-13.7-.3-14.9-.6l-2.3-.6V317.1l3.3-.6c3.1-.5 9.7-1 18.7-1.3 2.5-.1 5.2.3 6 .8m-36.3 2.5c.4 2.5.4 103.3-.1 106-.1 1.1-.6 1.9-.9 1.7-.4-.1-7.9-.2-16.7-.2h-16V318l2.3-.5c4.7-1 8.6-1.2 19.6-1.1 10.6.1 11.4.2 11.8 2.1m-82.9.1c3.4 1 2.9 6.5-1.9 18-2.2 5.4-5.4 13.6-7 18.1-5.6 16-14.1 36.9-18.2 45.1l-4.1 8.3-4.6-.6c-8.2-1.1-15-2.6-15-3.4 0-.4 1.8-5.9 4.1-12.2 2.2-6.3 7-19.7 10.6-29.9 3.5-10.2 8.5-23.2 10.9-29 2.5-5.8 4.9-11.5 5.4-12.8.9-2 1.6-2.2 9.2-2.2 4.6 0 9.3.3 10.6.6m-117.9 4c.6.5 2 77.8 1.5 78.3-.4.4-34.7.2-35.1-.2-.4-.5 1.7-77 2.2-77.6 1.6-1.5 29.7-2 31.4-.5M893.2 345c.7 5 .2 166.7-.6 205-.4 13.5-.8 80.7-1.1 149.5-.3 68.7-.8 125.1-1 125.3s-1.6 0-3.1-.5l-2.8-.9.2-43.5c.1-23.9.4-68.4.7-98.9s.5-119.8.5-198.3V339.9l3.2.3c3.1.3 3.3.6 4 4.8M650 384.9c0 19.8-.3 36.6-.6 37.5-1 2.6-5.3 1.8-9.8-1.9-3.7-3-9.1-5.8-14.8-7.8-1.4-.5-1.1-1.7 2.3-9.9 2.2-5.1 4.4-10.2 4.9-11.3 2.3-5.1 16-40.6 16-41.5 0-.6.5-1 1-1 .6 0 1 12.6 1 35.9m148.5-30.7c.2.2.6 14.1 1 30.8.3 16.8.8 33.1 1.1 36.2l.5 5.7-3.3.3c-1.8.2-7.2.2-12 0l-8.8-.3v-73.4l10.6.2c5.8.1 10.8.3 10.9.5M554 410.9c8.5.5 20.5 1.3 26.5 1.6 17.3 1 23.8 2.1 35.4 6.4 10.6 3.9 13.9 6 19.3 12 4.8 5.4 12.9 19 13.3 22.4.2 1.2.7 3.3 1.3 4.7.5 1.4 1.3 5 1.7 8 .3 3 1 7.1 1.5 9s1.2 6.2 1.5 9.5 1 10.3 1.5 15.5 1.2 14.7 1.5 21c.4 6.3 1.3 17.6 2.1 25 1.7 15.8 3.3 37.8 3.9 54 .3 6.3.7 15.1 1 19.5l.4 8-9-8.7c-5-4.8-11.4-10.5-14.3-12.6-9.3-7.1-33-18.7-49.6-24.2-8.5-2.9-16.2-5.4-17-5.5-.8-.2-4.9-1.1-9-2-4.1-.8-10.7-2.4-14.7-3.5-9.8-2.7-20-4.7-31.3-6.2-12-1.6-65.9-1.5-86 .1-15.2 1.2-38.7 3.9-40.7 4.6-.6.2-6.3.7-12.6 1.1l-11.4.6.6-4.3c.6-4.3.6-4.4 6.1-5.6 7.1-1.6 33.1-4.2 36.3-3.6 1.9.4 2.8-.1 3.7-1.8 1.1-1.9 1-2.4-.6-3.6-1-.7-3.2-1.1-4.9-.9-1.6.3-9.3.8-17 1.1s-15 .8-16.2 1.1c-1.3.2-3.4.6-4.8.9-2.3.5-2.5.3-2.5-3.4 0-3.8.1-3.9 5.8-5.9 7.8-2.7 24.7-7.2 27.2-7.2 1.1 0 3.7-.7 5.6-1.5 3-1.2 3.5-1.9 3.2-4.2-.3-2.7-.4-2.8-5.8-2.5-3 .2-8 1.1-11 1.9s-6.6 1.7-8 2c-1.4.2-3.4.8-4.5 1.3-6.6 2.8-13.9 5-14.5 4.3-.4-.4-2.4-4.6-4.5-9.3s-4.1-9-4.5-9.5c-.7-.9-2.6-4.2-6.4-11-.6-1.1-2.3-3.8-3.7-6-2.4-3.7-4.1-10.4-6-23.5-1.3-9.2-6.8-22.2-12.7-30.2-2.9-4-5.9-7.6-6.5-8-2.1-1.3-7.1-.8-9.3 1-5.2 4.3-19.8 23.9-27.1 36.3l-2.1 3.7-10.9.6c-22 1.2-29.7 2.8-46 9.4-5.1 2.1-5.3 2.1-7 .3-1-1-3.8-3.2-6.3-5-2.5-1.7-7-5-10-7.2-17.1-12.5-35.9-21.1-42.4-19.5-3.2.8-7.1 7.5-8.6 15.1-1.6 7.8-1.8 30.9-.3 35.5 5.6 16.9 7.8 33.9 5.3 40.5-2.1 5.2-2.4 22.1-.7 31 2.3 11.7 2.4 12.8.7 13-1.8.3-14 4.1-19.7 6.1-5.3 1.9-7 3.8-5.3 5.9 2.1 2.5 7.3 2.9 11.1.7 2.9-1.6 5.4-2.4 12.8-3.8.8-.2 2.5-.5 3.8-.9 2.1-.5 2.6.1 4.3 4.2 1.1 2.7 3 6.5 4.1 8.7 2.5 4.4 3 3.7-7.6 9.2-3.8 2-9.4 5.4-12.2 7.5L145 638l-4.7-2.3c-2.7-1.4-6.6-3-8.8-3.7s-6.8-2.8-10.2-4.6c-3.5-1.9-6.3-3.2-6.3-2.9s-1.7-.1-3.7-.9c-11.4-4.2-16-5-29.1-5-12.5-.1-13.3-.2-13.7-2.1-.2-1.1-1.4-10.6-2.6-21-2.6-22.4-3.8-83.3-1.9-96.5.8-6 4.4-21.3 7.4-32 2.4-8.6 11.1-21.7 18.1-27.4 6.2-5 27-15.5 37.7-19 4-1.3 11.4-2.6 16.3-3 5-.4 11.5-1.1 14.5-1.6s7.1-.9 9-.9 9.8-.5 17.5-1c24.3-1.7 51.3-3.1 71.5-3.9 29.4-1.2 279.6-.6 298 .7m210.7 23.5 60.3.1v8.4c0 8.1-.1 8.3-2.2 7.8-1.2-.4-4.2-.2-6.7.4-9.8 2.2-120.2 1.2-143.6-1.3-5.5-.5-11.2-1-12.6-1-2.2.1-3-1-6.2-7.3-1.9-4-3.4-7.5-3.1-7.7.2-.3 12.4-.3 27.2 0 14.7.2 53.8.5 86.9.6M322 455.7c6.2 7.9 11.7 24.1 12.6 37.3.4 5.5 1.2 10.8 1.8 11.8s4 6.1 7.4 11.3c6.3 9.2 11.2 18.7 12.6 24.2.5 2.2.3 2.7-1.2 2.7-1 0-2.6.6-3.6 1.3-1.6 1.2-1.6 1.4.6 3.4 1.3 1.2 3.4 2.3 4.7 2.5 1.6.2 2.8 1.2 3.4 3.1.5 1.6.7 3 .4 3.3-.2.3-2.7.7-5.6 1.1-6.8.8-8.8 2.2-7.1 5.2 1.1 2.1 1.6 2.2 7.2 1.6 5.5-.7 6-.6 5.5 1.1-.3 1.1-.9 4.8-1.2 8.4-1.2 11.4-6.2 26.1-10.9 31.7-1.3 1.5-3.2 4.2-4.2 5.9-1.7 2.8-15.6 14.9-21.5 18.7-3.8 2.4-23.6 8.8-32.9 10.6l-8.5 1.7.3 2.9c.2 1.7.7 3.4 1.2 3.9 1 1 16-.7 22-2.5 5.3-1.6 22.1-9 25.5-11.3 6.5-4.5 17.2-14 21.7-19.3 6.3-7.6 10.2-15.3 12.3-24.3.9-4.1 1.9-8.2 2.1-9.1.3-1.2 3.4-1.9 14.2-3.2 34.7-4.2 53.4-5.5 87.2-6.3 22.8-.5 29.3-.4 37.5.9 5.5.9 16.1 2.1 23.5 2.6 7.4.6 16.9 1.9 21 3.1 4.1 1.1 15.4 4 25.2 6.5 18.7 4.7 20.6 5.4 33.8 11.8 30.7 15.1 43 26.4 68.3 62.9 3.7 5.3 6.7 9.9 6.7 10.2s2.8 5 6.3 10.5c3.4 5.5 7.7 12.7 9.5 15.9s6.3 9.3 10 13.5 8.7 10.2 11.2 13.3c2.5 3.2 9.5 11.3 15.5 18.1 13.4 15.1 16.6 19.5 18.7 25.4 1.5 4.3 1.5 5-.2 9.9-1 2.9-2.6 5.8-3.6 6.3-1.8 1-2.1.7-5.8-4.8-1.1-1.6-1.7-1.8-2.7-.8s-1 1.6-.1 2.5c.7.7 1.2 2.9 1.2 5 0 3.4-.3 3.8-2.6 3.8-5.2 0-14-6-26.1-17.8-11.2-11-17.3-17.9-35.2-40-8.3-10.4-13.8-14.3-23.1-16.7-3.5-.9-7.3-2.1-8.3-2.7-1.9-1-9.5-2.1-26.7-3.8-28.3-2.8-58.4-14.2-71.8-27.2-5.4-5.3-7.4-7.9-16.6-21.9-10.4-15.7-14-20.9-14.7-20.9-.4 0-1.7.8-3 1.9-2.1 1.7-2.2 2.1-1 4.7.7 1.6 2.7 5.1 4.5 7.9 1.8 2.7 5.2 8.1 7.5 12 8.6 14.7 13.8 20.4 25.3 28 9.5 6.4 23.7 13.3 36.8 18.1 5.2 1.8 20 4.9 28 5.8 3 .4 7.5 1.1 10 1.6s8.3 1.4 13 2c12.3 1.7 15.8 2.8 16.5 5 .3 1 2.2 2.7 4.3 3.7 4 2 6.7 6.1 12.2 18.6 2.2 4.7 6.1 10.9 10.1 15.8 8.4 10.1 12.9 18.4 12.9 23.7 0 8.1-1.8 9.1-7 3.7-1.8-1.9-3.7-3.2-4.1-2.9-.9.5-.1 5.9 1.2 8.6 1.1 2.1.4 2.5-4.5 2.9l-4 .4-1.5-6.5c-1.3-5.3-2-6.5-3.6-6.5-1.8 0-2 .6-1.7 6.2.2 4.6-.1 6.3-1 6.3-1.5 0-8.2-7.3-13-14.2-1.8-2.6-7.1-9.4-11.7-15-4.7-5.6-11-13.4-14.2-17.3s-6.3-7.6-7.1-8.2c-.7-.6-5.6-1.3-10.8-1.7-5.2-.3-16.7-1-25.5-1.6-15.8-1-34.3-2.9-48.2-5.1-4.4-.7-13.5-.9-23.5-.6-9 .3-17.5.3-19 0-2.7-.5-2.8-.7-2.2-5.8.7-5.9-1-19.7-3.2-26.3-4.2-12.7-13.6-24-31.9-38.2-7.7-6-14.7-10.9-15.6-11-.9 0-2.2.7-2.9 1.4-2.5 3.2-.6 5.8 9 12.7 13.8 9.9 25.6 22.5 30.2 32.1 6.1 12.8 8.4 25.4 5.8 32.2-1.2 3.3-2.4 3.3-3.8 0-1.5-3.2-3.2-2.2-3.2 2 0 3.6-1.3 5.6-5.2 8.1-3.2 2-3.6 1.5-4-5-.4-5.2-1.7-5.1-3.5.5-1.8 5.4-3.8 7.2-7.8 6.8l-3-.3v-6.9c0-4.7-.4-7.1-1.3-7.3-1.5-.6-4.2 5.6-4.2 9.8q0 3-1.2 2.7c-1.5-.5-4.6-9-4.7-12.7-.1-1.4-2-6.3-4.2-11-3.3-6.7-5.7-10-11.3-15.3-6.8-6.6-26.6-20.7-31.7-22.7-3.2-1.2-5.9.3-5.9 3.3 0 2.7 2 4.6 8 7.6 6.5 3.3 19.9 14 26.4 21.1 5 5.6 9.7 14.2 8.4 15.5-.7.6-5.4 1-29.3 2.4-10.4.5-21.7 1.3-25 1.6l-6 .5-4.9-6.4c-5.1-6.7-12.4-13.1-19.1-16.4-5.5-2.8-17.4-6-27.5-7.3-4.6-.6-8.7-1.3-9-1.5s-9.8-.5-21.3-.6l-20.7-.4-1.5 2.9c-1.3 2.4-1.3 3.2-.3 4.2 1.3 1.3 3.6 1.5 36.3 3.3 17.1 1 30.5 3.6 38.5 7.3 9.9 4.7 20.3 17 21 24.8.4 4.4.1 4.9-5.1 9-4 3.2-5.4 3.8-6.5 2.9s-1.5-.8-1.9.5c-.3.9-.7 2.3-1 3.1-.2.8-1.6 2.1-3.1 2.7-3.2 1.5-9.9-.6-17.8-5.6-15.1-9.7-28.6-12.3-64.8-12.5-19.7-.1-30.9-1.2-34.9-3.2-1.2-.6-1.8-2.9-2.3-8.1-.4-4-1.9-14.3-3.3-22.8-2.1-13.3-3.1-16.7-6.6-24-4.8-9.7-14.8-21-18.7-21-2 0-2.2-.4-1.6-3.3 1.3-6.7 3.3-12.9 4.4-13.6.7-.4 4.7-.3 9 .2 4.2.5 9.3 1 11.2 1 3.4.2 3.5.1 3.5-3.3v-3.5l-6-.6c-4.5-.4-8.6-1.9-16.5-5.8-14.4-7.3-19.2-12-13.7-13.7 1.2-.3 4-1.5 6.2-2.5s7.9-3.3 12.6-5.1c10.1-3.9 13.5-6 12.5-7.6-1.5-2.4-8.4-.7-29.6 7.2-11 4.1-10.2 4.5-15.2-6.4-3.6-8-3.5-8.1 10-10.5 20.9-3.7 30.9-8 26.7-11.5-1.1-.9-2.2-.9-4.7 0-5.4 1.9-37.2 7.9-38 7.2-.3-.4-1.4-4.4-2.3-8.9-2.3-11.4-2.1-22.3.5-29.8 2.9-8.4 2.7-13.4-1.4-25.7-2-5.8-4.1-13.9-4.7-18-2.1-13.4.1-32.5 4.4-37.6.7-.9 2.2-1.2 4.1-.8 3.5.7 13.6 5.8 18.1 9.1 1.7 1.2 5.4 3.5 8.4 5.1s9.5 6.6 14.5 11.1c5.2 4.7 10 8.3 11.2 8.3 1.1 0 4.5-1.3 7.5-2.9 8.9-4.8 15.3-7 24.4-8.1 12.1-1.5 25.7-1.5 28.2 0 3.8 2.4 5.4.6 15.8-17 5.6-9.5 18.2-25 20.4-25 .5 0 1.9 1.2 3.1 2.7m431.7 70.7c.8.8 1 71.2.2 72-.3.3-4-.6-8.4-1.9s-12.5-3.6-18-5.2l-10-3-.5-5c-.9-9.1-.3-52.4.8-53.5.6-.6 3.5-1.9 6.4-2.9 4.3-1.6 7.5-1.9 17-1.6 6.5.2 12.1.6 12.5 1.1m41.4 29.6c.4 5.8.7 20.5.8 32.7l.1 22.3h-2.7c-1.6 0-9.1-2.2-16.8-4.8l-14-4.7.1-27.4c.1-17.7.5-27.5 1.2-28 .6-.3 7.7-.6 15.9-.6h14.8zm-113.2 33.9c2 .6 7.2 1.9 11.6 3s11.6 3 16 4.1c4.4 1.2 12.1 3.2 17 4.5 5 1.3 11.3 3.1 14 3.9 2.8.9 6.2 1.6 7.7 1.6s2.9.4 3.2.9 1.8 1.2 3.3 1.5c1.6.4 7.8 2.3 13.8 4.3 6.1 2 15.5 4.8 21 6.3 7.6 2.1 9.5 3 8 3.6-1.1.4-4.6 3-7.8 5.8-4.3 3.7-6.7 6.9-9.4 12.4-2.1 4.1-3.9 8.2-4.2 9.1s-.5 9.3-.4 18.8l.1 17.1-8.6-4c-12-5.6-20-8.7-24.7-9.8-2.2-.5-9.8-2.5-17-4.4-7.1-2-16.8-4.5-21.5-5.7s-10.3-3.2-12.6-4.5c-2.2-1.3-4.3-2.2-4.6-1.9-.7.8-8.8-9.9-11.9-15.6-.7-1.4-1.3-9-1.5-20.3-.2-10-.6-20.8-.9-24.2-.3-3.3-.2-6.4.2-6.7.9-1 4.9-.9 9.2.2m-591 39.2c5.8.8 11.9 2.6 21.4 6.6 7.2 3 15 6.1 17.2 6.8 6.1 2 17.2 7.6 25 12.5 3.9 2.5 8.4 5.2 10 5.9l3 1.4-3.5.8c-1.9.5-6.2 1.9-9.5 3.1-4.6 1.9-6.4 3.1-7.7 5.7-.9 1.8-2.3 4-3.2 5-2.1 2.4-6.6 12.7-6.6 15.4 0 1.2-.7 4.4-1.5 7.1-1.3 4.1-1.5 14.4-1.6 62 0 31.4.5 64.5 1.1 73.6.5 9.1 1.3 20.3 1.5 25 .3 4.7 1 13.7 1.6 20 .5 6.3 1.2 16 1.6 21.5.3 5.5 1.2 11.3 2 12.8.8 1.6 1.3 3 1.1 3.2s-4.1-2.8-8.8-6.6c-7-5.7-23.5-18-33.4-24.9-3.4-2.3-18.6-14-24.1-18.4-10.4-8.3-19.6-18.1-21.9-23.1-5.1-11.1-7.1-26.2-8-60-.3-9.4-.7-27.4-1.1-40-.3-12.7-.7-30.9-1-40.5-.5-21.4.8-44.6 3.1-52 2.1-7 11-18.4 16.2-20.6 2-.9 6.9-1.9 10.7-2.4 3.9-.4 7.3-.8 7.6-.9.3 0 4.3.4 8.8 1m91.1 5.6c3.1 3.2 7 6.7 8.5 7.9l2.9 2.1-2.1 4.9c-1.1 2.7-2.4 6.4-2.8 8.1-.6 3.2-3.6 4.6-4.9 2.4-.4-.5-3.7-2.6-7.4-4.7s-8.2-4.6-10.1-5.6c-1.9-1.1-5-3-7-4.4-2-1.3-4.1-2.4-4.8-2.4-2.3 0-1.3-1.4 3.1-4.7 3.9-3 15.9-9.1 18-9.3.5 0 3.5 2.6 6.6 5.7m647.2-1.3c7.6 3.9 11.2 7.9 13.9 15.6 2.1 6.1 2.2 8.5 2.6 37.5.2 17 .4 35.8.6 41.7l.2 10.7-2.9-3.7c-12.7-15.9-42.3-38.3-56.3-42.6-1.9-.6-2.2-1.7-2.8-9.2-.4-4.7-.6-13.4-.3-19.3.4-9.3.8-11.4 3.3-16.4 6.2-12.1 15.7-17.9 29-17.4 5.4.2 8.3.9 12.7 3.1M712.5 675c22.8 5.6 24.8 6.1 34.5 9.7 8.5 3.2 17.6 7.4 45.5 20.9 12.1 5.9 18.5 10.9 35.2 27.5l14.1 14.2 9.1 18.1c9.6 19.3 11.9 25.6 12.4 35.1.5 8.1-2 17.1-6.1 21.8-1.9 2.1-3.2.7-3.2-3.4 0-2.9-2.3-5.5-4-4.4-.5.3-1 1.8-1 3.3-.1 7.3-2.7 9.1-7.4 4.9-2.4-2-7.6-14.6-7.6-18.2 0-1.9-10-22.2-16-32.5-10.9-18.7-30.6-36.6-49.3-44.7-10.3-4.4-34.9-12.9-40.2-13.9-2.2-.3-4.8-1.1-5.7-1.5-2.9-1.5-15.9-19.7-21.5-30.1-5.8-10.8-6.3-12.4-3.5-11 .9.6 7.6 2.4 14.7 4.2m-523.7-2.3c7.1 1.7 11.4 4.1 14.7 8.2 3.6 4.4 7.3 11.9 8.5 17.3.7 2.9 1.8 6.7 2.6 8.5 1.2 3.2 3.2 19.7 3.9 33.6.2 4 .8 16.2 1.4 27.2 1 19.8.8 75.8-.5 132.2l-.6 29.1-2.4.6c-4.5 1.2-26.9 1.5-34.9.6-4.4-.5-9.6-1.1-11.5-1.3-4.2-.5-12.2-4.2-14.3-6.5-1.2-1.5-4.5-16.6-4.5-21.2-.1-.8-.3-3.3-.6-5.5s-1-10.3-1.6-18-1.4-17.4-1.9-21.5-.9-8.2-.9-9-.5-12.7-1.1-26.3-1.1-44.9-1-69.5c.2-54.8.5-57.7 9.3-70.1 6.5-9.2 19.7-12.3 35.4-8.4m551.3 53.7c16.7 5.4 29.1 10.9 37.9 17 11.6 8 20.3 16.2 25.6 24.3 3 4.5 5.4 8.6 5.4 9 0 .5 2 3.9 4.4 7.7s4.7 8.5 5.1 10.5c.4 1.9 1.8 5.4 3.1 7.6 1.3 2.3 3.3 6.8 4.4 10.1 2.8 8.2 8.2 15.9 13 18.6 4.6 2.7 4.7 3.3 2.5 15.3-2.6 14.2-5.2 20.8-10.6 26.9-5.7 6.5-12.6 8.8-31.3 10.1l-9.9.8.7-2.4c.4-1.3.9-4.4 1-6.9.2-2.5 1.1-9 2.1-14.5 1.4-8.3 1.7-15.8 1.6-44-.1-18.7-.3-35.1-.5-36.5-.3-1.4-.5-3.7-.5-5.3-.1-1.6-1.4-4.2-3.4-6.3-3.6-3.9-6.2-4.5-19.7-4.8-7.4-.1-7.5-.1-8.4-3.1-2-6.6-5.7-11.3-23.7-29.8-5.9-6.1-5.8-6.5 1.2-4.3m-302 15.2c.1.8.2 1.8.3 2.3 0 .5 1.1 2.3 2.3 4 5.4 7.2 22.5 10.6 31.3 6.1 2.2-1.1 4.4-2 5-2s3.2-1.2 5.8-2.8c3.7-2.1 6-2.7 10.7-2.8 3.3 0 14.6-.3 25-.7 19.2-.8 22.3-.5 39.2 3.6 2.8.7 15.9 1.5 36.7 2.3 8.8.3 16.8 1 17.8 1.5s2.8.7 4.1.4c1.9-.5 3.6 1 11.7 10.5 5.2 6.2 9.9 11.9 10.4 12.8.5 1 3.1 4.1 5.9 6.9l5.1 5.3-6.4.1c-7.1 0-18.2 1.1-30 2.8-12.9 1.9-15.3 2.1-24.4 2.7-4.9.3-9.1.5-9.5.6-4.7.5-6-.6-20.2-17.3-7.9-9.4-14.8-17.8-15.2-18.5-2.5-4.3-14.1-8.7-22.7-8.6-6.3 0-25.8 3.5-28.6 5-1 .6-4.6 1.8-7.9 2.7-6.6 1.9-11.8 4.3-18.3 8.8-2.4 1.6-5.1 3-6 3.2s-1.8.4-1.9.5c-.2.2-.9.3-1.5.4-.7.1-1.2 1.1-1.1 2.2.2 2.2-1.6 3.5-7.8 5.3-3.3 1.1-4 .8-11.7-3.8-7.6-4.6-8.9-5-17-5.7-4.8-.4-16.3-.3-25.7.1-22 .9-23.3 1-27.5 2-1.9.4-3.2.4-2.8 0 .4-.5.3-1.4-.3-2.1-.8-1-1.6-1.1-3.1-.3s-1.7 1.3-.7 2.5c.9 1.2.6 1.4-2 1.4-1.8 0-5.2.9-7.7 2-2.4 1.2-5.2 1.9-6.2 1.8-.9-.2-1.6.2-1.5.9.4 1.8-5.7 6.1-9.2 6.5-2.3.2-3.5 1.2-5.3 4.6-2.2 4-2.3 4.8-1.5 12.2l.9 8-3 .1c-1.7.1-23.2.4-47.7.8l-44.6.6-.7-28.4c-.3-15.7-.3-28.8.2-29.3.4-.4 3.3-.4 6.3.2 2.9.6 18.7 1.2 34.9 1.3 33.3.4 35.1.7 51 8.8 4.7 2.4 8.7 4.3 9 4.4.3 0 1.8.9 3.5 2 4.5 3.1 15.7 2.8 20.8-.5 9.1-5.9 18.7-16.5 18.7-20.7 0-5.1 1.5-5.4 30-6.9 5.7-.2 10.6-.7 10.9-1 .3-.2 5.4-.4 11.3-.3 8.4.1 10.8.4 10.9 1.5m93.7 21.5c4.1 2 6.7 4 7.7 5.8.8 1.6 4.7 6.4 8.8 10.7 7.3 7.9 18.7 21.8 26.4 32.5 3.9 5.2 14.8 25.7 14.1 26.4-.2.2-5.8.8-12.6 1.4-10.9.9-14.3 1.7-30.8 7.3-12.3 4.1-20.6 7.5-24.5 10-3.2 2.1-6.2 3.8-6.7 3.8s-3.4 1.8-6.4 3.9c-6 4.3-10.8 6.1-10.8 4.1 0-2.8-18.4-37.8-24-45.4-5.1-7.2-16-24.9-16-26.2 0-.2-1-2.5-2.2-5l-2.1-4.6 5.4-4.9C469 773 482.2 767 504 762c14.6-3.3 18.7-3.1 27.8 1.1m165.7 2.9c1 1.1 1.6 2 1.3 2s-1.3-.9-2.3-2-1.6-2-1.3-2 1.3.9 2.3 2m19.1 21.1c2.2 2.4 5.8 5.3 8 6.3 2.1 1.1 5.2 3.1 6.7 4.5 2.4 2.2 3.8 2.6 9 2.6 5.6 0 6.7-.4 11.3-3.7 5.6-4.1 9.2-8.8 12.3-15.9l2.1-4.7 7.4-.7c11.5-1 11.2-1.5 11.9 17.2 1.3 29.7.9 42.2-2.3 69.3-1.9 16.7-2.6 21.9-3.1 22.5-.3.3-6.6 1-14 1.5-7.4.6-22 2-32.4 3.1-10.5 1-24.5 2.3-31 2.9-6.6.5-18.6 1.6-26.7 2.4-8.1.9-18.7 1.8-23.5 2.1s-9.5.7-10.3 1c-.8.2-6.2.7-12 1-10.1.6-15.8 1.1-39 3.5-22.3 2.2-52 5.1-63 6-6.3.5-13.1 1.2-15 1.5-1.9.2-7.1.7-11.5 1.1-4.4.3-8.3.8-8.7 1-.4.3-7.6 1.1-16 1.9-8.4.7-24.1 2.3-34.8 3.4s-21.9 2.3-24.9 2.6-20.5 1.2-39 2-36.1 1.7-39.1 2-14.9.7-26.4 1-21.2.8-21.6 1c-1.2.7-55 1.7-58.5 1.1l-3.6-.7.6-10.7c.4-9 .9-32.7 1.6-84.5.2-9.7-.5-8.9 8.8-10.2 7.1-.9 77.9-1.6 85.6-.8l6.9.8 4.6 10.1c2.5 5.6 5.1 11.6 5.9 13.4.8 1.9 3.9 7.2 7 11.9s9.2 14.6 13.6 22 9.6 15.1 11.6 17.3c3.4 3.6 3.9 3.8 9.5 3.8 3.2 0 14.3-1.1 24.6-2.5 10.3-1.3 22-2.7 26-3s12.3-1.1 18.3-1.6c6.1-.6 14.7-1.3 19.2-1.6l8.1-.6 1.6 3.1c3.3 6.4 9.6 7.9 18.4 4.3 2.6-1 6.3-2.5 8.2-3.2 1.9-.8 6.4-3.8 9.9-6.7 7.7-6.6 10.6-8.2 14.9-8.2 1.7 0 7.4-1.3 12.5-2.9 16.4-5.1 19.9-6.1 22.2-6.1 1.2 0 4.1-.7 6.5-1.5 2.3-.8 6.9-2 10.3-2.6 7.7-1.3 12.8-3.7 14.3-6.6.6-1.3 1.8-3.1 2.7-4.1 2.3-2.5 2.2-8.5-.2-10.6-1-.9-2.1-3.3-2.4-5.3-.7-3.8-5-12.7-10.5-21.3-1.9-3-4.3-6.9-5.3-8.7l-1.8-3.2 3.2-.5c1.8-.3 7.3-1 12.2-1.6 5-.7 10.1-1.4 11.5-1.6 9.8-1.6 29.1-3.4 37.2-3.4 9.3 0 9.8.1 12.9 2.9 7.8 7.2 24.9 9.9 33.4 5.4 11.9-6.3 18.1-20.5 12.4-28.8-1.1-1.7-2.7-4.4-3.5-6-1.5-2.9 4 2.3 15.2 14.6m-289.8-5.9c11.5 5.3 20.7 14.7 28.8 29.3.9 1.6 2.7 4.3 4 5.8 1.3 1.6 2.4 3.3 2.4 3.9 0 .5 2.5 4.8 5.5 9.4 3 4.7 5.5 8.7 5.5 9 0 .2 2.1 4.2 4.7 8.7 3.5 6.2 9.3 18.8 9.3 20.2 0 .3-8.6-1.3-18.5-3.6-18.8-4.2-40.3-3.3-55.2 2.2-3.2 1.2-8.3 3.1-11.4 4.2-6.9 2.6-10 1.6-14.4-4.6-15-21-17.2-24.5-27.4-44.8-3.3-6.3-6.6-12.1-7.5-12.8-.9-.8-1.6-1.8-1.6-2.3 0-.6-1.8-3.7-4-7s-4-7-4-8.2c0-3.3 5.9-6.5 14.1-7.6 3.9-.6 7.4-1.2 7.8-1.4.4-.3 5.4-.8 11.1-1.1 5.8-.4 10.7-.9 10.9-1 .2-.2 8.2-.4 17.7-.4 15.9-.1 17.8.1 22.2 2.1m-82.1 29c4.4 6.8 10.8 17.6 14.2 24 6.3 11.9 23.3 38.1 27.9 43 1.4 1.5 3.4 3 4.4 3.4 1 .3 6.7-1 12.6-3 27-8.9 45-10.3 67.2-5.4 6 1.3 10.7 3 12.9 4.6 2.7 2 4.8 2.6 10.6 2.9 6.6.3 7.4.2 11.1-2.6 13.9-10.7 22.9-15.7 39.6-21.9 18.2-6.8 31.1-8.9 43-6.9 4 .7 4.9 1.2 5.4 3.4 1 3.9-2.4 5.8-14.2 7.7-11.1 1.9-20.9 4.2-32 7.5-3.9 1.1-12.1 3.2-18.3 4.6l-11.2 2.6-6.1 6.4c-4.9 5.3-7 6.8-11.2 8-8.8 2.4-8.7 2.5-11.5-3-2.5-4.9-2.7-5-7.1-4.9-17 .2-67.8 5-78.3 7.4-2.6.5-7.6 1.4-11.2 1.9l-6.5.9-3.7-3.5c-2.1-2-5-4.6-6.4-5.9s-4.4-5.9-6.6-10.2c-2.3-4.2-6.6-12-9.7-17.2-5.3-8.8-8.5-15.2-18.8-37-6.5-13.9-7.8-19-4.9-19 .5 0 4.4 5.5 8.8 12.2"/><path d="M852 350.1c-.9 1.5-1.1 39.3-.8 138.6l.3 136.4 2.2 2c1.7 1.6 2.5 1.8 4.1 1 1.8-1 2-2.5 2.3-29.8.2-15.8.2-39.2-.1-51.8-.5-18-.3-176.9.2-192.4.2-5.5-5.9-8.4-8.2-4M334.5 539c-.4.6-.5 2.2-.3 3.7.3 2.4-.2 2.9-3.7 3.9-6.1 1.9-10.5 1.6-16-1.1-5.7-2.8-7.8-2-7.3 2.9.6 6.4 13.3 9.4 25.8 6.1 6.3-1.6 9-4.3 9-8.9 0-4.7-5.6-9.6-7.5-6.6m-78.2 10.7c-.3 1-.8 2.1-1 2.6-.2.4.7 1.1 2.1 1.7 7.7 2.9-3.7 12-15 12-1.7 0-5.8-1.3-9-3-6.4-3.2-8-2.8-7.9 1.7.1 2.4 1 3.3 6.7 6.2 5.6 2.8 7.7 3.3 13.1 3.2 8.7-.1 14.7-2.8 18.7-8.2 3.7-5.2 4.1-11.2.9-15.3-2.4-3.1-7.6-3.6-8.6-.9m43.2 21.3c-.4.6-2.1 1.6-3.8 2.4-4.1 1.7-7.1 5.1-6.4 7.1.9 2.2 6.8 5.5 10 5.5 3.4 0 3.4 1.4.2 5.2-1.6 1.8-2.3 3.7-2 4.8.4 1.2-.6 2.8-3 4.9-4.5 3.9-8.8 4.1-16.2.6-5.6-2.7-7.3-2.6-7.3.5 0 2.7 10.1 9 14.4 9 3.6 0 11.3-3.4 14.4-6.3 3-2.9 3.4-3 5.5-1.7 9.3 5.9 14.6 5.7 21-1 6.7-7 3.8-12-3.3-5.6-2.8 2.5-5 3.6-7.1 3.6-3 0-8.9-2.4-8.9-3.8-.1-.4-.3-2.8-.5-5.5-.4-4.2-.2-4.7 1.6-4.7 2.6 0 7.9-5.2 7.9-7.8 0-3.3-7.1-8.2-11.8-8.2-2.3 0-4.4.5-4.7 1m52.1 179.9c-.4.5-.2 1.2.3 1.5.5.4 1.2.2 1.5-.3.4-.5.2-1.2-.3-1.5-.5-.4-1.2-.2-1.5.3m257 4c-.4.5-.2 1.2.3 1.5.5.4 1.2.2 1.5-.3.4-.5.2-1.2-.3-1.5-.5-.4-1.2-.2-1.5.3m-101.9 26.6c-1.2.6-3.8 1.7-5.7 2.4-4.8 1.9-24.2 11.2-25.8 12.4-1.5 1.2.2 3.7 2.5 3.7.8 0 6.5-2.3 12.6-5.2 6.2-2.9 14.8-6.6 19.2-8.3 9.1-3.6 10.6-5.9 3.7-6.1-2.4 0-5.3.5-6.5 1.1m14.8 18.1c-7.2 1.6-31.5 12.5-31.5 14.2 0 .5.7 1.5 1.5 2.2 1.2 1 2.7.7 8-1.9 3.6-1.7 6.8-3.1 7.1-3.1.2 0 2.3-.8 4.7-1.9 5.6-2.5 14.4-5.7 18.7-6.8 4.1-1 4.7-3.7 1-4-1.4-.1-5.6.5-9.5 1.3m12.5 16.9c-6.1 1.4-7.7 2-17 6.4-7.9 3.7-12.6 7.3-11.6 8.9 1.2 2 3 1.4 12.8-3.7 7.7-4 14.7-6.8 24.6-9.7 2-.6.9-2.9-1.4-3.1-1-.1-4.4.4-7.4 1.2m-150.9-17.4c-7.8 1-9.1 1.4-9.1 3.2 0 3.6 2.5 4 15.8 2.7 7-.7 15.9-1.5 19.9-1.7 7.1-.4 10.2-2 8.8-4.3-.7-1.2-25.2-1.1-35.4.1m22.9 19.4c-5.8.7-10.6 1.3-10.8 1.4-.1 0 .2 1 .7 2 1 1.8 2 1.9 15.4 1.4 9-.4 16.8-.1 21.1.6 5.1.9 7.2.9 8 .1 1.7-1.7-1.5-3.6-8.2-4.8-9.6-1.9-15.3-2-26.2-.7m3.5 20.4c-4.1.5-5 1-5 2.6 0 1.9.7 2 20.7 2 20.5-.1 24.7-.7 21.6-3.2-1.5-1.3-30.1-2.3-37.3-1.4M95.6 97.9c-1.2 1.3-2 4.1-2.2 7.8-.2 3.2-.9 11.4-1.4 18.3-1.3 17-2.5 95.9-2.1 143 .3 35.8.4 38.6 2.1 40.1 1.5 1.3 6.3 1.7 27.7 2.3 14.2.5 34.1 1.1 44.3 1.5 24.4 1 106.8 1.3 110.9.5 6.8-1.4 6.4 5.4 6.4-107 0-98.5-.1-101.6-1.9-104.1-2.4-3.2 2.9-3-101.5-3.7-78.8-.6-80.6-.5-82.3 1.3m116.4 7.6c50 .5 53 .6 53 1.6 0 .4-3.4 3.9-7.6 7.8l-7.6 7.2-61.6-.5c-33.9-.2-62.6-.8-63.7-1.1-1.6-.6-16.5-15.2-16.5-16.2 0-.2 12.5-.1 27.8.2 15.2.2 49.5.7 76.2 1m60.5 91.2c-.3 47.2-.5 88.4-.5 91.7l.1 5.9-3.3-2.7c-1.8-1.5-5.7-4.5-8.6-6.7l-5.2-4V205l.1-75.9 8.7-8.9c4.8-5 8.8-9 9-9.1.1-.1 0 38.5-.3 85.6m-156.7-72.6c1 1.4 1.2 11.9.9 48.1-.1 25.5.1 58.4.5 73.3.5 14.8.6 27.9.4 29-.3 1.1-2 2.9-3.8 3.9-1.8 1.1-5.8 4.1-8.8 6.8l-5.5 4.9-.6-10.8c-.7-10.9-.4-61.3.6-108.8.5-24.7.8-31.1 2.1-50.3l.6-8.2 6.1 5.1c3.4 2.9 6.8 6 7.5 7m77.8 6.5 51.2.7 1 5.1c.6 3.1.8 17.4.6 35.8-.2 16.9-.4 36.1-.4 42.6v11.9l-4.2-1.2c-15.2-4.6-31.5-9.9-32.6-10.8-.9-.7-1-2.7-.6-7.2 1.6-15.8-4.2-23.6-22.3-30-5.9-2.1-6.4-2-15 4.3-14 10.2-21.4 16.8-32.4 28.9-6.6 7.3-12.5 13.3-13.1 13.3-.8 0-.9-12.6-.4-45.8.4-25.1.7-46.5.7-47.6 0-1.7.7-1.8 8.2-1.3 4.5.3 31.2.9 59.3 1.3M158 284.5c4.1.2 22.4.4 40.5.5 18.2.1 36.8.4 41.4.7l8.3.6 8.8 7.1c4.9 3.9 9.6 7.7 10.7 8.3 1.4 1-8.9 1.2-50.7.9-53.2-.4-112.6-1.9-113.6-2.8-.6-.6 11.6-12.5 15.4-15 2.6-1.7 12.3-1.8 39.2-.3"/></g></svg>