<svg version="1.1" xmlns="http://www.w3.org/2000/svg" style="display: block;" viewBox="0 0 2048 2048" width="1024" height="1024">
<defs>
	<linearGradient id="Gradient1" gradientUnits="userSpaceOnUse" x1="1383.2" y1="397.523" x2="1329.33" y2="434.803">
		<stop class="stop0" offset="0" stop-opacity="1" stop-color="rgb(3,38,114)"/>
		<stop class="stop1" offset="1" stop-opacity="1" stop-color="rgb(24,52,169)"/>
	</linearGradient>
</defs>
<path transform="translate(0,0)" fill="rgb(249,243,240)" d="M 0 0 L 2048 0 L 2048 2048 L 0 2048 L 0 0 z"/>
<path transform="translate(0,0)" fill="rgb(5,55,138)" d="M 1650.74 136.127 C 1656.65 133.964 1663.47 131.302 1669.51 134.789 C 1672.79 136.679 1674.54 140.73 1675.04 144.323 C 1675.59 148.325 1675.17 152.706 1674.97 156.733 L 1670.54 369.678 C 1670.4 378.549 1665.62 388.425 1667.15 397.02 L 1667.77 397.332 C 1671.7 385.8 1675.9 366.13 1687.48 360.132 C 1699.12 354.106 1719.14 360.197 1732.07 360.281 C 1747.18 360.378 1762.21 358.705 1777.29 358.557 C 1789.46 358.437 1869.63 360.893 1877.1 364.651 C 1885.18 368.715 1890.99 407.203 1893.78 417.035 C 1902.81 448.824 1912.97 480.265 1921.62 512.16 C 1928.94 539.128 1934.69 566.506 1942.57 593.332 C 1946.03 605.106 1948.9 617.293 1952.9 628.87 C 1956.06 638 1962.68 649.48 1963.84 658.921 C 1964.21 661.925 1964.01 664.53 1962.13 666.981 C 1959.45 669.698 1957.12 671.321 1953.33 672.15 C 1944.14 674.16 1933.49 673.492 1924.08 674.154 C 1903.1 675.629 1882.01 677.754 1860.98 678.234 C 1860.92 718.321 1861.77 758.407 1862.03 798.498 C 1862.11 810.258 1864.59 824.515 1862.25 835.91 C 1861.82 833.758 1862.18 834.871 1861.05 832.613 C 1856.85 831.216 1849.46 830.141 1845.32 832.094 C 1841.47 805.454 1843.31 766.034 1843.03 737.928 C 1842.85 718.588 1841.02 699.344 1841.1 679.977 C 1827.31 679.582 1813.58 678.783 1799.84 680.248 C 1799.96 680.536 1800.08 680.821 1800.19 681.113 C 1800.37 681.597 1800.53 682.092 1800.71 682.576 C 1804.94 693.984 1801.24 860.71 1801.18 889.17 L 1801.12 1161.72 C 1799.46 1311.93 1799.08 1462.16 1799.98 1612.38 C 1836.05 1621.02 1906.83 1629.36 1928.86 1661.53 C 1933.83 1668.78 1935.15 1677.63 1933.18 1686.15 C 1930.73 1696.77 1923.01 1704.31 1913.89 1709.68 C 1871.04 1734.92 1807.31 1735.24 1758.98 1733.61 C 1738.37 1732.91 1718.6 1732.38 1698.48 1727.29 C 1696.85 1733.98 1695.34 1740.55 1692.39 1746.8 C 1682.26 1768.24 1661.18 1777.35 1640.08 1784.67 C 1640.16 1794.33 1639.56 1803.99 1639.86 1813.66 C 1640.38 1830.44 1645.97 1857.15 1634.31 1870.82 C 1625.98 1880.58 1615.24 1882.07 1603.23 1883 C 1589.57 1884.06 1572.52 1886.91 1561.51 1876.74 C 1558.26 1873.73 1556.43 1868.98 1555.06 1864.87 C 1552.09 1856.02 1551.2 1845.74 1549.26 1836.54 C 1546.19 1822.05 1540.44 1805.9 1539.89 1791.19 C 1507.31 1795.42 1474.86 1797.78 1442.2 1800.97 L 1221.62 1821.72 C 1143.98 1829.84 1066.28 1837.26 988.507 1843.97 C 968.951 1845.85 949.482 1848.99 929.941 1851.1 C 901.811 1854.15 873.186 1855.91 844.939 1857.62 C 750.858 1863.97 656.72 1869.46 562.538 1874.08 C 534.94 1875.29 507.132 1875.43 479.5 1876.04 C 467.542 1876.3 451.876 1874.72 440.417 1878.02 C 423.856 1882.79 431.068 1939.99 421.018 1958.49 C 416.219 1967.32 408.292 1973.6 398.663 1976.42 C 387.584 1979.66 370.449 1979.39 360.243 1973.7 C 354.581 1970.56 350.042 1965.73 347.264 1959.88 C 338.476 1941.45 337.305 1900.47 330.889 1879.31 C 330.763 1878.89 330.625 1878.48 330.493 1878.07 C 280.605 1864.39 254.137 1834.27 213.625 1807.97 C 208.254 1818.15 202.574 1831.76 193.447 1838.96 C 184.975 1845.65 172.848 1846.34 162.549 1844.91 C 150.099 1843.17 135.69 1839.18 128.107 1828.41 C 117.27 1813.02 125.52 1786.6 126.74 1769.21 C 127.358 1760.4 126.453 1751.45 127.758 1742.73 C 113.709 1731.5 100.936 1719.12 91.6652 1703.53 C 82.2659 1687.72 77.9009 1670.18 75.4762 1652.06 C 70.9694 1618.38 72.3882 1575.18 71.5235 1540.57 C 71.0794 1522.8 69.6014 1505.06 69.1803 1487.29 C 68.416 1455.05 69.0619 1422.62 68.9819 1390.36 C 68.9089 1360.91 66.0139 1327.24 73.7688 1298.63 C 80.655 1273.22 93.3829 1257.12 115.99 1244.18 C 115.379 1214.67 108.618 1186.06 107.284 1156.68 C 105.788 1123.71 106.265 1091.23 106.753 1058.28 C 106.996 1041.85 106.068 1025.42 107.763 1009.04 C 108.765 999.361 111.132 989.828 112.92 980.267 C 119.42 945.512 127.439 908.572 152.284 881.732 C 177.889 854.072 215.282 833.924 251.466 823.755 C 279.421 815.898 320.863 813.832 350.53 810.91 C 383.886 807.625 416.985 806.398 450.393 804.411 C 484.582 802.378 518.917 799.752 553.16 798.999 C 578.495 798.442 603.872 799.364 629.212 799.029 C 655.878 798.676 682.591 797.036 709.207 796.724 C 749.204 796.255 789.331 799.808 829.364 798.304 C 828.481 794.259 828.03 790.987 828.5 786.858 C 828.188 786.297 827.864 785.743 827.563 785.177 C 822.655 775.931 823.101 761.668 822.644 751.265 C 821.646 728.545 821.739 705.742 821.269 683.004 C 820.093 632.978 819.527 582.941 819.571 532.902 L 820.883 371.003 C 820.823 326.231 819.735 281.48 820.111 236.682 C 820.253 219.834 821.462 203.049 821.735 186.218 C 821.977 171.277 818.104 154.401 822.532 139.978 C 825.175 138.655 827.873 138.376 830.789 138.176 C 842.981 137.34 855.479 138.157 867.718 137.876 C 883.976 137.502 900.166 136.191 916.445 136.039 L 1650.74 136.127 z"/>
<path transform="translate(0,0)" fill="rgb(249,243,240)" d="M 1650.74 136.127 C 1656.65 133.964 1663.47 131.302 1669.51 134.789 C 1672.79 136.679 1674.54 140.73 1675.04 144.323 C 1675.59 148.325 1675.17 152.706 1674.97 156.733 L 1670.54 369.678 C 1670.4 378.549 1665.62 388.425 1667.15 397.02 L 1667.77 397.332 C 1671.7 385.8 1675.9 366.13 1687.48 360.132 C 1699.12 354.106 1719.14 360.197 1732.07 360.281 C 1747.18 360.378 1762.21 358.705 1777.29 358.557 C 1789.46 358.437 1869.63 360.893 1877.1 364.651 C 1885.18 368.715 1890.99 407.203 1893.78 417.035 C 1902.81 448.824 1912.97 480.265 1921.62 512.16 C 1928.94 539.128 1934.69 566.506 1942.57 593.332 C 1946.03 605.106 1948.9 617.293 1952.9 628.87 C 1956.06 638 1962.68 649.48 1963.84 658.921 C 1964.21 661.925 1964.01 664.53 1962.13 666.981 L 1961.14 665.851 C 1959.28 667.184 1957.33 668.45 1955.3 669.515 C 1952.34 671.069 1949.61 671.995 1946.31 671.016 C 1942.44 667.635 1940.51 657.879 1938.6 652.873 C 1938.34 652.993 1938.08 653.135 1937.81 653.232 C 1930.52 655.807 1910.95 655.259 1901.93 655.784 C 1862.06 658.11 1822.54 660.847 1782.55 660.664 C 1764.13 660.58 1745.63 659.057 1727.24 657.963 C 1699.52 656.313 1671.84 654.7 1644.22 651.7 C 1635.92 650.8 1615.93 650.276 1609.41 646.636 C 1608.05 645.875 1607.89 643.431 1607.5 641.972 C 1605.08 646.036 1606.97 658.737 1608.14 663.35 C 1608.21 663.648 1608.31 663.939 1608.38 664.237 C 1608.55 664.933 1608.69 665.637 1608.84 666.338 C 1657.12 668.958 1705.34 678.215 1753.85 678.101 C 1758.34 714.211 1758.07 749.689 1758.09 786.009 L 1758.01 892.664 L 1755.03 1263.7 C 1754.05 1340.91 1754.92 1418.32 1754.95 1495.56 C 1754.96 1530.48 1756.72 1572.34 1754.03 1606.55 C 1749.91 1607.97 1746.62 1609.14 1743.19 1611.94 C 1742.96 1571.57 1735.7 1561.99 1719.72 1527.68 C 1716.44 1520.65 1714.72 1513.04 1711.2 1506.15 C 1713.13 1492.43 1711.93 1479.12 1711.49 1465.34 C 1710.84 1444.6 1710.15 1423.61 1709.96 1402.86 C 1709.73 1377.49 1712.97 1352.15 1711.38 1326.76 C 1710.54 1313.31 1708.88 1299.92 1704.57 1287.09 C 1696.66 1263.55 1675.55 1243.74 1651.11 1238.21 C 1636.57 1234.93 1622.61 1234.45 1609.04 1227.51 C 1608.68 1227.33 1608.32 1227.14 1607.96 1226.95 C 1609.99 1207.14 1613.3 1089.03 1605.27 1079.25 C 1602.9 1076.35 1599.53 1075.04 1595.93 1074.54 C 1586.53 1073.24 1575.9 1074.96 1566.38 1075.43 C 1552.9 1076.2 1539.39 1076.15 1525.91 1075.29 C 1526.08 1069.1 1526.62 1062.92 1526.83 1056.73 C 1527.03 1050.91 1526.32 1044.38 1521.96 1040.08 C 1516.75 1034.95 1509.84 1035.01 1503.08 1035.35 C 1489.74 1034.89 1458.96 1032.13 1446.97 1036.77 C 1439.16 1036.82 1429.95 1038.54 1424.17 1044.21 C 1419.54 1048.76 1417.83 1055.65 1416.73 1061.84 C 1414.24 1075.79 1415.35 1091.39 1415.43 1105.54 L 1415.8 1171.6 C 1390.95 1169.2 1367.53 1158.63 1343.04 1155.12 C 1342.78 1134.18 1340.05 1113.79 1337.98 1093.01 C 1336.27 1075.76 1335.09 1058.42 1333.44 1041.14 C 1329.48 999.658 1327.3 958.029 1320.26 916.913 C 1324.42 916.982 1328.54 916.804 1332.7 916.604 C 1330.82 912.188 1321.64 917.332 1318.48 913.677 C 1315.64 910.392 1315.78 904.681 1316.74 900.788 C 1321.26 895.813 1329.21 900.907 1335.47 900.447 L 1336.28 898.987 C 1329.17 897.69 1322.02 898.297 1315.11 897.012 C 1309.14 888.06 1305.03 876.857 1300.62 867.032 C 1298.89 865.795 1297.13 864.546 1295.49 863.189 C 1292.81 860.967 1289.94 856.275 1289.73 852.809 C 1292.56 848.969 1296.94 850.913 1300.53 847.999 L 1299 847.239 C 1295.82 848.271 1290.74 848.997 1287.59 847.505 C 1283.73 845.683 1279.67 841.241 1276.33 838.514 C 1267.02 830.907 1257.35 827.414 1245.99 823.879 C 1251.37 815.382 1256.34 805.005 1258.52 795.161 C 1259.4 782.783 1279.99 739.726 1285.67 725.005 C 1288.71 717.107 1290.71 708.623 1294.55 701.05 C 1295.76 698.656 1296.51 696.98 1299.12 696.056 C 1300.58 697.908 1300.84 699.68 1301.05 701.973 C 1302.11 713.688 1301.03 726.379 1301 738.173 L 1301.11 805.191 C 1301.05 814.819 1299.01 835.37 1302.48 843.867 C 1302.61 844.184 1302.77 844.49 1302.91 844.806 C 1303.36 845.869 1303.21 845.977 1304.09 846.743 C 1306.22 848.602 1308.13 848.873 1310.83 848.953 C 1313.75 847.148 1315.08 845.781 1315.58 842.203 C 1316.3 836.993 1314.34 815.654 1314.2 808.283 C 1313.87 775.356 1313.77 742.428 1313.92 709.5 C 1313.91 694.988 1311.82 663.702 1315.37 650.671 C 1315.46 650.333 1315.57 650 1315.67 649.665 C 1315.96 643.541 1315.7 637.288 1315.69 631.151 C 1310.99 628.828 1300.91 623.891 1297.95 620.031 C 1290.69 617.65 1257.82 614.709 1251.67 617.43 C 1247.68 619.193 1245.11 624.405 1243.28 628.128 C 1229.49 656.144 1220.67 687.554 1210.37 716.992 C 1199.78 747.292 1187.86 777.095 1176.68 807.176 C 1170.81 807.076 1165.21 806.468 1159.41 805.651 C 1154.46 779.848 1157 751.959 1157.74 725.849 C 1158.83 687.491 1158.24 649.046 1158.58 610.67 C 1158.7 597.122 1161.21 582.972 1160.5 569.597 C 1160.31 566.15 1159.57 562.657 1157.56 559.789 C 1155.32 556.61 1152.35 555.236 1148.66 554.323 C 1128.54 549.349 1097.42 553.833 1073.24 549.347 C 1068.53 551.506 1063.74 553.835 1059.97 557.466 C 1057.48 559.864 1055.23 563.459 1054.91 566.973 C 1054.42 572.443 1058.27 578.184 1058.94 583.765 C 1060.61 597.715 1060.48 612.092 1060.02 626.115 C 1045.21 626.061 1015.84 627.256 1002.13 623.165 C 997.127 621.671 998.313 609.866 995.371 605.143 C 993.136 601.555 989.557 599.246 985.578 597.985 C 969.426 592.869 935.103 595.847 915.055 591.419 C 914.68 591.336 914.308 591.243 913.935 591.154 C 914.21 583.774 917.124 570.954 912.561 564.94 C 909.341 560.696 904.305 560.26 899.393 559.895 C 897.081 565.296 897.226 570.329 896.095 575.945 C 882.039 574.797 851.674 574.004 839.462 579.689 C 834.602 584.805 836.847 626.433 837.069 635.127 C 838.201 670.984 838.942 706.853 839.291 742.726 C 839.476 755.163 841.189 768.193 840.448 780.558 C 840.26 783.692 839.998 785.392 838.036 787.841 C 835.06 789.175 832.721 788.631 829.762 787.43 C 829.334 787.257 828.921 787.049 828.5 786.858 C 828.188 786.297 827.864 785.743 827.563 785.177 C 822.655 775.931 823.101 761.668 822.644 751.265 C 821.646 728.545 821.739 705.742 821.269 683.004 C 820.093 632.978 819.527 582.941 819.571 532.902 L 820.883 371.003 C 820.823 326.231 819.735 281.48 820.111 236.682 C 820.253 219.834 821.462 203.049 821.735 186.218 C 821.977 171.277 818.104 154.401 822.532 139.978 C 825.175 138.655 827.873 138.376 830.789 138.176 C 842.981 137.34 855.479 138.157 867.718 137.876 C 883.976 137.502 900.166 136.191 916.445 136.039 L 1650.74 136.127 z"/>
<path transform="translate(0,0)" fill="rgb(14,48,147)" d="M 840.956 156.234 C 871.991 156.172 902.948 152.989 934.023 152.856 L 1375.13 154.509 C 1394.59 154.574 1414.04 155.518 1433.5 155.745 C 1490.21 156.752 1546.94 156.351 1603.63 154.54 C 1618.67 154.126 1634.16 156.838 1649.08 155.486 C 1651.85 155.927 1653.69 155.975 1656.03 157.666 C 1657.66 158.005 1657.18 157.956 1658.63 158.097 C 1663.9 158.608 1670.73 160.278 1674.97 156.733 L 1670.54 369.678 C 1670.4 378.549 1665.62 388.425 1667.15 397.02 L 1667.77 397.332 C 1671.7 385.8 1675.9 366.13 1687.48 360.132 C 1699.12 354.106 1719.14 360.197 1732.07 360.281 C 1747.18 360.378 1762.21 358.705 1777.29 358.557 C 1789.46 358.437 1869.63 360.893 1877.1 364.651 C 1885.18 368.715 1890.99 407.203 1893.78 417.035 C 1902.81 448.824 1912.97 480.265 1921.62 512.16 C 1928.94 539.128 1934.69 566.506 1942.57 593.332 C 1946.03 605.106 1948.9 617.293 1952.9 628.87 C 1956.06 638 1962.68 649.48 1963.84 658.921 C 1964.21 661.925 1964.01 664.53 1962.13 666.981 L 1961.14 665.851 C 1959.28 667.184 1957.33 668.45 1955.3 669.515 C 1952.34 671.069 1949.61 671.995 1946.31 671.016 C 1942.44 667.635 1940.51 657.879 1938.6 652.873 C 1938.34 652.993 1938.08 653.135 1937.81 653.232 C 1930.52 655.807 1910.95 655.259 1901.93 655.784 C 1862.06 658.11 1822.54 660.847 1782.55 660.664 C 1764.13 660.58 1745.63 659.057 1727.24 657.963 C 1699.52 656.313 1671.84 654.7 1644.22 651.7 C 1635.92 650.8 1615.93 650.276 1609.41 646.636 C 1608.05 645.875 1607.89 643.431 1607.5 641.972 C 1605.08 646.036 1606.97 658.737 1608.14 663.35 C 1608.21 663.648 1608.31 663.939 1608.38 664.237 C 1608.55 664.933 1608.69 665.637 1608.84 666.338 C 1603.5 666.166 1596.23 666.314 1591.55 663.477 C 1585.61 659.868 1584.56 654.071 1582.89 647.832 C 1595.65 618.931 1605.22 590.156 1615.04 560.164 C 1623.09 535.597 1631.23 511.048 1637.91 486.066 C 1625.15 485.429 1612.26 484.52 1599.48 484.537 C 1592.52 484.545 1585.25 485.655 1578.35 485.222 C 1570.52 484.73 1563.47 482.852 1555.38 482.902 C 1550.64 483.426 1545.79 484.089 1541.03 484.123 C 1532.24 484.186 1523.29 482.549 1514.5 482.022 C 1502.71 481.314 1489.59 482.877 1478.23 479.913 C 1444.1 479.431 1409.87 478.152 1375.72 478.106 C 1366.14 478.093 1356.83 480.632 1347.29 480.824 C 1337.58 481.019 1327.77 479.396 1318 479.399 C 1288.16 479.41 1258.29 480.328 1228.45 480.086 C 1213.61 479.966 1198.79 478.56 1183.93 478.324 C 1173.77 478.163 1163.54 479.298 1153.39 478.796 C 1140.77 478.172 1128.27 476.292 1115.61 476.09 C 1093.35 475.734 1070.69 475.518 1048.45 475.969 C 1035.6 476.229 1022.82 477.446 1009.94 477.566 C 978.508 477.857 947.05 476.771 915.614 477.243 L 911.556 477.44 C 887.766 477.564 860.175 474.891 837.107 480.813 C 835.659 480.118 835.817 480.308 834.76 479.471 C 831.17 476.628 828.754 473.201 828.398 468.52 C 828.201 465.935 828.949 463.585 830.826 461.743 C 832.886 459.723 834.892 459.733 837.584 459.672 C 838.681 434.477 837.159 409.191 837.276 383.994 L 837.769 224.019 C 856.95 223.787 876.098 222.638 895.287 223.102 C 894.942 222.798 894.553 222.537 894.253 222.189 C 891.693 219.22 892.714 209.204 892.509 205.122 C 875.302 207.472 856.349 207.534 839.067 206.213 C 840.034 189.492 840.852 172.994 840.956 156.234 z"/>
<path transform="translate(0,0)" fill="rgb(249,243,240)" d="M 840.956 156.234 C 871.991 156.172 902.948 152.989 934.023 152.856 L 1375.13 154.509 C 1394.59 154.574 1414.04 155.518 1433.5 155.745 C 1490.21 156.752 1546.94 156.351 1603.63 154.54 C 1618.67 154.126 1634.16 156.838 1649.08 155.486 C 1651.85 155.927 1653.69 155.975 1656.03 157.666 C 1656.75 174.763 1657.03 191.177 1655.27 208.232 C 1637.97 207.48 1595.31 201.983 1582.6 213 C 1577.23 217.655 1575.34 224.614 1574.99 231.498 C 1574.89 233.476 1575.02 235.478 1575.16 237.452 C 1568.93 236.873 1562.86 234.623 1556.68 233.56 C 1548.3 232.119 1539.76 232.531 1531.29 232.769 C 1522.09 231.382 1490.18 229.931 1482.45 235.144 C 1478.42 237.86 1476.71 242.996 1475.93 247.57 C 1473.01 264.691 1477.12 298.603 1478.41 317.288 C 1478.03 317.384 1477.65 317.486 1477.27 317.578 C 1464.39 320.666 1415.71 318.488 1400.28 317.293 C 1393.51 316.769 1367.53 311.776 1362.98 313.321 C 1362.35 313.535 1361.1 314.884 1360.81 315.24 C 1355.45 321.756 1354.05 365.455 1355.81 374.283 C 1357.25 373.822 1356.58 373.868 1358.15 374.099 C 1360.82 374.49 1363.47 374.898 1366.17 374.965 C 1368.65 375.027 1368.71 375.448 1370.61 373.622 C 1370.64 371.215 1370.35 368.311 1371.32 366.078 C 1371.45 365.79 1371.64 365.537 1371.8 365.266 C 1371.9 369.084 1371.13 374.329 1373.2 377.572 L 1376.61 378.649 C 1373.95 380.833 1373.49 380.997 1373.22 384.426 C 1372.93 388.143 1374.31 391.938 1376.55 394.845 L 1360.02 395.001 C 1358.79 416.467 1359.56 437.505 1359.22 458.939 C 1351.67 457.75 1347.87 459.478 1342 453.359 C 1341.82 456.283 1342.23 458.074 1340.31 460.359 C 1337.84 457.987 1337.75 456.01 1336.86 452.745 C 1324.06 407.59 1312.99 361.965 1303.66 315.969 C 1299.68 295.433 1294.71 275.176 1290.65 254.704 C 1289.62 249.52 1292.56 243.773 1290.83 239.004 C 1288.89 233.631 1280.62 231.46 1275.81 229.619 C 1263.92 234.085 1245.63 231.843 1232.71 231.978 C 1232.92 218.118 1232.89 204.256 1232.61 190.397 C 1232.65 187.442 1231.61 184.576 1229.69 182.326 C 1225.68 177.592 1219.42 176.3 1213.55 175.749 C 1200.72 176.591 1156.1 175.708 1148.44 183.926 C 1143.16 189.585 1144.69 200.001 1145.28 207.095 C 1146.74 224.614 1146.84 241.801 1147.74 259.313 C 1126.71 260.86 1105.12 260.254 1084.03 260.212 C 1075.07 260.195 1065.28 259.247 1056.44 260.745 L 1055.09 260.968 L 1054.93 226.407 C 1055.31 223.966 1055.76 221.421 1055.84 218.947 C 1055.95 215.68 1054.51 211.489 1051.89 209.458 C 1048.29 206.661 1044.81 207.257 1040.67 208.242 C 1035.41 208.155 1030.14 208.095 1024.88 208.062 C 1012.21 207.952 969.709 206.112 961.623 215.151 C 954.262 223.378 956.949 239.689 957.561 249.892 C 943.019 249.529 928.397 248.983 913.941 247.301 C 917.631 232.506 921.09 227.022 915.238 211.663 C 914.252 210.734 913.238 209.835 912.196 208.969 C 905.984 203.883 899.99 204.468 892.509 205.122 C 875.302 207.472 856.349 207.534 839.067 206.213 C 840.034 189.492 840.852 172.994 840.956 156.234 z"/>
<path transform="translate(0,0)" fill="url(#Gradient1)" d="M 1355.81 374.283 C 1357.25 373.822 1356.58 373.868 1358.15 374.099 C 1360.82 374.49 1363.47 374.898 1366.17 374.965 C 1368.65 375.027 1368.71 375.448 1370.61 373.622 C 1370.64 371.215 1370.35 368.311 1371.32 366.078 C 1371.45 365.79 1371.64 365.537 1371.8 365.266 C 1371.9 369.084 1371.13 374.329 1373.2 377.572 L 1376.61 378.649 C 1373.95 380.833 1373.49 380.997 1373.22 384.426 C 1372.93 388.143 1374.31 391.938 1376.55 394.845 L 1360.02 395.001 C 1358.79 416.467 1359.56 437.505 1359.22 458.939 C 1351.67 457.75 1347.87 459.478 1342 453.359 C 1341.96 436.523 1343.85 419.672 1343.08 402.837 C 1342.99 400.773 1343.16 397.003 1342.49 395.094 C 1341.15 391.24 1338.31 391.462 1339.42 386.695 C 1340.9 380.34 1350.61 376.931 1355.81 374.283 z"/>
<path transform="translate(0,0)" fill="rgb(254,81,151)" d="M 1697.08 379.614 C 1702.49 380.789 1705.86 381.351 1711.35 379.961 C 1736.06 373.696 1785.5 373.763 1811.56 376.292 C 1820.97 377.205 1830.15 379.82 1839.52 380.865 C 1846.23 381.614 1853.2 381.088 1859.93 380.849 C 1894.84 459.486 1909.17 546.129 1932.69 628.51 C 1934.97 636.501 1936.09 645.038 1938.6 652.873 C 1938.34 652.993 1938.08 653.135 1937.81 653.232 C 1930.52 655.807 1910.95 655.259 1901.93 655.784 C 1862.06 658.11 1822.54 660.847 1782.55 660.664 C 1764.13 660.58 1745.63 659.057 1727.24 657.963 C 1699.52 656.313 1671.84 654.7 1644.22 651.7 C 1635.92 650.8 1615.93 650.276 1609.41 646.636 C 1608.05 645.875 1607.89 643.431 1607.5 641.972 C 1615.84 612.265 1626.7 583.069 1635.96 553.609 C 1647.43 517.136 1659.23 481.136 1671.67 444.989 C 1679.26 422.973 1684.95 399.682 1697.08 379.614 z"/>
<path transform="translate(0,0)" fill="rgb(254,113,11)" d="M 1035.38 223.89 C 1040.28 234.11 1038.85 304.123 1038.95 319.97 C 1036.98 333.6 1039.16 349.295 1039.38 363.168 C 1039.88 395.119 1040.34 427.264 1039.5 459.199 C 1034.99 462.215 984.305 460.66 976.696 459.33 L 975.552 457.285 C 974.269 423.775 973.774 390.239 974.068 356.705 C 974.353 340.626 975.847 324.682 975.87 308.554 C 975.886 297.089 976.148 285.438 975.429 273.991 C 974.844 264.677 973.334 255.295 973.481 245.96 C 973.538 242.376 974.037 232.427 976.446 229.923 C 984.568 221.481 1022.85 223.951 1035.38 223.89 z"/>
<path transform="translate(0,0)" fill="rgb(254,81,151)" d="M 895.287 223.102 C 897.306 224.813 897.242 225.273 897.513 227.948 C 898.667 239.336 897.769 251.604 897.538 263.078 C 896.97 282.605 896.789 302.14 896.994 321.674 C 897.362 351.105 898.342 380.576 899.048 410.005 C 899.447 426.637 900.529 443.658 899.227 460.249 C 890.116 460.233 841.835 462.686 837.584 459.672 C 838.681 434.477 837.159 409.191 837.276 383.994 L 837.769 224.019 C 856.95 223.787 876.098 222.638 895.287 223.102 z"/>
<path transform="translate(0,0)" fill="rgb(254,113,11)" d="M 1201.56 193.28 L 1214.57 194.111 C 1215.66 215.867 1214.15 237.775 1215.63 259.475 C 1216.02 300.676 1216.09 341.879 1215.82 383.08 C 1215.8 403.117 1214.95 423.621 1216.18 443.591 C 1216.16 449.765 1216.08 455.945 1216.14 462.119 C 1206.65 461.974 1169.36 463.868 1163.68 459.718 C 1165.3 440.272 1163.33 419.805 1163.43 400.223 C 1163.66 355.707 1164.5 311.135 1164.31 266.622 C 1164.24 250.439 1161.06 212.017 1165.53 198.691 C 1173.12 192.695 1191.83 193.724 1201.56 193.28 z"/>
<path transform="translate(0,0)" fill="rgb(254,113,11)" d="M 1466.33 391.797 L 1478.98 393.556 C 1479.73 417.01 1479.46 440.428 1479.86 463.882 C 1465.2 463.116 1365.04 462.404 1361.08 460.889 C 1360.44 460.643 1360 460.038 1359.46 459.613 L 1359.22 458.939 C 1359.56 437.505 1358.79 416.467 1360.02 395.001 L 1376.55 394.845 C 1395.61 394.93 1414.51 393.365 1433.53 392.492 C 1444.46 391.99 1455.41 392.403 1466.33 391.797 z"/>
<path transform="translate(0,0)" fill="rgb(248,245,59)" d="M 1376.32 333.277 C 1389.71 332.256 1403.18 334.215 1416.56 334.856 C 1436.93 335.833 1457.59 336.087 1477.98 335.869 C 1479.15 344.826 1481.43 371.125 1477.92 378.609 L 1474.84 379.182 C 1452.17 376.693 1429.66 378.202 1406.97 378.36 C 1397.23 378.428 1386.12 376.679 1376.61 378.649 L 1373.2 377.572 C 1371.13 374.329 1371.9 369.084 1371.8 365.266 C 1373.14 354.695 1373.93 343.658 1376.32 333.277 z"/>
<path transform="translate(0,0)" fill="rgb(1,33,109)" d="M 1040.67 208.242 C 1044.81 207.257 1048.29 206.661 1051.89 209.458 C 1054.51 211.489 1055.95 215.68 1055.84 218.947 C 1055.76 221.421 1055.31 223.966 1054.93 226.407 C 1049.68 226.489 1045.14 227.439 1040.09 228.695 C 1040.12 239.978 1041.57 316.788 1038.95 319.97 C 1038.85 304.123 1040.28 234.11 1035.38 223.89 C 1035.25 219.949 1034.38 214.412 1036.24 210.836 C 1037.26 208.871 1038.71 208.95 1040.67 208.242 z"/>
<path transform="translate(0,0)" fill="rgb(1,33,109)" d="M 1213.55 175.749 C 1219.42 176.3 1225.68 177.592 1229.69 182.326 C 1231.61 184.576 1232.65 187.442 1232.61 190.397 C 1231.88 193.607 1232.09 194.699 1229.48 196.835 C 1225.96 197.935 1223.11 196.954 1219.61 196.117 C 1217.54 197.313 1218.08 196.49 1217.52 198.773 C 1213.77 214.142 1219.11 240.893 1215.63 259.475 C 1214.15 237.775 1215.66 215.867 1214.57 194.111 L 1201.56 193.28 C 1204.93 193.172 1208.96 193.573 1211.72 191.443 C 1214.04 187.917 1213.13 180.106 1213.55 175.749 z"/>
<path transform="translate(0,0)" fill="rgb(254,150,2)" d="M 1055.02 279.363 C 1085.96 275.05 1116.7 275.949 1147.84 276.24 C 1148.47 335.124 1146.09 394.043 1147.53 452.925 C 1147.4 455.742 1147.83 458.189 1146.19 460.538 C 1131.64 462.299 1115.64 460.2 1100.95 459.961 C 1086.89 459.731 1070.47 461.64 1056.76 459.156 L 1054.73 456.976 C 1057.68 446.538 1055.86 424.718 1055.87 412.936 C 1055.91 368.399 1054.73 323.898 1055.02 279.363 z"/>
<path transform="translate(0,0)" fill="rgb(254,113,11)" d="M 1622.27 223.431 C 1630.87 222.814 1646.82 221.749 1653.87 227.251 C 1658.99 244.68 1652.62 339.04 1652.21 364.34 C 1651.82 388.791 1653.81 420.006 1651.62 443.444 C 1650.83 451.881 1646.34 461.129 1643.34 469.01 C 1637.01 468.664 1630.59 468.86 1624.25 468.84 C 1612.19 468.963 1600.15 468.868 1588.13 467.808 C 1586.53 439.501 1588.01 411.048 1588.73 382.724 C 1589.46 354.154 1589.61 325.719 1590.77 297.133 C 1591.51 279.008 1590.03 260.098 1592.21 242.157 C 1593.06 235.187 1594.77 230.232 1598.12 224.128 C 1606.17 224.09 1614.22 223.858 1622.27 223.431 z"/>
<path transform="translate(0,0)" fill="rgb(34,204,79)" d="M 1498.47 248.197 C 1515.37 249.87 1532.57 247.651 1549.39 249.409 C 1545.43 256.111 1542.7 261.928 1541.44 269.696 C 1538.79 285.91 1540.11 303.769 1540.03 320.241 C 1539.87 350.365 1538.89 380.398 1538.36 410.507 C 1538.02 429.447 1538.98 448.674 1536.08 467.439 C 1522.9 466.3 1507.97 466.733 1495.17 463.858 C 1493.3 460.57 1493.95 456.056 1494.07 452.33 C 1496.37 436.454 1494.99 418.411 1495.07 402.33 C 1495.27 367.398 1495.2 332.464 1494.84 297.533 C 1494.73 284.893 1492.82 263.711 1495.41 251.709 C 1495.92 249.328 1496.47 249.349 1498.47 248.197 z"/>
<path transform="translate(0,0)" fill="rgb(254,113,11)" d="M 912.542 268.009 C 928.035 267.051 943.556 266.627 959.079 266.739 C 960.121 305.673 958.901 344.607 958.809 383.553 C 958.751 408.506 960.462 434.344 958.83 459.198 C 951.414 462.173 937.661 460.19 929.451 460.197 C 924.681 460.184 920.022 460.024 915.266 459.628 L 912.787 330.359 C 912.527 309.533 911.735 288.851 912.542 268.009 z"/>
<path transform="translate(0,0)" fill="rgb(254,81,151)" d="M 1232.16 253.379 C 1245.42 252.01 1258.23 248.207 1271.59 249.215 C 1291.18 319.42 1300.38 392.257 1322.82 461.707 C 1317.16 465.411 1299.13 463.713 1292.43 462.894 C 1289.67 460.938 1289.62 457.936 1288.71 454.741 C 1279.45 426.978 1271.67 398.934 1263 371.013 C 1253.38 339.995 1233.41 284.084 1232.16 253.379 z"/>
<path transform="translate(0,0)" fill="rgb(248,245,59)" d="M 1574.38 264.51 L 1572.41 406.451 C 1572.09 426.627 1573.7 448.341 1571.41 468.368 C 1565.84 466.874 1559.81 467.666 1554.09 467.928 C 1553.24 432.897 1554.28 398.006 1555.02 363 C 1555.69 331.474 1555.65 299.889 1556.02 268.354 C 1563.11 268.223 1567.91 267.633 1574.38 264.51 z"/>
<path transform="translate(0,0)" fill="rgb(249,243,240)" d="M 1231.92 457.219 C 1233.59 445.546 1232.37 432.495 1232.32 420.666 C 1232.17 389.562 1230.54 357.376 1233.46 326.391 C 1240.84 359.799 1251.71 392.659 1260.62 425.715 C 1263.87 437.76 1267.88 449.789 1269.68 462.159 C 1260.76 465.062 1245.97 464.129 1236.93 461.735 C 1233.76 460.895 1233.45 460.078 1231.92 457.219 z"/>
<path transform="translate(0,0)" fill="rgb(14,48,147)" d="M 1394.94 583.038 C 1395.02 593.008 1394.96 602.978 1394.78 612.946 C 1408.32 612.166 1422.63 614.486 1436.3 614.738 C 1447.42 614.943 1458.41 613.966 1469.48 613.999 C 1491.79 614.068 1514.2 615.056 1536.52 614.651 C 1542.16 614.897 1547.25 615.439 1551.26 619.855 C 1557.44 626.659 1556.91 636.161 1556.15 644.677 C 1554.67 661.486 1553.33 677.452 1553.72 694.408 C 1569.45 690.81 1577.9 689.407 1594.09 692.499 C 1598.61 690.227 1603.1 687.622 1608.01 686.339 C 1609.54 686.411 1610.14 686.065 1611.28 687.284 C 1612.85 688.956 1613.35 690.745 1613.65 692.945 C 1616.49 714.236 1614.76 737.431 1615.09 758.936 C 1615.28 771.878 1616.37 784.772 1616.77 797.703 C 1617.33 815.905 1617.06 834.182 1616.99 852.394 C 1628.02 852.144 1639.04 851.45 1650.01 850.315 C 1650.06 830.122 1649.48 702.044 1657.19 694.288 C 1659.12 692.35 1661.34 691.121 1663.98 690.464 C 1666.64 691.069 1667.23 691.199 1668.84 693.63 C 1671.52 697.655 1671.76 705.842 1671.84 710.72 C 1671.99 721.235 1669.83 731.674 1669.32 742.16 C 1668.18 765.756 1668.37 789.598 1668.2 813.23 C 1667.89 854.352 1665.87 895.482 1665.64 936.555 C 1665.18 1018.94 1666.99 1101.15 1664.32 1183.52 C 1663.91 1196.17 1666.35 1211.35 1662.07 1223.31 C 1660.66 1227.24 1658.41 1231.41 1654.59 1233.42 C 1653.13 1234.18 1652.61 1233.87 1651.09 1233.69 C 1647.56 1230.94 1646.56 1227.12 1646.11 1222.81 C 1645.21 1214.19 1646.24 1204.86 1646.59 1196.21 C 1647.22 1182.94 1647.53 1169.66 1647.53 1156.37 L 1648.02 1053.02 C 1647.94 1034.36 1646.87 1015.68 1647.11 997.032 C 1647.46 970.478 1650.21 943.69 1650.04 917.217 C 1635.14 922.486 1616.65 921.117 1600.94 921.58 C 1551 923.052 1503.88 921.564 1454.04 920.236 C 1413.65 919.161 1373.05 918.727 1332.7 916.604 C 1330.82 912.188 1321.64 917.332 1318.48 913.677 C 1315.64 910.392 1315.78 904.681 1316.74 900.788 C 1321.26 895.813 1329.21 900.907 1335.47 900.447 L 1336.28 898.987 C 1329.17 897.69 1322.02 898.297 1315.11 897.012 C 1309.14 888.06 1305.03 876.857 1300.62 867.032 C 1298.89 865.795 1297.13 864.546 1295.49 863.189 C 1292.81 860.967 1289.94 856.275 1289.73 852.809 C 1292.56 848.969 1296.94 850.913 1300.53 847.999 L 1299 847.239 C 1295.82 848.271 1290.74 848.997 1287.59 847.505 C 1283.73 845.683 1279.67 841.241 1276.33 838.514 C 1267.02 830.907 1257.35 827.414 1245.99 823.879 C 1251.37 815.382 1256.34 805.005 1258.52 795.161 C 1259.4 782.783 1279.99 739.726 1285.67 725.005 C 1288.71 717.107 1290.71 708.623 1294.55 701.05 C 1295.76 698.656 1296.51 696.98 1299.12 696.056 C 1300.58 697.908 1300.84 699.68 1301.05 701.973 C 1302.11 713.688 1301.03 726.379 1301 738.173 L 1301.11 805.191 C 1301.05 814.819 1299.01 835.37 1302.48 843.867 C 1302.61 844.184 1302.77 844.49 1302.91 844.806 C 1303.36 845.869 1303.21 845.977 1304.09 846.743 C 1306.22 848.602 1308.13 848.873 1310.83 848.953 C 1313.75 847.148 1315.08 845.781 1315.58 842.203 C 1316.3 836.993 1314.34 815.654 1314.2 808.283 C 1313.87 775.356 1313.77 742.428 1313.92 709.5 C 1313.91 694.988 1311.82 663.702 1315.37 650.671 C 1315.46 650.333 1315.57 650 1315.67 649.665 C 1315.96 643.541 1315.7 637.288 1315.69 631.151 C 1315.13 620.917 1314.05 610.08 1314.97 599.865 C 1315.27 596.529 1315.83 592.449 1318.65 590.32 C 1327.3 583.787 1365.15 586.759 1376.77 588.015 L 1377.58 592.018 C 1382.99 590.758 1388.93 587.368 1394.22 585.335 L 1394.94 583.038 z"/>
<path transform="translate(0,0)" fill="rgb(254,150,2)" d="M 1536.52 614.651 C 1542.16 614.897 1547.25 615.439 1551.26 619.855 C 1557.44 626.659 1556.91 636.161 1556.15 644.677 C 1554.67 661.486 1553.33 677.452 1553.72 694.408 C 1569.45 690.81 1577.9 689.407 1594.09 692.499 C 1598.61 690.227 1603.1 687.622 1608.01 686.339 C 1607.64 686.724 1607.28 687.12 1606.91 687.496 C 1600.95 693.398 1592.99 692.264 1592.48 702.809 C 1592.45 703.694 1592.42 704.579 1592.41 705.465 C 1593.58 705.665 1595.61 705.629 1596.37 706.539 C 1599.08 720.062 1598.35 734.515 1598.62 748.292 L 1599.79 802.501 C 1600.03 819.958 1599.74 836.924 1601.9 854.301 C 1589.95 854.509 1578 854.508 1566.06 854.298 C 1561.81 855.042 1532.15 856.273 1529.65 855.599 C 1521.27 852.294 1489.04 853.311 1477.82 852.7 L 1477.01 633.994 C 1492.52 631.348 1508.6 631.356 1524.31 630.679 L 1524.99 630.011 C 1528.45 629.224 1532.22 628.618 1535.26 626.72 C 1537.07 622.836 1536.6 618.836 1536.52 614.651 z"/>
<path transform="translate(0,0)" fill="rgb(254,81,151)" d="M 1553.63 707.2 C 1568.09 709.057 1581.97 708.584 1596.37 706.539 C 1599.08 720.062 1598.35 734.515 1598.62 748.292 L 1599.79 802.501 C 1600.03 819.958 1599.74 836.924 1601.9 854.301 C 1589.95 854.509 1578 854.508 1566.06 854.298 C 1562.43 854.302 1559.15 854.158 1555.58 853.477 C 1552.32 849.041 1553.93 724.197 1553.63 707.2 z"/>
<path transform="translate(0,0)" fill="rgb(14,48,147)" d="M 1536.52 614.651 C 1542.16 614.897 1547.25 615.439 1551.26 619.855 C 1557.44 626.659 1556.91 636.161 1556.15 644.677 C 1554.67 661.486 1553.33 677.452 1553.72 694.408 C 1569.45 690.81 1577.9 689.407 1594.09 692.499 C 1598.61 690.227 1603.1 687.622 1608.01 686.339 C 1607.64 686.724 1607.28 687.12 1606.91 687.496 C 1600.95 693.398 1592.99 692.264 1592.48 702.809 C 1592.45 703.694 1592.42 704.579 1592.41 705.465 C 1593.58 705.665 1595.61 705.629 1596.37 706.539 C 1581.97 708.584 1568.09 709.057 1553.63 707.2 C 1553.93 724.197 1552.32 849.041 1555.58 853.477 C 1559.15 854.158 1562.43 854.302 1566.06 854.298 C 1561.81 855.042 1532.15 856.273 1529.65 855.599 C 1532.17 855.221 1534.47 855.05 1536.65 853.6 C 1538.13 845.026 1537.14 834.773 1537.16 826.027 L 1537.05 763.24 C 1537 732.281 1537.65 701.449 1537.2 670.478 C 1537 657.461 1537.57 644.166 1536.03 631.244 L 1524.31 630.679 L 1524.99 630.011 C 1528.45 629.224 1532.22 628.618 1535.26 626.72 C 1537.07 622.836 1536.6 618.836 1536.52 614.651 z"/>
<path transform="translate(0,0)" fill="rgb(254,113,11)" d="M 1315.69 631.151 C 1315.13 620.917 1314.05 610.08 1314.97 599.865 C 1315.27 596.529 1315.83 592.449 1318.65 590.32 C 1327.3 583.787 1365.15 586.759 1376.77 588.015 L 1377.58 592.018 C 1378.85 612.151 1377.74 631.431 1377.5 651.503 C 1377.2 675.933 1377.67 700.357 1377.35 724.817 C 1377.19 737.184 1378.05 749.591 1378.11 761.971 C 1378.2 778.873 1377.29 795.757 1377.1 812.654 C 1376.95 825.731 1377.47 838.862 1377.11 851.926 C 1357.34 851.542 1337.78 851.594 1318.07 849.781 C 1313.04 783.312 1316.95 716.262 1315.67 649.665 C 1315.96 643.541 1315.7 637.288 1315.69 631.151 z"/>
<path transform="translate(0,0)" fill="rgb(249,243,240)" d="M 1300.62 867.032 L 1447.2 869.385 C 1465.56 869.648 1483.9 868.823 1502.27 869.242 C 1514.35 869.518 1526.39 870.591 1538.47 870.805 C 1559.41 871.176 1580.31 870.523 1601.25 870.309 C 1616.93 870.149 1632.95 870.775 1648.51 868.686 C 1648.91 868.632 1649.31 868.59 1649.71 868.543 L 1650.38 900.431 L 1648.83 900.434 C 1633.54 900.551 1618.36 903.669 1603 904.088 C 1549.93 905.536 1496.78 904.288 1443.73 903.209 C 1408.11 902.485 1371.7 903.061 1336.28 898.987 C 1329.17 897.69 1322.02 898.297 1315.11 897.012 C 1309.14 888.06 1305.03 876.857 1300.62 867.032 z"/>
<path transform="translate(0,0)" fill="rgb(249,243,240)" d="M 1298.89 694.354 C 1299.35 726.566 1299.41 758.783 1299.08 790.996 C 1299.02 809.729 1299.63 828.522 1299 847.239 C 1295.82 848.271 1290.74 848.997 1287.59 847.505 C 1283.73 845.683 1279.67 841.241 1276.33 838.514 C 1267.02 830.907 1257.35 827.414 1245.99 823.879 C 1251.37 815.382 1256.34 805.005 1258.52 795.161 C 1265.72 781.667 1270.75 766.791 1276.3 752.561 C 1283.86 733.145 1291.67 713.911 1298.89 694.354 z"/>
<path transform="translate(0,0)" fill="rgb(248,245,59)" d="M 1417.63 632.39 C 1431.88 631.089 1446.73 631.918 1461.03 632.345 C 1461 650.032 1462.99 667.74 1463.07 685.473 C 1463.31 741.399 1461.79 797.213 1460.85 853.117 C 1454.32 852.733 1447.79 852.427 1441.25 852.201 C 1425.56 852.247 1409.87 852.048 1394.18 851.605 C 1392.46 827.734 1394.42 804.128 1394.4 780.264 C 1394.39 760.087 1395.01 739.902 1394.92 719.741 C 1394.8 691.848 1394.03 663.862 1394.52 635.98 C 1402.2 634.373 1409.85 633.339 1417.63 632.39 z"/>
<path transform="translate(0,0)" fill="rgb(14,48,147)" d="M 1650.74 136.127 C 1656.65 133.964 1663.47 131.302 1669.51 134.789 C 1672.79 136.679 1674.54 140.73 1675.04 144.323 C 1675.59 148.325 1675.17 152.706 1674.97 156.733 C 1670.73 160.278 1663.9 158.608 1658.63 158.097 C 1657.18 157.956 1657.66 158.005 1656.03 157.666 C 1653.69 155.975 1651.85 155.927 1649.08 155.486 C 1634.16 156.838 1618.67 154.126 1603.63 154.54 C 1546.94 156.351 1490.21 156.752 1433.5 155.745 C 1414.04 155.518 1394.59 154.574 1375.13 154.509 L 934.023 152.856 C 902.948 152.989 871.991 156.172 840.956 156.234 C 840.852 172.994 840.034 189.492 839.067 206.213 C 856.349 207.534 875.302 207.472 892.509 205.122 C 892.714 209.204 891.693 219.22 894.253 222.189 C 894.553 222.537 894.942 222.798 895.287 223.102 C 876.098 222.638 856.95 223.787 837.769 224.019 L 837.276 383.994 C 837.159 409.191 838.681 434.477 837.584 459.672 C 834.892 459.733 832.886 459.723 830.826 461.743 C 828.949 463.585 828.201 465.935 828.398 468.52 C 828.754 473.201 831.17 476.628 834.76 479.471 C 835.817 480.308 835.659 480.118 837.107 480.813 C 838.435 488.281 837.15 496.905 836.709 504.501 C 868.114 507.407 894.507 505.186 925.502 505.312 C 940.84 505.375 956.175 506.434 971.512 506.716 C 999.671 507.251 1027.84 507.391 1056 507.136 L 1387.5 507.892 L 1545.4 507.804 C 1565.94 507.865 1586.93 506.68 1607.4 507.541 C 1611.24 507.702 1619.08 507.789 1621.87 510.553 C 1623.71 512.384 1625.2 515.141 1625.47 517.706 C 1624 520.72 1622.59 521.886 1619.34 522.896 C 1603.99 527.671 1573.84 524.001 1556.94 523.989 L 1420.14 523.865 C 1370.03 523.873 1319.92 526.932 1269.76 527.097 C 1233.54 527.216 1197.31 525.228 1161.11 524.206 C 1134.46 523.453 1107.71 524.009 1081.04 523.663 C 1061.71 523.411 1042.39 522.204 1023.06 522.013 C 989.992 521.687 956.804 522.75 923.742 523.032 C 908.686 523.16 893.619 522.059 878.566 522.243 C 864.769 522.411 851.026 524.272 837.225 524.157 C 836.903 536.1 836.847 548.049 837.057 559.995 C 857.965 559.804 878.477 558.335 899.393 559.895 C 897.081 565.296 897.226 570.329 896.095 575.945 C 882.039 574.797 851.674 574.004 839.462 579.689 C 834.602 584.805 836.847 626.433 837.069 635.127 C 838.201 670.984 838.942 706.853 839.291 742.726 C 839.476 755.163 841.189 768.193 840.448 780.558 C 840.26 783.692 839.998 785.392 838.036 787.841 C 835.06 789.175 832.721 788.631 829.762 787.43 C 829.334 787.257 828.921 787.049 828.5 786.858 C 828.188 786.297 827.864 785.743 827.563 785.177 C 822.655 775.931 823.101 761.668 822.644 751.265 C 821.646 728.545 821.739 705.742 821.269 683.004 C 820.093 632.978 819.527 582.941 819.571 532.902 L 820.883 371.003 C 820.823 326.231 819.735 281.48 820.111 236.682 C 820.253 219.834 821.462 203.049 821.735 186.218 C 821.977 171.277 818.104 154.401 822.532 139.978 C 825.175 138.655 827.873 138.376 830.789 138.176 C 842.981 137.34 855.479 138.157 867.718 137.876 C 883.976 137.502 900.166 136.191 916.445 136.039 L 1650.74 136.127 z"/>
<path transform="translate(0,0)" fill="rgb(1,33,109)" d="M 1650.74 136.127 C 1656.65 133.964 1663.47 131.302 1669.51 134.789 C 1672.79 136.679 1674.54 140.73 1675.04 144.323 C 1675.59 148.325 1675.17 152.706 1674.97 156.733 C 1670.73 160.278 1663.9 158.608 1658.63 158.097 C 1657.18 157.956 1657.66 158.005 1656.03 157.666 C 1653.69 155.975 1651.85 155.927 1649.08 155.486 C 1648.99 155.313 1648.87 155.154 1648.83 154.967 C 1647.75 150.075 1646.1 142.41 1647.15 137.579 L 1650.74 136.127 z"/>
<path transform="translate(0,0)" fill="rgb(14,48,147)" d="M 1377.82 568.172 C 1376.41 574.848 1377.33 581.315 1376.77 588.015 C 1365.15 586.759 1327.3 583.787 1318.65 590.32 C 1315.83 592.449 1315.27 596.529 1314.97 599.865 C 1314.05 610.08 1315.13 620.917 1315.69 631.151 C 1310.99 628.828 1300.91 623.891 1297.95 620.031 C 1298.75 609.422 1296.15 598.393 1298.29 587.912 C 1300.07 579.17 1304.84 574.366 1311.92 569.514 C 1323.18 570.543 1368 570.191 1377.82 568.172 z"/>
<path transform="translate(0,0)" fill="rgb(1,33,109)" d="M 1377.82 568.172 C 1382.06 567.936 1385.64 568.05 1388.96 571.029 C 1392.33 574.048 1393.72 578.848 1394.94 583.038 L 1394.22 585.335 C 1388.93 587.368 1382.99 590.758 1377.58 592.018 L 1376.77 588.015 C 1377.33 581.315 1376.41 574.848 1377.82 568.172 z"/>
<path transform="translate(0,0)" fill="rgb(14,48,147)" d="M 1708.45 694.649 C 1709.8 694.765 1710 694.722 1711.48 695.189 C 1714.58 696.167 1719.02 698.847 1720.17 702.066 C 1724.21 713.399 1718.68 794.239 1718.6 812.371 L 1719.13 1033.03 C 1719.39 1069.96 1721.31 1106.89 1721.53 1143.82 C 1721.69 1170.91 1720.37 1198.17 1720.09 1225.29 C 1720.01 1233.66 1723 1248.88 1719.32 1255.95 C 1717.02 1256.63 1714.37 1257.58 1711.94 1257.45 C 1707.17 1257.21 1704.58 1252.25 1702.09 1248.77 C 1701.42 1232.95 1702.74 1216.75 1702.93 1200.87 C 1703.19 1172.05 1703.12 1143.22 1702.72 1114.4 C 1701.08 979.811 1700.89 845.207 1702.14 710.613 C 1702.21 702.622 1702.56 700.44 1708.45 694.649 z"/>
<path transform="translate(0,0)" fill="rgb(254,150,2)" d="M 1754.03 1606.55 C 1754.84 1621.39 1754.42 1635.59 1752.91 1650.4 C 1755.35 1655.25 1758.34 1658.76 1761.97 1662.75 C 1765.54 1663.8 1768.76 1664.83 1772.11 1666.45 C 1775.82 1668.25 1780.13 1669.28 1784.15 1667.8 C 1788.46 1666.2 1792.34 1662.09 1795.42 1658.8 C 1796.53 1649.9 1797.69 1641.01 1798.88 1632.12 C 1829.79 1635.6 1891.8 1644.25 1911.46 1670.2 C 1914.18 1673.79 1916.26 1678.3 1915.48 1682.91 C 1914.67 1687.7 1911.01 1691.43 1907.13 1694.05 C 1874.94 1715.79 1768.37 1717.94 1728 1715.63 C 1718.49 1715.08 1709.3 1711.81 1699.85 1710.83 C 1702.42 1696.22 1704.35 1681.53 1706.78 1666.91 C 1720.81 1660.67 1731.1 1653.22 1736.88 1638.3 C 1740.13 1629.89 1741.68 1620.8 1743.19 1611.94 C 1746.62 1609.14 1749.91 1607.97 1754.03 1606.55 z"/>
<path transform="translate(0,0)" fill="rgb(248,245,59)" d="M 828.5 786.858 C 828.921 787.049 829.334 787.257 829.762 787.43 C 832.721 788.631 835.06 789.175 838.036 787.841 C 839.998 785.392 840.26 783.692 840.448 780.558 C 841.189 768.193 839.476 755.163 839.291 742.726 C 838.942 706.853 838.201 670.984 837.069 635.127 C 836.847 626.433 834.602 584.805 839.462 579.689 C 851.674 574.004 882.039 574.797 896.095 575.945 C 894.92 595.629 897.246 615.95 897.202 635.736 C 897.08 690.098 896.545 744.484 897.96 798.823 C 875.113 799.288 852.212 798.631 829.364 798.304 C 828.481 794.259 828.03 790.987 828.5 786.858 z"/>
<path transform="translate(0,0)" fill="rgb(14,48,147)" d="M 1446.97 1036.77 C 1458.96 1032.13 1489.74 1034.89 1503.08 1035.35 L 1505.02 1037.63 C 1506.84 1037.75 1506.93 1037.37 1508.24 1038.79 C 1507.82 1038.77 1507.41 1038.71 1506.99 1038.71 C 1505.02 1038.72 1505.6 1038.69 1503.85 1039.44 C 1493.82 1043.71 1455.25 1042.17 1444.59 1039.2 L 1443.81 1038.39 L 1446.62 1038.3 L 1447.21 1037.29 L 1446.97 1036.77 z"/>
<path transform="translate(0,0)" fill="rgb(254,81,151)" d="M 636.984 905.472 C 637.325 905.608 637.684 905.708 638.008 905.881 C 651.403 913.021 665.637 955.846 667.869 970.36 C 669.784 982.816 667.072 998.319 671.947 1009.95 C 674.199 1015.33 679.899 1020.24 683.234 1025.16 C 696.2 1044.26 707.132 1062.89 713.895 1085.14 C 709.035 1086.07 704.322 1087.65 699.592 1089.08 C 701.112 1092.05 703.282 1096.98 706.007 1098.85 C 710.229 1101.75 714.114 1100.46 718.767 1099.57 C 720.095 1104.12 720.911 1108.78 721.824 1113.43 C 713.852 1114.53 704.583 1114.91 697.609 1119.31 C 695.305 1120.76 694.129 1122.21 693.471 1124.89 C 694.382 1126.58 693.965 1126.37 695.444 1127.27 C 703.221 1132 713.097 1129.06 721.334 1127.42 C 717.142 1162.82 713.239 1189.21 691.849 1218.72 C 684.346 1229.07 676.321 1236.36 666.485 1244.46 C 659.719 1250.02 652.978 1255.87 645.373 1260.27 C 621.14 1274.31 588.423 1280.19 561.134 1284.58 C 562.865 1289.68 564.021 1295.03 565.55 1300.2 C 565.926 1300.29 566.295 1300.4 566.676 1300.45 C 571.474 1301.12 577.46 1299.72 582.272 1299.11 C 611.768 1295.33 643.982 1284.98 667.94 1266.72 C 706.232 1237.53 726.683 1211.91 733.549 1163.21 C 743.77 1162.57 754.22 1160.36 764.409 1159.05 C 783.476 1156.59 802.895 1154.6 822.03 1152.71 C 855.2 1149.45 888.244 1148.86 921.493 1147.81 C 942.767 1147.13 963.458 1145.5 984.818 1146.48 C 1002.98 1147.3 1021.43 1150.51 1039.58 1152.23 C 1056.53 1153.84 1074.2 1154.3 1090.89 1157.57 C 1103.7 1160.09 1115.74 1165.12 1128.36 1168.24 C 1158.3 1175.65 1186.88 1181.25 1214.83 1195.1 C 1245.82 1210.45 1273.87 1226.76 1298.3 1251.67 C 1331.64 1285.63 1356.82 1325.31 1381.64 1365.68 C 1390.01 1379.28 1397.02 1394.13 1406.54 1406.94 C 1412.66 1415.19 1419.84 1422.66 1426.4 1430.56 C 1440.85 1447.98 1454.79 1465.56 1469.82 1482.54 C 1479.98 1494.01 1491.75 1505.27 1500.71 1517.68 C 1506.84 1526.16 1509.93 1535.51 1513.25 1545.31 C 1511.16 1551.67 1508.31 1565.11 1503.24 1569.16 C 1496.4 1568.47 1492.76 1557.81 1486.71 1554.86 C 1482.43 1559.73 1490.33 1573.13 1487.8 1579.22 C 1486.04 1580.2 1485.45 1580.58 1483.36 1580.4 C 1447.25 1577.4 1378.06 1485.09 1355.83 1458.09 C 1350.09 1451.11 1344.2 1444.77 1336.53 1439.88 C 1311.59 1423.98 1264.41 1419.55 1235.16 1416.59 C 1186.64 1411.67 1119.42 1390.87 1088.5 1350.64 C 1070.57 1327.32 1057.37 1300.46 1038.84 1277.71 C 1035.22 1279.15 1030.48 1280.96 1029.13 1285.01 C 1027.83 1288.91 1029.43 1292.73 1031.41 1296.06 C 1034.18 1300.72 1037.77 1304.82 1040.59 1309.47 C 1052.91 1329.82 1064.72 1353.79 1081.52 1370.85 C 1088.19 1377.62 1096.38 1382.54 1104.31 1387.68 C 1138.54 1409.83 1177.24 1426.51 1217.7 1432.88 C 1248.63 1437.75 1281.04 1440 1311.25 1448.17 C 1314.17 1456.89 1317.89 1457.05 1325.05 1461.76 C 1338.69 1470.72 1345.78 1499.54 1354.65 1513.86 C 1366.01 1532.2 1387.81 1547.67 1391.5 1570.39 C 1392.31 1575.36 1392.9 1583.1 1389.54 1587.29 C 1385.02 1592.91 1374.68 1576.56 1369.57 1576.65 C 1366.97 1583.23 1371.42 1592.9 1373.44 1599.22 C 1367.57 1599.76 1361.71 1600.46 1355.87 1601.3 C 1353.12 1593.58 1352.66 1577.71 1346.61 1572.48 C 1343.66 1572.37 1343.83 1572.3 1341.66 1574.31 C 1338.57 1582.71 1341.41 1594.15 1342.5 1602.88 C 1327.86 1593.4 1319.39 1577.97 1309.06 1564.52 C 1296.97 1548.77 1256.34 1496.46 1243.67 1487.47 C 1229.71 1487.32 1215.99 1487 1202.12 1485.27 C 1184.07 1483.1 1165.7 1483.75 1147.58 1481.88 C 1119.14 1478.95 1090.02 1473.3 1061.51 1472.14 C 1036.87 1471.14 1012.26 1474.27 987.643 1472.16 C 994.44 1444.8 987.385 1410.72 973.355 1386.39 C 967.068 1375.49 955.857 1363.35 946.977 1354.48 C 939.303 1346.81 896.119 1310.67 887.281 1309.59 C 885.546 1309.37 884.583 1309.83 883.183 1310.75 C 880.778 1312.32 879.89 1314.22 879.53 1317.05 C 879.121 1320.27 880.668 1324.6 882.985 1326.87 C 888.347 1332.12 896.852 1336.12 903.085 1340.58 C 920.253 1352.88 937.689 1368.05 950.263 1385.12 C 964.674 1404.68 977.301 1435.64 973.343 1460.36 C 972.793 1463.79 972.171 1469.32 969.176 1471.47 C 965.42 1469.48 964.45 1464.77 961.147 1461.87 L 959.466 1462.74 C 957.059 1467.76 957.155 1473.3 956.788 1478.77 C 952.063 1484.13 947.041 1487.01 940.767 1490.17 C 940.414 1483.1 939.864 1476.05 939.116 1469.01 L 937.621 1467.8 C 932.028 1475.41 931.678 1487.84 921.353 1491.49 C 918.36 1492.55 915.978 1492.32 913.108 1490.96 C 907.965 1484.77 914.192 1472.4 912.575 1464.65 C 910.828 1462.51 910.475 1461.62 907.776 1460.8 C 899.802 1464.61 902.272 1480.55 896.971 1486.7 C 890.387 1481.83 888.227 1460.43 885.354 1452.18 C 883.12 1445.77 880.139 1439.57 877.09 1433.52 C 874.928 1429.22 872.749 1424.64 869.702 1420.89 C 858.729 1407.38 806.907 1366.52 791.391 1363 C 788.857 1362.42 787.188 1362.61 785.003 1364.16 C 782.952 1365.61 781.181 1368.53 780.845 1371.02 C 780.381 1374.45 781.962 1376.75 784.538 1378.77 C 790.422 1383.4 798.138 1385.59 804.51 1389.5 C 823.22 1400.99 850.519 1423.44 861.595 1442.02 C 864.146 1446.3 868.058 1453.65 866.902 1458.56 C 856.502 1462.06 843.871 1461.58 832.925 1462.19 L 782.585 1465.38 C 770.571 1466.13 759.408 1466.02 747.492 1468.4 C 742.705 1461.6 737.635 1454.73 732.28 1448.37 C 686.927 1394.5 603.463 1407.03 540.627 1401.4 C 539.965 1406.84 536.916 1411.04 536.357 1416.39 C 536.756 1416.85 537.102 1417.35 537.553 1417.76 C 543.354 1422.95 613.667 1424.01 626.871 1424.85 C 659.948 1426.95 694.036 1434.81 716.473 1460.88 C 722.572 1467.96 732.403 1483.88 730.812 1493.41 C 729.878 1499 722.19 1504.56 717.699 1507.79 C 714.727 1509.93 711.291 1512.55 707.449 1511.92 C 705.607 1508.79 707.227 1504.35 706.739 1500.53 L 705.287 1499.8 L 703.164 1501.52 C 701.193 1505.83 701.747 1510.28 701.27 1514.89 C 700.908 1518.4 700.053 1521.98 696.838 1524.01 C 684.047 1532.06 654.733 1509.43 643.146 1503.8 C 633.441 1499.16 623.278 1495.56 612.824 1493.04 C 561.695 1481.25 508.345 1495.43 457.242 1481.28 C 451.164 1439.01 451.377 1393.56 427.283 1356.64 C 419.194 1344.25 407.915 1331.63 392.906 1328.43 C 394.903 1321.52 398.315 1303.34 402.305 1298.45 C 410.322 1288.65 434.045 1301.52 445.004 1300.33 C 447.001 1300.12 449.116 1299.23 450.314 1297.6 C 453.23 1293.62 451.415 1288.12 450.629 1283.64 C 445.988 1283.33 441.335 1283.36 436.705 1283.02 C 415.463 1281.48 386.359 1264.15 372.47 1248.35 C 388.777 1238.58 409.152 1233.05 426.781 1225.74 C 431.761 1223.68 441.332 1220.47 443.468 1215.3 C 441.952 1213.59 442.713 1214.05 440.657 1213.24 C 436.851 1211.75 431.533 1211.77 427.556 1212.55 C 414.059 1215.19 375.456 1230.2 362.406 1236.36 C 355.793 1225.34 350.699 1213.95 345.857 1202.08 C 366.966 1192.25 406.537 1193.51 423.858 1180.75 C 426.339 1178.92 427.005 1177.37 427.329 1174.39 C 426.498 1172.86 426.351 1171.91 424.714 1171.08 C 423.232 1170.33 422.075 1170.01 420.423 1170.22 C 414.113 1171.01 407.492 1174.35 401.053 1175.69 C 380.687 1179.95 359.855 1182.84 339.714 1188 C 334.295 1165.79 327.748 1139.76 333.813 1116.98 C 336.537 1106.76 341.655 1096.23 340.861 1085.43 C 339.774 1070.67 332.492 1055.62 328.14 1041.48 C 325.222 1031.87 323.423 1021.95 322.777 1011.93 C 321.69 996.928 320.714 958.504 332.176 947.224 C 334.895 944.548 337.996 944.474 341.517 945.191 C 354.788 947.896 395.552 973.118 407.44 982.396 C 418.713 991.195 430.362 1006.79 443.527 1012.32 C 448.595 1014.45 465.14 1004.11 470.298 1001.55 C 498.233 987.656 530.207 987.329 560.91 987.767 C 564.212 989.948 566.875 992.047 570.892 992.452 C 581.374 988.553 601.252 948.914 609.073 938.107 C 617.332 926.695 626.925 915.35 636.984 905.472 z"/>
<path transform="translate(0,0)" fill="rgb(14,48,147)" d="M 604.759 1139.11 C 609.254 1139.14 612.65 1139.61 616.816 1141.33 C 622.525 1143.69 628.729 1146.84 630.948 1153.07 C 632.075 1156.23 631.61 1159.44 629.996 1162.34 C 626.307 1168.97 619.178 1171.54 612.32 1173.43 C 613.234 1179.85 613.404 1185.57 613.042 1192.04 C 638.401 1213.08 644.752 1185.19 657.786 1186.37 C 658.527 1187.25 659.439 1188.23 659.937 1189.27 C 661.26 1192.04 660.593 1195.18 659.224 1197.76 C 654.973 1205.79 644.91 1212.23 636.28 1214.4 C 624.216 1217.44 616.528 1209.65 606.661 1203.96 C 603.052 1206.91 599.612 1210.1 596.119 1213.18 C 589.137 1218.32 579.058 1222.09 570.33 1221.27 C 560.422 1220.34 547.97 1214.58 542.133 1206.36 C 540.625 1204.23 540.143 1202.92 540.443 1200.37 C 550.596 1194.88 563.328 1208.12 573.738 1208.29 C 582.115 1208.43 589.047 1202.18 594.644 1196.64 L 595.676 1195.6 C 595.352 1192.79 594.685 1189.47 594.964 1186.66 C 595.517 1181.1 599.702 1180.16 603.516 1177.23 L 603.76 1174.71 C 602.072 1171.58 583.086 1168.66 577.465 1162.33 C 577.022 1160.68 576.447 1159.81 577.034 1158.12 C 579.765 1150.27 597.468 1142.98 604.759 1139.11 z"/>
<path transform="translate(0,0)" fill="rgb(14,48,147)" d="M 512.746 1094.89 C 516.302 1094.79 520.445 1094.84 523.803 1096.11 C 528.096 1097.74 531.561 1101.01 533.426 1105.21 C 535.987 1111.09 535.226 1117.81 532.91 1123.63 C 528.876 1133.65 520.84 1141.54 510.742 1145.37 C 493.068 1152.24 477.569 1148.6 461.028 1141.25 C 457.467 1139.58 454.164 1137.44 450.811 1135.39 C 450.849 1130.61 450.09 1125 452.122 1120.6 C 455.861 1119.73 467.435 1126.51 471.805 1128.2 C 482.692 1132.4 494.991 1132.39 505.63 1127.33 C 509.997 1125.25 518.659 1120.37 519.873 1115.43 C 520.766 1111.8 513.794 1107.94 511.601 1104.93 C 510.696 1101.73 511.546 1099.37 512.369 1096.27 L 512.746 1094.89 z"/>
<path transform="translate(0,0)" fill="rgb(14,48,147)" d="M 669.652 1075.68 C 671.399 1075.81 673.275 1075.92 674.962 1076.41 C 678.402 1077.41 682.597 1080.87 684.226 1084.05 C 686.033 1087.59 685.647 1091.46 684.415 1095.11 C 682.412 1101.04 677.668 1105.34 672.048 1107.83 C 656.669 1114.66 639.179 1114.03 623.863 1108.01 L 615.337 1103.19 C 614.65 1100.45 613.596 1097.31 613.381 1094.5 C 613.18 1091.86 613.954 1090.73 615.528 1088.75 C 623.605 1085.95 634.458 1093.7 642.9 1094.97 C 650.611 1096.14 662.068 1094.48 668.449 1089.62 C 668.133 1084.99 667.917 1081.2 669.324 1076.66 C 669.427 1076.33 669.543 1076.01 669.652 1075.68 z"/>
<path transform="translate(0,0)" fill="rgb(155,245,36)" d="M 631.298 818.534 C 677.544 816.374 727.039 817.668 773.5 818.133 L 955.282 819.805 C 1001.53 820.329 1047.94 818.912 1094.16 820.358 C 1107.53 820.776 1120.84 822.329 1134.2 823.066 C 1153.6 824.136 1172.86 824.275 1192.11 827.279 C 1217.17 831.191 1246.78 838.466 1266.05 855.877 C 1279.67 868.19 1292.13 889.031 1297.57 906.347 C 1312.29 953.231 1312.45 1005.81 1316.18 1054.49 C 1319.37 1096.13 1324.17 1137.66 1326.81 1179.35 C 1328.44 1205.2 1328.43 1231.41 1329.73 1257.35 C 1323.93 1249.99 1317.23 1243.11 1310.39 1236.73 C 1300.02 1227.08 1289.13 1216.97 1277.5 1208.87 C 1268.38 1202.52 1258.25 1197.51 1248.42 1192.38 C 1236.3 1186.05 1224.1 1179.37 1211.49 1174.05 C 1203.13 1170.53 1194.27 1168.3 1185.67 1165.43 C 1163.96 1158.18 1149.46 1153.45 1126.97 1148.55 C 1106.21 1144.02 1085.87 1137.48 1064.88 1134.02 C 990.137 1121.7 911.478 1126.6 836.375 1133.11 C 803.445 1135.97 771.34 1141.57 738.182 1142.79 C 738.933 1136.86 739.052 1130.86 739.308 1124.89 C 758.041 1119.86 778.67 1117.53 798.018 1116.39 C 808.063 1115.79 819.569 1116.56 829.294 1114.12 C 831.325 1112.06 831.844 1111 832.405 1108.17 C 831.966 1106.64 832.105 1105.53 830.635 1104.67 C 823.097 1100.24 753.087 1107.65 740.308 1109.82 C 740.184 1104.84 739.401 1099.99 738.663 1095.08 C 760.931 1083.98 787.373 1079.78 811.499 1074.69 C 816.555 1073.63 820.411 1071.79 823.244 1067.38 C 823.573 1064.44 823.579 1064.34 822.047 1061.81 C 807.286 1052.53 755.349 1076.56 737.038 1079.28 C 729.882 1072.89 723.094 1052.79 718.397 1043.75 C 713.839 1034.97 708.763 1026.41 703.844 1017.82 C 690.288 997.796 690.033 989.386 686.548 965.973 C 682.575 939.288 672.499 915.132 655.711 893.997 C 653.05 890.647 650.328 886.338 646.762 883.948 C 643.773 881.943 639.839 881.47 636.377 882.297 C 618.09 886.664 581.173 949.136 570.059 966.988 C 542.19 967.479 513.379 967.468 486.481 975.386 C 472.458 979.514 459.32 985.918 445.362 990.225 C 429.071 972.699 390.193 947.153 367.924 935.528 C 357.788 930.237 340.545 922.252 328.879 922.49 C 325.855 922.551 322.71 923.748 319.854 924.665 C 317.036 930.641 313.552 936.136 311.29 942.393 C 299.884 973.938 303.744 1009.03 312.354 1040.6 C 316.306 1055.1 320.729 1069.32 321.338 1084.45 C 321.81 1096.16 317.471 1107.06 315.869 1118.55 C 312.361 1143.68 317.197 1167.57 322.096 1192.12 C 311.727 1195.1 272.793 1204.57 267.701 1211.95 C 267.117 1212.8 267.125 1212.93 267.448 1213.89 C 268.894 1218.2 275.723 1220.68 279.504 1222.6 C 296.265 1215.63 310.776 1211.76 328.296 1207.42 C 333.571 1219.49 339.102 1231.44 344.888 1243.28 C 325.665 1253.37 307.411 1263.7 289.869 1276.55 C 278.051 1270.43 265.928 1266.06 253.837 1260.64 C 208 1240.09 187.798 1234.92 136.517 1238.22 C 134.345 1223.48 133.303 1208.34 131.718 1193.51 C 129.428 1172.08 126.723 1150.51 125.935 1128.97 C 124.954 1102.13 125.738 1074.05 125.206 1046.89 C 124.259 998.636 134.6 922.831 169.693 886.862 C 188.911 867.163 234.499 845.155 261.238 838.497 C 275.296 834.996 290.405 834.123 304.819 832.838 C 329.368 830.649 353.792 829.081 378.387 827.612 C 404.686 826.041 430.85 823.156 457.22 821.972 C 515.235 819.366 573.248 819.334 631.298 818.534 z"/>
<path transform="translate(0,0)" fill="rgb(155,245,36)" d="M 1309.52 1596.63 C 1326.81 1609.75 1346.03 1622.03 1368.84 1618.85 C 1383.04 1616.87 1397.62 1607.63 1405.96 1595.92 C 1411.49 1588.17 1414.95 1578.05 1413.38 1568.48 C 1411.51 1557.17 1401.77 1545.35 1396.34 1535.22 L 1397.46 1536.09 C 1412.21 1547.6 1423.08 1564.3 1436.82 1577.05 C 1443.33 1583.1 1451.16 1587.95 1458.64 1592.71 C 1466.58 1597.77 1474.47 1602.31 1484.27 1601.26 C 1497.02 1599.89 1510.06 1589.12 1517.65 1579.11 C 1523.99 1570.76 1527.75 1560.98 1531.17 1551.17 C 1541.52 1550.65 1557.36 1547.74 1567.05 1551.83 C 1574.1 1559.14 1572 1646.02 1571.68 1663.48 C 1571.04 1698.85 1566.54 1736 1560.65 1770.9 C 1491.62 1775.54 1422.9 1783.05 1354.01 1789.27 L 1025.5 1819.36 C 961.023 1825.84 896.618 1834.51 832.015 1839.51 C 794.322 1842.42 756.693 1842.76 719.009 1844.99 C 706.5 1845.73 694.067 1847.13 681.536 1847.66 C 657.015 1848.69 632.396 1848.66 607.907 1849.88 C 557.37 1852.38 507.361 1855.36 456.729 1853.66 C 458.948 1820.69 459.904 1787.86 460.508 1754.82 C 460.902 1733.25 457.84 1658.95 463.652 1643.96 C 467.186 1641.84 470.612 1641.12 474.68 1640.64 C 498.057 1637.86 521.542 1639.01 544.998 1638.62 C 572.137 1638.16 599.586 1636.49 626.693 1637.02 C 639.153 1637.26 651.573 1639.49 664.03 1638.99 L 664.8 1640.3 C 674.104 1656.42 679.448 1674.37 687.765 1690.9 C 694.594 1704.47 704.371 1717.39 712.335 1730.42 C 723.532 1748.73 733.765 1768.69 746.451 1785.95 C 749.09 1789.54 753.098 1794.86 757.373 1796.45 C 763.928 1798.88 775.045 1797.49 781.949 1797 C 805.812 1795.3 829.492 1790.56 853.303 1788.14 C 888.737 1784.54 924.467 1783.08 959.858 1779.28 C 966.144 1781.52 967.9 1793.16 975.19 1796.74 C 987.859 1802.98 1016.84 1789.52 1027.49 1782 C 1037.93 1774.63 1045.69 1764.35 1057.91 1759.71 L 1059.16 1759.25 C 1081.66 1755.49 1102.32 1747.89 1124.33 1742.41 C 1143.62 1737.6 1170.96 1733.65 1188.64 1726.34 C 1194.12 1724.07 1198.34 1720.21 1201.69 1715.35 C 1204.75 1710.9 1208.56 1703.31 1207.65 1697.71 C 1206.88 1692.92 1204.16 1690.6 1200.66 1687.5 C 1197.19 1659.3 1176.03 1635.36 1162.6 1611.16 C 1187.84 1608.8 1212.79 1604.69 1237.94 1601.67 C 1261.52 1598.84 1285.78 1597.31 1309.52 1596.63 z"/>
<path transform="translate(0,0)" fill="rgb(155,245,36)" d="M 153.918 1256.41 C 167.247 1256.08 180.395 1256.33 193.454 1259.31 C 210.3 1263.15 226.843 1271.56 242.83 1278.14 C 259.642 1285.05 276.206 1290.61 292.299 1299.33 C 307.301 1307.46 321.439 1317.17 336.391 1325.46 C 326.99 1326.77 317.837 1328.94 309.163 1332.89 C 292.444 1340.51 281.985 1360.65 276.055 1377.35 C 271.855 1389.18 270.105 1403.02 269.218 1415.5 C 266.79 1449.66 267.989 1484.48 267.895 1518.72 C 267.651 1607.59 269.676 1690.47 278.272 1779.04 C 280.115 1798.02 278.893 1817.8 287.132 1835.37 L 286.063 1835.55 C 277.478 1832.96 250.897 1808.53 241.373 1801.34 C 232.366 1794.55 222.697 1788.39 213.515 1781.78 C 186.982 1762.69 160.549 1743.21 135.709 1721.94 C 103.354 1694.22 98.4747 1667.98 95.2836 1627.33 C 92.5268 1592.22 92.7478 1557.21 91.3692 1522.07 C 89.8963 1484.53 89.109 1447.18 88.4579 1409.62 C 87.941 1379.8 86.1807 1341.93 92.0857 1312.81 C 94.9532 1298.66 100.398 1287.88 109.792 1277.02 C 122.131 1262.76 135.589 1257.69 153.918 1256.41 z"/>
<path transform="translate(0,0)" fill="rgb(155,245,36)" d="M 339.961 1342.26 C 343.871 1341.98 347.848 1341.95 351.766 1341.94 C 369.394 1341.88 392.167 1344.79 404.927 1358.11 C 420.03 1373.88 427.184 1400.23 431.335 1421.13 C 437.326 1451.3 437.648 1483.25 439.243 1513.92 C 440.846 1544.74 443.131 1575.65 442.811 1606.53 C 442.678 1619.4 440.68 1632.17 440.583 1645.02 L 438.008 1858.95 C 423.799 1860.01 409.495 1862.21 395.25 1862.23 C 372.279 1861.79 336.902 1862.14 316.855 1849.67 C 309.826 1845.3 307.838 1840.8 306.116 1832.85 C 299.748 1803.45 297.973 1765.14 295.703 1735.01 C 292.846 1697.1 289.606 1659.37 288.349 1621.33 C 286.917 1577.98 287.672 1534.4 287.871 1491.03 L 288.142 1444.81 C 288.123 1431.24 287.564 1417.69 289.411 1404.22 C 291.324 1390.26 294.946 1378.27 302.727 1366.4 C 311.952 1352.32 323.862 1345.72 339.961 1342.26 z"/>
<path transform="translate(0,0)" fill="rgb(248,245,59)" d="M 1032.64 1519.28 C 1042.75 1517.7 1053.22 1520.84 1062.23 1525.27 C 1076.79 1532.42 1081.45 1542.16 1091.78 1553.59 C 1123.54 1588.74 1162.98 1632.52 1178.25 1677.91 C 1127 1679.04 1076.92 1693.49 1032.94 1719.84 C 1024.6 1724.25 1005.18 1739.93 996.755 1739.48 C 993.483 1739.31 987.159 1722.52 985.632 1719.25 C 977.005 1700.78 967.991 1680.58 957.022 1663.43 C 948.459 1650.05 937.807 1637.71 929.811 1624.07 C 921.995 1610.73 913.61 1589.08 905.64 1578.19 C 905.422 1577.89 905.193 1577.6 904.97 1577.31 C 905.419 1576.6 905.87 1575.9 906.353 1575.22 C 910.322 1569.61 916.302 1564.95 921.623 1560.67 C 953.622 1534.95 993.177 1526.57 1032.64 1519.28 z"/>
<path transform="translate(0,0)" fill="rgb(5,55,138)" d="M 1025.01 1559.75 C 1028.59 1561.9 1032.36 1559.84 1036.05 1562.55 L 1036.2 1564.98 C 1033.39 1567.98 1027.89 1569.29 1024.03 1570.79 C 1002.22 1579.27 978.35 1593.03 957.292 1599.88 C 955.945 1599.93 955.391 1600 953.941 1599.78 C 951.216 1599.35 949.098 1598.55 947.461 1596.42 L 948.279 1594.21 C 958.24 1586.02 1005.91 1563.69 1019.51 1561.64 C 1021.06 1561.4 1022.19 1561.16 1023.62 1560.46 C 1024.09 1560.23 1024.55 1559.98 1025.01 1559.75 z"/>
<path transform="translate(0,0)" fill="rgb(5,55,138)" d="M 1059.61 1596.27 L 1062.48 1595.79 C 1064.99 1596.8 1065.44 1596.82 1066.89 1599.05 L 1066.21 1601.22 C 1058.25 1606.74 1039.08 1611.28 1028.99 1615.32 C 1014.67 1621.05 1000.7 1627.63 986.709 1634.13 L 983.971 1633.95 C 981.95 1632.29 980.702 1630.32 979.296 1628.15 C 979.462 1627.85 979.593 1627.53 979.792 1627.24 C 984.58 1620.5 1024.89 1604.35 1033.8 1601.7 C 1042.19 1599.21 1051.01 1597.84 1059.61 1596.27 z"/>
<path transform="translate(0,0)" fill="rgb(5,55,138)" d="M 1051.72 1637.56 C 1059.86 1634.4 1079.4 1628.24 1087.67 1631.87 C 1087.99 1632.01 1088.27 1632.23 1088.58 1632.41 L 1088.8 1633.37 C 1084.6 1639.78 1065.96 1642.43 1058.21 1645.44 C 1048.45 1651.63 1036.1 1657.2 1025.54 1662 C 1021.37 1663.9 1016.39 1665.83 1011.88 1664.1 C 1011.36 1662.77 1010.83 1662.45 1011.51 1661.04 C 1016.64 1650.45 1041 1642.28 1051.72 1637.56 z"/>
<path transform="translate(0,0)" fill="rgb(14,48,147)" d="M 1051.72 1637.56 C 1059.86 1634.4 1079.4 1628.24 1087.67 1631.87 C 1087.99 1632.01 1088.27 1632.23 1088.58 1632.41 L 1088.8 1633.37 C 1084.6 1639.78 1065.96 1642.43 1058.21 1645.44 L 1059.11 1643.24 C 1061.76 1642.01 1064.4 1641.13 1066.14 1638.67 C 1062.87 1636.53 1057.41 1638.96 1053.33 1637.99 C 1052.79 1637.87 1052.26 1637.7 1051.72 1637.56 z"/>
<path transform="translate(0,0)" fill="rgb(248,245,59)" d="M 828.738 1557.45 C 837.738 1556.57 846.933 1559.04 855.065 1562.75 C 867.525 1568.43 879.479 1577.49 888.795 1587.48 C 895.929 1595.14 901.586 1605.61 907.306 1614.37 C 932.021 1652.24 958.053 1692.41 974.043 1734.81 C 962.148 1734.55 951.236 1730.37 939.685 1728.04 C 903.232 1720.71 865.096 1719.54 829.292 1730.92 C 816.707 1734.88 804.969 1740.97 792.179 1744.68 C 789.81 1743.82 787.395 1742.92 785.227 1741.62 C 768.625 1731.61 738.419 1677.44 728.743 1659.47 C 723.058 1648.91 718.357 1637.8 712.307 1627.44 C 707.835 1619.79 686.383 1588.79 685.541 1582.54 C 685.198 1579.99 685.949 1578.7 687.534 1576.83 C 704.516 1556.88 800.89 1559.55 828.738 1557.45 z"/>
<path transform="translate(0,0)" fill="rgb(5,55,138)" d="M 788.676 1596.57 C 798.46 1595.9 829.786 1593.01 836.747 1598.55 C 837.304 1600.74 837.126 1601.04 836.369 1603.21 C 829.868 1607.79 803.081 1607.56 793.843 1608.9 C 785.668 1610.47 776.8 1611.14 768.487 1611.71 C 762.05 1612.14 755.08 1612.59 749.938 1608.07 C 748.811 1605.86 748.633 1604.84 748.898 1602.36 C 754.497 1596.28 780.066 1597.1 788.676 1596.57 z"/>
<path transform="translate(0,0)" fill="rgb(5,55,138)" d="M 828.947 1635.42 C 844.199 1633.83 863.877 1636.07 878.031 1642.02 C 880.328 1642.99 881.031 1644.24 881.932 1646.43 L 880.872 1647.64 C 870.017 1650.69 856.119 1646.05 844.751 1645.72 C 834.701 1645.58 799.805 1650.39 793.309 1645.14 C 791.264 1643.49 791.383 1642.27 791.28 1639.91 C 795.047 1636.51 822.168 1635.94 828.947 1635.42 z"/>
<path transform="translate(0,0)" fill="rgb(5,55,138)" d="M 836.518 1676.43 C 851.625 1675.86 875.761 1675.47 889.996 1679.72 C 892.61 1680.5 894.43 1680.84 895.803 1683.23 C 890.143 1687.81 877.865 1687.3 870.712 1687.68 C 857.242 1687.85 821.71 1690.75 810.864 1685.95 C 808.757 1685.02 808.637 1685.04 807.852 1682.79 C 808.135 1682.35 808.346 1681.85 808.703 1681.46 C 814.036 1675.7 828.96 1676.82 836.518 1676.43 z"/>
<path transform="translate(0,0)" fill="rgb(155,245,36)" d="M 1344.18 1176.59 C 1355.3 1176.91 1366.22 1180.47 1376.99 1183 C 1399.29 1188.23 1420.92 1193.7 1442.94 1199.98 C 1462.9 1205.67 1483.28 1209.9 1503.18 1215.83 C 1535.64 1225.52 1567.46 1236.56 1600.22 1245.39 C 1599.86 1245.55 1599.5 1245.7 1599.15 1245.87 L 1597.4 1246.71 C 1589.07 1250.64 1581.32 1256.94 1574.85 1263.47 C 1557.71 1280.78 1551 1302.46 1551.18 1326.33 C 1551.31 1342.35 1551.55 1358.37 1551.91 1374.39 C 1531.8 1364.13 1509.45 1353.33 1487.74 1347.11 C 1466.19 1340.94 1444.09 1335.74 1422.37 1330.15 C 1410.9 1327.2 1398.94 1324.93 1388.02 1320.28 C 1365.54 1310.72 1354.47 1295.97 1345.48 1273.49 C 1347.83 1258.8 1345.76 1244.73 1345.22 1230 C 1344.74 1212.2 1344.39 1194.4 1344.18 1176.59 z"/>
<path transform="translate(0,0)" fill="rgb(155,245,36)" d="M 753.691 1484.91 C 782.115 1484.36 810.276 1481.84 838.623 1480.09 C 850.466 1479.36 863.671 1480.31 875.221 1478.27 C 878.257 1485.24 881.237 1492.23 884.159 1499.25 C 890.811 1503.67 898.119 1506.24 905.543 1509.05 C 932.577 1514.99 952.862 1505.42 975.772 1491.93 C 994.743 1492.45 1013.54 1491.52 1032.48 1490.5 C 1043.78 1489.9 1055.39 1488.75 1066.7 1489.31 C 1085 1490.22 1101.94 1495.82 1119.78 1499.01 C 1127.32 1500.35 1135.3 1500.01 1142.95 1500.81 C 1163.81 1501.03 1184.71 1502.53 1205.54 1503.63 C 1214.71 1504.12 1224.95 1505.57 1234.07 1504.58 C 1243.54 1507.5 1277.18 1553.51 1284.86 1562.81 C 1289.14 1567.99 1294.04 1572.61 1298.39 1577.7 C 1257.83 1579.36 1218.1 1586.9 1177.69 1589.82 C 1167.83 1590.53 1157.73 1591.73 1147.85 1591.49 L 1146.94 1590.55 C 1130.67 1573.67 1116.2 1554.16 1100.99 1536.27 C 1093.81 1527.82 1087.32 1518.65 1078.1 1512.25 C 1068.17 1505.38 1056.6 1502.04 1044.59 1501.83 C 1016.77 1501.35 960.651 1517.06 936.561 1532.4 C 918.395 1543.96 911.069 1555.64 888.925 1561.11 C 878.494 1554.13 866.987 1545.82 854.936 1541.97 C 833.654 1535.17 774.185 1537.51 751.748 1542.01 L 749.967 1542.38 C 744.649 1535.73 735.162 1532.07 729.151 1525.56 C 741.739 1514.93 748.875 1500.33 753.691 1484.91 z"/>
<path transform="translate(0,0)" fill="rgb(34,204,79)" d="M 1142.95 1500.81 C 1163.81 1501.03 1184.71 1502.53 1205.54 1503.63 C 1214.71 1504.12 1224.95 1505.57 1234.07 1504.58 C 1232.23 1505.95 1231.01 1507.84 1229.21 1509.25 C 1225.62 1512.07 1221.99 1513.85 1218.64 1517.13 C 1218.4 1517.37 1218.16 1517.61 1217.92 1517.85 L 1216.66 1515.74 L 1215.27 1516.07 L 1218.53 1519.44 L 1216.93 1520.15 C 1213.13 1518.73 1215.34 1514.86 1212.02 1513.51 C 1208.73 1512.18 1206.21 1514.07 1202.62 1511.7 C 1202.42 1510.83 1202.05 1509.03 1201.71 1508.26 C 1200.89 1506.39 1199.89 1505.98 1198 1505.64 C 1193.52 1504.82 1188.41 1505.33 1183.81 1505.19 C 1171.53 1504.79 1154.31 1504.55 1142.95 1500.81 z"/>
<path transform="translate(0,0)" fill="rgb(34,204,79)" d="M 884.159 1499.25 C 890.811 1503.67 898.119 1506.24 905.543 1509.05 C 901.17 1509.96 894.19 1512.21 889.996 1510.25 C 885.579 1508.19 885.145 1503.48 884.159 1499.25 z"/>
<path transform="translate(0,0)" fill="rgb(254,81,151)" d="M 1390.95 1340.81 C 1417.18 1349.39 1444.35 1353.65 1470.59 1361.68 C 1500.17 1370.74 1525.94 1384.26 1553.93 1396.97 C 1574.58 1406.34 1594.93 1414.71 1613.42 1428.22 C 1634.77 1443.81 1672.64 1479.2 1686.87 1501.49 C 1694.31 1513.15 1699.63 1526.91 1705.96 1539.26 C 1714.77 1556.45 1722.96 1572.52 1725.84 1591.88 C 1728.09 1607.01 1726.71 1619.37 1720.8 1633.51 C 1719.4 1636.87 1717.95 1640.88 1715.61 1643.73 C 1714.08 1645.59 1713.38 1646.16 1710.9 1646.34 L 1709.07 1643.81 C 1708.16 1637.83 1708.34 1632.64 1703.54 1628.31 L 1701.51 1628.83 C 1696.58 1635.5 1696.76 1643.07 1696.09 1651.05 C 1694.71 1650.78 1693.33 1650.5 1691.97 1650.14 C 1686.43 1648.66 1682.63 1646.44 1679.5 1641.55 C 1672 1629.83 1670.84 1615.48 1666.16 1602.66 C 1659.43 1584.19 1648.8 1565.48 1639.05 1548.42 C 1592.65 1467.27 1528.39 1446.31 1444.21 1423.38 C 1422.89 1401.29 1404.92 1367.88 1390.95 1340.81 z"/>
<path transform="translate(0,0)" fill="rgb(155,245,36)" d="M 459.436 1504.44 C 478.826 1504.06 498.535 1507.87 518.093 1508.06 C 554.858 1508.43 592.405 1502.67 627.52 1516.71 C 645.028 1523.71 661.97 1533.66 678.699 1542.39 L 686.435 1543.33 C 703.445 1545.34 716.541 1535.41 729.151 1525.56 C 735.162 1532.07 744.649 1535.73 749.967 1542.38 C 724.043 1545.94 698.547 1547.16 677.226 1563.79 C 671.565 1569.77 661.806 1566.75 656.405 1573.82 C 647.534 1585.44 652.046 1604.64 653.861 1618.04 C 627.081 1619.48 599.803 1621.1 572.993 1620.87 C 535.847 1620.56 498.436 1618.42 461.35 1621.53 C 463.486 1582.38 457.182 1543.34 459.436 1504.44 z"/>
<path transform="translate(0,0)" fill="rgb(34,204,79)" d="M 729.151 1525.56 C 735.162 1532.07 744.649 1535.73 749.967 1542.38 C 724.043 1545.94 698.547 1547.16 677.226 1563.79 C 677.926 1561.93 678.194 1560.62 678.133 1558.62 C 678.098 1557.46 677.9 1555.74 678.105 1554.58 C 678.58 1551.9 680.668 1550.72 682.751 1549.4 C 683.4 1550.59 680.569 1556.84 680.237 1558.78 C 687.544 1552.95 698.289 1547.36 707.725 1546.53 C 712.215 1546.14 717.927 1546.56 722.209 1545.18 C 724.417 1544.47 724.539 1543.95 725.495 1542.01 C 725.201 1540.02 725.007 1539.28 723.667 1537.68 C 723.021 1536.9 721.397 1535.6 720.202 1535.85 C 718.835 1536.14 716.101 1538.21 714.77 1538.92 C 707.708 1542.72 697.744 1547.12 689.612 1546.22 C 685.876 1545.81 681.157 1545.36 678.699 1542.39 L 686.435 1543.33 C 703.445 1545.34 716.541 1535.41 729.151 1525.56 z"/>
<path transform="translate(0,0)" fill="rgb(155,245,36)" d="M 1465.44 1449.08 C 1482.2 1449.81 1510.46 1462.09 1525.99 1469.48 C 1550.8 1481.27 1577.26 1497.99 1595.76 1518.69 C 1607.51 1531.86 1626.09 1563.16 1633.35 1579.58 C 1639.3 1593.03 1644.88 1606.85 1650.61 1620.41 C 1659.82 1642.21 1665.8 1655.7 1687.44 1667.3 C 1682.76 1698.1 1680.11 1727.71 1658.66 1751.87 C 1637.87 1768.78 1604.68 1767.8 1579.26 1768.13 C 1586.2 1738.35 1587.75 1706.69 1589.08 1676.27 C 1589.57 1665.19 1590.58 1654.02 1590.54 1642.95 C 1590.44 1618.18 1591.45 1571.96 1586.74 1548.88 C 1585.77 1544.11 1584.36 1539.23 1580.7 1535.83 C 1568.58 1524.56 1550.92 1529.39 1536.17 1529.01 C 1533.34 1528.94 1529.4 1528.17 1527.19 1526.23 C 1521.72 1521.43 1520.4 1509.06 1515.42 1502.7 C 1510.67 1496.63 1504.79 1491.14 1499.53 1485.5 L 1465.44 1449.08 z"/>
<path transform="translate(0,0)" fill="rgb(155,245,36)" d="M 1625.49 1259.2 C 1642.66 1258.21 1660.15 1263.48 1672.99 1275.13 C 1682.99 1284.21 1687.3 1297.41 1689.78 1310.32 C 1693.85 1331.58 1692.14 1354.74 1692.13 1376.34 C 1692.13 1410.4 1691.84 1444.37 1693.39 1478.4 C 1684.72 1468.88 1676.98 1458.66 1667.31 1450.12 C 1635.88 1421.56 1609.07 1398.31 1568.55 1383.42 C 1567.78 1352.44 1561.95 1311.73 1579.89 1285.43 C 1591.55 1268.35 1606.01 1262.85 1625.49 1259.2 z"/>
<path transform="translate(0,0)" fill="rgb(254,81,151)" d="M 1076.72 569.804 C 1083.34 569.826 1089.98 570.7 1096.6 570.968 C 1111.39 571.567 1126.24 571.674 1141.04 571.967 C 1140.21 622.736 1139.89 673.513 1140.11 724.289 C 1140.02 751.411 1138.78 778.52 1139.49 805.632 C 1119.17 803.456 1098.57 802.734 1078.16 802.037 C 1077.54 777.981 1078.03 753.818 1077.99 729.75 L 1077.63 629.039 C 1077.7 609.451 1074.47 589.261 1076.72 569.804 z"/>
<path transform="translate(0,0)" fill="rgb(254,150,2)" d="M 1771.29 679.202 C 1775.99 679.301 1780.69 679.742 1785.38 680.085 C 1788.84 705.838 1785.89 730.778 1786.87 756.519 C 1789.06 814.013 1788.2 871.49 1787.24 929.001 L 1784 1159.59 C 1783.39 1296.93 1785.31 1434.47 1782.25 1571.77 C 1781.99 1584.39 1782 1597.01 1782.3 1609.63 C 1782.64 1622.64 1784.67 1637.85 1781.75 1650.6 C 1777.13 1649.47 1772.51 1648.3 1767.91 1647.09 C 1767.59 1632.81 1769.83 1618.34 1770.01 1604 L 1770.45 1469.84 L 1771.98 889.226 C 1771.62 838.458 1772.84 787.732 1772.34 736.944 C 1772.15 717.763 1772.64 698.331 1771.29 679.202 z"/>
<path transform="translate(0,0)" fill="rgb(254,113,11)" d="M 771.717 1781.83 C 764.601 1773.08 754.675 1767.44 747.837 1758.57 C 741.229 1749.99 736.894 1738.77 731.528 1729.32 C 721.393 1711.47 710.062 1694.09 700.61 1675.89 C 695.101 1665.28 690.869 1653.97 685.915 1643.08 C 680.759 1631.76 674.026 1620.38 670.524 1608.43 C 669.484 1604.88 668.144 1600.34 669.594 1596.73 C 670.191 1595.25 670.108 1595.7 671.789 1595.13 C 677.597 1601.02 681.95 1608.57 686.475 1615.46 C 692.931 1625.29 699.631 1635.1 705.541 1645.26 C 712.767 1657.69 718.996 1670.7 726.194 1683.17 C 735.301 1698.95 745.646 1714.09 755.671 1729.3 C 761.915 1738.77 768.64 1751.35 777.504 1758.5 C 779.972 1760.49 783.091 1762.12 786.348 1761.68 C 796.711 1760.27 806.321 1754.29 816.247 1751.17 C 836.603 1744.79 860.321 1740.79 881.492 1738.97 C 905.316 1736.92 942.826 1739.9 964.287 1750.82 C 968.21 1752.82 971.744 1756.13 975.106 1758.95 C 982.396 1759.19 990.009 1760.72 997.232 1760.33 C 1008.92 1759.69 1025.91 1741.46 1036.61 1734.99 C 1072.89 1713.07 1138.71 1686.03 1180.78 1697.47 C 1184.14 1698.39 1186.16 1699.32 1187.97 1702.46 C 1188.31 1704.76 1188.28 1706.25 1187.11 1708.34 C 1184.94 1712.24 1181.35 1713.8 1177.29 1715.11 C 1160.22 1720.64 1140.98 1722.16 1123.4 1726.03 C 1103.42 1730.44 1083.63 1737.11 1063.9 1742.58 C 1062.81 1745.08 1060.95 1745.23 1058.47 1746.23 C 1054.44 1747.85 1044.04 1748.41 1041.99 1752.36 C 1040.99 1754.29 1041.28 1756.47 1041.34 1758.58 C 1036.57 1759.07 1033.43 1757.73 1029.15 1755.97 C 1019.23 1767.03 1004.75 1780.49 988.801 1781.15 C 986.695 1781.23 984 1780.91 982.33 1779.52 C 975.625 1773.94 979.472 1760.91 967.871 1760.1 C 954.691 1759.18 940.052 1762.86 926.804 1763.88 C 911.522 1762.29 894.303 1765.18 879.06 1766.92 C 861.757 1768.9 844.241 1770.45 827.016 1772.95 C 808.535 1775.64 790.266 1779.47 771.717 1781.83 z"/>
<path transform="translate(0,0)" fill="rgb(1,33,109)" d="M 1029.15 1755.97 C 1029.6 1755.34 1030.08 1754.73 1030.5 1754.07 C 1031.08 1753.17 1031.51 1752.21 1032.15 1751.34 C 1037.03 1744.75 1055.98 1743.73 1063.9 1742.58 C 1062.81 1745.08 1060.95 1745.23 1058.47 1746.23 C 1054.44 1747.85 1044.04 1748.41 1041.99 1752.36 C 1040.99 1754.29 1041.28 1756.47 1041.34 1758.58 C 1036.57 1759.07 1033.43 1757.73 1029.15 1755.97 z"/>
<path transform="translate(0,0)" fill="rgb(254,113,11)" d="M 915.103 612.428 C 935.299 611.222 955.878 611.566 976.081 612.515 C 983.817 655.988 978.321 700.717 977.64 744.505 C 977.352 763.027 979.356 782.036 977.767 800.459 L 976.017 801.496 C 954.236 801.322 932.421 800.343 910.636 799.942 C 908.698 777.756 911.908 753.95 912.403 731.569 C 913.163 697.148 912.102 662.621 913.292 628.239 C 913.465 623.253 913.109 617.039 915.103 612.428 z"/>
<path transform="translate(0,0)" fill="rgb(254,150,2)" d="M 1010.56 643.427 C 1026.99 642.375 1043.48 644.023 1059.94 644.033 C 1062.64 682.685 1062.27 721.687 1062.71 760.413 C 1062.87 774.723 1064.03 788.944 1063.94 803.279 L 1048.77 802.743 C 1029.91 801.356 1011.15 801.679 992.266 802.012 C 991.612 788.089 992.974 773.94 993.152 759.99 C 993.398 721.705 994.397 683.428 996.147 645.182 C 1000.93 644.455 1005.76 643.985 1010.56 643.427 z"/>
<path transform="translate(0,0)" fill="rgb(254,150,2)" d="M 1470 1050.47 C 1482.53 1050.04 1495.35 1050.96 1507.85 1051.71 C 1508.21 1079.49 1509.11 1107.15 1509.02 1134.96 C 1508.95 1156.09 1507.76 1177.32 1508.8 1198.43 C 1499.22 1195.63 1489.56 1193.08 1479.94 1190.42 C 1465.94 1184.01 1447.45 1183.83 1435.02 1175.23 C 1433.54 1172.57 1433.27 1169.98 1433.03 1167.01 C 1431.51 1148.46 1433.25 1129.81 1433.08 1111.23 C 1432.97 1098.12 1430.59 1083.35 1432.24 1070.44 C 1432.74 1066.52 1434.05 1062.76 1436.77 1059.83 C 1444.63 1051.34 1459.25 1050.94 1470 1050.47 z"/>
<path transform="translate(0,0)" fill="rgb(254,150,2)" d="M 1258.15 636.303 C 1272.16 637.175 1285.65 635.651 1299.72 637.88 C 1299.83 644.562 1299.74 650.32 1298.03 656.854 C 1294.27 671.219 1286.97 685.198 1281.72 699.127 C 1266.74 738.872 1253.5 778.34 1232.94 815.664 C 1229.02 817.824 1198.52 810.912 1192.71 809.702 C 1215.03 752.306 1230.85 691.641 1258.15 636.303 z"/>
<path transform="translate(0,0)" fill="rgb(254,81,151)" d="M 1585.33 1090.56 L 1586.54 1090.45 L 1588.25 1091.88 C 1593.36 1108.15 1591.27 1198.76 1591.02 1222.12 C 1574.81 1220.43 1559.21 1214.61 1543.83 1209.5 C 1537.48 1207.37 1531.24 1204.57 1525.01 1202.06 C 1524.86 1186.54 1525.44 1171.04 1525.41 1155.53 C 1525.36 1136.66 1521.83 1111.73 1527.57 1093.61 C 1528.06 1093.09 1528.43 1092.42 1529.03 1092.04 C 1532.17 1090.08 1577.27 1091.02 1585.33 1090.56 z"/>
<path transform="translate(0,0)" fill="rgb(0,191,191)" d="M 1592.4 1788.57 C 1602.34 1787.54 1612.43 1787.77 1622.39 1788.36 C 1623.87 1801.31 1626.14 1851.98 1620.11 1861.12 C 1611.14 1867.6 1599.34 1867.08 1588.75 1867.17 C 1582.89 1867.64 1579.57 1865.41 1574.75 1862.32 C 1569.51 1847.9 1558.69 1806.54 1562.05 1792.59 C 1567.79 1787.7 1584.64 1789.05 1592.4 1788.57 z"/>
<path transform="translate(0,0)" fill="rgb(0,191,191)" d="M 351.397 1881.65 C 371.592 1884.16 391.72 1883.41 412.005 1883.11 C 412.273 1901.82 410.245 1920.77 408.687 1939.39 C 407.597 1946.86 405.658 1952.11 399.391 1956.72 C 393.363 1961.15 384.675 1963.3 377.282 1961.99 C 372.776 1961.18 368.51 1959.52 366.052 1955.45 C 365.26 1954.14 364.61 1952.74 363.972 1951.35 C 359.022 1939.49 354.269 1897.44 351.397 1881.65 z"/>
<path transform="translate(0,0)" fill="rgb(1,182,184)" d="M 363.972 1951.35 L 365.817 1952.25 L 368.114 1951.41 C 369.057 1949.77 369.698 1948.49 371.105 1947.2 C 371.046 1949.11 371.24 1948.57 370.711 1950 C 369.738 1952.61 369.388 1953.64 370.074 1956.52 C 371.116 1957.84 371.911 1958.84 373.556 1959.45 C 379.308 1961.59 387.304 1960.04 392.839 1957.93 C 394.16 1954.67 395.703 1951.59 397.389 1948.5 C 400.29 1943.2 401.414 1941.43 407.54 1939.7 C 407.921 1939.59 408.304 1939.5 408.687 1939.39 C 407.597 1946.86 405.658 1952.11 399.391 1956.72 C 393.363 1961.15 384.675 1963.3 377.282 1961.99 C 372.776 1961.18 368.51 1959.52 366.052 1955.45 C 365.26 1954.14 364.61 1952.74 363.972 1951.35 z"/>
<path transform="translate(0,0)" fill="rgb(155,245,36)" d="M 352.069 1256 C 357.882 1261.28 362.002 1268.26 367.753 1273.6 C 373.484 1278.91 380.69 1282.85 386.765 1287.87 L 387.716 1288.66 C 382.202 1300.01 378.533 1311.84 374.735 1323.83 C 367.579 1321.21 361.261 1315.95 354.589 1312.2 C 337.399 1304.06 321.681 1293.76 305.622 1283.66 C 320.081 1271.19 334.897 1264.12 352.069 1256 z"/>
<path transform="translate(0,0)" fill="rgb(0,191,191)" d="M 145.737 1758.2 C 155.976 1762.11 166.367 1773.92 175.059 1780.78 C 181.745 1786.06 188.64 1790.91 195.728 1795.63 C 192.969 1805.93 191.269 1814.61 185.692 1823.91 C 184.86 1824.75 184.567 1825.09 183.743 1825.79 C 179.978 1829 173.766 1828.6 169.138 1828.22 C 160.565 1827.52 150.614 1825.42 144.978 1818.35 C 136.192 1807.33 143.928 1772.19 145.737 1758.2 z"/>
<path transform="translate(0,0)" fill="rgb(14,48,147)" d="M 561.674 577.409 C 561.563 587.526 566.254 610.478 559.113 618.29 C 556.216 621.459 550.598 622.805 546.563 623.443 C 536.265 625.071 524.821 624.197 514.36 624.165 L 450.357 623.66 C 422.347 623.551 394.312 624.218 366.306 623.618 C 328.825 622.814 291.408 620.663 253.953 619.192 C 234.479 618.427 214.486 620.453 195.127 618.721 C 190.652 618.32 186.975 617.596 183.367 614.799 C 180.23 612.366 180.198 609.901 179.804 606.124 C 178.629 594.872 180.042 583.47 179.905 572.18 C 179.523 540.624 178.516 509.069 178.511 477.502 C 178.507 453.932 179.719 430.4 180.226 406.843 L 181.81 313.004 C 182.222 297.037 181.905 281.04 182.568 265.081 C 183.007 254.51 184.303 243.996 185.009 233.444 C 185.666 223.633 185.574 213.43 187.111 203.739 C 187.573 200.825 188.316 197.226 190.512 195.048 C 192.935 192.646 194.907 192.576 198.192 192.28 C 205.659 191.61 213.47 192.009 220.988 191.804 C 254.339 190.894 287.38 192.669 320.709 192.981 C 379.18 193.528 437.617 192.326 496.097 193.162 C 512.676 193.399 529.218 194.773 545.797 195.163 C 549.396 194.526 552.255 193.937 555.524 196.128 C 559.89 199.054 561.393 204.035 562.29 208.958 C 562.904 212.329 563.166 215.844 563.442 219.255 C 564.598 230.031 563.286 241.505 563.121 252.386 C 562.74 277.642 561.996 303.069 561.957 328.307 C 561.898 366.586 563.519 404.857 563.604 443.15 C 563.703 487.947 562.221 532.637 561.674 577.409 z"/>
<path transform="translate(0,0)" fill="rgb(248,245,59)" d="M 563.442 219.255 C 564.598 230.031 563.286 241.505 563.121 252.386 C 562.74 277.642 561.996 303.069 561.957 328.307 C 561.898 366.586 563.519 404.857 563.604 443.15 C 563.703 487.947 562.221 532.637 561.674 577.409 C 560.956 581.168 560.99 585.771 557.629 588.18 C 555.702 589.561 553.305 589.37 551.243 588.447 C 549.136 587.504 547.137 586.283 546.119 584.238 C 545.267 582.526 545.713 583.121 544.802 582.124 C 544.353 584.343 544.319 584.784 542.752 586.543 C 531.638 580.312 521.554 570.192 510.93 562.825 C 510.493 547.428 509.224 532.06 509.028 516.65 C 508.503 475.42 509.881 434.345 510.342 393.14 C 510.527 376.609 509.889 360.041 509.904 343.498 C 509.93 314.957 512.686 286.326 510.52 257.803 C 515.713 252.056 541.899 224.571 546.826 223.581 L 546.606 225.464 L 547.695 226.155 C 552.007 223.289 561.102 222.834 563.442 219.255 z"/>
<path transform="translate(0,0)" fill="rgb(14,48,147)" d="M 563.442 219.255 C 564.598 230.031 563.286 241.505 563.121 252.386 C 562.74 277.642 561.996 303.069 561.957 328.307 C 561.898 366.586 563.519 404.857 563.604 443.15 C 563.703 487.947 562.221 532.637 561.674 577.409 C 560.956 581.168 560.99 585.771 557.629 588.18 C 555.702 589.561 553.305 589.37 551.243 588.447 C 549.136 587.504 547.137 586.283 546.119 584.238 C 545.267 582.526 545.713 583.121 544.802 582.124 C 541.124 569.212 543.666 542.552 543.969 528.559 C 544.625 503.119 545.074 477.674 545.317 452.227 C 545.335 426.653 544.235 401.087 544.15 375.515 C 544.047 344.403 545.052 313.257 545.441 282.145 C 545.662 264.408 543.323 242.586 546.606 225.464 L 547.695 226.155 C 552.007 223.289 561.102 222.834 563.442 219.255 z"/>
<path transform="translate(0,0)" fill="rgb(1,33,109)" d="M 545.797 195.163 C 549.396 194.526 552.255 193.937 555.524 196.128 C 559.89 199.054 561.393 204.035 562.29 208.958 C 562.904 212.329 563.166 215.844 563.442 219.255 C 561.102 222.834 552.007 223.289 547.695 226.155 L 546.606 225.464 L 546.826 223.581 C 544.444 220.761 543.788 209.816 542.708 205.444 C 543.938 202.041 544.904 198.668 545.797 195.163 z"/>
<path transform="translate(0,0)" fill="rgb(249,243,240)" d="M 253.177 258.588 C 331.875 261.629 410.638 262.646 489.389 261.637 C 494.264 292.635 492.339 322.092 492.119 353.23 L 492.277 453.068 C 474.488 446.584 428.453 437.281 415.893 428.018 C 418.14 412.871 419.899 395.179 412.547 381.099 C 403.355 363.499 379.63 356.202 361.844 350.968 C 353.564 354.199 345.941 360.643 338.764 365.847 C 327.726 373.849 316.451 381.876 306.356 391.058 C 286.647 408.987 269.506 430.319 251.117 449.635 C 249.504 425.079 250.328 400.206 250.393 375.602 C 250.496 336.626 250.641 297.499 253.177 258.588 z"/>
<path transform="translate(0,0)" fill="rgb(0,191,191)" d="M 251.965 478.846 C 272.16 449.493 317.649 391.37 350.034 378.736 C 361.027 374.448 373.322 374.455 384.154 379.361 C 391.307 382.6 397.137 388.043 399.69 395.592 C 403.301 406.272 400.267 419.857 395.563 429.856 C 395.652 431.959 395.737 434.051 395.917 436.15 C 397.715 438.26 399.619 440.706 402.088 442.049 C 407.922 445.222 416.107 446.651 422.473 448.778 C 431.135 451.673 439.484 455.488 448.16 458.327 C 463.47 463.336 477.091 466.684 491.341 474.484 C 491.617 501.401 491.522 528.246 492.76 555.143 C 473.612 555.03 454.483 554.272 435.341 554.144 C 392.858 553.859 350.934 554.016 308.469 551.589 C 292.73 550.689 276.848 551.249 261.213 549.056 C 257.942 548.591 254.896 547.915 251.727 546.981 C 252.65 524.275 250.921 501.541 251.965 478.846 z"/>
<path transform="translate(0,0)" fill="rgb(1,182,184)" d="M 395.917 436.15 C 393.573 437.833 392.957 439.394 392.11 442.123 C 391.943 442.661 391.798 443.206 391.641 443.748 L 389.416 444.713 C 386.718 444.552 385.366 444.581 383.115 442.908 C 383.853 439.294 387.237 439.642 388.097 435.984 C 386.212 433.838 385.968 433.677 383.212 432.931 C 384.707 431.625 385.236 431.61 387.263 431.577 C 389.943 431.533 391.222 431.885 393.757 430.724 C 394.364 430.445 394.961 430.145 395.563 429.856 C 395.652 431.959 395.737 434.051 395.917 436.15 z"/>
<path transform="translate(0,0)" fill="rgb(1,182,184)" d="M 376.593 451.956 C 380.16 453.226 382.302 454.027 384.047 457.432 C 381.996 459.269 381.861 458.731 379.251 458.684 C 375.833 458.868 372.757 458.926 369.365 458.42 L 369.15 457.207 C 371.705 455.541 374.149 453.782 376.593 451.956 z"/>
<path transform="translate(0,0)" fill="rgb(1,182,184)" d="M 295.438 479.744 L 299.126 479.736 C 301.915 481.739 300.635 484.617 301.451 487.819 C 301.85 489.383 301.884 490.733 301.916 492.34 C 299.275 491.994 297.88 491.516 295.648 490.06 C 294.828 488.199 294.852 487.714 295.253 485.645 C 295.553 484.096 295.744 482.958 295.603 481.365 C 295.555 480.824 295.493 480.284 295.438 479.744 z"/>
<path transform="translate(0,0)" fill="rgb(1,182,184)" d="M 389.537 494.678 C 393.699 495.824 398.647 495.807 401.295 499.458 L 399.896 503.006 C 396.701 501.04 395.778 501.14 392.145 501.032 C 389.793 499.096 390.081 497.61 389.537 494.678 z"/>
<path transform="translate(0,0)" fill="rgb(1,182,184)" d="M 344.217 495.612 C 347.25 495.818 349.511 495.7 351.889 497.861 L 351.544 499.479 L 348.626 501.215 C 347.118 502.738 346.302 503.78 344.131 504.156 L 342.8 502.777 C 342.584 499.766 343.105 498.324 344.217 495.612 z"/>
<path transform="translate(0,0)" fill="rgb(248,245,59)" d="M 204.204 222.788 C 210.131 228.618 216.664 233.893 222.865 239.433 C 226.952 243.085 232.219 247.47 233.281 253.095 C 235.447 264.572 234.302 277.451 234.153 289.119 C 233.81 315.983 232.475 342.821 232.12 369.681 C 231.889 387.224 232.67 404.706 232.896 422.239 C 233.168 462.791 234.315 503.333 236.334 543.836 C 235.553 547.96 235.345 551.831 231.599 554.37 C 230.524 555.098 229.408 555.743 228.28 556.382 C 217.93 561.238 206.786 572.605 198.013 580.029 C 194.506 520.474 196.661 460.131 198.072 400.543 C 198.942 363.827 198.841 326.956 200.132 290.276 C 200.923 267.788 202.777 245.246 204.204 222.788 z"/>
<path transform="translate(0,0)" fill="rgb(248,245,59)" d="M 237.335 569.55 C 242.988 566.765 246.946 565.961 253.279 566.344 C 265.874 569.246 280.632 567.522 293.537 567.781 C 310.97 568.13 328.367 568.994 345.814 569.232 C 366.561 569.515 483.373 568.629 496.105 574.053 C 508.554 579.355 527.511 597.589 539.486 606.519 C 489.828 605.627 440.24 606.837 390.62 606.416 C 362.35 606.175 334.295 604.028 306.078 602.998 C 272.434 601.77 238.655 601.591 205.055 599.477 C 214.703 590.104 224.018 579.405 234.833 571.463 C 235.679 570.841 236.5 570.187 237.335 569.55 z"/>
<path transform="translate(0,0)" fill="rgb(248,245,59)" d="M 215.877 208.407 C 228.455 207.946 240.934 208.591 253.506 208.79 C 266.614 208.998 279.777 208.625 292.873 209.177 C 304.941 209.684 316.953 211.05 329.041 211.092 C 396.297 211.322 464.101 207.621 531.189 213.499 C 526.211 218.793 520.936 223.857 515.805 229.006 C 510.9 234.564 505.628 238.752 499.552 242.921 C 492.158 242.629 484.447 243.696 477.024 243.94 C 465.182 244.33 453.284 244.129 441.433 244.13 C 412.301 244.169 383.168 244.058 354.037 243.796 C 343.391 243.63 332.759 242.692 322.124 242.618 C 297.425 242.445 270.834 244.504 246.415 240.535 C 239.152 234.873 220.091 215.988 215.877 208.407 z"/>
<path transform="translate(0,0)" fill="rgb(1,33,109)" d="M 236.334 543.836 C 236.88 546.821 236.499 548.592 239.041 550.389 C 241.112 549.942 242.622 549.291 244.487 548.347 C 247.181 546.983 248.73 546.82 251.727 546.981 C 254.896 547.915 257.942 548.591 261.213 549.056 C 256.108 554.463 254.997 558.392 254.685 565.713 L 253.279 566.344 C 246.946 565.961 242.988 566.765 237.335 569.55 C 238.217 566.885 238.676 565.582 238.077 562.741 C 235.996 559.344 231.763 558.017 228.28 556.382 C 229.408 555.743 230.524 555.098 231.599 554.37 C 235.345 551.831 235.553 547.96 236.334 543.836 z"/>
<path transform="translate(0,0)" fill="rgb(14,48,147)" d="M 786.241 89.4982 C 827.25 89.2816 868.317 87.5692 909.324 86.9395 L 1312 82.3777 C 1335.07 82.341 1358.21 84.5388 1381.27 85.2529 C 1409.28 86.1202 1437.45 85.7326 1465.49 85.9203 C 1531.26 86.3606 1596.87 86.7236 1662.6 89.7051 C 1677.32 90.3727 1691.85 91.9557 1706.52 92.8953 C 1713.35 93.3328 1720.74 92.6382 1727.39 94.0972 C 1732.37 106.428 1723.1 255.266 1722.18 282.657 C 1721.77 294.637 1725.06 324.384 1721.32 333.862 C 1720.48 335.989 1719.69 336.482 1717.91 337.784 C 1715.48 337.99 1713.45 337.316 1711.63 335.659 C 1702.48 327.332 1705.17 283.356 1705.25 270.029 C 1705.4 245.523 1707.59 221.139 1708.27 196.667 C 1709.08 167.631 1708.3 138.552 1708.67 109.527 C 1689.91 107.141 1671.08 108.154 1652.24 107.364 C 1597.26 105.16 1542.24 103.97 1487.22 103.793 L 1367.97 101.736 C 1353.87 101.379 1339.78 100.339 1325.67 100.122 C 1280.43 99.4267 1235 99.902 1189.74 100.071 C 1127.9 100.301 1066.1 103.567 1004.24 103.876 C 974.407 104.024 944.373 104.977 914.578 104.684 C 886.43 104.407 858.345 103.811 830.179 103.914 C 817.049 103.962 800.625 102.738 787.9 105.979 C 788.189 120.915 787.586 135.928 787.668 150.882 C 787.803 175.765 788.471 200.706 787.834 225.582 C 786.843 264.232 784.813 302.732 784.397 341.433 L 781.039 579.692 C 780.824 617.017 782.964 654.392 782.29 691.72 C 781.996 708.01 780.406 724.268 779.857 740.553 C 779.461 752.284 780.154 764.276 779.211 775.953 C 779.058 777.85 778.661 779.603 777.706 781.277 C 776.289 783.76 773.94 785.561 771.059 785.921 C 768.634 786.224 766.036 785.393 764.189 783.801 C 761.704 781.658 760.497 778.164 760.274 774.964 C 759.442 763.025 761.797 741.751 762.488 729.122 C 764.031 703.609 764.779 678.054 764.731 652.495 C 764.795 621.89 763.855 591.259 763.875 560.627 L 766.824 272.996 L 768.252 181.45 C 768.834 156.455 770.96 129.343 767.634 104.531 L 767.44 103.145 C 765.618 98.4206 766.048 95.3865 768.072 90.7896 C 769.392 87.7923 772.039 84.9673 775.342 84.1776 C 777.888 83.5689 779.48 83.5477 781.719 85.047 C 783.338 86.1314 784.886 88.0754 786.241 89.4982 z"/>
<path transform="translate(0,0)" fill="rgb(14,48,147)" d="M 1845.32 832.094 C 1849.46 830.141 1856.85 831.216 1861.05 832.613 C 1862.18 834.871 1861.82 833.758 1862.25 835.91 C 1861.73 841.925 1873.64 847.94 1876.85 853.552 C 1879.63 858.385 1879.16 864.01 1877.55 869.15 C 1875.41 875.996 1870.78 881.68 1864.38 884.969 C 1857.99 888.251 1850.56 888.314 1843.81 886.139 C 1838.07 884.287 1832.84 880.696 1830.19 875.13 C 1821.46 856.82 1839.29 847.921 1844.87 833.331 C 1845.03 832.921 1845.17 832.507 1845.32 832.094 z"/>
<path transform="translate(0,0)" fill="rgb(1,33,109)" d="M 1856.82 861.805 C 1857.56 861.93 1858.22 862.37 1858.91 862.689 C 1858.96 866.727 1859.32 873.188 1856.88 876.54 L 1854.72 876.442 C 1851.95 873.484 1849.76 871.324 1849.41 867.196 C 1851.07 864.147 1853.83 863.232 1856.82 861.805 z"/>
</svg>