<svg xmlns="http://www.w3.org/2000/svg" width="1365.333" height="1365.333" preserveAspectRatio="xMidYMid meet" version="1.0" viewBox="0 0 1024 1024"><g fill="#000" stroke="none"><path d="M556.5 41.2c-41.8.4-95.6 1.2-119.5 1.7-36.6.7-43.8.6-45.1-.5-2.4-2.2-6.4-1.7-7.7.8-1.2 2.4-1.5 23.9-2.7 211.3-.3 50-1 101.1-1.6 113.4-.7 15.3-.7 22.7 0 23.4.6.6 2.5 1 4.2 1 3.9 0 5.9-2.5 5.8-7.3 0-1.9.4-38.8 1-82s1.3-95.8 1.5-117 .7-59.7 1.1-85.6l.8-47.2 4.6-.6c2.5-.3 33.6-.6 69.1-.6 35.5-.1 66.1-.3 68-.5 13-1.2 105.4-1.6 159.5-.6 94 1.7 152.7 3.1 155.4 3.7l2.4.5-.7 39.2c-1.3 67.2-1 73.1 3.9 74.3 1.3.3 2.8.3 3.3 0s1.2-10.6 1.5-22.8c.4-12.3 1.1-31.8 1.6-43.3 1.4-29.7 1.7-55.2.8-56.1-.4-.5-3.4-.9-6.5-1s-13.1-.7-22.2-1.3-50-1.6-91-2.3c-103.6-1.5-102.7-1.5-187.5-.6M744 42.8c41 .7 81.9 1.7 91 2.3s18.9 1.3 21.8 1.4c3 .1 5.7.7 6.2 1.4.8 1.4.5 13.6-1.1 53.1-.6 13.5-1.3 33.7-1.6 45s-.8 20.9-1.2 21.3c-1.2 1.2-3.7-.2-4.9-2.7-1.4-3-1.5-21.5-.6-70.8l.7-39.6-3.4-.6c-3.8-.6-61.1-2-154.9-3.7-54.5-1-147-.6-160 .6-1.9.2-32.3.4-67.5.5-35.2 0-66.5.3-69.6.6l-5.6.6-.8 47.7c-.4 26.2-.9 64.9-1.1 86.1s-.9 73.8-1.5 117-1 80.2-1 82.2c.2 4.7-3.4 7.7-6.9 5.8-2-1.1-2.1-1.8-1.6-7.3.5-6.2 1.9-129.5 3.1-265.7.4-50.4.9-72.2 1.7-73.8 1.3-2.5 3-2.8 6.1-.8 1.9 1.2 9 1.3 45.7.5 51.2-1.1 187.4-2.6 214-2.3 10.2.1 52 .6 93 1.2"/><path d="M827 66.3c-1.9.9-50.3 1.2-208.8 1.2-193.7 0-206.5.1-207.6 1.8-1.6 2.1-2.1 231.1-.7 284.8 1 37.3 1.3 39.4 6.6 39.4h3v-26c0-14.3-.3-36.4-.7-49-.3-12.7-.4-24.2-.1-25.7.7-3.7 4.9-4.8 17.6-4.8 7.2 0 9.9.3 10.3 1.3.3.8.6 25.5.7 55.1l.2 53.7-2.3.6c-1.2.3-4.6.3-7.5-.1-5.5-.6-65.7-.9-125.2-.7-19.2.1-46.7.8-61 1.6s-34.5 1.9-45 2.5c-10.4.5-27.3 1.9-37.5 3-10.2 1-21.2 2.2-24.5 2.5-12 1.3-21.9 3.6-30.5 7.2-17.6 7.4-26.9 13.3-37 23.4-5.7 5.8-8.2 9.2-11.3 15.9-4.9 10.6-5.9 14.1-10 33.1l-3.2 15.4v41c0 37.3.2 42.3 2.3 55.7 3.1 20.7 3.1 20.9-2 24.3-11.7 7.7-16.9 18.7-18.7 39-2.1 24.8.5 154 3.5 168.3 3.3 16.3 6.7 22.6 18 33.9l7.4 7.4-.5 9.2c-.3 5.1-1 11.9-1.6 15.1-1.5 8.5-.4 14.7 3.4 19.1 2.6 2.8 4.7 4 10.7 5.6 13.7 3.8 21.2 1.2 27.5-9.3 2.2-3.7 4.5-6.6 5-6.4.9.3 13.9 9.8 26.5 19.4 2.6 2 14.6 8.3 19 10 3.6 1.4 8.3 3.3 10 4.2.8.4 1.8 2.5 2.2 4.6 3.5 18.9 7.1 36 7.9 37.5 2.3 4.4 7.7 7.2 14.8 7.7 9.7.7 13.2-.3 18.3-4.8 5.4-4.7 6.2-7.3 7.9-25 1.4-15.2 2.9-19.1 7.9-20.1 1.9-.4 17.5-1 34.5-1.3 17.1-.4 38.7-1.1 48-1.7 35.6-2.1 48.5-2.8 63.5-3.8 8.5-.5 24.3-1.5 35-2.1 29.5-1.7 56.7-3.9 74.5-6 8.8-1 19.6-2.2 24-2.5s11.4-1 15.5-1.5 14-1.4 22-2 18.1-1.5 22.5-2c12-1.5 46.4-4.9 60-6 6.6-.6 20.6-1.7 31-2.5 10.5-.8 21.9-1.9 25.5-2.4 3.6-.6 10.1-1.3 14.5-1.6s13.2-1.2 19.5-2 16.2-1.7 22-2c5.8-.4 15.1-1.3 20.8-2.1 13.8-1.9 13.9-1.9 14.5 1.4.6 2.9 5.1 23.8 6.8 31.2 2.4 10.8 6.4 12.6 23.7 11.3 12.2-.9 12.3-.9 15.8-4.4 4.8-4.8 5.5-8.7 4.7-27.4-.7-17.9-1-17 6.7-19.8 10.5-3.9 17.9-11.3 20.6-20.5 1.4-4.7 1.9-5.3 3.7-4.8 7.2 2 23 2.8 44.5 2.3 20.5-.4 25.4-.9 36.2-3.1 6.8-1.5 13.3-3.2 14.5-4 1.1-.7 3.1-1.6 4.5-1.9 5.3-1.3 12.1-6.6 14-11 3.9-8.5 1.9-16.4-5.8-22.3-8.8-6.7-19.1-10.5-40.7-15-6.6-1.3-13.5-2.9-15.4-3.5l-3.4-1.2.7-168.1c.3-92.4.6-197 .6-232.4v-64.3l9.3.3 9.2.3.1 3.5c.1 1.9.4 18.6.8 37s1 33.8 1.2 34.1c.3.6-.6 2-6.2 9.6-2.4 3.3-2.9 9.4-1 13 1.1 2.2 2.9 3.5 6.3 4.7 7.4 2.5 9.8 2.1 14.3-2.4 3.6-3.6 4-4.5 4-9.2s-.3-5.4-3.9-8.7l-3.9-3.6-.2-39.8-.1-39.7h3.3c1.8 0 12.4-.7 23.6-1.4 16.8-1.1 20.6-1.7 22.2-3.1 2.7-2.4 2.5-6.5-.4-12.8-1.3-2.9-3.2-7.9-4.1-11.2-5.1-17.7-4.9-16.7-15.6-58-2.2-8.8-4.5-16.9-4.9-18-2.7-6.7-10.3-34.1-12.1-43.3-1.9-9.9-2.5-10.4-16.5-11.4-18.4-1.3-81.6-1.7-83.9-.5-3 1.5-4.2 3.6-6.6 11-2.3 7.5-3.8 8.4-2 1.4.9-4 2.5-53.3 3.3-104.9.2-14.7 0-18-1.2-19.2-2.2-2.1-6.1-2.7-9-1.3m7.4 2c2.2 2.2 2.3 2.8 2 15.3-.2 7.1-.8 33.4-1.4 58.4-.6 25.1-1.5 47.1-2 49-2.7 9.5.8 9.5 3.8.1 1.2-3.8 3.3-8 4.7-9.3l2.4-2.4 30.8.2c16.9.1 37.7.5 46.2.9 18.2.9 19.1 1.4 21.1 11.1 1 5.3 6.8 26.4 10.5 38.4 1.8 5.8 9.8 35.3 13.6 50 5.6 22 10.1 37 12.8 43.3 2.6 6.1 2.6 7.9.1 10.2-1.7 1.5-5.2 2.1-21.3 3.1-10.5.7-21.1 1.3-23.5 1.3l-4.3.1.1 40.7.2 40.8 3.9 3.6c3.3 3.1 3.9 4.2 3.9 7.7 0 3.6-.6 4.8-4 8.2-4.5 4.5-6.8 4.9-12.9 2.4-7.2-2.9-9.1-9.3-4.6-15.5 1.3-1.9 3.1-4.4 4-5.6.9-1.1 1.6-2.9 1.7-4 .1-1.4-1.1-55.7-1.6-72.8l-.1-4-10.2-.3-10.3-.3v64.3c0 35.4-.3 140.4-.6 233.4l-.7 169 5.9 1.7c3.2.8 9.7 2.3 14.4 3.2 22.8 4.4 38.9 11.9 44.7 20.6 3.4 5.1 2.9 12.1-1.1 17.4-4 5.2-17.3 11.2-31.6 14.3-18.8 3.9-62.7 4.3-80.1.6-2.5-.5-2.7-.3-3.8 4.3-2.2 8.9-9.1 15.7-21.9 21.5l-6.5 3 .6 16.6c.8 19.5.2 22.6-5.2 27.5-3.8 3.4-4 3.5-15.3 4.2-9.7.6-12.1.4-14.7-1-3.8-1.9-6.9-6.6-7.6-11.5-.3-1.9-1.7-8.7-3.1-15s-2.8-13-3.1-14.8c-.6-3.8-.8-3.8-15.5-1.8-5.7.8-15 1.7-20.8 2.1-5.8.3-15.7 1.2-22 2s-15.1 1.7-19.5 2-10.9 1-14.5 1.6c-3.6.5-15 1.6-25.5 2.4-10.4.8-24.4 1.9-31 2.5-13.6 1.1-48 4.5-60 6-4.4.5-14.5 1.4-22.5 2s-17.9 1.5-22 2-11.1 1.2-15.5 1.5-15.2 1.5-24 2.5c-17.5 2.1-44.6 4.3-73.5 5.9-10.2.6-26.1 1.6-35.5 2.2-53.3 3.4-83.3 4.9-118.2 5.7-20.1.6-31.6 1.2-32.5 1.9-2.1 1.8-3.7 8.9-5.2 23.7-1.6 15.4-2.1 16.7-9.6 22.4-4.3 3.3-4.6 3.4-12.5 3-7.1-.3-8.6-.7-11.8-3.1-2-1.5-4.2-3.7-4.8-4.9-1-1.9-5.7-23.9-7.5-35.7l-.9-5.5-8-3.2c-8.5-3.4-18.4-8.5-22.5-11.6-18.7-14.1-26.7-19.8-28-19.8-.8.1-3.3 3.1-5.5 6.8C95 921.6 88.3 924 74.9 920c-11.4-3.4-15.3-10.5-13-23.5.6-3.3 1.3-10.4 1.6-15.7l.6-9.7-7.5-7.4c-11.1-11.1-15-18.2-18-33.1-3.3-15.9-5.6-160.3-2.8-176.5 1.3-7.5 6.7-19.3 10.9-23.7 1.6-1.7 4.8-4.4 7.1-5.9 5.1-3.4 5.2-4.1 2-25.3-2.1-13.4-2.3-18.3-2.3-56.2l.1-41.5 3.6-16.6c5-23.3 10.4-35.2 20.4-45.4 7.9-8 15.4-13.4 25.1-18.4 8.5-4.2 20.4-8.9 26.1-10.2 9.4-2.1 53.5-6.6 77.7-7.9 10.5-.6 30.7-1.7 45-2.5s41.8-1.5 61-1.6c59.2-.2 120.8.2 125.2.8 2.4.3 5.8.3 7.5-.1l3.3-.6-.2-54.7c-.1-30.1-.5-55.3-.7-56-1-2.4-26.9-1.4-29.4 1.2-.4.4-.5 12.2-.2 26.3.3 14.2.5 37.2.5 51.2 0 23.1-.2 25.5-1.7 25.8-.9.2-2.4-.8-3.4-2.2-2.6-4.1-3.4-52.7-3.2-194.9.1-108.6.3-124.9 1.6-125.9 1.1-1 46.4-1.3 207.6-1.3 160.3 0 206.5-.3 208.1-1.2 2.9-1.8 4.3-1.6 6.9 1"/><path d="M429.4 76.7c-10.9.4-10.4-.4-10.4 15.7v10.8l16.3-.3c14.2-.4 16.6-.2 18.9 1.3 3.6 2.4 4.8 7.1 3.5 13.6-.6 2.8-.9 5.3-.6 5.6.2.2 5.1.5 10.9.7l10.5.4v-6.7c0-5.2.5-7.3 2.1-9.5 2.6-3.5 6.6-4.1 28.1-4.2 17.8-.1 18.6.2 18.2 7.8-.2 2.5-.2 7.6-.1 11.3l.2 6.8h22.3c12.2 0 22.8-.4 23.6-.9 1.1-.7 1.2-3.4.5-14.7-1.1-17.3-.8-20.4 1.9-23.1 2-2 3.6-2.2 18.2-2.8 15.7-.6 16-.6 18.7 1.7 2.6 2.2 2.8 2.8 3.3 13.3.3 6 .5 11.4.5 11.8 0 .5 5.1.8 11.3.7 14.1-.3 13.3-.4 15.7 2 1.4 1.4 1.8 2.8 1.4 4.4-.3 1.4.4 6.4 1.6 11.2s3 13.3 4 18.8c6.4 33.5 17.6 77.6 19.8 77.6 1.1 0 1.3-3.4 1.1-19.1-.3-18.7-.2-19.2 1.9-21 1.2-.9 2.7-1.9 3.3-2.1s1.3-4.1 1.5-9.3c1-21.4 2-23.5 9.6-21.4 4.7 1.3 44.8 2.9 48.8 1.9l2.5-.6-.4-18.7-.3-18.6 2.8-2.6 2.8-2.6 18.1.4c9.9.3 19.6.8 21.5 1.2 3.5.7 3.5.6 4.8-4 1.9-7.2 4.6-9.2 13.3-10 4.1-.4 11.7-.5 16.9-.3l9.5.3.3-12.4c.1-6.8-.1-12.8-.6-13.3-.8-.8-378.4-1.8-397.8-1.1m396.8 2.1c.5.5.7 6 .6 12.3l-.3 11.4-11-.3c-14-.5-23.4 1-25.8 3.9-.9 1.2-2.2 4.2-2.9 6.6-1.1 4.4-1.2 4.5-4.2 3.8-1.7-.4-11.4-.9-21.6-1.2l-18.6-.4-2.8 2.6-2.8 2.6.3 18.6c.4 17.8.3 18.6-1.6 19.2-3.2 1.1-43.5-.5-48.8-1.9-8.2-2.1-9-.3-10 22.2-.4 7.6-.5 7.9-3.8 10.1l-3.4 2.3.4 19.4c.1 10.7.1 19.3-.3 19-.5-.6-6.6-22.6-9.1-33-3.1-13.1-7.7-34.3-9.5-43.6-1-5.5-2.8-14-4-18.8s-2-9.7-1.7-10.8c.9-3.2-1-6.7-4-7.5-1.5-.3-7.7-.7-13.7-.7l-10.8-.1-.2-6.5c-.1-3.6-.3-8.9-.4-11.8-.2-4.7-.5-5.4-3.4-7.3-3.1-1.9-4.3-2-19.8-1.4s-16.6.8-18.9 3c-2.3 2.3-2.4 2.9-2.1 12.7.2 5.7.4 13.7.4 17.8l.1 7.5-22.2.3-22.3.2-.2-6.2c-.1-3.5-.1-8.6.1-11.4.4-8.7.2-8.7-23.5-8.2-16.6.4-20.7.8-22.8 2.1-3 2-4.8 7.7-4.4 13.9l.3 4.3-9.5-.4c-5.2-.2-9.7-.5-9.9-.7s0-2.5.6-5c1.4-6-.1-12-3.5-14.2-2.2-1.4-5-1.6-18.9-1.3l-16.3.3V91.3c0-5.9.4-11.3.8-12 .5-.7 4.1-1.4 9.2-1.6 17.8-.7 395.4.3 396.2 1.1"/><path d="M586.3 96.7c-1.7.2-3.6 1-4.2 1.7-1.2 1.5-1.8 129.7-.6 131.6.4.6 6 1 13.6 1h13l-.1-57.8c-.1-31.7-.4-62.1-.7-67.5l-.6-9.7-8.6.2c-4.7 0-10 .3-11.8.5m20 9.5c.3 5.1.6 35.1.7 66.5l.1 57.3h-12c-7 0-12.2-.4-12.6-1-1.2-1.9-.6-128.1.6-129.6 1.3-1.6 4.2-2.1 14.5-2.3l8.1-.1zM426 110.7c-3.6.2-6.9.8-7.4 1.3-.8.8-1.1 117.8-.3 118.6.2.3 7.3.1 15.8-.3l15.4-.8-.3-38.5c-.2-21.2-.5-48-.5-59.5l-.2-21-8-.1c-4.4 0-10.9.1-14.5.3m21.6 21.3c.1 11.3.5 37.6.9 58.6l.6 38.1-14.7.6c-8.1.4-14.9.5-15.1.3-.8-.8-.5-115.8.3-116.6 1-1 9.8-1.7 20.4-1.6l7.5.1zm357.6-21.3c-7.2.4-7.4.4-8.7 3.7-1.1 2.5-1.5 12.2-2 40.2-.3 20.3-.8 37.8-1 39-.8 3.9-.6 38.7.2 39.4.8.8 14.6 1.5 23.4 1.2l4.7-.2 2-5.8c1.9-5.2 2.1-8.9 2.7-43.2.4-20.6.9-44 1.1-52 .6-18.3.2-20.7-3.4-21.4-4.9-1-11.6-1.3-19-.9m16.5 1.3c1.2 0 2.9.7 3.8 1.6 1.4 1.4 1.5 3.9 1.1 18.8-.3 9.4-.8 33.5-1.1 53.6-.6 33.4-.8 36.9-2.7 41.7-2 5.2-2.1 5.3-6.2 5.5-8 .3-21.1-.4-21.9-1.2-.8-.7-1-34.5-.2-38.4.2-1.2.7-18.7 1-39 .7-44.2.3-42.3 10.3-42.9 3.7-.2 8.3-.2 10.2-.1 1.9.2 4.5.4 5.7.4m-330.4.3c-1.7.7-3.5 1.5-3.9 1.9-.9.9-1.7 100.1-.8 109.1l.6 6.7 16.2-.2 16.1-.3-.2-53c-.2-29.2-.5-55.8-.9-59.3l-.6-6.2-11.6.1c-6.4 0-13.1.6-14.9 1.2m26.1 4.9c.4 2.9.7 29.1.9 58.3l.2 53-15.1.3-15.2.3-.6-5.8c-.4-3.2-.5-28.8-.3-56.8l.4-51 3.4-1.7c2.6-1.4 5.9-1.8 14.6-1.8h11.2zM625 124c-.8.5-3.2 1-5.3 1-2.6 0-4 .5-4.4 1.7-1 2.6 2.3 16.7 9.4 40.2 3.6 11.9 8.2 27.4 10.3 34.6 2.1 7.1 5.2 16.8 6.7 21.5l2.9 8.5 8.2.3c9.5.3 9.4.6 6.2-9.8-1.2-3.6-2.9-10.3-3.9-15-1.1-4.7-3.1-13.5-4.5-19.5-1.4-6.1-3.7-16.4-5.1-23-4.7-22-8.8-39-9.8-40.3-1.1-1.4-8.5-1.6-10.7-.2m9.8 1.2c1.1 1.4 5.4 18.8 9.7 39.3 1.5 7.1 4 18.4 5.5 25 1.6 6.6 3.4 14.5 4 17.5.7 3 2.3 9.3 3.6 13.9s2.4 8.7 2.4 9.3c0 .5-3.2.8-7.2.6l-7.3-.3-5.2-16c-4.8-14.9-10.5-33.2-16.9-55-4.3-14.5-7.8-30.1-7.1-31.9.4-1.1 1.9-1.6 4.4-1.6 2.1 0 4.5-.5 5.3-1 2.1-1.4 7.6-1.2 8.8.2m111.9-.5c-.7 2.9-.3 106.1.5 106.8 1.3 1.4 19.2 2.4 20.5 1.2.9-.9 1.4-14 1.9-49.2.6-42.4.8-48.6 2.4-53.5 1-3 1.6-5.7 1.4-5.9-.2-.3-6.3-.6-13.3-.8-11.7-.3-13-.2-13.4 1.4m26.2.2c.2.1-.1.7-.6 1.3-2.5 3.2-3.2 13.9-3.8 57.8-.4 27.9-1 46.9-1.6 47.5-1.1 1.1-14.1.7-17.3-.5-2.1-.7-2.1-1.1-2.2-52.1-.1-28.3 0-52.2.3-53.2.4-1.6 1.6-1.7 12.6-1.3 6.7.2 12.4.5 12.6.5m-313.9 8-3.5.6.2 42c.1 23.1.5 44.8.8 48.2l.7 6.3h21.5l.6-47.1c.4-31 .3-47.8-.4-49-.8-1.6-2.1-1.9-8.7-1.8-4.2.1-9.3.4-11.2.8m18.9 1.4c.7 1 .9 14.7.4 48l-.6 46.7h-19.6l-.6-5.3c-.3-2.8-.7-24.1-.8-47.2l-.2-42 3-.6c5.7-1.3 17.2-1 18.4.4m303.1-1.4-3.5.6-.7 39c-.5 21.4-.7 43.9-.5 50l.2 11h9l.6-25.5c1.2-48.2 1-76-.3-75.9-.7.1-2.9.4-4.8.8m4.9 24.8c-.1 13.7-.5 36-.8 49.8l-.6 25h-7l-.2-10.5c-.2-5.8 0-27.8.5-49l.7-38.5 3-.6c1.7-.4 3.3-.7 3.8-.8.4 0 .6 11 .6 24.6m-251.4-20c-4 .3-6.4.9-7.2 2-.9 1.2-1.1 12.1-.6 45.2.3 24 .8 43.9 1.2 44.3.8.9 43.3 1.4 44.8.5.7-.5 1-14.3.9-46.4l-.1-45.8-16.5-.1c-9.1 0-19.2.1-22.5.3m38.1 45.6c.1 31.8-.2 44.9-1 45.4-1.4.9-41.9.4-42.7-.5-.4-.4-.9-20.1-1.2-43.9-.5-33.5-.3-43.4.6-44.2 1.7-1.3 9-1.8 28.2-1.7l16 .1zm42.6 14.1c.2 17.8.5 32.7.8 32.9 1 1 16.5 1.8 17.8.9s.5-4.5-11.1-46.2c-2-6.9-3.8-14.3-4.2-16.3-.4-2.2-1.3-3.7-2.2-3.7-1.2 0-1.3 4.9-1.1 32.4m6.4-12.9c1.9 7.1 5.5 20.2 7.9 29 3.3 11.9 4.1 16.2 3.2 16.8-1.7 1.1-15-.2-15.9-1.6-.4-.7-.7-15.2-.7-32.2.1-20.4.4-30 1-28 .5 1.6 2.5 8.8 4.5 16m67.7-18.8c-2.5.5-3.7 5.5-3.8 16.3v6.5l16 .1c8.8.1 20.7.3 26.5.4 10.2.3 10.4.2 11.2-2.2.5-1.3.5-6.2.1-10.8l-.8-8.5-19.5-.6c-10.7-.3-21.3-.8-23.5-1.1s-5-.4-6.2-.1m29.2 2.2 19 .6.8 7c.9 9.2.2 13.5-2.1 12.8-1-.2-12.6-.5-25.7-.6l-24-.2.1-6.5c.1-9.1 1.1-13.8 3.2-14.3.9-.3 3.5-.3 5.7 0s12.6.9 23 1.2m153.6 18.8c-9 .2-15 .8-15.9 1.5-.7.7-3.1 1.1-5.3.9-4-.2-4-.2-6.8 6.1-1.6 3.5-4.3 10.8-6.1 16.3-1.7 5.5-4.2 12.7-5.5 16-1.4 3.3-3.8 10.3-5.4 15.5-9.9 31.8-14.8 47.2-19.2 60.3-4.8 14.4-5.7 19.1-4.1 20.1 1.7 1 26.1 3.6 48.7 5.2 30.7 2 60.5 2 91.8-.2 21-1.5 24.7-2 24.7-3.3 0-.9-1.4-6.8-3.1-13.1-4.6-17.3-12.9-50-13.9-54.5-2.6-12.8-15.1-52.9-19.7-63.3l-2.3-5.3-6.3.2c-3.4.1-8-.3-10.2-.9-4.9-1.3-22.3-1.9-41.4-1.5m41.4 2.5c2.2.6 6.6 1 9.7.9l5.8-.2 2.6 5.8c4.9 11 16 46.8 19.5 62.8.5 2.2 3.3 13.2 6.2 24.5 9.4 35.7 10.7 40.8 10.7 41.8 0 1.4-45.6 4.3-69.5 4.3-30.3.1-89.5-4.1-93.6-6.7-1.5-.9-1-3.7 2-12.5 1.6-4.6 5.2-15.8 8.1-24.9 2.8-9.1 6-18.7 7.1-21.4 1-2.7 1.9-5.5 1.9-6.2 0-1.9 5.8-20 9-27.9 1.5-3.9 4-11.1 5.6-16 1.5-5 4.2-12.3 6-16.2l3.3-7.3 4 .2c2.2.1 4.6-.4 5.4-1 2.6-2.2 48.1-2.2 56.2 0M696.8 196c-9.1.3-17 .9-17.5 1.3-.8.9-1.2 32.2-.3 33 .3.3 14 .7 30.5.8l30 .3v-17.2c0-14.3-.3-17.4-1.5-18.2-1.5-1-12.1-1-41.2 0m40.7 1.6c1.3 1.3 1.5 4 1.3 17.2l-.3 15.5-29-.2c-15.9-.1-29.2-.5-29.5-.8-.9-.8-.5-30.1.3-31 .8-.8 19.5-1.6 44.4-2.1 9.1-.2 11.5.1 12.8 1.4"/><path d="M469.3 237.9c-30.7.4-49.6 1-50.2 1.6-.5.5-1.1 3.4-1.2 6.4-.3 4.9-.1 5.5 2.2 6.3 1.3.5 11.6.9 22.9.9 99.5-.3 365.7 1.3 366.8 2.1 1.6 1.3 1.5 3.3-.1 4.6-.8.7-25.6 1.2-73.7 1.6-39.9.3-79.9.7-89 1.1-9.1.3-29.3.1-45-.5-37-1.4-152.5-2.3-170.2-1.5l-13.8.7v18.7l17-.2c16.4-.2 17-.1 19.2 2.1 1.9 1.8 2.3 3.4 2.3 8v5.7l6 .7c3.3.4 11.3 1.1 17.8 1.6 14.1 1.1 16.9 2.5 17.8 9 .3 2.3.8 4.4 1.1 4.7s7.2.7 15.4.8l14.9.2-.1-12.7c-.1-6.9-.6-13.4-1.2-14.4-1.4-2.5.4-6 4.2-8.3 2.9-1.8 4.4-1.9 22.4-1.1 18.8.8 21.1 1.3 23.4 4.5.4.5.5 9.3.3 19.5-.8 31.5-.8 99.4 0 101.2.5 1.4 1.9 1.8 5.5 1.8 4.4 0 4.8-.2 5.5-2.8.3-1.5 3-8.8 6-16.2 2.9-7.4 7.7-20.3 10.5-28.5 10.6-30.6 15.1-41.9 18.3-45.3 2-2.2 2.5-2.2 13.4-1.6l11.3.7v-8.2c0-8.9 1.5-13 5.4-15 1.2-.6 10-1.3 19.7-1.5l17.6-.5 2.3 2.4c2 2.1 2.4 3.7 2.6 9.8.1 3.9.3 7.7.3 8.3.2 2.1 8.7 2.6 41.7 2.5l32.3-.1 3.1 2.7 3.1 2.6-.7 17.5-.7 17.4 3.4-.8c1.9-.4 7-.8 11.4-.9 4.8 0 8.9-.5 10.4-1.3 4.5-2.6 4.7-1.1 6 33.3.6 17.6 1.1 35.7 1.1 40.2v8.3h4.8c2.6 0 6.4-.3 8.5-.6l3.7-.7v-17.3c0-22 1.9-57.3 3.1-59.7 1.6-2.8 5.1-1.8 6.1 1.8.4 1.6.3 14.2-.2 28-.6 13.7-1.4 71.3-1.9 128-.6 70.8-1.2 103.9-2 105.8-.6 1.5-1.8 3-2.6 3.3-4 1.6-4 1.1-3.8-66.8 0-35.9.4-70.9.8-77.7l.7-12.4-2.8.8c-6.1 1.6-46.8 2-89.9.8-24.7-.6-51.1-1.3-58.5-1.5l-13.5-.3.1 4.5c.1 2.5.6 9.4 1.3 15.5.6 6 1.8 18.4 2.6 27.5s2.2 23.9 3 33 1.9 21.6 2.4 27.8 1 11.4 1.2 11.6c1.1.8 31.1 7.6 33.7 7.6h3.2v-27.5c0-29.5.3-31.8 5.1-36.2 3.2-2.9 17.1-4.6 32.3-4 15.8.7 16.7 1.5 17 14l.1 6.2h18.2c15.4 0 18.5.3 20.1 1.6 2.7 2.3 3.4 12.9 3 46.3-.2 17.5.1 27.8.7 28.4 1.6 1.5 7.6 3.2 14.6 4.2 8.9 1.3 15.3 4.2 21.3 9.7 6.3 5.8 9 10 11.8 18.3 2.1 6.1 2.2 8.5 2.3 39 .3 74.5-.1 70.3 8.5 87 4.6 9.1 5.4 11.7 7 22.2 1.3 8.7-.1 19.2-3.5 25.7-2.2 4.4-6.7 8.7-12 11.7-1.6.9-2.3 3.2-3.6 12-.9 6-1.5 11.2-1.3 11.5.7 1.3 9.4 2.1 30.4 2.6 18.3.4 23.8.1 37-1.7 15.4-2.1 29.2-5.2 34-7.6 1.4-.6 3.6-2.4 4.9-3.8 2.2-2.3 2.3-2.9 1.3-6.4-.6-2.1-2.4-5-3.9-6.4-5.8-5.5-20-10.9-37.3-14.1-17.9-3.3-17.4-3.5-18.4 5.5-.6 4.9-1.2 6-4.3 8.4-3.4 2.6-3.6 2.6-6.3 1-1.6-.9-3.5-1.6-4.3-1.6-.9 0-2.5-1.2-3.7-2.7l-2.2-2.8.6-112c.3-61.6.8-166.5 1.2-233 .5-94.9.4-123.2-.6-131.3-.7-5.8-1.7-10.5-2.4-10.7-.6-.2-8.5-.8-17.6-1.5-9.1-.6-22.8-1.8-30.5-2.6-7.7-.9-17.6-1.8-22-2-13.9-.9-15.9-4.4-10.2-17.7 4.4-10.3 21.7-63.4 22.4-68.7l.6-4-7.9-.2c-4.4-.2-11.5-.3-15.9-.4-7.8-.2-17.9-.5-56-2-19-.7-31.7-.8-95-.7-18.7.1-41.9-.1-51.5-.4-34.1-.8-74.1-1-122.7-.4m122.7 1.4c33.4.9 84.7 1 85.8.3s50.2 0 66.2 1c9.6.5 40.1 1.6 50.5 1.8 21.3.3 22.5.5 22.5 2.5 0 2.3-5.6 20.9-7 23.3-.5 1-1 2.5-1 3.3s-.4 2.3-.9 3.3c-.5.9-3.2 8.9-6 17.7s-6.5 18.8-8.1 22.2c-3.3 6.9-3.8 11.7-1.5 15 1.6 2.3 4.3 3 13.5 3.7 3 .2 13.2 1.1 22.5 2 9.4.9 23.7 2.2 32 2.9l14.9 1.2 1.1 4c1.3 5 1.3 152.7.1 344l-.8 139 2.2 2.8c1.2 1.5 2.9 2.7 3.9 2.7.9 0 2.7.7 3.9 1.6 4.9 3.4 11.5-1.4 12.6-9.2 1.2-8.2 1.3-8.3 5.4-7.8 28.6 3.8 48.3 12 52.3 21.7 1.2 2.8 1.1 3.2-2.3 6.3-8 7.3-37.9 12.5-71.3 12.3-19.3 0-32.2-1.5-31.9-3.5.1-.5.7-4.9 1.4-9.9 1.1-8.6 2.2-11.5 4.2-11.5.6 0 2.8-1.4 5.1-3.2 12.6-10 13.6-36.7 2.2-58.8-8-15.5-7.7-11.4-8-84.5-.1-33-.1-33-2.8-41-3.1-9.4-4.5-11.5-11.2-17.7-5.8-5.3-13-8.4-23-9.8-3.8-.6-8.5-1.8-10.4-2.8l-3.4-1.7-.1-35.5c-.1-19.5-.5-36.3-1-37.2-1.3-2.9-4.4-3.3-22.6-3.3h-17.5l-.1-6.3c-.4-13.2-1-13.6-21.7-13.7-25.2 0-31.3 1.8-33.7 10.3-.5 2.1-1 15.3-1 30.4V584h-2.7c-1.4 0-9.3-1.6-17.4-3.6l-14.9-3.7-.4-3.1c-.3-1.7-.8-6.9-1.1-11.6s-1.2-15.7-2-24.5c-.9-8.8-2.2-23.4-3-32.5-1.6-17.7-3.1-33.2-4.1-41.8l-.7-5.3 12.9.6c54.7 2.7 141.4 3.3 148.3 1.1l2.3-.8-.7 11.3c-1.1 18.3-1.2 143.8-.1 144.9 1.4 1.4 5.2 1.2 6.3-.2.6-.7 1.3-2.4 1.7-3.8s1.1-48.9 1.6-105.5c.5-56.7 1.4-114.3 1.9-128 .6-13.8.7-26.6.3-28.5-.7-3-1.2-3.5-3.9-3.8-2.2-.2-3.4.2-4.1 1.5-1.3 2.3-3.2 38.8-3.2 60.3v16.7l-3.1.7c-1.7.3-5.1.6-7.5.6H809l-.1-12.8c-.1-7-.6-25.3-1.2-40.6-1.3-30.7-1.4-30.9-7.2-28.5-1.6.7-6.6 1.3-11 1.4s-9.1.5-10.4.9l-2.4.8.7-17.3.8-17.4-2.7-2.5-2.7-2.5-33.1-.2c-32.1-.2-41.6-.7-41.8-2.1 0-.4-.2-4-.3-8-.2-5.5-.7-7.9-2.3-10l-2-2.7-18.9.3c-10.7.1-19.8.7-21 1.3-3.9 2-5.4 6.1-5.4 14.9v8.3l-11.1-.7c-10.6-.7-11.3-.6-13.5 1.5-1.3 1.2-3.1 4.5-4 7.3s-2.3 6-3 7.1-2.9 6.9-4.8 13c-2 6-4 11.9-4.5 13s-2.3 6.3-4.1 11.5c-1.7 5.2-3.8 10.8-4.5 12.5-2.8 6.4-6.3 15.3-8.6 21.7-2.3 6.8-2.3 6.8-6 6.8-2.6 0-3.9-.5-4.4-1.8-.8-1.8-.8-68.4 0-100.7.3-10.5.1-19.5-.3-20.1-1.8-2.8-6.2-3.6-25-4.4-18.6-.8-19.9-.7-22.9 1.1-3.8 2.3-5.4 6.4-4.1 9.9.6 1.4 1.1 7.7 1.1 14l.2 11.5-4 .3c-2.2.2-8.6.1-14.3-.3-9.7-.7-10.2-.8-10.7-3.1-.3-1.3-.7-3.5-1-4.9-.9-4.4-4.4-5.6-18.2-6.7-7.1-.5-15-1.3-17.8-1.6l-5-.7v-5.8c-.1-4-.6-6.2-1.8-7.4-2.3-2.3-12.1-3.4-25.4-2.6l-11.3.6v-17.1l12.8-.7c16.5-.8 133.4.2 170.2 1.5 15.7.6 35.9.8 45 .5 9.1-.4 49.1-.8 89-1.1 43.1-.3 73.1-.9 74.2-1.5 2.1-1.1 2.4-5.2.6-6.7-1.1-.8-272.3-2.4-367.3-2.1-25.5.1-25.1.2-24.7-5.9.2-2.6.8-5.2 1.3-5.7 1.7-1.8 116.2-2.6 171.9-1.2"/><path d="M851 348.9c-.7 1.3-1 39.4-.9 115.8.1 62.6 0 124.1-.1 136.8-.2 22.2-.1 23.1 2 25.2 2.7 2.9 5.6 2.9 7.2 0 1.4-2.4 1.5-12.7.9-163.2-.2-44 0-87.1.4-95.7.7-13.8.6-16-.9-18.3-2.1-3.1-7-3.5-8.6-.6m7.5 1.1c1.6 1.8 1.7 3.3 1 17.7-.4 8.7-.6 51.8-.4 95.8.6 153.7.5 160.8-1 162.7-1.8 2.3-2.6 2.3-5.1-.5-2.1-2.1-2.2-3-2-24.7.1-12.4.2-73.8.1-136.4-.1-82.6.2-114.3 1-115.3 1.6-1.9 4.3-1.6 6.4.7m-320.8-7.8c.3 32.1.6 58.4.7 58.5.6.6 30.1 2.2 30.7 1.6.4-.4.9-27 1.1-59.1l.3-58.2-2.5-.1c-1.4-.1-8.9-.3-16.7-.5l-14.1-.4zm29.8-56.3c2 .1 2 .7 1.7 57.8-.2 31.8-.5 57.9-.6 58.1-.3.3-28.9-1.8-29.2-2.1-.1-.1-.4-26-.7-57.5l-.5-57.2 13.6.4c7.6.2 14.6.5 15.7.5m92.8 7.5c-2.3 1-3.3 2.2-3.4 3.8-.4 7.6.3 112.6.7 118.8.3 4.1 1 7.9 1.5 8.5.5.5 7.3.9 15.2 1h14.2l.3-65.4c.2-41.2-.1-65.8-.7-66.4-.5-.5-6.3-1.2-12.8-1.4-9-.3-12.6 0-15 1.1m26.7 1.2c.7.7 1 22.9.8 65.5l-.3 64.4h-13.2c-7.5 0-13.6-.4-14.2-1-.5-.6-1.2-4.2-1.5-8-.4-5.7-1.1-111.9-.7-117.7.2-3.6 4.9-4.9 16.9-4.5 6.2.2 11.7.8 12.2 1.3M456.5 306c-.5.8-1.9 62.4-2 85.5v8l16.5.7c9 .5 16.7.5 17.2 0 .4-.4.9-21 1-45.7.2-35.3 0-45.5-1-47.3-1.2-2.1-1.8-2.2-16.2-2.2-8.5 0-15.1.4-15.5 1m30.7 2.2c1 1.8 1.2 11.9 1 46.3-.2 24.2-.6 44.3-1 44.7s-7.7.4-16.2 0l-15.5-.7v-8c.1-24.4 1.5-82.7 2-83.5.4-.6 6.5-1 14.5-1 13.4 0 14 .1 15.2 2.2m264.3 6.4c-2.7.2-6.9.6-9.2 1l-4.3.5v109.8l4.3.6c2.3.3 9.2.5 15.2.3l11-.3v-55.2c0-30.3-.3-55.5-.8-55.9-.8-.9-9.2-1.3-16.2-.8M766 316c1.3.8 1.5 8 1.5 55.2v54.3l-11 .3c-6 .2-12.5 0-14.2-.3l-3.3-.6V317.1l3.3-.6c3-.5 9-.9 18.2-1.3 2.2-.1 4.7.3 5.5.8m-64.5.1c-2.1.5-4.2 1.4-4.5 1.8-.3.5-.5 24.9-.5 54.3v53.3l16.4.3c10.4.1 16.7-.1 17.1-.8 1.4-2.2 1.8-96.3.5-105.8l-.6-4.2-12.2.1c-6.7.1-14 .5-16.2 1m28.1 3.1c.6 2.7.7 58.6 0 96.8l-.1 8.5h-32v-52.8c0-30.8.4-53.1.9-53.5 2.3-1.4 8-2 18.8-2.1l11.6-.1zm-102-.6c-.9.8-1.6 2.1-1.6 2.8 0 .8-1.6 4.9-3.6 9.2-3.3 7.3-6.2 15-10.4 27.4-1 3-3.7 10.7-6 17-7.3 20.1-10 28-10 28.9 0 .8 4 1.7 16.2 3.6 3.5.5 3.9.3 5.8-2.7 4.5-7.3 11.3-23.6 19.5-46.8 1.9-5.2 5.4-14.5 7.9-20.7 5.4-13.1 5.9-17.9 2-19.3-4.3-1.7-18-1.3-19.8.6m19.5.4c3 1.7 2.3 6-3 18.8-2.6 6.4-6.1 15.3-7.6 19.7-4.9 14.2-15.1 38.9-18.2 44-2.8 4.8-3.1 5-6.9 4.7-4.1-.3-14.4-2.2-14.4-2.6 0-.1 1.8-5.4 4.1-11.7 2.2-6.3 7-19.7 10.6-29.9 3.5-10.2 8.5-23.1 10.9-28.7s4.4-10.6 4.4-11.2c0-.5.7-1.7 1.6-2.5 1.8-1.9 15.3-2.3 18.5-.6m-142.3 2c-3.1.3-6.2 1-6.8 1.6-1.2 1.2-3.3 76.4-2.2 77.6.8.7 34.9 1.5 35.6.8.8-.9-1.1-78.1-2-78.9-1.2-1.1-17.2-1.8-24.6-1.1m23.6 2.1c1 .9 2.8 75.9 1.9 76.9-.6.7-32.7-.1-33.5-.8-1.2-1.2 1-74.2 2.2-75.7.7-.8 3.5-1.5 6.3-1.7 8-.5 22.1.3 23.1 1.3m356.6 177c0 88.6-.2 161.4-.4 161.8-.3.4-.6 36.9-.7 81.1l-.1 80.4 2.8.8c1.6.4 3.2.4 3.6 0s1-52.5 1.3-115.7c.3-63.3 1-155.5 1.6-205 1-91.1.7-159.5-.6-162.8-.5-1.1-1.8-1.7-4.1-1.7H885zm6.6-158.9c1.3 2.1 1.5 69.9.5 162.8-.6 49.8-1.3 141.8-1.6 204.4-.3 62.7-.8 114.3-1.1 114.7-.2.5-1.4.5-2.5 0l-2.1-.7.1-79.9c.1-43.9.4-80.2.7-80.6.2-.4.4-73 .4-161.3V340h2.4c1.4 0 2.8.5 3.2 1.2m-244.4 8.5c-.5 1-1.5 3.6-2.2 5.8s-5.8 15-11.3 28.5c-5.4 13.5-10 25.3-10.1 26.3-.1 1.4 1.3 2.4 5 3.8 2.9 1.1 7.2 3.7 9.7 5.9 4.5 4 8.8 5.2 10.3 2.8 1.1-1.7 1.4-73.7.4-74.3-.5-.3-1.3.2-1.8 1.2m1.4 35.1c-.1 19.7-.6 36.4-1 37-1.3 2.1-3.7 1.3-7.8-2.3-3.6-3.3-5.6-4.4-13-7.4L624 411l1.6-3.7c.9-2.1 2-4.7 2.4-5.8s2-4.8 3.4-8.1c1.4-3.4 2.6-6.5 2.6-6.9s.6-2.1 1.4-3.8c4.9-11.4 10.4-25.7 12.1-31.5.3-1.2.8-2.2 1-2.2s.2 16.1.1 35.8m127.4 5.1v37l9.3.3c5 .2 10.6.1 12.3 0l3.2-.4-.4-12.1c-.2-6.7-.7-23.3-1-37l-.6-24.7H776zm22.4-12.2c.3 13.1.7 29.3.9 36l.3 12.1-2.6.4c-1.4.2-6.4.2-11.2 0l-8.8-.3V354h20.8zM250 409.1c-24.8.9-57.2 3-92 5.8-26.9 2.2-32.9 3.6-51 12.5C89.6 436 84.6 440 77.5 451c-5.7 8.7-9.2 19.2-13.6 40-2 9.8-2.2 12.9-2 44 .1 22.2.7 38.4 1.7 48 .9 8 1.9 18.9 2.4 24.4.4 5.4 1.2 10.2 1.7 10.6.4.5 7.6 1 15.8 1.3 16.6.5 26.9 2.9 36.9 8.5 2.8 1.6 6.5 3.2 8.1 3.6 1.7.4 5 1.8 7.5 3 7.9 4.1 8.6 4.1 13.8.4 2.6-1.9 8.6-5.5 13.5-8.2 4.8-2.6 8.7-5.3 8.7-5.9 0-.7-1.8-5-4.1-9.5l-4.1-8.2-4.1.6c-2.3.4-7.3 1.8-11.2 3.1-3.8 1.4-7.7 2.7-8.6 3-.8.2-2.6-.4-3.9-1.5l-2.4-1.9 2.9-1.9c1.5-1 7.3-3.3 12.9-5l10.1-3-.1-5c0-2.7-.6-9.4-1.3-14.9-1.2-10.1-1-12.4 1.9-28.6 1.4-7.2.7-11.3-4.6-30.9-3.4-12.5-4-23.9-2-36.1 1.8-10.8 5.4-18.6 9.1-19.5 6.8-1.7 32.1 11.7 52.9 28.1 7.7 6.1 7.5 6.1 18.6 1.4 11-4.6 18.5-6.1 35.2-6.8 8.6-.3 15.9-.9 16.1-1.1.2-.3 2.7-4.2 5.5-8.7 6.8-11.1 18.2-26.2 22.6-30.1 3.9-3.4 5.6-3.8 8.6-2.2 2.4 1.3 10.9 12.6 12.7 17 .8 1.9 2.4 5.5 3.5 7.8 1.9 4.4 3.8 12.8 5.6 25.4.9 5.7 2.2 8.7 8 18.5 3.8 6.5 8.4 15.2 10.2 19.3 4.9 11 4.4 10.7 13.7 7.5 17.6-6.1 33.2-9 34.8-6.4 1.2 1.8-2.5 4.7-6.8 5.4-4.6.8-28.3 7-32.3 8.5-2.2.9-2.5 1.5-2.2 5.2l.3 4.3 6-.3c3.3-.2 8.7-.7 12-1.3 8.2-1.2 26.2-1.2 27 .1 1.5 2.4-1.6 3.7-8.7 3.8-7.5.1-21.1 1.6-30.6 3.4-5.7 1-7.5 3-7 7.6l.3 2.7 10-.1c5.5-.1 17.4-1.1 26.5-2.3 22.1-2.8 46.9-4.1 77.3-4.1 31.7 0 47.1 1.7 68.7 7.3 5.2 1.4 12.2 3.1 15.5 3.7 13.3 2.6 38.8 12 54.5 20.2 16 8.3 21.1 12 34.3 24.8 4.2 4.2 8.1 7.3 8.5 7 1.5-1-.5-44-3.7-79.5-.6-6.1-1.7-20-2.6-31-3.8-49.3-6.7-63.9-16-78.6-6.9-11-12.7-15.7-24.6-19.8-19.5-6.9-31.2-7.8-109.4-9.1-69.5-1-228-1-257.5.1m313 1.9c26.1 1.6 36.5 2.9 45.8 5.6 17.2 5 23.4 9.4 31.7 22.5 9.6 15.1 12.2 27.7 16 77.4.9 11 2 24.7 2.5 30.5s1.2 14.3 1.5 19 1 12.8 1.5 18c.6 5.2 1.1 16.8 1.3 25.6l.2 16.2-7.5-7.2c-13.3-12.6-18.2-16.2-33-23.9s-43.2-18.1-56.5-20.7c-3.3-.6-10.3-2.3-15.5-3.7-21.6-5.6-37-7.3-68.7-7.3-30.4 0-55.1 1.3-77.3 4.1-9.1 1.2-20.8 2.2-26 2.3l-9.5.1-.3-2.7c-.4-3.4 2.6-5.4 9.3-6.3 2.8-.3 8.4-1 12.5-1.6 4.1-.5 11.1-1.1 15.4-1.2 8.3-.2 10.7-1.5 9.3-5.1-.5-1.3-2.4-1.6-11.4-1.6-5.9 0-13.3.4-16.4.9-3 .5-8.2 1.1-11.5 1.2l-5.9.3-.3-3.1c-.2-2.3.2-3.5 1.5-4.1 2.1-1.2 26-7.7 31.8-8.7 5.6-.9 8.7-3.1 8.3-5.8-.2-1.8-1.1-2.3-4.6-2.5-4.8-.4-22.1 3.7-32.1 7.4-7.7 2.9-7.4 3.1-12.6-8.6-2.1-4.7-4.6-9.7-5.6-11.2-1.1-1.4-1.9-2.8-1.9-3.1s-2.2-4.2-4.9-8.7c-3.9-6.3-5.1-9.4-5.6-13.8-1.6-15.3-6.5-30.8-12.7-39.9-8.1-11.9-12.8-13.9-19.4-8.1-4.4 3.9-15.8 19-22.6 30.1-2.8 4.5-5.5 8.5-6 8.8s-7.8.9-16.1 1.2c-16.3.6-22.6 1.9-37 7.7l-7.8 3.1-3.3-2.8c-21.2-17.9-48.9-32.7-57.7-30.8-4.2.9-7.5 7.9-9.5 20.2-2 12.4-1.4 23.7 2 36.3 5.3 19.6 6 23.7 4.6 30.9-2.9 15.8-3.1 19.2-2 28.4 2.5 20.2 2.5 18.5-.1 19.6-1.3.6-6.3 2.2-11.1 3.6-10.3 3.1-13.9 5.5-12.2 8.2 2.2 3.6 5.7 3.8 12.5.9 11.2-4.6 18.9-5.1 18.9-1.2 0 .6 1.4 3.8 3 7 1.7 3.2 3 6 3 6.2s-3.9 2.4-8.7 5c-4.9 2.7-10.9 6.3-13.5 8.1l-4.7 3.4-4.8-2.4c-2.6-1.4-5.9-2.8-7.3-3.2s-5.6-2.2-9.5-4.1c-13.2-6.4-22.4-8.6-38.5-9.1-8-.3-14.9-.9-15.4-1.4-.5-.4-1.3-5-1.7-10.1S65.5 591 64.6 583c-1-9.6-1.6-25.8-1.7-48-.2-31.1 0-34.2 2-44 4.4-20.7 7.4-29.6 13.5-38.9 7.3-11.3 12.3-15.2 31.1-24.4 13.9-6.9 18.2-8.4 28.5-9.8 16-2.2 75.6-6.4 112-7.9 29.1-1.2 291.9-.4 313 1m106.3 21.8c-14.5.2-19.3.5-19.2 1.5 0 .6 1.5 4.1 3.2 7.7 2.8 5.7 3.6 6.5 6.2 6.7 1.7.1 8.2.6 14.5 1.3 16.5 1.6 133.3 2.2 143.3.7l7.7-1.1v-7.8c0-7.7-.4-8.5-3.5-7.8-.5.1-27.1.1-59 0-52.3-.1-67.3-.3-72.4-1.2-.9-.2-10.3-.2-20.8 0m28.8 1.7c7.6.5 121.7.8 123.9.3 1.2-.2 1.6 1.1 1.8 6.8l.3 7-7.3 1.2c-5.1.8-25.9 1-69.3.7-53.2-.4-69.4-.9-87-2.9-2.6-.2-3.5-1.2-6.2-6.7-1.8-3.5-3.3-6.5-3.3-6.6 0-.4 37.3-.9 39.1-.5.9.1 4.5.5 8 .7"/><path d="M314.3 454.7c-5.4 5.8-13.1 16.1-16.8 22.3-10.1 17.1-12.1 19.4-15 17-1.7-1.4-17.4-1.4-29.1 0-9 1.1-15.4 3.3-24.3 8.1-3 1.6-6.2 2.9-7 2.9-.9 0-5.7-3.7-10.7-8.3-5-4.5-11.5-9.5-14.5-11.1s-6.7-3.9-8.4-5.1c-4.9-3.6-15-8.5-18.7-9.1-4-.7-4.9.2-7.3 6.6-2.2 5.9-3 23.5-1.6 32.8.6 4.1 2.7 12.1 4.6 18 4 12.2 4.3 16.6 1.5 24.7-2.5 7.3-2.6 21.6-.1 32.5l1.6 7.5 3.5-.3c5.3-.5 32.1-5.9 35.4-7.2 3.3-1.2 5.2-.1 4.3 2.4-.7 1.8-13.6 5.7-26.9 8.1-13.4 2.4-13.6 2.5-10.4 10.5 1.5 3.6 3.4 7.5 4.4 8.8l1.8 2.3 9.9-3.6c17.5-6.3 26.3-8.8 28.2-8 1.6.6 1.6.8-.6 2.3-1.4 1-6.3 3.2-11 5s-10.4 4.1-12.6 5.1-5 2.2-6.2 2.5c-1.3.4-2.3 1.5-2.3 2.5 0 2.9 4.9 6.6 16 12.2 7.9 3.9 12 5.4 16.5 5.8 5.9.6 6 .7 6 3.6 0 3 0 3-5 2.5-2.7-.2-8.3-.5-12.4-.5h-7.4l-1.4 5c-.7 2.7-1.6 6.7-2 8.7-.5 3.5-.4 3.8 1.7 3.8 3.9 0 14.1 11.5 18.7 21.1 3.5 7.1 4.5 10.8 6.6 23.9 1.4 8.5 2.9 18.8 3.3 22.8.5 5.2 1.1 7.5 2.3 8.1 4 2 15.2 3.1 34.6 3.2 19.6 0 36.5 1.4 46 3.7 5.2 1.2 12.7 4.7 19 8.7 5.9 3.7 12.7 6.5 15.8 6.5s6.7-2.7 6.7-5.1c0-1.4.7-1.9 2.6-1.9 1.6 0 4.5-1.5 7-3.6 3.8-3.1 4.4-4 4.4-7.5 0-5.7-3.5-12.4-9.9-18.6-10.1-9.8-23-13.8-49.6-15.4-39.7-2.2-38.4-2-35.9-6.7l1.3-2.6 20.3.3c11.2.2 20.5.4 20.8.6s4.4.9 9 1.5c10.1 1.3 22 4.5 27.5 7.3 6.7 3.3 14 9.7 19.1 16.4l4.9 6.5 6.5-.6c3.6-.3 15.3-1.1 26-1.6 31.4-1.8 30.3-1.4 27.6-8.3-3.2-8.4-21.7-25.7-34.2-32-5.8-2.9-7.7-4.9-7.2-7.4.7-4 5-2.6 17.3 5.6 16.9 11.2 25.2 19.5 30.4 30.2 2.2 4.7 4.1 9.6 4.2 11 .3 8.1 6.9 17.7 6.9 9.9 0-4.1 2.7-10.3 4.1-9.5.7.5 1 3.2.7 7.4l-.3 6.6 3.2.3c4.7.5 6.9-1.2 8.4-6.3 1.7-5.7 2.9-5.8 2.9 0 0 4.1.2 4.5 2.4 4.5 3.7 0 7.6-4.3 7.6-8.5 0-3.8 1.5-4.7 2.5-1.5.9 2.8 3.4 2.5 4.5-.6 2.7-7 .4-20.4-5.8-33.2-4.7-9.8-16.4-22.2-29.9-31.8-5.2-3.7-9.7-7.4-10.1-8.2-.7-1.9 1.1-4.7 3.1-4.7.8 0 7.9 4.9 15.6 10.9 17.9 13.8 27.3 25.1 31.5 37.8 2.3 6.8 3.9 19.8 3.2 25.9l-.7 5.6 3.2.7c1.7.3 10.2.3 18.9-.1 10.3-.4 18.4-.2 23.2.5 13.9 2.2 32.4 4.2 48.3 5.2 8.8.6 20.3 1.3 25.5 1.6 5.2.4 10.1 1.1 10.8 1.7.8.6 3.9 4.3 7.1 8.2s9.5 11.7 14.2 17.3c4.6 5.6 9.9 12.4 11.7 15 4.6 6.6 11.9 14.2 13.8 14.2 1.3 0 1.5-1.1 1.2-6.2-.2-5.1 0-6.3 1.2-6.3 1 0 2 2.1 3.1 6.5l1.5 6.5 4.5-.4c2.4-.1 4.6-.5 4.8-.7s-.1-2.5-.6-5.1c-.6-2.7-.9-5-.7-5.2.2-.3 1.9 1 3.7 2.7 5.5 5.4 7.7 4.1 7.7-4.5 0-5.9-4.1-13.7-12.9-24.2-4-4.9-7.9-11.1-10.1-15.8-5.5-12.5-8.2-16.6-12.2-18.6-2.1-1-4-2.7-4.3-3.7-.7-2.2-4.2-3.3-16.5-5-4.7-.6-10.5-1.5-13-2s-7-1.2-10-1.6c-8-.9-22.8-4-28-5.8-13.1-4.8-27.3-11.7-36.8-18.1-11.5-7.6-16.7-13.3-25.3-28-2.3-3.9-5.6-9.3-7.4-12-6.1-9.4-6.4-10.4-2.6-12.5 1.9-1 2.3-.5 15.7 19.9 9.2 14 11.2 16.6 16.6 21.9 13.4 13 43.5 24.4 71.8 27.2 17.2 1.7 24.8 2.8 26.7 3.8 1 .6 4.8 1.8 8.3 2.7 9.3 2.4 14.8 6.3 23.1 16.7 17.9 22.1 24 29 35.2 40 12.6 12.3 21.4 18.2 26.5 17.6 2.3-.3 2.7-.8 3-4.1.2-2.1-.2-4.4-.8-5.2-.7-.8-.7-1.5-.1-1.9.5-.3 1.9 1 3.1 2.9s2.5 3.5 2.8 3.4c3-.3 4.7-2.1 6.2-7 1.5-5.1 1.5-6 .2-10.5-1.9-6-4.7-9.9-18.7-25.7-6-6.8-13-14.9-15.5-18.1-2.5-3.1-7.5-9.1-11.2-13.3s-8.2-10.3-10-13.5-6.1-10.4-9.5-15.9c-3.5-5.5-6.3-10.2-6.3-10.5s-3-4.9-6.7-10.2c-25.3-36.5-37.6-47.8-68.3-62.9-13.2-6.4-15.1-7.1-33.8-11.8-9.8-2.5-21.1-5.4-25.2-6.5-4.1-1.2-13.6-2.5-21-3.1-7.4-.5-18-1.7-23.5-2.6-14.9-2.3-64-1-102 2.8-28 2.7-37.5 4.2-37.9 5.8-.2.9-1.2 5-2.1 9.1-3.1 13.5-10.6 24.6-24 35.7-9.8 8.1-11.7 9.4-22.5 14-11.7 5.1-14.3 5.9-24.8 7.4-8.8 1.2-9.8.9-10.4-3.1-.3-2.3.1-2.5 8.2-4.1 9.3-1.8 29.1-8.1 32.9-10.6 5.9-3.8 19.8-15.9 21.5-18.7 1-1.7 2.9-4.4 4.2-5.9 4.6-5.5 9.7-20.1 10.8-31.2.4-3.3.9-7.3 1.3-8.9l.5-2.9-6 .7c-5.4.6-6.2.5-7.2-1.3-1.3-2.5.4-3.6 6.9-4.4 5.5-.7 6.6-1.7 5.4-5.4-.6-1.9-1.8-2.9-3.4-3.1-2.4-.4-5.9-2.9-5.9-4.3 0-.4 1.4-1.2 3-1.8 2.7-.9 3-1.3 2.4-3.8-1.4-5.5-6.3-15-12.6-24.2-3.4-5.2-6.8-10.3-7.4-11.3s-1.4-6.3-1.8-11.8c-.9-13.2-6.4-29.4-12.6-37.3-2.7-3.4-4.4-3.4-7.7 0m7.9 2.9c1.5 2.1 4.5 8.4 6.7 13.9 3.3 8.4 4.1 11.9 4.9 21.8.8 9.5 1.4 12.3 3 14 5.2 5.7 19.2 30.4 19.2 34 0 .2-1.3.7-3 1-1.9.4-3 1.3-3 2.3 0 2.6 3 5.4 5.7 5.4 2.3 0 5.4 4.3 4.1 5.6-.4.3-3.1.9-6.2 1.3-6.9.9-8 1.9-6.6 5.5 1 2.7 1.1 2.8 7.1 2.1 5.6-.7 6.1-.6 5.6 1.1-.3 1.1-.9 4.8-1.2 8.4-1.2 11.3-6.5 26.1-11.4 31.4-1 1.2-2.7 3.5-3.7 5.2-1.5 2.5-10.5 10.4-21 18.6-1.3.9-16.1 6.5-21.4 8-1.9.5-7.3 1.8-12 2.7l-8.5 1.8.3 3.4c.2 1.9.8 3.8 1.2 4.3 1 1 15.4-.7 22.5-2.6 5.4-1.4 22.3-8.7 26-11.2 6.5-4.4 17.2-14 21.7-19.3 6.1-7.3 9.7-14.1 11.4-21.6.8-3.4 1.9-7.8 2.4-9.8l1-3.6 12.8-1.6c31.1-3.9 54.3-5.5 87.7-6.3 23.3-.5 29.7-.4 38 1 5.5.9 16.1 2 23.5 2.6 7.4.5 16.9 1.8 21 3 4.1 1.1 14.7 3.8 23.5 6 16.9 4.2 20.9 5.7 34.5 12.3 30.8 15.2 43 26.4 68.3 62.9 3.7 5.3 6.7 9.9 6.7 10.2s2.8 5 6.3 10.5c3.4 5.5 7.7 12.7 9.5 15.9s6.3 9.3 10 13.5 8.7 10.2 11.2 13.3c2.5 3.2 9.5 11.3 15.5 18.1 13.8 15.6 16.4 19.1 18.5 25 1.5 4.3 1.5 5.1 0 9.6-2.2 6.8-4.2 7.7-7 3.2-1.2-1.9-2.8-3.5-3.6-3.5-1.9 0-3 2.8-1.5 4.3.6.6 1.1 2.6 1.1 4.4 0 2.7-.4 3.3-2.1 3.3-4.7 0-13.9-6.4-25.6-17.8-11.2-11-17.3-17.9-35.2-40-8.2-10.2-13.9-14.3-22.1-16.2-3-.7-6.7-1.9-8.2-2.6-2.7-1.4-11.5-2.7-29.3-4.5-27-2.6-57-14.1-70.3-27.1-5.4-5.3-7.4-7.9-16.6-21.9-13.4-20.4-13.9-20.9-16-20.3-5.8 1.7-5.8 4.8.2 13.9 2.1 3.3 5.8 9.1 8.1 13 2.2 3.8 6.5 10.1 9.4 14 8.5 11.3 25.1 21.4 52.7 32 5 1.9 15.7 4.1 27 5.6 4.1.5 9.5 1.4 12 1.9s8.3 1.4 13 2c11.5 1.6 14.5 2.6 15.8 5.5.7 1.4 2 2.5 3 2.5s2.8 1 3.9 2.2c2 2.2 8.2 13.9 11.6 21.8.8 1.9 4.4 7 7.9 11.3 10.8 12.9 15.2 23.4 11.8 28.7-.8 1.2-1.5.9-4.3-1.8-4-3.8-7.2-4.3-6.4-1 2.1 9 2.1 8.8-1.2 8.8-1.7 0-3.4.1-3.8.2-.5.2-1.5-2.6-2.3-6.2-1.4-5.8-1.9-6.5-4-6.5-2.4 0-2.5.2-2.2 6.2.1 3.5-.1 6.3-.5 6.3-1.1-.1-8.4-8.4-12.5-14.2-1.8-2.6-7.1-9.4-11.7-15-4.7-5.6-11-13.4-14.2-17.3s-6.3-7.6-7.1-8.2c-.7-.6-5.6-1.3-10.8-1.6-42.9-2.7-55.3-3.8-74.8-6.9-4.8-.7-13-.9-23.5-.5-8.9.4-17.2.4-18.5.1-2-.6-2.2-1-1.6-5.4.7-5.4-1.1-20.3-3.2-26.8-4.1-12.6-13.6-24-31.9-38.2-7.7-6-15-10.9-16.1-11-2.9 0-4.6 2.3-4.2 5.6.2 2.2 2.3 4.2 9.8 9.5 13.9 9.9 25.6 22.4 30.4 32.4 4.8 10.1 6.6 16.4 6.6 24.1 0 6.8-2.2 11.6-3.4 7.6-.4-1.3-1.6-2.2-2.7-2.2-1.5 0-1.9.7-1.9 3.5 0 2.6-.7 4.3-2.6 6-4.1 3.8-5.4 3.2-5.4-2 0-3.6-.3-4.5-1.8-4.5-1.2 0-2.2 1.4-3.1 4.5-1.4 4.8-3.8 6.8-7.4 6.3-2.1-.3-2.2-.7-1.8-7 .2-5.6 0-6.9-1.4-7.4-2.4-1-3.7.9-5.1 7.3l-1.2 5.8-1.6-3.8c-1-2.1-2.1-6.3-2.7-9.2-2.7-14.9-13.1-27.5-34.4-41.6-10.1-6.7-12.6-7.9-15.5-7.7-3 .3-3.5.7-3.8 3.1-.4 3.6 1 5.3 7.2 8.4 6.9 3.5 20.1 13.9 26.5 20.9 5.2 5.7 10 13.8 8.9 14.9-.8.8-5.7 1.2-27.8 2.4-10.7.6-22.2 1.4-25.5 1.7l-6 .5-4.9-6.4c-4.9-6.5-12.3-13-18.5-16.2-4.9-2.5-19.2-6.2-29.1-7.5-4.6-.6-8.7-1.3-9-1.5s-9.9-.5-21.3-.6l-20.8-.4-1.6 3.3c-2.4 5-.8 5.9 11.7 6.7 5.8.3 17.3 1 25.5 1.4 17.6 1.1 28.3 3.1 36.8 7.1 11.1 5.1 21.7 17.9 21.7 25.9 0 2.3-1 3.8-4.4 6.5-2.5 2.1-5.4 3.6-7 3.6-1.9 0-2.6.5-2.6 1.9 0 2.2-3.5 5.1-6.2 5.1-2.1 0-9.5-3.5-15.3-7.2-5.4-3.4-13.1-6.8-18-8-9.3-2.2-27.4-3.6-47.4-3.7-19.7-.2-29.1-1-33.2-3.2-1.1-.6-1.8-2.8-2.3-7.1-.3-3.5-1.8-13.7-3.3-22.8-2.2-14.4-3.1-17.6-6.7-25-4.6-9.5-14.7-21-18.5-21-2.6 0-2.7-1.6-.2-9.5l1.9-6h6.8c3.8.1 9.4.3 12.4.5l5.5.5v-8l-6-.5c-4.6-.4-8.4-1.8-16.5-5.9-9.5-4.8-16-9.3-16-11.2 0-.3 2.1-1.4 4.8-2.4 2.6-1 5.2-2.2 5.8-2.6.6-.5 3.5-1.8 6.5-2.8 14.6-5.2 17.6-6.9 16.6-9.4-.3-.9-1.5-1.7-2.7-1.7-2.3 0-18.2 4.5-20.9 5.9-1 .6-5 2.1-8.9 3.4l-7.2 2.4-1.5-2.3c-.8-1.3-2.6-4.8-4-7.9l-2.4-5.6 3.2-1.4c1.7-.7 7.3-2 12.2-2.9 8.7-1.5 21.4-4.8 23.5-6.1 1.3-.8 1.3-5.2 0-6-.6-.4-3.4 0-6.3.9-5.3 1.6-27.8 6.2-33.2 6.8-2.8.3-3.1 0-4.3-4.7-.8-2.8-1.6-10-1.9-16-.4-9.4-.2-11.9 1.6-17.4 3.2-9.7 2.7-14.6-2.8-30.2-4.5-12.7-5.5-32.3-2.1-42.9 2.3-7.2 3.5-9 6-9 2 0 11.3 4.7 18.5 9.5 2.8 1.8 7.2 4.5 9.8 5.9 2.7 1.5 8.7 6.3 13.5 10.7 5.5 5 9.5 7.9 11 7.9 1.2 0 6.8-2.2 12.5-4.9 8.3-4 11.9-5.2 18.8-6.1 11.8-1.4 26.7-1.4 28.4 0 3.9 3.2 7.1 0 17.4-17.5 4.9-8.4 18-24.7 19.5-24.2.6.2 2.3 2.1 3.8 4.3"/><path d="M333.7 537.7c-.4.3-.7 2.1-.7 3.9 0 3-.4 3.4-3.7 4.3-5.8 1.6-10.2 1.3-13.9-1-1.9-1.1-4.6-1.9-6.1-1.7-2.5.3-2.8.7-2.8 4.3 0 3.7.3 4.1 4.5 6.2 5.3 2.6 12.7 2.9 21.5.8 7-1.7 9.5-4.1 9.5-9.4 0-5.2-5.6-10.2-8.3-7.4m5 2.5c2.7 2.6 3 6.7.6 9.7-2.2 2.6-10.9 5.1-17.8 5-7 0-13.9-3.5-14.3-7.2-.5-3.8 2-4.4 7.5-1.7 3.6 1.8 5.6 2.1 9.8 1.7 7.2-.7 9.5-2.1 9.5-5.6 0-4.6 1.3-5.1 4.7-1.9m-83 7.5c-.4.3-.7 1.9-.7 3.4 0 1.9.6 2.8 2.1 3.2 5.9 1.6-3.4 9.5-12.3 10.4-4.9.5-6.2.2-11.6-2.7-3.3-1.8-6.5-2.9-7.1-2.5-.6.3-1.1 2.4-1.1 4.5 0 3.8.3 4.1 5.3 6.7 7.3 3.7 19.1 4.4 25.9 1.4 6.5-2.8 10.8-8.8 10.8-15.1 0-6.2-2.8-10-7.4-10-1.8 0-3.6.3-3.9.7m8.2 2.9c3.1 3.9 2.7 9.2-.9 14.3-6.2 8.5-19.1 10.7-30.7 5.1-5.6-2.6-6.3-3.2-6.3-5.8 0-1.6.2-3.1.5-3.4s3.1.8 6.1 2.4c8.2 4.1 17.2 3.4 24.2-1.8 3.8-2.9 4.4-7.3 1.2-8.1-1.9-.5-2.7-3.3-1.3-4.6 1.5-1.6 5.3-.5 7.2 1.9m34.1 19.9c-.7.8-1.8 1.5-2.5 1.5-2.5 0-7.6 5.2-7.3 7.3.4 2.8 6.3 6.7 9.9 6.7 3.5 0 3.6.6.8 3.6-1.2 1.3-2.1 3.4-2.1 4.9 0 1.6-1.2 3.6-3.5 5.5-4.1 3.6-9.2 4-14 1-1.8-1-4.5-2-6-2.2-2.4-.3-2.8.1-3.1 2.3-.3 2.8 1.6 4.6 8.2 7.9 6 3.1 15.5 1.1 21.2-4.2l3.2-3 4.1 2.8c3.7 2.4 4.7 2.6 9.9 2.1 5-.5 6.1-1.1 9.5-4.7 2.8-3 3.7-4.8 3.5-6.8-.4-4-3.3-3.9-7.8.2-2.4 2.2-5 3.6-6.6 3.6-3.7 0-8.4-2.7-8.4-4.9 0-1-.3-3.3-.6-5-.6-2.7-.4-3.1 1.6-3.1 2.9 0 8-5.2 8-8.3 0-4-6.6-8.7-12.3-8.7-2.7 0-4.9.6-5.7 1.5m13.1 2.6c2.1 1.7 3.9 3.7 3.9 4.6 0 2.2-5.6 7.3-8.1 7.3-1.9 0-2.1.4-1.5 3.7.3 2.1.6 4.8.6 6 0 2.8 4.5 5.3 9.4 5.3 2.7 0 4.6-.9 7.6-3.7 2.9-2.5 4.4-3.3 5.1-2.6 1.6 1.6.3 4.5-3.5 8.2-4.9 4.7-11.1 5.4-16.6 1.7-5-3.3-5.7-3.3-9.5.3-2.7 2.6-10.6 6.1-13.8 6.1-2.1 0-12-5.5-13.1-7.3-2-3.2.6-3.7 5.9-1.1 7.2 3.4 12.5 3.2 17-.8 2.5-2.1 3.5-3.7 3.2-5-.3-1.1.5-3.1 1.9-4.7 3.2-3.8 3.1-6.1-.1-6.1-3 0-7.6-2.2-9.5-4.5-1.1-1.3-1-1.9.6-3.7 1.1-1.1 3.3-2.7 5.1-3.4 1.7-.8 3.4-1.8 3.8-2.4 1.3-2.2 7.6-1 11.6 2.1m416.4-48.5c-1.1.3-3.9 1.2-6.2 2-3.6 1.3-4.4 2.1-5.2 5.2-.9 3.9-.7 54.5.3 56.1.3.5 2.3 1.2 4.3 1.6 2.1.3 7 1.7 10.8 3 14.4 4.7 21.6 6.7 22.2 6.1.3-.3.7-16.5.7-36 .1-26.5-.2-35.8-1.1-36.7-1.2-1.2-21.8-2.3-25.8-1.3m24.8 2.3c.9.9 1.2 9.3 1.1 35.7 0 18.9-.3 34.6-.6 34.9-.2.2-5.8-1.3-12.4-3.4-6.5-2.1-14.3-4.3-17.2-5-2.8-.7-5.5-1.7-5.8-2.2-1-1.6-1.1-52.2-.2-55 .9-2.5 5-5 10.3-6.3 4.2-1 23.5 0 24.8 1.3m10.5 18.2c-.7.5-1.1 10.3-1.2 28.5l-.1 27.9 14 4.7c7.7 2.6 15.5 4.8 17.3 4.8h3.2l-.1-22.8c-.1-12.5-.4-27.4-.8-33.2l-.6-10.5h-15.3c-8.5 0-15.9.3-16.4.6m31.3 10.4c.4 5.5.7 20 .8 32.2l.1 22.3h-2.5c-1.3 0-4.2-.6-6.2-1.4-2.1-.7-6.4-2.1-9.5-3s-7.8-2.6-10.3-3.7l-4.5-2 .4-26.5c.2-17.2.7-26.8 1.4-27.3.6-.3 7.5-.6 15.4-.6h14.3zm-121.8 32.1c-1.5.7-1.6 9.3-.6 34.9l.6 16.8 5.1 7.5c3.7 5.5 6.5 8.4 10.1 10.6 5 2.9 7.7 3.7 38 11.5 18.7 4.8 25.8 7.1 34 11.1 11.4 5.5 14.8 6.9 15.7 6.4.4-.3.8-8.4.8-18.1v-17.5l3.8-7.5c2.7-5.5 5.4-9.1 10.1-13.4 3.5-3.3 6.9-5.9 7.6-5.9 2.3 0 1.1-3.1-1.4-3.6-5.4-1.2-17.7-4.7-21.1-5.9-11.6-4.4-57.3-17-86.5-23.9-15.3-3.6-14.9-3.5-16.2-3m16.2 4c25.2 5.9 61.4 15.8 80 21.8 7.7 2.4 16.7 5.2 20 6.1s6.6 1.8 7.4 2.1c.9.3.4 1.1-1.5 2.6-7.4 5.5-11.8 10.7-15.5 18.2l-3.9 8v35.5l-9.7-4.5c-12.8-6-17.8-7.8-35.8-12.4-30.2-7.8-34.2-8.9-39.1-11.4-5.5-2.8-7.2-4.4-13.1-13.1l-4.1-6.1-.8-24.1c-.4-13.2-.3-24.6.1-25.3.4-.6 1.7-.9 2.9-.6 1.1.3 7.1 1.8 13.1 3.2m-619 36.5c-2.2.5-5.6 1.6-7.5 2.5-4.8 2.1-13.6 13.3-15.6 19.7-2.8 9.2-3.6 26.7-3 64.2 1 65.2 3 106 5.6 116.5.5 1.9 1.3 5.1 1.8 7 1.4 5.4 4.6 11 9.3 16.3 6 6.9 24.9 21.9 49.4 39.2 7.7 5.5 17.9 13.2 22.6 17.2s9.1 7.3 9.8 7.3c1.4 0 1.4-2.5.1-4.9-.5-1-1.4-7.6-2.1-14.7-.6-7.1-1.5-17.4-2-22.9-2.6-30.3-3.8-64.6-3.8-109.5-.1-50.6.8-68.1 3.6-76.5 2.4-6.9 10.5-19.8 13.4-21.2 5.3-2.7 9-4.2 11.8-4.8 4.1-.9 4.6-3.1 1.1-4.4-1.6-.5-5.5-2.7-8.7-4.9-7.6-5.1-20.9-11.8-25.3-12.7-1.9-.4-4.1-1.1-5-1.6-2.4-1.4-18.1-7.9-22.5-9.4-10.4-3.4-24-4.4-33-2.4m24.1 1.1c3.2.6 10.6 3.1 16.4 5.6 5.8 2.4 13.5 5.4 17.1 6.7 8.5 3 19.8 8.7 27.1 13.6 3.1 2.2 7 4.4 8.5 5 3.2 1.3 3.8.9-7.7 5.2-5.9 2.3-6.9 3.1-10.8 8.8-4.6 7-7.8 14.6-9.4 22.4-.5 2.8-1.2 29-1.4 59.5-.5 53.1.4 83.4 3.6 119.5.4 5.5 1.3 15.7 1.9 22.8.7 7 1.6 13.9 2.2 15.3.5 1.5.8 2.8.7 3-.2.1-3.7-2.7-7.8-6.2-4.1-3.6-13.2-10.5-20.1-15.4-26.7-18.9-46.6-34.6-52.8-41.7-12-13.5-13-19.8-16-97.8-.5-12.1-.7-38.7-.6-59 .3-43.8.5-45.3 9.5-56.5 5.6-7.1 8.8-9.3 15.6-10.9 5.6-1.3 17.2-1.3 24 .1m73.6 1.3c-7.2 3.3-14.2 8.5-14.2 10.6 0 1.6 11.7 9.2 22 14.4 1.9 1 4.6 2.6 5.9 3.6 4.4 3.5 6.4 2.6 8.9-4.4 3.9-10.3 3.9-12.1 0-14.5-1.8-1.1-5.5-4.4-8.3-7.1-2.8-3-5.8-5.1-7-5-1.1 0-4.4 1.1-7.3 2.4m13.3 3.6c2.8 2.7 6.5 5.9 8.3 7 1.7 1.2 3.2 2.5 3.2 3.1 0 2.6-5.4 15.8-6.5 15.8-.7 0-2.3-.8-3.6-1.8s-5.8-3.7-9.9-5.9c-9.5-5-18-10.4-18-11.3 0-1.9 17.3-12 20.5-12 .6 0 3.3 2.3 6 5.1"/><path d="M805.8 629.9c-9.9 2.7-14.3 6.5-19.9 17.1-2.2 4.2-2.4 5.8-2.7 23.2-.2 10.2 0 19.4.5 20.3s4.3 3.1 8.4 4.8c4.1 1.8 10.2 5.2 13.5 7.4 9.1 6.2 26.3 21.2 32.9 28.7 3.2 3.6 6.3 6.6 6.9 6.6 1.1 0 1.2-20.4.2-65.5-.5-25.4-2.5-31.6-12.1-37.9-9-5.9-17.5-7.4-27.7-4.7m22 2.9c7.3 3.5 11.6 8.1 14.3 14.9 2.4 6.2 2.5 8.4 3.2 67.6l.2 21.8-6-6.7c-6.8-7.6-23.9-22.6-32.4-28.3-3.1-2.1-8.3-5-11.6-6.5-3.3-1.4-7.1-3.2-8.5-3.9l-2.5-1.3V671c0-18.9.1-19.6 2.5-23.5 6.5-10.8 10.2-14 19.4-16.6 7.6-2.2 14.3-1.6 21.4 1.9M165.7 671c-11.1 2.8-18.5 12.1-21.2 26.6-2.2 11.1-2.1 106.6 0 138.4 2.5 37.4 3.5 49.2 4.5 56.5.5 3.8 1.4 10.5 1.9 14.7 2.3 18 3.3 18.8 27.1 22.9 6.4 1.1 35.9.6 39.2-.6 1.2-.5 1.6-3.7 2.3-16.3.7-15.1 1.6-77.8 1.6-114.4 0-20.5-2.8-73.7-4.2-78.8-.5-1.9-.9-5-.9-6.7 0-4.7-4.5-19.7-8.1-27-3.5-7.3-8.5-11.8-15.4-13.9-6.2-1.8-21.7-2.7-26.8-1.4m25.5 2c5.9 1.7 11.8 6.9 15.4 13.5 3.7 6.7 8.4 21.7 8.4 26.8 0 1.7.4 4.8.9 6.7 1.4 5.1 4.2 58.2 4.2 78.8 0 32.2-1.2 106.5-1.9 118.2l-.7 11.5-6.5.6c-9.5 1-28.8.9-34-.1-16.4-3-21.2-5.2-23-10.6-.6-1.7-1.5-6.7-2.1-11-.5-4.4-1.4-11.1-1.9-14.9-1-7.3-2-19.1-4.5-56.5-2-29.5-2.1-128.1-.2-138.1 2.6-13.1 10.9-23.3 21.2-26 3.8-1 19.8-.3 24.7 1.1m503.8-2.1c0 2.4 11.5 21.9 17.9 30.5 7.8 10.4 8.6 11 14.6 12 5.3 1 29.9 9.5 40.2 13.9 18.7 8.1 38.4 26 49.3 44.7 6 10.3 16 30.6 16 32.5 0 3.6 5.2 16.2 7.6 18.2 5 4.5 8.3 2.5 8.4-4.9 0-5.4 3.5-4 4.2 1.7.5 4.6 3.7 4 6.5-1.3 4.3-8.1 4.8-20.5 1.3-32-.6-2-5.2-11.9-10.2-21.8l-9-18.1-14.1-14.2c-16.7-16.6-23.1-21.6-35.2-27.5-37.6-18.2-48.4-22.8-61.5-26-3.6-.9-12.7-3.2-20.3-5.1-14.9-3.8-15.7-3.9-15.7-2.6m17.5 4.1c25.9 6.2 34.8 9.3 58 20.5 35.7 17.2 35.6 17.1 56.2 37.7l14.2 14.1 9.5 19.1c10.7 21.5 11.8 24.9 11.9 35.7 0 6.4-.5 8.6-2.9 13.5-3.3 6.6-4.8 7.4-5.2 2.7-.6-6.6-6.2-7.1-6.2-.6 0 2.1-.4 4.4-.9 5.2-1 1.6-4.2.8-6.5-1.8-1.9-2.1-6.6-14.4-6.6-17.3 0-2.1-9.5-21.7-16-32.8-10.6-18.3-30.7-36.6-48.3-44.2-10-4.4-27.6-10.5-37.8-13.2-4.8-1.3-9.1-2.6-9.8-3-2.5-1.6-16.6-21.6-20.2-28.8-2.1-4.2-4.3-7.9-4.9-8.3-1.4-.9-1.2-2.8.3-2.3.6.3 7.5 1.9 15.2 3.8"/><path d="M733 724.4c0 1.4 1.7 3.4 18.8 21.8 5.8 6.2 8.3 9.8 8.8 12.2.3 2 1.2 4 1.9 4.6s5.9 1.2 11.6 1.3c8.2.2 11 .7 13.3 2.2 5.5 3.6 5.9 6.1 6.2 39 .4 29.2-.3 45.5-2.7 64-1.9 15.3-2.4 14 5.1 14.3 9 .5 20.3-1.5 27.5-4.7 8.4-3.9 12.9-10.4 16.1-23.8 1.3-5.4 2.7-12.8 3-16.5.7-6.6.7-6.6-2.3-8.2-4.3-2.2-9.2-8.2-12-14.6-1.3-3-2.8-6.3-3.4-7.2-.5-1-.9-2.3-.9-3.1 0-.7-1.1-2.8-2.4-4.8-1.4-2-2.7-5.1-3.1-7.1-.4-1.9-1.7-5.2-3-7.4-1.3-2.1-4.2-7.3-6.5-11.4-6.1-11-11.2-17.3-19.3-24-16.3-13.3-25.6-18.1-50.2-26.1-7.2-2.3-6.5-2.2-6.5-.5m16.5 5c14.3 5 24.1 10.6 38.3 22 8.4 6.7 13.7 13 18.9 22.4 2 3.7 5.1 8.9 6.8 11.7 1.8 2.7 3.6 6.6 4 8.5s1.7 5.3 3 7.5c1.2 2.2 3.7 7.7 5.5 12.2 3.4 8.8 8.3 15.4 13.2 17.9 3 1.6 3.1 1.7 2.5 7.2-2.2 20.9-8.6 34.3-18.7 39.3-6.2 3.1-18.6 5.3-27 4.7-6.3-.3-5.9 1.1-4-13.8 2.3-18.1 3-34.6 2.6-63.5-.4-33.9-.8-36.6-6.6-39.9-2.7-1.6-5.5-2.1-13.3-2.3-5.6-.1-10.5-.7-11.3-1.4-.7-.6-1.6-2.7-2-4.6-.5-2.5-2.9-6-8.7-12.2-14.5-15.7-18.7-20.3-18.7-20.6s4.7 1.2 15.5 4.9m-324.6 9c-.2.3-10.5 1-22.9 1.6s-23.5 1.5-24.7 2-2.4 2.1-2.8 3.8c-.8 3.9-8.2 14-12.7 17.4-6.1 4.7-12.9 7.8-16.9 7.8-2.7 0-7.4-1.9-16.6-6.6-13.6-7-22-10-31.2-10.9-3.1-.4-17.5-.8-32.1-1s-28.4-.6-30.7-1c-6.4-1.1-6.7.2-5.3 20.9.6 9.4 1.1 21.8 1.1 27.6l-.1 10.5 40.3-.2c41.3-.1 54.7-.7 55.7-2.4.4-.5.3-3.9-.2-7.5-.6-5.2-.4-7.3.8-9.8 2.4-4.7 4.5-6.6 7-6.6 1.2 0 4.2-1.5 6.6-3.3 5.4-4.1 9-5.6 16.4-6.8 3.3-.5 10.6-1.6 16.4-2.6 7.1-1.1 17.1-1.7 31-1.7l20.5-.1 6.5 3.6c3.6 2 7.9 4.5 9.7 5.5 3 1.7 3.3 1.8 8.6.1 3-.9 6.5-2.7 7.9-4 8.4-7.7 16.9-12.5 30.8-17 15.6-5.2 20.5-6.1 32-6.1 9.8-.1 10.8.1 15.2 2.7 5.1 3.1 5.6 3.6 24.1 25.4 7 8.3 13.5 15.4 14.3 15.7 2.6 1 29.7-1.5 58.2-5.4 4-.6 9.3-1 11.7-1 5.1 0 5.8-1.5 2.4-4.6-1.2-1-5.2-6-9-10.9-3.8-5-9.5-11.9-12.8-15.5l-5.9-6.5-17.8-.7c-27.7-1.2-41-2.4-51.9-4.6-12.5-2.6-16.2-2.8-41.5-1.8-19.5.8-20.7.9-25 3.4-10.9 6.3-25.1 8.1-33.6 4.3-3.9-1.8-9.4-7.5-9.4-9.9 0-2.6-3.3-4.2-8.4-4.2-2.9 0-5.5.2-5.7.4m13.4 5.1c4 8.6 9.8 11.5 22.8 11.5 8.1 0 10.5-.7 20.9-6 5.2-2.6 6.4-2.8 25.5-3.6 24.8-1 28.7-.8 40.5 1.8 10.7 2.3 23.1 3.4 50 4.4l18.5.6 6.3 6.7c3.4 3.6 8.8 10 11.9 14.1 3.2 4.1 7.3 9.2 9.2 11.2l3.5 3.8h-4.3c-2.3 0-7.2.4-10.9 1-10.9 1.5-41.1 4.8-49.9 5.5l-8.1.5-13.4-15.7c-19.5-23-19.7-23.2-25.2-26.1-4.6-2.4-6.1-2.7-15.6-2.6-5.8 0-13 .6-16 1.3-7.2 1.7-28.5 8.8-32.4 10.8-4.2 2.1-12.9 8.4-13.9 10-.5.8-1.3 1.1-1.9.7-.7-.4-.5-1 .3-1.6 1.1-.8 1.1-.9-.1-.5-.8.2-1.5 1.2-1.5 2.2 0 1.3-1.5 2.5-4.8 3.9l-4.9 2-4.6-2.7c-13.9-8.3-13.6-8.2-36.2-8.1-13.9 0-23.9.6-31 1.7-5.8 1-13.4 2.2-17 2.7-7.2 1.1-11.5 2.9-17.4 7.1-2.1 1.6-4.9 2.9-6.1 2.9-2.6 0-4.9 2.3-6.9 7.2-1.2 2.8-1.4 5.1-.7 10.3.4 3.6.5 6.8.1 7-1.9 1.2-17.4 1.7-53.7 1.8l-40.3.2.1-10c0-5.5-.5-17.8-1.1-27.4-1-14.6-1-17.5.2-18.7 1.1-1.1 3.2-1.2 11.8-.4 5.8.6 20.2 1 32 .9 27.7-.1 31.9.7 50.5 10.1 15.4 7.8 19.4 8.9 25.7 7.1 8.9-2.5 22.4-14.8 24.3-22.1 1.7-6.6 1.9-6.7 19.7-7.5 9-.4 19.7-1.1 23.8-1.5s10-.7 13-.6c5.4.1 5.5.2 7.3 4.1"/><path d="M503.5 761.2c-21.1 4.9-31.4 9.1-41.8 16.9-11.3 8.5-11.2 7.9-3.6 22.7 3.5 6.9 7.4 13.8 8.7 15.3 5.3 6.5 14.3 21.5 21.1 35.4 4 8.2 7.6 15.7 8 16.5 1.3 2.5 3.4 2.2 9.6-1.6 19.2-11.7 24.7-14.4 40.8-19.8 14.9-5.1 18.3-5.8 29-6.7 6.7-.5 12.5-1.3 13-1.8 1.2-1.2-7.9-18.7-14.5-28-8.9-12.3-16.3-21.7-22.7-28.6-3.1-3.4-7.7-8.6-10.3-11.7-8.9-10.5-19.2-12.9-37.3-8.6m26.2 1.5c3.5 1.7 7.1 4.6 10.1 8.2 2.6 3 7.2 8.2 10.3 11.6 12.2 13.2 27.1 33.8 33 45.7 2.4 4.8 4.1 9 3.8 9.3s-5.7.9-12.1 1.4c-10 .9-13.8 1.8-29.4 7-17.4 5.8-25.2 9.5-40.8 19.5-6.7 4.4-6.8 4.3-10.6-4.4-1.3-3-3.2-6.7-4.2-8.2-1-1.4-1.8-3.2-1.8-4s-1.3-3.5-3-6.1c-1.6-2.6-3-5.2-3-5.7 0-1-11.3-18.5-13.7-21.2-1.8-2-12.3-20.8-12.3-22 0-.5-.8-2-1.7-3.5-1.7-2.6-1.7-2.6 2.7-6.6 9.7-8.5 19.1-13.8 31.5-17.5 22.4-6.8 32.8-7.7 41.2-3.5"/><path d="M507 780.4c-11.4 3.4-33.5 14.3-33.5 16.6 0 .7.8 1.8 1.7 2.4 2.1 1.3 4.8.4 19.1-6.3 5.6-2.7 12.9-5.9 16.2-7.2 7.7-3 8.5-3.7 6.1-5.5-2.4-1.7-3.7-1.7-9.6 0m9 .6c1.1.7.6 1.2-2.5 2.5-2.2.8-4.8 2-5.7 2.5-1 .6-2.2 1-2.8 1s-6.8 2.7-13.8 6c-9.4 4.5-13.4 5.9-15.2 5.5-2.5-.7-2.5-.7-.5-2.2 4.6-3.4 26.2-13.5 33-15.3 4.2-1.1 5.8-1.1 7.5 0m9.5 16.7c-10.9 2.5-15.4 4.1-24.7 8.5-11.1 5.2-12.7 7-9.2 9.9 1.3 1 2.1 1 4.7-.3 1.8-.9 5.2-2.5 7.7-3.6s6.2-2.8 8.2-3.7c2.1-1 7.5-3 12-4.5 6.5-2.1 8.3-3.1 8.3-4.6 0-2-2.9-2.7-7-1.7m6 1.8c0 .5-4 2.4-9 4.1-4.9 1.7-13.6 5.1-19.2 7.6-7.3 3.4-10.4 4.3-11.2 3.5-.6-.6-1.1-1.4-1.1-1.7 0-.4 5.3-3.2 11.8-6.3 14.1-6.9 28.7-10.5 28.7-7.2m2.6 15.6c-5.8 1-18.6 6.3-25.1 10.4-2.9 1.8-4 3.2-4 5 0 3.7 2.1 3.2 15-3.2 6.3-3.1 14.2-6.4 17.5-7.3 4.6-1.3 6-2.1 6-3.6 0-2.3-2-2.5-9.4-1.3m8.1 1.4c-.1.6-3.3 1.9-7 3.1-3.7 1.1-11.5 4.5-17.4 7.4-10.4 5.2-13.4 5.8-11.2 2.2 1.7-2.7 21.3-12 27.4-13.1 6.4-1 8.6-.9 8.2.4"/><path d="M694.5 764c-.4.6-.1 1.9.7 2.9 7.3 10 10.8 15.9 10.8 18.6 0 7.4-6.7 16.3-15.7 20.9-7.4 3.7-21.3 1.3-30.8-5.5-2.3-1.6-5.2-3.1-6.6-3.2-5.3-.4-30.4 1.6-47.2 3.9-9.8 1.3-19.2 2.4-20.8 2.4s-3.2.6-3.5 1.4 1.7 5 4.5 9.5c6.9 11 13.1 23.1 13.1 25.7 0 1.2.9 3.3 2 4.7s2 3.2 2 4.1c0 1.8-5 9.4-7.7 11.7-1 .9-8.1 3.1-15.8 4.8-7.7 1.8-19.4 4.9-26 6.8-6.6 2-14.9 4.2-18.5 4.9-3.6.8-7.4 1.6-8.6 1.9-1.1.2-5 3-8.6 6.2s-8.8 6.6-11.5 7.6c-2.6 1-6.3 2.5-8.1 3.3-6.7 2.9-11.7 1.4-15.5-4.9-1.5-2.4-2.4-2.7-7-2.7-2.8 0-9.5.4-14.7 1s-17.1 1.7-26.5 2.6c-9.3.9-19.7 1.9-23 2.3-3.3.5-11.3 1.4-17.8 2.1-16.1 1.9-16.1 1.9-26.7-15.2-4.6-7.3-11.1-17.8-14.7-23.3-6.5-10.3-8.2-13.6-14.9-28.9-2.3-5.3-4.8-9.5-6.2-10.4-2.1-1.4-7.4-1.5-42.1-1.3-40.4.2-55 1-57.5 3-2.2 1.8-2.6 8.2-2.7 46.4 0 19.9-.4 40.9-.8 46.7-.5 7.3-.4 10.9.4 11.7 1.4 1.7 30.2 1.9 58.7.4 19.8-1 34.6-1.7 92.8-4.2 22.8-.9 50.9-3.3 83.5-7 24.2-2.7 36-3.9 84.5-8.4 9.1-.9 25.5-2.5 36.5-3.5 11-1.1 25.2-2.5 31.5-3 6.3-.6 18.5-1.7 27-2.5s27-2.4 41-3.5 28.4-2.5 32-3 18.7-1.8 33.5-3c14.9-1.2 27.9-2.5 29.1-3 1.7-.7 2.2-2.3 3.2-11.1.7-5.7 2-16.3 2.8-23.4 1.2-10 1.5-20.1 1.2-43.4-.5-35.2.2-33.1-10.9-33.1-3.7 0-7.5.3-8.4.6-.9.4-3.1 3.7-5 7.3-5.2 10.4-13.5 17.2-21.2 17.4-4.2.1-5.8-.5-12.8-5.2-7.5-4.9-17-14.3-26.9-26.4-3.9-4.8-5-5.5-6.1-3.7m15 15.9c5.5 6.3 10.6 10.9 16.5 14.8 8 5.3 8.9 5.7 14.3 5.6 3.6-.1 6.7-.7 8.3-1.8 5.8-3.8 10.9-9.3 13.4-14.8 4.1-8.6 4.3-8.7 12.5-8.7 5.5 0 7.6.4 8.6 1.6 1.9 2.3 2.6 56.4 1 70.2-3.5 29-4.5 35.8-5.5 36.8-.6.6-13 2.1-28.6 3.3-15.1 1.2-30.4 2.6-34 3.1s-18 1.9-32 3-32.5 2.7-41 3.5-20.7 1.9-27 2.5c-6.3.5-20.5 1.9-31.5 3-11 1-27.4 2.6-36.5 3.5-48.5 4.5-60.3 5.7-84.5 8.4-32.6 3.7-60.7 6.1-83.5 7-58.2 2.5-73 3.2-92.8 4.2-23.6 1.2-57.3 1.3-58.2.1-.4-.4-.3-5.4.1-11.2s.8-26.9.8-46.9c.1-20.1.4-38.2.8-40.3.3-2.4 1.4-4.4 2.7-5.3 3.1-1.9 15.6-2.5 57.8-2.7 34.7-.2 37.9 0 39.7 1.6 1 .9 4 6.5 6.5 12.4 5.8 13.3 6.6 14.9 14.5 27.5 3.5 5.6 10 16 14.4 23.1 10.2 16.4 10.3 16.4 27.2 14.6 6.6-.7 14.7-1.6 18-2.1 3.3-.4 13.7-1.4 23-2.3 9.4-.9 21.3-2 26.5-2.6 15.8-1.7 18.7-1.5 20.7 1.7 4.4 7.3 8.4 7.8 21.6 3 7.1-2.5 10.3-4.4 15.4-8.9 7.1-6.2 6.8-6.1 16.3-8.2 3.6-.7 11.9-2.9 18.5-4.9 6.6-1.9 18.3-5 26-6.7 7.7-1.8 15-3.9 16.2-4.6 3.2-2 8.3-10.1 8.3-13.3 0-1.6-.7-3.4-1.5-4.1-.8-.6-2.1-3.7-3-6.8-1.6-5.4-7.1-15.8-14.1-26.8-2.4-3.8-3.1-5.5-2.2-5.8 3.2-1 43.4-5.6 53.3-6.1 6.1-.3 12.2-.8 13.6-1.1 1.8-.3 4 .5 7.5 2.9 18.8 12.9 41 9.1 47.4-8.1 2.7-7.2 2.2-11.5-2.1-17.9-1.8-2.6-3.1-4.9-2.9-5 .3 0-.7-1.1-2.2-2.3-1.6-1.2-2.8-2.7-2.8-3.3.1-1.2.7-.6 14.5 15.2"/><path d="M378.7 779.1c-4.8.4-13.7 1.5-19.9 2.5-12 1.9-16.8 4.4-16.8 8.7 0 1.2 3 6.9 6.6 12.7s9 15.2 12 21c11.6 22.2 24.7 42 30.6 46.4 2.6 1.8 3.2 1.9 7.9.7 2.9-.8 7.9-2.6 11.3-4.1 10.7-4.8 32.9-7.2 46.6-5 12.2 1.9 16.3 2.7 20 3.9s10 1.5 10 .5c0-.7-2.7-7-4.1-9.7-.6-1-2.9-5.5-5.1-10-2.3-4.5-5.9-10.8-8-13.9s-4.2-6.7-4.7-8c-1.9-5.2-21.1-32.7-25.2-36.2-2.4-2.1-7.4-5.3-11-7.2l-6.7-3.3-17.3.1c-9.6.1-21.3.5-26.2.9m49.2 3.4c3.6 1.8 8.6 5 11 7.1 4.1 3.5 23.3 31 25.2 36.2.5 1.3 2.7 5 4.9 8.2 2.2 3.3 4.9 7.9 6 10.2 1.1 2.4 4 8.1 6.4 12.8 4.5 8.5 4.5 8.5 2.1 8.8-1.3.2-4.1-.2-6.2-.8-10.6-3.3-27-5.3-37.8-4.6-15.4.9-22.3 2.3-32 6.6-2.2 1-5.9 2.3-8.3 3.1-3.9 1.1-4.5 1-7-.8-5.9-4.3-18.4-23.3-31.5-47.9-3.5-6.6-9-16.1-12.2-21.3-6.2-10-6.3-10.7-1.4-14.2s29.5-6.4 57.3-6.6l16.8-.2z"/><path d="M382.5 798.1c-3.9.5-7.6 1.6-8.5 2.5-1.3 1.4-1.2 1.7 1 3.6 2.7 2.2 4.2 2.2 27.5-.1 15.2-1.6 15.7-1.7 15.3-4.4-.3-2.1-.7-2.2-14.3-2.3-7.7-.1-17.1.2-21 .7m34 1.9c0 1.2-2.4 1.8-11 2.7-24.9 2.6-26.5 2.6-29 1.3-1.4-.7-2.5-1.7-2.5-2.1 0-2.2 12-3.7 29-3.5 11.3.1 13.5.3 13.5 1.6m-10 16.9c-4.9.3-9.6 1-10.2 1.4-1.6 1-1.7 3.4-.1 4.3 1.5.9 43.8 1.3 44.3.4 2.5-4-16-7.4-34-6.1m26 2.3c2.8.6 5.6 1.7 6.2 2.3 1 .8-4.3 1-19.7 1-13.9 0-21.3-.4-22.1-1.2-1.8-1.8.9-2.8 10.1-3.4 9.8-.7 18.4-.3 25.5 1.3m-23.7 18.5c-4.9.6-7 3-4.3 4.9 1.4 1.1 5.7 1.4 17.6 1.4 19.6 0 24.9-.6 24.9-3 0-1-1-2.1-2.2-2.4-2.9-.8-31.1-1.6-36-.9m35.5 1.8c.9.4 1.7 1.1 1.7 1.5 0 1.4-7.3 2-23.6 2-13 0-16.4-.3-17.4-1.5s-.8-1.5 1.2-1.9c1.2-.3 3.2-.7 4.3-1 2.8-.7 31.6.1 33.8.9"/><path d="M333.4 798.5c-.7 1.8.2 4.3 6.8 19 8.6 18.9 12.5 26.7 18.7 37 3.3 5.5 7.6 13.2 9.6 17.2 2 3.9 4.9 8.2 6.3 9.6 8.1 7.6 10.8 9.5 13.2 9.1 1.4-.2 7.9-1.2 14.5-2.3 16.5-2.8 35.7-4.9 56.5-6.3 28.2-1.9 26.1-2.1 28.9 3.4 2.7 5.5 4.1 5.9 12.8 3.1 4.3-1.4 6.6-3 11.8-8.5 4.3-4.5 7.3-6.8 8.8-6.8 2.1 0 20.3-4.5 36.2-8.9 3.9-1.1 12.2-2.9 18.5-4.1 6.3-1.1 12.7-2.6 14.3-3.2 2.7-1.1 4.4-4.6 3.4-7.2-.8-2.1-13.9-3.7-22.2-2.6-21.8 2.9-51.9 15.9-67.3 29.1-2.8 2.5-4 2.8-9.2 2.8-4.6-.1-6.9-.7-10.2-2.8-5.3-3.3-20.2-6.8-32.3-7.6-12.8-.8-30.5 1.9-46.5 7.1-15.8 5.2-14.8 5.1-18.5 1.3-4.4-4.4-22.6-32.4-29.5-45.4-7.5-14-20.9-34.5-22.6-34.5-.8 0-1.7.7-2 1.5m10.3 11.7c4.4 6.8 10.4 16.8 13.3 22.3 7.5 14 25.3 41.3 29.6 45.3 3.2 3 4 3.3 7.2 2.7 2.1-.4 5.7-1.6 8.2-2.7 4.3-1.9 7.3-2.7 25-6.5 11.5-2.5 31.5-2.1 43.2.7 5.1 1.3 11.1 3.5 13.2 4.9 3.4 2.2 5 2.6 11.7 2.6 7 0 8-.3 10.6-2.6 4.3-4.1 17-12 25.9-16.1 19.3-8.9 33.9-13 46.4-13 10.3.1 14.4 1.1 14.8 3.9.5 3.2-3.3 4.8-17.8 7.6-7.4 1.4-16 3.2-19 4.1-3 .8-9.6 2.6-14.5 4-5 1.3-12.6 3.2-16.8 4-7.6 1.6-8 1.8-13.9 8.1-4.8 5.2-7.1 6.8-11.1 8-7.6 2.3-8.4 2-10.6-3s-4.7-6.1-11.4-5.1c-2.3.4-11.3 1.1-20.2 1.6-18.7 1.1-38.4 3.3-54.5 6-16.9 2.9-16.2 2.9-20.6-.8-7.6-6.4-9.2-8.3-12.7-15.1-3.3-6.5-6.3-11.8-16.2-28.6-2.3-3.9-5.2-9.5-6.4-12.5-1.3-3-3.9-8.9-5.9-13-6-12.9-7.9-19-5.8-19 .2 0 3.9 5.5 8.3 12.2m-272.1 70c-1.2 3.9-2.3 25.3-1.4 27.3 2.5 5.6 18.4 8.8 22.2 4.6 4.4-4.9 6-15.3 2.6-17.1-1.1-.6-6.1-4.4-11-8.5-8.7-7.3-11.7-8.8-12.4-6.3m11.2 7c4.8 4 9.8 8 11.1 8.8 2.1 1.4 2.3 2.1 1.6 5.8-.3 2.3-1.7 5.6-2.9 7.4-1.8 2.8-2.9 3.4-6.6 3.6-5.3.4-13.3-3-14.8-6.2-.6-1.4-.5-6.2.3-14.1.7-6.6 1.3-12.1 1.4-12.3.3-.7 1.9.4 9.9 7m704.7 6.7-7 .6-.3 3.9c-.4 4.5 2 19.5 4.4 27.4 2.4 8 5.7 9 20.7 6.6 6.1-1 6.7-2.8 6.6-19.4-.1-20.3.3-19.5-9.4-19.6-4.4 0-11.1.2-15 .5m22.5 2.7c.6 1.4 1 8.7 1 16.2 0 18.1-.4 18.7-14 19.6-6.8.4-9.5-1.4-11.4-7.6-2.2-7.5-4.8-23-4.4-26.4.3-2.8.5-2.9 6.8-3.5 3.6-.3 9.8-.6 13.8-.7 6.9-.2 7.3-.1 8.2 2.4m-634.7 45.1c-.3.8-.1 3.3.5 5.6 1.1 4.4 2.7 14 3.7 21.9.3 2.5 1.6 6.1 2.8 8 1.8 2.7 3 3.4 6.3 3.6 2.2.2 5.7-.3 7.9-1 6.3-2.1 7.5-5.3 8.7-22.4.5-8 .6-15 .1-15.4-.4-.4-7.3-1-15.1-1.2-11.5-.4-14.5-.2-14.9.9m29 1.3c1.4 1.3-.9 27.4-2.8 31-1.9 3.8-7.2 6.2-12.3 5.8-4.3-.4-7.8-4.7-8.7-10.7-.3-2-1-6.8-1.6-10.6-.6-3.9-1.5-8.9-2.1-11.2s-.8-4.5-.5-5c.7-1.1 26.9-.4 28 .7M109 94.7c-12.6.4-14.5.7-15.5 3-2.5 5.7-4.5 64.5-4.9 140.8-.2 33-.1 61.7.2 63.8.8 6.4 2.5 6.9 24 7.3 10.3.2 29.3.9 42.2 1.4 26 1.1 114.9 1.4 119.9.4 7-1.4 6.5 5.5 6.6-107.5V102.1l-2.1-2.8c-2.6-3.4 4.5-3.1-74.9-3.7-34.6-.2-67.9-.6-74-.8-6-.3-15.7-.3-21.5-.1m95.5 1.9c78.3.6 71.3.3 73.9 3.7l2.1 2.8v101.5l-.1 101.4-2.2 2.3c-2.3 2.2-2.3 2.2-45 2.5-23.5.2-57.5-.1-75.7-.8-18.1-.6-39.6-1.3-47.7-1.4-16.7-.4-19.2-1.2-20-6.8-1.7-10.9.8-164.1 3.1-192.3.8-10.4 1.5-12.3 4.5-13 3.4-.8 21.2-1.2 33.1-.7 6.1.2 39.4.6 74 .8"/><path d="M108 104.1c0 2.2 13 15.7 15.8 16.3 4.2.9 112.9 2 120.5 1.2 6.6-.7 7-1 13.3-6.8 6.9-6.5 7.7-8.3 4.2-9.4-1.2-.4-27.5-.8-58.3-1-30.8-.1-64.9-.5-75.7-.9-14.5-.4-19.8-.3-19.8.6m96.3 1.3c35.2.2 57.2.7 57.8 1.3s-1.3 3.1-5.5 7.1c-5.9 5.5-7 6.1-12.2 6.8-8.2 1-117.4-.3-120.4-1.4-1.4-.5-5.4-4.2-8.9-8.1l-6.3-7.2 19.3.7c10.7.3 45 .7 76.2.8m-102.6 6.3c-.9 1.6-2.7 38.5-3.2 64.8-.2 14.8-.7 38.7-1.1 53-.7 28.6.2 59.5 1.8 59.5.8 0 11.8-8.2 17.7-13.2 1.1-.9 1.2-3.8.5-16.7-.5-8.6-.9-42.5-.9-75.3v-59.7l-6.5-6.6c-6.4-6.4-7.5-7.2-8.3-5.8m13.8 73.1c0 32.8.4 66.3.9 74.3.7 12 .6 14.8-.5 15.7-.8.7-4.8 3.9-8.9 7.1l-7.5 5.9-.8-10.6c-.5-5.9-.6-25.1-.2-42.7.3-17.6.8-43.9 1-58.5.3-14.6 1-35 1.6-45.3l1.2-18.9 6.6 6.6 6.6 6.6zm147.1-65.2-7.8 8.3-.5 39.3c-.8 63.5-.8 102.9 0 108.9.8 5.4.9 5.7 8.2 11.2 4 3.1 7.8 5.7 8.4 5.7.8 0 1.1-10.6 1.1-34.3 0-18.8.2-59.7.4-91 .2-40.3 0-56.7-.8-56.6-.6 0-4.6 3.9-9 8.5m8.7 48.6c-.1 31-.3 71.5-.3 90.1v33.8l-7.5-5.7c-6.8-5.3-7.5-6.2-8.2-10.3-.8-4.9-.8-48.5 0-109.4l.5-37.8 7.9-8.4c4.3-4.6 7.8-8.4 7.9-8.4 0-.1-.1 25.2-.3 56.1m-144.9-39.1c-1.2 1.9-2.2 28.5-2.3 62.7-.1 29.5 0 31.3 1.6 31 1-.2 7.7-6.6 14.9-14.3 9.8-10.5 16.3-16.4 25.8-23.3 6.9-5 13.5-9.2 14.7-9.2 3.5 0 16.2 5.8 19.7 9.1 5.7 5.3 6.7 8.3 6.7 19.4l.1 10 11.4 3.8c12.5 4.2 26 8 26.6 7.5.6-.7.6-86.5-.1-90.9l-.7-4.6-57.4-.7c-31.5-.3-58-.9-58.8-1.2s-1.7 0-2.2.7m60.5 1.5 56.9.7.7 3.6c.7 3.3.8 89.2.1 89.8-.2.3-4.8-.9-15.1-3.9-2.2-.6-4.4-1.5-5-1.8-.5-.4-3.2-1.3-6-1.9-9.6-2.3-9.8-2.5-9.9-13.2-.2-15-3.9-20.4-17.8-26-11.2-4.6-10.3-4.9-32.9 11.8-3.1 2.3-11.4 10.4-18.5 18.1-7.1 7.6-13.3 13.7-13.8 13.4-1-.5 0-83.2 1.1-89 .4-2.3 1-3.2 1.9-2.8.8.3 27 .9 58.3 1.2"/><path d="M168.7 191.2c-7.6 4.5-23.4 20.7-36.1 37l-7.6 9.6v36.1l5.3.5c13 1.3 51.1 2.6 81.7 2.8l33.5.2v-40.9l-4.9-2.6c-2.7-1.5-6.7-3-8.8-3.3-2.2-.4-7.7-2.2-12.2-4-4.6-1.8-10.6-3.9-13.4-4.5-2.8-.7-5.8-2.1-6.7-3.1-1.6-1.8-1.6-2.5-.3-9.2 2.1-10.5 1.4-14.1-3.4-18.2-4.3-3.7-7.5-4.6-15.2-4.5-4.1.1-6.5.9-11.9 4.1m21.8-1.7c8.4 4 10.1 8.9 7.5 21.7-1.2 6.2-1.2 6.9.4 8.7.9 1 3.4 2.2 5.3 2.6 2 .3 7 2 11.2 3.7s10.6 3.8 14.3 4.8c3.6 1 8.6 2.8 11 4.1l4.3 2.4v38.9l-32.5-.2c-30-.2-71.7-1.6-81.7-2.8l-4.3-.5v-34.1l7.6-9.6c4.1-5.3 12.4-14.9 18.5-21.4 13.3-14.2 21.4-19.6 29.7-19.7 3-.1 6.9.6 8.7 1.4m-72 94.1c-3.7 2-15.5 13.4-15.5 15 0 .8 6.7 1.4 23.8 1.9 13 .3 29.6 1.1 36.7 1.6 7.2.5 33.6.9 58.8.9 38.4 0 45.7-.2 45.7-1.4 0-.8-.6-1.6-1.3-1.9s-4.7-3.2-8.8-6.4c-4.1-3.3-8.4-6.5-9.6-7.2-1.5-.7-20-1.4-59-2.1-31.2-.5-59.3-1.2-62.3-1.5-4-.4-6.3-.1-8.5 1.1m70.9 1.4 56.9 1 5.5 4.3c3 2.3 7.7 5.9 10.5 7.9l5 3.8h-45.4c-25 0-51.5-.4-58.9-1-7.4-.5-23.8-1.2-36.4-1.6l-22.8-.6 5.3-5.5c8.7-8.9 11.4-10.4 17.9-9.8 3 .3 31.1 1 62.4 1.5"/></g></svg>