<svg version="1.1" xmlns="http://www.w3.org/2000/svg" style="display: block;" viewBox="0 0 2048 2048" width="1024" height="1024">
<path transform="translate(0,0)" fill="rgb(0,87,59)" d="M 0 0 L 1432.18 0 L 2048 0 L 2048 709.045 L 2048 1842.56 L 2048 2048 L 0 2048 L 0 1842 L 0 0 z"/>
<path transform="translate(0,0)" fill="rgb(3,165,151)" d="M 2048 709.045 L 2048 1842.56 L 2048 2048 L 0 2048 L 0 1842 L 197.628 1842.15 C 196.695 1824.6 197.738 1806.22 200.117 1788.82 C 241.783 1790.06 283.581 1791.57 325.265 1791.35 L 864.849 1791.93 C 945.676 1791.96 1026.77 1793.35 1107.58 1791.81 C 1106.74 1780.53 1108.11 1768.4 1108.59 1757.04 L 1112.52 1677.75 C 1113.11 1659.77 1115.22 1641.86 1116.02 1623.88 C 1116.53 1584.61 1122.63 1541.66 1134.24 1504.15 C 1122.01 1503.36 1109.61 1503.42 1097.35 1503.16 C 1102.61 1492.89 1108.99 1483.21 1114.4 1473.01 C 1126.07 1451.07 1131.41 1427.68 1133.15 1403.06 C 1153.3 1406.14 1180.83 1403.37 1198.98 1407.71 C 1200.64 1406.91 1202.15 1405.46 1203.6 1404.32 C 1195.35 1399.63 1186.79 1395.76 1179 1390.25 C 1157.6 1375.14 1145.83 1353.13 1141.64 1327.51 C 1130.66 1260.45 1175.49 1114.53 1205.01 1051.29 C 1214.19 1031.12 1225.47 1011.98 1238.67 994.177 C 1242.78 991.665 1257.47 972.814 1265.61 966.447 C 1308.52 932.884 1351.95 921.175 1404.83 913.969 C 1413.13 931.763 1423.38 944.466 1441.76 952.312 C 1467.17 963.158 1499.23 958.197 1524.01 947.977 C 1551.15 936.784 1570.51 919.348 1581.96 892.108 C 1581.26 891.534 1580.56 890.95 1579.87 890.357 C 1560.64 873.784 1548.91 852.849 1546.91 827.398 C 1547.21 807.475 1556.26 791.622 1561.72 772.969 C 1567.61 752.828 1570.95 731.232 1572.48 710.294 C 1579.51 712.818 1638.6 710.844 1654.74 712.426 L 1655.47 713.256 C 1673.36 716.543 1693.27 714.962 1711.45 714.872 C 1726.4 714.799 1741.57 715.373 1756.48 714.723 C 1766.78 714.274 1777.44 712.429 1787.72 713.199 L 1788.65 711.606 C 1797.15 712.175 1806.12 711.452 1814.66 711.302 L 1873.12 710.21 L 2048 709.045 z"/>
<path transform="translate(0,0)" fill="rgb(0,87,59)" d="M 2048 709.045 L 2048 1842.56 C 2029.3 1841.24 2009.93 1842.44 1991.13 1842.52 L 1878.57 1842.78 C 1878.51 1834.35 1875.61 1792.24 1877.96 1788.27 C 1897.9 1787.88 1922.4 1785.32 1939.33 1773.7 C 1959.22 1760.05 1966.58 1733.52 1970.67 1710.99 C 1983.09 1642.62 1987.42 1571.69 1992.79 1502.5 C 1997.44 1448.44 2000.38 1394.26 2001.61 1340.02 C 2002.3 1307.67 2003.05 1273.26 1998.55 1241.16 C 1996.27 1224.89 1992.3 1209.69 1982.76 1196.13 C 1965.53 1171.67 1944.17 1167.17 1916.4 1162.18 C 1895.83 1161.37 1879.82 1163.74 1860.57 1171.08 C 1850.07 1126.36 1837.12 1081.31 1816.99 1039.86 C 1780.65 965.027 1720.96 927.416 1643.08 906.63 C 1623.7 901.457 1601.88 899.177 1583.29 892.591 L 1581.96 892.108 C 1581.26 891.534 1580.56 890.95 1579.87 890.357 C 1560.64 873.784 1548.91 852.849 1546.91 827.398 C 1547.21 807.475 1556.26 791.622 1561.72 772.969 C 1567.61 752.828 1570.95 731.232 1572.48 710.294 C 1579.51 712.818 1638.6 710.844 1654.74 712.426 L 1655.47 713.256 C 1673.36 716.543 1693.27 714.962 1711.45 714.872 C 1726.4 714.799 1741.57 715.373 1756.48 714.723 C 1766.78 714.274 1777.44 712.429 1787.72 713.199 L 1788.65 711.606 C 1797.15 712.175 1806.12 711.452 1814.66 711.302 L 1873.12 710.21 L 2048 709.045 z"/>
<path transform="translate(0,0)" fill="rgb(192,88,0)" d="M 1546.91 827.398 C 1615.93 824.636 1742.16 827.43 1805.38 849.74 C 1827.05 857.349 1846.98 869.215 1863.99 884.64 C 1906.4 923.479 1917.58 980.211 1919.76 1035.31 C 1921.44 1077.61 1917.16 1119.88 1916.4 1162.18 C 1895.83 1161.37 1879.82 1163.74 1860.57 1171.08 C 1850.07 1126.36 1837.12 1081.31 1816.99 1039.86 C 1780.65 965.027 1720.96 927.416 1643.08 906.63 C 1623.7 901.457 1601.88 899.177 1583.29 892.591 L 1581.96 892.108 C 1581.26 891.534 1580.56 890.95 1579.87 890.357 C 1560.64 873.784 1548.91 852.849 1546.91 827.398 z"/>
<path transform="translate(0,0)" fill="rgb(248,183,8)" d="M 1655.47 713.256 C 1673.36 716.543 1693.27 714.962 1711.45 714.872 C 1726.4 714.799 1741.57 715.373 1756.48 714.723 C 1766.78 714.274 1777.44 712.429 1787.72 713.199 C 1783.52 723.087 1778.1 740.902 1768.01 745.776 C 1759.24 750.011 1683.58 747.724 1673.25 743.988 C 1664.35 740.764 1658.77 721.356 1655.47 713.256 z"/>
<path transform="translate(0,0)" fill="rgb(236,96,55)" d="M 1860.57 1171.08 C 1879.82 1163.74 1895.83 1161.37 1916.4 1162.18 C 1944.17 1167.17 1965.53 1171.67 1982.76 1196.13 C 1992.3 1209.69 1996.27 1224.89 1998.55 1241.16 C 2003.05 1273.26 2002.3 1307.67 2001.61 1340.02 C 2000.38 1394.26 1997.44 1448.44 1992.79 1502.5 C 1987.42 1571.69 1983.09 1642.62 1970.67 1710.99 C 1966.58 1733.52 1959.22 1760.05 1939.33 1773.7 C 1922.4 1785.32 1897.9 1787.88 1877.96 1788.27 C 1851.06 1789.27 1824.14 1789.89 1797.22 1790.13 C 1780.9 1790.29 1763.99 1789.53 1747.75 1790.68 C 1684.5 1791.42 1621.24 1791.79 1557.99 1791.8 C 1525.07 1791.85 1491.47 1793.27 1458.63 1791.3 C 1459.89 1781.97 1460.05 1772.46 1460.91 1763.08 L 1466.83 1702.97 C 1467.86 1691.88 1467.86 1680.09 1470.41 1669.24 C 1472.88 1652.29 1472.9 1636.59 1486.03 1623.5 C 1498.87 1610.69 1514.73 1611.68 1531.39 1611.97 C 1557.33 1612.42 1582.91 1610.81 1608.77 1609.19 C 1624.17 1608.22 1639.91 1608.66 1655.21 1606.71 C 1687.89 1602.54 1722.95 1586.55 1746.58 1563.45 C 1773.83 1536.79 1779.96 1513.03 1780.38 1476.04 C 1780.72 1469.85 1780.7 1463.6 1780.83 1457.4 C 1793.6 1455.03 1805.53 1451.74 1817.52 1446.73 C 1837.73 1435.66 1851.84 1424.86 1863.56 1404.6 C 1871.14 1391.5 1875.92 1377.09 1878.4 1362.18 C 1887.16 1309.35 1874.61 1223.21 1860.57 1171.08 z"/>
<path transform="translate(0,0)" fill="rgb(212,77,0)" d="M 1780.83 1457.4 C 1793.6 1455.03 1805.53 1451.74 1817.52 1446.73 C 1822.26 1480.96 1817.79 1516.98 1817.07 1551.38 C 1816.48 1579.67 1818.62 1609.67 1814.77 1637.65 C 1813.83 1644.51 1812.3 1651.26 1808.03 1656.89 C 1802.34 1664.38 1793 1667.81 1783.91 1668.86 C 1763.62 1671.22 1742.59 1671.13 1722.16 1671.54 C 1676.04 1672.46 1630.1 1671.57 1584 1671.07 C 1558.98 1670.91 1533.97 1670.92 1508.95 1671.09 C 1498.14 1671.08 1486.9 1671.73 1476.14 1670.89 C 1473.49 1670.68 1472.53 1670.79 1470.41 1669.24 C 1472.88 1652.29 1472.9 1636.59 1486.03 1623.5 C 1498.87 1610.69 1514.73 1611.68 1531.39 1611.97 C 1557.33 1612.42 1582.91 1610.81 1608.77 1609.19 C 1624.17 1608.22 1639.91 1608.66 1655.21 1606.71 C 1687.89 1602.54 1722.95 1586.55 1746.58 1563.45 C 1773.83 1536.79 1779.96 1513.03 1780.38 1476.04 C 1780.72 1469.85 1780.7 1463.6 1780.83 1457.4 z"/>
<path transform="translate(0,0)" fill="rgb(43,31,96)" d="M 1332.37 1351.31 C 1360.29 1363.35 1387.33 1377.46 1415.73 1388.43 C 1425.44 1394.02 1433.53 1401.86 1443.01 1407.66 C 1392.29 1424.27 1344.74 1447.4 1319.44 1497.07 C 1309.84 1515.93 1303.81 1536.74 1299.73 1557.44 C 1294.36 1584.64 1292.59 1612.47 1290.63 1640.08 C 1286.85 1693.11 1285.41 1746.1 1284.04 1799.22 C 1283.52 1819.38 1287.14 1852.03 1278.25 1869.66 C 1264.42 1897.08 1200.67 1912.8 1180.56 1945.58 C 1179.51 1947.26 1178.46 1948.96 1177.43 1950.66 C 1152.2 1954.55 1033.32 1962.54 1014.7 1949.69 C 1011.74 1947.66 1009.64 1944.75 1009.27 1941.11 C 1008.69 1935.47 1011.85 1930.13 1015.39 1926.01 C 1037.35 1900.45 1102.86 1880.18 1105.36 1843.93 C 1106.44 1826.92 1108.65 1808.82 1107.58 1791.81 C 1106.74 1780.53 1108.11 1768.4 1108.59 1757.04 L 1112.52 1677.75 C 1113.11 1659.77 1115.22 1641.86 1116.02 1623.88 C 1116.53 1584.61 1122.63 1541.66 1134.24 1504.15 C 1122.01 1503.36 1109.61 1503.42 1097.35 1503.16 C 1102.61 1492.89 1108.99 1483.21 1114.4 1473.01 C 1126.07 1451.07 1131.41 1427.68 1133.15 1403.06 C 1153.3 1406.14 1180.83 1403.37 1198.98 1407.71 C 1200.64 1406.91 1202.15 1405.46 1203.6 1404.32 C 1220.99 1390.92 1242.18 1378.99 1263.11 1371.98 C 1276.75 1366.25 1291.24 1362.17 1305.55 1358.46 C 1313.9 1356.3 1324.97 1355.52 1332.37 1351.31 z"/>
<path transform="translate(0,0)" fill="rgb(212,77,0)" d="M 1133.15 1403.06 C 1153.3 1406.14 1180.83 1403.37 1198.98 1407.71 C 1168.78 1433.83 1146.13 1465.78 1134.24 1504.15 C 1122.01 1503.36 1109.61 1503.42 1097.35 1503.16 C 1102.61 1492.89 1108.99 1483.21 1114.4 1473.01 C 1126.07 1451.07 1131.41 1427.68 1133.15 1403.06 z"/>
<path transform="translate(0,0)" fill="rgb(248,183,8)" d="M 1287.97 1275.46 C 1287.7 1232.19 1280.39 1183.39 1274.67 1140.22 C 1272.36 1122.72 1269.33 1104.8 1268.31 1087.19 C 1268 1081.94 1267.7 1075.9 1269.9 1071.03 C 1273.76 1067.64 1276.97 1066.24 1282.2 1066.48 C 1303.56 1067.45 1368.7 1099.98 1390.71 1110.82 C 1404.39 1117.56 1419.15 1126.14 1434.04 1129.68 C 1438.85 1130.83 1442.88 1130.92 1447.69 1129.72 C 1463.7 1125.72 1479.79 1116.1 1494.68 1108.91 C 1521.49 1095.95 1606.4 1054.34 1631.78 1056.3 C 1636.59 1056.67 1640.36 1058.54 1643.46 1062.25 C 1646.29 1065.64 1647.92 1069.63 1649.01 1073.88 C 1654.52 1095.36 1655.92 1119.05 1659.13 1141.07 C 1664.07 1174.9 1669.48 1208.41 1673.11 1242.42 C 1674.84 1258.59 1677.73 1274.87 1675.76 1291.2 C 1675.04 1297.22 1671.75 1301.32 1666.98 1304.9 C 1650.97 1316.94 1607.94 1326.85 1587.67 1335.49 C 1580.78 1337.69 1573.63 1339.65 1567 1342.55 L 1568.14 1344.55 C 1564.79 1379.19 1561.32 1413.02 1552.21 1446.72 C 1525.42 1439.56 1499.28 1432.05 1473.56 1421.58 C 1463.16 1417.34 1453.29 1412.08 1443.01 1407.66 C 1433.53 1401.86 1425.44 1394.02 1415.73 1388.43 C 1387.33 1377.46 1360.29 1363.35 1332.37 1351.31 C 1323.13 1347.29 1312.25 1343.64 1304.15 1337.54 C 1288.55 1325.8 1290.45 1293.69 1287.97 1275.46 z"/>
<path transform="translate(0,0)" fill="rgb(236,96,55)" d="M 1415.73 1388.43 C 1414.03 1378.28 1369.37 1357.37 1367.95 1329.8 C 1367.75 1325.94 1368.42 1322.16 1371.45 1319.45 C 1383.26 1308.88 1413.9 1343.18 1427.07 1344.5 L 1427.69 1343.18 C 1421.97 1334.66 1399.95 1320.98 1391.21 1313.91 C 1384.08 1308.14 1375.22 1300.41 1374.57 1290.67 C 1374.37 1287.6 1375.11 1284.09 1377.59 1282.01 C 1388.39 1272.97 1432.06 1310.2 1447.12 1312.47 L 1447.51 1311.32 C 1436.25 1293.85 1408.77 1284.59 1399.48 1265.41 C 1398.04 1262.43 1397.72 1259.65 1399.19 1256.55 C 1400.39 1254.04 1402.06 1252.51 1404.65 1251.56 C 1414.99 1247.79 1439.61 1265.41 1449.4 1270.22 C 1455.19 1274.11 1461.16 1278.06 1467.6 1280.79 C 1475.82 1284.22 1483.7 1289.66 1491.35 1294.22 C 1506.84 1303.34 1522.12 1312.82 1537.18 1322.64 C 1547.03 1329.16 1556.81 1336.66 1567 1342.55 L 1568.14 1344.55 C 1564.79 1379.19 1561.32 1413.02 1552.21 1446.72 C 1525.42 1439.56 1499.28 1432.05 1473.56 1421.58 C 1463.16 1417.34 1453.29 1412.08 1443.01 1407.66 C 1433.53 1401.86 1425.44 1394.02 1415.73 1388.43 z"/>
<path transform="translate(0,0)" fill="rgb(240,115,0)" d="M 1449.4 1270.22 C 1447.23 1253.96 1433.67 1165.76 1439.74 1157.63 C 1441.67 1155.04 1442.93 1154.36 1445.99 1153.98 C 1450.33 1155.87 1452.14 1159.14 1453.76 1163.44 C 1459.36 1178.28 1466.99 1261 1467.6 1280.79 C 1461.16 1278.06 1455.19 1274.11 1449.4 1270.22 z"/>
<path transform="translate(0,0)" fill="rgb(236,96,55)" d="M 1513.52 1182.63 C 1519.46 1180.14 1526.29 1182.94 1528.77 1188.88 C 1531.26 1194.82 1528.46 1201.64 1522.53 1204.13 C 1516.59 1206.63 1509.75 1203.83 1507.27 1197.89 C 1504.78 1191.94 1507.58 1185.11 1513.52 1182.63 z"/>
<path transform="translate(0,0)" fill="rgb(236,96,55)" d="M 1571.18 1222.6 C 1577.46 1221.82 1583.2 1226.21 1584.1 1232.47 C 1585 1238.73 1580.73 1244.56 1574.49 1245.59 C 1570.34 1246.27 1566.14 1244.65 1563.52 1241.37 C 1560.9 1238.08 1560.26 1233.63 1561.85 1229.74 C 1563.44 1225.84 1567.01 1223.11 1571.18 1222.6 z"/>
<path transform="translate(0,0)" fill="rgb(236,96,55)" d="M 1592.31 1135.4 C 1598.18 1133.03 1604.86 1135.9 1607.17 1141.8 C 1609.49 1147.69 1606.55 1154.34 1600.64 1156.6 C 1594.8 1158.82 1588.26 1155.94 1585.98 1150.12 C 1583.69 1144.31 1586.52 1137.74 1592.31 1135.4 z"/>
<path transform="translate(0,0)" fill="rgb(0,87,59)" d="M 325.265 1791.35 L 864.849 1791.93 C 945.676 1791.96 1026.77 1793.35 1107.58 1791.81 C 1108.65 1808.82 1106.44 1826.92 1105.36 1843.93 L 628.806 1843.98 C 515.894 1844.39 402.981 1844.11 290.072 1843.15 C 293.74 1826.01 299.19 1808.94 301.516 1791.58 C 309.467 1791.81 317.327 1792.07 325.265 1791.35 z"/>
<path transform="translate(0,0)" fill="rgb(0,87,59)" d="M 1458.63 1791.3 C 1491.47 1793.27 1525.07 1791.85 1557.99 1791.8 C 1621.24 1791.79 1684.5 1791.42 1747.75 1790.68 C 1756.18 1790.93 1764.61 1791 1773.04 1790.89 C 1777.37 1808.26 1781.59 1825.83 1786.57 1843.02 C 1742.59 1844.38 1698.49 1843.9 1654.5 1843.93 L 1453.7 1844.02 C 1454.34 1826.71 1455.8 1808.39 1458.63 1791.3 z"/>
<path transform="translate(0,0)" fill="rgb(43,31,96)" d="M 200.117 1788.82 C 241.783 1790.06 283.581 1791.57 325.265 1791.35 C 317.327 1792.07 309.467 1791.81 301.516 1791.58 C 299.19 1808.94 293.74 1826.01 290.072 1843.15 C 285.809 1862.41 274.595 1920.81 264.049 1934.16 C 258.762 1940.86 251.212 1943.28 242.931 1943.95 C 233.627 1944.71 216.236 1946.22 208.931 1939.51 C 204.956 1935.85 202.958 1930.07 201.803 1924.95 C 199.343 1914.05 199.628 1902.23 199.263 1891.11 L 197.628 1842.15 C 196.695 1824.6 197.738 1806.22 200.117 1788.82 z"/>
<path transform="translate(0,0)" fill="rgb(43,31,96)" d="M 1747.75 1790.68 C 1763.99 1789.53 1780.9 1790.29 1797.22 1790.13 C 1824.14 1789.89 1851.06 1789.27 1877.96 1788.27 C 1875.61 1792.24 1878.51 1834.35 1878.57 1842.78 C 1878.47 1861.52 1879.63 1920.03 1872.48 1934.47 C 1870.32 1938.82 1866.62 1941.53 1862 1942.88 C 1850.91 1946.11 1830.78 1945.18 1820.79 1939.27 C 1816.14 1936.52 1813 1932.88 1810.5 1928.13 C 1802.32 1912.57 1791.74 1862.85 1786.57 1843.02 C 1781.59 1825.83 1777.37 1808.26 1773.04 1790.89 C 1764.61 1791 1756.18 1790.93 1747.75 1790.68 z"/>
<path transform="translate(0,0)" fill="rgb(43,31,96)" d="M 1587.67 1335.49 C 1587.95 1335.58 1588.24 1335.67 1588.52 1335.75 C 1606.34 1340.78 1705.98 1336.26 1721.44 1327.51 C 1724.6 1325.72 1727.14 1323.55 1728.12 1319.94 C 1736.37 1289.29 1700.81 1156.27 1709.48 1144.92 C 1711.65 1145.55 1711.75 1145.87 1712.84 1147.79 C 1717.65 1156.17 1719.36 1168.45 1721.76 1177.93 C 1728.63 1205.09 1752.18 1301.09 1743.89 1326.33 C 1741.38 1333.97 1735.25 1339.12 1728.14 1342.39 C 1696.41 1357 1603.27 1353.33 1568.14 1344.55 L 1567 1342.55 C 1573.63 1339.65 1580.78 1337.69 1587.67 1335.49 z"/>
<path transform="translate(0,0)" fill="rgb(43,31,96)" d="M 1550.06 1445.88 C 1570.22 1447.9 1590.51 1452.18 1610.66 1454.92 C 1652.55 1460.61 1695.61 1463.69 1737.9 1461.86 C 1752.04 1461.24 1767.09 1460.96 1780.83 1457.4 C 1780.7 1463.6 1780.72 1469.85 1780.38 1476.04 C 1752.99 1475.43 1725.59 1477.21 1698.18 1475.57 C 1655.78 1473.04 1591.15 1458.47 1550.06 1445.88 z"/>
<path transform="translate(0,0)" fill="rgb(0,87,59)" d="M 1263.11 1371.98 C 1269.85 1339.55 1282.39 1308.2 1287.97 1275.46 C 1290.45 1293.69 1288.55 1325.8 1304.15 1337.54 C 1312.25 1343.64 1323.13 1347.29 1332.37 1351.31 C 1324.97 1355.52 1313.9 1356.3 1305.55 1358.46 C 1291.24 1362.17 1276.75 1366.25 1263.11 1371.98 z"/>
<path transform="translate(0,0)" fill="rgb(236,96,55)" d="M 1290.72 828.067 C 1306.79 853.892 1327.4 871.687 1357.56 878.694 C 1368.79 881.305 1380.39 882.526 1391.3 886.355 C 1391.75 886.512 1392.2 886.659 1392.65 886.811 C 1397.9 895.388 1401.51 904.508 1404.83 913.969 C 1351.95 921.175 1308.52 932.884 1265.61 966.447 C 1257.47 972.814 1242.78 991.665 1238.67 994.177 C 1225.47 1011.98 1214.19 1031.12 1205.01 1051.29 C 1175.49 1114.53 1130.66 1260.45 1141.64 1327.51 C 1145.83 1353.13 1157.6 1375.14 1179 1390.25 C 1186.79 1395.76 1195.35 1399.63 1203.6 1404.32 C 1202.15 1405.46 1200.64 1406.91 1198.98 1407.71 C 1180.83 1403.37 1153.3 1406.14 1133.15 1403.06 C 1131.41 1427.68 1126.07 1451.07 1114.4 1473.01 C 1108.99 1483.21 1102.61 1492.89 1097.35 1503.16 C 1109.61 1503.42 1122.01 1503.36 1134.24 1504.15 C 1122.63 1541.66 1116.53 1584.61 1116.02 1623.88 C 1115.22 1641.86 1113.11 1659.77 1112.52 1677.75 L 1108.59 1757.04 C 1108.11 1768.4 1106.74 1780.53 1107.58 1791.81 C 1026.77 1793.35 945.676 1791.96 864.849 1791.93 L 325.265 1791.35 C 283.581 1791.57 241.783 1790.06 200.117 1788.82 C 178.1 1787.8 152.523 1786.49 133.376 1774.31 C 112.424 1760.97 102.345 1734.51 97.1816 1711.33 C 85.8037 1660.23 83.5497 1595.54 79.5398 1542.51 C 76.1401 1497.56 73.4705 1452.69 70.7088 1407.7 C 68.1171 1365.48 64.525 1313.34 68.5443 1271.75 C 70.2808 1253.78 74.8658 1235.03 84.7254 1219.71 C 102.007 1192.85 133.875 1175.89 164.551 1169.6 C 189.018 1164.58 227.626 1164.43 251.747 1172.13 C 260.812 1175.02 268.436 1179.27 276.359 1184.48 C 274.093 1131.15 271.399 1077.07 278.593 1023.99 C 281.556 1008.23 285.215 992.802 290.504 977.622 C 317.69 899.582 378.645 854.992 458.372 840.977 C 467.593 839.356 502.33 836.676 507.878 833.663 C 508.347 833.408 508.801 833.124 509.263 832.855 C 515.511 834.644 597.237 829.677 609.967 829.338 C 645.618 828.684 681.274 828.28 716.931 828.126 L 1080.65 827.068 C 1123.72 826.821 1166.8 826.995 1209.87 827.588 C 1226.21 827.824 1243.15 827.032 1259.42 828.149 C 1269.43 827.584 1281.13 830.105 1290.72 828.067 z"/>
<path transform="translate(0,0)" fill="rgb(192,88,0)" d="M 518.077 1157.2 C 526.763 1142.13 536.183 1119.44 553.34 1112.45 C 556.622 1111.11 559.665 1111.16 562.859 1112.68 C 579.654 1120.67 604.189 1202.46 610.535 1222.38 C 634.429 1214.26 659.339 1208.81 683.38 1201.04 C 747.911 1180.2 788.018 1160.02 858.105 1160.31 C 933.214 1160.62 1009.19 1190.16 1062.33 1243.86 C 1096.24 1278.13 1125.38 1320.31 1131.91 1369.09 C 1133.42 1380.4 1133.24 1391.68 1133.15 1403.06 C 1131.41 1427.68 1126.07 1451.07 1114.4 1473.01 C 1108.99 1483.21 1102.61 1492.89 1097.35 1503.16 C 1109.61 1503.42 1122.01 1503.36 1134.24 1504.15 C 1122.63 1541.66 1116.53 1584.61 1116.02 1623.88 C 1115.22 1641.86 1113.11 1659.77 1112.52 1677.75 C 1112.58 1675.98 1112.41 1675.01 1111.69 1673.39 C 1090.75 1671.17 1063.95 1672.78 1042.44 1672.7 L 891.261 1672.53 C 888.585 1681.07 884.897 1688.48 877.905 1694.33 C 866.063 1704.23 849.571 1704.94 834.901 1703.28 C 812.297 1700.71 798.385 1690.36 784.46 1672.93 C 698.538 1672.53 612.409 1671.3 526.505 1672.15 C 487.842 1672.66 449.175 1672.74 410.51 1672.4 C 387.716 1672.35 363.804 1673.59 341.184 1670.91 C 332.935 1669.93 325.273 1667.14 319.058 1661.46 C 314.176 1657 312.443 1648.9 311.622 1642.62 C 309.966 1629.96 311.328 1616.07 311.267 1603.28 C 311.134 1580.85 310.607 1558.43 309.685 1536.02 C 296.959 1539.83 284.615 1543.41 271.344 1544.84 C 264.964 1541.83 260.234 1538.43 256.355 1532.42 C 251.282 1524.56 248.794 1514.02 251.083 1504.82 C 253.696 1494.31 262.064 1490.11 270.717 1485.13 C 268.942 1482.63 267.473 1479.86 265.926 1477.22 C 250.894 1480.79 227.959 1483.98 213.679 1476.37 C 208.053 1473.37 204.066 1468.48 202.392 1462.31 C 200.301 1454.61 201.79 1446.24 205.715 1439.37 C 221.377 1411.97 281.711 1397.56 311.144 1389.18 C 313.902 1350.11 315.269 1279.43 306.704 1242.24 C 302.786 1225.22 296.499 1210.58 288.71 1195.08 C 321.614 1228.39 335.643 1279.25 338.46 1324.95 C 339.645 1344.17 338.453 1363.24 340.467 1382.47 C 369.442 1374.7 404.934 1372.02 431.487 1357.53 C 424.881 1347.6 417.138 1338.44 410.525 1328.49 C 392.602 1301.52 384.355 1273.18 383.455 1241 C 382.886 1220.62 391.451 1129.7 403.073 1119.3 C 405.205 1117.4 407.46 1116.96 410.248 1117.22 C 426.98 1118.77 451.635 1149.01 462.78 1161.4 C 479.678 1155.4 500.575 1151.71 518.077 1157.2 z"/>
<path transform="translate(0,0)" fill="rgb(236,96,55)" d="M 1097.35 1503.16 C 1109.61 1503.42 1122.01 1503.36 1134.24 1504.15 C 1122.63 1541.66 1116.53 1584.61 1116.02 1623.88 C 1082.4 1623.45 856.628 1626.33 843.413 1620.69 C 840.078 1619.27 837.294 1616.39 836.166 1612.94 C 834.784 1608.7 835.789 1603.89 838.056 1600.15 C 859.305 1565.08 931.435 1570.99 966.449 1566.23 C 985.813 1563.6 1005.7 1557.87 1024 1551.04 C 1037.01 1546.2 1050.21 1540.04 1061.71 1532.22 C 1070.69 1526.1 1088.95 1505.02 1097.35 1503.16 z"/>
<path transform="translate(0,0)" fill="rgb(43,31,96)" d="M 265.926 1477.22 C 306.652 1443.51 405.696 1426.08 458.494 1419.07 C 467.526 1417.87 478.563 1414.46 487.561 1415.37 C 489.077 1415.52 490.458 1415.88 491.927 1416.27 L 492.311 1417.08 C 482.33 1425.57 436.508 1431.5 421.22 1434.7 C 393.026 1440.6 365.02 1447.18 337.937 1457.11 C 315.113 1465.48 293.229 1476.02 270.717 1485.13 C 268.942 1482.63 267.473 1479.86 265.926 1477.22 z"/>
<path transform="translate(0,0)" fill="rgb(236,96,55)" d="M 323.413 1531.67 C 330.663 1526.99 339.53 1524.15 347.589 1521.12 C 361.988 1515.7 376.38 1510.65 391.495 1507.57 C 408.608 1504.09 426.101 1503.11 443.488 1501.81 C 477.438 1499.28 511.487 1498.14 545.428 1495.54 C 576.631 1493.15 607.409 1488.42 638.445 1484.65 C 653.846 1482.77 670.411 1482.22 685.437 1478.49 C 685.936 1485.79 687.831 1489.88 693.414 1494.77 C 706.191 1505.97 723.421 1507.28 739.522 1505.8 C 771.466 1502.87 803.315 1498.9 835.381 1497.42 C 865.7 1496.02 896.04 1497.02 926.351 1494.84 L 928.703 1495.44 C 919.707 1495.75 909.249 1498.99 900.371 1500.79 C 860.446 1508.88 819.113 1518.36 789.945 1549.17 C 769.044 1571.26 763.25 1593.98 764.235 1623.63 C 694.775 1625.43 625.157 1624.78 555.675 1625.06 C 512.02 1625.23 468.426 1626.95 424.759 1626.04 C 398.209 1625.48 355.507 1628.28 336.066 1606.8 C 320.073 1589.13 322.362 1554.14 323.413 1531.67 z"/>
<path transform="translate(0,0)" fill="rgb(43,31,96)" d="M 800.714 1427.62 C 788.102 1400.87 777.816 1364.84 788.385 1335.78 C 796.726 1312.85 817.55 1293.32 839.683 1283.61 C 843.283 1282.03 846.617 1280.94 850.554 1281.42 C 852.558 1282.82 852.827 1282.92 853.649 1285.19 C 847.793 1292.17 839.333 1297.28 832.533 1303.37 C 814.613 1320.56 800.043 1338.58 799.654 1364.48 C 799.388 1382.21 804.692 1398.86 817.453 1411.65 C 821.161 1415.36 825.388 1418.4 829.59 1421.52 C 837.031 1427.05 851.326 1426.32 856.797 1433.38 L 856.716 1435.2 C 853.744 1437.36 849.154 1437.58 845.534 1437.91 C 834.518 1438.88 823.176 1438.14 812.116 1438.21 C 796.316 1438.31 780.105 1439.1 764.408 1440.94 C 749.646 1442.71 735.112 1446.03 721.048 1450.85 C 712.889 1453.67 703.496 1457.16 696.768 1462.71 C 691.203 1467.3 689.784 1473.43 685.437 1478.49 C 684.013 1471.28 685.734 1463.31 689.916 1457.24 C 702.179 1439.42 730.837 1434.25 750.659 1431.15 C 767.378 1428.54 783.819 1427.92 800.714 1427.62 z"/>
<path transform="translate(0,0)" fill="rgb(43,31,96)" d="M 496.553 1269.27 C 498.031 1269.2 499.509 1269.14 500.987 1269.1 C 506.011 1268.94 512.86 1268.36 516.457 1272.69 C 521.715 1279.01 513.857 1292.3 512.255 1299.09 C 511.269 1303.27 511.712 1308.24 511.802 1312.53 C 512.149 1312.4 512.5 1312.27 512.844 1312.13 C 513.417 1311.9 513.982 1311.65 514.554 1311.42 C 521.712 1308.46 531.171 1297.13 538.631 1298.32 C 540.334 1298.59 539.831 1298.59 540.966 1300.18 C 541.283 1303.23 540.089 1306.04 538.515 1308.6 C 532.191 1318.87 521.94 1323.55 510.655 1326.02 C 506.982 1326.14 503.279 1326.27 499.642 1325.64 C 490.356 1324.04 475.664 1318.95 469.957 1311.2 C 469.528 1308.9 469.211 1307.73 470.915 1305.74 C 478.163 1297.24 490.726 1313.61 499.299 1311.75 L 500.39 1309.24 C 499.97 1297.35 488.149 1291.68 484.836 1281.66 C 484.121 1279.5 483.777 1276.96 485.124 1274.98 C 487.725 1271.16 492.325 1270.26 496.553 1269.27 z"/>
<path transform="translate(0,0)" fill="rgb(43,31,96)" d="M 926.351 1494.84 C 932.4 1490.07 944.127 1488.34 951.555 1485.73 C 989.472 1472.4 1018.52 1452.73 1037.75 1416.75 C 1042.71 1407.46 1038.82 1387.87 1040.64 1384.4 C 1040.9 1383.9 1041.55 1383.73 1042.01 1383.4 C 1044.15 1383.36 1045.4 1383.04 1046.92 1384.91 C 1053.13 1392.52 1051.78 1411.31 1049.63 1420.07 C 1048.26 1425.66 1046.75 1431.09 1043.39 1435.81 C 1018.43 1470.89 988.922 1486.34 946.669 1493.79 C 940.698 1494.84 934.78 1495.57 928.703 1495.44 L 926.351 1494.84 z"/>
<path transform="translate(0,0)" fill="rgb(43,31,96)" d="M 568.875 1226.8 C 572.165 1227.91 574.717 1229.27 576.051 1232.69 C 577.047 1235.24 576.878 1237.88 575.855 1240.38 C 573.637 1245.81 567.735 1249.74 562.489 1251.82 C 549.841 1256.84 538.68 1252.89 526.945 1247.88 C 525.116 1246.61 523.142 1245.22 521.539 1243.67 C 519.696 1241.9 518.564 1240.46 518.367 1237.87 C 525.325 1231.72 546.06 1240.78 555.198 1241.09 C 561.347 1237.82 564.855 1232.28 568.875 1226.8 z"/>
<path transform="translate(0,0)" fill="rgb(43,31,96)" d="M 428.814 1235.4 C 436.117 1236.22 443.852 1243.17 449.854 1247.26 C 453.698 1246.11 457.135 1244.38 460.765 1242.73 C 465.636 1240.51 471.211 1237.88 476.536 1239.88 C 478.088 1241.53 479.089 1242.61 479.21 1245.06 C 479.344 1247.77 477.249 1249.16 475.559 1250.89 C 471.358 1253.81 466.185 1256.66 461.257 1258.07 C 451.544 1260.86 442.4 1258.99 433.782 1253.95 C 429.248 1251.3 426.704 1247.92 425.351 1242.89 C 425.65 1239.49 426.816 1237.99 428.814 1235.4 z"/>
<path transform="translate(0,0)" fill="rgb(192,88,0)" d="M 1290.72 828.067 C 1306.79 853.892 1327.4 871.687 1357.56 878.694 C 1368.79 881.305 1380.39 882.526 1391.3 886.355 C 1391.75 886.512 1392.2 886.659 1392.65 886.811 C 1397.9 895.388 1401.51 904.508 1404.83 913.969 C 1351.95 921.175 1308.52 932.884 1265.61 966.447 C 1257.47 972.814 1242.78 991.665 1238.67 994.177 L 1237.73 992.973 C 1240.76 987.317 1245.83 982.761 1250.3 978.213 C 1274.85 953.111 1305.55 934.893 1339.35 925.383 C 1355.96 920.631 1375.5 919.025 1390.76 910.995 C 1389.55 910.147 1390.06 910.43 1388.74 909.794 C 1388.43 909.646 1388.12 909.506 1387.82 909.362 C 1387.56 907.008 1387.36 904.769 1387.6 902.402 C 1387.91 899.323 1388.83 896.566 1391.46 894.695 C 1391.91 894.377 1392.37 894.088 1392.83 893.784 L 1392.9 891.729 C 1392.16 890.624 1391.63 889.343 1390.68 888.414 C 1385.18 883.044 1353.18 880.268 1342.87 875.723 C 1330.36 870.209 1318.98 863.373 1308.69 854.346 C 1301.97 848.444 1296.59 833.945 1288.16 830.985 C 1280.22 828.193 1269.02 830.153 1260.39 828.362 C 1260.07 828.294 1259.74 828.22 1259.42 828.149 C 1269.43 827.584 1281.13 830.105 1290.72 828.067 z"/>
<path transform="translate(0,0)" fill="rgb(43,31,96)" d="M 132.569 96.3826 C 139.939 95.5742 147.324 94.9172 154.721 94.4122 C 174.363 93.2597 194.035 94.3416 213.679 94.7604 C 236.065 95.0703 258.453 95.1673 280.84 95.0511 C 322.107 94.8496 363.355 92.8254 404.63 92.639 C 456.048 92.4069 507.206 94.0643 558.573 95.0604 C 591.147 95.692 623.775 95.4564 656.358 95.6285 C 671.175 95.7068 686.914 94.7191 701.587 96.3585 C 705.46 96.7912 709.837 98.708 712.658 101.413 C 714.661 103.333 715.599 105.155 715.824 107.879 C 717.499 128.184 716.025 149.699 715.989 170.151 L 715.995 290.365 L 716.004 638.255 C 716.022 701.42 714.276 765.041 716.931 828.126 C 681.274 828.28 645.618 828.684 609.967 829.338 C 597.237 829.677 515.511 834.644 509.263 832.855 C 508.801 833.124 508.347 833.408 507.878 833.663 C 502.33 836.676 467.593 839.356 458.372 840.977 C 378.645 854.992 317.69 899.582 290.504 977.622 C 285.215 992.802 281.556 1008.23 278.593 1023.99 C 234.091 1024.29 189.587 1024.18 145.087 1023.65 C 138.416 1023.9 131.715 1023.86 125.039 1023.93 C 123.068 988.457 124.228 952.497 124.156 916.958 L 124.002 721.288 L 123.946 104.85 C 126.512 101.285 128.948 98.8622 132.569 96.3826 z"/>
<path transform="translate(0,0)" fill="rgb(248,183,8)" d="M 145.087 1023.65 C 144.661 1001.96 145.832 980.495 147.235 958.849 C 151.381 894.895 161.163 844.73 202.92 793.335 C 214.587 778.975 235.358 764.925 240.311 746.705 C 249.383 713.337 216.181 692.076 202.079 666.468 C 190.279 645.041 188.297 616.069 195.33 592.792 C 203.021 567.338 220.415 545.093 244.022 532.652 C 265.183 521.5 293.294 515.689 316.548 523.113 C 338.483 530.116 365.486 546.096 376.18 567.401 C 380.735 576.477 383.778 586.742 391.221 594.021 C 399.423 602.044 421.261 611.747 425.047 621.929 C 429.861 634.879 407.511 635.888 402.601 644.54 C 398.895 651.068 401.651 656.921 403.674 663.48 C 401.465 670.9 397.805 676.585 393.468 682.888 C 396.846 687.089 399.506 690.373 399.782 695.948 C 400.573 711.894 383.353 727.112 370.119 733.732 C 361.974 737.806 349.194 741.041 343.208 747.874 C 338.873 752.822 334.404 766.871 335.225 773.376 C 335.637 776.644 337.357 779.294 339.983 781.204 C 351.986 789.936 380.919 787.239 395.068 784.82 C 456.542 774.309 473.352 723.425 487.968 670.636 C 494.219 648.055 500.207 625.454 507.349 603.128 C 512.748 586.248 518.631 569.363 529.013 554.804 C 536.319 544.56 546.548 535.233 559.473 533.382 C 565.051 532.583 570.422 533.787 574.82 537.388 C 580.368 541.933 583.153 548.433 583.726 555.476 C 585.677 579.493 571.338 599.785 566.499 622.166 C 563.323 636.853 562.834 652.709 560.956 667.656 C 554.041 722.719 545.124 788.646 509.263 832.855 C 508.801 833.124 508.347 833.408 507.878 833.663 C 502.33 836.676 467.593 839.356 458.372 840.977 C 378.645 854.992 317.69 899.582 290.504 977.622 C 285.215 992.802 281.556 1008.23 278.593 1023.99 C 234.091 1024.29 189.587 1024.18 145.087 1023.65 z"/>
<path transform="translate(0,0)" fill="rgb(43,31,96)" d="M 344.685 592.931 C 346.655 593.098 348.577 593.392 350.395 594.215 C 355.324 596.445 359.253 600.439 360.979 605.593 C 362.595 610.417 362.104 615.699 359.627 620.143 C 357.012 624.805 353.144 627.299 348.092 628.646 C 345.677 628.441 342.962 628.249 340.653 627.452 C 335.793 625.773 331.518 621.752 329.654 616.963 C 327.979 612.658 328.468 607.912 330.442 603.798 C 333.417 597.598 338.554 595.257 344.685 592.931 z"/>
<path transform="translate(0,0)" fill="rgb(248,183,8)" d="M 320.036 210.899 C 320.246 198.128 318.142 167.171 327.222 158.284 C 334.859 150.811 348.836 151.69 358.688 152.166 C 363.261 152.386 368.526 153.108 371.773 156.664 C 378.639 164.186 379.147 207.432 379.046 219.071 C 379.267 226.912 379.184 234.918 380.069 242.708 C 380.002 291.673 382.37 340.563 381.907 389.518 C 381.758 405.323 382.578 422.206 380.846 437.867 C 380.298 442.823 379.527 447.363 376.781 451.591 C 365.315 459.274 334.878 455.23 320.76 454.66 C 299.207 453.863 277.623 455.815 256.072 454.601 C 237.452 452.98 200.23 460.854 186.183 449.475 C 183.942 442.288 183.456 434.25 183.225 426.758 C 181.48 370.168 184.044 313.286 183.995 256.659 C 183.985 245.216 184.098 233.749 183.587 222.314 C 182.731 203.158 179.806 182.567 184.057 163.666 C 187.105 159.826 190.844 158.35 195.597 157.409 C 205.827 155.384 239.884 154.022 248.037 159.812 C 250.918 161.858 252.446 164.779 253.205 168.174 C 255.667 179.186 252.82 197.509 254.822 210.828 L 255.012 212.021 L 320.036 210.899 z"/>
<path transform="translate(0,0)" fill="rgb(192,88,0)" d="M 256.072 454.601 C 237.452 452.98 200.23 460.854 186.183 449.475 C 183.942 442.288 183.456 434.25 183.225 426.758 C 181.48 370.168 184.044 313.286 183.995 256.659 C 183.985 245.216 184.098 233.749 183.587 222.314 C 182.731 203.158 179.806 182.567 184.057 163.666 C 187.105 159.826 190.844 158.35 195.597 157.409 C 205.827 155.384 239.884 154.022 248.037 159.812 C 250.918 161.858 252.446 164.779 253.205 168.174 C 255.667 179.186 252.82 197.509 254.822 210.828 L 255.012 212.021 C 256.116 248.721 256.108 285.447 254.99 322.147 C 254.257 348.221 252.751 374.085 252.946 400.201 C 253.081 418.411 255.222 436.444 256.072 454.601 z"/>
<path transform="translate(0,0)" fill="rgb(3,165,151)" d="M 255.012 212.021 L 320.036 210.899 L 320.602 377.819 C 320.732 403.346 319.339 429.197 320.76 454.66 C 299.207 453.863 277.623 455.815 256.072 454.601 C 255.222 436.444 253.081 418.411 252.946 400.201 C 252.751 374.085 254.257 348.221 254.99 322.147 C 256.108 285.447 256.116 248.721 255.012 212.021 z"/>
<path transform="translate(0,0)" fill="rgb(192,88,0)" d="M 379.046 219.071 L 380.579 221.101 C 388.586 221.111 422.451 212.735 426.664 217.044 C 429.554 220.001 431.204 226.285 432.391 230.315 C 437.722 248.415 441.52 267.277 445.853 285.655 C 452.776 315.025 459.811 344.304 466.121 373.814 C 469.961 391.776 475.464 409.561 478.703 427.611 C 479.573 432.461 480.122 437.215 479.735 442.146 C 475.408 448.195 465.808 449.503 458.866 450.65 C 451.478 451.87 437.825 454.804 431.22 450.466 C 428.36 448.587 427.126 444.206 426.099 441.097 C 419.29 420.463 415.507 398.341 410.492 377.197 C 402.583 343.849 394.025 310.662 386.894 277.128 C 384.89 267.704 385.401 250.364 380.069 242.708 C 379.184 234.918 379.267 226.912 379.046 219.071 z"/>
<path transform="translate(0,0)" fill="rgb(248,183,8)" d="M 579.522 298.454 C 577.155 275.76 576.574 248.969 563.708 229.246 C 557.767 220.138 550.219 211.674 546.132 201.485 C 541.487 189.905 540.498 176.459 545.839 164.957 C 548.296 159.667 552.281 153.684 558.103 151.762 C 562.755 150.227 568.042 151.727 572.114 154.157 C 589.466 164.511 583.08 193.353 582.929 210.184 C 582.843 219.778 583.866 229.881 586.015 239.237 C 587.096 243.944 589.1 250.553 593.449 253.256 C 595.755 248.814 595.644 241.943 596.428 236.916 C 598.488 223.714 602.568 209.34 609.98 198.069 C 616.796 187.703 630.416 175.639 642.91 173.648 C 646.656 173.051 650.639 173.474 653.603 176.062 C 658.041 179.936 659.084 187.1 659.187 192.64 C 659.586 214.112 641.242 238.323 626.046 252.097 C 619.318 258.196 611.53 263.389 605.326 270.017 C 592.092 284.154 599.38 313.847 600.235 331.95 C 594.145 332.013 587.768 332.434 581.713 331.95 C 562.398 314.334 534.948 316.653 514.717 300.422 C 507.032 294.257 498.886 284.371 497.976 274.148 C 497.578 269.683 499.205 265.396 502.287 262.14 C 505.147 259.12 508.897 257.893 512.99 257.854 C 538.945 257.606 562.213 282.057 579.522 298.454 z"/>
<path transform="translate(0,0)" fill="rgb(3,165,151)" d="M 600.235 331.95 C 607.631 331.929 620.704 330.565 626.693 335.743 C 627.89 336.778 627.923 337.4 627.959 338.903 C 628.372 356.386 614.094 365.567 630.593 382.652 C 640.953 393.379 657.837 405.099 657.275 421.831 C 656.946 431.636 648.41 443.433 641.058 449.788 C 639.968 450.712 638.842 451.592 637.682 452.427 C 611.238 454.451 584.185 453.994 557.645 454.436 C 547.09 447.933 540.14 438.073 537.153 426.001 C 535.437 419.067 536.421 412.596 540.298 406.575 C 550.109 391.337 572.069 385.555 567.89 363.981 C 566.14 354.949 562.479 346.372 560.056 337.523 C 567.473 333.41 573.193 331.997 581.713 331.95 C 587.768 332.434 594.145 332.013 600.235 331.95 z"/>
<path transform="translate(0,0)" fill="rgb(43,31,96)" d="M 1432.18 0 L 2048 0 L 2048 709.045 L 1873.12 710.21 L 1814.66 711.302 C 1806.12 711.452 1797.15 712.175 1788.65 711.606 L 1787.72 713.199 C 1777.44 712.429 1766.78 714.274 1756.48 714.723 C 1741.57 715.373 1726.4 714.799 1711.45 714.872 C 1693.27 714.962 1673.36 716.543 1655.47 713.256 L 1654.74 712.426 C 1638.6 710.844 1579.51 712.818 1572.48 710.294 C 1575.34 667.022 1566.46 624.734 1539.88 589.906 C 1511.75 553.052 1475.48 538.957 1430.66 532.788 C 1434.24 520.739 1432.02 414.41 1432.02 394.462 L 1432.18 0 z"/>
<path transform="translate(0,0)" fill="rgb(248,183,8)" d="M 1684.79 569.009 C 1671.22 537.432 1657.89 512.629 1624.59 499.402 C 1611.2 494.081 1597.34 490.487 1584.71 483.35 C 1554.21 466.121 1528.68 419.336 1515.16 387.889 C 1512.47 381.645 1509.2 373.35 1511.76 366.588 C 1512.89 363.612 1515.2 361.389 1518.12 360.218 C 1535.91 353.088 1564.5 361.893 1580.77 369.702 C 1623.01 389.964 1659.89 432.986 1676.4 476.318 C 1684.74 498.205 1691.01 522.814 1703.42 542.768 L 1704.1 541.558 C 1706.9 536.444 1708.99 531.106 1709.86 525.296 C 1712.22 509.495 1709.82 433.612 1725.75 428.615 C 1728.73 429.91 1730.41 432.132 1731.5 435.163 C 1738.59 454.884 1725.18 530.115 1736.39 538.842 C 1742.87 533.961 1747.1 511.168 1750.33 502.483 C 1752.53 496.572 1755.17 490.756 1757.98 485.109 C 1786.35 428.01 1851.97 368.222 1920.21 377.241 C 1928.23 378.302 1940.58 380.944 1945.85 387.509 C 1948.26 390.513 1948.77 394.096 1948.1 397.791 C 1944.27 418.89 1894.55 462.513 1877.22 473.694 C 1860.23 484.65 1840.61 488.791 1822.07 496.02 C 1790.09 508.49 1763.49 535.411 1754.62 568.813 C 1742.48 568.928 1692.67 571.261 1684.79 569.009 z"/>
<path transform="translate(0,0)" fill="rgb(240,115,0)" d="M 1684.79 569.009 C 1692.67 571.261 1742.48 568.928 1754.62 568.813 C 1767.8 568.601 1821 565.17 1827.55 572.639 C 1831.79 577.468 1830.71 585.501 1829.72 591.284 C 1825.3 617.118 1817.99 643.749 1808.08 667.983 C 1802.06 682.721 1794.77 696.923 1788.65 711.606 L 1787.72 713.199 C 1777.44 712.429 1766.78 714.274 1756.48 714.723 C 1741.57 715.373 1726.4 714.799 1711.45 714.872 C 1693.27 714.962 1673.36 716.543 1655.47 713.256 L 1654.74 712.426 C 1647.82 695.175 1639.33 678.859 1633.4 661.153 C 1628.51 646.558 1608.8 587.597 1615.89 576.35 C 1623.17 564.792 1670.07 574.246 1683.58 569.472 C 1683.99 569.328 1684.39 569.164 1684.79 569.009 z"/>
<path transform="translate(0,0)" fill="rgb(240,115,0)" d="M 1715.93 50.0668 C 1802.58 39.9272 1881.1 101.774 1891.55 188.382 C 1902 274.991 1840.43 353.736 1753.86 364.49 C 1666.85 375.299 1587.62 313.353 1577.12 226.309 C 1566.62 139.265 1628.85 60.2573 1715.93 50.0668 z"/>
<path transform="translate(0,0)" fill="rgb(43,31,96)" d="M 1671.78 269.98 C 1687.06 271.162 1698.6 283.915 1713.41 287.64 C 1724.21 290.357 1741.77 290.348 1751.23 284.021 C 1756.24 280.67 1760.54 276.132 1765.83 273.206 C 1768.43 271.765 1771.68 270.845 1774.52 272.232 C 1776.79 273.337 1778.37 275.041 1778.95 277.532 C 1780.11 282.547 1776.01 288.338 1773.4 292.18 C 1770.8 294.899 1768.04 297.373 1764.99 299.584 C 1750.62 309.989 1728.33 311.522 1711.3 308.388 C 1697.12 305.776 1675.37 297.446 1667.22 284.873 C 1665.48 282.184 1664.38 279.042 1665.5 275.859 C 1666.58 272.781 1669.13 271.464 1671.78 269.98 z"/>
<path transform="translate(0,0)" fill="rgb(43,31,96)" d="M 1707.95 165.787 C 1711.52 166.182 1714.79 166.6 1717.33 169.5 C 1726.58 180.025 1717.39 224.205 1715.28 237.843 C 1718.45 237.966 1722.3 237.802 1725.35 238.663 C 1727.93 239.391 1730.82 242.129 1731.96 244.541 C 1733.25 247.25 1733.28 248.827 1732.14 251.6 C 1730.47 255.685 1726.56 257.516 1722.77 259.165 C 1715.18 258.033 1700.56 256.434 1696.31 249.234 C 1690.79 239.891 1696.42 200.04 1698.26 187.798 C 1699.54 179.271 1700.59 171.174 1707.95 165.787 z"/>
<path transform="translate(0,0)" fill="rgb(43,31,96)" d="M 1779.86 168.557 C 1788.57 165.054 1798.47 169.281 1801.96 177.993 C 1805.45 186.706 1801.21 196.598 1792.49 200.077 C 1783.79 203.549 1773.92 199.319 1770.44 190.623 C 1766.96 181.927 1771.17 172.053 1779.86 168.557 z"/>
<path transform="translate(0,0)" fill="rgb(43,31,96)" d="M 1642.98 168.071 C 1645.76 167.884 1648.78 167.779 1651.53 168.229 C 1656.3 169.008 1660.84 172.21 1663.29 176.358 C 1665.51 180.12 1666.04 184.645 1664.75 188.818 C 1662.82 195.146 1658.59 198.013 1653.01 200.969 C 1651.02 201.063 1648.97 201.189 1646.99 201.022 C 1642.48 200.646 1636.93 197.297 1634.32 193.667 C 1631.67 190.003 1630.93 185.76 1631.9 181.378 C 1633.31 175.034 1637.81 171.458 1642.98 168.071 z"/>
<path transform="translate(0,0)" fill="rgb(236,96,55)" d="M 1291.52 594.775 C 1297.28 583.498 1304.54 573.836 1314.01 565.385 C 1346.3 536.561 1388.86 530.161 1430.66 532.788 C 1475.48 538.957 1511.75 553.052 1539.88 589.906 C 1566.46 624.734 1575.34 667.022 1572.48 710.294 C 1570.95 731.232 1567.61 752.828 1561.72 772.969 C 1556.26 791.622 1547.21 807.475 1546.91 827.398 C 1548.91 852.849 1560.64 873.784 1579.87 890.357 C 1580.56 890.95 1581.26 891.534 1581.96 892.108 C 1570.51 919.348 1551.15 936.784 1524.01 947.977 C 1499.23 958.197 1467.17 963.158 1441.76 952.312 C 1423.38 944.466 1413.13 931.763 1404.83 913.969 C 1401.51 904.508 1397.9 895.388 1392.65 886.811 C 1392.2 886.659 1391.75 886.512 1391.3 886.355 C 1380.39 882.526 1368.79 881.305 1357.56 878.694 C 1327.4 871.687 1306.79 853.892 1290.72 828.067 C 1283.57 814.137 1280.54 799.233 1277.24 784.078 C 1266.32 783.616 1248.35 787.838 1238.83 782.782 C 1236.44 781.511 1235.1 779.96 1234.47 777.246 C 1231.64 765.089 1246 745.277 1251.37 734.449 C 1259.7 717.634 1270.97 700.104 1275.31 681.75 C 1277.33 673.212 1277.42 664.628 1277.71 655.909 C 1278.44 633.554 1280.4 614.634 1291.52 594.775 z"/>
<path transform="translate(0,0)" fill="rgb(3,165,151)" d="M 1291.52 594.775 C 1297.28 583.498 1304.54 573.836 1314.01 565.385 C 1346.3 536.561 1388.86 530.161 1430.66 532.788 C 1475.48 538.957 1511.75 553.052 1539.88 589.906 C 1566.46 624.734 1575.34 667.022 1572.48 710.294 C 1570.95 731.232 1567.61 752.828 1561.72 772.969 C 1556.26 791.622 1547.21 807.475 1546.91 827.398 C 1527.14 826.158 1503.8 817.137 1487.69 805.839 C 1480.1 800.518 1469.21 792.108 1467.89 782.394 C 1466.41 771.455 1482.32 759.39 1488.42 751.009 C 1497.95 737.915 1503.96 721.512 1501.16 705.16 C 1498.9 691.994 1489.54 680.297 1478.46 673.131 C 1443.91 650.765 1432.87 692.314 1415.91 695.362 C 1402.35 697.798 1345.98 668.958 1332.79 660.208 C 1307.56 643.466 1297.3 623.64 1291.52 594.775 z"/>
<path transform="translate(0,0)" fill="rgb(43,31,96)" d="M 1322.44 700.904 C 1325.17 700.875 1328.2 701.501 1330.69 702.619 C 1335.25 704.662 1338.5 708.306 1340.24 712.967 C 1342.17 718.26 1341.78 724.117 1339.17 729.107 C 1336.63 733.975 1333.21 735.615 1328.18 737.297 C 1325.38 737.197 1322.08 737.22 1319.43 736.311 C 1315.22 734.869 1311.63 731.081 1309.83 727.095 C 1307.87 722.759 1307.97 717.639 1309.61 713.222 C 1312.09 706.564 1316.19 703.773 1322.44 700.904 z"/>
<path transform="translate(0,0)" fill="rgb(3,165,151)" d="M 959.661 390.167 L 960.488 392.493 C 963.607 393.649 966.586 393.168 969.824 392.915 C 989.353 393.964 1013.15 395.775 1027.01 411.323 C 1040.67 426.647 1048.85 453.14 1047.84 473.416 C 1047.59 478.485 1046.37 480.415 1042.57 483.719 C 1063.55 486.76 1083.26 500.838 1095.68 517.637 C 1111.31 538.789 1116.87 567.355 1112.65 593.11 C 1110.75 604.727 1106.68 615.871 1101.31 626.317 C 1091.89 644.617 1077.89 660.853 1066.57 678.048 C 1057.77 691.418 1049.46 711.941 1038.1 722.512 C 1020.13 726.276 998.984 724.106 980.51 724.223 C 960 724.354 939.013 725.561 918.554 724.272 C 912.361 723.882 906.602 723.035 900.665 721.127 C 890.527 710.98 883.402 694.721 875.634 682.519 C 852.994 646.954 825.048 620.695 825.2 574.921 C 825.279 551.132 833.15 528.591 850.297 511.743 C 863.911 498.365 880.737 490.446 898.732 484.779 C 894.731 480.501 893.175 477.381 892.208 471.591 C 889.543 455.64 894.1 435.551 903.35 422.263 C 915.473 404.849 936.519 395.87 956.952 392.526 L 958.49 392.281 L 959.661 390.167 z"/>
<path transform="translate(0,0)" fill="rgb(236,96,55)" d="M 959.661 390.167 L 960.488 392.493 C 963.607 393.649 966.586 393.168 969.824 392.915 C 989.353 393.964 1013.15 395.775 1027.01 411.323 C 1040.67 426.647 1048.85 453.14 1047.84 473.416 C 1047.59 478.485 1046.37 480.415 1042.57 483.719 C 994.68 487.315 946.644 489.47 898.732 484.779 C 894.731 480.501 893.175 477.381 892.208 471.591 C 889.543 455.64 894.1 435.551 903.35 422.263 C 915.473 404.849 936.519 395.87 956.952 392.526 L 958.49 392.281 L 959.661 390.167 z"/>
<path transform="translate(0,0)" fill="rgb(236,96,55)" d="M 1021.4 552.96 C 1024.52 554.047 1027.21 555.182 1029.5 557.663 C 1031.23 559.539 1032.09 561.912 1031.79 564.469 C 1031.12 570.076 1026.83 572.878 1022.6 575.894 C 1018.94 574.255 1015.33 572.834 1013.09 569.331 C 1011.43 566.736 1010.8 563.655 1011.89 560.683 C 1013.57 556.132 1017.3 554.725 1021.4 552.96 z"/>
<path transform="translate(0,0)" fill="rgb(236,96,55)" d="M 893.566 544.362 C 897.024 542.974 900.964 543.576 903.85 545.932 C 906.737 548.289 908.114 552.029 907.445 555.695 C 906.777 559.361 904.168 562.373 900.635 563.56 C 895.387 565.322 889.689 562.59 887.776 557.395 C 885.862 552.199 888.428 546.425 893.566 544.362 z"/>
<path transform="translate(0,0)" fill="rgb(236,96,55)" d="M 967.836 669.256 C 971.374 668.36 975.122 669.441 977.639 672.085 C 980.156 674.73 981.052 678.526 979.982 682.016 C 978.912 685.507 976.043 688.149 972.477 688.929 C 967.087 690.107 961.748 686.745 960.481 681.375 C 959.214 676.005 962.487 670.612 967.836 669.256 z"/>
<path transform="translate(0,0)" fill="rgb(236,96,55)" d="M 951.85 583.798 C 957.066 582.888 962.076 586.236 963.233 591.402 C 964.389 596.569 961.284 601.732 956.178 603.133 C 952.652 604.1 948.881 603.049 946.363 600.398 C 943.846 597.747 942.991 593.927 944.138 590.456 C 945.285 586.985 948.249 584.426 951.85 583.798 z"/>
<path transform="translate(0,0)" fill="rgb(236,96,55)" d="M 919.254 635.696 C 922.289 636 925.301 637.173 927.438 639.436 C 928.995 641.084 929.618 642.872 929.5 645.117 C 929.23 650.277 926.157 653.16 922.527 656.429 C 919.422 656.215 915.69 654.563 913.76 651.981 C 912.083 649.739 911.53 647.509 911.925 644.758 C 912.6 640.048 915.633 638.201 919.254 635.696 z"/>
<path transform="translate(0,0)" fill="rgb(248,183,8)" d="M 959.661 390.167 C 956.53 355.167 956.146 320.77 940.708 288.342 C 935.584 277.645 929.146 267.629 921.544 258.526 C 897.84 230.309 865.686 208.051 861.156 168.411 C 860.352 161.368 860.239 153.551 865.091 147.823 C 870.463 141.481 880.898 139.083 888.835 138.902 C 901.409 138.614 911.298 145.053 919.83 153.671 C 927.357 161.274 933.673 170.053 939.707 178.861 C 945.622 187.495 954.388 207.04 962.83 212.141 C 964.876 211.371 964.368 211.991 965.256 210.185 C 975.518 189.311 948.716 152.135 976.287 110.954 C 981.269 103.513 987.535 96.4113 995.975 92.9092 C 1003.78 89.6692 1013.45 89.9334 1021.14 93.4226 C 1028.13 96.5977 1033.09 102.437 1035.45 109.716 C 1045.21 139.864 1019.88 170.928 1010.06 197.706 C 1005.32 210.656 1003.98 224.128 1002.57 237.746 C 1002.1 242.289 1000.37 250.59 1002.63 254.533 C 1006.07 254.666 1007.99 253.732 1010.51 251.529 C 1016.43 246.339 1021.14 238.74 1026.05 232.553 C 1041.46 213.144 1062.97 190.551 1090.03 192.028 C 1098.58 192.494 1108.54 195.068 1114.4 201.743 C 1119.16 207.179 1120.69 212.561 1120.11 219.664 C 1118.9 234.559 1108.44 247.379 1097.33 256.59 C 1084.77 267 1070.14 274.975 1056.63 284.072 C 1021.53 307.703 973.981 344.163 970.015 389.76 C 969.924 390.81 969.861 391.862 969.824 392.915 C 966.586 393.168 963.607 393.649 960.488 392.493 L 959.661 390.167 z"/>
<path transform="translate(0,0)" fill="rgb(236,96,55)" d="M 968.096 292.718 C 970.913 291.449 974.197 291.817 976.664 293.677 C 979.131 295.536 980.388 298.593 979.944 301.65 C 979.5 304.707 977.425 307.279 974.531 308.36 C 970.254 309.957 965.482 307.874 963.745 303.652 C 962.008 299.431 963.934 294.592 968.096 292.718 z"/>
</svg>