<svg xmlns="http://www.w3.org/2000/svg" width="1365.333" height="1365.333" preserveAspectRatio="xMidYMid meet" version="1.0" viewBox="0 0 1024 1024"><g fill="#000" stroke="none"><path d="M0 512v512h1024V0H0zM890 29.3c20.8 5.4 33.2 14.3 44.8 32.1 8.6 13.2 11.6 23.8 11.6 41.1.1 15.4-1.7 24.1-7.3 36-9.5 20-25.4 33.6-46.6 39.7-7 2-10.3 2.3-25.5 2.3-16.5 0-17.9-.2-25.4-2.8-21.7-7.5-36.7-20.7-46.6-41.2-6.4-13.3-7.5-18.4-7.3-33 .2-14.8 2.2-24.3 7.2-34.9 9.1-19.3 23-31.5 42.8-37.5 4-1.3 9.4-2.7 12-3.1 6.8-1.3 33.7-.3 40.3 1.3M512.7 47.7c4 2.6 5.7 7.1 5.7 14.3-.1 7.9-1.1 11.2-8.5 26.6-5.7 11.9-7.1 17-8.4 30.5-.9 9 .5 9.8 5.9 3.5 16.9-20 25.9-26.6 36.1-26.6 17.5 0 22 14.1 9.2 28.7-1.7 2-8.4 7-14.7 11.1-32.2 21-46.6 35.8-51.8 53.5-1.8 6.3-1 7.1 8.4 8.1 12.4 1.3 18.6 5.3 23.7 15.5 2.4 4.7 3.9 9.6 4.7 15.4 1.5 9.7.9 13.2-2.2 14.2s-61.5 1.9-68.3 1c-3.9-.4-5.2-1-4.9-2 .3-.7.1-1.6-.5-2-1.6-.9-1.3-14.2.4-19.8 3.2-10.7 10.7-17.4 24.5-22.1 5.7-1.9 7.5-2.9 7.5-4.3-.1-6.5-2-23.3-3.5-31.2-3.1-15.5-8.7-25.4-23.1-40.8-12.3-13.1-17.6-20.7-20.4-28.9-4.8-14.2-1.8-21.2 9.7-22.8 5.4-.8 11.1 1.2 16.6 5.9 3.3 2.8 13.6 17 18.7 25.8 5.1 8.9 7.2 3.4 4.9-12.8-1.4-9.1-1.4-12.1-.5-17.5 2-10.8 8.2-20.5 15.6-24.5 3.6-1.9 11.4-1.3 15.2 1.2M185 77.8c2.7 2.2 3.9 7.8 4.1 19.2 0 4.7.4 9.6.8 11 .8 2.8.2 2.7 13.4.9 7.7-1.1 8.9-1.1 10.3.3 1.5 1.5 12.4 44.5 18 71.3 1.4 6.6 3.9 17.3 5.5 23.7 3.6 14.3 3.7 17.1.7 18.6-4 2-10.1 3.2-16 3.2-7.2 0-7.8-.8-11.2-15-1.4-5.8-4.2-17.3-6.2-25.5-2-8.3-5.5-23.3-7.8-33.5-2.2-10.2-4.6-18.5-5.1-18.5-.6 0-1 16.1-1 45.3v45.4l-2.4 1.9c-2.1 1.7-3.8 1.9-15 1.7l-12.6-.3v-72.6c0-71.3 0-72.7 2-74.9 2.9-3.2 5.1-3.9 13.1-3.9 5.5-.1 7.7.3 9.4 1.7m103.4 1.3c3.5 4.1 3.9 6.4 3.4 17.2-.5 9.8.4 20.5 2.2 25.2.9 2.4 1.3 2.6 2.4 1.4.7-.8 1.8-4.3 2.4-7.7 1.5-8.3 4.5-14.6 10.1-20.5 5.3-5.7 8.8-7.7 13.4-7.7 5.1 0 7.2 2.9 7.1 9.9-.1 10-9.5 24.7-21.7 33.9-8.4 6.3-9.1 8.1-8.2 22.9l.7 12.3h-4.1c-2.7 0-5.6-.9-8.3-2.6-2.2-1.4-7.9-3.7-12.7-5.1-4.7-1.4-9.9-3.2-11.6-4-11.8-6.1-18-17.8-12.4-23.4 4.8-4.8 18.6 0 30.6 10.6 3.4 3.1 6.4 5.1 6.7 4.6 1.1-1.7-1.2-18.6-3.3-24-1.1-3-3.9-8.1-6.2-11.4-9.1-12.9-10.5-25-3.7-31.8 4.2-4.1 9.6-4.1 13.2.2m-165.7 0c2.4.8 3.2 1.8 3.8 4.7.5 2 .9 35.1 1 73.4l.1 69.8-12 .2c-17.7.3-19.7.1-22-2.1-1.9-2-2-3.3-2-72.6 0-49.8.3-70.8 1.1-71.6.6-.6 2.6-1.5 4.5-1.9 5-1.2 22.1-1.1 25.5.1m661.5 103.2c10.6 3.8 17.4 8.4 28.1 18.7 15.9 15.2 21.8 24.5 29.1 45.5 1.9 5.5 4.9 13.1 6.6 16.9 2.8 6.4 3.2 6.8 4.7 5.4 1.1-1.2 1.8-5 2.4-15 2.1-30.1 3.9-39.3 7.9-39.3 3.4 0 4.2 7 3.6 28.6-.6 19.9.1 27.7 2.3 25.3.5-.5 2.5-5.9 4.5-11.9 7.2-21.8 22.1-41.5 42.1-55.7 12.4-8.8 22.2-12 37.5-12.2 10.6-.1 11.9.1 16 2.4s4.5 2.9 4.8 6.6-.3 4.9-5.6 11.5c-7 8.7-19.9 21.3-26.2 25.6-6.8 4.6-13.6 7.8-22.9 10.7-12.4 3.9-19.7 8.2-27.7 16.1-7.2 7.1-14.1 18.3-13 21.1.4 1.1 3.7 1.4 15.8 1.4 8.4 0 16.3.3 17.5.6 4.5 1.2 4.6 6.9.4 23.9-3.9 15.7-5.5 20.1-14.8 41.2-4.9 11-9 18.9-11.1 21.1l-3.2 3.5-22.6-.6c-17.1-.5-23.1-1-24.8-2-2.5-1.7-15.9-31.2-20-44.2-3.7-11.7-8.6-31.9-8.6-35.9 0-5.5 1.5-6.1 18.4-6.4 8.3-.2 15.4-.7 15.8-1.1 1.1-1-5.2-13.7-9.8-19.7-6.8-9-10.4-11.3-27.1-17.5-5.6-2.1-12.2-5.1-14.6-6.8-10.3-7-19.1-19.4-30.4-42.5-5.6-11.6-5.7-15.3-.3-17.6 4.1-1.7 17.7-.5 25.2 2.3m-625.9 79.2c13.7 4.1 26.6 14.6 31.5 25.6 3 6.6 6.6 10.4 17.5 18.6 3.5 2.6 5.7 5 5.7 6.2 0 2-6.5 8.1-8.6 8.1-.6 0-1.9.9-2.9 2-1.6 1.8-1.7 2.5-.6 6.1 1.1 3.8 1 4.6-1.2 9-2.2 4.1-2.4 5-1.1 6.6 2.2 2.9 1.6 7.5-1.6 12.6-3.5 5.5-9.4 10-18.1 13.6-7.6 3.2-10.1 6.6-10.3 14.4-.1 5 0 5.3 3.4 6.9 4.1 2.1 18.7 2.5 27.2.7 9-1.9 17.7-6.7 24.4-13.3 9.6-9.6 13.5-18.8 23.4-54.5 2.8-10.1 6.4-22.2 8.1-26.9 7.1-20.4 15.5-30.2 25.8-30.4 12.8-.2 14.3 13.5 4.3 38.7-1.1 2.8-2.5 10.1-3.2 16.5-1.6 16.1-5.5 40-8.5 52.5-3.7 15.1-7.9 26.2-13 34-2.5 3.7-4.3 7-4.1 7.4.2.3 12.7 0 27.8-.6 18.1-.9 82.9-1.4 193.2-1.7 91.2-.3 166-.7 166.3-1 .3-.2-.4-3.1-1.5-6.3s-2.4-7.6-2.8-9.8l-.9-4h-9.1c-15.5 0-15.8-2-4-24.8 11.7-22.8 12.6-25.4 13.6-42.3.7-10.9 1.5-15.6 3.3-20.5 1.3-3.5 2.8-6.3 3.3-6.1.5.1 1.4 2.1 2 4.5 2.9 11 12.4 23.4 21.9 28.3 2.2 1.1 4.9 2.5 6 3.1s4.5 2.2 7.5 3.6 8.2 3.7 11.5 5.2 7.9 3 10.2 3.3c4 .4 4.5.1 10-4.9 3.2-3 7.3-6.2 9.2-7.3 9.2-5.1 24.3 4.7 27.2 17.5 2 8.7-2.1 19.8-10.3 28.3-2.7 2.8-5.4 5.9-5.9 6.9-1.8 3.2.8 8.4 6.4 12.9 7.1 5.6 21.1 11.8 26.8 11.8 1.4 0 2.9.3 3.3.7s13.6.9 29.4 1 30.7.5 33.2.8 9 .8 14.5 1.1c22.8 1.3 45.6 5.7 60.1 11.6 13.8 5.7 28.9 18.7 36.5 31.4 11.9 20 15.8 42.6 14.4 83.9-.5 13.2-.9 27.1-.9 31l-.1 7 5.5 1.3c10.3 2.3 12.6 3.2 17.4 6.4 6.5 4.2 13.1 13.4 15.6 21.5 5.9 19.2 5.2 79.3-2.1 160.3-1.1 12.4-2.4 27.2-2.9 33-1.1 12.9-3.6 34.2-5.6 47-4.5 28.4-12.2 38.8-31.6 42.5-10.9 2-36 2.7-135.6 3.4l-90.2.6V892c0-2.5.5-9 1-14.5.6-5.5 1.3-12.9 1.6-16.5s.9-8.9 1.5-11.9c.5-3 .9-7.8.9-10.7s.4-5.6 1-5.9 1-2.6 1-5.1c0-5.6 2.2-11 6.3-15.2 5.9-6.2 7.4-6.5 27.7-6.8 10.2-.1 21.7-.5 25.5-.8 3.9-.3 12.6-.8 19.5-1.1 12-.6 24.6-2.6 28.2-4.6 1-.5 2.4-.9 3.1-.9 2.2 0 18.9-10 24.7-14.8 5.1-4.3 10.6-11.5 14.4-18.9.8-1.7 2.3-7.3 3.1-12.5.8-5.1 1.7-10.6 2-12.1s.1-2.6-.3-2.3c-.4.2-.6-1.7-.6-4.2l.1-4.7 6.9-1.8c3.8-1 9.1-2.9 11.7-4.2 2.7-1.4 5.4-2.5 6.1-2.5 1.2 0 12.3-10.5 14.3-13.6 1.4-2 6.3-12.2 6.3-12.9 0-.2.5-1.6 1.2-3.2 6.2-14.7 3.5-62.6-5.6-100.4-1.4-5.9-2.6-11.8-2.6-13.2s-.4-2.9-1-3.2c-.5-.3-1-1.5-1-2.6 0-3.5-12.3-39.9-15.3-45.4-.6-1.1-2.3-4.5-3.8-7.5-11.9-24.2-34.7-45.8-57.9-54.8-10.7-4.2-26.7-9.2-35-11.1-5.2-1.2-10.8-2.6-12.5-3-7.4-2.2-10.5-2.3-11.2-.4-3 8.3-14.7 19.6-25.3 24.5-11.2 5.2-15.9 6.2-27.5 6.3-9.9 0-11.6-.3-16.8-2.7-6.5-3.1-16.7-12.6-16.7-15.7 0-4-5-3.9-24.5.5-6 1.4-11.8 2.9-12.7 3.4-1 .6-2.3 1-2.9 1-1.6 0-19 8.9-22.6 11.6-1.7 1.3-3.6 2.4-4.1 2.4s-3.3 2.5-6.2 5.5c-3 3-5.6 5.2-6 5-.3-.2-1.2 1-1.9 2.6-.7 1.7-2.4 3.4-3.7 3.9-1.4.6-2.4 1.8-2.4 2.9 0 2.1-2.3 4.5-3.3 3.4-.4-.3-.7.3-.7 1.4s-.3 2.3-.7 2.7c-.5.4-.8 1.3-.8 1.9 0 .7-.7 1.2-1.5 1.2-.9 0-1.7 1.3-2 3.5-.8 4.6-2.8 8.2-4.1 7.4-.7-.4-.9.3-.7 1.7.2 1.6-.1 2.3-1.1 2.1s-1.2.4-.7 2.2c.4 1.7.1 2.8-.8 3.3-.8.4-1.4 1.7-1.3 2.8.1 1.2-.3 1.9-1.2 1.7s-1.2.4-.8 1.8c.7 2.8-2 9.3-3.5 8.4-.7-.5-.9.1-.4 1.9.3 1.4.2 2.8-.3 3.1-.4.3-1.1 2.4-1.5 4.7s-1.2 5.1-1.8 6.3c-.7 1.1-1.2 2.5-1.3 3.1-.3 3.2-4.9 16.2-6.1 17.1-1 .8-1.3 2.1-.9 3.7.4 1.4.1 3.6-.6 4.9-.7 1.2-1.2 3.3-1 4.6.1 1.3-.4 2.5-1.3 2.8-1.1.4-1.4 1.4-1 2.9.3 1.3.1 2.6-.5 2.9-.6.4-1.1 2-1.1 3.5s-1.1 9.4-2.5 17.7c-3.6 21.2-3.5 35.8.2 47.9 2.7 8.6 3.2 9.4 10.5 16.7 4.2 4.3 8.3 7.8 9 7.8s3 1.1 4.9 2.5c2 1.3 3.8 2.3 4.1 2.2.5-.3-2.8 2.7-8 7.1-6.8 5.7-16.1 18.7-21.3 29.7-7.5 15.8-11.7 34.1-13.8 60.5-1.8 22.5-5.1 82.4-5.1 92.7v4.3H350.3c-205.4-.1-254.3-.7-268.5-3.4-24-4.6-32.5-19-37.3-63.5-8-73.6-12.9-183-9.1-201 4.4-21 17.1-34 40.1-41.6 15.6-5.1 42.8-4.4 55.1 1.4 3.5 1.7 6.4 2.9 6.5 2.8 0-.1.2-16.4.4-36.2s.5-37.4.7-39l.3-3-32.8-.3c-27.2-.2-32.9-.5-33.3-1.6-1-2.5 1.6-40.7 3.6-54.4 4.2-28.9 12.3-45.6 32.2-66.9 11.5-12.2 13.6-16.6 12-24.6-1.6-7.9-2.5-9.6-9.6-18.2-12.6-15-15-21.4-14.5-37.9.4-10.9.5-11.5 4.6-19.8 8.8-17.7 26.1-28.5 45.8-28.7 3.9-.1 9.2.6 11.8 1.4m294.5 11.7c1.7 1.7 1.5 6.3-.3 7.8-.8.7-2.6 1.2-4 1.2-3.4 0-5.5-1.9-5.5-5.1 0-3.5 1.7-5.1 5.5-5.1 1.7 0 3.6.5 4.3 1.2m61.7 5.3c1.4 1.3 2.5 2.8 2.5 3.3 0 1.9-4.2 6.2-6.1 6.2-2.5 0-5.9-3.5-5.9-6 0-2.4 3.4-6 5.5-6 .9 0 2.7 1.1 4 2.5m-34.8 14.7c2.9 2.7 2.9 4.9-.1 7.7-2 1.9-2.8 2.1-4.5 1.2-5.3-2.9-4.4-10.5 1.3-11 .6-.1 2 .9 3.3 2.1m-16.2 26.3c2.1 2.4 2.2 2.8.9 5.4-2.1 4.2-4.5 4.7-7.1 1.6-3-3.4-2.9-4.9.3-7.4 3.3-2.6 3-2.6 5.9.4m25.2 16.7c2.7 2.5 2.9 4.5.6 7-3.1 3.5-9.3 1.5-9.3-2.9 0-3 2.5-6.3 4.8-6.3.9 0 2.6 1 3.9 2.2m331.6 193.9c3.1 2.4 4 5.4 6.2 20.9.9 6.3 2.3 15.8 3.1 21 4.7 29.7 8.4 60.1 8.4 68.5 0 9.8-2.3 12.2-17 17.3-19.6 7-23.6 8.4-25.5 9.3-1.1.5-3.8 1.5-6 2.3s-3.9 1.9-3.8 2.5c.2.6-.1 1.1-.6 1.1-.4 0-1.1 4.8-1.5 10.7-.6 10-4.6 32.5-6.7 38-.7 1.9-1.3 2.2-3.6 1.7-1.6-.3-4.1-1.3-5.7-2-1.6-.8-3.9-1.4-5.2-1.4-5 0-31.4-10-37.7-14.3-1.5-1-3.5-1.6-4.3-1.3s-1.3.2-1-.3c1.2-1.9-8.8-8.3-22.8-14.6-8-3.6-21.2-9.5-29.3-13.1-8.2-3.6-15.4-7.1-16.2-7.7-3.7-3.1-5.1-9.3-6.6-30.4-.8-11.4-1.9-24.9-2.4-29.8-.6-5-1.5-13.5-2.1-19-.5-5.4-1.5-12.6-2-16-2-13-4.1-34-3.6-36.2.9-3.3 3.7-4.4 8.8-3.4 4.3.9 13.8 4.1 19.3 6.6 19 8.6 26.8 12.2 35.5 16.4 5.6 2.8 12.9 6 16.1 7.2 7.5 2.7 8.6 2.4 29.8-7.8 23.9-11.5 26.6-12.8 40.6-18.3 25.4-10.2 31.3-11.5 35.8-7.9"/><path d="M852.2 84.8c-2 2-3.5 11.3-4.8 28.4-.8 10.4.4 13.1 6.3 14.7 8.3 2.3 12.3 1 12.3-4.1 0-2.9-2.3-4.8-6.1-4.8-2 0-2.1-.3-1.5-4.8 1.6-11.8 2.6-23.7 2-25.6-.8-2.8-3.4-5.6-5.1-5.6-.7 0-2.1.8-3.1 1.8m-33.7 1.8c-6 6.5.2 16.1 8.5 13.3 3.6-1.3 5-3.6 5-8.3 0-6.9-8.7-10.1-13.5-5m69-.1c-5.1 5.1-1.6 13.8 5.6 13.8 3.6 0 7.3-3.4 8.3-7.6.5-2.2.1-3.4-2.3-5.7-3.8-3.8-8.2-4-11.6-.5m-53.9 50.7c-2.4 3.4.5 7.4 8.8 11.9 15.3 8.3 32.7 7.6 42.4-1.7 3.7-3.6 4.3-4.7 4-7.5-.3-2.9-.7-3.4-3.3-3.7-2.2-.3-3.5.3-5 2.1-3.4 4.2-7.9 5.8-16.5 6-7.6.1-8.2 0-16.9-4.6-5-2.6-9.7-4.7-10.5-4.7s-2.2 1-3 2.2M167.5 299.5c-3.6 3.5-3.5 9.6.1 12.4 4.5 3.5 9.5 2.6 11.9-2 2.1-4 1.9-6.3-1.1-9.8-3.3-3.9-7.4-4.1-10.9-.6m489.8 53.7c-3.2 3.5-3.7 7.7-1.3 11.5 1.7 2.9 2.5 3.3 6.3 3.3 5.7 0 7.7-2.1 7.7-8.3 0-3.7-.5-4.9-2.6-6.6-3.5-2.7-7.5-2.7-10.1.1M281.4 617.5c-3.7 4.1-6.1 4.4-12.9 1.4-3.9-1.7-5.2-1.9-7.3-1-2.4 1.2-2.4 1.2-.6 3.3 2.8 3.1 9.3 5.8 14.2 5.8 7.4 0 13.6-4.6 13-9.7-.4-4-2.8-3.9-6.4.2m-67.7 1.2c-1.4 1.4-.6 4 2.1 6.5 5.9 5.5 9.9 6.1 17.8 2.4 6.4-3 7.2-4.2 4.6-6.9l-2.1-2.1-4.4 2.2c-5.6 2.8-7 2.8-11.5-.3-3.8-2.6-5.4-3-6.5-1.8m30 18.1c-2.4 2.6-2.2 3.2 2.3 9.2 6.2 8.3 5.1 12.5-2.2 8-4-2.4-7.6-2.6-8.5-.3-1.3 3.3 9.8 9.3 17.1 9.3 7.9 0 17.6-6 17.6-10.9 0-3.3-2.8-3.7-5.8-.9-2.6 2.5-6.4 4.8-7.7 4.8-1 0 0-8.7 1.6-13.6 1.9-6.4 1-7.4-6.4-7.4-4.9 0-6.8.4-8 1.8m173.8 6.4c-14.5 7.6-23.9 20.2-25.2 34-.8 8.7 2.1 22.6 7.2 35 .6 1.6 0 1.8-6.1 1.8-8.5 0-25 2.4-32.3 4.7-7 2.2-14 6.9-16.4 11-2.5 4.4-1.2 6.2 2.2 2.9 9.1-8.7 32.7-13.6 65.7-13.6 11 0 14.4-.3 15.3-1.4 1.4-1.7 1.1-1.9-6.1-4-7.9-2.3-14.9-8.1-18.4-15.3-3.7-7.4-4.5-18.5-1.9-26.2 2.3-7 9.5-16.2 18.2-23.4 4-3.3 7-6.3 6.7-6.8-.9-1.5-4.7-.9-8.9 1.3M520.9 692c0 .3-.2 3.4-.3 7-.8 17-16.5 32.9-42.1 42.8-2.7 1-5.9 2.3-7 2.7-1.1.5-2.3.9-2.7.9-.5.1-.8.4-.8.8 0 .7.4.9 1.3.7.1 0 2-.2 4.3-.4 13.1-1.1 29.9-9 39.5-18.5 8.8-8.8 12.4-16.1 12.3-25.3 0-5.6-.4-7.1-2.2-9-1.2-1.2-2.2-1.9-2.3-1.7m-286.4 16.7c-37.1 4.8-78 15.7-93.7 24.9-6.9 4-7.7 4.8-6.8 6.5.6 1 1.5 1.9 2 1.9.4 0 6.6-2.5 13.7-5.6 23-10.1 37.2-14.3 70.2-20.9 20.2-4 23.5-5 22.6-6.5-.6-1-2.3-1.1-8-.3"/></g></svg>