<svg xmlns="http://www.w3.org/2000/svg" width="1365.333" height="1365.333" preserveAspectRatio="xMidYMid meet" version="1.0" viewBox="0 0 1024 1024"><g fill="#000" stroke="none"><path d="M851.5 26.6c-21.3 3.4-38.7 12.9-49.2 26.9-9.8 13-14.2 26-15.8 46-1.7 22.9 9.7 49 27.9 63.9 6.4 5.2 19.5 12.6 22.3 12.6 1.2 0 2.4.4 2.7.9.3.4 4.4 1.6 9 2.6 11.8 2.5 32.5 1.7 44.6-1.8 33.3-9.5 53.4-37.7 53.5-75.2 0-11.9-.5-15.1-4.7-28-2.4-7.4-9-18.1-15.8-25.7-5.3-6-18.9-15.8-21.9-15.8-.9 0-2.1-.4-2.6-.9-.6-.5-5-1.9-10-3.1-8.8-2.2-32.3-3.6-40-2.4m39.5 3.3c15.1 3.9 26.7 11 35.8 21.9 13.4 16.1 18.7 30.6 18.7 50.7-.1 14.3-2 23.5-7.4 35-9.5 20-25.4 33.6-46.6 39.7-6.9 2-10.3 2.3-25 2.3-16 0-17.5-.2-24.9-2.8-21.7-7.5-36.7-20.7-46.6-41.2-6.3-13.1-7.5-18.5-7.3-32.5.2-14.3 2.2-24 7.2-34.4C804 49.4 818.1 37 837.7 31c11.3-3.4 15.9-3.9 31.3-3.5 10 .3 16.8 1 22 2.4"/><path d="M851.2 83.8c-2 2-3.6 11.7-4.8 28.9-.5 7.6-.4 9.7 1 11.7 1.7 2.7 7 4.6 12.7 4.6 4.4 0 5.9-1.5 5.9-5.7 0-3.5-2.1-5.3-6.1-5.3-2 0-2.1-.4-1.5-4 1.5-9.3 2.6-24.3 2-26.3-1.6-5.4-5.9-7.2-9.2-3.9m7.1 2.4c1.7 2.3 1.8 3.3.8 12.9-.6 5.7-1.3 12.5-1.7 15.1-.6 4.5-.5 4.8 1.5 4.8 5.4 0 8.2 5 4.6 8-2.7 2.2-11.6.6-14.4-2.6-2.2-2.6-2.3-3.2-1.7-12.3 1.2-16.5 2.7-25.2 4.8-27.3 2.3-2.3 3.5-2 6.1 1.4m-40.8-.6c-6.5 7 .2 17.3 9.2 14.3 4-1.3 5.3-3.4 5.3-8.8 0-3.1-.6-4.4-2.6-6-3.8-3-8.9-2.8-11.9.5m11.2.6c3.9 3.6 3 9.9-1.8 12.3-3.8 2-4.2 1.9-7.8-1.1-3.8-3.2-4.1-7.1-.6-10.8 3-3.2 7-3.4 10.2-.4m57.8-.7c-3.5 3.4-3.4 9.3 0 12.5 5.3 5 13.4 1.9 15-5.7.6-2.8.2-3.8-2.3-6.3-3.9-3.9-9.2-4.1-12.7-.5m11.5 1.1c3.8 3.3 3.5 6.4-1.1 10.6-3.6 3.5-4.9 3.5-8.8.2s-4.1-7.4-.6-10.9c3.1-3.2 6.6-3.2 10.5.1m-64.8 48.6c-2 2-1.4 6.7 1.2 9.3 3.2 3.2 12.9 7.9 19.5 9.5 5.9 1.4 15.4.9 22.3-1.2 2.4-.7 6.1-3.1 8.6-5.4 3.9-3.7 4.3-4.6 4-8-.3-3.6-.5-3.9-3.7-4.2-2.6-.3-4 .2-5.8 2.2-3.9 4.3-7.9 5.7-15.8 5.9-7 .1-7.9-.1-16.4-4.6-9.4-4.9-11.9-5.5-13.9-3.5m9.8 2.8c9 5.3 12 6.2 20.1 6.2 8.5 0 13.4-1.6 17.1-5.7 3.3-3.5 7.2-3.2 7.6.7.4 3.4-4.4 8.9-10.1 11.7-5.6 2.7-16.9 3.7-23.7 2.1-6-1.4-16.6-7-19.2-10.2-2.1-2.4-2.3-4.9-.6-6.6 1.8-1.8 3.2-1.5 8.8 1.8M494.9 46.5c-3.5 1.9-7.5 7.3-11 15-2.4 5.5-2.9 7.7-2.9 14.7 0 4.6.5 11.8 1.2 16 .9 6.2.9 8.3-.1 10.5-1.5 3.3-.7 4.1-10.1-10.4-6.6-10.4-11.7-16.3-17.4-20.5-7.5-5.4-22.5-3.1-24.2 3.8-.4 1.4-.4 5.5-.1 9.1.8 10.5 5.8 19 19.4 33.5 21.1 22.6 25.7 32.8 28.3 63.8.6 7.4 1.5 13.9 1.9 14.3.5.5 1.7.7 2.7.5 1.3-.2 2.1-1.8 2.9-5.9 2-9.8 11.4-24.2 21.7-33 7.2-6.2 18.3-14.3 30.3-22.1 19-12.4 25.5-22.6 21.1-33.2-1.9-4.6-7.4-7.1-15.6-7.1-10.8.1-19.5 5.8-31.7 20.9-6.5 8.1-8.9 10.3-10.1 9.2-.9-1 1.5-20.7 3.1-25.1.8-2.2 4.1-9.6 7.3-16.4 5.1-11 5.8-13.3 6.2-20.1.8-14.2-2.9-19-14.3-19-3.3.1-7.2.7-8.6 1.5M512 48c4.1 2.9 5.3 6.9 4.8 15.8-.4 6.9-1.1 9-6.7 20.7-7.1 14.6-8.7 20.2-9.7 33.3-.6 8.7-.6 9.2 1.3 9.2 2.6 0 4-1.2 11.1-10.2 14.5-18 27.4-24.3 38.6-18.8 8 3.8 9.8 11.2 4.8 19.1-4.2 6.5-8.6 10.4-19.7 17.7-12.1 7.9-23.2 16-30.3 22.1-10.2 8.8-19.2 22.4-21.5 32.6-.9 3.9-1.9 6-2.8 6-1.5 0-2-2.9-3.8-21-2.4-25.4-7.5-36.1-26.9-56.7-10.9-11.5-17.2-20.7-19.1-27.5-1.4-4.9-1.4-12.9-.1-15.4 1.6-3 6.4-4.9 12.3-4.9 4.3 0 6.2.6 9.3 2.8 6.8 5 13.6 13.7 23.8 30.4.9 1.6 2.3 2.8 3.1 2.8 2.9 0 3.8-4.9 2.6-13.6-.6-4.4-1.1-11.6-1.1-16 0-6.7.5-8.9 3-14.2 3.6-7.6 7.5-12.8 10.9-14.7 4-2.2 12.7-1.9 16.1.5"/><path d="M481.7 145.7c-.4.3-.7 2.1-.7 4 0 2.6.5 3.6 2.3 4.2 4.4 1.7 8.6-3.9 5.7-7.5-1.3-1.4-6.1-1.9-7.3-.7m6.7 2.5c1.5 2.5-1.9 6.1-4.5 4.7-1.9-1-2.6-4.9-1.2-6.3 1.2-1.1 4.5-.2 5.7 1.6M167 76c-5.7 1.4-6.6 3.5-7.4 16.2-.4 6.2-.9 11.4-1 11.6-.2.1-7.3.4-15.7.5l-15.4.2-.6-11.5c-.4-6.3-.7-12-.8-12.7-.5-4.2-30.2-4.6-34.4-.4-.8.8-1.1 23.1-1.1 72.1 0 70.5 0 71 2.1 73.1 2 2 2.9 2.1 47.7 2.2l45.6.2 2.2-2.3 2.3-2.3-.1-37.7c-.1-44.7-1.2-90-2.4-99.6-.4-3.8-1.5-7.5-2.3-8.4-1.8-1.7-13.5-2.5-18.7-1.2m17.7 2.3c1 .9 2 4.3 2.4 7.9 1.1 9.1 2.2 56.6 2.3 99.1l.1 36.9-2.5 2.1c-2.6 2.2-2.6 2.2-46.9 2-43.3-.2-44.5-.2-46.5-2.2-2-2.1-2-2.9-2.1-71.3 0-38.1.3-70.1.7-71 1.2-2.5 7.1-3.8 18-3.8 15.3 0 15.8.5 15.8 17.6 0 9.3 0 9.4 2.6 10 1.5.4 8.9.4 16.5 0l13.9-.7.2 33.8c.2 18.6.3 45.3.3 59.5 0 14.1.2 25.9.5 26.1.3.3.5-31.6.5-70.8 0-68.9.1-71.4 1.9-73.4 2.7-2.9 7-4.1 14.4-3.8 4.2.2 6.8.8 7.9 2m90.4-.7c-7.8 6.5-6.5 18.6 3.8 34.2 5.8 8.9 7.5 14.1 8.6 26.3l.7 8.3-5.2-4.5c-12-10.2-17.4-12.9-26.1-12.9-5.1 0-6.1.3-7.5 2.5-2.5 3.9-1 9.9 3.9 15.2 4.8 5.2 10.8 8.5 20.5 11.2 7.2 2 12.6 4.4 13.7 6 .3.6-1.1 1.3-3.1 1.7-1.9.3-3.8 1.3-4.1 2.2-.4.8.1 4.3 1 7.8 2.9 10.7 2.7 11.6-5.7 19.7-6 5.9-7.5 8-8 11.3-.9 5.1 2.2 13.9 6.3 17.8l2.9 2.7 20.9-.3c23.4-.3 22.6-.1 27.5-7.7 2.1-3.4 2.8-5.7 2.8-9.4 0-6.3-.9-7.8-9.3-16.4-6.9-7-7.1-7.4-7-12.1 0-2.7.6-5.8 1.2-7 1.4-2.7 1.4-6.9 0-7.8-.7-.4-3.7-1-6.8-1.3l-5.6-.6-.7-4.5c-.3-2.5-.7-8-.7-12.3-.1-9.1 1.1-11.5 8.7-17.3 6.4-4.8 14.7-14.7 18.2-21.8 3.8-7.5 4.3-17.3 1-20.6-5.7-5.7-18.7 1.7-25 14.1-1.2 2.2-2.9 7.8-3.9 12.3-1 4.4-2.2 8.1-2.7 8.1-2.4 0-3.7-8.3-3.6-22.4.1-12.2-.2-15.1-1.7-18.7-3.1-6.9-9.4-8.5-15-3.8m10-.6c1 .6 2.8 2.8 3.9 5 1.7 3.4 1.9 5.6 1.8 17.7-.2 10.7.1 15.1 1.5 19.5 1.4 4.5 2.1 5.5 3.5 5.1 1.3-.3 2.1-2.2 3-8 .6-4.1 2.2-9.5 3.4-12 6.5-13.1 19.8-21.4 24.2-15.1 2.7 3.9 2.1 12.1-1.5 18.8-3.8 7.2-11.8 16.6-18.6 21.9-8 6.3-8.7 8.2-8 22.8l.7 12.3h-3.7c-2.4 0-5.1-1-7.5-2.6-2-1.5-7.5-3.7-12.1-5-10.3-2.9-16.3-6.2-21.5-11.8-4.9-5.3-6.3-10.7-3.7-13.6 1.4-1.5 3.1-2 7.5-2 6.5 0 13 3.3 22.8 11.9 8.1 7.1 8.6 6.9 7.8-3.2-1.1-13.2-3.1-19.2-9.7-29.4-9-13.9-10.1-22.6-3.7-29.8 3.1-3.6 6.2-4.4 9.9-2.5m26.1 90.1c2.1 1.1 2.3 4 .7 7.2-.7 1.1-1.2 4.5-1.2 7.5 0 5.3.1 5.4 7 12.5 8.2 8.4 9.3 10.2 9.3 15.5 0 4.6-5 12.9-9 14.9-1.7.9-8.3 1.3-21.6 1.3h-19l-2.7-2.8c-1.4-1.5-3.6-4.9-4.7-7.6-3.4-7.5-2.3-10.5 6.6-19.2 6.7-6.6 7.4-7.6 7.4-11.2 0-2.1-.7-6.2-1.6-9.1-2-6.7-1.6-8.2 2.3-9.5s23.8-.9 26.5.5m-112.9-58.7c-3.4.6-6.4 1.4-6.8 1.7-.3.3 2.7 0 6.7-.7 10.9-1.9 13.5-1.8 15.2.8.8 1.3 3.8 12 6.6 23.8s5.8 24.2 6.6 27.5 2.6 11.4 4 18 3.9 17.3 5.5 23.7c3.9 15.7 3.9 17.1-.8 19.4-2.2 1-7.1 1.9-11.4 2.2-10.4.6-9.8 1.6-17.4-30.8-.8-3.6-3.5-14.6-5.9-24.5-2.4-10-5.2-22.5-6.2-27.8s-2.1-9.7-2.5-9.7c-.8 0 2.5 15.6 9.3 43.5 2.8 11.5 5.4 22.9 5.9 25.1 1.8 9.2 5.1 21 6.5 23.1 1.2 2 2.3 2.3 7.7 2.3 6.3 0 12.4-1.2 16.5-3.2 3-1.5 2.9-5.2-.7-19.6-1.6-6.4-4.1-17.1-5.5-23.7-4.9-23.1-16.4-69.5-17.6-71-1.4-1.7-6.6-1.8-15.7-.1m561 70.7c-6.9 2-6.7 6.2 1.4 22.4 8.2 16.3 12.7 23.7 18.3 29.8 6.7 7.3 12.4 10.9 25.6 15.7 17.1 6.4 24.1 12.1 32.2 27 5.7 10.5 6.5 9.7-11 10.2-17.7.4-19.8 1.1-19.8 6.4 0 8.2 10.2 43.4 16.3 56.4 6 12.8 8.7 19 8.7 19.9 0 .5 1.3 2 2.9 3.4 2.8 2.4 3.5 2.4 24.9 3.1 17.6.6 22.6.5 24.9-.6 2.9-1.4 6.1-6.9 13.7-23.8 2-4.7 4.3-9.6 5.1-11 4.5-8.7 12.8-41 12.3-48-.4-6.4-2.1-7-20.6-7-12.4 0-15.4-.3-15.8-1.5-.9-2.3 4.7-11.5 11.5-18.8 8.1-8.5 16.4-13.5 31-18.3 15.1-5 23.8-10.7 36.9-24.2 16.1-16.6 19.3-23 13.9-28-3.4-3.2-7.9-4.2-19.2-4.2-19.3 0-33.5 6.4-50.8 22.9-14.9 14.2-23.5 27.6-29.7 46.4-1.9 5.9-3.7 9.6-4.3 9.4-.9-.3-1.2-7.1-1.2-24.3 0-25-.5-28.4-4.4-28.4s-5.9 8.9-7.1 32.2c-.6 11.7-1.4 18.7-2.3 20.5l-1.4 2.6-1.6-2.4c-.8-1.3-3-6.5-4.9-11.4-1.9-5-5.1-13.3-7.1-18.5-5.1-13.3-9.9-20.8-19.5-31.1-13.9-14.7-25.5-22.3-40-26-8.1-2-13.8-2.3-18.9-.8m18.8 1.8c12.8 3.3 25.2 11.4 38.1 25 12.5 13 17.2 21.1 25 43.1 5.5 15.5 7.8 20.4 10 20.8 2.6.5 3.8-5.4 4.8-23.8 1-18.5 2.2-26.2 4.6-29.5 1.3-1.8 1.5-1.8 3.2-.2 1.5 1.6 1.7 4.1 1.4 25.5-.2 19.5 0 24.1 1.2 25.7 2 2.8 2.8 1.6 6.6-9.8 5.7-17.3 15.2-31.9 29.8-45.9 17.3-16.5 31.1-22.8 49.8-22.8 10.9 0 14.5.8 18.2 4.2 4.6 4.4 3.1 7.4-11 23-14.2 15.6-25 22.8-43.3 28.7-5.4 1.7-12.4 4.7-15.6 6.6-10.7 6.6-23.9 23.2-23.9 30.2v2.3h16.3c19.2 0 20.7.5 20.7 7.3 0 5.1-4.9 25.5-8.5 35.5-2.9 8-15 35-18.2 40.3-3.3 5.8-4.4 6-28.3 5.3-21.3-.6-21.5-.6-24.2-3.2-1.6-1.4-2.8-2.9-2.8-3.4 0-.4-2.1-5.2-4.6-10.5-9.1-19.4-12.3-28.4-17.4-49-3.3-13.4-3.7-17.5-1.7-19 2.3-1.9 8.3-2.3 33.2-2.4 13.7-.1 27.3-.4 30-.8 2.8-.4-2.4-.5-11.5-.3-18.2.5-17.8.6-19.9-5.9-2-6.3-10.9-18.7-16.4-22.9-3.3-2.4-9.6-5.5-16.7-8.1-22.6-8.3-29.5-15.3-45.3-46.5-3.1-6-5.9-12.3-6.3-14-1.3-6.9 8.2-9.2 22.7-5.5"/><path d="M890.8 355.5c-.3.3-14.4.6-31.3.5-17 0-30.6.2-30.3.5 1 1 61.1.6 62.2-.5.5-.5.8-1 .5-1s-.8.2-1.1.5M472.5 196.1c-20.7 6.9-28.6 17.8-27.2 37.9l.5 7.7-6.7 3.2c-9.5 4.7-15.1 9.2-19.3 15.3-5.3 7.6-6.9 12.9-7.5 24.1-.9 16.3 2.8 26.6 17.1 46.6 4.5 6.4 10.6 15.5 13.5 20.3 4.5 7.6 5.7 8.9 8.9 9.8 2.4.7 14.7 1 35.6.8 30.5-.3 31.9-.4 33.3-2.3.8-1.1 5.3-8.1 9.9-15.5 4.7-7.4 11.3-17.6 14.8-22.6 8.8-12.6 11.1-19.7 11-33.9-.1-8.6-.6-12.3-2.3-16.9-4.6-12.8-11.5-20.6-23.3-26.5-7.1-3.5-7.3-3.7-7-7.1.5-5.7-2.6-19-5.9-25.7-4.5-9.2-10.6-13.2-22.9-14.7-3-.4-6.3-1-7.4-1.3-1-.3-1.6-.1-1.3.5.4.5 3.6 1.2 7.3 1.6 12 1.2 18.3 5.2 23.3 14.5 3.2 6 6.3 18.8 6 24.6 0 1.6-.1 3.5 0 4.2.1.6 3 2.5 6.5 4.1 11.2 5.3 20.1 15.2 24.2 27.2 1.4 4.1 1.9 8.2 1.8 16.5 0 10-.3 11.7-3.1 18.2-1.6 3.9-6.6 12.2-11 18.5-4.4 6.2-10.8 16-14.3 21.8s-7.2 11.3-8.3 12.2c-1.7 1.6-4.8 1.8-33.3 1.8-21.9 0-32.1-.4-33.9-1.2-1.6-.7-4.6-4.5-7.7-9.7-2.9-4.7-8.9-13.8-13.4-20.1-14.5-20.5-17.9-29.5-17.2-45.4.6-11.1 1.8-15.1 7.6-23.4 4.2-6.2 9.8-10.5 19.9-15.6 6.9-3.5 7.2-3.8 6.3-6.2-1.3-3.4-1.3-13.9.1-18.9 1.6-6.1 6.6-13.2 11.6-16.6 2.4-1.7 7.9-4.4 12.1-5.9 7.2-2.7 8.4-4.1 1.7-1.9"/><path d="M134.6 260.6c-24.1 5.8-39.6 25.4-39.6 50 0 14.3 3.7 22.8 16.2 37.6 3.8 4.5 6.2 8.4 7.2 11.9 3.3 10.9 1.9 14.4-10.4 27.5C81.9 415.4 72.9 442 72.6 493l-.1 18.5 32.8.3 32.7.2-.7 7.3c-.5 3.9-.8 21.3-.8 38.5 0 27.4-.2 31.2-1.5 30.8-.8-.3-4.9-1.7-9-3.2-7-2.6-8.6-2.7-24.5-2.8-16.7-.1-17.2 0-27.3 3.3-16.3 5.3-28.7 14.5-34.4 25.5-5.4 10.5-6.7 19.5-6.9 46.8-.2 42.5 8.6 166.3 13.7 192.1 3 15.1 7.2 25.3 13.1 31.8 6.3 7 14.8 10.1 33.3 12.1 7.3.7 79.2 1.3 235.6 1.7l225.1.6 1.2-26.5c3.9-88 6.6-107.4 17.6-130.9 10.4-21.7 25.9-37.4 48.3-48.3 10.8-5.2 10.8-5.3 12-9.8.6-2.5 3.1-11.8 5.5-20.8 2.4-8.9 4.1-16.2 3.7-16.2-.3 0-1.4 3.3-2.3 7.2-1 4-3.4 13.2-5.4 20.3l-3.6 13-10.8 5.3c-37 18-56 48.8-60.9 98.7-1.8 17.8-6 89.6-6 102.2v4.3H349.8c-204.9-.1-253.8-.7-268-3.4-14.1-2.7-22.2-8.8-27.9-21C47.8 857.6 45 840 41 789c-7-87.3-8.9-144.9-5.5-161.3 4.2-20 17-33.4 39-40.8 15.6-5.3 42-4.9 54.4.7 3.3 1.4 6.5 2.4 7.2 2.2.8-.3 1.2-9.3 1.4-35.3.2-36.2.6-41.4 5.1-57.8 5.6-20.5 19.2-41.9 34.1-53.8 17.2-13.7 38.7-21.5 68.4-24.8 4.5-.5 8.5-1.4 8.8-2 .4-.5 1.2-.7 1.8-.3s13.4.1 28.5-.5c18.2-.9 82.6-1.4 193.3-1.7 116.5-.3 166.1-.8 166.3-1.5.2-.6-.4-3-1.3-5.4s-2.2-6.8-2.8-9.8l-1.3-5.4h-9c-9.9 0-12.4-1-12.4-5.2 0-1.3 3.8-9.7 8.4-18.7 11.9-23.2 12.6-25.4 13.6-42.3.9-15.4 2.5-20.9 9.1-31.9 12.8-21.3 44.4-31.9 75.8-25.4 20.6 4.2 33.7 12.2 45.3 27.5 10.2 13.4 13.6 22.6 15.8 43 1.9 16.5-1.7 39.8-8.7 57.5-1.5 3.6-3 8.9-3.4 11.9-.8 5.5.4 14.9 2.3 18.4 1.6 3.1 1.9 1.3.4-2.4-.8-1.9-1.6-5-1.8-6.9l-.3-3.5h14c45.5 0 87.5 3.5 106.6 8.9 15.6 4.4 30.1 12.8 40 23.2 21.4 22.6 27.7 53.2 23.7 115.6l-1.2 18.8h-5.5c-6.6 0-16.8 2.3-18.4 4-1 1-.8 1.1.8.5 4.7-1.8 13.3-3.4 18.9-3.5 7.4-.2 19.2 2.2 24.8 5.1s13.1 10.8 16.2 17.2c5.4 11 6 16.7 6 57.7 0 41.9-1.2 61.9-8.3 141-1.3 13.9-3.9 35.2-5.7 47-4.5 28.6-12.1 38.7-32.1 42.6-10.6 2-30.1 2.5-134.9 3.3l-89.8.6-.7 4.1c-.4 2.2-.9 8.1-1.1 13l-.3 8.9h165.6l1.5 5c.8 2.7 3.5 12.4 5.9 21.4 4.9 18.2 6.7 21.3 13.9 23.2 2.2.6 7.3.9 11.3.7 5.9-.3 7.6-.8 9.7-2.7 3.3-3.1 3.6-4.7 4.4-28.1l.7-19.5 42.5-.5 42.5-.5-42.7-.3-42.8-.2v-12c0-7.8-.4-12-1.1-12-.5 0-.8.4-.4.9.8 1.3.7 40-.1 55.1-.7 12.5-.7 12.5-4.1 15.9-3.3 3.3-3.3 3.3-11.7 3-13.7-.6-15.8-3-21.7-24.9-2.3-8.5-4.7-17.8-5.5-20.5l-1.4-5H727.5l.3-8.5c.2-4.7.7-10.1 1.1-12l.7-3.5 89.2-.6c104.6-.8 124.1-1.3 134.3-3.3 25.5-4.9 30.4-14.2 36.8-70.6 5.9-52.5 10-109.7 10.8-151 .8-45.2-1.3-62.1-9.3-73.8-6.2-8.9-13-13.3-23.8-15.3-10.5-2-10.1-.8-8.7-20.6 4.7-71.6-5.2-106.2-36.8-127.6-12.8-8.6-27.1-13.4-50.1-16.6-19.7-2.7-42-4.2-69.5-4.6-12.6-.1-24.4-.3-26.1-.4l-3-.1.6-4.8c.4-2.6 1.7-7.2 3-10.2 6-14.6 9.4-33 9.3-50.6-.1-24.7-7.5-44.3-22.7-59.8-10.3-10.5-22.7-16.5-42.1-20.1-10.6-2-27.1-1.6-37.5 1-16.9 4.3-32 15.3-38.8 28.2-5 9.5-6.2 14.6-7.2 30-1 16.1-1.5 17.6-15.2 44-6.9 13.5-7.9 17.4-5.4 20.9 1.2 1.6 2.7 1.9 10.7 1.9h9.3l.9 3.5c.5 1.9 1.8 6.2 2.8 9.4 1 3.3 1.7 6.1 1.5 6.3-.2.3-74.8.6-165.7.9-110 .3-174.6.8-192.7 1.7-15.1.6-27.5 1-27.7.9-.2-.2 1.4-3.1 3.5-6.4 9.6-14.8 16.7-43 21.5-84.8.9-7.9 1.9-14.8 2.1-15.2 1.5-2.5 6.4-18 7.4-23.6 2.8-15.4-5.6-23.5-17.9-17.2-10.5 5.3-17.2 19.4-27.7 58.3-4.9 18.2-10 33.1-13.2 39.1-4.7 8.8-13.5 17.1-22.6 21.7-6.9 3.4-9.4 4.1-17.1 4.7-11.4.9-20 0-22.5-2.3-3.9-3.5-1.6-13.6 3.9-17.4 1.4-1 4.6-2.6 7.1-3.5 12.8-5 22.1-18.2 17.6-25.1-1.5-2.2-1.4-2.6.5-6 1.8-2.9 2-4.6 1.6-8.8-.4-2.9-.3-5.7.1-6.2.4-.6 2.9-2.3 5.5-3.9 5.3-3.1 7.5-6.4 5.9-9.1-.5-1-4.9-4.7-9.8-8.4-8.3-6.1-9.2-7.2-12.7-14.5-4.7-9.6-10.8-15.8-20.3-20.8-13-6.8-22.5-8.2-34.8-5.2m31 4.8c10.9 5.4 18.6 12.4 22.2 20.1 1.3 2.8 2.9 6.1 3.6 7.5.8 1.4 5.3 5.5 10.1 9.1 4.8 3.7 9.2 7.4 9.7 8.3 1.2 2.2-.2 4-6.1 7.4-2.5 1.4-4.9 3.1-5.3 3.7-.5.5-.5 3.5-.2 6.5.5 4.6.2 6.2-1.5 9.2-2.1 3.5-2.1 3.7-.5 7.2 1.7 3.3 1.6 3.7-.1 7.6-2.8 6.3-8.9 11.7-18.3 16.1-7.6 3.7-8.6 4.4-10.3 8.5-1.3 2.8-1.9 6-1.7 8.7.3 3.7.7 4.4 4 6 4.8 2.3 21.6 2.4 30.2.2 12.5-3.3 24.4-12.3 30.8-23.5 3-5.1 9.3-23.5 13.3-38.5 4.8-18.2 10.6-35.9 14-43 8-16.6 19.4-23.6 27.3-17 5.9 5 5.1 15.5-2.6 35.1-1.2 2.9-2.7 11-3.6 19-5.7 49.5-13.9 77.8-26.2 90.1-2.5 2.6-4 3.3-7.1 3.3-6.7 0-26.3 3.9-38.3 7.6-13.3 4.1-23.2 9.3-33.3 17.3-8.1 6.5-12 10.9-20.1 23.1-6.9 10.4-11.1 20.2-14.6 34.5l-2.8 11H73.5l.1-18c.4-50.4 9-75.7 35.6-104.1 12.3-13.2 13.7-17.3 9.9-29.3-1.4-4.5-3.5-8-7.7-12.9-12.7-14.9-15.9-22.7-15.2-38.1.3-8.9.7-10.4 4.5-18.3 4.7-9.8 9.4-15.4 17.3-20.7 9.6-6.5 18.7-9.2 30.3-8.7 6.9.2 8.7.8 17.3 5"/><path d="M166.5 298.5c-3.6 3.5-3.5 10.5.1 13.4 5.2 4.1 12.4 1.9 14-4.4 2.2-8.8-7.9-15.3-14.1-9m10.9 1.1c3.1 3.2 3.3 6.6.5 10.5-1.5 2.1-2.9 2.9-5.2 2.9-7 0-10.3-8.5-5.2-13.5 3.1-3.2 6.6-3.2 9.9.1m478.9 52.6c-3.2 3.5-3.8 8.6-1.3 12.5 1.8 3 2.4 3.3 6.8 3.3 6.4 0 8.2-1.9 8.2-8.8 0-4.3-.4-5.4-2.6-7.1-3.6-2.8-8.5-2.7-11.1.1m10.1.9c2 1.6 2.6 2.9 2.6 6.1 0 5.4-2.2 7.8-7.1 7.8-3.1 0-4.2-.6-5.9-3q-3.75-5.4 1.2-10.8c2.7-2.8 5.7-2.8 9.2-.1m143.1 174.6c-4.2 1.1-13.5 4.2-18.6 6.3-23.8 9.7-24.9 10.2-47.9 21.2-18.3 8.8-21.8 10.1-25.6 9.2-1.6-.4-9-3.6-16.4-7.1-7.4-3.6-18-8.5-23.5-10.9-5.5-2.5-11.8-5.4-14-6.4-11.9-5.5-24.4-8.7-27.6-6.9-1 .5-2.1 2-2.5 3.4-.5 2.2 1.5 23.5 3.6 37 1.9 12.1 4.3 36.4 7.1 69.5 1.8 23.1 2.5 24.3 16.6 30.4 11.1 4.8 35.7 16.1 40.3 18.5 1.9 1 4.6 2.2 6 2.6 2.6.8 11 7.4 11 8.6 0 .4-1 1.1-2.2 1.4-7.5 2.2-19.6 7.6-27.6 12.4-11.7 6.9-23.1 18.4-28.4 28.6-4.7 9.1-10.3 27.4-12.2 40-3.1 20.8-6.6 83.6-6.6 119.9 0 8.8-.5 18.8-1.1 22.3-1 5.7-1.5 6.7-6.3 11-2.9 2.7-11.9 8.8-20.1 13.8-14.3 8.6-21.3 14.1-24.6 19.5-1.5 2.3-2.3 2.5-18 3.7-9 .6-24.3 1.2-34 1.2-25.2.1-31.9-1.5-31.9-8 0-4.3 4.2-8.3 18.4-17.6 7.2-4.8 15.7-10.6 18.8-13.1 5.8-4.5 9.8-10.7 9.8-15V921H144l-.6 2.8c-4.1 18-9.8 38.9-11.1 40.8-2.8 4.3-8.3 6.4-16.8 6.4-13.9 0-14.5-1.2-15.8-29.8l-1-21.2-49.6.2-49.6.3 49.1.2 49.1.3 1 20.8c1.4 29.1 2 30.2 17.1 30.2 9.3 0 15.3-2.4 17.6-6.9.9-1.6 3.8-11.9 6.5-22.8l4.9-19.8 203.1-.3c186.5-.2 203.1-.1 203.1 1.4 0 3.3-4.5 9.5-9.9 13.7-3.1 2.4-11.5 8.2-18.7 13-15.2 9.9-18.4 13.2-18.4 18.6 0 4.9 2 6.7 9.4 8 7.7 1.4 36.6 1.3 58-.3 16.3-1.1 17-1.3 18.5-3.6 3.3-5.4 10.3-10.9 24.6-19.5 8.2-5 17.2-11.1 20-13.7 4.9-4.4 5.3-5.1 6.3-11.7.7-3.8 1.2-14.1 1.2-22.8 0-36.3 3.5-99.1 6.6-119.8 6.1-40.3 24.1-63.3 60.1-77.1 11.6-4.4 12.4-5.6 6.6-10-3.5-2.7-22.1-11.8-40.8-20.1-18.3-8-24-11.2-25.9-14.4-1.8-3.1-2.5-8.8-5.6-44.9-1.3-15.5-3.7-36.8-5-45.5-2.1-13.4-4.1-34-3.6-36.2.9-3.2 3.4-4.3 8.1-3.3 4.1.8 13.6 4.1 19 6.5 12.6 5.7 28.8 13.2 38.5 17.8 15.2 7.3 18.6 8.2 24.8 6.4 2.6-.8 11.5-4.7 19.7-8.7 23.2-11.2 26.1-12.5 40-18 15.7-6.3 26.7-10 29.9-10 3.5 0 7.4 3.6 8.5 7.8 1 4 7.1 43 10 64.3 4.1 30.6 4.9 43.1 2.9 47.4-1.2 2.7-5.9 6.1-10.5 7.5-1.5.4-6.6 2.3-11.3 4-4.7 1.8-10 3.6-11.7 4.1-1.8.6-3.3 1.4-3.3 1.9 0 .4 3-.3 6.8-1.7 3.7-1.4 10.5-3.8 15.2-5.5 14.9-5.2 17-7.4 17-17.8 0-8.9-3.3-36.1-8.4-69.5-5-32.4-5.9-37.2-7.2-39.3-2.3-3.6-7.2-4.9-12.9-3.5"/><path d="M795.1 567.3c-7.3 3.7-1.7 14 5.7 10.5 2.1-1 2.8-2.2 3-4.9.4-5.1-4-8-8.7-5.6m5.7 1.3c3 2 2.9 5.9-.2 7.9-2.8 1.9-5.8.9-7.6-2.5-.9-1.6-.6-2.5 1.4-4.5 2.9-2.9 3.4-3 6.4-.9"/><path d="M853.4 579.2c.3 3.5 1.5 11.7 2.6 18.3 6.8 40.8 8.7 57.4 6.9 61.6-2.4 6-14.5 8.1-49.4 8.5-13.2.2-25.5.7-27.3 1.3-3.1.9-3.9.6-13.5-5.9-5.6-3.8-16.5-10.6-24.2-15.3l-14-8.3-.7-5c-.4-2.7-1.9-15.5-3.4-28.4-2.9-25.9-4-30-7.7-30-4.7 0-5.2 1.8-3.9 16.8 1.2 14.4 3.9 36.5 4.8 39.4.3 1.2-1.8.4-7.8-2.8-8.6-4.7-13.5-5.7-16.2-3.5-2 1.7-2 5.5 0 8.6 1.3 2 19.1 17.4 22.7 19.7.6.4.9.9.6 1.2-.2.3-6.7-3.3-14.4-7.9-14.6-8.8-17.9-9.9-20.9-6.6-4.2 4.7.7 11.8 15.4 22.4 4.7 3.3 8.7 6.2 8.9 6.4s.2.5-.1.8c-.2.3-4.7-2.4-10-5.9s-10.7-6.5-12.2-6.8c-3.5-.7-6.6 1.7-6.6 5 0 6.6 2.2 10.6 9.4 17.6 3.9 3.7 8.5 7.5 10.1 8.3 1.7.8 2.6 1.1 2 .6-.5-.5-4.5-4-8.7-7.7-10.5-9.2-14.2-17.2-10.2-21.7 1.5-1.6 2-1.7 5-.4 1.8.7 7 3.9 11.5 6.9 4.5 3.1 8.7 5.5 9.3 5.3 2.7-.9.9-3.2-7.6-9.5-14.8-11.1-18.8-16.3-15.2-20.3.9-1 2.4-1.9 3.2-1.9.9 0 8 3.9 15.9 8.6 12.9 7.7 16.3 9.1 16.3 6.4 0-.5-4.9-5-10.9-10-14.7-12.2-16.6-15.3-11.6-18.6 2.4-1.5 2.8-1.4 10.7 2.6 4.6 2.4 8.9 4.7 9.6 5.3 2.5 2 2.9-.9 1.6-10.3-2.8-20.3-3.4-24.8-4-34.2-.7-10.1 0-12.8 3.3-12.8 2.6 0 4.1 6.5 6.8 29 1.4 12.4 2.9 25.2 3.3 28.4l.7 6 14 8.4c7.7 4.6 18.3 11.2 23.5 14.6 12.5 8.3 11.5 7.9 15.6 6.6 2.2-.8 12.8-1.3 28.2-1.5 25-.3 41.9-2 46.2-4.7 5.4-3.4 4.8-13.7-3.9-66-2.9-17.3-3.5-23.8-2.3-23.8.6 0 1.3.8 1.6 1.7 1.3 4.4 5.8 21.8 6.5 25.6.5 2.3 1.9 8.7 3 14.2 3.2 14.6 5.2 28.9 5.4 38.2.2 9.4-1.2 12.2-7.9 16-9.8 5.5-45.4 6.8-75.4 2.8-3.2-.4-3.3-.4-.7.4 9.5 3.2 48.8 3.8 65.7 1.1 7.9-1.3 14.7-4.5 17.4-8.3 1.8-2.4 2.1-4.2 1.9-11.5-.2-9.7-2.1-23.6-5.4-38.7-1.1-5.5-2.5-11.9-3-14.2-.4-2.3-2.2-9.3-3.9-15.6-1.6-6.3-3-11.8-3-12.1s-1-.6-2.1-.6c-2.1 0-2.1.3-1.5 6.2"/><path d="M753.7 591.8c-3.7 4-.7 10.4 4.8 10.4 5.6 0 8.7-6.9 4.7-10.5-2.5-2.2-7.5-2.1-9.5.1m8.5.9c2.5 2.3 2.3 4.8-.8 7.2-2.7 2.1-3.5 2-6.6-.7-2.2-1.9-2.3-4-.1-6.4 2-2.2 5.1-2.3 7.5-.1m19.4 19.2c-4.1 4.5-.8 11.8 4.8 10.7 4.2-.9 5.6-2.4 5.6-6.1s-1.4-5.2-5.6-6.1c-2.2-.4-3.4 0-4.8 1.5m7.2.7c3 2.1 2.9 5.9-.4 8.1-2.9 1.8-4.7 1.2-7.1-2.3-1.2-1.8-1.1-2.4.8-4.7 2.4-3.1 3.6-3.3 6.7-1.1m-508.5 4c-3.5 4-4.8 4.1-12.9 1.1-6.8-2.6-11.3.4-6.6 4.5 9.5 8.5 28 4.8 27-5.4-.4-4.7-3.4-4.8-7.5-.2m6.5.3c.7 4.3-5.9 9.1-12.3 9.1-5.4 0-14.5-4.4-14.5-7 0-1.9 3.6-1.8 7.7 0 6.8 3 10 2.6 13.7-1.5 3.4-3.8 4.9-4 5.4-.6m-74.1.8c-2.7 2.6 3.1 10.5 8.8 11.9 3.3.8 9-.3 13.8-2.7 3.1-1.7 3.8-2.5 3.5-4.6-.5-4.2-2.9-5-7.7-2.5-5.3 2.8-6.4 2.8-10.9-.3-3.6-2.5-6.3-3.1-7.5-1.8m6.5 2.8c4.5 3 7.1 3.1 12.2.5 4-2.2 6.6-1.5 6.6 1.7 0 1.6-9.4 6.3-12.8 6.3-4.9 0-13-6.4-11.9-9.4.8-2.1 1.6-2 5.9.9m23.5 15.3c-2.5 2.7-2.1 4.3 2.3 10.2 3.6 4.8 5.1 9 3.3 9-.4 0-2.6-.9-5-2.1-5.2-2.5-8.7-2.2-9.1.8-.7 4.7 12.1 10 21.4 8.8 8.7-1.1 16-7.8 14-13-.8-2.2-4-1.8-6.2.6-1 1.2-3.2 2.8-4.8 3.6l-2.8 1.5.5-4.4c.3-2.4 1.1-6.4 1.8-8.9 1.8-7.1 1.2-7.9-6.9-7.9-5.4 0-7.2.4-8.5 1.8m15 .9c.4.9-.1 3.8-1 6.4-2.3 6.3-2.3 13.3-.1 12.5.9-.3 2-.6 2.4-.6.5 0 2.5-1.4 4.5-3.1 2.7-2.4 3.9-2.9 4.7-2.1 3.2 3.2-5.4 10.7-13.4 11.8-5.4.7-12.8-1.4-17.2-4.9-5.2-4.2-.9-6.4 5.2-2.7 8 4.9 9.8-.1 3.2-9-2.2-2.9-4-5.6-4-5.9 0-.2.7-1.3 1.7-2.3 2.2-2.5 13-2.6 14-.1m158.8 5.5c-2.2 1.1-6.2 3.8-9 6-11.2 8.8-15.9 18.1-15.9 31.8-.1 8.5 2.4 21.8 5.1 27.2 2.5 5.1 2.1 5.4-8.4 6.1-18.6 1.2-32 4.5-39.5 9.9-3.2 2.4-6.8 7.7-6.8 10.3 0 1.3 3.9.3 5.4-1.4 2.2-2.4 10.4-6.3 17.6-8.4 10.5-3 18.6-3.9 40.5-4.6 21.3-.6 22-.7 22.3-2.7.2-1.7-.5-2.2-5-3.3-7.8-1.7-15.7-8.2-19.7-16.2-2.7-5.5-3.1-7.2-3-14.3 0-4.5.6-9.6 1.2-11.4 2-5.5 10.6-16.1 17.8-22 7.4-6.1 8.9-9.2 4.2-9.2-1.6.1-4.6 1-6.8 2.2m8.5-.3c0 .5-2.6 2.8-5.7 5.2-7.7 5.9-15.9 16.1-18.4 22.8-3.1 8.3-2.4 20.5 1.5 28.4 3.6 7.4 10.6 13.1 18.8 15.4 3.2.9 5.7 2.1 5.5 2.7-.2.7-7.9 1.3-21.8 1.7-31.2 1-49.9 5.2-58.6 13.2-3.1 2.8-3.7 1.8-1.3-2.1s7.9-7.6 15.1-10.1c6.5-2.3 24.4-5.1 32.6-5.1 3.3 0 6.2-.3 6.5-.6.4-.3-.4-3.6-1.7-7.2-9.3-26.7-6.1-43.5 11-57 8-6.3 16.5-10.1 16.5-7.3m94.4 56.4c0 9.6-5.7 19.1-17.4 29.1-5.5 4.7-20 12.2-29 15.1-6.3 2-7.8 3.1-6.4 4.4 1 1.1 10.2-.6 20.6-3.7 23.7-7.1 40.4-26.3 38.2-43.7-.7-5.5-1.8-7.5-4.3-7.5-1.3 0-1.6 1.2-1.7 6.3m3.7-3.7c.7.9 1.3 4.2 1.3 7.7.2 16.4-17 33.8-40 40.6-15.1 4.5-22.6 4.6-9.6.2 27.3-9.4 45.3-26.6 45.6-43.8.1-6.6.5-7.3 2.7-4.7m-288.6 13.1c-17.5 2.2-47.9 8.3-62 12.4-17.1 5-27.3 8.9-33.3 13-2.4 1.6-4.8 2.9-5.3 2.9-1.7 0-.5 5.5 1.2 5.8.9.1 7.8-2.5 15.5-5.9 23-10.2 37.3-14.3 76.4-22 15.5-3.1 15-2.9 15-5 0-1.9-.8-2.1-7.5-1.2m6.5 1.2c0 1-6.2 2.5-24.5 6.1-28.3 5.5-46.1 10.8-67.8 20.4-12.4 5.4-14.7 5.9-14.7 3.3 0-1.9 13.7-9.2 24.5-13 13-4.6 39.1-11 58-14.1 22.5-3.8 24.5-4 24.5-2.7m554 17.8c0 1.9-.7 1.7 33 8.3 11.4 2.3 24 3.1 42 2.8l19.5-.3.3-3.9c.2-2.1-.1-4.2-.7-4.5-.6-.4-5.2-.3-10.3.2-18.5 1.7-61.5-.3-80.5-3.9-2.8-.5-3.3-.3-3.3 1.3m18 1.9c13.2 1.7 53 2.5 69 1.5l6.5-.5v6.9l-19 .3c-17.5.3-30-.5-41.5-2.8-19.7-3.7-32-6.6-32-7.3 0-.5.8-.6 1.8-.3.9.2 7.8 1.3 15.2 2.2"/></g></svg>