<?xml version="1.0" encoding="UTF-8"?>
<!-- Generator: visioncortex VTracer 0.6.4 -->
<svg version="1.1" xmlns="http://www.w3.org/2000/svg" width="1024" height="1024">
<path d="M0 0 C337.92 0 675.84 0 1024 0 C1024 337.92 1024 675.84 1024 1024 C686.08 1024 348.16 1024 0 1024 C0 686.08 0 348.16 0 0 Z " fill="#080808" transform="translate(0,0)"/>
<path d="M0 0 C187.77 0 375.54 0 569 0 C569 103.62 569 207.24 569 314 C558.77 314.33 548.54 314.66 538 315 C523.62 315.98 510.08 316.96 496.63 322.35 C489.26 325.79 483.71 330.29 478 336 C477.62 335.29 477.24 334.57 476.86 333.84 C474.47 329.69 472.17 326.02 468.54 322.85 C461.8 318.33 454.82 315.97 447 314 C434.34 311 421.56 309.72 408.62 308.5 C407.52 308.39 406.41 308.29 405.26 308.18 C379.13 305.69 352.93 304.31 326.7 303.17 C323.92 303.04 321.14 302.9 318.37 302.75 C303.24 301.95 288.13 301.84 272.98 301.83 C270.84 301.83 268.7 301.83 266.56 301.83 C258.99 301.82 251.42 301.81 243.84 301.81 C237.73 301.82 231.62 301.81 225.5 301.79 C193.12 301.72 160.76 301.87 128.39 302.93 C127.09 302.97 125.8 303.01 124.47 303.06 C84.09 304.4 43.18 306.4 4 317 C2.68 317.33 1.36 317.66 0 318 C0 213.06 0 108.12 0 0 Z " fill="#FEFEFE" transform="translate(455,0)"/>
<path d="M0 0 C42.24 0 84.48 0 128 0 C128.33 173.25 128.66 346.5 129 525 C121.41 526.98 113.82 528.96 106 531 C94.01 534.59 82.4 538.93 72.02 546.05 C69.58 547.95 67.28 549.92 65 552 C64.38 552.52 63.76 553.03 63.12 553.57 C58.11 558.04 54.94 563.66 51.79 569.52 C49.52 573.94 47.53 578.26 46 583 C45.7 583.85 45.4 584.71 45.1 585.59 C42.83 593.36 42.69 601.01 42.62 609.06 C42.61 610.15 42.6 611.24 42.58 612.36 C42.63 619.94 43.7 626.77 46 634 C47.96 638.87 50.48 643.21 53.89 647.22 C57.79 651.21 62.02 654.82 66.34 658.36 C68 660 68 660 69.09 661.84 C70 664 70 664 70.25 666.04 C70.25 666.77 70.25 667.5 70.26 668.26 C70.26 669.11 70.27 669.95 70.28 670.83 C70.27 671.75 70.27 672.68 70.27 673.64 C70.27 675.12 70.27 675.12 70.28 676.63 C70.29 679.95 70.29 683.28 70.29 686.6 C70.29 688.98 70.3 691.36 70.31 693.73 C70.32 699.53 70.33 705.33 70.34 711.13 C70.34 717.89 70.36 724.66 70.38 731.42 C70.42 743.5 70.45 755.59 70.47 767.67 C70.47 768.39 70.47 769.12 70.47 769.86 C70.48 774.99 70.49 780.12 70.5 785.25 C70.51 791.09 70.52 796.93 70.53 802.76 C70.53 803.48 70.53 804.2 70.54 804.94 C70.56 816.97 70.59 828.99 70.62 841.01 C70.64 847.76 70.66 854.5 70.66 861.24 C70.67 867.6 70.68 873.95 70.7 880.3 C70.71 882.62 70.71 884.95 70.71 887.27 C70.25 908.31 70.25 908.31 74.5 928.75 C75.5 930.57 75.5 930.57 77 932 C82 935.04 87.72 936.22 93.34 937.61 C94.41 937.87 95.47 938.13 96.57 938.4 C97.77 938.7 97.77 938.7 99 939 C99.2 940.45 99.2 940.45 99.41 941.93 C99.92 945.55 100.44 949.16 100.97 952.77 C101.2 954.33 101.42 955.89 101.64 957.45 C101.95 959.7 102.28 961.95 102.61 964.2 C102.71 964.89 102.8 965.58 102.9 966.29 C103.39 969.51 104.13 972.34 105.32 975.38 C105.87 976.24 106.43 977.11 107 978 C110.07 979.81 113.52 980.32 117 981 C121.82 981.86 126.65 982.55 131.5 983.19 C132.75 983.36 134.01 983.54 135.3 983.72 C145.62 985.27 145.62 985.27 156 985 C159.12 984.08 161.92 982.79 164.81 981.31 C165.54 980.97 166.26 980.63 167.01 980.28 C170.21 978.72 172.99 977.01 175.84 974.87 C178.03 972.24 178.03 972.24 178.83 969.76 C179.57 967.13 180.18 964.49 180.75 961.81 C181.16 960.01 181.57 958.2 181.98 956.39 C182.16 955.6 182.33 954.8 182.51 953.98 C183 952 183 952 184 950 C190.85 949.86 197.39 950.4 204.17 951.27 C205.26 951.41 206.34 951.54 207.45 951.68 C209.8 951.98 212.15 952.27 214.5 952.57 C220.25 953.3 226.01 954.02 231.76 954.73 C233.78 954.98 235.8 955.24 237.82 955.49 C252.04 957.26 266.27 958.96 280.49 960.65 C283.06 960.95 285.63 961.26 288.2 961.57 C294.08 962.26 299.96 962.96 305.84 963.66 C317.63 965.06 329.41 966.46 341.2 967.86 C343.94 968.19 346.69 968.51 349.44 968.84 C370.77 971.37 392.09 973.92 413.41 976.49 C441.79 979.91 470.17 983.27 498.56 986.62 C523.4 989.56 548.23 992.49 573.06 995.5 C597.96 998.51 622.85 1001.52 647.75 1004.5 C649.24 1004.68 649.24 1004.68 650.77 1004.86 C679.04 1008.25 707.33 1011.55 735.63 1014.71 C754.25 1016.78 772.84 1019 791.43 1021.32 C796.28 1021.92 801.14 1022.48 806 1023 C806 1023.33 806 1023.66 806 1024 C540.02 1024 274.04 1024 0 1024 C0 686.08 0 348.16 0 0 Z " fill="#FEFEFE" transform="translate(0,0)"/>
<path d="M0 0 C0.73 0.05 1.45 0.1 2.2 0.16 C70.69 5.07 70.69 5.07 87.88 12.56 C90.85 14.29 93.41 16.16 95.88 18.56 C97.5 20.52 98.63 22.32 99.88 24.56 C101 27.95 101.11 30.63 101.07 34.17 C100.77 37.91 99.56 41.17 98.31 44.69 C93.3 60.23 91.05 76.49 88.38 92.56 C87.86 95.68 87.33 98.8 86.8 101.92 C78.42 151.49 72.4 201.19 67.36 251.19 C67.16 253.17 66.97 255.15 66.77 257.13 C63.62 288.2 60.8 319.19 60.25 350.44 C60.21 352.32 60.17 354.21 60.13 356.1 C60.04 360.59 59.95 365.07 59.88 369.56 C57.54 370.2 57.54 370.2 54.88 370.56 C53.43 369.42 51.99 368.26 50.62 367.02 C47.08 364.06 43.16 362.25 38.88 360.56 C18.25 353.75 -3.73 351.21 -25.25 349.06 C-26.74 348.91 -26.74 348.91 -28.27 348.75 C-47.79 346.75 -67.35 345.22 -86.92 343.82 C-88.01 343.74 -89.09 343.66 -90.21 343.58 C-92.22 343.44 -94.24 343.3 -96.25 343.16 C-101.9 342.76 -107.5 342.22 -113.12 341.56 C-113.15 340.03 -113.15 340.03 -113.17 338.47 C-113.56 313.34 -114.52 290.79 -123.18 266.96 C-124.45 263.72 -125.91 260.59 -127.43 257.47 C-127.66 256.84 -127.89 256.21 -128.12 255.56 C-127.94 254.59 -127.75 253.62 -127.56 252.62 C-127.09 251.94 -126.61 251.26 -126.12 250.56 C-124.64 249.57 -124.64 249.57 -123.12 248.56 C-120.16 249.24 -120.16 249.24 -116.75 250.44 C-113.46 251.58 -110.7 252.54 -107.21 252.7 C-106.52 252.65 -105.83 252.61 -105.12 252.56 C-105.12 251.9 -105.12 251.24 -105.12 250.56 C-106.2 250.22 -107.27 249.89 -108.37 249.54 C-109.77 249.09 -111.17 248.64 -112.56 248.19 C-113.27 247.97 -113.98 247.74 -114.71 247.52 C-116.53 246.92 -118.33 246.25 -120.12 245.56 C-120.45 244.9 -120.79 244.24 -121.12 243.56 C-120.23 241.21 -120.23 241.21 -118.88 238.38 C-118.41 237.4 -117.95 236.42 -117.47 235.41 C-117.03 234.47 -116.58 233.53 -116.12 232.56 C-115.1 230.24 -114.11 227.9 -113.12 225.56 C-109.5 225.23 -105.87 224.9 -102.12 224.56 C-102.12 223.9 -102.12 223.24 -102.12 222.56 C-105.42 221.9 -108.73 221.24 -112.12 220.56 C-112.09 219.27 -112.09 219.27 -112.06 217.95 C-111.24 197.33 -111.24 197.33 -115.05 177.24 C-115.75 175.51 -116.48 173.8 -117.27 172.12 C-118.12 169.56 -118.12 169.56 -118.17 166.39 C-118.02 164.62 -118.02 164.62 -117.88 162.81 C-117.82 162.15 -117.77 161.49 -117.72 160.81 C-117.34 156.22 -116.71 151.69 -116.06 147.12 C-115.02 139.22 -114.88 131.29 -114.83 123.33 C-114.82 121.92 -114.8 120.51 -114.78 119.1 C-114.69 111.44 -115.05 104.24 -117.09 96.81 C-118.06 94.42 -118.06 94.42 -120.11 92.33 C-122.01 90.52 -122.01 90.52 -124.12 89.56 C-127.19 89.1 -130.06 89.17 -133.12 89.56 C-139.34 91.51 -144.56 95.39 -149.69 99.31 C-157.87 105.77 -165.09 113.25 -172.33 120.72 C-172.92 121.33 -173.52 121.94 -174.12 122.56 C-175.03 123.69 -175.03 123.69 -175.96 124.84 C-176.67 125.41 -177.39 125.98 -178.12 126.56 C-181.05 126.52 -181.05 126.52 -184.43 125.82 C-192.09 124.48 -199.43 124.3 -207.19 124.38 C-208.45 124.38 -209.71 124.38 -211 124.38 C-217.14 124.41 -222.96 124.68 -229.03 125.56 C-232.23 125.83 -232.23 125.83 -235.12 125.56 C-237.8 124.04 -239.53 122.39 -241.6 120.11 C-242.25 119.33 -242.9 118.55 -243.56 117.75 C-245.01 116.17 -246.46 114.59 -247.92 113.02 C-248.63 112.25 -249.34 111.48 -250.06 110.69 C-256.68 103.86 -265.06 98.84 -273.44 94.44 C-276.58 92.95 -279.44 91.72 -282.83 90.96 C-285.15 90.75 -285.15 90.75 -287.29 91.01 C-289.44 91.55 -289.44 91.55 -292.06 93.69 C-294.17 96.43 -294.17 96.43 -295.38 99.31 C-298.2 111.54 -297.63 124.16 -296.2 136.54 C-295.25 144.24 -294.21 151.61 -292.06 159.06 C-291.3 162.27 -291.3 162.27 -291.12 165.56 C-292.04 169.78 -293.73 173.66 -295.51 177.58 C-297.48 182.12 -298.52 186.65 -299.12 191.56 C-299.34 195.78 -299.32 199.97 -299.25 204.19 C-299.24 205.29 -299.23 206.39 -299.22 207.52 C-299.2 210.2 -299.16 212.88 -299.12 215.56 C-306.38 215.56 -313.64 215.56 -321.12 215.56 C-321.45 216.55 -321.78 217.54 -322.12 218.56 C-313.88 219.22 -305.62 219.88 -297.12 220.56 C-295.14 225.02 -295.14 225.02 -293.12 229.56 C-293.46 230.55 -293.78 231.54 -294.12 232.56 C-296.43 233.33 -296.43 233.33 -299.44 233.88 C-300.51 234.09 -301.59 234.29 -302.7 234.51 C-303.83 234.71 -304.96 234.91 -306.12 235.12 C-308.36 235.54 -310.58 235.95 -312.81 236.38 C-313.81 236.56 -314.8 236.74 -315.82 236.92 C-316.58 237.13 -317.34 237.35 -318.12 237.56 C-318.45 238.22 -318.78 238.88 -319.12 239.56 C-312.64 239.75 -306.53 239.04 -300.12 238.06 C-299.16 237.92 -298.19 237.78 -297.2 237.63 C-294.84 237.28 -292.48 236.92 -290.12 236.56 C-288.48 239.2 -286.83 241.84 -285.12 244.56 C-290.07 246.17 -294.18 246.81 -299.44 246.75 C-300.12 246.74 -300.81 246.74 -301.51 246.73 C-309.73 246.6 -317.93 246.09 -326.12 245.56 C-327.69 245.47 -329.26 245.37 -330.82 245.27 C-334.59 245.04 -338.36 244.8 -342.12 244.56 C-342.29 243.96 -342.45 243.36 -342.62 242.75 C-344.36 236.42 -346.1 230.09 -347.83 223.76 C-348.48 221.41 -349.12 219.06 -349.77 216.71 C-350.39 214.43 -351.02 212.14 -351.65 209.86 C-352.26 207.6 -352.88 205.35 -353.5 203.09 C-354.84 198.18 -356.2 193.28 -357.62 188.39 C-360.26 179.32 -362.13 170.47 -363.25 161.06 C-364.23 153.02 -365.2 145.17 -368.12 137.56 C-370.18 133.56 -372.33 130.34 -375.56 127.19 C-378.43 125.37 -380.82 124.36 -384.12 123.56 C-387.95 123.35 -391.02 123.54 -394.75 124.48 C-396.02 124.89 -397.29 125.32 -398.56 125.75 C-399.25 125.97 -399.93 126.19 -400.64 126.42 C-403.53 127.36 -406.4 128.32 -409.28 129.29 C-410.69 129.77 -412.1 130.24 -413.52 130.7 C-415.45 131.34 -417.38 131.99 -419.31 132.64 C-423.7 133.7 -427.64 133.76 -432.12 133.56 C-423.73 82.37 -423.73 82.37 -417.12 62.56 C-416.91 61.92 -416.7 61.29 -416.49 60.63 C-413.02 50.32 -408.83 41.51 -402.03 32.91 C-397.05 27.07 -391.74 22.47 -385.12 18.56 C-370.47 10.37 -353.21 7.03 -336.85 4.25 C-322.94 2.06 -308.94 0.88 -294.9 -0.16 C-292.56 -0.33 -290.23 -0.51 -287.89 -0.7 C-276.01 -1.63 -264.1 -2.01 -252.19 -2.44 C-250.38 -2.5 -250.38 -2.5 -248.54 -2.57 C-165.66 -5.51 -82.75 -5.94 0 0 Z " fill="#FEFEFE" transform="translate(827.125,310.4375)"/>
<path d="M0 0 C5.28 1.32 10.56 2.64 16 4 C19.06 4.62 22.09 5.21 25.17 5.71 C25.96 5.84 26.74 5.98 27.56 6.11 C30.1 6.54 32.64 6.96 35.19 7.38 C36.52 7.6 36.52 7.6 37.87 7.82 C48.69 9.64 59.51 11.24 70.39 12.54 C71.92 12.73 71.92 12.73 73.47 12.92 C78.4 13.52 83.32 14.09 88.25 14.61 C101.14 16.08 101.14 16.08 106.22 18.6 C108.61 20.29 110.79 22.09 113 24 C115.49 25.53 118.06 26.84 120.69 28.12 C121.37 28.46 122.04 28.79 122.74 29.14 C134.19 34.62 146.39 38.4 159 40 C167.25 40.63 175.51 40.6 183.62 38.88 C187.4 37.77 190.41 36.33 193.62 34.06 C195.49 32.65 195.49 32.65 197 31 C197.69 29.68 198.36 28.35 199 27 C200.06 27.12 201.13 27.24 202.22 27.36 C213.92 28.66 225.61 29.94 237.31 31.21 C238.25 31.31 239.18 31.41 240.15 31.51 C296.93 37.68 296.93 37.68 353.77 43.32 C359.26 43.83 364.75 44.36 370.24 44.88 C407.68 48.46 445.12 51.98 482.59 55.24 C484.78 55.44 486.97 55.63 489.16 55.82 C508.98 57.55 528.68 59.2 548.58 59.24 C551.2 59.25 553.81 59.28 556.42 59.31 C566 59.37 574.76 58.85 584 56 C585.06 55.6 586.12 55.21 587.22 54.8 C588.13 54.53 589.05 54.27 590 54 C591.71 55.27 593.37 56.62 595 58 C607.55 63.86 621.78 65.43 635.39 67 C636.84 67.17 638.29 67.34 639.75 67.51 C653.99 69.17 668.26 70.57 682.54 71.86 C684.8 72.07 687.05 72.27 689.3 72.48 C732.36 76.43 775.46 79.9 818.56 83.44 C819.56 83.53 819.56 83.53 820.59 83.61 C834.39 84.74 848.2 85.87 862 87 C862 124.29 862 161.58 862 200 C816.65 200.04 816.65 200.04 797.71 200.05 C784.61 200.05 771.51 200.06 758.41 200.08 C748.87 200.09 739.33 200.09 729.79 200.09 C724.73 200.1 719.68 200.1 714.63 200.11 C709.87 200.11 705.12 200.11 700.37 200.11 C698.62 200.11 696.87 200.12 695.12 200.12 C692.75 200.12 690.37 200.12 687.99 200.12 C686.94 200.12 686.94 200.12 685.87 200.13 C684.24 200.12 682.62 200.07 681 200 C680.67 199.67 680.34 199.34 680 199 C677.17 198.56 674.35 198.18 671.5 197.84 C670.6 197.72 669.7 197.61 668.78 197.49 C665.76 197.12 662.73 196.75 659.71 196.38 C657.58 196.11 655.44 195.84 653.31 195.58 C647.53 194.86 641.76 194.15 635.99 193.44 C632.37 193 628.76 192.55 625.14 192.11 C592.64 188.1 560.13 184.23 527.58 180.59 C501.33 177.64 475.1 174.51 448.88 171.31 C423.87 168.27 398.87 165.24 373.84 162.47 C359.27 160.85 344.73 159.13 330.19 157.32 C306.09 154.33 281.98 151.44 257.87 148.59 C256.25 148.4 254.64 148.21 253.02 148.02 C239.82 146.46 226.63 144.9 213.43 143.35 C201.93 141.99 190.43 140.64 178.93 139.28 C178.14 139.18 177.34 139.09 176.52 138.99 C155.87 136.55 135.23 134.06 114.6 131.45 C91.25 128.5 67.88 125.81 44.5 123.12 C29.81 121.43 15.13 119.74 0 118 C0 79.06 0 40.12 0 0 Z " fill="#FEFEFE" transform="translate(162,824)"/>
<path d="M0 0 C3.44 -0.25 3.44 -0.25 7 0 C8.65 1.28 8.65 1.28 10 3 C12.44 10.83 12.31 18.62 12.25 26.75 C12.25 27.77 12.25 27.77 12.24 28.81 C12.21 39.12 11.66 49.28 10.44 59.52 C9.84 65.02 9.26 70.67 10.47 76.12 C11.11 78.22 11.81 80.29 12.5 82.38 C16.04 94.15 15.51 106.1 15.19 118.28 C15.02 120.66 14.67 122.72 14 125 C12.96 125.05 11.93 125.1 10.86 125.15 C6.93 125.34 3 125.54 -0.93 125.74 C-2.61 125.83 -4.3 125.91 -5.98 125.99 C-17.07 126.53 -28.01 127.45 -39 129 C-39 129.66 -39 130.32 -39 131 C-22.17 131 -5.34 131 12 131 C11.23 135.63 10.66 138.29 8.69 142.31 C8.28 143.17 7.87 144.04 7.45 144.93 C6.97 145.61 6.49 146.29 6 147 C4.32 147.7 4.32 147.7 2 148 C-1.02 147.58 -1.02 147.58 -4.53 146.82 C-6.46 146.42 -6.46 146.42 -8.43 146 C-9.79 145.71 -11.14 145.42 -12.5 145.12 C-21.65 143.15 -30.63 141.49 -40 141 C-39.67 141.99 -39.34 142.98 -39 144 C-36.1 144.84 -33.33 145.49 -30.37 146.04 C-29.51 146.22 -28.64 146.39 -27.75 146.57 C-24.98 147.12 -22.21 147.65 -19.44 148.19 C-17.56 148.56 -15.69 148.93 -13.81 149.3 C-9.21 150.22 -4.61 151.11 0 152 C0 152.99 0 153.98 0 155 C-2.66 158.06 -5.75 160.58 -9 163 C-11.92 164.58 -14.87 165.88 -18 167 C-18 167.99 -18 168.98 -18 170 C-15.17 169.85 -12.73 169.66 -10 169 C-7.76 167.82 -5.73 166.51 -3.66 165.06 C-2.84 164.53 -2.84 164.53 -2 164 C-1.34 164 -0.68 164 0 164 C6.61 177.02 11.07 191.14 13.17 205.59 C13.94 212.1 14.13 218.59 14.26 225.13 C14.28 226.04 14.29 226.95 14.31 227.88 C14.39 232.49 14.44 237.09 14.45 241.7 C14.46 243.43 14.48 245.16 14.5 246.89 C14.48 248.07 14.48 248.07 14.47 249.27 C14.52 252.57 14.78 255.35 15.85 258.49 C17.29 261.81 18.53 264.48 20.98 267.16 C25.89 270.41 30.94 272.98 36.38 275.21 C37.11 275.51 37.84 275.81 38.59 276.12 C49.79 280.62 61.33 284.26 72.8 288.02 C97.77 296.24 97.77 296.24 107 302 C110.33 305.03 112.89 308.1 115.16 311.98 C116 314 116 314 116.23 316.07 C116.19 318.05 116.1 320.02 116 322 C115.67 322.66 115.34 323.32 115 324 C114.34 324 113.68 324 113 324 C112.73 322.99 112.73 322.99 112.45 321.95 C112.2 321.06 111.95 320.17 111.69 319.25 C111.32 317.93 111.32 317.93 110.95 316.58 C110.09 313.95 110.09 313.95 108.52 311.67 C108.02 311.12 107.52 310.57 107 310 C106.34 310 105.68 310 105 310 C105.29 310.85 105.58 311.69 105.88 312.56 C106.25 313.7 106.62 314.83 107 316 C107.59 317.76 107.59 317.76 108.19 319.56 C109 323 109 323 109 325.75 C108.67 326.49 108.34 327.24 108 328 C105.19 329.81 105.19 329.81 102 331 C100.68 331 99.36 331 98 331 C97.87 330.01 97.73 329.03 97.6 328.01 C97.42 326.73 97.24 325.45 97.06 324.12 C96.89 322.85 96.71 321.57 96.54 320.26 C96.19 317.12 96.19 317.12 95 315 C94.01 315 93.02 315 92 315 C92.16 315.71 92.33 316.41 92.5 317.14 C93.02 320.1 93.1 322.81 93.06 325.81 C93.05 326.79 93.04 327.76 93.04 328.77 C93.02 329.51 93.01 330.24 93 331 C85.17 328.82 77.96 326.24 70.75 322.46 C61.4 318.4 50.52 317.58 40.52 316.09 C38.17 315.74 35.83 315.38 33.49 315.03 C29.89 314.48 26.29 313.94 22.69 313.43 C4.68 310.87 -11.3 306.21 -28 299 C-28.75 298.68 -29.5 298.36 -30.28 298.03 C-31.85 297.36 -33.43 296.68 -35 296 C-31.61 293.24 -28.15 290.68 -24.56 288.19 C-20.58 285.3 -17.15 282.46 -14.08 278.61 C-12.67 276.52 -11.73 274.41 -11 272 C-13.34 271.96 -13.34 271.96 -16 273 C-17.17 274.64 -18.33 276.28 -19.44 277.96 C-23.19 282.86 -28.42 286.33 -33.55 289.65 C-38.19 292.26 -38.19 292.26 -41 293 C-49.08 292.7 -56.68 290.4 -64.44 288.25 C-65.7 287.91 -66.96 287.58 -68.25 287.23 C-75.55 285.22 -82.53 283.02 -89 279 C-91.41 276.53 -92.88 274.21 -94.62 271.25 C-95.08 270.51 -95.53 269.76 -96 269 C-96.66 268.67 -97.32 268.34 -98 268 C-98.42 270.66 -98.42 270.66 -98 274 C-97.19 276.3 -96.21 278.06 -94.82 280.06 C-92.74 282.27 -90.85 283.59 -88.19 285.06 C-80.41 288.58 -72.18 290.71 -63.98 293.02 C-24.91 304.03 -24.91 304.03 -7 313 C-6.07 313.44 -5.13 313.87 -4.17 314.32 C-0.99 315.91 1.49 317.51 4.05 319.98 C5.82 321.93 7.48 323.84 9 326 C9.99 328.96 10.13 330.97 10.12 334.06 C10.13 334.94 10.13 335.82 10.13 336.72 C10.07 337.85 10.07 337.85 10 339 C9.67 339.66 9.34 340.32 9 341 C8.34 341 7.68 341 7 341 C6.75 340.24 6.49 339.48 6.23 338.7 C5.89 337.71 5.54 336.71 5.19 335.69 C4.85 334.7 4.51 333.72 4.17 332.7 C3.15 330.01 3.15 330.01 1.49 328.14 C1 327.77 0.51 327.39 0 327 C-0.66 327 -1.32 327 -2 327 C-1.05 331.31 0.68 335.27 2.36 339.34 C2.67 340.66 2.67 340.66 3 342 C2.8 342.76 2.61 343.52 2.4 344.3 C1.94 344.86 1.48 345.42 1 346 C-1.16 346.61 -1.16 346.61 -3.62 346.75 C-4.44 346.81 -5.26 346.86 -6.1 346.92 C-6.73 346.95 -7.35 346.97 -8 347 C-8.05 346.26 -8.1 345.53 -8.15 344.77 C-8.26 343.31 -8.26 343.31 -8.38 341.81 C-8.44 340.85 -8.51 339.89 -8.59 338.89 C-9 335.98 -9.8 333.67 -11 331 C-12.32 331 -13.64 331 -15 331 C-14.78 331.57 -14.57 332.14 -14.34 332.72 C-12.1 338.95 -12.1 338.95 -11.8 342.16 C-11.81 343.77 -11.9 345.39 -12 347 C-15.69 347.16 -18.81 347.05 -22.4 346.15 C-23.57 345.75 -24.74 345.35 -25.94 344.94 C-26.58 344.72 -27.23 344.5 -27.89 344.27 C-31.32 343.07 -34.64 341.75 -37.93 340.21 C-38.59 339.91 -39.25 339.61 -39.93 339.29 C-41.75 338.43 -43.56 337.54 -45.37 336.65 C-57.82 331.59 -72.68 331.27 -85.92 329.92 C-139.69 324.38 -139.69 324.38 -158 316 C-160.72 314.35 -163.01 312.63 -165.37 310.52 C-167.33 307.5 -168.43 304.77 -169.39 301.3 C-170.78 293.76 -170.8 286.03 -171.06 278.38 C-171.16 275.74 -171.26 273.11 -171.37 270.48 C-171.44 268.85 -171.5 267.22 -171.55 265.6 C-171.75 260.48 -172.61 255.93 -174 251 C-174.99 251 -175.98 251 -177 251 C-176.6 258.15 -176.19 265.31 -175.77 272.46 C-175.63 274.89 -175.49 277.33 -175.36 279.76 C-175.16 283.26 -174.96 286.76 -174.75 290.26 C-174.69 291.34 -174.63 292.43 -174.57 293.54 C-174.28 298.43 -173.96 303.19 -173 308 C-187.65 311.91 -202.5 312.31 -217.59 312.21 C-220.33 312.19 -223.07 312.19 -225.81 312.19 C-251.32 312.14 -251.32 312.14 -259.56 309.19 C-260.52 308.84 -261.47 308.48 -262.46 308.12 C-270.11 305.7 -278.11 304.46 -286 303 C-286 302.01 -286 301.02 -286 300 C-284.75 298.52 -284.75 298.52 -283 296.81 C-278 291.28 -274.78 284.86 -271.81 278.06 C-269.22 271.48 -267.93 264.45 -267.69 257.38 C-267.76 255.91 -267.86 254.46 -268 253 C-268.07 252.1 -268.14 251.2 -268.21 250.28 C-269.09 242.87 -271.67 236.74 -274.95 230.13 C-276.63 227.57 -277.86 226.03 -280.11 224.09 C-281.06 223.4 -282.02 222.71 -283 222 C-283.66 222 -284.32 222 -285 222 C-283.4 225.35 -281.5 228.46 -279.56 231.62 C-277 236.05 -274.72 240.22 -273.43 245.18 C-272.31 252.52 -272.45 259.89 -273.43 267.24 C-274.88 274.03 -277.62 279.96 -281.07 285.97 C-284.36 291.14 -287.75 295.45 -292.59 299.25 C-301.11 305.59 -310.02 310.35 -320 314 C-320.68 314.26 -321.37 314.51 -322.07 314.78 C-324.2 315.57 -326.35 316.32 -328.5 317.06 C-329.16 317.3 -329.82 317.54 -330.5 317.79 C-332.41 318.41 -332.41 318.41 -336 319 C-339.22 317.62 -339.22 317.62 -342 316 C-343.32 316 -344.64 316 -346 316 C-345.91 317.92 -345.91 317.92 -345 320 C-342.62 321.68 -342.62 321.68 -339.59 323.07 C-338.47 323.63 -337.34 324.19 -336.17 324.77 C-335.57 325.06 -334.97 325.36 -334.36 325.66 C-331.24 327.18 -328.16 328.75 -325.07 330.33 C-324.46 330.64 -323.85 330.95 -323.22 331.27 C-313.35 336.35 -303.75 342.05 -295.69 349.75 C-294.42 351.14 -293.19 352.55 -292 354 C-291.53 354.57 -291.06 355.14 -290.58 355.73 C-289.44 357.38 -289.44 357.38 -288 361 C-287.55 364.72 -287.35 368.3 -288 372 C-289.53 373.83 -289.53 373.83 -291 375 C-291.11 374.32 -291.22 373.65 -291.33 372.95 C-291.49 372.06 -291.65 371.17 -291.81 370.25 C-291.96 369.37 -292.11 368.49 -292.27 367.58 C-292.89 364.94 -292.89 364.94 -294.45 362.67 C-294.96 362.12 -295.47 361.57 -296 361 C-296.66 361 -297.32 361 -298 361 C-297.67 361.99 -297.34 362.98 -297 364 C-295.82 368.15 -295.72 371.7 -296 376 C-296.81 378.44 -296.81 378.44 -298 380 C-301.47 381.16 -304.36 381.07 -308 381 C-308.07 379.45 -308.07 379.45 -308.15 377.86 C-308.22 376.49 -308.3 375.12 -308.38 373.75 C-308.41 373.07 -308.44 372.39 -308.47 371.68 C-308.64 368.73 -308.89 366.26 -310.04 363.52 C-310.36 363.02 -310.67 362.52 -311 362 C-311.99 362 -312.98 362 -314 362 C-313.67 362.93 -313.34 363.86 -313 364.81 C-311.54 369.81 -311.83 374.84 -312 380 C-314.53 379.89 -316.57 379.64 -319 379 C-325.61 376.06 -331 371.41 -336.5 366.81 C-348.21 357.06 -361.12 349.77 -374.77 343.1 C-379.77 340.64 -384.71 338.07 -389.62 335.44 C-390.89 334.78 -390.89 334.78 -392.18 334.12 C-395.37 332.39 -398.24 330.72 -400.88 328.21 C-402.37 326.52 -403.76 324.88 -405 323 C-406.32 319.04 -406.32 315.5 -406.3 311.34 C-405.9 306.85 -404.58 302.98 -402.97 298.79 C-401.95 295.87 -401.43 293.06 -401 290 C-403.73 289.86 -403.73 289.86 -405.81 290.24 C-408.12 290.95 -408.12 290.95 -410.41 292.51 C-413.82 295.28 -416.77 298.11 -419.18 301.81 C-423.76 309.73 -427.27 317.99 -429 327 C-429.39 331.26 -429.43 335.47 -429.38 339.75 C-429.36 340.89 -429.35 342.04 -429.34 343.22 C-429.14 354.65 -427.46 364.81 -423.38 375.56 C-419.77 384.37 -414.88 392.36 -408.77 399.66 C-404.59 404.08 -400.13 407.72 -394.8 410.67 C-383.82 415.87 -372.03 418.29 -360.19 420.68 C-355.17 421.75 -350.77 422.84 -346.37 425.52 C-344.04 427.1 -342.51 428.53 -340.56 430.62 C-339 433 -339 433 -338 436 C-337.69 439.31 -337.69 439.31 -338 443 C-339.5 446.19 -339.5 446.19 -342 449 C-345.11 451 -348.3 452.51 -351.85 453.53 C-360.35 455.37 -370.57 454.67 -379.16 453.54 C-391.42 451.31 -403.57 446.92 -414.37 440.67 C-425.3 433.73 -435.32 425.38 -443.42 415.23 C-452.03 403.74 -458.44 390.65 -462.81 377 C-467.84 360.1 -469.01 343.61 -468 326 C-467.08 316.18 -464.04 306.96 -460 298 C-455.39 288.4 -449.56 280.53 -442.19 272.88 C-434.87 265.75 -426.96 260.66 -417.79 256.22 C-414.54 254.8 -411.45 253.78 -408 253 C-408.22 253.6 -408.43 254.21 -408.66 254.83 C-408.93 255.63 -409.21 256.43 -409.5 257.25 C-409.78 258.04 -410.06 258.83 -410.34 259.64 C-411.18 262.23 -411.18 262.23 -411 266 C-410.34 266 -409.68 266 -409 266 C-408.59 265.18 -408.59 265.18 -408.18 264.34 C-398.94 245.8 -388.5 229.81 -374 215 C-372.97 213.9 -372.97 213.9 -371.93 212.77 C-359.61 199.81 -343.72 190.35 -327.93 182.23 C-306.14 171.47 -281.9 164.13 -258 160 C-257.12 159.85 -256.23 159.69 -255.32 159.53 C-238.84 156.73 -222.51 155.8 -205.81 155.81 C-204.99 155.81 -204.17 155.81 -203.32 155.81 C-188.47 155.81 -173.79 156.55 -159 158 C-159.5 160.69 -160.01 163.03 -161.06 165.56 C-161.37 166.37 -161.68 167.17 -162 168 C-162 169.32 -162 170.64 -162 172 C-161.01 172 -160.02 172 -159 172 C-156.03 166.39 -153.06 160.78 -150 155 C-146.49 156.75 -144.83 157.98 -142.12 160.62 C-134.54 167.48 -125.43 172.02 -116.19 176.25 C-106.19 180.3 -96.63 182.89 -85.85 183.35 C-75.53 183.58 -65.55 183.31 -55.48 180.95 C-52.95 180.14 -52.95 180.14 -51.15 178.39 C-50.77 177.93 -50.39 177.47 -50 177 C-50.99 176.67 -51.98 176.34 -53 176 C-55.29 176.31 -55.29 176.31 -57.83 176.91 C-69.6 179.21 -82.58 179.1 -94.48 177.71 C-98.84 176.95 -102.88 175.59 -107 174 C-107.68 173.76 -108.35 173.52 -109.05 173.27 C-119.41 169.56 -128.43 165.02 -137 158 C-142.06 153.46 -147.23 148.68 -151 143 C-151 142.34 -151 141.68 -151 141 C-144.4 139.68 -137.8 138.36 -131 137 C-131 136.34 -131 135.68 -131 135 C-138.92 135.33 -146.84 135.66 -155 136 C-155.99 133.03 -156.98 130.06 -158 127 C-148.93 126.89 -140.04 127.06 -131 128 C-131.33 127.34 -131.66 126.68 -132 126 C-134.81 125.34 -134.81 125.34 -138.22 124.93 C-139.48 124.76 -140.74 124.58 -142.04 124.4 C-143.38 124.23 -144.72 124.05 -146.06 123.88 C-147.41 123.69 -148.75 123.51 -150.1 123.32 C-153.4 122.87 -156.7 122.43 -160 122 C-161.51 116.59 -162.39 111.58 -162.38 105.94 C-162.37 105.21 -162.37 104.48 -162.37 103.72 C-162.21 96.08 -160.41 89.24 -158 82 C-157.4 80.46 -156.79 78.92 -156.19 77.38 C-155.32 74.83 -155 72.84 -154.93 70.13 C-155.35 63.24 -156.59 56.55 -157.91 49.8 C-160.38 37.06 -161.07 23.55 -159.62 10.62 C-158.8 6.16 -158.8 6.16 -158 4 C-157.34 3.34 -156.68 2.68 -156 2 C-152.76 1.7 -152.76 1.7 -149 2 C-138.67 5.97 -129.64 13.22 -121.36 20.43 C-119.75 21.85 -118.15 23.3 -116.56 24.75 C-115.8 25.44 -115.8 25.44 -115.02 26.15 C-112.44 28.53 -110.25 30.96 -108.12 33.75 C-107.09 34.49 -106.06 35.24 -105 36 C-102.05 36.06 -102.05 36.06 -98.73 35.65 C-91.21 34.98 -83.79 34.85 -76.25 34.88 C-75.01 34.87 -73.78 34.87 -72.5 34.86 C-67.19 34.87 -61.95 34.93 -56.67 35.51 C-55.88 35.59 -55.1 35.67 -54.29 35.75 C-52.76 35.92 -51.23 36.13 -49.72 36.38 C-47.47 36.67 -47.47 36.67 -45.24 36.59 C-44.5 36.39 -43.76 36.2 -43 36 C-39.41 33.45 -36.57 30.32 -33.62 27.06 C-31.95 25.31 -30.28 23.55 -28.6 21.8 C-27.41 20.54 -27.41 20.54 -26.19 19.26 C-18.68 11.52 -9.66 4.83 0 0 Z " fill="#FEFEFE" transform="translate(695,405)"/>
<path d="M0 0 C3.13 -0.04 6.25 0.01 9.38 0.06 C10.25 0.05 11.12 0.04 12.01 0.03 C14.81 0.1 17.27 0.33 20 1 C22.64 2.51 24.96 4.23 27.37 6.09 C32.04 9.49 37.3 11.77 42.5 14.25 C57.72 21.71 71.72 29.82 84.9 40.49 C91.69 45.98 98.46 50.93 106.66 54.11 C111.85 55.49 116.88 55.77 122.21 55.48 C125.73 55.03 128.46 54.41 131.69 53 C133.97 51.62 135.8 50.19 137.71 48.34 C139.32 46.24 140.19 44.53 141 42 C141.62 37.56 141.59 33.44 141 29 C140.38 26.72 139.62 24.96 138.42 22.92 C135.55 19.04 132.33 15.49 129 12 C129.66 11.67 130.32 11.34 131 11 C133.73 11.69 136.42 12.45 139.12 13.25 C146.37 15.27 153.51 16.65 160.97 17.52 C162.52 17.7 162.52 17.7 164.1 17.89 C176.48 19.35 188.9 20.41 201.33 21.45 C203.94 21.68 206.54 21.9 209.15 22.12 C215.38 22.66 221.6 23.18 227.82 23.71 C232.85 24.13 237.88 24.56 242.91 24.98 C280.26 28.15 317.62 31.22 355 34.06 C355.92 34.13 356.85 34.2 357.8 34.28 C370.2 35.22 382.6 36.14 395 37 C395.75 37.05 396.5 37.1 397.27 37.16 C414.23 38.33 431.14 39.33 448.15 39.21 C450.83 39.19 453.5 39.19 456.18 39.19 C465.5 39.17 474.72 38.92 484 38 C483.65 38.84 483.29 39.69 482.93 40.56 C477.76 53.06 475.68 65.55 475 79 C474.84 84.3 474.81 89.61 474.81 94.91 C474.81 97.3 474.79 99.69 474.78 102.08 C474.73 114.28 475.95 125.96 478 138 C476.61 138.48 475.21 138.96 473.81 139.44 C473.04 139.7 472.26 139.97 471.46 140.25 C466.24 141.85 461.26 142.18 455.82 142.24 C454.59 142.25 454.59 142.25 453.34 142.27 C450.6 142.29 447.86 142.31 445.12 142.31 C444.17 142.32 443.22 142.32 442.23 142.32 C425.58 142.33 409.04 141.49 392.44 140.25 C391.38 140.17 390.33 140.09 389.24 140.01 C369.6 138.52 349.99 136.62 330.38 134.78 C321.52 133.95 312.66 133.14 303.8 132.34 C244.79 126.98 185.79 121.56 126.94 114.62 C126.19 114.54 125.44 114.45 124.67 114.36 C119.75 113.78 114.82 113.19 109.9 112.6 C108.66 112.45 107.42 112.31 106.15 112.15 C105.01 112.02 103.87 111.88 102.7 111.74 C101.71 111.62 100.73 111.5 99.71 111.38 C97.11 111.02 94.57 110.54 92 110 C91.84 109.36 91.68 108.72 91.52 108.06 C90.41 103.95 89.27 99.92 87.06 96.25 C85.37 94.18 83.83 92.89 81.55 91.48 C74 87.6 66.82 85.5 58.5 83.94 C48.54 82.03 39.3 79.58 30.42 74.53 C24.9 71.11 20.16 66.99 16 62 C9.07 52.48 4.71 42.19 1.4 30.96 C-0.27 24.46 -0.23 18.11 -0.12 11.44 C-0.12 10.33 -0.11 9.23 -0.1 8.09 C-0.07 5.39 -0.04 2.7 0 0 Z " fill="#FEFEFE" transform="translate(271,736)"/>
<path d="M0 0 C0 116.16 0 232.32 0 352 C-5.95 352 -11.62 351.97 -17.51 351.56 C-18.9 351.47 -20.3 351.38 -21.7 351.29 C-22.42 351.24 -23.14 351.19 -23.88 351.14 C-58.45 348.92 -94.42 347.57 -128.05 357.12 C-129.51 357.56 -129.51 357.56 -131 358 C-131.33 357.67 -131.66 357.34 -132 357 C-134.38 311.58 -127.58 265.15 -123 220 C-122.88 218.86 -122.77 217.71 -122.65 216.54 C-117.67 167.31 -109.94 118.39 -101.62 69.62 C-101.47 68.72 -101.32 67.82 -101.17 66.9 C-98.63 51.84 -95.95 36.1 -88.59 22.55 C-86.11 18.57 -83.53 15.11 -80 12 C-73.99 7.75 -67.03 5.06 -60 3 C-40.34 -1.38 -19.96 0 0 0 Z " fill="#FEFEFE" transform="translate(1024,320)"/>
<path d="M0 0 C1.97 0.19 1.97 0.19 3.97 0.38 C7.29 2.07 7.29 2.07 9.97 4.38 C12.08 6.78 13.77 8.95 15.13 11.84 C17.53 19.26 18.49 26.4 19.29 34.13 C20.55 46 23.32 56.9 26.77 68.3 C29.15 76.3 31.34 84.36 33.58 92.4 C34.4 95.36 35.23 98.32 36.06 101.27 C36.57 103.1 37.08 104.93 37.59 106.76 C37.83 107.61 38.07 108.47 38.32 109.35 C39.97 115.27 39.97 115.27 39.97 116.38 C37.68 116.68 35.39 116.97 33.1 117.26 C32.38 117.35 31.65 117.44 30.91 117.54 C27.18 118 23.45 118.45 19.71 118.82 C-13.95 122.2 -46.28 130.82 -76.88 145.34 C-93.28 153.32 -107.86 163.76 -121.03 176.38 C-121.91 177.2 -122.79 178.01 -123.69 178.86 C-132.69 187.46 -140.29 197.17 -146.21 208.13 C-147.59 210.5 -147.59 210.5 -149.03 212.38 C-151.55 214 -154.15 214.61 -157.03 215.38 C-164.6 218.2 -171.53 221.65 -178.43 225.83 C-179.29 226.34 -180.15 226.86 -181.03 227.38 C-182.06 228.03 -182.06 228.03 -183.12 228.68 C-183.75 228.91 -184.38 229.15 -185.03 229.38 C-187.06 228.91 -187.06 228.91 -189.09 227.88 C-189.76 227.56 -190.43 227.24 -191.12 226.91 C-193.03 225.38 -193.03 225.38 -194.76 222.78 C-195.85 219.85 -196.25 218.16 -196.36 215.14 C-196.34 213.6 -196.32 212.05 -196.28 210.51 C-196.27 209.74 -196.27 208.98 -196.26 208.19 C-196.2 203.94 -195.85 199.83 -195.29 195.6 C-192.12 168.31 -198.41 141.92 -204.03 115.38 C-204.4 113.58 -204.78 111.78 -205.16 109.98 C-206.18 105.13 -207.22 100.29 -208.28 95.45 C-208.43 94.74 -208.59 94.03 -208.74 93.31 C-211.81 79.37 -214.97 65.33 -221.65 52.63 C-225.26 45.38 -227.98 38.5 -229.03 30.38 C-229.34 27.31 -229.5 24.45 -229.03 21.38 C-227.78 18.45 -227.78 18.45 -226.03 16.38 C-224.34 15.28 -224.34 15.28 -222.03 14.38 C-209.67 12.99 -197.09 15.21 -184.86 16.96 C-171.45 18.84 -158.58 18.73 -145.15 17.07 C-144 16.94 -142.84 16.8 -141.65 16.66 C-136 16 -130.35 15.3 -124.71 14.59 C-105.59 12.18 -86.52 10.32 -67.23 10.36 C-41.58 10.54 -41.58 10.54 -16.78 4.82 C-14.66 3.99 -12.56 3.16 -10.45 2.32 C-6.86 0.9 -3.86 0.07 0 0 Z " fill="#FEFEFE" transform="translate(440.02734375,438.6171875)"/>
<path d="M0 0 C5.36 1.28 10.44 2.84 15.27 5.56 C16.84 6.62 18.38 7.72 19.89 8.87 C21.15 9.83 21.15 9.83 22.44 10.8 C27.19 14.73 30.85 18.88 34.2 24.06 C38.95 32.27 42.22 40.95 44.14 50.25 C45.96 62.43 46.04 74.84 46.02 87.12 C46.03 88.52 46.03 89.92 46.03 91.32 C46.03 94.22 46.03 97.12 46.02 100.02 C46.02 103.7 46.02 107.37 46.03 111.04 C46.03 113.92 46.03 116.8 46.03 119.68 C46.02 121.68 46.03 123.67 46.03 125.67 C46.01 132.13 45.88 138.56 45.53 145.01 C45.47 146.21 45.4 147.4 45.34 148.64 C44.89 151.87 44.89 151.87 43.75 154.64 C42.93 156.08 42.06 157.51 41.16 158.9 C38.76 162.63 37.48 166.69 36.34 170.95 C34.67 178.42 34.59 185.72 34.59 193.36 C34.59 194.74 34.58 196.13 34.58 197.52 C34.57 200.41 34.57 203.31 34.58 206.2 C34.58 209.87 34.56 213.54 34.54 217.21 C34.53 220.07 34.53 222.93 34.53 225.79 C34.53 227.79 34.51 229.79 34.5 231.78 C34.54 240.42 35.48 248.55 37.89 256.87 C39.03 259.31 40.11 260.81 41.89 262.87 C42.42 263.31 42.95 263.76 43.5 264.21 C43.96 264.76 44.42 265.31 44.89 265.87 C45.25 268.1 45.25 268.1 45.21 270.75 C45.21 272.26 45.21 272.26 45.2 273.8 C45.18 274.9 45.16 276 45.14 277.14 C45.13 278.3 45.12 279.46 45.11 280.65 C45.08 284.5 45.02 288.35 44.97 292.2 C44.94 294.86 44.91 297.52 44.89 300.19 C44.82 306.49 44.75 312.79 44.66 319.09 C44.57 326.26 44.49 333.43 44.42 340.61 C44.26 355.36 44.08 370.12 43.89 384.87 C34.5 384.38 25.17 383.84 15.84 382.6 C14.43 382.42 14.43 382.42 12.98 382.23 C11.02 381.97 9.06 381.71 7.1 381.45 C4.13 381.06 1.17 380.68 -1.8 380.31 C-23.82 377.44 -23.82 377.44 -31.11 373.87 C-32.68 372.07 -32.68 372.07 -34.11 369.87 C-36.82 362.05 -36.45 353.48 -36.51 345.31 C-36.53 343.86 -36.55 342.4 -36.57 340.95 C-36.62 336.98 -36.66 333.02 -36.69 329.05 C-36.73 325.66 -36.76 322.27 -36.8 318.88 C-37.1 292.53 -37.19 266.18 -37.24 239.82 C-37.25 234.97 -37.27 230.12 -37.28 225.27 C-37.29 222.34 -37.29 219.42 -37.3 216.5 C-37.31 214.55 -37.31 212.6 -37.32 210.66 C-37.34 199.73 -37.36 188.8 -37.36 177.87 C-37.36 168.95 -37.37 160.03 -37.41 151.11 C-37.43 146.45 -37.44 141.8 -37.43 137.14 C-37.41 132.83 -37.43 128.51 -37.45 124.2 C-37.46 122.63 -37.46 121.06 -37.45 119.48 C-37.42 114.91 -37.48 110.41 -38.11 105.87 C-39.11 103.37 -40.18 101.43 -41.8 99.28 C-43.73 97.21 -45.73 95.51 -48.05 93.87 C-51.95 90.89 -55.08 88.04 -57.87 83.98 C-60.73 79.11 -62.59 74.25 -63.8 68.73 C-65.49 58.81 -65.64 49.73 -63.86 39.81 C-62.62 33.55 -61.35 27.43 -58.11 21.87 C-54.12 16.47 -49.57 11.98 -44.17 8 C-38.65 4.37 -33.04 1.99 -26.71 0.19 C-17.81 -1.9 -8.93 -1.9 0 0 Z " fill="#FEFEFE" transform="translate(112.1083984375,555.129150390625)"/>
<path d="M0 0 C0.87 0.2 0.87 0.2 1.76 0.41 C14.44 3.32 26.99 5.4 39.96 6.46 C41.42 6.58 42.89 6.71 44.35 6.83 C63.9 8.47 83.48 9.78 103.05 11.09 C106.35 11.32 109.65 11.54 112.95 11.76 C139.03 13.53 165.11 15.22 191.2 16.79 C192.81 16.89 192.81 16.89 194.47 16.99 C217.31 18.36 240.15 19.67 263 21 C263 57.63 263 94.26 263 132 C241.16 130.85 241.16 130.85 231.99 130.08 C230.93 129.99 229.87 129.91 228.78 129.82 C225.34 129.53 221.9 129.25 218.46 128.96 C215.99 128.76 213.53 128.55 211.06 128.35 C203.84 127.75 196.62 127.15 189.4 126.54 C186.69 126.32 183.99 126.09 181.28 125.87 C148.75 123.15 116.22 120.4 83.72 117.28 C81.54 117.07 79.35 116.86 77.16 116.65 C13.98 110.59 13.98 110.59 -0.62 104.48 C-3 103 -3 103 -5.25 100.54 C-7 98 -7 98 -8.19 94.81 C-9.9 86.77 -10.16 78.69 -10.17 70.49 C-10.17 69.52 -10.17 68.55 -10.18 67.54 C-10.18 65.5 -10.19 63.46 -10.19 61.42 C-10.19 58.34 -10.21 55.26 -10.22 52.18 C-10.27 37.63 -9.54 24.01 -5.2 10 C-3.77 6.42 -1.97 3.3 0 0 Z " fill="#FEFEFE" transform="translate(761,774)"/>
<path d="M0 0 C1.33 -0 1.33 -0 2.68 -0 C15.83 0.01 28.93 0.37 42.06 1.12 C42.82 1.17 43.57 1.21 44.35 1.26 C51.61 1.68 58.78 2.28 66 3.19 C66 40.15 66 77.11 66 115.19 C17.96 112.8 -30.03 110.09 -78.01 106.67 C-90.16 105.8 -102.3 104.96 -114.46 104.18 C-176.57 100.19 -176.57 100.19 -192 95.19 C-191.44 93.06 -191.44 93.06 -190 90.19 C-185.41 85.35 -179.63 81.75 -174.12 78.06 C-172.43 76.92 -170.74 75.77 -169.05 74.62 C-167.78 73.76 -167.78 73.76 -166.48 72.88 C-162.75 70.34 -159.06 67.74 -155.38 65.12 C-154.68 64.63 -153.98 64.14 -153.26 63.63 C-149.84 61.2 -146.42 58.77 -143 56.33 C-84.28 14.46 -84.28 14.46 -58.26 6.28 C-39.16 1.08 -19.68 -0.02 0 0 Z " fill="#FEFEFE" transform="translate(958,674.8125)"/>
<path d="M0 0 C85.47 0 170.94 0 259 0 C259 3.63 259 7.26 259 11 C257.24 14.64 257.24 14.64 254.88 17.81 C254.04 19.01 253.2 20.21 252.38 21.42 C251.97 22.02 251.56 22.62 251.14 23.23 C243.58 34.94 240.28 50 237.22 63.42 C233.91 78.54 231.03 93.74 228.39 108.99 C228 111.01 227.52 113 227 115 C225.67 115.06 225.67 115.06 224.31 115.12 C204.56 116.03 184.93 117.44 165.28 119.59 C163.73 119.76 162.18 119.93 160.63 120.1 C159.9 120.18 159.16 120.26 158.41 120.34 C151.62 121.07 144.82 121.58 138 122 C135.61 115.09 133.62 108.13 131.75 101.06 C131.45 99.94 131.15 98.82 130.84 97.67 C129.57 92.91 128.31 88.16 127.04 83.4 C126.11 79.91 125.18 76.43 124.25 72.94 C123.97 71.87 123.69 70.81 123.4 69.72 C122.16 65.09 120.89 60.46 119.48 55.88 C119.16 54.82 119.16 54.82 118.83 53.74 C118.56 53.17 118.28 52.59 118 52 C116.51 51.01 116.51 51.01 115 50 C112.88 49.9 112.88 49.9 110.56 50.25 C109.69 50.36 108.82 50.46 107.92 50.57 C102.93 51.3 97.96 52.12 93 53 C92.95 51.99 92.9 50.97 92.85 49.93 C92.78 48.58 92.7 47.23 92.62 45.88 C92.59 45.21 92.56 44.54 92.53 43.86 C92.28 39.6 91.58 35.96 90 32 C89.67 31.67 89.34 31.34 89 31 C86.01 30.9 83.05 30.86 80.06 30.88 C78.77 30.88 78.77 30.88 77.45 30.89 C68.58 30.54 68.58 30.54 60 32 C58.69 33.69 58.69 33.69 58 36 C57.62 37.99 57.27 39.99 57 42 C54.65 42.03 52.29 42.05 49.94 42.06 C47.97 42.08 47.97 42.08 45.96 42.1 C42.18 42 38.72 41.61 35 41 C34.88 40.37 34.76 39.75 34.63 39.1 C34.38 37.88 34.38 37.88 34.12 36.62 C33.96 35.81 33.8 35 33.63 34.16 C33.42 33.45 33.22 32.74 33 32 C32.34 31.34 31.68 30.68 31 30 C27.79 29.63 27.79 29.63 24.02 29.59 C23.34 29.57 22.65 29.55 21.95 29.53 C19.76 29.47 17.57 29.42 15.38 29.38 C13.89 29.34 12.41 29.3 10.92 29.26 C7.28 29.16 3.64 29.08 0 29 C0 19.43 0 9.86 0 0 Z " fill="#FEFEFE" transform="translate(163,328)"/>
<path d="M0 0 C4.55 18.11 8.37 36.32 11.92 54.64 C12.45 57.41 12.99 60.18 13.53 62.94 C14.65 68.67 15.77 74.39 16.88 80.12 C17.07 81.11 17.27 82.11 17.46 83.13 C19.73 95.28 19.2 106.95 18 119.19 C16.85 130.91 16.5 141.44 19 153 C18.22 153.27 17.44 153.53 16.63 153.8 C1.51 158.96 -13.45 164.37 -28.12 170.69 C-29.32 171.2 -30.52 171.71 -31.76 172.23 C-39 175.4 -45.62 179.03 -52.25 183.28 C-54.47 184.67 -56.65 185.85 -59 187 C-59.01 185.98 -59.01 184.95 -59.02 183.89 C-59.08 174.16 -59.15 164.42 -59.24 154.68 C-59.28 149.68 -59.32 144.68 -59.35 139.67 C-59.37 134.83 -59.41 129.99 -59.46 125.14 C-59.48 123.31 -59.49 121.48 -59.5 119.64 C-59.55 104.55 -60.6 89.86 -65.75 75.56 C-68.79 67.78 -72.67 60.99 -78.02 54.57 C-82.73 49.52 -87.84 45.82 -93.88 42.5 C-99.99 39.56 -106.34 37.26 -113.06 36.25 C-114.36 36.17 -115.66 36.09 -117 36 C-117.79 35.94 -118.59 35.87 -119.41 35.81 C-126.37 35.49 -132.58 36.81 -139.26 38.71 C-143.97 40.33 -148.26 42.43 -152.61 44.83 C-153.4 45.21 -154.19 45.6 -155 46 C-155.99 46 -156.98 46 -158 46 C-153.3 40.53 -147.94 36.66 -141.73 33.03 C-130.6 26.82 -118.23 23.37 -106 20.06 C-105.22 19.85 -104.44 19.64 -103.64 19.42 C-75.05 11.61 -46.23 5.95 -16.97 1.31 C-15.14 1.02 -13.3 0.72 -11.46 0.41 C-7.59 -0.05 -3.9 -0.07 0 0 Z " fill="#FEFEFE" transform="translate(222,513)"/>
<path d="M0 0 C85.8 0 171.6 0 260 0 C260 9.24 260 18.48 260 28 C253 27 253 27 250.12 25.94 C246.63 24.89 243.62 24.6 239.99 24.66 C239.33 24.77 238.68 24.89 238 25 C237.32 25.66 236.64 26.32 235.94 27 C235.63 27.66 235.32 28.32 235 29 C228.33 27.62 221.92 25.79 215.43 23.71 C211.97 22.8 211.97 22.8 208.29 23.46 C207.2 23.64 206.12 23.81 205 24 C199.32 38.06 194.36 52.34 189.47 66.69 C187.17 73.43 184.86 80.16 182.55 86.89 C182.32 87.56 182.09 88.24 181.85 88.94 C176.39 104.83 170.79 120.67 165.15 136.5 C164.82 137.44 164.48 138.39 164.14 139.36 C163.52 141.09 162.9 142.83 162.28 144.56 C159.4 151.8 159.4 151.8 157.8 159.34 C157.83 160.01 157.85 160.68 157.88 161.38 C157.92 162.57 157.96 163.77 158 165 C161.93 167.06 165.77 168.69 170 170 C170 170.33 170 170.66 170 171 C160.43 171 150.86 171 141 171 C140.98 165.61 140.98 165.61 140.96 160.11 C140.91 148.26 140.84 136.41 140.76 124.56 C140.72 117.37 140.68 110.18 140.65 102.99 C140.63 96.73 140.6 90.47 140.55 84.2 C140.53 80.89 140.51 77.57 140.5 74.25 C140.49 70.55 140.46 66.85 140.43 63.15 C140.43 62.05 140.44 60.94 140.44 59.8 C140.42 58.8 140.41 57.79 140.4 56.76 C140.39 55.44 140.39 55.44 140.38 54.1 C140.26 53.41 140.13 52.72 140 52 C139.01 51.34 138.02 50.68 137 50 C134 49.63 134 49.63 130.58 49.59 C129.33 49.55 128.07 49.51 126.78 49.47 C125.47 49.44 124.16 49.41 122.81 49.38 C121.48 49.34 120.14 49.3 118.81 49.26 C115.54 49.16 112.27 49.08 109 49 C108.94 48.06 108.94 48.06 108.89 47.1 C108.82 46.28 108.76 45.47 108.69 44.62 C108.63 43.81 108.57 43 108.51 42.16 C108.26 41.09 108.26 41.09 108 40 C106.51 39.01 106.51 39.01 105 38 C102.46 37.76 100.03 37.63 97.49 37.59 C96.4 37.56 96.4 37.56 95.28 37.53 C92.96 37.47 90.64 37.42 88.31 37.38 C86.74 37.34 85.16 37.3 83.58 37.26 C79.72 37.16 75.86 37.08 72 37 C71.95 36.23 71.9 35.46 71.85 34.66 C71.74 33.16 71.74 33.16 71.62 31.62 C71.52 30.13 71.52 30.13 71.41 28.6 C71.21 27.31 71.21 27.31 71 26 C70.01 25.01 70.01 25.01 69 24 C65.92 23.7 65.92 23.7 62.31 23.77 C61.65 23.77 61 23.77 60.32 23.77 C58.93 23.77 57.53 23.78 56.14 23.79 C54.01 23.81 51.88 23.81 49.74 23.81 C44.37 23.83 44.37 23.83 39 24 C38.01 24.5 38.01 24.5 37 25 C36.01 28.3 35.02 31.6 34 35 C22.78 35 11.56 35 0 35 C0 23.45 0 11.9 0 0 Z " fill="#FEFEFE" transform="translate(162,125)"/>
<path d="M0 0 C7.26 0 14.52 0 22 0 C23.11 52.83 23.14 105.65 23.1 158.5 C23.1 170.99 23.09 183.49 23.09 195.99 C23.09 218.26 23.08 240.53 23.08 262.8 C23.07 284.38 23.06 305.96 23.05 327.55 C23.05 328.22 23.05 328.89 23.05 329.58 C23.05 336.31 23.05 343.04 23.05 349.76 C23.04 405.84 23.02 461.92 23 518 C15.74 519.65 8.48 521.3 1 523 C0.87 466.05 0.74 409.1 0.62 352.15 C0.6 345.38 0.59 338.62 0.57 331.86 C0.57 331.18 0.57 330.51 0.57 329.82 C0.52 308.17 0.47 286.52 0.42 264.87 C0.37 241.91 0.32 218.95 0.27 195.98 C0.24 183.5 0.21 171.02 0.19 158.53 C0.06 105.69 -0.04 52.84 0 0 Z " fill="#FEFEFE" transform="translate(134,0)"/>
<path d="M0 0 C0.74 0.29 1.49 0.58 2.25 0.88 C2.81 1.45 3.36 2.03 3.94 2.62 C6.75 5.36 9.47 6.91 13.01 8.59 C32.12 16.19 53.25 17.92 73.53 20.13 C74.52 20.24 75.52 20.35 76.54 20.46 C81.52 21 86.49 21.53 91.48 22.04 C105.39 23.49 118.12 25.47 130.94 31.38 C141.93 36.43 141.93 36.43 153.66 39.19 C156.03 39.34 158.37 39.39 160.75 39.38 C161.99 39.37 161.99 39.37 163.25 39.36 C166.88 39.26 170.01 38.94 173.52 37.96 C177.25 36.23 180.14 33.96 183.38 31.44 C184.57 29.92 184.57 29.92 185.25 27.88 C185.95 23.1 185.94 18.66 185.25 13.88 C183.96 10.54 182.32 7.77 180.25 4.88 C179.92 4.22 179.59 3.55 179.25 2.88 C189.17 3.95 199.03 5.39 208.89 6.93 C210.24 7.14 211.58 7.35 212.93 7.55 C224.84 9.35 236.08 11.99 246.88 17.44 C252.85 20.37 258.75 22.46 265.25 23.88 C262.4 26.2 259.51 28.44 256.54 30.61 C247.7 37 247.7 37 239.75 44.44 C238.05 46.22 236.57 47.68 234.46 48.96 C227.56 51.84 219.53 52.56 212.14 53.1 C208.8 53.22 205.47 53.25 202.12 53.25 C201.47 53.25 200.82 53.25 200.15 53.25 C176.81 53.18 153.5 51.05 130.24 49.32 C124.44 48.89 118.63 48.47 112.83 48.05 C78.11 45.55 43.42 42.8 8.73 40.01 C5.48 39.75 2.24 39.49 -1.01 39.23 C-40.35 36.09 -40.35 36.09 -57.62 34.44 C-59.51 34.26 -61.41 34.09 -63.31 33.92 C-64.41 33.81 -65.52 33.7 -66.65 33.59 C-68.07 33.45 -68.07 33.45 -69.52 33.32 C-70.25 33.17 -70.99 33.02 -71.75 32.88 C-72.41 32.22 -73.07 31.55 -73.75 30.88 C-72.79 29.73 -72.79 29.73 -71.81 28.56 C-69.61 25.99 -69.61 25.99 -68.75 22.88 C-68.5 20 -68.38 17.7 -68.75 14.88 C-69.85 11.74 -71.23 8.82 -72.75 5.88 C-73.08 5.22 -73.41 4.55 -73.75 3.88 C-71.9 3.89 -71.9 3.89 -70.01 3.91 C-65.34 3.94 -60.67 3.97 -55.99 3.98 C-53.99 3.99 -51.99 4.01 -49.98 4.03 C-39.71 4.11 -29.53 4.06 -19.3 2.99 C-18.18 2.88 -18.18 2.88 -17.03 2.76 C-13.4 2.33 -9.93 1.71 -6.39 0.8 C-2.75 -0.12 -2.75 -0.12 0 0 Z " fill="#FDFDFD" transform="translate(524.75,718.125)"/>
<path d="M0 0 C0.93 0.16 1.87 0.32 2.83 0.49 C23.84 4.1 44.84 7.36 66 10 C65.98 10.68 65.97 11.37 65.95 12.07 C65.58 31.06 66.28 48.6 72.19 66.75 C77.12 81.06 83.76 93.99 93 106 C95.58 109.08 98.23 112.08 101 115 C100.01 115.5 100.01 115.5 99 116 C96.04 115.72 93.14 115.37 90.2 114.96 C89.3 114.84 88.41 114.72 87.48 114.59 C84.55 114.2 81.62 113.79 78.69 113.38 C77.69 113.24 76.7 113.1 75.67 112.96 C20.6 105.32 20.6 105.32 8.03 99.66 C4.83 97.93 2.07 96.14 -0.43 93.48 C-1.63 91.68 -2.29 90.05 -3 88 C-4.91 79.56 -5.31 71.26 -5.3 62.63 C-5.31 61.4 -5.31 60.16 -5.31 58.88 C-5.32 56.28 -5.32 53.68 -5.32 51.08 C-5.31 47.14 -5.34 43.2 -5.36 39.26 C-5.36 36.72 -5.36 34.18 -5.36 31.63 C-5.37 30.47 -5.38 29.32 -5.39 28.12 C-5.35 19.82 -4.26 12 -2 4 C-0.9 1.6 -0.9 1.6 0 0 Z " fill="#FEFEFE" transform="translate(156,719)"/>
<path d="M0 0 C6.93 0 13.86 0 21 0 C21 105.6 21 211.2 21 320 C15.72 322.97 10.44 325.94 5 329 C3.35 329.99 1.7 330.98 0 332 C0 222.44 0 112.88 0 0 Z " fill="#FEFEFE" transform="translate(428,0)"/>
<path d="M0 0 C6.37 0.01 12.74 0.01 19.11 0.01 C29.76 0.01 40.42 0.02 51.07 0.03 C62.03 0.04 72.98 0.04 83.94 0.05 C84.62 0.05 85.3 0.05 86 0.05 C89.41 0.05 92.82 0.05 96.23 0.05 C124.36 0.06 152.49 0.08 180.62 0.1 C180.62 7.03 180.62 13.96 180.62 21.1 C95.15 21.1 9.68 21.1 -78.38 21.1 C-78.38 14.5 -78.38 7.9 -78.38 1.1 C-52.26 -0.16 -26.14 -0.03 0 0 Z " fill="#FDFDFD" transform="translate(241.3841154575348,300.8986060619354)"/>
<path d="M0 0 C1.55 0 1.55 0 3.13 0 C15.07 0.01 27 0.03 38.94 0.06 C38.94 6.99 38.94 13.92 38.94 21.06 C-46.53 21.06 -132 21.06 -220.06 21.06 C-220.06 14.46 -220.06 7.86 -220.06 1.06 C-195.27 0.89 -170.48 0.72 -145.69 0.56 C-144.77 0.56 -143.86 0.55 -142.91 0.54 C-95.28 0.24 -47.64 -0.04 0 0 Z " fill="#FEFEFE" transform="translate(383.0625,97.9375)"/>
<path d="M0 0 C13.44 -0.32 26.68 0.68 40.06 1.81 C42.31 2 44.55 2.18 46.79 2.37 C52.23 2.82 57.68 3.29 63.12 3.75 C65.68 3.97 68.25 4.19 70.81 4.4 C132.39 9.58 132.39 9.58 153.03 18.92 C156.55 20.67 159.93 22.54 163 25 C163 25.66 163 26.32 163 27 C162.08 27.47 161.17 27.93 160.22 28.41 C147.47 35.12 135.62 43.09 123.7 51.15 C122.32 52.09 120.94 53.02 119.56 53.95 C118.9 54.4 118.24 54.84 117.56 55.3 C112.48 58.72 107.31 61.95 102 65 C101.77 64.24 101.53 63.48 101.29 62.69 C100.06 58.79 98.74 55.16 96.53 51.7 C93.69 48.25 90.59 45.52 86.82 43.13 C80.37 39.36 73.48 37.23 66.4 34.99 C62.4 33.72 58.41 32.41 54.41 31.1 C53.62 30.84 52.82 30.58 51.99 30.31 C44.59 27.89 37.25 25.31 29.94 22.62 C28.88 22.25 27.83 21.87 26.74 21.47 C19.85 18.92 13.21 15.97 7 12 C4.64 9.85 2.58 7.79 1 5 C0.64 3.34 0.31 1.67 0 0 Z " fill="#FDFDFD" transform="translate(715,658)"/>
<path d="M0 0 C11.22 0 22.44 0 34 0 C34 42.9 34 85.8 34 130 C23.11 130 12.22 130 1 130 C0.87 117.18 0.74 104.37 0.61 91.55 C0.55 85.6 0.49 79.65 0.43 73.69 C0.17 49.13 -0.07 24.57 0 0 Z " fill="#FEFEFE" transform="translate(162,166)"/>
<path d="M0 0 C18.18 0 18.18 0 24.44 0.44 C25.67 0.52 26.91 0.6 28.18 0.68 C29.58 0.84 29.58 0.84 31 1 C31.33 1.33 31.66 1.66 32 2 C32.1 3.64 32.12 5.29 32.12 6.94 C32.12 8.01 32.12 9.08 32.12 10.18 C32.12 11.96 32.12 11.96 32.11 13.77 C32.11 15.01 32.11 16.25 32.11 17.53 C32.11 20.93 32.11 24.34 32.1 27.75 C32.1 31.3 32.09 34.86 32.09 38.42 C32.09 45.16 32.08 51.9 32.07 58.64 C32.06 66.31 32.06 73.98 32.05 81.65 C32.04 97.43 32.02 113.22 32 129 C21.44 129 10.88 129 0 129 C0 86.43 0 43.86 0 0 Z " fill="#FCFDFD" transform="translate(234,167)"/>
<path d="M0 0 C1.46 -0 1.46 -0 2.96 -0 C3.97 -0 4.98 0 6.02 0.01 C7.04 0 8.07 0 9.12 -0 C10.09 -0 11.06 -0 12.06 0 C13.4 0 13.4 0 14.76 0 C15.45 0.05 16.13 0.09 16.83 0.13 C17.16 0.46 17.49 0.79 17.83 1.13 C17.93 2.97 17.95 4.81 17.95 6.64 C17.95 7.84 17.96 9.04 17.96 10.27 C17.95 11.61 17.95 12.94 17.95 14.28 C17.95 15.68 17.95 17.08 17.95 18.48 C17.95 22.29 17.94 26.1 17.93 29.91 C17.93 33.89 17.93 37.86 17.93 41.84 C17.92 49.38 17.91 56.91 17.9 64.45 C17.89 73.03 17.89 81.6 17.88 90.18 C17.87 107.83 17.85 125.48 17.83 143.13 C8.92 143.13 0.01 143.13 -9.17 143.13 C-9.17 96.27 -9.17 49.41 -9.17 1.13 C-5.8 0.29 -3.41 0 0 0 Z " fill="#FDFDFD" transform="translate(211.16796875,152.8671875)"/>
<path d="M0 0 C9.57 0 19.14 0 29 0 C29 43.23 29 86.46 29 131 C19.43 131 9.86 131 0 131 C0 87.77 0 44.54 0 0 Z " fill="#FEFEFE" transform="translate(163,363)"/>
<path d="M0 0 C19.14 0 38.28 0 58 0 C58 30.36 58 60.72 58 92 C47.77 92 37.54 92 27 92 C28.32 91.01 29.64 90.02 31 89 C31.65 85.81 31.65 85.81 31 82 C29.97 78.47 28.64 75.09 27.27 71.69 C26.68 70.19 26.68 70.19 26.08 68.67 C24.82 65.44 23.53 62.22 22.25 59 C21.38 56.79 20.51 54.57 19.64 52.36 C17.91 47.96 16.17 43.55 14.43 39.16 C11.45 31.63 8.51 24.09 5.58 16.54 C4.83 14.6 4.06 12.65 3.3 10.71 C2.86 9.57 2.41 8.43 1.96 7.25 C1.58 6.28 1.19 5.3 0.8 4.3 C0 2 0 2 0 0 Z " fill="#FEFEFE" transform="translate(364,0)"/>
<path d="M0 0 C5.39 0.62 10.28 1.88 15.44 3.56 C16.17 3.8 16.9 4.03 17.65 4.27 C19.44 4.84 21.22 5.42 23 6 C22.4 12.37 20.43 17.99 18.27 23.98 C17.89 25.06 17.51 26.13 17.12 27.23 C15.88 30.74 14.63 34.25 13.38 37.75 C12.51 40.19 11.64 42.63 10.78 45.07 C9.46 48.78 8.15 52.49 6.83 56.21 C2.82 67.5 -1.13 78.81 -5.06 90.12 C-9.68 103.4 -14.34 116.66 -19.12 129.89 C-19.68 131.43 -19.68 131.43 -20.24 133 C-20.72 134.31 -20.72 134.31 -21.21 135.66 C-21.92 137.76 -22.5 139.84 -23 142 C-27.61 140.88 -32.15 139.51 -36.69 138.12 C-37.57 137.87 -38.45 137.61 -39.35 137.35 C-40.19 137.09 -41.03 136.83 -41.89 136.57 C-42.65 136.34 -43.42 136.11 -44.21 135.88 C-45.09 135.44 -45.09 135.44 -46 135 C-46.33 134.01 -46.66 133.02 -47 132 C-46.21 129.22 -45.33 126.56 -44.34 123.85 C-44.05 123.02 -43.76 122.19 -43.45 121.33 C-42.82 119.53 -42.17 117.72 -41.52 115.92 C-39.77 111.03 -38.04 106.13 -36.31 101.23 C-35.95 100.21 -35.59 99.2 -35.22 98.15 C-31.87 88.68 -28.64 79.17 -25.42 69.65 C-19.97 53.53 -14.39 37.47 -8.69 21.44 C-8.36 20.52 -8.04 19.6 -7.7 18.66 C-6.79 16.08 -5.87 13.51 -4.95 10.93 C-4.54 9.79 -4.54 9.79 -4.13 8.62 C-2.99 5.45 -1.88 2.82 0 0 Z " fill="#FDFDFD" transform="translate(371,153)"/>
<path d="M0 0 C6.83 0.38 12.67 2.5 19 5 C18.45 10.69 17.34 15.65 15.44 21.03 C15.17 21.79 14.91 22.56 14.64 23.35 C13.77 25.88 12.88 28.41 12 30.94 C11.37 32.75 10.75 34.56 10.12 36.37 C8.79 40.23 7.45 44.09 6.1 47.96 C3.98 54.04 1.88 60.14 -0.22 66.23 C-8.96 91.56 -17.87 116.81 -27 142 C-28.73 141.54 -30.45 141.07 -32.18 140.61 C-33.14 140.35 -34.1 140.09 -35.09 139.82 C-39.11 138.69 -43.06 137.37 -47 136 C-46.39 129.82 -44.58 124.34 -42.52 118.5 C-42.16 117.46 -41.8 116.42 -41.43 115.35 C-40.23 111.9 -39.02 108.45 -37.81 105 C-36.97 102.58 -36.13 100.16 -35.28 97.74 C-33.48 92.57 -31.68 87.39 -29.87 82.23 C-27.15 74.44 -24.45 66.66 -21.74 58.87 C-19.76 53.17 -17.77 47.47 -15.79 41.77 C-15.07 39.7 -14.34 37.62 -13.62 35.54 C-12.26 31.64 -10.9 27.73 -9.54 23.82 C-9.13 22.67 -8.73 21.52 -8.32 20.33 C-3.65 6.98 -3.65 6.98 -1 1 C-0.67 0.67 -0.34 0.34 0 0 Z " fill="#FDFDFD" transform="translate(403,154)"/>
<path d="M0 0 C8.25 0 16.5 0 25 0 C25.33 0.33 25.66 0.66 26 1 C26.1 2.49 26.12 3.99 26.12 5.49 C26.12 6.46 26.12 7.42 26.12 8.42 C26.12 9.49 26.12 10.57 26.11 11.67 C26.11 12.79 26.11 13.91 26.11 15.07 C26.11 18.8 26.11 22.53 26.1 26.25 C26.1 28.83 26.09 31.41 26.09 33.98 C26.09 40.09 26.08 46.19 26.07 52.29 C26.06 59.24 26.06 66.18 26.05 73.13 C26.04 87.42 26.02 101.71 26 116 C17.42 116 8.84 116 0 116 C0 77.72 0 39.44 0 0 Z " fill="#FEFEFE" transform="translate(272,180)"/>
<path d="M0 0 C3.63 0 7.26 0 11 0 C20.53 23.91 30.01 47.83 39.19 71.88 C39.54 72.79 39.89 73.7 40.25 74.64 C41.22 77.19 42.2 79.75 43.17 82.3 C43.6 83.44 43.6 83.44 44.05 84.6 C44.72 86.39 45.36 88.19 46 90 C46 90.66 46 91.32 46 92 C30.82 92 15.64 92 0 92 C0 61.64 0 31.28 0 0 Z " fill="#FEFEFE" transform="translate(312,0)"/>
<path d="M0 0 C9.9 0 19.8 0 30 0 C37.64 18.92 45.04 37.93 52.4 56.96 C53 58.53 53 58.53 53.62 60.13 C54.39 62.1 55.15 64.07 55.91 66.04 C57.97 71.38 60.09 76.7 62.27 82 C63 84 63 84 63 86 C59.63 87.01 56.25 88.01 52.88 89 C51.92 89.29 50.97 89.57 49.99 89.87 C48.6 90.27 48.6 90.27 47.18 90.69 C46.33 90.94 45.48 91.19 44.61 91.45 C41.68 92.07 38.98 92.09 36 92 C35.62 91.02 35.24 90.04 34.85 89.03 C32.99 84.23 31.12 79.43 29.25 74.62 C28.9 73.73 28.56 72.84 28.2 71.93 C21.02 53.5 13.68 35.14 6.3 16.79 C5.67 15.22 5.67 15.22 5.03 13.62 C4.23 11.64 3.44 9.67 2.64 7.69 C2.29 6.82 1.94 5.95 1.58 5.05 C1.27 4.29 0.97 3.53 0.65 2.74 C0.44 2.17 0.22 1.59 0 1 C0 0.67 0 0.34 0 0 Z " fill="#FDFDFD" transform="translate(328,0)"/>
<path d="M0 0 C8.91 0 17.82 0 27 0 C27 30.69 27 61.38 27 93 C18.09 93 9.18 93 0 93 C0 62.31 0 31.62 0 0 Z " fill="#FDFDFD" transform="translate(252,0)"/>
<path d="M0 0 C8.58 0 17.16 0 26 0 C26 30.69 26 61.38 26 93 C17.42 93 8.84 93 0 93 C0 62.31 0 31.62 0 0 Z " fill="#FDFDFD" transform="translate(162,0)"/>
<path d="M0 0 C0.33 0 0.66 0 1 0 C1 38.28 1 76.56 1 116 C-12.2 116 -25.4 116 -39 116 C-36.75 105.88 -36.75 105.88 -35.53 102.51 C-35.25 101.74 -34.98 100.96 -34.69 100.17 C-34.39 99.35 -34.1 98.54 -33.79 97.7 C-33.12 95.84 -32.46 93.99 -31.79 92.13 C-31.44 91.15 -31.09 90.18 -30.72 89.17 C-23.22 68.36 -16.02 47.46 -8.94 26.5 C-8.71 25.83 -8.49 25.17 -8.26 24.48 C-5.5 16.32 -2.75 8.16 0 0 Z " fill="#FDFDFD" transform="translate(421,180)"/>
<path d="M0 0 C8.58 0 17.16 0 26 0 C26 30.69 26 61.38 26 93 C17.75 93 9.5 93 1 93 C0.87 83.83 0.74 74.65 0.61 65.48 C0.55 61.22 0.49 56.96 0.43 52.7 C0.17 35.13 -0.07 17.57 0 0 Z " fill="#FEFEFE" transform="translate(193,0)"/>
<path d="M0 0 C2.84 0.91 2.84 0.91 5 2 C4.2 2.89 3.39 3.77 2.56 4.69 C-5.4 14.04 -12.47 24.53 -17 36 C-18.92 41.59 -20.5 47.28 -22 53 C-32.9 53.72 -43.49 51.81 -54.23 50.12 C-57.39 49.62 -60.55 49.14 -63.71 48.66 C-65.73 48.35 -67.75 48.04 -69.77 47.73 C-70.71 47.58 -71.65 47.44 -72.61 47.29 C-77.26 46.56 -81.58 45.67 -86 44 C-83.36 39.27 -80.36 35.99 -76.28 32.45 C-58.18 18.31 -33.57 11.09 -12.12 3.69 C-10.98 3.28 -9.84 2.88 -8.67 2.46 C-7.6 2.11 -6.54 1.75 -5.45 1.39 C-4.51 1.07 -3.58 0.75 -2.62 0.42 C-1.32 0.21 -1.32 0.21 0 0 Z " fill="#FDFDFD" transform="translate(245,670)"/>
<path d="M0 0 C7.26 0 14.52 0 22 0 C23.2 18.41 23.12 36.78 23.07 55.21 C23.06 59.48 23.05 63.76 23.05 68.03 C23.04 76.35 23.02 84.68 23 93 C19.35 93.03 15.71 93.05 12.06 93.06 C10.5 93.08 10.5 93.08 8.91 93.09 C7.92 93.09 6.93 93.09 5.91 93.1 C4.54 93.11 4.54 93.11 3.13 93.11 C2.08 93.06 2.08 93.06 1 93 C0.67 92.67 0.34 92.34 0 92 C-0.1 89.14 -0.13 86.3 -0.11 83.44 C-0.11 82.54 -0.11 81.65 -0.11 80.72 C-0.11 77.74 -0.11 74.76 -0.1 71.78 C-0.1 69.72 -0.09 67.65 -0.09 65.59 C-0.09 60.16 -0.08 54.72 -0.07 49.28 C-0.06 43.74 -0.05 38.2 -0.05 32.65 C-0.04 21.77 -0.02 10.88 0 0 Z " fill="#F4F4F4" transform="translate(284,0)"/>
<path d="M0 0 C7.59 0 15.18 0 23 0 C23 30.69 23 61.38 23 93 C15.74 93 8.48 93 1 93 C-0.11 62 -0.1 31.02 0 0 Z " fill="#FBFBFB" transform="translate(224,0)"/>
<path d="M0 0 C15 0 15 0 22 1 C22 24.76 22 48.52 22 73 C19.03 73.99 16.06 74.98 13 76 C10.32 78.62 10.32 78.62 9 82 C8.1 88.17 8.6 94.4 9.54 100.55 C10.94 107.12 13.04 112.98 16 119 C10.72 119 5.44 119 0 119 C0 79.73 0 40.46 0 0 Z " fill="#FDFDFD" transform="translate(198,375)"/>
<path d="M0 0 C7.92 0 15.84 0 24 0 C24 28.38 24 56.76 24 86 C16.08 85.01 8.16 84.02 0 83 C0 55.61 0 28.22 0 0 Z " fill="#FEFEFE" transform="translate(226,364)"/>
<path d="M0 0 C5.48 0.9 10.87 2.02 16.27 3.32 C17.04 3.5 17.82 3.68 18.61 3.87 C23.68 5.12 28.17 6.73 32.77 9.19 C35.73 11.71 37.94 14.2 40.27 17.32 C41.14 19.93 41.46 21.63 41.52 24.32 C41.55 25 41.57 25.68 41.6 26.38 C41.49 27.02 41.38 27.66 41.27 28.32 C39.75 30.07 39.75 30.07 38.27 31.32 C38.02 30.5 37.76 29.68 37.5 28.84 C37.16 27.76 36.81 26.68 36.46 25.57 C36.12 24.5 35.79 23.43 35.44 22.34 C34.35 19.53 33.2 17.6 31.27 15.32 C29.79 15.81 29.79 15.81 28.27 16.32 C28.62 16.94 28.97 17.55 29.33 18.19 C31.23 21.73 33 25.03 33.83 28.99 C34.05 31.09 34.17 33.21 34.27 35.32 C33.28 35.81 33.28 35.81 32.27 36.32 C30.75 36.41 29.23 36.45 27.71 36.44 C26.5 36.45 26.5 36.45 25.27 36.45 C24.61 36.41 23.95 36.36 23.27 36.32 C22.94 35.99 22.61 35.66 22.27 35.32 C21.97 33.41 21.71 31.49 21.46 29.57 C21.12 27.48 20.73 25.39 20.27 23.32 C18.58 20.09 18.58 20.09 16.27 18.32 C15.28 18.32 14.29 18.32 13.27 18.32 C13.56 18.9 13.85 19.47 14.15 20.07 C14.52 20.81 14.89 21.55 15.27 22.32 C15.64 22.9 16.01 23.47 16.4 24.07 C17.27 26.32 17.27 26.32 17.4 28.35 C17.4 30.34 17.34 32.33 17.27 34.32 C1.87 33.26 -14.89 29.95 -29.1 23.7 C-38.9 19 -38.9 19 -42.73 16.32 C-43.06 15.66 -43.39 15 -43.73 14.32 C-42.62 13.91 -41.5 13.49 -40.35 13.07 C-38.81 12.49 -37.27 11.9 -35.73 11.32 C-34.91 11.01 -34.08 10.71 -33.24 10.39 C-29.22 8.86 -25.49 7.3 -21.89 4.93 C-18.75 2.91 -15.7 1.1 -12.18 -0.18 C-8.05 -1.02 -4.16 -0.53 0 0 Z " fill="#FCFCFC" transform="translate(409.7294921875,712.680419921875)"/>
<path d="M0 0 C9.33 0.62 18.58 1.59 27.86 2.73 C30.09 3 32.32 3.27 34.55 3.54 C35.98 3.71 37.42 3.89 38.85 4.06 C40.13 4.22 41.41 4.37 42.72 4.54 C45.23 4.89 47.57 5.31 50 6 C50.15 13.6 49.68 21.06 49 28.62 C48.86 30.27 48.86 30.27 48.71 31.96 C48.48 34.64 48.24 37.32 48 40 C40.34 40.18 32.96 39.71 25.38 38.69 C23.92 38.51 23.92 38.51 22.43 38.33 C17.08 37.63 11.82 36.79 6.73 34.94 C6.16 34.63 5.59 34.32 5 34 C4.52 33.18 4.03 32.35 3.54 31.5 C3.3 30.05 3.3 30.05 3.06 28.56 C2.87 27.49 2.68 26.43 2.48 25.32 C2.24 23.68 2.24 23.68 2 22 C1.8 20.98 1.6 19.95 1.39 18.89 C0.17 12.53 -0.21 6.46 0 0 Z " fill="#FCFCFC" transform="translate(105,940)"/>
<path d="M0 0 C2.16 4.78 3.76 9.39 5.05 14.5 C5.23 15.2 5.41 15.9 5.59 16.63 C6.17 18.9 6.74 21.17 7.31 23.44 C7.71 25.01 8.11 26.57 8.51 28.14 C9.49 32.03 10.47 35.93 11.45 39.82 C12.27 43.07 13.1 46.32 13.92 49.57 C14.47 51.73 15.02 53.9 15.56 56.06 C15.81 57.05 16.06 58.04 16.32 59.07 C16.55 59.96 16.77 60.86 17 61.79 C17.2 62.56 17.39 63.33 17.59 64.13 C18 66 18 66 18 68 C11.03 69.33 4.07 69.09 -3 69 C-5.53 62.53 -7.6 55.97 -9.57 49.31 C-9.9 48.2 -10.23 47.1 -10.57 45.96 C-11.26 43.64 -11.95 41.32 -12.64 38.99 C-13.69 35.44 -14.75 31.9 -15.81 28.35 C-16.49 26.09 -17.16 23.82 -17.82 21.56 C-18.14 20.5 -18.46 19.45 -18.79 18.36 C-21.19 10.15 -21.19 10.15 -21.2 5.78 C-21.13 4.86 -21.07 3.94 -21 3 C-18.44 2.49 -15.88 2 -13.31 1.5 C-12.59 1.36 -11.87 1.21 -11.13 1.07 C-7.36 0.34 -3.86 -0.18 0 0 Z " fill="#FCFCFC" transform="translate(277,383)"/>
<path d="M0 0 C1.4 -0.01 2.79 0 4.19 0.02 C4.89 0.01 5.58 0 6.3 -0.01 C8.38 0 8.38 0 12.19 0.4 C15.19 1.92 15.19 1.92 17.19 3.4 C16.94 6.52 16.94 6.52 16.19 10.4 C14 14.25 11.54 17.49 8.19 20.4 C7.53 20.4 6.87 20.4 6.19 20.4 C6.7 23.24 7.18 25.72 8.19 28.4 C8.89 29.06 9.59 29.72 10.31 30.4 C13.3 31.56 13.3 31.56 17.06 31.84 C19.14 31.82 19.14 31.82 21.19 31.4 C23.17 30.49 23.17 30.49 25 29.34 C26.05 28.7 27.1 28.06 28.19 27.4 C29.18 27.73 30.17 28.06 31.19 28.4 C31.06 30.15 31.06 30.15 30.19 32.4 C27.23 34.65 24.72 36.22 21.19 37.4 C18.31 37.64 16.01 37.78 13.19 37.4 C10.99 36.5 9 35.47 6.95 34.27 C6.08 33.84 6.08 33.84 5.19 33.4 C4.2 33.4 3.21 33.4 2.19 33.4 C1.2 34.06 0.21 34.72 -0.81 35.4 C-4.19 35.9 -7.43 35.83 -10.81 35.4 C-14.25 33.71 -14.25 33.71 -16.81 31.4 C-18.69 28.65 -18.69 28.65 -19.81 26.4 C-18.12 25.65 -18.12 25.65 -15.81 25.4 C-15.09 26.04 -14.37 26.68 -13.62 27.34 C-12.7 28.02 -11.77 28.7 -10.81 29.4 C-7.78 29.8 -4.85 29.78 -1.81 29.4 C-1.48 29.07 -1.15 28.74 -0.81 28.4 C-0.26 25.6 -0.26 25.6 -0.32 23.51 C-0.73 21.24 -0.73 21.24 -2.34 19 C-3.59 17.42 -4.87 15.85 -6.18 14.32 C-7.81 12.4 -7.81 12.4 -8.81 10.4 C-9.19 6.96 -9.19 6.96 -8.81 3.4 C-5.85 0.91 -3.87 0.4 0 0 Z " fill="#080808" transform="translate(602.8125,526.6015625)"/>
<path d="M0 0 C17.82 0 35.64 0 54 0 C54.99 1.98 55.98 3.96 57 6 C57 6.66 57 7.32 57 8 C55.88 8.17 54.75 8.33 53.6 8.5 C49.35 9.13 45.1 9.77 40.84 10.4 C39.02 10.67 37.2 10.94 35.37 11.21 C23.54 12.96 11.77 14.87 0 17 C0 11.39 0 5.78 0 0 Z " fill="#FDFDFD" transform="translate(163,500)"/>
<path d="M0 0 C2.08 0.14 4.17 0.29 6.25 0.44 C7.99 0.56 7.99 0.56 9.77 0.68 C12.31 0.93 14.56 1.28 17 2 C16.4 9.16 15.41 16.19 13 23 C12.01 24.24 12.01 24.24 11 25.5 C6.48 27.76 1.79 29.42 -3 31 C-3.1 24.63 -2.77 18.46 -2.06 12.12 C-1.98 11.28 -1.89 10.44 -1.8 9.58 C-1.43 6.2 -1.08 3.24 0 0 Z " fill="#FBFBFB" transform="translate(161,947)"/>
<path d="M0 0 C1.73 0.3 1.73 0.3 4 1 C9.89 4.85 15.45 9.63 20 15 C28.81 26.9 28.81 26.9 31 32 C31.21 33.09 31.41 34.19 31.62 35.31 C31.42 36.53 31.21 37.75 31 39 C28.65 41.74 25.85 43.81 23 46 C21.53 47.26 20.07 48.53 18.62 49.81 C17.98 50.38 17.33 50.94 16.66 51.52 C15.41 52.64 14.19 53.81 13 55 C10.38 54.62 10.38 54.62 8 54 C8.59 51.86 8.59 51.86 10 49 C12 46.86 14.23 45.03 16.5 43.19 C17.39 42.43 17.39 42.43 18.3 41.67 C19.83 40.4 21.41 39.19 23 38 C23.66 38 24.32 38 25 38 C24.52 35.14 23.99 32.71 23 30 C17.77 20.85 10.32 12.8 2.44 5.88 C1.3 4.91 0.15 3.95 -1 3 C-0.67 2.01 -0.34 1.02 0 0 Z " fill="#080808" transform="translate(542,413)"/>
<path d="M0 0 C2.25 0.31 2.25 0.31 4 1 C3.23 2.8 3.23 2.8 2 5 C0.34 6.61 0.34 6.61 -1.62 8.19 C-9.4 14.83 -15.09 22.32 -20.43 30.98 C-21.87 33.76 -22.6 35.92 -23 39 C-22.14 39.21 -21.28 39.43 -20.4 39.65 C-17.46 40.82 -16.07 41.59 -13.79 43.6 C-12.73 44.6 -11.67 45.61 -10.62 46.62 C-10.08 47.14 -9.53 47.66 -8.97 48.19 C-7.64 49.45 -6.32 50.72 -5 52 C-5.33 53.32 -5.66 54.64 -6 56 C-7.67 55.77 -7.67 55.77 -10 55 C-11.82 53.65 -13.59 52.22 -15.31 50.75 C-18.49 48.05 -21.6 45.54 -25.12 43.31 C-26.07 42.55 -27.02 41.79 -28 41 C-28.41 40.11 -28.83 39.23 -29.25 38.31 C-29 35 -29 35 -28.24 32.78 C-24.44 24.38 -18.45 17.56 -12.11 10.96 C-3.7 2.38 -3.7 2.38 0 0 Z " fill="#080808" transform="translate(696,412)"/>
<path d="M0 0 C2.37 3.55 3.29 7.1 4.38 11.17 C4.6 11.96 4.82 12.76 5.05 13.58 C5.74 16.11 6.43 18.65 7.12 21.19 C7.6 22.91 8.07 24.63 8.54 26.35 C9.7 30.56 10.85 34.78 12 39 C10.5 39.56 10.5 39.56 8 40 C4.04 39.5 4.04 39.5 0 39 C0 26.13 0 13.26 0 0 Z " fill="#F9F9F9" transform="translate(256,412)"/>
<path d="M0 0 C2.52 1.12 4.4 2.32 6.56 4.06 C7.77 5.02 7.77 5.02 9 6 C12.42 7.14 15.21 7.25 18.79 7.24 C19.52 7.16 20.25 7.08 21 7 C22.68 6.03 24.35 5.03 26 4 C28.31 4.81 28.31 4.81 30 6 C29.75 7.81 29.75 7.81 29 10 C27.12 11.69 27.12 11.69 25 13 C20.97 14.34 17.31 14.32 13.08 14.29 C10 14 10 14 7.57 13.25 C4.58 11.81 2.09 10.07 -0.56 8.06 C-1.04 7.38 -1.51 6.7 -2 6 C-1.81 3.31 -1.81 3.31 -1 1 C-0.67 0.67 -0.34 0.34 0 0 Z " fill="#050505" transform="translate(559,504)"/>
<path d="M0 0 C2.06 0.44 2.06 0.44 4 1 C3.88 3.19 3.88 3.19 3 6 C0.19 8.75 0.19 8.75 -3 11 C-7.46 12.55 -12.19 12.26 -16.86 12.23 C-20 12 -20 12 -23.69 10.62 C-26 9 -26 9 -28 7 C-27.62 4.88 -27.62 4.88 -27 3 C-21.25 3.88 -21.25 3.88 -19 5 C-14.97 5.37 -11.03 5.4 -7 5 C-4.44 3.95 -3.09 2.87 -1 1 C-0.67 0.67 -0.34 0.34 0 0 Z " fill="#070707" transform="translate(662,506)"/>
<path d="M0 0 C0.33 0.66 0.66 1.32 1 2 C0.69 2.95 0.38 3.9 0.06 4.88 C-1.29 9.27 -1.27 13.54 -1.2 18.11 C-0.95 21.69 -0.22 24.63 1 28 C-0.4 28.03 -1.79 28.05 -3.19 28.06 C-3.96 28.07 -4.74 28.09 -5.54 28.1 C-8.12 28 -10.49 27.57 -13 27 C-11.77 20.74 -10.35 15.08 -7.06 9.56 C-4.9 6.21 -2.62 3.02 0 0 Z " fill="#F5F5F5" transform="translate(285,704)"/>
<path d="M0 0 C4.29 0 8.58 0 13 0 C12.67 1.65 12.34 3.3 12 5 C9.44 7.31 9.44 7.31 7 9 C5.19 8.31 5.19 8.31 3 7 C1.25 4.5 1.25 4.5 0 2 C0 1.34 0 0.68 0 0 Z " fill="#F4F4F4" transform="translate(600,533)"/>
<path d="M0 0 C2.5 -0.25 2.5 -0.25 5 0 C5.66 0.99 6.32 1.98 7 3 C6.01 3.33 5.02 3.66 4 4 C2.27 3.92 0.54 3.76 -1.19 3.56 C-2.09 3.46 -2.99 3.36 -3.92 3.25 C-4.61 3.17 -5.29 3.09 -6 3 C-4 2 -2 1 0 0 Z " fill="#121212" transform="translate(558,530)"/>
<path d="M0 0 C0.66 0.33 1.32 0.66 2 1 C1.67 1.99 1.34 2.98 1 4 C-0.96 5.4 -2.95 6.74 -5 8 C-5.66 7.67 -6.32 7.34 -7 7 C-4.69 4.69 -2.38 2.38 0 0 Z " fill="#EDEDED" transform="translate(71,552)"/>
</svg>
