<svg version="1.1" xmlns="http://www.w3.org/2000/svg" xmlns:xlink="http://www.w3.org/1999/xlink" width="600" height="600" viewBox="0,0,600,600"><g fill="none" fill-rule="nonzero" stroke="none" stroke-width="1" stroke-linecap="butt" stroke-linejoin="miter" stroke-miterlimit="10" stroke-dasharray="" stroke-dashoffset="0" font-family="none" font-weight="none" font-size="none" text-anchor="none"><g><path d="M536.10624,83.40522c39.88818,22.01211 4.462,91.33653 0,136.67626c-0.44075,4.47854 -9.0009,0.17442 -13.49352,0.43527c-4.07775,0.23677 -9.39617,0.667 -13.60403,1.7696c-3.75602,0.9842 -5.53061,1.6866 -8.72882,4.0299c-1.35727,0.99445 -2.3162,2.51802 -3.78363,3.34128c-0.30905,0.17339 -0.31329,-0.63668 -0.49621,-0.94019c-0.83322,-1.38253 -2.23959,-3.81489 -3.62149,-4.78367c-1.38748,-0.9727 -2.94428,-1.69836 -4.51162,-2.34232c-3.91081,-1.60681 -9.22464,-2.43182 -13.17141,-2.99741c-2.78733,-0.39943 -5.59853,-0.60952 -8.39863,-0.90646c-0.48698,-0.05164 -0.9743,-0.10111 -1.46252,-0.13929c-5.69312,-0.44517 -11.38235,-0.94728 -17.08127,-1.31072c-5.70042,-0.36353 -11.40925,-0.58042 -17.11391,-0.87001c-1.20859,-0.06135 -2.41607,-0.15264 -3.62584,-0.18282c-6.58501,-0.16426 -13.1711,-0.2835 -19.75712,-0.40045c-0.93134,-0.01654 -1.86298,0.00064 -2.79446,0c-3.29648,-0.00226 -6.59296,-0.00549 -9.88944,-0.00871c-2.66098,-0.00259 -5.32196,-0.01373 -7.98294,-0.00871c-7.04548,0.0133 -14.09138,-0.01904 -21.1364,0.06366c-7.04537,0.08271 -14.08889,0.28169 -21.13313,0.43255c-0.56894,0.01218 -1.13767,0.03364 -1.70628,0.05659c-4.40356,0.17769 -8.81034,0.29174 -13.21018,0.54532c-8.78718,0.50644 -17.62785,1.19319 -26.311,2.70986c-4.34063,0.75817 -8.61437,1.85931 -12.91637,2.81255c-0.58406,0.12942 -1.73355,1.03345 -1.7411,0.43527c-0.58215,-46.13545 -46.13912,-300.55527 247.67131,-138.41736zM90.38495,83.40522c2.30354,-18.42831 51.28364,-18.03526 55.71516,0c18.17619,73.97286 3.58852,152.4113 0.43527,228.51922c-0.14277,3.44583 -6.7085,1.61892 -10.01132,2.61165c-2.59208,0.7791 -5.13872,1.71006 -7.65811,2.69925c-2.02496,0.79505 -5.36783,2.58289 -7.13252,3.85164c-1.08408,0.77941 -2.03576,1.72815 -3.05563,2.58988c-0.27145,0.22936 -0.57864,0.42099 -0.81832,0.68338c-0.95896,1.04985 -1.946,2.08523 -2.76944,3.24443c-0.82695,1.16415 -1.53441,2.41565 -2.16223,3.6982c-0.93586,1.91185 -1.70215,3.90237 -2.52024,5.8675c-0.1529,0.36727 -0.31054,0.73791 -0.39175,1.12736c-0.34982,1.67773 -0.71875,3.35793 -0.89884,5.06224c-0.18063,1.70942 -0.129,3.43549 -0.18064,5.15365c-0.06251,2.08012 0.03066,4.12154 0.35965,6.20321c0.24891,1.57495 0.60109,3.14197 1.11158,4.65254c0.3587,1.06141 0.90629,2.05547 1.48048,3.01754c2.2176,3.71568 3.59386,4.13871 7.37301,7.58575c0.2467,0.22502 0.48451,0.46275 0.69154,0.72473c0.40521,0.51277 0.69174,1.09399 0.86565,1.72369c0.08041,0.29114 0.12061,0.59341 0.14473,0.89449c0.02572,0.32108 0.00234,0.64421 0.00435,0.96631c0.00234,0.37289 0.00801,0.74576 0.00871,1.11866c0.00076,0.40771 -0.00435,0.81541 -0.00435,1.22312c0,1.88039 0.00541,3.76077 0.00871,5.64116c0.01141,6.503 0.02422,13.00602 0.03917,19.50901c0.03656,15.90058 0.07057,31.80116 0.10447,47.70175c0.00626,2.9352 0.01143,5.87041 0.01741,8.80561c0.00563,2.76545 0.0121,5.53089 0.01741,8.29634c0.00194,1.01129 0.01403,2.02262 0.00435,3.03386c-0.00831,0.86861 -0.10769,4.36375 -0.08685,5.43359c0.02398,1.23134 0.03083,2.46548 0.14289,3.69195c0.18107,1.98175 0.58853,4.01731 0.98342,5.97506c0.19884,0.9858 0.33197,1.98821 0.61023,2.9546c0.09575,0.33255 0.77344,1.25005 1.08819,1.41464c2.9514,1.54339 3.90874,1.62222 7.11239,2.44189c0.4674,0.11959 0.9374,0.2288 1.40594,0.34387c0.35268,0.08661 0.83007,-0.02179 1.05772,0.26116c0.26908,0.33446 0.11767,0.85042 0.17846,1.27535c0.32218,2.25202 0.64756,4.50358 0.97066,6.75546c0.14053,0.9794 0.2826,1.95858 0.42222,2.9381c0.0432,0.30308 0.05411,0.61219 0.12623,0.90972c0.32152,1.32641 0.60235,2.6685 1.05336,3.95665c0.14923,0.42621 0.36066,0.8824 0.73126,1.14042c0.62087,0.43226 1.38483,0.61997 2.10945,0.83736c0.73168,0.2195 1.48974,0.34323 2.2433,0.46846c2.0989,0.34882 4.20692,0.64044 6.31148,0.95325c0.55064,0.08184 1.10298,0.15178 1.65404,0.2307c1.36895,0.19605 3.07189,0.48763 4.4953,0.57565c0.60985,0.03771 1.22163,0.04141 1.83264,0.0389c0.89428,-0.00366 1.81574,0.16379 2.68224,-0.0574c1.34279,-0.34277 2.56103,-1.06011 3.83477,-1.60616c1.62717,-0.69757 3.60357,-1.91756 4.80108,-2.80317c0.6321,-0.46746 1.09671,-1.48491 1.30147,-2.22425c0.31765,-1.14698 1.05382,-4.40802 1.37112,-5.81962c0.10436,-0.46428 0.29327,-1.43527 0.47173,-1.91194c0.11222,-0.29976 0.08764,-0.85844 0.40753,-0.86946c2.93055,-0.10101 5.85469,0.34326 8.77949,0.5528c0.47838,0.03427 0.95185,0.11858 1.4277,0.17846c1.02295,0.12873 2.04569,0.25905 3.06869,0.38739c2.50418,0.31418 5.00858,0.62662 7.51284,0.94019c0.87928,0.1101 1.75809,0.22394 2.63776,0.33081c6.19064,0.75208 12.38193,1.49884 18.57317,2.24602c2.2891,0.27625 10.53251,1.25064 11.03421,1.31018c6.32609,0.75078 12.65251,1.49875 18.97798,2.25472c9.28159,1.10927 18.56263,2.22314 27.84452,3.32985c14.25994,1.70025 54.1194,6.43226 69.49161,8.27457c11.27587,1.35138 22.54452,2.76357 33.8252,4.07417c12.31232,1.43046 24.62628,2.84681 36.93741,4.28746c8.09746,0.94756 16.1916,1.92332 24.28833,2.87717c2.11338,0.24897 4.24907,0.3463 6.34195,0.73126c0.1427,0.02625 0.14509,0.43509 0,0.43527c-116.94371,0.14509 -278.50177,91.89274 -350.83141,0c-91.89274,-116.74711 -18.42831,-298.29484 0,-445.7213z" fill="#fefefe"/><path d="M450.41154,218.53103c6.10366,0.4439 12.21001,0.85756 18.30956,1.35615c1.1902,0.09729 4.29487,0.35952 5.57628,0.50084c2.46621,0.27199 4.72924,0.50503 7.13837,1.0331c0.82172,0.18012 1.63462,0.4035 2.43618,0.65876c0.76662,0.24414 1.51664,0.53889 2.26356,0.8379c0.85074,0.34058 1.74717,0.60065 2.52799,1.0803c2.45738,1.50952 4.01996,2.65185 5.2233,5.2233c0.29882,0.63856 0.36169,1.36733 0.44833,2.06701c0.35516,2.86816 -0.27364,3.2781 -1.13171,6.69507c-0.86384,3.43992 -1.82271,6.859 -2.54309,10.33179c-0.72135,3.47744 -1.18666,7.00312 -1.77919,10.50481c-0.22978,1.35797 -0.48379,2.71209 -0.68773,4.07417c-1.61736,10.80175 -3.36553,21.58584 -4.77605,32.41654c-1.41045,10.83017 -2.46807,21.70338 -3.68569,32.55692c-0.09656,0.86069 -0.17759,1.72308 -0.25681,2.58553c-0.62085,6.75887 -1.37028,13.50754 -1.84339,20.27836c-0.66926,9.57805 -0.89497,14.95289 -1.04684,22.80078c-0.03779,1.9529 0.2502,3.93881 -0.10882,5.8588c-0.02772,0.14825 -2.17349,0.43659 -2.17637,0.43527c-0.7309,-0.33411 -1.20687,-1.06473 -1.85427,-1.54087c-0.78418,-0.57675 -1.58142,-1.14395 -2.43427,-1.61324c-2.82896,-1.55665 -6.58258,-2.40836 -9.50851,-3.0997c-2.30678,-0.54505 -4.63415,-1.01707 -6.97915,-1.36241c-4.68598,-0.69009 -9.40056,-1.16971 -14.10236,-1.74219c-0.43725,-0.05324 -0.87563,-0.09764 -1.31453,-0.13494c-8.50897,-0.72299 -17.01882,-1.43559 -25.52886,-2.1459c-0.76483,-0.06384 -3.78731,-0.26314 -4.06111,-0.28728c-2.44918,-0.21595 -4.97374,-0.03969 -7.34308,-0.69644c-0.4321,-0.11977 -0.01008,-0.89676 -0.02176,-1.345c-0.06968,-2.6733 -0.08205,-5.34901 -0.22233,-8.01953c-0.13603,-2.58962 -0.29095,-5.18197 -0.60632,-7.75592c-0.71342,-5.82265 -1.60127,-9.78555 -3.52845,-15.35105c-0.49366,-1.42564 -1.25005,-2.74645 -1.84992,-4.13076c-0.11716,-0.27036 -0.29244,-0.53683 -0.30034,-0.83137c-0.02131,-0.79503 0.27487,-1.63168 0.87055,-2.17637c0.38606,-0.35302 0.79371,-0.76372 1.30582,-0.87055c0.44129,-0.09205 0.88055,0.19668 1.3129,0.32428c1.16147,0.34279 2.3283,0.86748 3.50342,1.14586c0.69246,0.16404 1.40013,0.26828 2.10891,0.3319c0.3027,0.02717 0.69737,0.15649 0.90972,-0.06094c0.20275,-0.2076 0.21257,-0.67302 0,-0.87055c-0.36205,-0.33642 -0.94373,-0.29397 -1.41464,-0.44398c-0.60858,-0.19386 -1.21523,-0.39372 -1.8238,-0.58762c-0.31132,-0.09919 -0.62724,-0.18428 -0.93584,-0.29163c-0.78852,-0.27431 -1.64457,-0.41435 -2.35484,-0.85314c-0.27601,-0.17052 -0.43141,-0.54614 -0.43527,-0.87055c-0.00447,-0.3757 0.26329,-0.70415 0.41242,-1.04901c0.13763,-0.31827 1.04641,-2.22452 1.17633,-2.49848c0.19606,-0.41342 0.40278,-0.82198 0.58762,-1.24053c0.4464,-1.0108 0.34643,-2.4987 1.30582,-3.04692c1.39144,-0.79511 3.2419,-0.01361 4.78802,-0.43527c0.27996,-0.07635 0.26943,-0.76278 0,-0.87055c-1.37382,-0.54953 -3.01043,-0.24801 -4.35275,-0.87055c-0.34363,-0.15937 0.01318,-0.7575 0.02612,-1.13607c0.02363,-0.69113 0.18191,-4.40242 0.18043,-5.32552c-0.00194,-1.20726 0.01301,-2.41699 -0.07542,-3.62101c-0.14284,-1.94477 -0.50668,-3.94482 -0.85978,-5.86955c-0.17773,-0.96882 -0.26819,-1.95916 -0.5467,-2.90395c-0.46531,-1.57847 -1.06851,-1.94832 -1.29277,-3.3761c-0.15972,-1.01689 -0.02134,-1.88465 0.06094,-2.90491c0.0234,-0.29017 0.0361,-0.58138 0.06964,-0.87055c0.23055,-1.98753 0.56873,-3.96398 0.72256,-5.95891c0.26572,-3.44611 0.37766,-6.90245 0.53539,-10.35519c0.02801,-0.61314 0.03392,-1.22755 0.02176,-1.84121c-0.03229,-1.63006 0.013,-3.26699 -0.15507,-4.88868c-0.06766,-0.65285 -0.35404,-4.38772 -1.3314,-5.83758c-0.23215,-0.34437 -0.5395,-0.63276 -0.83355,-0.92605c-0.32824,-0.32739 -1.20223,-1.15345 -1.74545,-1.20571c-1.29982,-0.12504 -2.64593,-0.29725 -3.91747,0c-1.36021,0.31797 -2.58025,1.092 -3.78417,1.8004c-2.78591,1.63927 -6.37934,4.92424 -8.50908,6.93828c-1.64378,1.55447 -3.18452,3.21441 -4.77388,4.82448c-0.26166,0.26507 -0.53292,0.52145 -0.77914,0.80091c-0.28102,0.31896 -0.50032,0.69184 -0.80091,0.99243c-0.28328,0.28328 -0.55758,0.6299 -0.94019,0.74867c-0.41415,0.12856 -0.86915,-0.00281 -1.29984,-0.05332c-0.48716,-0.05713 -0.96018,-0.20674 -1.44674,-0.26878c-1.64241,-0.20941 -3.2847,-0.44064 -4.9371,-0.54518c-1.6535,-0.10462 -3.31307,-0.06121 -4.96975,-0.08161c-0.55276,-0.00681 -1.1064,-0.02982 -1.6584,0c-2.61778,0.14144 -5.23197,0.34296 -7.848,0.51362c-0.45182,0.02948 -2.16795,0.19945 -2.65082,0c-0.56872,-0.23491 -1.03894,-0.66601 -1.50986,-1.06207c-1.215,-1.02188 -1.21183,-1.2694 -2.16386,-2.33743c-0.62107,-0.69674 -1.26561,-1.37219 -1.8978,-2.05885c-0.3109,-0.33769 -0.58399,-0.71429 -0.93149,-1.01419c-1.56621,-1.3517 -3.10227,-2.75251 -4.80108,-3.93325c-1.70401,-1.18435 -3.51356,-2.22402 -5.37564,-3.13996c-1.70794,-0.84012 -3.25648,-1.60112 -5.08727,-1.58059c-0.3151,0.00353 -0.63323,0.02127 -0.94128,0.0876c-0.33041,0.07115 -0.66676,0.15655 -0.96141,0.3221c-0.40643,0.22835 -0.79018,0.50989 -1.11485,0.84443c-0.46613,0.48032 -1.28432,1.76164 -1.44511,2.44624c-0.3105,1.32206 -0.51536,2.66991 -0.66114,4.0201c-0.45166,4.18324 -0.09706,7.88792 0.30422,12.18518c0.15471,1.65681 0.40428,3.30541 0.70515,4.942c0.3003,1.6335 0.73546,3.23931 1.09689,4.86039c0.10396,0.46628 0.23088,0.92878 0.29925,1.40158c0.06832,0.47239 0.23451,0.96694 0.10991,1.4277c-0.48468,1.7923 -1.28894,3.48258 -1.91086,5.232c-0.7638,2.14852 -1.40566,3.78184 -1.57134,6.08514c-0.08608,1.19666 -0.06663,4.92632 -0.04353,6.94698c0.01334,1.16655 1.13868,3.09755 0.04353,3.49961c-2.99646,1.10007 -6.41084,-0.41285 -9.57604,0c-0.45497,0.05934 -0.88445,1.21225 -0.43527,1.30582c3.56239,0.74216 7.29907,0.23418 10.88187,0.87055c0.4141,0.07355 0.3413,0.76882 0.51199,1.15321c0.28974,0.65246 0.41672,0.93817 0.70732,1.59147c0.1739,0.39095 0.50686,0.74518 0.52179,1.17279c0.016,0.45854 -0.12688,0.96611 -0.43527,1.30582c-0.18036,0.19868 -2.20096,0.55216 -2.31566,0.57456c-0.47282,0.09235 -0.94534,0.1863 -1.419,0.27422c-0.49558,0.09199 -0.993,0.17384 -1.48864,0.26552c-0.97125,0.17965 -1.94084,0.36823 -2.91199,0.54845c-0.11384,0.02112 -2.08286,0.33086 -2.31131,0.51362c-0.25334,0.20267 -0.75353,0.80751 -0.43527,0.87055c1.35656,0.26869 2.76791,-0.02664 4.14654,-0.13548c1.24031,-0.09792 3.77578,-0.46177 5.39469,-0.7046c1.02742,-0.15411 2.18059,-0.98271 3.08174,-0.46574c1.18729,0.68112 2.45799,2.14269 2.17637,3.4822c-0.15609,0.74248 -5.97552,0.94088 -6.23313,0.95325c-0.30001,0.0144 -0.60096,0.00468 -0.90102,-0.00871c-3.57119,-0.15928 -7.1418,-0.33143 -10.71211,-0.50927c-0.68238,-0.03399 -1.36389,-0.08361 -2.04579,-0.12623c-1.63957,-0.10247 -3.31206,0.03405 -4.9186,-0.30905c-0.26644,-0.0569 -0.14551,-0.52512 -0.21764,-0.78785c-1.0372,-3.77824 -2.07396,-7.5566 -3.11221,-11.33455c-0.54295,-1.97566 -1.07467,-3.95442 -1.62357,-5.92844c-0.5934,-2.13407 -1.22437,-4.25783 -1.79333,-6.39854c-0.52006,-1.95672 -1.0649,-3.90952 -1.4734,-5.89253c-0.40908,-1.98581 -0.66904,-3.99957 -0.97719,-6.00353c-0.26535,-1.72561 -0.38895,-3.4751 -0.74323,-5.18467c-0.71332,-3.44209 -0.96837,-4.88029 -2.8048,-7.43993c-0.54141,-0.75463 -1.10371,-1.51526 -1.8102,-2.11816c-0.51523,-0.43968 -1.16921,-0.69208 -1.79279,-0.95652c-0.62335,-0.26434 -1.26294,-0.52747 -1.93316,-0.62353c-1.34036,-0.19212 -3.32992,0.09198 -4.62697,0.40045c-0.56689,0.13482 -1.10494,0.37051 -1.6584,0.5528c-0.30115,0.09919 -0.6043,0.19221 -0.90537,0.29163c-1.25432,0.41421 -2.50723,0.83269 -3.76077,1.24924c-0.61523,0.20444 -1.23064,0.40836 -1.84556,0.61374c-2.43581,0.81356 -2.66676,1.06168 -5.29348,1.25033c-0.93181,0.06692 -2.35277,0.81333 -2.80263,-0.00544c-0.00202,-0.00367 1.16094,-7.07036 1.21105,-7.37155c0.4971,-2.98784 1.13541,-6.86896 1.70104,-9.92501c0.20263,-1.09483 0.39427,-2.19251 0.64302,-3.27779c0.38366,-1.67386 0.80424,-3.33952 1.25359,-4.99695c0.29057,-1.07176 1.4177,-4.41603 1.72042,-5.3332c0.8499,-2.575 1.17083,-3.88001 2.87771,-7.15211c1.05383,-2.02021 2.29733,-3.95083 3.69059,-5.75379c0.98735,-1.27769 2.18138,-2.39334 3.41255,-3.43813c2.89642,-2.45793 5.35694,-3.72242 8.91966,-5.11509c1.71364,-0.66986 3.46725,-1.25342 5.25451,-1.69043c3.56591,-0.87192 7.16534,-1.61662 10.78447,-2.23133c5.78702,-0.98292 12.42018,-1.43759 18.25977,-1.91956c6.81669,-0.56261 9.17591,-0.54502 18.59058,-0.99243c0.52932,-0.02515 1.05903,-0.04206 1.58875,-0.05659c9.01916,-0.24723 18.03651,-0.58028 27.05783,-0.72868c9.01727,-0.14833 18.03674,-0.22844 27.05498,-0.16146c25.57149,0.18993 28.53854,0.64319 54.07037,2.00879M160.89945,442.07158c0.33259,-2.36969 4.63078,1.2117 6.9644,1.7411c1.2686,0.28779 3.45374,0.65625 5.03178,0.91843c1.49583,0.24852 2.98816,0.5192 4.48768,0.74432c4.71498,0.70785 9.43004,1.41767 14.15513,2.0545c2.58531,0.34844 5.18262,0.60116 7.77401,0.90102c0.31226,0.03613 2.78549,0.31548 3.27823,0.38705c1.27157,0.18471 2.03156,0.25351 3.17764,0.70555c0.46831,0.18471 0.95236,0.35721 1.36601,0.64414c1.03334,0.71678 1.90055,1.65927 2.95116,2.35048c1.05746,0.69572 2.22778,1.20256 3.34726,1.79333c2.53561,1.33809 7.40858,3.08566 8.5945,3.44085c4.81352,1.44167 8.59821,2.09131 13.46196,1.87005c3.06092,-0.13925 5.05116,-0.25616 7.60479,-1.48701c0.72774,-0.35077 1.40541,-0.79897 2.08333,-1.23836c0.34678,-0.22476 1.24022,-0.96675 1.47123,-1.33194c0.34688,-0.54837 0.22169,-1.74448 0.87055,-1.7411c5.59184,0.02913 11.11674,1.22329 16.67537,1.83251c0.41189,0.04514 0.82422,0.0861 1.23618,0.13058c2.73557,0.2954 5.47069,0.59497 8.20617,0.89127c5.50318,0.59609 11.00627,1.19326 16.51199,1.76554c5.50602,0.57231 11.01458,1.11972 16.52301,1.66822c5.12684,0.5105 10.25336,1.01988 15.38371,1.4946c16.30056,1.50833 32.60175,3.00981 48.90311,4.50945c4.47942,0.41208 14.0183,1.17131 15.77871,1.27263c4.31071,0.24811 8.62923,0.33682 12.94507,0.46846c2.5155,0.07673 7.45987,0.02639 9.47049,-0.21492c2.00756,-0.24094 3.97805,-0.73515 5.94694,-1.19537c0.00682,-0.00159 2.4277,-0.94621 2.61165,-0.87055c0.8592,0.3534 1.35253,1.31169 2.17637,1.7411c2.14614,1.11863 6.25532,2.24793 8.61735,2.65898c0.50618,0.08809 7.88519,1.17373 10.86119,1.48048c6.20758,0.63985 12.41609,1.27063 18.6254,1.89344c0.98002,0.0983 1.96107,0.18632 2.94246,0.26987c18.75399,1.59661 37.50905,3.18071 56.26361,4.77061c5.99438,0.50817 18.87477,1.45523 18.90833,1.54958c5.49577,15.44681 1.15594,32.83149 0,49.18604c0,0.00001 -6.26769,0.00552 -6.53175,0.00576c-7.15069,0.00627 -14.30138,0.01078 -21.45206,0.01601c-12.05421,0.00882 -24.10842,0.01792 -36.16262,0.02612c-2.83074,0.00192 -5.66147,0.00207 -8.49221,0.00435c-1.0345,0.00084 -2.06901,-0.00112 -3.10351,0c-0.3076,0.00033 -0.61523,0.00963 -0.92278,0.00435c-0.70674,-0.01213 -1.42568,0.07703 -2.11979,-0.05659c-0.20149,-0.03879 -0.23519,-0.38978 -0.43527,-0.43527c-1.21373,-0.27596 -2.46625,-0.3389 -3.69983,-0.50492c-1.29859,-0.17477 -4.78841,-0.59309 -5.13189,-0.6355c-3.44177,-0.42494 -6.88282,-0.85573 -10.32472,-1.27971c-1.57413,-0.1939 -3.14773,-0.39223 -4.72273,-0.57892c-12.76853,-1.51347 -61.47642,-7.25691 -76.72152,-9.05371c-10.8876,-1.28323 -21.77543,-2.56451 -32.66301,-3.84783c-6.33333,-0.74651 -12.66776,-1.48381 -18.99974,-2.24166c-10.4943,-1.25602 -20.98579,-2.53537 -31.47907,-3.79995c-0.70345,-0.08477 -1.40742,-0.16514 -2.11108,-0.24811c-5.74421,-0.67731 -11.48835,-1.35512 -17.23253,-2.03273c-5.00566,-0.59049 -10.01141,-1.18028 -15.01698,-1.77157c-9.33769,-1.10302 -18.66582,-2.286 -28.00122,-3.4082c-10.16927,-1.22244 -20.3401,-2.43193 -30.51276,-3.62584c-6.45487,-0.75757 -17.16056,3.88358 -19.36972,-2.22861c-5.81961,-16.10137 -2.3796,-34.40779 0,-51.36242z" fill="#fefefe"/><path d="M394.40474,259.60986c0.51507,0 1.04905,-0.06421 1.54305,0.08161c0.29131,0.08599 0.48711,0.36632 0.70188,0.58109c0.22236,0.22236 0.52569,0.42016 0.60394,0.72473c1.14746,4.46596 0.92158,5.76409 0.97937,10.33777c0.00378,0.29887 0.01213,0.59823 -0.00435,0.89667c-0.24615,4.45662 -0.50229,8.91274 -0.78349,13.36729c-0.19862,3.14631 -0.57541,4.08389 0.01306,7.22556c0.17579,0.93851 0.64008,1.80156 0.88361,2.72482c0.33586,1.27329 0.64846,2.5565 0.85259,3.85742c0.55146,3.51441 0.48229,8.61921 0.31829,11.76894c-0.05149,0.98885 0.00999,2.08736 -0.51798,2.92505c-0.2432,0.38586 -0.91121,0.04271 -1.36676,0.06529c-1.71067,0.08479 -3.42125,0.17148 -5.13189,0.25681c-0.7327,0.03655 -1.4672,0.04623 -2.19814,0.10882c-4.79325,0.41045 -9.61642,0.58851 -14.37277,1.31018c-0.2869,0.04353 -0.28996,0.85918 0,0.87055c7.39399,0.28996 14.85046,-0.8683 22.19901,0c0.86538,0.10225 -0.27975,1.72473 -0.52451,2.56105c-0.13327,0.45537 -1.0207,2.74339 -1.45599,3.50233c-0.18244,0.31809 -0.35138,0.66396 -0.63115,0.90102c-0.27288,0.23123 -1.46599,0.44109 -1.7411,0.43527c-0.45197,-0.00956 -0.89632,-0.12093 -1.34119,-0.20131c-0.50295,-0.09089 -1.00077,-0.20821 -1.50115,-0.31231c-0.28075,-0.05841 -0.56163,-0.11619 -0.84226,-0.1752c-2.85288,-0.59984 -5.68793,-1.27033 -8.576,-1.70301c-1.99654,-0.29912 -4.01568,-0.8887 -6.02094,-0.65509c-0.45574,0.05309 0.02876,1.09307 0.43527,1.30582c1.13996,0.59662 2.50209,0.60141 3.75642,0.88796c0.3781,0.08637 0.75987,0.15584 1.14042,0.2307c2.02225,0.39779 4.04521,0.79191 6.06773,1.1883c2.00353,0.39267 4.12393,0.3963 6.01114,1.17524c0.40235,0.16607 0.27563,0.96894 0,1.30582c-1.10635,1.35221 -2.46377,2.51306 -3.91747,3.4822c-1.18899,0.79266 -2.7895,0.86379 -3.91747,1.7411c-0.34359,0.26723 -0.42228,1.20025 0,1.30582c2.58749,0.64687 4.31204,-0.94413 6.24184,-2.15026c0.10755,-0.06722 1.30965,-1.02024 1.59311,-0.46139c1.43637,2.83183 2.64379,5.79131 3.60237,8.81845c0.95858,3.02714 1.6702,6.14284 2.13019,9.28463c0.41135,2.80954 0.32942,5.66948 0.47445,8.50527c0.02038,0.39855 0.01719,0.79796 0.02176,1.19701c0.02299,2.00514 0.0409,4.01033 0.06094,6.0155c0.00753,0.75302 0.01977,1.50602 0.02176,2.25908c0.00091,0.34534 -0.05298,0.69292 -0.01306,1.03595c0.15636,1.34358 0.26213,2.70364 0.60068,4.01323c0.18414,0.71228 0.57698,1.35822 0.95162,1.99138c0.37262,0.62976 0.67121,1.3785 1.28134,1.78245c2.10226,1.39186 4.45611,2.36062 6.70323,3.50396c0.30907,0.15725 0.63483,0.28104 0.96196,0.3961c4.95759,1.74373 9.92179,3.46872 14.89075,5.17977c1.19322,0.41088 2.39775,0.78815 3.5954,1.1859c1.40493,0.46659 3.3907,1.12543 4.83175,1.65075c1.47115,0.53629 2.52814,0.96359 3.96675,1.74312c0.85337,0.46241 1.73337,0.90055 2.49249,1.50537c1.32446,1.05524 2.6851,2.91418 3.55184,4.34404c0.16286,0.26868 0.25292,0.57802 0.33244,0.88198c0.25941,0.99157 0.14585,2.75315 0.03319,3.47948c-0.04973,0.3206 -0.16533,0.69059 -0.43527,0.87055c-0.24145,0.16096 -0.64439,0.18182 -0.87055,0c-0.24001,-0.19295 -0.15753,-0.59544 -0.2394,-0.89231c-0.1082,-0.39232 -0.22132,-0.78328 -0.33081,-1.17524c-0.18573,-0.6649 -0.42539,-1.66219 -0.73507,-2.28791c-0.17735,-0.35835 -0.40455,-0.69183 -0.64475,-1.01147c-0.19683,-0.26193 -0.3656,-0.58647 -0.66162,-0.72691c-0.26217,-0.12438 -0.75424,-0.26585 -0.87055,0c-0.15743,0.35984 0.25884,0.74169 0.38304,1.1143c0.16599,0.49797 0.32301,0.99888 0.48751,1.49734c0.39034,1.18284 0.66592,1.78239 0.82648,3.00938c0.09276,0.70886 0.18013,1.62407 -0.3912,2.21392c-0.33733,0.34826 -0.81013,0.53728 -1.2438,0.75411c-0.43974,0.21987 -0.88377,0.46581 -1.36785,0.55171c-0.57144,0.10141 -1.26108,0.3262 -1.7411,0c-0.36201,-0.246 -0.11486,-0.86781 -0.17411,-1.30147c-0.07714,-0.56457 -0.15783,-1.12866 -0.23505,-1.69322c-0.07658,-0.5599 -0.14697,-1.12065 -0.22634,-1.68016c-0.06209,-0.43766 -0.07384,-0.88703 -0.19805,-1.31127c-0.17529,-0.59873 -0.69463,-1.90572 -1.7781,-0.97828c-0.24223,0.20735 0.18652,0.61415 0.21764,0.93149c0.12302,1.25455 0.18529,2.51462 0.24375,3.77383c0.01992,0.42902 -0.00374,0.85896 -0.00871,1.28841c-0.00374,0.32358 0.30364,1.01123 -0.01741,0.97066c-1.71812,-0.21707 -3.32686,-0.97691 -4.94363,-1.59746c-1.61622,-0.62034 -3.13715,-1.46871 -4.74123,-2.11979c-1.03243,-0.41905 -2.08759,-0.78816 -3.16084,-1.08757c-2.98362,-0.83236 -7.23467,-1.28021 -9.99751,-1.68513c-1.02062,-0.14958 -2.03975,-0.30919 -3.05998,-0.46139c-1.56675,-0.23374 -3.13765,-0.44073 -4.70097,-0.69644c-1.91483,-0.31321 -3.83432,-0.60821 -5.7325,-1.01018c-6.79895,-1.43979 -8.65896,-2.46328 -16.33157,-5.27084c-0.33761,-0.12354 -0.66199,-0.2806 -0.99243,-0.42222c-0.68521,-0.29366 -2.42915,-0.2391 -2.0545,-0.88361c0.95069,-1.63546 3.04105,-2.25106 4.54427,-3.3995c1.40367,-1.07239 3.54567,-2.67242 4.56168,-4.16993c0.59404,-0.87556 1.22761,-1.82516 1.34065,-2.87717c0.03692,-0.34362 -0.69707,-0.02643 -1.03595,0.04135c-0.39437,0.07887 -0.85142,0.11423 -1.14042,0.39392c-0.62932,0.60907 -0.92048,1.49999 -1.49734,2.15896c-2.23863,2.55723 -3.31845,3.23166 -6.14173,5.08836c-0.06065,0.03989 -1.60954,0.91403 -1.92011,1.03432c-0.43173,0.16722 -0.86023,0.44584 -1.32269,0.42385c-3.87066,-0.18405 -6.49303,-1.08323 -10.20284,-2.06755c-2.02576,-0.5375 -4.52852,-1.20053 -6.30985,-1.90705c-1.5078,-0.59803 -3.1167,-1.10242 -4.3805,-2.11924c-1.0822,-0.87071 -1.64971,-2.23547 -2.44624,-3.37338c-0.01889,-0.02698 -0.89471,-1.84921 -1.47123,-1.41464c-0.3034,0.22869 -0.04294,2.4972 0,2.61165c0.34882,0.92968 0.80915,1.82825 1.38417,2.63776c0.34957,0.49212 0.86631,0.84551 1.34826,1.20898c2.00301,1.51057 4.32753,2.10474 6.73805,2.8973c1.75867,0.57823 3.55712,1.02762 5.33756,1.53489c3.40979,0.97149 6.57236,1.84039 9.95351,2.8316c1.18383,0.34705 4.58046,1.35445 5.90137,1.84978c3.03734,1.13898 3.82254,1.48684 6.34064,2.71729c0.87206,0.42612 1.73412,0.87252 2.60643,1.29812c0.4072,0.19867 0.83193,0.36158 1.23183,0.57456c1.30501,0.69504 2.53866,1.38285 3.57796,2.46365c0.7838,0.8151 1.58113,1.64575 2.15461,2.62035c0.30092,0.5114 0.32531,1.14522 0.40698,1.73294c0.06397,0.46032 0.10048,2.29092 0.08488,2.93321c-0.01165,0.47955 0.02951,1.51539 -0.49186,1.86298c-1.00132,0.66755 -1.04661,-0.53439 -1.20571,-1.00113c-0.14908,-0.43735 -0.30264,-0.87316 -0.45269,-1.31018c-0.14885,-0.43353 -0.28112,-0.87301 -0.44398,-1.30147c-0.14494,-0.38132 -0.2721,-0.77458 -0.4788,-1.12627c-0.17145,-0.29172 -0.90609,-1.21427 -1.33629,-1.35479c-0.27584,-0.0901 -0.92506,-0.28502 -0.87055,0c0.3567,1.8651 1.29731,3.56984 1.8978,5.37129c0.12553,0.37659 0.27537,0.76089 0.27858,1.15783c0.00457,0.56721 -0.36286,1.4234 -0.87055,1.7411c-0.39829,0.24924 -1.59478,0.29515 -2.01097,0.32646c-0.35966,0.02705 -0.7194,0.05344 -1.07948,0.074c-0.27547,0.01572 -0.63662,0.23451 -0.82702,0.03482c-0.22378,-0.2347 -0.04161,-0.64724 -0.06529,-0.97066c-0.03146,-0.42962 -0.06797,-0.85885 -0.10011,-1.28841c-0.11508,-1.5379 -0.14258,-3.47708 -1.14042,-4.70532c-0.36595,-0.45045 -1.22513,-0.26571 -1.7411,0c-0.23764,0.12238 0.19567,0.49756 0.28728,0.74867c0.19275,0.52835 0.38406,1.0573 0.56572,1.58957c0.30691,0.89923 0.49875,1.50751 0.53988,2.51942c0.02854,0.70226 0.57073,1.85913 -0.08705,2.10673c-1.83067,0.68909 -4.25486,-0.27586 -6.06773,-0.89667c-0.28303,-0.09692 -0.57049,-0.18185 -0.84879,-0.29163c-1.46169,-0.57663 -2.91815,-1.16663 -4.37016,-1.76722c-0.89274,-0.36926 -2.71149,-1.35374 -3.23844,-1.54958c-1.38417,-0.51441 -2.79714,-0.96227 -4.23366,-1.30426c-3.9808,-0.94769 -9.7883,-1.26871 -13.41673,-1.62514c-0.54143,-0.05319 -6.95171,-0.71817 -7.74095,-0.80308c-3.09377,-0.33286 -7.19928,-0.75994 -10.37001,-1.21197c-2.02304,-0.28841 -4.03209,-0.62031 -6.00529,-1.15974c-1.67738,-0.45855 -2.98499,-0.9863 -4.58195,-1.67554c-2.38732,-1.03036 -3.93752,-1.61398 -5.88437,-3.59401c-0.51281,-0.52155 -0.7458,-1.2627 -1.03813,-1.93316c-1.06994,-2.45395 -1.04375,-4.08829 -1.25958,-7.05036c-0.12134,-1.66539 -0.11697,-3.33755 -0.17901,-5.0062c-0.04261,-1.14631 -0.09099,-2.29241 -0.13494,-3.43867c-0.02715,-0.70801 -0.02307,-1.41777 -0.07835,-2.12414c-0.0791,-1.01079 -0.47005,-5.43212 -1.06642,-6.35501c-0.23624,-0.36559 -1.27004,-0.4338 -1.30582,0c-0.25636,3.10822 0.35783,6.22728 0.53539,9.341c0.14727,2.58267 0.29592,5.16526 0.44398,7.74789c0.02728,0.47584 0.03156,0.95339 0.07835,1.4277c0.20717,2.10016 1.71934,4.45549 0.68338,6.29407c-0.34737,0.6165 -9.16671,1.54458 -9.63263,1.5708c-5.43328,0.30572 -8.54144,0.26522 -13.35423,0.253c-1.22405,-0.00311 -2.44811,-0.00352 -3.67215,-0.00969c-1.40106,-0.00706 -3.45115,-0.01638 -4.90995,-0.07447c-1.38099,-0.055 -2.47587,-0.13422 -3.86139,-0.47897c-0.76552,-0.19048 -1.50116,-0.48584 -2.24704,-0.74269c-0.42406,-0.14602 -0.82971,-0.34736 -1.2623,-0.46574c-1.68487,-0.46109 -3.37709,-0.89974 -5.08401,-1.271c-1.71016,-0.37196 -3.55951,-0.25484 -5.16236,-0.9576c-0.39864,-0.17478 -0.12166,-0.8879 0,-1.30582c0.05634,-0.19355 1.24937,-1.31427 1.30582,-1.38853c0.9603,-1.26308 1.95358,-2.51092 2.76671,-3.8734c1.64082,-2.74937 2.75862,-5.56841 3.38426,-8.70876c0.3002,-1.50684 0.42367,-3.04687 0.51308,-4.58072c0.03707,-0.63601 -0.0884,-1.27111 -0.13494,-1.9065c-0.02891,-0.39477 -0.01204,-0.79616 -0.09141,-1.18395c-0.82081,-4.01061 -1.06858,-5.1093 -2.93375,-8.77079c-0.42899,-0.84214 -1.53706,-2.02067 -2.24602,-2.62906c-0.3927,-0.337 -0.78211,-0.70635 -1.25794,-0.90972c-0.26683,-0.11405 -0.96826,-0.27324 -0.87055,0c0.53991,1.50987 1.59045,2.78492 2.36789,4.18734c0.89303,1.61094 2.31974,4.04388 2.66823,5.90232c0.45841,2.44463 0.45567,7.15802 0,9.60216c-0.48459,2.59927 -1.97625,5.90694 -3.3255,8.1527c-1.19087,1.98213 -3.14316,4.38799 -5.01436,5.78045c-1.816,1.35138 -3.73377,2.57656 -5.72713,3.64923c-1.14977,0.61872 -4.84212,2.29603 -7.10477,3.11058c-0.93134,0.33528 -1.86661,0.65957 -2.79882,0.99243c-0.29092,0.10388 -0.57692,0.2218 -0.87055,0.31775c-0.69376,0.22669 -0.849,0.26357 -1.47762,0.374c-0.305,0.05358 -0.61279,0.2137 -0.91639,0.15269c-0.49287,-0.09906 -0.92799,-0.38891 -1.37764,-0.61374c-0.42182,-0.21091 -0.77466,-0.58523 -1.234,-0.69209c-0.56527,-0.1315 -1.22399,-0.26348 -1.7411,0c-0.28304,0.14421 0.43287,1.73837 0.43527,1.7411c0.42105,0.47708 1.84182,1.08447 2.35484,1.33629c0.49744,0.24418 0.99206,0.49405 1.48864,0.73997c0.26225,0.12987 0.52619,0.25633 0.78785,0.38739c1.34887,0.67565 2.69629,1.35419 4.0437,2.03273c2.39269,1.20494 5.07113,2.64672 7.09226,4.00344c4.59509,3.08454 4.70784,3.26336 7.30228,6.29951c0.21096,0.24688 0.42899,0.48903 0.61809,0.75303c0.40718,0.56844 0.51132,0.79064 0.75289,1.37173c0.12714,0.30585 0.3487,0.59164 0.37012,0.92217c0.10323,1.59267 0.18927,3.20328 0,4.78802c-0.03988,0.33391 -0.42492,0.52286 -0.66271,0.76064c-0.19872,0.19872 -0.386,0.65863 -0.64312,0.54518c-0.27563,-0.12161 -0.093,-0.59533 -0.14364,-0.89231c-0.06689,-0.39223 -0.14033,-0.78331 -0.20893,-1.17524c-0.11636,-0.66474 -0.2423,-1.66292 -0.52124,-2.29118c-0.16066,-0.36185 -0.39019,-0.69158 -0.62788,-1.00821c-0.19847,-0.26438 -0.37554,-0.58619 -0.67468,-0.72691c-0.26258,-0.12352 -0.77879,-0.27529 -0.87055,0c-0.14509,0.43527 0.33289,0.85857 0.43527,1.30582c0.42874,1.87279 0.64317,3.29681 0.43527,5.2233c-0.0226,0.20945 -0.53825,1.59726 -0.87055,1.7411c-0.66962,0.28985 -1.42258,0.3458 -2.14862,0.41841c-0.73108,0.07311 -1.57266,0.39247 -2.20412,0.01687c-0.392,-0.23317 -0.04142,-0.91128 -0.06529,-1.36676c-0.03126,-0.59644 -0.06923,-1.19252 -0.10011,-1.78898c-0.04721,-0.91166 -0.04608,-1.80261 -0.2209,-2.71122c-0.11415,-0.59327 -0.28576,-1.17738 -0.50165,-1.74164c-0.09321,-0.24362 -0.17434,-0.56815 -0.41786,-0.66162c-0.40637,-0.15598 -1.05342,-0.35462 -1.30582,0c-0.25094,0.35257 0.34874,0.79911 0.43527,1.22312c0.10776,0.52801 1.04054,6.04539 0.43527,6.61182c-0.74909,0.70103 -2.09447,-0.05394 -3.04692,-0.43527c-3.19668,-1.27986 -4.9162,-3.31334 -7.61731,-5.306c-2.63184,-1.94156 -5.23214,-3.94048 -8.01232,-5.66292c-2.78268,-1.72399 -5.75202,-3.12696 -8.64564,-4.65744c-2.14307,-1.1335 -4.30919,-2.22285 -6.46383,-3.3342c-1.86641,-0.96269 -2.97492,-1.4762 -4.90119,-3.14704c-0.72801,-0.63147 -1.3757,-1.39925 -1.79333,-2.26778c-0.36903,-0.76747 -0.40729,-1.65867 -0.50165,-2.50501c-0.22805,-2.04547 -0.06946,-3.34381 0.46302,-5.35061c0.47671,-1.79661 1.91875,-4.69273 1.77973,-6.50845c-0.02935,-0.38334 -0.76895,-0.05181 -1.15293,-0.03265c-1.06717,0.05325 -2.11339,0.4482 -2.943,1.12519c-0.72119,0.5885 -1.43329,1.19501 -2.07191,1.87223c-2.11153,2.23914 -3.17083,4.46094 -4.34785,7.4802c-0.71456,1.83297 -1.35378,3.71878 -1.672,5.6602c-0.29936,1.82637 -0.12662,3.69942 -0.1654,5.54975c-0.05384,2.56865 0.44071,7.3548 0.6812,8.65979c0.43445,2.35742 1.08165,4.68559 1.93044,6.9274c0.72604,1.9176 1.70865,3.73813 2.77161,5.49153c1.96065,3.2342 3.58521,5.38447 6.44043,7.63472c1.01631,0.80097 2.04867,1.6239 3.22811,2.15624c2.3845,1.07626 4.87892,1.91037 7.39205,2.63722c2.51787,0.72823 5.12002,1.12548 7.6728,1.71988c2.08033,0.48439 4.18317,0.91471 6.0155,2.10673c1.36588,0.88857 2.49627,1.85792 3.17751,3.28959c0.19402,0.40775 0.37404,0.82994 0.46574,1.27209c0.09917,0.47814 0.1012,0.97312 0.1012,1.46143c0,0.52957 0.03863,1.07471 -0.1012,1.58549c-0.13554,0.49509 -0.42259,0.94076 -0.70732,1.36785c-0.29904,0.44856 -0.57237,0.96497 -1.03378,1.2438c-3.82802,2.31325 -5.56994,2.45706 -10.21644,2.45876c-4.90442,0.0018 -9.20434,-0.9258 -13.85969,-2.62743c-2.56412,-0.93724 -5.07968,-2.05931 -7.4247,-3.45717c-2.41522,-1.4397 -4.669,-3.1603 -6.7843,-5.01273c-2.11414,-1.85142 -4.14886,-3.83178 -5.86043,-6.06066c-1.90028,-2.47461 -3.50075,-5.18509 -4.91208,-7.9677c-1.41174,-2.78343 -2.51399,-5.72116 -3.5279,-8.67285c-0.61235,-1.78267 -0.98199,-3.64315 -1.33847,-5.49405c-0.70634,-3.66742 -1.0132,-7.30628 -1.06098,-11.03707c-0.05988,-4.67533 0.05727,-7.29986 1.3722,-11.90211c1.23016,-4.30557 3.08429,-8.08337 5.67598,-11.73881c1.29658,-1.82876 2.73113,-3.57399 4.32663,-5.14876c2.95991,-2.92143 6.85956,-5.50386 10.6207,-7.25168c1.35604,-0.63016 2.78307,-1.17652 4.26134,-1.40158c0.27904,-0.04248 -0.19334,0.53039 -0.28728,0.79655c-0.1237,0.35048 -0.24308,0.70248 -0.36563,1.05336c-0.1212,0.34701 -0.25912,0.68852 -0.36563,1.04031c-0.28182,0.93077 -0.33837,1.00837 -0.32686,1.80204c0.00728,0.50214 -0.24302,1.64512 0.91013,0.96631c0.2315,-0.13628 0.23097,-0.48528 0.35693,-0.72256c1.0377,-1.95492 2.02354,-3.93908 3.13384,-5.8537c2.19036,-3.77708 4.55313,-7.30195 7.32214,-10.68232c1.40048,-1.70969 2.94284,-3.29809 4.42171,-4.94044c1.60559,-1.78307 3.30532,-3.37547 5.18936,-4.93057c1.5073,-1.24414 3.06612,-2.43742 4.7213,-3.47676c3.3062,-2.07606 6.68076,-4.0517 10.14244,-5.85662c2.35853,-1.22974 4.82313,-2.25138 7.29446,-3.23498c4.95932,-1.97382 10.14646,-3.57783 15.33323,-4.82951c2.58435,-0.62366 5.20533,-1.08451 7.81107,-1.61167c0.38694,-0.07828 0.77474,-0.15611 1.16654,-0.20458c3.57738,-0.44255 7.1448,-0.9982 10.73932,-1.26828c3.59548,-0.27015 7.20709,-0.24461 10.81114,-0.35094c0.36112,-0.01065 0.72265,-0.00807 1.08383,0c3.21868,0.07191 6.43992,0.08105 9.65548,0.23995c3.21683,0.15895 6.70783,-0.62822 9.63589,0.71331c0.99317,0.45504 -1.1519,3.29822 -1.30582,4.35275c-0.08382,0.57428 -0.34822,1.27681 0,1.7411c0.26116,0.34822 1.05481,0.35561 1.30582,0c1.60946,-2.28007 2.03727,-5.33717 3.91747,-7.39967c0.35353,-0.38781 3.35817,2.39258 3.42996,2.44624c1.76178,1.31672 3.48867,2.6955 5.37238,3.83096c3.63999,2.1941 8.25221,4.13527 12.39009,5.1036c4.45188,1.0418 8.84109,1.21843 13.38089,0.85967c2.20528,-0.17427 4.39045,-0.56002 6.56884,-0.94509c0.37279,-0.0659 0.73565,-0.21105 1.06153,-0.40372c0.31204,-0.18448 0.5661,-0.45506 0.82321,-0.71059c0.77852,-0.77372 0.77435,-0.84624 -0.80526,-1.04031c-0.40429,-0.04967 -1.74645,0.3559 -2.10238,0.3961c-2.6475,0.29901 -5.29149,0.71828 -7.95519,0.77642c-2.66906,0.05826 -5.35822,-0.02719 -7.99763,-0.4282c-1.87313,-0.28459 -3.6373,-1.06258 -5.44964,-1.61487c-0.30202,-0.09204 -0.60191,-0.19384 -0.89231,-0.31775c-2.1327,-0.90995 -4.34031,-1.67134 -6.37514,-2.78304c-3.5664,-1.94844 -6.33658,-4.0367 -9.04827,-6.94209c-1.01591,-1.08848 -2.01934,-2.20591 -2.83636,-3.45064c-0.15923,-0.24259 -0.27795,-0.78717 0,-0.87055c2.83449,-0.85035 5.871,-0.89075 8.70549,-1.7411c0.27795,-0.08338 0.28993,-0.85847 0,-0.87055c-3.4822,-0.14509 -7.10497,1.42538 -10.44659,0.43527c-1.31975,-0.39104 -2.61165,-3.4822 -1.30582,-3.91747c3.71899,-1.23966 7.83516,0.58594 11.75242,0.43527c0.32419,-0.01247 -0.16657,-0.68873 -0.43527,-0.87055c-0.35482,-0.24009 -0.83355,-0.20105 -1.25577,-0.27368c-0.48103,-0.08275 -0.96798,-0.12641 -1.45164,-0.19206c-0.55447,-0.07527 -1.10814,-0.15642 -1.66275,-0.2307c-0.58292,-0.07807 -1.16689,-0.14823 -1.7498,-0.22634c-0.58653,-0.07859 -1.17204,-0.16466 -1.75851,-0.24375c-1.43612,-0.19368 -3.1746,0.32688 -4.30922,-0.57456c-0.92431,-0.73436 -0.59303,-2.28995 -0.76608,-3.45771c-0.17313,-1.16827 -0.20029,-2.35382 -0.26987,-3.5328c-0.01898,-0.32155 -0.02838,-0.64587 0.00435,-0.96631c0.16351,-1.60094 0.26639,-3.21472 0.58381,-4.79237c0.31852,-1.58315 0.83226,-3.12181 1.31834,-4.66179c0.62564,-1.98215 1.48272,-2.81872 1.33629,-5.16671c-0.18556,-2.97545 -0.9037,-5.89398 -1.29712,-8.84913c-0.37637,-2.82708 -0.88766,-5.6467 -1.01201,-8.49602c-0.12445,-2.85136 0.12671,-5.70745 0.26769,-8.55804c0.01904,-0.38505 0.13766,-0.75869 0.21179,-1.13702c0.08852,-0.45182 0.28682,-1.41673 0.49336,-1.7445c0.21878,-0.3472 0.49211,-0.71182 0.87055,-0.87055c0.44323,-0.1859 0.95795,-0.09794 1.43858,-0.09794c2.26367,0 2.35058,0.25298 4.87827,1.63908c3.29674,1.80783 5.79583,4.03088 8.76106,6.48097c0.7223,0.59681 1.39364,1.25274 2.08932,1.88039c0.22421,0.20228 0.46376,0.38912 0.67032,0.60938c0.08592,0.09162 3.02926,3.79711 4.36145,4.28746c0.45207,0.16639 2.33329,-0.13511 2.72917,-0.15235c3.26048,-0.14195 6.52288,-0.23691 9.78498,-0.33516c2.52355,-0.076 7.0348,0.2015 8.52268,0.27422c0.73436,0.03589 2.55812,0.31883 3.02516,0.37869c0.32534,0.0417 0.65063,0.09074 0.97828,0.1061c0.3236,0.01517 0.6509,0.03006 0.97175,-0.01469c2.35409,-0.32831 3.18752,-2.30377 5.05789,-4.14817c0.75117,-0.74074 1.45744,-1.52567 2.18508,-2.28954c0.35039,-0.36784 0.67182,-0.76529 1.04901,-1.1056c1.75685,-1.58503 3.44275,-3.26486 5.34898,-4.66669c1.90693,-1.40235 7.05271,-3.79832 7.55474,-3.79832z" fill="#fefefe"/><path d="M208.34439,403.7674c1.36096,0.00871 2.72189,0.02272 4.08288,0.02612c0.38161,0.00095 0.76464,-0.0467 1.14477,-0.01306c1.16325,0.10296 2.39154,-0.00636 3.47784,0.42222c1.20888,0.47694 2.11622,1.51062 3.20797,2.21555c1.04743,0.67631 2.10897,1.33425 3.20634,1.92609c1.10022,0.59338 2.27326,1.04342 3.37936,1.62575c3.20826,1.68905 6.47774,3.27883 9.56081,5.18684c3.07887,1.90541 5.94893,4.12961 8.89484,6.23477c3.68294,2.63185 5.16523,4.29538 9.47158,5.92844c1.62723,0.61708 5.07689,0.70592 6.76852,0.59633c0.71351,-0.04623 1.41881,-0.20208 2.11054,-0.38304c1.87366,-0.49016 3.29672,-1.14217 4.63622,-2.72482c0.66953,-0.79106 1.25825,-1.73796 1.43205,-2.75964c0.31632,-1.85948 0.25275,-3.78939 0,-5.65857c-0.41866,-3.09611 -3.81977,-5.14495 -5.2233,-7.39967c-0.17145,-0.27543 0.54856,-0.47505 0.87055,-0.43527c1.21332,0.14987 2.33984,0.71948 3.53443,0.97937c3.15639,0.68668 6.33486,1.2687 9.51075,1.85862c0.44961,0.08351 0.90726,0.11673 1.36241,0.16105c5.40085,0.5259 10.80264,1.04229 16.20528,1.54958c1.13379,0.10646 2.2692,0.19483 3.40385,0.29163c2.70882,0.2311 5.41762,0.4626 8.12658,0.69209c19.36397,1.64043 30.09836,2.46038 55.35824,4.50509c6.12944,0.49616 12.26359,0.93439 18.39906,1.34935c3.68648,0.24933 7.37332,0.50797 11.06523,0.65672c3.69169,0.14874 7.38731,0.17809 11.08155,0.23559c1.16495,0.01813 2.33083,0.0306 3.49526,-0.00871c4.03784,-0.13628 8.07449,-0.72462 12.10934,-0.51798c0.40205,0.02059 -0.32678,0.73647 -0.46574,1.1143c-0.49881,1.35622 -1.03255,2.70217 -1.44708,4.08648c-1.27936,4.27236 -1.68321,8.02983 -2.00464,12.64548c-0.16038,2.30299 -0.0607,4.61675 -0.0827,6.92522c-0.03682,3.86229 -0.02827,6.8011 0.34496,10.96457c0.23396,2.60987 1.2854,5.18227 1.04357,7.79142c-0.05933,0.64009 -1.21593,0.41767 -1.8238,0.6268c-1.70156,0.5854 -1.95402,0.72699 -4.39083,1.03704c-1.139,0.14492 -2.29264,0.13228 -3.43976,0.18173c-0.35952,0.0155 -0.71964,0.0107 -1.07948,0.01306c-1.19264,0.0078 -2.3853,0.01204 -3.57796,0.01741c-4.2293,0.01903 -6.39468,-0.00483 -12.10227,-0.24212c-3.6128,-0.1502 -7.21903,-0.4304 -10.828,-0.65454c-0.4647,-0.02886 -0.92908,-0.06359 -1.39288,-0.10447c-8.54063,-0.75278 -17.08087,-1.5099 -25.62027,-2.27649c-3.85724,-0.34627 -7.71351,-0.70325 -11.5696,-1.06207c-12.8396,-1.19475 -25.68663,-2.31308 -38.51746,-3.59863c-12.83064,-1.28553 -25.64374,-2.74055 -38.46523,-4.11443c-0.32962,-0.03532 -0.65887,-0.07415 -0.98807,-0.11317c-2.14316,-0.25406 -4.28605,-0.51036 -6.42901,-0.76608c-1.04467,-0.12466 -2.08933,-0.24943 -3.13398,-0.37434c-1.26957,-0.1518 -3.88875,-0.44577 -4.65744,-0.75738c-0.26873,-0.10893 -0.12899,-0.56571 -0.20893,-0.84443c-0.25347,-0.8837 -0.46632,-1.78206 -0.79111,-2.64212c-0.83884,-2.22125 -1.32612,-3.3259 -3.54858,-4.57474c-3.44344,-1.93493 -6.25864,-2.35808 -10.03308,-3.28197c-2.09557,-0.51294 -4.24192,-0.84991 -6.28754,-1.53543c-2.04292,-0.68461 -4.04018,-1.53483 -5.93497,-2.5605c-1.2228,-0.66192 -2.31096,-1.55926 -3.36054,-2.47127c-3.28527,-2.85468 -4.69011,-5.21889 -6.68452,-9.45906c-1.9297,-4.10259 -2.87596,-6.99135 -3.20797,-11.25512c-0.11066,-1.4211 -0.03242,-2.85064 -0.04026,-4.27603c-0.00267,-0.48606 0.00361,-0.97213 0.00871,-1.45817c0.01231,-1.17382 0.02902,-2.34758 0.04353,-3.52137M536.10624,222.69313v153.2167c-2.58988,0 -5.05789,-0.01306 -7.62166,-0.19152l-1.8238,-0.11752l-0.9489,-0.06529c-15.04745,-0.96631 -30.70428,-1.55393 -45.34257,2.60294c-0.6355,0.19152 -0.6355,0.19152 -1.28406,0.38304l-0.43527,-0.43527c-1.03595,-19.77018 1.92391,-39.97998 3.91747,-59.63263c0.05223,-0.49621 0.10011,-0.99678 0.15235,-1.50605c2.16767,-21.42857 5.53234,-42.72221 9.15383,-63.95056c0.06529,-0.39175 0.13058,-0.78349 0.19587,-1.18395c1.1056,-6.55524 2.27213,-13.40646 5.47576,-19.30443c1.07948,-1.73239 2.20249,-3.23844 3.73901,-4.59215c2.616,-1.84992 5.64551,-3.02081 8.70549,-3.91747c8.5575,-1.9065 17.4284,-1.30582 26.11648,-1.30582M281.91757,274.32411c0.28637,0.02757 0.57273,0.05529 0.85912,0.0827c0.28962,0.02772 0.59639,-0.01918 0.86892,0.0827c0.50159,0.18751 0.96473,0.47231 1.41029,0.76935c1.50155,1.00103 2.75589,2.58821 3.44738,4.2189c1.12715,2.65812 1.38079,6.91438 1.81074,9.70227c0.38714,2.51034 0.7273,5.03213 1.27046,7.51339c0.54337,2.48223 1.30642,4.91133 1.9854,7.35995c0.97093,3.50151 1.97874,6.99268 2.96422,10.49012c0.36242,1.28623 0.72007,2.57381 1.07948,3.86089c0.2224,0.79644 0.44323,1.59331 0.66597,2.38966c0.29259,1.04606 0.43319,1.52028 0.73296,2.62464c0.0738,0.27189 0.15959,0.54127 0.21322,0.81784c0.0476,0.24551 0.32286,0.65423 0.08978,0.74486c-0.9366,0.36421 -1.99355,0.25542 -2.99034,0.38304c-0.31774,0.04068 -0.63507,0.08481 -0.95325,0.12188c-1.62461,0.18928 -3.25372,0.34175 -4.87508,0.55715c-3.62981,0.48223 -7.2758,0.87399 -10.87724,1.53557c-7.17274,1.31762 -14.19634,3.21446 -21.03791,5.74481c-3.43545,1.2706 -6.80135,2.73013 -10.12803,4.26311c-3.18133,1.466 -7.277,3.98119 -10.13592,5.99809c-4.04409,2.85301 -5.40537,4.20309 -9.08146,7.51284c-2.32971,2.09754 -4.84937,4.83885 -6.56177,7.06451c-1.63854,2.12967 -2.94261,4.49696 -4.39845,6.75546c-0.09737,0.15105 -0.98711,1.724 -1.22747,1.84992c-1.09811,0.57525 -2.33403,0.83841 -3.4822,1.30582c-1.60226,0.65228 -3.2123,1.29323 -4.7668,2.05232c-1.43565,0.70105 -3.95084,2.12033 -5.67979,3.17098c-0.37844,0.22997 -1.22065,0.84941 -1.7411,0.87055c-0.48111,0.01954 -1.37495,-0.46644 -1.76722,-0.65291c-0.29482,-0.14015 -0.61271,-0.24009 -0.88361,-0.42222c-0.30296,-0.20368 -0.5802,-0.45031 -0.82158,-0.72419c-0.29025,-0.32932 -0.57707,-0.67576 -0.76282,-1.0735c-0.46186,-0.98897 -0.65167,-2.24809 -0.69644,-3.3255c-0.02789,-0.6713 0.02516,-1.34352 0.03482,-2.01532c0.00484,-0.33659 -0.0136,-0.67395 0.00871,-1.00984c0.12138,-1.82809 0.32591,-3.65052 0.42222,-5.48011c0.15505,-2.94555 0.41008,-5.89408 0.33169,-8.84267c-0.15613,-5.8732 -1.20936,-11.66911 -2.31553,-17.41602c-0.55748,-2.89628 -1.21422,-5.77257 -1.82047,-8.65904c-0.16453,-0.78337 -0.32492,-1.56762 -0.49186,-2.35048c-0.4497,-2.10882 -0.90531,-4.21637 -1.35806,-6.32454c-0.74807,-3.48333 -1.15531,-5.38697 -2.42067,-9.98738c-0.41091,-1.49391 -0.9156,-2.96344 -1.48218,-4.40552c-0.91924,-2.33967 -3.16979,-6.62146 -3.9408,-8.94598c-1.0254,-3.09148 -1.54436,-5.6947 -1.1883,-8.90191c0.04983,-0.44887 0.33893,-0.84129 0.5713,-1.22856c0.20565,-0.34274 0.44349,-0.67383 0.73453,-0.94781c0.21855,-0.20574 0.50088,-0.33369 0.76935,-0.46792c1.72641,-0.8632 2.5235,-0.6046 5.02083,-0.58953c4.67109,0.0282 6.91713,0.78703 12.13009,1.3099c2.87227,0.2881 5.75244,0.59377 8.63911,0.60177c3.38788,0.00938 6.79871,-0.32342 10.16911,-0.73235c5.76955,-0.70002 14.63873,-1.83762 19.8556,-2.22153c4.1715,-0.30698 8.35674,-0.39209 12.53754,-0.5207c1.23488,-0.03799 2.47087,0.01981 3.70634,0.021c2.4401,0.00236 4.99831,0.00141 7.41221,-0.26366c2.41057,-0.26471 4.88139,-0.81472 7.25612,-1.34709c1.19627,-0.26818 2.41107,-0.46807 3.58494,-0.82167c2.38722,-0.7191 2.68322,-1.30233 4.98553,-1.81346c0.76009,-0.16875 1.54559,-0.18971 2.31838,-0.28456M142.59256,326.01428c2.92695,1.06574 3.01803,1.25632 5.24778,2.88587c0.37463,0.27379 0.76566,0.529 1.10995,0.84008c0.95677,0.86449 1.93234,1.7171 2.78793,2.68184c2.38115,2.68487 3.6365,5.13488 4.95615,8.61191c0.72376,1.90698 1.35246,3.8682 1.70138,5.87784c0.45841,2.64028 0.57303,5.33166 0.7095,8.00797c0.1365,2.67697 0.07808,5.36034 0.10882,8.04061c0.00699,0.60935 0.00435,1.21877 0.00435,1.82815c0,1.2623 -0.00435,2.52459 -0.00435,3.78689c0,2.85251 0.00435,5.70499 0.00435,8.5575c0,0.8691 0.01715,1.73837 0,2.6073c-0.0554,2.80646 -0.13336,5.61247 -0.21764,8.41821c-0.01584,0.52717 -0.02671,1.05562 -0.0827,1.58005c-0.098,0.91793 -0.26582,1.78251 -0.69209,2.61165c-0.33074,0.64332 -0.78239,1.21847 -1.12736,1.85427c-0.44978,0.82898 -0.90441,1.66034 -1.25468,2.53602c-1.00016,2.5004 -1.28276,4.81755 -1.4968,7.55855c-0.10316,1.32104 -0.11115,4.81506 -0.11263,6.71574c-0.00098,1.25939 0.00256,2.51879 0,3.77818c-0.00325,1.59747 -0.01333,3.19491 -0.01741,4.79237c-0.00318,1.24488 -0.00094,2.48978 -0.00435,3.73466c-0.00813,2.96073 -0.09826,4.89212 0.33788,8.12005c0.24655,1.82475 0.50505,3.67433 1.12464,5.40829c0.35206,0.98526 1.10575,1.78037 1.7411,2.61165c0.52452,0.68628 0.93744,0.4515 1.30582,1.30582c0.18065,0.41896 0.13929,1.72833 0.13929,2.12414c0,0.44253 0.00049,0.88508 -0.00435,1.32759c-0.00531,0.48465 -0.01975,0.96918 -0.02612,1.45382c-0.00669,0.50925 -0.00731,1.01856 -0.01306,1.52781c-0.01892,1.67582 -0.04207,3.3516 -0.06094,5.02742c-0.01305,1.15927 -0.02146,2.31858 -0.03482,3.47784c-0.03161,2.74225 -0.06823,5.48444 -0.10011,8.22669c-0.03631,3.12235 -0.06792,6.24476 -0.10447,9.36711c-0.07517,6.42177 3.3829,13.95614 -0.2307,19.26526c-2.29745,3.37544 -8.14114,-0.6406 -12.20946,-0.98807c-0.4169,-0.03561 -0.83004,-0.10647 -1.24489,-0.16105c-0.85326,-0.11227 -1.70597,-0.22865 -2.55942,-0.33951c-1.29102,-0.16771 -2.58285,-0.32912 -3.87394,-0.49621c-1.28346,-0.1661 -4.17303,-0.54236 -5.59076,-0.7465c-0.56375,-0.08117 -2.51897,-0.36869 -3.19254,-0.54083c-1.20793,-0.3087 -2.91893,-0.83198 -3.9746,-1.51584c-0.2941,-0.19051 -0.46552,-0.52493 -0.67576,-0.80526c-0.22563,-0.30085 -0.53726,-0.57141 -0.63006,-0.93584c-1.23448,-4.84767 -0.96578,-5.72197 -1.04466,-10.69035c-0.03733,-2.35129 -0.05398,-4.73954 -0.07835,-7.07757c-0.01538,-1.47559 -0.03878,-2.9511 -0.04788,-4.42674c-0.0707,-11.4709 -0.1327,-22.94185 -0.19152,-34.41282c-0.01082,-2.11106 -0.01198,-4.22216 -0.01741,-6.33325c-0.01769,-6.8774 -0.02443,-13.75448 -0.03482,-20.63202c-0.00893,-5.90958 -0.02169,-11.81916 -0.03047,-17.72874c-0.00279,-1.87749 -0.00658,-3.75497 -0.00871,-5.63245c-0.00078,-0.68483 0.02464,-1.37011 0,-2.0545c-0.07114,-1.97574 0.12892,-3.99138 -0.28728,-5.92409c-0.53144,-2.46782 -2.59518,-3.73508 -4.32663,-5.2233c-1.71439,-1.47355 -3.03846,-2.35687 -4.2744,-4.30487c-0.6378,-1.00525 -1.12845,-2.10329 -1.55992,-3.21287c-1.23796,-3.18362 -1.5935,-6.23638 -1.60072,-9.71914c-0.00606,-2.92033 0.52461,-7.33722 1.4783,-10.31275c0.41769,-1.30319 0.8548,-2.62829 1.57787,-3.79015c0.75602,-1.21481 1.78941,-2.2412 2.80371,-3.25041c2.30722,-2.29564 3.96938,-3.46021 6.93175,-4.7853c3.26912,-1.46231 6.05331,-2.06744 9.74036,-2.09367c1.94991,-0.01387 8.117,1.18048 9.22782,1.58494z" fill="#fefefe"/><path d="M421.629,420.30784c3.1011,0.72242 4.78756,1.12484 9.03249,1.79714c2.42699,0.38438 7.05908,0.94 10.27194,1.17579c8.51637,0.62499 17.03332,1.24217 25.55063,1.85427c1.43599,0.1032 2.87253,0.19873 4.30922,0.29163c11.82748,0.76479 23.65173,1.58272 35.48359,2.27649c9.94306,0.58301 24.73099,-6.81088 29.82938,1.74545c8.2439,13.83526 1.04992,32.24459 0,48.31549c-0.06845,1.04777 -2.09712,-0.1103 -3.14565,-0.16588c-2.63282,-0.13956 -5.26697,-0.26839 -7.89611,-0.46826c-0.81909,-0.06227 -1.63738,-0.13471 -2.45611,-0.20159c-3.037,-0.24808 -6.07369,-0.50015 -9.1103,-0.75303c-3.14276,-0.26172 -6.28529,-0.52613 -9.42805,-0.78785c-1.17807,-0.09811 -2.3568,-0.18845 -3.53443,-0.29163c-14.15566,-1.24036 -28.31089,-2.4856 -42.4654,-3.73901c-0.95245,-0.08434 -1.9036,-0.18283 -2.8554,-0.27422c-1.61412,-0.155 -3.2283,-0.30944 -4.84237,-0.46496c-2.48307,-0.23926 -5.44584,-0.5252 -7.94946,-0.7755c-2.61291,-0.26122 -5.82206,-0.58955 -8.32993,-0.89357c-1.24749,-0.15123 -2.49418,-0.3122 -3.73569,-0.50646c-1.3457,-0.21056 -3.54124,-0.61295 -4.89453,-1.07805c-1.42231,-0.48883 -3.75793,-1.10651 -5.13257,-2.27628c-0.35975,-0.30614 -0.69229,-0.64784 -0.98644,-1.01745c-0.45329,-0.5696 -1.14401,-1.77937 -1.27971,-2.49412c-0.33042,-1.74033 -0.56467,-3.50125 -0.70841,-5.26682c-0.14393,-1.76791 -0.11106,-3.54581 -0.15343,-5.31906c-0.01023,-0.4279 -0.00341,-0.85604 -0.00435,-1.28406c-0.00196,-0.88796 -0.00204,-1.77592 -0.00435,-2.66388c-0.01331,-5.11258 -0.08996,-7.29779 0.36291,-13.29002c0.16163,-2.13858 1.04529,-7.09446 1.80911,-9.0918c0.58413,-1.52747 1.50895,-2.90183 2.26343,-4.35275M507.37811,377.13425h1.16654c5.71715,0.00142 11.43313,0.16399 17.14112,0.48751c0.33081,0.02176 0.65726,0.03917 0.99678,0.06094c3.16009,0.18282 6.28101,0.44398 9.4237,0.84008v48.75077c-20.9106,-1.04031 -41.79943,-2.2199 -62.68391,-3.70854c-5.28859,-0.37869 -10.57282,-0.74432 -15.86576,-1.08383c-27.03491,-1.73675 -27.03491,-1.73675 -33.7512,-3.91312c0.24375,-0.92714 0.24375,-0.92714 0.87055,-2.17637c1.99791,-2.10673 4.5138,-3.67372 6.91216,-5.27988c0.73561,-0.49621 1.47123,-0.99678 2.20684,-1.49734l1.11866,-0.75738c1.62357,-1.1056 3.22974,-2.23731 4.83155,-3.37773c0.30469,-0.21328 0.60938,-0.42657 0.92278,-0.64856c1.48864,-1.05772 2.97728,-2.11544 4.46592,-3.17751c25.55933,-18.22495 25.55933,-18.22495 36.88518,-21.7855c8.31375,-2.26343 16.7929,-2.74223 25.3591,-2.73353M161.33472,226.17532c37.34534,-4.18153 75.19128,-1.59457 112.73615,0c2.33211,0.09905 0.19328,4.45266 -0.45894,5.72556c-0.10764,0.21007 -0.20998,0.42414 -0.33979,0.62129c-0.3156,0.47934 -0.66558,0.93516 -0.9946,1.40539c-0.36525,0.52202 -0.72634,1.04695 -1.08819,1.57134c-0.1808,0.26201 -0.38546,0.5094 -0.53974,0.78785c-1.81266,3.2714 -2.70883,4.84418 -3.76404,8.46773c-2.87559,9.87467 -4.04529,18.29727 -6.13846,28.86143c-0.17396,0.87795 -0.10913,1.87093 -0.60503,2.616c-0.21647,0.32523 -0.78128,0.02326 -1.17089,0.05223c-8.56562,0.63701 -17.13114,1.27601 -25.69427,1.94568c-0.67666,0.05292 -1.34931,0.14833 -2.02403,0.22199c-2.94482,0.32149 -9.58822,1.01653 -9.85027,0.82702c-2.56922,-1.85801 -1.82534,-6.07297 -2.72047,-9.11465c-0.14378,-0.48856 -0.26486,-0.98351 -0.3961,-1.47558c-0.55214,-2.07024 -1.10234,-4.14101 -1.65404,-6.21137c-0.40445,-1.51775 -0.81053,-3.03507 -1.21442,-4.55297c-0.12425,-0.46695 -0.23987,-0.93623 -0.36998,-1.40158c-0.56199,-2.00997 -1.13242,-4.01759 -1.70628,-6.0242c-0.07641,-0.26718 -0.3913,-1.4419 -0.64421,-1.68887c-0.37428,-0.36549 -0.81964,-0.67742 -1.30582,-0.87055c-0.2893,-0.11492 -0.62287,-0.03654 -0.93366,-0.01904c-0.33517,0.01887 -0.66582,0.08643 -0.99896,0.12786c-0.3829,0.04762 -0.76793,0.07959 -1.14913,0.13929c-2.16688,0.33935 -4.30298,1.15078 -6.4943,1.05772c-0.44556,-0.01892 -0.04152,-0.89096 -0.06529,-1.33629c-0.03137,-0.58773 -0.06913,-1.17511 -0.10011,-1.76286c-0.01544,-0.29297 -0.00819,-0.58752 -0.03917,-0.87925c-0.22382,-2.10746 -0.29736,-3.17938 -1.10125,-5.16236c-0.07709,-0.19016 -0.23137,-0.4123 -0.43527,-0.43527c-1.93992,-0.21858 -3.27434,-0.01013 -5.02742,-0.04788c-1.29725,-0.02794 -2.55187,-0.13613 -3.84511,-0.05387c-0.51251,0.0326 -1.02265,0.09921 -1.53101,0.172c-0.74218,0.10627 -1.52611,0.07964 -2.21942,0.36502c-0.28911,0.119 -0.39666,0.48971 -0.53648,0.76935c-0.15318,0.30636 -0.26217,0.63686 -0.33407,0.97175c-0.18526,0.86289 0.27014,2.08127 -0.43527,2.61165c-0.81877,0.6156 -2.0487,0.01684 -3.07304,0.02612c-2.1829,0.01977 -4.33374,0.11299 -6.503,-0.46139c-0.2715,-0.07189 -0.10573,-0.55167 -0.16105,-0.82702c-0.07236,-0.36016 -0.1491,-0.71943 -0.22199,-1.07948c-0.07221,-0.3567 -0.12754,-0.71708 -0.21328,-1.07078c-0.18263,-0.75336 -0.30297,-1.43946 -1.14477,-1.81074c-0.36802,-0.16232 -2.73907,-0.17114 -3.03822,-0.17846c-1.90071,-0.04653 -3.80138,-0.09668 -5.7021,-0.14364c-1.58437,-0.03915 -4.19906,1.37164 -4.7532,-0.11317c-1.4712,-3.94207 -4.18153,-12.15476 0,-12.62297zM187.01593,306.70114c1.72949,7.9278 3.48314,15.85038 5.18847,23.78341c0.25781,1.19931 0.4664,2.40867 0.70079,3.61278c0.48526,2.49283 0.97294,4.98519 1.45817,7.47802c0.08498,0.43657 0.20715,0.86773 0.25246,1.31018c0.26702,2.6074 0.64468,5.21257 0.68393,7.83331c0.03457,2.30881 -0.90042,12.76566 -0.82702,15.24713c0.0727,2.45799 0.88325,4.87413 0.81342,7.3322c-0.01031,0.36278 -0.68944,0.22722 -1.0316,0.34822c-3.27265,1.15727 -6.5651,2.2608 -9.81272,3.48655c-3.24646,1.22531 -6.44752,2.56777 -9.66582,3.86524c-0.53186,0.21442 -1.06579,0.4256 -1.5844,0.67032c-1.52975,0.72186 -3.07015,1.42571 -4.55896,2.22861c-1.48649,0.80164 -2.89608,1.73871 -4.35982,2.58118c-0.96918,0.55782 -1.82437,1.51887 -2.9381,1.61922c-0.44942,0.04049 -0.00535,-0.90247 -0.00871,-1.3537c-0.03147,-4.23813 -0.06413,-8.47625 -0.09576,-12.71437c-0.01625,-2.17782 -0.03166,-4.35565 -0.04788,-6.53347c-0.0157,-2.10818 -0.03209,-4.21636 -0.04788,-6.32454c-0.04231,-5.65037 -0.08877,-11.34974 -1.37016,-16.8807c-0.36828,-1.58962 -0.78044,-3.17784 -1.36771,-4.70022c-0.63715,-1.65166 -1.39995,-3.26187 -2.29335,-4.7902c-0.89295,-1.52754 -1.88927,-3.00856 -3.04747,-4.34622c-0.94924,-1.09632 -2.08065,-2.03104 -3.23464,-2.90927c-2.48175,-1.8887 -4.77984,-3.05401 -7.74354,-4.01976c-1.39443,-0.45439 -2.83375,-0.7677 -4.27385,-1.0452c-0.56246,-0.10838 -1.14354,-0.06922 -1.71498,-0.10882c-0.34992,-0.02425 -0.69846,-0.09475 -1.04901,-0.0827c-1.45716,0.05008 -2.9231,0.05801 -4.36581,0.26878c-4.54769,0.6644 -5.5699,1.56608 -10.08531,3.6574c-0.35034,0.16226 -0.663,0.42737 -1.04031,0.50927c-0.42537,0.09233 -1.53962,0.36716 -1.30582,0c0.81275,-1.27638 2.11126,-2.17986 3.29449,-3.1231c3.43997,-2.74225 7.20901,-4.30299 11.38407,-5.81853c2.59918,-0.9435 5.30184,-1.573 7.95573,-2.3494c0.34051,-0.09962 0.68222,-0.19594 1.02725,-0.27858c6.24864,-1.49655 12.46375,-3.14463 18.75327,-4.45885c6.29031,-1.31438 12.64588,-2.29444 18.97199,-3.42398c0.79744,-0.14238 1.59072,-0.3294 2.39836,-0.39175c1.65888,-0.12806 3.3255,-0.11898 4.98825,-0.17846M160.89945,137.81456c37.38658,-5.03281 75.66448,-4.03921 113.17142,0c4.03921,0.43499 0.59993,8.16967 0,12.18769c-0.08859,0.59336 -1.18827,-0.16675 -1.78109,-0.25885c-0.34817,-0.05409 -0.70009,-0.09321 -1.04167,-0.17969c-0.49994,-0.12656 -0.97754,-0.33266 -1.47776,-0.45813c-0.72091,-0.18082 -1.44443,-0.36659 -2.18181,-0.45976c-0.73735,-0.09317 -1.4844,-0.10955 -2.22752,-0.09739c-0.29288,0.00479 -0.61257,0.00145 -0.8662,0.14799c-0.3607,0.20841 -0.64672,0.53728 -0.89667,0.87055c-0.19238,0.25651 -0.09257,0.92133 -0.40916,0.87055c-2.90422,-0.46587 -5.67189,-1.56144 -8.51833,-2.3026c-0.49983,-0.13015 -1.00184,-0.2926 -1.51802,-0.31068c-0.53387,-0.01869 -1.06114,0.12542 -1.58984,0.20186c-0.47876,0.06922 -1.23896,-0.20848 -1.43205,0.23505c-2.6309,6.04324 -4.54393,12.37444 -6.75982,18.58188c-1.04155,2.91773 -2.00834,5.86161 -3.0121,8.79255c-0.10183,0.29735 -0.20067,0.59573 -0.30469,0.89231c-2.42057,6.90142 -4.84536,13.80136 -7.26909,20.70166c-0.27554,0.78447 -1.076,3.04455 -1.24924,3.50831c-0.23474,0.6284 -0.50076,1.24482 -0.73561,1.87318c-0.39322,1.05209 -0.53592,1.52107 -0.7922,2.61355c-0.15164,0.64642 -0.33231,1.28878 -0.42222,1.94663c-0.04011,0.29349 0.02436,0.59193 0.03482,0.88796c0.01856,0.52519 -0.37602,1.27111 0.05223,1.57569c1.53708,1.0932 3.53624,1.33284 5.2233,2.17637c0.12977,0.06489 0.14501,0.43027 0,0.43527c-4.20516,0.14501 -8.68322,1.47741 -12.62297,0c-1.47945,-0.5548 -0.00925,-3.1601 -0.01741,-4.74014c-0.02666,-5.15802 -0.05906,-10.316 -0.08705,-15.47402c-0.03962,-7.29954 -0.07156,-14.59914 -0.11317,-21.89867c-0.00918,-1.61052 -0.02378,-3.22101 -0.03047,-4.83155c-0.00202,-0.48605 0.00663,-0.97212 0.00435,-1.45817c-0.00207,-0.44111 -0.01277,-0.88214 -0.01741,-1.32324c-0.00208,-0.19785 0.05284,-1.79662 -0.17411,-2.07191c-0.79659,-0.96627 -1.53492,-0.94342 -2.6345,-1.01365c-0.48774,-0.03115 -0.97724,-0.02165 -1.46579,-0.03537c-0.55141,-0.01548 -1.10262,-0.03733 -1.65404,-0.05223c-0.57595,-0.01557 -1.15208,-0.024 -1.72804,-0.03917c-0.58043,-0.01529 -1.16069,-0.03626 -1.7411,-0.05223c-1.42331,-0.03916 -2.8788,0.18976 -4.27004,-0.11317c-0.26981,-0.05875 -0.02839,-0.55158 -0.04788,-0.82702c-0.02549,-0.36009 -0.05937,-0.71955 -0.08705,-1.07948c-0.02031,-0.26402 -0.06948,-1.73736 -0.30034,-2.01097c-0.33735,-0.39983 -0.79592,-0.75363 -1.30582,-0.87055c-1.06365,-0.2439 -2.17893,-0.12576 -3.26891,-0.17846c-0.3204,-0.01549 -0.64127,-0.01878 -0.96196,-0.02612c-1.01126,-0.02313 -2.02261,-0.04195 -3.03386,-0.06529c-0.68632,-0.01584 -1.37253,-0.03624 -2.05885,-0.05223c-1.68013,-0.03914 -3.39972,0.25051 -5.04048,-0.11317c-0.33215,-0.07362 -0.04132,-0.67918 -0.06529,-1.01854c-0.03117,-0.44124 -0.06808,-0.88206 -0.10011,-1.32324c-0.03181,-0.43808 -0.04324,-0.87794 -0.09141,-1.31453c-0.09672,-0.8767 -0.06495,-1.5713 -1.04901,-2.00226c-0.3712,-0.16256 -2.60772,-0.10142 -2.91199,-0.10011c-2.28638,0.00981 -4.57289,0.0071 -6.85925,0.0236c-0.77927,0.00562 -1.12014,0.01166 -1.89916,0.0336c-0.46265,0.01303 -0.93505,-0.05296 -1.38785,0.04292c-0.3174,0.06721 -0.7363,0.13992 -0.87055,0.43527c-2.08223,4.5809 -1.87889,18.99744 -16.10516,4.35275c-3.53842,-3.64249 -5.03281,-14.55712 0,-15.23461zM148.71176,83.40522h9.57604c0.48315,22.99556 0.49621,45.98677 0.4788,68.99104c0,5.43658 -0.00435,10.87751 -0.00435,16.31845c0,9.69357 -0.00435,19.38714 -0.00435,29.0807l-0.01306,28.18404v9.66745c-0.00435,24.41021 -0.01306,48.82041 -0.02176,73.23062l-9.57604,2.17637c-0.05659,-24.78889 -0.11317,-49.57779 -0.1654,-74.36668c-0.00871,-2.94681 -0.01306,-5.88927 -0.02176,-8.83172v-0.88796l-0.06529,-28.27109l-0.06529,-29.98607c-0.01306,-5.43223 -0.02612,-10.86446 -0.03482,-16.30104c-0.05659,-22.99992 -0.10011,-46.00418 -0.0827,-69.0041z" fill="#fefefe"/><path d="M319.77472,396.36991c0.29306,0.19488 0.46888,0.52779 0.73561,0.75738c1.19875,1.03182 2.44103,2.03482 3.94794,2.59859c4.35037,1.62757 8.38326,2.70543 12.98044,3.39133c4.43809,0.66217 8.90522,1.11329 13.36239,1.63174c6.79164,0.78999 9.68822,0.84503 16.57907,2.13611c3.07563,0.57626 5.5327,1.56536 8.41005,2.76073c0.96163,0.3995 1.88866,0.87835 2.84534,1.28957c1.606,0.69033 2.32701,0.93852 4.01759,1.38105c1.00386,0.26277 1.99786,0.5923 3.02652,0.72888c1.02012,0.13544 2.05719,0.06446 3.0861,0.0827c0.36268,0.00643 0.72767,0.03138 1.08819,-0.00871c1.49466,-0.1662 3.07082,-0.05878 4.47027,-0.60938c0.75966,-0.29888 3.91809,-1.88316 4.78204,-3.5279c0.60761,-1.15673 0.55062,-2.73638 0.55062,-3.90659c0,-1.01845 0.10533,-2.08418 -0.22689,-3.04692c-0.48728,-1.4121 -1.46106,-2.60606 -2.17637,-3.91747c-0.15536,-0.28482 -0.75888,-0.89371 -0.43527,-0.87055c4.3294,0.30989 8.6022,1.16672 12.90154,1.76286c2.83416,0.39298 7.56618,1.31314 9.32848,1.82652c2.46864,0.71914 4.81646,1.8028 7.20761,2.74822c1.31573,0.52021 2.57632,1.17999 3.91149,1.64806c1.33523,0.46809 3.98318,-0.25616 4.08451,1.15511c0.01584,0.22063 -5.1768,3.92081 -6.06984,4.588c-1.26572,0.94562 -1.79867,1.3845 -2.96898,2.44556c-0.6948,0.62995 -1.36009,1.29219 -2.06069,1.91568c-0.75415,0.67116 -1.38511,1.54624 -2.3026,1.96744c-1.49861,0.68798 -3.15636,0.98224 -4.77768,1.28297c-1.6272,0.30182 -3.28595,0.41527 -4.93765,0.51907c-1.45112,0.09119 -2.90759,0.0471 -4.36145,0.06529c-0.28581,0.00358 -0.57185,0.01038 -0.85749,0c-5.07642,-0.18442 -10.15633,-0.29925 -15.22809,-0.58436c-5.0732,-0.28519 -10.1345,-0.75276 -15.20197,-1.12627c-2.5259,-0.18618 -5.05278,-0.35931 -7.57813,-0.5528c-15.10474,-1.15731 -30.20835,-2.32941 -45.3121,-3.49961c-3.30278,-0.25589 -6.60429,-0.52788 -9.90642,-0.79206c-5.4887,-0.4391 -10.97746,-0.87394 -16.45935,-1.39269c-2.14843,-0.20331 -4.29723,-0.40218 -6.44524,-0.60972c-0.20174,-0.01949 -1.92375,-0.13821 -2.2199,-0.30905c-0.35548,-0.20505 -0.86485,-0.46021 -0.87055,-0.87055c-0.00609,-0.43875 0.57005,-0.66742 0.84443,-1.00984c0.30211,-0.37701 0.65556,-0.72271 0.8847,-1.14804c0.70721,-1.31274 0.72482,-3.62684 0.44724,-4.80652c-0.32729,-1.391 -1.14978,-2.61657 -1.7411,-3.91747c-0.13425,-0.29535 -0.69869,-0.68116 -0.43527,-0.87055c0.4406,-0.31678 1.08528,0.01 1.62793,0.01306c2.03418,0.01145 4.06838,0.01828 6.10255,0.03047c3.04191,0.01822 6.34767,0.0832 9.29964,-0.01687c2.22653,-0.07548 4.44778,-0.26483 6.67058,-0.41406c1.78049,-0.11953 4.31057,-0.69839 5.6194,-0.95325c0.21209,-0.0413 1.20438,-0.32276 1.53598,-0.34387c0.41431,-0.02637 1.93291,0.18459 2.2248,0.37869z" fill="#fdfdfd"/><path d="M158.2878,396.36773c9.54334,1.65238 19.20178,2.60504 28.72813,4.35275c0.2955,0.05421 -0.0206,0.60059 -0.02176,0.90102c-0.00786,2.03168 -0.06148,4.06416 -0.0053,6.09507c0.05486,1.98327 0.13963,3.9684 0.33829,5.94245c0.36077,3.585 1.15329,8.36446 2.38313,11.7633c1.77255,4.89868 3.53486,8.85136 6.24776,13.08558c0.87893,1.37181 1.79654,2.72355 2.81031,3.99895c1.08714,1.3677 2.5833,2.41932 3.4822,3.91747c0.16692,0.2782 -0.54612,0.43648 -0.87055,0.43527c-1.28568,-0.00476 -2.55425,-0.29649 -3.83042,-0.45269c-0.39533,-0.04839 -0.78936,-0.10689 -1.18395,-0.16105c-1.27542,-0.17508 -2.55077,-0.35067 -3.82606,-0.52668c-1.84532,-0.25469 -3.69026,-0.51205 -5.5353,-0.76879c-2.16428,-0.30117 -4.74669,-0.66089 -6.92861,-0.97204c-2.27703,-0.32471 -5.07364,-0.72976 -7.25754,-1.08551c-1.79581,-0.29254 -3.84781,-0.64704 -5.63538,-1.10808c-1.86467,-0.48092 -3.66997,-1.19697 -5.39968,-2.03754c-0.92899,-0.45145 -3.05125,-1.82892 -3.68242,-2.69c-1.55455,-2.12079 -1.72656,-5.60288 -1.93262,-7.87575c-0.18743,-2.06748 -0.18754,-4.88429 -0.19152,-7.18475c-0.00493,-2.8467 -0.01591,-5.69339 -0.02176,-8.54009c-0.00228,-1.10705 0.00298,-2.2141 0,-3.32115c-0.00706,-2.62051 -0.12253,-3.37617 0.36237,-6.8262c0.2466,-1.7546 0.66581,-3.48266 1.10016,-5.20044c0.08363,-0.33073 0.67545,-1.38254 0.87055,-1.7411M276.68252,83.40522h9.14077v139.28791l-6.9644,3.91747l-2.17637,1.30582z" fill="#fefefe"/><path d="M195.4533,214.37894c2.7727,0.00435 5.5454,0.00435 8.3181,0.00435c4.63568,0 9.2757,0.00435 13.91138,0.00871c4.77061,0.00435 9.53687,0.00435 14.30748,0.00871h5.34953c12.24428,0.00435 24.48855,0.01306 36.73283,0.02176v9.14077h-112.73615v-8.70549c11.36938,-0.54845 22.73875,-0.49186 34.11683,-0.4788z" fill="#fdfdfd"/><path d="M257.12258,126.03516h1.36241c5.19718,0.00435 10.39001,0.01306 15.58719,0.02612v9.14077h-112.73615v-8.70549c10.79046,-0.074 21.58092,-0.14799 32.37138,-0.21764c0.40045,0 0.79655,-0.00435 1.21006,-0.00871c20.73213,-0.13058 41.46862,-0.25246 62.20511,-0.23505z" fill="#fefefe"/><path d="M410.33471,369.97322c2.90755,0.13137 5.80642,0.41256 8.70876,0.6306c0.97709,0.07341 1.95301,0.16161 2.9294,0.24375c2.36942,0.19934 4.73869,0.40044 7.10804,0.60068c4.07084,0.34404 8.14225,0.68173 12.21229,1.0351c1.36085,0.11815 5.29649,0.46347 6.77153,0.61486c1.70013,0.17449 3.40148,0.34028 5.09742,0.55161c2.30153,0.28679 4.6016,0.62598 6.8501,1.20972c1.90266,0.49396 3.37745,1.07664 5.1864,1.8455c1.01373,0.43087 2.04967,0.82094 3.0178,1.34633c1.48917,0.80815 3.02337,1.57968 4.33969,2.64647c0.22544,0.18271 0.18336,0.64564 0,0.87055c-0.28578,0.35054 -0.81796,0.38834 -1.21006,0.61374c-2.7064,1.55577 -5.43363,3.07865 -8.0836,4.72872c-2.6508,1.65058 -5.21172,3.44132 -7.81264,5.16943c-0.604,0.40131 -1.20124,0.81269 -1.80204,1.21877c-0.29006,0.19605 -0.57423,0.40116 -0.87055,0.58762c-2.25166,1.41691 -4.35065,3.12197 -6.77287,4.22216c-0.31925,0.14501 -0.1957,-0.67367 -0.30905,-1.00548c-0.28174,-0.82479 -0.52958,-1.66386 -0.87599,-2.46365c-0.34579,-0.79837 -0.68548,-1.61545 -1.19592,-2.32001c-0.8414,-1.16139 -2.97879,-3.02896 -4.22652,-3.7303c-3.24856,-1.82601 -5.37252,-2.3857 -8.88831,-3.54314c-1.7372,-0.5719 -3.47947,-1.12828 -5.21894,-1.69322c-0.35129,-0.11409 -0.70437,-0.22292 -1.05336,-0.34387c-3.20146,-1.10946 -6.39988,-2.22767 -9.59781,-3.34726c-0.46565,-0.16302 -0.93507,-0.31667 -1.39288,-0.50057c-2.21598,-0.89013 -6.67282,-2.61405 -8.59232,-4.12205c-1.05189,-0.82639 -1.93763,-1.89146 -2.61165,-3.04692c-0.37278,-0.63904 5.38612,-2.15047 8.29307,-2.01913z" fill="#fdfdfd"/><path d="M160.89945,155.66082h14.79934v56.58571h-14.36407l-0.16976,-16.73631l-0.07835,-7.77401c-0.11317,-10.69035 -0.21764,-21.38069 -0.18717,-32.07539z" fill="#fefefe"/><path d="M192.23923,156.0961c7.91329,0 7.91329,0 10.63811,0.19152c0.53539,0.03482 1.07513,0.06964 1.62793,0.10447c0.60938,0.06964 0.60938,0.06964 1.22747,0.13929l0.43527,0.43527c0.04353,0.71385 0.05223,1.43205 0.05223,2.15026v1.41029c0,0.77479 0,0.77479 -0.00435,1.56264v1.63663c0,1.47993 0,2.96422 -0.00435,4.44851c0,1.54523 -0.00435,3.0948 -0.00435,4.64438c0,2.93375 -0.00435,5.8675 -0.00871,8.80125c-0.00435,3.33856 -0.00435,6.67711 -0.00871,10.01567c-0.00435,6.86863 -0.01306,13.74162 -0.02176,20.61026h-13.92879z" fill="#fcfdfd"/><path d="M182.30103,149.94436h1.28841c0.43963,0 0.87925,0 1.33194,0.00435c0.44398,-0.00435 0.89231,-0.00435 1.34935,-0.00435h2.45495c0.30034,0.02176 0.59633,0.03917 0.90102,0.05659l0.43527,0.43527c0.04353,0.80091 0.05223,1.60181 0.05223,2.39836c0,0.52233 0.00435,1.04466 0.00435,1.58005c-0.00435,0.58327 -0.00435,1.16218 -0.00435,1.74545v1.82815c0,1.6584 -0.00435,3.31679 -0.00871,4.97519v5.19283l-0.01306,9.84156c-0.00435,3.73466 -0.00435,7.46496 -0.00871,11.19962c-0.00435,7.6826 -0.01306,15.3652 -0.02176,23.0478h-11.75242v-61.80901c1.46688,-0.36563 2.50718,-0.49186 3.99147,-0.49186z" fill="#fdfdfd"/><path d="M161.33472,241.40994h12.62297v57.02099h-12.62297zM248.82494,83.40522h25.24593v40.04527h-13.49352l1.7411,-1.30582c0.28293,-1.38853 0.28293,-1.38853 0,-3.04692c-0.44833,-1.53652 -1.02725,-3.00775 -1.62357,-4.48768l-0.51798,-1.31453c-0.54845,-1.40594 -1.10995,-2.80752 -1.6671,-4.20911c-0.37869,-0.96196 -0.75738,-1.92827 -1.13607,-2.89022c-0.75303,-1.91521 -1.5104,-3.83477 -2.26778,-5.74563c-1.29712,-3.27762 -2.57683,-6.55959 -3.85218,-9.84591c-0.32646,-0.84443 -0.66162,-1.69322 -0.99243,-2.53765c-0.19152,-0.49621 -0.38739,-0.99243 -0.58327,-1.50605c-0.1654,-0.42222 -0.33516,-0.84879 -0.50492,-1.28406c-0.34822,-1.00113 -0.34822,-1.00113 -0.34822,-1.87168z" fill="#fefefe"/><path d="M251.87186,150.00225c2.24021,0.51653 4.48611,1.00899 6.72064,1.54958c0.32735,0.07919 0.64144,0.2056 0.96196,0.30905c0.77638,0.25058 2.074,-0.02201 2.32872,0.75303c0.36216,1.10194 -1.7469,6.90579 -2.05885,7.82624c-0.16055,0.47373 -0.33318,0.94328 -0.50057,1.41464c-0.54211,1.52655 -1.08546,3.05266 -1.62793,4.57909c-0.534,1.50261 -2.53788,7.1445 -2.85105,8.03517c-1.72941,4.91856 -3.44343,9.84252 -5.17542,14.76017c-2.03314,5.77271 -4.07752,11.54145 -6.11996,17.31087c-0.16005,0.45211 -0.32417,0.90277 -0.48751,1.3537c-0.13991,0.38625 -0.30177,0.76508 -0.42222,1.15783c-0.28024,0.91384 0.16485,2.60963 -0.77914,2.75964c-2.03895,0.32402 -3.97312,-1.1241 -5.95891,-1.68887c-0.38646,-0.10991 -0.77278,-0.22039 -1.15783,-0.33516c-0.36945,-0.11013 -0.73659,-0.2279 -1.1056,-0.33951c-0.33614,-0.10167 -0.68177,-0.17502 -1.00984,-0.30034c-0.27035,-0.10327 -0.61019,-0.14808 -0.77914,-0.38304c-1.1256,-1.56534 0.22747,-3.36526 0.72256,-4.85331c0.12241,-0.36793 0.25747,-0.73154 0.38739,-1.09689c0.27924,-0.78523 0.56111,-1.56951 0.84008,-2.35484c0.75699,-2.13102 1.51211,-4.2627 2.26778,-6.39419c1.61956,-4.56818 3.15596,-9.16541 4.74014,-13.74598c2.42004,-6.99741 4.85167,-13.9908 7.28215,-20.98459c0.14055,-0.40444 0.28738,-0.80668 0.43092,-1.21006c0.3991,-1.12152 0.79818,-2.24305 1.19701,-3.36467c0.11915,-0.3351 0.2102,-0.68151 0.35693,-1.00548c0.57213,-1.26331 1.19846,-2.50138 1.79768,-3.75207M265.80065,150.43753c0.93705,0.06181 7.58247,1.19881 8.27022,2.17637c0.68712,0.97667 -0.29553,2.37357 -0.55443,3.53933c-0.35804,1.61218 -0.8259,2.95723 -1.34337,4.44796c-0.38235,1.10148 -0.76674,2.20226 -1.14913,3.30374c-0.85716,2.46907 -1.71289,4.93864 -2.56812,7.40838c-3.88494,11.219 -12.94787,37.53605 -14.40759,40.93323c-0.30721,0.71496 -1.50336,-0.40256 -2.25472,-0.60503c-0.42243,-0.11383 -0.8489,-0.21392 -1.26665,-0.34387c-1.73285,-0.53903 -4.04667,-0.2487 -5.18412,-1.66275c-0.82193,-1.0218 0.41312,-2.59377 0.73833,-3.86415c0.32603,-1.27357 0.80079,-2.50439 1.2117,-3.75316c0.15116,-0.4594 0.31513,-0.91448 0.47445,-1.37112c0.52407,-1.5021 1.05117,-3.00315 1.57569,-4.50509c3.51853,-10.075 7.02015,-20.15591 10.5293,-30.23418c0.76846,-2.20702 1.53524,-4.41464 2.30696,-6.62053c0.11006,-0.3146 1.01296,-2.8972 1.1932,-3.40011c0.49548,-1.38252 0.753,-2.13084 1.2944,-3.41813c0.2251,-0.53521 0.41557,-1.08867 0.69862,-1.59562c0.10003,-0.17916 0.23053,-0.44878 0.43527,-0.43527z" fill="#fdfdfd"/><path d="M208.77967,161.75467h10.88187l0.43527,0.43527c0.04353,0.64856 0.05223,1.30147 0.05223,1.95438v1.27535c0,0.46574 0,0.93584 -0.00435,1.41464v1.47993c0,1.62357 0,3.24715 -0.00435,4.86637c0,1.12301 -0.00435,2.24602 -0.00435,3.36467c0,2.65953 -0.00435,5.3147 -0.00871,7.96988c-0.00435,3.02516 -0.00435,6.04597 -0.00871,9.07112c-0.00435,6.22008 -0.01306,12.44015 -0.02176,18.66023h-11.31714zM226.19065,83.40522h4.78802c4.14817,10.40742 8.27457,20.81919 12.27039,31.28755l0.46139,1.20136c0.42222,1.10995 0.84879,2.22425 1.271,3.3342c0.18717,0.49621 0.18717,0.49621 0.38304,1.00113c0.29163,0.77914 0.57021,1.56264 0.84879,2.35048v0.87055h-20.02264z" fill="#fefefe"/><path d="M246.21329,83.40522c6.01241,6.53562 6.50327,16.52759 9.75015,24.79325c0.51641,1.31465 1.00833,2.63886 1.52781,3.95229c0.91682,2.31803 1.86325,4.62435 2.76835,6.94698c0.0228,0.05851 0.59181,1.60446 0.31775,1.7411c-1.37059,0.68333 -2.93706,0.86917 -4.40498,1.30582c-0.8268,0.24594 -1.65341,0.49255 -2.48107,0.73561c-0.37309,0.10957 -0.73245,0.28556 -1.11866,0.33081c-1.24328,0.14568 -2.53272,0.54066 -3.74772,0.2394c-0.44852,-0.11121 -0.33327,-0.86201 -0.50057,-1.29277c-0.81207,-2.09094 -1.62454,-4.18173 -2.43754,-6.27231c-0.15186,-0.39049 -0.30249,-0.78146 -0.45704,-1.17089c-3.17531,-8.00122 -6.35371,-16.00121 -9.53252,-24.00105c-0.67794,-1.70612 -1.3697,-3.40675 -2.0545,-5.11013c-0.01787,-0.04444 -0.64207,-1.57035 -0.68773,-1.76286c-0.03349,-0.14117 -0.14509,-14.7876 13.05824,-0.43527zM200.07417,83.40522h11.75242v40.48055h-11.75242zM160.89945,83.40522h11.31714v40.48055h-11.31714zM273.6356,161.75467h0.43527v50.49187h-17.41099c0.97937,-4.40498 0.97937,-4.40498 1.5104,-5.87186c0.12188,-0.33516 0.2394,-0.67468 0.36563,-1.01854c0.13058,-0.35693 0.25681,-0.7095 0.39175,-1.07513c0.29163,-0.80961 0.57892,-1.61487 0.87055,-2.42448c0.15235,-0.42657 0.30469,-0.84879 0.46574,-1.28841c3.26456,-9.05807 6.39854,-18.15531 9.48028,-27.27867c0.10011,-0.29163 0.19587,-0.57892 0.29599,-0.87925c1.20136,-3.55184 2.39836,-7.10368 3.59537,-10.65552z" fill="#fdfdfd"/><path d="M174.39296,83.40522h11.31714v40.48055h-10.88187l-0.16976,-11.97876l-0.07835,-5.56281c-0.11317,-7.64778 -0.21764,-15.2912 -0.18717,-22.93898z" fill="#fefefe"/><path d="M197.02725,375.03927c1.23618,0.3961 1.23618,0.3961 2.17637,0.87055c-0.34822,0.38739 -0.70079,0.77044 -1.06207,1.17089c-3.46479,4.06982 -6.54218,8.63585 -8.51397,13.62845c-0.83573,2.43319 -1.52346,4.9099 -2.17637,7.39967c-4.74449,0.3134 -9.35405,-0.51798 -14.0289,-1.25359c-1.37547,-0.21764 -2.75094,-0.42657 -4.1264,-0.6355l-2.63776,-0.40481c-0.40916,-0.06529 -0.81832,-0.12623 -1.23618,-0.19152c-2.02403,-0.31775 -3.90441,-0.70515 -5.82833,-1.43205c1.14913,-2.05885 2.45495,-3.48655 4.23087,-5.02742c7.87847,-6.15478 18.59058,-9.29747 27.92723,-12.5185c0.49621,-0.17846 0.99243,-0.35257 1.5017,-0.53539c0.46574,-0.15235 0.92714,-0.30905 1.40158,-0.46574c0.40916,-0.13929 0.81396,-0.27858 1.23183,-0.42222c0.56586,-0.09141 0.56586,-0.09141 1.14042,-0.18282z" fill="#fdfdfd"/><path d="M214.00296,83.40522h9.57604c0.52233,8.01341 0.48751,16.0094 0.46574,24.03152c-0.00435,1.85862 -0.00871,3.7216 -0.00871,5.58022c-0.00435,3.62149 -0.01306,7.24732 -0.02176,10.86881c-1.58875,0.01306 -3.17315,0.02176 -4.76191,0.02612c-0.67903,0.00871 -0.67903,0.00871 -1.37112,0.01306c-0.43092,0 -0.86184,0 -1.30582,0.00435c-0.59633,0.00435 -0.59633,0.00435 -1.21006,0.00435c-0.45704,-0.02176 -0.45704,-0.02176 -0.92714,-0.04788l-0.43527,-0.43527c-0.04353,-1.24489 -0.05659,-2.48107 -0.04788,-3.72595v-1.18395c0,-1.29712 0,-2.59424 0.00435,-3.89136c0,-0.89667 0.00435,-1.79768 0.00435,-2.69435c0,-2.36354 0.00435,-4.73144 0.00871,-7.09933c0.00435,-2.41142 0.00871,-4.82284 0.00871,-7.23862c0.00435,-4.73579 0.01306,-9.47593 0.02176,-14.21172z" fill="#f4f4f4"/><path d="M187.88648,83.40522h10.01132v40.48055h-9.57604c-0.48315,-13.49352 -0.4788,-26.97833 -0.43527,-40.48055z" fill="#fbfbfb"/><path d="M176.56934,246.63324c6.52912,0 6.52912,0 9.57604,0.43527v31.33978l-3.91747,1.30582c-1.16654,1.14042 -1.16654,1.14042 -1.7411,2.61165c-0.39175,2.68564 -0.17411,5.39741 0.23505,8.07435c0.60938,2.85975 1.52346,5.41046 2.81187,8.03082h-6.9644z" fill="#fdfdfd"/><path d="M188.75703,241.84521h10.44659v37.43362l-10.44659,-1.30582z" fill="#fefefe"/><path d="M268.73005,393.6168c2.36064,0.4817 4.7231,0.95459 7.08192,1.44511c1.2795,0.26608 3.24134,0.84819 4.177,1.19973c1.02864,0.38647 2.13884,0.67918 3.00503,1.35534c3.50645,2.73718 3.27666,2.96172 3.80865,6.58571c0.05444,0.37082 0.07684,1.37608 -0.10882,1.7411c-0.14917,0.29328 -0.42678,0.50186 -0.65944,0.73453c-0.20333,0.20333 -0.39102,0.70351 -0.64638,0.5713c-0.33459,-0.17323 -0.22203,-0.72009 -0.33516,-1.07948c-0.14949,-0.47489 -0.30227,-0.94875 -0.45269,-1.42335c-0.4018,-1.26781 -0.50131,-1.81978 -1.21442,-3.02026c-0.31204,-0.52531 -1.25646,-2.6245 -2.35048,-1.00603c-0.17466,0.25839 0.31711,0.53746 0.46139,0.81396c0.78999,1.514 1.63023,2.99475 1.95874,4.70097c0.2857,1.48389 0.98971,2.90566 -0.67903,3.19056c-0.65241,0.11139 -1.32312,0.03994 -1.98485,0.05223c-0.12842,0.00239 -1.71454,0.02991 -1.93262,-0.05223c-0.19202,-0.07233 -0.38213,-0.23709 -0.43527,-0.43527c-0.21821,-0.81377 -0.21406,-1.67178 -0.35257,-2.50283c-0.15176,-0.91055 -0.23815,-1.84079 -0.51798,-2.72047c-0.18882,-0.59359 -1.05507,-1.92038 -1.7411,-2.17637c-0.40781,-0.15217 -0.97014,-0.2771 -1.30582,0c-0.21918,0.18093 0.25594,0.50753 0.38304,0.76173c0.16308,0.32617 0.30873,0.66153 0.48751,0.97937c0.14818,0.26343 0.36103,0.48927 0.49186,0.76173c0.29444,0.6132 0.4275,1.18817 0.43527,1.86298c0.00998,0.86634 0.80465,2.50413 -0.05659,2.59859c-3.44261,0.3776 -6.87964,-0.83943 -10.28609,-1.46416c-3.21442,-0.5895 -6.88577,-1.92037 -9.8976,-3.15846c-0.85289,-0.3506 -1.66448,-0.79437 -2.49215,-1.20095c-1.02248,-0.50228 -2.63779,-1.30121 -3.44064,-2.01138c-0.24301,-0.21495 -0.62696,-0.6088 -0.43527,-0.87055c0.30893,-0.42185 0.98165,-0.3605 1.47123,-0.54409c0.67116,-0.25169 1.34024,-0.50891 2.01097,-0.76173c0.36087,-0.13602 0.7337,-0.24315 1.08383,-0.40481c1.65913,-0.76603 3.30711,-1.55687 4.94037,-2.3766c1.42286,-0.71413 2.7241,-1.69768 4.22652,-2.22425c1.32598,-0.46474 3.98707,-0.05173 5.30165,0.07835M136.08879,492.56344c4.06111,0.26987 8.0874,0.69209 12.12675,1.1883l2.91199,0.35257c0.62244,0.074 1.24924,0.15235 1.87168,0.22634c0.55715,0.06964 1.1143,0.13494 1.68451,0.20893c1.09254,0.15235 2.11108,0.33516 3.1688,0.6355c0.06529,3.30809 -0.13929,6.55524 -0.43527,9.84591c-0.06094,0.7182 -0.06094,0.7182 -0.12623,1.45382c-0.10011,1.16654 -0.20458,2.33307 -0.30905,3.49961c-3.3342,0.07835 -6.54653,-0.12623 -9.84591,-0.57021c-0.6355,-0.07835 -0.6355,-0.07835 -1.28406,-0.1567c-2.32872,-0.30469 -4.61826,-0.67032 -6.83381,-1.47558l-0.75303,-0.40916c-0.20893,-0.35693 -0.42222,-0.7182 -0.6355,-1.08819c-0.10447,-0.63115 -0.10447,-0.63115 -0.20893,-1.27971c-0.0827,-0.46574 -0.1654,-0.92714 -0.25246,-1.41029c-0.10447,-0.71385 -0.10447,-0.71385 -0.20893,-1.44511c-0.08705,-0.44398 -0.17411,-0.89231 -0.26552,-1.3537c-0.53104,-2.76835 -0.69644,-5.41046 -0.60503,-8.22234M213.15418,256.42692c0.10158,0.30221 0.15691,0.61804 0.23505,0.92714c0.42226,1.67036 0.84882,3.33963 1.271,5.01001c1.02381,4.05072 2.04532,8.10203 3.06869,12.15287c0.20997,0.83111 0.41811,1.66269 0.6268,2.49412c0.11254,0.44837 0.36037,1.34314 0.41297,1.83958c0.03033,0.28632 0.29886,0.78336 0.02231,0.86348c-0.41072,0.11899 -8.70659,0.93582 -9.14077,0.43527c-1.97342,-2.27507 -1.91968,-5.70934 -2.85975,-8.57056c-0.15833,-0.48191 -0.29064,-0.97198 -0.43527,-1.45817c-0.3008,-1.01115 -0.60015,-2.02273 -0.90102,-3.03386c-0.45941,-1.54393 -0.92094,-3.08723 -1.37982,-4.63132c-0.29269,-0.98486 -0.58121,-1.97096 -0.8749,-2.95552c-0.13868,-0.46491 -0.2853,-0.92744 -0.42222,-1.39288c-0.03731,-0.12685 -0.84285,-2.81954 -0.91462,-3.36467c-0.09204,-0.69909 -0.12434,-1.40604 -0.13439,-2.11108c-0.00576,-0.40436 -0.26841,-1.01724 0.08705,-1.21006c0.99923,-0.54204 2.23161,-0.43476 3.34726,-0.65291c0.3164,-0.06187 0.62853,-0.15106 0.9489,-0.18717c1.61211,-0.18168 6.33293,3.73408 7.04274,5.84574z" fill="#fcfcfc"/><path d="M354.598,312.63046c0.30617,-0.00049 0.61226,-0.01506 0.91843,-0.01306c0.78469,0.00512 0.91251,0.01144 1.59086,0.07774c0.32449,0.03172 0.66439,-0.00471 0.97291,0.10073c0.44617,0.15248 0.8471,0.41685 1.25141,0.65944c0.32254,0.19352 0.78962,0.29543 0.92496,0.64638c0.16863,0.43728 -0.08042,0.93405 -0.13602,1.39941c-0.02615,0.21891 -0.2812,1.61303 -0.29925,1.64751c-0.43282,0.82664 -0.96886,1.60119 -1.55175,2.32981c-0.58226,0.72783 -1.17483,1.47722 -1.93044,2.02294c-0.23525,0.1699 -0.87055,-0.29018 -0.87055,0c0,1.19646 0.41478,2.37595 0.87055,3.4822c0.32842,0.79713 1.5721,1.17952 2.26615,1.32759c0.68079,0.14524 1.74477,0.21959 2.49848,0.13929c0.30108,-0.03208 0.6061,-0.06713 0.89395,-0.16105c0.29999,-0.09788 0.5761,-0.25908 0.85368,-0.40916c0.35502,-0.19196 2.11378,-1.31987 2.19324,-1.33194c1.46851,-0.22301 1.41293,0.40839 1.20898,1.22421c-0.0817,0.32678 -0.10083,0.7134 -0.33843,0.95216c-0.52971,0.53232 -1.20923,0.89814 -1.8657,1.26284c-1.89578,1.05321 -3.18902,1.42896 -5.53397,0.91353c-0.98927,-0.21744 -1.81016,-0.90943 -2.71611,-1.36241c-0.25478,-0.12739 -0.48587,-0.32747 -0.76608,-0.37869c-0.42818,-0.07826 -0.89289,-0.13765 -1.30582,0c-0.49629,0.16543 -0.78877,0.791 -1.30582,0.87055c-1.43404,0.22062 -2.91442,0.19072 -4.35275,0c-0.54225,-0.0719 -0.99434,-0.46593 -1.44946,-0.76935c-1.07993,-0.71996 -1.29194,-1.06287 -1.93915,-2.14155c-0.195,-0.325 -0.59751,-0.63383 -0.52886,-1.00657c0.04853,-0.26351 1.71597,-0.44452 1.7411,-0.43527c1.10023,0.40489 0.88651,1.51611 2.17637,1.7411c1.2864,0.22438 2.61813,0.12993 3.91747,0c0.20417,-0.02042 0.35955,-0.24457 0.43527,-0.43527c0.16982,-0.42764 0.27512,-1.62302 0.21328,-2.12849c-0.04113,-0.3362 -0.1053,-0.67733 -0.24375,-0.98644c-0.35024,-0.78196 -2.11759,-2.78156 -2.30696,-3.01373c-0.33101,-0.40584 -1.00675,-1.15521 -1.14477,-1.70628c-0.0889,-0.35493 -0.24395,-2.70874 0,-3.04692c0.40426,-0.56043 1.12417,-0.83231 1.76885,-1.08111c0.65432,-0.25252 3.28178,-0.38915 3.88972,-0.39011z" fill="#080808"/><path d="M161.33472,301.04257h23.50483l1.30582,2.61165v0.87055c-0.48751,0.074 -0.97937,0.14364 -1.47993,0.21764c-1.84992,0.27422 -3.69983,0.5528 -5.55411,0.82702l-2.38095,0.35257c-5.1493,0.76173 -10.27248,1.59311 -15.39567,2.52024z" fill="#fdfdfd"/><path d="M160.46417,495.61037c0.90537,0.06094 1.8151,0.12623 2.72047,0.19152c0.75738,0.05223 0.75738,0.05223 1.53217,0.10447c1.1056,0.10882 2.08497,0.26116 3.14704,0.57456c-0.26116,3.11657 -0.69209,6.17655 -1.7411,9.14077c-0.43092,0.53974 -0.43092,0.53974 -0.87055,1.08819c-1.96744,0.98372 -4.00888,1.70628 -6.09385,2.39401c-0.04353,-2.7727 0.10011,-5.45834 0.40916,-8.21799c0.03482,-0.36563 0.074,-0.73126 0.11317,-1.1056c0.16105,-1.47123 0.3134,-2.75964 0.78349,-4.16993z" fill="#fbfbfb"/><path d="M326.30384,263.17367c0.75303,0.13058 0.75303,0.13058 1.7411,0.43527c2.56377,1.67581 4.9839,3.75642 6.9644,6.09385c3.83477,5.17977 3.83477,5.17977 4.78802,7.39967c0.09141,0.47445 0.17846,0.95325 0.26987,1.44076c-0.08705,0.53104 -0.17846,1.06207 -0.26987,1.60616c-1.0229,1.19265 -2.24166,2.09367 -3.4822,3.04692c-0.63952,0.54816 -1.27504,1.10097 -1.9065,1.6584c-0.27858,0.24811 -0.5615,0.49186 -0.85314,0.74432c-0.5448,0.49025 -1.07603,0.99535 -1.59311,1.51476c-1.14042,-0.1654 -1.14042,-0.1654 -2.17637,-0.43527c0.25681,-0.93149 0.25681,-0.93149 0.87055,-2.17637c0.87055,-0.93149 1.84121,-1.72804 2.82929,-2.52895c0.38739,-0.33081 0.38739,-0.33081 0.78349,-0.66162c0.66597,-0.5528 1.3537,-1.07948 2.04579,-1.59746h0.87055c-0.20893,-1.24489 -0.43963,-2.3026 -0.87055,-3.4822c-2.27649,-3.98276 -5.51928,-7.48672 -8.94925,-10.49883c-0.49621,-0.42222 -0.99678,-0.84008 -1.49734,-1.25359zM393.33614,262.7384c0.97937,0.13494 0.97937,0.13494 1.7411,0.43527c-0.33516,0.78349 -0.33516,0.78349 -0.87055,1.7411c-0.72256,0.70079 -0.72256,0.70079 -1.57569,1.38853c-3.38644,2.89022 -5.86315,6.15043 -8.18752,9.91991c-0.6268,1.21006 -0.94455,2.15026 -1.11866,3.4909c0.37434,0.09141 0.74867,0.18717 1.13171,0.28293c1.27971,0.50927 1.88474,0.84443 2.87717,1.71934c0.46139,0.43527 0.92278,0.8749 1.37982,1.31453c0.23505,0.22634 0.47445,0.45269 0.7182,0.68338c0.57892,0.54845 1.15348,1.10125 1.72804,1.6584l-0.43527,1.7411c-0.72691,-0.10011 -0.72691,-0.10011 -1.7411,-0.43527c-0.7914,-0.58998 -1.56229,-1.20699 -2.31131,-1.84992c-1.38417,-1.17524 -2.73788,-2.26778 -4.27004,-3.23844c-0.41351,-0.33081 -0.82702,-0.66162 -1.25359,-1.00548c-0.17846,-0.38739 -0.36128,-0.77044 -0.54409,-1.17089c0.10882,-1.44076 0.10882,-1.44076 0.43963,-2.40707c1.65404,-3.65631 4.26134,-6.62488 7.02098,-9.49769c3.66066,-3.73466 3.66066,-3.73466 5.27118,-4.77061z" fill="#080808"/><path d="M201.81527,262.7384c1.0316,1.54523 1.43205,3.09045 1.9065,4.86202c0.09576,0.34387 0.19152,0.69209 0.29163,1.04901c0.30034,1.10125 0.60068,2.20684 0.90102,3.31244c0.20893,0.74867 0.41351,1.49734 0.61809,2.24602c0.50492,1.83251 1.00548,3.66937 1.50605,5.50623c-0.65291,0.24375 -0.65291,0.24375 -1.7411,0.43527c-1.72369,-0.21764 -1.72369,-0.21764 -3.4822,-0.43527z" fill="#f9f9f9"/><path d="M333.70351,302.78367c1.09689,0.48751 1.91521,1.00984 2.8554,1.76722c0.52668,0.41786 0.52668,0.41786 1.06207,0.84443c1.48864,0.49621 2.70306,0.54409 4.26134,0.53974c0.31775,-0.03482 0.6355,-0.06964 0.96196,-0.10447c0.73126,-0.42222 1.45817,-0.85749 2.17637,-1.30582c1.00548,0.35257 1.00548,0.35257 1.7411,0.87055c-0.10882,0.78785 -0.10882,0.78785 -0.43527,1.7411c-0.81832,0.73561 -0.81832,0.73561 -1.7411,1.30582c-1.75416,0.58327 -3.34726,0.57456 -5.18847,0.5615c-1.34065,-0.12623 -1.34065,-0.12623 -2.39836,-0.45269c-1.30147,-0.6268 -2.38531,-1.38417 -3.53878,-2.25908c-0.20893,-0.29599 -0.41351,-0.59197 -0.6268,-0.89667c0.0827,-1.17089 0.0827,-1.17089 0.43527,-2.17637z" fill="#050505"/><path d="M378.5368,303.65422c0.89667,0.19152 0.89667,0.19152 1.7411,0.43527c-0.05223,0.95325 -0.05223,0.95325 -0.43527,2.17637c-1.22312,1.19701 -1.22312,1.19701 -2.61165,2.17637c-1.94133,0.67468 -4.00017,0.54845 -6.03291,0.53539c-1.36676,-0.10011 -1.36676,-0.10011 -2.97293,-0.70079c-1.00548,-0.70515 -1.00548,-0.70515 -1.87603,-1.57569c0.1654,-0.92278 0.1654,-0.92278 0.43527,-1.7411c2.50283,0.38304 2.50283,0.38304 3.4822,0.87055c1.75416,0.16105 3.46914,0.17411 5.2233,0c1.1143,-0.45704 1.70192,-0.92714 2.61165,-1.7411z" fill="#070707"/><path d="M214.43824,389.83861l0.43527,0.87055l-0.40916,1.25359c-0.58762,1.91086 -0.57892,3.76948 -0.54845,5.75868c0.10882,1.55828 0.42657,2.83799 0.9576,4.30487c-0.60938,0.01306 -1.21442,0.02176 -1.8238,0.02612c-0.33516,0.00435 -0.67468,0.01306 -1.0229,0.01741c-1.12301,-0.04353 -2.15461,-0.2307 -3.24715,-0.4788c0.53539,-2.72482 1.15348,-5.18847 2.58553,-7.59119c0.94019,-1.45817 1.93262,-2.8467 3.07304,-4.16123z" fill="#f5f5f5"/><path d="M351.54977,315.40664h5.65857l-0.43527,2.17637c-1.1143,1.00548 -1.1143,1.00548 -2.17637,1.7411c-0.78785,-0.30034 -0.78785,-0.30034 -1.7411,-0.87055c-0.76173,-1.08819 -0.76173,-1.08819 -1.30582,-2.17637z" fill="#f4f4f4"/><path d="M333.26823,314.10081c1.08819,-0.10882 1.08819,-0.10882 2.17637,0l0.87055,1.30582l-1.30582,0.43527c-0.75303,-0.03482 -1.50605,-0.10447 -2.25908,-0.19152c-0.6984,-0.07685 -1.3963,-0.1581 -2.09367,-0.24375z" fill="#121212"/><path d="M121.28945,323.67686l0.87055,0.43527l-0.43527,1.30582c-0.85314,0.60938 -1.71934,1.19265 -2.61165,1.7411l-0.87055,-0.43527z" fill="#ededed"/></g></g></svg>