<svg version="1.1" xmlns="http://www.w3.org/2000/svg" style="display: block;" viewBox="0 0 2048 2048" width="1024" height="1024">
<path transform="translate(0,0)" fill="rgb(0,0,0)" d="M 0 0 L 256.711 0 L 268.252 0 L 312.289 0 L 324.041 0 L 375.94 0 L 386.123 0 L 437.19 0 L 448.051 0 L 493.375 0 L 503.866 0 L 557.908 0 L 568.859 0 L 611.339 0 L 624.221 0 L 644.976 0 L 656.114 0 L 715.675 0 L 727.083 0 L 844.212 0 L 856.147 0 L 897.942 0 L 909.02 0 L 2048 0 L 2048 627.876 L 2048 639.081 L 2048 1344.11 L 2048 1356.14 L 2048 1580.06 L 2048 1590.29 L 2048 1812.16 L 2048 1822.7 L 2048 2048 L 1703.49 2048 L 1611.46 2048 L 0 2048 L 0 0 z"/>
<path transform="translate(0,0)" fill="rgb(254,254,254)" d="M 909.02 0 L 2048 0 L 2048 627.876 C 2012.7 627.958 1976.97 628.005 1941.97 633.175 C 1911.6 637.661 1884.96 647.375 1866.24 672.736 C 1860.2 657.291 1850.71 646.015 1836.06 638.204 C 1798.27 618.067 1717.88 614.693 1673.3 611.423 C 1552.07 602.689 1430.51 599.492 1309 601.844 C 1218.96 602.744 1128.79 604.056 1039.05 612.334 C 995.281 616.372 952.146 622.732 910.054 635.579 L 910.743 207.947 C 910.648 138.745 911.585 69.1451 909.02 0 z"/>
<path transform="translate(0,0)" fill="rgb(254,254,254)" d="M 0 0 L 256.711 0 L 257.026 690.029 L 257.114 914.236 C 257.133 959.209 256.303 1004.42 258.013 1049.36 C 203.142 1060.47 141.745 1077.86 109.151 1127.11 C 86.2153 1161.76 77.9813 1210.25 86.2988 1250.87 C 89.2114 1265.09 94.736 1279.13 103.839 1290.56 C 114.104 1303.45 136.565 1314.92 139.44 1331.6 C 141.639 1344.35 140.089 1359.75 140.078 1372.79 L 139.996 1455.76 L 140.343 1765.46 C 140.497 1787.97 138.457 1833.89 146.921 1854.25 C 149.033 1859.33 152.38 1863.57 156.973 1866.62 C 167.993 1873.94 184.984 1875.36 197.85 1877.88 C 198.668 1892.61 204.05 1947.09 212.817 1955.41 C 221.249 1963.41 291.704 1972.44 305.473 1971.41 C 316.231 1970.62 348.388 1955.81 354.91 1947.07 C 363.919 1935 364.155 1913.68 368.348 1899.37 C 481.367 1911.6 594.206 1926.01 707.068 1939.64 L 1207.14 1999.47 L 1475.58 2030.97 L 1561.83 2041.16 C 1578.2 2043.13 1595.39 2044.32 1611.46 2048 L 0 2048 L 0 0 z"/>
<path transform="translate(0,0)" fill="rgb(254,254,254)" d="M 323.68 1647.39 C 366.807 1663.03 431.206 1669.81 477.601 1675.79 C 492.177 1677.67 516.346 1678.74 529.751 1683.44 C 539.368 1686.81 551.545 1698.65 561.507 1703.92 C 597.105 1722.76 655.007 1738.6 694.477 1725.69 C 707.407 1721.46 716.769 1714.2 722.961 1702.08 C 775.365 1709.78 828.365 1714.72 881.027 1720.35 C 977.445 1730.44 1073.93 1739.9 1170.47 1748.75 L 1328.38 1762.71 C 1365.07 1765.78 1402.53 1769.62 1439.38 1768.98 C 1461.98 1768.59 1482.55 1765.92 1503.35 1756.81 C 1514.94 1767.48 1527.65 1771.29 1542.71 1774.72 C 1571.56 1781.28 1601.5 1784.1 1630.89 1787.01 L 1729.83 1796.22 L 2048 1822.7 L 2048 2048 L 1703.49 2048 C 1690.46 2044.28 1675.32 2043.69 1661.8 2042.02 L 1585.31 2032.49 L 1284.23 1996.94 L 323.843 1882.88 C 320.896 1855.79 322.895 1825.73 322.924 1798.35 C 322.749 1748.03 323.001 1697.7 323.68 1647.39 z"/>
<path transform="translate(0,0)" fill="rgb(254,254,254)" d="M 2048 639.081 L 2048 1344.11 C 2029.66 1343.75 2011.17 1341.68 1992.84 1340.63 C 1925.34 1336.78 1849.64 1333.66 1784.92 1355.79 C 1784.54 1353.15 1784.32 1350.49 1784.24 1347.83 C 1782.37 1296.47 1788.11 1243.55 1792.4 1192.39 C 1800.99 1083.06 1814.14 974.15 1831.81 865.925 C 1839.19 818.696 1846.11 759.785 1859.85 714.65 C 1864.71 698.716 1870.77 683.02 1882.41 670.734 C 1916.2 635.073 2001.17 639.988 2048 639.081 z"/>
<path transform="translate(0,0)" fill="rgb(254,254,254)" d="M 1521.97 1547.99 C 1561.3 1560.6 1603.12 1562.21 1644.04 1565.17 L 1747.01 1572.45 C 1812.02 1576.92 1877.06 1580.98 1942.12 1584.64 C 1977.37 1586.67 2012.71 1589.34 2048 1590.29 L 2048 1812.16 C 2032.52 1810.08 2016.69 1809.27 2001.12 1808.02 L 1920.89 1801.58 C 1844.81 1795.45 1768.76 1788.81 1692.76 1781.67 C 1656.11 1778.2 1547.4 1770.94 1519.34 1755.21 C 1512.01 1751.1 1508.27 1742.76 1506.07 1735.02 C 1498.19 1707.29 1501.14 1615.38 1507.15 1586.71 C 1510.06 1572.81 1514.88 1560.27 1521.97 1547.99 z"/>
<path transform="translate(0,0)" fill="rgb(254,254,254)" d="M 1530.93 1538.96 C 1534.17 1533.94 1537.85 1529.54 1542.3 1525.56 C 1557.16 1512.26 1575.31 1501.53 1591.74 1490.26 C 1612.65 1475.91 1633.14 1460.97 1654.03 1446.58 C 1689.95 1421.84 1732.37 1391.27 1771.65 1373.54 C 1850.23 1338.06 1963.61 1351.43 2048 1356.14 L 2048 1580.06 C 2007.21 1575.45 1962.6 1574.85 1921.15 1572.34 L 1685.37 1556.74 C 1639.26 1553.54 1574.39 1552.43 1530.93 1538.96 z"/>
<path transform="translate(0,0)" fill="rgb(254,254,254)" d="M 268.252 0 L 312.289 0 L 314.036 1035.75 L 269.227 1046.02 C 268.211 957.042 269.079 867.977 269.106 778.989 L 268.893 295.932 L 268.002 97.016 C 267.925 64.7197 269.376 32.2573 268.252 0 z"/>
<path transform="translate(0,0)" fill="rgb(254,254,254)" d="M 856.147 0 L 897.942 0 L 898.003 640.098 C 881.932 646.762 868.213 654.965 855.001 666.314 C 856.093 643.358 855.459 620.308 855.34 597.335 L 855.29 492.589 L 856.147 0 z"/>
<path transform="translate(0,0)" fill="rgb(254,254,254)" d="M 727.083 0 L 844.212 0 C 845.942 22.5405 845.014 45.6108 845.029 68.2379 C 845.185 107.034 845.071 145.831 844.688 184.625 C 822.907 186.426 799.61 185.274 777.749 184.487 C 782.823 182.775 789.345 181.475 791.575 175.963 C 793.183 171.987 790.93 165.183 789.696 161.165 C 783.534 141.108 774.23 121.224 766.645 101.626 C 753.54 67.7649 741.058 33.5081 727.083 0 z"/>
<path transform="translate(0,0)" fill="rgb(254,254,254)" d="M 624.221 0 L 644.976 0 C 669.627 61.0048 693.475 122.331 716.513 183.963 L 624.125 185.039 C 623.924 123.394 623.356 61.6361 624.221 0 z"/>
<path transform="translate(0,0)" fill="rgb(254,254,254)" d="M 656.114 0 L 715.675 0 C 723.129 17.6224 729.537 35.8813 736.438 53.7388 C 751.561 93.228 767.024 132.586 782.825 171.809 C 765.538 175.87 746.452 183.382 728.826 184.389 C 719.174 161.482 710.858 137.854 701.948 114.635 C 687.177 76.2228 671.897 38.0077 656.114 2.27374e-13 z"/>
<path transform="translate(0,0)" fill="rgb(254,254,254)" d="M 503.866 0 L 557.908 0 L 557.969 185.111 C 540.188 185.082 522.406 185.33 504.632 185.857 L 503.866 0 z"/>
<path transform="translate(0,0)" fill="rgb(254,254,254)" d="M 324.041 0 L 375.94 0 L 376.443 185.995 L 324.961 185.978 L 324.041 0 z"/>
<path transform="translate(0,0)" fill="rgb(254,254,254)" d="M 386.123 0 L 437.19 0 C 439.762 20.4009 438.03 42.9372 438.034 63.5714 L 438.018 185.952 L 388.043 186.014 C 388.012 123.954 388.059 62.0337 386.123 0 z"/>
<path transform="translate(0,0)" fill="rgb(254,254,254)" d="M 448.051 0 L 493.375 0 L 494.029 185.877 L 449.927 186.019 C 447.368 124.144 449.791 61.9449 448.051 0 z"/>
<path transform="translate(0,0)" fill="rgb(254,254,254)" d="M 568.859 0 L 611.339 0 C 613.125 17.2548 612.427 35.4782 612.729 52.8784 C 613.216 96.8322 613.395 140.789 613.266 184.745 L 568.986 184.958 L 568.859 0 z"/>
<path transform="translate(0,0)" fill="rgb(254,254,254)" d="M 1381.72 612.488 C 1428.82 611.911 1475.93 612.545 1523 614.387 C 1579.7 616.88 1636.37 620.307 1692.96 624.667 C 1727.34 627.375 1763.18 628.99 1796.87 636.532 C 1812.89 640.117 1833.47 645.192 1844.82 658.08 C 1851.34 665.498 1855.74 674.05 1855.7 684.058 C 1855.65 697.022 1849.52 710.151 1846.1 722.546 C 1843.5 732.324 1841.26 742.192 1839.36 752.13 C 1833.8 780.624 1829.82 809.462 1825.2 838.12 C 1820.05 870.02 1814.25 901.864 1809.73 933.857 C 1794.97 1044.1 1783.56 1154.77 1775.51 1265.7 C 1774.27 1285.87 1773.62 1306.06 1773.55 1326.27 C 1773.59 1337.17 1774.7 1348.15 1773.94 1359.04 C 1772.13 1360.21 1767.79 1362.29 1765.59 1361.36 C 1761.9 1359.8 1758.56 1355.13 1755.08 1352.76 C 1743.56 1344.94 1729.65 1339.92 1716.35 1336.14 C 1666.52 1321.99 1611.97 1318.41 1560.46 1313.92 C 1516.66 1309.94 1472.81 1306.61 1428.92 1303.92 C 1428.42 1289.33 1429.02 1274.67 1428.71 1260.06 C 1427.63 1209.2 1418.61 1175.65 1397.64 1129.26 L 1406.16 1118.35 C 1416.11 1121.51 1427.61 1126.37 1438.03 1126.91 C 1441.1 1127.07 1443.53 1127.01 1445.84 1124.91 L 1445.04 1122.88 C 1436.18 1115.76 1422.6 1113.2 1411.86 1109.89 C 1418.87 1097.76 1423.59 1085.24 1427.82 1071.94 C 1435.49 1072.05 1444.39 1073.67 1450.94 1068.85 L 1451.09 1067.07 C 1445.72 1061.83 1436.79 1062.3 1429.76 1061.65 C 1434.91 1034.63 1433.74 1004.16 1426.11 977.689 C 1424.01 970.424 1419.06 963.182 1418.6 955.608 C 1417.92 944.281 1421.17 930.823 1422.59 919.475 C 1426.02 891.932 1430.25 843.756 1422 817.93 C 1419.64 810.537 1415.55 803.24 1408.24 799.825 C 1399.24 795.626 1389.34 798.286 1380.58 801.663 C 1350.77 817.406 1320.52 846.413 1300.07 873.204 C 1262.63 865.254 1222.26 866.837 1184.52 871.453 C 1164.27 849.07 1141.49 828.411 1115.47 812.928 C 1105.03 806.716 1090.39 798.763 1077.94 802.347 C 1072.6 803.886 1068.34 807.62 1065.68 812.459 C 1049.84 841.267 1062.16 918.866 1071.65 951.632 C 1056.54 983.308 1049.42 1017.34 1056.9 1052.03 C 1045.34 1052.24 1019.69 1047.48 1010.62 1050.93 C 1009.42 1053.15 1009.04 1053 1009.48 1055.65 C 1017.7 1062.76 1047.76 1062.06 1059.26 1062.02 C 1062.07 1069.6 1065.39 1077 1068.55 1084.44 C 1056.12 1086.87 1027.67 1090.18 1017.64 1097.06 C 1015.78 1098.34 1016.31 1097.62 1015.83 1099.74 C 1023.71 1105.27 1063.35 1096.64 1074.36 1094.74 L 1084.21 1110.47 C 1062.51 1116.28 1040.01 1113.19 1017.99 1111.79 C 1002.17 1110.69 986.314 1110.09 970.452 1110.01 C 961.633 1064.1 944.504 1019.57 933.453 974.133 C 928.031 951.84 928.925 928.485 922.676 906.276 C 920.096 897.105 916.128 886.992 909.738 879.83 C 883.3 850.196 841.048 879.626 810.886 886.119 C 803.934 887.616 797.56 887.729 790.509 887.225 C 804.156 823.92 810.541 726.907 857.711 679.174 C 874.508 662.177 895.596 651.936 918.126 644.754 C 984.982 623.439 1061.33 620.914 1131.07 617.772 C 1214.57 614.176 1298.14 612.414 1381.72 612.488 z"/>
<path transform="translate(0,0)" fill="rgb(254,254,254)" d="M 1392.5 810.103 C 1394.61 809.96 1396.99 809.677 1399.1 809.975 C 1402.91 810.513 1405.5 812.511 1407.64 815.591 C 1418.89 831.759 1413.98 891.489 1411.66 912.992 C 1410.34 925.196 1407.53 938.386 1407.71 950.569 C 1407.85 959.559 1412.44 968.47 1414.77 977.111 C 1422.14 1004.23 1423.11 1032.7 1417.6 1060.26 C 1403.47 1060.71 1320.94 1061.99 1312.47 1067.14 C 1310.38 1068.41 1310.46 1069.14 1309.99 1071.37 L 1311.3 1072.98 C 1314.11 1074.06 1316.48 1074.3 1319.49 1074.31 C 1329.94 1074.35 1340.57 1072.39 1351.06 1072.05 C 1372.29 1071.37 1393.72 1071.98 1414.96 1072.06 C 1411 1084.27 1406 1095.23 1399.88 1106.51 C 1386.83 1103.19 1316.34 1087.01 1308.17 1091.84 C 1307.9 1094.38 1308.29 1094.32 1309.5 1096.41 C 1319.81 1102.91 1377.44 1112.46 1393.17 1115.72 C 1384.58 1125.63 1375.79 1132.26 1364.16 1138.33 C 1361.11 1139.92 1356 1141.71 1353.53 1143.96 C 1351.68 1145.64 1351.62 1146.27 1351.56 1148.55 C 1353.43 1150.23 1354.18 1150.68 1356.75 1151.17 C 1367.45 1153.19 1380.37 1142.99 1388.73 1137.3 C 1402.15 1163.17 1411.89 1193.21 1415.26 1222.27 C 1416.66 1234.33 1417.65 1246.62 1417.88 1258.76 C 1418.27 1279.29 1414.12 1316.5 1423.14 1333.96 C 1443.54 1373.46 1581.07 1386.81 1612.83 1424.08 C 1618.24 1430.42 1623.54 1438.8 1622.55 1447.51 C 1622.23 1450.34 1621.45 1454.12 1619.15 1455.98 C 1615.14 1453.13 1613.04 1442.42 1610.84 1437.68 C 1608.65 1432.95 1606.26 1429.5 1601.21 1427.74 L 1599.6 1428.58 C 1597.44 1434.99 1603.26 1442.22 1605.53 1448.14 C 1607.34 1452.87 1609.2 1458.98 1606.48 1463.77 C 1602.61 1470.61 1592.92 1471.09 1586.05 1472.27 C 1586.12 1463.9 1586.1 1455.71 1584.21 1447.51 C 1583.32 1443.66 1582.38 1439.97 1578.86 1437.77 C 1575.97 1437.99 1575.57 1438.42 1573.2 1440.16 C 1571.62 1444.74 1575.27 1454.08 1575.88 1458.97 C 1576.4 1463.15 1576.26 1467.55 1576.28 1471.77 C 1555.07 1466.15 1537.65 1454.06 1517.76 1449.07 C 1475.39 1438.44 1430.5 1436.92 1387.92 1427.04 C 1378.41 1424.84 1369.04 1420.21 1359.94 1416.66 C 1346.17 1411.22 1332.24 1406.19 1318.17 1401.58 C 1325.73 1397.84 1332.96 1393.45 1339.77 1388.47 C 1346.86 1383.34 1367.16 1367.73 1367.21 1358.28 C 1367.22 1355.27 1366.5 1354.59 1364.7 1352.38 C 1362.22 1351.97 1361.64 1351.69 1359.53 1353.41 C 1355.79 1356.44 1352.36 1362.71 1349.04 1366.51 C 1337.71 1379.48 1321.51 1390.68 1305.02 1395.8 L 1303.61 1396.23 C 1302.53 1396 1301.45 1395.76 1300.37 1395.51 C 1282.66 1391.31 1225.49 1378.15 1213.7 1368.48 C 1208.06 1363.85 1205.98 1357.59 1202.11 1351.7 C 1200.26 1348.88 1198.41 1347.49 1195.14 1346.88 L 1193.32 1348.52 C 1191.81 1353.52 1192.1 1356.79 1194.61 1361.43 C 1194.87 1361.91 1195.15 1362.38 1195.41 1362.86 C 1199.67 1370.61 1203.65 1374.96 1211.36 1379.35 C 1229.55 1389.7 1251.53 1394.18 1271.52 1399.78 C 1308.91 1410.26 1350.58 1421.45 1384.41 1441.01 C 1395.8 1447.59 1406.97 1457.23 1410.14 1470.56 C 1412.37 1479.98 1409.97 1487.06 1405.15 1495.04 C 1404.02 1487.84 1402.73 1480.25 1399.26 1473.76 C 1396.61 1468.83 1393.09 1464.42 1387.66 1462.71 C 1385.17 1463.4 1384.95 1463.31 1383.44 1465.37 C 1383.87 1472.92 1392.26 1480.84 1394.54 1488.41 C 1395.48 1491.53 1395.67 1494.87 1393.81 1497.73 C 1389.91 1503.69 1381.35 1503.6 1375.01 1504.46 C 1375.07 1497.18 1374.74 1490.2 1373.01 1483.1 C 1371.78 1478.01 1370.36 1472.34 1365.64 1469.46 C 1362.67 1469.33 1361.83 1469.91 1359.22 1471.2 C 1358.97 1471.82 1358.53 1472.4 1358.48 1473.07 C 1358.34 1474.86 1361.63 1481.7 1362.39 1483.84 C 1364.94 1491.01 1365.95 1496.75 1366.17 1504.33 C 1329.01 1501.46 1309.97 1482.5 1277.49 1476.02 C 1258 1472.13 1237.47 1471.18 1217.71 1469.14 C 1189.31 1466.25 1161.02 1462.38 1132.88 1457.53 C 1114.5 1454.27 1094.99 1450.59 1078.07 1442.51 C 1070 1438.65 1061.52 1433.11 1056.94 1425.23 C 1047.42 1408.84 1050.25 1383.86 1049.66 1365.69 C 1049.31 1355.43 1048.63 1345.18 1047.6 1334.96 C 1047.01 1328.77 1047.02 1321.11 1044.69 1315.36 C 1043.6 1312.68 1042.26 1311.33 1039.64 1310.24 C 1037.23 1310.93 1036.29 1311.49 1034.61 1313.34 C 1033.86 1324.15 1037.02 1336.87 1037.83 1347.84 C 1039.71 1373.44 1037.17 1400.81 1044.53 1425.55 C 1011.02 1435.62 920.631 1437.21 887.133 1431.39 C 877.13 1429.65 867.413 1425.75 857.592 1423.15 C 843.276 1419.35 828.526 1416.9 813.945 1414.37 C 835.423 1395.17 849.89 1369.94 854.013 1341.26 C 857.801 1314.91 853.236 1286.25 836.927 1264.67 C 833.102 1259.61 827.404 1253.46 820.842 1252.54 L 819.447 1253.59 C 819.214 1261.63 829.385 1270.98 833.219 1278.1 C 836.301 1283.92 838.748 1290.04 840.519 1296.38 C 847.873 1322.58 843.701 1352.33 830.354 1375.94 C 807.111 1417.06 762.042 1434.95 718.73 1446.98 C 714.997 1445.03 711.216 1442.98 707.342 1441.33 C 704.165 1439.98 701.959 1439.77 698.668 1441.07 C 696.745 1443.37 696.734 1443.18 696.996 1446.16 C 703.23 1455.83 729.33 1466.5 739.732 1471.93 C 746.364 1475.37 752.933 1478.94 759.436 1482.62 C 779.482 1493.92 807.764 1511.44 813.844 1535.46 C 816.658 1546.58 813.106 1554.34 807.345 1563.49 C 807.346 1559.2 807.211 1554.91 806.939 1550.63 C 806.384 1542.8 804.572 1536.14 798.178 1530.98 C 796.409 1529.55 796.246 1529.33 793.913 1529.53 C 790.413 1535.79 797.104 1549.14 798.179 1556.25 C 798.77 1560.15 798.733 1563.84 796.051 1567 C 791.339 1572.55 779.95 1572.03 773.361 1572.08 C 774.532 1562.44 776.086 1542.37 769.246 1534.62 C 767.598 1532.75 766.347 1531.95 763.915 1531.65 C 758.948 1538.35 768.564 1559.23 765.131 1569.49 L 763.27 1570.23 C 756.023 1569 749.59 1566.27 743.311 1562.52 C 723.68 1550.8 707.681 1533.69 688.356 1521.29 C 677.905 1514.72 667.21 1508.54 656.292 1502.77 C 639.071 1493.82 596.777 1476.35 584.822 1461.61 C 565.059 1437.25 587.481 1415.52 589.467 1391.92 C 588.547 1389.51 588.464 1389.42 586.292 1388.03 C 583.806 1387.73 581.655 1387.58 579.258 1388.47 C 564.295 1394.01 550.744 1412.26 543.769 1425.91 C 524.35 1463.9 525.473 1511.35 538.708 1551.1 C 555.938 1602.84 588.344 1634.87 641.861 1646.4 C 658.615 1650.01 677.361 1651.4 692.801 1659.24 C 701.763 1663.79 709.931 1671.27 712.887 1681.14 C 714.886 1687.82 714.239 1694.91 710.627 1700.93 C 705.74 1709.06 696.901 1713.53 688.001 1715.86 C 647.871 1726.36 596.327 1710.73 561.703 1690.29 C 510.297 1659.96 476.369 1608.42 461.705 1551.18 C 448.051 1497.9 450.541 1438.11 479.218 1390.08 C 499.813 1355.58 534.852 1326.74 574.069 1316.66 C 570.167 1325.18 564.727 1334.24 565.864 1343.85 L 568.624 1344.17 C 574.731 1340.83 579.27 1329.74 582.149 1323.71 C 596.859 1292.9 618.371 1264.36 642.456 1240.31 C 723.093 1159.77 849.919 1124.75 961.185 1122.06 C 998.789 1121.15 1035.72 1126.08 1073.18 1126.06 L 1071.92 1129.01 C 1069.19 1135.45 1062.23 1148.02 1064.94 1154.71 C 1066.03 1155.39 1066.78 1156.32 1068.13 1156.01 C 1076.8 1154.06 1085.31 1127.37 1090.64 1119.85 C 1090.89 1119.5 1091.15 1119.15 1091.4 1118.8 C 1129.5 1156.25 1177.93 1178.53 1231.98 1178.71 C 1246.08 1178.75 1279.8 1177.02 1290.22 1166.74 C 1290.93 1163.97 1290.82 1164.1 1289.41 1161.58 C 1288.57 1161.22 1287.8 1160.59 1286.89 1160.5 C 1281.56 1159.99 1272.26 1163.62 1266.68 1164.5 C 1258.12 1165.84 1249.48 1166.65 1240.82 1166.92 C 1224.97 1167.39 1209.13 1165.77 1193.71 1162.1 C 1151.57 1152.33 1111.21 1129.9 1087.82 1092.6 C 1098.6 1090.92 1121.67 1089.34 1129.51 1082.86 C 1129.99 1080.29 1129.92 1080.93 1128.69 1079 C 1117.62 1075.5 1093.67 1080.9 1081.67 1082.48 C 1078.4 1076.25 1075.78 1069.92 1073.22 1063.37 C 1079.94 1063.66 1126.13 1067.76 1129.33 1066.5 C 1129.89 1064.31 1130.11 1064.63 1129.18 1062.32 C 1122.85 1058.26 1080.09 1054.47 1070.41 1053.65 C 1062.4 1028.1 1065.65 1001.78 1074.08 976.856 C 1077 968.198 1081.06 958.917 1081.42 949.705 C 1081.87 938.146 1077.91 925.491 1075.68 914.109 C 1073.68 903.929 1072.2 893.878 1071.31 883.539 C 1070.13 869.802 1067.17 826.103 1077.12 816.562 C 1079.46 814.32 1082.16 813.546 1085.33 813.687 C 1111.66 814.863 1162.87 865.407 1180.19 884.166 C 1200.95 883.018 1221.02 879.738 1241.96 879.967 C 1262.5 880.192 1282.75 883.675 1303.25 884.186 C 1310.69 878.092 1317.15 870.118 1323.87 863.209 C 1341.86 844.712 1368.36 818.814 1392.5 810.103 z"/>
<path transform="translate(0,0)" fill="rgb(0,0,0)" d="M 1204.73 1054.33 C 1213.85 1053.69 1226.86 1052.78 1235.4 1056.11 C 1238.14 1057.18 1240.43 1059.07 1241.13 1062.04 C 1244.06 1074.36 1223.39 1087.81 1218.08 1096.27 C 1216.7 1098.46 1216.65 1100.46 1217.34 1102.9 C 1218.92 1108.53 1225.07 1113.63 1230.01 1116.28 C 1243.17 1123.36 1254.03 1111.82 1265.89 1108.36 L 1268.08 1109.63 L 1268.59 1112.12 C 1267.42 1115.79 1265.25 1118.08 1262.17 1120.38 C 1252.34 1127.74 1240.79 1128.3 1229.17 1126.38 C 1222.94 1123.85 1218.25 1120.67 1213.33 1116.17 C 1207.56 1121.55 1201.74 1124.43 1193.7 1124.54 C 1185.17 1124.65 1176.84 1120.68 1171 1114.55 C 1168.76 1112.19 1166.95 1109.6 1167.02 1106.25 C 1173.01 1099.48 1185.27 1117.4 1198.14 1114.96 C 1200.93 1114.43 1204.06 1113.33 1205.48 1110.66 C 1211.35 1099.62 1191.36 1081.04 1188.05 1070.4 C 1187.03 1067.11 1186.3 1063 1188.44 1059.99 C 1191.72 1055.37 1199.59 1055.03 1204.73 1054.33 z"/>
<path transform="translate(0,0)" fill="rgb(254,254,254)" d="M 1209.62 1066.39 C 1213.16 1066.1 1218.18 1065.21 1221.63 1065.91 C 1224.21 1066.44 1224.52 1067 1225.71 1069.08 C 1225.25 1074.64 1220.15 1078.61 1216.38 1082.29 L 1213.85 1083.52 C 1209.7 1082.95 1205.14 1078.58 1202.65 1075.2 C 1201.05 1073.02 1201.02 1071.05 1201.46 1068.46 C 1203.99 1066.27 1206.34 1066.69 1209.62 1066.39 z"/>
<path transform="translate(0,0)" fill="rgb(0,0,0)" d="M 1083.34 825.459 C 1092.43 826.419 1102.57 836.27 1109.05 842.298 C 1121.73 854.101 1146.17 879.327 1146.16 897.913 C 1146.16 900.418 1145.74 902.811 1144.2 904.865 C 1139.31 911.406 1129.71 917.004 1123.33 922.181 C 1117.87 926.605 1112.78 931.497 1107.67 936.316 C 1104.82 936.954 1104.65 937.095 1102.01 935.886 C 1101.2 934.764 1100.32 934.185 1100.51 932.705 C 1101.75 922.748 1127.99 905.734 1135.5 898.922 L 1136.26 898.214 C 1128.83 877.65 1113.44 859.024 1097.38 844.5 C 1092.62 840.191 1087.22 836.968 1082.65 832.379 C 1081.86 829.44 1082.5 828.333 1083.34 825.459 z"/>
<path transform="translate(0,0)" fill="rgb(0,0,0)" d="M 1394.31 823.843 C 1396.44 823.772 1395.65 823.649 1397.64 824.14 C 1399.52 824.603 1399.26 824.935 1400.21 826.476 C 1400 827.277 1400.02 828.179 1399.58 828.88 C 1397.14 832.755 1389.39 837.883 1385.8 841.265 C 1380.63 846.134 1375.76 851.299 1371.19 856.736 C 1360.41 869.493 1350.31 883.265 1344.48 899.028 C 1355.98 906.056 1375.96 917.592 1381.28 930.581 C 1380.94 933.914 1380.15 934.385 1378.04 936.881 C 1373.9 935.139 1338.71 907.402 1335.57 903.262 C 1334.97 900.362 1334.71 898.02 1335.24 895.075 C 1339.36 872.278 1375.54 836.184 1394.31 823.843 z"/>
<path transform="translate(0,0)" fill="rgb(0,0,0)" d="M 1119.47 1007.47 C 1125.87 1010.73 1129.66 1018.3 1136.62 1021.66 C 1156.72 1031.37 1160.9 1015.38 1175.33 1016.97 C 1177.13 1018.47 1177.61 1019.06 1177.84 1021.59 C 1178.13 1024.63 1176.66 1026.27 1174.92 1028.48 C 1165.81 1034.89 1156.57 1036.9 1145.43 1035.81 C 1135.68 1034.86 1122.78 1030.63 1116.47 1022.65 C 1114.4 1020.02 1113.47 1017.21 1114.09 1013.83 C 1114.66 1010.66 1117.05 1009.22 1119.47 1007.47 z"/>
<path transform="translate(0,0)" fill="rgb(0,0,0)" d="M 1325.49 1011.64 C 1326.4 1011.68 1328.18 1011.72 1329.02 1011.95 C 1331.23 1012.58 1331.76 1013.89 1332.78 1015.7 C 1332.81 1017.69 1332.72 1018.91 1331.86 1020.76 C 1329.18 1026.5 1321.42 1031.08 1315.78 1033.28 C 1302.05 1038.65 1288.45 1037.02 1275.19 1031.45 C 1273.79 1030.68 1272.25 1029.85 1271.05 1028.8 C 1268.98 1026.98 1267.7 1023.9 1267.87 1021.14 C 1267.97 1019.6 1268.13 1019.98 1269.49 1018.83 C 1279.56 1017.15 1287.91 1024.6 1297.64 1025.29 C 1308.58 1026.07 1317.9 1018.54 1325.49 1011.64 z"/>
<path transform="translate(0,0)" fill="rgb(254,254,254)" d="M 542.058 1472.31 C 554.719 1473.53 567.407 1473.72 580.114 1474.03 C 606.37 1495.69 645.936 1509.37 675.628 1527.87 C 698.851 1542.34 718.568 1563.02 742.726 1575.54 C 753.536 1581.14 764.768 1584.49 776.992 1584.66 C 791.788 1584.87 806.547 1579.99 817.044 1569.24 C 824.61 1561.49 827.358 1551.61 826.833 1540.95 C 825.83 1520.58 812.236 1506.89 798.36 1493.79 C 818.218 1499.44 838.279 1504.73 858.751 1507.63 C 884.587 1511.28 910.991 1512.75 936.997 1515.05 L 1090.16 1528.02 C 1161.11 1533.92 1232.08 1539.42 1303.09 1544.53 C 1368.87 1549.33 1444.22 1558.5 1509.39 1547.79 C 1496.63 1572.39 1493.69 1598.12 1491.14 1625.26 C 1489.32 1664.3 1486.54 1709.66 1498.32 1747.29 C 1480.02 1754.73 1460.09 1756.67 1440.5 1756.93 C 1402.42 1757.44 1363.82 1754.09 1325.88 1751.06 L 1175.69 1738.15 C 1091.49 1730.63 1007.34 1722.53 923.26 1713.84 C 880.284 1709.68 837.366 1704.95 794.515 1699.65 C 771.904 1697.05 749.182 1695.01 726.642 1691.86 C 720.285 1638.75 666.205 1644.1 627.47 1631.23 C 606.17 1624.16 588.176 1612.23 574.318 1594.49 C 548.295 1561.17 536.82 1514.01 542.058 1472.31 z"/>
<path transform="translate(0,0)" fill="rgb(254,254,254)" d="M 875.807 878.323 C 882.13 877.608 887.514 878.102 893.138 881.189 C 902.463 886.308 907.576 896.281 910.856 906.008 C 918.271 927.997 916.198 951.608 921.261 973.999 C 925.603 993.203 932.12 1012.23 937.69 1031.13 C 945.489 1057.56 952.876 1084.11 959.85 1110.77 C 925.962 1111.94 892.227 1115.9 858.99 1122.61 C 768.966 1140.52 677.394 1179.58 616.648 1250.68 C 602.597 1267.13 591.943 1285.51 579.979 1303.41 C 555.538 1307.82 531.296 1320.07 512.315 1335.9 C 507.031 1334.2 502.259 1332.39 497.308 1329.83 C 493.042 1325.94 490.176 1321.3 488.895 1315.62 C 484.182 1294.73 491.846 1262.8 492.719 1240.58 C 494.289 1200.61 482.054 1154.17 474.159 1114.93 C 467.232 1080.5 461.213 1044.68 450.362 1011.25 C 442.8 987.946 429.753 971.522 424.615 946.129 C 422.719 936.759 419.608 921.791 425.737 913.493 C 436.258 899.25 486.696 908.948 502.656 911.074 C 517.258 913.02 532.214 915.733 546.954 915.867 C 575.002 916.12 604.207 910.958 632.043 907.516 C 665.382 903.295 698.853 900.189 732.4 898.205 C 756.802 896.775 786.617 901.15 809.404 897.722 C 832.255 894.285 852.875 881.867 875.807 878.323 z"/>
<path transform="translate(0,0)" fill="rgb(254,254,254)" d="M 193.291 1108.39 C 195.078 1108.24 196.868 1108.14 198.659 1108.07 C 225.681 1107.14 255.131 1119.09 274.598 1137.64 C 291.553 1153.8 302.586 1176.05 308.362 1198.54 C 314.939 1224.15 314.972 1251.35 315.438 1277.63 C 315.92 1304.09 316.08 1330.54 315.918 1357 C 315.699 1374.88 314.818 1392.69 315.183 1410.58 C 308.233 1421.37 301.461 1432.34 297.74 1444.73 C 288.198 1476.5 289.913 1556.9 292.681 1591.84 C 294.325 1612.61 296.998 1627.83 313.505 1641.97 C 310.918 1677.87 311.981 1714.13 311.982 1750.12 C 311.982 1793.79 311.394 1837.47 312.006 1881.13 C 292.008 1878.08 271.818 1876.17 251.761 1873.51 C 232.109 1871.09 176.769 1867.25 161.964 1855.78 C 159.564 1853.92 157.478 1851.66 156.438 1848.76 C 148.882 1827.69 151.964 1771.29 151.877 1745.8 L 149.902 1453.03 L 150.1 1371.81 C 150.248 1357.54 152.54 1341.03 150.052 1327.07 C 144.422 1295.49 102.023 1298.32 95.5581 1235.1 C 92.5442 1205.63 96.2475 1168.87 115.798 1145.24 C 135.162 1121.83 163.782 1111.16 193.291 1108.39 z"/>
<path transform="translate(0,0)" fill="rgb(254,254,254)" d="M 326.093 656.498 C 346.147 655.008 366.882 656.003 387.017 655.999 L 496.608 655.992 L 843.989 655.811 L 843.974 676.823 C 836.224 687.468 828.904 698.197 823.054 710.026 C 799.211 758.238 791.598 819.156 782.331 871.754 L 779.448 886.156 C 723.352 884.607 657.674 893.397 601.808 900.326 C 596.329 882.084 568.201 762.483 560.189 756.531 C 553.034 751.216 520.941 759.837 511.993 761.668 C 511.973 751.594 513.347 727.843 507.256 719.978 C 505.66 717.917 501.487 717.057 499.037 716.639 C 491.11 715.286 450.467 715.458 445.265 720.212 C 440.396 724.661 440.342 733.928 439.947 740.048 C 425.312 740.073 410.632 739.088 396.039 738.076 C 395.907 731.168 396.32 723.025 390.934 717.847 C 384.485 711.647 336.782 715.166 325.836 715.361 C 325.605 695.74 325.691 676.116 326.093 656.498 z"/>
<path transform="translate(0,0)" fill="rgb(254,254,254)" d="M 442.104 1025.54 C 447.844 1030.16 480.636 1202.83 481.788 1220.08 C 484.099 1254.67 467.096 1301.05 483.2 1331.92 C 432.868 1346.71 367.634 1369.02 326.023 1400.88 C 326.55 1344.01 328.447 1286.01 324.889 1229.23 C 321.714 1201.53 315.748 1174.29 300.254 1150.64 C 283.167 1123.99 256.011 1105.41 224.986 1099.13 C 188.151 1091.57 155.832 1102.45 125.235 1122.73 L 126.544 1121.19 C 137.908 1107.74 151.964 1096.82 167.805 1089.13 C 190.525 1078.02 215.318 1071.7 239.626 1065.11 C 285.011 1052.6 331.033 1042.52 377.493 1034.92 C 398.861 1031.26 420.477 1027.17 442.104 1025.54 z"/>
<path transform="translate(0,0)" fill="rgb(254,254,254)" d="M 324.033 250.029 L 675.757 249.986 C 732.062 249.953 788.44 249.08 844.736 249.722 L 844.993 307.6 C 833.115 303.857 815.555 294.782 803.214 298.496 C 797.579 300.191 795.564 304.02 792.814 308.908 C 778.362 303.963 751.928 292.238 737.32 295.176 C 733.552 297.584 731.303 301.996 729.455 305.954 C 722.114 321.679 717.242 339.518 711.527 355.957 L 678.021 452.221 L 653.728 521.823 C 649.066 535.115 643.676 548.515 640.134 562.131 C 638.967 566.615 636.642 574.464 638.525 578.786 C 641.804 586.315 657.285 588.798 664.505 591.233 C 645.036 590.715 625.476 591.191 605.998 591.283 L 606.09 449.686 C 606.313 422.676 608.261 395.022 606.752 368.093 C 606.441 362.541 605.641 357.324 603.455 352.169 C 595.853 345.386 554.886 347.974 543.171 347.954 C 542.853 342.248 543.289 332.859 539.262 328.374 C 532.989 321.388 480.363 323.423 468.268 323.132 C 468.433 317.529 469.229 310.888 467.858 305.437 C 467.074 302.324 465.147 298.397 461.957 297.106 C 454.069 293.914 407.424 295.346 399.056 298.745 C 393.788 304.701 393.599 313.022 392.473 320.583 C 369.782 319.995 347.079 319.99 324.388 320.568 C 323.994 297.057 323.876 273.542 324.033 250.029 z"/>
<path transform="translate(0,0)" fill="rgb(254,254,254)" d="M 1047.26 1436.09 C 1048.84 1435.68 1049.12 1435.92 1050.65 1436.32 C 1085.72 1479.13 1221.37 1474.74 1276.29 1487.03 C 1305.54 1493.58 1330.09 1512.25 1360.93 1516.37 C 1377.92 1518.64 1396.43 1515.99 1410.12 1505.01 C 1417.63 1499 1422.44 1491.01 1423.21 1481.33 C 1424.42 1466.01 1416.43 1452.3 1406.78 1441.18 C 1441.09 1447.98 1476.68 1450.08 1510.5 1459.06 C 1536.56 1465.98 1550.92 1479.5 1580.88 1484.1 C 1568.56 1492.44 1555.61 1500.62 1544.12 1510.07 C 1535.44 1517.22 1527.99 1526.78 1518.56 1532.86 C 1515.35 1534.93 1511.29 1535.77 1507.61 1536.69 C 1488.89 1540.85 1469.4 1542.12 1450.26 1542.02 C 1404.98 1541.78 1359.33 1537.37 1314.18 1534.05 C 1248.82 1529.52 1183.49 1524.58 1118.19 1519.23 L 978.212 1507.68 C 952.859 1505.5 926.282 1504.7 901.332 1499.92 C 907.87 1493.62 912.629 1486.7 913.803 1477.49 C 915.436 1464.66 909.141 1453.52 901.451 1443.88 C 949.781 1444.1 1000.25 1450.19 1047.26 1436.09 z"/>
<path transform="translate(0,0)" fill="rgb(254,254,254)" d="M 311.797 1437.7 C 346.263 1447.53 407.189 1455.25 443.741 1458.4 C 436.732 1519.03 450.907 1580.21 483.863 1631.58 C 489.145 1639.68 494.936 1647.44 501.203 1654.81 C 504.865 1659.08 509.47 1663.16 512.36 1667.98 C 509.978 1669.37 507.901 1668.44 505.235 1668.06 C 477.265 1665.39 449.236 1660.93 421.458 1656.71 C 394.823 1652.66 366.451 1649.23 340.772 1640.88 C 329.19 1637.12 315.27 1631.25 309.682 1619.72 C 306.47 1613.09 304.871 1605.83 303.919 1598.56 C 300.405 1571.77 300.384 1497.34 303.693 1470.6 C 305.106 1459.18 307.922 1448.51 311.797 1437.7 z"/>
<path transform="translate(0,0)" fill="rgb(254,254,254)" d="M 543.723 602.483 C 643.743 600.923 743.949 602.005 843.987 602.047 L 844.028 643.977 L 628.5 644.342 C 527.646 644.417 426.569 646.193 325.739 644.609 C 326.086 631.101 325.824 617.531 325.811 604.017 L 543.723 602.483 z"/>
<path transform="translate(0,0)" fill="rgb(254,254,254)" d="M 653.846 196.561 C 670.41 195.613 687.147 195.986 703.733 195.975 C 750.444 195.945 797.64 197.603 844.3 196.09 C 844.693 210.035 844.62 224.02 844.746 237.971 L 514.778 238.22 L 325.673 238.768 L 325.39 198.007 C 434.826 196.658 544.464 199.078 653.846 196.561 z"/>
<path transform="translate(0,0)" fill="rgb(254,254,254)" d="M 1429.41 1314.99 C 1469.79 1316.48 1510.31 1320.35 1550.57 1323.79 C 1603.06 1328.27 1661.24 1331.82 1711.84 1346.4 C 1727.92 1351.03 1743.49 1357.2 1756.2 1368.33 C 1739.44 1377.83 1722.88 1387.68 1706.53 1397.88 C 1682.34 1413.13 1657.79 1428.98 1634.93 1446.16 C 1634.29 1443.26 1633.65 1440.35 1632.84 1437.49 C 1628.76 1423.21 1618.86 1411.29 1606.64 1403.14 C 1592.2 1393.5 1574.45 1388.71 1558.09 1383.34 C 1525.26 1372.56 1481.65 1360.96 1452.09 1344.04 C 1439.62 1336.9 1433.08 1328.79 1429.41 1314.99 z"/>
<path transform="translate(0,0)" fill="rgb(254,254,254)" d="M 324.02 331.943 L 392.928 332.018 L 393.083 591.987 L 325.532 592.166 C 324.535 550.221 325.028 508.184 324.958 466.225 L 324.02 331.943 z"/>
<path transform="translate(0,0)" fill="rgb(254,254,254)" d="M 468.306 334 C 489.28 333.964 510.398 335.767 531.399 336.165 C 533.952 361.549 532.004 395.57 532.019 421.952 L 532.121 591.765 C 511.478 589.327 489.07 591.07 468.247 591.151 C 467.364 505.562 467.263 419.588 468.306 334 z"/>
<path transform="translate(0,0)" fill="rgb(254,254,254)" d="M 423.484 306.402 C 434.615 305.756 445.763 306.013 456.906 306.125 C 458.464 341.725 457.744 377.598 457.797 413.237 L 457.937 591.251 L 437.75 591.323 C 426.517 591.26 415.263 591.622 404.031 591.826 L 403.987 308.292 C 410.478 307.583 416.978 306.953 423.484 306.402 z"/>
<path transform="translate(0,0)" fill="rgb(254,254,254)" d="M 345.641 726.545 C 358.415 725.955 371.212 726.067 383.997 726.043 L 384.005 988.009 L 362.5 987.997 L 325.214 988.047 C 326.474 957.34 325.783 926.394 325.784 895.656 L 325.935 726.829 L 345.641 726.545 z"/>
<path transform="translate(0,0)" fill="rgb(254,254,254)" d="M 741.941 305.578 C 757.147 307.092 774.369 314.636 789.066 319.352 C 778.4 355.762 763.921 391.669 751.226 427.473 L 694.402 590.501 C 691.976 590.747 686.738 586.111 683.962 585.05 C 672.29 580.587 659.829 578.482 648.147 573.757 C 666.824 515.815 687.678 458.455 707.649 400.942 L 728.031 342.333 C 732.324 330.06 736.211 317.257 741.941 305.578 z"/>
<path transform="translate(0,0)" fill="rgb(254,254,254)" d="M 806.23 307.684 C 819.2 308.206 832.676 314.531 844.777 318.959 C 842.199 331.101 837.744 343.068 833.858 354.857 C 826.924 375.847 819.782 396.767 812.434 417.616 L 751.171 592.426 C 738.224 586.683 724.004 582.843 710.562 578.326 C 720.693 552.449 728.953 525.791 737.942 499.507 L 779.146 381.612 C 787.122 358.922 795.396 328.612 806.23 307.684 z"/>
<path transform="translate(0,0)" fill="rgb(254,254,254)" d="M 542.98 359.279 C 560.452 360.525 578.247 360.069 595.761 360.156 C 596.917 386.671 596.017 413.617 596.013 440.171 L 595.918 591.792 C 578.479 592.035 561.036 591.733 543.616 590.887 L 542.98 359.279 z"/>
<path transform="translate(0,0)" fill="rgb(254,254,254)" d="M 843.447 357.71 C 846.082 372.461 843.935 411.335 843.919 427.964 L 844.045 591.945 L 764.262 591.91 C 763.899 589.477 764.596 587.642 765.334 585.319 C 771.634 565.476 779.235 545.891 786.132 526.237 C 805.758 470.311 826.116 414.39 843.447 357.71 z"/>
<path transform="translate(0,0)" fill="rgb(254,254,254)" d="M 490.521 1341.07 C 493.508 1341.57 497.289 1343.73 500.163 1344.91 C 471.474 1373.07 452.462 1407.67 445.547 1447.38 C 410.932 1444.05 376.568 1438.42 342.227 1433.03 C 333.925 1431.58 325.897 1429.81 317.782 1427.53 C 342.587 1387.39 445.729 1354.11 490.521 1341.07 z"/>
<path transform="translate(0,0)" fill="rgb(254,254,254)" d="M 395.488 749.985 L 440.052 751.87 C 439.814 799.258 438.904 847.108 440.519 894.453 C 438.332 894.873 436.154 895.342 433.989 895.86 C 426.292 897.743 419.393 902.023 415.444 909.069 C 406.034 925.856 413.946 951.865 418.867 969.055 C 421.25 975.617 424.223 981.716 427.387 987.934 L 395.003 988.072 L 395.488 749.985 z"/>
<path transform="translate(0,0)" fill="rgb(254,254,254)" d="M 478.255 727.566 C 484.311 727.078 493.066 725.295 498.388 728.775 C 502.344 738.616 500.212 877.334 500.125 899.816 C 491.592 898.188 482.856 897.341 474.237 896.251 L 452.09 894.03 C 451.693 859.151 451.572 824.269 451.727 789.388 C 451.754 769.489 452.829 748.872 451.067 729.057 C 459.925 727.726 469.309 727.873 478.255 727.566 z"/>
<path transform="translate(0,0)" fill="rgb(254,254,254)" d="M 800.968 1424.14 C 806.859 1426.19 814.336 1426.59 820.544 1427.51 C 838.902 1430.23 858.354 1432.36 875.469 1439.94 C 885.773 1444.51 896.391 1451.83 900.309 1462.86 C 903.839 1472.81 901.624 1481.34 897.068 1490.31 C 892.808 1479.43 892 1461.7 881.635 1454.46 C 879.394 1454.3 878.184 1454.06 876.489 1455.94 C 875.699 1456.82 874.845 1458.32 875.203 1459.51 C 876.321 1463.25 880.289 1466.81 882.345 1470.21 C 886.39 1476.89 887.17 1487.66 888.357 1495.23 C 882.275 1497.12 873.933 1499.43 867.713 1497.44 C 862.275 1492.26 864.179 1480.73 861.963 1473.38 C 861.839 1472.97 861.703 1472.56 861.572 1472.15 C 859.371 1468.1 855.397 1461.97 850.688 1460.56 C 848.151 1459.8 847.381 1460.5 845.218 1461.66 C 843.537 1468.09 852.019 1474.45 854.121 1480.41 C 855.645 1484.73 855.159 1490.75 855.235 1495.32 C 836.637 1491.65 818.132 1487.53 799.737 1482.95 C 791.126 1480.87 781.886 1479.35 773.626 1476.17 C 759.015 1470.53 744.735 1462.09 730.771 1454.91 C 741.806 1450.06 753.683 1446.68 764.947 1442.31 C 777.687 1437.36 789.264 1431.1 800.968 1424.14 z"/>
<path transform="translate(0,0)" fill="rgb(254,254,254)" d="M 208.924 1879.9 C 225.631 1880.69 242.58 1883.46 259.191 1885.51 C 276.318 1887.64 293.764 1889.2 310.701 1892.53 C 308.947 1913.69 306.274 1935.02 305.807 1956.25 C 305.655 1957.7 305.378 1958.17 304.677 1959.4 C 303.836 1959.64 303.256 1959.85 302.416 1959.97 C 293.369 1961.36 227.118 1952.91 221.787 1947.96 C 213.651 1940.4 210.247 1892.12 208.924 1879.9 z"/>
<path transform="translate(0,0)" fill="rgb(254,254,254)" d="M 550.505 766.322 C 552.345 766.167 552.771 766.376 554.416 767.069 C 559.406 775.684 562.753 795.922 565.51 806.416 L 590.367 901.75 C 577.42 902.649 564.763 904.139 551.75 904.148 C 549.396 904.046 549.154 904.154 547.351 902.687 C 539.503 879.968 533.495 856.352 526.817 833.256 C 521.283 814.115 513.003 793.042 511.427 773.177 C 524.438 770.809 537.464 768.523 550.505 766.322 z"/>
<path transform="translate(0,0)" fill="rgb(254,254,254)" d="M 386.003 999.5 C 402.014 999.262 418.069 998.688 434.07 999.452 C 436.582 1004.74 438.348 1010.28 440.23 1015.81 C 416.621 1016.48 392.545 1021.75 369.262 1025.63 C 354.459 1028.06 339.705 1030.78 325.007 1033.79 L 325.128 999.898 C 345.421 999.971 365.713 999.838 386.003 999.5 z"/>
<path transform="translate(0,0)" fill="rgb(254,254,254)" d="M 322.265 1893.71 C 333.669 1894.26 345.375 1896.16 356.585 1898.24 C 354.132 1912.02 352.978 1935.8 341.938 1945.07 C 333.781 1949.59 324.366 1952.67 315.745 1956.3 C 317.507 1935.54 318.453 1914.19 322.265 1893.71 z"/>
<path transform="translate(0,0)" fill="rgb(254,254,254)" d="M 512.164 822.743 C 515.871 831.561 517.965 841.922 520.606 851.172 L 535.885 904.275 C 527.912 903.028 520.013 902.226 511.966 901.627 C 511.943 875.35 511.581 849.011 512.164 822.743 z"/>
<path transform="translate(0,0)" fill="rgb(254,254,254)" d="M 571.742 1407.82 C 571.527 1411.81 569.783 1416.06 568.794 1419.95 C 564.804 1435.66 564.975 1448.34 572.032 1463.17 C 564.888 1463.18 557.783 1462.8 550.651 1462.42 C 548.233 1462.18 546.594 1462.45 544.639 1460.9 C 544.533 1459.83 544.458 1459.5 544.497 1458.5 C 545.073 1443.54 561.076 1418.04 571.742 1407.82 z"/>
</svg>