<svg xmlns="http://www.w3.org/2000/svg" width="1365.333" height="1365.333" preserveAspectRatio="xMidYMid meet" version="1.0" viewBox="0 0 1024 1024"><g fill="#000" stroke="none"><path d="m128.3 262.3.7 262.4-5.8 1.3c-38.9 8.7-60.6 21.8-71.9 43.6-6.3 12.1-8.4 20.6-9 36.4-.9 23.2 3 33.7 17.1 46.5 4.8 4.4 8.9 9 9.5 10.8.8 2 1.1 40.2 1.2 119.6 0 64.1.4 121.8.8 128.1 1.3 19.1 4.4 23.4 19.4 26.1 3.6.7 7 1.5 7.5 1.8.4.3 1.8 7.5 3 15.8 2.9 19.7 3.8 22.3 8.2 24.5 4.3 2.1 41.1 7.2 45.4 6.3 1.7-.3 7.4-2.7 12.6-5.3 11-5.4 11.9-6.6 14.9-20.6 1.1-4.8 2.2-9 2.5-9.4.7-.6 17.5 1.4 233.6 27.3 6.9.8 40.6 4.8 75 9 34.4 4.1 75.6 9 91.5 10.9 16 2 36.9 4.4 46.5 5.6 9.6 1.1 27 3.1 38.5 4.5 11.6 1.4 34.5 4.1 51 6s41.3 4.9 55 6.6c19.2 2.5 30.1 3.3 47 3.6 13.7.3 21.6.1 21-.5-.5-.5-8.9-1.9-18.5-3-9.6-1.2-34.4-4.1-55-6.6s-70.1-8.4-110-13.1c-78.6-9.2-128.7-15.1-181-21.4-18.4-2.2-49-5.9-68-8.1s-66.2-7.9-105-12.5c-38.8-4.7-86.9-10.4-107-12.8l-36.5-4.3-.7-7.4c-.6-6.4.1-110 .7-110 .1 0 2.2.7 4.5 1.5 8.5 3 47.3 9.5 83.9 14l13.4 1.7 7.8 5.3c9.6 6.4 22 11.8 34.8 15.2 12.7 3.4 32.6 3.8 40.9.9 5-1.7 12.4-7.5 13.3-10.4.4-1 1.8-1.1 6.9-.3 17 2.7 150.3 16.5 217.5 22.5 96.4 8.7 110.3 9.7 129.5 9.8 16.3.1 25.7-1.1 32.7-4.2 4-1.8 4.2-1.8 5.8 0 4 4.4 19.5 8.5 43.5 11.5 24.6 3 214.6 19.5 224.5 19.5 2 0 2.5-.5 2.5-2.4 0-2.9 2.4-2.6-42.5-6.1-104.9-8.3-188.2-16.4-206-20-10.3-2.1-18.4-6-20.8-10.2-1-1.8-2.2-7.1-2.8-12.5-1.5-12.5-.5-57.3 1.4-65.4 1.8-8 4.6-15.7 6.6-18.2l1.6-2 9.1 2.3c12.7 3.3 30.1 4.8 128.9 11.5 24.5 1.7 116.5 7 120.7 7 3.4 0 3.8-.3 3.8-2.4 0-2.9-.6-3-32-4.6-43.7-2.4-169.1-10.8-195-13.1-16.2-1.4-31-4.1-31-5.7 0-2.3 7.8-8.8 24.9-20.7 11.1-7.7 27.4-19.1 36.4-25.3 20.5-14.4 45.9-30.2 56.2-35.2 16.9-8.2 35.9-11.7 67.5-12.7 17.2-.5 43.1.4 65.8 2.4l7.2.6v-3c0-3-.1-3-6.2-3.6-3.5-.3-18.3-1.2-32.9-1.8-36.3-1.7-64.1.1-84 5.4-3 .8-6.1 1.6-6.9 1.8-1.2.3-1.6-1-1.8-7.1-1-22.6 7.4-121.8 15.4-181.5 3-22.4 13.3-87.9 16.9-107.3 7.4-39.8 15-51.1 39-57.2 10-2.5 26.2-4 44.7-4h15.8v-6.3l-20.8.6c-37.6 1.2-53.4 5.2-65.2 16.6l-5 4.7-3-5.2c-2.7-4.8-7.2-8.9-13.6-12.2-13.4-7-58.7-12.2-137.9-15.8-29.1-1.3-51.1-1.5-115-1.1-74.4.5-93.6 1.1-130 3.7-28.5 2.1-62.9 7.4-74.5 11.5l-4 1.4V0h-6v319.9l-6.1 3.1c-3.4 1.7-8.3 4.6-10.8 6.4l-4.6 3.4.3-166.4L428 0h-6.3l.6 31.8c.3 17.4.3 38.1 0 45.9l-.6 14.2-2.9.6c-1.6.4-8.8.3-16.1-.1s-12.3-1-11.2-1.2c3.1-.6 4.5-2.2 4.5-5.1 0-1.4-7.3-21.4-16.2-44.4L363.6 0h-2.9q-2.85 0-2.4 1.2c.3.7 4.3 11.2 9 23.3s11.9 30.7 16.1 41.4 7.5 19.6 7.3 19.8c-.6.5-18.8 5.3-22.8 6l-3.5.5-10.2-26.3c-5.6-14.5-13.7-35.2-18-45.9-7.3-18.1-8-19.5-10.5-19.8-1.5-.2-2.7.1-2.7.5 0 .5 2.7 7.6 6 15.9 9.7 23.8 29.1 74.6 28.7 75-.1.2-10.4.4-22.7.4l-22.5.1-.3-46L312 0h-6.2l.8 46 .7 46H284V7.7c0-7.5 0-7.7-2.5-7.7H279v93h-27V0h-5v93h-22V72.2c0-11.5-.3-32.4-.7-46.5L223.7 0H219v93h-25V57.7c0-19.3-.3-40.3-.7-46.5-.6-10.9-.7-11.2-3-11.2H188v93.1l-12.7-.3-12.8-.3-.1-3c-.1-1.7-.2-22.5-.3-46.3L162 0h-5.5l.3 258.9.4 258.9-10.9 2.5c-5.9 1.4-10.9 2.4-10.9 2.4-.1-.2-1.3-447.5-1.4-507.5V0h-6.3zM422 108.5V119H163V99l68.8-.3c37.8-.1 96-.3 129.5-.5L422 98zm.1 27.2c.1 6 .3 12.1.4 13.8.1 1.6 0 3.3-.2 3.7s-3.6-.4-7.5-1.8c-9.6-3.2-14.1-3.2-16.5.2l-1.9 2.6-12.2-3.7c-14.6-4.4-16.6-4.2-19.2 1.8-1 2.3-9.6 26.5-19 53.7-9.5 27.2-19.4 55.8-22.1 63.5-5.1 14.5-5.9 19.5-3.5 21.4.7.6 3.8 2 6.7 3l5.4 1.8-14.7.2-14.8.1v-59.4c0-53.9-.2-59.5-1.6-60.7-1.2-1-5.9-1.6-15.8-1.9l-14.1-.5-.3-4.2c-.5-6.8-1.9-7.3-20.9-7.3H234v-5.2c0-8.4-.8-8.8-17.1-8.8-16.2 0-18.5.6-19.4 5.2-1.5 7.4.1 6.8-18.6 6.8H162v-35h260zm-193.3 89 .2 71.3h-27V154.1l2.8-.4c1.5-.2 7.4-.4 13.2-.3l10.5.1zm154.7-68.5c5.8 1.8 10.5 3.7 10.5 4.4 0 .6-4.8 14.6-10.6 31-5.8 16.5-11.6 33-12.9 36.9-1.3 3.8-6.7 19.4-12 34.5-5.4 15.1-9.9 28.5-10.2 29.7-.6 2.7-1.5 2.8-4.6.9-1.2-.8-5.8-2.4-10.2-3.6s-8.3-2.7-8.6-3.2c-.4-.6 2.3-9.4 5.8-19.7 3.6-10.2 10.4-30.1 15.3-44.1 14.7-42.5 23.1-66.4 24.1-68.2 1.3-2.3 1.2-2.3 13.4 1.4m30.7.4c4.5 1.5 7.8 3.1 7.8 3.9 0 .7-2.4 8.7-5.4 17.7-5.4 16.6-40.4 117-40.9 117.5-.6.6-19.7-6.2-19.7-7 0-1.7 42-123 45.5-131.5 1.7-3.9 2.7-4 12.7-.6M196 218.2c0 28.8.3 58 .7 65l.6 12.8h-34l-.6-48.2c-.4-26.5-.7-55.7-.7-65V166h34zm69.3-49.5c.4.2.7 29 .7 63.9v63.5l-15.7-.3-15.8-.3-.3-64.4-.2-64.4 15.2.8c8.4.4 15.6.9 16.1 1.2M422 237.5V296h-20c-11 0-20-.3-20-.8 0-.4 5.4-16 12-34.7 6.5-18.7 15.4-44.7 19.7-57.7 4.3-13.1 7.9-23.7 8.1-23.8.1 0 .2 26.3.2 58.5m-124.2.8.2 57.8-13-.2-13-.1V241c0-30.1-.3-56.2-.6-57.9l-.7-3.2 13.4.3 13.4.3zm58.7 56.7c.8 1.3-.5 1.3-2.5 0-1.3-.8-1.3-1 .2-1 .9 0 2 .4 2.3 1m65.5 16.5V322H163v-20l19.3-.3c10.5-.1 68.8-.3 129.5-.5L422 301zm330-4.5c51.8 1.8 111 6 136 9.5 33.5 4.8 44.5 15.4 37.6 36.1-4.3 13.2-5.4 18.8-15.6 81.9-7.2 44.6-10.9 74.3-16.5 131.5-4.9 50-5.6 60.8-6.2 87.2-.6 25.4-.7 26.8-2.5 27.4-1.3.4-2.9-.2-4.6-1.9-6.8-6.5-23.7-12.2-46.7-15.6-22.1-3.4-65.2-7.5-109.6-10.6l-9.6-.7-.6-22.2c-.7-27.2-2.5-36.7-11.3-56.9-3.4-7.8-3.4-8.6-.7-11.8 1.3-1.6 2-1.5 9.4.8 8.6 2.6 11.4 2.7 11.4.3 0-1-2.9-2.5-8.2-4.4l-8.2-2.8 2.1-4.1c1.1-2.3 2.8-6.4 3.8-9.2l1.7-5 5.9-.5c4.4-.4 5.9-.9 5.9-2 0-1-1.6-1.8-5-2.4l-5-.9.3-13.2c.5-14.4-1.1-25.4-4.9-34.2-2-4.6-2-5-.4-16.8 2.2-16 3.1-45.4 1.6-52.4-2.4-11.1-6-15.1-13.8-15.1-2.1 0-5.6.9-7.8 1.9-6.9 3.1-19.6 13.5-30.6 24.8-10.3 10.7-10.5 10.9-13.9 10.1-5.7-1.4-37.9-2.1-46-1l-7.5 1-9.5-9.3c-25.1-24.3-44.2-31.7-50.4-19.6-1.7 3.2-3.6 16-3.6 24.1 0 7.7 2.7 27.9 4.9 37.4l1.8 7.4-2.4 5.9c-4.7 11.5-6.6 21.8-6 33.7l.5 10.8-10.7-.7c-8.9-.5-10.9-.4-12 .8-.6.9-.8 1.7-.4 2 1.7 1.1 13 2.7 18.8 2.7h6.1l2.2 5.2c1.2 2.9 1.9 5.5 1.4 5.8-.4.4-5.9 1.7-12.2 3-11.4 2.3-14.5 3.4-13.4 5.1.8 1.3 6.6 1 18.7-1l10.9-1.8 2.3 3.6c1.2 2 2.1 3.9 1.9 4.2-1.4 2.5-56.4 1-56.4-1.6 0-.5-4.3-16.3-9.5-35-7.2-25.6-9.9-36.9-11-46.4-.9-6.9-2.1-14.5-2.7-17-3.6-14.9-13.6-23.4-25.2-21.6-2.2.4-10.7 2.9-18.7 5.6-13 4.4-20.6 5.9-22.1 4.4-.5-.6 4.9-30.6 8.8-48 6.6-30 14.7-47.6 27.2-58.6 16.7-14.6 46.6-22.2 104.2-26.3 49.9-3.6 162.8-5.5 216-3.6m-330 26.3c0 4.4-.6 6-3.6 10.2-7.4 10.4-13.1 24.4-17.8 44.1-2.2 9.5-10.6 52.4-10.6 54.6 0 .5-3.3.8-7.2.8-7 0-42.9 2.4-51.3 3.5-24.3 3-29.9 3.5-30.5 2.8-.4-.4-4-13.2-7.9-28.3-10.3-39.1-10.8-40.8-13.6-42.6-2.1-1.4-3.3-1.4-12.8.4l-10.4 1.9-.7-9.6c-.9-12.2-1.6-13.1-10.6-13.1-3.7 0-10.2.3-14.4.7-7.1.6-7.8.8-9.2 3.4-.7 1.5-1.4 3.9-1.4 5.4 0 2.4-.3 2.5-5.7 2.5-3.2 0-8.2-.3-11-.6-5.2-.7-5.3-.7-5.3-4.1 0-2.3-.8-4.2-2.6-6l-2.6-2.5-14.9.7-14.9.7V328h259zm-230 95.2V494h-29V363h29zm56.8-64.3c.9.9 1.2 11.9 1.2 43.5v42.2l-2.7-.4c-3-.5-19.2-2.5-20.5-2.5-.5 0-.8-18.7-.8-41.5v-41.4l9.3-.4c5-.1 9.9-.4 10.8-.5.8-.1 2 .3 2.7 1m-36.5 11.4 7.7.7v35.8c0 35.5 0 35.9-2 35.9-3.4 0-8 2.9-10 6.3-3.7 6.1-2 23.3 3.5 34.9l2.2 4.8h-16.5l.2-4.3c.1-2.3.3-29.1.4-59.5l.2-55.2h3.3c1.9 0 6.8.3 11 .6m74 41.3c4.8 18.3 8.6 33.6 8.3 33.8-.2.3-5.1.5-10.7.6l-10.3.2-8.8-30c-4.8-16.5-8.7-31.2-8.8-32.6 0-2.4.4-2.6 8.8-4.1 4.8-.8 9.6-1.5 10.7-1.4 1.8.1 3 4 10.8 33.5m417-10.1c4 4.4 4.9 26.5 2.1 53.5l-1.6 15.9 2.6 9.1c3.6 12.7 4.9 25.9 3.6 35.9-.5 4.5-1.1 8.2-1.3 8.4-.1.2-10.4.8-22.7 1.4-25.8 1.3-30.5 1.9-30.5 4 0 1.3 3.5 1.4 25.9 1.1l25.9-.4-.7 2.6c-.8 3.5-4.1 10.8-5.8 13-1.3 1.7-1.8 1.7-12.8-.7-20.1-4.2-32.1-5.9-33.3-4.7-2.3 2.3 2 3.8 20.8 7.6 10.5 2.1 19.4 4.1 19.8 4.5 1.3 1.2-8.1 9-13.9 11.6-4.1 1.8-5.4 2.9-5.2 4.2.6 2.8 6.8 2 12.8-1.7 2.9-1.8 5.3-3.1 5.5-2.9 1 1.1 4.6 9.3 6.3 14.5 6.2 17.9 8.2 32.4 8.2 57.8 0 9.3.5 18.6 1.2 21.2 2.6 10.3 12 15.5 53.6 29.7 15.6 5.3 30.4 10.7 33 12 7.9 4 14.2 12.3 14.2 18.6 0 4.1-1.6 7.4-2.3 5-3.1-10.1-6.6-15.5-8.8-13.3-.7.7-.5 2.3 1 5.1 1.1 2.2 2.3 5.8 2.7 8 .5 3.5.3 4.2-1.8 5.6-1.3.9-3.8 1.9-5.6 2.2l-3.2.6-.1-4.8c0-6.9-1.9-11.9-4.4-11.9-1.4 0-1.9.6-1.7 2 .1 1.1.5 4.8.9 8.2l.6 6.2-3.9-1.1c-2.2-.5-8.4-3.1-13.9-5.6-9.7-4.4-11-4.7-44.7-10.4-19.1-3.1-36-6.4-37.5-7.1-2.2-1.2-17.5-6.9-27.2-10.3-.9-.3 1.2-2.2 5.5-5 8-5.2 12.7-9.5 15.6-14.2 1.9-3.2 2-3.5.3-5-1.6-1.6-1.8-1.5-4.3 1.8-5.9 7.6-15.9 15.4-23.2 18-3.2 1.1-5.2.7-21-3.5-25.4-6.8-28.2-8.3-33.3-17.5-1.4-2.7-2-3-3.2-2-2.2 1.8-1.8 4.1 1.4 9.2 3.7 5.9 10.9 9.5 28.6 14.3 40.4 11.2 65.9 21.5 72.7 29.5 4.3 4.9 6.2 11.6 4.6 16.1-1.4 4-2.2 3.6-3.6-1.6-1.5-5.5-6.5-11.5-8.2-9.8-1 .9-.6 2.4 1.3 6.5 4.9 10.3 4.5 12.2-3.1 13.4l-4.2.7v-5.2c0-6.6-2.2-12.1-4.9-12.1-3 0-3.3 1.4-1.1 6.1 1.1 2.4 2 5.9 2 7.6 0 2.8-.4 3.3-2.3 3.3-4.3 0-14.1-3.1-25.3-7.9-13.2-5.8-16.1-6.4-41.9-9.1-59.3-6.1-80.7-12.3-86.1-24.9-1.2-2.6-1.9-9-2.5-22.6-1.3-28.9-2.2-33.7-6.4-32.1-1.5.5-1.6 1.3-1 4.9.3 2.3 1.3 14.1 2 26.2s1.6 23 2 24.1c.9 2.8 0 3-14.8 5-9.7 1.3-17.6 1.5-38.2 1.1-23.1-.5-26.6-.8-31.2-2.6-2.8-1.1-10-3-16-4.1-5.9-1.2-11.4-2.3-12.1-2.6-.9-.3 0-1.9 2.8-5.2 15.8-17.8 20.1-43.4 10.5-62.9-3.2-6.4-9.1-13.3-11.5-13.3-2.3 0-1.7 2.3 2 7.6 5.6 8 8.1 15.4 8.7 25.4 1.1 18.8-7.9 36.7-24.1 47.9-9.4 6.4-13.2 8.3-26.7 12.9l-11.5 4-3.7-2c-4.5-2.3-7.2-2-7.2.7 0 1.5 3.2 3.7 14.1 9.5 27.6 14.8 36.5 21.3 42.1 30.7 2.8 4.9 3.4 11.5 1.3 15.3-1.3 2.4-1.4 2.3-2.6-3.4-1.2-6.2-4.6-10.8-6.4-9-.7.7-.6 2.4.5 5.3 3.3 9.4 1.5 14-5.8 14.8l-4.7.6v-6.7c0-7.2-2-13.6-4.3-13.6s-2.5.9-1.1 5.7c.8 2.5 1.4 6.6 1.4 9 0 3.4-.4 4.3-1.7 4.3-3.7 0-12.2-5-22.3-13.1-13.4-10.7-20.1-14.9-40.7-25.5-26.4-13.5-28.4-15.3-29.1-25.7-.3-4.9.2-7.8 2.3-13.7 3.8-10.9 4-11.9 2.1-12.6-2.9-1.1-6.3.5-11.9 5.6-21.4 19.5-22.7 65-2.8 95.2 11.4 17.2 22.7 24 48.7 29.3 15.4 3.2 22.1 6 25.9 10.9 6.3 8.3 3.6 17.1-6.5 21.4-5 2.1-6.7 2.2-19 1.9-15-.5-25-2.9-38.5-9.1-39-18-64-62.1-62.2-109.6.8-20.2 5.3-34.7 15.5-49.8 5.3-7.7 17.8-19.3 26.1-24.1 6.8-3.9 18.6-8.8 17.9-7.4-3.9 9-4.5 13.3-1.8 13.3.5 0 3-4 5.4-8.8 21-41.9 55.2-69.9 106.2-87.1 30.3-10.3 55.1-14.3 88.4-14.5 23.2-.1 51 1.1 51 2.3 0 .3-1 2.9-2.1 5.7-1.2 2.9-1.9 5.9-1.6 6.8 1.4 3.6 3.8 1.4 8.2-7.4 2.5-5 4.9-9 5.3-9 .5 0 2.1 1.4 3.8 3.1 9.9 10.5 31 21 49.2 24.5 14.6 2.8 38.4 1.1 45-3.2 2-1.3 2.2-1.8 1.1-2.9-1.2-1.2-2.5-1.1-8.4.1-11.3 2.4-29.1 2-40.6-.9-21.7-5.6-38.9-16.2-49.1-30.2l-2.9-4 10.3-2c7.6-1.5 10.3-2.4 10.3-3.5 0-1.7-4.5-1.9-16.6-.7l-7.7.8-1-2.8c-.5-1.5-1.3-3.6-1.7-4.6-.6-1.5 0-1.7 5.6-1.6 3.5 0 9.6.4 13.4.8 7.6.9 9.2.6 7.5-1.4-.6-.7-6.9-2-15-3l-13.9-1.8-1.2-5.6c-1.9-9-.6-21 3.6-34.1l3.7-11.4-2.6-14.7c-3.3-18.2-4.3-35-2.7-44.4.7-3.8 1.7-7.5 2.3-8.2 4.3-5.2 23.4 5.8 43.5 25.1l9.3 8.9 8.8-1.2c11.2-1.4 22.8-1.4 38.8 0l12.6 1.1 10.2-9.9c23.9-23.5 36.7-31.3 41.9-25.5m-435.7 44.9c-.1.1-2.7-.1-5.9-.4l-5.7-.6.1-19.6v-19.6l5.8 20c3.2 11 5.8 20.1 5.7 20.2m178.3-11.2c7.4 3.8 10.3 10.9 12.7 31 1.8 15.9 1.2 13 9.5 41.5 3.7 12.9 7.9 27.6 9.2 32.7l2.5 9.1-2.1.6c-1.2.3-4.5.6-7.4.6-6.8 0-26.1 2.5-39.3 5.1-22.2 4.3-51.5 14.1-69.2 23-29.4 14.9-52.2 36-70 64.9-1.1 1.8-3.1 3-6.6 3.9-6.5 1.6-18.3 7.3-24.5 11.7l-4.8 3.5-4.5-2c-3.3-1.5-4.9-2.9-5.9-5.5-1.7-4.1-1.9-13.7-.5-24.6 1.7-12.4 1.3-29.4-1-42.2-3.6-20.6-12.1-61.9-15.5-75.6-2.3-8.9-5.2-17.2-8.9-25-3.7-7.9-6-14.6-7.2-20.5-2.2-11.3-1.4-15.5 3.6-17.9 4.8-2.4 10.9-2.3 35.1.8 23.1 2.9 26.8 2.9 59.1-1.2 30.1-3.7 53.9-5.4 76.3-5.4l20-.1 14.5-4.8c15.5-5.2 20.4-6 24.9-3.6m-227.3 63c.7 1.9 1.4 3.6 1.4 3.8s-3 .7-6.6 1.1c-6.9.7-47 7.3-49.1 8.1-1 .3-1.3-1.7-1.3-8V500h54.1zm5.3 18.7c3.2 13.8 14.8 72 16.2 81.5 1.1 7 1 11.5-.6 29.1-1.4 16.7-1.5 21.7-.6 25.7.7 2.8 1.3 5.6 1.4 6.2.1.8-5.5 3.2-14.6 6.3-24.9 8.5-51 20.4-59.5 27.1l-2.7 2.1-.6-45.4c-.6-48.4-.8-51.2-6.2-66-4.7-12.9-13.3-24-24.1-31-18.3-11.9-44.9-12.2-62.9-.8-6.1 3.8-6.8 3.8-3.1-.1 4.5-4.9 16.7-12.5 25.2-15.8 8.9-3.4 38.9-11.7 57.7-16 19.1-4.3 61.9-11.8 68.6-12l3.6-.1zM113.4 556c22.8 5.8 37.7 23.9 42.7 52 .7 4.1 1.3 23.3 1.5 51.5l.3 44.9-2.7 4.6c-8.4 14.1-8.7 16.3-8.7 58.5 0 39.9.4 42.9 6.7 50l2.9 3.4-.1 59.2c0 32.6-.3 59.5-.5 59.8-.6.6-42.4-4.5-57.2-7-14.7-2.4-17.9-3.8-20-8.6-1.5-3.3-1.8-10.9-2.4-58.8-.4-30.3-.8-88.5-.9-129.5-.1-85.8 1-77.2-11-87.3-12.1-10.3-16.4-20.7-16.3-40.2 0-12.2 2.5-23.8 6.8-31.1 3.5-6 12.6-13.9 20.1-17.4 12.5-6 25.7-7.4 38.8-4m650.1 105c71.8 6 97.5 10.7 110.5 20.1l4.2 3-8.9 5.1c-4.8 2.8-18.6 11.5-30.5 19.4C823 719 817 722.5 817 721.2c0-3.5-4.9-11.8-9.2-15.9-6.4-5.8-8.9-6.9-37.8-16.6-42.5-14.2-51.6-19-54.5-28.5-.6-2.1-.4-2.2 5.7-2.2 3.5 0 22.5 1.4 42.3 3m-518.9 17.3c-9.4 10.5-18.2 27.5-20.9 40.2-1 5.2-1.2 5.3-4.1 4.9-1.7-.2-8.5-1.1-15.1-1.9-17.7-2.3-42.8-6.5-44.5-7.5-1.2-.7-.1-2.2 5.4-7.5 5.6-5.5 9.1-7.7 20-13 14.9-7.2 31.9-14 48.5-19.5 9.1-3 12-3.6 13.8-2.7 2.2 1 2.1 1.1-3.1 7m39.9 31.2c-1.9 6.1-1.9 13.6-.1 18 .8 1.9 1.1 3.7.6 4-.4.3-3.5.2-6.9-.1-6.9-.8-6.8-.5-2.9-11 1.7-4.8 9.6-17 10.4-16.2.2.2-.3 2.6-1.1 5.3m133.3 5.5c14.5 2.4 22 5 26.9 9.3 5.8 5.1 8.1 13.8 4.9 18.2-1.3 1.8-1.5 1.6-2.5-2.5-2.6-10-5.7-14.4-8.6-12-1.3 1-1.1 1.7 1 4.8 2.6 3.8 5.3 13.7 4.1 14.9-.4.4-3 .7-5.9.8h-5.2l-.6-5.8c-.9-7.8-6.1-14.9-8.9-12.1-.8.8-.4 2.2 1.4 4.9 1.4 2.1 2.6 4.5 2.6 5.4s.3 2.7.7 4c.6 2.4.5 2.4-3.9 1.8-2.5-.4-11.9-2.4-20.9-4.5-13.2-3.2-18.5-5-26.8-9.2-7.7-3.8-10.1-5.4-9-6.1.9-.4 5.9-2.4 11.2-4.3 5.4-1.9 12.5-5 16-6.9 4-2.3 7.1-3.4 8.7-3.1 1.4.2 8 1.3 14.8 2.4m110.3 5.9c9.1 9.2 32.8 14.4 90.4 20.1 17.5 1.7 22.2 2.8 35.5 8.5 16.6 7.1 22.8 8.8 32 8.7 16.6-.1 27.2-9.4 25.3-22.1-.6-3.9-3.6-10.6-6.1-13.4-.8-.9-1.2-1.7-.9-1.7 2 0 40.5 6.3 46.7 7.6 4.1.9 12.2 3.8 18 6.4s12.8 5.3 15.6 6l5.2 1.3-9.2 6.5c-5 3.5-11.8 9-15.2 12.2-6.6 6.3-8.7 7.2-21.9 9.1-8.3 1.2-34.7.7-59.4-1.1-6.9-.5-25.6-1.8-41.6-3-63.8-4.6-183.9-14.4-189.3-15.6l-2.3-.5 2.5-3c4.7-5.5 4.4-15.1-.6-22.1l-2.1-3 17.4.7c18.7.8 40.9-.5 49.4-2.9 7.1-1.9 7.3-1.9 10.6 1.3M176.4 723c9.4 1.5 23.4 3.6 31.2 4.6l14.1 1.7-.5 10.2c-1.4 31.3 9.7 64.4 29.4 87.8 6.1 7.2 6.3 7.6 3.7 7.2-1.5-.3-14.3-2.1-28.3-4-34.7-4.9-54-8.8-61.7-12.6-12.2-5.9-13.7-12.6-13-56.7.3-22.7.8-29.9 2.1-34.6 2-7.3 2.4-7.9 4.4-7.1.9.3 9.3 1.9 18.6 3.5m117.2 16.7c1.8 1.3 11.4 6.6 21.5 11.9 19.8 10.3 29.6 16.5 42.9 27 4.7 3.7 11.4 8.1 15 9.8 5.9 2.8 7.4 3.1 16.1 3.1 8.9 0 9.9-.2 14.5-3 6.6-4.1 9.4-9.2 9.4-17 0-7.4-2.2-12.3-8.4-19.3-5.1-5.5-5.1-5.7-1.3-4.3 8.1 3.1 27.7 6.2 53.2 8.5 43.9 4 120.2 10.3 164 13.5 22 1.7 47.2 3.6 56 4.2 17.8 1.4 63.9 1.8 72.6.7l5.6-.8-1.8 3.8c-3.1 6.2-5.8 18.6-7 32.5-1.4 16-.6 48.5 1.5 57.2 1.7 7.1 1.9 6.8-8.3 9.1-6.4 1.4-11.4 1.6-33.5 1.1-14.4-.3-36.4-1.5-49.1-2.6-12.6-1.1-36-3.2-52-4.6-65.1-5.6-155.1-14.6-206.2-20.5-18.8-2.2-34.3-4-34.6-4-.2 0-.7-1.7-1.1-3.9-.9-5.8-6.3-13-12.2-16.3-3.3-1.8-10.4-4-21-6.3-20.6-4.5-28.2-8.1-37.3-17.2-8.1-8.4-13.2-17-17.1-29-3.3-10.4-5.4-25.1-4.4-32.3l.6-4.7 9.7.5c8.1.4 10.1.9 12.7 2.9M130.9 943c12.9 1.6 23.6 3.1 23.8 3.4.3.2-.1 7.9-.8 17l-1.3 16.6h-3.1c-3.8 0-25.3-2.6-32.6-4-2.9-.6-5.9-1.7-6.6-2.6-1.2-1.6-3.8-15.2-5.2-26.7-.6-5.8-.5-6.7.8-6.7.9 0 12.1 1.3 25 3m44.9 5.7c1.2.3 2.2 1.1 2.2 1.8 0 4-4.4 19.5-5.9 20.9-1.8 1.6-13.3 6.7-13.9 6.1-.4-.4 1.6-22.4 2.5-27.4l.6-3.3 6.1.6c3.3.4 7.1 1 8.4 1.3"/><path d="M688.5 419.2c-12.9 12.1-22.4 26.1-21.1 31.2.4 1.5 2.6 3.8 5.4 5.7 2.6 1.8 7.1 5.2 10 7.7 5.1 4.3 8.2 5 8.2 1.8 0-1.8-10.4-11.3-14.7-13.4-2.2-1.1-3.3-2.3-3.3-3.8 0-3.7 9.8-17.5 18.6-26.2 7.9-7.7 9.3-10.2 5.9-10.2-.7 0-4.7 3.2-9 7.2m-147-5.2c-.4.6 3.4 5 8.3 9.8 9.1 8.9 14.2 15.5 16.8 21.7 1.4 3.4 1.3 3.6-1.3 5.7-14.7 12.5-16.2 14.3-14 16.5 1.4 1.4 2.1 1.1 6.9-3.4 2.9-2.7 7.4-6.6 10.1-8.7 3.9-3.1 4.7-4.3 4.7-7 0-6.4-12.6-23.5-23.4-31.6-5.5-4.1-7-4.7-8.1-3m16.7 91.2c-1.9 1.9-1.4 4.2 1.6 7.1 3.8 3.7 9.3 5.7 15.4 5.7 8.7 0 16.2-5 12.7-8.6-1.5-1.4-1.9-1.4-5 .5-6 3.7-14.7 2.2-19.8-3.3-2.8-2.9-3.2-3.1-4.9-1.4m102.7 2.4c-3.7 4.4-13.8 5.8-20.3 2.8-6.4-3.1-8.9.8-3.3 4.9 3.3 2.5 13.3 3.4 19.4 1.8 5.2-1.4 11-7.5 9.2-9.7-1.5-1.8-3.3-1.8-5 .2m-62.8 20.3c-1.3.3-3 1.5-3.7 2.6-1.7 2.7.1 7.9 4.9 13.7 4 4.9 4.9 9.6 2.1 11.9-2.5 2.1-8.1 1.4-12-1.6-4.3-3.3-7.5-2.8-5.2.8 4.3 6.4 14.7 8.9 20.1 4.7 2.1-1.7 2.6-1.8 3.7-.5 2.2 2.6 9.6 4.8 14.2 4.1 7.4-1.1 13.7-6.1 11-8.8-.7-.7-2-.4-4.2 1.2-8.1 5.7-20 2.2-20-6 0-1.1 1.6-3.5 3.6-5.2 3.8-3.4 7.4-9.5 7.4-12.7 0-3.5-3.8-5.1-12-5-4.1.1-8.6.4-9.9.8m14.9 6.7c0 1.7-5.3 7.4-6.9 7.4-.6 0-2.2-1.7-3.5-3.7-3.1-4.5-2.3-5.3 5.2-5.3 4.1 0 5.2.3 5.2 1.6"/></g></svg>