<svg xmlns="http://www.w3.org/2000/svg" width="1365.333" height="1365.333" preserveAspectRatio="xMidYMid meet" version="1.0" viewBox="0 0 1024 1024"><g fill="#000" stroke="none"><path d="M265 91.7c-31.2 2.2-55.1 8.3-79.5 20.4-31.3 15.5-51.7 34.9-73.3 69.4-2.1 3.4-9.9 19.9-10.6 22.5-.4 1.4-1.1 3.4-1.6 4.5C95.6 219 91.6 238 90 256c-1.4 16-1.3 476.9 0 499 .6 9.1 2 20.9 3.1 26.2 1.9 9.8 8.4 30.8 11.1 36.3 9.4 18.8 13 25.3 18.5 32.7 27.3 36.4 63.5 58.7 109.6 67.6l14.2 2.7h539l11.8-2.3c15.1-2.9 35.6-9.6 47.7-15.7 24.9-12.5 47.2-32.2 62.8-55.5 5-7.4 13.5-23.5 16.5-31 .5-1.4 1.5-3.7 2.3-5.1 2.1-4 6.3-19.3 8.6-31.4l2.2-11 .4-255.5c.2-187.5 0-258.6-.8-267-1.1-10.4-6-32.9-9-40.5-5.2-13.4-13.3-28.9-20.8-39.5-10.8-15.3-33.6-36.9-47.2-44.9-9.3-5.4-19.8-11.1-20.6-11.1-.5 0-3.1-1.2-5.9-2.5-2.7-1.4-5.7-2.5-6.5-2.5-.9 0-2-.4-2.5-.9-2.5-2.2-24.3-8-40.5-10.7-9.8-1.7-26.7-1.8-262.5-1.9-138.6-.1-254 0-256.5.2m518 2.7c16.2 2.7 38 8.5 40.5 10.7.5.5 1.6.9 2.5.9.8 0 3.8 1.1 6.5 2.5 2.8 1.3 5.4 2.5 5.9 2.5.8 0 11.3 5.7 20.6 11.1 13.6 8 36.4 29.6 47.2 44.9 7.5 10.6 15.6 26.1 20.8 39.5 3 7.6 7.9 30.1 9 40.5.8 8.4 1 79.2.8 266l-.4 254.5-2.2 11c-2.3 12.1-6.5 27.4-8.6 31.4-.8 1.4-1.8 3.7-2.3 5.1-3 7.5-11.5 23.6-16.5 31-15.6 23.3-37.9 43-62.8 55.5-12.1 6.1-32.6 12.8-47.7 15.7l-11.8 2.3h-537l-14.2-2.7c-46.1-8.9-82.3-31.2-109.6-67.6-5.5-7.4-9.1-13.9-18.5-32.7-2.7-5.5-9.2-26.5-11.1-36.3-1.1-5.3-2.5-17.1-3.1-26.2-1.3-22.1-1.4-481 0-497 1.6-18 5.6-37 10-47.5.5-1.1 1.2-3.1 1.6-4.5.7-2.6 8.5-19.1 10.6-22.5 21.6-34.5 42-53.9 73.3-69.4 24.4-12.1 48.4-18.2 79.5-20.4 2.5-.2 117.5-.3 255.5-.2 234.4.1 251.7.2 261.5 1.9"/><path d="m627.9 164.9-2.3 1.8.2 95.4c.2 52.5.2 95.8.2 96.4s9.7 1 27 1h27V262l-.1-97.5 26.7-.3c23.8-.2 26.9-.1 28.6 1.4 2 1.9 2.6.6.6-1.4-1.5-1.5-56.8-1.7-56.8-.2 0 .6-.9.6-2.6 0-1.4-.6-12.4-1-24.4-1-19.8 0-22 .2-24.1 1.9m48.9.7 2.2 1.5v191.4l-25.9-.2-26-.1-.2-95.3-.3-95.2 2.3-1.8c2.1-1.7 4.3-1.9 24-1.9 18 0 22 .3 23.9 1.6M262.5 450.2c-2.2 2.6-2.5 3.7-2 6.7 1.8 9.7 8.7 13.4 26 13.9 7.2.2 13.8-.1 16.3-.7 12.2-3.3 17.2-17.5 7.7-22-2.8-1.3-3.3-1.2-8.8 1.8-4.1 2.3-7.8 3.5-11.8 3.8-5.4.5-6.7.2-13.3-3.1-4.1-2-8.3-3.6-9.4-3.6s-3.2 1.4-4.7 3.2m12.4 1c5.7 2.9 7.6 3.3 14.3 3.3 6.8-.1 8.2-.4 12.9-3.4 5.9-3.6 8.4-3.4 11.4 1.3 2.2 3.4.6 8.4-4 12.5-5.1 4.4-9.5 5.4-23.1 4.9-13.2-.4-18.4-2.2-22.2-7.6-3.7-5.1-3.8-8-.6-11.3 1.5-1.6 3.2-2.9 3.7-2.9s3.9 1.5 7.6 3.2M371 449c-4.4 4.4-3.8 10.5 1.8 16.1 4.7 4.7 9.2 5.9 21.9 5.9 13.2 0 19.5-1.4 23.9-5.2 6.5-5.7 8-11.5 4.3-16.2-2.8-3.5-6.5-3.4-14.2.6-5.3 2.8-7.2 3.3-13.2 3.3-6.2 0-7.6-.4-12.1-3.3-5.8-3.7-9.5-4.1-12.4-1.2m10.9 2c8.4 5.3 20.1 5.1 29.3-.7 2.1-1.3 4.9-2.3 6.2-2.3 2.9 0 6.6 4.2 6.6 7.5 0 2.7-6.2 10-10.4 12.2-4.1 2.2-26.6 3.1-32 1.3-6.5-2.1-12.6-8.8-12.6-13.8 0-2.4 4.4-7.2 6.6-7.2 1 0 3.8 1.3 6.3 3M332 512.7c-4.7 3.2-6.5 3.8-12 4.1-5.7.3-7.2 0-12.4-2.7-6.6-3.5-8.2-3.7-11.4-1.5-1.7 1.2-2.2 2.5-2.2 5.9 0 8.4 7.8 14.4 21.9 16.5 8.7 1.4 14.7.3 21.5-4 4-2.6 4.6-2.7 5.8-1.3 1.9 2.4 8.6 5.1 14.3 5.8 10.3 1.3 26-4 30-10.1 2.8-4.4 3.1-9.8.6-12.3-2.9-2.9-6.1-2.6-12.8.9-8.8 4.7-16.3 4.1-25.7-2.4-5.7-3.9-10.7-3.6-17.6 1.1m17.9.8c8.9 5.6 18.7 5.9 27.9.8 4.3-2.4 5.3-2.6 7.5-1.6 6.3 2.9 3.7 11.5-5.1 16.9-5.9 3.6-17.1 5.9-23.4 4.9-4.9-.8-10.8-3.6-12.7-5.9-1.8-2.1-2-2.1-8.5 1.8-3.2 1.9-7.4 3.7-9.5 4.1-4.9.8-16.4-1.1-21.1-3.5-9.1-4.6-13-14-7.4-17.7 2.5-1.6 2.8-1.6 7.8 1.3 4.5 2.6 6 2.9 13.6 2.9 8.2 0 8.7-.1 14-3.8 6.9-4.7 10-4.7 16.9-.2"/></g></svg>