<svg version="1.1" xmlns="http://www.w3.org/2000/svg" xmlns:xlink="http://www.w3.org/1999/xlink" width="600" height="600" viewBox="0,0,600,600"><g fill="none" fill-rule="nonzero" stroke="none" stroke-width="1" stroke-linecap="butt" stroke-linejoin="miter" stroke-miterlimit="10" stroke-dasharray="" stroke-dashoffset="0" font-family="none" font-weight="none" font-size="none" text-anchor="none"><g><path d="M112.40423,133.66135c0.6139,-0.01354 1.23379,-0.14348 1.84134,-0.05436c1.59532,0.23402 4.8001,1.15487 6.12874,2.1471c2.20341,1.6455 4.14094,3.62035 6.17631,5.46967c0.44333,0.40281 0.85063,0.84411 1.257,1.28418c2.37962,2.57696 4.74952,5.16301 7.10037,7.76625c1.40443,1.5552 2.77366,3.14183 4.1651,4.70867c1.82469,2.0547 3.6568,4.1028 5.48326,6.15592c0.38179,0.42918 0.77222,0.85098 1.1415,1.29098c0.86073,1.02558 1.69918,2.06966 2.54798,3.10514c0.46936,0.57258 0.94355,1.14125 1.40649,1.71904c0.56722,0.70793 1.63577,2.3815 2.67028,2.67708c1.07901,0.30829 3.12079,-0.41803 4.07677,-0.67946c0.75838,-0.20739 1.518,-0.41026 2.2762,-0.61831c0.84307,-0.23134 1.66797,-0.54072 2.5276,-0.69985c13.04522,-2.41478 16.19141,-3.38168 29.51581,-2.45286c3.53589,0.24648 7.03468,0.95048 10.49004,1.74027c3.45375,0.78943 6.79544,2.00722 10.19957,2.98878c0.56274,0.16226 1.12363,0.34056 1.70035,0.4425c0.30256,0.05348 0.61431,0.02623 0.92152,0.02091c0.49439,-0.00856 1.02939,0.1364 1.48208,-0.06253c0.7268,-0.31939 1.58004,-1.90068 1.99762,-2.42568c2.36129,-2.96878 4.76888,-5.90053 7.17511,-8.833c0.37978,-0.46283 0.78806,-0.90152 1.18226,-1.35213c1.07796,-1.23219 2.15514,-2.46507 3.23424,-3.69627c0.79407,-0.90599 2.91483,-3.30502 3.48564,-3.96806c0.10037,-0.11659 3.30191,-3.87649 4.27381,-5.03481c0.69451,-0.82772 1.31957,-1.71839 2.07915,-2.48683c2.54601,-2.5757 5.11599,-5.13425 7.8274,-7.53523c0.58746,-0.5202 2.60086,-1.30492 3.39731,-1.35892c1.80775,-0.12257 3.67789,-0.43945 5.43569,0c1.96528,0.49132 3.71255,1.65272 5.43569,2.71785c0.63251,0.39097 1.08805,1.02118 1.55257,1.60183c1.71318,2.14148 1.94465,3.77282 2.40529,6.82689c0.25868,1.71503 0.23246,3.46147 0.30236,5.19448c0.02866,0.7106 -0.00679,1.42234 -0.00679,2.13351c0,0.75874 0.00535,1.51746 0.00679,2.2762c0.008,4.21493 0.01661,8.42986 0.02718,12.64478c0.02972,11.85661 0.06487,23.71321 0.09512,35.56982c0.01498,5.87099 -0.03972,11.35176 0.29217,17.34241c0.11131,2.00922 0.37,4.01239 0.72363,5.99338c0.36093,2.02192 1.01112,3.98313 1.41668,5.99657c0.64939,3.22401 1.40444,6.4395 1.74707,9.71036c0.34322,3.27648 0.22006,6.58521 0.30491,9.87852c0.032,1.24193 -0.10987,5.49943 -0.03397,5.77542c0.10149,0.36907 0.76552,-0.00626 1.14829,-0.00679c9.29956,-0.01305 18.59913,-0.02329 27.89869,-0.03397c8.85565,-0.01018 17.7113,-0.01716 26.56695,-0.02718c1.64656,-0.00186 3.29323,-0.02529 4.93969,-0.00679c8.83779,0.09928 17.67528,0.22499 26.51259,0.36011c4.98385,0.07621 12.86558,0.93469 15.99792,1.54323c4.48968,0.87224 8.9535,2.04752 13.19854,3.74978c4.74258,1.90178 9.19413,4.47785 13.63255,7.0095c2.20945,1.26026 4.24849,2.80503 6.27324,4.34463c4.38287,3.33269 7.4641,6.16403 11.11493,10.26518c5.28074,5.9321 8.28737,10.82494 12.3765,18.27189c1.80327,3.28404 4.99484,11.63838 5.94784,15.28279c1.3848,5.29573 1.83388,10.83838 3.57821,16.0268c0.22824,0.67888 1.35892,0.90595 2.03838,0.67946c0.42973,-0.14324 -0.31091,-1.0295 0,-1.35892c0.54031,-0.57249 1.44503,-0.62502 2.16748,-0.93766c0.43942,-0.19016 0.8718,-0.39747 1.31816,-0.57075c1.0127,-0.39313 2.05241,-0.7159 3.05758,-1.12791c0.5817,-0.23844 1.18201,-0.46187 1.6978,-0.8213c0.91281,-0.63609 2.61715,-2.64594 3.30983,-3.33701c0.35446,-0.35363 0.76946,-0.64242 1.12791,-0.99201c0.89243,-0.87041 1.81753,-1.71435 2.62272,-2.66604c1.94126,-2.29446 3.25868,-4.63213 4.35025,-7.46728c0.58863,-1.52885 1.27085,-3.08451 1.37081,-4.71971c0.14816,-2.42371 -0.65018,-4.82844 -0.63869,-7.25665c0.0024,-0.50644 0.90595,-0.90595 0.67946,-1.35892c-0.20258,-0.40515 -1.03299,0.31457 -1.35892,0c-0.41665,-0.40212 -0.25988,-1.12858 -0.39409,-1.69186c-0.17608,-0.73903 -0.35948,-1.4763 -0.53677,-2.21504c-0.17602,-0.73343 -0.27139,-1.49047 -0.52319,-2.20146c-0.57243,-1.61636 -1.43778,-3.12449 -1.94326,-4.76303c-0.15741,-0.51024 -0.00885,-2.86162 0,-3.39731c0.01122,-0.67937 0.25235,-1.40752 0,-2.03838c-0.23791,-0.59478 -1.18011,-0.74378 -1.35892,-1.35892c-0.79469,-2.73389 -1.12503,-5.58705 -1.48123,-8.41173c-0.07601,-0.60276 0.06711,-1.2179 0.19195,-1.81246c0.14362,-0.684 0.55964,-1.309 0.60982,-2.00611c0.04257,-0.59146 -0.28763,-1.15552 -0.33973,-1.74622c-0.26154,-2.96502 -0.43127,-6.19873 0.33973,-9.12517c0.25805,-0.97946 0.97428,-1.78084 1.35892,-2.71785c0.39655,-0.96603 0.5906,-2.00648 0.97842,-2.97604c0.97217,-2.43042 1.7227,-4.98885 3.09834,-7.21588c0.23805,-0.38538 0.99788,0.27356 1.35892,0c0.3143,-0.23814 0.0775,-0.78885 0.18345,-1.16867c0.14752,-0.52883 0.31746,-1.05831 0.5733,-1.54408c0.96695,-1.83599 4.04897,-4.79054 4.92015,-5.55035c3.26972,-2.85174 4.37624,-3.27924 7.92847,-4.93459c1.83029,-0.85292 3.31531,-1.51292 5.41956,-1.75046c2.01782,-0.22779 4.05837,-0.2839 6.08798,-0.21913c4.68003,0.14936 5.877,0.14035 9.55323,2.19636c2.39442,1.33913 4.59426,3.19171 6.47697,5.16646c1.02022,1.0701 2.11475,2.11908 2.83845,3.40835c2.01455,3.58893 2.1081,7.90957 1.54238,11.87019c-0.20055,1.40404 -0.98385,2.66763 -1.62901,3.93069c-1.21813,2.38479 -2.5565,4.33279 -4.51332,6.13724c-0.8325,0.76767 -1.68371,1.55597 -2.69067,2.07406c-4.39617,2.26185 -8.45611,0.99078 -7.47408,6.88295c0.07447,0.44681 1.19092,-0.42067 1.35892,0c2.04009,5.10835 3.48369,10.44121 4.93034,15.74822c0.71803,2.63406 1.19559,5.33517 1.55459,8.04164c0.90941,6.85612 0.82456,12.62239 -0.40715,19.58017c-0.66074,3.73242 -1.53653,7.46262 -2.93188,10.98689c-1.32934,3.35757 -3.62992,6.25296 -5.18429,9.51246c-0.19498,0.40886 -0.32817,1.04669 0,1.35892c0.33808,0.32166 0.93308,-0.02082 1.39969,-0.02718c2.28173,-0.0311 4.56347,-0.06233 6.8453,-0.0852c2.62717,-0.02633 6.43961,-0.06633 9.17271,0.00159c2.6394,0.06559 4.68139,0.18786 7.35049,0.79067c4.31635,0.97483 7.31224,2.42727 11.2195,4.89934c4.31622,2.73081 6.80927,4.80346 9.72394,8.75996c1.08345,1.47072 2.13403,2.99205 2.89705,4.65176c2.27592,4.9505 3.32947,9.467 3.83896,14.87341c0.19954,2.11743 0.04475,4.2534 0.06115,6.38014c0.02659,3.4493 0.01649,6.8988 0.02038,10.3482c0.00643,5.70294 0.0009,11.4059 0.00679,17.10884c0.01091,10.55657 0.03582,21.11313 0.04077,31.66971c0.0012,2.54798 -0.0035,5.09596 0,7.64394c0.00502,3.65375 0.15207,4.84993 -0.59878,9.52945c-0.38641,2.40822 -0.86358,4.82544 -1.6978,7.11736c-1.18651,3.25979 -4.52814,8.5375 -6.91692,11.04125c-1.7613,1.84607 -3.7483,3.48387 -5.82638,4.96432c-4.15543,2.96038 -7.11966,4.51544 -11.95598,5.52063c-1.82773,0.37988 -3.70134,0.51283 -5.56394,0.63784c-2.59114,0.17391 -5.30063,-0.49283 -7.78663,0.2582c-0.66566,0.2011 0.02189,1.39059 0.02718,2.08595c0.02807,3.68947 0.04624,7.37902 0.08154,11.06843c0.00601,0.62844 0.06113,5.84732 0.04204,6.86214c-0.05106,2.71485 -0.00337,4.27202 -0.59623,6.80141c-0.24426,1.04211 -0.40284,2.13768 -0.91345,3.07839c-1.16869,2.1531 -2.49263,4.24641 -4.07677,6.11515c-0.85382,1.00722 -2.03314,1.69665 -3.14676,2.40614c-4.10281,2.61392 -6.9563,3.0854 -12.48086,3.02955c-1.71934,-0.01738 -3.36607,-0.74764 -4.98385,-1.33005c-1.62126,-0.58365 -3.25282,-1.21792 -4.69848,-2.15559c-2.64982,-1.7187 -5.62343,-5.03781 -6.62475,-8.06521c-1.04821,-3.16916 -1.45564,-11.59688 -1.48972,-14.86152c-0.05231,-5.01151 5.13722,-14.80294 0.1308,-15.03479c-108.14498,-5.00825 -216.79347,-7.6652 -324.78265,0c-7.68456,0.54546 -0.1542,15.41573 -0.67946,23.10169c-0.10267,1.50235 -0.7866,2.90725 -1.19702,4.35609c-0.44009,1.55355 -1.12452,4.06216 -2.03042,5.367c-0.95697,1.3784 -4.75492,5.13536 -6.28502,5.90452c-4.13059,2.07641 -7.36879,2.45652 -11.86934,2.28044c-1.91518,-0.07493 -3.88836,-0.08946 -5.70833,-0.6905c-2.22016,-0.7332 -4.26856,-1.95554 -6.21707,-3.24783c-0.92994,-0.61675 -1.62229,-1.54255 -2.31951,-2.41379c-2.14203,-2.67667 -2.69818,-4.43922 -3.4729,-8.05841c-0.38389,-1.79338 -0.56339,-3.63022 -0.66927,-5.46117c-0.16739,-2.89463 -0.09994,-5.79807 -0.14948,-8.69711c-0.02067,-1.20944 -0.04464,-2.41882 -0.06115,-3.62832c-0.04011,-2.93749 0.3155,-5.90564 -0.10871,-8.81262c-0.05693,-0.39012 -0.78817,-0.02296 -1.18226,-0.03397c-0.62292,-0.0174 -5.75596,-0.15203 -6.76086,-0.20384c-1.30383,-0.06722 -2.61107,-0.10831 -3.90839,-0.2548c-1.49239,-0.16852 -3.86238,-0.72589 -5.21657,-1.33514c-1.67303,-0.7527 -3.30962,-1.59542 -4.88363,-2.53779c-1.57533,-0.94316 -3.04199,-2.05722 -4.5473,-3.10854c-0.73092,-0.51048 -1.53651,-0.93978 -2.16069,-1.57635c-1.39841,-1.42618 -2.70932,-2.94922 -3.87038,-4.57448c-2.57519,-3.60476 -4.28952,-7.30502 -5.52232,-11.57463c-0.6353,-2.20025 -1.1199,-4.45728 -1.35638,-6.73516c-0.2833,-2.72888 -0.14257,-5.48527 -0.19704,-8.22828c-0.01574,-0.79256 -0.01146,-1.5854 -0.01359,-2.37812c-0.00693,-2.57515 -0.00765,-5.15032 -0.01359,-7.72548c-0.0129,-5.58743 -0.01685,-11.17488 -0.02718,-16.76232c-0.00802,-4.34177 -0.02425,-8.68352 -0.03397,-13.02528c-0.0084,-3.75289 -0.01186,-7.50579 -0.02038,-11.25868c-0.00507,-2.2309 -0.04546,-4.46193 -0.02038,-6.6927c0.07315,-6.50767 -0.12457,-12.43318 0.92205,-18.75633c0.34445,-2.08102 0.72004,-4.17031 1.36094,-6.17992c1.09462,-3.43227 2.84556,-5.93137 4.83777,-8.87377c0.37535,-0.55438 0.75434,-1.1125 1.20944,-1.60353c3.22726,-3.48205 5.53586,-5.93281 9.75027,-8.24866c4.12369,-2.266 8.86133,-3.72724 13.5009,-4.4165c1.61369,-0.23973 3.26127,-0.1006 4.89212,-0.14269c0.47551,-0.01227 0.95123,-0.01452 1.42687,-0.02038c1.54463,-0.01905 3.08929,-0.03567 4.63393,-0.05436c6.78108,-0.08205 13.56201,-0.17539 20.34308,-0.2582c5.64858,-0.06898 11.49109,1.26505 16.94577,-0.20384c1.52716,-0.41125 0.67841,-3.08952 1.01919,-4.63393c0.09076,-0.41134 0.95233,-4.19629 1.01495,-4.80804c0.07158,-0.69931 0.2696,-1.45793 0.00425,-2.10888c-0.21042,-0.51617 -2.62432,-1.89718 -2.92848,-2.12671c-3.81024,-2.87535 -7.57767,-5.80719 -11.34021,-8.74467c-2.2536,-1.75942 -5.76503,-5.23159 -7.10515,-6.67943c-1.65787,-1.79112 -3.27878,-3.63274 -4.67926,-5.63157c-2.82444,-4.03117 -5.48686,-8.18082 -7.97433,-12.4282c-1.91633,-3.27214 -5.18241,-10.75303 -6.22981,-14.40544c-1.44335,-5.03311 -2.71383,-10.12383 -3.69712,-15.26665c-0.8495,-4.44307 -1.03666,-12.1792 -0.86801,-16.68078c0.10408,-2.77817 0.33602,-5.55362 0.675,-8.313c0.90585,-7.37374 1.62567,-7.62545 2.05219,-14.36743c0.12928,-2.04355 0.06712,-4.09477 0.08408,-6.14233c0.00653,-0.78816 -0.00781,-1.57636 -0.01359,-2.36453c-0.01234,-1.68281 -0.02937,-3.36558 -0.04077,-5.0484c-0.06931,-10.23718 -0.12951,-20.47443 -0.19025,-30.71166c-0.02755,-4.64297 -0.04685,-9.28599 -0.07474,-13.92896c-0.01061,-1.76662 -0.02943,-3.53318 -0.04077,-5.2998c-0.01584,-2.46643 -0.02155,-4.93293 -0.04077,-7.39934c-0.01455,-1.86818 -0.12501,-4.14275 0.09428,-5.9317c0.15075,-1.22976 0.24951,-2.51332 0.77544,-3.63512c0.87094,-1.85771 2.12726,-3.51613 3.34975,-5.16391c0.29401,-0.39629 0.7769,-0.60861 1.16188,-0.91727c1.37511,-1.10249 1.95976,-1.72558 3.83556,-2.53015c0.94631,-0.40589 4.20935,-0.85353 4.82757,-0.86716z" fill="#fd8315"/><path d="M139.41555,341.15262c0.15575,1.16971 -0.00167,2.36024 -0.02718,3.53999c-0.02368,1.09556 -0.18751,4.3918 -0.18537,5.65662c0.00218,1.283 -0.01303,2.56846 0.07835,3.84819c0.14765,2.06789 0.52334,4.19686 0.88789,6.24546c0.18351,1.03123 0.23162,2.09805 0.56446,3.09119c0.55378,1.65241 1.75082,3.08547 2.07915,4.797c0.07149,0.37264 -0.74713,0.13294 -1.12111,0.19704c-0.76062,0.13037 -5.28579,0.88536 -6.32653,1.10529c-1.42499,0.30113 -2.85698,0.58314 -4.25693,0.9849c-2.2639,0.64971 -4.5441,1.57397 -6.73396,2.46529c-1.10349,0.44914 -2.28418,0.74707 -3.30424,1.36263c-1.5858,0.95695 -3.05921,2.10318 -4.45557,3.32002c-2.9748,2.59236 -5.36632,5.46774 -7.32545,8.90689c-0.98681,1.73231 -1.92006,3.52794 -2.48768,5.43909c-0.47989,1.61578 -0.55462,3.33434 -0.61831,5.01867c-0.05693,1.50551 -0.08253,4.64946 0.62001,6.53642c0.17618,0.47319 0.30161,1.01785 0.67776,1.35468c1.20452,1.0786 2.5204,2.06578 3.96126,2.79938c1.08737,0.55362 2.32009,0.78084 3.51876,1.009c2.36055,0.44931 4.04605,0.35299 6.36061,0.35672c3.40182,0.00548 6.80368,0.017 10.20551,0.02038c15.65707,0.01556 31.3141,0.04052 46.97118,0.05436c22.16403,0.01959 44.32808,0.02087 66.49211,0.04077c37.08275,0.0333 74.16549,0.0743 111.24825,0.10192c10.5611,0.00787 21.12219,0.02018 31.68329,0.02718c3.27047,0.00217 6.54095,-0.00333 9.81143,0c4.17877,0.00426 8.6849,0.12476 12.73821,-0.42466c5.06216,-0.68617 8.86525,-2.42598 13.78797,-2.81637c0.74452,-0.05904 1.48513,0.16026 2.22863,0.23102c2.59896,0.24733 2.70336,0.04858 5.4909,1.15933c1.04174,0.4151 2.15809,0.77969 3.00237,1.51775c1.33179,1.16423 2.33596,2.66163 3.39731,4.07677c0.30386,0.40515 0.58559,0.86126 0.67946,1.35892c0.09544,0.506 0.12111,3.72995 0.1291,4.61354c0.03264,3.61016 0.05846,7.22045 0.08833,10.83062c0.08199,9.90883 0.16691,19.81764 0.2514,29.72645c0.07053,8.27131 -2.0367,16.85347 0.21063,24.81394c0.61535,2.17968 6.27558,2.2046 6.79462,0c2.22665,-9.45775 0.04475,-19.4326 0.06795,-29.1489c0.02514,-10.52939 0.05084,-21.05878 0.07474,-31.58817c0.00529,-2.33055 0.00659,-4.66111 0.01359,-6.99166c0.0091,-3.02958 0.10674,-4.79587 -0.32784,-8.3285c-0.25523,-2.07471 -0.52007,-4.17664 -1.18736,-6.15762c-0.64668,-1.91977 -1.55615,-3.77612 -2.71785,-5.43569c-0.4683,-0.66899 -1.7351,-2.11713 -2.03838,-1.35892c-1.01288,2.5322 -0.2311,5.46338 -0.67946,8.15354c-0.03723,0.22341 -0.61216,0.21626 -0.67946,0c-0.01309,-0.04206 -0.64502,-4.91466 -0.6285,-5.74145c0.02094,-1.04832 0.14215,-2.09409 0.28877,-3.13232c0.06345,-0.44929 0.41581,-0.87083 0.33973,-1.31816c-0.0537,-0.31577 -0.64542,-0.36097 -0.67946,-0.67946c-0.22366,-2.09227 -0.05231,-4.20807 -0.06795,-6.3122c-0.00475,-0.63868 0.00462,-1.27739 0.00679,-1.91608c0.01155,-3.39957 0.01744,-6.79915 0.02718,-10.19872c0.00966,-3.37013 -0.39096,-6.76714 0.03397,-10.11039c0.05255,-0.41342 0.83347,0.00485 1.25021,0.00679c0.55263,0.00258 1.10526,0.00451 1.65789,0.00679c0.54357,0.00225 1.08967,0.0592 1.63071,0.00679c9.23888,-0.89492 12.59759,-0.92698 21.34868,-4.26702c5.66706,-2.16296 10.70878,-5.48149 15.36263,-9.31542c1.88691,-1.55447 3.65911,-3.25951 5.28536,-5.08492c1.61989,-1.81827 2.57335,-4.23101 4.42414,-5.81364c0.50825,-0.43461 1.30958,0.30169 1.97723,0.33973c3.07459,0.17516 6.15556,0.21106 9.23388,0.29896c7.19509,0.20545 12.37961,-0.24169 19.35107,2.05197c2.42853,0.799 4.62511,2.20824 6.78527,3.57567c4.33542,2.7444 6.79697,4.78071 9.7197,8.75231c1.08236,1.47078 2.13101,2.99253 2.89366,4.65176c2.27201,4.94306 3.33842,9.47432 3.84575,14.87341c0.19918,2.11972 0.03795,4.25795 0.05436,6.38694c0.02732,3.54635 0.01613,6.57146 0.02038,10.34141c0.01578,13.98105 0.02006,27.96212 0.04077,41.94317c0.00338,2.28073 0.01252,4.56145 0.01359,6.84218c0.0012,2.54798 -0.0103,5.09596 -0.00679,7.64394c0.00103,0.74744 0.06675,1.49622 0.02038,2.24222c-0.3147,5.06368 -0.54924,9.56596 -2.31017,14.39779c-0.74558,2.04581 -1.85153,3.95362 -3.00832,5.79836c-2.84662,4.5395 -5.28944,7.03894 -9.73668,10.20721c-4.14722,2.95453 -7.12934,4.51648 -11.95767,5.52063c-1.82659,0.37988 -3.69906,0.51288 -5.56054,0.63784c-2.59114,0.17395 -5.30044,-0.49223 -7.78663,0.2582c-0.66569,0.20093 0.01509,1.39062 0.02038,2.08595c0.01962,2.57968 0.03537,5.15938 0.05436,7.73907c0.01771,2.40567 0.04833,4.81125 0.06446,7.21693c0.00665,0.99246 0.02684,1.98512 0.00869,2.97744c-0.04964,2.71414 -0.00103,4.26988 -0.59347,6.79865c-0.24414,1.04209 -0.40276,2.13761 -0.91335,3.07828c-1.16869,2.1531 -2.49258,4.24645 -4.07677,6.11515c-0.85462,1.00811 -2.03469,1.69856 -3.1493,2.40869c-4.09961,2.61188 -6.96135,3.08142 -12.47831,3.027c-1.71987,-0.01697 -3.36775,-0.74507 -4.9864,-1.32665c-1.62045,-0.58223 -3.25137,-1.21513 -4.69593,-2.15219c-2.65695,-1.72353 -5.62153,-5.03444 -6.62475,-8.072c-1.04866,-3.17515 -1.45559,-11.58897 -1.48972,-14.85898c-0.05232,-5.01236 5.13806,-14.80541 0.1308,-15.03733c-108.14494,-5.00909 -216.79347,-7.6652 -324.78265,0c-7.68456,0.54546 -0.1542,15.41573 -0.67946,23.10169c-0.10267,1.50235 -0.7866,2.90725 -1.19702,4.35609c-0.43978,1.55248 -1.1249,4.06349 -2.03042,5.367c-0.95233,1.37089 -4.76203,5.13872 -6.28502,5.90452c-4.13113,2.07724 -7.37127,2.45645 -11.87274,2.28044c-1.91631,-0.07493 -3.89064,-0.08927 -5.71172,-0.6905c-2.22023,-0.73301 -4.26871,-1.95532 -6.21707,-3.24783c-0.92821,-0.61576 -1.61828,-1.541 -2.31357,-2.41124c-2.13606,-2.67356 -2.70146,-4.44809 -3.4746,-8.05757c-0.38387,-1.79213 -0.56126,-3.62803 -0.66672,-5.45778c-0.16696,-2.89692 -0.09993,-5.8026 -0.14948,-8.7039c-0.02066,-1.20944 -0.04464,-2.41882 -0.06115,-3.62832c-0.04011,-2.93749 0.31582,-5.90569 -0.10871,-8.81262c-0.05696,-0.39005 -0.78821,-0.0167 -1.18226,-0.02718c-1.27673,-0.03394 -2.55347,-0.06756 -3.83007,-0.10607c-0.97703,-0.02947 -1.95462,-0.04743 -2.93079,-0.09787c-2.47531,-0.12791 -4.14185,-0.13717 -6.45361,-0.73148c-2.87692,-0.7396 -4.86129,-1.78869 -7.55752,-3.40293c-1.57473,-0.9428 -3.03899,-2.0591 -4.54475,-3.10854c-0.73183,-0.51005 -1.54282,-0.93276 -2.16748,-1.56956c-2.74753,-2.80091 -5.25524,-6.18504 -6.95089,-9.73668c-1.90985,-4.00028 -3.33364,-8.73582 -3.7914,-13.15438c-0.14932,-1.44128 -0.20079,-7.67702 -0.21063,-10.6064c-0.02743,-8.16264 -0.02568,-16.32511 -0.04077,-24.4878c-0.01496,-8.09466 -0.04277,-16.1893 -0.06115,-24.28396c-0.00507,-2.2309 -0.03935,-4.46194 -0.01359,-6.6927c0.07533,-6.52235 -0.12564,-12.4256 0.91918,-18.75633c0.34343,-2.0809 0.71601,-4.17063 1.35701,-6.17992c1.08802,-3.41049 2.86505,-5.95007 4.84456,-8.87377c1.48476,-2.19296 3.96256,-4.68491 5.70918,-6.16357c1.63105,-1.38082 3.37076,-2.65959 5.24374,-3.68863c4.11553,-2.26112 8.8779,-3.72804 13.5077,-4.4165c1.61366,-0.23995 3.26127,-0.1006 4.89212,-0.14269c0.47551,-0.01227 0.95123,-0.01452 1.42687,-0.02038c1.54463,-0.01905 3.08929,-0.03567 4.63393,-0.05436c6.77878,-0.08203 13.55753,-0.16685 20.33629,-0.2514c5.65085,-0.07049 17.56519,0.64628 17.63203,1.14829z" fill="#fec710"/><path d="M139.41555,485.87794c1.70482,-0.22228 3.438,-0.05928 5.15711,-0.08154c2.41868,-0.03132 4.83777,-0.00171 7.25665,0c1.33854,0.00095 2.67708,0 4.01562,0c21.84696,0 43.69391,0.01048 65.54087,0.02038c18.94792,0.00859 37.89584,0.00142 56.84376,0.00679c15.74766,0.00446 31.49531,0.01532 47.24297,0.02038c15.74765,0.00507 31.49531,0.00219 47.24297,0.00679c30.49424,0.00892 60.99192,-0.4314 91.48271,0.02718c0.50638,0.00762 0.62383,0.85555 0.67946,1.35892c0.18211,1.64787 0.02179,3.31576 0.02038,4.97366c-0.00126,1.48732 -0.07743,7.03216 -0.08833,7.86817c-0.03198,2.45341 -0.16071,5.71274 0.06115,8.25886c0.09662,1.10886 0.2682,2.21071 0.4529,3.30834c0.27068,1.60862 0.3348,3.28243 0.91281,4.80783c0.63986,1.68861 1.59118,3.26942 2.69067,4.70187c0.90823,1.18328 4.09092,3.21871 5.4221,3.7914c2.1298,0.91626 4.25277,1.97746 6.53642,2.37812c1.6284,0.28569 3.30884,-0.13669 4.94648,-0.36351c2.523,-0.34945 4.82845,-0.76313 7.07659,-1.8872c0.65274,-0.32637 1.2427,-0.76557 1.86512,-1.14659c0.57909,-0.35449 1.25863,-0.58053 1.73942,-1.05996c0.94219,-0.93953 1.74038,-2.02321 2.46899,-3.13656c0.73098,-1.11697 1.49805,-2.25387 1.89315,-3.52895c0.75459,-2.43525 1.22516,-4.96327 1.52284,-7.49531c0.30004,-2.55201 0.17343,-5.13626 0.26414,-7.70425c0.02225,-0.62973 0.05102,-1.25922 0.07474,-1.8889c0.00474,-0.12577 0.06142,-2.72461 0.19025,-3.04399c0.11982,-0.29704 0.36111,-0.64419 0.67946,-0.67946c2.03064,-0.22495 4.08576,-0.05584 6.12874,-0.07474c0.64999,-0.00601 1.30004,-0.00053 1.95005,0c2.13577,0.00174 4.27155,0.00412 6.40732,0.00679c9.3426,0.01171 18.6852,0.02139 28.02779,0.03397c7.79796,0.0105 15.6493,-0.87702 23.39386,0.03397c0.89975,0.10584 0.33528,1.87622 0,2.71785c-0.99741,2.50367 -2.45619,4.80692 -3.9034,7.08041c-4.26682,6.70293 -10.48345,13.24352 -15.80099,18.73913c-2.82253,2.91704 -9.14997,8.25263 -12.54116,10.49598c-4.54749,3.00827 -9.28386,5.72122 -13.95784,8.52894c-0.72704,0.43674 -1.47149,0.84867 -2.24222,1.20265c-2.65424,1.219 -5.30799,2.4469 -8.02699,3.51367c-2.72303,1.06835 -5.52192,1.93228 -8.28688,2.88686c-5.28815,1.82568 -9.64484,2.80249 -15.92478,3.84246c-13.87631,2.29794 -28.86774,1.69221 -42.63123,1.81066c-4.27592,0.0368 -8.55216,0.00679 -12.82824,0.00679c-36.01373,0 -72.02747,-0.02903 -108.04119,-0.04077c-21.02707,-0.00686 -42.05414,-0.0042 -63.08122,-0.00679c-16.13268,-0.00199 -32.26537,-0.00679 -48.39805,-0.00679c-19.74969,0 -39.49937,-0.00377 -59.24905,-0.02038c-3.86614,-0.00325 -7.73227,-0.01192 -11.59841,-0.01359c-5.915,-0.00255 -9.50005,0.09787 -16.31738,-0.38294c-4.02752,-0.28405 -8.0501,-0.70348 -12.0408,-1.31656c-8.09015,-1.24288 -15.8139,-3.10731 -23.52551,-5.8697c-3.37183,-1.20783 -6.65689,-2.65937 -9.8885,-4.20364c-6.42154,-3.06862 -12.48296,-6.66666 -18.2737,-10.80238c-2.91491,-2.08182 -5.66157,-4.38982 -8.47437,-6.60766c-0.42903,-0.33828 -0.84545,-0.69298 -1.25021,-1.05996c-0.95448,-0.8654 -2.08244,-1.58453 -2.82656,-2.63631c-0.26162,-0.36979 0.24173,-0.97584 0,-1.35892c-0.22378,-0.35465 -0.8182,-0.24212 -1.16188,-0.48242c-1.21013,-0.84611 -2.39443,-1.74212 -3.46865,-2.75522c-1.08284,-1.02123 -2.04278,-2.16919 -2.97944,-3.32596c-4.84418,-5.98255 -9.87939,-11.98016 -12.77388,-19.25594c-0.18721,-0.47057 0.855,-0.62907 1.35892,-0.67946c2.09608,-0.20961 4.21258,-0.06592 6.31899,-0.08833c0.66131,-0.00704 1.32269,0 1.98403,0c2.17428,0 4.34855,0.00134 6.52283,0c1.50388,-0.00093 3.00775,-0.00679 4.51163,-0.00679c10.31875,0 20.63751,0.01187 30.95627,0.00679c3.58076,-0.00176 7.16153,0 10.74229,0c1.55556,0 5.3478,-0.04805 6.23066,0.08833c0.31655,0.0489 0.61725,0.36526 0.67946,0.67946c0.21832,1.10271 0.08754,2.24655 0.1223,3.37013c0.02186,0.70648 0.03577,1.4132 0.04756,2.11992c0.02445,1.46531 -0.03425,2.93371 0.06115,4.39612c0.13639,2.09076 0.2424,4.19524 0.6336,6.25359c0.39086,2.05658 0.78195,4.16515 1.70375,6.04466c1.4642,2.98544 3.78493,4.93641 6.56615,6.50754c1.11861,0.63191 2.25427,1.32136 3.51027,1.59164c2.11146,0.45436 4.29594,0.55291 6.45573,0.55291c2.16148,0 4.37163,0.00137 6.46083,-0.55291c2.06655,-0.54827 4.03628,-1.51971 5.81619,-2.70426c3.75042,-2.49593 4.70782,-4.62373 6.08373,-8.75147c1.60166,-4.80499 1.29097,-5.6044 1.45829,-10.5996c0.08935,-2.66722 0.12197,-5.33605 0.18345,-8.00406c0.03638,-1.57867 0.07932,-3.15718 0.11551,-4.73585c0.01137,-0.49596 0.00832,-0.99229 0.02718,-1.48802c0.04456,-1.17135 -0.06789,-2.3636 0.16307,-3.51282c0.06311,-0.31402 0.36185,-0.63805 0.67946,-0.67946z" fill="#0365d2"/><path d="M114.24557,133.607c1.59532,0.23402 4.8001,1.15487 6.12874,2.1471c1.22601,0.91558 5.42857,4.58286 7.43331,6.75385c2.37962,2.57696 4.74952,5.16301 7.10037,7.76625c1.40443,1.5552 2.77366,3.14183 4.1651,4.70867c1.82469,2.0547 3.6568,4.1028 5.48326,6.15592c0.38179,0.42918 0.77222,0.85098 1.1415,1.29098c0.86073,1.02558 1.69918,2.06966 2.54798,3.10514c0.46936,0.57258 0.94355,1.14125 1.40649,1.71904c0.42268,0.52754 0.77282,1.11814 1.25021,1.59673c0.42003,0.4211 0.84819,0.91695 1.42007,1.08034c1.07901,0.30829 3.12079,-0.41803 4.07677,-0.67946c0.75838,-0.20739 1.518,-0.41026 2.2762,-0.61831c0.84307,-0.23134 1.66797,-0.54072 2.5276,-0.69985c13.04522,-2.41478 16.19141,-3.38168 29.51581,-2.45286c3.53589,0.24648 7.03468,0.95048 10.49004,1.74027c3.45375,0.78943 6.79544,2.00722 10.19957,2.98878c0.56274,0.16226 1.12363,0.34056 1.70035,0.4425c0.30256,0.05348 0.61431,0.02623 0.92152,0.02091c0.49439,-0.00856 1.02939,0.1364 1.48208,-0.06253c0.7268,-0.31939 1.58004,-1.90068 1.99762,-2.42568c2.36129,-2.96878 4.76888,-5.90053 7.17511,-8.833c0.37978,-0.46283 0.78806,-0.90152 1.18226,-1.35213c1.07796,-1.23219 2.15514,-2.46507 3.23424,-3.69627c0.79407,-0.90599 2.91483,-3.30502 3.48564,-3.96806c0.10037,-0.11659 3.30191,-3.87649 4.27381,-5.03481c0.69451,-0.82772 1.31957,-1.71839 2.07915,-2.48683c2.54601,-2.5757 5.11599,-5.13425 7.8274,-7.53523c0.58746,-0.5202 2.60086,-1.30492 3.39731,-1.35892c1.80775,-0.12257 3.67789,-0.43945 5.43569,0c1.96528,0.49132 3.71255,1.65272 5.43569,2.71785c0.63251,0.39097 1.08805,1.02118 1.55257,1.60183c1.71318,2.14148 1.94465,3.77282 2.40529,6.82689c0.25868,1.71503 0.23246,3.46147 0.30236,5.19448c0.02866,0.7106 -0.00679,1.42234 -0.00679,2.13351c0,0.75874 0.00535,1.51746 0.00679,2.2762c0.008,4.21493 0.01661,8.42986 0.02718,12.64478c0.01843,7.35177 0.0347,14.70355 0.05436,22.05532c0.01205,4.50483 0.02927,9.00966 0.04077,13.51449c0.00436,1.70771 -0.02198,3.41567 0.00679,5.12314c0.10764,6.38761 -0.09239,12.03906 1.009,18.20118c0.36087,2.01899 1.00592,3.97822 1.41668,5.98765c1.46723,7.17771 2.71408,12.67531 2.18787,20.0713c-0.5789,8.13636 -1.81005,15.9574 -4.26723,23.67807c-2.74216,8.6161 -5.55889,13.55006 -10.60533,22.06498c-1.38925,2.34409 -3.05903,4.51554 -4.74147,6.65894c-3.52673,4.49297 -4.9163,5.78887 -8.41375,9.30671c-2.5864,2.60148 -3.42697,3.46709 -7.1266,6.33736c-1.88484,1.46231 -3.79863,2.90736 -5.85876,4.11021c-7.73071,4.51374 -11.88565,6.7998 -19.65226,9.27656c-2.32973,0.74295 -4.67741,1.46771 -7.08116,1.91672c-4.84742,0.90547 -9.72544,1.7129 -14.63815,2.1403c-3.86388,0.33616 -13.69914,-0.28287 -17.51227,-0.96908c-9.06559,-1.63145 -16.13949,-2.85166 -24.11834,-6.44215c-2.26823,-1.0207 -4.4202,-2.28272 -6.61116,-3.46016c-2.30741,-1.24002 -6.68319,-4.36926 -7.71614,-5.1707c-1.92863,-1.49639 -3.68663,-3.20063 -5.53337,-4.797c-3.17694,-2.74624 -5.65091,-4.68732 -8.48372,-7.86116c-3.95298,-4.42886 -7.37187,-10.18836 -10.22186,-15.15221c-1.31022,-2.28202 -2.46833,-4.65227 -3.54806,-7.05196c-3.46624,-7.70367 -5.00947,-13.69106 -6.86808,-22.51141c-0.54131,-2.56885 -0.70869,-5.20624 -0.89243,-7.82506c-0.60953,-8.6874 0.11755,-13.88974 1.13704,-23.3962c0.124,-1.15624 0.53178,-2.26703 0.69985,-3.41769c0.29582,-2.02535 0.56127,-4.05881 0.6905,-6.10157c0.11427,-1.80629 0.08838,-6.06715 0.07049,-8.50686c-0.03189,-4.34854 -0.06139,-8.69709 -0.08833,-13.04566c-0.0469,-7.57147 -0.09776,-15.14292 -0.14269,-22.7144c-0.02755,-4.64297 -0.04685,-9.28599 -0.07474,-13.92896c-0.01061,-1.76662 -0.02943,-3.53318 -0.04077,-5.2998c-0.01584,-2.46643 -0.02155,-4.93293 -0.04077,-7.39934c-0.01455,-1.86818 -0.12501,-4.14275 0.09428,-5.9317c0.15075,-1.22976 0.24951,-2.51332 0.77544,-3.63512c0.87094,-1.85771 2.12726,-3.51613 3.34975,-5.16391c0.29401,-0.39629 0.7769,-0.60861 1.16188,-0.91727c1.37511,-1.10249 1.95976,-1.72558 3.83556,-2.53015c0.94631,-0.40589 6.38899,-0.96258 6.66892,-0.92152z" fill="#fec02d"/><path d="M308.0197,43.85335c0.30606,-0.04353 3.15416,-0.08069 3.3404,-0.08069c0.63876,0 1.27733,0.02383 1.91608,0.02718c0.65907,0.00345 1.31816,-0.00899 1.97723,-0.00679c1.37933,0.0046 2.75859,0.0236 4.13792,0.02718c2.11085,0.00548 4.22173,-0.00416 6.33258,0c1.34082,0.00264 2.68159,0.01732 4.02241,0.02038c0.6387,0.00146 1.27844,-0.04358 1.91608,-0.00679c2.37018,0.13674 4.76207,-0.31351 6.55001,1.47443c1.15402,1.15402 1.12052,2.40882 1.29692,3.92814c0.06121,0.52719 0.07453,2.22276 0.08238,2.5811c0.01882,0.85842 0.04462,1.71669 0.06115,2.57516c0.02089,1.08473 0.01731,2.16982 0.03397,3.25462c0.05304,3.45399 -3.14618,9.39395 0.16987,10.36179c11.30564,3.29973 23.63071,1.33618 35.332,0c0.00386,-0.00044 0.10138,-6.09117 0.11211,-6.80821c0.03397,-2.26935 0.05263,-4.53893 0.09173,-6.80821c0.01479,-0.8585 0.04434,-1.7167 0.06115,-2.57516c0.02918,-1.49027 -0.08318,-3.40444 0.41447,-4.87174c0.20302,-0.59859 0.49751,-1.19735 0.94445,-1.6443c2.20017,-2.20017 6.40548,-1.32446 8.77864,-1.41328c0.6903,-0.02583 1.38158,-0.0022 2.07236,0c1.445,0.0046 2.88997,0.0168 4.33497,0.02038c2.20824,0.00548 4.41651,0.00126 6.62475,0.00679c1.40423,0.00352 2.80843,0.01731 4.21266,0.02038c0.66814,0.00146 1.33628,-0.01031 2.00441,-0.00679c0.6229,0.00328 1.24564,0.02114 1.86852,0.02718c0.91125,0.00883 2.24248,-0.08842 3.13232,0.27178c0.54033,0.21873 1.00979,0.58791 1.47613,0.93766c0.44249,0.33187 1.02881,0.59023 1.24172,1.10073c0.46318,1.11063 0.56311,2.34642 0.69475,3.54254c0.09508,0.86389 0.09355,3.85496 0.10022,5.20892c0.0319,6.47528 0.05914,12.9505 0.08833,19.42581c0.08834,19.59795 0.18865,39.19587 0.27858,58.79381c0.06651,14.49518 -12.62302,36.72089 0.19704,43.48554c24.23769,12.78928 54.86053,1.66505 82.21485,0c2.08425,-0.12687 -2.82868,-3.08218 -4.07677,-4.75623c-0.45907,-0.61575 -0.70473,-1.36608 -1.0124,-2.06981c-0.15977,-0.36545 -1.65227,-4.32373 -1.72583,-4.52097c-0.15998,-0.42896 -0.30973,-0.86169 -0.46883,-1.29098c-0.43728,-1.17991 -2.79671,-7.5016 -3.20026,-8.54763c-2.22481,-5.76682 -4.47177,-11.52508 -6.71308,-17.2855c-0.21381,-0.54952 -0.43263,-1.09709 -0.65228,-1.6443c-3.39961,-8.46925 -6.80883,-16.93465 -10.20551,-25.40507c-3.64933,-9.10046 -7.29146,-18.2038 -10.93254,-27.30756c-0.2613,-0.65332 -0.51645,-1.30907 -0.77459,-1.96364c-0.9415,-2.38745 -1.89133,-4.77161 -2.82656,-7.16153c-0.07385,-0.18873 -1.79091,-4.46 -1.97469,-5.33462c-0.23393,-1.11329 -0.35458,-2.24936 -0.45099,-3.38287c-0.02507,-0.29476 0.07403,-2.48696 0.16987,-2.79938c0.20006,-0.65222 0.51022,-1.27163 0.86122,-1.85663c0.33252,-0.5542 0.63893,-1.18289 1.17717,-1.54068c4.25569,-2.82896 6.01295,-2.8348 10.95292,-4.15831c3.02504,-0.81046 5.28681,-1.50932 8.72174,-2.03923c2.25677,-0.34816 4.55292,-0.83135 6.82434,-0.59708c1.50201,0.15492 2.83923,1.04879 4.18548,1.73263c0.46703,0.23723 0.83532,0.63723 1.20689,1.00645c1.56565,1.55577 2.86297,4.47708 3.59945,6.02767c0.98776,2.07964 1.89812,4.53891 2.72209,6.78612c1.54618,4.21686 3.09861,8.43143 4.65431,12.64478c0.22835,0.61846 0.44801,1.24021 0.68626,1.85493c2.04931,5.28762 4.104,10.57319 6.17631,15.85184c2.67488,6.81353 5.3881,13.61196 8.06521,20.42462c0.85669,2.18009 1.67596,4.37473 2.5276,6.5568c1.83271,4.6958 3.66832,9.39046 5.50364,14.08524c0.31178,0.79754 0.6208,1.59617 0.93766,2.3917c1.47467,3.70251 2.95359,7.40334 4.43688,11.1024c0.218,0.54365 1.66184,4.06359 1.96003,4.8659c0.74335,2.00002 1.20108,3.06025 1.47401,5.08174c0.11456,0.8485 0.26289,1.7078 0.19428,2.56125c-0.12385,1.54063 -0.0641,3.19667 -0.76779,4.57278c-2.15668,4.21751 -6.55137,3.89629 -10.19192,6.11515c-0.60166,0.3667 1.40875,0.03635 2.11313,0.05436c2.57289,0.06579 5.14581,0.13071 7.71868,0.19704c2.71559,0.07002 5.43109,0.14347 8.14674,0.21063c1.28343,0.03174 4.42639,0.07697 5.12314,0.21743c0.31399,0.0633 0.64115,0.36146 0.67946,0.67946c0.22703,1.88457 0.064,3.79585 0.08833,5.69389c0.0153,1.19344 0,4.81248 0,5.35416c0,3.02585 0,6.05175 0,9.07761c0,1.44373 0.04879,4.86634 -0.08833,5.69389c-0.05236,0.31599 -0.36494,0.61889 -0.67946,0.67946c-1.58394,0.30506 -3.21544,0.26262 -4.82418,0.3805c-0.49317,0.03614 -0.98685,0.07077 -1.48123,0.08154c-5.01636,0.10928 -10.03309,0.20314 -15.05007,0.27858c-1.00776,0.01515 -2.01574,-0.00435 -3.0236,-0.00679c-2.73144,-0.00662 -5.46287,-0.01277 -8.19431,-0.02038c-8.74014,-0.02436 -17.48028,-0.05018 -26.22042,-0.07474c-19.4598,-0.05469 -38.91952,-0.11397 -58.37934,-0.16987c-25.65419,-0.07368 -51.30844,-0.13486 -76.96262,-0.21063c-13.32424,-0.03935 -26.6485,-0.07225 -39.97273,-0.11551c-4.93969,-0.01604 -9.87937,-0.03113 -14.81906,-0.04756c-0.04507,-0.00015 -3.4656,0.02706 -3.83216,-0.09512c-1.44684,-0.48228 -0.8938,-4.13359 -0.89689,-4.19907c-0.0715,-1.51675 -0.10704,-3.03499 -0.16307,-4.55239c-0.02777,-0.752 -0.06311,-1.50372 -0.08833,-2.25581c-0.07443,-2.21944 -0.14047,-4.43915 -0.21063,-6.65872c-0.0227,-0.71796 -0.05037,-1.43579 -0.06795,-2.15389c-0.0164,-0.6703 -0.02078,-1.34084 -0.03397,-2.01121c-0.00935,-0.47496 -0.13319,-2.75152 0.10192,-3.30898c0.31734,-0.75243 0.70141,-1.5541 1.35892,-2.03838c0.38003,-0.2799 3.58837,-0.33722 3.84575,-0.34653c0.76996,-0.02785 1.53997,-0.05482 2.31017,-0.07474c0.80618,-0.02085 1.61266,-0.02839 2.41888,-0.04756c0.81317,-0.01933 1.62612,-0.04758 2.43927,-0.06795c1.99077,-0.04985 4.05668,0.40082 5.97247,-0.14269c0.48721,-0.13822 -0.61757,-0.85628 -0.67946,-1.35892c-0.2032,-1.6503 -0.07438,-3.32471 -0.10192,-4.98725c-0.0087,-0.52538 -0.00523,-1.0509 -0.00679,-1.57635c-0.00523,-1.75527 -0.0083,-3.51055 -0.01359,-5.26583c-0.00377,-1.25248 -0.01055,-2.50494 -0.01359,-3.75742c-0.02963,-12.20086 -0.03805,-24.40172 -0.06115,-36.6026c-0.01457,-7.69604 -0.03774,-15.39207 -0.05436,-23.08811c-0.02771,-12.83729 -0.04248,-25.6746 -0.06795,-38.51188c-0.00243,-1.2253 -0.01167,-2.45058 -0.01359,-3.67589c-0.00262,-1.67374 0.00525,-3.34749 0,-5.02122c-0.00346,-1.10267 -0.06409,-1.8679 0.03907,-2.97095c0.0714,-0.76338 0.02088,-1.56482 0.29387,-2.28129c0.276,-0.72439 0.82371,-1.31756 1.30796,-1.92288c0.4248,-0.531 2.37015,-1.7784 2.86648,-1.84898z" fill="#079278"/><path d="M412.55912,44.2279c1.14245,-0.21433 2.32347,-0.07991 3.48564,-0.10192c0.75181,-0.01424 1.50387,-0.00462 2.25581,-0.00679c0.81762,-0.00236 1.63524,-0.00455 2.45286,-0.00679c2.58195,-0.00708 5.16391,-0.00831 7.74586,-0.01359c4.38253,-0.00895 8.76506,-0.01532 13.14758,-0.02718c0.81536,-0.00221 1.6307,-0.01241 2.44606,-0.01359c0.7542,-0.00109 1.5084,0.00679 2.26261,0.00679c0.66588,0 1.33243,-0.03715 1.99762,-0.00679c0.52794,0.02409 1.10762,-0.07426 1.57635,0.16987c0.56816,0.29592 1.10965,0.76881 1.35892,1.35892c0.26123,0.61841 0.06642,1.34158 0.0654,2.01291c-0.00124,0.81061 -0.04976,1.62047 -0.07219,2.43077c-0.03539,1.2782 -0.07301,2.55635 -0.10127,3.83472c-0.05589,2.52876 -0.11102,5.17372 0.08683,7.683c0.19763,2.50651 0.66385,5.08797 1.1159,7.57121c0.2276,1.25026 0.2629,2.55418 0.69912,3.74777c1.77019,4.84364 3.93993,9.53178 5.89773,14.30267c1.59352,3.8832 3.17771,7.77024 4.75623,11.65956c6.34073,15.623 9.61035,23.72912 15.79069,39.19135c1.61517,4.04091 6.79107,17.41091 6.85577,17.57767c1.17782,3.03593 2.34334,6.07662 3.50602,9.11837c0.52218,1.3661 1.04532,2.73184 1.56956,4.09715c0.30018,0.78178 0.49623,1.61252 0.90368,2.34414c0.83963,1.50765 1.81818,2.93648 2.81977,4.34176c0.48478,0.68017 2.4643,1.85001 1.63071,1.90249c-10.77532,0.67837 -21.59329,0.0216 -32.38993,0.03397c-9.37883,0.01075 -18.75767,0.01764 -28.13651,0.02718c-4.89439,0.00498 -9.78878,0.01029 -14.68317,0.01359c-1.49538,0.00101 -5.23307,0.02315 -6.3054,0.00679c-0.46052,-0.00702 -0.9473,0.07815 -1.37931,-0.08154c-0.30043,-0.11105 -0.63529,-0.36222 -0.67946,-0.67946c-0.22679,-1.62894 -0.07448,-3.28847 -0.10192,-4.93289c-0.0088,-0.52765 -0.00471,-1.05543 -0.00679,-1.58315c-0.00697,-1.76433 -0.01378,-3.52867 -0.02038,-5.29301c-0.01489,-3.97938 -0.03087,-7.95876 -0.04756,-11.93814c-0.05634,-13.43068 -0.10857,-26.86138 -0.16307,-40.29207c-0.07311,-18.01479 -0.14755,-36.02957 -0.21743,-54.04438c-0.00654,-1.68507 -0.01513,-3.37012 -0.02038,-5.05519c-0.00154,-0.49374 0.04428,-0.98947 0,-1.48123c-0.21639,-2.40288 -0.75016,-4.7831 -0.78138,-7.1955c-0.00415,-0.32027 0.36465,-0.6204 0.67946,-0.67946z" fill="#0365d2"/><path d="M491.37666,233.79769c4.39978,0.78643 6.28853,2.15524 9.63307,4.99065c1.40223,1.18877 2.85196,2.3726 3.95617,3.84236c1.07282,1.42798 2.14334,2.99124 2.49362,4.74264c0.57851,2.89253 0.54736,5.91453 0.22422,8.84659c-0.19427,1.76269 -2.87142,6.20301 -3.86614,7.55561c-1.01684,1.38269 -3.41111,3.79277 -4.96686,4.59316c-4.39711,2.26218 -8.4567,0.98043 -7.47408,6.87615c0.07447,0.44681 1.19105,-0.42072 1.35892,0c2.03848,5.10874 3.47961,10.44202 4.92525,15.74907c1.18589,4.35351 2.2602,11.80353 2.16833,16.31472c-0.1701,8.3531 -1.22603,14.33899 -3.9069,22.25237c-0.63323,1.86915 -1.63214,3.60065 -2.61848,5.30999c-0.98603,1.70882 -2.17511,3.29232 -3.28605,4.9227c-0.35153,0.51589 -0.70381,1.03335 -1.10073,1.5152c-1.97359,2.39589 -3.81379,4.91932 -6.00814,7.11481c-5.15137,5.15404 -10.03852,8.32251 -16.75637,11.34361c-6.48801,2.91774 -10.94124,4.15473 -17.69063,4.84031c-2.44495,0.24835 -4.92063,0.57655 -7.36536,0.32614c-1.00761,-0.10321 -2.62182,-0.3506 -2.71785,-1.35892c-0.85892,-9.01868 -0.85892,-18.15978 0,-27.17846c0.09603,-1.00832 2.00163,-0.64271 2.71785,-1.35892c0.3203,-0.3203 -0.31091,-1.0295 0,-1.35892c0.54031,-0.57249 1.44503,-0.62502 2.16748,-0.93766c0.43942,-0.19016 0.87189,-0.39724 1.31816,-0.57075c1.01051,-0.39289 2.04739,-0.71718 3.05078,-1.12791c0.58137,-0.23798 1.1829,-0.45756 1.69865,-0.8162c0.91383,-0.63545 2.62174,-2.64969 3.31577,-3.3421c0.35446,-0.35363 0.76958,-0.6423 1.12791,-0.99201c0.89171,-0.87029 1.81537,-1.7148 2.62017,-2.66604c1.95162,-2.30671 3.25037,-4.61183 4.35025,-7.46643c0.58841,-1.52715 1.27316,-3.08025 1.37336,-4.71376c0.1488,-2.42593 -0.65019,-4.83298 -0.63869,-7.26344c0.00239,-0.50644 0.90595,-0.90595 0.67946,-1.35892c-0.20258,-0.40515 -1.03175,0.31328 -1.35892,0c-0.41702,-0.39931 -0.26614,-1.12364 -0.40088,-1.68506c-0.17781,-0.74088 -0.35896,-1.48096 -0.53677,-2.22184c-0.17551,-0.73129 -0.27274,-1.48553 -0.52319,-2.19466c-0.57144,-1.61803 -1.4323,-3.12958 -1.93647,-4.76982c-0.157,-0.51078 -0.00879,-2.86467 0,-3.39731c0.01121,-0.67937 0.25235,-1.40752 0,-2.03838c-0.23791,-0.59478 -1.17972,-0.7439 -1.35892,-1.35892c-0.79655,-2.73376 -1.13155,-5.58669 -1.48802,-8.41173c-0.07608,-0.60296 0.072,-1.2179 0.19789,-1.81246c0.1448,-0.68384 0.56024,-1.30893 0.61067,-2.00611c0.04262,-0.58922 -0.28782,-1.15094 -0.33973,-1.73942c-0.1342,-1.5212 -0.2742,-3.05012 -0.21743,-4.57617c0.05688,-1.52885 0.16743,-3.07635 0.55716,-4.55579c0.25802,-0.97947 0.97428,-1.78084 1.35892,-2.71785c0.39655,-0.96603 0.5906,-2.00648 0.97842,-2.97604c0.97217,-2.43042 1.7227,-4.98885 3.09834,-7.21588c0.23805,-0.38538 0.99788,0.27356 1.35892,0c0.3143,-0.23814 0.0775,-0.78885 0.18345,-1.16867c0.33758,-1.21015 0.76265,-2.10177 1.61032,-3.05758c2.61363,-2.94704 4.92976,-5.35846 8.39815,-7.3246c1.46873,-0.83259 3.08224,-1.39397 4.68489,-1.92489c3.09097,-1.02398 6.00149,-1.48087 9.25002,-1.59228c1.69615,-0.05817 3.41935,-0.17876 5.09002,0.11986z" fill="#fa6a19"/><path d="M380.09869,43.93064c0.53693,-0.05823 1.07968,-0.03274 1.61967,-0.04247c0.62278,-0.01122 1.24564,-0.02038 1.86852,-0.02038c0.66817,0 1.33625,0.01704 2.00441,0.02038c0.69078,0.00345 1.38158,-0.0022 2.07236,0c1.445,0.0046 2.88997,0.0168 4.33497,0.02038c2.20824,0.00548 4.41651,0.00126 6.62475,0.00679c1.40423,0.00352 2.80843,0.01731 4.21266,0.02038c0.66814,0.00146 1.33628,-0.01031 2.00441,-0.00679c0.6229,0.00328 1.24564,0.02114 1.86852,0.02718c1.39484,0.01352 1.8004,-0.11238 3.12467,0.32699c0.79413,0.26348 2.48962,1.02277 2.72549,1.98318c0.29619,1.20601 0.33859,4.89426 0.33294,6.84897c-0.00523,1.80738 -0.02321,3.61472 -0.02718,5.4221c-0.00283,1.29098 0.00923,2.58195 0.00679,3.87293c-0.00663,3.51509 -0.024,7.03016 -0.03397,10.54524c-0.05259,18.5357 -0.09237,37.07143 -0.14269,55.60714c-0.04419,16.2799 9.54917,35.75395 -0.13589,48.8397c-7.14115,9.64861 -24.01587,0.44428 -36.01147,0c-0.50609,-0.01874 -0.61815,-0.85621 -0.67946,-1.35892c-0.08445,-0.69245 -0.1036,-4.90371 -0.10871,-6.63834c-0.01915,-6.4934 -0.03444,-12.98674 -0.04756,-19.48016c-0.01795,-8.88735 -0.02413,-17.77472 -0.04077,-26.66207c-0.01457,-7.78437 -0.03774,-15.56873 -0.05436,-23.3531c-0.02771,-12.98224 -0.04249,-25.9645 -0.06795,-38.94674c-0.00243,-1.24116 -0.01167,-2.48229 -0.01359,-3.72345c-0.00261,-1.69186 0.00525,-3.38373 0,-5.07558c-0.00337,-1.08773 -0.06405,-1.90801 0.03907,-2.99473c0.07063,-0.74428 0.00501,-1.53397 0.29387,-2.22354c0.26456,-0.63158 0.81867,-1.10405 1.30287,-1.58824c0.42676,-0.42676 2.41676,-1.37146 2.92763,-1.42687z" fill="#fec710"/><path d="M306.56311,44.2279c0.48553,-0.12485 0.96026,-0.30397 1.4566,-0.37455c0.51295,-0.07295 1.03546,-0.041 1.55342,-0.05351c0.59556,-0.01439 1.19125,-0.02718 1.78698,-0.02718c0.63876,0 1.27733,0.02383 1.91608,0.02718c0.65907,0.00345 1.31816,-0.00899 1.97723,-0.00679c1.37933,0.0046 2.75859,0.0236 4.13792,0.02718c2.11085,0.00548 4.22173,-0.00416 6.33258,0c1.34082,0.00264 2.68159,0.01732 4.02241,0.02038c0.6387,0.00146 1.2774,-0.01148 1.91608,-0.00679c0.59575,0.00437 1.19127,0.02553 1.78698,0.03397c0.91482,0.01296 2.14499,-0.10416 3.01001,0.36011c0.53894,0.28926 0.97228,0.74806 1.40479,1.18056c0.47652,0.47652 1.02467,0.9282 1.31306,1.53728c0.38151,0.80575 0.38963,3.34314 0.41447,4.12433c0.02693,0.84694 0.0517,1.69398 0.06795,2.54119c0.01772,0.92397 0.01855,1.84819 0.03397,2.7722c0.01629,0.97624 0.05859,1.95211 0.06115,2.92848c0.02914,11.08652 0.04113,22.17309 0.03397,33.25965c-0.0019,2.9512 -0.03992,5.90226 -0.06115,8.85338c-0.08548,11.88154 -0.17726,23.76303 -0.26499,35.64456c-0.09593,12.9913 0.67933,26.01813 -0.28537,38.97392c-0.07521,1.01009 -1.76648,1.01132 -2.71785,1.35892c-0.44938,0.16419 -0.94936,0.12558 -1.42687,0.15543c-0.2674,0.01671 -3.10494,0.0476 -3.24783,0.04841c-0.62056,0.00351 -1.24115,-0.00111 -1.86172,0c-1.98856,0.00356 -3.97712,0.00697 -5.96567,0.01359c-2.05425,0.00684 -4.10847,0.02165 -6.16272,0.02718c-1.30909,0.00353 -2.6182,-0.00461 -3.92729,0c-0.61834,0.00218 -1.23658,0.01922 -1.85493,0.02038c-0.58209,0.0011 -1.16413,-0.01117 -1.74622,-0.01359c-0.50733,-0.00211 -1.01725,0.05119 -1.52199,0c-0.90306,-0.09159 -2.5141,-0.52785 -3.26821,-0.97163c-0.60238,-0.35449 -1.41627,-0.65291 -1.63071,-1.31816c-0.52021,-1.61384 -0.31573,-3.3769 -0.42806,-5.06878c-0.03496,-0.52658 -0.01359,-1.05541 -0.01359,-1.58315c0,-1.75075 0.01359,-3.50149 0.01359,-5.25224c0,-1.25248 -0.01298,-2.50494 -0.01359,-3.75742c-0.00166,-3.40863 0.00569,-6.81726 0.00679,-10.2259c0.00116,-3.56491 -0.00338,-7.12982 0,-10.69473c0.01225,-12.90977 0.03431,-25.81954 0.04077,-38.72931c0.00333,-6.65646 0.00679,-13.31292 0.00679,-19.96938c0,-2.83562 -0.00992,-5.67124 -0.00679,-8.50686c0.00367,-3.33843 0.02055,-6.67684 0.02718,-10.01526c0.00243,-1.22529 -0.00287,-2.45059 0,-3.67589c0.00392,-1.67148 0.02038,-3.34294 0.02038,-5.01443c0,-1.11904 -0.06816,-1.85058 0.04077,-2.9701c0.07411,-0.76167 0.03119,-1.56103 0.30576,-2.27535c0.46107,-1.1995 1.85064,-2.4904 2.71785,-3.39731M481.96697,53.8129c0.68536,0.24197 1.39745,0.44542 2.02055,0.8196c0.45048,0.27052 0.77178,0.71355 1.14627,1.08215c0.71034,0.69914 1.35861,1.43664 1.76862,2.37631c2.30059,5.27256 4.46023,10.60614 6.59757,15.94696c0.8976,2.24293 1.59466,4.56192 2.46645,6.815c1.86077,4.80906 3.73289,9.61373 5.60556,14.41818c0.16572,0.42517 0.33888,0.8474 0.5096,1.27059c0.85074,2.10894 1.71206,4.21363 2.55478,6.32579c1.64865,4.13212 3.2834,8.26978 4.9193,12.40697c2.34316,5.92585 4.55875,11.9014 6.86256,17.84266c1.57454,4.06053 3.15482,8.11916 4.7902,12.15557c0.23132,0.57095 3.20761,7.88128 4.02881,9.92784c0.32277,0.8044 0.65618,1.60478 0.9595,2.41671c0.84193,2.25371 1.3676,3.48218 1.72796,5.75249c0.14976,0.94354 0.36594,1.89799 0.29578,2.85077c-0.10935,1.48495 -0.40259,2.9627 -0.82894,4.38932c-0.13781,0.46114 -0.52732,0.80782 -0.83489,1.17802c-1.939,2.33385 -4.7169,3.48674 -7.65838,4.50908c-2.10036,0.73 -4.35994,0.91469 -6.57124,1.14829c-2.21534,0.23403 -4.45167,0.18225 -6.67826,0.2514c-2.19012,0.06802 -5.7838,-0.01777 -7.47408,-0.29217c-0.83805,-0.13605 -2.83906,-1.32883 -3.39731,-2.03838c-1.32339,-1.68206 -2.52275,-3.46587 -3.61474,-5.3066c-0.38613,-0.6509 -0.52739,-1.41878 -0.79497,-2.12671c-0.3077,-0.81407 -0.62221,-1.62555 -0.93086,-2.43927c-0.87395,-2.30404 -1.73672,-4.6123 -2.60913,-6.91692c-0.37915,-1.00159 -0.75379,-2.00492 -1.1415,-3.00322c-2.24408,-5.77822 -4.50067,-11.55159 -6.75385,-17.32627c-0.21327,-0.54658 -0.427,-1.09299 -0.64549,-1.6375c-3.39852,-8.46969 -6.8092,-16.93449 -10.20551,-25.40507c-3.91157,-9.75565 -7.84047,-19.50446 -11.70712,-29.278c-1.34285,-3.39426 -1.77437,-4.45975 -2.82656,-7.15473c-0.07301,-0.18699 -1.79637,-4.46451 -1.97978,-5.33972c-0.23294,-1.11155 -0.34965,-2.24617 -0.4459,-3.37777c-0.02807,-0.33002 0.0627,-2.45001 0.16987,-2.79938c0.20031,-0.65302 0.5047,-1.27602 0.85612,-1.86172c0.33236,-0.55393 0.66578,-1.14757 1.18226,-1.53558c2.21091,-1.66098 4.40636,-2.30403 6.99845,-3.10514c0.67494,-0.2086 1.36736,-0.35575 2.05197,-0.52998c0.70376,-0.1791 1.40929,-0.35119 2.11313,-0.52998c1.76259,-0.44773 3.5219,-0.9084 5.28614,-1.34957c1.65915,-0.41489 4.14401,-1.04429 5.75935,-1.24513c0.77412,-0.09625 1.56107,-0.10529 2.33958,-0.05574c0.89484,0.05696 3.6234,0.6068 4.08813,0.77087z" fill="#ee6298"/><path d="M156.37491,368.04164c3.71665,-0.01331 7.43334,-0.01499 11.14996,-0.03397c3.82315,-0.01952 7.64617,-0.05983 11.46931,-0.08154c2.9579,-0.0168 5.91586,-0.01863 8.87377,-0.03397c2.39128,-0.0124 4.78242,-0.04357 7.17361,-0.06649c1.0875,-0.01042 4.45057,-0.04542 5.30215,0.01553c1.43907,0.10299 2.90036,0.14311 4.30014,0.49261c1.04451,0.26079 2.00192,0.80514 2.94886,1.31731c0.94287,0.50996 1.83332,1.11534 2.70426,1.74027c0.41444,0.29738 0.75375,0.68776 1.1415,1.01919c0.56365,0.48179 1.2398,0.84857 1.71224,1.42007c1.43171,1.73188 2.79315,3.53421 3.96721,5.45013c2.02952,3.31195 3.38191,6.11309 4.15915,9.79359c0.92714,4.39029 0.64211,6.12334 -0.97163,10.99709c-0.62404,1.8847 -3.33995,5.67188 -4.7902,6.99166c-0.50527,0.45981 -1.22232,0.61429 -1.85663,0.86801c-0.50045,0.20018 -1.12658,0.14588 -1.54068,0.49091c-0.38908,0.32419 -0.1734,1.33925 -0.67946,1.35892c-12.28902,0.47778 -24.59651,0.06789 -36.89477,0.10192c-13.32198,0.03686 -26.64395,0.07335 -39.96593,0.10871c-2.48457,0.0066 -4.96914,0.01155 -7.45369,0.02038c-1.33855,0.00476 -2.67731,0.046 -4.01562,0.02038c-3.89244,-0.07449 -6.55642,-0.03902 -10.31423,-1.22983c-1.11626,-0.35373 -5.39004,-1.61599 -5.99285,-3.77781c-0.74008,-2.65408 -1.35892,-5.3982 -1.35892,-8.15354c0,-5.24779 2.03962,-8.72822 4.94138,-12.87325c1.3501,-1.92855 2.82944,-3.78266 4.48954,-5.45183c2.37519,-2.38816 6.51038,-5.13002 9.62118,-6.41412c2.36018,-0.97425 4.81795,-1.72205 7.30039,-2.31962c2.41008,-0.58015 4.86725,-1.01078 7.33861,-1.20424c5.02394,-0.39328 16.53016,-0.56395 17.24134,-0.5665z" fill="#fb6a18"/><path d="M139.41555,485.87794c1.72583,-0.06795 3.43128,-0.08833 5.15711,-0.08154c0.55036,0 1.09393,-0.00679 1.66468,-0.00679c1.86172,0 3.72345,0.00679 5.59197,0.00679h4.01562c3.70307,-0.00679 7.40613,0 11.1092,0c3.98165,0.00679 7.97008,0.00679 11.95173,0.00679h20.73037c7.24986,0.00679 14.49971,0.00679 21.74957,0.01359h8.22149c16.20516,0 32.41711,0.00679 48.62227,0.00679l47.24297,0.02038h16.08965c9.92014,0 19.84707,0 29.77401,0.00679h1.37931c30.49424,0.00679 60.98847,0.01359 91.48271,0.02718l0.67946,1.35892l-0.67946,8.833h-325.46211v-9.51246z" fill="#00a1ff"/><path d="M112.40423,133.66135c0.6139,-0.01354 1.23379,-0.14348 1.84134,-0.05436c1.07449,0.15762 2.13628,0.42911 3.1612,0.78818c1.02678,0.35971 2.09584,0.70793 2.96755,1.35892c2.20341,1.6455 4.14094,3.62035 6.17631,5.46967c0.44333,0.40281 0.85063,0.84411 1.257,1.28418c2.37962,2.57696 4.74952,5.16301 7.10037,7.76625c1.40443,1.5552 2.77538,3.14031 4.1651,4.70867c2.20463,2.48803 4.41446,4.97145 6.61796,7.46049c1.37953,1.5583 2.7528,3.12212 4.13113,4.68149c0.44943,0.50846 0.89089,1.02421 1.35213,1.52199c0.82537,0.89076 2.18309,1.4728 2.50721,2.64311c0.15257,0.55089 -1.09376,0.34085 -1.61712,0.57075c-4.11617,1.80808 -8.36301,3.36404 -12.29656,5.54101c-3.93394,2.17719 -7.63678,4.76995 -11.2264,7.47747c-2.43267,1.83488 -4.53627,4.06954 -6.79462,6.11515c-2.42596,2.19744 -4.76309,4.74309 -6.77572,7.20654c-1.69691,2.07701 -3.33064,4.22092 -4.73096,6.50839c-2.81615,4.60026 -5.31816,9.38619 -7.89874,14.12261c-0.60579,1.11187 -0.55171,2.80157 -1.65789,3.41769c-0.71341,0.39736 -1.51875,-0.72897 -2.03838,-1.35892c-0.29788,-0.36113 -0.186,-0.91968 -0.22592,-1.3861c-0.02308,-0.26972 -0.0523,-3.44725 -0.05266,-3.55358c-0.00238,-0.70664 0.0079,-1.41328 0.00679,-2.11992c-0.00116,-0.74063 -0.01201,-1.48121 -0.01359,-2.22184c-0.00521,-2.437 -0.00278,-4.87401 -0.00679,-7.31101c-0.00278,-1.69186 -0.01286,-3.38371 -0.01359,-5.07558c-0.00153,-3.55132 0.00791,-7.10264 0.00679,-10.65396c-0.00115,-3.64418 -0.00846,-7.28836 -0.01359,-10.93254c-0.00619,-4.39838 -0.01218,-8.79677 -0.02038,-13.19514c-0.00312,-1.67601 -0.01265,-3.352 -0.01359,-5.02802c-0.00132,-2.34867 0.01029,-4.69735 0.00679,-7.04602c-0.00277,-1.86161 -0.10252,-3.86813 0.14184,-5.69729c0.15876,-1.18845 0.27433,-2.4265 0.78902,-3.50942c0.88266,-1.85713 2.12164,-3.53008 3.34295,-5.18429c0.29309,-0.39697 0.7769,-0.60861 1.16188,-0.91727c1.37511,-1.10249 1.95976,-1.72558 3.83556,-2.53015c0.94631,-0.40589 4.20935,-0.85353 4.82757,-0.86716z" fill="#fd8315"/><path d="M451.28843,69.36798l1.35892,1.35892c0.52998,1.17547 1.01919,2.37132 1.48123,3.58076c0.43486,1.12111 0.43486,1.12111 0.8833,2.2694c0.31255,0.81535 0.6251,1.63071 0.95125,2.47324c0.49601,1.29777 1.0056,2.59554 1.5084,3.89332c0.35332,0.89689 0.69985,1.80057 1.05317,2.70426c1.86711,4.78837 3.7583,9.56731 5.6735,14.33664c0.16987,0.42806 0.33973,0.84933 0.51639,1.29098c2.3917,5.97926 4.81738,11.94494 7.25665,17.90381c2.56157,6.26464 5.07558,12.54966 7.55561,18.84147c0.55036,1.41328 1.10752,2.81977 1.66468,4.22625c1.74622,4.44368 3.48564,8.88736 5.19109,13.35142c0.78818,2.05877 1.58994,4.11754 2.38491,6.17631c0.3737,0.97842 0.74741,1.96364 1.12111,2.94207c0.51639,1.36572 1.04637,2.73144 1.56956,4.09715l0.90368,2.34414c1.18226,2.65669 1.18226,2.65669 4.45047,6.24425h-45.52393z" fill="#00a1ff"/><path d="M258.49052,135.06444c1.53975,0.80723 3.10757,1.75923 4.1651,3.13911c1.13462,1.48047 1.83562,3.31863 2.18787,5.15032c0.45563,2.36928 0.46392,7.47555 0.46883,10.76947c0.02238,15.02968 0.02692,30.05938 0.04756,45.08907c0.00221,1.6058 0.01264,3.21158 0.01359,4.81738c0.00132,2.23543 -0.01027,4.47086 -0.00679,6.70629c0.00105,0.67497 0.0192,1.34983 0.02038,2.0248c0.00108,0.6138 -0.01116,1.22755 -0.01359,1.84134c-0.00137,0.34584 0.10551,2.46805 -0.2582,2.88771c-0.53482,0.6171 -1.24926,1.56901 -2.03838,1.35892c-0.79086,-0.21055 -0.71149,-1.47474 -1.10073,-2.19466c-1.38825,-2.56766 -2.72657,-5.16543 -4.23103,-7.66677c-2.98101,-4.95628 -6.25042,-9.6093 -10.03926,-13.98566c-4.00972,-4.63149 -7.31588,-7.80616 -12.18338,-11.45328c-2.10092,-1.57418 -4.24439,-3.11298 -6.53504,-4.39548c-4.61657,-2.58473 -10.98763,-2.94694 -14.15234,-7.18701c-0.6288,-0.84246 8.94774,-11.46668 9.12517,-11.67315c1.61168,-1.87548 3.18689,-3.78215 4.80379,-5.65312c2.73627,-3.16621 5.50589,-6.30344 8.25546,-9.45811c1.37024,-1.57212 2.68193,-3.19681 4.10395,-4.72226c1.30831,-1.40347 5.10501,-5.17153 7.00525,-5.86375c1.89452,-0.69013 9.01089,-0.2394 10.36179,0.46883z" fill="#fd8315"/><path d="M345.48131,310.94716c1.14979,-0.00798 1.40874,0.01021 2.41166,0.12804c0.49207,0.05781 1.01855,-0.0085 1.47486,0.18452c0.6638,0.28078 3.04596,1.92697 3.39731,2.71785c0.38429,0.86503 0.2964,3.87403 0,4.75623c-0.14906,0.44367 -0.56594,0.74939 -0.89689,1.08034c-0.35126,0.35126 -0.71232,0.70789 -1.1415,0.95804c-0.59375,0.34607 -2.30352,0.77268 -2.92848,0.94445c-0.5796,0.1593 -1.15918,0.31868 -1.73942,0.47562c-0.60882,0.16467 -1.22495,0.30372 -1.82775,0.48921c-2.17531,0.66938 -4.40249,1.20341 -6.505,2.07491c-2.09788,0.86958 -4.074,2.01309 -6.05145,3.12977c-0.49037,0.27691 -0.8832,0.69906 -1.33174,1.03958c-0.41672,0.31636 -0.90892,0.54641 -1.2638,0.93086c-1.47403,1.59687 -2.9491,3.20951 -4.19907,4.98725c-0.90162,1.28231 -1.48603,2.76058 -2.22184,4.14472c-1.20151,2.26018 -1.93597,3.84907 -2.75861,6.70629c-0.53127,1.84524 -0.97176,3.73773 -1.10752,5.65312c-0.30284,4.27269 -0.13595,8.56575 -0.20384,12.84862c-0.01364,0.86065 -0.03245,1.72124 -0.04077,2.58195c-0.00753,0.77908 0.07207,1.56223 -0.00679,2.33735c-0.06692,0.65768 -0.07014,1.38067 -0.42806,1.93647c-0.36132,0.56107 -1.02449,0.86439 -1.59673,1.20774c-2.69168,1.61501 -3.41706,0.82121 -7.40613,0.87141c-3.37395,0.04245 -6.76207,-0.15913 -10.12143,0.15713c-3.34944,0.31532 -6.69821,0.84349 -9.94307,1.73178c-1.52405,0.41721 -2.82596,1.41498 -4.22625,2.1471c-1.5655,0.8185 -5.05056,3.04182 -5.69134,3.51621c-4.18349,3.09719 -4.97697,4.27342 -7.49701,9.35704c-1.05295,2.12409 -2.11629,4.2962 -2.61593,6.61371c-0.73694,3.4182 -0.72933,6.95546 -1.05996,10.43653c-0.06351,0.66863 0.0695,1.36753 -0.1223,2.01121c-0.39896,1.33889 -3.24876,0.73689 -3.56717,0.74061c-0.58657,0.00686 -1.17321,-0.00348 -1.75981,-0.00679c-1.23437,-0.00697 -2.4687,-0.01933 -3.70307,-0.02718c-1.51973,-0.00966 -3.08999,0.36156 -4.55919,-0.02718c-0.48959,-0.12954 -0.66462,-0.8527 -0.67946,-1.35892c-0.09489,-3.23558 0.01278,-6.48559 0.35502,-9.70441c0.34114,-3.20853 0.81358,-6.42589 1.69016,-9.53115c0.94951,-3.3636 4.02918,-8.42198 6.1831,-11.11599c1.42281,-1.77957 3.11659,-3.32445 4.68149,-4.98045c2.21782,-2.34694 2.89352,-2.97162 6.54661,-5.31254c1.86168,-1.19298 3.83717,-2.21091 5.84677,-3.13317c3.66352,-1.68129 7.50835,-2.92673 11.55085,-3.26821c0.23615,-0.01995 7.3697,0.02813 9.51926,0.06115c1.98182,0.03044 4.00346,0.49921 5.94529,0.10192c0.42839,-0.08765 -0.02452,-0.8742 -0.03397,-1.31136c-0.03671,-1.69809 -0.07363,-3.39619 -0.10451,-5.0944c-0.03545,-1.94949 -0.08843,-4.79028 -0.05709,-6.82036c0.01137,-0.73632 0.00724,-1.47481 0.07751,-2.20785c0.10325,-1.07708 0.21745,-2.15739 0.44239,-3.21576c0.85933,-4.04329 3.0614,-8.37901 5.01198,-11.70351c1.58655,-2.70407 3.3504,-5.32937 5.40597,-7.6966c1.50108,-1.72867 3.34755,-3.139 5.18684,-4.50228c1.83844,-1.36265 3.86559,-2.45052 5.81364,-3.65126c2.69786,-1.6629 6.58517,-3.26231 9.14555,-3.85934c2.37175,-0.55305 8.237,-0.52669 8.7107,-0.52998z" fill="#fb6a19"/><path d="M98.64785,485.87794c10.2395,-0.02262 20.47896,-0.04863 30.71846,-0.06795c1.66468,-0.00314 3.32936,-0.00429 4.99404,-0.00679c0.07591,-0.00011 3.32791,-0.04953 3.69627,0.07474c0.3035,0.10238 0.6328,0.36258 0.67946,0.67946c0.23599,1.60274 0.09778,3.23858 0.13589,4.85815c0.03649,1.55103 0.01519,3.10289 0.02718,4.65431c0.01225,1.58544 0.0737,3.17096 0.04756,4.75623c-0.104,6.30737 0.00175,8.7463 -1.69186,14.87341c-0.28543,1.03264 -0.84808,1.97437 -1.39544,2.89536c-1.28707,2.16559 -2.72264,3.69555 -4.72226,5.26668c-1.01772,0.79963 -2.05436,1.62499 -3.24528,2.13181c-1.48103,0.63028 -3.08154,0.96343 -4.6679,1.23577c-2.91161,0.49985 -6.21049,0.53052 -9.13876,0.062c-1.41843,-0.22695 -2.89055,-0.40424 -4.18548,-1.02599c-2.05681,-0.98755 -3.97958,-2.27915 -5.73466,-3.73704c-0.86875,-0.72165 -1.43071,-1.75542 -2.02989,-2.71275c-0.59855,-0.95631 -1.16942,-1.94658 -1.55087,-3.00832c-0.95984,-2.67167 -1.49544,-6.15184 -1.62731,-8.97484c-0.1427,-3.05488 -0.09177,-6.11574 -0.13929,-9.17358c-0.06621,-4.26009 -0.11873,-8.52038 -0.16987,-12.78067M464.1982,485.87794h38.04985c0.33973,0.67267 0.33973,0.67267 0.67946,1.35892c0.07474,1.66468 0.10871,3.30898 0.11551,4.97366c0,0.74061 0,0.74061 0.00679,1.50161c0,1.05317 0.00679,2.10633 0.00679,3.1595c0,1.59673 0.01359,3.18667 0.02038,4.78341c0.02038,5.08237 0.02038,9.90655 -1.5084,14.79867c-1.08034,2.28299 -2.44606,4.19228 -4.07677,6.11515c-2.04518,1.8889 -4.13113,3.11873 -6.66552,4.24664c-3.01001,0.70664 -5.86375,1.22303 -8.9621,1.18906c-3.45846,-0.57754 -6.61116,-1.80057 -9.68233,-3.47884c-1.47443,-0.99881 -2.56836,-1.97723 -3.74383,-3.32257c-1.41328,-1.95685 -2.58195,-3.70986 -3.25462,-6.054c-0.84933,-3.64191 -1.16867,-7.02563 -1.12111,-10.75588c0.00679,-0.47562 0.00679,-0.95125 0.00679,-1.44046c0.00679,-1.73942 0.02718,-3.48564 0.04756,-5.22506z" fill="#fd8315"/><path d="M180.18325,279.32162c0.91734,-0.3117 4.50409,-0.39429 5.43569,0c1.88767,0.79894 3.54119,2.06569 5.2998,3.11873c1.16035,0.6948 2.08348,1.54603 3.5332,1.6375c2.71245,0.17115 5.48826,0.53197 8.15354,0c1.92902,-0.38502 3.49963,-1.79738 5.25903,-2.67708c0.50568,-0.25284 0.98414,-0.59555 1.53558,-0.72023c0.52122,-0.11784 1.069,-0.00661 1.6031,0.01062c0.90968,0.02934 2.52053,0.19054 3.15313,0.66885c0.65138,0.4925 1.28499,1.22513 1.35892,2.03838c0.16532,1.8185 -0.24926,3.6611 -0.67946,5.43569c-0.24622,1.01567 -1.91281,2.88526 -2.71785,3.39731c-2.7597,1.75533 -7.05058,3.7614 -10.32102,4.2874c-7.08028,1.13876 -8.37455,0.76923 -14.81906,-1.56956c-0.05593,-0.0203 -1.75352,-1.23269 -2.0146,-1.45575c-0.47446,-0.40535 -0.76378,-1.3418 -1.3827,-1.2621c-1.66042,0.21381 -3.05638,1.3675 -4.59316,2.03159c-1.91725,0.8285 -3.73853,1.95519 -5.76863,2.44606c-1.65544,0.40029 -3.4053,0.2719 -5.10615,0.18345c-2.77015,-0.14405 -6.00553,-0.78697 -8.66738,-1.72159c-1.16954,-0.41064 -2.38949,-0.76812 -3.42364,-1.4515c-1.30971,-0.86547 -4.25772,-4.23264 -5.05519,-5.56479c-0.20786,-0.34722 -0.40615,-2.47356 -0.3805,-2.84694c0.05978,-0.87014 0.07685,-1.77113 0.3805,-2.58875c0.42876,-1.1545 1.55462,-1.86589 2.71785,-2.03838c0.63125,-0.09361 1.28151,0.0106 1.91099,0.11551c0.73585,0.12264 1.48003,0.27024 2.16578,0.56395c0.85632,0.36677 1.58576,0.98291 2.41888,1.39969c1.38277,0.69175 3.5308,1.57144 5.11635,1.61712c2.24577,0.06469 4.57433,0.32217 6.73346,-0.29896c2.00211,-0.57597 7.38034,-4.49351 8.15354,-4.75623z" fill="#211c39"/><path d="M172.02971,254.18154c1.95005,-0.16987 3.51961,-0.2582 5.43569,0c1.59673,0.6319 1.59673,0.6319 3.18667,1.39969c0.96484,0.46883 1.93647,0.91048 2.92848,1.31816l1.82775,-0.04077c1.66468,-0.64549 1.66468,-0.64549 3.52641,-1.69865c2.11992,-0.97842 2.11992,-0.97842 4.57957,-1.27739c0.761,0.10192 1.5152,0.19704 2.29658,0.29896c0.52998,0.35332 1.06675,0.69985 1.61712,1.05996c1.10073,1.65789 1.10073,1.65789 1.86172,3.77781l-0.08154,2.63631c-1.31816,3.13911 -3.20026,5.76183 -5.39493,8.34379c-2.018,2.11992 -4.11754,4.036 -6.57719,5.62594c-0.761,0.32614 -1.5152,0.64549 -2.29658,0.97842c-1.97044,-0.1291 -1.97044,-0.1291 -4.07677,-0.67946c-3.6555,-2.21504 -6.78782,-5.21147 -9.55323,-8.4525c-1.15508,-1.57635 -1.92288,-2.86053 -2.50721,-4.72226c-0.2514,-1.57635 -0.33973,-2.9081 -0.16987,-4.49124c0.89009,-2.03838 0.89009,-2.03838 2.03838,-3.39731z" fill="#ef6299"/><path d="M491.37666,233.79769c4.3418,0.73728 6.3469,2.20472 9.63307,4.99065c1.40223,1.18877 2.84092,2.38096 3.95617,3.84236c2.85202,3.73724 3.44788,6.71705 2.71785,11.55085c-0.07563,0.50076 -0.85628,0.74136 -1.35892,0.67946c-0.57282,-0.07054 -0.90479,-0.72225 -1.39969,-1.01919c-0.641,-0.3846 -1.25074,-0.98792 -1.99762,-1.01919c-2.04913,-0.08581 -4.07544,0.89366 -6.11515,0.67946c-0.4459,-0.04682 0.31252,-0.84242 0.42127,-1.27739c0.11831,-0.47324 0.4367,-0.98649 0.2582,-1.44046c-0.23442,-0.59617 -1.07244,-0.78595 -1.35892,-1.35892c-0.20258,-0.40515 0.3203,-1.67922 0,-1.35892c-0.71622,0.71622 -0.41849,2.34167 -1.35892,2.71785c-0.7582,0.30328 -1.87823,-0.55817 -2.03838,-1.35892c-0.16015,-0.80075 1.35892,-1.22177 1.35892,-2.03838c0,-0.50644 -1.13244,-0.22649 -1.35892,-0.67946c-0.30386,-0.60773 0.48045,-1.55793 0,-2.03838c-0.35811,-0.35811 -1.29611,0.17693 -1.35892,0.67946c-0.19864,1.58914 1.06788,3.20254 0.67946,4.75623c-0.17371,0.69483 -1.32217,0.67946 -2.03838,0.67946c-0.46835,0 -0.81092,-0.47001 -1.22983,-0.67946c-0.4877,-0.24385 -0.94667,-0.61424 -1.48802,-0.67946c-0.71118,-0.08569 -1.42863,0.12514 -2.13521,0.24291c-0.65432,0.10905 -1.34239,0.7212 -1.94156,0.43655c-0.40915,-0.19437 -0.3203,-1.03862 0,-1.35892c1.15486,-1.15486 3.23648,-1.31737 4.07677,-2.71785c0.36849,-0.61415 -1.3232,-0.64108 -2.03838,-0.67946c-0.60678,-0.03256 -1.19562,0.24995 -1.75981,0.47562c-1.59107,0.63643 -1.76011,0.79218 -2.49023,2.25242c-0.21475,0.4295 -0.03602,1.25113 -0.5062,1.34873c-0.91434,0.1898 -2.05753,-0.01914 -2.71785,-0.67946c-2.28529,-2.28529 1.09563,-1.92796 1.35892,-2.71785c0.16015,-0.48045 -0.19901,-1.19877 -0.67946,-1.35892c-0.48045,-0.16015 -0.8676,0.80229 -1.35892,0.67946c-0.62148,-0.15537 -0.81936,-1.0136 -1.35892,-1.35892c-0.50559,-0.32358 -1.14132,-0.37499 -1.69865,-0.59793c-0.57607,-0.23043 -1.22825,-0.35644 -1.69865,-0.761c-0.41665,-0.35832 -0.59168,-0.92855 -0.83744,-1.42007c-0.2085,-0.41699 -0.05528,-1.30026 -0.52149,-1.29777c-0.25907,0.00139 -0.69049,2.69032 -0.67946,2.71785c0.23816,0.59468 1.02934,0.80961 1.35892,1.35892c0.36849,0.61415 1.38593,1.92064 0.67946,2.03838c-1.62642,0.27107 -3.12011,-1.56344 -4.75623,-1.35892c-0.71068,0.08884 -0.15012,1.55593 -0.67946,2.03838c-0.62346,0.56824 -1.59758,0.54454 -2.40869,0.77628c-0.77523,0.2215 -2.41975,1.38565 -2.34754,0.58264c0.15241,-1.6949 1.66453,-2.98037 2.68557,-4.34176c2.70907,-3.61209 4.25341,-4.73969 8.31661,-6.90673c1.7054,-0.90955 3.4442,-1.81778 5.3049,-2.34075c5.02686,-1.41285 10.76826,-1.04311 12.90977,-0.67946z" fill="#fc8216"/><path d="M204.64386,237.195c0.69072,-0.09524 4.23739,0.426 4.75623,0.67946c1.46748,0.71689 2.57588,2.07383 4.07677,2.71785c1.26874,0.54441 2.69543,0.63089 4.06828,0.77713c1.37926,0.14692 2.7873,0.29848 4.16,0.09937c1.82118,-0.26415 3.58917,-0.84987 5.32018,-1.47443c0.97578,-0.35207 1.82959,-0.97892 2.75861,-1.44046c1.51626,-0.75328 3.01657,-1.54481 4.75623,-1.65789c0.68528,-0.04454 1.41439,0.0122 2.03838,0.29896c0.65717,0.30201 1.20608,0.83493 1.65789,1.39969c0.4709,0.58862 0.85671,1.27173 1.05996,1.99762c0.20247,0.7231 0.27464,1.51235 0.1291,2.24902c-0.19875,1.00597 -0.66491,1.94827 -1.1381,2.85799c-0.51527,0.99062 -1.84746,2.94794 -2.82316,3.84915c-0.49572,0.45787 -0.98985,0.95509 -1.60353,1.23577c-2.45064,1.12088 -6.0428,2.01148 -8.72429,2.22863c-1.9822,0.16052 -3.97711,0.04598 -5.96567,0.06795c-2.09125,0.0231 -4.46283,0.07905 -6.46932,-0.19025c-1.46254,-0.19629 -2.90218,-0.5576 -4.32053,-0.96484c-0.49725,-0.14277 -0.93442,-0.44451 -1.39672,-0.6767c-0.28976,-0.14553 -0.58674,-0.28034 -0.85909,-0.4563c-0.52285,-0.3378 -1.11043,-0.61504 -1.52199,-1.08204c-2.08366,-2.36434 -2.9015,-3.31719 -3.30218,-6.12195c-0.10925,-0.76477 -0.21038,-1.56035 -0.05436,-2.31696c0.14172,-0.68725 0.56134,-1.29059 0.92237,-1.8923c0.32133,-0.53555 0.64777,-1.09172 1.11602,-1.50501c0.3797,-0.33513 0.85723,-0.61029 1.35892,-0.67946zM134.65932,237.195c0.66688,0.19424 1.25576,0.59528 1.86852,0.92237c2.12745,1.13565 2.49622,1.6203 5.02802,2.57006c1.05794,0.39687 2.13166,0.90392 3.26142,0.92407c2.35448,0.04199 4.76061,-0.09641 7.02563,-0.74061c2.03425,-0.57857 3.77216,-1.91376 5.65992,-2.86733c0.53793,-0.27173 1.01764,-0.74664 1.61712,-0.80856c0.71024,-0.07336 1.42216,0.19887 2.09954,0.42466c0.69154,0.23051 1.38337,0.51154 1.97723,0.93426c1.17854,0.8389 1.82672,1.9715 2.03838,3.39731c0.00602,0.04058 -0.2053,2.16692 -0.27943,2.51741c-0.11116,0.52556 -0.21298,1.05837 -0.40683,1.55936c-0.29262,0.75624 -1.08955,2.01861 -1.68506,2.56836c-0.80647,0.74451 -1.66531,1.4389 -2.57856,2.04773c-0.91402,0.60935 -1.83015,1.28518 -2.88431,1.59419c-1.6118,0.47246 -3.31372,0.58089 -4.9881,0.71343c-1.67975,0.13297 -3.36957,0.05415 -5.05435,0.08154c-0.68399,0.01112 -1.36815,0.05294 -2.05197,0.03397c-3.27328,-0.0908 -6.18,-0.0983 -9.32221,-1.20265c-1.62455,-0.57096 -3.19257,-1.33772 -4.64072,-2.2694c-0.60599,-0.38987 -0.97494,-1.06322 -1.42007,-1.62986c-0.20895,-0.26598 -0.367,-0.56857 -0.53677,-0.86111c-0.26296,-0.45312 -0.55471,-0.89359 -0.761,-1.37517c-0.19597,-0.45748 -0.30433,-0.94794 -0.43931,-1.42698c-0.25077,-0.88993 -0.45222,-1.90204 -0.28091,-2.81966c0.15515,-0.83106 1.2886,-2.58596 1.82775,-3.13911c0.44485,-0.4564 4.71447,-1.20993 4.9261,-1.14829z" fill="#211c39"/><path d="M174.15303,252.52569c1.03958,0.19818 2.09953,0.30952 3.11873,0.59453c1.01286,0.28324 1.97376,0.72732 2.95566,1.10413c1.12224,0.43065 2.18592,1.04518 3.35654,1.31816c1.33765,0.31193 2.87808,-0.14301 4.07677,-0.67946c0.69314,-0.3102 1.31161,-0.76792 1.99082,-1.10752c0.68102,-0.34051 1.33768,-0.79003 2.08595,-0.93086c1.04019,-0.19577 3.81545,0.19832 4.75623,0.67946c0.72878,0.37272 1.30839,0.99244 1.8872,1.57125c0.79387,0.79387 1.97551,2.16331 2.18957,3.39561c0.13702,0.78882 -0.06904,2.0079 -0.25225,2.85406c-0.1068,0.49327 -0.1369,1.01462 -0.34568,1.47411c-0.52892,1.16411 -1.14169,2.29587 -1.85068,3.35994c-1.81712,2.72714 -4.49024,5.21923 -6.90928,7.30166c-1.57242,1.35362 -4.39646,1.81449 -4.91081,3.82452c-0.36142,1.41239 2.01937,2.11541 3.1578,3.02615c1.13554,0.90843 2.28107,1.88357 3.63682,2.40954c1.16827,0.45324 4.62269,1.1624 6.57379,0.97163c0.53297,-0.05211 1.08535,-0.08639 1.57975,-0.29217c2.45099,-1.02015 3.96337,-2.07702 6.19159,-3.17988c0.64446,-0.31897 1.27215,-0.69379 1.96195,-0.89689c0.61156,-0.18006 2.18807,-0.16242 2.84015,0c0.65757,0.16379 1.38313,0.26091 1.91608,0.67946c0.3983,0.3128 1.09321,1.06687 0.67946,1.35892c-0.62821,0.44344 -1.52896,-0.17227 -2.29658,-0.21743c-0.85835,-0.05049 -2.31011,-0.03994 -3.13911,0.21743c-1.03832,0.32235 -2.28555,1.2164 -3.23424,1.69865c-0.89123,0.45305 -1.77436,0.93607 -2.7153,1.27399c-3.04858,1.09483 -5.62367,1.11005 -8.99862,0.42466c-2.60528,-0.52908 -4.83746,-2.60494 -7.01204,-3.9069c-0.57464,-0.34405 -1.15397,-0.78838 -1.82096,-0.84933c-2.48102,-0.2267 -5.14135,0.87477 -7.47408,0c-0.89972,-0.3374 1.73452,-1.12679 2.03838,-2.03838c0.22649,-0.67946 -0.30596,-1.42727 -0.67946,-2.03838c-0.29477,-0.48229 -2.09215,-1.52262 -2.46645,-1.82775c-1.41105,-1.15033 -2.84721,-2.28073 -4.13792,-3.56463c-1.29107,-1.28426 -2.4472,-2.70031 -3.58756,-4.12009c-0.51137,-0.63667 -1.14406,-1.25055 -1.35892,-2.03838c-0.48045,-1.76166 -0.72169,-3.61018 -0.67946,-5.43569c0.01821,-0.78714 0.50401,-1.49722 0.85612,-2.20146c0.39689,-0.79379 1.53987,-2.56746 2.36453,-3.1527c1.10147,-0.78169 2.38332,-0.83825 3.6555,-1.05996M172.03311,254.18358c-1.69186,1.17547 -1.69186,1.17547 -2.71785,2.71785c-0.22422,0.44844 -0.45524,0.89689 -0.67946,1.35892c-0.08154,2.38491 -0.02038,3.87293 0.67946,6.11515c2.1471,3.47884 4.81059,6.31899 7.86137,9.03004c2.37812,1.84134 2.37812,1.84134 5.0484,3.20026c2.37132,0.08833 2.37132,0.08833 4.75623,-0.67946c1.55597,-1.08714 2.779,-2.05197 4.11754,-3.35654c0.34653,-0.33294 0.69985,-0.66587 1.05996,-1.0124c2.56836,-2.5276 4.74264,-5.15711 6.46168,-8.34379c0.73382,-1.69186 0.73382,-1.69186 0.67267,-4.19228c-0.66587,-2.11992 -0.66587,-2.11992 -1.86852,-3.77781c-0.52998,-0.35332 -1.06675,-0.69985 -1.61032,-1.05996c-2.26261,-0.45524 -2.26261,-0.45524 -4.75623,0c-0.93742,0.43504 -1.85976,0.90187 -2.76541,1.39969c-1.37251,0.74741 -1.37251,0.74741 -2.67028,1.31816c-2.12671,-0.04077 -2.12671,-0.04077 -4.07677,-0.67946c-0.64549,-0.35332 -1.29098,-0.69985 -1.95685,-1.05996c-1.95005,-1.0124 -1.95005,-1.0124 -3.49243,-1.20944c-1.6375,-0.11551 -1.6375,-0.11551 -4.06318,0.23102z" fill="#fbc016"/><path d="M169.31186,407.73986h25.81954v2.03838h-25.81954z" fill="#fe8315"/><path d="M264.43649,218.84953h0.67946c0.68626,3.16629 1.36572,6.33938 2.03838,9.51246c0.09512,0.44165 0.19025,0.8833 0.28537,1.33854c1.79378,8.47289 2.779,16.48374 2.43247,25.16046c-0.20384,1.36572 -0.42127,2.72464 -0.67946,4.07677l-1.35892,-1.35892c-0.02718,-1.97044 0.01359,-3.89332 0.08154,-5.85696c0.18345,-8.81941 -1.35213,-17.36704 -3.21385,-25.96223c-0.13589,-0.60472 -0.26499,-1.20944 -0.40088,-1.82775c-0.11551,-0.53677 -0.23781,-1.07355 -0.36011,-1.63071c-0.09512,-0.69985 -0.09512,-0.69985 -0.18345,-1.41328z" fill="#f6c219"/><path d="M117.67278,307.859h2.03838c1.71904,1.54238 3.19347,3.12552 4.58637,4.96686c2.26261,2.70426 4.81059,5.16391 7.64394,7.26344h2.03838c0.36691,0.48921 0.72702,0.97842 1.10073,1.48802c1.46084,1.91608 1.46084,1.91608 3.1527,2.89451c1.5152,0.82894 3.03719,1.6375 4.57957,2.41209l-0.67946,1.35892c-5.85696,-2.779 -10.48409,-6.36656 -15.28109,-10.64037c-0.94695,-0.83945 -1.90507,-1.6662 -2.87412,-2.48003c-0.53677,-0.46203 -1.08034,-0.92407 -1.63071,-1.40649c-0.46883,-0.39409 -0.93086,-0.79497 -1.41328,-1.20265c-1.3861,-1.42687 -2.30337,-2.91489 -3.26142,-4.65431z" fill="#f2c11b"/><path d="M101.3657,278.64215h1.35892c0.22422,0.55036 0.44165,1.10073 0.67267,1.66468c0.29896,0.72702 0.59113,1.45405 0.89689,2.20146c0.29217,0.71343 0.58434,1.43366 0.8833,2.17428c0.87651,2.09274 0.87651,2.09274 1.99082,3.82537c0.99201,1.68506 0.99201,1.68506 1.62391,3.66909c0.84253,2.43247 2.05197,4.23305 3.52641,6.33938c0.90368,1.28418 1.78698,2.58875 2.63631,3.9069v1.35892c-1.0124,-0.33973 -1.0124,-0.33973 -2.03838,-0.67946c-1.16188,-1.70545 -2.20825,-3.39051 -3.22744,-5.1775l-0.90368,-1.56276c-2.75182,-4.84456 -5.4221,-9.79784 -7.41972,-15.00251z" fill="#f5c21a"/><path d="M136.6977,407.73986h15.62762v2.03838h-15.62762z" fill="#fe8315"/><path d="M267.83379,241.27177h1.35892c0.57075,2.98284 0.76779,5.8026 0.761,8.833c0.00679,1.19585 0.00679,1.19585 0.00679,2.41888c-0.08154,2.20146 -0.35332,4.25343 -0.76779,6.41412l-1.35892,-1.35892c-0.15628,-1.65109 -0.15628,-1.65109 -0.13589,-3.70307c0.00679,-0.72702 0.01359,-1.46084 0.01359,-2.21504l0.04077,-2.31696c0,-0.77459 0.00679,-1.54917 0.01359,-2.34414c0.02038,-1.90929 0.04077,-3.81857 0.06795,-5.72786z" fill="#edbe21"/><path d="M158.44048,407.73986h10.19192v2.03838h-10.19192zM125.14686,407.73986h10.19192v2.03838h-10.19192zM116.99332,407.73986h7.47408v2.03838h-8.15354zM201.92602,407.73986h6.11515v2.03838h-6.11515z" fill="#fe8315"/><path d="M109.51924,296.30816h1.35892c1.02599,1.29098 1.02599,1.29098 2.11992,2.97604l1.11432,1.67148c0.27858,0.48242 0.55716,0.96484 0.84253,1.46764v1.35892l-2.03838,-0.67946c-0.94445,-1.20944 -0.94445,-1.20944 -1.82775,-2.67708c-0.29217,-0.48242 -0.59113,-0.96484 -0.89689,-1.46084c-0.22422,-0.42806 -0.44165,-0.85612 -0.67267,-1.29777z" fill="#ebbe22"/><path d="M460.80089,253.50208l0.67946,1.35892l-2.71785,4.07677l-2.03838,-1.35892c0.5096,-1.65789 0.5096,-1.65789 1.35892,-3.39731c1.44046,-0.55036 1.44046,-0.55036 2.71785,-0.67946z" fill="#f1851e"/><path d="M153.00478,407.73986h4.75623v2.03838h-4.75623z" fill="#fe8315"/><path d="M149.60747,287.47516l2.03838,0.67946c0.94445,1.10752 0.94445,1.10752 1.82775,2.41888c0.29217,0.43486 0.59113,0.86971 0.89689,1.31816c0.22422,0.33973 0.44165,0.67267 0.67267,1.01919c-1.2638,-0.19025 -1.2638,-0.19025 -2.71785,-0.67946c-1.15508,-1.48802 -1.85493,-3.06437 -2.71785,-4.75623z" fill="#e1b929"/></g></g></svg>