<svg xmlns="http://www.w3.org/2000/svg" width="1024" height="1024" version="1.1"><path fill="#FFC12E" fill-rule="evenodd" d="M159.64 757.502c-.836-2.176-.836-99.828 0-102.004.509-1.329.81-1.396 1.484-.332 1.105 1.743 1.105 100.925 0 102.668-.675 1.064-.975.997-1.485-.332M338 597.337c-8.435-.618-20.486-2.448-28.648-4.351-10.999-2.565-26.332-8.667-29.142-11.598-1.26-1.313-2.695-2.388-3.19-2.388-.494 0-2.978-1.8-5.52-4s-5.03-4-5.528-4c-.499 0-6.256-5.338-12.794-11.863-8.595-8.577-13.486-14.447-17.657-21.19-3.174-5.13-6.115-10.48-6.538-11.887-.422-1.408-2.375-5.935-4.339-10.06-7.75-16.278-11.733-41.374-9.666-60.91.617-5.825 1.524-12.165 2.017-14.09s1.216-6.412 1.605-9.97c.57-5.215 1.846-8.582 6.566-17.338 7.928-14.706 13.591-22.414 24.834-33.798 9.57-9.69 22.079-18.876 33.676-24.73 10.849-5.477 31.43-10.653 48.417-12.178 13.012-1.168 24.284-.274 38.663 3.066 25.035 5.817 37.348 11.699 54.888 26.221 10.893 9.02 20.092 20.115 28.376 34.227 3.228 5.5 6.682 11.002 7.675 12.227s1.671 3.097 1.507 4.16c-.163 1.063.588 5.492 1.67 9.841 1.083 4.35 2.483 11.702 3.111 16.34s1.558 10.836 2.065 13.775c.63 3.65.574 5.994-.176 7.395-.67 1.252-.848 4.26-.457 7.711.745 6.587-1.01 16.06-5.404 29.178-3.86 11.521-8.706 21.11-16.862 33.362-14.907 22.396-38.39 40.655-63.649 49.49-10.378 3.63-19.071 5.577-29 6.495-3.85.356-8.125.77-9.5.92s-4.525.124-7-.057m-6.711-63.723c2.534-.763 5.758-2.293 7.166-3.4l2.56-2.013 6.742 3.396c7.755 3.906 12.489 4.279 24.693 1.944 8.316-1.591 12.765-4.122 15.065-8.57 1.79-3.46 1.94-9.117.285-10.771-1.91-1.91-6.467-1.403-11.84 1.32-2.735 1.386-6.996 2.797-9.468 3.136-3.76.516-5.525.11-10.78-2.477-3.455-1.7-7.38-4.26-8.72-5.687l-2.437-2.595 8.862-8.16c4.874-4.487 9.474-9.625 10.222-11.416 1.839-4.4 1.733-10.806-.21-12.75-2.16-2.16-8.263-1.974-13.664.415l-4.49 1.986-6.117-2.486c-8.047-3.27-12.491-3.244-15.828.094l-2.58 2.58.623 4.548c.765 5.577 5.57 12.566 11.695 17.005 7.625 5.527 8.102 6.1 6.921 8.307-1.466 2.74-12.75 9.796-16.977 10.615-2.54.493-5.676-.066-11.542-2.058-4.548-1.544-9.552-2.592-11.494-2.406-2.693.258-3.645.915-4.383 3.028-.711 2.035-.486 3.713.917 6.824 2.145 4.756 6.845 7.664 15.49 9.587 7.468 1.66 13.78 1.661 19.289.004m-25.29-65.884c2.474-1.227 5.511-3.759 6.75-5.628 2.956-4.461 2.968-9.486.028-11.545-2.956-2.071-5.608-1.958-9.485.407-4.897 2.985-13.97 5.319-17.852 4.59-1.866-.35-5.924-1.967-9.018-3.595-9.34-4.913-14.422-3.477-14.422 4.078 0 2.951.771 4.772 3.188 7.524 1.754 1.998 4.341 4.09 5.75 4.652 4.487 1.788 13.3 2.667 22.062 2.2 6.08-.325 9.78-1.088 12.999-2.683m99.679 2.188c4.302-.594 9.179-1.916 10.837-2.936 4.215-2.593 7.485-7.355 7.485-10.903 0-3.69-3.373-7.079-7.048-7.079-1.47 0-5.507 1.462-8.973 3.25-4.683 2.415-7.608 3.25-11.39 3.25-3.667 0-7.006-.908-11.951-3.25-3.775-1.788-7.912-3.25-9.194-3.25-2.703 0-5.444 3.41-5.444 6.772 0 1.28.632 3.542 1.405 5.028 2.575 4.949 6.279 7.479 12.84 8.772 8.12 1.6 11.925 1.661 21.433.346m219.961-281.416c-.91-2.37-.763-8.758.237-10.336.675-1.064.975-.997 1.485.332.91 2.37.763 8.758-.237 10.336-.675 1.064-.975.997-1.485-.332"/><path fill="#FE8315" fill-rule="evenodd" d="M241.035 875.935c-6.559-1.328-15.05-6.948-18.293-12.107-4.248-6.758-5.931-16.916-5.56-33.545.27-12.046.59-14.49 2.104-16l1.787-1.783h53.857l1.779 1.78c1.325 1.325 1.87 3.78 2.135 9.623.196 4.313-.127 13.134-.719 19.602-1.192 13.047-3.15 18.453-8.688 23.991-4.314 4.314-12.71 8.238-18.937 8.85-2.75.271-7.01.086-9.465-.411m537 .013c-2.456-.504-6.956-2.449-10-4.32-4.546-2.796-6.116-4.54-8.784-9.766-2.533-4.96-3.496-8.519-4.365-16.145-.614-5.381-.936-14.269-.716-19.75.313-7.78.784-10.35 2.149-11.717l1.748-1.75 22.717-.315c12.494-.174 24.665-.028 27.048.323l4.332.64 1.418 3.393c1.706 4.084 1.891 19.789.367 31.137-.578 4.309-2.178 10.169-3.56 13.046-1.381 2.874-4.347 6.796-6.59 8.717-6.531 5.59-17.163 8.275-25.764 6.507m-56.027-61.866c-1.37-.368-3.051-1.774-3.735-3.125-.942-1.86-1.247-14.664-1.258-52.722L717 707.971l-3.28-3.58c-2.35-2.563-4.55-3.824-7.75-4.442-7.462-1.44-13.476-1.06-20.13 1.271l-6.34 2.22-104.5.28c-83.125.223-105.011.02-107-.994-2.112-1.077-2.547-2.088-2.803-6.52-.644-11.144 5.614-26.956 13.893-35.106 6.332-6.233 16.916-11.789 26.158-13.73 4.067-.856 12.303-1.526 18.752-1.529 6.325-.002 12.288-.222 13.25-.49l1.75-.486v-11.844c0-6.515.67-15.372 1.487-19.683 1.709-9.008 6.744-19.926 12.037-26.102 2.01-2.345 5.752-5.72 8.316-7.5 2.563-1.78 10.06-5.036 16.66-7.236l12-4 .318-3.315c.514-5.352-.935-6.185-10.759-6.185-15.063 0-26.024 4.747-37.128 16.078-6.248 6.376-12.727 16.754-15.131 24.236-.563 1.752-1.316 9.137-1.673 16.411-.52 10.588-.993 13.57-2.373 14.95-1.396 1.396-4.429 1.85-15.988 2.392-15.112.71-18.478 1.53-28.767 7.014-10.784 5.748-23.62 21.025-27.231 32.41-.525 1.655-1.29 8.545-1.7 15.312-.576 9.527-1.127 12.685-2.441 14l-1.697 1.697-28.715-.052c-15.793-.029-30.515-.19-32.715-.358-4.802-.368-15.292-.474-21.5-.218-2.475.102-29.61.247-60.3.321l-55.8.136-1.5-1.5-1.5-1.5 1.583-1.315c1.27-1.053 12.616-1.29 57.3-1.196 30.644.065 57.742.203 60.217.307s7.425.163 11 .131c3.575-.031 7.975-.023 9.779.017 1.803.041 4.503-.814 6-1.9s3.99-4.427 5.54-7.424l2.82-5.449-.341-7c-.26-5.344-1.118-8.656-3.627-14-3.676-7.83-7.543-12.386-14.117-16.63l-4.446-2.87h-46.222c-25.422 0-46.934-.273-47.804-.607s-1.582-1.612-1.582-2.84-.9-5.752-2-10.053c-2.198-8.594-2.532-18.993-.963-30 1.035-7.257 3.59-16.327 5.045-17.909.49-.534 4.672.596 10.127 2.735 12.777 5.012 23.924 7.501 39.659 8.857 23.736 2.045 44.211-1.378 63.882-10.681 5.088-2.407 12.513-6.54 16.5-9.187 9.316-6.182 27.875-24.737 34.05-34.042 10.144-15.286 19.02-37.666 21.277-53.657.384-2.713 1.546-5.74 2.617-6.81l1.927-1.927 70.69.405 70.689.405 7.471 1.648c16.846 3.715 30.898 9.689 45 19.131 5.24 3.51 12.978 9.903 17.192 14.207 18.207 18.59 29.641 40.342 35.393 67.325l2.451 11.5.247 21.49.246 21.488 3 .643 3 .642-3.25.119L720 636v41.206l4.383 4.875c3.303 3.674 4.843 6.544 6.25 11.647l1.867 6.772v110.428l-1.5 1.412c-1.944 1.83-5.847 2.586-8.992 1.742m-490.353-116.91c-2.217-2.45-2.09-4.172.31-4.172 1.87 0 4.035 2.648 4.035 4.934 0 1.686-2.531 1.242-4.345-.763m7.345-37.6c0-.83 3.154-3.572 4.107-3.572.582 0 .54.79-.107 2-.589 1.1-1.73 2-2.535 2s-1.465-.193-1.465-.429m505-27.465c0-1.055 2.479-2.12 4.832-2.075l1.668.032-1.941 1.468c-2.167 1.639-4.559 1.94-4.559.575m10.19-3.857c.194-1.004 1.983-2.29 4.196-3.014 2.123-.696 5.095-2.304 6.604-3.574s4.267-2.913 6.127-3.65 4.277-2.055 5.37-2.927.36.44-1.628 2.915c-2.45 3.05-5.985 5.709-10.968 8.25-4.045 2.063-7.958 3.75-8.696 3.75-.74 0-1.19-.785-1.005-1.75m-23.6-39.104c-.652-1.056 1.943-4.146 3.481-4.146 1.512 0 1.065 1.567-.972 3.41-1.125 1.018-2.149 1.319-2.509.736M749 569c0-.55.702-1 1.559-1s1.28.45.941 1-1.041 1-1.559 1-.941-.45-.941-1m-2.417-46.866c-.43-.697-.513-1.537-.183-1.867.895-.895 1.87.421 1.387 1.871-.338 1.016-.574 1.016-1.204-.004M743 492c0-.55.45-1 1-1s1 .45 1 1-.45 1-1 1-1-.45-1-1m2.657-13.45c-.821-2.142.204-4.405 2.568-5.67 1.428-.765 2.308-.747 3.118.063.837.837.736 1.825-.392 3.835-1.755 3.127-4.43 4.022-5.294 1.771m53.205-3.897c-1.736-3.573-2.937-4.643-6.737-6.005-2.544-.912-6.425-1.662-8.625-1.667-6.512-.014-8.424-.907-9.31-4.348-.574-2.224-1.49-3.232-3.159-3.473-1.393-.202-2.713.307-3.24 1.25-.49.874-2.128 1.59-3.64 1.59s-3.179.411-3.701.914-2.292 1.065-3.931 1.25c-5.217.588-4.35-2.56 2.57-9.33 6.863-6.716 14.972-11.005 23.935-12.66 9.15-1.69 18.95.974 26.997 7.336 3.536 2.795 5.955 5.85 8.079 10.204 3.577 7.333 4.023 11.992 1.335 13.957-1.033.755-2.566 1.075-3.406.71s-2.764-.876-4.273-1.135c-2.127-.365-3.396.228-5.65 2.641-1.6 1.712-3.409 3.113-4.02 3.113-.612 0-2.062-1.956-3.224-4.347M217.725 423.25c-.917-2.06-1.225-16.19-1.225-56.25v-53.5l2.825-5.754c3.81-7.758 9.828-11.985 17.894-12.568 4.75-.344 6.726.05 11.173 2.225 4.219 2.065 8.128 5.651 17.84 16.37 23.323 25.742 30.768 34.51 30.768 36.24 0 1.213-3.654 3.541-12.25 7.807-6.738 3.343-15.247 8.356-18.91 11.141-8.044 6.115-24.619 23.35-29.81 30.995-2.07 3.05-6.077 10.156-8.905 15.794-3.126 6.23-5.738 10.25-6.659 10.25-.833 0-2.067-1.238-2.74-2.75m238.18-8.5c-4.55-9.102-12.876-21.312-19.566-28.691-9.531-10.514-23.404-21.342-34.654-27.047-5.602-2.841-10.838-5.8-11.637-6.576l-1.451-1.41 3.167-4.494c4.013-5.693 32.354-38.67 37.936-44.14 2.31-2.264 5.753-4.854 7.651-5.754 4.944-2.346 11.505-2.076 16.742.689 3.44 1.817 5.065 3.61 7.407 8.177l3 5.85.313 51.073c.329 53.75.013 58.573-3.839 58.573-1.386 0-2.843-1.796-5.07-6.25"/><path fill="#9C995F" fill-rule="evenodd" d="M275.732 846.743c-.301-.783-.201-1.984.221-2.668.593-.958.894-.917 1.315.182.301.783.201 1.984-.221 2.668-.593.958-.894.917-1.315-.182M160.158 650c0-1.375.227-1.937.504-1.25.278.688.278 1.813 0 2.5-.277.688-.504.125-.504-1.25m47.894-48.939c-1.152-.735-.948-1.046 1-1.522 1.346-.329 16.51-.472 33.699-.319 19.765.177 31.342.648 31.5 1.28.325 1.305-64.175 1.852-66.199.561m594.114.063c-1.064-.675-.997-.975.332-1.485.916-.351 4.292-.639 7.502-.639s6.586.288 7.502.64c3.072 1.178-.635 2.33-7.502 2.33-3.575 0-7.1-.381-7.834-.846M545.694 479.36c-1.953-1.953 3.864-3.235 7.808-1.722 1.329.51 1.396.81.332 1.485-1.57.995-7.218 1.159-8.14.237m14.842-.245-1.963-.792 2.51-.63c1.38-.346 3.839-.233 5.463.252s2.279.927 1.454.982-2.4.297-3.5.54c-1.1.241-2.884.083-3.964-.352m17.54-.07c-.959-.592-.918-.893.18-1.314.784-.301 1.985-.201 2.669.221.958.593.917.894-.182 1.315-.783.301-1.984.201-2.668-.221m-364.567-8.154c-.356-1.418-.237-4.112.264-5.986l.911-3.406.737 4.198c.426 2.427.315 4.951-.264 5.985l-1 1.789zm73.657 1.232c-1.057-.67-.976-.983.391-1.508.949-.364 2.62-.377 3.716-.03 1.581.503 1.707.813.61 1.508-1.736 1.1-3.017 1.107-4.717.03m106 0c-1.057-.67-.976-.983.391-1.508.949-.364 2.62-.377 3.716-.03 1.581.503 1.707.813.61 1.508-1.736 1.1-3.017 1.107-4.717.03m-175.689-42.16c-.352-.57-.331-2.868.047-5.105l.687-4.068 1.355 2.354c2.556 4.441 2.655 4.884 1.423 6.368q-2.172 2.616-3.512.45m316.575-69.898c-1.153-.74-.95-1.05 1-1.524 3.255-.792 30.692-.132 31.583.76.384.384.51.742.282.796-.23.054-7.392.278-15.917.498-8.61.222-16.144-.013-16.948-.53m99 0c-2.624-1.683 2.7-2.147 21.2-1.85 10.978.175 17.752.666 17.751 1.284 0 1.298-36.97 1.835-38.95.565m-7.447-3.654c-.813-2.116-.779-160.795.034-162.914.51-1.329.81-1.396 1.485-.332 1.146 1.808 1.127 163.56-.02 164.27-.492.304-1.167-.157-1.5-1.024"/><path fill="#069279" fill-rule="evenodd" d="M498 401.113c-4.286-1.196-5.097-4.657-5.088-21.714.009-17.47.658-19.663 6.145-20.76 1.756-.352 18.429-.639 37.05-.639h33.857l.268-78.465.268-78.464 1.786-1.786 1.785-1.785h49.858l1.785 1.785 1.786 1.786.268 78.464.268 78.465H679l.015-92.25c.01-57.831.377-92.81.985-93.75.533-.825 1.083-1.275 1.222-1s.483 42.35.765 93.5l.513 93 92.215.5 92.214.5 1.786 1.786 1.785 1.785v35.858l-1.786 1.785-1.785 1.786-183.215.156c-100.768.085-184.339-.159-185.714-.543"/><path fill="#0188EA" fill-rule="evenodd" d="M771.75 916.338c.688-.278 1.813-.278 2.5 0 .688.277.125.504-1.25.504s-1.937-.227-1.25-.504m111.208-48.588c2.452-2.612 4.59-4.75 4.75-4.75.751 0-.043.898-4.458 5.042l-4.75 4.458zM93.64 738.502c-.97-2.526-.734-466.803.237-468.336.675-1.064.975-.997 1.485.332.97 2.526.734 466.803-.237 468.336-.675 1.064-.975.997-1.485-.332M756.75 96.338c.688-.278 1.813-.278 2.5 0 .688.277.125.504-1.25.504s-1.937-.227-1.25-.504"/><path fill="#00A1FF" fill-rule="evenodd" d="M119.5 829.276c-1.1-.27-2.601-.98-3.336-1.578-2.323-1.888-8.944-16.081-13.03-27.933-4.4-12.758-7.458-27.063-9.142-42.765-.814-7.582-1.034-79.006-.794-257l.333-246.5 2.142-10c4.12-19.233 9.926-36.872 16.182-49.165 4.203-8.258 13.356-22.576 19.88-31.097 8.242-10.763 25.36-26.774 37.303-34.89 5.789-3.933 15.01-9.403 20.494-12.154 10.67-5.356 25.965-11.002 38.41-14.18 11.722-2.992 30.98-5.838 47.058-6.955 9.353-.65 98.267-.868 250.5-.616l236 .39 11.96 1.625c16.91 2.298 29.229 5.13 42.524 9.777 29.77 10.405 51.583 24.154 72.016 45.392 5.225 5.43 12.543 14.149 16.261 19.374 8.21 11.533 18.53 32.116 22.566 44.999 3.72 11.876 6.813 27.393 8.147 40.856 1.423 14.364 1.408 479.145-.015 496.68-1.103 13.579-4.675 32.66-8.135 43.464-3.79 11.827-10.879 27.703-13.45 30.12l-2.533 2.38-47.68.286c-39.402.237-48.009.046-49.576-1.1-1.335-.976-2.021-2.983-2.32-6.786-.657-8.378.272-9.064 13.328-9.834l10.907-.643 6.788-3.177c12.395-5.8 22.765-18.255 26.322-31.614 1.086-4.081 1.366-18.033 1.363-68.132-.003-68.402-.107-69.903-5.606-80.77-3.699-7.308-13.43-16.514-21.685-20.513-8.14-3.945-16.09-5.143-34.382-5.186L795.1 602l-.96-1.713c-.72-1.287-.002-3.461 2.89-8.75 5.991-10.956 8.06-19.678 8.664-36.537l.52-14.5-2.658-11.753c-1.462-6.464-4.017-15.12-5.678-19.234-1.662-4.115-2.876-8.501-2.7-9.747.232-1.632 1.977-3.09 6.238-5.215 3.254-1.622 7.413-4.447 9.243-6.277 5.29-5.29 7.341-10.252 7.341-17.766 0-3.615-.61-8.02-1.357-9.79-1.911-4.534-10.337-12.054-15.875-14.169-3.687-1.408-6.746-1.7-14.472-1.377l-9.796.407-6.313 3.383c-6.65 3.564-13.592 10.46-17.857 17.738-1.402 2.392-3.836 8.11-5.41 12.708l-2.862 8.359.019 11.741c.013 8.148.495 13.004 1.574 15.867.856 2.269 1.903 6.375 2.328 9.125s1.745 8.375 2.933 12.5c3.896 13.525 4.382 17.049 3.128 22.683-.634 2.85-2.863 7.8-4.952 11-4.838 7.408-15.717 16.971-21.58 18.969-2.478.844-4.758 1.943-5.066 2.442-.999 1.616-3.36.96-4.843-1.344-.795-1.237-2.143-6.342-2.995-11.344-2.506-14.707-9.526-32.543-18.068-45.906-8.162-12.768-25.088-29.183-37.746-36.607-8.931-5.237-21.22-10.426-30.624-12.93-11.205-2.985-41.792-4.084-104.254-3.747-43.411.234-52.878.045-54.25-1.088-1.313-1.085-1.664-3.182-1.67-10-.012-11.942-1.612-24.768-4.526-36.26l-2.466-9.73-.002-56.82-.001-56.818-1.749-3.48c-.961-1.914-3.277-4.502-5.146-5.75-2.54-1.698-4.836-2.27-9.102-2.27-4.274 0-6.549.569-9.071 2.269-3.56 2.399-11.825 11.5-33.209 36.568l-13.083 15.337-2.568-.513c-1.413-.283-6.834-1.685-12.046-3.118-21.47-5.898-55.058-5.15-72.254 1.61-1.501.59-3.796.806-5.098.48-1.386-.349-8.128-7.132-16.263-16.364-18.115-20.56-30.216-33.118-33.593-34.865-3.508-1.814-14.138-1.81-17.615.007-3.074 1.606-7.419 6.044-9.078 9.273-.793 1.544-1.122 19.94-1.122 62.75v60.565l-1.691 9.25c-2.376 12.993-2.354 39.305.043 50.751 4.515 21.566 14.212 42.332 26.788 57.366 8.2 9.802 22.15 22.384 30.513 27.521 2.834 1.741 5.429 3.883 5.765 4.76.877 2.284-2.24 16.568-4.004 18.353-1.247 1.262-7.547 1.584-39.698 2.03l-38.216.53-5.605 2.237c-3.083 1.231-7.687 3.617-10.23 5.302-5.921 3.922-13.164 11.979-16.26 18.087-5.227 10.316-5.374 12.474-5.39 78.88-.01 40.133.364 63.614 1.072 67.449 1.58 8.548 7.19 18.953 13.586 25.196 2.998 2.928 8.236 6.733 11.64 8.457l6.187 3.134 11.325.71c13.681.857 14.675 1.508 14.675 9.604 0 4.335-.424 5.855-1.941 6.965-1.618 1.182-9.87 1.4-49.5 1.303-26.158-.064-48.459-.337-49.559-.608m157.941-.695c-1.517-1.11-1.941-2.63-1.941-6.965 0-3.99.5-6.045 1.786-7.33l1.785-1.786h476.09l1.499 2c2.118 2.827 1.317 12.313-1.196 14.15-1.538 1.124-41.468 1.35-238.964 1.35H279.382zm583.412-430.223 6.147-.643v-35.484l-16.974-.39c-20.57-.471-22.553-1.367-12.807-5.786 3.619-1.641 7.525-4.185 8.68-5.654 2.34-2.976 2.686-7.665 1.023-13.901-.586-2.2-4.87-13.675-9.518-25.5a13056 13056 0 0 1-11.368-29c-1.605-4.125-7.262-18.525-12.573-32s-12.745-32.701-16.52-42.724c-3.776-10.024-7.58-19.606-8.453-21.295-2.092-4.045-7.063-6.973-11.85-6.977-2.122-.002-9.547 1.378-16.5 3.067-16.771 4.075-15.733 3.716-19.206 6.638-2.353 1.98-3.327 2.298-4.239 1.386-.725-.725-1.324-5.616-1.547-12.64L734.784 166h-52.27c-40.79 0-52.499.276-53.314 1.259-.586.706-1.188 7.76-1.372 16.083l-.328 14.823-1.941 1.418c-1.54 1.124-6.638 1.417-24.685 1.417-12.51 0-23.906-.442-25.327-.982-1.42-.54-3.078-2.228-3.684-3.75s-1.385-8.843-1.732-16.268l-.631-13.5-22.374-.27c-15.663-.188-22.787.074-23.75.873-1.15.955-1.376 16.849-1.376 96.96 0 75.572-.264 95.984-1.25 96.6-.687.43-6.425 1.02-12.75 1.31l-11.5.527-.301 6.5c-.166 3.575-.01 11.561.348 17.747l.65 11.247 176.151.256c96.884.14 177.323.367 178.755.503s5.37-.042 8.75-.395m-121.618-37.395c-1.245-.5-2.708-2.076-3.25-3.501-1.126-2.963-1.213-148.427-.09-152.462 1.958-7.04 2.44-5.967 43.71 97.5 4.169 10.45 10.25 25.926 13.516 34.39s7.05 16.712 8.408 18.327c1.36 1.615 2.471 3.363 2.471 3.884 0 .522-1.154 1.387-2.565 1.924-3.244 1.233-59.114 1.178-62.2-.062"/><path fill="#EF6299" fill-rule="evenodd" d="M336 503.626c-5.806-4.29-13.752-12.844-15.014-16.164-1.746-4.592-1.163-9.098 1.603-12.385 2.177-2.587 3.297-3.077 7.04-3.077 2.477 0 6.189.887 8.371 2 2.156 1.1 4.856 2 6 2s3.844-.9 6-2 5.698-2 7.871-2c3.184 0 4.454.597 6.54 3.077 3.718 4.418 3.392 8.386-1.275 15.518-2.126 3.248-5.163 7.097-6.75 8.553-4.96 4.552-10.56 7.853-13.276 7.827-1.435-.013-4.635-1.52-7.11-3.35M807.5 361.07c-7.48-1.805-9.714-4.538-14.773-18.071-3.333-8.916-10.652-27.491-19.897-50.5-34.763-86.512-37.103-92.597-37.103-96.503 0-4.718 2.632-9.614 6.145-11.43 3.766-1.948 30.172-8.567 34.176-8.567 4.056 0 8.948 2.343 12.388 5.933 1.827 1.907 5.447 10.029 11.01 24.704 7.457 19.67 10.904 28.51 26.075 66.863 2.393 6.05 6.115 15.725 8.27 21.5 2.157 5.775 6.717 17.356 10.135 25.736 3.825 9.376 6.434 17.353 6.784 20.74l.568 5.506-2.554 3.859c-2.996 4.527-9.082 7.702-18.655 9.732-6.947 1.472-17.56 1.707-22.569.498m-286.194-2.484-2.806-2.414V169.5l1.859-2.74c1.154-1.703 3.41-3.16 5.949-3.843 2.522-.68 11.074-.97 22.319-.759l18.23.342 2.767 2.068c1.523 1.137 3.132 3.387 3.576 5 .95 3.447 1.083 183.467.139 186.125-.354.994-1.32 2.595-2.146 3.557L569.69 361h-45.578z"/><path fill="#FB6A19" fill-rule="evenodd" d="M449.5 703.3c-3.4-.797-4.5-3.345-4.5-10.426 0-9.47 2.43-20.176 6.443-28.382 6.815-13.936 21.476-26.514 37.286-31.988 6.17-2.136 10.293-2.802 20.021-3.232l12.25-.542v-7.8c0-10.983 2.333-21.117 7.017-30.474 6.995-13.976 15.509-22.564 29.366-29.622 7.556-3.849 18.536-6.178 25.233-5.354 3.833.472 5.807 1.352 7.875 3.51 1.602 1.673 2.759 3.998 2.759 5.547 0 4.393-4.055 7.372-13.753 10.103-4.837 1.362-10.865 3.539-13.395 4.837-8.626 4.425-17.782 16.007-21.357 27.014-.538 1.655-1.263 10.81-1.611 20.346l-.634 17.338-2.806 2.412-2.806 2.413-9.694.018c-5.332.01-13.633.432-18.447.939-6.465.68-10.405 1.734-15.076 4.034-9.566 4.709-15.999 10.869-20.168 19.311-2.804 5.68-3.776 9.195-4.607 16.662-.58 5.205-1.453 10.208-1.94 11.118s-2.307 1.938-4.045 2.286c-3.483.696-10.293.662-13.411-.068m-89.994-1.29c-.395-.64-22.045-.928-61.11-.812l-60.496.178-5.2-5.202-5.2-5.203.002-6.76c.001-5.588.559-7.893 3.213-13.284 3.985-8.094 14.927-19.74 21.785-23.187 15.243-7.66 27.778-8.994 80.5-8.567l40.5.327 4.915 2.89c2.704 1.588 6.823 4.795 9.154 7.126 4.624 4.625 10.703 16.363 12.16 23.484 1.236 6.034-.503 13.415-4.703 19.96-2.36 3.676-4.708 5.859-8.22 7.638l-4.916 2.492-3.262-1.18c-2.473-.894-4.837-.905-9.777-.045-7.946 1.384-8.573 1.394-9.345.144m361.502-65.846c-4.282-1.29-4.977-4.333-4.993-21.849-.008-8.902.418-17.324.948-18.716 1.213-3.19 8.572-8.599 11.7-8.599 1.66 0 5.116-2.798 11.624-9.413l9.262-9.413 1.36-6.13c1.48-6.673 1.029-13.82-1.29-20.43-2.318-6.605-4.594-17.515-3.985-19.102.308-.804-.496-3.16-1.787-5.237L741.5 513.5l.058-14.25.058-14.252 3.192-4.528c2.073-2.94 3.192-5.718 3.192-7.923 0-3.892 3.58-8.761 8.198-11.15 1.628-.841 3.598-3.059 4.38-4.927.78-1.869 2.362-3.903 3.515-4.52 1.712-.916 2.49-.752 4.251.897 3.481 3.259 11.71 6.322 16.15 6.011 2.204-.154 5.064.085 6.357.53 1.448.5 2.773.388 3.45-.289.604-.604 1.667-1.099 2.36-1.099.695 0 3.36 2.039 5.924 4.531 5.34 5.189 8.009 6.839 9.893 6.116.728-.28 1.632-2.337 2.01-4.572.675-3.999 1.907-5.863 2.858-4.325.266.43-.005 2.915-.6 5.521l-1.085 4.739 2.17 2.31c1.193 1.27 2.169 3.085 2.169 4.034 0 2.732-3.628 9.124-7.257 12.788-1.83 1.847-5.896 4.878-9.035 6.736-3.658 2.165-5.708 4.04-5.708 5.221 0 1.014 1.371 5.569 3.047 10.122 4.651 12.636 8.144 29.822 8.187 40.279.056 13.592-3.005 27.195-8.606 38.248-3.59 7.085-13.986 20.598-18.941 24.62-2.303 1.87-6.662 4.661-9.687 6.203-3.025 1.541-6.772 3.844-8.327 5.116S760.312 628 759.658 628s-2.773.85-4.71 1.888c-8.214 4.402-28.008 8.062-33.94 6.276m87.545-182.079a1.117 1.117 0 0 1 .362-1.532 1.117 1.117 0 0 1 1.532.362c.322.52.16 1.21-.362 1.532-.52.322-1.21.16-1.532-.362"/><path fill="#47704C" fill-rule="evenodd" d="M0 512V0h1024v1024H0zm794.376 400.682c25.116-5.075 52.115-16.528 69.124-29.324 11.5-8.652 27.273-24.42 35.543-35.534 9.122-12.257 21.325-36.866 25.442-51.305.938-3.29 2.888-11.165 4.332-17.5l2.627-11.519.337-254c.233-175.981.007-257.25-.736-264.583-2.149-21.185-9.03-43.18-19.548-62.475-12.7-23.3-36.572-47.664-60.497-61.747-20.743-12.209-42.17-19.784-69-24.392L771.5 98.5h-510l-12 1.848c-22.969 3.536-42.88 9.752-60.93 19.019-6.965 3.576-16.305 9.12-20.755 12.318-8.34 5.994-27.661 24.368-33.982 32.315-10.127 12.733-22.404 34.247-26.249 46-4.49 13.724-7.81 25.983-9.311 34.381l-1.63 9.119-.377 240c-.259 164.988-.037 245.753.709 258.407.629 10.668 1.945 22.375 3.13 27.846 3.216 14.843 9.1 31.71 14.562 41.747.898 1.65 3.38 6.354 5.516 10.454 4.576 8.781 9.465 15.433 19.889 27.063 14.516 16.196 32.757 29.807 52.214 38.962 17.231 8.108 35.324 13.305 55.31 15.889 3.92.506 121.663.83 272.404.75l265.5-.143z"/><path fill="#0365D2" fill-rule="evenodd" d="M257.5 917.885c-23.053-2.217-47.01-8.676-66.22-17.852-5.695-2.72-15.626-8.426-22.068-12.678-8.772-5.791-14.99-11.01-24.774-20.793-9.483-9.484-15.03-16.05-20.25-23.966-3.953-5.998-7.188-11.455-7.188-12.128s.744-1.84 1.654-2.596c1.351-1.121 10.487-1.372 49.964-1.372h48.31l1.782 1.782c1.472 1.471 1.88 4.17 2.344 15.5.632 15.413 1.385 17.672 7.84 23.503 5.337 4.822 13.338 7.17 21.756 6.383 3.447-.322 8.004-1.471 10.127-2.554 4.398-2.244 10.796-8.918 12.382-12.916.589-1.484 1.373-8.436 1.742-15.449.537-10.193 1.023-13.101 2.421-14.5l1.75-1.749h474.857l1.774 1.775c1.452 1.451 1.88 4.181 2.351 15 .47 10.778.97 13.983 2.703 17.32 1.169 2.252 3.72 5.495 5.67 7.207 3.981 3.495 11.862 6.198 18.073 6.198s14.092-2.703 18.073-6.198c1.95-1.712 4.501-4.955 5.67-7.207 1.733-3.337 2.233-6.542 2.703-17.32.471-10.816.9-13.55 2.35-15l1.774-1.775 44.925-.289c24.71-.159 46.406.093 48.216.56 5.52 1.422 4.923 4.081-3.838 17.118-11.073 16.478-28.682 33.983-45.373 45.104-6.875 4.58-15.82 9.872-19.879 11.758-16.34 7.593-33.504 12.75-53.121 15.958l-10.5 1.717-254.5.162c-139.975.09-258.55-.227-263.5-.703M684 361.14c-1.375-.399-3.054-1.874-3.73-3.278-.947-1.963-1.245-24.57-1.29-97.868-.042-67.506.259-95.633 1.03-96.404.732-.732 9.783-1.09 27.512-1.09h26.422l2.278 2.278 2.278 2.278v190.873l-1.784 1.785-1.784 1.786-24.216.182c-13.319.1-25.341-.143-26.716-.542"/><path fill="#211C39" fill-rule="evenodd" d="M311.081 535.462c-6.826-1.9-11.409-4.714-14.7-9.03-3.407-4.466-3.566-9.542-.404-12.907 1.304-1.389 3.372-2.525 4.595-2.525s4.182 1.12 6.576 2.488c3.573 2.043 5.705 2.49 11.91 2.5l7.56.012 5.812-3.5c7.764-4.675 12.154-4.67 19.524.026l5.453 3.474 7.547-.005c6.265-.004 8.225-.424 11.546-2.469 5.132-3.16 9.485-3.236 12.326-.212 4.303 4.58 1.816 12.035-5.874 17.605-5.27 3.819-17.034 6.559-24.741 5.763-3.05-.315-7.763-1.722-10.471-3.127S342.223 531 341.5 531s-3.68 1.227-6.57 2.727c-3.879 2.011-6.982 2.794-11.843 2.984-3.646.143-9.007-.414-12.006-1.249m-34.094-63.75c-3.031-.69-7.13-2.255-9.107-3.477-4.616-2.853-8.449-9.832-7.493-13.642.893-3.556 4.931-7.593 7.596-7.593 1.14 0 4.748 1.35 8.017 3 4.898 2.473 7.16 3 12.87 3 5.763 0 7.886-.504 12.63-3 3.137-1.65 6.377-3 7.202-3 .824 0 3.085 1.587 5.025 3.527l3.526 3.526-.579 3.566c-.8 4.93-4.77 9.765-10.159 12.374-3.454 1.672-6.868 2.29-14.277 2.585-5.697.227-12.026-.133-15.25-.867m107.197.22c-5.706-1.124-10.687-4.307-13.717-8.766-3.22-4.738-3.179-9.167.122-13.09 3.3-3.92 7.033-4.017 12.608-.326 3.505 2.32 5.415 2.801 12.229 3.077l8.074.328 5.731-3.078c3.152-1.692 7.111-3.077 8.798-3.077 4.067 0 7.971 4.161 7.971 8.496 0 3.647-4.238 10.12-8.419 12.859-5.859 3.839-22.83 5.656-33.397 3.576"/></svg>