<?xml version="1.0" encoding="UTF-8"?>
<!-- Generator: visioncortex VTracer 0.6.4 -->
<svg version="1.1" xmlns="http://www.w3.org/2000/svg" width="1024" height="1024">
<path d="M0 0 C1.35 -0.02 1.35 -0.02 2.73 -0.04 C4.07 -0.08 4.07 -0.08 5.44 -0.12 C8.88 0.4 11.4 1.4 14.46 3.04 C17.95 5.27 20.71 8.1 23.55 11.09 C24.46 12.03 24.46 12.03 25.4 12.98 C28.99 16.7 32.5 20.47 35.85 24.41 C37.85 26.76 39.91 29.05 41.98 31.34 C44.69 34.34 47.39 37.35 50.05 40.4 C50.6 41.03 51.16 41.66 51.73 42.3 C53.02 43.8 54.26 45.32 55.48 46.87 C56.16 47.7 56.85 48.54 57.55 49.4 C58.16 50.17 58.77 50.95 59.39 51.75 C60.08 52.27 60.77 52.8 61.48 53.34 C64.39 53.3 64.39 53.3 67.48 52.34 C68.59 52.04 69.69 51.74 70.83 51.43 C72.06 51.09 73.28 50.75 74.55 50.4 C88.65 46.73 103.47 45.54 117.99 46.79 C128.36 47.92 138.64 50.17 148.44 53.75 C150.77 54.52 150.77 54.52 154.48 54.34 C156.06 52.87 156.06 52.87 157.42 50.77 C160.74 46.24 164.29 42 167.98 37.77 C168.56 37.12 169.13 36.46 169.72 35.78 C171.31 33.96 172.89 32.15 174.48 30.34 C175.46 29.22 175.46 29.22 176.46 28.09 C177.51 26.89 178.56 25.69 179.61 24.5 C181.2 22.66 182.77 20.81 184.32 18.96 C184.84 18.34 185.36 17.73 185.9 17.09 C186.92 15.88 187.94 14.66 188.96 13.43 C192.45 9.3 196.2 5.65 200.48 2.34 C202.92 0.96 202.92 0.96 205.48 0.34 C208.44 0.05 210.61 -0.09 213.48 0.34 C216.41 1.32 218.93 2.6 221.48 4.34 C223.86 6.65 223.86 6.65 225.48 9.34 C227.35 14.44 227.72 18.97 227.75 24.39 C227.75 25.43 227.74 26.46 227.74 27.53 C227.75 29.19 227.75 29.19 227.75 30.88 C227.76 33.28 227.76 35.67 227.76 38.07 C227.76 41.88 227.77 45.68 227.79 49.49 C227.83 60.31 227.86 71.13 227.87 81.95 C227.87 88.58 227.89 95.21 227.93 101.84 C227.94 104.35 227.94 106.86 227.94 109.38 C227.91 121.64 227.9 133.2 231.51 145.01 C234.26 154.39 234.61 164.13 234.53 173.84 C234.53 174.67 234.52 175.49 234.52 176.33 C234.51 178.33 234.5 180.34 234.48 182.34 C235.32 182.33 235.32 182.33 236.17 182.33 C249.86 182.31 263.55 182.29 277.23 182.28 C283.85 182.28 290.47 182.27 297.09 182.26 C303.51 182.25 309.92 182.24 316.33 182.24 C318.75 182.24 321.17 182.24 323.6 182.23 C336.61 182.2 349.61 182.33 362.62 182.76 C363.77 182.8 364.92 182.84 366.11 182.88 C379.82 183.39 392.72 185.55 405.59 190.55 C419.7 196.37 432.31 204.25 443.61 214.52 C454.36 224.64 462.78 236.11 469.46 249.26 C476.72 264.04 480.87 279.1 483.48 295.34 C484.47 295.67 485.46 296 486.48 296.34 C486.48 295.68 486.48 295.02 486.48 294.34 C487.54 293.88 488.59 293.43 489.67 292.96 C490.31 292.68 490.95 292.4 491.61 292.12 C493.09 291.5 494.59 290.97 496.11 290.46 C498.65 289.4 498.65 289.4 500.86 287.15 C501.73 286.22 502.59 285.29 503.48 284.34 C504.31 283.61 504.31 283.61 505.14 282.88 C508 280.3 510.21 277.79 512.23 274.5 C514.52 270.15 516.67 265.92 517.42 261.02 C517.48 257.34 517.07 253.97 516.48 250.34 C516.81 249.68 517.14 249.02 517.48 248.34 C516.82 248.34 516.16 248.34 515.48 248.34 C515.29 247.52 515.1 246.7 514.9 245.85 C514.64 244.77 514.38 243.7 514.11 242.59 C513.73 240.98 513.73 240.98 513.34 239.35 C512.61 236.77 511.7 234.71 510.48 232.34 C510.36 229.77 510.36 229.77 510.48 227.34 C510.48 226.35 510.48 225.36 510.48 224.34 C509.82 223.68 509.16 223.02 508.48 222.34 C507.18 218.3 506.53 214.19 506.3 209.96 C506.48 207.34 506.48 207.34 507.48 204.34 C507.32 203.49 507.15 202.64 506.98 201.77 C506.32 197.21 506.62 192.87 507.48 188.34 C508.12 186.99 508.78 185.65 509.48 184.34 C509.99 182.89 510.47 181.43 510.92 179.96 C512.13 176.22 513.62 172.8 515.48 169.34 C516.14 169.34 516.8 169.34 517.48 169.34 C517.57 168.77 517.66 168.2 517.75 167.62 C518.48 165.34 518.48 165.34 520.12 163.12 C523.94 158.87 527.42 155.12 532.48 152.34 C541.05 148.17 541.05 148.17 545.48 147.34 C551.45 146.91 557.45 146.72 563.34 147.91 C567.13 149.24 570.02 150.98 573.21 153.43 C576.61 156.37 579.67 159.14 582.21 162.87 C583.38 165.13 584.08 166.84 584.48 169.34 C584.78 173.03 584.77 176.65 584.48 180.34 C583.21 184.53 581.25 187.87 578.8 191.46 C576.62 194.25 574.46 196.28 571.48 198.21 C568.27 200.05 565.06 201.35 561.48 202.34 C561.15 204.32 560.82 206.3 560.48 208.34 C561.14 208.34 561.8 208.34 562.48 208.34 C568.01 223.74 572.82 239.02 572.92 255.52 C572.77 266.91 571.02 277.59 567.11 288.34 C565.04 293.4 562.49 297.78 559.48 302.34 C559.48 303 559.48 303.66 559.48 304.34 C560.16 304.33 560.84 304.31 561.54 304.3 C592 303.9 592 303.9 602.45 307.3 C609.47 310.22 615.74 314.37 621.48 319.34 C625.39 323.28 628.46 327.36 631.02 332.29 C634.13 339.35 636.16 346.45 636.67 354.18 C636.75 357.31 636.77 360.44 636.76 363.57 C636.76 364.75 636.77 365.94 636.77 367.15 C636.79 371.03 636.79 374.92 636.79 378.8 C636.79 380.82 636.79 382.85 636.79 384.88 C636.81 391.25 636.81 397.61 636.8 403.98 C636.79 410.52 636.81 417.06 636.83 423.6 C636.85 429.24 636.85 434.88 636.85 440.52 C636.85 443.88 636.85 447.24 636.86 450.59 C636.88 454.34 636.87 458.09 636.86 461.84 C636.86 462.93 636.87 464.02 636.88 465.15 C636.83 472.57 635.66 479.24 633.48 486.34 C631.06 492.41 627.51 497.6 623.3 502.59 C617.9 508.28 611.93 512.04 605.01 515.62 C599.7 517.92 594.66 518.61 588.94 518.96 C585.12 519.14 581.31 519.26 577.48 519.34 C577.5 520.86 577.5 520.86 577.52 522.41 C577.55 526.2 577.58 530 577.59 533.8 C577.6 535.43 577.62 537.07 577.64 538.7 C577.81 555.97 577.81 555.97 575.48 563.34 C573.9 566.69 571.89 569.51 569.48 572.34 C566.48 575.11 563.4 576.93 559.67 578.59 C555.25 579.63 551.04 580.38 546.48 580.34 C541.39 579.48 536.76 577.69 532.23 575.21 C530.07 573.74 528.45 572.3 526.73 570.33 C525.05 568 523.68 565.95 522.48 563.34 C519.3 549 520.48 534.02 520.48 519.34 C362.74 519.34 205 519.34 42.48 519.34 C42.15 530.56 41.82 541.78 41.48 553.34 C38.48 564.34 38.48 564.34 36.73 567.65 C33.91 571.02 31.14 573.87 27.48 576.34 C24.54 577.9 21.77 578.75 18.48 579.34 C12.76 579.88 7.24 579.97 1.61 578.68 C-1.78 577.48 -4.61 575.98 -7.54 573.9 C-10.12 571.64 -12.02 569.24 -13.67 566.24 C-15.83 560.98 -16.77 556.09 -17.05 550.45 C-17.18 546.19 -17.23 541.92 -17.27 537.65 C-17.29 535.87 -17.32 534.09 -17.36 532.31 C-17.43 527.98 -17.48 523.66 -17.52 519.34 C-18.09 519.32 -18.67 519.31 -19.26 519.29 C-36.3 518.83 -36.3 518.83 -42.64 516.65 C-47.69 514.49 -52.13 511.62 -56.52 508.34 C-57.57 507.57 -58.62 506.81 -59.7 506.02 C-64.12 501.81 -67.06 497.05 -69.93 491.7 C-73.03 485.33 -74.55 479.33 -75.52 472.34 C-75.78 468.3 -75.81 464.28 -75.81 460.23 C-75.81 459.08 -75.82 457.92 -75.83 456.73 C-75.85 452.94 -75.85 449.15 -75.85 445.36 C-75.86 443.37 -75.86 441.38 -75.87 439.4 C-75.88 433.16 -75.89 426.93 -75.89 420.69 C-75.89 414.3 -75.91 407.91 -75.94 401.52 C-75.96 395.99 -75.97 390.47 -75.97 384.95 C-75.97 381.66 -75.98 378.38 -76 375.1 C-76.07 362.52 -76.12 350.56 -72.64 338.4 C-70.86 333.56 -68.61 329.44 -65.52 325.34 C-64.93 324.56 -64.34 323.78 -63.74 322.98 C-59.57 317.9 -55.02 314.21 -49.39 310.84 C-43.01 307.5 -36.63 305.35 -29.52 304.34 C-27.12 304.22 -24.72 304.16 -22.32 304.13 C-21.62 304.12 -20.93 304.11 -20.22 304.1 C-17.94 304.07 -15.67 304.04 -13.4 304.02 C-11.82 304 -10.23 303.98 -8.65 303.96 C-4.5 303.9 -0.34 303.85 3.81 303.8 C8.05 303.75 12.3 303.7 16.54 303.64 C24.85 303.54 33.17 303.43 41.48 303.34 C41.99 301.07 42.49 298.79 42.98 296.52 C43.26 295.26 43.54 293.99 43.83 292.69 C44.58 289.42 44.58 289.42 44.48 286.34 C42.63 284.72 42.63 284.72 40.17 283.21 C34.29 279.27 28.88 274.91 23.48 270.34 C22.63 269.61 21.77 268.89 20.88 268.15 C9.66 258.42 1.61 246.81 -5.6 233.93 C-13.03 220.34 -17.75 205.54 -20.21 190.26 C-22.59 173.9 -21.81 157.47 -18.49 141.31 C-17.38 135.26 -17.27 129.42 -17.35 123.29 C-17.36 122.14 -17.36 120.99 -17.37 119.81 C-17.38 117.33 -17.4 114.86 -17.43 112.38 C-17.46 108.46 -17.48 104.53 -17.5 100.61 C-17.55 89.47 -17.62 78.32 -17.71 67.18 C-17.76 60.34 -17.8 53.51 -17.82 46.68 C-17.83 44.08 -17.85 41.48 -17.88 38.88 C-17.92 35.25 -17.93 31.62 -17.94 27.99 C-17.96 26.39 -17.96 26.39 -17.99 24.76 C-17.98 20.93 -17.94 17.54 -16.66 13.91 C-15.3 11.11 -13.8 8.65 -11.73 6.31 C-10.88 5.64 -10.88 5.64 -10.02 4.96 C-9.16 4.27 -9.16 4.27 -8.3 3.56 C-5.53 1.66 -3.37 0.45 0 0 Z " fill="#FD8315" transform="translate(235.515625,295.6640625)"/>
<path d="M0 0 C0.5 0.99 0.5 0.99 1 2 C1.04 3.74 1.01 5.47 0.96 7.21 C0.42 21.24 0.42 21.24 2.94 34.94 C3.85 37.38 4.84 39.67 6 42 C5.46 42.09 4.91 42.19 4.35 42.29 C-11.36 44.94 -11.36 44.94 -26 51 C-30.74 54.05 -34.65 57.41 -38.29 61.71 C-41.93 66.55 -45.21 71.2 -47 77 C-47.98 81.97 -48.26 86.79 -47.56 91.81 C-47.07 94.04 -47.07 94.04 -46 96 C-44.17 97.72 -42.36 98.9 -40.17 100.12 C-36.65 101.55 -33.4 101.98 -29.61 102.13 C-28.29 102.13 -26.98 102.13 -25.63 102.13 C-24.89 102.14 -24.16 102.14 -23.4 102.14 C-20.93 102.15 -18.45 102.15 -15.98 102.15 C-14.19 102.15 -12.4 102.15 -10.61 102.16 C-5.69 102.17 -0.77 102.17 4.15 102.17 C9.46 102.18 14.76 102.19 20.07 102.2 C32.88 102.22 45.7 102.23 58.52 102.24 C64.56 102.24 70.59 102.25 76.63 102.25 C96.7 102.27 116.77 102.28 136.84 102.29 C142.04 102.29 147.25 102.29 152.46 102.3 C154.4 102.3 154.4 102.3 156.38 102.3 C177.35 102.3 198.31 102.33 219.28 102.36 C240.8 102.4 262.33 102.41 283.86 102.42 C295.94 102.42 308.03 102.43 320.11 102.45 C330.41 102.48 340.7 102.48 350.99 102.47 C356.24 102.47 361.49 102.47 366.74 102.49 C371.55 102.51 376.36 102.51 381.18 102.49 C382.91 102.49 384.65 102.49 386.38 102.51 C395.92 102.57 404.04 101.94 413.16 98.88 C415.67 98.1 417.61 97.71 420.22 97.72 C421.3 97.83 422.38 97.95 423.5 98.06 C424.6 98.16 425.71 98.25 426.84 98.35 C430.34 99.07 432.93 100.19 436 102 C437.99 103.86 439.36 105.79 441 108 C441.33 108.66 441.66 109.32 442 110 C442.1 111.38 442.15 112.77 442.16 114.15 C442.17 115.02 442.18 115.89 442.19 116.79 C442.19 117.74 442.2 118.7 442.21 119.68 C442.22 120.69 442.23 121.69 442.24 122.73 C442.27 126.06 442.29 129.39 442.32 132.73 C442.34 135.03 442.36 137.34 442.38 139.65 C442.43 145.73 442.48 151.8 442.53 157.88 C442.58 164.08 442.64 170.28 442.69 176.48 C442.8 188.66 442.9 200.83 443 213 C446.3 213 449.6 213 453 213 C453.05 198.7 453.08 184.4 453.1 170.1 C453.11 163.46 453.13 156.82 453.15 150.18 C453.17 143.77 453.18 137.35 453.19 130.94 C453.19 128.5 453.2 126.06 453.21 123.61 C453.23 120.18 453.23 116.75 453.23 113.32 C453.23 112.32 453.24 111.32 453.25 110.29 C453.23 104.01 452.68 98.06 451 92 C449.86 89.19 448.72 86.5 447 84 C446.01 83.34 445.02 82.68 444 82 C443.67 85.96 443.34 89.92 443 94 C442.67 94 442.34 94 442 94 C440.85 84.91 440.85 84.91 441.5 80.94 C441.66 80.3 441.83 79.66 442 79 C441.67 78.67 441.34 78.34 441 78 C440.91 74.9 440.88 71.82 440.9 68.71 C440.9 67.78 440.91 66.85 440.91 65.89 C440.91 62.91 440.92 59.92 440.94 56.94 C440.94 54.92 440.95 52.9 440.95 50.88 C440.96 45.92 440.98 40.96 441 36 C441.91 36 441.91 36 442.84 36.01 C443.65 36.01 444.45 36.01 445.28 36.02 C446.07 36.02 446.86 36.02 447.68 36.03 C458.48 35.91 469.01 33.47 479.1 29.75 C487.45 26.44 494.85 21.81 501.71 16.04 C507.21 11.13 512.19 6.34 516 0 C516.96 0.17 517.92 0.33 518.91 0.5 C523.45 1.15 527.92 1.02 532.5 0.94 C542.15 0.87 551.71 0.96 560.98 3.96 C567.99 6.9 574.26 11.04 580 16 C583.9 19.94 586.98 24.02 589.53 28.95 C592.65 36.01 594.67 43.12 595.19 50.84 C595.27 53.97 595.28 57.1 595.27 60.24 C595.28 61.42 595.28 62.6 595.29 63.82 C595.3 67.7 595.3 71.58 595.3 75.46 C595.3 77.49 595.31 79.52 595.31 81.54 C595.32 87.91 595.32 94.28 595.32 100.65 C595.31 107.18 595.32 113.72 595.34 120.26 C595.36 125.9 595.37 131.54 595.36 137.19 C595.36 140.54 595.37 143.9 595.38 147.26 C595.39 151.01 595.38 154.76 595.37 158.51 C595.38 159.6 595.39 160.69 595.4 161.81 C595.35 169.23 594.18 175.91 592 183 C589.57 189.07 586.02 194.27 581.81 199.25 C576.42 204.94 570.45 208.7 563.52 212.28 C558.22 214.58 553.17 215.27 547.46 215.62 C543.64 215.81 539.82 215.92 536 216 C536.02 217.52 536.02 217.52 536.03 219.07 C536.07 222.87 536.09 226.66 536.11 230.46 C536.12 232.1 536.13 233.73 536.15 235.37 C536.33 252.63 536.33 252.63 534 260 C532.41 263.36 530.4 266.17 528 269 C524.99 271.78 521.92 273.59 518.19 275.25 C513.76 276.29 509.56 277.05 505 277 C499.91 276.15 495.27 274.35 490.75 271.88 C488.58 270.41 486.97 268.97 485.24 266.99 C483.57 264.67 482.2 262.61 481 260 C477.82 245.67 479 230.68 479 216 C321.26 216 163.52 216 1 216 C0.67 227.22 0.34 238.44 0 250 C-3 261 -3 261 -4.75 264.31 C-7.57 267.68 -10.35 270.53 -14 273 C-16.94 274.57 -19.72 275.41 -23 276 C-28.73 276.54 -34.24 276.63 -39.88 275.34 C-43.27 274.14 -46.1 272.64 -49.03 270.56 C-51.6 268.3 -53.5 265.91 -55.15 262.9 C-57.32 257.65 -58.25 252.75 -58.53 247.12 C-58.67 242.85 -58.72 238.58 -58.75 234.31 C-58.78 232.53 -58.81 230.75 -58.84 228.97 C-58.91 224.65 -58.96 220.32 -59 216 C-59.86 215.98 -59.86 215.98 -60.74 215.96 C-77.78 215.5 -77.78 215.5 -84.12 213.31 C-89.17 211.15 -93.62 208.28 -98 205 C-99.05 204.24 -100.1 203.47 -101.19 202.69 C-105.6 198.47 -108.54 193.71 -111.42 188.36 C-114.52 182 -116.03 176 -117 169 C-117.27 164.96 -117.29 160.94 -117.29 156.9 C-117.3 155.74 -117.3 154.59 -117.31 153.39 C-117.33 149.6 -117.33 145.81 -117.34 142.02 C-117.34 140.03 -117.35 138.05 -117.35 136.06 C-117.37 129.83 -117.37 123.59 -117.37 117.35 C-117.37 110.96 -117.39 104.57 -117.42 98.18 C-117.45 92.66 -117.46 87.14 -117.46 81.61 C-117.46 78.33 -117.46 75.05 -117.48 71.76 C-117.55 59.18 -117.6 47.22 -114.13 35.06 C-112.35 30.23 -110.09 26.11 -107 22 C-106.41 21.22 -105.83 20.44 -105.22 19.64 C-101.06 14.56 -96.5 10.87 -90.88 7.5 C-84.5 4.17 -78.12 2.01 -71 1 C-68.6 0.89 -66.2 0.82 -63.8 0.79 C-62.76 0.78 -62.76 0.78 -61.7 0.76 C-59.43 0.73 -57.16 0.71 -54.88 0.68 C-53.3 0.66 -51.72 0.64 -50.13 0.62 C-45.98 0.57 -41.83 0.52 -37.68 0.47 C-33.43 0.42 -29.19 0.36 -24.95 0.31 C-16.63 0.2 -8.32 0.1 0 0 Z " fill="#FEC710" transform="translate(277,599)"/>
<path d="M0 0 C2.54 -0.1 5.05 -0.13 7.59 -0.12 C8.4 -0.12 9.2 -0.13 10.04 -0.13 C12.78 -0.13 15.52 -0.12 18.27 -0.12 C20.24 -0.12 22.21 -0.12 24.18 -0.12 C29.63 -0.13 35.08 -0.12 40.53 -0.12 C46.39 -0.11 52.26 -0.11 58.12 -0.11 C68.29 -0.11 78.46 -0.11 88.63 -0.11 C99.3 -0.1 109.97 -0.1 120.64 -0.09 C121.63 -0.09 121.63 -0.09 122.65 -0.09 C126.01 -0.09 129.38 -0.09 132.74 -0.09 C156.59 -0.09 180.45 -0.08 204.3 -0.08 C227.48 -0.07 250.65 -0.06 273.83 -0.05 C274.55 -0.05 275.26 -0.05 276 -0.05 C283.17 -0.05 290.34 -0.05 297.51 -0.05 C312.11 -0.05 326.72 -0.05 341.33 -0.04 C342 -0.04 342.67 -0.04 343.36 -0.04 C388.24 -0.03 433.12 -0.02 478 0 C478.33 0.66 478.66 1.32 479 2 C479.06 4.45 479.07 6.87 479.03 9.32 C479.01 10.82 479 12.32 478.99 13.82 C478.97 16.18 478.94 18.54 478.9 20.9 C478.67 33.09 478.67 33.09 481 45 C482.08 47.63 483.32 49.61 484.96 51.92 C487.41 54.42 489.84 55.88 492.94 57.5 C496.15 58.92 499.18 60.05 502.56 61 C507.53 61 512.19 60.24 517 59 C520.34 57.75 520.34 57.75 523 56 C523.85 55.48 524.69 54.97 525.56 54.44 C528.54 51.46 530.13 48.38 531.98 44.63 C534.72 37.55 534.34 29.75 534.61 22.26 C534.66 20.88 534.66 20.88 534.72 19.48 C534.75 18.64 534.78 17.81 534.81 16.95 C534.87 16.3 534.94 15.66 535 15 C535.33 14.67 535.66 14.34 536 14 C539.01 13.9 542 13.87 545.02 13.89 C545.96 13.89 546.91 13.89 547.89 13.89 C551.03 13.89 554.17 13.89 557.32 13.9 C559.49 13.9 561.66 13.91 563.84 13.91 C569.57 13.91 575.3 13.92 581.03 13.93 C586.88 13.94 592.72 13.95 598.57 13.95 C610.05 13.96 621.52 13.98 633 14 C633 15.32 633 16.64 633 18 C626.49 32.35 614.9 44.83 604 56 C592.53 67.34 579.25 76.52 565 84 C563.91 84.58 562.82 85.17 561.7 85.77 C553.95 89.66 545.95 92.53 537.69 95.19 C536.72 95.51 535.76 95.83 534.77 96.16 C507.61 104.52 479.6 103.58 451.51 103.51 C445.22 103.5 438.93 103.51 432.63 103.52 C421.05 103.53 409.46 103.53 397.87 103.51 C387.17 103.5 376.46 103.49 365.76 103.5 C364.69 103.5 364.69 103.5 363.6 103.5 C360.7 103.5 357.81 103.5 354.91 103.5 C327.81 103.51 300.72 103.49 273.62 103.46 C249.59 103.44 225.57 103.44 201.54 103.45 C195.39 103.45 189.23 103.45 183.08 103.45 C181.94 103.45 181.94 103.45 180.78 103.45 C160.64 103.46 140.51 103.46 120.37 103.44 C118.2 103.44 116.03 103.44 113.87 103.44 C112.43 103.44 110.99 103.44 109.55 103.44 C98.85 103.43 88.16 103.43 77.46 103.44 C65.29 103.44 53.12 103.44 40.95 103.42 C34.75 103.41 28.55 103.4 22.35 103.41 C16.66 103.42 10.97 103.41 5.28 103.39 C3.24 103.39 1.2 103.39 -0.85 103.4 C-24.77 103.47 -48.47 100.35 -71.08 92.25 C-91.02 84.78 -108.76 74.2 -125 60.44 C-125.61 59.92 -126.21 59.41 -126.84 58.88 C-128.27 57.64 -129.64 56.32 -131 55 C-131 54.34 -131 53.68 -131 53 C-131.57 52.77 -132.13 52.53 -132.71 52.29 C-136.63 50.08 -139.24 46.67 -142.2 43.34 C-149.59 34.66 -156.51 25.54 -161 15 C-160.34 14.67 -159.68 14.34 -159 14 C-155.89 13.9 -152.81 13.86 -149.7 13.87 C-148.74 13.87 -147.77 13.87 -146.78 13.87 C-143.58 13.86 -140.38 13.86 -137.18 13.87 C-134.97 13.87 -132.75 13.87 -130.54 13.86 C-125.9 13.86 -121.25 13.86 -116.61 13.87 C-110.64 13.88 -104.67 13.87 -98.7 13.87 C-94.13 13.86 -89.56 13.86 -84.98 13.87 C-82.78 13.87 -80.58 13.87 -78.38 13.86 C-75.31 13.86 -72.24 13.87 -69.17 13.87 C-68.25 13.87 -67.33 13.87 -66.38 13.86 C-64.26 13.87 -62.13 13.93 -60 14 C-59.5 14.5 -59.5 14.5 -59 15 C-58.89 16.65 -58.84 18.31 -58.82 19.96 C-58.79 21.51 -58.79 21.51 -58.75 23.08 C-58.71 25.24 -58.68 27.39 -58.66 29.55 C-58.48 36.07 -57.5 41.54 -55.22 47.65 C-53.88 50.24 -52.35 51.99 -50.25 54 C-47.15 56.37 -44.12 58.38 -40.39 59.57 C-34.11 60.7 -27.67 60.61 -21.38 59.57 C-18.17 58.67 -15.61 57.39 -12.82 55.59 C-10.59 53.86 -8.79 52.18 -7 50 C-4.42 45.23 -2.89 40.33 -2 35 C-1.86 32.36 -1.77 29.75 -1.72 27.11 C-1.69 25.99 -1.69 25.99 -1.66 24.85 C-1.58 21.68 -1.52 18.5 -1.45 15.33 C-1.4 13 -1.34 10.68 -1.28 8.36 C-1.27 7.64 -1.25 6.91 -1.24 6.17 C-1.2 4.44 -1.1 2.72 -1 1 C-0.67 0.67 -0.34 0.34 0 0 Z " fill="#0365D2" transform="translate(278,814)"/>
<path d="M0 0 C1.35 -0.02 1.35 -0.02 2.73 -0.04 C4.07 -0.08 4.07 -0.08 5.44 -0.12 C8.88 0.4 11.4 1.4 14.46 3.04 C17.95 5.27 20.71 8.1 23.55 11.09 C24.46 12.03 24.46 12.03 25.4 12.98 C28.99 16.7 32.5 20.47 35.85 24.41 C37.85 26.76 39.91 29.05 41.98 31.34 C44.69 34.34 47.39 37.35 50.05 40.4 C50.6 41.03 51.16 41.66 51.73 42.3 C53.02 43.8 54.26 45.32 55.48 46.87 C56.17 47.7 56.85 48.54 57.55 49.4 C58.16 50.17 58.77 50.95 59.39 51.75 C60.43 52.53 60.43 52.53 61.48 53.34 C64.39 53.3 64.39 53.3 67.48 52.34 C68.59 52.04 69.69 51.74 70.83 51.43 C72.06 51.09 73.28 50.75 74.55 50.4 C88.65 46.73 103.47 45.54 117.99 46.79 C128.36 47.92 138.64 50.17 148.44 53.75 C150.77 54.52 150.77 54.52 154.48 54.34 C156.06 52.87 156.06 52.87 157.42 50.77 C160.74 46.24 164.29 42 167.98 37.77 C168.56 37.12 169.13 36.46 169.72 35.78 C171.31 33.96 172.89 32.15 174.48 30.34 C175.46 29.22 175.46 29.22 176.46 28.09 C177.51 26.89 178.56 25.69 179.61 24.5 C181.2 22.66 182.77 20.81 184.32 18.96 C184.84 18.34 185.36 17.73 185.9 17.09 C186.92 15.88 187.94 14.66 188.96 13.43 C192.45 9.3 196.2 5.65 200.48 2.34 C202.92 0.96 202.92 0.96 205.48 0.34 C208.44 0.05 210.61 -0.09 213.48 0.34 C216.41 1.32 218.93 2.6 221.48 4.34 C223.86 6.65 223.86 6.65 225.48 9.34 C227.35 14.44 227.72 18.97 227.75 24.39 C227.75 25.43 227.74 26.46 227.74 27.53 C227.75 29.19 227.75 29.19 227.75 30.88 C227.76 33.28 227.76 35.67 227.76 38.07 C227.76 41.88 227.77 45.68 227.79 49.49 C227.83 60.31 227.86 71.13 227.87 81.95 C227.87 88.58 227.89 95.21 227.93 101.84 C227.94 104.35 227.94 106.86 227.94 109.38 C227.91 121.64 227.9 133.19 231.51 144.98 C234.26 154.42 234.91 164.73 234.73 174.52 C233.69 190.4 230.6 205.85 224.32 220.5 C217.6 235.53 209.24 248.92 197.89 260.89 C196.43 262.39 194.96 263.86 193.48 265.34 C192.67 266.15 191.87 266.95 191.03 267.79 C180.74 277.54 168.66 284.91 155.72 290.59 C142.09 296.31 128.24 299.22 113.48 300.34 C96.18 300.93 79.05 298.28 62.48 293.34 C55.48 291 48.76 288.26 42.48 284.34 C41.24 283.61 41.24 283.61 39.98 282.86 C33.68 279.04 28.33 274.73 22.98 269.67 C20.99 267.81 18.99 266.09 16.86 264.4 C7.74 256.63 1.33 246.09 -4.55 235.8 C-12.16 222.2 -17.15 207.63 -19.88 192.29 C-22.36 176.88 -21.82 161.73 -19.52 146.34 C-19.17 144.66 -18.83 142.98 -18.49 141.31 C-17.38 135.26 -17.27 129.42 -17.35 123.29 C-17.36 122.14 -17.36 120.99 -17.37 119.81 C-17.38 117.33 -17.4 114.86 -17.43 112.38 C-17.46 108.46 -17.48 104.53 -17.5 100.61 C-17.55 89.47 -17.62 78.32 -17.71 67.18 C-17.76 60.34 -17.8 53.51 -17.82 46.68 C-17.83 44.08 -17.85 41.48 -17.88 38.88 C-17.92 35.25 -17.93 31.62 -17.94 27.99 C-17.96 26.93 -17.97 25.86 -17.99 24.76 C-17.98 20.93 -17.94 17.54 -16.66 13.91 C-15.3 11.11 -13.8 8.65 -11.73 6.31 C-11.17 5.87 -10.6 5.42 -10.02 4.96 C-9.45 4.5 -8.88 4.04 -8.3 3.56 C-5.53 1.66 -3.37 0.45 0 0 Z " fill="#FEC02D" transform="translate(235.515625,295.6640625)"/>
<path d="M0 0 C2.12 -0.63 2.12 -0.63 4.43 -0.63 C5.3 -0.64 6.17 -0.66 7.06 -0.67 C8.45 -0.65 8.45 -0.65 9.88 -0.63 C10.84 -0.63 11.8 -0.63 12.79 -0.64 C14.82 -0.64 16.85 -0.62 18.88 -0.6 C21.99 -0.56 25.09 -0.58 28.2 -0.6 C30.18 -0.59 32.15 -0.58 34.12 -0.57 C35.05 -0.57 35.98 -0.58 36.94 -0.58 C39.36 -0.54 41.62 -0.42 44 0 C45.28 0.79 45.28 0.79 46.58 1.59 C47.05 2.38 47.52 3.18 48 4 C48.55 7.3 48.55 7.3 48.61 11.17 C48.64 12.42 48.67 13.67 48.7 14.96 C48.73 17.33 48.73 17.33 48.75 19.75 C48.83 24.78 48.91 29.81 49 35 C66.16 35 83.32 35 101 35 C101.17 24.98 101.17 24.98 101.3 14.96 C101.34 13.08 101.34 13.08 101.39 11.17 C101.41 9.89 101.43 8.62 101.45 7.3 C101.72 5.67 101.72 5.67 102 4 C102.69 2.8 102.69 2.8 103.39 1.58 C104.25 1.06 105.11 0.54 106 0 C109.44 -0.57 112.83 -0.54 116.31 -0.5 C117.82 -0.5 117.82 -0.5 119.36 -0.5 C121.49 -0.5 123.61 -0.49 125.74 -0.47 C128.99 -0.44 132.24 -0.45 135.49 -0.46 C137.56 -0.45 139.62 -0.44 141.69 -0.43 C142.66 -0.44 143.63 -0.44 144.64 -0.44 C145.54 -0.43 146.45 -0.42 147.39 -0.4 C148.18 -0.4 148.98 -0.39 149.8 -0.39 C150.53 -0.26 151.25 -0.13 152 0 C154.23 1.34 154.23 1.34 156 3 C157.19 6.57 157.15 9.82 157.16 13.54 C157.16 14.31 157.17 15.08 157.17 15.88 C157.19 18.49 157.2 21.09 157.21 23.69 C157.21 25.55 157.22 27.42 157.24 29.28 C157.26 34.34 157.28 39.41 157.3 44.47 C157.33 49.76 157.35 55.05 157.38 60.34 C157.43 70.36 157.47 80.37 157.52 90.39 C157.58 103.93 157.64 117.47 157.71 131 C157.81 152.34 157.91 173.67 158 195 C197.93 195 237.86 195 279 195 C277.02 192.69 275.04 190.38 273 188 C271.46 184.96 271.46 184.96 270.32 181.87 C269.87 180.69 269.43 179.51 268.97 178.3 C268.74 177.67 268.51 177.04 268.28 176.4 C267.54 174.37 266.78 172.35 266.02 170.34 C265.2 168.16 264.38 165.99 263.57 163.82 C260.38 155.3 257.04 146.84 253.69 138.38 C253.37 137.58 253.06 136.78 252.73 135.96 C247.8 123.47 242.78 111.01 237.71 98.57 C232.27 85.2 226.93 71.8 221.62 58.38 C221.25 57.42 220.87 56.47 220.48 55.49 C219.42 52.79 218.35 50.09 217.29 47.4 C216.97 46.59 216.65 45.78 216.32 44.95 C213.04 36.62 213.04 36.62 212.75 32.12 C212.79 30 212.79 30 213 28 C214.19 25.19 214.19 25.19 216 23 C218.33 21.25 220.62 20.13 223.38 19.21 C226.29 18.39 229.2 17.62 232.12 16.88 C233.11 16.61 234.09 16.35 235.1 16.07 C241.63 14.38 248.22 12.94 255 13 C257.36 13.56 259.11 14.27 261.16 15.55 C263 17 263 17 264.33 18.7 C267.27 23.47 269.46 28.21 271.35 33.48 C271.64 34.27 271.93 35.07 272.24 35.89 C272.86 37.58 273.48 39.28 274.1 40.98 C275.74 45.5 277.42 50 279.09 54.5 C279.42 55.41 279.75 56.31 280.1 57.23 C283 65.06 286.06 72.82 289.19 80.56 C293.23 90.55 297.19 100.57 301.06 110.62 C302.06 113.2 303.05 115.78 304.04 118.35 C304.29 118.98 304.53 119.62 304.78 120.27 C307.45 127.19 310.16 134.1 312.88 141 C313.33 142.16 313.79 143.33 314.26 144.52 C316.4 149.98 318.57 155.43 320.79 160.86 C325.77 173.08 325.77 173.08 326.13 179.27 C326.06 181.73 325.8 183.67 325 186 C323.59 187.88 322.11 189.24 320.28 190.71 C316.99 192.57 313.56 193.73 310 195 C311.02 195.03 312.05 195.05 313.11 195.08 C316.89 195.17 320.68 195.27 324.47 195.37 C326.11 195.42 327.76 195.46 329.4 195.5 C331.75 195.55 334.11 195.62 336.46 195.68 C337.2 195.7 337.94 195.72 338.7 195.73 C340.47 195.79 342.24 195.89 344 196 C344.33 196.33 344.66 196.66 345 197 C345.1 199.8 345.14 202.57 345.13 205.38 C345.13 206.63 345.13 206.63 345.14 207.92 C345.14 209.7 345.13 211.48 345.13 213.26 C345.13 215.99 345.13 218.72 345.14 221.45 C345.14 223.18 345.13 224.9 345.13 226.62 C345.13 227.45 345.14 228.27 345.14 229.12 C345.13 231.08 345.07 233.04 345 235 C344.67 235.33 344.34 235.66 344 236 C341.63 236.24 339.28 236.42 336.9 236.56 C336.18 236.6 335.46 236.64 334.72 236.68 C327.33 237.09 319.96 237.12 312.57 237.09 C311.09 237.09 309.6 237.08 308.12 237.08 C304.1 237.07 300.08 237.06 296.06 237.05 C291.71 237.03 287.35 237.02 283 237.01 C274.49 236.99 265.98 236.97 257.47 236.94 C250.56 236.92 243.65 236.9 236.74 236.88 C235.76 236.88 234.77 236.88 233.76 236.87 C231.76 236.87 229.75 236.86 227.75 236.86 C209.02 236.81 190.28 236.75 171.55 236.69 C155.47 236.64 139.38 236.6 123.3 236.56 C104.6 236.51 85.91 236.46 67.22 236.4 C65.23 236.4 63.24 236.39 61.25 236.39 C60.27 236.38 59.29 236.38 58.28 236.38 C51.37 236.36 44.46 236.34 37.55 236.32 C29.14 236.3 20.73 236.28 12.32 236.25 C8.03 236.23 3.74 236.22 -0.55 236.21 C-4.47 236.2 -8.39 236.19 -12.32 236.17 C-13.74 236.17 -15.17 236.16 -16.59 236.16 C-18.51 236.16 -20.44 236.15 -22.36 236.14 C-23.43 236.14 -24.51 236.14 -25.61 236.13 C-26.79 236.07 -26.79 236.07 -28 236 C-28.33 235.67 -28.66 235.34 -29 235 C-29.16 233.28 -29.25 231.55 -29.32 229.82 C-29.36 228.75 -29.4 227.67 -29.44 226.56 C-29.48 225.43 -29.52 224.29 -29.56 223.12 C-29.61 222.03 -29.65 220.93 -29.69 219.8 C-29.82 216.54 -29.91 213.27 -30 210 C-30.05 208.43 -30.05 208.43 -30.1 206.83 C-30.12 205.85 -30.13 204.87 -30.15 203.87 C-30.17 203 -30.19 202.13 -30.21 201.24 C-30.14 200.5 -30.07 199.76 -30 199 C-29.34 198.01 -28.68 197.02 -28 196 C-25.48 195.57 -25.48 195.57 -22.34 195.49 C-21.21 195.45 -20.09 195.42 -18.94 195.38 C-17.76 195.36 -16.59 195.34 -15.38 195.31 C-14.19 195.28 -13.01 195.24 -11.79 195.21 C-8.86 195.13 -5.93 195.06 -3 195 C-3.5 194.01 -3.5 194.01 -4 193 C-4.1 190.54 -4.15 188.11 -4.15 185.66 C-4.15 184.89 -4.15 184.12 -4.16 183.34 C-4.17 180.75 -4.17 178.17 -4.18 175.59 C-4.18 173.75 -4.19 171.91 -4.2 170.06 C-4.21 165.04 -4.22 160.02 -4.23 155 C-4.24 151.86 -4.24 148.73 -4.25 145.59 C-4.27 135.79 -4.28 125.99 -4.29 116.19 C-4.3 104.86 -4.33 93.54 -4.37 82.21 C-4.4 73.46 -4.41 64.71 -4.42 55.97 C-4.42 50.74 -4.43 45.51 -4.45 40.28 C-4.48 35.37 -4.48 30.45 -4.47 25.53 C-4.47 23.73 -4.48 21.92 -4.49 20.12 C-4.51 17.65 -4.5 15.19 -4.49 12.73 C-4.5 12.01 -4.51 11.29 -4.52 10.56 C-4.49 8.55 -4.49 8.55 -4 5 C-2.1 2.06 -2.1 2.06 0 0 Z " fill="#079278" transform="translate(524,164)"/>
<path d="M0 0 C1.71 -0.1 3.42 -0.14 5.13 -0.15 C6.23 -0.15 7.32 -0.16 8.45 -0.16 C10.24 -0.17 10.24 -0.17 12.06 -0.17 C13.27 -0.17 14.49 -0.17 15.74 -0.18 C18.31 -0.18 20.89 -0.19 23.46 -0.19 C27.42 -0.19 31.37 -0.21 35.32 -0.22 C37.82 -0.23 40.31 -0.23 42.81 -0.23 C44 -0.24 45.19 -0.24 46.41 -0.25 C47.51 -0.25 48.61 -0.25 49.74 -0.24 C50.71 -0.24 51.68 -0.25 52.68 -0.25 C53.83 -0.12 53.83 -0.12 55 0 C55.66 0.66 56.32 1.32 57 2 C57.13 4.86 57.13 4.86 56.99 8.54 C56.52 25.54 56.52 25.54 59.64 42.15 C62.11 49.34 65.2 56.28 68.32 63.2 C70.85 68.84 73.06 74.61 75.32 80.36 C79.26 90.38 83.36 100.34 87.44 110.31 C91.21 119.53 94.91 128.78 98.56 138.04 C99.37 140.12 100.19 142.19 101.01 144.26 C103.58 150.8 106.14 157.34 108.65 163.91 C109.81 166.94 110.99 169.97 112.16 173 C112.71 174.44 113.26 175.89 113.81 177.33 C114.57 179.34 115.35 181.35 116.12 183.36 C116.78 185.07 116.78 185.07 117.45 186.81 C118.72 189.42 119.76 191.05 121.6 193.2 C122.79 194.59 122.79 194.59 124 196 C108.11 196.02 92.22 196.04 76.33 196.05 C68.95 196.06 61.58 196.06 54.2 196.08 C47.77 196.09 41.34 196.09 34.92 196.09 C31.51 196.1 28.11 196.1 24.7 196.11 C20.9 196.11 17.11 196.11 13.31 196.11 C12.18 196.12 11.04 196.12 9.87 196.12 C8.84 196.12 7.81 196.12 6.75 196.12 C5.85 196.12 4.95 196.12 4.03 196.12 C3.02 196.06 3.02 196.06 2 196 C1.67 195.67 1.34 195.34 1 195 C0.89 192.57 0.85 190.17 0.85 187.74 C0.84 186.97 0.84 186.2 0.84 185.41 C0.82 182.81 0.82 180.21 0.81 177.62 C0.8 175.76 0.79 173.91 0.79 172.05 C0.77 168.05 0.75 164.05 0.74 160.05 C0.72 153.72 0.69 147.39 0.66 141.06 C0.6 127.62 0.55 114.19 0.5 100.75 C0.44 86.26 0.39 71.77 0.32 57.28 C0.29 50.99 0.27 44.69 0.25 38.4 C0.24 34.49 0.22 30.57 0.2 26.66 C0.19 24.84 0.19 23.02 0.18 21.21 C0.18 18.73 0.17 16.25 0.15 13.77 C0.15 13.05 0.15 12.33 0.15 11.59 C0.12 7.92 -0.26 4.58 -1 1 C-0.67 0.67 -0.34 0.34 0 0 Z " fill="#0365D2" transform="translate(680,164)"/>
<path d="M0 0 C2.8 0.57 5.07 1.32 7.65 2.53 C12.28 5.42 16.31 8.99 20 13 C21.56 15.3 22.78 17.35 23.67 19.98 C24.38 24.32 24.34 28.63 24 33 C22.72 37.19 20.77 40.53 18.31 44.12 C16.13 46.92 13.97 48.94 11 50.88 C7.79 52.71 4.58 54.02 1 55 C0.67 56.98 0.34 58.96 0 61 C0.66 61 1.32 61 2 61 C7.52 76.4 12.33 91.68 12.44 108.19 C12.29 119.54 10.54 130.21 6.69 140.94 C4.4 146.47 1.6 151.23 -2 156 C-2.53 156.74 -3.07 157.47 -3.62 158.23 C-9.18 165.68 -15.21 172.27 -22.91 177.53 C-32.09 183.52 -41.79 188.09 -52.44 190.81 C-59.49 192.27 -66.79 193.18 -74 193 C-75.32 192.34 -76.64 191.68 -78 191 C-78 177.8 -78 164.6 -78 151 C-76.02 150.01 -76.02 150.01 -74 149 C-74 148.34 -74 147.68 -74 147 C-72.95 146.55 -71.9 146.09 -70.81 145.62 C-69.85 145.21 -69.85 145.21 -68.87 144.78 C-67.4 144.17 -65.89 143.63 -64.38 143.12 C-61.84 142.07 -61.84 142.07 -59.62 139.81 C-58.33 138.42 -58.33 138.42 -57 137 C-56.18 136.28 -56.18 136.28 -55.34 135.54 C-52.48 132.96 -50.28 130.45 -48.25 127.16 C-45.97 122.81 -43.81 118.58 -43.06 113.69 C-43 110 -43.42 106.63 -44 103 C-43.67 102.34 -43.34 101.68 -43 101 C-43.66 101 -44.32 101 -45 101 C-45.19 100.18 -45.39 99.36 -45.59 98.52 C-45.85 97.44 -46.11 96.36 -46.38 95.25 C-46.63 94.18 -46.89 93.12 -47.15 92.02 C-47.88 89.43 -48.79 87.37 -50 85 C-50.12 82.44 -50.12 82.44 -50 80 C-50 79.01 -50 78.02 -50 77 C-50.66 76.34 -51.32 75.68 -52 75 C-53.31 70.96 -53.95 66.86 -54.19 62.62 C-54 60 -54 60 -53 57 C-53.25 55.73 -53.25 55.73 -53.5 54.44 C-54.16 49.87 -53.86 45.53 -53 41 C-52.37 39.65 -51.7 38.32 -51 37 C-50.5 35.55 -50.02 34.09 -49.56 32.62 C-48.35 28.89 -46.87 25.47 -45 22 C-44.34 22 -43.68 22 -43 22 C-42.87 21.15 -42.87 21.15 -42.73 20.28 C-42 18 -42 18 -40.36 15.78 C-36.54 11.53 -33.06 7.79 -28 5 C-18.51 0.38 -10.55 -0.73 0 0 Z " fill="#FA6A19" transform="translate(796,443)"/>
<path d="M0 0 C2.2 -0.5 2.2 -0.5 4.61 -0.5 C5.52 -0.51 6.43 -0.52 7.36 -0.53 C8.82 -0.51 8.82 -0.51 10.31 -0.5 C11.82 -0.5 11.82 -0.5 13.36 -0.5 C15.49 -0.5 17.61 -0.49 19.74 -0.47 C22.99 -0.44 26.24 -0.45 29.49 -0.46 C31.56 -0.45 33.62 -0.44 35.69 -0.43 C36.66 -0.44 37.63 -0.44 38.64 -0.44 C39.54 -0.43 40.45 -0.42 41.39 -0.4 C42.18 -0.4 42.98 -0.39 43.8 -0.39 C46 0 46 0 48.11 1.04 C48.73 1.69 49.36 2.33 50 3 C50.39 5.7 50.52 7.99 50.48 10.69 C50.48 11.48 50.49 12.27 50.49 13.08 C50.5 15.74 50.48 18.4 50.45 21.06 C50.45 22.96 50.45 24.86 50.46 26.76 C50.46 31.93 50.43 37.11 50.41 42.28 C50.38 47.68 50.38 53.08 50.37 58.48 C50.36 68.71 50.33 78.94 50.29 89.17 C50.24 100.82 50.22 112.47 50.2 124.12 C50.16 148.08 50.09 172.04 50 196 C32.51 196 15.02 196 -3 196 C-3.33 195.34 -3.66 194.68 -4 194 C-4.1 191.52 -4.15 189.06 -4.15 186.57 C-4.15 185.8 -4.15 185.02 -4.16 184.23 C-4.17 181.62 -4.17 179.01 -4.18 176.4 C-4.18 174.53 -4.19 172.66 -4.2 170.8 C-4.21 165.72 -4.22 160.64 -4.23 155.56 C-4.24 152.39 -4.24 149.22 -4.25 146.05 C-4.27 136.14 -4.28 126.23 -4.29 116.32 C-4.3 104.86 -4.33 93.4 -4.37 81.95 C-4.4 73.1 -4.41 64.26 -4.42 55.41 C-4.42 50.12 -4.43 44.84 -4.45 39.55 C-4.48 34.58 -4.48 29.6 -4.47 24.63 C-4.47 22.81 -4.48 20.98 -4.49 19.15 C-4.51 16.66 -4.5 14.17 -4.49 11.68 C-4.5 10.95 -4.51 10.23 -4.52 9.48 C-4.49 7.45 -4.49 7.45 -4 4 C-2.11 1.55 -2.11 1.55 0 0 Z " fill="#FEC710" transform="translate(630,164)"/>
<path d="M0 0 C2.12 -0.63 2.12 -0.63 4.43 -0.63 C5.3 -0.64 6.17 -0.66 7.06 -0.67 C8.45 -0.65 8.45 -0.65 9.88 -0.63 C10.84 -0.63 11.8 -0.63 12.79 -0.64 C14.82 -0.64 16.85 -0.62 18.88 -0.6 C21.99 -0.56 25.09 -0.58 28.2 -0.6 C30.18 -0.59 32.15 -0.58 34.12 -0.57 C35.05 -0.57 35.98 -0.58 36.94 -0.58 C38.24 -0.56 38.24 -0.56 39.57 -0.53 C40.71 -0.52 40.71 -0.52 41.88 -0.51 C42.58 -0.34 43.28 -0.17 44 0 C46.09 1.65 46.09 1.65 48 4 C48.55 6.79 48.55 6.79 48.61 10.07 C48.65 11.3 48.68 12.54 48.71 13.81 C48.73 15.17 48.74 16.53 48.76 17.89 C48.79 19.33 48.82 20.76 48.85 22.2 C49.16 38.51 49.04 54.83 48.9 71.15 C48.86 75.49 48.84 79.83 48.81 84.18 C48.75 92.34 48.69 100.51 48.63 108.68 C48.55 118 48.49 127.32 48.42 136.64 C48.29 155.76 48.15 174.88 48 194 C46.68 194.69 45.35 195.36 44 196 C41.92 196.26 41.92 196.26 39.68 196.27 C38.83 196.28 37.99 196.29 37.12 196.3 C35.76 196.3 35.76 196.3 34.38 196.3 C32.97 196.31 32.97 196.31 31.54 196.31 C29.56 196.32 27.58 196.32 25.6 196.32 C22.58 196.31 19.55 196.34 16.53 196.36 C14.6 196.36 12.68 196.36 10.75 196.36 C9.85 196.37 8.95 196.38 8.02 196.39 C7.17 196.38 6.32 196.38 5.45 196.37 C4.34 196.37 4.34 196.37 3.21 196.37 C1 196 1 196 -1.6 194.94 C-2.79 193.98 -2.79 193.98 -4 193 C-4.51 190.31 -4.67 188.23 -4.63 185.54 C-4.64 184.39 -4.64 184.39 -4.65 183.21 C-4.67 180.63 -4.65 178.06 -4.63 175.48 C-4.64 173.64 -4.64 171.79 -4.65 169.95 C-4.67 164.93 -4.66 159.91 -4.64 154.9 C-4.62 149.65 -4.63 144.41 -4.64 139.16 C-4.64 130.35 -4.62 121.54 -4.6 112.73 C-4.56 102.54 -4.56 92.35 -4.58 82.16 C-4.6 72.36 -4.59 62.56 -4.57 52.77 C-4.57 48.6 -4.57 44.43 -4.58 40.25 C-4.58 35.34 -4.57 30.43 -4.54 25.51 C-4.54 23.71 -4.54 21.91 -4.54 20.1 C-4.55 17.64 -4.54 15.18 -4.51 12.72 C-4.52 12 -4.53 11.29 -4.54 10.55 C-4.51 8.54 -4.51 8.54 -4 5 C-2.1 2.06 -2.1 2.06 0 0 Z " fill="#EE6298" transform="translate(524,164)"/>
<path d="M0 0 C1.95 0.48 1.95 0.48 5.07 1.79 C7.95 4.48 7.95 4.48 9.36 6.88 C13.17 14.53 16.23 22.29 19.07 30.35 C20.02 33.02 20.99 35.68 21.95 38.34 C22.2 39.01 22.44 39.69 22.7 40.38 C25.3 47.51 28.1 54.56 30.95 61.6 C31.32 62.53 31.32 62.53 31.7 63.47 C32.95 66.58 34.21 69.68 35.46 72.78 C37.9 78.86 40.3 84.95 42.7 91.04 C43.15 92.21 43.61 93.37 44.08 94.58 C47.04 102.13 49.94 109.7 52.8 117.3 C54.82 122.61 56.91 127.89 59.04 133.16 C59.31 133.83 59.58 134.5 59.85 135.19 C61.2 138.52 62.55 141.85 63.91 145.18 C69.57 159.14 69.57 159.14 70.17 166.02 C69.99 168.32 69.68 170.28 68.95 172.48 C67.77 174.24 67.77 174.24 66.2 175.79 C63.13 177.99 59.97 179.52 56.45 180.85 C49.97 182.66 43.64 182.86 36.95 182.91 C35.44 182.93 35.44 182.93 33.9 182.94 C31.22 182.91 28.61 182.81 25.95 182.48 C23.01 181.26 23.01 181.26 20.95 179.48 C18.73 176.96 17.05 174.7 15.63 171.67 C15.24 170.64 14.86 169.6 14.46 168.54 C14.01 167.36 13.56 166.17 13.09 164.95 C12.85 164.31 12.62 163.68 12.37 163.03 C11.35 160.27 10.3 157.52 9.25 154.77 C8.69 153.3 8.13 151.82 7.57 150.35 C4.33 141.82 0.98 133.33 -2.37 124.85 C-2.68 124.06 -3 123.26 -3.32 122.44 C-8.25 109.94 -13.28 97.49 -18.34 85.05 C-23.78 71.68 -29.13 58.27 -34.43 44.85 C-34.81 43.9 -35.18 42.94 -35.57 41.96 C-36.64 39.27 -37.7 36.57 -38.77 33.88 C-39.24 32.66 -39.24 32.66 -39.73 31.43 C-43.02 23.09 -43.02 23.09 -43.3 18.6 C-43.27 16.47 -43.27 16.47 -43.05 14.48 C-41.87 11.66 -41.87 11.66 -40.05 9.48 C-36.7 7.22 -33.65 5.9 -29.75 4.91 C-28.75 4.65 -27.76 4.39 -26.73 4.13 C-25.7 3.87 -24.68 3.62 -23.62 3.35 C-22.59 3.09 -21.57 2.82 -20.51 2.55 C-6.4 -1.05 -6.4 -1.05 0 0 Z " fill="#EE6298" transform="translate(780.0546875,177.5234375)"/>
<path d="M0 0 C1.55 -0.01 1.55 -0.01 3.14 -0.02 C8.61 -0.05 14.08 -0.07 19.55 -0.07 C25.18 -0.09 30.8 -0.13 36.43 -0.19 C40.78 -0.23 45.14 -0.24 49.49 -0.24 C51.56 -0.25 53.64 -0.26 55.71 -0.29 C68.82 -0.44 68.82 -0.44 74.18 0.41 C77.38 1.61 79.78 2.88 82.5 4.91 C83.33 5.65 83.33 5.65 84.18 6.41 C85.01 7.1 85.84 7.79 86.7 8.5 C91.27 13.69 94.25 19.07 97.05 25.39 C98.48 29.2 99.12 32.61 99.43 36.66 C99.17 40.48 98.53 43.54 97.23 47.12 C95.45 51.01 93.17 54.36 90.18 57.41 C87.37 58.78 87.37 58.78 85.18 59.41 C84.85 60.07 84.52 60.73 84.18 61.41 C66.08 61.48 47.98 61.53 29.88 61.56 C21.48 61.58 13.08 61.6 4.67 61.63 C-2.65 61.66 -9.98 61.68 -17.31 61.69 C-21.19 61.69 -25.06 61.7 -28.94 61.72 C-32.6 61.74 -36.25 61.75 -39.91 61.75 C-41.88 61.75 -43.85 61.76 -45.82 61.78 C-51.13 61.76 -55.92 61.63 -61 59.97 C-63.34 59.08 -65.51 58.07 -67.76 56.97 C-68.44 56.12 -69.12 55.28 -69.82 54.41 C-71.08 50.42 -71.61 46.57 -71.82 42.41 C-71.66 38.84 -71.04 35.76 -69.82 32.41 C-66.82 26.06 -62.72 20.56 -57.94 15.44 C-53.65 11.33 -49.16 8.49 -43.78 6 C-29.44 0.11 -15.26 0.06 0 0 Z " fill="#FB6A18" transform="translate(299.8203125,640.59375)"/>
<path d="M0 0 C2.54 -0.1 5.05 -0.13 7.59 -0.12 C8.4 -0.12 9.2 -0.13 10.04 -0.13 C12.78 -0.13 15.52 -0.12 18.27 -0.12 C20.24 -0.12 22.21 -0.12 24.18 -0.12 C29.63 -0.13 35.08 -0.12 40.53 -0.12 C46.39 -0.11 52.26 -0.11 58.12 -0.11 C68.29 -0.11 78.46 -0.11 88.63 -0.11 C99.3 -0.1 109.97 -0.1 120.64 -0.09 C121.63 -0.09 121.63 -0.09 122.65 -0.09 C126.01 -0.09 129.38 -0.09 132.74 -0.09 C156.59 -0.09 180.45 -0.08 204.3 -0.08 C227.48 -0.07 250.65 -0.06 273.83 -0.05 C274.55 -0.05 275.26 -0.05 276 -0.05 C283.17 -0.05 290.34 -0.05 297.51 -0.05 C312.11 -0.05 326.72 -0.05 341.33 -0.04 C342 -0.04 342.67 -0.04 343.36 -0.04 C388.24 -0.03 433.12 -0.02 478 0 C478.33 0.66 478.66 1.32 479 2 C478.67 6.29 478.34 10.58 478 15 C319.93 15 161.86 15 -1 15 C-1 10.38 -1 5.76 -1 1 C-0.67 0.67 -0.34 0.34 0 0 Z " fill="#00A1FF" transform="translate(278,814)"/>
<path d="M0 0 C1.35 -0.02 1.35 -0.02 2.73 -0.04 C4.07 -0.08 4.07 -0.08 5.44 -0.12 C8.88 0.4 11.4 1.4 14.46 3.04 C17.95 5.27 20.71 8.1 23.55 11.09 C24.46 12.03 24.46 12.03 25.4 12.98 C28.99 16.7 32.5 20.47 35.85 24.41 C37.85 26.76 39.91 29.05 41.98 31.34 C45.26 34.97 48.5 38.63 51.72 42.32 C53.74 44.62 55.76 46.92 57.8 49.21 C58.45 49.95 59.11 50.69 59.79 51.45 C60.98 52.78 62.22 54.07 63.48 55.34 C62.7 55.62 61.91 55.9 61.1 56.18 C48.44 60.84 37.04 66.88 26.48 75.34 C23.06 78.25 19.75 81.25 16.48 84.34 C15.86 84.92 15.23 85.51 14.59 86.11 C2.95 97.33 -5 110.93 -12.08 125.31 C-12.89 126.98 -13.71 128.66 -14.52 130.34 C-15.51 129.68 -16.5 129.02 -17.52 128.34 C-17.9 126.36 -17.9 126.36 -17.9 123.9 C-17.91 122.96 -17.92 122.03 -17.93 121.07 C-17.93 120.04 -17.92 119.01 -17.92 117.95 C-17.93 116.87 -17.93 115.79 -17.94 114.68 C-17.96 111.1 -17.95 107.51 -17.95 103.92 C-17.95 101.43 -17.96 98.94 -17.97 96.45 C-17.97 91.23 -17.97 86 -17.96 80.77 C-17.95 75.41 -17.96 70.05 -17.98 64.68 C-18.01 58.21 -18.02 51.73 -18.01 45.26 C-18.01 42.8 -18.02 40.33 -18.03 37.86 C-18.05 34.41 -18.03 30.95 -18.02 27.49 C-18.03 26.48 -18.04 25.46 -18.05 24.42 C-18.01 20.71 -17.92 17.45 -16.65 13.94 C-15.26 11.07 -13.85 8.71 -11.73 6.31 C-11.17 5.87 -10.6 5.42 -10.02 4.96 C-9.45 4.5 -8.88 4.04 -8.3 3.56 C-5.53 1.66 -3.37 0.45 0 0 Z " fill="#FD8315" transform="translate(235.515625,295.6640625)"/>
<path d="M0 0 C0.66 0.66 1.32 1.32 2 2 C2.78 3.73 3.5 5.49 4.18 7.27 C4.82 8.92 4.82 8.92 5.48 10.61 C5.94 11.81 6.4 13.01 6.88 14.25 C7.61 16.16 8.36 18.07 9.1 19.98 C9.62 21.3 10.13 22.63 10.65 23.96 C13.39 31.01 16.19 38.04 19 45.06 C19.25 45.69 19.5 46.31 19.76 46.96 C23.28 55.76 26.85 64.54 30.44 73.31 C34.21 82.53 37.91 91.78 41.56 101.04 C42.37 103.12 43.19 105.19 44.01 107.26 C46.58 113.8 49.14 120.34 51.65 126.91 C52.81 129.94 53.99 132.97 55.16 136 C55.71 137.44 56.26 138.89 56.81 140.33 C57.57 142.34 58.35 144.35 59.12 146.36 C59.78 148.07 59.78 148.07 60.45 149.81 C62.19 153.72 62.19 153.72 67 159 C44.89 159 22.78 159 0 159 C0 106.53 0 54.06 0 0 Z " fill="#00A1FF" transform="translate(737,201)"/>
<path d="M0 0 C2.42 0.31 4.23 0.95 6.44 1.97 C8.9 3.35 10.52 4.6 12.57 6.59 C14.08 9.09 15.02 11.36 15.79 14.17 C16.59 18.37 16.48 22.6 16.47 26.87 C16.47 27.91 16.48 28.95 16.48 30.02 C16.5 33.45 16.49 36.87 16.49 40.3 C16.5 42.68 16.5 45.07 16.51 47.45 C16.51 52.44 16.51 57.43 16.51 62.41 C16.5 68.82 16.52 75.22 16.54 81.63 C16.56 86.54 16.56 91.46 16.55 96.38 C16.55 98.74 16.56 101.11 16.57 103.47 C16.58 106.76 16.58 110.05 16.56 113.34 C16.57 114.33 16.58 115.31 16.59 116.32 C16.58 117.21 16.57 118.11 16.57 119.03 C16.57 119.8 16.57 120.58 16.57 121.38 C16.44 122.01 16.32 122.64 16.19 123.28 C15.2 123.94 14.21 124.6 13.19 125.28 C12.66 124.22 12.12 123.15 11.57 122.05 C3.67 106.55 -5.69 92.89 -18.32 80.84 C-29.98 70.04 -43.26 62.54 -57.81 56.28 C-53.94 49.92 -49.45 44.54 -44.38 39.1 C-41.92 36.4 -39.6 33.63 -37.31 30.78 C-33.43 25.97 -29.35 21.4 -25.16 16.86 C-23.08 14.58 -21.1 12.26 -19.12 9.91 C-16.02 6.34 -12.8 3.82 -8.81 1.28 C-5.79 0.27 -3.18 -0.05 0 0 Z " fill="#FD8315" transform="translate(446.80859375,295.71875)"/>
<path d="M0 0 C0.69 -0.03 1.38 -0.05 2.09 -0.08 C4.11 -0.09 4.11 -0.09 7.81 0.38 C10.77 2.18 10.77 2.18 12.81 4.38 C13.31 7.94 13.31 7.94 12.81 11.38 C11.55 13 11.55 13 9.81 14.38 C7.79 15.17 7.79 15.17 5.5 15.77 C4.65 16 3.81 16.23 2.94 16.47 C2.06 16.7 1.17 16.94 0.25 17.19 C-6.37 19.07 -12.5 20.9 -18.23 24.85 C-18.88 25.35 -19.52 25.86 -20.19 26.38 C-20.8 26.83 -21.42 27.28 -22.05 27.75 C-24.6 29.92 -26.49 32.23 -28.23 35.09 C-29.37 37.1 -30.44 39.13 -31.5 41.19 C-31.84 41.84 -32.18 42.49 -32.52 43.16 C-35.08 48.41 -36.51 53.57 -37.19 59.38 C-37.49 65.68 -37.51 71.98 -37.49 78.29 C-37.51 79.54 -37.53 80.8 -37.55 82.09 C-37.55 83.23 -37.56 84.36 -37.56 85.53 C-37.87 86.94 -37.87 86.94 -38.19 88.38 C-40.49 90.25 -40.49 90.25 -43.19 91.38 C-46.01 91.54 -48.63 91.56 -51.44 91.44 C-61.29 91.24 -71.47 91.33 -80.97 94.22 C-83.15 95.15 -85.15 96.17 -87.19 97.38 C-87.88 97.77 -88.57 98.16 -89.29 98.57 C-93.53 101.09 -97.82 103.74 -101.19 107.38 C-105.41 113.1 -108.31 119.29 -110.45 126.06 C-111.59 131.17 -111.83 136.2 -112.01 141.42 C-112.07 142.39 -112.13 143.37 -112.19 144.38 C-112.52 144.71 -112.85 145.03 -113.19 145.38 C-114.6 145.46 -116.02 145.48 -117.44 145.47 C-118.3 145.47 -119.15 145.47 -120.03 145.46 C-120.93 145.45 -121.82 145.45 -122.75 145.44 C-123.65 145.43 -124.55 145.43 -125.48 145.42 C-127.72 145.41 -129.95 145.4 -132.19 145.38 C-132.52 144.72 -132.85 144.06 -133.19 143.38 C-133.15 133.9 -132.84 124.21 -130.18 115.07 C-127.95 109.03 -125.08 103.76 -121.08 98.71 C-118.86 96.18 -116.57 93.76 -114.19 91.38 C-113.57 90.74 -112.96 90.1 -112.32 89.44 C-107.49 84.79 -101.9 81.91 -95.95 78.95 C-90.4 76.53 -85.03 74.58 -78.95 74.14 C-75.48 74.08 -72.03 74.11 -68.56 74.19 C-67.37 74.2 -66.17 74.21 -64.94 74.23 C-62.02 74.26 -59.11 74.31 -56.19 74.38 C-56.2 73.74 -56.22 73.11 -56.24 72.45 C-56.72 49.78 -56.72 49.78 -54.35 42.19 C-50.76 33.48 -46.56 25.55 -40.38 18.38 C-35.53 13.37 -30.27 9.72 -24.19 6.38 C-23.46 5.97 -22.74 5.56 -22 5.13 C-18.41 3.21 -14.73 1.57 -10.73 0.7 C-7.16 0.25 -3.6 0.08 0 0 Z " fill="#FB6A19" transform="translate(579.1875,556.625)"/>
<path d="M0 0 C7.54 -0.02 15.09 -0.04 22.63 -0.05 C26.14 -0.06 29.64 -0.06 33.14 -0.08 C37.17 -0.09 41.19 -0.09 45.21 -0.1 C46.48 -0.1 47.74 -0.11 49.04 -0.11 C50.2 -0.11 51.37 -0.11 52.56 -0.11 C54.1 -0.12 54.1 -0.12 55.68 -0.12 C56.44 -0.08 57.21 -0.04 58 0 C58.5 0.5 58.5 0.5 59 1 C59.13 3.39 59.19 5.75 59.2 8.15 C59.21 8.88 59.21 9.6 59.22 10.35 C59.23 11.9 59.24 13.45 59.24 15 C59.25 17.33 59.28 19.66 59.31 22 C59.37 29.62 59.1 36.53 56.82 43.89 C55.6 47.03 54.17 49.41 52 52 C49.3 54.87 46.53 57.19 43.04 59.04 C38.44 60.86 33.98 61.27 29.06 61.44 C24.62 61.32 20.76 60.92 16.56 59.44 C13.41 57.95 10.74 56.24 8.12 53.94 C5.83 51.28 4.2 48.76 2.85 45.52 C-0.14 36.91 0.32 27.81 0.25 18.81 C0.22 16.98 0.19 15.15 0.16 13.33 C0.09 8.88 0.04 4.44 0 0 Z " fill="#FD8315" transform="translate(218,814)"/>
<path d="M0 0 C18.48 0 36.96 0 56 0 C56.5 0.99 56.5 0.99 57 2 C57.11 4.45 57.16 6.87 57.17 9.32 C57.17 10.41 57.17 10.41 57.18 11.53 C57.18 13.08 57.19 14.63 57.19 16.18 C57.19 18.53 57.21 20.87 57.22 23.22 C57.25 30.7 57.25 37.8 55 45 C53.41 48.36 51.4 51.17 49 54 C45.99 56.78 42.92 58.59 39.19 60.25 C34.76 61.29 30.56 62.05 26 62 C20.91 61.15 16.27 59.35 11.75 56.88 C9.58 55.41 7.97 53.97 6.24 51.99 C4.16 49.11 2.44 46.53 1.45 43.08 C0.2 37.72 -0.27 32.74 -0.2 27.25 C-0.19 26.55 -0.19 25.85 -0.19 25.13 C-0.18 22.57 -0.15 20 -0.12 17.44 C-0.08 11.68 -0.04 5.93 0 0 Z " fill="#FD8315" transform="translate(756,814)"/>
<path d="M0 0 C3.1 -0.44 4.99 -0.6 8 0 C10.74 1.36 13.25 2.9 15.8 4.59 C18.03 6.15 18.03 6.15 21 7 C25.05 7.43 28.95 7.47 33 7 C35.72 5.87 38.18 4.51 40.74 3.06 C41.48 2.71 42.23 2.36 43 2 C47 2 47 2 50 3 C50.99 4.49 50.99 4.49 52 6 C51.91 8.94 51.73 11.21 51 14 C49.56 16.69 49.56 16.69 47 19 C42.21 22.01 37.35 24.11 31.81 25.31 C27.8 25.96 24.07 26.36 20 26 C16.55 25.26 13.27 24.32 10 23 C6.88 20.81 6.88 20.81 5 19 C2.67 19.87 0.41 20.77 -1.76 21.99 C-4.53 23.53 -7.17 24.78 -10.25 25.59 C-15.45 26.36 -20.09 25.8 -25.25 24.81 C-29.05 23.9 -32.07 22.97 -35.56 21.19 C-38.48 18.57 -40.84 16.3 -43 13 C-43.45 10.94 -43.45 10.94 -43.56 8.81 C-43.38 7.55 -43.19 6.3 -43 5 C-42.46 4.32 -41.93 3.64 -41.38 2.94 C-40.59 2.63 -39.81 2.32 -39 2 C-36.25 2.06 -36.25 2.06 -33 3 C-31.81 3.68 -30.62 4.37 -29.44 5.06 C-26.84 6.42 -24.84 7.02 -21.91 7.44 C-18.5 7.56 -15.38 7.49 -12 7 C-8.68 5.71 -5.89 4.06 -3 2 C-2.01 1.34 -1.02 0.68 0 0 Z " fill="#211C39" transform="translate(338,510)"/>
<path d="M0 0 C2.87 -0.25 5.18 -0.38 8 0 C10.35 0.93 10.35 0.93 12.69 2.06 C14.11 2.75 15.54 3.4 17 4 C17.89 3.98 18.77 3.96 19.69 3.94 C22.14 2.99 22.14 2.99 24.88 1.44 C28 0 28 0 31.62 -0.44 C32.74 -0.29 33.85 -0.15 35 0 C35.78 0.52 36.57 1.03 37.38 1.56 C39 4 39 4 40.12 7.12 C40.08 8.4 40.04 9.68 40 11 C38.06 15.62 35.29 19.48 32.06 23.28 C29.09 26.4 26 29.22 22.38 31.56 C21.26 32.04 20.15 32.51 19 33 C16.1 32.81 16.1 32.81 13 32 C7.62 28.74 3.01 24.33 -1.06 19.56 C-2.76 17.24 -3.89 15.35 -4.75 12.61 C-5.12 10.29 -5.25 8.33 -5 6 C-3.69 3 -3.69 3 -2 1 C-1.34 0.67 -0.68 0.34 0 0 Z " fill="#EF6299" transform="translate(326,473)"/>
<path d="M0 0 C2.8 0.57 5.07 1.32 7.65 2.53 C12.28 5.42 16.31 8.99 20 13 C21.46 15.24 22.74 17.31 23.69 19.81 C24.17 23.22 24.06 26.56 24 30 C23.34 30.33 22.68 30.66 22 31 C21.32 30.5 20.64 30.01 19.94 29.5 C18.97 29 18 28.51 17 28 C13.94 28.03 11.01 28.46 8 29 C8.21 28.38 8.41 27.76 8.62 27.12 C8.81 26.07 8.81 26.07 9 25 C8.34 24.34 7.68 23.68 7 23 C7 22.34 7 21.68 7 21 C6.34 22.32 5.68 23.64 5 25 C4.01 24.34 3.02 23.68 2 23 C2.66 22.01 3.32 21.02 4 20 C3.34 19.67 2.68 19.34 2 19 C2 18.01 2 17.02 2 16 C1.01 16.5 1.01 16.5 0 17 C0 19.62 0.31 21.51 1 24 C0.01 24.33 -0.98 24.66 -2 25 C-2.6 24.67 -3.2 24.34 -3.81 24 C-4.53 23.67 -5.26 23.34 -6 23 C-9.19 23.31 -9.19 23.31 -12 24 C-12 23.34 -12 22.68 -12 22 C-10.04 20.61 -8.04 19.27 -6 18 C-6.99 17.67 -7.98 17.34 -9 17 C-11.62 17.6 -11.62 17.6 -14 19 C-15.34 21.02 -15.34 21.02 -16 23 C-17.32 22.67 -18.64 22.34 -20 22 C-20 21.01 -20 20.02 -20 19 C-19.34 18.67 -18.68 18.34 -18 18 C-18.33 17.34 -18.66 16.68 -19 16 C-19.66 16.33 -20.32 16.66 -21 17 C-21.66 16.34 -22.32 15.68 -23 15 C-24.24 14.57 -24.24 14.57 -25.5 14.12 C-26.74 13.57 -26.74 13.57 -28 13 C-29.31 10.88 -29.31 10.88 -30 9 C-30.68 10.89 -30.68 10.89 -31 13 C-30.34 13.66 -29.68 14.32 -29 15 C-28.67 15.99 -28.34 16.98 -28 18 C-30.31 17.34 -32.62 16.68 -35 16 C-35.33 16.99 -35.66 17.98 -36 19 C-39.56 20.19 -39.56 20.19 -43 21 C-40.84 16.26 -37.62 12.7 -34 9 C-29.45 5.44 -24.37 3.08 -19 1 C-12.96 -0.96 -6.26 -0.43 0 0 Z " fill="#FC8216" transform="translate(796,443)"/>
<path d="M0 0 C3.25 0.19 3.25 0.19 7 1 C9.04 2.28 11.04 3.61 13 5 C16.98 6.3 20.95 6.32 25.11 6.29 C28.07 5.99 30.23 5.33 32.94 4.12 C34.3 3.44 35.66 2.73 37 2 C39.54 0.64 41.1 -0.01 44 -0.44 C44.99 -0.29 45.98 -0.15 47 0 C47.8 0.68 48.61 1.36 49.44 2.06 C50.21 3.52 50.21 3.52 51 5 C51.06 6.09 51.12 7.19 51.19 8.31 C50.1 11.69 49.19 13.5 47.06 16.25 C45.47 18.2 45.47 18.2 43 20 C38.83 21.78 34.67 22.83 30.16 23.28 C27.23 23.4 24.31 23.41 21.38 23.38 C19.9 23.39 19.9 23.39 18.39 23.41 C13.86 23.39 9.8 23.18 5.5 21.68 C2 20 2 20 -0.06 18.42 C-1.51 16.66 -2.83 14.96 -4 13 C-5.06 9.38 -5.06 9.38 -5 6 C-3.69 3.12 -3.69 3.12 -2 1 C-1.34 0.67 -0.68 0.34 0 0 Z " fill="#211C39" transform="translate(374,448)"/>
<path d="M0 0 C2.29 -0.29 2.29 -0.29 5 0 C7.73 1.31 7.73 1.31 10.62 3 C13.79 4.64 16.42 5.9 19.95 6.5 C23.55 6.58 26.8 6.31 30.29 5.41 C33.35 4.35 35.96 3.03 38.62 1.19 C39.41 0.8 40.19 0.4 41 0 C44.12 0.5 44.12 0.5 47 2 C47.66 2.7 48.32 3.4 49 4.12 C49.5 5.55 49.5 5.55 50 7 C49.62 10.94 49.62 10.94 48.99 13 C48 15 48 15 46.51 16.78 C43.95 19.1 41.63 20.71 38.47 22.14 C33.53 23.36 28.76 23.33 23.69 23.31 C22.69 23.33 21.7 23.34 20.67 23.36 C15.84 23.36 11.57 23.08 6.95 21.59 C4.41 20.66 2.46 19.67 0.12 18.25 C-2 16 -2 16 -3.88 12.56 C-5 9 -5 9 -4.94 6.31 C-4 4 -4 4 -2.25 1.69 C-1.51 1.13 -0.76 0.57 0 0 Z " fill="#211C39" transform="translate(266,448)"/>
<path d="M0 0 C3.55 0.4 5.71 1.1 8.94 2.5 C10.56 3.19 12.21 3.85 13.88 4.44 C17.1 4.54 17.1 4.54 19.88 3.44 C20.84 2.9 21.81 2.37 22.81 1.81 C23.82 1.36 24.83 0.9 25.88 0.44 C29.44 0.44 29.44 0.44 32.88 1.44 C35.75 3.69 35.75 3.69 37.88 6.44 C38.2 7.2 38.53 7.96 38.88 8.75 C38.88 11.44 38.88 11.44 38 15.12 C36.48 18.78 34.34 21.52 31.75 24.5 C27.5 29.01 22.91 32.84 17.88 36.44 C20.98 39.72 23.84 42.37 27.88 44.44 C30.36 45.38 32.72 45.54 35.38 45.88 C37.53 45.94 37.53 45.94 39.88 45.44 C41.93 44.48 43.95 43.45 45.94 42.38 C49.02 40.71 49.02 40.71 51.88 39.44 C54.16 39.19 54.16 39.19 56.06 39.44 C56.99 39.77 57.92 40.1 58.88 40.44 C59.2 41.1 59.53 41.76 59.88 42.44 C58.76 42.33 57.65 42.23 56.5 42.12 C54.24 42.05 54.24 42.05 51.88 42.44 C49.49 43.54 49.49 43.54 47.12 44.94 C44.27 46.48 42.07 47.41 38.85 47.91 C35.76 48 32.93 47.9 29.88 47.44 C25.98 46.11 22.83 44.16 19.56 41.69 C18.23 41.07 18.23 41.07 16.88 40.44 C13.19 40.19 9.56 40.26 5.88 40.44 C6.87 39.45 7.86 38.46 8.88 37.44 C8.55 36.45 8.21 35.46 7.88 34.44 C6.25 33.05 6.25 33.05 4.25 31.75 C-0.24 28.52 -3.71 24.76 -7.12 20.44 C-7.79 19.45 -8.44 18.46 -9.12 17.44 C-9.73 14.58 -10.17 12.31 -10.12 9.44 C-8.94 6.12 -8.94 6.12 -7.12 3.44 C-6.55 2.82 -5.97 2.2 -5.38 1.56 C-3.12 0.44 -3.12 0.44 0 0 Z M-3.12 2.44 C-5.61 4.17 -5.61 4.17 -7.12 6.44 C-7.45 7.1 -7.79 7.76 -8.12 8.44 C-8.24 11.95 -8.15 14.14 -7.12 17.44 C-3.96 22.56 -0.04 26.74 4.45 30.73 C7.95 33.44 7.95 33.44 11.88 35.44 C15.37 35.57 15.37 35.57 18.88 34.44 C21.17 32.84 22.97 31.42 24.94 29.5 C25.45 29.01 25.97 28.52 26.5 28.01 C30.28 24.29 33.48 20.42 36.01 15.73 C37.09 13.24 37.09 13.24 37 9.56 C36.02 6.44 36.02 6.44 34.25 4 C33.47 3.48 32.68 2.97 31.88 2.44 C28.55 1.77 28.55 1.77 24.88 2.44 C23.5 3.08 22.14 3.77 20.81 4.5 C18.79 5.6 18.79 5.6 16.88 6.44 C13.75 6.38 13.75 6.38 10.88 5.44 C9.93 4.92 8.98 4.41 8 3.88 C5.13 2.39 5.13 2.39 2.86 2.1 C0.45 1.93 0.45 1.93 -3.12 2.44 Z " fill="#FBC016" transform="translate(329.125,470.5625)"/>
<path d="M0 0 C12.54 0 25.08 0 38 0 C38 0.99 38 1.98 38 3 C25.46 3 12.92 3 0 3 C0 2.01 0 1.02 0 0 Z " fill="#FE8315" transform="translate(322,699)"/>
<path d="M0 0 C0.33 0 0.66 0 1 0 C2.01 4.66 3.01 9.33 4 14 C4.14 14.65 4.28 15.3 4.42 15.97 C7.06 28.44 8.51 40.23 8 53 C7.7 55.01 7.38 57.01 7 59 C6.34 58.34 5.68 57.68 5 57 C4.96 54.1 5.02 51.27 5.12 48.38 C5.39 35.4 3.13 22.82 0.39 10.17 C0.19 9.28 0 8.39 -0.2 7.48 C-0.37 6.69 -0.55 5.9 -0.73 5.08 C-0.87 4.05 -0.87 4.05 -1 3 C-0.67 2.01 -0.34 1.02 0 0 Z " fill="#F6C219" transform="translate(462,421)"/>
<path d="M0 0 C0.99 0 1.98 0 3 0 C5.53 2.27 7.7 4.6 9.75 7.31 C13.08 11.29 16.83 14.91 21 18 C21.99 18 22.98 18 24 18 C24.54 18.72 25.07 19.44 25.62 20.19 C27.77 23.01 27.77 23.01 30.26 24.45 C32.49 25.67 34.73 26.86 37 28 C36.67 28.66 36.34 29.32 36 30 C27.38 25.91 20.57 20.63 13.51 14.34 C12.12 13.1 10.7 11.89 9.28 10.69 C8.49 10.01 7.69 9.33 6.88 8.62 C6.19 8.04 5.51 7.45 4.8 6.85 C2.76 4.75 1.41 2.56 0 0 Z " fill="#F2C11B" transform="translate(246,552)"/>
<path d="M0 0 C0.66 0 1.32 0 2 0 C2.33 0.81 2.65 1.62 2.99 2.45 C3.43 3.52 3.86 4.59 4.31 5.69 C4.74 6.74 5.17 7.8 5.61 8.89 C6.9 11.97 6.9 11.97 8.54 14.52 C10 17 10 17 10.93 19.92 C12.17 23.5 13.95 26.15 16.12 29.25 C17.45 31.14 18.75 33.06 20 35 C20 35.66 20 36.32 20 37 C18.51 36.5 18.51 36.5 17 36 C15.29 33.49 13.75 31.01 12.25 28.38 C11.81 27.62 11.37 26.86 10.92 26.08 C6.87 18.95 2.94 11.66 0 4 C0 2.68 0 1.36 0 0 Z " fill="#F5C21A" transform="translate(222,509)"/>
<path d="M0 0 C7.59 0 15.18 0 23 0 C23 0.99 23 1.98 23 3 C15.41 3 7.82 3 0 3 C0 2.01 0 1.02 0 0 Z " fill="#FE8315" transform="translate(274,699)"/>
<path d="M0 0 C0.66 0 1.32 0 2 0 C2.84 4.39 3.13 8.54 3.12 13 C3.13 14.76 3.13 14.76 3.13 16.56 C3.01 19.8 2.61 22.82 2 26 C1.34 25.34 0.68 24.68 0 24 C-0.23 21.57 -0.23 21.57 -0.2 18.55 C-0.19 17.48 -0.18 16.4 -0.18 15.29 C-0.16 14.17 -0.14 13.04 -0.12 11.88 C-0.12 10.74 -0.11 9.6 -0.1 8.43 C-0.07 5.62 -0.04 2.81 0 0 Z " fill="#EDBE21" transform="translate(467,454)"/>
<path d="M0 0 C4.95 0 9.9 0 15 0 C15 0.99 15 1.98 15 3 C10.05 3 5.1 3 0 3 C0 2.01 0 1.02 0 0 Z " fill="#FE8315" transform="translate(306,699)"/>
<path d="M0 0 C4.95 0 9.9 0 15 0 C15 0.99 15 1.98 15 3 C10.05 3 5.1 3 0 3 C0 2.01 0 1.02 0 0 Z " fill="#FE8315" transform="translate(257,699)"/>
<path d="M0 0 C3.63 0 7.26 0 11 0 C11 0.99 11 1.98 11 3 C7.04 3 3.08 3 -1 3 C-0.67 2.01 -0.34 1.02 0 0 Z " fill="#FE8315" transform="translate(245,699)"/>
<path d="M0 0 C2.97 0 5.94 0 9 0 C9 0.99 9 1.98 9 3 C6.03 3 3.06 3 0 3 C0 2.01 0 1.02 0 0 Z " fill="#FE8315" transform="translate(370,699)"/>
<path d="M0 0 C0.66 0 1.32 0 2 0 C3.51 1.9 3.51 1.9 5.12 4.38 C5.66 5.19 6.2 6 6.76 6.84 C7.17 7.55 7.58 8.26 8 9 C8 9.66 8 10.32 8 11 C7.01 10.67 6.02 10.34 5 10 C3.61 8.22 3.61 8.22 2.31 6.06 C1.88 5.35 1.44 4.64 0.99 3.91 C0.66 3.28 0.34 2.65 0 2 C0 1.34 0 0.68 0 0 Z " fill="#EBBE22" transform="translate(234,535)"/>
<path d="M0 0 C0.33 0.66 0.66 1.32 1 2 C-0.98 4.97 -0.98 4.97 -3 8 C-3.99 7.34 -4.98 6.68 -6 6 C-5.25 3.56 -5.25 3.56 -4 1 C-1.88 0.19 -1.88 0.19 0 0 Z " fill="#F1851E" transform="translate(751,472)"/>
<path d="M0 0 C2.31 0 4.62 0 7 0 C7 0.99 7 1.98 7 3 C4.69 3 2.38 3 0 3 C0 2.01 0 1.02 0 0 Z " fill="#FE8315" transform="translate(298,699)"/>
<path d="M0 0 C0.99 0.33 1.98 0.66 3 1 C4.39 2.63 4.39 2.63 5.69 4.56 C6.12 5.2 6.56 5.84 7.01 6.5 C7.34 7 7.66 7.49 8 8 C6.14 7.72 6.14 7.72 4 7 C2.3 4.81 1.27 2.49 0 0 Z " fill="#E1B929" transform="translate(293,522)"/>
</svg>
