<svg version="1.1" xmlns="http://www.w3.org/2000/svg" xmlns:xlink="http://www.w3.org/1999/xlink" width="1024" height="1024" viewBox="0 0 1024 1024"><path stroke="none" fill="#FFC12E" fill-rule="evenodd" d="M159.63916345457022,757.5020583266527C158.8043233404138,755.3264998625593 158.8043233404139,657.6735001374393 159.63916345457034,655.497941673347C160.14902937014742,654.169252395752 160.44936945226095,654.1021345046947 161.12385068005327,655.1661542051118C162.22850209773492,656.9087836839988 162.2285020977348,756.0912163160015 161.12385068005315,757.8338457948885C160.44936945226073,758.8978654953056 160.14902937014725,758.8307476042482 159.63916345457022,757.5020583266527zM338.0,597.33686257065C329.5648552100484,596.7192587064419 317.51439820703564,594.8890418822411 309.35200623908065,592.9858209339945C298.35342484481487,590.4212870825523 283.0201088380376,584.31935139269 280.2095310096436,581.3884919795248C278.94977306494764,580.0748213907862 277.5146418594754,579.0 277.0203505530387,579.0C276.526059246602,579.0 274.04190149773456,577.2 271.5,575.0C268.95809850226544,572.8 266.47045212050017,571.0 265.9718969294106,571.0C265.473341738321,571.0 259.71601523738735,565.6615149864285 253.177838038447,559.1366999698412C244.5833649928823,550.5597915929249 239.6919511622804,544.6895697999074 235.52068820152851,537.9462242986185C232.34743299016372,532.8162776960334 229.4055962492312,527.4672627096048 228.98327322167842,526.0595243287773C228.56095019412567,524.6517859479497 226.60839932419864,520.125 224.64427128850724,516.0C216.89357083383177,499.72222238338856 212.91112574332985,474.6262387326323 214.97847457005685,455.0895113666985C215.59478647425794,449.2652801150143 216.50242973887666,442.925 216.99545960254287,441.0C217.48848946620907,439.075 218.21056151878335,434.5882257416447 218.600064163819,431.02939053698816C219.17072475419138,425.81533865618195 220.44584076993377,422.44843448330187 225.1662397810304,413.6916080822824C233.09350138465257,398.9857212419538 238.75704372378775,391.2778329752862 250.0,379.89370607202534C259.5696772510226,370.2038684908378 272.0785896864181,361.0179087795357 283.6763200591589,355.1633931142811C294.5246005246991,349.68719855850355 315.1053286804818,344.5108247590635 332.0933619274323,342.9857526986332C345.104932222378,341.81766089950105 356.3770791279509,342.7117253616808 370.7561491781647,346.0523401357261C395.79079192814567,351.86850885466856 408.1039375240514,357.75075693451635 425.64356311919994,372.2732097541135C436.5370150651328,381.2927661334194 445.73551251592266,392.3877827878123 454.01982001295164,406.5C457.248489934097,412.0 460.7023499443787,417.5021531797281 461.6950644802443,418.7270070660625C462.6877790161099,419.95186095239694 463.36606273242415,421.82393337009705 463.20236162760926,422.88716799428505C463.0386605227944,423.9504026184731 463.79037441812767,428.37878542926757 464.8728369505722,432.72801868493946C465.95529948301674,437.07725194061135 467.35506282028456,444.4301795229112 467.98342214450076,449.0678577567169C468.6117814687169,453.7055359905226 469.540927859216,459.90449007374707 470.0481919011654,462.84331127499354C470.67800041693476,466.4920907385556 470.622276495551,468.8372657322243 469.87247949765185,470.2382742381951C469.20282873894956,471.48952812638146 469.02424384368305,474.4976451493628 469.41471461892263,477.948950564841C470.15999998833377,484.5364024168949 468.4055151821026,494.00980868272853 464.010979436072,507.12662058986024C460.1509203292395,518.648126428211 455.3050293136922,528.2361709908105 447.14909656893764,540.4894188493997C432.24198349144206,562.8854533816909 408.7599023037656,581.1435674989882 383.5,589.9787490041914C373.1224964784144,593.6084988773897 364.42874277352615,595.5557311250178 354.5,596.4741866595582C350.65,596.8303298177241 346.375,597.2442599829986 345.0,597.3940314712795C343.625,597.5438029595603 340.475,597.518076954277 338.0,597.33686257065zM331.2889985519955,533.6135388606328C333.8227717280145,532.850985233981 337.04748108800277,531.3212115541589 338.4550193519694,530.2140417943615L341.01417983190873,528.2010058674573L347.75708991595434,531.5974217715468C355.5116768698148,535.5034211296066 360.2456241506465,535.8760001252558 372.450270868735,533.5408655855545C380.7660319841604,531.9497977363102 385.21487193733014,529.4189504019887 387.51508874705075,524.9708215806655C389.3045940948155,521.5102998247746 389.45420976649206,515.8542097664924 387.8000000000001,514.2C385.8893891452701,512.2893891452698 381.3334639704623,512.7973292721833 375.9605764936226,515.5199774025407C373.2254616683224,516.9059649739381 368.96445378670217,518.317263384665 366.4916700900221,518.656196093045C362.7318799655065,519.1715326554597 360.9668956928867,518.7659588179437 355.7126290146025,516.1792918387015C352.2569401198018,514.4780617904325 348.3327982143427,511.9186986870936 346.99231366913784,510.4918182757259L344.55506904149263,507.8974902550574L353.4167413405869,499.7377002659788C358.2906611050887,495.24981577198554 362.89077057075286,490.11233384850107 363.6392068198405,488.3210737693466C365.47755432231673,483.92128888878676 365.37170961831487,477.514566761172 363.42857142857144,475.57142857142856C361.26878031003275,473.41163745288986 355.1658329470747,473.5967575191635 349.76480210744785,475.9858902621236L345.27536777967794,477.9717805242472L339.1575543381867,475.4858902621236C331.1107075588998,472.2161635467313 326.6666263204917,472.24246458859926 323.3295269292205,475.5795639798704L320.74996294935005,478.15912795974083L321.37341202235586,482.70768484233844C322.13790923099066,488.28530006485664 326.9436802764719,495.27359505100617 333.0677475888723,499.7129615882373C340.6928298581172,505.24042125563466 341.1702350610073,505.8133957870593 339.98926370717334,508.02006094664944C338.52297684076404,510.7598430180482 327.2384273911018,517.8157763413362 323.0121541501728,518.6354030647113C320.4718983605088,519.1280502294175 317.33600467592754,518.5688360125431 311.46970110736453,516.5770731312446C306.92189689983036,515.0329751305 301.9176129450675,513.9854931305109 299.97560186511237,514.1711620815953C297.28341249196825,514.4285529802321 296.33121035088584,515.0863517569611 295.59305139637104,517.1987086632639C294.8818251160113,519.2339935244348 295.10732369551755,520.9115956830514 296.5103458439735,524.0229429832957C298.6548476277441,528.7785983681002 303.3545655812243,531.6872573982417 312.0,533.6095017684529C319.46820852348526,535.2699992165227 325.7806091412279,535.2713203708118 331.2889985519955,533.6135388606328zM305.99855463731245,467.72973802673766C308.4727596878343,466.50338211203194 311.5102596878343,463.9709525510937 312.74855463731245,462.10211678020823C315.70451410039146,457.64098029231616 315.71711022271984,452.61569148902225 312.7774937565946,450.55670396864906C309.82050651909327,448.48554948639674 307.1694514808075,448.59928991265264 303.2916990262813,450.96368093458165C298.3948508200547,453.94944757913294 289.32132126151635,456.2828620305368 285.4396203160876,455.5546505436205C283.57416670187354,455.2046893360783 279.51641643514245,453.58672701522363 276.4223975011297,451.9591787194991C267.0814334882596,447.0455468433512 262.0,448.48215330134695 262.0,456.0366323431224C262.0,458.98814928101547 262.77149677493736,460.8090938266133 265.18812275710144,463.56147876352594C266.94159027350725,465.55856793460197 269.5290902735072,467.65190058963003 270.93812275710144,468.21332910803267C275.4247220724399,470.00101309375003 284.2382174222827,470.879579879864 293.0,470.4125510756576C299.0798166352399,470.08847895131936 302.78086201161034,469.3246084205244 305.99855463731245,467.72973802673766zM405.67764051533413,469.9183947419584C409.97993823190035,469.3235118500356 414.85663560919505,468.00223787561083 416.5147457982112,466.98223035434785C420.7304492031293,464.3888869149822 424.0,459.626563431751 424.0,456.0794476548859C424.0,452.3880890860664 420.6269149428574,449.0 416.9519034208031,449.0C415.4828678935401,449.0 411.4451991514086,450.4625 407.9793062160663,452.25C403.2960354291074,454.66535058579706 400.37079086630627,455.5 396.58884134863104,455.5C392.9218970320349,455.5 389.5825798671897,454.5919022548509 384.63772612593556,452.25C380.86347549520013,450.4625 376.7264922810922,449.0 375.4444300945846,449.0C372.74149908053215,449.0 370.0,452.41006992587285 370.0,455.77216617028967C370.0,457.05210069620296 370.63224369000596,459.3144728866705 371.40498597779106,460.7996599268842C373.97989064668275,465.7485479384163 377.6837881814264,468.2789642849137 384.24504155710446,469.5716862108344C392.36455369824347,471.17142192772315 396.17028483012865,471.23298606435264 405.67764051533413,469.9183947419584zM625.6391634545703,188.5020583266527C624.7294683761447,186.13143095255657 624.875920817449,179.74405257755367 625.8761493199468,178.1661542051115C626.5506305477393,177.1021345046943 626.8509706298528,177.16925239575164 627.3608365454297,178.4979416733473C628.2705316238553,180.86856904744346 628.124079182551,187.25594742244633 627.1238506800532,188.83384579488848C626.4493694522607,189.89786549530567 626.1490293701472,189.83074760424833 625.6391634545703,188.5020583266527z"/><path stroke="none" fill="#FE8315" fill-rule="evenodd" d="M241.03467895530343,875.9346560262827C234.47595471121195,874.6070237243739 225.98536747083935,868.9874847281021 222.74206088742187,863.8275923254856C218.4944814264066,857.0699662957848 216.8108866372603,846.9118734314648 217.1823843745661,830.282875581735C217.45149205687753,818.2370658199957 217.77282661448484,815.7934609472848 219.2863877587191,814.282875581735L221.07277551743817,812.5L248.0012086718557,812.5L274.9296418262732,812.5L276.7087529868702,814.279646359448C278.0339116299342,815.6052036416745 278.57874697502484,818.0605700627157 278.8440482120322,823.9026127145405C279.03994944754294,828.2164387121451 278.71659793543785,837.037435616388 278.125489296243,843.5048280573028C276.93299206415816,856.5520871789147 274.97522401271846,861.9581093206149 269.43710526430107,867.4962280690322C265.1228519136222,871.8104814197112 256.7277712584944,875.734000163508 250.5,876.346659709895C247.75,876.6171920853843 243.49060552988655,876.4317904277589 241.03467895530343,875.9346560262827zM778.0346789553034,875.9484109114248C775.5787523807203,875.4437113231206 771.0787523807203,873.4992672520685 768.0346789553034,871.6274240868645C763.4888235569163,868.8321142607518 761.9194750463998,867.0874339591654 759.2506647457515,861.8620364387014C756.7175863953065,856.9023953100904 755.7554097343111,853.3434090593654 754.8857022179416,845.7165173763974C754.2721072174828,840.3356019334161 753.9502066966495,831.4482747472326 754.170367727201,825.9669014071009C754.4828436105498,818.187155045394 754.9542183876117,815.6167658883511 756.319019323831,814.2503840307033L758.06737813764,812.5L780.78368906882,812.1845734385523C793.277660080969,812.0110888297561 805.4492876471686,812.1566782829432 807.8317503270414,812.5081055567458L812.1635006540828,813.147064236387L813.5817503270414,816.541413487297C815.2879486470778,820.6249208555294 815.4734311725293,836.3300298207515 813.9494794548673,847.6776405153341C813.3708088237848,851.9865231169341 811.7713794024548,857.8465132809201 810.3885304802786,860.7242468158443C809.0077948440779,863.5975825645587 806.0422102224506,867.519948708672 803.7983424322181,869.4406160249849C797.2678411103728,875.0304821047094 786.6360773746959,877.7160216722818 778.0346789553034,875.9484109114248zM722.0079968422658,814.08222191794C720.637395105512,813.7144829722289 718.9565289165906,812.3080443810833 718.2727386446629,810.9568028265053C717.3314169352507,809.09665204314 717.0259034532146,796.2928636422471 717.0147418023971,758.2353148253158L717.0,707.9706296506314L713.7197142378807,704.3912182539589C711.3703942510607,701.8276663730943 709.1708954019398,700.5670658211212 705.9697142378807,699.9494544941388C698.5077429916223,698.5097990272601 692.493866610373,698.8894354655681 685.8390943779993,701.2202349924487L679.5,703.4404699848973L575.0,703.7201405388416C491.87452497912545,703.942607023492 469.9886477277721,703.7391842162184 468.0,702.7256069348969C465.88751379194537,701.6489114509822 465.453045328928,700.6384269346006 465.197077419901,696.2065840163268C464.553387502383,685.0617002167908 470.8106021349974,669.2502255998191 479.08993491313004,661.1004582864484C485.42211659316575,654.8673705895052 496.0060888229722,649.3114319381707 505.2477000545408,647.3692300456548C509.3149087188948,646.5144721287473 517.5506115312623,645.8435097861516 524.0,645.8414810013875C530.325,645.8394913455163 536.2875,645.6190197183242 537.25,645.3515440520719L539.0,644.8652246588858L539.0,633.0205805385154C539.0,626.5060262723117 539.6690818105485,617.6488507240624 540.4868484678857,613.3379682090725C542.1956795066106,604.3298119339086 547.2308108507668,593.4118924360666 552.524361108284,587.236445730487C554.5344402058026,584.891490882255 558.2762640417872,581.516490882255 560.8395251882498,579.736445730487C563.4027863347125,577.9564005787192 570.9,574.7 577.5,572.5L589.5,568.5L589.8182305378131,565.1846759122327C590.3319288772886,559.832969283406 588.8828535165879,559.0 579.059056511984,559.0C563.9963084009787,558.9999999999998 553.0348193803545,563.7468115754785 541.9313293428257,575.0779548076163C535.6832420777256,581.4541456708903 529.2038962989325,591.8322195647839 526.8000278855379,599.3140073344753C526.2370222171944,601.0663033005138 525.4842136735601,608.4514103401308 525.1271200107951,615.7253563114018C524.6073617561331,626.3127563600577 524.1341061193637,629.2944653092078 522.7544595876311,630.6741118409404C521.3579442673245,632.0706271612471 518.325261235824,632.5245260014416 506.7655301847472,633.0671599889133C491.65439324000744,633.7765031785882 488.28774858798175,634.5973710273169 477.9993261143324,640.0810430956933C467.2147376605649,645.8291688773014 454.37875878966094,661.1060009514492 450.76784120947525,672.4907896530199C450.24290342133804,674.145855343859 449.47818316463326,681.036137279035 449.06846286124244,687.8025272867444C448.4915567108884,697.3299341026542 447.9407358471957,700.4879589284594 446.62659095805634,701.8025272867444L444.92966506103534,703.5L416.2148325305177,703.4480496215467C400.42167463873295,703.4194769133975 385.7,703.2582515477725 383.5,703.089771031269C378.69841461333687,702.7220557649143 368.20782379729724,702.6156895495452 362.0,702.8717781964956C359.525,702.9738782917784 332.3901121264664,703.1185371162572 301.7002491699253,703.1932422508933L245.90049833985063,703.3290697684131L244.4000608101608,701.8286322387316L242.89962328047096,700.3281947090501L244.4827740182969,699.0142962950392C245.7524219010735,697.9605821415637 257.0992710774956,697.7236669807573 301.7829623780614,697.8179039637038C332.42733307012764,697.8825323091752 359.525,698.0205609125298 362.0,698.1246341933806C364.475,698.2287074742313 369.425,698.2880389587394 373.0,698.2564819367317C376.575,698.224924914724 380.9754440663122,698.2325055625427 382.7787645918049,698.2733278207729C384.58208511729754,698.3141500790031 387.2820851172975,697.4588679916901 388.7787645918049,696.3727009600773C390.2754440663122,695.2865339284643 392.7686068162028,691.9458351540599 394.3191262582285,688.948925905845L397.13825251645693,683.5L396.7979009057767,676.5C396.5380535550214,671.1557283755695 395.68026550778364,667.8442716244305 393.1713904109022,662.5C389.4953989447929,654.6695994717331 385.62787756495254,650.1136671907692 379.05421932245275,645.8700013106555L374.6084386449055,643.0L328.3860067906838,643.0C302.9636692708618,643.0 281.4517705757581,642.7268550381162 280.581787468231,642.3930111958139C279.7118043607039,642.0591673535114 278.99999999999994,640.7811504937554 279.0,639.5529737296893C279.00000000000006,638.3247969656231 278.1,633.8009587872626 277.0,629.4999999999993C274.80209741095734,620.9062832237339 274.4684295892019,610.5071199900324 276.03741922040206,599.5C277.07178774987113,592.2434711540628 279.62659225764065,583.1732650427202 281.0818172335701,581.5911034296603C281.5726284814084,581.0574796062431 285.7539809092142,582.1868247381918 291.2088965703472,584.3263351393323C303.9862582795228,589.3378330201695 315.1332195713576,591.8271808319454 330.86802501223804,593.1830416460714C354.60396230902654,595.2283562442203 375.07922074647684,591.8047632970208 394.7500432510984,582.5015634237792C399.83756703920255,580.0954489540114 407.26256703920257,575.9616142046066 411.2500432510984,573.3152639806575C420.56576088339796,567.1327439774193 439.1248715082935,548.5776942039441 445.3000738782505,539.2726837167276C455.4441208931173,523.9872795791446 464.3191553009778,501.6066412048142 466.57744452305394,485.61642549014823C466.96066609374014,482.9029574711347 468.12339808665,479.8766019133501 469.1940388451926,478.8059611548075L471.12092867068156,476.87907132931855L541.8104643353408,477.2840081002032L612.5,477.6889448710878L619.9714352177422,479.33663085700516C636.8171645001864,483.05164293331006 650.8691755687724,489.02596601793744 664.9701674270697,498.46819596217006C670.2115753421814,501.9779191974817 677.9485422760057,508.37087097498454 682.1634272800127,512.674755467732C700.3697997468146,531.2655649570918 711.804265150996,553.0167459226082 717.5559046196447,580.0L720.0071973251039,591.5L720.2535986625519,612.9890560963888L720.5,634.4781121927776L723.5,635.1207413079628L726.5,635.763370423148L723.25,635.881685211574L720.0,636.0L720.0,656.6030705188319L720.0,677.2061410376639L724.383004642582,682.0810970722231C727.6859659589472,685.7547849904829 729.2260671770191,688.6247770354018 730.633004642582,693.7280265533911L732.5,700.5L732.5,755.713880537139L732.5,810.927761074278L731.0,812.3397300383108C729.0560748549276,814.1695713538076 725.1527345853209,814.9259699675436 722.0079968422658,814.08222191794zM231.65498756211207,697.171259328416C229.43762916563276,694.7211058795615 229.56546776778805,693.0 231.96481624151198,693.0C233.83469635480077,693.0 236.0,695.6477525325437 236.0,697.9342585459107C236.0,699.6202109582053 233.46904098557903,699.1757657983537 231.65498756211207,697.171259328416zM239.0,659.5714285714286C239.0,658.7428245145283 242.1538407516445,656.0 243.10661232991657,656.0C243.6894151360236,656.0 243.6472734993653,656.7905584033529 243.0,658.0C242.4112978656632,659.1 241.2704651743436,660.0 240.46481624151198,660.0C239.6591673086804,660.0 239.0,659.8071428571428 239.0,659.5714285714286zM744.0,632.1069888041843C744.0,631.0516016127183 746.478903252565,629.9869471858304 748.8317874682358,630.0318033718704L750.5,630.0636067437409L748.5588703648951,631.5318033718704C746.3918080764478,633.1708868659892 744.0,633.4726574916813 744.0,632.1069888041843zM754.1903357227102,628.25C754.3836351513648,627.2461720709996 756.1727811412019,625.9608768824336 758.3864261472963,625.235592643561C760.5089346537965,624.5401685975195 763.4805024224846,622.9320266270242 764.9899100777145,621.6619438202381C766.4993177329444,620.391861013452 769.2565729153254,618.749231789219 771.117143816339,618.0116566552758C772.9777147173526,617.2740815213327 775.3938780613505,615.957223491828 776.48639569189,615.0853054785987C777.5789133224297,614.2133874653695 776.8464426837477,615.525 774.8586831614858,618.0C772.4096229433256,621.0493749229026 768.8739678106988,623.7088542309144 763.8906885031711,626.25C759.8460509633597,628.3125 755.9330257285969,630.0 755.1950768703648,630.0C754.4555351404234,630.0 754.0045944343643,629.2145775681172 754.1903357227102,628.25zM730.5900861959997,589.1457625270447C729.9376442735913,588.0900893209026 732.5325007870895,585.0 734.0714285714286,585.0C735.5827946211162,585.0 735.1361304452942,586.5668285159599 733.0992774179194,588.4101551715844C731.9740660704491,589.4284574457923 730.9502943739745,589.7285916020336 730.5900861959997,589.1457625270447zM749.0,569.0C749.0,568.45 749.7015576474687,568.0 750.5590169943749,568.0C751.4164763412812,568.0 751.8399186938125,568.45 751.5,569.0C751.1600813061875,569.55 750.4585236587188,570.0 749.9409830056251,570.0C749.4234423525313,570.0 749.0,569.55 749.0,569.0zM746.5829492190055,522.1342146556913C746.1521780872087,521.4372123230717 746.0697899590155,520.5968767076512 746.3998644896874,520.2668021769792C747.294825482819,519.3718411838477 748.2706318178107,520.6881045465681 747.7872513959849,522.1382458120454C747.4485263781536,523.1544208655391 747.2129840557058,523.1536324355687 746.5829492190055,522.1342146556913zM743.0,492.0C743.0,491.45 743.45,491.0 744.0,491.0C744.55,491.0 745.0,491.45 745.0,492.0C745.0,492.55 744.55,493.0 744.0,493.0C743.45,493.0 743.0,492.55 743.0,492.0zM745.6572119913478,478.54909205956153C744.8356380355767,476.4081046500594 745.8606531576672,474.1449436837891 748.2250083164699,472.87957920350055C749.6533855342682,472.11513491554064 750.5329448195663,472.1329448195662 751.3427084792734,472.9427084792733C752.1800283394451,473.78002833944515 752.0790832438468,474.76840948080803 750.950975468973,476.77827391744484C749.1959110611141,479.90513964422115 746.5209446630334,480.79994332166063 745.6572119913478,478.54909205956153zM798.8618465257852,474.6525387100949C797.1261230971777,471.07989693656106 795.9254312006274,470.00967477448336 792.1248433514174,468.6475926253318C789.5811795081378,467.7359759881599 785.7,466.9861889611356 783.5,466.98139923194447C776.9876001475818,466.96722076300017 775.0760378280193,466.07445578229556 774.1891445955737,462.6329113168982C773.6161461031953,460.40941956165204 772.6994813644416,459.40116913900835 771.0312739548475,459.15953193012797C769.638407160556,458.95777737456183 768.3181285045075,459.46705242331325 767.7906904546215,460.40953193012797C767.3011515796513,461.2842893685576 765.6629803239646,462.0 764.1503098864287,462.0C762.6376394488929,462.0 760.9724999999999,462.4112948318992 760.4499999999999,462.9139885153316C759.9275,463.41668219876397 758.1583496742643,463.97918219876397 756.5185548316983,464.1639885153316C751.3023690502544,464.7518572265739 752.1692222861371,461.6047744857737 759.0883576955052,454.83440202343763C765.9523376485482,448.11799916287373 774.0614790535368,443.8287272413678 783.0242140357586,442.17370326508455C792.1736186303292,440.4842096001745 801.9748172151476,443.147501649897 810.0214474595375,449.5096955439701C813.5573015102426,452.30537378051065 815.9758683986433,455.36042956164624 818.0999728380589,459.71422855856963C821.6773861957973,467.0468899849482 822.1230498539818,471.70563753608405 819.4351113208271,473.6711061787107C818.4023632703503,474.4262699906464 816.8694753843328,474.7455585821848 816.0286937963438,474.3806363821293C815.1879122083546,474.01571418207385 813.2653628325389,473.50513010457996 811.7563618500866,473.2460050988095C809.6288121059143,472.8806631632201 808.359823760461,473.4738003974062 806.1051520497775,475.88743436234074C804.50598764206,477.59934546305334 802.6972762379864,479.0 802.0857933740588,479.0C801.474310510131,479.0 800.0235344284079,477.0436424195427 798.8618465257852,474.6525387100949zM217.7252491529363,423.25C216.80778609734443,421.1908078782742 216.5,407.06064673175666 216.5,367.0L216.5,313.5L219.32543852525697,307.7461376093037C223.1348495800398,299.9884650204709 229.15330411278407,295.76119774813725 237.2193254752421,295.17775443602073C241.96920291319654,294.8341793201097 243.94544415631242,295.2278618571767 248.39227123844074,297.40349162771764C252.61102378118073,299.467534923536 256.51957616876774,303.05407735145 266.23182564479566,313.77331667513704C289.5550318886639,339.5147301489992 297.0,348.2835900008826 297.0,350.0128014901606C297.0,351.22550354285937 293.346150894162,353.5540453345958 284.75,357.8195379268667C278.0125,361.16275010337034 269.5031164120929,366.1764533269129 265.84025869353974,368.96110064585014C257.7963716438389,375.07637735816314 241.22105269432453,392.3110387379394 236.03067053040007,399.9564714997757C233.96078543795394,403.00541217489905 229.95301055851718,410.1125 227.12450413165175,415.75C223.9990492466008,421.97934837521325 221.38724478067303,426.0 220.46613173979358,426.0C219.63253335113703,426.0 218.39913618705125,424.7625 217.7252491529363,423.25zM455.904715512592,414.75C451.3548904159497,405.6476550783727 443.0285308348377,393.4377424065324 436.33921301043347,386.0588205469835C426.80758885659236,375.54457803795066 412.93522095519546,364.7173000472239 401.6852522322731,359.01166684605676C396.08336350452294,356.17056363043883 390.8468216496806,353.21141931388695 390.04849255484567,352.43579058705257L388.59698510969133,351.0255565382627L391.76408623601264,346.53235460257247C395.777131928884,340.8390016100309 424.11818853613687,307.86280905856705 429.7002467215282,302.39179378405146C432.01038241836864,300.12761321411494 435.45339052350863,297.53820392500205 437.3513758440615,296.63755091935616C442.29472961272666,294.29177596445703 448.85581313845466,294.561972104905 454.09271625513657,297.3269866729571C457.533815507419,299.1438408997166 459.15767344367634,300.9365004016584 461.5,305.50426455689137L464.5,311.35455576786853L464.8126334530274,362.42727788393427C465.14165580343655,416.1773385690478 464.82561779989976,421.0 460.97425366537084,421.0C459.58771999918287,421.0 458.13124682384154,419.20438133187866 455.904715512592,414.75z"/><path stroke="none" fill="#9C995F" fill-rule="evenodd" d="M275.73168362094543,846.7431620154234C275.4310298124382,845.9596707495291 275.53078270332503,844.7592095341295 275.953356711805,844.0754704256465C276.5457542360635,843.1169510965451 276.8468361927572,843.1584782253867 277.26831637905457,844.2568379845766C277.5689701875618,845.0403292504709 277.46921729667497,846.2407904658705 277.046643288195,846.9245295743535C276.4542457639365,847.8830489034549 276.1531638072428,847.8415217746133 275.73168362094543,846.7431620154234zM160.1578947368421,650.0C160.1578947368421,648.625 160.38486842105263,648.0625 160.66228070175438,648.75C160.93969298245614,649.4375 160.93969298245614,650.5625 160.66228070175438,651.25C160.38486842105263,651.9375 160.1578947368421,651.375 160.1578947368421,650.0zM208.05215487476806,601.0611371519726C206.90008640694154,600.3261206725381 207.10437390444446,600.0151778636764 209.05215487476806,599.5390527725447C210.3984696936456,599.2099530043488 225.56279687801566,599.0665344071733 242.75065972892367,599.2203447788215C262.51623288279916,599.3972225081243 274.09295575048236,599.8675150116725 274.25065972892367,600.5C274.5761560635837,601.8054302590391 210.07573162199884,602.3521734906561 208.05215487476806,601.0611371519726zM802.1661542051115,601.1238506800532C801.1021345046944,600.4493694522607 801.1692523957518,600.1490293701472 802.4979416733473,599.6391634545703C803.4140399680657,599.2876235545566 806.7899662150594,599.0 810.0,599.0C813.2100337849406,599.0 816.5859600319343,599.2876235545566 817.5020583266527,599.6391634545703C820.5737542730728,600.8178837863319 816.8665577393502,601.9693744509659 810.0,601.9693744509659C806.425,601.9693744509659 802.8997693923002,601.5888887540552 802.1661542051115,601.1238506800532zM545.6938531601041,479.36051982677077C543.7411126104736,477.40777927714026 549.5575567883429,476.125516191634 553.5020583266527,477.6391634545702C554.8307476042482,478.1490293701473 554.8978654953056,478.4493694522607 553.8338457948885,479.1238506800531C552.2644688614399,480.11867744926286 546.616232465378,480.28289913204463 545.6938531601041,479.36051982677077zM560.5364512592641,479.11552359019834L558.5729025185284,478.32401070396287L561.0828820413785,477.6940459450784C562.4633707789461,477.347565327692 564.9219677122773,477.46098418464123 566.5464307821144,477.94608784941005C568.1708938519514,478.43119151417886 568.825,478.8729178547668 568.0,478.92770193960547C567.175,478.98248602444414 565.6,479.22524796630086 564.5,479.46717292150936C563.4,479.7090978767178 561.6164030666689,479.55085567762785 560.5364512592641,479.11552359019834zM578.0754704256465,479.046643288195C577.1169510965451,478.4542457639365 577.1584782253867,478.1531638072428 578.2568379845766,477.73168362094543C579.0403292504709,477.4310298124382 580.2407904658705,477.53078270332503 580.9245295743535,477.953356711805C581.8830489034549,478.5457542360635 581.8415217746133,478.8468361927572 580.7431620154234,479.26831637905457C579.9596707495291,479.5689701875618 578.7592095341295,479.46921729667497 578.0754704256465,479.046643288195zM213.50911367087622,470.89233442538045C213.15305049008967,469.4736657141375 213.2718433620599,466.7800259956457 213.7730978308101,464.90646838428756L214.68446959217403,461.5L215.42127268229657,465.69755843972905C215.84737655952483,468.12506715954623 215.736058255072,470.6492203456424 215.1572885223627,471.68342448082205L214.15650127230626,473.4717320821859L213.50911367087622,470.89233442538045zM287.1661542051115,472.1238506800531C286.10871468046656,471.45354062036245 286.18971426774874,471.1411774131276 287.5570315856747,470.6164885276643C288.5056293321731,470.25247741785245 290.17781751200334,470.23904941536193 291.2730053186308,470.58664852212996C292.8542212936905,471.08850697710176 292.97965068175876,471.39890016615493 291.8821279380676,472.0940106745188C290.14666233486463,473.193159083629 288.86581386760633,473.20126356586655 287.1661542051115,472.1238506800531zM393.1661542051115,472.1238506800531C392.10871468046656,471.45354062036245 392.18971426774874,471.1411774131276 393.5570315856747,470.6164885276643C394.5056293321731,470.25247741785245 396.17781751200334,470.23904941536193 397.2730053186308,470.58664852212996C398.8542212936905,471.08850697710176 398.97965068175876,471.39890016615493 397.8821279380676,472.0940106745188C396.14666233486463,473.193159083629 394.86581386760633,473.20126356586655 393.1661542051115,472.1238506800531zM217.4773192803467,429.9633018247117C217.12492619072498,429.3931178283031 217.14588269739534,427.0960022242016 217.52388929516974,424.8586004822638L218.2111740183959,420.7905973151042L219.566365667431,423.1452986575521C222.12235162370686,427.5864295978188 222.22116868911928,428.028581745306 220.98943094209503,429.51273493570125C219.54178195586215,431.2570452539331 218.3698184480413,431.4073958129725 217.4773192803467,429.9633018247117zM534.0521548747681,360.06647541017696C532.898632198742,359.32627806944026 533.1019153013866,359.01635410432107 535.0521548747681,358.5418825586937C538.3066725184069,357.7500946995379 565.7435659471595,358.4102326138259 566.6351089717136,359.3017756383804C567.0191323706044,359.6857990372712 567.1458333333331,360.0440776046371 566.9166666666665,360.09795023252696C566.6875,360.15182286041676 559.525,360.37581819782093 551.0,360.59571764898067C542.3897469699441,360.81781617281126 534.85643312487,360.58256810112323 534.0521548747681,360.06647541017696zM633.0521548747681,360.06541490020993C630.427960520377,358.38343285301767 635.7512561691855,357.9189024063574 654.2518395430116,358.2154520881311C665.2302482466761,358.39142727451684 672.0035851160005,358.88156219376225 672.0034328089439,359.5C672.0031131780521,360.7978507492231 635.0321853806182,361.33451898091965 633.0521548747681,360.06541490020993zM625.6047847904802,356.4124689641184C624.7924661891409,354.2956006216455 624.8259509470931,195.61713949787887 625.6391634545698,193.4979416733483C626.1490293701465,192.16925239575042 626.4493694522598,192.1021345046928 627.1238506800528,193.16615420511076C628.2696111970727,194.97363484628383 628.2508373014834,356.726940033287 627.1047847904802,357.43523943797925C626.6124164252442,357.73953982268023 625.9374164252442,357.27929310944285 625.6047847904802,356.4124689641184z"/><path stroke="none" fill="#069279" fill-rule="evenodd" d="M498.0,401.1134202003733C493.71405053718206,399.9167849329999 492.90300443253824,396.4555419393647 492.9118321948216,379.39901325694984C492.92087413044686,361.9286703336153 493.5699371607919,359.7360125678416 499.05727478056735,358.63854504388655C500.81327365125543,358.2873452697489 517.4857198077545,358.0 536.1071551283433,358.0L569.9643102566864,358.0L570.2321551283433,279.5354191287914L570.5,201.07083825758275L572.2857142857138,199.28541912879137L574.0714285714275,197.5L599.0000000000005,197.5L623.9285714285734,197.5L625.7142857142867,199.2854191287919L627.5,201.07083825758377L627.7678448716567,279.5354191287919L628.0356897433136,358.0L653.5178448716567,358.0L679.0,358.0L679.015312774517,265.75C679.0249123477819,207.9185056032904 679.3922994782727,172.94034950238552 680.0,172.0C680.5331559480312,171.175 681.0829365331568,170.725 681.2217346336123,171.0C681.3605327340678,171.275 681.7049234826005,213.35 681.9870474081293,264.5L682.5,357.5L774.7146255950323,358.0L866.9292511900646,358.5L868.7146255950323,360.28571428571763L870.5,362.0714285714352L870.5,379.9999999999999L870.5,397.9285714285646L868.7143650630096,399.7142857142823L866.9287301260192,401.5L683.7143650630096,401.65570956861086C582.9464642783544,401.7413498313469 499.375,401.4973196156399 498.0,401.1134202003733z"/><path stroke="none" fill="#0188EA" fill-rule="evenodd" d="M771.75,916.3377192982457C772.4375,916.0603070175439 773.5625,916.0603070175439 774.25,916.3377192982457C774.9375,916.6151315789474 774.375,916.8421052631579 773.0,916.8421052631579C771.625,916.8421052631579 771.0625,916.6151315789474 771.75,916.3377192982457zM882.9582079730571,867.75C885.4102223582387,865.1375 887.5477223582386,863.0 887.7082079730571,863.0C888.4590938644582,863.0 887.6651899787864,863.8978267288401 883.25,868.0417920269429L878.5,872.5L882.9582079730571,867.75zM93.63916345457021,738.5020583266527C92.66975001136291,735.9758073885234 92.90468206695279,271.6986806163787 93.876149319945,270.1661542051145C94.55063054773552,269.10213450470036 94.85097062984978,269.1692523957565 95.36083654542794,270.4979416733434C96.33024998863763,273.0241926114568 96.09531793304774,737.3013193836205 95.12385068005315,738.8338457948885C94.44936945226073,739.8978654953056 94.14902937014723,739.8307476042482 93.63916345457021,738.5020583266527zM756.75,96.33771929824562C757.4375,96.06030701754385 758.5625,96.06030701754385 759.25,96.33771929824562C759.9375,96.61513157894737 759.375,96.84210526315789 758.0,96.84210526315789C756.625,96.84210526315789 756.0625,96.61513157894737 756.75,96.33771929824562z"/><path stroke="none" fill="#00A1FF" fill-rule="evenodd" d="M119.5,829.2763902182862C118.4,829.0060063238665 116.89857658007149,828.2958032402428 116.16350351127,827.698161143567C113.84072720412037,825.8096565020118 107.21999358189547,811.616563062324 103.13351343823464,799.76532512008C98.73417533319787,787.0067649807263 95.67634626010195,772.7021309479273 93.9917867661128,757.0C93.178382125611,749.4180854256649 92.95780500815358,677.9944707212944 93.19809521995968,500.0L93.53086700197166,253.5L95.67307330706859,243.5C99.79321442642893,224.26683319642302 105.59859435405924,206.62849448213916 111.8550838968529,194.3346073092842C116.05754722100855,186.07684397381453 125.21105962352779,171.7589798249135 131.73558727685304,163.2376541300577C139.97657913975098,152.4745492060377 157.09421073918423,136.46442907057295 169.03830149297795,128.34842704803305C174.82692375716582,124.41506192445122 184.0488786656863,118.9454773814185 189.5315346230234,116.19379473018256C200.20288376448428,110.83796599930203 215.49655779196132,105.19241198914214 227.94224893873837,102.01474515395961C239.66367373403958,99.02199992238921 258.9214649059482,96.17556659686953 275.0,95.05928750831993C284.35331039807176,94.40991834968659 373.2668100727635,94.1910057616445 525.5,94.44253523217316L761.5,94.83246961555653L773.4604930483704,96.4580602393774C790.3702161118102,98.75631727210737 802.6889897263811,101.58868269514385 815.9836452067702,106.23509727409578C845.7536294368651,116.63955558788368 867.567225910774,130.38858580846542 888.0,151.6267427834722C893.225,157.05769257569466 900.5425159500467,165.77592763714077 904.2611465556594,171.0005984755747C912.470246933533,182.53437311006465 922.791524141907,203.11684849079137 926.8265226221081,216.0C930.5461156368148,227.87610865188577 933.6404595214158,243.39259330398403 934.9741395529923,256.85595453316586C936.3969940609206,271.21952282785253 936.3823734188073,736.0006736383177 934.9585154864658,753.53534550834C933.85585231965,767.1145350988896 930.2843441076286,786.1968942339106 926.8235480355734,797.0C923.0347410304395,808.8270137712718 915.9452768593907,824.7027688715847 913.3732184254566,827.1199263804317L910.8406203617438,829.5L863.1609406347886,829.7861958824539C823.7587355431756,830.0227064656079 815.1521161618338,829.8317152504794 813.585330474406,828.6860535843296C812.2501494237503,827.7097453633775 811.5639934153908,825.7026278629878 811.2653920165201,821.8998577018758C810.6075403620241,813.5219376666186 811.536952215578,812.8361687932397 824.5928122870914,812.0661871401661L835.5,811.4229254645992L842.2876039396409,808.246405011461C854.6829948912539,802.4455048362917 865.0527557082194,789.9907327920373 868.609874771739,776.6316080371134C869.6964546812832,772.5508459629223 869.9756658892799,758.5989180807852 869.9733500379175,708.5C869.9701880985684,640.0976219375601 869.8660195015236,638.596853966431 864.3671471398361,627.7308431928745C860.6684080942982,620.4219740877445 850.9370447038497,611.2159875907163 842.6822054829435,607.2166282702112C834.5413391348627,603.2724872839489 826.5929133105096,602.0736637111626 808.2996901135782,602.0308756661933L795.0993802271563,602.0L794.1407381581655,600.2870016591025C793.4202716891784,598.9995995035242 794.1381164813359,596.8256530771715 797.0300190784482,591.5370016591025C803.0209691907972,580.5808764981466 805.0890837332494,571.8592637686746 805.693864494726,555.0L806.2140130113952,540.5L803.5562149743968,528.7472468849901C802.0944260540476,522.2832326717346 799.5390507173806,513.6277874206326 797.8776031151367,509.5129241047632C796.2161555128929,505.39806078889393 795.0015117019783,501.0117996906484 795.1783946464376,499.7656772197731C795.4100572092757,498.1336378725344 797.1545067950365,496.6751755351649 801.415963230671,494.55070343599596C804.6697430075401,492.9285903257938 808.8291944277291,490.1041389056046 810.659188608869,488.27414472446446C815.9498393039743,482.9834940293582 818.0000000000001,478.02164105510633 818.0000000000002,470.5077194363816C818.0000000000002,466.89314325236546 817.3894695073698,462.48771612208213 816.6432655719325,460.71788136908526C814.7316517688425,456.18394582901743 806.306343539355,448.6643126953742 800.7681546401304,446.549259057412C797.0808086315291,445.1410487684834 794.0221944531734,444.84986273150116 786.2963207416725,445.17151223645686L776.5,445.5793601815062L770.1874104031654,448.96236530490756C763.5376995221716,452.5260384432373 756.5950076369269,459.42218542791613 752.3297389988657,466.7003160657465C750.9281612171518,469.0919277225986 748.4936409598715,474.81030622145846 746.919693982687,479.4078238409906L744.057972205988,487.76694678559454L744.0768124864287,499.50800428568175C744.0898874041043,507.656150525877 744.5716743876396,512.5115072177227 745.6512150439396,515.3745308928844C746.5067742963281,517.643538901798 747.5543730968097,521.75 747.9792123783432,524.5C748.4040516598767,527.25 749.7238872181738,532.875 750.91218028567,537.0C754.8083600270232,550.5250653838652 755.294283303688,554.0486094692204 754.0402786955985,559.6825780529904C753.4058347570177,562.532995982135 751.1772621142063,567.4829959821351 749.0878950449068,570.6825780529904C744.2497973826381,578.0914679339008 733.3711909551794,587.654184285525 727.5083107959963,589.6518683324359C725.0300225155039,590.4963060195736 722.75024973328,591.5950874258773 722.442149057721,592.0936047908885C721.4431316806273,593.7100488623781 719.0813107163716,593.0547561601265 717.5994979006259,590.75C716.8038634681379,589.5125 715.4556644227031,584.4078490037946 714.6035000218817,579.4063311195434C712.0977300897491,564.6994821625822 705.0775976655914,546.8629056852803 696.5356536514455,533.5C688.374033945262,520.7320686962778 671.4479304883841,504.31690530481103 658.7896211775696,496.893388678213C649.8587907909032,491.6558671232527 637.5701260764093,486.4668296578981 628.1658569171719,483.96213343044246C616.9605607417366,480.9777587190308 586.3737613769557,479.87869180909803 523.9119440812455,480.21600672844704C480.5006118001778,480.45044259152627 471.03387551097853,480.2605055817033 469.66194408124545,479.12755528455784C468.3485007312866,478.0429048411249 467.99827949074546,475.9459586488949 467.9917951673683,469.12755528455784C467.98043916824446,457.1864816941121 466.37965817894263,444.3601832927571 463.4663354446787,432.86719412681737L460.99999999999994,423.13755922853073L460.99844600092126,366.3187796142654L460.9968920018425,309.5L459.24844600092126,306.01993330012243C458.2868007004146,304.10589661518975 455.9709525510926,301.5183966151898 454.10211678020573,300.2699333001225C451.56111321552964,298.57243275814176 449.2657374821823,298.0000000000001 445.00000000000455,298.0000000000001C440.72638851203584,298.0000000000001 438.4513856485778,298.56902813288974 435.92901756951414,300.2688517358835C432.3688916572217,302.6680202416913 424.1038869838551,311.769049668744 402.7201460891269,336.83687904216504L389.63724837644446,352.17375808433L387.0686241882222,351.6605043205086C385.6558808847,351.3782147504068 380.2353986607379,349.9755219000931 375.0231081349731,348.54340909758923C353.55361736673694,342.6445183046745 319.96466606923514,343.3927958096474 302.76941124556987,350.1530400608963C301.2675874306333,350.74347596402356 298.97325000062096,350.9591182140456 297.67088362332015,350.63224506094537C296.28460108958905,350.2843102932898 289.542828326116,343.5007241035446 281.4084654935994,334.2689651185633C263.29252783978933,313.7090302287177 251.1919542459757,301.15062369085575 247.81473770237244,299.4041971425902C244.3070016469849,297.5902763316667 233.67741492777358,297.59421478359735 230.20034007311565,299.41072359184767C227.12601528757855,301.0168259295265 222.7811481125897,305.4552039510078 221.12218642711923,308.6842585459108C220.32899989877296,310.22814146159453 219.99999999999994,328.6249040478484 220.0,371.4338136497963L220.00000000000003,431.9991102077711L218.30855077225124,441.24955510388554C215.93294805070423,454.2415986782459 215.9553932571661,480.5544778585786 218.35184151994622,492.0C222.86730281696705,513.5660037633469 232.56433366134365,534.3315382395351 245.1404581016671,549.3660071958733C253.33995172579992,559.1683141732483 267.28941782323284,571.7502039992004 275.6530298055703,576.8871906450108C278.48719619863397,578.6279546766181 281.08159004130573,580.7702369484317 281.41834945595195,581.6478179157077C282.2945460774616,583.9311497104142 279.1779432893681,598.2148528174243 277.4140333886827,600.0C276.16707855580876,601.2619680324029 269.86746824058093,601.5840309457132 237.71593918632027,602.0295356747342L199.5,602.5590713494684L193.89471766097287,604.7972388405565C190.81181237450795,606.0282309606549 186.2081490841112,608.4139930926603 183.66435479342454,610.098932467235C177.74378807287704,614.0205530258514 170.50098655388445,622.077838082068 167.4058749460693,628.1857468535438C162.17820323228665,638.5020604347359 162.03072419818093,640.659921912311 162.014781086696,707.066340503181C162.00514589745666,747.1989338450935 162.37855688201205,770.6804835992962 163.0873675854445,774.5147934886677C164.66753132067913,783.0626856233325 170.27784852172746,793.4681998190513 176.6726093320189,799.7114839395813C179.67094479596355,802.6387959603752 184.90869947696393,806.4441926016317 188.3120641786864,808.1679209201511L194.5,811.3019724083683L205.8251267056612,812.0118271955592C219.5062116886708,812.8693525832708 220.5,813.5197730741854 220.5,821.6163256419596C220.5,825.9510224689283 220.0763391948835,827.4710110567155 218.5588703648948,828.580611356245C216.9413792046035,829.7633497693687 208.68839897414182,829.9806594575317 169.0588703648948,829.8839986495248C142.90149166420267,829.8201979067634 120.6,829.5467741127061 119.5,829.2763902182862zM277.44112963510486,828.5806113562448C275.9236608051166,827.4710110567153 275.5,825.9510224689276 275.5,821.6163256419591C275.5,817.6265577875831 276.00082380648286,815.5706047649456 277.28571428571433,814.2857142857142L279.0714285714286,812.5L517.1163256419572,812.5L755.1612227124858,812.5L756.6599193602174,814.5C758.7781679630526,817.3267876705287 757.9765452560264,826.8127643136281 755.4641703444031,828.6498577018872C753.9262760475635,829.774393467427 713.9957606078567,830.0 516.4999999999975,830.0L279.3822592702098,830.0L277.44112963510486,828.5806113562448zM860.8533088255997,398.357543592768L867.0,397.715087185536L867.0,379.9729361276046L867.0,362.2307850696732L850.0261845095092,361.8415770443458C829.4562440026158,361.3699102037186 827.4729294930816,360.4738197044754 837.2185985665816,356.0549224182004C840.837659770115,354.41396174012425 844.7440001304433,351.8696156891419 845.8993549228667,350.40082008268416C848.2397726272245,347.42546111591474 848.5849077547502,342.73554298786246 846.9223282842252,336.5C846.335743468392,334.3 842.052589312428,322.825 837.4042079376386,311.0C832.7558265628493,299.175 827.639998480642,286.125 826.0357010882893,282.0C824.4314036959366,277.875 818.77355018172,263.475 813.462693278919,250.0C808.151836376118,236.525 800.7176058085824,217.29899178472138 796.9421809066175,207.27553729938083C793.1667560046526,197.25208281404028 789.3634264636356,187.66968266719894 788.4903374821351,185.98131475084455C786.3982859783722,181.9357332429386 781.4269744798415,179.00837400938204 776.6408497816599,179.00373806043729C774.5183171615729,179.00168212719677 767.0933171615729,180.38193372710563 760.1408497816599,182.07096383801257C743.3686732738787,186.14559081561413 744.4068132317044,185.7868093704447 740.9342678761052,188.70876364611553C738.5812311232108,190.68871353786966 737.6073055239636,191.00730552396098 736.695391252368,190.09539125236842C735.9695064807048,189.3695064807076 735.3707620524947,184.4793679211272 735.1478015491897,177.45572777433722L734.7841475497092,166.0L682.5145184902967,166.0C641.7237353091714,166.0 630.0154609236055,166.27644443946625 629.2001726450441,167.25880671799678C628.6137006106043,167.96546228903387 628.0117043605557,175.0198450445568 627.8277279296019,183.34154864992905L627.5,198.1654838638646L625.5588703648964,199.58274193193228C624.018617919837,200.70731144297616 618.9207546419816,200.99999999999994 600.8739700260708,200.99999999999994C588.3648961390237,200.99999999999994 576.9678347119982,200.5580697628221 575.547166854903,200.01793280627143C574.1264989978077,199.47779584972076 572.4685342377189,197.79029584972076 571.8628007213722,196.26793280627146C571.2570672050256,194.74556976282216 570.4776369678477,187.425 570.1307335276438,180.0L569.5,166.5L547.1259143434091,166.23053723283405C531.4632175832326,166.04190321779285 524.3391058435922,166.3036040026126 523.3759143434091,167.1029819482762C522.2255465389453,168.05770242921398 522.0,183.95192801338743 522.0,264.0634277210672C522.0,339.6347521478984 521.7358651281806,360.04711879841534 520.75,360.66354014621606C520.0625,361.09340592044737 514.325,361.6824635679161 508.0,361.972557140591L496.5,362.5L496.19865039983085,369.0C496.03290811973784,372.575 496.18972214943983,380.5612522221735 496.5471260213908,386.74722716038553L497.1969512431198,397.99445432077107L673.3484756215599,398.25002247980626C770.231814029702,398.39058496727563 850.6714889715199,398.6168327451021 852.1033088255997,398.7527953194207C853.5351286796796,398.88875789373935 857.4726286796796,398.7108946167456 860.8533088255997,398.357543592768zM739.2354551089846,360.96345739826324C737.9899554189262,360.463083897769 736.5274554189261,358.8873128854291 735.9854551089846,357.46174403750786C734.8589503452923,354.4988119714213 734.7724227843217,209.0348512708796 735.8947649972254,205.0C737.8531733283828,197.959467929635 738.3346689196062,199.0334830869601 779.60534005205,302.5C783.773630685594,312.95 789.8557389103765,328.4256082254511 793.1211361071223,336.8902405010025C796.386533303868,345.3548727765539 800.1701219875251,353.6018991534285 801.5291109596936,355.2169657829461C802.8880999318621,356.8320324124636 804.0,358.5800620681911 804.0,359.1014761290072C804.0,359.62289018982335 802.8457051524715,360.48836381294876 801.4349003388255,361.02475084706373C798.1911343222168,362.25802848843716 742.3207803265923,362.2029719413982 739.2354551089846,360.96345739826324z"/><path stroke="none" fill="#EF6299" fill-rule="evenodd" d="M336.0,503.62581129915964C330.1942341104456,499.33650313538124 322.2477732403162,490.7818923311248 320.9857418418389,487.4624982020667C319.23980984681134,482.87034905187784 319.8231351485389,478.363642497287 322.5888936419932,475.0767252819435C324.76573750867203,472.48969333485354 325.88620211441213,472.0 329.62873170928964,472.0C332.10623484612387,472.0 335.81785307883496,472.8867517092553 338.0,474.0C340.1561781259739,475.1 342.8561781259739,476.0 344.0,476.0C345.1438218740261,476.0 347.8438218740261,475.1 350.0,474.0C352.15617812597395,472.9 355.6982488567936,472.0 357.8712682907104,472.0C361.05547151673375,472.0 362.32462712689653,472.5970856024761 364.4111063580068,475.0767252819435C368.12876838173656,479.49491556701213 367.8026349349873,483.46338915493084 363.135800757272,490.594963731529C361.0104911737717,493.84273367918803 357.9729911737717,497.6916602409758 356.385800757272,499.1481338688351C351.42552085406794,503.6998982889797 345.82658125460915,507.0010035807162 343.11045315967806,506.97520887573387C341.67470392185515,506.96157375738744 338.475,505.45434484792906 336.0,503.62581129915964zM807.5,361.0712871380441C800.0198593417804,359.26610504049563 797.7859942555499,356.5334797961473 792.7270934390237,343.0C789.3940578221108,334.08352351285953 782.0754260079163,315.50851660016156 772.8298784148849,292.5C738.0666307082828,205.98800556326776 735.7272727272727,199.90337568121768 735.7272727272727,195.9967606063896C735.7272727272727,191.27854339713133 738.3590098481264,186.38282918228865 741.8718372491601,184.5662755342088C745.6379470926595,182.6187444447892 772.0442061327734,176.00000000000003 776.0480005158042,176.0C780.1044738816122,175.99999999999997 784.9963260295644,178.3429523900613 788.4360592427465,181.93326023041396C790.2630849067203,183.84026410523543 793.88264460651,191.96174959018236 799.446004785757,206.63712488080532C806.9027647155152,226.30702704343884 810.3498563332274,235.14617559794291 825.5211923378508,273.5C827.9143456741593,279.55 831.6361473831994,289.225 833.7918628023843,295.0C835.9475782215693,300.775 840.5081405986224,312.35604886886597 843.9264458625025,320.7356641530355C847.7511922373626,330.11162700793557 850.3600719443938,338.0886376569894 850.7097293456803,341.476491886498L851.2779123490761,346.98165546692513L848.7241459914411,350.8406569695019C845.7278354586746,355.36838786922306 839.6417212004014,358.5434527534094 830.069399131542,360.5726516650888C823.1215536219827,362.0454981118648 812.5084567517104,362.27997784021665 807.5,361.0712871380441zM521.3057637013263,358.5865176451199L518.5,356.17303529023974L518.5,262.8365176451199L518.5,169.5L520.358983210353,166.7591979420953C521.5132250202854,165.0574352202139 523.7683366552737,163.6009245337247 526.3075689815489,162.91718027395927C528.8301963957986,162.23790725267162 537.3820711216791,161.94701240680112 548.6268564667462,162.15798233186396L566.8565413911008,162.5L569.624437202893,164.5677280271641C571.1467798993788,165.70497844210433 572.7556810203158,167.95497844210433 573.1997730271977,169.5677280271641C574.1491391404535,173.01541405054826 574.2833933665161,353.0354972100371 573.338580163954,355.69276136766405C572.9851615535722,356.6867426154488 572.0196562731213,358.2875 571.1930128740632,359.25L569.6900248757759,361.0L546.9007761392143,361.0L524.1115274026527,361.0L521.3057637013263,358.5865176451199z"/><path stroke="none" fill="#FB6A19" fill-rule="evenodd" d="M449.5,703.2996389179164C446.0999711757313,702.5034229199463 445.0,699.9550604236683 445.0,692.8742464292208C445.0,683.4037655716436 447.43021973802655,672.698331655965 451.4428909017006,664.4924743224349C458.2579346751478,650.5558035498747 472.9185095644745,637.9783597100105 488.7291341522316,632.5042587153862C494.8998582895815,630.3677734076534 499.0224648496867,629.7021746293148 508.75,629.2718707454761L521.0,628.729983978112L521.0,620.9303680533817C521.0,609.9469034565773 523.3334173562496,599.8128742678128 528.0169830260654,590.4556179565952C535.0121731630961,576.4799866379742 543.5259277934144,567.8920045680474 557.3829888913599,560.8335836383378C564.9385260628154,556.9849925605292 575.9185560501024,554.6555301512102 582.615781081294,555.4803340609992C586.4488449624761,555.9523991418268 588.4234012991062,556.8324980063823 590.490781081294,558.9903775223081C592.0934867826916,560.6632418082514 593.25,562.9882759611279 593.25,564.5374634744987C593.25,568.9303062194386 589.1952588233529,571.9088495762091 579.4970644888117,574.6401341304875C574.6603761189886,576.0022817409251 568.6323913668055,578.1790328076636 566.1015428172939,579.4773587232395C557.4758826955715,583.9023244435876 548.3197372119644,595.4837207737341 544.7449726288945,606.4907896530201C544.2074571214374,608.1458553438591 543.48244557234,617.3018337858202 543.1338358531226,626.8374084129339L542.5,644.1748168258677L539.6942362986737,646.5874084129339L536.8884725973473,649.0L527.1942362986737,649.0177662022072C521.8624063344032,649.0275376134211 513.5611729737661,649.4499928808115 508.74705105281373,649.9565556852967C502.2815734441217,650.636881303047 498.34154468182214,651.6911303104849 493.6706345633485,653.9906117997667C484.1048711895381,658.6998216220516 477.67234232175787,664.859523012883 473.50345185652395,673.3024292702797C470.6994565687649,678.9811271296161 469.7270654912653,682.4970951952653 468.8955260098511,689.9637505232897C468.3158534494935,695.1688133110991 467.44320338581406,700.1718668984533 466.95630364611895,701.081647384077C466.4694039064239,701.9914278697006 464.64879932889914,703.0202401342201 462.91051569606395,703.3678968607871C459.4281688689348,704.0643662262131 452.6175357092562,704.0297009068723 449.5,703.2996389179164zM359.5058439648627,702.009455733777C359.11054364055457,701.3698463732825 337.46055273589053,701.0822136373134 298.3968633410147,701.1975873423992L237.9000727410538,701.3762632172443L232.7000363705269,696.173659107688L227.5,690.9710549981316L227.5018853486045,684.2106703347481C227.50344353739627,678.6233982591978 228.06104923457406,676.3182922323567 230.7152418861715,670.9268614378445C234.699968616918,662.8327321775088 245.64166536228907,651.1870368376776 252.5,647.7404524238231C267.74278145454133,640.080351865862 280.277973120596,638.7461796952599 333.0,639.1725052719411L373.5,639.5L378.4154011714071,642.3890853819335C381.11887181568096,643.9780823419969 385.23781513339475,647.1851835544476 387.56860854410445,649.5159769651573C392.1932686873208,654.1406371083735 398.2717647067348,665.8788421212926 399.7297128215256,673.0003281493862C400.9650278028532,679.0343414936002 399.22561473306575,686.4149503252494 395.0257966647441,692.9597993831635C392.6668104683649,696.6359606677343 390.3181743664196,698.8185537992607 386.80639944219104,700.598104827065L381.889716159488,703.0895767971954L378.6282159297933,701.9102030125903C376.1553934603316,701.01601880622 373.79122931792296,701.0051883259493 368.8514448804553,701.8654146139925C360.9045403724833,703.2493082338184 360.2780823297177,703.2589636555289 359.5058439648627,702.009455733777zM721.0079968422658,636.1640601911408C716.726393854207,634.8746764345882 716.0306954846321,631.8305126383802 716.0147418023971,614.3150996611746C716.0066338110787,605.4134044748206 716.4331475570301,596.9909349113714 716.9625501267335,595.5985006312876C718.1755298388848,592.408122214364 725.5346795486645,587.0 728.6630352336001,587.0C730.3237114608455,587.0 733.7785480050558,584.2023397903008 740.2874743910426,577.5867526655212L749.5489553144384,568.1735053310424L750.908731925143,562.0442257459537C752.3890827482675,555.371450227153 751.9376716640381,548.2247251117428 749.6183477265176,541.6149064779364C747.300508582292,535.0093193420375 745.0247219165211,524.0991506547148 745.6336671543879,522.5122648020276C745.9421229076823,521.7084419939254 745.1382342424745,519.3518458101546 743.8472478983706,517.2753843936481L741.5,513.5L741.5581291699561,499.2491066950511L741.6162583399124,484.99821339010225L744.8081291699561,480.46987039756857C746.8808639499039,477.52925828763927 748.0,474.7515072086903 748.0,472.5474889844613C748.0,468.6550067679117 751.580279119116,463.7855264927913 756.1978935811915,461.39766525200207C757.8257076154698,460.5558898999042 759.7963631826258,458.33828253248873 760.5771281748714,456.46964887996774C761.3578931671171,454.6010152274468 762.9399002176391,452.5673481858962 764.0926993982534,451.9503887876331C765.8053470632277,451.0338075733265 766.5829589951943,451.19778972629746 768.3443489542308,452.8469730852838C771.82508481986,456.10597410159653 780.0545264681007,459.1691506572464 784.4947180166812,458.8584905115927C786.6976231075066,458.70436319323505 789.5577983958955,458.94285234744797 790.85066310199,459.3884664098436C792.2985910829042,459.8875264171204 793.6235092156118,459.77649078438685 794.3006631019916,459.09933689800874C794.9052983958978,458.4947016041039 795.9677274391998,458.0 796.6616165315513,458.0C797.3555056239029,458.0 800.0211624893828,460.03895395913395 802.5852984548401,462.5310087980755C807.9241398491793,467.7197685636801 810.5935911880135,469.3699313023738 812.4784792229386,468.6466318975422C813.2056880110505,468.3675757022226 814.1096803080451,466.31028231738344 814.4873509940378,464.0748688201219C815.1629102142902,460.0762683060725 816.3949935657175,458.2120620315435 817.3456043663778,459.75018261708453C817.6116948985042,460.1807261421497 817.341459944456,462.6653147469847 816.7450822462707,465.27149062782894L815.6607591586611,470.0099922293639L817.8303795793306,472.3194473360495C819.0236708106987,473.58964764472665 820.0,475.4053265234032 820.0,476.35428928866406C820.0,479.08605137103604 816.3722737259973,485.4782771615872 812.7427879014265,489.14184128133854C810.9129811921126,490.9888285766024 806.8472966241178,494.0199867173992 803.7079333058825,495.8777482608871C800.0497576333204,498.0425241708091 798.0,499.91749545253634 798.0,501.09895629669154C798.0,502.1128591728961 799.3713108916392,506.66787245549693 801.0473575369759,511.22120803580447C805.6983740898492,523.8566792583501 809.1914953951735,541.0427113638692 809.2341632812569,551.5C809.2896197116848,565.0915779512047 806.2285490841185,578.6952525038622 800.6276613720916,589.7480724079844C797.0376138461071,596.8326902028994 786.6415996414731,610.3461805129577 781.6869779656976,614.3685410452915C779.3841400845639,616.2380771696586 775.025,619.029030212668 772.0,620.5706589186457C768.975,622.1122876246233 765.2279736231254,624.4145556567371 763.6732747180565,625.6868101011207C762.1185758129875,626.9590645455042 760.3119117080589,628.0 759.6584655959929,628.0C759.0050194839268,628.0 756.8850450704409,628.8496896365286 754.9474113438018,629.8881991922858C746.7342448753607,634.2901931002341 726.93992858805,637.9504323651428 721.0079968422658,636.1640601911408zM808.5527864045,454.08541019662493C808.2308107963563,453.5644427191 808.3936223258501,452.87476201264377 808.9145898033751,452.5527864045C809.4355572809,452.2308107963563 810.1252379873562,452.39362232585006 810.4472135955,452.91458980337507C810.7691892036437,453.4355572809 810.6063776741499,454.12523798735623 810.0854101966249,454.4472135955C809.5644427191,454.7691892036437 808.8747620126438,454.60637767414994 808.5527864045,454.08541019662493z"/><path stroke="none" fill="#47704C" fill-rule="evenodd" d="M0.0,512.0L0.0,0.0L512.0,0.0L1024.0,0.0L1024.0,512.0L1024.0,1024.0L512.0,1024.0L0.0,1024.0L0.0,512.0zM794.3757463999299,912.6817677821853C819.4917351765639,907.6074631853052 846.4908558797304,896.1538302572988 863.5,883.3577080892053C875.0002442062977,874.7059776560835 890.7730267150624,858.9374761427183 899.0434661997276,847.8238889771238C908.1647043666634,835.5670221426171 920.3677626597705,810.9583137281911 924.4849628263739,796.5185229718345C925.4229830683453,793.2287106063434 927.3725079202893,785.3537106063434 928.8172402751385,779.0185229718345L931.4440263748642,767.5L931.7809649168267,513.5C932.0144092371701,337.51877499137527 931.7882553197494,256.24917167194343 931.0446922051469,248.91651678820062C928.8964457761602,227.73156374300842 922.0143117018557,205.7362697407672 911.4969223448011,186.44186277473494C898.7963088947897,163.14227802955122 874.924778835775,138.7776712589317 851.0,124.6953505017542C830.2574998595719,112.48614504625702 808.83010111662,104.91140877480915 782.0,100.30336484825443L771.5,98.5L516.5,98.5L261.5,98.5L249.5,100.34770023523578C226.5312880110569,103.88430811398852 206.62016201904677,110.09952942572848 188.57078232923598,119.36664332900824C181.60495912841446,122.94311399678213 172.26488532875806,128.48622088457188 167.815062774444,131.68465863520765C159.47532587202704,137.6790840338565 140.15373453960737,156.05308908792344 133.83315094951212,164.0C123.70584266071532,176.73313066792153 111.42915617836744,198.2474790037541 107.58426953452464,210.0C103.0944629971207,223.72382347979544 99.77446229334623,235.98257925031632 98.27290009739997,244.38125892233484L96.64260135860386,253.5L96.26595402612479,493.5C96.00702741342212,658.4882574227247 96.228579839196,739.2529752041467 96.97481080452789,751.9066387682278C97.60393296798438,762.5745158289777 98.9201467088402,774.2818862006468 100.10542417466183,779.7526101913995C103.32131125010622,794.5957427763846 109.20437898813923,811.4626857143154 114.6666118797407,821.5C115.5645297903113,823.15 118.04711551227324,827.8542987640932 120.18346903965612,831.9539972535406C124.75936416316283,840.7352172554057 129.6475381857275,847.3867669877544 140.0716757663738,859.0167400117429C154.58844968353705,875.2127742395911 172.82907864095887,888.8239402492901 192.28644226673657,897.9794236260559C209.51736939872404,906.0872778018486 227.60973806864902,911.2844085060792 247.59665815875042,913.8675821372104C251.5161253248505,914.3741466396907 369.25872765251825,914.6982386033677 520.0,914.617384946255L785.5,914.4749777234083L794.3757463999299,912.6817677821853z"/><path stroke="none" fill="#0365D2" fill-rule="evenodd" d="M257.5,917.8848552336431C234.44716642802885,915.668004458507 210.48919032377702,909.2094719402197 191.2799429922428,900.0334144572439C185.58453829873682,897.3127789240325 175.6541128417752,891.6074834219983 169.21233086566144,887.354980008279C160.43951855060973,881.5636610136269 154.22180168923896,876.3450079381938 144.4382204609929,866.5615778098493C134.95483604575512,857.0783398582037 129.40716154704467,850.5126952351054 124.18822046099295,842.5958055482206C120.23469920744685,836.598498599742 117.00000000000004,831.141098721691 117.00000000000003,830.4682502636629C117.00000000000001,829.7954018056346 117.74416262194899,828.6272893089354 118.65369471544219,827.8724447154422C120.00501968785012,826.750944598215 129.14073747859024,826.5 168.61798042972802,826.5L216.92857142857167,826.5L218.71029636767918,828.2817249391078C220.18171826542024,829.7531468368489 220.5899247794896,832.4526079240296 221.0541719649686,843.7817249391078C221.68577683801973,859.1949051110188 222.43924163484593,861.4537839690344 228.89391907464886,867.2851972616913C234.2307684140428,872.1067200207899 242.2323516527257,874.4542751520837 250.65023024077686,873.6682015237925C254.09693992985612,873.3463428081291 258.65385182526666,872.1969154872309 260.77670111946685,871.1139185884633C265.17519304884246,868.869975444792 271.57327860998004,862.196211882646 273.15935812031717,858.1977229069329C273.74791586782715,856.7139753081198 274.5317159449938,849.7621893983148 274.9011360695763,842.749309774033C275.43811357090544,832.5556080041983 275.9236108089234,829.6478177625053 277.32211879739555,828.249309774033L279.07142857142844,826.5L516.4999999999955,826.5L753.9285714285625,826.5L755.7032151171649,828.2746436885936C757.1548887768778,829.7263173482993 757.5827972313722,832.4561895274059 758.0544705592852,843.2746436885936C758.5243862315253,854.0527836827476 759.0243924942617,857.2576785356252 760.7566268566279,860.5946803649952C761.9256763557315,862.8467545657425 764.477340702172,866.0899379271638 766.4269920709402,867.8017545014868C770.4083087976793,871.2973968863957 778.2886303359255,874.0 784.5000000000001,874.0C790.7113696640762,874.0 798.5916912023208,871.2973968863961 802.5730079290602,867.8017545014864C804.5226592978282,866.0899379271631 807.0743236442686,862.8467545657419 808.2433731433722,860.5946803649947C809.9756075057383,857.2576785356252 810.4756137684747,854.0527836827476 810.9455294407148,843.2746436885934C811.4170603157787,832.4594568726773 811.8453853759733,829.7258789197585 813.2958834505789,828.2746436885934L815.069625706925,826.5L859.9954332905891,826.2112037959598C884.7046274616043,826.0523658837376 906.4014616775462,826.3039638597443 908.2106204371266,826.770310409308C913.7304150632019,828.193146942884 913.1343447135768,830.8523493772083 904.3732943146833,843.8894759113562C893.3004248739416,860.3667695488047 875.6908359440739,877.8715334403654 859.0,888.9926754876792C852.125,893.5735036637794 843.1794763423081,898.864562099318 839.1210585384626,900.7505831222093C822.7814381478106,908.3439037344021 805.6172429038496,913.5001764115384 786.0,916.7086084667883L775.5,918.425900582976L521.0,918.5881155349864C381.025,918.6773337585921 262.45,918.3608666229876 257.5,917.8848552336431zM684.0,361.1400233500324C682.625,360.7414922024532 680.946245754402,359.2664305374393 680.2694350097822,357.86210853889037C679.3231187451721,355.8985865963964 679.0252417246933,333.2919822564346 678.9798706256042,259.9939622913048C678.9380846029434,192.48771305416363 679.2387571460646,164.36124285393396 680.0104356158238,163.5895643841768C680.7415392384758,162.85846076152674 689.7927675285254,162.5 707.5222222222242,162.5L733.944444444445,162.5L736.2222222222225,164.77777777777806L738.5,167.05555555555608L738.5,262.49206349206383L738.5,357.92857142857156L736.7161308285527,359.7142857142858L734.9322616571054,361.5L710.7161308285527,361.68231271826994C697.3972588728487,361.78258471331844 685.375,361.5385544976115 684.0,361.1400233500324z"/><path stroke="none" fill="#211C39" fill-rule="evenodd" d="M311.0813678598897,535.4622664780622C304.25477072343165,533.5629498709825 299.6724999161423,530.7482490281901 296.3803740291363,526.4320494818336C292.9739213535234,521.9659597884846 292.8152228438702,516.8900399336261 295.9768250817912,513.5246685699924C297.2813167161865,512.1361008564966 299.3492536387744,511.0 300.5722404653201,511.0C301.7952272918657,511.0 304.7542859798464,512.1195795873363 307.14792643861057,513.487954638525C310.7211706171954,515.5306750345135 312.8526972026848,515.9780648659458 319.0588284961341,515.987954638525L326.6176569922682,516.0L332.4299825148677,512.5C340.19370609396276,507.824929338321 344.58420952715426,507.83068537474594 351.9536623240127,512.52559592854L357.40732464802545,516.0L364.9536623240127,515.9948766349557C371.21877655999236,515.9906231190579 373.1791233019347,515.5714698366165 376.5,513.5260861737995C381.6321011267163,510.365139003847 385.98474032494676,510.2904031561492 388.82568597329055,513.3144512213676C393.12874036404065,517.8948427232127 390.64184294651255,525.3493177001749 382.95244590176947,530.9194882599933C377.6815038087611,534.7377390666745 365.91784253667925,537.4777444827371 358.21089862598205,536.6823177030948C355.16037635130414,536.3674760307938 350.4484543151102,534.9601556816561 347.7399607677733,533.5549391494555C345.0314672204364,532.149722617255 342.2234848749384,531.0 341.5,531.0C340.77651512506156,531.0 337.81971181134855,532.2269336872534 334.92932596952664,533.7265193050077C331.0513552677057,535.7384822084994 327.9477712969557,536.5207612747247 323.08703949219796,536.7114466969415C319.44138168030736,536.8544650380147 314.08035983720407,536.2966551424515 311.0813678598897,535.4622664780622zM276.9874274449421,471.7113655245291C273.9555125396603,471.0212419683016 269.85708082165746,469.45675606201485 267.87980140493585,468.2347301772253C263.2636654895911,465.3818012848531 259.43095115632326,458.4034071945551 260.38733643646697,454.5928647233112C261.2797663286445,451.0371408143871 265.3184283367211,447.0 267.9830621493828,447.0C269.12374633154343,447.0 272.73136836432116,448.35 276.0,450.0C280.8982780351901,452.4726428851274 283.1606290837379,453.0 288.86993757026124,453.0C294.63255164356735,453.0 296.7555431002499,452.49572898744736 301.5,450.0C304.6367003083914,448.35 307.87739588909704,447.0 308.7015457349013,447.0C309.5256955807056,447.0 311.7869412685235,448.58694126852345 313.72653615227443,450.5265361522744L317.2530723045488,454.0530723045488L316.67432150086256,457.6194954529092C315.87444374713317,462.5485642655812 311.90442864262445,467.38376098012304 306.5151220794661,469.9926795269256C303.0614097564776,471.6645929779735 299.6470826727003,472.28288865091963 292.2379333723135,472.57811548044356C286.5414962586389,472.80509714871215 280.21213865355816,472.4453733171687 276.9874274449421,471.7113655245291zM384.1842446595859,471.93135477767134C378.4782425606381,470.8081845226738 373.49680148983634,467.62500145256894 370.46660530612894,463.16566695137715C367.2470086409896,458.4276045889554 367.28838304875194,453.9991592594666 370.5888936419932,450.0767252819435C373.88811388247797,446.15582480154205 377.6215445122026,446.05907675783686 383.1969643419063,449.75C386.7022117560428,452.0704708426515 388.61222010546567,452.5511417107064 395.4255240823828,452.82742760773397L403.5,453.1548552154679L409.23110417158733,450.07742760773397C412.38321146596036,448.3848424234803 416.3421984707185,447.0 418.02885307104975,447.0C422.09602829526966,447.0 426.0,451.16101752005204 426.0,455.49598422705833C426.0,459.142678674685 421.7623760754499,465.61522697761256 417.58122706451405,468.35482102959435C411.72227951488946,472.19375090648776 394.75071938723846,474.01126114792515 384.1842446595859,471.93135477767134z"/></svg>