<svg xmlns="http://www.w3.org/2000/svg" width="1365.333" height="1365.333" preserveAspectRatio="xMidYMid meet" version="1.0" viewBox="0 0 1024 1024"><g fill="#000" stroke="none"><path d="M0 512v512h1024V0H0zm570-346c2.3 2.3 2.1-8.8 2 109-.1 57.1-.4 82.8-1.2 83.7-.8 1-6.4 1.3-23.7 1.3-18.9 0-23-.3-24.9-1.6l-2.2-1.5v-93.8c0-93.4 0-93.8 2.1-96.5l2-2.6h22c20.6 0 22 .1 23.9 2m107.9-.3 2.1 1.8v96l.1 96-27 .3-27.1.2V168.1l2.2-2.1c2.1-1.9 3.4-2 24.9-2 20.1 0 22.9.2 24.8 1.7m104.8 13.2c2.3 1.1 4.9 3.1 5.9 4.5.9 1.5 5.4 12.4 9.9 24.4 4.6 11.9 12.2 31.6 16.9 43.7 4.8 12.1 10 25.4 11.6 29.5s6.9 17.6 11.8 30c12.5 31.5 13.2 35.8 7.4 41.3-5.3 5.1-12.4 7-27.3 7.5l-13.7.4-3.6-3.3c-2.8-2.7-4.7-6.5-9.5-18.9-6.7-17.4-14.6-37.3-38.2-96-22.4-55.5-22.4-54.2 2.6-60.4 17.3-4.3 17.5-4.3 20-4.5 1.1 0 3.9.8 6.2 1.8M246.8 297.5c4.9 2.1 8.9 6.1 31.4 31.2 10.4 11.7 19.5 21.3 20.3 21.3.7 0 2.8-.7 4.7-1.5 8-3.3 23.9-5.6 38.3-5.6 15.3 0 25.8 1.6 39.4 5.8l8.4 2.6 2-2.7c2.4-3.3 17.7-21.3 30.8-36.3 5.4-6.1 11.5-12.1 13.5-13.4 5.4-3.3 11.9-3.6 17.3-.7 5.3 2.7 7.9 6 9.1 11.4.5 2.1 1 29.1 1 59.9v56l2.4 9.6c2.9 11.5 4.9 27.9 4.4 36.9l-.3 6.5 68.5.1c47.7 0 71 .4 76.6 1.3 54.3 8 94 49.4 102.9 107.4.6 3.7 3.1 6 4.4 4 .9-1.5 6.4-4.1 7.7-3.6.6.2 5-3.3 9.7-7.9 10.2-9.8 13.8-16.5 13.7-25-.2-8.8-.3-10.3-1.2-10.9-1.4-.9-3.7-10.9-3.1-12.7.4-.9.2-1.3-.4-.9-1.4.9-2.6-3.8-1.7-6.5.4-1.4.2-1.8-.5-1.4-1.5.9-1.4-.7.1-2.2.9-.9.8-1.3-.5-1.7-2.1-.9-4.4-13.3-2.9-16.1.7-1.3.7-2.6.1-3.5-1.4-2.3-.1-14 1.8-16.2 1.3-1.5 1.4-1.8.3-1.2-1.3.8-1.3.7-.1-.8.7-.9 1-1.7.7-1.7-.4 0-.4-.6.1-1.3.4-.6.8-1.5.8-1.8 0-1.5 4.9-10.9 5.7-10.9.4 0 .8-.6.8-1.4 0-.7 2.6-4.1 5.8-7.4 14.9-15.4 37.3-17.7 51.5-5.1 6.8 5.9 9 10.1 9.3 17.5.2 3.5-.2 7.8-.8 9.6-1.7 4.8-7.9 12.8-10.5 13.4-1.3.4-2.1 1-1.8 1.4.3.5-1.8 1.7-4.7 2.8-4.6 1.7-5.3 2.3-5.4 4.8-.1 1.6.2 3.1.5 3.4 1.5 1.1 6.3 16.2 8.6 27.3 2.9 13.5 3.2 23.7 1 35.8-1.8 10.7-4.7 18.9-9 26.2-2 3.2-3.3 6.2-3 6.7s4.7.6 9.8.3c12-.7 28.1 1.1 35.2 3.9 13.4 5.5 25.1 17.8 29.7 31.6 2.3 6.6 2.3 7.2 2.6 69.4.3 69.3.2 70.3-6 82.1-8.9 16.6-23.2 25.6-42.5 26.6l-10.3.6-.2 20c-.3 19.6-.4 20.1-3.1 25.7-6.7 13.7-23.2 19-37.9 12.1-6.8-3.2-10.4-6.9-13.5-13.9-1.4-3.2-1.8-7.5-2-23.9l-.3-20H277.5L277 834c-.5 17.4-.8 20-2.8 24.5-4.2 9.1-11.6 14.7-21.5 16.3-13.6 2.1-26.4-4.1-31.4-15.3-1.4-3.3-1.9-7.8-2.3-24.5l-.5-20.5-11.1-.5c-10.3-.5-11.7-.9-18.7-4.3-14.4-7.1-25.1-21.7-27.7-37.7-.6-3.9-1-29.9-1-65 0-47.7.3-59.8 1.5-65.5 3.9-18.3 15.9-31.9 34.1-38.7 5.6-2.1 7.9-2.2 43.9-2.8l38-.5.8-5.4c.4-3 1.4-6.7 2.1-8.2 1.6-3.2.8-4.2-7.4-9.4-7.3-4.6-21.1-17-27.8-24.9-17.6-21-28.2-47.6-30.8-77.7-.6-7.6.9-27.2 2.7-34.2.6-2.2 1-28.4.9-65.3 0-58.3.1-61.7 1.8-65.7 4.8-10.6 16.6-15.5 27-11.2"/><path d="M263.5 451.1c-3 3.6-2.8 7.3.7 12.2 3.7 5.2 9 7 22.3 7.5 7.3.3 13.7 0 16.3-.7 11.8-3.2 16.9-16.6 7.9-20.9-2.5-1.2-3.2-1-8.3 1.9-4.1 2.3-7.2 3.3-12 3.7-5.9.4-7 .2-13.8-3.2-4.1-2-8.1-3.6-8.9-3.6s-2.7 1.4-4.2 3.1M372 450c-4.4 4.4-3.4 10.7 2.6 16 4.5 3.9 9 5 20.6 5 12.7 0 19.1-1.4 23.4-5.2 6.4-5.7 7.9-10.7 4.3-15.2-2.7-3.5-5.6-3.3-13.2.6-5.4 2.9-7.2 3.3-13.7 3.3-6.8 0-8-.3-12.6-3.3-5.8-3.7-8.6-4-11.4-1.2m-39 63.7c-4.7 3.2-6.5 3.8-12.3 4.1-6.2.4-7.5.1-13.4-2.9-6.1-3.1-6.7-3.2-9.1-1.8-2.1 1.2-2.8 2.3-3 5.6-.3 3.5.2 4.7 3 7.9 4 4.6 9.2 6.9 18.3 8.4 8.4 1.3 14.2.2 21.1-4.1l4.6-3 2.2 2c5.5 5.1 15 6.9 25.6 4.6 12.2-2.6 18.5-7.4 19.7-15 .4-2.5 0-3.8-1.6-5.4-2.8-2.8-5.1-2.7-11.8.9-9 4.8-17.2 4.1-26.7-2.4-5.6-3.7-9.8-3.5-16.6 1.1"/></g></svg>