<svg version="1.1" xmlns="http://www.w3.org/2000/svg" style="display: block;" viewBox="0 0 2048 2048" width="1024" height="1024">
<path transform="translate(0,0)" fill="rgb(0,161,255)" d="M 233.132 1655.98 C 224.723 1640.41 217.142 1624.58 211.159 1607.9 C 199.612 1576.36 192.705 1543.32 190.656 1509.8 C 188.733 1481.62 188.994 1453.27 188.971 1425.04 L 188.952 1316.9 L 188.959 975.699 L 188.923 681.528 L 188.914 594.823 C 188.881 567.376 188.651 540.167 191.171 512.8 C 194.72 472.527 205.29 433.184 222.402 396.554 C 261.012 313.455 331.183 249.197 417.351 218.033 C 454.053 205.089 492.325 197.126 531.144 194.357 C 598.183 189.485 667.36 192.087 734.725 192.087 L 1079.25 192.093 L 1368.75 192.09 C 1425.08 192.094 1483.54 189.314 1539.59 194.9 C 1586.4 199.271 1632.08 211.844 1674.53 232.045 C 1755.76 270.263 1818.4 339.293 1848.57 423.843 C 1859.02 454.287 1865.24 486.023 1867.04 518.159 C 1868.53 541.675 1867.78 565.455 1867.77 589.019 L 1867.69 706.265 L 1867.68 1066.44 L 1867.61 1356.85 C 1867.62 1411.65 1870.59 1471.44 1865.27 1525.76 C 1860.8 1571.3 1846.99 1612.37 1827.15 1653.39 C 1780.94 1736.55 1713.85 1793.58 1621.75 1819.95 C 1596.04 1827.27 1569.6 1831.69 1542.91 1833.14 C 1517.28 1834.59 1491.42 1833.89 1465.75 1833.89 L 1339.64 1833.84 L 952.157 1833.84 L 666.845 1833.86 L 580.268 1833.88 C 554.795 1833.88 529.589 1834.18 504.209 1831.52 C 455.879 1826.47 407.822 1812.6 365.278 1788.91 C 310.766 1758.56 261.756 1711.76 233.132 1655.98 z"/>
<path transform="translate(0,0)" fill="rgb(254,196,28)" d="M 437.824 1628.87 C 402.339 1628.96 377.636 1627.46 350.901 1601.05 C 327.757 1578.19 320.47 1548.48 320.137 1516.86 C 319.683 1473.8 320.425 1430.67 320.317 1387.61 C 320.241 1357.5 317.205 1308.56 323.382 1280.9 C 327.637 1261.85 336.623 1244.94 350.418 1231.06 C 363.658 1217.72 380.325 1208.3 398.58 1203.83 C 421.034 1198.24 446.453 1200.54 469.481 1200.59 L 554.784 1200.74 C 551.914 1227.75 551.784 1257.58 565.514 1281.85 C 528.243 1286.79 498.063 1293.28 474.131 1324.81 C 462.672 1339.9 454.557 1358.17 457.421 1377.51 C 458.507 1384.84 461.667 1391.2 467.757 1395.61 C 474.633 1400.6 485.295 1403.3 493.748 1403.13 C 515.429 1406.04 550.284 1403.69 573.596 1403.71 L 746.662 1403.84 L 1307.26 1403.95 C 1322.64 1403.98 1339.36 1405.28 1354.58 1403.2 C 1370.63 1401.01 1383.87 1393.79 1400.66 1394.74 C 1412.03 1395.39 1422.45 1398.7 1430.41 1407.19 C 1433.74 1411.44 1436.49 1415.09 1437.36 1420.53 C 1440.21 1438.36 1438.02 1469.45 1437.95 1488.77 L 1437.91 1625.84 L 1437.84 1628.55 C 1445.6 1628.54 1453.39 1628.38 1461.15 1628.59 L 1512.02 1628.68 L 1625.74 1628.75 C 1626.01 1637.85 1626.09 1646.96 1625.98 1656.06 C 1664.94 1657.48 1704.22 1656.48 1743.21 1656.45 C 1768.57 1656.44 1795.23 1658.09 1820.42 1655.95 C 1823.28 1655.71 1824.83 1655.03 1827.15 1653.39 C 1780.94 1736.55 1713.85 1793.58 1621.75 1819.95 C 1596.04 1827.27 1569.6 1831.69 1542.91 1833.14 C 1517.28 1834.59 1491.42 1833.89 1465.75 1833.89 L 1339.64 1833.84 L 952.157 1833.84 L 666.845 1833.86 L 580.268 1833.88 C 554.795 1833.88 529.589 1834.18 504.209 1831.52 C 455.879 1826.47 407.822 1812.6 365.278 1788.91 C 310.766 1758.56 261.756 1711.76 233.132 1655.98 C 261.333 1657.32 289.809 1656.52 318.052 1656.51 C 358.001 1656.51 398.008 1656.91 437.95 1656.3 L 437.824 1628.87 z"/>
<path transform="translate(0,0)" fill="rgb(1,103,211)" d="M 1437.84 1628.55 C 1445.6 1628.54 1453.39 1628.38 1461.15 1628.59 L 1512.02 1628.68 L 1625.74 1628.75 C 1626.01 1637.85 1626.09 1646.96 1625.98 1656.06 C 1664.94 1657.48 1704.22 1656.48 1743.21 1656.45 C 1768.57 1656.44 1795.23 1658.09 1820.42 1655.95 C 1823.28 1655.71 1824.83 1655.03 1827.15 1653.39 C 1780.94 1736.55 1713.85 1793.58 1621.75 1819.95 C 1596.04 1827.27 1569.6 1831.69 1542.91 1833.14 C 1517.28 1834.59 1491.42 1833.89 1465.75 1833.89 L 1339.64 1833.84 L 952.157 1833.84 L 666.845 1833.86 L 580.268 1833.88 C 554.795 1833.88 529.589 1834.18 504.209 1831.52 C 455.879 1826.47 407.822 1812.6 365.278 1788.91 C 310.766 1758.56 261.756 1711.76 233.132 1655.98 C 261.333 1657.32 289.809 1656.52 318.052 1656.51 C 358.001 1656.51 398.008 1656.91 437.95 1656.3 L 437.824 1628.87 L 553.574 1628.86 L 578.605 1628.66 L 1437.84 1628.55 z"/>
<path transform="translate(0,0)" fill="rgb(0,161,255)" d="M 1437.84 1628.55 C 1445.6 1628.54 1453.39 1628.38 1461.15 1628.59 L 1512.02 1628.68 L 1512.08 1656.31 C 1497.41 1657.03 1482.56 1656.52 1467.86 1656.52 L 1386.33 1656.49 L 1141.24 1656.44 L 777.92 1656.43 C 703.239 1656.78 628.557 1656.65 553.877 1656.04 C 553.975 1646.96 554.038 1637.94 553.574 1628.86 L 578.605 1628.66 L 1437.84 1628.55 z"/>
<path transform="translate(0,0)" fill="rgb(254,131,22)" d="M 437.824 1628.87 L 553.574 1628.86 C 554.038 1637.94 553.975 1646.96 553.877 1656.04 C 553.905 1680.72 556.939 1713.68 538.5 1732.87 C 527.597 1744.21 511.719 1750.51 496.077 1750.71 C 480.717 1750.91 464.141 1745.46 453.157 1734.5 C 433.5 1714.88 437.864 1681.74 437.95 1656.3 L 437.824 1628.87 z"/>
<path transform="translate(0,0)" fill="rgb(254,131,22)" d="M 1512.02 1628.68 L 1625.74 1628.75 C 1626.01 1637.85 1626.09 1646.96 1625.98 1656.06 C 1626.05 1680.79 1629.42 1713.62 1611.27 1733.23 C 1600.78 1744.57 1584.93 1750.56 1569.62 1750.8 C 1554.8 1751.04 1538.35 1745.11 1527.77 1734.54 C 1508.45 1715.24 1512 1681.31 1512.08 1656.31 L 1512.02 1628.68 z"/>
<path transform="translate(0,0)" fill="rgb(254,131,22)" d="M 936.73 957.558 C 954.203 956.019 971.834 956.485 989.359 956.488 L 1064.42 956.535 L 1149.6 956.529 C 1182.61 956.551 1216.08 955.562 1248.47 962.953 C 1283.46 970.938 1317.99 987.71 1345.52 1010.8 C 1399.21 1055.82 1427.53 1115.52 1436.22 1184.16 C 1434.02 1194.59 1434.57 1256.94 1435.82 1269.19 C 1437.49 1269.56 1439.14 1269.95 1440.79 1270.39 L 1437.58 1271.04 C 1435.05 1277.73 1435.96 1345.35 1437.01 1354.81 L 1436.86 1356.16 C 1435.25 1371.61 1438.75 1395.23 1434.49 1409.14 C 1432.5 1408.95 1432.02 1408.31 1430.41 1407.19 C 1422.45 1398.7 1412.03 1395.39 1400.66 1394.74 C 1383.87 1393.79 1370.63 1401.01 1354.58 1403.2 C 1339.36 1405.28 1322.64 1403.98 1307.26 1403.95 L 746.662 1403.84 L 573.596 1403.71 C 550.284 1403.69 515.429 1406.04 493.748 1403.13 C 485.295 1403.3 474.633 1400.6 467.757 1395.61 C 461.667 1391.2 458.507 1384.84 457.421 1377.51 C 454.557 1358.17 462.672 1339.9 474.131 1324.81 C 498.063 1293.28 528.243 1286.79 565.514 1281.85 C 551.784 1257.58 551.914 1227.75 554.784 1200.74 C 556.462 1187.2 559.47 1174.86 563.472 1161.87 C 639.128 1202.4 730.134 1201.99 805.423 1160.78 C 880.711 1119.57 930.1 1043.13 936.73 957.558 z"/>
<path transform="translate(0,0)" fill="rgb(252,110,26)" d="M 565.514 1281.85 L 671.675 1281.77 C 690.512 1281.65 731.336 1278.94 747.874 1283.3 C 756.864 1285.67 765.228 1292.29 771.711 1298.8 C 785.84 1313 797.886 1335.72 797.573 1356.12 C 797.263 1376.33 785.779 1389.2 772.415 1402.66 C 707.113 1403.99 641.567 1402.73 576.234 1402.74 C 549.122 1402.74 520.706 1401.05 493.748 1403.13 C 485.295 1403.3 474.633 1400.6 467.757 1395.61 C 461.667 1391.2 458.507 1384.84 457.421 1377.51 C 454.557 1358.17 462.672 1339.9 474.131 1324.81 C 498.063 1293.28 528.243 1286.79 565.514 1281.85 z"/>
<path transform="translate(0,0)" fill="rgb(252,110,26)" d="M 1149.38 1114.37 C 1159.4 1113.62 1173.15 1112.35 1181.25 1119.55 C 1183.58 1121.61 1184.89 1124.33 1184.91 1127.47 C 1184.98 1132.62 1182.39 1137.46 1178.05 1140.24 C 1172.72 1143.65 1165.26 1144.35 1159.17 1145.84 C 1141.13 1150.27 1123.89 1158.34 1110.65 1171.6 C 1078.83 1203.49 1082.95 1237.34 1082.31 1278.11 C 1082.24 1282.32 1081.81 1289.98 1078.26 1292.98 C 1069.05 1300.74 1003.57 1281.27 960.522 1322.77 C 938.117 1344.37 933.003 1373.04 932.636 1402.91 L 895.116 1403.05 C 894.5 1394.31 893.639 1385.75 893.922 1376.96 C 894.791 1345.37 908.562 1315.52 932.029 1294.36 C 966.079 1263.08 1002.46 1260.51 1046.14 1262.2 C 1045.57 1220.45 1046.86 1190.23 1074.38 1156.25 C 1092.88 1133.4 1120.06 1117.58 1149.38 1114.37 z"/>
<path transform="translate(0,0)" fill="rgb(254,196,28)" d="M 594.012 700.15 C 653.692 677.705 719.629 678.522 778.735 702.438 C 845.222 729.341 897.238 783.096 921.943 850.43 C 934.503 884.664 939.547 921.201 936.73 957.558 C 930.1 1043.13 880.711 1119.57 805.423 1160.78 C 730.134 1201.99 639.128 1202.4 563.472 1161.87 C 456.337 1104.47 404.864 979.231 440.674 863.085 C 463.831 787.978 520.447 727.818 594.012 700.15 z"/>
<path transform="translate(0,0)" fill="rgb(39,35,58)" d="M 680.072 1019.19 C 692.731 1018.89 700.506 1026.3 711.023 1032.1 C 735.64 1045.67 744.317 1029.71 764.659 1024.34 C 768.212 1023.4 772.124 1023.05 775.265 1025.39 C 777.402 1026.98 778.537 1029.77 779.036 1032.32 C 780.37 1039.11 778.087 1047.24 773.906 1052.67 C 764.926 1064.35 748.383 1068.49 734.486 1070.47 C 718.27 1072.79 702.21 1070.42 688.868 1060.28 C 687.907 1059.34 685.432 1056.62 683.986 1056.59 C 680.524 1056.5 666.827 1067.56 661.439 1069.29 C 649.492 1073.13 635.039 1071.3 622.989 1068.85 C 610.544 1066.31 597.821 1057.95 591.343 1047.07 C 588.949 1043.05 586.637 1037.84 588.475 1033.14 C 589.914 1029.46 593.973 1026.32 597.558 1024.91 C 603.104 1022.73 612.973 1028.94 618.146 1031.18 C 652.286 1045.96 655.52 1028.95 680.072 1019.19 z"/>
<path transform="translate(0,0)" fill="rgb(249,67,97)" d="M 655.17 944.941 C 667.467 944.972 677.866 951.925 689.173 956.022 C 697.287 952.82 705.533 946.437 714.281 945.447 C 718.459 944.974 722.924 947.105 726.015 949.813 C 729.493 952.859 731.564 956.979 731.689 961.618 C 732.032 974.281 720.781 985.752 712.718 994.304 C 708.2 998.537 703.466 1003.34 698.372 1006.84 C 694.168 1009.74 689.591 1011.93 684.399 1010.86 C 671.031 1008.1 654.089 990.63 647.292 979.203 C 643.385 972.634 640.93 964.737 643.273 957.173 C 645.245 950.806 649.515 947.899 655.17 944.941 z"/>
<path transform="translate(0,0)" fill="rgb(39,35,58)" d="M 748.048 896.078 C 764.854 894.728 774.471 912.448 795.172 910.165 C 809.281 908.61 819.106 899.595 832.239 896.903 C 836.71 895.987 841.059 896.296 844.777 899.118 C 847.862 901.459 849.442 906.261 849.69 909.972 C 850.209 917.738 845.467 923.684 840.679 929.204 C 840.176 929.683 839.66 930.148 839.13 930.596 C 823.416 943.867 797.296 944.188 777.778 942.462 C 763.977 941.241 751.567 936.672 742.603 925.565 C 739.399 921.595 736.741 916.412 737.647 911.155 C 738.816 904.373 742.725 900.058 748.048 896.078 z"/>
<path transform="translate(0,0)" fill="rgb(39,35,58)" d="M 534.239 895.803 C 550.852 896.028 559.076 913.667 582.538 909.741 C 593.734 907.867 602.295 901.366 612.902 898.586 C 617.311 897.43 623.038 897.112 626.898 899.996 C 629.935 902.264 630.822 906.047 630.993 909.622 C 631.445 919.041 627.678 925.136 621.565 931.942 C 619.63 933.43 617.608 934.869 615.528 936.147 C 599.729 945.852 569.708 944.553 552.293 940.5 C 540.879 937.843 530.549 931.604 524.526 921.305 C 522.273 917.452 520.753 912.93 522.219 908.516 C 524.249 902.403 528.769 898.725 534.239 895.803 z"/>
<path transform="translate(0,0)" fill="rgb(254,196,28)" d="M 1586.04 1200.61 L 1587.37 1200.72 C 1637.65 1204.76 1679.73 1191.41 1718.63 1236.11 C 1730.34 1249.58 1737.68 1265.65 1741.15 1283.08 C 1745.16 1303.27 1743.99 1324.22 1743.97 1344.7 L 1743.89 1417.12 L 1743.98 1489.37 C 1744.01 1503.19 1744.61 1517.31 1743.56 1531.09 C 1741.42 1559.25 1730.09 1585.7 1708.37 1604.36 C 1683.62 1625.63 1657.26 1629.11 1625.74 1628.75 L 1512.02 1628.68 L 1461.15 1628.59 C 1453.39 1628.38 1445.6 1628.54 1437.84 1628.55 L 1437.91 1625.84 L 1437.95 1488.77 C 1438.02 1469.45 1440.21 1438.36 1437.36 1420.53 C 1436.49 1415.09 1433.74 1411.44 1430.41 1407.19 C 1432.02 1408.31 1432.5 1408.95 1434.49 1409.14 C 1438.75 1395.23 1435.25 1371.61 1436.86 1356.16 L 1437.01 1354.81 C 1435.96 1345.35 1435.05 1277.73 1437.58 1271.04 L 1440.79 1270.39 C 1447.83 1271.24 1455.15 1270.91 1462.2 1270.32 C 1497.86 1267.31 1534.03 1252.33 1560.62 1228.22 C 1569.84 1219.85 1577.97 1210.07 1586.04 1200.61 z"/>
<path transform="translate(0,0)" fill="rgb(254,159,13)" d="M 1437.01 1354.81 C 1449.75 1365.21 1458.79 1378.4 1460.53 1395.13 C 1462.36 1412.82 1461.54 1431.34 1461.55 1449.14 L 1461.53 1538.21 L 1461.71 1595.81 C 1461.76 1606.47 1462.65 1618.06 1461.15 1628.59 C 1453.39 1628.38 1445.6 1628.54 1437.84 1628.55 L 1437.91 1625.84 L 1437.95 1488.77 C 1438.02 1469.45 1440.21 1438.36 1437.36 1420.53 C 1436.49 1415.09 1433.74 1411.44 1430.41 1407.19 C 1432.02 1408.31 1432.5 1408.95 1434.49 1409.14 C 1438.75 1395.23 1435.25 1371.61 1436.86 1356.16 L 1437.01 1354.81 z"/>
<path transform="translate(0,0)" fill="rgb(252,110,26)" d="M 1436.22 1184.16 C 1459.55 1177.46 1487.11 1157.57 1499.08 1136.12 C 1509.65 1117.2 1506.98 1101.26 1501.21 1081.48 C 1486.17 1029.92 1472.45 986.377 1500.31 935.615 C 1513.19 912.15 1531.33 895.729 1557.28 888.43 C 1575.13 883.405 1595.22 885.189 1611.35 894.588 C 1624.1 902.023 1635 914.629 1638.63 929.109 C 1641.9 942.205 1639.3 956.516 1632.14 967.895 C 1622.18 983.729 1607.97 990.87 1590.5 995.656 C 1611.72 1057.42 1630.33 1114.49 1599.56 1177.65 C 1595.66 1185.66 1590.85 1193.13 1586.04 1200.61 C 1577.97 1210.07 1569.84 1219.85 1560.62 1228.22 C 1534.03 1252.33 1497.86 1267.31 1462.2 1270.32 C 1455.15 1270.91 1447.83 1271.24 1440.79 1270.39 C 1439.14 1269.95 1437.49 1269.56 1435.82 1269.19 C 1434.57 1256.94 1434.02 1194.59 1436.22 1184.16 z"/>
<path transform="translate(0,0)" fill="rgb(254,131,22)" d="M 440.674 863.085 C 438.704 843.947 439.002 824.348 438.928 805.122 L 438.799 725.307 L 438.477 664.738 C 438.41 653.64 437.752 642.177 438.73 631.118 C 439.866 618.267 443.494 608.22 453.797 599.848 C 462.408 592.85 472.098 589.554 483.216 590.949 C 489.533 591.742 496.433 594.137 501.632 597.864 C 513.224 606.175 523.496 619.629 533.12 630.19 C 553.633 652.698 575.737 675.84 594.012 700.15 C 520.447 727.818 463.831 787.978 440.674 863.085 z"/>
<path transform="translate(0,0)" fill="rgb(254,131,22)" d="M 778.735 702.438 C 795.598 679.463 814.949 657.842 833.589 636.295 C 844.135 624.105 854.879 609.438 867.635 599.529 C 872.456 595.784 877.471 593.235 883.551 592.272 C 892.592 590.838 902.415 593.365 909.667 598.951 C 918.744 605.942 920.983 615.984 922.082 626.796 C 924.291 648.539 922.427 677.954 922.386 700.297 L 921.943 850.43 C 897.238 783.096 845.222 729.341 778.735 702.438 z"/>
<path transform="translate(0,0)" fill="rgb(0,146,120)" d="M 1354.73 329.501 C 1367.14 326.934 1463.41 325.719 1471.25 330.782 C 1473.23 332.058 1473.84 337.278 1474.03 339.473 C 1475.05 350.819 1470.84 371.271 1475.14 380.996 C 1482.78 368.609 1498.03 366.71 1511.16 363.6 C 1529.49 359.26 1553.2 349.467 1570.69 360.386 C 1576.61 364.076 1578.68 369.515 1581.49 375.633 C 1589.45 392.949 1595.3 411.59 1602.08 429.411 L 1635.8 515.618 C 1649.01 548.996 1661.99 582.463 1674.75 616.016 C 1683.94 639.587 1695.03 662.26 1700.11 687.223 L 1700.65 689.982 C 1697.16 700.159 1693.17 706.505 1682.97 711.249 C 1676.08 714.451 1668.3 716.472 1661.05 718.747 C 1673.78 722.656 1722.44 720.095 1738.07 719.965 L 1738.09 800.7 L 1256.51 800.562 L 1084.46 800.48 C 1052.94 800.485 1021.27 799.825 989.781 800.958 C 989.468 773.938 989.331 746.916 989.368 719.895 C 1007.76 720.004 1027.69 721.617 1045.88 719.186 C 1043.13 716.586 1040.65 713.331 1040.22 709.479 C 1038.48 693.915 1039.84 676.997 1039.84 661.261 L 1039.86 562.013 L 1039.84 417.7 C 1039.84 393.032 1038.78 367.812 1040.06 343.201 C 1040.26 339.285 1041.06 335.938 1043.78 332.959 C 1051.31 324.701 1111.52 327.863 1125.27 327.831 C 1130.8 327.819 1135.38 328.007 1139.4 332.343 C 1148.26 341.883 1144.5 383.896 1144.36 397.911 C 1167.46 398.058 1190.57 398.058 1213.67 397.911 C 1226.14 397.891 1239.75 396.897 1252.03 399.065 C 1251.92 390.311 1251.99 381.556 1252.24 372.805 C 1252.02 361.972 1250.42 348.645 1252.98 338.147 C 1253.66 335.352 1254.65 332.931 1257.29 331.416 C 1260.78 329.412 1265.05 328.562 1269.01 328.149 C 1282.95 326.695 1342.41 326.676 1354.73 329.501 z"/>
<path transform="translate(0,0)" fill="rgb(238,100,154)" d="M 1475.14 380.996 C 1482.78 368.609 1498.03 366.71 1511.16 363.6 C 1529.49 359.26 1553.2 349.467 1570.69 360.386 C 1576.61 364.076 1578.68 369.515 1581.49 375.633 C 1589.45 392.949 1595.3 411.59 1602.08 429.411 L 1635.8 515.618 C 1649.01 548.996 1661.99 582.463 1674.75 616.016 C 1683.94 639.587 1695.03 662.26 1700.11 687.223 L 1700.65 689.982 C 1697.16 700.159 1693.17 706.505 1682.97 711.249 C 1676.08 714.451 1668.3 716.472 1661.05 718.747 C 1644.31 721.084 1626.06 720.234 1609.18 719.447 C 1594.66 721.822 1577.23 720.116 1562.42 720.107 C 1532.73 720.089 1502.98 720.446 1473.3 719.737 L 1473.35 494.989 C 1473.3 473.832 1473.36 452.674 1473.55 431.518 C 1473.63 421.611 1472.73 410.371 1474.67 400.679 C 1472.9 393.643 1473.84 387.963 1475.14 380.996 z"/>
<path transform="translate(0,0)" fill="rgb(0,161,255)" d="M 1473.3 719.737 L 1473.35 494.989 C 1473.3 473.832 1473.36 452.674 1473.55 431.518 C 1473.63 421.611 1472.73 410.371 1474.67 400.679 C 1503.18 469.58 1530.58 539.159 1557.97 608.516 L 1581.89 669.044 C 1586.82 681.678 1591.13 695.16 1597.47 707.168 C 1600.23 712.398 1604.29 716.201 1609.18 719.447 C 1594.66 721.822 1577.23 720.116 1562.42 720.107 C 1532.73 720.089 1502.98 720.446 1473.3 719.737 z"/>
<path transform="translate(0,0)" fill="rgb(1,103,211)" d="M 1354.73 329.501 C 1367.14 326.934 1463.41 325.719 1471.25 330.782 C 1473.23 332.058 1473.84 337.278 1474.03 339.473 C 1475.05 350.819 1470.84 371.271 1475.14 380.996 C 1473.84 387.963 1472.9 393.643 1474.67 400.679 C 1472.73 410.371 1473.63 421.611 1473.55 431.518 C 1473.36 452.674 1473.3 473.832 1473.35 494.989 L 1473.3 719.737 C 1460.74 718.075 1446.87 719.077 1434.19 719.123 C 1409.71 719.172 1385.23 719.363 1360.75 719.695 L 1360.61 459.978 L 1360.68 379.872 C 1360.69 366.537 1361.83 352.097 1360.28 338.889 C 1359.78 334.583 1357.68 332.474 1354.73 329.501 z"/>
<path transform="translate(0,0)" fill="rgb(254,196,28)" d="M 1252.24 372.805 C 1252.02 361.972 1250.42 348.645 1252.98 338.147 C 1253.66 335.352 1254.65 332.931 1257.29 331.416 C 1260.78 329.412 1265.05 328.562 1269.01 328.149 C 1282.95 326.695 1342.41 326.676 1354.73 329.501 C 1357.68 332.474 1359.78 334.583 1360.28 338.889 C 1361.83 352.097 1360.69 366.537 1360.68 379.872 L 1360.61 459.978 L 1360.75 719.695 C 1346.55 718.534 1331.81 719.138 1317.55 719.14 C 1295.94 718.976 1274.32 719.156 1252.72 719.68 C 1254.57 654.91 1253.01 589.67 1253.02 524.85 L 1253.02 432.18 C 1252.99 412.451 1253.41 392.5 1252.24 372.805 z"/>
<path transform="translate(0,0)" fill="rgb(238,100,154)" d="M 1045.88 719.186 C 1043.13 716.586 1040.65 713.331 1040.22 709.479 C 1038.48 693.915 1039.84 676.997 1039.84 661.261 L 1039.86 562.013 L 1039.84 417.7 C 1039.84 393.032 1038.78 367.812 1040.06 343.201 C 1040.26 339.285 1041.06 335.938 1043.78 332.959 C 1051.31 324.701 1111.52 327.863 1125.27 327.831 C 1130.8 327.819 1135.38 328.007 1139.4 332.343 C 1148.26 341.883 1144.5 383.896 1144.36 397.911 C 1143.42 469.272 1144.23 540.728 1144.31 612.102 L 1144.39 673.172 C 1144.41 683.508 1145 694.132 1144.34 704.437 C 1144.08 708.581 1143.65 715.375 1140.73 718.533 C 1128.6 720.969 1113.87 719.446 1101.42 719.424 C 1082.97 719.391 1064.31 719.929 1045.88 719.186 z"/>
</svg>