<svg xmlns="http://www.w3.org/2000/svg" width="1365.333" height="1365.333" preserveAspectRatio="xMidYMid meet" version="1.0" viewBox="0 0 1024 1024"><g fill="#000" stroke="none"><path d="M61.5 29.5 59 31.9V307c0 267.3-.1 275.2-1.9 278.8-1 2-2.9 7.7-4.2 12.7-2.4 9-2.4 9.3-2.3 63 .1 141.5 9.3 184.7 43.6 205.3 6.8 4 20.1 8.7 29.3 10.3 3.8.7 7.5 1.7 8.1 2.3.8.8-.5 8.7-4.7 28.6-8.3 39.1-8 43.9 2.9 49.1 6.7 3.3 20.8 3.4 26.8.2 9-4.8 12.3-11.2 24.9-48.8l9-27 11.7-.3 11.6-.3-1.4 3.8c-3.1 8.9-.7 19.7 5.9 26.6 11.9 12.2 34.7 12.2 55 .1 7.9-4.8 19.1-16.1 24.1-24.2l3.7-6.2h265.8c211.5 0 266 .3 266.8 1.2.5.7 4.6 13.1 9.1 27.5 10.5 33.7 11.7 36.8 16 41.5 5.9 6.6 10.3 8.3 20.7 8.3s16.9-2.5 20.7-7.8c3.3-4.6 2.7-14.1-2.6-45.1-2.5-14.3-4.3-26.2-4.1-26.6.3-.4 3.3-1.3 6.7-1.9 18.3-3.5 33.6-10.2 42.9-18.9 20.6-19 28.8-52.4 33.9-136.7 1.7-27.7 2.4-107.5 1.1-119-2.1-18.5-6.8-29.4-17.5-40.1-6.1-6.1-8.9-8-19.1-12.9-6.6-3.2-12.2-5.9-12.3-6.1-.2-.1.8-3.1 2.2-6.6s3-8.6 3.6-11.3c1.6-7.3 1.4-26.1-.5-42.7-2.4-19.7-1.7-25 4.5-37.8 5.4-11 9-21.5 9-26.4 0-9.8-5.6-20.8-13.3-26.3-15-10.6-33.2-7.6-47 7.7-6.1 6.8-9.1 12.2-12.6 22.7-6.3 18.7-6.6 39.6-1 63.3 4.4 18.5 4.6 30.2.6 37.7L872 530h-15v-50.5c0-55.4-.1-57.2-6.2-74.3-3.6-10.6-7.4-17.4-14.6-27l-5.5-7.3.7-10.7c1.8-28.3 7.8-59.3 17.3-89.4l4.6-14.7 5.6-2.5c51.3-23 94.7-87.3 97.8-144.6 1.5-29.3-6.8-46.1-25-50.6-5.9-1.5-7.1-1.5-14.3 0-36.6 7.4-71 51.7-84.3 108.6-6 25.4-4.7 49.4 3.9 74.5l4 11.6-4.4 13.7c-4.4 13.8-11.6 42.9-11.6 47.1 0 1.2-.3 2-.7 1.8-.5-.3-.6 2-.4 5.1l.5 5.7.8-7.4c1.1-10.4 7.2-36.2 12.4-52.3l4.4-13.7-4-11.6c-6.7-19.6-8.8-35.3-7-54.4 4.7-51.4 36.2-104.9 72.2-122.6 20.8-10.3 35.6-7.5 46.3 8.6 4.6 7 6 14.1 6 30.4 0 12-.5 17.1-2.3 25.3-7.3 32.5-23.9 63.3-48.9 90.2-11.1 12-33.2 28-47 34-5.4 2.3-4.8 1.1-12.7 28-7.1 24-12.7 55.6-14.1 79.2l-.8 11.6 6 7.9c7 9.4 13.2 21.6 17 33.8l2.8 9 .3 54.2.3 54.3h17l2.7-5.8c3.9-8.4 3.7-19.9-.9-38.7-3.2-13.2-3.3-15-3.3-31 .1-19.5 1.7-27.4 8.1-40.4 4.6-9.2 15.3-20.6 22.8-24.1 5.9-2.9 15.6-3.8 21.2-2 10.9 3.4 20.5 13.9 22.5 24.8 1.5 8.2.3 13.2-6.8 28.3-7.6 16.2-8.3 21.1-6 41.4 3.1 27.1 2.1 43.8-3.4 54.5-3.4 6.6-3.1 6.9 10.2 13.3 10.5 5.1 13.2 6.9 19.5 13.2 7.8 7.8 12.7 16.4 15.9 28 3.5 12.5 2.8 103.5-1.1 152.5-4.1 51.1-8.5 74.3-17.6 92.8-4.2 8.6-6.3 11.7-12.7 18.1-11 11-22.2 16.4-43.4 21-4.2.9-7.9 1.9-8.3 2.2-.3.4 1.5 12.7 4 27.4s4.7 29.9 4.8 33.8c.2 8.6-1.3 11.4-8.2 15.5-4.1 2.4-5.6 2.7-13.6 2.7-9.7 0-11.6-.7-18.3-6.9-5.1-4.7-7.4-10.1-16.7-39.7-4.7-15.1-9-28.4-9.5-29.6l-1-2.3H567.8c-146.5 0-266.8.4-267.4.8s-2.6 3.2-4.6 6.2c-13.8 21.7-39.7 35.7-59.4 32.1-17.9-3.3-28.4-19.1-23-34.4 1.1-3 1.1-3.9.2-4.3-.7-.3-6.3-.3-12.6-.2l-11.3.3-8.3 25.3c-11.8 35.8-16.1 44.4-24.7 50-3.8 2.4-5.1 2.7-13.2 2.7-8-.1-9.6-.4-13.6-2.7-9.9-5.8-10.1-9.7-1.9-48.3 6.6-31.4 6.7-29.8-2-30.9-7.9-1.1-23-6.3-29.9-10.3-35.4-20.9-44.4-62.2-44.5-204.8-.1-58.9 0-60.4 5.9-73.4l2.5-5.3V32.3l2.3-2.1 2.3-2.2h339.1l2.1 2.3 2.2 2.3.2 150.5.3 150.4 173 .5c159.7.5 173.7.7 182.5 2.3 16.1 3 33.5 9.7 44.3 17.1 6 4.1 7 3.6 6.3-3.2-6.4-61.3-8.8-82.7-9.1-83.1-.3-.2-4.6-1.5-9.7-2.8-18.5-4.8-34.6-12.7-50.8-24.9-30.8-23.2-54.2-60.6-62.6-100.4-2.4-11.4-2.5-31.3-.1-39.1 2.3-7.7 7.4-14.8 13.2-18.4 4.6-2.8 5.5-3 14.9-3 11 0 18.3 1.9 30.1 7.8 30 14.8 57.2 49.1 69.9 87.8 8.4 25.7 10 45.2 6.5 78.4-1 8.9-.8 13.2 2 39.8 1.8 16.4 2.9 30.7 2.6 31.8-.4 1-.3 1.9.2 1.9 1.5 0 1.3-4.1-1.8-33.5-2.9-27.8-3-29.5-1.8-41.5 1.8-16.9 1.6-40.2-.4-52.1-6-35.2-22.3-67.4-46.3-91.5C758 93.9 745.5 86 729 80.4c-7.1-2.4-10.1-2.9-18.5-2.9-12.2 0-17.6 2.2-23.1 9.3-13.7 17.9-9.3 60.4 10.2 98.2 15.2 29.5 41.5 56 68.9 69.5 9.6 4.7 32 12.5 36 12.5.8 0 1.6.4 2 .9.4.8 4 33 9 81.3.3 3.2.4 5.8.1 5.8s-2.2-1.2-4.3-2.6c-10.5-7.2-28.4-13.9-45.5-17.1-8.5-1.6-23.9-1.8-181.8-2.3l-172.5-.5-.5-150.6c-.5-146.4-.6-150.8-2.4-152.8l-1.9-2.1H63.9z"/><path d="M70 303c0 278.7-.2 268.5 4 263.5.7-.8 4.3-3.8 8.1-6.6l6.9-5.1V309.5c0-180.3.3-246.1 1.1-247.9.7-1.3 2.3-3 3.8-3.5 1.8-.8 43.6-1 141.2-.9 134.7.3 138.8.4 140.8 2.2l2.1 1.9.2 136.1.3 136.1 9.8.3 9.7.3V38H70zm327-117v147.1l-8.7-.3-8.8-.3-.3-136.1-.2-136.1-2.1-1.9c-2-1.8-6.1-1.9-140.8-2.2-95.4-.2-139.7 0-142.3.8-2.7.8-3.9 1.8-4.7 4.2-.8 2.2-1.1 73.3-1.1 247.8v244.8l-5.7 4.2c-3.2 2.4-7 5.4-8.5 6.8l-2.8 2.6V39h326z"/><path d="m99.2 78.7.3 10.8 42.5.5c23.4.3 43.2.8 44 1.3 2.8 1.4 4 4.7 6.2 17.2l2.2 12.5h14.3c12.9 0 14.5.2 16.3 2 2.5 2.5 2 0 9.8 47.5l6.8 41 10.9.3c5.9.1 11.2-.1 11.7-.6.6-.6-.5-3.8-2.7-8.2-4.5-8.9-7.3-21.2-8.2-35-.5-9.1-.3-10.7 1.1-11.9 1.2-1 5.8-1.4 18.9-1.5 15-.1 17.2-.3 17.5-1.7.2-1.2-1.6-2.5-6-4.6-8.9-4.2-16-10.2-21.7-18.4-8-11.3-12.1-25.1-12.1-40.5 0-6.7.3-7.8 2.6-10.1s3-2.5 8-1.9c3.1.3 7.8 1.8 10.7 3.2 9.8 5 21 17.9 24.8 28.6 1.6 4.6 2.9 4.8 5.3.8 4.6-7.9 23.3-19.5 33.3-20.7 4.9-.5 5.4-.4 8.3 2.6 3 3 3.1 3.3 2.5 8.8-1.9 16.3-7 28.5-15.6 37.2-5.9 6-15.5 11.6-22.7 13.2-3.1.7-5.2 1.8-5.2 2.6 0 1 3.9 1.3 19.3 1.3 17.5 0 19.6.2 21 1.8 2.1 2.3 2.2 7.4.1 21.1-1.8 12.5-4.4 20.8-8.5 27.5-1.7 2.8-2.6 5.3-2.1 5.8s8.7.7 18.3.6l17.4-.3v-143l-134.8-.3L98.9 68zM367.5 140v70.5l-16.7.3c-9.3.1-16.8 0-16.8-.3 0-.4 1.1-2.5 2.4-4.8 3.3-5.7 6.3-16.2 8.1-28.2 1.9-12.8 1.9-18.5-.1-21.3-1.5-2.1-2-2.2-21.2-2.2l-19.7-.1 8-2.8c9.6-3.3 15.1-6.7 21.1-12.9 8.2-8.5 14.2-24.5 14.7-38.7.2-7.4-1.5-10.1-7.1-11.1-9.6-1.8-30.3 8.9-38.3 19.9l-2.7 3.8-1.2-3.8c-3.5-10.8-15.4-24.3-25.7-29-7.1-3.3-17.2-3.8-20-1-2.3 2.2-3 14-1.4 23.4 3.9 23.1 15.3 39.5 32.9 47.4 3.8 1.7 6.1 3.3 5.7 3.9-.5.8-6.4 1-17.6.9-13.2-.2-17.2.1-18.5 1.2-1.5 1.2-1.6 2.8-1.1 12.4.8 13.8 3.7 26.7 8 35.7 2.3 4.7 3 7.1 2.2 7.4-.6.3-5.4.3-10.6.2l-9.4-.3-7.1-42.5c-3.9-23.4-7.5-43.3-7.9-44.3-1.2-3-4.9-3.7-19.1-3.7-7.4 0-13.4-.4-13.4-.8 0-2.7-4.2-23.5-5.1-25.6-.7-1.4-1.9-2.9-2.8-3.3s-20.7-1-44.1-1.3l-42.5-.5-.3-9.8-.3-9.7 133.8.2 133.8.3zm548-69.7c-10.5 3.5-18.9 9.1-29.6 19.7-27.3 27.1-44.9 69.4-44.9 107.9 0 6.5.5 14.4 1 17.7 1.7 9.6 7.2 27.5 8.6 28.1.7.3 5.3-1.6 10.1-4.2 39.2-20.6 74.3-69.1 82.9-114.3 2-10.5 2.2-30.6.4-38.2-2.7-11.5-8.4-17-18.2-17.6-3.6-.2-8 .2-10.3.9m19.2 3.4c5.6 4.5 8.2 10.4 9.3 20.9 1.5 13.7-1.5 37.9-5.9 47.9-.4 1.1-1.9 4.7-3.1 8-10.7 28-35 60.2-58.1 77.2-9.3 6.7-24.7 15.5-26 14.7-1.2-.7-5.7-15.6-7.4-24.9-3.3-17.1-1-43.6 5.4-63.3 4-12.2 13.4-31.4 21.2-43.2 9.1-13.9 24.9-29.3 35.8-34.9 10.8-5.6 12.4-6.1 19.3-5.8 4.7.3 6.5.9 9.5 3.4"/><path d="M261.3 89.6c-.3.9 0 5.5.6 10.2 2 15 9.8 28.6 20.4 35.7 8 5.4 8.7 5 8.7-4.3 0-17.6-9.4-34.9-22.2-41-5.7-2.6-6.7-2.7-7.5-.6m11.3 4.5c5.2 3.6 8.6 8.1 13.2 17.6 3.2 6.8 3.7 8.9 4 17 .3 5.1 0 9.3-.4 9.3-2 0-11.4-7.2-14.7-11.2-5.9-7.3-10.4-17.5-11.7-26.6-1.5-10.1-1.1-11.6 2.7-10 1.5.7 4.6 2.4 6.9 3.9m431.3-5.2c-5 1.6-6.9 3.3-9.6 8.4-2.5 4.7-2.8 6.4-3.1 18.3-.4 14.7.9 23.4 5.9 39.4 12.2 38.4 40.4 72.1 74.7 89.4 7.1 3.6 24.2 9.7 30.9 11.1 3.1.6 3.2.6 4-4.2.4-2.6.8-14.5.8-26.3 0-17.2-.4-23.2-1.9-30-4.4-20.2-14-43-24.9-58.9-7.6-11.1-23.7-27.3-33.8-34.1-15.1-10-33.9-15.8-43-13.1m14.1 1.5c15.4 3.3 31.6 13.3 46.7 28.9 11.8 12.3 18.2 21.4 26.2 37.5 11.2 22.3 14.9 37 15.7 61.2.5 14.7-.5 35.3-1.8 36.5-1 1.1-18.4-4.8-28.2-9.4-15.9-7.5-26.7-15.1-40.2-28.6-13.9-13.8-22.4-25.8-30.8-43.6-10.4-22.2-14-37.4-13.4-57.3.4-12.1.6-13.5 3.1-17.8 5-8.5 10-10.1 22.7-7.4m-618.5 9.8c-.3.7-.4 26-.3 56.3l.3 55h27v-112l-13.3-.3c-10-.2-13.4.1-13.7 1m26 55.3v55h-25l-.3-54c-.1-29.7 0-54.6.3-55.3.3-.9 3.5-1.2 12.7-1l12.3.3zM328.7 102c-6.7 2.6-14.8 9-18.5 14.6-5.3 8-10 23.2-7.5 24.7 1.6 1 13.8-3.8 18-7.1 5.3-4.2 9.7-10.8 12.2-18.5 2.3-7 3.1-14.8 1.6-15.3-.5-.2-3.2.5-5.8 1.6m5.3 6.1c-3 15.6-13.6 27.9-27.4 31.7l-3.9 1.1.7-4.7c.7-5.3 5.2-15.6 9.2-20.7 4.9-6.4 19.5-15.6 21.7-13.6.4.4.3 3.2-.3 6.2m-197.4-5.5c-.9 2.4-.7 106.7.2 108.2.6.9 3.8 1.2 12.3 1l11.4-.3.3-55.3.2-55.2h-11.9c-9.9 0-12 .3-12.5 1.6m23.2 53.6-.3 54.3h-22l-.3-53c-.1-29.2 0-53.6.3-54.3.3-.8 3.6-1.2 11.5-1.2h11zm10.2-53.3c0 1.7 14.3 98.9 15.6 105.8l.6 3.3h7.4c4 0 7.5-.4 7.8-.8.2-.4-1.8-12.5-4.5-26.7-2.8-14.3-7.2-37.9-10-52.5-2.7-14.6-5.1-27.5-5.4-28.8-.5-1.9-1.2-2.2-6-2.2-4.7 0-5.5.3-5.5 1.9m15.6 27.6c2.9 15.4 7.5 39.5 10.2 53.5s4.7 25.8 4.5 26.2c-.2.5-3.3.8-6.8.8-6.1 0-6.4-.1-6.9-2.8-.9-3.9-15.6-103.2-15.6-104.9 0-1.1 1.2-1.3 4.7-1.1l4.7.3zm12.5 1.4c-1.3.8-1.1 3 1.2 15.3 1.5 7.9 4.9 25.5 7.6 39.3l4.7 25 9.4.3c5.1.1 9.7-.1 10.1-.5 1.2-1.2-11.9-78.6-13.4-79.5-1.7-1.1-17.9-1-19.6.1m19.4 1.1c1.2 2 13.3 76.5 12.6 77.3-.4.4-4.6.7-9.2.5l-8.3-.3-2.8-14c-8.9-45.6-11.9-61.9-11.4-63.1.6-1.7 18.1-2 19.1-.4m46 31c-1.1 1.8 1.6 19 4.2 27.5 2.6 8.3 8.2 17.8 11.3 19.5 1 .6 10.1 1 20.1 1h18.2l3.4-3.6c7-7.4 12.1-21.7 13-36.2l.6-9.2h-35.1c-23.1 0-35.3.4-35.7 1m69.2 8.9c-.3 5.5-1.5 11.7-3.1 16.5-2.8 8.3-4.2 10.8-9.4 17.3l-3.3 4.3h-36.7l-2.9-3.8c-4.9-6.2-7-10.4-9.2-17.7-2.3-7.9-4.5-23-3.6-24.5.4-.6 13.4-1 34.7-1h34.1zm-163 22.1c.3 8 .6 15.1.9 15.8.7 2.2 4.9 1 4.8-1.3-.3-4.9-2.6-23.3-3.3-26-1.1-4.3-.1 8.2 1.4 18 1.3 7.8.8 10.4-1.4 9.1-.7-.5-1.1-4.7-1.2-10.9 0-5.6-.4-12.2-.8-14.7-.4-2.6-.6 1.6-.4 10m-70.3 28.4c-.3.7-.4 4.2-.2 7.7l.3 6.4 133.9.3c106.5.2 134.1 0 134.8-1 .9-1.5 1.1-10.9.2-13.2-.6-1.4-13.3-1.6-134.5-1.6-111.8 0-134 .2-134.5 1.4m268.1 6.6v6.5h-267l-.3-5.4c-.2-2.9-.1-6 .2-6.7.5-1.2 21.6-1.4 133.8-1.2l133.3.3zM99.4 249.3c-.3.8-.4 4.7-.2 8.8l.3 7.4 16.1.3c19.2.3 19.3.4 20.1 10.7l.6 6.5h27.5l.4-5.6c.4-4.2 1.1-6.1 3-8.1 2.4-2.4 3.6-2.6 14.5-3.4 19.3-1.3 20.9-1.2 23.8 1.4 2.3 1.9 2.8 3.3 3.2 8.9.7 7.9.5 7.8 13.9 7.8 7.5 0 9.4.3 10.7 1.8 1.5 1.6 1.7 6.6 1.9 45.3l.3 43.4 5.1.3 5 .3 26.7-54c18.2-37 27.2-54.1 28.5-54.5 1.1-.4 6.2 1.4 13.5 4.9 14.7 7 15.7 7 15.7.7 0-2.7.7-5.7 1.6-7 1.5-2.1 2.1-2.2 18.8-2.2h17.3l.7-5.8c.4-3.2.4-6.6 0-7.5-.6-1.6-10.6-1.7-134.5-1.7-111.2 0-134.1.2-134.5 1.3m268.1.7c.4.6.3 3.5 0 6.5l-.7 5.5h-16.7c-19.9 0-20.2.1-20.9 8.4-.2 3.1-.9 5.6-1.4 5.6-.6 0-6.3-2.5-12.8-5.5-9-4.3-12.4-5.4-14.5-4.9-2.4.6-5.6 6.6-29.3 54.6l-26.6 53.9-4-.3-4.1-.3-.5-43.6c-.4-34.9-.8-43.9-1.9-45.2-1.1-1.4-3.3-1.7-11.5-1.7-5.5 0-10.6-.4-11.2-.8s-1.4-3.6-1.8-7.2c-1-10.3-1.5-10.6-19.9-10.2-8.4.2-16.7.6-18.6 1-4.5 1-7.3 4.8-7.9 11.1l-.5 5.1h-25.4l-.6-6c-.3-3.4-1.2-7.2-2.1-8.5-1.6-2.4-1.9-2.5-17.9-2.7l-16.2-.3-.3-6.4c-.2-3.5-.1-7 .2-7.7.5-1.2 22.5-1.4 133.5-1.4 89.1 0 133.2.3 133.6 1"/><path d="M340.6 273.6c-1.7.6-1.8 1.9-1.1 31.2.4 16.9.9 31 1.1 31.3.2.4 2.3.3 4.6-.2 2.4-.5 8.6-1.2 13.8-1.6l9.5-.8v-28.7c0-19.4-.4-29.1-1.1-29.8-1.2-1.2-23.6-2.3-26.8-1.4m26.1 3c1 1.4 1.3 7.9 1.1 28.8l-.3 27.1-11.5 1.2c-6.3.6-12.2 1.2-13.1 1.2-1.4.1-1.7-3.2-2.4-29.5-.6-24.4-.5-29.8.7-30.6.7-.5 6.4-.7 12.8-.4 9.4.4 11.6.8 12.7 2.2m-184.4-.9-8.3.4V375h25l-.2-49.8-.3-49.7-4-.1c-2.2 0-7.7.1-12.2.3m15.5 49.5.2 48.8h-23v-96.9l7.8-.4c4.2-.2 9.3-.3 11.2-.3l3.5.1zm-98.3-48c-.3.7-.4 22.9-.3 49.3l.3 48 13.1.3 13.1.3.7-4.1c.6-4.1-.2-91.5-.9-93.8-.3-.9-3.8-1.2-13-1.2-9.1 0-12.7.3-13 1.2m25 1c.7 2.3 1.6 89.3.9 92.6l-.7 3.3-12.1-.3-12.1-.3-.3-47c-.1-25.9 0-47.6.3-48.3.3-.9 3.7-1.2 12-1.2 8.4 0 11.7.3 12 1.2m156.4 47.1c-12.6 25.5-22.9 47.1-22.9 48 0 1.5 1.2 1.7 8.8 1.7h8.8l4.6-5.3c3.4-3.9 9.8-15.8 23.7-43.5 10.5-21 19.1-38.6 19.1-39.1 0-1-15.5-8.1-17.6-8.1-1 0-9.7 16.4-24.5 46.3m33.8-41.3 7.2 3.2-19 38.1c-13.9 27.7-20.3 39.5-23.7 43.4l-4.6 5.3h-7.8c-4.3 0-7.8-.3-7.8-.7 0-.3 10.3-21.5 23-47.1 15.2-30.8 23.4-46.3 24.2-45.9.7.2 4.5 1.9 8.5 3.7m-176.4 9.7-2.3.4V375h28v-82l-11.7.1c-6.5.1-12.8.4-14 .6M163 334v40h-26v-39.4c0-36.7.1-39.5 1.8-39.9.9-.3 6.8-.5 13-.6l11.2-.1zm47.5-38.8c-.3.7-.4 18.9-.3 40.3l.3 39h15v-80l-7.3-.3c-5.2-.2-7.4.1-7.7 1m14 39.3v39h-13l-.3-38c-.1-20.9 0-38.6.3-39.3.3-.9 2.3-1.2 6.7-1l6.3.3zm91-10.3c-6.6 12.8-12.1 23.9-12.3 24.5-.5 2.1 1.4 1.5 10.1-2.6 4.5-2.2 10.1-4.6 12.5-5.3l4.2-1.3-.2-19.5-.3-19.5-.2 19.1-.3 19-5.3 1.9c-4.1 1.4-15.4 6.4-18.8 8.2-.4.2 4.7-10 11.2-22.8 6.6-12.7 11.8-23.6 11.7-24.1-.2-.5-5.7 9.6-12.3 22.4m39.4 21c-29.8 2.2-59.6 18.2-74.6 40-12.2 17.6-15.7 28.3-17.9 54-.6 7.7-.6 7.8 1.7 7.8 1.3 0 11.3-2.7 22.3-6 10.9-3.3 22.6-6.3 26.1-6.6 13-1.3 23.1 4.5 29.9 17.5 4.6 8.9 16 38.2 17.7 45.6.7 3 1.6 5.5 2 5.5s4.7-1.5 9.6-3.4c9.5-3.6 26.6-7.9 37.8-9.6 35.7-5.2 80.7.8 116.8 15.6 5.9 2.4 11.4 4.4 12.2 4.4 1.1 0 1.5-1.2 1.5-3.9 0-8.3 11.2-64.8 16.1-81.4 3.7-12.2 6.8-18.6 10.9-22.1 10.3-8.6 21.2-1.1 40 27.4l10.1 15.5h20.7c11.4.1 23 .4 25.7.9l5 .7 5.5-8.2c18.8-28.3 30.4-39.9 39.6-39.9 3.3 0 8.5 3.8 11.3 8.4 3.6 5.7 9.6 25.8 16.5 55.1 7 29.8 9.6 43.4 9.6 49.7 0 4.9 1.2 5.3 8.6 3.4 14.2-3.6 19.4-3.1 19.4 1.9 0 3.6-2.3 4.7-15.3 7.5l-12.1 2.7-1.3 7.9c-.6 4.3-1 8-.8 8.2s5 1.5 10.7 2.8c11.4 2.7 16.3 5.8 14.2 9.1-2.3 3.6-3.8 3.7-15.2 1-6.1-1.5-11.7-2.7-12.4-2.7-.8 0-2.8 2.8-4.5 6.2-4.2 8.6-11.5 18-17.3 22.5-2.7 2.1-4.9 4.3-5 5 0 2.2 80.7 41.3 85.4 41.3.2 0 .6-9.8.9-21.8.6-24.7 2.1-33 8.3-45.7 5.9-12.1 17.1-22.9 27.5-26.5l3.7-1.3.4-9.1c.9-16.4.6-78.3-.3-89.3-.5-5.9-1.6-13.4-2.4-16.5-9-35.2-34.6-60.7-70.3-69.8-17.6-4.5-15.8-4.4-217.7-4.5-105.6 0-195.9.3-200.6.7m401.6 1.6c19.4 2.7 33.6 7.9 48.2 17.8 20.2 13.7 35 36.8 39.4 61.4 1.2 6.9 2.1 82.5 1.2 98.2l-.5 8.6-4.7 1.8c-15.1 5.7-26.3 20.1-31.8 41.4-2.2 8.2-2.6 12.4-3 30.6l-.6 21.1-10.1-4c-5.5-2.3-24.4-11.3-41.9-20L721 587.8l4.9-3.9c6-4.8 13.3-14.2 17.4-22.7 1.7-3.4 3.6-6.2 4.2-6.2.5 0 5.5 1.1 11 2.5 12.3 3.1 14 3.1 15.9.3 3.9-5.5.3-8.8-12.8-11.8-5.1-1.2-9.7-2.5-10.3-2.8-.7-.5-.7-2.8.1-7.7l1.1-6.9 12.4-2.8c6.8-1.5 13-3.3 13.7-3.9 1.9-1.5 1.8-7.4-.1-8.9-1.8-1.5-9.6-.8-18.8 1.6-3.2.8-6.2 1.2-6.7.9-.6-.3-1-2.1-1-3.9 0-9.5-13.5-68.9-20.6-90.5-4.6-13.9-7.5-19.1-12.4-21.6-11.1-5.7-23.5 4.6-46 38.3l-5.5 8.3-4-.7c-2.2-.4-13.3-.8-24.7-.9l-20.7-.1-10.2-15.4c-18.9-28.7-30.9-36.6-42-27.3-4 3.4-6.2 7.9-10.3 21.4-5 16.8-16.6 74.1-16.6 82.5 0 1.9-.3 3.4-.7 3.4s-5-1.8-10.2-3.9C501.6 494.2 465.6 487 438 487c-23.8 0-53.3 5.7-74.1 14.4-1.4.6-1.9-.3-2.9-4.6-1.7-7.2-14.2-39.6-18.2-47-4.3-8.1-10.2-13.1-18-15.3-8.8-2.4-14.9-1.6-38.4 5.5-11 3.3-20.7 6-21.8 6-1.6 0-1.7-.6-1.2-7.3 1-11 2.6-21.8 3.8-25.7 1.6-5.6 8.6-18.9 14.1-26.8 14.9-21.7 44.5-37.8 73.6-40 4.7-.4 95-.7 200.6-.7 147.8.1 194.1.3 201 1.3m-656.2 38.9c-2.1.8-1.8 14.9.3 15.7.9.3 36.5.6 79.3.6 60.7 0 78.1-.3 79.3-1.3 2.4-1.9 7.8-12.7 7.1-14.3-.4-1.2-12.3-1.4-82.7-1.3-45.1 0-82.7.3-83.3.6m164.9.8c.5.5-4.4 10.9-6.3 13.2-1 1.1-14.8 1.3-79.8 1.1l-78.6-.3-.3-5.9c-.2-3.2-.1-6.5.2-7.2.4-1.2 14.2-1.4 82.4-1.4 45 0 82.1.2 82.4.5"/><path d="M907.4 400.1c-8.1 3.1-13.8 8.8-18.3 18.3-6.2 12.8-7.6 19.7-7.5 37.1 0 13.2.4 16.7 3.2 29 5.9 25.7 5.5 33.7-2.7 50.5-5.1 10.6-7.3 12.1-11.7 7.9-2.4-2.2-2.6-2.2-11.7-1.1-16.8 2.2-28.3 10-35 23.5-5.7 11.7-7.7 24.4-7.7 50v18.8l3.1 1.7c7.1 3.8 17.7 11.4 24.5 17.6 4 3.6 7.7 6.6 8.3 6.6.7 0 1.1-5.5 1.1-16.8 0-18.6 1.3-35.4 3.6-45.2 1.9-8.4 8.2-21.2 13.5-27.3 4.8-5.6 16.4-14.7 18.7-14.7 3.9 0 21.6-6.7 23.9-9 4-3.9 7.8-10.1 9.8-15.5 2.6-7.3 3.1-26.8 1.1-43-3-24.5-2.1-31.6 6.4-49.5 3.3-6.9 6.3-14.5 6.6-17 1.3-10-3.7-18.4-13.2-22-6.7-2.5-9.4-2.5-16 .1m13.7.1c9.1 2.7 15.8 12.4 14.6 21.1-.3 2.3-3.1 9.5-6.2 15.8-8.6 18-9.9 27.3-7 50.4 3.1 24.6 1.6 41-4.5 50.5-5.5 8.6-8.3 10.7-19.3 14.1-14.6 4.5-18.3 6.5-26.2 14.4-15.2 15.2-20.5 34.7-20.5 76.3v16.3l-7.3-6.6c-7-6.3-17.5-13.9-24.7-17.8l-3.2-1.7.5-22.8c.6-25.4 1.8-32.8 6.9-43.2 4-8 12.4-16.6 19.8-20.2 3.4-1.6 8.9-3.1 14.3-3.9 8.5-1.2 8.8-1.1 11.1 1 1.7 1.6 3.3 2.2 5.7 1.9 3.7-.3 4.3-1.3 10-14.3 6-13.7 6.2-23.1.9-46.5-6.5-28.8-4.6-51.6 5.6-69.1 4-6.8 9-11.3 15.8-14.5 5.8-2.7 8.2-2.9 13.7-1.2"/><path d="M873 547.6c0 1.3 4.8 5.8 7.7 7.3 3.3 1.7 4.1 1.3 1.3-.6-1.4-.9-4-3-5.7-4.6-1.8-1.7-3.3-2.6-3.3-2.1M572.2 410.8c-3.7 3.7-10 27.8-17.8 68.2-3.9 19.6-4.8 26.6-4.9 35.2 0 5.9.5 11.1 1 11.7.6.5 6.4 1.4 12.9 1.9 10.7.8 12.1 1.1 13.8 3.2 1.6 2 1.7 2.5.5 4.4-1.3 1.9-2.5 2.1-12.1 2.4-8.9.2-10.6.5-10.6 1.8 0 2.6 5.2 11.4 6.7 11.4.8 0 4.9-1 9-2.2l7.6-2.2 1.8 2.3c1.1 1.3 1.9 2.9 1.9 3.6 0 1.9-4.5 5.2-8.1 6-1.7.4-3.3 1.3-3.6 2.2-.7 1.9 3.4 6.1 9.6 9.8 6 3.6 7.6 6.4 5.5 9.4-.8 1.1-2.2 2.1-3 2.1-2.4 0-12.5-6.8-18.6-12.6-3.1-3-5.9-5.4-6.2-5.4s-5.9 1.9-12.6 4.1c-11.6 4-12.2 4.1-14 2.4-2.3-2.1-2.6-5.7-.7-7.3.7-.6 5.3-2.5 10.3-4.3 4.9-1.7 9.3-3.4 9.7-3.9.5-.4-.9-4.4-3-8.9l-3.8-8.2-10.1.7c-9.5.6-10.3.5-12.3-1.5-2.6-2.6-2.6-3.6-.2-6 1.4-1.4 4.1-2 10.5-2.6 8.2-.6 8.6-.8 8.6-3.1 0-3.1-2.3-4.5-17.1-10.5-30.2-12.3-70.9-18.8-100.1-16-43.5 4.1-77.1 19.3-105.4 47.5-14.9 15-21 23-27.9 37.1-5 10.1-9.5 23.9-9.5 29 0 3.4-2.6 6.1-12.1 12.7-10.8 7.3-27.9 23.4-34.8 32.6-10.8 14.4-17.2 28.4-20.6 45.2-1.4 6.7-1.6 11.6-1.2 23 .9 27.4 5.7 38.5 30.5 71.4 13.7 18.2 18.1 28.2 18.2 41.3 0 13.1-6.3 22.6-22.2 33.5-4.9 3.4-10.5 8.1-12.4 10.6-2.9 3.9-3.4 5.3-3.4 10 0 6.9 2.6 11.3 8.3 14.1 13.6 6.6 31.5 1.6 47.3-13.2 21.6-20.2 29.1-52.1 18.8-80.6-3.5-9.8-9.4-19.2-22.3-35.9-12.1-15.8-19.7-28.6-22.5-38.1-2.1-7.3-2.1-26.2 0-34.5 3.7-14.8 14.1-30.3 27.5-41.2 4-3.2 8.7-7.9 10.4-10.4s4-4.7 4.9-4.8c2.5-.5 5.9 2.8 5.2 5.3-.3 1.1-1.2 4.4-2 7.4-3.9 13.7 6.6 25.4 27.9 30.9 4.4 1.2 23.1 4.8 41.5 8.2s40.3 7.5 48.5 9.1c17.2 3.4 32.3 5.4 33.2 4.6 1.1-1.2.3-10-1.2-12.3-2-3.1-1.9-4.7.5-6.9 4.2-3.8 9.9 2.6 11.4 12.7.8 5.3.6 5.2 5.8 3.8 5.2-1.5 7.8-5.1 7.8-11.1 0-15.7-11.1-21.8-46.5-25.4-9.3-.9-18.2-2.2-19.8-2.7-3.2-1.2-4.6-5.1-2.6-7.4 1.1-1.4 3.1-1.5 14.5-.9l13.1.7 5-6.4c7.1-9 10.2-14.1 13.1-22.2 6.5-17.9 1.3-43-11.7-56.4-5.2-5.4-13.5-10.8-19.3-12.8-5.6-1.8-7.2-3.6-6.4-6.9 1.3-5.2 8-4.2 20 2.9 12.1 7.2 22.9 21.4 27.5 36.3 2.7 8.6 3.6 21.3 2.1 30.2-1.4 8.5-7.9 22.2-14.1 30.1-2.3 2.9-3.7 5.6-3.3 6 .5.5 3.8 1.6 7.3 2.5 3.6.9 8.1 2.5 10 3.4 3.1 1.6 7.5 1.9 29.1 2.5 14 .4 31.5 1.2 38.9 1.7 7.3.6 13.6.8 13.9.4.3-.3-.2-1.9-1.1-3.4-2.3-3.9-2.2-4.8.9-6.7 2.5-1.7 2.6-1.7 7.7 3.3 13.3 12.8 27.1 18.9 78.2 34.3 52 15.7 56.8 18.1 79.5 40.6 14.2 14 19 17.4 24.5 17.4 2.1 0 2.5-.5 2.5-3 0-1.7-.7-4.7-1.5-6.7-1.4-3.2-1.4-3.9 0-6 3.7-5.6 10.2.4 11.5 10.7.4 3.9.8 4.5 3.1 4.8 3.6.4 8.6-4 9.9-8.6 2.4-8.9.1-21.1-5.6-29.3-9.3-13.5-34.7-33.5-65.4-51.7-42.3-25-55.7-33.6-56.5-36.3-.7-2.2 1.9-5.9 4-5.9.7 0 8.8 4.8 18.1 10.6 20.6 13 22.6 13.9 33.9 15.4 17.8 2.4 52.2 8.1 63.1 10.6 21.3 4.7 35.9 10.9 54.6 23.1 8.4 5.5 16.6 8.9 18.1 7.4 1.2-1.2.4-9.8-1.4-13.8-1.2-2.9-1.1-3.5.4-5 1.3-1.3 2.3-1.5 4.4-.7 3.9 1.3 6.5 6.4 7.1 14 .2 3.5.8 6.6 1.2 6.9 1.6 1 7.8-1.7 10.5-4.5 2.4-2.5 3-4.1 3.3-9 .6-8.6-1.5-13.5-9.3-21.4-10.8-10.9-22.9-18.1-47-28.1-15.6-6.5-46.3-21.3-65-31.3-12.2-6.6-19.4-9.8-22.4-10.2-5-.6-7.3-2.9-5.5-5.7 1.1-1.8 1-1.8 10.5-6.2 4.9-2.3 8.4-5 13.1-9.9 6.1-6.5 12.3-16.6 11.2-18.3-.2-.4-2.6-1.1-5.2-1.5-7.6-1.1-10.4-5.1-6.3-8.8 1.6-1.4 3.4-1.7 9.2-1.4l7.3.3.9-4.8c.5-2.6.7-5 .5-5.2-.2-.3-3 .1-6.1.7-5 1.1-5.8 1-7.7-.7-4.4-4-2.1-6.9 7.3-9.5l6.2-1.7.3-5.8c.4-6.8-2-19.9-9.5-51.5-8.8-37.6-13.9-53.1-17.7-53.8-4.8-1-14.3 9.4-31 34.1-4.8 7-9.5 13.1-10.5 13.7-1.2.6-4.3.5-8.7-.2-4.1-.6-15.5-.9-28.1-.6-20.6.4-21.3.4-23.1-1.6-1.1-1.2-6.3-8.9-11.7-17.1-11.2-17.2-16.2-23.5-20.9-26.5-4.1-2.5-5.1-2.5-7.4-.2m6.4 1.2c4.7 3 9.7 9.3 20.9 26.5 5.4 8.2 10.6 15.9 11.7 17.1 1.8 2 2.5 2.1 23.6 1.6 13-.3 24.4 0 28.5.6 4.2.7 7.8.7 9.2.2s5.1-4.9 8.6-10.2c14.8-22.1 28-37.8 31.8-37.8 3.3 0 8.9 17 17.4 53 7.4 31.3 9.9 44.7 9.5 51.1l-.3 5.3-7 2.1c-5.7 1.7-7.1 2.5-7.9 4.7-.7 2-.5 3.3.8 5.3 1.7 2.5 2.2 2.7 6.5 2.2 2.5-.3 5.5-.9 6.5-1.3 1.7-.7 1.8-.4 1.2 3.2-.5 2.1-1 4.2-1.3 4.6-.2.5-3.5.5-7.4.2-8-.8-10.9.8-10.9 5.7 0 3.5 2.8 5.4 9.3 6.4l4.8.6-2.8 5.2c-1.6 2.8-5.7 8.2-9.2 11.9-5 5.3-8.2 7.7-15 11.1-7.4 3.6-8.6 4.6-8.9 7-.5 3.9 1.4 5.7 5.6 5.7 2.7 0 8.8 2.8 23.2 10.4 10.7 5.7 27.4 14.1 37 18.5 21.2 9.9 19.3 9.1 31.5 14.2 19.6 8.2 32.5 16 42.5 26.1 7.7 7.7 10 12.1 10 19.2 0 4.7-.4 6-3 9-3 3.3-8.2 6-9.4 4.9-.3-.4-.6-2.3-.6-4.3 0-5.5-2.8-13.7-5.3-15.5-2.6-1.8-6.8-2-8.5-.3-1.6 1.6-1.5 6 .3 8.4 1.5 2 2.1 9.9.7 10.8-1.2.7-10.2-3.6-16.9-8.2-15.5-10.5-33.1-17.8-54.4-22.6-11.3-2.5-45.7-8.3-63.8-10.7-10.1-1.3-10.2-1.3-42.3-21.3-5.9-3.7-8.3-4.7-10.2-4.2-3.2.8-4.8 3.8-4 7.1.8 3.2 11.3 10.1 56.4 36.7 20.6 12.2 44.3 29.2 53.9 38.6 14 13.9 18.6 22.8 17.8 35-.4 6.7-.7 7.6-3.8 10.8-4.7 4.8-7.2 4.3-8-1.7-1.3-8.8-5.5-13.7-10.5-12.5-3.5.9-4.7 4.8-2.9 9.3 2.2 5.2 2 8.3-.5 8.3-4.2 0-8.8-3.5-23.5-18-23.1-22.6-23.2-22.6-93-44-35.3-10.8-50.5-17.9-63.2-29.3-5.1-4.6-6.9-5.7-8.6-5.1-4.6 1.3-5.9 5.3-3.1 9.3l1.7 2.3-4.4-.5c-2.4-.3-19.5-1.1-37.9-1.7-30.7-1.1-34-1.4-39.5-3.5-3.3-1.2-8.3-2.8-11.2-3.5l-5.2-1.2 3.9-5c5.7-7.1 11.8-20.1 13.6-28.8 5.8-27.5-8.9-59.7-32.7-71.4-12.6-6.2-18.9-5.7-18.9 1.3 0 3.3 1.1 4.4 6.2 6 5.3 1.7 15.1 8.3 20.2 13.6 8.2 8.6 14.5 25 14.6 37.7 0 11.8-5 24.2-15.1 37.1l-6.1 7.8-13.4-.7-13.3-.7-1.2 2.6c-.6 1.4-.9 3.7-.5 5.1.8 3.3 3.8 4.1 24.1 6.1 18 1.8 26.8 3.6 32.4 6.4 5.2 2.7 9.9 6.8 11.6 10.2 2 3.7 1.9 10.9-.1 13.8-1.5 2.1-8.1 5.7-9 4.8-.2-.2-.8-2.7-1.4-5.5-2.1-11.2-7.9-16.3-13.2-11.5-2.2 2-2.3 4.5-.3 8.4 1.6 3 2.3 9.4 1.2 10.5-.8.9-14.4-1.1-35.2-5.1-9.9-1.9-32.7-6.2-50.7-9.5-17.9-3.3-35.6-6.9-39.3-8.1-8.4-2.6-15.5-6.9-20-12.2-5.7-6.6-6.2-11.5-2.5-21.9 1.2-3.2 1.1-3.9-.4-6.3-2.7-4.2-7.1-3.2-11.1 2.5-1.7 2.5-6.4 7.2-10.4 10.4-19.6 15.9-29.1 35.4-29.1 59.7 0 19.6 5 31.3 23.7 55.5 17.1 22.3 23 32.9 26 47.2 2.2 10.8 1.4 26-2.1 36.7-5.7 18-19.9 34.6-36.4 42.8-7.9 3.9-9.1 4.2-16.6 4.2-6.7 0-8.8-.5-12.4-2.5-5.5-3.1-8.2-7.5-8.2-13.2 0-6.3 4.5-11.9 15.8-19.6 16-11 22.2-20.6 22.2-34.7 0-13.4-4.7-24.3-18.3-42.2-18.2-24.2-24.1-34.3-27.9-48.5-2-7.2-2.3-10.6-2.3-25.8.1-14.9.4-18.7 2.3-25.5 2.8-10.1 7.6-20.2 14.8-31.3 7.1-11.1 26.5-30.4 39-38.9 5-3.4 9.6-6.8 10.2-7.6.6-.7 1.8-4.7 2.6-8.8 2-10.3 4.7-18 10.1-27.9 6.6-12.4 13.3-21 26.9-34.6 12.2-12.2 21.5-19 40.4-29.8 15-8.5 39.9-15.4 64-17.7 29.5-2.8 71.3 3.9 99.7 16.1 20.2 8.6 21.2 10.2 7.4 11.7-5 .6-9.5 1.5-10.1 2.1-1.5 1.5-1.4 7 .1 8.5.8.8 4.6 1.1 11.9 1l10.7-.2 3.6 7.5 3.5 7.5-2.5 1.3c-1.4.7-5.7 2.3-9.6 3.6-8.7 2.8-9.5 3.4-9.5 7.6 0 2.5.7 3.8 2.5 5 2.4 1.5 3 1.4 14.6-2.5l12.1-4.1 6.7 6.2c11.6 10.9 20.8 14.4 23 8.5q2.1-5.4-6-10.2c-2.7-1.6-6.1-4.2-7.6-5.7l-2.6-2.8 3.9-1.5c7.6-3 9.1-4.6 8-8.9-1.1-4.4-4.2-5.1-12.3-2.7-3.9 1.2-7.5 2.1-8 2.1-.9 0-6.3-8.9-6.3-10.4 0-.3 4.7-.6 10.4-.6 11.3 0 12.9-.7 12.9-5.6 0-4.6-2.1-5.5-14.9-6.5-6.5-.6-12.3-1.4-12.9-2-.5-.5-1-5.6-.9-11.2.1-19.8 15.7-91.8 21.9-101.4 1.9-2.8 1.9-2.8 6.1-.3"/><path d="M587.4 500.5c-1.5 2.2-1.5 3.2-.4 6.8 1.7 5.8 9.1 12.9 15.3 14.6 13.5 3.8 29.1-3.9 31.3-15.6.9-4.9-1.7-8.5-5.9-8.1-2.5.2-3.6 1-4.9 3.8-2.9 5.8-7.2 9-12.1 9-5.1 0-10.3-2.9-11.9-6.7-2.9-6.8-8.3-8.6-11.4-3.8m7.6 0c.7.8 2 3 2.9 4.8 2 4.1 7.3 6.7 13.5 6.7 4.1 0 5.2-.5 8-3.3 1.7-1.8 3.9-4.7 4.8-6.5 1.9-3.5 4.2-4.1 7-1.5 2.6 2.4 2.2 5.5-1.5 10.9-6.2 8.9-18.7 12.9-28.1 9-4.6-1.9-10.4-7.3-12.7-11.7-2.3-4.7-2.4-5.7-.2-8.1 2-2.2 4.6-2.3 6.3-.3m72.5-.1c-4.2 6.3 3.8 18.3 14.6 22.1 11.2 4 25-.9 29.9-10.5 3.6-7.1 1.8-14-3.7-14-2.3 0-3.8 1.5-6.2 6.2-.9 1.8-3.2 4.3-5.1 5.6-6.1 4.1-14.5 1.5-18.1-5.6-2.6-5-3.9-6.2-7-6.2-1.9 0-3.4.8-4.4 2.4m7.7.3c.8 1 2.2 3.1 2.9 4.7 2.3 4.8 6.2 7 12.3 7 6.4.1 10-2.1 13.1-7.9 2.8-5.3 4.8-6.4 7.4-4.1 7.1 6.4-5.2 21.3-18.5 22.4-7.3.6-13.1-1.7-18.9-7.6-5.7-5.7-7.6-11.3-5-14.2 2.2-2.5 4.7-2.6 6.7-.3M639 524.3c-2.6 1.3-3.6 5-2.6 9.2.3 1.3 2.6 4.8 5 7.8l4.5 5.4-3.8 3.7c-3.1 3.1-4.4 3.6-8.2 3.6-4.1 0-5-.4-8.2-4.1-3-3.2-4.1-3.9-5.9-3.3-3.8 1.1-4.8 2.5-4.8 6.7 0 3.2.6 4.6 3.5 7.3 7.4 6.9 22.5 7.3 29.7.7 1.7-1.5 2-1.5 4.1.5 7 6.6 22.9 5.3 29.7-2.4 3.5-4.1 4-9.2 1.2-11.7-2.9-2.6-5.7-2-8.9 1.9-5 6.2-15.2 5.6-16.9-1-.4-1.8.5-3.8 4.1-8.4 3.7-4.8 4.7-6.8 4.7-9.8 0-6.2-2.4-7.4-14.6-7.4-6.1 0-11.1.5-12.6 1.3m24.5 1.7c2.9 3.2 2.1 6.6-2.9 13-5.2 6.8-5.7 9.9-2.1 13.5 4.2 4.3 13.3 2.9 17.4-2.5 2.5-3.4 3.7-3.7 6.3-1.3 2.6 2.3 2.2 5.6-.9 9.4-3.7 4.4-9.6 6.9-16.4 6.9-4.5 0-6.4-.6-10.2-3l-4.6-3.1-5.4 3.1c-6.7 3.7-13.9 4.1-20.4.9-8.1-3.9-11-11.1-5.8-14.5 2.5-1.6 2.6-1.6 6.4 2.5 3.5 3.8 4.2 4.1 8.9 4.1 4.6 0 5.7-.4 9.2-3.6 2.2-2 4-4.1 4-4.6 0-.6-1.7-3.1-3.9-5.7-4.7-5.7-6.1-8.3-6.1-11.5 0-4.3 3.3-5.6 14.6-5.6 8.8 0 10.3.3 11.9 2M100.2 411.8c-.9.7-1.2 7.7-1 31.8l.3 30.9h14l.5-15c.6-15.9 1.3-18.4 5.7-20.4 1.6-.7 16.7-1.1 44.4-1.1h42.1l2.9 2.9c2.6 2.7 2.9 3.5 2.9 9.9 0 4.4.5 7.3 1.3 8 .8.6 7.1-.5 20.2-3.7l19-4.6.6-12.5c.4-6.9 1.2-15.1 1.9-18.3.6-3.2.9-6.5.6-7.3-.5-1.2-11.4-1.4-77.3-1.4-42.2 0-77.4.4-78.1.8m154.8 1.9c0 1-.5 3.8-1.1 6.3s-1.4 10.1-1.7 17l-.7 12.5-18.5 4.6c-10.2 2.6-18.8 4.4-19.2 4-.3-.3-.8-4.1-1-8.3-.3-6.4-.7-8.2-2.6-10l-2.3-2.3-42.2-.3c-27.4-.2-43.5.1-45.8.7-5.2 1.6-6.1 4.4-6.8 21.1l-.6 14.5h-12l-.3-29.5c-.1-16.2 0-30 .3-30.7.3-1 16.4-1.3 77.5-1.3 72.7 0 77 .1 77 1.7m55.5 31c-1.1.2-11.2 3.1-22.5 6.3-27.8 8-48 13.2-70 18-10.2 2.2-24.3 5.3-31.5 6.9-16.2 3.6-23.1 6.2-28.1 10.5-3.8 3.3-3.9 3.5-3.8 10.2 0 6.3.5 7.8 5.6 17.9 7 13.8 15 35 28.9 76.2 11 32.9 15.9 45 20.5 51.1 3 3.9 10.9 9.2 13.7 9.2 1 0 7.4-5.5 14.6-12.8 8.4-8.3 15.9-14.8 21.9-18.7 6.5-4.2 9.4-6.7 9.8-8.5 3.3-14.4 5.1-19.6 9.9-29.3 12.4-25 31.8-46.7 56-62.5 7.7-5 14.8-9.7 15.9-10.4 1.8-1.3 1.8-1.6-.4-8.8-4.6-15.4-16.1-43.6-20.2-49.3-3.7-5.2-12.5-7.8-20.3-6m14 2.6c2.6 1.4 5.2 4.2 7.3 7.7 3.5 5.9 14.1 32 17.9 44 2.2 7.1 2.3 7.6.6 8.8-1 .7-7.9 5.2-15.3 10.1-33 21.6-58.1 55-64.8 86.1l-1.7 8-10 6.7c-6.5 4.4-14.3 11.2-22.2 19-6.7 6.8-12.7 12.3-13.3 12.3-2 0-9.8-5.9-12.4-9.3-5.1-6.8-10.1-19.1-20.6-50.1-14-41.5-22.8-65-29.5-78.8-6.5-13.1-7.1-17.8-2.9-22.7 4-4.8 13.5-8.8 28.4-12.1 7.4-1.6 21.8-4.8 32-7 22-4.8 42.2-10 70-18 11.3-3.2 21.4-6.1 22.5-6.3 5.1-1.1 10.2-.5 14 1.6"/><path d="m124.2 461.7.3 12.8 15.9.3 15.9.3 8.1-3.5c6.8-2.9 16.6-5.5 34.4-9.1l3.2-.7V449h-78.1zm76.8-6.2c0 4.9-.3 5.5-2.2 6-1.3.2-7.7 1.6-14.3 3.1-11.7 2.5-23.6 6.4-26.1 8.4-.7.7-7.4.9-17 .8l-15.9-.3-.3-11.8-.3-11.7H201zM99.4 486.3c-.2.7-.3 6.9-.2 13.8l.3 12.4 23.4.3c14.1.1 23.8-.1 24.4-.7s.3-2.4-.8-4.8c-2-4.1-2.5-13.5-1.1-19.1l.9-3.2h-23.2c-18.1 0-23.3.3-23.7 1.3m45.1 1.9q-2.55 8.7.3 17.1c1.4 4.1 1.6 6 .8 6.3-.6.2-11 .3-23.1.2l-22-.3-.3-11.4c-.1-6.3 0-12.1.2-12.8.4-1 5.3-1.3 22.7-1.3h22.1zM99 535.5c0 7.9.4 12.5 1 12.5s3.3-1.1 6-2.5c11.8-6 34-11.5 46.2-11.5 2.6 0 5-.4 5.3-1 .3-.5-.3-3-1.4-5.5l-2-4.5H99zm56.1-7.5c1 1.9 1.5 3.8 1.2 4.2-.2.5-2.3.8-4.6.8-11.6 0-37 6.3-46.6 11.6-2.4 1.3-4.5 2.4-4.7 2.4s-.4-5.2-.4-11.5V524l26.7.2 26.8.3zm-7.1 16.6c-11.7 1.8-17.4 3-25.8 5.4-5.3 1.6-8.7 2.9-7.6 2.9 1.2.1 4.1-.6 6.5-1.5 12.8-4.6 38.4-7.9 40.5-5.3 1.4 1.7 11.4 29.8 21.9 61.4 9.2 27.5 12.9 35.6 19.6 43 2.9 3 5 5.7 4.8 5.9-.2.1-4.4 2.9-9.4 6.1-4.9 3.2-12.4 9.2-16.6 13.4l-7.6 7.6-.7-31c-.8-35.3-1.7-45.9-5.2-56.5-3.3-9.7-6.5-15.2-13.2-22.3-6.7-6.9-13.6-11.7-21.7-14.7-8.4-3.1-18.7-5.2-19.9-4-.7.7.6 1 3.4 1 6 0 19.3 4.8 26.2 9.4 13 8.6 23.1 23.3 26.4 38.3 1.6 7.5 3.3 40.8 3.4 65.5 0 8.7.4 15.8.8 15.8.5 0 4.7-3.7 9.3-8.3 4.6-4.5 12.3-10.7 17.1-13.7s8.8-6.1 8.8-6.9c0-.7-2.3-3.8-5-6.8-7.1-7.8-11.3-17.3-23.4-53.3-5.8-17.3-12.3-36-14.3-41.5l-3.8-10-6-.1c-3.3-.1-7.1 0-8.5.2m760.2 14.9c-20.6 4.5-36.5 19.4-41.6 39-2.4 9.6-2.6 15-3 97-.4 78-.4 78-2.6 83.9-2.9 7.5-9.4 14.6-16.3 17.7l-5.2 2.4-268.7.3c-147.9.1-268.8.4-268.8.6 0 .3 1.4 3.9 3.1 8.1 4.8 12.2 6.2 20.2 5.6 34-.3 7.8-1.3 14.5-2.6 19.2-1.2 4-2.1 7.5-2.1 7.8 0 .9 523.6.4 555-.5 32.6-1 40.7-1.8 51-5.2 11.4-3.7 18.1-7.7 25.5-15.2 13.9-14 19.3-31.1 24.4-77.1 4.2-37.1 5.4-63.5 5.5-118.5.1-47.3-.1-53.1-1.7-58.9-5.1-18.5-17.1-30.4-34.9-34.6-7.6-1.8-14.3-1.8-22.6 0m21 .6c13.1 2.8 26.4 13.1 32.2 25.1 5.4 11 5.9 18 5.3 72.8-.8 73.5-5.2 126.8-12.8 157.5-6.4 25.5-23.4 43.1-47.4 48.9-15.7 3.9-18.7 3.9-313.4 4.3-261.8.4-286.3.3-285.7-1.2 3.1-8.3 4.1-14.8 4-29 0-13.7-.3-15.7-2.8-23.5-1.6-4.7-3.5-9.7-4.2-11.2L303 801l268.2-.2 268.3-.3 5.6-2.3c7.7-3.1 13.9-9.8 16.8-18.2 2.2-6.5 2.2-6.9 2.7-84 .2-42.6.6-80.7.9-84.5 1.7-21.5 12.2-37.5 30.8-46.4 11.9-5.8 22-7.3 32.9-5"/><path d="M94.4 566.5c-16.7 5.3-27.9 19.1-32 39.5-1.5 7.6-1.6 14-1.1 63 1 96 5.8 140.7 17.4 165 5 10.3 15 20.4 25.3 25.3 16 7.7 30.2 9.5 81.6 10.4l37.1.6 10.2-6.7c11.3-7.5 15.3-12 17.1-19.6 2.4-10-1.9-22.6-12.6-36.8L232 800h-21.8c-26.8 0-30.1-.7-37.7-8.3-9.3-9.3-8.7-4-9.6-93.7-.5-51.1-1.1-81.3-1.9-86.4-3.6-24.4-16.6-38.9-40.5-45.1-7-1.8-20.4-1.8-26.1 0m25.9 1c7.7 2 18.8 7.7 23.9 12.3s11.2 13.8 13.2 20c3.3 10.1 3.8 20 4.5 98.2.9 90 .4 85.3 9.6 94.6 7.4 7.4 11.7 8.4 38.3 8.4H231l5.4 7.2c6.9 9.3 12.3 20.2 13.1 26.4 1.5 11.1-3.1 18.4-17.6 28l-10.2 6.7-36.6-.6c-39.2-.7-51.7-1.6-65-4.8-18.3-4.3-33.2-15.9-40.9-31.9-11.4-23.8-15.9-67.1-16.9-163-.5-49.1-.4-55.3 1.1-63 4.9-24.2 21.9-39.9 43.1-40 4.5 0 10.6.7 13.8 1.5"/><path d="M203.5 672.3c-16.5 11.4-26.7 23.9-29 35.4l-.7 3.3h13.5c13.1 0 13.5-.1 14.1-2.3.3-1.2.6-3.2.6-4.3 0-4.3 5.1-20.1 9.1-28.2 3.6-7.3 4.2-10.3 2.1-10.2-.4.1-4.7 2.9-9.7 6.3m8-.2c-2.8 4.8-9 23.1-10 29.4-1.5 9.4 0 8.5-14 8.5H175l.6-2.8c1.4-5.8 7.2-15 13.4-21.2 5.5-5.5 24-19.3 24.8-18.5.1.1-.9 2.2-2.3 4.6m490.5-3.9c0 .7 2.8 2.8 6.3 4.6 8.3 4.3 30.3 20.9 39.8 29.9l7.6 7.3 47.5.2c26.1.1 48-.2 48.6-.6 1.3-.8 1.7-7.6.5-7.6-.5 0-3 1.1-5.7 2.5-4.3 2.2-6.2 2.5-15.1 2.5-13 0-17.8-1.5-29.6-9-24.5-15.7-39.8-21-81.6-28.1-20.1-3.4-18.3-3.2-18.3-1.7m16 2.3c38.7 6.1 58.3 12.6 80.3 27 14.5 9.4 16.1 9.9 32.2 10 12.7 0 14.3-.2 17.8-2.2l3.7-2.2v2.4c0 1.3-.5 2.7-1.2 3.1s-22.1.7-47.6.6l-46.5-.2-7.6-7.3c-9.2-8.8-31.1-25.3-40.1-30.3-3.6-1.9-5.4-3.3-4-3s7.2 1.2 13 2.1m-439.9 6.4c-6.4 6.4-12 15.5-15.1 24.6-3.6 10.6-8.3 9.6 42.8 9.3 38.9-.3 44.7-.5 44.7-1.8 0-1.1-2-1.9-7-2.8-23.4-4.3-34.3-8.2-43-15.1-5.4-4.4-11.3-12.5-12.1-16.7-.9-5-3.4-4.4-10.3 2.5m9.8-.6c2.2 7.6 10.5 16.3 20.1 21.2 7.6 3.8 18.7 6.8 37.3 9.9 10.3 1.8.1 2.5-39.8 2.5-35.7.1-43.5-.1-43.5-1.2 0-2.8 3.5-11.3 7.4-18.1 3.7-6.5 14.5-18.6 16.5-18.6.4 0 1.4 1.9 2 4.3m192.1 8.9c0 .9.7 3.3 1.6 5.4 1.6 3.9 1.6 14.6-.1 18.6-.7 1.7 2.9 1.8 66.4 1.8 55.4 0 67.1-.2 67.1-1.3 0-.9-2.2-1.9-5.7-2.7-7.3-1.6-23.9-7.5-36.3-12.9-14.9-6.5-32.3-9.1-66.2-9.8-23.5-.5-26.8-.4-26.8.9m68.9 3.2c8.5 1.5 15.9 3 16.5 3.5 3.2 2.3 30.7 12.6 45.6 16.9 2.5.7-16 1-62.7 1.1l-66.2.1 1-3.2c1.3-4.8 1.1-12-.6-16.8-.8-2.3-1.5-4.5-1.5-4.8 0-.2 11.8-.2 26.3.1 21.8.4 28.8 1 41.6 3.1m-375.5 32.9c-.3.8-.3 13.3-.1 27.8.5 28.7 1 31.6 6.3 35.8 4.9 3.9 11.7 5.1 28.1 5.1 9.2 0 15.3-.4 15.3-1 0-.5-2-4.1-4.5-8-10.8-16.6-16.2-32.2-17.2-49.5-.3-5.5-1.1-10.3-1.7-10.7s-6.6-.8-13.4-.8c-9.3 0-12.4.3-12.8 1.3m26.8 9.7c1.3 19.1 6.4 34.2 17.4 51.2l4.4 6.8h-14.8c-15.7 0-20-.7-25.3-4.3-7-4.7-7.3-6.1-7.6-35.1-.2-14.3-.1-26.6.1-27.3.4-1.1 3.2-1.3 12.8-1.1l12.3.3zM303 721l-43.5.5-.3 2.8c-1 8.8 7.2 27.2 19 42.8 4 5.2 9.6 12.5 12.3 16.2l5 6.6 270.5-.2c257.4-.2 270.7-.3 274.5-2 5.1-2.3 7.2-4.3 9.9-9.2 2-3.8 2.1-5.3 2.1-31v-27h-43.4c-31.7 0-43.5.3-43.8 1.1-.2.7.8 4.6 2.3 8.8 2.3 6.6 2.6 8.7 2.2 16-.4 7.2-.9 9.2-3.4 13.3-5.8 9.3-15.3 13.1-30.2 12-11.8-.9-16.5-3.7-31.7-19.5-17.1-17.7-24.1-22.4-42.9-28.8l-7-2.4h-92.5c-76.3 0-94 .3-100.6 1.5-10.9 2-17.9 1.8-32-.5-13-2.1-24.8-2.2-126.5-1m126.5 2c14.1 2.3 21.1 2.5 32 .5 6.6-1.2 24.3-1.5 100.6-1.5 90.2 0 92.7.1 98.5 2 17.1 5.8 26.9 12.4 41 27.5 12.9 13.6 18.6 17.9 27.4 20.1 7.3 1.8 18.5 1.5 26-.7 13.8-4.1 19.8-22.3 13.5-40.9-1.4-4-2.5-7.6-2.5-7.9s19.2-.6 42.8-.6h42.7v53l-2.7 4.1c-3.6 5.5-7.5 8.2-13.9 9.4-3.3.6-99.9 1-271.8 1l-266.6-.1-5-6.6c-2.7-3.7-8.3-11-12.3-16.2-4-5.3-9.8-14.6-12.8-20.6-4.6-9.3-5.5-12-5.7-17l-.2-6 43-.5c100.7-1.2 113-1.1 126 1M2 874.9c1.4.3 25.7.4 54 .1l51.5-.6-54-.1c-29.7 0-52.9.2-51.5.6m931.5-.2c34.8.7 90.2.7 89.2.1-.7-.4-24.1-.7-52.2-.6-28 .1-44.7.4-37 .5m-790.1 8.1c-.3 2-3.1 15.5-6.1 30-3 14.4-5.3 27.9-5.1 29.9.3 3.3.7 3.8 3.8 4.6 1.9.5 6.3.7 9.8.4 7.1-.5 10-2.5 13.2-8.7 3.1-6.1 20.1-57.3 19.3-58-.4-.4-8.3-1-17.5-1.3l-16.7-.6zm33.3-1.3c.9.3-1.4 8.2-7.3 25.7-12.5 36.7-13.9 38.9-24.7 39.6-8.6.5-11.7-.8-11.7-5 0-1.8 2.5-15.4 5.6-30.3 3-14.8 5.7-28 6-29.2.4-2.2.5-2.2 15.7-1.7 8.3.3 15.8.7 16.4.9m675.3-1.6c-5.8.5-6.5.8-6.2 2.6.4 2 12.4 41 16.1 51.9 1.2 3.7 3.3 7.2 5.5 9.5 3.6 3.6 3.7 3.6 12 3.6 5.6 0 8.8-.5 9.9-1.4 2.7-2.2 2-10-3.1-39.6l-4.7-27-11.5-.1c-6.3 0-14.4.2-18 .5m28.4.9c1 1.6 9.6 54 9.6 58.4 0 6-1.6 7.2-10.1 7.6l-6.9.4-4.4-4.3c-4.1-4.1-4.8-5.7-10.4-23.4-3.4-10.5-7.4-23.3-9-28.5l-2.9-9.5 6.1-.6c9.7-.9 27.4-1 28-.1"/></g></svg>