<?xml version="1.0" encoding="UTF-8"?>
<!-- Generator: visioncortex VTracer 0.6.4 -->
<svg version="1.1" xmlns="http://www.w3.org/2000/svg" width="1024" height="1024">
<path d="M0 0 C337.92 0 675.84 0 1024 0 C1024 259.71 1024 519.42 1024 787 C1006.51 787 989.02 787 971 787 C971.62 781.06 972.24 775.12 972.88 769 C974.18 756.09 975.38 743.2 976.19 730.25 C976.26 729.12 976.33 727.98 976.4 726.81 C976.63 722.88 976.82 718.94 977 715 C977.04 714.1 977.08 713.2 977.13 712.28 C978.06 691.76 978.22 671.26 978.24 650.73 C978.25 646.13 978.27 641.54 978.3 636.94 C978.32 633.33 978.32 629.72 978.32 626.11 C978.33 624.41 978.33 622.72 978.35 621.02 C978.44 608.85 977.74 597.15 973.82 585.51 C971.01 578.2 967.29 571.79 962.16 565.88 C957.61 561.1 952.81 557.14 947 554 C943.05 552.15 939.05 550.4 935.03 548.71 C934.27 548.39 933.51 548.07 932.72 547.73 C932.03 547.45 931.34 547.16 930.62 546.87 C930.09 546.58 929.55 546.29 929 546 C928.67 545.34 928.34 544.68 928 544 C928.93 541.68 928.93 541.68 930.31 538.88 C933.62 531.83 935.08 525.5 935.82 517.78 C936.12 513.15 935.92 508.57 935.69 503.94 C935.64 502.94 935.59 501.94 935.55 500.91 C935.2 494.12 934.54 487.41 933.67 480.67 C932.64 472.46 932.56 464.86 934.25 456.75 C935.59 451.85 937.8 447.37 940 442.81 C944.85 432.91 944.85 432.91 947.3 422.23 C947.32 417.8 947.15 413.65 945.94 409.38 C944.29 405.07 941.89 401.55 938.96 398.01 C936.55 395.54 934.06 393.72 931.09 391.97 C927.3 390.21 923.84 389.08 919.67 388.66 C912.91 388.56 912.91 388.56 906.3 389.76 C904.09 390.71 902.06 391.77 900 393 C898.48 393.87 898.48 393.87 896.94 394.75 C891.97 398.55 887.74 402.55 884.11 407.66 C879.42 415.23 876.08 423.35 874 432 C871.41 444.56 870.92 457.23 872 470 C873.31 478.82 875.32 487.47 877.36 496.14 C878.98 503.34 879.83 510.64 879 518 C877.67 522.18 876.02 526.11 874 530 C873.67 530.33 873.34 530.66 873 531 C870.3 531.07 867.63 531.09 864.94 531.06 C864.18 531.06 863.42 531.05 862.64 531.05 C860.76 531.04 858.88 531.02 857 531 C857 529.73 857 528.45 857 527.14 C856.98 515.07 856.94 502.99 856.87 490.91 C856.83 484.71 856.81 478.5 856.8 472.29 C856.8 466.29 856.77 460.29 856.73 454.28 C856.71 452.01 856.71 449.73 856.71 447.45 C856.74 433.28 855.66 420.46 851 407 C847.73 398.01 843.61 389.76 838 382 C836.69 380.52 835.38 379.04 834.06 377.56 C832.43 375.48 832.43 375.48 831 373 C829.89 364.63 831.37 355.71 832.31 347.38 C832.45 346.14 832.59 344.9 832.73 343.63 C834.86 325.09 838.44 307.1 843.01 288.99 C843.68 286.31 844.32 283.63 844.94 280.94 C849.06 263.25 849.06 263.25 853 256 C854.77 254.08 856.35 252.89 858.63 251.62 C861.36 250.47 864.12 249.55 866.96 248.71 C870.42 247.51 873.34 245.54 876.38 243.5 C876.95 243.12 877.53 242.74 878.12 242.35 C883.34 238.87 888.24 235.08 893 231 C893.8 230.33 894.59 229.65 895.41 228.96 C910.41 215.89 922.95 200.37 932.75 183.06 C934.21 180.4 935.61 177.71 937 175 C937.38 174.26 937.76 173.52 938.16 172.76 C946.87 155.71 953.01 137.85 955.69 118.83 C956.92 107.56 957.08 95.71 954.81 84.56 C953.31 79.26 951.19 74.51 948 70 C944.75 66.25 941.29 63.49 937 61 C933.33 59.61 929.84 58.84 925.94 58.62 C919.32 58.83 913.17 60.73 907 63 C897.3 67.05 889.01 72.72 881.28 79.8 C867.46 93.01 857.2 109.27 848.68 126.28 C839.84 144.68 833.59 164.78 831.39 185.12 C830.02 200.47 831 215.6 834.81 230.56 C835.86 234.37 836.99 238.07 838.44 241.74 C838.91 242.94 839.39 244.14 839.88 245.38 C840.33 246.43 840.78 247.49 841.24 248.59 C842 252 842 252 841.8 254.05 C840.56 259.95 838.58 265.69 836.75 271.44 C831.09 289.62 826.98 308.2 824 327 C823.67 327 823.34 327 823 327 C822.21 319.48 821.43 311.96 820.65 304.44 C820.29 300.95 819.93 297.45 819.56 293.96 C819.14 289.94 818.73 285.91 818.31 281.88 C818.18 280.64 818.05 279.4 817.91 278.13 C817.06 269.72 816.47 261.41 817.44 252.98 C817.53 252.14 817.62 251.29 817.71 250.42 C817.81 249.54 817.9 248.66 818 247.75 C820.02 226.87 819.68 206.35 814.52 185.91 C809.24 166.31 801.18 148.06 790.07 131.05 C780.59 117.61 769.54 105.14 756.25 95.38 C746 88.53 735.35 82.88 723.35 79.85 C716.21 78.31 709.23 78.1 702 79 C699 79.83 696.67 80.78 694.01 82.4 C691.28 84.57 689.19 86.78 687.25 89.69 C684.5 94.79 682.6 100.15 681.41 105.82 C679.83 118.11 680.86 130.59 683.46 142.66 C688.1 162.69 696.02 181.85 707.05 199.23 C717.94 215.42 731.07 230.1 746.8 241.7 C760.41 251.43 775.4 258.93 791.45 263.73 C795.93 264.97 800.45 266.03 805 267 C806.55 271.95 807.46 276.71 807.96 281.88 C808.04 282.63 808.12 283.38 808.2 284.16 C808.45 286.63 808.7 289.1 808.95 291.57 C809.12 293.3 809.3 295.02 809.47 296.75 C809.84 300.36 810.21 303.97 810.57 307.58 C811.03 312.2 811.5 316.82 811.97 321.44 C812.34 325 812.7 328.57 813.06 332.13 C813.23 333.83 813.41 335.54 813.58 337.24 C813.82 339.62 814.06 342 814.3 344.38 C814.37 345.08 814.44 345.78 814.51 346.51 C814.86 350.02 815.08 353.47 815 357 C814.17 356.5 813.35 356.01 812.5 355.5 C798.81 347.39 784.6 340.67 768.88 337.59 C751.9 334.56 734.89 334.55 717.7 334.57 C713.55 334.57 709.39 334.55 705.23 334.54 C698.06 334.51 690.88 334.5 683.71 334.5 C673.33 334.49 662.96 334.47 652.59 334.44 C635.75 334.4 618.91 334.37 602.08 334.35 C585.74 334.33 569.4 334.3 553.06 334.26 C552.05 334.26 551.04 334.26 550 334.26 C544.93 334.24 539.86 334.23 534.8 334.22 C492.86 334.13 450.93 334.06 409 334 C409 333.36 409 332.72 409 332.07 C408.94 294.29 408.87 256.51 408.77 218.73 C408.76 214.2 408.75 209.67 408.74 205.14 C408.73 203.78 408.73 203.78 408.73 202.4 C408.7 187.78 408.67 173.15 408.65 158.53 C408.63 143.53 408.59 128.53 408.55 113.53 C408.52 104.27 408.51 95.01 408.5 85.75 C408.5 79.4 408.48 73.06 408.45 66.72 C408.44 63.05 408.43 59.39 408.43 55.72 C408.44 51.76 408.42 47.79 408.4 43.83 C408.4 42.66 408.41 41.49 408.41 40.29 C408.4 39.23 408.39 38.18 408.38 37.09 C408.38 35.71 408.38 35.71 408.38 34.31 C408.25 33.55 408.13 32.79 408 32 C407.61 31.41 407.23 30.82 406.83 30.21 C406.23 29.81 405.62 29.41 405 29 C402.36 28.55 402.36 28.55 399.31 28.62 C397.53 28.61 397.53 28.61 395.7 28.6 C393.73 28.61 393.73 28.61 391.71 28.62 C390.31 28.62 388.9 28.61 387.49 28.6 C383.62 28.59 379.74 28.6 375.87 28.61 C371.69 28.61 367.51 28.6 363.34 28.6 C355.15 28.58 346.97 28.59 338.79 28.59 C332.14 28.6 325.49 28.6 318.84 28.6 C317.89 28.6 316.95 28.6 315.97 28.6 C314.05 28.6 312.13 28.6 310.21 28.59 C292.2 28.59 274.18 28.6 256.16 28.61 C240.69 28.63 225.22 28.62 209.75 28.61 C191.8 28.59 173.85 28.59 155.9 28.6 C153.99 28.6 152.07 28.6 150.16 28.6 C149.22 28.6 148.28 28.6 147.31 28.6 C140.67 28.6 134.02 28.6 127.38 28.59 C119.28 28.58 111.19 28.58 103.1 28.6 C98.97 28.61 94.83 28.61 90.7 28.6 C86.92 28.59 83.15 28.6 79.37 28.61 C77.34 28.62 75.32 28.61 73.3 28.6 C72.11 28.61 70.91 28.61 69.69 28.62 C68.14 28.62 68.14 28.62 66.56 28.62 C65.71 28.75 64.87 28.87 64 29 C62.29 30.23 62.29 30.23 61 32 C60.71 35.05 60.6 37.9 60.63 40.96 C60.62 42.35 60.62 42.35 60.62 43.78 C60.61 46.93 60.62 50.08 60.63 53.24 C60.63 55.51 60.63 57.78 60.63 60.05 C60.62 66.31 60.63 72.58 60.64 78.84 C60.65 84.89 60.65 90.95 60.64 97 C60.63 109.4 60.64 121.79 60.65 134.18 C60.67 151.11 60.66 168.04 60.65 184.96 C60.64 192.85 60.64 200.73 60.63 208.62 C60.63 209.8 60.63 209.8 60.63 211.01 C60.62 229.81 60.62 248.61 60.62 267.41 C60.62 268.64 60.62 268.64 60.62 269.9 C60.62 289.09 60.62 308.28 60.63 327.46 C60.63 329.13 60.63 330.8 60.63 332.46 C60.63 333.29 60.63 334.11 60.63 334.96 C60.64 338.28 60.64 341.61 60.64 344.93 C60.64 346.59 60.64 348.25 60.64 349.91 C60.65 368.66 60.65 387.4 60.64 406.15 C60.64 406.94 60.64 407.73 60.64 408.54 C60.63 416.41 60.63 424.28 60.62 432.15 C60.62 436.03 60.61 439.9 60.61 443.77 C60.61 444.54 60.61 445.3 60.61 446.08 C60.6 458.35 60.61 470.61 60.63 482.87 C60.64 495.2 60.64 507.53 60.62 519.86 C60.61 526.54 60.61 533.22 60.63 539.9 C60.65 546.01 60.65 552.13 60.63 558.25 C60.62 560.46 60.63 562.67 60.64 564.88 C60.74 582.29 60.74 582.29 58.89 587.88 C57.53 591.11 57.53 591.11 56.18 593.7 C54.31 597.34 53.75 601.08 53.21 605.1 C53.09 605.9 52.98 606.71 52.85 607.54 C51.69 616.17 51.58 624.74 51.64 633.44 C51.64 635.15 51.64 636.87 51.63 638.59 C51.63 643.13 51.65 647.66 51.67 652.2 C51.69 655.02 51.7 657.85 51.7 660.67 C51.82 702.93 53.22 744.9 57 787 C38.19 787 19.38 787 0 787 C0 527.29 0 267.58 0 0 Z " fill="#FEE3A6" transform="translate(0,0)"/>
<path d="M0 0 C18.81 0 37.62 0 57 0 C58.32 7.59 59.64 15.18 61 23 C63.94 36.68 68.2 49.01 75.44 61 C78.77 65.94 82.4 70.2 87 74 C94.26 79.18 101.99 83.99 110.62 86.41 C112.22 86.83 113.83 87.23 115.44 87.62 C116.23 87.83 117.03 88.03 117.85 88.24 C123.21 89.6 128.6 90.82 134 92 C131.13 107.19 128.14 122.35 124.97 137.48 C124.73 138.63 124.48 139.79 124.23 140.98 C124.02 142 123.81 143.02 123.58 144.07 C121.83 152.48 121.83 152.48 122 161 C123.43 164.35 123.43 164.35 126 167 C128.29 168.7 130.39 169.76 133 171 C138.62 172.42 144.24 172.28 150 172 C153.76 171.61 153.76 171.61 157 170 C160.13 168 162.54 165.77 165 163 C171.88 152.29 175.16 139.34 179.12 127.38 C180.18 124.21 181.24 121.04 182.3 117.87 C182.96 115.91 183.61 113.95 184.26 111.99 C184.56 111.09 184.86 110.19 185.17 109.26 C185.43 108.48 185.69 107.71 185.95 106.91 C187.52 102.56 189.28 98.29 191 94 C198.92 94 206.84 94 215 94 C214.34 96.31 213.68 98.62 213 101 C212.49 105.07 212.51 108.92 213 113 C214.14 116.77 215.66 119.83 218 123 C220.98 125.95 224.19 128.05 227.89 129.99 C232 131.87 235.99 132.84 240.47 133.2 C246.51 133.31 252 132.72 257.82 131.1 C265.95 128.28 273.48 124.42 280.31 119.19 C285.35 114.9 289.96 110.24 294 105 C294.33 104.13 294.67 103.25 295.01 102.35 C296.32 99.4 296.32 99.4 298.23 96.43 C299.15 95.63 300.06 94.83 301 94 C307.65 91.8 315.21 92.57 322.11 92.68 C324.32 92.67 326.53 92.66 328.74 92.65 C334.81 92.62 340.89 92.67 346.96 92.72 C352.83 92.77 358.71 92.76 364.58 92.75 C376.6 92.73 388.62 92.77 400.63 92.84 C412.53 92.9 424.43 92.94 436.33 92.96 C437.44 92.96 437.44 92.96 438.57 92.96 C442.33 92.96 446.09 92.97 449.84 92.97 C476.45 92.99 503.07 93.07 529.68 93.17 C555.53 93.27 581.38 93.35 607.24 93.4 C608.03 93.4 608.83 93.4 609.65 93.4 C617.65 93.41 625.66 93.43 633.66 93.44 C649.96 93.47 666.26 93.5 682.57 93.53 C683.69 93.54 683.69 93.54 684.84 93.54 C734.89 93.64 784.95 93.81 835 94 C835.22 94.73 835.45 95.45 835.68 96.2 C837.82 103.11 839.96 110 842.12 116.9 C843.23 120.44 844.33 123.99 845.43 127.54 C846.49 130.97 847.56 134.4 848.64 137.83 C849.24 139.75 849.83 141.68 850.42 143.61 C852.8 151.13 855.41 158.51 860 165 C862.83 167.43 865.63 169.4 869 171 C873.42 172.48 877.98 172.26 882.6 172.21 C886.6 171.96 890.12 171.35 893.9 170.06 C896.04 169.09 896.04 169.09 897.69 167.54 C899.43 165.51 900.8 163.39 902 161 C902.98 151.22 900.83 141.47 899.19 131.88 C898.92 130.29 898.66 128.7 898.4 127.11 C897.35 120.79 896.27 114.48 895.13 108.17 C894.99 107.4 894.85 106.63 894.71 105.83 C894.44 104.36 894.18 102.9 893.9 101.44 C893.32 98.2 893 95.3 893 92 C894.8 91.65 894.8 91.65 896.63 91.3 C915.18 87.68 915.18 87.68 932.37 80.04 C938.32 76.39 943.9 72.57 948.34 67.12 C955.88 56.21 961.26 44.96 964.77 32.12 C967.44 21.56 969.11 10.72 971 0 C988.49 0 1005.98 0 1024 0 C1024 78.21 1024 156.42 1024 237 C686.08 237 348.16 237 0 237 C0 158.79 0 80.58 0 0 Z " fill="#D9472F" transform="translate(0,787)"/>
<path d="M0 0 C2.19 0.56 2.19 0.56 5 2 C10.7 6.22 14.36 11.01 18.32 16.88 C19.04 17.97 19.76 19.06 20.5 20.19 C21.58 21.8 21.58 21.8 22.68 23.44 C24.81 26.61 26.91 29.8 29 33 C29.69 34.05 30.38 35.1 31.09 36.18 C31.73 37.17 32.37 38.16 33.03 39.18 C33.6 40.06 34.18 40.94 34.77 41.85 C35.17 42.56 35.58 43.27 36 44 C36 44.66 36 45.32 36 46 C38.84 46.95 40.53 47.12 43.46 47.1 C44.37 47.09 45.27 47.09 46.2 47.09 C47.17 47.08 48.15 47.07 49.15 47.06 C50.16 47.06 51.17 47.05 52.21 47.05 C56.54 47.03 60.86 47.01 65.18 46.98 C68.34 46.96 71.49 46.95 74.65 46.94 C75.66 46.93 76.68 46.93 77.72 46.92 C83.85 46.91 89.76 47.18 95.82 48.17 C96.54 48.12 97.26 48.06 98 48 C101.52 45.16 103.63 41.83 106 38 C106.79 36.8 107.59 35.61 108.39 34.41 C110.11 31.87 111.81 29.31 113.5 26.75 C119.63 17.51 126.22 7.93 135 1 C137.8 0.23 137.8 0.23 140 0 C153.11 21.47 156.17 50.12 161.64 74.3 C161.85 75.22 162.06 76.13 162.28 77.07 C166.29 94.97 166.29 94.97 166.12 104.19 C166.11 105.48 166.09 106.77 166.07 108.11 C166.05 109.06 166.02 110.02 166 111 C165 111.28 164 111.55 162.97 111.84 C161.67 112.21 160.37 112.57 159.06 112.94 C158.4 113.12 157.74 113.3 157.06 113.49 C155.37 113.97 153.68 114.48 152 115 C151.67 115.33 151.34 115.66 151 116 C150.75 118.46 150.75 118.46 151 121 C151.66 121.66 152.32 122.32 153 123 C156.14 123.02 156.14 123.02 159.62 122.62 C160.81 122.51 162 122.4 163.23 122.29 C164.14 122.19 165.06 122.1 166 122 C165.86 123.28 165.71 124.56 165.56 125.88 C165.48 126.59 165.4 127.31 165.32 128.05 C165 130 165 130 164 132 C162.94 131.98 161.88 131.95 160.79 131.93 C159.4 131.91 158.01 131.89 156.62 131.88 C155.93 131.86 155.23 131.84 154.51 131.82 C152.67 131.81 150.83 131.9 149 132 C148.34 132.66 147.68 133.32 147 134 C146.67 135.98 146.34 137.96 146 140 C150.62 140.99 155.24 141.98 160 143 C157.49 149.29 155.01 154.59 150.65 159.82 C146.07 164.67 141.65 168.52 135.62 171.56 C132.13 173.15 128.57 174.59 125 176 C124.96 178 124.96 180 125 182 C125.33 182.33 125.66 182.66 126 183 C127.5 183.29 129 183.54 130.5 183.78 C135.91 184.83 140.17 186.82 144.94 189.5 C146.6 190.4 148.26 191.31 149.92 192.21 C150.76 192.67 151.6 193.14 152.47 193.61 C156.52 195.83 160.6 197.98 164.69 200.12 C165.88 200.75 165.88 200.75 167.11 201.4 C169.4 202.6 171.7 203.8 174 205 C174.63 205.33 175.27 205.66 175.92 206.01 C192.9 214.85 210.56 222.74 228.38 229.75 C240.52 234.59 251.05 241.56 261 250 C261.85 250.64 262.7 251.29 263.57 251.95 C265.99 253.99 267.5 255.85 269.19 258.5 C269.68 259.25 270.16 260.01 270.67 260.78 C273.12 264.86 273.12 264.86 274 267 C274.48 270.71 274.42 274.28 274 278 C273.5 279.13 273.01 280.27 272.5 281.44 C270.26 283.73 268.66 284.91 265.88 286.38 C263.8 287.34 263.8 287.34 262 288 C261.34 288 260.68 288 260 288 C259.9 286.99 259.8 285.97 259.7 284.93 C259.55 283.58 259.4 282.23 259.25 280.88 C259.16 279.88 259.16 279.88 259.06 278.86 C258.83 276.89 258.42 274.94 258 273 C256.23 269.6 256.23 269.6 254 267 C253.13 266.67 252.27 266.34 251.38 266 C250.59 266 249.81 266 249 266 C248.34 266.66 247.68 267.32 247 268 C246.67 271 246.67 271 247 274 C247.66 274.66 248.32 275.32 249 276 C249.2 278.6 249.2 278.6 249.12 281.62 C249.11 282.63 249.09 283.63 249.07 284.66 C249.04 285.82 249.04 285.82 249 287 C244.81 286.21 240.87 285.02 237.12 282.97 C231.42 279.58 225.89 275.9 220.35 272.26 C205.91 263.13 189.5 258.75 173 255 C165.02 253.37 156.98 252.09 148.94 250.81 C146.92 250.48 144.89 250.15 142.87 249.81 C134.9 248.51 126.93 247.21 118.9 246.25 C117.43 246.06 117.43 246.06 115.92 245.88 C114.06 245.66 112.21 245.45 110.35 245.25 C105.96 244.72 102.35 243.89 98.38 241.91 C95.66 240.41 93 238.83 90.45 237.05 C86.09 234.06 81.68 231.16 77.23 228.3 C75.27 227.04 73.33 225.76 71.4 224.47 C70.51 223.89 69.62 223.31 68.7 222.71 C67.92 222.19 67.13 221.67 66.32 221.13 C64.02 219.85 64.02 219.85 61.33 219.71 C60.56 219.8 59.79 219.9 59 220 C58.34 220.66 57.68 221.32 57 222 C56.85 222.78 56.7 223.57 56.55 224.38 C56.7 225.24 56.85 226.11 57 227 C59.14 229.16 59.14 229.16 62.19 231 C62.76 231.38 63.34 231.76 63.93 232.14 C65.94 233.45 67.97 234.73 70 236 C70.75 236.47 71.49 236.95 72.26 237.44 C82.72 244.1 93.36 250.4 104.12 256.56 C120.83 266.14 136.83 276.13 152 288 C152.96 288.74 153.91 289.49 154.9 290.25 C157.29 292.14 159.65 294.06 162 296 C162.74 296.6 163.49 297.19 164.25 297.81 C170.91 303.38 176.23 309.78 181 317 C182.92 320.61 184.2 323.99 185 328 C185.52 332.82 185.6 337.43 184.49 342.17 C183.81 344 183.81 344 182 347 C179.62 349.44 179.62 349.44 177 351 C174.34 351.1 174.34 351.1 172 351 C171.9 350.19 171.8 349.38 171.7 348.55 C171.25 345.33 170.73 342.17 170 339 C169.1 337.39 169.1 337.39 168.19 335.75 C167.47 335.17 166.74 334.6 166 334 C163.41 333.42 163.41 333.42 161 334 C160.34 334.66 159.68 335.32 159 336 C159.25 339.02 159.25 339.02 160 342 C160.33 342.66 160.66 343.32 161 344 C161.04 346.33 161.04 348.67 161 351 C158.56 351.38 158.56 351.38 155 351 C148.49 347.85 143.52 342.73 138.54 337.62 C136.41 335.41 134.28 333.19 132.17 330.96 C123.91 322.27 115.82 315.96 105.07 310.52 C87.73 302.19 68.58 297.47 50.21 291.96 C47.03 291.01 43.85 290.05 40.67 289.08 C39.12 288.62 37.58 288.16 36.03 287.7 C22.86 283.78 9.97 279.31 -2.31 273.06 C-2.98 272.73 -3.64 272.39 -4.32 272.05 C-11.64 268.26 -18.19 264.07 -23.81 258 C-25.38 256.26 -25.38 256.26 -27 255 C-28.45 255.03 -28.45 255.03 -29.94 255.06 C-30.62 255.37 -31.3 255.68 -32 256 C-32.79 258.26 -32.79 258.26 -33 261 C-31.57 263.65 -31.57 263.65 -30 266 C-33.48 265.86 -36.96 265.71 -40.44 265.56 C-41.87 265.5 -41.87 265.5 -43.33 265.44 C-48.53 265.22 -53.73 264.96 -58.93 264.62 C-65.9 264.17 -72.85 263.91 -79.84 263.82 C-80.67 263.81 -81.5 263.8 -82.35 263.79 C-85.74 263.74 -89.13 263.69 -92.52 263.67 C-106.86 263.59 -106.86 263.59 -112.2 262.13 C-114.53 261.18 -116.75 260.13 -119 259 C-121.03 258.37 -123.07 257.78 -125.12 257.25 C-126.06 257.01 -126.99 256.77 -127.95 256.52 C-128.62 256.35 -129.3 256.18 -130 256 C-128.47 252.62 -126.46 249.92 -124.19 247 C-120.01 241.31 -117.32 235.64 -115 229 C-114.68 228.12 -114.36 227.23 -114.03 226.32 C-111.94 219.8 -111.62 213.6 -111.78 206.77 C-112.25 198.77 -113.23 191.43 -116.19 183.94 C-120.05 175.42 -124.23 167.53 -130.69 160.69 C-135.89 155.76 -141.56 152.12 -148 149 C-150.43 147.99 -152.38 147.47 -155 147 C-158.29 146.83 -158.29 146.83 -161 147 C-161.66 148.65 -162.32 150.3 -163 152 C-161.28 154 -159.58 155.67 -157.28 156.98 C-155.26 157.98 -153.23 158.93 -151.19 159.88 C-140.99 164.83 -140.99 164.83 -137.44 168.26 C-131.64 175.27 -127.11 183.46 -124 192 C-122.11 198.77 -121.55 205.67 -121.7 212.68 C-122.23 218.49 -123.76 223.63 -126 229 C-128.1 233.29 -130.38 237.31 -132.97 241.31 C-134.18 243.23 -134.18 243.23 -135.57 246.33 C-137.31 249.38 -137.31 249.38 -139.49 252.05 C-140.97 253.15 -140.97 253.15 -143 254 C-151.13 255.19 -159.39 254.64 -167.55 254.06 C-168.36 254.04 -169.17 254.02 -170 254 C-170.33 254.33 -170.66 254.66 -171 255 C-171.04 257 -171.04 259 -171 261 C-169.38 262.06 -169.38 262.06 -167 263 C-164.37 263.4 -161.8 263.72 -159.16 263.96 C-158.39 264.04 -157.63 264.12 -156.84 264.2 C-153.58 264.54 -150.32 264.86 -147.07 265.17 C-135.53 266.31 -124.35 267.51 -113.62 272.25 C-111.11 273.58 -109.15 274.86 -107.08 276.81 C-105.07 279.1 -103.36 281.27 -102 284 C-101.64 287.7 -101.63 291.3 -102 295 C-102.74 296.52 -102.74 296.52 -103.5 298.06 C-106 300 -106 300 -108.05 300.73 C-110.01 301.25 -112 301.63 -114 302 C-114.17 301.12 -114.34 300.24 -114.52 299.33 C-114.76 298.17 -115 297.01 -115.25 295.81 C-115.48 294.66 -115.71 293.52 -115.95 292.33 C-116.85 288.93 -116.85 288.93 -118.91 286.1 C-119.6 285.41 -120.29 284.71 -121 284 C-124.13 283.5 -124.13 283.5 -127 284 C-127.33 284.33 -127.66 284.66 -128 285 C-128.25 287.87 -128.25 287.87 -128 291 C-127.67 291.63 -127.34 292.26 -127 292.9 C-126.67 293.59 -126.34 294.29 -126 295 C-125.75 298.01 -125.91 300.98 -126 304 C-136.95 303.56 -147.34 302.02 -158.06 299.88 C-160.5 299.4 -162.94 298.93 -165.38 298.45 C-167.06 298.13 -168.73 297.8 -170.41 297.47 C-178.59 295.87 -186.79 294.37 -194.99 292.87 C-199.71 292.01 -204.44 291.14 -209.16 290.26 C-212.92 289.57 -216.69 288.87 -220.45 288.19 C-223.98 287.55 -227.51 286.9 -231.03 286.24 C-232.91 285.89 -234.8 285.55 -236.68 285.22 C-246.03 283.45 -255.32 281.01 -263.77 276.53 C-266.91 274.64 -269.41 272.66 -271.84 269.91 C-273.8 267.36 -275.56 264.87 -277 262 C-277.12 260.04 -277.18 258.08 -277.19 256.12 C-277.2 255.08 -277.22 254.03 -277.23 252.95 C-277 250 -277 250 -276 247.78 C-275.67 247.19 -275.34 246.6 -275 246 C-274.75 243.46 -274.75 243.46 -275 241 C-275.33 240.01 -275.66 239.02 -276 238 C-278.33 237.6 -278.33 237.6 -281 238 C-283.13 240.04 -283.13 240.04 -285 242.81 C-288.51 247.37 -292.1 251.01 -296.56 254.62 C-303.81 260.56 -309.73 266.66 -314.69 274.69 C-318.9 282.2 -322.22 290.55 -324 299 C-324.72 309.76 -325.48 321.73 -322.5 332.19 C-321.41 335.11 -321.41 335.11 -320 338 C-319.73 338.59 -319.45 339.17 -319.17 339.78 C-315.12 348.32 -310.21 355.9 -304.33 363.32 C-282.81 390.47 -282.81 390.47 -277 407 C-276.68 407.9 -276.36 408.79 -276.03 409.71 C-273.38 418.45 -273.3 427.46 -273.78 436.52 C-274.35 442.9 -276.03 448.92 -278 455 C-278.43 456.38 -278.43 456.38 -278.88 457.79 C-281.4 464.89 -285.43 471.05 -290 477 C-296.05 484.06 -302.61 489.68 -310.66 494.34 C-316.7 497.35 -322.79 499.36 -329.46 500.38 C-332.77 500.56 -335.45 500.16 -338.63 499.23 C-342.35 497.87 -345.4 496.48 -348.5 494 C-349.98 492.02 -351.02 490.27 -352 488 C-352.49 485.47 -352.56 483.22 -352.47 480.64 C-352 478 -352 478 -351 475.73 C-348.28 471.8 -345.04 468.95 -341.18 466.17 C-338.44 464.25 -335.65 462.4 -332.84 460.58 C-328.45 457.68 -324.37 454.82 -321.17 450.57 C-319.11 447.02 -317.22 443.53 -315.62 439.75 C-314.46 432.76 -314.44 425.82 -315.46 418.81 C-316.8 412.75 -318.9 407.39 -322.02 402.03 C-326.33 395.44 -331.2 389.24 -336 383 C-346.11 369.83 -354.92 356.71 -360.03 340.79 C-363.66 326.64 -363.84 312.54 -363 298 C-361.9 287.77 -358.38 278.09 -353.97 268.84 C-346.69 254.31 -336.31 241.8 -324.73 230.47 C-317.04 223.51 -308.72 217.24 -299.99 211.63 C-297.89 210.04 -297.89 210.04 -296.32 207.71 C-294.82 204.63 -294.22 201.87 -293.62 198.5 C-291.06 185.89 -285.91 174.85 -279.24 163.93 C-273.45 154.9 -266.34 146.79 -259 139 C-258.29 138.21 -257.58 137.43 -256.85 136.62 C-244.33 123.31 -228.1 113.41 -212 105 C-208.06 103.09 -204.12 101.47 -200 100 C-198.88 99.58 -197.76 99.17 -196.61 98.74 C-176.6 91.64 -155.52 88.62 -134.32 88.7 C-106.44 89.24 -79 95.04 -53 105 C-46.78 107.56 -40.61 110.26 -35 114 C-35 115.32 -35 116.64 -35 118 C-36.28 118.11 -37.55 118.22 -38.87 118.33 C-40.54 118.49 -42.21 118.65 -43.88 118.81 C-45.14 118.92 -45.14 118.92 -46.43 119.03 C-47.23 119.11 -48.04 119.19 -48.87 119.27 C-49.61 119.34 -50.35 119.41 -51.12 119.48 C-51.74 119.65 -52.36 119.82 -53 120 C-53.66 120.99 -54.32 121.98 -55 123 C-54.76 125.61 -54.76 125.61 -54 128 C-53.67 128.33 -53.34 128.66 -53 129 C-51.37 129.09 -49.73 129.11 -48.09 129.1 C-47.1 129.09 -46.11 129.09 -45.09 129.09 C-44.05 129.08 -43.01 129.07 -41.94 129.06 C-40.89 129.06 -39.85 129.05 -38.77 129.05 C-36.18 129.04 -33.59 129.02 -31 129 C-28.69 134.28 -26.38 139.56 -24 145 C-29.7 148.07 -35.38 150.23 -41.56 152.17 C-42.36 152.44 -43.17 152.72 -44 153 C-44.33 153.33 -44.66 153.66 -45 154 C-45.04 156.33 -45.04 158.67 -45 161 C-42.73 161.66 -42.73 161.66 -40 162 C-37.52 161.5 -37.52 161.5 -35.06 160.53 C-34.15 160.21 -33.23 159.88 -32.29 159.55 C-31.35 159.2 -30.41 158.86 -29.44 158.5 C-27.56 157.81 -25.69 157.14 -23.81 156.47 C-22.57 156.01 -22.57 156.01 -21.3 155.54 C-20.54 155.37 -19.78 155.19 -19 155 C-16.82 155.29 -16.82 155.29 -15 156 C-13.03 157.82 -13.03 157.82 -10.94 160.12 C-6.83 164.37 -2.53 167.59 2.42 170.79 C4.94 172.13 4.94 172.13 7.7 172.37 C8.84 172.19 8.84 172.19 10 172 C10.66 171.01 11.32 170.02 12 169 C12.09 166.46 12.09 166.46 11 164 C8.66 162.09 8.66 162.09 5.75 160.56 C0.41 157.39 0.41 157.39 -1.84 155.22 C-2.95 153.86 -3.99 152.43 -5 151 C-1.04 149.35 2.92 147.7 7 146 C7 144.02 7 142.04 7 140 C6.34 139.34 5.68 138.68 5 138 C0.77 137.9 -3.3 138.78 -7.31 140.06 C-8.2 140.37 -9.09 140.68 -10 141 C-11.32 141 -12.64 141 -14 141 C-15.98 137.04 -17.96 133.08 -20 129 C-18.44 128.95 -16.87 128.9 -15.26 128.85 C-13.21 128.78 -11.17 128.7 -9.12 128.62 C-7.58 128.58 -7.58 128.58 -6 128.53 C-5.01 128.49 -4.02 128.45 -3.01 128.41 C-2.1 128.38 -1.19 128.35 -0.25 128.32 C0.87 128.16 0.87 128.16 2 128 C2.66 127.34 3.32 126.68 4 126 C3.91 123.46 3.91 123.46 3 121 C2.01 120.34 1.02 119.68 0 119 C-2.51 118.54 -2.51 118.54 -5.32 118.37 C-6.87 118.24 -6.87 118.24 -8.44 118.11 C-9.51 118.03 -10.58 117.96 -11.69 117.88 C-13.31 117.75 -13.31 117.75 -14.97 117.61 C-17.65 117.4 -20.32 117.2 -23 117 C-24.17 113.91 -24.98 111.18 -25.29 107.89 C-25.28 98.94 -24.16 90.51 -22.44 81.75 C-22.17 80.32 -21.9 78.9 -21.63 77.47 C-20.92 73.74 -20.19 70.01 -19.45 66.28 C-19 64 -18.55 61.72 -18.11 59.44 C-8.95 12.58 -8.95 12.58 -2 1 C-1.34 0.67 -0.68 0.34 0 0 Z " fill="#FDB01F" transform="translate(575,410)"/>
<path d="M0 0 C4.5 0 9.01 -0 13.51 -0.01 C22.31 -0.02 31.11 -0.01 39.9 -0.01 C47.06 -0 54.22 -0 61.38 -0.01 C62.91 -0.01 62.91 -0.01 64.48 -0.01 C66.56 -0.01 68.64 -0.01 70.72 -0.01 C90.17 -0.01 109.62 -0.01 129.07 0 C145.71 0.01 162.35 0.01 178.99 0 C198.37 -0.01 217.75 -0.01 237.13 -0.01 C239.21 -0.01 241.28 -0.01 243.35 -0.01 C244.37 -0.01 245.39 -0.01 246.44 -0.01 C253.58 -0 260.71 -0.01 267.85 -0.01 C276.57 -0.02 285.28 -0.02 294 -0 C298.44 0 302.87 0 307.31 -0 C362.65 -0.08 362.65 -0.08 387.73 8.69 C398.2 12.79 407.77 18.81 416.25 26.16 C417.01 26.85 417.78 27.55 418.57 28.26 C419.51 29.09 419.51 29.09 420.48 29.93 C428.01 36.89 433.55 46 438.32 55.01 C443.02 64.92 446.3 75.08 447.46 86.02 C448.96 102.4 448.83 118.78 448.76 135.22 C448.75 138.45 448.75 141.69 448.75 144.92 C448.75 148.1 448.75 151.27 448.74 154.44 C448.74 155.93 448.73 157.42 448.73 158.91 C448.72 169.06 448.3 179.13 447.57 189.26 C446.89 189.5 446.22 189.73 445.52 189.97 C440.9 191.62 436.87 193.5 432.94 196.45 C427.43 201.03 422.61 205.9 418.87 212.05 C413.5 222.27 410.55 232.79 408.99 244.19 C408.12 251.8 408.09 259.48 407.94 267.14 C407.9 268.81 407.86 270.48 407.82 272.15 C407.73 276.19 407.64 280.22 407.57 284.26 C401.74 282.41 396.13 280.34 390.57 277.82 C389.81 277.48 389.05 277.15 388.27 276.8 C366.07 266.75 343.78 256.29 322.57 244.26 C322.57 243.6 322.57 242.94 322.57 242.26 C323.86 241.21 325.2 240.22 326.57 239.26 C331.87 235.21 335.85 230.8 339.57 225.26 C342.44 220.37 345.02 215.33 347.57 210.26 C352.41 210.8 356.93 211.51 361.63 212.82 C365.01 213.7 368.19 214.49 371.69 214.57 C373.11 214.42 373.11 214.42 374.57 214.26 C375.23 213.6 375.89 212.94 376.57 212.26 C376.24 209.16 376.24 209.16 375.57 206.26 C367.6 203.77 359.63 201.41 351.57 199.26 C352.23 194.31 352.89 189.36 353.57 184.26 C357.21 183.05 360.28 182.03 363.95 181.33 C364.72 181.18 365.5 181.02 366.3 180.86 C367.9 180.54 369.5 180.24 371.11 179.94 C373.32 179.48 375.43 179.01 377.57 178.26 C380.08 176.32 380.08 176.32 381.57 174.26 C380.91 172.61 380.25 170.96 379.57 169.26 C372.97 168.87 367.15 170.09 360.74 171.61 C357.57 172.26 357.57 172.26 353.57 172.26 C353.46 171.16 353.36 170.05 353.25 168.92 C352.19 158.2 350.43 147.87 348 137.39 C347.65 135.84 347.3 134.29 346.95 132.75 C345.84 127.91 344.71 123.09 343.57 118.26 C343.38 117.46 343.19 116.66 343 115.83 C337.78 93.15 337.78 93.15 330.88 70.95 C330.63 70.24 330.38 69.53 330.12 68.8 C328.72 65.16 326.99 62.34 324.48 59.34 C323.55 58.28 322.58 57.25 321.57 56.26 C320.91 55.93 320.25 55.6 319.57 55.26 C316.71 55.02 314.38 54.93 311.57 55.26 C308.52 56.11 306.15 57.45 303.57 59.26 C289.72 70.6 280.25 87.44 270.57 102.26 C269.25 102.12 269.25 102.12 267.91 101.98 C260.72 101.34 254.09 101.29 246.93 102.22 C239.22 103.09 231.47 103.83 223.76 102.61 C221.59 102.07 221.59 102.07 219.57 101.26 C216.34 99.03 214.07 96.25 211.78 93.1 C208.35 87.98 205.51 82.52 202.76 77.01 C199.18 70.05 194.3 64.58 188.57 59.26 C185.8 57.24 183.88 56.37 180.57 55.26 C176.98 54.59 176.98 54.59 173.57 55.26 C170.3 56.66 170.3 56.66 167.57 59.26 C163.08 65.38 160.47 71.99 158.23 79.2 C152.53 99.04 148.98 119.62 145.13 139.89 C144.88 141.18 144.63 142.47 144.38 143.8 C143.05 150.94 142.06 158.01 141.57 165.26 C136.07 164.65 131.54 162.71 126.5 160.57 C103.73 151.26 79.16 145.69 54.57 144.26 C28.39 143.26 3.69 145.73 -21.43 153.26 C-25.1 154.49 -28.68 155.87 -32.24 157.38 C-32.96 157.67 -33.69 157.96 -34.43 158.26 C-35.09 158.26 -35.75 158.26 -36.43 158.26 C-36.66 157.42 -36.89 156.58 -37.12 155.71 C-42.27 137.13 -48.49 116.32 -59.43 100.26 C-61.85 97.37 -64.2 95.2 -67.43 93.26 C-71.17 91.36 -74.74 90.48 -78.89 89.95 C-89.67 89.43 -100.09 93.25 -110.29 96.31 C-111.5 96.67 -112.7 97.03 -113.95 97.4 C-116.37 98.13 -118.79 98.87 -121.21 99.62 C-122.89 100.13 -122.89 100.13 -124.6 100.65 C-125.61 100.96 -126.61 101.27 -127.64 101.59 C-130.36 102.24 -132.66 102.39 -135.43 102.26 C-134.97 88.52 -134.29 74.86 -129.12 61.95 C-128.25 60.04 -127.36 58.14 -126.43 56.26 C-125.99 55.35 -125.55 54.44 -125.09 53.5 C-120.11 43.82 -113.61 34.7 -105.7 27.19 C-96.38 19.26 -85.78 12.84 -74.43 8.26 C-71.05 7.02 -67.64 5.92 -64.18 4.89 C-63.41 4.65 -62.64 4.41 -61.85 4.16 C-41.96 -1.37 -20.45 -0.03 0 0 Z " fill="#24888A" transform="translate(398.43414652347565,344.7385506629944)"/>
<path d="M0 0 C6.24 1.38 11.82 3.46 17.34 6.68 C22.2 10.06 26.26 13.96 30.01 18.54 C33.73 24.2 35.73 30.28 37.43 36.8 C38.64 42.52 39.14 48.05 39.15 53.89 C39.16 54.59 39.16 55.29 39.16 56.01 C39.17 58.33 39.17 60.64 39.18 62.96 C39.18 64.6 39.18 66.24 39.19 67.88 C39.2 73.16 39.2 78.44 39.2 83.73 C39.2 84.62 39.2 85.52 39.19 86.44 C39.19 113.39 39 140.27 37.17 167.17 C37 169.61 36.84 172.06 36.68 174.51 C31.85 247.49 31.85 247.49 20.6 273.38 C16.89 280.74 12.12 287.03 6.17 292.73 C-0.02 297.91 -7.43 301.76 -14.99 304.54 C-33.01 310.53 -53.11 309.9 -71.87 310.16 C-74.25 310.19 -76.63 310.23 -79 310.27 C-103.1 310.64 -127.2 310.68 -151.31 310.66 C-157.66 310.65 -164.02 310.65 -170.37 310.65 C-181.31 310.65 -192.25 310.65 -203.19 310.64 C-214.63 310.64 -226.06 310.64 -237.5 310.63 C-238.22 310.63 -238.94 310.63 -239.68 310.63 C-243.33 310.63 -246.98 310.63 -250.63 310.63 C-276.31 310.63 -301.99 310.62 -327.66 310.61 C-352.56 310.61 -377.46 310.6 -402.36 310.59 C-403.13 310.59 -403.91 310.59 -404.7 310.59 C-412.45 310.59 -420.2 310.59 -427.94 310.59 C-443.72 310.59 -459.49 310.58 -475.27 310.58 C-475.99 310.58 -476.72 310.58 -477.46 310.58 C-525.64 310.57 -573.82 310.56 -621.99 310.54 C-621.81 309.73 -621.81 309.73 -621.63 308.9 C-621.09 306.41 -620.56 303.92 -620.03 301.43 C-619.84 300.58 -619.65 299.73 -619.46 298.85 C-618.1 292.48 -617.36 286.38 -617.49 279.85 C-617.5 278.89 -617.51 277.93 -617.52 276.94 C-617.75 268.39 -619.19 260.64 -621.99 252.54 C-623 250.02 -624.04 247.57 -625.26 245.14 C-625.5 244.61 -625.74 244.08 -625.99 243.54 C-625.99 242.88 -625.99 242.22 -625.99 241.54 C-624.86 241.54 -623.74 241.54 -622.57 241.54 C-572.86 241.51 -523.15 241.48 -473.44 241.42 C-472.31 241.42 -472.31 241.42 -471.16 241.42 C-454.8 241.4 -438.44 241.38 -422.09 241.36 C-414.06 241.35 -406.04 241.34 -398.02 241.33 C-396.82 241.33 -396.82 241.33 -395.6 241.33 C-369.73 241.3 -343.86 241.28 -317.99 241.27 C-291.4 241.25 -264.81 241.23 -238.22 241.19 C-234.47 241.18 -230.71 241.18 -226.95 241.17 C-226.21 241.17 -225.47 241.17 -224.71 241.17 C-212.82 241.15 -200.92 241.15 -189.03 241.15 C-177.06 241.15 -165.1 241.14 -153.14 241.11 C-146.66 241.09 -140.18 241.08 -133.7 241.09 C-127.77 241.1 -121.83 241.09 -115.9 241.07 C-113.75 241.06 -111.61 241.06 -109.46 241.07 C-96.75 241.31 -96.75 241.31 -84.41 238.7 C-81.16 237.31 -78.43 235.55 -75.62 233.41 C-72.71 230.66 -70.87 227.85 -69.05 224.29 C-67.88 221.72 -66.89 219.22 -65.99 216.54 C-65.84 214.2 -65.74 211.87 -65.67 209.53 C-65.65 208.8 -65.63 208.08 -65.61 207.33 C-65.54 204.88 -65.48 202.42 -65.43 199.96 C-65.4 199.1 -65.38 198.24 -65.36 197.34 C-64.97 181.09 -64.93 164.84 -64.96 148.58 C-64.97 146.77 -64.97 146.77 -64.97 144.91 C-65 133.63 -65.04 122.34 -65.09 111.05 C-65.12 104.8 -65.13 98.54 -65.14 92.28 C-65.15 89.94 -65.16 87.6 -65.17 85.25 C-65.39 49.5 -65.39 49.5 -60.18 34.46 C-57.76 28.5 -55.08 23.13 -51.03 18.1 C-46.32 13.06 -41.15 9.36 -35.12 6.04 C-23.96 0.68 -12.33 -1.9 0 0 Z " fill="#24888A" transform="translate(928.9921875,559.4609375)"/>
<path d="M0 0 C7.92 0 15.84 0 24 0 C23.34 2.31 22.68 4.62 22 7 C21.49 11.07 21.51 14.92 22 19 C23.14 22.77 24.66 25.83 27 29 C29.98 31.95 33.19 34.05 36.89 35.99 C41 37.87 44.99 38.84 49.47 39.2 C55.51 39.31 61 38.72 66.82 37.1 C74.95 34.28 82.48 30.42 89.31 25.19 C94.35 20.9 98.96 16.24 103 11 C103.5 9.69 103.5 9.69 104.01 8.35 C105.32 5.4 105.32 5.4 107.23 2.43 C108.15 1.63 109.06 0.83 110 0 C116.65 -2.2 124.21 -1.43 131.11 -1.32 C133.32 -1.33 135.53 -1.34 137.74 -1.35 C143.81 -1.38 149.89 -1.33 155.96 -1.28 C161.83 -1.23 167.71 -1.24 173.58 -1.25 C185.6 -1.27 197.62 -1.23 209.63 -1.16 C221.53 -1.1 233.43 -1.06 245.33 -1.04 C246.44 -1.04 246.44 -1.04 247.57 -1.04 C251.33 -1.04 255.09 -1.03 258.84 -1.03 C285.45 -1.01 312.07 -0.93 338.68 -0.83 C364.53 -0.73 390.38 -0.65 416.24 -0.6 C417.03 -0.6 417.83 -0.6 418.65 -0.6 C426.65 -0.59 434.66 -0.57 442.66 -0.56 C458.96 -0.53 475.26 -0.5 491.57 -0.47 C492.69 -0.46 492.69 -0.46 493.84 -0.46 C543.89 -0.36 593.95 -0.19 644 0 C644.34 1.09 644.34 1.09 644.68 2.2 C646.82 9.11 648.96 16 651.12 22.9 C652.23 26.44 653.33 29.99 654.43 33.54 C655.49 36.97 656.56 40.4 657.64 43.83 C658.24 45.75 658.83 47.68 659.42 49.61 C661.81 57.15 664.48 64.44 669 71 C671.22 72.96 673.48 74.4 676 76 C677.44 78.31 677.44 78.31 678 80 C675.97 81.13 674.24 81.95 671.95 82.38 C671.22 82.44 670.48 82.5 669.73 82.56 C668.87 82.63 668.02 82.71 667.14 82.78 C666.2 82.85 665.26 82.92 664.29 83 C663.29 83.08 662.29 83.16 661.25 83.24 C647.69 84.31 634.1 85.13 620.51 85.93 C618.28 86.06 616.05 86.2 613.82 86.33 C593.14 87.56 572.48 88.56 551.77 88.92 C546.68 89.03 541.6 89.2 536.52 89.37 C502.19 90.53 467.86 91.08 433.52 91.52 C432.66 91.53 431.8 91.54 430.92 91.55 C390.76 92.06 350.59 92.2 310.43 92.19 C307.72 92.19 305.01 92.19 302.3 92.19 C240.32 92.19 178.37 91.74 116.41 90.06 C114.12 90 111.83 89.94 109.53 89.88 C80.06 89.11 50.63 87.62 21.19 86 C20.04 85.94 20.04 85.94 18.86 85.87 C10.23 85.4 1.6 84.9 -7.03 84.37 C-11.63 84.08 -16.23 83.82 -20.84 83.57 C-23.23 83.42 -25.62 83.27 -28.01 83.12 C-29.65 83.04 -29.65 83.04 -31.32 82.96 C-32.31 82.89 -33.3 82.83 -34.32 82.76 C-35.61 82.68 -35.61 82.68 -36.93 82.61 C-37.61 82.41 -38.3 82.21 -39 82 C-40.29 79.95 -40.29 79.95 -41 78 C-40.01 77.81 -39.02 77.63 -38 77.44 C-35.74 76.77 -33.97 75.98 -31.96 74.73 C-29.03 72.4 -26.62 69.97 -24.59 66.8 C-19.11 56.14 -15.63 44.73 -11.88 33.38 C-10.82 30.21 -9.76 27.04 -8.7 23.87 C-8.04 21.91 -7.39 19.95 -6.74 17.99 C-6.44 17.09 -6.14 16.19 -5.83 15.26 C-5.57 14.48 -5.31 13.71 -5.05 12.91 C-3.48 8.56 -1.72 4.29 0 0 Z " fill="#B33730" transform="translate(191,881)"/>
<path d="M0 0 C3.03 -0.01 6.06 -0.03 9.09 -0.05 C37.34 -0.26 37.34 -0.26 51.36 2.55 C58.22 3.74 65.35 3.9 72.28 3.23 C73.99 2.91 75.69 2.57 77.4 2.23 C85.79 0.82 94.15 0.92 102.65 0.91 C104.47 0.9 106.3 0.89 108.13 0.88 C113.06 0.85 118 0.84 122.93 0.83 C126.02 0.83 129.11 0.82 132.21 0.81 C141.9 0.78 151.6 0.76 161.29 0.75 C172.44 0.75 183.59 0.71 194.74 0.65 C203.39 0.61 212.03 0.59 220.68 0.59 C225.84 0.58 230.99 0.57 236.14 0.54 C240.99 0.5 245.84 0.5 250.69 0.52 C252.45 0.52 254.22 0.51 255.99 0.49 C263.08 0.41 269.95 0.37 276.78 2.51 C280.7 3.9 284.49 5.51 288.28 7.23 C289.43 7.75 290.58 8.27 291.77 8.8 C301.3 13.22 308.52 19.33 315.9 26.67 C319.42 30.2 322.8 33.76 325.97 37.61 C329.79 42.06 334.2 45.33 339.28 48.23 C342.59 49.81 345.65 50.69 349.28 51.23 C356.56 51.76 363.79 51.93 370.9 50.04 C373.77 49.01 376.21 47.81 378.65 45.98 C381.66 42.83 383.36 40.14 385.28 36.23 C387.04 31.03 386.73 25.24 386.65 19.81 C386.36 14.08 384.63 9.22 382.44 3.96 C382.06 3.06 381.68 2.16 381.28 1.23 C398.9 0.02 416.52 0.11 434.18 0.16 C438.15 0.17 442.11 0.18 446.08 0.18 C453.82 0.19 461.55 0.21 469.28 0.23 C469.33 6.9 469.37 13.57 469.39 20.25 C469.4 22.51 469.41 24.78 469.43 27.05 C469.46 30.31 469.47 33.58 469.48 36.85 C469.49 37.86 469.5 38.86 469.51 39.89 C469.51 45.88 469.1 51.5 467.28 57.23 C465.53 60.54 465.53 60.54 463.28 63.23 C460.65 65.48 460.65 65.48 457.28 67.23 C450.79 69.01 444.42 69.53 437.72 69.51 C436.35 69.52 436.35 69.52 434.96 69.53 C431.91 69.55 428.87 69.55 425.83 69.55 C423.62 69.56 421.41 69.57 419.2 69.58 C413.14 69.61 407.08 69.63 401.02 69.64 C395.15 69.65 389.29 69.68 383.42 69.7 C366.97 69.76 350.51 69.8 334.06 69.84 C329.6 69.85 325.15 69.86 320.69 69.87 C293.01 69.93 265.34 69.98 237.66 70.02 C231.25 70.03 224.85 70.03 218.44 70.04 C217.65 70.04 216.85 70.04 216.03 70.05 C190.21 70.08 164.39 70.16 138.58 70.26 C112.02 70.36 85.47 70.43 58.91 70.44 C55.16 70.44 51.41 70.45 47.66 70.45 C46.92 70.45 46.19 70.45 45.43 70.45 C33.55 70.46 21.67 70.51 9.8 70.57 C-2.13 70.64 -14.06 70.66 -25.99 70.63 C-32.46 70.62 -38.92 70.63 -45.39 70.69 C-51.3 70.74 -57.22 70.74 -63.13 70.7 C-65.27 70.69 -67.42 70.71 -69.56 70.74 C-82.66 70.95 -82.66 70.95 -87.72 69.23 C-89.53 67.99 -90.81 66.74 -92.21 65.05 C-93.93 62.56 -95.33 59.92 -96.72 57.23 C-97.83 55.74 -98.97 54.27 -100.16 52.83 C-109.57 40.88 -117.68 28.74 -122.72 14.23 C-123.9 9.86 -123.75 5.73 -123.72 1.23 C-41 0.13 -41 0.13 0 0 Z " fill="#24888A" transform="translate(383.72021484375,720.767822265625)"/>
<path d="M0 0 C6.71 1.44 12.62 4.16 18.57 7.55 C24.18 11.18 29.08 15.33 33.28 20.53 C36.79 25.74 38.97 31.55 40.69 37.57 C42.44 46.86 43.07 56.14 43.3 65.58 C43.36 67.52 43.36 67.52 43.42 69.5 C43.77 82.17 43.86 94.84 43.89 107.52 C43.9 111.55 43.92 115.58 43.94 119.61 C44 131.04 44.06 142.47 44.09 153.9 C44.11 160.28 44.14 166.65 44.18 173.03 C44.2 176.37 44.22 179.72 44.22 183.07 C44.22 186.78 44.25 190.49 44.27 194.21 C44.27 195.28 44.27 196.36 44.27 197.47 C44.34 204.78 45.29 211.63 47.69 218.57 C49.8 222.3 52.2 225.23 55.39 228.09 C58.1 230.2 60.41 231.47 63.68 232.63 C68.41 233.94 73.03 233.72 77.9 233.59 C79.89 233.58 81.88 233.57 83.86 233.56 C86.97 233.54 90.07 233.5 93.17 233.42 C106.97 233.07 106.97 233.07 112.69 234.57 C115.95 236.82 115.95 236.82 118.33 239.65 C120.2 242.67 120.2 242.67 121.69 245.57 C122.37 246.65 122.37 246.65 123.06 247.75 C124.19 249.55 125.17 251.36 126.13 253.25 C126.45 253.85 126.78 254.45 127.11 255.07 C129.41 259.47 130.66 263.71 131.69 268.57 C131.98 271.79 131.89 274.55 131.26 277.72 C130.37 280.95 129.2 283.75 127.43 286.6 C123.33 291.81 118.14 295.14 112.58 298.6 C110.95 299.59 109.32 300.58 107.69 301.57 C106.7 302.23 105.71 302.89 104.69 303.57 C102.56 303.82 102.56 303.82 100.06 303.83 C99.11 303.83 98.16 303.84 97.19 303.84 C96.16 303.84 95.13 303.84 94.07 303.83 C93 303.83 91.92 303.84 90.81 303.84 C87.29 303.84 83.77 303.83 80.25 303.82 C79.06 303.81 77.86 303.81 76.63 303.81 C12.79 303.61 12.79 303.61 -8.3 296.22 C-14.63 293.71 -20.16 290.75 -25.36 286.33 C-26.32 285.46 -26.32 285.46 -27.31 284.57 C-27.92 284.05 -28.53 283.52 -29.16 282.99 C-33.65 278.91 -36.75 274.2 -39.68 268.91 C-42.56 262.99 -44.59 256.91 -46.31 250.57 C-46.57 249.6 -46.57 249.6 -46.84 248.61 C-52.68 226.28 -54.14 202.41 -55.5 179.44 C-55.57 178.23 -55.64 177.02 -55.71 175.78 C-55.95 171.38 -56.14 166.97 -56.31 162.57 C-56.35 161.49 -56.39 160.4 -56.44 159.29 C-57.27 137.01 -57.53 114.74 -57.55 92.44 C-57.55 87.81 -57.58 83.18 -57.61 78.55 C-57.63 74.91 -57.63 71.28 -57.63 67.64 C-57.64 65.93 -57.64 64.22 -57.66 62.51 C-57.74 51.1 -57.16 40.19 -53.54 29.25 C-51.07 23.22 -47.64 17.58 -43.5 12.57 C-39.31 8.22 -34.7 5.22 -29.31 2.57 C-28.64 2.23 -27.96 1.89 -27.27 1.54 C-18.92 -1.95 -8.81 -1.15 0 0 Z " fill="#24888A" transform="translate(119.30859375,566.43359375)"/>
<path d="M0 0 C1.78 -0.09 3.56 -0.11 5.35 -0.1 C6.43 -0.09 7.51 -0.09 8.62 -0.09 C10.32 -0.08 10.32 -0.08 12.06 -0.06 C13.77 -0.06 13.77 -0.06 15.52 -0.05 C18.35 -0.04 21.17 -0.02 24 0 C23.68 1.04 23.36 2.07 23.03 3.14 C21.85 7.56 21.53 11.38 21.63 15.93 C22.01 19.09 22.7 21.48 24 24.38 C25.43 26.88 26.82 28.82 28.87 30.85 C32.93 34.06 37.14 36.26 42 38 C47.37 39.26 52.51 39.38 58 39 C66.15 37.8 73.45 34.84 80.68 30.95 C88.47 26.39 94.64 20.62 100.7 13.98 C103.06 11.21 103.06 11.21 104.01 8.35 C105.32 5.4 105.32 5.4 107.23 2.43 C108.15 1.63 109.06 0.83 110 0 C116.65 -2.2 124.21 -1.43 131.11 -1.32 C133.32 -1.33 135.53 -1.34 137.74 -1.35 C143.81 -1.38 149.89 -1.33 155.96 -1.28 C161.83 -1.23 167.71 -1.24 173.58 -1.25 C185.6 -1.27 197.62 -1.23 209.63 -1.16 C221.53 -1.1 233.43 -1.06 245.33 -1.04 C246.44 -1.04 246.44 -1.04 247.57 -1.04 C251.33 -1.04 255.09 -1.03 258.84 -1.03 C285.45 -1.01 312.07 -0.93 338.68 -0.83 C364.53 -0.73 390.38 -0.65 416.24 -0.6 C417.03 -0.6 417.83 -0.6 418.65 -0.6 C426.65 -0.59 434.66 -0.57 442.66 -0.56 C458.96 -0.53 475.26 -0.5 491.57 -0.47 C492.69 -0.46 492.69 -0.46 493.84 -0.46 C543.89 -0.36 593.95 -0.19 644 0 C646.5 7.77 649 15.54 651.48 23.31 C652.64 26.92 653.79 30.53 654.96 34.14 C656.08 37.62 657.2 41.1 658.3 44.58 C658.73 45.91 659.16 47.24 659.59 48.57 C660.19 50.43 660.78 52.29 661.37 54.15 C661.71 55.21 662.05 56.27 662.4 57.36 C662.6 58.23 662.8 59.1 663 60 C662.67 60.99 662.34 61.98 662 63 C661.39 61.18 661.39 61.18 660.76 59.32 C660.21 57.73 659.67 56.15 659.12 54.56 C658.86 53.76 658.59 52.96 658.31 52.13 C657.91 50.99 657.91 50.99 657.51 49.82 C657.27 49.11 657.03 48.4 656.78 47.67 C656.39 46.85 656.39 46.85 656 46 C655.34 45.67 654.68 45.34 654 45 C652.4 44.83 650.79 44.72 649.18 44.64 C648.16 44.59 647.14 44.54 646.08 44.48 C644.95 44.43 643.82 44.37 642.66 44.32 C641.47 44.26 640.28 44.2 639.05 44.14 C635.06 43.94 631.06 43.75 627.06 43.56 C625.66 43.5 624.26 43.43 622.85 43.36 C600.62 42.32 578.38 41.53 556.12 40.94 C553.97 40.88 551.82 40.82 549.67 40.76 C494.98 39.26 440.27 38.84 385.57 38.86 C380.23 38.87 374.9 38.87 369.56 38.87 C368.78 38.87 368 38.87 367.2 38.87 C365.61 38.87 364.02 38.87 362.44 38.86 C347.79 38.86 333.15 38.87 318.51 38.87 C306.13 38.88 293.75 38.87 281.37 38.87 C266.75 38.86 252.12 38.86 237.5 38.87 C235.93 38.87 234.35 38.87 232.77 38.87 C231.61 38.87 231.61 38.87 230.42 38.87 C225.13 38.87 219.84 38.87 214.55 38.86 C184.28 38.85 154.01 38.95 123.75 39.41 C121.77 39.44 119.79 39.47 117.81 39.5 C92.97 39.89 68.15 40.73 43.32 41.66 C36.66 41.91 29.99 42.13 23.32 42.32 C22.52 42.34 21.73 42.36 20.9 42.38 C17.39 42.48 13.88 42.57 10.36 42.66 C2.22 42.87 -5.88 43.36 -14 44 C-13.39 38.54 -12.08 33.67 -10.31 28.48 C-10.05 27.69 -9.79 26.9 -9.52 26.09 C-8.96 24.44 -8.41 22.79 -7.85 21.15 C-7 18.61 -6.15 16.08 -5.3 13.54 C-4.77 11.94 -4.23 10.33 -3.69 8.73 C-3.43 7.97 -3.18 7.21 -2.92 6.42 C-2.3 4.61 -1.65 2.8 -1 1 C-0.67 0.67 -0.34 0.34 0 0 Z " fill="#D94730" transform="translate(191,881)"/>
<path d="M0 0 C2.24 0.6 4.03 1.35 6.04 2.52 C8.23 4.17 9.45 5.76 10.96 8.05 C13.99 12.77 16.29 17.64 18.44 22.81 C18.82 23.71 19.2 24.61 19.59 25.54 C22.22 31.88 24.65 38.28 26.94 44.75 C27.36 45.94 27.36 45.94 27.79 47.16 C29.58 52.38 30.92 57.6 32 63 C27.27 66.18 22.53 69.3 17.69 72.31 C6.87 79.2 -2.79 87.11 -12 96 C-12.56 96.54 -13.12 97.07 -13.7 97.63 C-17.87 101.68 -21.49 105.95 -24.94 110.62 C-25.45 111.32 -25.97 112.02 -26.5 112.73 C-35.9 125.56 -43.17 138.99 -48.25 154.1 C-49.1 156.95 -49.1 156.95 -49.12 159.81 C-49.25 162.56 -49.25 162.56 -49.69 165.29 C-50.12 166.18 -50.55 167.08 -51 168 C-55.07 171.88 -60.12 174.63 -64.86 177.6 C-68.15 179.75 -71.15 182.19 -74.12 184.75 C-74.69 185.23 -75.25 185.71 -75.83 186.21 C-79.02 189.02 -81.94 191.97 -84.77 195.13 C-85.71 196.17 -85.71 196.17 -86.66 197.23 C-87.86 198.59 -89.05 199.97 -90.21 201.36 C-91.73 203.11 -93.13 204.64 -95 206 C-96.57 206.03 -96.57 206.03 -98.16 206.06 C-101.63 204.77 -104.07 203.41 -106.93 201.08 C-111.3 196.69 -114.3 191.53 -117 186 C-123.38 171.88 -127.78 156.82 -132.63 142.12 C-135.99 131.95 -139.51 121.86 -143.31 111.84 C-144.36 109.03 -145.33 106.2 -146.31 103.38 C-148.72 96.63 -151.31 89.97 -153.94 83.31 C-154.55 81.74 -154.55 81.74 -155.17 80.14 C-157.64 73.95 -160.43 68.14 -163.77 62.36 C-164.91 60.17 -165.56 58.42 -166 56 C-166.23 53.13 -166.38 50.81 -166 48 C-164.5 44.81 -164.5 44.81 -162 42 C-159.53 39.83 -156.97 38.42 -154 37 C-142.05 32.59 -129.67 30.06 -117.22 27.49 C-93.96 22.67 -70.93 17.21 -48 11 C-47.01 10.73 -47.01 10.73 -46.01 10.46 C-30.83 6.36 -30.83 6.36 -15.84 1.62 C-10.65 -0.12 -5.44 -0.62 0 0 Z " fill="#C3C12E" transform="translate(321,445)"/>
<path d="M0 0 C107.91 0 215.82 0 327 0 C327 97.35 327 194.7 327 295 C320.73 295 314.46 295 308 295 C308 293.6 308 292.19 308 290.74 C307.96 257.44 307.9 224.13 307.82 190.82 C307.81 186.72 307.8 182.62 307.79 178.53 C307.79 177.71 307.79 176.9 307.79 176.05 C307.76 162.84 307.74 149.62 307.73 136.4 C307.71 122.84 307.69 109.29 307.65 95.73 C307.62 87.36 307.61 78.99 307.61 70.62 C307.61 64.88 307.59 59.15 307.57 53.42 C307.55 50.1 307.55 46.79 307.55 43.48 C307.56 39.9 307.54 36.31 307.52 32.72 C307.53 31.67 307.53 30.62 307.54 29.53 C307.53 28.58 307.52 27.62 307.51 26.63 C307.51 25.8 307.5 24.98 307.5 24.12 C307.34 23.42 307.17 22.72 307 22 C305.33 20.12 305.33 20.12 303 19 C300.68 18.55 300.68 18.55 298.15 18.62 C297.17 18.61 296.18 18.6 295.17 18.59 C294.1 18.6 293.02 18.61 291.92 18.61 C290.2 18.6 290.2 18.6 288.45 18.6 C285.27 18.58 282.1 18.59 278.92 18.59 C275.5 18.6 272.07 18.59 268.65 18.58 C261.94 18.56 255.23 18.56 248.52 18.56 C243.07 18.57 237.62 18.56 232.17 18.56 C231.39 18.56 230.61 18.56 229.82 18.56 C228.24 18.56 226.67 18.55 225.09 18.55 C210.31 18.54 195.54 18.54 180.76 18.56 C167.24 18.57 153.71 18.55 140.19 18.53 C126.31 18.5 112.42 18.49 98.54 18.5 C90.75 18.51 82.95 18.5 75.16 18.49 C68.52 18.47 61.88 18.47 55.25 18.49 C51.86 18.5 48.47 18.5 45.09 18.48 C41.42 18.47 37.75 18.48 34.08 18.5 C33.01 18.49 31.93 18.48 30.83 18.47 C29.85 18.48 28.86 18.49 27.85 18.5 C27.01 18.5 26.16 18.5 25.29 18.5 C24.53 18.66 23.78 18.83 23 19 C22.25 19.5 21.5 20 20.73 20.52 C20.16 21.34 19.59 22.16 19 23 C18.61 25.86 18.48 28.33 18.52 31.19 C18.51 32.03 18.51 32.86 18.51 33.73 C18.5 36.55 18.52 39.37 18.54 42.19 C18.54 44.23 18.54 46.27 18.54 48.31 C18.54 53.92 18.56 59.53 18.58 65.14 C18.61 71.19 18.61 77.23 18.61 83.28 C18.62 93.76 18.64 104.24 18.67 114.73 C18.71 130.59 18.72 146.45 18.72 162.31 C18.72 168.67 18.72 175.03 18.73 181.4 C18.73 182.1 18.73 182.81 18.73 183.54 C18.73 200.37 18.75 217.2 18.77 234.03 C18.77 234.77 18.77 235.5 18.77 236.26 C18.79 253.45 18.81 270.64 18.85 287.82 C18.85 288.56 18.85 289.3 18.85 290.06 C18.86 293.79 18.87 297.52 18.88 301.24 C18.88 302.35 18.88 302.35 18.88 303.48 C18.88 304.96 18.89 306.45 18.89 307.94 C18.94 332.49 18.97 357.05 18.95 381.61 C18.95 385.08 18.95 388.54 18.95 392.01 C18.95 393.03 18.95 393.03 18.95 394.08 C18.95 405.07 18.98 416.05 19.02 427.04 C19.07 438.08 19.08 449.12 19.06 460.16 C19.05 466.15 19.05 472.13 19.1 478.12 C19.14 483.59 19.14 489.06 19.1 494.54 C19.1 496.52 19.11 498.5 19.13 500.49 C19.2 506.12 19.21 511.49 18 517 C16.01 519.45 16.01 519.45 13.59 521.08 C12.08 521.76 10.55 522.41 9 523 C7.47 524.25 5.96 525.53 4.5 526.88 C3.35 527.93 2.18 528.98 1 530 C0.67 530 0.34 530 0 530 C0 355.1 0 180.2 0 0 Z " fill="#FDB11F" transform="translate(71,39)"/>
<path d="M0 0 C88.44 0 176.88 0 268 0 C268.33 47.19 268.66 94.38 269 143 C257.12 143 245.24 143 233 143 C234.36 139.59 235.6 136.92 237.38 133.81 C241.71 125.28 243.32 115.3 244.6 105.88 C244.97 102.26 245.13 98.76 245.12 95.12 C245.13 94.01 245.13 92.9 245.13 91.76 C245.09 90.85 245.05 89.94 245 89 C244.67 88.34 244.34 87.68 244 87 C224.2 86.5 224.2 86.5 204 86 C204 85.34 204 84.68 204 84 C204.96 83.72 205.91 83.44 206.89 83.15 C214.3 80.9 221.13 78.43 227.57 74 C231.81 70.51 235.04 66.61 238 62 C241.82 55.1 244.55 47.76 246 40 C246.65 35.01 247.28 30.04 247 25 C245.76 23.08 245.76 23.08 244 22 C242.1 20.91 242.1 20.91 240.19 20.76 C236.81 20.65 233.81 20.78 230.54 21.68 C222.23 24.85 214.8 29.27 208.06 35.06 C205.65 37.21 204.03 38.95 202.37 41.75 C201.69 42.86 201.69 42.86 201 44 C200.34 44 199.68 44 199 44 C198.58 42.86 198.58 42.86 198.15 41.69 C195.72 35.44 193.13 30.16 188.8 25.02 C188.21 24.36 187.61 23.69 187 23 C186.48 22.37 185.96 21.75 185.42 21.1 C182.84 18.22 180.36 16.21 177 14.27 C173.06 12.27 169.19 10.4 165 9 C162.59 8.73 162.59 8.73 160 8.69 C159.13 8.65 158.27 8.61 157.38 8.57 C156.2 8.78 156.2 8.78 155 9 C154.11 9.74 154.11 9.74 153.21 10.5 C151.77 13.12 151.77 13.12 151.6 16.84 C151.59 18.35 151.6 19.86 151.62 21.38 C151.64 22.58 151.64 22.58 151.65 23.8 C151.89 33.34 153.78 42.19 157.12 51.12 C160.12 57.82 164.14 63.52 169 69 C175.47 75.3 182.82 79.29 191 83 C191 83.99 191 84.98 191 86 C189.43 85.98 189.43 85.98 187.82 85.97 C183.93 85.93 180.04 85.91 176.16 85.89 C174.47 85.88 172.79 85.87 171.1 85.85 C168.69 85.82 166.27 85.81 163.85 85.8 C163.1 85.79 162.34 85.78 161.56 85.77 C159.71 85.77 157.85 85.88 156 86 C155.34 86.66 154.68 87.32 154 88 C153.77 90.75 153.67 93.37 153.69 96.12 C153.69 96.93 153.7 97.74 153.7 98.57 C153.93 110.61 156.58 121.72 160.72 133.01 C161.94 135.85 163.41 138.36 165 141 C165 141.66 165 142.32 165 143 C157.74 143 150.48 143 143 143 C140.75 134 140.75 134 140.23 130.68 C140.1 129.93 139.98 129.18 139.86 128.41 C139.74 127.61 139.61 126.82 139.48 126.01 C139.35 125.16 139.21 124.3 139.07 123.43 C138.78 121.6 138.49 119.78 138.2 117.96 C137.44 113.15 136.66 108.34 135.88 103.54 C135.64 102.08 135.64 102.08 135.4 100.6 C134 91.98 132.57 83.37 131.07 74.77 C130.82 73.31 130.56 71.84 130.32 70.38 C129.97 68.36 129.62 66.34 129.26 64.32 C129.07 63.19 128.87 62.06 128.67 60.89 C128.06 58.27 127.43 56.28 126 54 C125.34 53.67 124.68 53.34 124 53 C121.82 52.85 119.64 52.75 117.46 52.68 C116.16 52.64 114.86 52.6 113.52 52.56 C112.14 52.52 110.76 52.48 109.38 52.44 C107.99 52.39 106.6 52.35 105.21 52.31 C101.81 52.2 98.4 52.1 95 52 C94.89 51.33 94.79 50.67 94.68 49.98 C94.19 46.95 93.69 43.91 93.19 40.88 C93.02 39.83 92.86 38.78 92.69 37.7 C91.96 33.35 91.17 29.44 89.55 25.32 C89.04 24.55 88.53 23.79 88 23 C84.26 21.75 80.76 21.82 76.86 21.79 C76.03 21.78 75.2 21.77 74.34 21.76 C71.6 21.73 68.86 21.71 66.11 21.68 C64.21 21.66 62.31 21.64 60.41 21.62 C55.4 21.57 50.4 21.52 45.39 21.47 C40.28 21.42 35.18 21.36 30.07 21.31 C20.05 21.2 10.02 21.1 0 21 C0 14.07 0 7.14 0 0 Z " fill="#E18B18" transform="translate(100,69)"/>
<path d="M0 0 C8.43 1.49 16.5 4.42 24.1 8.35 C37.52 16.21 49.12 26.69 59.09 38.6 C62.41 42.79 65.47 47.14 68.41 51.6 C69.04 52.55 69.67 53.49 70.32 54.47 C79.19 68.73 85.61 85.26 89.41 101.6 C89.66 102.64 89.66 102.64 89.91 103.7 C93.83 121.35 93.75 140.48 91.69 158.39 C91.33 161.14 90.9 163.87 90.41 166.6 C74.69 163.09 60.29 158.02 46.41 149.6 C37.77 144 29.85 137.74 22.41 130.6 C21.53 129.78 20.65 128.96 19.74 128.12 C7.19 116.12 -1.94 101.91 -9.67 86.43 C-15 75.51 -18.84 64.44 -21.59 52.6 C-21.77 51.84 -21.96 51.09 -22.15 50.3 C-23.71 43.4 -23.95 36.67 -23.96 29.6 C-23.99 28.49 -24.01 27.38 -24.04 26.23 C-24.05 21.87 -23.95 17.89 -22.75 13.67 C-21.26 9.8 -19.8 6.87 -17.21 3.6 C-14.59 1.6 -14.59 1.6 -12.02 0.23 C-7.85 -0.53 -4.21 -0.45 0 0 Z " fill="#539D5E" transform="translate(715.5859375,89.3984375)"/>
<path d="M0 0 C2.08 0.64 3.6 1.4 5.4 2.61 C7.83 4.72 9.78 7.06 11.74 9.61 C13.81 13.53 14.68 17.68 15.28 22.04 C16.7 36.23 15.51 49.99 12.38 63.88 C7.46 82.94 -1.42 101.17 -12.5 117.38 C-14.3 119.94 -16.14 122.48 -18 125 C-18.68 125.93 -19.36 126.86 -20.07 127.81 C-31.21 142.11 -44.59 155.03 -59.92 164.73 C-63.37 166.84 -66.84 168.87 -70.38 170.81 C-71 171.16 -71.62 171.5 -72.27 171.86 C-74.02 172.77 -74.02 172.77 -77 174 C-77.99 173.67 -78.98 173.34 -80 173 C-80.86 171.23 -80.86 171.23 -81.54 168.91 C-81.91 167.64 -81.91 167.64 -82.3 166.34 C-82.55 165.44 -82.8 164.55 -83.06 163.62 C-83.32 162.77 -83.57 161.91 -83.84 161.03 C-88.29 145.73 -88.89 130.87 -88 115 C-86.27 96.66 -80.47 78.91 -72.75 62.25 C-64.65 45.42 -53.8 30.4 -40.58 17.21 C-33.49 10.39 -25.36 5.93 -16.41 1.95 C-10.97 -0.19 -5.81 -0.62 0 0 Z " fill="#539D5E" transform="translate(930,70)"/>
<path d="M0 0 C88.44 0 176.88 0 268 0 C268 4.62 268 9.24 268 14 C266.95 14.01 265.9 14.03 264.82 14.04 C260.93 14.1 257.04 14.18 253.16 14.26 C251.47 14.3 249.79 14.32 248.1 14.35 C245.69 14.38 243.27 14.43 240.85 14.49 C239.72 14.5 239.72 14.5 238.56 14.51 C236.21 14.54 236.21 14.54 233 15 C232.34 15.99 231.68 16.98 231 18 C230.54 20.74 230.54 20.74 230.38 23.69 C230.3 24.68 230.23 25.68 230.15 26.7 C230.07 27.84 230.07 27.84 230 29 C226.25 27.88 222.75 26.46 219.21 24.8 C218.35 24.4 217.49 23.99 216.61 23.58 C214.82 22.73 213.04 21.88 211.26 21.01 C209.97 20.41 209.97 20.41 208.65 19.8 C207.88 19.43 207.11 19.06 206.31 18.68 C203.99 17.88 203.99 17.88 201.43 17.99 C200.63 18.33 199.83 18.66 199 19 C197.53 21.13 196.48 22.97 195.4 25.29 C195.08 25.94 194.75 26.6 194.42 27.27 C193.39 29.38 192.38 31.5 191.38 33.62 C190.72 34.97 190.07 36.31 189.41 37.65 C186.4 43.83 183.45 50.04 180.51 56.25 C173.3 71.41 165.84 86.44 158.31 101.44 C157.11 103.84 155.91 106.24 154.71 108.64 C151.81 114.43 148.9 120.21 146 126 C142.7 126 139.4 126 136 126 C135.99 124.9 135.98 123.8 135.98 122.67 C135.9 112.34 135.81 102.01 135.71 91.68 C135.66 86.37 135.62 81.06 135.58 75.75 C135.54 70.63 135.5 65.5 135.44 60.38 C135.42 58.42 135.41 56.47 135.4 54.51 C135.38 51.77 135.35 49.04 135.32 46.31 C135.32 45.49 135.31 44.67 135.31 43.83 C135.28 41.89 135.15 39.94 135 38 C134.34 37.34 133.68 36.68 133 36 C130.81 35.65 130.81 35.65 128.28 35.62 C127.35 35.59 126.42 35.55 125.46 35.52 C124.48 35.49 123.51 35.46 122.5 35.44 C120.57 35.38 118.65 35.31 116.72 35.25 C115.86 35.22 115.01 35.2 114.12 35.17 C113.07 35.09 113.07 35.09 112 35 C111.34 34.67 110.68 34.34 110 34 C109.66 31.42 109.66 31.42 109.5 28.19 C109.35 25.1 109.22 22.56 108.09 19.68 C107.73 19.12 107.37 18.57 107 18 C106.34 17.67 105.68 17.34 105 17 C102.24 16.9 99.51 16.86 96.75 16.88 C95.54 16.88 95.54 16.88 94.31 16.89 C81.88 16.86 81.88 16.86 69.69 18.88 C68.8 19.25 67.92 19.62 67 20 C64.71 24.58 64.65 28.79 64 34 C55.09 34 46.18 34 37 34 C36.5 28.56 36.5 28.56 36 23 C35.64 21.96 35.28 20.93 34.91 19.86 C34.28 19.24 33.65 18.63 33 18 C30.3 17.47 28.2 17.28 25.49 17.29 C24.76 17.28 24.03 17.26 23.28 17.25 C20.96 17.2 18.64 17.2 16.31 17.19 C14.74 17.16 13.16 17.14 11.58 17.11 C7.72 17.04 3.86 17.02 0 17 C0 11.39 0 5.78 0 0 Z " fill="#E28C19" transform="translate(100,249)"/>
<path d="M0 0 C18.81 0 37.62 0 57 0 C58.32 7.59 59.64 15.18 61 23 C63.94 36.68 68.2 49.01 75.44 61 C78.77 65.94 82.4 70.2 87 74 C95.77 80.25 104.72 84.86 115 88 C115 88.33 115 88.66 115 89 C77.05 89 39.1 89 0 89 C0 59.63 0 30.26 0 0 Z " fill="#FDAF1F" transform="translate(0,787)"/>
<path d="M0 0 C2.5 0.11 4.38 0.57 6.74 1.41 C10.08 2.95 13.11 4.54 15.86 6.99 C17.73 9.11 19.14 11.41 20.5 13.88 C21.24 16.68 21.59 19.3 21.5 22.21 C20.4 30.25 16.23 37.52 12.58 44.64 C9.97 50.01 8.11 55.59 7.19 61.5 C7.02 64.42 7 67.33 7 70.25 C7 71.1 7 71.94 7 72.81 C7.04 78.13 7.45 83.23 8.19 88.5 C9.96 101.44 11 115.92 8.5 128.8 C6.86 134.6 4.3 139.58 0.85 144.5 C-1.28 147.07 -3.27 149.31 -5.81 151.5 C-8.64 152.9 -11.55 153.87 -14.56 154.81 C-15.32 155.08 -16.08 155.34 -16.87 155.61 C-21.59 157.15 -25.87 157.79 -30.84 157.77 C-31.49 157.68 -32.14 157.59 -32.81 157.5 C-36.33 155.61 -39.14 153.47 -41.81 150.5 C-41.48 149.51 -41.15 148.52 -40.81 147.5 C-39.86 147.02 -39.86 147.02 -38.88 146.54 C-38.2 146.2 -37.52 145.85 -36.81 145.5 C-35.59 143.85 -35.59 143.85 -34.74 141.87 C-34.23 140.78 -34.23 140.78 -33.71 139.67 C-33.38 138.91 -33.04 138.16 -32.69 137.38 C-32.17 136.27 -32.17 136.27 -31.64 135.15 C-28.92 129.23 -27.15 123.61 -26.44 117.1 C-26.22 105.13 -28.73 93.94 -31.23 82.28 C-33.98 69.21 -35.15 55.66 -33.31 42.38 C-31.66 33.19 -28.9 24.83 -24.21 16.75 C-21.5 12.6 -18.71 9.13 -14.81 6.06 C-10.07 2.84 -5.74 0.75 0 0 Z " fill="#FDB01F" transform="translate(915.8125,398.5)"/>
<path d="M0 0 C17.49 0 34.98 0 53 0 C53 29.37 53 58.74 53 89 C16.7 89 -19.6 89 -57 89 C-56.01 88.01 -56.01 88.01 -55 87 C-53.04 86.23 -51.05 85.51 -49.06 84.81 C-41.18 81.86 -34.61 77.79 -27.96 72.66 C-22.13 67.43 -18.03 60.67 -14.27 53.86 C-5.97 36.85 -3.25 18.48 0 0 Z " fill="#FDAF1F" transform="translate(971,787)"/>
<path d="M0 0 C51.48 0 102.96 0 156 0 C156.33 0.66 156.66 1.32 157 2 C156.36 4.34 155.69 6.67 155 9 C153.88 15.28 153.68 21.57 153.44 27.94 C153.37 29.54 153.37 29.54 153.31 31.17 C153.2 33.78 153.1 36.39 153 39 C147.63 40.28 142.25 41.57 136.87 42.85 C135.04 43.28 133.22 43.72 131.39 44.15 C128.76 44.78 126.13 45.41 123.51 46.03 C122.69 46.23 121.87 46.42 121.02 46.63 C115.23 48 115.23 48 113 48 C112.97 46.9 112.95 45.81 112.92 44.68 C112.87 43.22 112.81 41.77 112.75 40.31 C112.74 39.59 112.72 38.87 112.71 38.13 C112.67 37.42 112.64 36.72 112.61 35.99 C112.58 35.02 112.58 35.02 112.55 34.04 C112.05 31.82 112.05 31.82 110.5 29.41 C109.26 28.22 109.26 28.22 108 27 C104.99 26.5 102.54 26.33 99.53 26.37 C98.68 26.36 97.83 26.35 96.95 26.35 C94.13 26.33 91.32 26.35 88.5 26.37 C86.54 26.37 84.58 26.37 82.63 26.36 C78.52 26.36 74.42 26.38 70.32 26.4 C65.06 26.44 59.8 26.43 54.54 26.41 C50.5 26.4 46.46 26.41 42.42 26.43 C40.48 26.43 38.54 26.43 36.6 26.42 C33.89 26.42 31.18 26.44 28.47 26.47 C27.67 26.46 26.86 26.45 26.04 26.45 C23.53 26.45 23.53 26.45 20 27 C17.48 28.76 17.48 28.76 16 31 C14.67 34.36 14.8 37.93 14.68 41.52 C14.64 42.77 14.6 44.02 14.56 45.3 C14.52 46.61 14.48 47.91 14.44 49.25 C14.39 50.57 14.35 51.88 14.31 53.24 C14.2 56.49 14.1 59.75 14 63 C9.38 63 4.76 63 0 63 C0 42.21 0 21.42 0 0 Z " fill="#E18A18" transform="translate(100,412)"/>
<path d="M0 0 C2.11 -0.12 2.11 -0.12 5.61 0.25 C7.92 1.94 7.92 1.94 9.61 4.25 C10.29 5.49 10.29 5.49 10.98 6.75 C12.55 9.46 12.55 9.46 15.48 11.5 C18.46 13.35 18.46 13.35 21.48 14 C22.18 14.09 22.88 14.17 23.61 14.25 C21.37 16.07 19.14 17.88 16.77 19.54 C11.23 23.47 6.6 27.73 2.61 33.25 C-2.4 41.15 -5.8 49.39 -7.83 58.5 C-10.8 72.12 -10.66 86.13 -10.96 100 C-11 101.88 -11.04 103.75 -11.09 105.62 C-11.19 110.17 -11.3 114.71 -11.39 119.25 C-12.52 118.3 -13.64 117.34 -14.76 116.38 C-15.38 115.85 -16.01 115.31 -16.65 114.76 C-18.64 113.04 -20.54 111.24 -22.46 109.44 C-29.88 102.81 -38.5 97.64 -47.39 93.25 C-47.47 87.89 -47.52 82.52 -47.56 77.15 C-47.57 75.34 -47.59 73.52 -47.62 71.7 C-47.81 58.14 -47.46 44.66 -43.22 31.64 C-40.79 25.35 -37.66 19.5 -33.39 14.25 C-30.23 10.8 -26.91 8.13 -22.86 5.78 C-17.11 2.95 -11.54 1.39 -5.2 0.54 C-3.46 0.36 -1.73 0.18 0 0 Z " fill="#248889" transform="translate(864.39453125,541.74609375)"/>
<path d="M0 0 C88.77 0 177.54 0 269 0 C268.67 4.95 268.34 9.9 268 15 C179.56 15 91.12 15 0 15 C0 10.05 0 5.1 0 0 Z " fill="#FDAE1F" transform="translate(100,223)"/>
<path d="M0 0 C8.91 0 17.82 0 27 0 C27 36.96 27 73.92 27 112 C18.09 112 9.18 112 0 112 C0 75.04 0 38.08 0 0 Z " fill="#D9482F" transform="translate(100,100)"/>
<path d="M0 0 C23.1 0 46.2 0 70 0 C70 10.74 69.39 19.1 66 29 C63.41 35.4 60.36 41.25 55.81 46.47 C55.21 46.98 54.61 47.48 54 48 C51.1 49 48.39 49.03 45.35 49 C44.12 49.02 44.12 49.02 42.87 49.03 C41.14 49.05 39.42 49.04 37.7 49.02 C35.07 49 32.46 49.06 29.83 49.13 C20.43 49.22 20.43 49.22 16 48 C13.35 46.11 13.35 46.11 11.48 43.76 C10.06 41.29 10.06 41.29 9 39 C8.45 38.08 7.9 37.16 7.33 36.21 C4.09 29.02 2.12 21.8 1 14 C0.67 9.38 0.34 4.76 0 0 Z " fill="#D94730" transform="translate(264,164)"/>
<path d="M0 0 C0.98 0 1.95 0.01 2.96 0.01 C4.06 0.02 4.06 0.02 5.18 0.02 C7.77 7.27 10.35 14.52 12.93 21.77 C13.32 22.86 13.71 23.94 14.1 25.06 C18.07 36.23 22.03 47.39 25.7 58.66 C25.97 59.47 26.23 60.28 26.5 61.11 C27.71 64.82 28.91 68.53 30.08 72.25 C32.33 79.3 34.94 86.01 38.21 92.66 C38.53 93.31 38.85 93.97 39.18 94.64 C41.88 99.93 45.25 103.94 49.5 108.11 C50.05 108.74 50.61 109.37 51.18 110.02 C51.18 111.01 51.18 112 51.18 113.02 C48.8 114.65 46.44 116.09 43.93 117.52 C35.61 122.49 28.03 128.15 21.81 135.69 C21.37 136.24 20.93 136.79 20.48 137.35 C19.72 138.23 18.96 139.12 18.18 140.02 C17.52 140.02 16.86 140.02 16.18 140.02 C16.17 139.21 16.15 138.4 16.13 137.56 C15.95 129.81 15.76 122.06 15.56 114.31 C15.45 110.32 15.35 106.34 15.26 102.36 C15.18 98.5 15.08 94.64 14.97 90.78 C14.93 89.33 14.9 87.87 14.87 86.41 C14.6 73.35 13.27 60.5 8.93 48.09 C6.05 41.19 2.19 35.53 -2.66 29.88 C-7.67 24.52 -13.29 20.37 -19.82 17.02 C-27.91 13.78 -36.19 11.38 -44.82 10.02 C-44.16 9.36 -43.5 8.7 -42.82 8.02 C-40.15 7.11 -37.52 6.29 -34.82 5.52 C-34.05 5.3 -33.27 5.08 -32.48 4.85 C-21.73 1.81 -11.2 -0.05 0 0 Z " fill="#24888A" transform="translate(157.81640625,544.9765625)"/>
<path d="M0 0 C8.58 0 17.16 0 26 0 C26 32.34 26 64.68 26 98 C17.42 98 8.84 98 0 98 C0 65.66 0 33.32 0 0 Z " fill="#FDB11F" transform="translate(100,277)"/>
<path d="M0 0 C7.59 0 15.18 0 23 0 C23 36.3 23 72.6 23 110 C15.41 110 7.82 110 0 110 C0 73.7 0 37.4 0 0 Z " fill="#FDB31F" transform="translate(138,102)"/>
<path d="M0 0 C46.21 -0.62 46.21 -0.62 66.49 2.61 C68.75 2.96 71.01 3.25 73.28 3.52 C82.8 4.87 90.99 8.28 99.77 12.09 C108.98 16.08 118.35 19.31 127.92 22.34 C130.62 23.2 133.31 24.1 136 25 C136 25.33 136 25.66 136 26 C91.78 26 47.56 26 2 26 C2.33 24.35 2.66 22.7 3 21 C3.14 18.9 3.22 16.79 3.25 14.69 C3.28 13.62 3.3 12.55 3.33 11.45 C3.04 8.45 2.55 6.54 1.48 3.78 C1.2 3.07 0.93 2.36 0.64 1.63 C0.43 1.09 0.22 0.55 0 0 Z " fill="#24888A" transform="translate(480,685)"/>
<path d="M0 0 C0 32.67 0 65.34 0 99 C-7.92 99 -15.84 99 -24 99 C-24 66.66 -24 34.32 -24 1 C-7 0 -7 0 0 0 Z " fill="#24888A" transform="translate(199,276)"/>
<path d="M0 0 C55.11 0 110.22 0 167 0 C163.53 6.93 163.53 6.93 160 14 C107.2 14 54.4 14 0 14 C0 9.38 0 4.76 0 0 Z " fill="#FDAE1F" transform="translate(100,387)"/>
<path d="M0 0 C1.84 -0.1 3.69 -0.13 5.53 -0.13 C6.65 -0.13 7.77 -0.14 8.93 -0.14 C10.11 -0.13 11.28 -0.13 12.5 -0.12 C14.27 -0.13 14.27 -0.13 16.07 -0.14 C17.75 -0.13 17.75 -0.13 19.47 -0.13 C20.5 -0.13 21.54 -0.13 22.61 -0.13 C23.4 -0.09 24.19 -0.04 25 0 C25.33 0.33 25.66 0.66 26 1 C26.14 3.31 26.23 5.62 26.31 7.94 C26.88 19.28 29.04 30.53 33.19 41.12 C36.91 49.41 41.28 58.08 46.77 65.34 C47.18 65.89 47.58 66.44 48 67 C48 67.66 48 68.32 48 69 C43.75 69.07 39.5 69.13 35.25 69.16 C33.81 69.18 32.37 69.2 30.92 69.23 C17.44 69.46 17.44 69.46 11.71 67.64 C9.04 66.62 6.84 65.35 4.56 63.62 C2 61 2 61 0.88 58.66 C-1.65 51.01 -1.15 42.32 -1.13 34.34 C-1.13 33.38 -1.13 32.42 -1.14 31.43 C-1.14 29.43 -1.13 27.43 -1.13 25.43 C-1.12 22.35 -1.13 19.27 -1.14 16.19 C-1.14 14.24 -1.13 12.29 -1.13 10.34 C-1.13 9.41 -1.14 8.49 -1.14 7.54 C-1.13 5.36 -1.07 3.18 -1 1 C-0.67 0.67 -0.34 0.34 0 0 Z " fill="#24888A" transform="translate(175,721)"/>
<path d="M0 0 C0 26.73 0 53.46 0 81 C-8.91 81 -17.82 81 -27 81 C-27 54.6 -27 28.2 -27 1 C-18.12 -0.48 -9.01 0 0 0 Z " fill="#D9492F" transform="translate(164,294)"/>
<path d="M0 0 C1.11 0 2.22 0 3.37 0.01 C6.09 0.01 8.81 0.02 11.53 0.03 C12.83 7.2 14.11 14.36 15.38 21.53 C15.81 23.97 16.25 26.4 16.69 28.83 C17.32 32.35 17.94 35.87 18.56 39.39 C18.76 40.46 18.96 41.53 19.16 42.63 C20.46 50.15 20.75 57.4 20.53 65.03 C18.46 66.41 16.88 67.26 14.53 68.03 C10.42 68.63 6.64 68.68 2.53 68.03 C0.38 67.11 0.38 67.11 -1.41 65.78 C-3.25 63.78 -4.5 61.96 -5.71 59.51 C-8.79 51.97 -11.45 44.36 -13.91 36.59 C-14.29 35.39 -14.68 34.18 -15.07 32.94 C-18.42 22.36 -21.52 11.72 -24.47 1.03 C-16.3 0.03 -8.22 -0.03 0 0 Z " fill="#FCB21F" transform="translate(870.46875,879.96875)"/>
<path d="M0 0 C59.62 8.59 59.62 8.59 84.81 21.88 C90.42 24.93 95.74 28.38 101.06 31.91 C105.81 35 110.6 37.3 116 39 C116.87 39.28 116.87 39.28 117.77 39.57 C123.94 40.75 130.75 40.61 137 40 C140.59 39.05 143.71 37.7 147 36 C147.99 35.67 148.98 35.34 150 35 C150 37.31 150 39.62 150 42 C137.73 42.46 125.45 42.84 113.17 43.12 C107.47 43.25 101.77 43.41 96.07 43.63 C90.56 43.84 85.05 43.98 79.54 44.08 C77.44 44.12 75.35 44.2 73.26 44.3 C67.61 44.55 62.01 44.71 56.41 43.77 C54 43 54 43 51.75 41.63 C47.74 38.38 44.47 34.64 41.3 30.59 C38.71 27.43 35.43 25.15 32.12 22.81 C31.47 22.34 30.82 21.86 30.15 21.37 C28.11 19.9 26.06 18.44 24 17 C23.29 16.5 22.59 16.01 21.86 15.49 C15.18 10.81 8.48 6.23 1.49 2.01 C1 1.68 0.51 1.34 0 1 C0 0.67 0 0.34 0 0 Z " fill="#24888A" transform="translate(703,668)"/>
<path d="M0 0 C11.22 0.33 22.44 0.66 34 1 C30.62 13.4 30.62 13.4 28.98 18.31 C28.44 19.94 28.44 19.94 27.89 21.6 C27.51 22.73 27.14 23.85 26.75 25 C26.36 26.17 25.96 27.35 25.56 28.56 C23.16 35.66 20.73 42.76 18.19 49.81 C17.92 50.56 17.66 51.31 17.38 52.09 C15.49 57.24 13.02 61.56 9.5 65.81 C9 66.2 8.51 66.6 8 67 C4.67 68.09 1.49 68.17 -2 68.19 C-3.03 68.2 -4.06 68.22 -5.12 68.23 C-6.07 68.15 -7.02 68.08 -8 68 C-9.35 67.37 -10.69 66.71 -12 66 C-12.31 58.64 -11.45 51.99 -9.88 44.8 C-9.67 43.77 -9.45 42.74 -9.22 41.68 C-8.53 38.41 -7.83 35.14 -7.12 31.88 C-6.66 29.68 -6.19 27.48 -5.73 25.28 C-4.87 21.24 -4.02 17.19 -3.15 13.16 C-2.97 12.35 -2.8 11.55 -2.62 10.72 C-1.8 7.13 -0.89 3.57 0 0 Z " fill="#FCB11F" transform="translate(145,880)"/>
<path d="M0 0 C4.01 0.65 7.46 1.91 11.19 3.5 C12.23 3.94 13.28 4.39 14.36 4.84 C15.92 5.53 17.47 6.24 19 7 C17.4 12.43 14.99 17.29 12.44 22.31 C11.77 23.64 11.77 23.64 11.09 24.99 C7.93 31.25 4.64 37.45 1.33 43.63 C-1.45 48.85 -4 54.15 -6.5 59.5 C-10.72 68.49 -15.01 77.4 -20 86 C-20.85 87.51 -20.85 87.51 -21.71 89.06 C-23.44 91.56 -23.44 91.56 -25.34 93.59 C-28 95 -28 95 -30.11 95.35 C-35.44 95.75 -40.68 95.46 -46 95 C-41.82 85.42 -37.61 75.88 -32.62 66.69 C-28.7 59.44 -25.12 52.06 -21.6 44.61 C-16.64 34.15 -11.43 23.81 -6.22 13.47 C-5.71 12.47 -5.71 12.47 -5.19 11.44 C-4.55 10.17 -3.91 8.9 -3.27 7.63 C-2 5.11 -0.9 2.69 0 0 Z " fill="#FCB21F" transform="translate(304,280)"/>
<path d="M0 0 C0.94 -0 1.89 -0.01 2.86 -0.01 C7.34 0.17 11.79 0.68 16.25 1.12 C16.58 20.6 16.91 40.06 17.25 60.12 C9.99 60.78 2.73 61.44 -4.75 62.12 C-7.72 62.62 -7.72 62.62 -10.75 63.12 C-11.43 42.45 -11.92 21.81 -11.75 1.12 C-7.78 0.39 -4.03 -0.01 0 0 Z " fill="#D94A2F" transform="translate(351.75,273.875)"/>
<path d="M0 0 C1.2 0 1.2 0 2.43 0.01 C3.68 0.02 3.68 0.02 4.96 0.04 C5.8 0.04 6.65 0.04 7.52 0.05 C9.6 0.06 11.69 0.08 13.77 0.1 C15.53 4.06 16.38 7.85 17.1 12.12 C17.22 12.81 17.33 13.49 17.45 14.2 C17.84 16.46 18.21 18.72 18.59 20.98 C18.86 22.55 19.12 24.13 19.39 25.7 C19.94 29 20.5 32.29 21.05 35.59 C21.75 39.81 22.46 44.03 23.18 48.26 C23.73 51.51 24.28 54.76 24.82 58.01 C25.08 59.56 25.35 61.12 25.61 62.68 C25.98 64.85 26.34 67.03 26.7 69.21 C26.91 70.44 27.11 71.68 27.33 72.95 C27.77 76.1 27.77 76.1 27.77 80.1 C21.5 80.1 15.23 80.1 8.77 80.1 C7.43 75.41 6.28 70.99 5.36 66.23 C5.18 65.26 5.18 65.26 4.98 64.27 C4.58 62.16 4.17 60.05 3.77 57.93 C3.48 56.45 3.19 54.97 2.91 53.49 C2.16 49.61 1.41 45.73 0.66 41.85 C-0.09 37.9 -0.86 33.96 -1.62 30.01 C-2.48 25.57 -3.33 21.14 -4.19 16.7 C-4.32 16.02 -4.45 15.35 -4.58 14.65 C-4.93 12.83 -5.28 11.01 -5.63 9.2 C-6.15 6.49 -6.69 3.8 -7.23 1.1 C-4.46 0.18 -2.85 -0.02 0 0 Z " fill="#D84730" transform="translate(204.23046875,131.90234375)"/>
<path d="M0 0 C25.41 0 50.82 0 77 0 C77 3.96 77 7.92 77 12 C72.33 13.71 67.7 14.65 62.81 15.44 C56.1 16.58 49.44 17.72 43 20 C41.58 20.85 40.16 21.71 38.75 22.58 C36.12 23.92 36.12 23.92 33 25 C27.27 25.6 21.62 25.48 15.88 25.31 C14.33 25.29 12.79 25.26 11.24 25.24 C7.49 25.19 3.75 25.1 0 25 C0 16.75 0 8.5 0 0 Z " fill="#569E5C" transform="translate(125,450)"/>
<path d="M0 0 C3.78 -0.66 7.61 -0.51 11.44 -0.5 C13.01 -0.54 13.01 -0.54 14.62 -0.59 C17.5 -0.59 20.16 -0.52 23 0 C23.89 0.78 24.79 1.56 25.71 2.36 C26.35 3.67 26.35 3.67 27 5 C27.06 5.91 27.12 6.82 27.19 7.75 C25.99 11.03 24.67 12.87 22.5 15.56 C21.87 16.29 21.24 17.01 20.59 17.75 C18.86 19.93 18.86 19.93 18.23 22.64 C18.15 23.42 18.08 24.2 18 25 C18.71 27.25 18.71 27.25 20 29 C20.66 29.33 21.32 29.66 22 30 C25.44 30.19 28.4 30.15 31.75 29.31 C32.49 28.88 33.24 28.45 34 28 C35.83 25.49 35.83 25.49 37 23 C39.34 23.3 41.67 23.63 44 24 C44.33 24.33 44.66 24.66 45 25 C45.29 27.92 45.46 30.15 45 33 C43.06 35.75 43.06 35.75 40 38 C37.09 39.81 34.3 41.06 31 42 C26.88 42.59 23.11 42.66 19 42 C15.73 40.67 12.88 39.03 10 37 C9.38 37.54 9.38 37.54 8.74 38.09 C6.54 39.75 4.55 40.93 2 42 C-2.76 42.67 -7.24 42.6 -12 42 C-14.42 41.3 -16.3 40.51 -18.45 39.2 C-20 38 -20 38 -22.5 35.69 C-23 34.8 -23.49 33.91 -24 33 C-24.44 29.38 -24.44 29.38 -24 26 C-23.61 25.34 -23.22 24.68 -22.81 24 C-22.21 23.67 -21.62 23.34 -21 23 C-20.2 23 -19.39 23 -18.56 23 C-17.72 23.33 -16.87 23.66 -16 24 C-13.81 26.5 -13.81 26.5 -12 29 C-10.08 30.09 -10.08 30.09 -8.08 30.31 C-5.6 30.45 -3.46 30.44 -1 30 C1.7 28.32 3.85 26.33 6 24 C4.55 20.76 2.7 18.41 0.38 15.75 C-1.5 13.38 -1.5 13.38 -3 11 C-3.56 8.74 -3.56 8.74 -3.62 6.62 C-3.42 5.43 -3.21 4.23 -3 3 C-1.78 1.3 -1.78 1.3 0 0 Z " fill="#0F1235" transform="translate(640,524)"/>
<path d="M0 0 C0.66 0.66 1.32 1.32 2 2 C2.62 3.36 3.2 4.74 3.75 6.12 C5.51 10.12 7.41 13.67 10.12 17.09 C14.52 21.57 19.89 24.51 25.51 27.2 C33.56 30.79 41.62 32.67 50.25 34.31 C51.59 34.58 52.94 34.84 54.28 35.11 C57.52 35.75 60.76 36.38 64 37 C64 37.99 64 38.98 64 40 C34.96 40 5.92 40 -24 40 C-22.87 30.98 -22.87 30.98 -21.43 28.07 C-21.12 27.42 -20.8 26.78 -20.47 26.11 C-19.96 25.13 -19.96 25.13 -19.44 24.12 C-19.08 23.43 -18.73 22.74 -18.36 22.02 C-14.78 15.25 -10.54 9.33 -4.94 4.06 C-3.33 2.66 -1.67 1.32 0 0 Z " fill="#24888A" transform="translate(286,671)"/>
<path d="M0 0 C3.3 0 6.6 0 10 0 C12.84 11.58 15.02 23.27 17.23 34.98 C17.63 37.09 18.03 39.19 18.43 41.3 C19.26 45.69 20.09 50.07 20.92 54.46 C21.98 60.09 23.05 65.72 24.11 71.35 C24.94 75.69 25.76 80.02 26.58 84.36 C26.97 86.44 27.36 88.51 27.76 90.59 C28.31 93.48 28.85 96.37 29.4 99.26 C29.56 100.12 29.72 100.98 29.89 101.87 C31 107.77 31 107.77 31 110 C26.05 110 21.1 110 16 110 C12.39 88.85 9.07 67.67 5.92 46.45 C5.3 42.26 4.67 38.07 4.04 33.88 C3.55 30.61 3.07 27.34 2.58 24.06 C2.35 22.52 2.12 20.97 1.88 19.42 C1.56 17.28 1.25 15.14 0.93 13 C0.75 11.79 0.57 10.58 0.38 9.33 C0.02 6.18 -0.07 3.16 0 0 Z " fill="#5DA059" transform="translate(171,102)"/>
<path d="M0 0 C15.18 0 30.36 0 46 0 C45.67 1.98 45.34 3.96 45 6 C44.71 9.43 44.84 12.51 45 16 C45.99 19.63 46.98 23.26 48 27 C32.16 27 16.32 27 0 27 C0 18.09 0 9.18 0 0 Z " fill="#FCAF1F" transform="translate(100,486)"/>
<path d="M0 0 C4.62 0 9.24 0 14 0 C14 26.4 14 52.8 14 80 C9.05 80 4.1 80 -1 80 C-1.02 69.72 -1.04 59.43 -1.05 49.15 C-1.06 44.38 -1.06 39.6 -1.08 34.83 C-1.09 30.22 -1.09 25.62 -1.09 21.02 C-1.1 19.26 -1.1 17.5 -1.11 15.74 C-1.11 13.28 -1.11 10.82 -1.11 8.37 C-1.12 7.63 -1.12 6.9 -1.12 6.14 C-1.12 4.42 -1.07 2.71 -1 1 C-0.67 0.67 -0.34 0.34 0 0 Z " fill="#D94730" transform="translate(212,295)"/>
<path d="M0 0 C23.55 3.2 23.55 3.2 30 6 C36.56 9.56 36.56 9.56 39 12 C39.25 13.08 39.25 13.08 39.5 14.19 C39.34 15.12 39.17 16.04 39 17 C37.63 18.89 36.18 20.16 34.32 21.59 C25.96 26.65 15.31 27.87 5.88 29.81 C4.2 30.16 4.2 30.16 2.49 30.51 C1.44 30.72 0.39 30.93 -0.7 31.14 C-2.12 31.43 -2.12 31.43 -3.57 31.72 C-4.37 31.81 -5.17 31.9 -6 32 C-6.99 31.67 -7.98 31.34 -9 31 C-7.41 28.29 -5.92 25.91 -3.81 23.56 C-3.21 22.39 -2.62 21.21 -2 20 C-1.8 16.45 -1.88 12.99 -2.05 9.44 C-2 6 -2 6 -1.01 2.56 C-0.68 1.72 -0.34 0.87 0 0 Z " fill="#B43730" transform="translate(904,928)"/>
<path d="M0 0 C0.54 0.18 1.09 0.35 1.65 0.54 C2.21 2.66 2.21 2.66 2.65 5.54 C2.34 7.54 2 9.54 1.65 11.54 C1.35 14.26 1.25 16.82 1.65 19.54 C3.56 23.03 5.69 25.87 8.65 28.54 C8.15 30.02 8.15 30.02 7.65 31.54 C-4.93 30.28 -17.73 28.14 -29.45 23.24 C-31.59 22.11 -33.48 21.07 -35.35 19.54 C-37.11 17.54 -37.11 17.54 -38.35 15.54 C-37.73 12.97 -37.73 12.97 -36.35 10.54 C-35 8.98 -35 8.98 -33.35 7.54 C-31.56 6.68 -31.56 6.68 -29.58 6 C-28.84 5.75 -28.11 5.5 -27.35 5.24 C-26.17 4.86 -26.17 4.86 -24.98 4.47 C-24.18 4.21 -23.37 3.95 -22.55 3.68 C-6.74 -1.33 -6.74 -1.33 0 0 Z " fill="#B43730" transform="translate(120.3515625,928.46484375)"/>
<path d="M0 0 C18.15 0 36.3 0 55 0 C55.99 2.31 56.98 4.62 58 7 C58 7.99 58 8.98 58 10 C57.1 10.04 56.21 10.07 55.28 10.11 C39.17 10.96 24.98 14.19 10.01 20.14 C8.16 20.93 6.36 21.82 4.57 22.72 C3.3 23.35 3.3 23.35 2 24 C1.34 24 0.68 24 0 24 C0 16.08 0 8.16 0 0 Z " fill="#E28C18" transform="translate(100,524)"/>
<path d="M0 0 C2.06 0.25 2.06 0.25 5 1 C9.37 3.27 13.41 5.6 17 9 C22.06 15.33 25.25 22.42 28 30 C29.18 34.08 29.11 38.03 29.06 42.25 C29.06 43 29.05 43.74 29.05 44.51 C29.04 46.34 29.02 48.17 29 50 C25.98 49.11 23.34 48.21 20.66 46.55 C16.34 43.2 12.54 39.86 9.41 35.35 C5.88 29.47 2.88 23.44 1.18 16.78 C0.17 11.15 -0.22 5.71 0 0 Z " fill="#569E5C" transform="translate(262,89)"/>
<path d="M0 0 C0.5 0.99 0.5 0.99 1 2 C0.02 4.24 -1.02 6.39 -2.12 8.56 C-4.87 14.19 -7.07 19.79 -8.81 25.81 C-9.01 26.48 -9.2 27.15 -9.4 27.84 C-10.9 33.2 -11.9 38.51 -13 44 C-21.58 44 -30.16 44 -39 44 C-36.73 33.79 -36.73 33.79 -34.38 30 C-29.48 22.39 -23.78 16.35 -16.62 10.81 C-11.33 6.8 -5.82 3.23 0 0 Z " fill="#24888A" transform="translate(214,667)"/>
<path d="M0 0 C-0.15 5.89 -1.17 11.08 -3.19 16.62 C-5.08 21.21 -7.04 25.37 -10.2 29.22 C-13.74 32.72 -17.72 35.48 -22 38 C-25.31 39.44 -25.31 39.44 -28 40 C-29.67 40.02 -31.33 40.03 -33 40 C-33.06 36.56 -32.72 33.37 -32 30 C-29.53 23.91 -26.7 17.97 -22.57 12.81 C-18.85 8.74 -14.71 5.83 -10 3 C-6.79 1.49 -3.61 0 0 0 Z " fill="#589E5B" transform="translate(336,101)"/>
<path d="M0 0 C0.8 -0.17 1.61 -0.33 2.44 -0.5 C3.71 -0.25 3.71 -0.25 5 0 C7.31 2.38 8.84 4.7 10.38 7.62 C10.91 8.41 11.45 9.19 12 10 C14.6 12.05 14.6 12.05 18 13 C21.14 13.14 23.96 12.81 27 12 C29.97 10.52 29.97 10.52 32 8 C33.2 5.7 34.08 3.43 35 1 C35.33 0.67 35.66 0.34 36 0 C38.94 -0.19 38.94 -0.19 42 0 C42.66 0.66 43.32 1.32 44 2 C44.52 5.04 44.41 7.95 44 11 C42.49 14.08 40.8 16.18 38.42 18.63 C36.69 20.25 34.96 21.66 33 23 C29.74 24.38 26.9 24.91 23.39 25.25 C20.53 25.38 17.85 25.33 15 25 C10.7 23.63 7.4 21.29 3.75 18.69 C1.63 16.61 0.17 15.02 -1.38 12.56 C-3 9 -3 9 -3.44 5.75 C-3.29 4.84 -3.15 3.94 -3 3 C-2.61 2.38 -2.22 1.76 -1.81 1.12 C-1.21 0.75 -0.62 0.38 0 0 Z " fill="#101335" transform="translate(670,499)"/>
<path d="M0 0 C2.5 -0.38 2.5 -0.38 5 0 C6.62 1.12 6.62 1.12 8 3 C8.45 3.99 8.91 4.98 9.38 6 C9.91 6.99 10.45 7.98 11 9 C12.05 9.93 12.05 9.93 13.12 10.88 C15.81 11.92 17.6 12.29 20.44 12.44 C22.77 12.39 22.77 12.39 25 12 C28.44 10.54 28.44 10.54 31 8 C32.77 4.97 32.77 4.97 34 2 C34.66 1.34 35.32 0.68 36 0 C38.44 -0.31 38.44 -0.31 41 0 C41.93 0.5 41.93 0.5 42.88 1 C43.25 1.66 43.62 2.32 44 3 C44.05 6.16 43.94 8.07 43 11 C41.35 14.04 39.44 16.55 37 19 C34.26 21.05 31.44 22.55 28.15 23.58 C23.46 24.5 18.74 24.44 14 24 C10.98 23.09 8.56 21.83 6 20 C3.16 17.55 1.01 15.01 -1.31 12.06 C-1.87 11.05 -2.43 10.04 -3 9 C-3.44 5.81 -3.44 5.81 -3 3 C-2.61 2.38 -2.22 1.76 -1.81 1.12 C-1.21 0.75 -0.62 0.38 0 0 Z " fill="#101335" transform="translate(590,499)"/>
<path d="M0 0 C88.44 0 176.88 0 268 0 C267.67 4.95 267.34 9.9 267 15 C178.56 15 90.12 15 -1 15 C-0.67 13.02 -0.34 11.04 0 9 C0.66 10.32 1.32 11.64 2 13 C88.79 13 175.58 13 265 13 C265 9.37 265 5.74 265 2 C177.55 2 90.1 2 0 2 C0 1.34 0 0.68 0 0 Z " fill="#FCDD1D" transform="translate(101,223)"/>
<path d="M0 0 C0.33 0 0.66 0 1 0 C1 12.87 1 25.74 1 39 C-4.28 40.98 -9.56 42.96 -15 45 C-20.05 47.42 -20.05 47.42 -25 50 C-23.67 45.74 -22.05 41.84 -20.06 37.85 C-19.48 36.69 -18.9 35.52 -18.3 34.33 C-17.68 33.09 -17.06 31.86 -16.44 30.62 C-16.13 30 -15.81 29.38 -15.49 28.74 C-10.61 19 -5.52 9.4 0 0 Z " fill="#E18B18" transform="translate(329,301)"/>
<path d="M0 0 C88.44 0 176.88 0 268 0 C268.33 47.19 268.66 94.38 269 143 C267.35 142.67 265.7 142.34 264 142 C264.66 141.34 265.32 140.68 266 140 C266.3 137.49 266.3 137.49 266.24 134.52 C266.24 133.36 266.25 132.2 266.25 131 C266.24 129.72 266.23 128.43 266.23 127.1 C266.23 125.72 266.23 124.34 266.23 122.96 C266.23 119.25 266.22 115.54 266.2 111.83 C266.19 108.36 266.19 104.88 266.19 101.4 C266.18 91.23 266.15 81.05 266.12 70.88 C266.06 36.78 266.06 36.78 266 2 C179.21 2 92.42 2 3 2 C2.67 7.28 2.34 12.56 2 18 C1.67 18 1.34 18 1 18 C0.67 12.06 0.34 6.12 0 0 Z " fill="#FDAE20" transform="translate(100,69)"/>
<path d="M0 0 C51.48 0 102.96 0 156 0 C156 0.33 156 0.66 156 1 C104.85 1 53.7 1 1 1 C1.33 20.8 1.66 40.6 2 61 C6.95 60.5 6.95 60.5 12 60 C12.01 59.21 12.03 58.43 12.04 57.62 C12.12 54.04 12.22 50.46 12.31 46.88 C12.35 45.02 12.35 45.02 12.38 43.12 C12.42 41.93 12.45 40.73 12.49 39.49 C12.51 38.39 12.54 37.29 12.57 36.16 C13 33 13 33 14.34 29.72 C14.89 28.82 15.44 27.92 16 27 C16.99 26.34 17.98 25.68 19 25 C21.87 24.82 24.64 24.75 27.51 24.77 C28.38 24.77 29.25 24.77 30.14 24.77 C33.02 24.77 35.89 24.79 38.76 24.8 C40.75 24.81 42.74 24.81 44.74 24.81 C49.98 24.82 55.22 24.84 60.46 24.86 C65.81 24.88 71.16 24.89 76.51 24.9 C87.01 24.92 97.5 24.96 108 25 C108 25.33 108 25.66 108 26 C106.91 26 105.81 26.01 104.69 26.01 C94.39 26.05 84.09 26.11 73.79 26.18 C68.49 26.22 63.2 26.26 57.9 26.27 C52.79 26.29 47.68 26.32 42.57 26.37 C40.62 26.38 38.67 26.39 36.72 26.39 C33.99 26.39 31.26 26.42 28.53 26.45 C27.72 26.45 26.92 26.44 26.08 26.44 C23.55 26.44 23.55 26.44 20 27 C17.48 28.76 17.48 28.76 16 31 C14.67 34.36 14.8 37.93 14.68 41.52 C14.64 42.77 14.6 44.02 14.56 45.3 C14.52 46.61 14.48 47.91 14.44 49.25 C14.39 50.57 14.35 51.88 14.31 53.24 C14.2 56.49 14.1 59.75 14 63 C9.38 63 4.76 63 0 63 C0 42.21 0 21.42 0 0 Z " fill="#CA8A2A" transform="translate(100,412)"/>
<path d="M0 0 C55.11 0 110.22 0 167 0 C163.53 6.93 163.53 6.93 160 14 C107.2 14 54.4 14 0 14 C0.33 10.7 0.66 7.4 1 4 C1.33 4 1.66 4 2 4 C2.33 6.64 2.66 9.28 3 12 C54.48 12 105.96 12 159 12 C160.32 9.36 161.64 6.72 163 4 C163 3.34 163 2.68 163 2 C142.17 1.98 121.35 1.96 100.52 1.95 C90.85 1.94 81.18 1.94 71.51 1.92 C63.08 1.91 54.66 1.91 46.23 1.91 C41.77 1.9 37.31 1.9 32.84 1.89 C28.65 1.89 24.45 1.89 20.25 1.89 C18.71 1.89 17.16 1.88 15.62 1.88 C13.52 1.88 11.42 1.88 9.31 1.88 C7.55 1.88 7.55 1.88 5.74 1.88 C4.84 1.92 3.93 1.96 3 2 C2.01 2.5 2.01 2.5 1 3 C0.67 2.01 0.34 1.02 0 0 Z " fill="#FDDD1D" transform="translate(100,387)"/>
<path d="M0 0 C51.48 0 102.96 0 156 0 C155.01 3.96 154.02 7.92 153 12 C152.67 12 152.34 12 152 12 C152 8.7 152 5.4 152 2 C102.5 2 53 2 2 2 C2 21.14 2 40.28 2 60 C1.01 60.5 1.01 60.5 0 61 C0 40.87 0 20.74 0 0 Z " fill="#FDAE20" transform="translate(101,413)"/>
<path d="M0 0 C0.66 0 1.32 0 2 0 C2.33 31.68 2.66 63.36 3 96 C9.27 96.33 15.54 96.66 22 97 C22 97.33 22 97.66 22 98 C14.74 98 7.48 98 0 98 C0 65.66 0 33.32 0 0 Z " fill="#EFB71B" transform="translate(100,277)"/>
<path d="M0 0 C0.33 0 0.66 0 1 0 C1 5.61 1 11.22 1 17 C17.59 17.6 34.15 18.08 50.75 18 C62.87 17.94 74.91 18.24 87 19 C87 19.33 87 19.66 87 20 C58.29 20 29.58 20 0 20 C0 13.4 0 6.8 0 0 Z " fill="#EB9D20" transform="translate(100,70)"/>
<path d="M0 0 C18.15 0 36.3 0 55 0 C55.66 2.31 56.32 4.62 57 7 C55.29 5.37 54.07 4.13 53 2 C36.5 2 20 2 3 2 C3 7.94 3 13.88 3 20 C5.97 19.34 8.94 18.68 12 18 C8.87 20.52 5.65 22.33 2 24 C1.34 24 0.68 24 0 24 C0 16.08 0 8.16 0 0 Z " fill="#F6A61E" transform="translate(100,524)"/>
<path d="M0 0 C0 18.48 0 36.96 0 56 C-0.33 56 -0.66 56 -1 56 C-1.5 29.76 -1.5 29.76 -2 3 C-5.06 1.98 -7.12 1.88 -10.32 1.9 C-11.35 1.91 -12.38 1.91 -13.44 1.91 C-15.05 1.92 -15.05 1.92 -16.69 1.94 C-18.31 1.94 -18.31 1.94 -19.97 1.95 C-22.65 1.96 -25.32 1.98 -28 2 C-28 1.34 -28 0.68 -28 0 C-18.75 -2.06 -9.32 -0.93 0 0 Z " fill="#DA7F1C" transform="translate(368,275)"/>
<path d="M0 0 C25.41 0 50.82 0 77 0 C77 2.64 77 5.28 77 8 C76.67 8 76.34 8 76 8 C75.01 5.03 75.01 5.03 74 2 C37.37 1.5 37.37 1.5 0 1 C0 0.67 0 0.34 0 0 Z " fill="#C2C12F" transform="translate(125,450)"/>
<path d="M0 0 C0.33 0 0.66 0 1 0 C1.67 4.08 2.34 8.17 3 12.25 C3.19 13.41 3.38 14.57 3.58 15.76 C3.76 16.88 3.94 17.99 4.12 19.14 C4.29 20.17 4.46 21.19 4.63 22.25 C5 25 5 25 5 29 C3.35 29 1.7 29 0 29 C0 19.43 0 9.86 0 0 Z " fill="#F1D98F" transform="translate(171,183)"/>
<path d="M0 0 C0.33 0 0.66 0 1 0 C1 12.87 1 25.74 1 39 C-6.43 41.48 -6.43 41.48 -14 44 C-14 43.34 -14 42.68 -14 42 C-9.71 40.35 -5.42 38.7 -1 37 C-1 27.43 -1 17.86 -1 8 C-1.66 7.67 -2.32 7.34 -3 7 C-2.36 4.99 -1.69 2.99 -1 1 C-0.67 0.67 -0.34 0.34 0 0 Z " fill="#F8AA20" transform="translate(329,301)"/>
<path d="M0 0 C0.66 0.33 1.32 0.66 2 1 C-6.25 9.25 -14.5 17.5 -23 26 C-23 25.01 -23 24.02 -23 23 C-21.41 21.02 -19.81 19.21 -18.06 17.38 C-17.57 16.85 -17.07 16.32 -16.56 15.77 C-4.54 3.03 -4.54 3.03 0 0 Z " fill="#FBCA1D" transform="translate(329,537)"/>
<path d="M0 0 C0.66 0.33 1.32 0.66 2 1 C4 1.13 6 1.2 8 1.25 C9.19 1.28 10.39 1.31 11.63 1.35 C14.16 1.41 16.7 1.46 19.24 1.52 C20.44 1.55 21.64 1.59 22.87 1.62 C24.53 1.66 24.53 1.66 26.21 1.7 C27.59 1.85 27.59 1.85 29 2 C30.49 2.99 30.49 2.99 32 4 C20.78 4 9.56 4 -2 4 C-1.34 2.68 -0.68 1.36 0 0 Z " fill="#E29621" transform="translate(335,208)"/>
<path d="M0 0 C0.66 0.33 1.32 0.66 2 1 C-5.59 8.59 -13.18 16.18 -21 24 C-21.66 23.67 -22.32 23.34 -23 23 C-15.7 14.87 -8.24 7.19 0 0 Z " fill="#FACA1E" transform="translate(258,634)"/>
<path d="M0 0 C0.33 0.99 0.66 1.98 1 3 C0.21 5.04 0.21 5.04 -1.05 7.34 C-1.5 8.18 -1.95 9.01 -2.42 9.87 C-2.9 10.74 -3.38 11.61 -3.88 12.5 C-4.81 14.22 -5.75 15.94 -6.68 17.66 C-7.31 18.8 -7.31 18.8 -7.95 19.96 C-9.12 22.11 -9.12 22.11 -10 25 C-8.02 24.67 -6.04 24.34 -4 24 C-5.58 25.74 -6.99 26.99 -9.04 28.17 C-9.75 28.5 -10.46 28.84 -11.19 29.19 C-11.9 29.53 -12.62 29.88 -13.36 30.23 C-13.9 30.48 -14.44 30.74 -15 31 C-13.71 26.87 -12.16 23.07 -10.21 19.2 C-9.68 18.14 -9.15 17.08 -8.61 15.99 C-8.06 14.9 -7.51 13.81 -6.94 12.69 C-6.38 11.58 -5.83 10.47 -5.26 9.33 C-1.14 1.14 -1.14 1.14 0 0 Z " fill="#DC9928" transform="translate(319,320)"/>
<path d="M0 0 C0.99 0.33 1.98 0.66 3 1 C2.34 1.66 1.68 2.32 1 3 C8.92 3.33 16.84 3.66 25 4 C25 4.33 25 4.66 25 5 C12.79 5 0.58 5 -12 5 C-9.39 3.26 -7.42 2.31 -4.5 1.31 C-3.34 0.9 -3.34 0.9 -2.16 0.49 C-1.44 0.33 -0.73 0.17 0 0 Z " fill="#F6A920" transform="translate(317,149)"/>
<path d="M0 0 C0.66 0.33 1.32 0.66 2 1 C4.55 5.74 6.42 10.86 8 16 C1.23 16.11 -5.29 15.88 -12 15 C-12 14.67 -12 14.34 -12 14 C-4.08 13.5 -4.08 13.5 4 13 C2.35 7.55 2.35 7.55 0.88 4.81 C0.59 4.21 0.3 3.62 0 3 C0 2.01 0 1.02 0 0 Z " fill="#E89E22" transform="translate(257,196)"/>
<path d="M0 0 C0.66 0.33 1.32 0.66 2 1 C1.45 1.53 0.89 2.06 0.32 2.61 C-0.4 3.32 -1.13 4.02 -1.88 4.75 C-2.95 5.79 -2.95 5.79 -4.05 6.86 C-6.02 8.88 -6.02 8.88 -7.24 11.05 C-8.18 13.18 -8.18 13.18 -8.25 16.38 C-8 19.93 -7.29 22.69 -6 26 C-7.71 24.37 -8.93 23.13 -10 21 C-10.57 17.56 -10.61 14.44 -10 11 C-8.08 7.59 -5.77 4.76 -3 2 C-2.01 1.34 -1.02 0.68 0 0 Z " fill="#F8CC1E" transform="translate(233,877)"/>
<path d="M0 0 C0.33 0 0.66 0 1 0 C1.24 3.04 1.31 5.97 1 9 C0.5 9.97 0.01 10.94 -0.5 11.94 C-3 14 -3 14 -5.05 14.74 C-7.01 15.25 -9.01 15.63 -11 16 C-11.66 11.71 -12.32 7.42 -13 3 C-12.34 3.66 -11.68 4.32 -11 5 C-10.14 7.63 -9.61 10.3 -9 13 C-6.59 12.89 -6.59 12.89 -4 12 C-2.1 9.89 -2.1 9.89 -1 7 C-0.28 3.3 -0.28 3.3 0 0 Z " fill="#F9D01C" transform="translate(472,696)"/>
<path d="M0 0 C4.84 0.99 9.48 1.96 14 4 C14 4.33 14 4.66 14 5 C7.4 4.67 0.8 4.34 -6 4 C-6 3.67 -6 3.34 -6 3 C-4.02 2.67 -2.04 2.34 0 2 C0 1.34 0 0.68 0 0 Z " fill="#F5CC1E" transform="translate(101,871)"/>
<path d="M0 0 C5.94 0 11.88 0 18 0 C17.34 5.61 16.68 11.22 16 17 C15.67 17 15.34 17 15 17 C15 12.05 15 7.1 15 2 C10.05 1.67 5.1 1.34 0 1 C0 0.67 0 0.34 0 0 Z " fill="#FAD91D" transform="translate(128,486)"/>
<path d="M0 0 C0.33 0.66 0.66 1.32 1 2 C0.03 4.02 -0.97 6.02 -2 8 C-2 8.66 -2 9.32 -2 10 C2.62 10 7.24 10 12 10 C12 10.66 12 11.32 12 12 C6.06 12 0.12 12 -6 12 C-4.02 8.04 -2.04 4.08 0 0 Z " fill="#FAD41C" transform="translate(264,363)"/>
<path d="M0 0 C1.44 1.69 1.44 1.69 3 4 C3.33 5.65 3.66 7.3 4 9 C-2.6 8.67 -9.2 8.34 -16 8 C-16 7.67 -16 7.34 -16 7 C-8.08 6.5 -8.08 6.5 0 6 C0 4.02 0 2.04 0 0 Z " fill="#F9D41E" transform="translate(144,504)"/>
<path d="M0 0 C4.47 1.42 8.71 3.11 13 5 C13 5.99 13 6.98 13 8 C10.69 8 8.38 8 6 8 C6.33 7.01 6.66 6.02 7 5 C4.69 3.68 2.38 2.36 0 1 C0 0.67 0 0.34 0 0 Z " fill="#F5A61F" transform="translate(277,146)"/>
<path d="M0 0 C3.33 3.83 5.05 8.38 7 13 C4.19 14.56 4.19 14.56 1 16 C0.01 15.67 -0.98 15.34 -2 15 C-0.02 14.01 1.96 13.02 4 12 C3.71 11.39 3.42 10.77 3.12 10.14 C2.75 9.33 2.38 8.52 2 7.69 C1.44 6.49 1.44 6.49 0.88 5.26 C0.44 4.14 0.44 4.14 0 3 C0 2.01 0 1.02 0 0 Z " fill="#FAD01C" transform="translate(544,542)"/>
<path d="M0 0 C1.32 1.32 2.64 2.64 4 4 C3.75 6.06 3.75 6.06 3 8 C3 8.99 3 9.98 3 11 C2.34 12.32 1.68 13.64 1 15 C0.67 10.05 0.34 5.1 0 0 Z " fill="#E08519" transform="translate(340,278)"/>
<path d="M0 0 C0.66 0.33 1.32 0.66 2 1 C1.01 2.49 1.01 2.49 0 4 C-0.46 6.74 -0.46 6.74 -0.62 9.69 C-0.7 10.68 -0.77 11.68 -0.85 12.7 C-0.9 13.46 -0.95 14.22 -1 15 C-3.02 14.4 -5.02 13.73 -7 13 C-7.33 12.34 -7.66 11.68 -8 11 C-6.35 11 -4.7 11 -3 11 C-2.87 10.29 -2.73 9.58 -2.6 8.85 C-2.42 7.93 -2.24 7.01 -2.06 6.06 C-1.89 5.15 -1.71 4.23 -1.54 3.29 C-1.36 2.53 -1.18 1.78 -1 1 C-0.67 0.67 -0.34 0.34 0 0 Z " fill="#EDA323" transform="translate(331,263)"/>
<path d="M0 0 C0.99 0.33 1.98 0.66 3 1 C3 1.99 3 2.98 3 4 C-3.43 4.5 -3.43 4.5 -10 5 C-8 3 -8 3 -6.16 2.11 C-5.12 1.72 -5.12 1.72 -4.06 1.31 C-3.37 1.04 -2.68 0.77 -1.97 0.49 C-1.32 0.33 -0.67 0.17 0 0 Z " fill="#FBCA1D" transform="translate(924,871)"/>
<path d="M0 0 C0.66 0.33 1.32 0.66 2 1 C-1.3 4.3 -4.6 7.6 -8 11 C-8 10.01 -8 9.02 -8 8 C-5.53 4.72 -3.43 2.28 0 0 Z " fill="#FAC21D" transform="translate(902,404)"/>
<path d="M0 0 C0.33 0.99 0.66 1.98 1 3 C-0.62 6.06 -0.62 6.06 -3 9 C-5.75 10.38 -5.75 10.38 -8 11 C-7.67 10.01 -7.34 9.02 -7 8 C-6.38 7.73 -5.76 7.46 -5.12 7.19 C-4.07 6.6 -4.07 6.6 -3 6 C-1.23 2.97 -1.23 2.97 0 0 Z " fill="#F4C81F" transform="translate(882,538)"/>
<path d="M0 0 C0.33 0 0.66 0 1 0 C1 2.97 1 5.94 1 9 C-0.32 8.34 -1.64 7.68 -3 7 C-2.36 4.99 -1.69 2.99 -1 1 C-0.67 0.67 -0.34 0.34 0 0 Z " fill="#EFAA23" transform="translate(329,301)"/>
<path d="M0 0 C0.66 0.99 1.32 1.98 2 3 C5.07 3.73 5.07 3.73 8 4 C7.01 4.66 6.02 5.32 5 6 C3.01 6.39 1.01 6.73 -1 7 C-0.67 4.69 -0.34 2.38 0 0 Z " fill="#D18020" transform="translate(342,330)"/>
<path d="M0 0 C0.33 0 0.66 0 1 0 C1.04 0.77 1.07 1.54 1.11 2.34 C1.18 3.34 1.24 4.34 1.31 5.38 C1.37 6.37 1.43 7.37 1.49 8.4 C1.66 9.26 1.83 10.12 2 11 C2.99 11.66 3.98 12.32 5 13 C3.35 13.33 1.7 13.66 0 14 C0 9.38 0 4.76 0 0 Z " fill="#FBD71C" transform="translate(835,684)"/>
<path d="M0 0 C2.12 0.44 2.12 0.44 4 1 C3.34 1.66 2.68 2.32 2 3 C3.32 4.65 4.64 6.3 6 8 C4.25 7.31 4.25 7.31 2 6 C-0.25 3.38 -0.25 3.38 -2 1 C-1.34 0.67 -0.68 0.34 0 0 Z " fill="#F8D31D" transform="translate(572,560)"/>
<path d="M0 0 C4.29 0.66 8.58 1.32 13 2 C12.67 2.99 12.34 3.98 12 5 C10.19 4.55 8.37 4.09 6.56 3.62 C5.55 3.37 4.54 3.11 3.5 2.85 C2.68 2.57 1.85 2.29 1 2 C0.67 1.34 0.34 0.68 0 0 Z " fill="#FAD31C" transform="translate(722,551)"/>
<path d="M0 0 C0.99 0 1.98 0 3 0 C2.78 1.92 2.78 1.92 2.56 3.88 C2.48 4.59 2.4 5.31 2.32 6.05 C2 8 2 8 1 10 C0.34 10 -0.32 10 -1 10 C-0.84 8.91 -0.67 7.81 -0.5 6.69 C0.07 3.12 0.07 3.12 0 0 Z " fill="#F4C81E" transform="translate(738,532)"/>
<path d="M0 0 C1.32 0.33 2.64 0.66 4 1 C2.35 4.3 0.7 7.6 -1 11 C-1.33 10.01 -1.66 9.02 -2 8 C-1.38 5.98 -0.72 3.98 0 2 C0 1.34 0 0.68 0 0 Z " fill="#F7CA1C" transform="translate(263,387)"/>
<path d="M0 0 C4.29 0 8.58 0 13 0 C13 0.33 13 0.66 13 1 C12.37 1.05 11.75 1.1 11.1 1.15 C10.28 1.22 9.47 1.3 8.62 1.38 C7.81 1.44 7 1.51 6.16 1.59 C5.45 1.72 4.74 1.86 4 2 C3.34 2.66 2.68 3.32 2 4 C1.34 2.68 0.68 1.36 0 0 Z " fill="#F9DC1E" transform="translate(555,539)"/>
</svg>
