<svg version="1.1" xmlns="http://www.w3.org/2000/svg" style="display: block;" viewBox="0 0 2048 2048" width="1024" height="1024">
<path transform="translate(0,0)" fill="rgb(14,20,55)" d="M 0 0 L 2048 0 L 2048 1574.44 L 2048 1750.96 L 2048 2048 L 0 2048 L 0 1750.92 L 0 1574.34 L 0 0 z"/>
<path transform="translate(0,0)" fill="rgb(255,228,166)" d="M 0 0 L 2048 0 L 2048 1574.44 C 2013.02 1573 1977.52 1574.24 1942.49 1574.14 C 1955.93 1482.13 1956.96 1387.61 1957.09 1294.82 C 1957.14 1263.98 1959.35 1231.21 1955.75 1200.58 C 1954.49 1189.68 1951.81 1179 1947.77 1168.8 C 1929.75 1122.81 1897.8 1108.84 1855.57 1090.2 C 1878.04 1051.49 1873.82 1011.07 1868.68 968.374 C 1866.79 952.623 1864.79 936.353 1867.62 920.598 C 1870.66 903.659 1879.14 889.248 1886.44 873.923 C 1895.07 855.798 1898.83 837.49 1891.88 818.024 C 1886.18 802.09 1874.39 789.077 1859.08 781.853 C 1843.88 774.552 1826.35 773.808 1810.58 779.795 C 1751.01 801.936 1736.65 884.907 1743.42 939.925 C 1746.81 967.466 1758.18 994.76 1757.87 1022.57 C 1757.7 1037.11 1752.89 1048.7 1746.8 1061.71 C 1736.07 1062.15 1725.29 1062.16 1714.55 1062.37 L 1714.7 948.998 C 1714.72 911.627 1718.28 870.466 1708.82 834.14 C 1699.63 798.824 1683.35 771.737 1661.13 743.325 C 1663.53 721.761 1664.28 700.078 1667.08 678.504 C 1674.54 620.998 1688.7 566.871 1707.1 511.98 C 1783.8 478.275 1843.64 415.356 1880.03 340.406 C 1904.9 289.197 1926.44 214.098 1906.94 158.977 C 1901.4 143.305 1891.16 129.149 1875.62 122.157 C 1857.09 113.821 1838.14 116.289 1819.58 123.175 C 1761.07 144.887 1719.36 202.968 1694.2 258.116 C 1667.83 315.906 1652.86 381.454 1664.99 444.731 C 1669.11 466.206 1676.48 486.547 1684.11 506.961 C 1673.45 538.411 1664.06 569.81 1657.06 602.29 C 1653.1 620.714 1650.75 639.447 1646.63 657.808 C 1645.25 628.063 1641.26 598.303 1638.04 568.713 C 1636.67 556.111 1634.81 543.344 1634.42 530.673 C 1633.77 509.474 1638 488.004 1638.88 466.755 C 1641.83 402.56 1626.25 338.872 1594.01 283.28 C 1562.54 228.402 1512.05 176.331 1449.38 159.721 C 1429.83 154.538 1408.11 152.045 1390 163.128 C 1375.82 171.813 1367.67 187.786 1363.83 203.512 C 1349.51 262.17 1378.24 341.254 1409.21 391.671 C 1443.6 447.657 1495.19 494.228 1556.39 518.892 C 1574.42 526.158 1592.89 530.906 1611.74 535.386 C 1618.51 595.142 1624.69 654.965 1630.26 714.844 C 1600.51 693.151 1566.04 678.822 1529.68 673.035 C 1491.55 666.796 1452.99 667.968 1414.5 667.998 L 1282.91 668.035 L 817.841 668.072 L 817.956 302.283 L 817.949 154.431 C 817.946 128.473 818.737 102.232 817.748 76.3024 C 817.537 70.7479 817.921 63.573 813.42 59.7187 C 809.591 56.4406 804.534 56.1128 799.697 55.9516 C 754.708 54.4517 709.171 56.0576 664.117 56.0609 L 388.242 56.0538 L 219.591 56.0171 L 167.296 55.9351 C 156.89 55.9234 146.113 55.3635 135.753 56.3391 C 130.752 56.8101 125.961 57.438 122.779 61.7446 C 120.561 64.7457 120.427 69.8273 120.202 73.4249 C 118.62 98.6565 119.99 124.836 119.996 150.151 L 120.034 300.569 L 120.048 1158.6 C 119.946 1169.15 113.189 1180.23 109.895 1190.11 C 106.177 1201.26 104.122 1213.36 103.416 1225.08 C 100.245 1277.72 101.628 1331.43 102.803 1384.15 C 104.212 1447.41 105.844 1511.33 113.598 1574.18 L 0 1574.34 L 0 0 z"/>
<path transform="translate(0,0)" fill="rgb(217,72,50)" d="M 113.598 1574.18 C 121.637 1629.1 130.611 1689.82 178.212 1725.65 C 192.862 1736.68 209.41 1744.38 226.947 1749.55 C 240.508 1752.98 254.245 1755.06 267.811 1758.27 C 260.894 1790.74 253.457 1823.27 247.566 1855.93 C 244.595 1870.03 238.553 1889.65 246.846 1902.7 C 250.954 1909.16 257.475 1913.26 264.202 1916.57 C 274.884 1919.29 285.298 1920.05 296.305 1919.58 C 301.627 1918.78 306.821 1917.76 311.694 1915.38 C 337.137 1902.96 344.414 1872.46 353.24 1847.86 C 357.691 1849.15 469.217 1845.09 473.761 1843.95 C 475.982 1843.39 476.046 1843.04 477.029 1841.14 C 486.389 1841.75 495.772 1841 505.102 1840.19 C 509.388 1842.64 516.393 1842.05 521.225 1842.14 C 540.73 1842.47 560.268 1841.21 579.782 1841.03 C 644.173 1839.89 708.572 1839.21 772.973 1838.98 C 976.621 1837.87 1180.27 1838.35 1383.91 1840.44 C 1453.38 1841.64 1522.83 1843.51 1592.26 1846.05 C 1613.47 1846.84 1634.67 1847.8 1655.86 1848.93 C 1669.47 1849.69 1683.37 1851.14 1696.98 1851.01 C 1704.34 1874.78 1709.76 1901.64 1733.78 1914.25 C 1740.41 1917.73 1746.34 1918.09 1753.15 1920.22 C 1760.59 1920.01 1767.81 1919.73 1775.16 1918.52 C 1784.02 1916.76 1793.39 1912.87 1799.15 1905.66 C 1809.45 1892.77 1804.64 1872.08 1802.59 1857 L 1785.69 1758.22 C 1800.3 1756.87 1814.29 1753.56 1828.56 1750.26 C 1836.26 1751.39 1844.46 1750.77 1852.25 1750.8 L 1898.07 1750.83 L 2048 1750.96 L 2048 2048 L 0 2048 L 0 1750.92 L 0 1574.34 L 113.598 1574.18 z"/>
<path transform="translate(0,0)" fill="rgb(180,55,51)" d="M 505.102 1840.19 C 509.388 1842.64 516.393 1842.05 521.225 1842.14 C 540.73 1842.47 560.268 1841.21 579.782 1841.03 C 644.173 1839.89 708.572 1839.21 772.973 1838.98 C 976.621 1837.87 1180.27 1838.35 1383.91 1840.44 C 1453.38 1841.64 1522.83 1843.51 1592.26 1846.05 C 1613.47 1846.84 1634.67 1847.8 1655.86 1848.93 C 1669.47 1849.69 1683.37 1851.14 1696.98 1851.01 C 1704.34 1874.78 1709.76 1901.64 1733.78 1914.25 C 1740.41 1917.73 1746.34 1918.09 1753.15 1920.22 L 1758.41 1921.42 C 1679.58 1932.69 1590.48 1935.47 1510.5 1938 C 1429.95 1941.13 1349.35 1943.04 1268.74 1943.73 C 1037 1947.19 805.222 1945.75 573.55 1939.42 C 510.104 1937.48 446.692 1934.57 383.336 1930.69 C 364.498 1929.56 345.668 1928.29 326.848 1926.89 C 316.218 1926.13 305.364 1924.77 294.713 1924.92 C 284.436 1924.1 274.041 1922.04 263.881 1920.3 C 238.712 1919.23 193.241 1910.8 172.932 1896.61 C 169.095 1893.92 164.655 1890.32 164.109 1885.36 C 163.835 1882.87 165.158 1880.54 166.853 1878.81 C 179.976 1865.4 228.114 1855.8 247.566 1855.93 C 244.595 1870.03 238.553 1889.65 246.846 1902.7 C 250.954 1909.16 257.475 1913.26 264.202 1916.57 C 274.884 1919.29 285.298 1920.05 296.305 1919.58 C 301.627 1918.78 306.821 1917.76 311.694 1915.38 C 337.137 1902.96 344.414 1872.46 353.24 1847.86 C 357.691 1849.15 469.217 1845.09 473.761 1843.95 C 475.982 1843.39 476.046 1843.04 477.029 1841.14 C 486.389 1841.75 495.772 1841 505.102 1840.19 z"/>
<path transform="translate(0,0)" fill="rgb(249,169,33)" d="M 113.598 1574.18 C 121.637 1629.1 130.611 1689.82 178.212 1725.65 C 192.862 1736.68 209.41 1744.38 226.947 1749.55 C 221.034 1752.76 23.6491 1750.92 0 1750.92 L 0 1574.34 L 113.598 1574.18 z"/>
<path transform="translate(0,0)" fill="rgb(180,55,51)" d="M 1802.59 1857 C 1821.2 1856.56 1869.79 1864.77 1882.8 1877.89 C 1884.94 1880.06 1886.52 1883.01 1886.11 1886.15 C 1885.44 1891.24 1880.39 1895.35 1876.33 1897.85 C 1863.35 1905.81 1793.5 1923.42 1779.4 1920.08 C 1777.98 1919.74 1776.5 1919.06 1775.16 1918.52 C 1784.02 1916.76 1793.39 1912.87 1799.15 1905.66 C 1809.45 1892.77 1804.64 1872.08 1802.59 1857 z"/>
<path transform="translate(0,0)" fill="rgb(217,72,50)" d="M 601.746 1762.8 L 1669.61 1762.86 C 1678.55 1792.26 1687.23 1821.88 1696.98 1851.01 C 1683.37 1851.14 1669.47 1849.69 1655.86 1848.93 C 1634.67 1847.8 1613.47 1846.84 1592.26 1846.05 C 1522.83 1843.51 1453.38 1841.64 1383.91 1840.44 C 1180.27 1838.35 976.621 1837.87 772.973 1838.98 C 708.572 1839.21 644.173 1839.89 579.782 1841.03 C 560.268 1841.21 540.73 1842.47 521.225 1842.14 C 516.393 1842.05 509.388 1842.64 505.102 1840.19 C 550.103 1828.01 578.377 1802.35 601.746 1762.8 z"/>
<path transform="translate(0,0)" fill="rgb(249,169,33)" d="M 1942.49 1574.14 C 1977.52 1574.24 2013.02 1573 2048 1574.44 L 2048 1750.96 L 1898.07 1750.83 L 1852.25 1750.8 C 1844.46 1750.77 1836.26 1751.39 1828.56 1750.26 C 1846.11 1744.09 1863.07 1737.15 1878.05 1725.9 C 1924.45 1691.05 1935.02 1628.02 1942.49 1574.14 z"/>
<path transform="translate(0,0)" fill="rgb(217,72,50)" d="M 381.85 1761.87 C 397.924 1761.87 413.997 1761.95 430.069 1762.12 C 428.011 1767.04 426.022 1771.85 424.999 1777.11 C 422.344 1790.77 424.764 1804.75 432.712 1816.27 C 443.482 1831.89 459.361 1837.59 477.029 1841.14 C 476.046 1843.04 475.982 1843.39 473.761 1843.95 C 469.217 1845.09 357.691 1849.15 353.24 1847.86 L 381.85 1761.87 z"/>
<path transform="translate(0,0)" fill="rgb(249,169,33)" d="M 1149.73 819.59 C 1181.93 828.08 1212.66 908.897 1229.18 915.354 C 1234.68 917.503 1273.5 913.321 1282.78 913.085 C 1293.77 912.805 1340.84 917.773 1344.58 916.422 C 1358.81 911.287 1394.24 836.358 1426.64 819.62 L 1427.94 818.966 C 1432.15 823.42 1434.87 828.663 1437.16 834.284 C 1448.96 863.142 1455.27 895.295 1462.42 925.612 C 1468.81 952.751 1475.91 980.171 1480.22 1007.72 C 1481.92 1018.58 1482.7 1029.4 1482.97 1040.38 C 1474.25 1042.63 1456.86 1044.45 1451.55 1052.06 C 1450.2 1054 1449.89 1056.32 1450.22 1058.61 C 1450.68 1061.68 1452.02 1064.68 1454.8 1066.33 C 1461.94 1070.55 1474.85 1065.37 1482.38 1063.32 C 1481.36 1070.44 1479.97 1077.41 1478.45 1084.43 C 1470.63 1083.62 1455.06 1079.49 1448.06 1082.85 C 1444.91 1084.36 1442.09 1088.15 1441.32 1091.55 C 1440.77 1093.93 1440.76 1096.13 1442.24 1098.2 C 1447.25 1105.19 1462.39 1105.34 1470.38 1106.42 C 1460.22 1129.65 1441.42 1153.96 1417.55 1164.23 C 1412.06 1166.59 1403.21 1167.79 1399.32 1172.22 C 1397.64 1174.14 1396.57 1177.47 1397.04 1180.07 C 1397.51 1182.61 1398.56 1184.67 1400.84 1186.03 C 1407.11 1189.78 1415.84 1187.68 1422.5 1190.96 C 1436.47 1197.84 1450 1205.87 1463.76 1213.18 C 1487.42 1225.58 1511.31 1237.54 1535.41 1249.06 C 1573.45 1267.05 1615.62 1279.98 1650.48 1303.85 C 1668.74 1316.35 1694.44 1335.59 1698.37 1359.09 C 1699.82 1367.72 1697.96 1376.76 1692.7 1383.83 C 1686.89 1391.64 1678.84 1394.39 1669.65 1395.99 C 1670.09 1383.27 1670.1 1367.75 1662.21 1357.01 C 1659.93 1353.89 1656.77 1351.54 1652.86 1351.06 C 1649.66 1350.67 1646.81 1351.23 1644.4 1353.51 C 1642.24 1355.54 1640.78 1359.85 1641.37 1362.71 C 1641.99 1365.66 1644.39 1368.34 1645.8 1370.98 C 1649.39 1377.66 1648.13 1387.53 1648.01 1394.84 C 1627.58 1388.7 1611.33 1376.38 1593.31 1365.46 C 1575.57 1354.7 1557.1 1346.06 1537.23 1340.07 C 1496.22 1327.71 1453.37 1321.19 1411.09 1314.8 C 1393.36 1312.12 1370.07 1311.85 1353.73 1305.54 C 1337.95 1299.44 1310.95 1280.42 1295.7 1270.48 C 1290.72 1267.23 1285.65 1263.27 1280.35 1260.65 C 1277.8 1259.39 1274.88 1258.69 1272.02 1258.89 C 1268.97 1259.11 1265.76 1260.54 1263.92 1263.04 C 1262.37 1265.14 1261.75 1267.67 1262.31 1270.22 C 1262.85 1272.65 1264.29 1275.01 1266.09 1276.71 C 1275.07 1285.22 1288.29 1291.7 1298.89 1298.29 C 1331.59 1318.63 1365.13 1337.43 1398.01 1357.46 C 1435.89 1380.52 1508.3 1430.12 1518.56 1474.1 C 1521.23 1485.57 1521.64 1502.01 1514.86 1512.06 C 1509.91 1519.4 1503.26 1521.5 1495.04 1522.89 C 1495.06 1521.52 1495.05 1520.15 1495.01 1518.78 C 1494.7 1507.94 1491.68 1496.18 1483.2 1488.77 C 1480.1 1486.05 1477.64 1484.94 1473.46 1485.18 C 1471.4 1486.26 1470.06 1487.14 1469 1489.3 C 1465.71 1495.95 1467.94 1501.73 1470.12 1508.24 C 1471.93 1513.65 1472.24 1517.97 1472.28 1523.61 C 1465.52 1522.32 1459.22 1520.95 1453.16 1517.47 C 1442.49 1511.35 1434.39 1501.87 1426.03 1493.04 C 1409.86 1475.98 1394.1 1458.67 1373.36 1446.97 C 1343.91 1430.35 1310.87 1421.01 1278.64 1411.47 C 1239.93 1400 1200.29 1389.21 1163.02 1373.59 C 1148.55 1367.53 1133.09 1360.71 1120.51 1351.25 C 1113.17 1345.73 1100.76 1330.57 1092.77 1328.32 C 1090.11 1327.57 1088.63 1328.12 1086.31 1329.36 C 1084.28 1331.71 1083.27 1333.5 1083.03 1336.66 C 1082.49 1343.84 1086.49 1347.63 1090.81 1352.65 C 1053.85 1349.01 1017.16 1347.69 980.065 1346.51 C 967.075 1346.1 952.66 1348.15 939.945 1346.36 C 931.101 1345.12 922.339 1340.41 913.887 1337.5 C 905.844 1334.73 897.485 1333.09 889.171 1331.36 C 907.278 1308.37 922.18 1286.12 926.442 1256.54 C 931.449 1220.28 921.871 1183.51 899.808 1154.3 C 886.352 1136.33 859.494 1114.65 836.51 1111.93 C 833.089 1111.53 830.083 1111.71 827.294 1113.97 C 824.724 1116.06 822.493 1118.59 822.414 1122.06 C 822.185 1132.12 845.11 1137.13 851.973 1141.32 C 861.749 1147.29 870.765 1154.13 878.371 1162.73 C 897.262 1184.11 907.407 1215.65 905.528 1244.02 C 903.499 1274.64 884.919 1307.9 862.037 1327.9 C 861.696 1328.2 861.348 1328.49 861.004 1328.78 L 852.243 1328.2 C 840.413 1327.31 826.534 1323.93 814.868 1325.73 C 811.512 1326.25 809.205 1327.27 807.251 1330.2 C 805.59 1332.69 804.36 1335.45 805.432 1338.48 C 807.039 1343.02 812.643 1345.59 816.923 1346.8 C 824.495 1348.93 833.488 1348.91 841.316 1349.63 C 869.195 1352.19 901.424 1353.01 926.166 1367.41 C 935.427 1372.8 943.411 1380.38 945.95 1391.13 C 947.563 1397.96 947.227 1407.43 943.335 1413.49 C 938.58 1420.91 929.239 1422.59 921.29 1424.34 C 921.262 1421.89 921.238 1419.44 921.069 1417 C 920.359 1406.77 917.846 1395.51 909.574 1388.66 C 906.757 1386.33 903.068 1385.13 899.413 1385.99 C 896.94 1386.57 894.413 1388.31 893.111 1390.51 C 889.503 1396.61 896.803 1408.61 898.708 1414.9 C 899.858 1418.7 900.25 1422.84 898.001 1426.31 C 897.009 1427.84 897.35 1427.47 895.466 1427.69 C 878.645 1429.65 815.8 1414.77 794.722 1410.9 L 704.536 1394.4 C 686.134 1390.96 667.402 1388.02 649.374 1382.94 C 636.259 1379.24 624.165 1374.68 613.468 1366.04 C 578.345 1337.67 604.441 1321.3 601.331 1304.14 C 600.735 1300.85 597.986 1296.59 594.89 1295.26 C 592.878 1294.4 590.945 1294.56 588.959 1295.37 C 581.129 1298.54 577.013 1309.47 571.416 1315.57 C 565.137 1322.42 556.882 1327.82 549.781 1333.82 C 530.862 1349.78 516.899 1370.83 508.214 1393.91 C 501.646 1411.14 498.483 1429.48 498.901 1447.92 C 500.013 1519.86 562.452 1558.46 589.25 1618.98 C 601.77 1647.26 605.375 1676.46 599.691 1706.88 C 598.558 1712.94 597.669 1719.56 595.372 1725.27 C 580.451 1762.37 558.018 1795.02 520.364 1811.87 C 503.591 1819.37 484.239 1823.07 466.655 1815.91 C 457.913 1812.36 450.744 1806.47 447.363 1797.49 C 435.587 1766.21 476.414 1749.76 495.232 1733.89 C 504.118 1726.4 511.653 1717.38 516.483 1706.75 C 540.754 1653.31 491.478 1604.37 463.106 1564.67 C 451.759 1548.79 441.769 1532.37 435.035 1513.97 C 402.019 1423.74 438.869 1335.37 508.592 1275.09 C 514.712 1269.8 520.901 1264.55 527.427 1259.76 C 535.5 1253.84 552.202 1245.21 557.605 1237.37 C 563.199 1229.24 563.978 1213.09 566.746 1203.41 C 569.606 1193.41 573.26 1183.24 577.673 1173.82 C 607.65 1109.82 679.807 1046.72 746.007 1022.39 C 851.307 983.68 969.534 994.409 1070.29 1042.08 C 1074.87 1044.25 1078.91 1046.36 1080.65 1051.4 C 1077.92 1060.43 1050.29 1054.88 1041.95 1061.7 C 1039.87 1063.4 1038.58 1065.24 1038.4 1068 C 1038.2 1071.22 1039.66 1074.81 1042.18 1076.89 C 1050.26 1083.57 1076.61 1078.21 1087.21 1077.74 C 1090.86 1089.3 1096.95 1099.86 1103.06 1110.25 C 1091.72 1114.66 1068.24 1119.46 1060.06 1127.51 C 1057.88 1129.66 1056.42 1132.56 1056.78 1135.7 C 1057.17 1139.1 1059.47 1142.44 1062.39 1144.17 C 1070.02 1148.68 1106.44 1132.87 1116.46 1129.9 C 1125.79 1140.51 1149.79 1164.31 1164.42 1165.26 C 1167.25 1165.44 1169.97 1164.63 1172.04 1162.63 C 1173.98 1160.76 1175.1 1158.45 1175.12 1155.71 C 1175.13 1153.4 1174.67 1151.32 1173.31 1149.42 C 1168.65 1142.93 1156.83 1137.89 1150.33 1132.92 C 1146.32 1129.85 1142.74 1126.21 1139.16 1122.65 C 1146.14 1119.96 1159.14 1118.19 1163.85 1111.88 C 1165.81 1109.26 1166.47 1106.7 1165.83 1103.46 C 1165.22 1100.35 1163.65 1097.53 1160.79 1095.96 C 1152.67 1091.51 1132.54 1100.34 1123.76 1103.07 C 1118.5 1094.64 1114.18 1085.83 1109.81 1076.93 C 1121.18 1077.65 1144.84 1082.02 1154.73 1075.97 C 1157.22 1074.45 1159 1072.03 1159.36 1069.09 C 1159.69 1066.39 1159.09 1063.96 1157.26 1061.93 C 1148.54 1052.24 1115.84 1054.89 1103.31 1054.79 C 1101.58 1046.74 1100.76 1038.72 1100.63 1030.49 C 1100.23 1005.87 1106.75 980.792 1111.33 956.658 C 1118.91 916.73 1125.41 871.78 1140.7 834.073 C 1143 828.416 1145.42 824.025 1149.73 819.59 z"/>
<path transform="translate(0,0)" fill="rgb(14,20,55)" d="M 1284.66 1048.31 C 1296.11 1048.04 1319.59 1044.75 1328.86 1051.84 C 1331.4 1053.78 1332.86 1056.59 1333.01 1059.79 C 1333.57 1071.88 1319.64 1084.86 1312.12 1093.4 C 1314.83 1099.64 1317.42 1105.89 1324.04 1108.8 C 1331.96 1112.28 1340.57 1108.56 1347.94 1105.4 C 1349.49 1102.13 1351.38 1097.38 1354.53 1095.32 C 1357.34 1093.47 1362.02 1093.7 1365.04 1095.03 C 1367.45 1096.1 1369.29 1097.62 1370.17 1100.18 C 1371.68 1104.6 1370.1 1109.75 1367.97 1113.68 C 1363.29 1122.28 1354.01 1127.97 1344.79 1130.54 C 1331.95 1134.12 1320.38 1132.73 1308.97 1126.13 L 1301.13 1119.84 C 1294.28 1124.85 1287.62 1129.78 1279.19 1131.82 C 1268.72 1134.36 1254.12 1132.05 1244.96 1126.28 C 1239.27 1122.7 1232.98 1116.98 1231.58 1110.09 C 1230.75 1105.98 1231.19 1102.44 1233.7 1098.98 C 1235.1 1097.06 1237.12 1095.05 1239.62 1094.85 C 1245.49 1094.37 1251.2 1101.64 1255.36 1105.26 C 1259.82 1109.15 1264.93 1111.23 1270.93 1110.61 C 1281.58 1109.51 1288.34 1101.12 1294.65 1093.43 C 1286.88 1085.51 1277.01 1075.95 1273.78 1065.04 C 1272.64 1061.16 1272.66 1057.66 1274.75 1054.11 C 1276.88 1050.5 1280.83 1049.17 1284.66 1048.31 z"/>
<path transform="translate(0,0)" fill="rgb(14,20,55)" d="M 1340.86 997.997 C 1342.67 997.91 1344.79 997.67 1346.57 997.954 C 1353.4 999.046 1357.9 1010.37 1361.71 1015.55 C 1365.98 1021.35 1371.98 1025.07 1379.16 1025.95 C 1403.77 1028.94 1402.59 1006.31 1414.26 999.074 C 1416.52 997.673 1418.49 997.285 1421.02 998.254 C 1423.91 999.354 1426.52 1001.64 1427.68 1004.52 C 1429.96 1010.2 1427.59 1016.95 1425.56 1022.31 C 1423.3 1026.34 1420.62 1030.14 1417.41 1033.48 C 1408.15 1043.09 1395.67 1047.81 1382.42 1047.95 C 1368.77 1048.1 1356.06 1042.31 1346.45 1032.77 C 1340.24 1026.6 1333.92 1017.91 1334.29 1008.73 C 1334.5 1003.63 1337.23 1001.11 1340.86 997.997 z"/>
<path transform="translate(0,0)" fill="rgb(14,20,55)" d="M 1181.89 997.883 C 1197.73 997.448 1197.16 1018.53 1212.12 1023.19 C 1243.63 1033.02 1237.85 1006.51 1254.85 998.094 C 1257.72 996.669 1259.44 996.996 1262.39 997.978 C 1263.97 999.511 1264.96 1000.7 1265.76 1002.78 C 1268.68 1010.41 1267.07 1014.92 1263.88 1022.08 C 1260.63 1027.23 1257.08 1031.85 1252.33 1035.73 C 1241.77 1044.33 1227.97 1047.53 1214.57 1045.74 C 1201.05 1043.92 1188.85 1036.68 1180.78 1025.68 C 1176.97 1020.54 1173.32 1013.45 1174.56 1006.83 C 1175.41 1002.29 1178.21 1000.27 1181.89 997.883 z"/>
<path transform="translate(0,0)" fill="rgb(35,135,137)" d="M 715.614 691.413 C 741.956 689.049 769.813 691.006 796.316 691.003 L 958.08 690.917 L 1465.27 690.815 C 1528.58 690.941 1591.96 704.246 1638.04 750.94 C 1661.87 775.298 1678.78 805.558 1687.03 838.612 C 1695.96 874.528 1693.21 913.842 1693.2 950.683 L 1692.96 1066.6 C 1675.89 1072.98 1661.45 1080.64 1648.81 1094.07 C 1607.85 1137.56 1610.63 1203.22 1612.31 1258.76 C 1598.25 1252.16 1583.44 1246.97 1569.27 1240.53 C 1525.79 1220.9 1483.15 1199.48 1441.45 1176.32 C 1465.76 1157.05 1480.22 1137.53 1492.88 1109.38 C 1502.94 1111.31 1537.39 1122.42 1545.12 1119.31 C 1547.47 1118.36 1549.8 1115.51 1550.96 1113.33 C 1552.18 1111.04 1552.56 1108.56 1551.39 1106.13 C 1546.45 1095.89 1511.21 1090.65 1499.67 1088.03 C 1502.19 1077.86 1503.6 1067.59 1505.09 1057.23 C 1517.66 1054.66 1552.77 1050.32 1560.25 1040.55 C 1561.67 1038.7 1562.46 1036.54 1561.89 1034.2 C 1561.3 1031.77 1558.64 1028.89 1556.56 1027.52 C 1550.6 1023.6 1542.71 1026.44 1536.28 1027.75 C 1525.84 1029.69 1515.49 1032.39 1505.15 1034.82 C 1504.75 1031.3 1504.4 1027.78 1504.09 1024.25 C 1500.73 987.092 1490.74 950.503 1482.03 914.307 C 1475.04 885.221 1468.98 854.245 1457.42 826.557 C 1453.93 818.204 1449.39 808.803 1442.16 803.094 C 1436.8 798.86 1430.23 796.97 1423.46 798.111 C 1392.68 803.297 1354.09 869.625 1336.58 894.07 C 1304.38 888.367 1268.81 889.879 1236.32 892.357 C 1225.4 873.13 1212.85 854.008 1199.83 836.128 C 1189.45 821.866 1173.42 800.635 1154.47 798.181 C 1147.58 797.289 1141.08 799.522 1135.73 803.849 C 1128.84 809.424 1124.18 817.336 1120.65 825.354 C 1110.57 848.256 1105.7 874.26 1100.33 898.591 C 1091.43 938.927 1082.67 980.496 1078.91 1021.64 L 1067.17 1016.48 C 985.088 980.657 888.64 966.002 800.203 983.495 C 774.202 988.638 749.934 996.689 725.289 1006.36 C 718.04 978.463 697.385 918.085 682.06 894.954 C 677.156 887.551 670.998 880.975 663.381 876.319 C 636.172 859.686 602.942 873.023 575.363 881.443 C 559.188 886.382 543.073 891.334 526.681 895.514 C 526.576 842.326 537.278 800.638 572.414 759.051 C 607.149 717.938 663.041 696.012 715.614 691.413 z"/>
<path transform="translate(0,0)" fill="rgb(35,135,137)" d="M 1834.82 1118.4 C 1836.32 1118.23 1837.8 1118.17 1839.31 1118.13 C 1863.68 1117.6 1889.59 1127.61 1906.99 1144.73 C 1932.64 1169.95 1935.72 1205.36 1935.89 1239.4 C 1936.41 1342.88 1935.48 1446.97 1923.37 1549.88 C 1919.46 1583.08 1915.59 1617.62 1904.66 1649.38 C 1898.32 1667.81 1888.57 1685.36 1874.7 1699.2 C 1854.05 1719.82 1825.55 1729.83 1797.24 1734.06 C 1753.21 1740.64 1707.19 1738.6 1662.77 1739.11 C 1585.46 1740.66 1508.14 1741.17 1430.82 1740.62 L 709.75 1740.52 L 613.226 1740.15 C 613.463 1739.54 613.695 1738.94 613.915 1738.33 C 630.984 1690.97 626.559 1647.01 605.424 1602.1 C 690.496 1600.88 775.748 1602.01 860.836 1602.01 L 1357.5 1602.01 L 1566.38 1602.05 L 1631.11 1602.07 C 1644.39 1602.07 1658.19 1602.69 1671.41 1601.29 C 1695.55 1598.73 1714.82 1584.77 1723.55 1561.93 C 1731.84 1540.24 1728.78 1506.57 1728.85 1483.13 L 1729.07 1319.65 C 1729.05 1283.67 1726.21 1245.51 1732.66 1210.02 C 1736.11 1191.04 1743.1 1172.76 1755.26 1157.62 C 1774.45 1133.73 1805.13 1121.82 1834.82 1118.4 z"/>
<path transform="translate(0,0)" fill="rgb(35,135,137)" d="M 1529.77 1443.03 C 1588.5 1443.22 1647.29 1442.01 1706.03 1441.85 C 1706.08 1465.66 1708.65 1527.64 1703.62 1548.51 C 1701.8 1556.06 1698.34 1563.22 1692.68 1568.64 C 1676.54 1584.09 1639.71 1579.27 1618.75 1579.12 L 883.433 1579.34 L 691.01 1579.64 C 658.349 1579.67 625.678 1579.06 593.024 1579.82 C 562.827 1537.37 521.398 1499.35 519.821 1443.87 C 588.736 1443.93 657.651 1443.48 726.56 1442.5 C 747.494 1442.08 768.457 1442.14 789.396 1442.03 C 804.364 1441.95 819.592 1441.37 834.524 1442.43 C 855.281 1443.91 875.258 1450 896.261 1450.01 C 913.72 1450.01 930.403 1444.24 947.668 1443.79 C 971.793 1443.17 996.06 1443.78 1020.2 1443.77 L 1160.93 1443.47 L 1250.18 1443.03 C 1267.04 1442.94 1284.51 1442.01 1301.3 1443.36 C 1311 1444.15 1320.36 1446.94 1329.46 1450.26 C 1352.23 1458.56 1373.24 1470.33 1390.72 1487.24 C 1409.23 1505.14 1424.48 1528.78 1448.62 1539.67 C 1466.81 1547.88 1494.13 1548.49 1512.65 1541.16 C 1524.6 1536.42 1533.4 1527.15 1538.09 1515.24 C 1547.86 1490.46 1539.98 1466.02 1529.77 1443.03 z"/>
<path transform="translate(0,0)" fill="rgb(35,135,137)" d="M 202.519 1132.28 C 207.002 1131.6 212.075 1131.57 216.612 1131.6 C 258.858 1131.95 298.741 1155.4 314.879 1195.07 C 319.307 1205.96 321.304 1218.15 322.564 1229.78 C 325.234 1254.4 324.723 1279.52 325.387 1304.26 C 327.001 1363.59 327.523 1422.94 326.952 1482.28 C 326.925 1504.04 324.327 1534.64 328.396 1555.42 C 330.562 1566.48 336.144 1577.64 344.217 1585.55 C 364.374 1605.3 391.95 1602.19 417.782 1602.09 L 463.83 1602 C 468.536 1607.74 473.084 1613.61 477.469 1619.59 C 491.226 1638.47 504.937 1662.42 500.677 1686.72 C 495.984 1713.48 467.45 1726.12 447.068 1740.05 C 440.182 1740.57 433.158 1740.34 426.25 1740.35 C 395.031 1740.41 363.813 1739.91 332.612 1738.84 C 300.907 1737.8 268.538 1737.1 237.658 1729.14 C 221.967 1725.09 207.06 1718.86 193.747 1709.54 C 159.564 1685.6 147.44 1644.33 140.365 1605.23 C 133.209 1565.69 130.558 1525.2 128.32 1485.12 C 125.124 1426.46 123.634 1367.7 123.852 1308.95 C 123.802 1279.3 121.601 1245.51 126.169 1216.31 C 128.84 1199.23 134.504 1182.89 144.502 1168.68 C 158.592 1148.65 178.479 1136.3 202.519 1132.28 z"/>
<path transform="translate(0,0)" fill="rgb(195,194,47)" d="M 629.685 890.366 C 636.674 889.363 643.761 890.463 649.959 893.851 C 655.781 897.032 660.43 901.82 664.194 907.226 C 678.262 927.428 699.114 990.103 706.151 1015.97 C 693.883 1023.25 681.751 1030.77 669.762 1038.5 C 616.957 1073.17 569.863 1126.98 548.476 1186.99 C 543.893 1199.85 541.351 1213.25 538.579 1226.58 C 515.863 1240.74 495.74 1255.81 476.781 1274.81 C 467.819 1283.79 459.706 1293.94 450.186 1302.29 C 449.905 1302.54 449.619 1302.78 449.336 1303.02 C 433.135 1297.47 423.578 1287.95 415.006 1273.54 C 398.88 1246.26 390.53 1213.11 380.618 1183.19 C 364.434 1134.33 348.39 1083.78 326.614 1037.12 C 321.195 1025.5 312.512 1012.36 310.177 999.786 C 308.874 992.776 310.21 984.577 314.558 978.818 C 321.259 969.941 333.906 964.447 344.236 961.054 C 363.679 954.666 384.207 951.277 404.216 947.111 C 431.258 941.531 458.196 935.459 485.016 928.897 C 510.728 922.549 536.32 915.727 561.78 908.435 C 583.873 901.965 606.822 893.247 629.685 890.366 z"/>
<path transform="translate(0,0)" fill="rgb(249,169,33)" d="M 141.974 78.041 L 795.988 78.061 L 795.942 668.007 L 758.43 667.998 C 759.137 628.846 758.622 589.604 758.63 550.441 L 758.641 334.156 L 758.657 202.537 C 758.692 178.759 759.826 154.362 758.439 130.654 C 758.183 126.275 757.665 122.122 754.409 118.892 C 750.651 115.162 744.922 115.201 739.847 114.898 C 723.94 113.951 707.646 114.665 691.682 114.662 L 601.652 114.693 L 329.25 114.718 L 240.352 114.658 C 225.504 114.651 209.778 113.518 195.068 115.02 C 189.99 115.538 184.883 116.597 180.789 119.76 C 175.871 136.226 178.41 189.783 178.421 209.846 L 178.44 369.113 L 178.391 1109.74 C 165.647 1118.27 153.161 1127.17 142.231 1137.98 C 140.553 1021.73 142.039 905.233 142.039 788.964 L 141.974 78.041 z"/>
<path transform="translate(0,0)" fill="rgb(249,169,33)" d="M 200.259 137.109 L 737.116 137.153 L 737.227 423.68 C 713.545 422.019 688.689 423.107 664.912 423.623 C 672.971 412.302 678.96 400.481 682.947 387.152 C 687.208 372.907 696.882 326.916 689.679 313.473 C 686.58 311.065 683.615 310.181 679.739 309.61 C 672.759 308.582 665.24 309.177 658.173 309.249 C 640.193 309.432 621.599 310.604 603.717 308.933 L 602.19 308.782 C 623.664 302.674 642.238 297.569 659.691 282.796 C 681.727 264.144 693.505 229.713 695.492 201.736 C 695.977 194.903 695.628 188.301 690.746 183.042 C 686.224 178.169 679.815 178.233 673.648 178.034 C 672.354 178.196 671.063 178.391 669.779 178.619 C 641.303 183.721 615.688 203.511 599.43 226.79 C 591.696 204.501 579.735 184.215 560.65 169.789 C 549.457 161.327 530.522 151.489 516.04 154.021 C 511.572 154.803 507.538 157.214 505.106 161.092 C 497.46 173.285 503.075 205.997 506.668 219.591 C 514.7 249.975 531.442 276.391 558.54 293.136 C 564.692 296.937 572.11 298.212 578.003 302.035 C 580.741 303.811 581.019 305.416 581.612 308.367 C 577.405 312.637 519.68 305.917 511.363 309.68 C 508.517 310.968 506.93 314.368 506.183 317.237 C 504.361 324.243 505.576 332.52 506.23 339.657 C 509.024 370.161 515.436 397.081 531.211 423.567 C 515.946 423.268 500.677 423.345 485.416 423.795 C 477.545 384.265 472.253 343.78 465.624 303.998 C 463.122 288.984 461.405 273.154 457.592 258.43 C 456.541 254.37 454.718 247.422 451.309 244.772 C 444.252 239.286 401.083 242.097 390.349 242.183 C 389.12 230.787 385.065 190.627 376.701 184.085 C 372.902 181.113 365.298 180.58 360.541 180.271 C 338.035 178.807 314.648 180.09 292.052 180.055 C 261.454 180.009 230.862 179.043 200.265 179.429 C 200.419 165.322 200.417 151.215 200.259 137.109 z"/>
<path transform="translate(0,0)" fill="rgb(82,155,95)" d="M 1410.25 179.158 C 1415.31 178.575 1420.42 178.513 1425.49 178.973 C 1471.88 183.011 1514.12 216.089 1543.2 250.305 C 1583.87 298.153 1611.58 362.599 1615.71 425.502 C 1617.62 454.701 1614.97 483.522 1612.57 512.6 L 1594.76 507.899 C 1580.78 504.267 1566.96 499.097 1553.83 493.12 C 1481.6 460.251 1427.86 396.783 1400.3 323.203 C 1387.71 289.607 1373.45 231.398 1389.7 197.275 C 1394.28 187.665 1400.37 182.633 1410.25 179.158 z"/>
<path transform="translate(0,0)" fill="rgb(82,155,95)" d="M 1844.49 140.308 C 1850.12 139.857 1855.4 139.84 1860.89 141.351 C 1870.67 144.042 1878.01 150.81 1882.67 159.687 C 1898.73 190.231 1890.57 245.53 1881.06 277.047 C 1855.96 360.219 1797.7 438.609 1720.5 479.941 C 1714.48 483.316 1708 486.106 1701.77 489.079 C 1695.21 469.04 1688.61 449.262 1685.56 428.311 C 1674.51 352.479 1704.55 268.313 1749.9 207.824 C 1772.6 177.547 1805.35 145.91 1844.49 140.308 z"/>
<path transform="translate(0,0)" fill="rgb(249,169,33)" d="M 201.067 498.479 C 252.525 497.829 304.074 498.43 355.539 498.409 L 737.159 498.27 L 736.685 527.083 C 724.561 526.337 671.046 522.761 664.026 529.03 C 658.244 534.192 659.89 548.991 659.975 556.189 C 647.615 550.758 621.62 536.633 610.253 533.907 C 607.328 533.206 604.023 533.07 601.195 534.245 C 598.349 535.428 596.129 537.853 594.461 540.373 C 591.027 545.56 588.798 551.883 586.104 557.514 L 569.576 591.249 C 552.983 625.513 536.177 659.673 519.159 693.728 C 509.696 712.685 499.711 731.536 491.105 750.894 L 472.807 750.727 L 472.932 641.789 C 472.94 623.079 474.406 603.219 472.437 584.694 C 471.875 579.41 470.809 574.317 467.793 569.883 C 458.66 565.208 431.746 567.601 419.845 566.572 C 419.752 558.304 421.093 541.296 415.221 534.745 C 412.438 531.641 405.858 530.993 401.934 530.706 C 389.888 529.826 342.268 529.986 334.354 537.425 C 327.439 543.924 328.191 557.402 328.084 566.127 L 273.823 566.169 C 273.705 558.275 275.018 542.745 269.969 536.528 C 263.605 528.691 212.021 531.797 200.612 531.845 C 200.366 523.003 198.266 506.544 201.067 498.479 z"/>
<path transform="translate(0,0)" fill="rgb(249,169,33)" d="M 1748.21 1093.93 C 1748.54 1093.85 1748.88 1093.78 1749.21 1093.7 C 1753.7 1092.56 1756.93 1090.76 1759.41 1086.71 C 1768.77 1071.41 1778.88 1045.75 1779.77 1027.77 C 1781.31 996.987 1769.25 967.287 1765.67 936.987 C 1760.33 891.825 1768.83 814.448 1822.22 799.99 C 1834.32 796.715 1844.12 799.236 1854.7 805.438 C 1863.68 810.71 1869.88 818.145 1872.35 828.385 C 1872.64 829.565 1872.87 830.757 1873.04 831.958 C 1876.14 852.911 1862.44 870.815 1854.51 889.024 C 1850.45 898.369 1847.49 908.155 1845.7 918.183 C 1836.16 970.814 1868.34 1030.97 1836.89 1079.97 C 1822.42 1102.5 1799.71 1107.93 1774.88 1113.19 C 1762.04 1110.86 1754.97 1105.61 1747.52 1095.18 L 1748.21 1093.93 z"/>
<path transform="translate(0,0)" fill="rgb(249,169,33)" d="M 200.299 824.766 L 513.349 824.881 C 506.79 850.102 505.15 874.864 505.917 900.802 C 483.54 906.408 461.104 911.776 438.612 916.906 L 426.816 919.804 C 426.885 908.51 429.069 890.301 420.951 881.534 C 416.956 877.221 411.269 877.223 405.7 876.919 C 372.296 875.093 337.828 876.698 304.309 876.695 C 286.89 876.694 256.858 874.903 241.257 877.283 C 238.854 877.65 236.768 879.043 235.039 880.702 C 224.724 890.601 228.127 934.532 228.239 949.747 L 200.176 949.738 L 200.299 824.766 z"/>
<path transform="translate(0,0)" fill="rgb(35,135,137)" d="M 1633.99 1268.78 C 1630.51 1231.29 1631.58 1174.24 1646.17 1139.09 C 1654.64 1118.65 1670.18 1100.64 1690.97 1092.14 C 1700.67 1088.18 1730.14 1081.11 1739.3 1084.99 C 1741.66 1088.55 1743.5 1091.52 1747.41 1093.55 C 1747.67 1093.68 1747.94 1093.8 1748.21 1093.93 L 1747.52 1095.18 C 1754.97 1105.61 1762.04 1110.86 1774.88 1113.19 C 1764.54 1119.11 1755.16 1125.95 1746.75 1134.41 C 1698.59 1182.93 1706.11 1260.83 1706.07 1323.55 C 1687.37 1300.55 1660.19 1282.12 1633.99 1268.78 z"/>
<path transform="translate(0,0)" fill="rgb(249,169,33)" d="M 200.193 446.013 L 386.154 445.985 L 737.184 446.041 L 737.097 476.129 L 200.147 476.025 L 200.193 446.013 z"/>
<path transform="translate(0,0)" fill="rgb(217,72,50)" d="M 200.115 200.219 C 218.089 200.263 236.063 200.46 254.034 200.808 L 253.839 423.711 C 236.003 423.375 218.117 423.703 200.277 423.754 C 198.985 349.311 200.41 274.689 200.115 200.219 z"/>
<path transform="translate(0,0)" fill="rgb(217,72,50)" d="M 528.156 328.027 L 668.914 328.026 C 667.169 355.906 663.932 379.964 650.666 405.064 C 646.257 412.09 640.611 417.773 634.674 423.499 L 561.223 423.61 C 534.508 399.821 531.016 361.422 528.156 328.027 z"/>
<path transform="translate(0,0)" fill="rgb(35,135,137)" d="M 314.026 1090.44 L 325.123 1090.23 C 336.149 1119.59 346.598 1149.16 356.466 1178.93 C 367.981 1213.79 377.74 1252.35 395.839 1284.35 C 402.182 1295.57 410.876 1304.73 420.113 1313.59 C 393.162 1330.39 368.734 1346.34 348.994 1371.82 L 348.727 1352.66 C 348.451 1333.49 347.341 1314.28 346.976 1295.09 C 346.11 1249.54 348.462 1199.47 320.353 1160.79 C 295.655 1126.8 263.684 1115.93 223.92 1109.5 C 253.577 1098.48 282.272 1091.72 314.026 1090.44 z"/>
<path transform="translate(0,0)" fill="rgb(249,169,33)" d="M 275.016 204.011 L 322.05 204.019 L 322.009 423.574 L 274.937 423.809 L 275.016 204.011 z"/>
<path transform="translate(0,0)" fill="rgb(249,169,33)" d="M 200.799 554.139 C 218.211 553.777 235.571 553.716 252.942 555.118 C 252.395 599.72 252.818 644.395 252.833 689.004 C 252.84 709.317 254.278 730.421 252.608 750.635 C 235.331 750.226 217.992 750.512 200.708 750.502 L 200.799 554.139 z"/>
<path transform="translate(0,0)" fill="rgb(35,135,137)" d="M 960.396 1369.52 C 1008.29 1368.27 1083.08 1369.27 1128.35 1382.92 C 1137.46 1385.67 1146.26 1390.2 1155.04 1393.89 C 1166.07 1398.5 1177.23 1402.78 1188.53 1406.7 C 1195.41 1409.15 1226.6 1417.81 1230.09 1420.51 C 1228.02 1422.08 1225.76 1421.45 1223.21 1421.41 C 1136.91 1421.94 1050.25 1422.92 963.969 1421.06 C 969.289 1406.14 969.766 1395.72 964.513 1380.67 C 963.351 1377.34 961.584 1374.15 960.702 1370.75 C 960.595 1370.34 960.498 1369.93 960.396 1369.52 z"/>
<path transform="translate(0,0)" fill="rgb(249,169,33)" d="M 200.213 772.974 L 535.127 773.038 C 530.875 780.001 527.333 787.363 523.681 794.652 L 520.234 803.101 L 200.215 803.079 L 200.213 772.974 z"/>
<path transform="translate(0,0)" fill="rgb(35,135,137)" d="M 372.483 553.583 C 380.959 552.727 389.673 552.756 398.193 552.415 C 398.813 618.305 396.811 684.378 398.7 750.229 L 374.548 750.235 L 349.061 750.246 L 349.02 554.826 C 356.814 554.225 364.674 553.995 372.483 553.583 z"/>
<path transform="translate(0,0)" fill="rgb(35,135,137)" d="M 348.909 1442.32 C 366.323 1442.66 383.741 1442.83 401.158 1442.85 C 402.282 1479.03 407.583 1513.6 425.646 1545.64 C 432.182 1557.23 440.226 1567.96 446.646 1579.61 C 427.468 1579.4 395.07 1581.81 377.609 1577.86 C 370.844 1576.33 364.324 1573.26 359.358 1568.35 C 354.384 1563.43 351.714 1557.64 350.255 1550.88 C 347.365 1537.49 348.797 1522.2 348.813 1508.54 L 348.909 1442.32 z"/>
<path transform="translate(0,0)" fill="rgb(217,72,50)" d="M 279.154 589.38 C 295.373 588.592 311.726 588.933 327.965 588.95 C 327.98 607.784 329.354 746.106 326.918 749.968 L 324.25 750.338 L 274.041 750.245 C 274.036 731.4 272.232 595.972 275.015 590.225 L 279.154 589.38 z"/>
<path transform="translate(0,0)" fill="rgb(249,169,33)" d="M 1737.5 1760.56 C 1745.97 1760.11 1754.5 1760.06 1762.98 1759.84 C 1765.67 1776.51 1786.25 1878.57 1781.44 1888.45 C 1779.64 1892.16 1776.37 1893.91 1772.55 1895 C 1762.8 1897.77 1749.61 1896.99 1740.71 1892.23 C 1736.05 1888.14 1732.63 1883.81 1729.78 1878.3 C 1722.2 1863.62 1718.02 1846.47 1713.16 1830.72 L 1692.05 1762.06 L 1737.5 1760.56 z"/>
<path transform="translate(0,0)" fill="rgb(35,135,137)" d="M 1405.44 1336.35 C 1457.33 1346.03 1510.76 1349.97 1559.43 1372.43 C 1586.01 1384.69 1610.94 1407.39 1638.81 1415.24 C 1652.44 1419.08 1671.93 1420.17 1685.51 1415.67 C 1691.95 1413.54 1698.59 1409.3 1704.56 1405.99 L 1705.92 1407.02 L 1705.9 1419.43 C 1685.8 1420.35 1665.62 1419.93 1645.5 1420.18 C 1601.76 1421 1558.01 1421.29 1514.26 1421.07 C 1490.12 1395.5 1462.08 1374.19 1433.09 1354.42 C 1424.26 1348.39 1414.85 1343.14 1406.19 1336.9 L 1405.44 1336.35 z"/>
<path transform="translate(0,0)" fill="rgb(249,169,33)" d="M 610.425 558.601 C 622.074 564.614 634.478 569.613 646.451 574.982 L 603.892 659.749 C 593.283 680.963 580.435 711.465 567.357 730.543 C 562.585 737.504 556.526 743.772 550.89 750.046 C 539.285 750.849 527.244 750.25 515.599 750.212 C 527.293 728.44 537.755 705.852 548.646 683.662 L 610.425 558.601 z"/>
<path transform="translate(0,0)" fill="rgb(249,169,33)" d="M 289.983 1759.9 C 312.659 1760.61 335.647 1761.54 358.286 1762.98 C 351.039 1785.43 343.532 1807.79 335.766 1830.06 C 330.051 1846.74 324.965 1864.11 317.004 1879.86 C 314.643 1883.69 311.913 1887.76 308.36 1890.58 C 300.564 1896.77 288.941 1896.8 279.452 1895.81 C 275.087 1895.36 268.976 1894.29 266.309 1890.39 C 262.567 1884.91 286.987 1776.28 289.983 1759.9 z"/>
<path transform="translate(0,0)" fill="rgb(217,72,50)" d="M 679.856 549.115 C 698.849 548.868 717.761 548.395 736.613 551.191 L 736.939 632.305 C 736.974 643.126 738.585 656.983 736.584 667.391 L 734.25 667.964 C 716.525 667.939 699.428 669.289 682.19 673.563 C 682.191 632.027 680.191 590.626 679.856 549.115 z"/>
<path transform="translate(0,0)" fill="rgb(217,72,50)" d="M 394.651 265.157 C 408.959 264.873 423.271 264.825 437.58 265.012 C 443.02 301.467 449.693 337.82 455.851 374.164 C 458.608 390.436 462.258 406.961 463.872 423.362 L 425.552 423.742 C 414.703 371.004 405.267 317.952 394.651 265.157 z"/>
<path transform="translate(0,0)" fill="rgb(82,155,95)" d="M 250.116 899.324 C 301.295 899.215 352.866 897.939 403.997 899.765 L 403.978 924.106 L 380.248 928.694 C 365.595 931.67 350.603 934.852 336.421 939.652 C 328.968 942.175 322.154 947.529 314.404 949.014 C 298.572 952.049 267.888 949.87 250.617 949.769 C 249.013 933.219 249.918 915.935 250.116 899.324 z"/>
<path transform="translate(0,0)" fill="rgb(35,135,137)" d="M 573.101 1342.91 C 574.089 1343.63 581.85 1362.25 584.086 1365.75 C 608.613 1404.15 654.671 1406.15 694.519 1415.4 C 697.359 1416.06 699.411 1416.64 700.944 1419.17 L 699.543 1420.67 C 684.703 1422.63 668.271 1421.17 653.25 1421.06 C 609.863 1421.06 566.477 1421.29 523.092 1421.76 C 528.78 1389.88 547.281 1361.98 573.101 1342.91 z"/>
<path transform="translate(0,0)" fill="rgb(82,155,95)" d="M 341.749 203.028 C 348.615 203.045 355.35 203.278 362.193 203.855 C 369.899 238.849 375.285 274.582 382.13 309.782 C 389.432 347.328 398.459 385.369 403.58 423.231 C 393.779 423.124 383.96 423.373 374.159 423.49 C 366.65 387.039 362.781 349.138 357.214 312.291 L 347.346 245.379 C 345.293 231.342 342.624 217.193 341.749 203.028 z"/>
<path transform="translate(0,0)" fill="rgb(249,169,33)" d="M 200.31 972.045 L 293.239 972.103 C 285.814 992.184 288.206 1005.61 296.317 1024.66 C 290.872 1027.33 215.087 1025.47 200.275 1025.6 L 200.31 972.045 z"/>
<path transform="translate(0,0)" fill="rgb(217,72,50)" d="M 439.941 590.5 C 443.943 590.164 448.031 590.167 452.049 590.013 L 452.038 750.303 L 434.5 750.258 L 421.977 750.231 C 421.489 697.199 422.022 644.059 422.587 591.025 C 428.371 591.027 434.161 590.719 439.941 590.5 z"/>
<path transform="translate(0,0)" fill="rgb(249,169,33)" d="M 200.33 1047.01 L 307.972 1047.06 C 311.236 1053.7 313.942 1060.26 316.369 1067.24 C 306.623 1068.06 296.891 1068.33 287.139 1069.32 C 255.599 1073.66 228.622 1082.89 200.217 1096.94 C 200.341 1080.3 200.379 1063.65 200.33 1047.01 z"/>
<path transform="translate(0,0)" fill="rgb(82,155,95)" d="M 524.254 177.297 C 539.092 181.536 550.872 188.812 560.646 200.887 C 578.595 223.061 584.569 251.58 581.758 279.45 C 572.379 275.451 563.773 269.839 556.33 262.871 C 531.386 239.579 525.251 210.007 524.254 177.297 z"/>
<path transform="translate(0,0)" fill="rgb(35,135,137)" d="M 429.672 1333.95 C 431.004 1336.33 425.418 1344.66 423.975 1347.44 C 412.349 1369.9 405.01 1396.21 402.573 1421.29 L 351.295 1421.13 C 351.213 1421.01 351.109 1420.9 351.048 1420.77 C 350.161 1418.84 350.666 1416.65 351.15 1414.68 C 360.329 1377.34 398.756 1352.18 429.672 1333.95 z"/>
<path transform="translate(0,0)" fill="rgb(82,155,95)" d="M 670.16 202.057 L 671.38 202.809 C 672.721 217.708 665.069 237.963 657.212 250.503 C 645.392 269.367 628.341 278.298 607.231 283.299 L 605.864 282.162 C 603.889 272.908 611.108 254.672 615.388 246.331 C 627.201 223.31 645.973 209.933 670.16 202.057 z"/>
<path transform="translate(0,0)" fill="rgb(249,169,33)" d="M 658.7 601.743 C 661.939 606.513 660.173 669.089 660.257 679.275 C 642.176 683.908 625.187 691.823 608.871 700.741 L 608.318 699.889 C 623.884 666.688 641.492 634.125 658.7 601.743 z"/>
<path transform="translate(0,0)" fill="rgb(195,194,47)" d="M 341.403 362.791 C 344.826 365.769 350.605 414.824 352.194 423.502 C 348.964 423.461 345.386 423.908 342.557 422.145 C 339.679 406.255 342.336 380.423 341.403 362.791 z"/>
</svg>