<svg xmlns="http://www.w3.org/2000/svg" width="1365.333" height="1365.333" preserveAspectRatio="xMidYMid meet" version="1.0" viewBox="0 0 1024 1024"><g fill="#000" stroke="none"><path d="M221 116c-18.9 1.2-29.3 4-45.3 12.3-16.5 8.5-31.6 24.5-39.8 42.1-1.6 3.5-4.2 10.7-5.7 16.2l-2.7 9.9-.2 166.3L127 529l-3.4 6.8c-11.2 22.3-11.3 49.5-.6 139.2 8.6 72.4 14.8 97.7 27.6 112.9 4.3 5.1 15.4 11.7 25.9 15.4l10 3.5-.1 4.3c0 2.4-1.3 14.7-2.8 27.4-4 32.6-3.4 36.3 5.9 40.6 4.9 2.3 9.4 2.4 14.2.4 7.7-3.2 8.7-5.1 18.2-32.2 11.3-32.3 11.6-32.8 14.2-33.1s30.9 2.4 152.4 14.3c8.3.8 22.4 2.2 31.5 3 9.1.9 30 2.9 46.5 4.5s44 4.3 61 6c17.1 1.7 37.8 3.7 46 4.5 18.9 1.9 61 5.8 96 9 36.2 3.3 35.5 3.2 36.1 3.8.3.3 1.4 5.4 2.4 11.4 6.1 35.3 7.2 39.7 11.3 44.2 6.3 6.8 20.2 6.8 26.3 0 3.3-3.7 4.2-9.6 5.4-34.9 1.5-34.2.4-30.6 10.8-36.5 8.1-4.6 35.9-20.5 67.2-38.5 21.8-12.5 21-12.1 21.5-10.8.2.7.9 3.3 1.6 5.8 1.9 7.8 8.1 25.3 10.5 30.1 2.8 5.6 6 7.8 12.3 8.6q9.15 1.05 14.7-4.8l2.9-3.1-.1-12.6c-.1-7-1.1-19.2-2.3-27.2-3-20.6-3-20.3 2.7-24.2 17.4-11.9 24.4-24.8 30.7-56 5.8-28.9 17.3-106.1 21.6-143.8 1.9-17 1.5-34.3-1-42-2.5-8-7.7-16.8-13.6-23.1-2.4-2.6-4.7-6-5.1-7.5-.4-1.6-.2-18.2.5-36.9 2.2-63.8 1.1-77.2-7.3-95.2-8.3-17.4-20.7-30.3-37.3-38.7L876 321v-60.8c0-67.6-.2-70.3-7-86.4-12.8-30.9-43.6-53.1-78.5-56.8-11.2-1.1-552-2.1-569.5-1m332 20.3c0 5.1-.5 8.8-1.2 9.5-.9.9-44.6 1.2-190.8 1.2l-189.5-.1 3.4-2.9c6.8-5.8 25.1-13.3 36.6-14.9 3.3-.5 81.5-.9 173.8-1L553 128zm1.5 102.2v73l-6.2.3c-5.4.3-6.3 0-7.3-1.8-1.3-2.5-1-141.7.3-143.8.6-.9 2.8-1.2 7-1l6.2.3zm-294.1-70.3c.8 3 .6 99-.2 109.8l-.7 8.5h-22l-.3-59.4c-.2-46.9 0-59.6 1-60.3.7-.4 5.9-.8 11.4-.8 9.7 0 10.2.1 10.8 2.2m199.4 10c1.7 1.7 1.7 104.9 0 106.6-1.3 1.3-19.2 1.7-22.2.6-1.4-.5-1.6-6.2-1.6-53.9 0-41.7.3-53.4 1.3-53.8 2.7-1.1 21.3-.7 22.5.5m35 52.2c.1 38.9-.1 53.2-.9 54.3-.9 1-3.7 1.3-11.8 1.1l-10.6-.3-.3-53c-.1-29.2 0-53.6.3-54.3.3-.9 3.3-1.2 11.7-1l11.3.3zm-192 2.1c.2 48 .1 52.1-1.5 53.2-1.8 1.4-25.6 1.9-28.7.7-1.4-.5-1.6-6.1-1.6-52.9 0-40.9.3-52.4 1.3-52.9.6-.2 7.7-.4 15.7-.3l14.5.2zm-76 1.5c.2 47.5.1 51.6-1.5 52.7-2.3 1.7-20.4 1.8-22.1.1-.9-.9-1.2-13.7-1.2-51.4 0-27.6.3-51 .6-51.8.5-1.4 2.3-1.6 12.3-1.4l11.6.3zm301 70.3c.2 2.7-.2 5.4-.7 6.1-.8.9-6.3 1.5-18.9 1.9-12.1.4-20.7 1.2-27.2 2.6-9.3 2-12.2 2.1-173.7 2.1H143v-18l192.3.2 192.2.3zM601 327c114.8 1.5 199.8 3 223.5 4 18 .8 23.8 1.4 31.7 3.4 26.2 6.7 44.4 23.9 50.4 47.8 3.1 12.7 2.8 66.5-.7 100.3-1.4 13.3-1.5 13.5-9.4 13.5-9.3 0-25.8 2.5-42.9 6.5-8.2 1.9-15 3.4-15.2 3.2-.6-.7 8.6-29.5 14.6-45.6 8.9-24 9.4-25.9 7.8-30.7-1-2.9-2.3-4.4-5-5.7-3.5-1.7-5.6-1.8-28.5-1-27.5.9-67.6.1-85.3-1.7-12.9-1.3-33.5-4.4-58.6-9-24.9-4.5-28.9-4.3-33.4 2-2.8 4-11.4 22.9-22 48.5l-8.7 21-9.9.8c-21.2 1.6-38.4 3.8-48.9 6.3-18.8 4.3-16.8 4.6-18.3-3.1-.7-3.7-2.4-9.3-3.7-12.6-2.2-5-2.6-8.3-3.5-23.6-1.3-23.6-2.9-41.6-4.1-48.1-1.3-6.3-5.4-11.5-10.5-13.2-3.1-1-4.1-.8-9.7 1.8-9.2 4.3-17 10.7-30.4 24.6l-11.9 12.5-7.9-2.6c-7.4-2.5-9.4-2.7-26.2-2.8l-18.3-.1-6.5-6.3c-6.3-6-6.5-6.4-5.9-9.9 1-5.5 5-15.8 9-23.2 15.3-28 43.3-48.5 75.4-55.3 14-3 15.1-3 113-1.7m-330.1 11.6c.7.7 1 105 .3 108.4l-.8 3.5-9.9.3c-5.5.2-11 0-12.2-.3l-2.3-.5V338.9l2.3-.8c2-.8 21.7-.4 22.6.5m-74.5 24c.8 2 .8 84.8 0 86.8-.9 2.4-30.9 2.4-31.8 0-.8-2-.8-84.8 0-86.8.5-1.4 2.9-1.6 15.9-1.6s15.4.2 15.9 1.6M518 409c.6 1.1 1.5 14.5 2.1 30.2 1.1 26.9 1.3 28.7 4 37 3.4 10.2 4.9 18.9 4.9 27.8 0 7.7-1.6 18-2.9 19.3-.7.7-6 .4-15.3-.6-12.6-1.4-14.5-1.4-16.5-.1-4.1 2.6-2.3 8.1 3.2 9.8 1.1.3 6.9 1.2 12.9 2.1 6 .8 11.1 1.7 11.4 1.9.6.7-3.3 6.8-5.6 8.9-1.8 1.7-2.3 1.6-9.8-.8-12.1-3.8-17.4-3.2-17.4 2 0 2.8 2 4.5 9.6 8.3 8.8 4.4 17.9 7.3 20.3 6.4 3.6-1.3 13.3-13.5 17.2-21.7 3.4-7.2 4.8-11.8 7.6-25 .8-3.7 1.1-4 6.3-5.6 13.6-4.1 43.5-9.1 58-9.6 32-1.2 70.8 6.1 93.9 17.7 28.1 14.1 43.4 36 49.2 70.5 2.4 14.4 3.1 15.4 12 16.4 6.3.8 6.3.8 13.7 8.6 16.4 17.4 24.7 39.1 25.9 68 1 24.1-2.6 48.5-10.3 68.3-9.2 23.8-22.3 42.8-46.9 68-22.1 22.8-33.7 29-43.2 23.2-5.3-3.2-6.6-6.1-6-13.5.7-8.9 4.3-14.5 19.1-30.3 15.7-16.8 22.6-24.8 30.6-35.7 8.4-11.4 10.9-15.8 15.4-27.2 6.3-15.8 8-25.3 7.9-44.8 0-15.2-.2-18-2.6-27-3.2-11.8-8.1-22.6-12.7-27.8-6.3-7.3-10-7.2-13.3.1-5 11.5-10.7 16.6-21.7 19.9-6 1.8-34.4 1.9-94.3.5-30.7-.8-29.9-.6-29-7.3.7-4.7-.9-6.9-4.7-6.9q-5.4 0-6.6 7.8c-.5 3.4-1 4.2-2.8 4.2-3.1-.1-5.6-2.4-7.1-6.6-2.4-7 1.5-13.5 10.4-17.3 8-3.4 13.2-3.5 39.5-.6 26.9 3 27.6 2.9 27.6-2.7 0-2.7-.6-3.2-6.7-5.9-11.7-5.2-13.6-6.3-17.9-10.5-14.5-14.2-6.2-41.2 16.4-53.2 9.1-4.9 11.3-9.1 7.1-13.3-1.8-1.8-2.9-2-6.5-1.5-16.9 2.3-35.8 23.1-39.5 43.5-1.3 7.8-.2 17.6 2.6 23.1.8 1.5 1.1 3 .8 3.4-.4.3-5.3.6-10.9.6-11.5 0-20.4 2.4-26.8 7.3-4.5 3.5-9.5 11.2-10.2 15.9-.4 2.1-1.2 4.2-1.8 4.7s-5.5 1.3-10.9 1.7l-9.7.7v-4.6c0-5.9-.7-7.7-3.7-8.8-3.3-1.2-5.8.3-8.2 4.9-6.7 13-25.6 17.9-72.6 18.8-30.4.6-31.3.8-49.8 8.6-14.1 5.9-18 6.1-18.5 1.1-.2-2.1.4-4.2 1.8-6.1 3.2-4.3 2.4-7.6-1.8-8s-5.8.9-9.1 7.8c-3.1 6.4-6 7.6-8.6 3.7-4.5-6.9 5.2-20.1 19.5-26.9 15-7.1 40.4-14.3 65.2-18.4 9.5-1.6 16-3.1 17.1-4.1 2.2-2 2.2-5.1 0-7.5-2-2.3-6.3-2.3-22-.3-24.7 3.3-51.7 10.6-67.3 18.5-4.1 2.1-10.2 4.3-13.5 5-8.8 1.7-29.1 7.3-44 12-15.1 4.8-22.1 5.8-24.9 3.7-1.8-1.3-1.8-1.5-.1-6.1 1.7-4.4 1.7-4.8.2-6.4-2.7-2.6-6.7-.5-9.7 5.1-2.8 5.3-5.8 6.2-8.4 2.5-4.5-6.4.2-17.1 10.4-23.7 7.2-4.7 28.8-11.9 52-17.5 21.5-5.2 22.6-5.8 29.8-15.9 3.3-4.6 6.5-9.4 7.1-10.5 1.5-2.8 3.2-2.8 7.9.2C397.3 575 415.9 581 426 581c7.8 0 10.5-2.3 10.1-8.3-.1-2.2-5.7-4.7-10.4-4.7-5.6 0-18.6-3.8-27.2-8-10.8-5.2-19.3-11.7-25.3-19.3-9.7-12.4-13-20.9-13.9-35.6-.7-12.2 1-20.4 7-33.6 2.4-5.5 5.7-13.8 7.2-18.5 5.8-18.2 11.3-32.5 12.6-32.8 2.6-.4 7.8 3.7 12.6 10 2.7 3.4 6 7.5 7.4 9.2l2.6 3 5.8-1.3c6.7-1.5 25.7-1.6 33-.2 2.8.5 7.9 1.9 11.5 3 11.1 3.5 12.2 3.2 20.3-5.7 18.7-20.4 31.1-31.2 35.9-31.2.9 0 2.2.9 2.8 2m173 19.5c21 3.7 45.6 6.7 69.5 8.6 14.5 1.1 56.2.7 74.8-.7 5.9-.5 7.7-.4 7.7.6 0 .7-3.4 8.8-7.6 17.9-9.2 20-15.3 35.7-18.5 47.7-1.2 4.9-2.8 9.2-3.3 9.6-.6.5-7.3 2.8-14.9 5.3-19.2 6.3-32.6 13.4-40.1 21.4-1.7 1.7-3.3 3.1-3.7 3.1s-2.8-2.9-5.3-6.4c-17.2-24.1-39.6-38.3-73.6-46.5-6.3-1.6-16.2-3.4-22-4-15.6-1.8-17-2.1-17-3.3 0-1.9 14.8-38.3 19.7-48.7l4.5-9.3 5.1.6c2.9.4 14 2.2 24.7 4.1m-338 36.7c0 2.6-5.7 15.3-6.8 15.2-.7-.1-46.6-.2-102.2-.3l-101-.1v-6.8c0-4 .5-7.3 1.2-8 1.8-1.8 208.8-1.7 208.8 0m-10.3 29.6c1.3.8 3.5 15.4 2.5 16.4-.4.4-4.7.1-9.7-.7-7.9-1.3-9.2-1.3-11.2 0-1.6 1.1-2.3 2.5-2.3 4.5 0 3.7 1.2 4.3 14.5 7 14.4 2.9 16.8 6.5 5.9 8.9-14.7 3.3-20.5 7.2-18.5 12.4 1.6 4.1 4.6 4.1 16 .2 5.8-1.9 11.5-3.5 12.7-3.5 1.5 0 3.9 2.2 7.8 6.9 3.1 3.9 5.6 7.6 5.6 8.3 0 2.7-5.3 17.1-6.9 18.7-1 1-5.5 2.5-10.2 3.5-46.3 9.7-100.1 26.5-123.4 38.4-4.9 2.6-9.3 4.8-9.6 5-.4.2-.9-12.7-1.2-28.5-.6-32.5-1.6-39.6-7.2-50.9-5.5-11.2-12.1-16.8-26-21.9-1.8-.7-1.7-.8 1-1.7 11.9-3.6 60.4-11.2 126-19.8 33.1-4.3 32.6-4.2 34.2-3.2m566.8 17.7c9.9 2.8 15.4 9.8 18.1 22.9 2.4 11.1.6 30-9.7 104.1-10.9 78.4-14.9 92.4-31.4 109.1-9.8 10-17.1 14.7-54.5 35.7-16.2 9-33.3 18.7-38 21.5-4.6 2.8-8.6 5-8.7 4.8-.2-.2 1.8-3.3 4.5-6.9 11.7-15.5 23.8-46.8 29.6-77.2 5.1-26.2 13.3-82.6 18.1-124 4.8-41.3-.8-58.8-21.8-67.9-7.6-3.3-7.7-3.4-5-4.4 11.6-4.5 64.2-17.4 79.8-19.5 4.4-.6 13.3.2 19 1.8M175 533.2c5.6 1.7 13.2 8 16.2 13.5 6 11 6 11.1 6.8 90.8.8 77 .9 79.4 5.5 85.7 1.4 1.8 3.2 4.3 4.1 5.6 1.6 2.1 1.6 3.7.6 17.5-.7 8.4-1.5 22.1-1.8 30.4l-.7 15.3H202c-6.1 0-19.1-3-25-5.8-12-5.6-21.6-19.3-26.1-37.2-6.8-27.4-16.5-104.7-18.9-150.1-1.6-31.1.6-44.9 8.7-56.2 7.2-9.9 20.5-13.6 34.3-9.5m622.5 10.9c19.2 3.5 26.6 15.3 25.1 39.9-1.2 20.7-6.9 69.5-7.8 67-7.7-21.3-9.8-26.2-14.7-34-7-11.2-14.1-19.3-24.2-27.6-7.7-6.4-7.9-6.7-10.4-14.7-1.8-5.7-2.4-9.2-2-11.8.8-4.9 6.2-11 13-14.9 4.5-2.6 7-3.4 14.6-4.9.3-.1 3.2.4 6.4 1m-533.2 78.6c-1.2 6.1-.7 15.7 1 19 .9 1.7 3 4.2 4.7 5.6 1.6 1.4 3 2.9 3 3.3 0 1.4-49.5-1.5-55.2-3.2-3-.9-2.1-3.2 3.4-9 3.8-4 7.7-6.7 14.2-10 9.1-4.4 23.1-9.2 27.4-9.3 2.1-.1 2.2.2 1.5 3.6m91.1 23.2c.7 1.1-1.2 10.9-2.2 11.5-.9.5-31.4-1.1-36.6-2-2.6-.4-3.5-.9-2.5-1.4 1.1-.6 21.5-5.7 33.4-8.3 3.6-.8 7.4-.7 7.9.2M565 659.3c2.3 2.2 5.8 4.6 7.8 5.4 4.6 1.9 22.4 2.9 77.7 4.4 43.1 1.1 64.8.6 75.9-1.8l2.9-.6-.6 7.1c-.4 3.9-1.2 8.3-1.7 9.8-1.1 2.7-1.1 2.7-8.8 2.1-4.2-.4-23.9-2-43.7-3.6-34.6-2.9-48.1-4-122.5-9.6-18.4-1.4-43.1-3.4-54.7-4.5-11.7-1.1-22-2-22.9-2-4.8 0 .6-1.1 11.6-2.4 6.9-.8 19.5-2.8 28-4.5 20.8-4 19.8-3.9 34.1-3.7l12.6.1zm185.9 3.2c.7 1.5 2 7.1 2.8 12.4 3 20.1-2.7 50.5-12.8 68.4-5.3 9.4-5.9 9.9-5.9 5.2 0-9.6 8-71.5 10.7-82.7 1.7-7.2 2.9-8 5.2-3.3m-515.4-.5c14.3 1.3 62 4.6 95.4 6.6 25.6 1.5 26.5 1.6 29.4 4 10.5 8.9 24.4 10.1 44.2 3.9 9.9-3.1 12.7-3.1 45.7 0 42.3 3.9 96.2 8.3 135.7 11 76.2 5.2 136.6 10.6 138.4 12.4.7.7.7 4.9-.2 13.3-1.8 18.4-5.1 42.6-6.1 45.4-1.9 4.8-3.6 4.9-37.3 2-17.1-1.5-41.3-3.6-53.7-4.6-150.3-12.7-290.6-26-358.5-34-52.6-6.2-49.8-5.6-52.9-11.5-1.9-3.7-2.1-6-2.5-27.4l-.3-23.4 5.8.6c3.3.4 10.9 1.1 16.9 1.7m0 73c4.4.5 23.8 2.6 43 4.5 19.3 2 45.8 4.7 59 6 29 3 91.7 9 114.5 11 9.1.8 33.4 3.1 54 5s47.9 4.4 60.5 5.5c12.7 1.1 36.1 3.1 52 4.5 36.9 3.3 87.4 7.5 89.9 7.5 1.4 0-.3 2.4-6.5 8.7-16.6 17-22.8 27.9-23.8 41.7l-.6 8.1-7-.3c-3.8-.1-18.5-1.3-32.5-2.7s-68.5-6.6-121-11.5c-97.8-9.2-124.4-11.8-178.5-17-53.6-5.2-60.4-5.9-85.5-8-13.5-1.1-25.5-2.3-26.8-2.6-1.3-.2-2.9-1.9-3.9-3.9-1.5-3.1-1.5-5.8-.5-27.9.7-13.5 1.6-25.6 2.2-27 1.1-3 .9-2.9 11.5-1.6"/><path d="M373.6 492.2c-.9 1.2-1.6 3.1-1.6 4.2 0 3 9.2 11.4 13.4 12.2 11.4 2.1 23.7-5.6 18.7-11.8-1.9-2.3-1.9-2.3-6.7-.5-7.3 2.6-9.4 2.2-14.2-2.3s-7.4-5-9.6-1.8m67.5 8.4c-2.5 3.2-2.5 3.7-.7 7.2 3.3 6.2 11 11.2 17.5 11.2 7.5 0 21.3-6.8 22.7-11.2.7-2.4-2.1-6.8-4.3-6.8-.9 0-4 1.3-7 3-7.9 4.5-11.9 4.1-18.3-1.5-2.8-2.5-5.7-4.5-6.5-4.5-.7 0-2.3 1.2-3.4 2.6m-36.9 14.6c-2.3 2.3-1.4 6.8 1.7 8.6 3.5 2 4.5 5.8 2.5 9-2.3 3.5-4.1 3.7-8.4.8-2.2-1.4-4.6-2.6-5.4-2.6-2.2 0-4.4 3.7-3.9 6.4 1 5.3 7.8 8.6 17.3 8.6 3.6 0 7.5.8 10.5 2.1 7.6 3.4 16.1 2.5 21.3-2.3 3.8-3.7 2.4-8.8-2.5-8.8-1.2 0-3.8.7-5.7 1.7-5 2.4-9.2.5-10.8-4.9-1.1-3.9-1.1-4 2-6.5 6-4.6 3.4-10.2-5.7-12.2-6.7-1.4-11.4-1.4-12.9.1m550.3-63c-.7 1.9 0 6.3 1 6.3 1.3 0 1.7-6.2.5-7-.5-.3-1.2 0-1.5.7m21.1 93.7c-.4.5-.2 1.2.3 1.5.5.4 1.2.2 1.5-.3.4-.5.2-1.2-.3-1.5-.5-.4-1.2-.2-1.5.3m-.9 9.8c-1.1 1.9-1.8 12.2-.8 12.7 1.4.9 2.2-.9 2.8-6.8.3-3.3.1-5.6-.5-6-.6-.3-1.3-.3-1.5.1m-2.3 17.7c-.4 1-.2 2.2.4 2.8.8.8 1.3.7 1.8-.6.4-1 .2-2.2-.4-2.8-.8-.8-1.3-.7-1.8.6m-2.7 23.3c-.8 1.4-.2 5.8.8 5.8 1.2 0 1.7-5.3.5-6-.5-.3-1.1-.2-1.3.2m-1.3 8.7c-.3.8-.3 2 .1 2.6s.2 1.6-.3 2.3c-1.1 1.4-3.5 19.7-2.7 20.5.2.3 0 1.1-.6 1.8q-.9 1.2 0 1.8c.5.4 1.2.2 1.6-.4.3-.5.3-1-.1-1-.3 0-.2-.6.4-1.3 1-1.2 2.8-11.6 3.7-21.4.4-5-.9-8.1-2.1-4.9m-5.8 41.5c-.4.5-.2 1.2.3 1.5.5.4 1.2.2 1.5-.3.4-.5.2-1.2-.3-1.5-.5-.4-1.2-.2-1.5.3m-1.1 9.1c-.4.6-.3 1.6.3 2.2s1.2.6 1.7-.2c.4-.6.3-1.6-.3-2.2s-1.2-.6-1.7.2m-1 8c-.4.6-.3 1.6.3 2.2s1.2.6 1.7-.2c.4-.6.3-1.6-.3-2.2s-1.2-.6-1.7.2m-1.1 6.1c-.3.6-.7 3.1-.8 5.5s-.5 4.7-.9 5c-1 1.1-.8 5.2.2 5.9 1.3.8 2.1-.8 2.5-5.2.2-2.1.7-5.4 1.1-7.4.7-3.7-.6-6.1-2.1-3.8m-3 20.5c-.4 1-.9 2.2-1.1 2.6s.1.9.6 1.3c1.5.9 3.5-3.5 2.2-4.8-.7-.7-1.2-.5-1.7.9m-2.5 13.8c-1.2 2.6-.5 6.1 1 5.2 1.2-.8 2-6.6.9-7.2-.4-.3-1.3.6-1.9 2M952 714c-.6 1.1-1 2.8-.8 3.8.1.9-.1 2.3-.6 3-.4.7-.9 3-1.1 5s-1 5.4-1.9 7.4c-.9 2.1-1.5 4.1-1.4 4.5.1.5-.4 1.9-1 3.3s-2.6 6.1-4.3 10.4c-3.9 9.6-11 20.4-17.8 27.1-4.3 4.2-5.1 5.5-5.1 8.7 0 5.1 1.7 5.7 3.6 1.1.9-2.1 3.3-5.6 5.4-7.8 7.6-7.9 15-20.3 18.5-31 1.4-4.4 2.8-10 2.4-10-.1 0 .6-1.5 1.5-3.3s1.6-3.8 1.4-4.5c-.1-.6.3-2.2 1-3.4.7-1.3 1.4-4 1.6-6 .3-2.1.7-5 1.1-6.4.8-3.3-1-4.7-2.5-1.9m-32.6 80.4c-.8 2.1.3 4.9 1.6 4.1.5-.3 1-1.5 1-2.5 0-2.5-1.8-3.6-2.6-1.6m-793.8 9.5c-.4.5-.2 1.2.3 1.5.5.4 1.2.2 1.5-.3.4-.5.2-1.2-.3-1.5-.5-.4-1.2-.2-1.5.3m4 5c-1.7 2.7 24.1 23 26.3 20.8 1.7-1.7.1-3.4-6.5-7.3-3.6-2.1-9.4-6.2-12.9-9.1s-6.6-4.9-6.9-4.4m792 10.9c-.7 1.2 0 6.7.9 6.7 1.1 0 1.6-6.3.6-7-.5-.3-1.2-.2-1.5.3m-1.1 9.4c-.3.8-.5 1.9-.3 2.4.5 1.8-7.5 16.5-11.3 20.8-9 10.2-21.5 15.2-35.8 14.3-9.2-.5-13.9-2.1-21.1-7-5-3.5-7.3-5.9-9.6-10.1-1-1.9-1.9-2.5-2.6-1.8-2 2 8.5 14.5 16.3 19.4 4.8 3.1 14.7 5.8 20.8 5.8 12.3 0 28-7.7 35.2-17.3 3.9-5.2 8.2-13.2 8.6-15.7.5-4.1 1.1-6.7 1.8-8.3.4-1.1.3-2.3-.3-2.9-.8-.8-1.3-.7-1.7.4m-100 13.1c-5.5 3.5-16.2 9.8-23.7 14.1-7.6 4.3-14.4 8.6-15.3 9.6-1.1 1.2-1.6 4.4-1.7 11.6-.3 11.4 1.4 14.6 2.3 4.4.8-8.5 2.2-11.7 6-13.8 8.5-4.7 30.1-17.4 35.2-20.8 6.3-4.1 10.6-4.7 13.5-2.1 2.6 2.4 3.4 1 1.5-2.7-2.2-4.3-4.3-6.6-6.2-6.6-.9 0-6.1 2.9-11.6 6.3m-567.9 3.9c-.8 1.3-3.4 7.9-5.7 14.8-5.6 17-10 25.1-17.9 33-9.7 9.7-19.6 13.9-33 14-11.7 0-21.7-3.9-30.1-11.6-5.3-5-7.7-4.4-3.3.9 5.8 6.9 14.2 12.8 20.9 14.6 16.2 4.3 33.8.3 45.3-10.3 5.7-5.1 13.4-16.9 16.2-24.4 1.1-3.1 2.4-6.6 2.9-7.7s1.9-4.9 3.1-8.5c1.3-3.6 3.2-7.3 4.2-8.3 2.6-2.2 7.2-2.2 32.3.3 11 1.1 22.3 2.2 25 2.4 2.8.3 10.4 1 17 1.6 6.6.5 16.3 1.5 21.5 2 11.2 1.2 28.2 2.9 36 3.6 3 .2 9.3.9 14 1.4s12.3 1.2 17 1.5 11.9 1 16 1.5 10.2 1.2 13.5 1.5 12.3 1.2 20 2c7.7.9 23.7 2.4 35.5 3.5s25.6 2.4 30.5 2.9c5 .6 12.4 1.3 16.5 1.7s8.6.8 10 .9 8.8.8 16.5 1.4c7.7.7 20.3 1.9 28 2.7 22.3 2.3 54.2 5.2 64.5 5.9 6.5.4 10 1.1 11.2 2.2 1.6 1.4 1.8 1.4 2.4-.1.4-1 .2-2.8-.4-4-1.1-2.5-3.1-3.1-14.2-4.1-15.1-1.3-62.4-5.7-86.5-8-14.3-1.3-28.9-2.7-32.5-3s-10.5-1-15.5-1.6c-8.7-.9-99.1-9.8-142.5-13.9-11.8-1.2-32.7-3.2-46.5-4.5-23.2-2.3-89.3-8.5-90.1-8.5-.2 0-1 1-1.8 2.2m526 50.9c-.2.8-.9 4.4-1.5 8-3 17.9-13.3 32.3-27.9 39.2-9 4.2-20.8 4.9-30.9 1.9-7.2-2.2-17.5-8.8-19.4-12.4-.7-1.3-1.4-1.7-2.1-1-1.6 1.6.5 4.5 7.4 10.2 15.7 13.2 34.4 14.4 52.1 3.7 5.1-3.1 14-13.1 16.8-18.9 5.5-11 9.4-28.7 7.1-31-.8-.8-1.3-.7-1.6.3"/></g></svg>