<svg xmlns="http://www.w3.org/2000/svg" width="1365.333" height="1365.333" preserveAspectRatio="xMidYMid meet" version="1.0" viewBox="0 0 1024 1024"><g fill="#000" stroke="none"><path d="M230 84c-37.3 1.5-59.4 7.9-83 24.1-24.4 16.7-41.4 41.9-48.6 72-1.7 6.9-1.8 19.2-2.4 175.9l-.5 168.5-4.8 13.1c-7 19.3-8.3 30.6-6.8 56.9 2.2 35.7 5.8 70.4 12.2 115 7.6 53.6 12.8 72.8 24 89.2 1.6 2.3 2.9 5.1 2.9 6.3 0 1.6.5 2.1 2.3 1.8 1.8-.2 2.2.1 1.9 2.3-.4 3.1 7.7 11.1 18.6 18.3l7.4 4.9-.6 5.1c-3.4 27.6-2.3 41.9 4 51.4.8 1.2 1.4 2.8 1.3 3.5-.3 2.7.3 3.9 4.2 8.2 9.5 10.3 20.4 14.8 35.4 14.8 14.1 0 25.3-5 35-15.4 8.7-9.4 12.2-15.9 19.7-37.4 2.8-8.2 4.1-9.5 9.7-9.5 4.2 0 63.7 5.4 88.6 8 21.9 2.3 51.6 5.1 63 6 6.6.6 13.8 1.2 16 1.5 11.1 1.5 83.3 8.7 115.5 11.5 5.8.5 12.5 1.2 15 1.4 2.5.3 10.1 1 17 1.6 6.9.5 16.8 1.5 22 2 22.9 2.4 51.5 5.1 63.6 6 17.5 1.2 18 1.5 19.4 10.4 1.7 9.8 5.5 21.4 8.5 25.8 1.4 2 2.5 4.2 2.5 4.8 0 5.9 12.9 17.2 24 21.1 4.9 1.7 8.8 2.3 15.5 2.3 8 0 9.9-.4 16.7-3.3 8.7-3.7 15.2-9 21.4-17.3 7.9-10.8 13.9-31.9 11.2-39.4-1-2.9-1-3.9.2-5.7.8-1.2 1.7-5.3 2.1-9.1.8-8.5 1.3-9 19.8-19.6 7.3-4.1 16.2-9.4 19.9-11.7 3.6-2.4 7.1-4.3 7.7-4.3 1.5 0 4.7 3.7 6.5 7.5 1.8 3.6 11.1 12.9 16 15.9 5.5 3.5 16.1 6.6 22.2 6.6 11.8 0 26.9-6.9 35.1-16 8-8.9 12.1-18.6 13.3-31.9.3-2.4.7-4.8 1-5.3s-.1-2-1-3.3c-1.4-2.2-1.9-9.2-1.7-25.4.1-4.6 2.3-9.1 6.6-13.1 7.1-6.6 15.5-22.2 19.4-35.5 1.1-3.9 3.1-10.8 4.5-15.4s2.8-10.9 3-14c.3-3.1.8-7.1 1.2-8.8.3-1.8.3-4.1-.1-5-1.1-2.4-.7-4.4 1.2-6.5.9-1 1.5-3 1.5-4.5s.4-3.5.9-4.4 1-3.6 1.3-6c.2-2.4.7-5.6 1.1-7 .4-1.8.1-3.1-.9-4.2-1.8-1.8-2.1-5.3-.6-6.2 1-.6 1.4.6 1.1 3.5-.2 1.3-.1 1.3.8 0 .7-1 .6-2.1-.4-3.7-1.7-2.6-2-6.9-.5-7.8 1-.6 1.4.6 1.1 3.5-.2 1.3 0 1.3.8.1.6-.9.5-2.2-.1-3.7-.6-1.3-.7-3.1-.2-4.1.4-1 .8-4.1.8-6.8.1-2.9 1-6.9 2.3-9.5 2.7-5.6 5.9-26.7 5.3-35.5-.1-1.7-.1-6.7-.1-11.3.1-6.8.5-8.6 2.1-10.2 2.4-2.4 2.5-3.4.4-5.5-1.4-1.3-1.6-2.9-1.1-8.6.6-7.7 1.5-9.9 2.8-7.8 1.3 2 1 6.8-.6 11.4-1.2 3.4-1.2 3.7 0 2.1 2.2-2.9 2.9-9.9 1.4-14-1.1-2.9-1-4 .1-6.1 1-1.9 1.1-3 .2-4.8-.6-1.2-1.6-6.1-2.2-10.9-1.8-15.1-6.1-26.2-16.2-41.9l-4.8-7.7.6-11.3c.4-6.2 1.3-12.4 2.1-13.8 1.6-3.2 1.6-4.6.1-7.4-.9-1.6-1.2-9.4-.9-29.7.4-36.1-1.4-49.7-8.8-68-6.8-16.7-20.8-34.7-34.7-44.6l-6.2-4.5-.5-56.2c-.4-53.5-.5-56.7-2.6-66.1-5.6-25-15.8-43.3-33.8-60.7-21.4-20.6-48.2-32.6-80.3-35.9-12.7-1.3-530.2-2.2-560-1m553.9 1.7c.3.5 4 .9 8.2 1 17.7.4 43.3 9.6 61.9 22.3 13.9 9.5 30 27.2 37.5 41.3 7.8 14.7 14.1 36.6 13.3 46.4-.2 2.4 0 4.3.4 4.3.5 0 .8 23.4.8 51.9v51.9l6.3 4.5c9.8 7.1 22.3 20.8 28.4 31.2 7.8 13.5 15.3 37.5 14.1 45.6-.3 1.6-.1 2.9.4 2.9.4 0 .8 11.5.8 25.5s-.3 25.5-.8 25.5c-.4 0-.6 7.9-.5 17.5s-.1 17.5-.6 17.5c-.4 0-.4 2.5 0 5.5.5 3.9 1.7 6.9 4.1 10.3 9.1 12.6 17.8 35.2 16.6 43.2-.3 1.7-.1 3 .4 3 1 0 .3 14-1.1 20.1-.5 2.5-1.2 9.4-1.6 15.5-.7 13.5-1.4 19.3-2.5 21.9-1.3 2.8-5.9 39.1-5.3 41.5.3 1.1-.2 4.2-1.1 6.9s-1.3 5.7-1 6.6c.4.9.2 2.6-.3 3.8-.6 1.2-2.1 8.9-3.3 17.2-1.2 8.2-2.6 16.7-3.1 18.7-.5 2.1-.7 4.8-.3 6.2.3 1.3 0 3.5-.7 4.8-.7 1.2-1.6 4.3-2 6.8-4 24.1-11.7 46-21.2 60-1.7 2.5-5.5 7.1-8.5 10.2l-5.4 5.7.7 7.8c.4 4.3 1.2 8.4 1.7 9 .6.7.8 2.6.6 4.3-.3 1.6-.1 3 .4 3 1.9 0 0 18.3-2.9 27.5-2.2 6.9-9.2 17.4-14.4 21.7-9.6 7.9-20.1 11.4-31.2 10.5-8.6-.7-12.5-2.1-19.5-6.6-6.3-4-11.3-9.6-14.2-16-2.8-5.8-4.8-8.1-7.3-8.1-1.1 0-9.4 4.4-18.6 9.9-9.1 5.4-19.8 11.7-23.7 13.9-3.9 2.3-7.7 4.8-8.4 5.7-1 1.2-1.5 5.4-1.6 14.9-.1 7.2-.4 13.8-.7 14.6s-1 4.7-1.6 8.5c-3.6 24.1-22.1 43.1-42.9 44.3-10.5.6-18.6-1.6-27.3-7.4-3.8-2.5-7.4-5.4-7.9-6.5-.6-1-1.7-1.9-2.4-1.9-1.7 0-7.2-8.4-9.6-14.8-2.4-6.2-5-20-5-26.3 0-4.2-.3-5.1-2.3-5.8-1.9-.8-34.5-4.2-51.2-5.4s-22.9-1.8-23.6-2.2c-.4-.3-4.7-.7-9.5-1-4.9-.4-21.7-1.9-37.4-3.5-29.2-3-37.9-3.8-41.6-4-1.1 0-7.9-.7-15-1.5-16-1.8-22-2.4-25.9-2.4-1.6-.1-6.4-.5-10.5-1.1s-9.7-1.2-12.5-1.5c-2.7-.2-7.2-.6-10-.9-5.4-.6-9.5-.9-22-2-4.4-.3-13.8-1.3-21-2.1-12.6-1.5-17.5-2-28-2.8-15.6-1.2-23.3-1.9-35-3.2-7.1-.8-17-1.7-22-2-4.9-.3-9.8-.8-10.9-1.1-1-.4-4.2-.8-7-.9-2.8-.2-7.1-.6-9.6-.8s-9-.7-14.5-1.1c-5.5-.3-10.9-.9-12-1.3-2.5-.9-6.6-.4-8.2.9-.7.6-1.8 2.9-2.4 5.2-5 18-11.7 32.4-19.1 40.9-4.5 5.3-13.1 11.5-19.6 14-10.3 4.1-26.2 3-35.7-2.3-14.2-7.9-22.8-19.6-22.9-31.1-.1-3.2-.4-5.9-.8-5.9-.5 0-.8-1.6-.8-3.5s.3-3.5.8-3.5c.4 0 .5-2.7.4-6-.2-3.3 0-6 .5-6s.8-1.3.5-2.8c-.3-2.5.4-7.5 2.3-15.3.6-2.3-.1-3-7.3-7.6-10.4-6.6-21.2-15.3-21.2-17 0-.8-.7-1.6-1.5-1.9-4.7-1.8-15-22.6-18.9-38.2-4.6-18.6-16.2-95.7-15.4-102.9.2-1.8 0-3.4-.4-3.5-.5-.2-.9-4.2-1.1-9-.1-4.8-.6-8.8-1-8.8-.5 0-.7-2.5-.5-5.5.1-3-.1-5.5-.5-5.5-.5 0-.7-2.5-.5-5.5.1-3-.1-5.5-.5-5.5-.5 0-.7-3.2-.5-7 .2-3.9-.1-7-.5-7-.5 0-.7-3.4-.5-7.5s0-7.5-.4-7.5c-.5 0-.8-4.3-.8-9.5s.3-9.5.8-9.5c.4 0 .6-2 .4-4.5s0-4.5.6-4.5c.5 0 .7-1 .5-2.3-.6-3.1 2-12.7 6.8-25.5l3.9-10.5V359.4c0-89.9.3-163.4.8-163.4.4 0 .7-3 .8-6.8.2-9.2 3.5-20.6 10.1-34.2 16.6-34.3 48.5-58.6 87.3-66.5 4.7-1 11.1-1.8 14.2-1.9 3.2 0 5.8-.5 5.8-.9s7.4-.7 16.5-.5c9.5.2 16.5-.1 16.5-.6 0-1.1 534.1 0 534.9 1.1M957.5 456c-.4 1.7-1.1 2.8-1.6 2.4-1.1-.6-1.2-6.7-.2-7.8 1.3-1.2 2.5 2.4 1.8 5.4m20.5 90.2c0 1.6-.3 1.9-1.1 1.1-.6-.6-.8-1.6-.5-2.2 1.1-1.7 1.6-1.3 1.6 1.1m-2.6 26.7c.8 1.2-.3 4.1-1.5 4.1-.5 0-.9-1.1-.9-2.5 0-2.5 1.4-3.4 2.4-1.6m-2.9 27.9c-.4 1.5-.9 5.2-1.1 8.2-.8 13-3.8 27-5.4 25.3-.8-.8 3.3-35.1 4.6-38.3 1-2.6 2.7 1.8 1.9 4.8m-7.5 46.3c0 1.1-.4 1.8-1 1.4-.5-.3-.7-1.2-.3-2 .7-2.1 1.3-1.9 1.3.6m-2.7 25c-.7 8.4-1.6 12.4-2.9 14.3-1.5 2-1.6 1.6-1-4.7.9-9.6 1.7-12.8 3-12.4.6.2 1 1.5.9 2.8m-2.9 17.7c.2.4-.1 1.8-.8 3.1-1.5 2.7-3.1 1.3-2.1-1.9.6-2 2-2.6 2.9-1.2m-3.8 19.4c-1.6 2.2-1.6 2.2-1.6-1.8 0-2.2.6-4.6 1.3-5.3 1.9-1.9 2.2 4.4.3 7.1m-.4 7.4c-.3 3.8-1.7 9.5-5.2 20.4-1 3-2.3 7.3-2.9 9.5-3.4 11.3-10.5 23.8-18.3 32-5.2 5.6-7.8 11.2-6.7 14.3 1 2.6.3 6.6-1 5.7-.5-.2-1.2-3.7-1.5-7.6l-.7-7.1 5.3-5.6c6.6-6.9 10.4-12.5 15-21.7 3.9-7.8 10-25.8 11.8-35 1.6-8.6 2-9.7 3.3-9.2.7.2 1.1 2 .9 4.3M126 805.1c0 .5-.4.9-1 .9-.5 0-1-.7-1-1.6 0-.8.5-1.2 1-.9.6.3 1 1 1 1.6m21.4 17.3c4.2 2.7 7.6 5.1 7.6 5.5 0 .3-.5 1.3-1 2.1-.8 1.2-1.2 1.1-3.2-.7-1.3-1.1-4.3-3.3-6.8-4.8-5.7-3.6-16-13.3-16-15.2 0-.8 2.6.8 5.9 3.5 3.2 2.7 9.3 7 13.5 9.6m777.1-.3c-.3.9-.7 3.3-.9 5.5-1.1 11.4-2.8 15.9-9.7 26-7.9 11.6-24.2 20.4-37.6 20.4-5.6 0-15.6-2.9-20.2-5.8-6.2-3.9-13.5-11.1-17.1-16.9-5.7-8.9-6.4-8.9-19.7-.9-2.6 1.6-10.2 6.1-16.8 9.9s-13.1 7.6-14.3 8.4c-3.1 1.9-5.2 7.1-5.2 13 0 2.6-.4 5.5-1 6.3-1.7 2.7-2.3-1.7-1.6-11.3.4-6.8 1.1-9.6 2.4-10.9.9-.9 8.9-5.8 17.7-10.9 8.8-5 19.1-11.1 22.8-13.5s7.4-4.4 8.1-4.4c1.8 0 3.9 2.6 7 8.7 9 18 30.4 26.5 50.3 20.1 17.3-5.5 29.3-19.7 32.3-38 1.5-9.8 1.8-10.7 3-8.8.5.8.7 2.2.5 3.1m-652.4 24.5c5.7.4 12.4.9 14.9 1.1s6.8.6 9.6.8c2.8.1 6 .5 7 .9 1.1.3 6 .8 10.9 1.1 5 .3 14.9 1.2 22 2 11.7 1.3 19.4 2 35 3.2 10.5.8 15.4 1.3 28 2.8 7.2.8 16.6 1.8 21 2.1 12.5 1.1 16.6 1.4 22 2 2.8.3 7.3.7 10 .9 2.8.3 8.4.9 12.5 1.5s8.9 1 10.5 1.1c3.9 0 9.9.6 25.9 2.4 7.1.8 13.9 1.5 15 1.5 3.7.2 12.4 1 41.6 4 15.7 1.6 32.5 3.1 37.4 3.5 4.8.3 9.1.7 9.5 1 .7.4 7.1 1 23.6 2.2 18.4 1.3 48.4 4.5 50.3 5.3 1.6.7 2.2 1.8 2.2 4 0 2.7-.2 3-1.9 2-1.1-.5-5.9-1.2-10.8-1.6-9.4-.6-40.4-3.4-64.3-5.9-8-.8-20.1-1.9-27-2.5s-14.5-1.3-17-1.6c-2.5-.2-9.2-.9-15-1.4-32.2-2.8-104.4-10-115.5-11.5-2.2-.3-9.4-.9-16-1.5-11.4-.9-41.1-3.7-63-6-26.5-2.8-84.5-8-89.2-8-6 0-6.8.8-9.8 9.5-.9 2.7-2.1 5.9-2.6 7s-1.8 4.6-2.9 7.7c-1.2 3.1-4.3 9-6.9 13-12.3 18.8-29.5 27.5-49 24.8-10.1-1.4-17-5-25.4-13.2-8.1-7.9-8.2-11.3-.2-4 18.6 17.1 47 16.1 65-2.2 7.5-7.6 12.8-17.7 18.5-34.8 2.3-7 4.7-13.1 5.4-13.7 1.7-1.4 4.9-1.8 6.7-1 .9.5 6.3 1.2 12 1.5m509.5 50.8c.7 1.9-2 16.1-4.2 22.1-5.8 15.3-17.5 27.5-31.9 33.1-7 2.7-19.9 2.5-27.9-.4-6.9-2.5-18.9-11.3-21.8-16-3-4.9-1.7-4.8 3.5.1 20.9 19.7 54 15.9 69.3-7.9 4.7-7.3 8.3-16.8 9.6-25.2 1.1-6.9 2.2-8.8 3.4-5.8"/><path d="M216.1 115.1c-44 3.9-75.6 29.5-86.8 70.4l-2.8 10-.2 166.3L126 528l-3 5.7c-10.9 20.4-11.7 46.6-3.4 120.3 11.8 106.5 18.7 129.7 42.4 143.7 1.9 1.2 7.8 3.6 13 5.4 5.2 1.7 9.9 3.5 10.3 3.9.5.4-.3 10.1-1.8 21.6-3.3 26.6-4.1 41-2.3 44.4 3.2 5.8 13.3 9.4 20.8 7.1 7.6-2.3 11.4-7.3 16-21.6 4.3-13.3 14.2-40 15.7-42.3 1.4-2.2 1.9-2.3 8.1-1.8 3.7.4 29.9 2.9 58.2 5.7 28.3 2.7 79.4 7.7 113.5 10.9 34.1 3.3 68.5 6.7 76.5 7.5 39.2 3.9 147 14.2 187.9 18 19.9 1.8 25.7 2.6 26.6 3.8.6.9 2.6 10.3 4.4 20.9 5 29.2 7.3 34.7 15.4 37.7 6.6 2.5 16.8.7 20.9-3.6 3.7-4 4.7-10.3 6.1-39.5 1-20.1 1.6-26.1 2.7-27.2.8-.8 14.1-8.6 29.5-17.4s36.3-20.8 46.4-26.6c10.1-5.9 18.7-10.3 19.1-9.9s3.2 8.8 6.4 18.5c6.6 20.7 8.9 24.1 16.8 25.3 7.1 1.1 12.6-.2 16.7-4l3.6-3.4-.1-13.3c-.1-7.5-1.1-19.7-2.3-27.8-2.9-20-3-19.3 2.7-23.1 16.7-11.2 24.7-25.7 30.6-55.7 5-25.1 13.7-81.1 19.2-123.7 6.8-53 5.1-67-10.5-84.8-2.8-3.2-5.6-6.7-6.2-7.9-.8-1.6-.8-11.7.1-39.4 1.9-55.7.8-73.2-5.6-90.2-6.6-17.6-21.5-33.8-39.4-42.8l-4.9-2.5-.3-63.7c-.4-62.9-.4-63.8-2.7-71.7-4.6-16.1-10.7-26.9-22.3-39.1-10.6-11.1-24-19.8-37.8-24.3-16.9-5.6-8.7-5.3-154-6.1-180-1-431.2-.9-442.9.1m442.9.9c144.6.8 137.8.5 153 5.8 13.5 4.7 27.6 13.9 37.8 24.6 8.6 9.1 12.4 14.6 17.2 24.9 7.6 16.5 7.4 13.7 7.8 85.4l.3 64.2 4.9 2.5c17.4 8.7 31.5 23.7 39 41.4 6.8 16 7.9 33.3 6 90.6-.9 28.5-1 38.8-.1 40.4.6 1.2 3.4 4.7 6.2 7.9 15.7 17.9 17.3 30.8 10.5 83.8-5.5 42.6-14.2 98.6-19.2 123.8-5.7 28.5-13.5 42.8-29.6 53.8-6.9 4.7-6.7 3.9-3.8 24.4 1.1 7.7 2.3 19.6 2.6 26.5l.7 12.5-2.9 3.4c-7 8.4-19.9 8.1-25.8-.5-1.9-2.9-9.4-23.8-13.2-37.2-.2-.6-1-1.2-1.7-1.2s-9.7 4.8-19.8 10.6-31 17.8-46.4 26.6-28.6 16.6-29.4 17.3c-1.1 1.1-1.8 7.6-2.7 27.7-1.5 30.2-2.3 35.4-6.2 39.1-6.9 6.6-18.5 6.4-24.9-.5-3.7-3.9-5.1-8.8-9.2-31.9-2.2-12.2-4.4-22.6-4.9-23.1s-15-2.2-32.3-3.8c-54.7-5.1-144.8-13.7-182.9-17.5-8-.8-42.4-4.2-76.5-7.5-34.1-3.2-84.9-8.2-113-10.9-71.3-6.9-65.9-6.5-67.3-4.8-.7.8-4.8 11.7-9.2 24.3-8.6 24.4-11.4 31.4-14.3 35.1-2.6 3.2-8.9 6.3-12.9 6.3-4.5-.1-11-3.2-13.7-6.6-2.2-2.7-2.3-3.5-1.8-13.4.3-5.8 1.8-19.9 3.2-31.3 1.4-11.5 2.5-21.3 2.3-21.8-.2-.6-4.4-2.4-9.3-4-27.4-9.2-37.8-23.8-45.4-63.9-4.7-24.7-13.9-99.9-16.1-131-1.9-27.6-1-47.9 2.6-60.5.8-2.8 3-8.1 4.9-11.8l3.5-6.8.3-166.7.2-166.7 2.6-9.6c4.6-16.5 13.1-31 25.5-43.3 14.9-14.9 36.6-24.4 60.5-26.5 11.7-1 262.9-1.1 442.9-.1"/><path d="M576.2 214.7 576 312h24.8c63.5 0 233.1 2.1 244.7 3 7.2.6 16.3 2 20.4 3.1 4 1.1 7.6 1.8 7.8 1.6 1.1-1.2-16.8-4.8-28.2-5.7-11.6-.9-180.9-3-244.2-3H577l-.3-96.8-.2-96.7zM214 127.6c-14 2.2-26.8 6.6-36.5 12.9-11.1 7-26.2 6.5 183.9 6.5 161.3 0 189.5-.2 190.5-1.4.8-.9 1.1-4.5.9-9.8l-.3-8.3-168-.1c-92.4-.1-169.1 0-170.5.2m337.8 8.2c.2 4.6-.2 7.9-.9 8.8-1 1.2-28.8 1.4-189.8 1.4l-188.6-.1 3-2.4c3.7-3.1 17.3-9.8 24-12 2.8-.8 7.7-1.9 11-2.4s81.4-.8 173.5-.7l167.5.1zm-385 28.9c-1.7.4-1.8 4.2-1.8 60.8v60.4l3.3.6c1.7.3 7.7.5 13.2.3l10-.3.3-61.3.2-61.2-11.7.1c-6.5.1-12.6.3-13.5.6m24 60.5-.3 60.3-10 .3c-5.5.2-11 0-12.2-.3l-2.3-.5v-59.4c0-46.6.3-59.5 1.3-59.9.6-.3 6.3-.6 12.5-.6l11.2-.1zm349.5-60c-1.3 2.1-1.6 142.3-.3 144.8 1 1.9 1.9 2.1 7.8 1.8l6.7-.3v-147l-6.7-.3c-4.6-.2-6.9.1-7.5 1m13.2 72.8v72.5l-5.6.3c-4 .2-5.9-.1-6.8-1.2s-1.1-17.7-.9-71.8c.2-38.7.7-70.9 1.1-71.6.6-.9 2.7-1.2 6.5-1l5.7.3zm-316.4-71.1c-1.2 2.1-1.6 113.7-.5 117.9.6 2.2.9 2.3 11.8 2l11.1-.3.6-9.5c.9-12.9.9-105.9 0-109-.7-2.4-.9-2.5-11.3-2.8-9.8-.2-10.8-.1-11.7 1.7m21.9 1.7c1.1 2.8 1.2 93.1.1 107.9l-.6 9-9.9.3c-7.3.2-10.2-.1-10.8-1-1.3-2.2-1-116.2.4-117.6.8-.8 4.6-1.2 10.5-1.2 9.1 0 9.4.1 10.3 2.6m57.3-2.9-3.3.4v119.6l3.1.7c5 1 19.9.7 22-.4 1.8-1 1.9-2.8 1.9-60s-.1-59-1.9-60c-1.9-1-14.9-1.1-21.8-.3m21.5 1.5c1.7 1.7 1.7 115.9 0 117.6-1.3 1.3-17.4 1.7-21.5.6l-2.3-.6V167.1l2.8-.4c6.4-1 19.8-.7 21 .5m167.7-1c-.3.7-.4 27.6-.3 59.8l.3 58.5h22v-119l-10.8-.3c-8-.2-10.9.1-11.2 1m21 58.8v58.5h-20l-.3-57.5c-.1-31.6 0-58.1.3-58.8.3-.9 3-1.2 10.2-1l9.8.3zm-89.2-48.3-2.3.4v53.4c0 62-1.5 55.5 13 55.5s13 6.4 13-55c0-51.3-.1-53-1.9-54-1.9-1-17.2-1.2-21.8-.3m21.5 1.5c1.7 1.7 1.7 103.9 0 105.6-.8.8-4.7 1.2-10.8 1.2s-10-.4-10.8-1.2c-.9-.9-1.2-14.1-1.2-53.4 0-48.9.1-52.3 1.8-52.7 3.9-1.1 19.8-.7 21 .5m11.9-1.6c-.4.4-.7 24.9-.7 54.5 0 48 .2 53.7 1.6 54.3.9.3 6 .6 11.4.6 7 0 10.1-.4 10.9-1.4.8-.9 1-16.1.9-54.7l-.3-53.4-11.6-.3c-6.3-.1-11.8.1-12.2.4m23.1 53.3c.1 38.6-.1 52.7-.9 53.8-.9 1-3.6 1.3-11.3 1.1l-10.1-.3-.3-52.5c-.1-28.9 0-53.1.3-53.8.3-.9 3.2-1.2 11.2-1l10.8.3zm-222.5-50.2c-1 .4-1.3 12-1.3 53.3v52.8l2.3.6c3.6.9 25.3.7 28.1-.4l2.6-1v-52.4c0-46.8-.2-52.5-1.6-53-1.9-.7-28.3-.7-30.1.1m30.5 52.3c.2 47.5.1 51.6-1.5 52.7-1.8 1.4-24.6 1.9-27.7.7-1.4-.5-1.6-6.1-1.6-52.4 0-40.5.3-51.9 1.3-52.4.6-.2 7.5-.4 15.2-.3l14 .2zm-100.2-48.8c-.3 1.3-.6 24.8-.6 52.3 0 37.7.3 50.4 1.2 51.3 1.5 1.5 18.5 1.6 22.2.2l2.6-1-.2-52.2-.3-52.3-12.1-.3c-11.9-.3-12.2-.2-12.8 2m24.2 50.3c.2 47.1.1 51.1-1.5 52.2-2.2 1.7-19.4 1.8-21.1.1-.9-.9-1.2-13.6-1.2-50.9 0-27.4.3-50.5.6-51.3.5-1.4 2.3-1.6 11.8-1.4l11.1.3zM353.3 187c-5.3 2.4-8.3 4.5-8.3 5.5 0 .8 5 10.9 11.1 22.3 39.9 74.1 38.8 72.2 41.4 72.2.7 0 5.1-1.8 9.9-4 5.7-2.6 8.6-4.5 8.6-5.6 0-.9-3.8-8.5-8.4-16.8s-11.9-21.9-16.3-30.1c-20.5-38.8-25.6-47.5-27.7-47.5-1.2 0-5.8 1.8-10.3 4m19.9 12.7c4.8 8.7 12.1 22.3 16.3 30.3 4.3 8 11.7 21.7 16.6 30.6s8.9 16.4 8.9 16.8-3.9 2.5-8.7 4.7c-8.3 3.8-8.7 3.9-10.4 2.2-1-1-7.6-12.6-14.7-25.8s-18-33.4-24.1-44.9c-6.7-12.4-10.9-21.2-10.4-21.7 1.5-1.5 14.6-7.7 16.4-7.8 1-.1 4.5 5.3 10.1 15.6M142 307.5v9.5h164.8c162 0 164.9-.1 174.2-2.1 6.5-1.4 15.1-2.2 27.2-2.6 12.6-.4 18.1-1 18.9-1.9.5-.7.9-3.6.7-6.6l-.3-5.3-192.7-.3L142 298zm384.8-3.7c.2 2.4-.2 4.9-.7 5.6-.8.9-6.2 1.5-18.4 1.9-11.5.4-20.3 1.3-26.7 2.6-9.3 2-12.3 2.1-173.7 2.1H143v-17l191.8.2 191.7.3zm-31.2 22.3c-10.8 1.6-25 5.9-35.1 10.8-27.9 13.4-49.8 39-57 66.6-1.8 6.9-1.3 7.9 6.5 15.1l5.5 5.1 15-.5c13.9-.4 15.9-.3 25.6 2.2 5.8 1.4 11.1 2.6 11.9 2.6s6.6-5.4 12.7-11.9c16.1-17 31.9-28.2 37.8-26.7 3.2.8 8.2 5.2 10 8.7 1.8 3.4 4 23.9 5.5 50.7.9 16.6 1.4 20.1 3.6 26 1.4 3.7 3.1 9.4 3.8 12.7 1.2 5.7 1.3 6 4.2 5.9 1.6-.1 7.9-1.3 13.9-2.8 10.9-2.5 29-4.9 49.5-6.4l10.4-.7 1.9-5c1-2.8 2.4-6.4 3.2-8 .8-1.7 2.8-6.6 4.5-10.9 6.1-15.3 19-42.9 21.5-46.2 4.5-5.9 8.9-6 38.5-.4 17.9 3.3 40.9 6.8 53.5 8.1 18.1 1.7 57.8 2.5 84.9 1.6 27.5-1 29.5-.6 32.2 6 2 4.6 1.4 6.8-7.5 30.6-7.5 20.1-14.6 43-13.8 45.1.4 1 3.6.6 14.9-2 16.4-3.9 33.1-6.4 42.1-6.4 3.4 0 6.8-.4 7.4-.8 2.1-1.3 3.2-10 4.9-39.5 3.8-65.7.4-85.7-17.6-103.8-9.1-9.1-19.4-14.6-34.5-18.5-8.3-2.1-13.8-2.6-32.5-3.4-24.4-1-110.8-2.5-224-4-81.9-1.1-95.2-1.1-103.4.1m175.4 2c112.7 1.7 163.3 2.9 171.7 3.9 19.9 2.5 34.4 9.1 46.3 21 8.3 8.3 13.8 17.8 16.5 29.2 3.2 12.8 2.9 62.4-.6 98.7-1.3 13.9-1.5 14.1-9.4 14.1-9.2 0-25.7 2.5-42.2 6.3-9.5 2.2-14.3 3-14.3 2.2 0-3 8.1-28.1 14.8-46 8-21.2 9.1-27 6-31.7-3-4.5-7.1-5-32.9-4.1-26.5.9-66.4.1-84.4-1.6-12.6-1.3-35.6-4.8-53.5-8.1-35.8-6.7-37.5-6.3-45.1 10.6-1.7 3.8-4.2 9.4-5.6 12.4s-5.8 13.6-9.9 23.5-8.1 19.4-8.9 21.1l-1.4 3.2-10.8.6c-17.7 1.1-36.3 3.5-47.9 6.3-16.3 3.8-15.4 4-17.5-4.2-.9-3.9-2.6-9.4-3.8-12.3-1.7-4.2-2.3-9.1-3.1-24.5-1.5-26.3-3.6-46.6-5.4-50.9s-6.5-8.4-10.6-9.3c-2.3-.5-4.6.1-9.3 2.3-9.2 4.3-17.3 10.9-30.1 24.4l-11.5 12.1-11.3-2.8c-10.4-2.5-12.4-2.7-25.8-2.3l-14.5.5-5.5-5.1c-8.3-7.6-8.2-7.5-6.5-14.1.9-3.1 3.1-9 5-13.1 15.4-33.4 48-57.4 86.4-63.4 6-.9 70.9-.5 175.1 1.1M247.3 337l-2.3.9V450l2.3.5c1.2.3 6.9.5 12.7.3l10.4-.3.9-4c.8-3.8.4-108.2-.4-108.9-.9-.9-21.6-1.4-23.6-.6m22.6 1.6c.8.8 1.1 105 .3 107.9l-.8 3-9.5.3c-5.2.2-10.4 0-11.6-.3l-2.3-.5v-55c0-51.2.1-55 1.8-55.9 1.5-.9 21.1-.5 22.1.5m-61.4 14.6c-.3.7-.4 22.9-.3 49.3l.3 48h24v-98l-11.8-.3c-8.8-.2-11.9.1-12.2 1m23 48.3v48h-22l-.3-47c-.1-25.9 0-47.6.3-48.3.3-.9 3.2-1.2 11.2-1l10.8.3zM164 362.6c-.6 1.5-1 19.1-1 42.9s.4 41.4 1 42.9l1 2.6h14.9c13.8 0 15.1-.2 16.1-1.9 1.3-2.6 1.4-83 0-86.5l-1-2.6h-30zm31 .3c1.5 3 1.4 84.3-.2 85.9-.8.8-5.6 1.2-15 1.2-12.6 0-13.8-.2-14.8-1.9-1.4-2.7-1.4-82.5 0-85.2 1-1.7 2.3-1.9 15-1.9s14 .2 15 1.9m169 29.7c-3 1.3-6 4.9-7 8.3-1.4 5.2-5 34.7-5 40.9 0 5.9 1.4 7.2 5.5 5.4 3.1-1.4 5.1-5.5 11.8-23.3 3-7.9 6.6-16.7 8.1-19.6 3.2-6.3 3.3-8.4.5-10.1-2.4-1.5-11.5-2.5-13.9-1.6m11.6 2c4 1.9 4.1 2.2 1.3 7.7-1.2 2.3-4.6 10.7-7.6 18.5-6.5 17.3-9.6 23.8-12.3 25.2-3 1.6-4 .4-4-4.8 0-6.3 3.8-35.9 5.1-39.9 2.3-7.3 10.1-10.2 17.5-6.7"/><path d="M507.5 409.1c-5 3.2-16.4 14.2-29.3 28.3-7.1 7.8-7.2 7.8-11.4 7.3-2.4-.3-7.4-1.5-11.3-2.8-6.3-2-8.9-2.2-24.5-2.2-9.6.1-18.8.3-20.4.5-2.6.3-3.6-.6-9.6-8.2-6.7-8.6-11.8-13-15-13-1.9 0-6.9 12.3-12.8 31.5-1.7 5.5-4.7 13.2-6.6 17.2-6.3 12.9-8.1 20.4-8.1 33.3.1 17.1 3.2 26.3 13.7 39.6 10.8 13.8 32.3 25.2 51.2 27.1 8 .8 11.6 2.6 11.6 5.8 0 1.4-.9 3.4-2 4.5-5.3 5.3-29.9-.4-46.2-10.7-4.7-2.9-7.4-2.9-8.9-.1-3.3 6.2-13.4 19-16 20.4-1.7.8-10.8 3.5-20.2 5.8-24.7 6.2-47.1 13.8-53.5 18.1-6.6 4.5-10.4 10.1-10.9 16.3-.5 6.3 1.3 9.7 5.2 9.7 2.5 0 3.4-.7 5.3-4.3 3-5.3 6.5-7.3 8.9-5 1.4 1.5 1.4 2 0 5.7-2.1 5.1-1.4 6.9 2.8 7.7 4.2.7 6.3.3 25.6-5.6 15.8-4.9 29.9-8.7 42.1-11.5 3.7-.8 10.3-3.2 14.5-5.4 14.7-7.3 41-14.5 64.6-17.6 15.7-2 20-2 22 .3 1 1 1.7 2.5 1.7 3.4 0 3.4-3.8 4.9-18.3 7.3-24.7 4.1-52 11.7-66 18.4-7.6 3.6-15.8 10.6-18.1 15.5-2 4.3-2.1 11.9-.2 13.6 2.9 2.4 6 .8 8.4-4.5 3.2-6.7 5-8.5 8.4-8.5 3.9 0 4.6 2.5 2 7.1-3.7 6.4-2.5 10.9 2.8 10.9 1.4 0 7.5-2.1 13.5-4.6 20.1-8.3 20.6-8.4 40.8-8.4 32 0 54.9-2.7 69-8 7-2.6 11.1-6 13.7-11.1 2.7-5.1 5.4-6.5 8.6-4.4 2 1.3 2.4 2.4 2.4 6.5 0 6.1.8 6.4 12.9 5.3 9.1-.9 9.1-.9 11-8 1.8-6.8 8-13.6 15.8-17.5 6.4-3.1 7.4-3.3 19.1-3.6l12.4-.4-.5-2.6c-.3-1.5-1.3-5.2-2.1-8.2-.9-3-1.6-7.1-1.6-9.2 0-17.5 14.2-39.2 31-47.3 8.5-4 12.1-4.4 15-1.5 4 4 1.9 7.4-8 12.6-21.7 11.5-30 39.7-15.7 53.7 4.3 4.2 5.6 5 18 10.5 5.6 2.6 6.7 3.5 6.7 5.5 0 5-1.1 5.1-27.6 2.2-25.9-2.9-29.9-2.8-39.1.6-7.4 2.8-11.3 7.5-11.3 13.9 0 3.8.6 5.5 2.6 8 3.5 4.1 7.5 3.9 8.4-.5 1-4.7 2.8-7.4 5.5-8.1 3.9-1 5.5 1.1 5.5 7.2v5.3l5.3.5c6.3.6 60.7 1.7 91.2 1.7 19.6 0 22.7-.2 28.7-2.1 9.8-3 14.4-7 19-16.2 2.4-4.8 4.6-7.9 5.9-8.3 5.3-1.7 16.1 15.1 20.6 32.3 2.3 8.5 2.6 11.8 2.7 26.7.1 17.9-.6 23-5.1 37-6 19-17.9 37.1-40.4 61.3-25.3 27.2-27.4 30.3-27.4 42 0 7 .1 7.5 3.2 10.2 6.2 5.6 15.1 5 25.3-1.7 7.2-4.8 27-24.2 37.3-36.6 22-26.5 33.6-50.1 38.8-79.3 1.7-9.2 2.2-16.3 2.3-31.4.1-22-.9-29.3-5.9-44.3-4.6-13.6-10.5-23.5-20-33.4l-8-8.3h-5.2c-8.4 0-9.9-2-12.3-16-3.5-20.6-8.5-33.2-18.3-46.2-7.8-10.4-18.3-18.7-32.2-25.4-25-12.2-73-19.9-103.1-16.6-10.5 1.2-41.5 7.2-49.4 9.5-4.3 1.4-4.5 1.6-5.3 6.3-1.5 8.5-4.8 18.6-8.2 25.4-3.4 6.7-13.2 18.9-16.4 20.3-3.2 1.5-26-8.5-28.5-12.6-1.6-2.5.4-5.1 4.3-5.5 1.8-.2 6.3.6 10.1 1.7 9.5 2.9 11.4 2.7 14.4-1.2 1.5-1.9 2.6-4.3 2.6-5.4 0-2.3-.6-2.5-15-4.3-8.9-1.1-13.3-3.2-13.8-6.7-.2-1 .6-2.7 1.6-3.6 1.8-1.6 2.8-1.6 16.6-.1 8.7 1 15.1 1.3 15.6.8 1.3-1.3 3-12.8 3-19.9 0-8.3-1.6-17.1-5-27.9-2.7-8.6-2.9-10.6-3.9-36.8-.6-15.2-1.5-28.8-2.1-30.2-1.3-3.5-4.4-3.4-10.5.5m9.5-.2c.5 1.1 1.5 14.5 2.1 29.8 1 26.3 1.2 28.3 3.9 36.9 3.4 10.8 5 19.6 5 27.9 0 7.2-1.6 17.5-2.9 18.8-.6.6-6.3.3-15.2-.7-12.8-1.5-14.4-1.5-16.6-.1-4.2 2.8-2.6 8.9 2.9 10.8.9.3 5.4 1.1 10 1.7 15.6 2 15.6 2 11.2 7.7-2.9 3.9-4.5 4-13.2 1.3-7.2-2.3-13.2-2.6-15-.8s-1.5 6.3.6 8c5.1 4.5 25.5 12.4 28.9 11.1 3.6-1.3 13.4-13.4 16.9-20.8 3-6.6 6.2-16.5 8.1-25.9.7-3.4 1.3-4.1 4.8-5.3 6.1-2.1 37.7-8.2 49-9.5 29.8-3.3 78.1 4.4 101.8 16.3 13.5 6.7 23.7 14.6 31.4 24.3 10.6 13.5 15.9 26.4 19.4 47.1 2.4 14.3 3.2 15.4 11.8 16.4 5.6.7 6.6 1.2 11.2 5.7 20.8 20.3 30.2 48.1 28.6 84.9-1.8 41.6-13.2 70.3-41.5 104.3-10.8 13.1-32.3 33.8-39.5 38.1-9.6 5.7-17.4 5.1-22.7-1.6-1.9-2.4-2.1-3.7-1.7-9.1.7-8.5 4.4-14.4 19.1-30 15.7-16.8 22.6-24.8 30.6-35.7s10.1-14.4 14-23.8c7.5-18.2 9.5-28.5 9.4-49.2 0-15.2-.3-18.1-2.7-26.9-3.5-13-9.5-25.3-14.7-29.9-6.4-5.9-8.6-5.1-13.6 4.9-5.9 12-14.2 17.2-29.3 18.3-9.5.7-102.1-.6-108.8-1.5l-4.3-.5v-4.5c0-6.1-1.4-8.4-5-8.4-3.8 0-6.7 2.9-7.6 7.5-.9 5-3.1 5.5-6.6 1.7-7.8-8.8 1-20.3 17.4-22.7 2.9-.4 13.9.3 29.7 2 28 3.1 28.4 3.1 27.9-3.4-.3-3.3-.7-3.7-7.7-6.7-10.9-4.7-17.1-9.2-20.6-14.8-2.7-4.4-3-5.8-3-13 0-7 .4-8.9 3-14 3.9-7.7 12.4-16.3 20.3-20.4 7.4-4 9.7-6.8 8.7-11.2-2-9.2-19.5-4.4-32.6 8.9-10 10.2-16.9 25.7-16.9 37.9 0 3.3.9 7.5 3.6 16.9.6 2.3.5 2.3-9.9 2.3-9 0-11.7.4-17.9 2.7-9.6 3.5-15.9 9.8-18.4 18.1-1 3.1-2.2 6.2-2.8 6.9-.7.7-4.9 1.3-10.1 1.5l-9 .3-.3-3.5c-.5-6.2-1.2-8.1-3.7-9-3.7-1.4-7.1.3-9.4 4.7-2.6 5.1-5.5 7.7-12.4 10.8-12.1 5.6-36 8.5-69.3 8.5-18.1 0-23.4.8-31.9 4.5-18.6 8.3-22.6 9.5-25 7.5-2.1-1.7-1.9-4.6.6-7.9 1.3-1.7 1.9-3.9 1.7-5.7-.3-2.6-.7-2.9-4.1-3.2-4.8-.4-6.4.9-9.4 7.6-1.3 2.9-3 5.5-3.8 5.8-4.5 1.8-6.1-7.2-2.4-13.2 3.1-5.1 10.5-11.1 18.3-14.9 14.1-6.8 39.2-13.8 64.6-18.1 16.3-2.7 19-3.8 19-8.2 0-6.5-4.3-7.3-24.7-4.7-23.6 3.1-50.8 10.6-66.9 18.4-4.5 2.1-10.8 4.4-14 5.1-8.6 1.7-25.8 6.5-42.4 11.6-16.7 5.2-22.7 6.2-25.3 4.2-1.8-1.3-1.8-1.6-.3-5.3 1.8-4.3 1.4-7.1-1.3-8-3.2-1-6.9 1.3-9.1 5.5-2.6 5.2-4.7 6-7.2 3.1-4.7-6-.1-16.4 10.4-23.1 7.3-4.8 28.4-11.9 53.5-18.1 9.3-2.3 18-4.7 19.5-5.5 2.2-1.2 10.8-12.2 16.4-21.1 1.1-1.6 1.4-1.6 3.5-.4 5.5 3.3 16.4 8.3 23.6 10.8 6.2 2.1 9.7 2.7 17.1 2.7 10.6.1 12.2-.9 12.2-7.1 0-2.9-.5-3.6-3.5-4.9-1.9-.7-5-1.4-6.8-1.4-5.8 0-18.8-3.8-27.3-8-10.9-5.3-19.2-11.7-25.2-19.3-10.8-13.8-13.6-21.8-13.6-38.7-.1-12.9 1.1-17.9 7-30.6 2-4.3 6-15 8.9-23.8 5.6-17.1 9.3-26.6 10.5-26.6 2.2 0 8.2 5.5 14 13l6.7 8.5 4.9-.5c7.8-.8 33.5-.6 37.7.3 2 .4 3.7 1.2 3.7 1.7 0 .6-2.3 5.1-5 10.1-6.1 10.9-7 14.2-4.5 16.9 2.9 3.2 7 2.6 10-1.5 3-3.8 9.5-18.1 9.5-20.8 0-1.4.9-1.7 4.6-1.7 5.1 0 3.5 1.3 20.7-17.2 10.9-11.8 22.8-21.8 25.9-21.8 1 0 2.2.9 2.8 1.9m-57.2 35.2c2.9 1 3 1.2 2 4.7-2.4 8.8-10.6 22.2-13.5 22.2-2.1 0-5.3-2.9-5.3-4.7 0-.8 2.5-5.9 5.5-11.4s5.5-10.4 5.5-10.9c0-1.3 1.9-1.3 5.8.1"/><path d="M425.2 442.2c-.5.7-2.5 4.2-4.2 7.7-3.7 7.2-4.9 14.3-3 16.6 1.7 2 6.3 1.9 8.3-.3 2.1-2.4 12.7-22.6 12.7-24.3 0-.8-1.9 2.1-4.1 6.5-9 17.3-11.3 20.1-14.6 18-3.8-2.4-2.6-8.7 3.7-19.3 2.9-5 3.6-7.8 1.2-4.9m-51.4 48c-1 .7-2 2.7-2.4 4.4-.5 2.7 0 3.8 3 7.2 6.4 7.1 13.6 8.9 22.7 5.7 5.8-2.1 7.9-4.2 7.9-8 0-5.1-2.2-6.3-8-4.2-6.9 2.5-9.2 2.2-13.1-1.7-4-4-7.7-5.2-10.1-3.4m8.4 3.8c4.8 4.5 7.7 5 14.5 2.4 4.9-1.9 7.3-.9 7.3 3.1 0 6.3-15.6 11.2-22 6.9-4.4-3-10-8.8-10-10.4 0-2.2 2.9-6 4.6-6 .7 0 3.3 1.8 5.6 4m59.5 4.1c-9 5.2 2.8 20.9 15.7 20.9 7.9 0 21.8-6.7 22.9-11.2.9-3.1-1-6.7-3.7-7.4-1.8-.4-4.1.3-8.1 2.5-7.6 4.3-11.4 4.1-16.8-.8-4.8-4.4-7.4-5.5-10-4m8.4 4.5c5 4.4 5.4 4.6 10.3 4.2 3.2-.3 6.7-1.4 9.3-3.1 5.2-3.3 6.7-3.4 8.7-.5 2.1 3 2 3.5-1.1 6.5-7.5 7-21.1 10.3-27.1 6.6-6.6-4.1-12-11-10.6-13.6 1.2-2.1 3.7-4.7 4.5-4.7.5 0 3.2 2.1 6 4.6m126.4 3c5.6 13.3 8.5 26.4 8.5 38.4 0 8.5-1.1 12.6-3.8 14.6-4.8 3.7-8.7-.4-9.6-10.1-.7-7.4-7.2-40.4-8.1-41.3-.6-.6-.2 1.6 3.6 20.3 1.6 7.7 3.1 17.3 3.5 21.3.8 8.5 3 12.2 7.2 12.2 6.1-.1 8.2-4.7 8.2-17.5 0-12.2-5.9-37.1-9.3-39.2-.7-.4-.8.1-.2 1.3m-172.9 9c-2.5 2.5-1.9 6.1 1.4 9.1 3.6 3.2 3.8 7.7.5 9.9-1.8 1.2-2.5 1.1-5.8-1.2-4.5-3-7.7-2.8-9.4.5-3.2 6.5 5 13.1 16.3 13.1 3.5 0 7.8.7 10 1.6s5.4 2 7.1 2.4c7.5 1.8 18.3-3.5 18.3-8.9 0-5.2-3.7-6.4-11.1-3.5-3.9 1.6-4.2 1.6-6.7-.3-1.4-1-3-3.2-3.5-4.7-.8-2.5-.6-3.1 2.2-5.3 3.6-2.9 4.2-7.2 1.2-10.2-3.6-3.6-17.7-5.4-20.5-2.5m17.4 1.9c1.7.9 3.3 2.7 3.6 4.2.6 2.2.2 3.1-2.5 5.4-2.9 2.4-3.2 3.1-2.6 6.1 1.5 6.8 5.5 8.7 12.7 6.1 3.7-1.3 5.3-1.5 6.6-.7 5.5 3.5-2.6 11.6-11.5 11.6-3 0-6.5-.8-9.1-2.1-3-1.5-6-2.1-10.8-2.1-7.8 0-12.9-2.1-15.5-6.3-1.3-2.3-1.5-3.5-.8-4.9 1.6-3 3.6-3.2 6.9-.8 5.9 4.2 11 2.4 11-4 0-2.8-.7-4.3-3-6.3-3.2-2.9-3.8-5.5-1.7-7.6 1.6-1.7 12.5-.8 16.7 1.4m362 156.2c-7 1.1-13.1 2.5-12.7 2.9.2.2 2.8-.1 5.8-.7 2.9-.6 9.6-1.5 14.9-1.9 9.5-.7 9.5-.7 2-.7-4.1 0-8.6.2-10 .4m-123.2-248c-3.1 3.4-23.8 52.7-23.8 56.6 0 1.1 1.3 1.7 4.3 2.1 2.3.3 8.3 1 13.2 1.6 11.6 1.5 30.8 6 41.2 9.8 22 8 42.4 23.5 54 41 1.9 2.9 4.1 5.6 4.9 5.9s3.3-1.2 5.7-3.4c9.9-9.1 20.1-14.5 39.4-20.8 7.6-2.5 14.3-4.8 14.9-5.3.5-.4 2.1-4.7 3.3-9.6 3.1-11.9 9.4-28.1 17.9-46.5 3.9-8.3 7.4-16.6 7.7-18.3l.7-3.1-8.8.7c-20.2 1.5-59.3 1.9-73.9.7-23.9-1.9-48.5-4.9-69.5-8.6-28.7-5-29.2-5-31.2-2.8m19.7 1.9c5 .8 12.4 2.2 16.6 3 10.6 2 45.4 6 64.3 7.5 15.5 1.2 54.3.8 73.5-.7l8.3-.7-.7 2.4c-.4 1.3-2.8 6.7-5.2 11.9-2.5 5.2-6.2 13.8-8.4 19s-4.4 10.4-4.9 11.5c-1.5 3.3-6.6 19.6-7.9 25.1-1.5 6.1-1.1 5.9-19.4 11.9-7.6 2.5-16.1 5.7-19 7.1-6.2 3.2-16.3 10.2-19.6 13.8-1.3 1.4-2.8 2.3-3.2 2-.5-.3-2.4-2.8-4.3-5.7-17.9-26.9-50.8-44.6-93.6-50.2-18.5-2.4-19-2.5-19-3.5 0-1.5 13.6-35.2 18.1-44.8 2.2-4.8 4.8-9.5 5.7-10.5 1.8-2 2-2 18.7.9m-536.3 37.6c-.7.7-1.2 4.2-1.2 8.5v7.3l102.1.2c56.1.2 102.4.1 102.9-.2 1.1-.7 6-13.3 6-15.3 0-1.6-7.5-1.7-104.3-1.7-79.8 0-104.6.3-105.5 1.2m208.8 1.6c0 1-.4 2.2-.9 2.7-.5.6-1.4 2.8-2.1 5s-1.6 4.4-2 5c-.6.7-35.6.9-102.4.7L143 479v-6.3c0-3.6.5-6.8 1.2-7.5.9-.9 25.5-1.2 104.5-1.2 98.8 0 103.3.1 103.3 1.8m-33 29.9c-10.2 1.3-33.1 4.4-51 6.9-65.5 9.1-88 13.2-88 16 0 .8.7 1.4 1.7 1.4 3 0 12.6 5.5 16.8 9.7 2.3 2.2 5.8 7.2 7.7 11 5.9 11.2 6.9 18 7.5 50.5.4 23.8.8 28.8 1.9 28.8.8 0 5.8-2.2 11.2-4.9 12-6 52.8-20.6 73-26.1 8.4-2.3 24.9-6.3 36.8-9 11.9-2.6 22-5.2 22.6-5.8 1-1 6.8-17.8 6.8-19.8 0-.7-2.5-4.4-5.6-8.3-4.1-5.2-6.1-7.1-7.9-7.1-1.3 0-7 1.6-12.7 3.5-6 2.1-11.3 3.3-12.6 3-3.1-.8-5-4.9-3.2-7s7.5-5 12.5-6.3c2.2-.6 5.9-1.6 8.3-2.2 3-.8 4.2-1.6 4.2-2.9 0-2.9-1.8-3.8-12.6-6-5.6-1.1-10.9-2.4-11.8-2.7-2.6-1-3.2-5.3-.9-7.5 1.8-1.8 2.5-1.9 8.4-1 3.5.6 7.9 1.1 9.8 1.1h3.4l-.6-7.7c-.4-5.7-1-8.1-2.3-9-2.1-1.5-.2-1.6-23.4 1.4m23-.2c.7.8 1.5 4.4 1.8 8l.5 6.5h-2.9c-1.6 0-5.8-.5-9.3-1-7.6-1.3-11.1.2-11.1 4.8 0 4.9.9 5.4 17.2 8.8 7.5 1.5 11.1 3.6 9.2 5.3-.5.5-4 1.6-7.9 2.5-14.2 3.5-18.8 7-16.6 12.8 1.6 4.2 5.2 4.3 16.9.3 5.7-1.9 11.2-3.5 12.2-3.5s4.2 3 7.5 7.1l5.8 7.1-1.3 4.2c-2.6 8.7-5.2 14.6-6.8 15.5-1 .5-10.9 3-22.2 5.5s-27.2 6.4-35.4 8.6c-19.4 5.4-60.2 19.8-73.5 26.1-5.7 2.7-10.5 4.9-10.6 4.9s-.5-12.7-.8-28.3c-.6-31.6-1.6-38.4-7.2-50.3-4.2-8.7-9.6-14.4-17.5-18.4-3.3-1.7-6-3.4-6-3.9 0-2.3 56.1-11.3 135-21.4 23.3-3 21.5-3 23-1.2"/><path d="M891 509.8c-12.6 1.1-83.2 18.3-81.6 19.9.2.2 6.6-1.4 14.2-3.6 25.3-7.3 60.9-15.1 69.9-15.3 14.1-.2 23 3.3 28.2 11.1 8.4 12.4 7.8 25.9-4.8 116.6-10.9 78.4-14.9 92.4-31.4 109.1-9.7 9.8-17.3 14.9-50.5 33.4-30 16.6-45.8 25.9-46.6 27.1-.3.5-.9.9-1.5.9-.5 0 .7-2 2.6-4.5 8-10.6 18.4-33.7 24.5-54.7 6.3-21.8 16.1-83.6 23.5-147.3 4.8-41.3-.7-59.4-20.9-68.5-3.7-1.7-7.1-2.9-7.3-2.6-.3.3.7 1 2.3 1.6 10.6 3.8 17.9 10.4 22.5 20.4 3.2 6.7 3.4 7.9 3.7 20 .4 14.3-.3 22.9-5.4 61.6-9.6 73.4-15.6 105.7-23.8 128.1-6.4 17.7-15.4 35.2-21.8 42.5-5.1 5.8-2.1 5.9 7.2.2 4.7-2.8 21.8-12.5 38-21.5 36.9-20.6 44.6-25.7 54.1-35.2 13.9-14 18-24.8 24.8-64.2 4.3-25.5 12.8-86.7 15.6-113.2 3.7-34.7 1.5-48.1-9.2-56.3-5.3-4-16.7-6.5-26.3-5.6m-739.9 22.9c-8.7 3.1-15.5 12.6-18.8 26.1-3.6 15.4-.8 64.9 7.3 127.2 5.6 43 10.5 67.3 15.9 78.5 8.1 16.9 21.4 25.3 43.1 27.2l7 .6 1.3-24.4c.7-13.4 1.5-27.6 1.8-31.4.5-6.9.4-7.1-3.1-11.4-7.1-8.4-6.9-6.3-7.6-87.6-.6-70.7-.7-73.2-2.8-80.9-1.2-4.4-3.3-9.8-4.7-12.2-2.9-5-10.4-10.7-16-12.3-5.7-1.5-18.2-1.2-23.4.6m29.4 3.8c7.3 5 11.1 10.6 13.7 20.2 2.1 7.5 2.2 10.4 2.8 80.8s.7 73.2 2.7 79.2c1.2 3.5 3.5 7.9 5.3 10 3.1 3.5 3.2 3.9 2.7 10.2-.3 3.6-1.1 17.3-1.8 30.3l-1.3 23.8h-3.3c-5.9 0-18.6-3-24.3-5.7-12.8-6.2-22.8-21.3-26.9-40.5-6.2-29.1-13.2-82.9-17.1-131.3-1.8-21.2-1.6-46.6.3-54.7 2.8-11.5 8.9-20.2 17-24.3 4.8-2.4 6-2.6 14.9-2.3 9.3.4 9.8.5 15.3 4.3"/><path d="M786.6 543.1c-11 1.7-22.7 10.8-24 18.8-.4 2.7.1 6.5 1.8 12.3 2.2 7.6 2.9 8.7 7.3 12.3 9.7 7.9 20.2 19.3 25.8 27.9 6.1 9.4 13 24.1 14.7 31.7 1.7 7.3 3.3 5.1 4.7-6.4 7-57.3 7.4-72.4 2.1-82.6-5-9.8-19.1-15.9-32.4-14m20.2 4.3c6 3.1 9.5 6.8 12.4 13.1 3.8 8.2 3 29.1-2.9 75.2l-1.7 13.2-4.7-12.5c-7.6-20-19-36.2-34.4-48.4-3.6-2.9-7.2-6.4-8-7.9-2.3-4.6-4.5-14.7-3.9-17.9 1.4-7.1 13.7-16.7 23.2-18.1 6.3-.9 14.3.4 20 3.3M251.1 621c-14.1 4.2-24.8 9.9-30.9 16.4-5.9 6.2-6.6 9.1-2.4 10 8.7 1.9 50.7 4.4 53.7 3.2 1.4-.5.9-1.4-2.8-5.6-5.2-5.7-6.3-10.7-4.7-20.5.5-3.3 1-6.1 1-6.3 0-.8-5.8.3-13.9 2.8m12.2.7c-.4 1.6-.7 5.9-.7 9.8.1 8 1.7 11.9 6.6 16l3.3 2.8-16.5-.7c-16.8-.7-35.1-2.2-38.2-3.2-2.9-.9-2.1-2.5 4.5-8.9 7.2-6.9 16-11.6 29.2-15.7 11.8-3.5 12.7-3.6 11.8-.1m84.2 23c-1.1.2-8.5 1.9-16.5 3.8s-15.4 3.6-16.5 3.8c-1.8.4-1.8.5.2.6 1.2 0 8.5-1.4 16.1-3.3 16.8-4.1 22.8-5.1 23.5-3.9.4.6.1 3.2-.6 5.9l-1.2 4.9-10.5-.3c-5.8-.2-14.5-.7-19.5-1.2-9.3-1-12.8-.6-5.3.5 5.8.9 34 2.3 35.4 1.8 1.3-.5 3.7-11 2.8-12.4-.5-.9-4.3-1-7.9-.2m185 10c-1.6.2-11.1 2-21 3.9s-22.7 3.8-28.5 4.4l-10.5.9 10.5-.4c6.6-.3 17.4-1.8 29-4.2 16.1-3.2 20.4-3.7 33.1-3.7l14.6-.1 4.1 3.7c6.3 5.7 10.1 6.8 25.7 7.8 31.2 2 105.6 3.4 120 2.2 7.7-.7 15.1-1.5 16.4-1.8l2.4-.7-.7 6.7c-.4 3.6-1.2 7.8-1.8 9.1-1.3 2.9-2.4 3-16.3 1.5-11.2-1.1-94.5-7.8-157-12.5-25.8-2-50.4-4-54.5-4.5-8.3-1.1-23.7-1.6-24.5-.8-.3.3 3.4.6 8.2.7 4.8 0 12.2.5 16.3 1.1 4.1.5 28.7 2.5 54.5 4.5 62.5 4.7 145.8 11.4 157 12.5 15.2 1.6 16.1 1.5 17.4-2.2.6-1.7 1.4-6.3 1.8-10.1l.6-7-2.9.6c-11.3 2.5-32.6 3-76.9 1.8-57.1-1.5-73.3-2.4-77.5-4.6-1.7-.9-4.9-3.3-7.2-5.3l-4-3.6-12.7-.2c-6.9-.1-13.9 0-15.6.3m-320.1 5.8c-.8 1.9.2 44.2 1.1 47.5 1.9 7.3 3.9 8 29.2 10.9l33.8 4c52.4 6.3 203.1 20.6 316 30.1 26.4 2.2 52.5 4.4 58 5 50 4.6 61.1 5.3 64 3.9 1.8-.9 3.2-2.5 3.7-4.4 1.4-5.5 6.8-49 6.8-54.8 0-4.3-1.1-4.6-21.6-6.7-24.2-2.4-86.1-7.3-118.9-9.5-33.7-2.2-85-6.4-135.4-11-33.6-3.2-34.8-3.1-46.7.6-7.8 2.4-11.8 3.1-18.9 3.2-9.9 0-14.7-1.5-22.8-7.2l-4.2-3-27.5-1.6c-38.8-2.2-96.2-6.3-104.8-7.5-9.8-1.3-11.2-1.3-11.8.5m11.8.5c8.4 1.1 64.7 5.2 104.6 7.5l27.4 1.7 4.3 3.3c10.2 7.7 24.6 9 41.9 3.6 11.9-3.7 13.1-3.8 46.7-.6 50.4 4.6 101.7 8.8 135.4 11 63.7 4.2 137.1 10.7 138.8 12.4.7.7.6 4.8-.2 12.8-1.9 18.7-5.1 42.2-6.1 44.9-2.1 5.3-.6 5.3-66.5-.6-6-.6-32.4-2.9-58.5-5.1-113.3-9.5-263.8-23.8-315-29.9-9.1-1.1-24.5-2.9-34.4-4.1-22.2-2.5-24.3-3.2-27-8.4-1.9-3.6-2.1-6.1-2.4-25.2-.3-11.7-.2-22 .2-22.8.6-1.8 1.2-1.8 10.8-.5m520.5 4.9c-2.6 10.6-10.7 72.9-10.7 81.9 0 5.2 2.3 3.8 6.7-4.1 9.5-16.9 15.6-47.8 13.2-66.9-2.2-18.5-6.3-23.2-9.2-10.9m5.7-1.7c5 13.6 3.5 39.6-3.6 62.6-2.6 8.8-11.2 24.3-11.6 21.3-.7-4.7 7.7-71.3 10.3-81.4.8-3.2 1.5-6.1 1.5-6.3s.4-.4.9-.4 1.6 1.9 2.5 4.2m-525.8 70.1c-2.1 1.6-3 9.3-4.1 36.2-.6 14.2-.5 17.7.8 20.7 1.8 4.2 1.9 4.3 20.2 5.8 6.6.5 17.4 1.4 24 2 6.6.5 16.5 1.5 22 2 17 1.7 69.3 6.8 108 10.4 20.4 2 63.3 6 95.5 9.1 32.2 3 70.4 6.7 85 8 14.6 1.4 40.2 3.9 57 5.5 34.4 3.4 42.5 3.9 43.6 2.7.5-.4 1.1-4.3 1.5-8.5.5-6.1 1.5-9.4 4.2-14.9 4-7.9 12.6-19 21.1-27.3 5.8-5.6 6.9-8 3.9-8-4.7 0-135.3-11.3-191.8-16.5-14.8-1.4-36.9-3.4-49-4.5-38-3.5-121.4-11.6-169.5-16.5-13.5-1.4-33.5-3.4-44.5-4.5s-21.4-2.3-23-2.5c-1.8-.3-3.9.1-4.9.8m27.9 2.7c11 1.1 31 3.1 44.5 4.5 48.1 4.9 131.5 13 169.5 16.5 12.1 1.1 34.2 3.1 49 4.5 54 5 187 16.5 191.4 16.5.8 0-2.1 3.7-6.5 8.2-15.6 16.1-22.3 27.8-23.1 40.3-.6 8.3-1.8 9.6-7.7 9-3.8-.5-16.7-1.7-93.6-9-14.6-1.3-52.8-5-85-8-32.2-3.1-75.1-7.1-95.5-9.1-38.7-3.6-91-8.7-108-10.4-9.5-1-18.5-1.7-46.5-4-16.3-1.4-16.7-1.5-18.6-5.2-1.5-3-1.6-5.4-.5-27.8 1.3-27.6 1.8-29.5 7.4-28.6 1.8.3 12.2 1.5 23.2 2.6"/></g></svg>