<svg version="1.1" xmlns="http://www.w3.org/2000/svg" style="display: block;" viewBox="0 0 2048 2048" width="1024" height="1024">
<path transform="translate(0,0)" fill="rgb(254,252,240)" d="M 197.373 411.044 C 198.602 393.932 199.931 376.409 203.662 359.645 C 214.433 311.247 242.461 267.786 279.663 235.457 C 316.779 203.202 364.202 184.961 412.431 177.753 C 443.155 173.161 474.078 173.309 505.072 173.178 L 599.627 173.038 L 909.205 172.98 L 1346.85 173.505 L 1482.05 173.812 C 1511.06 173.876 1540.24 173.07 1569.19 175.2 C 1640.79 180.469 1706.81 208.32 1754.33 263.358 C 1806.75 324.067 1810.56 386.963 1810.72 462.545 L 1810.65 563.587 C 1810.59 579.672 1809.64 596.24 1810.45 612.276 C 1862.45 647.754 1894.11 692.36 1905.83 754.838 C 1913.52 795.794 1910.57 838.562 1909.35 880.002 C 1908.48 909.739 1907.93 939.422 1906.44 969.141 C 1925.93 1005.34 1941.28 1020.04 1947.97 1063.46 C 1949.74 1074.49 1950.37 1085.67 1949.84 1096.83 C 1948.01 1139.57 1940 1185.42 1934.49 1228.04 C 1929.85 1263.6 1924.83 1299.12 1919.42 1334.57 C 1912.86 1380.31 1906.59 1427.88 1893.33 1472.21 C 1884.85 1500.52 1873.16 1527.26 1853.36 1549.6 C 1847.8 1555.87 1841.52 1561.17 1835.76 1567.16 C 1840.16 1614.79 1853.28 1663 1819.18 1703.52 C 1803.99 1721.68 1782.11 1732.92 1758.5 1734.7 C 1737.11 1736.33 1714.45 1729.47 1698.22 1715.25 C 1682.94 1701.86 1679.13 1682.19 1665.6 1670.64 C 1648.26 1679.4 1632.05 1690.83 1615.27 1700.65 C 1599.31 1709.98 1580.94 1718.37 1566.13 1729.28 C 1563.7 1731.07 1562.34 1732.65 1561.36 1735.57 C 1557.66 1746.6 1558.9 1761.6 1558.37 1773.37 C 1556.33 1817.79 1546.07 1864.15 1503.34 1886.87 C 1488.07 1894.99 1473.49 1896.69 1456.45 1896.35 C 1455.72 1896.34 1454.99 1896.35 1454.26 1896.3 C 1413.52 1893.4 1384.38 1861.78 1374.43 1823.82 C 1371.56 1812.87 1368.86 1779.03 1362.08 1772.24 C 1359.54 1769.7 1351.44 1769.04 1347.75 1768.57 C 1335.98 1767.05 1324.05 1766.51 1312.23 1765.43 L 1224.9 1757.34 L 1150.17 1750.04 C 1136.04 1748.66 1121.64 1746.62 1107.46 1746.28 C 1067.41 1741.31 1026.93 1738.3 986.748 1734.3 L 706.23 1707.03 L 570.544 1694.09 C 550.069 1692.19 527.137 1687.92 506.675 1689.25 C 506.483 1689.55 506.284 1689.84 506.098 1690.15 C 498.79 1702.12 495.285 1718.87 490.857 1732.2 C 478.451 1769.55 455.158 1803.63 415.129 1813.97 C 401.149 1817.58 385.812 1817.27 371.712 1814.51 C 353.61 1809.83 338.235 1801.74 326.226 1787.12 C 295.908 1750.2 309.123 1696.99 313.089 1653.78 C 300.256 1645.32 286.822 1638.54 274.89 1628.66 C 252.671 1610.25 236.577 1585.15 226.159 1558.45 C 211.646 1521.25 206.637 1478.89 200.812 1439.58 C 191.174 1376.07 183.388 1312.29 177.463 1248.33 C 175.175 1223.02 174.787 1197.54 172.458 1172.26 C 170.399 1134.21 178.114 1102.6 190.502 1067.25 C 193.017 1060.96 196.256 1054.08 196.941 1047.31 C 199.103 1025.94 197.373 1003.03 197.343 981.459 L 197.437 854.428 L 197.373 411.044 z"/>
<path transform="translate(0,0)" fill="rgb(86,45,17)" d="M 374.43 1614.09 C 348.033 1603.76 323.022 1599.11 302.668 1577.35 C 291.07 1564.95 282.753 1548.39 277.384 1532.4 C 266.875 1501.11 261.806 1467.76 257.005 1435.18 C 252.224 1403.87 248.1 1372.46 244.636 1340.98 C 238.437 1287.22 231.719 1233.33 230.045 1179.2 C 229.147 1150.14 229.633 1119.73 238.194 1091.75 C 242.667 1077.13 254.516 1063.82 254.858 1048.35 C 256.013 996.097 254.745 943.523 254.716 891.231 L 254.701 574.511 L 254.681 475.635 C 254.625 454.045 254.009 432.282 254.945 410.716 C 256.947 360.973 278.739 314.091 315.476 280.493 C 342.997 255.463 379.628 240.002 416.134 234.174 C 452.936 228.298 492.479 230.391 529.724 230.466 L 689.085 230.625 L 981.429 230.696 C 1038.71 230.731 1096.62 229.154 1153.84 231.945 L 1433.77 232.046 L 1514.04 232.028 C 1544.51 232.025 1575.39 231.015 1605.3 237.822 C 1640.97 246.063 1673.6 264.153 1699.48 290.031 C 1721.91 312.404 1738.04 340.293 1746.25 370.887 C 1755.58 406.702 1752.14 446.959 1752.14 483.735 C 1752.13 536.406 1751.39 589.178 1752.11 641.838 C 1800.6 663.269 1837.45 704.636 1848.55 757.045 C 1854.84 786.76 1854.48 817.636 1854.07 847.86 C 1853.4 880.88 1852.25 913.889 1850.64 946.877 C 1850.13 956.214 1847.03 982.861 1851.27 990.454 C 1851.46 990.802 1851.69 991.133 1851.89 991.476 C 1857.37 1000.76 1865.65 1008.25 1872.08 1016.9 C 1892.62 1044.56 1894.84 1074.69 1892.58 1108.09 C 1890.77 1134.85 1887.08 1161.52 1883.59 1188.1 C 1878.54 1227.98 1872.83 1267.79 1866.48 1307.48 C 1859.16 1354.3 1853.32 1402.53 1841.37 1448.39 C 1837.46 1463.37 1832.43 1478.58 1825.1 1492.26 C 1811.31 1517.95 1796.2 1523.38 1776.21 1541.03 C 1775.94 1541.28 1775.67 1541.52 1775.4 1541.77 C 1776.37 1569.86 1793.86 1640.49 1783 1662.67 C 1779.62 1669.6 1773.5 1674.31 1766.17 1676.49 C 1757.49 1679.09 1745.83 1679.16 1737.77 1674.6 C 1717.91 1663.39 1706.55 1608.74 1700.14 1586.62 C 1681.58 1595.61 1663.64 1606.63 1645.84 1617.06 C 1623.28 1630.31 1600.64 1643.42 1577.93 1656.41 C 1562.22 1665.42 1517.39 1688.1 1505.86 1698.47 C 1502.15 1726.31 1502.8 1755.07 1501.28 1783.12 C 1500.53 1797.01 1500.97 1822.46 1489.61 1832.13 C 1481.84 1838.75 1471.36 1840.64 1461.4 1839.96 C 1453.31 1839.41 1446.4 1837.79 1440.44 1831.97 C 1424.54 1816.43 1419.76 1763.92 1416.11 1741.11 C 1415 1734.21 1414.72 1724.79 1409.9 1719.35 C 1396.52 1713.53 1356.39 1713.01 1339.86 1711.49 L 1226.94 1700.83 L 770.277 1656.51 L 574.352 1637.34 C 539.544 1633.94 503.659 1628.67 468.701 1628.03 C 457.843 1652.48 449.563 1678.57 440.843 1703.85 C 436.666 1715.96 432.996 1728.99 427.189 1740.4 C 424.724 1745.25 421.675 1749.53 417.54 1753.1 C 410.337 1759.31 400.942 1762.72 391.402 1761.93 C 382.942 1761.23 372.375 1756.71 366.934 1750.12 C 363.865 1746.4 362.6 1741.84 362.158 1737.12 C 360.867 1723.31 363.123 1708.47 364.616 1694.72 C 367.538 1667.8 371.636 1641.02 374.43 1614.09 z"/>
<path transform="translate(0,0)" fill="rgb(69,129,119)" d="M 1153.84 231.945 L 1433.77 232.046 L 1514.04 232.028 C 1544.51 232.025 1575.39 231.015 1605.3 237.822 C 1640.97 246.063 1673.6 264.153 1699.48 290.031 C 1721.91 312.404 1738.04 340.293 1746.25 370.887 C 1755.58 406.702 1752.14 446.959 1752.14 483.735 C 1752.13 536.406 1751.39 589.178 1752.11 641.838 C 1736.49 636.061 1720.18 632.341 1703.6 630.77 C 1667.4 627.005 1630.43 627.544 1594.05 627.262 L 1477.44 626.034 L 1154.04 624.024 C 1153.17 579.745 1153.86 535.332 1153.87 491.04 L 1153.84 231.945 z"/>
<path transform="translate(0,0)" fill="rgb(250,166,59)" d="M 927.922 891.37 L 929.326 891.689 C 935.887 893.138 939.79 893.45 945.634 889.793 C 961.999 879.553 1010.67 810.457 1031.64 814.661 C 1033.69 815.072 1034.08 815.709 1035.16 817.552 C 1042.52 830.122 1039.83 909.641 1042.46 930.224 C 1043.98 942.04 1047.83 951.049 1051.35 962.145 C 1055 973.637 1056.81 986.095 1057.51 998.104 C 1058.43 1014.02 1058.15 1032.74 1052.37 1047.81 C 1052.24 1048.13 1052.11 1048.45 1051.98 1048.77 C 1041.2 1047.5 995.846 1039.44 987.706 1044.3 C 985.082 1045.87 983.284 1049.56 983.071 1052.57 C 982.849 1055.71 984.513 1058.36 986.825 1060.31 C 998.147 1069.85 1029.72 1069.87 1044.68 1072.08 C 1041.4 1079.19 1037.52 1088.22 1029.78 1091.35 C 1014.28 1097.64 989.67 1070.46 978.662 1089.28 C 977.411 1091.41 977.086 1093.91 978.026 1096.24 C 981.903 1105.83 1013.44 1117.87 1023.52 1120.96 C 1028.44 1122.47 1035.11 1124.47 1039.93 1121.87 C 1043.83 1119.76 1046.8 1115.28 1049.71 1111.98 C 1066.56 1092.87 1077.26 1074.05 1083.43 1049.1 C 1085.61 1040.28 1086.83 1031.35 1087.93 1022.34 C 1100.81 1017.43 1113.77 1014.24 1127.19 1011.3 C 1135.99 1009.5 1144.82 1007.9 1153.69 1006.5 C 1172.94 1002.49 1192.04 999.338 1211.7 998.371 C 1276.42 995.188 1370.3 1009.39 1424.56 1045.36 C 1464.93 1072.13 1489.85 1112.48 1499.36 1159.67 C 1501.13 1168.49 1503.18 1194.34 1507.6 1200.61 C 1509.21 1202.89 1511.62 1204.59 1513.89 1206.16 C 1514.12 1206.33 1514.36 1206.47 1514.6 1206.63 C 1520.62 1207.41 1527.86 1207.16 1533.6 1208.75 C 1544.54 1211.77 1558.9 1229.95 1565.87 1239 C 1589.9 1270.19 1600.35 1306.51 1604.56 1345.09 C 1606.54 1360.38 1607.13 1378.39 1605.37 1393.72 C 1583.35 1394.18 1561.31 1394.23 1539.28 1393.86 C 1540.37 1380.1 1539.55 1366.45 1538.72 1352.71 C 1536.19 1328.61 1529.95 1304.41 1518.68 1282.89 C 1513 1272.06 1506 1259.88 1493.63 1256.08 C 1483.47 1257.24 1476.97 1278.35 1471.14 1286.17 C 1466.4 1292.44 1460.38 1297.65 1453.49 1301.44 C 1442.73 1307.46 1430.78 1309.33 1418.65 1310.35 C 1400.98 1311.83 1382.82 1310.98 1365.1 1310.64 L 1283.84 1308.92 C 1267.53 1308.62 1206.05 1309.37 1193.89 1305.94 C 1187.63 1299.82 1194.33 1291.22 1191.32 1284.09 C 1190.34 1281.78 1187.02 1279.2 1184.77 1278.25 C 1182.65 1277.36 1180.53 1277.49 1178.57 1278.71 C 1170.6 1283.69 1170.82 1293.55 1167.34 1301.04 C 1166.21 1303.48 1164.78 1304.02 1162.39 1304.9 C 1160.4 1304.55 1158.97 1304.12 1157.37 1302.88 C 1151.77 1298.51 1147.76 1290.55 1147.02 1283.54 C 1146.4 1277.66 1150.68 1270.53 1154.46 1266.3 C 1173.05 1245.51 1208.03 1250.67 1232.42 1253.22 C 1244.88 1254.47 1257.33 1255.86 1269.76 1257.38 C 1278.05 1258.44 1287.58 1260.65 1295.87 1259.75 C 1299.4 1259.37 1301.92 1258.26 1303.97 1255.31 C 1305.11 1253.66 1305.86 1251.44 1305.42 1249.46 C 1303.27 1239.85 1272.37 1230.51 1261.72 1222.91 C 1250.22 1214.7 1242.85 1203.76 1240.68 1189.67 C 1236.24 1160.91 1254.07 1132.77 1277.11 1117.01 C 1285.73 1111.11 1298.21 1106.38 1304.18 1097.62 C 1305.95 1095.03 1306.39 1092.81 1305.6 1089.75 C 1304.63 1085.98 1302.44 1082.81 1298.84 1081.22 C 1291.22 1077.86 1277.47 1082.97 1270.21 1086.39 C 1244.25 1098.65 1223.36 1124.17 1213.93 1151.02 C 1205.35 1175.45 1207.07 1197.8 1218.24 1220.87 C 1194.23 1223.11 1173.28 1218.93 1150.7 1230.4 C 1129.35 1241.26 1124.13 1258.35 1117.13 1279.2 C 1104.03 1281.9 1089.37 1281.06 1076.03 1281.23 C 1076.11 1275.24 1076.91 1267.89 1075.15 1262.15 C 1074.19 1259.03 1072.59 1256.98 1069.56 1255.6 C 1067.92 1254.85 1065.85 1254.7 1064.07 1254.78 C 1055.01 1255.15 1047.33 1275.21 1039.27 1280.87 C 1026.09 1290.11 1007.98 1294.32 992.406 1297.14 C 965.481 1302.01 937.978 1303.25 910.666 1303.23 C 889.776 1303.22 866.331 1300.98 845.859 1305.63 C 830.289 1309.16 815.422 1317 800.819 1323.26 C 793.023 1326.6 779.899 1332.31 771.619 1329.01 C 763.913 1320.24 780.618 1306.8 777.419 1296.07 C 775.464 1294.2 774.32 1293.44 771.582 1293.09 C 753.713 1290.84 754.771 1314.39 744.547 1322.25 C 742.855 1322.55 742.084 1322.96 740.413 1322.27 C 737.004 1320.87 734.198 1317.42 733.281 1313.84 C 731.413 1306.55 735.619 1296.47 739.623 1290.49 C 762.922 1255.74 847.688 1237.07 888.281 1229.49 C 901.602 1227 915.397 1226.17 928.574 1223.13 C 933.538 1221.98 937.958 1220.6 940.565 1215.89 C 942.109 1213.1 942.651 1209.55 941.551 1206.5 C 940.595 1203.86 938.585 1201.99 936.011 1200.97 C 919.791 1194.59 841.24 1212.1 821.994 1217.1 C 810.042 1220.2 798.182 1224.09 786.548 1228.22 C 771.962 1233.4 758.702 1241.34 744.308 1246.8 C 730.305 1252.1 714.134 1253.46 699.588 1257.51 C 672.506 1265.05 641.462 1277.2 614.519 1282.44 C 608.742 1283.56 600.523 1284.75 595.15 1281.96 C 587.835 1278.16 599.51 1265.52 597.416 1259.7 C 596.58 1257.38 594.986 1255.38 592.612 1254.48 C 590.503 1253.68 588.11 1253.95 586.045 1254.74 C 582.055 1256.28 579.693 1259.26 577.886 1262.99 C 575.697 1267.5 572.54 1273.86 567.475 1275.7 C 565.389 1276.46 563.301 1276.22 561.495 1274.9 C 558.696 1272.85 557.264 1268.49 556.656 1265.25 C 549.349 1226.28 607.067 1211 634.081 1202.72 C 654.353 1196.51 674.819 1190.96 695.446 1186.06 C 705.048 1183.71 717.217 1182.67 725.739 1177.63 C 739.74 1169.36 752.697 1144.24 762.217 1130.72 C 790.633 1146.08 818.991 1161.38 852.09 1162.62 C 857.879 1162.83 864.453 1162.35 868.764 1157.97 C 871.43 1155.26 873.459 1150.41 872.837 1146.58 C 872.147 1142.33 868.597 1139.99 864.905 1138.58 C 856.504 1135.36 846.042 1135.13 837.172 1133.67 C 815.747 1130.14 794.154 1120.42 776.124 1108.44 C 748.582 1090.14 727.116 1062.1 720.735 1029.29 C 717.437 1012.33 717.244 993.523 720.485 976.539 C 724.514 955.428 736.66 937.13 743.666 917.046 C 747.452 906.193 763.295 851.042 768.578 844.318 C 770.148 842.319 772.054 841.026 774.696 841.032 C 787.222 841.058 807.826 875.393 816.464 884.04 C 816.711 884.287 816.965 884.528 817.216 884.772 C 830.424 881.827 842.889 879.436 856.437 879.077 C 863.896 879.117 871.643 878.754 879.023 879.818 C 889.53 881.089 900.069 882.236 910.173 885.552 C 915.946 887.364 922.461 888.835 927.922 891.37 z"/>
<path transform="translate(0,0)" fill="rgb(206,101,30)" d="M 1127.19 1011.3 C 1135.99 1009.5 1144.82 1007.9 1153.69 1006.5 C 1156.24 1014.11 1159.88 1021.33 1162.28 1029.01 C 1168.83 1049.93 1179.35 1094.78 1168.75 1115.12 C 1166.95 1118.56 1164.22 1121.48 1160.35 1122.44 C 1157.04 1123.25 1152.49 1122.64 1149.73 1120.53 C 1146.93 1118.38 1145.94 1116.16 1145.01 1112.86 C 1142.42 1103.67 1142.5 1093.6 1141.27 1084.16 C 1139.14 1067.89 1134.99 1051.62 1131.88 1035.48 C 1130.42 1027.89 1129.81 1018.5 1127.19 1011.3 z"/>
<path transform="translate(0,0)" fill="rgb(206,101,30)" d="M 1604.56 1345.09 C 1606.54 1360.38 1607.13 1378.39 1605.37 1393.72 C 1583.35 1394.18 1561.31 1394.23 1539.28 1393.86 C 1540.37 1380.1 1539.55 1366.45 1538.72 1352.71 C 1559.5 1346.84 1583.04 1345.42 1604.56 1345.09 z"/>
<path transform="translate(0,0)" fill="rgb(206,101,30)" d="M 856.437 879.077 C 863.896 879.117 871.643 878.754 879.023 879.818 C 878.734 882.53 878.191 885.092 877.276 887.67 C 873.91 897.153 855.391 933.41 846.989 936.553 C 844.621 937.439 842.683 937.239 840.477 936.001 C 838.514 934.9 836.866 932.164 836.23 930.073 C 831.885 915.786 849.494 890.833 856.437 879.077 z"/>
<path transform="translate(0,0)" fill="rgb(206,101,30)" d="M 910.173 885.552 C 915.946 887.364 922.461 888.835 927.922 891.37 C 927.119 894.814 926.081 898.104 924.881 901.428 C 920.783 912.784 911.941 939.358 899.887 943.708 C 896.893 944.789 894.384 944.707 891.568 943.138 C 888.997 941.705 886.844 939.381 886.289 936.414 C 884.443 926.55 904.674 895.323 910.173 885.552 z"/>
<path transform="translate(0,0)" fill="rgb(86,45,17)" d="M 811.408 1028.03 C 817.136 1027.75 823.033 1028.24 828.71 1029.03 C 835.88 1030.04 846.942 1032.37 851.038 1039.05 C 852.604 1041.61 852.948 1043.65 852.349 1046.59 C 851.035 1053.03 844.087 1056.44 839.027 1059.58 C 839.836 1062.87 840.541 1066.38 841.801 1069.53 C 850.196 1090.51 869.992 1069.22 882.157 1074.16 C 884.223 1076.4 884.775 1078.71 884.817 1081.68 C 884.872 1085.59 883.176 1088.31 880.422 1090.96 C 872.81 1098.29 862.092 1101.16 851.774 1100.97 C 842.286 1099.36 834.243 1095.35 825.663 1091.2 C 813.289 1093.61 799.328 1092.78 788.709 1085.43 C 784.399 1082.45 782.41 1079.43 781.609 1074.25 C 780.93 1069.85 780.429 1066.2 783.118 1062.47 C 790.69 1059.66 799.699 1068.02 807.087 1069.81 C 809.871 1070.49 812.935 1070.31 815.234 1068.41 C 817.612 1066.44 819.349 1062.44 819.365 1059.38 C 819.397 1053 813.274 1048.95 809.273 1044.84 C 806.992 1042.5 804.653 1040.28 805.191 1036.69 C 805.777 1032.78 808.46 1030.3 811.408 1028.03 z"/>
<path transform="translate(0,0)" fill="rgb(86,45,17)" d="M 888.531 995.58 C 895.898 996.886 901.44 1004.58 906.831 1009.35 C 922.951 1023.61 936.642 1003.29 952.91 1003.01 C 955.462 1002.96 957.875 1003.66 959.612 1005.65 C 961.255 1007.53 961.818 1011.09 961.641 1013.55 C 961.233 1019.23 955.83 1022.37 951.74 1025.53 C 940.378 1033.05 925.693 1039.73 911.757 1038.01 C 900.864 1036.66 889.505 1029.51 883.224 1020.56 C 880.277 1016.36 878.303 1011.03 879.425 1005.86 C 880.528 1000.78 884.401 998.182 888.531 995.58 z"/>
<path transform="translate(0,0)" fill="rgb(86,45,17)" d="M 749.76 979.86 C 765.294 979.717 766.008 994.284 778.271 996.361 C 788.017 998.012 797.729 987.405 807.578 991.686 C 810.122 994.143 811.302 996.987 811.043 1000.57 C 810.739 1004.78 807.9 1007.32 805.085 1010.09 C 799.158 1014.02 792.57 1016.62 785.501 1017.57 C 773.915 1019.12 763.644 1015.51 754.463 1008.47 C 749.744 1004.85 745.23 999.946 744.618 993.76 C 744.067 988.19 746.335 984.02 749.76 979.86 z"/>
<path transform="translate(0,0)" fill="rgb(250,166,59)" d="M 806.439 821.548 C 810.201 778.977 845.317 731.569 877.087 704.972 C 909.949 677.462 950.346 660.672 992.563 654.248 C 1033 648.095 1091.82 652.712 1133.92 653.552 L 1328.24 655.933 C 1402.74 656.663 1477.23 658.017 1551.71 659.993 C 1594.6 660.714 1638.36 659.209 1681.09 663.35 C 1722.71 667.384 1762.37 682.129 1789.32 715.415 C 1798.89 727.226 1807.62 743.036 1811.52 757.716 C 1822.33 798.367 1817.65 868.082 1815.31 911.01 C 1814.24 930.63 1813.62 950.457 1811.43 969.983 C 1810.61 977.261 1809.79 984.124 1806.85 990.912 C 1762.09 993.103 1719.49 1000.04 1676.28 1012.3 C 1683.12 988.139 1689.67 963.563 1698.39 940.009 C 1706.21 918.854 1717.75 896.565 1722.09 874.459 C 1723.37 867.955 1723.88 860.756 1720.4 854.811 C 1717.41 849.724 1712.99 846.843 1707.3 845.579 C 1693.42 842.491 1640.01 844.964 1624.91 846.872 C 1605.18 845.352 1583.9 846.854 1564.05 846.8 C 1549.72 844.838 1534.41 845.326 1519.92 844.699 C 1500.36 843.852 1480.54 841.869 1461.12 839.363 C 1433.4 835.784 1406.04 830.914 1378.55 825.892 C 1362.38 822.938 1345.93 819.155 1329.57 817.595 C 1321.47 816.823 1313.97 815.575 1307.05 820.74 C 1291.4 832.422 1258.79 917.229 1249.87 938.961 C 1245.98 948.424 1242.84 959.392 1237.49 968.075 C 1221.2 969.681 1204.77 968.946 1188.45 970.525 C 1151.65 974.084 1122.73 980.936 1087.12 989.115 C 1085.75 980.675 1084.44 972.189 1081.85 964.019 C 1078.38 953.022 1073.59 942.476 1071.78 931.023 C 1069.91 919.141 1070.18 906.275 1069.6 894.24 C 1068.71 873.751 1067.34 853.287 1065.48 832.862 C 1064.47 821.969 1063.78 810.426 1060.19 800.019 C 1058.03 793.727 1054.49 787.628 1049.14 783.521 C 1044.24 779.757 1038.46 778.318 1032.35 779.182 C 1008.18 782.602 978.417 813.595 961.962 831.143 C 953.812 839.834 946.045 849.564 936.727 856.998 C 936.48 857.195 936.236 857.398 935.991 857.597 C 911.194 849.217 888.248 843.956 861.88 845.505 C 852.253 846.07 842.566 847.802 832.958 848.04 C 824.096 839.746 813.934 831.051 806.439 821.548 z"/>
<path transform="translate(0,0)" fill="rgb(250,166,59)" d="M 426.614 1319.98 C 439.738 1319.94 453.539 1322.65 466.649 1323.92 C 487.4 1325.94 508.337 1327.03 529.141 1328.57 C 590.878 1333.12 652.821 1335.56 714.502 1340.44 C 720.824 1345.1 726.356 1350.2 733.366 1353.94 C 772.634 1374.87 805.148 1346.41 842.926 1347.99 C 862.519 1348.81 882.321 1351.39 901.858 1353.18 C 940.57 1356.83 979.3 1360.29 1018.05 1363.54 C 1061.02 1367.09 1442.28 1392.82 1448.93 1400.07 C 1452.04 1418.77 1441.49 1484.45 1438.59 1504.9 C 1437.92 1509.42 1437.27 1514.46 1435.16 1518.59 C 1433.39 1522.03 1430.48 1524.09 1426.76 1525.02 C 1415.02 1527.97 1284.41 1514.43 1261.5 1512.5 C 1085.51 1498.09 909.64 1482.12 733.925 1464.59 C 667.077 1458.32 600.3 1451.29 533.61 1443.51 C 507.575 1440.45 481.217 1438.11 455.318 1434.08 C 447.89 1432.93 441.462 1431.65 434.857 1427.82 C 422.805 1409.8 423.982 1342.63 426.614 1319.98 z"/>
<path transform="translate(0,0)" fill="rgb(250,166,59)" d="M 449.711 1468.9 C 463.014 1468.46 476.641 1470.61 489.855 1472.07 C 507.832 1474.1 525.82 1476.03 543.817 1477.86 L 751.936 1498.72 C 974.383 1520.38 1197 1540.29 1419.76 1558.44 C 1398.86 1582.19 1377.69 1599.22 1363.27 1628.7 C 1355.85 1643.44 1355.19 1658.78 1354.94 1674.9 C 1337.51 1675.69 1319.47 1673.01 1302.1 1671.35 L 1218.02 1663.26 L 915.503 1634.52 L 595.61 1603.83 L 506.59 1595.84 C 487.124 1594.16 467.364 1593.55 448.269 1589.24 C 446.397 1587.17 445.397 1585.29 444.55 1582.61 C 439.979 1568.16 443.202 1482.21 449.711 1468.9 z"/>
<path transform="translate(0,0)" fill="rgb(250,166,59)" d="M 1782.75 1021.41 C 1792.98 1019.81 1805.88 1021.11 1815.89 1023.7 C 1829.54 1027.24 1840.32 1034.96 1847.49 1047.21 C 1854.39 1059.01 1856.73 1074.38 1857.02 1087.87 C 1857.48 1108.71 1854.8 1130.08 1852.53 1150.78 C 1848.79 1183.96 1844.54 1217.08 1839.78 1250.12 C 1831.3 1310.62 1824.78 1372.86 1809.6 1432.08 C 1804.18 1453.24 1794.12 1475 1779.55 1491.47 C 1748.69 1526.35 1694.84 1551.31 1654.17 1573.82 C 1628.75 1587.78 1603.59 1602.2 1578.7 1617.06 C 1575.18 1618.99 1571.77 1621.18 1568.34 1623.26 C 1586.66 1598.95 1601.12 1574.68 1612.25 1546.3 C 1621.3 1523.8 1628.61 1500.63 1634.12 1477.01 C 1640.88 1447.96 1645.29 1418.63 1649.92 1389.19 C 1656.37 1349.15 1662.15 1309 1667.26 1268.76 C 1672.23 1229.68 1679.2 1189.42 1678.66 1149.98 C 1678.45 1135.05 1676.58 1120.22 1670.52 1106.47 C 1659.31 1081.09 1641.19 1072.22 1616.55 1062.77 C 1640.37 1050.07 1751.45 1025.09 1782.75 1021.41 z"/>
<path transform="translate(0,0)" fill="rgb(250,166,59)" d="M 321.315 1063.37 C 328.374 1062.91 335.309 1062.99 342.278 1064.35 C 359.971 1067.81 376.435 1079.68 384.281 1096.06 C 389.835 1107.66 392.408 1121.19 393.815 1133.88 C 396.812 1160.9 395.973 1188.77 395.899 1215.93 C 395.758 1268.29 394.132 1320.68 395.657 1373.04 C 396.237 1392.97 395.263 1417.18 401.7 1436.22 C 405.067 1446.17 412.664 1453.2 418.418 1461.7 C 417.808 1480.47 415.439 1499.34 414.247 1518.1 C 412.855 1540.01 412.579 1561.99 411.83 1583.93 C 397.111 1584.15 383.018 1581.53 368.771 1578.12 C 358.268 1574.99 348.305 1570.33 339.545 1563.69 C 300.322 1533.98 293.243 1460 286.753 1414.48 C 277.073 1346.57 268.559 1277.93 264.804 1209.43 C 263.283 1181.67 261.035 1152.96 265.378 1125.38 C 267.663 1110.86 272.394 1096.88 281.388 1085.09 C 291.754 1071.51 304.711 1065.54 321.315 1063.37 z"/>
<path transform="translate(0,0)" fill="rgb(206,101,30)" d="M 1323 848.187 C 1344.2 847.708 1390.84 858.628 1413.43 862.444 C 1440.22 866.97 1467.86 869.462 1494.91 872.05 C 1533.99 875.808 1573.27 877.078 1612.51 875.851 C 1637.27 874.922 1662.04 872.063 1686.83 872.071 C 1681.54 892.461 1668.51 914.06 1659.88 933.467 C 1646.75 962.974 1636.95 992.531 1629.06 1023.8 C 1618.31 1030.06 1604.51 1032.97 1592.64 1036.57 C 1559.28 1047.31 1533.88 1061.24 1508.69 1085.7 C 1502.51 1075.89 1495.8 1066.43 1488.59 1057.35 C 1433.22 988.944 1355.02 974.98 1273.13 966.236 C 1279.71 942.244 1309.75 866.429 1323 848.187 z"/>
<path transform="translate(0,0)" fill="rgb(250,166,59)" d="M 681.123 988.456 C 683.379 988.679 684.392 988.947 686.216 990.309 C 691.255 998.951 690.568 1013.56 691.169 1023.44 C 678.76 1023.17 662.568 1016.09 650.771 1019.65 C 647.665 1020.58 645.679 1022.36 644.424 1025.33 C 643.15 1028.35 643.562 1032.91 645.385 1035.62 C 649.683 1042 677.097 1044.43 685.886 1046.43 C 690.432 1047.47 695.329 1048.86 697.892 1053.03 C 695.569 1063.24 657.397 1065.66 647.652 1077.31 C 646.257 1081.96 645.647 1085.13 647.934 1089.57 C 661.235 1101.02 692.27 1079.01 709.046 1080.42 C 716.764 1085.77 726.225 1100.8 732.446 1108.7 C 729.948 1119.05 726.967 1130.76 722.491 1140.39 C 719.915 1145.94 717.033 1149.48 711.18 1151.55 C 701.587 1154.95 690.83 1156.36 680.889 1158.54 C 661.172 1162.78 641.52 1167.31 621.937 1172.13 C 579.485 1182.8 538.761 1197.32 497.535 1211.87 C 483.996 1216.86 470.285 1221.9 457.256 1228.12 C 447.923 1232.57 439.069 1237.93 429.726 1242.37 C 428.818 1231.04 429.758 1219.21 429.957 1207.82 C 430.7 1165.46 433.831 1112.06 411.4 1074.66 C 398.793 1053.64 380.626 1043.62 357.341 1037.9 C 399.396 1025.54 443.47 1020.58 486.75 1014.3 C 551.398 1004.64 616.197 996.023 681.123 988.456 z"/>
<path transform="translate(0,0)" fill="rgb(206,101,30)" d="M 289.779 597.369 C 345.086 597.645 400.393 597.638 455.7 597.348 L 836.036 597.393 L 981.297 597.38 L 1024.5 597.26 C 1031.15 597.183 1038.1 596.5 1044.72 596.9 C 1047.95 597.095 1051.74 597.561 1054.09 600.061 C 1058.66 604.912 1055.37 616.84 1054.46 622.76 C 1050.42 623.257 1046.32 623.352 1042.25 623.55 C 1020.46 623.771 998.691 623.969 977.087 627.15 C 962.822 629.25 949.021 634.298 934.531 634.633 C 892.699 635.601 850.701 634.881 808.855 634.873 L 581.582 634.848 L 391.403 634.901 C 356.407 634.913 321.173 635.771 286.202 634.605 C 285.524 625.244 282.83 608.726 286.463 599.801 C 287.204 597.979 288.066 598.124 289.779 597.369 z"/>
<path transform="translate(0,0)" fill="rgb(206,101,30)" d="M 441.437 256.411 C 451.028 255.392 461.292 255.964 470.946 255.967 L 521.345 256.006 L 685.821 256.001 L 961 255.978 C 1009.3 255.962 1058.07 254.458 1106.31 256.253 C 1107.36 265.95 1109.32 282.773 1104.28 291.453 C 1096.61 296.419 1025.01 294.075 1010.75 294.036 L 570.849 294.058 L 428.227 294.055 C 399.848 294.053 371.139 294.895 342.805 293.249 C 371.118 269.571 405.166 259.27 441.437 256.411 z"/>
<path transform="translate(0,0)" fill="rgb(250,166,59)" d="M 1511.58 1492.02 C 1517.72 1479.94 1522.97 1467.43 1527.29 1454.59 C 1544.15 1455.6 1576.58 1473.73 1589.75 1484.63 C 1585.31 1496.81 1581.22 1510.14 1575.02 1521.55 C 1566.5 1538.07 1556.82 1553.97 1546.04 1569.11 C 1524.1 1600.05 1467.43 1668.04 1432.66 1680.9 C 1423.49 1684.29 1414.23 1685.01 1405.23 1680.72 C 1399.35 1677.92 1395.22 1674.15 1393.3 1667.83 C 1390.04 1657.1 1392.43 1643.81 1397.44 1633.98 C 1408.28 1612.7 1427.79 1595.6 1443.88 1578.34 C 1468.62 1551.82 1493.73 1523.77 1511.58 1492.02 z"/>
<path transform="translate(0,0)" fill="rgb(206,101,30)" d="M 1511.58 1492.02 C 1517.72 1479.94 1522.97 1467.43 1527.29 1454.59 C 1544.15 1455.6 1576.58 1473.73 1589.75 1484.63 C 1585.31 1496.81 1581.22 1510.14 1575.02 1521.55 C 1554.18 1513.19 1530.2 1504.65 1511.58 1492.02 z"/>
<path transform="translate(0,0)" fill="rgb(206,101,30)" d="M 291.324 927.265 C 324.741 926.265 358.423 927.092 391.865 927.086 L 583.118 927.039 L 665.153 927.035 C 677.496 927.04 693.772 925.092 705.538 928.016 C 706.792 936.088 698.926 951.223 695.972 958.996 L 695.131 960.128 C 689.598 962.325 409.194 960.8 376.622 960.825 L 314.526 960.857 C 307.214 960.86 297.007 962.182 289.985 960.681 C 288.497 960.363 287.113 959.865 286.372 958.475 C 283.769 953.6 284.278 939.924 285.519 934.703 C 286.424 930.902 288.16 929.345 291.324 927.265 z"/>
<path transform="translate(0,0)" fill="rgb(250,166,59)" d="M 1577.65 1087.27 C 1581.92 1086.9 1586.21 1086.96 1590.46 1087.44 C 1606.63 1089.17 1622.46 1094.71 1632.74 1108.04 C 1639.91 1117.34 1643.43 1128.82 1644.83 1140.34 C 1647.49 1162.1 1644.13 1185.27 1641.96 1207 C 1638.91 1239.4 1635.06 1271.72 1630.4 1303.93 L 1621.06 1276.95 C 1611.13 1249.18 1596.07 1223.51 1576.68 1201.29 C 1556.44 1178.38 1536 1175.82 1528.54 1143.16 C 1526.15 1132.71 1526.31 1122.96 1532.32 1113.73 C 1542.02 1098.83 1560.78 1090.52 1577.65 1087.27 z"/>
<path transform="translate(0,0)" fill="rgb(206,101,30)" d="M 546.348 360.229 C 558.76 359.718 594.335 357.547 604.262 361.743 C 607.082 370.88 606.778 561.346 605.076 568.091 C 604.316 571.102 603.466 571.477 600.798 572.915 C 581.473 574.624 561.504 573.465 542.137 572.765 C 540.734 556.792 541.461 540.149 541.387 524.1 L 541.256 431.639 C 541.259 417.688 539.479 375.553 541.995 364.516 C 542.629 361.739 544.029 361.539 546.348 360.229 z"/>
<path transform="translate(0,0)" fill="rgb(69,129,119)" d="M 338.725 330.377 C 353.815 329.384 369.084 329.786 384.189 330.205 C 385.578 382.968 384.128 436.15 384.179 488.956 L 384.224 543.81 C 384.227 552.76 385.049 562.664 383.704 571.47 C 381.536 573.409 379.845 573.237 377.012 573.673 C 365.011 573.891 349.674 575.507 338.029 572.909 C 335.954 572.447 333.593 572.011 332.715 569.831 C 330.964 565.484 331.299 557.722 331.206 553.01 C 330.242 504.245 331.177 455.302 331.146 406.515 C 331.137 391.363 329.145 344.548 332.13 333.973 C 334.533 331.371 335.417 331.317 338.725 330.377 z"/>
<path transform="translate(0,0)" fill="rgb(69,129,119)" d="M 635.479 333.272 C 646.495 332.524 669.502 329.658 678.94 335.38 C 681.539 341.46 680.936 565.959 679.987 568.648 C 679.021 571.386 676.916 571.826 674.539 573.013 C 664.752 573.165 636.529 575.75 628.755 570.447 C 627.547 566.499 627.362 562.449 627.204 558.347 C 626.571 541.911 627.094 525.296 627.106 508.836 L 627.073 418.905 C 627.069 404.471 625.134 345.895 627.964 336.507 C 630.58 334.067 632.05 334.052 635.479 333.272 z"/>
<path transform="translate(0,0)" fill="rgb(206,101,30)" d="M 490.507 897.362 C 492.913 884.8 491.09 869.009 491.074 856.071 C 491.048 834.086 488.622 687.756 493.795 676.626 C 501.617 672.585 529.204 675.386 539.717 674.908 C 541.682 677.038 542.249 678.106 542.597 681.006 C 543.667 689.915 543.017 699.671 543.029 708.65 L 543.037 761.131 C 543.027 803.708 544.684 846.908 542.923 889.413 C 542.781 892.842 542.689 896.292 541.706 899.601 C 536.102 902.984 503.281 903.124 496.469 901.242 C 493.907 900.534 492.273 899.336 490.507 897.362 z"/>
<path transform="translate(0,0)" fill="rgb(250,166,59)" d="M 344.258 721.462 C 352.006 721.396 386.571 719.187 391.767 724.197 C 395.594 740.206 393.475 777.882 393.484 795.783 C 393.501 830.679 394.972 866.419 392.71 901.195 C 388.941 901.979 385.07 902.327 381.25 902.8 C 368.783 902.914 341.213 905.62 330.516 900.531 C 330.16 899.207 330.1 899.09 329.845 897.513 C 327.876 885.328 327.33 730.666 329.264 725.046 C 329.501 724.358 330.135 723.881 330.571 723.298 C 334.737 721.329 339.716 721.65 344.258 721.462 z"/>
<path transform="translate(0,0)" fill="rgb(250,166,59)" d="M 1077.55 1310.41 C 1090.1 1308.79 1113.54 1307.52 1124.2 1314.39 C 1129.47 1317.78 1133.8 1322.57 1139.05 1326.08 C 1144.46 1329.71 1150.77 1331.57 1157.17 1332.5 C 1183.8 1336.35 1212.56 1335.63 1239.49 1336.66 C 1291.24 1338.66 1344.07 1341.31 1395.82 1339.65 C 1417.22 1338.97 1437.71 1337.38 1458.82 1333.56 C 1458.81 1343 1457.9 1363.59 1451.24 1370.83 C 1436.4 1373.74 1366.45 1365.22 1345.76 1363.77 C 1313.91 1360.28 1281.69 1358.4 1249.73 1355.88 C 1147.39 1347.81 1044.65 1342.15 942.579 1331.06 C 961.888 1328.23 981.458 1326.8 1000.69 1323.46 C 1026.29 1319.03 1051.62 1312.63 1077.55 1310.41 z"/>
<path transform="translate(0,0)" fill="rgb(250,166,59)" d="M 520.151 572.643 C 511.52 574.9 483.026 576.534 475.61 572.351 C 473.589 556.106 474.437 539.182 474.459 522.838 L 474.564 444.408 L 474.535 376.83 C 474.524 362.828 473.756 348.25 475.52 334.355 C 483.321 329.109 511.449 330.995 520.673 332.768 C 521.766 363.611 520.477 394.522 521.216 425.375 C 520.98 454.328 520.064 483.673 521.144 512.582 L 520.6 556.705 C 520.527 561.72 519.621 567.733 520.151 572.643 z"/>
<path transform="translate(0,0)" fill="rgb(69,129,119)" d="M 1016.09 332.31 C 1026.1 332.038 1047.14 329.214 1055.24 334.881 C 1056.57 338.603 1056.82 342.398 1056.94 346.32 C 1058.38 392.253 1056.87 438.698 1056.78 484.671 C 1056.7 499.464 1056.75 514.258 1056.92 529.05 C 1057.05 539.54 1057.81 550.573 1056.65 561.006 C 1056.18 565.344 1055.58 567.212 1052.1 569.914 C 1041.44 570.21 1021.78 573.016 1012.6 568.009 C 1010.25 557.544 1009.65 344.785 1011.75 336.904 C 1012.55 333.908 1013.55 333.761 1016.09 332.31 z"/>
<path transform="translate(0,0)" fill="rgb(250,166,59)" d="M 897.127 354.513 C 904.187 354.332 913.724 353.046 920.253 356.1 C 923.296 361.617 923.195 551.983 920.719 569.28 C 915.84 572.99 901.621 571.417 895.254 571.404 C 888.403 571.629 879.642 573.026 873.503 569.477 C 870.188 561.699 870.794 363.579 872.947 357.238 C 878.56 353.19 890.3 354.527 897.127 354.513 z"/>
<path transform="translate(0,0)" fill="rgb(206,101,30)" d="M 956.487 353.429 C 967.654 353.324 978.68 353.607 989.829 354.254 C 991.726 380.574 990.02 411.224 990.015 438.131 C 990.008 478.189 991.233 518.664 989.914 558.669 C 989.79 562.419 989.743 566.283 988.203 569.752 C 985.154 571.409 981.399 571.184 977.992 571.331 C 966.029 571.942 954.144 571.383 942.2 570.731 C 940.836 531.907 942.103 492.578 942.111 453.703 C 942.117 423.728 940.555 392.992 942.12 363.123 C 942.292 359.835 942.234 358.186 944.038 355.37 C 947.893 353.277 952.2 353.583 956.487 353.429 z"/>
<path transform="translate(0,0)" fill="rgb(206,101,30)" d="M 408.892 363.282 C 423.542 363.072 438.767 362.333 453.317 364.127 C 454.892 383.671 455.258 563.452 452.644 572.217 C 452.16 573.842 450.592 574.112 449.183 574.875 C 434.472 575.693 420.012 575.872 405.309 574.695 C 403.572 561.6 404.703 547.293 404.722 534.064 L 404.799 456.801 L 404.735 394.524 C 404.734 386.409 403.574 375.88 405.111 368.017 C 405.649 365.263 406.75 364.912 408.892 363.282 z"/>
<path transform="translate(0,0)" fill="rgb(69,129,119)" d="M 420.437 706.131 C 435.51 705.426 450.608 705.471 465.675 706.269 C 467.433 721.531 466.898 737.106 466.917 752.451 L 466.958 818.869 C 466.96 836.497 469.056 885.485 465.532 899.413 C 463.766 901.471 463.39 901.535 460.759 902.301 C 451.373 903.117 427.481 904.513 419.449 900.539 C 418.079 895.667 417.835 890.553 417.675 885.514 C 416.517 849.109 417.583 812.388 417.509 775.946 C 417.468 755.943 415.587 731.558 417.471 711.977 C 417.734 709.251 418.667 708.03 420.437 706.131 z"/>
<path transform="translate(0,0)" fill="rgb(69,129,119)" d="M 725.997 367.861 C 727.011 367.884 727.998 367.862 729 368.086 C 731.396 368.622 733.051 372.177 734.232 374.143 C 753.085 405.537 769.307 438.999 786.597 471.297 C 801.912 499.906 818.731 528.011 833.446 556.885 C 822.553 563.659 809.251 568.585 797.586 574.096 L 794.348 573.572 C 785.204 565.325 704.369 410.582 691.262 385.375 C 701.467 377.865 714.495 373.088 725.997 367.861 z"/>
<path transform="translate(0,0)" fill="rgb(206,101,30)" d="M 1086.44 329.187 C 1093.9 328.944 1103.52 327.223 1109.49 332.452 C 1111.79 338.903 1112.07 588.08 1110.7 610.154 C 1110.39 615.263 1110.51 620.163 1106.48 623.737 C 1098 623.866 1089.66 623.953 1081.2 623.171 C 1079.67 601.449 1080.88 578.965 1080.87 557.156 L 1080.84 430.134 L 1080.85 362.58 C 1080.85 354.3 1079.51 343.003 1081.24 335.075 C 1081.92 331.926 1084.07 330.968 1086.44 329.187 z"/>
<path transform="translate(0,0)" fill="rgb(250,166,59)" d="M 1539.28 1393.86 C 1561.31 1394.23 1583.35 1394.18 1605.37 1393.72 C 1603.7 1424.12 1600.08 1455.87 1589.75 1484.63 C 1576.58 1473.73 1544.15 1455.6 1527.29 1454.59 C 1534.3 1434.83 1537.96 1414.76 1539.28 1393.86 z"/>
<path transform="translate(0,0)" fill="rgb(250,166,59)" d="M 529.3 1237.3 L 530.363 1238.21 C 528.306 1247.15 526.208 1257.49 526.648 1266.68 C 527.46 1283.62 535.993 1291.27 547.539 1301.94 C 517.458 1302.99 486.763 1300.07 456.77 1297.76 C 447.983 1296.74 439.159 1295.63 430.598 1293.36 C 432.086 1290.1 433.796 1286.84 435.841 1283.9 C 455.101 1256.2 497.714 1243.39 529.3 1237.3 z"/>
<path transform="translate(0,0)" fill="rgb(250,166,59)" d="M 1495.56 1317.36 C 1495.77 1317.45 1495.97 1317.53 1496.17 1317.64 C 1500.54 1320 1502.4 1325.28 1503.67 1329.82 C 1515.21 1371.14 1507.65 1425.13 1492.27 1464.84 C 1487.95 1476 1482.16 1486.29 1476.21 1496.64 L 1470.14 1505.14 C 1468.63 1485.07 1473.08 1462.78 1475.42 1442.84 C 1480.06 1403.38 1483.56 1355.01 1495.56 1317.36 z"/>
<path transform="translate(0,0)" fill="rgb(69,129,119)" d="M 736.128 786.189 C 742.263 785.918 749.037 786.804 754.626 789.542 C 757.364 790.883 758.707 792.256 759.716 795.096 C 756.516 806.335 750.673 816.678 746.323 827.497 C 738.192 847.725 732.046 869.214 721.701 888.439 C 720.797 889.63 719.875 890.626 718.821 891.688 C 716.026 894.504 714.253 896.003 710.203 896.046 C 708.145 894.533 707.306 893.505 706.543 891.015 C 703.219 880.165 713.557 804.821 719.461 795.54 C 723.068 789.869 729.923 787.51 736.128 786.189 z"/>
<path transform="translate(0,0)" fill="rgb(250,166,59)" d="M 704.858 1290.42 C 707.42 1290.19 707.945 1290.05 710.22 1291.18 C 713.155 1297.75 708.895 1308.49 707.125 1315.32 C 683.584 1314.71 659.535 1314.12 636.17 1310.99 L 624.834 1309.38 C 647.683 1300.41 680.222 1293.69 704.858 1290.42 z"/>
</svg>