<svg xmlns="http://www.w3.org/2000/svg" width="1024" height="1024" version="1.1"><path fill="#FEE753" fill-rule="evenodd" d="M706.994 842c-5.934-1.65-8.815-3.963-10.529-8.452-1.452-3.803-1.536-5.21-.542-9.155.645-2.564 2.067-6.414 3.16-8.555 2.156-4.227 10.37-13.945 21.417-25.338 3.85-3.971 8.929-9.42 11.286-12.11 5.984-6.828 20.08-25.33 21.82-28.64 1.503-2.86 2.837-3.46 3.894-1.75.34.55.146 1-.43 1-.578 0-2.728 2.587-4.78 5.75-7.036 10.847-23.247 29.974-36.963 43.612-7.444 7.402-14.728 17.819-16.222 23.199-.602 2.166-1.096 5.661-1.1 7.766-.004 2.878.701 4.533 2.845 6.676 4.08 4.082 8.724 4.674 15.83 2.019 3.2-1.196 7.17-3.21 8.82-4.476 3.414-2.62 27.078-26.284 32.759-32.76 7.05-8.04 19.936-26.272 23.374-33.075 1.888-3.734 3.868-6.52 4.402-6.19 1.213.75.535 2.049-8.335 15.979-14.575 22.89-40.146 50.315-56.665 60.774-4.328 2.741-11.113 4.542-14.041 3.727m-50.494-5.084c-11.036-1.286-45.898-4.705-70.5-6.913-12.375-1.111-27-2.462-32.5-3-30.211-2.962-52.866-5.131-68-6.51-9.35-.853-26.225-2.43-37.5-3.504-11.275-1.075-30.4-2.88-42.5-4.01s-37.975-3.625-57.5-5.545c-54.682-5.376-64.5-6.31-78.423-7.467-29.38-2.44-40.291-3.72-43.077-5.057-5.46-2.618-5.698-4.043-5.05-30.314.597-24.24 1.146-27.73 4.712-29.943 1.167-.724 6.524-.501 18 .75 8.986.978 20.388 2.18 25.338 2.668s15.75 1.585 24 2.437 19.05 1.948 24 2.435 15.975 1.593 24.5 2.456c31.941 3.233 98.138 9.58 115.5 11.072 9.9.851 22.275 2.004 27.5 2.563 8.93.954 20.118 1.972 76.5 6.961 12.65 1.12 27.725 2.474 33.5 3.01 13.091 1.216 38.977 3.408 81 6.857 22.54 1.85 32.5 3.025 32.5 3.833 0 .64-3.705 5.134-8.233 9.985-9.063 9.709-14.043 16.031-16.726 21.233-3.26 6.318-5.541 14.366-5.541 19.544 0 2.828-.54 5.683-1.2 6.343-1.338 1.338-9.42 1.384-20.3.116m17.243-3.166c.544-.687 1.73-4.597 2.638-8.689 2.606-11.758 9.329-23.04 21.369-35.864 4.339-4.621 5.115-6.545 3.134-7.769-.614-.38-16.702-1.974-35.75-3.544-19.049-1.57-39.134-3.295-44.634-3.834s-15.625-1.455-22.5-2.034c-6.875-.58-17.45-1.487-23.5-2.016s-16.625-1.434-23.5-2.012-17.225-1.49-23-2.028c-5.775-.537-12.75-1.182-15.5-1.432s-16.925-1.58-31.5-2.952c-14.575-1.373-39.1-3.658-54.5-5.078s-46-4.392-68-6.605-44.725-4.431-50.5-4.931-12.3-1.145-14.5-1.433c-4.195-.549-22.47-2.457-48.367-5.05-8.453-.847-16.167-1.286-17.143-.976s-2.055 1.56-2.4 2.78c-.343 1.22-.91 13.029-1.26 26.243l-.634 24.027 1.576 1.576c1.15 1.15 4.642 1.766 12.902 2.275 11.776.727 41.724 3.46 93.826 8.561 16.775 1.643 38.15 3.707 47.5 4.587s23.75 2.24 32 3.025 24.675 2.328 36.5 3.43 28.025 2.68 36 3.508 24.625 2.417 37 3.535c31.738 2.866 39.788 3.622 63 5.92a4928 4928 0 0 0 37.5 3.554c9.35.837 22.85 2.134 30 2.88 17.102 1.787 21.056 1.848 22.243.346m113.888-24.452c-1.33-1.331-.5-3.328 3.129-7.52 2.068-2.39 6.08-9.055 8.914-14.811 9.44-19.17 18.842-51.229 22.28-75.967 1.987-14.308 3.092-21.508 3.53-23 .553-1.884 6.86-47.125 8.993-64.5.877-7.15 2.01-16.15 2.517-20s1.216-12.678 1.576-19.618c.766-14.752-.59-24.952-4.29-32.293-3.648-7.235-11.147-14.068-18.298-16.676-6.28-2.29-7.568-4.315-3.732-5.866 2.87-1.161 35.332-9.911 43.25-11.659 29.122-6.426 36.2-7.581 43.518-7.102 11.916.781 19.712 4.984 24.547 13.234 5.692 9.714 6.555 19.677 3.917 45.258-3.915 37.967-15.139 114.54-20.407 139.222-1.115 5.225-3.46 13.1-5.211 17.5-3.656 9.186-12.477 22.357-17.617 26.304a222 222 0 0 0-6.79 5.472c-3.988 3.375-23.176 15.152-33.457 20.535-4.125 2.16-9.75 5.327-12.5 7.038s-7.25 4.26-10 5.663-6.8 3.638-9 4.966c-2.2 1.327-6.25 3.599-9 5.047s-6.35 3.652-8 4.898c-4.206 3.176-7.129 4.615-7.869 3.875m18.869-13.355c2.75-1.609 7.25-4.06 10-5.448s6.125-3.187 7.5-4c4.321-2.551 22.796-12.813 31.047-17.245 10.935-5.873 21.704-13.68 30.105-21.827 5.93-5.75 7.883-8.538 11.846-16.904 5.762-12.167 8.865-25.245 13.88-58.519 6.911-45.839 12.234-86.044 14.188-107.173 1.295-13.997.82-30.155-1.068-36.327-.715-2.337-3.152-5.922-5.86-8.624-3.668-3.656-5.746-4.859-9.937-5.75-7.924-1.684-19.654-1.319-29.201.909-4.675 1.09-12.55 2.86-17.5 3.934-19.27 4.18-23.317 5.15-32.5 7.797-7.882 2.272-9.552 3.101-9.804 4.87-.22 1.534.682 2.743 3.206 4.303 6.39 3.95 12.269 11.587 15.67 20.359l3.18 8.202.095 12.5c.053 6.875-.413 16.775-1.034 22-2.05 17.256-7.208 56.328-8.778 66.5-.849 5.5-1.997 13.375-2.55 17.5-4.383 32.629-12.322 70.262-17.052 80.829-1.15 2.569-3.119 7.371-4.374 10.671-1.256 3.3-4.145 9.703-6.421 14.228s-4.138 8.688-4.138 9.25c0 1.874 4.443.922 9.5-2.035m-617-5.468c-8.376-1.848-11.095-3.001-18.302-7.761-4.553-3.008-7.358-5.836-10.105-10.189-5.765-9.135-7.87-13.68-10.047-21.702-4.804-17.694-11.289-61.7-16.11-109.323-2.435-24.057-3.171-36.263-3.287-54.5l-.149-23.5 1.914-6.5c1.052-3.575 2.81-7.85 3.905-9.5 3.887-5.855 10.25-11.767 15.181-14.108 5.989-2.842 13.656-3.129 21.485-.804 3.962 1.177 6.888 3.056 11.285 7.25 3.265 3.114 6.57 6.888 7.346 8.387s2.354 6.674 3.508 11.5l2.099 8.775-.12 56.5c-.125 58.68.85 88.528 3.058 93.567.707 1.613 2.99 5.231 5.074 8.04l3.79 5.107-1.107 12.393c-1.409 15.784-1.733 17.478-3.088 16.123-.746-.746-.706-5.109.135-14.739l1.193-13.68-3.722-5.606c-2.048-3.083-4.337-7.879-5.088-10.656-.75-2.777-1.802-11.574-2.336-19.549-1.238-18.485-1.26-80.228-.032-85.5.582-2.496.563-9.828-.049-19.5-1.96-30.978-2.407-33.997-6.268-42.353l-3.555-7.694-7.587-3.603-7.587-3.603-7.737.448c-5.483.317-9.39 1.205-13.416 3.048l-5.68 2.6-4.032 8.02c-5.649 11.235-6.479 17.738-5.695 44.637.352 12.1 1.056 26.275 1.563 31.5s1.407 14.9 1.999 21.5 1.742 16.95 2.556 23a4197 4197 0 0 1 3.561 27.5c4.412 34.977 9.308 58.256 14.407 68.5 3.536 7.103 11.687 16.496 16.434 18.938 5.798 2.983 17.213 5.657 22.88 5.361l5.726-.299.249-9.5c.283-10.799.883-14.346 2.28-13.482 1.453.898 1.245 23.808-.229 25.282-1.522 1.522-8.566 1.382-16.3-.325M690 762.012a4215 4215 0 0 0-39-3.448c-11.275-.936-32.65-2.79-47.5-4.12s-35.775-3.115-46.5-3.966-33.9-2.866-51.5-4.477c-17.6-1.61-42.125-3.846-54.5-4.968s-31.5-2.94-42.5-4.04-31.475-3.132-45.5-4.516-29.55-2.95-34.5-3.481-13.95-1.432-20-2.002c-11.48-1.081-39.597-4.29-52.5-5.99-4.125-.544-13.35-1.687-20.5-2.54-13.463-1.607-16.014-2.582-19.69-7.526-2.484-3.342-3.742-14.338-3.78-33.033L212 662.31l1.827-1.653c1.531-1.386 2.702-1.499 7.25-.699 2.982.525 11.948 1.43 19.923 2.012 36.893 2.69 72.287 5.03 91.5 6.047 11.55.612 21.966 1.305 23.147 1.54 1.181.237 4.036 2.007 6.344 3.936 9.113 7.613 23.542 8.437 43.48 2.484l10.972-3.277 12.029 1.151c13.381 1.28 60.725 5.585 78.528 7.14 18.559 1.62 48.35 3.863 80.5 6.06 41.065 2.804 91.225 6.717 101.5 7.917 4.675.546 13.9 1.49 20.5 2.096 8.235.758 12.55 1.597 13.75 2.675 2.571 2.308 2.364 8.35-1.258 36.761-1.718 13.466-3.015 20.674-4.08 22.664-.983 1.837-6.775 5.002-8.63 4.715-.43-.066-9.107-.906-19.282-1.867m25.441-4.282c.818-1.248 1.967-6.536 2.553-11.75s1.471-12.18 1.968-15.48 1.206-10.743 1.576-16.54l.672-10.54-1.658-1.377c-1.12-.93-9.826-2.11-26.855-3.639-29.57-2.655-98.093-7.94-121.697-9.385-9.075-.556-21.675-1.47-28-2.034-10.434-.93-26.782-2.284-60.5-5.015-6.6-.535-21-1.843-32-2.908s-23.907-2.24-28.683-2.612l-8.683-.675-10.817 3.328c-8.794 2.706-12.51 3.335-19.875 3.363l-9.059.034-10.441-5.189-10.442-5.189-20.5-1.104c-26.403-1.422-74.561-4.658-92.5-6.216-7.7-.67-16.475-1.235-19.5-1.26l-5.5-.042.094 19.5c.065 13.498.527 21.015 1.5 24.423l1.406 4.923 4 1.213c4.17 1.265 10.903 2.117 67 8.478 4.95.561 12.6 1.453 17 1.982s18.125 1.877 30.5 2.997c25.749 2.33 49.345 4.768 53 5.478 1.375.268 10.6 1.162 20.5 1.988s29.925 2.635 44.5 4.021a7168 7168 0 0 0 49.5 4.512 9878 9878 0 0 1 44.5 3.972c11.825 1.09 30.05 2.661 40.5 3.493 33.962 2.704 78.72 6.615 91 7.952 6.6.718 16.827 1.365 22.727 1.437l10.727.131zm18.947-8.16c-.336-.878.117-6.653 1.008-12.833s2.052-15.512 2.58-20.737c2.6-25.746 7.129-53.217 9.182-55.69.945-1.14 1.41-1.106 2.857.204 2.855 2.583 4.493 12.833 4.392 27.486-.102 14.891-1.722 24.784-6.55 40-3.073 9.683-9.358 22-11.61 22.75-.685.23-1.522-.302-1.859-1.18m60.038-12.338c1.733-5.46 4.509-20.894 5.106-28.392l.69-8.66-2.861-1.55-2.861-1.55 2.679-.04c3.05-.046 5.821 2.266 5.821 4.857 0 3.017-3.012 23.405-4.078 27.603-1.51 5.95-3.047 9.5-4.11 9.5-.521 0-.694-.795-.386-1.768m-49.69-7.6c3.865-9.615 6.444-23.945 6.954-38.632.517-14.895-.35-21.31-2.948-21.811-1.975-.38-1.827-1.041-4.763 21.311-1.228 9.35-2.848 21.275-3.6 26.5s-1.37 11.67-1.373 14.323c-.005 3.991.286 4.768 1.683 4.498.991-.19 2.664-2.75 4.047-6.19m22.497-2.223-3.266-1.428.606-2.74a108 108 0 0 1 1.484-5.741c.482-1.65 1.358-6.15 1.946-10 1.458-9.54 1.833-10.5 4.1-10.5h1.967l-1.183 2.21c-1.173 2.192-4.854 21.36-4.876 25.387-.006 1.194.958 2.565 2.239 3.183 3.325 1.603.786 1.291-3.017-.371M718.5 686.316c-47.47-4.126-86.132-7.256-121.5-9.836-11.275-.823-28.6-2.15-38.5-2.948s-28.125-2.158-40.5-3.021c-35.478-2.476-47.957-4.335-40.486-6.033 1.642-.373 4.561-1.057 6.486-1.52s6.875-1.131 11-1.484 14.475-2.026 23-3.716c12.083-2.397 18.255-3.088 28-3.136 7.628-.037 13.295.384 14.54 1.081 1.122.629 3.778 2.735 5.903 4.68 2.684 2.46 5.417 3.848 8.96 4.554 7.802 1.555 43.627 3.038 90.097 3.73 30.27.45 44.898.285 52.378-.593 6.764-.794 10.719-.877 11.356-.24 1.528 1.528-1.082 15.014-3.343 17.275-1.04 1.04-2.228 1.815-2.641 1.723-.413-.093-2.55-.325-4.75-.516m6.52-5.354c.6-1.121.954-3.934.786-6.25l-.306-4.212-6.5.5c-8.945.688-102.913.15-111.25-.637l-6.75-.637v3.953l16.25 1.2c8.938.66 20.3 1.628 25.25 2.153 4.95.524 18.675 1.667 30.5 2.54s24.875 1.94 29 2.372 10.747.846 14.715.92l7.215.136zm44.158-7.712c-.49-.962-1.447-4.675-2.125-8.25-.679-3.575-2.324-9.633-3.656-13.461-2.776-7.976-9.815-20.157-12.47-21.578-2.789-1.493-6.463-1.137-8.146.789-.84.962-2.06 3.409-2.711 5.436-1.648 5.134-9.353 12.432-17.07 16.168l-6.5 3.146-24.317.342c-13.374.188-25.43.062-26.79-.28-1.361-.341-2.205-1.057-1.875-1.591.36-.583 10.27-.985 24.791-1.007 25.96-.038 32.005-.815 39.546-5.083 3.106-1.758 5.154-4.082 7.828-8.881 5.912-10.613 7.115-12 10.407-12 4.552 0 11.34 6.91 16.113 16.405 3.415 6.79 5.512 13.38 9.182 28.845.73 3.071-.798 3.763-2.207 1m-193.19-3c-.007-1.078-2.214-3.002-5.75-5.01-3.156-1.794-7.01-4.27-8.566-5.5l-2.829-2.24-13.171.11c-9.037.076-16.8.805-24.73 2.322-6.356 1.217-12.16 2.584-12.895 3.04-.736.454-1.1 1.446-.81 2.204.506 1.317 12.353 2.6 53.263 5.77 15.907 1.232 15.501 1.25 15.488-.696m224.49.714c-.352-.57-1.056-3.607-1.563-6.75-2.32-14.351-2.513-14.989-8.999-29.714-3.91-8.877-14.134-22.631-19.376-26.066-1.257-.823-4.88-1.92-8.051-2.436-8.987-1.462-11.64-4.837-13.4-17.04-2.174-15.079-7.09-29.594-13.724-40.522-4.226-6.96-9.825-13.25-17.976-20.195-4.116-3.507-22.944-13.143-30.527-15.624-15.424-5.046-37.283-9.053-58.094-10.648-11.047-.847-18.05-.84-28 .027-7.297.637-15.068 1.55-17.268 2.03-4.984 1.089-6.886-.43-2.342-1.87 7.519-2.383 17.229-3.397 33.342-3.481 17.325-.091 27.583.93 44.5 4.431 19.58 4.053 30.49 7.432 43.5 13.473 6.886 3.198 18.745 12.64 26.363 20.99 6.226 6.826 9.308 11.288 13.071 18.931 4.895 9.94 9.086 24.47 10.527 36.5.362 3.025 1.317 6.513 2.122 7.75 1.19 1.83 2.381 2.25 6.382 2.25h4.919l5.651 4.946c7.662 6.705 16.588 18.078 20.839 26.554 4.422 8.816 8.715 23.112 9.385 31.25.491 5.966.12 7.48-1.281 5.214m-413.24-5.655c-.693-.266-1.718-1.338-2.277-2.382-.764-1.427-.512-2.886 1.011-5.873 2.676-5.245 2.642-8.724-.092-9.592-3.119-.99-6.976 2.275-9.803 8.296-1.332 2.838-2.991 5.379-3.686 5.645-2.068.794-6.391-3.292-6.391-6.04 0-1.37.962-4.728 2.137-7.46 1.581-3.675 3.658-6.125 7.977-9.41 8.023-6.101 15.237-9.55 29.886-14.29 20.24-6.547 31.732-9.287 49.438-11.788 6.015-.85 11.753-1.982 12.75-2.515 2.447-1.31 2.326-5.971-.227-8.711L465.922 599h1.884c2.373 0 5.194 3.045 5.194 5.606 0 2.673-2.58 6.129-5.81 7.781-1.48.757-4.715 1.68-7.19 2.053-5.389.81-18.38 3.152-26 4.687-10.126 2.04-27.4 7.073-38.147 11.116-11.637 4.378-18.452 8.898-23.61 15.662-3.646 4.779-4.102 9.32-.997 9.909 1.192.226 2.731-1.253 4.85-4.661 1.824-2.935 4.325-5.5 6.067-6.22l2.964-1.228 2.687 1.998c1.477 1.099 2.826 2.935 2.997 4.08s-.392 3.44-1.25 5.1c-.859 1.66-1.561 3.94-1.561 5.067 0 1.666.64 2.05 3.411 2.05 1.877 0 7.164-1.622 11.75-3.605s11.264-4.742 14.839-6.132l6.5-2.529 31-.805c32.068-.834 42.547-1.989 54.101-5.964 8.01-2.755 11.91-5.657 14.841-11.04 2.856-5.243 6.348-7.336 9.953-5.965 2.946 1.12 5.605 4.744 5.605 7.64 0 3.528 2.26 4.52 9.556 4.198 7.378-.326 6.833.126 10.785-8.953 3.372-7.747 9.102-13.01 18.36-16.864 5.582-2.324 9.909-3.345 16.207-3.826l8.592-.655-.259-3.5c-.142-1.925-.531-6.808-.864-10.85l-.606-7.35 2.753-8.463c1.968-6.048 4.497-10.925 8.865-17.09 6.518-9.203 12.425-14.144 23.111-19.332 7.814-3.794 11.777-3.792 15.577.008 5.623 5.623 3.39 9.89-8.737 16.696-9.536 5.352-13.824 9.86-18.027 18.95-2.226 4.814-2.74 7.344-2.728 13.431.01 5.47.586 8.768 2.129 12.183 2.399 5.313 5.62 7.678 18.668 13.706 11.914 5.504 13.788 9.027 7.723 14.516l-2.08 1.882-17.262-1.78c-9.495-.98-22.243-1.99-28.33-2.246-8.657-.364-12.139-.1-16 1.21-2.713.92-5.767 2.428-6.785 3.349-2.67 2.414-4.648 6.641-4.648 9.93 0 5.644 4.947 7.207 7.014 2.216 1.553-3.75 5.5-6.966 8.548-6.966 2.875 0 6.438 4.392 6.438 7.935 0 3.4 1.682 5.065 5.118 5.065 3.544 0 6.014.978 5.317 2.105-.86 1.39-11.041 1.074-12.249-.38-.582-.702-1.2-3.514-1.372-6.25l-.314-4.975-3.154-.306c-2.364-.23-3.554.265-4.75 1.972-.878 1.254-1.596 3.214-1.596 4.357 0 2.521-1.796 4.477-4.111 4.477-2.265 0-6.553-5.192-7.373-8.93-.424-1.927-.058-4.233 1.038-6.543 1.24-2.613 3.466-4.565 8.32-7.297l6.626-3.73 13.5.124c11.763.108 33.353 2.092 42.5 3.905 1.9.377 3.725.058 4.977-.87 1.647-1.22 1.812-1.935.987-4.28-1.025-2.916-2.066-3.608-11.682-7.766-7.159-3.096-15.458-10.716-18.095-16.613-3.034-6.786-2.695-14.249 1.007-22.16 3.737-7.986 13.887-19.087 20.528-22.453 6.164-3.123 8.778-5.749 8.778-8.816 0-6.174-7.697-7.372-17.5-2.725-7.978 3.783-19.443 15.135-23.458 23.228-1.65 3.327-3.685 8.352-4.521 11.169-2.012 6.774-1.965 20.097.091 26.133.887 2.603 1.38 4.964 1.097 5.248s-4.046.725-8.362.98c-9.783.58-17.587 2.16-23.098 4.676-5.863 2.677-13.694 11.462-15.067 16.902-1.917 7.599-2.897 8.272-12.624 8.672-5.796.238-9.086-.047-10.08-.873-.88-.73-1.478-2.948-1.478-5.481 0-8.467-5.643-8.535-11.978-.145-5.853 7.752-14.387 11.868-31.59 15.239-5.556 1.088-16.468 1.696-36.432 2.03-19.816.33-30.329.912-34.501 1.91-3.301.789-11.176 3.618-17.5 6.288-12.276 5.18-15.755 6.255-17.76 5.487m-61.461-8.24c-9.801-.692-12.346-1.996-8.634-4.425 1.296-.849 4.382-1.83 6.857-2.18 2.475-.352 8.954-1.724 14.398-3.051 12.171-2.967 15.193-3.046 16.591-.434 1.24 2.319.384 6.782-1.778 9.271-1.251 1.44-3.046 1.722-10.116 1.592-4.727-.088-12.52-.436-17.318-.774m26.036-5.819.314-3.25h-2.514c-3.886 0-12.525 2.049-13.193 3.129-.328.532-.339 1.64-.023 2.463.452 1.178 2.12 1.434 7.839 1.202l7.264-.294zm262.43 3.086c-.69-.279-1.001-.918-.69-1.421.62-1.003 41.306-1.29 43.86-.31 4.465 1.713-1.565 2.387-20.722 2.316-11.655-.043-21.756-.307-22.447-.585M247 650.918c-17.93-1.141-30.08-2.961-30.709-4.601-.832-2.17 4.333-9.057 8.97-11.96 2.331-1.46 5.423-3.637 6.87-4.84 1.446-1.202 9.037-4.328 16.868-6.947l14.24-4.76 1.478 1.478c1.143 1.144 1.23 1.944.38 3.53-1.601 2.993-1.34 13.663.438 17.92.845 2.022 2.946 4.852 4.669 6.291 6.104 5.096 3.263 5.572-23.204 3.889m17.673-3.509c.336-.875-.184-3.237-1.154-5.25-.971-2.012-2.047-7.034-2.392-11.159l-.627-7.5-2.253-.32c-6.172-.876-26.23 7.75-32.997 14.191-4.498 4.281-5.722 8.55-2.5 8.722.963.052 9.175.658 18.25 1.348 23.427 1.781 22.977 1.782 23.673-.032m548.072-.969c-.827-1.617-1.84-4.515-2.25-6.44-.89-4.167-8.997-20.609-14.166-28.726-6.089-9.563-9.403-13.202-18.987-20.854l-9.157-7.31-2.13-5.695c-3.297-8.81-3.61-13.37-1.283-18.633 1.489-3.365 3.44-5.48 7.61-8.248 7.014-4.655 14.474-7.534 19.523-7.534 5.036 0 15.852 3.358 20.102 6.24 2.087 1.415 4.809 5.063 7.282 9.76l3.95 7.5-.53 16.5c-.437 13.65-2.611 37.857-5.265 58.615-.29 2.263-1.127 4.936-1.86 5.94l-1.336 1.826zm-515.122-5.682-1.876-1.416 1.282-3.545c1.697-4.694.784-6.797-2.95-6.797-2.075 0-3.534.785-4.782 2.572a114 114 0 0 1-3.861 5.135l-2.064 2.562-2.142-1.146c-2.814-1.506-4.346-7.12-3.137-11.498 1.032-3.738 5.949-10.352 10.094-13.58 1.478-1.15 5.528-3.417 9-5.038 7.405-3.456 35.635-12.065 51.197-15.613 5.987-1.365 12.107-3.114 13.602-3.887 3.035-1.57 7.866-6.77 11.454-12.33 1.305-2.022 3.666-5.193 5.248-7.047l2.875-3.37 8.969 4.479c13.73 6.856 20.656 8.946 31.522 9.512 8.087.421 9.815.237 11.25-1.198 2.356-2.356 2.198-7.214-.278-8.54-1.086-.58-5.33-1.481-9.434-2.001-16.22-2.057-32.218-9.686-43.952-20.96-4.323-4.154-9.585-10.077-11.692-13.162-4.535-6.639-7.436-14.753-8.72-24.39-.943-7.08-.155-19.312 1.623-25.165 1.173-3.863 5.642-14.567 8.073-19.335.982-1.925 3.431-8.764 5.443-15.198 4.886-15.622 9.44-27.397 11.145-28.812.765-.635 2.25-.883 3.298-.55s5.845 5.094 10.66 10.582c6.744 7.686 9.334 9.978 11.277 9.978 1.387 0 5.397-.53 8.91-1.177 5.042-.929 6.648-.914 7.616.07.972.99.726 1.658-1.187 3.221-1.758 1.436-2.615 1.648-3.15.781-.521-.842-2.664-.994-7.306-.519l-6.57.673-4.04-3.65c-2.221-2.006-5.458-5.839-7.193-8.516-3.455-5.332-6.635-7.883-9.827-7.883-2.582 0-4.006 3.205-10.899 24.52-2.842 8.789-6.917 19.58-9.056 23.98-2.14 4.4-4.43 10.515-5.09 13.59-1.587 7.383-.713 29.96 1.37 35.41 2.293 6.003 6.164 12.894 10.667 18.99 2.73 3.695 6.818 7.291 12.662 11.14 11.051 7.278 19.627 10.849 30.864 12.853 12.643 2.255 16.514 3.63 18.76 6.663 2.951 3.99 1.357 7.74-4.549 10.698l-4.68 2.345-7.275-1.202c-9.238-1.527-18.894-4.863-29.337-10.135-4.56-2.301-8.916-3.882-9.783-3.55-.86.33-2.596 2.145-3.859 4.034-7.944 11.883-10.478 15.109-13.14 16.728-1.643.999-5.275 2.328-8.071 2.954s-8.009 1.947-11.584 2.935-8.975 2.352-12 3.032c-8.227 1.849-34.381 10.668-39.839 13.433-2.628 1.332-6.175 3.726-7.882 5.322-3.384 3.16-5.792 10.08-4.835 13.894.885 3.526 4.231 3.031 6.595-.976 1.876-3.179 5.536-5.658 8.353-5.658.714 0 2.134.923 3.155 2.052 1.29 1.424 1.871 3.64 1.905 7.25l.048 5.198 4.238-.267c3.542-.223 17.43-4.13 45.517-12.808 2.615-.808 8.465-2.163 13-3.01 5.152-.964 12.184-3.355 18.745-6.373 5.775-2.657 14.775-6.184 20-7.84 21.021-6.658 55.764-12.838 58.242-10.36 1.275 1.275.893 1.36-18.594 4.174-24.936 3.6-47.733 9.978-62.843 17.584-4.136 2.082-12.927 4.892-23 7.353-8.968 2.19-22.83 6.05-30.805 8.578-16.308 5.169-24.461 6.428-27.377 4.227m517.855-8.008c.283-1.237 1.417-11.141 2.519-22.009 2.367-23.347 2.556-40.04.54-47.741-1.138-4.345-2.416-6.393-6.086-9.75-5.826-5.331-13.015-7.613-22.322-7.087-7.183.406-13.52 3.04-18.468 7.677-5.897 5.524-7.004 11.274-4.073 21.143l1.587 5.347 13.272 13.085c15.237 15.021 25.705 29.578 27.93 38.835.833 3.466 4.342 3.81 5.1.5m-600.331-13.087c-.536-.653-1.138-14.108-1.373-30.663l-.42-29.5-2.246-7.99c-2.922-10.392-7.473-18.81-12.492-23.107-2.214-1.894-6.676-4.411-9.917-5.593-5.463-1.992-7.81-4.032-6.335-5.508 2.477-2.476 105.4-17.85 152.649-22.802l6.512-.682 1.611 1.84c.886 1.014 1.907 4.587 2.27 7.942.875 8.094-.22 9.115-8.088 7.535-7.305-1.467-12.61-1.443-14.118.065-1.67 1.67-1.499 5.307.321 6.818.837.694 6.517 2.274 12.623 3.511s11.488 2.862 11.962 3.61c1.934 3.056.004 4.267-13.605 8.537l-8.999 2.824-.962 2.803c-1.276 3.713.285 6.11 4.236 6.505 1.691.17 7.835-1.319 13.653-3.307s11.004-3.351 11.524-3.03c1.202.743 9.482 11.604 10.98 14.403.893 1.67.675 3.606-1.042 9.26-1.194 3.932-3.358 8.476-4.808 10.1l-2.636 2.95-19.474 4.327c-25.672 5.704-44 10.488-57.473 15.003-25.294 8.476-47.517 16.923-55.2 20.981-6.005 3.172-8.455 4.02-9.153 3.168m12.03-6.753c7.867-3.97 19.741-8.532 42.93-16.49 22.453-7.706 41.081-12.874 66.33-18.403 10.415-2.28 19.706-4.558 20.646-5.062 1.714-.917 5.917-12.909 5.917-16.88 0-2.196-3.597-8.529-6.483-11.415-2.446-2.447-7.674-2.04-17.605 1.37-5.887 2.021-9.703 2.81-11.463 2.368-2.365-.594-6.436-5.508-6.445-7.78-.002-.485 1.56-2.357 3.472-4.16 2.049-1.932 6.157-4.171 10-5.45 9.692-3.225 8.671-5.582-3.463-7.997C323.066 521.43 321 519.79 321 515.06v-3.896l3.56-2.2 3.56-2.2 6.01 1.183c7.569 1.489 9.353.447 8.357-4.882-.366-1.96-1.13-4.127-1.699-4.814-1.224-1.48-6.346-1.602-13.854-.328-2.989.507-11.059 1.643-17.934 2.524-21.123 2.707-33.509 4.412-59.5 8.19-13.75 2-27.985 4.025-31.633 4.502s-10.848 1.681-16 2.676l-9.367 1.808-.306 2.087c-.22 1.5.925 2.97 4.081 5.237 4.806 3.451 10.386 10.316 13.455 16.554 5.697 11.58 7.285 22.855 7.277 51.667-.008 25.705-.345 25.052 10.17 19.743m281.812-51.292c-5.45-2.092-16.297-7.673-18.239-9.385-3.407-3.004-1.686-3.148 2.895-.243 5.683 3.604 19.556 9.004 23.19 9.027 3.878.024 14.439-11.522 18.766-20.517 3.467-7.208 7.399-20.76 7.399-25.505 0-2.827 2.676-5.99 5.079-6.003.781-.004 4.213-.856 7.624-1.894 5.033-1.53 6.525-1.652 7.903-.644 2.467 1.803.797 3.793-2.563 3.055-3.546-.778-11.489 1.208-13.37 3.344-.798.906-2.404 5.456-3.568 10.111s-3.426 11.26-5.025 14.678c-3.613 7.721-9.767 16.794-14.394 21.221-2.643 2.53-4.59 3.455-7.85 3.733-2.385.203-5.916-.237-7.847-.978m-85.995-9.552c-1.379-.42-3.945-1.507-5.704-2.416-2.12-1.096-5.316-1.598-9.493-1.49-4.7.121-7.35-.378-10.452-1.97-7.976-4.095-10.627-10.697-6.03-15.016 2.69-2.526 4.428-2.683 7.126-.642 1.068.807 3.205 1.468 4.75 1.468H406v-2.826c0-1.72-.977-3.743-2.5-5.174-1.375-1.292-2.5-3.335-2.5-4.54 0-1.204.933-3.376 2.073-4.825 1.657-2.107 2.922-2.635 6.318-2.635 2.335 0 6.553.685 9.373 1.522 5.386 1.6 9.236 5.234 9.236 8.719 0 1.083-1.125 3.307-2.5 4.941-4.023 4.78-2.901 9.818 2.186 9.818 1.257 0 4.304-.54 6.772-1.2l4.487-1.2 2.528 2.374c1.39 1.306 2.527 3.333 2.527 4.504 0 4.304-10.424 11.654-16.218 11.436-1.255-.047-3.41-.429-4.788-.848m13.582-4.653c4.822-2.357 6.716-6.55 4.129-9.137l-1.693-1.692-4.256 1.267c-8.146 2.426-8.76 2.455-10.893.525-1.137-1.03-2.72-3.13-3.515-4.67l-1.448-2.8 3.05-2.675c2.227-1.954 3.05-3.555 3.05-5.93 0-2.368-.681-3.701-2.5-4.893-3.287-2.154-14.928-3.128-16.984-1.421-2.3 1.909-1.832 4.386 1.484 7.856 1.65 1.726 3 3.943 3 4.925 0 .983-.7 2.787-1.557 4.01-1.807 2.58-5.96 2.903-8.884.69-1.068-.807-3.197-1.468-4.731-1.468-2.163 0-2.935.578-3.436 2.574-.9 3.585.932 7.024 4.815 9.04 1.83.95 6.563 1.92 10.657 2.186 4.05.263 9.45 1.297 12 2.298 5.625 2.208 12.323 1.95 17.712-.685m70.924-2.022c-12.304-3.685-13.223-3.803-15.904-2.046-3.102 2.032-3.596 2.057-3.596.18 0-.81 1.343-2.168 2.985-3.017 2.456-1.27 3.832-1.347 7.75-.432 2.62.612 6.88 1.773 9.463 2.581 3.535 1.106 5.206 1.197 6.75.37 2.513-1.344 2.655-3.635.302-4.891-.962-.514-5.51-1.389-10.108-1.943l-8.357-1.01-3.393-3.287c-3.364-3.26-4.316-6.207-2.392-7.396.562-.347 1 .449 1 1.819 0 1.34.604 2.938 1.343 3.55 1.559 1.295 12.618 3.76 20.837 4.645 7.875.849 8.682 2.2 4.55 7.617-1.828 2.398-3.978 4.45-4.777 4.558-.8.11-3.703-.475-6.453-1.298m5-22.052c-5.5-.784-12.439-1.25-15.42-1.036l-5.419.39 2.394-1.939c1.763-1.427 3.322-1.792 5.92-1.384 1.938.305 8.338.86 14.22 1.236l10.695.681.664-2.645c.365-1.456.466-9.283.224-17.394l-.44-14.748-3.23-9.5-3.228-9.5-.967-27c-.532-14.85-1.166-27.562-1.409-28.25-.802-2.27-5.719-1.302-10.9 2.147-2.807 1.869-8.156 6.706-11.887 10.75s-8.489 9.153-10.574 11.353-4.58 5.214-5.548 6.698c-1.822 2.798-9.454 6.384-11.772 5.53-.73-.268.694-1.376 3.177-2.471 2.475-1.092 6.182-3.733 8.237-5.87 12.612-13.115 30.391-30.17 33.16-31.812 1.86-1.103 3.984-1.643 4.97-1.264 3.588 1.376 4.4 6.474 5.525 34.689l1.098 27.5 3.15 9.5c2.588 7.804 3.236 11.588 3.627 21.198.262 6.433.164 13.778-.218 16.322-.632 4.217-3.444 8.654-5.299 8.362-.413-.065-5.25-.76-10.75-1.543m-60-2.944c-4.578-1.675-12.993-9.503-14.326-13.327-1.111-3.187-.166-5.85 3.177-8.956l2.57-2.387 2.909 1.204c1.599.663 4.405 2.75 6.235 4.638 2.533 2.614 4.157 3.433 6.802 3.433 1.911 0 6.336-1.394 9.832-3.097l6.357-3.097 2.516 1.65c3.145 2.06 4.775 6.026 3.476 8.454-1.138 2.127-6.26 6.13-10.9 8.52-3.536 1.821-11.953 4.59-13.648 4.489-.55-.033-2.8-.719-5-1.524m14.605-3.423c5.027-1.354 12.31-6.977 12.722-9.822.426-2.946-1.472-5.15-4.435-5.15-1.3 0-4.992 1.378-8.205 3.062-6.887 3.61-9.166 3.36-15.02-1.651-2.922-2.501-4.938-3.411-7.557-3.411-2.983 0-3.676.415-4.204 2.52-.763 3.039.966 7.561 3.924 10.266 1.194 1.09 3.97 2.94 6.17 4.11 4.199 2.233 8.521 2.253 16.605.076m-82.538-6.461c-2.164-.77-6.176-3.644-8.917-6.385-3.92-3.92-4.983-5.672-4.983-8.213 0-2.275.804-3.922 2.722-5.571 1.497-1.288 3.345-2.342 4.106-2.342s3.463 1.8 6.005 4 5.663 4 6.935 4 4.268-.69 6.657-1.533l4.344-1.532 2.532 1.881c3.651 2.713 3.818 6.754.425 10.296-2.527 2.637-11.776 6.95-14.68 6.844-.667-.024-2.983-.674-5.146-1.445M400 506.07c4.082-2.052 6.023-6.133 4.05-8.511-1.42-1.71-5.226-2.049-7.866-.698-4.77 2.44-6.746 2.132-12.098-1.89-2.908-2.184-6.052-3.972-6.986-3.972-2.622 0-4.1 2.071-4.1 5.745 0 4.013 3.112 7.481 9.256 10.317 3.222 1.486 5.448 1.815 9.244 1.363 2.75-.328 6.575-1.387 8.5-2.355m438.8-1.169c-.67-2.012 6.397-24.517 14.259-45.402 4.4-11.69 7.35-21.137 7.667-24.553l.516-5.554-2.535-2.946-2.535-2.947-49.836-.046-49.836-.047-18-2.189c-16.23-1.974-30.525-4.252-54-8.606-15.941-2.957-25.925-3.97-29.023-2.945-1.669.553-4.137 2.71-5.616 4.91-3.681 5.472-17.945 37.733-28.832 65.211-.717 1.809-2.03 3.66-2.916 4.114s-7.403 1.122-14.48 1.484c-15.214.778-36.279 3.693-48.685 6.735-6.724 1.65-9.215 1.903-10.25 1.043-.753-.624-1.912-3.054-2.576-5.4-.665-2.345-2.521-8.539-4.127-13.764-2.309-7.516-3.053-12.241-3.561-22.626-.423-8.633-.29-13.345.39-13.765.567-.35 1.254.156 1.524 1.126.271.971.8 8.259 1.175 16.195l.682 14.43 2.914 7.278c1.603 4.003 3.19 8.656 3.527 10.34.337 1.685.992 3.298 1.456 3.585s7.66-.875 15.992-2.582c16.809-3.444 36.649-5.932 47.534-5.961 4.476-.013 7.502-.485 8.135-1.27.554-.687 3.801-8 7.215-16.25s9.81-22.975 14.214-32.723c6.298-13.942 8.826-18.464 11.848-21.194 2.124-1.919 5.45-3.772 7.44-4.145 3.395-.637 16.52 1.359 43.52 6.617 5.225 1.018 13.1 2.306 17.5 2.864s11.375 1.446 15.5 1.973c18.812 2.404 47.509 3.367 82.029 2.754l35.528-.632 3.44 1.844c1.891 1.015 4.353 3.07 5.47 4.569 3.526 4.725 2.578 10.02-5.761 32.165-7.82 20.766-12.706 36.17-12.706 40.056 0 1.229.446 2.51.99 2.846.545.336 7.182-.737 14.75-2.385 18.904-4.118 31.036-5.733 32.447-4.322 1.297 1.297.17 1.595-12.187 3.222-6.888.907-21.024 3.792-37.635 7.68-1.237.29-2.316-.041-2.564-.787m57.827-9.608c-.388-.389.774-1.405 2.584-2.26l3.289-1.552.68-5.491c2.317-18.729 4.003-91.085 2.295-98.491-1.77-7.67-5.637-19.253-7.222-21.625-4.64-6.946-6.076-8.727-10.784-13.375-6.03-5.953-20.777-13.637-30.67-15.981-10.788-2.556-24.682-3.356-69.799-4.016-23.375-.342-43.53-.834-44.79-1.092s-2.022-.906-1.692-1.44c.746-1.207 28.478-1.201 69.982.014 31.727.93 40.79 1.955 51.5 5.828 3.025 1.094 6.625 2.243 8 2.554 2.382.538 7.28 3.918 16.86 11.633 5.286 4.257 12.34 13.473 16.267 21.251 4.884 9.677 5.935 18.087 5.904 47.249-.027 25.433-2.161 68.027-3.607 72-1.19 3.268-3.589 5.5-5.912 5.5-1.198 0-2.496-.318-2.885-.706M165.655 450.17 164 448.343V363.31l1.829-1.655c1.504-1.362 4.136-1.655 14.845-1.655h13.016l1.655 1.829 1.655 1.828v85.033l-1.829 1.655c-1.504 1.362-4.136 1.655-14.845 1.655H167.31zm27.145-2.37c1.724-1.724 1.724-81.876 0-83.6-.79-.79-5-1.2-12.3-1.2s-11.51.41-12.3 1.2c-1.724 1.724-1.724 81.876 0 83.6 1.65 1.65 22.95 1.65 24.6 0m257.933-1.711c-.558-2.137-1.1-2.45-6.219-3.584-4.788-1.06-.814-2.474 4.319-1.536 5.914 1.082 7.154 2.489 4.517 5.126l-2.073 2.072zm82.855-15.298c-.258-1.26-.975-8.141-1.594-15.291-.618-7.15-1.572-14.44-2.12-16.2s-2.56-4.573-4.47-6.25c-2.526-2.218-4.487-3.054-7.189-3.065-5.355-.022-17.236 6.401-24.567 13.281-8.642 8.111-8.955 8.422-16.436 16.317-3.692 3.896-7.655 7.587-8.808 8.203-1.68.897-3.566.597-9.5-1.51l-7.404-2.63-18.202-.073-18.202-.073-4.11-4c-2.262-2.2-5.02-5.463-6.132-7.252l-2.02-3.251 1.126-5.245c1.894-8.833 11.55-26.253 20.73-37.4 5.795-7.038 9.2-10.258 18.388-17.39 14.785-11.476 33.288-19.086 54.834-22.553l9.435-1.519 59.076 1.053c32.493.579 69.427 1.06 82.077 1.07 21.417.016 28.318.692 24.002 2.348-2.454.942-49.769.766-109.85-.408-55.356-1.081-65.072-.723-79.174 2.918-10.35 2.672-22.853 8.12-34.205 14.907-6.684 3.996-21.515 18.053-27.338 25.91-1.96 2.647-5.185 7.737-7.166 11.312-4.065 7.336-8.775 20.66-8.756 24.771.01 2.053 1.394 3.94 5.59 7.62l5.576 4.892 11.451-.685 11.452-.684 13.384 2.67c7.361 1.469 14.522 2.385 15.914 2.035s3.778-2.319 5.303-4.377c3.69-4.981 16.778-17.685 23.75-23.052 7.501-5.775 17.799-10.559 20.783-9.654 4.249 1.288 8.673 4.549 10.767 7.936 2.446 3.958 4.577 14.371 5.556 27.146.475 6.207.35 9.332-.391 9.79-.632.391-1.287-.288-1.56-1.617m146.656-100.455c-.691-.279-1.002-.918-.691-1.421.62-1.004 52.29-1.296 54.86-.31 4.656 1.787-2.143 2.387-26.222 2.316-14.68-.043-27.256-.307-27.947-.585M238.655 286.17 237 284.343V168.31l1.829-1.655c1.4-1.267 3.824-1.655 10.345-1.655 6.98 0 8.814.33 10.171 1.829l1.655 1.828-.015 56.922c-.009 31.306-.346 57.397-.75 57.979s-1.848 1.82-3.208 2.75c-1.752 1.2-4.545 1.692-9.595 1.692-5.63 0-7.469-.383-8.777-1.829m198-2L435 282.343V180.31l1.829-1.655c1.436-1.3 3.904-1.655 11.5-1.655H458l2.027 2.027 2.026 2.026-.276 50.37-.277 50.368-1.905 2.105L457.69 286H448c-8.118 0-9.959-.297-11.345-1.829m-178.897-56.559c.187-41.182-.054-57.263-.872-58.25-1.446-1.742-13.976-1.872-15.686-.162-.905.905-1.2 15-1.2 57.3 0 43.251.283 56.383 1.238 57.338.821.821 3.765 1.14 8.75.95l7.512-.288zm201.001 4.453c.204-39.686-.009-50.606-1-51.235-2.03-1.289-17.202-.987-18.559.37-.9.9-1.2 13.444-1.2 50.3 0 37.616.289 49.389 1.234 50.334.843.843 4.093 1.145 10.25.95l9.016-.284z"/><path fill="#D8C7AF" fill-rule="evenodd" d="M152.647 864.524c-.357-.933-.267-2.381.202-3.22l.853-1.523.65 1.695c.358.933.268 2.381-.201 3.22l-.853 1.523zM85.64 587.502c-.93-2.422-.754-13.772.237-15.336 1.323-2.086 2.126 1.027 2.109 8.166-.017 6.592-1.19 10.18-2.346 7.17m866.82-114.804c-.372-1.484-.372-3.912 0-5.396.531-2.115.875-2.385 1.593-1.25.504.796.916 2.573.916 3.948s-.412 3.152-.916 3.948c-.718 1.135-1.062.865-1.593-1.25m1-35c-.372-1.484-.372-3.912 0-5.396.531-2.115.875-2.385 1.593-1.25.504.796.916 2.573.916 3.948s-.412 3.152-.916 3.948c-.718 1.135-1.062.865-1.593-1.25M565.075 116.047c-.958-.593-.917-.894.182-1.315.783-.301 1.984-.201 2.668.221.958.593.917.894-.182 1.315-.783.301-1.984.201-2.668-.221M251.166 87.124c-1.064-.675-.997-.975.332-1.485 2.381-.914 360.605-.654 362.948.263l1.947.762-2.447.654c-3.659.98-361.231.787-362.78-.194"/><path fill="#BDAC91" fill-rule="evenodd" d="M0 512V0h1024v1024H0zm746.556 437.96c3.27-1.121 7.716-3.261 9.88-4.755 6.533-4.506 13.915-14.094 17.524-22.76 3.988-9.576 5.846-20.91 4.27-26.046-.83-2.704-.761-4.516.29-7.716.756-2.3 1.882-6.776 2.502-9.945 1.314-6.718 4.43-10.909 10.354-13.927 4.983-2.539 24.088-13.781 31.406-18.481 2.905-1.866 6.505-3.621 8-3.9 3.939-.736 8.709 2.634 10.986 7.761 1.096 2.466 4.728 6.936 8.495 10.451 5.18 4.836 8.001 6.616 13.259 8.365 5.522 1.838 8.294 2.152 16.005 1.815l9.326-.408 7.62-3.868c8.748-4.44 15.508-11.186 19.777-19.738 2.153-4.312 2.75-6.919 2.75-12.009 0-3.575.479-7.875 1.064-9.554.766-2.195.744-4.244-.077-7.292-.627-2.33-1.136-9.236-1.13-15.346.013-12.977 1.148-16.518 7.523-23.46 6.683-7.277 12.243-15.966 15.58-24.343 1.684-4.233 3.346-9.757 3.691-12.277.346-2.52 1.015-4.82 1.489-5.113.473-.293.86-2.122.86-4.065 0-2.047.862-4.629 2.047-6.136 1.69-2.149 2.014-3.874 1.855-9.88-.123-4.647.263-7.827 1.068-8.796.848-1.022 1.041-2.976.592-5.975-.485-3.23-.218-5.327.97-7.625.902-1.744 1.426-3.989 1.165-4.99-.262-1 .09-2.634.783-3.632 1.714-2.47 2.438-7.73 2.935-21.315.231-6.325.907-13.072 1.503-14.993s1.082-5.198 1.082-7.28c0-2.083 1.2-6.586 2.669-10.007l2.669-6.22.438-12.5.753-21.5c.172-4.95 1.056-11.18 1.964-13.843s1.43-5.418 1.16-6.12.413-2.76 1.516-4.574c1.582-2.601 1.87-4.268 1.363-7.88-.354-2.521-.643-6.383-.644-8.583-.001-6.872-2.004-23.732-3.557-29.942-2.021-8.087-6.243-17.118-13.031-27.875l-5.69-9.017.244-10.583c.134-5.82.723-12.488 1.31-14.816.585-2.328.77-5.8.411-7.717s-.78-18.911-.936-37.767l-.283-34.283-2.198-8.5c-2.952-11.413-6.381-19.894-11.928-29.5-3.27-5.662-7.704-11.071-15.175-18.51-5.805-5.78-12.58-12.125-15.055-14.102l-4.5-3.593-.548-57.398-.548-57.397-1.785-8c-.982-4.4-2.687-10.69-3.789-13.976-2.803-8.36-9.214-20.906-14.388-28.157-5.043-7.068-19.413-21.453-27.437-27.466-7.599-5.695-27.69-15.311-38.505-18.43-19.555-5.638-8.12-5.402-293.5-6.06-269.817-.624-305.79-.28-324 3.1-18.29 3.395-37.88 11.664-51.6 21.78-7.898 5.824-20.415 18.47-25.924 26.191-6.014 8.427-14.772 27.074-17.623 37.518l-2.32 8.5-.516 169.5-.517 169.5-3.819 9.5c-5.397 13.425-7.622 23.601-8.31 38-1.205 25.238 5.457 94.235 15.188 157.294 5.748 37.248 10.6 53.115 20.982 68.605 2.727 4.07 5.97 9.245 7.208 11.5 2.689 4.904 7.234 9.109 17.05 15.773 4.014 2.725 7.67 5.939 8.124 7.141.454 1.203.389 5.112-.145 8.687s-1.015 12.8-1.07 20.5c-.074 10.598.286 14.972 1.483 18 3.507 8.869 6.08 15.125 7.165 17.415 1.62 3.421 12.865 11.772 17.904 13.296 2.417.73 9.185 1.272 15.74 1.26l11.5-.024 7.605-3.691c5.597-2.717 9.163-5.359 13.5-10 3.242-3.47 7.333-9.014 9.09-12.319s5.248-11.593 7.757-18.417c2.51-6.824 5.487-13.39 6.616-14.593 1.13-1.202 3.675-2.448 5.658-2.77 3.014-.49 43.935 2.96 87.274 7.355 38.993 3.954 51.902 5.201 62.5 6.036 6.6.52 15.825 1.398 20.5 1.95 12.197 1.44 44.38 4.715 74.5 7.579 14.3 1.36 30.275 2.881 35.5 3.38s17.6 1.622 27.5 2.493c9.9.872 24.3 2.235 32 3.03s24.125 2.356 36.5 3.472c12.375 1.115 26.816 2.433 32.092 2.93 10.344.974 15.49 2.931 16.862 6.416.478 1.211 1.585 6.252 2.461 11.202 1.12 6.326 2.904 11.674 6.006 18 2.427 4.95 4.698 9.987 5.046 11.194s3.374 4.569 6.724 7.472c7.896 6.84 16.076 9.772 27.365 9.808 5.555.018 9.9-.607 14-2.014"/><path fill="#F9A63A" fill-rule="evenodd" d="M706 841.806c-4.462-1.228-8.64-5.184-10.078-9.542-2.075-6.288 1.673-15.525 11.018-27.152 1.94-2.414 7.315-8.264 11.945-13 10.74-10.987 25.665-28.876 30.548-36.612 2.083-3.3 4.716-7.012 5.85-8.249l2.063-2.248 1.582 1.431c1.795 1.625 16.694 8.626 22.278 10.47 2.721.897 4.236.93 5.745.122 1.519-.813 2.049-.796 2.049.065 0 .639-2.248 5.32-4.996 10.402-8.48 15.684-23.92 35.268-41.004 52.01-13.127 12.864-17.921 16.85-23.83 19.815-6.214 3.118-8.982 3.641-13.17 2.488m-42-4.423a5463 5463 0 0 0-20-1.91c-9.075-.854-30.9-2.934-48.5-4.62-17.6-1.687-39.2-3.674-48-4.415-22.31-1.88-56.635-5.21-71.5-6.938-6.875-.8-19.025-1.94-27-2.535s-15.4-1.278-16.5-1.517-12.575-1.335-25.5-2.437-27.1-2.443-31.5-2.981-14.075-1.456-21.5-2.038c-7.425-.583-21.375-1.91-31-2.948s-23.8-2.421-31.5-3.073-17.825-1.583-22.5-2.068-15.7-1.383-24.5-1.995c-18.822-1.31-21.284-2.24-23.172-8.759-.953-3.294-1.01-8.92-.247-24.463 1.004-20.42 1.92-26.655 4.176-28.432 2.423-1.908 6.94-2.303 15.04-1.318 4.512.549 15.403 1.71 24.203 2.582s19.15 2.018 23 2.547 11.95 1.383 18 1.898c20.081 1.71 34.902 3.106 43.5 4.1 4.675.54 13.45 1.418 19.5 1.952s15.05 1.424 20 1.977c10.136 1.134 36.957 3.61 55 5.077 6.6.536 23.25 2.075 37 3.419 44.117 4.311 54.3 5.252 81 7.479 27.593 2.301 48.846 4.145 58.5 5.074 17.227 1.658 30.308 2.761 53 4.468 23.243 1.748 30.73 2.841 33.545 4.9l1.807 1.322-7.066 6.884c-7.609 7.414-15.12 17.166-18.782 24.385-1.256 2.475-3 8.3-3.876 12.946s-2.163 9-2.86 9.677c-1.499 1.455-6.864 2.257-11.768 1.76m128.667-33.05c-1.345-1.344-.584-3.962 2.77-9.523 3.045-5.051 5.75-10.957 14.108-30.81 1.274-3.025 2.612-6.85 2.974-8.5s1.288-5.025 2.056-7.5c.77-2.475 2.782-11.7 4.472-20.5 3.06-15.93 3.41-18.072 6.374-39a1998 1998 0 0 1 3.025-20.5c1.548-10.02 6.962-50.913 8.871-67 .62-5.225 1.09-15.833 1.046-23.573-.068-11.679-.456-15.196-2.28-20.68-1.21-3.635-3.542-8.461-5.183-10.726-1.64-2.265-5.777-5.887-9.192-8.05-8.595-5.441-8.898-5.748-7.775-7.847.652-1.217 5.151-2.926 14.26-5.414 28.905-7.898 60.003-14.71 67.146-14.71 7.563 0 15.384 1.8 19.723 4.539 11.804 7.452 15.7 22.195 12.991 49.156-1.57 15.633-6.53 54.424-9.115 71.305-1.138 7.425-2.502 17.1-3.032 21.5s-2.132 14.75-3.56 23-2.967 17.16-3.419 19.798c-1.993 11.637-5.426 22.886-9.638 31.583-3.385 6.99-6.315 11.245-11.489 16.692-7.009 7.38-23.987 19.546-34.8 24.94-3.025 1.509-6.683 3.578-8.129 4.597s-8.969 5.24-16.718 9.378-18.253 9.997-23.342 13.018c-5.09 3.022-9.754 5.494-10.366 5.494-.611 0-1.412-.3-1.778-.667M198 792.334c-1.375-.216-5.65-1.112-9.5-1.99-17.676-4.032-28.981-14.911-35.666-34.322-3.837-11.14-8.492-35.61-11.797-62.022a4080 4080 0 0 0-3.537-27.5c-.81-6.05-1.927-15.95-2.484-22s-1.468-15.5-2.023-21-1.294-19.45-1.642-31c-.737-24.462.173-31.977 5.125-42.31 3.835-8.003 9.062-13.656 15.091-16.323 5.51-2.437 14.871-3.378 19.933-2.003 6.77 1.839 15.007 7.693 18.514 13.158 7.982 12.439 9.467 27.577 8.53 86.978-.74 46.938.339 78.617 2.927 85.931.863 2.438 2.72 5.943 4.13 7.79s2.94 4.676 3.401 6.287c.464 1.618.424 7.528-.09 13.21-.51 5.655-1.303 18.11-1.76 27.678l-.832 17.397-1.85 1.353c-1.02.745-2.329 1.293-2.911 1.218a181 181 0 0 1-3.559-.53m495.5-29.867c-.55-.206-12.25-1.297-26-2.423s-32.2-2.713-41-3.526-24.775-2.18-35.5-3.04c-24.8-1.987-101.462-8.789-136-12.067-14.575-1.383-33.925-3.16-43-3.948s-19.65-1.868-23.5-2.4c-3.85-.53-9.7-1.205-13-1.497s-12.75-1.197-21-2.01c-8.25-.814-20.175-1.957-26.5-2.541s-15.1-1.496-19.5-2.025c-4.4-.53-14.525-1.645-22.5-2.478s-17.875-1.964-22-2.513c-4.125-.55-13.8-1.703-21.5-2.563-15.463-1.727-22.355-3.513-25.049-6.49-.98-1.084-2.6-5.228-3.6-9.208-1.366-5.44-1.817-11.088-1.82-22.738-.002-16.926.793-20.247 4.994-20.863 1.361-.2 9.225.347 17.475 1.213 13.941 1.465 31.222 2.646 90 6.152 12.65.755 25.02 1.7 27.49 2.101s6.846 2.236 9.724 4.077 8.058 4.074 11.51 4.96c8.326 2.14 19.727 1.315 30.276-2.19 6.279-2.087 9.86-2.648 16.649-2.608 4.757.029 13.532.532 19.5 1.118 36.626 3.598 52.969 5.016 87.351 7.58 10.725.8 24.675 1.895 31 2.433 6.325.539 19.6 1.463 29.5 2.055 20.928 1.25 49.264 3.392 72 5.443 8.8.794 24.775 2.155 35.5 3.025s21.39 2.067 23.7 2.659c6.596 1.691 7.321 3.061 6.278 11.85-.49 4.123-1.627 14.02-2.529 21.995-2.301 20.368-3.219 24.573-6.11 28.01l-2.517 2.99-9.66-.079c-5.315-.043-10.112-.248-10.662-.454m97.985-16.113.656-4.145-2.32-2.167c-2.495-2.329-20.05-11.042-22.249-11.042-.73 0-1.913-.705-2.628-1.566-1.015-1.223-1.05-2.262-.157-4.75.628-1.751 1.867-7.459 2.754-12.684.886-5.225 2.219-10.447 2.962-11.604 1-1.557 2.815-2.276 6.984-2.766 3.099-.364 9.89-.363 15.091.003l9.458.665.595 2.373c.784 3.123-.304 13.435-2.725 25.829-2.05 10.502-5.285 20.627-7.665 24l-1.412 2zm-56.141-1.9c-.915-2.385.04-11.173 5.704-52.454 1.094-7.975 2.42-16.925 2.947-19.89.989-5.563 3.275-10.11 5.084-10.11.569 0 2.007 2.138 3.196 4.75l2.163 4.75.031 15c.025 12.162-.412 16.986-2.313 25.5-2.752 12.328-5.34 20.152-9.324 28.18-2.082 4.196-3.447 5.82-4.891 5.82-1.102 0-2.27-.696-2.597-1.546M707 685.45c-6.875-.706-19.25-1.79-27.5-2.41s-22.65-1.77-32-2.556c-9.35-.785-38.375-3.023-64.5-4.973-63.196-4.716-81.391-6.33-84.448-7.492-2.846-1.082-3.301-3.153-1.096-4.984 2.19-1.817 33.679-7.926 44.694-8.67 12.447-.843 17.47.417 24.88 6.238l5.726 4.5 9.372.902c12.922 1.245 31.225 1.821 81.372 2.561 26.674.394 46.607.251 52.5-.375l9.5-1.01 1.853 1.658c1.5 1.34 1.768 2.69 1.404 7.076-.376 4.53-.97 5.885-3.619 8.252-1.743 1.558-3.725 2.772-4.404 2.7-.679-.073-6.859-.71-13.734-1.417m93.58-8.2c-.502-1.582-1.816-2.233-5.536-2.745-5.158-.71-13.924.007-20.49 1.675l-3.947 1.002-1.304-1.783c-.716-.98-1.303-2.997-1.303-4.482 0-5.253-5.157-22.506-8.644-28.918-1.944-3.575-4.953-7.983-6.686-9.795-2.416-2.528-3.845-3.227-6.128-3l-2.978.295-4.825 8.232c-5.853 9.984-10.684 13.677-21.614 16.52l-7.625 1.983-49-.67c-26.95-.367-51.925-1.118-55.5-1.668s-7.113-1.605-7.861-2.345c-.749-.74-1.594-3.405-1.877-5.922-.373-3.31-1.034-4.74-2.389-5.17-3.368-1.07-5.7.522-7.439 5.073-.932 2.441-2.332 4.967-3.11 5.614-1.112.922-1.998.744-4.12-.826-1.487-1.1-3.252-3.117-3.923-4.482-1.71-3.482.096-9.418 4.072-13.382 1.73-1.726 5.847-4.152 9.147-5.392 4.482-1.684 8.024-2.238 14-2.191 4.4.035 10.25.485 13 1 2.75.517 11.66 1.505 19.8 2.196l14.8 1.258 1.58-1.58c1.026-1.026 1.362-2.445.958-4.054-.49-1.956-2.305-3.18-8.645-5.834-4.413-1.848-10.155-4.935-12.759-6.86-5.937-4.39-10.386-12.717-10.52-19.693-.23-11.964 7.553-25.25 19.502-33.289 3.693-2.485 8.107-5.3 9.808-6.255l3.092-1.737-.308-4.263-.308-4.263-6 .018c-6.784.02-11.986 2.163-19.942 8.22-5.711 4.347-15.384 17.321-17.972 24.105-.977 2.561-2.022 8.608-2.322 13.437-.412 6.638-.113 10.374 1.226 15.32 1.287 4.755 1.47 6.84.67 7.64-.638.638-5.41 1.152-11.38 1.225-8.29.1-11.527.6-16.724 2.58-8.992 3.426-14.042 8.549-17.522 17.773-3.188 8.45-4.306 9.182-14.028 9.182-7.444 0-9.2-1.23-10.14-7.107-.65-4.076-2.58-5.893-6.258-5.893-1.326 0-2.889 1.477-4.533 4.281-4.626 7.895-9.343 11.115-21.075 14.391-13.122 3.664-21.533 4.527-51.5 5.286l-30.5.773-6 2.072c-3.3 1.14-9.375 3.635-13.5 5.545s-9.205 3.793-11.29 4.182c-2.93.547-4.235.305-5.75-1.066-2.369-2.144-2.495-4.719-.387-7.935.865-1.32 1.427-3.666 1.25-5.214-.254-2.211-.9-2.882-3.012-3.126-3.06-.353-4.54.988-9.175 8.311-3.904 6.17-6.452 6.578-8.44 1.354l-1.388-3.646 1.61-3.393c2.53-5.333 7.332-10.594 12.95-14.188 7.53-4.816 20.444-10.088 34.132-13.933 15.965-4.484 37.256-9.131 46.649-10.181 6.55-.732 9.166-2.896 8.676-7.175l-.325-2.838-11.939.18c-12.756.193-18.43.961-36.561 4.95-14.029 3.087-29.337 8.168-42 13.94-5.225 2.381-11.525 4.624-14 4.984-4.383.638-40.28 10.461-45.548 12.464-1.45.552-6.052 1.897-10.224 2.99l-7.586 1.987-2.372-1.554-2.373-1.554.302-5.694.301-5.693-3.2-.31-3.199-.31-2.054 4.027c-1.13 2.214-2.995 4.53-4.145 5.145-1.724.923-2.503.732-4.444-1.092-3.608-3.389-3.993-7.167-1.285-12.612 3.197-6.428 7.244-10.207 14.418-13.46 12.385-5.619 22.686-8.879 51.45-16.284 9.317-2.399 18-5.055 19.294-5.904 1.294-.848 5.373-6.078 9.063-11.621 3.803-5.712 7.397-10.079 8.296-10.079.871 0 3.725 1.317 6.34 2.926 9.603 5.909 24.636 10.788 35.966 11.674 8.477.662 11.385-.768 11.806-5.808.373-4.45-.874-5.27-9.306-6.122-3.3-.333-9.629-1.696-14.063-3.03-21.508-6.464-38.443-19.699-47.135-36.835-4.536-8.943-6.358-16.834-6.42-27.805-.06-10.81 1.892-18.73 7.473-30.327 3.317-6.892 8.645-21.537 8.645-23.761 0-.59 1.066-3.848 2.368-7.241a710 710 0 0 0 4.076-10.905c.94-2.603 2.5-5.711 3.468-6.906l1.76-2.173 4.146 2.331c2.28 1.282 5.352 4.165 6.825 6.406 1.473 2.242 4.274 6.036 6.225 8.433l3.548 4.356 5.542-.656c3.048-.361 6.667-.587 8.042-.501s4.075.071 6-.031 7.377-.192 12.116-.2c9.034-.015 14.884 1.815 14.884 4.658 0 .787-2.025 5.27-4.5 9.963-2.859 5.42-4.5 9.813-4.5 12.043V470h2.927c2.14 0 3.719-.96 5.87-3.569 2.975-3.61 8.203-15.53 8.203-18.706 0-.949.337-1.748.75-1.776.413-.027 2.95-.16 5.64-.295l4.89-.246 3.11-3.584c1.71-1.972 5.973-6.901 9.473-10.954 11.386-13.188 26.11-24.648 30.057-23.395 1.026.325 2.38 1.835 3.01 3.354.678 1.638 1.496 13.937 2.01 30.217l.867 27.454 2.634 7.906c1.448 4.348 3.36 12.201 4.247 17.452 1.289 7.632 1.406 11.11.585 17.334-.566 4.282-1.769 8.916-2.674 10.297-1.914 2.92-3.326 3.03-18.695 1.453-5.669-.582-11.342-.798-12.606-.48-1.855.465-2.298 1.257-2.298 4.108v3.532l3.468 1.449c1.907.797 4.945 1.465 6.75 1.485 4.73.051 14.88 2.633 16.425 4.178 1.092 1.093.984 1.87-.631 4.526-2.278 3.745-6.043 4.998-10.413 3.466-1.704-.598-5.878-1.647-9.274-2.331-5.027-1.013-6.468-1.001-7.75.063-1.652 1.37-2.003 3.784-.95 6.53 1.373 3.576 23.074 12.326 27.695 11.167 5.145-1.292 14.89-14.027 19.613-25.634 1.558-3.83 3.399-9.96 4.09-13.623 1.644-8.711 4.493-11.944 12.318-13.973l5.842-1.515 2.37 1.552c2.337 1.532 3.024 3.407 5.339 14.558 3.187 15.357 4.113 20.89 4.184 25 .043 2.475.62 6.3 1.283 8.5l1.205 4h7.927l1.35-4c.974-2.888 1.176-6.842.725-14.22-.624-10.198-4.518-28.296-7.22-33.56-.785-1.528-1.168-3.199-.85-3.712.943-1.528 7.23-2.907 20.914-4.587 10.855-1.334 15.39-1.407 28.5-.464 32.413 2.334 59.555 8.997 79.09 19.417 13.85 7.387 25.732 18.616 33.803 31.944 4.609 7.61 10.568 25.218 12.75 37.672 2.117 12.09 3.673 14.379 10.537 15.502 2.425.396 6.12 1.668 8.208 2.826 5.85 3.241 16.592 17.564 22.637 30.182 5.355 11.177 7.33 17.945 9.233 31.634.708 5.094.73 8.226.066 9.413l-.996 1.779zM328.723 656.5c-5.167-1.229-6.066-3.78-2.035-5.778 4.003-1.983 22.499-5.943 25.93-5.551l2.882.329-.11 3.713c-.062 2.042-.884 4.892-1.828 6.332l-1.716 2.62-9.458-.333c-5.203-.182-11.351-.782-13.665-1.332M245 650.936c-17.682-1.25-25.244-2.55-26.743-4.599-.691-.945-1.257-2.11-1.257-2.588s2.257-3.256 5.016-6.173c3.558-3.761 7.557-6.546 13.75-9.573 9.539-4.662 19.243-7.983 23.362-7.995 1.445-.005 3.08.554 3.634 1.242s1.195 5.366 1.425 10.397l.42 9.148 2.65 3.475c2.175 2.852 2.435 3.77 1.447 5.12-1.61 2.201-8.28 2.637-23.704 1.546m566.646-10.945c-1.455-1.73-2.646-3.992-2.646-5.027 0-3.13-8.427-18.492-14.475-26.39-3.126-4.08-8.91-10.265-12.854-13.744-12.907-11.384-14.417-13.263-16.628-20.684-1.123-3.774-2.043-7.615-2.043-8.536 0-2.896 2.625-8.114 6.038-12 1.809-2.06 6.028-5.159 9.375-6.886 5.095-2.627 7.228-3.143 13.087-3.163 3.85-.014 8.8.524 11 1.195 6.13 1.87 13.663 8.066 16.322 13.425 3.679 7.411 5.391 16.316 4.677 24.319-1.28 14.343-4.58 46.198-5.365 51.804-.448 3.193-1.495 6.486-2.328 7.318l-1.514 1.514zm-596.548-24.14c-.665-1.907-1.11-11.868-1.13-25.25-.033-23.098-1.493-38.095-4.395-45.133-.9-2.182-3.501-6.738-5.782-10.122-2.87-4.262-6.079-7.426-10.433-10.289-3.458-2.273-6.514-4.5-6.79-4.948-.277-.448.072-1.602.777-2.566.885-1.21 5.009-2.477 13.367-4.106 6.648-1.296 15.395-2.796 19.438-3.334s15-2.137 24.35-3.553c22.69-3.436 45.308-6.588 54.5-7.596 4.125-.452 12-1.504 17.5-2.337s13.15-1.81 17-2.17l7-.656 1.651 1.854c.908 1.02 2.13 3.623 2.718 5.784.804 2.957.758 4.565-.186 6.5l-1.255 2.571-8.805-.297c-5.665-.19-9.308.12-10.214.873-2.004 1.663-1.784 6.663.341 7.746.962.49 4.675 1.43 8.25 2.089 9.058 1.668 12.487 2.865 14.463 5.048l1.705 1.885-2.334 1.465c-1.284.806-4.809 2.027-7.834 2.713-9.357 2.12-15 5.67-15 9.433 0 2.87 1.84 4.545 4.99 4.545 1.424 0 7.018-1.384 12.43-3.076 5.588-1.747 10.833-2.826 12.139-2.499 1.264.318 4.783 3.775 7.82 7.683l5.522 7.107-2.971 8.14c-1.634 4.477-3.981 9.15-5.216 10.385-1.745 1.746-6.688 3.245-22.23 6.743-31.038 6.986-54.416 13.544-72.984 20.47-2.75 1.027-8.375 3.093-12.5 4.592-13.524 4.916-22.431 8.605-26.678 11.05-5.723 3.294-7.877 3.12-9.224-.744m218.587-66.915c3.772-1.425 8.315-5.875 8.315-8.145 0-1.008-1.098-2.334-2.44-2.945-1.907-.87-3.327-.756-6.52.521-2.244.898-4.721 1.633-5.504 1.633-1.976 0-6.248-4.057-6.986-6.636-.419-1.46.188-3.088 1.919-5.144 1.51-1.795 2.531-4.252 2.531-6.091 0-4.708-3.569-6.531-12.889-6.585l-7.611-.044-.298 3.039c-.208 2.126.476 3.929 2.277 6 1.743 2.004 2.486 3.898 2.298 5.86-.391 4.096-2.892 5.41-7.002 3.68-1.801-.76-4.85-1.425-6.775-1.48l-3.5-.099-.327 2.864c-.476 4.156 3.81 8.252 10.026 9.585 2.71.582 5.971.795 7.246.475 1.31-.328 4.435.288 7.187 1.419 2.677 1.1 5.543 2.225 6.368 2.5 2.686.894 8.805.681 11.685-.407m35.323-32.71c8.96-3.87 13.247-9.571 9.792-13.026-1.875-1.875-4.56-1.442-11.177 1.8l-6.123 3-3.5-1.01c-1.925-.556-5.237-2.581-7.36-4.5s-4.563-3.49-5.422-3.49c-2.502 0-5.22 3.091-5.193 5.905.03 3.098 6.75 10.625 11.359 12.721 3.952 1.798 11.628 1.188 17.624-1.4m-70.726-9.588c4.319-1.828 6.95-4.965 6.548-7.806-.28-1.973-.869-2.308-3.83-2.173-1.925.087-5.579.476-8.12.865l-4.619.707-4.076-3.683c-3.266-2.95-4.734-3.62-7.38-3.365l-3.305.317-.301 4.124-.302 4.124 5.182 4.126 5.182 4.126h5.902c3.246 0 7.35-.613 9.12-1.362m442.528-3.308-1.644-1.83 4.707-15.5c2.59-8.525 5.538-17.525 6.553-20 9.01-21.975 11.937-33.285 9.953-38.455-.342-.89-1.893-2.276-3.447-3.08-2.399-1.24-8.457-1.362-40.129-.807-55.018.964-73.11-.503-126.803-10.279a15508 15508 0 0 0-19-3.45c-2.475-.445-6.828-.837-9.673-.87-7.562-.087-10.348 2.699-17.412 17.41-6.489 13.513-16.934 37.752-20.434 47.42-1.273 3.513-3.188 7.262-4.257 8.331l-1.943 1.943-17.89 1.391c-19.273 1.498-23.31 2.084-42.284 6.131l-12.393 2.644-1.357-1.856c-.746-1.02-1.357-3.134-1.357-4.696 0-1.563-1.311-6.315-2.913-10.56-1.603-4.244-3.158-8.617-3.456-9.717-.297-1.1-1.035-11.225-1.638-22.5-1.402-26.205-3.404-43.96-5.389-47.799-2.369-4.58-6.291-7.201-10.779-7.201-8.13 0-18.407 7.223-36.022 25.315l-12.697 13.041-10.803-2.393c-8.165-1.81-13.734-2.387-22.803-2.364-6.6.016-13.261.353-14.803.748l-2.803.718-6.558-6.283c-3.607-3.455-6.964-7.338-7.46-8.629-.671-1.75-.106-4.671 2.225-11.5 1.718-5.034 4.726-12.036 6.685-15.56 4.584-8.245 13.36-19.13 21.767-26.994 7.628-7.135 21.641-16.517 28.947-19.378 13.584-5.321 20.768-7.637 29-9.35 7.224-1.502 13.243-1.863 30.5-1.83 29.946.058 135.36 1.31 165.5 1.967 13.75.3 51.325 1.002 83.5 1.562s62.536 1.463 67.469 2.008c12.729 1.406 23.705 4.434 33.531 9.248 6.622 3.245 10.3 5.95 16.648 12.246 8.842 8.769 12.638 15.107 16.13 26.928 4.015 13.587 4.593 23.877 3.274 58.321-1.154 30.123-2.99 52.652-4.49 55.08-1.56 2.523-6.66 3.858-17.062 4.466-9.105.533-20.43 2.463-42.523 7.246-1.701.368-3.058-.05-4.167-1.283m-414.332-38.951c2.565-2.565 9.522-17.073 9.522-19.857V442h-8.916l-3.542 7.19c-2.569 5.214-3.542 8.512-3.542 12V466h2.429c1.335 0 3.158-.73 4.05-1.621M169 451.16c-1.375-.41-3.026-1.85-3.67-3.202-.813-1.711-1.256-14.307-1.455-41.458-.311-42.39-.113-44.157 5.125-45.608 1.375-.381 6.55-.693 11.5-.693s10.125.312 11.5.693c4.62 1.28 5.074 4.053 5.617 34.36.597 33.22-.424 51.984-2.966 54.525-1.347 1.348-3.879 1.737-12.422 1.91-5.9.12-11.854-.117-13.229-.527m73.188-163.874c-1.271-.243-3.182-1.869-4.246-3.614l-1.935-3.172-.003-54.694-.004-54.694 2.413-2.806 2.414-2.806h8.05c6.396 0 8.419.367 9.837 1.786l1.786 1.785v116.09l-1.941 1.42c-1.233.901-4.152 1.37-8 1.283-3.333-.075-7.1-.335-8.37-.578M438 284.511l-2.5-2.673V230.97c0-39.69.278-51.147 1.265-52.134.788-.788 4.937-1.404 11-1.632 7.534-.283 10.187-.026 11.735 1.135l2 1.5.286 49.83c.158 27.408.04 50.832-.261 52.053-.302 1.222-1.33 2.637-2.287 3.145s-5.563 1.237-10.238 1.62l-8.5.698zm-167.512-15.703c-.368-1.465-.213-3.477.344-4.471l1.011-1.809.669 2.664c.368 1.465.213 3.477-.344 4.471l-1.011 1.809zm-.028-32.11c-.372-1.484-.372-3.912 0-5.396.531-2.115.875-2.385 1.593-1.25.504.796.916 2.573.916 3.948s-.412 3.152-.916 3.948c-.718 1.135-1.062.865-1.593-1.25m.292-22.902c-.3-.782-.29-2.744.022-4.36l.568-2.936.787 2.915c.432 1.603.422 3.564-.022 4.36l-.809 1.444zm287.998-98.458c.688-.278 1.813-.278 2.5 0 .688.277.125.504-1.25.504s-1.937-.227-1.25-.504"/><path fill="#3EBAAE" fill-rule="evenodd" d="m210 450-2-2v-45.809c0-37.968.243-46.141 1.418-47.75 1.199-1.64 2.914-1.995 11.063-2.29 8.11-.293 9.951-.07 11.581 1.405L234 355.31v93.38l-1.829 1.655c-1.422 1.287-3.87 1.655-11 1.655H212zm19.8-2.2c.898-.898 1.2-12.462 1.2-45.878 0-37.121-.237-44.874-1.403-45.842-.89-.738-4.456-1.057-9.75-.872l-8.347.292-.26 45.935c-.205 36.084.01 46.106 1 46.734 2.02 1.283 16.206.985 17.56-.369m123.221-1.76c-.724-1.353-.739-4.689-.049-10.75 3.74-32.844 5.348-38.937 10.88-41.229 3.888-1.61 11.19-.657 14.308 1.868l2.246 1.818-4.087 9.377c-3.883 8.906-5.636 13.25-9.034 22.376-.819 2.2-2.674 6.636-4.122 9.858-3.627 8.066-7.896 10.878-10.142 6.681m7.36-5.29c1.308-2.064 3.751-7.798 7.136-16.75.728-1.925 2.934-7.56 4.903-12.522S376 401.283 376 399.85s-.68-3.169-1.51-3.858c-1.993-1.655-9.057-.693-11.562 1.573-1.054.954-2.376 3.355-2.937 5.335-.902 3.184-2.803 17.212-4.655 34.35l-.62 5.75h2.118c1.166 0 2.762-1.012 3.547-2.25m502.119-123c-5.5-1.083-11.119-2.18-12.486-2.438-2.016-.38-2.192-.633-.928-1.34 1.676-.938 13.934.455 16.743 1.904.92.473 3.359 1.165 5.421 1.538 2.063.372 3.75 1.106 3.75 1.631 0 1.16-.052 1.155-12.5-1.296m-90.167-3.73c-25.942-.286-47.483-.836-47.868-1.221s.553-1.016 2.086-1.401c3.587-.9 112.353.194 114.783 1.155 3.802 1.504-.891 2.415-11.334 2.201-5.775-.118-31.725-.449-57.667-.735m-194.65-2.27-1.7-1.25.258-95.5c.17-62.828.601-95.5 1.259-95.5.656 0 1.176 32.675 1.513 95 .282 52.25.62 95.113.75 95.25s29.675.25 65.655.25 66.168.288 67.084.64c1.329.509 1.396.81.332 1.484-.734.465-31.06.852-67.393.86-51.294.013-66.439-.263-67.758-1.234m-411.028-26.579L165 283.343V168.046l2.532-1.659c1.468-.962 5.473-1.869 9.533-2.16 5.405-.386 7.912-.09 10.99 1.298 2.315 1.044 4.2 2.674 4.493 3.887.278 1.148.38 27.476.228 58.505-.214 43.85-.553 56.509-1.518 56.83-.978.326-1.297-12.09-1.5-58.416L189.5 167.5l-9.35-.289c-6.036-.186-9.848.123-10.75.873-1.17.97-1.4 10.438-1.4 57.467v56.306l1.571 1.572c.865.864 2.327 1.603 3.25 1.641 1.354.057 1.292.237-.321.93-3.04 1.306-4.041 1.164-5.845-.829m148 0L313 283.343V169.31l1.829-1.655c1.457-1.32 3.963-1.655 12.345-1.655 8.918 0 10.768.278 12.171 1.829l1.655 1.828V283.69l-1.829 1.655c-1.457 1.32-3.963 1.655-12.345 1.655-8.918 0-10.768-.278-12.171-1.829m77.413-5.664c-4.691-8.549-6.545-12.92-5.1-12.027.53.327 2.633 3.774 4.675 7.66s4.682 7.507 5.868 8.047c1.642.748 3.564.39 8.072-1.506l5.917-2.488.319-3.167c.175-1.742-.4-4.263-1.277-5.603-2.108-3.217-3.791-7.695-2.62-6.971 1.222.755 8.078 13.066 8.078 14.506 0 1.159-16.138 9.042-18.51 9.042-.72 0-3.16-3.372-5.422-7.493m114.587 4.664L505 282.343V225.87c0-57.783.069-58.871 3.735-58.871 1.01 0 1.083.47.3 1.934-.677 1.266-1.035 20.916-1.035 56.878 0 46.014.229 55.133 1.408 56.111.872.724 4.197 1.056 8.75.873l7.342-.296.258-55.8c.173-37.328-.087-56.446-.785-57.75-.792-1.48-.722-1.95.292-1.95 3.664 0 3.735 1.109 3.735 58.245v55.846l-2.455 2.454-2.454 2.455h-7.89c-6.375 0-8.21-.351-9.546-1.829M336.8 282.8c1.732-1.732 1.732-110.868 0-112.6-.747-.747-4.444-1.2-9.8-1.2s-9.053.453-9.8 1.2c-1.732 1.732-1.732 110.868 0 112.6 1.62 1.62 17.98 1.62 19.6 0m47.442-18.05c-.869-1.084-9.944-17.937-30.29-56.25-2.92-5.5-6.147-11.095-7.17-12.434l-1.859-2.434 1.789-1.641c2.621-2.407 16.133-8.264 17.688-7.668 1.166.448 10.6 15.085 10.6 16.447 0 .284 3.583 7.106 7.962 15.16 8.56 15.744 11.779 22.646 10.067 21.588-.59-.365-2.47-3.443-4.176-6.84-1.706-3.398-6.084-11.532-9.728-18.076s-8.2-14.87-10.125-18.5c-2.824-5.327-4.016-6.662-6.174-6.911-2.701-.312-10.705 3.134-12.06 5.193-2.07 3.144-1.808 3.701 25.244 53.616 7.322 13.51 10.433 20 9.588 20-.194 0-.804-.562-1.356-1.25m21.035-4c-1.55-2.002-9.038-15.984-10.205-19.057-2.054-5.408.8-1.598 5.666 7.563 4.884 9.197 6.513 12.744 5.853 12.744-.19 0-.782-.562-1.314-1.25"/><path fill="#F18328" fill-rule="evenodd" d="M781.95 759.427c-1.348-.746-3.158-1.372-4.023-1.392-2.335-.052-19.212-8.467-20.785-10.363l-1.358-1.637 2.741-7.515c1.508-4.133 3.776-8.632 5.041-9.997l2.3-2.482 3.961 1.398c6.854 2.418 18.747 8.56 22.269 11.5l3.384 2.825-1.864 5.368c-2.013 5.796-6.04 12.433-8 13.185-.67.257-2.32-.143-3.666-.89M766.5 740.5c0-1.085-.788-2.124-1.75-2.31-1.31-.252-1.75.328-1.75 2.31s.44 2.562 1.75 2.31c.962-.186 1.75-1.225 1.75-2.31m25.255-42.41c-5.905-.847-7.83-2.444-4.862-4.033 4.91-2.627.5-7.057-7.025-7.057-2.908 0-3.88.462-4.396 2.089-.472 1.487-.059 2.512 1.432 3.557 3.804 2.664 2.115 5.354-3.363 5.354-4.075 0-5.06-2.506-4.838-12.312.112-4.947.609-9.4 1.105-9.896 2.674-2.674 26.43-5.806 29.91-3.943 2.894 1.549 5.769 12.582 4.91 18.847-.358 2.616-1.209 5.3-1.89 5.964-1.768 1.726-5.514 2.213-10.983 1.43m-595.116-17.588c-.903-2.353-.766-7.754.237-9.336.675-1.064.975-.997 1.485.332.903 2.353.766 7.754-.237 9.336-.675 1.064-.975.997-1.485-.332m256.527-28.378c-1.064-.675-.997-.975.332-1.485.916-.351 2.717-.639 4.002-.639s3.086.288 4.002.64c1.329.509 1.396.81.332 1.484-.734.465-2.684.845-4.334.845s-3.6-.38-4.334-.845m-256.434-12.38c-.301-.784-.201-1.985.221-2.669.593-.958.894-.917 1.315.182.301.783.201 1.984-.221 2.668-.593.958-.894.917-1.315-.182M571.158 550c0-1.375.227-1.937.504-1.25.278.688.278 1.813 0 2.5-.277.688-.504.125-.504-1.25m14.574-3.257c-.301-.783-.201-1.984.221-2.668.593-.958.894-.917 1.315.182.301.783.201 1.984-.221 2.668-.593.958-.894.917-1.315-.182m167.66-5.559c-.557-.376-3.113-3.652-5.68-7.28-5.592-7.902-18.003-19.947-26.005-25.238-8.563-5.662-24.982-13.2-35.114-16.123-12.507-3.607-27.37-6.515-36.94-7.227-4.484-.334-9.166-.98-10.403-1.436-1.305-.482-2.25-1.67-2.25-2.828 0-2.405 11.573-31.97 17.439-44.552 2.307-4.95 4.985-9.788 5.95-10.75 1.045-1.043 3.24-1.742 5.432-1.73 3.44.02 19.83 2.539 32.057 4.926 8.24 1.61 43.115 5.839 57.122 6.927 15.949 1.24 54.39 1.299 72.438.112 9.515-.626 14.338-.586 15.196.126 1.534 1.273 1.035 2.73-5.608 16.389-2.676 5.5-7.096 15.625-9.823 22.5-4.65 11.723-6.495 17.152-10.622 31.25-1.995 6.817-2.829 7.367-18.397 12.157-14.562 4.48-24.53 9.273-33.842 16.273-9.813 7.378-9.73 7.328-10.95 6.504m8.429-8.027c9.452-7.762 16.18-11.17 33.649-17.047 8.016-2.696 15.24-5.454 16.052-6.129.813-.674 1.478-1.977 1.478-2.895 0-2 7.884-25.521 10.923-32.586 1.182-2.75 3.44-7.7 5.017-11 5.342-11.182 9.06-20.153 9.06-21.861 0-.936-.626-1.942-1.39-2.236-.766-.293-8.753-.048-17.75.546-31.354 2.069-44.898 1.603-86.86-2.987-17.16-1.877-27.371-3.405-53.568-8.015-7.188-1.265-13.81-2.016-14.715-1.669-.906.348-3.186 3.69-5.067 7.427-5.079 10.09-16.65 39.75-16.65 42.68 0 3.03 2.508 4.615 7.305 4.615 5.886 0 25.903 3.843 36.79 7.062 12.03 3.559 25.738 9.793 35.69 16.23 8.643 5.592 19 15.313 26.215 24.607 3.222 4.15 6.254 7.088 7.32 7.093 1.002.004 3.927-1.721 6.5-3.835m-198.154-21.824c-1.324-1.324-.628-5.283 1.083-6.16.962-.495 3.723-1.2 6.134-1.57 3.375-.515 4.81-.286 6.227.997 1.013.917 1.635 2.003 1.381 2.413-.253.41-2.398.526-4.767.26l-4.307-.486-1.188 2.607c-1.138 2.497-3.15 3.353-4.563 1.94m-420.012-32.162c-1.048-1.157-1.655-3.56-1.655-6.545 0-3.675.542-5.26 2.455-7.171l2.454-2.455h205.154l.626 1.632c.345.898.139 2.414-.457 3.368s-1.611 3.707-2.256 6.118c-.644 2.41-1.633 4.945-2.196 5.632-.808.985-22.383 1.25-101.747 1.25H145.31zm203.231-3.753c2.802-3.562 3.5-6.248 2.07-7.97l-1.209-1.457-101.123.254-101.124.255-.311 4.324c-.171 2.378.221 4.966.872 5.75l1.184 1.426h197.61zm-94.612-23.14c-1.939-.24-4.033-1.428-5.25-2.974L245 446.73V339.07l1.934-1.035c1.064-.57 6.24-1.035 11.5-1.035H268l2 2 2 2v53.309c0 42.356-.269 53.677-1.31 55.1-2.001 2.737-9.763 3.946-18.416 2.87m15.516-5.648c.922-.57 1.21-13.219 1.21-53.082v-52.334l-1.582-.607c-.87-.334-4.894-.607-8.943-.607h-7.362l-1.556 2.223-1.557 2.222v101.456l1.552.868c1.856 1.039 16.513.927 18.238-.14m193.181.33c-.809-.51-2.746-.936-4.304-.945-1.815-.01-2.686-.464-2.422-1.265.674-2.046 4.244-1.985 6.836.117 2.529 2.05 2.442 3.708-.11 2.094m-265.459-2.054c-.906-3.612-.213-11.454.988-11.17 1.35.32 1.85 9.817.63 11.996l-.973 1.74zm-31.873-1.404c-.865-2.256-.799-47.615.08-54.502l.702-5.5.716 4.5c1.015 6.39 1.004 54.229-.013 55.834-.675 1.064-.975.997-1.485-.332m31.821-69.804c-.372-1.484-.372-3.912 0-5.396.531-2.115.875-2.385 1.593-1.25.504.796.916 2.573.916 3.948s-.412 3.152-.916 3.948c-.718 1.135-1.062.865-1.593-1.25m492.706-44.574c-1.057-.67-.976-.983.391-1.508.949-.364 2.62-.377 3.716-.03 1.581.503 1.707.813.61 1.508-1.736 1.1-3.017 1.107-4.717.03M146 317.306c-2.904-1.038-4-3.735-4-9.842 0-4.692.434-6.547 1.829-7.809l1.828-1.655H525l2 2c2.34 2.34 2.478 4.54.5 8l-1.43 2.5-.035-4.143c-.024-2.832-.536-4.335-1.617-4.75-.87-.334-86.09-.607-189.377-.607H147.245l-1.178 1.419c-.678.817-1.048 3.679-.872 6.75l.305 5.331 161.5.246c88.825.136 162.162.498 162.972.804l1.472.558-1.472.93c-1.548.98-321.242 1.244-323.972.268m335.833-3.901c4.945-1.627 7.861-2.116 8.957-1.503 1.286.72.8 1.116-2.333 1.902-2.176.547-6.207 1.223-8.957 1.503l-5 .51zm16.333-1.281c-1.074-.68-1.025-.964.25-1.453.871-.335 2.297-.335 3.168 0 1.275.489 1.324.772.25 1.453-.734.465-1.559.845-1.834.845s-1.1-.38-1.834-.845m42.5-2.79c-.366-.367-.666-32.473-.666-71.346V167.31l1.829-1.655c1.01-.915 3.49-1.655 5.545-1.655 2.616 0 4.446.73 6.178 2.461l2.462 2.462-.257 69.288c-.17 45.565-.6 69.203-1.257 69.04-.649-.163-1.176-24.752-1.5-70l-.5-69.751-3.315-.318c-1.824-.175-3.961.217-4.75.872l-1.435 1.19v70.378c0 38.708-.375 70.378-.833 70.378-.459 0-1.134-.3-1.5-.667M203.656 286.17 202 284.343V185l2-2c1.665-1.665 3.333-2 9.953-2 4.374 0 9.098.522 10.497 1.16 1.63.742 2.902 2.449 3.541 4.75 1.412 5.081 1.328 85.506-.096 92.146-.609 2.835-1.959 6.008-3 7.05-1.574 1.573-3.392 1.894-10.74 1.894-7.299 0-9.134-.32-10.5-1.829m67.545-.371c-1.274-1.274-1.633-8.509-.56-11.302.509-1.329.81-1.396 1.484-.332.465.734.852 2.707.86 4.384.01 1.678.556 3.59 1.216 4.25 1.513 1.513 23.389 1.675 24.313.18.604-.978.728-98.072.126-98.674-.16-.16-4.916-.767-10.568-1.347l-10.277-1.054-2.397 1.57c-2.02 1.324-2.4 2.394-2.41 6.798-.008 2.875-.309 6.328-.669 7.673l-.654 2.447-.762-1.947c-.419-1.07-.793-5.139-.832-9.041-.055-5.592.3-7.405 1.68-8.558 1.3-1.087 5.09-1.525 14.755-1.707l13.005-.245 2.18 2.032c1.26 1.173 2.446 3.834 2.808 6.302.345 2.349.486 24.296.314 48.771-.251 35.838-.584 44.987-1.712 47-.77 1.375-1.895 2.83-2.5 3.235s-7.198.741-14.65.75c-9.224.01-13.933-.368-14.75-1.185m180.918.273c-1.004-.62-.946-.925.266-1.39.854-.328 1.799-.196 2.1.292.789 1.275-.849 2.036-2.366 1.098m24.738.214c-2.004-.217-4.48-1.318-5.5-2.446l-1.856-2.051V179.823l2.36-1.912c1.965-1.59 4.002-1.911 12.128-1.911 7.864 0 10.035.322 11.14 1.653 1.124 1.354 1.372 10.945 1.372 52.972v51.318l-2 1.915c-1.36 1.301-3.922 2.06-8 2.37-3.3.25-7.64.277-9.644.06m-253.713-2.537c.196-.687.132-23.3-.143-50.25l-.5-49-6.47-.303c-3.557-.167-7.495-.046-8.75.269l-2.28.572v48.781c0 36.607.3 49.08 1.2 49.981 1.673 1.673 16.463 1.63 16.943-.05M491.011 232c.302-29.91.136-51.026-.407-51.79-.637-.899-3.074-1.203-8.01-1l-7.094.29-.26 50.5c-.143 27.775-.037 51.082.235 51.794.358.934 2.519 1.212 7.76 1l7.265-.294zm-220.372 25.502c-.93-2.422-.754-13.772.237-15.336 1.323-2.086 2.126 1.027 2.109 8.166-.017 6.592-1.19 10.18-2.346 7.17m.043-34.35c-.37-1.842-.277-4.053.204-4.913l.876-1.565.603 1.913c.332 1.052.24 3.263-.204 4.913l-.808 3zm173.484-45.028c-1.064-.675-.997-.975.332-1.485.916-.351 2.942-.639 4.502-.639s3.586.288 4.502.64c1.329.509 1.396.81.332 1.484-.734.465-2.909.845-4.834.845s-4.1-.38-4.834-.845m-256-31c-1.064-.675-.997-.975.332-1.485.916-.351 82.741-.623 181.834-.604l180.168.036-2.5 1.429-2.5 1.43-178 .02c-97.9.01-178.6-.361-179.334-.826m-13.62-1.05c-1.08-1.746 11.914-9.838 18.454-11.492 1.375-.348-.988 1.184-5.25 3.405-6.508 3.39-7.75 4.436-7.75 6.525 0 1.971-.507 2.488-2.441 2.488-1.343 0-2.698-.416-3.013-.925m376.25-8.24-.296-7.334-161.953-.253c-99.58-.156-162.316-.616-162.895-1.195-.588-.588-.044-1.16 1.453-1.523 1.317-.32 74.769-.458 163.226-.306l160.83.277 1.42 1.941c1.924 2.633 1.9 12.915-.035 14.521l-1.455 1.207zm-344.86-7.38c6.466-2.092 13.679-2.887 14.477-1.595.823 1.331-1.63 1.875-11.413 2.53l-7.5.5z"/><path fill="#CB641D" fill-rule="evenodd" d="M672.154 838.116c-.991-.628-.55-1.13 1.67-1.905 1.925-.67 3.177-1.894 3.46-3.381l.444-2.33.136 2.679c.075 1.473-.571 3.385-1.435 4.25-1.79 1.788-2.386 1.884-4.275.687m-466.507-65.592c-.357-.933-.267-2.381.202-3.22l.853-1.523.65 1.695c.358.933.268 2.381-.201 3.22l-.853 1.523zm577.146-13.906c-2.038-.615-6.39-3.348-9.672-6.074-3.687-3.064-7.615-5.355-10.284-6-2.992-.723-4.432-1.639-4.687-2.98-.203-1.065 1.089-4.778 2.87-8.25 3.815-7.44 5.69-7.966 10.345-2.908 1.724 1.873 4.195 3.56 5.49 3.75 1.744.255 3.226 2.027 5.721 6.844 1.852 3.575 4.299 7.434 5.437 8.575 1.686 1.688 1.889 2.554 1.09 4.652-.539 1.418-1.345 2.788-1.791 3.044-.447.256-2.48-.037-4.519-.653m-8.073-63.21-3.78-2.475.642-4.838c.415-3.129.249-5.082-.47-5.526-1.847-1.141-1.253-4.357 1.11-6.012 1.347-.943 4.355-1.557 7.632-1.557 4.78 0 7.81 1.064 12.927 4.538.155.105.501 3.586.77 7.736.625 9.671-.271 10.75-8.872 10.667-4.824-.046-7.008-.602-9.959-2.533m23.833-2.323a1.117 1.117 0 0 1 .362-1.532 1.117 1.117 0 0 1 1.532.362c.322.52.16 1.21-.362 1.532-.52.322-1.21.16-1.532-.362m-44.718-6.27c-.293-1.477-.214-3.203.177-3.834 1.084-1.755 1.78 1.028 1.005 4.019l-.648 2.5zm-97.717-16.721c-1.08-.684-.9-1.028.822-1.575 1.212-.385 3.386-.403 4.83-.04 2.066.518 2.317.854 1.178 1.574-1.83 1.159-5.035 1.178-6.83.041m-34.368-1.756c.688-.278 1.813-.278 2.5 0 .688.277.125.504-1.25.504s-1.937-.227-1.25-.504m-425.11-1.836c-.943-2.456-.749-20.782.236-22.336 1.47-2.318 2.125 1.306 2.109 11.666-.016 9.61-1.012 14.145-2.346 10.67m499.914-10.404-1.947-.762 2.293-.6c1.261-.33 2.962-.342 3.78-.028 1.212.465 1.24.727.154 1.416-1.552.983-1.703.982-4.28-.026m-52.388-.974c-1.074-.68-1.025-.964.25-1.453.871-.335 2.297-.335 3.168 0 1.275.489 1.324.772.25 1.453-.734.465-1.559.845-1.834.845s-1.1-.38-1.834-.845m-43.09-1.077c-.959-.593-.918-.894.18-1.315.784-.301 1.985-.201 2.669.221.958.593.917.894-.182 1.315-.783.301-1.984.201-2.668-.221m-164.958-1.953c-1.086-.688-.925-1.02.75-1.552 1.173-.372 3.091-.372 4.264 0 1.675.532 1.836.864.75 1.552-.76.481-2.057.875-2.882.875s-2.122-.394-2.882-.875m105.425-11.025c-.91-1.473 1.325-2.319 4.212-1.594 2.077.52 2.331.858 1.193 1.578-1.881 1.19-4.675 1.198-5.405.016m52.623-29.945c-1.074-.68-1.025-.964.25-1.453.871-.335 2.297-.335 3.168 0 1.275.489 1.324.772.25 1.453-.734.465-1.559.845-1.834.845s-1.1-.38-1.834-.845M130.46 583.698c-.372-1.484-.372-3.912 0-5.396.531-2.115.875-2.385 1.593-1.25.504.796.916 2.573.916 3.948s-.412 3.152-.916 3.948c-.718 1.135-1.062.865-1.593-1.25m444.302-22.771c-2.753-1.604-3.743-4.312-4.814-13.16-.55-4.547-2.137-13.983-3.526-20.97-2.09-10.514-2.337-13.398-1.44-16.733.598-2.217 1.941-4.488 2.986-5.047 1.045-.56 3.512-1.017 5.481-1.017 2.962 0 3.926.561 5.582 3.25 2.857 4.637 5.52 13.768 7.595 26.03 1.504 8.887 1.611 11.707.656 17.28-.747 4.364-1.914 7.484-3.385 9.05-2.354 2.506-6.154 3.053-9.135 1.317m352.726-14.119c-.368-1.465-.213-3.477.344-4.471l1.011-1.809.669 2.664c.368 1.465.213 3.477-.344 4.471l-1.011 1.809zM750.631 536.75c-1.908-2.337-5.764-7.054-8.57-10.48-6.145-7.505-14.798-14.859-23.29-19.791a880 880 0 0 1-10.271-6.06c-5.094-3.076-25.168-9.64-37.5-12.261-5.225-1.11-14.225-2.567-20-3.236-5.775-.67-11.062-1.656-11.75-2.192-.687-.536-1.25-2.045-1.25-3.352 0-2.314 10.367-28.936 15.461-39.704 1.396-2.952 2.539-5.726 2.539-6.166 0-1.456 5.472-9.475 6.818-9.992.728-.28 4.33.16 8.003.974 18.286 4.057 62.864 10.445 79.679 11.419 1.1.064 5.825.43 10.5.812 7.61.624 39.078.852 59 .429 4.124-.088 8.923-.63 10.663-1.204 2.432-.802 4-.696 6.765.46 1.98.827 3.896 2.274 4.257 3.215.385 1.004-.428 3.809-1.972 6.795-9.062 17.53-19.734 44.686-23.71 60.337-.622 2.444-2.035 4.877-3.325 5.722-1.234.809-8.304 3.478-15.71 5.932-15.246 5.051-31.9 13.673-36.788 19.045-1.776 1.952-3.87 3.548-4.654 3.548-.785 0-2.987-1.913-4.895-4.25M392.5 531c.34-.55 1.068-1 1.618-1s.722.45.382 1-1.068 1-1.618 1-.722-.45-.382-1m213.25-46.662c.688-.278 1.813-.278 2.5 0 .688.277.125.504-1.25.504s-1.937-.227-1.25-.504M146 480.112c-1.997-.55-2.678-1.602-3.386-5.23-.652-3.345-.52-5.301.5-7.42.762-1.583 2.511-3.19 3.886-3.57 3.221-.892 198.718-.911 201.905-.02 4.013 1.123 4.728 3.398 2.572 8.178-1.047 2.323-2.74 5.286-3.763 6.586l-1.86 2.364-98.677-.1c-54.272-.055-99.802-.41-101.177-.788m298.04-9.569c-2.955-3.146-2.472-5.645 3.052-15.77 5.687-10.422 7.374-12.13 11.223-11.36 1.68.336 3.846 1.328 4.815 2.204l1.76 1.594-2.273 6.264c-2.52 6.94-6.805 14.713-9.719 17.627-2.6 2.6-6.097 2.38-8.857-.559m-24.643-2.878c-1.977-1.7-2.686-3.215-2.618-5.597.101-3.565 5.704-16.076 8.988-20.068 1.645-2 2.968-2.5 6.609-2.5 2.965 0 5.15.597 6.266 1.713l1.713 1.713-1.242 2.787c-.682 1.533-3.552 6.985-6.377 12.115-3.367 6.113-6.083 9.817-7.883 10.748l-2.746 1.42zm100.335-14.922c-.301-.783-.201-1.984.221-2.668.593-.958.894-.917 1.315.182.301.783.201 1.984-.221 2.668-.593.958-.894.917-1.315-.182M246.9 449.38c-1.147-1.382-1.454-10.445-1.705-50.283-.169-26.728-.018-50.583.335-53.01.415-2.853 1.584-5.347 3.307-7.056l2.664-2.644 8.841.698c4.863.384 9.262 1.118 9.776 1.632 1.905 1.905 2.591 18.937 2.489 61.783-.09 37.118-.342 44.47-1.617 47l-1.512 3-10.589.282c-8.936.239-10.808.02-11.989-1.402m660.833-11.637c-.301-.783-.201-1.984.221-2.668.593-.958.894-.917 1.315.182.301.783.201 1.984-.221 2.668-.593.958-.894.917-1.315-.182m-473.566-14.62c-1.057-.67-.976-.982.391-1.507.949-.364 2.62-.377 3.716-.03 1.581.503 1.707.813.61 1.508-1.736 1.1-3.017 1.107-4.717.03m373.952-92.029c-1.086-.688-.925-1.02.75-1.552 1.173-.372 3.091-.372 4.264 0 1.675.532 1.836.864.75 1.552-.76.481-2.057.875-2.882.875s-2.122-.394-2.882-.875m-56.043-1.047c-.958-.593-.917-.894.182-1.315.783-.301 1.984-.201 2.668.221.958.593.917.894-.182 1.315-.783.301-1.984.201-2.668-.221m-54.909-.923c-1.064-.675-.997-.975.332-1.485.916-.351 2.717-.639 4.002-.639s3.086.288 4.002.64c1.329.509 1.396.81.332 1.484-1.72 1.09-6.948 1.09-8.668 0m-66.048-1.03c-1.08-.684-.9-1.028.822-1.575 1.212-.385 3.386-.403 4.83-.04 2.066.518 2.317.854 1.178 1.574-1.83 1.159-5.035 1.178-6.83.041m-81.952-.97c-1.057-.67-.976-.983.391-1.508.949-.364 2.62-.377 3.716-.03 1.581.503 1.707.813.61 1.508-1.736 1.1-3.017 1.107-4.717.03M146 317.109c-1.936-.54-2.701-1.646-3.392-4.903-.523-2.465-.523-5.947 0-8.412.691-3.258 1.455-4.362 3.392-4.9 1.375-.382 86.47-.74 189.1-.794 132.1-.07 187.513.218 189.722.988 2.454.855 3.26 1.834 3.775 4.58.851 4.533-1.024 8.001-5.002 9.253-1.702.536-9.845.931-18.095.878-11.51-.073-16.861.346-23 1.801l-8 1.896-163 .156c-89.65.085-164.125-.16-165.5-.543m398.357-4.1c-1.179-.476-2.866-1.898-3.75-3.16L539 307.555l.006-64.028c.003-36.742.42-66.56.979-69.97.535-3.27 1.545-6.51 2.244-7.204.7-.693 3.134-1.556 5.41-1.917 3.42-.542 4.508-.289 6.25 1.454L556 168l-.015 70.75c-.009 38.913-.355 71.284-.77 71.937-.818 1.285-5.608 3.352-7.53 3.25-.652-.035-2.15-.453-3.328-.929m-340.902-26.464L201 284.091V185.31l1.952-1.766c4.018-3.636 21.936-2.885 23.42.982.317.828.613 23.865.656 51.195l.08 49.69-2.304 1.772c-1.773 1.364-4.217 1.778-10.6 1.795l-8.295.022zm69.6-.49c-1.069-1.069-2.215-3.431-2.546-5.25-.331-1.817-.469-24.157-.306-49.642l.297-46.337 2.806-2.413 2.806-2.413h24.818l1.035 1.934c.674 1.26 1.035 19.52 1.035 52.385v50.451l-2.465 1.615c-1.909 1.25-5.065 1.615-14 1.615H275zm199.34-.802c-1.158-1.159-1.395-10.277-1.395-53.702v-52.306l1.654-1.373c1.088-.903 4.307-1.372 9.42-1.372h7.765l2.58 2.424L495 181.35l-.006 48.575c-.005 45.416-.52 55.798-2.791 56.2-.387.07-4.687.215-9.557.325-6.46.146-9.232-.178-10.25-1.196m-212.756-15.75c-1.003-2.615-.755-98.313.256-98.938.493-.305 1.168.156 1.5 1.023.941 2.452.68 96.744-.271 98.246-.675 1.064-.975.997-1.485-.332m-85.292-123.04c-.977-2.548 2.672-5.538 12.153-9.956 11.598-5.405 17.2-7.172 26.822-8.46 5.181-.693 63.285-1.047 172.06-1.047 132.202 0 164.579.25 165.993 1.285 3.352 2.45 3.361 14.836.014 18.183L549.857 148h-374.92zm53.82-30.34c-1.064-.673-.995-.975.34-1.487 1.98-.76 3.769.11 2.95 1.433-.706 1.142-1.553 1.157-3.29.055m269.95-.029c-1.08-.684-.9-1.028.823-1.575 1.212-.385 3.386-.403 4.83-.04 2.066.518 2.317.854 1.178 1.574-1.83 1.159-5.035 1.178-6.83.041m16.05.03c-2.624-1.663 1.896-2.124 20.665-2.109 17.549.015 23.802.76 19.67 2.346-2.489.955-38.792.742-40.336-.237m-31.417-.786c.688-.278 1.813-.278 2.5 0 .688.277.125.504-1.25.504s-1.937-.227-1.25-.504"/><path fill="#7B6B56" fill-rule="evenodd" d="M724.953 954.517c-3.6-.724-8.55-2.258-11-3.41-5.379-2.529-14.486-9.847-16.973-13.638-1.792-2.732-1.68-5.469.224-5.469.544 0 3.083 1.863 5.643 4.14s7.128 5.314 10.153 6.75l5.5 2.61h26l5.5-2.815c6.11-3.127 13.927-10.2 17.62-15.944 3.494-5.435 6.334-13.098 8.243-22.241 1.409-6.75 1.98-8 3.653-8h1.984l-.138 7c-.092 4.682-1 9.449-2.74 14.394-6.392 18.172-17.091 29.627-32.69 35-7.786 2.683-13.507 3.126-20.979 1.623m-533.406-39.73c-7.94-1.022-12.06-2.451-18.053-6.265-6.21-3.951-14.598-13.088-13.836-15.073.306-.797 1.168-1.449 1.916-1.449.747 0 3.63 2.016 6.403 4.48 2.775 2.464 6.277 5.111 7.784 5.883 5.157 2.642 13.734 3.89 23.827 3.467l9.912-.415 6.776-3.358c8.438-4.18 17.396-13.447 22.096-22.857 1.84-3.685 5.268-12.451 7.618-19.48 3.174-9.497 4.945-13.316 6.89-14.865l2.62-2.083 7.5.585c8.542.668 40.795 3.699 71 6.673a15497 15497 0 0 0 52 4.986c17.325 1.632 51.975 5 77 7.484s59.675 5.85 77 7.478 45.45 4.314 62.5 5.967 36.625 3.495 43.5 4.093c19.632 1.709 31.142 3.066 33.454 3.944 3.063 1.165 4.749 3.56 4.373 6.213-.268 1.886-.872 2.263-3.327 2.074-19.603-1.509-37.695-3.187-72.5-6.724-7.975-.811-25.075-2.405-38-3.543-12.925-1.137-27.55-2.5-32.5-3.03s-16.65-1.644-26-2.476c-15.847-1.412-35.916-3.46-68.5-6.994-7.425-.805-18.9-1.9-25.5-2.433-10.992-.887-38.034-3.488-63-6.058-35.742-3.679-85.053-8.011-91.185-8.011h-7.264l-1.41 2.75c-.777 1.513-2.118 4.775-2.981 7.25-4.827 13.839-8.048 20.975-12.584 27.885-5.612 8.548-9.478 12.58-15.835 16.515-9.951 6.16-21.08 8.755-31.694 7.388m586.815-26.982c-.453-.718-.718-4.874-.589-9.236.336-11.317 1.878-13.86 11.727-19.354 4.4-2.453 15.569-8.981 24.82-14.506l16.82-10.046 2.651.932c1.741.613 3.52 2.66 5.18 5.964 5.777 11.493 13.443 18.757 23.223 22.005 3.794 1.26 7.58 1.553 16.132 1.245l11.174-.403 5.417-2.804c8.6-4.453 15.369-11.57 19.979-21.006 2.212-4.529 4.294-10.228 4.626-12.665 1.032-7.572 1.472-8.931 2.89-8.931.756 0 1.642.699 1.97 1.553.564 1.469-.684 12.68-2.04 18.338-.894 3.728-4.013 9.708-8.574 16.438-2.806 4.141-5.955 7.126-10.877 10.31-3.81 2.465-9.506 5.397-12.659 6.517-10.867 3.859-24.535 2.382-34.232-3.7-5.558-3.485-14.554-12.661-16.877-17.215-1.171-2.296-3.054-4.67-4.185-5.274-2.511-1.344-7.047-.455-10.155 1.99-2.119 1.665-19.797 12.129-32.551 19.265-2.912 1.63-5.931 4.23-6.75 5.813-.815 1.576-1.527 4.576-1.582 6.665s-.412 4.923-.794 6.295c-.774 2.784-3.477 3.816-4.744 1.81m-632.367-61.639C135.533 819.438 125.555 808 130.147 808c.63 0 4.773 2.738 9.205 6.084 4.432 3.347 9.683 6.914 11.67 7.927 1.986 1.014 4.181 2.53 4.877 3.368 1.588 1.913 1.06 5.014-.91 5.356-.82.142-4.866-1.914-8.994-4.569m-20.452-21.097c-.683-1.105.894-2.299 1.818-1.375.95.95.773 2.306-.302 2.306-.518 0-1.2-.419-1.516-.93m793.079-7.245c-1.386-4.934-2.108-11.982-1.418-13.847.45-1.217 3.994-5.613 7.874-9.768 5.362-5.741 8.222-9.972 11.918-17.632 6.303-13.062 12.598-33.282 14.898-47.85.414-2.626 1.313-5.326 1.997-6 .984-.97 1.53-.84 2.612.626.88 1.193 1.084 2.62.57 4-.438 1.181-1.12 5.488-1.513 9.57-.393 4.084-1.292 9.034-1.996 11-2.072 5.786-4.383 13.25-5.597 18.077-2.696 10.72-11.593 26.316-20.655 36.207-4.409 4.813-4.63 5.384-4.745 12.269-.05 2.957-.516 4.065-1.82 4.324-.964.191-1.92-.248-2.125-.976m36.97-103.674c-.647-1.047 1.178-18.533 2.364-22.65.475-1.65 1.138-4.237 1.473-5.75.36-1.625 1.275-2.75 2.238-2.75h1.629l-.576 8.75c-.786 11.953-3.526 23.25-5.64 23.25-.529 0-1.198-.382-1.487-.85m5.585-36.703c.452-2.172 2.227-2.305 2.633-.197.21 1.095-.28 1.75-1.31 1.75-.96 0-1.512-.647-1.323-1.553m1.376-9.362a1.117 1.117 0 0 1 .362-1.532 1.117 1.117 0 0 1 1.532.362c.322.52.16 1.21-.362 1.532-.52.322-1.21.16-1.532-.362m2.105-13.76c-1.105-1.105-.67-10.383.884-18.825.81-4.4 1.756-10.025 2.103-12.5.775-5.521 2.075-7.477 3.942-5.928.953.79 1.185 2.96.83 7.763-.687 9.334-2.357 21.08-3.53 24.835-1.065 3.412-3.163 5.72-4.229 4.655m7.224-58.575c-.066-.687 0-1.7.145-2.25s.311-4.466.37-8.702c.11-7.933 1.223-10.541 4.036-9.462 2.08.798 2.083 8.151.003 12.14-.853 1.636-1.331 3.817-1.062 4.846s.247 2.503-.05 3.274c-.667 1.74-3.281 1.857-3.442.154m3.67-28.665a1.117 1.117 0 0 1 .363-1.532 1.117 1.117 0 0 1 1.532.362c.322.52.16 1.21-.362 1.532-.52.322-1.21.16-1.532-.362m-21.496-89.518c-.665-.801-1.062-2.494-.883-3.762.217-1.53 1-2.305 2.327-2.305 1.407 0 2.09.767 2.3 2.586.166 1.422-.337 3.115-1.117 3.762-1.103.915-1.686.853-2.627-.28"/><path fill="#562D11" fill-rule="evenodd" d="M727.177 920.817c-5.927-1.321-11.184-6.748-13.39-13.823-.943-3.021-3.304-14.47-5.249-25.442s-3.873-20.259-4.286-20.638c-.414-.38-6.827-1.217-14.252-1.86-29.949-2.599-162.574-15.326-214-20.538-13.475-1.365-29.675-2.955-36-3.532-15.495-1.414-48.002-4.522-73-6.98C288.79 820.319 242.812 816 239.17 816h-4.241l-1.852 4.321c-1.019 2.377-5.313 14.19-9.543 26.25s-8.634 23.609-9.787 25.661c-2.946 5.247-9.06 9.038-15.436 9.572-3.941.33-6.276-.093-9.712-1.756-2.744-1.329-5.424-3.637-6.811-5.869-1.891-3.041-2.269-4.98-2.176-11.179.062-4.125 1.364-17.694 2.894-30.154s2.524-23.325 2.21-24.145-3.642-2.5-7.394-3.733c-8.84-2.907-13.42-5.218-21.036-10.615-4.833-3.424-7.326-6.21-11.221-12.54-5.87-9.539-10.068-21.518-13.542-38.646-6.75-33.283-16.626-116.272-18.109-152.167-1.014-24.552 1.717-41.366 9.098-56.024l3.496-6.942-.102-163.767-.101-163.767 1.618-7.5c1.984-9.193 5.184-19.168 7.86-24.5 4.244-8.455 13.723-21.277 20.236-27.37 13.246-12.39 29.284-20.488 48.981-24.731 15.09-3.25 41.11-3.632 205-3.004 88.55.34 162.35.983 164 1.43 1.65.448 3.556 1.908 4.235 3.245.954 1.877 1.239 23.96 1.25 97.059l.015 94.628 84.75.667c46.612.367 107.025 1.09 134.25 1.607 49.727.944 60.491 1.744 72.1 5.353 9.784 3.042 23.413 11.303 32.281 19.567 5.698 5.31 13.609 16.665 17.699 25.406 4.01 8.57 6.752 20.046 8.114 33.96.886 9.06.878 20.432-.035 48.027-.657 19.886-1.187 39.654-1.177 43.928l.018 7.773 3.876 4.227c5.83 6.359 11.746 16.082 14.113 23.196 4.412 13.258 4.233 24.677-1.03 65.532-3.148 24.435-10.231 71.937-14.464 97-7.28 43.1-12.17 58-23.334 71.106-1.837 2.156-6.224 5.979-9.75 8.495L890 770.176v4.69c0 2.578.872 10.976 1.939 18.661 2.959 21.33 3.44 29.355 2.068 34.449-2.3 8.538-10.957 13.613-20.365 11.94-4.52-.805-8.321-3.395-11.213-7.64-2.141-3.144-6.713-15.383-10.47-28.026l-2.154-7.25h-2.31c-1.27 0-7.639 3.072-14.152 6.827-6.514 3.754-20.393 11.78-30.843 17.833-10.45 6.054-25.132 14.457-32.628 18.674s-14.077 8.229-14.626 8.916-1.524 12.486-2.167 26.22c-.643 13.732-1.621 26.986-2.174 29.453-1.645 7.342-3.879 10.982-8.285 13.5-5.102 2.914-9.823 3.646-15.443 2.394m-7.225-83.48c9.209-4.59 37.044-32.88 51.19-52.029 7.451-10.086 14.736-23.38 19.324-35.265 8.367-21.67 10.012-32.104 9.942-63.043l-.054-23.5-2.676-10c-1.472-5.5-4.94-14.56-7.704-20.132-3.904-7.866-6.806-12.032-12.98-18.632l-7.954-8.5-5.717-.715c-4.548-.568-6.359-1.358-8.86-3.868l-3.144-3.153-1.646-10.602c-3.046-19.613-8.798-33.89-18.647-46.284-15.56-19.582-38.618-30.79-77.693-37.766l-12.833-2.291-25-.014-25-.014-20.471 4.266c-11.26 2.346-21.41 4.88-22.559 5.632-1.498.982-2.439 3.28-3.337 8.155-1.687 9.155-6.426 21.132-11.178 28.248-4.797 7.183-13.163 15.17-15.89 15.17-2.362 0-12.776-3.808-19.132-6.996-5.838-2.929-9.933-6.86-9.933-9.536 0-3.063 3.311-5.668 7.205-5.668 1.83 0 6.59.991 10.579 2.203l7.253 2.203 2.481-1.626c1.496-.98 2.482-2.575 2.482-4.015v-2.39l-4.25-.66c-14.95-2.322-17.012-2.865-19.807-5.216-1.642-1.382-2.943-3.466-2.943-4.714 0-1.23 1.11-3.279 2.466-4.553l2.466-2.317 14.057 1.32c10.746 1.007 14.334 1.042 15.23.146 1.696-1.696 2.27-23.549.836-31.787-.652-3.742-2.328-9.973-3.726-13.848l-2.541-7.046-.932-21c-1.475-33.259-1.866-37.567-3.47-38.182-.782-.3-2.85.046-4.595.768-3.088 1.28-17.501 15.015-31.128 29.664L472.92 447l-4.21-.008c-2.315-.004-7.134-.914-10.709-2.023-3.575-1.11-11.635-2.502-17.91-3.096-8.462-.8-13.823-.776-20.74.095-5.13.645-10.192.9-11.248.564-1.056-.335-3.824-3.18-6.152-6.32-6.909-9.325-11.04-13.212-14.042-13.212h-2.686l-3.49 9.75a795 795 0 0 0-6.695 19.679c-1.762 5.46-5.151 14.263-7.533 19.562-2.381 5.298-4.88 12.435-5.554 15.86-1.588 8.067-.743 26.998 1.491 33.432 4.783 13.775 17.49 28.223 31.123 35.387 10.044 5.277 18.359 8.061 28.142 9.422 4.241.59 8.954 1.715 10.473 2.5 2.654 1.373 4.821 4.189 4.821 6.266 0 .543-1.115 2.314-2.478 3.934-1.65 1.96-3.78 3.154-6.368 3.567-7.82 1.25-22.997-2.808-37.548-10.041-4.892-2.432-9.473-4.2-10.18-3.928-.707.271-4.247 4.7-7.867 9.843s-7.931 10.146-9.58 11.12c-1.65.975-10.983 3.79-20.74 6.258-21.822 5.518-38.786 10.721-46.844 14.369-6.986 3.162-13.62 8.734-15.339 12.885-.648 1.563-1.038 5.046-.867 7.739.264 4.154.642 4.943 2.493 5.207 1.466.208 2.573-.448 3.373-2 2.035-3.954 6.222-7.811 8.477-7.811 1.187 0 2.892.811 3.79 1.803 1.276 1.41 1.493 2.964.997 7.149l-.633 5.347 6.407-.577c3.524-.317 12.932-2.64 20.907-5.162 14.591-4.615 27.77-8.223 40.243-11.017 3.71-.831 9.802-3.051 13.54-4.934 18.33-9.23 59.203-19.293 80.895-19.916l6.178-.177 2.572 2.416c1.415 1.33 2.572 3.423 2.572 4.653 0 1.242-1.293 3.325-2.905 4.682-2.376 1.999-5.454 2.842-16.905 4.633-23.507 3.676-49.784 11.04-64.74 18.143-5.53 2.627-9.499 5.37-12.673 8.764-6.772 7.24-8.889 16.193-3.829 16.193 1.343 0 2.696-1.343 4.073-4.041 1.134-2.223 2.943-4.923 4.02-6 2.2-2.2 7.877-2.641 9.759-.759 1.63 1.63 1.459 5.874-.332 8.241-.807 1.068-1.468 3.205-1.468 4.75V663h3.411c1.877 0 7.164-1.624 11.75-3.608s11.489-4.74 15.339-6.122l7-2.513 29.5-.79c36.23-.969 50.263-2.98 61.766-8.848 2.216-1.13 5.088-3.468 6.381-5.194 4.173-5.567 8.615-9.925 10.118-9.925.806 0 2.625.912 4.043 2.028 1.79 1.407 2.783 3.395 3.248 6.5l.671 4.472 5.137-.011c2.825-.006 6.822-.29 8.883-.63l3.746-.62 1.067-4.12c.587-2.265 2.639-6.438 4.56-9.273 6.296-9.293 16.7-14.176 32.13-15.078l9.25-.54v-1.799c0-.989-.669-4.978-1.486-8.864L602.028 591l1.523-7.24c.837-3.983 2.632-9.665 3.989-12.628 3.661-7.998 10.937-17.67 16.788-22.316 6.903-5.483 16.218-9.814 21.108-9.815 7.612-.002 11.115 6.954 6.183 12.276-1.309 1.412-4.759 3.774-7.666 5.247-7.306 3.702-15.373 12.07-18.974 19.683-2.454 5.187-2.978 7.573-2.978 13.575-.002 13.829 4.978 20.13 21.078 26.672 3.444 1.4 7.085 3.29 8.091 4.2 1.007.91 1.83 2.788 1.83 4.172 0 3.774-2.725 6.174-7.009 6.174-2.034 0-12.202-.94-22.595-2.088-28.764-3.18-38.306-2.025-45.313 5.483-1.806 1.935-2.416 3.714-2.416 7.044 0 2.45.58 5.153 1.289 6.008.709.854 2.359 1.553 3.666 1.553 1.68 0 2.378-.565 2.378-1.923 0-1.058 1.165-3.308 2.589-5 1.738-2.065 3.495-3.077 5.345-3.077 3.66 0 6.42 3.199 6.267 7.263-.067 1.786.198 3.744.589 4.351.896 1.394 104.199 3.51 115.304 2.362 8.853-.914 16.264-4.243 20.433-9.177 1.533-1.814 3.817-5.619 5.076-8.454 2.309-5.203 5.492-8.345 8.453-8.345 2.596 0 8.64 6.036 12.388 12.373 3.824 6.465 7.608 17.088 10.198 28.627 2.447 10.9 2.24 31.667-.437 44-3.966 18.273-10.313 32.794-20.514 46.934-8.383 11.62-18.04 23.003-33.052 38.957-7.391 7.854-13.642 15.48-15.12 18.446-1.94 3.894-2.519 6.599-2.519 11.77v6.715l3.077 2.59c2.451 2.062 4.14 2.588 8.303 2.588 3.657 0 6.833-.8 10.572-2.663m-43.651-7.653c.324-3.474 1.555-8.898 2.736-12.054 2.804-7.494 10.252-18.538 18.533-27.483 7.002-7.563 7.69-10.136 2.711-10.16-3.092-.015-33.75-2.568-77.781-6.476-15.95-1.416-39.35-3.46-52-4.543s-39.875-3.548-60.5-5.477c-20.625-1.928-44.925-4.167-54-4.975-24.82-2.209-86.723-8.178-120-11.571l-58-5.915c-15.675-1.599-33.578-3.46-39.783-4.135-7.14-.777-11.633-.879-12.235-.277-.995.995-2.93 30.674-2.963 45.44-.012 5.333.452 9.179 1.231 10.202 1.01 1.327 5.768 2.034 24.75 3.677 12.925 1.118 28.225 2.492 34 3.052 23.854 2.315 85.206 8.243 109 10.532 14.025 1.35 68.475 6.51 121 11.47 119.86 11.316 146.736 13.877 150.5 14.34 1.65.203 5.072.437 7.605.52l4.606.149zm124.226-29.061c1.085-.758 15.473-8.91 31.973-18.116s33.003-18.68 36.674-21.054c9.044-5.847 21.092-17.483 25.337-24.472 8.765-14.428 12.701-31.868 21.438-94.981 2.247-16.225 4.527-32.65 5.068-36.5 1.925-13.695 4.877-42.176 5.546-53.508 1.031-17.476-1.58-27.287-8.991-33.795-1.95-1.712-5.464-3.673-7.809-4.357S901 512.6 895.5 512.605c-9.613.009-15.716 1.038-40.819 6.883-11.083 2.58-32.962 8.456-35.931 9.65-1.513.607-2.75 1.682-2.75 2.388s2.39 2.632 5.31 4.28c6.4 3.612 11.19 8.857 14.292 15.648 5.654 12.383 6.629 24.407 3.896 48.052-4.686 40.548-12.838 96.632-18.095 124.494-4.241 22.477-11.923 46.314-20.465 63.5-3.28 6.6-5.958 12.563-5.95 13.25.016 1.661 3.079 1.59 5.54-.127M204.421 777.25c.342-7.013 1.062-18.271 1.6-25.019 1.608-20.157 1.48-21.556-2.432-26.682-2.264-2.966-4.01-6.918-5.196-11.759l-1.786-7.29-.651-72.5c-.695-77.366-.645-76.62-5.774-86.653-1.168-2.285-3.807-5.54-5.864-7.237-6.561-5.408-9.902-6.473-20.35-6.488l-9.53-.013-4.429 2.445c-5.859 3.236-11.401 10.766-13.89 18.872-1.11 3.616-2.29 10.849-2.621 16.074-1.545 24.304 5.446 100.666 13.97 152.605 3.476 21.184 6.036 31.452 9.955 39.935 3.757 8.13 10.74 16.3 17.142 20.051 5.25 3.077 17.402 6.282 24.084 6.354l5.15.055zm511.634-18.352c1.298-2.426 2.268-8.744 4.975-32.398 2.292-20.034 2.441-25.41.72-25.97-3.67-1.193-73.352-7.014-131.812-11.01-39.556-2.704-93.414-7.084-135.702-11.035-34.346-3.21-41.426-3.207-51.736.018-10.107 3.161-20.277 4.104-27.683 2.564-3.397-.706-8.186-2.799-11.904-5.202l-6.221-4.02-23.596-1.395c-32.062-1.895-80.19-5.234-93.596-6.494-6.05-.568-14.075-1.31-17.834-1.647l-6.833-.613.335 22.902c.404 27.571.725 28.642 9.07 30.302 2.894.576 11.562 1.752 19.262 2.613s21.2 2.439 30 3.506 40.525 4.41 70.5 7.429c92.978 9.363 161.101 15.596 280 25.62 13.475 1.135 35.75 3.099 49.5 4.363s28.697 2.36 33.215 2.434l8.215.135zM743.693 735c3.117-6.397 7.115-23.764 8.417-36.566 1.026-10.08.718-22.046-.757-29.42-.404-2.018-1.2-3.014-2.41-3.014-.995 0-2.053.788-2.351 1.75-1.385 4.463-8.592 61.714-8.592 68.249 0 3.407.313 4.09 1.75 3.824.962-.178 2.737-2.348 3.943-4.823m-17.94-52.75c.378-.962.702-4.225.718-7.25l.029-5.5-2.5.118c-1.375.064-8.982.67-16.905 1.347-11.273.962-23.56.977-56.5.069-49.14-1.355-68.34-2.385-74.653-4.005-2.507-.643-7.232-3.192-10.5-5.665l-5.942-4.494-16 .38c-12.551.297-18.964.988-29.75 3.207-9.71 1.997-13.75 3.236-13.75 4.217 0 .764.562 1.585 1.25 1.824 1.386.483 37.55 3.42 79.75 6.479 33.031 2.393 111.306 8.726 122.5 9.91 4.4.466 11.052.907 14.781.98 5.607.11 6.901-.17 7.471-1.617M353.178 652.5c.446-1.65.603-3.562.348-4.25-.66-1.78-5.664-1.439-16.017 1.09-6.52 1.594-9.08 2.661-9.315 3.887l-.326 1.69 8.316.36c4.573.199 10.085.33 12.248.292l3.934-.069zM267 647.868c0-.623-.996-2.743-2.213-4.713-1.754-2.838-2.297-5.506-2.62-12.868-.3-6.854-.754-9.287-1.735-9.287-2.816 0-18.257 5.398-24.932 8.716-7.515 3.735-16.5 11.605-16.5 14.451 0 2.13 2.487 2.646 18 3.738 18.177 1.28 30 1.265 30-.037m548.442-10.685c1.094-3.448 4.633-39.723 5.238-53.686.496-11.474.302-15.048-1.077-19.791-2.107-7.246-6.897-12.703-13.861-15.79-4.14-1.835-7.03-2.326-13.742-2.331-6.852-.006-9.319.422-12.722 2.21-5.439 2.856-10.99 7.748-12.83 11.304-1.984 3.838-1.817 8.497.585 16.274l2.034 6.583 8.345 6.97c4.59 3.834 10.371 9.356 12.848 12.272 6.85 8.067 15.545 21.985 18.941 30.325 2.991 7.344 5.1 9.256 6.24 5.66M226.802 613.6c7.653-3.853 35.141-13.946 58.198-21.367 8.525-2.744 24.5-7.11 35.5-9.7 11-2.591 24.05-5.683 29-6.872l9-2.16 2.389-6c1.314-3.3 2.576-7.8 2.805-10l.417-4-4.637-5.75c-3.916-4.857-5.138-5.75-7.867-5.75-1.778 0-7.226 1.35-12.107 3s-9.711 3-10.733 3c-2.211 0-6.767-4.294-6.767-6.378 0-.808 1.173-2.863 2.607-4.567 2.008-2.386 4.649-3.72 11.5-5.805 6.643-2.022 8.893-3.137 8.893-4.408 0-1.269-1.458-1.994-5.75-2.858-11.704-2.357-13.344-2.815-15.77-4.405-3.318-2.174-3.298-6.462.043-9.6l2.523-2.37 7.727 1.128c9.718 1.42 10.517.863 9.35-6.52-.457-2.892-1.122-5.55-1.479-5.906-.905-.905-38.053 3.715-91.144 11.336-41.491 5.955-58.807 8.807-60.742 10.002-1.837 1.136-.43 3.353 3.643 5.74 5.782 3.388 11.905 10.456 15.65 18.063 1.661 3.375 3.943 10.391 5.07 15.592 1.639 7.562 2.158 14.512 2.593 34.706.445 20.685.796 25.25 1.94 25.25.768 0 4.435-1.53 8.149-3.4M420 550.09c-3.025-1.014-8.55-2.108-12.276-2.431-3.727-.323-8.805-1.485-11.284-2.582-3.388-1.498-4.885-2.896-6.027-5.63l-1.519-3.635 1.611-2.46c.886-1.352 2.336-2.737 3.222-3.076.885-.34 2.92.134 4.522 1.053 4.055 2.327 8.452 2.189 9.239-.29.719-2.265-.417-4.758-3.395-7.454-2.632-2.382-2.696-6.729-.133-9.047 2.26-2.046 7.68-2.242 14.196-.512 5.312 1.41 8.844 4.508 8.844 7.755 0 1.337-1.125 3.768-2.5 5.402-3.004 3.57-3.196 6.878-.54 9.282 1.451 1.313 2.816 1.601 5.25 1.108 8.89-1.802 9.875-1.805 11.835-.032 2.83 2.562 2.438 6.206-1.016 9.433-2.634 2.46-9.588 5.087-13.222 4.994-.719-.019-3.782-.864-6.807-1.878m338.098-12.708c2.152-2.592 15.472-11.262 22.211-14.456 3.405-1.614 11.87-4.728 18.81-6.919s13.053-4.551 13.584-5.245c.532-.694 1.785-4.411 2.786-8.261 2.693-10.361 9.873-29.045 17.643-45.905 3.777-8.197 6.868-15.798 6.868-16.89v-1.987l-8.75.637c-4.812.351-18.875.92-31.25 1.266-17.053.476-27.1.226-41.5-1.031-23.962-2.093-50.993-5.612-73.5-9.57-9.625-1.692-18.85-2.951-20.5-2.798l-3 .278-3.884 8C651.35 447.407 640 476.079 640 479v2.69l10.25 1.213c13.655 1.615 30.74 5.473 43.133 9.74 12.29 4.231 28.573 13.322 38.386 21.43 3.999 3.303 9.993 9.476 13.322 13.717s6.69 8.498 7.47 9.46c1.773 2.186 3.793 2.234 5.537.131m-303.862-17.4c-7.945-1.788-17.124-11.307-15.839-16.427.757-3.015 4.348-6.554 6.65-6.554.92 0 3.716 1.8 6.216 4l4.544 4 4.846-.031c3.361-.022 6.073-.787 8.847-2.495 2.2-1.355 4.98-2.466 6.177-2.469C478.01 500 482 504.282 482 506.79c0 2.587-7.621 8.926-13.195 10.975-6.963 2.558-10.594 3.111-14.57 2.216m-67.878-10.025c-7.1-1.49-15.358-9.085-15.358-14.126 0-2.845 3.76-6.83 6.443-6.83.998 0 3.603 1.615 5.788 3.59l3.973 3.59 5.148-.597c10.724-1.242 10.786-1.234 12.969 1.667l2.07 2.75-2.008 2.688c-1.103 1.479-3.104 3.5-4.445 4.494-3.032 2.245-10.41 3.649-14.58 2.774m471.967-9.99C872.61 496.829 891.516 494 898.21 494c3.177 0 4.003-.432 4.792-2.508.524-1.379 1.685-15.441 2.58-31.25 1.913-33.82 1.517-71.687-.837-79.807-.807-2.786-2.95-8.186-4.761-12-4.693-9.88-15.757-20.797-26.595-26.242-13.09-6.576-20.676-8.093-45.89-9.173-42.054-1.801-311.613-5.677-326.5-4.695-11.957.79-26.398 4.755-38.68 10.622-11.898 5.684-18.017 9.848-27.217 18.522-13.024 12.28-23.01 27.339-28.015 42.25-3.185 9.486-2.919 10.744 3.523 16.643l5.611 5.138 16.64.08c14.023.069 17.775.422 23.875 2.25 3.98 1.194 8.48 2.17 10 2.17 2.223 0 4.766-2.135 13-10.912 11.325-12.069 20.572-19.543 29.975-24.23 4.976-2.479 6.927-2.96 9.806-2.42 2.242.42 5.044 2.124 7.45 4.53 3.23 3.23 4.109 5.05 5.407 11.194 1.714 8.11 3.134 23.446 4.588 49.563.654 11.726 1.44 18.152 2.461 20.128.826 1.597 2.407 6.173 3.515 10.168 1.107 3.995 2.239 7.49 2.516 7.767s5.943-.702 12.591-2.176c15.286-3.389 29.94-5.453 46.293-6.522 8.723-.57 13.238-1.28 14.083-2.215.684-.756 3.874-7.9 7.089-15.875 7.909-19.62 19.97-46.434 22.635-50.325 5.482-8 9.264-8.684 28.854-5.222 27.266 4.819 50.496 8.458 61 9.557 16.851 1.762 64.684 2.807 87.972 1.922 13.673-.52 23.158-.454 26.114.18 2.98.639 5.677 2.076 7.528 4.01l2.886 3.014-.105 5.682c-.083 4.465-1.632 9.693-7.235 24.412-7.89 20.728-13.16 37.507-13.16 41.9 0 1.64.54 2.87 1.26 2.87.692 0 7.471-1.365 15.065-3.033M346.18 477.75c1.682-1.345 3.819-6.884 3.819-9.9V466H145v11.99l98.75.26c54.313.143 99.226.37 99.809.505s1.762-.317 2.622-1.005M195 406v-43h-29v86h29zm36-4v-47h-20v94h20zm38.572 44.57c.796-3.174.08-105.251-.745-106.076-.347-.347-5.063-.713-10.479-.813l-9.848-.181-.259 54.75-.258 54.75h20.979zm91.365-5.446c1.087-2.132 4.405-10.345 7.373-18.25 2.967-7.907 6.362-16.27 7.543-18.585 1.18-2.315 2.147-4.886 2.147-5.714 0-2.173-3.22-3.575-8.212-3.575-4.933 0-8.475 2.047-9.865 5.701-1.258 3.31-4.923 32.376-4.923 39.049V445h1.98c1.292 0 2.666-1.346 3.957-3.876M487 312.654c4.125-.923 14.587-1.965 23.25-2.316l15.75-.637V301H145v14.029l167.25-.348 167.25-.347zm66-74.154V167h-9.728l-.636 4.64c-.85 6.199-.82 136.842.03 137.693.367.367 2.842.667 5.5.667H553zm-328.24-3.75.258-50.75H204v102.07l10.25-.285 10.25-.285zM190 226v-59h-22v118h22zm68.46 48.75c.359-5.637.514-31.85.346-58.25l-.306-48-9.75-.286-9.75-.286V285h18.808zm42.3-41.5.258-51.25H273v103.056l13.75-.278 13.75-.278zm36.74-6.75v-58h-21l-.26 57c-.142 31.35-.038 57.578.232 58.285.367.958 3.106 1.213 10.76 1l10.268-.285zm68.862 55.49c5.534-2.51 6.638-3.414 6.638-5.437 0-1.335-3.576-8.868-7.948-16.74-4.37-7.872-15.068-27.584-23.772-43.804-10.348-19.283-16.434-29.607-17.584-29.829-.968-.186-4.67 1.023-8.228 2.688-5.213 2.44-6.468 3.474-6.468 5.334 0 1.268 4.1 9.954 9.11 19.302 23.429 43.71 37.213 69.103 38.13 70.246.553.688 1.563 1.25 2.244 1.25s4.227-1.354 7.878-3.01M459 231.5V179h-21v105h21zm34 0V179h-20v105h20zm33-6V168h-18v115h18zm25-88.02v-7.519l-171.75.27-171.75.269-8 2.765c-11.028 3.812-18.938 7.899-19.323 9.985l-.324 1.75H551z"/><path fill="#458176" fill-rule="evenodd" d="M126.695 517.647c-.777-2.025-.798-121.214-.022-123.237.487-1.269.767-1.317 1.431-.244 1.067 1.722 1.047 121.97-.02 123.697-.64 1.037-.925.992-1.39-.216m85.159-66.715c-1.455-.566-2.912-2.02-3.236-3.23-.325-1.211-.597-21.597-.604-45.303-.01-28.508.354-44.157 1.074-46.22.857-2.459 1.833-3.261 4.595-3.78 5.56-1.042 16.302.157 18.175 2.03l1.642 1.642v91.858l-1.698 1.698c-1.238 1.238-3.811 1.784-9.5 2.016-4.291.175-8.993-.145-10.448-.71m141.127-6.49c-.934-2.83-.834-6.467.49-17.75 2.896-24.682 4.651-29.605 11.9-33.376 4.964-2.581 14.629.616 14.629 4.839 0 1.059-.88 3.65-1.957 5.76s-4.393 10.328-7.371 18.262c-6.09 16.225-8.001 20.333-10.963 23.573-3.032 3.316-5.351 2.864-6.728-1.309M126.6 380.455c-.368-1.674-.443-6.399-.167-10.5.276-4.1.516-7.869.534-8.373s.277-.672.575-.373c1.027 1.027 1.554 17.352.64 19.82l-.913 2.47zm739.596-61.911c-7.79-2.471-30.904-3.506-90.697-4.062l-126.842-1.18-67.842-.632-2.158-1.747-2.158-1.747V116.559l2.5-1.288c2.005-1.034 23.087-1.224 106.5-.961l104 .328 9.575 2.092c13.207 2.885 24.797 7.679 35.425 14.65 21.07 13.822 35.173 33.815 41.185 58.387l1.648 6.733.347 59c.374 63.581.359 63.786-4.703 64.205-1.362.112-4.413-.41-6.78-1.16m-739.55-17.021c-.357-.933-.267-2.381.202-3.22l.853-1.523.65 1.695c.358.933.268 2.381-.201 3.22l-.853 1.523zm47.212-13.204c-3.014-.273-5.292-1.14-6.5-2.475l-1.859-2.055V168.21l1.905-2.105L169.31 164h21.62l1.066 1.992c.729 1.363.977 20.464.785 60.465l-.281 58.473-1.7 1.698c-1.797 1.797-8.453 2.462-16.94 1.692m143.023-1.823c-1.636-.89-2.854-2.607-3.25-4.585-.846-4.23-.618-108.748.244-111.832.904-3.234 5.824-4.908 14.7-5.004l7.075-.076 2.425 2.58 2.424 2.581V282.84l-2.424 2.58-2.427 2.58-8.075-.04c-5.018-.025-9.067-.579-10.694-1.463m-190.243-.995c-.953-2.483-.743-33.79.237-35.336 1.624-2.562 2.124 1.744 2.109 18.166-.015 15.327-.812 21.166-2.346 17.17m269.688.015c-2.109-1.478-5.05-6.262-12.61-20.517-5.392-10.166-17.65-32.993-25.238-47-11.14-20.564-12.324-23.266-11.239-25.652 1.178-2.592 13.743-8.631 16.995-8.17 1.713.244 3.362 2.438 6.765 8.998 2.475 4.772 8.281 15.572 12.903 24S394.549 236.775 397.29 242s6.435 11.975 8.208 15c7.604 12.971 10.827 19.712 10.202 21.339-.356.928-4.09 3.257-8.299 5.174S399.457 287 399.098 287s-1.606-.667-2.77-1.483m113.681-.41c-1.37-.381-3.06-1.799-3.753-3.15-.979-1.908-1.204-14.903-1.008-58.172l.253-55.715 1.659-1.658c1.282-1.282 3.522-1.65 9.877-1.622 6.211.027 8.615.432 9.841 1.658l1.623 1.622.282 56.934.281 56.933-2.031 2.031c-1.637 1.637-3.248 2.013-8.282 1.932-3.437-.055-7.371-.411-8.742-.793m-383.52-47.299c-.368-1.465-.213-3.477.344-4.471l1.011-1.809.669 2.664c.368 1.465.213 3.477-.344 4.471l-1.011 1.809z"/></svg>