<svg version="1.1" xmlns="http://www.w3.org/2000/svg" style="display: block;" viewBox="0 0 2048 2048" width="1024" height="1024">
<path transform="translate(0,0)" fill="rgb(156,198,240)" d="M 0 0 L 2048 0 L 2048 2048 L 0 2048 L 0 0 z"/>
<path transform="translate(0,0)" fill="rgb(0,44,128)" d="M 1390.21 177.578 C 1406.32 175.931 1422.78 178.234 1438.97 178.152 L 1564.16 178.041 L 1776.63 177.828 C 1805.61 177.929 1835.11 176.847 1864.03 178.068 C 1871.92 178.401 1883.58 179.619 1890.33 183.925 C 1894.33 199.817 1892.08 240.955 1892.06 259.532 L 1892.16 401.495 L 1891.15 865.669 C 1891.08 880.808 1891.93 895.963 1892.06 911.105 C 1892.38 948.686 1892.27 986.467 1891.67 1024.04 C 1891.52 1033.47 1892.08 1044.78 1889.04 1053.74 C 1888.03 1056.72 1886.82 1057.98 1884.07 1059.4 C 1881.24 1059.15 1879.6 1057.94 1877.55 1056.1 C 1875.49 1054.24 1874.81 1052.14 1874.4 1049.49 C 1873.16 1041.59 1874.07 1032.66 1874.18 1024.64 C 1874.4 1008.74 1874.73 992.846 1874.29 976.942 C 1809.99 976.985 1745.69 976.447 1681.41 975.326 C 1651.97 974.837 1622.35 975.82 1592.98 973.714 C 1593.32 980.515 1593.33 987.232 1593.17 994.039 C 1605.74 995.629 1618.36 995.74 1630.98 996.567 C 1655.21 998.153 1679.37 999.85 1703.62 1001.11 C 1724.33 1002.18 1745 1002.99 1765.41 1006.91 C 1793.43 1012.29 1813.52 1026.82 1834.09 1045.71 C 1842.17 1053.13 1850.06 1060.34 1856.24 1069.5 C 1872.34 1093.37 1876.17 1123.68 1870.52 1151.68 C 1864.85 1179.74 1846.34 1199.27 1823.29 1214.79 C 1823.36 1225.11 1818.47 1234.58 1818.47 1245.36 L 1818.19 1548.12 C 1818.24 1570.58 1821.05 1593.1 1820.89 1615.56 C 1820.73 1636.88 1813.71 1664.59 1797.92 1679.71 C 1781.92 1695.02 1757.09 1697.87 1736.01 1697.09 C 1735.92 1717.76 1737.84 1738.4 1739.08 1759 C 1740.3 1779.32 1740.74 1799.7 1743.02 1819.94 L 1800.48 1822.55 C 1809 1822.91 1819.08 1822.05 1827.35 1824 C 1831.41 1824.95 1836.22 1827.18 1837.92 1831.32 C 1838.9 1833.73 1838.4 1834.85 1837.46 1837.02 C 1833.78 1840.28 1830.69 1840.98 1825.83 1841.46 C 1804.18 1843.59 1780.78 1841.84 1758.93 1841.81 C 1737.44 1841.78 1701.46 1843.57 1681.81 1840.51 C 1674.43 1839.36 1664.2 1835.29 1658.57 1830.05 C 1655.29 1827 1652.69 1821.54 1650.89 1817.43 C 1642.68 1798.7 1637.11 1778.12 1630.59 1758.72 C 1624.72 1741.23 1612.97 1715.8 1611.87 1698 C 1597.44 1696.01 1582.07 1696.88 1567.51 1696.97 L 1501.37 1697.17 L 1256.82 1697.37 L 735.746 1696.87 C 724.238 1696.85 712.728 1697.58 701.215 1697.64 L 567.829 1697.75 C 527.746 1698.17 487.659 1697.93 447.583 1697.05 C 442.863 1716.23 435.225 1735.03 429.056 1753.8 C 422.878 1772.61 417.888 1793.32 409.315 1811.12 C 406.206 1817.58 402.466 1822.56 397.593 1827.76 C 418.42 1822.29 442.833 1824.93 464.378 1824.89 L 550.012 1824.59 L 858.235 1823.88 C 897.085 1823.73 935.85 1824.5 974.716 1823.75 C 1008.84 1824.25 1042.91 1823.11 1077 1823.07 C 1103.9 1823.03 1131.04 1824.6 1157.89 1824.09 C 1174.32 1823.77 1190.73 1823.11 1207.17 1823.13 C 1218.14 1823.15 1229.1 1823.92 1240.07 1823.74 C 1254.66 1823.51 1269.75 1821.43 1284.29 1822.73 C 1288.34 1823.09 1292.84 1823.46 1295.26 1827.25 C 1296.5 1829.2 1296.47 1832.03 1295.84 1834.17 C 1295.2 1836.36 1293.5 1838 1291.61 1839.16 C 1288.38 1841.15 1284.36 1841.72 1280.65 1842.02 C 1264.08 1843.35 1246.3 1841.82 1229.56 1841.81 L 1112.12 1841.56 L 403 1841.14 C 364.994 1840.91 326.89 1841.82 288.864 1841.9 C 271.116 1841.94 250.438 1844.04 233.12 1840.04 C 228.909 1839.07 224.102 1837.95 222.36 1833.49 C 221.456 1831.18 222.279 1830.37 223.366 1828.4 C 237.217 1818.59 300.114 1818.62 318.348 1821.1 L 320.076 1821.35 C 320.117 1779.7 323.009 1737.38 327.324 1695.96 C 308.258 1696.23 288.268 1695.43 270.598 1687.41 C 252.55 1679.22 242.81 1662.47 238.14 1643.97 C 229.795 1610.91 235.957 1579.41 236.31 1546.06 C 236.462 1531.75 235.649 1517.53 235.641 1503.25 L 235.526 1344.79 L 235.47 1278.49 C 235.552 1265.19 236.682 1251.11 235.199 1237.93 C 234.203 1229.09 229.259 1219.46 226.07 1211.16 C 206.34 1200.71 187.161 1199.45 174.099 1178.74 C 159.559 1155.68 157.303 1120.8 163.421 1094.79 C 170.239 1065.8 187.529 1044.93 212.677 1029.61 C 226.162 1021.41 240.969 1015.62 256.437 1012.49 C 271.155 1009.5 286.317 1010.24 301.23 1008.83 C 350.411 1004.16 399.016 998.859 448.447 997.043 C 466.789 996.369 487.381 994.541 505.29 998.871 C 510.221 988.184 514.192 978.859 523.672 971.32 C 513.461 955.45 506.065 939.52 498.663 922.24 C 482.576 925.742 448.392 931.251 432.955 924.996 C 430.143 923.857 427.285 921.961 426.484 918.833 C 425.699 915.764 427.028 911.482 429.009 909.091 C 432.773 904.548 480.103 902.636 489.163 901.719 C 486.036 891.163 484.17 880.431 482.724 869.534 C 482.433 869.48 482.143 869.423 481.852 869.373 L 480.395 869.133 C 462.084 866.021 427.809 870.598 413.63 864.822 C 411.633 862.939 409.786 860.54 409.571 857.657 C 409.39 855.236 410.108 853.915 411.822 852.241 C 419.263 844.971 470.175 847.856 481.941 849.168 C 481.7 804.906 485.897 777.713 505.289 737.37 C 500.087 703.06 499.91 668.175 504.762 633.813 C 507.087 616.935 516.453 566.244 530.428 556.469 C 535.249 553.097 541.603 552.631 547.193 553.927 C 565.098 558.079 591.268 582.621 603.218 596.339 C 611.236 605.543 618.243 615.793 625.773 625.407 C 633.443 635.2 641.327 644.698 648.135 655.131 C 659.086 655.084 670.332 652.97 681.273 652.028 C 707.68 649.755 732.667 649.9 758.967 653.603 C 759.766 652.097 760.612 650.617 761.505 649.165 C 777.287 623.547 822.338 579.651 848.329 563.99 C 855.902 559.427 863.076 556.679 871.676 554.682 C 876.156 556.141 879.837 557.699 883.789 560.276 C 901.274 590.029 902.343 646.308 899.778 680.76 C 912.974 682.151 927.781 678.357 941.049 677.149 C 962.927 675.156 985.524 673.949 1007.5 673.982 C 1020.17 674.001 1032.83 674.681 1045.5 674.837 C 1058.54 674.998 1071.58 674.416 1084.63 674.913 C 1107.78 675.796 1151.08 679.609 1173.13 675.698 C 1171.59 633.497 1172.54 590.826 1172.58 548.584 L 1172.65 343.001 L 1172.12 234.746 C 1171.98 220.642 1170.48 206.008 1171.12 191.977 C 1171.32 187.612 1172.21 184.972 1174.81 181.515 C 1184.42 175.41 1366.66 178.628 1390.21 177.578 z"/>
<path transform="translate(0,0)" fill="rgb(156,198,240)" d="M 541.002 572.61 C 570.686 590.027 595.83 620.649 616.363 648.027 C 623.527 657.577 629.998 667.85 637.756 676.918 L 638.513 677.788 C 650.706 676.873 662.652 674.386 674.757 672.783 C 689.726 670.8 705.468 669.71 720.568 669.591 C 732.367 669.498 753.842 675.857 763.505 673.619 C 772.057 671.639 781.969 651.8 787.989 644.951 C 810.675 619.135 838.505 592.181 869.365 576.561 C 875.05 597.676 875.084 619.388 876.146 641.056 C 876.627 650.859 878.281 660.552 878.831 670.34 C 880.135 693.54 878.448 719.536 874.167 742.262 C 892.184 770.731 897.431 797.378 899.827 830.75 C 895.3 831.763 891.073 832.451 887.136 835.046 C 887.167 835.4 887.315 835.764 887.23 836.11 C 886.687 838.306 885.396 839.902 885.112 842.295 C 884.703 845.742 885.91 848.053 888.083 850.628 C 890.35 851.715 891.635 851.634 894.044 851.33 C 895.969 851.086 897.33 850.859 899.25 851.316 C 900.407 856.4 898.383 864.776 897.757 870.061 C 894.176 870.186 889.877 869.972 886.399 870.78 C 883.41 871.474 878.838 873.735 877.444 876.696 C 876.467 878.773 876.324 880.487 877.456 882.534 C 880.412 887.878 887.72 889.008 893.097 890.353 C 883.733 913.134 873.267 934.209 857.749 953.535 C 850.657 962.368 832.105 969.613 830.655 981.897 C 830.34 984.57 830.536 985.076 832.136 986.984 C 835.375 987.986 837.732 987.337 840.746 986.065 C 885.493 967.173 898.128 936.793 915.548 894.639 C 961.579 906.624 1000.13 896.405 1045.97 891.882 C 1146.52 881.963 1265.55 889.632 1355.3 939.883 C 1405.05 967.736 1453.56 1018.89 1476.83 1071.58 C 1481.62 1082.43 1484.71 1093.69 1487.9 1105.08 C 1497.18 1113.21 1509.72 1117.85 1519.94 1124.86 C 1559.91 1152.28 1596.82 1185.32 1620.4 1228.27 C 1646.61 1276.02 1652.3 1351.3 1646.29 1404.93 C 1644.27 1422.94 1639.93 1441.61 1634.77 1458.99 C 1613.18 1531.66 1558.42 1595.28 1492.12 1631.24 C 1478.28 1638.76 1464.14 1645.44 1449.05 1650.09 C 1413.08 1661.18 1352.52 1666.62 1316.38 1655.54 C 1302 1651.13 1281.61 1642.28 1274.52 1628.19 C 1271.83 1622.83 1270.96 1617.05 1273.03 1611.33 C 1275.15 1605.46 1279.85 1599.62 1285.54 1596.96 C 1302.21 1589.15 1323.63 1589.55 1341.75 1587.03 C 1365.78 1583.69 1391.03 1577.93 1413.21 1567.88 C 1437.14 1557.05 1497.23 1517.39 1506.62 1492.62 L 1504.75 1491.23 C 1505.82 1489.84 1505.24 1490.39 1506.81 1489.3 C 1509.81 1487.22 1512.86 1485.25 1515.28 1482.48 C 1519.67 1477.48 1523.02 1468.78 1526.09 1462.7 C 1549.39 1416.53 1552.42 1366.7 1548.8 1316.03 C 1546.44 1282.95 1525.58 1256.89 1505.82 1232.09 C 1499.67 1224.36 1494.06 1215.53 1486.45 1209.17 C 1482.95 1206.24 1479.86 1204.16 1475.16 1204.58 C 1472.94 1205.74 1471.47 1207.27 1470.79 1209.73 C 1469.29 1215.17 1472.24 1220.36 1474.68 1225.01 C 1470.61 1237.08 1465.3 1248.15 1456.47 1257.47 C 1444.44 1270.17 1428.67 1277.58 1412.16 1282.64 C 1393.63 1288.32 1374.31 1290.28 1355.13 1292.5 C 1334.84 1294.85 1314.31 1297.12 1293.93 1298.36 C 1265.16 1300.09 1236.4 1300.61 1207.67 1303.26 C 1187.86 1305.08 1168.24 1308.27 1148.58 1311.26 C 1137.98 1312.87 1127.26 1315 1116.52 1315.33 C 1118.25 1309.82 1123.84 1301.92 1122.16 1296.15 C 1121.43 1293.65 1119.35 1291.88 1117.09 1290.76 C 1114.61 1289.55 1112.37 1289.65 1109.83 1290.57 C 1102.25 1293.3 1095.92 1308.7 1092.35 1315.49 C 1087.09 1316.25 1081.76 1316.96 1076.44 1316.88 C 1071.44 1316.81 1066.18 1316.88 1062.54 1313.1 C 1065.29 1303.68 1078.23 1292.08 1079.03 1283.11 C 1079.26 1280.63 1078.32 1278.44 1076.44 1276.82 C 1073.96 1274.68 1069.5 1274.14 1066.43 1274.94 C 1057.62 1277.25 1046.79 1302.95 1042.27 1311.19 C 1037.15 1307.66 1031.88 1304.31 1026.67 1300.91 C 1027.33 1297.68 1027.99 1294.43 1029.04 1291.3 C 1031.73 1283.31 1035.86 1277.27 1042.61 1272.2 C 1072.02 1250.11 1155.96 1239.43 1192.74 1237.41 C 1208.27 1236.56 1264.99 1237.51 1274.54 1231.64 C 1277.03 1230.11 1277.14 1229.66 1277.71 1227 C 1275.59 1221.6 1269.79 1218.73 1264.66 1216.72 C 1256.42 1213.48 1246.43 1212.71 1237.71 1210.81 C 1215.89 1206.04 1194.81 1199.87 1174.7 1189.96 C 1162.47 1183.66 1149.83 1174.79 1141.27 1163.9 C 1126.87 1145.59 1123.67 1119.89 1126.52 1097.38 C 1130.57 1065.43 1149.75 1035.3 1175.37 1016.16 C 1182.89 1010.55 1193.22 1006.08 1199.83 999.661 C 1201.55 997.993 1202.91 995.009 1202.77 992.519 C 1202.62 989.928 1202.3 989.526 1200.43 988.019 C 1194.23 987.999 1188.72 988.843 1182.87 990.961 C 1155.56 1000.84 1128.98 1032.79 1117.09 1058.4 C 1103.32 1088.07 1102.36 1124.65 1113.75 1155.25 C 1127.29 1191.62 1159.09 1203.92 1192.11 1218.9 C 1190.65 1218.91 1189.19 1218.95 1187.73 1219.02 C 1167.65 1220.1 1147.62 1222.04 1127.71 1224.82 C 1084.63 1230.54 1047.93 1237.4 1017.49 1271.03 C 1007.5 1269.79 997.017 1270.72 986.968 1270.82 C 973.711 1270.86 960.454 1270.75 947.2 1270.49 C 954.16 1265.51 959.192 1261.03 963.693 1253.62 C 980.903 1225.26 987.451 1183.58 979.499 1151.33 C 977.603 1143.65 973.215 1129.14 965.658 1125.57 C 961.85 1123.78 959.206 1124.56 955.586 1126.06 C 954.989 1126.73 954.141 1127.25 953.794 1128.07 C 951.17 1134.34 959.761 1178.89 960.272 1189.96 C 960.779 1200.93 959.933 1212.2 957.114 1222.85 C 953.461 1236.64 945.474 1251.25 932.169 1257.72 C 909.657 1268.67 871.169 1265.65 846.299 1265.74 C 807.922 1265.89 714.954 1264.77 681.44 1274.57 C 658.719 1281.21 638.782 1302.96 619.783 1316.61 C 608.155 1324.97 595.876 1332.12 583.466 1339.23 L 583.298 1337.95 C 583.206 1337.29 583.095 1336.64 583.01 1335.98 C 582.852 1334.75 582.789 1333.52 582.517 1332.3 C 580.965 1325.31 573.156 1303.28 566.86 1299.67 C 565.45 1298.86 563.1 1299.71 561.617 1300.28 C 546.521 1306.11 565.374 1330.8 561.244 1341.08 C 555.835 1344.87 546.273 1342.35 539.948 1341.67 C 539.354 1327.33 538.235 1314.31 533.549 1300.67 C 531.586 1300.08 529.373 1299.22 527.348 1298.96 C 524.922 1298.66 523.098 1298.98 521.295 1300.75 C 514.522 1307.4 520.498 1331.98 521.703 1340.63 C 512.728 1337.58 508.374 1334.55 503.224 1326.49 C 503.067 1323.6 502.96 1320.71 502.902 1317.81 C 502.644 1300.88 509.97 1285.36 519.747 1271.91 C 561.653 1214.3 659.266 1189.55 725.72 1175.19 C 739.894 1172.13 754.709 1171.09 768.705 1167.42 C 772.224 1166.5 776.967 1165.05 779.201 1161.91 C 780.682 1159.82 780.936 1157.5 780.217 1155.1 C 778.565 1149.6 772.895 1146.12 768.241 1143.49 C 761.133 1144.11 753.96 1145.34 746.919 1146.5 C 690.469 1155.84 604.169 1184.46 555.268 1214.81 C 535.109 1227.32 515.34 1243.36 501.573 1262.88 C 485.755 1285.31 481.933 1308.49 486.515 1335.2 C 468.723 1352.23 454.292 1384.67 453.043 1409.19 C 452.416 1421.49 454.993 1434.18 452.672 1446.37 C 451.062 1454.83 446.685 1458.07 439.934 1462.58 C 435.731 1452.75 433.28 1444.42 425.909 1436.3 C 425.453 1436.26 424.997 1436.24 424.542 1436.2 C 421.935 1435.97 417.993 1435.1 415.587 1436.38 C 413.207 1437.65 411.986 1439.06 411.125 1441.61 C 407.974 1450.96 420.269 1470.55 424.501 1478.61 C 417.002 1481.81 409.248 1483.63 401.21 1484.8 C 401.005 1470.64 395.285 1451.72 391.065 1438.1 C 387.928 1436.95 384.252 1435.1 380.882 1435.3 C 379.444 1435.38 378.406 1436.21 377.574 1437.37 C 371.084 1446.39 375.714 1472.45 377.112 1482.9 C 370.962 1473.3 365.197 1464.13 362.083 1453.06 C 348.239 1403.85 362.152 1349.51 386.366 1306.06 C 392.338 1295.35 399.146 1284.38 407.356 1275.22 C 434.915 1244.46 485.002 1216.38 524.507 1204.5 C 531.628 1202.36 538.57 1203.66 545.837 1204.49 C 550.613 1184.42 524.033 1187.59 514.026 1165.69 C 499.737 1134.42 501.116 1104.51 507.208 1071.48 C 513.785 1035.82 520.39 1017.7 533.123 984.66 C 545.502 994.664 558.95 1002.75 573.91 1008.29 C 581.581 1011.14 593.806 1017.35 601.802 1013.28 C 604.498 1011.91 607.398 1009 608.148 1005.98 C 609.022 1002.46 608.09 998.894 605.342 996.439 C 599.842 991.526 572.154 983.54 562.431 977.877 C 540.884 965.329 529.951 939.62 519.567 918.093 C 528.158 915.782 538.326 915.164 546.182 910.876 C 549.287 909.181 552.993 905.821 553.658 902.147 C 554.175 899.289 553.671 898.902 552.041 896.725 C 541.103 891.491 522.075 896.138 510.299 897.626 C 508.124 888.365 505.539 879.029 504.573 869.552 C 515.333 870.5 559.917 878.267 566.627 874.726 C 568.7 873.632 569.766 871.894 570.131 869.613 C 570.57 866.877 569.674 864.516 568.012 862.395 C 560.561 852.885 515.079 851.456 501.954 849.936 C 500.414 812.171 505.347 774.984 525.208 742.149 C 524.861 728.462 521.935 714.914 521.137 701.245 C 518.664 658.823 523.235 611.454 541.002 572.61 z"/>
<path transform="translate(0,0)" fill="rgb(0,44,128)" d="M 729.492 845.214 C 737.495 844.7 761.02 845.519 766.574 851.212 C 768.524 853.211 769.152 855.016 768.94 857.793 C 768.311 866.048 757.219 874.642 751.7 879.781 C 752.059 883.395 752.303 887.15 753.059 890.705 C 758.512 916.367 787.523 898.898 797.629 905.078 C 798.609 906.872 798.884 907.704 798.778 909.814 C 798.595 913.473 796.494 917.196 793.724 919.516 C 787.779 924.496 777.717 926.083 770.211 925.538 C 759.376 924.752 752.303 920.442 745.286 912.653 C 736.999 919.191 726.555 925.95 716.178 928.324 C 708.994 929.967 693.179 930.008 687.078 924.805 C 684.806 922.868 682.455 916.709 682.816 913.702 C 684.181 902.324 713.638 915.003 726.699 903.283 C 734.369 896.4 734.026 887.589 734.237 878.138 C 733.465 877.831 732.7 877.505 731.952 877.144 C 724.954 873.768 713.835 866.984 711.96 858.949 C 711.333 856.266 711.62 854.015 713.252 851.729 C 716.623 847.009 724.217 846.236 729.492 845.214 z"/>
<path transform="translate(0,0)" fill="rgb(0,44,128)" d="M 609.91 792.225 C 626.288 790.134 634.264 803.493 648.919 807.334 C 657.904 809.688 669.815 807.85 679.143 807.37 C 680.087 810.772 680.718 814.327 681.487 817.778 C 678.146 820.684 674.643 823.335 671.117 826.011 C 669.445 827.011 667.61 827.969 665.721 828.477 C 652.033 832.159 633.548 825.106 621.833 818.242 C 615.49 814.526 607.656 809.099 606.221 801.328 C 605.501 797.428 607.867 795.268 609.91 792.225 z"/>
<path transform="translate(0,0)" fill="rgb(0,44,128)" d="M 851.81 794.355 L 856.075 794.204 L 857.894 796.078 C 858.659 798.765 858.892 800.67 857.558 803.195 C 853.029 811.771 842.404 817.425 833.492 820.459 C 816.21 826.343 801.733 823.623 785.57 815.787 C 782.74 814.301 780.599 813.076 778.418 810.717 C 777.89 807.289 777.503 803.762 779.328 800.631 C 784.691 791.431 806.419 804.805 813.96 805.499 C 825.032 806.518 840.487 796.753 851.81 794.355 z"/>
<path transform="translate(0,0)" fill="rgb(156,198,240)" d="M 1467.16 1285.53 C 1467.77 1285.57 1468.39 1285.56 1468.99 1285.66 C 1484.7 1288.21 1501.99 1286.02 1518.02 1286.93 C 1527.27 1304.82 1532.15 1325.52 1532.44 1345.62 C 1532.88 1376.32 1515.97 1433.28 1501.82 1461.19 C 1493.76 1477.09 1482.95 1492.79 1470.46 1505.55 C 1463.53 1512.62 1450.44 1525.81 1440.45 1527.73 C 1432.71 1529.23 1422.56 1527.85 1414.53 1527.79 C 1394.7 1527.62 1374.88 1527.59 1355.05 1527.68 C 1268.33 1528.18 1181.45 1528.88 1094.74 1527.93 C 1078.78 1527.75 1062.89 1526.27 1046.92 1526.07 C 1030.06 1525.86 1013.09 1525.51 996.238 1525.95 C 974.216 1526.53 952.34 1527.98 930.273 1527.87 L 401.797 1529.05 C 401.045 1521.17 400.917 1513.56 401.347 1505.66 C 407.061 1504.74 412.855 1503.89 418.456 1502.42 C 445.216 1495.38 470.088 1473.62 473.661 1445.18 C 474.507 1438.44 473.755 1431.33 473.479 1424.56 C 472.677 1404.86 476.331 1390.04 486.281 1373.02 L 485.901 1373.26 C 488.518 1369.08 491.089 1365.59 494.514 1362.04 L 495.508 1361.02 C 495.359 1359.8 495.094 1358.36 495.12 1357.11 C 495.181 1354.31 495.272 1354.03 497.164 1352.15 C 502.183 1351.77 515.068 1360.31 522.066 1361.33 C 537.49 1363.57 553.937 1363.88 569.434 1362.27 C 616.294 1357.38 634.621 1330.38 669.951 1304.29 C 681.103 1296.06 691.883 1291.57 705.567 1289.52 C 736.14 1284.93 768.449 1286.92 799.303 1286.96 C 843.486 1286.57 887.671 1286.63 931.853 1287.12 C 953.689 1287.35 983.256 1284.74 1003.73 1287.89 L 1005.29 1290.48 C 1007.25 1289.7 1006.28 1289.92 1008.19 1289.74 C 1009.41 1301.75 1009.73 1310.74 1019.16 1319.61 C 1033.42 1333.02 1057.39 1337.09 1076.21 1337.89 C 1107.97 1339.24 1141.17 1332.76 1172.44 1327.38 C 1184.47 1325.3 1196.4 1322.7 1208.59 1321.65 C 1219.21 1320.74 1229.9 1321.05 1240.55 1320.81 C 1264.11 1320.28 1287.88 1319.72 1311.41 1318.78 C 1339.91 1317.65 1370.25 1313.98 1398.3 1308.73 C 1411.46 1306.26 1424.16 1301.43 1436.16 1295.58 C 1442.2 1292.63 1449.46 1287.9 1455.97 1286.41 C 1459.51 1285.6 1463.53 1285.66 1467.16 1285.53 z"/>
<path transform="translate(0,0)" fill="rgb(0,44,128)" d="M 939.664 1362.49 C 988.511 1360.63 1037.75 1363.79 1086.62 1363.92 C 1166.48 1364.46 1246.35 1364.41 1326.22 1363.77 L 1449.2 1362.82 C 1467.03 1362.62 1485.11 1361.34 1502.89 1361.59 C 1506.18 1361.64 1510.57 1361.87 1513.45 1363.7 C 1515.65 1365.1 1516.97 1366.71 1517.41 1369.34 C 1517.94 1372.58 1517.04 1376.81 1514.72 1379.2 C 1512.61 1381.38 1509.56 1382.23 1506.62 1382.46 C 1497.72 1383.13 1488.25 1382.26 1479.27 1382.3 L 1410.77 1382.45 C 1346.26 1382.68 1281.75 1382.53 1217.25 1382.01 L 964.166 1381.32 C 944.796 1381.4 925.441 1382.31 906.069 1382.41 C 844.163 1383.06 782.25 1382.69 720.355 1381.32 C 707.008 1381.12 654.26 1382.99 645.66 1380.18 C 643.367 1379.43 641.781 1377.53 641.116 1375.23 C 640.484 1373.05 641.112 1370.23 642.449 1368.43 C 644.108 1366.19 646.863 1364.76 649.628 1364.6 C 667.651 1363.52 686.27 1364.62 704.362 1364.44 L 856.944 1363.11 C 884.4 1362.95 912.277 1364.12 939.664 1362.49 z"/>
<path transform="translate(0,0)" fill="rgb(156,198,240)" d="M 1095.87 695.447 C 1122.59 694.007 1149.74 695.92 1176.52 696.009 C 1232.73 696.376 1288.95 696.424 1345.16 696.154 C 1405.99 696.22 1478.04 706.436 1522.67 751.638 C 1549.72 779.037 1568.76 819.839 1572.82 858.283 C 1575.49 883.579 1573.9 910.274 1574.42 935.761 C 1574.69 948.988 1577.73 980.473 1574.14 991.959 C 1567.39 1013.54 1532.99 1068.33 1533.46 1084.76 C 1533.56 1087.98 1534.54 1090.83 1537.15 1092.88 C 1539.17 1094.47 1541.52 1094.8 1544 1094.53 C 1550.26 1091.03 1580.34 1024.3 1585.61 1013.54 C 1604.02 1017.07 1623.96 1016.56 1642.71 1017.47 L 1755.8 1022.59 C 1730.53 1030.11 1705.82 1035.91 1687.38 1056.08 C 1671.78 1073.13 1663.02 1097.19 1657.74 1119.32 C 1650.27 1150.58 1646.71 1208.13 1648.09 1240.69 C 1639.04 1219.63 1629.71 1208.1 1617.01 1189.58 C 1591.16 1152.39 1545.49 1114.15 1505.59 1093.44 C 1488.31 1042.17 1463.83 1004.72 1425.22 966.855 C 1330.9 874.356 1189.17 860.516 1063.83 870.286 C 1042.01 871.986 1020.25 875.086 998.577 878.107 C 987.419 879.662 975.481 882.274 964.248 882.377 C 963.36 881.205 962.438 880.102 961.46 879.003 C 947.738 877.184 934.004 875.024 920.152 874.608 C 921.093 865.811 921.017 856.925 921.143 848.087 C 947.232 846.733 974.173 848.281 1000.02 844.64 C 1002.12 842.151 1004.06 840.23 1004.03 836.764 C 1004 834.216 1003.65 832.541 1001.77 830.735 C 999.292 828.364 995.422 827.392 992.116 826.982 C 974.887 824.843 939.46 828.157 921.055 829.063 C 919.885 798.799 911.296 762.419 894.279 737.072 C 896.741 725.512 898.082 713.68 899.714 701.978 C 917.667 697.863 937.907 698.974 956.276 698.439 C 1002.69 697.085 1049.57 698.107 1095.87 695.447 z"/>
<path transform="translate(0,0)" fill="rgb(156,198,240)" d="M 871.924 1545.45 C 946.154 1547.64 1020.44 1545.52 1094.69 1545.64 C 1200.91 1545.82 1307.1 1547.54 1413.3 1544.96 C 1378.61 1565.45 1346.02 1563.31 1308.33 1569.82 C 1299.6 1571.33 1290.45 1572.8 1282.19 1576.11 C 1264.52 1583.19 1258.18 1597.85 1251.1 1614.03 C 1251.73 1623.63 1253.95 1633.17 1258.68 1641.61 C 1272.71 1666.67 1301.15 1671.63 1326.32 1679.08 L 1106.91 1678.8 C 1074.86 1678.79 1042.8 1679.55 1010.75 1678.74 C 944.538 1680.49 875.75 1679.11 809.325 1678.88 L 599.905 1679.09 L 480.954 1679.23 C 455.528 1679.28 428.035 1677.85 402.855 1681.23 C 403.489 1635.94 402.397 1590.82 401.844 1545.55 C 427.706 1548.97 455.812 1546.79 481.91 1546.69 L 619.708 1546.56 L 784.845 1546.28 C 813.484 1546.24 843.469 1548.11 871.924 1545.45 z"/>
<path transform="translate(0,0)" fill="rgb(156,198,240)" d="M 1188.89 194.977 L 1875.08 195.848 C 1875.21 207.523 1874.37 219.213 1874.19 230.891 L 1873.82 296.502 L 1874.19 544.921 C 1860.32 545.456 1846.68 545.18 1832.82 544.642 C 1835.67 498.029 1833.78 450.463 1833.79 403.743 L 1833.84 323.491 C 1833.86 309.026 1834.44 294.332 1833.71 279.905 C 1833.54 276.595 1833.47 268.957 1831.29 266.626 C 1827.86 262.96 1820.05 262.61 1815.27 262.327 C 1805.99 261.778 1767.72 259.701 1761.59 265.593 C 1753.29 273.571 1756.68 302.969 1757 314.16 C 1742.1 314.012 1724.93 311.934 1710.75 316.82 C 1707.14 335.724 1703.65 354.65 1700.27 373.597 C 1693.53 412.068 1685.58 450.398 1678.6 488.844 C 1675.25 507.279 1670.59 526.453 1669.82 545.177 C 1661.85 545.395 1653.86 545.213 1645.88 545.111 C 1648.83 505.295 1646.28 460.947 1646.2 420.644 L 1646.2 332.194 C 1646.24 315.487 1646.83 298.53 1646.02 281.849 C 1645.79 276.933 1645.5 271.186 1643.53 266.652 C 1640.92 264.917 1638.75 263.977 1635.65 263.389 C 1626.16 261.587 1568.31 260.619 1562.71 265.658 C 1559.67 268.39 1559.48 272.388 1559.09 276.26 C 1557.38 293.319 1559.71 312.093 1559.81 329.339 C 1560 363.985 1559.71 398.601 1560.29 433.254 C 1560.69 456.543 1562.41 480.33 1561.48 503.561 L 1561.42 504.88 C 1561.35 504.552 1561.28 504.226 1561.22 503.897 C 1559.21 492.454 1554.94 481.431 1551.31 470.409 C 1546.55 456.029 1541.94 441.601 1537.47 427.127 L 1517.48 362.646 C 1513.34 349.284 1509.88 334.733 1503.72 322.159 C 1494.75 315.074 1454.4 317.846 1441.04 317.627 C 1440.5 303.374 1443.96 280.913 1440.12 268.165 C 1436.19 264.08 1427.81 263.598 1422.34 263.072 C 1411.67 262.045 1350.01 260.651 1345.01 265.748 C 1338.87 271.998 1341.61 293.644 1341.8 302.153 C 1336 302.871 1330.18 303.439 1324.35 303.855 C 1314.65 304.549 1270.97 307.838 1264.99 302.654 C 1261.92 292.165 1264.06 277.766 1264.43 266.809 L 1259 258.482 C 1236.4 252.913 1212.32 258.202 1189.35 255.059 C 1187.36 249.018 1188.09 203.718 1188.89 194.977 z"/>
<path transform="translate(0,0)" fill="rgb(156,198,240)" d="M 1758.65 1042.42 C 1758.84 1042.39 1759.03 1042.33 1759.23 1042.31 C 1782.65 1040.27 1802.82 1043.95 1821.53 1058.96 C 1836.78 1071.19 1849.91 1091.97 1851.94 1111.69 C 1861.2 1201.76 1805.8 1167.35 1802.32 1229.9 C 1800.67 1259.55 1802.28 1289.94 1802.22 1319.68 L 1802.16 1521.31 C 1802.1 1552.03 1804.46 1584.04 1801.46 1614.54 C 1800.14 1627.9 1797.68 1643.71 1790 1655.05 C 1781.6 1667.43 1767.12 1673.91 1752.88 1676.79 C 1724.87 1681.94 1694.53 1677.45 1666.05 1679.12 C 1671.87 1653.03 1668.84 1607.06 1669.16 1578.49 C 1670.01 1502.65 1673.11 1426.53 1669.87 1350.7 C 1668.92 1328.45 1665.93 1306.15 1663.87 1283.98 C 1661.59 1259.57 1665.35 1233.53 1667.47 1209.13 C 1670.18 1177.87 1671.41 1144.43 1679.63 1114.08 C 1683.7 1099.06 1690.33 1082.49 1700.45 1070.48 C 1715.87 1052.2 1735.35 1044.38 1758.65 1042.42 z"/>
<path transform="translate(0,0)" fill="rgb(156,198,240)" d="M 261.506 1034.4 C 279.16 1031.95 299.835 1034.68 315.898 1042.46 C 362.975 1065.25 372.127 1111.87 376.445 1159.58 C 378.095 1177.81 379.631 1196.18 380.44 1214.47 C 381.305 1234.01 380.048 1251.25 386.529 1270.02 C 378.92 1280.78 371.074 1291.15 364.585 1302.68 C 359.078 1312.47 354.895 1322.9 349.937 1332.95 C 349.422 1334 348.853 1335.02 348.395 1336.09 C 345.943 1341.82 346.744 1349.7 345.673 1355.91 C 344.132 1364.83 341.323 1373.42 339.962 1382.47 C 336.445 1405.83 336.138 1444.73 344.432 1466.99 C 352.6 1488.91 360.733 1493.94 381.02 1503.37 C 382.892 1523.1 382.526 1543.21 382.662 1563.02 C 382.926 1601.65 382.326 1640.53 383.608 1679.12 C 371.699 1678.51 359.673 1678.92 347.75 1678.99 C 324.557 1678.97 292.979 1681.3 273.624 1666.09 C 263.866 1658.43 258.189 1646.14 255.791 1634.21 C 249.354 1602.19 252.447 1562.45 252.514 1529.37 L 252.482 1327.83 C 252.374 1296.12 254.714 1262.68 251.267 1231.2 C 245.356 1177.23 225.357 1197.24 196.93 1173.32 C 186.158 1164.25 182.324 1151.88 180.985 1138.36 C 178.586 1114.14 183.578 1083.83 199.489 1064.61 C 215.278 1045.54 237.397 1036.57 261.506 1034.4 z"/>
<path transform="translate(0,0)" fill="rgb(156,198,240)" d="M 1189.12 625.287 C 1276.04 625.729 1362.97 625.69 1449.89 625.171 L 1703.62 625.534 C 1760.26 625.52 1817.02 624.505 1873.65 625.53 C 1874.47 643.58 1873.69 661.823 1874.09 679.921 C 1857.73 678.186 1840.91 678.623 1824.48 678.992 L 1813.16 690.379 L 1812.37 700.097 L 1812.4 715.828 C 1796.13 714.463 1779.73 716.954 1763.46 717.384 C 1760.54 717.461 1754.75 718.04 1752.72 715.699 C 1749.41 711.878 1750.95 701.79 1750.91 696.755 C 1750.86 691.144 1750.33 684.856 1745.86 680.859 C 1743.54 678.788 1740.48 677.716 1737.43 677.361 C 1730.77 676.586 1723.3 677.589 1716.56 677.724 C 1702.8 677.999 1689.04 677.914 1675.28 678.319 C 1673.55 679.897 1671.82 681.483 1670.19 683.17 C 1661.1 692.601 1662.95 705.904 1663.3 717.864 C 1639.49 716.811 1616.68 717.611 1592.94 719.223 C 1590.98 708.301 1592.87 694.958 1584.14 686.472 C 1580.43 682.871 1575.57 681.303 1570.58 680.479 C 1556.13 678.099 1539.91 679.678 1525.28 680.085 C 1501.7 680.742 1477.98 681.334 1454.45 683.046 C 1446.6 683.618 1438.28 685.293 1430.45 685.252 C 1421.62 685.206 1412.24 682.735 1403.47 681.529 C 1391.8 679.925 1379.7 678.981 1367.94 678.397 C 1344.42 677.231 1320.67 678.063 1297.12 677.819 C 1260.64 677.44 1224.41 676.308 1187.89 677.116 C 1189.08 659.878 1188.98 642.559 1189.12 625.287 z"/>
<path transform="translate(0,0)" fill="rgb(156,198,240)" d="M 1190.31 561.185 C 1218.37 563.356 1247.42 562.579 1275.6 562.919 L 1452.58 563.65 L 1874.2 563.568 C 1874.21 571.332 1875.84 600.234 1872.78 605.983 L 1870.25 606.193 L 1372.43 606.225 C 1310.75 606.265 1248.95 608.279 1187.29 607.541 C 1192.56 593.615 1186.38 575.863 1190.31 561.185 z"/>
<path transform="translate(0,0)" fill="rgb(156,198,240)" d="M 1681.95 697.192 C 1695.36 696.896 1718.34 694.116 1730.49 698.269 C 1733.98 703.619 1734.15 924.676 1734.33 951.456 L 1736.86 956.284 C 1736.13 957.772 1736.53 957.791 1735.15 958.216 C 1730.82 959.555 1724.81 958.008 1720.02 958.838 C 1698.74 957.172 1676.72 958.415 1655.35 958.313 C 1634.81 958.216 1614.32 956.827 1593.8 956.147 C 1592.47 933.744 1593.38 911.327 1592.95 888.905 C 1592.57 869.392 1589.58 850.05 1589.29 830.525 C 1588.81 798.772 1591.15 766.566 1591.52 734.751 C 1609.36 734.918 1648.12 737.084 1664.04 732.344 L 1664.4 866.071 C 1664.41 884.748 1664.52 903.424 1664.74 922.099 C 1664.8 929.063 1664.22 936.16 1664.58 943.092 C 1664.79 947.078 1665.91 952.63 1669.41 955.134 C 1671.63 956.716 1673.08 957.022 1675.72 956.694 C 1677.78 955.684 1679 954.768 1680.12 952.713 C 1682.16 948.992 1682.01 944.605 1682.17 940.482 C 1683.58 902.709 1681.68 864.927 1681.97 827.134 L 1683.18 741.213 C 1683.29 727.729 1685.51 710.052 1681.95 697.192 z"/>
<path transform="translate(0,0)" fill="rgb(156,198,240)" d="M 491.202 1014.42 C 493.998 1014.17 495.889 1014.07 498.659 1014.78 C 498.524 1023.3 489.998 1045.33 487.458 1054.91 C 475.742 1099.1 480.377 1150.73 503.672 1190.22 C 479.541 1197.44 455.699 1210.84 435.8 1226.22 C 423.495 1235.74 412.022 1246.12 399.096 1254.84 C 398.574 1240.53 399.118 1226.08 399.255 1211.77 C 398.897 1167.77 397.036 1120.03 378.324 1079.51 C 368.595 1058.44 346.315 1032.8 324.217 1024.64 C 379.637 1018.19 435.5 1016.95 491.202 1014.42 z"/>
<path transform="translate(0,0)" fill="rgb(156,198,240)" d="M 1358.4 279.876 C 1380.17 280.802 1402.13 279.824 1423.93 280.2 C 1422.72 338.097 1424.23 396.26 1424.14 454.19 L 1423.92 510.152 C 1423.89 518.159 1422.92 527.661 1424.13 535.495 C 1424.57 538.406 1426.22 540.43 1427.92 542.734 L 1428.61 543.649 L 1427.78 544.904 C 1414.67 545.485 1367.67 546.956 1357.34 544.422 L 1356.65 542.671 C 1357.62 540.937 1358.47 539.027 1358.68 537.027 C 1359.3 530.968 1358.31 524.286 1358.31 518.135 L 1358.36 466.625 C 1358.1 404.506 1356.4 341.941 1358.4 279.876 z"/>
<path transform="translate(0,0)" fill="rgb(156,198,240)" d="M 1306.29 322.543 C 1318.13 322.062 1329.89 322.726 1341.73 322.883 C 1341.4 396.914 1341.51 470.947 1342.08 544.978 L 1344.03 544.592 C 1329.79 545.535 1315.51 545.262 1301.25 545.21 L 1262.18 544.953 C 1265.78 518.628 1263.95 489.591 1263.97 463.003 L 1264.05 322.757 C 1278.11 323.207 1292.22 322.763 1306.29 322.543 z"/>
<path transform="translate(0,0)" fill="rgb(156,198,240)" d="M 1219.43 273.559 C 1228.49 273.23 1237.41 273.045 1246.48 273.428 C 1249.93 295.006 1247.1 322.346 1247.04 344.556 L 1246.94 493.423 C 1246.95 508.415 1244.19 531.216 1248.88 545.131 C 1238.36 545.368 1227.84 545.348 1217.32 545.072 C 1208.15 544.84 1199.09 544.77 1189.97 545.902 C 1189.17 528.674 1190.15 511.221 1189.98 493.956 L 1189.12 336.02 C 1188.97 315.214 1189.71 294.415 1188.91 273.617 C 1199.09 273.741 1209.26 273.721 1219.43 273.559 z"/>
<path transform="translate(0,0)" fill="rgb(156,198,240)" d="M 1649.78 1542.8 C 1651.58 1552.61 1649.48 1564.98 1649.22 1575.08 C 1648.75 1592.84 1649.11 1610.72 1649.07 1628.5 C 1649.04 1645.05 1647.96 1662.3 1650.71 1678.66 C 1593.74 1680.42 1536.27 1678.81 1479.24 1678.8 C 1455.91 1678.8 1432.49 1678.37 1409.2 1679.67 L 1408.44 1679.24 L 1408.82 1678.47 C 1416.76 1677.39 1424.67 1676.13 1432.55 1674.7 C 1452.02 1670.98 1470.51 1663.91 1488.37 1655.45 C 1541.58 1630.27 1582.74 1592.39 1615.74 1544.12 C 1623.79 1545.09 1643.11 1547.69 1649.78 1542.8 z"/>
<path transform="translate(0,0)" fill="rgb(156,198,240)" d="M 1750.74 736.23 C 1770.98 735.469 1791.48 735.814 1811.72 736.495 C 1812.38 784.454 1811.16 832.404 1811.1 880.367 C 1811.07 906.182 1809.9 933.034 1813.42 958.636 C 1794.53 958.469 1774.34 956.842 1755.58 958.394 C 1745.65 960.581 1730.05 960.356 1720.02 958.838 C 1724.81 958.008 1730.82 959.555 1735.15 958.216 C 1736.53 957.791 1736.13 957.772 1736.86 956.284 L 1734.33 951.456 C 1739.22 951.039 1743.84 949.351 1748.51 947.9 C 1748.58 943.442 1747.35 932.773 1749.75 929.28 C 1750.57 888.563 1750.7 847.835 1750.15 807.114 C 1749.97 783.852 1748.73 759.368 1750.74 736.23 z"/>
<path transform="translate(0,0)" fill="rgb(14,62,144)" d="M 1748.51 947.9 C 1748.58 943.442 1747.35 932.773 1749.75 929.28 C 1749.89 938.03 1751.74 949.922 1746.99 957.451 C 1749.5 958.766 1752.81 958.362 1755.58 958.394 C 1745.65 960.581 1730.05 960.356 1720.02 958.838 C 1724.81 958.008 1730.82 959.555 1735.15 958.216 C 1736.53 957.791 1736.13 957.772 1736.86 956.284 L 1734.33 951.456 C 1739.22 951.039 1743.84 949.351 1748.51 947.9 z"/>
<path transform="translate(0,0)" fill="rgb(156,198,240)" d="M 1576.83 278.731 C 1589.81 282.773 1613.6 280.66 1628.03 281.277 C 1627.8 342.435 1628 403.594 1628.63 464.749 C 1628.75 488.333 1626.01 522.719 1630.01 545.057 L 1578.81 545.163 C 1580.39 512.135 1577.7 479.208 1577.07 446.238 C 1575.91 390.409 1575.83 334.563 1576.83 278.731 z"/>
<path transform="translate(0,0)" fill="rgb(156,198,240)" d="M 1831.64 696.824 C 1845.38 698.866 1860.14 698.353 1874.07 699.156 C 1875.7 717.053 1874.62 735.53 1874.46 753.494 L 1873.89 847.236 C 1873.87 863.43 1874.28 879.643 1874.02 895.834 C 1873.86 906.088 1873.03 916.417 1873.07 926.649 C 1873.1 937.803 1875.16 949.975 1873.65 960.97 C 1858.17 958.817 1843.22 958.808 1827.65 959.021 C 1828.16 939.332 1828.18 919.66 1828.9 899.967 C 1829.32 888.339 1830.53 876.724 1830.77 865.101 C 1831.52 829.859 1830.9 794.505 1830.96 759.251 C 1830.99 738.522 1832.38 717.499 1831.64 696.824 z"/>
<path transform="translate(0,0)" fill="rgb(156,198,240)" d="M 1773.2 279.669 C 1786.84 281.943 1801.18 280.945 1815 281.907 L 1815.2 455.159 C 1815.34 484.673 1813.62 515.061 1816.65 544.406 L 1815.14 545.201 L 1770.93 545.001 C 1776.46 515.889 1773.07 483.79 1773.03 454.241 C 1772.94 396.057 1772.52 337.842 1773.2 279.669 z"/>
<path transform="translate(0,0)" fill="rgb(156,198,240)" d="M 1441.31 335.418 C 1456.89 336.647 1472.95 335.689 1488.55 334.985 C 1495.67 361.476 1505.04 387.748 1513.29 413.927 L 1554.97 545.846 C 1538.59 545.307 1522.21 545.054 1505.82 545.087 C 1498.75 517.987 1489.28 491.141 1480.69 464.482 C 1475.64 448.819 1471.44 432.92 1466.23 417.296 C 1461.61 403.466 1455.93 390.067 1451.8 376.075 C 1448.25 376.104 1445.01 376.32 1441.64 375.073 C 1439.81 362.459 1441.06 348.219 1441.31 335.418 z"/>
<path transform="translate(0,0)" fill="rgb(156,198,240)" d="M 1627.91 1696.02 C 1642.13 1697.93 1708.48 1693.99 1715.82 1699.15 C 1719.54 1711.05 1718.56 1732.78 1719.47 1745.73 C 1721.27 1771.15 1723.69 1796.62 1725.69 1822.04 C 1710.62 1821.3 1695.35 1820.33 1680.28 1821.52 C 1676.78 1818.98 1673.35 1816.71 1670.8 1813.13 C 1663.01 1802.23 1659.42 1787.75 1655.3 1775.15 C 1647.1 1750.12 1639.28 1719.31 1627.91 1696.02 z"/>
<path transform="translate(0,0)" fill="rgb(156,198,240)" d="M 1754.26 332.577 L 1755.92 332.446 C 1758.22 335.645 1757.02 347.744 1757.02 352.252 C 1757.03 370.307 1758.05 389.858 1754.69 407.622 C 1752.44 419.48 1748.88 431.339 1745.93 443.059 C 1740.15 466.017 1734.47 488.971 1730.01 512.227 C 1727.92 523.139 1725.15 534.256 1726.12 545.416 C 1713.44 544.534 1700.47 545.06 1687.75 545.128 L 1685.55 544.657 C 1684.23 537.917 1695.92 489.388 1697.8 479.165 L 1724.41 332.709 C 1734.37 332.862 1744.31 333.109 1754.26 332.577 z"/>
<path transform="translate(0,0)" fill="rgb(156,198,240)" d="M 355.602 1697.37 C 365.499 1697.82 375.579 1697 385.498 1696.95 C 399.379 1696.86 413.258 1697.25 427.143 1697.16 C 413.233 1732.21 404.467 1769.29 391.038 1804.55 C 389.697 1807.95 387.752 1811.78 385.077 1814.31 C 373.477 1825.3 353.775 1824.05 338.875 1824.12 C 339.316 1796.33 342.427 1768.44 344.348 1740.71 C 345.291 1727.1 344.667 1712.61 346.964 1699.22 C 349.307 1697.34 352.717 1697.59 355.602 1697.37 z"/>
<path transform="translate(0,0)" fill="rgb(156,198,240)" d="M 1527.41 698.419 C 1537.1 697.687 1560.92 695.859 1568.18 702.497 C 1580.27 713.547 1571.9 771.996 1573.66 790.079 L 1573.81 791.523 C 1568.81 781.594 1563.13 772.312 1556.98 763.059 C 1536.27 736.039 1509.58 713.455 1478.16 699.896 C 1494.59 699.736 1511.01 699.243 1527.41 698.419 z"/>
<path transform="translate(0,0)" fill="rgb(156,198,240)" d="M 1441.26 402.789 C 1446.35 412.117 1458.81 459.521 1462.94 472.773 C 1468.33 489.645 1473.63 506.544 1478.84 523.471 C 1481.02 530.366 1484.27 537.282 1485.42 544.401 L 1484.09 545.434 C 1469.66 545.189 1451.26 546.841 1437.32 544.418 C 1438.24 542.71 1439.09 540.983 1439.95 539.247 C 1443.87 531.338 1440.54 421.917 1441.26 402.789 z"/>
<path transform="translate(0,0)" fill="rgb(156,198,240)" d="M 1756.21 460.684 C 1761.41 480.033 1756.96 523.094 1756.84 545.077 L 1740.32 544.913 L 1739.35 543.9 C 1745.99 525.664 1748.8 505.019 1751.72 485.888 C 1752.99 477.535 1753.68 468.746 1756.21 460.684 z"/>
<path transform="translate(0,0)" fill="rgb(156,198,240)" d="M 1649.35 1473.71 C 1651.81 1485.16 1649.95 1516.05 1650.05 1529.21 C 1642.24 1528.4 1634.39 1527.99 1626.56 1527.49 L 1625.54 1526.39 C 1634.54 1509.13 1643.74 1492.52 1649.35 1473.71 z"/>
<path transform="translate(0,0)" fill="rgb(156,198,240)" d="M 1490.48 1246.18 C 1498.25 1253.55 1503.5 1260.66 1509.04 1269.85 C 1502.01 1270.49 1494.81 1270.26 1487.75 1270.3 L 1470.88 1270.94 C 1477.59 1263.35 1485.8 1255.19 1490.48 1246.18 z"/>
<path transform="translate(0,0)" fill="rgb(0,44,128)" d="M 1130.9 166.634 C 1134.05 168.042 1136.27 170.679 1138.68 173.086 C 1141.58 200.57 1139.68 229.562 1139.72 257.244 L 1139.14 432.019 C 1138.97 492.218 1140.18 552.685 1138.28 612.842 C 1137.78 628.63 1138.98 647.14 1135.81 662.615 C 1133.59 665.336 1132.13 665.381 1128.85 666.431 C 1125.85 665.96 1123.55 665.581 1120.88 663.995 C 1118.17 659.25 1120.18 567.327 1120.13 553.82 L 1121.65 250.647 C 1121.88 230.433 1122.27 210.177 1122.05 189.963 C 1122 186.01 1120.39 179.565 1121.11 175.96 C 1122 171.534 1127.36 168.576 1130.9 166.634 z"/>
</svg>