<svg xmlns="http://www.w3.org/2000/svg" width="1365.333" height="1365.333" preserveAspectRatio="xMidYMid meet" version="1.0" viewBox="0 0 1024 1024"><g fill="#000" stroke="none"><path d="m562.9 85.1-2.4 2.4v245l3.3.3c2.7.3 3.4-.1 4.4-2.5.8-2.1 1.2-34.4 1.6-122.4l.4-119.6-2.5-2.8-2.4-2.9z"/><path d="M659 88.7c-1.4.2-17.7.4-36.2.5-30.2.3-33.9.5-35.4 2-1.6 1.5-1.7 5.3-1.6 40.9.1 21.5.4 39.9.7 40.9s.1 2.1-.5 2.5c-.6.3-.8 1-.5 1.4.2.5.5 36.8.5 80.7l.1 79.9-48.3-.3c-42.1-.2-67.7.6-78.3 2.3-9.8 1.6-9.1 2.7-9.3-15.3-.1-15.3-1.3-24-4.7-35.4-1.9-6.7-3.2-8.6-6.6-10.3-7-3.7-18.1 3.5-40.4 25.9-8.3 8.3-15.9 16.7-16.9 18.8-1.8 3.4-2.2 3.6-5.5 3-5-1-30.6-.9-42.6.1l-10 .8-1.7-2.8c-2.8-4.7-13.9-18.7-15.4-19.6-.8-.4-1.4-1.4-1.4-2.2 0-2.5-20.2-20.4-26.6-23.6-5.6-2.8-6.5-3-10.3-1.9-3.5.9-4.5 1.8-6.6 6-3.6 7.1-7.2 20.3-9 33-1.6 11.9-2.1 35-1 46.5.6 6.4.4 7.6-2.3 13.5-5.8 13-8.1 24.1-8.2 40.2v7.8h-15.4c-18 0-20.6.6-20.6 5 0 4.2 1.8 4.6 18.9 4.9 8 .1 15.2.6 16.1 1.1 1.1.6 1.9 2.8 2.4 6.2.3 2.9.9 6.3 1.2 7.4.6 2.4 1.5 2.2-20.6 4-7.7.6-10 1.9-10 5.4 0 .9 1 2.5 2.1 3.6 1.9 1.7 3.6 1.9 13.8 1.7 6.4-.1 13.6-.6 15.9-1.1l4.2-1 4.4 9.4c2.5 5.2 5.4 10.7 6.5 12.3l2 2.8-2.8 2.7c-1.6 1.5-3.6 4.4-4.5 6.4l-1.7 3.7-21.7.1c-20.5.1-53.4 2.2-70.3 4.4-4.1.6-13.3 1.5-20.5 2-20.4 1.5-34.8 7.4-46.1 19.2-9.4 9.8-13.1 18.7-14 33.8-.6 10.7 1.1 19.8 5.4 28.5s9.2 12.5 22 17c4.9 1.8 5.4 2.2 6.9 6.7.8 2.6 1.9 5 2.4 5.3s.9 32.6 1 71.8c.1 91.4 0 99.9-.6 100.9-.3.4-.6 4.4-.6 8.8-.1 4.5-.6 8.3-1 8.6-.5.3-.5 1.1 0 1.7.5.7 1.2 3.4 1.6 6.2 1.3 11 4.1 17.9 9.9 24.2 6.2 6.8 15.9 10.2 29 10.3h6.9l-.5 5.2c-.2 2.9-1 17-1.8 31.3l-1.3 26-19.2-.2c-12-.2-19.5.1-19.9.7-.3.6-2.1 1-3.9 1-1.9 0-4 .8-5 1.8-1.5 1.8-1.5 2 .1 3.5 1 .8 3.1 2 4.6 2.6 3.8 1.5 527.1 1.5 529.8.1 2.2-1.2 2.6-6.4.7-7.7-1.1-.6-395.8-.6-433.4.1l-13.2.2 2.4-3.1c1.3-1.7 6.4-15.3 11.7-31.3 5.2-15.5 9.6-28.5 9.9-28.7.4-.4 527.7-.9 575.6-.5 5.5 0 6.2.2 6.2 2 0 1.1 1.1 5.2 2.5 9.2s5.8 17.2 10 29.2c11.3 33.3 8.1 31.6 60.5 31.6 34.3 0 36.8-.1 38.3-1.8 2-2.2 2.2-4.6.4-6-.6-.6-11.1-1.6-23.2-2.2s-22.3-1.5-22.6-1.8c-.4-.4-1.2-10.4-1.8-22.2-.7-11.8-1.4-25.1-1.7-29.5l-.5-8.1 9.4-1.1c16.4-1.9 25-8.2 29.8-21.9 3.1-8.8 3.8-15.9 3-32.7-.3-8.4-.5-51.7-.4-96.2.2-89.1.2-89 5.8-92.5 4.3-2.7 11.6-10.5 14.8-16.1 4.4-7.5 5.7-13.4 5.7-25.4 0-12.2-1.2-17.3-5.9-25.6-3.4-6.1-17.1-19.9-24.5-24.8-5.1-3.4-14.5-7.9-18.1-8.7-8-1.8-21.4-3.4-35-3.9-8.8-.4-17.1-.9-18.5-1-2.7-.4-22.9-1.7-29.5-2-7.9-.4-7.5-.1-7.5-5.4v-4.9l15.3.4c8.3.1 37.5.4 64.7.5s51.9.4 54.8.7l5.2.5V508c0 16.9.2 18.8 1.9 20.4 2.2 2 4.9 1.2 6.1-2 .5-1.3.9-23 1-48.1.1-264.1-.1-385.6-.5-386.3-1.7-2.8-14.8-3.1-147.6-3.3-75-.1-137.5-.1-138.9 0M772.1 98c110.7 0 165.8.3 165.4 1-.3.6-.6 39.7-.6 86.9l-.1 86-2.9.6c-1.6.4-6.2.4-10.2 0l-7.2-.7.3-68.6.2-68.7-2.1-1.8c-1.8-1.4-4.3-1.7-17.1-1.7-14.6 0-14.9.1-17.4 2.5-2.4 2.4-2.5 3-2.2 13l.3 10.5h-10.1c-6.5 0-10.6.4-11.6 1.2-.9.8-2.3 4.8-3.2 9.3-2.9 14.4-7.7 39.7-11.2 59-1.9 10.4-3.9 21.2-4.4 24-.6 2.7-1.5 8.7-2.2 13.2-.6 4.6-1.6 8.4-2.2 8.4-5.1.6-6.4.7-8.2.2l-2.2-.5-.1-68.6c-.1-59.7-.4-68.9-1.7-70.2-2-2-38.6-2.2-40.6-.2-1 1-1.2 11.1-1 49.5.1 26.5.5 52.7.7 58.2l.4 10-4.8-14.5c-2.6-8-9-28.1-14.1-44.8-6.4-20.7-10-30.7-11.1-31.3-1-.5-8.1-.9-15.8-1-12.5 0-14.1-.2-14.2-1.7-.1-.9-.1-6.5 0-12.4l.2-10.7-2.8-1.4c-2.1-1.1-7.7-1.5-23.2-1.6-24.9-.2-24.1-.6-24.1 11.4v8.2l-4.6.7c-2.6.3-11.4.6-19.5.6H632v-10c0-14.4.5-14-20.7-14h-16.8V98.5l4.5-.6c2.5-.3 5.1-.4 5.8-.2.8.1 76.1.3 167.3.3m-148.9 40.2c0 .7.2 31.2.2 67.8l.1 66.5H595V219c-.1-29.4-.1-56.2-.1-59.5-.1-3.3 0-9.7 0-14.3l.1-8.2h14c10.4 0 14 .3 14.2 1.2m88.8 66.6c0 49.1.3 65.1 1.2 66 1.5 1.5 2.2 1.5-18.4 1.6-9.1.1-16.4-.2-16.1-.6.2-.5.4-30.2.3-66.2v-65.4l16.5-.1 16.5-.2zm100.7-63.9c1 .1 1.3 14.1 1.3 64.7 0 35.5.3 65 .6 65.5s-3.1 1-7.8 1c-4.6.1-10.6.2-13.5.3-3.9.1-4.9-.2-4.1-1.1.6-.8.7-11 .3-29-.3-15.3-.7-44.5-.8-65l-.2-37.2 11.5.4c6.3.2 12.1.4 12.7.4m94 .5c.2.1.5 29.3.7 64.9.2 35.5.7 65 1 65.5.4.7-2.3.8-17.4.3l-4.5-.1.2-57.3c.1-31.4.2-61 .2-65.7l.1-8.6 9.8.4c5.3.2 9.8.5 9.9.6m-235.9 75c.1 35.8-.1 55.2-.8 55.6-.9.6-38.1.4-38.4-.2 0-.2 0-25.1.2-55.3l.2-55h38.5zm207.3-32.9c-.2 16.5-.3 17.1-5.6 38.9-5.8 23.9-9.5 42.3-9.5 47.2v3.1l-9.7-.5c-5.4-.2-9.9-.5-10.1-.7-.3-.3 2.9-18.3 5.3-30 2.2-10.3 7.6-39.5 12.7-69l1-6 8.1.1 8 .1zm-133.1-14c0 1.2 5.2 18 19.5 63 4.6 14.6 9.5 30.1 11.9 38.2.7 2.2.7 2.2-11.5 1.9-9.7-.2-12.3-.5-12.5-1.7-.1-.8-1.1-4.3-2.2-7.9-2.6-8.4-8.5-27.4-8.7-28-1.1-3.9-6.5-20.8-9.1-28.5-1.9-5.5-3.7-10.7-3.9-11.5-1.2-5.1-2.6-7-5-7H721v-19.9l11.3-.3c12.3-.3 12.7-.3 12.7 1.7m-22.3 38.2c1 4.2 3.4 12.1 11.3 37.3 1.7 5.5 7.4 22.9 8.7 26.6.3.8-3.2 1.1-11.5 1-11-.1-11.9-.2-11.1-1.8.6-1 .8-16 .7-34.8-.2-18.1-.1-33 .3-33 .3 0 1 2.1 1.6 4.7m156.2 39.1c.1 6.9-.1 15.5-.5 19.1l-.6 6.6-4-.3c-3.1-.3-3.8-.8-3.3-2 1.3-3.3 6.5-31.4 6.5-35 0-2.5.3-3.3.9-2.3.5.8 1 7 1 13.9m-90.1 35.1 148.2.1v21h-33.2c-18.3 0-95.3 0-171.1.1-75.7.1-137.9 0-138-.2-.2-.2-.2-5.2.1-11.2l.4-10.7 22.7.4c12.4.2 89.3.5 170.9.5m-512.7 8.2c7.3 5.3 22.6 21.6 33.1 35.6 5.9 7.8 10.7 13.3 11.6 13.3 1 0 5.3-.7 9.8-1.5 12.7-2.2 31.8-2.9 42.3-1.5 10.4 1.5 10.7 1.4 16.1-6.8 3.9-5.9 16.7-19.2 25.5-26.6 7.7-6.5 17.9-13.6 19.3-13.6 1.2 0 1.8 2.6 2.7 10 .3 3 .8 7.1 1 9 1.1 10 1.6 51.1.7 56.8-1.1 6.2-1.1 6.3 2.8 13.5 4.1 7.8 7.6 21.2 8.2 31.2.3 5.5.1 6-1.9 6.3-3.3.5-5.5 4.5-4.3 7.8.9 2.3 1.4 2.6 4.1 2 2.9-.5 3.1-.4 2.5 1.7-.3 1.2-.6 3.4-.6 4.9 0 2.6-.3 2.8-3.9 2.8-3 0-4.4.6-5.5 2.2-2.4 3.4-2 4.7 2.2 6.5 2 1 3.8 1.8 4 1.9.1 0-1 3.2-2.6 7.1-4.4 10.7-17.5 29.3-20.7 29.3-1.7 0-7.5 7.3-7.5 9.4 0 2.5 3 3.1 6.2 1.3 1.7-.9 3.6-1.7 4.3-1.7.8 0 4.8-2.7 8.9-6 8.5-6.9 14.3-15.2 19.7-28.5 1.7-4.4 3.3-8.1 3.4-8.3.1-.1 5.5.5 11.9 1.4 11.3 1.5 12.4 1.5 29.3-.5 9.7-1.2 17.9-2.4 18.2-2.6 2.4-1.4 54.7-2.3 70.6-1.1s39.2 5.2 52.1 9.1c25.1 7.6 50.7 21.5 64.9 35.2 17.2 16.7 33.1 40.3 37.1 55.5 1 3.5 2.2 6.9 2.7 7.6.6.7 3.9 2.9 7.5 4.9 17.8 9.9 41.4 31.1 52 46.5 2.9 4.2 6.8 11.1 8.8 15.1 6.7 14.2 11.6 42.3 11.3 65.4-.5 41-15.1 76.2-43.3 104.6-11.9 11.9-22.4 19.7-36.8 27.2-20.7 10.8-36.1 14-63.8 13.3-18.2-.5-22.3-1.4-33.7-7.2-11.2-5.8-12.9-19.1-3.1-24.2 1.8-.9 9.5-2.5 17.2-3.5 36.4-4.7 51.4-10.5 74.1-28.5 19.3-15.3 31.7-35.4 38.1-61.9 2.8-11.6 2.8-49.8.1-56.5-4.9-11.9-8.1-17.4-16.3-27.9-11.6-14.9-13.8-17.1-17.5-17.1s-4.6 2-2.9 6.9c1.1 3.5 1 4.2-1.8 9.7-5.3 10.5-14.6 17.5-29.3 21.8-10.2 3.1-43.2 6.9-68.4 8.1-28.3 1.2-35 1.9-72.2 7.4-6 .9-6.4.2-3.7-5 1.4-2.8 1.4-3.2-.2-5-3.6-4-9.1-.9-12.4 7-.7 1.8-2.2 3.4-3.5 3.7-3.8 1-9.9.9-11.8-.2-1.6-.9-1.4-1.5 2.3-7.2 5.9-9.3 6-12.2.2-13-3.3-.4-4.6.9-9.4 9.7-2.2 4.2-4.2 7.8-4.4 8-.8.9-7.4-4.3-7.4-5.9 0-3.5 3-8.9 7-12.3 6-5.1 27.9-11.8 51.5-15.6 9.2-1.5 15.1-2 33.7-2.6 33.3-1.2 31.8-1 31.8-5 0-3.6-3-5-17.5-8-26.7-5.6-45.1-15.1-51.9-26.9-7.7-13.2-7.2-32.7 1.2-49.1 4.4-8.4 16.7-21.2 25.8-26.7 4.8-2.9 6.1-4.1 6-6-.2-5-9.5-3.1-19.3 3.8-13.3 9.5-25.7 27.8-28.2 41.8-3.2 17.7.9 37.7 9.8 47.9 4.1 4.7 16 12.4 23.6 15.5 7.5 3 8.6 4 4.4 3.9-3.6 0-18.5 1.2-21.6 1.7-1 .2-4.9.7-8.8 1.1-21.1 2.2-36.3 7.8-47.5 17.6-6.2 5.3-5.4 5.2-28.9 5l-10.3-.1 3-2.8c2.9-2.8 8.7-13.8 11.1-21.2.6-2 1.4-6.7 1.7-10.5s.7-7.2 1-7.6c.7-1.2-1.5-18.6-2.8-21.6-2.3-5.2-5.9-9.3-8.3-9.3-4.5 0-4.9 2.7-2.4 16 1.7 9.2 2 26.9.5 32.5-2.6 10-8.2 17.1-15.2 19.3-6.2 2-25 3-64.9 3.6-20.3.3-41 1-46 1.7-14.6 1.8-19.6 4.3-36.3 18.2-3.9 3.2-10.8 8-15.3 10.8l-8.3 4.9-1.2-3.2c-4.7-12.9-6.5-15.8-9.4-15.8-3.6 0-4.4 2.5-3.1 9.8.6 3.7 1.4 7.7 1.7 8.9.6 2.2.4 2.3-5 2.3H270v-3.9c0-6.1-1.9-14.3-3.7-16.3-.9-1-2.6-1.8-3.6-1.6-3.5.5-4.2 3-3.1 12 .6 4.5 1 8.4.8 8.6-.6.8-6.5-3.1-7.5-5-.6-1.2-1.1-4.9-1-8.2.2-8.7 4.4-16.8 13.9-26.8 18.6-19.5 50.8-32.6 107.7-44.1l16-3.2.3-3c.2-2.2-.4-3.7-2.2-5.4-2.5-2.3-2.7-2.4-11.8-1.2-16.3 2.1-50.3 12.3-73.7 22.2-41.1 17.3-61.5 39.8-59.9 65.9.4 6.1.2 6.7-3 11-1.9 2.5-4.1 5.8-4.8 7.5-.7 1.6-1.6 3.3-2 3.8-.4.4-1.9 4-3.2 8-1.9 5.6-2.5 9.5-2.7 17.7-.3 16.2-.4 16.9-2.5 19-3 3-4.5 2.5-6-2-2.2-6.8-8.3-10.5-11.5-7-2.1 2.3-1.4 6.1 2.6 14.3 3.1 6.4 2.9 6.9-4.2 8.2-3.4.6-3.7.5-4.2-2.2-.3-1.5-1.2-5.7-2.1-9.3s-1.8-7.5-2.1-8.8c-.8-3.2-5.2-4.8-7.6-2.6-1.6 1.4-1.7 2.9-1.4 11.6.3 8.5.2 9.8-.9 8.2-7.2-10.2-10-33.7-6.2-49.9 1-3.9 1.9-8.1 2.1-9.5 1.1-7.3 8.7-23.4 16.6-35.1 5.8-8.6 16.7-17.8 31.2-26.5 15.1-9 18.5-10.7 28.2-13.8q7.05-2.25 10.2-1.5c3.5.7 5-.3 4.9-3.3-.1-1-3.3-4.1-7.6-7.1-7.3-5.2-7.5-5.5-10-12.8-1.4-4.1-2.9-8-3.4-8.7-.4-.6-.7-6.3-.7-12.4 0-11.3 2.5-29.2 5.8-40.8 1.3-4.7 8.1-22.8 8.9-23.9.1-.1 1.8.8 3.6 2.2 4.7 3.6 16.2 9.1 23.2 11.1l5.9 1.7 2.8-2.8c4.4-4.4 2.5-6.8-8.6-11.3-14.2-5.6-17.4-7.8-22.3-14.8-6.2-8.9-11.4-19.5-9.9-20.3.7-.4 3.7-1.2 6.8-1.8 6.3-1.3 9.2-3.8 8.7-7.3-.3-1.9-1-2.3-4.9-2.6-2.6-.2-7.1.1-10 .7-3 .5-5.7.6-6.1.3-.4-.4-1.4-3.6-2.2-7l-1.5-6.4 5.2.6c2.9.3 9.6 1.1 14.9 1.8 7.8 1 9.9.9 11.2-.1 2-1.6 2.1-5.5.3-7-2.1-1.7-18.4-4.3-31.1-5-1.8-.1-1.9-.8-1.3-12.4.9-16.7 3.5-27.3 9.2-37.5 2.6-4.7 2.6-3.9.6-20.3-1-7.6.3-35.4 1.9-43.7 2.3-11.5 6.5-24.2 8-24.2.4 0 2.7 1.4 5.1 3.1m660.7 36.1-.1 13.3-12-.3-12-.3-3.4 3.2c-3 3-3.3 3.8-3.3 9.4v6l-10.7.3c-6 .1-12.4.4-14.4.8-4.7.7-5.2-.1-5.4-8.8-.1-5.5-.5-7.2-2.2-9-2.1-2-3-2.1-19-1.9-14.1.2-17.1.5-18.6 1.9-3.2 2.9-4.6 6.7-4.4 12.2l.1 5.3-16.1.2c-8.9.2-16.6.6-17.2.9-1.1.7-1.7-1.2-2.5-8.4-.4-3.5-1.2-5.2-4-7.7-3.6-3.3-5.5-3.7-19.6-3.5-18 .1-49.4 1.6-51.7 2.3-2.4.8-5.4.6-11.5-.6-8.6-1.6-68.6-3.6-100-3.2l-14.7.2.4-9.5c.2-5.2.4-11 .5-12.8V313h342zM706 350.8c43.7 8.3 65.5 26.3 77 63.6 3.1 9.9 3.9 18.6 4.1 43.6.1 12.9.2 26.4.3 30 .2 5.7-.3 7.7-3.8 15.5-2.2 4.9-5 10.6-6.1 12.5-1.2 1.9-3.2 6.2-4.5 9.5s-3.4 7.8-4.7 10c-3 5.2-2.9 7.9.4 10.5 2.2 1.7 2.9 1.8 3.9.8.7-.7 5.6-10 10.9-20.6l9.6-19.3 3.2.5c1.8.3 8.8.8 15.7 1.1s16.3.7 21 1 16.2.7 25.5 1.1c9.4.3 17.1.7 17.3.9.2.1-2.9 1.3-6.9 2.5-15.7 4.7-23.4 9.9-29.9 20.1-4.2 6.5-9.5 20.8-10.9 29.4-.6 3.9-1.5 9.9-2.1 13.5-.5 3.6-1.3 14.6-1.7 24.5l-.6 17.9-3.2-7.1c-1.8-3.9-3.8-7.3-4.4-7.7s-3.5-4.2-6.3-8.4c-9.5-14-33.2-35.6-50.9-46.3-3-1.8-5.5-3.3-5.7-3.5-.2-.1-1.5-3.7-3.1-8.1-1.5-4.3-4.4-10.5-6.4-13.6s-3.9-6.7-4.2-8c-2-7.8-31.2-39.6-44-47.9-8.7-5.6-21.1-12.9-24.7-14.5-1.5-.6-4.2-1.8-6-2.7-9.8-4.4-14.2-6-22.8-8.2-5.2-1.4-11.7-2.9-14.5-3.4-2.7-.5-10.2-1.8-16.5-2.9s-15.8-2.3-21-2.5c-5.2-.3-13.8-.8-19-1.2-11.1-.7-36.4.9-56.5 3.6-23.7 3.2-31.6 4-33.3 3.1-1.9-1-14.8-3.1-18.7-3.1-2.3 0-2.4-.2-1.8-6.3.3-3.4.6-6.3.7-6.4s8.5-.5 18.6-.9c10.2-.3 19.2-1 20.1-1.5 2.1-1.1 2-6.6-.1-8-.9-.5-8.9-.7-20.5-.3l-19 .6-.3-4.8c-.6-9.9-6-28.8-10.6-37-2-3.6-2.2-4.9-1.5-9.1.4-2.6 1.1-6.4 1.4-8.4.4-2.7 1.2-3.8 2.8-4.3 1.2-.3 16.8-.9 34.7-1.2 17.9-.4 32.7-.8 32.9-1.1.3-.2 39.7-.2 87.5 0 84.4.4 87.5.4 98.6 2.5m159.3-1.8c.3.3.8 29.1 1.2 64 .5 44.4 1.1 63.9 1.8 64.9 1 1.2-4.2 1.3-34.6.9-19.6-.2-35.9-.6-36.1-.9-1.2-1.2-2.2-62.8-1.7-100.6l.1-10.1 8.7.3c4.8.2 12.9 0 18-.4l9.3-.6v53.8c0 35.2.4 54.5 1 55.8 1.2 2.2 5.2 2.5 6.9.6.8-1 1.2-20.1 1.3-64.8l.3-63.4h11.7c6.4 0 11.8.2 12.1.5m-80.6 3.5c2.4 2.7 2.4 2.9 2.2 22.5l-.3 19.8-4.2-7.3c-7.9-13.4-26.7-30.4-39.8-36.1-2.9-1.2-2.3-1.3 7.9-1.7 6.1-.2 15.7-.3 21.4-.2 10.1.2 10.5.2 12.8 3m152.2 62.3-.2 65.4-5.1-.6c-2.8-.3-8-.6-11.5-.6h-6.4l.8-16.8c.7-14.1 1.4-64.9 1.5-103v-10.4l10.6.4 10.5.3zm-31.4 7.7c0 29.7.4 54.6.8 55.2.6 1-2.7 1.3-15.8 1.3-11.1 0-16.4-.3-16-1 .4-.6.6-25.2.6-54.7s.2-54 .5-54.5 7.2-.7 15.2-.6l14.7.3zm-657.1 88.8c-5.4 14.9-6.6 22-7 38.7-.3 13.9 0 17.7 1.6 24 2.2 8.4 4.5 14.2 7.3 18.2 1.2 1.9 1.4 2.8.6 2.8-2.1 0-17.9 7.9-25.4 12.7-3.8 2.5-9.5 6.6-12.5 9.2-3 2.5-7.2 5.9-9.2 7.4-3.3 2.4-3.8 2.6-3.8 1-.6-39.3-1.2-49.6-3.6-62.3-4.5-23.1-13-37.3-28.6-47.6l-4.7-3.1 11.2-1.1c6.2-.7 22.9-1.6 37.2-2.2s26.7-1.2 27.5-1.4c.8-.1 3.6-.3 6.2-.4l4.7-.1zm-100.2 6.8c10.4 2.2 20.9 9 27.4 17.8 5.6 7.7 10 21.7 11.9 38.1 1.3 10.9 2.5 29.3 2.5 38.5 0 5.5.7 12.9 1.4 16.5l1.4 6.5-3.9 5.2c-2.1 2.9-3.9 5.5-3.9 5.8s-1.1 2.2-2.4 4.3c-1.4 2-3.2 5.7-4.2 8.2-.9 2.5-2.4 5.3-3.2 6.3-.9.9-1.6 3.4-1.7 5.5-.1 2-1.2 8.4-2.4 14.2-2 9.1-2.2 12.5-1.9 26.5.4 13.5.8 16.9 2.7 21.6 3.4 8.8 7.2 13.3 13.5 16.2l5.6 2.6.1 24.8c0 13.6.2 33.2.4 43.5l.4 18.8-11.2.1c-35 .2-42.8-1.8-49.1-12.4-5.2-9-5.3-12-5.4-115.2-.1-69.2-.4-97-1.3-102-1.6-9.1-5.5-13.5-15.2-17.1-12.5-4.5-16.7-9.4-18.7-22-1.8-11 .8-25.1 6.3-34.2 5-8.4 16.5-16.1 27-18.1 6.2-1.3 17.9-1.3 23.9 0m748.2 4.1c6.4 1.9 15.1 7.4 19.1 12.1 2 2.3 5.1 7.1 6.8 10.7 3 6 3.2 7.4 3.6 18.3.3 11.6.2 12-2.8 18.2-2.2 4.5-4.4 7.3-7.3 9.2-7.2 5-10.9 8.5-12.6 12.2-1.6 3.3-1.7 12.4-2.2 107.6-.4 85.2-.8 104.6-1.9 107.5-.8 1.9-1.8 4.7-2.3 6.1-1.4 4.1-6.7 8.9-12.8 11.8-5.3 2.5-6.4 2.6-28.3 3.1-19.9.4-22.7.3-22.1-1 .9-2.3 1.4-33.1 1.7-99.6.2-51.6 0-62.4-1.5-78.4-2.1-20.7-2.2-24.6-1.3-37.5 2-29.7 5.4-58.7 8-67.8 5.1-17.6 18.1-30.4 33.3-32.6 8.7-1.3 18-1.2 22.6.1M751.6 630.5c1 1.9 1.6 3.7 1.2 4-.3.3-4.2.5-8.6.3l-8-.3 4.6-5.2c4.3-4.8 4.7-5 6.7-3.7 1.2.8 3 3 4.1 4.9m-250 13.9c1.7.5 2.2 1.5 2.6 5.1.6 5.2 4.4 10.7 9.1 13.2 1.8.9 3.4 1.8 3.7 1.8.3.1 1.9.7 3.5 1.4 7.1 3 25.5 4 38 2.2 26.7-4 34.4-5.3 37.4-6.1 3.6-.9 34.4-2.2 50.1-2 11.1.1 32.9-2.1 51-5.2 8.4-1.4 19.3-5.3 25-8.9l4.5-2.8 16.2.2 16.2.1 2 4.6c3.5 8.4 4.1 11.1 4.8 22.7.6 10.2-.4 17.1-4.4 29.8-1.4 4.4-2.7 8.7-2.8 9.5-.2.8-.4 1.6-.5 1.7-.2.2-.3.7-.4 1.2 0 .5-.4 1.3-.8 1.7-.5.4-.8 1.5-.8 2.4 0 2.8-4.2 12.2-9 20-5.1 8.4-13.9 18.3-20.9 23.4l-4.6 3.4-260.2-.1-260.3-.1-.2-2.6c-.2-4.3.3-7.4 1.4-8.1.6-.4 3.1-1 5.7-1.3 9.1-1.3 21-10.1 25.9-19.3 3.3-6.2 3.5-7.5 3.2-21.6-.2-9.6 2.7-21 5.7-22.1.8-.3 1.3-1.2 1-2s.5-2.4 1.9-3.7c1.5-1.4 2.2-2.9 1.9-4-.9-2.8 1.1-3.1 5.4-1 8.1 4.2 29.3 5 42.6 1.6 6.8-1.7 16.8-8.2 29.6-19.2 4.7-4 9-7.3 9.4-7.3.5 0 2-1.1 3.4-2.4 4-3.7 11.9-5.7 25.3-6.4 14.1-.8 135.2-.6 138.4.2m323.3 106.1V764h-6c-3.4 0-5.9-.3-5.7-.8 5.6-11.3 10.1-21.3 10.5-23.5.3-1.5.7-2.7.9-2.7s.4 6.1.3 13.5m-.3 54.5-.1 34h-13c-7.1 0-34.3.1-60.3.3-25.9.1-47.2.1-47.2.1 0-.1 3.7-.7 8.2-1.4 4.5-.6 11.8-2.3 16.2-3.8 10-3.2 29.8-13.2 39.1-19.7 8.8-6.2 28.5-25.7 35.4-35.2l5.3-7.1 7.2.5c4.9.4 7.5.2 8-.6.4-.6.9-1.1 1-1.1.2 0 .3 15.3.2 34m-119.7-31.6c-.2.2-3.8 1.8-7.9 3.4-7.1 2.8-17.5 5.2-23 5.4-6.3.2-24.1 3.1-30.2 4.8-5.6 1.7-7.3 2.8-11.2 7.1-2.5 2.8-4.5 5.4-4.4 5.7.1.4-.6 2.1-1.5 3.9-3.8 7.1 3 21.8 12.7 27.4 2.8 1.6 8.8 4.1 13.4 5.5 4.5 1.5 8.2 2.7 8.2 2.8 0 0-103.4.1-229.8.1H201.5l-.2-33-.1-33.1 252.1-.2c138.6-.1 251.9 0 251.6.2m-492.2 75.9c.5.6-17.4 53.6-19 56-2.4 3.6-8.1 5.8-16.6 6.4l-7.6.6 1.2-16.9c.6-9.3 1.4-23 1.8-30.4s.8-14 1-14.7c.3-.7 3-1.3 7.2-1.5 7.3-.3 31.5.1 32 .5m645.1.2c.2.2.6 4.2.8 8.7.3 4.6 1.1 15.5 1.9 24.3s1.6 18.8 1.8 22.1l.3 6.1-11.1-.2c-6.1-.1-12.1-.8-13.3-1.4-3.3-1.7-5.2-6.4-14.1-32.8-4.4-13.4-8.4-25-9-26-.9-1.7.2-1.8 20.6-1.6 11.9.2 21.8.5 22.1.8"/><path d="M303.6 397.1c-5.4 7.8 20.7 21.9 31 16.6 4.7-2.4 6.7-5.2 5.5-7.5-.9-1.7-2.3-2.1-9.3-2.4-7.6-.3-8.8-.6-14.3-4.2-7.2-4.7-10.8-5.4-12.9-2.5m116.4 1.5c-1.9.9-5.6 2.2-8.2 3-4.6 1.4-5.1 1.3-11.3-1.2-6.2-2.4-6.7-2.5-9-1-1.6 1-2.5 2.6-2.5 4.2 0 2.1 1 3 6.3 5.5 8.4 4 15.6 3.9 24.4-.3 7.7-3.7 11.2-7.2 9.7-9.6-1.5-2.3-5.1-2.5-9.4-.6m-58.6 24.5c-1.7.5-3.9 1.8-4.9 2.9-1.7 1.9-1.7 2.1.8 5.7 1.5 2.1 4.2 4.7 6.2 5.7 3.1 1.7 3.5 2.4 3.5 5.9 0 3.1-.7 4.6-3.3 7.2-3.8 3.8-10.9 5.5-14.6 3.5-2.7-1.4-5.8-.5-7.2 2.2-2.6 4.9 5.7 9.7 14.4 8.3 4.4-.6 12.7-4.6 14.7-7 1.2-1.4 1.5-1.4 3.9.9 7 6.7 19.8 5.8 24.1-1.7 1.3-2.4 1.3-2.8-.2-4.4-1.6-1.5-2.2-1.5-5.3-.4-4.3 1.5-12.1.5-14.5-1.9-1-1-2.1-3.6-2.5-5.8-.6-3.8-.4-4.3 3.9-8.6 7.5-7.4 5.6-10.7-6.9-12.6-8-1.1-8-1.1-12.1.1M377 681.7c-1.9.2-15.1.4-29.2.5-28.3.3-29.6.6-26.7 5.6 1.5 2.7 1.6 2.7 12.4 2.8 16.8.3 121 .6 156.5.5h149c110.2 0 117.5-.1 118.7-1.8 1.7-2.2 1.7-5.9.1-7-1.1-.7-371-1.2-380.8-.6"/></g></svg>