<svg xmlns="http://www.w3.org/2000/svg" width="1365.333" height="1365.333" preserveAspectRatio="xMidYMid meet" version="1.0" viewBox="0 0 1024 1024"><g fill="#000" stroke="none"><path d="M561.6 84.5c-.9.9-1.6 1.7-1.6 1.8s-.3 55-.7 121.9c-.5 97.1-.3 122.1.7 123.3 1.5 1.8 5.4 2 6.7.2.6-.6 1.3-2.6 1.7-4.2.3-1.7.9-56.1 1.2-121 .5-126 .6-122.6-4.3-123.3-1.1-.2-2.8.4-3.7 1.3m6 2c1.5 2.3 1.6 12.5 1.1 120.2-.3 64.8-1 119.1-1.4 120.7-1.2 4-3.6 5.4-5.9 3.6-1.6-1.4-1.6-8.9-1.1-122.5.4-66.5.6-121.1.7-121.2.1-.7 3.3-3.3 4-3.3.5 0 1.7 1.1 2.6 2.5"/><path d="M696 87.7c-1.9.2-27 .4-55.7.5-59 .3-55.8-.1-55.7 8.1 0 2.3.1 57.3.3 122.2l.2 118-14.3.5c-7.9.3-17.2.2-20.8-.3-9.8-1.1-74-.1-85 1.4-5.2.7-10.6 1.3-12 1.3l-2.5.1-.6-17.5c-.5-17.3-1.2-22.2-5-35.1-2.2-7.7-3.3-8.9-8.9-9.6-5.8-.8-14.4 3.8-25.5 13.5-11.4 9.9-25.3 24.6-29.1 30.6-1.6 2.5-3.5 4.3-4.1 4.1-4-1.4-21.5-1.6-36.4-.5s-17.3 1.1-18-.1c-.4-.8-3.3-4.6-6.3-8.4-3-3.9-7-9-8.8-11.4-4.9-6.7-18.7-20.1-25.1-24.5-4.4-3-6.9-4-11-4.4-7.1-.6-9.6 1.6-13 11-7 19.4-9.2 36.2-8.4 63.3.4 15.1.2 19.5-.9 21.7-4.5 8.6-7.6 21.6-8.7 36l-1.1 14.8h-15c-16 0-19.9.9-20.4 4.5-.1 1.1.3 2.8 1 3.8 1.1 1.4 3.7 1.8 17.3 2.3 10 .4 16.4 1 17.1 1.8 1.1 1.1 3.8 13.5 3.2 14.2-.3.2-6 .8-12.9 1.5-14.4 1.2-16.6 1.9-17.5 5.4-1.5 6 4.4 7.8 21.4 6.4 6.8-.5 12.9-1.1 13.4-1.2 1.2-.3 1.9.9 6.2 10.3 1.9 4.1 4.3 8.7 5.2 10.2 1.8 2.6 1.8 2.8-.3 5-1.1 1.3-2.9 4-4 6.1l-1.9 3.9-20.5.3c-19.3.4-72.3 4-74 5.1-.5.2-7.5.9-15.6 1.4-12.2.7-16.3 1.4-23.3 3.8-20.1 7-31.1 17.5-37.2 35.4-3.2 9.3-3.2 25.7 0 35.3 4.4 13 10 19.8 19 22.5 8.2 2.5 11 4.2 12.2 7.4.7 1.7 1.8 4.3 2.6 5.8 1.2 2.2 1.4 14.2 1.5 73.5 0 83.3 0 92.1-.9 107.3-1.2 19.8 2.5 34.9 10.7 43.1 5.5 5.6 14.1 8.7 27.1 9.7 5.3.5 8.4 1.2 8.3 1.8-.3 1.7-2.2 32-3 46.7l-.6 12.7h-8.6c-11.8 0-28.1 1.2-27.6 1.9.2.4 3.7.4 7.7 0s12.4-.8 18.6-.8l11.2-.1v-5.8c0-6.7 1.8-37.5 2.9-47.8.4-3.9.5-7.6.3-8.3-.2-.6-2.8-1.1-6.5-1.1-7.3 0-17.2-2.2-22.5-4.9-12.4-6.4-18.5-23.1-17-47.1.9-15.2.9-24.1.9-107.5-.1-58.6-.3-71.5-1.5-73.7-.8-1.4-1.9-4.2-2.5-6.1-1-2.8-2-3.8-5.9-5.2-9.3-3.3-10.3-3.8-14.2-6.6-4.5-3.3-9.2-10.8-11.7-18.9-2.4-7.5-2.4-25.6 0-32.3 4.8-13.6 12.1-22.6 23.9-29.7 11.6-6.9 19.1-9 36.1-10 8.1-.5 15.1-1.2 15.6-1.4 1.8-1.1 55.1-4.7 74.5-5l21-.4 2.2-4.4c1.2-2.4 3-5 3.8-5.7 2.2-1.8 2-4.7-.4-8.2-1.2-1.5-3.7-6.3-5.6-10.6-2-4.3-4-8.1-4.5-8.4-.6-.3-3.3-.2-6.2.2-2.9.5-9.8 1-15.3 1.1-8.8.3-10.5 0-12.3-1.6-5.4-4.8-1.6-7 14.9-8.5 7.4-.7 13.6-1.4 13.9-1.7.2-.2-.1-2.7-.7-5.5-.7-2.8-1.2-6.1-1.2-7.4 0-1.4-.8-2.8-1.8-3.3-.9-.5-8.6-1.2-17.1-1.6-9.2-.3-15.9-1-16.7-1.7-2-1.7-1.7-3.6.8-5.3 1.8-1.3 5.3-1.6 17.8-1.6h15.6l1.1-15.3c1.2-15.4 3.5-25.4 8.3-34.7 1.7-3.2 1.8-5.5 1.3-23.1-.6-21.8.5-35 4.2-49.9 2.8-10.9 5.8-18.5 8.8-21.8 3.4-3.7 9.2-3 16.6 1.9 6.8 4.5 20.7 18 25.9 25 1.8 2.4 5.8 7.5 8.8 11.4 3 3.8 5.9 7.6 6.4 8.4.7 1.3 3 1.3 18.4.1 15.8-1.1 33.1-.9 36.9.6.8.3 3.6-2.5 7-6.8 3.1-4.1 10.4-12.1 16.4-17.9 22.4-21.8 33.5-27.8 39.8-21.5 4.8 4.8 8.5 23.9 8.5 44.1 0 17.5-.2 17.3 8.6 15.5 9.5-1.8 44.4-3.1 71-2.6 28.6.6 56.7.7 57.2.2.5-.6.2-234.1-.4-238.6-.9-6.9 1.2-9 9.6-9.5 14.1-.8 339.7-.4 343.3.4 2.1.5 4.4 1.5 5.2 2.1 1.3 1.1 1.5 27.2 1.4 212.9-.1 116.4-.4 214.1-.8 217.1-.7 6-2.5 7.5-5.5 4.5-1.4-1.4-1.6-4.4-1.6-20.1 0-18.2 0-18.4-2.2-18.8-1.3-.3-33-.7-70.5-.9l-68.3-.5v5.3c0 5.1.1 5.3 3.1 5.9 1.7.3 6.6.6 10.8.6s10.5.4 14.1.9 14.4 1.2 24 1.6c39.4 1.4 47.8 4.2 68.8 23.3 8 7.3 9.8 9.7 13.5 17 4.1 8.4 4.2 8.7 4.5 20.5.3 10.4.1 12.8-1.8 18.1-3.6 9.8-9.9 18.3-17.6 23.6-7 4.9-6.8 1.8-6.8 97-.1 46.5.1 91.3.3 99.6.5 14 .3 15.8-1.9 22.8-5.3 16.5-14.5 23.5-33.3 25.3l-6.8.6.5 10.6c1.6 33.3 2.7 49.6 3.3 50.2.5.4 10.4 1.3 22.1 1.9s21.9 1.3 22.7 1.6c2.2.9 2.7 3.6.8 5.6-1.6 1.8-3.4 1.9-39.7 1.6-35.2-.3-38.4-.5-41.6-2.2-4.8-2.6-6.9-4.6-8.7-8-2.1-4.1-20.3-57.7-20.3-59.8 0-1.3-.8-1.8-2.7-1.9-9.7-.4-579.6.1-580 .5-.6.5-7.8 21.2-9.7 27.6-5.8 19.7-11.6 34-13.8 34-.4 0-.8.4-.8 1 0 1.7 2.6 0 4.3-2.9.9-1.5 5.7-15.1 10.8-30.2 5-15.1 9.4-27.8 9.8-28.2.6-.6 567.3-1.4 578.7-.8 1.6.1 2.3 1.1 3.1 4.3 2.3 8.9 19.4 57.4 21.1 59.8 1 1.4 4 3.6 6.8 5l4.9 2.5 37 .3c20.3.2 38 0 39.2-.3 4.2-1 5.3-7.8 1.4-8.9-.9-.3-11-1-22.6-1.6-11.5-.6-21.4-1.5-21.8-1.9-.7-.7-1.3-9.5-3.3-48.2l-.5-10.6 6.5-.7c8.9-.9 18.8-4.1 22.6-7.2 4.2-3.6 8.6-10.2 9.5-14.4.4-1.9 1.1-4 1.6-4.6 1.8-2.3 2.6-15.2 1.8-29.4-.4-8-.8-50.5-.9-94.5 0-91.4-.2-89.2 7.5-94.5 7.8-5.4 14-14 17.3-23.9 3-8.8 3.1-25.2.2-33.5-3.5-10.2-7-15.4-16.4-24-20.4-18.6-29.9-21.8-69.6-23.1-9.6-.4-20.4-1.1-24-1.6s-10.1-.9-14.5-.9c-11.7 0-12.5-.4-12.5-5.5v-4.3l68.3.5c37.5.2 68.8.6 69.5.8.9.3 1.2 5 1.2 18.9 0 15.4.3 18.7 1.6 20 2.1 2.1 6 2 7-.2 1.4-2.7 1.7-434.1.3-435.8-2.6-3.2-11.6-3.4-128.4-3.7-64.3-.1-118.6-.1-120.5 0"/><path d="m597.5 97-4 .5-.2 15.2-.2 15.3h15.7c13.2 0 16.2.3 18.2 1.7 3.8 2.6 4 3.1 4 12.9v9.1l3 .7c4 .7 31.8-.4 34.7-1.5 2-.7 2.2-1.6 2.5-9.1.4-11.1-.2-10.9 24.9-10.6 25.1.4 24.3-.1 23.3 13.9-1 14.3-1.4 13.9 15.3 13.9 11.3 0 14 .3 15.5 1.6 1 1 3.4 6.9 5.4 13.3 1.9 6.4 7.6 24.4 12.5 40.1 5 15.7 9.4 30.3 9.9 32.5.7 3.6.8 3.7.9.9.1-1.6-1.3-7-2.9-12-1.7-4.9-7.6-23.5-13.1-41.4-7-22.6-10.7-33-12.1-34.3-1.7-1.4-4.1-1.7-15.3-1.7-10.6 0-13.5-.3-14.5-1.5-.9-1.1-1.1-4.1-.6-11.3.7-8.9.5-10-1.2-12.3l-2-2.4h-22c-17.1 0-22.3.3-23.5 1.4-1.3 1-1.7 3.1-1.7 9.2 0 6.4-.3 8-1.7 8.7-2.1 1.1-30.8 2.4-34 1.6-2.2-.6-2.3-1.1-2.3-9.8 0-9.8-.2-10.3-4-12.9-2-1.4-5-1.7-18.1-1.7h-15.7l-.1-13.9c-.1-8.2.2-14.2.8-14.5 1.4-.9 340.4-.7 341.1.2.3.4.3 39.4 0 86.7l-.5 86-5.5.3c-3 .2-7.3.1-9.5-.3l-4-.5.3-67.3c.1-36.9 0-68.2-.3-69.3-.9-3.7-5.1-4.6-20.9-4.2-11.6.2-14.9.6-16.1 1.9-1.5 1.5-2.3 7.2-2.4 19.1l-.1 4.8h-8.9c-14.3 0-13.1-1.4-17.4 21.7-6.4 34-14.8 79.5-16 86.8l-1.2 7-5.2.3-5.3.3v-68.8c0-37.8-.4-69.3-.8-70-1.6-2.5-6.8-3.3-21.3-3.3-16.9 0-21.9 1.2-21.9 5.2-.1 1.3-.1 22.1 0 46.3.1 46.2.6 63.5 2.1 66.9.6 1.6.7 1.2.4-1.4-1.1-7.7-1.4-22.5-1.6-66.4-.1-41.1.1-46 1.5-47.5 1.4-1.3 4.5-1.7 17.8-1.9 14.3-.3 18.3.1 22 2.2.2 0 .5 31.4.8 69.6l.5 69.5 3.9.3c7.5.6 8.2.1 9.4-8 1.1-7.8 7.2-41.1 14.7-80.8 3.3-17.5 5.1-24.9 6.2-25.8 1.1-.8 5.2-1.2 11.5-1.2h9.8l.1-5.3c.3-21.2-.2-20.7 19.3-20.7 13 0 14.4.2 16.4 2.1l2.2 2v68.2l-.1 68.2 2.3.7c3.3.9 16.1.9 17.5 0 .9-.6 1.2-20.9 1.3-87.7l.2-87-32.9-.2c-70.7-.6-303-.8-306.8-.3"/><path d="M593.9 144.2c-.2 27.7.3 127.3.6 127.8.2.3 6.8.6 14.6.5h14.3l.4-65.8c.2-36.3.1-67-.2-68.3-.6-2.4-.6-2.4-15.1-2.4H594zm28.6 60.3-.1 67h-13.3c-7.3 0-13.4-.2-13.6-.5-.3-.5-.8-100.6-.6-126.3l.1-7.8 13.8.3 13.7.3zm56.2-64.8c-.4.3-.7 30.5-.7 67V273h34.5l-.3-65.7c-.1-36.2-.4-66.4-.7-67.1-.3-.9-4.5-1.2-16.3-1.2-8.7 0-16.2.3-16.5.7m31.8 1.5c.3.7.6 30.4.7 66.1l.3 64.7H679v-65.3c0-36 .3-65.7.7-66 .3-.4 7.3-.7 15.5-.7 11 0 15 .3 15.3 1.2m77 50.5c.9 76.8.9 79.1 1.8 78.6.4-.2.5-6.6.2-14.1s-.7-36.8-1-65l-.6-51.2h11.3c6.2 0 11.8.4 12.5.8.9.6 1.3 15.9 1.3 65.7l.1 65-12.8.6-12.8.5h13.3l13.4-.1-.2-66c0-36.2-.3-66.2-.6-66.5s-6.4-.6-13.5-.8l-13-.4zm98.3-50.5c0 1.3-.2 31.2-.2 66.5-.1 63.4-.1 64.2 1.9 64.7 1.1.3 6.2.6 11.3.6h9.3l-.3-65.9c-.2-36.3-.6-66.2-.9-66.5s-5.1-.8-10.7-1.1c-10.1-.6-10.2-.6-10.4 1.7m20.1.4c.3.3.7 29.8.9 65.5l.3 64.9h-9c-4.9 0-9.5-.2-10.3-.5-1.1-.4-1.3-12-1.2-64.3 0-35 .2-64.5.2-65.5.2-1.6 1.1-1.7 9.3-1.3 5.1.3 9.5.8 9.8 1.2m-274.4 19.6c-.2.7-.6 25.9-.7 56-.2 44.9-.1 54.9 1 55.3.8.3 11.1.4 23 .4 11.9-.1 20.5-.4 19-.6l-2.8-.4v-55.4c0-49.5-.2-55.3-1.6-55.9-.9-.3-9.6-.6-19.5-.6-13.5 0-18.1.3-18.4 1.2m38 55.3v55h-37.8l.2-54.4c.1-30 .5-54.9.7-55.3.3-.5 8.7-.7 18.7-.6l18.2.3zm192.2-50.8c-.5.8-2 8.6-6.2 31.8-4.4 23.9-8.2 44.4-11 58.7-1.5 7.5-2.5 14.4-2.2 15.3.5 1.2 2.4 1.5 10.7 1.3l10-.2v-3.1c0-5 3.8-23.9 9.5-46.5 5-20 5.4-22.7 6-37.6.4-8.9.4-17.1 0-18.3-.6-1.9-1.4-2.1-8.5-2.1-4.3 0-8.1.3-8.3.7m15.5 18.3c-.3 17.4-.3 17.6-5.7 39-5.4 21.7-9.5 41.4-9.5 46 0 2.5-.1 2.5-9.5 2.8-8.9.2-9.5.1-9.5-1.7 0-1.1 1.6-9.8 3.5-19.3s4.3-22.3 5.4-28.3c8.4-46.4 10-54.5 10.7-55.7.3-.5 3.8-.8 7.7-.6l7.2.3zm-157.4-10.3c-.5 10.8 0 14.3 2.1 14.3 1 0 2.3.6 2.8 1.2 1.3 1.8 5.7 13.6 9.2 24.8 1.6 5.2 5.2 16.7 8 25.5 2.7 8.8 6 19.4 7.2 23.5s2.7 8.1 3.2 8.7c1.2 1.7 24.7 1.8 24.7.3 0-.6-1.1-4.6-2.4-8.8-1.4-4.2-4-12.7-5.9-18.7-8.8-28.1-12.3-39.3-17.8-56.3-3.2-10-5.9-18.9-5.9-19.7 0-1.3-2.1-1.5-12.4-1.5h-12.4zm25-2c.5 2.1 3.1 10.3 5.7 18.3 2.5 8 6.9 21.7 9.7 30.5 8.5 27.3 15 47.9 15.5 49.8.5 1.6-.3 1.7-11.3 1.5-11.6-.3-11.8-.3-12.5-2.8-4.3-14.5-9.3-31-11.4-37.5-1.5-4.4-4.5-13.9-6.7-21-2.3-7.2-4.5-13.7-5-14.5-.4-.8-1.4-3.2-2.2-5.3-1-2.5-2.1-3.7-3.5-3.7-2.3 0-2.8-2.8-2.3-12.8l.4-6.2h22.6zm-25 62.3c.3 23.8.1 33.5-.8 34.4-.8 1.1-.8 1.6.1 2.2.9.5.7.9-.7 1.4-1 .4 3.8.8 10.8.9 6.9.1 12.9-.2 13.2-.7.2-.4-2.2-9.1-5.5-19.3-6.8-21.1-14.9-48.4-14.9-50.5 0-.8-.6-1.4-1.2-1.4-1 0-1.2 7.1-1 33m5.6-15c2.5 8.5 7.2 23.7 10.4 33.7 3.3 10 5.7 18.5 5.4 18.8-.8.8-18.6.6-19.7-.3-.6-.4-1-13.3-1-35 0-18.8.1-33.9.2-33.5.2.5 2.3 7.8 4.7 16.3m149.8 20.6c-.7 5.3-2.3 14.6-3.7 20.7-1.4 6-2.4 11.1-2.3 11.3.2.1 2.1.4 4.3.6 3.9.3 4 .2 4.7-3.7.4-2.2.7-11.8.7-21.3.1-13.5-.2-17.2-1.2-17.2-.9 0-1.7 3-2.5 9.6m2.3 25.9-.6 6.1-3.5-.4c-2.4-.3-3.4-.9-3-1.7.9-2.5 5.5-26 6.3-32.5.7-5.8.8-4.9 1.1 8 .2 8 0 17.2-.3 20.5"/><path d="M672.8 270.7c.6.2 1.8.2 2.5 0 .6-.3.1-.5-1.3-.5s-1.9.2-1.2.5m-79.1 12.9c-.3 2.1-.4 7.5-.3 11.9l.1 8 141-.2c77.6-.1 154.8-.2 171.8-.3H937v-22H798.8c-76.1 0-153.2-.3-171.4-.7l-33.2-.6zm204.1-1.6H936v20h-30.2c-16.7.1-93.5.2-170.8.3l-140.5.2-.2-8c0-4.4.1-9.3.4-10.9l.5-2.9 32.2.6c17.6.4 94.3.7 170.4.7m-529.9 6.7c-7.2 18.9-10.4 48.3-7.6 69.8 1.4 10.3 1.4 11.2-.3 14-5.5 9.3-10 28.6-10 43v9.4l5.8.5c9.7 1 20.5 2.7 23.9 3.7 3.8 1.2 5.2 4.4 3 6.6-1.4 1.4-3 1.4-15.7-.2-8.5-1.1-14.4-1.5-15-.9-1.3 1.3 1.8 13.1 3.6 13.8.8.3 3.6.1 6.2-.4 5.8-1.1 11.9-.7 13.5.9 1.9 1.9-3.1 5.8-9.3 7.4-3.7.9-5.6 1.9-5.8 3-.5 2.5 6.1 15.3 11.2 21.8 4.6 5.9 10.8 9.6 23.4 14 8 2.8 9.9 5.7 6.1 9.4l-2.4 2.4-6.2-1.9c-7.1-2.2-14.9-6-21-10.1-2.3-1.6-4.6-2.9-5.1-2.9-2.2 0-10.5 25-12.7 38-3.2 19.4-3.6 22.7-3.1 30.5.6 8.4 6.2 26 8.8 27.6 2.1 1.2 7.7 5.2 10.5 7.5 3.7 2.9 2.5 5.4-2.4 5.3-3.9-.2-15 2.9-21.3 5.8-6.4 2.9-22.4 12.5-29 17.4-8.7 6.4-16.9 15-21.9 23-2.2 3.6-4.1 6.9-4.1 7.3 0 .3-1.1 2.3-2.3 4.4-2.7 4.2-6.6 15.8-9.3 27.7-2.2 9.6-2.4 25.1-.5 35 1.2 6.1 6.3 18.5 7.6 18.5.6 0-.9-3.9-3.3-8.7-4.8-9.4-6.1-30.4-2.8-44.8 2.9-12.6 5.6-20.6 8.7-25.8 1.6-2.6 2.9-5 2.9-5.4 0-.3 1.9-3.6 4.1-7.2 8.1-13 19.5-22.7 40.7-34.9 12.8-7.3 23.6-11.3 31.2-11.6 4.3-.1 4.5-.2 4.5-3 0-2.3-1-3.6-4.5-6.3-2.5-1.8-5.5-3.8-6.6-4.4-2.2-1.1-3.6-3.7-7.4-13.9-2.5-6.7-3.4-19.2-2.1-28 3.8-24.2 6.4-34.4 12.2-48.1l2.1-4.8 4.2 2.8c6.2 4.3 12.3 7.2 20.6 9.7 6.8 2.1 7.7 2.2 9.8.8 3-2 3.6-3.7 2.5-7-.7-2.1-2.4-3.2-9.5-5.9-12.6-4.7-17.3-7.8-22.3-14.7-5.3-7-11-18.2-10.1-19.7.4-.5 3.1-1.5 6.2-2.2 6.9-1.6 12-7.2 8.4-9.4-1.9-1.2-9.3-1.4-14.3-.4-2.9.5-5.5.5-5.9.1-1.6-1.6-3.7-11.1-2.6-11.8.5-.3 7.2.2 14.8 1.2 11.4 1.4 14.2 1.5 15.4.4 2-1.6 2.1-5.4.2-7.3-1.6-1.5-17-4.7-22.9-4.7-1.9 0-4.9-.3-6.7-.7l-3.3-.6.6-12.1c.6-13.8 2.8-23.5 8-34.6l3.5-7.5-1.5-11.5c-2.5-19.1 0-46 5.8-63.7 1.1-3.5 2.5-6.5 3-6.8 3-1.9 23.7 18.8 38.2 38 4.9 6.6 9.6 12.4 10.3 12.8s5.5 0 10.6-.9c8.6-1.6 33.5-2.2 49.8-1.2 4.3.3 4.6.1 8-4.6 6.9-9.6 19.2-22.7 28.3-29.9 10.8-8.7 17.5-13.2 18.3-12.4 1.4 1.4 2.5 9.4 3.1 23.2.3 8.2 1 15.5 1.5 16.2 1 1.3.2 27.3-1.2 36.6-.8 5.3-.7 6.3 1.4 9.5 5 8.1 8.6 19.9 10 33.5.6 5.6.5 5.8-2.1 6.8-3.3 1.2-4.3 2.6-4.3 6 0 3.1 2.3 5.4 4.5 4.5 2-.7 2.7 1.2 1.7 4.9-.7 2.4-1.5 3.1-4.7 3.7-4.3.9-5.5 2.1-5.5 5.6 0 1.6 1 2.7 3.5 3.9 4 1.9 4 2.3-.8 11.8-5 10.1-12.2 19.9-18.7 25.5-7 6.1-8.9 9.5-6.6 11.8 1.3 1.4 2.2 1.2 7.8-1.3 14.1-6.2 22.8-16.3 31-35.8 1.8-4.4 3.8-7.7 4.6-7.7s6.1.7 11.7 1.5c9.6 1.5 11.2 1.4 26.6-.5 26.9-3.4 32.6-3.9 51.5-4.6 35.1-1.2 71.6 3.3 97.4 12.1 21.5 7.3 41.5 18.5 55.7 31.2 12.9 11.5 29.7 34.2 36.2 49 1.7 3.9 3.1 7.5 3.1 8 0 .4.5 2.4 1 4.4.9 3.2 2.2 4.4 9.6 8.8 36.7 21.9 60.5 51.3 67.4 83.1 3.7 16.7 5.2 50.9 2.8 64-4.8 26.8-10.5 41.4-23.6 61-17.2 25.7-46.3 48.7-72.6 57.5-16.9 5.6-45.4 7.7-62.6 4.5-6.8-1.2-21.2-8.2-23.8-11.5-3.1-3.9-3.6-9-1.5-12.8 3.2-5.5 8.2-7.3 24.1-9.2 14.9-1.6 32.7-5.8 42.2-9.7 28.1-11.5 53.4-36.8 62.7-62.5 6.2-17 7.3-22.7 7.9-38.3.6-16.7-.6-32.3-3.2-39.5-2.8-7.7-7.5-15.5-16-26.2-10.9-13.9-13.3-16.3-16.5-16.3-4.2 0-5.4 2.3-4 7.1 1.1 3.7 1 4.6-1.3 9.4-5 10.2-16.6 18.5-31.6 22.8-8.7 2.5-42.4 6.2-65.3 7.2-19.5.9-44.8 3.3-61.5 5.9-8.1 1.3-15 2.1-15.4 1.7-.4-.3-.2-2.5.5-4.8 1.3-5 0-7.3-4.4-7.3-2.2 0-3.5 1-5.9 4.4-1.6 2.5-3 4.9-3 5.4 0 1.9-2.9 3.2-7.9 3.6-7.4.5-8.2-1.1-4.1-7.7 4.2-6.7 4.6-11.7 1-12.7-4.2-1.2-6.3.4-10.3 7.6-5.8 10.6-5.1 10-8.6 7.5-1.7-1.3-3.1-3.1-3.1-4.3 0-3.7 4.3-9.8 9.1-12.9 12.6-8.1 46.5-15.2 77.4-16.4 28.4-1 33.4-1.4 35.5-2.5 3.8-2 1.6-7.4-3.3-8.4-14.2-3-30.5-7.3-36.6-9.6-14.7-5.7-25-14.1-29.7-24.3-2.7-5.7-2.9-7.1-2.9-17.7 0-8.1.5-13.1 1.7-17 4-12.8 15.3-26.7 28.6-35.3 5.8-3.7 7.2-5.2 7.2-7.2 0-5.5-9.4-3.8-19.8 3.4-6.1 4.4-17.2 16.8-21.5 24.1-4.4 7.7-6.8 16.5-7.4 27.4-.6 12.1 1 20.4 6.3 31.3 2.8 5.8 4.7 8.3 9.2 11.8 4.9 3.8 14.7 9.3 24.2 13.3 2.2 1 2 1.1-2.5 1.1-2.7.1-11.1.8-18.5 1.6-31.7 3.6-47 8.6-58 19-4.4 4.2-4.7 4.3-13.1 4.8-4.7.3-12 .3-16.2 0l-7.6-.6 3.2-3.7c4.1-4.8 9.5-18.6 10.7-27 .5-3.6 1-10.4 1-15.1 0-17.1-7.1-30.3-13.9-26-1.5 1-1.3 5.7.9 23.1 1.8 14.6 1 23.5-2.9 31.5-5.2 10.6-11.5 13.9-28.1 14.9-3.6.3-20 .5-36.5.7-37.1.2-62.5 2-71.5 4.8-5 1.6-8.8 3.9-16 9.7-11.1 8.9-30 21.5-31.2 20.8-.4-.3-.8-1.3-.8-2.3 0-.9-.9-3.6-2-5.9-1.1-2.2-2-4.7-2-5.5 0-2-3.3-4.7-5.7-4.7-4.3 0-4.9 2.4-2.9 11.8 2.1 10.4 1.4 11.2-7 8.7-.6-.2-1.4-3-1.8-6.2-1.1-9.4-2.3-12.9-5.1-14.1-5.4-2.5-7.2 1.6-5.7 12.6.5 3.4.5 6.5.1 6.8-.4.2-2.3-.9-4.1-2.5-3.1-2.8-3.3-3.2-3.1-9.5.1-5.5.8-7.8 3.9-13.7 13.8-26.1 52.6-45 117.9-57.4 7.7-1.5 14.6-3.1 15.3-3.7 2-1.7 1.4-5.7-1.3-8.4-2.4-2.4-3-2.5-9.3-1.9-15 1.6-58 14.3-77.7 23-21.2 9.4-33 17-44.2 28.6-10.6 10.8-16.2 24.8-14.9 37.2.5 5.1.3 6.2-1.8 9-4.6 6.1-8.3 13.3-10.9 21.2-2.3 6.8-2.7 9.7-2.7 19.5 0 8.9-.4 12.3-1.8 15-2.5 5.2-4.6 5-6.8-.5-1.9-5.2-4.6-7.5-8.6-7.5-5 0-5.5 3.3-1.8 12.9 2 5 2.9 8.6 2.3 9.2-.5.5-2.6 1-4.8 1.2l-3.8.2-2.2-9.8c-3-12.5-2.9-12.3-6.1-13.1-4.6-1.2-5.9 1.2-5.8 10.2 0 4.3.6 8.7 1.3 9.7 1 1.6 1.1 1.7.7.2-.3-.9-.8-4.5-1.1-8-.8-8.7 1.8-13.4 5.8-10.5 1.5 1.1 2.4 4.2 6.2 20.5.6 2.6 2.2 2.8 7.8 1.2 4.6-1.2 4.6-2.2.5-12.2-3-7.2-3.1-7.9-1.5-9.4 2.9-2.9 6.8-.7 9.7 5.4s5.9 7 8.7 2.6c1.4-2.1 1.9-5.8 2.4-17.2.4-11 1.1-16 2.6-20.1 2.2-5.8 6.9-14.4 10.9-19.7 2.2-2.9 2.4-3.9 1.8-9.5-3.3-33.9 35.9-63.1 112.1-83.3 7.2-1.9 16.7-4 21.3-4.6 8.1-1.1 8.4-1 10.8 1.2 2.7 2.5 3.1 5.1 1 6.8-.7.6-7.4 2.3-14.7 3.7-66 12.5-105.6 31.9-118.4 57.8-3.1 6.2-3.7 8.4-3.8 14.5-.1 6.3.2 7.4 2.3 9.6 3.2 3.1 7.6 3.8 7.3 1.1-.1-1-.4-4.9-.8-8.5-.8-8.1.7-11.2 4.3-9 2.7 1.7 4 5.3 4.8 13.5.4 3.6 1 6.7 1.5 6.9 1.3.8 9.7 1 10.5.2.4-.3-.1-4.5-1.1-9.1-1.5-7-1.6-8.8-.5-10.1 2.6-3.2 5.9-.8 8 6 .7 2.2 1.6 4.4 2.1 5 .5.5.9 1.9.9 3.2s.7 2.6 1.5 2.9c2 .8 16.9-8.7 30.1-19.2 11.6-9.2 13.8-10.6 19.9-12.3 6.8-2 37.6-3.8 68.7-4 43.1-.3 52-1.2 58.9-6.2 3.8-2.7 7.7-9.5 9.6-16.6 1.7-6.4 1.3-24.6-.7-34.1-1.5-6.9-1-13.6 1.2-14s5.6 3.3 8.1 8.8 3.4 19.9 1.9 30.9c-1.3 9-6.5 21.9-10.9 27.1-1.8 2.1-3.3 4.2-3.3 4.8 0 1.3 14.6 2.2 25.5 1.5l9-.6 5-4.7c6-5.6 17.7-11.4 28.3-14 9.2-2.3 27.9-4.8 42-5.7 7.4-.4 10.2-1 10.2-1.9 0-.7-1.7-1.8-3.7-2.3-4.8-1.3-18.1-8.9-23.7-13.5-8.1-6.6-14.6-22.8-14.6-36.6 0-16.7 4.5-28.5 16.2-42.5 10.3-12.2 25.2-21.8 29.7-19 2.5 1.5.7 3.8-6.1 8.2-20.7 13.4-31.6 33.1-30.6 55.3.7 13.4 3.2 19.8 11.2 27.5 10 9.7 20.9 14.5 45.6 19.9 6.9 1.6 13.5 3.3 14.7 3.8 2.8 1.4 3.7 3.8 2 5.5-1.4 1.4-5.3 1.7-35.2 2.8-30 1.1-66.4 8.8-78.6 16.6-5.1 3.2-8.9 9.3-8.9 14.1 0 2.7 4.3 6.8 7.2 6.8.7 0 3.3-3.6 5.8-8.1 4.8-8.8 6.3-10.1 9.8-8.8 3 1.2 2.7 3.5-1.3 9.9-5.6 8.7-4.4 11 5.4 10.4 5.2-.4 8.1-1.6 8.1-3.6 0-2.1 6.2-9.8 7.9-9.8 3.4 0 4.6 2.6 3.1 7.1-.8 2.4-1 4.3-.4 4.9.5.5 7-.1 16-1.5 17.1-2.7 42.5-5.1 62.1-6 12.7-.5 33.3-2.4 51.3-4.5 10.1-1.3 23.6-5.2 30.3-8.8 6.4-3.4 14.8-12.7 17.1-18.7 1.6-4.1 1.7-5.3.7-8.2-1-2.7-1-3.7-.1-4.8 3-3.6 5.5-1.6 18.4 14.8 7.6 9.6 15.6 22.4 15.6 24.9 0 .7.7 2.6 1.6 4.3 2.6 4.7 2.6 45.3.1 55-6.4 24.2-15.8 40.9-31.5 55.6-22 20.7-44.5 30.6-78.4 34.4-21.3 2.5-26.5 5.6-26.1 15.7.1 6 2 9 7.8 12.4 10.4 6.1 19.2 8.2 36.6 8.9 37.8 1.5 72-12.4 100.4-41 21.3-21.4 33.7-44 39.9-72.5 3.3-15.4 3.5-18 3.1-38.5-.4-23.8-1.9-34.7-7-50.1-8.8-26.6-31.2-51.7-63.9-71.5l-8.8-5.4-2.3-7.5c-3-10.2-4.7-13.8-11.2-23.8-22.1-34.4-46.7-52.7-88.3-66-24.5-7.8-60.2-12-93.4-10.8-18.9.7-24.6 1.2-51.5 4.6-15.4 1.9-17 2-26.6.5-14.7-2.2-13.6-2.5-16.9 5.8-3.2 7.9-10.1 19.7-14 23.8-9.1 9.7-24.6 17.6-24.6 12.6 0-.6 3.6-4.5 7.9-8.7 4.3-4.1 9.8-10.4 12.1-13.8 4.2-6.4 11-20.3 11-22.5 0-.7-1.5-1.9-3.3-2.8-5.5-2.7-4.5-6.8 1.9-7.8 3.5-.6 3.9-1 4.6-4.6 1.1-4.9.4-6.8-2.1-6-2.5.7-4.5-1.9-3.7-4.9.4-1.5 1.7-2.8 3.6-3.5l3.1-1-.6-6.3c-.8-7.7-4.2-22.9-6.2-27.6-.8-1.9-2.5-5.1-3.7-7.1-2-3.2-2.3-4.4-1.6-8.7 2.1-12.8.8-58.5-2-71.7-1.4-7-2.5-7.2-10.1-1.9-15.4 10.8-30 24.9-39.9 38.8-3.4 4.6-3.8 4.9-7.5 4.6-14.5-1.1-40.7-.4-49.4 1.2-5.2.9-9.7 1.3-10.1.9s-4.8-6.2-9.8-12.8c-14.5-19.4-33.7-38.5-38.6-38.5-.9 0-2.1 1.2-2.7 2.7m386.9 23.1-60.8.2-.5 2.3c-.2 1.2-.4 7.1-.2 13l.2 10.8 41 .4c46.2.5 59.1 1 72 3 6.8 1.1 11.1 1.2 17.5.5 4.7-.5 20.4-1.2 35-1.6 25.8-.6 26.6-.5 29.8 1.5 3.9 2.5 6.2 7.4 6.2 13 0 2.2.5 4.1 1.3 4.4.6.2 5 .1 9.7-.3s12-.5 16.4-.3c9.2.6 9.6.2 9.6-7.3 0-4.9 2-9.2 5.5-11.6.5-.4 8.2-.8 17.1-.8 19 0 19.4.2 19.4 9.3 0 3 .4 6.7.9 8l1 2.4 13.8-.4c7.6-.2 14.4-.6 15.1-.8.8-.3 1.2-2.4 1.2-6 0-5.2.3-5.9 3.8-9.1l3.7-3.5 11.8.6 11.7.7v-13.7c0-9.9-.3-13.7-1.2-14-1.6-.6-197-1.1-281-.7m280 1.7c.9.3 1.2 3.9 1.2 13v12.6l-11.2-.6c-11.1-.6-11.4-.6-14.8 2-4.2 3.1-4.8 4.5-4.9 10.8-.1 2.9-.6 4.9-1.3 5.2-.7.2-7.1.6-14.1.8-14.9.4-14.7.6-14.7-9.2 0-9.9-.5-10.1-20.7-10.1-9.3 0-17.2.4-17.8.8-3.6 2.6-5 5.8-5.5 12.1l-.5 6.6-14.5.3c-8 .1-15.6.4-17 .5-2.3.2-2.5-.2-3.2-5.7-.9-7.2-2.8-10.3-7.6-12.3-3.2-1.4-7.4-1.5-29.7-.9-14.3.3-29.8 1.1-34.5 1.6-6.4.7-10.8.6-17.5-.5-12.8-2-25.6-2.5-71.5-3l-40.5-.4v-23.6l61-.5c70.4-.6 277.4-.2 279.3.5"/><path d="M479 348.1c-29.1.8-29.8.9-30.5 5.7-.3 2-1 5.9-1.5 8.7-.8 4.5-.6 5.6 2 10.5 3.9 7.6 7.8 20.8 9.3 31.5l1.3 9h18.5c10.1.1 19.2.4 20.2.8 2 .8 2.3 5 .4 6.5-.7.6-6.5 1.2-13.2 1.3-6.6.1-15 .4-18.6.7l-6.7.4-.7 6.5c-.4 3.5-.5 6.6-.3 6.8s4.4.9 9.3 1.5c5 .6 9.9 1.6 11.1 2.1 2.3 1.2 5.6.8 35.4-3.2 14.4-2 20.7-2.3 49-2.3 30.8 0 33.3.2 47.5 2.7 22.9 4.1 35.9 7.6 48.5 12.9 12.9 5.4 31.5 16.2 40.5 23.5 14.6 11.8 33.4 33.2 37.7 43 1.1 2.6 3.5 7 5.3 9.8 1.7 2.7 4.3 8.4 5.7 12.5 2.5 7.3 2.8 7.6 8.9 11.4 13.2 8 30.9 22.8 41.6 34.7 6 6.6 16.1 21 19.3 27.4 1.6 3.3 3 5.1 3 4-.1-5.2-15.9-27.2-28.1-39.2-14.4-14-22-20-38.9-30.5-1.7-1-3.3-3.8-4.9-8.4-1.3-3.8-4.6-10.7-7.2-15.4-2.7-4.7-4.9-9.1-4.9-9.7 0-2-14.2-19.6-22.5-27.8-11.1-11.1-18.2-16.6-31.6-24.6-20.9-12.5-37.5-18.3-69.9-24-14.1-2.6-20-3.1-40.5-3.6-25.7-.6-42.4.4-66.9 3.8-8.1 1.1-17.4 2-20.5 2.1-5.2 0-24.9-2.7-25.9-3.6-.2-.3-.1-2.9.3-5.9l.7-5.5 6.2-.4c3.3-.3 11.5-.6 18-.7 6.6-.1 12.7-.6 13.8-1.2 2.1-1.1 2.5-7.3.6-8.5-.7-.5-9.8-.7-20.3-.5l-19 .3-1.3-9.1c-1.4-10.3-6.2-26.6-9.7-32.6-2.1-3.6-2.2-4.6-1.3-10 1.6-10 1.7-10.3 4-11.1 6.6-2.1 222.2-3.4 240.3-1.4 50.9 5.5 77.4 24.8 90 65.7 2.7 8.6 2.8 9.6 3.5 44.3l.8 35.5-7 14.5c-3.8 8-8.4 17.6-10.3 21.5-1.8 3.8-3.6 8-4 9.3-.9 3.2 1.9 7.2 5.1 7.2 2.3 0 3.4-1.8 12.2-19.8l9.7-19.7 6.5.3c3.6.1 21.6.9 40 1.7 37.7 1.7 37.5 1.7 36.9 1-.3-.2-16.7-1.1-36.4-1.9-19.8-.9-38.5-1.8-41.6-2.1-3.9-.4-5.9-.2-6.6.7-.6.7-4.6 8.8-9.1 18.1-9.8 20.6-10.4 21.5-12.8 20.1-1-.6-2.2-1.7-2.7-2.6-1.1-1.6-.6-2.7 12.4-29.3 3.7-7.7 7.2-15.1 7.7-16.5.6-1.5.7-16.4.2-38-.7-34.8-.8-35.7-3.5-44.5-7.4-24.4-19.4-40.8-37.3-51.5-11.9-7-32.2-12.7-53.7-15-10.6-1.2-170.1-1.1-213.5.1"/><path d="M840.9 347.4c-.1.1-.3 28.4-.5 63.1-.3 34.6-.7 63.6-.9 64.3-.3.8-1.6 1.2-3.2 1-2.5-.3-2.9-.8-3.5-5.3-.3-2.8-.7-27.4-.7-54.8L832 366h-18c-15.1 0-18.2.2-18.6 1.5-.8 2.1-1 58-.2 81.5.3 10.7.6 21.6.7 24.1l.1 4.6 11.2.7c12.6.8 60.8.9 61.6.1.3-.3 0-1.5-.6-2.8-.7-1.5-1.3-22.4-1.7-64.6-.3-34.4-.8-62.7-1.1-63-.4-.5-24-1.1-24.5-.7m22.8 1.4c1 .6 1.4 15.6 1.9 63.2.4 34.4 1 63.3 1.5 64.2.8 1.5-.5 1.7-15.4 2-8.9.2-16.6 0-17.1-.4-.6-.5.4-.8 2.1-.8 2.2 0 3.3-.6 3.7-1.8.3-.9.6-29.6.8-63.7l.3-62 2.5-.6c3.7-1 18.3-1 19.7-.1m-32.5 71.9c.2 29.6.8 54.7 1.3 55.7.8 1.9.3 1.9-17 1.3-9.8-.4-18-.9-18.2-1.1-1.5-1.4-2.3-104.5-.9-108.1.4-1.3 3.2-1.5 17.5-1.5h17zm-89.8-71.4c.6.4 9.4.4 19.6.1l18.5-.7 3.2 2.7 3.3 2.7.3 20.2.2 20.2.3-20.6.2-20.6-2.6-2.4c-2.6-2.4-2.7-2.4-23.4-2.4-11.4 0-20.3.3-19.6.8m173.4 7.9c0 5.1-.2 20.8-.3 34.8s-.5 39.3-.9 56.2l-.8 30.8 2.4.1c1.3 0 6.7.2 12.1.5l9.7.5v-65.5c0-58.7-.2-65.4-1.6-66-.9-.3-5.8-.6-11-.6H915zm21 57.1.2 64.7-9.2-.4c-5.1-.3-10.1-.5-11.1-.5-1.8-.1-1.8-1.5-1.1-30.4.4-16.6.8-41.7.9-55.7s.3-29.5.3-34.3l.2-8.8 9.8.3 9.7.3z"/><path d="M739.6 351.1c.3.5 1.2.9 2 .9s5.4 2.5 10.2 5.6c12.7 8.2 25.2 21.4 31.4 33.3 1.8 3.4 1.9 3.4 1.3.7-1.7-8.1-18-26.2-31.5-34.8-7.6-4.9-14.8-7.9-13.4-5.7m134.9 17.1c-.3.7-.6 25.9-.7 56.1l-.3 54.7 16.3-.2 16.3-.3-.1-54.9c0-30.2-.3-55.2-.6-55.7-.9-1.5-30.4-1.1-30.9.3m30.5 55.1.5 54.7h-31l.3-53.7c.1-29.6.4-54.4.7-55.1.3-1 3.9-1.2 14.7-1l14.3.3zm-601-26.8c-1.8 2.2-1.5 6.3.6 8.6 1 1.1 5 3.6 9 5.6 9.4 4.6 18 5.1 23.2 1.4 2.7-1.9 3.3-2.9 3-5.5l-.3-3.1-8.5-.5c-6-.4-9.5-1.1-11.8-2.5-10.1-6-12.9-6.8-15.2-4m9.3 1.9c6.6 4.5 8.1 5 16.7 5.6 7.7.5 8.5.7 8.8 2.6.5 3.7-5.2 6.9-11.9 6.7-8.8-.2-22.9-8-22.9-12.7 0-5 3.9-5.9 9.3-2.2m109.2-1.7c-1.1.3-3.3 1.1-5 1.8-9.7 4.1-12.2 4.2-19.7.4-3.1-1.6-4.2-1.7-6.3-.7-3.3 1.5-4.3 5.3-2 7.8 1 1.1 4.3 2.9 7.4 4.1 4.5 1.7 6.8 2 11.9 1.5 11-1.1 20.6-7.1 20-12.4-.3-2.8-2.2-3.5-6.3-2.5m5.3 2.5c.8 4.1-10 10.4-19.4 11.4-4.9.5-6.9.2-11.1-1.6-8.3-3.5-10-6.8-5.3-9.8 1.6-1 2.4-1 4.3.2 1.2.8 4.3 2 6.9 2.6 4.9 1.3 5.2 1.2 17.3-3.4 4.8-1.8 6.9-1.7 7.3.6m-68.3 23.5c-3.2.9-4.5 2.4-4.5 5.2s4.4 7.8 8.8 10c2.9 1.5 3.1 8.2.3 11-4.1 4.1-8 5.4-14.3 4.7-6.8-.8-8.8.2-8.8 4.4 0 3.5 1.9 5.1 7.3 6.1 5.8 1 13.1-.5 19-4.2 4.9-3 5-3 7.1-1.1 6 5.4 17.3 5.3 22.9-.2 4-4.1.5-9.8-4.7-7.5-3.3 1.5-11.2.3-13.6-2.1-1-1-2.2-3.5-2.6-5.5-.6-3.2-.2-4 4.1-8.6 5.3-5.7 5.6-8.6 1.1-10.8-3-1.4-18.5-2.4-22.1-1.4m22 2.7c1.4.9 2.5 2.1 2.5 2.7 0 .5-2.1 3.2-4.6 5.9-4.5 4.8-4.6 5.1-3.9 9.6.3 2.5 1.5 5.4 2.5 6.4 2.4 2.4 11.9 3.7 15 2 2.8-1.5 5.5.7 4.6 3.7-.8 2.6-7.6 6.3-11.5 6.3-3.8 0-9.1-2.1-11-4.3-1.9-2.4-3.2-2.2-10 1.9-5.4 3.2-6.9 3.6-12.6 3.6-7 0-10.5-1.7-10.5-5.2 0-3.1 2.4-4.1 8.3-3.4 4.6.5 6.3.3 10.2-1.6 5.1-2.5 6.5-4.9 6.5-11 0-3.3-.5-4.2-2.7-5.4-4.1-2.1-8.5-7.1-8.1-9.2.2-1 1.4-2.4 2.8-3.2 3.5-1.8 19.1-1 22.5 1.2m-159 81.7c-27.6 1.3-51.7 3-56 3.9l-4 .9 4.7-.4c18.1-1.7 79.9-4.8 80.6-4 .3.3-.6 4.4-2 9.2-4.9 16.6-5.3 19.4-5.3 35.3 0 17 1.3 24.1 6.6 35.8l2.8 6.2-2.9 1.5c-1.6.8-3.4 1.5-4.1 1.5-.6 0-5.2 2.3-10.3 5.1-8.2 4.7-14.4 9-27.4 19.4-2.4 1.9-4.7 3.5-5 3.5-.4 0-.7-8-.8-17.8-.1-29.9-2-45.3-7.5-60.9-3.4-9.6-5.9-14.2-10.8-20-4.9-5.7-14.6-13.3-16.8-13.2q-2.1 0-.3.6c2.6 1 12.3 9.3 16.2 13.7 4.1 4.7 9.6 15.3 12.2 23.1 4.2 13.1 5.9 29.8 6 57.7.1 20.3.2 20.4 7.8 14.3 17.3-13.8 31.2-22.6 40.1-25.5 2.1-.7 4.1-1.8 4.3-2.5.3-.7-.8-3.9-2.4-7.1-5.3-10.6-6.7-18.1-6.7-35.9.1-14 .4-17.2 2.7-26 1.5-5.5 3.1-11.3 3.7-12.8.6-1.6 1.1-3.7 1.1-4.8 0-2.2 1.6-2.1-26.5-.8m639.2 8.2c-16 5.8-23.7 14.2-30.6 33.7-4 11-6.9 32.1-7.5 54l-.5 15.5.9-14.8c2.2-36.5 5.8-53.3 14.7-68.7 6.4-10.8 19.2-19.1 34.2-22.1 3.4-.6 3.4-.7.6-.7-1.6-.1-7 1.4-11.8 3.1"/><path d="M121.5 517.5c-7.7 2.1-11.5 4-17.7 8.9-7.3 5.9-11.4 13.8-13.6 26.9-1.4 8.3-1.4 10.6-.3 17.4.7 4.3 1.9 9 2.7 10.5 1.8 3.5 8 8.5 12.4 9.9 6.7 2.2 12.9 5.9 15.3 9.1 4.5 5.9 4.7 11.3 4.7 111.6 0 81.2.2 95.1 1.6 102.3 1.7 9 4.8 15.5 9 18.8 6.5 5.1 20.6 6.9 47.8 6.3l8.8-.2-.6-26.3c-.3-14.4-.6-34.2-.6-43.9v-17.7l-6.2-3.3c-5.6-3-6.6-4-9.9-10.3-6.7-12.5-7.8-31.1-3.3-55 2.9-15.8 7.6-27.1 16.6-40.4 4.9-7.2 5-7.5 3.9-11.2-.7-2.1-1.4-8.9-1.6-15.1-1.7-43.6-5.6-67.6-12.8-78.3-6.5-9.7-17.4-17.5-27.8-20-7.9-1.8-21.7-1.8-28.4 0m26.7.6c9.7 2 21.7 10.4 27.7 19.4 8.4 12.4 11.8 32.3 13.6 78.4.2 6.3.9 12.9 1.5 14.7 1.1 3.1.8 3.8-3.8 10.6-5.7 8.4-14.2 25.2-14.2 28.3 0 1.1-1.2 7.4-2.5 14-4.4 21.5-3.2 41.5 3.3 54.5 3.4 7 4.1 7.7 10 10.8l6.2 3.3v17.7c.1 9.7.3 29 .6 42.8l.6 25.1-10.3.5c-5.7.3-15.6.2-22-.2-14.7-.9-21-3.5-26.3-10.7-6.6-9.1-6.6-9.6-6.6-115.6 0-93.8-.3-104.5-3.5-110.7-2-3.9-4.5-5.7-12.5-9-13.2-5.4-17.1-9.7-19.1-21.3-1-5.5-1-8.8-.1-15.6 2.7-19.3 13-31.5 31.2-36.7 5.6-1.6 19.2-1.8 26.2-.3m721.1 3.4c-13.9 3.4-24.8 15.2-29.9 32.4-2.1 7.2-4.2 21.9-5.8 41.6-2.4 27.3-3.5 42.9-3.1 43.5.2.3 1.1 8.4 2 18 1.3 13.3 1.7 28.7 1.7 65 0 48.6-1 112.8-1.8 114.1-.2.4-.2 1.3.1 2.1.4 1 4.8 1.2 23.3.8l22.7-.5 6.7-3.3c7.5-3.7 9.9-6.4 13-14.9 2.2-5.8 2.2-6.3 2.8-109.3l.5-103.5 2.5-5c1.9-3.7 4-6 8.5-9.1 11.4-7.7 15.8-18.5 13.8-34.3-1.5-11.8-4.3-18.6-10.4-25.4-8.9-10-17.8-13.7-32.4-13.6-4.9.1-11.3.7-14.2 1.4m32.9 3.3c7.8 3.8 15.9 12.1 19.4 19.7 2.9 6.2 4.8 18.3 4.1 25.4-.3 2.9-1.8 7.8-3.3 10.8-2.8 5.4-4.7 7.3-13.4 13.6-3.2 2.3-5.1 4.7-6.5 8.2-1.9 4.9-2 7.6-2.5 108.5-.5 102.6-.6 103.5-2.7 108.7-3.2 7.9-5.6 10.6-12.5 14.4l-6.3 3.4-22.8.3c-21.8.4-22.9.3-22.3-1.5.9-2.9 1.8-61.8 1.8-113.8 0-36.8-.4-52.1-1.7-65.5-.9-9.6-1.8-17.7-2-18-.8-1.3 4.1-58.3 6.1-71 1.8-11.5 2.7-14.6 6.7-23 3.6-7.5 10.3-15.1 16.4-18.7 6.9-4 12.8-5.2 24.3-5 9.7.2 11.1.5 17.2 3.5M739.8 628c-5.6 7.1-5.3 7.6 4.7 7.2 7.4-.3 8.5-.6 8.5-2.1 0-2.1-5.6-10.1-7-10.1-.5 0 .6 2.1 2.5 4.6s3.5 5 3.5 5.5-3.4.9-7.6.9h-7.6l3.7-4.5c2-2.5 3.5-4.9 3.3-5.4s-2 1.3-4 3.9m-379.3 15c-5.5.3-12.5 1.5-15.5 2.5-6 2-16.6 9.1-24.6 16.6-6.4 5.9-17.4 13.1-23.4 15.2-12.6 4.5-35.7 4.3-44.1-.5-4.1-2.3-6.9-1.9-6.9.9 0 1-.9 2.9-2 4.3s-2 2.9-2 3.4-.6 1.7-1.3 2.5c-3.2 3.9-5.1 13.4-4.9 24.8.2 8.1-.2 12.3-1.2 14.8-5.1 12-16.8 20.9-31.7 23.9-1.9.4-2.8 1.4-3.2 3.3-.7 3.7.3 9.3 1.7 9.4.6 0 22.3-.1 48.1-.2 25.9-.1 142.7-.2 259.7-.1l212.7.2 5.8-4.6c7.3-5.8 11.1-10 17.5-19.3 6-8.8 8-13.6 14.9-35.2l5.3-16.4V674c.1-13.4-.1-15.1-2.7-22.7-1.5-4.5-3.5-8.4-4.3-8.7-.9-.3-8.6-.6-17.1-.6-15.5 0-15.6 0-20.9 3-2.9 1.7-8.4 4.1-12.1 5.4-14.6 5.1-48.6 8.5-85.8 8.7-11.8 0-25 1.2-32.9 2.8-2.6.6-12.6 2.2-22.1 3.6-26.7 3.9-39.5 3.2-51.3-2.6-7.2-3.5-10.7-7.9-11.8-14.7-.4-2.3-1.1-4.5-1.7-4.9-1.3-.8-129.8-1.1-142.2-.3m141.2 1.3c.5.3 1.5 3.1 2.2 6.2 1.7 7.5 5.6 11.4 15.2 14.9 11.3 4.2 24.4 4.6 47.4 1.2 10-1.4 20.3-3.1 23-3.6 8-1.7 21.1-2.9 33-2.9 50.3-.2 87.3-5.7 100.4-15 2.8-2 4-2.1 19.3-1.9l16.3.3 2.9 7.5c2.8 7.1 3 8.4 3 22l.1 14.5-4.7 15.1c-6.9 22.1-8.3 25.5-14.8 35.1-7 10.5-10.6 14.6-18.3 20.7l-5.8 4.6-212.2-.2c-116.7-.1-233.6 0-259.7.2l-47.4.3-.8-3.1c-1.1-4.1.6-8.2 3.3-8.2 7.5 0 21.4-8 26.7-15.4 5.2-7.2 6.3-11.5 6-24-.2-11.2 1.5-19.7 4.7-23.6.7-.8 2.5-4.1 4-7.3 1.5-3.1 3-5.7 3.4-5.7s1.6.6 2.7 1.4c7.1 5 31.4 5.5 45.9.9 6.2-2 17.1-8.9 23.9-15.2 7.2-6.7 19-15 23.9-16.8 2.3-.8 8.9-1.8 14.7-2.2 12.3-.9 140.2-.7 141.7.2"/><path d="M440.6 680.7c-.1.1-26.2.3-58.1.3-31.9.1-58.9.6-60.2 1.1-2 .7-2.4 1.5-2.1 4.1.3 2.8.8 3.3 3.8 3.9 1.9.4 100 .7 218 .6l214.5-.2 1.3-2.9c1-1.9 1.1-3.5.5-4.9l-1-2.2H599.1c-87.1 0-158.4.1-158.5.2m316.7 2.5c.8 1.2.6 2.3-.7 4.2l-1.7 2.7L541 690c-117.6-.1-215.2-.5-216.7-.9-3.4-.9-4.3-4.5-1.6-5.9 1.1-.6 24.2-1.1 59.8-1.2 31.8 0 58-.2 58.1-.3s71.2-.2 158-.2c144.3.1 157.8.2 158.7 1.7m64.4 57.2c-.3 1.9-2.6 7.5-5.1 12.6-2.5 5-4.6 9.5-4.6 10 0 .6 2.9 1 6.5 1h6.5v-11.9c0-6.6.3-12.8.6-13.8.5-1.5.4-1.5-.5-.3-.6.9-1.1 6.5-1.1 13.2V763h-5.6c-3.1 0-5.4-.3-5.2-.8.2-.4 2.2-4.4 4.5-8.9 3.7-7.1 6.5-16.3 5.1-16.3-.3 0-.8 1.5-1.1 3.4m-370.4 31.3-251.2.3.5 33.8.5 33.7h230.4c156.3 0 230.5-.3 230.5-1 0-.6-3-1.6-6.6-2.3-12.3-2.3-22.8-9.6-27-18.7-1.3-2.8-2.4-6.4-2.4-8.2 0-4.9 3.5-11.9 8.5-16.7 3.8-3.7 5.7-4.7 11.3-6 9.9-2.2 19.1-3.6 24.4-3.6 7.7 0 31-6.3 34.3-9.2.6-.5-2.8.4-7.5 2.1-10.8 3.8-20.8 6.1-26.9 6.1-5.7 0-20.3 2.4-27.9 4.6-6.3 1.8-12.1 7.1-15.1 13.9-2.6 6-2.6 10-.1 16.9 3.6 9.5 12.7 16.1 27.1 19.5 6 1.5-12.2 1.6-223 1.7l-229.6.1-.2-32.8-.2-32.9 250.2-.1c137.6 0 251.1-.4 252.2-.9s1.3-.8.5-.7-114.5.3-252.7.4m348.1 9.5c-8 10.2-19.4 21.6-29.4 29.3-5.8 4.4-21.9 14.5-23.2 14.5-.4 0-3.8 1.5-7.5 3.3-10 4.8-19.6 7.6-30.3 8.6l-9.5 1 9.8-.5c10.9-.5 19.2-2.8 33.7-9.4 21.9-9.8 40.5-24.5 56.7-45l8.4-10.5 7.9-.1 8-.1v32.8c0 30.6-.1 32.9-1.7 33-1 .1-26.8.3-57.3.4-31.6.2-57.7.8-60.5 1.4-4.6.9-4.5.9 2 .4 3.9-.4 30.9-.8 60-.9 29.2-.1 54.2-.2 55.8-.3l2.7-.1v-67.7h-9l-9 .1zm-619.9 66.7-7 .6-.3 5c-.1 2.7-.9 13.8-1.7 24.5s-1.5 22.8-1.5 26.7v7.3h5.8c7.3 0 15.2-2.3 17.9-5.2 2-2.1 21-57.4 20.1-58.3-.7-.7-26.2-1.2-33.3-.6m32.2 1.4c.1.2-3.8 12.4-8.6 27.2-7.6 23-9.3 27.3-11.9 29.6-3.7 3.3-8.8 4.9-15.9 4.9H170v-6.8c0-3.7.7-15.5 1.5-26.2s1.6-21.5 1.7-24l.3-4.5 6.5-.6c6-.5 31-.2 31.7.4m602.3-1.2c0 .4 4.1 13.3 9.2 28.6 6.6 20 9.9 28.5 11.9 30.7 2.6 3 2.7 3 15.4 3.3l12.7.4-.6-6.8c-1.4-16.5-3.6-43.3-3.9-49-.2-3.5-.6-6.6-1-7-1-1-43.7-1.2-43.7-.2m43 1.9c.6.8 1 4.2 1 7.6 0 3.3.7 13.4 1.5 22.5.8 9 1.7 19.5 2 23.2l.6 6.8-11.5-.4c-12.5-.4-14.2-1.1-17.2-7-1.1-2.1-18.4-53.1-18.4-54.1 0-.2 9.2-.2 20.6-.1 16.9 0 20.7.3 21.4 1.5"/><path d="M119.8 910.5c-.3.3-2.5.9-4.9 1.3-3.8.7-4.4 1.1-4.4 3.2 0 5.9-18.4 5.5 269.8 5.7 262.1.3 263.7.3 265.7-1.7 2.4-2.4 2.6-5.3.5-7-1.1-.9-45-1.2-200.7-1-246.6.3-242.8.2-245.3 1.9l-2 1.3 2-.8c2.9-1 24.9-1.2 244.8-1.4 155.3-.2 199.1.1 200.2 1 2 1.7 1.9 3.3-.3 5.3-1.7 1.5-22.5 1.7-264.3 1.7-246.2-.1-262.7-.2-266-1.8-4.6-2.3-4.4-4.4.6-5.4 2.1-.5 4.5-.6 5.2-.4.7.3 1-.1.6-1-.6-1.6-.7-1.6-1.5-.9"/></g></svg>