<?xml version="1.0" encoding="UTF-8"?>
<!-- Generator: visioncortex VTracer 0.6.4 -->
<svg version="1.1" xmlns="http://www.w3.org/2000/svg" width="1024" height="1024">
<path d="M0 0 C5.93 -0 11.87 -0 17.8 -0.01 C92.11 -0.06 92.11 -0.06 126.34 0.39 C128.82 0.43 131.29 0.45 133.77 0.48 C137.1 0.51 140.43 0.56 143.76 0.61 C144.71 0.62 145.66 0.63 146.64 0.63 C150.97 0.73 154.66 1.1 158.75 2.59 C159.87 3.1 161 3.6 162.16 4.12 C162.49 4.45 162.82 4.78 163.16 5.12 C163.26 7.38 163.29 9.63 163.29 11.89 C163.29 12.61 163.29 13.33 163.29 14.07 C163.29 16.51 163.29 18.96 163.29 21.4 C163.29 23.16 163.29 24.91 163.29 26.67 C163.3 31.52 163.29 36.37 163.29 41.22 C163.29 46.44 163.29 51.67 163.29 56.89 C163.3 67.13 163.3 77.37 163.29 87.61 C163.29 95.94 163.29 104.26 163.29 112.59 C163.29 114.36 163.29 114.36 163.29 116.17 C163.29 118.57 163.29 120.98 163.29 123.38 C163.3 145.94 163.29 168.5 163.29 191.05 C163.28 210.42 163.29 229.78 163.29 249.14 C163.3 271.6 163.3 294.07 163.29 316.53 C163.29 318.93 163.29 321.32 163.29 323.72 C163.29 324.9 163.29 326.08 163.29 327.29 C163.29 335.6 163.29 343.92 163.3 352.23 C163.3 362.36 163.3 372.49 163.29 382.63 C163.29 387.8 163.29 392.97 163.29 398.14 C163.3 402.88 163.29 407.61 163.29 412.35 C163.29 414.06 163.29 415.77 163.29 417.48 C163.29 419.81 163.29 422.14 163.29 424.47 C163.29 425.77 163.29 427.06 163.28 428.39 C163.15 432.37 162.71 436.18 162.16 440.12 C160.51 440.78 158.86 441.44 157.16 442.12 C155.68 440.87 155.68 440.87 154.16 439.12 C153.9 436.11 153.81 433.31 153.87 430.3 C153.87 429.44 153.88 428.58 153.88 427.69 C153.9 424.94 153.93 422.19 153.97 419.43 C153.99 417.57 154 415.7 154.01 413.84 C154.05 409.27 154.1 404.69 154.16 400.12 C153.23 400.12 153.23 400.12 152.29 400.12 C137.17 400.15 122.05 400.16 106.93 400.17 C99.62 400.18 92.31 400.19 84.99 400.2 C78.61 400.21 72.23 400.21 65.85 400.22 C62.48 400.22 59.11 400.22 55.74 400.23 C41.84 400.25 28.02 400.22 14.16 399.12 C14.16 402.42 14.16 405.72 14.16 409.12 C15.6 409.17 17.05 409.22 18.54 409.27 C32.08 409.76 45.59 410.47 59.11 411.4 C67.26 411.95 67.26 411.95 75.43 412.33 C87.73 412.77 100.26 414.04 111.81 418.54 C114.69 419.95 117.42 421.46 120.16 423.12 C120.91 423.53 121.67 423.95 122.45 424.37 C125.18 425.93 127.53 427.46 129.7 429.74 C130.68 430.92 131.64 432.1 132.59 433.29 C134.34 435.33 136.24 437.01 138.28 438.75 C143.39 443.12 146.7 447.84 150.01 453.65 C151.46 456.77 152.55 459.74 153.16 463.12 C153.49 467.21 153.53 471.27 153.53 475.37 C153.56 476.44 153.58 477.51 153.61 478.61 C153.63 484.14 153.17 488.85 151.34 494.09 C148.68 500.61 144.98 505.93 140.33 511.2 C138.66 512.93 137 514.58 135.16 516.12 C134.25 516.56 133.34 516.99 132.41 517.43 C131.67 517.99 130.92 518.55 130.16 519.12 C128.57 522.31 127.81 525.63 127.16 529.12 C126.77 534.93 126.83 540.72 126.9 546.54 C126.91 548.24 126.92 549.93 126.92 551.63 C126.94 556.1 126.97 560.57 127.01 565.03 C127.07 572.11 127.11 579.19 127.14 586.27 C127.15 587.98 127.16 589.7 127.17 591.42 C127.23 604.37 127.01 617.28 126.25 630.22 C126.07 633.86 126.24 637.47 126.38 641.11 C126.93 656.01 127.22 670.87 127.14 685.79 C127.1 695.43 127.38 705.04 127.89 714.66 C128.47 726.46 128.47 726.46 127.16 732.12 C126.5 733.11 125.84 734.1 125.16 735.12 C124.73 736.65 124.34 738.2 123.97 739.75 C122.83 743.61 121.44 746.66 119.1 749.93 C117.15 752.24 115.34 754 112.87 755.72 C107.74 758.51 102.6 759.98 96.85 760.85 C92.92 761.25 89.11 761.25 85.16 761.12 C85.22 761.87 85.28 762.62 85.34 763.39 C86 771.72 86.57 780.04 87.09 788.38 C87.18 789.79 87.27 791.2 87.36 792.61 C88 802.46 88.28 812.24 88.16 822.12 C88.98 822.11 89.79 822.1 90.63 822.09 C99.38 822.03 108.05 822.32 116.78 822.87 C118.95 823 121.12 823.12 123.29 823.24 C124.68 823.32 126.07 823.4 127.46 823.49 C128.7 823.56 129.94 823.64 131.22 823.71 C132.67 823.91 132.67 823.91 134.16 824.12 C134.82 824.78 135.48 825.44 136.16 826.12 C135.91 828.62 135.91 828.62 135.16 831.12 C134.5 831.78 133.84 832.44 133.16 833.12 C130.14 833.39 130.14 833.39 126.21 833.41 C125.13 833.42 125.13 833.42 124.04 833.43 C121.66 833.45 119.29 833.46 116.91 833.46 C115.25 833.46 113.6 833.47 111.95 833.48 C108.47 833.49 104.99 833.49 101.51 833.49 C97.08 833.49 92.65 833.52 88.21 833.55 C84.79 833.58 81.37 833.58 77.94 833.58 C76.31 833.58 74.68 833.59 73.05 833.61 C60.47 833.71 60.47 833.71 54.98 832.31 C51.71 831.06 49.02 829.82 46.3 827.6 C44.55 825.89 43.37 824.26 42.16 822.12 C41.49 820.38 40.88 818.61 40.31 816.83 C39.97 815.76 39.63 814.7 39.27 813.61 C38.72 811.88 38.72 811.88 38.16 810.12 C37.34 807.64 36.51 805.15 35.69 802.67 C35.26 801.38 34.83 800.09 34.4 798.79 C34.19 798.15 33.97 797.5 33.75 796.84 C33.31 795.52 32.88 794.2 32.44 792.88 C28.61 781.04 28.61 781.04 23.97 769.5 C23.16 767.12 23.16 767.12 23.16 761.12 C-169.23 761.12 -361.62 761.12 -559.84 761.12 C-560.17 763.43 -560.5 765.74 -560.84 768.12 C-561.38 770.23 -561.38 770.23 -561.98 771.98 C-562.2 772.66 -562.42 773.33 -562.66 774.02 C-562.9 774.72 -563.14 775.43 -563.39 776.15 C-563.64 776.91 -563.89 777.66 -564.15 778.44 C-564.96 780.83 -565.78 783.23 -566.59 785.62 C-567.39 787.98 -568.18 790.34 -568.97 792.7 C-569.5 794.25 -570.02 795.8 -570.55 797.35 C-571.81 801.04 -573.04 804.73 -574.21 808.45 C-574.42 809.13 -574.64 809.81 -574.86 810.51 C-575.44 812.34 -576.01 814.17 -576.58 816 C-577.9 819.28 -579.59 821.42 -581.84 824.12 C-540.78 824.14 -499.71 824.16 -458.65 824.17 C-453.81 824.17 -448.96 824.18 -444.11 824.18 C-443.15 824.18 -442.19 824.18 -441.19 824.18 C-425.56 824.18 -409.93 824.19 -394.3 824.2 C-378.27 824.21 -362.24 824.21 -346.21 824.22 C-336.31 824.22 -326.42 824.22 -316.52 824.23 C-309.74 824.24 -302.96 824.24 -296.18 824.24 C-292.26 824.23 -288.34 824.24 -284.43 824.24 C-280.85 824.25 -277.26 824.25 -273.68 824.24 C-271.77 824.24 -269.85 824.25 -267.94 824.25 C-266.8 824.25 -265.67 824.25 -264.5 824.25 C-263.52 824.25 -262.54 824.25 -261.53 824.25 C-258.87 824.12 -256.44 823.69 -253.84 823.12 C-252.2 823.03 -250.55 822.99 -248.9 822.99 C-247.93 822.98 -246.96 822.98 -245.96 822.98 C-244.39 822.98 -244.39 822.98 -242.78 822.98 C-241.66 822.97 -240.55 822.97 -239.4 822.97 C-235.71 822.96 -232.02 822.96 -228.34 822.95 C-225.77 822.95 -223.21 822.95 -220.65 822.94 C-215.28 822.94 -209.92 822.94 -204.55 822.94 C-198.35 822.94 -192.14 822.93 -185.94 822.91 C-179.97 822.9 -174 822.89 -168.03 822.89 C-165.49 822.89 -162.95 822.89 -160.41 822.88 C-156.86 822.87 -153.32 822.87 -149.77 822.88 C-148.19 822.87 -148.19 822.87 -146.58 822.86 C-145.13 822.87 -145.13 822.87 -143.65 822.87 C-142.4 822.87 -142.4 822.87 -141.11 822.87 C-138.84 823.12 -138.84 823.12 -136.54 824.14 C-135.98 824.46 -135.42 824.79 -134.84 825.12 C-134.65 827.43 -134.65 827.43 -134.84 830.12 C-136.12 831.77 -136.12 831.77 -137.84 833.12 C-140.77 833.42 -143.49 833.52 -146.42 833.5 C-147.31 833.5 -148.21 833.51 -149.12 833.51 C-152.14 833.52 -155.15 833.51 -158.17 833.5 C-160.34 833.51 -162.51 833.51 -164.68 833.52 C-170.67 833.53 -176.66 833.52 -182.65 833.51 C-189.11 833.51 -195.56 833.52 -202.01 833.53 C-213.93 833.54 -225.85 833.54 -237.76 833.53 C-248.77 833.52 -259.78 833.52 -270.79 833.52 C-271.89 833.52 -271.89 833.52 -273 833.52 C-275.96 833.53 -278.92 833.53 -281.89 833.53 C-309.68 833.54 -337.48 833.53 -365.28 833.51 C-389.98 833.5 -414.69 833.5 -439.39 833.51 C-467.14 833.53 -494.88 833.54 -522.62 833.53 C-525.57 833.53 -528.53 833.52 -531.49 833.52 C-532.22 833.52 -532.94 833.52 -533.69 833.52 C-544.7 833.52 -555.7 833.52 -566.7 833.53 C-579.21 833.54 -591.72 833.54 -604.23 833.52 C-610.62 833.51 -617 833.51 -623.39 833.52 C-629.23 833.53 -635.07 833.52 -640.91 833.51 C-643.03 833.5 -645.15 833.51 -647.27 833.51 C-650.14 833.52 -653.01 833.51 -655.88 833.5 C-656.71 833.51 -657.54 833.51 -658.39 833.52 C-660.58 833.5 -662.67 833.42 -664.84 833.12 C-668.28 831.79 -668.28 831.79 -670.84 830.12 C-671.83 828.64 -671.83 828.64 -672.84 827.12 C-672.18 826.46 -671.52 825.8 -670.84 825.12 C-668.93 824.52 -668.93 824.52 -666.78 824.06 C-665.46 823.77 -664.15 823.46 -662.84 823.12 C-662.51 822.79 -662.18 822.46 -661.84 822.12 C-659.12 822.02 -656.44 821.98 -653.72 821.99 C-652.9 821.99 -652.09 821.99 -651.25 821.99 C-649.52 821.99 -647.79 821.99 -646.07 821.99 C-643.42 822 -640.77 821.99 -638.12 821.99 C-636.44 821.99 -634.77 821.99 -633.09 821.99 C-632.3 821.99 -631.5 821.99 -630.68 821.98 C-628.73 821.99 -626.79 822.05 -624.84 822.12 C-624.18 822.45 -623.52 822.78 -622.84 823.12 C-622.86 821.87 -622.88 820.61 -622.89 819.31 C-623.02 806.07 -622.37 793 -621.34 779.81 C-621.2 777.88 -621.05 775.95 -620.91 774.03 C-620.56 769.39 -620.2 764.76 -619.84 760.12 C-620.71 760.13 -621.58 760.14 -622.48 760.15 C-623.63 760.16 -624.79 760.16 -625.98 760.17 C-627.12 760.18 -628.26 760.19 -629.43 760.2 C-635.18 760.07 -640.62 759.25 -646.06 757.34 C-649.67 755.73 -652.61 753.66 -655.53 751 C-658.58 747.69 -660.87 744.3 -662.77 740.22 C-665.26 733.01 -666.84 724.75 -666.84 717.12 C-666.78 715.73 -666.71 714.34 -666.64 712.95 C-666.6 712.11 -666.55 711.27 -666.51 710.41 C-666.46 709.5 -666.42 708.6 -666.37 707.67 C-666.27 705.75 -666.18 703.83 -666.08 701.92 C-665.93 698.9 -665.78 695.88 -665.62 692.86 C-665.47 689.94 -665.32 687.02 -665.18 684.11 C-665.13 683.21 -665.08 682.32 -665.03 681.39 C-664.99 680.54 -664.95 679.69 -664.91 678.82 C-664.87 678.08 -664.84 677.34 -664.8 676.58 C-664.78 674.03 -664.78 674.03 -665.33 671.17 C-666.21 665.38 -665.94 659.51 -665.91 653.66 C-665.9 652.3 -665.9 650.94 -665.89 649.58 C-665.88 646.66 -665.87 643.74 -665.85 640.82 C-665.83 636.2 -665.82 631.59 -665.81 626.97 C-665.77 613.84 -665.73 600.71 -665.67 587.58 C-665.63 580.32 -665.61 573.06 -665.6 565.8 C-665.59 561.21 -665.57 556.62 -665.54 552.03 C-665.52 549.18 -665.52 546.32 -665.52 543.46 C-665.52 541.51 -665.5 539.56 -665.48 537.61 C-665.49 534.42 -665.53 531.3 -665.84 528.12 C-667.14 524.56 -667.14 524.56 -668.84 522.12 C-669.04 521.01 -669.04 521.01 -669.25 519.87 C-669.45 519.29 -669.64 518.72 -669.84 518.12 C-671.81 516.93 -671.81 516.93 -674.28 516.18 C-686.88 511.53 -686.88 511.53 -691.63 507.67 C-694.83 504.29 -696.72 500.55 -698.59 496.31 C-701.48 488.82 -702.92 481.9 -703.15 473.87 C-703 465.75 -701.63 457.97 -698.81 450.33 C-696.24 444.73 -692.73 440.29 -688.61 435.74 C-688.03 435.21 -687.44 434.67 -686.84 434.12 C-686.18 434.12 -685.52 434.12 -684.84 434.12 C-683.85 432.14 -683.85 432.14 -682.84 430.12 C-681.85 430.12 -680.86 430.12 -679.84 430.12 C-679.84 429.46 -679.84 428.8 -679.84 428.12 C-671.63 423.27 -663.39 419.47 -654 417.54 C-650.18 417.04 -646.38 416.89 -642.53 416.75 C-634.95 416.41 -627.49 415.65 -619.97 414.68 C-605.96 412.9 -591.93 411.94 -577.84 411.12 C-576.85 411.06 -575.86 411 -574.84 410.94 C-559.84 410.07 -544.86 410.01 -529.84 410.12 C-529.51 409.52 -529.19 408.92 -528.85 408.29 C-528.42 407.49 -527.98 406.7 -527.53 405.87 C-527.1 405.08 -526.67 404.29 -526.23 403.48 C-524.9 401.22 -523.45 399.18 -521.84 397.12 C-522.2 396.55 -522.57 395.98 -522.94 395.39 C-527.18 388.55 -530.59 381.48 -533.84 374.12 C-534.43 374.18 -535.02 374.24 -535.63 374.31 C-538.34 374.58 -541.06 374.85 -543.78 375.12 C-544.7 375.22 -545.63 375.31 -546.58 375.41 C-552.37 375.98 -558.03 376.32 -563.84 376.12 C-564.83 375.73 -565.82 375.34 -566.84 374.93 C-567.5 374.34 -568.16 373.74 -568.84 373.12 C-569.78 370.62 -569.78 370.62 -569.84 368.12 C-569.18 367.13 -568.52 366.14 -567.84 365.12 C-564.95 364.51 -564.95 364.51 -561.3 364.17 C-559.35 363.98 -559.35 363.98 -557.36 363.79 C-555.98 363.67 -554.6 363.55 -553.22 363.43 C-551.83 363.31 -550.44 363.17 -549.05 363.04 C-545.65 362.72 -542.25 362.42 -538.84 362.12 C-539.17 360.95 -539.5 359.77 -539.84 358.56 C-540.92 354.71 -540.92 351.11 -540.84 347.12 C-541.82 347.11 -542.8 347.09 -543.81 347.08 C-547.44 347.02 -551.08 346.94 -554.72 346.86 C-556.29 346.83 -557.87 346.8 -559.44 346.78 C-561.7 346.74 -563.97 346.69 -566.23 346.63 C-566.93 346.63 -567.63 346.62 -568.36 346.61 C-570.36 346.55 -570.36 346.55 -573.84 346.12 C-576.3 344.76 -576.3 344.76 -577.84 343.12 C-578.09 340.43 -578.09 340.43 -577.84 338.12 C-576.29 337.13 -576.29 337.13 -573.84 336.12 C-570.54 335.9 -570.54 335.9 -566.67 335.93 C-565.64 335.93 -565.64 335.93 -564.6 335.94 C-562.43 335.95 -560.26 335.97 -558.09 336 C-556.62 336.01 -555.14 336.02 -553.66 336.02 C-550.06 336.05 -546.45 336.08 -542.84 336.12 C-542.8 335.01 -542.8 335.01 -542.77 333.89 C-542.17 318.02 -540.56 303.87 -534.68 289.06 C-533.84 287.12 -533.84 287.12 -532.8 285.28 C-531.74 283.19 -531.74 283.19 -531.62 280.99 C-531.64 279.84 -531.64 279.84 -531.66 278.67 C-531.67 277.79 -531.68 276.92 -531.69 276.02 C-531.72 274.6 -531.72 274.6 -531.75 273.15 C-531.77 271.12 -531.79 269.08 -531.81 267.04 C-531.85 263.86 -531.9 260.67 -531.96 257.49 C-532.26 238.69 -531 220.72 -525.17 202.73 C-523.54 198.3 -521.68 194.88 -518.84 191.12 C-518.18 190.46 -517.52 189.8 -516.84 189.12 C-513.97 188.12 -513.97 188.12 -512.06 187.93 C-509.19 188.18 -507.05 188.97 -504.4 190.12 C-495.62 194.81 -488.82 202.15 -481.84 209.12 C-481.05 209.89 -480.25 210.66 -479.43 211.46 C-477.73 213.24 -476.94 214.93 -475.84 217.12 C-475.22 217.74 -474.6 218.36 -473.97 219 C-472 220.96 -470.61 222.94 -469.12 225.27 C-466.78 228.66 -464.08 231.78 -461.45 234.95 C-460.92 235.67 -460.39 236.38 -459.84 237.12 C-459.84 237.78 -459.84 238.44 -459.84 239.12 C-459.19 239.06 -458.55 239 -457.88 238.94 C-446.37 237.88 -434.9 236.93 -423.34 236.93 C-422.51 236.93 -421.68 236.93 -420.83 236.93 C-415.48 236.98 -410.13 237.23 -404.84 238.12 C-404.18 238.45 -403.52 238.78 -402.84 239.12 C-402.58 238.39 -402.32 237.67 -402.06 236.92 C-399.37 230.75 -394.44 225.89 -389.88 221.03 C-379.49 210.18 -368.68 198.89 -355.47 191.43 C-352.61 190.4 -350.61 189.79 -347.65 189.56 C-346.39 189.75 -345.14 189.93 -343.84 190.12 C-341.09 191.81 -341.09 191.81 -339.93 193.19 C-336.41 199.43 -335.04 206.71 -333.77 213.68 C-332.68 220.46 -332.36 227.2 -332.15 234.06 C-332.08 235.85 -332.08 235.85 -332.01 237.67 C-331.68 247.23 -331.68 247.23 -332.84 252.12 C-331.15 251.98 -329.47 251.83 -327.78 251.68 C-326.37 251.56 -326.37 251.56 -324.93 251.44 C-322.89 251.23 -320.85 250.96 -318.82 250.64 C-313.92 249.93 -309 249.76 -304.06 249.57 C-303.01 249.53 -301.96 249.48 -300.88 249.44 C-288.7 248.99 -276.53 248.97 -264.34 249 C-263.16 249 -261.98 249 -260.77 249 C-239.12 249.02 -217.48 249.41 -195.84 250.12 C-196.17 249.46 -196.5 248.8 -196.84 248.12 C-196.93 246.14 -196.96 244.16 -196.95 242.17 C-196.95 240.9 -196.95 239.63 -196.95 238.32 C-196.95 236.9 -196.94 235.48 -196.94 234.06 C-196.94 232.57 -196.93 231.08 -196.93 229.59 C-196.93 226.36 -196.92 223.12 -196.92 219.89 C-196.9 214.69 -196.9 209.49 -196.89 204.29 C-196.88 191.3 -196.85 178.31 -196.83 165.32 C-196.81 153.59 -196.79 141.87 -196.78 130.15 C-196.78 127.45 -196.77 124.74 -196.77 122.04 C-196.74 101.92 -196.83 81.81 -197.17 61.7 C-197.2 59.88 -197.23 58.07 -197.26 56.25 C-197.38 48.49 -197.52 40.73 -197.7 32.96 C-197.76 29.84 -197.82 26.72 -197.87 23.6 C-197.9 22.15 -197.93 20.71 -197.97 19.27 C-198.03 17.31 -198.06 15.35 -198.09 13.38 C-198.11 12.29 -198.14 11.19 -198.16 10.06 C-197.84 7.12 -197.84 7.12 -196.56 4.28 C-195.99 3.57 -195.42 2.86 -194.84 2.12 C-192 1.51 -189.7 1.2 -186.84 1.12 C-185.63 1.07 -184.42 1.02 -183.18 0.96 C-181.91 0.95 -180.64 0.93 -179.33 0.92 C-178.61 0.91 -177.89 0.9 -177.15 0.89 C-174.72 0.85 -172.29 0.83 -169.86 0.81 C-168.05 0.78 -166.25 0.76 -164.45 0.74 C-159.4 0.69 -154.36 0.64 -149.32 0.59 C-146.07 0.56 -142.83 0.53 -139.58 0.5 C-93.06 0.05 -46.53 0.01 0 0 Z " fill="#052D7F" transform="translate(782.8404685258865,87.87788659334183)"/>
<path d="M0 0 C4.48 1.64 7.71 3.79 11.41 6.76 C26.17 19.54 37.8 35.1 49 51 C53.56 50.57 58.1 50.13 62.64 49.49 C71.01 48.32 79.23 47.81 87.69 47.81 C88.67 47.81 89.65 47.81 90.66 47.81 C94.93 47.84 99.1 47.94 103.33 48.55 C106.71 49.02 109.62 49.42 113 49 C115.26 47.41 115.26 47.41 116.94 45.06 C117.97 43.38 118.99 41.7 120 40 C121.17 38.55 122.38 37.14 123.62 35.75 C124.2 35.1 124.78 34.45 125.38 33.77 C127.51 31.44 129.76 29.24 132 27 C132.7 26.09 133.4 25.19 134.12 24.25 C139.97 17.15 148.1 11.82 155.5 6.44 C156.1 6 156.7 5.55 157.32 5.1 C158.84 4.01 160.42 3 162 2 C162.99 2 163.98 2 165 2 C169.17 14.52 168.12 27.97 168 41 C168.66 41 169.32 41 170 41 C169.88 45.66 169.76 50.32 169.63 54.98 C169.58 56.56 169.54 58.14 169.5 59.72 C169.44 62.01 169.38 64.3 169.32 66.59 C169.29 67.7 169.29 67.7 169.26 68.83 C169.13 72.85 168.83 76.78 168.29 80.76 C168 82.99 168 82.99 168 85 C168.98 88.05 168.98 88.05 170.75 90.5 C173.84 95.56 175.55 100.28 177 106 C177.37 107.22 177.74 108.43 178.12 109.69 C179.68 115.95 179.68 122.58 180 129 C178.35 129.33 176.7 129.66 175 130 C174.67 132.31 174.34 134.62 174 137 C176.08 137.55 177.84 138 180 138 C179.67 141.3 179.34 144.6 179 148 C176.36 148.33 173.72 148.66 171 149 C170.34 151.31 169.68 153.62 169 156 C171.31 156.66 173.62 157.32 176 158 C174.02 166.97 169.77 174.27 165 182 C164.65 182.58 164.29 183.16 163.93 183.76 C163.01 185.21 162.01 186.61 161 188 C160.34 188 159.68 188 159 188 C158.93 188.6 158.85 189.2 158.77 189.81 C158.52 190.53 158.26 191.26 158 192 C156.04 193.56 156.04 193.56 153.62 195 C151.14 196.49 149.18 197.8 147.21 199.94 C146.81 200.62 146.41 201.3 146 202 C146 203.32 146 204.64 146 206 C149.56 205.64 152.59 204.88 155.81 203.38 C160.62 200.84 164.97 197.64 169 194 C175.2 186.78 180.1 178.63 183.55 169.78 C184.05 168.45 184.54 167.11 185.01 165.76 C185.6 164.14 186.29 162.57 187 161 C187.99 160.67 188.98 160.34 190 160 C193.2 160.52 196.33 161.18 199.49 161.88 C210.46 164.16 221.03 162.65 232 161.06 C274.73 155.02 317.66 155.25 360 164 C381.2 168.96 401.31 177.87 419.56 189.69 C427.42 194.92 434.53 201.14 441 208 C441 208.66 441 209.32 441 210 C441.66 210 442.32 210 443 210 C444.63 211.88 444.63 211.88 446 214 C446 214.66 446 215.32 446 216 C446.66 216 447.32 216 448 216 C449.61 218.01 451.1 220.01 452.56 222.12 C453 222.76 453.45 223.39 453.9 224.04 C454.82 225.37 455.74 226.7 456.65 228.03 C457.51 229.29 458.38 230.54 459.25 231.78 C465.52 240.71 469.57 249.66 473 260 C473.21 261.04 473.43 262.08 473.64 263.14 C474.09 264.09 474.54 265.03 475 266 C477.55 268.08 480.37 269.61 483.25 271.19 C491.8 276.15 499.43 281.66 507 288 C507.62 288.52 508.25 289.04 508.89 289.57 C510.81 291.16 512.72 292.77 514.62 294.38 C515.21 294.86 515.79 295.35 516.38 295.85 C519.65 298.65 522.51 301.46 525 305 C525 305.66 525 306.32 525 307 C525.66 307 526.32 307 527 307 C529.95 310.45 532.44 314.25 535 318 C535.69 319 536.38 320 537.09 321.03 C543.14 330.25 546.96 339.82 549.63 350.5 C554.77 372.68 555.69 396.18 553.25 418.81 C551.8 430.65 548.34 441.92 544 453 C543.69 453.88 543.38 454.77 543.06 455.68 C538.34 468.26 530.33 480.52 521.82 490.91 C507.42 507.43 492.05 520.22 472.92 530.94 C462.6 536.52 451.51 539.88 440 542 C432.48 543.07 425.06 543.19 417.47 543.19 C415.2 543.19 412.93 543.21 410.66 543.22 C401.83 543.26 393.14 543.2 384.72 540.18 C382.62 539.29 380.6 538.3 378.56 537.25 C377.54 536.77 377.54 536.77 376.5 536.27 C374.55 535.29 372.77 534.29 371 533 C368.87 530.33 367.38 528.09 366.25 524.88 C366 523 366 523 366 519 C367.5 515.75 367.5 515.75 370 513 C372.42 511.2 374.22 510.08 377 509 C381.76 508.04 386.55 507.52 391.38 507 C409.6 504.82 427.09 501.56 443.62 493.22 C452.51 488.38 460.22 482.43 468 476 C468.72 475.43 469.44 474.87 470.19 474.28 C474.84 470.54 478.82 466.07 482 461 C482 460.01 482 459.02 482 458 C483.46 456.81 484.93 455.63 486.41 454.46 C488.09 452.92 489.06 451.53 490.16 449.54 C490.81 448.24 491.45 446.94 492.06 445.62 C492.57 444.57 492.57 444.57 493.09 443.5 C498.52 431.95 502.41 419.69 504 407 C504.39 401.49 504.35 395.97 504.28 390.44 C504.25 387.97 504.24 385.51 504.23 383.04 C504.23 381.44 504.21 379.85 504.2 378.25 C504.2 377.52 504.19 376.8 504.19 376.05 C504.12 370.73 503.79 365.54 502.2 360.45 C497.06 347.92 489.85 338.07 481.24 327.7 C479.82 325.99 478.42 324.26 477.04 322.52 C476.45 321.79 475.86 321.06 475.25 320.31 C474.48 319.35 474.48 319.35 473.7 318.36 C473.14 317.91 472.58 317.46 472 317 C469.36 316.72 469.36 316.72 467 317 C466.37 319.23 466.37 319.23 466 322 C466.25 322.89 466.5 323.77 466.75 324.69 C466.87 326.33 466.87 326.33 467 328 C465.84 331.67 464.11 334.79 462 338 C458.57 342.35 454.89 345.83 450.17 348.75 C447.16 350.33 444.13 351.7 441 353 C440.13 353.38 439.27 353.76 438.38 354.15 C414.24 363.48 383.59 362.12 358.03 363.68 C330.86 365.32 330.86 365.32 303.94 369.12 C301.93 369.48 299.91 369.84 297.9 370.2 C297.05 370.35 296.2 370.51 295.32 370.66 C293 371 293 371 289 371 C289.08 370.22 289.17 369.44 289.25 368.63 C289.36 367.62 289.46 366.61 289.56 365.56 C289.67 364.55 289.77 363.54 289.88 362.5 C289.92 361.68 289.96 360.85 290 360 C289.67 359.67 289.34 359.34 289 359 C286.59 358.56 286.59 358.56 284 359 C282.16 360.85 282.16 360.85 280.81 363.31 C280.32 364.11 279.84 364.91 279.33 365.74 C278.89 366.48 278.45 367.23 278 368 C277.34 368.99 276.68 369.98 276 371 C273.29 371.62 273.29 371.62 270.06 371.88 C269 371.98 267.94 372.08 266.85 372.18 C265.91 372.12 264.97 372.06 264 372 C262.12 370.51 262.12 370.51 261 369 C261.49 368.28 261.99 367.55 262.5 366.8 C263.14 365.84 263.78 364.87 264.44 363.88 C265.08 362.92 265.71 361.97 266.37 360.99 C268.16 358.05 268.16 358.05 268.72 354.63 C268.81 353.76 268.91 352.9 269 352 C266.15 350.89 266.15 350.89 263.61 350.93 C262.75 351.29 261.89 351.64 261 352 C259.04 354.5 257.63 357.24 256.19 360.06 C255.78 360.82 255.37 361.58 254.96 362.36 C253.95 364.23 252.98 366.12 252 368 C249.03 366.88 246.67 365.78 244 364 C243.56 361.25 243.56 361.25 244 358 C245.86 354.43 248.17 351.64 251.06 348.88 C253.92 346.55 256.68 345.16 260.12 343.88 C262.08 343.23 264.04 342.61 266 342 C266.97 341.67 267.93 341.35 268.93 341.01 C275.37 338.89 281.87 337.28 288.5 335.88 C289.25 335.72 289.99 335.56 290.76 335.39 C293.17 334.9 295.58 334.45 298 334 C299.29 333.74 299.29 333.74 300.61 333.47 C313.34 331.17 326.36 331.29 339.25 330.9 C342.52 330.79 345.79 330.68 349.05 330.56 C350.55 330.52 350.55 330.52 352.07 330.48 C357.39 330.29 361.96 329.73 367 328 C367 326.68 367 325.36 367 324 C364.31 321.99 364.31 321.99 362.16 321.46 C361.47 321.32 360.78 321.19 360.07 321.04 C359.27 320.88 358.47 320.71 357.65 320.54 C356.77 320.36 355.9 320.18 355 320 C326.2 313.79 326.2 313.79 314 307 C308.37 303.27 303.41 298.92 299.18 293.65 C296.4 289.75 294.7 285.64 293.43 281.05 C291.95 273.96 292.42 266.18 293 259 C294.18 252.42 296.45 246.65 299.69 240.81 C305.07 232.46 312.15 225.08 320 219 C322.59 217.19 325.18 215.43 328 214 C328.66 214 329.32 214 330 214 C330.33 212.02 330.66 210.04 331 208 C327.62 208.14 324.33 208.42 321 209 C318.29 210.24 316.36 211.3 314 213 C313.3 213.47 312.61 213.95 311.89 214.43 C303.96 220.14 298.23 227.66 292.69 235.62 C289.42 240.74 286.83 245.77 285.31 251.67 C283.58 260.56 282.93 270 284.3 279 C285.78 286.59 288.24 293.89 292.17 300.57 C295.45 304.93 299.53 307.94 304 311 C304.65 311.47 305.3 311.94 305.96 312.43 C311.01 315.87 316.51 317.85 322.24 319.89 C323.15 320.25 324.06 320.62 325 321 C325.66 321.66 326.32 322.32 327 323 C325.98 323.07 325.98 323.07 324.93 323.14 C310.16 324.13 295.57 325.4 281 328 C280.22 328.13 279.44 328.26 278.64 328.4 C269.19 330.02 261.11 332.47 252.68 337.09 C249.73 338.79 247.36 340.57 245 343 C244.34 343 243.68 343 243 343 C242.69 343.64 242.38 344.28 242.06 344.94 C241 347 241 347 240 348 C228.33 349.53 216.7 348.77 205 348 C205.4 347.57 205.8 347.14 206.22 346.7 C208.85 343.78 210.88 341.26 212.57 337.68 C212.94 336.61 213.31 335.54 213.69 334.44 C214.83 331.18 215.9 328.18 217.58 325.16 C219.1 321.78 219.56 319.13 219.87 315.48 C220.11 311 220.23 306.54 220.25 302.06 C220.28 300.68 220.28 300.68 220.31 299.26 C220.34 293.52 219.6 288.58 217.89 283.1 C216.98 280.69 216.98 280.69 214.56 277.88 C213.72 277.26 212.87 276.64 212 276 C210.68 276 209.36 276 208 276 C207.77 282.13 208.07 287.94 209 294 C210.4 303.97 211.34 314.44 209.31 324.37 C207.61 329.47 205.08 333.89 201.95 338.25 C198.99 340.91 195.68 342.51 192 344 C189.16 344.7 186.35 344.99 183.43 345.22 C182.16 345.33 182.16 345.33 180.87 345.45 C167.63 346.49 154.33 346.4 141.06 346.5 C125.13 346.62 109.22 346.83 93.31 347.84 C91.58 347.95 91.58 347.95 89.82 348.05 C82.05 348.6 74.47 349.72 67 352 C64.13 353.45 61.59 355.12 59 357 C58.11 357.5 57.23 357.99 56.31 358.5 C53.88 359.96 53.88 359.96 51.8 362.25 C48.67 365.33 45.36 367.87 41.81 370.44 C41.15 370.92 40.5 371.39 39.82 371.89 C29.18 379.55 29.18 379.55 24 382 C23.01 382 22.02 382 21 382 C20.75 380.87 20.5 379.73 20.25 378.56 C19.04 373.83 17.65 369.14 15 365 C14.11 364.63 13.23 364.26 12.31 363.88 C11.17 363.94 11.17 363.94 10 364 C9.67 364.33 9.34 364.66 9 365 C9.22 371.36 10 377.72 11 384 C8.88 384.56 8.88 384.56 6 385 C3.99 384.7 1.99 384.37 0 384 C-0.13 383.05 -0.27 382.09 -0.4 381.11 C-0.67 379.23 -0.67 379.23 -0.94 377.31 C-1.11 376.07 -1.29 374.83 -1.46 373.55 C-1.9 370.68 -2.4 367.84 -3 365 C-4.98 364.34 -6.96 363.68 -9 363 C-9.33 363.33 -9.66 363.66 -10 364 C-10.43 370.38 -9.82 376.68 -9 383 C-11.25 382.81 -11.25 382.81 -14 382 C-16.25 379.94 -16.25 379.94 -18 377 C-18.85 373.34 -19.15 370.51 -18.78 366.8 C-18.05 362.78 -16.79 359.21 -14.94 355.56 C-11.69 350.07 -7.39 345.58 -3 341 C-2.42 340.36 -1.85 339.72 -1.25 339.06 C5.97 331.3 15.62 326.44 24.91 321.55 C29.19 319.4 33.49 317.63 38 316 C38.65 315.76 39.29 315.52 39.96 315.27 C61.12 307.37 82.75 301.94 104.95 297.95 C106.83 297.61 106.83 297.61 108.74 297.26 C110.41 296.97 110.41 296.97 112.11 296.67 C114.71 296.07 116.7 295.32 119 294 C119.25 291.63 119.25 291.63 119 289 C118.64 288.45 118.28 287.9 117.91 287.33 C117.28 286.89 116.65 286.45 116 286 C105.46 285.25 95.05 288.15 85 291 C83.29 291.47 81.59 291.95 79.88 292.42 C74.58 293.91 69.29 295.44 64 297 C63.24 297.22 62.48 297.45 61.7 297.68 C52.9 300.29 44.42 303.32 36 307 C34.41 307.64 34.41 307.64 32.78 308.3 C19.34 313.78 6.32 320.4 -4.74 329.89 C-15.02 339.47 -15.02 339.47 -22.88 351 C-24.96 355.6 -26.54 359.95 -27 365 C-26.93 366.96 -26.86 368.92 -26.77 370.88 C-26.63 374.34 -26.65 377.54 -27 381 C-28.47 383.83 -30.06 385.79 -32.24 388.09 C-34.06 389.91 -34.06 389.91 -35.13 392.09 C-35.79 393.71 -36.4 395.35 -37 397 C-37.66 397 -38.32 397 -39 397 C-39.1 397.93 -39.21 398.86 -39.31 399.81 C-39.73 402.92 -40.56 405.66 -41.56 408.62 C-43.48 415.22 -43.16 421.76 -42.89 428.56 C-42.82 431.07 -42.79 433.5 -43 436 C-44.33 439.58 -44.33 439.58 -46 442 C-48.69 442.88 -48.69 442.88 -51 443 C-51.27 442.37 -51.53 441.75 -51.8 441.1 C-52.33 439.88 -52.33 439.88 -52.88 438.62 C-53.22 437.81 -53.57 437 -53.93 436.16 C-54.92 433.86 -54.92 433.86 -57 432 C-60.08 431.83 -60.08 431.83 -63 432 C-63.76 434.19 -63.76 434.19 -64 437 C-63.04 440.3 -63.04 440.3 -61.56 443.62 C-60.68 445.74 -59.82 447.86 -59 450 C-59 450.99 -59 451.98 -59 453 C-61.12 454 -61.12 454 -64 455 C-66 455.04 -68 455.04 -70 455 C-70.11 454.26 -70.22 453.52 -70.33 452.76 C-71.44 445.68 -72.97 438.87 -75 432 C-76.98 432.33 -78.96 432.66 -81 433 C-81.9 435.71 -82.12 437.24 -82.1 440.01 C-82.09 440.77 -82.09 441.53 -82.09 442.31 C-82.08 443.09 -82.07 443.88 -82.06 444.69 C-82.06 445.48 -82.05 446.28 -82.05 447.1 C-82.04 449.07 -82.02 451.03 -82 453 C-84.9 449.44 -87.2 446.25 -89 442 C-91.81 432.22 -92.45 422.13 -92 412 C-91.47 407.79 -90.68 403.66 -89.81 399.5 C-89.59 398.4 -89.36 397.3 -89.12 396.17 C-87.5 388.63 -85.6 381.86 -82 375 C-81.48 373.94 -80.95 372.88 -80.41 371.79 C-75.14 361.53 -68.87 352.21 -60.53 344.18 C-56.2 340.45 -51.52 337.26 -46.74 334.14 C-44.98 332.99 -43.25 331.82 -41.51 330.64 C-30.7 323.41 -19.71 318.26 -7.19 314.57 C-4 314 -4 314 -0.59 314.4 C0.26 314.6 1.12 314.8 2 315 C2.33 313.35 2.66 311.7 3 310 C1.59 309.04 0.17 308.08 -1.25 307.12 C-2.04 306.59 -2.83 306.06 -3.64 305.51 C-5.89 303.97 -5.89 303.97 -8.11 303.12 C-8.73 302.75 -9.36 302.38 -10 302 C-13.95 296.65 -15.81 289.95 -17.75 283.66 C-19.15 278.74 -19.71 274.28 -19.46 269.15 C-17.2 246.81 -12.43 225.81 -4 205 C-3.36 205.44 -2.71 205.87 -2.05 206.32 C5.78 211.48 13.92 216.37 23.05 218.82 C25.36 219.28 27.66 219.69 30 220 C31.32 218.35 32.64 216.7 34 215 C33.26 213.02 33.26 213.02 32 211 C30.26 209.92 30.26 209.92 28.18 209.29 C27.42 209.02 26.66 208.75 25.88 208.47 C24.67 208.05 24.67 208.05 23.44 207.62 C11.84 203.36 11.84 203.36 6.74 199.57 C1.01 194.4 -2.6 187.52 -6.48 180.93 C-8 178.01 -9.05 175.15 -10 172 C-9.11 171.73 -8.22 171.47 -7.3 171.2 C-5.54 170.67 -5.54 170.67 -3.75 170.12 C-2.01 169.6 -2.01 169.6 -0.23 169.07 C2.35 168.21 4.62 167.31 7 166 C6.5 163.52 6.5 163.52 6 161 C-1.08 160.86 -7.96 161.28 -15 162 C-15.99 157.38 -16.98 152.76 -18 148 C-12.66 147.82 -7.77 148.12 -2.5 149 C2.78 149.87 7.66 150.27 13 150 C13.33 149.67 13.66 149.34 14 149 C14.04 147.33 14.04 145.67 14 144 C11.81 142.77 9.9 141.98 7.44 141.4 C0.9 140.35 -5.58 139.64 -12.19 139.25 C-14.59 139.04 -16.68 138.62 -19 138 C-19.48 124.48 -19.05 111.98 -15 99 C-13.55 94.89 -12.03 90.87 -10 87 C-9.34 86.34 -8.68 85.68 -8 85 C-8.19 81.96 -8.49 79.02 -8.88 76 C-10.97 57.39 -10.99 37.94 -6.86 19.59 C-5.16 12.7 -3.4 6.27 0 0 Z " fill="#9FC9F3" transform="translate(270,287)"/>
<path d="M0 0 C1.92 -0 3.85 -0 5.77 -0 C9.77 -0 13.77 -0 17.77 0 C22.78 0.01 27.79 0 32.8 -0 C52.2 -0.02 71.59 0.06 90.98 0.58 C92.15 0.61 92.15 0.61 93.33 0.64 C95.48 0.69 97.62 0.76 99.77 0.82 C100.97 0.86 102.18 0.89 103.42 0.93 C104.34 1 105.26 1.06 106.21 1.13 C106.87 1.46 107.53 1.79 108.21 2.13 C108.74 3.86 109.19 5.62 109.59 7.38 C110.44 10.65 111.21 13.13 112.9 16.07 C116.04 18.87 119.35 20.51 123.21 22.13 C129.67 24.69 136.51 25.26 143.4 25.53 C157.6 25.79 171.38 23.35 185.34 21.04 C200.5 18.53 215.41 16.86 230.77 16.51 C232.15 16.47 233.53 16.43 234.9 16.39 C241.62 16.21 248.31 16.15 255.03 16.26 C263.5 16.28 271.73 15.28 280.1 14.11 C282.6 13.76 285.1 13.42 287.61 13.09 C302.84 11.28 302.84 11.28 317.4 6.76 C318.34 6.36 319.28 5.96 320.25 5.55 C323.32 4.16 323.32 4.16 326.4 2.07 C328.27 1 328.27 1 330.21 0.13 C333 -0.2 335.35 -0.34 338.11 -0.26 C339.2 -0.25 339.2 -0.25 340.3 -0.24 C342.59 -0.22 344.87 -0.17 347.15 -0.12 C348.71 -0.1 350.26 -0.08 351.82 -0.06 C355.62 -0.02 359.41 0.05 363.21 0.13 C366.6 7.79 369.65 15.04 370.42 23.43 C371.02 34.56 370.13 45.02 366.96 55.7 C366.71 56.5 366.46 57.31 366.21 58.13 C365.92 59.08 365.63 60.03 365.33 61.01 C361.03 74.92 356.7 87.98 348.21 99.95 C346.89 101.68 345.56 103.41 344.21 105.13 C343.51 106.09 343.51 106.09 342.79 107.06 C338.29 112.82 332.23 117.08 326.21 121.13 C323.03 122.19 320.85 122.24 317.51 122.22 C316.31 122.21 315.12 122.2 313.88 122.19 C312.54 122.18 311.2 122.17 309.86 122.15 C308.44 122.14 307.02 122.13 305.6 122.13 C302.49 122.1 299.39 122.08 296.28 122.05 C291.17 122.01 286.07 121.97 280.96 121.94 C274.43 121.9 267.9 121.85 261.37 121.8 C239.7 121.64 218.02 121.51 196.35 121.39 C195.25 121.39 194.15 121.38 193.02 121.38 C137.64 121.07 82.27 121.01 26.89 121.01 C17.99 121.01 9.08 121.01 0.18 121 C-64.82 120.97 -129.8 121.29 -194.79 122.13 C-195.01 120.72 -195.22 119.3 -195.41 117.88 C-195.53 117.09 -195.65 116.31 -195.77 115.49 C-195.77 114.71 -195.78 113.93 -195.79 113.13 C-194.94 110.88 -194.94 110.88 -193.79 109.13 C-191.76 108.48 -191.76 108.48 -189.29 108.2 C-184.43 107.38 -180.51 105.94 -176.17 103.6 C-171.34 100.63 -167.66 97.3 -163.96 93.01 C-161.92 90.04 -160.79 87.62 -159.79 84.13 C-159.41 79.51 -159.55 74.91 -159.69 70.28 C-159.87 63.97 -159.43 58.48 -157.64 52.38 C-156.81 50.19 -155.97 48.15 -154.79 46.13 C-154.13 45.8 -153.47 45.47 -152.79 45.13 C-152.42 43.81 -152.1 42.47 -151.79 41.13 C-151.14 39.7 -150.45 38.28 -149.73 36.88 C-149.36 36.18 -149 35.47 -148.63 34.74 C-148.35 34.21 -148.07 33.68 -147.79 33.13 C-145.08 33.75 -142.88 34.52 -140.29 35.63 C-134.91 37.68 -129.49 37.89 -123.79 38.13 C-122.99 38.19 -122.19 38.24 -121.36 38.29 C-113.42 38.6 -105.42 37.28 -97.79 35.13 C-90.33 32.33 -84.16 28.22 -78.04 23.16 C-76.45 21.73 -74.91 20.22 -73.43 18.68 C-70.5 15.85 -67.43 13.68 -64.04 11.45 C-61.92 10.04 -59.85 8.62 -57.79 7.13 C-57.46 6.47 -57.13 5.81 -56.79 5.13 C-50.78 2.53 -44.41 1.14 -37.9 0.73 C-36.12 0.65 -34.34 0.58 -32.57 0.52 C-31.61 0.48 -30.65 0.44 -29.66 0.41 C-19.77 0.04 -9.89 -0.01 0 0 Z " fill="#9FCAF3" transform="translate(395.7890625,642.8671875)"/>
<path d="M0 0 C3.37 0.03 6.74 0.05 10.11 0.08 C17.19 0.13 24.26 0.19 31.34 0.26 C33.69 0.29 36.05 0.31 38.4 0.32 C62.65 0.52 85.29 2.58 108.27 10.75 C116.76 14.05 124.07 18.99 130.92 24.93 C135.89 29.41 140.3 34.15 143.93 39.78 C144.42 40.5 144.9 41.23 145.41 41.97 C152.2 52.55 156.12 64.26 159.03 76.42 C160.48 82.99 160.71 89.59 160.86 96.3 C160.89 97.73 160.93 99.16 160.97 100.59 C161.04 103.57 161.1 106.54 161.15 109.52 C161.21 112.52 161.29 115.52 161.4 118.53 C162.29 142.45 162.29 142.45 160.09 151.08 C158.02 157.03 155.21 162.43 151.93 167.78 C149.65 171.7 147.5 175.51 145.93 179.78 C144.73 182.92 143.45 185.74 141.68 188.59 C141.1 189.65 140.52 190.7 139.93 191.78 C139.43 194.5 139.43 194.5 139.93 196.78 C140.59 197.44 141.25 198.1 141.93 198.78 C143.25 198.78 144.57 198.78 145.93 198.78 C154.06 183.82 154.06 183.82 160.93 168.25 C162.11 165.34 163.51 162.58 164.93 159.78 C166.04 159.84 167.15 159.89 168.29 159.95 C173.53 160.21 178.76 160.47 183.99 160.72 C185.41 160.79 185.41 160.79 186.86 160.86 C200.6 161.52 214.32 162.09 228.07 162.44 C235.06 162.63 241.98 163.05 248.93 163.78 C248.27 164.44 247.61 165.1 246.93 165.78 C245.03 166.52 245.03 166.52 242.71 167.23 C231.28 170.68 231.28 170.68 221.05 176.66 C216.06 181.23 212.74 186.35 209.6 192.31 C203.81 204.23 200.81 217.23 199.25 230.34 C197.95 244.11 197.52 257.97 196.93 271.78 C194.94 269.25 193.62 267.12 192.24 264.16 C190.03 259.58 186.97 255.87 183.73 251.98 C181.93 249.78 181.93 249.78 179.93 246.78 C179.93 245.79 179.93 244.8 179.93 243.78 C179.27 243.78 178.61 243.78 177.93 243.78 C176.67 242.31 175.47 240.78 174.3 239.22 C171.19 235.24 168.06 231.91 164.18 228.69 C161.94 226.79 159.79 224.8 157.65 222.78 C150.26 215.86 142.59 209.82 133.73 204.84 C131.01 203.28 128.44 201.67 125.93 199.78 C124.34 197.59 123.41 195.71 122.54 193.15 C122.05 191.24 121.57 189.33 121.09 187.41 C119.85 183.55 118.2 180.67 115.99 177.28 C113.85 173.98 111.99 170.94 110.49 167.3 C108.74 163.35 106.58 160.36 103.87 157.03 C103.39 156.43 102.9 155.83 102.41 155.21 C96.16 147.48 89.75 139.97 81.93 133.78 C80.26 132.12 78.6 130.45 76.93 128.78 C76.17 128.23 75.4 127.67 74.62 127.09 C74.06 126.66 73.5 126.23 72.93 125.78 C72.93 125.12 72.93 124.46 72.93 123.78 C72.25 123.54 71.58 123.3 70.88 123.05 C67.28 121.5 64.01 119.52 60.68 117.47 C59.34 116.66 58 115.84 56.66 115.03 C55.7 114.45 55.7 114.45 54.71 113.85 C51.17 111.73 47.58 109.7 43.93 107.78 C43.39 107.49 42.86 107.2 42.3 106.9 C36.55 103.88 30.59 101.76 24.43 99.72 C23.36 99.37 22.3 99.01 21.2 98.65 C13.51 96.16 6.03 94.36 -1.97 93.13 C-4.36 92.73 -6.74 92.25 -9.12 91.76 C-10.01 91.58 -10.9 91.39 -11.82 91.21 C-13.53 90.86 -15.23 90.5 -16.92 90.14 C-31.3 87.27 -46.2 87.62 -60.79 87.65 C-63.57 87.66 -66.34 87.65 -69.12 87.65 C-84.98 87.64 -100.44 88.31 -116.13 90.78 C-136.56 93.85 -136.56 93.85 -146.07 93.78 C-146.4 93.45 -146.73 93.12 -147.07 92.78 C-148.55 92.49 -150.05 92.24 -151.54 92.03 C-152.89 91.83 -152.89 91.83 -154.27 91.63 C-155.69 91.43 -155.69 91.43 -157.13 91.22 C-158.08 91.08 -159.03 90.94 -160.01 90.8 C-162.36 90.46 -164.72 90.12 -167.07 89.78 C-166.74 85.49 -166.41 81.2 -166.07 76.78 C-163.07 76.57 -163.07 76.57 -160.01 76.34 C-159.31 76.29 -158.61 76.24 -157.89 76.19 C-153.6 75.9 -149.32 75.72 -145.02 75.6 C-143.99 75.57 -142.95 75.53 -141.89 75.5 C-139.81 75.44 -137.74 75.39 -135.67 75.35 C-134.71 75.32 -133.75 75.29 -132.77 75.26 C-131.48 75.23 -131.48 75.23 -130.17 75.2 C-129.48 75.06 -128.78 74.92 -128.07 74.78 C-127.08 73.3 -127.08 73.3 -126.07 71.78 C-126.31 69.66 -126.31 69.66 -127.07 67.78 C-127.4 67.45 -127.73 67.12 -128.07 66.78 C-130.96 66.69 -133.82 66.67 -136.7 66.68 C-137.56 66.69 -138.43 66.69 -139.32 66.69 C-142.09 66.69 -144.86 66.71 -147.63 66.72 C-149.51 66.72 -151.38 66.73 -153.26 66.73 C-157.86 66.74 -162.47 66.76 -167.07 66.78 C-167.18 65.83 -167.29 64.87 -167.41 63.88 C-168.38 56.03 -169.63 48.52 -171.88 40.91 C-172.12 40.05 -172.35 39.19 -172.6 38.31 C-173.88 33.86 -175.37 30.12 -177.8 26.17 C-179.1 23.96 -179.1 23.96 -180.07 21.78 C-180.42 18.86 -180.1 16.29 -179.57 13.41 C-179.48 12.71 -179.39 12.01 -179.29 11.29 C-178.98 9.26 -178.98 9.26 -178.07 5.78 C-176.83 4.11 -176.83 4.11 -175.07 2.78 C-172.82 2.29 -172.82 2.29 -170.07 2.13 C-168.99 2.07 -167.91 2 -166.8 1.94 C-159.23 1.63 -151.67 1.39 -144.09 1.21 C-143.16 1.19 -142.23 1.17 -141.27 1.14 C-133.99 0.97 -126.72 0.81 -119.45 0.66 C-118.36 0.63 -117.28 0.61 -116.17 0.59 C-77.44 -0.23 -38.73 -0.31 0 0 Z " fill="#9FC9F3" transform="translate(627.070671081543,347.21768951416016)"/>
<path d="M0 0 C6.89 0.3 13.77 0.36 20.67 0.34 C22.63 0.34 22.63 0.34 24.62 0.34 C28.08 0.34 31.54 0.34 35.01 0.33 C38.67 0.32 42.32 0.32 45.98 0.32 C52.86 0.32 59.74 0.31 66.62 0.3 C74.48 0.29 82.33 0.28 90.18 0.28 C106.29 0.27 122.4 0.25 138.51 0.23 C136.51 2.23 136.51 2.23 134.04 3.41 C122.23 8.11 110.4 10.01 97.83 11.23 C85.06 12.44 85.06 12.44 72.93 16.41 C70.5 17.84 68.55 19.28 66.51 21.23 C63.94 24.37 62.01 27.45 60.51 31.23 C59.96 34.36 60.01 37.09 60.51 40.23 C61.32 43.66 62.48 46.16 64.2 49.23 C66.38 52.05 68.38 54.44 71.12 56.71 C75.47 59.46 80.28 61.15 85.09 62.93 C87.68 63.91 90.08 64.92 92.51 66.23 C88.96 67.42 85.74 67.37 82.04 67.35 C81.27 67.35 80.5 67.35 79.7 67.36 C77.09 67.36 74.49 67.35 71.88 67.35 C70 67.35 68.12 67.35 66.24 67.35 C61.06 67.35 55.88 67.35 50.7 67.35 C45.12 67.34 39.54 67.34 33.96 67.34 C24.28 67.34 14.61 67.34 4.93 67.34 C-9.05 67.33 -23.04 67.32 -37.03 67.32 C-59.72 67.32 -82.42 67.31 -105.11 67.3 C-127.16 67.3 -149.21 67.29 -171.25 67.28 C-171.93 67.28 -172.61 67.28 -173.31 67.28 C-180.14 67.28 -186.96 67.28 -193.78 67.28 C-251.02 67.27 -308.25 67.25 -365.49 67.23 C-365.49 45.12 -365.49 23.01 -365.49 0.23 C-321.98 0.08 -278.47 -0.07 -234.96 -0.2 C-229.81 -0.22 -224.66 -0.24 -219.51 -0.25 C-218.49 -0.26 -217.46 -0.26 -216.41 -0.26 C-199.86 -0.32 -183.32 -0.37 -166.77 -0.43 C-149.76 -0.49 -132.76 -0.54 -115.75 -0.6 C-105.27 -0.63 -94.8 -0.66 -84.32 -0.7 C-77.12 -0.73 -69.91 -0.75 -62.71 -0.77 C-58.57 -0.78 -54.42 -0.79 -50.28 -0.81 C-33.5 -0.88 -16.77 -0.74 0 0 Z " fill="#9FC9F2" transform="translate(566.4856853485107,772.7705068588257)"/>
<path d="M0 0 C1.18 0 2.37 0 3.59 0 C4.87 0.01 6.14 0.02 7.46 0.03 C8.85 0.03 10.24 0.03 11.63 0.03 C15.43 0.04 19.23 0.06 23.03 0.08 C27.13 0.09 31.24 0.1 35.34 0.11 C42.44 0.14 49.55 0.16 56.65 0.19 C66.92 0.23 77.2 0.26 87.47 0.29 C104.13 0.34 120.8 0.4 137.47 0.46 C153.65 0.52 169.84 0.57 186.03 0.63 C187.03 0.63 188.02 0.63 189.05 0.64 C194.06 0.65 199.07 0.67 204.08 0.68 C245.61 0.82 287.13 0.96 328.66 1.11 C328.65 2.02 328.64 2.93 328.62 3.87 C328.51 12.62 328.39 21.37 328.27 30.12 C328.22 34.62 328.16 39.11 328.1 43.61 C327.71 72.22 327.53 100.82 327.59 129.43 C327.6 134.76 327.61 140.1 327.61 145.44 C327.62 155.66 327.64 165.88 327.66 176.11 C325.66 176.13 323.66 176.15 321.66 176.17 C320.55 176.18 319.43 176.19 318.29 176.21 C314.34 176.1 310.57 175.65 306.66 175.11 C306.66 174.4 306.66 173.7 306.66 172.97 C306.69 155.86 306.7 138.74 306.71 121.62 C306.72 113.35 306.72 105.07 306.74 96.79 C306.75 89.58 306.75 82.37 306.75 75.15 C306.76 71.33 306.76 67.51 306.77 63.69 C306.77 60.1 306.78 56.5 306.77 52.91 C306.77 50.96 306.78 49 306.79 47.05 C306.78 45.32 306.78 45.32 306.78 43.55 C306.78 42.54 306.78 41.53 306.78 40.49 C306.74 39.71 306.7 38.92 306.66 38.11 C306.33 37.45 306 36.79 305.66 36.11 C300.66 34.44 295.44 34.92 290.21 34.92 C288.17 34.92 286.13 34.9 284.09 34.88 C282.8 34.88 281.52 34.88 280.19 34.88 C279.01 34.87 277.83 34.87 276.62 34.86 C275.15 34.98 275.15 34.98 273.66 35.11 C272.67 35.77 271.68 36.43 270.66 37.11 C269.13 41.67 269.55 46.66 269.6 51.42 C269.61 52.67 269.61 52.67 269.61 53.95 C269.62 56 269.64 58.06 269.66 60.11 C269.07 60.13 268.48 60.16 267.87 60.18 C265.2 60.3 262.52 60.42 259.85 60.54 C258.92 60.58 257.99 60.62 257.03 60.66 C256.14 60.71 255.25 60.75 254.33 60.79 C253.51 60.83 252.68 60.86 251.84 60.9 C249.48 61.04 249.48 61.04 246.66 62.11 C243.33 78.44 240.17 94.8 237.04 111.17 C236.75 112.69 236.75 112.69 236.45 114.24 C235.18 120.86 233.92 127.48 232.66 134.11 C232.43 135.32 232.43 135.32 232.2 136.55 C231.78 138.74 231.37 140.93 230.95 143.12 C230.73 144.32 230.5 145.52 230.27 146.76 C229.28 152.19 228.47 157.65 227.66 163.11 C227.29 165.55 226.91 167.98 226.54 170.42 C226.25 172.3 225.96 174.17 225.66 176.11 C221.7 176.11 217.74 176.11 213.66 176.11 C213.33 130.24 213 84.37 212.66 37.11 C211.34 36.45 210.02 35.79 208.66 35.11 C206.06 34.89 203.57 34.78 200.97 34.77 C199.86 34.76 199.86 34.76 198.73 34.75 C197.17 34.74 195.61 34.74 194.05 34.74 C191.67 34.73 189.29 34.7 186.9 34.66 C185.38 34.65 183.87 34.65 182.35 34.65 C181.64 34.63 180.93 34.62 180.2 34.6 C177.92 34.58 177.92 34.58 174.66 35.11 C173.94 35.55 173.21 36 172.46 36.46 C171.87 37.33 171.27 38.21 170.66 39.11 C170.1 42.75 170.22 46.35 170.3 50.03 C170.31 51.7 170.31 51.7 170.33 53.4 C170.36 57.08 170.42 60.76 170.49 64.44 C170.52 66.99 170.55 69.54 170.57 72.09 C170.64 78.11 170.72 84.14 170.82 90.17 C170.92 97.03 171.01 103.9 171.09 110.76 C171.25 124.88 171.45 138.99 171.66 153.11 C170.02 149.91 168.8 146.75 167.67 143.34 C167.3 142.21 166.92 141.08 166.54 139.92 C166.15 138.72 165.75 137.53 165.35 136.29 C164.53 133.83 163.72 131.36 162.9 128.89 C162.51 127.71 162.12 126.53 161.72 125.31 C160.88 122.78 160.03 120.25 159.17 117.73 C156.83 110.89 154.75 104 152.79 97.04 C150.59 89.29 148.34 81.56 145.97 73.86 C145.69 72.9 145.4 71.94 145.11 70.95 C144.83 70.07 144.56 69.19 144.27 68.28 C144.03 67.5 143.8 66.71 143.55 65.91 C143.26 65.31 142.96 64.72 142.66 64.11 C139.36 63.01 136.75 62.92 133.28 62.83 C132.03 62.79 130.78 62.75 129.49 62.71 C126.85 62.64 124.2 62.57 121.56 62.5 C120.31 62.46 119.06 62.43 117.78 62.39 C116.63 62.36 115.48 62.33 114.3 62.3 C113.43 62.23 112.56 62.17 111.66 62.11 C111.33 61.78 111 61.45 110.66 61.11 C110.28 53.06 110.68 45.09 111.66 37.11 C105.54 35.52 99.85 34.81 93.54 34.84 C92.71 34.84 91.89 34.84 91.04 34.84 C89.31 34.83 87.58 34.84 85.86 34.85 C83.21 34.86 80.56 34.85 77.9 34.83 C76.22 34.84 74.54 34.84 72.85 34.84 C72.06 34.84 71.27 34.83 70.45 34.83 C68.52 34.85 66.59 34.97 64.66 35.11 C63.67 36.1 63.67 36.1 62.66 37.11 C62.35 40.01 62.15 42.83 62.04 45.73 C62 46.53 61.96 47.34 61.92 48.16 C61.82 50.14 61.74 52.13 61.66 54.11 C57.9 55.36 54.41 55.23 50.49 55.21 C49.7 55.2 48.9 55.2 48.08 55.2 C45.55 55.2 43.01 55.18 40.47 55.17 C38.75 55.16 37.03 55.16 35.31 55.16 C31.09 55.15 26.88 55.13 22.66 55.11 C22.33 48.51 22 41.91 21.66 35.11 C20.34 34.78 19.02 34.45 17.66 34.11 C17.33 33.45 17 32.79 16.66 32.11 C6.1 31.78 -4.46 31.45 -15.34 31.11 C-15.34 21.21 -15.34 11.31 -15.34 1.11 C-5.21 -0.02 -5.21 -0.02 0 0 Z " fill="#A0CAF3" transform="translate(609.3392496109009,96.89256954193115)"/>
<path d="M0 0 C0.85 -0.01 1.69 -0.03 2.57 -0.04 C6.72 -0.01 10.29 0.32 14.21 1.76 C15.44 2.28 16.66 2.82 17.88 3.38 C18.7 3.75 19.53 4.13 20.38 4.52 C25.06 7.04 28.81 9.87 32.56 13.63 C33.88 15.38 33.88 15.38 34.56 17.59 C34.67 18.18 34.77 18.77 34.88 19.38 C35.53 19.38 36.19 19.38 36.88 19.38 C39.15 23.53 40.87 27.75 41.88 32.38 C42.33 36.44 42.46 40.47 42.5 44.56 C42.52 45.57 42.55 46.58 42.57 47.62 C42.53 51.76 42.26 55.31 40.84 59.22 C39.22 62.6 37.68 65.52 35.1 68.26 C31.64 71.36 27.75 73.82 23.88 76.38 C22.26 77.71 22.26 77.71 20.88 79.38 C19.19 82.9 18.1 86.63 17.6 90.51 C17.49 92.68 17.48 94.83 17.5 97 C17.49 98.23 17.49 98.23 17.48 99.48 C17.47 102.2 17.48 104.92 17.49 107.64 C17.49 109.6 17.48 111.56 17.47 113.52 C17.46 117.73 17.46 121.94 17.46 126.15 C17.47 132.82 17.46 139.49 17.44 146.15 C17.4 160.31 17.39 174.47 17.38 188.62 C17.36 203.9 17.35 219.17 17.3 234.44 C17.29 241.06 17.28 247.68 17.29 254.29 C17.29 258.42 17.28 262.55 17.27 266.68 C17.26 268.59 17.26 270.49 17.27 272.39 C17.3 282.68 17.2 292.51 13.88 302.38 C12.24 305.88 10.62 308.63 7.88 311.38 C4.38 313.83 0.85 315.81 -3.12 317.38 C-8.44 318.52 -13.7 318.59 -19.12 318.69 C-20.06 318.71 -21.01 318.73 -21.98 318.75 C-24.99 318.82 -27.99 318.88 -31 318.94 C-33.04 318.98 -35.09 319.02 -37.13 319.07 C-42.13 319.18 -47.13 319.28 -52.12 319.38 C-51.79 318.71 -51.47 318.06 -51.12 317.38 C-50.98 315.37 -50.9 313.36 -50.84 311.36 C-50.83 310.7 -50.81 310.05 -50.79 309.38 C-50.73 307.11 -50.68 304.84 -50.62 302.56 C-50.61 301.75 -50.59 300.94 -50.57 300.1 C-50.4 292.86 -50.26 285.62 -50.12 278.38 C-50.11 277.71 -50.1 277.04 -50.09 276.35 C-49.43 241.05 -48.82 205.75 -49.44 170.44 C-49.45 169.35 -49.47 168.26 -49.49 167.14 C-49.74 151.95 -50.65 136.89 -52.43 121.81 C-53.02 116.53 -53.16 111.58 -52.67 106.29 C-52.61 105.56 -52.55 104.83 -52.49 104.07 C-52.29 101.71 -52.09 99.36 -51.88 97 C-51.73 95.35 -51.59 93.7 -51.45 92.05 C-51.03 87.16 -50.58 82.27 -50.12 77.38 C-50.06 76.66 -49.99 75.95 -49.92 75.22 C-49.11 66.59 -48.19 57.98 -47.12 49.38 C-46.98 48.15 -46.98 48.15 -46.83 46.9 C-45.85 39.02 -43.87 32 -40.38 24.88 C-37.74 19.84 -34.96 15.07 -30.96 10.98 C-26.94 7.46 -22.82 4.71 -18.03 2.34 C-12.17 0.12 -6.19 0.07 0 0 Z " fill="#9FC9F2" transform="translate(884.125,520.625)"/>
<path d="M0 0 C6.03 0.84 11.19 2.93 16.62 5.62 C21.42 8.4 25.29 11.62 29.07 15.66 C32.75 20.12 35.12 24.57 37.08 30 C40.91 41.93 43.39 53.68 44.12 66.19 C44.2 67.38 44.28 68.58 44.37 69.81 C44.97 79.36 45.36 88.91 45.57 98.47 C45.73 104.31 46.41 109.38 48 115 C48 115.83 48 116.65 48 117.5 C47.02 119.95 46 121.39 44.38 123.44 C39.92 129.08 37.09 135.55 34 142 C33 144 32 146 31 148 C29.28 151.63 28.76 154.88 28.29 158.85 C27.85 162.09 27.11 165.25 26.44 168.44 C25.01 175.92 24.7 183.27 24.69 190.88 C24.68 192.42 24.68 192.42 24.67 194.01 C24.75 202.15 25.57 209.98 28.31 217.69 C28.87 218.78 29.43 219.87 30 221 C30.3 221.66 30.61 222.31 30.92 222.99 C32.12 225.28 33.29 227.05 35 229 C37.7 230.75 37.7 230.75 40.69 232.25 C41.68 232.77 42.68 233.29 43.7 233.83 C44.84 234.41 44.84 234.41 46 235 C46.13 242.5 46.26 250.01 46.39 257.51 C46.45 261 46.51 264.49 46.57 267.98 C46.89 285.99 47.08 303.99 47 322 C13.21 323.89 13.21 323.89 1.59 321.21 C-2.47 319.87 -6.03 318.22 -9.44 315.62 C-12.12 312.87 -14.04 310.31 -16 307 C-19.48 295.52 -19.43 283.65 -19.4 271.76 C-19.41 269.89 -19.41 268.02 -19.42 266.15 C-19.44 262.15 -19.44 258.15 -19.44 254.15 C-19.44 247.81 -19.46 241.48 -19.48 235.14 C-19.52 222.84 -19.54 210.54 -19.56 198.24 C-19.58 182.57 -19.61 166.9 -19.66 151.23 C-19.68 144.94 -19.69 138.65 -19.7 132.37 C-19.7 128.45 -19.71 124.53 -19.72 120.61 C-19.73 118.8 -19.73 117 -19.72 115.19 C-19.66 100.48 -19.66 100.48 -22 86 C-23.08 83.74 -24 82.25 -25.77 80.48 C-29.38 78.09 -33.4 76.68 -37.45 75.2 C-41.13 73.83 -44.24 72.47 -47.25 69.94 C-48.94 68.26 -50.34 66.56 -51.81 64.69 C-53.92 59.91 -54.79 55.28 -55.26 50.09 C-55.54 42.37 -54.46 35.19 -52.32 27.8 C-50.84 23.26 -48.8 19.31 -46.04 15.4 C-42.49 11.22 -38.68 7.88 -34 5 C-22.73 -0.14 -12.21 -0.71 0 0 Z " fill="#9FC9F3" transform="translate(145,517)"/>
<path d="M0 0 C113.19 0 226.38 0 343 0 C343 8.91 343 17.82 343 27 C328.38 27 328.38 27 323.19 26.5 C322.19 26.41 321.19 26.31 320.17 26.22 C319.09 26.11 319.09 26.11 318 26 C317.6 26.93 317.6 26.93 317.19 27.88 C316.8 28.58 316.4 29.28 316 30 C314.51 30.99 314.51 30.99 313 32 C312.67 36.29 312.34 40.58 312 45 C297.15 45.5 297.15 45.5 282 46 C280.82 41.28 280.64 36.75 280.38 31.9 C280.25 30.94 280.13 29.99 280 29 C279.34 28.34 278.68 27.68 278 27 C275.41 26.74 272.92 26.6 270.32 26.56 C269.56 26.54 268.8 26.53 268.01 26.52 C266.4 26.49 264.79 26.48 263.17 26.46 C260.71 26.44 258.25 26.36 255.78 26.29 C254.21 26.27 252.64 26.26 251.07 26.25 C250.34 26.22 249.61 26.19 248.85 26.16 C246.45 26.1 246.45 26.1 243 27 C241.3 28.6 240.11 30.21 238.86 32.17 C237.81 34.17 237.81 34.17 237.51 37.31 C237.6 38.86 237.6 38.86 237.69 40.44 C237.73 41.49 237.78 42.54 237.82 43.62 C237.91 44.8 237.91 44.8 238 46 C236.73 45.99 235.46 45.98 234.15 45.96 C223.71 45.9 213.4 46.12 203 47 C202.67 46.34 202.34 45.68 202 45 C201.87 43.59 201.77 42.17 201.69 40.75 C201.48 38.33 201.48 38.33 201 36 C199.28 32.58 199.28 32.58 197 30 C196.01 29.34 195.02 28.68 194 28 C191.09 27.81 188.27 27.74 185.36 27.77 C184.07 27.77 184.07 27.77 182.75 27.77 C179.93 27.77 177.12 27.79 174.31 27.81 C172.39 27.82 170.47 27.83 168.54 27.83 C145.81 27.8 145.81 27.8 123.17 29.59 C120.75 29.87 118.86 29.98 116.43 29.7 C115.73 29.51 115.03 29.32 114.31 29.12 C103.17 26.49 91.35 26.83 79.96 26.68 C78.55 26.66 77.13 26.64 75.72 26.62 C72.76 26.58 69.81 26.54 66.86 26.5 C63.16 26.45 59.47 26.39 55.78 26.34 C37.18 26.06 18.6 25.96 0 26 C0 17.42 0 8.84 0 0 Z " fill="#A1CBF3" transform="translate(594,313)"/>
<path d="M0 0 C3.79 -0.03 7.58 -0.05 11.38 -0.06 C12.46 -0.07 13.54 -0.08 14.65 -0.09 C16.2 -0.09 16.2 -0.09 17.77 -0.1 C18.73 -0.1 19.68 -0.11 20.66 -0.11 C21.43 -0.08 22.2 -0.04 23 0 C23.99 0.5 23.99 0.5 25 1 C25.15 8.1 25.3 15.21 25.44 22.31 C25.47 23.98 25.47 23.98 25.51 25.68 C25.82 41.47 26.06 57.26 26.25 73.05 C26.27 74.76 26.3 76.48 26.32 78.19 C26.41 85.86 26.5 93.54 26.58 101.21 C26.61 104.42 26.65 107.63 26.69 110.85 C26.71 112.36 26.73 113.87 26.74 115.38 C26.76 117.45 26.78 119.53 26.81 121.6 C26.82 122.77 26.84 123.94 26.85 125.14 C26.88 128.07 26.88 128.07 28 131 C20.53 131.02 13.06 131.04 5.6 131.05 C2.13 131.06 -1.34 131.06 -4.81 131.08 C-8.82 131.09 -12.82 131.09 -16.82 131.1 C-18.66 131.11 -18.66 131.11 -20.53 131.11 C-28.4 131.11 -36.17 130.72 -44 130 C-44.8 120.99 -45.1 112.12 -44.96 103.08 C-44.91 98.05 -45.11 93.11 -45.49 88.1 C-46.1 79.55 -46.15 71.02 -46.13 62.45 C-46.13 59.83 -46.13 57.22 -46.14 54.6 C-46.14 42.7 -45.67 30.88 -45 19 C-33.12 18.67 -21.24 18.34 -9 18 C-8.97 21.11 -8.95 24.23 -8.92 27.44 C-8.84 37.73 -8.75 48.02 -8.66 58.32 C-8.61 64.56 -8.55 70.8 -8.5 77.04 C-8.45 83.06 -8.4 89.09 -8.35 95.11 C-8.33 97.41 -8.31 99.7 -8.29 102 C-8.27 105.22 -8.24 108.44 -8.21 111.66 C-8.2 113.08 -8.2 113.08 -8.19 114.53 C-8.13 119.45 -7.83 124.15 -7 129 C-5.35 129 -3.7 129 -2 129 C-1.67 128.34 -1.34 127.68 -1 127 C-0.63 122.84 -0.57 118.67 -0.44 114.5 C-0.42 113.83 -0.4 113.17 -0.38 112.48 C0.27 91.45 0.11 70.41 0.07 49.37 C0.06 43.78 0.05 38.2 0.05 32.61 C0.04 21.74 0.02 10.87 0 0 Z " fill="#A0CAF3" transform="translate(841,348)"/>
<path d="M0 0 C6.16 0.7 12.26 0.73 18.45 0.73 C19.72 0.74 20.98 0.74 22.29 0.75 C25.78 0.76 29.27 0.77 32.76 0.77 C36.53 0.78 40.3 0.79 44.07 0.81 C50.6 0.83 57.13 0.85 63.65 0.86 C73.09 0.89 82.53 0.91 91.96 0.94 C107.28 0.99 122.59 1.03 137.9 1.08 C152.77 1.11 167.64 1.16 182.51 1.2 C183.43 1.2 184.35 1.21 185.29 1.21 C189.9 1.22 194.5 1.24 199.1 1.25 C237.25 1.36 275.4 1.47 313.56 1.57 C313.56 8.5 313.56 15.43 313.56 22.57 C268.83 23.39 224.11 23.66 179.38 23.63 C177.47 23.63 177.47 23.63 175.52 23.63 C156.43 23.62 137.35 23.6 118.26 23.57 C112.17 23.57 106.07 23.56 99.98 23.55 C99.31 23.55 98.64 23.55 97.95 23.55 C86.68 23.54 75.41 23.53 64.14 23.52 C57.9 23.51 51.65 23.51 45.4 23.5 C20.1 23.45 -5.16 23.43 -30.44 24.57 C-30.28 23.63 -30.12 22.69 -29.96 21.72 C-29.54 19.13 -29.26 16.66 -29.13 14.05 C-29.09 13.26 -29.04 12.46 -29 11.65 C-28.96 10.84 -28.92 10.03 -28.88 9.2 C-28.84 8.37 -28.8 7.53 -28.75 6.68 C-28.65 4.64 -28.54 2.61 -28.44 0.57 C-27.86 0.58 -27.27 0.58 -26.67 0.59 C-24.01 0.61 -21.35 0.62 -18.69 0.63 C-17.77 0.64 -16.85 0.65 -15.9 0.66 C-15.02 0.66 -14.13 0.67 -13.21 0.67 C-11.98 0.68 -11.98 0.68 -10.73 0.69 C-8.49 0.66 -8.49 0.66 -6.58 0.04 C-4.18 -0.49 -2.43 -0.33 0 0 Z " fill="#A2CCF3" transform="translate(623.4440364837646,280.4276113510132)"/>
<path d="M0 0 C-0.19 0.61 -0.38 1.23 -0.57 1.86 C-2.19 7.11 -3.69 12.39 -5.12 17.69 C-5.46 18.91 -5.79 20.13 -6.13 21.39 C-7.97 29.05 -8.18 36.41 -8.19 44.25 C-8.2 45.32 -8.21 46.39 -8.22 47.49 C-8.24 57.94 -6.51 67.32 -3.09 77.18 C-1.63 80.95 0.09 84.45 2 88 C1.33 88.24 0.66 88.49 -0.03 88.74 C-14.83 94.5 -27.7 103.06 -40 113 C-41.77 114.38 -43.54 115.75 -45.31 117.12 C-46.54 118.08 -47.77 119.04 -49 120 C-49.99 118.28 -49.99 118.28 -51 116 C-51.2 113.83 -51.2 113.83 -51.12 111.45 C-51.11 110.54 -51.09 109.63 -51.07 108.69 C-51.05 107.7 -51.02 106.71 -51 105.69 C-50.76 83.66 -51.24 61.44 -58.2 40.38 C-60.46 34.12 -63.04 28.37 -67 23 C-67.43 22.42 -67.86 21.84 -68.3 21.24 C-72.46 16.02 -77.59 11.88 -83 8 C-84.32 7.3 -85.64 6.62 -87 6 C-87 5.67 -87 5.34 -87 5 C-84.42 4.68 -81.83 4.37 -79.25 4.06 C-78.18 3.93 -78.18 3.93 -77.1 3.8 C-66.98 2.59 -56.86 1.88 -46.68 1.46 C-45.65 1.42 -44.63 1.38 -43.57 1.33 C-41.43 1.25 -39.28 1.16 -37.14 1.07 C-33.88 0.94 -30.62 0.8 -27.36 0.66 C-25.26 0.58 -23.15 0.49 -21.05 0.4 C-20.09 0.36 -19.13 0.32 -18.14 0.28 C-12.09 0.04 -6.06 -0.05 0 0 Z " fill="#A0CAF3" transform="translate(250,507)"/>
<path d="M0 0 C10.89 0 21.78 0 33 0 C33.03 3.93 33.05 7.86 33.08 11.9 C33.16 24.85 33.25 37.8 33.34 50.75 C33.39 58.6 33.45 66.45 33.5 74.31 C33.54 81.15 33.59 87.99 33.64 94.84 C33.66 98.46 33.69 102.09 33.71 105.71 C33.73 109.76 33.76 113.8 33.79 117.84 C33.8 119.65 33.8 119.65 33.81 121.5 C33.82 122.6 33.83 123.69 33.84 124.82 C33.85 125.78 33.85 126.74 33.86 127.72 C33.93 128.85 33.93 128.85 34 130 C34.33 130.66 34.66 131.32 35 132 C34.34 132.33 33.68 132.66 33 133 C21.78 133 10.56 133 -1 133 C-0.67 89.11 -0.34 45.22 0 0 Z " fill="#9FCAF3" transform="translate(679,140)"/>
<path d="M0 0 C12.87 0 25.74 0 39 0 C39.03 4.98 39.03 4.98 39.06 10.07 C39.13 21.02 39.2 31.97 39.29 42.92 C39.34 49.57 39.38 56.21 39.42 62.85 C39.46 69.26 39.5 75.66 39.56 82.07 C39.58 84.52 39.59 86.97 39.6 89.42 C39.62 92.84 39.65 96.26 39.68 99.68 C39.68 100.7 39.69 101.72 39.69 102.77 C39.7 103.7 39.71 104.63 39.72 105.58 C39.73 106.39 39.73 107.2 39.74 108.04 C39.87 109.01 39.87 109.01 40 110 C40.99 110.99 40.99 110.99 42 112 C27.81 112 13.62 112 -1 112 C-0.67 75.04 -0.34 38.08 0 0 Z " fill="#9FC9F2" transform="translate(632,161)"/>
<path d="M0 0 C25.67 -0.12 51.34 -0.14 77 -0.14 C83.19 -0.14 89.38 -0.15 95.57 -0.15 C116.09 -0.16 136.61 -0.16 157.14 -0.16 C158.23 -0.16 159.32 -0.16 160.45 -0.16 C161.55 -0.16 162.64 -0.16 163.77 -0.16 C181.67 -0.16 199.58 -0.17 217.48 -0.19 C235.96 -0.2 254.45 -0.21 272.93 -0.21 C283.27 -0.21 293.61 -0.21 303.95 -0.22 C312.7 -0.23 321.46 -0.23 330.22 -0.22 C334.68 -0.22 339.14 -0.22 343.61 -0.23 C347.69 -0.24 351.77 -0.24 355.85 -0.23 C357.33 -0.23 358.81 -0.23 360.29 -0.23 C362.29 -0.24 364.29 -0.23 366.29 -0.23 C367.4 -0.23 368.52 -0.23 369.66 -0.23 C370.52 -0.14 371.38 -0.06 372.26 0.02 C372.92 0.68 373.58 1.34 374.26 2.02 C374.58 4.46 374.58 4.46 374.26 7.02 C373.91 7.56 373.56 8.1 373.19 8.66 C372.55 9.11 371.92 9.56 371.26 10.02 C368.12 10.4 368.12 10.4 364.14 10.41 C363.41 10.41 362.67 10.42 361.92 10.42 C359.44 10.43 356.96 10.43 354.49 10.42 C352.7 10.42 350.91 10.43 349.13 10.44 C344.2 10.45 339.28 10.45 334.35 10.44 C329.05 10.44 323.74 10.46 318.44 10.47 C308.04 10.49 297.64 10.49 287.24 10.49 C278.8 10.49 270.35 10.49 261.9 10.5 C259.47 10.5 257.04 10.51 254.61 10.51 C252.8 10.51 252.8 10.51 250.95 10.51 C228.06 10.53 205.18 10.53 182.29 10.52 C161.33 10.52 140.37 10.54 119.41 10.57 C97.91 10.6 76.41 10.62 54.92 10.62 C42.84 10.61 30.76 10.62 18.68 10.64 C8.4 10.66 -1.88 10.67 -12.17 10.65 C-17.42 10.64 -22.66 10.64 -27.91 10.66 C-32.71 10.68 -37.51 10.67 -42.31 10.65 C-44.06 10.65 -45.8 10.65 -47.54 10.66 C-49.9 10.68 -52.25 10.67 -54.61 10.65 C-55.93 10.65 -57.24 10.65 -58.59 10.65 C-59.63 10.44 -60.67 10.24 -61.74 10.02 C-63.68 7.48 -63.68 7.48 -64.74 5.02 C-63.33 3.06 -63.33 3.06 -60.74 1.02 C-57.57 0.37 -54.41 0.42 -51.18 0.42 C-49.69 0.4 -49.69 0.4 -48.17 0.37 C-44.77 0.32 -41.37 0.3 -37.98 0.28 C-35.49 0.26 -33.01 0.23 -30.52 0.2 C-22.7 0.11 -14.88 0.07 -7.06 0.03 C-4.71 0.02 -2.35 0.01 0 0 Z " fill="#042C7E" transform="translate(384.73552227020264,680.977020740509)"/>
<path d="M0 0 C3.97 -0.02 7.94 -0.04 11.91 -0.05 C13.26 -0.06 14.61 -0.07 15.96 -0.08 C17.9 -0.09 19.84 -0.09 21.78 -0.1 C23.53 -0.11 23.53 -0.11 25.32 -0.11 C26.2 -0.08 27.09 -0.04 28 0 C28.33 0.33 28.66 0.66 29 1 C29.09 2.95 29.11 4.9 29.1 6.85 C29.09 8.1 29.09 9.35 29.09 10.64 C29.08 11.31 29.08 11.99 29.08 12.68 C29.06 14.78 29.06 16.88 29.05 18.99 C29.04 24.21 29.01 29.43 28.99 34.65 C28.97 39.05 28.95 43.46 28.94 47.87 C28.94 49.94 28.93 52.01 28.91 54.08 C28.91 55.34 28.91 56.6 28.9 57.89 C28.9 59 28.89 60.11 28.89 61.25 C28.88 64.09 28.88 64.09 30 67 C30.02 68.88 30.02 68.88 29.88 71.07 C29.81 72.35 29.81 72.35 29.73 73.67 C29.68 74.62 29.62 75.58 29.56 76.56 C28.95 88.81 28.88 101.05 28.88 113.31 C28.87 114.26 28.87 115.21 28.87 116.19 C28.86 118.91 28.86 121.64 28.87 124.36 C28.87 125.19 28.86 126.02 28.86 126.87 C28.87 130.17 28.95 132.85 30 136 C20.1 136 10.2 136 0 136 C-0.15 119.89 -0.3 103.78 -0.44 87.68 C-0.51 80.2 -0.58 72.72 -0.65 65.24 C-0.71 58.71 -0.77 52.19 -0.83 45.66 C-0.85 42.21 -0.88 38.76 -0.92 35.31 C-0.96 31.45 -0.99 27.59 -1.02 23.72 C-1.03 22.59 -1.05 21.46 -1.06 20.3 C-1.11 13.47 -0.76 6.79 0 0 Z " fill="#A0CAF3" transform="translate(595,137)"/>
<path d="M0 0 C0.33 0 0.66 0 1 0 C1 22.44 1 44.88 1 68 C-16.36 68.62 -33.6 69.14 -50.95 69.1 C-53.09 69.1 -55.22 69.09 -57.36 69.09 C-62.87 69.09 -68.38 69.08 -73.89 69.07 C-79.55 69.06 -85.22 69.05 -90.89 69.05 C-101.92 69.04 -112.96 69.02 -124 69 C-124 68.67 -124 68.34 -124 68 C-122.72 67.83 -121.44 67.66 -120.12 67.48 C-103.89 65.25 -89.6 61.54 -75 54 C-72.33 52.5 -69.72 50.95 -67.13 49.33 C-65.26 48.16 -63.38 47.1 -61.44 46.06 C-53.1 41.31 -45.97 34.52 -39 28 C-38.17 27.23 -37.35 26.46 -36.5 25.66 C-29.52 18.92 -22.41 11.19 -17.69 2.63 C-17.13 2.09 -16.58 1.55 -16 1 C-13.31 0.73 -11.04 0.66 -8.38 0.81 C-5.91 0.91 -3.46 0.97 -1 1 C-0.67 0.67 -0.34 0.34 0 0 Z " fill="#A0CAF2" transform="translate(824,771)"/>
<path d="M0 0 C2.22 -0.09 4.44 -0.11 6.66 -0.1 C7.66 -0.1 7.66 -0.1 8.67 -0.09 C10.8 -0.09 12.93 -0.08 15.06 -0.06 C16.5 -0.06 17.94 -0.05 19.38 -0.05 C22.92 -0.04 26.46 -0.02 30 0 C30 1.71 30 1.71 29.99 3.45 C29.97 14.27 29.96 25.08 29.95 35.89 C29.94 41.44 29.94 47 29.92 52.56 C29.91 57.93 29.91 63.31 29.91 68.68 C29.9 70.72 29.9 72.76 29.89 74.79 C29.86 86.91 30.16 98.91 31 111 C20.11 111 9.22 111 -2 111 C-1.89 96.68 -1.78 82.35 -1.66 68.03 C-1.61 61.37 -1.55 54.72 -1.5 48.07 C-1.46 41.66 -1.4 35.25 -1.35 28.83 C-1.33 26.38 -1.31 23.93 -1.29 21.48 C-1.27 18.06 -1.24 14.63 -1.21 11.21 C-1.2 10.19 -1.19 9.16 -1.19 8.11 C-1.18 7.18 -1.17 6.25 -1.16 5.3 C-1.15 4.49 -1.15 3.68 -1.14 2.84 C-1.09 2.23 -1.05 1.63 -1 1 C-0.67 0.67 -0.34 0.34 0 0 Z " fill="#A0CAF3" transform="translate(876,368)"/>
<path d="M0 0 C3.77 0.14 7.54 0.29 11.31 0.44 C12.92 0.5 12.92 0.5 14.56 0.56 C16.1 0.62 16.1 0.62 17.68 0.68 C18.62 0.72 19.57 0.76 20.55 0.79 C23 1 23 1 26 2 C26 2.64 26.01 3.29 26.01 3.95 C26.09 19.64 26.18 35.34 26.29 51.03 C26.34 58.61 26.38 66.2 26.42 73.79 C26.45 80.4 26.49 87.02 26.54 93.63 C26.57 97.13 26.59 100.63 26.6 104.14 C26.62 108.05 26.65 111.96 26.68 115.87 C26.68 117.03 26.69 118.19 26.69 119.38 C26.7 120.45 26.71 121.52 26.72 122.62 C26.73 123.54 26.73 124.46 26.74 125.42 C27.02 128.25 27.83 130.42 29 133 C28.67 133.33 28.34 133.66 28 134 C25.93 134.09 23.85 134.11 21.78 134.1 C20.52 134.09 19.26 134.09 17.96 134.09 C16.62 134.08 15.28 134.07 13.94 134.06 C12.59 134.06 11.25 134.05 9.9 134.05 C6.6 134.04 3.3 134.02 0 134 C0.5 133.01 0.5 133.01 1 132 C1.82 118.93 1.02 105.59 0.57 92.52 C-0.07 73.77 -0.12 55.04 -0.07 36.29 C-0.06 32.17 -0.05 28.05 -0.05 23.93 C-0.04 15.96 -0.02 7.98 0 0 Z " fill="#A1CBF3" transform="translate(788,139)"/>
<path d="M0 0 C6.93 0 13.86 0 21 0 C21 43.23 21 86.46 21 131 C9.62 130.5 9.62 130.5 -2 130 C-2.09 116.81 -1.96 103.66 -1.57 90.47 C-1.02 71.99 -0.92 53.52 -1.04 35.03 C-1.1 23.3 -0.77 11.7 0 0 Z " fill="#A1CBF3" transform="translate(916,349)"/>
<path d="M0 0 C6.6 0.33 13.2 0.66 20 1 C20.72 19.45 21.09 37.87 21.06 56.34 C21.06 57.3 21.06 58.26 21.06 59.25 C21.05 66.14 21.02 73.04 21 79.94 C20.98 86.92 20.96 93.91 20.94 100.89 C20.94 103.64 20.93 106.39 20.91 109.14 C20.89 117.17 20.96 125.03 22 133 C18.54 133.03 15.08 133.05 11.62 133.06 C10.64 133.07 9.66 133.08 8.64 133.09 C7.7 133.09 6.76 133.09 5.79 133.1 C4.92 133.1 4.05 133.11 3.15 133.11 C2.44 133.08 1.73 133.04 1 133 C0.34 132.67 -0.32 132.34 -1 132 C-1.02 116.71 -1.04 101.42 -1.05 86.13 C-1.06 79.03 -1.06 71.92 -1.08 64.82 C-1.09 58.63 -1.09 52.43 -1.09 46.24 C-1.1 42.96 -1.1 39.69 -1.11 36.41 C-1.11 32.74 -1.11 29.07 -1.11 25.4 C-1.12 24.33 -1.12 23.27 -1.12 22.17 C-1.11 14.73 -0.64 7.41 0 0 Z " fill="#A0CAF2" transform="translate(887,140)"/>
<path d="M0 0 C0.66 0.33 1.32 0.66 2 1 C2.79 3.12 3.48 5.27 4.12 7.44 C4.34 8.14 4.55 8.85 4.77 9.58 C5.26 11.18 5.74 12.78 6.22 14.38 C7.64 19.15 9.1 23.92 10.56 28.69 C10.89 29.76 11.22 30.83 11.56 31.93 C15.17 43.67 18.97 55.35 22.79 67.02 C27 79.93 31.08 92.73 34 106 C26.08 106 18.16 106 10 106 C8.23 101.27 6.56 96.79 5.17 91.98 C4.85 90.89 4.53 89.79 4.2 88.66 C3.86 87.52 3.53 86.37 3.19 85.19 C-0.07 74.08 -3.43 63.01 -7 52 C-7.29 51.11 -7.58 50.22 -7.87 49.3 C-8.78 46.49 -9.7 43.68 -10.62 40.88 C-10.9 40.02 -11.18 39.17 -11.47 38.29 C-12.84 34.13 -14.32 30.01 -15.96 25.95 C-16.4 24.84 -16.4 24.84 -16.85 23.72 C-17.23 23.15 -17.61 22.58 -18 22 C-19.32 21.67 -20.64 21.34 -22 21 C-22 14.4 -22 7.8 -22 1 C-18.38 0.81 -14.75 0.62 -11.12 0.44 C-10.09 0.38 -9.06 0.33 -8 0.27 C-6.52 0.2 -6.52 0.2 -5.01 0.12 C-4.1 0.07 -3.19 0.03 -2.25 -0.02 C-1.51 -0.01 -0.76 -0.01 0 0 Z " fill="#A0CAF3" transform="translate(743,167)"/>
<path d="M0 0 C2.38 0.31 2.38 0.31 5 1 C5.66 1.99 6.32 2.98 7 4 C7.19 6.81 7.27 9.52 7.25 12.32 C7.25 13.18 7.25 14.04 7.25 14.93 C7.26 17.82 7.25 20.71 7.24 23.6 C7.24 25.67 7.25 27.74 7.25 29.81 C7.25 35.45 7.25 41.09 7.24 46.73 C7.23 52.64 7.23 58.56 7.23 64.47 C7.23 74.43 7.22 84.38 7.21 94.34 C7.19 105.79 7.18 117.25 7.19 128.71 C7.19 140.95 7.18 153.19 7.17 165.42 C7.17 168.92 7.17 172.42 7.17 175.92 C7.17 181.47 7.16 187.02 7.15 192.57 C7.15 194.59 7.15 196.6 7.15 198.62 C7.15 209.41 7 220.18 6.62 230.96 C6.59 231.96 6.56 232.96 6.52 233.99 C6.31 239.32 5.73 243.94 4 249 C2 249.04 -0 249.04 -2 249 C-2.33 248.67 -2.66 248.34 -3 248 C-3.1 246.37 -3.13 244.74 -3.13 243.11 C-3.13 242.05 -3.13 240.99 -3.14 239.9 C-3.13 238.73 -3.13 237.56 -3.13 236.35 C-3.13 235.13 -3.13 233.9 -3.13 232.64 C-3.14 229.27 -3.14 225.89 -3.13 222.52 C-3.13 219 -3.13 215.48 -3.14 211.95 C-3.14 206.04 -3.14 200.12 -3.13 194.2 C-3.12 187.35 -3.13 180.51 -3.13 173.66 C-3.14 167.79 -3.14 161.92 -3.13 156.05 C-3.13 152.54 -3.13 149.03 -3.14 145.52 C-3.14 141.6 -3.13 137.69 -3.13 133.78 C-3.13 132.61 -3.13 131.44 -3.14 130.23 C-3.13 129.17 -3.13 128.11 -3.13 127.02 C-3.13 126.09 -3.13 125.17 -3.13 124.21 C-3.08 123.48 -3.04 122.75 -3 122 C-2.5 121.01 -2.5 121.01 -2 120 C-2.31 118.66 -2.65 117.33 -3 116 C-3.09 114.43 -3.13 112.86 -3.14 111.29 C-3.15 110.35 -3.15 109.41 -3.16 108.44 C-3.16 107.41 -3.16 106.39 -3.16 105.33 C-3.17 104.24 -3.17 103.16 -3.18 102.04 C-3.19 98.44 -3.2 94.85 -3.2 91.25 C-3.21 88.75 -3.21 86.26 -3.22 83.76 C-3.23 79.2 -3.24 74.64 -3.24 70.07 C-3.24 63.36 -3.26 56.64 -3.29 49.93 C-3.31 44.11 -3.32 38.29 -3.32 32.47 C-3.33 29.99 -3.33 27.52 -3.35 25.04 C-3.36 21.59 -3.36 18.13 -3.36 14.67 C-3.37 13.65 -3.37 12.62 -3.38 11.56 C-3.38 10.62 -3.37 9.68 -3.37 8.71 C-3.37 7.89 -3.37 7.07 -3.37 6.23 C-3.25 5.49 -3.13 4.76 -3 4 C-1.48 1.71 -1.48 1.71 0 0 Z " fill="#042C7F" transform="translate(563,84)"/>
<path d="M0 0 C5.3 -0.02 10.6 -0.04 15.91 -0.05 C17.71 -0.06 19.51 -0.07 21.31 -0.08 C23.91 -0.09 26.51 -0.09 29.1 -0.1 C29.9 -0.1 30.7 -0.11 31.53 -0.11 C35.78 -0.11 39.85 -0.03 44 1 C45 3 45 3 45.27 5.34 C45.34 6.32 45.41 7.3 45.48 8.3 C45.56 9.41 45.64 10.52 45.72 11.66 C45.81 12.86 45.89 14.07 45.97 15.3 C46.06 16.54 46.15 17.77 46.24 19.03 C46.47 22.31 46.7 25.59 46.92 28.86 C47.15 32.19 47.39 35.51 47.63 38.84 C47.81 41.37 47.98 43.9 48.16 46.43 C48.24 47.63 48.33 48.83 48.42 50.06 C48.49 51.17 48.57 52.29 48.65 53.44 C48.72 54.42 48.78 55.4 48.85 56.41 C48.98 58.6 49 60.8 49 63 C45.27 63.12 41.54 63.19 37.81 63.25 C36.23 63.3 36.23 63.3 34.62 63.35 C31.7 63.39 28.9 63.35 26 63 C24.99 62.44 23.99 61.88 22.95 61.3 C20.55 58.47 18.66 55.68 17.3 52.21 C16.58 50.09 15.89 47.97 15.22 45.84 C14.97 45.05 14.72 44.27 14.46 43.46 C13.65 40.95 12.86 38.45 12.06 35.94 C11.53 34.28 11 32.62 10.47 30.96 C9.69 28.54 8.92 26.12 8.14 23.69 C4.38 11.74 4.38 11.74 0 0 Z " fill="#A0CAF3" transform="translate(814,848)"/>
<path d="M0 0 C5.61 0 11.22 0 17 0 C16.93 5.39 16.84 10.78 16.74 16.17 C16.7 18 16.68 19.83 16.65 21.66 C16.62 24.3 16.57 26.95 16.51 29.59 C16.5 30.8 16.5 30.8 16.49 32.03 C16.37 37.05 15.5 41.23 13.75 45.93 C12.41 49.62 11.58 53.43 10.69 57.25 C10.48 58.13 10.27 59.01 10.06 59.91 C8.18 68 6.45 76.12 4.75 84.25 C4.49 85.47 4.23 86.7 3.97 87.96 C3.73 89.13 3.48 90.31 3.23 91.52 C2.91 93.07 2.91 93.07 2.58 94.65 C1.87 98.74 1.46 102.87 1 107 C-5.93 107 -12.86 107 -20 107 C-19.33 103.14 -18.65 99.28 -17.97 95.42 C-17.63 93.47 -17.29 91.52 -16.95 89.57 C-16.73 88.33 -16.51 87.09 -16.29 85.81 C-16.09 84.67 -15.89 83.54 -15.69 82.36 C-14.97 78.84 -13.99 75.45 -13 72 C-12.65 70.19 -12.34 68.37 -12.07 66.55 C-11.92 65.55 -11.76 64.55 -11.61 63.51 C-11.45 62.46 -11.29 61.4 -11.12 60.31 C-9.8 51.76 -8.33 43.26 -6.58 34.79 C-4.2 23.23 -2.13 11.61 0 0 Z " fill="#A0CAF2" transform="translate(862,166)"/>
<path d="M0 0 C-2.44 9.66 -5.53 19.12 -8.62 28.59 C-9.5 31.32 -10.38 34.06 -11.26 36.79 C-11.83 38.54 -12.4 40.3 -12.97 42.05 C-13.23 42.86 -13.49 43.67 -13.76 44.5 C-15.19 48.87 -16.74 52.97 -19 57 C-21.19 59.25 -21.19 59.25 -24 61 C-28.93 62.73 -33.06 63.09 -38.28 63.05 C-39.35 63.04 -40.42 63.03 -41.53 63.03 C-42.75 63.01 -42.75 63.01 -44 63 C-42.8 41.99 -41.5 20.99 -40 0 C-37.96 -0.17 -35.91 -0.33 -33.87 -0.49 C-32.73 -0.58 -31.59 -0.67 -30.42 -0.77 C-20.23 -1.46 -10.16 -0.78 0 0 Z " fill="#A0CAF3" transform="translate(213,849)"/>
<path d="M0 0 C2.79 -0.22 5.46 -0.32 8.25 -0.31 C9.36 -0.34 9.36 -0.34 10.49 -0.36 C13.49 -0.36 16.18 -0.24 19.06 0.61 C20.96 1.38 20.96 1.38 24 3 C24.43 3.74 24.87 4.49 25.31 5.25 C25.21 6.16 25.11 7.06 25 8 C23.27 10.61 21.28 12.85 19 15 C18.34 15.33 17.68 15.66 17 16 C17.09 17.44 17.2 18.88 17.31 20.31 C17.37 21.11 17.43 21.91 17.49 22.74 C17.74 23.86 17.74 23.86 18 25 C19.35 26.77 19.35 26.77 21 28 C23.55 29 25.68 29.02 28.44 29.12 C31.89 29.12 31.89 29.12 34.75 28.38 C35.49 28.25 36.24 28.13 37 28 C37.99 28.66 38.98 29.32 40 30 C39.81 32.25 39.81 32.25 39 35 C36.69 37.25 36.69 37.25 34 39 C31.35 40.1 29.03 40.06 26.12 40.25 C24.02 40.22 24.02 40.22 22 40 C18.24 38.48 15.15 36.55 12 34 C11.59 34.45 11.17 34.9 10.75 35.37 C8.93 37.07 7.29 38.04 5.06 39.12 C4.39 39.46 3.72 39.79 3.04 40.13 C-0.13 41.48 -2.87 41.99 -6.31 42.25 C-9.43 42.04 -11.1 41.73 -13.88 40.56 C-17 39 -17 39 -18 38 C-18.12 35 -18.12 35 -18 32 C-17.67 31.67 -17.34 31.34 -17 31 C-14.62 31.03 -12.25 31.1 -9.88 31.19 C-6.28 31.26 -2.94 31.3 0.52 30.18 C2.59 29.07 2.59 29.07 5 27 C6.11 25.04 6.11 25.04 6.32 22.84 C6.44 21.62 6.44 21.62 6.56 20.38 C6.65 19.56 6.73 18.74 6.82 17.9 C6.91 16.96 6.91 16.96 7 16 C6.32 15.83 5.64 15.67 4.94 15.5 C2 14 2 14 0.11 12.09 C-1.63 10.08 -3.33 8.06 -5 6 C-4.19 4.12 -4.19 4.12 -3 2 C-2.01 1.34 -1.02 0.68 0 0 Z " fill="#052D7F" transform="translate(360,423)"/>
<path d="M0 0 C1.17 -0.02 1.17 -0.02 2.37 -0.04 C5.55 -0.04 8.34 0.14 11.41 1.01 C12.1 1.4 12.79 1.79 13.5 2.19 C14.16 3.18 14.82 4.17 15.5 5.19 C15.74 7.1 15.74 7.1 15.73 9.29 C15.73 10.11 15.73 10.93 15.73 11.78 C15.72 12.66 15.71 13.54 15.7 14.45 C15.69 15.36 15.69 16.26 15.69 17.19 C15.68 20.09 15.65 22.98 15.62 25.88 C15.61 27.84 15.61 29.8 15.6 31.76 C15.58 36.57 15.54 41.38 15.5 46.19 C13.33 43.34 11.49 40.47 9.69 37.38 C4.08 28.52 -3.24 20.5 -11.35 13.85 C-13.69 12.2 -16.05 10.67 -18.5 9.19 C-19.23 8.71 -19.96 8.23 -20.71 7.74 C-24.2 5.47 -27.55 3.55 -31.5 2.19 C-31.5 1.86 -31.5 1.53 -31.5 1.19 C-21 0.6 -10.51 0.08 0 0 Z " fill="#A1CCF4" transform="translate(771.5,348.8125)"/>
<path d="M0 0 C0.66 0 1.32 0 2 0 C3.83 4.45 5.21 8.72 6.19 13.44 C8.41 23.56 11.88 33.34 15.09 43.19 C17.97 52.06 20.61 60.98 23 70 C20.29 70.03 17.58 70.05 14.88 70.06 C14.11 70.07 13.35 70.08 12.57 70.09 C11.82 70.09 11.08 70.09 10.3 70.1 C9.28 70.11 9.28 70.11 8.24 70.11 C5.47 69.97 2.73 69.46 0 69 C0 46.23 0 23.46 0 0 Z " fill="#A0CAF3" transform="translate(720,203)"/>
<path d="M0 0 C3.19 0.25 3.19 0.25 7 1 C8.71 2.28 10.37 3.62 12 5 C14.54 6.49 16.2 7.3 19 8 C24 8.54 28.98 8.81 34 9 C34.66 10.65 35.32 12.3 36 14 C30.25 18.88 30.25 18.88 28 20 C25.07 20.34 22.9 20.38 20 20 C14.27 18.47 8.66 16.67 3.61 13.51 C0.94 11.34 -0.81 9.31 -2.62 6.38 C-2.75 5.59 -2.87 4.81 -3 4 C-1.62 1.69 -1.62 1.69 0 0 Z " fill="#052D7F" transform="translate(305,395)"/>
<path d="M0 0 C0.72 0.09 1.45 0.19 2.2 0.29 C2.86 0.95 3.52 1.61 4.2 2.29 C4.15 3.22 4.15 3.22 4.11 4.18 C3.81 4.88 3.5 5.57 3.2 6.29 C-0.35 9.56 -4.46 12.28 -8.89 14.18 C-10.88 14.74 -12.75 15.06 -14.8 15.29 C-15.94 15.44 -15.94 15.44 -17.1 15.6 C-19.83 15.81 -22.11 15.75 -24.8 15.29 C-28.99 13.58 -32.9 11.54 -36.8 9.29 C-36.89 6.91 -36.89 6.91 -36.8 4.29 C-36.33 3.63 -35.86 2.97 -35.37 2.29 C-34.52 1.96 -33.68 1.63 -32.8 1.29 C-30.53 1.79 -28.47 2.54 -26.32 3.43 C-23.08 4.53 -20.23 5.06 -16.8 5.29 C-13.19 4.35 -13.19 4.35 -9.68 2.85 C-3.47 0.35 -3.47 0.35 0 0 Z " fill="#062E80" transform="translate(425.8046875,396.71484375)"/>
<path d="M0 0 C0.66 0 1.32 0 2 0 C2.33 24.09 2.66 48.18 3 73 C12.24 73 21.48 73 31 73 C31 70.69 31 68.38 31 66 C31.66 66 32.32 66 33 66 C33.14 67.11 33.29 68.23 33.44 69.38 C33.78 72.82 33.78 72.82 35 75 C34.01 75.5 34.01 75.5 33 76 C21.78 76 10.56 76 -1 76 C-0.5 38.38 -0.5 38.38 0 0 Z " fill="#A5CFF0" transform="translate(679,197)"/>
<path d="M0 0 C0.66 0 1.32 0 2 0 C2.02 4.7 2.04 9.39 2.05 14.09 C2.06 15.68 2.07 17.28 2.08 18.87 C2.09 21.17 2.09 23.48 2.1 25.78 C2.1 26.48 2.11 27.19 2.11 27.91 C2.11 32.69 1.67 37.27 1 42 C-2.96 41.5 -2.96 41.5 -7 41 C-6.86 40.26 -6.72 39.51 -6.57 38.74 C-2.88 19.44 -2.88 19.44 0 0 Z " fill="#ADD6F6" transform="translate(877,231)"/>
<path d="M0 0 C0.66 0 1.32 0 2 0 C2 0.59 1.99 1.19 1.99 1.8 C1.94 8.01 1.91 14.23 1.89 20.44 C1.88 22.76 1.87 25.07 1.85 27.39 C1.82 30.72 1.81 34.06 1.8 37.4 C1.79 38.43 1.78 39.45 1.77 40.51 C1.77 46.67 2.56 52.02 4 58 C3.5 58.5 3.5 58.5 3 59 C2.84 61.37 2.74 63.72 2.68 66.1 C2.66 66.81 2.64 67.52 2.62 68.25 C2.56 70.52 2.5 72.79 2.44 75.06 C2.39 76.6 2.35 78.14 2.31 79.67 C2.2 83.45 2.1 87.22 2 91 C1.34 91 0.68 91 0 91 C0 60.97 0 30.94 0 0 Z " fill="#AFD9F8" transform="translate(946,128)"/>
<path d="M0 0 C0.33 0 0.66 0 1 0 C1 8.91 1 17.82 1 27 C-2.96 27 -6.92 27 -11 27 C-9.33 21.59 -7.02 16.65 -4.57 11.57 C-2.76 7.77 -1.24 4.03 0 0 Z " fill="#ABD4F5" transform="translate(824,737)"/>
<path d="M0 0 C1.75 0.62 1.75 0.62 4 2 C6.25 4.94 6.25 4.94 8 8 C8 8.99 8 9.98 8 11 C-0.41 11.5 -0.41 11.5 -9 12 C-7 8 -7 8 -5 5 C-4.34 5 -3.68 5 -3 5 C-2.69 4.36 -2.38 3.72 -2.06 3.06 C-1 1 -1 1 0 0 Z " fill="#A8D1F4" transform="translate(745,624)"/>
<path d="M0 0 C1.42 0.28 2.83 0.58 4.25 0.88 C5.43 1.12 5.43 1.12 6.64 1.37 C8.97 1.99 10.89 2.85 13 4 C9.68 5.11 7.22 5.13 3.73 5.13 C1.78 5.13 1.78 5.13 -0.2 5.14 C-1.61 5.14 -3.03 5.14 -4.45 5.13 C-5.91 5.13 -7.36 5.13 -8.82 5.14 C-11.87 5.14 -14.93 5.14 -17.99 5.13 C-21.88 5.12 -25.78 5.13 -29.68 5.13 C-32.69 5.14 -35.7 5.14 -38.71 5.13 C-40.15 5.13 -41.59 5.13 -43.02 5.14 C-50.1 5.15 -57.01 5.13 -64 4 C-64 3.67 -64 3.34 -64 3 C-43.21 2.67 -22.42 2.34 -1 2 C-0.67 1.34 -0.34 0.68 0 0 Z " fill="#C7EBFC" transform="translate(646,835)"/>
<path d="M0 0 C0.66 0 1.32 0 2 0 C4.39 9.81 4.39 9.81 4 14 C3.67 14.33 3.34 14.66 3 15 C2.91 16.63 2.88 18.26 2.89 19.89 C2.89 20.93 2.89 21.97 2.89 23.04 C2.89 24.17 2.9 25.31 2.9 26.47 C2.9 27.63 2.91 28.78 2.91 29.97 C2.91 33.66 2.92 37.36 2.94 41.06 C2.94 43.56 2.95 46.06 2.95 48.56 C2.96 54.71 2.98 60.85 3 67 C6.96 67.33 10.92 67.66 15 68 C15 68.33 15 68.66 15 69 C10.05 69 5.1 69 0 69 C0 46.23 0 23.46 0 0 Z " fill="#CBEFFE" transform="translate(720,203)"/>
<path d="M0 0 C0.66 0.33 1.32 0.66 2 1 C2.01 1.68 2.02 2.36 2.03 3.07 C2.14 10.16 2.25 17.25 2.37 24.33 C2.42 26.98 2.46 29.63 2.5 32.28 C2.55 36.08 2.62 39.88 2.68 43.68 C2.7 44.86 2.72 46.05 2.73 47.27 C2.75 48.38 2.77 49.48 2.79 50.61 C2.82 52.07 2.82 52.07 2.84 53.55 C2.9 56.14 2.9 56.14 4 59 C-5.57 59 -15.14 59 -25 59 C-24.67 58.34 -24.34 57.68 -24 57 C-16.08 57 -8.16 57 0 57 C0 38.19 0 19.38 0 0 Z " fill="#C3E9FC" transform="translate(865,420)"/>
<path d="M0 0 C0.58 1.6 0.58 1.6 1 4 C0.52 6.98 0.52 6.98 -0.33 10.47 C-0.64 11.77 -0.94 13.06 -1.25 14.36 C-1.5 15.38 -1.5 15.38 -1.75 16.41 C-4.83 29.2 -7.37 41.93 -9 55 C-15.44 55.06 -21.61 54.82 -28 54 C-28 53.34 -28 52.68 -28 52 C-22.72 52 -17.44 52 -12 52 C-11.72 50.59 -11.44 49.18 -11.15 47.73 C-7.91 31.69 -4.08 15.85 0 0 Z " fill="#BBE2FA" transform="translate(872,218)"/>
<path d="M0 0 C17.03 -0.14 33.99 0.26 51 1 C51 1.33 51 1.66 51 2 C34.83 2.33 18.66 2.66 2 3 C2 4.65 2 6.3 2 8 C3.32 8.66 4.64 9.32 6 10 C4.02 10 2.04 10 0 10 C0 6.7 0 3.4 0 0 Z " fill="#B4DBF4" transform="translate(797,487)"/>
<path d="M0 0 C1.35 0.01 2.7 0.01 4.05 0.01 C7.33 0.03 10.6 0.04 13.88 0.06 C13.88 0.39 13.88 0.72 13.88 1.06 C6.03 2.08 -1.78 2.38 -9.69 2.62 C-10.98 2.67 -12.28 2.71 -13.61 2.76 C-16.78 2.86 -19.95 2.96 -23.12 3.06 C-23.12 6.03 -23.12 9 -23.12 12.06 C-20.81 12.39 -18.5 12.72 -16.12 13.06 C-16.12 13.39 -16.12 13.72 -16.12 14.06 C-19.43 14.06 -22.73 14.06 -26.12 14.06 C-25.8 9.77 -25.46 5.48 -25.12 1.06 C-16.72 0.03 -8.46 -0.05 0 0 Z " fill="#B0D8F3" transform="translate(486.125,422.9375)"/>
<path d="M0 0 C2.38 0.31 2.38 0.31 5 1 C5.66 1.99 6.32 2.98 7 4 C7.24 5.92 7.24 5.92 7.23 8.1 C7.23 8.92 7.23 9.75 7.23 10.59 C7.22 11.47 7.21 12.35 7.2 13.26 C7.19 14.17 7.19 15.07 7.19 16.01 C7.18 18.9 7.15 21.79 7.12 24.69 C7.11 26.65 7.11 28.61 7.1 30.57 C7.08 35.38 7.04 40.19 7 45 C5.26 42.7 3.6 40.4 2 38 C2.33 37.01 2.66 36.02 3 35 C3.33 35 3.66 35 4 35 C4.75 28.06 5.19 21.1 5.38 14.12 C5.41 13.41 5.45 12.7 5.49 11.97 C5.58 9.57 5.58 9.57 5 6 C3.54 3.64 1.98 1.99 0 0 Z " fill="#ADD6F3" transform="translate(780,350)"/>
<path d="M0 0 C1.32 0.33 2.64 0.66 4 1 C0.7 2.32 -2.6 3.64 -6 5 C-6 5.99 -6 6.98 -6 8 C-12.17 9.1 -18.18 9.12 -24.44 9.06 C-25.46 9.06 -26.47 9.05 -27.52 9.05 C-30.01 9.04 -32.51 9.02 -35 9 C-35 8.67 -35 8.34 -35 8 C-33.72 7.83 -32.44 7.66 -31.12 7.48 C-20.83 6.06 -10.84 4.47 -1 1 C-0.67 0.67 -0.34 0.34 0 0 Z " fill="#B0D7F1" transform="translate(735,831)"/>
<path d="M0 0 C0.66 0.33 1.32 0.66 2 1 C2.14 5.62 2.29 10.24 2.43 14.87 C2.48 16.43 2.52 18 2.57 19.57 C2.86 28.72 3.08 37.85 3 47 C1.57 44.19 0.38 41.43 -0.62 38.44 C-0.89 37.67 -1.15 36.91 -1.41 36.12 C-2 34 -2 34 -2 31 C-1.34 30.67 -0.68 30.34 0 30 C0 20.1 0 10.2 0 0 Z " fill="#C5EAFC" transform="translate(778,203)"/>
<path d="M0 0 C2.31 0.33 4.62 0.66 7 1 C6.36 1.23 5.71 1.46 5.05 1.7 C4.03 2.34 4.03 2.34 3 3 C2.28 5.16 2.28 5.16 2.25 7.81 C2.19 8.87 2.13 9.92 2.07 11.01 C2.02 14.14 2 17.26 2.02 20.39 C2.03 21.34 2.03 22.28 2.04 23.25 C2.05 25.16 2.08 27.06 2.12 28.96 C2.14 29.84 2.15 30.73 2.16 31.63 C2.19 32.82 2.19 32.82 2.21 34.04 C2.14 34.68 2.07 35.33 2 36 C1.34 36.66 0.68 37.32 0 38 C0 25.46 0 12.92 0 0 Z " fill="#B2DCF9" transform="translate(679,140)"/>
<path d="M0 0 C0.5 0.71 0.5 0.71 1 1.44 C1.66 1.95 2.32 2.47 3 3 C5.68 3.57 8.26 3.78 11 4 C11 4.33 11 4.66 11 5 C0.92 5.1 -9.12 5.04 -19.19 4.56 C-20.48 4.5 -20.48 4.5 -21.79 4.44 C-26.9 4.18 -31.93 3.7 -37 3 C-37 2.67 -37 2.34 -37 2 C-35.95 2.01 -34.9 2.02 -33.82 2.03 C-29.93 2.07 -26.04 2.09 -22.16 2.11 C-20.47 2.12 -18.79 2.13 -17.1 2.15 C-14.69 2.18 -12.27 2.19 -9.85 2.2 C-8.72 2.21 -8.72 2.21 -7.56 2.23 C-5.71 2.23 -3.85 2.12 -2 2 C-1.34 1.34 -0.68 0.68 0 0 Z " fill="#BBE2F9" transform="translate(861,496)"/>
<path d="M0 0 C1.01 1.74 1.01 1.74 2 4 C2.06 6.02 2.06 6.02 1.79 8.18 C1.66 9.4 1.66 9.4 1.52 10.65 C1.35 11.97 1.35 11.97 1.19 13.31 C-0.09 24.86 -0.61 36.39 -1 48 C-2.04 46.7 -3.03 45.36 -4 44 C-4.69 41.25 -4.69 41.25 -5 39 C-4.34 39 -3.68 39 -3 39 C-2.98 38.42 -2.96 37.85 -2.94 37.25 C-2.49 24.74 -1.69 12.4 0 0 Z " fill="#BBE3FB" transform="translate(825,571)"/>
<path d="M0 0 C0.33 0 0.66 0 1 0 C2.11 9.82 2.32 19.63 2.56 29.5 C2.61 31.16 2.65 32.82 2.69 34.48 C3 46.23 3 46.23 3 50 C2.01 50.5 2.01 50.5 1 51 C0.1 44.89 -0.13 38.98 -0.1 32.81 C-0.1 31.87 -0.09 30.93 -0.09 29.95 C-0.09 26.97 -0.08 23.98 -0.06 21 C-0.06 18.96 -0.05 16.93 -0.05 14.89 C-0.04 9.93 -0.02 4.96 0 0 Z " fill="#BDE3F9" transform="translate(199,576)"/>
<path d="M0 0 C0.96 0 1.92 0.01 2.91 0.01 C5.25 0.03 7.6 0.04 9.94 0.06 C9.61 0.72 9.28 1.38 8.94 2.06 C5.8 2.33 2.71 2.43 -0.43 2.45 C-2.71 2.5 -2.71 2.5 -6.06 3.06 C-8.53 4.94 -8.53 4.94 -10.06 7.06 C-10.72 6.4 -11.38 5.74 -12.06 5.06 C-12.06 4.4 -12.06 3.74 -12.06 3.06 C-14.7 2.73 -17.34 2.4 -20.06 2.06 C-20.06 1.73 -20.06 1.4 -20.06 1.06 C-13.33 0.19 -6.78 -0.06 0 0 Z " fill="#ABD4F5" transform="translate(494.0625,772.9375)"/>
<path d="M0 0 C0.33 0 0.66 0 1 0 C1.33 5.61 1.66 11.22 2 17 C3.88 16.83 5.75 16.67 7.69 16.5 C14.47 15.97 21.2 15.9 28 16 C28 16.33 28 16.66 28 17 C23.73 17.53 19.46 18.05 15.19 18.56 C13.97 18.71 12.76 18.87 11.51 19.02 C10.34 19.16 9.18 19.3 7.98 19.44 C6.37 19.64 6.37 19.64 4.73 19.84 C3.83 19.89 2.93 19.94 2 20 C1.01 19.67 0.02 19.34 -1 19 C-0.67 12.73 -0.34 6.46 0 0 Z " fill="#BCE3F9" transform="translate(451,321)"/>
<path d="M0 0 C5.61 0 11.22 0 17 0 C17.19 4.79 17.37 9.57 17.54 14.36 C17.6 15.99 17.66 17.62 17.72 19.25 C17.82 21.59 17.9 23.93 17.98 26.27 C18.01 27 18.04 27.73 18.07 28.48 C18.13 30.32 18.07 32.16 18 34 C17.34 34.99 16.68 35.98 16 37 C15.97 35.98 15.95 34.95 15.92 33.89 C15.83 30.11 15.73 26.32 15.63 22.53 C15.58 20.89 15.54 19.24 15.5 17.6 C15.45 15.25 15.38 12.89 15.32 10.54 C15.3 9.8 15.28 9.06 15.27 8.3 C15.21 6.53 15.11 4.76 15 3 C14.67 2.67 14.34 2.34 14 2 C11.65 1.76 9.29 1.59 6.94 1.44 C5.65 1.35 4.36 1.27 3.03 1.18 C1.53 1.09 1.53 1.09 0 1 C0 0.67 0 0.34 0 0 Z " fill="#CAEEFE" transform="translate(890,141)"/>
<path d="M0 0 C2.19 -0.25 2.19 -0.25 5 0 C7.81 2 7.81 2 10 4 C10.76 3.48 11.53 2.97 12.31 2.44 C13.2 1.96 14.09 1.49 15 1 C15.99 1.33 16.98 1.66 18 2 C16.27 3.13 14.54 4.25 12.81 5.38 C11.85 6 10.89 6.63 9.89 7.27 C7.3 8.82 4.83 9.98 2 11 C2.33 10.34 2.66 9.68 3 9 C3.66 9 4.32 9 5 9 C4.67 8.4 4.34 7.8 4 7.19 C3.67 6.47 3.34 5.74 3 5 C3 4.01 3 3.02 3 2 C2.01 1.34 1.02 0.68 0 0 Z " fill="#ADD6F6" transform="translate(266,602)"/>
<path d="M0 0 C0.66 0.33 1.32 0.66 2 1 C2.59 3.65 2.74 6.29 3 9 C2.34 8.34 1.68 7.68 1 7 C0.67 5.68 0.34 4.36 0 3 C-6.6 3 -13.2 3 -20 3 C-20 8.28 -20 13.56 -20 19 C-20.66 19.33 -21.32 19.66 -22 20 C-22 13.73 -22 7.46 -22 1 C-18.38 0.81 -14.75 0.62 -11.12 0.44 C-10.09 0.38 -9.06 0.33 -8 0.27 C-6.52 0.2 -6.52 0.2 -5.01 0.12 C-4.1 0.07 -3.19 0.03 -2.25 -0.02 C-1.51 -0.01 -0.76 -0.01 0 0 Z " fill="#C6EBFD" transform="translate(743,167)"/>
<path d="M0 0 C0.33 0 0.66 0 1 0 C1.33 7.26 1.66 14.52 2 22 C9.92 22.33 17.84 22.66 26 23 C26 23.33 26 23.66 26 24 C17.09 24 8.18 24 -1 24 C-0.67 16.08 -0.34 8.16 0 0 Z " fill="#C4EAFD" transform="translate(595,104)"/>
<path d="M0 0 C0.93 0 1.85 0.01 2.81 0.01 C5.08 0.03 7.35 0.04 9.62 0.06 C7.62 2.06 7.62 2.06 5.79 2.95 C4.75 3.35 4.75 3.35 3.69 3.75 C2.65 4.16 2.65 4.16 1.6 4.57 C0.95 4.74 0.3 4.9 -0.38 5.06 C-1.37 4.73 -2.36 4.4 -3.38 4.06 C-2.72 3.4 -2.05 2.74 -1.38 2.06 C-6.33 2.06 -11.27 2.06 -16.38 2.06 C-16.38 1.73 -16.38 1.4 -16.38 1.06 C-10.89 -0.09 -5.57 -0.05 0 0 Z " fill="#C9EEFE" transform="translate(695.375,772.9375)"/>
<path d="M0 0 C0.33 0 0.66 0 1 0 C1.33 13.2 1.66 26.4 2 40 C3.32 40.66 4.64 41.32 6 42 C3.69 42 1.38 42 -1 42 C-0.67 28.14 -0.34 14.28 0 0 Z " fill="#C8EDFD" transform="translate(632,230)"/>
<path d="M0 0 C7.26 0 14.52 0 22 0 C22 0.33 22 0.66 22 1 C12.59 1.5 12.59 1.5 3 2 C2.4 6.17 1.84 10.26 1.44 14.44 C1.35 15.3 1.27 16.17 1.18 17.06 C1.12 17.7 1.06 18.34 1 19 C0.67 19 0.34 19 0 19 C0 12.73 0 6.46 0 0 Z " fill="#C3E9FB" transform="translate(173,849)"/>
<path d="M0 0 C4.95 0 9.9 0 15 0 C13.05 7.51 10.76 14.75 8 22 C7.35 20.45 7.35 20.45 7 18 C7.72 15.54 8.5 13.25 9.44 10.88 C10.31 8.59 11.17 6.3 12 4 C12 3.34 12 2.68 12 2 C8.04 1.67 4.08 1.34 0 1 C0 0.67 0 0.34 0 0 Z " fill="#C0E6FA" transform="translate(198,849)"/>
<path d="M0 0 C0.71 0.3 1.42 0.6 2.14 0.91 C5.88 2.34 9.34 2.45 13.31 2.62 C14.42 2.68 14.42 2.68 15.56 2.74 C17.37 2.84 19.19 2.92 21 3 C21 3.33 21 3.66 21 4 C11.43 4 1.86 4 -8 4 C-5.25 2.17 -3.16 0.9 0 0 Z " fill="#B3DDF9" transform="translate(442,908)"/>
<path d="M0 0 C4.85 0.59 8.61 1.98 13 4 C13 4.33 13 4.66 13 5 C4.59 5.5 4.59 5.5 -4 6 C-4.33 5.34 -4.66 4.68 -5 4 C-3.02 3.67 -1.04 3.34 1 3 C0.67 2.01 0.34 1.02 0 0 Z " fill="#A9D1F0" transform="translate(584,605)"/>
<path d="M0 0 C0.66 1.32 1.32 2.64 2 4 C-1.12 4.06 -4.25 4.09 -7.38 4.12 C-8.26 4.14 -9.15 4.16 -10.07 4.18 C-10.92 4.18 -11.77 4.19 -12.65 4.2 C-13.83 4.21 -13.83 4.21 -15.03 4.23 C-16 4.11 -16 4.11 -17 4 C-17.66 3.34 -18.32 2.68 -19 2 C-17.71 1.94 -16.42 1.88 -15.1 1.82 C-13.42 1.73 -11.74 1.65 -10.06 1.56 C-8.79 1.5 -8.79 1.5 -7.49 1.44 C-6.68 1.4 -5.87 1.36 -5.04 1.32 C-3.91 1.26 -3.91 1.26 -2.77 1.21 C-2.18 1.14 -1.6 1.07 -1 1 C-0.67 0.67 -0.34 0.34 0 0 Z " fill="#A8D1F0" transform="translate(775,269)"/>
<path d="M0 0 C0.33 0 0.66 0 1 0 C1.8 6.7 2.13 13.26 2 20 C0.06 17.81 0.06 17.81 -2 15 C-2.75 12.19 -2.75 12.19 -3 10 C-2.34 10 -1.68 10 -1 10 C-0.67 6.7 -0.34 3.4 0 0 Z " fill="#C6EBFD" transform="translate(186,720)"/>
<path d="M0 0 C0.33 0 0.66 0 1 0 C1.03 0.7 1.05 1.4 1.08 2.12 C1.19 5.31 1.31 8.5 1.44 11.69 C1.48 12.79 1.52 13.89 1.56 15.03 C1.6 16.1 1.64 17.16 1.68 18.26 C1.72 19.24 1.76 20.22 1.79 21.23 C1.93 24 1.93 24 2.58 26.65 C2.72 27.43 2.86 28.2 3 29 C2.06 32.31 2.06 32.31 1 35 C0.67 35 0.34 35 0 35 C0 23.45 0 11.9 0 0 Z " fill="#B7DDF5" transform="translate(559,176)"/>
<path d="M0 0 C7.26 0 14.52 0 22 0 C22 0.33 22 0.66 22 1 C15.57 1.5 15.57 1.5 9 2 C10.32 3.65 11.64 5.3 13 7 C8.5 5.31 4.27 3.18 0 1 C0 0.67 0 0.34 0 0 Z " fill="#C4E9FB" transform="translate(740,350)"/>
<path d="M0 0 C6.93 0 13.86 0 21 0 C21 1.65 21 3.3 21 5 C20.34 4.34 19.68 3.68 19 3 C18.17 3.17 17.35 3.33 16.5 3.5 C15.67 3.67 14.85 3.83 14 4 C13.34 3.34 12.68 2.68 12 2 C9.63 1.72 9.63 1.72 7 1.81 C6.11 1.82 5.23 1.83 4.31 1.83 C3.55 1.89 2.79 1.94 2 2 C1.01 2.5 1.01 2.5 0 3 C0 2.01 0 1.02 0 0 Z " fill="#B3DBF6" transform="translate(916,349)"/>
<path d="M0 0 C0.33 0 0.66 0 1 0 C1 6.93 1 13.86 1 21 C-4.94 20.67 -10.88 20.34 -17 20 C-17 19.67 -17 19.34 -17 19 C-11.72 18.67 -6.44 18.34 -1 18 C-0.67 12.06 -0.34 6.12 0 0 Z " fill="#C6EBFC" transform="translate(159,890)"/>
<path d="M0 0 C0.33 0 0.66 0 1 0 C1.33 3.63 1.66 7.26 2 11 C-6.4 11.12 -14.64 10.84 -23 10 C-23 9.67 -23 9.34 -23 9 C-15.41 8.67 -7.82 8.34 0 8 C0 5.36 0 2.72 0 0 Z " fill="#C2E8FC" transform="translate(935,329)"/>
<path d="M0 0 C0.66 0.33 1.32 0.66 2 1 C-0.6 3.46 -3.21 5.92 -5.81 8.38 C-6.55 9.07 -7.29 9.77 -8.05 10.49 C-8.76 11.16 -9.47 11.83 -10.21 12.52 C-11.19 13.45 -11.19 13.45 -12.19 14.4 C-14 16 -14 16 -17 18 C-16.2 15.93 -15.22 14.25 -13.76 12.58 C-12.22 10.98 -10.65 9.42 -9.06 7.88 C-8.52 7.34 -7.99 6.8 -7.43 6.25 C-5.05 3.89 -2.79 1.86 0 0 Z " fill="#B7DFFA" transform="translate(277,619)"/>
<path d="M0 0 C2.29 0.45 4.06 1.03 6.11 2.16 C11.34 5.63 15.75 9.39 20 14 C19.67 14.99 19.34 15.98 19 17 C18.6 16.49 18.2 15.98 17.79 15.46 C13.95 10.82 10.08 7.38 5.02 4.13 C2.91 2.86 2.91 2.86 0 2 C0 1.34 0 0.68 0 0 Z " fill="#B2D9F5" transform="translate(156,521)"/>
<path d="M0 0 C0.66 0.33 1.32 0.66 2 1 C4.03 1.15 6.07 1.25 8.1 1.32 C9.31 1.36 10.52 1.4 11.77 1.44 C13.04 1.48 14.32 1.52 15.62 1.56 C16.9 1.61 18.18 1.65 19.5 1.69 C22.67 1.8 25.83 1.9 29 2 C29 2.33 29 2.66 29 3 C18.27 4.42 7.76 3.69 -3 3 C-2.01 2.01 -1.02 1.02 0 0 Z " fill="#CCEFFE" transform="translate(478,632)"/>
<path d="M0 0 C0.33 0 0.66 0 1 0 C1 6.27 1 12.54 1 19 C2.32 19.66 3.64 20.32 5 21 C1.04 20.67 -2.92 20.34 -7 20 C-7 19.67 -7 19.34 -7 19 C-5.02 18.67 -3.04 18.34 -1 18 C-0.5 9.09 -0.5 9.09 0 0 Z " fill="#AED7F3" transform="translate(669,252)"/>
<path d="M0 0 C6.6 0 13.2 0 20 0 C19.34 0.66 18.68 1.32 18 2 C15.65 2.45 15.65 2.45 12.94 2.69 C12.04 2.77 11.14 2.86 10.21 2.95 C9.12 2.97 9.12 2.97 8 3 C7.67 2.67 7.34 2.34 7 2 C4.67 1.63 2.34 1.3 0 1 C0 0.67 0 0.34 0 0 Z " fill="#C5EAFC" transform="translate(856,511)"/>
<path d="M0 0 C2.48 0.5 2.48 0.5 5 1 C3.51 1.99 3.51 1.99 2 3 C1.49 5.71 1.49 5.71 1.49 8.88 C1.45 10.05 1.42 11.22 1.38 12.42 C1.36 13.64 1.34 14.86 1.31 16.12 C1.28 17.36 1.24 18.59 1.21 19.86 C1.13 22.9 1.06 25.95 1 29 C0.67 29 0.34 29 0 29 C0 19.43 0 9.86 0 0 Z " fill="#CAEEFD" transform="translate(796,367)"/>
<path d="M0 0 C1.81 -0.03 3.62 -0.05 5.44 -0.06 C6.45 -0.07 7.46 -0.09 8.5 -0.1 C9.74 -0.05 9.74 -0.05 11 0 C11.33 0.33 11.66 0.66 12 1 C12.07 3.35 12.08 5.71 12.06 8.06 C12.05 9.35 12.04 10.64 12.04 11.97 C12.02 12.97 12.01 13.97 12 15 C11.34 14.67 10.68 14.34 10 14 C10.01 13.22 10.02 12.44 10.04 11.63 C10.04 10.62 10.05 9.61 10.06 8.56 C10.07 7.55 10.09 6.54 10.1 5.5 C10.05 4.26 10.05 4.26 10 3 C9.67 2.67 9.34 2.34 9 2 C7.49 1.77 5.96 1.59 4.44 1.44 C3.61 1.35 2.78 1.27 1.93 1.18 C1.3 1.12 0.66 1.06 0 1 C0 0.67 0 0.34 0 0 Z " fill="#B6DFFA" transform="translate(894,369)"/>
<path d="M0 0 C2.36 0.34 2.36 0.34 4.75 0.94 C5.55 1.13 6.35 1.33 7.17 1.53 C7.78 1.68 8.38 1.84 9 2 C9 2.33 9 2.66 9 3 C0.42 3 -8.16 3 -17 3 C-17 2.67 -17 2.34 -17 2 C-16.11 1.94 -15.22 1.88 -14.3 1.82 C-12.54 1.69 -12.54 1.69 -10.75 1.56 C-9.59 1.48 -8.43 1.4 -7.23 1.32 C-4.16 1.11 -4.16 1.11 -1.88 0.41 C-1.26 0.27 -0.64 0.14 0 0 Z " fill="#BAE1FB" transform="translate(639,86)"/>
<path d="M0 0 C2.76 0.02 5.39 0.14 8.12 0.38 C8.88 0.43 9.63 0.49 10.41 0.55 C12.27 0.69 14.14 0.84 16 1 C15.67 1.66 15.34 2.32 15 3 C13.57 2.93 13.57 2.93 12.11 2.86 C10.23 2.81 10.23 2.81 8.31 2.75 C7.07 2.7 5.83 2.66 4.55 2.61 C3.38 2.74 2.21 2.87 1 3 C-1.92 4.87 -1.92 4.87 -4 7 C-3.38 5.32 -2.71 3.65 -2 2 C-1.34 1.34 -0.68 0.68 0 0 Z " fill="#BAE1FA" transform="translate(808,772)"/>
<path d="M0 0 C0.66 0 1.32 0 2 0 C4.3 9.41 4.3 9.41 4 14 C3.01 14.33 2.02 14.66 1 15 C0.67 10.05 0.34 5.1 0 0 Z " fill="#BEE4FA" transform="translate(720,203)"/>
<path d="M0 0 C0.66 0 1.32 0 2 0 C1.33 3.01 0.36 5.73 -0.88 8.56 C-1.2 9.33 -1.53 10.09 -1.87 10.88 C-3 13 -3 13 -4.63 14.78 C-5.31 15.38 -5.31 15.38 -6 16 C-4.25 10.53 -2.34 5.24 0 0 Z " fill="#A9D2F0" transform="translate(790,511)"/>
<path d="M0 0 C0.33 0.47 0.66 0.95 1 1.44 C1.66 1.95 2.32 2.47 3 3 C5.68 3.57 8.26 3.78 11 4 C11 4.33 11 4.66 11 5 C5.06 5 -0.88 5 -7 5 C-5.68 4.34 -4.36 3.68 -3 3 C-1.29 1.46 -1.29 1.46 0 0 Z " fill="#B2DAF8" transform="translate(861,496)"/>
<path d="M0 0 C0.66 0.33 1.32 0.66 2 1 C2.33 2.65 2.66 4.3 3 6 C-2.61 6 -8.22 6 -14 6 C-14 5.67 -14 5.34 -14 5 C-7.07 4.01 -7.07 4.01 0 3 C0 2.01 0 1.02 0 0 Z " fill="#96C0E5" transform="translate(740,267)"/>
<path d="M0 0 C3.3 0 6.6 0 10 0 C9.55 1.63 9.09 3.25 8.62 4.88 C8.37 5.78 8.11 6.68 7.85 7.62 C7.57 8.4 7.29 9.19 7 10 C6.34 10.66 5.68 11.32 5 12 C5.33 9.03 5.66 6.06 6 3 C4.02 2.34 2.04 1.68 0 1 C0 0.67 0 0.34 0 0 Z " fill="#ABD4F2" transform="translate(240,507)"/>
<path d="M0 0 C0.99 0.33 1.98 0.66 3 1 C2.67 1.33 2.34 1.66 2 2 C1.93 3.52 1.92 5.04 1.94 6.56 C1.95 7.39 1.96 8.22 1.96 9.07 C1.98 9.7 1.99 10.34 2 11 C4.31 11.33 6.62 11.66 9 12 C9 12.33 9 12.66 9 13 C5.7 13 2.4 13 -1 13 C-0.67 8.71 -0.34 4.42 0 0 Z " fill="#C1E6FA" transform="translate(461,424)"/>
<path d="M0 0 C0.99 0.33 1.98 0.66 3 1 C4.64 3.87 4.64 3.87 6.25 7.44 C7.06 9.2 7.06 9.2 7.89 11 C8.26 11.99 8.62 12.98 9 14 C8.67 14.66 8.34 15.32 8 16 C7.53 15.07 7.06 14.15 6.57 13.19 C5.95 11.98 5.32 10.77 4.69 9.56 C4.38 8.95 4.07 8.34 3.75 7.71 C2.91 6.1 1.96 4.55 1 3 C0.01 2.67 -0.98 2.34 -2 2 C-1.34 1.34 -0.68 0.68 0 0 Z " fill="#B7DEF7" transform="translate(247,461)"/>
<path d="M0 0 C0.99 0.33 1.98 0.66 3 1 C1.21 2.48 -0.58 3.96 -2.38 5.44 C-3.87 6.67 -3.87 6.67 -5.4 7.93 C-8 10 -8 10 -10 11 C-9.25 9.24 -9.25 9.24 -8 7 C-6.16 5.04 -6.16 5.04 -4.06 3.19 C-3.03 2.25 -3.03 2.25 -1.97 1.29 C-1.32 0.87 -0.67 0.44 0 0 Z " fill="#B5DDF8" transform="translate(859,527)"/>
<path d="M0 0 C3.3 0 6.6 0 10 0 C8.51 1.49 8.51 1.49 7 3 C8.32 4.32 9.64 5.64 11 7 C6.89 5.55 3.53 3.55 0 1 C0 0.67 0 0.34 0 0 Z " fill="#B5DCF6" transform="translate(163,512)"/>
<path d="M0 0 C0.33 0 0.66 0 1 0 C1.33 4.62 1.66 9.24 2 14 C0.28 11.71 -1.41 9.39 -3 7 C-2.17 4.5 -1.21 2.33 0 0 Z " fill="#BDE4FA" transform="translate(785,381)"/>
<path d="M0 0 C0.66 0 1.32 0 2 0 C2.14 1.11 2.29 2.23 2.44 3.38 C2.78 6.82 2.78 6.82 4 9 C-0.62 9 -5.24 9 -10 9 C-10 8.67 -10 8.34 -10 8 C-6.7 7.67 -3.4 7.34 0 7 C0 4.69 0 2.38 0 0 Z " fill="#BCE5FC" transform="translate(710,263)"/>
<path d="M0 0 C0.99 0.33 1.98 0.66 3 1 C-6.36 6.43 -6.36 6.43 -10 8 C-10.99 7.67 -11.98 7.34 -13 7 C-10.9 5.8 -8.8 4.61 -6.69 3.44 C-5.8 2.92 -5.8 2.92 -4.88 2.4 C-3.3 1.52 -1.65 0.75 0 0 Z " fill="#B8DFF8" transform="translate(758,820)"/>
<path d="M0 0 C1.76 0.01 1.76 0.01 3.55 0.03 C4.44 0.04 5.33 0.05 6.25 0.06 C6.25 0.39 6.25 0.72 6.25 1.06 C4.48 1.4 2.71 1.73 0.94 2.06 C-0.05 2.25 -1.03 2.43 -2.05 2.62 C-4.75 3.06 -4.75 3.06 -7.75 3.06 C-8.74 2.4 -9.73 1.74 -10.75 1.06 C-7.14 -0.07 -3.77 -0.04 0 0 Z " fill="#B8E0FA" transform="translate(561.75,772.9375)"/>
<path d="M0 0 C-0.33 3.3 -0.66 6.6 -1 10 C-3.97 10 -6.94 10 -10 10 C-10 9.67 -10 9.34 -10 9 C-6.54 8.5 -6.54 8.5 -3 8 C-2.83 5.58 -2.83 5.58 -3 3 C-3.66 2.34 -4.32 1.68 -5 1 C-2 0 -2 0 0 0 Z " fill="#BFE5FB" transform="translate(450,425)"/>
<path d="M0 0 C0.66 0 1.32 0 2 0 C2 3.63 2 7.26 2 11 C1.01 11.33 0.02 11.66 -1 12 C-0.67 8.04 -0.34 4.08 0 0 Z " fill="#9CC5E9" transform="translate(877,231)"/>
<path d="M0 0 C2.31 0.66 4.62 1.32 7 2 C7 2.33 7 2.66 7 3 C0.07 3 -6.86 3 -14 3 C-14 2.67 -14 2.34 -14 2 C-13.07 1.94 -12.15 1.88 -11.19 1.82 C-9.4 1.69 -9.4 1.69 -7.56 1.56 C-5.77 1.44 -5.77 1.44 -3.94 1.32 C-2.97 1.21 -2 1.11 -1 1 C-0.67 0.67 -0.34 0.34 0 0 Z " fill="#C9EEFE" transform="translate(832,476)"/>
<path d="M0 0 C0.99 0.5 0.99 0.5 2 1 C4.55 1.23 7.07 1.42 9.62 1.56 C10.33 1.61 11.04 1.65 11.77 1.69 C13.51 1.8 15.26 1.9 17 2 C17 2.33 17 2.66 17 3 C8.59 3.5 8.59 3.5 0 4 C0 2.68 0 1.36 0 0 Z " fill="#B8DFF8" transform="translate(876,355)"/>
<path d="M0 0 C2.48 -0.2 2.48 -0.2 5.19 -0.12 C6.09 -0.11 6.99 -0.09 7.92 -0.07 C8.61 -0.05 9.29 -0.02 10 0 C9.67 1.32 9.34 2.64 9 4 C8.67 3.67 8.34 3.34 8 3 C6.15 2.77 4.3 2.59 2.44 2.44 C1.43 2.35 0.41 2.27 -0.63 2.18 C-1.8 2.09 -1.8 2.09 -3 2 C-2.01 1.34 -1.02 0.68 0 0 Z " fill="#B0D7F0" transform="translate(868,166)"/>
<path d="M0 0 C0 0.99 0 1.98 0 3 C-0.76 2.84 -1.53 2.67 -2.31 2.5 C-7.22 1.83 -12.05 1.92 -17 2 C-17 1.67 -17 1.34 -17 1 C-11.33 -0.23 -5.76 -0.09 0 0 Z " fill="#BDE5FC" transform="translate(696,773)"/>
<path d="M0 0 C2.33 0.41 2.33 0.41 4 1 C3.29 1.19 2.58 1.39 1.85 1.59 C0.47 1.98 0.47 1.98 -0.94 2.38 C-1.85 2.63 -2.77 2.89 -3.71 3.15 C-4.47 3.43 -5.22 3.71 -6 4 C-6.33 4.66 -6.66 5.32 -7 6 C-7.66 6 -8.32 6 -9 6 C-9.33 5.01 -9.66 4.02 -10 3 C-8.42 2.47 -6.84 1.95 -5.25 1.44 C-4.37 1.15 -3.49 0.86 -2.58 0.56 C-1.3 0.28 -1.3 0.28 0 0 Z " fill="#B7DFF7" transform="translate(270,456)"/>
<path d="M0 0 C0.33 0.99 0.66 1.98 1 3 C3.31 3.33 5.62 3.66 8 4 C8 4.33 8 4.66 8 5 C2.06 5.5 2.06 5.5 -4 6 C-2.68 4.02 -1.36 2.04 0 0 Z " fill="#BAE1F9" transform="translate(204,907)"/>
<path d="M0 0 C0.99 0.33 1.98 0.66 3 1 C2.52 1.47 2.04 1.94 1.54 2.43 C0.59 3.36 0.59 3.36 -0.38 4.31 C-1.31 5.23 -1.31 5.23 -2.27 6.18 C-4.18 8.09 -4.18 8.09 -6 11 C-5.81 8.88 -5.81 8.88 -5 6 C-3.47 3.84 -1.79 1.97 0 0 Z " fill="#325DA3" transform="translate(421,482)"/>
<path d="M0 0 C2.31 0.33 4.62 0.66 7 1 C2.56 3.96 2.56 3.96 0 5 C-0.99 4.67 -1.98 4.34 -3 4 C-2.01 2.68 -1.02 1.36 0 0 Z " fill="#4673B2" transform="translate(305,395)"/>
<path d="M0 0 C0.33 0 0.66 0 1 0 C1 2.97 1 5.94 1 9 C-1.64 8.67 -4.28 8.34 -7 8 C-6.34 6.68 -5.68 5.36 -5 4 C-4.67 4.66 -4.34 5.32 -4 6 C-3.01 6 -2.02 6 -1 6 C-0.67 4.02 -0.34 2.04 0 0 Z " fill="#C6EBFC" transform="translate(877,264)"/>
<path d="M0 0 C0.99 0.33 1.98 0.66 3 1 C3 4.3 3 7.6 3 11 C1.33 7.66 0.13 4.54 -1 1 C-0.67 0.67 -0.34 0.34 0 0 Z " fill="#A5CEEE" transform="translate(778,239)"/>
<path d="M0 0 C0.33 0 0.66 0 1 0 C1 3.63 1 7.26 1 11 C-0.32 9.35 -1.64 7.7 -3 6 C-2.01 4.02 -1.02 2.04 0 0 Z " fill="#A7D0F5" transform="translate(936,241)"/>
<path d="M0 0 C0.66 0.33 1.32 0.66 2 1 C-0.64 3.64 -3.28 6.28 -6 9 C-6.99 8.67 -7.98 8.34 -9 8 C-6.03 5.36 -3.06 2.72 0 0 Z " fill="#BAE1FA" transform="translate(231,737)"/>
<path d="M0 0 C1.18 0.53 1.18 0.53 2.38 1.06 C3.67 1.53 3.67 1.53 5 2 C5.66 1.67 6.32 1.34 7 1 C7.33 2.65 7.66 4.3 8 6 C5.69 5.69 5.69 5.69 3 5 C1.19 3.56 1.19 3.56 0 2 C0 1.34 0 0.68 0 0 Z " fill="#B3DBF5" transform="translate(253,664)"/>
<path d="M0 0 C0.99 0.99 1.98 1.98 3 3 C2.19 5.44 2.19 5.44 1 8 C0.01 8.33 -0.98 8.66 -2 9 C-1.34 6.03 -0.68 3.06 0 0 Z " fill="#ADD6F7" transform="translate(946,521)"/>
<path d="M0 0 C4.29 0 8.58 0 13 0 C13 0.33 13 0.66 13 1 C11.99 1.09 11.99 1.09 10.95 1.18 C10.06 1.27 9.17 1.35 8.25 1.44 C7.37 1.52 6.49 1.6 5.58 1.68 C3.31 1.96 1.2 2.39 -1 3 C-0.67 2.01 -0.34 1.02 0 0 Z " fill="#5B8AC3" transform="translate(121,910)"/>
<path d="M0 0 C1.32 0.33 2.64 0.66 4 1 C0.04 1.99 -3.92 2.98 -8 4 C-7.67 3.01 -7.34 2.02 -7 1 C-4.68 0.6 -2.34 0.27 0 0 Z " fill="#B3DBF6" transform="translate(209,751)"/>
<path d="M0 0 C0.66 0 1.32 0 2 0 C1.25 1.88 1.25 1.88 0 4 C-2 5.31 -2 5.31 -4 6 C-4.66 5.67 -5.32 5.34 -6 5 C-1.51 1.09 -1.51 1.09 0 0 Z " fill="#B5DCF8" transform="translate(220,623)"/>
<path d="M0 0 C0.99 1.32 1.98 2.64 3 4 C2.67 4.33 2.34 4.66 2 5 C1.77 6.68 1.59 8.37 1.44 10.06 C1.31 11.44 1.31 11.44 1.18 12.85 C1.12 13.56 1.06 14.27 1 15 C0.67 15 0.34 15 0 15 C-1.14 5.98 -1.14 5.98 -0.56 1.88 C-0.38 1.26 -0.19 0.64 0 0 Z " fill="#C2E7FC" transform="translate(916,423)"/>
<path d="M0 0 C2 -0.04 4 -0.04 6 0 C5.67 1.32 5.34 2.64 5 4 C2.69 4 0.38 4 -2 4 C-2 3.01 -2 2.02 -2 1 C-1.34 0.67 -0.68 0.34 0 0 Z " fill="#4874B3" transform="translate(715,269)"/>
<path d="M0 0 C0.66 0.33 1.32 0.66 2 1 C1.67 1.99 1.34 2.98 1 4 C-1.31 4.33 -3.62 4.66 -6 5 C-2.25 1.12 -2.25 1.12 0 0 Z " fill="#B3DBF9" transform="translate(719,777)"/>
<path d="M0 0 C0.99 0.33 1.98 0.66 3 1 C2.62 3.44 2.62 3.44 2 6 C1.01 6.5 1.01 6.5 0 7 C-1.68 6.72 -3.35 6.39 -5 6 C-5 5.67 -5 5.34 -5 5 C-3.35 4.67 -1.7 4.34 0 4 C0 2.68 0 1.36 0 0 Z " fill="#3F6BAD" transform="translate(271,596)"/>
<path d="M0 0 C2.31 1.65 4.62 3.3 7 5 C5 5 3 5 1 5 C0.34 5.66 -0.32 6.32 -1 7 C-0.67 4.69 -0.34 2.38 0 0 Z " fill="#B7DEF7" transform="translate(266,492)"/>
<path d="M0 0 C0.66 1.32 1.32 2.64 2 4 C0.25 6.44 0.25 6.44 -2 9 C-4.25 9.81 -4.25 9.81 -6 10 C-5.2 9.09 -4.39 8.19 -3.56 7.25 C-2.68 6.19 -1.82 5.11 -1 4 C-0.15 1.78 -0.15 1.78 0 0 Z " fill="#B1DAF7" transform="translate(400,452)"/>
<path d="M0 0 C2.31 0.33 4.62 0.66 7 1 C6.4 1.27 5.8 1.54 5.19 1.81 C3.03 2.98 1.64 4.19 0 6 C0 4.02 0 2.04 0 0 Z " fill="#B0DAF7" transform="translate(679,140)"/>
<path d="M0 0 C0.99 0.33 1.98 0.66 3 1 C0.03 3.48 0.03 3.48 -3 6 C-3.99 5.34 -4.98 4.68 -6 4 C-3.19 1.94 -3.19 1.94 0 0 Z " fill="#B4DCF9" transform="translate(228,618)"/>
<path d="M0 0 C2.38 -0.12 2.38 -0.12 5 0 C5.66 0.66 6.32 1.32 7 2 C6.62 4.12 6.62 4.12 6 6 C5.34 5.01 4.68 4.02 4 3 C1.95 1.81 1.95 1.81 0 1 C0 0.67 0 0.34 0 0 Z " fill="#3B67AA" transform="translate(423,397)"/>
<path d="M0 0 C2.48 0.5 2.48 0.5 5 1 C4.67 2.98 4.34 4.96 4 7 C2.56 5.75 2.56 5.75 1 4 C0.31 1.81 0.31 1.81 0 0 Z " fill="#AFD7F4" transform="translate(814,848)"/>
<path d="M0 0 C0.33 0 0.66 0 1 0 C1 3.3 1 6.6 1 10 C0.01 9.01 -0.98 8.02 -2 7 C-1.34 4.69 -0.68 2.38 0 0 Z " fill="#A5CDEE" transform="translate(187,730)"/>
<path d="M0 0 C1.32 0 2.64 0 4 0 C4 3.63 4 7.26 4 11 C3.67 11 3.34 11 3 11 C2.8 9.01 2.61 7.03 2.41 5.04 C2.28 4.37 2.14 3.69 2 3 C1.34 2.01 0.68 1.02 0 0 Z " fill="#C0E8FD" transform="translate(810,141)"/>
</svg>
