<svg xmlns="http://www.w3.org/2000/svg" width="1365.333" height="1365.333" preserveAspectRatio="xMidYMid meet" version="1.0" viewBox="0 0 1024 1024"><g fill="#000" stroke="none"><path d="M559.5 46.7c-2.4.6-46.9 14.7-54.5 17.3-3 1-13.5 4.4-23.2 7.5-9.8 3.1-19 6.6-20.4 7.8-5.6 4.4-5.4-1.4-5.4 129v120.3l-5.2 1.9c-2.9 1-5.9 2.2-6.5 2.8-1.7 1.2-4.3.2-4.3-1.7 0-6-8.3-19.6-11.9-19.6-.9 0-2.3-.6-3-1.3-2-2-20.6-1.6-26.1.6-5.6 2.3-14 7.6-14 8.9 0 .5 1.9-.4 4.3-2 7.9-5.4 12.9-7.3 20.9-7.9 8.2-.6 16.4 1.2 20.2 4.5 4 3.6 8.9 14.4 8.9 19.7 0 1.6 3.9.6 13.5-3.7l4.2-1.8V208.9c0-130.3-.3-124.2 5.5-128.7 1.6-1.3 5.3-3 8.4-3.9s6.3-1.9 7.1-2.4c.8-.4 7.1-2.4 14-4.5s13.2-4.1 14-4.5 3.8-1.4 6.5-2.2c2.8-.8 14.5-4.6 26-8.3 26.5-8.7 28-8.7 61-2.1C627.8 58 697 71.5 726 77c11.8 2.3 30.5 5.9 41.5 8s29.7 5.7 41.5 7.9c86.5 16.6 99 19.1 102.6 20.7 1.6.7 3.7 2.1 4.6 3.1 4.5 5.2 4.3-6.5 4.8 232.8l.5 226 3.8 5.7c7 10.7 6.8 8.5 6.4 105.6-.2 69-.6 87.6-1.7 91.2-1.9 6.6-7.7 14.8-13.7 19.4-6.1 4.7-6.3 6.2-.2 2 9.2-6.4 14.4-15.6 16-28.6 1.5-12.4.7-176.2-.9-180.8-.6-2-3-6.6-5.2-10.2l-4-6.7V349c0-219 0-224.2-1.9-228.3-2.2-4.8-4.3-6.9-8.6-8.5-3.4-1.3-37.7-8-167-32.7-24.7-4.7-53.8-10.3-64.5-12.5-10.7-2.1-37.3-7.3-59-11.5-21.7-4.1-41.7-8-44.3-8.5-4.9-1-13.5-1.2-17.2-.3"/><path d="M535.5 73.9c-15.4 4.9-29.1 9.4-30.5 10-4 1.8-.5.8 30.5-8.8 16-5 29.8-9.1 30.7-9.1 1 0 27.1 5 58 11.1 58.2 11.4 88.8 17.4 157.3 30.4 22 4.2 54 10.3 71 13.6 38.9 7.4 36.7 7.1 36 5.9-.3-.6-1.8-1-3.2-1s-16.4-2.7-33.2-5.9c-16.8-3.3-48.6-9.4-70.6-13.6-68.5-13-99.1-19-157.3-30.4-30.9-6.1-57.2-11.1-58.5-11-1.2 0-14.8 4-30.2 8.8m-38.1 14c.4.6 1.8 1.1 3.2 1.1 2.3 0 57.7 11 103.4 20.5 11.8 2.4 49.2 10.1 83 16.9 33.8 6.9 77 15.7 95.9 19.6l34.4 7.1 34.1-11.5c18.8-6.3 35-11.7 36.1-12s.4-.4-1.5-.2-18.1 5.4-36 11.5l-32.5 11.2-25-5.1c-13.7-2.8-56.9-11.7-96-19.6-39-7.9-80.7-16.5-92.5-18.9-11.8-2.5-39.5-8.1-61.5-12.5s-41.3-8.3-42.9-8.6c-1.9-.4-2.6-.3-2.2.5m86.9 69.4-9.3 3.1v104.4l9.5 2.2c5.3 1.2 10.2 1.9 11 1.6 1.3-.5 1.5-8.5 1.5-57.6 0-53.7-.1-57-1.7-56.9-1 0-6 1.5-11 3.2m11.7 54.2c0 48.5-.2 56.5-1.4 56.5-1.4 0-13.2-2.5-16.8-3.6-1.7-.5-1.8-3.8-1.8-51.9v-51.3l8.8-3c4.8-1.7 9.3-3.1 10-3.1.9-.1 1.2 11.8 1.2 56.4m50.3-41.9-9.2 4.5-8.2-2.1c-4.5-1.1-8.4-1.8-8.7-1.6-.4.5 2.8 1.4 12.4 3.6 5.1 1.1 5.2 1.1 15.5-3.9 5.7-2.7 9.7-5 8.9-4.9-.8 0-5.6 2-10.7 4.4m-37.6 10c-.4.4-.7 21.1-.7 45.9 0 35 .3 45.5 1.3 46.2 1.4 1.1 19.5 5.3 22.6 5.3 2.1 0 2.1-.2 2.1-46.8v-46.7l-9.7-1.8c-5.4-1-10.9-2.1-12.3-2.3-1.4-.3-2.9-.2-3.3.2m15.1 3 9.2 1.8v45.8c0 43-.1 45.8-1.7 45.8-1.8 0-11-2.1-18.5-4.1l-3.8-1v-44.8c0-24.6.3-45.1.7-45.5s1.7-.5 2.8-.2 6.2 1.3 11.3 2.2m84.9 24.2-3.7 1.7.2 42.9.3 43 8 1.7c4.4.9 8.3 1.5 8.8 1.2.4-.2.7-20.9.7-45.9V206h-3.2c-1.8 0-4.2-.2-5.3-.5-1.1-.2-3.7.3-5.8 1.3m10.6.2h2.7v44.3c0 24.4-.2 44.6-.5 44.9s-3.8-.2-7.8-1.1l-7.2-1.7-.3-42-.2-42 3.2-1.7c1.8-.9 4.2-1.4 5.3-1.2 1.1.3 3.2.5 4.8.5M251.5 318.4c-2.3.9-6 3.6-8.5 6.4-8.2 8.8-11.7 25.1-12.9 59.2-.7 21.8-.9 22.8-4 31.5-4.8 13.5-5.4 16.7-6 32.5l-.6 14.5-26.5 10.3c-76.8 29.8-88 34.4-88 36.1 0 .4 3.3-.8 7.2-2.7 4-1.9 8.4-3.9 9.8-4.5 1.4-.5 3.3-1.3 4.2-1.8 1-.5 2.2-.9 2.8-.9s2.9-.9 5.3-1.9c2.3-1.1 8-3.4 12.7-5.1 4.7-1.8 9.9-3.8 11.5-4.5 1.7-.7 4.6-1.8 6.5-2.5s4.9-1.9 6.5-2.5c1.7-.7 5.7-2.3 9-3.5 3.3-1.3 7.6-2.9 9.5-3.7s4.4-1.9 5.5-2.3c1.1-.5 4.7-1.8 8-3 5.7-2 10.3-3.9 15.1-6.2 2.1-1 2.2-1.9 2.6-16.2.4-14.7.5-15.4 4.7-27.6l4.3-12.5.9-23c.8-23.6 2.2-34.5 6.2-47 1.8-5.8 3.2-8 7.8-12.7 5.1-5.2 6-5.7 11.3-6.3 8.7-1.1 18.4-.1 24.5 2.6 5.9 2.5 21.1 13.3 21.1 14.9 0 .5.5 1 1.1 1s4.4 2.7 8.5 6.1c7.3 5.9 7.4 6 11.1 4.9 2.1-.6 11.3-1.4 20.6-1.7l16.7-.6 4.5-4.5c2.5-2.4 4.5-4.7 4.5-5s3.5-3.8 7.8-7.8c4.2-4 7.2-7.3 6.6-7.4-.6 0-3.2 2.1-5.6 4.7-2.5 2.7-5.4 5.3-6.4 5.9s-2.2 1.8-2.8 2.8-3 3.7-5.3 6l-4.3 4.3-16.2.6c-9 .3-18.1 1-20.2 1.6-3.3.8-4.2.7-5.5-.8-2.3-2.5-11.7-10.1-12.6-10.1-.4 0-1.6-1.1-2.7-2.5s-2.3-2.5-2.8-2.5-2.4-1.4-4.2-3.1c-1.8-1.6-6.6-4.6-10.6-6.6-6.8-3.4-8.1-3.7-18-4-7.6-.2-11.8.1-14.7 1.1m374 4.2c-3.3 1.4-7.2 3-8.7 3.6-5 1.8-3.1 3.3 7.6 5.6l10.4 2.3 7.4-3.9c4-2.2 8.3-4.2 9.3-4.5 1.9-.4 1.9-.5.1-.6-1 0-5.4 1.7-9.8 3.9l-7.9 4.1-9.7-2.3-9.7-2.3 8.7-3.8c9.8-4.2 10.7-4.3 21.3-2.1 4.2.9 7.9 1.4 8.1 1.1.6-.5-15.3-3.7-18.6-3.7-1.4 0-5.2 1.2-8.5 2.6"/><path d="M406.4 328.9c-4.5 2.1-12.6 8.8-28.5 23.8l-10.6 10-19.1.6c-16.3.6-20.3 1.1-26.7 3.1l-7.7 2.4-13.6-11c-7.5-6-17.3-13.4-21.8-16.4-7.4-4.9-8.6-5.4-13.7-5.4-4.9 0-5.8.3-8 3-4.9 5.7-8.6 29.7-8.7 55 0 13.3-1.2 20.2-5.5 33.7-1.9 5.9-3.8 13.3-4.1 16.4-1.2 10.7 3 30 9 41.3l2.2 4.1 6.4-.3c3.6-.1 13.4-1.3 21.8-2.7 11.2-1.8 15.8-2.2 17.3-1.5 1 .6 1.9 1.4 1.9 1.9 0 2.6-4.9 4.2-21.5 7.2-9.9 1.8-18.2 3.4-18.4 3.5-2.1 1.8 11.8 14.6 22.6 21 2.4 1.4 9.1 4.1 15 6 12.7 4.1 15.3 5.6 15.3 8.8 0 3.7-3.3 5.9-8.7 5.8-4.8-.2-15.3-3.1-20.5-5.8-5.7-3-6.2-2.4-5.4 7.6 1.4 18.1 7.2 35.1 16.1 46.8 8.4 11.1 24.7 23.3 36.1 26.9 4.8 1.5 5.5 1.5 11-.2 8.2-2.5 14.8-6 19.3-10 4.4-4 5.6-4.3 7.1-1.6 3.2 6-2.9 13.7-16 20.5-10.1 5.2-19.1 10.8-18.5 11.4.2.3 3.1-1.1 6.2-3 3.2-2 9.2-5.3 13.3-7.4 8.6-4.5 15.5-10.6 16.5-14.7.4-1.6.3-4.3-.2-6-1.3-4.7-4.4-4.7-9.5-.1-4.5 4-16.1 9.8-22 10.9-8.7 1.6-31.5-13.4-42.4-27.8-9.3-12.4-14.5-27.2-16-45.3-.7-8.3-.6-8.7 1.2-7.9 8.4 3.5 19.5 6.6 24.3 6.6 4.5.1 5.8-.3 7.3-2.1 1-1.2 1.8-3.1 1.8-4.2 0-4.2-2-5.7-10.8-8.4-4.8-1.4-11.8-4.2-15.7-6.1-7.4-3.5-23.7-15.9-25.4-19.2-1-1.8-.5-2 5.7-3 28.4-4.8 34.1-6.6 32.8-10.8-1-3.3-4-3.4-20.1-.8-8.2 1.4-17.7 2.6-21 2.7l-6 .3-3.8-7.7c-4.8-9.7-7-19.7-7.1-31.8-.1-8.4.3-10.8 3.6-20.6 4.6-13.6 5.8-20.9 5.8-34.4 0-15.3 1.7-33.1 4-42.9 2.6-10.9 5.3-14.1 11.9-14.1 3.8 0 5.8.9 13.4 6 4.8 3.3 14.4 10.6 21.3 16.1 7.6 6.3 13.3 10.1 14.6 10.1s5.1-.9 8.4-2.1c4.9-1.6 9.7-2.2 24-2.6 9.9-.4 18.9-.8 20.2-1.1s6.9-4.8 12.5-10.1c21.1-20 29-25.7 34.5-25.1 5.4.6 7.5 8.4 11.7 41.8 1.4 11.2 2.5 22.6 2.5 25.3 0 4.2.8 6.2 5.5 13.9 3 5 6.9 12.7 8.6 17.2 3.5 9.1 6.7 24.3 5.3 25.5-.5.4-6.2 1.5-12.8 2.4-12.6 1.8-14.9 2.8-14.4 6.1.5 3.7 4.3 4.7 15.2 3.9l10-.6-2.2 3c-3.3 4.7-8.6 9-12.9 10.4-6.1 2-9.8 4.4-10.1 6.6-.5 3.4 7.5 4.6 11.6 1.7 5.6-3.9 2.5.3-8.5 11.3-11.9 12.1-26.3 22.7-39.4 29.4-3.4 1.6-5.9 3.6-5.9 4.5 0 .8 1.7 2.2 3.7 3.1 7.4 3 16.1.1 33.4-11.2s30.1-25.3 42-45.6l2.6-4.4 19.9-3.3c31.5-5.1 38.3-5.7 63.4-5.6 32.3.1 51.8 3.2 78 12.6 27 9.6 52.1 25.2 72.7 45.1 6.2 6 11.3 10.5 11.3 10 0-.6-4.9-5.7-10.8-11.5-30.9-29.9-69.7-48.2-117.2-55.4-8.4-1.3-17.8-1.8-34.5-1.8-24.7 0-37.4 1.1-67.5 6.3l-16.4 2.8-2.9 4.9c-12.1 20.5-24.6 33.8-42.4 45.5-17.8 11.6-24.6 13.8-31.1 10.5-1.8-.9-3.2-1.9-3.2-2.1 0-.3 2.6-1.8 5.9-3.4 13.1-6.7 27.5-17.3 39.4-29.3 6.4-6.5 11.7-12.5 11.7-13.3 0-1.9-2.1-1.9-4.6 0-2.1 1.6-7.2 1.9-9.3.6-2.4-1.5.2-3.7 8-6.6 5.3-2.1 7.9-3.8 11.4-7.7 6.9-7.7 6.5-8.2-5.9-7.4-9.3.6-10.5.5-12.7-1.3-4.1-3.4-1-5 13.2-7 10-1.4 12.5-2 12.7-3.4.6-3-2.5-17-5.8-25.9-1.7-4.8-5.6-12.7-8.6-17.7-4.4-7.2-5.4-9.8-5.4-13.3 0-6.5-4.8-43.7-6.9-53.9-2.2-11-4-13.9-8.4-13.9-1.7 0-5 .9-7.3 1.9M572 344.3v14.5l11.5 2.7c6.3 1.4 11.9 2.4 12.5 2s1-6.1 1-14.4v-13.7l-10.2-2.3c-5.7-1.2-11.3-2.5-12.5-2.8l-2.3-.5zm14.3-10.2 9.7 2.1v13.4c0 7.5-.4 13.4-.9 13.4-1 0-17.1-3.7-20.3-4.6-1.6-.5-1.8-2-1.8-14 0-12.4.1-13.5 1.8-13 .9.2 6.1 1.4 11.5 2.7m126 5.4c-1.8.8-4.7 2-6.5 2.9-1.8.8-4.3 1.7-5.5 2.1-4.6 1.3-2.1 3 7.5 5.4l9.7 2.3 8.4-4.1c4.7-2.2 7.9-4.1 7.1-4.1s-4.7 1.6-8.8 3.6l-7.4 3.6-9-2.3c-7.8-2-8.7-2.5-6.7-3.3 1.3-.5 5.2-2.2 8.6-3.7l6.2-2.7 8.7 1.9c10.2 2.2 9.4 2.1 9.4 1.1 0-.4-3.6-1.3-8-2s-8.6-1.5-9.3-1.7-2.7.2-4.4 1m-246.8 7.6c2.2.5 8.5 1.9 14 3.2 15.2 3.6 204.3 51.4 243.5 61.6 19 4.9 45.2 11.6 58.2 15 37.7 9.7 45.7 12.9 54.6 21.4 1.7 1.7 3.2 2.6 3.2 2.1 0-1.5-4.8-5.8-10.5-9.3-6.3-4-16.8-7.3-47.1-15.2-13.1-3.3-39.4-10.1-58.4-15-34.8-9-136.9-34.8-214.6-54.3-23.2-5.8-43.2-10.6-44.5-10.5-1.5.1-1 .4 1.6 1"/><path d="M452.5 349.9c-13.1 5.3-14.5 6.1-14.5 7.9.1.9 1.1 10.5 2.4 21.2 2.2 19.3 2.3 19.6 6.1 25.5 6.9 10.9 11.6 22.5 13.5 33.8l1.2 6.6 5.1.3c7.3.4 7.5 2.8.8 6.9-5.3 3.3-7 6.7-2.8 5.5 1.2-.3 8.8-2 16.9-3.6 45.8-9.2 82.2-8.8 122.9 1.5 25.3 6.4 44.4 14.7 67.4 29.1 13.4 8.4 21.8 15.2 35.3 28.6 6.1 6.1 11.2 10.7 11.2 10.2 0-1.5-20.4-21.5-28.5-27.9-22.5-17.9-53.9-33-85.1-40.9-40.9-10.4-76.8-10.8-123.2-1.6-8.1 1.6-15.5 3.2-16.5 3.6-3.2 1.2-1.7-.3 3.4-3.5 4.3-2.7 5-3.5 4.7-5.8-.3-2.6-.7-2.8-5.5-3.1-2.9-.2-5.3-.6-5.3-1s-.7-3.7-1.4-7.4c-2.5-11.8-6.4-21.2-13.1-32.3l-4.3-7-2.1-19.4c-1.2-10.7-1.8-19.8-1.4-20.2.5-.4 5.3-2.6 10.8-4.9 5.5-2.4 10.2-4.4 10.4-4.6 1.1-1-2.1-.1-8.4 2.5m316 8.3-9 3.1-8.5-1.7c-13.1-2.7-13.2-2.8-12.5-1.6.3.5 1.5 1 2.7 1 1.1 0 5.7.7 10.2 1.7l8.1 1.6 11-3.6c6.1-2 10.1-3.6 9-3.6s-6 1.4-11 3.1m-373.2 72.7c-2.3 1.1-4.6 2.8-5.2 3.9-1.9 3.5-1.2 3.4 2.4-.2 5.6-5.6 14.4-6.1 20.5-1q6.45 5.4-.6 12c-3.9 3.8-3 4.7 1.1 1.1 3.6-3.1 4.4-9.3 1.7-12.8-2.2-2.7-8-4.9-12.8-4.9-1.6 0-4.8.9-7.1 1.9m-82.3 7.9c-3.9 2.1-6 5.4-6 9.3 0 2.4 2.9 7.6 3 5.2 0-.6-.4-1.5-1-1.8-1.3-.8-1.3-5.1 0-7.5 1.8-3.4 7.4-6 12.9-6 5.6 0 8.1.9 12 4.4 1.5 1.3 2.2 1.6 1.9.7-1.7-5.4-15.9-8.1-22.8-4.3m43.6 15.8c-2.5 2.4-1.9 5.5 2 11.3 3.4 5 3.6 5.8 3.2 11.7-.2 3.4 0 6 .4 5.8.4-.3.8-3.4.8-6.9 0-5.5-.4-6.9-3.5-11.5-4.1-6.2-4.4-8.6-1-10.2 2-.9 3.3-.8 6.4.6 3.7 1.7 4 1.7 7.6 0 7.8-3.7 12.8 2.6 6.9 8.7-2.3 2.5-2.9 4-3.2 9.4-.5 7.6 1.1 11 5.6 12 4.4.9 11.9-1.4 16.9-5.2 4.6-3.5 6.3-3.6 6.3-.1 0 3.3-3.8 7.7-9.1 10.3-6.3 3.3-14.4 3.4-20.7.3-2.9-1.3-4.9-1.8-5.7-1.2-7.5 5.6-10.2 6.8-15.6 6.8-7.2.1-17-4.6-22.8-10.9-4.6-5-5.1-7-2-8 2.7-.9 2-1.6-.9-.8-4 1-2.8 5.1 3.1 10.9 11.6 11.1 27.7 13 37.3 4.3 2-1.8 2.2-1.8 5.5-.2 1.9 1 6.4 1.9 10.1 2.1 5.5.4 7.6 0 12.2-2.1 6.3-2.9 9.8-7.4 9.4-12.2-.4-4.2-2.8-4.2-8.2-.1-4.4 3.3-10 5.6-13.9 5.6-1 0-2.9-1.1-4.2-2.5-2.1-2-2.5-3.4-2.5-7.9 0-4.7.4-6 3-8.9 7.1-8.1 1.3-16-8.1-11.1-2.8 1.4-3.4 1.4-6.4 0-4.2-2-6.9-2-8.9 0M210 487.1C170.9 502 149.5 510 148.3 510c-2.9 0-.9 2.6 3.5 4.7 2.6 1.2 7.3 4.5 10.5 7.3 3.1 2.9 5.7 4.7 5.7 4.2 0-1.8-10.3-10.2-15.2-12.5l-4.6-2.1 7.1-2.7c4-1.5 15.1-5.7 24.7-9.3s24.5-9.2 33-12.5 15.8-5.7 16.1-5.5c.4.2 2.7 4.6 5.2 9.6 2.5 5.1 7.1 12.3 10.2 16 5.7 6.8 18.5 18.2 19.4 17.2.3-.2-1.3-1.9-3.5-3.6-5.7-4.6-15.9-15.1-19.4-20.2-1.6-2.5-4.8-8.1-7-12.5-2.2-4.5-4.4-8.1-4.8-8.1s-9 3.2-19.2 7.1m-108.8 24.1c-.7.7-1.2 1.5-1.2 1.9 0 .5-1.1 2-2.4 3.4-1.4 1.5-3.3 4.7-4.3 7.3-1.7 4.4-1.8 10.6-2.1 94.7-.3 106.8.3 120.4 6 126.4 1 1.1 1.8 2.5 1.8 3 0 1.3 10 8.1 11.8 8.1.7 0 2 .5 3 1 .9.6 4.8 2.1 8.6 3.4l7 2.2.3 17.3c.2 14.2.6 17.9 2.1 21.4 4.7 10.6 20.3 17.9 37.7 17.5l8-.1-10-.7c-16.7-1.1-29.6-7.5-34.6-17.2-1.7-3.4-2-6.1-2.2-21.5l-.3-17.5-10.4-3.7c-15.4-5.4-20.4-9.4-24.8-19.5-2.7-6-3.3-31.2-3-119.6.3-100.4-.2-93 7.9-103.7 3.5-4.7 4.2-7.2 1.1-4.1"/><path d="M123 521c-2.5 1.2-6 3.5-7.8 5.3-6.3 6.1-6.2 4-6.2 99.2 0 54.5.4 89.2 1.1 94.5 1.4 11.6 4.1 16.2 11.2 18.8 12.6 4.8 43.7 14.3 44.7 13.7 1.4-.9 1.4-189.6-.1-198.5-1.4-9.1-3.7-13.6-10.3-20.8-4.2-4.4-7.8-7.2-13-9.7-9.4-4.6-13.8-5.1-19.6-2.5m19.2 3.7c7.4 3.8 16.4 12.7 19.8 19.3 1 2 2.4 6.6 3 10.1 1.2 7.4 1.4 197.9.3 197.9-1.4 0-41.8-13.2-45.1-14.7-4.7-2.2-8-8.5-9.2-17.4-1.3-10.5-1.3-179.3.1-184.2 1.3-4.9 6.1-10.2 11.8-13.3 5.9-3.1 10.1-2.6 19.3 2.3m416.3 17.8c-13.1 4.6-28.3 17.4-35.3 29.6-8.1 14.2-11 32.7-7.8 48.7 1.6 8 5.2 17.9 6.1 17 .3-.2-.4-2.2-1.4-4.4-2.7-5.6-5.1-18.1-5.1-26.6.1-21.6 11-42.1 29.4-55.2 12.4-8.9 25.6-12.8 31.1-9.2 5.3 3.5 2.1 8.4-7.1 11.1-14.7 4.3-28 14.9-34.2 27.3-10.7 21.6-7.1 48.5 8.7 64.3 7.1 7.1 8.3 7.6 29.8 14.9 23.3 7.9 21.1 7 19.3 8-1.9 1-36.8 11.8-53.1 16.4-18.2 5.1-23.7 7.4-28.6 11.9s-6.8 9.7-5.8 15.8c.8 4.8 2.7 5 4.3.5s6.6-7.6 12.1-7.6c2.2 0 4.1.4 4.1 1 0 .5-.6 1-1.3 1-1.5 0-6.3 4.7-5.5 5.5.2.3 1.5-.6 2.8-2s2.9-2.5 3.7-2.5c.7 0 1.3-.9 1.3-2 0-1.7-.7-2-4.6-2-6.7 0-11.3 2.5-13.4 7.4l-1.8 4-.7-3.7c-1-4.9.8-9.7 5.3-13.9 5.5-5.4 9.8-7.2 30.7-13.2 23.7-6.8 48.5-14.4 50.5-15.5.8-.4 1.5-1.4 1.5-2 0-.7-7.9-3.8-17.5-7s-19.5-6.8-22-8.1c-7-3.6-15.6-12.8-19.5-21.2-15-31.7 1.8-67.1 36.8-77.2 4.6-1.3 6-2.2 6.8-4.4 3.3-8.6-5.5-11.7-19.6-6.7m292 23c-2.2.9-5.8 2.4-8 3.5-5.7 2.7-56.3 25.1-73.5 32.5-8 3.5-26 11.3-40 17.5s-27.5 12.1-29.9 13.1c-2.4 1.1-4.2 2.2-3.9 2.5.5.5 3.1-.6 18.6-7.7 3.5-1.6 6.5-2.9 6.8-2.9s11.9-5 23.9-10.5c1.7-.7 7.3-3.2 12.5-5.5s10.9-4.8 12.5-5.5c1.7-.7 7.7-3.4 13.5-5.8 5.8-2.5 13-5.6 16-7 11.6-5.2 15.9-7.2 28-12.5 6.9-3 15.9-7 20-8.8 8.6-3.9 13.9-4.3 23.9-1.8 7.8 1.9 21.2 8.3 25.9 12.3l3.3 2.8-5.8 2.6c-3.2 1.4-9.2 3.9-13.3 5.5-7.6 2.9-37.1 15.4-58 24.4-16.1 7-55.8 23.6-78.9 32.9-10.7 4.3-19.8 8.2-20.3 8.7-.4.4-3.6-2-7-5.3-5.9-5.8-18.9-13.5-22.6-13.5-.8 0 2.2 1.8 6.7 4 9.7 4.9 17.9 12.2 22.2 19.6 1.7 3 3.3 5.3 3.6 5s-.4-2.2-1.6-4.2c-2.1-3.5-2.1-3.7-.4-5 1-.7 5.4-2.7 9.8-4.4 15.9-6.3 64.3-26.3 78.5-32.5 15.1-6.7 48.9-20.8 72-30.3 7.4-3 14-5.9 14.6-6.4 1.5-1.1 8 6.1 10.5 11.7 3.4 7.6 3.9 16.8 3.8 71.5-.1 70.8-1 102.2-3.3 107.4-.9 2.2-1.4 4.1-1.1 4.4.7.7 2.5-4.5 3.7-10.8.7-3.6 1.1-33.3 1.2-84l.1-78.5-2.3-7.5c-2.1-6.6-3.1-8.2-9.1-14-3.7-3.7-9.2-8-12.2-9.7-13.1-7.5-31.8-11-40.4-7.8m-588 8.5c-7.4 2.6-55.2 25.6-60.6 29.1-5.9 3.7-13.7 11.9-17.3 18.2-3.6 6.1-4.7 16.1-2.1 19.2l1.7 2-.8-2c-3.4-9 0-18.1 11.1-29.2 6.7-6.7 8.5-7.8 26.1-16.4 27.7-13.4 39.5-18.9 43.5-20.4 3.5-1.3 3.7-1.2 4.8 1.2.7 1.4 1.4 2.3 1.7 2.1.6-.6-1.7-5.8-2.5-5.7-.3 0-2.8.9-5.6 1.9m49.5 50.7c-1.4.2-10.4 1.7-20 3.3-19 3.2-38.8 9-46.1 13.6-2.4 1.5-6.9 4.8-9.9 7.4-7.3 6.3-12.2 9.3-19.7 12-11.1 4-25.9 1.9-33.7-4.9-1.6-1.3-1.8-1.4-1.5-.1.3.8 3.2 2.8 6.4 4.5 5.5 2.7 6.9 3 16 3s10.7-.3 17.5-3.2c4.8-2.1 10.6-5.8 16-10.3 10.7-8.9 14.9-11 29.6-15.4 11.8-3.5 39.5-8.6 48.6-8.9 2.7-.1 4.8-.5 4.8-1 0-.7-3.6-.7-8 0m-111.3 6.4c-2.5 1.9-5.7 6.7-5.7 8.5 0 .4 1.3-1.1 3-3.4 3.6-5 6.2-6.6 8-4.9 1 .9 1.2.9.8-.3-.7-2.3-3.2-2.3-6.1.1m469.9 16c-5.7 1.4-10.5 5.5-13.2 11.3s-3.1 11.9-2 25.1c.7 8.7-.5 16.5-3.9 25-.6 1.5-.5 1.7.4.9.6-.6 2.1-5 3.3-9.8 2-8 2.1-9.7 1.1-18.5-.6-5.6-.7-11.8-.3-14.8 2.3-14.3 15.3-22.3 29.1-17.8 10.8 3.5 20.7 11 25.6 19.2 2.9 5 4.3 5.2 1.8.3-4.4-8.4-14.5-16.4-25.4-19.9-6.9-2.2-10.3-2.4-16.5-1"/><path d="M179.7 666.5c.6 14 1.6 17.7 5.9 22.4 7.1 7.9 18 11.9 107.9 39.9 8.8 2.8 26.1 8.2 38.5 12.2 12.4 3.9 28.1 8.9 35 11s39.3 12.2 72 22.5 64.2 20.2 70 22c12.1 3.8 63.5 20.1 88.7 28 9.4 3 17.4 5.5 17.7 5.5s.6-4.4.6-9.8v-9.9l-12.7.5c-18.9.7-29.4-2.2-38.5-10.7-13.5-12.4-13.5-34.5-.1-47.9 4.8-4.8 17.2-11.1 35.8-18.2 13.1-5 12.5-4.7 11.9-6.5-.5-1.1-1.5-1-6.2.6-9.5 3.3-32 8.7-45.3 10.8-19.4 3.1-33.1 3.7-40.9 1.7-22.5-5.8-34-26.2-25-44.2 3.5-7.2 6.5-10.1 14.6-14.7 6.7-3.8 13.5-6.2 20.1-7.2 4.6-.7 5.6-1.4 4.4-3.3-.5-.8-1.6-.9-4-.2-1.8.5-9.5 1.2-17 1.6-21.1 1-47.9-2.1-70.8-8.1-9.4-2.5-10.6-2.4-16.8.5-9.6 4.5-22.2 8.4-46.5 14.5-23.3 5.8-38.2 10.7-36.8 12 .3.3 2.9-.6 5.9-2 3-1.3 15.8-5.1 28.5-8.4 29.7-7.6 35.3-9.3 46.8-14.1l9.5-4 9.3 2.5c23 6 49.8 9.1 70.9 8.1 7.5-.4 15.1-1.1 16.8-1.6s3.3-.5 3.6 0c.3.4-1.4 1.1-3.7 1.5-11.6 1.8-26 8.6-31.3 14.8-4.6 5.4-7.5 13.3-7.5 20.7 0 16.3 11.9 29.2 30.5 33 13.9 2.9 54.9-3.2 82.3-12.1 8.6-2.8 10-1.9 1.5 1.1-11.1 3.9-33.4 13.8-37.7 16.7-8.2 5.7-13.5 16.4-13.8 27.9-.4 18.9 10.3 31 31.5 35.6 2.8.5 10.6.8 17.4.6l12.3-.4v8.9c0 7.6-.2 8.8-1.5 8.3-1.6-.6-5.4-1.8-63.5-20.1-16.8-5.3-38.4-12.1-48-15.2-45.9-14.5-111-34.9-124-38.9-17.1-5.3-41.7-13-58.5-18.4-6.6-2.1-27.3-8.7-46-14.5-68.9-21.6-77-24.6-85.1-31.7-5.3-4.7-7.3-9.8-7.4-18.8-.1-4.1-.5-9.3-.9-11.5-.5-2.5-.7 0-.4 7"/><path d="M289.5 682.6c-3.5 1.8-6.5 4.4-6.5 5.5 0 .5 2.1-.7 4.6-2.6 6.8-5.2 7.2-4.8 5 4.5-.5 2.1-.4 2 .8-.5 1.9-3.7 2-8.5.4-8.5-.7 0-2.6.7-4.3 1.6m-109.8 18.1c-.4.3-.7 13.1-.7 28.3 0 20.6.3 28 1.3 29.2.6.9 11.4 4.8 24.2 8.8 25.4 7.9 44.5 14 139.5 44.5 35.5 11.4 75.5 24.2 89 28.5 13.5 4.4 41.8 13.6 63 20.5 52.3 17.2 115.1 37.3 117.5 37.7 2 .3 2-.3 2.3-27.5.2-21.8 0-27.7-1-27.7-.7 0-12.8-3.6-26.8-8.1s-28.2-8.9-31.5-9.9c-3.3-.9-24.7-7.8-47.5-15.3-43.3-14.1-66.2-21.4-101.5-32.4-11.5-3.6-32.2-10-46-14.3-13.7-4.3-32.6-10.1-42-13-20-6.1-52-16.2-73-23-8.2-2.6-21.5-6.9-29.5-9.5-16.2-5.2-26.6-9.8-32.4-14.4-4.4-3.5-4-3.3-4.9-2.4m11.3 8c3 1.7 10.2 4.6 16 6.5 18.7 6.3 80.9 26.1 112.5 35.8 9.4 2.9 28.3 8.7 42 13 13.8 4.3 34.5 10.7 46 14.3C441 788.7 464.6 796.2 510 811c40 13 52.7 17 89.8 28.6l15.2 4.8v53.5l-4.7-1.4c-7.9-2.4-73.2-23.5-114.3-37-21.2-6.9-49.5-16.1-63-20.5-13.5-4.3-53.5-17.1-89-28.5-68.1-21.9-120.9-38.7-145-46.2-8-2.5-15.5-5.2-16.7-5.9-2.3-1.4-2.3-1.5-2.3-29.6v-28.2l2.8 2.6c1.5 1.4 5.2 3.9 8.2 5.5m523.2 31.2c-4.9 8.5-19.6 25.5-28.7 33.4-13.2 11.4-34.8 24.7-51.3 31.4l-5.2 2.1.2 48.3.3 48.3 7.7 2 7.6 2 11.4-5.4c19.3-9.1 52-24.8 57.8-27.7l5.5-2.8v-138L719 802l-.5 68.5-8.5 4.2c-19.4 9.6-50.2 24.3-51 24.3-1.7 0-1.8-3.3-1-20.7.5-9.8 1-28 1-40.6 0-24-.1-24.6-4.6-21.2-2.2 1.7-1.2 2 1.7.5 1.9-1 1.9-.5 1.9 21.2 0 12.3-.5 30.4-1 40.2-.5 10.4-.5 18.7 0 19.6.7 1.4-.3 2.3-6 5l-7 3.4-6.7-2-6.8-1.9-.3-47.2-.2-47.2 2.2-1.5c1.3-.8 4.5-2.1 7.1-3 11-3.7 34.3-18.1 47.2-29.3 12.4-10.6 32.6-35.9 31.3-39.2-.1-.5-1.8 1.7-3.6 4.8"/><path d="M212 790c0 9.1-1.8 13.3-6.7 15.8-3 1.6-12.3 4.6-23.9 7.7-.6.2-1.4 1.4-1.7 2.7l-.6 2.3 1.7-2.1c1.1-1.3 5.7-3.3 12.9-5.4 6.2-1.8 12.6-4.1 14.2-5.1 3.6-2.2 5.1-6.8 5.1-15.7 0-3.4.2-6.2.4-6.2s10.6 3.3 23.2 7.4 47.9 15.4 78.4 25.1 85.1 27.3 121.2 39.1c68.9 22.5 82.6 26.9 120.8 39 12.9 4.1 23.7 7.7 24.1 8.2.4.4.9 9.7 1.1 20.7s.7 20.7 1.1 21.5c.4.9.1 2.4-.6 3.4-1.8 2.4 5.9 4.8-112.7-34.4-51.4-16.9-104.5-34.4-118-38.8s-47.9-15.7-76.5-25c-78.3-25.7-96.6-31.5-97.1-30.9-.3.2 9.5 3.7 21.8 7.7 12.3 3.9 45.7 14.8 74.3 24.2 28.6 9.3 63 20.6 76.5 25s66.6 21.9 118 38.8c51.4 17 97.4 32.1 102.3 33.6 6.8 2.1 9.2 3.3 10.8 5.5 1.1 1.6 2.7 2.9 3.5 2.9s1.4.4 1.4 1c0 1.7 11.3 6.8 19.8 8.9 5.5 1.4 11.2 2.1 17.9 2.1 9.2 0 21.3-2 23.7-3.9.6-.5 5-1.1 9.9-1.5 20.8-1.6 22.6-2.4 137.7-57.9 86.3-41.5 91.1-44.3 83.7-49.2-2.2-1.4-2.8-1.4-6.8.2-3.3 1.3-7.7 1.7-17.9 1.7-12.5.1-13.9-.1-18.4-2.4-6.6-3.3-9-6.8-9.6-13.8-.4-5-.7-5.7-2.5-5.4-1.1.2-9.2 3.8-18 7.9-20.7 9.8-116.3 54.7-139.1 65.3l-8.2 3.8-.4 15.9c-.4 17.4-1.7 21.7-7.5 26.3-1.7 1.3-3 3.5-3.3 5.3-.5 2.9-1 3.3-6.5 4.9-9.3 2.6-24 2.3-35-.6-9.7-2.6-15.7-5.6-21.6-10.7-3.3-2.8-3.6-3.4-2.3-4.4.9-.6 1.5-2.2 1.5-3.6-.1-1.3-.5-12-.9-23.8l-.7-21.4-23-7.3c-38.7-12.3-55.5-17.7-123.5-39.9-36-11.7-74.7-24.2-86-27.8-24.6-7.9-92.2-29.5-118-37.8-10.1-3.2-18.8-5.9-19.2-5.9s-.8 3.2-.8 7m614.5 56.7c1.6 9.3 12.4 13.9 30.8 13 6.8-.3 13-1.1 15.6-2.1 4.2-1.6 4.6-1.6 6.3.1 1.7 1.8 1.7 1.9-.8 4.6-3.3 3.6-38.6 21.2-137.4 68.4-56.3 26.9-65.4 30.4-83.5 31.9-8 .6-8.5.6-8.5-1.3 0-1 1.4-3 3.1-4.2 5.6-4.2 7.2-9.7 7.9-27l.5-15.4 69-32.4c38-17.8 75.1-35.2 82.5-38.7l13.5-6.4.3 3.2c.1 1.7.5 4.5.7 6.3m73.8-40.6-4.3 2v16.2c0 8.9-.5 17.9-1.1 20.1-.6 2.1-2.9 5.8-5.1 8.2s-3.6 4.4-3 4.4c1.9 0 8.1-7.9 9.1-11.7.6-2.1 1.1-11.1 1.1-20v-16.2l4.5-2c2.5-1.1 4.5-2.2 4.5-2.5 0-.9-1.2-.6-5.7 1.5"/></g></svg>