<svg xmlns="http://www.w3.org/2000/svg" width="1365.333" height="1365.333" preserveAspectRatio="xMidYMid meet" version="1.0" viewBox="0 0 1024 1024"><g fill="#000" stroke="none"><path d="M0 512v512h1024V0H0zM569.3 51.7c-.7.2-1.9.2-2.5 0-.7-.3-.2-.5 1.2-.5s1.9.2 1.3.5m34.8 21.2c19.5 3.9 50.3 9.9 68.4 13.5 29.2 5.8 63.9 12.4 133.5 25.6 45.7 8.7 83.4 16.1 83.8 16.4.2.2-16.1 5.9-36.1 12.5l-36.4 12.2-34.4-7.1c-64.8-13.3-181.4-37.1-233.4-47.6-28.6-5.8-52.1-10.7-52.2-10.8-.7-.6 66.1-21.4 69.3-21.5 1.1-.1 18 3 37.5 6.8M519 105.6c20.1 4.1 42.1 8.5 49 9.9 6.9 1.3 23.5 4.7 37 7.5s46.6 9.5 73.5 15c71.5 14.4 132.9 27 134 27.4.7.2.9 43.4.7 127.5-.2 120.4-.3 127.2-2 126.7-.9-.2-4.3-1.2-7.4-2L798 416l-.2-35.2-.3-35.2-3.5-.8c-1.9-.4-18.8-4.2-37.5-8.3-18.7-4.2-49.1-10.9-67.5-15-18.4-4-70.1-15.5-114.9-25.5-44.8-9.9-82-17.9-82.8-17.6-1 .4-1.3 6.3-1.3 30.2v29.6l-2.2-.6c-1.3-.3-4.7-1.1-7.5-1.7l-5.3-1.2V96.9l3.8.7c2 .3 20.1 4 40.2 8M904 351c0 117.7-.2 214-.5 214s-2.6-1.3-5.2-2.9c-6.1-3.8-13.8-6.9-23.5-9.5l-7.7-2.1-.4-31.5c-.6-39.6-2-48.2-10.3-65.8-4.4-9.2-13.9-19.4-22.8-24.6l-6.6-3.9.2-130.5.3-130.6 37.5-13.3c20.6-7.3 37.8-13.2 38.3-13.3.4 0 .7 96.3.7 214m-399-55.7c0 1.9.3 3.6.6 3.9.6.7 6.9-.8 10.1-2.4 2.4-1.2 6-.7 17.6 2.4 7.5 2 10 3.7 5.5 3.9-1.3 0-5.7 1.2-9.8 2.7l-7.5 2.7-.3 18.2c-.2 13.7-.6 18.3-1.5 18.3-.6-.1-4.6-.9-8.7-1.9l-7.5-1.8-.3-24.6c-.1-16.3.1-24.7.8-24.7.5 0 1 1.5 1 3.3m67 10.7c4.6 0 3.2 1-7.5 5.4-4.9 2-9.7 4.3-10.5 5.1-1.6 1.4-1.3 1.4-13-2.1-2-.7 23.1-9.4 25.5-8.9 1.1.3 3.6.5 5.5.5m36.4 8.9 7.9 1.7-8.9 4.3c-9.9 4.8-10.6 4.9-18.4 3.1-3-.7-7-1.5-8.8-1.9-3.2-.6-3-.7 6-4.7 5.1-2.3 10.4-4.2 11.8-4.2 1.4-.1 6.1.7 10.4 1.7m-192.6-.2c-1 .2-2.6.2-3.5 0-1-.3-.2-.5 1.7-.5s2.7.2 1.8.5m229.6 7.9 8.7 1.7-9.7 4.8-9.7 4.9-10.3-2.2c-5.7-1.3-10.4-2.5-10.4-2.8s1.9-1.3 4.3-2.2c2.3-.9 6.9-2.8 10.2-4.2s6.5-2.4 7.1-2.2c.7.3 5.1 1.2 9.8 2.2m-226.3 8.9c3 5.1 7.3 32 9.7 60 .9 9.6 1.1 10.3 6 18.4 6.1 9.9 10.4 20.7 12.6 31.3 2.7 13.3 3.6 12.2-11.6 14.1-7.3 1-13.7 2.2-14.1 2.6-1.5 1.5-.3 4.5 2.3 5.8 1.8.9 5.5 1.1 13 .6l10.4-.6-3.2 4.1c-4.2 5.3-8.1 8.6-12.1 10-1.7.7-4.4 1.7-6 2.3s-3.7 1.9-4.7 3c-1.6 1.8-1.5 1.9 1 2.9 3.8 1.4 6.6 1.2 10-.5 1.6-.9 3.1-1.4 3.3-1.1.7.7-9.2 12-16.7 18.9-8 7.4-24.6 19-34.2 23.8-3.3 1.6-5.8 3.5-5.5 4.2.2.7 2.3 1.8 4.7 2.6 7.3 2.4 15.2-.6 32.5-12.2 16.5-11.1 29.3-25 39.7-43.2 3.2-5.6 3.7-6 7.8-6.7 2.5-.3 11-1.8 19-3.2 18.8-3.2 44.1-5.6 60.1-5.6 61.3 0 118.1 22.9 156.1 62.9 16.2 17 25.6 31.9 31.2 49.4 4 12.7 6.2 26.7 4.3 27.9-.7.4-5.5 2.6-10.7 4.9s-15.1 6.7-22 9.9-16.5 7.5-21.4 9.5c-14.4 5.9-20.6 9.4-26.1 14.8-9.7 9.8-12.7 19.4-12.3 39.7.4 21.3-1 23.1-23.9 30.2-26.3 8.1-53.1 13.8-75 16-12.5 1.3-20.7.2-23.7-3.1-4.1-4.5-2.5-11.9 3.4-16.2 3.6-2.7 3-3.9-1.7-3.9-5.9 0-10.3 2.8-12.6 7.9l-2.1 4.6-.9-3.8c-1.3-5.5-.1-10.3 4-14.8 5-5.5 10.7-8.2 27.5-12.9 27.3-7.7 54.3-16.2 55.7-17.6 1.3-1.1 1.3-1.4 0-1.8-10.2-3.3-38.1-13.2-40.4-14.3-9.3-4.9-20.1-20.8-22.5-33.2-5.6-29.7 10.8-56 40.6-65.2 8.3-2.6 10.7-6.6 6.4-10.9-2.7-2.7-8.8-2.6-17.5.5-13.5 4.8-28.6 17.7-35.8 30.7-6.1 10.9-8.2 19.5-8.2 33.3.1 18.8 4.7 32.2 15.3 43.6 2.8 3.1 5.2 5.8 5.2 6 0 .6-3.2.8-27.1 1.5-25.2.7-36-.1-53.1-4.2l-10.6-2.5 2.4-5.2c1.3-2.9 2.4-7 2.4-9.2 0-4.7-2.8-11.1-6.1-14.2-4.4-4-5.2-3.4-5.4 3.7-.1 7.7-2.3 12.5-8.6 18.8-8.9 8.9-18.7 12.7-53.8 21.3-34 8.3-42.2 11.8-55.8 23.6-10.9 9.5-22.1 14.4-25.8 11.3-1.9-1.6-2-9.4-.1-14.8 1.8-5.1.8-6-4.1-3.5-5 2.6-7.4 6.1-7.6 11.1 0 2.3-.3 4.2-.5 4.2-1.4 0-6.5-4.6-7.6-6.8-3.9-7.7-2.6-15.6 3.7-22.8 6.5-7.3 31-22.8 69.6-43.8 16-8.7 21.4-15.3 18.2-22.2-1.5-3.3-3.7-3-8.2 1.1-4.4 3.9-9.9 6.9-17.8 9.6-7.5 2.6-8.8 2.5-17.7-2.1-22.5-11.3-37.8-30-43.4-53-2.1-8.7-3.9-27-2.6-27 .4 0 1.7.6 2.9 1.4 4.3 2.9 17.5 6.6 23.1 6.6 4.9 0 5.8-.3 7.2-2.6 1.3-1.9 1.5-3.2.8-5.2-.8-2.3-2.4-3.2-11.4-6.2-5.8-2-13.2-5.1-16.6-6.9-7.2-3.8-21.2-14.7-23.6-18.2l-1.6-2.5 18.2-3.3c18-3.2 22.6-4.8 22.6-7.6 0-3.2-4.4-3.4-19.6-.9-8.2 1.3-17.9 2.7-21.5 3l-6.5.7-2.8-6.2c-6.3-14.2-9.2-27.4-8.4-38.3.3-3.5 2.2-11.4 4.2-17.5 4.3-13.6 5.6-21.3 5.6-35.8 0-21.2 3-42.6 7.1-50.7 2.1-4.1 7.2-6.4 11.7-5.3 3.9.9 20.1 12 32.2 22.1 15 12.4 13.6 11.8 20.5 9.3 7.5-2.6 18.8-3.9 34.8-3.9h12.8l11.6-11.1c6.4-6.1 13.9-13 16.8-15.4 11.6-9.9 19.2-11.9 22.6-6m165.7 2c6.1 1.4 11.3 2.5 11.6 2.5s.6 6.5.6 14.4v14.4l-9.2-2.3c-5.1-1.3-10.5-2.6-12-2.9l-2.8-.6v-14c0-7.7.2-14 .4-14s5.3 1.1 11.4 2.5m111 2c.8.7-14.3 8.5-16.6 8.5-2.5 0-19.4-2.9-20-3.5-.3-.2 13.2-5.1 16.3-5.9 1.9-.4 19.7.4 20.3.9m-318.8.8c0 .2-1 1.2-2.2 2.3l-2.3 1.9 1.9-2.3c1.8-2.1 2.6-2.7 2.6-1.9m246.8 5.3 12.2 2.8v14.8c0 9.4-.4 14.8-1 14.8s-6.6-1.4-13.3-3.1l-12.2-3v-15c0-10 .3-14.8 1-14.5.6.2 6.6 1.6 13.3 3.2m103.2-.1c5.8 1.3 9.8 2.4 8.9 2.4-.8.1-5.3 1.9-9.9 4.1l-8.3 4.1-9.9-2.3c-5.4-1.2-9.8-2.5-9.8-2.9 0-.3 1.7-1.1 3.8-1.7 2-.7 6-2.3 8.7-3.6 2.8-1.4 5.2-2.4 5.5-2.5.3 0 5.2 1.1 11 2.4m-187.8 23.6c152.1 38 270.8 68.7 280.3 72.6 17.2 7 25.3 17.3 30.7 38.8 2.1 8.4 2.2 11.2 2.3 41.9v32.9L810 570.1c-23.4 10.4-46.4 20.6-51.2 22.8-8.5 3.8-8.8 3.9-8.8 1.8 0-5.6-4.2-21.3-8.3-31.5-7.7-19.1-15.7-31-32.7-48.6-18.1-18.7-36-31.4-60.5-43.2-32.8-15.8-67.5-23.5-106-23.5-22.2-.1-38.2 1.6-62.6 6.5-9.5 2-17.4 3.4-17.6 3.2-.2-.1 2.2-2 5.2-4.1 4.2-2.9 5.5-4.3 5.3-5.9-.3-1.8-1-2.1-5.4-2.1l-5.2.1-1.6-8.5c-2.2-10.8-6.3-21.4-12.5-31.6l-4.9-8-2.2-20.3c-1.2-11.2-2.1-20.4-1.9-20.6 1.3-1.1 23.8-9.6 25.6-9.6 1.2 0 34.7 8.1 74.5 18.1m-197.9-14.4c-.7.2-1.9.2-2.5 0-.7-.3-.2-.5 1.2-.5s1.9.2 1.3.5m17 0c-1.3.2-3.3.2-4.5 0-1.3-.2-.3-.4 2.2-.4s3.5.2 2.3.4m413.4 1.5c5.7 1.2 10 2.5 9.6 2.9-.5.3-5.3 2.1-10.8 3.9-9.7 3.2-10.1 3.3-17.2 2.1-4-.7-9.2-1.8-11.6-2.5l-4.2-1.2 10-3.6c5.5-1.9 10.9-3.6 11.9-3.7 1 0 6.6.9 12.3 2.1m-71.6 6.3c6.3 1.4 12.4 2.8 13.7 3 2.2.5 2.2.8 2.2 16.5 0 12.2-.3 16-1.2 16-.7-.1-7.1-1.5-14.3-3.3l-13-3.2-.3-15.8c-.1-8.7.1-15.7.6-15.7s6.1 1.1 12.3 2.5m-463.4 7.7c-.3.8-.6.5-.6-.6-.1-1.1.2-1.7.5-1.3.3.3.4 1.2.1 1.9m501 1.8c4.8 1.1 9.8 2.3 11.1 2.5 2.2.5 2.2.7 2.2 17V404l-2.2-.5c-1.3-.3-6.3-1.6-11.3-2.9l-9-2.2-.3-16.2c-.1-8.9 0-16.2.2-16.2s4.4.9 9.3 2m48.3 21.4v23.4l-10.6-2.9c-5.9-1.6-10.9-3-11.1-3.3-.6-.5-.4-34.8.1-35.4.6-.5 17.8-5 19.9-5.1 1.6-.1 1.7 1.6 1.7 23.3m-550.3-9.7c-.3 1-.5.2-.5-1.7s.2-2.7.5-1.8c.2 1 .2 2.6 0 3.5m-10 63.5c-.3.8-.6.5-.6-.6-.1-1.1.2-1.7.5-1.3.3.3.4 1.2.1 1.9m0 15c-.3.7-.5.2-.5-1.2s.2-1.9.5-1.3c.2.7.2 1.9 0 2.5m9.5 32.6c5.2 10.9 12.7 20.5 22 28.3l6.2 5.2.4 14.6c.2 8 .4 16.1.5 17.9l.2 3.4-19.5 8.7c-37.3 16.7-54.1 26.1-61.4 34.1l-3.6 4v-25.2c0-13.9-.5-28-1-31.3-2.3-14.1-13.7-29.6-26.1-35.5-3.7-1.7-5.7-3.1-4.8-3.5 11.6-4.2 50.4-18.8 63.4-23.9 9.4-3.6 17.5-6.5 18-6.5.6-.1 3.1 4.3 5.7 9.7M108 515.4c0 .2-.8 1-1.7 1.7-1.6 1.3-1.7 1.2-.4-.4s2.1-2.1 2.1-1.3m34.6 8.7c8.5 4.2 18.3 14.5 21.5 22.6l2.4 5.8.3 100.9c.2 96.3.2 100.8-1.5 100.1-1-.4-11.2-3.8-22.6-7.6s-22.1-7.6-23.7-8.4c-3.9-2-6.8-7.8-8-16.2-1.4-9.6-1.3-180.6.1-185.6 1.3-4.8 6.7-10.9 12.2-13.7 5.4-2.7 10.6-2.1 19.3 2.1M96.7 668.8c-.1 24-.2 4.3-.2-43.8s.1-67.8.2-43.7c.2 24 .2 63.4 0 87.5m782.8-99.6c16.6 6.2 28.3 16.3 32.6 28 2.3 6.2 2.3 6.8 2.6 59.8.2 29.4 0 66.8-.5 83-1 32.1-1.8 36.5-7.1 41.6-2.6 2.6-30.7 16.4-102.6 50.6-20.9 9.9-45.4 21.6-54.4 25.9-9 4.4-16.5 7.9-16.7 7.9s-.5-41.7-.6-92.7c-.3-87.1-.4-93.1-2.2-98.3-5.5-16.6-14.6-27.1-29.3-34.1l-9-4.3 38.6-16.9c21.2-9.3 57.7-25.5 81.1-35.9l42.5-18.9 8 .4c5.9.3 10.4 1.3 17 3.9m-606.2 13.1c5.6 10.8 14 21.1 22 27l5.8 4.2-3.3.3c-7.4.6-25.8 4.5-34.8 7.4-12.8 4.1-22.7 9.2-33.5 17.3-10.2 7.7-15.6 10.4-20.2 10.5-2.8 0-3.3-.4-4.2-3.5-.7-2.6-.6-5 .4-8.8 1.7-6.3.6-7.9-3.2-5-4.1 3-6.5 7.7-6.5 12.8 0 4.9-.3 5.1-5.2 3.1-5.2-2.2-8.9-7.8-8.8-13.2.1-9 10-23.2 21-30.3 6.6-4.2 62.6-30.9 65.2-31 .3-.1 2.7 4.1 5.3 9.2m655.4 27.4c-.2 1.6-.4.5-.4-2.2 0-2.8.2-4 .4-2.8.2 1.3.2 3.5 0 5m0 116.5c-.1 20.5-.2 4-.2-36.7s.1-57.5.2-37.3c.2 20.1.2 53.4 0 74M320 626.1c-.8.5-8.7 5-17.5 10.1-25 14.2-36.1 23.4-40.8 33.6-3.4 7.3-3.1 19.8.6 27.3 7.3 14.9 24.2 22.3 41.2 17.9 9.5-2.4 14.2-4.9 24-12.5 15.2-11.7 20.5-14 53.9-22.5 24.3-6.2 32.4-8.7 44.5-13.9l7.5-3.2 11.6 3c19.2 5 37 7.3 58 7.4 10.2.1 21.9-.2 26-.5 6.1-.6 6.8-.5 4 .4-24.6 7.4-31.9 11.6-37.5 21.9-6.2 11.5-4 26.2 5.3 35.7 12.1 12.2 26.7 14.4 60.2 9.1 13.1-2.1 46.6-10.1 50.1-12 1.2-.6 2.3-.8 2.6-.6.7.8-3.5 2.8-20.2 9.7-25 10.3-29.1 13.1-34.5 23.2-3 5.5-3.5 7.4-3.8 15.4-.4 8.3-.2 9.7 2.3 15.3 6.8 15.2 21.2 21.7 45.8 20.9l12.7-.5v9.5c0 7.1-.3 9.3-1.2 8.9-1.3-.4-13.9-4.4-42.8-13.4-8-2.4-28.4-8.9-45.5-14.3-17-5.5-50.3-16-74-23.4-23.6-7.4-61.9-19.3-85-26.6-23.1-7.2-51-16-62-19.4-11-3.5-31.7-10.1-46-14.6-54.7-17.1-63.4-20.5-71-27.1-5.9-5.2-7.5-10-8.2-24.1l-.6-12.3 3.1 2.7c9.4 7.9 25.6 9 39.2 2.6 4.1-1.9 10.9-6.3 15-9.8 13.3-11.2 30.1-17.2 62.5-22.4 16.4-2.6 23-3.1 20.5-1.5M687.5 649c11.7 4 19.9 10.9 25.8 21.8 2.9 5.4 6.7 18.6 6.7 23.5 0 9.4-6.5 25.3-16.5 40.2-19.2 28.9-47.2 50.3-79.5 61.1-7.7 2.5-9.9 2.8-22.5 2.9-13.9 0-14.1 0-20.8-3.3-8.6-4.3-11.7-9-11.7-17.8.1-12.9 5.1-18 27.3-27.7 27.2-11.9 45-23.5 51.9-33.7 7.4-10.9 8.8-18.6 7.8-41.5-.5-10 1.1-15.6 5.8-20.7 6.4-6.8 15.2-8.4 25.7-4.8m-491.3 61.9c8 3.6 68.2 23.1 126.3 41 59.4 18.2 124.3 38.6 189.5 59.6 26.1 8.4 60.2 19.2 75.8 24.1l28.2 8.8v27.4c0 25.6-.1 27.3-1.7 26.8-15.9-5-32.9-10.4-45.8-14.6-8.8-2.8-24.2-7.8-34.2-11.1-10.1-3.2-38.9-12.6-64-20.8-25.2-8.2-61.5-20-80.8-26.1-19.2-6.2-41.7-13.4-50-16-48.8-15.7-123.4-39.5-145-46.3l-14-4.3-.3-29.3-.2-29.3 4.9 3.6c2.7 2 7.8 4.9 11.3 6.5m523.8 92c0 68.2 0 69-2 69.6-1.1.4-17.9 8.3-37.3 17.7l-35.2 17.1-5-1.1c-2.7-.6-6.2-1.5-7.7-2.1L630 903v-95.5l8.3-3.2c15.7-6.3 37.8-20.2 51.3-32.6 8.7-7.9 20.8-22.6 25.8-31.1 2.1-3.6 4-6.6 4.2-6.6s.4 31 .4 68.9m-613.9-57.2c1.3 1.6 1.2 1.7-.3.4-1-.7-1.8-1.5-1.8-1.7 0-.8.8-.3 2.1 1.3m52.1 21.9c14 4 12.8 2.2 12.8 19.1v14.5l-3.2-.6c-5.1-1-14-4.7-17.5-7.3l-3.3-2.4v-13c0-7.5.4-12.9 1-12.9.5 0 5.1 1.2 10.2 2.6m37.8 13.9c0 2.1-1.1 4.5-2.1 4.5-.5 0-.9-1.6-.9-3.5 0-2.6.3-3.3 1.5-2.9.8.4 1.5 1.2 1.5 1.9m57.4 15.1c21.5 6.9 48.3 15.5 59.6 19.1 31.2 9.9 112.6 36.1 138.5 44.6 52.6 17.3 102 33.2 118.8 38.3l12.7 3.9v19c.1 12.7.5 20.2 1.4 22.5l1.2 3.6-9-2.9c-5-1.6-51.2-16.7-102.6-33.7-51.4-16.9-104.5-34.4-118-38.8s-47.9-15.7-76.5-25c-28.6-9.4-62.1-20.3-74.5-24.3-21.6-6.9-26.7-8.9-22.4-8.9 1 0 6.9-1.6 13-3.6 15-4.8 16.4-6.3 17.1-17.8.3-4.7.8-8.6 1.1-8.6s18.1 5.7 39.6 12.6m639.3 29.6c-.2 3.5-.3.7-.3-6.2s.1-9.7.3-6.3c.2 3.5.2 9.1 0 12.5m-14.3-1.5-.2 13.8-3.4 2.2c-5.1 3.4-15.2 5.6-22.2 4.9-3.3-.3-6-.7-6.1-.9-.1-.1-.5-4.4-.9-9.5l-.6-9.2 3.8-1.5c2-.9 9.3-4.2 16.2-7.4 6.9-3.3 12.8-6 13.1-6 .3-.1.4 6.1.3 13.6m14.3 13c-.3 1-.5.2-.5-1.7s.2-2.7.5-1.8c.2 1 .2 2.6 0 3.5m-65.7 4.5c0 5.8 2.3 10.6 6.2 13.2 7.7 5 29.8 6 40.5 1.8l5.3-2-2.3 2.9c-3.1 4-35.2 20.1-138.7 69.6-55.7 26.7-64.9 30.2-82.5 31.8l-8 .7 3.5-2.3c2-1.4 4.6-4.6 6-7.4 2.3-4.6 2.5-6.4 2.9-20.5l.3-15.5 9.7-4.4c11.8-5.4 62-29 115.6-54.2 22-10.4 40.3-18.9 40.8-18.9.4 0 .7 2.4.7 5.2m-208 78.5c0 7.1.1 7.4 2.8 8.5 1.5.6 3.1 1 3.7.9.5-.2.7 0 .3.4s-.3 1.7.2 3c1.1 3-.5 14.5-2.2 15.7-3.2 2.2-18.4-2.6-23.5-7.4-2.2-2.1-2.3-2.8-2.3-18.3v-16.2l10.5 3 10.5 3zm24.7 14.5c-.3.8-.6.5-.6-.6-.1-1.1.2-1.7.5-1.3.3.3.4 1.2.1 1.9m-54.6 16.5c1.3 1.6 1.2 1.7-.3.4-1.7-1.3-2.2-2.1-1.4-2.1.2 0 1 .8 1.7 1.7"/><path d="M490.5 117.8c-.3.3-.5 32.2-.5 70.9V259l2.3.9c2.3.9 48.8 11.5 96.2 22 14.9 3.3 44.1 9.9 65 14.6s46.3 10.4 56.5 12.6 30.4 6.6 45 9.9c32.9 7.4 41.3 9 42.3 8.1.4-.4.6-33.3.5-73.2l-.3-72.4-46-9.6c-48.9-10.2-96.3-20.1-158-33.1-20.9-4.4-50.6-10.6-66-13.8s-29.9-6.3-32.2-6.8-4.4-.7-4.8-.4m29.1 18.2c7.6 1.6 13.9 3.1 14 3.3.2.2-2 1.1-4.9 2.1-2.8 1.1-8.9 3.4-13.5 5.2-4.5 1.9-8.9 3.4-9.7 3.4-1.2 0-1.5-1.6-1.5-8.5 0-4.8.4-8.5 1-8.5.5 0 7.1 1.3 14.6 3m40.4 12.1c2.5.6 6.2 1.1 8.3 1.1 2 0 3.7.3 3.7.7 0 .3-3.3 1.8-7.2 3.3-4 1.5-10.4 3.9-14.3 5.4-7.6 2.8-6.9 2.9-24-.8l-5-1.1 14-4.7c15.2-5.1 17.7-5.5 24.5-3.9m36.8 121.5c-.3.2-7.7-1.4-18.5-4.1l-2.3-.5V161.2l10.3-3.5 10.2-3.4.3 57.5c.1 31.6.1 57.6 0 57.8m20.5-112.7c3.8.9 6.7 2 6.5 2.6-.2.8-10.2 5.5-11.7 5.5-.2 0 .4-.9 1.4-2 1.6-1.7 1.6-2 .2-2.6-2.3-.8-5.2 0-4.9 1.5.1.6-.4 2.2-1.3 3.4-1.4 2-1.5 1.9-1.5-3 0-2.8-.3-5.9-.6-6.8-.6-1.3-.2-1.5 2.2-.9 1.6.4 6 1.5 9.7 2.3m33.9 6.2c2.9.6 5.9 1.3 6.7 1.6.8.2-3.4 2.6-9.4 5.4l-11 4.9-6.6-1.5c-9-2-11.8-3.1-9.9-3.9 6.4-2.5 21.8-7.6 23.2-7.6.9 0 4 .5 7 1.1m-132.3 2.4c6.8 1.4 12.7 2.7 13.2 3 .5.4.9 18.5.9 43.9v43.3l-8.2-1.8c-4.6-1.1-11.1-2.6-14.5-3.6l-6.3-1.6v-42.8c0-35.5.2-42.9 1.4-42.9.7 0 6.8 1.1 13.5 2.5m45.1 49.1v47.6l-2.2-.5c-1.3-.3-5.8-1.3-10-2.2l-7.8-1.7v-42.4c0-33.1.3-42.6 1.3-42.9.6-.2 5-1.5 9.7-2.8 4.7-1.4 8.6-2.5 8.8-2.6.1 0 .2 21.3.2 47.5m128.6-42c5.5 1.5 10.9 2.9 12.2 3.1 2.6.6 3 2.3.5 2.3-1 0-4.7.9-8.1 2-7.4 2.3-10.2 2.6-5.3.5 2.8-1.3 3.2-1.7 2.1-3.1q-1.35-1.5-5.4-1.2c-3.5.3-4.1.6-4.4 2.8-.3 2.1-1.9 3.2-10 6.9-5.3 2.5-10.2 4.8-10.8 5.3-.7.5-1.1 12-1.2 35.5-.1 19.2-.1 39.8-.2 46v11.1l-3.2-.8c-1.8-.5-5.2-1.4-7.5-2l-4.3-1.1v-97.4l12.8-4.4c7-2.5 14.5-5.2 16.7-6.2 5.2-2.3 4.7-2.3 16.1.7m-58.3 58.1c.1 25.4 0 46.4-.3 46.6-.3.3-5.9-.7-12.5-2.2l-12-2.8-.3-46.4-.2-46.5 12.5 2.6 12.6 2.5zm102.3-44.4c.5.5-11.9 5.9-25.6 11.3l-8.4 3.4-8.8-1.7c-4.8-.9-8.5-1.9-8.3-2.2.5-.4 6.1-2.5 23.5-8.7 8.7-3 10.3-3.3 18.4-2.9 4.8.2 9 .6 9.2.8m44.4 3.9c0 .4-.6.8-1.4.8-.7 0-4.5 1.3-8.5 2.9l-7.1 3-7.5-1.6c-6.9-1.5-9.9-3.3-5.7-3.3.9 0 4.6-1.3 8.2-2.8 6.5-2.8 6.5-2.8 14.3-1.3 4.2.8 7.7 1.8 7.7 2.3M721.3 207c1.6 0 1.7 2.8 1.7 45.5 0 25-.3 45.5-.7 45.4-.5 0-4.4-.8-8.8-1.8l-8-1.7-.3-42.6-.2-42.6 3.7-1.6c2.2-.9 5.3-1.4 7.3-1.1 1.9.3 4.3.5 5.3.5"/><path d="M506 145.9c-.5 1.1-.7 2.2-.2 2.4 1.2.8 7.4-2.2 6.7-3.3-1.1-1.7-5.4-1.1-6.5.9m110.6 13c-.4.5-.2 1.2.3 1.5.5.4 1.2.2 1.5-.3.4-.5.2-1.2-.3-1.5-.5-.4-1.2-.2-1.5.3m-220.3 273c-4.7 2.2-6.3 4.5-6.3 9.4 0 6.8 8.8 11.1 17.6 8.7 11.4-3.2 12.5-15.9 1.6-19-5.3-1.4-8.1-1.2-12.9.9m-81.8 7.6c-4 2.1-6.5 5.2-6.5 8.2 0 11.1 18.6 15.5 26.4 6.2 4.3-5.1 2.9-11.1-3.4-14.4-3.7-1.9-12.7-1.9-16.5 0m42.5 16.4c-1.6 3-1.3 4.2 2.6 9.9 3.1 4.7 3.6 6.1 3.5 11.5 0 5.1-.4 6.5-2.2 8-5.2 4.2-12.3 3-21.5-3.9-6.2-4.6-8.8-5.3-11.9-3-1.8 1.3-1.8 1.6 1.8 5.9 11.4 13.9 28.7 17.2 39.4 7.5l2.2-2 4.4 2.1c6.3 3.1 15.2 2.9 21.8-.4 5.2-2.7 8.9-7.3 8.9-11.3 0-3.5-2.5-3.7-6.7-.3-4 3.2-11 6.1-14.8 6.1-1.2 0-3.4-.9-4.9-2.1-2.3-1.8-2.6-2.7-2.6-8.4s.3-6.8 3-9.8c6.5-7.4 2.4-13.8-6.6-10.4-4.1 1.5-4.9 1.5-7.4.2-4-2.1-7.7-1.9-9 .4"/></g></svg>