<svg version="1.1" xmlns="http://www.w3.org/2000/svg" style="display: block;" viewBox="0 0 2048 2048" width="1024" height="1024">
<defs>
	<linearGradient id="Gradient1" gradientUnits="userSpaceOnUse" x1="710.696" y1="1240.28" x2="747.865" y2="1355.11">
		<stop class="stop0" offset="0" stop-opacity="1" stop-color="rgb(201,85,24)"/>
		<stop class="stop1" offset="1" stop-opacity="1" stop-color="rgb(230,114,29)"/>
	</linearGradient>
	<linearGradient id="Gradient2" gradientUnits="userSpaceOnUse" x1="1342.37" y1="1537.44" x2="1265.67" y2="1432.22">
		<stop class="stop0" offset="0" stop-opacity="1" stop-color="rgb(197,85,22)"/>
		<stop class="stop1" offset="1" stop-opacity="1" stop-color="rgb(226,112,26)"/>
	</linearGradient>
</defs>
<path transform="translate(0,0)" fill="rgb(70,25,16)" d="M 922.959 666.991 C 921.664 632.936 922.575 598.548 922.581 564.459 L 922.576 378.925 L 922.691 251.555 C 922.72 230.702 921.237 208.853 923.044 188.121 C 923.536 182.478 925.515 176.101 929.393 171.802 C 933.147 167.641 940.482 164.657 945.673 162.589 C 972.908 151.74 1002.24 143.94 1030.16 134.946 C 1049.47 128.728 1119.53 103.572 1135.17 103.342 C 1151.91 103.095 1194.35 113.699 1213.83 117.522 C 1271.4 128.476 1328.91 139.721 1386.36 151.257 L 1662.9 204.198 C 1711.5 213.476 1760.99 221.513 1809.08 232.976 C 1815.62 234.536 1821.77 237.104 1826.61 241.921 C 1833.88 249.157 1834.89 258.646 1835.61 268.436 C 1836.51 280.871 1836.03 293.595 1836.04 306.071 L 1836.04 371.59 L 1836.04 574.734 L 1835.77 1156.77 C 1844.57 1170.14 1852.91 1182.69 1855.52 1198.82 C 1858.73 1218.6 1857.3 1239.76 1857.2 1259.77 L 1857.08 1345.91 L 1857.08 1466.43 C 1857.08 1492.12 1859.38 1520.53 1854.09 1545.69 C 1849.83 1565.97 1838.3 1581.61 1820.9 1592.71 C 1810.17 1599.55 1797.77 1605.21 1785.84 1609.61 L 1785.68 1611.37 C 1783.75 1634.67 1791.95 1683.74 1773.52 1699.78 C 1768.07 1704.52 1761.07 1707.54 1755.74 1712.24 C 1750.55 1720.64 1746.41 1722.92 1738.24 1728.25 C 1654.74 1769.61 1570.92 1810.33 1486.79 1850.4 C 1461.93 1862.42 1436.99 1874.26 1411.96 1885.92 C 1393.19 1894.67 1374.24 1903.78 1354.57 1910.32 C 1337.88 1915.87 1320.93 1918.35 1303.51 1920.11 L 1296.5 1919.78 C 1276.57 1927.11 1258 1931.81 1236.71 1928.61 C 1211.24 1924.79 1186.27 1915.83 1170.53 1894.56 L 1169.64 1894.8 C 1152.31 1888.51 1134.33 1883.72 1116.83 1877.87 L 937.301 1818.75 L 384.943 1637.86 C 377.23 1635.8 368.845 1633.09 361.641 1629.67 C 334.944 1630.65 303.247 1627.76 282.877 1608.2 C 271.168 1596.95 269.87 1582.84 269.854 1567.58 L 270.141 1517.56 C 246.314 1509.82 214.641 1503.18 202.314 1478.68 C 197.846 1469.63 195.188 1459.79 194.49 1449.72 C 192.656 1425.89 193.246 1401.56 193.212 1377.65 L 193.138 1270.01 L 193.026 1147.64 C 193.009 1125.63 192.142 1103.27 193.288 1081.31 C 193.7 1073.41 194.578 1065.34 197.161 1057.82 C 203.354 1039.8 216.378 1028.08 233.212 1020.08 C 265.895 1004.54 305.729 990.898 339.862 977.685 C 378.046 962.903 416.035 946.612 454.628 933.012 C 447.234 906.113 449.664 878.114 458.793 851.986 C 462.82 840.461 467.736 828.92 469.286 816.726 C 471.304 800.856 470.389 784.292 470.673 768.282 C 471.194 738.931 474.646 693.202 488.978 668.232 C 495.193 657.403 504.636 648.924 516.943 645.868 C 535.217 641.329 555.527 648.463 570.91 658.259 C 593.11 672.395 614.065 695.69 635.193 708.631 C 664.774 702.116 693.535 698.083 723.871 701.788 C 724.242 701.534 724.616 701.285 724.983 701.025 C 734.713 694.126 742.75 684.059 751.049 675.475 C 771.782 654.03 803.024 624.291 835.635 629.793 C 846.188 631.573 855.314 636.452 861.371 645.457 C 868.86 656.59 872.983 673.932 874.614 687.042 C 890.622 679.506 906.221 672.781 922.959 666.991 z"/>
<path transform="translate(0,0)" fill="rgb(252,165,47)" d="M 426.253 1567.37 L 1166 1805.5 C 1165.78 1830.55 1162.02 1871.84 1170.53 1894.56 L 1169.64 1894.8 C 1152.31 1888.51 1134.33 1883.72 1116.83 1877.87 L 937.301 1818.75 L 384.943 1637.86 C 377.23 1635.8 368.845 1633.09 361.641 1629.67 C 377.126 1625.49 413.496 1619.1 421.59 1605 C 427.641 1594.47 426.177 1579.21 426.253 1567.37 z"/>
<path transform="translate(0,0)" fill="rgb(252,165,47)" d="M 1319.94 1829.47 C 1351.73 1815.88 1382.88 1800.33 1414.18 1785.61 L 1557.5 1718.56 C 1589.24 1703.62 1621.29 1685.82 1654.17 1673.82 C 1653.97 1679.77 1653.35 1686.24 1654.57 1692.08 C 1656.36 1700.72 1661.03 1707.64 1668.6 1712.23 C 1685.66 1722.59 1715.98 1722.37 1734.87 1718.48 C 1741.39 1717.14 1747.59 1714.22 1754.07 1712.64 L 1755.74 1712.24 C 1750.55 1720.64 1746.41 1722.92 1738.24 1728.25 C 1654.74 1769.61 1570.92 1810.33 1486.79 1850.4 C 1461.93 1862.42 1436.99 1874.26 1411.96 1885.92 C 1393.19 1894.67 1374.24 1903.78 1354.57 1910.32 C 1337.88 1915.87 1320.93 1918.35 1303.51 1920.11 L 1296.5 1919.78 C 1299.93 1917.43 1303.58 1915.08 1306.55 1912.17 C 1325.53 1893.6 1320.12 1854.02 1319.94 1829.47 z"/>
<path transform="translate(0,0)" fill="rgb(252,165,47)" d="M 746.414 719.004 C 761.164 704.092 807.311 655.018 828.177 655.664 C 831.147 655.756 833.259 656.754 835.225 658.975 C 847.85 673.235 851.582 730.022 854.096 750.247 C 856.896 767.79 856.486 786.17 859.774 803.462 C 864.987 813.185 871.353 822.222 876.659 831.885 C 888.826 854.039 897.875 882.416 897.851 907.864 C 887.125 908.4 849.894 910.197 843.206 917.077 C 841.049 919.295 841.76 920.979 842.084 923.743 C 843.827 926.796 846.105 928.033 849.449 928.877 C 853.545 929.912 858.038 929.701 862.239 929.684 C 872.184 927.537 883.649 928.662 893.888 927.925 C 883.064 943.032 873.847 952.593 855.768 958.695 C 851.437 960.408 844.152 962.261 842.021 966.733 C 841.333 968.178 841.905 968.753 842.356 970.169 C 846.59 973.65 851.924 973.978 857.23 973.399 C 863.297 972.737 868.05 969.989 873.07 966.745 C 856.947 989.938 837.349 1008.58 814.883 1025.51 C 804.333 1033.58 793.177 1040.84 781.514 1047.2 C 774.82 1050.91 767.292 1054.14 761.01 1058.46 C 759.001 1059.85 758.38 1060.31 757.54 1062.55 C 759.146 1065.61 761.14 1066.39 764.394 1067.4 C 771.242 1069.53 777.358 1070.22 784.495 1069.27 C 823.951 1056.16 865.25 1023.79 890.348 991.347 C 901.405 977.055 909.972 961.53 918.042 945.438 C 936.863 942.352 955.664 939.146 974.444 935.821 C 989.545 933.556 1004.69 931.604 1019.87 929.964 C 1042.18 925.956 1088.8 923.547 1111.04 926.876 C 1127.93 927.316 1144.59 929.383 1161.3 931.694 C 1185.84 935.892 1212.69 940.353 1235.88 949.633 C 1267.8 960.683 1297.49 974.736 1326.02 992.886 C 1348.61 1007.55 1375.25 1024.78 1392.56 1045.6 C 1404.29 1057.34 1414.87 1069.69 1425.08 1082.76 C 1454.7 1116.37 1467.13 1162.21 1471.73 1205.67 L 1418.06 1229.36 C 1409.55 1233.18 1400.77 1238.35 1391.96 1241.26 L 1390.68 1241.93 C 1351.4 1262.4 1303.57 1268.78 1288.29 1317.23 C 1284.12 1330.47 1283.5 1344.99 1284.4 1358.76 C 1285.38 1374.95 1286.94 1395 1275.19 1408.05 C 1266.73 1417.45 1247.68 1421.01 1235.82 1424.62 C 1187.04 1439.45 1123 1456.1 1072.27 1457.38 C 1062.25 1457.63 1046.92 1458.14 1039.49 1450.28 C 1037.83 1448.53 1036.45 1446.29 1035.26 1444.21 C 1034.48 1437.25 1034.99 1430.82 1038.87 1424.77 C 1044.31 1416.3 1053.56 1414.29 1062.7 1412.49 C 1052.26 1410.76 1039.59 1407.7 1029.52 1412.27 C 1020.13 1416.53 1016.69 1425.19 1013.21 1434.15 C 1010.2 1423.79 1008.53 1414.23 1014.24 1404.38 C 1019.77 1394.84 1028.37 1388.88 1038.06 1384.16 C 1057.97 1374.45 1082.21 1370.14 1103.53 1363.85 C 1134.85 1354.61 1165.88 1344.16 1197.39 1335.61 L 1195.08 1335.09 C 1180 1331.63 1165.39 1326.41 1150.74 1321.47 C 1118.92 1310.75 1091.91 1302.43 1073.32 1272.18 C 1058.23 1247.63 1054.3 1216.12 1061.2 1188.26 C 1069.63 1154.2 1091.88 1128.44 1123.86 1114.41 C 1134.05 1109.94 1145.29 1107.6 1154.87 1101.83 C 1157.63 1097.7 1159.15 1094.91 1158.29 1089.87 C 1156.69 1087.21 1155.36 1085.7 1152.48 1084.41 C 1143.38 1080.33 1132.01 1081.75 1122.88 1085 C 1088.34 1097.29 1058.61 1123.08 1042.87 1156.37 C 1026.8 1190.35 1026.11 1230.31 1038.63 1265.51 C 1047.4 1285.69 1057.46 1299.55 1073.21 1314.72 C 1059.31 1314.66 1045.28 1317.08 1031.35 1317.69 C 980.745 1319.92 938.729 1316.93 889.847 1303.23 C 893.765 1297.25 897.101 1291.25 898.865 1284.26 C 901.816 1272.56 899.209 1262.42 893.089 1252.34 L 891.835 1250.64 C 892.011 1248.87 892.196 1247.8 891.511 1246.11 C 887.522 1236.23 876.411 1225.09 867.069 1220.42 C 862.854 1220.5 858.672 1220.62 854.504 1221.3 C 848.34 1222.32 836.514 1223.99 832.748 1229.27 C 835.418 1233.13 837.547 1236.16 837.937 1240.97 C 838.712 1250.53 838.61 1258.22 831.844 1265.71 C 794.883 1306.66 772.672 1231.65 724.957 1233.64 L 723.731 1233.71 C 726.658 1230.68 729.826 1227.64 731.741 1223.84 C 734.43 1218.48 734.758 1212.24 732.647 1206.62 C 731.685 1204.12 730.386 1202.96 727.967 1201.83 C 721.9 1201.75 718.133 1206.28 714.067 1210.18 C 701.657 1222.07 681.929 1228.3 665.575 1232.38 C 641.579 1225.64 618.184 1210.02 600.359 1192.87 C 564.001 1157.88 553.022 1112.72 551.909 1063.74 C 567.674 1071.91 591.554 1083.27 609.901 1080.78 C 613.82 1080.25 617.656 1078.71 619.893 1075.27 C 621.855 1072.26 622.537 1067.39 621.351 1064.02 C 617.981 1054.43 594.397 1050.65 585.403 1047.49 C 578.839 1045.18 572.571 1042.36 566.298 1039.36 C 546.881 1030.77 526.597 1012.76 513.268 996.395 C 525.591 995.055 537.885 992.604 550.139 990.71 C 560.333 988.896 570.705 987.504 580.794 985.183 C 586.728 983.817 592.252 982.024 595.597 976.671 C 595.871 973.837 595.879 973.656 594.444 971.208 C 585.472 964.928 557.034 972.902 545.761 974.532 C 531.319 977.004 516.818 979.114 502.27 980.862 C 497.356 972.907 493.544 964.679 490.135 955.986 C 485.848 945.93 483.15 936.016 481.044 925.298 C 472.388 871.821 490.405 866.191 496.572 818.941 C 501.183 783.616 494.879 712.037 512.844 682.594 C 515.582 678.107 519.504 674.514 524.766 673.424 C 550.319 668.132 606.557 725.289 628.086 739.679 L 629.257 740.453 C 647.584 734.014 662.659 730.213 682.1 728.924 C 700.175 728.611 718.944 730.485 736.769 727.107 L 746.414 719.004 z"/>
<path transform="translate(0,0)" fill="rgb(219,110,27)" d="M 1425.08 1082.76 C 1454.7 1116.37 1467.13 1162.21 1471.73 1205.67 L 1418.06 1229.36 C 1409.55 1233.18 1400.77 1238.35 1391.96 1241.26 C 1395.92 1227.37 1410.56 1211.52 1418.1 1198.6 C 1426.93 1183.5 1431.84 1167.03 1436.61 1150.33 C 1410.94 1159.02 1360.13 1183.15 1334.43 1178.11 C 1329.29 1177.11 1324.32 1174.93 1321.45 1170.34 C 1318.67 1165.89 1318.18 1159.86 1319.39 1154.84 C 1320.86 1148.73 1324.99 1142.49 1329.55 1138.21 C 1346.04 1122.76 1378.41 1109.89 1398.66 1099.16 C 1407.95 1094.23 1416.1 1088.02 1425.08 1082.76 z"/>
<path transform="translate(0,0)" fill="rgb(219,110,27)" d="M 1019.87 929.964 C 1042.18 925.956 1088.8 923.547 1111.04 926.876 C 1104.98 927.072 1099.07 926.911 1093.03 926.518 C 1095.71 945.937 1051.23 1054.89 1038.23 1071.09 C 1033.07 1077.52 1025.08 1082.83 1016.76 1083.68 C 1011.3 1084.24 1006.15 1082.67 1001.95 1079.12 C 993.352 1071.86 989.82 1058.38 989.214 1047.47 C 987.905 1023.89 1001.73 1001.12 1008.43 979.112 C 1013.36 962.927 1016.77 946.571 1019.87 929.964 z"/>
<path transform="translate(0,0)" fill="rgb(219,110,27)" d="M 1326.02 992.886 C 1348.61 1007.55 1375.25 1024.78 1392.56 1045.6 C 1392.13 1047.96 1392.54 1048.17 1390.59 1049.79 C 1375.59 1049.94 1360.69 1052.37 1346.41 1056.98 C 1328.1 1062.88 1310.15 1069.87 1292.68 1077.92 C 1277.48 1084.92 1261.8 1093.71 1245.71 1098.18 C 1239.26 1099.98 1232.7 1100.85 1226.19 1098.82 C 1221.18 1097.25 1216.79 1094.03 1214.39 1089.29 C 1211.53 1083.62 1211.97 1077.37 1214.2 1071.58 C 1225.95 1041.09 1296.29 1006.92 1326.02 992.886 z"/>
<path transform="translate(0,0)" fill="rgb(219,110,27)" d="M 1161.3 931.694 C 1185.84 935.892 1212.69 940.353 1235.88 949.633 C 1219.83 984.337 1194.63 1024.39 1160.91 1044.22 C 1152.22 1049.32 1132.98 1059.14 1122.99 1055.43 C 1119.42 1054.1 1116.76 1050.37 1115.37 1046.97 C 1105.22 1022.23 1149.98 957.684 1160.75 932.981 L 1161.3 931.694 z"/>
<path transform="translate(0,0)" fill="rgb(219,110,27)" d="M 893.089 1252.34 C 903.988 1251.53 923.083 1262.75 934.706 1265.74 C 955.61 1271.12 975.3 1269.95 996.541 1270.68 C 1002.79 1270.89 1009.64 1272.5 1015.83 1271.9 C 1023.1 1271.2 1032.07 1264.28 1038.63 1265.51 C 1047.4 1285.69 1057.46 1299.55 1073.21 1314.72 C 1059.31 1314.66 1045.28 1317.08 1031.35 1317.69 C 980.745 1319.92 938.729 1316.93 889.847 1303.23 C 893.765 1297.25 897.101 1291.25 898.865 1284.26 C 901.816 1272.56 899.209 1262.42 893.089 1252.34 z"/>
<path transform="translate(0,0)" fill="rgb(219,110,27)" d="M 1284.4 1358.76 C 1285.38 1374.95 1286.94 1395 1275.19 1408.05 C 1266.73 1417.45 1247.68 1421.01 1235.82 1424.62 C 1187.04 1439.45 1123 1456.1 1072.27 1457.38 C 1062.25 1457.63 1046.92 1458.14 1039.49 1450.28 C 1037.83 1448.53 1036.45 1446.29 1035.26 1444.21 C 1041.39 1439.65 1065.7 1439.95 1074.34 1438.6 C 1081.64 1437.46 1088.9 1435.39 1096.05 1433.54 C 1124.83 1426.06 1152.78 1417.47 1181.2 1408.82 C 1200.01 1403.1 1219.68 1398.07 1237.58 1389.89 C 1253.61 1382.58 1267.53 1372.82 1282.59 1363.97 C 1282.92 1363.78 1283.24 1363.6 1283.57 1363.42 L 1284.4 1358.76 z"/>
<path transform="translate(0,0)" fill="rgb(219,110,27)" d="M 918.042 945.438 C 936.863 942.352 955.664 939.146 974.444 935.821 C 969.713 969.152 933.721 995.608 908.769 1014.38 C 883.325 1033.52 819.812 1076.83 788.546 1071.81 C 786.59 1071.49 785.733 1070.7 784.495 1069.27 C 823.951 1056.16 865.25 1023.79 890.348 991.347 C 901.405 977.055 909.972 961.53 918.042 945.438 z"/>
<path transform="translate(0,0)" fill="rgb(219,110,27)" d="M 746.414 719.004 C 755.904 733.412 764.62 762.448 766.729 779.951 C 765.059 782.914 763.446 785.933 761.68 788.84 C 750.709 795.008 741.429 794.725 729.399 791.415 C 721.503 789.243 713.916 785.9 706.61 782.237 C 701.559 771.79 699.794 760.009 694.549 749.626 C 690.982 742.565 682.713 737.117 682.1 728.924 C 700.175 728.611 718.944 730.485 736.769 727.107 L 746.414 719.004 z"/>
<path transform="translate(0,0)" fill="rgb(162,67,19)" d="M 790.119 740.403 C 792.569 732.217 796.774 724.424 800.149 716.576 C 806.455 701.911 811.705 687.009 820.077 673.327 C 828.436 698.524 830.89 733.434 854.096 750.247 C 856.896 767.79 856.486 786.17 859.774 803.462 C 849.993 800.105 838.055 769.19 828.246 759.791 C 818.62 762.549 809.07 764.644 799.103 765.694 C 795.124 757.623 792.76 748.979 790.119 740.403 z"/>
<path transform="translate(0,0)" fill="rgb(219,110,27)" d="M 481.044 925.298 C 494.256 921.433 543.938 924.825 555.984 931.809 C 558.396 933.208 559.194 934.841 559.653 937.489 C 561.479 948.021 554.354 961.077 548.205 969.188 C 546.844 970.983 546.277 971.112 544.163 971.988 L 543.834 973.6 L 545.761 974.532 C 531.319 977.004 516.818 979.114 502.27 980.862 C 497.356 972.907 493.544 964.679 490.135 955.986 C 485.848 945.93 483.15 936.016 481.044 925.298 z"/>
<path transform="translate(0,0)" fill="rgb(252,165,47)" d="M 490.135 955.986 C 496.995 953.927 503.038 955.568 509.157 958.866 C 516.945 963.063 524.225 968.911 531.417 974.079 C 535.477 973.22 540.015 971.794 544.163 971.988 L 543.834 973.6 L 545.761 974.532 C 531.319 977.004 516.818 979.114 502.27 980.862 C 497.356 972.907 493.544 964.679 490.135 955.986 z"/>
<path transform="translate(0,0)" fill="rgb(219,110,27)" d="M 513.268 996.395 C 525.591 995.055 537.885 992.604 550.139 990.71 L 555.131 1007.92 C 561.294 1008.31 574.669 1008.28 579.149 1012.71 C 581.18 1014.72 580.851 1020.09 580.603 1022.71 C 580.105 1027.97 578.65 1035.96 574.375 1039.48 C 572.269 1039.31 570.283 1038.99 568.212 1038.58 L 566.298 1039.36 C 546.881 1030.77 526.597 1012.76 513.268 996.395 z"/>
<path transform="translate(0,0)" fill="rgb(219,110,27)" d="M 862.239 929.684 C 872.184 927.537 883.649 928.662 893.888 927.925 C 883.064 943.032 873.847 952.593 855.768 958.695 C 858.228 949.13 860.989 939.493 862.239 929.684 z"/>
<path transform="translate(0,0)" fill="rgb(70,25,16)" d="M 716.433 907.992 C 724.925 907.289 730.946 910.326 738.353 913.934 C 742.39 911.998 746.772 909.544 751.229 908.855 C 755.674 908.167 761.322 907.871 764.92 910.994 C 774.999 919.741 750.179 937.271 752.787 955.177 C 753.577 960.596 756.709 966.443 761.312 969.549 C 777.995 980.804 795.979 956.127 808.407 954.24 C 810.479 955.678 812.002 957.065 812.584 959.659 C 813.219 962.49 812.187 965.554 810.809 967.995 C 805.939 976.629 794.031 985.827 784.18 987.879 C 768.609 991.124 755.135 987.396 741.988 979.087 C 734.908 986.61 727.328 992.59 716.926 994.585 C 701.229 997.595 686.197 991.851 673.532 982.862 C 667.907 978.87 653.205 967.613 652.512 960.602 C 652.353 958.991 653.35 957.645 654.501 956.572 C 666.3 945.572 689.012 977.515 711.15 975.266 C 715.464 974.828 721.195 972.622 723.881 969.037 C 725.619 966.717 726.352 963.168 726.803 960.37 C 730.236 939.06 713.751 932.412 712.378 918.102 C 711.985 914.008 713.925 910.992 716.433 907.992 z"/>
<path transform="translate(0,0)" fill="rgb(219,110,27)" d="M 531.255 684.003 C 547.654 689.256 574.576 714.89 583.124 729.753 C 577.352 724.82 572.487 719.053 566.543 714.278 C 567.465 715.766 568.42 717.228 569.367 718.699 C 576.67 730.052 591.581 737.464 594.489 751.579 C 595.109 754.587 594.904 757.677 592.873 760.153 C 589.006 764.864 577.226 765.411 571.259 766.567 C 548.872 772.35 532.943 779.206 518.059 797.312 C 521.779 772.303 523.353 747.14 525.82 721.992 C 526.998 709.992 526.959 695.208 531.255 684.003 z"/>
<path transform="translate(0,0)" fill="rgb(70,25,16)" d="M 639.722 875.337 C 646.454 874.95 652.814 874.993 659.203 877.555 C 665.329 880.011 670.95 884.418 673.362 890.733 C 674.987 894.945 674.791 899.641 672.823 903.703 C 668.882 911.745 660.733 914.738 652.775 917.281 C 644.042 918.497 635.2 918.228 627.314 913.843 C 622.122 910.956 617.907 906.306 616.463 900.448 C 615.317 895.95 616.031 891.181 618.443 887.215 C 623.071 879.67 631.573 877.05 639.722 875.337 z"/>
<path transform="translate(0,0)" fill="rgb(70,25,16)" d="M 803.236 860.225 C 810.283 859.803 817.833 860.465 824.064 864.047 C 828.651 866.682 832.297 870.761 833.57 875.976 C 834.69 880.559 833.785 885.29 831.339 889.298 C 826.89 896.588 819.116 899.275 811.35 901.393 C 804.023 902.448 796.209 901.972 789.67 898.202 C 784.573 895.264 780.621 890.653 779.434 884.794 C 778.424 879.82 779.597 874.653 782.655 870.603 C 787.688 863.819 795.347 861.653 803.236 860.225 z"/>
<path transform="translate(0,0)" fill="rgb(219,110,27)" d="M 950.501 193.719 C 990.016 203.127 1030.66 209.678 1070.5 217.765 L 1331.01 270.79 L 1516.79 308.484 C 1553.22 316.017 1590.15 325.352 1626.96 330.535 L 1626.61 688.655 C 1626.78 739.177 1626.6 789.7 1626.09 840.22 C 1616.04 837.536 1606.03 834.642 1596.01 831.847 L 1596.09 746.5 L 1596.05 690.331 C 1571.06 687.351 1545.88 680.44 1521.34 674.93 L 1396.89 647.032 L 980.191 554.627 C 979.394 595.035 980.198 635.669 980.304 676.091 C 970.386 673.627 960.407 671.412 950.378 669.447 C 951.272 510.899 948.597 352.245 950.501 193.719 z"/>
<path transform="translate(0,0)" fill="rgb(70,25,16)" d="M 980.547 234.331 C 997.506 237.221 1014.4 241.524 1031.27 244.981 C 1074.8 253.785 1118.27 262.899 1161.67 272.323 L 1466.11 336 C 1509.22 344.927 1552.56 355.615 1595.98 362.735 L 1595.99 656.461 C 1471.27 630.104 1346.81 602.577 1222.62 573.884 C 1141.81 555.556 1060.75 538.49 980.116 519.362 L 980.203 321.428 C 980.251 295.593 977.947 259.009 980.547 234.331 z"/>
<path transform="translate(0,0)" fill="rgb(219,110,27)" d="M 1008.99 498.071 C 1006.98 491.852 1007.22 330.068 1008.85 325.661 L 1011.84 325.363 L 1021.8 327.319 C 1035.95 331.063 1050.58 334.26 1065.03 336.606 L 1065.2 511.117 C 1056.39 509.071 1027.39 504.86 1021.95 500.096 L 1021.08 497.708 C 1020.13 499.064 1019.97 500.226 1018.15 500.343 C 1015.14 500.537 1011.81 499.044 1008.99 498.071 z"/>
<path transform="translate(0,0)" fill="rgb(140,56,19)" d="M 1008.99 498.071 C 1006.98 491.852 1007.22 330.068 1008.85 325.661 L 1011.84 325.363 L 1021.8 327.319 C 1022.61 366.045 1022.05 404.857 1022.05 443.594 C 1022.04 455.648 1024.15 487.619 1021.08 497.708 C 1020.13 499.064 1019.97 500.226 1018.15 500.343 C 1015.14 500.537 1011.81 499.044 1008.99 498.071 z"/>
<path transform="translate(0,0)" fill="rgb(162,67,19)" d="M 1008.99 498.071 C 1006.98 491.852 1007.22 330.068 1008.85 325.661 L 1011.84 325.363 C 1009.37 340.35 1011.94 375.323 1012.07 392.378 C 1012.33 427.365 1011.08 462.303 1011.42 497.294 L 1008.99 498.071 z"/>
<path transform="translate(0,0)" fill="rgb(252,165,47)" d="M 1218.78 359.323 C 1235.42 362.286 1251.89 366.956 1268.72 368.585 C 1267.58 430.872 1270.85 493.464 1268.34 555.709 C 1251.74 551.729 1235.09 547.975 1218.39 544.448 C 1219.36 521.663 1218.83 498.693 1218.82 475.882 L 1218.78 359.323 z"/>
<path transform="translate(0,0)" fill="rgb(252,165,47)" d="M 1192.13 308.998 C 1193.14 309.11 1192.48 308.956 1193.91 310.025 C 1194.78 318.912 1194.17 328.017 1194.15 336.947 L 1194.1 383.879 L 1194.11 539.78 C 1184.13 536.967 1173.85 534.917 1163.74 532.594 L 1152 529.91 C 1152.87 460.799 1152.23 391.607 1152.01 322.487 C 1165.5 318.332 1178.88 313.834 1192.13 308.998 z"/>
<path transform="translate(0,0)" fill="rgb(95,189,157)" d="M 1469.99 405.697 C 1483.97 407.814 1497.95 410.934 1511.86 413.548 C 1510.4 437.183 1511.35 461.338 1511.36 485.021 L 1511.31 608.967 C 1502.5 609.991 1480.05 603.048 1469.99 601.309 L 1469.99 405.697 z"/>
<path transform="translate(0,0)" fill="rgb(219,110,27)" d="M 1344.96 347.198 C 1345.53 347.536 1346.08 347.893 1346.66 348.214 C 1351.29 350.781 1365.67 350.985 1367.29 355.551 C 1368.24 358.199 1367.9 360.108 1366.77 362.601 C 1362.2 366.837 1355.23 366.086 1350.64 370.562 C 1342.14 375.243 1334.25 379.207 1324.92 381.977 L 1324.95 532.595 L 1324.9 567.661 C 1314.22 565.518 1303.67 562.718 1293.1 560.057 C 1293.67 525.397 1291.35 490.466 1293.17 455.853 L 1293.1 364.853 C 1300.12 363.063 1306.94 360.641 1313.79 358.32 C 1324.16 355.69 1334.78 350.746 1344.96 347.198 z"/>
<path transform="translate(0,0)" fill="rgb(162,67,19)" d="M 1344.96 347.198 C 1345.53 347.536 1346.08 347.893 1346.66 348.214 C 1351.29 350.781 1365.67 350.985 1367.29 355.551 C 1368.24 358.199 1367.9 360.108 1366.77 362.601 C 1362.2 366.837 1355.23 366.086 1350.64 370.562 C 1342.14 375.243 1334.25 379.207 1324.92 381.977 L 1324.95 532.595 C 1321.3 532.22 1318.66 532.561 1315.1 533.4 L 1313.79 358.32 C 1324.16 355.69 1334.78 350.746 1344.96 347.198 z"/>
<path transform="translate(0,0)" fill="rgb(140,56,19)" d="M 1293.17 455.853 C 1294.71 483.393 1293.11 511.114 1293.99 538.675 C 1300.95 536.65 1307.92 534.504 1315.1 533.4 C 1318.66 532.561 1321.3 532.22 1324.95 532.595 L 1324.9 567.661 C 1314.22 565.518 1303.67 562.718 1293.1 560.057 C 1293.67 525.397 1291.35 490.466 1293.17 455.853 z"/>
<path transform="translate(0,0)" fill="rgb(95,189,157)" d="M 1561.17 403.573 C 1563.96 402.582 1564.91 401.666 1567.73 402.795 C 1569 405.48 1569.53 407.902 1570.05 410.788 C 1570.15 414.943 1570.39 419.133 1570.18 423.284 C 1568.63 489.396 1570.11 555.888 1570.1 622.042 C 1558.8 619.292 1547.34 616.999 1535.98 614.496 C 1536.01 548.753 1536.7 482.931 1535.83 417.199 L 1536.09 413.965 C 1539.2 408.908 1555.14 405.46 1561.17 403.573 z"/>
<path transform="translate(0,0)" fill="rgb(86,78,64)" d="M 1561.17 403.573 C 1563.96 402.582 1564.91 401.666 1567.73 402.795 C 1569 405.48 1569.53 407.902 1570.05 410.788 C 1570.15 414.943 1570.39 419.133 1570.18 423.284 C 1558.54 422.514 1547.02 420.474 1535.83 417.199 L 1536.09 413.965 C 1539.2 408.908 1555.14 405.46 1561.17 403.573 z"/>
<path transform="translate(0,0)" fill="rgb(101,39,18)" d="M 1561.17 403.573 C 1563.96 402.582 1564.91 401.666 1567.73 402.795 C 1569 405.48 1569.53 407.902 1570.05 410.788 C 1563 410.64 1555.96 410.966 1548.92 411.199 C 1553.03 409.229 1557.23 407.595 1561.28 405.481 L 1561.17 403.573 z"/>
<path transform="translate(0,0)" fill="rgb(219,110,27)" d="M 1126.73 335.133 L 1127.59 335.765 C 1130.67 346.139 1128.68 382.157 1128.66 394.973 L 1128.52 524.081 C 1118.27 522.127 1108.09 519.897 1097.97 517.392 L 1088.91 515.518 L 1088.93 345.544 C 1101.67 343.051 1114.35 338.999 1126.73 335.133 z"/>
<path transform="translate(0,0)" fill="rgb(95,189,157)" d="M 1344.95 411.629 C 1358.68 413.722 1372.4 417.007 1386.02 419.765 L 1386.03 582.517 C 1372.34 579.279 1358.68 575.981 1344.83 573.518 L 1344.95 411.629 z"/>
<path transform="translate(0,0)" fill="rgb(252,165,47)" d="M 1423.17 413.224 C 1430.68 412.75 1438.42 413.77 1445.92 414.372 C 1447.33 474.769 1446.01 535.545 1446.01 595.983 L 1436.6 593.828 L 1410.96 588.602 C 1411.2 566.132 1408.82 428.442 1412 418.796 L 1423.17 413.224 z"/>
<path transform="translate(0,0)" fill="rgb(219,110,27)" d="M 1103.13 294.414 C 1117.98 293.706 1132.15 299.607 1147.52 298.745 C 1127.42 306.795 1107.03 316.077 1086.17 321.858 C 1071.93 320.407 1057.24 316.497 1043.31 313.16 C 1063.44 307.639 1082.96 299.786 1103.13 294.414 z"/>
<path transform="translate(0,0)" fill="rgb(140,56,19)" d="M 1007.89 264.543 C 1028.79 269.03 1050.06 273.073 1070.62 278.918 L 1053.3 285.033 C 1037.6 289.991 1023.01 298.011 1007.05 302.091 C 1007.83 289.516 1007.96 277.142 1007.89 264.543 z"/>
<path transform="translate(0,0)" fill="rgb(219,110,27)" d="M 1438.27 370.439 C 1442.92 376.52 1434.69 380.545 1446.85 384.049 C 1447.17 384.141 1447.44 384.364 1447.73 384.521 C 1433.98 390.908 1419.61 396.1 1405.47 401.567 C 1392.97 399.684 1380.5 397.15 1368.03 395.067 C 1391.33 386.62 1414.49 377.477 1438.27 370.439 z"/>
<path transform="translate(0,0)" fill="rgb(140,56,19)" d="M 1362.13 338.719 C 1380.51 343.329 1399.4 347.403 1417.2 353.908 C 1403.54 357.546 1389.94 361.373 1376.72 366.402 C 1366.22 370.394 1355.93 375.739 1345.17 378.902 C 1347.71 376.376 1350.18 374.781 1350.91 371.175 L 1350.64 370.562 C 1355.23 366.086 1362.2 366.837 1366.77 362.601 C 1367.9 360.108 1368.24 358.199 1367.29 355.551 C 1365.67 350.985 1351.29 350.781 1346.66 348.214 C 1346.08 347.893 1345.53 347.536 1344.96 347.198 C 1350.69 344.479 1356.6 341.83 1362.13 338.719 z"/>
<path transform="translate(0,0)" fill="rgb(219,110,27)" d="M 1288.33 324.242 C 1298.49 324.949 1308.93 327.957 1318.85 330.174 C 1307.86 334.445 1282.94 349.335 1272.5 349.605 C 1261.27 346.67 1250.02 343.844 1238.73 341.127 C 1252.51 334.581 1273.35 326.846 1288.33 324.242 z"/>
<path transform="translate(0,0)" fill="rgb(219,110,27)" d="M 1530.85 372.892 C 1541.9 374.999 1552.93 377.213 1563.94 379.532 C 1552.25 383.534 1540.74 388.019 1529.43 392.974 C 1521.34 394.071 1504.53 388.375 1495.99 386.311 C 1508.12 382.663 1519.36 378.162 1530.85 372.892 z"/>
<path transform="translate(0,0)" fill="rgb(140,56,19)" d="M 1210.22 307.999 C 1225.61 310.938 1240.86 314.69 1256.11 318.269 C 1251.05 320.08 1246.04 322.089 1241.02 324.011 C 1231.09 328.42 1221.16 332.249 1210.86 335.676 C 1210.84 326.446 1210.63 317.219 1210.22 307.999 z"/>
<path transform="translate(0,0)" fill="rgb(162,67,19)" d="M 1445.76 370.421 C 1447.89 370.074 1449.97 369.618 1452.08 369.218 C 1458.29 368.039 1467.53 370.088 1473.71 371.637 L 1474.9 372.763 C 1473.39 374.435 1472.01 374.764 1469.9 375.418 C 1462.79 378.364 1455.08 382.481 1447.73 384.521 C 1447.44 384.364 1447.17 384.141 1446.85 384.049 C 1434.69 380.545 1442.92 376.52 1438.27 370.439 C 1440.86 369.79 1443.13 370.189 1445.76 370.421 z"/>
<path transform="translate(0,0)" fill="rgb(140,56,19)" d="M 1445.76 370.421 C 1447.89 370.074 1449.97 369.618 1452.08 369.218 C 1458.29 368.039 1467.53 370.088 1473.71 371.637 L 1474.9 372.763 C 1473.39 374.435 1472.01 374.764 1469.9 375.418 C 1468.12 374.564 1468.69 374.568 1467.16 374.542 C 1459.97 374.421 1452.82 371.829 1445.76 370.421 z"/>
<path transform="translate(0,0)" fill="rgb(219,110,27)" d="M 1385.16 1273.03 L 1588.13 1184.21 C 1606.73 1175.97 1701.93 1131.1 1714.41 1130.03 C 1745.74 1127.35 1780.7 1145.04 1803.81 1164.78 C 1819.9 1178.93 1827.33 1197.3 1828.8 1218.47 C 1830.14 1237.83 1829.28 1257.64 1829.23 1277.07 L 1829.17 1375.29 L 1828.93 1466.49 C 1828.84 1487.43 1829.49 1509.17 1826.9 1529.96 C 1825.55 1540.78 1822.76 1554.46 1815.33 1562.77 C 1806.17 1573.02 1506.76 1713.22 1466.21 1732.11 L 1466.33 1494.11 L 1466.39 1423.44 C 1466.39 1403.15 1466.9 1382.63 1463.68 1362.54 C 1460.81 1344.65 1453.52 1328.71 1443.76 1313.59 C 1425.67 1292.23 1409.95 1284.68 1385.16 1273.03 z"/>
<path transform="translate(0,0)" fill="rgb(252,165,47)" d="M 1385.16 1273.03 L 1588.13 1184.21 C 1606.73 1175.97 1701.93 1131.1 1714.41 1130.03 C 1745.74 1127.35 1780.7 1145.04 1803.81 1164.78 L 1542.11 1274.42 C 1520.71 1283.35 1499.24 1292.09 1477.69 1300.64 C 1467.01 1304.98 1455.05 1311.42 1443.76 1313.59 C 1425.67 1292.23 1409.95 1284.68 1385.16 1273.03 z"/>
<path transform="translate(0,0)" fill="rgb(252,165,47)" d="M 892.051 707.571 C 903.508 702.757 920.094 693.417 932.675 694.62 C 951.694 696.439 978.59 705.297 997.979 710.22 L 1126.32 742.55 C 1239.49 770.519 1352.49 799.153 1465.33 828.451 L 1565.01 854.5 C 1589.97 860.916 1615.39 866.041 1639.37 875.737 C 1649.28 879.742 1659.1 884.67 1667.5 891.347 C 1695.64 916.645 1703.58 956.7 1705.65 992.907 C 1706.6 1009.54 1706.07 1026.44 1706.02 1043.1 C 1705.96 1062.7 1706.28 1082.38 1705.73 1101.97 C 1677.29 1115.07 1648.22 1129.14 1618.99 1140.3 C 1595.63 1151.65 1571.63 1162 1547.73 1172.15 C 1532.82 1180.37 1515.53 1185.94 1500.08 1193.38 C 1495.84 1136.24 1468.15 1087.03 1432.5 1043.6 L 1420.06 1030.25 C 1397.73 1008.24 1375.07 988.108 1348.67 971.062 C 1253.53 909.642 1139.28 886.21 1027.17 897.758 C 991.645 901.416 956.736 909.021 921.866 916.496 C 930.146 910.325 942.585 904.716 946.261 894.43 C 945.966 892.912 946.198 892.037 944.842 891.068 C 939.695 887.396 929.692 890.408 923.879 891.616 C 921.451 864.938 913.189 839.796 899.956 816.477 C 896.269 809.981 890.253 803.852 887.863 796.772 C 883.346 783.394 881.429 746.81 879.669 730.639 C 878.728 725.039 878.408 719.189 877.818 713.531 L 892.051 707.571 z"/>
<path transform="translate(0,0)" fill="rgb(254,211,100)" d="M 892.051 707.571 C 903.508 702.757 920.094 693.417 932.675 694.62 C 951.694 696.439 978.59 705.297 997.979 710.22 L 1126.32 742.55 C 1239.49 770.519 1352.49 799.153 1465.33 828.451 L 1565.01 854.5 C 1589.97 860.916 1615.39 866.041 1639.37 875.737 C 1649.28 879.742 1659.1 884.67 1667.5 891.347 C 1655.19 895.005 1600.7 902.242 1594.87 908.09 L 1593.83 908.223 C 1579.64 905.845 1565.3 901.014 1551.2 897.743 C 1512.46 888.809 1473.79 879.563 1435.2 870.006 L 1047.02 770.371 L 943.053 745.085 C 924.28 740.422 898.527 731.663 879.669 730.639 C 878.728 725.039 878.408 719.189 877.818 713.531 L 892.051 707.571 z"/>
<path transform="translate(0,0)" fill="rgb(252,165,47)" d="M 892.051 707.571 C 903.508 702.757 920.094 693.417 932.675 694.62 C 951.694 696.439 978.59 705.297 997.979 710.22 L 1126.32 742.55 C 1239.49 770.519 1352.49 799.153 1465.33 828.451 L 1565.01 854.5 C 1589.97 860.916 1615.39 866.041 1639.37 875.737 C 1649.28 879.742 1659.1 884.67 1667.5 891.347 C 1655.19 895.005 1600.7 902.242 1594.87 908.09 L 1593.83 908.223 C 1593.71 907.663 1593.69 907.075 1593.47 906.545 C 1589.47 896.679 1574.55 887.377 1565.21 883.009 C 1534.82 868.784 1500.32 859.755 1468.07 850.733 L 1379.2 825.571 C 1250.47 789.486 1120.96 756.255 990.768 725.902 C 971.066 721.369 950.891 716.784 930.909 713.739 C 919.891 712.059 907.179 712.133 896.545 709.541 C 894.788 709.113 893.615 708.447 892.051 707.571 z"/>
<path transform="translate(0,0)" fill="rgb(219,110,27)" d="M 1667.5 891.347 C 1695.64 916.645 1703.58 956.7 1705.65 992.907 C 1706.6 1009.54 1706.07 1026.44 1706.02 1043.1 C 1705.96 1062.7 1706.28 1082.38 1705.73 1101.97 C 1677.29 1115.07 1648.22 1129.14 1618.99 1140.3 C 1615.62 1134.99 1617.28 1123.91 1617.41 1117.62 C 1618.66 1056.96 1635.44 957.153 1594.87 908.09 C 1600.7 902.242 1655.19 895.005 1667.5 891.347 z"/>
<path transform="translate(0,0)" fill="rgb(219,110,27)" d="M 1437.27 1039.37 C 1449.29 1048.66 1460.48 1059.1 1471.6 1069.45 C 1503.86 1099.48 1532.2 1130.12 1547.73 1172.15 C 1532.82 1180.37 1515.53 1185.94 1500.08 1193.38 C 1495.84 1136.24 1468.15 1087.03 1432.5 1043.6 C 1433.8 1041.32 1435.12 1040.73 1437.27 1039.37 z"/>
<path transform="translate(0,0)" fill="rgb(252,165,47)" d="M 1420.06 1030.25 C 1427.31 1030.48 1431.86 1035.07 1437.27 1039.37 C 1435.12 1040.73 1433.8 1041.32 1432.5 1043.6 L 1420.06 1030.25 z"/>
<path transform="translate(0,0)" fill="rgb(162,67,19)" d="M 1661.21 324.634 C 1692.03 314.043 1722.8 303.29 1753.51 292.376 C 1771.62 285.998 1790.06 280.088 1807.9 272.994 L 1807.52 1131.33 C 1786.2 1116.3 1758.15 1104.09 1731.95 1102 C 1735.37 1091.81 1733.06 1018.85 1732.89 1001.7 C 1734.04 970.032 1726.6 933.235 1712.11 905.014 C 1700.34 882.07 1677.84 857.483 1652.58 849.464 C 1654.65 832.375 1653.11 813.343 1653.1 796.071 L 1653.08 687.279 L 1653.03 327.838 C 1655.91 326.978 1658.49 325.916 1661.21 324.634 z"/>
<path transform="translate(0,0)" fill="rgb(252,165,47)" d="M 492.028 1286.41 C 515.971 1265.72 612.831 1251.81 644.722 1249.76 C 627.739 1259.76 610.154 1268.86 593.104 1278.8 C 565.936 1294.04 529.505 1315.22 520.416 1347.46 C 515.747 1364.03 517.248 1382.69 525.844 1397.72 C 535.084 1413.84 550.411 1425.57 568.383 1430.28 C 575.496 1432.16 582.819 1433.12 590.176 1433.14 C 591.219 1435.02 590.544 1436.83 590.299 1438.92 C 591.269 1439.68 591.369 1439.82 592.653 1440.44 C 597.646 1442.87 604.014 1443.35 609.474 1443.42 C 616.138 1443.51 622.92 1443.34 629.409 1441.67 C 640.876 1438.73 651.471 1432.16 661.6 1426.24 C 683.042 1413.7 707.201 1396.84 731.259 1390.26 C 725.005 1387.67 719.159 1384.18 713.379 1380.7 C 720.151 1382.54 726.854 1384.78 733.562 1386.86 C 739.885 1385.79 746.196 1383.83 752.403 1382.2 C 792.619 1363.84 841.526 1358.13 875.79 1328.25 C 936.966 1346.17 1005.81 1353.18 1069.1 1344.16 L 1069.64 1344.65 C 1039.7 1356.36 1003.88 1359.93 989.02 1393.35 C 982.481 1408.06 981.989 1425.95 987.828 1440.99 C 991.573 1450.63 997.942 1459.36 1005.49 1466.39 C 1019.79 1476.48 1032.48 1482.28 1049.78 1485.01 C 1053.36 1491.66 1063.44 1493.25 1070.42 1495.34 C 1087.86 1500.57 1104.7 1506.39 1121.66 1512.99 C 1120.06 1515.61 1118.24 1518.25 1116.87 1520.98 C 1110.3 1534.92 1107.34 1551.6 1109.87 1566.89 C 1112.67 1583.78 1122.51 1598.36 1136.37 1608.2 C 1163.03 1627.14 1201.02 1627.13 1231.88 1621.68 L 1231.97 1660.31 C 1178.72 1642.26 1124.55 1626.46 1070.94 1609.45 L 633.484 1471.87 L 499.627 1429.75 C 471.54 1420.92 442.896 1412.65 415.391 1402.12 C 402.321 1397.12 385.325 1390.55 375.269 1380.47 C 357.261 1362.42 360.931 1334.46 360.809 1311.01 C 369.418 1318.93 379.737 1324.08 391.119 1326.67 C 416.377 1332.41 443.293 1324.27 463.491 1308.72 C 472.654 1301.66 481.206 1293.05 491.05 1286.99 C 491.373 1286.79 491.702 1286.6 492.028 1286.41 z"/>
<path transform="translate(0,0)" fill="rgb(252,165,47)" d="M 752.403 1382.2 C 792.619 1363.84 841.526 1358.13 875.79 1328.25 C 936.966 1346.17 1005.81 1353.18 1069.1 1344.16 L 1069.64 1344.65 C 1039.7 1356.36 1003.88 1359.93 989.02 1393.35 C 982.481 1408.06 981.989 1425.95 987.828 1440.99 C 991.573 1450.63 997.942 1459.36 1005.49 1466.39 C 1002.07 1466.78 999.418 1466.58 996.067 1465.72 C 982.704 1462.32 969.398 1456.37 956.504 1451.5 C 924.756 1439.5 893.167 1426.28 861.081 1415.28 C 841.632 1408.62 821.905 1402.07 802.137 1396.43 C 785.61 1391.71 768.644 1387.8 752.403 1382.2 z"/>
<path transform="translate(0,0)" fill="rgb(254,211,100)" d="M 752.403 1382.2 C 768.644 1387.8 785.61 1391.71 802.137 1396.43 C 821.905 1402.07 841.632 1408.62 861.081 1415.28 C 893.167 1426.28 924.756 1439.5 956.504 1451.5 C 969.398 1456.37 982.704 1462.32 996.067 1465.72 C 999.418 1466.58 1002.07 1466.78 1005.49 1466.39 C 1019.79 1476.48 1032.48 1482.28 1049.78 1485.01 C 1053.36 1491.66 1063.44 1493.25 1070.42 1495.34 C 1087.86 1500.57 1104.7 1506.39 1121.66 1512.99 C 1120.06 1515.61 1118.24 1518.25 1116.87 1520.98 C 1093.08 1518.37 1068.14 1506.69 1045.8 1498.32 C 1029.45 1492.31 1013.02 1486.52 996.525 1480.94 C 981.326 1475.79 965.832 1471.72 950.527 1466.93 C 918.971 1457.06 887.488 1446.63 856.107 1436.19 C 828.107 1426.87 799.894 1417.55 772.324 1407.04 C 758.504 1401.77 745.06 1395.58 731.259 1390.26 C 725.005 1387.67 719.159 1384.18 713.379 1380.7 C 720.151 1382.54 726.854 1384.78 733.562 1386.86 C 739.885 1385.79 746.196 1383.83 752.403 1382.2 z"/>
<path transform="translate(0,0)" fill="rgb(219,110,27)" d="M 492.028 1286.41 C 515.971 1265.72 612.831 1251.81 644.722 1249.76 C 627.739 1259.76 610.154 1268.86 593.104 1278.8 C 591.997 1276.13 591.872 1273.98 588.833 1273.02 C 573.667 1268.23 504.865 1294.34 491.506 1291.07 C 492.202 1288.97 492.774 1288.57 492.028 1286.41 z"/>
<path transform="translate(0,0)" fill="rgb(252,165,47)" d="M 359.865 1401.58 C 368.999 1408.53 378.341 1416.06 388.814 1420.88 C 417.186 1433.94 448.921 1441.61 478.592 1451.29 C 552.25 1475.19 626.16 1498.3 700.31 1520.63 C 814.574 1555.89 928.568 1592.03 1042.28 1629.04 C 1077.19 1640.36 1112.17 1651.45 1147.22 1662.31 C 1163.07 1667.22 1187.36 1672.76 1201.31 1679.7 C 1211.57 1682.19 1221.79 1685.84 1232 1688.63 L 1231.97 1798.06 C 1111.95 1761.01 993.193 1720.03 873.499 1681.99 L 556.6 1580.5 C 491.436 1559.73 425.706 1540.05 360.955 1518.08 L 360.832 1485.05 C 358.878 1457.3 361.823 1429.29 359.865 1401.58 z"/>
<path transform="translate(0,0)" fill="rgb(219,110,27)" d="M 359.865 1401.58 C 368.999 1408.53 378.341 1416.06 388.814 1420.88 C 417.186 1433.94 448.921 1441.61 478.592 1451.29 C 552.25 1475.19 626.16 1498.3 700.31 1520.63 C 814.574 1555.89 928.568 1592.03 1042.28 1629.04 C 1077.19 1640.36 1112.17 1651.45 1147.22 1662.31 C 1163.07 1667.22 1187.36 1672.76 1201.31 1679.7 L 1201.61 1680.74 C 1206.84 1685.36 1217.27 1687.73 1223.89 1690.59 C 1197.67 1687.08 1170.93 1675.94 1145.66 1668.15 L 1029.74 1633.44 C 1012.04 1630.53 990.137 1621.86 972.666 1616.28 L 868.438 1583.57 L 580.911 1494.32 C 507.985 1471.21 435.525 1446.36 361.203 1428.11 C 361.235 1447.01 361.945 1466.19 360.832 1485.05 C 358.878 1457.3 361.823 1429.29 359.865 1401.58 z"/>
<path transform="translate(0,0)" fill="rgb(252,165,47)" d="M 225.949 1459.63 C 225.889 1459.43 225.832 1459.24 225.771 1459.04 C 222.089 1447.31 221.134 1435.05 220.578 1422.81 C 219.421 1397.34 220.097 1371.64 220.085 1346.14 L 220.031 1212.18 L 220.02 1127.95 C 220.02 1112.13 219.077 1095.56 220.869 1079.84 C 222.37 1066.69 227.165 1057.68 237.99 1049.46 C 245.362 1043.86 255.346 1039.31 264.82 1040.77 C 286.589 1044.15 307.663 1061.18 319.847 1078.79 C 327.275 1087.62 330.682 1098.93 332.23 1110.2 C 334.363 1125.74 333.726 1141.81 333.691 1157.46 L 333.607 1220.68 L 333.441 1412.2 C 333.488 1443.95 332.354 1476.13 333.9 1507.84 C 314.516 1500.64 294.691 1494.54 275.029 1488.15 C 262.733 1484.16 248.263 1481.01 237.308 1474.05 C 232.489 1470.99 229.616 1467.55 227.128 1462.41 C 226.391 1460.89 226.446 1460.96 225.949 1459.63 z"/>
<path transform="translate(0,0)" fill="rgb(254,211,100)" d="M 225.949 1459.63 C 225.889 1459.43 225.832 1459.24 225.771 1459.04 C 222.089 1447.31 221.134 1435.05 220.578 1422.81 C 219.421 1397.34 220.097 1371.64 220.085 1346.14 L 220.031 1212.18 L 220.02 1127.95 C 220.02 1112.13 219.077 1095.56 220.869 1079.84 C 222.37 1066.69 227.165 1057.68 237.99 1049.46 C 245.362 1043.86 255.346 1039.31 264.82 1040.77 C 286.589 1044.15 307.663 1061.18 319.847 1078.79 C 319.494 1078.9 319.151 1079.05 318.789 1079.12 C 302.151 1082.3 249.514 1058.6 237.565 1073.78 C 233.121 1079.42 231.574 1089.06 230.807 1096.14 C 227.876 1123.18 229.902 1161.37 229.905 1189.61 L 229.963 1374.41 L 229.965 1423.8 C 229.962 1433.08 230.496 1442.82 229.35 1452.03 C 228.929 1455.4 228.459 1457.24 225.949 1459.63 z"/>
<path transform="translate(0,0)" fill="rgb(219,110,27)" d="M 1132.34 132.207 C 1147.9 131.819 1189.59 142.396 1206.79 145.801 L 1379.62 179.83 L 1654.05 232.242 C 1696.1 240.311 1739.11 246.878 1780.68 256.893 C 1734.71 273.767 1687.62 288.263 1641.24 304.003 C 1637.46 305.261 1634.9 305.576 1630.94 304.967 C 1592.73 299.099 1554.23 289.632 1516.4 281.593 L 1373.56 252.331 L 994.031 175.166 C 1019.07 166.117 1044.7 158.494 1070.13 150.61 C 1090.71 144.229 1111.39 137.261 1132.34 132.207 z"/>
<path transform="translate(0,0)" fill="url(#Gradient2)" d="M 1316.04 1318.99 C 1321.48 1308.31 1329.01 1300.28 1340.73 1296.49 C 1357.24 1291.15 1375.45 1296.43 1390.21 1304.42 C 1399.95 1309.69 1407.67 1316.5 1415.02 1324.71 C 1430.63 1342.97 1440.99 1369.35 1439.17 1393.6 C 1435.51 1442.7 1386.3 1502.71 1349.73 1533.75 C 1307.8 1569.34 1248.01 1602.98 1191.31 1598.14 C 1175.62 1596.8 1156.29 1592.2 1145.76 1579.73 C 1138.71 1571.4 1136.62 1561.23 1137.49 1550.56 C 1138.79 1539.03 1142.68 1530.77 1150.72 1522.48 C 1168.58 1505.24 1207.51 1494.3 1230.75 1482.1 C 1236.55 1477.17 1245.56 1473.27 1252.19 1469.26 C 1265.03 1461.61 1277.1 1452.74 1288.23 1442.77 C 1294.91 1436.02 1300.51 1426.94 1304.58 1418.38 C 1323.52 1378.57 1302.82 1354.27 1316.04 1318.99 z"/>
<path transform="translate(0,0)" fill="rgb(252,165,47)" d="M 1316.04 1318.99 C 1321.48 1308.31 1329.01 1300.28 1340.73 1296.49 C 1357.24 1291.15 1375.45 1296.43 1390.21 1304.42 C 1399.95 1309.69 1407.67 1316.5 1415.02 1324.71 C 1411.92 1324.8 1408.82 1325 1405.73 1324.59 C 1418.09 1355.75 1415.8 1383.81 1402.67 1414.61 C 1393.74 1435.56 1381.15 1455.69 1368.2 1474.37 C 1355.35 1468 1341.74 1464.42 1328.19 1459.93 C 1314.22 1455.3 1301.17 1449.78 1288.23 1442.77 C 1294.91 1436.02 1300.51 1426.94 1304.58 1418.38 C 1323.52 1378.57 1302.82 1354.27 1316.04 1318.99 z"/>
<path transform="translate(0,0)" fill="rgb(254,211,100)" d="M 1316.04 1318.99 C 1321.48 1308.31 1329.01 1300.28 1340.73 1296.49 C 1357.24 1291.15 1375.45 1296.43 1390.21 1304.42 C 1399.95 1309.69 1407.67 1316.5 1415.02 1324.71 C 1411.92 1324.8 1408.82 1325 1405.73 1324.59 C 1389.08 1320.57 1367.25 1321.97 1349.99 1321.59 C 1338.62 1321.34 1327.33 1320.22 1316.04 1318.99 z"/>
<path transform="translate(0,0)" fill="rgb(219,110,27)" d="M 1288.23 1442.77 C 1301.17 1449.78 1314.22 1455.3 1328.19 1459.93 C 1341.74 1464.42 1355.35 1468 1368.2 1474.37 C 1350.24 1500.33 1337.55 1520.1 1307.78 1533.93 C 1310.06 1521.43 1310.89 1502.61 1304.19 1491.37 C 1299.16 1482.95 1290.15 1478.38 1280.84 1476.31 C 1261.73 1472.06 1243.02 1481.72 1227.37 1491.73 C 1227.43 1490.73 1227.99 1489.42 1228.29 1488.44 C 1226.13 1489.23 1224.51 1489.66 1222.21 1489.73 L 1223.2 1488.42 C 1224.6 1487.87 1226.08 1487.34 1227.38 1486.6 C 1229.66 1485.32 1230.2 1484.6 1230.75 1482.1 C 1236.55 1477.17 1245.56 1473.27 1252.19 1469.26 C 1265.03 1461.61 1277.1 1452.74 1288.23 1442.77 z"/>
<path transform="translate(0,0)" fill="rgb(252,165,47)" d="M 1227.37 1491.73 C 1243.02 1481.72 1261.73 1472.06 1280.84 1476.31 C 1290.15 1478.38 1299.16 1482.95 1304.19 1491.37 C 1310.89 1502.61 1310.06 1521.43 1307.78 1533.93 C 1292.45 1542.35 1276.6 1549.96 1260.97 1557.82 C 1261.49 1556.09 1261.96 1554.36 1262.4 1552.61 C 1265.91 1538.52 1266.65 1523.08 1258.61 1510.25 C 1251.42 1498.77 1240.21 1496.23 1227.94 1493.33 L 1227.37 1491.73 z"/>
<path transform="translate(0,0)" fill="rgb(252,165,47)" d="M 1137.49 1550.56 C 1138.79 1539.03 1142.68 1530.77 1150.72 1522.48 C 1158.45 1523.04 1171.92 1521.53 1177.5 1527.67 C 1182.04 1532.66 1183.44 1543.63 1182.55 1550.01 C 1182.21 1552.49 1181.67 1553.77 1179.86 1555.45 C 1164.93 1557.98 1151.83 1550.83 1137.49 1550.56 z"/>
<path transform="translate(0,0)" fill="rgb(219,110,27)" d="M 1439.86 1466.1 L 1439.9 1742.57 C 1398.18 1762.44 1356.86 1784.3 1314.52 1802.71 C 1306.45 1806.94 1298.45 1811.12 1290.05 1814.67 C 1279.8 1812.98 1269.81 1809.41 1259.99 1806.09 C 1260.73 1758.77 1261.03 1711.43 1260.89 1664.1 C 1260.76 1647.68 1260.81 1631.24 1260.49 1614.83 C 1335.78 1587.81 1400.64 1536.27 1439.86 1466.1 z"/>
<path transform="translate(0,0)" fill="rgb(252,165,47)" d="M 1260.89 1664.1 C 1262.16 1664.18 1263.44 1664.47 1264.71 1664.34 C 1267.56 1664.06 1310.68 1634.83 1317.87 1631 C 1318.04 1667.16 1317.66 1703.33 1316.74 1739.49 C 1316.15 1760.55 1314.35 1781.65 1314.52 1802.71 C 1306.45 1806.94 1298.45 1811.12 1290.05 1814.67 C 1279.8 1812.98 1269.81 1809.41 1259.99 1806.09 C 1260.73 1758.77 1261.03 1711.43 1260.89 1664.1 z"/>
<path transform="translate(0,0)" fill="rgb(219,110,27)" d="M 460.957 961.174 C 463.993 969.164 467.417 976.979 470.823 984.814 C 477.117 996.636 484.709 1007.15 493.127 1017.54 C 504.308 1029.06 515.581 1040.49 528.858 1049.64 C 525.158 1072.78 526.971 1096.43 530.242 1119.54 C 477.321 1145.43 398.479 1169.83 359.921 1213.88 L 360.019 1151.29 C 360.05 1133.72 360.919 1115.5 357.483 1098.18 C 355.401 1087.68 351.392 1077.8 346.371 1068.39 C 337.289 1053.12 325.74 1041.93 311.109 1032.03 C 306.042 1029.02 300.214 1026.73 294.854 1024.24 C 318.131 1014.43 342.186 1006.5 365.817 997.605 C 397.599 985.635 429.101 972.997 460.957 961.174 z"/>
<path transform="translate(0,0)" fill="rgb(252,165,47)" d="M 460.957 961.174 C 463.993 969.164 467.417 976.979 470.823 984.814 C 477.117 996.636 484.709 1007.15 493.127 1017.54 C 485.083 1018.1 348.455 1066.62 346.371 1068.39 C 337.289 1053.12 325.74 1041.93 311.109 1032.03 C 306.042 1029.02 300.214 1026.73 294.854 1024.24 C 318.131 1014.43 342.186 1006.5 365.817 997.605 C 397.599 985.635 429.101 972.997 460.957 961.174 z"/>
<path transform="translate(0,0)" fill="rgb(254,211,100)" d="M 460.957 961.174 C 463.993 969.164 467.417 976.979 470.823 984.814 C 440.364 993.846 410.137 1003.75 379.6 1012.49 C 356.997 1018.95 333.165 1024.02 311.109 1032.03 C 306.042 1029.02 300.214 1026.73 294.854 1024.24 C 318.131 1014.43 342.186 1006.5 365.817 997.605 C 397.599 985.635 429.101 972.997 460.957 961.174 z"/>
<path transform="translate(0,0)" fill="url(#Gradient1)" d="M 723.731 1233.71 L 724.957 1233.64 C 772.672 1231.65 794.883 1306.66 831.844 1265.71 C 838.61 1258.22 838.712 1250.53 837.937 1240.97 C 837.547 1236.16 835.418 1233.13 832.748 1229.27 C 836.514 1223.99 848.34 1222.32 854.504 1221.3 C 858.672 1220.62 862.854 1220.5 867.069 1220.42 C 876.411 1225.09 887.522 1236.23 891.511 1246.11 C 892.196 1247.8 892.011 1248.87 891.835 1250.64 C 886.548 1245.7 881.527 1241.43 875.188 1237.84 C 878.32 1254.59 878.404 1267.3 868.247 1282.04 C 836.003 1328.84 729.001 1331.91 675.771 1357.21 C 667.628 1361.08 659.769 1365.49 652.602 1370.99 C 636.411 1383.41 621.73 1401.3 600.617 1405.39 C 596.678 1406.15 592.054 1406.21 588.755 1403.54 C 585.202 1400.67 585.142 1395.64 585.219 1391.46 C 585.248 1390.2 585.307 1388.95 585.396 1387.69 C 586.972 1379.23 590.132 1370.84 592.721 1362.62 C 585.642 1364.7 578.378 1366.85 572.78 1371.91 C 565.125 1378.83 564.86 1388.2 564.536 1397.76 C 557.47 1393.76 552.183 1389.74 548.197 1382.37 C 543.802 1374.24 543.687 1364.38 546.52 1355.72 C 549.098 1347.83 554.216 1340.99 560.077 1335.21 C 582.134 1313.5 634.631 1284.63 662.977 1270.21 C 681.699 1256.04 704.886 1248.08 723.731 1233.71 z"/>
<path transform="translate(0,0)" fill="rgb(252,165,47)" d="M 662.977 1270.21 C 669.296 1286.4 676.875 1299.21 668.844 1317.07 C 657.603 1342.07 628.435 1374.27 601.894 1383.72 C 596.515 1385.63 591 1386.68 585.396 1387.69 C 586.972 1379.23 590.132 1370.84 592.721 1362.62 C 585.642 1364.7 578.378 1366.85 572.78 1371.91 C 565.125 1378.83 564.86 1388.2 564.536 1397.76 C 557.47 1393.76 552.183 1389.74 548.197 1382.37 C 543.802 1374.24 543.687 1364.38 546.52 1355.72 C 549.098 1347.83 554.216 1340.99 560.077 1335.21 C 582.134 1313.5 634.631 1284.63 662.977 1270.21 z"/>
<path transform="translate(0,0)" fill="rgb(252,165,47)" d="M 713.199 1321.65 C 718.014 1303.17 713.602 1287.98 705.356 1271.26 C 710.098 1271.64 714.865 1271.62 719.613 1271.94 C 737.899 1273.2 752.528 1282.23 764.379 1295.75 C 767.611 1299.96 769.293 1303.86 771.073 1308.77 C 752.246 1317.93 732.409 1315.54 713.199 1321.65 z"/>
<path transform="translate(0,0)" fill="rgb(219,110,27)" d="M 764.379 1295.75 C 771.399 1299.04 789.32 1297.91 801.168 1301.89 C 791.206 1305.37 779.941 1303.48 771.073 1308.77 C 769.293 1303.86 767.611 1299.96 764.379 1295.75 z"/>
<path transform="translate(0,0)" fill="rgb(252,165,47)" d="M 391.074 1298.54 C 389.083 1297.95 387.109 1297.3 385.155 1296.59 C 376.83 1293.53 368.455 1287.51 364.928 1279.1 C 361.097 1269.95 364.339 1259.36 368.217 1250.73 C 374.842 1235.99 386.262 1222.99 398.98 1213.18 C 417.465 1198.92 440.286 1190.42 461.238 1180.45 C 486.444 1168.45 511.302 1155.88 537.367 1145.82 C 541.034 1154.66 545.468 1163.13 549.819 1171.65 C 563.802 1194.61 579.692 1212.11 602.095 1226.99 C 560.802 1229.34 511.473 1242.28 476.556 1264.38 C 462.106 1273.52 449.469 1285.63 434.261 1293.54 C 428.9 1296.33 417.711 1301.72 412.462 1296.99 C 409.094 1293.96 408.843 1288.37 409.116 1284.19 C 409.708 1275.1 412.887 1266.33 415.709 1257.75 C 409.801 1259.01 403.588 1262.53 399.415 1266.88 C 390.862 1275.81 390.743 1287.01 391.074 1298.54 z"/>
<path transform="translate(0,0)" fill="rgb(219,110,27)" d="M 549.819 1171.65 C 563.802 1194.61 579.692 1212.11 602.095 1226.99 C 560.802 1229.34 511.473 1242.28 476.556 1264.38 C 462.106 1273.52 449.469 1285.63 434.261 1293.54 C 428.9 1296.33 417.711 1301.72 412.462 1296.99 C 409.094 1293.96 408.843 1288.37 409.116 1284.19 C 409.708 1275.1 412.887 1266.33 415.709 1257.75 C 423.868 1256.68 432.263 1257.47 440.482 1256.69 C 462.368 1254.6 501.061 1224.94 516.844 1209.36 C 528.723 1197.63 539.19 1184.49 549.819 1171.65 z"/>
<path transform="translate(0,0)" fill="rgb(219,110,27)" d="M 868.504 1325.75 L 875.79 1328.25 C 841.526 1358.13 792.619 1363.84 752.403 1382.2 C 746.196 1383.83 739.885 1385.79 733.562 1386.86 C 726.854 1384.78 720.151 1382.54 713.379 1380.7 C 719.159 1384.18 725.005 1387.67 731.259 1390.26 C 707.201 1396.84 683.042 1413.7 661.6 1426.24 C 651.471 1432.16 640.876 1438.73 629.409 1441.67 C 622.92 1443.34 616.138 1443.51 609.474 1443.42 C 604.014 1443.35 597.646 1442.87 592.653 1440.44 C 591.369 1439.82 591.269 1439.68 590.299 1438.92 C 590.544 1436.83 591.219 1435.02 590.176 1433.14 C 634.611 1431.78 652.985 1399.71 688.863 1382.82 C 722.79 1366.84 761.491 1361.69 797.347 1351.45 C 809.598 1347.95 821.817 1344.34 833.721 1339.78 C 845.395 1335.3 856.71 1329.91 868.504 1325.75 z"/>
<path transform="translate(0,0)" fill="rgb(140,56,19)" d="M 1008.74 582.56 C 1019.56 585.664 1030.43 589.152 1041.43 591.559 C 1053.78 596.385 1070.81 598.672 1085.27 604.112 C 1070.92 606.867 1056.75 612.475 1042.77 616.825 C 1043.58 641.717 1042.94 666.836 1042.97 691.753 C 1030.88 688.252 1018.51 685.441 1006.3 682.345 L 1006.21 619.489 C 1006.2 609.095 1005.37 597.864 1006.6 587.57 C 1006.86 585.431 1007.25 584.197 1008.74 582.56 z"/>
<path transform="translate(0,0)" fill="rgb(101,39,18)" d="M 1008.74 582.56 C 1019.56 585.664 1030.43 589.152 1041.43 591.559 C 1039.02 591.687 1037.69 591.333 1035.71 592.856 L 1039.4 595.609 C 1035.98 597.629 1026.89 595.875 1022.76 596.284 C 1018.41 596.714 1013.87 598.236 1009.66 599.401 C 1008.95 593.796 1009.96 588.039 1008.74 582.56 z"/>
<path transform="translate(0,0)" fill="rgb(162,67,19)" d="M 1571.26 731.247 L 1572.19 731.847 C 1573.77 742.257 1572.44 753.873 1572.34 764.46 L 1572.05 825.944 C 1560.85 822.528 1549.55 819.563 1538.22 816.629 L 1526.85 814.187 C 1527.21 790.188 1526.98 766.152 1527.01 742.149 C 1541.82 738.769 1556.37 734.205 1571.26 731.247 z"/>
<path transform="translate(0,0)" fill="rgb(219,110,27)" d="M 1374.53 711.297 C 1393.58 715.865 1412.71 720.17 1431.88 724.211 C 1430.97 745.563 1431.28 767.032 1431.18 788.404 C 1412.22 783.819 1393.22 779.381 1374.19 775.091 C 1374.08 754.322 1372.21 731.817 1374.53 711.297 z"/>
<path transform="translate(0,0)" fill="rgb(140,56,19)" d="M 1756.83 1621.04 C 1758.43 1623.56 1757.26 1668.36 1757.64 1676.19 C 1756.47 1677.26 1755.26 1678.28 1754 1679.23 C 1736.98 1692.17 1714.47 1692.82 1694.22 1690.36 C 1693.29 1690.08 1692.57 1689.57 1691.74 1689.07 C 1689.13 1678.2 1690.56 1663.28 1690.06 1651.86 C 1712.57 1642.21 1735.13 1632.41 1756.83 1621.04 z"/>
<path transform="translate(0,0)" fill="rgb(95,189,157)" d="M 1296.34 695.658 C 1313.75 700.601 1331.58 704.327 1349.18 708.535 C 1349.06 728 1349.12 747.467 1349.37 766.931 C 1331.55 763.358 1313.83 758.426 1296.16 754.115 C 1296.72 734.656 1296.37 715.126 1296.34 695.658 z"/>
<path transform="translate(0,0)" fill="rgb(219,110,27)" d="M 1219.07 676.364 C 1236.33 680.713 1253.64 684.817 1271.01 688.675 L 1271.04 748.31 C 1253.64 744.282 1236.29 740.043 1219 735.595 C 1219.21 715.852 1219.23 696.107 1219.07 676.364 z"/>
<path transform="translate(0,0)" fill="rgb(219,110,27)" d="M 1195.21 1813.36 C 1209.22 1818.5 1223.72 1822.46 1238.06 1826.56 L 1237.92 1856.27 L 1238.18 1857.09 C 1237.88 1871.23 1237.89 1885.37 1238.21 1899.5 C 1226.03 1897.63 1209.49 1892.09 1200.51 1883.42 C 1196.28 1879.33 1195.91 1876.14 1195.86 1870.41 C 1192.8 1853.59 1195.1 1830.68 1195.21 1813.36 z"/>
<path transform="translate(0,0)" fill="rgb(140,56,19)" d="M 1195.21 1813.36 C 1209.22 1818.5 1223.72 1822.46 1238.06 1826.56 L 1237.92 1856.27 C 1223.2 1851.86 1209.91 1845.95 1195.89 1839.72 C 1195.94 1849.9 1196.3 1860.24 1195.86 1870.41 C 1192.8 1853.59 1195.1 1830.68 1195.21 1813.36 z"/>
<path transform="translate(0,0)" fill="rgb(95,189,157)" d="M 1063.93 644.647 C 1082.72 647.677 1101.69 652.986 1120.29 657.244 C 1120.03 675.167 1120.26 693.128 1120.18 711.057 L 1063.91 697.699 C 1063.77 680.015 1063.78 662.33 1063.93 644.647 z"/>
<path transform="translate(0,0)" fill="rgb(219,110,27)" d="M 1456.1 731.723 C 1471.34 735.917 1486.93 738.702 1502.29 742.454 C 1502.42 764.254 1502.41 786.054 1502.25 807.854 C 1486.8 803.92 1471.32 800.077 1455.83 796.326 L 1456.1 731.723 z"/>
<path transform="translate(0,0)" fill="rgb(219,110,27)" d="M 294.074 1528.79 C 310.076 1533.28 326.217 1537.49 341.881 1543.06 C 341.83 1555.37 344.431 1593.13 341.189 1602.36 C 324.937 1599.03 306.028 1593.59 294.303 1581.24 C 293.927 1571.87 294.132 1562.42 294.088 1553.05 L 294.074 1528.79 z"/>
<path transform="translate(0,0)" fill="rgb(162,67,19)" d="M 294.074 1528.79 C 310.076 1533.28 326.217 1537.49 341.881 1543.06 C 341.83 1555.37 344.431 1593.13 341.189 1602.36 C 339.545 1586.33 341.781 1569.7 340.94 1553.52 C 325.329 1552.96 309.707 1552.8 294.088 1553.05 L 294.074 1528.79 z"/>
<path transform="translate(0,0)" fill="rgb(252,165,47)" d="M 1145.64 661.659 C 1161.97 665.194 1178.05 669.434 1194.49 672.531 C 1193.96 691.589 1194.68 710.713 1194.38 729.788 C 1178.44 724.756 1161.85 721.295 1145.5 717.861 L 1145.64 661.659 z"/>
<path transform="translate(0,0)" fill="rgb(252,165,47)" d="M 1049.78 1485.01 C 1100.86 1487.83 1152.31 1475.36 1201.39 1462.55 C 1211.6 1459.88 1221.61 1455.95 1231.87 1453.66 C 1198.89 1473.42 1144.27 1481.14 1121.66 1512.99 C 1104.7 1506.39 1087.86 1500.57 1070.42 1495.34 C 1063.44 1493.25 1053.36 1491.66 1049.78 1485.01 z"/>
<path transform="translate(0,0)" fill="rgb(219,110,27)" d="M 1517.59 700.076 C 1530.54 699.547 1552.08 706.306 1565.6 708.921 C 1551.13 714.626 1536.06 719.338 1521.22 724.045 C 1506.97 724.803 1488.89 718.313 1475.04 715.016 C 1489.17 709.789 1503.63 705.849 1517.59 700.076 z"/>
<path transform="translate(0,0)" fill="rgb(219,110,27)" d="M 1268.94 641.11 C 1277.54 640.867 1298.2 646.832 1307.82 648.846 C 1294.55 654.606 1282.2 662.634 1268.77 667.872 C 1254.76 665.317 1240.79 661.377 1226.84 658.333 C 1240.66 652.109 1254.47 645.66 1268.94 641.11 z"/>
<path transform="translate(0,0)" fill="rgb(140,56,19)" d="M 1240.28 1826.9 L 1253.24 1826.96 C 1253.79 1844.98 1256.04 1865.69 1253.14 1883.46 C 1252.94 1887.46 1253.29 1893.9 1250.4 1896.98 C 1247.5 1900.07 1242.07 1899.46 1238.21 1899.5 C 1237.89 1885.37 1237.88 1871.23 1238.18 1857.09 L 1240.75 1857.61 C 1239.41 1847.67 1240.12 1836.93 1240.28 1826.9 z"/>
<path transform="translate(0,0)" fill="rgb(101,39,18)" d="M 1240.28 1826.9 L 1253.24 1826.96 C 1253.79 1844.98 1256.04 1865.69 1253.14 1883.46 C 1252.6 1877.13 1253.49 1870.8 1252.5 1864.49 C 1252.06 1864.65 1251.61 1864.79 1251.18 1864.97 C 1250.59 1865.21 1250.02 1865.5 1249.44 1865.77 C 1248.28 1864.37 1248.16 1863.84 1247.91 1861.94 C 1247.84 1861.36 1247.8 1860.78 1247.75 1860.2 C 1246.09 1857.93 1243.44 1858.14 1240.75 1857.61 C 1239.41 1847.67 1240.12 1836.93 1240.28 1826.9 z"/>
<path transform="translate(0,0)" fill="rgb(219,110,27)" d="M 1193.63 626.052 C 1206.43 626.31 1220.38 630.987 1233.21 632.906 C 1219.98 638.786 1206.99 646.532 1193.25 650.992 C 1181.59 646.916 1165.46 644.117 1153.15 643.606 C 1166.87 638.437 1180.08 631.695 1193.63 626.052 z"/>
<path transform="translate(0,0)" fill="rgb(219,110,27)" d="M 1430.51 678.881 C 1439.61 677.771 1462.4 684.672 1472.09 686.845 C 1460.13 691.366 1448.78 697.409 1437.35 703.102 C 1427.63 705.13 1405.88 696.942 1395.69 694.079 C 1407.39 689.017 1419.11 684.663 1430.51 678.881 z"/>
<path transform="translate(0,0)" fill="rgb(219,110,27)" d="M 1359.33 668.348 C 1370.76 667.926 1383.07 670.214 1394.69 670.419 C 1383.24 676.27 1367.99 689.21 1354.84 688.225 C 1342.39 685.798 1329.97 683.304 1317.44 681.367 C 1330.99 675.621 1344.73 670.554 1359.33 668.348 z"/>
<path transform="translate(0,0)" fill="rgb(101,39,18)" d="M 353.497 1550.33 C 355.951 1550.15 357.923 1550.23 360.345 1550.67 C 363.99 1555.81 362.31 1574.91 361.726 1581.73 C 361.025 1589.9 356.239 1592.58 350.331 1597.47 C 348.839 1598.93 347.259 1600.19 345.62 1601.48 L 344.048 1600.98 C 341.004 1590.13 342.579 1563.97 344.447 1552.7 C 346.954 1550.84 350.435 1550.79 353.497 1550.33 z"/>
<path transform="translate(0,0)" fill="rgb(219,110,27)" d="M 1129.47 611.057 C 1136.06 611.028 1143.19 612.487 1149.77 613.285 C 1141.22 617.809 1114.54 630.595 1106.14 632.558 C 1104.35 632.977 1102.63 632.65 1100.91 632.145 C 1093.38 631.686 1085.98 629.608 1078.66 627.872 C 1095.99 623.473 1112.23 615.811 1129.47 611.057 z"/>
<path transform="translate(0,0)" fill="rgb(101,39,18)" d="M 393.627 1562.19 C 398.636 1564.59 401.142 1567.06 403.177 1572.54 C 404.116 1575.06 404.114 1578.28 402.819 1580.7 C 401.823 1582.56 400.948 1583.24 399.236 1584.37 C 396.519 1584.58 395.64 1584.76 393.374 1582.91 C 391.649 1581.5 390.517 1578.4 389.877 1576.4 C 390.097 1575.88 390.334 1575.37 390.538 1574.85 C 391.186 1573.2 391.357 1572.65 391.113 1570.98 C 391.462 1567.78 392.448 1565.18 393.627 1562.19 z"/>
<path transform="translate(0,0)" fill="rgb(140,56,19)" d="M 391.113 1570.98 C 389 1572.34 390.095 1572.03 387.903 1572.14 C 386.35 1569.89 385.215 1567.36 385.074 1564.58 C 384.952 1562.17 385.554 1560.99 387.094 1559.25 C 390.066 1559.45 391.174 1560.57 393.627 1562.19 C 392.448 1565.18 391.462 1567.78 391.113 1570.98 z"/>
</svg>