<svg xmlns="http://www.w3.org/2000/svg" width="1365.333" height="1365.333" preserveAspectRatio="xMidYMid meet" version="1.0" viewBox="0 0 1024 1024"><g fill="#000" stroke="none"><path d="M141.5.9c.3.6-.1 1.4-1 1.8-.8.5-1.6 2.1-1.7 3.6-.1 1.6-.8 3.3-1.5 3.9-1 .8-1 1.4-.2 2.4 1.2 1.4.9 1.6-2.6 1.8-1.1.1-1.9.7-1.7 1.4.1.7-1 3.7-2.4 6.5-4.3 8.3-4.5 8.7-3.9 9.7.3.5 0 1.2-.7 1.7-2.1 1.3-6.8 8-6.8 9.7 0 1.9-1.7 3-2.5 1.6-.3-.5-1.1-1-1.7-1s.1.9 1.6 2.1c1.4 1.1 2.4 2.5 2 3-.3.5-.9.7-1.3.4-1-.6-4.4 3.1-4.7 5.1S110 59 108.6 59c-.7 0-1.2 1-1.2 2.2.1 1.3-.3 2.3-.9 2.3-.5 0-.9-.4-.7-.9s-.5-.3-1.5.4c-1 .8-2 1.6-2.2 1.7s.1.9.8 1.7c.9 1.1.7 1.8-1.1 3.2-1.3 1.1-2.3 2.8-2.3 3.9 0 1.3-.6 1.9-1.7 1.7-1.3-.2-1.7.3-1.5 2 .1 1.2-.4 2.3-1 2.4-.7.1-1.8.2-2.4.3-.8.1-.8.6.1 1.6 1.4 1.7.1 4-3 5-1 .3-2.1 1.3-2.4 2.2-.5 1.2-.4 1.3.7.5 1.7-1.5 3-.3 1.6 1.4-.6.7-1.8 1-2.6.7-1.1-.4-1.4-.2-.9.5.3.6-.2 1.5-1.1 2.1-1 .5-1.5 1.3-1.1 1.7.4.3.2 1.6-.4 2.7-1 1.9-1.2 1.9-2.2.5-1.1-1.5-1.3-1.5-2.4.2-.7 1.2-.8 2.1-.2 2.5 1.2.7-2.6 6.1-4.9 6.9-3.6 1.4-6.2 3.4-5.2 4 .8.5.8 1.3.1 2.7-.6 1.1-1.6 1.7-2.1 1.3-.6-.4-.9.2-.7 1.2.1 1.1-.1 1.9-.5 1.9s-1.2.7-1.7 1.5-1.3 1.5-1.7 1.5c-1.2 0-5.9 3.5-4.8 3.5.6 0 .3.6-.6 1.3-.8.7-1.8 2-2.2 3.1-.5 1.2-1.3 1.6-2.3 1.2-1.5-.6-1.5-.4-.3 1s1 1.9-1.1 3.8c-1.4 1.2-2.9 3-3.5 4-.5 1-1.4 1.6-1.9 1.4s-1.3.8-1.7 2.1c-.8 1.9-1.2 2.1-2.4 1.1-1.3-1.1-1.4-1-.9.4.5 1.2 0 1.9-1.5 2.3-1.1.3-1.8.9-1.5 1.4.7 1.3-1.5 5.1-2.7 4.4-.5-.4-.8-.1-.7.7.2.7-.4 1.3-1.4 1.3-.9 0-2.5.8-3.5 1.7-1.4 1.3-2.2 1.5-3 .7-1.5-1.5-2.8.8-1.4 2.5.8 1 .6 1.7-.7 2.9-1.8 1.6-3.7 1.7-5.9.4-.9-.5-1.1-.3-.7.6.5 1.5-1.2 3.3-3.6 3.9-.8.2-2.1 1.1-2.9 2.1-1.2 1.7-1.4 1.7-3.1.2-1.2-1.1-2-1.3-2.5-.6-.3.6-.3 1.1.1 1.1s-.1.9-1.1 2c-1 1.2-2.5 1.8-3.2 1.6-1.1-.4-1.3 11.5-1.3 66.3v66.8l42.8.3c48 .2 69.2.5 126.2 1.5 21.7.4 50.3.8 63.5 1 28.9.3 51 2 62.5 4.7 4.7 1.1 9.3 2.1 10.3 2.3 2.4.5 8.6 2.5 12.2 4 1.7.7 4.6 1.8 6.5 2.4 2 .6 8.1 3.5 13.7 6.4 16.3 8.6 36.2 26.1 47.4 41.8 7.8 10.8 11.5 16.3 12.2 17.9.4.8 3 5.8 5.8 11 2.7 5.2 6.4 13.1 8.1 17.5s3.4 8.4 3.7 9c.4.5 2.2 5.7 4 11.5 1.9 5.8 4.2 12.7 5.2 15.5 1 2.7 3 9.5 4.5 15 1.4 5.5 3.2 11.3 3.9 13 .8 1.6 1.7 4.5 2 6.4s.9 3.9 1.3 4.5.7 1.3.8 1.6c.6 4 2.7 8.9 3.7 8.7.7-.1 1.2.6 1.2 1.5s.3 2 .7 2.3c.4.4.4 1.4.1 2.3-.4 1-.2 1.3.5.8.7-.4 1.5.2 2.1 1.6 1.7 4.6 7.6 7.2 15.1 6.9 6.8-.3 8.8-.7 8.7-1.5-.1-.5 2.5-1 5.8-1 3.3-.1 6.5-.4 7-.7.6-.3 3.6-.5 6.8-.4 3.1.2 5.9-.1 6.2-.5.3-.5 1.4-.6 2.5-.3s4-.2 6.5-1.1c2.4-1 6.7-1.7 9.7-1.7 2.9.1 6.5.1 8 .1s2.9-.4 3.3-.9c.3-.5 1.4-.8 2.5-.6s2.2-.1 2.6-.6c.3-.5 1.4-.7 2.3-.4 1 .3 2.4-.1 3.1-1 .9-1.1 1.6-1.2 2.5-.5s2.1.7 4.1-.1c1.6-.7 3.4-1.3 3.9-1.3.6-.1 2-.7 3.3-1.4 1.2-.7 2.7-1 3.2-.7s1.1.1 1.5-.5c.3-.5 1.4-1 2.3-1s4-1.8 6.9-3.9c2.8-2.2 5.4-3.7 5.7-3.3.4.3 1.6.7 2.8.9 1.7.3 1.9.1.8-1.2-.9-1-.9-1.9-.2-2.8 1.4-1.7 1.9-5.1.7-5.2-.5 0-1.4-.3-2-.6-2.9-1.8-12.4-3.6-22.3-4.4-1.3-.1-2.7-.6-3-1.1-.4-.5-2.3-1-4.2-1.2s-4-1-4.7-1.9c-.6-.8-1.6-1.2-2.1-.9-.6.3-2.2.2-3.7-.4-2-.8-2.4-1.4-1.7-2.3s.3-1.7-1.6-3.1c-1.4-1.1-2.2-1.4-1.8-.8.3.6.2 1.3-.4 1.7-1.6 1-5.1-7.6-3.8-9.3.8-.9 1.4-1 2.1-.3s1.6.6 2.7-.4c.9-.8 3-1.7 4.7-1.9 1.6-.1 3.5-.6 4-.9.6-.4 2.8-.9 4.9-1.2 8.7-1.2 10.4-1.6 10.6-2.8 0-.7.2-1.7.2-2.3.1-.6.7-1.8 1.4-2.7.8-.9 1.1-2.4.8-3.4-.4-1.7-1.4-15.2-2.1-29.9-.1-3.4-.5-6.6-.8-7-.2-.5-.3-2.6-.1-4.7.2-2.5-.1-3.7-.8-3.5-.9.3-1.7 5.5-2 12.8 0 .8-.8 2.3-1.7 3.3-1.3 1.5-1.3 1.8-.1 1.5.9-.2 1.3.3 1.1 1.2-.2.8-.5 2.2-.5 3.2-.1.9-.8 2.4-1.6 3.3-1.3 1.6-1.5 1.6-2.8-.2-.9-1.3-1.3-1.4-1-.3.1.8-.2 1.5-.7 1.5-.6 0-.9-.3-.8-.7.2-.4-.3-.5-1.1-.2-1.6.6-4-2.1-3.1-3.6.4-.6.3-.9-.2-.8-.4.2-.8-.1-.8-.7 0-.5.6-.9 1.2-.7 1 .2 1-.3.2-2.2-.6-1.3-1.7-2.2-2.4-1.9-1.3.4-3.8-2.9-3.3-4.4.4-1.1-2.8-5.4-3.5-4.7-1.1 1.2-3.6-4.3-4.1-8.9-.3-2.7-.9-5.4-1.5-6.1s-.8-1.6-.5-1.9c.9-.9.9-6.5 0-10.3-.4-1.7-.8-5.7-.8-8.8-.1-3.1-.5-5.9-.9-6.2-.4-.2-.5-1.3-.2-2.4s0-2-.6-2c-.7 0-1.1 1.4-1.1 3.2.1 6.5-.8 19.3-1.4 20.8-.3.8-.7 2.5-.9 3.7-.4 2.7-2.6 5.5-3.9 4.7-.5-.3-.6-1.4-.3-2.5.5-1.4 0-2.1-2-2.9-1.4-.5-2.4-1.4-2.1-1.9s0-1.3-.7-1.9c-1.1-1-1.7-1.2-3.4-1.2-.5 0 .1-.7 1.1-1.5 1.9-1.5 1.7-1.7-1.4-1.9-.8-.1-1.7-1.7-2.2-4-.5-2.2-1.3-4.5-1.8-5.1-.5-.7-.6-1.6-.2-2 .4-.5.2-.5-.5-.1-1.5.8-2.4-.6-1.3-2.4.5-.8-.1-2.7-1.7-5.1-1.3-2-2.6-5.5-2.8-7.6-.1-2.1-.4-3.8-.5-3.8s-.3-1.1-.5-2.5c-.1-1.4-.6-4-.9-5.8-.9-4.8-1.6-16-1.7-28-.1-8.1.2-10.7 1.4-11.9s4.3-1.6 14.7-1.7c14.7-.1 16 .4 16 7.1 0 3.1.2 3.3 3.8 3.3 12.7.1 20.4.9 22.7 2.4 1.4.9 2.6 2 2.6 2.4.1.4.3 2 .5 3.6.5 5 2 5 2.7.1.2-1.7 1-2.9 1.6-2.8 1.3.4 1.4-1.6.1-3.7-.5-.8-.5-1.9-.1-2.5.5-.5 1.1-2.3 1.5-3.8l.7-2.8 8.2.5c4.5.3 9.7.7 11.6 1s3.9.2 4.5-.2c2.4-1.8 4.8-.4 8.1 4.9 1.4 2.1 2.5 4.4 2.5 5 0 .7 1.2 3.7 2.6 6.6 1.4 3 2.3 6.1 2 6.8-.2.7.2 1.6 1 1.9s1.4 1.2 1.4 2c0 1.5 5.5 5.9 7.8 6.2.7.2 2.1.6 3 1s2.6.9 3.7 1.1c2.2.4 11.6 9.4 10.9 10.4-.2.4.3 1.2 1.1 1.9s1.2 1.7.8 2.3c-.3.5-.2.7.4.4 1.2-.8 5.3 3.6 7.3 7.8.8 1.6 2 3.3 2.7 3.8.7.4 1 1.4.7 2.2s.6 2.9 2 4.8 2.6 3.8 2.6 4.3c0 .6.6 1.6 1.2 2.2.7.7 1.3 1.8 1.4 2.5.3 4.2 1.8 7.6 3.6 8.1 1.4.3 1.9 1 1.4 2.1-.5 1.3-.1 1.5 1.4 1 1.4-.4 2.2-.1 2.6 1 .4.9 1.2 1.4 1.9 1.1 2-.7 2.6.5 1.2 2.2-.6.9-.7 1.3-.2 1 .6-.3 1.9-.2 3 .2 1.3.5 2.4.1 3.6-1.3 1.5-1.9 4.6-1.6 3.4.4-.4.5-.2.9.2.9.5 0 1.4-.9 2.1-2 .7-1.2 1.6-1.8 2.1-1.6.4.3 1.6-.1 2.7-.8 1-.8 2.3-1.2 3-.9.6.2 1.4-.3 1.8-1.2.4-1.1 1.2-1.5 2.2-1.1 1.4.5 1.4.4.5-.7s-.8-1.7.2-2.6c.8-.6 1.7-.8 2-.4.8.7 3.8-1.7 3.2-2.6-.2-.4.9-2 2.6-3.5 1.6-1.5 2.6-3.2 2.3-3.8-.3-.5.3-1.2 1.4-1.5 1.2-.3 1.8-1.1 1.6-1.8-.3-.7 0-1.6.6-2 1.7-1 6.3-11.4 7.5-17 .7-2.9 1.6-4.9 2.3-4.8 1 .3 1.8-3.9 1.3-6.9-.2-1.3 4.3-3.7 6.4-3.4 1.1.2 2.6-.1 3.3-.7.9-.7 1.6-.7 2.4.1.9.9 1.6.8 3-.5 1-.9 2.6-1.7 3.6-1.8.9-.2 3.3-.9 5.2-1.6s3.9-1.2 4.3-1.1.3-.7-.3-1.8-.8-2.1-.5-2.1c1.7-.4 2.6-.7 3-.9.3-.1 1.1-.3 1.8-.4 1.4-.1 1.7-4.5.3-6.4-.4-.6-.7-1.2-.5-1.3.2 0 1.2-.2 2.3-.4 1-.2 2.3-.8 2.9-1.4s1.9-1.1 2.9-1.1 1.7-.6 1.5-1.3c-.1-.6.5-1.2 1.3-1.2s1.4.6 1.3 1.2c-.2.7.4 1.3 1.2 1.3s1.4-.6 1.2-1.3c-.1-.7 1.2-1.3 3.7-1.5 2.1-.2 5-1.1 6.4-2 1.5-.9 2.6-1.5 2.7-1.3.1 1 5.2-1.4 6.3-3 .7-1.1 1.8-1.9 2.4-1.9.5 0 3.4-2.4 6.3-5.3 6-5.9 11-9.9 13.7-10.9 1-.4 2.3-1.9 2.8-3.4.7-1.7 1.5-2.4 2.5-2.1.9.4 1.2.1.8-.9-.3-.9-.1-2.5.4-3.7 3.1-6.7 3.4-8 1.7-7.3-2.3.9-3.7-.3-2.4-1.9s.4-3.7-1.3-3.3-7.8-4.2-7.2-5.3c.4-.5-.1-.9-.9-.9s-1.9-.6-2.3-1.4c-.4-.7-2.5-2.3-4.7-3.4-2.1-1.1-4.5-3-5.3-4.2-1-1.4-1.9-1.8-2.6-1.2-1.7 1.3-7.7-1.4-7.7-3.6-.1-1.6-.1-1.6-1.1 0-.9 1.7-1.2 1.7-3.4.2-1.4-.9-2.5-1.3-2.5-.9s-.6.2-1.4-.4c-.7-.6-3.7-1.3-6.6-1.6-3-.2-7.1-1.3-9.2-2.4-2.1-1-4.1-1.5-4.3-1-.3.4-1.6.4-2.8 0-1.2-.5-4.1-.7-6.5-.5-3 .2-4.5-.1-4.8-1.1-.5-1.2-10.3-1.4-65.4-1.5-44.1 0-65.1.3-65.5 1.1-.5.7-1.1.7-2-.1-1-.8-1.5-.8-2 0s-1.1.8-2.1-.1c-.8-.6-2.1-.8-3.1-.4-2.9 1.3-4.3 1.4-4.9.4-.8-1.3-13.8-1.1-15.1.2-.8.8-1.3.8-1.7 0-.9-1.4-5.3-1.4-6.1-.1-.5.8-1.1.8-1.9.1-.9-.7-1.6-.7-2.3 0-.8.8-1.3.8-1.7 0-.9-1.4-7.3-1.5-8.1-.1-.4.6-1.3.5-2.5-.2-1.4-.9-2.2-.9-3.2 0-1.1.9-1.7.9-2.6 0-.8-.8-1.5-.8-2.4 0-.9.6-6.5.9-16.3.6-8.2-.3-19.5-.6-25-.7s-10.5-.5-11.2-1c-.6-.4-1.4-.3-1.8.3-.3.5-2.8 1-5.5 1s-5.2-.5-5.5-1c-.4-.6-1.1-.7-1.7-.4-.6.4-3.6.7-6.7.6-3.1 0-6.3.1-7.2.4-2.1.6-3.1 5.6-4.4 22.4-.7 8.5-1 11.9-1.4 14.3 0 .4-1.3 1.2-2.8 1.8-2.4.9-3 .7-4.6-1.2-1-1.2-1.5-2.9-1.2-3.7q.45-1.35-.9-.9c-1.6.6-8.1-6.2-7.7-8.1.1-.8-.3-2-.9-2.7s-1-2.2-.8-3.2c.2-.9-.1-1.8-.7-1.8-1.9-.1-3.6-1.7-3.1-3 .2-.7-.2-2.2-1-3.4s-1.2-2.7-.8-3.4c.5-.8.3-.8-.9.2-1.4 1.1-1.8 1.1-2.3-.3-.3-.8-.4-2.1-.1-2.8.2-.7-.4-2.4-1.4-3.7-1.1-1.3-1.9-3.1-1.9-4.1 0-.9-.3-2-.7-2.4-.5-.4-.9-2.2-1-3.9-.3-5.9-1.4-12.1-2.3-13.2-.4-.5-.7-2.1-.6-3.5s-.2-3.9-.6-5.5c-.5-1.7-1.1-6.4-1.4-10.5-.2-4.1-.7-8.1-.9-8.7-.4-1.2-.8-9.9-2-40.3-.2-6.9-.7-24-1-38s-.8-31.1-1.2-38c-.3-6.9-.6-14.1-.6-16s-.4-4.1-1-4.8c-.5-.6-.6-1.2-.2-1.2s.2-.6-.4-1.4c-.9-1-.9-1.6-.1-2.1s.8-1 0-2-.8-1.9.1-3.3c1-1.6 1-2.3 0-3.5-.8-1.1-.9-1.7-.1-2.2s.6-1.1-.6-1.9c-1.3-1-1.4-1.7-.6-3.2.7-1.2.7-2.5 0-3.7-1.5-2.8-1.8-5.6-.7-6.3.6-.3.6-1.1.1-1.7-.7-1-.9-3.2-.3-4 .8-.9.7-8.4-.1-9.4-.5-.6-.8-2-.6-3 .7-4.5 5.4-4.3-128.3-4.3C189 0 141.1.4 141.5.9m401.9 431.2c-.3.5-1 .7-1.5.3-.5-.3-.7-1-.3-1.5.3-.5 1-.7 1.5-.3.5.3.7 1 .3 1.5"/><path d="M463.6 1.5c-.3.8-1.1 1.5-1.8 1.5-1.3 0-7.2 7.3-7.4 9.1-.1.5-.2 1.2-.3 1.7 0 .4-1.4 2.2-3.1 4l-3 3.3-.1 97.5c0 53.6.2 97.8.5 98.2 1.7 1.6 27.9-.7 29.9-2.7.5-.5 1.1-2.6 1.3-4.7 1.1-10.8 1.2-14.4.4-14.9-.4-.3-.6-2.8-.5-5.7.2-2.9-.1-5.8-.7-6.5-.5-.7-.7-2.2-.3-3.3 1.1-3.5 1.2-12.9.2-12.7-.6.1-1-1.2-1.1-2.8-.1-1.7-.5-3.6-.9-4.3-.5-.6-.6-1.6-.3-2.1.3-.4.2-2.2-.3-3.8-.5-1.7-.5-3.6 0-4.4.4-.7.4-1.8 0-2.4-1.1-1.5-1.1-5.4 0-6 .5-.4.6-1.2.2-1.8-.5-.7-.9-3.7-1.1-6.7-.4-8.7-.7-11.4-1.4-12.6-.4-.6-.5-2.3-.2-3.9s-.2-3.7-1.1-5.1c-1.4-2.1-1.3-2.7.5-2.6.8.1.5-6.2-.3-7.5-.4-.6-.3-1.4.1-1.7.7-.4.9-5.1.2-5.1-.3 0-1.1-6.4-1.2-9 0-1.1.3-3.1.6-4.5.4-1.4.8-4.2 1-6.2.1-2 .8-4.3 1.5-5.2.7-.8 1-1.9.7-2.4-.6-.9 3.2-4 4.6-3.8.3.1 1.7-.9 3-2.1 1.8-1.7 4-2.2 10.8-2.7 10.7-.6 16.8.5 19.5 3.6 3.6 4.2 6.7 5.9 8.3 4.6 1.9-1.6 9.1-2.1 10.7-.8.9.8 1.5.8 2 0 .3-.6 1-.8 1.5-.5s1.1.1 1.4-.4c.3-.4 2.3-.7 4.3-.6 2.1.1 4.1-.3 4.4-.8.4-.5 3.1-1.1 6.1-1.2 3.1-.1 6.5-.9 8-1.9 1.4-.9 4.8-1.9 7.4-2.3 2.7-.3 6.4-1.2 8.3-1.9 5.1-2.1 27.1-1.3 33.4 1.3 2.7 1.1 5.2 2.5 5.6 3.1.3.6 1.9 1.5 3.4 2.1s3.1 2.2 3.7 3.5c.5 1.3 2.6 4 4.8 6 2.1 2 4.5 4.7 5.2 6.1 1 1.8 2.2 2.5 4.4 2.5s4.3 1.1 7.4 4c2.4 2.1 4.1 4.4 3.7 5-.3.5.3 2.4 1.5 4 1.2 1.7 1.8 3 1.3 3-.4 0-.1.5.7 1s1.6 1.4 1.6 2c.1.5.3 1.3.4 1.7.1.5.3 1.7.4 2.8s.7 3.2 1.4 4.7c.6 1.5 1.3 3.8 1.5 5 .1 1.3.8 3.3 1.5 4.4.6 1.2.9 2.3.7 2.6-.5.5 1.9 8.8 3.4 11.4 2 3.6 4.1 9 4.6 11.4.2 1.4 1.7 3.6 3.2 4.9 1.6 1.4 2.7 2.8 2.6 3.3-.2.4.8 1.5 2.2 2.4 2.1 1.4 2.3 1.9 1.3 3.1-1 1.3-.8 1.4 1.2 1.1 1.8-.2 2.8.4 3.7 2.2.7 1.4 1.3 2.1 1.3 1.6s.9-.1 2 .9 2 1.5 2 1c0-.4.6-.2 1.4.4 1.6 1.4 6.8 1.1 6.2-.4-.2-.5.6-2 1.7-3.2 1.4-1.6 2.4-2 3.6-1.3 1.4.7 1.7.3 1.8-2.8.1-6 .8-7.7 3.2-7.5 2.1.3 2.5-.4 2.2-4.3-.1-1.1.7-3.2 1.8-4.6 1.4-1.7 1.7-2.8 1-3.5-.8-.8-.6-2.1.6-4.6.9-1.9 1.7-4.9 1.8-6.8s.5-3.9.9-4.5c.8-1.2 1.6-8 2.3-19.7.5-9.5 1-11.1 2.8-10 .9.5.9.3 0-.8-2.5-3 1.2-10.1 5.5-10.4.9 0 2.3-.5 3-.9 1.4-.9 8.4-1.9 11.7-1.7 3.8.2 6.3-.9 6.8-3 .3-1.2 1-1.8 1.6-1.4 1.2.7 1.2.4 1.6-12.4.3-8.8 1.3-10.8 4.7-9 1 .6 2.2.8 2.6.5.4-.2 5.4-.5 11.2-.7 5.8-.1 11.4-.7 12.5-1.3 1.1-.5 2.3-.9 2.6-.9.4.1 1-2.5 1.3-5.8 1.1-9.7-.3-9 18.5-8.8 12.2.1 17 .5 18.1 1.5 1.6 1.4 9.2 3.6 12.5 3.6 3.7 0 6.5-.6 6.5-1.4 0-.4 1.3-.8 3-.8 1.6 0 2.9-.3 2.9-.8-.3-1.9.2-2.3 1.6-1.2 1.2 1 1.8 1 3.2-.1 1.7-1.4 2-1.4 4 .2.6.6 1.4.6 1.6.1.3-.4 2.7-.7 5.4-.5 13.3.9 20.3.9 20.3.1 0-.5 1.2-2.1 2.6-3.5s2.7-3.2 2.8-3.9c.1-.6.7-1.8 1.4-2.6.6-.8 1.3-2.4 1.5-3.6s.6-2.4 1-2.8c.3-.4.2-1.4-.2-2.3-.6-1-.4-2.9.7-5.1.8-1.9 1.6-4.2 1.6-5 .2-2.2 1.6-4.1 2.7-3.5.5.4.9-.1.9-.9C895 .2 874 0 679.6 0c-190.5 0-215.5.2-216 1.5m484-.6c-.3.5-.3 4 0 7.7 1.1 11.9 1.1 18.9.2 20.1-.5.7-.5 1.4.2 1.8.6.3.8 1 .5 1.5s-.1 1.2.5 1.5c.8.5.8 1.1 0 2s-.8 2-.2 3.2c.6 1 .9 4.8.8 8.3-.1 3.6.1 6.9.5 7.5.4.5 1.2 4.4 1.8 8.5.7 4.1 1.4 9.1 1.7 11s.7 5.7.8 8.5c.2 2.7.9 6.5 1.5 8.4s.8 3.7.6 4.2c-.3.4-.1 1.1.5 1.4.6.4.8 1.6.5 2.6-.4 1.1-.1 2.6.5 3.4.7.8.9 1.5.5 1.5s-.2.6.4 1.3c.6.8.7 1.7.3 2.1-1.2 1.3-.9 3 1.1 5.9 1 1.5 2.1 4.7 2.5 7 .3 2.3 1 4.5 1.5 4.9.6.3 1.2 1.7 1.4 3s.6 3 1 3.8c.3.8.7 1.7.8 2 .9 2.8 2.9 6.6 5 10 2.4 3.8 2.5 4.3 1.1 6.5-1.4 2.1-1.3 2.4.3 3.9 1.2 1.1 2 1.3 2.8.5s1.5-.1 2.7 2.1c.8 1.8 1.3 3.6 1 4.1s0 .8.8.7c.8-.2 1.2.5 1 1.8-.2 1.6.2 2.2 1.5 2 1.3-.1 1.7.5 1.5 2.3-.2 2 0 2.2 1.3 1.1 1.2-1 1.6-.9 2.1.4.4.9.4 2 0 2.3-.3.3-.1 1.2.5 2 .6.7.8 1.3.4 1.3-.5 0 0 .9 1 2 1.3 1.5 2.1 1.7 3.1.9 1.8-1.5 3.9-.2 2.4 1.6-1.2 1.4.7 3.5 3.6 3.9 1.5.2 2.6 1.5 4.1 4.4 0 .2.8.5 1.7.6 2.2.3 5.9 5.3 5 6.8-.6 1-.4 1 .8 0 1.1-.9 1.8-1 2.3-.2.4.6 1.5.8 2.4.5 1-.3 2.4.1 3.1 1 .7.8.9 1.5.5 1.5s-.2.7.5 1.5c.6.8.9 1.9.6 2.4-.4.5-.2 1.2.4 1.6.5.3 1.1.1 1.1-.4.3-2.6.4-3 1.2-3.7.4-.4.7-45.4.7-100.1V0h-37.9c-21 0-38.2.4-38.5.9M75.1 102.6c0 1.1.3 1.4.6.6.3-.7.2-1.6-.1-1.9-.3-.4-.6.2-.5 1.3M47 135c0 .5.5 1 1.1 1 .5 0 .7-.5.4-1-.3-.6-.8-1-1.1-1-.2 0-.4.4-.4 1"/><path d="M696 163c0 .5.5 1 1 1 .6 0 1-.5 1-1 0-.6-.4-1-1-1-.5 0-1 .4-1 1M547.9 395.2c-.8 1.5-.4 4.5.5 4.2 1.3-.5 1.6-4.4.4-4.4-.4 0-.9.1-.9.2M0 678.9c0 67.7.3 103 1 102.6.5-.3 3.9-.8 7.5-1 3.5-.2 7.2-.8 8.2-1.3s2.6-.8 3.5-.7c1 .2 2-.1 2.4-.6.3-.5 1-.7 1.5-.4.5.4 1.5.3 2.1-.1.7-.5 3.1-.9 5.3-1s4-.2 4-.4c0-.1.9-.4 2-.5 1.1-.2 4-.6 6.5-1s5.7-.8 7.2-.9 3-.5 3.4-.8c.3-.4 1.2-.4 2-.1s2.1 0 2.8-.6c1-.9 1.6-.9 2.1-.1s1 .8 2 0 1.5-.8 2 0 1.1.7 2.1-.1c.8-.7 3.6-1.3 6.2-1.5 2.6-.1 5.4-.5 6.2-.7.8-.3 2.6-.5 4-.3 1.4.1 3.1-.2 3.8-.7.7-.6 4.5-.9 8.4-.9 4 0 7.7-.3 8.3-.7 1.5-1.2 7.5-1.9 8.1-1 .2.5 1.5.4 2.8-.1 1.5-.5 2.7-.5 3.4.2.8.8 1.5.8 2.6-.1.9-.7 3.1-1 5.8-.7 5.8.7 10.6-.7 16.8-4.9 2.9-1.9 5.8-3.5 6.5-3.5s1.5-.5 1.7-1.1 2-2.1 4-3.3c1.9-1.1 7.5-4.5 12.4-7.4s9.3-5.4 9.9-5.5c.5-.1 1.6-1 2.3-2 .7-.9 1.8-1.7 2.4-1.7.5 0 2.3-1 3.8-2.3 1.5-1.2 5.3-4 8.5-6.2 3.1-2.2 10.2-8.9 15.7-14.9 14.4-15.6 25.8-25.3 35.6-30.1 2.8-1.5 5.2-3 5.2-3.4 0-.5 2.2-2.2 4.9-3.8 3.5-2.2 5.3-2.8 6.5-2.1.9.5 1.5.6 1.4.1-.2-.4 0-.8.4-.8s1.3-.9 2.1-1.9c.8-1.1 2.1-1.7 3-1.3.8.3 2.1-.1 2.7-.8.7-.8 1.7-1.2 2.3-.8.6.3.7.1.3-.5-.8-1.4 3-3.6 4.9-2.8.8.3 1.7.1 2-.5.4-.5 1.1-.7 1.6-.3.5.3.8 0 .7-.7-.2-.7.7-1.4 1.8-1.5 1.2 0 4.2-1.1 6.8-2.3 2.5-1.3 5-2 5.5-1.7.5.4 1.2.2 1.5-.3s1.5-.7 2.6-.4c1.4.4 2 .1 1.8-.7s1.1-1.3 3.7-1.5c2.2-.1 5.3-.7 6.8-1.3 1.6-.7 3.3-1 3.8-.6.5.3.8 0 .7-.8-.2-.7.4-1.2 1.4-1 .9.1 1.9-.2 2.3-.7.3-.7 1.5-.7 2.9-.1 1.3.5 2.7.6 3 .2.6-.5 3.4-1 8.8-1.5.9-.1 1.6-.5 1.5-1s1.9-1 4.5-.9c2.8 0 4.9-.5 5.2-1.3.2-.7 1.5-1.1 2.9-.8s2.7 0 3.1-.5c.3-.6 2-.7 4-.2 1.9.4 3.8.4 4.3 0 .7-.7 22.6-3.2 30-3.4 1.2-.1 2.1-.5 2-1-.3-1.2 6.1-1.8 6.8-.6s4.6 1.4 4.2.2c-.1-.4.3-.7.8-.7.6 0 .9.3.8.7-.2.5.6.8 1.8.8 1.1 0 1.8-.4 1.4-.9-.8-1.5 1.5-2.5 2.8-1.2 1.4 1.4 5 1.4 6.5-.1.8-.8 1.5-.8 2.4-.1 1.2.9 18.8 2.1 43.8 2.9 13.3.4 31 2.2 49 4.9 9.1 1.4 19 2.7 22 2.9s6.3.7 7.3 1.1 2.1.5 2.4.1c.4-.3 1.4 0 2.2.8.9.8 3.2 1.8 5.1 2.1s5.1 1 7.1 1.6c2 .5 4.4.6 5.3.3 1.8-.7 4.9 1.3 4.1 2.6-.3.5.1.7.9.6 1.7-.2 4.8-2.7 4.2-3.3-.9-.9 2.8-8 8-15.5 5.2-7.3 6.2-10.1 4.6-12.3-.8-1.2-3.3-1.8-2.9-.7.1.4-.3.8-.8.9-.6.2-1-.3-1-1 0-.6-1-1.3-2.3-1.3-1.3-.1-3.3-1-4.5-2.2-1.6-1.5-2.8-1.8-4.4-1.1-1.3.4-2.5.4-2.8-.1-.6-.9-7.5-2.4-11.7-2.5-1.5 0-3.4-.9-4.3-2-1-1.3-1.4-1.5-1.3-.5.3 1.5-.7 1.6-6.2.6-1.4-.2-2.5-.5-2.5-.6s-.9-.3-2-.5c-1.1-.1-3.3-.6-5-.9-1.6-.4-3.4-.8-4-.9-.5-.2-1.6-.6-2.3-1.1-.7-.4-1.9-.3-2.6.3-1 .8-1.6.8-2.5-.2-.6-.8-.9-1.6-.7-1.8s-1.7-.4-4.2-.5c-3.4 0-4.6-.4-4.4-1.4.3-1.1 0-1.1-1.2 0-1.5 1.2-2.1.7-1.6-1.5.1-.6-.4-.5-1 .1-.9.9-2 .8-4.3-.4-6.2-3-6.6-3.2-7.2-2.2-.4.6-1.1.8-1.6.5-.8-.6-2.9-1.1-6.7-1.9-.8-.1-1.7-.7-2-1.3-.4-.5-2-1.5-3.7-2-1.6-.6-2.9-1.6-2.7-2.3.3-1.1 0-1.1-1.2-.1-1.3 1.1-2.1 1-4.3-.5-1.6-1-3.2-1.9-3.8-1.9-.5 0-.9-.9-.9-1.8.2-1.7.1-1.7-1.6-.2-1.5 1.4-1.8 1.4-3 0-.9-1.1-1.6-1.2-2.6-.4-.7.6-1.7.9-2.1.6s-.9 2.7-1.1 6.6-.7 7.6-1.2 8.2c-.6.7-.7 1.4-.4 1.8.7.6-4.1 4-6.5 4.5-.9.2-3.2.5-5.1.8s-3.9.9-4.5 1.4c-.5.4-2.6.7-4.5.6-1.9-.2-4.8.1-6.5.6-4.7 1.5-7.5 1.9-14.5 2.2-3.6.1-7.1.5-7.8 1-.6.4-2.1.2-3.2-.4-1.6-.8-2-.8-1.8.2.2.8-.5 1.2-1.7 1-4.5-.6-11.7-.2-13.6.9-1.2.6-3.1.8-4.4.5s-2.6-.2-2.9.2c-.3.5-2.2.7-4.2.6-2-.2-4.5.1-5.5.6q-1.8 1.05-2.4 0c-.7-1.1-7.5-.7-9.4.4-.5.4-1.2.2-1.5-.3-.8-1.2-5.8-1.1-7.3.1-.7.6-1.3.7-1.3.3s-.6-.2-1.4.4c-1 .8-1.6.9-2.1.1-.3-.6-1.2-.7-1.8-.3-.7.4-2.1.8-3.2.8s-2.4.3-3 .6c-.5.4-4.1.5-8 .4-3.8-.1-7.4 0-8 .4-.5.3-3.1.7-5.7.8-2.7 0-4.9.2-5 .3-.2.1-3.4.3-7.3.5-3.8.1-8.1.7-9.5 1.2s-3.6.8-4.9.7-3.5.5-4.9 1.2c-1.8.9-3.1 1-4.5.3-1.4-.8-2.3-.7-3.6.5-1.1 1-2.1 1.2-3.1.6-.9-.5-1.9-.5-2.7.1-.7.6-1.6.8-2.2.5-.5-.3-1.2.1-1.5.9-.4 1.1-1.3 1.4-3 .9-1.3-.3-3.7.1-5.3 1-2.1 1-3.3 1.2-4 .5-.8-.8-1.8-.7-3.4.2-1.3.7-2.6 1.3-2.9 1.4-.3 0-1.9 1-3.7 2.3-2 1.4-3.4 1.9-3.8 1.2-.5-.8-1.1-.8-2 0s-1.5.8-2 0c-.4-.7-1.2-.7-2.6 0-1 .6-1.9.8-1.9.4 0-.3-.7-.1-1.5.6-.8.6-2.3.9-3.3.6-1.3-.5-2.2-.1-2.6 1-.4 1-1.3 1.4-2.6 1.1s-2.4.1-3 1.3c-.8 1.5-2 1.8-5.7 1.5-2.7-.1-5.6-.6-6.6-1q-1.8-.75-1.5.6c.2.7-.3 1.4-.9 1.5-.7.1-1.4.3-1.5.4-.2.1-1.9.3-4 .5-2 .2-4.6.8-5.8 1.5-3.2 1.7-5.8 2-8.5 1-1.7-.6-2.7-.5-3.5.5-.7.8-1.6 1.3-2 1s-1.1.2-1.4 1.1q-.6 1.65-2.4.9c-3.5-1.4-6.4-1.5-7.8-.4-1.1.9-1.8.8-3-.1-1.2-1.1-1.5-1.1-1.2.1.2 1-.4 1.3-2.1 1.1-1.4-.2-2.1 0-1.7.6 1 1.7-1.1 2.3-2.3.8-.7-.8-2.4-1.3-4.1-1.1-1.6.2-3.2 0-3.5-.6-.4-.5-1-.7-1.5-.4s-1.1.1-1.5-.5c-.4-.7-1.3-.7-2.6 0-2.3 1.3-4.3.4-3.5-1.6.6-1.6-2.5-1.8-5.9-.5-1.4.6-2.7.3-4.3-.9-1.2-1-3.5-1.7-5-1.5s-3.1 0-3.7-.3c-.5-.4-1.9-.6-3-.7-1.4 0-1.9-.6-1.7-1.9.3-1.5.1-1.8-1-1-1.8 1.4-2.8 1.2-6.1-1-1.5-1-4.2-2-6-2.1-2.1-.1-3.1-.6-2.9-1.5.2-1 0-1.1-1.1-.2-1.1 1-1.9.7-3.9-1.1-1.4-1.3-3-2.1-3.5-2-.6.2-1.9-.7-3-2-1-1.3-2.4-2.2-3-2-1.8.6-5.4-1.7-4.7-2.9.4-.6.3-.8-.3-.5-.6.4-2.4-.6-4.1-2.1-1.6-1.5-3.4-2.6-3.9-2.5-.5.2-1.8-.6-2.8-1.7-1.3-1.5-2.1-1.7-3.1-.9s-2.2.4-4.9-1.6c-1.9-1.5-3.5-2.3-3.5-1.9 0 .5-.7 0-1.5-1-.8-1.1-1.5-1.6-1.5-1 0 .5-.7 0-1.5-1-1.2-1.6-1.8-1.7-2.7-.8-1.5 1.5-5.8-2.2-5.8-5.2 0-1.4-.3-1.7-1.1-.9-1.3 1.3-11.5-3.8-11.1-5.6.1-.6-.2-1.2-.8-1.2-1.9-.3-2.5-.5-6.2-2.8-2.3-1.4-3.5-2.8-3.1-3.4.4-.7-.1-.6-1 .2-1.5 1.2-2.1.9-1.9-1 .1-.4-.6-.6-1.4-.5-.8 0-2.2-1.2-3.2-2.9-2.4-4.2-4.4-5.6-6-4.3-1.7 1.5-7.5-3.9-6.9-6.4.3-1 0-1.5-.8-1.2-.7.3-2.7-1.4-4.4-3.7L0 575.6zm596-20.4c-1.1 1.3.7 6.4 3.2 9.6 2 2.4 5.6 4.1 6.3 2.9.9-1.4 2.5-.3 2 1.3-.4.8.9 1.3 4 1.4l4.5.2-.2-4.3c-.2-2.4-.6-4.2-.9-4-.4.2-1.4-.7-2.3-2.1-3.1-4.7-14.1-8-16.6-5m15.6 6.6c1 1.7-1.3 3.6-2.7 2.2-1.2-1.2-.4-3.3 1.1-3.3.5 0 1.2.5 1.6 1.1m50.8-.2c-2.1 1-5 3-6.3 4.4-1.3 1.5-2.7 2.4-3.1 2.2-.9-.6-2.3 4.2-1.6 5.4.3.5 3.7.9 7.7 1 6 .1 7.8-.2 11.4-2.4 4.5-2.6 8.5-6.9 8.5-9 0-3.1-10.9-4.1-16.6-1.6m97.1 36.8c-.8 1.7-1.2 4.8-1.8 11.8-.2 1.7-.8 2.9-1.5 2.7-.7-.1-1.2.6-1.1 1.5.2 3 1.5 6.8 2.2 6.5 1.6-.5 1.9-.1.7 1.4-.8.8-.9 1.4-.4 1.2s.9.1.9.7c0 .5-.3.9-.7.8-.4-.2-.5 3.2-.2 7.5.7 9 .7 7.3.1 19.2-.3 5.2-.8 10.3-1.2 11.2-.8 2 5.3 6.4 10 7.2 1.7.2 5.5 1 8.5 1.6 13.4 2.9 12.4 2.9 15.7 0 2-1.8 2.8-3.2 2.3-4s-.4-2.3 0-3.5c.6-1.5.4-2.9-.6-4.4-.8-1.1-1.2-2.1-.8-2.1.3 0 .1-.6-.5-1.4-.6-.7-.8-2.1-.5-3 .4-1.1.2-1.6-.7-1.4s-1.4-.5-1.3-1.9c0-1.2-.4-2.1-.9-2s-1.1-1.3-1.3-3.2-1.1-4.3-2-5.2c-.9-1-1.3-2.2-1-2.8.4-.5-.2-2.5-1.3-4.4-1.1-2-1.6-3.9-1.1-4.7s-.2-2.2-2.2-3.8c-1.6-1.4-2.7-3.1-2.4-3.8s-.3-2.1-1.2-3.1c-.9-.9-1.7-2.1-1.7-2.7-.1-.6-.6-2.1-1.3-3.4-.7-1.2-.9-2.2-.5-2.2s.1-.5-.7-1-1.6-1.4-1.6-2c-.1-.5-.2-1.5-.3-2.1 0-.5-.6-.7-1.2-.4-.6.4-1.3-.2-1.6-1.4-.3-1.1-.9-1.8-1.4-1.5-.5.2-1.4-.4-2.1-1.6-1.6-2.5-2.4-2.5-3.3-.3m-5.5 1.9c0 .8.5 1.2 1 .9.6-.4.8-1.1.5-1.6-.9-1.4-1.5-1.1-1.5.7M490.8 813.5c-.3.3-3.1.8-6.1 1-3.1.2-6.4.8-7.4 1.3-1 .4-2.9.7-4.3.6s-3.2.2-4.1.7c-2.8 1.4-17.7 2.6-42.4 3.4-22.7.7-29.1 1.1-30.3 1.9-.6.3-1.3.2-1.7-.4s-1.1-.8-1.6-.5c-1.5 1-1 3.7 1 5.9 1.8 2 2.7 2.1 12.8 1.5 30.7-1.7 81.6-.4 84.8 2 .6.5 2.6.9 4.5.9 3.5.2 5.4.5 10.1 1.7 3.9 1 4.5-1.1.7-2.4-6.6-2.3-12.2-8-13.2-13.5-.6-3.1-1.9-5-2.8-4.1m198.9 11.1c-.3.3-1.3.7-2.4.9-1 .2-2 .4-2.2.4-.2.1.4 1 1.4 2.1 1.7 1.9 2 1.9 3.6.4 1-.9 2.6-1.3 3.7-.9 1.1.3 2.3.1 2.7-.5.3-.5 1.7-1 3.1-1s2.3-.4 2-.9c-.6-1-11-1.4-11.9-.5m-371.8 15.6c-.6 2.3-.6 5.7.1 5.3.5-.3 1.1-.1 1.4.4.4.5 4.1.9 8.4.9 4.2 0 11.1.2 15.2.5 4.1.4 6.8.4 6 0-.8-.3-2.2-1.1-3-1.8-2.8-2.4-27.6-7-28.1-5.3m301.6 8.5c1.1.2 3.8 1.2 6 2.2s5.1 2.2 6.5 2.6c4 1.2 12.9 6.5 14.3 8.5.6.9 2.3 2.1 3.7 2.5 2.3.7 2.1.4-1.4-3.6-5.4-6-7.8-7.5-15.5-9.5-3.6-.9-7-2.1-7.5-2.6-.6-.4-2.6-.7-4.5-.7-2.1.1-2.7.3-1.6.6M0 1014.8v9.3l7.7-.3c5.7-.2 7.8-.7 8.1-1.8.4-1.2.2-1.2-.8-.3s-1.8.8-3.6-.4c-1.3-.8-2.2-1.9-1.9-2.3.3-.5.1-1.2-.5-1.5-.6-.4-.9-.3-.8.2.2.4-.1.8-.7.8-.5 0-.9-.4-.7-.8.1-.5-.2-.6-.7-.2-.6.3-1.4-.3-2-1.3-.8-1.4-.5-2.3 1.1-3.7 1.9-1.6 2-1.8.4-2.7-.9-.5-1.3-1.4-.9-2.1.4-.8.1-.7-.9.1-1.4 1.1-1.8 1-2.7-.5-.8-1.4-1 .5-1.1 7.5m4.4-2.7c-.3.5-1 .7-1.5.3-.5-.3-.7-1-.3-1.5.3-.5 1-.7 1.5-.3.5.3.7 1 .3 1.5"/></g></svg>