<svg version="1.1" xmlns="http://www.w3.org/2000/svg" style="display: block;" viewBox="0 0 2048 2048" width="1024" height="1024">
<path transform="translate(0,0)" fill="rgb(255,255,255)" d="M 0 0 L 2048 0 L 2048 2048 L 0 2048 L 0 0 z"/>
<path transform="translate(0,0)" fill="rgb(0,0,0)" d="M 205.715 120.228 C 248.592 119.254 291.345 121.494 334.196 121.323 L 708.558 121.509 L 863.35 121.978 C 889.1 121.94 915.759 120.255 941.404 122.128 C 948.254 122.628 954.702 126.447 960.853 129.312 C 963.98 138.345 966.534 147.327 966.885 156.946 C 967.834 182.894 966.938 209.077 967.116 235.054 L 966.907 492.807 L 968.417 654.746 C 968.692 678.276 972.013 733.471 966.772 753.929 C 962.683 753.777 955.17 754.381 951.872 752.075 C 947.916 749.309 948.23 730.714 948.081 725.911 C 947.36 702.779 947.933 679.453 947.942 656.302 L 948.004 521.949 L 946.001 294.448 L 946.14 199.499 C 946.269 179.856 947.183 160.502 946.001 140.859 L 206.458 140.681 C 207.133 152.545 205.008 165.234 204.389 177.166 C 203.589 192.589 203.991 208.14 204.011 223.583 L 203.899 489.33 L 203.762 1182.2 C 216.05 1181.7 228.334 1181.08 240.61 1180.34 C 242.375 1161.82 240.245 1141.54 240.136 1122.84 L 240.105 1006.99 L 240.011 473.364 C 240.01 407.577 239.051 341.769 239.816 275.999 C 240.14 248.174 239.213 220.349 241.226 192.537 C 241.556 187.976 244.134 183.915 246.26 179.965 C 257.39 177.646 268.344 179.295 279.577 179.239 C 291.542 179.179 303.527 178.413 315.509 178.335 C 327.503 178.258 339.403 178.866 351.421 178.556 C 390.808 177.538 430.172 178.34 469.559 178.2 L 755.288 177.964 C 781.918 177.825 808.549 177.921 835.177 178.25 C 857.054 178.732 879.518 180.566 901.331 178.749 C 901.399 178.833 901.469 178.915 901.536 178.999 C 906.152 184.79 910.797 190.384 911.597 198.026 C 912.851 210.006 912.11 222.602 912.085 234.638 L 912.009 298.06 C 912.317 371.593 912.151 445.127 911.509 518.658 L 912.093 684.848 C 912.121 712.946 913.624 741.982 910.767 769.958 C 932.366 769.616 954.45 769.225 975.932 771.835 C 991.508 773.727 1006.98 777.226 1022.55 779.435 C 1029.62 759.834 1039.15 740.664 1053.47 725.253 C 1061.21 716.92 1075.66 707.504 1080.25 697.283 C 1086 684.497 1087.88 668.067 1091.22 654.407 C 1099.21 621.752 1107.22 588.445 1119.34 557.022 C 1125.48 541.106 1135.78 516.827 1152.7 509.884 C 1162.04 506.053 1171.22 508 1180.23 511.56 C 1188.22 515.982 1194.93 521.773 1200.95 528.597 C 1217.03 546.818 1239.76 586.567 1249.89 609.175 C 1254.4 619.233 1258.07 629.796 1261.97 640.105 C 1265.24 638.719 1268.58 637.514 1271.99 636.496 C 1306.9 625.846 1372.05 633.885 1403.94 650.65 C 1412.61 641.655 1422.29 633.467 1431.44 624.947 C 1444.19 613.079 1456.76 600.614 1470.54 589.958 C 1487.36 576.953 1515.65 557.279 1538.37 560.77 C 1546.44 562.011 1553.09 566.639 1557.88 573.14 C 1561.97 578.684 1564.54 585.198 1565.81 591.943 C 1572.19 625.91 1563.72 713.008 1558.52 749.564 C 1575.59 751.002 1592.78 752.734 1609.91 753.175 C 1638.42 753.909 1666.99 752.616 1695.51 753.14 C 1714.86 753.495 1734.3 755.206 1753.64 756.066 C 1781.38 757.3 1809.78 758.115 1837.12 763.157 C 1874.95 770.132 1913.62 786.971 1935.75 819.747 C 1951.06 842.404 1958.8 870.008 1961.3 897.048 C 1966.17 949.732 1954.27 1017.7 1946.38 1070.52 C 1939.4 1117.28 1932.47 1163.57 1923.35 1210 C 1926.08 1212.14 1928.75 1214.35 1931.37 1216.63 C 1956.89 1239.17 1967.19 1268.5 1969.05 1301.74 C 1970.91 1335 1968.82 1380.1 1949.25 1408.6 C 1943.37 1417.15 1934.65 1423.88 1927.7 1431.62 C 1928.38 1449.3 1926.96 1466.94 1925.97 1484.58 C 1924.54 1513.53 1922.45 1542.44 1919.72 1571.29 C 1916.6 1606.12 1914.42 1641.59 1909.98 1676.24 C 1907.26 1697.47 1895.24 1713.43 1878.77 1726.22 C 1881.93 1755.57 1887.53 1805.59 1883.43 1833.49 C 1878.38 1836.96 1873.58 1839.69 1867.57 1841.15 C 1854.77 1844.25 1832.81 1844.25 1821.68 1836.91 C 1807.34 1827.45 1804.83 1799.38 1801.55 1783.8 C 1778.24 1793.13 1757.86 1807.63 1736.61 1820.74 C 1724.39 1828.28 1711.72 1835.03 1699.54 1842.63 C 1672.73 1859.38 1645.59 1882.08 1612.49 1882.87 C 1614.8 1899.72 1619.9 1937.44 1616.9 1952.92 C 1615.21 1961.58 1610.63 1968.9 1603.03 1973.54 C 1592.01 1980.27 1570.91 1979.23 1558.63 1976.19 C 1518.31 1966.21 1519.96 1912.28 1501.54 1882.56 L 1500.76 1881.32 C 1475.09 1878.86 1448.83 1878.41 1423.05 1876.51 C 1351.29 1871.35 1279.56 1865.78 1207.86 1859.79 C 1022.11 1843.79 836.485 1826.34 651.004 1807.44 L 590.856 1801.88 C 578.873 1800.7 566.377 1798.6 554.366 1798.61 C 536.301 1798.62 523.689 1805.69 502.418 1803.98 C 481.614 1802.31 470.673 1789.12 453.041 1786.14 C 445.448 1784.85 437.305 1785.02 429.613 1784.29 L 367.081 1777.87 C 351.145 1776.24 334.38 1775.3 318.8 1771.46 C 311.484 1788.75 297.364 1849.79 286.071 1858.76 C 274.215 1868.17 246.647 1868.95 232.259 1867.08 C 226.207 1866.29 218.592 1864.3 214.83 1859.05 C 211.864 1854.91 210.659 1849.56 210.196 1844.57 C 208.583 1827.19 214.03 1776.83 217.291 1759 C 197.016 1755.32 171.758 1752.71 154.579 1740.51 C 130.175 1723.17 133.089 1676.28 131.893 1649.5 C 130.498 1618.28 129.274 1587.19 130.175 1555.92 C 130.987 1527.75 131.923 1499.69 132.132 1471.5 C 132.232 1457.89 133.269 1443.35 131.002 1429.92 C 130.934 1429.52 130.856 1429.12 130.783 1428.71 C 115.417 1409.64 102.754 1392.83 96.4182 1368.7 C 86.4232 1330.63 91.0016 1278.81 111.324 1244.65 C 126.579 1219 151.674 1203.52 180.325 1196.27 C 185.116 1182 183.1 1167.35 183.47 1152.61 C 184.573 1108.69 183.466 1064.78 183.794 1020.86 L 184.022 417.984 C 184.022 347.162 182.829 276.304 183.684 205.499 C 183.926 185.445 183.557 165.353 184.401 145.307 C 184.62 140.093 185.461 134.639 188.291 130.147 C 192.308 123.773 198.741 121.768 205.715 120.228 z"/>
<path transform="translate(0,0)" fill="rgb(255,255,255)" d="M 1157.39 533.944 C 1158.79 533.854 1162.35 533.5 1163.5 534.095 C 1175.23 540.154 1214.98 619.864 1218.88 634.415 C 1222.16 646.67 1226.48 675.477 1231.11 684.848 C 1231.89 686.423 1233.42 687.925 1234.93 688.786 C 1245.64 694.883 1280.58 661.651 1290.7 655.041 C 1295.26 652.066 1300.16 650.291 1305.25 648.479 C 1299.55 664.874 1291.86 680.502 1285.88 696.798 C 1286.54 698.593 1287.19 700.43 1288.05 702.144 C 1289.21 704.488 1291.02 706.12 1293.64 706.682 C 1306.16 709.374 1340.12 672.343 1352.39 664.563 C 1357.98 661.023 1365.11 657.818 1371.83 659.387 C 1372.45 666.446 1352.38 696.049 1351.11 707.933 C 1350.76 711.165 1351.18 715.019 1353.61 717.418 C 1357.04 720.811 1362.34 719.996 1366.74 719.849 C 1381.65 709.968 1394.95 696.304 1408.16 684.234 C 1434.33 660.307 1459.76 635.903 1486.48 612.544 C 1497.1 603.267 1508.19 592.028 1520.43 584.997 C 1525.02 582.358 1530.92 580.714 1536.15 582.293 C 1541.68 583.961 1543.76 589.188 1544.89 594.371 C 1548.82 612.433 1543.79 690.756 1541.13 712.278 C 1539.17 728.209 1532.58 756.736 1533.24 771.188 C 1533.57 778.305 1537.86 784.558 1540.89 790.79 C 1555.48 820.768 1547.84 872.602 1537.12 903.036 C 1517.14 898.628 1496.66 894.468 1476.45 891.229 C 1458.92 888.419 1393.52 880.63 1379.98 884.612 C 1377 885.489 1374.55 887.286 1373.36 890.269 C 1372.36 892.782 1372.7 894.895 1373.83 897.277 C 1376.1 902.092 1382.22 903.564 1386.92 904.605 C 1402.12 907.968 1418.82 908.147 1434.36 909.853 C 1464.97 913.216 1495.84 918.91 1525.16 928.301 C 1515.1 946.138 1505.01 959.826 1488.69 972.378 C 1487.95 971.761 1487.21 971.155 1486.45 970.56 C 1461.57 951.081 1425.14 936.287 1394.47 930.495 C 1389.88 929.627 1383.93 927.89 1379.32 928.64 C 1377.2 928.986 1376.92 929.317 1375.71 930.932 C 1376.58 936.329 1381.08 941.525 1383.98 946.089 C 1418.6 960.633 1444.65 967.689 1477.19 989.107 C 1468.77 998.191 1460.43 1007.5 1450.05 1014.41 C 1438.71 1021.96 1401.12 1032.26 1396.75 1043.45 C 1395.82 1045.82 1395.67 1047.77 1397.07 1050.01 C 1399.67 1054.16 1404.83 1055.18 1409.19 1056.43 C 1422.59 1053.97 1435.12 1048.14 1448.58 1045.51 C 1471.32 1061.81 1506.68 1110.03 1518.4 1135.48 C 1534.34 1170.06 1546.1 1205.18 1546.25 1243.68 C 1546.3 1254.72 1545.84 1265.53 1541.87 1275.96 C 1534.36 1295.72 1522.01 1308.23 1503.35 1317.67 C 1494.36 1322.22 1484.92 1327.95 1475.02 1330.22 C 1443.6 1337.43 1403.89 1314.22 1365.41 1325.84 C 1334.94 1335.04 1323.66 1363.67 1295.85 1375.81 C 1291.06 1377.9 1283.09 1380.35 1278.05 1377.57 C 1276.56 1376.74 1275.47 1376.04 1274.97 1374.37 C 1272.47 1365.99 1284.3 1350.48 1288.01 1342.73 C 1285.47 1341.11 1282.72 1339.31 1279.75 1338.57 C 1258.25 1333.23 1261.85 1373.5 1248.57 1379.25 C 1245.71 1380.49 1243.32 1380.39 1240.42 1379.45 C 1236.55 1378.19 1233.59 1376.51 1231.86 1372.86 C 1232.22 1358.17 1241.83 1344.1 1247.66 1331.07 C 1244.81 1328.17 1241.51 1325.9 1238.25 1323.5 C 1237.72 1323.69 1237.2 1323.86 1236.68 1324.05 C 1218.3 1330.73 1216.77 1343.37 1209.37 1359.4 C 1204.65 1347.01 1202.47 1334.86 1206.03 1321.7 C 1219.19 1273.05 1321.7 1242.47 1366.69 1238.14 C 1379.59 1236.89 1421.31 1240.63 1428.64 1236.55 L 1427.97 1231.95 L 1428.64 1231.18 C 1429.74 1233.4 1430.07 1234.31 1431.96 1235.97 L 1433.88 1234.76 C 1434.73 1232.96 1435.24 1231.47 1435.2 1229.48 C 1434.89 1212.31 1421.2 1185.21 1409.27 1172.96 L 1399.38 1173.76 C 1398.39 1174.76 1398.14 1174.91 1397.34 1176.24 C 1392.74 1183.98 1400.33 1203.77 1402.96 1212.04 C 1352.92 1211.4 1301.45 1223.14 1255.88 1243.66 C 1219.9 1259.85 1198.25 1278.13 1184.11 1315.27 C 1145.62 1327.89 1105.58 1346.24 1075.78 1374.03 C 1052.21 1396.01 1025.77 1432.47 1024.76 1466.03 C 1024.28 1481.88 1029.43 1491.73 1039.9 1502.9 C 1029.59 1507.29 1018.13 1509.65 1007.31 1512.52 C 983.018 1518.98 959.05 1525.26 934.043 1528.38 C 923.583 1529.68 912.931 1529.32 902.512 1530.81 C 855.854 1537.46 796.395 1556.18 758.793 1584.76 C 732.398 1606.04 720.98 1630.39 700.562 1655.48 C 664.881 1699.31 576.443 1764.9 523.998 1780.66 C 529.456 1767.33 534.699 1754.05 540.586 1740.89 C 534.731 1739.82 529.206 1738.41 523.636 1741.35 C 510.965 1748.05 506.623 1767.82 502.542 1780.55 L 477.611 1775.17 C 482.051 1764.43 504.365 1734.47 503.662 1726.14 C 503.552 1724.83 501.63 1723.41 500.492 1722.78 C 497.695 1721.22 494.74 1720.74 491.625 1721.57 C 480.138 1724.62 470.485 1742.82 465.005 1752.31 C 462.821 1746.64 461.488 1741.18 462.381 1735.07 C 463.555 1727.04 467.718 1719.95 472.937 1713.89 C 486.609 1697.99 505.253 1686.19 522.143 1673.98 C 537.542 1662.86 552.262 1650.9 567.544 1639.63 C 576.181 1633.26 585.539 1627.87 593.942 1621.21 L 594.885 1620.45 C 599.468 1608.59 604.754 1597.26 607.962 1584.9 C 616.53 1551.9 619.04 1517.66 632.702 1485.95 C 642.35 1463.11 656.286 1442.34 673.755 1424.75 C 716.18 1382.6 789.005 1353.18 848.993 1354.06 C 863.499 1354.28 877.628 1355.48 891.971 1357.63 C 899.407 1358.75 907.029 1360.73 914.49 1361.24 C 918.209 1361.49 922.324 1361.35 925.778 1359.8 C 929.558 1358.1 932.267 1355.41 933.585 1351.48 C 932.621 1347.5 930.646 1345.33 927.084 1343.19 C 905.77 1330.4 846.981 1331.25 822.167 1334.54 C 808.505 1336.36 794.809 1340.04 781.339 1343 C 800.11 1289.6 836.38 1244.11 870.812 1200.12 C 874.32 1204.23 878.248 1207.96 882.533 1211.26 C 907.467 1230.3 937.923 1236.96 968.79 1232.47 C 990.901 1229.26 1032.52 1212.18 1045.75 1193.45 C 1052.46 1183.93 1055.01 1172.08 1052.79 1160.64 C 1048.46 1137.16 1030.47 1123.29 1011.84 1110.91 C 1017.79 1106.67 1034.66 1098.86 1038.06 1093.84 C 1039.7 1091.42 1039.46 1090.85 1038.91 1088.17 C 1036.02 1084.63 1031.13 1083.3 1026.99 1081.61 C 1026.36 1081.66 1025.72 1081.72 1025.09 1081.78 C 1011.28 1083.24 994.143 1088.72 985.392 1100.1 C 982.613 1103.71 981.03 1107.95 981.937 1112.52 C 984.43 1125.08 1000.67 1130.36 1010.04 1136.65 C 1024.38 1146.27 1028.56 1158.63 1031.72 1174.72 C 1029.26 1177.84 1026.79 1181.41 1022.93 1182.76 C 1015.73 1181.41 1012.77 1168.93 1007.92 1163.68 C 1005.13 1160.66 1001.33 1158.79 997.754 1156.86 C 994.028 1157.34 990.452 1157.61 987.742 1160.37 C 983.899 1169.64 992.558 1177.17 996.731 1184.79 C 998.434 1187.9 999.413 1191.56 1000.47 1194.93 C 990.465 1199.63 980.586 1204.29 970.154 1207.99 C 969.481 1202.69 968.82 1197.11 967.413 1191.96 C 965.833 1186.17 963.478 1179.57 957.811 1176.62 C 954.453 1174.87 950.597 1174.65 947.042 1175.87 C 944.49 1176.75 942.087 1179.12 941.053 1181.6 C 938.352 1188.07 944.926 1196.09 946.788 1202.27 C 947.623 1205.04 947.788 1207.26 946.247 1209.84 C 945.407 1211.24 944.835 1211.64 943.207 1211.93 C 936.661 1213.11 922.799 1208.77 917.105 1205.58 C 896.362 1193.99 877.682 1175.55 871.256 1152.07 C 867.181 1137.17 868.721 1115.75 876.824 1102.39 C 906.563 1053.36 1010.55 1026.37 1063.28 1013.14 C 1073.81 1010.5 1084.13 1007.19 1094.72 1004.75 C 1104.54 1009.7 1113.16 1017.11 1122.57 1022.83 C 1151.39 1040.35 1182.83 1049.21 1216.52 1050.12 L 1224.55 1041.6 C 1222 1037.71 1219.23 1034.33 1214.99 1032.19 C 1207.15 1028.22 1195.41 1027.76 1186.75 1025.68 C 1172.92 1022.35 1159.71 1017.02 1146.96 1010.73 C 1099.79 987.451 1058.43 948.991 1041.27 898.303 C 1051.82 897.122 1090.73 895.744 1096.03 887.871 C 1097.39 885.852 1097.97 884.103 1097.41 881.679 C 1096.22 876.535 1089.91 872.725 1085.91 869.994 C 1069.5 869.324 1052.81 873.131 1036.42 874.419 L 1034.85 859.554 C 1045.7 860.013 1080.18 868.287 1086.29 866.472 C 1089.35 865.562 1091.77 862.964 1092.94 860.125 C 1092.66 858.461 1092.73 857.712 1091.67 856.319 C 1083.84 845.972 1048.84 841.328 1035.98 839.648 C 1035.94 829.207 1037.33 819.802 1039.96 809.704 C 1053.99 813.824 1065.26 820.816 1077.18 829.124 C 1081.91 832.425 1086.85 836.528 1092.17 838.809 C 1095.14 840.08 1097.05 840.16 1100.04 839.063 C 1101.04 837.864 1101.83 836.797 1102.28 835.275 C 1103.76 830.272 1103.42 824.67 1100.93 820.054 C 1092.05 803.539 1061.23 796.378 1044.69 791.382 C 1057.16 750.674 1075.4 735.072 1104.45 706.618 C 1106.88 695.935 1107.64 684.848 1109.71 674.076 C 1116.39 639.439 1134.66 557.462 1157.39 533.944 z"/>
<path transform="translate(0,0)" fill="rgb(0,0,0)" d="M 1212.57 830.03 C 1225.11 829.634 1249.49 833.247 1260.68 839.095 C 1263.3 840.465 1266.12 842.596 1266.76 845.66 C 1269.03 856.634 1241.75 879.376 1236.12 890.582 C 1233.65 895.513 1232.61 901.108 1234.73 906.361 C 1236.79 911.485 1243.17 917.581 1248.25 919.677 C 1274.35 930.433 1284.73 893.855 1298.91 890.144 C 1301.89 889.366 1302.54 889.877 1305.12 891.213 C 1307.78 894.577 1308.13 898.917 1308.95 903.034 C 1307.34 907.274 1305.75 911.241 1303.03 914.926 C 1291.6 930.38 1276.07 939.016 1257.3 942.093 C 1254 942.102 1250.57 942.005 1247.31 941.483 C 1235.32 939.565 1220.92 932.847 1213.53 923.136 C 1203.94 927.551 1194.36 929.565 1183.83 927.082 C 1171.43 924.158 1161.2 915.235 1154.78 904.44 C 1150.28 896.879 1146.22 885.35 1148.86 876.537 C 1150.01 872.689 1152.36 870.442 1155.75 868.526 C 1169.63 868.458 1172.34 902.412 1187.28 907.432 C 1191.15 908.729 1194.41 906.805 1197.6 904.865 C 1226.69 887.182 1200.58 853.116 1204.81 838.279 C 1206.03 834.026 1209.03 832.207 1212.57 830.03 z"/>
<path transform="translate(0,0)" fill="rgb(0,0,0)" d="M 1506.59 628.938 C 1507.17 628.859 1507.74 628.739 1508.33 628.702 C 1510.61 628.56 1512.39 630.058 1513.99 631.491 C 1515.62 632.959 1516.49 634.492 1516.59 636.673 C 1517.1 648.156 1488.51 675.288 1480.16 684.692 C 1489.14 693.513 1498.28 702.61 1505 713.332 C 1507.53 717.36 1510.25 721.829 1509.14 726.722 C 1506.99 728.257 1503.48 731.309 1500.96 731.757 C 1496.75 732.504 1490.65 727.548 1487.29 725.379 C 1470.71 713.132 1452 706.305 1440.31 688.206 C 1451.69 670.77 1487.89 637.043 1506.59 628.938 z"/>
<path transform="translate(0,0)" fill="rgb(0,0,0)" d="M 1321.23 789.612 C 1324.9 790.994 1328.08 792.941 1331.43 794.958 C 1332.96 813.062 1333.72 821.212 1346.93 834.519 C 1379.62 827.464 1384.15 806.599 1398.34 802.438 C 1400.61 803.446 1401.21 803.627 1401.99 806.236 C 1404.07 813.205 1403.24 818.63 1400.42 825.153 C 1398.61 827.724 1396.79 830.345 1394.66 832.666 C 1384.64 843.607 1369.74 852.192 1354.66 852.498 C 1343.68 852.72 1332.25 848.528 1324.38 840.796 C 1316.5 833.055 1311.85 821.905 1312.19 810.842 C 1312.43 802.962 1315.44 794.986 1321.23 789.612 z"/>
<path transform="translate(0,0)" fill="rgb(0,0,0)" d="M 1132.57 749.74 C 1133.13 749.922 1135.19 750.568 1135.66 750.803 C 1140.32 753.153 1141.79 774.076 1143.59 779.757 C 1145.14 784.675 1148.42 790.394 1153.65 792.162 C 1164.21 795.736 1184.9 773.368 1195.65 769.939 C 1198.66 768.98 1201.15 768.727 1204.05 770.235 C 1205.18 771.65 1205.43 772.396 1205.68 774.252 C 1206.62 781.194 1203.69 787.976 1199.65 793.384 C 1197.97 795.214 1196.26 797.14 1194.37 798.766 C 1184.53 807.264 1169.36 813.429 1156.31 812.303 C 1145.79 811.396 1136.06 805.508 1129.45 797.418 C 1123.02 789.535 1118.79 778.514 1120.3 768.256 C 1121.57 759.555 1125.59 754.665 1132.57 749.74 z"/>
<path transform="translate(0,0)" fill="rgb(0,0,0)" d="M 1166.72 588.82 C 1167.83 589.47 1168.92 590.121 1170 590.829 C 1180.76 597.903 1191.6 630.948 1193.96 644.021 C 1194.77 648.524 1195.24 654.015 1192.25 657.844 C 1187.46 663.975 1163.92 662.909 1156.16 663.732 C 1152.21 664.281 1148.15 664.947 1144.17 665.063 C 1140.02 665.183 1136.24 664.545 1133.16 661.605 C 1132.41 659.14 1132.15 657.875 1133.36 655.475 C 1138.72 644.787 1155.91 639.175 1166.65 636.088 C 1163.94 622.941 1161.3 610.326 1161.13 596.838 L 1166.72 588.82 z"/>
<path transform="translate(0,0)" fill="rgb(255,255,255)" d="M 1671.65 1305.41 C 1678.25 1304.86 1684.87 1304.71 1691.49 1304.96 C 1715.44 1305.95 1740.17 1314.46 1756.54 1332.56 C 1772.95 1350.7 1779.2 1377.61 1777.85 1401.51 C 1775.93 1435.5 1757.7 1465.55 1730.21 1485.42 C 1717.95 1494.28 1695.75 1503.38 1690.6 1518.61 C 1685.88 1532.56 1686.24 1553.76 1685.16 1568.67 L 1678.9 1657.55 C 1677.2 1682.53 1672.53 1707.11 1669.77 1731.96 C 1666.93 1757.55 1664.68 1783.06 1661.03 1808.58 C 1659.64 1818.32 1658.72 1828.92 1655.89 1838.36 C 1655.02 1841.28 1652.73 1843.96 1650.41 1845.88 C 1637.91 1856.26 1619.17 1860.43 1603.36 1861.49 C 1561.09 1864.35 1515.76 1861.49 1473.44 1859 C 1397.73 1854.56 1322.32 1847.27 1246.76 1841.12 L 887.442 1809.93 C 823.788 1804.09 760.227 1799.24 696.758 1791.4 L 623.618 1783.44 C 610.262 1782.05 597.04 1780.05 583.6 1779.61 C 603.584 1766.24 624.096 1754.04 643.267 1739.45 C 660.154 1726.6 678.057 1708.02 696.192 1698.01 C 706.181 1697.76 716.78 1699.27 726.762 1700.02 C 748.734 1701.55 770.679 1703.45 792.586 1705.72 C 831.35 1709.68 870.233 1712.71 909.035 1716.33 C 1051.28 1729.78 1193.61 1742.43 1336 1754.29 L 1441.88 1763.61 C 1459.64 1765.16 1478.62 1768.27 1496.39 1767.33 L 1503.84 1767.01 C 1519.45 1712.17 1517.82 1654.98 1522.04 1598.63 C 1526.88 1534 1545.5 1390.66 1584.97 1342.49 C 1607.6 1314.87 1637.59 1308.68 1671.65 1305.41 z"/>
<path transform="translate(0,0)" fill="rgb(255,255,255)" d="M 1558.92 770.323 C 1589.07 777.94 1621.49 775.018 1652.22 774.701 C 1679.66 774.59 1707.1 775.353 1734.49 776.99 C 1782.66 779.429 1834.75 780.804 1878.73 803.1 C 1905.29 816.56 1920.93 837.359 1929.84 865.495 C 1935.37 883.161 1938.2 901.561 1938.22 920.072 C 1938.62 965.454 1915.66 1172.87 1898.79 1205.54 C 1866.59 1202.71 1836.89 1201.9 1805.13 1210 C 1788.76 1214.18 1772.81 1220.13 1756.45 1224.51 C 1763.95 1188.94 1764.34 1150.38 1765.57 1114.13 C 1766.34 1091.34 1762.49 1065.4 1770.9 1043.83 C 1783.31 1012.01 1814.58 996.201 1824.74 970.78 C 1829.93 957.806 1831.42 935.876 1825.43 923.142 C 1819.39 910.318 1807.79 904.386 1795.22 899.692 C 1792.33 898.926 1789.41 898.155 1786.45 897.679 C 1756.31 892.828 1721.74 906.259 1697.67 923.626 C 1682.78 934.367 1668 948.418 1659.54 964.936 C 1635.1 1012.7 1641.5 1133.83 1631.76 1192.3 C 1629.57 1205.45 1626.8 1218.78 1621.09 1230.9 C 1610.29 1253.84 1580.33 1280.98 1559.87 1295.63 C 1564.58 1282.28 1568.7 1269.51 1570.03 1255.31 C 1576.06 1191.36 1547.29 1122.27 1507.39 1073 C 1495.48 1058.29 1480 1046.65 1468.11 1031.94 L 1467.26 1030.88 C 1475.3 1021.12 1487.67 1009.89 1498.91 1004.06 C 1506.76 1008.02 1514.91 1012.94 1523.46 1015.1 C 1525.81 1013.68 1528.72 1012.1 1530.42 1009.88 C 1532.27 1007.44 1531.42 1003.84 1531.05 1001.03 C 1526.53 994.88 1520.46 989.903 1514.82 984.796 C 1527.15 968.048 1539.15 952.059 1549.77 934.11 C 1554.5 933.408 1560.54 932.474 1563.52 928.157 C 1567.44 922.474 1560.21 917.108 1559.96 911.676 C 1559.78 907.699 1565.26 890.398 1566.18 884.959 C 1573.27 843.177 1573.16 810.87 1558.92 770.323 z"/>
<path transform="translate(0,0)" fill="rgb(254,196,42)" d="M 723.323 1008.01 C 729.379 1007.75 737.418 1008.46 742.082 1012.81 C 752.921 1022.9 745.614 1052.23 748.551 1066.44 C 750.884 1077.73 755.918 1088.43 760.629 1098.88 C 773.585 1127.61 782.39 1147.14 783.741 1179.12 C 752.091 1170.94 720.336 1170.27 688.631 1178.32 C 652.896 1187.4 616.322 1205.04 596.918 1237.83 C 569.592 1284 568.59 1337.64 581.527 1388.38 C 579.258 1389.29 577.146 1390.47 574.982 1391.61 C 547.411 1387.1 515.551 1386.08 487.869 1389.38 C 478.217 1390.52 468.669 1392.41 459.312 1395.04 C 445.433 1398.8 411.507 1413.11 398.318 1407.5 C 396.88 1406.89 396.146 1406.19 395.577 1404.77 C 393.916 1400.6 395.123 1396.75 396.605 1392.75 C 403.838 1377.11 410.124 1363.37 413.881 1346.46 C 407.194 1333.19 397.705 1321.26 390.688 1308.04 C 373.496 1275.64 358.117 1225.92 352.667 1189.49 C 348.922 1164.46 351.44 1137.99 343.119 1113.76 C 336.619 1094.84 322.609 1080.83 314.659 1062.89 L 314.035 1061.47 C 320.016 1056.43 325.47 1052.76 333.395 1051.46 C 346.55 1049.3 360.227 1050.19 373.518 1049.81 C 392.231 1049.27 411.225 1047.86 429.843 1045.94 C 477.336 1041.03 524.588 1029.43 572.448 1028.07 C 589.999 1027.57 607.831 1027.61 625.369 1028.36 C 644.001 1029.16 672.657 1032.74 690.333 1029.13 C 700.521 1027.05 712.996 1013.36 723.323 1008.01 z"/>
<path transform="translate(0,0)" fill="rgb(255,255,255)" d="M 878.942 1561.32 C 898.847 1558.93 924.742 1564.63 945.035 1566.77 C 975 1569.92 1005.35 1572.45 1035.39 1574.78 C 1115.17 1580.96 1195.14 1584.14 1274.95 1589.6 L 1393.76 1596.78 C 1428.36 1599.09 1463.46 1602.44 1498.11 1602.44 C 1498.2 1623.82 1494.07 1733.01 1483.61 1744.45 C 1473.79 1745.31 1462.2 1743.19 1452.24 1742.64 C 1416.46 1740.66 1380.43 1738.21 1344.76 1734.76 L 911.497 1694.81 L 808.269 1685.64 C 777.426 1683.2 745.116 1681.32 714.652 1675.73 C 726.325 1661.44 734.9 1644.98 745.58 1629.99 C 775.015 1588.67 830.587 1569.43 878.942 1561.32 z"/>
<path transform="translate(0,0)" fill="rgb(255,255,255)" d="M 889.172 196.453 L 890.683 197.557 C 892.234 217.497 891.063 237.825 891.543 257.838 C 892.872 313.327 892.651 369.281 891.794 424.785 C 891.2 463.326 889.891 501.714 890.142 540.275 C 847.135 540.531 804.126 540.358 761.122 539.758 C 764.759 516.01 771.852 492.495 773.612 468.505 C 774.187 460.66 775.461 448.172 769.663 441.995 C 766.487 438.612 761.869 437.164 757.411 436.448 C 748.367 434.996 738.223 435.914 729.071 435.961 C 711.047 436.054 692.862 436.418 674.868 435.352 C 693.025 426.41 707.914 412.704 727.174 403.999 C 733.943 400.94 741.785 402.011 749.008 400.748 C 771.48 396.816 793.687 384.647 810.879 369.954 C 827.8 355.493 845.581 333.235 846.99 310.071 C 847.524 301.278 846.469 287.903 840.306 281.241 C 835.863 276.439 825.353 276.465 819.139 276.455 C 790.222 276.409 761.213 291.184 741.232 311.527 C 720.479 332.657 709.751 355.657 709.969 385.247 C 700.942 394.093 692.451 399.275 680.65 403.604 C 681.295 396.773 681.051 388.32 682.84 381.782 C 685.057 373.679 696.703 366.71 702.396 360.51 C 705.43 357.205 707.793 353.225 710.069 349.371 C 729.041 317.241 740.952 274.98 731.428 237.927 C 728.947 236.538 726.45 235.184 723.79 234.164 C 711.422 229.423 698.574 230.294 686.576 235.668 C 666.68 244.58 649.945 260.545 642.288 281.097 C 634.257 302.655 632.78 332.513 643.692 353.459 C 647.511 360.791 654.61 366.966 657.674 374.589 C 661.59 384.329 661.035 413.007 657.141 422.192 L 655.176 422.097 C 651.56 419.682 648.921 416.402 646.072 413.157 C 632.243 397.406 635.205 385.988 629.276 367.976 C 625.102 355.293 619.125 343.686 612.263 332.275 C 598.728 313.155 576.47 294.876 553.002 290.22 C 546.113 288.853 538.763 288.264 532.723 292.471 C 527.663 295.994 524.957 301.327 524.008 307.324 C 520.592 328.921 530.559 357.904 542.913 375.461 C 560.153 399.96 586.777 410.62 615.379 415.585 C 622.867 423.979 629.493 429.209 639.342 434.645 C 632.516 434.434 573.71 435.301 571.275 437.975 C 561.252 448.979 581.418 523.17 582.439 539.982 C 567.568 540.219 552.693 540.047 537.832 539.466 L 511.254 400.937 C 507.766 383.543 505.403 365.963 500.898 348.778 C 497.878 337.256 494.683 324.532 488.054 314.488 C 475.239 311.388 460.919 310.722 447.778 309.126 C 449.234 292.24 451.553 245.985 445.609 231.07 C 444.206 227.548 441.131 224.133 438.817 221.143 C 423.85 214.53 385.379 211.342 370.27 216.942 C 363.208 224.527 365.776 262.141 365.77 273.356 C 356.928 273.922 341.162 274.475 333.163 270.94 C 327.76 268.552 323.867 265.225 317.857 264.072 C 299.313 260.514 280.49 258.886 261.89 255.716 C 261.935 236.811 261.204 216.541 263.388 197.822 C 263.793 198.372 264.437 199.298 264.94 199.727 C 266.892 201.386 268.951 200.735 271.29 200.598 C 341.98 196.446 413.146 198.008 483.929 198.008 L 640.426 197.974 C 658.23 197.931 676.056 197.131 693.85 197.308 L 786.473 197.544 C 820.756 197.841 854.937 198.773 889.172 196.453 z"/>
<path transform="translate(0,0)" fill="rgb(255,255,255)" d="M 172.857 1226.26 C 185.903 1225.23 202.137 1226.94 214.447 1231.78 C 242.516 1242.81 252.103 1271.23 258.312 1298.28 C 267.593 1338.7 268.824 1381.76 267.903 1423.08 C 267.415 1445.01 266.377 1467.21 265.081 1489.11 C 262.861 1526.63 254.455 1607.36 268.91 1640.64 C 301.364 1660.87 372 1665.11 410.72 1670.05 C 432.543 1672.82 454.341 1676.52 476.061 1680.03 C 466.919 1688.23 457.815 1696.91 451.055 1707.25 C 439.361 1725.13 439.523 1744.44 443.753 1764.64 C 438.889 1763.68 433.954 1763.03 429.053 1762.28 C 394.951 1759.99 361.016 1754.96 327.139 1750.72 C 280.487 1744.87 231.286 1740.87 186.534 1725.69 C 177.004 1722.46 169.263 1718.36 161.198 1712.36 C 160.497 1699.7 157.857 1686.95 156.711 1674.27 C 154.484 1649.61 153.686 1624.92 152.985 1600.18 C 151.312 1541.21 154.474 1482.21 153.924 1423.24 C 139.693 1403.48 124.924 1385.08 119.14 1361.02 C 111.059 1327.41 111.901 1284.33 130.85 1254.17 C 140.357 1239.04 155.732 1230.11 172.857 1226.26 z"/>
<path transform="translate(0,0)" fill="rgb(255,255,255)" d="M 912.578 790.427 C 945.983 787.58 983.33 790.233 1014.37 803.03 C 1012.32 813.057 1010.71 823.069 1009.23 833.191 C 991.265 830.942 971.682 829.445 953.592 829.806 C 945.422 829.969 936.021 831.365 930.319 837.841 C 928.269 840.169 928.046 841.829 928.346 844.826 C 930.241 848.056 933.094 849.716 936.121 851.814 C 948.332 852.793 960.685 852.021 972.933 852.311 C 985.248 852.602 997.465 854.1 1009.68 855.617 C 1010.12 863.052 1010.61 870.483 1011.17 877.909 C 996.115 881.187 947.969 889.123 938.01 900.04 C 936.035 902.205 934.748 905.051 935.375 908.036 C 936.355 912.709 940.911 915.191 944.553 917.641 C 969.001 914.28 992.699 906.751 1017.23 903.976 C 1031.66 937.283 1046.87 960.489 1072.73 986.005 C 1056.73 992.185 1039.28 995.569 1022.72 1000.09 C 973.386 1013.57 900.734 1033.98 869.32 1076.51 C 861.47 1087.47 853.699 1098.88 849.474 1111.8 C 840.304 1139.82 847.689 1159.52 860.386 1184.52 C 853.694 1192.41 845.214 1199.1 837.434 1205.88 C 829.492 1195.97 819.237 1189.58 809.501 1181.66 C 807.384 1154.72 799.318 1124.68 788.001 1099.98 C 781.977 1086.84 773.693 1073.7 770.554 1059.49 C 766.128 1039.45 778.986 1017.73 764.354 999.817 C 757.288 991.165 745.378 987.307 734.573 986.192 C 716.386 984.314 704.161 989.336 690.404 1000.59 C 695.541 980.048 698.283 958.989 702.986 938.349 C 711.009 903.137 729.843 872.148 753.817 845.446 C 764.756 833.262 777.86 822.481 792.505 815.044 C 821.993 800.069 878.703 792.353 912.578 790.427 z"/>
<path transform="translate(0,0)" fill="rgb(237,79,54)" d="M 1531.67 1328.82 C 1539.82 1329.15 1551.54 1338.06 1558.43 1342.45 C 1542.55 1373.39 1525.9 1423.78 1519.51 1457.64 C 1515.81 1477.23 1514.07 1497.44 1511.37 1517.21 C 1488.91 1519.27 1459.16 1520.62 1436.61 1519.92 C 1412.81 1519.19 1389.01 1516.72 1365.26 1515.03 C 1343.87 1513.5 1322.43 1512.55 1301.05 1510.87 C 1284.89 1509.61 1268.84 1507.65 1252.64 1506.82 C 1221.2 1505.18 1189.72 1504.3 1158.24 1504.19 C 1140.59 1504.05 1122.3 1505.17 1104.74 1503.48 C 1091.83 1502.24 1078.54 1499.6 1066.59 1494.41 C 1055.5 1489.6 1049.14 1483.18 1044.76 1471.96 C 1043.97 1465.57 1045.55 1459.3 1047.6 1453.29 C 1062.23 1410.5 1094.82 1380.35 1134.22 1359.96 C 1149.05 1352.28 1164.69 1346.26 1179.67 1338.85 C 1182.87 1351.39 1185.28 1365.49 1191.98 1376.69 C 1200.38 1390.74 1214.16 1398.52 1229.66 1402.3 C 1243.26 1405.62 1258.18 1406.33 1272.11 1405.32 C 1332.67 1400.93 1337.14 1357.72 1372.24 1349.43 C 1383.85 1346.69 1396.09 1348.57 1407.71 1350.19 C 1439.06 1354.55 1458.53 1359.67 1489.59 1349.06 C 1504.92 1343.82 1517.9 1337.19 1531.67 1328.82 z"/>
<path transform="translate(0,0)" fill="rgb(0,0,0)" d="M 1470.98 1427.55 C 1471.56 1427.58 1472.14 1427.54 1472.71 1427.65 C 1475.36 1428.17 1479.98 1431.65 1480.96 1434.11 C 1481.95 1436.61 1481.33 1439.72 1480.27 1442.12 C 1478.26 1446.63 1474.84 1448.21 1470.49 1450.02 C 1467.47 1449.95 1464.01 1449.63 1461.76 1447.29 C 1459.98 1445.43 1459.28 1443.47 1459.67 1440.93 C 1460.67 1434.44 1466.1 1431.05 1470.98 1427.55 z"/>
<path transform="translate(0,0)" fill="rgb(0,0,0)" d="M 1316.81 1404.21 L 1330 1403.47 C 1332.41 1405.79 1335.37 1408.27 1337.06 1411.15 C 1339.46 1415.25 1338.48 1418.5 1337.37 1422.82 C 1336.92 1422.89 1336.47 1422.98 1336.02 1423.03 C 1330.73 1423.59 1326.18 1422.46 1322.33 1418.69 C 1318.34 1414.8 1317.05 1409.59 1316.81 1404.21 z"/>
<path transform="translate(0,0)" fill="rgb(255,255,255)" d="M 1905.77 1443.98 C 1906.15 1457.71 1904.6 1471.93 1903.8 1485.65 C 1901.91 1518.27 1899.29 1550.5 1896.28 1583.02 C 1892.85 1620.01 1890.99 1657.63 1884.23 1694.22 C 1873.77 1704.5 1858.24 1713.08 1846.07 1721.53 C 1792.95 1758.78 1737.76 1792.98 1680.76 1823.98 C 1679.76 1817.24 1684.44 1791.04 1685.39 1782.85 C 1690.23 1740.88 1697.38 1699.26 1701.3 1657.15 C 1705.45 1612.46 1706.21 1567.51 1711.11 1522.85 C 1730.78 1516.34 1749.84 1507.22 1769.09 1499.55 C 1814.86 1481.54 1860.42 1463.02 1905.77 1443.98 z"/>
<path transform="translate(0,0)" fill="rgb(255,255,255)" d="M 262.026 613.98 L 727.328 614 C 781.741 613.991 836.209 613.498 890.615 614.252 C 891.629 630.89 891.972 647.401 891.962 664.07 C 878.022 666.038 862.336 665.145 848.708 661.572 C 846.995 658.498 845.322 655.462 842.708 653.047 C 830.13 641.426 774.088 641.778 756.299 642.633 C 748.814 652.304 746.794 659.921 745.767 671.994 C 726.862 672.069 707.781 671.343 688.903 672.2 C 682.104 672.509 675.61 673.966 668.891 674.473 C 666.56 674.648 666.823 674.8 665.145 676.19 C 661.112 689.667 658.991 703.796 655.545 717.46 C 644.533 761.125 633.426 805.543 625.098 849.787 C 619.197 831.276 615.254 811.95 610.839 793.042 C 605.843 771.648 600.48 750.597 594.462 729.469 C 590.674 716.172 588.02 703.212 581.138 691.06 C 579.904 690.426 578.654 689.813 577.427 689.165 C 557.14 678.431 528.352 685.843 506.039 685.183 C 497.48 684.93 489.27 681.335 480.762 680.379 C 466.272 678.752 451.66 680.073 437.187 677.844 C 436.248 669.831 436.1 661.737 435.189 653.701 C 430.208 648.146 425.898 643.898 418.225 642.796 C 403.024 640.612 335.788 637.49 325.94 644.942 C 316.665 659.834 319.88 700.879 319.873 719.427 C 300.786 716.109 281.133 715.185 261.891 712.547 L 262.026 613.98 z"/>
<path transform="translate(0,0)" fill="rgb(255,255,255)" d="M 721.199 1193.4 C 729.826 1192.63 738.827 1192.81 747.452 1193.53 C 769.965 1195.42 807.708 1206.13 822.677 1223.72 C 802.7 1250.62 785.085 1279.2 770.031 1309.14 C 764.734 1319.72 755.624 1345.6 747.839 1352.07 C 739.464 1359.02 726.332 1362.69 716.48 1367.32 C 708.469 1371.09 700.879 1375.62 693.492 1380.5 C 646.233 1411.67 613.413 1462.25 597.456 1515.99 C 593.961 1527.76 591.862 1539.91 589.349 1551.92 C 579.223 1557.93 567.201 1561.45 556.175 1565.48 C 556.829 1555.47 560.07 1545.64 560.442 1535.81 C 560.596 1531.74 560.084 1529.15 557.242 1526.04 C 554.999 1525.2 553.485 1524.27 551.076 1525.26 C 539.268 1530.11 538.498 1556.83 534.201 1566.65 C 533.974 1567.16 533.732 1567.68 533.497 1568.19 C 527.123 1570.31 519.728 1573.02 513.278 1570.28 C 503.81 1557.45 529.095 1532.17 525.334 1519.31 C 524.519 1516.53 523.651 1516.03 521.4 1514.49 C 517.273 1514.27 513.594 1516.14 510.647 1518.99 C 501.153 1528.19 500.236 1550.65 499.838 1562.82 C 495.476 1560.57 491.129 1558.24 487.376 1555.03 C 483.743 1551.92 481.181 1547.85 480.857 1543 C 480.382 1535.91 483.886 1528.33 487.058 1522.11 C 513.079 1471.09 581.082 1478.87 615.338 1436.66 C 618.999 1432.15 622.744 1426.52 622.098 1420.41 C 621.096 1410.91 612.669 1400.17 608.719 1391.36 C 602.24 1376.91 596.964 1359.65 595.382 1343.83 C 591.819 1308.2 598.849 1272.62 621.965 1244.65 C 647.001 1214.34 682.347 1196.97 721.199 1193.4 z"/>
<path transform="translate(0,0)" fill="rgb(255,255,255)" d="M 1871.47 1224.42 C 1882.94 1223.87 1893.43 1224.75 1904.09 1229.36 C 1921.23 1236.76 1932.62 1250.57 1939.36 1267.73 C 1950.84 1296.97 1949.96 1355.94 1937.3 1384.77 C 1933.35 1393.75 1928.07 1401.44 1920.27 1407.56 C 1896.67 1426.05 1847.84 1443.66 1818.71 1455.78 C 1803.54 1462.09 1788.68 1469.09 1773.34 1474.99 C 1780.65 1465.03 1786.49 1455.64 1791.29 1444.24 C 1795.75 1432.52 1798.53 1420.22 1799.54 1407.72 C 1802.17 1375.98 1796.24 1344.08 1774.9 1319.45 C 1748.51 1288.98 1714.65 1286.32 1676.89 1283.55 C 1753.36 1252.78 1785.11 1230.35 1871.47 1224.42 z"/>
<path transform="translate(0,0)" fill="rgb(255,255,255)" d="M 288.189 1485.75 C 298.544 1489.38 308.413 1493.91 319.052 1496.76 C 362.242 1508.33 419.953 1511.48 464.807 1510.98 C 461.544 1524.05 457.389 1538.45 460.194 1551.96 C 462.908 1565.03 471.987 1574.77 482.779 1581.95 C 512.507 1601.74 551.099 1590.31 583.203 1583.77 C 578.256 1606.19 573.224 1608.08 555.055 1619.83 C 537.616 1633.46 520.366 1647.76 501.501 1659.4 C 481.949 1656.71 462.212 1655.24 442.598 1653.05 C 424.142 1650.98 405.755 1647.85 387.374 1645.2 C 354.048 1640.38 319.733 1635.72 287.361 1626.25 C 286.571 1614.29 284.752 1602.49 284.322 1590.49 C 283.062 1555.31 285.822 1520.8 288.189 1485.75 z"/>
<path transform="translate(0,0)" fill="rgb(255,255,255)" d="M 528.355 974.531 C 576.624 973.058 625.304 973.9 673.605 974.133 C 670.351 985.486 669.868 997.173 669.049 1008.89 C 643.08 1004.77 605.737 1005.03 579.395 1006.47 C 522.686 1009.56 467.1 1021.14 410.756 1027.44 C 383.674 1030.46 356.322 1028.07 329.485 1031.56 C 321.683 1032.57 314.152 1034.27 307.41 1038.55 C 300.836 1042.73 295.319 1049.32 293.92 1057.14 C 291.453 1070.93 301.182 1083.09 308.502 1093.76 C 313.422 1101.23 318.932 1108.84 322.294 1117.16 C 330.17 1136.66 329.719 1163.26 330.43 1184.23 C 307.309 1182.43 283.918 1180.24 260.729 1179.96 C 262.212 1111.58 262.334 1043.17 261.096 974.779 C 350.174 976.573 439.28 976.49 528.355 974.531 z"/>
<path transform="translate(0,0)" fill="rgb(255,255,255)" d="M 779.432 558.53 C 790.362 557.879 801.397 558.867 812.346 558.856 C 824.711 558.843 837.051 557.97 849.421 558.314 C 863.607 558.707 878.003 559.941 892.158 558.84 L 891.985 595.922 L 673.5 595.91 C 655.165 595.816 636.838 594.894 618.503 594.69 C 535.504 593.794 452.496 593.932 369.5 595.104 C 358.342 595.399 347.06 594.773 335.879 594.814 C 319.582 594.873 303.285 595.478 286.995 595.486 C 276.973 595.491 267.003 594.659 256.994 595.492 C 256.589 583.113 257.444 570.725 258.055 558.363 C 285.944 559.698 313.569 558.688 341.451 558.829 C 404.372 559.277 467.296 559.229 530.216 558.686 L 670.547 558.928 C 706.936 559.28 743.04 560.396 779.432 558.53 z"/>
<path transform="translate(0,0)" fill="rgb(255,255,255)" d="M 225.678 1201.29 C 233.114 1200.54 241.356 1201.37 248.843 1201.56 C 277.77 1202.3 306.176 1205 334.889 1208.49 C 344.909 1243.35 354.111 1278.61 368.768 1311.92 C 375.291 1326.75 383.622 1340.33 390.967 1354.69 C 387.114 1367.59 379.892 1379.5 375.343 1392.27 C 363.622 1396.41 352.065 1400.49 340.704 1405.58 C 322.97 1414.1 302.4 1423.34 290.585 1439.74 C 288.014 1422.7 290.25 1404.16 289.959 1386.88 C 289.205 1342.05 282.09 1263.64 251.2 1229.78 C 237.859 1215.16 222.637 1208.4 202.977 1207.37 C 210.386 1204.42 217.802 1202.47 225.678 1201.29 z"/>
<path transform="translate(0,0)" fill="rgb(255,255,255)" d="M 1065.6 1519.29 C 1072.69 1519.06 1081.1 1521.26 1088.25 1522.16 C 1102.76 1523.99 1117.83 1525.39 1132.45 1525.77 C 1158.08 1526.42 1183.83 1524.96 1209.5 1526.02 C 1278.22 1528.85 1347.05 1535.89 1415.69 1540.54 C 1445.66 1542.58 1475.72 1542.38 1505.74 1544.22 C 1503.3 1553.38 1501.96 1562.76 1500.45 1572.11 C 1495.5 1574.18 1490.81 1576.73 1486.08 1579.24 L 1418.25 1574.93 C 1405.83 1574.03 1393.24 1574.26 1380.79 1573.73 C 1342.2 1572.26 1303.64 1570.35 1265.11 1568 C 1224.37 1565.32 1183.54 1563.17 1142.84 1560.05 C 1084.5 1555.57 1026.26 1550.23 967.781 1547.65 C 983.109 1542.61 998.768 1538.48 1014.19 1533.73 C 1030.91 1528.58 1048.29 1521.59 1065.6 1519.29 z"/>
<path transform="translate(0,0)" fill="rgb(255,255,255)" d="M 343.421 660.978 C 366.424 663.068 390.053 662.005 413.144 661.966 C 413.117 687.159 414.636 896.992 413.443 899.765 L 410.25 899.971 C 387.254 899.832 364.253 900.647 341.261 901.012 C 345.777 844.545 342.393 786.588 342.025 729.948 C 341.876 707.037 340.648 683.754 343.421 660.978 z"/>
<path transform="translate(0,0)" fill="rgb(255,255,255)" d="M 490.625 1411.38 C 506.772 1409.24 581.421 1409.76 594.31 1415.22 C 597.238 1416.46 598.25 1417.7 599.423 1420.59 C 596.657 1438.99 524.648 1458.35 507.227 1466.99 C 500.577 1470.3 495.234 1476.06 489.772 1480.97 C 486.447 1483.96 483.296 1487.01 478.88 1488.25 C 464.946 1492.16 417.279 1487.7 400.754 1486.81 C 373.197 1484.57 344.04 1481.99 317.363 1474.54 C 312.265 1473.11 304.143 1470.86 301.963 1465.5 C 300.972 1463.06 301.584 1460.38 302.715 1458.11 C 312.064 1439.41 356.422 1420.67 376.25 1414.73 C 378.801 1417.94 381.411 1421.63 384.661 1424.15 C 412.506 1445.77 460.577 1414.38 490.625 1411.38 z"/>
<path transform="translate(0,0)" fill="rgb(255,255,255)" d="M 684.652 917.492 L 685.42 918.382 C 681.289 929.974 678.6 942.04 675.808 954.007 C 537.791 955.038 399.768 955.069 261.75 954.1 C 259.815 954.155 258.811 954.157 257.112 953.187 C 254.125 945.509 256.987 927.698 256.957 918.899 L 537.993 919.017 L 620.355 919.101 C 641.781 919.172 663.328 919.907 684.652 917.492 z"/>
<path transform="translate(0,0)" fill="rgb(237,79,54)" d="M 259.938 277.818 C 276.563 281.417 292.502 281.769 309.27 283.476 C 310.874 285.599 310.7 289.216 310.812 291.867 C 311.9 317.631 311.018 343.798 311.043 369.599 L 311.952 467.35 C 312.021 487.684 309.617 521.815 314.27 540.519 C 296.073 540.903 277.745 540.182 259.539 539.979 C 261.402 506.32 259.963 471.8 259.691 438.066 C 259.274 384.65 259.356 331.232 259.938 277.818 z"/>
<path transform="translate(0,0)" fill="rgb(254,196,42)" d="M 590.974 456.143 L 754.337 455.873 C 752.258 479.227 747.1 503.416 741.808 526.26 L 738.554 540.17 C 694.528 540.374 650.501 540.326 606.476 540.025 C 604.426 528.04 602.595 515.909 600.019 504.028 C 596.507 487.826 592.56 472.752 590.974 456.143 z"/>
<path transform="translate(0,0)" fill="rgb(39,138,165)" d="M 386.961 236.065 C 400.624 235.749 414.306 235.863 427.508 239.744 L 426.984 445.268 C 426.957 476.072 425.708 507.159 426.947 537.926 C 413.937 537.987 400.935 537.905 387.958 538.957 C 386.237 525.081 386.931 510.684 387.026 496.716 L 387.785 425.478 C 387.991 362.354 386.526 299.21 386.961 236.065 z"/>
<path transform="translate(0,0)" fill="rgb(53,146,170)" d="M 395.469 482.917 C 397.026 482.6 398.992 482.014 400.567 482.065 C 403.259 482.152 403.92 483.287 405.721 485.058 L 405.233 486.309 L 400.97 486.106 C 400.69 488.222 400.886 488.639 401.712 490.634 C 403.644 490.25 404.299 490.127 406.279 490.584 C 405.593 493.111 404.66 495.704 405.369 498.318 C 405.506 498.824 405.676 499.319 405.83 499.82 L 404.965 501.832 C 401.254 501.53 400.309 488.974 395.991 488.334 C 393.838 488.015 394.527 489.603 391.737 488.313 L 391.29 486.823 C 392.325 484.603 393.362 484.079 395.469 482.917 z"/>
<path transform="translate(0,0)" fill="rgb(53,146,170)" d="M 398.254 374.376 C 399.725 375.611 400.61 377.258 401.658 378.842 C 403.982 382.357 404.747 384.243 404.625 388.511 C 402.037 388.329 400.367 388.279 398.045 386.996 C 396.472 382.891 397.818 378.736 398.254 374.376 z"/>
<path transform="translate(0,0)" fill="rgb(53,146,170)" d="M 402.461 424.793 L 403.947 424.535 C 404.164 428.186 405.086 429.651 407.313 432.546 C 407.554 432.859 407.803 433.166 408.048 433.477 C 405.476 434.194 404.705 433.733 402.158 433.102 L 401.476 434.105 C 399.927 433.872 399.47 433.047 398.333 432.019 C 398.258 431.697 398.2 431.37 398.106 431.052 C 397.941 430.498 397.739 429.954 397.556 429.405 C 398.666 427.267 400.558 426.161 402.461 424.793 z"/>
<path transform="translate(0,0)" fill="rgb(53,146,170)" d="M 414.614 484.995 C 417.838 486.108 422.378 485.683 425.054 487.323 C 426.363 488.125 426.159 491.183 426.321 492.667 C 423.201 493.17 421.643 493.937 418.765 492.504 C 417.512 489.91 416.083 487.468 414.614 484.995 z"/>
<path transform="translate(0,0)" fill="rgb(66,158,90)" d="M 436.2 701.313 C 443.835 700.592 451.429 700.677 459.091 700.719 C 466.743 701.009 484.988 699.01 490.746 704.157 C 493.388 706.518 493.848 709.811 493.632 713.124 C 493.369 717.159 493.319 721.891 492.387 725.809 C 492.271 738.471 492.246 751.134 492.311 763.796 C 492.37 771.29 492.379 778.783 492.338 786.276 C 493.832 801.493 494.494 833.429 492.028 848.161 L 492.019 872.024 C 492.016 879.228 493.939 894.84 489.317 900.637 C 487.687 900.954 486.088 901.292 484.436 901.468 C 479.012 901.215 473.594 900.858 468.183 900.399 C 457.918 900.319 447.707 900.204 437.457 899.567 C 436.275 887.234 437.274 875.07 436.655 862.739 C 434.128 853.508 435.761 826.147 435.779 815.499 C 435.443 812.222 435.72 808.704 435.744 805.403 C 435.825 794.685 435.781 783.968 435.613 773.251 L 435.629 757.127 L 436.2 701.313 z"/>
<path transform="translate(0,0)" fill="rgb(85,166,99)" d="M 447.916 798.149 C 448.026 801.309 447.323 802.386 445.718 804.963 L 447.166 807.532 L 454.111 810.823 C 455.72 816.883 453.378 809.074 455.538 813.758 C 455.737 814.187 456.157 816.733 456.248 817.25 L 457.96 818.986 C 460.391 818.767 460.519 818.646 462.375 817.043 L 464.958 820.467 L 464.548 822.754 L 463.301 820.357 C 462.617 827.014 461.886 833.667 461.107 840.314 C 456.29 842.774 457.735 839.717 452.4 844.481 L 452.122 838.586 L 450.951 837.554 C 448.691 839.226 448.208 839.217 447.546 841.898 C 449.121 844.398 450.797 846.814 452.486 849.236 C 454.609 849.636 455.447 849.475 457.415 848.6 C 457.846 848.722 458.288 848.808 458.708 848.964 C 461.107 849.86 462.766 851.511 464.639 853.187 C 466.651 852.724 466.965 852.575 468.482 851.367 C 470.57 852.154 469.752 851.463 470.859 853.528 C 469.471 854.775 468.851 855.199 467.229 855.933 C 467.153 858.309 466.8 860.152 467.895 862.326 C 471.379 860.151 473.35 855.759 474.545 852.001 C 475.063 850.371 476.014 849.374 477.121 848.108 C 478.565 850.182 479.612 851.954 481.685 853.458 L 482.78 856.258 C 481.088 857.217 480.33 857.296 478.445 857.505 C 477.251 859.695 477 861.427 477.557 863.959 C 477.806 865.088 478.019 865.434 478.466 866.385 C 479.541 864.797 480.629 863.228 481.762 861.68 C 483.045 862.99 483.285 863.52 483.922 865.173 C 486.577 864.9 486.915 864.589 489.049 862.938 C 489.502 861.681 489.961 861.38 489.389 860.097 C 488.85 858.889 488.186 857.927 487.424 856.857 C 487.618 854.318 488.033 852.213 488.708 849.781 L 492.028 848.161 L 492.019 872.024 C 492.016 879.228 493.939 894.84 489.317 900.637 C 487.687 900.954 486.088 901.292 484.436 901.468 C 479.012 901.215 473.594 900.858 468.183 900.399 C 457.918 900.319 447.707 900.204 437.457 899.567 C 436.275 887.234 437.274 875.07 436.655 862.739 C 434.128 853.508 435.761 826.147 435.779 815.499 C 435.443 812.222 435.72 808.704 435.744 805.403 C 439.236 802.372 443.974 800.678 447.916 798.149 z"/>
<path transform="translate(0,0)" fill="rgb(100,172,106)" d="M 481.303 888.464 C 482.579 882.641 481.889 877.882 485.633 872.675 C 486.479 875.838 486.229 876.341 489.049 878.248 L 490.567 877.49 L 492.019 872.024 C 492.016 879.228 493.939 894.84 489.317 900.637 C 487.687 900.954 486.088 901.292 484.436 901.468 C 483.451 900.198 482.066 898.656 481.443 897.182 C 480.645 895.294 480.884 893.803 481.608 891.987 C 481.817 891.462 482.052 890.949 482.275 890.429 L 481.303 888.464 z"/>
<path transform="translate(0,0)" fill="rgb(66,158,90)" d="M 470.131 886.303 C 471.523 884.122 472.339 882.469 474.911 881.549 C 476.996 883.066 477.455 885.447 478.251 887.782 C 480.463 888.643 479.429 888.513 481.303 888.464 L 482.275 890.429 C 482.052 890.949 481.817 891.462 481.608 891.987 C 480.884 893.803 480.645 895.294 481.443 897.182 C 482.066 898.656 483.451 900.198 484.436 901.468 C 479.012 901.215 473.594 900.858 468.183 900.399 L 470.835 899.5 C 472.205 896.446 472.989 893.513 471.643 890.265 C 470.339 887.118 471.671 891.015 470.503 887.476 C 470.375 887.087 470.255 886.694 470.131 886.303 z"/>
<path transform="translate(0,0)" fill="rgb(66,158,90)" d="M 450.125 870.073 C 450.395 870.204 450.689 870.292 450.933 870.465 C 453.289 872.129 453.436 872.475 453.698 875.176 C 452.082 877.971 449.784 878.98 447.062 880.502 L 445.811 881.19 L 446.023 883.586 L 447.462 884.154 L 451.994 881.748 C 454.261 884.769 454.538 889.618 455.277 893.327 L 449.074 892.443 C 447.341 891.204 446.495 889.88 445.471 888.046 C 443.748 884.962 442.703 882.51 443.83 878.97 C 445.39 874.071 447.43 877.867 451 876.029 L 451.63 873.927 C 450.834 872.497 450.447 871.713 450.125 870.073 z"/>
<path transform="translate(0,0)" fill="rgb(100,172,106)" d="M 461.282 813.783 C 463.871 814.207 467.113 814.213 468.977 816.228 L 468.812 817.383 C 468.376 820.653 467.807 822.967 469.999 825.733 C 472.738 829.189 476.586 832.048 480.975 832.769 L 484.185 831.345 C 480.71 829.37 476.535 830.358 475.223 826.001 C 474.844 824.743 474.346 823.517 474.616 822.206 L 475.693 822.208 C 476.755 823.905 477.799 825.586 478.798 827.321 C 481.42 827.151 483.325 825.204 485.332 823.666 L 486.634 823.653 L 487.287 825.01 L 486.221 827.451 C 486.407 827.917 486.612 828.376 486.781 828.848 C 487.698 831.424 486.74 834.296 486.155 836.861 L 484.431 837.722 C 482.669 838.623 481.455 839.602 480.059 841.019 L 478.222 840.75 L 475.952 832.848 L 474.506 832.111 L 473.264 833.28 C 473.382 834.614 473.569 835.843 473.794 837.159 C 474.061 838.724 473.768 839.754 473.377 841.255 C 471.279 845.05 470.477 845.376 466.611 847.464 C 462.998 847.456 461.105 846.701 457.942 845.005 C 457.098 847.292 457.288 846.096 457.415 848.6 C 455.447 849.475 454.609 849.636 452.486 849.236 C 450.797 846.814 449.121 844.398 447.546 841.898 C 448.208 839.217 448.691 839.226 450.951 837.554 L 452.122 838.586 L 452.4 844.481 C 457.735 839.717 456.29 842.774 461.107 840.314 C 461.886 833.667 462.617 827.014 463.301 820.357 L 464.548 822.754 L 464.958 820.467 L 462.375 817.043 L 461.282 813.783 z"/>
<path transform="translate(0,0)" fill="rgb(100,172,106)" d="M 447.916 798.149 C 446.303 795.762 443.357 794.714 441.497 792.596 C 439.375 790.179 443.378 789.481 443.991 786.506 C 441.58 785.362 441.532 785.699 438.957 786.556 L 438.423 784.796 L 439.931 783.166 L 442.199 783.181 C 447.977 785.923 452.492 791.08 456.376 796.056 L 457.198 797.126 C 459.338 795.327 460.627 793.652 463.431 793.149 L 463.885 794.974 C 462.594 796.549 461.505 798.12 460.428 799.847 C 460.166 800.268 459.84 800.654 459.63 801.103 C 458.318 803.913 459.247 808.813 459.5 811.85 L 458.369 812.092 C 456.015 809.686 456.606 805.964 453.907 804.656 L 452.507 805.603 C 452.626 805.882 452.754 806.157 452.865 806.438 C 453.431 807.874 453.755 809.326 454.111 810.823 L 447.166 807.532 L 445.718 804.963 C 447.323 802.386 448.026 801.309 447.916 798.149 z"/>
<path transform="translate(0,0)" fill="rgb(85,166,99)" d="M 435.629 757.127 C 447.485 757.712 443.304 763.187 456.571 764.477 C 456.864 767.623 456.31 769.482 453.796 771.743 C 452.859 772.586 452.482 772.666 451.452 773.099 L 449.401 772.616 C 448.626 769.977 448.212 764.998 446.004 763.787 C 443.478 765.142 443.202 764.975 442.26 767.635 L 442.594 768.527 C 443.366 770.629 443.787 771.642 443.719 773.948 C 440.931 774.969 439.413 774.203 436.723 773.509 C 436.355 773.415 435.983 773.337 435.613 773.251 L 435.629 757.127 z"/>
<path transform="translate(0,0)" fill="rgb(85,166,99)" d="M 492.338 786.276 L 491.051 787.501 C 486.969 786.121 485.602 781.922 483.774 778.352 C 483.892 775.218 487.561 773.386 489.292 770.624 L 487.571 769.777 C 486.165 770.742 485.041 771.75 483.284 771.926 C 481.95 772.059 481.159 770.937 480.17 770.162 C 480.78 767.954 488.474 768.131 491.069 765.245 C 491.494 764.772 491.897 764.279 492.311 763.796 C 492.37 771.29 492.379 778.783 492.338 786.276 z"/>
<path transform="translate(0,0)" fill="rgb(100,172,106)" d="M 483.956 728.251 C 486.691 729.02 487.43 728.708 488.843 731.132 C 488.538 736.048 487.938 742.648 484.41 746.477 C 482.739 748.29 481.657 747.777 479.426 747.589 C 477.282 745.822 477.247 745.516 476.475 742.82 C 476.809 741.717 476.646 742.479 476.506 740.484 L 473.177 741.885 L 472.113 741.191 L 472.287 739.097 C 476.384 735.822 481.688 738.557 485.635 735.303 C 486.61 732.201 485.338 731.107 483.956 728.251 z"/>
<path transform="translate(0,0)" fill="rgb(39,138,165)" d="M 260.897 730.234 C 280.428 736.952 299.167 739.444 319.751 740.182 L 320.003 752.879 C 320.054 775.836 321.603 799.863 319.84 822.711 L 320.044 831.001 L 319.973 837.165 C 319.937 840.481 320.19 844.068 319.832 847.348 C 320.071 864.953 319.662 882.595 320.081 900.186 C 303.098 901.222 284.458 903.375 267.61 900.999 C 265.965 901.215 264.525 901.217 262.871 901.098 C 259.313 895.63 261.793 881.03 261.861 874.281 C 262.258 826.263 261.937 778.242 260.897 730.234 z"/>
<path transform="translate(0,0)" fill="rgb(53,146,170)" d="M 303.491 802.969 C 302.414 801.645 301.794 799.945 300.938 798.456 L 297.947 800.108 L 296.392 799.183 C 296.942 798.015 297.487 796.693 298.243 795.63 C 299.718 793.559 300.715 792.562 303.222 792.235 C 305.19 795 304.784 796.736 304.906 800.076 L 305.146 803.65 C 307.878 805.358 309.088 805.072 310.243 808.204 C 308.596 812.974 302.597 813.63 302.532 818.733 C 304.819 819.156 306.026 818.848 308.218 818.126 C 310.201 816.221 311.086 814.81 312.248 812.386 L 317.146 809.827 C 318.974 811.095 318.733 811.456 319.057 813.563 C 319.46 816.178 318.7 820.53 319.84 822.711 L 320.044 831.001 C 316.464 831.178 313.459 831.475 310.06 830.198 C 308.919 828.491 307.724 826.848 306.491 825.207 C 302.14 823.496 298.885 826.037 294.636 826.017 C 293.059 826.009 292.226 825.897 291.129 824.771 C 288.201 821.765 288.552 817.392 288.411 813.482 C 290.317 810.681 292.435 808.875 295.063 806.757 C 295.719 807.214 296.345 807.671 297.056 808.053 C 299.615 809.425 299.893 809.667 302.53 808.811 C 303.386 807.209 303.538 806.533 303.544 804.639 C 303.546 804.082 303.509 803.526 303.491 802.969 z"/>
<path transform="translate(0,0)" fill="rgb(53,146,170)" d="M 261.861 874.281 C 263.287 873.691 265.286 873.421 265.942 871.928 C 267.061 869.381 266.938 866.055 267.127 863.298 L 268.48 862.711 C 270.552 866.947 268.725 875.309 269.442 880.537 C 269.6 881.689 269.653 882.852 269.742 884.011 L 271.529 886.023 C 272.891 883.875 273.189 881.969 273.743 879.527 L 275.113 879.49 C 277.563 883.248 276.054 888.905 275.185 893.02 C 274.904 894.355 274.615 895.382 274.018 896.593 C 272.409 896.037 271.71 895.6 270.383 894.606 L 267.61 900.999 C 265.965 901.215 264.525 901.217 262.871 901.098 C 259.313 895.63 261.793 881.03 261.861 874.281 z"/>
<path transform="translate(0,0)" fill="rgb(53,146,170)" d="M 319.832 847.348 C 319.193 849.332 318.834 851.38 318.408 853.42 C 316.325 854.69 314.265 856 312.232 857.349 L 313.054 855.824 C 311.364 853.379 310.896 853.592 307.977 852.799 L 307.523 850.957 L 308.477 850.239 C 310.705 851.016 312.544 851.631 314.915 851.844 L 315.718 850.443 C 314.237 847.874 311.319 848.982 309.138 846.814 C 310.662 845.418 310.31 846.026 311.076 844.454 C 311.699 843.175 312.23 841.699 313.106 840.565 C 314.996 838.12 317.112 837.654 319.973 837.165 C 319.937 840.481 320.19 844.068 319.832 847.348 z"/>
<path transform="translate(0,0)" fill="rgb(53,146,170)" d="M 319.751 740.182 L 320.003 752.879 C 319.65 752.924 319.299 752.983 318.945 753.014 C 315.726 753.294 314.315 753.062 311.965 750.999 C 311.501 748.225 311.382 747.466 312.739 744.852 C 314.286 741.872 316.73 741.049 319.751 740.182 z"/>
<path transform="translate(0,0)" fill="rgb(53,146,170)" d="M 285.739 846.717 C 286.897 846.176 287.889 846.367 289.144 846.393 L 290.423 848.089 C 290.606 852.497 289.317 859.357 286.936 863.035 C 286.63 862.835 286.328 862.628 286.018 862.434 C 282.085 859.983 281.427 860.138 277.208 861.11 L 275.783 862.446 L 275.133 861.338 C 277.036 859.499 278.042 858.044 279.185 855.659 L 276.228 855.023 C 278.571 851.443 277.424 849.8 278.894 847.721 C 281.002 847.911 282.313 848.034 284.358 847.302 C 284.829 847.133 285.279 846.912 285.739 846.717 z"/>
<path transform="translate(0,0)" fill="rgb(237,79,54)" d="M 517.99 704.028 C 534.036 703.944 550.082 703.95 566.127 704.044 C 571.259 717.077 573.279 731.333 576.314 744.958 C 581.116 766.517 586.272 788.143 591.676 809.561 C 596.548 828.871 601.737 848.302 607.264 867.43 C 610.398 878.275 614.45 888.851 616.389 900.002 C 600.732 899.937 585.074 900.047 569.419 900.333 C 568.51 885.947 561.659 870.219 557.677 856.233 C 552.187 836.4 546.58 816.6 540.856 796.834 C 531.827 766.609 521.195 735.539 517.99 704.028 z"/>
<path transform="translate(0,0)" fill="rgb(255,255,255)" d="M 694.335 694.386 C 706.211 694.254 717.979 694.36 729.843 694.952 C 724.008 721.86 715.567 748.785 708.918 775.588 L 689.025 852.716 C 685.566 865.982 682.955 881.296 677.448 893.772 C 676.016 897.017 674.917 898.073 671.913 899.881 C 660.097 900.075 648.251 899.91 636.431 899.908 C 644.848 858.044 654.843 816.511 664.318 774.877 C 668.801 755.177 673.198 726.111 680.963 707.972 C 683.972 700.943 687.245 697.292 694.335 694.386 z"/>
<path transform="translate(0,0)" fill="rgb(255,255,255)" d="M 334.804 294.813 C 345.237 295.29 355.665 296.461 366.069 295.187 C 364.521 310.532 365.934 327.004 365.99 342.465 C 366.069 364.007 368.114 533.216 364.746 538.975 L 332.903 538.867 C 335.835 473.166 330.896 407.135 333.041 341.383 C 333.541 326.053 332.69 309.958 334.804 294.813 z"/>
<path transform="translate(0,0)" fill="rgb(39,138,165)" d="M 768.29 663.291 C 786.921 663.552 810.379 663.733 827.217 672.234 C 825.726 692.594 825.527 713.064 825.224 733.471 C 825.031 746.478 823.955 760.17 825.947 773.044 C 825.93 776.126 826.709 778.445 824.165 780.625 C 820.525 783.745 812.485 784.488 807.856 785.872 C 794.081 790.912 780.356 795.765 767.479 802.885 C 768.679 789.424 768.048 775.568 767.949 762.061 L 767.95 743.336 C 767.935 716.691 767.416 689.916 768.29 663.291 z"/>
<path transform="translate(0,0)" fill="rgb(53,146,170)" d="M 807.856 785.872 C 807.096 784.555 806.934 783.478 806.628 782.004 C 808.293 776.68 808.885 771.294 811.143 766.145 L 812.525 766.461 C 812.283 768.751 812.13 770.999 812.063 773.3 L 813.661 774.666 C 815.275 772.734 816.327 771.814 818.629 770.782 C 821.571 771.184 823.328 771.502 825.947 773.044 C 825.93 776.126 826.709 778.445 824.165 780.625 C 820.525 783.745 812.485 784.488 807.856 785.872 z"/>
<path transform="translate(0,0)" fill="rgb(53,146,170)" d="M 783.386 727.797 C 784.254 729.076 783.983 728.439 784.359 730.025 C 787.329 742.568 796.87 738.151 805.612 743.836 L 805.386 745.35 C 801.961 744.521 799.666 744.247 796.207 745.115 C 795.915 745.188 795.626 745.272 795.336 745.35 C 794.943 745.001 794.357 744.963 793.854 744.811 C 792.412 747.487 790.998 750.172 789.3 752.698 C 787.877 754.814 788.831 754.147 786.264 754.654 L 784.485 752.699 C 783.405 748.538 785.551 743.234 786.221 738.961 C 783.768 737.634 782.358 737.076 781.034 734.498 C 781.137 731.326 781.648 730.297 783.386 727.797 z"/>
<path transform="translate(0,0)" fill="rgb(53,146,170)" d="M 802.615 710.667 C 805.086 713.04 805.882 713.151 809.093 713.959 L 809.453 715.451 C 807.457 717.233 805.582 719.004 803.757 720.959 L 804.078 725.432 L 802.543 723.925 L 800.721 722.933 C 798.245 723.41 799.485 723.302 796.999 723.266 L 795.465 721.564 L 796.431 719.543 C 796.991 719.19 797.561 718.853 798.112 718.486 C 801.896 715.967 801.735 714.891 802.615 710.667 z"/>
<path transform="translate(0,0)" fill="rgb(255,255,255)" d="M 447.614 333.433 C 457.491 335.273 467.217 337.791 477.287 338.259 C 484.659 378.956 493.27 419.562 501.248 460.158 C 506.416 486.457 510.092 514 518.068 539.604 C 507.033 540.014 495.848 539.247 484.81 538.885 C 476.078 499.847 464.48 461.586 456.135 422.444 C 453.771 411.358 450.954 400.043 449.536 388.801 C 447.247 370.641 447.909 351.735 447.614 333.433 z"/>
<path transform="translate(0,0)" fill="rgb(255,255,255)" d="M 1661.66 1136.84 C 1677.58 1138.93 1693.77 1138.86 1709.74 1140.56 C 1720.58 1141.71 1731.29 1144.59 1742.15 1145.14 C 1741.52 1170.15 1737.67 1194.97 1734.53 1219.76 C 1708.05 1208.89 1680.64 1198.65 1653.01 1191.17 C 1659.08 1173.88 1656.72 1154.58 1661.66 1136.84 z"/>
<path transform="translate(0,0)" fill="rgb(255,255,255)" d="M 1667.42 1008.01 C 1680.04 1010.9 1694 1011.57 1706.9 1013.21 C 1723.76 1015.35 1740.48 1018.34 1757.21 1021.29 C 1751.38 1035.86 1745.35 1051.3 1745.29 1067.17 C 1744.73 1068.76 1744.21 1069.28 1742.7 1070.21 C 1723.78 1081.89 1682.37 1065.77 1663.71 1059.14 C 1666.77 1042.34 1666.79 1025.02 1667.42 1008.01 z"/>
<path transform="translate(0,0)" fill="rgb(85,166,99)" d="M 811.298 298.95 C 815.118 298.42 819.19 297.386 822.929 298.63 C 826.116 302.483 825.132 306.264 824.79 311.051 C 822.291 320.292 819.32 327.424 813.885 335.326 C 807.123 343.944 800.138 351.357 791.237 357.808 C 786.738 361.014 782.271 364.243 777.558 367.134 C 766.422 373.618 753.699 380.726 740.481 381.135 C 739.978 381.137 739.475 381.151 738.972 381.14 C 735.211 381.06 733.951 380.827 731.359 378.231 C 729.031 370.521 734.897 361.359 738.389 354.555 L 740.781 350.134 C 750.894 333.003 764.027 318.425 781.768 309.131 C 791.21 304.436 801.109 301.538 811.298 298.95 z"/>
<path transform="translate(0,0)" fill="rgb(66,158,90)" d="M 811.298 298.95 C 815.118 298.42 819.19 297.386 822.929 298.63 C 826.116 302.483 825.132 306.264 824.79 311.051 C 822.291 320.292 819.32 327.424 813.885 335.326 C 810.927 330.973 811.734 325.98 808.803 321.907 L 807.708 322.513 L 807.91 325.439 L 806.623 326.159 C 806.243 324.269 806.326 324.944 806.157 323.19 L 806.058 322.043 L 804.508 321.63 L 801.003 326.244 L 799.638 325.584 L 799.211 323.414 L 800.823 321.16 C 798.838 321.079 798.53 321.751 796.946 322.85 C 795.007 323.213 792.731 323.401 790.894 324.081 C 788.334 323.865 786.344 323.549 783.883 322.713 C 783.802 320.959 783.93 321.702 783.479 320.016 C 782.478 316.273 781.925 313.003 781.768 309.131 C 791.21 304.436 801.109 301.538 811.298 298.95 z"/>
<path transform="translate(0,0)" fill="rgb(85,166,99)" d="M 811.298 298.95 C 815.118 298.42 819.19 297.386 822.929 298.63 C 826.116 302.483 825.132 306.264 824.79 311.051 C 821.873 308.288 819.288 304.374 816.734 301.231 L 815.819 301.957 L 815.738 308.959 L 814.564 309.453 C 812.249 306.572 811.955 302.51 811.298 298.95 z"/>
<path transform="translate(0,0)" fill="rgb(100,172,106)" d="M 796.946 322.85 C 798.53 321.751 798.838 321.079 800.823 321.16 L 799.211 323.414 L 799.638 325.584 L 801.003 326.244 L 804.508 321.63 L 806.058 322.043 L 806.157 323.19 C 806.326 324.944 806.243 324.269 806.623 326.159 L 807.91 325.439 L 807.708 322.513 L 808.803 321.907 C 811.734 325.98 810.927 330.973 813.885 335.326 C 807.123 343.944 800.138 351.357 791.237 357.808 C 786.738 361.014 782.271 364.243 777.558 367.134 L 774.167 364.914 L 774.709 362.448 L 776.611 363.198 C 779.103 362.524 780.062 361.95 781.816 360.056 C 781.921 357.574 781.46 356.196 779.73 354.303 C 777.968 352.374 776.522 352.096 774.039 351.879 L 771.473 353.116 C 769.398 351.078 767.431 348.916 765.427 346.807 L 766.161 346.302 L 768.533 347.058 C 770.869 347.223 772.463 347.664 774.59 348.648 C 775.17 348.917 775.741 349.207 776.319 349.48 C 778.606 350.56 780.79 351.361 782.553 353.26 C 782.929 353.665 783.236 354.128 783.582 354.558 C 783.913 354.968 784.254 355.37 784.583 355.781 C 784.819 356.075 785.047 356.376 785.279 356.674 L 787.053 356.691 C 786.362 351.454 781.708 347.975 780.81 342.161 C 780.757 341.822 780.722 341.481 780.678 341.141 C 781.142 339.943 781.139 339.714 782.093 338.588 C 783.681 336.713 786.624 335.159 789.053 334.949 C 791.583 334.73 790.2 335.095 792.119 334.423 C 792.071 332.701 791.888 330.766 792.114 329.064 C 792.629 325.182 794.003 324.957 796.946 322.85 z"/>
<path transform="translate(0,0)" fill="rgb(100,172,106)" d="M 740.781 350.134 C 744.204 350.145 745.775 350.376 748.619 352.331 C 741.986 358.432 743.249 369.48 740.519 377.543 L 740.481 381.135 C 739.978 381.137 739.475 381.151 738.972 381.14 C 735.211 381.06 733.951 380.827 731.359 378.231 C 729.031 370.521 734.897 361.359 738.389 354.555 L 740.781 350.134 z"/>
<path transform="translate(0,0)" fill="rgb(66,158,90)" d="M 774.039 351.879 C 776.522 352.096 777.968 352.374 779.73 354.303 C 781.46 356.196 781.921 357.574 781.816 360.056 C 780.062 361.95 779.103 362.524 776.611 363.198 L 774.709 362.448 L 774.167 364.914 L 772.782 367.821 L 771.489 367.944 C 770.607 365.843 769.778 363.72 769.004 361.577 C 766.684 363.637 768.104 365.3 765.156 366.891 L 762.118 366.389 C 763.602 363.208 764.813 361.96 767.772 360.085 C 768.719 359.484 769.697 358.93 770.611 358.282 C 773.505 356.232 773.537 355.365 774.039 351.879 z"/>
<path transform="translate(0,0)" fill="rgb(100,172,106)" d="M 783.883 322.713 C 786.344 323.549 788.334 323.865 790.894 324.081 C 790.513 324.333 790.137 324.593 789.75 324.836 C 788.479 325.639 787.386 326.13 785.988 326.635 C 784.636 328.438 783.435 330.022 782.491 332.082 L 780.004 333.497 C 779.407 331.281 779.125 329.218 778.917 326.934 C 780.36 324.139 781.151 324.087 783.883 322.713 z"/>
<path transform="translate(0,0)" fill="rgb(237,79,54)" d="M 847.114 689.985 L 892.056 689.902 C 891.87 716.833 890.857 743.73 892.517 770.649 C 890.979 772.656 888.618 772.361 886.183 772.749 C 871.821 774.81 857.336 775.982 842.96 778.086 C 842.952 749.021 844.975 718.996 847.114 689.985 z"/>
<path transform="translate(0,0)" fill="rgb(66,158,90)" d="M 689.742 259.142 C 698.148 253.804 703.806 252.744 713.713 252.824 C 713.791 259.028 714.091 265.265 713.143 271.417 C 713.025 275.17 712.948 278.908 712.526 282.643 C 711.898 287.439 711.372 292.216 710.183 296.913 C 708.579 302.696 707.185 308.596 704.792 314.11 C 699.181 325.834 692.062 339.33 683.585 349.196 C 681.511 352.708 678.518 358.765 674.494 359.935 C 662.906 347.191 659.152 336.693 657.235 319.725 C 656.577 315.715 655.922 312.471 656.92 308.482 C 658.996 300.421 662.218 293.08 666.056 285.721 C 669.294 279.219 673.667 273.903 678.628 268.668 C 682.191 265.338 686.003 262.271 689.742 259.142 z"/>
<path transform="translate(0,0)" fill="rgb(85,166,99)" d="M 688.694 314.915 L 690.955 313.683 C 693.638 314.344 695.522 313.138 698.103 312.693 C 701.159 312.166 702.266 312.392 704.792 314.11 C 699.181 325.834 692.062 339.33 683.585 349.196 C 681.511 352.708 678.518 358.765 674.494 359.935 C 674.449 354.631 674.17 349.42 675.788 344.298 C 675.239 344.105 674.712 343.83 674.14 343.719 C 671.741 343.252 671.116 343.919 668.879 342.502 C 669.652 340.468 669.182 340.976 670.56 339.666 C 671.604 338.673 673.049 337.692 673.921 336.55 C 675.407 334.603 674.425 332.708 673.968 330.554 L 672.852 329.847 C 672.55 331.161 672.268 332.637 671.767 333.886 C 670.412 337.257 667.554 339.047 664.336 340.31 L 663.036 339.462 C 662.859 333.864 661.694 326.403 664.394 321.401 L 666.289 320.881 C 668.728 321.923 669.652 323.315 671.135 325.396 C 672.03 326.651 672.879 326.661 674.292 327.198 C 675.055 329.444 676.457 331.458 678.199 333.03 L 679.325 332.158 C 679.763 330.031 680.13 328.028 681.098 326.059 C 681.279 325.692 681.497 325.345 681.697 324.988 L 680.618 322.485 L 680.771 320.968 C 683.823 320.119 687.25 320.79 689.382 318.424 L 688.694 314.915 z"/>
<path transform="translate(0,0)" fill="rgb(85,166,99)" d="M 678.628 268.668 C 682.083 274.411 680.036 278.594 679.061 285.042 L 680.724 280.388 C 682.463 279.613 683.684 279.371 685.583 279.276 L 685.156 287.36 C 687.149 286.587 688.091 285.782 689.553 284.234 C 691.866 285.056 690.901 284.396 692.482 286.163 L 692.286 288.896 C 687.968 290.851 684.09 290.37 681.96 295.351 C 682.938 298.545 682.842 298.5 685.823 300.108 C 686.929 300.705 688.105 301.224 689.239 301.761 L 689.768 303.443 L 687.04 304.338 C 686.94 306.176 686.779 305.351 687.368 306.837 C 686.731 308.829 685.636 309.817 684.19 311.282 L 681.647 310.532 C 680.191 306.743 681.971 304.386 681.35 300.561 C 679.024 301.623 677.033 302.693 674.411 302.656 C 672.831 302.633 672.109 302.614 670.59 303.055 L 670.143 306 L 666.371 304.401 C 666.562 303.596 666.816 302.305 667.232 301.61 C 669.945 297.077 673.738 293.818 674.341 288.063 L 672.92 287.134 L 669.319 289.12 C 666.96 288.427 667.219 287.77 666.056 285.721 C 669.294 279.219 673.667 273.903 678.628 268.668 z"/>
<path transform="translate(0,0)" fill="rgb(85,166,99)" d="M 703.596 262.163 L 704.97 260.481 L 706.234 261.138 L 706.363 262.252 L 711.956 262.369 C 712.505 265.401 712.913 268.342 713.143 271.417 C 713.025 275.17 712.948 278.908 712.526 282.643 C 711.898 287.439 711.372 292.216 710.183 296.913 L 708.222 296.904 L 705.282 293.624 C 704.761 290.193 704.114 288.07 702.286 285.105 C 702.563 283.291 703.506 283.019 704.837 281.833 C 704.591 277.577 703.304 275.083 701.227 271.469 L 700.458 270.157 L 701.58 266.851 C 703.283 267.751 702.666 267.274 704.078 268.64 C 704.413 268.963 704.735 269.299 705.063 269.629 C 707.508 270.283 706.356 270.42 708.53 269.317 C 708.109 265.97 705.897 264.368 703.596 262.163 z"/>
<path transform="translate(0,0)" fill="rgb(100,172,106)" d="M 702.286 285.105 C 704.114 288.07 704.761 290.193 705.282 293.624 L 708.222 296.904 L 710.183 296.913 C 708.579 302.696 707.185 308.596 704.792 314.11 C 702.266 312.392 701.159 312.166 698.103 312.693 C 695.522 313.138 693.638 314.344 690.955 313.683 L 688.694 314.915 C 688.297 312.733 688.427 312.598 689.404 310.584 C 692.718 311.06 694.867 311.007 698.119 310.173 L 698.709 308.853 C 697.99 308.042 696.779 306.388 695.845 305.707 C 693.57 304.051 695.499 306.282 693.455 303.4 C 695.367 301.351 695.893 301.827 698.565 301.505 L 697.471 298.479 C 698.532 296.876 698.946 296.023 699.204 294.068 C 699.703 290.289 699.698 288.258 702.286 285.105 z"/>
<path transform="translate(0,0)" fill="rgb(85,166,99)" d="M 542.449 311.06 C 548.58 312.067 554.222 313.848 560.104 315.792 L 567.32 319.321 C 575.971 324.753 583.674 331.502 589.341 340.086 C 594.345 346.751 598.644 353.917 602.169 361.469 C 606.464 370.063 610.952 379.628 612.45 389.162 C 611.281 390.901 610.68 391.633 608.399 392.015 C 597.383 393.858 576.897 379.937 569.066 372.671 C 567.81 371.502 566.569 370.319 565.342 369.12 C 561.291 364.412 558.434 359.5 555.6 354.027 C 553.993 350.689 552.675 347.153 551.243 343.733 L 547.73 335.732 C 545.101 327.779 543.941 319.29 542.449 311.06 z"/>
<path transform="translate(0,0)" fill="rgb(66,158,90)" d="M 542.449 311.06 C 548.58 312.067 554.222 313.848 560.104 315.792 L 567.32 319.321 C 567.178 328.702 572.776 336.307 576.457 344.676 C 577.548 345.32 578.276 345.783 579.526 346.061 L 579.383 349.642 C 577.364 349.59 578.445 349.849 576.4 348.576 C 574.572 347.439 575.342 347.642 574.127 347.437 L 573.143 349.289 L 574.934 347.889 L 575.259 348.077 L 573.495 350.621 C 576.118 358.792 587.244 369.451 586.588 377.441 L 585 377.386 C 583.866 375.583 583.013 374.119 582.168 372.157 C 580.568 368.437 575.986 367.359 575.108 363.421 C 576.364 361.471 575.742 362.314 576.917 360.853 C 573.603 359.056 570.904 361.348 567.946 358.944 C 567.512 356.018 568.204 354.08 569.112 351.361 L 565.272 349.858 C 565.159 356.408 566.2 362.558 565.342 369.12 C 561.291 364.412 558.434 359.5 555.6 354.027 C 553.993 350.689 552.675 347.153 551.243 343.733 L 547.73 335.732 C 545.101 327.779 543.941 319.29 542.449 311.06 z"/>
<path transform="translate(0,0)" fill="rgb(100,172,106)" d="M 560.521 334.761 C 563.836 337.094 564.55 339.217 565.889 342.966 L 567.027 343.866 L 570.069 342.041 C 572.109 345.278 572.887 353.934 572.404 357.76 C 570.26 355.918 569.818 354.033 569.112 351.361 L 565.272 349.858 L 563.261 347.176 L 560.676 344.928 C 559.563 341.26 559.983 338.514 560.521 334.761 z"/>
<path transform="translate(0,0)" fill="rgb(100,172,106)" d="M 567.32 319.321 C 575.971 324.753 583.674 331.502 589.341 340.086 C 594.345 346.751 598.644 353.917 602.169 361.469 L 600.236 362.754 C 594.92 357.817 596.77 361.066 590.695 360.495 C 589.345 360.368 586.459 358.529 585.099 357.898 C 586.457 356.353 587.372 354.947 588.316 353.122 C 587.576 349.707 586.178 348.784 583.818 346.277 L 584.93 342.118 C 582.732 342.248 581.505 342.049 580.245 344.222 C 579.914 344.791 579.766 345.448 579.526 346.061 C 578.276 345.783 577.548 345.32 576.457 344.676 C 572.776 336.307 567.178 328.702 567.32 319.321 z"/>
<path transform="translate(0,0)" fill="rgb(66,158,90)" d="M 581.881 359.154 C 580.742 355.311 583.088 350.35 583.818 346.277 C 586.178 348.784 587.576 349.707 588.316 353.122 C 587.372 354.947 586.457 356.353 585.099 357.898 C 586.459 358.529 589.345 360.368 590.695 360.495 C 596.77 361.066 594.92 357.817 600.236 362.754 L 601.625 366.042 C 599.848 373.015 601.056 374.541 604.18 380.617 L 603.222 380.809 C 599.758 377.706 596.627 374.35 593.461 370.952 C 593.012 373.18 592.537 375.404 592.034 377.621 L 590.895 377.779 C 587.137 373.456 590.707 367.56 588.321 362.824 C 587.212 363.907 586.391 364.543 585.051 365.406 L 583.471 363.568 L 583.965 360.704 L 581.881 359.154 z"/>
<path transform="translate(0,0)" fill="rgb(255,255,255)" d="M 513.048 786.677 C 515.136 788.301 516.091 790.014 517.059 792.44 C 523.19 807.818 526.638 825.523 531.139 841.519 C 536.419 860.283 543.143 879.476 547.176 898.501 L 545.962 899.952 L 514.059 899.966 C 512.802 862.238 514.791 824.392 513.048 786.677 z"/>
<path transform="translate(0,0)" fill="rgb(255,255,255)" d="M 745.73 722.938 C 746.755 724.166 746.938 810.489 746.862 819.117 C 735.868 835.763 720.596 849.443 710.149 866.227 L 709.786 866.447 L 709.152 865.582 C 716.996 835.648 724.195 805.435 731.629 775.392 C 735.964 757.871 739.8 740.002 745.73 722.938 z"/>
<path transform="translate(0,0)" fill="rgb(255,255,255)" d="M 1631.1 1258.92 C 1643.23 1259.51 1655.03 1263.37 1667.09 1264.94 C 1657.43 1272.52 1647.03 1278.89 1637.51 1286.75 C 1635.32 1288.89 1614.92 1292.85 1609.72 1294.73 C 1612.89 1279.06 1619.62 1269.71 1631.1 1258.92 z"/>
<path transform="translate(0,0)" fill="rgb(255,255,255)" d="M 448.334 486.799 C 452.223 491.206 459.046 529.3 460.926 537.868 C 459.612 537.948 458.296 538.011 456.981 538.057 C 454.349 538.128 452.11 538.316 450.15 536.428 C 446.404 521.672 447.834 502.093 448.334 486.799 z"/>
</svg>