<svg xmlns="http://www.w3.org/2000/svg" width="1365.333" height="1365.333" preserveAspectRatio="xMidYMid meet" version="1.0" viewBox="0 0 1024 1024"><g fill="#000" stroke="none"><path d="M98.4 61.4c-1.8.8-3.7 2.8-4.7 4.9-1.6 3.2-1.7 22.9-1.8 264.9-.1 143.7-.4 262.4-.8 263.7-.3 1.3-1.3 2.7-2.1 3.1s-3.5 1.6-6 2.7c-12.2 5.3-16.3 7.9-20.9 13-9.7 10.8-14.9 25.7-15.8 45-1 20.6 2.8 34.3 13.6 48.7l6 8-.1 60c-.2 64.4.5 76.8 5.1 87 3.4 7.9 12.7 12.6 30.5 15.7l6.9 1.1-.6 5.7c-.4 3.1-1.2 13.1-1.8 22.2-1.5 20.1-1 22.1 6 25.2 7.7 3.4 26.1 1.3 31.6-3.6 1.8-1.6 4.2-7.6 9-22.5l6.7-20.3 3.1.6c1.8.3 9.5 1.2 17.2 2s16.5 1.8 19.5 2.1 11.1 1.1 18 1.8c10.4 1 13.4 1.6 17.4 3.9 10.4 5.8 22.8 7.2 34.9 4.1 5.1-1.3 7.7-1.4 15.7-.5 5.2.6 15.1 1.5 22 2.1s14.3 1.3 16.5 1.5c2.2.3 8.5.9 14 1.5 5.5.5 13.8 1.4 18.5 1.9 4.7.6 12.1 1.3 16.5 1.6 4.4.4 12.1 1.1 17 1.6 21.3 2.2 51.3 5.1 83.5 7.8 39.3 3.4 64 5.7 78.5 7.1 14 1.4 39.7 3.8 54 5 6.6.5 14.7 1.2 18 1.5 33.4 2.9 93.3 7.3 113.2 8.4 14.6.8 14.8.8 17.3 8 2.7 7.9 8.9 24.8 10.3 28.1 3.3 7.5 10.9 12.1 21.4 12.8 9.5.6 13.7-.3 17.8-3.9 5.3-4.7 5.9-8 4.6-24.3-.7-7.8-1.4-15.3-1.6-16.9-.4-2.5-.2-2.7 2.8-2.7 5.3 0 15.6-4 23.7-9.1 4.1-2.6 12.9-8 19.5-12s17.3-10.6 23.8-14.6c11.6-7.2 23.7-13.7 24.2-13.1.1.2 1.2 4.3 2.4 9.2 3.3 13.6 4.3 15.4 9.7 17.7 6.5 2.9 21.8 2.5 26.1-.7l2.8-2.1-.2-18.4c-.1-10.1-.6-22-1-26.5l-.9-8.1 4.4-3.7c2.4-2.1 5.7-6.5 7.4-10 3-6 3.6-9 5.3-28.1.3-3.3 1-10.1 1.5-15 1.7-16.5 4.9-58.8 5.6-75l.7-16 5.4-5.7c5.5-5.9 10.1-14.4 12.1-22.8 3.1-12.8 3.6-35.9 1.1-49.5-1.5-8.4-7.4-19-14.6-26.3l-6.6-6.7 1.7-8.5c3.1-15.7 6.9-38.3 8.2-48.5.3-2.8 1.4-10.6 2.5-17.5 3.4-22.2 6.7-54.2 6.8-67.2.6-50.7-22.8-77.1-73.4-82.7-14.7-1.7-52.9-3.2-85-3.5-34.8-.4-43.8-1.1-43.1-3.5 1.5-4.7 3.9-40.2 4-57.6.1-18.5-.1-20.3-2.1-24.7-1.3-2.9-3.8-5.8-6.5-7.8-4-3-4.7-3.1-10.2-2.5-10.9 1.2-26.1 10.5-43.2 26.6-6 5.7-12.8 12.1-15.1 14.3l-4.3 4-4.4-2.2c-11.6-5.6-45.1-8.9-57.6-5.8-3.6.9-7.1 1.8-7.9 1.9s-2.5-3-4.6-8.3c-5.7-14.8-23.3-44-30-49.9-9.9-8.7-20.3-9.4-27.2-1.9-3.4 3.7-8.9 14.5-12.2 23.9-3.5 9.9-10.6 35.9-14.7 53.4l-2.7 12-8.7 9c-9.6 9.9-15.2 17.9-18.5 26.4-2.1 5.6-2.1 5.6-6 5.2-2.1-.1-6.8-1-10.4-1.8-3.7-.8-14.5-1.7-24.1-2l-17.5-.6.3-142.6c.1-78.4 0-143.6-.3-144.8s-1.6-3.5-3-5.2l-2.6-3H287.8c-99.9 0-162.8.4-163.9.9-2.4 1.3-4 6.8-3.8 12.7 0 2.6.1 100.6.1 217.8-.1 117.1-.1 225.5-.1 240.9 0 15.3-.2 28.1-.5 28.3-.3.3-4.3.8-9 1l-8.6.6-.1-37.4c-.1-20.6-.1-37.7 0-38.1 0-.5.1-96.5.1-213.5 0-116.9.3-217.1.7-222.5l.6-9.8h184.9l184.8.1-.1 4.7c0 2.6.2 45.6.5 95.7.3 50 .6 116.5.7 147.7 0 54.4.1 56.8 1.9 57.8 2.5 1.3 6.7 1.3 7.5-.1.4-.6.6-28.1.5-61.2-.2-33.1-.3-100.9-.4-150.7-.1-102.1.2-97.9-7.1-101.1-3.8-1.6-14.5-1.8-189.5-2.3-153-.4-186-.3-188.6.8m347 39.7c.6 3 .5 110.5-.2 149.6l-.3 19.3H413c-29.8 0-32-.1-32-1.8 0-.9 1.2-7.3 2.6-14.2 1.7-7.8 2.7-16 2.8-21.7.1-8.3-.1-9.5-2.2-11.5-2.2-2.2-3-2.3-24.5-2.8-17.9-.4-21.7-.7-19.6-1.7 1.4-.6 3.9-2.3 5.6-3.7 5.7-4.8 19.1-11.6 22.9-11.6 5.8 0 12.4-2 22.3-6.7 7.7-3.7 10.8-5.9 17.6-12.6 10.8-10.8 14.9-18.8 14.8-28.8-.2-9.9-2.2-13.1-9.1-14.2-7.9-1.3-17.9.8-27.5 5.6-16.4 8.2-30.3 26.6-31.5 41.6-.5 7.4-1.6 9.1-8 12.8-5.9 3.5-7 2.8-6.2-4 .5-5.1 1-5.8 6.2-10.6 6.2-5.7 11.8-15.4 16.3-28.6 2.2-6.2 2.9-10.5 3.3-18.8.6-14.2-.1-17.3-4-19.3-5.3-2.8-13.7-2.2-21 1.4-7.6 3.8-15.7 11.2-18.6 17.3-7.6 15.7-6.8 32.1 2.3 46.3 4.3 6.7 4.5 7.2 4.5 14.7 0 9.1-.8 13.9-2.4 13.9-.6-.1-3.2-2.7-5.7-5.9-4-5.1-4.7-6.7-5.2-12-1.4-12.7-10.6-29.7-20.5-37.6-8.9-7.1-16.4-10.5-23.3-10.5-5.2 0-6 .3-8.3 3.1-2.1 2.4-2.6 4.1-2.6 8.3 0 13.7 5.5 28 14.1 36.6 5.9 5.9 16.2 11.4 25.2 13.5 4.9 1.1 7.3 2.4 10.6 5.5 2.3 2.2 5 4.1 5.9 4.1 4.5.4-10.6 1.7-20.5 1.8s-11.3.3-12.2 2c-1.9 3.4 1.1 28.4 4.9 41.1.5 1.9 1 4.7 1 6.2v2.8h-21.8l-1.1-5.1c-.6-2.7-2-10.3-3.2-16.7-1.1-6.4-4-21.6-6.4-33.7s-5.1-25.8-6-30.5c-1.7-9.4-5.9-22.8-7.8-25.4-.9-1.2-3.9-2-11-2.8l-9.7-1.1V136c0-17.8-.1-18.9-2.3-22.1-3.4-5.1-8-6.3-22.9-6.3-8.8 0-13.1.4-14.2 1.3-1.2 1-1.6 4-1.8 14.4l-.3 13.2-7.7-.2c-5.3-.2-8.6-.8-11-2.2-2.8-1.6-9.2-2.9-29.1-5.7l-3.8-.6.2-14.4c.1-8 .6-14.1 1-13.7s5.4.5 11.1.2 74.4-.7 152.7-.8c78.4-.1 142.6-.2 142.7-.4.2-.1 1.6-.4 3.2-.5 2.6-.2 3 .2 3.6 2.9m-89.7 33.6c-.3 1-.5.4-.5-1.2 0-1.7.2-2.4.5-1.8.2.7.2 2.1 0 3M340 136c0 .5-.5 1-1.1 1-.5 0-.7-.5-.4-1 .3-.6.8-1 1.1-1 .2 0 .4.4.4 1m2.7 5c-1.1 1.8-2.7 2.7-2.7 1.5 0-1.3 2.5-4.3 3.2-3.9.4.3.2 1.4-.5 2.4m8.3-2c0 .5-.2 1-.4 1-.3 0-.8-.5-1.1-1-.3-.6-.1-1 .4-1 .6 0 1.1.4 1.1 1m4.7.8c.1 1-.5 1.9-1.3 1.9-1.7 0-1.9-2.3-.1-3l1.2-.6c.1-.1.1.7.2 1.7M140.2 141c3.8.6 7.9.8 9.2.4 1.4-.3 3.3-.3 4.3 0 1.7.6 1.8 3.6 2.1 62.8.2 34.3.6 63.1.8 64 .5 1.7-.6 1.8-13 1.8H130v-65.6c0-61.9.1-65.5 1.8-65 .9.3 4.7 1 8.4 1.6m195.9 2.3c-1 .9-1.1.8-.5-.6.3-1 .9-1.5 1.2-1.2s0 1.1-.7 1.8m2.9 3.7c0 .5-.4 1-1 1-.5 0-1-.5-1-1 0-.6.5-1 1-1 .6 0 1 .4 1 1m14 .5c.8.9 1 2.8.6 5-.8 3.9-2.1 4.6-2.9 1.5-.3-1.1-.1-1.8.3-1.5 1.2.8 2.3-1.3 1.6-3.2-.5-1.3-.9-1.3-2.4-.2-1.5 1.2-1.6 1.2-.5-.2.7-.9 1-1.9.6-2.2-.3-.4-.2-.7.4-.7s1.6.7 2.3 1.5m-175.9.5h5.9v121.5l-6.3-.1c-3.4 0-7.1-.1-8.2-.2-2-.2-2-.9-2-60 0-32.8.4-60.3.9-61 .4-.7 1.5-1.1 2.3-.8s4.1.6 7.4.6m224.4 4.9c.3.5.1 1.2-.5 1.6-.5.3-1-.1-1-.9 0-1.8.6-2.1 1.5-.7m-124 5.1c.3.5.2 1-.4 1-.5 0-1.3-.5-1.6-1-.3-.6-.2-1 .4-1 .5 0 1.3.4 1.6 1m8 3c.3.5.1 1-.4 1-.6 0-1.1-.5-1.1-1 0-.6.2-1 .4-1 .3 0 .8.4 1.1 1m-11.8 3.2c-.3.7-.5.2-.5-1.2s.2-1.9.5-1.3c.2.7.2 1.9 0 2.5m76.3-2.8c0 .3-.4.8-1 1.1-.5.3-1 .1-1-.4 0-.6.5-1.1 1-1.1.6 0 1 .2 1 .4m59.1 1.9c-1 .9-1.1.8-.5-.6.3-1 .9-1.5 1.2-1.2s0 1.1-.7 1.8m-16.1-.9c0 .2-.7.7-1.6 1-.8.3-1.2.2-.9-.4.6-1 2.5-1.4 2.5-.6m-106.1 1.9c.6.8.8 1.7.4 2-.7.8-3.3-1.1-3.3-2.4s1.6-1.1 2.9.4m115.9.9c-.2.7.2 1.2.9 1.1 1.4-.3 2.5 2.4 1.3 3.2-.5.3-1.1.1-1.5-.4-.3-.6-1.2-.8-1.9-.5-2.1.8-2.8-2.4-.8-3.5 2.2-1.3 2.2-1.3 2 .1m-4.8 4.1c0 .4-.9.2-2-.5-1.3-.9-1.6-1.4-.7-2 1.1-.6 2.7.8 2.7 2.5m-163.9-.7 4.6.6 3.7 19.2c8.9 45.5 15.5 78.2 16.1 79.8s.1 1.8-4.1 1.8c-2.7 0-6.5-.3-8.4-.6l-3.6-.6-6.7-26.6c-9.9-39.2-10.8-43.9-11.4-60.6l-.6-14.9 2.9.6c1.6.4 5 1 7.5 1.3m65.5 10.2c2 3.5 3.4 6.6 3.1 6.9s-1.3-1.1-2.1-3.1-1.9-3.6-2.3-3.6c-.5 0-1.4-1.4-2-3.1-.7-1.7-1.7-2.8-2.2-2.4-.7.3-.8 0-.5-.9.4-.9-.1-1.8-1-2.2-.9-.3-1.3-1.1-1-1.6.9-1.3 3.4 1.8 8 10M282 170c0 .5-.2 1-.4 1-.3 0-.8-.5-1.1-1-.3-.6-.1-1 .4-1 .6 0 1.1.4 1.1 1m112.4 5.1c-.2.4.3 1.2 1.2 1.7 1.7.9 2 .6-5.9 5.7-2.1 1.3-2.4 1.3-2.4 0 0-.8.4-1.2.8-.9.5.3 2.2-.5 3.9-1.7l3-2.3-2-2.1c-2.5-2.7-2.6-3.9-.1-2.3 1.1.7 1.8 1.5 1.5 1.9M290 179.5c0 .5-.5.3-1-.5s-1-2-1-2.5c0-.6.5-.3 1 .5s1 1.9 1 2.5m80.7 0c-.1 3-.3 3.3-1.5 2.1-1.1-1.1-1.1-1.8-.3-3.5 1.6-2.9 1.9-2.7 1.8 1.4m-85.3 3c-.4.8-.7 1.5-.9 1.5s-.5-.7-.9-1.5c-.3-.9 0-1.5.9-1.5s1.2.6.9 1.5m-82.4 1.9c0 .2-.7.6-1.5 1-.8.3-1.5.1-1.5-.4 0-.6.7-1 1.5-1s1.5.2 1.5.4m86 3.8c0 .6-.7.5-1.5-.2s-1.5-1.7-1.5-2.2c0-.6.7-.5 1.5.2s1.5 1.7 1.5 2.2m11.4 5.7c.4.5-.3.7-1.4.4-2.3-.6-2.6-1.3-.6-1.3.8 0 1.7.4 2 .9m76.6 35.8c0 2.3-2.6 16.8-5.4 29.8l-2.1 10-33.1.3-33.1.2-1.8-10.2c-1-5.7-2.6-13.2-3.6-16.8-1.1-3.6-1.9-8.4-1.9-10.7V228h40.5c37.9 0 40.5.1 40.5 1.7m-148.1 32 1.8 7.3H228c-2.4 0-2.8-.5-3.4-3.8-.3-2-.5-8-.5-13.2l.1-9.5 1.5 6c.8 3.3 2.3 9.3 3.2 13.2m354.7 7.4c3.6 3.9 11.4 17.4 18.4 31.4 5.9 11.9 7.5 16.2 10.3 28.4 2 8.8 4 14.9 4.9 15.4 2.7 1.7 6.3-.1 16.9-8.4 10.4-8.1 16.4-11.8 17.5-10.7.3.3-1.5 5.6-4.1 11.8-4.7 11.6-4.9 14.2-1.4 16 3 1.6 5.8-.2 23.2-15.2 5.6-4.8 9-7 12-7.6 2.3-.5 4.3-.8 4.5-.6.2.1-2.2 5.7-5.4 12.5-4.6 10.1-5.5 12.8-4.8 14.9.7 1.9 1.7 2.6 4.5 2.8 3.1.3 4.5-.5 12-6.9 4.6-4 11.6-10.2 15.4-13.9 22.4-21.3 48.8-44.6 53.2-46.9 3.1-1.6 7.9-1.4 9.7.4 2.5 2.6 2.9 7.7 2.2 29.4-.8 24.5-1.1 28.4-3.8 46.1-2.5 16.5-2.5 20.2.2 24.7 6.2 10.5 6.8 36.2 1.3 53.5-.8 2.8-2.1 4.8-2.9 4.8s-8.3-1.3-16.7-2.9c-8.3-1.7-18.3-3.3-22.2-3.6-3.8-.4-8.1-.9-9.5-1.1s-8.6-.7-16.1-1.1l-13.7-.6-1.7 2.7c-1.8 2.7-1.8 2.8.6 5.2 2.3 2.2 4.1 2.6 19.5 4.4 9.3 1 20.1 2.4 23.9 3 11.2 1.9 29.5 6.2 30.1 7.2 1.3 2-10.9 18.3-15.6 20.8-1.4.8-3 .2-6.8-2.4-13.1-8.8-31.2-16-45.5-18-5.9-.9-7 .8-3.4 5.6 2 2.6 4.6 4 11.9 6.7 10.8 3.9 33.1 14.6 34.9 16.7 2.8 3.4-12.3 15-26.4 20.4-12 4.6-15.6 8.9-10.5 12.4 3 2.1 4.9 2 14.3-1 4.3-1.4 8.9-2.3 10.2-1.9 1.2.3 5.8 4.6 10.2 9.6 6.9 7.8 11.6 14.2 21.8 30 1.3 1.9 3.2 6 4.2 9 1.1 3 3.1 7.9 4.4 10.9 7.9 17.8 10.3 46.3 4.8 57-4.5 8.7-9.3 14-15.6 17.2-3.3 1.7-7.6 3.9-9.5 4.9-8.3 4.3-11.5 4.4-29.1 1.6-28.8-4.6-36.6-2.8-52.4 12.3-10.1 9.7-16.4 13.3-22.2 12.8-3.6-.3-3.8-.5-3.5-3.5.1-1.8 1.6-5.6 3.4-8.4 3-5 3.1-5.2 1.3-6.5-5.5-4-11.1 1.3-14.5 13.8-1.4 5.3-4.2 6.8-9.3 4.7-2.7-1.1-2.9-1.5-2.4-5.2.3-2.1 2.1-7.1 4.1-11l3.6-7.2-2.1-1.8c-2.8-2.2-3.9-2.2-7.9.5-3.3 2.4-4.9 4.6-7.6 11.3l-1.6 4-1.3-3.5c-1.7-4.6-1.8-11.5-.1-16.3 4.8-13.5 19.5-23.4 48.8-33.2 19.3-6.3 26.1-7.5 44.7-7.5 12.8 0 16.2-.3 16.8-1.4.4-.8 1.3-1.4 1.8-1.3 3.6.7-.8-16-6.7-24.8-2.7-4-3.5-4.6-6.1-4.3-5.3.5-5.8 4.1-2.1 16.5.6 2.2.3 2.3-4.4 2.3-6.6 0-26.3 2.6-34.9 4.6-11 2.5-27.1 8.2-37 13.1-15.4 7.6-26 17.7-30.1 28.7-1.9 4.8-2 4.9-10.7 8.2-14.1 5.5-31.6 15.1-40.4 22.1-4.5 3.5-10.8 9.9-14.2 14.1-7.1 9.2-14.5 23.6-15.9 31.2-1.3 7.1.2 15.2 3.6 19.7 1.5 1.9 2.2 3.8 1.8 4.2-1.2 1-30.7 8.7-40.9 10.7-4.4.8-12.9 1.9-19 2.4-20.9 1.7-53.1 11.4-69.7 21.1-9.7 5.7-22.7 18.8-31.6 31.9-14.4 21.3-37.8 41.2-73.2 62.2-9.4 5.7-20.6 10.6-21.5 9.5-.2-.1 1.4-4.3 3.5-9.4s3.5-9.4 3.2-9.7c-1.3-1.3-8-.5-9.5 1.1-2.1 2.4-7.7 14.4-7.7 16.5 0 1-.4 1.8-1 1.8-1.2 0-11.4-2.2-11.8-2.5-.6-.5 2.8-6.6 7.5-13.7 5.4-8.3 6-11.8 2-12.9-2.4-.6-3.4-.2-6.8 2.8-2.2 2-5.2 5.7-6.6 8.1-2.3 3.9-2.8 4.2-3.4 2.6-3.7-9.3 2.6-18 24.1-33.7 6.9-5 15.6-11.6 19.5-14.6 3.8-3.1 10.3-7.8 14.3-10.6 6.7-4.6 7.6-5.6 10.4-11.8 1.7-4.1 4.3-13.6 6.3-23.5 6-29.7 9.5-39.5 19.4-54.4 14.5-21.7 42-38.5 76.1-46.5 8.8-2.1 34-2.3 45.5-.4 14.9 2.5 13.9 2.5 17.1-.2 2.4-2.1 2.7-2.9 1.8-4.4-3-4.9-15.9-7.6-37.4-7.7-13.7 0-18.2.4-26.8 2.3-5.7 1.3-10.6 2-10.9 1.7-.8-.8 9.2-20.9 15.9-31.9 2.9-4.8 10.4-15.5 16.7-23.7l11.4-14.9 4.3 3.9c9.7 8.9 24.1 13.6 38.9 12.6 10.9-.7 15.4-2 27.5-8.1 12-6 14.6-8 17.8-13.5 2.2-3.7 2.7-5.7 2.6-11.2 0-5.8-.5-7.4-3.6-12.5-2.2-3.6-6-7.7-10.2-11l-6.6-5.1 5.9-3.6c7.9-4.8 9.1-6.4 6.6-8.3-3.4-2.4-6.4-2.6-13-.8-8.1 2.2-13.4 6.5-14.2 11.7-.5 3.2-.1 4.1 2.5 6.5 1.6 1.5 5.5 4.4 8.7 6.3 7 4.3 10.4 8.5 12.2 15.3 1.3 5 1.2 5.2-1.1 7.5-2.9 2.9-3.8 2.5-6.6-3.2-2.6-5.5-7.2-8.7-10.9-7.7-3.5 1-3.9 4.9-.9 8.7 2.3 2.8 4.8 7.7 4.8 9.3 0 .8-5.5 3.6-11.1 5.6l-3.7 1.3-.6-4c-.4-2.2-1.6-5.7-2.6-7.9-1.8-3.4-2.5-3.9-5.4-3.9-2 0-4 .8-5.1 2-1.7 1.9-1.7 2.2.3 7.5 2.9 7.4 2.2 8.9-3.7 8.1-15-2-32.4-19.9-33.2-34.1-.4-6.9 1.2-16.9 3.2-20.2 3-4.9 13.2-13.8 21.2-18.5 15.8-9.2 37.2-17.3 64.7-24.5 24.9-6.4 22.7-6.4 31.8-.5 15 9.9 29.4 15.2 45.1 16.8 6.1.6 7.4.4 9.1-1.1 1.1-1 2-2.2 2-2.7 0-1.9-5.4-5.8-8-5.8-4.4 0-19.8-4.8-28.6-8.9-14.3-6.7-31.9-19.9-39.1-29.3-6.8-8.7-15.3-23.7-15.3-26.7 0-.8 15-3.1 20.3-3.1 3.8 0 7.7-2.7 7.7-5.3 0-.7-1.3-2.6-3-4.2-2.8-2.7-3.2-2.8-10.2-2.2-4 .4-9.6 1-12.4 1.3l-5.2.6-.4-3.6c-.4-3.4-.3-3.6 2.7-3.6 1.6 0 7.3.9 12.5 1.9 10.1 2 13 1.6 13-1.9 0-1.1-1.1-2.7-2.5-3.6-2.7-1.8-13.5-4.8-21-6l-4.8-.7.6-6.5c.4-3.6 1.1-7 1.6-7.5 1.3-1.3 10.5 3.1 19.4 9.3 10 6.8 12 6.6 12-1.1 0-2.3-.7-4.7-1.7-5.8-2.5-2.7-14.1-8.6-20.8-10.5s-6.9-2.4-3.4-10.8c3.2-7.8 10.5-17.7 19.7-26.7l7.7-7.6.7-7c1-9.2 11.5-50.7 15.5-61.1 3.9-10.2 8.4-17.4 10.8-17.4 1 0 2.7.9 3.8 2.1M446 288.5v9.1H287.1l-158.9-.1.2-4.5c.1-2.5.3-6.5.4-9l.2-4.5h158.5l158.5-.1zm-.6 21.6c.3 1.7.6 7.4.6 12.5v9.4h-7.7c-10.4 0-15.3-.9-14.6-2.6.7-2-6.6-5.2-15.4-6.8-4.3-.7-13-1.3-19.3-1.2l-11.5.1-2.2 4.5c-1.3 2.4-2.3 5.6-2.3 7.1v2.7l-18.8.4c-13.8.2-19.3.7-20.5 1.6-.9.8-2.1 3.9-2.8 7s-3.6 15.6-6.5 27.7-6.7 28.7-8.5 36.8c-3.8 17-3.4 17.3-8.5-4.8-5.7-24.2-13.5-53-15.2-56.2-.7-1.1-2.8-3.1-4.7-4.3-3.3-2.1-4.5-2.2-20.8-1.9-9.4.2-17.8 0-18.5-.4-.6-.5-7.3-1.2-14.6-1.7-7.4-.4-13.9-1.1-14.5-1.5-.6-.3-1.1-3-1.1-5.9 0-4.5-.4-5.6-3-8.1-3.1-2.9-3.1-2.9-20.8-3.8-20.8-1-29.3-.4-31.7 2.3-1.4 1.5-1.8 4.9-2.2 19.4-.5 15.5-.8 17.6-2.2 17.2-.9-.3-6.5-1-12.6-1.6-6-.6-11.8-1.3-12.7-1.6-1.7-.5-1.8-2.6-1.8-25V307h313.8zm-238.6 80.4.1 59.4-17.8.3-17.9.3-.1-58.9c0-32.3.2-59.2.5-59.7s8.3-.9 17.8-.9h17.3zM446 365.4v20.4l-3.7.6c-2.1.3-6.7.8-10.3 1.1-3.6.4-7.3.9-8.4 1.2-1.8.5-1.8-.2-1.1-20.8.4-11.8.9-21.7 1.2-22.2.2-.4 5.3-.7 11.4-.7H446zm-81.7-17.7c.2.5-1.7 8.9-4.3 18.8s-6.9 26.3-9.5 36.5c-8.5 33.2-11.7 44.5-12.9 45.8-.9.9-3.9 1.2-10.3 1l-9-.3 3.7-17c6.8-31.3 16-71 17.6-75.7.8-2.5 2.6-5.8 3.9-7.2 2.2-2.4 3-2.6 11.4-2.6 4.9 0 9.2.3 9.4.7M239 352c1.1.7.5.8-2 .4-4.3-.8-5.1-1.4-1.9-1.4 1.3 0 3.1.5 3.9 1m44.9 2.3c.5 1.2 1.6 6.1 2.6 10.7 2.7 13.9 16.3 67.1 19.9 78.4.9 2.7 1.6 5.3 1.6 5.8 0 .4-5.1.8-11.4.8h-11.4l-1-3.8c-.5-2-4.5-15.6-8.7-30.2-9.5-32.4-15-53-15.9-59.3l-.7-4.7H271c11.6 0 12.1.1 12.9 2.3m89.2 32.6.1 23.2-4.2 5.5c-2.2 3-6 7.6-8.3 10.3-2.3 2.6-4.7 5.6-5.4 6.7s-1.1 1.2-.8.4c.2-.8 4-15.9 8.4-33.5 9.4-37.3 9.2-36.7 9.7-36.2.3.2.5 10.8.5 23.6m-133.3-14.8c-.3.8-.7.3-1.1-1-.4-1.7-.3-2.1.5-1.3.5.5.8 1.6.6 2.3m153.9 2.8c0 1.1-.5 1.8-.9 1.5s-.5-1.1-.1-1.9c.7-2.1 1.2-1.9 1 .4M243 378.6c0 2.1-1.7 1.7-2.3-.5-.3-1.4-.1-1.8.9-1.4.8.3 1.4 1.1 1.4 1.9m2.7 7.6c-.3.7-.5.2-.5-1.2s.2-1.9.5-1.3c.2.7.2 1.9 0 2.5m564.3 1c40.5-.2 86.6 2.4 103 5.9 35.7 7.5 50.4 21.9 55.1 54.2 1.8 12.6.5 36.8-4 71.7-7.2 55.4-11.2 78.6-14.4 82.8-.5.7-1.8 1-2.9.6-3.6-1.1-28.4-.5-36.3 1-4.4.8-13.1 3.1-19.3 5-6.3 2-11.7 3.6-12.1 3.6s-.2-3.9.5-8.8c1.7-11.4 2.4-22.3 3.2-52.3l.7-24.5 3.7-7.6c2.6-5.1 6.5-10.6 12.4-16.9 12.2-13.4 13.4-15.3 14.3-23.9 1.1-11-.1-16.6-4.6-21.2-3.8-3.9-11.5-7.4-18.1-8.2-6-.8-18.1 1.3-26.1 4.5-9.8 3.9-19.2 10.3-26.7 18.1-7.4 7.7-9.7 12-12.9 24.1-2.2 8.7-3 13.7-4 26.7-1.2 15.5-1.5 20.4-3 43.5-2.4 37.4-5.4 49.5-14.4 59.3-2 2.1-5.5 6.2-7.9 9.1-3.8 4.5-13.9 13.1-15.4 13.1-.3 0 .5-3.4 1.8-7.5 2.1-6.5 2.4-9.6 2.4-21.3 0-15.5-1.7-24.2-7.3-38.9-8.6-22.1-18.1-36.9-33.8-52.8-5.4-5.5-9.9-10.5-9.9-11 0-1.2 10.4-10.6 13.5-12.2 1.6-.9 3.1-.6 7.3 1.5 4.2 2 5.8 2.4 8 1.6 4.3-1.5 4-4.8-.7-9.6-2.3-2.2-4.1-4.4-4.1-4.8s1.4-2.5 3.1-4.6c1.8-2.2 5.4-7.3 8.1-11.4 3.2-5 6.1-8.2 8.6-9.5 3.9-2.1 5.4-6.3 3.2-9-.8-1-.7-2.8.4-7.2 2.5-9.8 3.7-20.7 3.8-33 .1-9.7-.4-13.6-2.6-21.8-1.4-5.5-2.6-10-2.6-10.1s1.9.3 4.3.9c2.3.5 13.7 1 25.7.9m-575.7 2.3c-.3.9-.8 1.4-1 1.1-.3-.3-.2-.9.2-1.5.9-1.6 1.5-1.3.8.4m25.2 9.7c.8 2.9 4.3 15.4 7.8 27.8l6.4 22.5-8 .3c-4.4.2-8.1.1-8.3-.1-.8-.7-.9-55.7-.2-55.7.4 0 1.4 2.4 2.3 5.2m228.8-2.8c10.5 1.7 18.7 4.3 18.6 5.9-.2 4.4-2.8 14.2-3.6 14-.6-.1-8.2-.5-16.9-.9l-15.9-.7-3.3 2.7c-7.3 6.2-3.4 8.2 17.3 8.9 8.8.4 17 .9 18.2 1.3 1.8.5 2.2 1.5 2.5 5.9l.3 5.3-16 3.9c-8.9 2.2-17.3 4.8-18.8 5.8-3.5 2.3-3.7 6.8-.4 9 2.1 1.3 3.8 1.2 19.2-2 9.3-1.9 17.4-3.5 18-3.5s3 3.9 5.4 8.7c6 12.1 10.4 18.8 17.4 26l6 6.2-2.8 1.1c-1.5.6-4.7 1.5-7 2-7.7 1.7-32 8.9-42.5 12.5-22.1 7.7-40.7 18.5-47.8 27.8-9 11.8-11.4 16.9-13.2 28.6-1.2 7.2.1 13.5 4.7 22.5l2.6 5.1-5.8 5.2-5.8 5.2-1.7-2.2c-1-1.2-4.1-3.8-6.9-5.7-4.1-2.8-5.2-4.2-5.6-7-1.8-11.4-3-16.6-6-25.7-1.9-5.5-4.9-13.2-6.9-17-5.5-11-7.9-20.1-6.7-25.4 2.7-11.5.6-18.1-7.2-23.1-4.8-3.1-5.7-3.3-13.8-3.3-7.8 0-9 .3-13.5 3.1l-4.9 3 3.6-18c5.1-25.4 9.4-35.5 22.4-52.1 7.2-9.3 12.4-14.2 20.5-19.4 9.6-6.3 28.8-11.2 56.5-14.4 8.1-1 31.9-.5 39.8.7m-254.8 12.4c-.3.3-1.1 0-1.8-.7-.9-1-.8-1.1.6-.5 1 .3 1.5.9 1.2 1.2m-9.3.2c.7 0 .6.5-.2 1.4-1.4 1.8-3.7 1.1-3.7-1 0-.9.6-1.3 1.4-.9.8.3 1.9.5 2.5.5m3.6 14.4c-1.1 2-1.1 2-1.9.1-1.4-3.7-1.1-4.7 1-3.3 1.6 1 1.8 1.6.9 3.2m4.2-.9c.7.9.8 1.5.2 1.5-.5 0-1.2-.7-1.6-1.5-.3-.8-.4-1.5-.2-1.5s.9.7 1.6 1.5m-9 2.5c0 .5-.4 1-1 1-.5 0-1-.5-1-1 0-.6.5-1 1-1 .6 0 1 .4 1 1m18.5 3c.3.5.1 1-.4 1-.6 0-1.1-.5-1.1-1 0-.6.2-1 .4-1 .3 0 .8.4 1.1 1m-6.4 5.3c1.2 2.2 1.2 2.2-1 .3-1.1-1.1-2.1-2.3-2.1-2.8 0-1.4 1.9.1 3.1 2.5m4.6 9.9c-.3.7-.5.2-.5-1.2s.2-1.9.5-1.3c.2.7.2 1.9 0 2.5M236 446c0 .5-.2 1-.4 1-.3 0-.8-.5-1.1-1-.3-.6-.1-1 .4-1 .6 0 1.1.4 1.1 1m-10 3.6c0 .2-1.2.4-2.6.4s-2.3-.4-2-.9c.6-.8 4.6-.4 4.6.5m114.9 15.9c-1 3.3-2 7.2-2.3 8.7l-.6 2.8h-31.3c-36.3.1-153.4.1-168.5 0h-10.3l.3-8.9.3-8.8 107.1.1 107 .1zm-4.5 22.6c-.3.6-.9 4.6-1.3 8.8-.5 6-.9 7.5-2.1 7.3-.8-.2-9.6-.6-19.5-.9-21.2-.6-38.2.6-67 4.8-38.6 5.6-42.9 6-64.2 6.8-19.4.8-21.6 1.1-26 3.2-6 3-9.3 7.8-9.3 13.4 0 4.2.3 4.8 11.5 22 3.7 5.6 5 11.9 6.1 28.3l.7 10.4-5.9-.5c-3.2-.3-11.1-.9-17.4-1.2l-11.5-.7.2-30.7c.1-16.8.2-39.8.2-51.1l.1-20.5 103.1-.3c76.9-.2 102.9 0 102.3.9m29.1 8.9c.3.5-.1 1-.9 1-.9 0-1.6-.5-1.6-1 0-.6.4-1 .9-1 .6 0 1.3.4 1.6 1m2.9 8c4.3 1.6 5.5 5.5 5.5 17.6 0 12.2.2 12.9 8.4 31.4 6.3 14.4 8.3 20.6 9.3 29.2l.7 6.1-2.9-.6c-1.6-.4-8.1-1.2-14.4-1.8-9.9-1.1-12.8-1-21.3.4-23.8 4.1-43.2 14.3-52.5 27.6-4.5 6.3-8.8 15.8-11.9 25.6-2.5 8.3-2.6 39.1-.1 47.8 1.5 5.3 1.5 5.8 0 6.6-1 .5-5.2.4-9.7-.1-4.4-.5-15.2-.7-24-.5-16.6.6-21.7 1.5-38.9 7.1-4.4 1.5-10.2 2.6-13.1 2.6-4.5 0-5.3-.3-5.8-2.1-.6-2.3-.3-3.4 4-12.9 1.6-3.6 3.6-8.7 4.3-11.3l1.3-4.8-4.6-6.7c-6.9-10.2-12-21.2-17.5-37.7-6.3-18.7-8.9-31.1-10.2-49-.6-7.6-1.6-16-2.2-18.5-1.3-5.5-5.3-13.5-10.7-21.5-4.6-6.7-4.9-8.4-2.3-10.8 2.7-2.5 10-3.5 28.7-4.1 18.8-.7 31.4-1.8 44.9-4.1 31.8-5.5 37.6-5.9 76.3-6 37.1 0 37.1 0 40-2.3 9.5-7.7 13.5-9.2 18.7-7.2m487.1 2.1c7.7 1.1 15.9 2.3 18.3 2.6 2.3.3 4.2.8 4.2 1.2 0 .3-1.1 4.1-2.5 8.4s-2.5 9.3-2.5 11.2c0 4.8-2.6 6-13 5.9-6.9 0-10.3-.6-18.2-3.3l-9.8-3.3.5-5.2c.3-2.8.7-8.6 1.1-12.8l.6-7.8 3.6.5c2.1.3 10 1.5 17.7 2.6m4 64c4.4.6 8.8 1.1 9.9 1.1 1.7-.1 1.8.5 1.2 8.1-.3 4.5-.8 9.5-1 11.2-.3 1.6-.7 5.2-1.1 8-.3 2.7-.8 6.2-1.1 7.6l-.5 2.6-9.7-3.7c-5.3-2.1-14.3-5.3-20-7.1-9.1-3-10.2-3.6-9.8-5.4.3-1.1.8-5.6 1.1-10s1.1-9.6 1.6-11.5l1.1-3.5 10.1.7c5.6.5 13.8 1.3 18.2 1.9m-471.8 28.5c10.7 3.5 20.7 8.2 22.1 10.4 1.1 1.7.5 3.1-4.6 10.7-10.7 16-13.5 20.7-20.4 34.8-3.8 7.7-7.6 15.6-8.6 17.5-1.4 2.8-3.1 4-9.6 6.8-25.6 11-46 30.3-58.7 55.4-5.1 10.1-9.6 22.7-11.5 32.1-1.9 9.7-1.5 9.3-11.9 13.1l-6.7 2.4.7-5.6c.4-3.1 1.1-6.6 1.6-8 1.2-3.2-.5-6.2-3.6-6.2-3.5 0-6 5.1-8.9 18.2-.6 2.7-4.6 4.8-9.2 4.8-2 0-2.4-.5-2.4-2.8 0-3.8 2.7-13 5-16.7 1.8-3.1 2-6.9.4-8.5-1.4-1.4-5.1-.1-6.9 2.6-1.9 2.9-4.5 12.7-4.5 17.1 0 4.2-1.1 4.1-5.7-.1-2.9-2.6-3.7-4.1-3.7-6.8 0-5.1 4.9-14.2 10.6-19.8 4.7-4.6 17.3-12 20.4-12 3 0 21.7-9 27.9-13.5 11.7-8.3 13.8-14.3 8.2-23.1-3.1-5-6.4-13.8-8.7-23.5-1.5-6.6-1.7-9.5-1-20.6.5-7 1.6-14.8 2.5-17.1 8.8-24.4 32.1-41.9 58.5-44.1 12-1 20.4-.2 28.7 2.5M157 603c5.2.6 9.8 1.4 10.1 1.8.4.4 2.1 5.9 3.9 12.2 6 21.5 15.4 45.3 21.6 55.2 1.3 2.1 2.4 4.6 2.4 5.5 0 1-1.8 5.6-3.9 10.2l-3.8 8.4-7.6 2.8c-10.5 3.8-25.1 11.6-30.3 16.2-4.1 3.6-4.4 3.7-4.4 1.6 0-56.7-5.9-87.2-19.7-102-5.3-5.7-14.6-10.9-19.5-10.9-2.8-.1-3-.2-1.5-1.1 1-.6 3.9-1.4 6.4-1.7 5.5-.8 33.3.2 46.3 1.8m791.8 10.5c10.5 3.1 18.4 12 22.3 24.8 1.9 6.2 2.2 9.3 2 22.5-.2 16.7-.9 21.9-4.1 30.5-4.1 10.8-11.3 15.9-40.5 28.5-23.4 10.1-40.5 17.2-41.1 17.2-.3 0 .6-1.5 2-3.3 3-3.9 6.7-12.1 8.7-19.2.9-3.3 1.4-9.7 1.3-18.5 0-12.1-.3-14.2-2.7-20.3-4.9-12.5-14-22.6-25-27.7-6.4-3-20.5-6-28.6-6l-4.6-.1 5-2c2.8-1.2 10.2-4.5 16.5-7.4 30-13.7 53.3-19.8 77.6-20.4 3.3 0 8.3.6 11.2 1.4m-843.1 2c10.6 3.1 18.6 14 22.6 30.5 4.5 18.7 5.2 26.3 5.1 59.5-.1 17.6-.7 39.4-1.4 48.5-2.4 31.4-1.3 59.4 2.6 65.7 2.8 4.6 28.1 10.5 60.9 14.3 9.4 1 20.8 2.6 25.5 3.4 4.7.9 9.9 1.6 11.6 1.6s3.4.3 3.7.6c.3.4-1.8 3.4-4.9 6.7-7.8 8.6-10.4 14.5-10.6 23.7-.1 4.1.2 8.5.6 9.8.8 2.3.6 2.3-3.6 1.8-2.3-.3-11.5-1.3-20.3-2.1-8.8-.9-20.3-2.2-25.5-3s-13.6-1.9-18.6-2.5c-33.9-3.8-61.4-9.9-69.5-15.4l-3.6-2.5-1.1-11.8c-.7-6.5-1.5-14.7-1.9-18.3s-.7-31-.7-61l-.1-54.5-5.4-7.5c-7.6-10.4-9.8-15.1-12.1-25.5-2.3-10.8-2.5-19.4-.5-29.5 2.8-14.4 6.3-21.9 12.6-27.4 6.7-5.7 13-7.7 22-7.1 4.2.3 9.9 1.2 12.6 2m721.7 15.8 5.9 1.2-7.4 5.5c-4.4 3.2-9.2 5.9-11.9 6.6-2.5.6-5.6 1.4-6.9 1.8-2.2.8-2.3.6-1.6-2.5.4-1.9 2.6-5.8 4.9-8.6 4.6-6 6-6.3 17-4m29.1 22.8c16.1 3.7 27.1 14.7 31 31 4.3 18.4-.6 35.5-14.2 50-3.7 3.8-9.6 8.8-13.2 10.9-8.7 5.2-14.8 11.5-15.5 16-.3 1.9-1.5 15.9-2.6 31-2.2 31-3.7 48.7-5 57.5-.5 3.3-1.6 12.5-2.5 20.5-3.2 30.5-5.7 46.6-7.5 50-1.5 2.7-11.7 7.6-18.9 9-10.4 2-59.6.9-94.6-2-13-1.1-19-1.6-33-2.5-4.9-.3-21.1-1.7-36-3-14.8-1.3-33.5-2.9-41.5-3.5s-19.2-1.5-25-2-15-1.2-20.5-1.5c-5.5-.4-19-1.5-30-2.5-11-1.1-25.6-2.4-32.5-3s-21-2-31.5-3c-10.4-1.1-29.6-2.9-42.5-4-23.2-1.9-49.3-4.6-74.5-7.5-7.1-.9-19.5-2.2-27.5-3.1-8-.8-17.2-1.8-20.5-2.2l-6-.7 12-7.9c11.5-7.5 22.9-16.1 36.3-27.4l6.4-5.3 9.1.6c5.1.3 16.4 1.3 25.2 2.1s26.1 2.3 38.5 3.4 27 2.4 32.5 3 20.1 1.9 32.5 3 31.7 2.9 43 4 26.6 2.5 34 3c7.4.6 20.5 1.7 29 2.4 16.3 1.5 22.5 2.1 69.5 6.1 16 1.3 33.7 2.9 39.5 3.5 31 3 47.8 4 50.1 3.1 2.2-.8 2.8-2.1 4.2-8.3 2.5-11.6 5.6-41.8 5.8-57.3.2-18.1 3-42.6 8.9-77.5 4.1-24.1 12.1-50.6 18.6-61.8 3.9-6.6 11.5-14.4 17.1-17.4 13.4-7.3 36.2-10.2 51.8-6.7m-79.8 15.6 2.1 1.4-2.5 5.7c-7.3 16.5-15.7 44.9-17.8 60.2-.9 6.9-2 14.5-2.4 17l-.6 4.5-16.5.9c-11.2.6-22 .5-33.5-.3-9.3-.7-26.6-1.9-38.4-2.6-11.7-.8-25.9-2-31.5-2.5-5.5-.6-26.3-1.3-46.1-1.6-38.9-.5-45.3-1.1-55.2-5.1-12.1-4.8-14.3-11.5-8.3-25.6 8.2-19.7 24.5-34.4 51.3-46.4 6.5-2.9 12-5.3 12.1-5.3.2 0 .9 1.9 1.6 4.2.7 2.4 1.9 6.4 2.7 9 1.9 6.2 8 13 14.1 15.6 13 5.6 33.4 5.4 45.7-.4 2.8-1.3 9.5-6.4 15-11.3 15.5-14 17.1-14.4 41.3-11.1 8.9 1.2 18.8 2 22 1.7 6.6-.4 19.5-5 28.5-10l6.2-3.5 4 2c2.2 1.2 5 2.7 6.2 3.5m-482.3 37.2c5 1.2 6.4 2.6 5 4.9-1.8 2.9-15.6 10.5-25.5 14.1-18.1 6.5-22.1 8.4-27.7 13.6l-5.5 5-15.1-.3c-26.1-.4-42.5-2-61.6-5.8-10.2-2.1-12.4-3.3-12.8-6.8-.6-4.6 6.7-10.6 21.2-17.6 6.7-3.3 13.2-6 14.4-6s2.9 1.1 3.8 2.5c4.3 6.6 20.8 6.4 38.8-.6 4.5-1.8 10.6-3.5 13.6-4 6.9-1 46.1-.2 51.4 1m658.2 22.8c-.3 4.3-.8 13.4-1.2 20.3-.3 6.9-.9 17-1.4 22.5s-1.4 15.4-1.9 22c-1.7 19.5-5.3 50.9-6 52.2-1.4 2.6-44.1 31.4-65.6 44.2-33.4 19.9-36.8 21.8-36.2 19.5.3-1 .9-4.6 1.2-7.9.8-7.4 6.2-49.6 7.5-58.5 1.1-7.2 1.8-15.9 3.5-42.5 1.7-26.5 2.7-39.1 3.3-39.7.4-.4 11.3-4.9 24.2-10.1 28.2-11.4 58.3-23.6 66.5-27.1 3.3-1.4 6.2-2.5 6.4-2.6.1 0 0 3.5-.3 7.7M151 745.5c3.7 1.9 12.9 4.1 24.5 5.9 17.7 2.7 26.1 3.4 45.3 3.8l11.3.3-.6 3.5c-3.1 16.2-2.3 20.4 5.2 27.7 3 2.8 6.8 5.8 8.6 6.6 8 3.8 23.6 3.9 38.4.2 3.6-.9 6.7-1.4 7-1.2 1.3 1.4-1.3 8.5-4.1 11-3.6 3.2-32.4 24.5-34.6 25.6-2.1 1.1-23.4-1.3-61.9-6.9-16.3-2.3-15.5-2.2-32-5.6-12-2.5-13.4-3-14.4-5.4-1.4-3-1.6-48.4-.3-60.3.9-8.5.9-8.6 7.6-5.2M554 762c5.8.5 20 .9 31.5 1 11.6 0 27.3.5 35 1 7.7.6 30 2.2 49.5 3.6s46 2.9 58.9 3.4c12.8.5 23.5 1.1 23.7 1.2.2.2-.1 2.2-.6 4.3-.5 2.2-1.1 5.2-1.4 6.6-.4 1.6-1.9 3.5-3.9 4.7-3.3 1.9-4 1.9-24.8.6-11.8-.7-37.4-2-56.9-2.9s-41.3-2-48.5-2.5c-7.1-.5-23.3-1.7-36-2.6-12.6-.8-28.2-1.9-34.5-2.4s-21.8-1.6-34.5-2.5c-27.8-1.9-27.9-1.9-24-2.9 1.7-.4 11.6-3.4 22-6.7 21-6.5 18.1-6.3 44.5-3.9m-94 19.9c9.6 1.1 20.9 2.2 25 2.6 4.1.3 14.5 1.2 23 2 18.5 1.6 49.3 3.7 98 6.5 10.2.6 24.8 1.5 32.5 2s22.8 1.5 33.5 2c10.7.6 30.1 1.8 43 2.6 13 .7 25.9 1.4 28.8 1.4h5.2l-.1 8.2c0 13.1-3.5 53.4-4.9 58.9-1 3.7-3.2 5.5-5.2 4.3-.6-.4-8.3-1-17.2-1.5-8.8-.4-18.6-1-21.6-1.3-5.3-.5-18.8-1.6-43.7-3.6-12.7-1-47.9-4.1-73.8-6.5-8.8-.8-20.9-1.9-27-2.5-22.4-2.1-33-3.1-36-3.5-2.6-.4-24.9-2.5-43.5-4-3.6-.3-10.5-1-15.5-1.5-4.9-.6-27-2.6-49-4.6-38.9-3.4-52.3-4.9-53.1-5.7-.2-.2 3.7-6.5 8.6-14 10.4-15.6 17.5-22.6 29-28.6 11.4-6 30.9-12.5 43-14.4 1.4-.2 2.7-.5 3-.6.3 0 8.4.8 18 1.8"/><path d="M582 296.5c-.9 1.1-1.1 3.5-.6 8.8 1.3 13.9 1.7 12.7-3.7 14.7-15.2 5.8-15.2 14.4 0 11.9 2.6-.4 7.2-.8 10.1-.8 2.9-.1 6.2-.6 7.3-1.1 2.8-1.6 2.4-7.3-1.2-17.7-3.9-11-6.4-15.9-8.4-16.7-2.2-.8-2.1-.8-3.5.9m168.3 19.3c-4.4 2.4-26.4 22.5-28.5 26l-1.8 3 4 4c4.5 4.5 23.9 17.2 26.2 17.2.8 0 2.2-.8 3.1-1.8 1.5-1.6 1.4-2.1-.2-5.8-1-2.2-4.4-6.7-7.5-10.1l-5.7-6.2 6.3-6.8c12.5-13.4 13.9-16.1 10-19.6-2.2-2-1.9-2-5.9.1m-187.1 61.5c-5.7 6-2.6 19.8 5.6 25.2 5.7 3.7 9.8 4.5 16.3 2.8 9.9-2.5 18.3-10.4 17.7-16.8-.3-2.6-.7-3-3.6-3.3-2.6-.3-4.1.4-7.2 3.2-4.4 4-11 7.6-13.8 7.6-3.3 0-6.1-4.2-7.7-11.9-.8-4-1.8-7.7-2.1-8.2-.9-1.5-3-1-5.2 1.4m95.3 20c-2.7 4.2-3 10.8-.6 16.3 2.8 6.2 4.7 8.2 9.6 10.5 8.7 4 19.5 1.6 28-6.2 5.7-5.3 7.6-10.6 5.1-14.4l-1.7-2.6-5.2 4.7c-7.4 6.6-12.8 10.1-16.8 10.9-2.9.5-3.8.2-6-2.2-3-3.2-4.9-8.2-4.9-12.9 0-2.3-.7-3.8-2.2-4.8-3-2.1-3.5-2-5.3.7m-54.7 19.4c-2.4 2.6-2.3 5.5.4 13 2 5.6 2.1 6.7 1 12-.9 4.5-1.9 6.5-4.7 9-1.9 1.8-4.1 3.3-4.9 3.3-2.7 0-7.5-5.1-10.2-10.8-2.9-6-5.2-9.2-6.6-9.2-2.1 0-4.8 4.2-4.8 7.5 0 7.2 8.3 18.8 15.6 21.5 3.4 1.3 10.4 1.3 14.4-.1 2.7-1 3.4-.9 4.1.3.4.8 4 2.9 8 4.8 6.2 2.8 7.9 3.2 12.8 2.7 3.2-.2 7.3-1.3 9.2-2.2 5-2.6 11.9-8.4 14-11.9 3.3-5.4 2.1-11.6-2.2-11.6-1 0-4.5 3.1-7.9 7-6.7 7.5-8.3 8.4-14.5 8.2-3.2-.1-4.7-.9-7.2-3.7-5.8-6.2-4-11.2 8.9-25.1 1.5-1.7 3.2-4.5 3.8-6.2.7-2.8.6-3.4-1.3-4.7-3-1.9-12.9-4.4-20.2-5.2-5.1-.4-6.3-.2-7.7 1.4m15.9 9.3c1.5 0 2.2.4 1.8 1.1-.8 1.2-8.5.2-10-1.3-.7-.7.1-.9 2.4-.4 1.8.3 4.4.6 5.8.6m38.8 277c-1.8 2.8 5.5 10 8.9 8.7 2.2-.9 2-6-.2-8-2-1.8-7.7-2.3-8.7-.7m73 14.1c-2.3 2.8-2.4 3.4-1.2 5.3 1.7 2.6 3.5 3 7 1.7s4.6-5.5 2.2-8.1c-2.6-2.8-4.9-2.5-8 1.1"/></g></svg>