<svg xmlns="http://www.w3.org/2000/svg" width="1365.333" height="1365.333" preserveAspectRatio="xMidYMid meet" version="1.0" viewBox="0 0 1024 1024"><g fill="#000" stroke="none"><path d="M98.5 60c-1.1.4-3.1 2-4.5 3.5l-2.5 2.7-.5 264.2c-.5 276.7-.4 267.6-4.4 267.6-.7 0-2.7.8-4.7 1.8-1.9 1-5.7 2.6-8.3 3.6-6.7 2.6-16.1 12.2-20.3 20.6-6 12-7.8 21.4-7.7 39.5 0 14.6.2 16.7 2.7 24.1 2.7 8.2 7.8 17 13.5 23.5l3.2 3.6-.2 57.9c-.4 92.4.7 96.8 25.7 103.2 4.4 1.1 10 2.4 12.4 2.7l4.4.7-.6 4.7c-.3 2.5-1.1 12.8-1.8 22.7-1.4 20-1.2 21.2 4.7 25 6.2 4.1 28.3 2.1 33.9-3 1.6-1.5 4.1-7.4 8-19.6 7.8-24.3 7.3-23.2 10.4-22.6 2.9.6 35.6 4.1 53.1 5.7 11.4 1 18.1 2.8 21 5.4 4.6 4.2 23.4 5.8 33.1 2.9 4.6-1.4 6.9-1.5 15.4-.5 5.5.6 15.6 1.6 22.5 2.1 6.9.6 18.8 1.7 26.5 2.6 12.9 1.4 33.8 3.5 85 8.5 11 1 35.5 3.3 54.5 4.9s41.7 3.7 50.5 4.5 23.7 2.2 33 3c9.4.9 24 2.2 32.5 3 33.9 3.3 124.7 10.2 145.9 11.2 15.8.7 15.5.5 19.9 13.1 6.3 18.1 9.6 25.5 12.4 28.8 4 4.5 12 7.4 20.7 7.4 8.1 0 12.6-1.3 16.4-4.8 4.4-4.1 5.1-8.7 3.8-24.2-.7-7.4-1.3-14.6-1.4-15.9-.2-2.2.4-2.5 6.1-3.7 8.3-1.7 14.8-4.8 26.8-12.6 5.4-3.6 14.4-9.1 19.9-12.3 5.5-3.3 14.1-8.4 19-11.6 5-3.1 11.8-7 15.2-8.7l6.2-3.2.6 3.3c1.3 6.4 4.9 18.3 6.3 20.4q3.6 5.7 19.5 5.1c7.8-.2 10.1-.7 12.4-2.4 2.6-1.9 2.8-2.7 3.1-9.5.2-4.1-.2-16.1-.8-26.7l-1.2-19.3 4.1-3.6c2.3-1.9 5.6-6.3 7.3-9.7 3.1-6.1 3.6-8.9 5.3-28.6.3-3.6 1.2-13.3 2-21.5 2.5-25.9 3.4-37.3 4.6-61l1.2-23 5.2-5.5c2.9-3.1 6.2-7.4 7.4-9.7 5.3-10.5 8.6-31.4 7.6-48.8-1.1-19-5.6-30.5-16.2-41.3l-6.4-6.6 2-10.5c3-15 4.1-22.3 9.6-59.1 2.3-15.5 4.4-32.7 6.3-50.1 5.1-48.1-5.8-79.2-32.9-93.4-10-5.2-23.7-9.3-36.7-11-16.1-2-53.1-3.6-81.2-3.6-20.3.1-47.7-1.3-48.9-2.5-.2-.2.4-8.8 1.3-19.1 1-10.4 1.8-28 1.9-39.3.2-19 0-20.8-1.9-25.1-1.2-2.5-3.9-5.9-6-7.5-7.5-5.7-19.6-3.1-35.3 7.5-6.2 4.3-12.8 9.9-29.4 25.4l-9.4 8.7-4.4-1.9c-11.9-5.3-44.5-8.6-56.9-5.9-3.6.8-7.1 1.7-7.8 1.9-.9.3-2.5-2.5-4.7-7.9-6-14.7-19.2-37.5-27.1-46.9-7.9-9.2-19.6-12.9-27.1-8.4-3.4 2.1-7.6 7.8-11.5 15.6-3.9 7.7-9.4 25.6-16.2 52.7l-6.2 24.7-9 9.3c-8.9 9.2-16.1 19.8-18.4 27-1.1 3.5-1.4 3.8-4.8 3.8-2-.1-6.6-.7-10.2-1.5-3.6-.9-14.3-1.8-23.7-2.2l-17.3-.6V240.8c0-151.4.1-147-4.5-150.8-1.6-1.3-21.4-1.5-162.9-1.7-88.7-.1-162.5.1-164.1.5-2.2.6-3.3 1.8-4.2 4.3-.9 2.6-1.2 61.7-1.2 249.3 0 135.2-.3 246.1-.6 246.4s-4.1.7-8.5 1l-8 .5.1-253.4c.1-139.4.4-256.3.8-259.9l.6-6.5 183.5-.2c100.8-.2 183.7 0 184.2.5.4.4 1 66.2 1.3 146.2s.8 148.3 1.1 151.8c.6 6.5 1.9 8.2 6.2 8.2 4.4 0 4.4 0 4.1-62.7-.1-32.9-.2-100.8-.3-150.8-.2-102.6.1-98.4-7.1-101.6-3.8-1.7-14.7-1.8-190-2.2-102.3-.3-186.9-.2-188 .3m376.8 2.7c7.5 3.3 7.1-2.3 7.3 100.3.1 50.3.2 118.2.3 150.8.3 61.8.2 62.2-3.9 62.2-2.6 0-3.8-2-4.4-7.5-.3-2.8-.8-70.9-1.1-151.5s-.9-146.8-1.3-147.2c-.5-.5-83.8-.7-185.2-.5l-184.5.2-.6 7c-.4 3.8-.7 121.2-.8 260.9l-.1 253.9 9-.5c5-.3 9.3-.8 9.6-1 .2-.3.4-111.2.4-246.5 0-178.9.3-246.9 1.1-249.2.6-1.8 2.2-3.6 3.4-4.1 2.6-1 303.5-1.1 317-.1 8.8.6 9 .7 11.2 4l2.3 3.4v287.4l17.8.6c9.7.4 20.6 1.3 24.2 2.1 3.6.9 8.4 1.5 10.7 1.6 3.8 0 4.2-.3 4.8-2.9 1.3-5.8 9.9-18.6 18.6-27.6l8.9-9.2 6.4-25.4c9.6-38.1 13.8-50 21.8-61.7 6-8.7 13.4-10.4 22.4-5.3 5.9 3.4 11 9.3 18.2 20.7 7 11.3 16.7 29.9 18.8 35.9.9 2.7 2.1 5.3 2.7 5.7.5.3 2.8-.1 5.1-1 6.4-2.5 32.8-2.1 46.6.7 5.8 1.2 12.2 3.1 14.3 4.2 2.1 1 4.3 1.9 5 1.9s7.7-6.2 15.7-13.6c21.6-20.2 36-29.7 47.2-31 4.8-.5 5.7-.3 9.5 2.5 2.3 1.7 5.3 5 6.5 7.3 2.2 4.1 2.3 5.3 2.1 24.3-.1 11-.9 28.9-1.9 39.8-.9 10.8-1.5 19.9-1.3 20.1 1.3 1.2 29.5 2.6 49.4 2.5 27.2-.1 66.7 1.7 81.7 3.6 47.6 6.2 70.6 33.3 69.7 81.9-.2 7.6-.7 17.2-1.1 21.5-1.9 17.4-4 34.6-6.3 50.1-5.4 36.3-6.5 43.4-9.6 59.5l-2.2 11 6.4 6.5c12.6 12.9 16.2 23.4 16.2 47.5 0 25.4-4 39-14.6 50.3l-5.4 5.7-1.2 23.5c-1.2 24-2 35.2-4.6 61.5-1.6 16.2-2.1 21.7-3.1 34-.8 10-5.3 19.5-11.5 24.8l-4.1 3.6 1.2 20.3c.7 11.2 1 23.2.9 26.8-.4 6-.6 6.6-3.8 8.7-2.9 2-4.7 2.3-12.3 2.3-14.9 0-17.8-2.5-22-19.3-1.1-4.5-2.3-8.5-2.7-8.9-.3-.4-3.1.4-6.1 1.8-5.1 2.4-12 6.5-45.3 27-24.7 15.2-26.6 16.3-31.8 17.8-2.9.9-6.5 1.6-8 1.6s-3 .3-3.2.7c-.2.5.2 7.7 1 16.2s1.2 16.9.8 18.7c-.7 4.2-5 9.3-9.2 11-5.4 2.3-17 1.8-22.8-1-8.4-3.9-10.8-7.8-18.8-30.4-6.1-17-4.3-15.5-19.9-16.3-25.7-1.4-115.7-8.3-147.8-11.4-8.5-.8-23.1-2.1-32.5-3-9.3-.8-24.2-2.2-33-3S492 918.6 473 917s-43.5-3.9-54.5-4.9c-51.2-5-72.1-7.1-85-8.5-7.7-.9-19.6-2-26.5-2.6-6.9-.5-16.9-1.5-22.2-2.1-8.5-1-10.6-.9-16.3.6-4.8 1.3-8.7 1.7-15.2 1.3-8.6-.5-10.6-1.2-19.7-6-2.8-1.5-7.5-2.5-16.5-3.4-25.7-2.5-52.7-5.5-55.7-6l-3.1-.6-6.7 20.6c-7.1 22.1-7.9 23.4-15.5 25.7-5.7 1.7-18.4 2.3-22.3 1-1.9-.6-4.8-2.5-6.3-4.1l-2.9-3 1.2-17.8c.7-9.7 1.6-20.2 1.9-23.3l.5-5.6-6.9-1.1c-17.3-2.9-26.4-7.6-30.3-15.8-4.6-9.8-5.3-22.2-5.2-87.4l.1-59.6-5.6-7.4c-11.4-15.2-14.8-26.7-14-47.5.6-15.3 3.1-25.8 8.4-35.5 4.4-7.9 13.3-16.8 19.3-19.4 12.1-5.2 16-7.2 16.7-8.6.5-.8 1-120.2 1.3-265.3l.5-263.9 3.7-3.3 3.7-3.4 185.8.5c170 .4 186.1.6 189.6 2.1"/><path d="M438.9 97.4c-.2.3-69.4.6-153.7.7-84.2.1-153.2.5-153.2.8 0 .5 213.2.4 282.7-.2 28.5-.2 29.2-.1 29.7 1.8.8 2.8.7 102.3-.1 138.3l-.6 30.2h-31.4c-25.7 0-31.3-.2-31.3-1.4 0-.7 1.2-6.9 2.6-13.7 1.7-8 2.7-15.9 2.8-22.2.1-9.6 0-9.9-2.7-12.3-2.8-2.4-3-2.4-23.8-2.4h-21l6.5-4.5c3.6-2.4 8.7-5.5 11.5-6.9 2.7-1.4 5.2-3 5.6-3.6.3-.5 2.8-1 5.4-1 2.7 0 8.4-1.2 12.7-2.6 26.5-8.6 45.5-31 42.4-50-1.4-8.3-2.9-10-9.3-10.8-15-1.9-33.6 5.9-45.6 19-7.1 7.7-13.4 20.7-13.9 28.7-.2 3.4-.9 6.8-1.6 7.6-1.3 1.7-9.6 7.1-10.8 7.1-.4 0-.8-2.3-.8-5 0-4.8.2-5.2 5.8-10.5 6.3-5.9 12.1-16.1 16.9-29.8 2.7-7.8 4.1-23.6 2.9-32.1-.9-5.9-4.1-7.7-13.2-7.8-8.2 0-16.5 3.8-24 11.1-14.5 14-16.5 38.6-4.7 56.4l4.5 6.8-.4 9.9c-.2 5.4-.7 10.2-1 10.6-1.6 1.5-10.8-10.9-10.8-14.6 0-4.8-3-14.5-7.1-22.8-7.9-16.1-24.3-28.2-38.2-28.2-7.3 0-9.9 2.7-10.5 10.9-1.3 18 9.4 38.3 24.1 45.7 6.2 3.2 15.3 6.4 18 6.4 1.1 0 3.9 1.8 6.3 4s5 4 5.8 4 1.8.5 2.1 1.1c.4.6-.2.9-1.7.8-1.2-.1-8.7-.1-16.6-.1-14 .2-14.3.2-15.1 2.6-1.4 3.4.6 23.3 3.5 35.4 3.6 15.3 4.2 14.2-7.5 14.2-10.8 0-11.5-.3-12.4-6-1.7-10.2-7.1-39-10.6-57-5.2-26.1-8.4-39.7-10.9-45.4-2-4.4-2.1-4.4-7.9-5.1-3.2-.3-7.6-1-9.8-1.3l-4-.8-.5-19.1c-.6-21.7-1.1-23.3-8.5-26.1-5.2-2-29.8-2.3-31.7-.4-.9.9-1.5 5.8-1.8 14.5l-.5 13.2-7.3-.3c-4.3-.1-8.2-.8-9.5-1.7-2.6-1.7-13.4-4-23.2-5-11.1-1.2-10.6-.4-10.3-16 .1-7.4 0-13.7-.3-14-.3-.2-.6 6.1-.8 14-.2 16.8-.9 15.7 10.9 16.9 10.9 1.1 18.3 2.7 21.8 4.7 2.3 1.3 5.7 1.9 11.5 2.1l8.2.3.5-13.2c.3-8.8.9-13.6 1.8-14.5 1.8-1.8 24.4-1.8 29.5 0 2 .8 4.8 2.8 6.2 4.6 2.4 3.1 2.5 3.8 2.7 22.2l.3 18.9 5 .7c2.8.4 7.2 1 9.8 1.3 4.7.6 5 .8 7.2 5.8 1.3 2.8 3.3 9.2 4.5 14.1 3.6 16.3 13.3 66.5 16.7 86.6 1.2 7 1.2 7 13.3 7 13 0 12.4 1.1 8.6-15.2-2.9-12.2-4.9-32.3-3.5-35 .9-1.6 2.6-1.8 14.7-2 7.5 0 14.9 0 16.5.1 3.3.3 3.8-2.4.6-3.4-1.2-.4-3.9-2.3-6-4.2-2.7-2.4-5.5-3.8-8.7-4.4-7.7-1.5-20.3-8.1-25.8-13.6-8.8-8.8-14.4-22.5-14.4-35.5 0-4.6.5-6.2 2.6-8.7 2.3-2.7 3.2-3.1 7.8-3.1 6.5 0 14.5 3.8 22.8 10.7 7.2 6 10 9.7 14.9 19.6 3.5 7.2 4.6 11.1 6.4 21.9.6 3.9 8.5 13.8 11 13.8 1.8 0 2.9-8.8 2.3-17.7-.4-6-1-7.5-4.7-13.1-4.9-7.2-7.1-14.1-7.1-22.7 0-16.8 8.2-30.5 23.3-38.6 10.6-5.6 22.9-3.8 24.3 3.7 1.2 6.5-.2 24.5-2.5 30.9-4.3 12.3-11.3 24.5-17 29.7-5 4.6-5.4 5.2-6 10.9-.6 4.8-.5 6.2.7 6.6 1.8.7 6.8-1.7 11-5.2 2.9-2.4 3.2-3.2 3.2-8.5 0-4.9.7-7.2 4.7-15.1 8.6-17.5 25.5-30.5 42.9-33 14.6-2.2 19.5 1.1 19.6 13.5.1 5.5-.4 7.6-3.2 13.3-8.7 17.2-33.9 34.3-50.8 34.3-4.2 0-12.8 4.2-24.9 12.1-8.6 5.6-7.9 5.9 15.6 5.9 20.8 0 21 0 23.8 2.4 2.7 2.4 2.8 2.7 2.7 11.8-.1 5.7-1.2 14.1-2.8 21.7-1.4 6.8-2.6 13.2-2.6 14.2 0 1.8 1.5 1.9 32.3 1.9h32.4l.6-30.8c.9-39 .9-134.9.1-139.1-.5-2.6-1.1-3.1-3.4-3.1-1.4 0-2.9.2-3.1.4"/><path d="M192.7 118.3c-.3.9-.4 31.4-.1 67.9.2 36.5.4 70 .4 74.5v8.3h20l.1-12.8c.9-124.9.9-137-.9-137.7-.9-.4-5.6-.9-10.3-1.2-7.2-.5-8.7-.3-9.2 1m16.5.7 3.7 1.1-.3 61.7c-.2 33.9-.5 67.2-.5 73.9L212 268h-18v-7.8c0-4.2-.2-37.7-.4-74.3-.3-36.7-.2-66.9.1-67.3 1-1 11.5-.7 15.5.4m139.8 7.2c-7.7 2.2-15.8 11.5-20.1 23-1.7 4.6-1.8 6.2-.9 12.1 1.7 10.9 5.2 17.7 9.2 17.7 1.7 0 9.6-11 14.1-19.5 4.1-8.1 7.4-31.8 4.6-33.6-1.7-1-2.4-1-6.9.3m6.3 8.7c-.2 9.4-1.7 16.8-4.6 22.5-3.9 7.9-12.8 20.7-14 20.3-3.7-1.2-7.7-11.1-8-20.1-.5-12.8 15.6-32.6 25.3-31.2 1.2.1 1.5 1.8 1.3 8.5m-225.6 3.8c-.4.3-.7 30-.7 66v65.4l13.5-.3 13.6-.3-.3-57.5c-.1-31.6-.2-60.7-.3-64.5v-7l-5-.1c-5 0-15.5-1.2-18.6-2-.8-.2-1.8-.1-2.2.3m19.3 2.7 5.5.1v6.5c.1 3.6.2 32.1.3 63.5l.3 57-12.6.3-12.5.3v-64.4c0-35.4.2-64.6.5-64.9.3-.2 3.3 0 6.8.5 3.4.5 8.7 1 11.7 1.1m17.7 5.8c-.8.5-1.1 14.8-1 50 .1 78.2-.2 71.5 2.9 72.2 1.4.4 5.2.4 8.5 0l5.9-.7V147.2l-7.6-.4c-4.2-.2-8.1 0-8.7.4M182 208v59.8l-5.5.7c-9.4 1.1-9.5 1-9.6-11.3-.4-37.8-.2-107.9.3-108.7.3-.6 3.7-.9 7.7-.7l7.1.4zm216.5-57.6c-9.4 3-12.9 5-18.6 10.3-5 4.7-12.9 15.9-12.9 18.4 0 .8-.4 1.9-1 2.5-.5.5-1.1 2.5-1.2 4.4l-.3 3.5h6.5c5-.1 7.8-.7 12.2-2.8 14.1-6.9 25.3-18.3 28.3-28.9 2.9-10.4.5-11.8-13-7.4m13.1 0c1.1 2.9-2.6 12.1-7.1 17.9-8.3 10.5-25 20.7-33.9 20.7-2.5 0-4.7-.4-5.1-.9-.9-1.5 3.1-10.7 7.4-16.9 7-10.4 13.6-15.4 26.1-19.8 7.5-2.7 11.8-3 12.6-1M271 158c0 4 4.6 17.3 7.5 22 4.8 7.6 14 13.9 22.7 15.5 4.9.9 5.6-.7 3.3-7.7-5.5-16.9-17.6-30.1-29.7-32.3-3.7-.7-3.8-.7-3.8 2.5m9.8 1.1c3.9 1.9 7.8 5 10.7 8.2 5.1 5.9 12.5 19.8 12.8 24.2.2 2.8 0 3-3.1 2.7-7.8-.6-19.1-9.5-23.4-18.4-5.3-10.8-7.3-19.8-4.5-19.8.8 0 4.1 1.4 7.5 3.1m-57.5 22.1c.6 16.2.9 18.1 8.9 50.3 2.7 11 5.9 23.9 7.1 28.7 1.9 8.4 2.2 8.8 5.1 9.3 1.7.4 5.6.5 8.6.3 4.2-.2 5.5-.7 5.3-1.8-.1-.8-2.7-13.9-5.8-29s-6.9-34.7-8.6-43.5c-1.6-8.8-3.5-18.5-4.2-21.5l-1.2-5.4-6.5-1.2c-3.6-.7-7.1-1.3-7.9-1.3-1.1-.1-1.3 2.5-.8 15.1m9.5-12.6c5.3.8 5.1.5 8.7 19.4 2.6 13.6 14.9 75.7 15.6 79 .3 1.2-.8 1.6-5 1.8-9.3.5-9.7.3-11.9-9-1.1-4.6-4.3-17.3-7-28.3-7.9-32-8.3-34.2-8.9-49.9l-.6-14.9 2.4.6c1.3.3 4.3.9 6.7 1.3M295 231c0 2.2 1.1 8.7 2.5 14.3 1.3 5.6 3 13.3 3.7 17.2l1.3 7h66.8l2.2-10.5c3.1-14.6 5.5-28.2 5.5-30.3 0-1.6-2.6-1.7-41-1.7h-41zm81-1.8c0 1.8-2.9 17.5-5.4 29.3l-2.1 10-32.3.3-32.2.2-.9-2.2c-.4-1.3-1.1-4.6-1.5-7.3-.4-2.8-1.8-9.4-3.2-14.7-1.3-5.3-2.4-11.3-2.4-13.2V228h40c31.3 0 40 .3 40 1.2m-153.4 20.5c1.2 19.2 1.3 19.3 4.5 19.3 3.5 0 3.5 0 .9-11.6-1.1-4.9-2-10.3-2.1-11.9-.2-2.8-.2-2.8-.6-.4-.2 1.4.5 6.8 1.7 11.9 2.4 11.4 2.4 11 .1 11-2.2 0-2.9-3.7-3.3-16.8-.1-4.5-.5-8.2-.9-8.2s-.5 3-.3 6.7m352.6 19c-3.2 4.7-5.8 10.4-9 20.3-5.4 16.8-12.6 46.2-13.7 56.5-.7 5.9-.8 6.1-8.8 14-9.4 9.2-16.8 19.5-19.7 27.5-3 8.3-2.9 8.5 4.8 10.9 9.5 2.9 19.2 8.8 20.8 12.8 1.5 3.4.5 8.3-1.7 8.3-.6 0-5-2.6-9.8-5.9-10.4-6.9-17.4-9.7-19.1-7.6-.6.8-1.2 4.2-1.3 7.7l-.2 6.2 8.5 1.8c15.3 3.2 21 6.2 17.7 9.5-1.5 1.5-2.4 1.5-12.1 0-14.9-2.4-14.8-2.5-14.4 2 .3 3.8.3 3.8 4.8 3.7 2.5 0 7.9-.4 12-.8 7.3-.8 7.7-.7 10.8 1.9 1.8 1.5 3.2 3.1 3.2 3.6 0 2.2-4.2 4.9-7.7 4.9-5.7 0-20.3 2.3-20.3 3.2 0 5.5 12.6 25.7 21.4 34.3 14.6 14.3 37 26.4 56.1 30.4 6.9 1.5 12.2 3.8 12.9 5.7.3.8-.6 2.1-2 3-2.2 1.5-3.5 1.5-11.6.4-14.7-2-28.1-7.4-41.8-16.7-7.7-5.3-6.6-5.4-31.1 1-41.1 10.6-65.7 21.6-80 35.7-7.1 6.9-7.8 8-8.9 13.4-1.8 8.9-1 19 2.3 25.9 5.2 11.4 18.8 21.8 30.3 23.3 4.6.6 5.3.4 5.8-1.4.4-1.1-.3-4.3-1.4-7.2-2-5-2-5.4-.4-7.1.9-1.1 3-1.9 4.5-1.9 2.3 0 3.2.8 4.8 3.8 1.1 2.1 2.2 5.5 2.6 7.5.9 4.6 2.5 4.7 10.7 1 5.7-2.5 5.9-2.7 5.3-5.7-.4-1.7-1.5-4.2-2.6-5.6-3.6-4.6-4.3-6.8-2.9-8.5 3-3.6 9.7 0 12.6 7 .8 2 2.1 3.8 3 4.2 2.3.9 5.4-2.6 5.4-6.1 0-8.8-5-15.8-15.5-21.7-6.9-3.9-8.9-6.7-8-10.9.9-4.1 8.4-9.6 15.3-11.1 4.6-1.1 5.8-1 8.8.5 4.3 2 3.8 3.1-4.3 7.9-2.9 1.7-5.3 3.8-5.3 4.7 0 .8 2.3 3 5.1 4.9 8.9 6.1 14.2 14.7 14.3 23.6.1 4.8-.4 6.9-2.6 10.6-3.2 5.5-7 8.2-20.8 14.9-12.9 6.2-24 8.1-36.1 6.3-8.4-1.3-20.2-6.8-25.9-11.9-2.1-1.9-4.4-3.4-5.2-3.4-1.7 0-21.9 26.6-28.8 38-6.1 10-13.9 25.3-15.1 29.3-1.1 3.9.2 4.1 10.2 1.8 21.6-4.9 57.5-2.6 63.6 4.1 1.7 1.9 1.7 2.1-1.1 4.5-3.2 2.7-2.3 2.7-17.1.2-3.8-.6-14-1.2-22.5-1.2-12.7-.1-17.1.3-24.3 2.1-36 9-61.2 24.9-76.2 48.1-8.4 13-12.3 24.3-17.6 51.1-1.7 8.5-4.5 19-6.2 23.3-2.8 7.3-3.5 8.1-9.1 12-3.4 2.2-10.8 7.7-16.6 12.2-5.8 4.4-14.3 10.8-18.9 14-18.4 13-25.7 22-24.9 31.1.4 4.7 2.9 5.7 4.6 1.9.6-1.4 3-4.5 5.3-7 4.4-4.7 7.6-5.7 9.9-3 1.1 1.3.5 2.7-3.2 8.3-9.8 14.6-10 16.4-2.3 18.1 5.6 1.3 7.5.9 7.5-1.2 0-1.8 5.9-13.9 7.7-16 1.7-1.8 8.3-2.4 8.3-.7 0 .6-1.6 4.9-3.5 9.7s-3.1 8.3-2.6 7.8c1.6-1.7 7.1-15.3 7.1-17.5 0-1.9-.5-2.1-4.7-1.8-4.1.3-5 .7-7 3.7-1.3 1.9-3.3 6-4.4 9.3-1.2 3.2-2.6 6.1-3 6.4-1.2.7-9.9-1.7-9.9-2.8 0-1.4 2.9-6.7 7-12.8 6.3-9.3 6.2-13-.5-13-2.6 0-4.1.9-7.4 4.5-2.3 2.5-4.7 5.6-5.3 7-1.5 3.2-2.8 2.2-2.8-2.1 0-7.6 8-16.8 25.1-28.9 4.6-3.2 13.1-9.6 18.9-14.1 5.8-4.4 13.1-9.8 16.3-11.9 8-5.3 10.6-11.3 15.2-35 6.5-33 13.5-49.1 28.3-64.8 18.7-19.8 52.1-35.1 81.5-37.3 8.5-.7 30.3.9 37.1 2.7 5.3 1.4 10.3.4 12.2-2.6 2.6-4 .1-6.6-8-8.8-15.9-4.2-38.7-4.5-56.4-.6-5.1 1.2-9.5 1.9-9.8 1.7-.6-.7 8-18 14.3-28.7 4.4-7.5 24.3-35.1 28.4-39.5.6-.6 2.1.2 4.1 2.1 4 3.8 12.5 8.5 19.8 10.9 7.5 2.5 25.1 2.5 33.4 0 8.8-2.6 25-11.1 29-15.1 10.8-10.8 6.9-30.3-8.2-40.5-2.8-1.9-5.1-3.7-5.1-4s2.8-2.3 6.2-4.5c7.3-4.7 8.1-6.7 3.6-9.1-4.1-2.1-10.5-1.3-17.5 2.1s-8.7 5.6-8.8 11.1c-.1 5.1.7 6.1 10.9 12.4 7.4 4.6 11.3 9.5 12.1 15.4.5 3.7.3 5.1-1.1 6.6-2.2 2.4-3.1 1.9-5-2.6-2-4.9-6.2-8.4-9.9-8.4-6 0-7.4 4.7-3.1 9.8 2.2 2.7 4.9 8.1 4.3 8.7-1.2 1.1-11 5.5-12.1 5.5-.9 0-1.9-1.9-2.6-4.7-2.2-8.4-3.6-10.3-8.1-10.3-3.1 0-4.3.5-5.5 2.4-1.4 2.1-1.4 2.8.1 6.7 2.8 7.8 2.6 8.4-3 8.1-10.2-.5-24.1-11.6-29.7-23.7-3-6.3-3.1-7.1-2.7-16 .6-11.1 1.9-13.7 11.3-22.3 12-11 39.1-23.6 66-30.7 7.7-2.1 18-4.8 22.8-6.1s9.6-2.4 10.6-2.4 4.7 2 8.2 4.4c8.5 5.7 16.6 9.8 26.4 12.9 9.1 3 23.3 5.2 27 4.3 2.7-.7 4.8-3.7 4-5.8-.8-1.9-5.8-4.8-8.4-4.8-9 0-30.7-9.2-45.3-19.2-12.1-8.3-20.2-16.3-27.2-27-5.3-8.2-10.2-17.6-9.4-18.3.1-.1 4.6-.8 9.8-1.5 15.4-1.8 16.3-2.1 17.5-5.4.9-2.5.6-3.1-2.4-5.8-3.4-3.1-3.4-3.1-11.5-2.3-4.5.5-9.9.9-12.1.9-3.6.1-4-.1-4.3-2.7-.4-3.3-.5-3.3 13.5-1 11.2 1.8 13.5 1.4 14.1-2.5.5-3.5-4.9-5.8-23.3-9.8l-4-.9.1-5.1c.2-8.2.9-8.8 7.3-5.9 3 1.4 8.3 4.6 12 7.1 7.9 5.6 12 6.3 13.2 2.1.4-1.5.3-4.3-.2-6.1-1.2-4.4-8.3-9.1-19.4-12.8-4.4-1.5-8.1-3.3-8.3-4.1-.5-2.3 4.4-12.4 9.5-19.6 2.5-3.6 8-9.8 12-13.6 7.2-6.8 7.4-7.2 8.4-13.5 4.1-25.7 14-61.3 20.2-72.4 4.3-7.7 6-8.8 8.9-5.9 3.5 3.5 11.4 16.8 18.8 31.8 6 12 7.5 16.1 10.3 28.4 4.7 20 5.8 20.4 22.8 7 9.9-7.7 15.7-11.5 16.5-10.7.2.2-1.7 5.3-4.1 11.2-4.7 11.4-5 14.7-1.3 16.7 1 .5 2.8.7 3.8.4 2.3-.7 9.5-6.2 19-14.5 8.6-7.5 10.9-9 14.1-9h2.7l-5.4 11.7c-3 6.5-5.4 12.5-5.4 13.4 0 2.4 3.3 4.9 6.6 4.9 3.6 0 6.7-2.5 30.8-24.8 19.6-18.2 31.1-28.5 42.5-38 8.6-7.2 12.5-8.1 16-3.6 1.9 2.4 2.1 4 2.1 14.3 0 17.9-1.8 44-4 59.3-2.6 18-2.5 21 .4 26.1 3.7 6.4 4.9 14.9 4.3 30-.5 13.9-3.4 26.7-6.1 26.7-.7 0-8-1.3-16.2-3-24.2-4.8-61-7.6-63.1-4.8-2.2 2.8-2.2 4.8 0 7.3 2 2.3 3.6 2.6 20.1 4.5 27.4 3.1 51.7 7.7 53.2 10.1 1.2 2-13.5 19.9-16.3 19.9-.8 0-2.7-.8-4.1-1.8-5.6-3.9-22-12.1-28.2-14.1-9.1-2.9-21-5.2-23.2-4.6-2.5.9-2.2 3.5 1 7.2 2 2.4 5.3 4 13.2 6.8 10.4 3.7 31.1 13.7 33 16 .8.9-.6 2.7-4.8 6.7-6.2 5.7-16.2 11.4-24.9 14.3-7.5 2.4-11.6 8.3-8 11.4 2.8 2.3 7.6 2.4 13.5.3 11.9-4.2 11.7-4.3 19 3.4 12.2 13 26.6 34.1 29.8 43.7.9 2.9 2.7 7.2 3.9 9.7 4.1 8.2 6.6 20.5 7.2 35.1.6 13.2.5 13.8-2.1 19.5-5.2 11.2-9.2 15.3-20.7 21.1-5.7 2.9-12.2 5.5-14.4 5.9-2.3.3-9.4-.3-17-1.6-16.9-2.8-23.7-3.2-30.9-1.9-8.9 1.6-15.2 5.2-24.6 14.4-9.3 9-15 12.5-20.5 12.5-5 0-5.3-1.9-1.4-9.6 3.8-7.3 3.4-9.7-1.8-10.2-4.1-.4-7.8 4-10.1 12-2.1 7.5-4.7 9.7-9.3 7.8-2.8-1.2-3.1-1.6-2.5-4.9.3-1.9 1.9-6.3 3.6-9.7 3.6-7.5 3.7-8.9.5-11-2.3-1.5-2.7-1.5-6.2.3-3 1.4-4.5 3.2-7 8.3-2.7 5.5-3.2 6.2-4 4.5-.4-1.1-.8-5.2-.8-9 .1-6.1.5-7.6 3.4-12.2 6.7-10.7 23-20.5 47.4-28.4 17.2-5.6 25.5-6.9 43.6-6.9 18.2 0 20.1-.6 20.1-6.8-.1-4.5-4.9-16.9-8.6-22.4-2.4-3.4-3.2-3.9-6.2-3.6-4.9.4-5.9 2.5-4.5 9 .7 2.9 1.5 6.2 1.8 7.4.6 2 .2 2.1-9.4 2.8-20 1.4-35.1 4.8-55.7 12.6-20.8 7.8-33.8 18.1-40.4 31.8-3.3 6.9-3.7 7.3-8.5 8.8-8.4 2.7-28.7 12.8-36.6 18.1-18 12.2-32.4 31.5-36.4 48.8-2 8.4-.8 17.2 3 22.1l2.6 3.4-2.3.9c-1.3.5-3.9 1.2-5.8 1.6s-8.4 2-14.3 3.7c-13.2 3.6-31.3 6.8-38.7 6.8-12.3.1-46.7 9.9-63.3 18.1-14.6 7.2-25.4 17.3-37.5 35-8 11.7-25.7 29.8-38.2 39-17.7 13-43.2 28.9-49.9 31-2 .6-4 1.5-4.6 2-2.7 2.6 12.2-3.9 20.5-8.8 34.7-20.6 58.9-41.2 73.2-62.2 15.9-23.4 28.8-33.1 57.3-43.3 13.2-4.8 34.9-9.8 42.5-9.8 7.4 0 25.5-3.2 38.7-6.8 5.9-1.7 13.4-3.6 16.7-4.3 3.2-.7 6-1.8 6.3-2.5s-.8-2.9-2.3-4.9c-5.7-7.5-5.2-19.1 1.6-32.5 7.4-14.8 18.2-27 31.9-36.3 7.8-5.2 30.8-16.7 37.6-18.7 3.6-1.1 4.3-1.9 7.5-8.3 6.5-13.5 19.3-23.6 40-31.8 19.3-7.6 35.3-11.2 55.8-12.5 9.9-.7 10.4-.8 9.9-2.8-3-12.5-3.1-13.4-1.8-15 3.8-4.5 8.4-.2 14 13.1 6.3 14.8 4.8 16.3-16.5 16.3-18.1 0-26.4 1.4-45.2 7.6-33.3 11-48.3 22.7-49.9 38.7-.6 6.4.8 13.1 2.7 13.5 1 .1 2.6-2.1 4.5-6 2.1-4.4 4-6.9 6.3-8.2 3.3-1.9 3.4-1.9 5.5.2l2.1 2.2-2.2 3.9c-2.5 4.5-5.2 12.5-5.2 15.8 0 1.6.9 2.4 3.4 3.3 5.1 1.7 8.2 0 9.7-5.2 3.1-11.7 9.8-18.1 13.2-12.7.7 1.1.3 2.6-1.7 5.5-1.5 2.3-2.7 5.7-2.9 8-.2 3.9-.2 3.9 3.7 4.2 6.7.6 12.3-2.4 22.1-11.8 17.2-16.5 23.5-18 55.3-13 13.5 2.2 14.5 2.2 20 .7 3.2-.9 9.7-3.7 14.5-6.2 7.2-3.9 9.4-5.6 12.7-10.2 2.2-3.1 4.9-8.1 6.1-11.2 1.9-5 2.1-7 1.6-19.1-.6-14.5-2.9-26-7.4-36-1.4-3-3.5-8.2-4.7-11.5-4.4-12-29.7-46.1-35.6-48-2.2-.7-3.3-.5-13.2 2.7-7.2 2.4-11.1 2-13.2-1.4-1.7-2.8 2.7-6.4 12.2-10 9.8-3.7 18-8.8 23.7-14.7 3.2-3.3 3.8-4.5 2.9-5.8-1.5-2.5-19.1-11.5-28.6-14.8-12.7-4.3-16.1-6-18.7-9.5-4-5.5-1.2-5.9 14.9-1.9 7.6 1.9 20.7 8 31.4 14.4 3.2 1.9 6.9 3.5 8.1 3.5 4.1 0 18.5-17.9 17.2-21.3-1-2.6-25-7.4-54-10.7-15-1.7-17.4-2.3-19.4-4.3-2.1-2.1-2.2-2.4-.7-4.5 1.3-1.9 2.4-2.2 8.1-2.2 12.1 0 39.6 3 54.7 6 8.2 1.7 15.7 3 16.6 3 5.2 0 9.1-33.7 5.6-49.1-.9-4.1-2.5-8.8-3.6-10.4-2.5-3.8-2.5-7.4 0-24.5 2.3-15.8 4.3-48.6 3.8-62.8-.2-8.1-.7-10.4-2.2-12.1-2.4-2.7-8-2.8-12.1-.2-4.1 2.5-26.5 22.2-48.2 42.3-28.3 26.3-29.8 27.3-33.8 22.8-1.7-1.9-1.6-2.3 3.8-14.2 3.1-6.7 5.4-12.5 5.1-13-.7-1.1-4.7-1-7.7.1-1.4.6-6.3 4.2-10.9 8.2-10.5 9.1-18.2 14.9-19.6 14.9-.6 0-1.9-1.1-2.8-2.5-1.6-2.4-1.5-2.8.8-8.3 5.1-11.4 7.1-17.2 6.5-17.8-1.4-1.5-8 2.3-18.7 10.6-6.3 4.9-12.2 9-13.1 9-3.4 0-4.7-2.9-8.2-17.5-3-12.5-4.7-17.2-10.1-28-6.7-13.2-14.6-26.6-18-30.4-2.7-2.9-6.1-2.7-8.4.6M128.5 279c-.6 1.2-1.6 15.2-1.1 16.8s9.6 1.7 159.3 1.7h158.8l.3-9.3.3-9.2-5.8-.2c-14.6-.4-311.5-.2-311.8.2m311.3.8 5.3.2-.3 8.2-.3 8.3-158-.1-158-.1.3-7.4c.1-4.1.4-7.9.6-8.4.2-.7 52-1 152.7-.9 83.8 0 154.8.1 157.7.2"/><path d="M581 295.5c-.9 1.1-1.1 3.5-.6 8.8.3 3.9.7 8.5.9 10.1.2 2.5-.3 3-4.6 4.7-7 2.8-11.7 6.6-11.7 9.6 0 1.3.7 2.6 1.6 3 .9.3 7.7.2 15.1-.4 14.7-1 15.3-1.3 15.3-7.1 0-5.9-8.7-29.2-10.9-29.2-.5 0-1.6-.2-2.4-.5-.7-.3-2 .1-2.7 1m7.4 5.4c3.4 6.7 7.6 19.4 7.6 22.9 0 5.2-1.7 5.9-15.5 6.7-12.8.7-15.4.2-14.2-2.7.7-1.9 7.9-6.8 12.4-8.3 4.2-1.5 4.1-.6 2.7-14.2-1.1-11.2 2.5-13.5 7-4.4m-457.7 5.8c-.4.3-.7 11.5-.7 24.9v24.2l2.4.6c3 .7 20 2.6 24.2 2.6h3.1l.5-17c.5-14.2.9-17.4 2.3-19 2.4-2.7 10.8-3.3 31.2-2.3 17.2.9 17.3.9 20.3 3.8 2.6 2.5 3 3.6 3 8.1 0 2.9.5 5.6 1.1 6 .6.3 7.1 1 14.4 1.4s13.9 1.1 14.7 1.6c.7.5 9.1.7 18.6.5 17.1-.3 17.4-.2 21.2 2.3 4.3 2.8 5.1 4.7 10.1 22.6 3.7 13.4 12.8 51.6 13 54.5.1 1.6.2 1.6.6.3.5-1.8-7.2-35.4-11.9-51.8-6.9-24.3-6.6-23.7-10.1-26.2-3-2.2-4.1-2.3-21.2-2.4-9.9-.1-20-.7-22.5-1.3s-8.3-1.1-13-1.2c-13-.2-13.4-.4-13.8-7-.2-4.7-.8-6.1-3.2-8.4-2.9-2.8-3.2-2.8-20.2-3.7-9.5-.5-20.6-.6-24.6-.3-10.1.9-10.3 1.2-11 22l-.5 16.5h-2.6c-4 0-21.4-2-23.4-2.6-1.6-.5-1.7-2.3-1.5-24.2l.3-23.7 156.2-.3 156.2-.2.6 3.2c.3 1.8.5 7.1.3 11.7-.3 8.1-.4 8.5-2.8 9.1-1.4.4-5.8.3-9.8-.1-6.3-.7-7.7-1.2-10.1-3.8-1.5-1.6-4.6-3.4-7-4.1-6-1.6-19.3-3-28.8-3s-11.5 1.3-13.4 8.5c-.5 2.2-1.2 4.6-1.4 5.2-.3 1-4.6 1.3-16.7 1.4-9.9 0-17.7.5-19.8 1.2-3.5 1.2-3.5 1.3-6.1 12.7-1.5 6.3-5.9 25.2-9.8 42-3.9 16.7-7 30.9-6.7 31.5.2.5.6-.1.9-1.5s3.6-15.6 7.3-31.5c3.6-16 7.7-33.7 9-39.5 1.4-5.7 3.1-11.1 3.9-12 1.3-1.2 5.2-1.6 20.1-1.8 13-.3 18.6-.7 18.8-1.5.2-.7.9-3 1.5-5.2 1.9-7.1 4-8.5 12.9-8.5 10.7 0 24.5 1.7 29.2 3.6 2.2.9 4.9 2.7 5.9 4 1.6 2 3.2 2.5 9.7 3.2 4.3.5 9.2.6 10.9.2l3-.6.3-8.4c.2-4.7 0-10.4-.3-12.8l-.6-4.2H288.1c-86.2 0-157.1.3-157.4.7m619.4 7.9c-3.3 1.4-11.3 8.2-23.8 20.2-7.6 7.3-8 9.5-2.5 14.8 3.3 3.2 15.9 11.7 22.8 15.3 3.8 1.9 7.4.1 7.4-3.7 0-3.3-4.3-10.2-9.4-15.1-2-1.9-3.6-3.9-3.6-4.3 0-.5 2.6-3.7 5.8-7.1 9-9.7 11.4-13.2 11-16.3-.5-4.1-3.5-5.6-7.7-3.8m6.9 4.2c0 1.9-3.7 6.9-11.2 14.9-3.2 3.4-5.8 7.1-5.8 8.1s1.6 3.4 3.6 5.3c4.4 4.3 9.4 11.7 9.4 14 0 1-.9 2.3-2.1 2.9-1.7 1-2.7.7-5.7-1.3-2-1.3-6.8-4.5-10.7-6.9-7.9-5-13.5-10.2-13.5-12.5s23.8-24.6 29.5-27.6c2.7-1.4 3.2-1.4 4.8 0 .9.9 1.7 2.3 1.7 3.1"/><path d="M170.6 331.6c-.3.9-.6 27.9-.6 60l.1 58.4H207l-.3-59.8-.2-59.7-17.6-.3c-15.5-.2-17.7 0-18.3 1.4m35.1 58.6.3 58.8h-34.9l-.1-58.3c0-32.1.3-58.7.7-59.1.4-.3 8.1-.5 17.2-.4l16.6.3zM383 365.4c0 19 .4 34.7.9 35 .4.3 2.6-.4 4.7-1.5s8.4-3.5 13.9-5.4l10-3.5.3-27.4c.3-25.6.2-27.6-1.5-28.4-2.6-1.4-15.2-3.2-22.2-3.2H383zm24.5-31.2 4 1.3v53.7l-10.5 3.7c-5.8 2.1-12 4.5-13.7 5.4l-3.3 1.8v-68.4l9.8.6c5.3.3 11.5 1.2 13.7 1.9m15.2 10.5c-.3.4-.8 8.9-1.1 18.8-.4 9.9-.9 19.1-1.1 20.5-.9 4.8.1 5.1 13 3.5 6.6-.8 12.1-1.5 12.2-1.5.2 0 .2-9.3.1-20.8l-.3-20.7-11.2-.3c-6.1-.1-11.4.1-11.6.5m22.1 20.5c.1 10.9.1 19.8 0 19.8-.2.1-5.2.7-11.3 1.5-6 .7-11.3 1-11.6.7-.5-.6 1.4-41 1.9-42 .1-.1 4.8-.1 10.5 0l10.2.3zM344.2 347c-4.3 1.8-4.3 1.6-22.8 82.5-1.8 8.2-3.4 16.2-3.4 17.7v2.8h9.4c6.3 0 9.7-.4 10.4-1.3 1.1-1.3 3.5-10 15.1-55.7 4.5-17.3 8.9-34.2 9.8-37.6 2.4-8.9 2-9.4-7.9-9.3-4.6 0-9.3.4-10.6.9m18.4 1.5c.4.8-.8 6.6-2.5 12.8-1.6 6.1-6.2 23.6-10 38.7-9.9 39.1-11.9 46-13.2 47.6-.8 1-3.6 1.4-9.7 1.4h-8.5l.6-4.4c1-6.9 18.6-83.6 20.4-88.6 2.8-7.6 4.9-9 14.3-9 6.3 0 8.2.3 8.6 1.5m-143.4 1.2-2.3.5.3 49.6.3 49.7 12.5.6c13.5.7 14.5.5 15.5-1.8.6-1.7 1-97.2.3-97.8-.6-.6-24.3-1.4-26.6-.8m25.7 1.8c.1.2.3 21.9.2 48.1 0 37.4-.3 48-1.3 49-.9.8-4.7 1-12.9.6l-11.7-.4-.5-2.7c-.3-1.5-.6-23.4-.7-48.8-.1-43.4 0-46.2 1.7-46.7 1.8-.5 24.5.3 25.2.9m13.4 1.1c-.9 2.4 9.2 41.1 21.1 80.9 1.4 4.4 2.9 9.9 3.6 12.2l1.1 4.3H296c9.8 0 12-.3 12-1.4 0-.8-1.1-5-2.4-9.3-3.4-11-10.2-36.3-12.5-46.3-1.1-4.7-3.1-13.7-4.5-20s-3.2-13.8-3.9-16.5l-1.2-5-12.3-.3c-10.8-.2-12.3-.1-12.9 1.4m25.4 3.9c.6 2.2 2.3 9.2 3.7 15.5s3.5 15.5 4.6 20.5c2.4 10.5 9.2 35.6 12.6 46.8 1.3 4.3 2.4 8.2 2.4 8.8 0 1.5-22 1.2-22.4-.4-.2-.6-1.5-5.3-3-10.2-12.5-41.7-23.1-81.8-22.2-84 .5-1.3 2.4-1.5 11.8-1.3l11.3.3zm88.9 7.8c-.4 4.5-.6 16.5-.6 26.5.2 20.7.9 18.6-10.2 31.5-3.2 3.8-5.8 7.4-5.8 8.2s-.5 1.7-1.2 2.1c-.8.5-.9.2-.4-1.2 1.9-4.7 17.6-69.5 17.5-72 0-1.6-.7 0-1.4 3.6s-4.8 20.3-9 37c-4.2 16.8-7.8 31.1-7.8 31.9-.3 2.6 1.9 2.2 3.2-.5.6-1.5 3.6-5.4 6.5-8.8 10.2-11.9 9.4-8.7 9.8-39.4.2-15 .3-27.2.2-27.2s-.4 3.7-.8 8.3m-243.2 2.9c.3 1.3.6 20.6.6 43V451h9.8c5.3 0 12.1-.3 15-.6l5.2-.7v-80.5l-9.2-.7c-5.1-.4-11.3-1.4-13.8-2.1-6.7-2-8.4-1.9-7.6.8m7.6.2c2.5.7 8.4 1.7 13.3 2.1l8.7.7v78.5l-4.6.7c-2.6.3-8.9.6-14 .6H131v-40.4c0-22.2-.3-41.1-.6-42-.8-2 .7-2 6.6-.2m425.3 9c-2.4 2.1-2.7 3.1-2.8 8.2 0 7.8 3.3 14.5 8.8 18.2 8.3 5.5 24 2.6 31-5.8 3.1-3.7 4.5-9.4 2.7-11.5-1.9-2.3-7.4-1.9-9.6.6-2.7 3.1-12 8.9-14.2 8.9-3.3 0-6.2-4.4-7.7-11.5-1.4-6.5-2.8-9.5-4.6-9.5-.4 0-2 1.1-3.6 2.4m5.6 1.3c.6 1.6 1.6 5.3 2.1 8.2 1.2 6.3 4.2 10.1 7.9 10.1 3.1 0 11.7-4.8 15-8.4 4.2-4.5 10.1-2.6 8.7 2.8-1.7 6.8-11.7 13.5-21.1 14.3-5.4.4-6.5.2-10.6-2.5-9-5.8-12.6-18.7-6.8-24.8 2.9-3.1 3.4-3 4.8.3m211.4 8c-.3.8-.1 2.4.6 3.6 5.5 10.8 5.8 41.5.4 60.6-1.2 4.3-1.3 5.8-.3 7.6 1.8 3.4.9 5.8-3.2 8-2.5 1.3-5.4 4.5-8.6 9.5-2.7 4.1-6.3 9.2-8.1 11.4-1.7 2.1-3.1 4.3-3.1 4.9 0 .5 1.8 2.9 4 5.3 4.6 5.1 5 7 1.5 8.6-2.2 1-3.3.7-7.6-1.5-4-2-5.5-2.4-7.7-1.6-3.1 1.1-14.2 11.2-14.2 12.9 0 .6 4.9 6.2 10.8 12.3 18.8 19.6 31.8 42.9 38.3 68.7 2.9 11.7 2.4 35.3-.8 44.5-1.2 3.3-2 6.2-1.7 6.4 2 2.1 22.4-17.7 29-28 5.1-8.1 7.9-22 9.4-46.4 2.2-36.9 5-67.6 7-76.1 2.9-12.3 6.8-19.1 16.1-27.8 8.6-8.1 23.1-16.3 32.8-18.6 14.2-3.3 27.6-.6 34.6 7.1 4.3 4.8 4.8 6.9 4.3 17.9-.5 10.4-1.1 11.5-14.2 25.9-5.8 6.3-9.8 11.8-12.3 16.9l-3.8 7.5-.7 27.6c-.4 15.2-1.2 32.1-1.8 37.6-2.2 19.2-2.3 21.5-1.3 21.5.5 0 5.9-1.6 11.9-3.4 6-1.9 13.2-4 15.9-4.6 8.4-1.9 23-2.7 32.7-1.9 10.5.9 10.8.7 12.6-5.7 2.2-7.6 7.1-36.2 9.2-53.4.5-4.1 2.3-18.3 4.1-31.5 2.6-20.1 3.2-27.5 3.3-45.5.1-19.7-.1-22.2-2.2-29.5-7.8-27-20.1-37.2-53.6-44.4-16.1-3.5-62.5-6.2-101.6-5.9-13.3.1-24.3-.3-26.8-.9-3.6-.9-4.4-.9-4.9.4m31.7 1.5c41.5-.3 86.1 2.4 103.9 6.4 29.1 6.4 43.2 18.6 50.3 42.9 2.1 7.3 2.3 9.8 2.2 29.5-.1 18-.7 25.4-3.3 45.5-1.8 13.2-3.6 27.4-4.1 31.5-1.3 10.4-5.6 37-7.4 45.8-2.1 10-3.6 12.8-6.6 12.5-1.4-.1-8.3-.3-15.5-.3-14.8-.1-23 1.2-39.6 6.4-6.2 2-11.5 3.4-11.7 3.1-.3-.3 0-4.9.7-10.3 1.7-12.7 3-36.9 3.1-55.7 0-8.3.5-16.8 1.1-18.9 1.8-6.3 8.2-16 17.1-25.7 4.6-4.9 9.2-10.6 10.2-12.6 2.2-4 3.4-17.4 2.2-23.8-1.1-5.4-6.5-10.9-13.7-13.6-17.1-6.3-42.1 1-59.7 17.6-14.5 13.7-17 22-20.6 69-1.4 17.6-2.8 37.2-3.1 43.5-1.3 22.2-5.4 34.9-14.4 45.1-8.1 9.2-20.1 20.9-21.5 20.9-.1 0 .6-2.6 1.8-5.8 3.1-8.9 3.5-32.7.7-44.2-6.9-27.6-19.3-50.1-38.5-69.8l-11.1-11.3 5-4.5c2.8-2.5 6.3-5.3 7.9-6.4 2.9-1.9 3-1.9 7.5.6 5.4 2.8 8.3 3 10.6.8 2.3-2.3 1.2-6.1-3.1-10.5l-3.4-3.5 4.5-5.9c2.6-3.3 6.3-8.6 8.3-11.8 2.4-3.9 4.8-6.4 7.1-7.5 2.9-1.4 3.7-2.3 3.9-5 .2-1.8-.2-4-.8-4.7-.9-1.1-.8-2.7.3-6.7 2.4-8.3 3.9-21.9 3.9-34.1 0-10.4-1-16.6-4.7-28.4-.7-2.1-.6-2.1 3.7-1 2.5.6 13.4 1 26.8.9m-555.2 33c.1 15 .5 27.9.7 28.5.3.9 2.9 1.3 8.3 1.3 4.3 0 8.1-.2 8.4-.5s-1.3-6.7-3.4-14.3c-2.1-7.5-5.6-20-7.7-27.7-5.9-21.6-6.7-20.1-6.3 12.7m5.6-11.7c1.9 7.1 5.3 19.2 7.4 26.7l3.9 13.8h-7.4c-5 0-7.5-.4-7.8-1.3-.7-2-1.1-53.7-.4-52.9.4.4 2.3 6.5 4.3 13.7M447 394.7c-14.4 1.4-42.5 7.7-50.1 11.1-15.3 6.8-34.4 28.9-42 48.6-3.4 8.9-11 44.4-9.6 45.3.5.3 1.8-.4 3-1.5 4.6-4.2 8.6-5.4 16.1-5 6 .3 8 .8 12.3 3.6 7.8 5 9.9 11.6 7.2 23.1-1.3 5.6.4 11.7 7.6 27.1 5.5 11.8 10 26.6 11.5 37.4 1 6.5.8 6.3 11 14.5 4.8 3.9 6.2 3.6 12.5-2.9l3.7-3.8-2.7-5.9c-8.2-17.5-6.3-29.6 7.7-48.5 8.5-11.5 28-22.7 54.8-31.5 10.9-3.5 42.6-12.3 44.5-12.3.3 0 .5-.8.5-1.8s-1.8-3.6-4.1-5.7c-5.3-5.1-12.5-15.8-17.8-26.3-2.3-4.6-4.8-8.5-5.6-8.8-1.2-.5-8.5.9-33.1 6.1-2.8.6-6.4-2.1-6.4-5 0-1.6 1.1-3 3.3-4.3 2.6-1.6 16.2-5.4 31.5-8.7 2-.5 2.2-1.1 2.2-6.4 0-7.2.8-6.9-21.3-7.8-13.4-.5-16.2-.9-18-2.4l-2.2-1.9 3.4-3.1 3.4-3.2 17.2.7 17.1.7 1.2-7.3c.7-4.6.7-7.7.1-8.4-1.2-1.5-10.4-4-19.6-5.3-6.6-1-31.1-1.3-39.3-.4m41.8 1.8c9.2 1.5 15.5 3.5 16.5 5.1.2.5 0 3.7-.5 7.1l-1.1 6.2-17.7-.2c-17.6-.2-17.8-.2-20.4 2.2-1.4 1.4-2.6 3.3-2.6 4.3 0 3.6 3.8 4.6 20.5 5.1 20.8.7 20.5.7 20.5 6.8 0 3.1-.5 5.1-1.2 5.3s-7.9 2-16 3.9c-17.1 4.1-19.8 5.5-19.8 10.2 0 4 2.1 5.9 6.4 5.8 1.7 0 9.7-1.5 17.8-3.3 8.1-1.7 15.2-2.9 15.8-2.5s2.9 4.3 5.2 8.8c5.4 10.8 10.9 19 17.1 25.4 2.8 2.9 4.8 5.5 4.4 5.9-.3.4-7.4 2.4-15.8 4.6-19.5 5.1-43.2 12.9-53.4 17.7-12.6 5.9-24.7 14.4-29.4 20.6-14.7 19.4-17.2 34.6-8.5 51.6l2.4 4.8-5.1 4.5-5.1 4.6-4.1-3.3c-8.6-6.8-10.7-9.3-10.7-12.8 0-7.5-6.8-29.4-13.1-41.9-5.8-11.9-7.1-17.3-5.8-24.2 1.3-6.5.7-14.5-1.3-17.8-.7-1.1-3.5-3.5-6.1-5.2-8.7-5.6-23.6-4.9-30.2 1.3-1.9 1.7-1.8.7 1.7-16.6 4-20.2 7.4-29.4 15-41.2 10.1-15.5 22.9-27.7 34.7-33 7.9-3.5 31.2-8.6 48.6-10.7 8.7-1 32.9-.4 41.3.9m168.2 1.1c-3 7.7-1 18.2 4.3 23.2 5.8 5.5 17 6.6 25.7 2.6 10.4-4.8 16.5-13.4 14-19.8-1.4-3.7-3.4-3.3-9.8 2.2-7.7 6.6-11.2 8.8-14.7 9.6-2.5.5-3.5.2-5.8-2.2-2.9-3.1-4.7-7.8-4.7-12.7 0-3.9-1.6-5.5-5.2-5.5-2.1 0-3.1.6-3.8 2.6m7 .4c.4.8 1.3 4.2 1.9 7.4.7 4.1 1.9 6.8 3.8 8.8 2.5 2.6 3.2 2.8 6.8 2.2 4.5-.7 7.4-2.5 15.7-9.6 3.1-2.6 5.9-4.8 6.2-4.8s1 .9 1.6 2c3.9 7.2-11.8 21-23.7 21-5.2 0-11.8-2.6-14.5-5.6-1-1.1-2.7-4.2-3.9-6.8-2.2-5-2.1-10.5.2-14.8 1.2-2.2 4.8-2.1 5.9.2m-60.8 17.6c-2.8 1.9-2.9 6.6-.2 13.4 2.3 5.8 2.5 8.7.8 14.2-1 3.6-6.6 9.8-8.8 9.8s-7.3-5.8-10-11.6c-3.4-6.9-5.3-8.6-8.7-7.3-2.9 1.1-3.9 6.6-2.3 12.4 1.6 5.6 8.1 13.2 13.5 15.6 4.5 2.1 11.9 2.4 16.2.8 2-.7 2.9-.7 3.1.1.8 2.4 14.5 8 19.4 8 15.3 0 31.9-15.5 26.8-25.1-2-3.7-5.2-2.2-12.5 5.6-6.8 7.3-7.2 7.5-11.7 7.5-3.9 0-5.4-.6-8.3-3.1-5.8-5.1-5.1-8.1 4.5-19.6 6.6-7.9 8-10.1 8-13 0-4.1-2.1-5.2-14.2-7.7-9.7-2-12.8-2-15.6 0m20.1 2c3.4.9 6.8 2 7.5 2.6 2.1 1.8 1.3 5.7-2.1 9.5-10.2 11.6-12.7 15.4-12.7 19.5 0 3.2.7 4.7 3.4 7.4 3.1 3.1 3.9 3.4 9.2 3.4h5.9l7.2-7.8c6.2-6.6 7.5-7.5 9-6.6 1.1.6 1.9 2.6 2.1 4.7.3 3.2-.3 4.2-5.4 9.2-11 11-20.4 13.1-32.3 7-3.8-1.9-7.1-4-7.3-4.7-.4-1.1-1.1-1.1-4-.1-8.4 3.1-16.5.7-23.2-6.7-6.6-7.4-8.5-15.1-4.5-19.1 2.7-2.7 4-1.6 7.9 6.5 3.6 7.6 7 10.9 11 10.9 8.9 0 13.9-15.9 8.4-26.5-1.9-3.7-1.8-7.7.4-10.1 1.4-1.6 2.6-1.8 7.5-1.3 3.2.3 8.6 1.3 12 2.2"/><path d="M610 425.4c0 1.3 4.1 2.6 8.6 2.6 3.1 0 3.2-2.6.2-3.4-4.2-1.1-8.8-.7-8.8.8m9 .6c1.1.7.8 1-1.5.9-1.6 0-3.9-.4-5-.9-1.6-.7-1.4-.9 1.5-.9 1.9 0 4.2.4 5 .9m-491.1 32.4s-.3 4-.6 8.7c-.3 5.7-.1 8.9.6 9.3 1.6 1 208.3.8 209.3-.2.4-.4 1.6-3.9 2.6-7.7 1-3.9 2.1-7.7 2.3-8.5.3-1.2-13.6-1.4-106.8-1.6-59-.1-107.3-.1-107.4 0m211.9 6.1c-1 2.7-1.7 6-1.8 7.1 0 1.2-.6 2.7-1.4 3.3-1 .8-28.4 1.2-104 1.2-56.4 0-103.1-.3-103.7-.7-.7-.4-.9-3.4-.6-8.3.3-4.2.6-7.7.6-7.7.1-.1 47.9-.1 106.4 0l106.2.1zm-209.4 22.7c-.3.5-.8 96.8-.5 101.4.1.7 4 1.4 10.4 1.8 5.6.4 13.5.9 17.6 1.3l7.4.6-.7-10.9c-1-16.9-2.4-23.2-6.1-28.9-11.1-17-11.5-17.8-11.5-21.8 0-5.3 3.8-10.3 9.8-12.9 3.8-1.7 7.9-2.2 25.6-2.9 19.3-.7 27.4-1.6 60.1-6.4 31.8-4.6 34.1-4.8 62.7-4.9 15.8-.1 28.9-.4 29.1-.6.2-.3.7-4.2 1.1-8.8l.7-8.3-102.7.3c-56.4.2-102.8.6-103 1m204 7c-.4 4-.9 7.5-1.1 7.7-.2.3-13.1.6-28.6.6-28 .2-30.7.4-62.2 5-32.6 4.8-40.8 5.7-60 6.5-21.6.8-27.6 1.9-31.8 5.8-3.1 2.7-4.7 6.8-4.7 11.5 0 4.5.5 5.5 11.5 22.2 3.8 5.6 5.1 11.6 6.1 27.3l.7 10.3-9.9-.7c-5.4-.4-13-.9-16.8-1.3l-6.9-.6.1-49.8c.1-27.4.4-50.2.6-50.5.2-.4 46.1-.8 102-1l101.6-.3zm27.6 2.3c0 .8.2 1.5.4 1.5s1.1.3 2 .6 1.6.1 1.6-.6c0-.6-.4-.9-.9-.5-.5.3-1.2.1-1.5-.4-.4-.5.2-1.2 1.1-1.4 1.4-.4 1.3-.5-.4-.6-1.4-.1-2.3.5-2.3 1.4"/><path d="M356.5 505.5c-2 1.4-5.2 3.8-7.1 5.3l-3.4 2.7h-36.8c-38.3.1-43.7.5-75.8 6-13.5 2.3-26.1 3.4-45.4 4.1-32.4 1.1-35.6 3.2-26.1 17.3 9 13.3 10.6 18.3 12.1 37.6 1.4 18.6 4.1 31.7 10.5 50.4 5.8 17.2 10.4 27.2 17.2 37.2l4.5 6.7-1.6 5.5c-.9 3.1-2.8 7.9-4.2 10.7-7.9 15.8-3.6 18.5 18.7 11.5 18.1-5.7 26.7-6.8 46.9-6.2 9.6.3 18.4.8 19.5 1.2 1.1.3 2.6.1 3.4-.4 1.3-.8 1.2-2.1-.2-9.8-2-10.1-2.3-29.9-.6-38.8 1.8-9.6 6.9-22.3 12.1-30.1 10.2-15.3 31.4-26.4 56.4-29.5 8.6-1.1 11.8-1 22.4.4 6.8.9 12.6 1.5 12.8 1.2.9-.9-1.8-15.4-4.2-22-1.3-3.9-4.8-12.4-7.7-19l-5.4-12-.5-13c-.6-14.8-1.7-17.8-7.1-18.9-5.1-1-6.4-.7-10.4 1.9m10.9-.5c4.3 1.6 5.6 5.7 5.6 17.3 0 11.7.8 14.6 8.8 32.9 5.5 12.3 7.7 19.4 8.7 27.7.7 5.3.7 5.4-1.6 4.8-1.3-.3-7-1.1-12.7-1.8-28.4-3.4-62.9 9.3-76 27.9-4.8 6.9-7.4 12.5-10.9 23.7-3.5 11.1-4.4 33.9-1.8 46.9 1.5 7.4 1.5 9 .4 9.7-.8.5-2.1.6-2.9.3s-9.4-.8-19-1.1c-20.2-.6-28.9.5-46.9 6.2-12 3.7-19.1 4.4-21 2.1-1-1.1-.7-2.6 1-6.8 1.2-2.9 2.6-5.8 3-6.3 1.6-2.3 4.9-15 4.3-16.9-.4-1.2-2.2-4.2-4-6.8-8.8-12.4-20.1-41.1-24.3-61.8-1.1-5.2-2.5-16.1-3.1-24.2-1.5-20.2-3.3-25.7-12.7-39.9-2.6-3.8-4.3-7.5-4-8.3 1.6-4.1 5.2-4.9 25.5-5.7 22.3-.9 37.4-2.3 49.8-4.4 30.8-5.4 37.4-5.9 75.9-6 33.7 0 37.3-.2 39.5-1.8 1.4-.9 4.7-3.3 7.4-5.2 5.1-3.7 6.9-4.1 11-2.5m466.1-1c-.6 1-1.1 5.7-1.9 17.8l-.5 7.3 4.2 1.8c9.4 4 20.9 6.4 27.6 5.7 8.7-.9 10.1-1.8 10.1-6.4 0-2 1.2-7.2 2.6-11.5s2.2-8.2 1.8-8.6c-1-.9-16.8-3.6-29.9-5.1-4.9-.6-10-1.3-11.2-1.5-1.2-.3-2.4-.1-2.8.5m35.9 5.1c3.3.6 6.4 1.5 6.9 1.8.4.4-.4 4-1.8 8.1-1.4 4-2.5 8.8-2.5 10.6 0 4.3-1.5 5.3-9.6 5.9-5.5.5-8.6.1-15.5-1.8-4.7-1.3-9.8-3-11.5-3.8l-2.9-1.4.4-10c.2-5.5.7-10.9 1.1-12l.8-2.2 14.2 1.8c7.8 1 17 2.4 20.4 3m-40.1 61.5c-.6 1.6-1.4 6.6-1.7 11.1-.4 4.6-.9 9.5-1.2 11-.5 2.8-.4 2.8 11.3 6.6 6.5 2.1 15.2 5.2 19.3 6.8s8.2 2.8 9 2.6c1.6-.2 3.1-9.7 4.6-27.9.7-8.6.7-8.7-1.7-9.2-6.7-1.5-15.6-2.6-26.5-3.2l-12.1-.6zm33.2.8 7 1.2v6.4c-.1 7.7-2.5 27.1-3.5 28.3-.4.5-6.1-1.2-12.6-3.6-6.6-2.4-15.2-5.4-19.2-6.7-6.6-2-7.3-2.4-6.8-4.4.3-1.1.8-5.9 1.2-10.6s1.1-9.6 1.6-10.9l.8-2.3 12.3.7c6.7.4 15.4 1.3 19.2 1.9"/><path d="M359 596.1c-18.8 1.5-37.4 10.9-48.7 24.8-9.7 11.9-13.2 22.8-13.4 41.4-.2 12.6 0 13.7 3.4 24.3 2 6.2 5 13.4 6.6 16.1 3.6 5.9 3.8 8.4 1 12.9-4.2 6.9-23.9 18.7-38 22.8-12 3.5-22.5 12-27.5 22.2-3.7 7.6-3.7 12.6.1 16.3 1.7 1.6 3.9 3.1 5 3.3 1.7.3 2.1-.5 2.8-6.2 1.2-9.9 6.3-18.6 9.6-16.6 1.6 1 1.8 5.6.5 7.3-2 2.6-5.4 13.9-5.4 17.9 0 3.8 1.4 4.2 8.2 2.3 2.9-.7 3.9-1.6 4.4-3.7 2.5-11.5 5.8-18.2 8.9-18.2 2.7 0 3.1 3 1.6 10.5-.8 4.1-1.2 7.7-.8 8.2.8.7 10-2 14.8-4.3 2.3-1.1 2.9-2.4 3.9-8.1 4-23.2 18.3-49.8 35.9-66.6 11.6-11 18.9-15.7 35.3-23.1l7.6-3.4 8.1-16.7c7.3-15.2 16.3-30.6 24.8-42.6 1.8-2.6 3.3-5.1 3.3-5.6 0-2.2-5.1-5.5-14.1-9.1-14.8-6.1-22.4-7.3-37.9-6.1m23 2c7.1 1.6 20.9 7.3 24.7 10.3l3.4 2.7-3.3 4.7c-8.6 12.1-17.5 27.5-24.9 42.7l-8.1 16.7-7.7 3.5c-16.7 7.5-23.6 12-35.2 23-17.2 16.4-30.4 40.5-35.4 64.8-.9 4.3-1.8 8.2-2 8.6-.8 1.2-14.5 6.3-15.2 5.6-.3-.4 0-3.8.8-7.6 1.8-8 1.1-11.1-2.4-11.1-4.1 0-6.4 4-9.7 16.7-.8 3.3-1.6 4.3-4.2 5.2-1.7.6-4 1.1-5.1 1.1-1.8 0-1.9-.5-1.4-5.2.4-2.8 1.9-7.8 3.5-11 2.9-6 3.2-11.5.7-12.4-2.4-1-6.2 1.5-8 5.2-1 2.1-2.3 6.9-2.9 10.6-.6 3.9-1.5 6.8-2.2 6.8s-2.6-1.6-4.4-3.6c-3.6-4.2-3.5-6.7.9-14.8 5.2-9.9 15.8-17.9 29.1-22.1 8.8-2.8 23-10.1 29.1-15 9.6-7.6 10.9-13.5 5.1-23.1-1.7-2.7-4.5-9.4-6.3-14.9-3-9.4-3.2-10.8-3.1-23 .3-18.3 3.7-28.5 13.5-40.6 7.5-9.2 21.9-18.8 33.7-22.4 9.7-3 26.8-3.6 37-1.4m-273.8 2.2c-4.3.6-6.2 1.3-6.2 2.3 0 .9 1.1 1.4 3 1.4 4.7 0 14 5.2 19.2 10.8 12.6 13.4 18.4 38 19.5 81.8.5 17.4.8 22.1 1.9 22.1.7 0 1.5-.6 1.8-1.3 1.3-3.4 27.3-17.7 36.4-20.1 2.9-.7 3.7-1.8 7.2-9.3 2.2-4.7 4-9.5 4-10.8 0-1.2-1.1-4-2.4-6.1-6.7-10.6-17.8-39.1-22.7-58.5-1.1-4.5-2.4-8.4-2.7-8.8-1-1-29.5-3.7-42.2-4-5.8-.2-13.3.1-16.8.5m42.8 2.3c7.9.8 14.8 1.8 15.2 2.2.5.5 1.9 4.9 3.2 9.8 5.4 19.8 16.2 48 22 57.2 1.4 2.3 2.6 4.8 2.6 5.5 0 .8-1.8 5.2-3.9 9.8l-4 8.4-6.8 2.4c-9.1 3.2-22.6 10.2-28.9 15l-5.1 3.9-.6-21.7c-1.5-53.2-10.6-80-30.2-89.3-3.3-1.5-7.3-2.8-8.9-2.8-4.3 0-2.7-.9 3.3-1.7 7.1-1.1 24.4-.5 42.1 1.3m776 9.1c-22.3 2.3-44.2 8.7-67.6 19.8-5.4 2.6-12.4 5.6-15.4 6.6s-4.6 1.8-3.4 1.8c2.4.1 9.6-2.7 25.9-10.2 14.5-6.6 27.7-11.2 39.4-13.7 11.6-2.5 29.4-4.4 36-3.7 14.1 1.5 25.2 12.4 29.2 28.7 1.5 6.3 1.4 29.9-.1 39.5-1.3 7.9-6.2 17.7-10.8 21.5-6.4 5.3-21.5 12.4-59 28-5.6 2.3-10.5 4.6-10.8 5.1s-1.2.9-2 .9q-1.35 0 2.1-4.5c1.9-2.5 4.7-8.3 6.2-12.8 2.3-7.2 2.7-9.8 2.7-21.7.1-14.4-.8-18.8-6.2-29.4-3.2-6.4-11.9-15.6-18-18.9-6.6-3.6-18.1-6.5-28.2-7l-8.5-.5 8.5 1c24.5 2.9 38.1 11.4 46.5 29.1 4.5 9.4 5.9 16.9 5.2 29.2-.6 12.2-3.3 21.3-8.7 29.2-2.2 3.3-3.5 6.2-3 6.7s2.7 0 5.2-1.1c2.4-1.1 8.1-3.6 12.8-5.6 30-12.6 36.4-15.4 44.5-19.5 19-9.8 23.3-18.8 23.6-50.2.2-11-.2-16.1-1.5-20.9-5.9-22-19-30.1-44.6-27.4"/><path d="M79.5 614c-12.6 5-18.5 14.1-22 33.5-2 10.9-1.9 18.5.5 29.2 2.7 12.3 3 13.1 11.1 25.2l7.1 10.5-.7 36.5c-.7 38.3.5 79.3 2.9 97.5 1.5 11.6 2 12.2 13.6 16 15.3 5.1 26.3 7.2 57 11.1 10.7 1.4 20.6 2.7 22 3 4.2.9 49.4 5.4 49.9 5 .2-.2.3-4.8.2-10.2-.1-9.2 0-10.1 2.8-14.9 1.7-2.9 5.3-7.5 8.1-10.4 5.5-5.7 5.8-8 1.1-8-1.6 0-8.3-.9-14.8-2-6.5-1-16.7-2.4-22.8-3-16.1-1.7-40-5.8-47.5-8.2-10.9-3.5-13.8-5.3-15-9.5-1.9-6.6-2.9-29.1-2-43.8 4.5-71.4 3.5-104.6-3.6-129.3-3.3-11.4-6.5-17.2-12-22.1-5.6-4.9-11.7-6.9-22.9-7.6-6.5-.4-8.9-.2-13 1.5m19.4.1c18.2 2.9 26.5 15.5 31.8 48.2 1.5 9.2 1.8 16.8 1.7 43.2-.1 17.6-.7 39.4-1.4 48.5-2.6 33.7-1 63.3 3.6 66.7 5.8 4.3 34.9 10.6 60.4 13.2 9.7 1 36.9 4.9 39.7 5.7.7.2-1.2 2.8-4.2 5.9s-6.6 8-8 10.8c-2.2 4.4-2.5 6.4-2.5 14.9v9.9l-3.2-.5c-1.8-.3-12.7-1.5-24.1-2.6-11.4-1.2-21.3-2.3-22-2.5s-8.8-1.4-18.2-2.5c-38.6-4.7-59.5-9.5-68.6-15.4-3.5-2.4-3.5-2.4-4.8-13.1-2.3-19.9-3.3-56.2-2.6-95.1l.7-38.2-5.5-8.1c-9-13-10.5-16.1-12.6-26.1-2.5-11-2.6-18.5-.6-29.5 3.2-17.9 8.7-26.4 21-32.1 5.5-2.6 9.8-2.9 19.4-1.3m710.4 20.1c-3.6 4.8-6.5 12.9-4.6 12.7 5.4-.4 14.7-4.1 20.2-8.2 3.5-2.6 6.7-4.7 7.2-4.7s.9-.6.9-1.3c0-.8-2.6-1.7-7-2.5-11.7-2-12.3-1.9-16.7 4m17.2-2.8c3.3.8 5.5 1.4 4.8 1.5s-4.1 2.3-7.6 4.9c-3.6 2.8-8.4 5.4-10.9 6-2.5.7-5.3 1.5-6.2 1.8-2.8 1.1-.9-4.3 3.7-10.4 4.5-5.9 5.6-6.2 16.2-3.8m4 20.7c-21.6 2.8-33.5 9.3-42.6 23.2-6.2 9.5-14.9 36.4-18.8 57.8-4.3 23.7-8.2 53-9.1 69.4-2.8 45.9-5.1 68.3-7.8 75.6-1.9 5-3.1 5.3-16.5 4-11.6-1-32.8-2.9-99.2-8.6-15.9-1.4-36.4-3.2-45.5-4s-22.3-2-29.5-2.5c-16.2-1.2-44.8-3.8-49.5-4.5-1.9-.3-13.6-1.4-26-2.5s-24.7-2.2-27.5-2.4c-2.7-.3-17.7-1.7-33.2-3.1-15.4-1.4-35.2-3.1-44-3.9-8.7-.8-20.1-1.8-25.3-2.1l-9.6-.7-14.4 11.8c-13.3 10.7-37.1 27.4-39.1 27.4-.5 0-.9.7-.9 1.5 0 1 1 1.5 3.1 1.5 1.6 0 6 .4 9.7 1 3.7.5 11.7 1.4 17.7 2 6.1.6 16.6 1.7 23.5 2.5 22.2 2.6 49.9 5.4 74 7.5 12.9 1.1 35 3.2 49 4.5 14 1.4 28.2 2.7 31.5 3s12.5 1.2 20.5 2 21.3 1.9 29.5 2.5c8.3.5 20.2 1.5 26.5 2s17.8 1.4 25.5 2 26.4 2.2 41.5 3.5c93.9 8.2 150.9 10.6 165.9 6.9 8.1-2 15.7-5.7 17.1-8.4.6-1.1 1.4-4.1 1.9-6.7 1.2-6.1 4.8-35.4 5.6-45.3.3-4.1 1-9.5 1.5-12 1.6-8 2.9-21 4.5-45 .9-12.9 2.2-30.2 3-38.4l1.4-14.9 4.3-4.4c2.3-2.4 7.2-6.1 10.9-8.3 7.3-4.3 18-15 22.2-22.3 3.6-6.2 6.7-18.4 6.7-26.7 0-3.6-.9-9.9-1.9-13.8-4.9-18.7-16.4-28.2-37.7-31.1-8.4-1.2-9-1.2-18.9 0m27.4 2.6c14.4 3.7 24.5 14.3 28.6 29.8 3.1 11.9 1.2 27.1-4.7 37.3-4.5 7.9-15.1 18.7-22.7 23.2-3.7 2.2-8.5 5.9-10.9 8.3l-4.2 4.3-1.5 15.4c-.8 8.5-2.1 26.1-3 39-1.6 24-2.9 37-4.5 45-.5 2.5-1.2 7.9-1.5 12-.6 7.4-4 35.7-5.2 43.5-.9 6.1-2.8 9.1-7.7 11.8-8.3 4.6-15.4 5.7-37.2 5.7-29.3 0-72.7-2.6-139.4-8.5-15.1-1.3-33.8-2.9-41.5-3.5s-19.2-1.5-25.5-2-18.2-1.5-26.5-2c-8.2-.6-21.5-1.7-29.5-2.5s-17.2-1.7-20.5-2-17.5-1.6-31.5-3c-14-1.3-36.1-3.4-49-4.5-23.8-2-51.3-4.8-74-7.5-6.9-.8-17-1.9-22.5-2.5-5.5-.5-14.6-1.5-20.1-2.2l-10.1-1.1 8.5-5.4c11.3-7.1 16.2-10.7 32.1-23.6l13.5-10.8 9 .6c5 .4 16.2 1.3 24.9 2.1 8.8.8 28.6 2.5 44 3.9 15.5 1.4 30.5 2.8 33.2 3.1 2.8.2 15.1 1.3 27.5 2.4s24.1 2.2 26 2.5c4.7.7 33.3 3.3 49.5 4.5 7.2.5 20.4 1.7 29.5 2.5s29.6 2.6 45.5 4c66.4 5.7 87.6 7.6 99.2 8.6 10.6 1 12.6 1 14.6-.3 4.8-3.2 7.1-20.9 10.7-80.3 1.6-27.6 8.6-72.1 14.6-92.9 11.7-40.3 23.3-52.3 54.9-56.5 8.3-1.1 19.7-.5 27.4 1.6"/><path d="M757.6 667.5c-3.3 1.9-10.3 4.8-15.5 6.6-10.8 3.5-14.3 3.6-35.7.3-12.1-1.8-21.4-1.5-25.9.9-1.7.8-7.2 5.3-12.3 10-11.7 10.7-18.4 14.4-29.1 15.9-16.7 2.3-33.8-2.2-41-10.8-1.8-2.3-4.1-7.2-5.8-12.6-1.5-4.8-3-8.8-3.4-8.8-1.4 0-17.6 7.2-24.9 11.1-20.9 11.2-36.1 28.5-41.5 47.1-3.2 11.1.9 17 14.7 21.6 7 2.4 8.6 2.5 45.3 3.3 20.9.4 43.4 1.3 50 1.8 6.6.6 18.8 1.5 27 2.1 8.3.5 20.9 1.5 28 2.2 14.8 1.4 66.2 1.6 67.4.2.5-.5 1.8-8.2 3-17.1 2.6-20 10.8-48.5 18.2-63.5 1.6-3.1 2.6-6.4 2.3-7.3-.8-2-9.6-6.5-12.6-6.4-1.3 0-5 1.5-8.2 3.4m13.7-.4c6.9 3.5 6.9 3.5 4.3 8.7-7 14.2-16.2 46.1-18.7 65-1.1 8.6-2.4 16.1-2.9 16.6s-12.3.9-26.2 1c-23.4.1-38.6-.7-82.3-4.4-22.9-2-46.1-3-70.5-3-16.9 0-26.4-.5-30.5-1.4-17.3-3.9-24.1-10.4-21.5-20.5 3.2-12.8 15-29.2 28-39 7.2-5.4 23.9-14.6 33-18.1 1.9-.8 3.8-1.5 4.2-1.7.4-.3 1.9 3.7 3.4 8.6 1.8 6.2 3.8 10.3 6 12.9 9.7 11.4 38.3 14.6 55.7 6.3 3.9-1.9 9.8-6.2 15.7-11.7 5.2-4.7 11.5-9.6 13.9-10.6 5.1-2.3 11.1-2.2 31.6.7 6.6.9 14.3 1.5 17.2 1.2 6-.6 23-6.6 28.8-10.2 4.9-3 5.5-3 10.8-.4"/><path d="M658.7 701.7c-.4.3-.7 1.6-.7 2.8 0 3.1 4.1 6.5 7.8 6.5 2.8 0 3.2-.3 3.2-2.8 0-4.3-2.6-7.2-6.4-7.2-1.8 0-3.6.3-3.9.7m7.7 2.5c2.4 3.3 2 5.8-.7 5.8-2.9 0-7.2-4.3-6.4-6.4.9-2.4 5.3-1.9 7.1.6m65.2 10.9c-2.8 2.2-3.4 5.5-1.3 8.3 2.7 3.6 10.7-.5 10.7-5.5 0-1.6-3.9-4.9-5.8-4.9-.5 0-2.1.9-3.6 2.1m8.4 3.4c0 1.6-4.7 5.5-6.7 5.5-.7 0-1.9-1.2-2.5-2.6-1.1-2.4-.9-2.9 1.5-5 2.6-2.3 2.9-2.3 5.2-.8 1.4.9 2.5 2.2 2.5 2.9M242 705c-3 .5-9.8 2.5-15 4.5-8.1 3.2-11.1 3.8-20.1 4.2l-10.6.6-4.1-3.8c-5.2-4.7-6.7-4.5-21.7 2.9-16 7.9-21.9 13.7-20 19.7.9 2.9 11.7 5.7 34.5 8.9 12.3 1.8 53 3.1 55.4 1.8 1.2-.6 4-2.8 6.2-4.9 5.4-4.8 8.2-6.2 24.4-12.1 18-6.5 29-12.9 29-16.8 0-2.2-1-3-5.9-4.1-5.2-1.3-45.5-2-52.1-.9m51.2 1.6c4.7.8 6.6 2.8 4.8 5-2.4 2.8-14.4 9.3-24 12.9-21.2 8-23.1 8.9-29.1 14.1l-6.1 5.3-15.7-.5c-36-1.1-66-5.4-70.6-10-2.4-2.5-1.8-4.5 3-9.1 4.3-4.1 27-16.3 30.4-16.3.8 0 3 1.5 4.9 3.2 3 3 3.9 3.3 11 3.6 9.6.5 17-.9 26.9-4.8 4.3-1.7 10.3-3.5 13.3-4 5.9-.9 45-.5 51.2.6M944 724.2c-5.7 2.5-25.6 10.7-52.5 21.5-11.5 4.7-24.5 9.9-28.8 11.6-4.2 1.8-7.9 3.9-8.2 4.7-.5 1.7-2.1 22.2-3.6 46.5-1.4 23.9-3.3 40.1-10.8 95-.6 3.8-.7 7.3-.3 7.7.8.8 23.8-12.1 47.5-26.6 17.4-10.7 54-36.3 54.8-38.4 1.9-5.2 7.8-69 10.4-113l.7-11.2-2.4.1c-1.2 0-4.3.9-6.8 2.1m7.5 9.5c-2.8 46.3-8.6 108.7-10.4 112-1.1 2-40.9 29.4-56.8 39.1-20.4 12.3-43.3 25.5-43.7 25.1-.2-.2 0-3.1.5-6.4s1.6-11.4 2.4-18c.9-6.6 2.5-18.8 3.6-27 2.2-17.2 4.2-38.7 5.9-66 .7-10.5 1.5-21.7 1.9-25l.6-6 7-2.8c3.9-1.5 8.4-3.4 10-4.1 1.7-.8 12.7-5.3 24.5-10s28.5-11.5 37-15c8.5-3.6 16.1-6.5 16.8-6.5 1.1-.1 1.2 2.1.7 10.6m-808 9.3c-.3.4-1 7.7-1.6 16.1-1.3 16.8-.7 47.9.9 52 .9 2.2 2.1 2.8 11.4 4.7 24.1 5.2 86.9 13.9 96.1 13.4 1 0 6.5-3.6 12.3-7.9s14-10.3 18.2-13.3c7.5-5.5 9.9-9 10.1-14.8.1-2.6.4-2.6-7.9-.6-15.2 3.6-31.8 3.5-37.8-.4-5.6-3.4-11.2-8.5-13.3-11.9-1.9-3-2.1-4.4-1.6-11.6.3-4.5.9-9.4 1.2-10.9l.7-2.6-7.4-.6c-4-.3-12.9-.8-19.8-1.1-19-.8-46.4-5.1-52.4-8.2-4.3-2.2-8.5-3.3-9.1-2.3m6.5 2.5c6.8 3.5 35.5 8.2 55.5 9 7.2.3 15.9.8 19.3 1.1 6 .5 6.3.7 5.7 2.7-.4 1.2-.9 5.8-1.2 10.3-.4 6.4-.2 8.9 1.2 11.8 1.8 3.8 8.8 10.2 14.1 12.9 7.4 3.8 23.3 3.9 38.4.3 3.5-.8 6.6-1.3 6.9-1s-.1 2.3-.9 4.6c-1.2 3.4-3 5.3-9.1 9.7-4.2 3.1-12.7 9.3-18.9 13.8-6.2 4.6-11.5 8.1-11.9 7.9-.3-.2-6.4-.9-13.6-1.6-12.9-1.2-51.3-6.5-67.5-9.4-17.4-3.1-23-4.7-24.3-7-1.4-2.5-1.7-48.8-.4-59.9.9-7.3 1.6-7.8 6.7-5.2m376.9 13.9c-.7.7-33.7 10.6-38.4 11.6q-4.05.75-1.5.9c1.4.1 10.8-2.4 21-5.5 10.2-3.2 19.9-5.9 21.6-6.1 1.7-.3 7.1 0 12 .7 4.9.6 24.7 1.5 43.9 2 30.8.7 61.1 2.5 105 6 7.2.6 23.5 1.5 36.3 2 12.9.5 23.6 1.1 23.8 1.3.3.2.1 3-.2 6.1-.6 5.2-1 6-4.3 8l-3.6 2.3-19.5-1.3c-10.7-.6-32.5-1.7-48.5-2.3-26.7-1.1-66.8-3.5-102.5-6.2-8-.6-19.7-1.5-26-1.9-6.3-.5-21.7-1.6-34.2-2.5s-23.7-1.5-25-1.3 9.2 1.2 23.2 2.2c39.1 2.8 46.3 3.3 62 4.5 35.4 2.7 75.7 5.1 102.5 6.2 16 .6 37.8 1.7 48.5 2.3 18.6 1.2 19.7 1.2 23.2-.6 4.1-2.2 4.4-2.8 5.3-10.9l.7-5.6-7.8-.6c-4.2-.4-12.2-.7-17.7-.7s-18.8-.7-29.6-1.5c-59.1-4.5-79.9-5.7-112.1-6.6-19.5-.5-38.6-1.3-42.5-1.8-7.5-1.1-14.9-1.4-15.6-.7m-93.4 21.2c-10.7 2.3-30.1 9.1-38.5 13.5-11.5 6-18.6 13-29 28.7-7.7 11.5-8.8 13.8-7.6 14.8 1.7 1.2 18 2.9 80.1 8.4 12.1 1.1 27 2.4 33 3 6.1.5 16.2 1.5 22.5 2 6.3.6 17.6 1.7 25 2.5s20.9 2.2 30 3 23.7 2.2 32.5 3c21.1 2 68.4 6.1 86 7.5 7.7.6 19 1.5 25 2.1 6.1.5 18.7 1.3 28 1.8 9.4.5 17.7 1.2 18.6 1.6 2.9 1.1 4.6-2.1 5.7-10.7 2.1-16.3 3.4-34.5 3.6-47.8l.1-13.5-27-1.6c-14.8-.9-36.4-2.2-48-2.8-11.5-.6-27.5-1.6-35.5-2.1-8-.6-29.8-1.9-48.5-3-47.6-2.8-63.6-3.9-82-5.6-8.8-.8-21.2-1.9-27.5-2.4s-17.6-1.6-25-2.5c-7.4-.8-13.7-1.4-14-1.4s-3.6.7-7.5 1.5m21.5.9c7.4.9 18.7 2 25 2.5s18.7 1.6 27.5 2.4c18.2 1.7 33.9 2.8 81.5 5.6 18.4 1.1 40.7 2.4 49.5 3s23.4 1.4 32.5 2c76.1 4.4 76.2 4.4 76.8 5.9.3.8 0 9.8-.6 20-2.7 41.5-3.9 48.8-7.7 48.3-1.1-.1-9.6-.7-19-1.2-9.3-.5-21.9-1.4-28-1.9-6-.6-17.3-1.5-25-2.1-17.6-1.4-64.9-5.5-86-7.5-8.8-.8-23.4-2.2-32.5-3s-22.6-2.2-30-3c-13.2-1.4-29.9-3-43-4-3.6-.3-10.8-1-16-1.6-5.2-.5-22.3-2.1-38-3.4-33.4-2.9-58.6-5.4-61.6-6-2-.4-1.4-1.6 6.7-13.9 10.5-15.9 17.5-22.6 29.9-29 11.5-5.9 33.6-13.2 44-14.5.3 0 6.6.6 14 1.4"/></g></svg>