<svg xmlns="http://www.w3.org/2000/svg" width="1365.333" height="1365.333" preserveAspectRatio="xMidYMid meet" version="1.0" viewBox="0 0 1024 1024"><g fill="#000" stroke="none"><path d="M139.9 50.1c-.8.5-1.2 73.1-1.4 261.5-.2 143.5-.3 261.2-.4 261.6-.1.5-7.5.8-16.5.8-18.3 0-26.3 1.7-34.2 7.1-9.5 6.5-17.4 18.2-19.4 28.8-.5 2.8-.9 57.7-1 129.7 0 138.2-.4 129.8 6.5 144 6.8 14 16.5 19.9 34.6 21.1l10.1.6-.7 25.1c-.4 13.8-.9 25.4-1.2 25.8-.2.5-8.7.8-18.9.8-20.6 0-23.2.6-25.4 6-1.6 3.8 0 10.4 2.9 12 1.2.6 151.3 1 433.8 1.2 409.7.3 432.1.2 434.6-1.5 5.5-3.6 4.7-12.9-1.3-15.9-3-1.6-6.6-1.8-26.7-1.8-17 0-23.4-.3-23.9-1.2-.4-.7-1-12.3-1.2-25.9l-.5-24.6 15.4-.5c17.2-.6 23.4-2.2 31.4-7.9 5.7-4.1 9.2-9.2 11.6-16.9 1.8-5.9 1.9-10.1 1.9-84.9 0-69-.2-79.4-1.6-84.2-3.3-11.4-11-19.6-22.2-24-4.6-1.8-8.4-2.3-19.4-2.7l-13.7-.4 5.3-6.7c15.5-19.5 24.5-38.6 29.6-62.9 4.6-21.5 3.5-54.1-2.5-78.9-7-29-17.9-47.2-51.5-85.8-15.9-18.3-21.7-27.6-23.9-38.3s-.4-23.1 4.6-32.4c3.5-6.4 13.5-15.7 21.4-20 9.6-5 16.4-12.2 18.4-19.3 4.5-15.3-2.4-29-16.4-33.2-7.6-2.2-19.5-1.3-28.5 2.1-29.2 11.1-50.5 41.8-53.6 77.1-1.2 13.4-.2 24.6 3.5 39.1 5.9 23.3 12.7 34.4 39 63.3 14.5 16 19 22.3 26 36.6 15.2 31.1 15.4 69.9.7 99.1-4.1 8.1-13.4 20.3-22 28.7l-6.9 6.9-3.3-5.9c-1.8-3.2-7.1-9.5-11.9-14.3-6.8-6.7-11.1-9.9-20.7-15.3-6.6-3.7-12.5-6.7-13.1-6.7-2.3 0-4.2-4.2-8.6-19-8-27.1-13.7-50.6-19.6-81.5-2-10.7-4.5-19.9-7.6-27.9-5.1-13.6-5.7-18.1-7.5-62.1-.6-13.8-1.2-26.4-1.5-28.1s-1.8-4.3-3.5-5.9c-2.6-2.5-3.4-2.7-8.2-2.3-5 .5-5.6.9-10.8 6.9-14 16-35.4 39.1-37.6 40.6-2.1 1.4-5.5 1.6-22.2 1.4l-19.7-.2-5-5.4c-2.7-3-10.2-11.2-16.5-18.2-19.5-21.8-22.3-24.3-26.8-24.3-2.8 0-4.5.7-6.2 2.5-2.7 2.9-2.3-3.3-3.4 56.1-.4 24.6-.5 25.2-3 30.2-6.8 13.4-9.9 29.1-7.7 39.1.6 3 .9 5.6.7 5.8-.2.3-7.6 1.1-16.5 1.8-8.8.8-16.9 1.8-18 2.4-4.8 2.6-3.3 8.6 2.4 9.7 1.9.3 9.7.1 17.3-.6 7.5-.6 14.7-1.2 16-1.3 1.6-.2 2.9.9 4.7 4l2.5 4.2-4.2.5c-2.4.3-11.9 1-21.3 1.6-16.1 1-17.1 1.2-19.5 3.5-2.4 2.4-2.4 2.7-1 5.3 1.5 2.6 1.9 2.7 9.5 2.7 4.4 0 15.8-.9 25.3-1.9l17.3-1.8 4.9 5.3c2.7 3 4.9 6.2 5 7.2 0 2.9-2.7 7.4-6.1 9.8-3.1 2.2-3.3 2.2-32.3 1.6-16-.3-35.2-1.1-42.6-1.8-60.6-5.2-127.7 12.1-170.6 43.8-11.7 8.7-33.3 30.3-42.2 42.3-3.9 5.2-10 14.4-13.5 20.5-10.6 17.9-9.1 16.4-19.3 19.6-9.7 3.1-22.2 10-30.4 16.9l-5 4.2v-51.4c0-55.7-.1-57.2-5.6-68-3.4-6.7-12.3-16-19.3-20.3-7.4-4.4-18-7.5-28.8-8.3l-8.8-.7-.3-11.2c-.3-13.8 1.4-22.9 6.5-33.2 5.5-11.1 14.1-19.5 26.3-25.5l9.5-4.7H377c89.4 0 163.1-.3 163.8-.7 1-.7 1.2-44.7 1.2-225.1 0-123.4-.3-224.7-.6-225.3-.7-1-399.8-.8-401.5.3M541 273c.3 122.4.2 223.5-.2 224.7l-.7 2.3H214.9l-7 2.9c-17.9 7.5-28.3 18.7-33.9 36.6-1.7 5.4-2.4 10.3-2.8 21.4-.5 16.4-.7 16.1 7.8 16.1 21.4.1 41 12.2 50.3 30.8l4.2 8.5.3 54.4c.2 35.9.6 54.3 1.3 54.3.6 0 3.7-2.2 7.1-4.9 8.5-6.9 20.5-13.4 30.6-16.7 6.9-2.3 8.8-3.3 10.1-5.7 12.4-22.5 24.1-38.7 39-54.1 27.8-28.5 60.6-47.2 101.4-57.6 29.6-7.5 64-10.6 92.2-8.1 7.2.6 26.5 1.4 43 1.7 29.3.6 30.1.5 33.3-1.5 3.4-2.2 6.2-7.3 6.2-11.3-.1-1.3-2.2-4.6-5-7.7l-4.9-5.4-16.8 1.7c-29.1 3.1-32.5 3.2-34.7.7-2-2.2-2-2.2.5-4.7 2.4-2.3 3.4-2.5 22.8-3.8 11.1-.7 20.7-1.8 21.1-2.2 1-1-2.7-9.1-4.4-9.7-.6-.2-6.9.2-14.1.9-18.9 1.8-22.1 1.8-24.5-.6-5-5-.7-6.9 19.1-8.6 8.9-.7 16.4-1.5 16.6-1.8.3-.2 0-2.8-.6-5.6-2.3-10.9-.3-22.8 6-36l4.1-8.5.4-26.5c.3-14.6.6-32.2.7-39.2.2-11.9.4-12.8 2.6-15.2 1.5-1.6 3.5-2.6 5.3-2.6 3.2 0 8.3 4.7 22.7 21 4.7 5.2 12 13.3 16.4 18l7.9 8.5 20.6.5c19.1.5 20.9.4 23.5-1.3 2.4-1.6 8.7-8.4 38.6-41.5 5.2-5.7 5.9-6.2 9.7-6.2 3.5 0 4.7.6 7.3 3.5 2.4 2.8 3.1 4.5 3.1 7.8 0 8 2 48.3 3 61.3.9 11.9 1.5 14.3 5.5 25 3.1 8 5.6 17.2 7.6 27.9 6.1 31.8 12.9 59.8 21 85.9 3.9 12.9 5.2 15.6 7.2 15.6.6 0 6.5 3 13.1 6.8 9.6 5.3 13.9 8.5 20.7 15.2 4.8 4.7 10.1 11.1 11.9 14.3 1.7 3.1 3.7 5.7 4.4 5.7 1.8 0 16.4-15.3 22.1-23 22-30.1 24.7-77.3 6.5-114.5-6.5-13.3-11.2-19.8-25.5-35.6-25.8-28.4-33.5-40.8-39-62.2-9.4-37.1-1.9-70.5 21.4-96 6.2-6.7 18.8-15.3 28.1-19.2 7.5-3.2 20-4.4 26.6-2.6 5.5 1.5 11.8 6.2 15.1 11.3 2.5 3.8 2.8 5.3 2.8 12.3s-.4 8.6-2.8 12.8c-3.1 5.2-10.4 11.5-17.8 15.3-6 3-16.3 12.4-19.4 17.9-3.1 5.3-6.5 18.3-6.5 24.9 0 6.8 2.4 16.5 5.6 22.9 3.5 7 8 13 19.4 26.2 37 42.6 47.8 62 54.3 98 2.9 16.2 3.1 49.3.4 63-5 24.7-14.2 44.3-30.4 64.7-2.9 3.7-5.3 7.1-5.3 7.6 0 .6 6.3 1.1 14.3 1.4 13.5.3 14.5.5 20.9 3.5 8.2 3.9 14.5 10 18.4 17.9l2.9 5.9.3 80.4c.3 88.4.4 85.9-5.8 95.3-3.4 5.1-11.1 10.9-18 13.4-3.2 1.2-9.1 1.8-20.4 2.2l-15.9.4.5 25.7c.3 14.2.8 26.3 1.2 26.9.5.9 7.3 1.2 24.4 1.2 21.8 0 24 .2 26.9 2 5.4 3.2 5.7 10.4.6 13.7-2.5 1.7-24.8 1.8-433.2 1.5-236.8-.1-431.4-.5-432.4-.8-2-.6-4.7-5.4-4.7-8.3 0-1.1 1.4-3.3 3.1-5l3.1-3.1h19.3c10.7 0 19.6-.3 19.8-.7.3-.5.8-12.5 1.2-26.9l.7-26.1-10.7-.6c-13.3-.9-20.3-3.6-27-10.8-5.2-5.6-10.9-16.7-12.5-24.4-.8-3.7-1-43.7-.8-132.6l.3-127.4 3.3-6.7c3.9-7.9 11.3-16.4 18-20.6 8-5.1 13.6-6.2 32.4-6.2 12.7 0 16.8-.3 16.9-1.3.1-.6.2-118.3.4-261.3.1-143.1.5-260.6.8-261.1s82.2-.9 200.4-.8h199.8z"/><path d="M374.7 91.6c-.4.4-.7 37.6-.7 82.6V256h34l-.2-82.3-.3-82.2-16.1-.3c-8.8-.1-16.3.1-16.7.4m32.1 82.1.2 81.3h-32v-80.8c0-44.5.3-81.2.7-81.6.4-.3 7.5-.5 15.7-.4l15.1.3zM162 174v82h39V92h-39zm38 0v81h-37V93h37zm122 0v82h39V92h-39zm38 0v81h-37V93h37zm-125-56.3c-9.1 2.4-16.8 4.8-17.2 5.1-.4.4 1.1 9 3.2 19.2 2.2 10.2 7.8 36.9 12.5 59.5 12.9 62 11.2 55.5 14.4 55.5 4 0 35.4-5.9 36.3-6.8.4-.4-2.6-17.2-6.7-37.2-11.3-54.3-20.5-99.3-20.5-99.7 0-1-7.4.4-22 4.4m21.4-2c.2 1 3.6 17.3 7.5 36.3s10 48.4 13.5 65.5c3.5 17 6.1 31.4 5.6 31.9-.9.9-30.8 6.6-34.7 6.6-1.2 0-2.4-.8-2.7-1.8-.3-.9-3-13.6-6-28.2s-8.2-39.6-11.6-55.5c-3.4-16-6.9-32.9-7.9-37.8-1.2-5.6-1.5-9-.8-9.4 1.5-.9 31.9-9.1 34.4-9.2 1.3-.1 2.4.6 2.7 1.6m164.3-.1c-.4.4-.7 32.2-.7 70.6V256h27l-.2-70.3-.3-70.2-12.6-.3c-6.9-.1-12.8.1-13.2.4m25.1 70.1.2 69.3h-25v-68.8c0-37.9.3-69.2.7-69.6.4-.3 5.9-.5 12.2-.4l11.6.3zm-282.1 83.1c-1.4.3-1.7 1.7-1.7 8.8v8.4l178.3-.2 178.2-.3v-17H341.9c-97.1 0-177.3.1-178.2.3m353.8 8.2v7.5l-177.2.3-177.3.2v-7.4c0-4.1.5-7.6 1-7.8.6-.2 80.3-.3 177.3-.3h176.2zm-355 46.2c-.3.7-.4 33.9-.3 73.8l.3 72.5h38v-147l-18.8-.3c-14.4-.2-18.9 0-19.2 1m37 72.8v72.5h-36l-.3-71.5c-.1-39.3 0-72.1.3-72.8.3-1 4.6-1.2 18.2-1l17.8.3zm14.5 0v74l16.8-.2 16.7-.3v-147l-16.7-.3-16.8-.2zm32.5 0v72.5l-15.7.3-15.8.3V322.9l15.8.3 15.7.3zm24.2-71.3c-7.5.3-10.9.8-11.3 1.6-.2.7 2.9 25.6 7.1 55.2 11.3 80.7 12.5 88.8 13 89.3.7.7 36.8-2.7 37.7-3.6.4-.4-1.9-17.9-5.1-38.7-6.3-39.7-15.8-98.4-16.6-102.3-.5-2-1-2.2-7.3-2-3.7.1-11.6.4-17.5.5m28 26.8c10.8 65.5 18.1 114.1 17.3 114.8-.9 1-34.9 4.1-35.7 3.4-.2-.3-1.5-8.1-2.8-17.4-12.2-85.3-17.4-124.8-16.8-125.4.8-.8 15.2-1.6 27.3-1.5l6.4.1zm46.9 49.7c-.9 3.6-.7 18.4.4 21.2l1 2.6h139.5v-8.7c0-4.9.4-10.7.8-13.1l.9-4.2h-142zm140.7 2.5c-.4 2.1-.8 7.5-.8 12.1v8.2h-68.7c-66.9 0-68.8-.1-69.8-1.9-1.1-2.1-1.4-17.9-.4-20.5.6-1.4 7.7-1.6 70.6-1.6h69.9zm-150 37c-1.5 2.2-1.8 4.9-1.8 15.8v13h167.9l-.1-15.5-.2-15.5-82-.3-82-.2zm165.1 13.1-.1 14.7H335.5l-.3-11.5c-.2-10 0-11.9 1.8-14.8l2-3.2h162.5zm91.6 33.7c-2.2 2.7-1.7 13.1.9 19.2 5.6 12.9 23.6 21.9 30.6 15.3 3-2.8 4-8.4 2.3-13-2-5.5-7.2-14-8.5-14-2.1 0-2.5 1.9-.9 4.2 3.1 4.4 1 14.7-3.3 16.3-2.7 1-5.9-3.8-6.6-9.9-.6-4.7-.4-6.1 1.4-9.1 1.1-2 2.1-3.9 2.1-4.4 0-1.1-8.7-5-12.8-5.7-2.9-.4-4.1-.2-5.2 1.1m11 2.1 5.7 2.5-2 4.1c-1.9 3.7-1.9 4.7-.9 10.6.6 4 1.8 7.3 3 8.5 6.2 6.2 13.3-7.3 8.7-16.3-3-5.9.2-2.9 4 3.7 5 8.6 5.4 13.9 1.3 18-2 1.9-3.7 2.7-6.1 2.6-7.3-.2-18.4-8.5-22.7-16.9-4-8.1-3-19.4 1.7-19.4.9 0 4.1 1.2 7.3 2.6m92.7 2.9c-4.8.7-9.1 1.6-9.4 1.9-.4.3.3 2.4 1.5 4.5 2.7 4.8 2.9 11.2.4 13.4-.9.8-3 2.1-4.6 2.7-2.4.9-3.2.8-4.8-.7-3.2-2.9-5-7.2-4.6-11.1.2-3.2 0-3.7-1.7-3.4-4.9.7-10 10.2-8.8 16.3.9 4.9 3.6 6.4 12.3 6.8 12.9.5 21.8-3.4 27.9-12.2 3-4.4 6.1-13.2 6.1-17.4 0-2.7-.9-2.8-14.3-.8m12.9 3.7c-1.6 10.3-10.2 21.1-19.1 24.1-2.8 1-8 1.7-12.1 1.7-6.3 0-7.7-.3-10.1-2.4-3.9-3.4-3.7-9.3.4-14.3 3.9-4.9 5.3-5.2 5.3-1.4 0 4.4 2.4 9.7 5.2 11.5 3 2 9 .6 11.3-2.7 2.1-2.9 1.9-9.5-.4-14-2.2-4.3-2.7-4 8.9-5.6 11.8-1.6 11.4-1.7 10.6 3.1m-83.1 39.7c-.7 1.3 8.5 19.1 9.9 19.1 1.9 0 22.6-14.4 22.6-15.8 0-.6-.3-1.2-.7-1.2-.5 0-7.1-.7-14.8-1.5-16.6-1.8-16.2-1.7-17-.6m16.9 1.6c7.6.8 14 1.6 14.2 1.7.2.3-19 13.9-20.6 14.6-.7.3-9-15-9-16.7 0-1.3-1.3-1.4 15.4.4m50.4 1.6c-1 .5-1.8 1.9-1.8 3.1 0 1.9.4 2 5.3 1.4 2.8-.3 11.6-.6 19.5-.6 14.3 0 14.3 0 14-2.3-.3-2.2-.5-2.2-17.8-2.4-10.7-.2-18.2.1-19.2.8m35.9 1.5c.3.8-4.8 1.3-17.9 1.6-10.1.2-18.5.3-18.7.1-.2-.1.2-.9.9-1.8 1.1-1.3 3.9-1.5 18.3-1.3 11.6.2 17.2.7 17.4 1.4m-42.6 14.6c-.5 1.3-.6 2.6-.2 2.9.3.4 5.3 1.6 11.1 2.8s15 3.5 20.5 5c5.5 1.6 10.5 2.6 11.1 2.4 1.9-.7 2.4-6.6.8-7.9s-12.8-3.6-28.1-5.9c-13.4-2-14.2-1.9-15.2.7m24.9 1.9c6.3 1.1 13.1 2.4 15.2 3 3.5.9 3.8 1.2 3.2 3.7-.4 1.5-.9 3-1.3 3.4-.3.3-5.1-.7-10.6-2.3-5.5-1.5-14.5-3.8-20-4.9-5.5-1.2-10.1-2.3-10.3-2.5-.3-.2-.2-1.2.2-2.1.7-1.9 3.7-1.7 23.6 1.7m-77.5 5.4c-5.8 5.3-5.8 5.5-4 7.5 2.6 2.8 4.5 2.5 9.3-1.5l4.1-3.6 1.5 3c.9 1.6 2.3 3.6 3.1 4.5 2.5 2.4 12.5 2 12.5-.6 0-1.4-11.8-12.1-14.9-13.5-4.3-2-5.5-1.6-11.6 4.2m11.1-3.2c1.2.7 4.9 3.7 8.2 6.9 6.5 6 6.5 6.8-.3 6.8-3 0-3.8-.6-6.1-4.5-2.7-4.8-4.3-5.5-6.4-3-.7.9-2.6 2.5-4.2 3.6-2.5 1.8-3 1.9-4.8.6-2-1.4-1.9-1.6 3.7-6.6 6.3-5.5 6.7-5.6 9.9-3.8m-492.1 43.1c-6.1 1.9-9.3 4.4-12.3 9.5l-2.7 4.6-.3 124.9c-.3 138.8-.7 130.2 6.4 138.5 4.6 5.4 11.6 8.8 20.1 10.1 7.6 1.1 39.3 1.4 44.2.4l3.1-.7-.2-133.6-.3-133.6-2.7-5.1c-3.1-5.9-8.4-10.8-14.7-13.8-4-1.8-6.8-2.1-20.6-2.3-11-.2-17.3.2-20 1.1m39.6 1.9c5.6 2.8 11.4 8.2 14.6 13.5l2.8 4.7.3 133.1.2 133.2-2.2.6c-3.6.9-36.6.7-43.9-.4-11.1-1.6-19.8-8-24.1-17.6-1.8-4.1-1.8-9-1.6-129.6l.3-125.3 2.9-4.3c2.9-4.3 7.5-7.7 12.4-9.2 1.5-.5 9.9-.8 18.7-.7 13.1.2 16.7.5 19.6 2M446 670.2c0 18-6.6 29.9-22.2 40-4.3 2.8-7.8 5.7-7.8 6.4 0 .8 3.4 1.4 11.8 1.8 30.8 1.6 35.3 2.1 43.7 5.4 10.2 4 17.1 9.3 21.3 16.2 6.5 10.9 3.2 21.8-8 26.5-7.9 3.2-20.2.7-40.4-8.5-18-8.2-34.4-12.8-50.3-14.1-7.3-.6-35.4-.9-66.7-.7l-54.2.3-5.5 3.8c-10.1 7-16.2 19-17.3 34.1-.8 10 1 25.9 3.5 32.6 2.1 5.5 7.1 12.4 10.4 14.3 1.6.9 16 1.3 56.2 1.7 59.2.5 55.8.2 63.6 6.7l3.3 2.8h221.5c121.9 0 232.1-.1 244.9-.3l23.3-.3-.3-37.2-.3-37.2-3.1-5.5c-3.8-6.7-9.8-11.5-16.7-13.4-4.8-1.4-36.6-2.5-73.8-2.6h-9.6l-5.3-7.1c-9.6-12.9-25.3-22.9-42-26.8-4.7-1.1-16.6-2.9-26.5-4.1s-24.1-3.2-31.5-4.5c-18.3-3.4-31.8-4.5-32.4-2.8-.7 1.7 3.3 3.3 15.9 6.6 11.7 3 16.9 3.8 44.5 7.2 23.8 2.9 32.8 5 44.2 10.4 16.4 7.6 28.5 19.3 36.1 35 3.5 7.3 4.1 9.4 4.4 16.5.3 7.6.2 8.4-2.5 12.1-10.6 15-26.7 10.1-49.3-15.2-13.7-15.3-17.6-18.3-23.7-18.3-2.6 0-15.9-.9-29.7-2-36.2-2.8-58.6-3.9-117.2-5.5-28.8-.7-52.7-1.6-53.2-1.9-.4-.3-2-3-3.5-5.9-5-10.3-17.6-19.6-31.3-23.1-3.4-.9-10.3-1.9-15.5-2.2-12.7-.8-12.7-.8-8.5-5.1 6.4-6.3 8.2-11.4 8.2-22.8 0-8.9-.3-10.6-2.6-15-1.5-2.8-3.4-5.1-4.3-5.3-1.4-.3-1.6.8-1.6 7m4.7-1.5c2.6 4.4 2.8 5.6 2.8 14.8 0 9.1-.3 10.4-2.7 14.6-1.5 2.5-4.1 5.9-5.9 7.7-5 4.8-3.7 5.8 8.8 6.5 5.9.4 13.1 1.3 16 2.1 13.1 3.5 26 13.3 30.9 23.2 1.5 3 3 5.7 3.5 6s24.6 1.2 53.6 1.9c59.4 1.6 81 2.7 123 5.9l29.2 2.2 3.8 3.1c2.1 1.6 8.5 8.3 14.3 14.7 11.5 12.9 18.9 18.6 27.6 21.6 11.8 4.1 19.5 1.5 24.6-8.4 4.9-9.5-.1-28.1-11.3-42.2-8.8-11.1-17.6-17.3-34.4-24.5-5.7-2.4-20.5-5.2-42.5-7.9-28.4-3.6-36.3-5.1-48-9.1l-8.5-2.9 9.5.4c5.2.3 14.2 1.4 20 2.6 5.8 1.1 19.7 3.1 31 4.5 27.3 3.3 33.8 4.8 44.5 10.1 11.6 5.7 19.9 12.5 26.5 21.3l5.3 7.1h10.1c29.9.1 69.6 1.3 73.1 2.2 6 1.5 12.3 6.4 16.3 12.7l3.7 5.6.3 36.7.3 36.7-22.8.3c-12.5.2-122.2.3-243.8.3h-221l-4.7-3.7c-2.9-2.2-6.7-4-9.8-4.7-3.3-.7-23-1.1-56.1-1.1h-51l-4.5-4.6c-6.8-6.8-9.3-13.1-10.6-27.2-1.4-15.1-.2-24.8 4.2-33.8 3.6-7.4 10.2-14.3 16.3-17.3 4.2-2.1 5.5-2.1 58.3-2.1 29.6 0 58.9.5 64.9 1 13.9 1.2 29.7 5.6 43.6 12 22.3 10.3 36.5 13.6 45.6 10.6 8.2-2.7 12.3-8.4 12.3-17.2 0-12.5-9.5-22.3-27.3-28.3-8-2.7-10.6-3.1-30.4-4.1-11.9-.6-21.8-1.2-22-1.4s2-1.8 4.9-3.6c17.1-10.5 24.8-23.5 24.8-42.2 0-3.7.2-6.8.4-6.8s1.7 2.1 3.3 4.7M164.6 907.3c-1.7 9-7.4 50.2-7.1 50.6.7.7 54.3.7 55-.1.8-.8 3.8-50.7 3.1-52.5-.4-1-5.5-1.3-25.5-1.3h-24.9zm50-1c.6 1.8-2.2 49.7-3.1 50.5-.7.7-52.2.8-52.9.1-.4-.4 5.8-43.6 7-49.2l.6-2.7h23.9c18.5 0 24.1.3 24.5 1.3m44.1.4c-2.1 11-7 50.4-6.3 51 .9 1 533.2 1 534.2 0 .7-.6-7.2-47.5-8.7-51.5l-.9-2.2H259.3zm518.3.5c1.4 3.3 9.2 48.9 8.5 49.6-.9.9-531.2.8-532.1 0-.6-.7 4.7-42.7 6.3-49.6l.5-2.2H776zm51.5-.7c-.5.2-2.7.6-4.7 1l-3.8.6v24.3c0 21.3.2 24.5 1.6 25 .9.3 6.9.6 13.5.6H847l-.1-3.3c0-1.7-1.4-13.3-3.2-25.7l-3.2-22.5-5.5-.2c-3-.1-5.9 0-6.5.2m14.2 22.5c1.7 11.8 3.2 23 3.2 24.8l.1 3.3-12.2-.3-12.3-.3-.3-23.7-.2-23.8 2.2-.4c1.3-.3 3.2-.7 4.3-1 1.1-.2 4.3-.3 7-.3l5 .2z"/></g></svg>