<svg xmlns="http://www.w3.org/2000/svg" width="1365.333" height="1365.333" preserveAspectRatio="xMidYMid meet" version="1.0" viewBox="0 0 1024 1024"><path fill="#000" d="M139.6 50.9c-.3.5-.6 111.8-.5 247.3v261.7l-.1 15.4-12.2-.7c-21.8-1.3-33 1.8-43.8 12-5 4.8-7.8 8.5-10.6 14.2l-3.9 7.7-.3 128.4c-.3 141.7-.6 133.4 6.1 146.8 4 8.1 12.5 16.4 19.4 18.7 2.6.9 9.4 2 15.1 2.3l10.3.6-.6 25.1c-.4 13.8-.8 25.7-1.1 26.3-.2 1-5.1 1.3-19.9 1.3H77.8l-2.9 2.9c-1.7 1.8-2.9 4-2.9 5.6 0 3.4 2.5 8.2 4.7 8.9 1 .3 196.1.7 433.6.8l431.9.3 2.4-2.8c3.2-3.7 3.2-8.7 0-12.4l-2.4-2.8-25.5-.3-25.4-.3-.6-13.6c-.4-7.5-.7-19.3-.7-26.3v-12.8l15.8-.4c13-.4 16.7-.9 21.3-2.7 7.8-3 13.4-7.3 17-12.9 6.1-9.7 6-7 5.7-95.8l-.3-80.9-3.3-6.7c-6.3-12.8-16.8-19.1-34.8-20.9-6-.5-12.8-.7-15.2-.4l-4.2.6 7.1-8.8c13.4-16.7 22.2-34.2 27.4-54.8 3.7-14.5 4.8-26.8 4.2-45.8-.8-26.8-5.6-48.6-14.7-67.3-8.2-16.8-14.3-25.1-47.5-64.7-13.3-15.8-18.1-25.5-19.2-38.6-.6-7.7 1.4-17.5 5.2-25.5 3.2-6.7 11.7-14.9 21.4-20.5 13.8-8.1 18.9-14.5 19.8-25.3 1-10.8-3.9-20.2-13.1-25.1-3.5-1.9-5.6-2.2-15.1-2.2-10.2.1-11.6.3-18.7 3.3-28.3 12.2-48.2 40.8-51.9 74.9-1.4 13-.3 25.6 3.6 40.7 5.8 22.6 13.3 34.7 39 62.6 5.8 6.3 12.8 14.7 15.5 18.7 15.4 22.1 22.9 47.8 21.7 74.2-.6 14.5-2.8 25-7.6 36.7-4.9 12.1-11.2 21.2-22.8 33.4l-9.6 10.1-2.8-5.2c-4.1-7.3-10-14.7-15.6-19.4-5.4-4.5-23.6-15.6-29.9-18.2l-4.2-1.7-5.5-19.1c-9.2-31.4-12.9-46.8-19.2-79-2.2-11.2-4.8-21.2-7.8-29.3-5.3-14.2-6-20.5-7.6-64.9-1.2-31.2-1.9-33.3-12.2-33.3-4.9 0-4.8-.1-29.2 27.3-8.7 9.7-17.2 18.7-18.9 19.9-2.8 2-4 2.1-14.7 1.8-6.4-.2-15.5-.4-20.2-.5h-8.5l-13.5-14.6c-7.4-8-16.7-18.3-20.7-22.8-8.8-9.8-12.1-11.8-16.3-10-5.5 2.2-5.6 3.1-6.2 44.9l-.5 38.5-4.1 8.5c-6.3 13.1-8.5 26.5-6 36.6.6 2.5.9 4.7.6 5-.2.3-8 1.1-17.1 1.9-13.2 1-17.1 1.7-18.7 3.1-2.6 2.4-2.4 5 .7 7.1 2.4 1.5 3.9 1.6 18.8.4 8.8-.7 16.8-1.4 17.7-1.7 1.2-.3 2.5.9 4.3 4.2 1.5 2.6 2.4 4.9 2.2 5.1-.3.3-9.7 1.1-21 1.8-11.3.8-21.4 1.8-22.5 2.4-4.2 2.3-3.5 7.3 1.4 9.1 1.1.4 9 0 17.5-1s19.1-2.1 23.5-2.4l8-.7 5.1 5.8 5.1 5.9-1.6 4.4c-1 2.9-2.9 5.3-5.1 6.8l-3.5 2.4-29-.5c-15.9-.4-35.3-1.2-43-1.8-17.9-1.5-45.9-.6-63.3 2-52.1 7.9-93.8 27.2-126.1 58.5-17.2 16.8-31.4 35.5-41.6 54.9-3.8 7.2-4.2 7.6-8.5 8.7-11.8 3-28.5 12-37.9 20.5l-4.1 3.7v-51.5c0-34.1-.4-53.4-1.1-56.9-2-9.3-5.7-15.8-13.8-23.9-11.4-11.3-23.1-16.2-41.1-17.1l-6.5-.3.1-15c.1-12.7.4-16 2.3-21.5 5.3-15.5 15.1-26.9 29-33.8 4.5-2.3 9.6-4.4 11.4-4.7s76.1-.7 165.2-.8l162-.2v-450l-201.2-.3c-119.6-.1-201.4.2-201.7.7M408 174v81.9l-16.5.3-16.5.3V92h33zm-207 .5V256h-38V93h38zm160 0v81.4l-19 .3-19 .3V93h38zm-90.5 5.5c7.5 36 13.8 66.7 14.2 68.2.3 1.6.1 2.8-.4 2.8s-9.2 1.5-19.3 3.4c-10.2 1.9-18.6 3.3-18.7 3.2-.2-.1-3-13.3-6.3-29.2s-9.6-46-13.9-66.9c-4.4-20.9-7.9-38-7.8-38.1 1.1-.7 38.3-9.9 38.4-9.5.2.3 6.4 30.1 13.8 66.1m176.5 6.2v70.3l-13-.3-13-.3V116h26zm72 91.3v8.5H163v-16l42.8-.3c23.5-.1 103.6-.3 178-.5L519 269zm-318 119V470h-38V323h38zm47 0V470h-33V323h33zm47.5-69.3c2.1 9.9 22.7 139.9 22.2 140.5-.6.5-36.8 3.5-37.3 3.1-.2-.3-1.5-8.3-2.9-17.9-6-42.2-17.5-125-17.5-125.9 0-.5 5-1.1 11.8-1.3 6.4-.1 14.3-.4 17.4-.5 5.2-.2 5.8 0 6.3 2m192.3 75c-.8 1.4-1.3 6.2-1.3 12.5V425H348l-1-2.6c-1.1-2.8-1.3-16.6-.4-20.2l.6-2.2h141.9zm14.7 52.3V470H334.8l.4-12.8c.2-10.2.7-13.4 2.1-15.5l1.7-2.7h163.5zM606 490.1c5.1 2.4 6.1 3.2 4.9 3.9-6.6 3.7-3.5 23.8 3.5 22.8 4.6-.7 7.1-12.1 4.2-19.3-.5-1.1 1 .5 3.2 3.5 5.2 7 6.6 11.7 5.2 16.9-2 7.4-9.6 8.5-19.2 2.8-11.5-6.8-17.5-19.7-14.5-31 1-3.7 4.3-3.6 12.7.4m104.7 6.4c-1.6 11.1-10.1 21.8-20 24.9-7.5 2.3-19.5 2-22.5-.7-4.3-3.9-3.1-12.1 2.5-17.4 4.3-4.1 5.1-4.1 4.5-.3-.6 4.2.4 7.3 3.4 11 2.3 2.7 3.1 3 5.8 2.4 1.7-.3 4.1-1.5 5.4-2.7 3.2-2.9 3.1-10.1-.3-15.1-1.5-2.2-2-3.6-1.2-3.7.7 0 5-.7 9.7-1.4 14-2.1 13.4-2.2 12.7 3m-66.5 41.1c8.4.9 15.4 1.7 15.6 1.8.3.4-20.2 14.4-22 15.1-1 .4-2.9-2.2-6.1-8.3-2.6-4.9-4.7-9.2-4.7-9.6 0-.8-.2-.8 17.2 1M731 541c0 1.9-.7 2-14.2 2-7.9 0-16.6.3-19.5.6-4.9.6-5.2.5-4.6-1.4.3-1.2 1.2-2.3 2.2-2.5.9-.3 9.4-.5 18.9-.6 16.6-.1 17.2 0 17.2 1.9m-25.9 15c7 1 15.9 2.6 19.8 3.5 7.6 1.8 7.5 1.7 5.6 8.2-.3.8-3.5.3-11.2-1.8-5.9-1.6-15.5-3.9-21.3-5.1s-10.6-2.2-10.8-2.4c-.9-.7 2.1-4.4 3.6-4.4.9 0 7.4.9 14.3 2m-58.9 3.3c1.5.7 5.4 3.9 8.8 7.1 6.7 6.4 6.6 7.6-.2 7.6-3.9 0-6-1.5-8.3-6.1-.9-1.6-1.8-2.9-2.1-2.9s-2.4 1.6-4.7 3.5c-4.5 3.9-5.3 4.1-8.2 1.9-1.9-1.5-1.8-1.7 4-6.9 6.5-5.9 6.7-6 10.7-4.2m-451.5 45.5c6.8 3.6 11.4 8.3 14.5 14.7l2.8 6v264.2l-3.1.7c-4.9 1-35.6.7-43.2-.4-8.5-1.3-15.5-4.7-20-10.1-7.1-8.3-6.7.3-6.7-136.9V619.4l2.6-5.2c5.1-10.2 10.8-12.3 32.9-11.9 14.3.2 16.5.5 20.2 2.5m258 66.2c1.4 2.6 1.8 5.9 1.8 13 0 11-2 16.3-8.5 22.6-2.1 2.1-3.7 4.1-3.5 4.4.2.4 5.5 1 11.8 1.3 6.2.4 13.7 1.4 16.7 2.3 13.8 4.1 25.8 13.1 30.6 23.1 1.5 2.9 3.1 5.6 3.6 5.9s24.4 1.2 53.1 2c79.4 2.1 147.4 6.2 153.6 9.2 1.9.9 7.1 5.7 11.5 10.7 14.6 16.3 20.8 21.8 28.1 25.4 11.8 5.9 19.1 5.3 25.9-1.8 12.3-12.9-.3-44.2-24.7-61-6.6-4.5-17.7-9.4-27.2-11.9-4.4-1.2-19-3.5-32.5-5.2-32.9-4.1-50.1-7.8-56-12.1-2.3-1.7 15.6-.3 28 2.1 5.8 1.1 21.5 3.4 34.8 5 17 2.1 26.7 3.8 32 5.6 15 5 27 13.3 35.7 24.9l5.6 7.5h8.2c21.9.1 65.8 1.1 70.6 1.5 10.1 1 18.4 7.4 23.1 17.6 1.8 4.1 2 6.7 2 40.1V839l-109.7.1c-60.4 0-170.4.1-244.4.2l-134.5.2-3.3-2.8c-7.8-6.5-4.4-6.2-63.6-6.7-61.4-.6-56.8.1-63-9.3-5-7.6-6.8-15.7-6.9-31.7-.1-10.2.3-14.9 1.7-19.1 2.5-8.3 8.7-17 15.3-21.5l5.6-3.9h62.2c56.1 0 62.9.2 70.5 1.8 12.5 2.7 23.4 6.3 35.1 11.7 26.3 12 40.1 13.8 49 6.4 11.2-9.5 6.6-27.2-9.3-36.3-11.3-6.4-18.3-7.9-42.7-9.1-12.4-.6-22.6-1.3-22.8-1.4-.1-.2 3.5-2.8 8.1-5.9 16.2-10.7 22.5-21.9 22.9-41 .2-7.8.2-7.8 2-5.5 1 1.3 2.6 3.9 3.5 5.8M216 906.7c0 1.3-2.3 40.8-3 51 0 .2-12.4.3-27.5.3H158l.5-2.3c.2-1.2 1.6-10.3 3-20.2s3-20.8 3.6-24.3l1.1-6.2h24.9c23.1 0 24.9.1 24.9 1.7m562-1.3c0 .3 2 11.8 4.5 25.7s4.5 25.6 4.5 26.1c0 .4-120.1.8-267 .8-259.8 0-267-.1-267-1.9 0-1 1.6-12.7 3.5-26.1s3.5-24.4 3.5-24.6 116.6-.4 259-.4c142.5 0 259 .2 259 .4m65.7 24.6c1.8 12.4 3.2 23.8 3.2 25.3l.1 2.8-12.7-.3-12.8-.3-.3-24.2-.2-24.3 2.2-.4c5-1.1 7.5-1.4 12.3-1.2l5 .1z"/></svg>