<svg xmlns="http://www.w3.org/2000/svg" width="1365.333" height="1365.333" preserveAspectRatio="xMidYMid meet" version="1.0" viewBox="0 0 1024 1024"><g fill="#000" stroke="none"><path d="M545.9 2.2c-.1 1.3-.1 2.5-.1 2.8 1 15.6 2 52.3 2.3 82.5 0 2.5-1 13.4-1.7 17.7-.3 2.6-.3 5.5.1 6.5.9 2.2.9 15.1.1 28.8-.5 8.6-1 41.4-.8 54 0 2.2-.1 6.5-.3 9.5-.7 12.9-.3 59.8.5 60.7.2.2.3.6.4 1 .1.5.4 1.2.7 1.8.3.5.2 4.6-.3 9-2.1 17.4-2.4 32.1-.9 35.9.9 2.3.9 3.3-.4 5.2-.8 1.3-2.4 2.4-3.3 2.4-1 0-2.9 1.2-4.3 2.6-3.4 3.7-5.9 4.5-8.8 2.7-2-1.3-3.3-1.3-8.4-.3-7.2 1.4-9 .2-7.7-5.3 1.6-7.5-4-38.2-9.1-49.3-1.1-2.2-1.9-4.7-1.9-5.5s-1.1-3-2.3-4.9c-2.7-4-5-8.9-6.7-14.2-1.4-4.5-9-14.7-15.6-20.9-7.3-6.8-19.6-16.9-20.6-16.9-.4 0-2.7-1.4-5-3.1-9.5-6.8-28.1-12.4-49.8-15-44.3-5.4-77.7-6.6-124-4.5-8.5.3-26.3 1.1-39.5 1.6-13.2.6-27.8 1.3-32.4 1.6-4.7.3-11.4.7-15 .9s-13.1.9-21.1 1.5c-29.8 2.2-47 2.9-67 3-17.6.1-35.8 1.5-44.8 3.5-1.2.3-2.8 1.7-3.4 3-1 2.1-.8 2.8 1.2 4.5 3.3 2.9 6 3.3 13.8 2.5 3.7-.4 17.7-.9 31.2-1 27.4-.2 46.4-1.1 57.8-2.6 18.3-2.4 24.4-2.9 42-3.4 10.3-.3 23.4-.7 29.2-1s20-.8 31.5-1.1c11.6-.4 21.3-.8 21.8-1.1 1-.6 64-.5 69 .1 2.3.3 9.1.8 15 1.1 6 .3 14.5 1.1 19 1.6 4.5.6 11.4 1.5 15.2 1.9 19.8 2.4 37 7.9 46.4 14.7 2.5 1.8 5.9 4.1 7.5 5.1 5.7 3.4 13.2 10 17.3 15.3 7.6 9.8 13.3 17.7 13.3 18.5 0 .5 1.2 3.1 2.6 5.9 1.4 2.7 3.2 8.6 4 13 .9 4.4 2 8.4 2.5 8.9.5.6.9 2 .9 3.3s.9 5.6 1.9 9.6c3.6 13.6 4.3 18.8 3.6 26.3l-.7 7.2-5.6 2.5c-14.2 6.2-15.7 6.2-27.2-.4-11.9-6.9-35.6-18.8-43.5-21.9-7.6-3-18.7-10.4-24.5-16.5-4.1-4.2-8.9-7.2-14.7-8.9-3.1-1-7.8 1.7-11.2 6.4-2.2 3.1-3.3 6.3-4.6 13.8-.9 5.3-2.1 11.3-2.5 13.2-.5 1.9-1.4 8-2 13.5-.7 5.4-1.7 11-2.4 12.4-.8 1.5-2.6 7.1-4 12.6-1.5 5.5-3.2 10.8-3.7 11.7-.5 1-1.3 2.6-1.9 3.5-.8 1.7-4.5 9.7-8.3 18.3-.8 1.9-2.9 6.4-4.5 10-7.5 16.6-7.1 15.5-12.1 33.5-1.9 6.6-6.1 24.1-7.6 31.2-.3 1.7-1.5 4.8-2.6 6.9-1 2.1-1.9 5.3-1.9 7 0 1.8-.9 6-2 9.5-1 3.5-2.2 9.1-2.5 12.4-.4 3.3-1.3 8.8-2.2 12.1-1.1 4.3-1.3 8.1-.9 12.5.4 3.5.9 8.5 1.1 11 .4 5.3 1.5 4.4-13.5 10.4-18.7 7.3-26.5 10.6-29.5 12.2-1.6.9-6.1 3.1-9.9 5-3.7 1.9-9.3 4.9-12.2 6.8-3 1.9-5.8 3.5-6.2 3.5-.4.1-3.6 2.3-7.2 5-3.6 2.8-9.5 7.1-13.2 9.6-3.8 2.5-6.8 4.9-6.8 5.3s-2.9 2.8-6.4 5.4c-7.5 5.5-21.2 19.7-26.1 27.1-1.9 2.8-5.5 7.8-8 11.1s-7.3 10.7-10.7 16.4c-3.5 5.7-8.8 13-11.8 16.1l-5.5 5.8-7.5.6c-4.1.4-13.8 1.7-21.5 2.8s-17.8 2.2-22.5 2.3c-4.7.2-11 .8-14 1.4s-7.6 1.5-10.3 2.1c-2.6.5-5.6 1.4-6.6 2-1.1.5-3.1 1-4.5 1-5.7 0-11.6 9.1-6.8 10.6.9.3 2.4.9 3.3 1.4 1.6.8 14.1-.4 16-1.6 2.1-1.3 11.5-2.2 12.7-1.2.8.7 4 .8 9 .3 4.2-.4 9.1-.9 10.9-1 1.7-.1 3.9-.7 4.7-1.4 1.1-.9 2-1 3.6-.1 1.1.6 2.9.8 4 .5 1-.3 4.2-1 7-1.4 6.7-1.1 7.4.5 2.9 5.8-4.9 5.7-9.9 12.6-9.9 13.8 0 .6-1.1 3.5-2.4 6.4-4.4 9.7-6.7 46.8-3.7 59.9 3.1 13.8 5.1 21.2 7 25.5 1 2.2 2.6 5.6 3.4 7.6 4.7 10.4 15.5 23.1 30.5 35.8 6.3 5.3 14.7 12.4 18.8 15.8 4 3.5 7.6 6.3 7.9 6.3.4 0 3.9 1.9 7.8 4.3 4 2.4 9.7 5.6 12.8 7.2 3 1.5 7.3 4.3 9.5 6.2l3.9 3.3h-2.9c-1.6 0-3.7-.7-4.7-1.6-1.2-1.1-2.3-1.3-3.6-.6-1 .5-2.4.7-3.2.4-1.3-.4-8.6 1.5-10.6 2.8-2.5 1.8-6.7 2-9.5.5-2.7-1.4-8-1.5-44.3-.9-22.6.4-48.9.7-58.4.8-19 .1-20.7.6-18.3 5.2 2 3.6 5.8 5.3 15.3 6.7 5.2.7 8.8 1.8 9.9 2.9 1 1 3 1.8 4.5 1.9 12 .3 17.5.2 22.3-.4 3-.4 8-.9 11-1.3 6.7-.6 14.6-2.2 18.1-3.5 1.5-.6 5.7-1.2 9.5-1.4s11.1-.6 16.2-1c6.3-.5 11.2-.3 15.2.5 4.5.9 6.3 1 7.3.1 1.7-1.4 6.2.6 9.7 4.4 1.3 1.4 2.9 2.5 3.7 2.5.7 0 2.5 1.7 4 3.7 4.6 6.3 6.7 8.3 8.4 8.3 1.6 0 6.9 4.6 6.9 6 0 .4-.9 1-2.1 1.3-1.4.4-1.8 1-1.3 1.9 1.2 1.9 1.4 8.7.3 9.4-1.4.8-1.1 6.8.6 10.7 1.7 4.2 1.9 5 .6 4.3-3.2-2-7.3 4.5-4.6 7.4.8.9 1.5 2.4 1.5 3.3s2.5 3.5 5.5 5.8c4.7 3.6 5.9 4 7.8 3.2 1.2-.6 5.8-1.6 10.2-2.3 4.4-.6 8.4-1.5 8.9-2 .9-.9.4-8.5-.8-11.3-.5-1-.4-1.7.3-1.7.6 0 1.1.7 1.1 1.5 0 1.8 11.2 18.5 13.8 20.8 5.1 4.3 19.9 5 27.8 1.3 8.3-3.8 12.4-8.3 18.1-19.8 5.1-10 5.3-10.7 6.2-21.8.9-12 .3-18.4-2.5-28.8-.9-3.1-1.9-7.3-2.3-9.2-1-4.8-12.5-26.3-17.5-32.8-2.2-2.9-5.4-7-6.9-9-1.6-2-5.1-5.9-7.8-8.6-2.7-2.6-4.3-4.6-3.4-4.2.9.3 1.8-.1 2.1-.9.8-2.1 7.3-1.9 10.4.2 1.4.9 4 3 5.9 4.6 3.2 2.7 3.9 2.9 9.5 2.4l6.1-.6 4 4.6c13 14.8 15.4 17 22.3 19.6 9.8 3.8 22.2 4.5 32.7 1.9 4.4-1.1 9.7-2.8 11.8-3.7 4.2-1.8 8-7 7.2-10-.2-1.1.5-5.3 1.6-9.3 2.3-8.3 2.3-8.2-3.6-21.6-.8-1.9-1.5-4-1.5-4.8s-1.6-2.9-3.5-4.8c-4-3.9-4.3-5-1.6-5 1.1 0 2.3-.5 2.6-1 .8-1.4 2.8-.1 2.2 1.4-.3.6.3 2.7 1.2 4.6 1.6 3.5 1.7 3.5 8.1 3.6 8 .1 12.7 1.1 16.2 3.5 1.4 1.1 3 1.9 3.5 1.9.6 0 1.8.9 2.7 1.9 2.2 2.4 14.1 4.6 20.2 3.7 7.1-.9 15.6-4.4 19-7.7 8.8-8.5 9.6-21.8 2.3-36.3-2.2-4.5-5.9-10.4-8-13.3-4.1-5.2-15.1-13.3-18.2-13.3-.9 0-1.7-.4-1.7-.9 0-.9 7.3.4 9.3 1.6 1.4.8 16.2.4 22.7-.7 3-.5 8.5-1.4 12.2-2.1 4.8-.8 7.6-.8 10.2 0 2 .6 5.1 1.5 6.9 2.1 1.7.5 7.7 1.6 13.2 2.5 5.5.8 13.2 2.2 17 3 3.9.8 11.7 1.7 17.4 2 8.1.5 10.9 1 13 2.6 2.6 1.9 8 3.3 19.1 4.8 5.9.8 12.3 3.2 13.4 5 .4.6 1.8 1.1 3 1.1 1.3 0 4 1.1 6 2.5s4 2.5 4.4 2.5c.6 0 6.9 2.9 13.7 6.3 4.8 2.5 24.5 2.5 30.6.1 13.2-5.3 17.9-12 17.9-25.5 0-10.6-7-25.9-16.1-35.3-8.9-9-8.9-9.1-1.3-5.1 3.8 2.1 8.7 5.8 10.9 8.3 3.3 3.6 4.5 4.3 6.2 3.8 1.4-.4 3.2-.1 4.8 1 1.4.9 2.5 1.3 2.5.9 0-.5.8-.1 1.8.7.9.9 4.1 2.1 7 2.7 3 .6 6.2 1.5 7.2 2.1 1 .5 3.3 1.1 5.1 1.2 1.9.1 4.5.8 5.8 1.5 2.6 1.3 4.6.8 3.6-.8-.4-.5-.2-.9.3-.9.6 0 1.2.7 1.6 1.5.9 2.5 5.5 1.8 6.8-1 1.4-3 2.9-3.2 5.4-.4 1.7 1.9 1.9 1.9 3 .4 1.3-1.7 3.2-.3 16.4 12.6 2.5 2.4 5.7 4.9 7 5.5 14.1 6.5 18.6 6.9 32.9 3.4 8.9-2.2 11.9-3.4 13.5-5.4 1.2-1.3 4.1-3.1 6.6-3.9 6.5-2.1 8.3-5.8 7.4-15.7l-.6-7.5 2 2.5c1.1 1.4 4.2 6.6 6.9 11.5 4 7.1 5.2 10.4 5.8 15.5.4 3.6 1.7 10.3 2.8 15 2 7.7 2.2 11.3 2.2 37 0 24.3-.2 28.9-1.6 31.5-.9 1.6-1.9 5-2.3 7.5s-1.8 6.2-3.1 8.2c-1.4 2.1-2.5 4.1-2.5 4.6 0 1-14.3 9.6-23 13.9-6.9 3.3-17 6.2-31 8.8-4.7.9-11.9 2.5-16 3.6-14.5 3.8-61.6 14.1-64 14.1-.8 0-3.7.6-6.5 1.3-2.7.7-7.7 1.8-11 2.4-3.3.7-9.8 2-14.5 3.1-10.3 2.3-25.9 4.9-32 5.4-8.5.7-25.5 2.7-31 3.7-3 .5-10 1.4-15.5 1.9s-12.9 1.6-16.5 2.5c-5.8 1.4-11 2.3-22 4-4.8.8-22.8 4.1-32.5 6.1-4.4.9-12.9 2.4-19 3.4-9.6 1.6-22.7 4.4-37.3 8-2.3.5-5.3 1-6.7 1s-4.4.4-6.7 1c-11.1 2.4-16.4 3.4-17.1 3.2-.5-.1-5.5.7-11 1.9-5.6 1.2-11.5 2.3-13.2 2.5-1.6.1-5 .7-7.5 1.4-2.5.6-6.5 1.6-9 2-10.9 2.1-14.9 3.2-20.5 5.4-3.3 1.3-11.2 3.3-17.5 4.5s-14.9 2.9-19 3.8c-4.1.8-9.5 1.9-12 2.4-5.2 1.1-16.1 2.7-27 3.9-4.1.4-10.4 1.5-14 2.5-3.6.9-9 1.8-12 2s-7.7.8-10.5 1.4c-8 1.8-17.6 3.2-22.5 3.2-2.5 0-6.1.5-8 1-3.2.8-7.3 1.3-28 3.9-4.1.5-10.9 1.4-15 1.9s-15.4 1.5-25 2.1-20.9 1.5-25 2.1c-4.1.5-9.9 1.2-12.8 1.4-3.2.2-6.2 1.1-7.3 2-1.9 1.8-12.2 4.4-17.6 4.5-1.7 0-3.5.5-3.8 1-.4.7 41.5.9 127.2.7 111-.3 128.8-.5 135.3-1.9 13.3-2.8 19.6-4.5 22.1-6.1 1.3-.8 4-1.8 5.9-2 8.9-1.3 22.2-4.7 26.1-6.7.9-.5 2.1-.4 2.6.1.6.6 1.4.4 2.3-.6.7-.8 2.5-1.5 4.1-1.5 1.5 0 3-.4 3.4-.9.7-1.2 6.4-4.1 8.1-4.1.7 0 1.7-.7 2.2-1.7.8-1.3 2.6-1.6 11.3-1.5 6 0 10.9-.4 11.6-1s1.3-.7 1.3-.2.7 0 1.6-1.1c1.4-1.9 1.6-1.9 4.6-.2 3.1 1.8 3.2 1.8 4.7-.2 1.1-1.4 3-2.1 6.1-2.3 3.2-.2 4.5-.7 4.5-1.8 0-1.8 1.2-2.1 4.2-1.4 1.1.3 3.1 0 4.3-.6 1.8-1 2.1-1.8 1.7-4.6-.5-3-.4-3.3 1.2-2.4q1.8.9 3-.3c1-.9 1.5-.8 2.3.7 1 1.8 1.1 1.8 2.9-.5 1.5-2 2.1-2.2 3.6-1.3 1 .6 3.5.9 5.7.7 2.1-.2 4.5.2 5.3.8 1.1 1 1.5.8 2-1 .5-2 .7-2 2.3-.6 1.8 1.7 5.7 1.5 6.9-.3.5-.8 1.8-.7 5 .4 3 1 4.7 1.2 5.6.4.9-.7 1.6-.6 2.3.3 1.2 1.5 6.8 1.1 8.9-.5.7-.6 1.4-.5 1.8.2s1.1.7 1.8.2 3.1-1 5.5-1.1c2.3-.1 5.7-.7 7.5-1.2 1.7-.5 6.8-1.2 11.2-1.5 4.4-.4 8.6-1.2 9.4-1.8s2.4-1.1 3.5-1.2c5.5-.2 13.3-1.7 14.6-2.9.8-.7 6-1.9 11.5-2.5 5.5-.7 10.5-1.7 11.2-2.2s1.6-.7 2.1-.4c1 .6 15.8-1.9 22.9-3.9 2.8-.8 6.3-1.5 7.7-1.5 1.5 0 3.7-.6 4.9-1.4 1.2-.7 4.3-1.6 6.8-1.9 8-1 15.4-5.2 15.4-8.7 0-2.2.9-3 4.5-4.5 3.4-1.4 6.5-3.5 6.5-4.5 0-1.2.5-1.3 2.9-.4s7.2-2 6.8-4.1c-.4-2 .8-1.9 2.4.2 1.2 1.7 1.4 1.7 4.4-.5 1.7-1.3 3.8-2.1 4.7-1.8.9.4 3-.5 4.9-1.9 2.8-2.1 4.6-2.6 11.1-2.8 4.3-.2 8.8-.9 10-1.5 1.2-.7 2.8-.9 3.7-.6s1.9-.3 2.6-1.5c.9-1.7 1.5-1.9 3-1.1 1.1.6 3.1.8 4.5.4 1.4-.3 3.1-.1 3.9.5.8.7 2.5.9 4 .5 1.5-.3 4-.1 5.6.6 2.8 1.1 3.6 1 9.3-2 3.4-1.8 7.2-4.3 8.5-5.6 2.3-2.3 4.2-2.6 18.2-3.8 7.7-.7 10.1-1.5 13.5-4.6 1.7-1.5 3.8-3 4.8-3.3.9-.4 1.7-1.3 1.7-2.1 0-1.8 8-9.7 9-9.1.9.5 1.6 4.2 2.6 13.5.9 8 .6 41.6-.5 55-1.1 13.3-.7 16 2.4 19 1.8 1.7 2.7 1.9 4.8 1.1 3.3-1.3 4.1-5.3 3.3-16.4-.8-11.5-.9-42.5-.2-46.7.8-3.7-1.8-26.2-3.3-28.7-.5-1-.3-2.6.5-4.2.8-1.4 1.4-3.6 1.4-4.8s.4-2.4.9-2.8c1.5-.9 4.1-6.6 4.1-9 0-1.1.4-2.5.9-3.1 2.2-2.4 4.1-16.8 4.5-34.9.5-22.5-.7-39.1-3.3-47.8-1-3.4-1.9-8.4-2-11.2 0-3.5-1.1-7.1-3.6-12.2-1.9-3.9-3.5-7.5-3.5-8s-1.1-2.5-2.5-4.5c-3.1-4.5-3.1-5.5-.2-5.4 2 .1 2.2-.3 1.9-5.1-.2-2.8.2-8 .9-11.5.9-4.4 1.3-19.3 1.4-49.3 0-26.6.5-46 1.2-51 1.3-8.8 4.2-21.5 6.6-28.5.9-2.5 2.1-6.4 2.7-8.8s3.1-7.6 5.5-11.7 4.6-8.4 5-9.7 2.7-5.1 5.1-8.6 4.4-6.9 4.4-7.7 2.3-3.3 5.1-5.7 7.1-6 9.6-8c2.4-2.1 5.5-3.8 6.8-3.8 1.2 0 6.1-1.3 10.6-2.9 9.9-3.4 18.5-5.1 26-5.1 3 0 6-.4 6.8-.9 2.2-1.4 5.8.9 12.2 7.6 6.8 7 14.8 22.8 18.3 35.5 2.1 7.5 2.2 9.4 1.5 19.8-1.9 25.8-2.6 30.4-5.9 39.5-1.7 4.9-3.6 10.5-4.1 12.2-.6 2.1-5.2 7.5-12.4 14.8-10.4 10.6-11.6 12.2-14.3 19.3s-3 9.1-3.7 25.2c-.4 9.6-.9 46.1-1.1 81s-.9 67.3-1.4 72c-1.5 12.6-1.7 47-.3 49.6.7 1.2.8 2.5.4 3s-1.3 5.4-2 10.9-1.6 12.7-2.2 16c-.5 3.3-1.3 9.9-1.9 14.6-1.7 16.1-5.8 20.5-31.5 33.2-4.9 2.4-37.5 11-46.5 12.2-2.5.4-5.4 1-6.5 1.5s-6.9 1.8-13 3c-6 1.2-13.5 2.7-16.5 3.5-13.4 3.4-31.9 7.8-36 8.6-2.5.4-7.6 1.5-11.5 2.4-3.8.9-10.1 2.3-14 3.1-3.8.8-11 2.5-16 3.8-14.4 3.7-18.4 4.6-21 4.6-1.3 0-2.7.5-3 1-.4.7 10.5 1 31.9 1 30.5 0 32.6-.1 32.6-1.8 0-2.2 8.6-4.6 34.3-9.5.8-.1 1.3 1.9 1.5 5.5l.3 5.8h86.2l-.4-16.1c-.3-13.6-.2-16.3 1.1-17 .8-.4 3.8-1.9 6.5-3.2 21-10.3 29.7-18.3 30.8-28.6.2-1.5.6-3.1.9-3.6.3-.6.9-5 1.2-9.9.4-4.9.8-9.2 1-9.5s.7-5.8 1.1-12.1.9-13.8 1.1-16.5c.2-2.8.6-14.2.9-25.5s.7-21.6.9-23 .7-11.4 1.1-22.3c.4-11 1.2-20 1.7-20.3.6-.4.8.2.4 1.4-.4 1.1-.2 2.3.4 2.7.7.4 1.4-.2 1.7-1.3q.45-1.95 2.4-1.5c1 .3 1.7.9 1.4 1.3s.4 1.9 1.5 3.3c1.9 2.3 2.6 2.5 6.8 2 6-.7 11.8 1.6 13.2 5.2.9 2.4 3.8 3.2 10.1 2.6.9-.1 1.9.5 2.2 1.4.4.8 1.6 1.5 2.7 1.5 1.2 0 1.9.4 1.5.9-.3.5-.1 1.3.5 1.6 1.3.8 7.3-4.2 7.6-6.3.3-1.9 2.5-3.3 4.1-2.7.7.2 1.5 0 1.8-.5.4-.6 1.7-1 3.1-1 3.8 0 4-2.6.7-7.3-1.7-2.3-3.4-5.7-3.8-7.6-1-4.8-.8-22 .3-23.4.5-.7 1.5-3.7 2.2-6.7s1.6-6.5 2.1-7.7c.6-1.7.3-2.9-1.5-5-2.2-2.6-2.3-3.1-1-5.3 1.8-3.4 1.7-4.8-1-10.2-1.2-2.6-1.8-4.6-1.2-4.5s1-.6.8-1.7c-.2-1 .6-2.4 1.7-3.2 1.9-1.4 2.1-2 2.2-7.2 0-1.2 1.3-3.7 3-5.4l2.9-3.2-2.7-2.2c-2.4-1.9-3-2-4.8-.8-2.9 1.9-3.9.6-1.9-2.4.9-1.4 1.2-3 .8-4-.4-.9-.6-2.1-.5-2.6.1-.4-.4-1.5-1.1-2.3-1.1-1.3-1.3-8.1-.2-9.2.2-.2 1.4-.5 2.8-.6 1.4-.2 2.9-.6 3.4-.9 1.8-1.1 1.9-5.5.3-7.8-.9-1.3-1.6-3.6-1.6-5.3 0-1.6-.4-3-1-3-1.8-.1-4-2-5.5-4.8-1.1-2.3-1.2-3.2-.1-4.9.7-1.1 1.3-3.8 1.3-5.9 0-3.4.2-3.7 1.3-2.3 1.3 1.8 2.6.8 2.1-1.7-1-5.1-2.9-10.1-4.2-10.6-1.2-.4-1.1-.8.6-2 2.3-1.6 2.7-6.1.5-6.9-.9-.4-1.5-1.9-1.5-4 0-2.2-.6-3.7-1.5-4-.8-.4-1.5-1.2-1.5-1.9s-.7-1.8-1.6-2.6c-1.4-1.2-1.3-1.4.7-2.1 1.2-.5 4.8-.6 7.9-.2 4.1.4 5.9.3 6.6-.7 1.8-2.3 4.6-15.8 3.9-18.8-.3-1.6-.2-3.2.3-3.5.6-.3 1.9-2.4 3.1-4.7l2.1-4-2.2-4.7c-1.2-2.6-2.5-6.1-2.8-7.7l-.5-3-13.5-.3c-7.4-.1-14.1-.5-14.7-.7-.8-.2-1.3-2.1-1.3-4.4 0-5.2-2.5-18.2-4.3-22.3-.8-1.8-2-5.3-2.7-7.7-.6-2.5-2.3-5.9-3.6-7.6-2.4-3.2-3.3-6.1-1.5-5 .5.3 1.2.1 1.6-.5.3-.5.7-17.1.7-36.7.1-19.7.3-43.4.6-52.6l.4-16.8 16.2.1c8.8.1 16.6.1 17.2.1 1.3-.1 1.5-3.2.2-4.8s-.1-3.3 2.1-3.3c1 0 2.6-1.1 3.4-2.3 1.4-2.2 1.4-2.6-.8-5.3-3.2-3.8-3.1-5.7.5-11.1 1.7-2.4 3-4.9 3-5.6s-1.2-3-2.6-5.1c-2.3-3.4-2.5-4.4-1.9-9.3.5-4.5.3-5.8-1.1-7.4-1.5-1.6-1.6-2.4-.7-3.9 1-1.4.9-2.1-.2-3-2.4-2-1.9-4.3.8-3.5 3.6 1.2 4.1 1.1 4.5-.7.2-1-.6-3.1-1.7-4.7-2.5-3.5-2.6-4.1-.3-8 1.6-3 1.6-3.2 0-6.2-2.4-4.1-2.3-8.2.2-10.4 4.1-3.7 2-9.9-3.7-11-5.1-.9-5.5-1.3-4.1-3.8.6-1.2 1.2-3.5 1.3-5.2.1-1.6.7-5.3 1.3-8 5.1-25.1 5.2-25.9 4.7-39-.8-20.2-.7-22.7.9-23.7 1.2-.8.9-7.8-.5-9.2-1.1-1.2-1.2-6.3-.1-7 1.3-.8 1.3-6.7.1-8.2-.9-1.1-.8-2.1.1-4.4 1.3-3 .9-11.7-.7-18.5-1.2-5.2-.6-14.4 1.2-17.2 1.4-2.1 1.5-3.3.7-6.7-2-7.6-2.1-8.7-1-11.7.8-2.5.7-3.4-.8-5-1.1-1.2-1.7-3.2-1.6-4.5.2-1.3-.6-3.7-1.7-5.3-2-2.8-2.1-3-.4-6.1 1.8-3.1 1.8-3.1-.6-5.1-2.5-2.1-2.4-2.5 1.1-4.4 1.3-.6 2.1-1.8 1.9-2.6-.4-1.7-.2-13.1.2-13.6.2-.1 1.9.2 3.7.7 2.9.8 3.8.7 5.3-.9 2.3-2.3 1.5-4.1-1.8-4.1-1.3 0-2.7-.5-3-1-.4-.6-1-.8-1.5-.5-1.3.8-4.2-2.6-3.6-4.2.4-.8-.5-2.8-1.9-4.5-1.6-1.9-2.4-3.8-2.1-5.3.6-3.1-2.4-5.8-6.1-5.4-1.5.2-3.3 0-4-.4-.6-.4-1.5-.2-1.9.4-.5.8-.9.7-1.5-.2-.6-1-4.2-1.3-13.9-1.4-12-.1-13.3-.3-14.3-2-.7-1.3-1.2-11.6-1.3-29-.1-14.9-.5-30.2-.9-34-.4-3.9-1-11.1-1.4-16l-.6-9-37.1-.3-37.2-.2-1.5 3.2c-1.2 2.6-1.7 9.1-2.2 30.3-.3 14.8-.8 33.3-1.1 41-.2 7.7-.4 14.4-.4 14.8 0 1.2-33.7.4-34.9-.8-.6-.7-.3-2.4.9-5 1.4-2.8 1.9-6.3 2-11.8 0-4.2.4-7.7.9-7.7s.6 4.8.3 10.8c-.4 9-.2 10.9 1.1 12.1 3.5 2.9 4 1 4-16 0-9.1-.3-17.1-.7-17.8-.4-.6-.3-1.7.2-2.4.6-.7.9-11.1.8-25.7L822.5.5l-2.7-.3c-2.2-.3-2.7 0-2.2 1.2.3.9.1 1.6-.5 1.6s-1.1-.7-1.1-1.5c0-1.3-3-1.5-21-1.5h-21l.1 12c.1 6.6.5 12.2.8 12.5.4.2.8 5.3 1 11.4.1 6 .4 12.7.6 14.8s.7 10.3 1 18.3c.4 10.2 1 14.9 2 16 2.8 3.1-2.2 6-10.6 6-3.9 0-4.9-.3-5.1-1.8-.6-5.9-1.7-50.9-1.7-72.5L762 0h-21l.6 40.7c.3 22.5.2 42.6-.3 44.8l-.9 4-19.2-.2c-12.9-.2-20-.7-21.5-1.5-1.2-.7-2.6-1.1-3.2-1-.5.1.2-.8 1.8-2.1 2.7-2.3 2.7-2.3 3-16.8.1-7.9 0-26.4-.2-41.2L700.7 0h-79l.8 6.7c.5 3.8.9 23.7.9 44.4l.2 37.5-12.1.3c-16.6.5-24.5.4-25.1-.2-.2-.2-.6-15.9-.8-34.8-.1-18.9-.6-35.5-1-36.9s-.7-5.8-.7-9.8V0h-19c-18.9 0-18.9 0-19 2.2m271.3 8c.2 2.1 0 3.8-.4 3.8s-.8-2.1-.7-4.8c.1-5.2.6-4.8 1.1 1m-.1 9.9c-.9 2.3-1 2.2-1-1.1q-.15-3.45.9-2.4c.7.7.7 1.9.1 3.5m-28.8 66.1c.7 2.7.1 3.8-2.2 3.8-1.8 0-3.5-3.5-2.5-5.2 1-1.6 4.2-.8 4.7 1.4m-146.4 48.4c10.8.4 14.9.9 13.7 1.6-1.2.6-1.4 1.3-.8 2.1 1 1.1 1.6 4.7 1.3 7.4-.1 1-3.8 1.3-15 1.3-17.5 0-17.4-.1-17.9 10.1-.3 4.2-1 7.3-1.8 8-1.5 1.2-18.6 1.3-28.9.1l-6-.7v-30l9.5-.5c10.6-.6 23.2-.4 45.9.6M663 136c0 .5-.4 1-.9 1-.6 0-1.3-.5-1.6-1-.3-.6.1-1 .9-1 .9 0 1.6.4 1.6 1m99.7 26.3 12.2-.3.6 4.3c.9 5.8-.3 142.6-1.2 150.7l-.8 6.5-18.5.3c-10.2.1-19.1-.2-19.8-.6-1-.7-1.1-1.5-.4-2.8 3-5.9 3.3-8 3.6-25.2.2-10-.1-18.5-.5-18.8-.5-.3-.9-1.3-.9-2.4 0-1-.7-2.1-1.6-2.4-.8-.3-1.2-1-.9-1.6.4-.6 1-.8 1.5-.5 1.5.9 3.2-2.5 2.8-5.7-.3-1.8-.2-4.4.3-5.8 1.2-4.1 2-17.2 1-16.6-.5.4-1.3.2-1.6-.4-.4-.6-.1-.9.6-.8 1.8.4 2.6-4.1 2.8-14.3.1-5.2-.3-8.9-1.1-9.7s-.8-1.5 0-2.4c.6-.7 1.1-6.7 1.2-13.8.1-6.9.3-17.1.4-22.8.2-8.2-.1-10.5-1.2-11.1-.8-.5-1.2-1.4-.8-2s1.2-.9 1.7-.6c.5.4.9-.1.9-1 0-1.3.6-1.5 3.8-.8 2 .4 9.2.7 15.9.6M696.4 174h7.8l-.7 11.2c-.3 6.2-.8 27-1 46.3-.1 19.2-.6 40.4-.9 47-.4 6.6-.9 19.2-1.1 28l-.5 16-7.2.1c-4 .1-11.7-.1-17.2-.5l-9.8-.6v-68c.1-37.4.1-70.9.2-74.4v-6.4l11.3.6c6.1.4 14.7.7 19.1.7m193.3 11.4c4.2.2 5 1.2 2.9 3.5-1.4 1.5-2 4.8-2.7 14.3-1.1 14.1-2 21.6-4.9 37.8-1.1 6.3-2.3 15.1-2.6 19.5s-.9 10-1.4 12.5c-.6 2.5-1.2 7-1.4 10-.3 3-1.4 11.9-2.5 19.8-1.2 7.8-2.1 15.8-2.1 17.7 0 1.8-.4 3.6-.9 3.9s-5 .3-9.9 0c-8.2-.6-9.1-.9-9.4-2.8-.4-2.7.8-17.8 2.2-28.1.6-4.4 1.3-9.5 1.6-11.3.2-1.8.9-9.7 1.4-17.5s1.5-19.3 2.1-25.6c.6-6.2.8-12.4.5-13.7-.3-1.2-.2-2.6.4-2.9.5-.3 1-3.7 1-7.4s.3-12.3.7-18.9l.6-12.2 10.6.6c5.8.3 12 .7 13.8.8m-46 105.8c-.3.7-.5.2-.5-1.2s.2-1.9.5-1.3c.2.7.2 1.9 0 2.5m73.1 18.8c.7 1.2 1.7 1.8 2.2 1.5.6-.3 1.1.2 1.1 1.2.3 4.3.5 4.8 1.7 4.5.8-.1 1.1.2.7.8s.1 1.7 1.1 2.5c2.5 1.8 1 3.2-4.3 4.1l-4.3.7v-4c0-2.2-.3-6.1-.6-8.7-.7-4.9.3-5.9 2.4-2.6m-133.3 6.5c.1 1.3 1 3.4 2 4.5 1.8 2 1.8 2-1.8 2H780v-4.8c0-2.7.3-5.2.7-5.5 1.1-1.1 2.7 1.1 2.8 3.8m38.5 6.7c0 1.3-2.3.5-2.8-1-.2-.7.2-1 1.2-.6.9.3 1.6 1.1 1.6 1.6m21-.2c0 .5-1.2 1-2.6 1s-2.3-.4-1.9-1c.3-.6 1.5-1 2.6-1 1 0 1.9.4 1.9 1m-181 42.4c21.3.7 33.8 1.3 41.5 2.1 2.2.2 15.9.6 30.5.9 41.7 1 59 2 59 3.5 0 .9-4.5 2.2-14.2 4.2-9.9 2.1-15 7-10.1 9.7 1.5.9 1.5 1.2.1 4.3-1.1 2.2-1.5 5.5-1.3 9.4.1 3.5-.2 6.7-.9 7.7-.9 1.3-1 3.3-.2 7.8.8 5 .7 6.9-.7 10.7-1.7 4.5-1.6 4.8.4 10.5l2.1 6-2.7 2.8c-2.1 2.2-2.6 3.5-2.1 5.5.4 1.4 1.4 2.9 2.4 3.2 2.7 1 3.1 2.3 2.6 9.1-.3 4.1 0 6.9.7 7.8 1 1.2-.6 1.4-10.4 1.3-6.4 0-12.1.2-12.7.6-1.8 1.1-1.1 4.4 1.3 5.8 4.1 2.6 17.3 5.3 29.7 6.2 10 .7 12.7 1.1 24.5 3.4 10.6 2.1 34.6 7.7 45 10.6 2.8.7 9.6 2.5 15.2 4 9.8 2.5 15.7 4.7 27.3 10.3l5.5 2.7-4 .7c-2.2.4-5.7.7-7.7.7-7.6.2-27.8 5.9-33.3 9.5-7.7 5.1-21.1 20.8-25.8 30.4-1.8 3.7-4.2 8.3-5.3 10.2-4.7 8.2-12.9 31-16.3 45.2-1.9 7.8-3.7 30.6-3.4 42.3.8 30.3-.1 73.9-1.6 78.2-.3.9-2.3 0-4.3-1.7-1.3-1.1-4.6-4-7.4-6.5s-5.7-4.5-6.5-4.5c-.8-.1-2.6-1.7-4.2-3.7-2.7-3.6-3-5.2-.5-3.7.7.5 2.7 1.4 4.5 2 2.9 1 3.4.9 5.4-1.2 1.2-1.3 2.5-2.1 3-1.9 1.6 1.1 1.9-1.6.5-5-.8-1.9-1.3-4.2-.9-5.1.7-1.8-2.6-5.7-4.3-5-1.9.7-2.4-5.5-.7-8.7 1.2-2.5 1.2-3.2 0-5-1.8-2.8-2.9-6.9-3.3-12.7-.3-3.1-1-4.9-2.4-5.9-2.4-1.6-2.5-2.9-.5-6.7 1.6-3.2 1.9-6 .7-6.8-.4-.2-.7-3-.7-6.1.1-4.9-.2-5.8-1.9-6.6-1.2-.4-3.4-1.9-4.9-3.2-2.4-2-2.9-3.2-2.9-7 0-2.5.3-5.5.7-6.6.3-1 .1-2.2-.5-2.6-.8-.5-.8-1.1-.1-1.9.6-.7 1.2-2.8 1.3-4.7.3-3.1 0-3.4-2.5-3.7-1.5-.2-2.5-.7-2.2-1.2.3-.4-.2-1.3-1-2-1.1-.9-1.2-1.7-.4-3.2 2.2-4.2-5.5-7.3-9.4-3.9-1.7 1.4-1.9 1.4-2.9-.2-.8-1.4-1.3-1.6-2.4-.6-.8.6-1.4 2-1.4 3.1 0 1.6-.3 1.7-2 .8-1.1-.6-2.5-.8-3-.5s-1.1.1-1.4-.4c-.4-.5-.2-1.2.4-1.6 1.5-.9 1.3-1.8-2-6.6-1.6-2.4-3-5.1-3-5.9s-1-3.5-2.2-6-2.2-5.6-2.4-7c-.1-1.4-.7-4.3-1.3-6.5-.8-3.1-.7-4.3.3-5.4 1.2-1.1 2.4-.8 7.9 1.8 3.5 1.7 8.3 5 10.6 7.3 3.6 3.5 4.4 3.9 5.5 2.7 2.9-3 2.8-5.6-.4-9.2-1.6-1.9-4.5-4.2-6.3-5.1-6-3-7.3-4.4-5.9-6.6 1.9-3.1 1.4-5.8-1.4-7.7-2.5-1.6-2.6-1.9-1.9-8.2 1.7-15.2.6-52.9-1.6-55.7-.5-.6-.7-2.8-.5-5 1.4-13.5 1.8-16.2 2.6-18.9 4.4-15 9-43.9 9-56.3 0-6.9-2.2-17.6-4.1-19.8-1.8-2.2-7.7-.8-17.2 4-15.9 8-24.2 15.5-39.9 35.6l-2.7 3.5-2.3-2.8c-1.3-1.5-3.6-3-5.3-3.3-1.6-.3-5.2-1.2-8-2-9.2-2.7-41.9-7.8-50.2-7.9-6.6 0-8.1-.3-8-1.5 0-.8-1.1-3.4-2.6-5.7-2.5-3.9-2.5-4.3-1.2-8 1.1-3.2 2.7-10.3 5.1-23 1-5.3 2.4-5.4 52.4-3.9m-81.9 12.8c4.6 6.2 9.6 13.4 11.2 16.2 3.1 5.6 10.2 13.3 13.2 14.2 1.1.4 3.3 1.7 4.8 3 1.6 1.3 4.1 2.4 5.7 2.4s3.2.4 3.5 1c.3.5 1.9 1 3.4 1s5 .7 7.7 1.5c2.7.9 7.8 2 11.4 2.5s9.2 1.4 12.5 2 9.6 1.3 13.9 1.7c8.7.6 13.1 2.3 13.1 5 0 3.3 3.6 1.3 11.4-6.2 8.5-8.1 17.8-16.1 25.5-21.8 5.1-3.8 16.7-10.7 17.9-10.7.4 0 .7 5.3.7 11.7 0 11.6-.9 17.6-4.8 35.8-7.1 32.4-7.2 33-4.6 44.7 2.3 10 2.2 37.6 0 47.2-1.9 8.1-7.6 17.6-10.6 17.6-1.1 0-5.2-1.1-9.2-2.4s-11.6-3.3-16.8-4.4c-21.1-4.6-27.3-4.9-30.1-1.6-2 2.4.6 4.1 7.9 4.8 8.4.8 21.8 3.8 34.2 7.6 5.2 1.6 10.6 3.2 11.9 3.5 2.1.7 2.3 1 1.5 4.9-.4 2.2-.8 6-.7 8.3 0 2.4-.1 4.3-.3 4.3s-8.8-4.3-19.1-9.5c-17.8-9-36.2-16.5-40.4-16.5-2.4 0-3.5 2.5-2 4.4.6.7 4.6 2.6 8.9 4.1 4.2 1.5 9.1 3.6 10.8 4.6s5 2.5 7.2 3.3c2.3.8 6.8 3.2 10.1 5.3 6 3.8 9.9 6.1 21.8 13 3.4 2 6.5 4.3 6.9 5.2 1 2.5 2.6 22.7 2.5 32.6 0 4.9-.7 15.1-1.6 22.5s-1.6 14.2-1.7 15c0 .8-.6 2.2-1.3 3-3.6 4.5-8.8 16.7-9.1 21.6-.3 5-.2 5.4 3.5 8.7 5.2 4.7 10.9 7.9 21.6 12.2 14.9 6 29.3 14.4 36.6 21.6 5.8 5.7 12.3 24.8 11.7 34.6-.3 5.3-2.2 6.6-2.5 1.8-.5-6.2-2.6-14.1-4.1-15.8-1.9-2.2-5.1-2.2-5.9 0-.4.9-.1 5.7.6 10.6 1.3 8.9 1.3 9-1 11.2-1.3 1.3-3.8 2.6-5.6 3-3.7.7-3.3 1.7-5.5-12.5-1.2-7.7-1.6-8.6-4.1-9.8-4.1-2-5.1-.8-4.2 5.2.5 2.8.9 8 .9 11.6.1 6.1 0 6.5-2.3 6.8-2.3.4-4.1-.2-10.9-3.8-1.8-.9-9-7.2-16-14.1-13.1-12.8-15.4-14.3-30.2-19.8-5.4-2-43.9-11.5-51.2-12.6-2.1-.3-3.8-.9-3.8-1.4 0-.4 2.4-2.1 5.3-3.6 10.3-5.6 24.2-17.1 25-20.9.1-.5-1.1-1-2.7-1.2-3.3-.3-8.5 2-17.1 7.9-8.5 5.8-25 13.3-33.1 15.2l-7 1.6-8.4-3.9c-4.7-2.2-13.7-5.6-20-7.7-6.3-2-15.4-5-20.2-6.6s-9.8-2.9-11.2-2.9c-1.5 0-3-.8-3.6-1.9-.5-1.1-2.7-2.5-4.7-3.2-2-.6-4.5-2.1-5.4-3.3-1.3-1.6-2-1.8-2.9-1-.9.9-.7 1.7.9 3.3 1.2 1.2 2.1 3.1 2.1 4.4s1 3.3 2.3 4.5c2.6 2.4 14.9 8.6 19.2 9.6 1.7.4 4.4 1.4 6 2.1 1.7.8 7.1 2.8 12 4.4 13.3 4.5 15.3 5.3 23 9.2 20.6 10.6 28.2 16.2 37 27.3 7.7 9.5 10.4 14.8 11.8 23.4.9 5.5.8 6.8-.8 10l-1.8 3.7-.8-3c-.5-1.7-.8-4.4-.7-6 .1-3.3-5.8-15.4-8-16.2-.7-.3-2 .1-2.7.8-1.2 1.2-1.1 2.4.6 7.9 3.6 11.3 2.3 18-3.6 18-1.7 0-2.5-1.2-4.3-6.9-2.7-8.3-5.6-12.3-8.6-11.9-2.9.4-3.2 4.6-.7 10.4 2.5 5.5 2.6 6.8.6 8.4-1.1.9-2.6.8-7.1-.5-7.8-2.3-12.4-5.4-17.7-12.2-6.3-8-17.7-15.4-29.6-19.2-5.1-1.7-10.3-3.1-11.5-3.1-1.1 0-5-.6-8.6-1.4s-10.8-2-16-2.6c-14.5-1.7-35.1-5.8-42.7-8.4-3.7-1.3-11.2-4.7-16.6-7.5-10.4-5.5-14-6.1-14.5-2.3-.4 2.5 2.4 6.4 7 9.9l3.2 2.3h-3.7c-7.5 0-35.7 5.3-47.3 8.8-4.7 1.5-7.5 3.2-6.9 4.3 1.5 2.3-5 3.1-17.5 2.1-6.9-.5-14.3-.8-16.5-.6-9.2 1-11.1 1.3-12.7 1.9-1.8.7-2.3-.2-1.8-3.4.1-.7 2.6-6.5 5.6-12.8 4.9-10.4 6.7-15.6 8-23.3.2-1.4.7-3.5.9-4.8.3-1.3.6-6.2.6-10.9 0-8.3-.1-8.7-3-11.7-4.7-4.6-5.9-2.6-7.1 11.4-.6 6.3-1.7 14.2-2.6 17.5-2.2 8.3-9 24-13 30-6.2 9.5-31.1 32.5-35.1 32.5-3.1 0-5.9 5.2-3.8 7 .8.6 2.2.9 3.3.6 1.3-.4 2.9.4 5.3 2.7 1.9 1.8 5.2 4.4 7.4 5.8s5.8 3.7 8 5.1c2.2 1.5 8 4.3 12.8 6.3 7 3 10.3 5.2 16.2 10.7 11.6 10.8 18.5 22.6 18.5 31.5 0 3.2-2 5.7-2.8 3.4-.2-.7-2.7-4.7-5.6-8.9-5.5-8.3-8.5-9.8-11.2-5.7-1.2 1.8-1.1 2.6.5 5.5 3.8 7 6.1 12.3 6.1 14 0 2.3-2.8 4.7-7.6 6.4-5.5 1.9-6.9.9-4.8-3.3 1.2-2.4 1.5-4.6 1-8.3-1.3-9.3-5.9-18.8-9.2-18.8-1.9 0-4.9 6.7-3.7 8.3 1.3 1.6 5.3 13 5.3 14.9 0 .8-.8 2.3-1.9 3.2-1.6 1.5-2.4 1.5-6.2.4-3.3-1-6.1-3.2-11.5-8.8-4-4.1-8.6-9.2-10.2-11.2-5.8-7.4-12.9-13-22.7-18.1-4.7-2.5-20.4-9.7-21-9.7-1.7 0-16.9-11.5-23.2-17.6-9.5-9.3-11.7-13.8-10.1-22 .9-5.3.8-6.4-.8-9.5-2.2-4.3-15.4-16.3-20.4-18.6-8.4-4-16.8-10.4-20.6-15.8-2.1-3-5.5-7.6-7.4-10.3-1.9-2.6-4.6-6.9-6-9.7-2-4-3-5-5-5-3.4 0-3.9 4.5-1.1 9.6 2.4 4.2 3.3 16.7 1.4 19-1.8 2.3-3.6 12.2-3 17 .7 6.2 4.4 20.5 6.2 24 4.3 8.2 13.6 21.2 19.9 27.8 6.3 6.5 16.6 15.1 18.1 15.1 1.4 0 20.6 13.5 26.5 18.6 13.2 11.4 29.9 28.4 34.3 35.1 15.4 23.3 22.3 45.9 19.6 64.9-1.2 8.9-2.7 12.7-8.5 21.7-4.8 7.4-9.2 10.7-14.2 10.7-3.7 0-9.7-2.3-12.5-4.8-2.3-2-7.1-12.2-8.7-18.3-.6-2.4-1.5-5.3-1.9-6.4-.5-1.1-1.4-4-2-6.5-4.4-17.4-12.1-32.2-23.9-45.8-8.7-10.2-10.8-11.9-20.5-17.7-5.9-3.6-11-6.5-11.2-6.5-.3 0-3.9-2.6-8.2-5.9-4.3-3.2-11.4-8.2-15.8-11.2-11.8-7.9-30-26.9-39.2-40.8-6.8-10.3-7.6-12.1-8.9-19.5-.8-4.4-2-9-2.6-10.1-1.2-2.1-1.4-31.5-.3-42.4.7-7.1 3.1-14 7-20.1 1.4-2.2 2.5-4.2 2.5-4.6 0-1.4 9.6-12.7 17.5-20.4 4.8-4.7 10.6-11 13-14 2.3-3 5.9-7.2 7.9-9.3s3.6-4.2 3.6-4.7 1.3-3.2 3-6c1.6-2.8 3-5.5 3-6.1 0-1.3 4.8-8.4 10.8-15.9 2.3-3 6-7.7 8-10.3 2-2.7 4.8-5.8 6.1-7s4.6-4.3 7.4-7c2.8-2.6 5.6-4.7 6.2-4.7.5-.1 7-5.2 14.4-11.4 10.3-8.7 15.7-12.5 23-16.1 5.3-2.5 10.3-5 11.1-5.4 9.7-5 14.3-7.1 18.5-8.9 2.8-1.1 9.3-3.8 14.5-6.1 14-6 36.5-11.8 59.1-15.2 15.2-2.2 34.6-3.4 55.9-3.3 8 0 29.1.1 47 .2 17.9 0 35.4-.3 39-.7 8.5-1.1 20.4-4.7 25.8-7.9 2.4-1.3 4.4-2.3 4.6-2.1.1.2 1.2 1.8 2.4 3.6 1.3 1.7 3.3 3.5 4.5 3.9s3.6 1.7 5.2 2.9c4 2.9 9.1 4.9 10.5 4 1.9-1.2-.1-4.9-5.1-9.5-2.7-2.5-5.6-6.3-6.5-8.4l-1.5-3.9 3.7.6c2 .3 4.4 1.3 5.4 2.2 1.5 1.4 1.8 1.3 3.5-.5 1.5-1.6 1.6-2.2.5-3.5-1.9-2.3-5.9-4.2-10.7-5-2.2-.3-4.8-1.4-5.7-2.3-1.8-2-3.7-10-2.6-10.7.4-.3 3.3.7 6.5 2.1 6.8 3.2 8.8 2.3 5.9-2.7-1.2-2-3.5-3.8-6.2-4.8-6.8-2.7-8.1-4.2-7.5-9.3 1-8.5 4.1-16.7 10.3-26.9 12.7-21.2 15.9-28.9 16-38.4.1-7.6 2-20.8 5.6-37.8 2.3-10.8 6.3-19.7 8.9-19.7.6 0 5 5 9.6 11.2m315.7 19.2c.6.6.7 104.5.1 105.1-.2.2-3.3-1.1-6.9-2.9s-11.7-4.7-18-6.5l-11.6-3.3-.2-41.6c-.1-22.9-.4-43.7-.7-46.1-.2-2.5-.1-4.9.2-5.4.6-1 36-.3 37.1.7M736 633.6c0-1.5 3 1.6 3 3.1 0 2-5 8.4-6.1 7.7-1-.6-1.2-7.7-.3-11.2.6-2.1.7-2.1 2-.5.7 1 1.4 1.4 1.4.9m6.5 11.5c-1 1.5-2.5 1-1.9-.6.4-.8 1-1.2 1.5-.9s.7 1 .4 1.5m6.9 2.5c1 2.5.1 2.7-1.9.4-1.5-1.7-1.6-2-.3-2 .9 0 1.9.7 2.2 1.6m-13.4 3.7c0 2.8 1.7 4.7 4.2 4.7 2.2 0 2.2.5.1 4.1-2 3.3-3.1 3.7-2.9 1.1 0-1-.5-1.6-1.5-1.4-1.2.2-1.6-.9-1.7-5.3-.1-3 .3-5.5.8-5.5.6 0 1 1 1 2.3m7.1 10c-1 .9-1.1.8-.5-.6.3-1 .9-1.5 1.2-1.2s0 1.1-.7 1.8m-6.6 9c0 .7.7 1.2 1.5 1.3 3.3.2 3.8.5 4.3 2.5.3 1.2 1 1.8 1.6 1.4.6-.3 1.1.1 1.1 1s-.4 1.4-.9 1.1c-1-.6-2.9 1.3-2.9 2.9-.1 2.1-3 2.9-5.6 1.5-2-1-2.3-1.6-1.5-2.7.6-.7 1.5-1 2-.7 1.7 1 3.1-.7 1.8-2.2-.9-1.2-1.5-1.2-2.7-.2-1.3 1.1-1.5.9-.9-2.1.4-1.8.7-4 .7-4.9 0-.8.3-1.2.8-.8.4.4.7 1.3.7 1.9m10.1 14.1c1.3 3.6 1.3 3.7-.8 3.4-1.6-.2-2.4-1.2-2.9-3.5-1.2-5.8 1.7-5.7 3.7.1m11.4 3.1c.7.8.8 1.5.2 1.5-.5 0-1.5-.7-2.2-1.5s-.8-1.5-.2-1.5c.5 0 1.5.7 2.2 1.5m2.3 7.1c-.9 2.3-2.3 1.6-2.3-1.2 0-2.2.2-2.4 1.4-1.4.8.6 1.2 1.8.9 2.6m6.8 5c.7.9 1.2 3 1 4.6-.1 1.6.3 3.6.9 4.4 2 2.3.3 1.6-2.7-1.2-1.5-1.4-2.7-3.2-2.5-3.9.1-.8-.2-1.6-.8-2-.8-.5-.7-1.1.1-2.1 1.5-1.8 2.3-1.8 4 .2M354.5 768c3.9 1.8 6.9 2.4 13.5 2.6 11.9.3 18.9 1.2 31 4 11.8 2.8 21.8 6.5 27 10.1 1.9 1.2 3.9 2.3 4.5 2.3 1.6 0 7 5.9 9.6 10.5 4.5 8 5.1 9.7 5.6 15.3.7 7.9-2 11.8-9.9 14.3-6.3 2-9.4 1.6-10.1-1.2-.4-1.6-1.4-1.9-5.5-1.9-2.8 0-5.3-.4-5.6-.9-1-1.6.5-4 2.7-4.3 3.5-.5 3.2-4.6-.6-11.8-4-7.5-7.9-11-10.5-9.4-2.7 1.8-2.6 4.1.5 8.2 3.6 4.7 5.4 8.7 4.7 10.7-.9 2.3-6.8 5.5-9 4.9-1-.3-4.1-3.2-6.8-6.4-2.8-3.3-7.1-7-9.6-8.4-4.8-2.6-11.5-3.4-35-4-6.1-.2-10.6-.9-12.5-1.9-7.7-3.9-14.5-6.8-15.7-6.5-1.6.3-5.8-2-5.8-3.1 0-.5 1.7-1.9 3.7-3.1 6.9-4.1 16.8-12.1 21.3-17.4 2.5-2.9 5.2-5.2 6-5.1s3.8 1.2 6.5 2.5m184.2-.4c-.3.3-1.2.4-1.9.1-.8-.3-.5-.6.6-.6 1.1-.1 1.7.2 1.3.5M240 945.4c0 .7.3 2.8.7 4.6.4 2.5.3 3.2-.7 2.8-1.5-.5-2.3-8.8-.9-8.8.5 0 .9.6.9 1.4m-123.3 72.2c-.3.3-1.2.4-1.9.1-.8-.3-.5-.6.6-.6 1.1-.1 1.7.2 1.3.5"/><path d="M762.4 577.1c-.9 1.6 2.1 4.3 4.1 3.5 1.9-.7 1.3-2.1-1.5-3.6-1.3-.7-2.1-.7-2.6.1m-180.5-179c-.8 1.5-.4 3.2 1.5 7.6 1.4 3 2.6 6.4 2.6 7.5 0 2.8 3 6.8 5.1 6.8 2.3 0 3.5-2.5 2.2-4.3-.5-.6-1.5-3.7-2.3-6.7-.7-3-1.9-6.9-2.6-8.6-1.6-3.9-5-5-6.5-2.3m122.8 24.1c-6.1 6.6-10.7 14.2-10.7 17.5 0 1.9.9 3.8 2.5 5.3 1.4 1.3 3.6 4.3 5 6.6 2.8 4.8 5.2 6.1 7.4 4 1.7-1.8.9-3.9-4.7-12-2.3-3.2-3.1-5.4-2.6-6.2.5-.6 3.3-3.9 6.2-7.3 5.3-6.3 6.2-8.7 4-10.9-1.9-1.9-2.8-1.5-7.1 3M565.5 472c-.1.3-.6 3.4-.9 7-1 9.2 1.4 14.4 8.2 17.9 3 1.6 8.4-.1 11.1-3.5 2.6-3.3 3.1-3 3.1 1.4 0 5 2.2 8.1 4.7 6.6 1.4-.9 1.9-2.6 2-7.5.4-10.8.4-10.9 1.7-10.2.6.4-.5-.9-2.4-2.8s-3.9-4.2-4.5-5.2c-.5-1-1.7-1.9-2.5-2.1-.8-.1-3.3-.8-5.5-1.4-3.9-1.1-14.4-1.2-15-.2m84 15.9c-6.3 3.1-17.1 11.3-18.9 14.4-.9 1.4-.7 2.1.7 3.2 1.6 1.1 2.3 1.1 5.2-.6 1.8-1.1 5.4-3.8 7.9-6l4.6-4.1v3.9c0 4.4 2.8 9.4 6.6 11.9 2.2 1.5 3.2 1.6 7 .6 2.4-.7 6.5-2.7 9.1-4.5 2.7-1.9 5.6-3.7 6.6-4 2.2-.8 3.1-3.2 2.2-5.5-.5-.9-.7-2.4-.6-3.3.3-2.6-12.1-8.2-18.9-8.6-4.5-.3-6.6.2-11.5 2.6m-58.1 30.8c-2 2.1-2.3 3.3-1.8 5.7.8 3.9 1.8 5.1 5.4 6.6 1.7.7 3 1.8 3 2.4 0 2-3 5.6-6.1 7.2-3.4 1.7-4.6 1.5-14.2-2.9-8-3.6-10-2.9-6.5 2.3 4.3 6.2 17.2 10.4 23.2 7.4 4-2 4.8-1.8 8.1 1.6 6.3 6.6 19.2 7.2 24.7 1.1 3.1-3.4 3.7-7.8 1.2-8.8-1-.3-2.9.8-5.3 3.1-3.5 3.4-4.2 3.7-7.5 3.1-2-.4-5.1-1.7-6.9-2.9-2.8-1.9-3.2-2.7-3.2-6.6v-4.5l4.1-.3c3-.2 4.9-1.1 7-3.3l2.9-3-2-3.7c-2-3.6-6.1-6.6-7.7-5.5-.5.2-.2 1.6.7 2.9 3.2 5-.6 8.3-8.2 7.1-3.8-.7-7.3-3.2-7.3-5.4 0-.7.9-2.1 1.9-3 1.1-.9 1.8-2 1.5-2.5-1-1.7-4.6-.7-7 1.9"/><path d="M600.5 517c-.3.5 0 1.3.9 1.6 2.1.8 6.1.1 6.1-1.1 0-1.4-6.2-1.9-7-.5M459.6 635.1c-1.4 1.7-2.6 4-2.6 5.2 0 3.4-3.7 14.4-7.4 22.2-3.4 7.2-9 28.5-10 38.6-.5 4.8-.3 5.9 1.4 7.4 1.9 1.7 2.1 1.7 4 0 1.2-1 1.9-2.4 1.6-3.1s.4-2 1.4-2.9 2.2-3.5 2.8-5.8 2.5-10.1 4.2-17.2c2.9-11.7 5.1-18.6 11.1-33.9 2.6-6.8 2.4-9.1-1-11.5l-2.9-2.1zm275 1.8c-.4.5-.2 1.2.3 1.5.5.4 1.2.2 1.5-.3.4-.5.2-1.2-.3-1.5-.5-.4-1.2-.2-1.5.3M427.2 805.2c-1.7 1.7-1.5 3.3 1.4 8.8 2.2 4.3 2.8 4.8 4.5 3.9 2.4-1.2 2.4-3.6-.1-9.3-1.9-4.6-3.6-5.6-5.8-3.4m553.4-184.3c-.4.5-.2 1.2.3 1.5.5.4 1.2.2 1.5-.3.4-.5.2-1.2-.3-1.5-.5-.4-1.2-.2-1.5.3m-11 60c-.4.5-.2 1.2.3 1.5.5.4 1.2.2 1.5-.3.4-.5.2-1.2-.3-1.5-.5-.4-1.2-.2-1.5.3m1 28c-.4.5-.2 1.2.3 1.5.5.4 1.2.2 1.5-.3.4-.5.2-1.2-.3-1.5-.5-.4-1.2-.2-1.5.3m1 5c-.4.5-.2 1.2.3 1.5.5.4 1.2.2 1.5-.3.4-.5.2-1.2-.3-1.5-.5-.4-1.2-.2-1.5.3M781 790.2c-1.9.5-6.2 1.5-9.5 2.3-6.9 1.5-11.6 3-23.5 7.5-8.8 3.3-15.9 5.6-22 7-1.9.5-5.5 1.4-8 2-2.5.7-5.6 1.3-7 1.5-2.6.2-14 1.9-25 3.7-3.6.6-9.4 1.4-13 1.9-3.6.4-11.2 1.7-17 2.9s-13.4 2.5-17 3c-7 .9-14 2.3-20.5 4.1-4 1.1-28.2 5-43 6.9-9 1.2-15 2.3-28 5.1-4.9 1-11.2 2.1-14 2.4-9.9.9-33.1 4.3-37.2 5.4-2.3.6-10.6 2.3-18.5 3.6-7.8 1.4-17.7 3.2-21.8 4-4.1.9-10.9 2-15 2.5-4.1.6-10.1 1.7-13.3 2.5s-7.5 1.5-9.5 1.5-5.3.4-7.2 1c-1.9.5-4.9 1.2-6.7 1.5-4.3.7-8.3 2.3-8.3 3.2 0 .5-1.8 1.6-4 2.6-4.1 1.7-4.9 3.4-2.8 5.5 1.4 1.4 16.4 1.7 17.2.3.3-.4 3.6-1.1 7.3-1.5 7.6-.8 23.9-3.8 35.8-6.6 27-6.4 34.7-8 63.5-13 3-.6 9.3-1.7 14-2.6 9.6-1.8 9.6-1.9 24-3.5 5.8-.6 13.4-1.8 17-2.6 7.3-1.7 22.9-4.5 40-7.3 6.3-1 13.5-2.6 15.9-3.4 2.4-.9 6.7-1.6 9.5-1.6s7.6-.7 10.6-1.5 8.9-1.7 13-2c9.4-.7 21-2.2 32-4.2 4.7-.9 11.4-1.9 15-2.3s11-1.8 16.5-3 12-2.5 14.5-3c13-2.4 26-6.7 37.3-12.2 4.4-2.1 9.4-4.1 11.1-4.4 6.9-1.2 7.7-1.5 8.7-4.1.7-2 .6-3-.3-3.9-1.9-1.8-6.8-2.4-10.8-1.2m-466.5 87.9c-7.1 1-10.7 4.3-10.3 9.4.3 2.5.8 3.1 3.2 3.3 4.8.6 15.5-2.8 17.7-5.6 2.6-3.4 2.4-4.9-1.1-6.7-1.6-.8-3-1.4-3.2-1.4-.2.1-3 .5-6.3 1m-113.8 43.5c-.3.6.5 2.3 1.8 4 2.3 2.9 2.3 2.9 4.4 1 1.5-1.3 1.8-2.3 1.1-3s-1.4-.6-2.1.1c-.9.9-1.6.6-2.9-.9-.9-1.2-2-1.7-2.3-1.2"/></g></svg>