<svg xmlns="http://www.w3.org/2000/svg" width="1365.333" height="1365.333" preserveAspectRatio="xMidYMid meet" version="1.0" viewBox="0 0 1024 1024"><g fill="#000" stroke="none"><path d="M545.7 15.5c.3 8.8.4 32 .3 51.5-.2 34.6-.2 47.4-.1 51.5.1 1.1-.2 12.3-.6 25-.7 23.2-.9 113.4-.2 130 .2 4.9 0 14.6-.4 21.5-.4 8.2-.2 13.8.5 16.2 1 3.3.9 4.1-.7 5.8-1 1.1-2.4 2-3.2 2-.7 0-3.1 1.6-5.3 3.6l-4.1 3.7-3.2-1.8c-2.9-1.5-4-1.6-8.6-.6-2.9.6-5.6.9-6.1.6-.4-.3-.8-4.4-.8-9.2-.1-15.6-9.3-52.3-14.5-58.1-.9-.9-3-5.3-4.8-9.7-1.8-4.5-5.2-10.6-8-14.1-9.3-11.7-27.5-26.5-40.9-33.4-8.4-4.3-25.2-8.5-44-10.9-39.2-5.1-66.5-6.1-121-4.4-23.4.7-50.1 1.7-59.5 2.3-40.9 2.3-67.9 4.1-68.6 4.6-.4.2-11.4.6-24.5.9-38.9.8-52.4 1.5-62.4 3.1-10.2 1.6-10.4 1.7-11.4 5.1-.5 1.7-.1 2.9 1.7 4.7 2.3 2.3 3 2.4 10.8 2 4.6-.3 17.2-.7 27.9-.8 35-.6 55.1-1.7 70.9-3.6 8.5-1.1 16-2 16.6-2.1.5 0 0-.4-1.2-.9-1.3-.5-2.3-1.4-2.3-2 0-1.5 3.1-1.2 4.4.5.7.9 3.3 1.5 7.6 1.7 8.9.4 57.5-1.1 74-2.2 43.9-3.1 87.4-1.8 138 4 8.4.9 23.2 3.9 24.5 4.9.6.5 2.4 1.1 4 1.4 6.3 1.2 30.2 16.6 37.1 23.9 2.3 2.3 7.3 8.6 11.3 13.9 3.9 5.3 7.8 9.9 8.6 10.3 1 .4 1.3 1.4.9 3.4-.3 1.6-.2 3.2.4 3.6.5.3.8-1.1.7-3.6-.1-2.3-.7-4.4-1.3-4.6-.7-.2-4.4-4.7-8.3-10-4-5.3-9-11.7-11.3-14-6.5-6.9-25.8-19.6-34.6-22.8-2.5-.9-5.4-2-6.5-2.5-2.7-1.1-17.5-4-25.5-4.9-50.6-5.8-94.1-7.1-138-4-16 1.1-65 2.6-73.4 2.2-3.6-.1-6.6-.8-7.6-1.7-.9-.8-2.7-1.5-3.9-1.5-1.7 0-2.2.5-1.9 2.2.3 2.1-.3 2.3-13.7 3.9-14.4 1.8-34.5 2.8-70.5 3.5-11.3.2-23.7.5-27.7.6-5.8.2-7.5-.1-9.2-1.6-2.4-2.2-2.5-2.6-.8-4.9 2.6-3.6 18.8-5 72.6-6.2 12.8-.3 23.6-.7 24-1 .7-.4 27.9-2.2 68.6-4.5 35-2 102.2-3.7 120.5-2.9 48.8 1.9 83.8 7.1 101.5 15 6.2 2.8 21.2 13.3 29.2 20.6 11.4 10.4 17.7 18.6 21.4 28 1.8 4.3 4 8.7 5 9.8.9 1.1 2.1 3.3 2.5 5 .4 1.6 1.3 4.2 2 5.6 4.1 8.2 9.5 34.6 9.6 46.6 0 5.1.4 9.5.9 9.8.5.4 3.6.1 6.9-.6 5.3-1 6.3-1 7.9.5 2.5 2.3 4.6 2 8.3-1.3 1.8-1.5 4.7-3.6 6.5-4.5 3.8-1.9 4.8-4.5 3.4-8.9-.7-2-.8-7.8-.4-15.7.4-6.9.6-16.6.4-21.5-.7-16.6-.5-106.8.2-130 .4-12.7.7-23.9.6-25-.1-3.1-.1-13 0-57 0-22.6-.4-45.7-.9-51.5-.7-9.3-.8-8.6-.3 5.5m36.8-6.4c.3 6.4 0 10-.7 10.7-.9.9-.9 1.2 0 1.2 2 0 2.2-2 1.2-12l-.9-9.5zm40.1 34.2c.1 24.1-.2 43.9-.5 44.1s-8.4.7-17.9 1l-17.3.6-.9-2.6c-.6-1.4-1-5.6-1-9.3 0-4-.5-7.2-1.2-8-1.1-1.1-1-1.3.5-.8 1.6.6 1.7-.7 1.5-21.9-.3-18.7-.6-22.6-1.8-23.4-2.4-1.6-3.7-1.1-1.5.6 1.9 1.4 2 2.8 2.2 21.6.2 17.4.1 20.4-1.4 22-1.1 1.2-1.3 2.1-.5 3 .5.7 1.2 4.7 1.4 8.9.5 11.4-.2 11 20.7 10.3 9.7-.3 17.8-.8 18-1 .8-.8 1.1-60.1.3-74.4-.5-10-.7-1-.6 29.3m5-37.3c.2 3.6.5 12 .7 18.8.3 9.1.8 12.7 1.9 14 1.3 1.4 1.4 3.5.8 12.2-.4 5.8-.6 16.6-.5 24l.2 13.5 11.7-.1c6.4-.1 12-.5 12.4-.8.4-.4.7-5.3.6-10.9 0-16.8-1.6-76.2-2.1-76.7-.8-.8-.2 39.7.8 58.9.6 10.6.8 21.3.4 23.6-.5 3.8-.9 4.3-3.4 4.7-2.7.4-2.9.2-2.8-2.9.1-3.3 1.1-4.4 2-2.1.3 1 .8 1 1.8-.1.8-.8.9-1.1.2-.7-.6.3-1.4.2-1.8-.4-1-1.7-3.6-1.1-3.4.7.6 6.3.5 6.4-7.7 6.1l-7.6-.3-.3-13c-.1-7.2.1-18 .5-24 .7-9.6.6-11.2-.8-12.9-1.4-1.5-1.8-4.7-2.1-17.9-.2-8.9-.7-17-1.1-18.2-.4-1.1-.6.7-.4 4.5m33 37.4c.2 29.8.7 44.2 1.5 44.6 1 .7 64 2.6 72.2 2.2 2.1-.1 4.6-.6 5.7-1.2 2-1 2-2.2 1.8-45.3-.1-24.3-.4-39.1-.5-32.8-.3 8.9-.7 11.7-1.9 12.6-1 .7-1.4 2.1-1.1 3.6.4 2.3.4 2.3.6-.4 0-1.5.6-2.7 1.1-2.7.6 0 1 11.1 1 31.4 0 34.7.2 33.5-6.6 33.8-8.1.4-70.3-1.5-71.3-2.2-.8-.4-1.4-15.1-2-44.1l-.9-43.4z"/><path d="M694.9 4.2c0 2.4-.1 20.4-.2 40-.2 32.1 0 35.9 1.5 37.4 3.1 3.1 4.5 1.1 5.1-7.3.5-7.5-.9-68.7-1.7-72.8-.3-1.1-.2 9 .2 22.5.9 35.8.7 55.9-.5 57.1-.7.7-1.4.4-2.4-.7-1.2-1.4-1.4-8.5-1.3-41.1.1-21.6 0-39.3-.2-39.3s-.4 1.9-.5 4.2M761 35.6c-.1 48 0 52.8 1.9 54.7.8.8 2.6.8 5.8.1 2.7-.5 14.7-.9 26.9-.8l22.1.2-.3-11.2c-.3-14.5.5-24.8 2-24.3 1.3.4 2.3 5.8 2.7 14.4.2 3.4.7 5.9 1.1 5.7.5-.3.6-1.5.4-2.7-.3-1.2-.8-5.7-1.1-10.1-.6-6.5-1-7.9-2.6-8.3-1.7-.5-1.8-2-1.8-26.5 0-14.3-.2-26.3-.5-26.5-.4-.5-.7 20.6-1 75.8l-.1 12.7-21.5-.2c-11.8-.1-23.4.2-25.8.8-7.7 1.7-7.4 4.4-7.2-53.3 0-19.4-.1-35.6-.4-35.8-.3-.3-.6 15.6-.6 35.3"/><path d="M773.5 14.5c.3 8.2.9 22.2 1.4 31 .6 8.8 1.2 20.9 1.5 26.8.4 7.3 1 11.5 2.1 13s1.5 1.7 1.5.6c0-.8-.5-2-1-2.5-.6-.6-1.3-5.3-1.6-10.5-.4-8.8-1.6-28.5-3.4-59.9l-.8-13.5zm7.2 7c.9 35.6 1.9 66.1 2.1 64.1.2-1.4.8-1.7 2.7-1.4 1.4.3 2.5.1 2.5-.3 0-.5-1.1-.9-2.3-.9h-2.4l-.8-26.3c-.4-14.4-1.1-33-1.5-41.2-.6-12.3-.7-11.2-.3 6M821.5 1c-.3.5-.4 1.4-.1 1.8.3.5.6 4 .7 8 .1 3.9.6 6.9 1.1 6.6.4-.3.6-.9.4-1.3-.3-.3-.6-4.1-.7-8.4-.2-4.2-.4-7.7-.6-7.7-.1 0-.5.4-.8 1m34.4 6.7c0 5.3-.3 7.1-.9 5.7-.4-1.1-2-2.8-3.4-3.8-2.1-1.3-2.5-2.2-2.1-4.4.5-2.3.4-2.4-.4-.6-.5 1.2-.5 3.9-.1 6.5.5 2.4.7 6 .5 7.9-.5 4-1.9 56.8-1.6 61.9.2 4.4.7 5.1 4.2 5.1 2.4 0 2.9-.4 2.9-2.5 0-2.9 3.5-5.3 4.4-3 .3.8 1.3 1.5 2.2 1.5 1.4 0 1.3-.2-.3-1.8-1.9-1.6-1.9-2.6-1.2-19.2.4-9.6 1.2-23.8 1.8-31.5.5-7.7 1.2-17.6 1.5-22l.5-8L863 6c-1.3 8.6-3 34.4-3.9 55.3-.6 16.6-1.1 18.6-4.3 18.7-.5 0-.8 1.1-.8 2.5 0 1.8-.5 2.5-1.9 2.5-1.1 0-2.3-.5-2.7-1.2-.7-1-.6-12.9.1-25.8.1-3 .4-15.1.5-26.8.3-20.6.4-21.2 2.2-19.6 1 1 1.8 2.3 1.8 3.1 0 .7.7 1.3 1.5 1.3 1.2 0 1.5-1.6 1.5-8 0-4.4-.2-8-.5-8s-.5 3.5-.6 7.7"/><path d="M903.2 8.7c-2.1 16-4.1 38.6-4.7 52.3-.3 7.4-1 15.5-1.5 18-.4 2.5-.6 5.7-.3 7.1.3 1.5 0 3-.6 3.3-.6.4-1.1 0-1.1-.9 0-.8-.7-1.8-1.5-2.1-1.2-.5-1.3-1-.4-2 .6-.7.9-1.8.7-2.5-.2-.6-1 .1-1.8 1.6-1.3 2.4-1.3 2.8.3 3.6 4.9 2.8 1 3.1-36 2.6l-37.8-.5 37.3 1c20.4.6 38.4.7 39.8.4 2.4-.6 2.6-1.1 2.1-4-.3-1.9-.1-5.1.3-7.2.5-2.2 1.2-9.3 1.5-15.9.8-19 1.5-26.8 3.6-45.4 1.1-9.5 1.8-17.5 1.6-17.7-.2-.3-.9 3.5-1.5 8.3"/><path d="M927.2 5.5c-.1 3.3.3 9.1.9 13 .5 3.8 1.2 21.2 1.5 38.5.2 17.3.9 31.9 1.4 32.4s8.1 1 16.9 1.2c8.7.1 17.8.8 20.1 1.4 3.9 1 4.1 1.3 3.9 4.4-.2 2 .4 4.4 1.6 6.2 1.2 1.7 2.1 4.8 2.2 7.4.1 2.5.4 8.2.6 12.8l.5 8.2-3.6 1.6c-3.2 1.4-11.5 1.5-64.7 1.4-84.4-.2-140.8-.2-189.5-.1-22.8.1-50.3 0-61-.3-30.1-.8-71.1-.8-71.8-.1-.4.4-.7 7.6-.8 16.1l-.1 15.4 3.1.2c1.7 0 3.7.1 4.4.1.7-.1 7.5.3 15 .8 10.3.6 13.8.5 14.4-.4.5-.7.7-3.7.7-6.7-.2-5.2 1.2-9.5 3.6-11.2 1.4-1.1 35.7.3 37.2 1.4.8.6 1.2 3.9 1.1 8.9 0 4.4.2 8.2.5 8.5.6.7 32.9.9 51.3.4 10.5-.3 14.6-.1 15.7.8.9.8 2.6 1 4.1.6 2.3-.5 2.6-1.1 2.4-4.8l-.1-4.1-.4 3.7c-.4 4-2.7 5.6-5 3.6-1.1-.9-5.6-1.1-16.1-.8-20.4.5-50.3.3-50.9-.4-.3-.3-.5-3.9-.5-7.9.1-4.4-.4-8-1.1-8.9-1-1.3-4.9-1.7-19.7-2.2-10.2-.3-18.9-.2-19.5.2-2.4 1.7-3.8 6-3.6 11.2 0 3-.2 6-.7 6.7-.5.8-4.2.9-13.9.3-7.3-.4-13.8-.8-14.5-.7-.7 0-2.4-.1-3.8-.1l-2.5-.2-.2-13.8c-.1-7.6.2-14.4.6-15.1.9-1.4 27.8-1.6 71.6-.5 19.8.5 77.4.5 109.5 0 4.1 0 8.1.3 8.8.8s1.2.5 1.2 0 16.7-.8 37.6-.8c35.3.2 37.6.3 39 2 1 1.4 1.4 1.5 1.2.4-.3-1.3 6.8-1.5 57.9-1.6l58.2-.2 2 2.2c2 2.1 2 2.5.6 5.8-1.3 3.3-1.3 3.8.5 6.1 1.1 1.4 2 3.8 2 5.3s.7 3.5 1.5 4.4c1.2 1.3 1.3 2.3.6 4.4-1 2.4 0 11.3 1.4 13.6.3.5 0 2.2-.8 3.7-2.4 4.7-2.8 11.8-1.2 20.1 1.8 9.3 1.9 14.6.3 17.2-.9 1.5-.9 2.4.1 4.4.9 1.5 1.1 3.8.7 5.8-.4 2.3-.3 2.9.4 1.8 1.3-2 1.2-5.4-.2-8.5-.9-1.9-.9-2.8 0-3.7 1.6-1.6 1.5-7.7-.3-17-1.6-8.4-1.1-15.9 1.3-19.5.8-1.3 1.1-3.1.7-4-1.6-4.4-2.4-11.4-1.4-13.9.7-2 .6-3.2-.6-5-.8-1.3-1.5-3.4-1.5-4.6 0-1.3-.7-3.4-1.6-4.7-1.4-2-1.5-2.8-.3-6.3 1.2-3.8 1.2-4.2-.9-5.8-2.8-2.3-2.8-2.8.3-4 2.4-.9 2.4-1 1.8-10.2-.3-5.1-.5-11.3-.4-13.7 0-2.9-.6-5.2-1.9-6.9-1.2-1.5-2-4-2-6.3 0-2.7-.5-3.9-1.7-4.3-5.3-1.4-10.2-1.9-23.5-2-8.2-.1-15.3-.7-15.8-1.2s-1.1-13.7-1.4-30.9c-.2-16.5-.9-34.3-1.5-39.5s-1.3-11.5-1.4-14c-.3-3.7-.4-3.4-.5 1.5"/><path d="M820.5 20.3c2.2 3.4 1.9 15.7-.4 15.7-1.4.1-1.4.2.2 1.1 1.3.8 1.5 1.4.7 2.9-.7 1.3-.7 2.1 0 2.5.5.3 1 .3 1.1-.2 1.2-18.4.7-24.3-2.1-24.3-.6 0-.4 1 .5 2.3m-81.8 25.2c.3 2.7.7 5.2.9 5.4.8.9.2-6.5-.6-8.4-.6-1.3-.7-.2-.3 3m80.5 29c.3.5 1.1 3.6 1.8 6.8.6 3.2 1.4 5.7 1.6 5.4.7-.7-1.6-11.1-2.8-12.2-.6-.6-.9-.6-.6 0m161.2 36.9c1.5.9 3.6 1.6 4.5 1.6s2.3.6 3 1.2c1.1 1.1 1.3 1 .9-.2-.2-.8-1.8-1.8-3.4-2.1-1.6-.4-4-1-5.4-1.4-2.3-.6-2.3-.6.4.9M925 136.8c.8.5 3.2 1.2 5.2 1.6 5.9 1.1 9.2 6.1 9.8 14.9.5 6.7.6 7.1 3.3 7.8 1.5.4 2.7.3 2.7-.2s-1.1-.9-2.5-.9c-2.4 0-2.5-.2-2.5-6.8 0-6-.4-7.4-2.9-10.9-2.2-3.1-3.8-4.2-6.8-4.7-2.1-.4-4.7-.9-5.8-1.2-1.5-.4-1.7-.3-.5.4m-206.5 1.3c-.4.5-1.8 1.4-3.2 2-1.3.5-2.3 1.5-2 2.2.4 1.3 4.1 1.5 6.9.3 1.3-.6 2.1.2 3.8 3.9 2.2 4.8 4.4 6.5 6.1 4.8.7-.7 2.1-.6 4.2.5 2.9 1.5 3.1 1.4 4.5-.6.8-1.2 2.5-2.2 3.8-2.2 1.2 0 2.6-.6 3-1.2 1.2-1.9 2.3 3.3 1.2 5.4-.5 1-1.9 1.8-3.2 1.8s-2.9.7-3.6 1.5c-1 1.3-1 1.9.4 3.4 1.5 1.6 1.6 5.3 1.1 37.6-.3 19.7-1 39.7-1.5 44.4s-1 12.2-1 16.7c0 5.5-.5 8.6-1.5 10-1.7 2.3-1.9 6.6-.4 8.1 1.7 1.7.8 36.6-1 38.7-1.1 1.3-1.2 2.2-.2 4.3.8 1.8.9 2.9.1 3.7-.5.5-1.1.7-1.1.3-.2-.8-.5-2.3-.9-3.5-.3-1.3 0-33.4.5-39.2.3-4.1.2-4.7-.4-2.5-.5 1.6-.9 10.6-1 20-.1 12.4-.5 17.7-1.5 19.7-1.2 2.3-1.2 2.6 0 2.1.8-.3 1.4.1 1.4 1.1 0 1.3-1.2 1.6-7 1.6-6.3 0-7-.2-7-2 0-1.1.5-2 1-2 .6 0 1-.8 1-1.8 0-1.8-2.7-4.6-6.5-6.8-3-1.7-4.2-4.1-2.8-6.2.6-.9 1.6-1.6 2.2-1.4.6.1 1.1-.2 1.1-.8 0-1.4-2.3-1.3-3.8.2-2.2 2.2-1.4 6.6 1.6 8.5 4.6 3 7.8 6.5 6.5 7-.7.3-1.3 1.6-1.3 2.9 0 2.2-.4 2.4-4.2 2.4-9.1 0-8.5 1.2-8.2-19 .3-15.4.1-17.9-1.2-18.4-2.5-1-3.6.3-2.9 3.4.3 1.6.2 3.1-.4 3.5-.7.4-1.1 5.9-1.1 15 0 11-.3 14.4-1.3 14.8-1.8.7-31.6-1.1-32.9-1.9-.7-.5-.9-4.9-.6-12.5.5-12.4-.2-14.9-3.7-13.5-1.1.4-1.5-.2-1.6-2.2 0-1.5-.5-3.6-1-4.7-.6-1.5-.8-.9-.4 2 1.1 8.1 1.3 30 .3 31.2-.8 1-6.4 1.3-21.9 1.3H616l-1-2.6c-.6-1.4-1-4.9-1-7.7 0-6.8-2.3-16.5-4.4-18.6-2-1.9-14.5-2-20.3 0-1.9.6-3.7.8-4.1.5-.3-.4 0-3.9.7-7.9 2-11.1 2.9-109.1 1-111.4-1.2-1.5-1.2-1.6.3-1 1.1.4 1.7.2 1.5-.6-.2-1.3-.8-1.3 19.6-.2l13.7.7.1 13.7c.4 65.1.8 95.1 1.3 95.9.3.5.6 9.3.7 19.4l.1 18.5 2.3-.5c4.3-.8 4.8-6.4 4.2-49-1-70.9-1.5-92.7-2.2-96.5-.8-3.8.3-4.9 2.4-2.3 1.8 2.1 6.2 2.6 8.8.9 1.8-1.2 2.3-2.3 2.1-4.7-.3-2.7 0-3.1 2-3 1.2 0 2.2-.3 2.2-.8s-1.2-.8-2.7-.6c-2.4.3-2.8.7-2.8 3.5 0 4.5-3.1 6.8-6.6 4.7-1.3-.7-3.2-1.7-4.1-2-1.6-.6-2.2-1.6-2-3.5.1-.3-1.1-.4-2.5-.1-2.5.5-2.5.6-.6 1.3 3.5 1.3 3.6 4 5 103.4.5 39.5 0 47.5-3.1 47.5-1 0-1.3-4-1.5-17.7-.1-9.7-.5-18.1-.8-18.6s-.7-19.4-.8-42.1c-.2-22.6-.3-47.2-.4-54.7l-.1-13.5-17.2-1.2c-16.2-1-17.3-1.2-19-3.4l-1.7-2.3.6 2.2c.3 1.3 1 2.3 1.7 2.3.6 0 .2.7-.9 1.6-1.7 1.2-1.8 1.7-.7 3.5 1.6 2.5 1.6 74.1 0 96.4-.5 7.7-1 16-1.1 18.5-.2 4.2-2 6.8-4.9 7-1.6 0-.7-1.9 1-2.3 1.2-.3 1-.5-.7-.6-1.9-.1-2.2.3-1.8 1.9s-.2 2.2-3.6 3c-2.3.6-5 1.5-5.9 2-1 .6-2.4 1-3.1 1-1.8 0-16.7 9-16.7 10.1 0 .4 3.7-1.4 8.2-4.1 4.5-2.8 8.9-5 9.9-5s2-.4 2.4-.9c.3-.5 2-1.2 3.8-1.6 1.7-.4 6-2 9.5-3.7 3.8-1.8 9.1-3.3 13.4-3.9 13.7-1.7 15.2-.1 16.8 19 .5 5.9 1.3 9.7 2.2 10.2.7.5 10.6.9 22 .9 16.8 0 20.9-.3 22.1-1.5 1.2-1.1 1.4-3.9 1.1-13.4-.3-11.9.4-14.7 2.9-12.2.8.8 1.1 5 .8 13.1-.2 9.4 0 12.1 1 12.5 2.6.9 32.2 2.3 34.2 1.6 1.9-.7 2-1.6 1.8-15.4-.2-10.5.1-14.7.9-14.7.7 0 1-1.2.9-2.8-.2-1.5.1-2.9.6-3.2 1.2-.6 1.6 25.9.5 31.3-.5 2.5-.4 4 .4 4.4 1.3.9 31.6 2.1 32.1 1.3.2-.3 8.4-.5 18.3-.5h18l1-8c1.9-13.7 2.4-34.2 2.3-85.5 0-48.4-.7-68.6-2.1-69.5-.3-.2-5 0-10.3.6-13.7 1.4-27.5-1.1-22.7-4.1.8-.5 8.8-1 17.8-1h16.3l2.8 3.1c2.6 2.8 2.8 3.4 1.8 7-1.5 6.2-.8 6.4 16.2 6 9.7-.2 15.6.1 17 .8 1.2.7 2.1.8 2.1.3 0-1.1-3.4-2.2-6.7-2.2-1.4 0-2.3-.6-2.3-1.5 0-.8-1.3-2.1-3-3-1.6-.9-3-2-3-2.4 0-2 1.3-4.1 2.1-3.5.5.3.9 0 .9-.5 0-1.7-2.7-1.3-3.4.5-1.3 3.3-.5 5.4 2.4 6.9 1.7.9 3 1.9 3 2.4 0 1.3-22.2 1.9-23.8.7-.9-.6-1.1-1.9-.6-4 .4-1.7.7-3.9.6-4.9-.1-2.7 3.2-1.7 3.6 1.1.3 1.7 0 2.1-1.5 1.5-1.5-.5-1.6-.3-.5.8 1.6 1.8 3.5-.1 3-3.2-.2-1.9-.9-2.4-3-2.4-1.6-.1-3.4-1-4.2-2-1.3-1.8-2.9-2-15.9-2.3l-14.5-.3v-4.1c-.1-4.8-.7-5.6-3.2-4-1.1.7-2.9 1.2-4 1.2-1 0-2.4.9-3 2-1.1 2-1.2 2-4 .4-2.2-1.4-3.2-1.5-4.3-.6-1.7 1.4-2.5.7-5.1-5.1-1.7-3.6-4.7-5-6.1-2.7-.3.5-1.3 1-2.1 1s-1.4-.5-1.4-1c0-.6.6-1 1.4-1 .7 0 1.9-.6 2.6-1.4.6-.8 2.1-1.7 3.3-1.9 1.8-.4 1.8-.5-.5-.6-1.5 0-3 .4-3.3 1m44.8 24c5.1-.5 9.5-.7 9.8-.5 1.4.8 2 20.2 2 67.9.1 51.7-.4 72.6-2.2 85.5l-1.1 7.5h-16.4c-15.9 0-16.4-.1-18-2.3-1.3-1.8-1.3-2.6-.3-3.8 1.8-2.2 2.6-35.3 1-40.2-1-3.1-1-4.2.3-6.7 1.1-2 1.6-5.7 1.6-11 0-4.4.5-12.1 1.1-17 .9-7.8 1.2-21.1 1.8-69.6l.1-10.6 5.6.9c3.2.5 9.4.5 14.7-.1"/><path d="M649 151.5c0 1.2-1.9 1.5-11.1 1.5h-11l.3 5.2c.2 3.8 0 5.2-.9 5-.7-.1-1.3.3-1.3.9s.8.9 1.8.7c1.4-.3 1.7-1.3 1.4-5.7l-.3-5.3 13.1.4c7.3.1 13.6.5 14.1.8 1.4.9-2 5-4.1 5-1 0-2.2.4-2.5 1-1.2 2-3.6.9-5-2.3-1-2.2-1.4-2.6-1.4-1.2.1 4.7 3.1 6.7 7.3 4.7 1.2-.6 2.9-1.3 3.9-1.6.9-.3 2.1-1.6 2.6-2.8 1.1-2.9-.9-4.7-4.3-4.1-2.1.4-2.4.2-1.9-1.6.3-1.2.3-2.1-.1-2.1-.3 0-.6.7-.6 1.5m10.5 62.5c.2 38.4 0 64.9-.5 65.6-.7.7-.4 1.1.6 1.1 1.4 0 1.5-3.4 1.1-32.7l-.5-32.7 2.4.5c1.3.2 2.4 1.2 2.5 2.1.3 5.2-.4 9.7-1.7 10.7-.9.7-1.1 1.4-.5 1.5.7.3 1.1 11.4 1.3 31.7.1 17.3.5 31.5.8 31.7s.5-14.6.5-32.8c0-18.3 0-35.7.1-38.7.2-13.3 0-29.1-.3-24.8-.3 3.7-.8 4.8-2.1 4.9-1 0-1.2.3-.4.6 1.8.7 1.7 12.3-.2 12.3-2.3 0-2.6-5.9-2.4-35.8.2-15.1 0-27.9-.4-28.5s-.5 27.9-.3 63.3m175.4-60.5c-.8.9-3.1 2.4-5 3.4-2.8 1.6-3.4 2.4-3.2 4.8s-.5 3.6-3.7 6.1c-2.1 1.8-4.3 3.2-4.9 3.2-.5 0-1.2.4-1.6 1-.6.9 1.3 23.2 2.1 23.9.9.9 20.2 2 25.2 1.4 4.3-.5 5.5-1 6.2-2.8.5-1.2 1.6-2.5 2.5-2.8 2.2-.9 3.5 2.9 2.8 8.2-.3 2.2-.1 4.6.4 5.3 1.1 1.3 1 3-.2 6.8-.5 1.5-.4 2 .4 1.6.6-.4 1.1-1.6 1.1-2.7 0-1.5.7-1.9 3-1.9 2.9 0 3 .1 2.8 4.6-.1 2.8-.7 4.8-1.5 5.1-2 .8-3-.6-1.3-1.7 1.3-.8 1.2-1-.2-1-1.1 0-1.8.8-1.8 2 0 1.5.7 2 2.4 2 3 0 3.5-1.5 3.6-10.5 0-3.9.4-11.1.8-16l.7-9 13 .3c7.2.2 13.4.7 13.9 1.2.6.6.3 1.6-.6 2.7-1.2 1.3-2.1 6.5-3.3 19.8-.9 9.9-1.8 18.5-2 19.2-.2.6-1.1 5.6-2 11-.8 5.4-1.8 11.4-2.1 13.3-.4 1.9-1 7.5-1.5 12.5-1.3 13.4-2.5 23.4-4.8 39.5-1.1 8-2.2 15.6-2.3 17-.3 2.5-.4 2.5-9.5 2.5-9 0-9.2 0-9.6-2.5-.5-2.5 1.4-23.4 3.4-38.5.7-4.4 1.3-12.5 1.5-18s.6-11.6.9-13.5c1-5.4 2.1-30 1.3-29.2-.3.4-.9 6.3-1.1 13.2-.3 6.9-.9 14.1-1.2 16-.4 1.9-.8 7.8-.9 13s-1.2 17.6-2.5 27.5c-2.3 18.9-3 30.3-1.9 32 .3.6 5 1 10.4 1h9.9l1.1-9.5c.7-5.2 1.8-13.1 2.4-17.5 1.4-9.8 2.8-21.1 3.9-33 .5-5 1.2-10.8 1.5-13 .4-2.2 1.1-6.9 1.7-10.5s1.4-8.5 1.9-11c.6-2.5 1.7-12.1 2.5-21.5 1.2-12.1 2-17.4 3.1-18.6.9-1 1.4-2.6 1.2-3.6-.3-1.5-1.7-1.9-9.4-2.4-5.1-.4-11.6-.6-14.5-.5l-5.4.1-.3 6.7c-.2 4.9-.7 6.8-1.6 6.8-2.1 0-2.6-2.3-2.6-11.1 0-9.6-.8-9.2 18.1-8.7 13 .3 13.5.4 17.2 3.2 2 1.5 3.7 2.4 3.7 1.9s-1.5-2-3.2-3.4c-3.2-2.3-3.9-2.4-21.5-2.6l-18.3-.2v4c0 2.1.4 3.9.8 3.9s.6-1.6.4-3.5c-.3-2.1 0-3.5.7-3.5s1.1 2.9 1.1 8.2c0 9.7.7 12.8 2.7 12.8 1.1 0 1.3 1.1 1.1 4.7-.3 4.4-.5 4.8-3.2 5.1-1.9.2-2.6 0-2.1-.8.4-.6.1-1.7-.5-2.5-.8-1-1-2.8-.5-5.1.8-4.4-1.1-9.8-3.2-9-.8.4-1.9.6-2.4.6s-1.4 1.1-1.8 2.4c-.8 1.9-1.9 2.4-6.3 2.9-5.6.5-22.2-.4-23.2-1.4-.3-.3-.8-3.6-1.1-7.5-.3-3.8-.7-8.5-1-10.4-.6-3.3-.3-3.7 4.7-7.1 4.6-3.1 5.3-4 5.4-6.9 0-2.7.6-3.6 3.5-5.2 1.8-1 3.9-2.5 4.6-3.4 1.8-2.5 3.2-.8 3.9 4.6.4 2.7 1.3 5.8 2.1 6.7 1.4 1.7 1.4 1.7.8-.2-.4-1.1-1.2-4.2-1.7-7-1.2-6.3-3-7.8-5.9-5"/><path d="M665 171c-.1.8-.4 5.5-.6 10.5-.3 7.1-.7 9.3-2.1 10.2-1.5 1.2-1.5 1.3-.1 1.3 2.5 0 2.9-1.3 2.9-8.2 0-3.5.3-7.5.5-9.1l.6-2.7H684c10.1 0 18.1.4 18.5.9.5.9.7 19.3.2 25.1-.2 1.9.3 2.5 1.8 2.5 1.7 0 2.1-.8 2.3-4.4.2-3.2-.1-4.7-1.2-5.3-2.3-1.3-2-3.8.4-3.8 1.8 0 2-.7 2-7v-7l3.5-.2c4.5-.2 14.3-.2 19.8 0l4.2.2-.3 4.9c-.3 4.2-.1 4.9 1.7 5.4 1.1.2 2.2 0 2.4-.6.5-1.7-1.5-9.7-2.6-9.7-.5 0-.7-.7-.4-1.5.4-.8.2-1.7-.4-2-.5-.4-.8-.1-.7.7.2 1-1.9 1.3-9.7 1.4-5.5 0-11.9.1-14.2.2l-4.3.2v7.1c0 5.2-.3 7-1.2 6.7-.8-.3-1.5-3.1-1.8-7.4l-.5-6.9-16.9-.3c-11.5-.2-17.4-.6-18.5-1.5-1.2-.9-1.3-.9-.7 0 .4.7.3 1.3-.3 1.3-.5 0-1.2-.6-1.4-1.3-.4-.8-.6-.8-.7.3m72.9 10.2c.1 1-.3 1.8-.9 1.8-.5 0-1-1.9-.9-4.3.1-3.6.2-3.8.9-1.7.4 1.4.8 3.3.9 4.2M706 197.1c0 2.9-.4 3.9-1.6 3.9s-1.5-.6-1-2.3c.3-1.2.6-3.2.6-4.5s.4-2 1-1.7 1 2.4 1 4.6m195.6-19.2c-2.4 2.7-1.9 3.7.7 1.4 1.9-1.7 3.3-2 9.7-1.7 13.9.6 26.9 2.5 28.2 4.1.7.9 1.1 3.5.9 6.7-1 14.5.9 43.7 3 46.3.6.6 1 3.1.9 5.5-.1 7.6.9 23 2 31.3.6 4.4 1 11.6.8 16-.6 15.5.2 33.1 1.5 34.7.9 1.1 3.7 1.7 10.2 2.1 6.4.4 7.7.3 4.5-.3-2.5-.5-6.4-.9-8.6-.9-2.3-.1-4.7-.7-5.3-1.4-.7-.9-1.1-8.6-1.2-22.3-.1-11.5-.5-24.1-1-27.9-1-7.7-2-24.2-1.9-31.8.1-2.7-.3-5.4-.9-6.1-.9-1.1-3.1-15.3-3.1-20.3 0-2.1.2-2.2 2-1.1 1.6 1 2.3.9 4.3-1 1.3-1.2 3-2.2 3.9-2.2 2.6 0 5-4.7 4.3-8.2l-.7-3.1 4.3 3.6c3.3 2.6 4.8 4.8 5.8 8.4.8 2.6 2.3 5.9 3.3 7.3 7.8 10.3 9.5 15.2 7.4 21.5-.9 2.5-1.6 5.3-1.6 6.3 0 .9-.7 2.5-1.5 3.5-1.6 2.3-.9 4.7 1.4 4.7 1.4-.1 1.4-.2-.2-1.1s-1.6-1.2-.2-3.2c.8-1.2 1.5-2.8 1.5-3.7 0-.8.5-3.3 1.1-5.4.8-2.9 1.3-3.6 2-2.5 1.2 1.9 1.1 8.9-.1 8.9-.6 0-.9 1.3-.8 2.9s-.3 3.6-1 4.4c-1 1.1-.9 2.2.3 5 1.1 2.8 1.4 6.6 1.1 16.6-.3 7.2-.7 13.4-.9 13.8-.3.4-.8 2.5-1.1 4.5-.3 2.1-1.1 5.7-1.7 8-.6 2.4-1 5.3-1 6.5s-.6 3.7-1.4 5.7c-.8 1.9-1.2 4.1-.9 4.9s.1 1.8-.5 2.2c-.6.3-1.1 1.7-1.1 3.1 0 2 .5 2.4 3 2.4 3.3 0 8 3.8 8 6.3 0 .8-.9 2.2-1.9 3.1-3 2.8-3.4 6.2-1.1 11.3 1.8 4.2 1.9 4.8.5 6.9-2 3.1-1.9 5 .6 8.6 1.5 2.1 1.8 3.3 1.1 4-1.8 1.8-4.1.2-3.6-2.4.4-2 .3-1.9-1.1.6-.9 1.5-1.5 3.7-1.2 4.7.8 3.1-1.8 4.2-8.1 3.6-3.1-.4-7.7-.2-10.2.2-2.6.6-11.1.6-20 .1-8.5-.5-27.4-1.1-42-1.4-14.6-.2-27.4-.7-28.5-1.1-1.6-.6-1.7-.5-.5.4.8.6 3.2 1.1 5.3 1.1 3.5 0 3.8.2 3.2 2.1-.5 1.5-.4 1.9.4 1.5.6-.4 1.1-1.4 1.1-2.3 0-1.1.6-1.4 2.3-.9 1.2.3 4.6.6 7.5.6 4.5 0 5.5.3 5.9 2 .7 2.7 3.3 2.6 4.1-.2l.5-2.1 25.6.8c14.1.5 27.4.8 29.6.7s8.4-.2 13.7-.2c10.3-.1 12.1-1 11.1-5-.4-1.5.1-1.8 2.8-1.7 4.2.2 4.9-2.1 1.8-6.3-2.2-2.9-2.2-3.1-.6-6.4 1.5-3.3 1.5-3.7-.5-8.5l-2.1-5 2.7-4c2-2.9 2.6-4.6 2.1-6.3-1.2-3.7-2.5-4.8-6.7-5.4-3.5-.6-3.9-.9-3.3-2.8.4-1.2.8-3.2.9-4.6.2-1.4.8-4.1 1.4-6 4.8-14.9 7.6-46.8 4.7-53.7-1.3-3-1.3-3.8-.1-5.5.8-1 1.2-2.7.9-3.8-.3-1 0-2.1.6-2.4 1.2-.8 1.5-8.8.4-10-1.2-1.2-4.2-11.9-3.6-12.9.3-.6.1-.7-.5-.3-.7.4-1.8-.7-2.8-2.6-.9-1.8-2.4-4.2-3.4-5.3-.9-1.1-2.3-4.2-3.1-6.8-1-3.6-2.5-5.8-5.6-8.3-5.2-4.3-6.7-4.4-5.9-.3.7 3.4-1.7 7.9-4.2 7.9-.9 0-2.6.9-3.8 2.1-2 1.9-2.3 1.9-3.8.4-1.2-1.2-1.6-3.2-1.5-6.9.1-2.9-.1-5.8-.5-6.5-1.2-1.9.4-5.2 3.1-6.2 2.3-.8 3-.6 5.4 2.3 3.4 4 3.8 2.5.5-1.6-2.2-2.6-2.6-2.8-5.6-1.7-3.2 1.1-3.2 1-2.7-1.7.3-1.5-.1-4.1-.8-5.8-1.3-3.1-1.4-3.1-12.1-4.3-19.8-2.1-26-2.1-27.8-.2M894 374.1c-.7 1.1-1.4 1.8-1.7 1.5-.8-.8.5-3.6 1.7-3.6.7 0 .7.6 0 2.1M781.7 177.7c-.2.5-.5 25.5-.6 55.8-.3 60.1-.4 67.1-2 79s-1.8 11.6 10.2 11.3c5.6-.1 12.7-.2 15.7-.1 11 .4 11 .4 10.9-2 0-1.6-.2-1.8-.7-.7-.4.9-2.3 1.6-4.4 1.8-3.7.3-3.8.2-3.9-3-.1-1.8 0-4.4.1-5.7.2-2.1-.1-2.3-2.4-1.7-2.2.5-2.5.3-2.3-1.5.4-3.6-2.6-4.6-6.2-2-2.9 2.1-4.3 6.1-2.1 6.1.5 0 .7-.6.4-1.4-.7-1.9 5.2-6.1 6.3-4.4.4.7.6 2.1.4 3.2-.2 1.5.2 1.7 2.1 1.3 2.2-.6 2.4-.3 2.6 4.3l.2 4.9-9-.4c-8.3-.3-9.3-.6-11-2.8-1.1-1.4-2-3.3-2-4.4 0-2.5-1.6-4.8-2.4-3.5-.3.6-.2 1.3.4 1.7.5.3 1 1.6 1 2.7 0 1.2 1 3.2 2.2 4.5l2.1 2.3h-3.6c-2 0-3.8-.4-4.2-1-.3-.5-.1-4.7.5-9.2 1.6-11.5 2-28.4 2.3-85.3l.2-49h27.9l.8 3.5c1.4 6.3 3.6 69.8 2.6 74.4-.6 2.5-.7 11-.2 21.6.4 9.6.6 21.4.5 26.3-.3 9.2.5 14.7 2 14.7.4 0 .4-1.2-.2-2.8-.6-1.5-.9-6.8-.8-11.7.1-5-.1-16.9-.5-26.5-.5-10.6-.4-19.1.2-21.6 1-4.5-1.2-67.4-2.6-74.9l-.8-4-14.6-.3c-8.1-.1-14.8.1-15.1.5"/><path d="M905.2 192.3c-.2 5.7.3 11.9 1.3 15.9.8 3.7 1.9 15.8 2.5 27 .5 11.2 1.2 22.5 1.5 25.3.2 2.7.7 12 1 20.5s1 21.8 1.7 29.6l1.1 14.1 14.9.2 15 .1-.7-10.2c-.3-5.7-1-13.2-1.5-16.8s-1.2-13.5-1.5-22-.9-20-1.5-25.5c-2.5-26.2-3-34.2-3-47.6 0-15.9-.3-16.9-5.5-16.9-1.8 0-7.6-.7-13.1-1.5-5.4-.8-10.4-1.5-10.9-1.5-.7 0-1.2 3.7-1.3 9.3M922 186c5.2.7 10.2 1.5 11 2 1.2.6 1.6 4.3 2.1 19.6.6 18.2 2.5 45.3 3.4 48.4.2.8.7 9.1 1 18.5.3 9.3 1 20.1 1.5 24 .5 3.8 1.2 11.2 1.5 16.3l.7 9.3-14-.3-13.9-.2-1.1-13c-.6-7.2-1.4-20.5-1.7-29.6s-.8-18.3-1-20.5c-.3-2.2-1-13.5-1.5-25-.6-11.6-1.7-23.9-2.6-27.5-.9-4-1.4-9.9-1.2-15.3l.3-8.8 3 .5c1.6.3 7.3 1 12.5 1.6"/><path d="M917.5 306.8c3.1.8 4.5 3.6 2.6 5.5-.6.6-1.1 2.2-1.1 3.5 0 2 .4 2.3 3.2 2 2.7-.2 3.3.1 3.9 2.2l.7 2.5.1-2.8c.1-1.6-.5-3-1.4-3.3-.8-.4-1.5-1.5-1.5-2.5s-.4-1.9-.9-1.9-1.1-1.2-1.3-2.8c-.3-2.3-.8-2.7-3.8-2.9-3.4-.1-3.4-.1-.5.5m5.5 7.6c0 1.6-1.8 3.1-2.7 2.2-.8-.8.5-3.6 1.7-3.6.5 0 1 .6 1 1.4M819.9 201.6c0 .5-.2 26.2-.2 57.2-.1 36.2-.6 56.5-1.2 57-.5.4-1 2.5-1 4.8l-.1 4.1 12.2-.1c6.7-.1 12-.5 11.7-1-.3-.4-5.3-.7-11.2-.5l-10.6.4.3-4c.2-2.2.5-29.4.6-60.5l.3-56.5 4.4.4c2.4.2 8.7.6 13.9 1l9.5.6-.1 11.5c0 10.6-.5 18.7-3.4 59.7-.6 7.8-1.5 15.4-2 16.8-.6 1.5-1.3 8.6-1.7 15.9-.5 11.4-.4 13.3 1.1 14.5.9.8 1.6.9 1.6.3s-.5-1.4-1.1-1.8c-1.4-.8-.5-22.9 1.1-28.4.6-1.9 1.5-9.8 2-17.5 2.5-35.9 3.4-48.9 3.7-59.7.5-13.7 2-12.3-14.7-13.3-5.8-.3-11.5-.9-12.7-1.2-1.3-.3-2.3-.1-2.4.3m-765.5 8.3c-1.7 1.1-3.4 3-3.7 4.3-.4 1.3-2 3.2-3.8 4.2-2.5 1.5-3 2.3-2.6 4.3.3 1.9 0 2.7-1.4 3-2.6.7-2.4 4.1.3 7 1.8 2 2 2.7 1 4.1-3 4.2-3.4 6.6-1.8 12.3.9 3 1.6 7.4 1.6 9.7 0 2.5.5 4.5 1.3 4.7 1.4.6 1.4 7.2 0 10-.5 1.1-2 5.2-3.3 9.2-1.5 5-3 7.7-4.7 8.8-2.3 1.6-2.4 2-1.9 8.8 1.1 15 1.7 18.2 4.9 24.2 1.1 2.1 3.6 12.9 3.6 15.5 0 1.2-.2 1.1-1-.3-.5-.9-1.7-1.7-2.4-1.7-2 0-2 5.6-.1 6.7.8.4 1.8 2 2.1 3.5.6 2.2.4 2.8-.9 2.8-.9 0-1.6.3-1.7.7 0 .5-.2 1.6-.4 2.6s.5 5.8 1.4 10.7c1.3 6.1 1.8 12.8 1.7 21.2-.1 6.8.1 14 .5 16.1.3 2 .3 4-.2 4.2-.4.3-.8 4.9-.8 10.3 0 5.3-.3 16.7-.7 25.2-.7 15.5 0 27 3.2 52 2.1 17.1 4.7 62.9 4.8 84 .1 13.4.4 18.8 1.3 19.5 2.1 1.7.4 8.5-2.3 9.6-3 1.1-3.1 3.7-.1 4.1 1.2.2 2.2.9 2.1 1.5-.1.7-.2 2.7-.2 4.4-.2 2.5-.5 3-1.9 2.4-3.2-1.2-3.7-1-3.8 1.5-1.1 21.6-1.1 22.5 1 22.8 1.1.3 2.3.9 2.7 1.6 1.1 1.6 1 3.8-.2 3.1-.5-.3-1-.1-1 .4 0 .6.4 1.1.9 1.1 3.2 0 2-6.7-1.2-7.2-1.6-.2-2.2-.9-2.1-2.8.1-1.4.3-6.4.5-11.2l.3-8.7 2.8.6c2.6.5 2.8.3 3-3.1.1-2 .2-4.4.2-5.3.1-1-.9-2-2.4-2.4l-2.5-.6 2.7-1.1c1.9-.8 2.8-1.9 2.8-3.4 0-1.3.3-3.2.6-4.4s0-2.7-.8-3.5c-1-1-1.3-5.9-1.4-19.4-.1-20.8-2.8-66.7-4.8-83.5-3.3-26.5-3.8-35.1-3-56.4.5-11.6.7-22.8.6-25-.1-2.1.3-4.5.9-5.2s.8-2.3.4-3.4c-.4-1.2-.8-9.4-1-18.3-.2-9.2-1-19-1.8-22.7-1.9-8.4-1.8-10.2.6-10.8 1.6-.4 1.8-1 1.2-4.1-.4-2-1.3-4-2.1-4.4-1.6-.9-1.9-4.7-.4-4.7.6 0 1 .7 1 1.5 0 1.7 1.6 2 2.5.5 1-1.6-1.7-14.2-3.9-18.5-2.2-4.2-3.4-10.6-4.3-21.7-.4-6.3-.3-6.7 2.1-8.3 1.3-.9 2.8-3.1 3.2-4.8.4-1.8 1.2-4.5 1.9-6.2.7-1.6 1.9-4.4 2.6-6 1.5-3.7 1.6-11.2 0-12.8-.6-.6-1.1-2.9-1.1-5.1 0-2.1-.8-6.3-1.7-9.3-1.6-5.2-1.6-5.4.5-8.3 2.7-3.6 2.8-6.2.2-8.5s-2.5-4.2.1-5c1.6-.5 1.9-1.2 1.5-3-.5-1.9 0-2.7 2.4-4.1 1.6-1 3.4-3.1 3.9-4.6.6-1.5 2.1-3.3 3.5-4 1.5-.6 2.6-1.5 2.6-2 0-1.1 0-1.1-3.6 1.1m646.8 16.3c-.2 9.8.3 11.3 3.2 10.2 2.4-.9 2.2-8-.3-9.4-1.5-.7-2.1-2.3-2.4-5.8-.2-2.6-.4-.3-.5 5m3.6 6.2c-.5 4.6-2.3 3.7-2.6-1.3-.3-4-.2-4.3 1.3-3.1 1 .8 1.5 2.5 1.3 4.4M493 264c-1.3.9-1.3 1 0 1 .8 0 2.1.9 2.7 1.9 1 1.6.9 2-.8 2.4-1.6.4-1.9 1.4-1.9 5.7 0 2.8.6 7.2 1.4 9.8 5.5 18.3 7.6 33.8 5.7 40.8-1.1 4-1.3 4.2-10.4 7.8-5 2-9.7 3.6-10.3 3.6-.7 0-4.1-1.7-7.5-3.9-7.9-4.7-41.5-22.1-42.9-22.1-4.1 0-23-11.8-30-18.8-2.5-2.4-6.3-5.3-8.5-6.3-5-2.3-9.5-2.5-9.5-.3 0 1-.6 1.3-1.8 1-1.2-.4-2.9.5-5 2.7-2.9 2.9-3.5 4.7-5.2 13.8-1.1 5.7-2.4 12.3-3 14.6-.5 2.3-1.5 8.6-2.1 14s-1.5 10.2-1.9 10.8c-1.5 1.8-4.2 12.6-3.6 14.1.3.9-.1 2.2-.9 3-.8.9-1.5 2.8-1.5 4.4 0 3.3-1.9 8-3.2 8-.5 0-2.1 2.8-3.7 6.2-1.5 3.5-3.7 8.3-4.8 10.8-10.4 22.9-15 35.4-18.3 49.5-.6 2.7-2.7 11.1-4.6 18.5-6.5 25.2-10.4 42.4-10.4 46.6 0 1.7-.7 4.9-1.6 7-2.8 6.7-.7 15.4 3.7 15.4 2.1 0 6.9-5.9 6.9-8.5 0-1 .4-3.4 1-5.4.5-2 3-12.2 5.5-22.6 2.6-10.5 5.5-22.4 6.5-26.5s2.1-9.8 2.4-12.6c.6-4.8 5.3-20.6 7.9-26.6.8-1.9 1.7-2.6 2.9-2.2 2.4.7 5.4-2.6 6.2-6.9.4-2.4 1.8-4.5 3.9-6.1 2.9-2.3 3.1-2.7 1.9-4.7-1.3-2-1.1-2.4 1.7-4.6 1.7-1.4 3.1-3.3 3.1-4.3 0-2 3.3-3.6 5-2.5.5.3 1 .1 1-.4 0-1.2-2.9-1.4-5.4-.5-.9.3-1.6 1.5-1.6 2.5s-1.3 2.8-3 4.1c-3.1 2.2-3.8 4.6-2 6.4.7.7 0 1.7-1.9 3.2-2 1.5-3.2 3.4-3.7 5.9-.8 4.4-4 8.1-5.6 6.5-1.1-1.1 1.4-9.4 5.7-18.7 1.2-2.8 3.2-7.3 4.5-10 1.2-2.8 4-8.6 6.1-13.1 2.1-4.4 4.3-10.2 5-13 .6-2.7 1.6-5.5 2.2-6.1.5-.7.7-1.9.4-2.7s.1-1.7.9-2 1.4-1.9 1.4-3.8c0-1.8.6-4.5 1.4-5.9.7-1.4 1.6-4.3 2-6.3.7-3.7.8-3.7 2.7-2 1 .9 1.9 1.2 1.9.6s-.6-1.5-1.4-1.9c-1.3-.7-1.2-2.9.5-15.8 2.2-17.3 2.7-20.3 3.9-21 1-.6 4.3 1 7.5 3.6 11.4 9.4 27.6 18 42.9 22.9 2.2.7 8.2 3.6 13.5 6.5 10.8 5.9 16.3 8.7 20.4 10.6 1.6.7 3.5 2.5 4.3 4 1.3 2.5 5.3 4.5 8.2 4 .8-.1 2.4.9 3.7 2.3s3.5 2.6 4.8 2.6c1.2 0 2.8.5 3.5 1.2 3.1 3.1 10.2.1 10.2-4.4 0-2.2-1.6-2.3-5.2-.4-1.5.8-3 1.1-3.2.7-.3-.4 1.8-1.7 4.5-3 5-2.4 5.8-3.4 3.7-4.7-.6-.4-.8-.3-.5.2.3.6-1.7 2.2-4.4 3.7-2.7 1.6-4.9 3.2-4.9 3.7 0 1.5 2.4 1.7 5.3.2 3.9-1.9 4.6-.7 1.5 2.5-2.4 2.4-2.7 2.5-5.4 1-1.6-.8-4.2-1.9-5.9-2.3-3.1-1-4.8-4.4-2.1-4.4.8 0 3.9-1.1 6.8-2.4 5.3-2.4 18.6-7 28.4-9.9 4.6-1.4 5.4-1.3 9 .3 2.8 1.3 4.2 1.5 5.2.8.7-.6 1-1.4.6-1.7s-.9-.1-1.1.6c-.3.9-1.5.7-4.1-.7-2-1.1-4.6-1.7-5.7-1.4-12.3 3.3-27.1 8.3-34 11.5-8.7 4-15.7 3.7-17.7-.7-.8-1.6-3.6-3.7-7.7-5.8-3.7-1.8-10.9-5.5-16.1-8.3s-14-6.8-19.5-8.8c-14.8-5.5-17.6-6.9-27.2-13.7-15.5-10.9-17.3-12-19-11.6-2.1.4-2.8 3.1-4.7 19.1-1.6 12.5-4 24-5.7 26.2-.5.6-1.1 3.1-1.5 5.5-.4 2.5-1.3 5.2-2 6.1-.8.9-1.1 1.9-.8 2.2.4.4.2 1.2-.3 1.9-.6.7-1.4 3.1-1.7 5.2-.4 2.2-2.7 8-5.1 13-2.3 5-5.3 11.3-6.5 14.1-1.3 2.7-3.3 7.2-4.5 10-4.1 8.8-15.4 43.8-16 49.5-.4 3-1.5 8.9-2.5 13-6.5 26.3-11.1 45.3-12.2 50.3-.8 3.6-2.4 7.1-4 9l-2.8 3.2-2-2.4c-2.2-2.6-2.6-8-.9-11.3.6-1.2 1.5-5.3 2-9.2.8-6.7 2.3-13.6 5.6-26.6 2.4-9.3 8.1-32.2 9.3-37.5 2.6-10.8 5.5-19.5 10.7-31.5 10.7-24.5 15.2-34 16.2-34 1.2 0 3.1-4.7 3.1-7.6 0-1.4.5-3.5 1.2-4.7.6-1.2 1.2-4 1.3-6.2s1.2-6.3 2.3-9c1.2-2.8 2.6-9.5 3.3-15 .6-5.5 1.3-10.3 1.5-10.7.2-.3 1.1-4.6 1.9-9.5 2.4-14 2.4-14.1 4.3-13.8.9.1 1.1 0 .5-.2-.7-.3-1.3-1-1.3-1.6 0-1.9 6.2-7.6 7.6-7 .8.3 1.7-.2 2-1.1 1.4-3.7 8.5-.8 16.2 6.5 6.6 6.4 18.4 14 26.7 17.3 7.3 2.9 32.5 15.7 45.6 23.2 4.2 2.4 8.3 4.4 9.2 4.4 3.1 0 20.6-7.4 21.3-9 1.5-4 1.5-15.8-.1-23-.9-4.1-2.3-10.7-3.1-14.5-.8-3.9-1.9-7.8-2.4-8.7-.6-1-1-4.1-1-6.9 0-4.2.3-5.2 2-5.6 2.4-.6 2.5-2.1.2-5-1.2-1.7-2.1-2-3.2-1.3"/><path d="m38.2 303.2.1 4.3.6-4 .5-4 .6 4.5.7 4.5.1-4.8c.2-3.6-.2-4.7-1.3-4.7s-1.5 1.1-1.3 4.2m555.5-.1c-3.7 1.1-8.5 2.7-10.5 3.8-2 1-4.8 2.2-6.1 2.6s-9.2 5.2-17.5 10.7c-14.6 9.7-24.4 17.3-23.3 18.4.3.3 2.9-1.7 5.9-4.5 2.9-2.8 5.8-5.1 6.4-5.1s1.7-.7 2.4-1.5c1.5-1.9 6.7-4.5 7.4-3.7.9.8-4.4 5.3-5.5 4.7-.5-.4-.9-.1-.9.4 0 1.9 2.4 1.2 5.2-1.4 1.5-1.4 2.5-3.1 2.2-3.8-.6-1.6 14.9-12.2 20.9-14.3 2.2-.8 4.5-1.8 5.1-2.2 1-.8 6.5-2.5 11.1-3.5 1.1-.3 2.8-.8 3.8-1.2 1.6-.7 1.7.1 1.5 12.1l-.3 12.9-3.5-.2c-8.8-.5-11.4-.3-12.3.6-.6.6-2.2 1.1-3.5 1.1-2.2 0-2.4.3-1.8 3 .7 3.9-.2 3.8-4.4-.5-2.7-2.8-4.2-3.5-7.2-3.5-3.1 0-3.8.4-3.8 2 0 1.1.4 2 1 2 .5 0 .7-.7.4-1.5-.5-1.1.1-1.5 2.2-1.5 1.9 0 4 1.2 6.5 3.6 4.3 4.2 7.4 4.2 6.3-.1-.5-2.2-.3-2.5 1.8-2.5 1.3 0 2.8-.4 3.4-1 1.2-1.2 4.5-1.4 10.3-.4 3.2.5 4.5.3 5.2-.7 1.4-2.3 1.1-26.9-.3-26.8-.7.1-4.4 1-8.1 2m72.3 25c-1.9.5-14.1.9-27.1.9-19.3 0-23.9.3-24.8 1.4-1.6 1.9-3.2 27.6-1.9 29.6.8 1.3.9 1.3.5 0-.9-2.9 1.1-27 2.3-28.5 1-1.3 5.1-1.5 24-1.5 12.8.1 24.8-.4 27.5-1s6-.9 7.4-.6c3.3.7 47.2 2 56.6 1.8 13.1-.4 32-.4 66.5.1 19 .2 35.3 0 36.2-.5.9-.4 1.9-.4 2.2.1.7 1 4.8 1.1 65.1 1.3 37.6.1 58.3-.2 68.8-1.1.9 0 1.7-.9 1.7-1.9 0-1.4-.2-1.4-.9-.3-1.3 2-19.9 2.6-72.1 2.4-58.4-.4-60.3-.4-61.6-1.4-.7-.5-2.2-.6-3.5-.1-1.3.4-17.5.6-35.9.4-33.9-.4-55.6-.4-66.5 0-6.9.2-47.3-.9-55.5-1.6-3-.3-7.1-.1-9 .5m-65.2 6.1c-.1 2.4-.3 8.3-.4 13.3-.2 11.5-3.8 34.5-5.4 34.5-.3 0-2.4-2.8-4.5-6.2-9.5-14.9-18.7-21.7-25.1-18.7-3.4 1.7-9.3 12.6-12.3 22.7-2.2 7.4-5.1 25-5.1 30.5 0 4.5-1.3 5.4-4 2.7-1.1-1.1-3.2-2.5-4.5-3-2.5-.9-3.5-3-1.5-3 .6 0 1-1.4 1-3 0-2.7-.3-3-3.2-3.1-3.9-.1-9.2-2.9-9.6-5.2-.5-2.5 3-6.6 5.6-6.7 2.8 0 2.9-2.5.2-4.2-2.4-1.5-2.6-3.4-.5-4.2.8-.3 1.5-1.2 1.5-2.1 0-1.9.9-1.9 3.2.2 2 1.8 2.5.4.6-1.5-1.8-1.8-4.5-1.5-5.2.5-.3 1-1.1 2.6-1.8 3.5-1 1.4-.8 2.1 1.2 4.3l2.3 2.5h-2.4c-3 .1-6.1 4.2-5.7 7.7.4 3.2 4.9 6.1 9.6 6.2 2.5.1 3.2.5 3.2 2.1 0 1.1-.4 2-1 2-.5 0-1 .9-1 2 0 1.4 1.2 2.5 4 3.7 2.2 1 4 2.3 4 3s.7 1.3 1.5 1.3c1.3 0 1.5 1.3 1.2 7.4-.2 4.4-1 8.4-1.9 9.8-1.8 2.8-3.2 9.2-1.8 8.3.6-.3 1-1.4 1-2.4s.7-3.3 1.7-5.1c.9-1.9 1.8-5.9 2-8.9 1-17 3.4-34.7 6-44.1 2.2-7.9 8.9-20.7 11.8-22.6 1.6-1 3.4-1.4 5.1-1 3.9 1 11.8 8.9 17.7 17.7 2.8 4.4 5.9 7.9 6.7 7.9 1.6 0 2.8-4.5 5.1-19.5 1-6.1 2-33.5 1.3-33.5-.2 0-.5 1.9-.6 4.2m9 30.5c-.5.6-1.3 3.8-1.8 7s-2 10.1-3.3 15.3c-2.4 9.1-2.4 9.6-.7 12 .9 1.4 2.2 3.8 2.7 5.5 1 3 1 3 7.9 2.7 3.8-.2 9.8.4 13.4 1.2s11.5 2.2 17.5 3.1c11 1.7 18.6 3.4 23.8 5.4 1.6.6 3.9 1.1 5.2 1.1s2.9 1 3.9 2.5c2.1 3.2 4 3.2 6.3-.1 1-1.4 5.7-7.2 10.5-12.9 6.6-7.8 10.7-11.6 17-15.8 11.1-7.3 19.7-11.5 24.4-11.9 3.6-.3 4-.1 5.8 3.7 1.7 3.4 2 6 2 18.5 0 15.3-1.2 23.7-7.3 50.6-4.8 21.3-5.2 24-3.7 27.7 1.9 4.6 3.9 28.6 3.3 38.7-.7 10.2-1.9 17.8-3.4 20.5-2.1 4-3.4 11.6-2.3 13 .6.7 4.3 2.9 8.3 4.8 7.6 3.6 13.7 8.1 13.7 10 0 .7-.4 1.8-.9 2.6-.7 1.1-1.8.7-5.3-2.2-5.2-4.3-14.3-8.7-17.8-8.7-5.4 0-6.1 2.2-4.1 13.8 1.1 6.1 1.8 7.7 4.7 10.4 1.9 1.8 3.4 4 3.4 4.9s.9 2.4 2 3.4 1.7 2.2 1.4 2.7c-.4.6-1 .6-1.7-.1-.6-.6-1.9-1.1-2.8-1.1-1.6 0-1.7 1.3-1.1 14.2 1.1 28-3.2 57.3-9.8 67.3-3.6 5.5-3.1 6.2 10.9 14.2 3.1 1.8 6.2 3.2 6.9 3.3.8 0 2.6.9 4 2.1 3.8 2.8 9.9 6.8 15.2 9.7 6.3 3.4 11.2 8.3 10.6 10.5-.3 1.3.1 1.7 1.3 1.5 2-.3 6 2.5 14 9.9 11 10.2 11.7 10.6 15.3 9.4 1.7-.6 3.9-1.1 4.9-1.1 2.1 0 4.3 5.5 3 7.7-.7 1.3-1.1 1.2-2.5-.8-.9-1.3-1.6-3-1.6-3.7 0-.8-.8-1.2-1.7-1-1.3.3-1.7 1.1-1.5 2.8.2 1.4.4 3.6.6 5 .1 1.4 1 2.6 2 2.8 1.2.3 1.5 1 1.1 2.3-.5 1.4-.2 1.9 1.4 1.9 2.4 0 3.7 1.8 2.3 3.2-1.3 1.3-.4 3.8 1.4 3.8 2.5 0 6.4 9.4 6.4 15.3 0 3 .9 8 2 11.3 2 5.9 4.7 32.2 3.5 35.1-.2.8-.5 7.6-.6 15.1 0 16.7-2.1 29.4-5.5 33.9-1.3 1.7-2.4 3.7-2.4 4.3s-1.1 1.5-2.4 2c-3.2 1.2-4.6 7.8-2.1 9.6.9.7 1.4 1.7 1.1 2.3-.4.5.3 7.5 1.4 15.5 1.6 11 1.9 15.4 1.1 18.3-1.2 4.4-1.3 10-.5 15.9.6 4 .5 4.1-2 3.7-2.8-.6-3.6-2.3-1.1-2.3 2.2 0 1.8-2.8-.6-4-2-1.1-2-1.2-.2-2.6 1.7-1.4 1.7-1.4-.4-.5-2 1-2.2.9-2.2-3.2-.1-6.6-1.8-26.8-2.6-31-.7-3.7-.9-3.9-3.9-3.3-1.7.3-4.2 1.5-5.6 2.6-5.2 4.1-15.5 9-25.3 12-5.6 1.7-11.7 3.6-13.6 4.2s-5.9 1.4-9 1.9c-15.3 2.2-24.2 3.8-30.1 5.7-8.4 2.7-28.9 7.5-41 9.7-5.2 1-12 2.4-15 3.2-7.4 1.9-11.2 2.3-12.8 1-.9-.7-1.8-.5-3 .5-.9.9-4.2 2.1-7.2 2.8s-8 1.9-11 2.7c-10.3 2.7-16.5 4.1-29 6.7-6.9 1.4-14.4 3-16.8 3.6-2.3.5-5.7 1-7.6 1-1.8 0-6.4.6-10.2 1.4-28.6 6-57.5 11.4-80.4 15.1-9.1 1.4-21.4 3.5-27.5 4.5-6 1-15 2.4-20 3-4.9.6-12.4 1.8-16.5 2.6-4.1.9-10.6 1.9-14.5 2.4-3.8.4-15.1 2.2-25 3.8-9.9 1.7-25.2 4.2-34 5.7-8.8 1.4-19.4 3.2-23.5 4s-10.9 1.9-15 2.5c-4.1.5-9.1 1.4-11 1.9-1.9.6-8.2 1.7-14 2.6-18.6 2.8-23.3 3.6-32 5.1-14.7 2.6-56.3 9.2-62 9.9-13.6 1.6-26.7 3.6-29 4.5-1.4.5-6 1.2-10.2 1.5-4.3.4-7.8 1-7.8 1.4 0 .9 10.9-.5 20-2.4 3.6-.8 12.1-2.1 19-3 12.1-1.5 54-8 70.5-11 9.1-1.6 16.4-2.8 32-5 6.1-.9 12.4-2 14-2.5 1.7-.5 6.4-1.4 10.5-2s10.9-1.7 15-2.5 14.7-2.6 23.5-4c8.8-1.5 24.1-4 34-5.7 9.9-1.6 21.2-3.4 25-3.8 3.9-.5 10.4-1.5 14.5-2.4 4.1-.8 11.6-2 16.5-2.6 5-.6 14-2 20-3 6.1-1 18.4-3.1 27.5-4.5 9.1-1.5 23.3-4 31.5-5.5 8.3-1.6 17-3.2 19.5-3.5 2.5-.4 7.1-1.3 10.2-2.1 7.5-1.9 20.7-4.3 28.8-5.4 13-1.6 37.2-6.7 50.8-10.6 2.9-.8 7.7-2 10.5-2.5 10.1-1.9 10.9-2.2 11.4-3.6.4-.9.9-1 1.7-.4 1.5 1.2 6.6.8 13.6-1.2 3-.8 9.8-2.3 15-3.2 9.7-1.8 33.2-7.3 43-10.1 5.7-1.7 16.1-3.6 28.9-5.4 4.1-.6 7.8-1.3 8.1-1.5.4-.3 6-2.1 12.4-4 11.3-3.4 22.3-8.4 27.6-12.4 1.4-1.1 3.5-2.2 4.6-2.5 2.9-.9 3.2.5 4.4 19.9.6 8.8 1.2 16.5 1.5 17.2.2.7 0 1.5-.5 1.8-1.3.8-1.3 9.5-.1 11.4.6.9.6 2.2 0 3.3-.6 1-1.3 8.4-1.6 16.4-.5 13-.4 14.7 1.2 16.4 2.1 2.3 5.3 2.6 8.1.6 1.8-1.4 1.9-2.6 1.6-18.3-.2-9.2-.8-17.6-1.3-18.5-.5-1-2.4-2.1-4.2-2.6-2.7-.7-3.3-1.3-3.5-4.1-.4-4.3.8-5.4 3.2-3 1.7 1.7 1.8 1.9.3 1.9-2.2 0-2.2 2.9.1 3.6.9.3 2.5 1 3.6 1.6 1.8.9 1.8.6 1.1-7.6-.4-5.5-.3-10.4.4-13.4 1-3.8.8-7.2-.8-18.4-2.1-14.2-1.8-18.3 1.6-23.5.9-1.3 1.1-2.3.5-2.3s-1.6 1.6-2.3 3.5c-1.4 3.6-2.6 4.4-3.5 2.2-.8-2.1 1.4-6.7 3.1-6.7.9 0 2-1.2 2.6-2.7.8-2.2 1.2-2.5 2-1.3.9 1.3 1 1.3.6 0-.2-.8.1-2.6.8-4 2.4-4.8 4.4-19.5 4.4-33.2.1-7.5.4-14.3.6-15.1 1.2-2.9-1.5-29.2-3.5-35.1-1.1-3.3-2-8.4-2-11.5 0-4.3-.8-7.1-3.2-12-1.8-3.5-3.4-5.9-3.6-5.3-.2.7-.8.9-1.3.6-.6-.4-.6-1.1.1-1.9 1.3-1.6.3-4-3.3-8.1-2.7-3.1-4.8-8.2-3.7-8.9.4-.3 1.1.6 1.4 2 .3 1.3 1.5 2.9 2.5 3.5 2.9 1.5 4.5-1 3.3-5.2-.5-1.9-.5-4.8 0-6.8 1.1-4.4 1-11.2-.3-12.5-1.5-1.5-1.1-3.8.6-3.1 1.7.6 1.6 3 1.9-51.9.2-36.6 1.5-47.5 7.7-65.6 1-3 1.9-6.1 1.9-6.8 0-2.3 13.9-28.8 18.1-34.5 1.6-2.2 2.9-4.5 2.9-5.2 0-1.2 3.1-4 14.3-13.4 2.7-2.2 5.8-4 7-4s4.7-.9 7.7-2.1c8.2-3.2 20.7-5.8 27.8-5.8 3.5-.1 7.2-.6 8.2-1.1 1.7-.9 3.1 0 9.2 5.9 6 5.7 8.2 8.7 12.2 16.8 2.6 5.4 5.2 10.5 5.6 11.4.4.8 1.8 5 3 9.3 2.3 8.2 2.2 10.1-.9 41.6-.8 7.6-5.9 25-9.4 31.5-.5 1.1-5.8 7-11.7 13-10.3 10.6-12.3 13.4-15.5 23-1.8 5.2-2.3 24.8-3 104-.3 34.6-1 67.3-1.5 72.5-1.3 12.4-1.3 40.4-.1 45.5.6 2.2.6 4.4.1 5-.4.5-1.3 5.9-1.9 12-.6 6-1.6 12.8-2.1 15s-1.2 7.8-1.6 12.5c-.5 7.1-1.2 9.5-4 14.7-3.3 5.9-4.8 7.3-13.4 12-17 9.5-18.8 10.2-36.5 14.6-9.9 2.5-20.2 4.9-23 5.3-2.7.4-6.1 1.1-7.3 1.5-1.3.5-8.1 2.1-15 3.5-7 1.4-14 2.9-15.7 3.4-1.6.5-5.5 1.4-8.5 2-3 .7-9.1 2.1-13.5 3.1-13.3 3.3-20.3 4.8-35 7.9-7.7 1.5-15.3 3.4-17 4-1.6.7-8.1 2.2-14.4 3.4-7.5 1.5-11.7 2.8-12 3.7-.3 1.1-.1 1.1 1 .2.8-.6 3.7-1.4 6.4-1.8 5-.7 19.2-4.2 20.6-5.1.4-.2 7.2-1.8 15.1-3.4 18.5-3.8 24.5-5.1 40.3-8.9 20.3-4.9 21.3-5.1 33.7-7.7 6.4-1.3 12.7-2.8 14-3.3 1.3-.4 4.6-1.1 7.3-1.5 2.8-.4 13.8-3 24.5-5.7 17.6-4.5 20.5-5.5 30.5-11.1 15.3-8.6 15.8-8.9 19.3-16 2.4-4.9 3.3-8 3.7-14 .8-12.9 1.5-15.7 3.9-16 1.3-.2 2.2-1.1 2.4-2.4.2-1.2 1.3-2.4 2.5-2.8 1.1-.3 1.9-.7 1.6-1-1.2-1.2-4.8.8-5.1 2.8-.4 2.9-2.3 1.7-2.1-1.4.1-1.4.3-4.7.3-7.3.1-4.3.5-5 3.3-6.7 3.3-2.1 3-2.8-.4-1-1.5.9-1.9.7-1.9-.5 0-.9.4-2.4.9-3.4.6-1.1.6-3.2 0-5.7-1.2-5-1.2-33 .1-45.4.5-5.2 1.2-37.9 1.5-72.5.8-93.7 1-98.5 4.3-107 2.3-6 4.2-8.5 14.2-19l11.6-12 4.6-14c4-12.1 4.8-16 5.9-28.5 2-22 1.7-28.2-1.5-37.5-4.5-13.1-11.2-25.4-17.5-31.8-6.5-6.8-9.8-8.8-12.6-7.6-1.1.4-4.5.8-7.6.8-6.3.1-21.6 3.2-27.1 5.5-2 .9-5.7 2-8.3 2.6-2.9.6-6.5 2.5-9.2 4.8-8.9 7.4-13.3 11.5-13.3 12.4 0 .6-2 4-4.4 7.7-2.4 3.6-4.7 7.7-5.1 9.1s-2 4.3-3.4 6.5c-3 4.5-8.1 15.5-8.1 17.6 0 .8-.7 3.4-1.6 5.9-2.2 6.1-5.2 18.5-5.9 24-1.2 9.4-2.9 16.2-4.2 16.7-1.7.7-1.7 3.3.1 4.7 2 1.6 2.9 46.9.9 46.2-.7-.3-1.3-.1-1.3.4 0 .6.5 1 1 1 .6 0 1 .7 1 1.5s-.4 1.5-1 1.5c-.5 0-1 .9-1 2s.5 2 1 2c.6 0 1 3.3 1 8 0 6.2-.3 8.2-1.5 8.6-1.7.7-2 4.9-.5 5.9 1.1.7 1.3 5.2.4 10.6-.5 2.8-1 3.6-2.3 3.2-1-.2-3.3 0-5.2.5-4 1-5.7 0-14.1-8.6-2.8-2.8-5.7-5.2-6.3-5.2s-2.4-1.4-4-3c-1.6-1.7-3.5-2.8-4.2-2.6-.8.3-1.3-.2-1.3-1.2 0-2.3-5.2-7.3-11-10.4-5.3-2.9-11.4-6.9-15.2-9.7-1.4-1.2-3.1-2.1-3.7-2.1-1.6 0-11.1-5-14.2-7.4-1.5-1.2-3.4-2.6-4.4-3.1-1.6-1-1.6-1.4.8-6 6.8-13.1 10.5-39.2 9.5-66.8-.3-7.5-.4-13.7-.2-13.7.3 0 1.3.6 2.4 1.2 1.5 1 2.2 1 3.2 0 .9-.9.7-1.8-1-4.2-1.2-1.6-2.2-3.6-2.2-4.4s-1-2.3-2.2-3.3c-1.3-1-2.9-2.5-3.5-3.4-1.5-1.8-4-14.5-3.5-17.1 1-4.9 10.5-2.2 21.1 6 5.7 4.4 6.5 4.4 7.6.2.9-3.9-2.3-7.2-12-12.1-4.7-2.3-9-4.8-9.6-5.5-.7-.8-.3-3.1 1.2-7.6 2.7-7.8 3.9-13.9 4.6-24.8.6-9.8-1.4-33.8-3.3-39.1-.9-2.8-1-4.8-.2-8 .6-2.4 1.2-4.5 1.3-4.7.2-.2 2.1.7 4.3 1.8 3.2 1.7 6.4 2.2 14.9 2.6 11.5.4 21.1 1.1 28.1 2.1l4.3.5-.3-21.5c-.2-16.6 0-21.9 1-22.9.7-.7 4.1-1.5 7.5-1.8 4.5-.4 6.1-.9 5.9-1.9-.1-.7.2-1.9.8-2.6s.8-2.5.4-3.9c-.5-2.1-.2-2.8 1.7-3.6 1.3-.5 3.1-1.4 3.9-1.9s2.2-1.2 3.2-1.5 1.9-2 2.3-4.5c.9-5.4 2.1-5.9 5.6-2.5 1.6 1.5 2.9 2.3 2.9 1.8 0-1.8-4.8-5.6-6.6-5.2-1.1.2-2.1 1.9-2.8 4.8-.8 3.2-1.7 4.6-3.1 4.8-1.1.2-2.7 1-3.5 1.7-.8.6-2.3 1.5-3.4 1.9-1.3.4-1.7 1.3-1.3 3.2.2 1.4 0 3.9-.6 5.5-1 2.5-1.6 2.9-5.2 2.9-5.8 0-8.3.9-9.2 3.4-.4 1.1-.6 11.3-.5 22.5l.3 20.3-3.3-.5c-4.5-.8-16.2-1.7-28.5-2.2-8.8-.3-10.8-.7-14.7-3-3.7-2.2-4.5-3.1-4.1-4.8.3-1.2 1.6-6.7 3-12.2 7.9-32.5 9.5-58.5 4.3-69.2-1.2-2.5-1.8-2.8-5.8-2.5-5.5.3-14.8 4.6-25.8 11.9-6.3 4.2-10.4 8-17 15.8-4.8 5.7-9.6 11.6-10.6 13.1l-1.9 2.7-2.1-2.5c-1.4-1.7-3.6-2.8-6.4-3.2-2.4-.3-5.1-1-6-1.5-2.5-1.3-10.2-2.9-22.2-4.7-5.8-.8-13.4-2.2-17-3s-9.4-1.4-12.9-1.3c-6.4.2-6.5.2-7.4-2.7-.6-1.6-1.8-4-2.7-5.4q-1.8-2.55-.9-4.5c1.1-3 4.9-19.7 4.9-22 0-1.1.6-3.1 1.3-4.4 1.2-2.3 1.4-2.4 15.2-2.3 19.9 0 55.7 1.1 71 2.2 7.2.5 21.6 1.2 32 1.4 58.3 1.7 63.6 1.9 63.2 2.9-.2.6-4.6 2-9.8 3.2-11.5 2.7-15.9 4.8-15.9 7.7 0 1.1.8 2.6 1.7 3.3 1.6 1.2 1.7 1.5.1 4.7-1.1 2.3-1.5 5.2-1.2 9 .2 3.4 0 5.9-.7 6.3-.7.5-.8 3.4-.4 8.9.5 6.3.3 9-.8 11.8-1.3 3-1.3 4.2-.3 7.2.7 2 1.5 3.9 1.9 4.2 1.4 1.4.6 4.1-1.8 6.4-1.4 1.3-2.5 3.2-2.5 4.2 0 2.8 1.8 5.8 3.5 5.8 2 0 2.7 3.3 2 9.4-.4 2.9-.3 5.6.1 5.9 1 .6 1.6-8.3.8-13.1-.3-1.9-1.1-3.2-2-3.2-.8 0-2-1.1-2.6-2.5-1-2.2-.8-2.9 1.5-5.3 2.7-2.8 3.5-6.6 1.7-7.7-.5-.3-1-1.6-1-2.9 0-1.2-.5-2.7-1.1-3.3-.8-.8-.6-2 .6-4.4 1.4-2.7 1.6-4.8 1.1-11.5-.5-5.5-.3-8.4.4-8.9.7-.4.9-3.1.6-7-.3-4.3 0-6.9.9-8.2.8-1.1 1.3-4 1.3-6.4-.1-2.4-.3-3.6-.6-2.7-.4 2.2-2.2 2.4-2.2.3 0-.8 1.5-2.2 3.3-3.2 3.4-1.9 15.7-5.2 19.4-5.3 1.2 0 2.7-.8 3.2-1.8.9-1.6 2.2-1.8 12.3-1.6 27.9.7 37.3 1.3 37.6 2.3.9 2.7 4.1 3.2 7.9 1.1 5-2.6 11.3-2.6 14.7.1 1.4 1.1 2.6 1.6 2.6 1 0-2.4-6.3-4.4-12.1-3.8-3.1.4-6 .3-6.3-.1-.4-.4-6.7-.7-13.9-.8-12.3-.1-26.6-.5-67.2-1.9-8.8-.2-25.7-.7-37.5-1s-27.6-1-35-1.5c-14.5-1-47.6-2.1-70.8-2.4-10-.1-14.7.3-15.4 1.1m239.8 7.4c.2.4-.3 1.2-1.2 2-1.3 1-1.9.9-3.7-1l-2.2-2.2 3.3.3c1.9.1 3.5.5 3.8.9M809 640c0 .5-.4 1-1 1-.5 0-1-.5-1-1 0-.6.5-1 1-1 .6 0 1 .4 1 1m1 55c0 .5-.4 1-1 1-.5 0-1-.5-1-1 0-.6.5-1 1-1 .6 0 1 .4 1 1m-.7 249.8c2.3 2 2.2 2.8-.4 3.5-1.4.4-2 1.1-1.6 2.1.3.8.2 2.9-.3 4.7-1 3.3.2 6.9 2.2 6.9.6 0 .4-.8-.5-1.8-1-1-1.5-2.1-1.3-2.3.3-.3.7-2.2.9-4.4.2-2.1.9-4.1 1.6-4.3.9-.3 1.2 1.4 1 5.9 0 3.5.2 9.9.6 14.1.8 8.5-.7 12.8-4.4 12.8-3.9 0-5.1-3.1-5-13 0-5.1.5-12 1.1-15.4 1.2-7.7 1.2-7.8.3-9.8-.5-1.3-.2-1.5 1.7-1.1 1.3.3 3.1 1.3 4.1 2.1"/><path d="M566.2 369.2c-4.1 6.8-9.7 32.2-10.7 49.3-1.1 16.6-4.1 24.3-18.6 47-5.3 8.4-10.2 25.8-8.1 29.2.4.6 3.2 2.2 6.3 3.6 5.5 2.4 9.4 6.1 8.2 8-.6 1.1-3.5.5-8.6-1.7-3.3-1.5-3.8-1.5-4.3-.1-1 2.4.5 8.4 2.6 10.5 1 1 4.3 2.3 7.3 3 6.5 1.3 10.7 4.9 8.2 7-1 .9-1.9.9-2.7.2-.7-.6-3-1.3-5-1.7-3.6-.7-3.8-.6-3.8 1.7 0 3 4.6 9.7 8.3 12.1 1.5 1 3.3 3.3 4.1 5.2 1.1 2.6 2.1 3.5 3.9 3.5 1.3 0 4.4 1.4 6.8 3.2s9.1 5.6 14.8 8.5c5.8 2.9 11.3 6.1 12.3 7 2.5 2.3 2.3 6.8-.4 8.7-5 3.5-14.4.7-30.4-9-4-2.4-7.5-4.4-7.9-4.4-1.9 0-11.9-8.2-18.3-15-5-5.3-8.3-8-9.6-7.9q-2.1 0-.6.6c.8.3 4.9 4 9.1 8.4 6.6 6.8 16.6 14.9 18.4 14.9.4 0 3.9 2 7.9 4.4 21.2 12.9 34.6 14.3 34.6 3.6 0-3.2-.6-4.3-3.3-6.4-1.9-1.5-4-2.6-4.6-2.6-.7 0-2.5-.8-3.9-1.9-1.5-1-4.7-2.7-7.3-3.8-2.5-1.1-6.7-3.7-9.3-5.7s-5.8-3.6-7-3.6c-2.6 0-4.6-1.8-4.6-4.1 0-1-1.8-3.1-3.9-4.9-3.9-3-8.1-8.7-8.1-10.9 0-1.5 1.6-1.4 5.7.6 2.5 1.1 4 1.3 5.1.6 2.4-1.5 2.4-2.7.3-5.5-1.5-1.8-3.7-2.9-8.1-3.7-5.2-1-6.4-1.7-8-4.4-1.1-1.8-2-4.4-2-5.9v-2.7l4.3 1.9c2.3 1.1 5.2 2 6.5 2 6.1 0 2-7.7-5.5-10.5-2.6-1-5.3-2.2-6-2.7-2.8-2.2 1.5-19.1 7-27.3 12.9-19.3 18-32.3 19-48 .7-10.5 3.8-29.2 6.4-38.5 1.7-6 5.9-14 7.3-14 .9 0 1.9 1.2 12.6 15.4 4.1 5.5 7.4 10.4 7.4 11.1 0 1.8 10.8 13.9 13.4 15 1.4.6 3.3 1.8 4.3 2.7 1.8 1.7 4.5 2.5 17.3 5.3 3.6.8 7.1 1.7 7.8 2 1.6.6 29.9 5.2 37.5 6.1 5.8.6 8.7 2.3 8.7 5 0 .8.5 1.4 1 1.4.7 0 .7-.7-.1-2.1-.9-1.7-.8-2.3.2-3 .8-.5 1.1-.9.8-.9-1.7 0-29.7-4.1-36.9-5.4-15.1-2.6-32.8-7.4-35.9-9.5-1.6-1.2-3.3-2.1-3.8-2.1-1.3 0-11.4-11.8-13.3-15.4-3.3-6.6-19.2-26.6-21-26.6-1 0-2.7 1.5-3.8 3.2m408.9 6.6c-.1 1.2.6 2.5 1.4 2.9 1.3.4 1.4 1.6.9 6.3-.6 5.2-.4 6.2 2 9.6 1.4 2.1 2.6 4.2 2.6 4.6s-1.3 2.7-3 5.1c-3.5 5.3-3.7 7.8-1 11.5 2.6 3.5 1.8 5.7-2.7 7.8-2.9 1.4-6 1.6-20.1 1.2-19.4-.6-17.2-.1 3.8 1l14.5.7.3 9c1 33.7.2 77.8-1.8 103.4-1 12.6-1 15.8.1 17.8 2.2 4.2 1.8 13.7-.9 17.2-1.2 1.7-2.2 3.5-2.2 4s-.8 2.3-1.7 4c-1.7 3-2.1 3.1-8.5 3.1s-6.8.1-6.7 2.2c.1 1.7.2 1.9.6.5s1.7-1.7 7.1-1.8c16.4-.2 19.2.4 19.2 4.2 0 1.6 4.1 10.4 5.6 11.8.7.8-1.2-4.3-3.1-7.9-.8-1.6-1.5-3.8-1.5-4.9 0-2.6-2.9-4.1-7.9-4.1-4.4 0-5.8-1.1-3.6-3 .8-.7 1.5-2 1.5-3s.6-2.3 1.4-2.9c3.4-2.8 4.2-15 1.5-20.7-.8-1.5-.7-6.7.1-17 2-24.9 2.8-70.8 1.8-104.1l-.3-9.3 2.7-.9c3.8-1.4 4.7-5.4 1.9-9.1-2.7-3.8-2.7-4.4 1-9.8 3.4-5 3.3-7.4-.3-12.4-1.7-2.4-1.9-3.8-1.3-8.3.4-3.5.2-5.5-.5-6-.6-.4-1.5-1.7-2-2.9-.9-2.1-.9-2.1-.9.2"/><path d="M860.1 391.2c.1 1.7.2 1.9.6.5.8-3.2 33-2 34.1 1.2.2.6 1.2 1.1 2.2 1.1 3.2 0 4.4 3 5 11.9l.5 8.6 8.8.1c13.7.3 25.5 1.5 26.6 2.7.5.7 1.1 2.3 1.4 3.7.4 2.2.4 2.1.6-.6 0-1.7-.5-3.6-1.1-4.2-.7-.5-5.2-1.3-10-1.7-6-.5-8.8-1.2-9.2-2.1-.3-.8-1.9-1.4-3.5-1.4s-3.2-.4-3.5-.9-2.2-.9-4.1-.9c-2.9 0-3.5.3-3.4 2.1 0 1.6.2 1.8.7.7.7-1.6 4.5-2.1 5.8-.8.4.5 2 .8 3.5.8s3.1.5 3.4 1c.5.7-1.9 1-7.2.8l-7.8-.3-.6-8.7c-.6-9-1.8-11.8-5-11.8-1.1 0-1.9-.4-1.9-.9 0-1.7-10.1-3.1-23-3.1-12.8 0-13 0-12.9 2.2m-134.5 2.4c-7.6 4.5-11.1 7.2-22.3 16.6-6.7 5.6-9.3 7.3-9.7 6.3-.3-.8-1.3-1.4-2.3-1.4-1.6.1-1.6.2-.1.6.9.2 2 1.3 2.3 2.3.5 1.7 1.7 1 8.8-5.2 13-11.2 28.2-21.8 31.5-21.8 1.5 0 1.7 20.3.2 28.2-1.6 8.4-3.7 18.2-7.2 33.3-3.5 15.2-3.6 17.8-1.1 30.5 1.2 5.8 1.7 13.2 1.6 23.5-.1 17.4-2 26.2-7.3 34.5-3.7 5.7-3.8 5.7-15 2-11.5-3.8-37.5-8.5-42-7.5-3.5.8-5.2 3.3-3.9 5.7.6 1.1 3 1.8 7.6 2.2 12 1.2 44.2 9.5 47.1 12.1 1.1 1 1.1 2.1.3 5.1-.6 2.2-1.1 5.1-1.1 6.6 0 1.6-.2 2.8-.5 2.8s-8.5-4-18.3-9c-23-11.6-37.7-17.2-41.6-15.7-.9.4-1.6 1.7-1.6 3.1 0 2.1.9 2.8 5.5 4.5 3.1 1.2 6.1 2.1 6.7 2.1s4.3 1.8 8.3 4 7.9 4 8.8 4c.8 0 4.1 1.7 7.3 3.8 7.2 4.7 16.8 10.4 21.1 12.6 2.3 1.1 3 2.1 2.6 3.5-.5 1.9 1.4 6.7 2.4 5.8.2-.3-.1-1.5-.7-2.7-1.8-3.3-.7-4.3 2.2-2.1 2.8 2.2 3.2 3.9 4.3 18.7.2 3.3.7 6.8 1.1 7.7.7 1.8-1.1 22.4-3.1 36.4-1.1 7.4-2.4 11.1-6.4 19.4-5.2 10.4-6.3 15.8-4 20 2 3.9 13 10.8 23.7 14.9 10.8 4.2 24.3 11.6 31.7 17.4 5.2 4.1 10.4 9.8 10.5 11.4 0 .7.8 2.9 1.9 5 3.7 7.3 6.7 26.2 4.1 26.2-.5 0-1-1.7-1-3.8 0-4.9-2.4-12.8-4.5-15.2-1.4-1.6-2.1-1.7-4.2-.7-2.5 1.1-2.5 1.3-1.8 8.2 1.4 13.3 1.4 13.6-2.4 16.2-4.6 3.1-6.5 2.7-6.9-1.7-.3-3.9-2.9-17-3.4-17.5-.2-.1-1.7-.6-3.5-1-2.9-.6-3.3-.4-3.9 1.9-.3 1.5-.1 4.6.5 7.1.6 2.4 1.1 6.4 1.1 8.9 0 5.7-1.8 6.4-9.2 3.6-5.7-2.1-7-3.2-20.7-17.3-4.6-4.8-10.6-10.1-13.1-11.7-5.3-3.4-21.1-8.8-34.6-12-4.9-1.1-13.2-3.1-18.4-4.5s-10.6-2.5-12-2.5c-5.3-.1-5.5-1.6-.4-4.6 13.8-8 24.4-17.1 24.4-21 0-2.1-.5-2.4-3.4-2.4-3.5 0-9.6 3.1-21.3 10.7-9.2 6-23.8 12.1-30.8 12.8-5.4.6-6.7.3-13.5-2.8-7.8-3.6-17.3-6.9-30-10.6-4.1-1.2-9.7-3.1-12.4-4.2-2.7-1-6.1-1.9-7.7-1.9-1.8 0-3.2-.7-3.9-1.9-.5-1.1-2.5-2.4-4.4-3.1-1.9-.6-3.7-1.7-4-2.5s-1.7-1.5-3-1.5c-1.4 0-3-.8-3.5-1.8-1.5-2.6-1.3-.6.4 3.5.8 2 1.8 3.3 2.2 3 .3-.4 0-1.3-.7-2.2-1-1.3-.9-1.5.8-1.5 2.6 0 3.8 1.8 2.3 3.3-1.8 1.8-1.2 6.2 1.2 8.4 3.6 3.4 15.6 8.6 35.2 15.3 27.2 9.3 42.8 18.1 56.1 31.4 10.3 10.4 15.9 19.5 17.6 28.4.9 4.7.8 6.7-.2 9.1-1.7 4.2-3 3-3-2.8 0-3.1-.5-5.3-1.5-6.1-.8-.7-1.3-1.6-1-2s-.7-2.9-2.1-5.5c-2.4-4.1-2.9-4.6-5.3-4-1.4.4-2.8.8-3 1.1-.2.2.6 3.4 1.8 7.2 2.5 8 2.7 14.4.5 16.6-3 3.1-5.5 1.6-6.8-3.9-2.3-9.6-5.4-13.4-10.8-13.5-2.6 0-2.4 6.8.4 12.5 2 4.1 2.1 4.7.6 6.1-1.3 1.3-2.2 1.4-5.9.4-7.5-2.1-11.6-4.7-16.4-11-4.3-5.4-10.8-11.1-17.5-15.3-3.2-2-21.7-8-29.5-9.6-3.3-.7-13.9-2.3-23.5-3.6-29.3-3.9-40.1-6.9-56.3-15.4-10.8-5.7-15-6.3-15.5-2.3-.5 3.3 3.3 8.7 7.4 10.7 2 .9 3.8 1.4 4.1 1.2.2-.3-1.1-1.3-3.1-2.2-3.9-1.9-8.1-7.7-7.2-10 .6-1.7 4.7-2 6.2-.6 1.9 1.9 15.2 8.4 21.9 10.7 10.6 3.7 26.4 7 42 8.9 17.2 1.9 26.2 3.8 38.5 7.7 14.5 4.6 22.7 10 31.6 21 5.5 6.9 10.2 9.5 19.7 11.3 3.2.6 3.8.4 4.8-1.8.9-2 .7-3.3-1-7.2-2.7-6.2-2.8-10.5-.2-10.5 2.8 0 4.5 2.1 7 8.7 1.3 3.2 2.7 6.8 3.2 8.1.9 2.4 2.4 2.7 6.2 1.3 2-.8 2.4-1.6 2.5-6.3.1-3-.6-8.1-1.8-11.8-1.5-4.9-1.7-6.6-.7-7.2 1.5-1 2.9-.6 3.8 1.3 3.2 5.8 5.8 13.1 6.1 16.9.4 6.2 3.2 6.8 4.9 1.1 1.6-5.3 0-13.4-4.3-22.1-4.9-9.7-19.6-24.1-31.8-31.2-9.1-5.3-20.1-10.8-21.5-10.8-.4 0-2.1-.6-3.8-1.4-1.8-.7-7.2-2.7-12.2-4.4-20-6.6-30.9-11.4-35.2-15.5-2.3-2.1-3.1-6.1-1.4-7.1 1.3-.9 6.3 1.2 8.4 3.5 1 1 2.8 1.9 4.1 1.9 1.4 0 4.8.9 7.8 1.9 2.9 1.1 11.4 3.9 18.8 6.2s17.6 6 22.5 8.2l9 4 7.8-1.1c4.3-.6 9-1.8 10.5-2.5 1.5-.8 5.2-2.5 8.2-3.8s8.8-4.6 13-7.3c4.1-2.7 9.4-6 11.7-7.3 4.9-2.7 9.3-3.1 9.3-.7 0 2.7-12.5 12.9-24.2 19.7-5.8 3.4-6.2 5.4-1 6.2 9.7 1.6 45.1 10.5 53.7 13.5 11.2 4 19.4 10.1 31.2 23.3 3 3.3 6.8 7.1 8.5 8.4 3.9 2.8 12.6 5.4 15.6 4.6 1.9-.5 2.2-1.2 2.2-5.7 0-2.8-.5-6.8-1.1-9-.6-2.1-.8-4.9-.4-6.3.4-1.9 1-2.3 2.8-1.7 1.2.3 2.3.8 2.5.9.8.7 3.1 12.3 3.2 15.5.1 5.6 1.1 6.6 5.8 5.2 2.1-.7 4.7-2.1 5.7-3.2 1.7-1.9 1.8-2.7.7-9.1-1.6-9.4-1.5-12.8.3-13.6 3.7-1.4 7.5 6.6 7.5 15.6 0 3.4.3 4.1 2 4.1s2-.7 2-4.8c0-6.1-3.2-19.2-6.3-26.2-1.4-3-4.4-7.4-6.6-9.6-3.3-3.2-3.8-4.3-2.6-4.7 2.5-1 1.7-3.4-1.7-5.1-3.6-1.9-5.8-2-5.8-.5 0 .5.4.8.9.5s2.3.2 4.1 1c2.8 1.5 3 1.8 1.7 3.2-1.4 1.3-2.2 1-7.5-2.6-7.6-5.2-13.5-8.2-24.7-12.7-10.5-4.2-15.4-7-21.2-12-6-5.1-5.9-8.4.7-21.4 4.2-8.4 5.2-11.5 6.4-20.3 2.2-15.3 3.9-34.6 3.2-36.5-.4-.9-.9-4.4-1.1-7.7-1.2-15.8-1.5-16.8-5.3-20.3-2-1.8-3.9-3.3-4.4-3.3-.9 0-14.4-8-20.5-12.2-2.3-1.6-5.9-3.5-8.1-4.2-2.1-.8-6.4-2.8-9.6-4.5s-8.3-3.8-11.4-4.6c-3.2-.9-6.5-2.3-7.6-3-2.2-1.7-1.5-4.5 1.2-4.5 4.1 0 21.4 7.2 38.4 15.9 9.7 5 18.3 9.1 19.1 9.1 1 0 1.6-1.8 2.2-5.8 1.4-11.4 2-10.3-7.5-13.5-11.2-3.7-27.6-7.6-37.5-8.8-9.7-1.3-12-2.9-8-5.5 2.4-1.6 3.4-1.6 10.8-.5 12.8 2 26.7 5.1 32.2 7 2.8 1 6.8 2.2 9.1 2.5 4.1.7 4.1.7 7.2-4.1 5.2-8.1 7.4-18.5 7.5-35.8.1-10.3-.4-17.7-1.6-23.5-2.5-12.7-2.4-15.3 1.1-30.5 3.5-15.1 5.6-24.9 7.2-33.3.5-2.9 1-10.7 1-17.2 0-11.8 0-12-2.2-12-1.3 0-4.9 1.6-8.2 3.6"/><path d="M857.4 398.2c.8 3.7.8 88.6.1 89.8-.6 1 1.1 1.7 13 5 5.5 1.5 12.8 4.1 16.2 5.9 3.4 1.7 6.9 3.1 7.6 3.1 1.1 0 1.6-2.4 2-10.3.8-14 .2-93.6-.7-94.5s-15.9-2-29-2.1l-9.8-.1zm37-.2c1.1 1.1 1.5 101.4.5 102.5-.4.3-3.3-.7-6.5-2.3-3.3-1.6-10.6-4.2-16.4-5.7-5.8-1.6-11.1-3.3-11.8-3.8-1-.8-1.2-10.4-1.2-44.2.1-23.7-.2-44.4-.6-46l-.7-2.8 17.9.7c9.8.4 18.3 1.1 18.8 1.6m-312.7-1.3c-1.4 1.3-.6 6.9 1.3 10.1 1.1 1.8 2 4.3 2 5.6 0 2.3 5 7.6 7.1 7.6 1.6 0 2.2-3 1.1-5.3-.6-1.2-1.8-4.5-2.6-7.3-2-7.3-4.4-11.4-6.5-11.4-1 0-2.1.3-2.4.7m5 3.5c1 1.8 2.6 5.8 3.5 8.8s1.9 6.3 2.3 7.2c1 2.5-1.3 2.3-4.2-.4-1.3-1.2-2.3-3-2.3-4s-.9-3.6-2-5.8c-2-4-2.5-7.1-1.3-8.3 1.2-1.3 2.1-.7 4 2.5m266.1-1c-.6 3.5.3 43.8 1.1 43.8.3 0 .3-9.3 0-20.7-.3-11.5-.2-21.8.2-23.1.5-1.2.5-2.2 0-2.2s-1.1 1-1.3 2.2m-22.7 6.8c-2.5.5-4.8 1.3-5.3 1.8-1 1-1.8 17.2-.9 17.2.3 0 .7-3.4.7-7.6.1-4.2.6-8 1.2-8.6 1.4-1.4 8.5-2.7 14.7-2.8 5.5 0 9.5 2 9.5 4.8 0 1.5.2 1.5 1 .2.7-1.1.4-2.1-1-3.5-2.3-2.2-12.5-3-19.9-1.5"/><path d="M846.3 410.1c-.5.5-4.5 1-8.7 1-6.6 0-7.8.3-8.4 1.9-.4 1-.5 14.4-.2 29.7.5 27.4.1 32.1-2.7 33.1-1 .3-1.3-4.6-1.3-22.3v-22.7l-13.2.7c-15.2.9-19.4 2.2-20.1 6.2-.3 1.6-.5 9.3-.6 17.2 0 10.8-.3 14.6-1.3 15.2-1 .7-.9.9.5.9 1.1 0 1.7-.8 1.8-2.3 0-1.2 0-8.5.1-16.2 0-7.7.4-14.8.9-15.7 1.3-2.5 6.2-3.6 19.2-4.3l11.7-.7v21.5c0 11.9-.3 22.2-.6 23.1-.9 2.2-7.6 2.1-15.5-.3-3.5-1.1-9.5-2.2-13.4-2.5l-7-.5 8 1.3c4.4.7 10.4 2 13.4 2.9 3 1 7.4 1.7 9.8 1.7 2.3 0 5.9.9 8 1.9 2.1 1.1 7 2.4 10.9 2.9 4 .6 8.8 1.8 10.7 2.7 2.8 1.3 4 1.4 5.4.6 1.7-1.1 1.7-1.1-.2-1-1.1.1-2.7-.1-3.5-.4-3.6-1.4-8.9-2.6-13.9-3.2-5.9-.7-9.5-2.1-8.6-3.5.3-.4-.4-.6-1.5-.3-1.4.4-2 0-2-1.1 0-1 .6-1.3 1.5-1 2 .8 4.5-1.3 4.5-3.7 0-1.2.5-1.6 1.5-1.3 1.7.7 3.1-1.9 2-3.6-.5-.8-1.1-.8-2.1 0-1.1 1-1.4-3-1.6-26-.2-14.9 0-27.8.5-28.5.5-.9 3-1.4 8.4-1.4 5.5 0 8.1-.5 9.2-1.6.8-.8 1.1-1.5.5-1.5-.5 0-1.5.5-2.1 1.1m-13.7 60.6c-1 1-1.9-.5-1-1.8.6-1.1.8-1.1 1.2 0 .2.7.1 1.5-.2 1.8m136.9-52.5c.3 1.3.7 2.9.7 3.6.2 1.6 1.8 1.1 3.1-1 1.4-2.2.1-4.8-2.4-4.8-1.8 0-2 .4-1.4 2.2m3-.2c.3.5.3 1.5-.1 2.1-.6 1.1-2.3-.6-2.4-2.4 0-1 1.8-.9 2.5.3m-264.8-.2c-1 .2-4.7 4.2-8.2 8.9-8 10.6-8.5 14-3 19.3 1.9 1.9 3.5 3.9 3.5 4.5s1.3 2.3 2.8 3.8c2.8 2.7 2.9 2.7 4.6.8 2.4-2.6 1.5-6.1-3-12.4l-3.4-4.8 6-7c6.2-7.2 7.5-11.1 4.3-12.7-1-.5-2.6-.7-3.6-.4m4.3 3.8c0 .7-2.7 4.5-6 8.3-3.3 3.9-6 7.5-6 8 0 .6 1.5 3.2 3.4 5.8 4 5.7 4.9 8.3 3.6 10.3-1.1 1.6-.8 1.8-10-9.1-4.4-5.3-4-7.6 3.5-17.3 3.6-4.6 7.1-8.6 7.8-8.9 1.5-.5 3.7 1.1 3.7 2.9m197.5-1.6c.3.5-1 .6-2.8.3-3-.4-3.5-.2-4 1.8-.4 1.3-.7 4.1-.7 6.1s-.5 6-1.1 8.9c-.9 4.3-.9 5.4.4 6.6 2.5 2.6 4.7.9 4.7-3.7 0-2.2-.4-4-.9-4-.4 0-.6 1.1-.3 2.5.2 1.3.1 3.2-.2 4.2-.6 1.5-.8 1.5-2.2.2-1.2-1.2-1.3-2.2-.4-4.3.5-1.5 1-5.4 1-8.6 0-9.3-.8-8.9 15.1-8.3 10.3.4 14.3.2 15.4-.7 1.3-1.1 1.5-.8 1.5 1.8 0 3.6-1.9 5.4-2.1 2-.1-1.8-.2-1.9-.6-.5-.3 1 .1 2.5.9 3.4 1 1.2 1.3 7 1.5 23.7.2 24.7-.8 32.6-4 32.6-1.5 0-1.8.5-1.5 2.4.3 1.5 0 2.7-.8 3-2.3.9-1.6 3.6.9 3.6 4.3 0 5 3.3 4.4 20.5-.3 8.7-.4 15.5-.1 15.2s.8-7.4 1.1-15.9c.3-8.4.6-15.4.8-15.6.1-.1.9 0 1.8.4 1.4.5 1.6 2.4 1.4 13.4-.1 7 .1 12.6.5 12.4 1-.7.7-24.8-.4-26.2-.6-.6-1.9-1.2-3-1.2s-2.2-.9-2.5-2c-.4-1.3-1.4-2-3.1-2-2.4 0-2.4-.1-.8-1.9.9-1 1.4-2.5 1.1-3.3-.4-1 .1-1.7 1.4-2.1 1.7-.4 2.1 0 2.1 1.8 0 1.3.5 2.7 1 3 .6.3 1 1.4 1 2.3 0 1 .9 2.3 2 3 1.9 1.2 2 .8 2.2-30.6l.3-31.7h15.7c8.6 0 15.4-.3 14.9-.8-.4-.4-7.7-.6-16.2-.5l-15.4.3-.5 31.5c-.3 18.4-.8 30.7-1.3 29.5-.5-1.1-1.4-3-2-4.3-.9-1.8-.8-2.5.3-3.2 1.3-.8 1.3-1-.1-1-1.2 0-1.5-.7-1.2-2.8.3-1.5.7-16.1.9-32.5.2-24.8.1-29.7-1.1-29.7-.8 0-1.7.4-2 1-.8 1.3-15.9 1.3-20.3.1-1.8-.6-3-.6-2.7-.1M605 422.7c-.8.3-2.5 1.4-3.6 2.5-1.9 1.7-2.7 1.8-6 .9-3.2-.9-4.2-.8-5.9.7-4.4 3.8-6.4 4.4-8.8 2.7-1.6-1.1-1.8-1.5-.5-1.5.8 0 2.2-.8 2.9-1.7.8-1-1-.3-4.3 1.6-4.4 2.5-6.6 3.1-9.5 2.8-5.1-.6-7.5-1.6-9.5-4.1l-1.7-2.1.5 2.1c1.1 4.4 11.9 6.9 17.9 4.2 1.9-.9 2.8-.9 3.7 0 1.5 1.5 4.8 1.6 4.8.2 0-.6.8-1 1.8-1 1.1 0 2.7-.8 3.6-1.9 1.4-1.6 2.3-1.7 5.6-.9 3.6.9 4.2.8 7.1-1.6 1.7-1.5 3.7-2.5 4.3-2.3 1.8.6 1.8 4.4 0 7.2-.9 1.4-1.4 2.8-1.2 3.1 1.2 1.1 3.9-4.9 3.6-7.9-.3-3.2-1.8-4.1-4.8-3"/><path d="M899.4 449.1c.2 2.4.9 8.4 1.4 13.4.5 4.9.8 9.3.6 9.7-.5.8-.7 32.9-.2 33.2.2.1 3.4 2.2 7.2 4.6 3.8 2.5 10.8 8.2 15.5 12.7 4.7 4.6 9.2 8.3 10.1 8.2 1.3 0 1.3-.1 0-.6-2.5-1-4-3.6-2.7-4.6.8-.6.7-.7-.4-.4-1 .3-3.9-1.6-7.9-5.4-6-5.8-15.7-12.9-19.2-14.2-1.4-.5-1.7-2.4-2-12.9-.2-6.8 0-14.6.3-17.3.3-2.8.1-8.8-.4-13.5s-1-10.2-1.2-12.4c-.2-2.1-.6-4.1-.9-4.4s-.4 1.5-.2 3.9M565.9 471c-2.2 1.3-3.5 12.7-2 17.3 3.1 9.4 14.5 11.8 20.3 4.4 1.8-2.2 1.8-2.2 1.8 1.4 0 4.9 3.1 8.9 5.7 7.3 1.4-.9 1.8-2.4 1.8-7.5.1-3.6.5-7 .9-7.7s.2-1.9-.4-2.7c-.7-.8-.9-1.5-.5-1.5s-.7-1.6-2.4-3.5c-1.7-2-3.1-3.9-3.1-4.4 0-1.2-12.1-4.1-16.7-4.1-2.1 0-4.5.5-5.4 1m17.1 2c2.5.7 4.6 2.6 7.2 6.4 3.3 4.8 3.6 5.7 2.8 8.7-.5 1.8-.7 5-.3 7.2.4 2.8.2 4.1-.8 4.8-2.3 1.4-4.9-1.9-4.9-6.3 0-4.5-1.2-4.8-5-.9-1.6 1.5-3.8 3.1-4.9 3.4-2.9.7-8.2-2.3-10.9-6.3-2.1-3.1-2.3-4.2-1.7-10 .8-8.7 1.5-9.4 9-8.7 3.3.3 7.6 1.1 9.5 1.7m166.1 3.2c0 1.5.4 3 .9 3.3 2.3 1.4 19.1 4.3 29 4.9 5.8.4 14.3 1.6 19 2.6s11.7 2.5 15.5 3.3c14 2.9 58.1 14.6 62 16.4 2.2 1.1 7 3.3 10.7 4.9s6.8 3.1 6.8 3.4-3 .6-6.7.8c-7.5.2-26.4 4.5-33.3 7.4-4.8 2-13 9.5-21.3 19.3-2.7 3.3-5.7 6-6.6 6-1.1 0-1.6.9-1.6 3 0 1.7-2.8 8.6-6.2 15.6-3.5 7-6.3 13.2-6.3 13.8s-.9 3-1.9 5.4c-3.5 7.8-8.2 24.9-9.6 35.2-.7 5.4-1.9 29.1-1.7 33.5 1.2 22 1.3 29 .4 29-.6 0-1.3-.8-1.5-1.8-.4-1.3-.5-1.1-.6.5 0 1.3.5 2.3 1.2 2.3s1.8.9 2.4 1.9c1 1.5.9 2-.2 2.5-1.1.4-1.3 3.2-1 14 .2 7.5.6 13.9.9 14.4s-.1 1.8-.9 2.8c-1.5 2-2.1 10.4-.7 10.4.4 0 .6-1.5.4-3.4-.2-1.8.3-4.7 1.2-6.3.8-1.7 1.3-3.3 1-3.5-.2-.3-.6-6.4-.8-13.6-.4-11.5-.3-13.3 1.2-14.1 1.4-.8 1.4-1.3.5-3.3-.7-1.2-1.5-8.2-1.8-15.3-.3-7.2-.6-14.6-.7-16.5-.2-4.5 1-28.1 1.8-34 2-14.4 9.5-37.4 17.6-53.3 2.2-4.5 4.8-9.6 5.6-11.2 5.6-11 22-28.6 30.1-32.2 7.3-3.3 24-7.2 32.6-7.6 10.7-.6 9.7-2.3-4.7-8.4-11.4-4.8-44.7-14.1-68.3-19-3.8-.8-10.8-2.3-15.5-3.3s-13.2-2.2-19-2.5c-10.6-.7-26.6-3.7-28-5.2-.5-.4-1-1.7-1.3-2.8-.4-1.5-.5-1.4-.6.7m76.9 73.7c0 .6-.4 1.3-1 1.6-.5.3-1-.1-1-.9 0-.9.5-1.6 1-1.6.6 0 1 .4 1 .9m-177-63.3c-10 4.9-20 13.6-20 17.3 0 .6.8 1.5 1.8 2 2.4 1.3 6.9-1 12.6-6.3l4.4-4.1.5 4.4c.6 5 3.2 9 7.1 10.9 3.8 1.9 10.6.1 16.8-4.4 5.7-4.1 7.8-4.3 7.8-1 0 2.4 4.9 9.2 5 7 0-.6-.7-1.7-1.5-2.4-.9-.7-2-3.2-2.6-5.5-1.2-4.9-.9-4.9-10.9 1.7-6.9 4.6-11.2 5.5-14.6 3.3-3.5-2.2-6.4-7.4-6.4-11.2s-1.3-4.9-3.1-2.6c-.8.9-4 3.6-7.3 6-4.5 3.4-6.2 4.1-7.2 3.2-4.6-3.8 18.2-19.9 28.1-19.9 7.3 0 19.5 6.3 19.5 10.1 0 4.2 3.1 5.6 11.6 5.4 4.3-.1 11.1-1 14.9-2 7.6-1.9 12-2.2 17.5-1.2 2.2.5 1.6.1-1.4-.9-5.4-1.7-5.9-1.7-18.5 1.5-9.2 2.3-18.8 2.4-21.5.2-.9-.7-1.6-2.4-1.6-3.6 0-2.6-.8-3.4-7.5-7-7.6-4.1-16.3-4.4-23.5-.9m88.7 2.5c.2 5.7 1.3 6.2 1.3.6 0-2.6-.3-4.7-.7-4.7-.5 0-.7 1.8-.6 4.1m-107.5 20.1c-1.6 1.6-3.4 2-12.2 2.3-4.6.2-7.8.9-8.5 1.7-.6.8-3.4 1.3-7.5 1.4-10.6.1-15.3 3.9-13.6 10.8.6 2.3 4.6 5.8 8.1 6.9 1.6.6-2.3 5.5-5.6 7.2-3.4 1.8-4.6 1.6-13.8-2.7-7.5-3.5-9.4-2.8-6.9 2.5 1.8 3.8 7.2 6.8 15.5 8.6 4.4.9 5.8.8 8.7-.6 3.4-1.6 3.4-1.6 7.6 1.9 4.3 3.8 7.5 4.8 14.7 4.8 7.1 0 11-2.2 12.4-6.8 2.3-7.7-.7-9.3-7-3.7-3.3 3-4.3 3.4-7.2 2.9-1.9-.4-4.9-1.8-6.7-3.1-2.8-2.1-3.3-3-3-6.1.3-3.5.5-3.7 4.5-4.3 7.4-.9 10.1-4.8 7.7-10.8-1.1-2.8-2.4-4.3-4.6-5-6.1-2.2-.9-5.2 6.9-4.1 2.4.4 4.4.3 4.6-.3.1-.5 1.5-1 3-1s3.2-.6 3.8-1.3c1.5-1.8.7-2.8-.9-1.2m-18.7 8.5c2 1 4.1 3 5.1 5.1 1.6 3.3 1.5 3.4-1.1 6.2-2 2.1-3.9 3-6.9 3.2l-4.1.3-.3 4.7c-.3 4.2 0 4.8 3 7.1 1.8 1.3 5.3 2.7 7.6 3.1 4.1.6 4.7.4 8.3-2.9 5.4-4.9 7.8-3.1 4.5 3.4-1.9 3.5-5.5 5.1-11.7 5.1-5.7 0-10.5-1.9-14-5.6-2.6-2.8-5.5-3.1-8.6-.9-4.1 2.9-18.3-1.8-21.9-7.2-2.2-3.5-.8-4.7 2.9-2.5 1.8 1.1 5.5 2.7 8.4 3.7 4.4 1.6 5.5 1.6 8.2.5 3.6-1.5 7.1-5.4 7.1-8 0-1-1.3-2.3-3-3s-3.7-2.2-4.5-3.4c-6-8.4 8.8-14.7 21-8.9"/><path d="M595.7 518.8c-3.7 4.1-.4 8.2 7.1 9 8 .7 10.9-2.3 8.1-8.3-.7-1.5-.8-1.1-.4 1.7.5 3 .2 3.9-1.4 4.7-3.5 1.9-8.8 1.3-11.8-1.3-2.7-2.4-2.8-2.4-.9-4.5 1.1-1.2 1.7-2.3 1.4-2.6s-1.2.3-2.1 1.3m343.3 8.7c0 .8-.8 1.5-1.7 1.5-1.7.1-1.7.1 0 1.1 2.1 1.2 2.3 4.7.3 5.5-3.2 1.2-2.8 5.1 1.1 8.9 3.9 4 8.6 21.2 10.9 40 .3 3.3.9 5.5 1.1 4.8.6-1.6-2.5-24.1-3.8-27.8-.6-1.7-1.5-3.9-1.9-5-.5-1.1-1.5-4.1-2.3-6.7-.9-2.6-2.7-6-4.1-7.5-3.1-3.3-3.2-3.9-.6-5.3 1.6-.8 1.9-2 1.9-6-.1-2.8-.3-5-.5-5s-.4.7-.4 1.5m-418.2 5.4c-1.3 1.1-6.6 3.2-11.8 4.7l-9.5 2.8-53 .2c-70 .1-81.9.9-110 6.6-19.8 4-30 7.1-47 14.3-6 2.6-12.1 5-13.5 5.4-1.4.5-4.7 2.2-7.5 3.8-2.7 1.6-9.3 4.9-14.5 7.3-11.2 5.1-12.9 6.2-23.5 15.4-4.4 3.8-12 9.9-17 13.7-11.3 8.4-15.3 12.6-26.5 27.2-7.6 9.9-9.6 13.1-14.1 22.2-2.7 5.4-6.3 10.8-9.1 13.7-2.7 2.7-4.8 5.3-4.8 5.8s-5.3 6.5-11.8 13.2c-13.2 13.8-17.6 19.1-21.8 26.3-4.3 7.6-6.1 11.8-7.3 17.7-1.1 5.3-1.7 37-.8 41.8 4 21.5 4.6 23.1 11.7 34.5 12.6 20.2 40.7 44.8 73.6 64.3 11.7 7 12.6 7.7 22.4 19.5 9.8 11.7 15.2 20.6 18 29.2.7 2.2 1.6 4.4 2 5 .4.5 2.2 6.2 4 12.5 6.1 22.1 9.3 28.4 16 31.7 11.3 5.7 19.3 1.1 27.9-16.4 6.4-12.8 6.1-31.9-.9-50.8-7.7-21.1-16.1-33.4-34.5-50.5-17.6-16.4-25-22.4-36.2-28.9-14.2-8.4-28.1-22.1-37.1-36.5-6.7-10.8-8.2-14.3-10.6-25.1-2.2-9.7-2-15.4.9-23.1 2.2-5.9 2.4-7.3 1.6-12.4-.5-3.2-1.7-7.2-2.6-9-2.2-4.2-1.7-8.5 1-8.5 1.4 0 2.9 1.7 5 5.5 9.1 16.8 17.7 26.3 29.4 32.7 5.9 3.2 11.1 7.2 17.3 13.3l8.9 8.7-.7 7.5c-.9 10.4.4 13.6 9 22.2 8.1 8.2 18.5 15.4 30.1 21 19.9 9.6 23.1 11.4 29 16.6 3.5 3 10.7 10.3 16 16.2 5.4 5.9 10.7 11 11.9 11.3 1.1.4 3.1 1.1 4.4 1.8 4.4 2.1 8.8-3.7 6.5-8.5-.7-1.3-2-4.8-3.1-7.8-1.8-4.9-1.8-5.8-.6-8.3 1.8-3.4 2.8-3.4 5.2.1 4.6 6.6 5.6 10.4 5.5 19.5-.1 10 .2 10.3 7.7 6.4 3.4-1.7 4.6-2.8 4.8-4.9.3-2.6-3.8-12.1-5.8-13.3-2.4-1.5-.7-8.5 2.1-8.5 2.1 0 9.6 9.5 11.8 14.9 2.3 5.4 4.1 3.9 4.1-3.3 0-7.7-3.2-14.5-11.3-24.1-6.6-7.9-13.1-12.7-23.7-17.4-4.7-2.1-11.8-5.9-15.8-8.4-4-2.6-7.6-4.7-8-4.7s-1.9-1.3-3.4-3c-1.5-1.8-3.6-3-5-3-1.3 0-3.3-.7-4.4-1.5-1.9-1.5-1.8-1.6.9-4 1.5-1.4 3.8-2.5 5.1-2.5 1.5 0 6.2-3.5 13.7-10.4 17.5-15.8 22-21.7 27.7-36.2 5.6-13.9 6.9-19.4 8-31.5 1-10.3 2.3-14.9 4.2-14.9.5 0 1.8 1.3 2.9 2.9 1.8 2.4 2.1 4.4 2.1 11.8-.1 12.4-2.9 23.9-8.9 36.4-2.9 5.8-5.4 12.2-5.8 14.2l-.6 3.7h5c2.8 0 7.4-.4 10.2-1 3.5-.6 8.6-.6 15.4.1 12.4 1.3 18.3.6 19-2.1.3-1.1 1.7-2.4 3.1-3 11-4.1 44.5-10.5 50.9-9.7 2.1.3 3.5.1 3.1-.4-.3-.5-2.2-.9-4.3-.9-8.4 0-41.4 6.7-50.3 10.1-1.5.6-3 2-3.3 3-.9 2.7-5.7 3.2-18.1 2-6.8-.6-12.6-.7-15.4-.1-2.5.5-6.6.9-9.2 1-6.3 0-6.2-.8.6-14.6 6.5-13.1 9.6-26 9.6-39.1 0-9.8-2.2-15.3-6-15.3-3 0-4 3-5.1 15.2-1.2 13.1-2.6 18.7-8.2 31.8-6 14.3-10.5 20.1-27.5 35.5-8.1 7.4-12.2 10.5-14.7 10.9-3 .6-6.5 3.7-6.5 5.8 0 1.5 3.3 3.8 5.7 3.8 1.5 0 3.5 1.2 5.1 3 1.5 1.7 3 3 3.4 3s3.9 2 7.8 4.5 10.9 6.3 15.7 8.4c4.8 2.2 11 5.6 13.8 7.7 6 4.4 14.1 13.8 18.4 21.6 2.8 4.9 3.2 6.5 2.9 11.5l-.3 5.8-1.8-4c-1-2.1-3.6-6.3-5.8-9.2-3.2-4.2-4.5-5.3-6.8-5.3-4.4 0-5.7 6.5-2.3 11.1 2.8 3.7 5.5 10.6 4.9 12.3-.6 1.4-7.6 5.6-9.5 5.6-.5 0-.9-3.7-.8-8.3 0-7-.4-9.1-2.8-14.5-4.1-8.9-8.2-10.6-10.4-4.4-.8 2.3-.5 4.2 1.5 9.8 3.6 10 3.6 9.8 1.6 12.2-1.6 1.9-2.1 2-5.6.9-2.9-.9-6.3-3.9-13.9-12.2-17-18.7-20.8-21.5-42.3-31.5-12.1-5.7-24.6-14.1-32.6-22-9.1-9-10.3-11.6-9.5-20.8.4-5.5.2-8-.9-10.1-2.4-4.8-16.5-17-25-21.6-4.4-2.4-10.1-6.5-12.6-9.2-5.2-5.5-14.9-19.2-17.6-24.9-1.2-2.7-2.6-4-4.2-4.2-4.4-.7-5.3 4.2-2.1 11.2 2.7 6.1 2.8 13.8.2 21-2.6 7-2.8 12.7-.6 22.1 4 17.6 11.7 30.8 26.9 46.1 7.8 7.9 12.4 11.5 20.8 16.5 19.9 11.7 49.8 39.7 59.4 55.5 12.4 20.5 18.5 42.4 16.4 59.2-1.3 10.6-9.8 26.2-16.3 30.2-10.8 6.6-22.2-2.8-27.3-22.5-3.7-14.3-10.1-32.1-14.1-39.6-1.6-3-7.4-10.7-12.8-17.1-9.4-11.2-10.5-12.1-22-19-19-11.3-42.6-29.1-55.4-41.9-8.7-8.7-13-14-18.4-22.7-7.2-11.5-7.7-12.8-11.4-32.7-.3-1.7-.5-10.9-.5-20.6.1-20.5 1.2-26.1 7.3-36.4 5.4-9.2 9.1-13.7 22.4-27.6 6.2-6.4 11.9-12.9 12.7-14.5s2.8-3.9 4.5-5.1c1.8-1.3 4.9-6 7.9-12 5.1-10 7.5-13.7 15.3-24 11.2-14.6 15.2-18.7 26.5-27.3 5-3.7 13.3-10.4 18.5-14.9 5.5-4.7 12.3-9.5 16-11.3 6.5-3.1 18.9-9.2 24.5-12.1 3.3-1.8 8.5-4 19-8.2 3.9-1.6 7.5-3.2 8-3.6 3.5-2.5 37.5-10.5 57-13.3 14.1-2.1 57.7-3.9 67.5-2.9 4.1.4 22.6.5 41 .2 32.6-.6 33.8-.7 43-3.4 5.2-1.5 11.2-3.7 13.3-4.8l3.8-2.2 2.4 2.7c2.4 2.8 6.3 5.3 14.5 9.5 5.1 2.5 6 2.7 6 1.2 0-.5-.4-.8-.8-.5-1.3.8-16.1-8.1-18.4-10.9-2.3-3-5.6-3.2-9-.6"/><path d="M283.5 551c-26.7 11-45.5 21.1-58 31.3-1.7 1.4-5.8 4.3-9.3 6.6-3.4 2.3-6.2 4.6-6.2 5 0 .5-2.4 2.5-5.4 4.5-5.6 3.7-24.6 23.1-24.6 25 0 .6-1.8 3.3-4 6-2.2 2.6-4 5.2-4 5.6 0 .5-1.7 2.8-3.8 5.2-2 2.4-6.4 8.8-9.7 14.3-3.3 5.4-8.1 12.2-10.8 15.1-5.1 5.6-4.5 5.4-21.7 7.3-4.7.5-13.1 1.6-18.8 2.5-5.6.8-16 2-23.1 2.6s-16.3 1.9-20.5 3c-7.2 1.8-13.1 2.1-15.4.6-.6-.3-1-1.9-1-3.5.1-1.5-.3-3.4-.8-4.2-1.3-2-1.2-30.2.1-31.1.6-.5.4-.8-.6-.8-1.3 0-1.5 2.1-1.4 15.7 0 9.3.5 16.6 1.1 17.8.6 1.1.9 2.5.7 3.2s.1 2.1.7 3.3c.8 1.6 1.7 1.9 3.8 1.4 2.5-.6 2.5-.5-.8 1.8-4.3 2.9-5.1 6.9-2 9.1 1.6 1.1 1.8 1.6.7 2-.9.3-1.4 2-1.4 4.7 0 2.3-.5 4.6-1.2 5.3-.6.6-1.1 2.2-1.1 3.6 0 1.3-.6 3.2-1.3 4-.8.9-1.9 4.5-2.5 8s-1.7 7.1-2.5 8c-3.5 4.1-4 49.7-.7 63 .6 2.4 1.3 9.2 1.5 15s.6 12.4.9 14.6c.6 4.1 1 10.5 2.2 31.8.5 8.5 1.2 12.9 2.6 15.5 1 2 1.8 4.5 1.8 5.7 0 2 8.8 12.1 9.7 11.1.3-.2-1.5-2.6-4-5.3-2.4-2.6-4.7-6.2-5.1-7.8-.4-1.7-1.4-4.4-2.1-6-.7-1.7-1.6-8-1.9-14-1.3-22.1-1.6-27.1-2.2-31-.3-2.2-.7-8.8-.9-14.6s-.9-12.6-1.5-15c-3.3-13.4-2.8-58 .7-62 .7-.9 1.8-4.5 2.4-8 .7-3.5 1.8-7.1 2.5-8 .8-.8 1.4-2.7 1.4-4 0-1.4.5-3 1.1-3.6s1.2-2.9 1.3-5.1c.2-2.2.7-4.5 1-5.1 1.2-1.8 3.6-1.2 3.6.9 0 1.1.4 2 1 2 .5 0 .7-.7.4-1.5-.4-.9.2-1.6 1.8-1.9 1.2-.3 5.5-1.1 9.3-2 12.1-2.5 18.7-3.6 30-4.6 6.1-.6 12.6-1.5 14.5-2 1.9-.6 7-1 11.3-1h7.8l-8.6 10.1c-4.8 5.7-8.5 11.1-8.5 12.3s-.9 3.6-2 5.4c-4.4 7.2-6.7 46.6-3.6 61.7 5 24.1 10.3 36.2 22.4 50.6 4.5 5.3 10.6 11.5 13.7 13.8 3.1 2.4 8.7 7.1 12.3 10.5 9.1 8.4 17.8 15.6 18.9 15.6.5 0 2.9 1.3 5.4 2.8 2.4 1.6 8 4.7 12.3 7.1 10.3 5.6 14.8 8.4 16.5 10.5.8 1 2.7 2.4 4.3 3.2 1.5.8 2.8 2 2.8 2.7s2.2 4.1 4.9 7.4c2.8 3.4 5.9 7.9 6.9 10s3.7 7.4 6 11.8c3.6 7.2 5.5 12.9 9.3 28.5 1.7 7.1 7 17.1 11.6 22.1 3.6 3.9 5.3 4.8 10.1 5.8 15.3 3.3 29-2.5 35.9-15.2 8-14.7 8.5-16.3 9-31.2.6-13.5.4-14.6-2.7-27-2.4-9.8-4.5-15.4-8.4-22.5-2.8-5.2-5.7-10.7-6.4-12.1-2.2-4.4-13.6-18-21.4-25.5-17.6-17-25.8-23.7-41.3-33.8-4.9-3.2-9.4-6.5-9.8-7.2s-2.4-2.1-4.4-3c-1.9-1-6-4.7-9-8.3-6.1-7.4-13.3-17.5-13.3-18.9 0-.4-1.1-2.3-2.5-4.1-5.7-7.8-10-33.1-5.6-33.1.5 0 2.6 2.3 4.7 5.1 2.2 2.8 5.3 5.8 6.9 6.8 1.7 1 6.7 4 11.3 6.6 8.7 5.1 14.2 10.3 14.2 13.5 0 1 .4 2.1.9 2.4s1 4.3 1.3 9c.4 7.9.7 8.8 4.8 15.1 4.3 6.6 15.9 16.9 27 24.1 2.5 1.6 6.8 4.8 9.7 7.1 2.8 2.2 6.2 4.4 7.5 4.7 7.8 2.2 10.5 3.1 11.9 4.3.8.7 2.2 1.3 3 1.3 1.7 0 19.1 16.8 26.9 25.9 7.4 8.8 14.4 11.9 29.3 13.4 9.4.9 11.2.8 14.3-.6 1.9-.9 4.5-1.7 5.8-1.7 4 0 12-3.1 14.4-5.7 2.8-3.1 3-8.3.3-8.3-1 0-2.4-.7-3.1-1.5s-1.7-1.5-2.3-1.5c-.5 0-.2.9.8 2s2.6 2 3.7 2c2.4 0 2.3 3-.2 6.3-2 2.6-9.5 5.7-13.7 5.7-1.2 0-4.1.7-6.4 1.6-3.5 1.4-5.5 1.5-14.3.6-13.5-1.3-20.2-4.6-27.7-13.4-8.1-9.5-25.2-25.8-27-25.8-.9 0-2.2-.7-2.9-1.5s-2.1-1.5-3.1-1.5c-1.1 0-2.7-.4-3.7-.9-.9-.6-2.9-1.2-4.4-1.6-1.5-.3-5.1-2.4-8-4.8-2.9-2.3-7.3-5.5-9.8-7.1-11.2-7.2-22.7-17.5-27.1-24.2-4.1-6.4-4.4-7.3-4.7-14.9-.2-4.4-.8-8.4-1.3-8.9-.5-.6-.9-1.8-.9-2.8 0-3-5.6-8.3-14.2-13.3-4.6-2.6-9.6-5.6-11.3-6.6-1.6-1-4.7-4-6.9-6.8-6.9-9.2-9.7-6-7.8 8.8 1.3 9.6 4 17.7 7.1 21.7 1.2 1.5 2.1 3.1 2.1 3.6 0 1.4 7.1 11.4 13.3 18.9 3 3.6 7.1 7.3 9 8.3 2 .9 4 2.3 4.4 3s4.9 4 9.8 7.2c16.8 11 26.4 19 44 36.8C289 871.1 299.6 889 305 910c3.1 11.9 3.2 13.1 2.7 26.6l-.5 14-5.2 10c-6 11.3-9.1 15.1-16.1 18.9-5.7 3.1-15.6 4.2-22.3 2.4-5.2-1.4-10.8-6.7-15.2-14.6-3.4-6.1-4.3-8.6-8.7-25.8-1.3-5-4.1-12.4-6.2-16.5s-4.8-9.3-5.9-11.5-4.2-6.7-6.8-9.9c-2.6-3.3-4.8-6.6-4.8-7.3s-1-1.7-2.2-2.4c-1.3-.6-3.6-2.4-5.3-3.9-2.6-2.4-18.2-11.7-31.3-18.6-4.8-2.5-11.8-8.1-20.7-16.4-3.3-3.1-9-8-12.6-10.8-7.6-6-21-21.7-25-29.4-6.5-12.7-7.9-16.9-11.5-34.3-3-15.1-.9-52.1 3.5-61.2 1.2-2.3 2.1-4.8 2.1-5.6s3.8-6 8.5-11.5c5.1-6.1 8.3-10.7 7.9-11.5-.6-1.7-9.2-1.4-21.9.8-4.4.8-11.6 1.7-16 2-8.2.6-14.1 1.6-25.7 4.2-4.9 1.1-7.1 1.2-8.6.4-2.5-1.3-4.3-1.4-2.2-.1 3 1.9-.3 2.4-3.8.5-7.5-4-3.6-8.4 10.7-12.1 5-1.3 15-2.8 22.1-3.4s17.6-1.8 23.2-2.6c5.7-.9 14.1-2 18.8-2.5 16.6-1.7 18-2.1 23-7.6 2.5-2.7 7.5-9.9 11.2-15.9s7.7-11.9 8.8-12.9c1.2-1.1 3-3.6 4-5.6 1-1.9 2.6-4.1 3.5-4.9s2.5-3 3.5-5c2.6-5.1 19.2-22.4 25.6-26.6 3-2 5.4-4 5.4-4.5 0-.4 2.8-2.7 6.2-5 3.5-2.3 7.6-5.2 9.3-6.6 9.4-7.7 37.4-23.7 48.4-27.7 8.9-3.2 27.7-11 28.6-11.8 1.8-1.6-1.2-.5-20 7.2m666.8 40.7c.9.8 27.5.9 27 0-.2-.4-6.5-.7-14-.6-7.4 0-13.2.3-13 .6m-904 8.9c-.7 1.8 1.1 3.9 2.6 3 1.7-1.1 1.3-4.6-.4-4.6-.9 0-1.8.7-2.2 1.6m2.7 1c0 .8-.5 1.2-1 .9-.6-.4-.8-1.1-.5-1.6.9-1.4 1.5-1.1 1.5.7m932.1 1.4c-.1 2-.8 4.6-1.7 5.9-1 1.4-1.4 3.3-1 5.1.3 1.7-.1 4.1-.9 5.7-.8 1.5-1.5 4.5-1.5 6.5 0 5.1-1.7 5.8-14.1 5.3-5.7-.2-12.4 0-14.9.3-4.4.7-4.6.9-8 7.7-1.9 3.8-4.5 8.1-5.7 9.5-11.9 13.6-19.7 23.2-21.3 26.6-2.9 5.9-4 22.2-4.5 68.4-.6 52.2-1.4 82.8-2.6 103.5-.6 9.3-1.2 25.3-1.4 35.5-.4 20.5-.9 28.7-3 53-2.8 30.3-3.8 32.5-21.5 43.9-3.6 2.3-9.7 5.7-13.6 7.6l-7.2 3.4.5 15.8c.3 8.7.6 16.2.9 16.8.2.6.3-6.4.1-15.4-.2-13.7 0-16.5 1.3-17.2.8-.5 4-1.9 7-3.3 5.9-2.7 16.1-9.1 22.4-13.9 7.9-6.2 9.8-15.6 13.2-64.2.3-4.4.7-16.8.9-27.6.1-10.8.5-22.3.9-25.5 1.3-12.2 2.6-58.3 2.8-95.9.1-40 1.1-67.6 2.8-77.8 1.1-6.7 3.6-10.2 24-33.5 1.7-1.9 3.5-5.1 4.1-7.2s2.2-5.1 3.4-6.6l2.3-2.9h14.9c8.1 0 15.4-.4 16.1-.8.6-.5 1.2-2.4 1.2-4.3s.7-5.1 1.5-7c.8-2 1.2-4.7.9-6-.4-1.3-.2-3 .3-3.7 2-2.6 2.9-6.3 2.2-8.7-.6-2.2-.7-2.1-.8 1m-518.6 29c.6 1 .4 1.2-.8.7-2.3-.9-5.3 3.3-6.1 8.5-.9 5.7-3.1 12-6.7 19.3-3.3 6.9-9.4 30-10.3 39.4-.5 5.7-.4 6.7 1.5 8.7 1.2 1.2 2.8 2 3.5 1.7 2-.7 7.2-12.2 8.4-18.1 1.5-8 7.1-29.3 8.5-32.6 3.3-7.4 7.5-20 7.5-22.1 0-1.5-1.2-3.2-3.2-4.6-1.7-1.3-2.8-1.7-2.3-.9m3.3 3.2c1.9 1.9 1.5 3.5-3.3 16.2-4.1 10.9-11.5 37.3-11.5 41.2 0 2.2-6.8 16.4-7.9 16.4-.4 0-1.5-.8-2.4-1.8-1.4-1.5-1.5-2.9-.8-9.2 1.2-10.4 6.4-29.7 9.6-36.1 3.1-6 6-14.5 7.1-20.4.3-2.2 1.3-4.8 2.2-5.8 1.7-2 5.3-2.2 7-.5"/><path d="M959 634.4c0 .5 1.1 2.4 2.5 4.2s2.5 4.4 2.5 5.7c0 1.4.7 3 1.5 3.7 1.8 1.5 1.9 3.4.4 5.8-.9 1.4-.7 3.2 1 7.8 2.6 7.4 2.6 7.7.1 6.9-1.8-.6-2-.2-2 3.4 0 2.2-.4 4.3-1 4.6-2.8 1.7.5 9 4.8 10.6 2 .8 2.3 1.4 1.9 3.8-.4 2-.1 3.3.9 4.2.9.7 1.4 2.5 1.2 4.2-.2 2.4-1 3.2-3.8 4.1-3.2 1-3.5 1.5-3.8 5.4-.2 2.4.1 4.9.6 5.5 1.5 2 2.3 6.5 1.2 7.2-.5.3-1 1.5-1 2.7 0 1.7.5 2 2.8 1.5 1.5-.3 3.5 0 4.5.8 1.8 1.3 1.8 1.5.2 3.9-1 1.4-2.1 2.6-2.6 2.6s-.9 2-.9 4.5c0 3.4-.5 4.8-2 5.7-2.5 1.6-2.7 7.1-.4 12.7 1.2 3 1.3 4.4.5 6-1.5 2.8-1.4 5.2.5 7.2 1.4 1.6 1.5 2.7.6 7.9-.6 3.4-1.8 7.6-2.7 9.3-1.2 2.3-1.6 6.1-1.6 13.7 0 11.2.7 14.3 4.8 20.2 2.5 3.8 2.4 5.8-.4 5.8-3.6 0-9.3 2.4-9.3 3.9 0 .9-1.6 2.9-3.5 4.4s-3.5 2.3-3.5 1.7-1.1-1.5-2.5-2-2.5-1.4-2.5-2-2.4-1-5.5-1c-5.1 0-5.6-.2-6.7-2.8-.6-1.5-1-3.1-.9-3.7.2-.5-.3-2.7-1-4.7-.8-2.6-1.8-3.8-3.1-3.8-1 0-1.8.4-1.8 1 0 .5.6.7 1.4.4.9-.4 1.8.7 2.6 3.1 1.5 4.4 1.1 4.9-2.6 3.5-1.6-.6-5.1-1-7.9-.8-4.6.3-5.1.1-7-2.9-2.3-3.7-4.5-4.2-6.2-1.3-1.1 1.6-1 1.8.2 1.4.8-.4 1.5-1 1.5-1.5 0-1.6 2-.9 2.7.8 1.5 4.2 3.3 5.2 8.7 4.6 6.2-.6 11.2 1.4 12.6 5.2.9 2.2 1.5 2.5 6.5 2.5 3.1 0 5.5.4 5.5 1s1.1 1.5 2.5 2 2.5 1.4 2.5 2c0 1.9 2.5 1 5.8-2.1 1.7-1.6 3.2-3.6 3.2-4.4 0-1.3 3.4-2.6 9.5-3.7 2.7-.5 2.4-4.8-.8-9-1.3-1.8-2.8-4.6-3.1-6.3-1.1-4.2-.9-21.4.2-22.8 1.1-1.6 2.9-8.1 3.8-14 .5-3.8.3-5.2-1.1-6.7-1.4-1.6-1.5-2.3-.4-5.3 1-2.9 1-4.1-.4-7.6-2.3-5.6-2.2-9.3.3-10.9 1.5-.9 2-2.3 2-5.2 0-2.8.7-4.7 2.5-6.6 1.4-1.5 2.5-3.5 2.5-4.4 0-2.2-4.2-4.4-6.9-3.5-2.2.7-2.8-.4-1-2.2 1.2-1.2.2-8-1.2-8.9-1.4-.8-1.1-7 .4-8.2.6-.5 2.3-1.2 3.7-1.4 2.1-.2 2.6-.9 2.8-4.1.2-2.1-.2-4.5-1-5.4-.7-.9-1.1-2.8-1-4.3.3-2.1-.2-3-1.7-3.5-1.1-.3-3-2-4.2-3.7-1.8-2.5-2-3.4-1.1-4.9.7-1 1.2-3.5 1.2-5.5 0-3.1.2-3.5 1.5-2.4 2.6 2.1 2.9-1.4.7-8.2-1.3-4-1.7-6.7-1.1-7.3 1.4-1.4 1.1-6.1-.6-7.5-.8-.7-1.5-2.4-1.5-3.9-.1-2.3-5.9-10.9-6-8.7M50 676.8c0 2.3 3 5.2 5.3 5.2 2.4 0 2.1-2.1-.7-4.8-2.9-2.7-4.6-2.8-4.6-.4m5.5 4c-.7.7-4.5-2.9-4.5-4.1 0-.6 1.1 0 2.5 1.3s2.3 2.6 2 2.8M622 727.1c0 .7 4.4 5.8 9.9 11.3 10 10.2 13.1 15.1 17 26.2 2.4 6.7 2.6 10 .9 10.7q-1.5.6 0 .6c1.4.1 1.6 4.3.3 8.9-.6 2-.6 3 0 2.7.5-.4.9-1.5.9-2.5 0-2.5 1.7-3.5 2.3-1.3.4 1.4.5 1.3.6-.5 0-1.2-.3-2.2-.9-2.2-.5 0-1-2.4-1-5.3s-.9-8-2.1-11.2c-4.3-12.8-6.8-16.7-17.2-27.3-11.5-11.7-11.8-11.5 6.3-6.2 5.2 1.5 13.5 3.3 18.3 3.9 4.9.6 10.5 1.8 12.5 2.5 2 .8 7.8 2.6 12.7 4.1 14.5 4.5 19 7.3 31.8 19.6 14.1 13.6 13.4 13 22.9 16.3 9.1 3.1 14.8 3.2 24.3.6 3.9-1.1 7.9-2 8.9-2 1.1 0 3.3-1.2 4.8-2.8 1.6-1.5 5.2-3.8 8.1-5.2s5.8-3.6 6.5-5c1.4-2.8 1-12-.8-16.1l-1.1-2.4.6 2.5c.3 1.4.8 5 1.1 8 .6 5 .4 5.9-1.9 8.5-1.3 1.7-4.2 3.6-6.3 4.4-2.2.7-5.1 2.5-6.7 3.9-3.2 3-17.4 7.1-25 7.1-4.8.1-16.9-3.6-20.7-6.2-1.1-.7-7.2-6.4-13.7-12.6-12.6-12.1-17.5-15.2-30.3-19-4.1-1.2-9.9-3.1-12.8-4.1-2.9-1.1-9.2-2.4-14-3.1-4.8-.6-13.2-2.3-18.7-3.9-13.2-3.7-17.5-4.4-17.5-2.9"/><path d="M790 745c0 .9.6 2.4 1.4 3.5.7 1.1 3.6 6.1 6.4 11.1 4.2 7.6 5.3 10.6 6.2 17.1.6 4.4 1.5 9.5 2 11.4 2 7 3 20.3 3.1 41.5.1 19.6-.1 22.4-1.9 26.9-1.1 2.7-2.3 7-2.7 9.5s-1.3 5.2-2 6c-.8.8-1.8 2.7-2.3 4.1-1 2.6-17.3 13.2-24 15.5-1.8.7-3.9 1.7-4.7 2.4-1.9 1.6-9.7 3.6-23 6.1-6 1.1-16.2 3.4-22.5 5-6.3 1.7-13.5 3.4-16 3.9-2.5.4-11.7 2.4-20.5 4.4-20.7 4.6-23.5 5.2-39 8.2-7.1 1.3-15.2 3.1-18 3.8-5.2 1.4-26.7 4.8-41.5 6.5-4.7.6-14.8 1.7-22.5 2.6s-15.2 1.4-16.7 1-3.4-.3-4.3.2c-1.3.7-.9 1 1.7 1 1.8 0 5 .2 7 .5 2.1.2 3.9.1 4-.3.2-.3 2.9-1 6.1-1.3 5.3-.7 5.7-.6 5.7 1.3 0 1.1-.5 2.3-1.2 2.7-1.6 1-22.1 4.3-23.1 3.7-.4-.3-1.3 0-2 .5s-3.4 1.2-6.1 1.6c-2.7.3-8.8 1.5-13.5 2.6-33.1 7.5-46.8 10.2-67.1 13-19.8 2.8-23.5 3.4-37.5 5.9-3.3.6-8.9 1.2-12.5 1.5s-8.6 1.2-11 2c-2.5.9-5.8 1.6-7.3 1.6s-6.2.7-10.4 1.6c-4.2.8-9 1.5-10.7 1.5-4 0-28.7 3.8-44.1 6.9-2.2.4-9.8 1.7-16.9 2.9s-13.2 2.3-13.6 2.6c-2.2 1.3-33.6 6.5-39.6 6.5-1.8 0-3.6.5-3.9 1-.3.6-2.2 1-4 1-1.9 0-5.4.6-7.7 1.4-2.4.8-7.6 1.7-11.7 2-4.1.4-8 1.1-8.6 1.6s-3.6 1.2-6.6 1.5c-20.6 1.9-27.6 2.9-29.4 3.8-1.1.5-3.9.9-6.2.8-2.4 0-5.2.4-6.3 1.1-1.5 1-2.4 1-3.9.1-2.5-1.6-10.2-.5-12.1 1.7-1.7 2-11.5 3.6-12.5 2-.6-.9-4-.6-7.5.8-2.2.8-14.2 4-23.8 6.2-8.9 2.1-10.2 2.6-10.2 4.1 0 .5 1 .3 2.3-.5 1.2-.8 5.6-2.2 9.7-3 9.7-2 20-4.6 22.5-5.6 4.2-1.8 6.5-2.1 6.5-1 0 1.9 12.2.2 14-2 1.9-2.2 8.9-3.4 10.8-1.8 1 .9 2.1.9 4.5 0 1.8-.6 4.8-1.1 6.7-1 2 0 4.5-.4 5.6-1s7.6-1.6 14.4-2.2c12.7-1.1 18.2-2 25.5-3.9 2.2-.6 5.9-1.1 8.1-1.1 2.3 0 6.1-.7 8.4-1.5s5.5-1.5 7.1-1.5c1.5 0 3.8-.4 5.1-.9s6.6-1.4 11.8-2.1c12.5-1.5 26.9-4 29.8-5.1 1.3-.5 8-1.9 15-3 7-1.2 14.5-2.5 16.7-2.9 15.4-3.1 40.1-6.9 44.1-6.9 1.7 0 6.5-.7 10.7-1.5 4.2-.9 8.9-1.6 10.5-1.6s4.9-.7 7.3-1.5c2.3-.9 7.2-1.8 10.8-2 3.6-.3 9.1-.9 12.1-1.5 14.2-2.4 17.2-2.9 28-4.4 6.3-.9 14-2.1 17-2.6s10-1.7 15.5-2.6 14.3-2.7 19.5-3.9c5.2-1.3 11.5-2.6 14-3 2.5-.3 6.8-1.3 9.5-2 5.2-1.5 19-4.1 26-5.1 7.8-1 20.7-3.4 21.6-4 .5-.3.9-1.6.9-2.9 0-2.7 1.7-3.5 7.6-3.5 2.4 0 7.4-.4 11.1-1 26.6-3.8 36.4-5.4 40.8-6.6 2.8-.7 10.9-2.5 18-3.8 15.5-3 18.3-3.6 39-8.2 8.8-2 18-4 20.5-4.4 2.5-.5 9.7-2.2 16-3.9 6.3-1.6 16.5-3.9 22.5-5 19.3-3.6 26.2-6.2 42.7-16.1 6.5-3.9 8.6-5.8 10.9-9.9 1.6-2.8 2.9-5.7 2.9-6.6 0-.8.3-1.5.8-1.5.4 0 .7-1.5.8-3.3.1-1.7.9-5.2 1.9-7.7 1.4-3.8 1.7-7.9 1.6-26.5-.1-22.3-.8-31.8-3.5-43.5-.8-3.6-1.7-9.2-2.1-12.4-.5-4.4-1.9-8.2-5.5-14.5-6.9-12.6-9-15.8-9-14.1m-318.7 6.5c-1.1.8-2.3 1.2-2.6.9-.5-.6-3.4-.1-24.2 4.2-8.8 1.8-13.2 2.6-24.5 4.3-4.1.6-8.3 1.4-9.2 1.7-2.6.8-2.2 3.4.5 3.4 1.2 0 3.9.9 6 2 2 1.1 4.5 2 5.4 2 3.2 0 11.9 5.8 16.5 10.9 7.1 7.9 13.5 21.1 14.3 29.7.6 6.1.4 7.8-1.4 12-1.2 2.7-3.4 6.2-4.9 7.8-5.7 6-19.6 9.4-30 7.3-6.9-1.4-16.6-7.3-17-10.4-.2-1.2-2.1-4.2-4.3-6.7-4.3-4.9-7.5-6.1-6.6-2.6.6 2.3-1.1 2.8-1.9.6-.3-.8-1.8-1.9-3.3-2.6-3-1.2-18.1-3-19.3-2.3-1.8.9-.5 3.4 4.2 8.6 3.2 3.5 6.6 8.9 9.1 14.4 3.6 7.8 4 9.4 3.5 13.8-.3 2.7-.8 6.8-1 9l-.5 4 1-4c2.6-10.7 2.4-13.7-2-23.5-2.7-6.1-5.7-11-9.1-14.7-2.8-3.1-4.8-5.8-4.5-6.1.8-.8 10.4-.2 14.7.9 2.1.5 4.7 1.9 5.7 3.1 2.2 2.3 5.4 1.8 4.5-.7-1-2.6 1-1.5 4.5 2.6 4.1 4.8 4.4 7 1.1 8.1-2.4.7-2.4.8.3.4 1.5-.2 3 .1 3.3.5 1.6 2.7 11.6 7.7 17.1 8.7 10.6 1.9 24.6-1.2 30.6-6.7 5.5-5 7.2-9.7 7.1-19.3-.1-8.1-.4-9.2-4.7-18-2.5-5.2-6.7-11.8-9.3-14.7-4.9-5.5-13.5-11.1-16.9-11.1-1.1 0-3-.6-4.1-1.4s-3.7-1.8-5.8-2.2c-5.1-.9-3.1-2 6.5-3.5 11.4-1.8 15.8-2.5 23.9-4.2 16.3-3.4 23.1-4.5 24.8-4 1 .2 2.4-.2 3-1 1-1.1 2.1-1 7.4.7 3.5 1.2 7 2.5 7.8 3.1.8.5 2 1 2.5 1.2 1.5.3 31.5 5.2 42.4 6.8 5.2.8 10.8 1.9 12.5 2.5 1.7.5 4.8 1.2 6.8 1.5 2.1.3 8.7 3 14.7 6 11.1 5.6 14.6 6.5 15.4 4.2.3-.9.9-.7 2.4.5 2.7 2.4 4 2.3 1.8-.2-1.9-2.1-5.5-2.7-5.5-1 0 1.8-2.2 1.1-11.2-3.6-9.3-4.7-16.6-7.4-20.6-7.4-1.2 0-3-.4-4-1-.9-.5-6.2-1.7-11.7-2.5-32.1-4.8-40.5-6.4-49.6-9.8-8.6-3.2-9.9-3.4-11.6-2.2"/><path d="M346.8 762.5c-8.6 10.1-12.5 13.9-19.1 19-4.3 3.3-8.7 6.3-9.8 6.7-2.9 1.1-2.3 3.6 1.1 4.3 1.7.4 7.5 2.7 12.8 5.2l9.7 4.6 14 .3c25.9.6 28.3 1.3 39.1 12.3l6.9 7 4.3-1.1c2.3-.6 4-1.4 3.7-1.8-.2-.4.4-1.5 1.5-2.5 1.8-1.6 2-1.6 2-.2 0 1 .4 1.7.8 1.7.5 0 .7 1.3.4 3-.4 3-.4 3 4.2 3 3.5 0 4.9.5 5.8 2 2.8 4.4 16.8.8 20-5.1 3.2-6 1.9-14.6-3.5-23.4-4.7-7.7-7.5-10.2-15.9-14.6-15.5-7.9-35-12.5-57.3-13.3-9-.3-13.2-1.9-13.8-5-.4-2-.4-2-.6.1-.1 2.6-1.9 2.9-4.7.9-1.9-1.5-1.9-1.5.1-3 1.1-.8 1.5-1.6.8-1.6-.6 0-1.8.7-2.5 1.5m8.7 6.6c2.2.7 7.6 1.4 12 1.5 21.9.8 39.4 4.8 55 12.6 9.7 4.9 12.3 7.2 17.5 15.8 7.4 12.2 6.3 22.2-2.7 26.1-5.9 2.5-10.5 2.5-12.1-.1-.9-1.5-2.3-2-5.7-2-3.5 0-4.5-.4-4.5-1.6 0-.9.9-1.8 1.9-2.1 3.5-.9 3.4-4.8-.2-12.7-3.5-7.5-6.5-10.6-10.3-10.6-1.7 0-2.4.8-2.9 3-.5 2.4-.1 3.8 2.4 6.8 1.6 2.1 3.5 5 4.2 6.5 1.1 2.4 1 2.9-1.6 4.9-5.4 4.3-5.8 4.2-12.9-3.2-9.3-9.8-11.7-10.8-28.3-11.9-7.6-.6-15.6-.7-17.9-.4-3.1.4-5.9-.2-11.9-2.6-4.4-1.8-8.5-3.6-9.1-4.2-.6-.5-3.6-1.8-6.5-2.8-4.7-1.7-5.1-2-3.2-2.7 3.8-1.6 17.6-12.7 22.8-18.4 4.7-5.2 5.2-5.5 7.5-4.4 1.4.7 4.3 1.8 6.5 2.5m54.7 29.8c2.2 1.7 8.8 13.7 8.8 16 0 .5-.7 1.4-1.6 2.2-1.3 1.1-1.9.8-3.9-1.7-1.4-1.6-2.4-3.4-2.5-4 0-.6-1.6-3.2-3.6-5.8-5.1-6.7-3.2-11.4 2.8-6.7"/><path d="M426.4 804.1c-1.2 1.9-.6 6.7 1 9.1.9 1.2 1.6 3.1 1.6 4.1 0 2.3 3.8 2 5.3-.4 1.6-2.6-2.3-13.3-5-13.7-1.2-.2-2.4.2-2.9.9m5 2.6c2.3 4.6 3 9.4 1.5 10.4-2 1.3-2.9 1.1-2.9-.6 0-.8-.9-3.1-2-5.2-1.4-2.6-1.6-4.1-.9-5.5 1.4-2.5 2.6-2.3 4.3.9"/><path d="M431.5 814c-.3.5-.1 1 .4 1 .6 0 1.1-.5 1.1-1 0-.6-.2-1-.4-1-.3 0-.8.4-1.1 1M587 783c0 1.2 1.8 4.5 4.3 7.9.9 1.3 1.7 3.1 1.7 4 0 1.6 2.5 3.2 10.7 6.6 6.2 2.6 25.7 1.7 32.8-1.4 7-3.1 11.5-7.7 11.4-11.5-.2-2.8-.2-2.8-.6-.6-.6 3.5-4.9 7.7-10.8 10.7-4.3 2.2-6.7 2.7-16.8 3.1-9.3.4-12.4.2-15-1.1-1.8-.8-4.9-2.3-6.9-3.3-2.1-1-3.8-2.6-3.8-3.5s-.8-2.7-1.8-4c-2-2.6-3.6-6-3.4-7.2.1-.4-.2-.7-.8-.7-.5 0-1 .5-1 1m192.9 6.4c-.3.3-4.8 1.5-10 2.6s-11.2 2.7-13.4 3.6c-20.8 8.5-35.7 12.6-56 15.4-15.7 2.2-36.1 5.5-47 7.6-14.6 2.7-25 4.4-27 4.5-1.1 0-5.4 1-9.5 2.3s-11.2 2.7-15.8 3.1c-4.5.4-8.4 1-8.6 1.4-.3.4 1.8.4 4.7 0 7-1 8.7-1 8.7-.1 0 1.3-5.8 3.1-8.1 2.5-1.9-.5-2.1-.3-1.7 2 .5 2.4.1 2.7-4.6 4.1-2.8.7-7.5 1.7-10.5 2.1-3 .3-7.9 1.2-10.8 2-6.2 1.6-17.7 3.2-27.5 3.9-3.8.3-7.3.8-7.8 1.1-.6.4-3.6 1-6.8 1.5-3.1.5-12.2 2.1-20.2 3.5-8 1.5-17.2 3.1-20.5 3.6s-7.2 1.1-8.7 1.5c-1.9.4-2.8.2-2.8-.5s.5-.9 1-.6c.6.3 1 .1 1-.4 0-.6-.7-1.1-1.5-1.1s-1.5.8-1.5 1.8c0 1.5-2.1 2.3-11.7 4.7-20.5 4.9-36.6 8-48.1 9.4-4.5.6-9.1 1.5-10.2 2.1-1 .5-4.4 1-7.4 1-5.2 0-5.6-.2-5.6-2.4 0-3.1 3.8-4.3 5.6-1.8.8.9 1.4 1.2 1.4.6 0-.5-.5-1.5-1.1-2.1-.7-.7-.9-1.8-.6-2.6.6-1.6 11.4-4.4 20.7-5.3 3.6-.4 7.2-1 8.1-1.5.9-.4 5.6-1.3 10.5-1.9s10.5-1.5 12.4-2c3.6-1 11.8-2.5 29.5-5.5 5.5-.9 12.7-2.4 16-3.2s11.4-2.1 18-2.8c6.6-.8 16.5-2.1 21.9-2.9 5.5-.8 10.3-1.3 10.8-1 .4.3.8.1.8-.3 0-.5 2.8-1.5 6.3-2.2 29.1-5.9 36.7-6.3 40.4-2.1 1.3 1.4 2.3 2 2.3 1.3s-1-2.1-2.2-3.3c-3.7-3.4-14.9-2.4-44.8 4-9.6 2.1-26.3 4.6-36 5.5-3.6.3-10.5 1.5-15.5 2.5-4.9 1-12.8 2.6-17.5 3.4-22.5 3.9-26.7 4.7-30 5.6-1.9.5-7.5 1.4-12.4 2s-9.6 1.5-10.5 1.9c-.9.5-4.9 1.2-8.9 1.5-4 .4-8.5 1.1-10 1.6s-4.4 1.1-6.5 1.5c-2.8.4-4 1.3-4.7 3.1-.6 1.4-1.7 2.4-3 2.4-1.5 0-2 .7-2 2.5 0 2.6-1.4 3.3-2.5 1.5-.4-.6-.1-1.7.5-2.5.7-.9.8-1.5.2-1.5-1.7 0-3.4 2.7-2.2 3.5.6.4.9 1.3.6 2.1-.7 1.9 13.6 1.9 19 0 2.2-.7 6.8-1.6 10.4-2 5.6-.5 17.9-2.8 31-5.6 1.9-.4 10.5-2.4 19-4.5s18-4.1 21-4.5c3-.5 12-2 20-3.5 8-1.4 17.4-3 20.9-3.6 3.5-.5 6.8-1.2 7.3-1.5.6-.4 3.8-.8 7.2-1 9-.6 20.7-2.3 26.8-3.9 2.9-.7 7.6-1.6 10.3-2 7-.9 14.8-2.7 16.2-3.8.7-.5 1.7-.6 2.2-.3 1.3.8 17.9-1.8 24.6-3.9 2.8-.8 6.8-1.5 9-1.5s6.5-.7 9.5-1.5 10.5-2 16.5-2.6c6.1-.6 17.1-2 24.5-3.1s16.2-2.3 19.5-2.8c5.8-.8 17.7-3 26-5 16.1-3.7 26.5-6.4 29.2-7.6 1.7-.8 3.6-1.4 4.1-1.4.6 0 4.5-1.7 8.9-3.8 4.3-2 10.5-4.4 13.8-5.2 4.6-1.2 6.3-2.1 7.5-4.2 1.1-2.1 1.2-3 .3-3.9-1.3-1.3-11.4-2.5-12.4-1.5m10.7 2.1c1.9 1.5 1.8 1.5-.7 3.9-1.5 1.2-4.6 2.6-7 3-2.3.4-7.9 2.4-12.3 4.5-11.3 5.3-24.4 9.5-38.6 12.4-1.4.3-7.2 1.5-13 2.7s-13.2 2.6-16.5 3c-3.3.5-12.1 1.7-19.5 2.8s-18.4 2.5-24.5 3.1c-6 .6-13.5 1.8-16.5 2.6s-7.3 1.5-9.5 1.5-6.2.7-9 1.5c-9 2.8-23.5 4.7-25.1 3.4-2-1.6-1.7-3.1.4-2.5 2 .7 8.2-2 8.2-3.4 0-.5 1.5-1.1 3.3-1.5 1.7-.4 5.6-1.5 8.5-2.6 2.8-1 6.2-1.9 7.5-1.8 3.3 0 17.9-2.2 20.2-3.1 1.1-.5 3.7-1.1 5.9-1.5 3.6-.6 3.8-.5 3.3 1.4-.3 1.2-.1 2.1.4 2.1s.9-.9.9-1.9c0-1.6 1.1-2.2 5.3-3 7.3-1.5 22.9-3.9 38.2-6.1 12.2-1.7 24.1-4.2 34.5-7.4 5.2-1.6 20.6-7.2 23.5-8.5 3.5-1.6 7.4-2.1 8-1.1.3.5 1.4 1 2.3 1 1.3 0 1.3-.2-.4-1.5-1.8-1.4-1.8-1.4 1.1-1.5 1.7-.1 4.8-.7 7-1.5 5.5-1.8 11.7-1.8 14.1 0m-480 86.5c-6.8 2.1-10.2 9.6-5.4 12.1 2.2 1.2 10.9-.1 15.3-2.3 3.4-1.8 6.5-5.1 6.5-7 0-3.4-9.2-4.9-16.4-2.8m13.8 1.3c3.9 2.8-1.9 7.5-12.2 9.9-5.6 1.2-8.2.2-8.2-3.1 0-2.1 4.7-6.7 7.5-7.4 4.1-1 11.2-.7 12.9.6m-197.6 12.2c-.2.2-15.4.6-33.7.9-18.4.3-33.6.8-33.9 1-.5.5 29 .2 76.8-.9 23.7-.6 34.3-.2 36.9 1.4.8.5.9 1.5.2 3.3-.9 2.3-1.6 2.6-8.8 3.2-21.8 1.9-96 4-101.3 2.8-2.8-.7-3.4-1.2-3.2-3 .2-1.2-.1-2.9-.7-3.9-.7-1.3-.9-.6-.7 2.7.2 4.4.2 4.5 4.7 5.3 6.6 1.1 83.4-1.2 103.3-3.1 6.9-.7 7-.7 7.9-4.1 1.1-4.3.3-4.8-8.2-5.5-7.3-.6-38.7-.7-39.3-.1"/><path d="M52 893.5c-.6.8-1.6 4.9-2.2 9.2-.5 4.3-1.4 8.7-1.8 9.8-2.1 4.9-3.1 22.6-3.4 58-.1 13.6.2 16.8 1.8 20.5 2.9 7.1 3 7.3 7.2 9.6 4.2 2.4 7.4 6.6 7.4 10 0 2.1 6 8.4 8 8.4.6 0-.8-1.6-3-3.6-2.3-2.1-4-4.5-4-5.8 0-3.4-3.5-8.1-7.2-9.9-4.4-2.1-5-2.8-7.6-10.2-2-5.5-2.2-7.3-1.6-23 .3-9.4.6-22.2.7-28.5.2-11.9 1.4-22.8 2.7-24.5.4-.6 1.1-4.4 1.4-8.5.8-8.3 2.4-11.6 5.8-12.3 2.1-.4 2.1-.4-.3-.6-1.5 0-3.2.6-3.9 1.4m484.7 45.1c-1.7 1.7-19.7 3.8-19.7 2.3 0-.5-1.3-.9-3-.9q-3 0-3 1.5c0 1.8-7.6 4-19.3 5.5-4.8.6-10 1.6-11.5 2.1-1.5.6-4.9 1.3-7.7 1.6-2.7.3-5.8.9-6.7 1.4s-3.9.9-6.7.9c-2.7 0-5.3.4-5.6 1-.3.5-1.5 1-2.7 1-1.4 0-1.8.5-1.4 1.6.3.9.6 1.8.6 2s.6.4 1.4.4 1.6-1 1.8-2.3c.2-1.7 1.1-2.3 3.6-2.5 2.2-.2 3.4.2 3.8 1.2.9 2.4 4.4 2 4.4-.4 0-1.2.8-2.1 2.3-2.4 6.3-1.3 7.8-1.3 8.6.2 1.1 1.9 4.5.8 3.8-1.2-.6-1.6 4.6-2.9 15.5-4.1 3.2-.3 8.1-1.3 11-2.2 2.9-.8 6.9-1.7 8.8-2 1.9-.2 5.3-.5 7.5-.8 2.2-.2 5.9-.7 8.3-1.1 3-.5 4.2-.3 4.2.6 0 .7-.7 1-1.7.5-1.4-.5-1.5-.3-.6.6 1.4 1.4 3.6.2 2.9-1.6-.2-.7.2-1.6 1-1.9 2.7-1.1 5.4-.6 6 .9.4.8 1.2 1.5 1.9 1.5 1.4 0 2.7-2.5 1.8-3.4-.8-.8-8.8-.8-9.6 0m8.3 1.4c0 .5-.2 1-.4 1-.3 0-.8-.5-1.1-1-.3-.6-.1-1 .4-1 .6 0 1.1.4 1.1 1m-29 2c0 .5-.9 1-2 1s-2-.5-2-1c0-.6.9-1 2-1s2 .4 2 1m-37 10c0 .5-.4 1-1 1-.5 0-1-.5-1-1 0-.6.5-1 1-1 .6 0 1 .4 1 1m-15 3c0 .5-.4 1-.9 1-.6 0-1.3-.5-1.6-1-.3-.6.1-1 .9-1 .9 0 1.6.4 1.6 1m-12 2c0 .5-.2 1-.4 1-.3 0-.8-.5-1.1-1-.3-.6-.1-1 .4-1 .6 0 1.1.4 1.1 1m-12.2.2c-4 1.1-4.3 1.5-2.9 3.7.7 1.1 1.5 1.1 3.7.2 2.9-1.1 2.9-1.1.2-.6-4.4.8-4.2-1.3.2-2.5 2.2-.6 4-1.3 4-1.5 0-.6-.6-.5-5.2.7m-10.8 2.3c-2.5.7-8.3 1.8-13 2.4s-10.7 1.6-13.5 2.1c-2.7.4-10.4 1.8-17 3-12.5 2.2-22.8 4.2-30.5 6.1-2.5.6-6.6 1.4-9.2 1.8s-5 1-5.4 1.3c-.8.8 7.5-.1 10.6-1.2 1.4-.5 4.1-1.2 6-1.5 1.9-.4 6.2-1.2 9.5-2 3.3-.7 11.6-2.3 18.5-3.4 6.9-1.2 14.4-2.6 16.8-3.1 5.9-1.4 7.3-1.3 8.8.7 1.3 1.6 1.4 1.7.8.1-.4-1.2.1-1.9 2-2.4 1.3-.3 2.9-.3 3.5 0 .5.3 1.2 0 1.5-.6.3-.9.8-.8 1.6.4 2 3.2 10 1.4 10-2.3 0-.5.9-.9 1.9-.9 1.1 0 2.3-.5 2.6-1 .7-1.2.3-1.2-5.5.5m-1 3c-1.4 1.6-7 2.1-7 .6 0-.5 1.2-1.2 2.8-1.4 5.5-.8 5.5-.8 4.2.8"/><path d="M116 1011c-15.6.8-32.3 3-35.8 4.9-1 .5-2.4 1.7-3.2 2.5-.8 1.1-3 1.6-6.4 1.7-7.5 0-12.9 1.2-13.4 2.9-.4 1.2-.2 1.3 1 .3.8-.7 4.1-1.5 7.4-1.8 3.2-.3 7.6-.8 9.8-1.1 3.6-.4 3.8-.3 3.3 1.7-.5 1.7-.3 1.9.6 1s.9-1.6 0-3c-1-1.6-.7-2.1 2.5-3.4 5.3-2.3 24.6-4.6 39.4-4.8 7-.1 12.5-.6 12.2-1.1-.3-.4-.8-.7-1.2-.6s-7.7.5-16.2.8m640 4c-17.8 4-18.5 4.2-18.7 7.1-.3 2.2-.2 2.2.6.3.6-1.3 2.8-2.6 6.7-3.7 7.8-2.2 26.4-6 26.9-5.5.3.2.9 2.9 1.4 5.9s.9 4.3 1 2.9c0-1.4-.2-4.2-.5-6.3-.8-4.5-.5-4.5-17.4-.7"/></g></svg>