<svg xmlns="http://www.w3.org/2000/svg" width="1365.333" height="1365.333" preserveAspectRatio="xMidYMid meet" version="1.0" viewBox="0 0 1024 1024"><g fill="#000" stroke="none"><path d="M0 512v512h1024V0H0zM508 61.5c110.9 2.8 160.3 3.9 241 5.5 128.4 2.5 144.1 2.9 155 4.1 31.7 3.6 57 21.4 67.7 47.9 6 15.1 5.7 1.1 6 225.5.3 130.8 0 210.4-.6 219.9-.9 13.5-1.3 15.3-3.7 18.9l-2.6 4 2.3 10.1c2.1 8.9 2.4 12.6 2.4 30.1 0 22.8-1.3 31.1-6.9 44.5-3.6 8.5-10.2 18.4-15.9 23.9-4.6 4.4-4.5 3.4-5.7 64.6-1.2 59.2-2.1 66.1-10.7 82.5-3.6 7-6.4 10.4-13.2 16.2-3.1 2.6-5.2 5.8-7.5 11-7.6 17.4-18.7 27.5-38.1 34.4-6 2.1-25.3 2.5-29.9.5-2.6-1-3.4-.8-8.7 2.3-5.2 3.1-17.7 9.1-23.9 11.4-1.9.7-3.3 2.9-5.8 9-6.6 16.2-14.5 25.2-27.7 31.7-10.4 5.1-21 7.5-32.9 7.5-26.4-.1-45.6-10.6-54.9-30.1l-3.6-7.6-9.5 2.3c-14.8 3.5-30.4 4.7-53 4.1-37.8-1.1-58.6-8.1-77.6-26.2l-6.5-6.2-26.5-3.2c-38.1-4.6-109.2-13.7-148.5-19.1-36.8-5-79.7-11.5-116.9-17.6l-28-4.7-2.4 2.9c-9.3 11.2-12.1 13.9-19 18.4-10.6 7-20.7 10.1-34.7 10.7-13.2.6-21-.9-32.3-6.4-15-7.2-24.1-19.7-28.5-38.8l-2.2-9.7-5.3-3.6c-7.2-4.7-16.9-14.7-21.1-21.6-4.1-6.9-8.6-19.8-10.1-29-2.7-16.9-3.9-107.4-2-141.6.6-9.6 1.7-21.9 2.6-27.3l1.5-9.7-4.1-6.2c-9.1-13.7-15.2-31.3-18.1-52.8-1.9-13.7-1.6-37.4.5-49.5 8.3-46.7 41.4-77.6 94.6-88.2 12.9-2.5 38.4-5.2 50.1-5.3 7.5 0 8.2-.5 9.9-7 1.9-7.7 6.1-18.2 10.1-25.8l3.9-7.4v-18.6c0-16.4 1.8-42.5 3.6-53.1 1.5-8.7 6.6-27.6 9-33.3 4.4-10.5 10.5-19.9 18.1-27.9 11.2-11.7 22.5-16.7 35.6-15.6 12.1 1 29.9 11 47.8 26.8 3.6 3.2 6.9 5.6 7.3 5.2.3-.3.6-24.5.6-53.7 0-71.7.9-80.9 9.2-96.9C358.3 74.3 376.8 63 403.5 60c7.5-.8 16.5-.7 104.5 1.5m-298.2 49c1.1 1.4 2.4 5.6 3.1 10.2 2.8 17.8 6.3 26.6 13.5 33.7 4 4 6.4 5.3 24.1 12.2 4.4 1.7 5 2.3 5.3 5.1.4 3.6-1.5 4.9-10.4 7.6-10.4 3.1-17.3 7.8-22.5 15.3-4.1 6-6.6 13.7-8.9 27.1-2.2 13.1-3.1 15.3-6.5 15.3-3.6 0-5.9-4.4-7.9-14.8-3.2-16.6-6.3-23.8-13.4-31.4-4.9-5.2-10.2-8.4-19-11.3-2.9-.9-6.5-2.7-8-4-2.4-2-2.5-2.5-1.4-4.9.6-1.4 2.6-3.2 4.4-4 26.7-11.5 31.4-16.9 36.3-41.2 1.5-7.1 3.3-13.9 4.1-15.2 1.9-2.9 4.8-2.8 7.2.3m89.2 33.2c0 6.9 6 13.9 13.5 15.8l3 .7-4 1.2c-2.2.7-5 1.9-6.3 2.7-2.5 1.5-6.2 7.7-6.2 10.3 0 3.4-2 2.4-3-1.5-1.5-5.3-5.5-9.4-10.9-11l-4.2-1.2 5.1-2.5c5.6-2.7 8.4-6.2 10.1-13 1.3-4.7 2.9-5.6 2.9-1.5m-159.6 91.7c.8 2.2 2.2 6.8 3.1 10.1 4.1 14.9 12.4 24.4 25.3 29.1 5.2 1.9 7.7 3.4 8.4 5 1.5 3.2-.1 4.9-6.5 7-17 5.5-22.5 12.1-28.2 33.9-2.9 10.7-3.8 12.5-6.5 12.5-2.9 0-4.7-3.2-7.4-13.4-4.9-18.5-10.9-26.1-25.1-32-8.8-3.7-9.7-4.4-9.3-7.5.3-2.7.7-2.9 12.1-8.2 3.9-1.7 8.6-4.9 10.8-7.2 4.7-4.8 10.1-15.6 12.4-24.7 2.6-10.5 8-12.8 10.9-4.6m36 112.1c1 1.4 3.8 3.5 6.4 4.6l4.6 2-5.2 2.4c-4.3 2-5.6 3.3-7.2 6.7-1.1 2.4-2 5.2-2 6.2 0 2.9-1.5.8-2.8-4-1.4-5-3.5-7-9.8-9.4l-4.9-1.8 4.3-1.7c5.5-2.2 8.7-6.1 10.2-12.7l1.3-5.3 1.7 5.2c.9 2.8 2.4 6.3 3.4 7.8m-78.8 11.1c1.2 1.7 4.4 4.1 7.1 5.4l4.8 2.2-4.7 2.4c-5.5 2.8-8.4 6.2-10 11.8-1.6 5.8-2.4 6.3-3.1 1.8-1-5.9-4.5-10.4-10.6-13.3l-5.5-2.7 5.3-2.6c5.7-2.9 8.5-6.6 10.3-13.6l1.2-4.5 1.4 5c.8 2.7 2.5 6.4 3.8 8.1"/><path d="M400.5 77.6c-22.9 3.8-35.4 13.9-40.7 33-2.1 7.7-2.2 9.4-2.6 82.7-.3 61.3-.1 74.8 1 75.2.7.2 4.7-.4 8.8-1.3l7.5-1.8.5-74.4.5-74.5 2.4-5.3c3.7-8.3 11.3-13.8 21.9-16.1 6.5-1.4 26.5-1.4 62.3-.1 15.1.5 55.8 1.7 90.4 2.5 34.7.8 79.9 1.9 100.5 2.5 20.6.5 57.8 1.4 82.5 2 97.2 2.4 138.9 3.9 144.2 5.3 9.6 2.6 15.4 9 19 21.2 1.6 5.6 1.8 14.5 2 128.9.2 106 .1 123.3-1.2 125.9-1.1 2.1-1.5 7.1-1.5 19.5-.1 13.8-.4 17-1.8 18.5-1.1 1.3-1.3 2-.4 2.9 1.5 1.5-1.4 7.2-3.3 6.4-.8-.3-1.7-.1-2.1.5s-1.1.5-2.2-.3c-1.3-1.1-1.4-1.1-.5.7.7 1.2.7 2.9.2 4.3-.9 2.3-1.1 2.2-6-3.3-2.9-3-5.4-5.4-5.6-5.1-.3.2 1.9 3.3 4.9 6.8 9.9 11.7 16.7 26.4 20.1 43.8 1.8 8.8 2.1 14.3 2.2 34 0 22.7.1 23.5 2 23.8 16.6 2.9 37.3 15.4 48.5 29.4 2.5 3.1 4.8 5.4 5.2 5.2.5-.3.8-96.8.8-214.5 0-191.4-.2-214.8-1.6-221.7-5.3-26-27.5-43.4-58.8-46.2-5.6-.5-24.3-1.1-41.6-1.5-114.4-2.1-187.6-3.6-221-4.5-121.6-3.3-231-5.3-236.5-4.4m490.9 364.5c-.3.5-1 .7-1.5.3-.5-.3-.7-1-.3-1.5.3-.5 1-.7 1.5-.3.5.3.7 1 .3 1.5m8.5 14.6c0 5.4-.3 7-.9 5.2-.7-2.4-.2-12.9.6-12.9.2 0 .4 3.5.3 7.7"/><path d="M421 117.6c-5.9 1-7.2 1.6-10.6 4.7-2.1 1.7-4.7 5.2-5.8 7.7-1.9 4.3-2 7.2-2.8 68.4-.5 35.2-.5 64.3 0 64.8.4.4 4.7-3.2 9.5-8l8.8-8.9.4-8.9c.2-4.9.4-22.1.4-38.2l.1-29.2h11.3c6.3 0 17.5.3 25 .7l13.7.6v18.3c0 10.1.3 18.5.8 18.7.4.3 3 0 5.9-.5 6.8-1.4 17.8.2 24.7 3.6 9.9 4.9 19.1 16.3 24.3 30.2 1.5 4.1 3.2 7.3 3.8 7.1 1.3-.5 2.6-40.3 2.4-75.7l-.1-27.5 20.3.3c11.2.2 20.5.5 20.7.7.8.8-1.2 140.4-2 139.9-.4-.3-.9-1.7-.9-3.2-.1-2.3-.2-2.2-.8.8-1 4.9-2 6.4-3.5 5.1-.7-.6-1.5-.8-1.8-.5-.8.7-4.8-4.6-4.8-6.3 0-1-.6-1.3-1.7-.8-2.7 1.1-4.7 1.3-5.8.6-.5-.3-3.2-.6-6-.8-8-.3-8.8-.7-9.8-4.4-1.4-5.4-2.5-5.5-1.6-.2 1.7 9.6 2.3 45.7.9 55.2l-1.3 9 5.5 8.3c3 4.6 5.8 9 6.1 9.9.5 1.4 2.6 1.8 11.4 2.3 11.2.6 26 1.5 66.8 4.1 39.3 2.5 64.1 5 87.5 9 21.1 3.7 48.5 7.5 49.7 7.1.9-.4 1.3-2.8 1.3-8.1V366h8.5c4.7 0 8.5.3 8.5.7 0 .5 4.3.7 9.5.5l9.4-.3.3 11.7.3 11.7 12 3.6c23.1 7 42.8 16.5 54.7 26.5 4.2 3.5 7.9 6.2 8.2 5.9 1.2-1.2.7-278.1-.5-282.8-1.5-5.9-6.7-11.8-11.7-13.3-3.7-1.1-51.8-3.1-75.5-3.2-5.5 0-9.6-.4-9.3-.9.4-.5-7.1-.7-18.1-.3-11.9.3-18.4.2-18-.5.4-.6-5.3-.8-15.9-.5-9.1.3-16.4.1-16.4-.4s-12.7-1-28.3-1.1c-15.5 0-52.9-.8-83.2-1.7-30.2-.9-74.6-2-98.5-2.6-23.9-.5-50.7-1.2-59.5-1.4s-17.1-.2-18.5 0M647 168c.3.1 6.7.1 14.3 0l13.7-.2v39.9c0 22-.3 40.3-.6 40.6-.4.3-.6 11.6-.5 24.9l.2 24.3-17-.3-17.1-.3v-64.3c0-35.3.3-64.6.7-64.9.5-.6 4.3-.4 6.3.3m-141 11.7v8.8l-7-.3-7-.4V171h14zm284.7-8c-.3.5 4.5.8 10.6.8 10.1 0 11.2.2 11.5 1.9.2 1 0 1.6-.5 1.3-.4-.3-.6 27.8-.4 62.4l.3 62.9H777V171h7.1c3.8 0 6.8.3 6.6.7m-167.1 3.7s-.2 27.2-.4 60.4l-.4 60.2-16.2-.2c-8.8-.2-16-.6-15.8-1.1.1-.4.2-27.7.2-60.6v-59.9l16.3.5c8.9.3 16.2.6 16.3.7m87.3 20.6-.3 8.1-6.6-.3-6.5-.3-.3-7.8-.3-7.7h14.2zm147.9 3.9c.1 0 .2 14.5.2 32.2 0 21.1-.3 31.8-1 31.4-1-.6-1.4 1.9-1.1 7 .1 1.6.4 9.5.7 17.5l.5 14.5-16-.3-16.1-.3v-51.3c0-28.2.2-51.5.4-51.7.4-.3 31.7.6 32.4 1M751 210.2c0 2.9.3 7 .6 9 .6 3.5.5 3.8-1.6 3.8-2.2 0-2.2-.3-1.6-5.3.3-2.8.6-6.9.6-9 0-2 .5-3.7 1-3.7.6 0 1 2.4 1 5.2M555 293c1 .7-1.4.9-7.5.9-6.3-.1-8.1-.4-6-.9 4.4-1.1 11.8-1.1 13.5 0m17.4 1.1c-.3.5-1 .7-1.5.3-.5-.3-.7-1-.3-1.5.3-.5 1-.7 1.5-.3.5.3.7 1 .3 1.5m253.2 87.6-.1 3.8 9 .6 9 .5-9.7.2-9.8.2v-4.5c0-2.5.4-4.5.9-4.5.4 0 .8 1.7.7 3.7m4.1-3.1c-.3.3-1.2.4-1.9.1-.8-.3-.5-.6.6-.6 1.1-.1 1.7.2 1.3.5m16 6.6c-.2 1.3-.4.3-.4-2.2s.2-3.5.4-2.3c.2 1.3.2 3.3 0 4.5"/><path d="M494.6 174.9c-1.2 1.4-1.6 3.2-1.4 6.7l.3 4.9h11l.3-4.7c.4-6.4-1-8.8-5.2-8.8-2 0-4 .8-5 1.9m203.8 15.5c-.3.7-.4 3.5-.2 6.2l.3 4.9 4.3.3c2.4.2 4.9-.1 5.6-.7 1.8-1.5.7-7.1-1.8-9.8-2.3-2.5-7.4-3.1-8.2-.9m-218.7 33.7c-5.4 1.3-12.6 5.1-20.4 11-10.9 8.3-28.7 24.4-39.6 36.1L409.5 282l-19 .3c-16.7.3-20.1.7-28.5 3-5.2 1.4-9.7 2.3-10 1.9s-3.1-4.1-6.2-8.2c-12.4-16.5-39.8-40.4-53.5-46.7-15.1-6.9-27.6-2.1-39.2 15.2-12.7 19-16.9 40-17.8 87.9l-.6 29.9-4.2 7.1c-6.8 11.2-10.4 21-13 36-.8 4.9-1.5 8.9-1.5 9s-1.8 0-4-.2c-6.2-.6-36 1.6-51.5 3.9-36.7 5.3-57.8 14.6-75 33.1-8 8.7-15.3 22.8-18.5 35.8-2.8 11-3.8 37.9-2.1 51.3 3.1 23.3 11 42.6 22.3 54.3l3.9 4.1-2.5 8.4c-4.2 13.9-4.7 21.7-5.3 78.4-.5 57 .5 88.4 3.2 99 4 15.7 14.5 28.9 27.2 34.1l7 2.9.6 8c1.1 15.9 7.3 29.4 16.3 35.6 7.9 5.4 14.6 7.3 26.4 7.3 23.5 0 38.7-9.4 44.8-28.1 1.1-3.2 2.4-5.7 2.9-5.6 7.2 1.5 89.9 14.6 99.3 15.8 1.9.2 8 1.1 13.5 1.9 18.2 2.8 73.6 10.5 98 13.6 13.2 1.7 34.4 4.4 47 6.1 12.7 1.6 36.4 4.5 52.8 6.5l29.9 3.6 8.1 8.3c13.9 13.9 27.5 20 51.7 23.1 26 3.2 57.9-.2 83.9-9.1 4.1-1.4 8.2-3.2 9.2-4.1 1.6-1.5 1.7-.9 2.1 8.8.3 9.3.6 11 3.6 17 6 12.3 15.4 17.7 32.3 18.6 5.4.2 12.6-.1 16.5-.7 9.2-1.6 20.1-7 24.9-12.2 5-5.6 9.3-15 10.2-22.9l.8-6.5 8-2.7c8.7-3 28.9-12.6 33.8-16 2.9-2.1 3.1-2.1 10.1-.4 17 3.9 32.2.1 43.4-11 5.4-5.4 12.2-17.8 12.2-22.1 0-1.4 1-2.8 2.8-3.7 3.5-1.8 13.3-12 15.9-16.6 6.6-11.2 7.3-18.3 8.2-85.1l.8-57.7 8.5-8.3c8.9-8.8 11.5-12.9 15.4-24.2 3.5-10.2 4.8-21.3 4.1-35.6-1.1-23.9-6.7-38.1-20.7-52.1-13.1-13.2-26.5-19.7-45.8-22.3l-8.4-1.1.6-3c.3-1.7 1.1-11.1 1.8-20.9 3.3-49.1-7.9-77.7-38.1-97.2-23.4-15.1-51.6-22.9-123.1-33.9-53-8.2-138.2-15.6-179.1-15.6-8.6 0-10-.2-10.5-1.8-1.2-4.1-7.3-15.3-12.6-23.2l-5.7-8.5 1.1-7c.7-3.9 1.2-17.9 1.2-31.5 0-21.2-.3-26.1-2.2-36.2-2.4-12.6-6.6-25.4-10.7-32.3-3.5-6.1-10.7-12-16-13.4-5-1.2-5.5-1.2-10.8 0m9.5 23.9c3.6 5.3 7.2 14.6 6.2 16.1-.2.4.1.9.7 1.1.7.2 1.2 2.3 1.2 4.6s.3 3.9.7 3.7c1.4-.9 3.2 15.1 3.7 32.9l.6 18-2.9-2.3c-7.3-5.5-18.3-12.8-22.7-14.8l-4.9-2.3.7-5.2c1-7.2 3.7-14.7 8.9-24.4 5.6-10.5 7.2-15.2 5.7-16.7-2.4-2.4-22 20.4-28.2 33l-3.1 6.1-7.1-2.4c-4-1.4-10.3-3.3-14-4.3l-6.9-1.8 5-6c5.6-6.8 27.3-27.3 34.5-32.8 7.4-5.6 12.9-8.6 15.7-8.3 1.8.2 3.6 1.9 6.2 5.8m-202.9 1.6c10.3 5.3 33.8 27.7 50.6 48.2 6.1 7.4 8.9 10.1 10 9.6 8.5-3.4 23.3-5.8 36.6-5.7 43.1.1 85 15.9 108.4 40.9 19.3 20.7 28.9 39.1 31.7 61.1.6 4.8.5 5.3-1.3 5.3-5.2 0-13.9 3.2-16.6 6.1-4.2 4.5-2.9 5.2 8.4 4.4l9.9-.7v5.1c0 5.7-1.4 7.1-7.2 7.1-4.5.1-12.5 3.7-11.1 5.1.6.6 4.4 1.5 8.4 2.1 4.1.6 7.6 1.3 7.8 1.4.1.2-.9 4-2.5 8.6-8.5 25.6-27.9 42.9-55.9 49.8-10.2 2.6-32.8 10.4-36.4 12.7-1.4.9-1.9 1.9-1.4 2.4 3 3 32.9 1.7 47.8-2.1 11.3-2.8 28.8-11.8 36-18.3l5.8-5.3 4.7 4.7c5.8 5.8 8.8 6.8 25 8 57.6 4.4 65 5.3 82.8 9.5 8.7 2 34.8 10.7 36.1 12 .3.2-.4 1-1.4 1.8-1.8 1.3-1.7 1.4 1.1 2.9 1.6.8 7.4 3.8 12.8 6.6 11.4 5.9 20.6 12.6 26.5 19.5 6.1 7.1 7.2 9.9 2 5-4.8-4.3-14.4-11.1-19.7-13.8-1.8-.9-7.7-3.1-13-4.8-8.7-2.8-11-3.1-22.2-3.2-12.5 0-12.5 0-28 5.3-16.1 5.4-25.2 9.8-38 18.4-18.6 12.5-33.5 34.2-40.2 58.5-1.8 6.4-2.1 10.6-2.2 24.9 0 9.4-.4 16.9-.8 16.7-.5-.3-.9-2-.9-3.7-.2-2.9-.2-2.9-.6-.6-.5 3-10.2 12.1-14.9 14-1.6.6-3.9 1.6-5 2.1-1.6.7-4.6.5-10.4-.6-7.7-1.6-8.3-1.6-10.1 0s-1.9 1.5-2.9-1l-1-2.7-3.2 2.4c-5.8 4.2-6.3 3.3-6.4-11.6-.1-12.3-.3-13.8-3.3-22.2-16.6-45.8-59.6-71.6-115.4-69.2-14.6.6-22.7 2.6-30.7 7.7-5.6 3.6-15.5 13.6-14.3 14.3.5.3 4.5-.6 8.9-2.1 7.7-2.6 8.6-2.7 30.9-2.7 20.5 0 24.1.3 33.5 2.3 13.6 3.1 24.9 7 35.2 12.3 12.4 6.4 24 18.4 30.1 31 2.5 5.2 5.1 12.2 5.8 15.7 1.3 7.1.7 16.7-1.5 22.7l-1.5 4-.1-4.5c-.2-6.4-2.9-12.3-9-19.6-5.4-6.5-8-7.7-5.4-2.4.8 1.6 2 5.5 2.6 8.7.9 4.8.8 6.9-.6 11.6-1.5 5.3-2.1 6-5.9 7.7-2.3 1.1-5.7 2-7.4 2-3.2 0-3.3-.1-3.3-4.4 0-2.4-.7-6.3-1.5-8.7-1.9-5.3-6.3-12.2-7.4-11.5-.4.3-.3 2.7.2 5.4 1.3 6.1-.4 13.1-4.1 16.7-3.3 3.3-7.6 3.3-18.3-.4-10.9-3.7-15.4-6-26.7-13.9l-9.4-6.5-9.6-.8c-32.5-2.8-46.2-4.3-46.2-5.2 0-.5-.7-.6-1.6-.3-2.4.9-14.5-.5-13.8-1.6.4-.6-.9-.7-3-.3-2.4.5-3.6.3-3.6-.4s-1-.9-2.6-.5c-2 .5-2.5.4-1.9-.5.4-.8.2-1.1-.7-.9-.7.2-1.5-.2-1.8-.7-.5-1.2-8-6-10.7-6.9-3.2-1-26.8-23.7-26.8-25.7 0-.9-.3-2.1-.7-2.5-.5-.4-.8-1.5-.8-2.5 0-2.2-2.9-8.7-4.9-11.2-2-2.4-2.9-26.6-1.2-33.3 1.4-5.6.7-8.2-2.5-9-1.3-.3-2.4-1-2.4-1.5 0-2.3 6.4-14.5 14-26.9 4.5-7.4 9-14.7 9.9-16.2.9-1.6 1.9-2.8 2.2-2.8.4 0 4.2 2 8.6 4.5 9.4 5.3 22.1 10.1 29.2 11.1 2.8.4 5.1.9 5.1 1.3 0 .3 3.1.6 6.9.6s6.7-.3 6.4-.8c-.2-.4.6-.7 1.9-.7s3.4-.7 4.6-1.6c2.3-1.6 2.3-1.7.5-2.9-1-.7-4.6-2.1-7.8-3-3.3-1-6.4-2-7-2.4-1.1-.6-1.7-.8-4.1-1-.9 0-1.2-.6-.8-1.3.5-.8.2-.9-1.1-.4-2.3.9-5.7-.2-4.9-1.6.4-.7.2-.8-.5-.4-1.6 1.1-8.3-1.3-7.4-2.7.4-.7 0-.8-1.1-.4-2.1.8-11.1-3.6-12-5.8-.3-.9-1-1.4-1.6-1-1.2.7-8.9-4.1-9.7-6-.3-.8-1.1-1.5-1.7-1.5-1.9 0-7.9-6.7-7.1-7.9q.45-1.05-.6-.9c-3.8.8-16.8-28.6-15.3-34.6.4-1.6.2-2.6-.5-2.6s-1.1-2.5-1.1-6.8v-6.8l10.3.9c16.1 1.4 49.4.4 54-1.6 5.7-2.5 4.6-4.6-3.9-7.2-6.8-2.1-31.8-4.6-44.5-4.5-13.9.2-16.1-.4-15.3-3.9 1.9-8.3 3.7-13.1 4.6-12.5.6.4.8.1.6-.7-.3-.8.1-2.1.9-3 .7-.9 1.6-2.6 1.8-3.9.4-2.1 2-4.4 8.6-12.2l3.1-3.6-1.8-6.9c-2.7-9.7-2.7-48 0-66.8 2.9-20.9 9.2-39.1 16.2-47.4 4.4-5.3 9.1-6.3 14.7-3.5M576.5 398c59.4 2.7 77.8 5 188.5 23.1 33.6 5.5 51.9 10.3 66.2 17.5 18.7 9.4 30.6 26.7 35.2 51.4 1.8 9.4 2.1 16 .6 16-.5 0-1 2-1 4.4 0 5.9-1.5 9.6-3.9 9.6s-4.7 2.5-3.1 3.5c.8.5.8 1.2-.2 2.3-2 2.5-4.8 7.9-4.8 9.1 0 .7-.7 2.8-1.6 4.9-2.5 5.6-2.7 7.5-.7 8.6 1.4.8.3 1.2-5.2 2.1-3.9.7-8.6 1.6-10.5 2-2 .4-3.1.4-2.7-.1.5-.5 1.4-.9 2-.9.7 0 1.9-2.5 2.7-5.5s2.1-6.5 2.8-7.7c.6-1.2.9-2.4.5-2.6-1.9-1.1-7.6.3-10.8 2.7-1.9 1.5-3.5 2.4-3.5 2 0-.3-.7-.1-1.5.6s-1.5.9-1.5.5c0-.3-1.2.3-2.6 1.4-1.5 1.2-3.6 2.1-4.7 2.1s-2.8.6-3.6 1.4c-2.7 2.3-13.4 7.4-16.6 7.9-3.1.5-11.5 4.7-16.5 8.3-5.2 3.7-11 6.3-12.7 5.7-1.2-.4-6.8 5.9-6.8 7.7 0 2.8-2.4.8-6.9-6-19-28-38.4-45.2-67.5-59.9-17.9-9-36.4-15.5-56.1-19.6-15.9-3.3-30.3-4.8-72.5-7.5-14.7-1-26.6-2.9-30.1-4.8-1.2-.6-.5-2.7 3.4-10.3 2.6-5.1 5.8-12 7.1-15.3l2.4-5.8 5.1.7c18.4 2.4 21.6 2.5 24.6 1 6-3.1 2.9-6.5-8.5-9.3-4.4-1.1-10.3-2.3-13.1-2.7l-5-.6 1.3-7.2c.7-4 1.2-8.3 1.3-9.7 0-2.5.5-2.7 12.5-5.3 14.8-3.3 17.9-4.3 16.9-5.8-.7-1.2-12.4-.6-23.9 1.1-3.3.5-6.2.6-6.6.2s-.9-3.4-1.2-6.7l-.5-6 5.2.2c2.8.1 15.5.7 28.1 1.3m-360 42.7c.9 6.3 4.2 18.4 6.6 24 2.3 5.3 2.3 5.9.5 4.4-1.2-1-1.2 0 .1 6.1.8 4.4 1.2 9.7.8 13.3-.6 6.5-6 23.4-7.9 25-.7.5-1.9 2.1-2.6 3.4-1.1 2.2-1.4 2.3-2.4.9s-1.5-.7-3.3 4c-1.2 3.2-2.6 7.5-3.3 9.7-.6 2.2-1.4 4.7-1.7 5.5s-.8 2.6-1 3.9-1.1 4-1.9 6c-.9 2-1.9 5.4-2.4 7.6s-1.8 7.6-2.9 11.9c-1.1 4.4-2.1 9.9-2.3 12.3-.3 7.1-1.2 7.6-9.3 6.3-3.9-.7-7.7-1.4-8.5-1.7-1.6-.6-4.6-.8-16-1.1-7.4-.2-7.6-.3-7.5-2.7.1-1.4.5-2.8.8-3.2.4-.3.7-1.1.7-1.6 0-.6-.3-.8-.6-.4-.3.3-1.8.1-3.3-.5-1.4-.5-8.3-1.1-15.2-1.2l-12.6-.2-2.9-3.3c-2.3-2.6-3.9-3.4-7.3-3.7-4.3-.4-4.3-.4-3.7 2.6.3 1.7.1 4.1-.4 5.4-.7 2-1.7 2.5-5.5 2.8-5.4.4-6-.2-11.3-10.8-8.3-16.6-11-47.8-5.8-68.4 6.5-25.8 20.6-41.2 46.1-50.3 11.6-4.1 34.9-8.3 56-10 2.2-.2 9.7-.4 16.7-.5l12.7-.2zm651.5 83c0 1.9-.3 2.4-1 1.7-.6-.6-.8-1.8-.4-2.7.9-2.4 1.4-2.1 1.4 1m-1 9.5c0 1.6-.3 1.9-1.1 1.1-.6-.6-.8-1.6-.5-2.2 1.1-1.7 1.6-1.3 1.6 1.1M830.5 553c.3.5-.3 1-1.5 1s-1.8-.5-1.5-1c.3-.6 1-1 1.5-1s1.2.4 1.5 1m-5.1.9c.3.5-.3 1.1-1.5 1.4-1.6.4-1.8.3-.8-.9 1.3-1.6 1.6-1.7 2.3-.5m-18.5 8.2c-.8.5-2.1.9-2.9.9-1.2-.1-1.1-.4.4-1.5 1-.8 2.3-1.2 2.9-.8.5.3.3.9-.4 1.4m-5.9 2.4c0 .8-6.1 3.7-6.7 3.2-.3-.3.8-1.2 2.4-2.1 2.9-1.6 4.3-1.9 4.3-1.1m95.5 4c16.2 3.4 28.5 13 35.5 27.6 4.3 9.1 7 18.3 7 23.8 0 7.2-2.3.9-3-7.9 0-1.1-.6-.8-2.1.9-1.8 2.2-1.8 2.6-.4 3.3 1.3.8 1.2 1.3-1.2 3.8-1.4 1.6-2.8 3.7-2.9 4.7-.2 1-1.2 2.5-2.3 3.4s-1.8 1.9-1.5 2.2-.5 1.3-1.9 2.1c-2.2 1.5-5.2 6.2-4.9 7.8.1.3-2.9 3.1-6.6 6.1-3.7 3.1-8 6.9-9.6 8.6-1.7 1.7-3.3 3.1-3.7 3.1-.8 0-10.3 6.3-15.1 10.1-2.5 1.8-2.9 1.9-3.4.5-.5-1.3-.9-1.4-2-.5-.8.6-1.4.8-1.4.5 0-.4-.6-.4-1.2.1-2.4 1.4-5.1 1.3-7-.3-1-1-1.8-1.3-1.8-.9s-.9 0-1.9-.9c-1.8-1.6-2-3-1.7-14.2.2-6.9 0-12.7-.4-12.9-.4-.3-1.1-2.2-1.5-4.2-1.2-6.3-5.4-13.8-10.9-19.1-5.5-5.4-16.4-12.4-17.8-11.6-.5.3 1.5 3.2 4.5 6.3 6.3 6.6 9.2 12.4 11.4 22.5 2.1 9.9 1.1 21.7-3.7 45.9-2.2 10.9-4 20.1-4 20.3 0 .3-.5.2-1.1-.2-.8-.4-.9.3-.4 2.5.4 1.9.3 3.1-.4 3.1-.6 0-.8 1.2-.4 3.2.4 2.3.3 2.9-.6 2.4-.9-.6-1.1.6-.5 5.2.3 3.3.3 6.5-.1 7.2-.4.6-.7 6.4-.6 12.7.2 8.2-.2 12.1-1.1 13.6-.8 1.2-1.5 4-1.7 6.2-.5 8.2-5 20-7.9 20.7-1.3.4-2.1 1.7-2.5 3.9-.3 1.9-1.1 5.9-1.7 8.9s-1.3 7.8-1.4 10.6c-.2 2.8-.8 5.9-1.3 6.9-.6 1-.8 2.5-.6 3.5.2.9-.3 2.2-1.1 2.9-.9.8-1.6 2-1.6 2.7 0 .8-1.6 2.2-3.5 3.1-3.1 1.5-3.6 1.5-5.2.1-1.8-1.5-11.8-1.7-15.3-.2-3.8 1.6-8 1.2-9.5-.9-.8-1.2-1.6-1.8-1.6-1.4-.1.4-.3 1.1-.4 1.7-.1.5-.3 1.3-.4 1.7 0 .3-.3.4-.6.2-.2-.3 1.5-9.1 3.9-19.7 2.3-10.6 4.5-18.9 4.9-18.6.3.4.5-9.4.3-21.7-.4-23.9-1.3-31-6.5-49.9-4.5-16.3-5.9-23.4-7.7-39-1.9-16.7-1.4-35 1.1-44.5 7.5-27.3 27.9-45.8 59.5-54 18-4.7 48.7-6.7 61.5-4m-111 5.5c-.3.5-1.1 1-1.6 1-.6 0-.7-.5-.4-1 .3-.6 1.1-1 1.6-1 .6 0 .7.4.4 1M629 576.4c2 3.8.6 6.7-6.9 15-6.1 6.7-11.6 13.7-17.6 22.3-2.3 3.3-4.1 2.8-5.9-1.7s-1.5-6.9 1.6-14.5c3-7.4 7.3-13 12.5-16.7 10.5-7.4 14.1-8.4 16.3-4.4m-403.3 7.8c-.2 1.8-.4.4-.4-3.2s.2-5 .4-3.3c.2 1.8.2 4.8 0 6.5m552.3-3.9c0 .2-1.8 2.1-4 4.2s-4 3.5-4 3.1c0-.5 1.7-2.4 3.7-4.2 3.5-3.2 4.3-3.8 4.3-3.1m-671.8 7.1 2.1 3.1-3.6-3.4c-2.1-1.9-3.7-3.9-3.7-4.4 0-1.4 2.8 1.1 5.2 4.7m79.5 15.5c5.6 1.1 11.5 2.7 13.2 3.5 1.6.9 3.7 1.6 4.6 1.6s1.3.5 1 1c-.4.6-1 .8-1.5.5s-.7.9-.4 2.7.1 5.3-.3 7.8c-.9 4.5-.9 4.5-5 4.5-2.3 0-3.9.3-3.6.7.2.5-.2.8-1 .8s-5.2 1.9-9.8 4.2c-10 4.9-19.8 14.2-24.6 23.3-3.5 6.8-7.3 18.3-7.3 22.4 0 1.5-.3 3.1-.7 3.5s-.6 2.5-.4 4.8c.1 2.2-.1 3.8-.6 3.5-.4-.3-.7 11.9-.5 27 .2 19.4 0 27.3-.7 26.8-.6-.3-1.2-3.4-1.2-6.8-.1-3.4-.4-4.9-.6-3.2-.2 1.6-1 4.4-1.8 6.1-1.2 2.6-1.9 3-4.5 2.6-1.7-.2-3.3-.8-3.6-1.3s-1.6-.9-3-.9-2.7-.7-3-1.5q-.6-1.5-1.8-.6c-3.2 2.6-16.6-2-16.6-5.7 0-1.5-.2-1.5-1-.2-.5.8-1 2.5-1 3.6 0 2.4-2.3 4.8-3.4 3.7-.4-.4-1.5-.8-2.4-.8-1.6 0-1.7-4-2-50-.3-52.9.1-59.8 4.1-66.9 4.2-7.5 17.7-14.6 33.7-17.7 11.8-2.3 30.5-1.9 45.7 1m25.3 20.2c0 .5-.4.9-1 .9-.5 0-1-.7-1-1.6 0-.8.5-1.2 1-.9.6.3 1 1 1 1.6m-3.7.6c-.7.2-2.1.2-3 0-1-.3-.4-.5 1.2-.5 1.7 0 2.4.2 1.8.5m731.1 2.4c-.3.5-1 .7-1.5.3-.5-.3-.7-1-.3-1.5.3-.5 1-.7 1.5-.3.5.3.7 1 .3 1.5m.6 9.5c0 2.1-.4 3.3-1 2.9-1.7-1-1.1-6.5.7-6.5.2 0 .3 1.6.3 3.6m-715.5 5.5c2.2.6 6.5 2.6 9.5 4.3 15.1 8.8 52.8 18.1 83.8 20.6 10.2.8 10.3.8 14.7 4.9 6.8 6.3 33.4 18.6 61 28.4 11.7 4.1 18.7 5.7 25.4 5.7 2.6 0 5 .3 5.3.6 1.5 1.4 47.5 2.5 54.3 1.3 4.5-.8 6.1 0 6.8 3.7.3 1.7-.5 3.7-3 6.9-1.8 2.5-4.7 7.5-6.4 11.1-2.6 5.8-2.7 6.8-1.4 7.8.8.6 1.7 2.2 2 3.5.2 1.2.8 2.8 1.3 3.5.5.6.8 1.8.7 2.7q-.3 1.65 1.8 1.5c1.4-.1 2.6.8 3.3 2.4 1.4 3.1 2.8 11.7 1.7 10.6-.4-.4-.8-1.1-.9-1.4 0-.4-.3-1.4-.7-2.2-.3-.8-.8-2.2-1-3-.3-.9-.6-.6-.6.8-.1 1.2-.8 2.5-1.6 2.8-.8.4-1.5 1.3-1.5 2.1s-1.1 2.9-2.5 4.5-2.3 3.4-2 3.8c.8 1.3-7.3 6.2-8.8 5.4-.7-.4-.4.2.6 1.3 1.5 1.8 1.6 2.2.3 3.2-1.2 1-4.4.9-15.5-.5-7.7-1-13.7-2.2-13.5-2.6.3-.5-1.4-.5-3.7-.2-3.2.5-4 .4-3.5-.5.6-.9-.1-1.1-2.9-.5-2.8.5-3.6.4-3.1-.5.6-.8-.4-1-3.5-.5-3.3.6-4 .4-3.4-.6s.2-1.1-1.9-.6c-1.5.4-3.2.3-3.9-.1s-2.5-.6-4.1-.4c-1.9.2-2.6-.1-2.1-.8.4-.8-.6-.9-3.6-.5-3.1.5-4 .4-3.5-.5.6-.8-.3-1-3.3-.5-2.6.4-4.1.3-4.1-.4s-1.4-.9-3.7-.5c-2.7.5-3.4.3-2.9-.6.6-.9-.1-1.1-2.8-.6-2.3.5-3.6.3-3.6-.3 0-.7-1.4-.9-3.5-.5-1.9.3-3.5.2-3.5-.3s-2.8-1-6.1-1.1c-3.4-.2-6.7-.7-7.4-1.3-.6-.5-1.4-.8-1.7-.5-.6.6-14.8-1.6-57.8-9.1-17.3-3.1-38-6.6-46-8-8-1.3-15.2-2.7-16-3.1-.8-.3-2.1-.5-2.9-.4-.7.1-2-.1-3-.4-.9-.4-3.7-.8-6.4-1-2.6-.2-5.2-.7-5.8-1.1-.6-.3-3.2-.8-5.7-1-2.6-.2-4.8-.8-5-1.3-.2-.6-1.7-.8-3.3-.4-1.6.3-2.9.1-2.9-.3 0-.5-1.7-1-3.8-1-11.3-.3-21.3-7.4-25.1-17.9-1.2-3.2-2-6.7-1.8-7.7.3-1 .1-1.6-.4-1.2-.5.3-.9-.4-.9-1.5s.5-2.3 1-2.6c.6-.4.8-1.1.4-1.6-.3-.5-.9-.7-1.4-.4s-.7-5.2-.6-12.2c.3-10.8.7-14 2.9-20.1 3.2-9.1 5.4-12.6 10.9-17.8 5.4-5.2 12.2-9 19-10.8 6.4-1.8 17.8-2 23.3-.5M864 668.5c0 .8-.4 1.7-1 2-.6.4-1-.5-1-2s.4-2.4 1-2c.6.3 1 1.2 1 2m-369.7 4.1c.4.1.9.3 1.2.4.5.2 1.9.6 3.2.9.3 0 .4.4.1.7-.9.9-8.8-1.8-8.2-2.8.3-.4 1.1-.5 1.7-.1.7.4 1.5.8 2 .9m368.7 1.9c0 .8-.4 1.7-1 2-.6.4-1-.5-1-2s.4-2.4 1-2c.6.3 1 1.2 1 2m-1.5 4.4c.3.5.1 1.2-.5 1.6-.5.3-1-.1-1-.9 0-1.8.6-2.1 1.5-.7m-378.2 9.8c-.7.2-1.9.2-2.5 0-.7-.3-.2-.5 1.2-.5s1.9.2 1.3.5m281.3 30.1c.9 4 1.3 8 1 8.8-.4 1-.2 1.2.6.8.8-.5.9.3.5 3-.3 2-.2 3.4.3 3.1 2.7-1.7 2.4 34.6-.4 50.3-6.2 34.7-22.9 64.4-46.6 83.1-12.1 9.6-17.8 13.3-18.5 12.1-.4-.6-1-.8-1.5-.5s-1.1.2-1.4-.3 2.2-2.8 5.4-5.1c3.3-2.4 5.7-4.8 5.4-5.2-.3-.5-1-.7-1.5-.4s-.6 0-.3-.8 2.7-2.8 5.3-4.6c5.1-3.2 7.7-5.8 6.9-6.6-.3-.3-1.7.4-3.2 1.6-1.8 1.4-3 1.8-3.9 1.1-.7-.5-2.1-.6-3.2-.2s-2.7.4-3.7-.1c-2.2-1.2-9.5 1.8-8 3.3 1.9 1.9-1.9 5.8-8.7 9-3.6 1.7-7.5 3.1-8.6 3.3-1.8.2-12.6 4.9-18.5 8-3.3 1.7-16.2 5.2-22.5 6-2.7.4-6.9 1.5-9.2 2.6-2.4 1-4.7 1.9-5.3 1.9-1.5 0-1.2 2.6.6 4.1 1.1.9 2.1 1 3.2.3 3-1.8 6.7-1.1 6.7 1.1 0 1.9-.6 2-14 1.9-21.2-.1-36-4.6-46.6-14.2-8.4-7.5-14.1-22.8-12.5-33.5.8-5.4 5.3-11.5 10.6-14.5 6.2-3.6 15.9-4.7 27.4-3.1 5.6.8 17.1 1.4 25.6 1.3 18.5-.1 25.6-1.7 41.8-9.4 15-7.2 25.5-14.5 35.4-24.8 7.1-7.3 9.6-10.9 13.8-19.1 5.7-11.5 9.5-25.4 10.5-38.3 1.1-16.1 1.3-16.5 4.6-17.7 8.1-2.8 24.4-17.8 26.5-24.3.6-2 .9-1.6 2.6 3.2 1 3 2.6 8.8 3.4 12.8m-280.9 25.9c-.4 1.7-.4 1.7-1.2 0-.4-.9-.4-2.5 0-3.5.8-1.6.8-1.6 1.2 0 .3 1 .3 2.6 0 3.5m-334.7.5c0 1.6-.3 1.9-1.1 1.1-.6-.6-.8-1.6-.5-2.2 1.1-1.7 1.6-1.3 1.6 1.1m-45.3 9c-.2 1.3-.4.5-.4-1.7-.1-2.2.1-3.2.4-2.3.2 1 .2 2.8 0 4M471.5 779c.4.6-.7 1-2.5 1s-2.9-.4-2.5-1c.3-.6 1.5-1 2.5-1s2.2.4 2.5 1m5 1c.3.5-.3 1-1.5 1s-1.8-.5-1.5-1c.3-.6 1-1 1.5-1s1.2.4 1.5 1m118.2 13.6c-.3.3-1.2.4-1.9.1-.8-.3-.5-.6.6-.6 1.1-.1 1.7.2 1.3.5m14.6 1.1c-.7.2-2.1.2-3 0-1-.3-.4-.5 1.2-.5 1.7 0 2.4.2 1.8.5m13.5 1c-1 .2-2.6.2-3.5 0-1-.3-.2-.5 1.7-.5s2.7.2 1.8.5m156.5 27.6c-.4.7-.6 1.9-.5 2.9.2.9-.2 1.9-.8 2.3-1.1.7-1.3-1.8-.4-5.2.4-1.3 1-2 1.5-1.7s.6 1.1.2 1.7m-1.4 12.5c0 2.6-.4 6.5-.8 8.7-.7 3.3-.9 2.3-1-5.3-.1-6 .3-9.1.9-8.7.6.3 1 2.7.9 5.3M699 882c0 .4-.6 1-1.4 1.3-1.2.5-1.4-.2-.7-3.1.2-.7 2.1 1 2.1 1.8m-4.5 3c-.3.5-1.2 1-1.8 1-.7 0-.6-.4.3-1 1.9-1.2 2.3-1.2 1.5 0m-4 2c-.3.5-1.2 1-1.8 1-.7 0-.6-.4.3-1 1.9-1.2 2.3-1.2 1.5 0m-49 13c.3.5-.3 1-1.5 1s-1.8-.5-1.5-1c.3-.6 1-1 1.5-1s1.2.4 1.5 1"/><path d="M282.9 268.7c-1.5 4-4.9 18.7-6 25.8-2.2 14.5-2.9 23-2.9 37.2-.1 13.3.2 15.9 1.9 19.9 1.8 3.9 2.3 4.5 3.6 3.4 2-1.7 3.2-6.5 5.5-22.7 1.7-12 6.2-35.4 7.5-39 .2-.8 4.1 2.4 9.3 7.5 9.3 9.1 19.1 15.8 21.7 14.8.8-.3 1.5-1 1.5-1.5 0-2.8-37.4-48.1-39.8-48.1-.7 0-1.7 1.2-2.3 2.7M489 382.8c-6.8 8.1-15.6 11.1-23.3 7.8-1.8-.7-5.4-3.2-8-5.5-2.7-2.2-5.4-4.1-6.1-4.1-4.1 0-4.9 7.8-1.3 13.1 5 7.4 15.7 12.9 25.4 12.9 7.4 0 18-6.4 21.2-12.8 2.9-5.8 3.5-10.9 1.6-13.8-2.3-3.6-4.9-2.9-9.5 2.4m-162.3 0c-3.6 4-1.4 9.6 6.3 16.5 11.6 10.4 25 14 36.4 9.7 9.3-3.5 18-12.9 16.2-17.5-.8-2.1-3-1.9-10.1 1-8.1 3.2-18.4 4.1-24.7 2.2-3.9-1.2-11.8-6-20.7-12.5-1.5-1-2-.9-3.4.6m85.8 24.5c-1.4 1.1-2 2.7-2 5.7 0 5.5 3.7 9 9.6 9 3.3 0 4.1.4 4.9 2.5 2 5.3-1.4 13.5-7.3 17.9-6.9 5.1-23.5 2.2-30.9-5.5-6.3-6.5-9-4.7-6.9 4.7 1.6 6.8 4.6 10.5 11.3 13.5 4.4 1.9 7.1 2.3 16.3 2.3 10.8.1 11.2 0 19.3-3.8 8.2-3.9 8.2-3.9 13.7-2.6 6.3 1.5 17.3.9 22.5-1.4 8.8-3.7 16.3-17.9 11.8-22.4-2-2-3.9-1.4-8.8 3.2-5.9 5.5-11.7 8.5-17.9 9.3-4 .5-5.1.2-7.8-2.1s-7.3-11.1-6.2-11.9c.2-.2 2.3-1.5 4.7-3 4-2.6 4.2-3 4.2-7.6 0-7.6-1.6-8.5-16.4-8.9-9.4-.3-12.5 0-14.1 1.1M266 450.2c-5.7 2.9-6.1 5.8-1 7.1 7.8 2.1 34.5-1.1 36.5-4.3 1.4-2.3-7-4.3-19-4.7-11-.4-12.4-.3-16.5 1.9m382.6 69.7c-.4.5-.2 1.2.3 1.5.5.4 1.2.2 1.5-.3.4-.5.2-1.2-.3-1.5-.5-.4-1.2-.2-1.5.3M789 548c0 .5.4 1 .9 1 .6 0 1.3-.5 1.6-1 .3-.6-.1-1-.9-1-.9 0-1.6.4-1.6 1m38.3 206.5c-.8 3.4-.7 4.7.2 5.5 1 .8 1.4 0 1.7-3.7.6-6.4-.6-7.5-1.9-1.8m-.1 9.5c0 1.4.2 1.9.5 1.2.2-.6.2-1.8 0-2.5-.3-.6-.5-.1-.5 1.3m-1.5 3.7c-.4.3-.7 1.8-.6 3.2.1 2.6.1 2.5 1-.3.9-3.1.7-4.1-.4-2.9M782.2 812c-.6 1-.8 2.1-.3 2.4s1.1-.4 1.4-1.6c.8-2.9.4-3.2-1.1-.8m-636-96c0 1.9.2 2.7.5 1.7.2-.9.2-2.5 0-3.5-.3-.9-.5-.1-.5 1.8m58.3 16c-.3.6.2 1 1.2 1s3.5.3 5.6.6c2.5.5 3.7.3 3.7-.5 0-.7-1-1.2-2.2-1.1-1.3.1-2.5.1-2.8 0-2.2-.8-5-.8-5.5 0m174 27.9c-1.1.5-3 .7-4.2.4-1.3-.3-3.1-.2-4 .2-1.4.5-.7 1 2.7 2.1 3 .9 4.8 1 5.6.3.9-.7 1.5-.6 2.1.3.4.7 2.2 1.4 3.8 1.4 7.4.3 21.9 1.6 22.6 1.9.4.3 1.2-.1 1.8-.9.9-1.1.1-1.5-4.6-2.1-3.2-.4-8-1.5-10.8-2.4-5.7-1.9-12.1-2.4-15-1.2M531 255.7c0 .4.5 1.5 1 2.3.8 1.3 1 1.3 1-.2 0-.9-.4-2-1-2.3-.5-.3-1-.3-1 .2m2.1 8.4c.6 2.4 1.3 4.6 1.6 4.9 1 .9-.6-7.3-1.6-8.3-.6-.6-.6.7 0 3.4m25.4 14c-1 1.5.3 2.5 1.6 1.2.7-.7.7-1.3.1-1.7-.6-.3-1.4-.1-1.7.5m-425.2-20.9c-.5.7-1.7 3.4-2.7 5.9-2.1 5.8-7.2 11.2-13.7 14.4-2.7 1.4-4.9 2.7-4.9 3 0 .2 2.2 1.4 4.9 2.5 6 2.6 11.3 8 14.1 14.2 2.4 5.5 3.8 6.7 4.6 4.1 3.2-9.3 8.2-15.4 15.1-18.5 2.4-1 4.3-2.1 4.3-2.3s-2.5-2-5.5-3.9c-6-3.9-10.7-9.7-12.6-15.4-1.4-4.7-2.3-5.6-3.6-4"/></g></svg>