<svg xmlns="http://www.w3.org/2000/svg" width="1365.333" height="1365.333" preserveAspectRatio="xMidYMid meet" version="1.0" viewBox="0 0 1024 1024"><g fill="#000" stroke="none"><path d="M398.5 55c-27 3.2-45.2 14.3-55.3 33.7-8.3 16-9.2 25.8-9 94.8l.2 51 .7-58.5c.7-67.7 1-70.7 9.1-86.3 8.8-17 23.7-27.5 46.1-32.4 10-2.2 35.1-2.2 121.2.1 84.1 2.3 126.7 3.3 314.5 7.1 39.9.9 76.6 2 81.5 2.6 31.6 3.8 56.5 21.6 67.2 47.9 6 15.1 5.7.7 6 229 .4 219 .2 235.3-3.7 241.5-2 3.2-2 3.4-.3 10.1 2.6 10.1 2.6 51.4 0 63.1-3.3 15.4-11.5 31-21 40.2-4.6 4.4-4.5 3.4-5.7 64.6-1.2 59.2-2.1 66.1-10.7 82.5-3.6 7-6.4 10.4-13.2 16.2-3.1 2.6-5.2 5.8-7.5 11-7.6 17.4-18.5 27.3-38.1 34.4-4 1.5-8.1 1.8-21 1.9-14.5 0-16.3.2-19.6 2.1-3.5 2.1-16.9 8.3-21.9 10.2-1.9.7-3.3 2.9-5.8 9-8.5 20.8-20.9 31.6-42.6 37.2-9.9 2.5-31.4 2.8-42.1.5-16.7-3.6-30.9-14.1-37.4-27.8-2.9-6-3.6-6.8-5.4-6.3-11.8 3.3-21.2 4.1-49.7 4.1-24.3 0-31.1-.3-38.5-1.8-22.6-4.4-37-11.4-50.5-24.2l-6.5-6.2-26.5-3.2c-38.1-4.6-109.2-13.7-148.5-19.1-36.1-4.9-80.2-11.6-113.9-17.2l-24.9-4.1-1.9 2.4c-10.8 13.6-21.1 21.3-34.3 25.6-6.7 2.1-10.4 2.7-22.5 3-17 .6-23.9-.7-35.8-6.4-15-7.2-24.1-19.7-28.5-38.8l-2.2-9.7-5.3-3.6c-7.2-4.7-16.9-14.7-21.1-21.6-4.1-6.9-8.6-19.8-10.1-29-3.9-25-3.9-145.2.1-172.6l1.1-7.6-3.7-5.3C53 586.3 46.8 568.2 43.9 547c-2-14.1-1.7-44.2.5-56.5 8.4-46.8 41.4-77.6 94.6-88.2 12.9-2.5 38.4-5.2 50.1-5.3 7.5 0 8.2-.5 9.9-7 1.9-7.7 6.1-18.2 10.1-25.8l3.9-7.4v-18.6c0-16.4 1.8-42.5 3.6-53.1 1.5-8.7 6.6-27.6 9-33.3 4.4-10.5 10.5-19.9 18.1-27.9 11.9-12.4 21.8-16.5 38.7-15.7 9.3.4 10.8.8 19 4.6 9.7 4.6 18.3 10.1 26.4 16.9 2.8 2.5 5.2 4 5.2 3.5 0-2.8-18.4-15.6-30.6-21.4-8.4-3.9-9.5-4.2-20-4.6-18.1-.7-27.6 3.1-39.7 15.7-7.6 8-13.7 17.4-18.1 27.9-2.4 5.7-7.5 24.6-9 33.3-1.8 10.6-3.6 36.7-3.6 53.1v18.6l-3.9 7.4c-4 7.6-8.2 18.1-10.1 25.8-1.7 6.5-2.4 7-9.9 7-11.7.1-37.2 2.8-50.1 5.3-53.2 10.6-86.2 41.4-94.6 88.2-2.2 12.4-2.5 44.3-.5 58.5 2.9 21.1 9.1 39.3 17.6 51.9 3.5 5.2 3.5 5.4 2.5 11.5-3.9 24.6-3.9 149.4 0 174.2 1.5 9.2 6 22.1 10.1 29 4.2 6.9 13.9 16.9 21.1 21.6l5.3 3.6 2.2 9.7c4.4 19.1 13.5 31.6 28.5 38.8 12 5.8 18.7 7 36.8 6.4 13.2-.3 16.7-.8 23.5-3 13.2-4.3 23.1-11.7 34.2-25.5l1.8-2.2 21 3.5c63.5 10.6 161.2 24.2 264.5 36.6l26.5 3.2 6.5 6.2c13.2 12.5 26.7 19.2 48 23.7 18.8 3.9 69.4 3.6 87.4-.6l5.6-1.3 3.2 6.6c6.4 13.5 20.7 24.1 37.3 27.6 10.8 2.3 34.1 2 44.1-.5 21.7-5.6 34.1-16.4 42.6-37.2 2.5-6.1 3.9-8.3 5.8-9 4.9-1.8 18.4-8.1 21.8-10.1 3.1-1.8 5.3-2.1 19.6-2.2 12.9-.1 17.1-.4 21.1-1.9 19.6-7.1 30.5-17 38.1-34.4 2.3-5.2 4.4-8.4 7.5-11 6.8-5.8 9.6-9.2 13.2-16.2 8.6-16.4 9.5-23.3 10.7-82.5 1.2-61.2 1.1-60.2 5.7-64.6 9.5-9.2 17.7-24.8 21-40.2 2.5-11.3 2.6-55 .2-64.4-1.5-5.8-1.5-6.3.3-9.1 3.6-5.8 3.9-24.3 3.5-242.2-.3-229.4 0-214.9-6-230-10.7-26.3-35.6-44.1-67.2-47.9-4.9-.6-41.6-1.7-81.5-2.6-179.4-3.7-222.4-4.6-314.5-7-83.5-2.1-106.2-2.4-114-1.5"/><path d="M401 76.6c-15.1 2.8-23.2 6-29.5 11.6-8.7 7.6-13 17.9-14.5 35.1-1.2 13-1.3 144.4-.1 145.1.4.3 3.9-.1 7.7-.9s13.7-1.8 21.9-2.1l15-.7 12-11.8c22.6-22.2 38-34.7 51-41.2 14.4-7.2 31.7-5.5 44 4.2 5.3 4.3 7.9 4.7 3 .5-5.2-4.2-10.8-7.1-16.5-8.4-3-.7-6.1-1.4-6.7-1.6-1-.3-1.3-5.5-1.3-21.9v-21.6l14.3.3 14.2.3.5 30.5.5 30.5 3.7 5.9c6.2 9.7 10.5 23.2 13.3 41.1 2.3 14.4 3.1 49.2 1.5 60.4l-1.3 9 6.7 10 6.6 9.9 10.7.6c79.3 4.5 115.3 7.3 140.8 11.1 73.5 11.1 82 12.7 109.9 20.6 15.2 4.3 15.8 4.6 32.4 12.5 13.6 6.5 17.3 7.1 5 .8-26.2-13.3-56.3-21.2-113.3-29.6l-9-1.4-.5-6.9-.5-7-11.5-.6c-6.3-.4-15.2-.7-19.7-.8l-8.3-.1v3.9c0 2.2-.4 4.3-1 4.6-.5.3-8.3-.1-17.2-.9-15-1.5-37.2-3-81.3-5.6-9.3-.6-21.2-1.3-26.3-1.6l-9.2-.6-6.5-9.7c-6.5-9.7-7.6-13.4-5.2-16.2 1.3-1.6 7.8-1.5 160.2 3.1 86.8 2.6 158.2 4.1 160.1 3.3 1.2-.4 1.4-2.7 1.2-12.2l-.3-11.6-8-.7c-4.4-.4-28.5-1.2-53.5-1.7-25-.6-88.5-2.2-141-3.6s-100.4-2.6-106.5-2.7l-11-.3-.7-11.5c-1.8-30.7-7.8-55.5-16.5-68.3l-2.8-4.2-.5-30.5-.5-30.5-15.2-.3-15.3-.3-.2 21.8-.3 21.7-7.7 1.3c-14.2 2.4-25 8.6-44.4 25.7-6.5 5.8-12.2 10.6-12.7 10.6-.7 0 .1-70.2.8-72.7.3-.8 2.6-1 7.7-.7 4 .2 14.8.7 24 1l16.8.6.3 18.2.2 18.1.3-18.3c.1-13.9-.1-18.4-1-18.7-2.2-.8-48.3-2.3-48.9-1.6-.4.3-1 17.7-1.3 38.6l-.5 37.9-9.1 9.1-9 9 .5-56.5c.6-64.1.9-71.7 3.1-76.8 1.6-4 5.7-8.7 8.9-10.5 4.3-2.3 11.4-2.6 48-1.7 115.3 2.9 123 3.1 275.5 7.6 30.5.8 58 1.4 61 1.2s-22.6-1.1-57-2.1-84.1-2.4-110.5-3.2-66.9-1.9-90-2.5-58.7-1.5-79.2-2c-44.3-1.1-47.3-.8-53.5 5.7-6 6.3-6 6.2-7 72.8-.5 33.5-.7 62.7-.6 64.7l.4 3.8h-9.1c-4.9 0-10.7.3-12.7.6l-3.8.7v-66.4c.1-77.6.4-83.8 4.6-90.6 3.2-5.1 10.2-10.5 16.2-12.4 6.2-1.9 25.7-2.2 61-1 18.5.6 61.6 1.8 95.7 2.6s69.4 1.7 78.5 2 36.3 1 60.5 1.5c24.2.6 70.8 1.7 103.5 2.6 32.7.8 62.2 1.4 65.5 1.2 5.8-.3-44.7-1.8-129.5-3.8-22.3-.6-66.6-1.7-98.5-2.5S554.9 96.6 531 96s-55.8-1.5-70.9-2c-51.8-1.9-63-1.2-72.6 4.4-5.1 3-9.9 8.9-11.7 14.5-.8 2.6-1.2 24.7-1.5 77.7l-.5 74.1-7.6 1.5c-4.2.9-8 1.4-8.4 1.1-1.2-.6-.9-131 .2-143.9 1.1-12.3 3.4-20.3 7.9-26.7 5.8-8.5 13.9-13.9 26.2-17.4 5.6-1.6 10.2-1.8 36.4-1.7 28.4 0 90.9 1.3 167.5 3.4 19 .5 79.3 1.9 134 3 185.4 3.7 179.1 3.4 194.5 10.5 18.4 8.5 29.2 21.5 32.9 39.8 1.4 6.8 1.6 30.5 1.6 221.2 0 117.4-.3 213.5-.7 213.5-.5 0-1.9-1.6-3.1-3.4-1.3-1.9-4.8-5.8-7.8-8.6l-5.4-5.1-.3-205.2c-.2-191.7-.4-205.6-2-211.6-4.5-16.5-12.4-24.3-26.9-26.7-3.3-.6-3.8-.4-3.8 1.3 0 1 .7 2.8 1.6 3.9 1.6 2 1.6 1.3-.2-3.1-.8-1.9.9-1.9 7.5.1 9.4 2.8 16.8 11.7 20.8 25 1.7 5.5 1.8 18.1 2.1 208.9.1 111.6 0 203.5-.3 204.3-.4 1.1-1.2 1-3.8-.7-6.1-4.1-18.2-9.7-24.7-11.6-3.6-1-6.9-2.2-7.5-2.7-.5-.5-1-10.3-1-23.6-.1-25.8-1.8-37.5-7.5-51.6-6.8-17.1-14.7-27.3-31.5-40.6l-8-6.3-.5-20.1-.5-20.1-20.7-.3-20.8-.2.2 10.7.2 10.8.3-10.3.4-10.2 19.7.2 19.7.3.5 20.1.5 20.1 8 6.3c16.5 13 23.8 22.4 31.5 39.9 5.6 13 7.4 25.2 7.5 52 0 19.7.3 23.5 1.5 24.2.8.4 4.4 1.5 8 2.5 13.9 3.9 31.6 15.8 40.4 27.1 7.8 9.9 7.1 29.3 7.4-208.7.3-234.8.6-222.1-5.7-235.5-4.1-8.7-8.3-13.9-15.4-19.2-7.9-5.8-16.5-9.8-27-12.4-9.6-2.3-22.9-2.7-181.2-5.9-54.4-1.1-115.4-2.5-135.5-3-101.2-2.7-189.5-4.3-194-3.4m255 234.9c50.9 1.3 113.7 2.9 139.5 3.5 25.9.6 50.2 1.4 54 1.8l7 .7.3 10.4c.1 5.7-.1 10.8-.5 11.2-1 1-69.2-.4-157.8-3.1-35.2-1.1-85.7-2.5-112.3-3.2-26.5-.6-48.6-1.5-49-1.8s-.6-5.3-.4-11.3l.3-10.7h13.2c7.3 0 54.8 1.1 105.7 2.5m65.3 51.2c.4.2.7 3.2.7 6.5v6.1l-3.7-.7c-2.1-.3-9.6-1.5-16.8-2.6-18.8-2.9-17.5-2.4-17.5-7.1v-4.1l18.3.7c10 .4 18.5.9 19 1.2M197.6 105.2c-.8 1.3-2.6 8.1-4.1 15.2-4.7 23.4-11.6 31.7-33 39.7-6.9 2.6-8.5 4.8-8.5 12 0 6.8 1.7 8.7 10.3 11.5 8.7 2.8 14 6 18.9 11.2 7.1 7.6 10.2 14.8 13.4 31.4.9 4.8 2.5 10.1 3.5 11.7 1.8 3 2.1 3.1 8.9 3.1 8.5 0 8.4.1 11-15.3 2.3-13.4 4.8-21.1 8.9-27.1 5.2-7.5 12.1-12.2 22.5-15.3 2.8-.8 6.4-2.2 7.9-3 2.7-1.4 2.8-1.6 2.5-9.1l-.3-7.6-5-2c-17.8-7-20.1-8.2-24.1-12.2-7.2-7.1-10.7-15.9-13.5-33.7-1.7-11-3.3-12.7-11.4-12.7-5.6 0-6.7.3-7.9 2.2m15.2 1.3c1.1 1.4 2.4 5.6 3.1 10.2 2.8 17.8 6.3 26.6 13.5 33.7 4 4 6.3 5.2 24.1 12.2l5 2 .3 6.6c.3 6.5.2 6.8-2.5 8.1-1.5.8-5.1 2.2-7.9 3-10.4 3.1-17.3 7.8-22.5 15.3-4.1 6-6.6 13.7-8.9 27.1-2.5 15.1-2.7 15.3-10 15.3-5.6 0-6.1-.2-7.9-3.1-1-1.6-2.6-6.9-3.5-11.7-3.2-16.6-6.3-23.8-13.4-31.4-4.9-5.2-10.2-8.4-18.9-11.2-8.2-2.7-10.3-4.9-10.3-10.5 0-6.1 1.8-8.5 8.5-11 21.4-8 28.3-16.3 33-39.7 3.3-16.5 3.9-17.4 11-17.4 4.5 0 5.7.4 7.3 2.5m78.3 33.7c-1.7 6.9-4.5 10.4-10 13-5 2.3-5.1 2.3-5.1 6.9 0 4.5.1 4.6 4.2 5.8 5.3 1.6 9.3 5.7 10.8 10.9l1.1 4.2h5c3.9 0 5.1-.4 5.5-1.8 2.1-6.7 4.5-10.1 8.6-12.1 2.5-1.1 5.2-2.1 6.1-2.1 1.4 0 1.7-1 1.7-5 0-4.6-.2-5-2.7-5.6-7.2-1.7-13.3-8.9-13.3-15.7 0-2.6-.2-2.7-5.4-2.7h-5.4zm10.9-.5c0 6.8 6.1 14 13.3 15.7 2.4.6 2.7 1.1 2.7 4.6 0 3.1-.4 4-1.7 4-.9 0-3.6 1-6.1 2.1-4.1 2-6.5 5.4-8.6 12.1-.4 1.3-1.6 1.8-4.5 1.8-3.9 0-4.1-.2-5.1-4.2-1.5-5.2-5.5-9.3-10.8-10.9-3.9-1.1-4.2-1.5-4.2-4.8 0-3.4.3-3.8 5.1-5.9 5.5-2.6 8.3-6.1 10-13 1.1-4.1 1.2-4.2 5.5-4.2 4.1 0 4.4.2 4.4 2.7"/><path d="M478.5 223.4c-2.7.7-6.9 2.2-9.2 3.4-10 5.2-34.4 26.1-50.6 43.3l-10 10.7-18.6.5c-15.4.4-20.2.9-28.3 2.9l-9.7 2.5-3.8-5.6c-9.4-13.8-39.9-41.8-52.7-48.3-5.2-2.7-12.4-4.8-16.3-4.8-6.3 0-14.5 4-20.3 10-17.6 18-25 48.8-25 103.7v22.1l-5 8.4c-5.4 9.1-10.5 23.4-12.2 34.3-.6 3.8-1.2 7.5-1.3 8-.2.7-8.3 1.6-20.6 2.3-31.6 1.8-57.1 6.2-74 12.5-30.5 11.5-48.5 31.8-55.5 62.6-2.1 9.2-2.9 37.4-1.5 48.6 3.1 23.6 11.2 43.6 22.3 55.1l4 4.1-2.5 8c-4.7 14.8-5.2 23.6-5.2 93.8 0 47.3.4 67.4 1.3 73.6 3.2 22.2 12.6 37.1 27.2 43.6 3 1.3 6.2 2.8 7 3.2 1 .5 1.7 3.2 2.2 8.1 3.1 30 16.7 43.5 43.8 43.4 14.9-.1 26.2-3.9 34.7-11.7 5.1-4.7 7-7.8 9.8-16.2 1.2-3.3 2.6-5.9 3.2-5.8 15.5 3.1 95.1 15.4 137.8 21.3 11.6 1.6 27.3 3.8 35 4.9 7.7 1.2 24.8 3.4 38 5.1s34.4 4.4 47 6.1c12.7 1.6 36.2 4.5 52.3 6.5l29.2 3.5 8.3 8.3c14.8 14.9 28.5 20.7 56.6 23.7 17.7 1.9 46.2-.4 64.6-5.2 8.2-2.1 23-7.1 24.2-8.1 1-.8 1.3.6 1.3 7 0 13.4 5.3 25.1 14 30.8 5.7 3.8 16.8 6.4 26.9 6.4 27.3-.1 43.8-12.1 47.4-34.5 1.3-8.4 2.2-9.4 9.7-11 4.2-.9 28.6-12.4 33.1-15.6 3.1-2.2 3.2-2.2 10.3-.5 11.9 2.8 22.7 1.6 33.6-3.6 9.3-4.5 19.7-18.2 21.6-28.6.4-2.1 1.5-3.7 3.3-4.7 3.4-1.8 13.2-12 15.9-16.5 2.5-4.3 4.9-12.3 6.3-21 .6-3.6 1.4-32.5 1.8-64.3l.8-57.8 7-6.4c9.1-8.3 12.5-13.5 16.2-24.8 4-12.3 5.1-19 5.1-31.8 0-18.1-4.8-36.7-12.3-48.1-4.7-7-15.5-17.2-23.1-21.7-6.9-4.1-17.2-7.6-28.6-9.7-11.9-2.2-11.3-1.9-10.6-5.7 1.1-4.9 2.5-25.2 2.6-34.9 0-17.3-3.8-37.8-9.3-49.8-7.2-15.6-22.1-29.7-42.3-39.8-34.4-17.3-143.9-35-251.7-40.7-15.8-.8-33-1.5-38.3-1.5-8.1 0-9.5-.2-10-1.8-1.2-4.1-7.3-15.3-12.6-23.2l-5.7-8.5 1.1-7c.6-3.9 1.2-17.8 1.2-31 0-20.6-.3-25.6-2.2-35.6-2.4-12.7-7-27-10.8-33.6-3.7-6.3-10.4-11.7-16.4-13.1-5.9-1.4-5-1.4-11.5.2m11 .7c5.3 1.4 12.5 7.3 16 13.4 4.1 6.9 8.3 19.7 10.7 32.3 1.9 10 2.2 15.2 2.2 35.2 0 13.8-.5 26.8-1.2 31.5l-1.2 7.9 5.7 8.6c5.4 7.9 11.5 19.1 12.7 23.2.5 1.6 1.9 1.8 10.5 1.8 37.2 0 113.1 6.2 165.3 13.5 62.6 8.8 103 18 123.3 28.2 41.3 20.8 55.6 49.7 51.6 105-.7 9.8-1.4 19.1-1.4 20.7-.2 3-.2 3 7.9 4.3 19.7 3 32.4 9.3 45.4 22.3 14.1 14 19.7 28.4 20.7 52.3.6 14.2-.6 24-4.1 34.5-3.8 11.2-6.5 15.3-15.4 24.1l-8.5 8.3-.8 58.2c-.9 66.2-1.6 73.4-8.2 84.6-2.6 4.6-12.4 14.8-15.9 16.6-1.8.9-2.8 2.3-2.8 3.7 0 4.3-6.8 16.7-12.2 22.1-11.1 11.1-25.8 14.8-42.6 10.9-6.9-1.6-7.5-1.6-10 .1-5.6 3.6-29 14.7-35.7 16.8l-7 2.3-.8 6.5c-.9 7.9-5.2 17.3-10.2 22.9-4.5 5-15.4 10.4-24.3 12.2-3.7.7-10.2 1-16 .7-17-.9-26.3-6.3-32.4-18.6-2.9-5.9-3.3-7.8-3.6-16.4-.3-7.4-.7-9.8-1.7-9.8-.8 0-1.6.4-2 .9-.5.9-15.2 6-23 8-18.7 4.8-46.9 7.1-64.6 5.2-27.3-3-40.7-8.6-55.6-23.6l-8.1-8.3-29.9-3.6c-16.4-2-40.1-4.9-52.8-6.5-12.6-1.7-33.8-4.4-47-6.1s-30.3-3.9-38-5.1c-7.7-1.1-23.4-3.3-35-4.9-40.1-5.5-77.1-11.1-118.3-18-10.1-1.7-18.6-3.1-19-3.1-2.2-.4-3.1.4-3.7 3.4-2.7 12.7-13.2 23.3-27.5 27.8-23.2 7.2-45.9-.4-54.3-18.3-2.9-6.1-5.7-18.6-5.7-25.3v-4.6l-7.6-3.4c-13-6-22.9-18.4-26.9-34-2.7-10.5-3.7-42-3.2-98.5.3-29.7 1-57.1 1.6-61.5s2.3-12 3.8-16.8l2.6-8.8-4-4.2c-11.1-11.6-19.2-30.9-22.2-53-1.4-9.8-1.4-31.9-.1-41.2 2.7-18.6 9.9-34.8 20.5-46.3 21.5-23.1 51.2-33 109.5-36.4 12-.7 20.8-1.6 21.2-2.2s.8-2.5.8-4.2c0-8.6 6.9-28.3 13.7-39.5l4-6.5.6-30c.5-30.8 1.9-45.1 5.6-59.4 5.6-22 15.9-37.8 28.6-44.1 7.8-3.8 12.9-3.7 21.8.4 13.7 6.3 41.1 30.2 53.5 46.7 3.1 4.1 5.9 7.8 6.2 8.2s5-.5 10.5-1.9c8.5-2.2 12.9-2.6 29.1-3l19.1-.5 10-10.7c10.8-11.5 28.6-27.7 39.6-36 7.8-5.9 15-9.7 20.4-11 5.2-1.2 4.9-1.2 9.8 0"/><path d="M354.8 566c-12.4 2.1-20.9 6.5-29.5 15.2-6.8 6.9-6.1 8.8 2.3 5.9 11.2-3.8 17.4-4.4 38.2-3.8 27 .8 40.3 3.9 62.2 14.5 8.1 4 10.8 6 18.8 13.9 5 5.1 9.2 8.8 9.2 8.3 0-.6-3.9-5-8.7-9.9-7.3-7.2-10.4-9.5-17.8-13.1-11.3-5.4-22.2-9.2-35.6-12.2-9.3-2-12.9-2.3-33.4-2.3-22.2 0-23.3.1-30.7 2.7-4.3 1.4-7.8 2.3-7.8 1.8 0-1.4 11.5-11.7 16-14.2 7.5-4.4 14.5-5.9 29.1-6.5 23.5-1 41.7 2.3 59.5 10.7 13.3 6.2 21.1 11.6 31.2 21.3 4.5 4.5 8.2 7.6 8.2 7.1 0-1.7-15.1-15.8-21.5-20.1-14.9-10-30.9-16-50-18.8-10.6-1.6-31.8-1.8-39.7-.5M127.2 226.7c-1.2 1.1-2.8 4.5-3.7 8.3-2.3 9.1-7.7 19.9-12.4 24.7-2.2 2.3-6.9 5.5-10.8 7.2-12.8 5.9-11.8 4.8-12.1 12.7-.3 8.2-.5 7.9 9.3 12 14.2 5.9 20.2 13.5 25.1 32 1.4 5.5 3.3 10.7 4.2 11.6 1.9 2.2 13.3 2.6 15 .5.6-.6 2.2-5.7 3.7-11.2 5.7-21.7 10.8-27.9 27.3-33.6 3-1 6.1-2.4 6.8-3 1.6-1.3 1.9-11.1.4-13.8-.5-1-4.2-3-8.3-4.5-12.8-4.7-21.1-14.2-25.2-29.1-3-11-4.5-14.3-6.8-14.9-4.4-1.2-10.5-.6-12.5 1.1m11.5-.1c2.3.6 3.8 3.9 6.8 14.9 4.1 14.9 12.4 24.4 25.2 29.1 4.1 1.5 7.8 3.5 8.3 4.5 1.5 2.7 1.2 10.5-.4 11.8-.7.6-3.8 2-6.8 3-16.5 5.7-21.6 11.9-27.3 33.6-1.5 5.5-3.1 10.6-3.7 11.2-1.6 2-11.2 1.7-13-.5-.9-.9-2.8-6.1-4.2-11.6-4.9-18.5-10.9-26.1-25.1-32-9.7-4.1-9.6-4-9.3-11 .3-6.7-.6-5.8 12.1-11.7 3.9-1.7 8.6-4.9 10.8-7.2 4.7-4.8 10.1-15.6 12.4-24.7.9-3.8 2.5-7.2 3.7-8.3 2-1.7 6.4-2.2 10.5-1.1M164 335.1c-1.5 6.2-4.7 10.2-10 12.3-3.9 1.5-4 1.7-4 6.4 0 4.8.1 4.9 3.9 6 5.8 1.8 8.9 4.8 10.4 10l1.4 4.7 5 .3c5 .3 5.1.3 5.7-3q1.5-8.4 9-11.4c4.6-1.9 4.6-1.9 4.6-6.7 0-4.7-.1-4.8-4.5-6.7-5-2.1-7.9-6-9.6-12.8l-1.1-4.2h-9.6zm10.9.1c1.7 6.8 4.6 10.7 9.6 12.8 4.2 1.8 4.5 2.2 4.5 5.7 0 3.6-.3 3.9-4.6 5.7q-7.5 3-9 11.4c-.6 3.2-.8 3.3-4.7 3-3.8-.3-4.1-.5-5.4-5-1.5-5.2-4.6-8.2-10.4-10-3.7-1-3.9-1.4-3.9-5 0-3.5.3-3.9 4-5.4 5.3-2.1 8.5-6.1 10-12.3 1.2-5 1.3-5.1 5-5.1 3.6 0 3.8.2 4.9 4.2m-89.8 10c-1.7 6.7-4.6 10.5-10.1 13.3-4.9 2.5-5 2.6-5 7.3s0 4.7 5.3 7.2c5.9 2.8 9.4 7.3 10.4 13.2l.6 3.9 4.9-.3 4.9-.3 1.8-5.3c2.1-6.2 4.8-9.3 10.2-11.7 3.8-1.7 3.9-2 3.9-6.6 0-4.8-.1-4.9-4.6-7-5.5-2.6-8.9-6.8-10.4-13.2l-1.2-4.7h-9.6zm10.9 1.5c1.5 6.4 4.9 10.6 10.4 13.2 4.3 2 4.6 2.4 4.6 6 0 3.5-.3 4-3.9 5.6-5.4 2.4-8.1 5.5-10.2 11.7-1.7 5.1-1.9 5.3-5.7 5.6-3.9.3-3.9.2-4.5-3.6-1-5.9-4.5-10.4-10.4-13.2-5-2.4-5.3-2.7-5.3-6.2s.3-3.9 5-6.3c5.5-2.8 8.4-6.6 10.1-13.3 1.1-4 1.3-4.2 4.9-4.2 3.7 0 3.8.1 5 4.7"/></g></svg>