<svg xmlns="http://www.w3.org/2000/svg" width="1365.333" height="1365.333" preserveAspectRatio="xMidYMid meet" version="1.0" viewBox="0 0 1024 1024"><g fill="#000" stroke="none"><path d="M331 116.2v337.9l-2.8-1.9c-3-2.2-17.5-9.1-23.3-11.2-8-2.9-8.5-.2-3.4 20.2 2 7.7 3.5 14.1 3.3 14.2-1.1.5-8 3.1-11.8 4.3-2.5.8-5.6 2-7 2.8-1.4.7-6.6 2.7-11.7 4.4-5 1.7-10.4 3.8-12 4.6-1.5.8-3.6 1.5-4.5 1.5s-1.9.4-2.2.9c-.3.4-3.4 1.8-6.8 3-3.5 1.2-7.6 2.8-9.3 3.6-1.6.7-4.1 1.7-5.5 2.3-6.3 2.5-35.6 17.6-37.8 19.5-.9.7-1.6.7-2 0-1.7-2.6-5.9-3.4-18.1-3.6-8.5-.1-12.6-.5-12.1-1.2.4-.6 1.6-3.7 2.5-7 1-3.3 2.5-7.6 3.3-9.5 4-9 6.5-14.1 7.4-14.6.5-.3 1.8-2.5 2.9-4.8 2.2-4.8 8.3-9.7 16.3-13.1 24.4-10.4 41.8-20.1 51.1-28.5 1.7-1.5 4-3.4 5.2-4.2 1.3-.8 4.6-4.1 7.4-7.4 2.8-3.2 6.5-7.5 8.3-9.4 3.2-3.5 16.6-22.6 16.6-23.6 0-.3.8-1.8 1.8-3.2 2.5-3.6 4.4-11.3 3.2-12.7-3-3.6-16-4.5-34.5-2.4-11.8 1.3-19 3.3-30 8.4-8 3.7-9.8 5-16 12.1-12.5 14-15.7 18.5-22.9 32.9-3.9 7.9-10 23-14.1 35-1.4 4.4-3.7 9.6-4.9 11.5-2.8 4.4-6.3 11.9-8.8 19-1.1 3-2.6 7.1-3.4 9-.7 1.9-1.3 4.8-1.3 6.5.1 2.4.3 2 1.4-2 2.9-10.8 8.4-24.1 13.1-31.5 1.2-1.9 3.4-7.1 4.9-11.5 11-33.2 21.9-52.5 39.6-70.7 5.4-5.5 7.9-7.1 16.1-10.7 12.1-5.2 20.1-6.9 37-7.9 13.1-.7 19 .1 22.4 2.9 1.5 1.2 0 7.2-2.7 11.1-1.1 1.4-1.9 2.9-1.9 3.2 0 1-13.4 20.1-16.6 23.6-1.8 1.9-5.5 6.2-8.3 9.4-2.8 3.3-6.1 6.6-7.4 7.4-1.2.8-3.5 2.7-5.2 4.2-4.4 4-15.1 11.2-22 14.8-8.6 4.4-26.6 12.9-29.2 13.7-5.1 1.5-14.1 8.6-16.2 12.8-1.2 2.3-3.6 6.7-5.4 9.7s-4.8 10-6.6 15.5-3.8 10.6-4.3 11.3c-.8 1-4.4 1.1-15.1.8-11.8-.4-14.4-.8-15.9-2.3s-4.3-7.4-13.3-27.8c-.7-1.7-2.4-3.9-3.7-5.1-2.3-2.1-11.5-5.4-14.9-5.4-1 0-2.1-.4-2.4-1-.3-.5-1.6-.9-2.8-.8s-4.2-.3-6.7-.9-8.1-1.9-12.5-2.8c-4.4-1-9-2.1-10.3-2.6s-3.2-.9-4.3-.9c-3.5 0-16.5-4.9-22.2-8.3-11.5-7-27-21.6-35-33.1-1-1.4-2.3-2.6-2.8-2.6-1.3 0 1.4 3.5 10.9 14.5 10.4 12 23.9 22.3 34.2 26.3 6.1 2.4 22.2 6.4 36.5 9.1 2.8.6 6.4 1.4 8 1.9 1.7.5 3.5.7 4.2.5.6-.2 1.4.1 1.8.6.3.6 1.6 1.1 2.8 1.1 5.7 0 17.7 6.2 17.7 9.1 0 .8 5.8 13.5 11 24.1l2.8 5.8-13.7.1c-7.5.1-19.7 0-27.1-.1-15.8-.2-25.4 1.6-29.2 5.7-2.2 2.4-2.3 3-2.1 18l.2 15.6 3.7 3.8c2.1 2.1 4 3.6 4.3 3.4.2-.3-1.2-2.3-3.3-4.4l-3.7-3.8-.2-14.6c-.2-14.5-.2-14.7 2.4-17.2 5.1-5.2 11.7-5.7 69.4-5.6.6 0 6.4.2 13 .5s19.1.8 27.8 1.1c11.4.3 16.6.9 18.7 2 1.7.9 3 1.9 3 2.4 0 .4-2.4 2.7-5.2 5-2.9 2.4-7.2 6.8-9.6 9.9-5.5 7.3-14.2 21-14.2 22.3 0 .5-.9 2.7-2 4.7-2.2 4.3-7 19.4-7 22.3 0 1.1-.5 2.9-1 4-1 1.7-2.2 10.4-3.5 22.9-2.5 25.6-2.3 61.4.5 92.5.6 6.6 1.3 14 1.5 16.5s.9 9 1.5 14.5c.5 5.5 1.7 16.5 2.5 24.5 2.7 27.1 5.5 52.5 6 55 .2 1.4 1.1 10.4 2 20 2.1 23.1 3.5 27.2 12.9 36.4 10.5 10.2 24.6 18.2 42.4 24 5 1.7 5.2 1.9 5.2 5.4 0 2-.7 9.5-1.5 16.7-.8 7.1-1.6 17.5-1.9 23s-1 17.8-1.6 27.3c-1.3 19.7-1 20.6 5.8 24.1 4.3 2.2 12.7 4.1 18 4.1 5.4 0 9.8-3 10.5-7.3.3-1.9 1.5-5.5 2.6-8 1.2-2.5 2.1-5.1 2.1-5.7 0-3 17.5-56.7 19-58.3.7-.8 22.9 7.2 51 18.3 9.3 3.7 26.3 10.1 31 11.7 2.5.8 5.9 2.1 7.5 2.8 1.7.7 8.2 3 14.5 5s12.4 4 13.5 4.4c1.1.5 4.7 1.7 8 2.7s6.5 2.1 7 2.5c.6.4 4.3 1.9 8.4 3.3 4 1.4 7.9 3 8.5 3.5.6.4 2.9 1.2 5.1 1.5 2.2.4 4.9 1.3 6 2.1 1.2.7 5 2.1 8.5 3 11 3 18.4 5.2 20 5.8.8.3 3.5 1.1 6 1.7 4.4 1.1 23.5 7.3 27.5 8.9 9.7 4 22.2 8.5 29 10.3 2.2.6 4.5 1.4 5 1.9.6.4 4.3 1.5 8.3 2.4 3.9.9 7.4 2 7.7 2.5.3.4 3.1 1.6 6.3 2.5 11 3.1 15.7 4.8 18.1 6.2 1.8 1.2 2.2 1.2 1.9.2-.5-1.4-7.7-4.5-13.8-5.9-5.5-1.3-10.1-2.8-11.3-3.8-.7-.6-3.9-1.5-7.2-2.2s-6.9-1.9-8.1-2.6-3.9-1.6-6-2c-2.1-.3-4.4-1-5-1.5s-4.2-1.8-8-3c-6.4-2-11.8-4-15.4-5.9-.9-.4-3.1-1.1-5-1.5s-4.1-1.1-5-1.6c-1.3-.7-8-2.8-25.5-8-1.6-.4-6.9-2-11.6-3.4s-9.2-2.5-10-2.5-2.4-.6-3.5-1.4-4-1.9-6.4-2.5c-2.5-.7-5.4-1.6-6.5-2.1-5.6-2.6-20.2-7.9-39-14.2-11.5-3.8-21.4-7.3-22-7.7-.5-.5-2.8-1.3-5-1.9-4.8-1.2-20-6.9-30.5-11.2-4.1-1.7-13.1-5.2-20-7.7s-12.9-5-13.5-5.4c-.5-.5-1.5-.9-2.3-.9s-2.8-.6-4.5-1.4c-1.8-.8-5.7-2.2-8.7-3.1-3-1-5.9-2.1-6.5-2.5-.5-.4-5.3-2-10.5-3.5-5.2-1.4-12.5-4-16.2-5.6-3.6-1.6-13.4-5.1-21.6-7.8-24.1-8-36.1-14.2-48.3-25.2-10.7-9.6-12.4-14-14.4-36.4-.8-9.9-1.8-19.1-2-20.5-.5-2.5-3.3-28.1-6-54.5-.7-7.7-1.9-19-2.5-25-.7-6.1-1.3-12.6-1.5-14.5s-.8-9.1-1.4-16c-2.8-32.1-3-64.9-.6-91.5 1.5-16.9 2.4-21.5 7.1-37.1 1.3-4.4 2.4-8.7 2.4-9.6 0-.8.6-2.1 1.4-2.7.8-.7 1.7-2.3 2-3.6.8-3 8.8-15.8 14.8-23.6 6.3-8.1 17.7-17.5 27.6-22.7 19.6-10.2 26.9-13.6 40.2-18.7 2.5-.9 6.3-2.6 8.6-3.6s4.5-1.9 5.1-1.9c.5 0 2.8-.9 5-2 2.3-1.1 7.5-3.1 11.6-4.4s8.3-2.9 9.3-3.5c1.9-1.1 12.3-4.8 15.9-5.7 1.7-.5 2.3.5 4.4 6.8 6.9 21.4 8.4 29.5 8.6 46.3.1 15.9.7 20 4.6 31.9 2.3 6.7 2 8.6-1.4 8.6-7.8 0-28.7 8.9-28.7 12.2 0 1 .4 1.8 1 1.8.5 0 .7-.6.5-1.3-.9-2.1 15.3-9.7 23.6-11.1 4-.7 7.5-1.8 7.7-2.5s-.5-4-1.6-7.4c-3.9-11.6-5.5-23.3-4.8-35 .5-9.9.3-11.7-2.5-22.5-1.7-6.4-4.4-15.8-6-20.7-3.7-11.7-9.9-36.7-9.9-40 0-1.4.6-2.8 1.3-3.1 2.3-.8 25.6 10 32.1 14.9.6.4 7.8 5 15.9 10.2 16.1 10.2 17.6 10.7 25.6 7.9 6.6-2.3 34.6-9.1 42.3-10.4 3.8-.6 7.8-1.5 9.1-2.1 2.7-1.2 5.2-5.8 6.2-10.9.3-1.9 1.2-7.2 2-11.6.8-4.5 1.7-9 2.1-10 .5-1.6.4-1.7-.5-.3-.6.9-1.7 5.4-2.5 10-2.4 13.4-2.8 15.2-4.6 18.3-1.7 3.1-6.4 5.4-11.3 5.5-2.8.1-33.8 7.6-43.2 10.5-2.7.9-6 1.6-7.2 1.6-1.1 0-8.6-4.2-16.6-9.3-8-5-15.3-9.7-16.1-10.2-1.5-.9-1.6-20.4-1.6-228.3 0-124.9-.2-227.2-.5-227.2s-.5 52.3-.5 116.2m-91.7 788.4c5 1.9 10.7 4.2 12.6 5.1 1.8.8 7.8 2.8 13.2 4.3 11 3.2 11.9 3.6 11.9 5.4 0 .7-2.6 9.4-5.9 19.2-3.2 9.8-7.3 22.8-9.1 28.9-1.7 6-3.8 12.3-4.6 14-.7 1.6-1.9 5.2-2.6 7.8-1.9 7.2-5.1 9.2-13.5 8.4-7.6-.8-16.5-4.5-18.8-8-1.4-2.2-1.5-4.3-.5-19.3.6-9.3 1.3-21 1.5-25.9.5-9.9 3.4-40.3 4.1-42.3.5-1.8 1.5-1.6 11.7 2.4M704 8.2c-.1 6.8.1 150.9.1 154.3.1 9.2 0 35.6-.1 37.5-.1 1.4-.2 3.2-.2 4s0 8.7.1 17.5c0 21.6.2 31.9.6 32.3.1.2 42.7.5 94.6.7 114.9.5 134 .8 135.7 1.8.6.5 1.6.6 2.1.2 1.1-.6 22.5-.9 23.7-.3.5.3 5.6.6 11.4.7 9.9.1 18 .6 22.5 1.4 2.1.4 12.8 1.7 18 2.2 1.7.1 5 .5 7.5.8 4.2.6 4.3.6 1-.3-1.9-.5-5.7-1.2-8.5-1.5-5.9-.6-12.9-1.4-17-2.1-5.3-.8-13.8-1.5-24-1.8-5.5-.2-10.2-.4-10.5-.6-1-.4-23.3 0-24 .5-.5.3-1.1.1-1.4-.4-.6-1-3.5-1-135.5-1.6-51.9-.2-94.5-.5-94.6-.7-.4-.4-.6-10.4-.6-31.3-.1-8.8-.1-16.7-.1-17.5s.1-2.6.2-4c.1-1.9.2-26.8.1-37.5 0-.6 0-37.3-.1-81.8 0-44.4-.3-80.7-.5-80.7-.3 0-.5 3.7-.5 8.2"/><path d="M99 1.4c0 .4 1.3 3.2 2.9 6.4 3.8 7.4 7.5 15.5 9.7 21.2.9 2.5 2.5 6.3 3.4 8.5 1 2.2 2.1 5.6 2.5 7.5s2.5 8.8 4.6 15.3 4.1 14.2 4.5 17c.3 2.9 1 6.5 1.5 8.2.5 1.6 1.6 7.7 2.4 13.4 1.8 12.2 2.1 52.6.5 69.1-1.1 11.5-5.3 26.4-10.2 36.2-2.6 5.3-2.9 6.7-2.5 13.3.3 4 .7 7.8 1.1 8.3.3.6.5 2.1.4 3.3-.2 2.2 3.8 24.1 6.3 34.9 1.9 8 6.9 39.4 6.9 43 0 1.9.7 6.8 1.5 10.7.8 4 1.7 10.3 2 13.9.2 3.6.6 6.9.9 7.2 1 .9-.3-13.6-1.9-21.1-.8-4-1.5-8.8-1.5-10.7 0-3.4-4.7-33.1-6.9-43.5-4.2-20-6.3-31.4-6.3-33.9.1-1.7-.2-3.4-.5-3.9s-.7-3.9-1-7.7c-.3-5.8 0-7.6 2.2-12.2 3.7-7.5 8.3-21.9 9.6-29.7 2.9-17.7 2.6-67.2-.6-83.1-.9-4.7-2.1-11.2-2.6-14.4-.9-5.9-3.4-15-6.9-25.6-1-3-2.5-8-3.4-11s-2.1-6.4-2.6-7.5-2.1-5.2-3.5-9c-1.5-3.9-3.3-8.1-4-9.5-.8-1.4-2.6-5.1-4.1-8.3-2.3-5-4.4-8-4.4-6.3m133 3.5c-.8.5-3.5 1.9-6 3.1-2.5 1.3-6.5 3.9-9 5.9-9.8 7.9-30 29.4-28.8 30.6.3.3 2.7-2 5.3-5.2 5.8-7 18.3-19.4 24.5-24.4 3.9-3.1 6.4-4.6 15.2-9 1-.5 3-.3 5.2.6 3 1.3 4.1 2.8 7.9 10.7 6.3 13.1 10.4 25.6 12.3 37.8 2.1 13.5 3 43.5 1.6 50.4-.6 2.8-1.8 8.5-2.5 12.6-1.3 6.7-2.1 9.4-4.7 16.5-.5 1.1-1.6 4.2-2.5 7-3.1 8.8-11.2 25.9-17.6 37.4-8.9 15.7-29.7 39.4-47.2 53.5-4.9 4-11.7 10.6-25.7 25.3-1.2 1.1-2.5 3.6-3 5.5-1.9 6.6-6.3 28.4-7 34.8-.5 3.6-1.8 12.3-3 19.5-2.2 13.8-3.6 25.7-4.4 39.5-.9 13.1-1 71.2-.2 83 1.2 19.1 5.5 33 6.9 22.2.7-5.4 6.3-30.2 7.7-33.7.6-1.7 2.3-7.5 3.6-13 1.4-5.5 3.2-12.7 4.1-16 1.1-4.6 1.3-8.4.7-16.5-1.2-15.6-.8-47.4.6-56 1.1-7.1 3-13.8 8.6-31 1.4-4.1 4.4-10.8 6.8-15 2.4-4.1 5.8-10.2 7.6-13.5s4.1-6.9 5.1-8 3.8-4.7 6.3-8 8.7-10.1 13.9-15c23.6-22.8 51.2-38.3 81.2-45.9 7.5-1.9 18.3-2.7 19.1-1.5 2.4 3.9-.3 21.2-5.6 36.1-1.1 3.2-3.5 11.3-5.4 18.1s-3.9 13.2-4.4 14.3c-.6 1-2.2 5.3-3.6 9.4-4.3 13.2-15.5 37.8-21.4 47-1.9 3-4.7 7.3-6.1 9.5-10.1 15.6-35.1 37-63.6 54.3-12.5 7.6-16.8 9.9-19.7 10.6-5.3 1.2-9.2 5.9-11.6 13.8-1.3 4-2.7 8.2-3.2 9.3-1.3 3.2-4.7 13.5-6.4 19.5-1.4 5.2-2.6 10.6-6.1 27.5-2 9.8-4.3 28.3-5 39.5-.3 5.2-.8 11-1.1 12.7-.4 1.9-.2 3.3.4 3.3.5 0 1-1 .9-2.3-.1-5 1.5-24.9 2.9-34.7 3.2-23.5 7.1-40.3 14.4-62.1 6.7-20.2 8.3-22.7 15.9-25.6 5.2-1.9 15.8-7.7 18.2-9.9.8-.8 2-1.4 2.6-1.4.5 0 2.8-1.3 4.9-2.8 2.1-1.6 8.3-5.9 13.8-9.6 17.6-12 36.2-29.5 43.7-41.1 1.4-2.2 4.2-6.5 6.1-9.5 6.1-9.5 17.1-33.8 21.9-48.5 1.2-3.9 2.6-7.5 3-8 .4-.6 2.1-6.2 3.8-12.6 1.7-6.3 4.2-14.8 5.6-18.8 6-17.1 8.7-34.7 6-39.1-.7-1.2-13.6-.1-20.9 1.7-30 7.4-57.6 23-81.3 45.8-5.2 4.9-11.4 11.7-13.9 15s-5.3 6.9-6.3 8-3.3 4.7-5.1 8-5.2 9.4-7.6 13.5-5.5 11.3-6.9 16c-1.5 4.7-3.7 11.6-5 15.5-1.3 3.8-2.9 10.4-3.5 14.5-1.5 8.8-1.8 41.9-.6 57 .7 8.6.5 11.6-.8 16.5-1 3.3-2.8 10.5-4.1 16s-2.9 11.3-3.5 13c-1.2 2.9-6.4 25-7.8 33-.7 4-.8 3.9-2.5-4-2.4-11.6-3-22.9-2.8-59.8.2-42.5 1-54.9 5.1-80.2 1.2-7.2 2.5-15.9 3-19.5.9-7.5 5.6-30.2 7-34.4.5-1.6 1.9-3.8 3-5 13.3-13.9 20.8-21.2 25.7-25.2 17.5-14.1 38.3-37.8 47.2-53.5 6.7-12 14.9-29.6 17.5-37.4.9-2.8 2-5.9 2.5-7 1.9-4.2 5.1-16.3 6.3-23.5.7-4.1 1.3-15.8 1.3-26 0-29.9-3.7-48.1-14.2-69.8-3.8-7.9-4.9-9.4-8-10.7-3.9-1.7-5.1-1.8-7.3-.6m380.7 27.2c-3.7.3-7.3 1.1-7.9 1.7-.8.8-1.1 4.9-1 11.9l.2 10.8-14.6-.3c-9.9-.2-15 0-15.8.8s-1.2 16.7-1.3 55.3c-.1 29.8-.4 55.8-.7 57.7-.5 4.2.3 8 1.5 8 .6 0 .6-.7 0-1.8-.5-1-.7-3.8-.4-6.2.2-2.5.5-28.4.6-57.7.1-36.6.5-53.5 1.3-54.3.7-.7 5.8-1 14.5-.8l13.4.3v8.2c0 15.5 1.5 6.7 2-11.7.5-21.2.4-20.9 9.4-21.1 11.7-.4 18.6.3 20.4 1.9.9.8 1.7 1 1.7.5 0-.6-.6-1.5-1.2-2.1-1.7-1.3-13.6-1.9-22.1-1.1m-232.8 12c-2.4 4.6-1 129.1 1.6 132.5 1 1.4 3.1 1.6 14 1.5 7.1 0 13.3-.5 13.7-.9s.7-30.9.6-67.8l-.3-66.9-14.2-.3c-13.7-.2-14.2-.2-15.4 1.9m28.9 65.3c.1 36.3-.1 66.3-.6 66.8-.4.4-6.1.9-12.6.9-8.9.2-12.1-.1-13.1-1.2-1.2-1.2-1.6-10.2-2.3-48.4-.9-52.9-.6-81.4 1-83.3.8-.9 4.5-1.2 14.2-1l13.1.3zM634.5 45c-.3.5-.8 29.4-1.1 64.2s-.7 64.6-.8 66.2l-.1 2.8H645c6.9.1 14.9 0 17.8-.1l5.2-.1V45.3l-9.7-.6c-14-1-23.1-.9-23.8.3m23.3.6 9.2.7V177l-4.7.1c-2.7.1-10.2.1-16.8.1-11.9-.1-12-.1-11.8-2.4.1-1.3.4-30.6.7-65.1s.8-63.2 1.1-63.7c.7-1.2 9.3-1.3 22.3-.4m-153.3.6c-.8 2-.1 129.5.7 130.3 1 1 26 1.2 28.1.3 1.6-.8 1.7-4.7 1.3-66.1l-.4-65.2-14.6-.3c-11.2-.2-14.8 0-15.1 1m29.1 64.7c.2 39.4 0 64.7-.5 65.1-1.3.7-26.2.3-27-.5-.7-.8-1.3-126.3-.6-128.3.3-.9 3.7-1.2 14.1-1l13.5.3zM419 54l-5.5.5-.1 14.5c0 8-.1 34.1-.2 58-.1 24-.6 45-1.1 46.8-.5 1.7-.6 3.2-.2 3.2 1.7 0 2.1-9 2.2-50.2.3-64.7.4-70.6 1-71.2.3-.3 7.3-.7 15.5-.9l14.9-.2.2 28c.1 15.4.1 36.3 0 46.5-.3 44.4-.3 45.6 1.2 47.4 1.2 1.4 2.4 1.6 5.5 1.2 2.3-.3 8.8-.7 14.6-.8 10.3-.1 22.7-2.6 29.7-6 3.3-1.5 4-5 2.4-11.2-1.2-5-3.9-16.7-5.1-22.1-2.9-13.2-4.4-19.2-5-21-1.2-3-4.8-20.2-5.6-26.4-.9-7.1-2.9-9.1-8.6-8.4-2.3.2-5.2.8-6.3 1.3-1.1.4-4.5 1.3-7.5 2-6.3 1.5-9 2.9-9 4.8 0 .7.6 3.4 1.4 6 1.5 5 5.7 24.9 7.7 36.7.6 3.8 1.8 10.1 2.6 14 2.7 13.5 5.4 28.7 5.1 29-.2.1-4.7.5-10 .7-7.9.4-10 .2-11-1-1.3-1.5-1.8-18.7-1-34.2.2-3.6.3-24.6.3-46.8-.1-31.3-.4-40.2-1.4-40.3-4-.4-22-.3-26.7.1m61.1 29.6c.8 1 2.1 5.6 3 10.3 2.7 14.9 4.1 21.5 4.9 23.6.7 1.8 2.8 10 5 20 .5 2.2 2.1 9.1 3.5 15.3 3.1 13.7 3.1 14.8.3 16.6-2.7 1.7-16.6 5.6-22.5 6.3l-4.1.4-.7-4.3c-.4-2.4-2-11.1-3.6-19.3-1.6-8.3-3.4-17.7-4-21-1.8-10.5-6-30.8-7.5-36.2-.8-2.8-1.4-5.3-1.4-5.6s1.5-1.2 3.4-2.1c3.5-1.7 6.9-2.5 21.7-5.5.4 0 1.3.6 2 1.5M.4 82.6c.4 1 1.7 4.4 2.8 7.4 2.3 6.4 5.8 14.1 18.7 41 3.3 6.9 7.2 14.5 8.7 17s3.5 6 4.6 7.8c3.1 5.6 5.1 8.7 6.3 9.7.6.5 1.9 2.4 3 4.2 3.8 6 12 15.1 20.6 22.6 3 2.6 6.1 5.3 6.9 6.1.8.7 6.5 5.1 12.5 9.6 22.9 17.3 24 18.4 25 24.8.3 2.6 1.9 9.2 3.4 14.7 3.7 13.2 4.6 17.5 7.1 33 1.1 7.1 2.4 15 3 17.5 1.2 5.8 3.6 24.2 5 39.5.8 9 .9 48.7.1 53.5-.2.7-7-13.3-7.1-14.3 0-.4-2-4.9-4.4-10-4.1-8.5-4.4-9.8-4.5-17.7-.1-8.5-1.3-20.5-3-29-.5-2.5-1.5-7.9-2.1-12-3.5-21.7-8.5-35-20-52.5-5.6-8.7-7.5-11.2-18.4-23.4-6.9-7.8-27.5-27.1-28.9-27.1-.3 0-3.4-1.9-6.9-4.3s-10.8-6.5-16.3-9.1-10.8-5.2-11.7-5.7c-1-.5-2.6-.9-3.5-.9-1 0-.2.7 1.7 1.6 11.7 5.3 23.3 11.4 28.8 15.1 3.5 2.4 6.6 4.3 6.9 4.3 1.4 0 22 19.3 28.9 27.1 13.8 15.5 20.4 25 26.7 37.7 6.7 13.5 8.7 19.8 11.8 38 3.7 21.5 4.9 31.4 5 40.6.1 8.6.3 9.6 4.5 18.3 2.4 5.1 4.4 9.4 4.4 9.6s1.6 3.9 3.6 8.2c2.6 5.6 3.9 7.4 4.7 6.6 1.5-1.5 2.1-40.1.7-54.6-1.4-15.4-3.8-33.8-5-39.5-.6-2.5-1.9-10.4-3-17.5-2.4-15-3.3-19.3-7.1-33-1.5-5.5-3.1-12.4-3.5-15.2-.9-7-1.6-7.7-24.9-25.3-6-4.5-11.7-8.9-12.5-9.6-.8-.8-3.9-3.5-6.9-6.1-8.6-7.5-16.8-16.6-20.6-22.6-1.1-1.8-2.4-3.7-3-4.2-1.2-1-3.2-4.1-6.3-9.7-1.1-1.8-3.1-5.3-4.6-7.8-3-5-10.1-19.6-23.4-48C6 94.3 3.7 88.6 3.1 86.3 2.4 84 1.4 81.8.8 81.4c-.8-.5-.9-.1-.4 1.2m374.4 117.2c-3.8.2-4.7.7-5.1 2.5-1.2 4.9-1.7 24.1-2.2 86.8l-.6 65.7 3.3 1.1c3.5 1.3 79.1 2.8 83.3 1.7 1.6-.4 2.2-1.2 1.9-2.3-.3-1 1.1-4.1 3-6.8 7.2-10.4 10.4-16.4 11.9-22.5.9-3.5 2.9-8 4.5-9.9 6.7-8.6 13.5-19.9 14.6-24.4.3-1.5 1-2.7 1.4-2.7s.5-3.7 0-8.3c-1.4-14.9-6.8-21.2-19.1-22.3-5.3-.5-7.1-.2-12.2 2.1-3.2 1.5-7.2 3.6-8.8 4.7-3.1 2.2-4.8 1.8-2.7-.7.8-1 1.3-4.3 1.4-8.3 0-7.2-2.1-11.7-6.8-14.1-3.4-1.8-16.9-3-18.5-1.7-.9.7-5.4 1-12.2.9-10-.2-11.1-.1-13.4 2-3.9 3.4-3.8 9.8.3 17.7 1.8 3.5 3.2 7.6 3.2 9.3 0 3.2-5.8 13.6-9.3 16.5-1.2 1-2.6 2.5-3.2 3.3-.5.9-2.3 3.6-3.9 6-4.2 6.3-6.5 13.7-6.7 21.6-.2 6.6 1.3 13.7 3.2 15.8.5.5.9 1.6.9 2.5s3.6 5.1 8 9.4 8 8.4 8 9.2c0 1.5-1.7 1.7-16.9 1.4-5.2-.1-10.5-.7-11.8-1.3l-2.4-1 .6-65.1c.6-66.9 1.1-84.3 2.5-86.6.7-1.1 25.7-1.4 148-1.5 86.5-.1 147.4.3 147.7.8.7 1.2.4 52.1-.3 54.1-.3.8-4.4 2.6-9.2 4.1-4.8 1.4-11.3 3.7-14.5 5.1-3.1 1.4-6.1 2.3-6.6 2-.4-.3-.8-5.3-.8-11.1s-.2-10.7-.4-11c-.3-.2-7.6-.8-16.2-1.1-13.7-.6-15.7-.5-16.3.9-.3.8-.6 11.8-.7 24.4-.2 22.1-.3 22.8-2.2 22.8-2 0-2-.8-2.5-36.8l-.5-36.8-2.5-1.9c-1.8-1.4-2.7-1.5-3.2-.7-.6.9-.8.8-.8-.2 0-.9-.6-1.1-1.7-.6-1 .5-6.3.9-11.9 1-9.8.2-14.4 1.4-14.4 3.7 0 .6.8.4 1.9-.6 2.4-2.2 27-3.1 29.8-1.1 1.7 1.2 1.8 4.4 2.3 38.2l.5 36.8 2.4.3c1.3.2 2.8-.2 3.2-1 .5-.7.9-11.3.8-23.5 0-12.2.2-22.7.7-23.4.5-.9 4.3-1 15.2-.5 8 .3 14.8.8 15 1.1.3.3.5 5.2.6 10.9s.4 10.8.8 11.1c.4.4 2.7.1 5-.8 10.8-3.9 21.5-7.6 23.9-8.1 1.5-.3 2.9-1.3 3.3-2.1.8-2.3 1-55.5.1-56.3-.6-.7-282.7-1-292.7-.4m67.3 43.6c5.9 4.1 8 11.5 5.4 19-.8 2.3-1.5 4.4-1.5 4.8 0 1.4 3.2.8 5.9-1.1 1.4-1.1 5.2-3.1 8.4-4.6 4.8-2.3 6.7-2.7 11.1-2.2 5.7.6 13.2 4.5 14.3 7.5.3.9 1.3 2.5 2.1 3.5 1.1 1.2 1.6 4.2 1.6 10.5.1 7.3-.3 9.5-2.3 13.6-2.4 4.9-7.6 12.9-13.9 21.5-1.7 2.4-3.2 5.4-3.2 6.6 0 4.8-3.7 12.1-12.6 25-1.9 2.7-3.4 6-3.4 7.2v2.2h-54v-2.4c0-1.6-2.4-4.7-7.8-9.9-6-5.9-8.2-8.8-10.1-13.5-4.2-10.5-2.4-23.6 4.5-34 1.6-2.4 3.4-5.1 3.9-6 .6-.8 2-2.3 3.2-3.3s3.8-4.5 5.7-7.7c4.7-7.7 4.7-11.7.1-20.5-4-7.7-3.9-11.6.3-15.4 2.4-2.2 3.1-2.3 11.1-1.8 5.8.4 9.8.2 12.1-.7 4.1-1.5 16.1-.4 19.1 1.7"/><path d="M466.4 270.4c-7.8 3.4-10.1 10.9-6.4 20.1 7 17.3 14.1 17.8 18.9 1.5 3.2-11.1 1.9-18.5-3.8-21.4-3.6-1.9-4.7-1.9-8.7-.2m8.2 1.5c4.6 2.8 5.9 6.7 4.5 14.2-1.2 6.9-4.7 14.7-7.4 16.3-1.5.9-2.3.5-4.8-2.3-3.4-4.1-6.9-11.2-7.6-15.7-.7-4.4 2-9.6 6.5-12.2s4.9-2.7 8.8-.3m51-35.1c-.3.5-.8 27.9-1.1 61l-.6 60.2h14.3c7.9 0 14.9-.4 15.5-.8 1.2-.8 1.4-9.3 2.6-102.2l.2-18.5-15.2-.3c-8.3-.1-15.4.1-15.7.6m29.6 26.2c-.2 14-.4 40.6-.5 59-.1 21-.6 33.8-1.2 34.2-.5.4-7.2.8-14.8.8h-13.8l.6-59.2c.3-32.5.8-59.5 1.1-60s6.9-.7 14.7-.6l14.2.3zM1.3 313.8c.9 1 4.8 4.3 8.7 7.3s10.3 8 14.3 11.1c4 3.2 7.5 5.8 7.9 5.8s3.3 1.7 6.5 3.8c5.4 3.6 11.6 6.8 23.5 12.1 2.6 1.2 5.1 2.1 5.6 2.1s2.7.9 5 2 6.4 2.5 9 3 7 1.6 9.7 2.4c2.8.9 5.9 1.6 7.1 1.6 1.1 0 3 1 4.1 2.2 2.3 2.5 11.7 21.7 16.1 32.8.5 1.4 1.5 3.8 2.2 5.5 2.1 5.3 3.8 10.8 6 19.5 1.1 4.7 2.5 9.4 2.9 10.5 1.3 3 2.9 11.9 4.1 22.5.6 5.2 1.7 14.9 2.5 21.5 1.7 14.9 2.6 27.5 1.8 25.5-.3-.8-1.1-2.9-1.8-4.5-5.8-13.7-7.7-19.4-12.6-37.5-1.2-4.7-3.5-11.1-5.1-14.2-1.5-3.2-2.8-6.2-2.8-6.8s-1.7-3.7-3.8-6.9c-4.3-6.9-9-14.4-11.3-18.2-3.4-5.8-13-17.6-17.1-21-5-4.1-13.4-9.9-14.3-9.9-.4 0-2.1-.6-3.8-1.4-7.9-3.4-19.5-5.5-34.1-6.2-10.6-.6-13.1-.4-20.6 1.6-4.7 1.3-9.2 2.7-10 3.2-1.7 1-1.8 1 10.5-2.3 6.9-1.9 9.6-2.1 20-1.5 6.6.3 15.2 1.3 19 2.2 3.9.9 8.2 1.8 9.8 2.1 1.5.3 3 .9 3.3 1.4s1.3.9 2.2.9c1.7 0 9.9 5.2 16.6 10.5 3.4 2.7 16.6 18.6 16.6 19.9 0 .3 1.9 3.5 4.2 7 13 19.7 16.7 28.2 23.7 54.1 3.2 11.7 10.4 29.4 11.9 29.5 1.5 0 1.2-5.8-1.3-27l-2-18c-.9-9.8-3.5-25.2-4.5-27.5-.5-1.1-1.9-5.6-3-10-3.2-12.1-5.8-19.7-10.9-32-3.4-8.2-11.7-24.4-13.4-26.3-1.1-1.2-3.2-2.2-4.7-2.2s-5.3-.9-8.6-2c-3.2-1.1-6.9-2-8.2-2-1.2 0-4.5-1.1-7.4-2.5-2.8-1.4-5.5-2.5-6-2.5-2.2 0-22.3-9.7-28.8-13.9-3-2-6-3.8-6.7-4.1-1.3-.6-11.4-8.3-23.8-18.3-8.3-6.6-11.4-8.4-8.2-4.9m912.2 40.3c-3.8 1.1-11.7 4.3-17.4 7.2-8.9 4.5-11.4 6.3-17.9 13.2-8.5 9.1-13.1 15.8-17.9 26.2-5.6 12.1-7.3 20.7-8 40-.3 9.5-.9 17.3-1.2 17.3s-4.3-1.6-9-3.6c-8.3-3.6-27.6-8.6-40-10.4-3.5-.5-10.7-1.8-16-2.9s-15.9-2.9-23.6-4.1c-7.7-1.1-16.5-2.5-19.5-3-3.1-.6-9.8-1.2-15-1.6-5.2-.3-11.3-.9-13.5-1.4-4.1-1-30.6-2.1-47-2.1-18 .1-31.6 1.1-35.2 2.6-1.9.8-4.5 1.5-5.6 1.5-3.9 0-10.9 8.9-17.9 23.1-13.8 27.5-17.8 36.7-20.7 47.4-1.6 6-4.1 14.1-5.4 18-1.4 3.8-3.1 9.7-3.7 13s-1.8 8.2-2.5 11c-.7 2.7-1.6 7.2-2 9.8-.4 2.7-.8 5.7-1 6.8-.2 1-.1 1.9.2 1.9 2.5 0 27.1-4.7 36.8-7 6.6-1.6 15.4-3.4 19.5-4 4.1-.7 10.9-1.8 15-2.6 11-2 43.4-4.9 44.9-3.9.3.1 5.3.6 11.1.9 26.2 1.4 43.1 5.8 64.5 16.8 10.7 5.5 18.9 11.5 28.6 21 10.4 10.1 17.2 19.5 23.8 32.8 2.4 4.7 4.7 9 5.2 9.6.6.7 1.8 3.6 2.9 6.5 1.9 5.3 2 5.4 5.6 5.2 5.1-.4 15.8-6.9 22-13.5 16.8-17.7 25.3-42.9 24.1-70.7-.8-15.7-3.3-25.5-12.7-49.2-2.3-5.7-5.8-17.2-7.8-25.4-3.6-14.7-3.7-15.4-3.6-35 0-23 1.2-29.9 7.3-43 5.3-11.3 9.7-17.8 18.3-27 6.7-7.1 8.9-8.7 18.9-13.7 11.5-5.8 20.8-8.8 27.1-8.8 4.1 0 11.8 4.7 15 9.2 1.2 1.7 2.3 5.2 2.6 7.9.7 7.5-2.8 13.5-14.3 24.8-5.3 5.2-11.3 11.8-13.3 14.8-7.9 12-12 26.2-12.3 43.5-.2 9.5.5 17.7 2.1 25.8.6 2.5 1.7 8.7 2.6 13.9.8 5.1 2.9 13.9 4.6 19.5 1.6 5.5 3.6 13.2 4.3 17.1.7 3.8 2.1 10.1 3 14 3.5 15 .6 48.9-5.5 65.2-6.9 18.5-18.6 35.8-34.6 51.4-13.3 12.9-23 19.2-39.5 25.9-4.9 1.9-5.8 2.7-6.3 5.4-1.4 7.5-2.5 12.2-3.2 14-.5 1.4-.4 1.7.4 1.2.7-.4 1.2-1.6 1.2-2.7 0-2.8 1.8-3.2 7.5-1.4 6.1 1.8 11.2 1.9 20.6.3 6.3-1.1 7.4-1.6 9.8-4.8 4.7-5.9 9.1-14.7 10.1-20.1.5-2.8 1.6-6.5 2.4-8.2.8-1.8 2-5.7 2.7-8.7.8-3.5 2.4-6.8 4.4-9 10-11.2 19.9-27.8 25.1-42.1 2.4-6.6 3.2-10 5.9-25.6 1.9-10.3 2.1-31.3.5-38.6-1.1-4.9-1-6.4 1-14.4 1.2-4.8 2.6-11.3 3-14.3s1.4-9.2 2.1-13.7l1.3-8.2-3-3.6c-3-3.7-6.2-5.8-14.6-9.5-2.7-1.1-4.8-2.2-4.8-2.3-3.7-25.4-2.6-40.6 4-57.6 3.2-8.1 9-16.1 19.1-25.8 13-12.6 16-18.6 14.4-28.9-.5-3.4-1.6-5.5-4.5-8.4-7.2-7.2-13.1-8.4-25.5-4.9M693 430.5c9.6.3 19.3 1 21.5 1.5s8.3 1.1 13.5 1.4c5.2.4 11.9 1.1 15 1.6 3 .6 11.8 1.9 19.5 3.1 7.7 1.1 18.3 2.9 23.5 3.9 5.2 1.1 12.2 2.4 15.5 2.9 13.1 2.1 29.5 6.3 39.7 10.4 10.5 4.1 10.8 4.3 11.4 7.7 2.2 12.5 7.8 34.1 10.9 42.1 10.7 27.4 12.5 34.2 13.1 50.4.5 10.6.2 14.9-1.4 23.8-3.8 19.4-12.7 36.5-25.1 48-6.1 5.6-18.1 12.3-20.4 11.4-.8-.3-1.8-1.8-2.1-3.3-.4-1.5-1.5-4.4-2.5-6.3-12.8-25.6-17.4-32.6-29-43.9-10.2-10.2-16.1-14.6-26.6-20.4-21-11.5-41.4-17-68.5-18.4-5.8-.3-10.8-.8-11.1-.9-1.5-1-33.9 1.9-44.9 3.9-4.1.8-10.9 1.9-15 2.6-4.1.6-13.1 2.5-20 4.1-13.3 3.2-34.1 6.9-35.1 6.3-.6-.3 1.6-14.2 3-18.9.6-1.7 1.5-5.7 2.1-9s2.4-9.6 4-14 3.8-11.6 5-16c3-11.3 3.1-11.5 15.8-37.3 6.9-14 13-25 15.3-27.6 5.2-5.8 13.4-8.5 27.7-9 5.7-.2 10.5-.6 10.7-.8.2-.1 4.1-.2 8.7-.1 4.5.2 16.2.5 25.8.8m221.7 54.7c6.7 3.3 12.3 8.8 12.3 12.2 0 2.7-2.7 18.3-5.2 29.9-2.3 10.4-3.3 10.8-4.4 1.7-.4-3-2-9.4-3.5-14.1-2.7-8.5-6.9-27.2-6.9-31 0-2.5.1-2.4 7.7 1.3M884 661.7c-.7 2.1-1.6 4.5-2 5.3s-1.3 4-2 7c-1.7 7.8-4.8 14.5-9.6 21-4.1 5.6-4.2 5.7-11.2 6.8-9.6 1.6-13.5 1.5-20.1-.5-3.1-.9-5.8-1.8-6-1.9-.2-.2.3-2.5 1-5.3 1-4.1 1.8-5.2 4.3-6.2 1.7-.7 6.9-3 11.6-5.2 4.6-2.2 8.6-3.5 8.8-2.9.5 1.7 5.7-.3 6-2.4.4-1.8.3-1.8-1 0-.8 1-2.2 1.7-3.2 1.5-1.3-.3.1-1.7 5-5.1 3.8-2.6 9.6-7.4 12.8-10.7 3.3-3.3 6.2-5.9 6.4-5.6.2.2-.2 2.1-.8 4.2"/></g></svg>