<svg xmlns="http://www.w3.org/2000/svg" width="1365.333" height="1365.333" preserveAspectRatio="xMidYMid meet" version="1.0" viewBox="0 0 1024 1024"><g fill="#000" stroke="none"><path d="M0 338.2v338.3l42.2-.1 42.3-.2.3-2.7c.2-1.5-.4-5-1.3-7.9-1-2.8-1.9-7.1-2.1-9.6-.1-2.5-1.3-9.2-2.5-15-1.1-5.8-2.2-12.3-2.4-14.5s-.4-4-.5-4c-.3 0-1-3.9-1.6-8.5-.3-2.5-.8-5.6-1.1-7s-.7-3.9-.9-5.5c-.2-1.7-.9-5.5-1.5-8.5-.7-3-1.3-6.6-1.4-8-.4-4.1-1.6-11.2-2.5-15.5-.5-2.2-.5-4.4-.1-4.8.5-.5-.9-2.5-3.1-4.5l-3.9-3.7-.2-15.2-.2-15.1 2.9-3.1c1.6-1.7 3.1-2.9 3.3-2.7s2.5-.2 5-1c3.3-1 11.7-1.4 31.7-1.4 14.9-.1 28 0 29.1.1 3.5.2 19.3.7 39.3 1.3 17.6.5 19.6.7 22.3 2.7 2.1 1.5 3.3 1.8 4.2 1.1 1.3-1.1 14.3-8 26.7-14.2 8.7-4.3 13.9-6.6 24-10.5 2.5-.9 6.3-2.6 8.6-3.6s4.5-1.9 5.1-1.9c.5 0 2.8-.9 5-2 2.3-1.1 7.5-3.1 11.6-4.4s8.3-2.9 9.3-3.5c2.4-1.3 13-5.1 16.4-5.7 2.4-.5 2.6-.1 5.2 8.3 2.4 7.4 5.9 19.5 6.3 21.3.1.3.5 2.4.9 4.7.4 2.4 1.1 4.5 1.6 4.8.4.2.3 2.8-.2 5.7-1.9 10.1.1 28.2 4.7 41.3 3 8.9 3.1 8.5-2.7 8.9-.9.1-1.9.4-2.3.8s-1.3.4-2.1.1c-1.6-.6-11.3 2.5-13.5 4.3-.8.8-2 1.4-2.5 1.4s-2.4.9-4.2 2c-4.4 2.7-3.2 4.3 1.9 2.5 2.3-.8 4.4-1.3 4.8-1.1.4.3 5.9-1.2 12.2-3.4l11.4-3.8 2.3 2.4c1.2 1.4 2.2 2.8 2.2 3.2s-2.3 1.8-5.1 3.2c-2.8 1.3-6.1 3.6-7.2 5.2-1.1 1.5-2.4 2.8-2.9 2.8s-3.7 2.4-7.2 5.2c-6.6 5.4-8 8.4-2.3 4.9 1.8-1 5-2.9 7.2-4.1s4.9-3 6-4c3.1-2.7 13.5-9.4 14-8.9.2.2 4.8 4.7 10.2 9.9 5.4 5.3 11.7 10.4 14 11.5 4.2 2 6.2 5.7 4.3 8-1.5 1.8-2.4 11.8-2.3 24.5.1 10.8.6 14.3 3.6 25.6l3.4 13.2-6.6 2.5c-3.6 1.3-9.3 3.2-12.6 4.2-37.7 10.8-73 35.3-82 56.9-.9 2-1.8 6.1-2.1 8.9-.3 2.9-.7 5.8-.9 6.4-.6 1.9 2.9 9.5 5.6 12 4.3 3.9 9.4 5.5 15.9 4.7 7.3-.8 11.4-4 24.5-19 18.3-21 30.7-27.3 60.5-30.9 6.4-.7 13.8-2.2 26.9-5.2 11.3-2.6 11.3-2.6 16.7-.8 5.1 1.7 7.1 3.5 4 3.5-.7 0-6.7 2.9-13.1 6.5-6.5 3.6-12.1 6.5-12.4 6.5-1 0-16.1 7.9-22.6 11.8-25.3 15.1-41.2 37.2-41.7 57.9-.3 10.7 8.8 21 19.5 22 11.6 1.1 18.7-3.5 33.2-21.7 8.3-10.3 14.8-16.6 23.5-23 13.9-10.2 13.1-9.8 53.5-25.5 7.7-2.9 29.7-10.9 31-11.1 3.5-.7 25.6-9.6 36.5-14.7l7.5-3.4 36-.8c77.7-1.5 113.3-1.1 115.7 1.3.5.5-5.3 2.3-12.9 4.1s-15.6 3.9-17.8 4.6-10.1 3.2-17.5 5.6c-12.1 3.7-18.5 6.4-24.5 10.2-1 .6-5.4 3.4-9.7 6.1s-7.8 5-7.8 5.2-.7 2.9-1.5 6.1c-2.1 7.9-2.6 12.1-1.5 12.8.6.4 1 1.6 1 2.7 0 2.4 6.1 8.5 9.9 10 8.8 3.4 15.7 2.4 28.2-3.8 9.4-4.7 24.1-9.9 38.9-13.8 11.8-3.1 31.1-7.3 37-8 8.7-1.1 13.5-1.9 14.5-2.4.5-.4 2.2-.5 3.7-.3 1.5.1 3.3-.1 4-.5 1.5-1 3.6-1.5 5.8-1.5 2.9 0 16.5-2.1 17.4-2.7.6-.3 1.9-.7 3-.8 15.9-1.8 32.2-6.5 41-11.9 3.2-1.9 6.1-3.5 6.5-3.5.3 0 3.5-2.5 7.1-5.6 15.6-13.2 22.2-23.9 26.6-42.6l1.9-7.6 8-3.3c23.7-9.7 43-26.7 59.6-52.4 4.2-6.6 11.8-21.9 12.3-24.7.1-.7.5-1.8.9-2.4.3-.6.8-2.6 1.1-4.5.2-1.9 1.4-8.1 2.5-13.8 3.4-16.8 3.1-36.6-.9-50.6-.5-1.7-1.1-5.3-1.5-8-.7-5.7-2.3-11.4-3.8-13.3-.5-.6-.6-1.2-.2-1.2s.1-.7-.6-1.7c-.8-.9-1.3-1.8-1.1-2 .1-.1.2-.4.1-.6 0-.1-.2-1.1-.4-2.2-.8-4.5-4.6-24.3-5.6-28.6-2.1-9.4-2.8-27.9-1.5-37.9 2.3-17.3 11.5-34.2 25.1-46.5 11.9-10.6 15.9-18.5 14.1-28.1-1-4.9-8.2-11.8-14.3-13.4-6.5-1.9-16.8.7-31 7.8-8.7 4.3-12.5 6.9-16.6 11.1-9.4 9.8-14.5 16.8-19.1 26.3-6.8 13.8-8.6 22-9.3 42.8-.5 16.9-.4 18 2.7 33 2.9 14.1 5.9 23.6 13.5 43.5 9.9 25.8 11.1 51.5 3.5 74.5-7.4 22.3-22.1 39.7-39 46.1l-4.8 1.8-2.2-6.2c-1.2-3.4-3.1-7.7-4.2-9.5s-3.4-6.1-5-9.5c-7.1-14.6-20.9-31-34.8-41.5-21.4-16-48.9-25.1-81-26.8-6.3-.3-11.7-.7-12-.9-.5-.3-20.3.9-31.2 1.9-2.7.3-7.2.9-10 1.5-5.8 1.1-12.8 2.2-17.1 2.6-1.5.1-3 .5-3.4.9-.3.3-1.8.6-3.2.6s-8.7 1.5-16.1 3.4-16 3.7-19 4.1-8.2 1.3-11.5 2c-9.9 2.3-38.7 3.8-47 2.6-3.3-.5-9.4-1.2-13.5-1.6-4.2-.3-8.1-1-8.8-1.4-.9-.6-.9-2.6-.1-8.8l1.2-8.1 9.4-.7c5.1-.4 9.6-1.1 9.8-1.6.7-1-2.8-2.9-5.4-2.9-1.2 0-2-.6-1.9-1.3.2-.9-1.4-1.2-5.9-1.1l-6.3.1v-3.8c0-3.6.2-3.8 3.8-4.4 2-.3 6.2-1 9.2-1.5s8.9-1.2 13-1.5c7.5-.7 10.5-1.9 9.4-3.7-.7-1.1-15.5-.2-27.3 1.8-4.6.8-8.5 1.3-8.7 1.2-.1-.2-.7-2.9-1.3-6.1-2.5-13.5-11.6-29.9-24.1-43.2-2.1-2.2-4-5.1-4.3-6.5-1-4.7-2.1-8.8-3-11-1.3-3.2-6.9-19.6-7.1-20.9-.2-.8-.8-1.7-1.4-1.9-.7-.2-1-.7-.7-1.2.6-1-1.3-5.8-3.3-8.2-.7-.9-1.5-2.2-1.6-3-.1-.7-.7-2.3-1.4-3.5s-1.3-3.1-1.5-4.2-.6-2.4-1-2.7c-.4-.4-.7-1.3-.7-2s-.5-2.5-1.1-4.1c-.7-1.5-1.3-3.7-1.5-4.8-.7-3.6-1-5-1.7-6.8-2.3-5.9-1.1-6.6 1.8-1 1 2.1 3.1 5.1 4.5 6.8 3.3 3.7 12 16.1 12 17 0 .4 1.8 2.9 4 5.5l4.1 4.9 8.7-.5c4.8-.2 10.9-.6 13.5-.9s9.1-.8 14.5-1.1c5.3-.3 11.3-.9 13.2-1.5 1.9-.5 4.8-.9 6.3-.9 3.1 0 6.7-2.1 11.4-6.5 2.2-2.1 3.3-4.3 3.8-7.5.9-6.2 1.3-8.5 1.6-8.5.1 0 .3-1.6.4-3.5.2-1.9.6-6.4 1-10s.8-8.3 1-10.5c.1-2.2.8-5.3 1.4-6.9.8-1.9.8-3.3.2-3.9s-.4-1.8.6-3.3c.8-1.3 1.2-2.8.8-3.4s0-1.9.8-2.8 3.1-5.8 5-10.8c6.5-17 13.1-28 25.4-42.6 4-4.8 7.3-9.2 7.3-9.7 0-.6.6-.8 1.3-.6.6.3 3.5-1.7 6.3-4.3 4.9-4.7 24.3-18.2 26.1-18.2.5 0 1.9-.9 3.2-2.1 1.2-1.2 2.5-1.9 2.8-1.5.3.3 3.1-.8 6.2-2.3 3.1-1.6 7.4-3.4 9.6-4 2.2-.7 4.7-1.5 5.5-1.8s3.1-.8 5-1 4.1-.9 4.9-1.6c.7-.6 3.2-1.2 5.5-1.3s7.5-.7 11.6-1.3c4.1-.7 16.1-1.1 26.5-1.1 10.5.1 55.9.3 101 .4 45.1.2 82.2.4 82.5.6.3.1 7.6.2 16.3.2 13 0 15.9.3 16.6 1.5.7 1.3.9 1.3 1.4-.1.7-1.7 4.7-2.2 6.3-.7.5.5 3.3.5 6.2.2 3-.4 7.3-.5 9.6-.1 2.4.3 5.3.3 6.6-.2 1.2-.4 2.7-.5 3.3-.1.7.5 5.5.9 10.7 1 12.3.4 19 .9 31.9 2.8 2.9.4 7 .8 9 1 2 .1 5.3.5 7.4 1l3.7.7V0H0zM87.5 8c.3.5.1 1-.4 1-.6 0-1.1-.5-1.1-1 0-.6.2-1 .4-1 .3 0 .8.4 1.1 1M211 31c.8.5 1.2 1.2.9 1.5-.8.8-3.9-.5-3.9-1.6s1.1-1.1 3 .1m420.9 2.3c3.2.4 3.4.6 3.8 5.3.2 2.7.7 5.2 1.1 5.6s7.6.9 16 1l15.2.3V178l-2.7.1c-7.3.4-30.9.4-31.7 0-.5-.2-7.1-.3-14.7-.2-12.3.2-13.8 0-14.8-1.6-.9-1.5-1-1.6-1.1-.2 0 1.8-5.7 3.2-6.7 1.7-.3-.6-1.6-.7-2.8-.4-1.3.3-6.2.6-10.9.7-6.8.1-8.9-.3-10.2-1.6-1.5-1.4-1.5-1.8-.3-2.6 1.2-.7 1.2-.9 0-.9-.9 0-1-.4-.3-1.3.5-.6 1.1-5.7 1.3-11.2s.7-10.6 1.2-11.3c.6-.7.6-1.2 0-1.2-.7 0-1-15.9-.9-44.5.1-38.4.3-44.7 1.6-45.5.8-.6 7.8-1 15.5-.9 13.5.1 14 0 14.3-2 .2-1.2.7-2.1 1.2-2.1s.5-1.2.1-2.8c-2.1-7.4-.8-18.4 1.9-16.7.5.3 1.1.1 1.4-.4.5-.8 14.3-.7 22.5.2M248 40c0 .5-.5 1-1.1 1-.5 0-.7-.5-.4-1 .3-.6.8-1 1.1-1 .2 0 .4.4.4 1m160.8 3.9c1 .1 1.2 13.8 1 66.8l-.3 66.7-5 .3c-10.7.5-21.7.4-22.3-.2-1.8-1.7-3-130.8-1.3-132.9.8-.9 20.2-1.4 27.9-.7m125.7 32.4c0 16.6.3 31.7.7 33.5s.4 3.1-.1 2.8-1.1.3-1.4 1.4-.2 2.2.3 2.5c.4.2.8 14 .8 30.5 0 27.4-.1 30-1.6 30.1-5.8.3-26.6-.2-27.1-.7-.3-.3-.7-29.8-.8-65.5l-.2-64.8 11.7-.3c6.4-.2 13.1-.2 14.7 0l3 .4zM9.7 51.7c-.8.7-3.7-.9-3.1-1.9.3-.5 1.2-.4 2 .3.8.6 1.3 1.4 1.1 1.6m7.9 2.8c-.3.8-1 1.5-1.6 1.5s-.9-.4-.5-.9c.3-.5.1-1.2-.4-1.5s-.7-1.5-.4-2.6l.6-2.1 1.4 2.1c.8 1.2 1.2 2.7.9 3.5M482.2 87c1.8 9.5 3.9 19.1 5.3 25 .8 3.6 1.8 7.8 2.1 9.5.3 1.6.9 4.3 1.4 6 .6 1.6 1.4 5 2 7.5.5 2.5 1.6 7.6 2.5 11.5 1.8 7.7 2.8 15.1 2 14.3-.3-.3-.8-2.3-1.1-4.4-.4-3.3-2.4-7.4-2.4-5 0 .5-.7.3-1.5-.4-1.1-.9-1.2-1.6-.5-2.5s.5-1.6-.6-2.6c-1.4-1.1-1.8-1.1-2.8.3-1.1 1.5-1.3 1.5-2.2 0-.9-1.4-1.3-1.3-3.3.7-1.2 1.2-2.5 2-2.9 1.7-.3-.3-1.6.1-2.9 1-2.3 1.5-2.4 1.5-1.4-.5.8-1.4.8-2.2 0-2.6-1-.7-2.3 0-2.5 1.3-.2 2-1.7 4.1-2.5 3.6-.5-.3-.7-1-.4-1.5.4-.5.3-1.4 0-1.9-1.1-1.8-3.6 1-3 3.1.4 1.1.7 3.3.7 4.9.1 3.7 1.7 5 2.5 2.1.3-1.1.9-1.9 1.3-1.6.5.3.6 1.4.3 2.4-.7 2.7 1.2 5.6 3.6 5.8 2.7.2 3.7-1.5 1.4-2.5-2.7-1.1-2.6-3 .2-6.4 1.4-1.6 2.5-3.6 2.5-4.4 0-.9.5-1.2 1-.9.6.4.8 1.5.5 2.5s-.1 2.1.5 2.5c.6.3.8 1 .5 1.5s-.1 1.1.5 1.5c1.7 1.1 1.2 4.8-.5 4.1-1-.3-1.8.1-2.2 1.2-.4.9-1.2 2-1.8 2.4-1.7 1.1-1.3 5.3.5 5.4.8.1 2 .2 2.5.4 4 1 7.2-.4 5.5-2.5-.7-.8-.4-1.7.8-2.9 1.8-1.5 2-1.5 3.8.5 1 1.2 1.8 2.3 1.7 2.5-.2.2-.1.4.2.4s.5-.3.6-.8c0-.4.9-1 2-1.4 1.2-.5 1.9-1.8 2-3.5.1-2.5.2-2.4.8.7.7 3.7-.2 6-2.5 6-.8 0-2.2.4-3.2.9-.9.6-4.4 1.6-7.7 2.4s-6.7 1.6-7.5 1.8-1.4-.1-1.5-.8c0-.7-.5-1.7-1.2-2.4-.8-.8-.9-1.8-.2-3.1 1.2-2.3-1.4-3.7-3.5-1.9-1.8 1.5-.9 4.8 1.7 6.6 1.2.8 1.9 1.5 1.5 1.5-.3 0-1.3.3-2.2.6-1.1.4-1.8-.5-2.6-3.6-.6-2.3-.9-4.5-.6-4.8s.1-1.1-.4-1.8c-.6-.6-1-1.6-.9-2 .3-1.1-1.5-12-2.1-12.7-.1-.1-.3-1.3-.4-2.7-.5-4-2.3-13.6-5.1-26.5-1.4-6.6-2.8-13.4-3-15-.2-1.7-1.1-5.4-1.9-8.3-.8-2.8-1.2-5.2-.9-5.2s-.1-.7-.8-1.6c-1.9-2.3 1.3-4.7 8.7-6.3 3.3-.7 6.6-1.7 7.4-2.2.8-.4 3.7-.7 6.5-.6 4.8.2 5 .3 5.7 3.7m4.7 64.8c.7 1.4.6 1.8-.9 1.8-1.2 0-1.8-.7-1.7-1.8.1-1 .5-1.8.9-1.8s1.2.8 1.7 1.8m1.6 4.2c-.3.5-1.1 1-1.6 1-.6 0-.7-.5-.4-1 .3-.6 1.1-1 1.6-1 .6 0 .7.4.4 1m1.9 5.5c-.4.8-1 1.5-1.5 1.5s-.9-.7-.9-1.5.7-1.5 1.5-1.5c.9 0 1.2.6.9 1.5M556.1 262c-.5 56.6-1.2 94.5-1.7 94.9-.3.3-6.9.7-14.8.8l-14.3.2.2-34.2c.1-18.8.3-46 .3-60.5l.2-26.3 15.2.3 15.1.3zm-119.8-20.6c9.1 1.5 14.3 7.9 13.4 16.6-.3 2.6-1.1 5.8-1.7 7-1.7 3.2.1 4.5 2.7 2 4.1-3.7 14-8.1 18.7-8.2 7-.1 15.4 4.5 18.5 10.2 4.5 8.2 3.7 20.9-1.8 30.1-1.2 1.9-2.6 4.5-3.3 5.9s-3.5 5.4-6.4 9c-3.7 4.7-5.3 7.7-5.8 11-.8 5.5-5.4 14.5-11.2 22.4-2.4 3.2-4.7 6.8-5 8-.5 2.2-.7 2.2-26.9 2.3l-26.3.2-.6-2.4c-.4-1.4-4.4-6.2-9-10.8-7.2-7.2-8.6-9.2-10.1-14.3-2.2-7.3-2-17 .5-24.2 1.9-5.3 10.6-19.2 12.1-19.2.4 0 2.6-2.8 4.8-6.1 5-7.4 5.4-12.5 1.7-18-3.5-5.1-4.6-10-3.4-14.8 1.3-5.3 4.4-6.5 14-5.7 4.9.4 8.7.2 11.6-.7 4.4-1.3 6.8-1.4 13.5-.3M435 432.7c-.4 1.6-1.6 7.3-2.6 12.8-.9 5.5-2.4 10.8-3.2 11.7-.8 1-1.2 1.8-.7 1.8.4 0 .2.7-.5 1.5s-1.6 1.3-2 1c-.5-.3-1.1-.1-1.5.4-.3.6-2.7 1.3-5.3 1.6-2.6.4-8.9 1.8-14.1 3.1-5.1 1.3-10.7 2.7-12.5 3-1.7.3-7.1 1.7-12.1 3.1-16.3 4.6-14.8 4.7-22.1-.3-3.5-2.4-6.9-4.4-7.4-4.4-2.2 0-.8-1.8 1.8-2.3 1.5-.2 5.3-1.2 8.5-2.1s6.4-1.3 7-.9.8 0 .4-1.1c-.6-1.4-.3-1.5 1.4-.6 1.5.9 3.3.8 7.2-.4 2.9-.8 9.7-2.2 15.2-3.1s10.7-1.9 11.5-2.2c.8-.4 1.9-.5 2.3-.4.5.1 3.5-.8 6.6-2 4.7-1.7 6.6-3 9.7-7.2 2.1-2.8 5.6-6.8 7.7-8.9 2-2.1 3.7-4.5 3.7-5.3s.4-1.5.9-1.5c.6 0 .7 1.1.1 2.7"/><path d="M603.4 75.7c.1 2.2.5 3.6 1.1 3.3 1.3-.7 1.2-6.3-.2-6.7-.6-.2-1 1.2-.9 3.4m.2 55.2c-.4.5-.2 1.2.3 1.5.5.4 1.2.2 1.5-.3.4-.5.2-1.2-.3-1.5-.5-.4-1.2-.2-1.5.3m-.5 6.7c0 1.1.3 1.4.6.6.3-.7.2-1.6-.1-1.9-.3-.4-.6.2-.5 1.3m.1 25.5c.3.8.8 1.3 1.1 1.1.9-.3.7-1.1-.5-1.8-.6-.4-.8 0-.6.7M477.6 87.8c-.3.6.1 1.5.8 2.1.8.7 1.7.8 2 .3.3-.6-.1-1.5-.8-2.1-.8-.7-1.7-.8-2-.3m.9 5.2c-.4.6-.3 1.6.3 2.2s1.2.6 1.7-.2c.4-.6.3-1.6-.3-2.2s-1.2-.6-1.7.2m-6.6 7.2c-.1.5-.2 1.1-.3 1.5-.1.5-.5 1.3-.9 2-.5.7 0 1.6 1.1 2.2 3.3 1.7 4.3-1 1.7-4.5-.8-1-1.5-1.6-1.6-1.2m5.7 11.7c-.4.5-.2 1.2.3 1.5.5.4 1.2.2 1.5-.3.4-.5.2-1.2-.3-1.5-.5-.4-1.2-.2-1.5.3m-8.2 1.3c-.3.5-.1 1.5.6 2.3.9 1 .7 2.1-.5 4.5-.9 1.8-1.4 3.4-1.1 3.8.3.3.1 1.1-.5 1.9-.9 1-1.5 1-2.5.2-.8-.6-1.4-1-1.5-.8-.9 5.2 0 8.5 1.6 5.9.4-.6 1.8-1.6 3.2-2.1s2.3-1.2 2-1.5c-.3-.4 1-2.2 3-4 2-1.9 3.3-3.5 2.9-3.5-.3-.1-1-.2-1.6-.3-1.3-.1-.8-2.1.5-2.1.6 0 1-.5 1-1 0-.6-.8-.9-1.9-.7-1.6.2-1.7 0-.6-1.3 1.4-1.7 1.4-1.7-1.8-2-1.2-.1-2.5.2-2.8.7m11.2 8.7c-.4.6-1.3.8-2 .5s-1.8.2-2.5 1c-1.9 2.3.7 3.1 3.1.9 1.1-1 2.2-1.7 2.4-1.6.5.3.4-1-.1-1.5-.2-.2-.6.1-.9.7m3.9.1c-1.1 1.7.5 3.2 2.1 1.9.7-.6 1.1-1.5.8-2-.7-1.2-2.1-1.1-2.9.1m.4 4.5c-.5 2.3-.1 5.5.5 5.7 1.4.5 3-2.8 2.3-4.6-.6-1.5-2.6-2.3-2.8-1.1m-12.1 3.8c-2.7 3.6-2.9 5.4-.9 6.6 1.1.7.9 1.1-.8 2-1.2.7-2.6.9-3.1.6-1.7-1.1-3.2.5-1.9 2.1.6.7 1.6 1.1 2.3.7.6-.4 1.7-.8 2.4-.9 1.6-.3 4.2-2.3 4-3.2-.2-2.2.4-3.3 1.6-2.9 1.6.7 6.2-3.8 4.8-4.7-.5-.3-1.5.1-2.2.9-1 1.2-1.6 1.3-2.6.4-1-.8-1.1-1.5-.4-2.4.7-.8.7-1.6.2-1.9-.6-.3-2.1.9-3.4 2.7m15.8 1.6c-.4.5-.2 1.2.3 1.5.5.4 1.2.2 1.5-.3.4-.5.2-1.2-.3-1.5-.5-.4-1.2-.2-1.5.3m-24 3c-.4.5-.2 1.2.3 1.5.5.4 1.2.2 1.5-.3.4-.5.2-1.2-.3-1.5-.5-.4-1.2-.2-1.5.3m10.8 5.2c-.2.5.7 1.6 2.1 2.5 1.3.9 2.3 2 2 2.4-.3.5-.1 1.1.4 1.4.5.4 1.2.2 1.5-.3.4-.5.2-1.3-.4-1.6-.8-.5-.8-1.1 0-2 .8-1 .8-1.5-.2-2.1-1.7-1.1-4.8-1.2-5.4-.3m13.1-.1c-.4.6-.3 1.6.3 2.2s1.2.6 1.7-.2c.4-.6.3-1.6-.3-2.2s-1.2-.6-1.7.2m-15.9 1.9c-.4.5-.2 1.2.3 1.5.5.4 1.2.2 1.5-.3.4-.5.2-1.2-.3-1.5-.5-.4-1.2-.2-1.5.3m12 0c-.4.5-.2 1.2.3 1.5.5.4 1.2.2 1.5-.3.4-.5.2-1.2-.3-1.5-.5-.4-1.2-.2-1.5.3M467 271.8c-4.1 2-8 7.5-8 11.1 0 4.3 2.8 10.9 6.7 16.1 4 5.3 4.4 5.6 7.3 4 3.3-1.8 8-14.3 8-21.2 0-3.4-.6-4.7-3.9-7.9-4.4-4.4-5.2-4.6-10.1-2.1M527.5 539c-.8 1.2 2 2.4 3.5 1.5.6-.3.8-1.1.5-1.6-.8-1.2-3.2-1.2-4 .1m13 2c-.7 1.1 1.2 2.1 3.5 1.7.8-.1 1.7-.6 2-1.1.7-1.3-4.7-1.9-5.5-.6m-9 .9c-.7 1.2 1.2 2.4 2.5 1.6 1.1-.7.4-2.5-1-2.5-.5 0-1.1.4-1.5.9M227.6 902.2c-.6 2-3.5 33.1-4.1 43.3-.3 4.9-.9 16.6-1.5 25.9-1.2 19.2-.9 20.1 5.9 23.5 4.7 2.5 7.8 3.2 15.5 3.6 4.8.3 6.6 0 8.8-1.6 1.5-1.1 2.8-2.8 2.8-3.7 0-1.9 2.1-8 3.4-10 .4-.7 1-2.8 1.3-4.5.3-1.8 1.6-6.4 2.9-10.2 1.3-3.9 2.5-7.9 2.7-9 .1-1.1.5-2.5.8-3 1.9-3.4 12.1-36.5 11.7-37.7-.5-1.2-14.3-5.6-18.3-5.9-.5-.1-1.9-.6-3-1.2s-2.2-1.2-2.5-1.2-1.5-.6-2.8-1.3c-2.5-1.4-21.1-8.2-22.4-8.2-.5 0-1 .6-1.2 1.2"/></g></svg>