<svg version="1.1" xmlns="http://www.w3.org/2000/svg" xmlns:xlink="http://www.w3.org/1999/xlink" width="1024" height="1024" viewBox="0 0 1024 1024"><path stroke="none" fill="#ECD2A8" fill-rule="evenodd" d="M350.1178720619324,606.0940106745188C349.03214052697274,605.4063680688865 349.19297752057395,605.0735266553893 350.8678720619324,604.5419357784788C353.4365474576694,603.7266698782086 357.2582285627522,604.7731604142259 356.45550378569396,606.0719963871178C355.73423726213895,607.2390301371773 351.9465379633355,607.2521870236275 350.1178720619324,606.0940106745188zM714.1997031050253,585.7406275208915C713.5766324058616,584.9898732566501 713.4693807258898,583.8585600205961 713.9478789634018,583.0843336087448C714.5816942461009,582.0587989387484 714.9491890317735,582.2645483132355 715.4819827156856,583.9432325638777C716.331112183294,586.6186026124935 715.682686363168,587.5275130321887 714.1997031050253,585.7406275208915zM787.1868312068883,552.6179182402227C786.5060608397516,551.0327732723451 786.2302284539318,548.8499748764492 786.5738703495108,547.7672551382318C787.5961606752825,544.5463035367487 789.1761296699804,547.3036101111072 788.7805191838236,551.618221428437L788.4245955107732,555.5L787.1868312068883,552.6179182402227zM483.32262051022906,327.3561796200698C478.32379152897096,326.26280781165735 478.5,329.5319640103696 478.5,237.88318412228293L478.5,152.07277561426758L480.2857142857137,150.2863878071338L482.0714285714274,148.5L664.0000000000034,148.5L845.9285714285793,148.5L847.7142857142896,150.28571428571826L849.5,152.0714285714365L849.5,238.00000000000057L849.5,323.9285714285646L847.7142857142891,325.7142857142823L845.9285714285782,327.5L787.0692732764012,327.5L728.2099751242242,327.5L726.1616681758653,325.6463076883474C725.0350993542678,324.6267769169384 723.8372057697218,322.3767769169384 723.4996824324297,320.6463076883474C723.1621590951377,318.91583845975634 720.6446996734378,309.625 717.9053281619856,300.0C715.1659566505335,290.375 712.0396083483855,279.35 710.9578874905458,275.5C709.8761666327059,271.65 706.5386500653659,259.95 703.5411840075681,249.5C700.5437179497703,239.05 696.6769300196012,225.1054813790151 694.9483219405257,218.51218084225576C693.2197138614503,211.91888030549646 691.1442956119613,205.24593032661429 690.3362813861061,203.6834031114065C687.8883880073935,198.94969929559025 683.9039170418848,198.0112626207482 665.7821186308945,197.9003199746494C656.8269533839025,197.84549596070653 648.375,197.49226229190668 647.0,197.11535626620528C645.246190696948,196.63461350674967 643.6045711636624,194.65710512145426 641.5,190.49001105155872C639.4659871099384,186.46262381057934 637.3730150384052,183.89791634796785 635.0,182.5249747600028L631.5,180.5L576.0,180.5L520.5,180.5L517.259417703085,182.27081006269412C515.4770974397817,183.24475559717592 513.2270974397817,185.2494481304757 512.259417703085,186.72568235891592L510.5,189.40974459244356L510.0,256.66984686818876L509.5,323.929949143934L507.7391453715753,325.69011491467734C506.31734131745105,327.1113627498906 504.0067548409034,327.4870717248807 495.7391453715753,327.6413544573831C490.10761541720893,327.74644503196237 484.52017922960306,327.6181163551714 483.32262051022906,327.3561796200698zM539.0079968422658,327.1694121099023C537.637395105512,326.7537185586119 535.9506198723815,325.3080443810833 535.2596074353091,323.95680282650534C534.2858134074439,322.0525954845564 534.0590900833441,308.74344385601205 534.2516105930433,264.78519854594236L534.5,208.0703970918847L536.2870955930732,206.28519854594236C537.7936323895468,204.78026097634753 539.866000673674,204.5 549.487609256071,204.5C557.5193951919074,204.5 561.286046496247,204.88517136123315 562.2005136629978,205.8000000000004C563.2370728498893,206.83696891963362 563.5,219.01733125663395 563.5,266.00000000000045C563.5,310.47077092610516 563.2060888288097,325.1939111711903 562.3002569025377,326.09974309746224C560.9063237460801,327.4936762539198 542.8162886272744,328.32443934648643 539.0079968422658,327.1694121099023zM593.0079968422658,327.16362221712524C591.637395105512,326.75111310686225 589.9506198723815,325.3080443810833 589.2596074353091,323.95680282650534C588.2858134074439,322.0525954845564 588.0590900833441,308.74344385601205 588.2516105930433,264.78519854594236L588.5,208.0703970918847L590.1980813760188,206.37283145563822C591.4061941293636,205.16508562922937 594.1473477519986,204.54608352344803 599.6980813760188,204.2275594955538C609.4138229205707,203.67003010568033 615.7659052234558,205.2020380707895 616.5246942769318,208.28583578367736C616.824339730201,209.5036261026548 616.9413657487743,236.02166415034577 616.7847520959834,267.2148092229906L616.5,323.9296184459812L614.773379593651,325.6557153436252C613.4504308687222,326.97826295249473 610.9956048749348,327.44398088957905 604.273379593651,327.6477255112545C599.448020817143,327.7939778097464 594.3785985790196,327.5761313273882 593.0079968422658,327.16362221712524zM645.6980910068959,327.2787365715086C643.8522557404629,327.0009963741191 642.5726722551175,326.0062421773382 641.9480910068959,324.36346900151375C640.6678691737366,320.99623040348166 640.6931747766018,228.93721081701034 641.9752491529363,225.5650996611745L642.9504983058725,223.0L654.8644651906266,223.0C664.783844640423,223.00000000000003 667.1126856380209,223.29297781712344 668.7749782315498,224.75C670.1144568765374,225.92407134389808 672.3311036039561,232.09473551641872 675.5104162617358,243.5C678.116806792445,252.85 681.4904388136407,264.775 683.0073763088374,270.0C684.5243138040341,275.225 686.5568925748402,282.425 687.5242180217397,286.0C689.8859804737972,294.72850062320634 694.664602585441,311.3128201498988 696.6307986753445,317.6046006205389C698.5655218922044,323.7956686500405 697.5585572800214,326.43828854399567 692.910515696064,327.3678968607872C689.5053393813822,328.04893212372355 650.3249959722702,327.974940356188 645.6980910068959,327.2787365715086z"/><path stroke="none" fill="#F6CF9B" fill-rule="evenodd" d="M177.24376941012508,811.335642434954C176.5528425856939,811.0570878794418 176.24190023316262,810.4176141952313 176.55278640450004,809.9145898033751C177.30143403777868,808.703252487133 856.6866181360265,808.6839204982579 857.4352394379846,809.8952152095284C857.7395398226886,810.387583574769 857.279293109439,811.062583574769 856.4124689640967,811.3952152095284C854.5196410156943,812.1215614450116 179.0462028512061,812.0623127975266 177.24376941012508,811.335642434954zM164.88228271265257,808.6194218687979C162.89253820461147,807.9083860031002 159.69462350259948,806.3563519171158 157.77580559707042,805.1704572332769C152.75446868152443,802.067100350505 145.56933281182415,794.0570367661644 142.6640256795497,788.3236890987514C139.9372264055591,782.9426097342443 136.55559392494033,768.5280811286285 137.61707239229065,766.8105728901294C138.68476802960433,765.083005059316 139.7112317582204,767.9131905827725 140.48263242949866,774.7115501071576C140.9671063476357,778.981222144421 142.4867991077855,783.5130544795331 145.34372431446462,789.2076732485668L149.5,797.4922462828187L155.82992511856787,801.706051225984C159.3113839337802,804.0236439447249 164.4863839337802,806.8144410552809 167.32992511856787,807.9078225827752C172.97111264797215,810.0769384270537 170.75991617501185,810.7197961531707 164.88228271265257,808.6194218687979zM863.0,809.0981306280942C863.825,808.5110028346112 865.2156249447305,808.0237348005014 866.0902776549567,808.015312774517C869.4607697516968,807.9828583252403 879.9858517017279,801.7390104819781 883.9868532933508,797.3984362758752C890.750415154562,790.0608380560636 892.811048472376,784.2847751680735 895.0734920303333,766.3220084574735C897.4866724237664,747.1624602400725 897.8340862906165,745.4340862906168 899.0314218691564,746.6314218691564C900.2397238015516,747.8397238015513 897.5201293945937,769.2163412282537 894.9358911954258,778.8232046392925C893.8524264475986,782.8509671909034 892.015773874174,788.0089187196094 890.8544410322597,790.2853191475281C888.0865299676917,795.7108730494034 879.3494842079059,804.168313277341 873.6743689993646,806.9155894156142C868.789289726976,809.2804157187717 860.3068145565851,811.0147900545584 863.0,809.0981306280942zM136.59229050047736,759.790898201145C135.36085181705215,753.7414886872275 135.08376848771255,749.0662622161573 135.92583732339742,748.545835054837C136.99768882833527,747.8833943938927 137.57731938428742,749.6225731744676 138.46391724079956,756.1613320130641C138.84177257757142,758.9480575898067 138.68628740052253,761.0758510604262 138.07729313704522,761.452230214209C137.51703041727984,761.7984916176534 136.8487792308243,761.0508922117746 136.59229050047736,759.790898201145zM230.24376941012508,760.335642434954C229.5528425856939,760.0570878794418 229.24190023316262,759.4176141952313 229.55278640450004,758.9145898033751C230.1970828929138,757.8720961862894 237.99213007958676,757.6760136156261 240.5020583266527,758.6391634545703C241.83074760424833,759.1490293701472 241.89786549530567,759.4493694522607 240.83384579488848,760.1238506800532C239.40404250445192,761.0302018298084 232.31806004630215,761.1719149398448 230.24376941012508,760.335642434954zM258.00452156982544,760.0027944838346C256.0571191563597,758.7992336025393 258.89170612647024,758.298907203884 266.0,758.5915310543907C274.6553904788657,758.9478435162313 274.4163041403671,758.9170291929662 273.7437583335046,759.5895749998288C272.8541737318728,760.4791596014607 259.3489967748747,760.8337258575866 258.00452156982544,760.0027944838346zM282.1661542051115,760.1238506800532C281.1087146804665,759.4535406203624 281.1897142677487,759.1411774131276 282.5570315856747,758.6164885276643C283.5056293321731,758.2524774178523 285.17781751200334,758.2390494153619 286.2730053186308,758.58664852213C287.8542212936905,759.0885069771017 287.97965068175876,759.3989001661549 286.8821279380676,760.0940106745188C285.1466623348647,761.193159083629 283.8658138676064,761.2012635658666 282.1661542051115,760.1238506800532zM295.1661542051115,760.1286589725034C293.0144279883923,758.7569248480141 296.0856182793131,758.0470908572545 300.0886514301908,758.9909385713577C302.30131326828064,759.5126469208142 302.7381289861802,759.8312450280192 301.3317874682358,759.8976385193907C300.1392705757655,759.9539373337258 298.5642705757655,760.22027298307 297.8317874682358,760.4894955179332C297.0993043607061,760.7587180527964 295.8997693923002,760.5963416073531 295.1661542051115,760.1286589725034zM321.34938040808595,759.75C321.09230248982624,759.3375 321.02102365871883,758.9838980900224 321.19098300562507,758.9642179778277C325.65283804031384,758.4475661473883 333.08379475677,758.5223489431519 334.5564163572726,759.0987234676006L336.5,759.8594294747793L334.5,760.0577268742829C329.12637604293724,760.590514702581 321.7658637019185,760.4182773840279 321.34938040808595,759.75zM353.1661542051115,760.1238506800532C350.57796819400323,758.4832016602624 354.9716038995185,757.9998287760477 372.3317874682358,758.015312774517C388.54668168945244,758.0297752596807 394.5554155869104,758.8054174226069 390.5020583266527,760.3608365454297C388.0164660755169,761.3146477865124 354.71118729539944,761.1032459067663 353.1661542051115,760.1238506800532zM398.1661542051115,760.1238506800532C395.5219059432875,758.4476638448622 400.1220702365549,757.9999676863309 419.8317874682358,758.015312774517C438.2714725203106,758.0296690734899 444.68149652510925,758.7570356270469 440.5020583266527,760.3608365454298C438.011258665805,761.3166460571126 399.70960505056047,761.1022429230422 398.1661542051115,760.1238506800532zM449.1483399795831,760.0916791492729C448.09728644054235,759.4420923381498 448.1424103098187,759.1593296449753 449.37245077257114,758.6873188315269C451.3944098947005,757.9114203152617 599.5918828981967,757.9061603663649 601.6134680213811,758.6819153657693C602.8593749655018,759.1600147193952 602.9049481522608,759.4407112838464 601.8432023768162,760.0969062604828C600.11786385838,761.1632241069758 450.8738696387867,761.1581151272567 449.1483399795831,760.0916791492729zM610.5,760.0853388908772L606.5,759.4544883774693L612.0,758.7359362839597C619.7016107739613,757.7297529121371 669.2114990950472,757.8477450586489 670.8338457948885,758.8761493199469C671.8978654953057,759.5506305477394 671.8307476042484,759.8509706298528 670.5020583266526,760.3608365454298C668.3893771305288,761.1715483879557 615.8579280888505,760.9303518122907 610.5,760.0853388908772zM686.5535515133779,760.0977185346244L684.6071030267557,759.3360075944694L687.0535515133779,758.6816584805272C690.3637169613266,757.7962918604197 705.0255773547769,757.9549129434212 707.4464484866222,758.9022814653756L709.3928969732444,759.6639924055306L706.9464484866222,760.3183415194728C703.6362830386734,761.2037081395803 688.9744226452231,761.0450870565788 686.5535515133779,760.0977185346244zM716.0,760.0485164315571L713.5,759.3340747616363L717.5,758.6931140453016C719.7,758.3405856513175 729.825,758.2144910353036 740.0,758.4129037874928C761.8987902108541,758.8399307393702 761.5166805646015,758.8166527687322 760.6617252981528,759.6716080351805C759.7399006222475,760.5934327110854 719.1067164894886,760.9363435182455 716.0,760.0485164315571zM805.8237064653059,758.9299974179918C808.2017450212242,758.4620182319428 812.557237194334,756.9758721271298 815.5025779611055,755.6274505184075C819.1909624502501,753.9388522405619 821.4245642822248,752.1368664868892 822.6788714957996,749.8378874330925L824.5,746.5L825.0177036814317,647.5L825.5354073628635,548.5L828.4601650181796,541.5C833.1647529909698,530.2402240832935 843.4837118305828,521.4910885851909 855.0,518.9976704566509C858.4472929386212,518.2512891069401 866.6581211841365,517.9362007844553 877.0,518.1534263819494L893.5,518.5L899.1751462706965,521.1604071024385C905.4473015437587,524.1006813509125 913.3606192208188,530.862893765733 915.6024574543179,535.198130869049C916.3993540152978,536.7391588910721 916.8570166038742,538.0 916.619485428932,538.0C916.3819542539899,538.0 914.6029001013213,535.7941986646931 912.6660317563351,533.0982192548737C909.996089239193,529.3818540872306 907.5009582869393,527.3867263932879 902.3484814468545,524.8482192548737L895.5525099464397,521.5L874.4612169478546,521.1808110071363L853.3699239492694,520.8616220142725L847.7030248216721,523.3677937459158C840.8914315187345,526.3802035663304 834.7766698364247,532.5284246689963 831.1613332012053,540.0L828.5,545.5L828.0,644.5C827.603366379945,723.0334567708998 827.229275643163,744.1201982796697 826.1904622325885,746.5C823.9457921574302,751.6422802709892 817.9617883665775,756.9338666248924 812.5859432933604,758.530321050311C809.8640231318416,759.33864447264 806.2561730974869,759.9506954497045 804.5684987725722,759.8904343326768L801.5,759.7808686653536L805.8237064653059,758.9299974179918zM218.5,757.1292976218772C214.0067270260326,754.3386362265182 211.2414414248663,750.935770967323 209.5338007334156,746.0958014873684L208.0,741.7485469535371L207.99442306559718,644.1242734767686C207.99094255984681,583.1979973785233 207.61917952094743,545.1843129659203 207.00545638701465,543.0C206.46459202771584,541.075 204.3245170393771,537.025 202.24973419070636,534.0C199.1956970649312,529.5472630249529 197.1503296347989,527.8335598932118 191.50790468112956,525.0L184.53840762368137,521.5L161.51920381184067,521.5L138.5,521.5L135.0,523.3680546189528C128.47605348847497,526.8500798802828 124.78852160876365,530.2541367212908 120.89826067003602,536.3857379372686C118.76466771141477,539.7485820717709 117.01472557758434,541.7917101084854 117.00950037263507,540.9260224633008C116.99601426701868,538.6917072302938 123.14556612064378,530.3286802396947 127.3509775753755,526.8622248032808C129.30547117516997,525.2511660430683 133.5135667842628,522.7105959695159 136.70230115113728,521.2165135287199L142.5,518.5L158.5,518.1734952296979C176.07491067589322,517.8148519688658 183.82961398505736,518.8507533980503 190.96667249208548,522.5105112436657C198.01274118386436,526.1236111152851 204.33843208310358,533.3981131797252 207.89768615402346,541.981063282755L211.0,549.4621265655101L211.0,647.7709013500514L211.0,746.0796761345929L212.94555071016822,749.893270574809C214.41994344497976,752.7833190874413 216.11514769242464,754.2334355663055 219.94555071016822,755.8812306494426C222.72549781957568,757.0771317483723 225.0,758.2680871199916 225.0,758.5277981419301C225.0,759.6483852174814 221.26060049811298,758.8438387331622 218.5,757.1292976218772zM134.6484587366836,742.5262814435525C134.3398477723314,741.722054161917 134.47054146089926,740.8272233727981 134.9388891557233,740.5377685788442C135.40723685054732,740.2483137848903 136.04293029896422,740.6694912748118 136.3515412633164,741.4737185564475C136.6601522276686,742.277945838083 136.52945853910074,743.1727766272019 136.0611108442767,743.4622314211558C135.59276314945268,743.7516862151097 134.95706970103578,743.3305087251882 134.6484587366836,742.5262814435525zM898.6909830056251,741.309016994375C898.3835236587189,740.8115373209218 898.4960236587189,739.8154508497188 898.9409830056251,739.0954915028126C899.3859423525313,738.3755321559063 900.0015576474688,738.1935033321719 900.3090169943749,738.690983005625C900.6164763412811,739.1884626790782 900.5039763412811,740.1845491502812 900.0590169943749,740.9045084971874C899.6140576474687,741.6244678440937 898.9984423525312,741.8064966678281 898.6909830056251,741.309016994375zM133.5650147935551,733.8946445105805C133.26488189164905,732.5775900297613 132.56616349179177,727.6963084296185 132.01230723831668,723.047352065819C131.38230413063857,717.7592345474609 131.35796367622885,714.2420363237711 131.94729244476162,713.6527075552383C133.09890113022618,712.5010988697737 133.6198688188264,714.6769819416164 134.90358200308364,726.0C135.4570996031224,730.8823131660039 135.49344479209879,734.8807698431805 134.98897748380804,735.3946445105805C134.47862224483228,735.9145169074127 133.88211547480947,735.2861576384804 133.5650147935551,733.8946445105805zM253.27661467749644,732.4723226353124C244.21870604519177,729.6199957227974 237.20972311734593,721.4126892050489 235.02003841678538,711.0944253171403C234.22658008374287,707.3554794943481 233.90916871153746,700.8210348784727 234.17962692022562,693.7931473551748L234.61422755861187,682.5L238.24402780312772,674.9592928972962C241.32403082824644,668.5607587843097 242.66996111173788,666.9027091971659 247.12995501366416,664.012731902621C250.02082484497546,662.1395122620368 254.64728132165118,660.0203304582534 257.4109694062768,659.3034390053248C261.47769520004135,658.248543925387 311.161530895256,658.0022631951832 517.9679284164345,658.0118688753865C733.3276887017727,658.0218718395635 774.323568448137,658.2429867664425 778.7386368830269,659.4183589053974C785.0095425530794,661.0877889310678 792.7720707535658,666.5557205876252 795.4119807513994,671.1630769152887L797.3239615027987,674.5L792.9066768053113,669.8193515854159C790.4771702216933,667.2449949573946 786.3169714679567,664.2074949573947 783.6617906858969,663.0693515854159L778.8341892639697,661.0L517.6670946319848,661.0219620004909L256.5,661.0439240009819L252.5,662.8754481378375C247.16712961419557,665.3172683454183 239.4376361814611,673.7609399589352 238.08905008640028,678.6179194612432C237.49620716672308,680.7530637575594 237.00864424832417,689.3903664385703 237.0055769344027,697.8119254190451L237.0,713.1238508380901L239.58813003073433,718.5947084569417C241.5399560413596,722.7205298314854 243.44204846797857,724.9179977795245 247.32478165478207,727.5327830378967L252.47330324809548,731.0L517.8023930781371,731.0C711.0447507514664,731.0 783.724919763749,730.6969066195245 785.3157414540893,729.8844064868933C786.5170836543402,729.2708300546848 789.6851353944439,726.6833300546848 792.3558564320977,724.1344064868933L797.2117128641952,719.5L795.1860654258879,723.5529393164155C793.0880425906362,727.7506881817536 791.3311693434299,728.8998940305343 782.0934495470069,732.1170806213013L776.6868990940137,734.0L517.0934495470069,733.9011313513753C304.09105820146823,733.8200073529734 256.7419993967053,733.5635690254078 253.27661467749644,732.4723226353124zM899.6909830056251,733.309016994375C899.3835236587189,732.8115373209218 899.4960236587189,731.8154508497188 899.9409830056251,731.0954915028126C900.3859423525313,730.3755321559063 901.0015576474688,730.1935033321719 901.3090169943749,730.690983005625C901.6164763412811,731.1884626790782 901.5039763412811,732.1845491502812 901.0590169943749,732.9045084971874C900.6140576474687,733.6244678440937 899.9984423525312,733.8064966678281 899.6909830056251,733.309016994375zM900.7458015032018,725.3977151866666C900.4124376783606,724.8583211874536 900.7883934245663,719.2606740889574 901.5812587169924,712.9584994122306C903.3744597257617,698.7050491783752 903.8714058369508,696.4675529274515 904.9911795889566,697.6053554894194C905.4989476680842,698.1212988398347 905.2451351041462,703.5795750359374 904.391572191545,710.5C902.8750836906582,722.7952212711158 901.8148820660973,727.1275238741432 900.7458015032018,725.3977151866666zM798.5,697.1068446874315L798.5,678.0807931462066L800.3292602744598,681.6483249793841C801.8762585019946,684.6653726350163 802.103267263069,687.0894261617701 801.8004396735737,697.357928406281C801.5704826576368,705.155481258789 800.9159604466944,710.6866484953363 799.9711793991139,712.8164481143281L798.5,716.1328962286563L798.5,697.1068446874315zM130.54234595459587,706.8946445105805C130.22974519126223,705.5775900297613 129.10905612074265,697.075 128.0519257978857,688.0C126.94437262289603,678.4921419377438 126.5026616615162,671.1208799150422 127.00957984328983,670.6053554894194C128.218056150916,669.3763621789249 128.69569520394046,671.8726641214085 130.9118636676227,691.0C131.97653940021536,700.1890172939511 132.44413263846303,707.8964079118131 131.967164814034,708.3946445105805C131.47771912105995,708.905915386432 130.86715483713115,708.2631344323293 130.54234595459587,706.8946445105805zM904.6827826468791,692.3494493135457C904.038402932721,691.7050695993877 904.3490459635001,688.2210999556838 905.5869318236118,682.209101798855C906.4599049351989,677.9693629772587 907.9570590168474,681.0311186632888 907.3396544963023,685.7935081568397C906.6511191733687,691.1045696712283 905.7244637013282,693.3911303679951 904.6827826468791,692.3494493135457zM906.6909830056251,675.309016994375C906.3835236587189,674.8115373209218 906.4960236587189,673.8154508497188 906.9409830056251,673.0954915028126C907.3859423525313,672.3755321559063 908.0015576474688,672.1935033321719 908.3090169943749,672.690983005625C908.6164763412811,673.1884626790782 908.5039763412811,674.1845491502812 908.0590169943749,674.9045084971874C907.6140576474687,675.6244678440937 906.9984423525312,675.8064966678281 906.6909830056251,675.309016994375zM907.6909830056251,667.309016994375C907.3835236587189,666.8115373209218 907.4960236587189,665.8154508497188 907.9409830056251,665.0954915028126C908.3859423525313,664.3755321559063 909.0015576474688,664.1935033321719 909.3090169943749,664.690983005625C909.6164763412811,665.1884626790782 909.5039763412811,666.1845491502812 909.0590169943749,666.9045084971874C908.6140576474687,667.6244678440937 907.9984423525312,667.8064966678281 907.6909830056251,667.309016994375zM125.54018808400295,663.8946445105805C125.22640049184324,662.5775900297613 123.65969045201103,650.25 122.05861021770916,636.5C120.40124166188731,622.2665986036689 119.5226062148294,611.1147088664642 120.01842213370622,610.6053554894195C120.52168521984514,610.088351612159 121.12626460129995,610.7215203660952 121.45069286176184,612.1053554894195C121.75946497409217,613.4224099702387 123.31958627949282,625.75 124.91762909598553,639.5C126.53681183791684,653.431893733873 127.44408980503496,664.8960808205405 126.96693623422372,665.3946445105805C126.47769888512545,665.9058341840795 125.86617836157762,665.2629170825716 125.54018808400295,663.8946445105805zM908.743221132647,659.4098877993138C908.149384363861,658.8160510305278 908.3986916153092,656.123679190746 909.5951921104461,650.209101798855C910.4202669843315,646.1305667580981 912.0306828703356,648.9471120925066 911.3683958665431,653.310355834906C910.6402076649038,658.1077663169151 909.6776288847242,660.3442955513909 908.743221132647,659.4098877993138zM910.7438021287405,643.3944801308319C910.1704152175439,642.4667206198112 912.3527422866784,621.2774685024641 913.5543683095633,616.1053554894194C913.874575169026,614.7271013295126 914.4781356571142,614.0904366724938 914.9763739480914,614.6053554894194C915.4648711730241,615.110207119029 915.2060111720509,620.9461978523449 914.3822438595616,628.0C912.9001832823135,640.6906735970832 911.8414038849822,645.1704370785425 910.7438021287405,643.3944801308319zM235.87244471544216,639.3479159378854C234.7668838673945,638.0170940576256 234.39315595445663,628.0510837330771 233.95055672673652,588.0979159378854C233.6051368705959,556.9170719421408 233.00439400944308,537.3739381861755 232.33273202466938,535.4674702168513C229.13439735365384,526.3892095087896 225.18725309759984,520.1685893275785 217.4341512427701,511.9876057195913C211.42477865757255,505.6465851146364 208.95320251367917,502.267469215013 208.4801237667643,499.74574269441507C208.12072607372443,497.82998828800646 207.99913332996474,479.89097847005047 208.20991766952056,459.88127643229063L208.5931619232584,423.5L210.91133971519315,414.0C213.78779942269136,402.21213484301984 220.2157488961317,389.43462190700154 227.84684476015005,380.3355109301872C234.70962110670317,372.15252323103107 246.88274166486562,363.1278679112702 256.5,359.093229739613C260.35,357.47807535573486 267.325,355.3338536890991 272.0,354.3282927026446L280.5,352.5L563.2142768178177,352.5L845.9285536356354,352.5L847.7142768178177,354.2853187587509L849.5,356.0706375175018L849.770699629552,422.41577494595595C849.9441514729875,464.9266805167842 849.6819298210629,489.7063886467511 849.0407775730087,491.39274685510617C848.4904356456561,492.84025581948896 846.7936208123576,494.52539811757174 845.2700779434565,495.1375075175123C833.2922521944606,499.9498038312346 827.1846441757704,503.7377308574719 819.4859787550633,511.1287574248439C813.0359023726992,517.3210886015447 810.6132650133487,520.4813792224192 808.0449710508294,526.0533639498324C802.0428855736587,539.075054262346 802.0261962660469,539.2501382145543 801.9971270729895,589.5C801.9766889097745,624.830009838255 801.6739990279822,636.0798907696601 800.692183549015,638.0C799.6395565678177,640.0585933161572 798.8034867205603,640.4441816081933 795.9569253514119,640.1838607465075C794.0556164081354,640.0099841570867 776.6592259857865,639.5599841570867 757.2982799684146,639.1838607465075C721.6145906706981,638.4906368250803 718.9531304295707,638.1704816611445 720.2733593654385,634.7300202035683C720.5697678293222,633.9575921284172 725.1948418544234,631.4381197175882 730.5513016434411,629.1311926239483C743.3611643259209,623.6142242433385 754.8021453028682,616.0230614315176 763.84335215586,607.0417077897055C771.7738403601289,599.1637197873418 776.4859247554031,592.480619636114 780.483776176646,583.4407679590562C785.2998183107426,572.5508418524071 786.3465086217224,566.6178935789892 786.3833940734162,550.0C786.4381487557775,525.3315347204297 783.6919119883574,516.4840786505362 766.0501216842881,484.49299916372894C760.2999177943947,474.06575643289943 757.5046118577181,464.5610960802989 758.4296773805169,458.5817978555202C759.3469903089256,452.65260967455026 763.5523266424822,444.60024680327814 767.5770006210952,441.06653624702386C769.5002569780554,439.37789480001766 773.4197185297927,436.82247667932216 776.2869151805114,435.3878293121451C779.1541118312301,433.9531819449679 782.4978030388921,431.86438492011587 783.7173400864269,430.7460581458072C787.0159543761478,427.72119827314566 789.345221086514,419.7877708624492 788.5302744533658,414.35331734775923C787.706073115843,408.8571490425907 782.5263747577932,402.65885326323365 777.3223923899342,400.9413842027843C775.2074934917586,400.24340462352427 770.0345831668708,399.9348750915113 764.5031389201838,400.1768014001889L755.2295574827988,400.58239589329276L747.7034904993646,404.301979965251C741.9465895969412,407.1471947298325 738.5545193976491,409.75935391320894 733.2735577720769,415.41415603311475C726.0517797534475,423.1471653872227 720.80590964624,432.29575607908134 718.3892049069573,441.3718807371792C716.538079761843,448.32392676154484 716.6306907062656,467.80767540090415 718.5536406582136,475.9663324488927C720.5750874682228,484.5428901730856 727.1303045756729,498.12721952155715 735.3966879855764,510.87005850043033C739.0966157512333,516.573590675667 743.0439312806493,523.548590675667 744.1685002731674,526.3700585004303C745.2930692656855,529.1915263251936 746.7887990149932,534.7625 747.4923441605175,538.7500000000001C748.5398860551167,544.6871787742216 748.532292564987,547.3775956549663 747.4504094306707,553.6077140606717C746.7238001837305,557.7919567940411 744.9421655192115,563.6418470967744 743.4912212872949,566.607470288968C739.5797784143141,574.6021715627245 731.962836648565,582.4006725190403 724.4562699299609,586.0961431617345C720.9433533466733,587.8255463083952 717.3718367851574,588.972928765676 716.5195664599253,588.6458819556917C714.0927014448145,587.7146064695504 713.0732543315271,583.7713295757449 712.0039702569649,571.1793101867356C710.8826868029631,557.9749397773605 709.8529194231204,552.7236854748729 706.2819274714195,542.0C700.2655696598953,523.9328831462785 689.4084339948605,509.3577135820916 673.8404890022389,498.44896764832606C663.2359286857584,491.0181568196261 653.1494142966693,486.47369079367485 639.0,482.75163034323356L627.5,479.7265090002144L610.7520781574933,479.24790961723045C600.5860653593769,478.9573990990695 590.7611015425451,479.23002340582275 585.7520781574933,479.9416126980657C573.1298170150125,481.73474983926724 557.9168738406559,486.2613168773467 537.2707404026659,494.36709387733663C526.9468331811996,498.42031236287687 515.35,502.9140314702549 511.5,504.3531363381767C497.4923330954356,509.5891107876794 486.164183252343,510.42406561849486 475.92621760680964,506.97514450994225C469.8206138197382,504.9183153984989 459.53711868829095,498.4324127814165 451.7419673859258,491.7218974577669L447.98393477185164,488.48676648142936L444.51948174260843,469.9933832407147C439.22866570940045,441.75080418643694 436.77460143774783,434.9574924673449 430.26490833609785,430.53404157160014C426.02859391095586,427.6553914500144 420.4356569564549,427.206232642256 416.1867133059032,429.40344679704907C412.2170506288367,431.456239147607 404.4273133596278,440.1446354305951 396.6315389939671,451.2145936859948C392.86883020360375,456.557620213292 389.27494397026703,461.33800111748405 388.64512514210776,461.83766236197715C388.0153063139485,462.33732360647025 382.55,464.8770681710999 376.5,467.48153917226523C355.28764419348306,476.6132690176328 348.3829938277566,480.7064976303274 339.49595445723617,489.41835131744654C330.7869106483859,497.9557181787988 325.1613152928679,505.62469546383943 319.9082252082893,516.1209207669813C318.15231465045053,519.6294143451416 316.00896767091194,523.3161466460091 315.14523192042583,524.3136592133535C314.2814961699397,525.3111717806979 311.4014406828056,527.062273884443 308.7451086156834,528.204997221676C306.0887765485612,529.3477205589088 303.2594458098461,531.2192017224322 302.45770697409426,532.3638442517279C301.6559681383424,533.5084867810235 301.0,536.5031777692059 301.0,539.0187131143554L301.0,543.5924137418998L306.75,551.1744833259227C309.9125,555.3446215971352 314.5148077846662,561.5631393951563 316.97735063259154,564.9934117659695C319.4398934805169,568.4236841367829 323.3574400293285,572.905128265412 325.6830096299506,574.9521764962567C331.6419529498001,580.1974481825299 340.4343751591635,584.6155035633658 347.7540456272859,586.0425287367127C357.2191304867628,587.8878186881061 372.7747126639681,586.8106775678514 382.5,583.6365566688727C394.5990692136019,579.6876853273753 399.0,580.2793516745916 399.0,585.8548362108369C399.0,587.4218313577541 397.53950101499066,589.69901172895 394.96179323080645,592.1511262350164C390.1420390801673,596.7360482114209 374.6931923903502,604.3748100069881 367.0,605.9769788799147C363.1012660828213,606.788921414169 352.0379731469648,606.9200649759368 329.0,606.4274284319669L296.5,605.7324589753707L287.5412554893618,607.5152566956522C272.3566264573751,610.5370106913598 262.8603041513155,617.589215632414 258.45624352064465,629.1145093858779C257.03985101589365,632.8211658232971 255.3310914064051,636.3102553947117 254.65899994400343,636.8680417667993C253.669334607288,637.6893910453257 240.23277333248006,640.9961036665503 237.87244471544216,640.9991816400077C237.52728930893537,640.9996317380035 236.62728930893536,640.2565621720485 235.87244471544216,639.3479159378854zM525.0,639.2254116435054C524.175,638.9614263943532 522.4721425580044,637.809845929343 521.2158723511209,636.6663439434828C519.413450548076,635.0257152794852 519.0671380903459,633.9453711920402 519.5737460063959,631.5436247118686C521.1932990415586,623.865584794962 528.3726093054177,617.6357613765484 539.1794137510658,614.530869508317C542.3030913141519,613.6334089210192 551.9780913141519,611.9006568416944 560.6794137510658,610.6803093320398L576.5,608.4614956781222L576.8246137826964,605.6458586478976C577.0031513631793,604.0972582812741 576.4985059486861,601.1809217536966 575.703179528267,599.1651108088365C574.9078531078479,597.1492998639765 573.9626052188512,593.025 573.6026286638298,590.0C572.505757603095,580.7826359454825 576.7262788840138,568.6404524493003 584.1630194883928,559.6183967219963C585.7896043849108,557.6450672269573 590.0267610828738,554.4052212656826 593.5789232616438,552.418739030275C598.1671560212011,549.8528531247131 601.6970682582009,548.6612247455266 605.7686999751584,548.3037121138791L611.5,547.8004710800427L614.3942852534306,550.855555754361L617.288570506861,553.9106404286794L615.5913952166896,556.5008573189339C613.74971928834,559.3116100582722 611.7910312897642,560.3533428170673 605.2368702806646,562.0079354423824C599.7688937335495,563.3883216821606 595.1420214002677,567.4857399736444 591.5046655922954,574.1687608595416C589.1681452512944,578.4617184539038 588.5343744826107,581.0404134611158 588.1864018820226,587.6701567665589L587.7562778780393,595.8650885833114L589.9809365435665,600.4606201538952C591.2044988096065,602.9881625177162 594.6286578431449,607.1810175864712 597.5901788403186,609.7780758622395C607.162803598794,618.172635405646 604.6965477025229,620.3880997276343 583.4039541977749,622.5217147550197C547.7485029473078,626.094553666317 542.0613942021239,627.4692836197231 534.2777391003124,634.3968665092657C529.0716879728803,639.0303388613598 527.2893304152076,639.9579564435664 525.0,639.2254116435054zM914.6909830056251,609.309016994375C914.3835236587189,608.8115373209218 914.4960236587189,607.8154508497188 914.9409830056251,607.0954915028126C915.3859423525313,606.3755321559063 916.0015576474688,606.1935033321719 916.3090169943749,606.690983005625C916.6164763412811,607.1884626790782 916.5039763412811,608.1845491502812 916.0590169943749,608.9045084971874C915.6140576474687,609.6244678440937 914.9984423525312,609.8064966678281 914.6909830056251,609.309016994375zM118.62953822482947,604.4769753800188C117.70532901999867,602.0685247988024 119.06820223381204,600.3704862896774 120.24200711634279,602.4679592479205C120.86341551880557,603.5783544589035 120.86142070693951,604.5385792930605 120.2364070924531,605.1635929075469C119.60861778831718,605.7913822116828 119.04082130425006,605.5487619046469 118.62953822482947,604.4769753800188zM915.6504921834229,601.2435014678194C915.1242568651949,600.3920348368459 916.3731532275298,589.1179588305437 917.5489864065969,584.1053554894195C917.8656363674058,582.7554695704175 918.4770518928082,582.1010351103364 918.9503846275736,582.6053554894195C919.8077045879862,583.5188015616524 917.8822875785175,600.4510457548156 916.7977734885724,601.535559844761C916.4691471312015,601.8641862021319 915.9528705438842,601.7327599325082 915.6504921834229,601.2435014678194zM117.6484587366836,595.5262814435525C117.3398477723314,594.722054161917 117.47054146089927,593.8272233727981 117.93888915572329,593.5377685788442C118.4072368505473,593.2483137848903 119.04293029896421,593.6694912748118 119.3515412633164,594.4737185564475C119.6601522276686,595.277945838083 119.52945853910073,596.1727766272019 119.06111084427671,596.4622314211558C118.5927631494527,596.7516862151097 117.95706970103579,596.3305087251882 117.6484587366836,595.5262814435525zM116.66885049987827,587.3506631019909C116.37744768700139,586.3327983958959 115.39116547197995,578.525 114.47711224427505,570.0L112.8151972848116,554.5L114.74175919102262,548.5L116.66832109723366,542.5L116.22473772055818,552.0C115.9662622837842,557.5356372183203 116.45001257504705,566.906808503814 117.3839726392782,574.4566045326632C118.32590091414254,582.0708126999962 118.61814379111627,587.7818562088837 118.09273236534585,588.3072676346542C117.56732093957545,588.8326790604245 116.98021177192611,588.4382423416473 116.66885049987827,587.3506631019909zM918.6909830056251,577.309016994375C918.3835236587189,576.8115373209218 918.4960236587189,575.8154508497188 918.9409830056251,575.0954915028126C919.3859423525313,574.3755321559063 920.0015576474688,574.1935033321719 920.3090169943749,574.690983005625C920.6164763412811,575.1884626790782 920.5039763412811,576.1845491502812 920.0590169943749,576.9045084971874C919.6140576474687,577.6244678440937 918.9984423525312,577.8064966678281 918.6909830056251,577.309016994375zM919.8085598337484,569.4752265004151C919.4891967186205,569.1558633852871 919.4612250033529,565.1546464405958 919.7464004664869,560.5836332899898C920.0605631587908,555.5479903837974 919.7741987974453,550.2272227053269 919.0197610079713,547.0823731240805C918.3349338426535,544.2276931834363 917.9914218252816,541.6752448413849 918.256400969367,541.4102656972997C918.5213801134523,541.1452865532144 919.5501882524977,542.632076212378 920.5426412783569,544.7142427176632C921.883591477974,547.5275563135197 922.3378284250858,550.8357560790174 922.3110016002372,557.593180107845C922.2777832164855,565.9605775105917 921.2367804373214,570.9034471039881 919.8085598337484,569.4752265004151zM358.5,544.4979895806829C353.5686472856599,542.754479289645 349.8202329007046,538.7146147693322 347.50229498440297,532.6451809702747C346.0248287945265,528.7764909735605 345.9529010096818,527.7616770987938 347.0614868805747,526.4259128412741C348.0214429085471,525.2692365885601 349.2280008408952,525.0194492824194 351.4431176718887,525.5188069970186C353.1244029523499,525.8978221187015 358.15193240631464,526.4174879509395 362.6154053473659,526.6736199575478C368.590233733934,527.0164796105586 371.72170947979504,526.7252905669884 374.4875293020384,525.5696572575087C379.4740631268399,523.4861503925844 382.3189554539313,523.5899729041816 384.4392190065245,525.9328377581968C387.02661046224915,528.7918731350876 385.58626508738746,533.4663664915599 380.5732778511093,538.4793537278381C376.47580758290167,542.5768239960457 369.04098671718293,546.0507865610475 364.5718611680918,545.9561071759422C363.4323375256413,545.9319661227104 360.7,545.2758132048436 358.5,544.4979895806829z"/><path stroke="none" fill="#E7C08F" fill-rule="evenodd" d="M312.1178720619324,760.0940106745188C311.0314380867005,759.4059231818738 311.18997944248423,759.0744782084104 312.8589235026396,758.5447759408676C315.255122683537,757.7842518646518 317.32697880114756,758.6619201917678 316.45729490168753,760.0690983005625C315.73980143286065,761.2300271198304 313.9279725680008,761.24042872389 312.1178720619324,760.0940106745188zM792.1178720619324,760.0940106745188C791.0321405269727,759.4063680688865 791.1929775205739,759.0735266553893 792.8678720619324,758.5419357784788C794.0405424278696,758.1697446627027 795.9594575721304,758.1697446627027 797.1321279380676,758.5419357784788C798.8070224794261,759.0735266553893 798.9678594730273,759.4063680688865 797.8821279380676,760.0940106745188C797.1219575721304,760.5754607515647 795.825,760.9693744509659 795.0,760.9693744509659C794.175,760.9693744509659 792.8780424278696,760.5754607515647 792.1178720619324,760.0940106745188zM776.25,759.3106744863142C777.2125,759.0591469393098 778.7875,759.0591469393098 779.75,759.3106744863142C780.7125,759.5622020333186 779.925,759.7679972990495 778.0,759.7679972990495C776.075,759.7679972990495 775.2875,759.5622020333186 776.25,759.3106744863142zM615.6693514008626,323.58072685366324C614.8776610766613,321.517614939716 614.8831014272902,219.46820773380122 615.6750117549592,217.40452250000857C616.1604960520831,216.13937070162035 616.4394846041397,216.09281602735368 617.1034832564148,217.1661542051117C618.18366174054,218.91223727596048 618.186691733972,322.09453071663256 617.1066156000967,323.8338457948885C616.4411253768446,324.90552689535036 616.1586340041189,324.85577687916845 615.6693514008626,323.58072685366324zM640.6391634545703,323.5020583266527C640.2876235545566,322.58596003193435 640.0,300.76003378494045 640.0,274.99999999999955C640.0,249.23996621505867 640.2876235545566,227.41403996806505 640.6391634545703,226.49794167334704C642.496011262067,221.6590738522768 642.9693744509659,231.51186788388102 642.9693744509659,275.0C642.9693744509659,318.48813211611855 642.4960112620669,328.3409261477262 640.6391634545703,323.5020583266527z"/><path stroke="none" fill="#F09857" fill-rule="evenodd" d="M169.5,810.1100287215068C162.34632245583805,808.0265364431602 156.62720135265207,805.0726254659733 152.40432205529711,801.2801561183232C147.2267793394057,796.6303258334591 141.91109079494677,788.3111455537571 139.9155442216222,781.7349187699483C138.11562810970884,775.8033826675089 135.0934416249521,752.4997991457686 129.51006787563992,701.5C128.1251667757959,688.85 125.88648291295785,669.5 124.53521484711092,658.5C123.183946781264,647.5 121.1496007752336,629.725 120.01444594482113,619.0C118.87929111440867,608.275 117.52227631068537,596.125 116.99885749210267,592.0C116.47543867351997,587.875 115.29803776435556,578.3950274793004 114.38241102729286,570.9333943984453L112.71763514172432,557.3667887968907L114.41912744731424,549.7189064230356C116.36110045746666,540.9901092923913 119.7426869852044,533.9853441116368 124.33144370868916,529.1861040716034C126.07414966891012,527.3634613109853 130.84873192161731,524.2134613109853 134.9416264924829,522.1861040716034L142.3832529849658,518.5L160.11993008379062,518.1876750189474L177.85660718261548,517.8753500378948L184.62467886869294,519.9657944612848C188.461894870143,521.1509897670724 193.58117961303788,523.7203992458772 196.4463752773852,525.8991973356224C202.47782588154166,530.4857298430708 207.75152488231603,538.8382243157577 209.62699043359285,546.7746806012906C210.71512104773038,551.3793511835752 210.98273421397948,571.5070639456874 210.99420809323755,649.6058107819401L211.00847439574952,746.7116215638803L213.88764010052714,750.6861943393258C215.47118123815483,752.8722093658208 218.28177449911118,755.2995945139477 220.1334029026524,756.0803835573856L223.5,757.5L518.0730291844648,757.5L812.6460583689296,757.5L816.7987415702987,754.7518842901388C819.0827173310518,753.2404206497151 821.7498541980425,750.7855159647228 822.725712385834,749.2965405457112L824.5,746.5893125111448L825.0,647.5446562555724L825.5,548.5L828.448477367189,541.5C832.0667515424295,532.9098308813436 839.0022113665635,525.6078389014604 847.5,521.4416233390522L853.5,518.5L872.5,518.5C887.8082449094799,518.5 892.547117885068,518.8375834870839 896.8891006657998,520.2374083863425C905.6138828087954,523.0502171654493 913.3003349731803,529.7123599711829 917.5918660580071,538.1812889396567C918.9290519939543,540.8200983727795 920.6725602329811,546.0664880799978 921.4663288113998,549.8399327334754C923.2117734969027,558.1374883378712 923.3633720151519,556.4506649189362 914.4868483319494,627.5C913.6622796538288,634.1 911.640925220461,650.75 909.9949495911321,664.5C908.3489739618033,678.25 906.554267823211,692.875 906.0067137275939,697.0C904.4942465145581,708.3941751211672 900.9941696175244,737.6513618365917 898.0512286046848,763.5C895.9750612955742,781.7355328583741 891.9254532161068,791.9431137314959 883.6693904485386,799.7513540081441C877.2322940432381,805.8392916645746 872.4417749818108,808.390031052659 863.5894875197878,810.4430136493053L856.8758939543519,812.0L516.1879469771759,811.9287575224283L175.5,811.8575150448567L169.5,810.1100287215068zM255.33598489531542,732.9572587950972C250.433813107076,731.9876472617615 244.08893508902216,728.1998152217249 241.18677211940593,724.5103128740905C240.05247215104362,723.0682841389684 238.11592197921397,719.805187202537 236.8833272931178,717.2589863486876C235.01018715523728,713.3895951593125 234.56886862011996,710.465972086294 234.19531372930012,699.4515800187562C233.82850055213964,688.6359696544595 234.0676855286763,685.3079646143345 235.52957039579786,680.8868148933664C238.86191770160374,670.8088623181811 244.0926570947552,664.7324380643114 253.0,660.5918366515732L257.5,658.5L517.5,658.5L777.5,658.5L783.808219623863,661.412690997416C791.9478533238375,665.1709998727911 797.1892459502966,671.0536817414645 800.0454416397195,679.6365521651746L802.2024001110088,686.1182141664713L801.7493000750876,698.3091070832356C801.1953670606687,713.2129639061839 799.3531832000668,719.5766557438861 793.8710027858704,725.5241192362587C790.9497300985641,728.6933258924329 788.2276503765539,730.4149231410368 783.7437740144458,731.9291517736569L777.6116568350564,734.0L518.5558284175281,733.8904343326768C376.07512278788766,733.8301732156491 257.62619320289195,733.4102442237382 255.33598489531542,732.9572587950972zM562.960253796595,300.41666666666663C562.9383933847223,299.9125 562.730850044286,297.025 562.4990463734032,294.0C562.2672427025205,290.975 562.3783739045356,284.9 562.7460046001033,280.5L563.4144240465903,272.5L564.1696306098694,278.5C564.9399776491246,284.62028875313564 564.5083935394044,299.82493979392893 563.5367417252003,300.796591608133C563.2415337763401,301.0917995569932 562.9821142084677,300.9208333333333 562.960253796595,300.41666666666663zM562.5581050698615,259.1830728640454C562.1840659677289,258.00458000867957 562.3018866936371,256.2829757927416 562.8199289052131,255.35728571751662L563.7618238353516,253.6742128534712L564.4418949301385,255.8169271359546C564.8159340322711,256.99541999132043 564.6981133063629,258.7170242072584 564.1800710947869,259.6427142824834L563.2381761646484,261.3257871465288L562.5581050698615,259.1830728640454zM562.5581050698615,246.1830728640454C562.1840659677289,245.00458000867957 562.3018866936371,243.2829757927416 562.8199289052131,242.35728571751662L563.7618238353516,240.6742128534712L564.4418949301385,242.8169271359546C564.8159340322711,243.99541999132043 564.6981133063629,245.7170242072584 564.1800710947869,246.64271428248338L563.2381761646484,248.3257871465288L562.5581050698615,246.1830728640454zM562.4855142124115,232.6727921103623C562.0779168212796,231.1178277710616 562.1689938277221,227.5178277710616 562.6879075600616,224.6727921103623L563.6313870734061,219.5L564.4391400055113,225.31581592105408C564.9379342523588,228.90713129342325 564.8605205035384,231.96706383445422 564.2367466578612,233.31581592105408L563.2266003781058,235.5L562.4855142124115,232.6727921103623z"/><path stroke="none" fill="#E4874E" fill-rule="evenodd" d="M232.16615420511152,759.1183420947539C231.09991397449951,758.4468566886759 231.16148945467012,758.1520082901467 232.47306933042245,757.6487078680849C234.62996959129688,756.8210275782965 801.3523566681273,756.8142455276839 803.5091224034811,757.6418741951934C804.8329371565106,758.1498695801905 804.8984771386558,758.4486635305458 803.8338457948855,759.1222741238294C802.0939386405196,760.2231433565163 233.91424378997098,760.2192353184846 232.16615420511152,759.1183420947539zM209.60998985744536,717.5822118297398C208.81883006473788,714.4299801358356 208.97167896904583,641.2871662086482 209.77385842968823,639.1661542051115C210.1482803154469,638.1761596302754 210.46604735028518,638.1360464643784 211.00652011141398,639.0105497618783C212.0026976860382,640.6223989364506 212.10751803816638,716.0108466176212 211.11699182938628,718.4635487407359L210.32401070396284,720.4270974814716L209.60998985744536,717.5822118297398zM269.1661542051115,659.1238506800532C268.10213450469433,658.4493694522607 268.16925239575164,658.1490293701472 269.4979416733473,657.6391634545703C272.02439853345,656.6696709916874 765.3013835449916,656.9047227387936 766.8338457948856,657.876149319945C767.8978654952998,658.5506305477355 767.8307476042437,658.8509706298498 766.5020583266567,659.3608365454279C763.9756014665696,660.3303290083131 270.6986164550093,660.0952772612071 269.1661542051115,659.1238506800532zM209.71869437480098,625.1033088255997C208.82904273984627,617.1850240008697 208.76151743965315,559.7850505267118 209.63916345457017,557.4979416733474C211.40207229759037,552.9038748696292 211.96366483272004,560.9878325967752 211.897081413654,590.0C211.85732024313248,607.325 211.51262346032559,623.75 211.13108856297202,626.5L210.43738874960195,631.5L209.71869437480098,625.1033088255997zM154.11787206193242,519.0940106745188C153.03759734356657,518.4098241162244 153.21715755082127,518.0658522119151 154.9400437759103,517.5190293662993C156.15240858453532,517.1342397238243 158.32589646302011,517.1159627689336 159.77001683920986,517.4784139109865C161.83644834770223,517.9970552047293 162.08731387003957,518.3325103073508 160.94784512523194,519.0533952192062C159.11713020669518,520.2115970292125 155.91253846564916,520.2306536128106 154.11787206193242,519.0940106745188zM874.1178720619324,519.0940106745188C873.0321405269727,518.4063680688865 873.1929775205739,518.0735266553893 874.8678720619324,517.5419357784788C876.0405424278696,517.1697446627027 877.9594575721304,517.1697446627027 879.1321279380676,517.5419357784788C880.8070224794261,518.0735266553893 880.9678594730273,518.4063680688865 879.8821279380676,519.0940106745188C879.1219575721304,519.5754607515647 877.825,519.9693744509659 877.0,519.9693744509659C876.175,519.9693744509659 874.8780424278696,519.5754607515647 874.1178720619324,519.0940106745188z"/><path stroke="none" fill="#B18154" fill-rule="evenodd" d="M208.57142857142856,881.4285714285714C207.24371783731925,880.1008606944622 207.0,876.635301899586 207.0,859.0835589906835L207.0,838.3099751242241L208.84951466537453,836.6361873561164L210.69902933074906,834.9623995880085L233.9912548841086,835.2311997940042L257.28348043746814,835.5L258.3008874835622,837.1140772303538C258.8604613589139,838.0018197070485 259.0086192901919,839.5351551988282 258.6301273308468,840.5214894343087L257.94196013203737,842.3148244079096L255.93202491859915,840.1574122039548L253.92208970516094,838.0L233.16104485258057,838.0C218.3468988561305,838.0 212.05626592119876,838.3437340788014 211.2000000000001,839.1999999999998C209.50841633033272,840.8915836696669 209.5084163303326,877.1084163303326 211.2,878.8C211.86,879.46 213.8481956392939,880.0 215.6182125317642,880.0C217.3882294242345,880.0 219.58596003193432,880.2876235545566 220.5020583266527,880.6391634545703C223.24223492495426,881.6906678760283 220.1504886306438,882.9672454280625 214.82142857142856,882.984687225483C211.8842151705668,882.994300605807 209.55797353049664,882.4151163876395 208.57142857142856,881.4285714285714zM245.13035517368291,882.101725661866C244.1258245393305,881.4653710597365 244.69976855112796,880.9241597176114 247.28337870345635,880.0714914748647C249.54187964768798,879.3261189465736 250.9968151662355,878.1178018881732 251.3376323278265,876.7044530384817C251.63000422538033,875.4920038673167 252.38607877153072,869.775 253.01779798593847,864.0C254.42489783710005,851.1366875423028 255.78693268573582,845.3869326857357 257.1128718690169,846.7128718690169C257.72723359333634,847.3272335933364 257.7399185306415,849.2891370600241 257.1476388650727,852.09007543315C256.6347572643977,854.5155339449175 255.62660535330278,861.6526179661774 254.90730128486172,867.950262147061C253.9448478887809,876.3767250229577 253.1241987263548,879.8758012736453 251.799737852939,881.200262147061C249.8577645582834,883.1422354417166 247.31534152333342,883.4858806807783 245.13035517368291,882.101725661866zM782.5337064363703,881.0372451929522C781.486779326836,879.880403758479 781.024453433995,878.3786586634726 781.4077388082395,877.3798329889976L782.0580398679627,875.6851755920907L783.9348789007258,877.6997258159336C784.9671403687455,878.8077284390471 787.7665813984539,880.0477974048598 790.1558589667445,880.4554346288508C793.7213239508847,881.0637424569829 794.1415051706865,881.3456227679445 792.5,882.0280113463523C788.8786979959368,883.5334194136958 784.3887706918175,883.0870681221403 782.5337064363703,881.0372451929522zM817.1676188938388,882.3102589295253C816.2835393509434,881.9573610526683 816.8723556679018,881.147703557856 818.9176188938388,879.9039047319366L822.0,878.0293968679805L822.0,859.2146984339902C822.0,845.9143774297744 821.6482934372323,840.0482934372321 820.8,839.1999999999998C819.9473468620454,838.3473468620455 813.8596922674787,838.0 799.768615203661,838.0L779.9372304073223,838.0L779.2977624344519,839.6664268250951C778.9460550493731,840.5829615788973 779.4203903298217,846.9954615788973 780.3518408354487,853.9164268250951C782.2387002656798,867.9363757780435 782.4655494727143,873.3993167386802 781.061238036694,871.0C780.5783685113665,870.175 779.1995634821774,862.397304452759 777.9972268607181,853.7162321172424C776.2672060250177,841.2251911320328 776.0650161840485,837.626586577999 777.0280248535655,836.4662321172424C778.0288870088064,835.2602669964728 782.1008051418497,835.0 799.9674571533301,835.0L821.6900248757759,835.0L823.3450124378879,836.828740671584L825.0,838.6574813431681L825.0,859.6287406715841C825.0,874.6063868159075 824.6570384396913,880.9429615603087 823.8,881.8C822.5724473031165,883.0275526968835 819.5475837048468,883.2602690678079 817.1676188938388,882.3102589295253zM803.75,881.3377192982457C804.4375,881.0603070175439 805.5625,881.0603070175439 806.25,881.3377192982457C806.9375,881.6151315789474 806.375,881.8421052631579 805.0,881.8421052631579C803.625,881.8421052631579 803.0625,881.6151315789474 803.75,881.3377192982457zM233.73168362094543,702.7431620154234C233.43102981243823,701.9596707495291 233.53078270332503,700.7592095341295 233.95335671180504,700.0754704256465C234.5457542360635,699.1169510965451 234.84683619275722,699.1584782253867 235.26831637905457,700.2568379845766C235.56897018756177,701.0403292504709 235.46921729667497,702.2407904658705 235.04664328819496,702.9245295743535C234.4542457639365,703.8830489034549 234.15316380724278,703.8415217746133 233.73168362094543,702.7431620154234zM307.75,605.2942669930909C308.9875,605.0559140985074 311.0125,605.0559140985074 312.25,605.2942669930909C313.4875,605.5326198876744 312.475,605.7276358923335 310.0,605.7276358923335C307.525,605.7276358923335 306.5125,605.5326198876744 307.75,605.2942669930909zM359.07547042564653,588.046643288195C358.116951096545,587.4542457639366 358.1584782253866,587.1531638072428 359.25683798457646,586.7316836209454C360.04032925047085,586.4310298124382 361.24079046587053,586.530782703325 361.92452957435347,586.953356711805C362.883048903455,587.5457542360634 362.8415217746134,587.8468361927572 361.74316201542354,588.2683163790546C360.95967074952915,588.5689701875618 359.75920953412947,588.469217296675 359.07547042564653,588.046643288195zM165.16615420511152,519.1238506800532C164.10871468046656,518.4535406203624 164.18971426774874,518.1411774131276 165.5570315856747,517.6164885276643C166.50562933217313,517.2524774178523 168.17781751200337,517.2390494153619 169.2730053186308,517.58664852213C170.8542212936905,518.0885069771017 170.97965068175876,518.3989001661549 169.88212793806758,519.0940106745188C168.1466623348647,520.193159083629 166.8658138676064,520.2012635658666 165.16615420511152,519.1238506800532zM864.1661542051115,519.1286589725034C863.0915713457397,518.4436080741418 863.1399479823527,518.1602745286806 864.4150404301661,517.6709756464572C865.2855430411347,517.3369324519815 867.0107736488345,517.4707850622362 868.2488862250545,517.9684258914679C869.4869988012745,518.4660667206996 869.9743043607061,518.9017512343504 869.3317874682358,518.9366136995809C868.6892705757655,518.9714761648114 867.5642705757655,519.22027298307 866.8317874682358,519.4894955179332C866.0993043607061,519.7587180527964 864.8997693923002,519.5963416073531 864.1661542051115,519.1286589725034zM848.6816949906249,492.34836165729155C847.8181175139082,491.48478418057493 847.7765601100556,358.74584995601225 848.6391634545703,356.49794167334704C849.1490293701474,355.169252395752 849.449369452261,355.10213450469473 850.1238506800532,356.1661542051117C851.2015142473257,357.86620932710906 851.2429805663821,490.06896284847517 850.1663822161079,491.76502832395823C849.724736486936,492.46079390213526 849.0566272354686,492.72329390213525 848.6816949906249,492.34836165729155zM600.75,478.3377192982456C601.4375,478.06030701754383 602.5625,478.06030701754383 603.25,478.3377192982456C603.9375,478.6151315789474 603.375,478.8421052631579 602.0,478.8421052631579C600.625,478.8421052631579 600.0625,478.6151315789474 600.75,478.3377192982456zM562.6394801732292,324.3061468398959C561.6890089007086,323.3556755673753 561.894782263341,306.7142979317897 562.8761493199468,305.1661542051115C564.2955064844604,302.92706448290585 565.0,306.362413809857 565.0,315.5227704738609C565.0,323.2158967084052 564.2690517963224,325.9357184629891 562.6394801732292,324.3061468398959zM848.5246071442803,323.9172174428244C848.2270802607412,323.13774784927097 848.0998281100123,284.025 848.2418245871047,237.0C848.4114087418479,180.8387836085969 848.8431436679368,151.5 849.5,151.5C850.1569268577342,151.5 850.5876972898837,180.98520757342934 850.755622720288,237.444377279712C850.9926623707682,317.14083434024417 850.6726403650766,329.54469742593716 848.5246071442803,323.9172174428244zM563.2521834043084,211.5C563.2632827911553,209.3 563.468067649298,208.51774662466335 563.7072608668476,209.76165916591856C563.9464540843973,211.00557170717377 563.9373727678861,212.80557170717375 563.6870801634896,213.76165916591856C563.4367875590931,214.71774662466336 563.2410840174616,213.7 563.2521834043084,211.5zM529.094254073178,180.05825222080207C528.1106651207538,179.450360817245 528.1512395772257,179.15594153717132 529.2782006332377,178.7234860034871C531.32621234701,177.93759016977896 616.4492429117084,177.8514242677637 618.486478214814,178.63318480469223C619.8258137231192,179.14713606231274 619.89645156659,179.4508061027216 618.8338457948882,180.12650795691104C617.1634263531192,181.18871328661663 530.8171144178046,181.12303847165072 529.094254073178,180.05825222080207z"/><path stroke="none" fill="#47704C" fill-rule="evenodd" d="M0.0,512.0L0.0,0.0L512.0,0.0L1024.0,0.0L1024.0,512.0L1024.0,1024.0L512.0,1024.0L0.0,1024.0L0.0,512.0zM265.3288100938352,904.6359743770762C269.48007881233593,902.9014635571308 273.64943650597604,897.9674037117564 274.98821807054253,893.2049337876201C275.56104129515063,891.167220204429 277.8478943127073,878.025 280.07011366511284,864.0C283.31914108433205,843.4945492193549 284.4968597773751,838.1082706494624 286.08303402161226,836.5L288.0555555555561,834.5L517.9920634920593,834.5L747.9285714285625,834.5L749.6387415710736,836.2101701425026C750.8883536289418,837.4597822003645 752.6418998792135,845.6374901937639 756.1501079778786,866.5760946823498C759.2607457577477,885.141816084313 761.5951106661579,896.334197984901 762.7797183587172,898.3625266009917C763.7853461228167,900.0843992377053 766.137961735432,902.5241559118349 768.0077530534177,903.7842080990574L771.4073736315737,906.0752120758257L804.6320373539975,905.7876060379128L837.8567010764212,905.5L840.6783505382107,903.3954695421644C842.2302577421948,902.2379777903548 844.4,899.7629777903547 845.5,897.8954695421644L847.5,894.5L848.0,866.2835250313317L848.5,838.0670500626635L850.2129647249166,836.3562745921336C851.4994700110707,835.0714135239252 854.6114681199574,834.4552162334802 862.7129647249166,833.8811875705294C868.6458341262124,833.4608162174384 874.85,832.7040664196268 876.5,832.19952135317C883.918581106945,829.9310313546138 892.5723637319129,824.4741092733011 899.9906110688516,817.3867579870898C906.2164243772602,811.4386513852321 908.8020047336464,808.0358956904658 912.3060508947625,801.179010702167C914.7454107209534,796.4055548159752 917.4620808406959,789.35 918.3430956053014,785.5C919.9965621293823,778.2744160785295 920.5558242694872,773.9459795833446 931.457555591903,684.0C943.2292548085333,586.8762509287687 946.0000000000001,562.052360926934 946.0,553.7101265550607C946.0,543.591967473377 943.3397170949864,533.3930320676928 938.5839111623554,525.2784846137429C933.5493931607942,516.6883874125238 923.5833229272002,507.079748752304 915.0659601950327,502.6040013342609C911.1092740198447,500.52482160580774 906.4382886315673,498.36682168371993 904.6859926655272,497.8084459518435C902.9336966994872,497.25007021996714 895.9915972450056,496.4902692614689 889.2591049889013,496.119999377403C879.5282366643086,495.5848264653005 876.6575010212675,495.0860932956884 875.2591049889013,493.68777807848426L873.5,491.92877475059436L873.0,310.88226583648395L872.5,129.83575692237355L869.2342234575422,126.91787846118677L865.9684469150843,124.0L664.9345635306579,124.00000000000006L463.9006801462315,124.00000000000011L461.1275072925347,125.43406341645442C455.1385517254064,128.5310727031782 455.54379077503165,121.7401382291958 455.0,228.11790040336393L454.5,325.9291975589465L452.7147710788536,327.71459877947325L450.92954215770715,329.5L355.7147710788536,330.0391162110913L260.5,330.5782324221826L254.8067480998055,332.30547878856635C247.07320322013453,334.6517191318438 237.2306620285537,339.1512977378827 230.71579911063822,343.3188051806932C223.54104406878963,347.9084405136209 213.28906239801083,357.5993906553515 205.92668657418295,366.7513532833944C198.64961464004222,375.7972770417674 190.81964374539493,391.52685613654216 187.88260242855827,403.0L185.7066642994614,411.5L185.1033321497307,451.71611869684193L184.5,491.9322373936839L182.7167309635663,493.71611869684193L180.93346192713258,495.5L157.2167309635663,496.0135284245712L133.5,496.5270568491424L126.28795271403469,499.6504998963338C122.32132670675377,501.36839357228905 116.81413307265016,504.43423645459916 114.04974463824891,506.46348407924506C102.76759275095529,514.7453447733787 93.75741189490714,528.2653589567178 90.96643955721467,541.1005925990406C89.25403309113803,548.9756749801472 90.16981582678942,566.4888639392108 93.91562281101821,597.5C95.64290683471447,611.8 98.16085763341488,633.4 99.51106903035247,645.5C100.86128042729005,657.6 102.4281451639929,671.1 102.99299066746988,675.5C103.55783617094687,679.9 106.5140799195041,705.325 109.56242121981927,732.0C112.61076252013444,758.675 115.74854588314456,783.3071333877388 116.53527313761953,786.7380741949751C117.32200039209451,790.1690150022113 119.83359438513037,796.6940150022112 122.11659312214368,801.2380741949751C125.20948732694315,807.3941417020254 128.2087837926698,811.440241035753 133.88374995835665,817.1121586607583C145.14904579105539,828.371402878058 154.65824499633294,832.7627449286248 170.2906006244749,833.9248187815074C177.46548973820063,834.4581837608315 180.53789392742055,835.1087376054296 181.7906006244749,836.3598399415255L183.5,838.0670500626726L184.0,866.2835250313362L184.5,894.5L186.55406623763807,897.9966020611514C187.683802668339,899.9197331947847 190.1128501172453,902.5072331947847 191.95194945742983,903.7466020611514L195.29576643958353,906.0L228.68000185068823,906.0C254.6135670502071,906.0 262.7928223335708,905.6955777195012 265.3288100938352,904.6359743770762z"/><path stroke="none" fill="#7D5637" fill-rule="evenodd" d="M210.7692858380754,882.3143885993657C207.69476231488758,881.5085763813908 206.8335603967979,875.3912858562211 207.17495622267427,856.7831420487275L207.5,839.0662840974552L209.28366401766357,837.2831420487275L211.06732803532714,835.5L230.3991342482902,835.1752308219278C252.4401669861541,834.8049473622613 257.6139156308024,835.6135360000947 258.61051321784726,839.5842970636728C258.95735908862014,840.9662410866478 258.76023881457917,844.6626149839929 258.17246816442287,847.7984612799954C257.58469751426657,850.934307575998 256.588334425899,858.0 255.95832796805058,863.5C254.32201613408603,877.7851156122113 253.38480490389466,880.90319913043 250.38453533436405,882.04389958763C247.9235739597051,882.9795554346025 214.1860949892367,883.2099116095909 210.7692858380754,882.3143885993657zM785.0925888592699,882.1682956283865C783.5481367036173,881.709753765766 782.2557434898463,880.2072631183036 781.4871778549948,877.976772292872C780.828277930045,876.0645475317924 779.2327346819771,866.5074496899678 777.9415261926218,856.7387770888172L775.593874393794,838.9775541776345L777.3326514826113,837.2387770888172L779.0714285714287,835.5L800.0,835.5L820.9285714285714,835.5L822.7142857142858,837.2857142857142L824.5,839.0714285714286L824.5,859.0L824.5,878.9285714285713L822.7162602901165,880.7142857142857L820.9325205802328,882.5L804.2162602901165,882.6915233355144C795.0223171305523,882.7968611700474 786.4166649866714,882.5614087018398 785.0925888592699,882.1682956283865zM261.1661542051115,734.1238506800532C260.10213450469433,733.4493694522607 260.16925239575164,733.1490293701472 261.4979416733473,732.6391634545703C264.0244958996794,731.6696336287595 772.301413885051,731.9047419713327 773.8338457948856,732.876149319945C774.8978654952998,733.5506305477355 774.8307476042437,733.8509706298498 773.5020583266565,734.3608365454279C770.97550410034,735.3303663712411 262.6985861149499,735.0952580286679 261.1661542051115,734.1238506800532zM800.6391634545703,703.5020583266527C799.7124389949404,701.0870530964988 799.8836191995605,690.7319080879957 800.8761493199468,689.1661542051115C801.5506305477393,688.1021345046944 801.8509706298528,688.1692523957518 802.3608365454297,689.4979416733473C803.2875610050596,691.9129469035012 803.1163808004395,702.2680919120043 802.1238506800532,703.8338457948885C801.4493694522607,704.8978654953056 801.1490293701472,704.8307476042482 800.6391634545703,703.5020583266527zM233.5581050698616,695.1830728640455C233.18406596772886,694.0045800086796 233.30188669363713,692.2829757927416 233.81992890521326,691.3572857175166L234.76182383535166,689.6742128534712L235.4418949301384,691.8169271359545C235.81593403227114,692.9954199913204 235.69811330636287,694.7170242072584 235.18007109478674,695.6427142824834L234.23817616464834,697.3257871465288L233.5581050698616,695.1830728640455zM824.6391634545703,693.5020583266527C823.687381448096,691.0217541761398 823.8957397034387,661.7127875337475 824.8761493199468,660.1661542051115C826.4825874898256,657.6319371063681 827.0003197917637,661.8468022032712 826.984687225483,677.3317874682357C826.970107843084,691.7735315534209 826.1487579214383,697.4359984477048 824.6391634545703,693.5020583266527zM233.60478479048015,638.4124689641184C232.79346073629713,636.2981923699899 232.82610516695703,556.6167376073503 233.63916345457034,554.497941673347C235.46468739549786,549.7407025400779 235.9706416246499,558.950042085174 235.98468722548296,597.1909830056251C235.9985551849554,634.9482726492561 235.51165566064373,643.3816947969109 233.60478479048015,638.4124689641184zM719.0,639.086295561739L715.5,638.4358736159618L720.3895712654876,637.7179368079809C727.2417142291974,636.7118351724617 778.2110991616253,636.847491541176 779.8338457948885,637.8761493199469C780.8978654953057,638.5506305477394 780.8307476042484,638.8509706298528 779.5020583266526,639.3608365454298C777.3514183907581,640.1861145231188 723.6059028705638,639.9422327923482 719.0,639.086295561739zM483.052154874768,328.05339521920615C481.90387883205716,327.3269383702515 482.1107856878392,327.01919011587006 484.052154874768,326.5660193987278C485.3984696936456,326.25175127493253 491.225,325.8833326777571 497.0,325.74731140500455L507.5,325.5L508.01838613868046,261.0C508.3034985149547,225.52499999999998 508.6478892634874,196.275 508.78369891319755,196.0C508.91950856290765,195.725 509.4668440519688,196.175 510.0,197.0C510.59899202255764,197.92687406083502 510.9752252164834,222.31411754915064 510.98468722548296,260.8269230769231L511.0,323.15384615384613L508.0769230769231,326.0769230769231L505.15384615384613,329.0L494.8269230769231,328.98468722548296C489.1471153846154,328.9762651994985 483.8484696936456,328.557183796674 483.052154874768,328.05339521920615zM535.6744210759325,326.9585396268601L533.0,324.8548397019342L533.0,266.8504967740438L533.0,208.8461538461534L535.9230769230771,205.9230769230767L538.8461538461543,203.0L549.6730769230771,203.01531277451707C555.6278846153847,203.02373480050147 561.1515303063544,203.44281620332598 561.9478451252319,203.9466047807938C563.0961597497349,204.6730860385195 562.889279541687,204.98094119222517 560.9478451252319,205.43468890740328C559.6015303063543,205.74934659957069 553.55,206.11776519674618 547.5,206.25339690112656L536.5,206.5L536.5,266.0L536.5,325.5L548.5,326.0C555.5,326.2916666666667 560.5,326.9166666666667 560.5,327.5C560.5,328.08955287817304 555.9540605080488,328.6153848029039 549.4244210759325,328.781119775893L538.3488421518649,329.06223955178604L535.6744210759325,326.9585396268601zM592.1661542051115,328.1238506800531C589.8702220282962,326.6684611295219 593.4374386094961,326.0 603.5,326.0C613.562561390504,326.0 617.1297779717039,326.6684611295219 614.8338457948885,328.1238506800531C614.1002306076998,328.5888887540551 609.0,328.96937445096586 603.5,328.96937445096586C598.0,328.96937445096586 592.8997693923002,328.5888887540551 592.1661542051115,328.1238506800531zM644.6938531601041,328.36051982677077C644.3421390648281,328.0088057314947 644.2936967122968,327.3338057314947 644.5862034878123,326.86051982677077C644.878710263328,326.38723392204685 656.7649186938124,326.0 671.0,326.0C694.3579380047152,326.0 701.01836129492,326.6277684859769 696.4124689641183,328.39521520951985C694.2983366276898,329.2064839068293 645.507085677258,329.1737523439246 644.6938531601041,328.36051982677077zM728.5005588344711,328.0009042131684C728.1555312132011,327.442637794896 728.4642578121983,326.75975711132406 729.1866179433537,326.4833915830085C729.9089780745092,326.2070260546929 756.487593028853,326.097704323296 788.2502067307844,326.2404544021265C825.6997173339058,326.40876298784065 846.0882222771583,326.85152594729743 846.2502067307844,327.5C846.5987501455497,328.89532748764515 729.3615713138558,329.3940516695509 728.5005588344711,328.0009042131684zM592.5,205.06736301736635L590.5,204.23911181769842L594.0,203.5630655547123C598.9315917167552,202.61049865451642 612.5,203.2976721187488 612.5,204.5C612.5,205.7373470871176 595.2963040950383,206.2253841280422 592.5,205.06736301736635zM645.2437694101251,198.33564243495397C644.5528425856938,198.05708787944184 644.2419002331626,197.4176141952313 644.5527864045,196.91458980337504C645.263384364179,195.7648181522781 675.0247707487566,195.72937811091262 676.8338457948885,196.87614931994682C677.8978654953056,197.55063054773925 677.8307476042484,197.85097062985272 676.5020583266528,198.36083654542978C674.5594921061551,199.1062691467791 647.1003359305627,199.08413712873718 645.2437694101251,198.33564243495397zM482.052154874768,149.05495242475521C480.9022787342696,148.32624654391714 481.10808043193794,148.01553039037603 483.052154874768,147.54516821470526C484.3984696936456,147.21943193969759 566.7249999999999,147.07601334252212 666.0,147.226460220982C785.484306813988,147.4075334114641 846.5,147.83803708136296 846.5,148.5C846.5,149.81034578044836 484.1148850791896,150.36215724239128 482.052154874768,149.05495242475521z"/><path stroke="none" fill="#332922" fill-rule="evenodd" d="M198.32729720348027,908.9557756939303C192.68339195354903,907.8397732417588 186.78657415605056,903.7568615638105 184.28419975560683,899.2324421039366C183.14880941212192,897.1795989467715 181.72038659932107,893.1153505036948 181.10992683827166,890.2007788970996C180.4788924772764,887.1879761725087 180.0,874.7834119733628 180.0,861.4507788970996L180.0,838.0L176.5879682090717,838.0C171.3379448075625,838.0 159.10356379418468,835.4192304662052 153.09769296678695,833.044866869893C146.0939159583906,830.2759906080918 133.81594270501068,821.7633140176576 129.34441074058591,816.5760242213482C124.17468129551096,810.5787765188894 118.16378502407899,800.0526236895912 115.4850743757075,792.305851171996C114.1907291138146,788.5626330273982 112.44159560770213,780.775 111.5981110287909,775.0C110.75462644987965,769.225 106.44193389939713,733.0 102.0143498054964,694.5C97.58676571159566,656.0 92.62868974414376,613.025 90.99640321115884,599.0C89.36411667817391,584.975 87.48726077172367,568.7101513322398 86.82561230793608,562.8558918494217L85.62261510104956,552.2117836988434L87.78076912560945,543.4697297490312C88.96775383911739,538.6616000766345 91.23742764697498,531.9764487443947 92.82448869862631,528.6138378996095C96.9094716222855,519.9587153600157 103.84621676981891,511.1989511678317 110.65633760215718,506.09567005815035C118.72137964934265,500.05199216439763 129.9357623273872,495.0249011134891 138.9340462705802,493.4195718485238C143.27007723347387,492.6460068618582 153.82422808895566,492.05488217889064 163.6566860356711,492.0348879650572L180.81337207134223,492.00000000000006L181.27010330220764,455.25L181.7268345330731,418.5L183.76609896791285,409.5C186.85336012085654,395.87481735973273 191.0695579058123,385.1068358926075 197.07478120425233,375.51021797788684C204.7119883952215,363.30561613296845 213.72312516870036,353.11126764533594 223.1586707066914,346.00137062764236C232.33372566887545,339.08775915174493 240.32404493070868,334.79870538242585 250.5,331.32505700100074C265.8872638025049,326.07248428048706 267.4132540841888,325.9999999999999 362.60686204405124,325.99999999999994L450.95174347506224,326.0L451.2258717375311,229.75L451.5,133.5L453.59173693695465,129.5121425845233C455.05867775202455,126.71544730984942 457.141524132628,124.77391502607975 460.56483833068273,123.0121425845233L465.4462027874562,120.5L661.473101393728,120.23439129509524C800.7155311151374,120.045723302646 859.0345362425383,120.28636928749472 862.7974058986733,121.06513052711301C869.5059598308038,122.45352881184083 874.2320330180303,126.893046481014 875.8525501429731,133.32870352949965C876.6943381096912,136.67174667168814 877.0000000000001,185.05077937927194 877.0,314.94282005320423L877.0,492.0L882.8163405031829,492.0C890.0228928231091,491.99999999999994 898.5729331295212,493.4758962642168 906.7430377875687,496.1301937618457C914.201880886441,498.5534171354952 925.902417927049,506.06610996214323 931.6532599626447,512.1245747714869C940.7351491886725,521.6922704128692 946.5184779474337,533.547205305138 948.9756665738212,547.6328453746082L950.0455191206388,553.7656907492164L945.9872172000701,588.6328453746082C935.7168321399258,676.8715005962458 923.4462894969904,775.9664485289557 921.9814001778868,782.5C919.2552947827364,794.6587001027546 912.8699676417796,807.3361670711031 904.9379857381679,816.3380976914264C899.4806537824924,822.5315716849431 888.3550620343599,830.3468696659116 881.1333133866738,833.0599595013816C874.3351895434241,835.6139006033466 862.4295621666508,838.0 856.4845994708965,838.0L852.1451353599364,838.0L851.8225676799682,864.75L851.5,891.5L849.1973119574827,896.0C845.9012707237443,902.4412483488679 839.2891491174429,907.5905780614866 832.5059268534206,908.9987695899599C828.8783292425007,909.7518559588826 817.9456093828428,910.0273694187315 800.7374472623678,909.7993611937535L774.5,909.4517149003049L770.2271609405236,907.6081393675486C764.2807908362438,905.0424957099317 759.3623288422472,898.9781320594735 757.8892574457535,892.3957551775577C757.2315307103327,889.4567223050454 754.8498777569114,876.1278457604309 752.5966953270396,862.7760295228586L748.5,838.5L517.75,838.2478679220444C390.8375,838.1091952791688 287.0,838.2260158962381 287.0,838.5074692933094C287.0,838.7889226903809 284.99045463298927,851.2158811573697 282.5343436288651,866.1229325532847C279.55485543394195,884.2065548246967 277.35874973336513,894.6931975934285 275.93545827359884,897.633325415666C273.2668375644464,903.1459601891979 266.8554473492515,907.699891127524 259.90796690573177,909.0174537176531C253.739123050263,910.1873509133904 204.30528845173413,910.1378389279278 198.32729720348027,908.9557756939303zM251.45312988367212,877.75C252.50583086454017,872.9283111597268 256.0,845.240669609279 256.0,841.7208024778366L256.0,838.0L233.0,838.0L210.0,838.0L210.0,859.0L210.0,880.0L230.48094797178507,880.0L250.96189594357014,880.0L251.45312988367212,877.75zM822.0,859.0L822.0,838.0L800.5590169943749,838.0C788.7664763412812,838.0 778.8703625589699,838.4007407914263 778.5676530336832,838.8905350920585C778.0425612320649,839.7401514742909 782.5055192634613,874.5979092650425 783.6069800344856,878.25L784.1347753411142,880.0L803.0673876705571,880.0L822.0,880.0L822.0,859.0zM872.5,806.2044298602807C878.3236443848908,803.530713029421 887.3148052731933,795.1303290404317 890.0888049460934,789.7713221347984C892.8385481983576,784.4591754818767 894.5241519676513,776.0628726333862 896.968960511168,755.5C900.1629636210271,728.6357781316487 907.6486776013655,666.9672324785622 915.5307558963464,602.5848700443726C919.05800587034,573.7736000058271 920.0841517127568,562.2482464983659 919.8043775604554,554.5848700443726C919.5141975947026,546.6364648801423 918.9543080164945,543.5178437913839 917.1615006810321,539.863875241185C913.5046406641051,532.4107310967896 908.5188434697316,527.3808183271776 901.230584660346,523.7919985081137L894.5451174770138,520.5L874.0225587385069,520.5L853.5,520.5L848.528166101544,522.4174269117075C839.097018590387,526.0546232492181 829.8723931745556,537.2175779310326 828.4889809644797,546.6673563626774C828.1803843848135,548.7753103632049 827.8196779299709,593.7 827.6874110648293,646.5L827.4469258554811,742.5L825.0907562214521,747.339859821923C822.2194505597013,753.2378718784679 816.6611371711364,757.4780216741362 809.9001385993638,758.9279963129106C803.0593658969258,760.3950794401824 231.44310025833803,760.3935593693154 225.0,758.9264409168973C218.49176509603868,757.4444910577564 213.57587510901118,753.8210479291828 211.08069177235117,748.6666869588007L208.9190864911269,744.2014062993729L208.70954324556345,644.3507031496865L208.5,544.5L205.3405350377819,538.5C203.60282930856195,535.2 200.67782930856194,531.0618636303659 198.8405350377819,529.3041414008131C197.00324076700187,527.5464191712604 192.8,524.8464191712603 189.5,523.3041414008131L183.5,520.5L162.5,520.5L141.5,520.5L136.52816610154144,522.4174269117148C130.2659619986526,524.8324952584776 122.58126314356589,531.9547635873301 119.19695367559441,538.4801962784326L116.59351416951792,543.5L116.19647749367209,554.509117847489C115.90618371443341,562.5584458326762 116.63876387828856,572.7747062384207 118.92135383010951,592.509117847489C120.63840598686531,607.3541030313701 123.37523662777006,630.975 125.00319969878676,645.0C126.63116276980345,659.025 130.44145519708866,692.1 133.47051620386497,718.5C141.08872889042914,784.8970829492588 140.51023579643615,781.0868159534374 144.03195065282472,788.0632938876385C148.84740740778523,797.6026601237036 157.5313517687389,805.166114690568 167.0,808.0677746288972C168.375,808.4891423170567 326.54999999999995,808.7587707161656 518.5,808.6669488491391L867.5,808.5L872.5,806.2044298602807zM782.029616350602,730.9002283059235C788.3192868251822,729.5513354497023 793.1597605074562,725.5195224228207 796.8088828169743,718.5900200539738L799.4893214323581,713.5L799.494660716179,697.0L799.5,680.5L796.8276834824692,675.4365447041415C793.1898806198215,668.5437039611662 787.2745531670178,663.4263924376544 780.7531488836253,661.5305687807349L775.4236115749676,659.9812302531544L515.4618057874839,660.2406151265773L255.5,660.5L251.45505201850145,662.6657141313437C246.13427112979738,665.5145246508255 239.61012627852367,672.687162985716 237.88543513586427,677.5841373823508C236.92778100731272,680.3032374184985 236.505326206287,686.5427158771546 236.5031434528243,698.0L236.5,714.5L238.6775833410116,718.568213554461C241.3873777580359,723.63071663736 248.0430342954086,729.7490484913756 251.72478852185043,730.5620913357977C253.2511548348327,730.8991592475622 254.95,731.3250537996674 255.5,731.5085236738092C256.05,731.691993547951 373.5903505036955,731.8776315789473 516.7007788971011,731.921052631579C702.4057019266968,731.977397255289 778.3697283074379,731.6851337880065 782.029616350602,730.9002283059235zM246.94979757767692,638.1836615744444L254.3995951553538,636.4493072462859L256.52016731861005,630.9746530110151C257.68648200840096,627.9635931816161 259.9350265694807,623.5441989427105 261.51693300989837,621.1537769245581C265.4929916205137,615.1455467249452 274.375212340024,609.379896345126 283.75862310946053,606.7161927865416L291.5,604.5186194650328L328.3106332281132,604.7709761695307C359.2209135651102,604.9828827790318 366.0994777279594,604.7698528724468 371.2240499689863,603.4419428214188C379.1540769652894,601.3870664223687 389.5038853145149,596.0975321211341 394.3212355900208,591.6375352921154C397.298738271565,588.8809052447631 398.0715420179188,587.4815442679427 397.8212355900208,585.2998804321592L397.5,582.5L393.95126168265756,582.2016332393409C391.9058517768756,582.0296616051334 386.5096428993511,583.2075012640721 381.21303824139557,584.9820268627295C364.87667345300815,590.455211927138 349.84813919228964,589.8982029466401 336.39287459850766,583.320838005362C328.5097125739651,579.4672955376352 321.19510894257417,572.5145669671759 312.6759555008547,560.7772649939884C308.7291799753846,555.3395772613117 304.22968798528694,549.1898023660411 302.67708441174875,547.1110985600538C301.1244808382105,545.0323947540666 299.61487023504236,541.547532895992 299.32239418248616,539.366961097666C298.8847008812107,536.103713865163 299.2473569838948,534.8594834909758 301.3722302005205,532.3342151522259C302.7921160629956,530.6467766805598 306.17211209457565,528.3118705707125 308.8833324929206,527.1455349081207L313.812824126275,525.0249246124994L317.9979411443977,517.2624623062497C328.6714512463846,497.46547228583375 339.0379099648264,485.6271534227502 352.23310674067744,478.16648771482744C356.44852829481346,475.7830559579826 366.4598306725661,470.8330559579826 374.48044535790564,467.16648771482744L389.0633811494321,460.5L398.35904587916286,447.5C409.5053335634339,431.9119012347685 415.1608553999229,427.0126835632312 422.0178654875451,427.0050376491771C430.5823589416673,426.99548780456126 436.73188999928163,433.5487153895518 440.781084127142,447.0C441.85725413070116,450.575 444.2152544328871,461.30842853495517 446.0210847986664,470.85206341101144L449.30441273644686,488.2041268220229L456.40220636822346,494.14874827850485C465.79921828714623,502.01903608596587 473.2638276464942,505.7566620013015 482.43143602352154,507.1819183524394C488.7310439645424,508.1612966001096 491.21817340527264,508.07340123535647 498.684601572502,506.6075301075315C503.5330707076259,505.65563841847427 514.475,502.1544065086661 523.0,498.82701475240236C567.0274103791714,481.6426813394643 578.6367891814747,478.4045579091012 600.0,477.3499393305466C618.6962608881076,476.42697769104416 634.8255880219136,479.05145010244087 652.6122164018191,485.9107000680235C667.0766183270517,491.48876389713644 683.4077533078257,502.7058164843543 690.8636636699807,512.1837359623006C701.5207780056126,525.7310114302411 709.1072334949523,542.5542768669242 712.4301483638899,560.008269705578C713.2146055491736,564.12872136751 714.1753900894282,571.8875 714.5652251200113,577.25L715.2740160847077,587.0L718.1768461096502,587.0C725.4724537635517,587.0 737.2407598889504,577.3149705539718 742.2194260483836,567.2135420183733L745.5,560.5574453316717L745.8256352920898,547.9716971703061L746.1512705841797,535.3859490089405L744.038116434335,529.1131469039075C742.8758816519206,525.6631057461393 740.067280483687,519.8387672191277 737.7967805049273,516.1701723994372C722.155978684123,490.89830934179145 719.2234908195671,484.8001210913747 716.3905996202861,471.6554372031569C715.5424380069134,467.7199467414206 714.8517689926016,461.35 714.8557795884824,457.5C714.8784092745403,435.77647214645475 728.7424868543735,412.6730162982375 747.2426035586166,403.5297626474345C752.2438218740708,401.05802647667025 757.2994659173559,399.43462037520175 762.1545599938181,398.7414189953746C768.289177651053,397.86552959802526 770.4465754122056,397.9694824206919 775.2423889703803,399.3720476115669C782.4252963266615,401.4727330750432 787.4166895450452,406.20708107562456 789.3160407594031,412.7209388515595C791.0350851675275,418.6164313230894 789.9607919069497,424.1846915746593 786.2018915769015,428.8621488420753C784.7158512096057,430.71133070521677 780.575,433.95231436048067 777.0,436.0643347426618C767.2684998894382,441.8134610595023 766.2919831182295,442.6468722698156 763.2765160317099,447.7766839013674L760.5,452.5L760.5,462.0L760.5,471.5L763.3004461728852,477.5C764.8406915679722,480.8 768.752810745333,488.0 771.9940443447985,493.5C775.2352779442639,499.0 779.2876738032838,507.0126396697398 780.999368475954,511.3058659327552C784.8863536936975,521.0550970819859 787.7966685386964,533.9350611970048 788.6127855390453,545.0C789.3482859450921,554.9719365961092 787.3962048416142,567.4624148191422 783.3085426802611,578.9394350978971C779.9376854581252,588.4038661511798 770.7655233684617,602.1500097808009 763.0627456527993,609.2814232916378C754.9747978635818,616.7694363523924 742.2456678838258,625.0932690580795 731.1626061846949,630.1415625661116C726.1231727831126,632.4370057943455 721.9999999999998,634.8872618446169 721.9999999999999,635.5865760111592C722.0,636.5800725106328 729.3787642181397,636.9690503855477 755.75,637.3657361645769C774.3125,637.6449600824144 791.6375,638.172209575578 794.25,638.5374017049405L799.0,639.2013873946906L799.0,597.6730531820185C799.0,574.1585818839525 799.4549503552041,552.873747041213 800.0488217041872,548.6039701540744C802.1874439351072,533.227845699611 809.1165840067343,518.7560957138322 818.4668123993756,510.1373561405153C824.6940399195217,504.3972982503605 832.8007999580658,499.2592427733416 840.6405907534015,496.0836401335755L847.5,493.30515296734984L847.7568452526762,424.1525764836749L848.0136905053522,354.99999999999994L561.2568452526762,355.0173636237747L274.5,355.03472724754954L267.5,356.49935206053476C263.65,357.3048957076766 256.675,359.83693526902937 252.0,362.1261066413186C244.92776354956538,365.58911438899673 241.79881378719836,367.9857434283816 233.37221461619768,376.3941182045586C225.0924783475811,384.6559477020409 222.47914995906174,388.02737938891687 219.05050160606376,394.87043264893884C216.74384141158137,399.4741706058552 213.98884483429242,406.6336537460993 212.92828698986608,410.78039518281463L211.0,418.31992506775157L211.0,461.2336148946663L211.0,504.147304721581L216.37125537092783,509.0563295404961C223.1499560501767,515.2516800826695 229.3943613391041,524.7882822337326 232.83045947736431,534.1932119213627L235.5,541.5L235.79406936552348,590.75L236.08813873104697,640.0L237.79406936552348,639.9590079513015C238.73233121448555,639.9364623245173 242.85240890995462,639.1375564549317 246.94979757767692,638.1836615744444zM534.4566964141341,633.1067928110926C543.9233238191921,625.8510188757161 549.8964197795527,624.2780739683434 578.5,621.5085043290374C600.8110144761075,619.3482185242913 601.0,619.3087123346161 601.0,616.8050262563056C601.0,615.5984914263142 598.9551459707169,612.7379594228253 596.2071481492369,610.1003393149617C593.5710796313173,607.5701526917328 590.3108505237833,603.25 588.962194576939,600.5C587.0822460625573,596.6666587934103 586.5216886602499,593.9524909406041 586.5597894972632,588.867773559258C586.6000989861611,583.48830226941 587.2148646055578,581.0058488506409 589.8144277183965,575.7253864055344C591.5771455869974,572.1447980133947 594.7895074858095,567.6160121832153 596.9530097157566,565.6614178940246C599.133847356635,563.6911621025077 602.8056744931922,561.6228275328677 605.1933250669211,561.019660950769C614.1438501590745,558.7585856966158 615.7862678926393,557.2688768215107 614.5887948046632,552.4977640130664L613.9618959435697,550.0L606.9477042415963,550.0C601.5259456485908,550.0 598.8581705368144,550.5449170313099 595.1969525482448,552.4001965908351C592.5918445529868,553.7203047157944 588.3003294629482,557.109675344865 585.660252348159,559.932131322103C579.0749514809772,566.9723505984151 575.9299047526368,574.2123879980207 575.2901368008424,583.8045983745794C574.8100500103626,591.0026667998167 575.2754551568855,594.0007209204061 578.5284287941117,604.6650781664896C579.021489347256,606.2814988538595 578.5847113162189,607.226001636784 576.8048423771038,608.3922165566906C575.4893128347054,609.2541846186122 568.1639851542479,610.8586736782391 560.4604185714729,611.9721859895945C552.7821883571628,613.0820360546504 544.25,614.5039394041243 541.5,615.1319712106474C534.3972768520398,616.7540570469557 527.8295620079247,620.2911510531604 524.159979946028,624.47057412751C521.8100876904439,627.1469535488077 521.0,629.0348344137001 521.0,631.8347962283062C521.0,639.5395763937014 525.5078820228031,639.9656847305579 534.4566964141341,633.1067928110926zM374.9345918725361,541.5331448065342C381.61091959234363,538.1499935191972 384.17495198796735,534.6846646626586 383.7979308695453,529.5542070817053C383.55279670579824,526.218451159038 383.1004685541719,525.4432663371626 381.2454511741491,525.179852952072C380.0054493199311,525.0037720757116 376.43038722109696,525.8177173861104 373.30086873229556,526.9886203085136C366.4434197881594,529.5543207629615 359.7517636990169,529.7587736494913 354.4968870613095,527.5631459983684C352.3567515134991,526.6689402710246 350.01944192787295,526.1622978291258 349.30286575991806,526.4372739052601C347.5728820558467,527.1011309409741 347.6473621302728,531.4173934087504 349.44891689905376,534.9012161755182C350.24582119353335,536.4422591524807 352.51147949627114,539.1199121853828 354.4837131273599,540.8515562486341L358.0695924566123,544.0L364.06803995849464,544.0C368.4626218215528,544.0 371.3681218233384,543.3404119516737 374.9345918725361,541.5331448065342zM508.2231021461139,258.0922259624562L508.5,190.18445192491245L511.6060226836798,186.3422259624562C513.3143351597037,184.2290016831053 516.2393351597036,181.6 518.1060226836798,180.5L521.5,178.5L576.0,178.5L630.5,178.5L634.5,180.5779852723368C637.661406203737,182.2203241551467 639.1997485760555,184.0547480844721 641.8377235995483,189.32798527233678L645.1754471990965,195.99999999999997L661.8377235995483,196.02385663430505C671.0019756197967,196.03697778317286 680.2603972287798,196.4560288581069 682.4119938417327,196.95508124526958C684.5635904546858,197.45413363243225 687.6450666185934,199.18352815705597 689.2597186504163,200.79818018887784C692.4579815811904,203.99644311964983 691.1761440546886,199.8020975290998 713.9230705029552,281.5C720.0484711157814,303.5 725.486978501846,322.5125 726.008642471988,323.75L726.9571224177004,326.0L787.4785612088501,326.0L848.0,326.0L848.0,238.0L848.0,150.0L664.5,150.0L481.0,150.0L481.0,238.0L481.0,326.0L494.4731021461139,326.0L507.94620429222783,326.0L508.2231021461139,258.0922259624562zM562.0,266.0L562.0,206.0L549.0,206.0L536.0,206.0L536.0,266.0L536.0,326.0L549.0,326.0L562.0,326.0L562.0,266.0zM615.0,266.0L615.0,206.0L603.0,206.0L591.0,206.0L591.0,266.0L591.0,326.0L603.0,326.0L615.0,326.0L615.0,266.0zM696.0,323.51317421596866C696.0,321.5695180955098 680.0820166465096,263.6089753192471 670.4274416927881,230.39840416322664L668.8580830274552,225.0L655.9290415137276,225.0L643.0,225.0L643.0,275.5L643.0,326.0L669.5,326.0L696.0,326.0L696.0,323.51317421596866z"/><path stroke="none" fill="#140F0E" fill-rule="evenodd" d="M841.4461492836873,902.9128677106876C841.0766126959029,902.3149449515657 841.2750550484342,901.3249449515657 841.8871322893124,900.7128677106875C842.7042892368959,899.8957107631041 843.2957107631041,899.8957107631041 844.1128677106876,900.7128677106875C845.2667923553463,901.8667923553462 844.5445890185212,904.0 843.0,904.0C842.5149186938124,904.0 841.8156858714717,903.5107904698094 841.4461492836873,902.9128677106876z"/><path stroke="none" fill="#000000" fill-rule="evenodd" d=""/></svg>