<svg version="1.1" xmlns="http://www.w3.org/2000/svg" xmlns:xlink="http://www.w3.org/1999/xlink" width="600" height="600" viewBox="0,0,600,600"><g fill="none" fill-rule="nonzero" stroke="none" stroke-width="1" stroke-linecap="butt" stroke-linejoin="miter" stroke-miterlimit="10" stroke-dasharray="" stroke-dashoffset="0" font-family="none" font-weight="none" font-size="none" text-anchor="none"><g><path d="M147.49699,214.02552c2.19013,0 4.38027,0 6.5704,0c5.02351,0 10.04701,-0.0011 15.07052,0c22.2619,0.00488 44.52379,0.01582 66.78569,0.02003c75.83557,0.01436 151.67114,0.02681 227.5067,0.04674c18.92791,0.00497 58.10656,-0.19878 58.23215,0.01335c16.10166,27.1974 2.13545,63.33491 -0.66772,94.81672c-0.2497,2.80427 -5.47056,1.46096 -8.01268,2.67089c-2.51799,1.19845 -4.82191,2.82643 -7.05283,4.49962c-2.23331,1.67499 -4.21484,3.6619 -6.30164,5.51623c-0.40361,0.35865 -0.83301,0.69873 -1.16852,1.12178c-2.46044,3.10239 -4.51302,5.90024 -5.90935,9.65528c-0.96551,2.59648 -1.76272,5.26863 -2.29697,7.98681c-1.19506,6.08029 -0.92849,11.82408 -0.98155,17.99431c-0.07622,8.86275 -0.12855,17.72586 -0.18696,26.58874c-0.0486,7.37388 0.60045,14.78493 -0.14022,22.12167c-0.07011,0.69446 -1.3596,-0.32404 -2.04991,-0.42734c-3.56304,-0.53318 -7.11762,-1.16177 -10.70611,-1.48151c-3.58912,-0.3198 -7.19989,-0.31582 -10.80126,-0.43485c-1.12122,-0.03706 -2.24354,-0.02348 -3.36533,-0.03339c-2.91126,-0.02571 -5.82255,-0.04817 -8.73382,-0.07345c-2.98473,-0.02591 -5.96943,-0.05525 -8.95417,-0.08013c-5.82921,-0.04858 -11.69433,0.50724 -17.48767,-0.14022c-1.03748,-0.11595 1.79635,-1.07204 2.74518,-1.50739c0.94797,-0.43495 1.95415,-0.72981 2.93047,-1.09674c6.49813,-2.44219 8.39091,-2.91759 14.49878,-6.17644c5.96767,-3.18405 7.69026,-4.64617 13.21174,-8.58025c0.46592,-0.33197 0.97273,-0.61569 1.38886,-1.00826c1.86332,-1.75782 3.77445,-3.48224 5.43694,-5.43109c3.4303,-4.02117 6.47229,-9.07895 8.49344,-13.93622c2.96953,-7.13644 3.66529,-12.23749 3.82522,-20.24955c0.14079,-7.05295 -0.35719,-12.11384 -2.10792,-18.57314c-1.81967,-6.71367 -4.31079,-11.82506 -7.68842,-18.25764c-1.21307,-2.31025 -2.8667,-4.36617 -4.13988,-6.64385c-1.90639,-3.41048 -4.45375,-8.71423 -4.93448,-12.68007c-0.34125,-2.81522 -0.30912,-5.70165 0.10684,-8.5068c0.43645,-2.94337 2.62,-5.67252 4.54302,-7.7531c0.99448,-1.07596 2.0014,-2.17162 3.20257,-3.0106c1.53579,-1.07271 3.34545,-1.69619 4.94115,-2.67757c3.32988,-2.04793 6.14685,-3.30976 6.96435,-7.47182c0.47194,-2.40272 0.5458,-6.30177 -0.73116,-8.85568c-1.00766,-2.01532 -3.64613,-4.25524 -5.27835,-5.16651c-1.20866,-0.6748 -2.63754,-0.86489 -3.99632,-1.12929c-1.36156,-0.26493 -2.75099,-0.51873 -4.13655,-0.45322c-2.04399,0.09664 -4.07971,0.44828 -6.0671,0.93565c-4.15774,1.0196 -7.24679,2.41625 -10.76871,4.79592c-1.56904,1.06016 -3.12677,2.17636 -4.45121,3.52975c-1.76122,1.79972 -3.30756,3.81002 -4.75085,5.87346c-1.44384,2.06422 -2.88903,4.16755 -3.88949,6.47942c-1.20232,2.77835 -1.81272,5.77725 -2.67089,8.6804c-0.86635,2.9308 -0.93859,7.52149 -0.8839,9.72372c0.06705,2.69972 0.34081,5.40988 0.90393,8.05107c1.50429,7.0556 3.77582,12.68494 7.32493,18.94999c4.42389,7.80927 6.07767,7.97318 9.59602,15.64893c1.13217,2.46998 2.15825,5.01713 2.78357,7.66129c0.51416,2.17411 0.55565,4.44123 0.60679,6.67473c0.05148,2.24824 -0.02005,4.50845 -0.29964,6.73983c-0.31034,2.47673 -1.62173,6.31731 -2.93131,8.4467c-4.30961,7.00749 -4.5691,8.17293 -10.86803,11.67932c-1.34506,0.74875 -7.17687,3.70971 -9.57098,3.2443c-0.49023,-0.0953 -0.04007,-0.99849 -0.0868,-1.4957c-0.57428,-6.11025 -0.95785,-12.24329 -1.77614,-18.32567c-0.69995,-5.20274 -2.76574,-12.88874 -4.92112,-17.66462c-1.31416,-2.91191 -2.93047,-5.69246 -4.69743,-8.35405c-1.76824,-2.66353 -3.90551,-5.06283 -5.8793,-7.57783c-0.32672,-0.41631 -0.62847,-0.861 -1.02162,-1.21526c-2.29216,-2.06547 -4.52216,-4.22223 -7.02111,-6.03205c-4.47401,-3.24021 -9.49139,-5.77586 -14.62648,-7.77533c-2.27249,-0.88484 -4.56578,-1.7516 -6.93431,-2.33234c-4.73523,-1.16102 -9.5057,-2.24647 -14.33936,-2.88373c-3.67517,-0.48453 -7.40427,-0.52063 -11.11092,-0.47158c-3.70543,0.04903 -7.39527,0.49142 -11.09088,0.76538c-3.22803,0.23929 -8.72598,1.40999 -10.54127,1.84146c-2.90153,0.68965 -5.78001,1.49876 -8.59736,2.47704c-9.27094,3.21921 -15.34161,5.77472 -23.73004,9.13148c-2.6002,1.04051 -6.53766,2.61823 -9.28999,3.6392c-2.35614,0.874 -4.51765,1.6387 -7.02678,2.08784c-2.97671,0.53283 -7.95769,0.47041 -10.55159,0.17444c-2.24051,-0.25564 -4.49229,-0.62649 -6.63049,-1.34296c-2.92625,-0.98053 -6.54149,-3.74852 -9.06101,-5.40856c-2.80214,-1.84625 -4.65667,-2.5202 -7.22477,-5.55546c-2.30492,-2.72419 -2.78069,-9.63188 -3.21175,-12.07912c-0.50593,-2.87227 -1.0147,-5.74407 -1.53576,-8.61363c-0.10216,-0.56262 -0.20516,-1.12551 -0.33386,-1.68266c-0.83773,-3.62666 -2.2889,-10.89807 -4.38694,-14.1357c-3.09037,-4.76897 -4.98184,-4.58041 -10.00917,-4.8677c-0.51751,-0.02957 -1.04304,0.08856 -1.53409,0.25457c-2.27458,0.76894 -3.84884,2.54995 -5.5082,4.23858c-3.67745,3.74233 -6.01805,7.61206 -9.11661,12.03968c-0.30545,0.43647 -0.59447,0.88424 -0.88807,1.32877c-0.26062,0.39459 -0.46634,0.82991 -0.77456,1.18855c-1.13749,1.32356 -2.24752,2.6871 -3.55229,3.84609c-0.51575,0.45813 -1.21751,0.65017 -1.84125,0.94483c-0.49461,0.23366 -3.94549,1.70322 -4.32852,1.86629c-2.83674,1.20772 -3.09317,1.30015 -6.36752,2.72665c-2.59763,1.13168 -5.30977,2.3173 -7.77152,3.69268c-2.45977,1.37427 -4.87567,3.05281 -7.19686,4.67016c-1.16905,0.81457 -2.40266,1.5458 -3.49673,2.45862c-1.09611,0.91452 -2.03738,2.00008 -3.0515,3.00476c-2.7899,2.76395 -3.89565,4.01735 -6.77155,8.42667c-1.64866,2.52773 -2.87556,5.30682 -4.33937,7.94591c-1.17572,2.11968 -1.83874,4.64275 -3.579,6.33002c-1.69309,1.64155 -4.18069,2.18383 -6.28995,3.23846c-1.74594,0.87297 -2.27996,0.52766 -3.05817,2.77105c-0.2571,0.74116 -0.1836,1.56262 -0.17361,2.34705c0.0079,0.62 0.02034,1.26166 0.22703,1.84626c0.39553,1.1187 0.94452,2.18491 1.55746,3.2009c1.18524,1.96461 3.51177,4.47806 4.85936,6.22068c0.57472,0.74319 5.20052,7.03795 6.2165,8.41999c1.30074,1.76938 1.75442,2.5007 3.60988,4.26258c0.90733,0.86157 1.84257,1.71708 2.9071,2.37459c1.98468,1.22585 4.04657,2.34797 6.19814,3.24931c2.14673,0.89931 4.36889,1.66461 6.64886,2.13254c2.37946,0.48835 4.82268,0.68457 7.25148,0.72031c2.42945,0.03574 4.86938,-0.14158 7.27151,-0.50664c1.88156,-0.28594 3.71572,-0.84899 5.52541,-1.43811c0.45399,-0.14779 5.54661,-2.34927 7.3483,-2.71596c0.704,-0.14328 1.42506,-0.21431 2.14339,-0.22619c1.86586,-0.03086 1.90278,0.06242 3.36866,1.16184c0.4057,0.30427 0.95754,0.53044 1.14515,1.00159c0.21622,0.54302 0.04768,1.17625 -0.04841,1.75277c-0.12807,0.76844 -0.15801,1.62579 -0.61931,2.25357c-1.00367,1.36587 -2.33896,2.46482 -3.64327,3.54728c-3.62862,3.01144 -7.02627,4.62896 -11.62339,6.22735c-2.56614,0.89223 -5.21249,1.58347 -7.88999,2.04407c-3.65737,0.62916 -10.39666,0.59806 -14.06977,0.45405c-13.82947,-0.54221 -14.27752,-1.22999 -28.09947,-0.80878c-3.75616,0.11446 -10.2199,1.01092 -13.8394,2.05742c-1.38615,0.40078 -2.68653,1.07035 -3.95876,1.7511c-2.49807,1.33669 -4.66282,2.9055 -6.59293,4.98205c-0.89653,0.96456 -1.85178,1.93207 -2.42884,3.11576c-1.14161,2.34171 -1.79468,4.89156 -2.67089,7.34496c-0.23673,0.66284 -0.24325,1.44173 -0.66772,2.00317c-0.22847,0.3022 -2.41703,0.73529 -2.62415,0.78124c-0.53573,0.11884 -1.0718,0.23625 -1.60921,0.34722c-0.56215,0.11607 -1.12718,0.21786 -1.68934,0.33386c-0.55965,0.11548 -1.1108,0.27624 -1.67599,0.36057c-2.13609,0.31874 -4.318,1.32902 -6.4235,0.84801c-0.75294,-0.17201 -0.00175,-1.54468 -0.00668,-2.317c-0.09302,-14.57646 -0.20256,-29.15279 -0.30048,-43.7292c-0.03933,-5.85544 0.03133,-9.33323 -0.47659,-16.10883c-0.14797,-1.97389 -0.46816,-3.93682 -0.88338,-5.87221c-0.42463,-1.97927 -0.90761,-3.9592 -1.63144,-5.84967c-0.71112,-1.8573 -1.6438,-3.63046 -2.6542,-5.34346c-2.98344,-5.05801 -5.46898,-7.37002 -10.07261,-11.59001c-0.36688,-0.3363 -1.30278,-0.1711 -1.33545,-0.66772c-0.4629,-7.03826 -0.06672,-14.10677 -0.10016,-21.16015c-0.03055,-6.44352 -0.05728,-12.88706 -0.0868,-19.33059c-0.00551,-1.20191 -0.05406,-2.40427 -0.02003,-3.60571c0.23939,-8.45316 0.0674,-14.69931 2.67089,-22.8762c0.95636,-3.00367 2.48952,-5.81191 4.09982,-8.52182c1.60939,-2.70838 3.51612,-5.24114 5.52207,-7.67047c3.50767,-4.24799 7.77437,-8.1709 12.50646,-11.03079c2.58707,-1.56353 5.33347,-2.87696 8.14539,-3.98631c2.80799,-1.1078 5.76099,-1.80708 8.66121,-2.64418c0.55653,-0.16063 1.12492,-0.30597 1.70269,-0.34722c2.92025,-0.20846 10.08707,-0.40063 10.74367,-0.40063z" fill="#f6d09c"/><path d="M85.49421,329.09962c4.02113,3.38029 5.66934,5.73211 7.54945,10.29629c0.67058,1.6279 1.35157,3.2842 1.63843,5.02128c0.38964,2.35952 0.27187,4.77538 0.37393,7.16467c0.02261,0.52924 0.00154,1.05946 0,1.58918c-0.00513,1.76057 -0.01355,3.52113 -0.02003,5.28169c-0.03049,8.27978 -0.04669,16.55949 -0.06677,24.83931c-0.02964,12.22157 -0.06338,24.44312 -0.09348,36.66469c-0.01663,6.75291 -0.02927,13.50582 -0.04674,20.25873c-0.00924,3.5701 -0.02421,7.14018 -0.03339,10.71028c-0.00863,3.36087 -0.01189,6.72175 -0.02003,10.08262c-0.00707,2.91572 -0.00809,5.83147 -0.02003,8.74718c-0.00973,2.3771 -0.20811,4.14945 0.66105,6.76404c0.54595,1.64231 1.49108,3.15986 2.57741,4.50713c0.60527,0.75066 1.5428,1.16635 2.38127,1.6426c0.83723,0.47555 1.68998,0.97888 2.62666,1.2019c0.89461,0.21301 1.83825,0.06229 2.7577,0.08013c0.57191,0.0111 1.14403,0.006 1.71605,0.00668c1.30206,0.00155 2.60412,-0.00082 3.90618,0c7.85688,0.00493 15.71376,0.00738 23.57063,0.01335c21.80784,0.01659 43.61568,0.03404 65.42353,0.04006c65.83752,0.01819 131.67505,0.03519 197.51257,0.07345c22.73598,0.01321 45.47195,0.02783 68.20794,0.03339c5.46865,0.00134 10.93731,0.00668 16.40596,0.00668c2.13894,0 4.27788,-0.0084 6.41682,-0.00668c0.62322,0.0005 1.24839,0.06311 1.86963,0.01335c2.0772,-0.16638 4.16038,-0.32226 6.2165,-0.66105c0.63822,-0.10516 2.92688,-1.34517 3.29188,-1.60254c0.42883,-0.30237 0.76694,-0.71661 1.13763,-1.08797c0.82263,-0.82411 1.73007,-1.92249 2.20098,-2.91837c0.93502,-1.97739 1.34358,-4.34702 1.50238,-6.50363c0.06963,-0.94561 -0.00668,-1.89633 -0.00668,-2.8445c0,-0.53196 0.00668,-1.0639 0.00668,-1.59586c0,-1.75834 -0.00668,-3.51667 -0.00668,-5.27501c0,-1.262 0.00668,-2.52399 0.00668,-3.78599c0,-2.71763 -0.00754,-5.43527 -0.00668,-8.1529c0.00524,-16.53729 0.03124,-33.07456 0.04674,-49.61185c0.00634,-6.75736 0.01594,-13.51472 0.02003,-20.27208c0.00259,-4.2712 -0.00274,-8.54241 0,-12.81361c0.00171,-2.66645 0.01183,-5.33288 0.01335,-7.99933c0.00131,-2.29137 -0.01751,-4.5827 -0.02423,-6.87406c-0.00238,-0.81314 -0.01469,-1.62644 0.00107,-2.43943c0.04224,-2.1795 0.0084,-3.48349 0.4503,-5.52291c0.57751,-2.6653 1.63707,-5.18405 2.97241,-7.56906c0.9142,-1.63282 1.9583,-3.20635 3.16417,-4.63734c0.88927,-1.05528 1.98106,-1.93122 3.07737,-2.76938c1.09417,-0.83652 2.23507,-1.63479 3.473,-2.23854c2.39038,-1.16581 6.69066,-2.4399 9.34813,-2.67089c2.84105,-0.24696 5.7022,-0.12414 8.55354,-0.17361c3.02641,-0.0525 6.93739,0.03489 9.57181,0.30966c2.43569,0.25404 4.90271,0.49507 7.24814,1.1994c3.22001,0.96697 7.50613,3.85807 10.01585,6.00951c0.53416,0.4579 0.85876,1.11548 1.25866,1.69435c0.40629,0.5881 0.77311,1.20252 1.1585,1.80452c1.9892,3.10722 3.12142,4.69765 4.26008,9.18787c0.46369,1.82851 0.15508,3.76977 0.20032,5.65562c0.01265,0.52742 0.01478,1.05656 -0.02671,1.5825c-0.41265,5.23094 -0.85955,10.45926 -1.33545,15.68482c-0.09394,1.03155 -0.24716,2.05685 -0.37393,3.08488c-0.34064,2.76241 -0.68625,5.52421 -1.02829,8.28645c-0.36352,2.93567 -0.72545,5.87153 -1.08839,8.80727c-1.45972,11.80735 -2.91543,23.61519 -4.37359,35.42272c-0.9648,7.81251 -1.93046,15.62491 -2.89792,23.43709c-0.35286,2.84932 -0.72133,5.69682 -1.06836,8.54686c-0.86856,7.13318 -1.73499,14.26662 -2.59744,21.40053c-0.26822,2.21866 -0.53437,4.43759 -0.79459,6.6572c-0.22722,1.93808 -0.40284,3.88257 -0.66772,5.81587c-0.92286,6.73556 -1.1776,10.25774 -3.97963,16.53951c-0.73569,1.6493 -1.84256,3.11717 -2.94549,4.5472c-2.31106,2.99643 -4.27561,4.84888 -7.49269,6.75736c-1.35317,0.80275 -2.74798,1.58708 -4.25173,2.04991c-4.90031,1.50823 -8.11516,1.36533 -13.17418,1.50238c-0.78985,0.0214 -1.58028,0.00608 -2.37042,0.00668c-2.16787,0.00163 -4.33575,-0.00107 -6.50363,0c-6.49695,0.00319 -12.9939,0.00527 -19.49084,0.00668c-6.14973,0.00133 -12.29946,0.00437 -18.4492,0.00668c-11.62284,0.00437 -23.24568,0.01099 -34.86851,0.01335c-12.20376,0.00248 -24.40751,0.00532 -36.61127,0.00668c-24.27842,0.0027 -48.55684,-0.00389 -72.83526,0c-49.02648,0.00785 -98.05295,0.02488 -147.07942,0.03339c-26.64439,0.00462 -53.28878,0.00754 -79.93316,0.01335c-6.41014,0.0014 -12.82029,0.00295 -19.23043,0c-2.50841,-0.00115 -5.01683,-0.0084 -7.52524,-0.00668c-0.72561,0.0005 -1.45215,0.05094 -2.17678,0.01335c-3.99263,-0.20707 -7.3426,-0.32676 -11.1443,-1.74944c-1.60395,-0.60023 -3.08898,-1.49837 -4.5305,-2.423c-2.86935,-1.84046 -5.14223,-3.8123 -7.20724,-6.51364c-0.93303,-1.22055 -1.82739,-2.49551 -2.47141,-3.89032c-0.94545,-2.04763 -1.65913,-4.203 -2.26817,-6.37457c-1.75455,-6.25594 -2.28703,-14.25313 -2.99349,-20.2943c-0.49073,-4.19641 -0.91688,-8.05068 -1.4089,-12.37291c-0.36106,-3.17188 -0.72641,-6.34328 -1.08839,-9.51506c-0.68634,-6.01387 -1.37036,-12.028 -2.05659,-18.04189c-0.77386,-6.78192 -1.54901,-13.5637 -2.32368,-20.34553c-0.94806,-8.29981 -1.89713,-16.59951 -2.8445,-24.8994c-0.39019,-3.41841 -0.76844,-6.83819 -1.16184,-10.25623c-0.5539,-4.81261 -1.11716,-9.62414 -1.67599,-14.43618c-0.09331,-0.80351 -0.18486,-1.60724 -0.28044,-2.41048c-0.16928,-1.4225 -0.38116,-2.8404 -0.51415,-4.26675c-0.3011,-3.22954 -0.73879,-6.45551 -0.78791,-9.69868c-0.04902,-3.23672 0.02397,-6.49592 0.49412,-9.69868c0.21847,-1.48828 0.91667,-2.87389 1.55162,-4.23754c1.44583,-3.10511 3.04782,-5.26027 5.50037,-7.67798c1.17826,-1.16153 2.42445,-2.27342 3.79851,-3.19506c1.71856,-1.1527 5.49502,-2.67158 7.55863,-2.93798c7.49107,-0.96707 13.651,-1.53602 20.91403,-0.88546c2.27912,0.20414 14.93177,4.41662 15.66385,5.03203z" fill="#ef9959"/><path d="M136.57304,417.67046c3.33416,-0.00189 6.66833,0.00103 10.0025,0c8.006,-0.00248 16.01201,-0.01045 24.01801,-0.01335c30.44596,-0.01103 60.89192,-0.01625 91.33788,-0.02003c20.47908,-0.00255 40.95815,-0.00795 61.43723,-0.01335c17.85937,-0.00471 35.71875,-0.00943 53.57812,-0.01335c9.92459,-0.00218 19.84919,-0.00376 29.77378,-0.00668c7.58311,-0.00223 15.16622,-0.00523 22.74933,-0.00668c7.87023,-0.0015 15.74047,0.00342 23.6107,0c2.85346,-0.00124 5.70691,-0.01641 8.56037,-0.01468c1.75649,0.00106 4.22993,0.00173 6.0478,0.06411c1.8739,0.0643 3.22076,0.16667 5.14517,0.56175c1.15506,0.23713 2.36233,0.37675 3.42333,0.8912c2.33557,1.13247 4.64352,2.39346 6.67723,4.00634c1.19412,0.94703 2.01412,2.29868 2.8662,3.5623c0.85442,1.2671 1.71633,2.56552 2.2352,4.003c0.59185,1.63967 0.8557,3.39004 1.05834,5.12144c0.25086,2.14337 0.13156,5.53455 0.14356,7.92588c0.01257,2.50552 0.15489,4.90617 -0.08013,7.4326c-0.147,1.58024 -0.31804,3.17601 -0.7612,4.69994c-0.3839,1.32012 -1.04426,2.5493 -1.69852,3.75845c-1.46219,2.7023 -2.8761,4.86533 -5.73992,6.33753c-1.945,0.99986 -4.0603,1.69977 -6.20315,2.13671c-1.54654,0.31535 -3.15601,0.06777 -4.73416,0.09348c-1.86184,0.03034 -7.74859,0.00661 -7.8591,0.00668c-1.45787,0.00094 -2.91572,0.01276 -4.37359,0.01335c-4.00411,0.00163 -8.00823,-0.00775 -12.01234,-0.00668c-4.31795,0.00115 -8.63589,0.01179 -12.95383,0.01335c-7.97039,0.00289 -15.94078,0.00116 -23.91117,0c-7.85688,-0.00114 -15.71376,-0.01374 -23.57063,-0.00668c-1.98314,0.00178 -3.96628,0.00689 -5.94942,0.00668c-18.59832,-0.00201 -37.19664,-0.011 -55.79496,-0.01335c-16.52393,-0.00209 -33.04785,-0.0021 -49.57178,0c-18.56716,0.00236 -37.13432,0.01134 -55.70148,0.01335c-2.4728,0.00027 -4.9456,-0.00738 -7.41841,-0.00668c-19.99386,0.00567 -39.98773,0.01088 -59.98159,0c-3.90841,-0.00213 -7.81681,-0.01172 -11.72522,-0.01335c-1.41335,-0.00059 -2.82669,0.00762 -4.24004,0.00668c-1.92305,-0.00128 -3.84608,-0.01508 -5.76913,-0.01335c-1.69407,0.00152 -2.93154,0.11017 -4.7183,-0.1661c-3.64681,-0.56386 -4.83015,-1.61153 -8.24889,-4.08062c-0.44798,-0.32354 -0.71312,-0.8444 -1.07503,-1.262c-1.89677,-2.18858 -2.53305,-2.53449 -3.73925,-6.4235c-0.84743,-2.73227 -0.66882,-8.1748 -0.68776,-10.95734c-0.00884,-1.29865 -0.06086,-6.70538 -0.04236,-8.1553c0.02615,-2.04943 0.09801,-3.94082 0.87701,-5.92031c0.60478,-1.53678 1.44314,-2.98163 2.35122,-4.36107c0.90843,-1.37996 1.80411,-2.83253 3.07737,-3.88532c4.27125,-3.53164 6.82084,-4.49947 12.03071,-5.1181c1.92427,-0.22849 6.97715,-0.17662 7.5603,-0.17695z" fill="#ef9958"/><path d="M521.66446,77.89208c35.71977,17.13779 22.76845,86.43249 0,118.85476c-15.98908,22.76845 -56.27975,5.91544 -83.46542,0c-6.53008,-1.42091 -3.55903,-12.88321 -5.34179,-19.32391c-0.97049,-3.50615 -1.95035,-7.0097 -2.91795,-10.51664c-2.03047,-7.35915 -4.0532,-14.72043 -6.07628,-22.08161c-1.41916,-5.16375 -2.82628,-10.33081 -4.23337,-15.49786c-0.62807,-2.30637 -1.26435,-4.6105 -1.88966,-6.91761c-0.66338,-2.44759 -1.15596,-4.73167 -2.24355,-7.12461c-0.3414,-0.75116 -0.9156,-1.38635 -1.49904,-1.96978c-1.95945,-1.95945 -4.35311,-2.37899 -7.14798,-2.83782c-1.47886,-0.24278 -2.99577,-0.09621 -4.49378,-0.14022c-1.70831,-0.05019 -6.30736,-0.12977 -6.81078,-0.14022c-1.17079,-0.02432 -2.34144,-0.05557 -3.51222,-0.08013c-2.86226,-0.06003 -5.77353,0.35648 -8.58692,-0.17361c-0.53328,-0.10048 -0.34404,-1.02938 -0.52082,-1.54244c-0.23276,-0.6755 -0.4738,-1.34812 -0.70779,-2.0232c-0.20516,-0.59193 -1.04176,-3.19358 -1.44228,-3.77931c-0.68027,-0.99484 -2.13541,-2.28492 -3.33862,-2.67089c-2.68639,-0.86175 -4.46208,-0.74159 -7.23812,-0.80795c-0.53852,-0.01287 -1.07725,-0.01432 -1.61589,-0.02003c-3.01142,-0.03191 -6.02287,-0.06211 -9.0343,-0.09348c-5.91159,-0.06158 -11.82318,-0.12209 -17.73473,-0.18696c-3.78155,-0.0415 -7.563,-0.09299 -11.34462,-0.12687c-3.37867,-0.03027 -6.75741,-0.05277 -10.13604,-0.0868c-1.70275,-0.01715 -3.40538,-0.0453 -5.10808,-0.06677c-1.12177,-0.01414 -2.2436,-0.02321 -3.36533,-0.04006c-2.57133,-0.03864 -3.42081,-0.17875 -6.75569,0.29213c-2.44125,0.3447 -5.03137,0.65276 -7.01777,2.24188c-0.55441,0.44353 -1.10063,0.94435 -1.44395,1.56581c-3.06822,5.55399 -2.09235,6.08033 -2.29029,13.42124c-0.02376,0.8811 -0.01523,1.76278 -0.02003,2.64418c-0.013,2.38376 -0.02142,4.76755 -0.03339,7.15132c-0.06318,12.59102 -0.12229,25.18207 -0.18029,37.77311c-0.05091,11.05304 5.59907,23.71689 -0.1469,33.15914c-3.47115,5.70408 -18.92198,6.58437 -20.0317,0c-6.58437,-39.06728 -39.61825,-256.71773 247.72537,-118.85476z" fill="#ecd3a9"/><path d="M382.11028,127.30361h19.36398c8.78724,30.22116 8.78724,30.22116 11.69851,41.21856c1.84292,6.951 3.80602,13.86861 5.76913,20.78623c0.12687,0.44737 0.25373,0.89475 0.3806,1.35548c0.34722,1.21526 0.69443,2.43719 1.03497,3.65245c0.48076,1.76279 0.48076,1.76279 0.48076,2.43051h-38.72795z" fill="#ecd2a9"/><path d="M311.3316,115.28459h19.36398v81.46225h-19.36398z" fill="#ecd4ab"/><path d="M347.38866,115.28459h18.69625v81.46225h-18.69625z" fill="#ecd2a8"/><path d="M362.7443,344.31303c0.74656,0.26357 1.47174,0.63387 2.08997,1.12845c0.51654,0.41324 0.94357,0.95549 1.24864,1.54244c0.53589,1.03105 0.58589,2.30757 0,3.33862c-0.31737,0.55851 -0.82215,0.99926 -1.32376,1.40055c-2.15105,1.72084 -2.73576,1.42689 -5.68733,2.23187c-1.22761,0.3348 -2.60583,0.34783 -3.67248,1.04165c-2.46597,1.60401 -4.96925,5.60949 -6.51698,7.95926c-0.62407,0.94746 -1.37204,2.23789 -1.4957,3.39203c-0.21044,1.96407 -0.28097,3.94751 -0.21951,5.92187c0.12617,4.0536 0.14996,6.93553 2.89041,10.10349c1.53015,1.76886 3.57663,3.01598 5.31508,4.58058c0.48913,0.44021 1.06886,0.83985 1.36216,1.42893c0.26039,0.52299 0.21534,1.15519 0.21534,1.73942c0,0.53788 0.03596,1.12364 -0.21534,1.5992c-0.29413,0.5566 -0.79641,1.01025 -1.33545,1.33545c-0.32226,0.19442 -2.59575,0.4012 -2.8445,0.42734c-1.23873,0.13016 -2.47964,0.23871 -3.71922,0.36057c-0.66806,0.06567 -1.33521,0.14028 -2.00317,0.20699c-2.83092,0.28273 -5.66093,0.57498 -8.49344,0.84133c-1.21497,0.11425 -2.43276,0.19638 -3.64865,0.30044c-2.41312,0.20652 -4.92412,0.42397 -7.30285,0.80882c-2.37736,0.38463 -4.81801,0.96793 -7.17045,1.53278c-1.18282,0.28401 -2.47135,0.29295 -3.54568,0.86351c-1.97045,1.04649 -3.6361,2.58679 -5.43527,3.90618c-2.57276,1.88669 -3.70083,4.11951 -6.83081,3.56564c-0.61962,-0.10965 -1.15884,-0.50051 -1.69769,-0.82547c-0.48073,-0.28992 -1.00161,-0.5683 -1.34713,-1.01077c-1.0187,-1.30452 -0.82651,-2.81615 -0.6335,-4.36023c0.11064,-0.88509 0.17064,-1.82184 0.58676,-2.6108c1.59633,-3.0266 3.52618,-4.53175 6.42099,-6.24321c1.32291,-0.78212 2.68511,-1.55037 4.15574,-1.99649c2.83036,-0.8586 5.75683,-1.37512 8.66872,-1.89383c2.91504,-0.51927 5.86786,-0.79827 8.79892,-1.21776c1.75588,-0.2513 3.507,-0.53488 5.26166,-0.79459c0.6514,-0.09641 1.306,-0.17099 1.95643,-0.27377c0.17698,-0.02796 2.79876,-0.37212 2.79776,-0.93481c-0.00332,-1.87049 -1.00268,-3.60918 -1.34212,-5.44862c-0.42199,-2.28675 -0.82864,-4.58986 -0.93899,-6.91261c-0.11085,-2.33346 -0.21432,-4.71911 0.27794,-7.00275c0.50513,-2.34338 1.71909,-4.47709 2.67089,-6.67723c0.65999,-1.52562 3.4924,-5.2685 3.84024,-5.67148c1.09177,-1.2648 2.2145,-2.55319 3.59819,-3.48969c3.16785,-2.14404 6.21505,-3.59325 9.89597,-4.13717c1.23333,-0.18225 4.85063,-0.23885 5.36818,-0.05613z" fill="#f6d4a4"/><path d="M92.98606,536.61803h34.05389c-0.53418,4.32685 -1.07503,8.64702 -1.62924,13.10073c-0.25373,2.04323 -0.25373,2.04323 -0.50747,4.11985c-0.13354,1.08171 -0.27377,2.1701 -0.40731,3.25181c-0.06677,0.56089 -0.13354,1.1151 -0.20699,1.68934c-0.06677,0.54086 -0.13354,1.08171 -0.20699,1.6426c-0.05342,0.46073 -0.11351,0.92814 -0.17361,1.4089c-0.25373,1.83624 -0.56756,3.67248 -0.87472,5.50204h-30.04755z" fill="#7e5737"/><path d="M472.25293,536.61803h32.05072v30.71527h-28.04438l-2.00317,-13.85526c-0.20699,-1.44228 -0.42067,-2.87789 -0.63434,-4.36023c-0.16693,-1.14848 -0.32718,-2.29029 -0.49412,-3.4321c-0.0868,-0.59427 -0.17361,-1.18187 -0.26041,-1.79618c-0.08013,-0.56756 -0.16025,-1.13513 -0.24706,-1.72273c-0.07345,-0.49412 -0.14022,-0.98155 -0.21367,-1.48902c-0.15358,-1.38886 -0.15358,-1.38886 -0.15358,-4.05976z" fill="#815939"/><path d="M207.16676,327.62062c1.80285,0.16693 1.80285,0.16693 3.33862,0.66772l1.33545,1.33545c0.25373,1.83624 0.25373,1.83624 0,4.00634c-1.22861,2.317 -2.6108,3.94625 -4.46707,5.80252c-1.62257,1.26867 -3.23178,2.04991 -5.17486,2.75102c-1.82956,0.53418 -3.52558,0.86136 -5.42191,1.12845c-2.29697,-0.33386 -2.29697,-0.33386 -3.65912,-0.89475c-1.47567,-0.8213 -2.70428,-1.66931 -3.97963,-2.77773c-1.41557,-1.66931 -2.45722,-3.33862 -3.33862,-5.34179c-0.62766,-2.59077 -0.62766,-2.59077 -0.66772,-4.67406l1.33545,-1.33545c1.58918,0.16693 1.58918,0.16693 3.33862,0.66772c0.60763,0.34054 0.60763,0.34054 1.23529,0.68108c1.42225,0.72782 1.42225,0.72782 3.04482,0.88139c2.73767,0.04006 5.10141,-0.02671 7.73224,-0.84801c1.23529,-0.48744 2.4639,-0.99491 3.67248,-1.52909c0.55421,-0.17361 1.10842,-0.34722 1.67599,-0.52082z" fill="#f6d6a6"/><path d="M347.38866,115.28459h18.69625v81.46225h-18.69625zM348.05639,116.62003c-0.2025,1.00176 -0.06798,2.043 -0.0868,3.06485c-0.01592,0.86442 -0.00118,3.42707 0,4.23337c0.00489,3.32748 0.00172,6.65498 0,9.98246c-0.00715,13.86861 0.00526,27.73723 0,41.60584c-0.00066,1.75389 -0.00668,3.50777 -0.00668,5.26166c0,3.18947 0,6.37901 0,9.56848c0,0.66995 0.00549,1.3399 0.00668,2.00985c0.00104,0.58537 -0.01657,1.17098 0,1.75611c0.01417,0.50038 -0.15506,1.80769 0.75453,1.97646c1.11425,0.20675 2.2656,0.06748 3.39871,0.0868c1.50664,0.02569 2.76915,-0.00668 4.28011,-0.00668c0.73228,0 1.46453,0.01221 2.19681,0.01335c0.69444,0.00108 1.38886,-0.00552 2.0833,-0.00668c0.64101,-0.00107 1.28224,0.01637 1.92304,0c0.49258,-0.01258 1.01089,0.07681 1.47567,-0.0868c1.36333,-0.47993 0.74673,-3.30934 0.75453,-3.73257c0.01592,-0.86442 0.00118,-3.42707 0,-4.23337c-0.00489,-3.32748 -0.00172,-6.65498 0,-9.98246c0.00715,-13.86861 -0.00526,-27.73723 0,-41.60584c0.00159,-4.20221 0,-8.40441 0,-12.60662c0,-1.41112 0.0025,-2.82225 0,-4.23337c-0.00018,-0.0998 0.03887,-2.73564 -0.0868,-3.06485c-0.55151,-1.44467 -3.65658,-0.74754 -4.06644,-0.75453c-1.50664,-0.02569 -2.76915,0.00668 -4.28011,0.00668c-0.73228,0 -1.46453,-0.01221 -2.19681,-0.01335c-0.69444,-0.00108 -1.38886,0.00552 -2.0833,0.00668c-0.64101,0.00107 -1.28224,-0.01637 -1.92304,0c-0.49258,0.01258 -2.08102,0.446 -2.14339,0.75453z" fill="#f7ebcb"/><path d="M382.11028,127.30361h19.36398v3.33862l-2.00317,-2.00317h-15.35764v66.77234h34.72161v-1.33545h1.33545l0.66772,2.67089h-38.72795z" fill="#f6e9c7"/><path d="M494.95552,327.62062c-0.48423,1.76235 -1.76112,3.21858 -2.39045,4.93448c-0.94473,2.57586 -1.7796,5.20767 -2.31617,7.89833c-1.19257,5.98026 -0.92069,11.85789 -0.97571,17.91585c-0.04625,5.09242 -0.07338,10.18499 -0.10684,15.27751c-0.02477,3.77042 -0.05528,7.54081 -0.08013,11.31123c-0.0486,7.37388 0.60269,14.78515 -0.14022,22.12167c-0.07054,0.69661 -1.36414,-0.32364 -2.05659,-0.42734c-3.56309,-0.53361 -7.1175,-1.16426 -10.70611,-1.48402c-3.58908,-0.3198 -7.19996,-0.3122 -10.80126,-0.43235c-1.11901,-0.03733 -2.23906,-0.03017 -3.35865,-0.04006c-2.91125,-0.02572 -5.82256,-0.04259 -8.73382,-0.06677c-2.98474,-0.02479 -5.96943,-0.05525 -8.95417,-0.08013c-5.82921,-0.04858 -11.78118,1.05054 -17.48767,-0.14022c-1.82118,-0.38002 3.31669,-1.68875 5.00793,-2.4639c0.33901,-0.15538 2.53273,-0.92137 3.00476,-0.87472c0.70043,0.06923 1.7806,0 2.00317,0.66772c0.19908,0.59723 -1.4636,0.71909 -1.33545,1.33545c0.10965,0.52737 1.07728,0.00715 1.61589,0.01335c5.06804,0.05835 10.13603,0.12149 15.20406,0.18029c5.1259,0.05947 10.25177,0.12118 15.37767,0.18029c3.99241,0.04604 7.06057,0.0051 11.41223,0.41482c2.84049,0.26745 5.64334,1.58231 8.47257,1.21442c0.76589,-0.09959 0.00281,-1.54467 0.00668,-2.317c0.0362,-7.23813 0.07529,-14.47624 0.11351,-21.71436c0.03864,-7.31827 0.08749,-14.63648 0.12687,-21.95474c0.02435,-4.52505 -0.03833,-10.51438 0.41482,-14.533c0.38894,-3.44916 0.8435,-6.9359 1.92889,-10.23286c0.94001,-2.85537 4.88605,-7.18385 4.75419,-6.70394z" fill="#fbf8dc"/><path d="M328.69241,115.28459h2.00317v81.46225h-3.33862l1.33545,-1.33545c0.20032,-1.47567 0.20032,-1.47567 0.16025,-3.20507c0,-0.6744 0.00668,-1.3488 0.00668,-2.04323c-0.00668,-0.74785 -0.01335,-1.48902 -0.01335,-2.2569v-2.37042c0,-2.15007 -0.00668,-4.29346 -0.02003,-6.43685c-0.00668,-2.24355 -0.00668,-4.4871 -0.00668,-6.73065c-0.00668,-4.24672 -0.02003,-8.49344 -0.03339,-12.74016c-0.01335,-4.83432 -0.02003,-9.66863 -0.02671,-14.50295c-0.01335,-9.94908 -0.04006,-19.89148 -0.06677,-29.84056z" fill="#ebc89f"/><path d="M110.34687,338.97191c0,-0.22257 0.6059,-0.21382 0.66772,0c0.4409,1.52477 0.55967,3.12929 0.69443,4.71079c0.07276,0.85388 0.11793,4.94457 0.13354,6.62715c0.03176,3.42096 0.06207,6.84194 0.09348,10.26291c0.06842,7.4518 0.13706,14.90359 0.20699,22.35538c0.06929,7.38279 -1.14425,14.88997 0.20699,22.14838c0.23492,1.26193 2.5327,-0.41964 3.79935,-0.62766c0.71204,-0.11694 1.4251,-0.22767 2.13671,-0.34722c0.69286,-0.11639 1.38293,-0.24925 2.07662,-0.36057c0.62407,-0.10015 1.25652,-0.14981 1.8763,-0.27377c0.49501,-0.099 1.08581,-0.05768 1.46231,-0.39396c0.47826,-0.42715 0.65169,-1.11028 0.88891,-1.70603c0.75236,-1.88948 0.70315,-3.79839 1.78199,-5.63892c0.25168,-0.42937 1.27132,-1.16127 1.33545,-0.66772c0.15778,1.21435 -0.64113,2.36371 -0.96152,3.54561c-0.34016,1.25481 -1.39273,5.23054 -1.70937,5.80252c-0.20549,0.37119 -0.78275,0.33216 -1.18938,0.45322c-0.4702,0.13998 -0.95582,0.22177 -1.43477,0.32802c-0.53573,0.11884 -1.07176,0.23647 -1.60921,0.34722c-0.56433,0.11629 -1.13145,0.21871 -1.69602,0.33386c-1.95585,0.39892 -8.03123,1.79314 -8.09281,1.20858c-2.37848,-22.57875 -0.66772,-45.4041 -0.66772,-68.10778z" fill="#fcf9de"/><path d="M92.98606,536.61803h34.05389l-0.66772,4.67406h-0.66772c-0.33386,-1.65595 -0.33386,-1.65595 -0.66772,-3.33862h-30.71527v28.04438l8.01268,0.66772v0.66772h-9.34813z" fill="#b08053"/><path d="M430.18636,357.66817h0.66772l0.66772,12.68674l6.00951,-0.66772l-1.33545,1.33545l-6.00951,1.33545z" fill="#fdfbe1"/><path d="M346.72094,348.98776h1.33545c-0.46073,1.12845 -0.46073,1.12845 -1.33545,2.67089c-1.08839,1.13513 -2.19681,2.2569 -3.33862,3.33862l-1.33545,-0.66772c0.74785,-0.89475 1.4957,-1.78282 2.2569,-2.67089c0.62098,-0.74117 0.62098,-0.74117 1.262,-1.50238c0.3806,-0.38728 0.7612,-0.76788 1.15516,-1.16852z" fill="#f7e3bd"/><path d="M305.32209,392.38978h1.33545c-0.6744,1.50238 -1.29538,2.63083 -2.41716,3.83941c-0.46073,0.41399 -0.46073,0.41399 -0.92146,0.83465l-1.33545,-0.66772c1.08171,-1.36216 2.19681,-2.6976 3.33862,-4.00634z" fill="#f8e7c2"/></g></g></svg>