<svg xmlns="http://www.w3.org/2000/svg" width="1365.333" height="1365.333" preserveAspectRatio="xMidYMid meet" version="1.0" viewBox="0 0 1024 1024"><g fill="#000" stroke="none"><path d="M456 118.9c-1.9 1-4.4 3-5.5 4.5-2 2.7-2 4-2.3 101.1l-.2 98.4-95.3.3-95.2.3-7.4 2.3c-4.1 1.3-8.6 2.9-10 3.6-1.4.8-5.2 2.7-8.4 4.2-3.2 1.6-6.7 3.7-7.7 4.6-1.1 1-2.4 1.8-2.9 1.8-.6 0-1.6.9-2.3 2s-1.7 2-2.3 2c-1.1 0-12.5 11.1-12.5 12.1 0 .3-1.7 2.4-3.8 4.7-2.1 2.2-4.7 5.8-5.9 7.9-6.5 11.7-8.5 15.9-10.8 22.7-4.6 13.7-5.5 23.9-5.5 62.3v35.1l-23.7.4c-17.1.3-24.6.7-26.8 1.7-1.6.7-3.9 1.7-5 2.1-4.6 1.6-11.7 5.4-14.1 7.6-1.4 1.3-2.8 2.4-3.2 2.4-1 0-8.2 7.3-8.2 8.2 0 .4-1.1 1.8-2.4 3.2-3.9 4.3-8.7 15-10.6 23.7-1.8 8.2-.8 30.3 2.9 60.4 1.7 14.3 4.5 37.5 6.1 51.5 17.2 151.1 15.9 142.4 23.7 157.1 3.9 7.4 14.5 19.9 16.8 19.9.7 0 1.5.6 1.8 1.2.2.7 2.7 2.5 5.5 4 9.2 5 16.2 7 26.5 7.5l9.7.6v26.6c0 14.7.5 28.2 1 30.2 1.6 5.7 5.2 10.2 10 12.7 4.5 2.2 4.8 2.2 42 2 39.9-.3 38.9-.2 44.8-5.3 4.5-3.8 5.9-8.6 10.1-35 2.3-14.3 4.4-27.2 4.7-28.7l.6-2.8h454.4l4.7 28.6c5.3 31.9 6.6 36 12.9 40.2l4.2 2.7 34.8.3c22.9.2 36.2-.1 38.9-.8 5.5-1.5 11.1-7.3 12.7-13.3.8-3.2 1.2-13.2 1.2-31.2V840h7.8c10.6 0 19.9-2.2 28.3-6.6 7.3-3.8 21.9-16.5 21.9-19 0-.8.4-1.4.8-1.4 1.5 0 8.9-15.2 10.6-21.5 1.7-6.7 4-23.4 12.1-90.4C948.2 596.4 952 562.7 952 553.3c0-12.2-2.1-21.9-6.3-29.8-.6-1.1-1.7-3.3-2.5-4.8-.8-1.6-3.1-4.7-5.2-6.9s-4.1-4.6-4.4-5.4-1-1.4-1.5-1.4-2.3-1.3-4-2.9c-4.4-4.1-15.9-9.8-23.3-11.6-3.5-.8-10.7-1.5-16-1.5H879V127.3l-2.3-3.4c-1.2-1.9-3.8-4.2-5.7-5.1-3.3-1.7-15.3-1.8-207.5-1.8-196.7 0-204.2.1-207.5 1.9m414 .8c6.4 3.3 10.5 12.1 5.8 12.4l-2.3.2 2.3.4 2.2.4V490l8.3.1c4.5.1 8.6.1 9.1 0 2.1-.4 12.6 2.3 17.9 4.7 5.6 2.4 5.9 2.7 5.4 5.6l-.6 3.1 1.3-2.8 1.2-2.7 4.1 3c3.8 2.8 4.1 3.3 3.3 5.9-1.1 3.8.3 5.2 4.1 4.1 2.7-.8 3.3-.5 7 4.2l4 5.1-2.8 1.3-2.8 1.3 3.1-.6c2.9-.4 3.2-.2 5.1 3.9 1.8 3.8 5.3 16.9 5.3 19.7 0 .6-1 1.2-2.2 1.2l-2.3.2 2.3.4c2 .4 2.2 1 2.2 6.3s-.2 5.9-2.2 6.2c-2.4.3-3.1 2.9-1 3.6.7.2 1-.2.6-1.2-.4-1.1-.1-1.6 1-1.6 3.1 0 1.5 7.7-1.8 8.2-2.3.3-2.9 2.9-.8 3.6.7.2 1-.2.6-1.2-.4-1.1-.1-1.6 1-1.6 3.1 0 1.4 7.9-1.8 8.1-2 .2-2 .2.2.6 2.3.5 2.6 1.3 1.6 5-.4 1.4-1.5 2.4-2.8 2.4-2 .2-2 .2.2.6 2.4.5 2.5.7 1.6 5.2-.5 2.2-1.2 3.1-2.8 3.2-2 .2-2 .2.2.6 1.2.2 2.2 1 2.2 1.6-.1 3.2-1.4 5.6-3.4 5.9-2.3.3-2.9 2.9-.8 3.6.7.2 1-.2.6-1.2-.4-1.1-.1-1.6 1-1.6 3.1 0 1.4 7.9-1.8 8.1-2 .2-2 .2.2.6 2.4.5 2.5.7 1.6 5.2-.5 2.2-1.2 3.1-2.8 3.2-2 .2-2 .2.2.6 2.3.5 2.6 1.3 1.6 5-.4 1.4-1.5 2.4-2.8 2.4-2 .2-2 .2.2.6 2.3.5 2.6 1.3 1.6 5.1-.4 1.3-1.5 2.3-2.8 2.3-2 .2-2 .2.2.6 1.2.2 2.2 1 2.2 1.6-.1 3.2-1.4 5.6-3.4 5.9-2.3.3-2.9 2.9-.8 3.6.7.2 1-.2.6-1.2-.4-1.1-.1-1.6 1-1.6 3.1 0 1.4 7.9-1.8 8.1-2 .2-2 .2.2.6 2.3.5 2.6 1.3 1.6 5-.4 1.4-1.5 2.4-2.8 2.4-2 .2-2 .2.2.6 2.3.5 2.6 1.3 1.6 5-.4 1.4-1.5 2.4-2.8 2.4-2 .2-2 .2.2.6 1.2.2 2.2 1 2.2 1.6-.1 3.2-1.4 5.6-3.4 5.9-2.3.3-2.9 2.9-.8 3.6.7.2 1-.2.6-1.2-.4-1.1-.1-1.6 1.1-1.6s1.6.8 1.3 3.2c-.2 2.5-.9 3.4-2.8 3.8-2.6.6-3.4 3-1.2 3.8.7.2 1-.2.6-1.2-.4-1.1-.1-1.6 1-1.6 3.1 0 1.4 7.9-1.8 8.1-2 .2-2 .2.2.6 2.3.5 2.6 1.3 1.6 5-.4 1.4-1.5 2.4-2.8 2.4-2 .2-2 .2.2.6 2.3.5 2.6 1.3 1.6 5-.4 1.4-1.5 2.4-2.8 2.4-2 .2-2 .2.2.6 2.3.5 2.6 1.3 1.6 5-.4 1.4-1.5 2.4-2.8 2.4-2 .2-2 .2.2.6 1.2.2 2.2 1 2.2 1.6-.1 3.2-1.4 5.6-3.4 5.9-2.3.3-2.9 2.9-.8 3.6.7.2 1-.2.6-1.2-.4-1.1-.1-1.6 1-1.6 3.1 0 1.4 7.9-1.8 8.1-2 .2-2 .2.2.6 2.4.5 2.5.7 1.6 5.2-.5 2.2-1.2 3.1-2.8 3.2-2 .2-2 .2.2.6 2.3.5 2.6 1.3 1.6 5.1-.4 1.3-1.5 2.3-2.8 2.3-2 .2-1.9.2.2.6 3.3.6 2.7 5.4-.8 6.4-2.4.7-2.4.7-.2.8 2.3.1 2.6 1 1.6 4.8-.4 1.4-1.5 2.4-2.8 2.4-2 .2-2 .2.2.6 2.3.5 2.6 1.3 1.6 5-.4 1.4-1.5 2.4-2.8 2.4-2 .2-2 .2.2.6 1.2.2 2.2.9 2.2 1.4 0 3.1-3.6 16.2-5.8 21.2-2.4 5.6-2.7 5.9-5.6 5.4l-3.1-.6 2.7 1.3c2.7 1.1 2.7 1.2 1 3.8-1.4 2.1-2.1 2.4-4.1 1.7-1.3-.5-2.6-.7-2.8-.5-.3.2.5.7 1.6 1.1 1.2.3 2.1 1.2 2.1 2 0 2.7-15 15.4-23.2 19.5-8.4 4.2-11.4 4.9-12.1 2.7-.2-.6-.3-.4-.2.5.2 1.2-.3 1.8-1.6 1.8s-1.9-.7-2-2.3c-.1-2.1-.1-2.1-.8.3s-1.1 2.5-9.3 2.8l-8.7.3-.3 28.7c-.3 32.7-.6 34-8.7 39.7l-4.3 3-32.9.3-32.9.3-.1-2.3-.2-2.3-.4 2.2c-.2 1.3-1.2 2.3-2.1 2.3-2.7 0-10.1-4.1-12.2-6.8l-2.1-2.6 2.8-1.2 2.8-1.3-3.1.6c-3 .5-3.2.3-4.3-4-1.5-6.2-1.4-6.5 1.2-7 1.9-.4 1.8-.4-.5-.6-2.3-.1-2.8-.6-2.8-2.5 0-1.8.7-2.6 2.3-2.9 1.9-.4 1.8-.4-.5-.6-2.3-.1-2.8-.6-2.8-2.5 0-1.8.7-2.6 2.3-2.9 1.9-.4 1.8-.4-.5-.6-2.3-.1-2.8-.6-2.8-2.5 0-1.8.7-2.6 2.3-2.9 1.9-.4 1.8-.4-.5-.6-2.3-.1-2.8-.6-2.8-2.6 0-1.9.6-2.5 2.3-2.6l2.2-.2-2.2-.4c-2.3-.4-2.8-1.3-3.9-7.6-.6-3.4-.4-3.7 1.7-3.8 2.3-.2 2.3-.2.2-.6-2.3-.4-2.8-1.3-3.9-7.6-.6-3.4-.4-3.7 1.7-3.8l2.4-.1-2.5-.8c-1.4-.4-105.2-.8-230.7-.9-150.9-.1-228.4-.4-228.8-1.1-.3-.5-1.4-1-2.3-.9-1.2 0-1 .3.6 1 3.2 1.2 2.6 5.1-.8 6-2.4.7-2.4.7-.2.8 1.7.1 2.2.7 2.2 2.6 0 2-.5 2.5-2.7 2.6-2.4.2-2.5.2-.5.6 1.5.3 2.2 1.1 2.2 2.9 0 1.9-.5 2.4-2.7 2.5-2.4.2-2.5.2-.5.6 1.5.3 2.2 1.1 2.2 2.9 0 1.9-.5 2.4-2.7 2.5-2.4.2-2.5.2-.5.6 1.5.3 2.2 1.1 2.2 2.9 0 1.9-.5 2.4-2.7 2.5-2.5.2-2.5.2-.5.6 3.3.6 2.7 5.4-.8 6.4-2.4.7-2.4.7-.2.8 1.7.1 2.2.7 2.2 2.6 0 2-.5 2.5-2.7 2.6-2.4.2-2.5.2-.5.6 1.5.3 2.2 1.1 2.2 2.9 0 1.9-.5 2.4-2.7 2.5-2.4.2-2.5.2-.5.6 3.4.7 3 4.3-.5 4.4-2.4.2-2.5.2-.5.6 1.2.2 2.2 1.1 2.2 1.9 0 2.7-3.9 9.1-7.1 11.9l-3.2 2.7-1.3-2.9-1.3-2.8.6 3.1c.4 2.9.2 3.2-2.7 3.8-1.8.3-17.6.6-35.1.6H198l-.1-2.3-.2-2.2-.4 2.3c-.5 2.3-1.3 2.6-5.1 1.5-2-.5-2.3-1.1-1.9-3.7l.6-3.1-1.3 2.8-1.2 2.8-2.7-2.2c-3.6-2.7-6.8-9.1-7.2-14.3-.2-2.3-.4-15.2-.4-28.9L178 839h-5.5c-5 0-5.5-.2-5.6-2.3l-.2-2.2-.4 2.3c-.7 3.4-4.3 3-4.4-.6-.2-2.5-.2-2.5-.6-.3-.5 2.7-2.3 2.6-11.7-.9-5.6-2.2-5.8-2.3-5.3-5.4l.6-3.1-1.2 2.7-1.3 2.7-3.2-2.1c-2-1.2-3.1-2.6-2.8-3.4 1.3-3.2 1.6-4.7.5-2.7-.7 1.3-1.7 2.3-2.3 2.3-1.5 0-9.5-8.2-13.5-13.9l-3.2-4.5 2.8-1.2 2.8-1.3-3.1.6c-2.9.5-3.2.2-5.7-5.5-3.5-7.7-4.3-11.9-2.6-12.5.8-.2.6-.3-.3-.2-2.8.5-2.3-3.3.4-3.8 2-.4 1.9-.4-.4-.6-2.3-.1-2.8-.6-2.8-2.6 0-1.9.5-2.5 2.3-2.6 2.1-.1 2.1-.1-.3-.8-2.1-.6-2.5-1.4-2.7-4.6-.2-2.2-.5-5.8-.8-8s-.7-5.8-1-8c-.2-2.2-.7-6.3-1.1-9-.3-2.8-.7-6.8-1-9-.6-5-1.2-10.6-2-17-.3-2.8-.7-6.8-1-9-.2-2.2-.6-5.8-.9-8-1-8.5-1.5-13.2-1.9-17.6-.3-2.5-.8-6.2-1.1-8.2-.7-3.4-.5-3.7 1.6-3.8l2.4-.1-2.5-.7c-2.1-.6-2.5-1.4-2.8-4.6-.1-2.2-.5-6-.7-8.5-.3-2.5-.8-6.5-1-9-.3-2.5-.7-6.8-1-9.5-.4-2.8-.8-6.6-1-8.5s-.8-6.7-1.3-10.5c-.6-3.9-1-7.7-1.1-8.5 0-.8-.3-3.5-.6-6s-.8-6.5-1.1-9c-1.4-13.4-2.5-22.2-3.2-27-.3-2.5-.6-11.3-.6-19.5 0-13.7.2-15.6 2.6-22.3 1.4-4 4-9.4 5.8-12.2 2.9-4.5 3.3-4.8 5.7-3.9 1.4.5 2.8.8 3 .5.3-.2-.5-.7-1.6-1.1-3-.9-2.6-2.4 1.6-6.7s5.9-4.7 6.8-1.7c.4 1.1.9 1.9 1.1 1.6.3-.2 0-1.6-.5-3-.9-2.4-.6-2.8 3.7-5.6 5.9-3.8 18-8.4 20.4-7.8 1 .3 1.8.1 1.8-.4s1.1-.9 2.5-.9c1.6 0 2.5.6 2.5 1.5 0 1.8-1.7 2-2.3.2-.2-.6-.7-.9-1.1-.6-.3.3 0 1.4.8 2.4 1.5 2.1 3.6 1.2 3.6-1.6 0-1.8.9-1.9 19-1.9h19l.1-33.3c0-18.2.2-35.2.5-37.7.2-2.5.4-6 .4-7.8 0-1.7.4-3.2 1-3.2s.8-.4.5-1c-.3-.5-.3-2.5 0-4.4.5-2.4 1.2-3.3 2.3-3.1 1 .1 1.1 0 .3-.2-1.8-.6-1-4.4 3-13.9 3.1-7.5 3.2-7.6 6.3-7.1l3.1.6-2.8-1.3c-2.4-1.1-2.6-1.4-1.4-3 1-1.4 2.1-1.7 4.3-1.3l2.9.6-2.8-1.3-2.8-1.2 4.5-6.2c4.3-5.8 4.7-6.1 7.2-5.2 1.5.6 2.9.9 3.1.6.3-.2-.5-.7-1.6-1.1-3.2-1-2.6-2.4 3.6-8.7s7.8-6.9 8.8-3.7c.4 1.1.9 1.9 1.1 1.6.3-.2 0-1.6-.5-2.9-.7-1.8-.6-2.9.2-3.7 1.7-1.7 3.5-1.3 4.2 1 .4 1.1.9 1.9 1.1 1.6.3-.2 0-1.5-.5-2.9-.9-2.3-.5-2.7 5.2-6.1 3.4-1.9 7.1-3.7 8.2-3.9s2.5-.8 3.2-1.4c1.7-1.6 17.2-5.7 18.9-5 .8.3 1.4.1 1.4-.4 0-.6 1.1-1 2.5-1 1.9 0 2.5.6 2.6 2.2l.2 2.3.4-2.3.4-2.2H449l.1-94.8c0-52.1.1-96.4.3-98.5.4-4.6 3-8.4 7.6-10.8 3.3-1.8 11.2-1.9 206.5-1.9 191.4 0 203.2.1 206.5 1.7m62.8 388.4c.3 1.5-3.1 3.3-4.1 2.2-.3-.2-.2-1.3 0-2.4.6-2.3 3.6-2.2 4.1.2"/><path d="M457.6 121.5c.4.8 1 1.5 1.5 1.5.4 0 .6-.7.3-1.5-.4-.8-1-1.5-1.5-1.5-.4 0-.6.7-.3 1.5m20.4 116V327h30.9l.3-67.8c.3-66.2.3-67.8 2.4-71.2 1.1-1.9 3.5-4.5 5.4-5.7l3.3-2.3h55.1c53.2 0 55.2.1 58.4 2 3.7 2.3 6.9 7.1 7.8 11.7l.6 3.1 19.6.4c17.6.3 20.1.5 23 2.3 1.9 1.1 4 3.1 4.7 4.5 1.3 2.3 8.3 26.8 27.2 94.8l7.8 28.2 62.5-.2 62.5-.3v-178l-185.7-.3L478 148zm371 0V326h-62c-34.1 0-62-.2-62-.5s-5.4-20-12.1-43.8c-6.7-23.7-14.3-50.9-16.9-60.3-2.7-9.5-5.3-18.2-6-19.4-2.4-4.4-7.1-5.4-27.6-5.8l-19.1-.4-1.7-5.3c-1.9-6.1-5.9-10.1-10.9-11-1.8-.3-27.8-.5-57.9-.3-53.4.3-54.7.3-57.5 2.4-1.5 1.1-3.7 3.8-4.8 6-1.9 3.8-2 6.2-2.3 71.1l-.3 67.3H479V149h370z"/><path d="M534 265.5v61.6l14.8-.3 14.7-.3v-122l-14.7-.3-14.8-.3zm29 0V326h-28V205h28zm25 0V327h29V204h-29zm28 0V326h-27V205h27zm24.7-42.8c-.4.3-.7 24-.7 52.5V327h28.9c16 0 29.2-.3 29.4-.8.2-.4-5.4-21.2-12.4-46.2-7.1-25-13.7-48.3-14.6-51.8l-1.7-6.2h-14.1c-7.8 0-14.5.3-14.8.7m30.2 8c1.3 4.3 7.6 26.9 14.2 50.3s12.2 43.1 12.4 43.7c.3 1-5.7 1.3-28 1.3H641v-50.8c0-28 .3-51.2.7-51.5.3-.4 6.6-.7 13.8-.7h13.2zM253.2 329c0 1.4.2 1.9.5 1.2.2-.6.2-1.8 0-2.5-.3-.6-.5-.1-.5 1.3m-20.6 7.5c.4.8 1 1.5 1.5 1.5.4 0 .6-.7.3-1.5-.4-.8-1-1.5-1.5-1.5-.4 0-.6.7-.3 1.5m-11.6 6.3c0 1.2 1.9 2.6 2.6 1.9.2-.2-.2-1-1.1-1.7-.9-.8-1.5-.8-1.5-.2m-5 4c0 1.2 1.9 2.6 2.6 1.9.2-.2-.2-1-1.1-1.7-.9-.8-1.5-.8-1.5-.2m54 6.7c-16.2 3.3-29.3 10.6-40.7 22.9-7.9 8.5-12.6 15.9-16 25.4-4.9 13.2-5.3 18.4-5.3 61.7v40.3l7.9 7.8c8.1 8.1 12.2 14.9 15.7 25.4 1.6 4.9 1.8 10.8 2.2 55.4l.4 49.8 2.1-.5c1.2-.3 6.1-1.3 10.9-2.3l8.7-1.8 1.1-4.5c2.7-11.2 14.5-22.3 26.5-25 9-2.1 24.9-2.7 46-1.8 25.1 1.1 35 .5 45.1-2.7 12.7-4.1 25.4-13.4 25.4-18.7 0-2.6-3.5-5.9-6.2-5.9-1.3 0-6.8 1.6-12.3 3.5-9 3.1-11.1 3.5-20.5 3.5-21.9 0-31-5.2-47.3-26.8-11.1-14.8-13.6-18.7-13.7-21.5 0-3.3 2.9-6.3 9.1-9.3 5.7-2.7 6.3-3.4 9.6-9.9 8.8-17.5 21.1-31.9 33.1-38.8 3.1-1.8 12.9-6.6 21.9-10.8l16.2-7.5 6.2-9c15.1-21.8 22.4-27.3 30.7-23 8.5 4.4 12.2 13.9 17.8 45.6 2.7 15.1 1.7 13.7 15.4 24.1 8.6 6.5 15.4 9 26.1 9.6 10.3.7 17.9-1.3 40.9-10.2 8-3.1 19.2-7.4 25-9.7 35.4-13.6 75.6-13.4 104.7.6 22.2 10.8 34 22.1 44.2 42.3 7.2 14.4 11.1 32.2 11.1 50.5 0 4.3.4 7.8.8 7.8.5 0 3.2-.7 6.2-1.6 17.5-5.2 29-21.9 29-42.2 0-13.9-3.2-22.8-14-39.3-19.5-29.7-22.8-54-10.7-77.4 4.9-9.5 14.4-19.6 22.9-24.4 6.8-3.8 18.5-6.5 24.2-5.5 16.3 2.7 22.9 18.5 12.4 29.3-1.8 1.8-5.8 4.6-8.9 6.1-6.7 3.5-13.4 10.7-15.1 16.4-3.2 11.2-.5 23 8.9 38.7 12.9 21.8 17.3 34.9 18.1 55 .6 16.8-1.2 26-7.8 39.6-8.8 18-24.2 31.9-47.2 42.7-10.9 5.1-15.1 6.7-21.1 8-1.6.4-2.7 1.1-2.5 1.6.2.7 15.7 1.1 40.8 1.3 34.3.3 41.3.6 46 2 3 .9 5.8 1.7 6.2 1.7s.8-22.4 1-49.8c.4-47.9.4-49.9 2.5-56.2 4.4-12.9 13.1-24.4 24.3-31.9 6.7-4.5 13.7-7.9 17.8-8.7 1.9-.4 3.2-1.4 3.6-2.8.8-2.8.8-137 0-139-.6-1.5-26.7-1.6-286.8-1.5-232 .1-287.3.3-292.6 1.4m578.8 68c.1 37.4 0 69-.3 70.2-.3 1.3-1 2.3-1.6 2.3-2.5 0-14.9 5.6-19.9 9.1-11.6 7.8-19.3 18.1-23.8 31.4l-2.7 8-.3 49.3c-.3 45.7-.4 49.3-2 48.8-9.7-2.9-13.1-3.1-50.9-3.1-21.6 0-38.9-.2-38.5-.6.4-.3 2.8-1 5.4-1.7 8.1-2 26-10.4 34.9-16.4 12.7-8.5 23.8-20.7 29.4-32.1 6.9-14.4 8-19.6 8-38.2-.1-14.2-.4-17.1-2.7-25.5-3.1-11.3-7.5-21.1-15.2-34-3.1-5.2-6.6-11.9-7.8-15-2.6-6.8-2.9-17.8-.6-23.1 2.4-5.6 8.6-11.8 14.9-14.9 12.5-6.3 16.9-16.6 11.7-27-4.5-8.8-14.4-12.3-27.5-9.6-10.8 2.2-17.6 5.9-25.9 14.2-8.9 8.8-14.4 19.5-17 32.8-3.7 18.8 1.8 38.9 16.6 61.5 3.3 5.1 7.1 11.3 8.5 13.9 7.6 14.8 7.3 35.1-.9 48-5.5 8.7-15.9 16.5-24.8 18.6l-2.8.6v-7.2c0-29.7-11.4-59.7-28.6-75.8-28-26.2-73.8-35-118.4-22.9-4.1 1.1-17.8 6.1-30.5 11-31.5 12.4-38.4 14.3-49.5 13.7-10.2-.6-16.2-3-25.5-10.1-13.4-10.2-12.4-8.7-15-23.2-7.1-39.6-12.9-49.7-27.3-47-4.8.9-13.5 9.8-22.5 23.1l-6.9 10.1-15.1 6.8c-19.8 8.9-27.4 13.3-35.1 20.6-6.9 6.4-15.3 18.3-20.9 29.5-3.4 6.8-3.9 7.3-10 10.1-4.9 2.3-6.7 3.8-7.7 6.2-2.1 5.1-.1 9.2 12.2 25.5 16.8 22.2 24.1 26.6 46.4 27.4 11.9.4 12.3.3 23.3-3.4 10.5-3.5 11.5-3.7 13.9-2.3 1.5.8 2.8 2.3 3 3.3.6 2.8-8.6 10.9-16.9 15-12 5.9-19.1 6.9-42.4 6.1-46.9-1.7-59.4-.2-71.3 8.5-5.1 3.7-9.7 10.6-11.8 17.6l-1.5 5.1-8.5 1.7c-4.8 1-9.2 2-9.9 2.2-1.1.5-1.4-8.6-1.7-48.8-.4-48.2-.5-49.5-2.7-56.3-3.8-11.4-6.9-16.6-15.2-24.9l-7.9-7.8V463c0-42.9.5-49.1 5.3-61 7.7-18.9 24.9-36.5 43-43.8 13.1-5.3-2.2-5 305.2-4.9l286 .2zm-641.8-64c.7.9 1.5 1.3 1.7 1.1.7-.7-.7-2.6-1.9-2.6-.6 0-.6.6.2 1.5m-8 10c.7.9 1.5 1.3 1.7 1.1.7-.7-.7-2.6-1.9-2.6-.6 0-.6.6.2 1.5m-6 7.4c0 .5.7 1.1 1.5 1.5.8.3 1.5.1 1.5-.3 0-.5-.7-1.1-1.5-1.5-.8-.3-1.5-.1-1.5.3m-10.2 28.8c.7.3 1.6.2 1.9-.1.4-.3-.2-.6-1.3-.5-1.1 0-1.4.3-.6.6m-67.2 95.8c.4.8 1 1.5 1.5 1.5.4 0 .6-.7.3-1.5-.4-.8-1-1.5-1.5-1.5-.4 0-.6.7-.3 1.5m-10.6 6.3c0 1.2 1.9 2.6 2.6 1.9.2-.2-.2-1-1.1-1.7-.9-.8-1.5-.8-1.5-.2m-5 6.7c.7.9 1.5 1.3 1.7 1.1.7-.7-.7-2.6-1.9-2.6-.6 0-.6.6.2 1.5"/><path d="M143.2 518c-12.6 2.3-23 10.6-27.3 21.8-3.8 10-3.6 17.2 2.5 69.7 3 26.4 8.7 75.2 12.5 108.5 3.9 33.3 7.7 62.3 8.5 64.6 4.1 11.8 11.2 19.9 21.6 24.8l6.5 3.1h698l5.7-2.3c6.6-2.7 15.7-10.5 19.3-16.6 4.7-8 4.3-5.2 17-111.1 3.6-29.7 8.3-68.5 10.5-86.3 2.2-17.7 4-35.1 4-38.7 0-12.5-6.3-25.2-15.6-31.4-8.9-5.8-12.9-6.6-33.9-6.5-17.5 0-19.5.2-25 2.4-8.1 3.2-16.3 11.4-19.6 19.5l-2.4 6-.5 99c-.5 96.7-.5 99.1-2.5 102.4-1.1 1.9-3.7 4.8-5.8 6.5l-3.9 3.1H221.3l-3.6-2.8c-7.4-5.6-6.9 2.2-7.1-108.1l-.1-99.1-2.3-5.6c-4.6-11.4-11.7-18.1-22.7-21.5-6.1-1.9-34.4-2.8-42.3-1.4m34.6 1c8.7 1.1 17.7 5.5 22.4 10.9 1.7 1.9 4.5 6.5 6.2 10.1l3.1 6.5.1 98.6c.1 70.9.5 99.7 1.3 102.1 1.4 4.2 4.4 7.2 9.3 9.3 3.3 1.3 34.5 1.5 296 1.5 198 0 293.5-.3 296-1 4.5-1.3 9.3-5.1 11.6-9.4 1.6-2.8 1.7-11.1 2.2-102.6l.5-99.5 2.7-5.7c3.7-7.9 9.8-14.2 17.7-18.1l6.6-3.2h39l6.7 3.2c8.1 3.8 14.5 10.1 18.3 18 4.4 8.9 4.4 15.5-.4 53.8-4.8 39.1-15.2 124.7-18.1 149.5-3.4 29-5 38.2-7.5 43.8-3.4 7.4-11.5 15.6-19.4 19.5l-6.6 3.2h-698l-6.1-3.2c-8.3-4.4-15-11.3-19.1-19.8-3.3-7-3.3-7.4-10.3-68-3.9-33.6-9.6-82.6-12.6-109-6.3-53.9-6.5-60.3-2.2-69.7 5-10.9 15-18.9 25.9-20.7 7.3-1.2 25.8-1.2 34.7-.1m760.7.1c-1.1 1.7.1 2.1 1.5.4.8-.9.8-1.5.2-1.5s-1.4.5-1.7 1.1M92 521.9c0 .5.7 1.1 1.5 1.5.8.3 1.5.1 1.5-.3 0-.5-.7-1.1-1.5-1.5-.8-.3-1.5-.1-1.5.3"/><path d="M373 524.5c-8.1 3-14.4 3.2-18.8.5-6.8-4.2-10.4-1.2-8.1 6.8 1.8 6.6 8.3 12.8 14.2 13.7 7.3 1.1 15.2-1.7 20.9-7.5 4.1-4.1 4.8-5.3 4.8-8.7 0-6.8-3.7-8.1-13-4.8m9.8.1c4 2.8 3 7-3.1 13-6 5.7-12.8 8.2-19.3 6.9-7.7-1.4-17.1-15.2-13.2-19.2 1.5-1.4 2-1.4 6 .6 5.7 2.7 11.6 2.6 19.8-.4 8-2.9 7.1-2.8 9.8-.9m562 10.1c.6.2 1.8.2 2.5 0 .6-.3.1-.5-1.3-.5s-1.9.2-1.2.5m-858 3c.6.2 1.8.2 2.5 0 .6-.3.1-.5-1.3-.5s-1.9.2-1.2.5M596.7 549c-9.9 3.9-19.1 14.1-22.3 25-2.3 7.6-2.1 18.1.4 25.5 1.6 4.6 1.8 6.3.9 7.1-.7.7-8.3 2.1-16.9 3.3-23.2 3.1-31.8 6.2-37.2 13.4-5.5 7.2-4.1 14.9 2.9 16.3 3.1.5 4 .2 8.2-3.6 9.8-8.7 16.5-10.5 49.8-13.6 9.9-.9 18.6-2.1 19.3-2.7 2.8-2.2 1.3-6.3-3.8-10.6-2.9-2.4-6.2-6.5-7.6-9.4-2.3-4.5-2.6-5.9-2.1-12.6.3-5.9 1.1-8.7 3.2-12.4 4.9-8.6 11.8-13.7 18.6-13.7.9 0 2.8-.9 4.3-2.1 3.2-2.5 3.5-7 .6-9.9-2.6-2.6-11.6-2.6-18.3 0m17.3 1c4.4 4.4 1.1 8.8-8.3 10.9-10.3 2.3-17.7 12.7-18.5 26.1-.6 10 2.3 16.8 9.7 23 5.1 4.3 6.2 6.9 3.9 8.8-.7.5-11 1.9-22.8 3.1-31.1 3.1-36.8 4.7-46.2 13-5.3 4.8-7 5-10.3 1.6-3.4-3.3-3.1-6.5.8-11.7 6.2-8.1 14.5-11.1 39.5-14.4 7.3-.9 13.9-2.2 14.8-2.8 1.4-1.1 1.3-1.8-.6-7.6-6.8-19.9 2.4-41.5 21.1-49.9 6-2.8 14.2-2.8 16.9-.1M257 658.3c-10.3 2.3-18.4 9.5-21.4 19-2.5 8-2.7 31.5-.3 38.3 2.3 6.6 7.5 12.6 13.2 15.3l4.5 2.1h263.3c293.3 0 270.2.6 277-6.9 6.1-6.7 7.7-13 7.7-29.6 0-12.2-.3-15.3-2.1-20.2-2.8-7.6-9.8-14.5-17.1-17-5.1-1.7-17.3-1.8-262.3-2-195.9-.1-258.3.1-262.5 1m518.5.8c10.6 1.9 17.2 7 21.7 16.4 2.7 5.8 2.8 6.6 2.8 21s-.1 15.2-2.8 21c-3.3 6.9-8.5 11.9-13.9 13.4-2.6.8-86.5 1.1-267.4 1.1H252.4l-4.6-2.9c-11.4-7.3-14.6-17-12.9-39.3.7-9.8 1.3-12.5 3.4-16.1 4.5-7.6 11.9-13.1 20-14.7 6.7-1.3 510.1-1.2 517.2.1m143.3 130.6c.6.2 1.8.2 2.5 0 .6-.3.1-.5-1.3-.5s-1.9.2-1.2.5m-7.8 17.2c0 .5.7 1.1 1.5 1.5.8.3 1.5.1 1.5-.3 0-.5-.7-1.1-1.5-1.5-.8-.3-1.5-.1-1.5.3M121 808c-.8.5-1.2 1.1-.9 1.4.2.3 1.1.1 1.9-.4s1.2-1.1.9-1.4c-.2-.3-1.1-.1-1.9.4m786 4.8c0 1.2 1.9 2.6 2.6 1.9.2-.2-.2-1-1.1-1.7-.9-.8-1.5-.8-1.5-.2m-773.5 10.3c-1.1 1.7.1 2.1 1.5.4.8-.9.8-1.5.2-1.5s-1.4.5-1.7 1.1m4.6 3.3c-.9 1-.8 1.5.2 1.9.8.3 1.3-.3 1.3-1.4 0-2.3 0-2.3-1.5-.5m68.9 32.1c0 12.9.3 23.5.8 23.5.4 0 .6-10.4.4-23l-.3-23.1 25.6.3c14 .2 25.5 0 25.5-.5 0-.4-11.7-.7-26-.7h-26zm568-22.8c0 .5 1.4 11 3.1 23.6l3.2 22.7 21.1-.2 21.1-.3.3-23.3.2-23.2h-24.5c-13.5 0-24.5.3-24.5.7m48 22.8V881h-20.5c-11.3 0-20.5-.3-20.5-.8 0-.4-1.4-10.3-3-22.1-1.7-11.7-3-21.5-3-21.7s10.6-.4 23.5-.4H823zm24 40.4c0 .5.7 1.1 1.5 1.5.8.3 1.5.1 1.5-.3 0-.5-.7-1.1-1.5-1.5-.8-.3-1.5-.1-1.5.3m-87 3.6c-.8.9-.8 1.5-.2 1.5 1.2 0 2.6-1.9 1.9-2.6-.2-.2-1 .2-1.7 1.1m-573.5 2.6c-1.1 1.7.1 2.1 1.5.4.8-.9.8-1.5.2-1.5s-1.4.5-1.7 1.1m83.5.4c.7.9 1.5 1.3 1.7 1.1.7-.7-.7-2.6-1.9-2.6-.6 0-.6.6.2 1.5m566.2 2.5c0 1.4.2 1.9.5 1.2.2-.6.2-1.8 0-2.5-.3-.6-.5-.1-.5 1.3"/></g></svg>