<svg version="1.1" xmlns="http://www.w3.org/2000/svg" style="display: block;" viewBox="0 0 2048 2048" width="1024" height="1024">
<path transform="translate(0,0)" fill="rgb(1,1,1)" d="M 932.437 244.267 C 987.182 242.939 1042.21 244.12 1096.99 244.12 L 1414.5 244.112 L 1619.54 244.095 C 1652.92 244.083 1689.72 242.177 1722.76 244.366 C 1729.31 244.801 1735.86 247.068 1740.74 251.597 C 1745.7 256.223 1748.8 262.498 1749.45 269.245 C 1751.75 292.094 1749.91 318.372 1749.91 341.603 L 1749.89 489.68 L 1750.05 988.135 C 1794.11 987.531 1825.53 990.721 1858.75 1022.94 C 1882.15 1045.64 1895.73 1075.99 1895.89 1108.77 C 1895.99 1130.77 1891.32 1153.62 1888.89 1175.53 C 1882.92 1229.09 1876.57 1282.61 1869.84 1336.08 L 1852.03 1483.83 C 1848.8 1510.92 1846.04 1549.23 1838.78 1575.03 C 1832.45 1598.17 1820.16 1619.23 1803.13 1636.13 C 1771.6 1667.3 1742.41 1672.1 1699.86 1671.99 L 1700.17 1739.54 C 1700.2 1753.04 1701.27 1767.54 1699.05 1780.89 C 1697.85 1788.1 1695.39 1795.11 1691.03 1801.04 C 1684.83 1809.47 1676.45 1813.69 1666.24 1815.18 C 1649.11 1817.69 1630.17 1815.77 1612.8 1815.82 C 1593 1815.88 1570.75 1818.13 1551.26 1815.43 C 1543.95 1814.41 1537.48 1812.28 1531.59 1807.74 C 1526.61 1803.89 1523.34 1799.42 1521.06 1793.59 C 1514.65 1777.22 1513.32 1757.08 1510.45 1739.71 C 1506.73 1717.2 1502.44 1694.61 1499.81 1671.96 L 1135.75 1671.93 L 571.696 1671.97 L 560.426 1743.77 C 558.082 1758.56 556.654 1774.65 552.064 1788.89 C 550.292 1794.39 548.06 1798.6 544.1 1802.87 C 533.698 1814.06 522.42 1815.66 507.954 1815.92 C 483.975 1816.34 459.933 1816.04 435.949 1816.03 C 423.029 1816.02 407.164 1817.73 394.675 1814.89 C 387.956 1813.36 381.401 1810 376.531 1805.09 C 370.747 1799.25 367.809 1793.05 366.002 1785.1 C 362.625 1770.24 364.199 1753.42 364.313 1738.22 L 364.948 1671.87 C 326.074 1672.48 295.434 1665.68 266.66 1637.72 C 249.545 1621.09 236.957 1599.06 230.679 1576.06 C 223.498 1549.76 221.092 1508.81 217.858 1480.86 L 196.734 1296.5 L 182.426 1173.94 C 179.99 1152.84 176.17 1131.2 176.057 1109.97 C 175.724 1077.6 188.518 1046.47 211.519 1023.7 C 256.054 979.352 309.176 987.953 366.203 988.102 L 366.171 985.825 L 366.074 899.601 C 366.089 882.371 365.535 864.832 366.785 847.643 C 370.632 794.739 390.607 748.693 428.058 710.807 C 452.183 686.169 482.705 668.751 516.19 660.515 C 541.493 654.456 567.245 655.548 593.052 655.562 L 659.537 655.623 L 906.631 655.532 C 905.097 573.843 906.237 491.952 906.288 410.241 L 906.233 321.766 C 906.185 306.061 905.326 289.889 906.328 274.231 C 906.704 268.345 907.497 262.402 910.711 257.321 C 915.659 249.499 923.784 246.22 932.437 244.267 z"/>
<path transform="translate(0,0)" fill="rgb(51,42,36)" d="M 929.162 248.335 C 970.948 246.131 1013.71 247.89 1055.61 247.877 L 1298.9 247.884 L 1582.15 247.876 C 1628.25 247.871 1674.99 246.128 1721.03 247.842 C 1726.59 248.049 1732.61 248.851 1737.26 252.175 C 1742.45 255.888 1745.06 262.358 1746.05 268.465 C 1748.93 286.281 1746.97 306.772 1746.98 324.903 L 1747 437.635 L 1746.96 848.122 L 1746.92 940.794 C 1746.89 955.099 1745.13 972.015 1747.53 986.076 C 1748.34 990.831 1749.56 990.218 1753.99 990.524 C 1787.01 992.804 1809.97 990.869 1839.03 1010.55 C 1866.71 1029.29 1884.31 1055.57 1890.44 1088.38 C 1892.28 1098.23 1892.72 1107.92 1892.1 1117.9 C 1890.37 1145.58 1885.96 1173.61 1882.8 1201.19 L 1861.08 1381.94 L 1846.58 1502.35 C 1843.86 1524.24 1842.06 1546.89 1837.32 1568.44 C 1833.79 1584.44 1826.69 1600.89 1817.3 1614.32 C 1796.47 1644.1 1766.84 1664.41 1730.3 1668.55 C 1719.59 1669.76 1708.56 1668.06 1698 1670.09 C 1697.65 1670.15 1697.3 1670.23 1696.95 1670.31 C 1697.27 1694.05 1697.59 1717.67 1697.5 1741.43 C 1697.45 1754.42 1698.26 1768.25 1695.94 1781.04 C 1694.68 1787.97 1692.28 1794.61 1687.86 1800.18 C 1681.43 1808.28 1672.58 1811.03 1662.67 1812.32 C 1646.63 1814.41 1629.51 1812.96 1613.29 1813.03 C 1593.36 1813.12 1571.53 1815.11 1551.8 1812.41 C 1545.71 1811.57 1539.38 1810.18 1534.48 1806.26 C 1529.91 1802.61 1525.67 1797.52 1523.63 1791.98 C 1518.37 1777.72 1517.19 1760.39 1514.66 1745.37 C 1510.41 1720.18 1505.36 1694.9 1502.74 1669.48 C 1461.66 1667.19 1419.46 1669.05 1378.29 1669.07 L 1145.25 1669.07 L 760.906 1669.07 L 641.34 1669.05 C 620.334 1669 598.523 1667.64 577.642 1669.21 C 574.58 1669.44 572.104 1669.52 570.238 1672.21 C 566.069 1678.21 565.585 1690.25 564.477 1697.42 C 560.865 1720.81 554.28 1788.63 540.137 1803.83 C 527.519 1817.4 457.397 1813.13 438.598 1813.16 C 420.816 1813.19 392.126 1817.19 378.706 1803.16 C 373.989 1798.22 370.52 1791.54 369.038 1784.88 C 366.07 1771.53 367.82 1754.79 367.859 1741.01 L 367.963 1669.1 C 332.323 1669.34 304.902 1665.93 276.321 1642.47 C 256.034 1625.82 242.038 1601.75 234.552 1576.79 C 228.71 1557.32 227.582 1536.25 225.307 1516.1 L 216.278 1438.76 L 199.712 1294.14 C 194.656 1252.75 189.849 1211.33 185.291 1169.88 C 183.428 1153.38 180.904 1136.88 179.377 1120.36 C 176.48 1089.01 187.088 1056.77 207.134 1032.64 C 215.842 1022.16 226.268 1013.85 238.076 1007.09 C 280.105 983.012 323.151 994.811 368.7 990.729 C 374.692 916.326 355.869 830.434 393.232 762.528 C 423.755 707.055 474.485 667.116 538.474 659.761 C 553.468 658.038 568.895 658.733 583.973 658.783 L 652.686 658.898 L 829.844 658.868 C 845.149 658.858 895.09 661.06 906.428 657.292 C 910.399 655.972 909.728 645.61 909.769 641.85 C 910.744 552.301 909.437 462.638 909.733 373.074 C 909.842 340.071 907.758 306.264 909.73 273.376 C 910.016 268.605 910.614 263.428 913.082 259.237 C 916.548 253.35 922.759 250.045 929.162 248.335 z"/>
<path transform="translate(0,0)" fill="rgb(243,207,160)" d="M 559.206 706.401 C 571.923 704.823 585.826 705.727 598.652 705.719 L 672.345 705.74 L 915.878 705.737 L 1699.03 705.826 L 1699.09 988.88 C 1674.95 995.029 1654.24 1005.93 1636.55 1023.68 C 1621.78 1038.46 1611.37 1057.02 1606.46 1077.34 C 1598.91 1107.34 1601.92 1141.42 1601.92 1172.25 L 1601.95 1284.62 C 1566.59 1273.93 1530.59 1276.59 1494.09 1276.65 L 1413.06 1276.61 C 1424.5 1272.12 1436.25 1268.46 1447.68 1263.86 C 1489.54 1247.02 1528.93 1222.33 1552.61 1182.72 C 1584.39 1129.54 1579.1 1058.76 1551.76 1004.94 C 1540.63 983.015 1524.46 963.523 1518.52 939.164 C 1515.96 928.655 1515.82 917.812 1518.79 907.368 C 1529.1 871.062 1559.95 876.634 1574.19 851.784 C 1578.61 844.071 1579.35 834.999 1576.81 826.529 C 1573.85 816.686 1568.76 809.085 1559.5 804.292 C 1545.1 796.836 1526.16 797.622 1510.98 802.252 C 1482.62 810.904 1459.95 832.441 1446.45 858.453 C 1420.98 907.563 1433.61 959.528 1460.67 1004.89 C 1472.38 1024.52 1485.21 1040.53 1492.29 1062.62 C 1498.82 1089.33 1498.28 1116.89 1483.68 1140.96 C 1470.31 1163.02 1450.51 1174.51 1426.05 1180.59 C 1426.1 1120.21 1415.44 1060.4 1371.05 1015.85 C 1344.78 989.479 1309.05 972.554 1273.16 964.017 C 1184.33 942.885 1124.37 969.826 1044.54 1000.99 C 1023.27 1009.29 1000.06 1018.79 976.902 1018.53 C 945.013 1018.17 917.583 998.419 895.958 976.526 C 890.762 953.561 888.121 930.05 882.685 907.081 C 878.849 890.869 873.425 868.638 857.893 859.59 C 851.953 856.129 844.731 854.564 838.011 856.394 C 812.561 863.323 797.007 906.198 779.304 922.196 C 770.35 930.288 753.941 934.731 742.881 939.524 C 697.823 959.046 671.405 977.18 646.206 1020.73 C 640.483 1030.62 635.97 1041.1 630.3 1051 C 621.913 1055.18 610.136 1058.22 603.902 1065.38 C 600.779 1068.97 599.819 1072.94 600.462 1077.6 C 602.555 1092.77 643.618 1143.66 656.449 1153.89 C 682.241 1174.44 720.651 1180.2 752.131 1171.17 C 763.065 1168.03 774.53 1161.56 785.835 1160.6 C 790.04 1160.24 794.224 1160.91 797.267 1164.13 C 799.222 1166.2 799.785 1168.65 799.635 1171.42 C 799.248 1178.56 790.268 1185.14 785.168 1189.21 C 750.276 1217.07 708.023 1214.25 666.309 1212.51 C 639.267 1211.38 612.236 1209.78 585.275 1213.11 C 568.405 1215.2 551.97 1219.03 538.184 1229.45 C 522.737 1241.13 515.194 1256.86 512.534 1275.74 C 497.454 1277.91 483.517 1280.74 468.979 1285.52 C 469.681 1246.14 469.098 1206.65 469.175 1167.25 C 469.225 1141.65 471.187 1114.49 467.917 1089.15 C 463.478 1054.75 444.586 1029.09 417.616 1008.41 L 417.6 914.719 C 417.505 857.383 414.068 810.824 452.802 763.095 C 480.134 729.416 516.306 710.736 559.206 706.401 z"/>
<path transform="translate(0,0)" fill="rgb(240,152,88)" d="M 294.555 1037.38 C 311.023 1035.3 344.724 1035.83 360.825 1038.34 C 386.509 1042.36 407.664 1059.23 416.7 1083.63 C 424.517 1104.73 421.4 1159.09 421.401 1183.56 L 421.392 1395.51 C 421.371 1411.3 421.61 1427.14 421.159 1442.92 C 420.8 1455.49 419.242 1468.81 420.343 1481.27 C 421.019 1488.91 422.707 1496.43 427.441 1502.65 C 432.686 1509.54 440.495 1514.29 449.083 1515.24 C 467.829 1517.31 487.245 1516.35 506.088 1516.33 L 595.182 1516.29 L 894.26 1516.26 L 1374.88 1516.29 L 1524.7 1516.27 C 1552.94 1516.34 1581.62 1517.52 1609.82 1516.35 C 1620.35 1515.92 1630.6 1513.56 1638.89 1506.65 C 1646.25 1500.51 1649.67 1492.86 1651.14 1483.55 C 1652.88 1472.56 1652.26 1461.08 1652.21 1449.97 C 1652.13 1428.08 1651.45 1406.22 1651.14 1384.34 C 1650.34 1326.66 1651.88 1268.9 1651.86 1211.2 L 1651.82 1144.27 C 1651.81 1129.82 1651.14 1114.92 1652.72 1100.56 C 1654.77 1082 1664.54 1063.67 1679.28 1052.17 C 1699.72 1036.22 1722.83 1036.71 1747.51 1036.69 C 1758.15 1036.68 1769.08 1036.32 1779.66 1037.63 C 1798.35 1039.95 1816.36 1049.66 1827.97 1064.56 C 1848.26 1090.63 1844.51 1120.41 1840.68 1151.08 L 1835.25 1194.83 L 1806 1434.91 L 1796.9 1511.97 C 1794.99 1527.72 1793.58 1543.86 1789.96 1559.32 C 1787.24 1570.89 1783 1580.91 1775.75 1590.38 C 1763.22 1606.76 1744.4 1618.49 1723.78 1621.05 C 1704.59 1623.44 1683.69 1621.96 1664.31 1621.95 L 1554.67 1621.92 L 1182.78 1621.89 L 624.499 1621.88 L 445.291 1621.93 C 413.757 1621.97 381.486 1623.52 350.034 1621.62 C 334.941 1620.57 320.516 1615 308.645 1605.62 C 295.453 1595.09 285.155 1580.65 280.304 1564.42 C 275.273 1547.59 274.436 1528.65 272.461 1511.24 L 263.212 1429.81 L 229.425 1136.97 C 226.474 1110.17 226.79 1084.81 244.646 1062.92 C 257.341 1047.35 274.859 1039.41 294.555 1037.38 z"/>
<path transform="translate(0,0)" fill="rgb(240,152,88)" d="M 547.321 1316.51 L 1227.23 1316.43 L 1438.55 1316.46 L 1502.6 1316.45 C 1517.92 1316.43 1533.57 1315.88 1548.83 1317.39 C 1561.53 1318.64 1575.3 1324.91 1584.47 1333.68 C 1599.03 1347.58 1602.91 1366.34 1603.16 1385.7 C 1603.45 1408.59 1603.58 1435.82 1586.02 1453.17 C 1571.12 1467.88 1549.85 1466.99 1530.5 1466.96 L 825.605 1466.94 L 615.432 1466.97 L 550.201 1467 C 538.519 1467 526.099 1467.74 514.521 1466.41 C 504.044 1465.21 493.564 1460.57 486.047 1453.13 C 472.385 1439.62 469.028 1421.62 468.759 1403.2 C 468.402 1378.86 468.137 1352.79 486.505 1334.25 C 503.637 1316.96 524.719 1316.73 547.321 1316.51 z"/>
<path transform="translate(0,0)" fill="rgb(243,207,160)" d="M 958.001 297.004 L 1699.1 297.035 C 1698.91 416.271 1697.49 535.766 1699.17 654.979 C 1616.39 654.659 1533.49 654.052 1450.72 654.967 C 1438.65 603.351 1421.7 548.984 1407.2 497.649 L 1391.1 440.468 C 1388.45 431.01 1386.37 420.833 1382.81 411.685 C 1381.08 407.218 1378.64 402.802 1374.46 400.188 C 1359.99 391.125 1305.42 394.734 1286.49 394.858 C 1284.75 383.644 1281.53 372.095 1271.84 365.117 C 1266.3 361.124 1258.69 360.143 1252.01 359.597 C 1238.22 358.471 1223.99 359.11 1210.15 359.104 L 1135.93 359.095 L 1080.77 359.117 C 1068.91 359.124 1056.04 358.309 1044.35 360.294 C 1036.7 361.594 1028.82 366.616 1024.34 372.951 C 1020.71 378.08 1019.55 386.82 1019.06 393.051 C 1018.16 404.72 1018.72 416.76 1018.73 428.471 L 1018.82 493.663 C 1018.89 547.36 1017.79 601.275 1019.04 654.944 L 957.981 654.879 L 957.872 637.654 C 959.649 603.5 958.024 564.335 958.034 529.667 C 958.051 469.42 958.811 409.073 957.848 348.837 C 958.114 331.561 958.165 314.282 958.001 297.004 z"/>
<path transform="translate(0,0)" fill="rgb(243,207,160)" d="M 1282.7 445.953 L 1339.38 445.984 C 1345.7 472.001 1353.99 497.81 1361.24 523.607 C 1373.37 567.431 1385.75 611.183 1398.39 654.86 L 1282.67 654.886 L 1282.7 445.953 z"/>
<path transform="translate(0,0)" fill="rgb(243,207,160)" d="M 1069.17 409.079 C 1088.55 409.339 1107.93 409.363 1127.32 409.154 C 1126.47 446.295 1127.16 483.615 1127.15 520.772 C 1127.13 565.483 1126.58 610.271 1127.41 654.973 C 1108.06 654.555 1088.64 654.902 1069.28 654.947 L 1069.17 409.079 z"/>
<path transform="translate(0,0)" fill="rgb(243,207,160)" d="M 1178.09 409.243 C 1196.65 409.438 1215.22 409.487 1233.78 409.39 C 1232.79 491.155 1233.11 573.171 1233.82 654.939 C 1215.22 654.636 1196.58 654.905 1177.97 654.926 L 1178.09 409.243 z"/>
<path transform="translate(0,0)" fill="rgb(243,207,160)" d="M 1207.96 1096.24 C 1210.88 1095.96 1213.81 1095.68 1216.74 1095.72 C 1222.3 1095.81 1227.22 1096.96 1231.12 1101.16 C 1233.26 1103.46 1235.36 1106.58 1234.88 1109.9 C 1233.23 1121.15 1206.42 1123.28 1196.71 1131.3 C 1185.08 1140.91 1177.37 1156.59 1175.82 1171.49 C 1174.38 1185.35 1177.92 1203.89 1188.49 1213.88 C 1193.61 1218.72 1200.32 1222.6 1204.59 1228.22 C 1206.27 1230.43 1206.47 1232.4 1206 1235.12 C 1205.55 1237.74 1204.54 1239.71 1202.01 1240.75 C 1195.44 1243.44 1185.32 1243.02 1178.18 1243.68 C 1145 1246.72 1097.99 1246.68 1071.02 1266.83 C 1066.69 1270.91 1061.43 1277.07 1055.72 1278.97 C 1052.11 1280.18 1047.17 1280.36 1043.88 1278.19 C 1041.52 1276.64 1040.24 1274.14 1039.52 1271.5 C 1037.7 1264.93 1039.45 1257.69 1042.89 1251.96 C 1062.17 1219.86 1124.65 1223.46 1157.73 1215.44 C 1154.09 1207.33 1150.84 1199.29 1148.97 1190.57 C 1144.31 1169.52 1148.4 1147.48 1160.29 1129.5 C 1171.54 1112.14 1187.65 1100.51 1207.96 1096.24 z"/>
<path transform="translate(0,0)" fill="rgb(122,92,60)" d="M 415.877 1671.16 C 449.777 1671.68 483.741 1671.25 517.647 1671.18 C 514.723 1697.84 510.141 1724.3 507.115 1750.96 C 506.568 1755.28 506.05 1759.59 505.559 1763.92 L 415.893 1764.02 L 415.877 1671.16 z"/>
<path transform="translate(0,0)" fill="rgb(122,92,60)" d="M 1551.65 1671.35 L 1648.37 1671.32 C 1649.22 1702.14 1648.53 1733.09 1648.83 1763.94 L 1564.4 1763.96 C 1559.61 1733.2 1556.09 1702.17 1551.65 1671.35 z"/>
<path transform="translate(0,0)" fill="rgb(243,207,160)" d="M 758.129 1047.09 C 761.365 1046.72 764.775 1046.67 767.647 1048.46 C 769.944 1049.9 771.322 1052.17 771.829 1054.79 C 772.894 1060.27 770.626 1066.17 767.676 1070.7 C 760.851 1081.2 748.615 1088.68 736.43 1091.05 C 725.025 1093.26 716.415 1090.35 707.031 1084.14 C 704.947 1082.2 702.96 1080.09 701.251 1077.82 C 697.272 1072.53 690.288 1059.67 692.513 1053.02 C 693.312 1050.63 695.003 1049.35 697.375 1048.7 C 702.033 1047.41 708.335 1051.91 712.518 1053.77 C 727.169 1060.3 744.312 1052.49 758.129 1047.09 z"/>
</svg>