<?xml version="1.0" encoding="UTF-8"?>
<!-- Generator: visioncortex VTracer 0.6.4 -->
<svg version="1.1" xmlns="http://www.w3.org/2000/svg" width="1024" height="1024">
<path d="M0 0 C0.97 -0 1.95 -0 2.95 -0 C6.23 -0.01 9.51 -0 12.79 0 C15.16 0 17.53 0 19.89 0 C25.05 -0 30.21 -0 35.36 0 C43.03 0.01 50.7 0.01 58.37 0.01 C71.27 0.01 84.17 0.01 97.06 0.02 C109.84 0.02 122.61 0.03 135.38 0.03 C136.18 0.03 136.97 0.03 137.79 0.03 C141.82 0.03 145.85 0.03 149.88 0.03 C178.45 0.03 207.01 0.04 235.58 0.05 C263.33 0.06 291.08 0.06 318.83 0.07 C319.69 0.07 320.54 0.07 321.42 0.07 C330.01 0.07 338.6 0.07 347.19 0.07 C364.69 0.07 382.19 0.08 399.68 0.08 C400.89 0.08 400.89 0.08 402.12 0.08 C426.78 0.09 451.44 0.09 476.1 0.1 C477.15 0.1 477.15 0.1 478.23 0.1 C506.59 0.11 534.95 0.11 563.31 0.12 C562.98 46.98 562.65 93.84 562.31 142.12 C558.35 143.44 554.39 144.76 550.31 146.12 C542.61 150.16 536.51 155.05 530.31 161.12 C529.74 161.68 529.16 162.23 528.56 162.8 C524.53 167.03 522.18 172 519.71 177.26 C516.65 185.2 515.19 193.11 514.93 201.58 C514.84 206.45 514.82 211.31 514.8 216.17 C514.78 218.29 514.77 220.4 514.75 222.51 C514.7 228.02 514.67 233.54 514.64 239.05 C514.61 244.7 514.57 250.34 514.52 255.99 C514.44 267.03 514.37 278.08 514.31 289.12 C512.79 288.81 512.79 288.81 511.24 288.48 C500.43 286.35 490.03 285.65 479.03 285.61 C477.35 285.59 475.67 285.58 473.99 285.56 C469.63 285.51 465.27 285.48 460.91 285.45 C456.44 285.42 451.97 285.38 447.5 285.33 C438.77 285.25 430.04 285.18 421.31 285.12 C424.12 283.25 426.63 282.27 429.81 281.22 C445.23 276.13 458.46 269.01 471.31 259.12 C472 258.62 472.68 258.13 473.39 257.61 C479.44 252.91 484.08 246.45 488.31 240.12 C492.88 232.66 496.28 224.82 498.23 216.28 C500.46 204.51 500.43 192.07 498.95 180.21 C496.79 166.94 491.83 154.83 485.31 143.12 C483.32 139.76 481.2 136.47 479.11 133.17 C475.6 127.21 473.09 120.96 471.72 114.18 C471.19 109.85 471.17 105.74 471.88 101.44 C472.52 99.01 473.31 97.13 474.57 94.96 C477.14 91.36 480 88.09 483.48 85.32 C485.85 83.77 488.34 82.58 490.88 81.31 C493.63 79.83 495.91 78.52 498.13 76.31 C499.58 74.26 500.52 72.5 501.31 70.12 C501.85 66.68 501.83 63.57 501.31 60.12 C500.35 56.77 500.35 56.77 498.31 54.12 C496.26 52.02 494.77 50.59 492.31 49.12 C488.39 47.53 484.33 46.99 480.13 46.75 C473.88 46.92 468.09 48.86 462.31 51.12 C457.07 53.62 452.52 56.69 448.25 60.62 C443.1 66.11 438.74 72.42 435.31 79.12 C433.63 83.39 432.35 87.65 431.31 92.12 C431.12 92.93 430.93 93.74 430.74 94.58 C429.4 102.58 429.87 110.8 431.34 118.74 C433.48 128.9 437.11 138.15 442.31 147.12 C445.03 151.45 447.87 155.69 450.72 159.93 C455.4 166.99 458.56 173.84 460.85 182.03 C462.26 188.38 461.71 195.64 461.31 202.12 C460.61 206.81 459.12 210.59 456.92 214.77 C454.37 219.17 451.67 223.29 448.31 227.12 C443.39 230.92 438.14 234.05 432.25 236.06 C430.13 236.7 428.52 237.12 426.31 237.12 C426.25 236.01 426.25 236.01 426.18 234.88 C425 216.07 423.61 198.47 416.15 180.98 C412.15 172.12 406.67 164.43 400.31 157.12 C399.81 156.52 399.3 155.92 398.78 155.3 C392.6 148.52 384.39 143.4 376.37 139.07 C363.32 132.48 348.99 128.57 334.5 126.81 C323.25 125.65 312.46 125.94 301.25 127.25 C299.95 127.39 299.95 127.39 298.62 127.53 C280.87 129.83 263.99 136.51 247.5 143.19 C215.89 155.92 215.89 155.92 206.95 156.51 C200.1 156.71 193.45 156.33 186.88 154.22 C181.92 152.11 177.68 149.26 173.31 146.12 C172.25 145.46 171.19 144.8 170.09 144.11 C167.32 142.18 164.77 140.29 162.49 137.8 C161.15 135.89 160.48 134.19 159.81 131.96 C158.86 127.91 158.24 123.83 157.68 119.71 C157.07 115.38 156.23 111.1 155.38 106.81 C155.21 105.98 155.05 105.15 154.88 104.29 C153.4 97.04 151.67 89.76 148.31 83.12 C146.16 80.75 144.09 78.69 141.5 76.81 C138.77 75.95 136.17 75.72 133.32 75.83 C131.08 76.06 131.08 76.06 128.38 77.5 C120.38 83.73 114.65 92.22 109.12 100.59 C108.68 101.25 108.24 101.91 107.79 102.58 C107.41 103.17 107.03 103.76 106.63 104.36 C105 106.53 103.35 108.32 101.31 110.12 C98.6 111.55 98.6 111.55 95.51 112.86 C94.37 113.34 93.24 113.83 92.07 114.33 C90.87 114.84 89.67 115.35 88.44 115.87 C70.64 123.51 70.64 123.51 54.88 134.62 C53.33 136.1 51.81 137.6 50.31 139.12 C49.69 139.75 49.07 140.37 48.43 141.01 C42.28 147.59 37.47 155.5 33.67 163.64 C32.07 167.04 30.54 170.08 28.31 173.12 C25.25 175.19 22.32 176.62 18.89 177.97 C18.04 178.35 17.19 178.73 16.31 179.12 C15.65 180.11 14.99 181.1 14.31 182.12 C13.95 185.76 13.95 185.76 14.39 188.4 C15.59 191.94 17.58 194.61 19.88 197.5 C21.24 199.18 22.62 200.84 24 202.51 C25.95 204.9 27.72 207.42 29.5 209.94 C30.77 211.67 32.04 213.4 33.31 215.12 C33.85 215.85 34.39 216.58 34.94 217.34 C37.4 220.42 39.84 222.79 43.07 225.06 C49.23 228.83 55.25 231.58 62.31 233.12 C69.65 234.54 76.68 234.47 84.06 233.44 C89.82 232.43 94.95 230.47 100.31 228.15 C103.31 227.12 103.31 227.12 106.55 226.88 C107.46 226.96 108.37 227.04 109.31 227.12 C111.69 228.62 111.69 228.62 113.31 230.12 C113.38 232.62 113.38 232.62 112.31 236.12 C108.98 240.1 104.99 243.07 100.61 245.83 C93.39 249.73 85.72 252.41 77.63 253.82 C63.8 255.61 49.33 254 35.45 253.35 C21.59 252.72 7.28 252.81 -6.25 256.37 C-10.45 257.82 -14.06 259.88 -17.65 262.47 C-20.85 265.07 -23.51 267.61 -25.69 271.12 C-27.26 274.72 -28.52 278.37 -29.69 282.12 C-30.02 283.11 -30.35 284.1 -30.69 285.12 C-32.41 285.83 -32.41 285.83 -34.62 286.29 C-35.41 286.46 -36.21 286.63 -37.03 286.81 C-38.28 287.06 -38.28 287.06 -39.56 287.31 C-40.39 287.49 -41.22 287.67 -42.07 287.85 C-45.36 288.54 -48.32 289.12 -51.69 289.12 C-51.69 287.98 -51.7 286.83 -51.7 285.65 C-51.76 274.79 -51.84 263.94 -51.92 253.08 C-51.97 247.5 -52.01 241.92 -52.03 236.34 C-52.06 230.95 -52.1 225.55 -52.15 220.16 C-52.17 218.11 -52.18 216.06 -52.18 214.01 C-52.23 201.76 -52.47 190.17 -56.63 178.48 C-58.86 172.92 -61.98 167.82 -65.69 163.12 C-68.89 159.65 -72.18 156.3 -75.69 153.12 C-76.35 152.79 -77.01 152.46 -77.69 152.12 C-77.76 141.56 -77.81 131 -77.84 120.43 C-77.86 115.53 -77.88 110.62 -77.91 105.72 C-77.95 100.97 -77.96 96.22 -77.97 91.48 C-77.98 89.68 -77.99 87.88 -78 86.08 C-78.11 74.23 -77.43 63.25 -74 51.82 C-70.73 42.67 -65.7 35.02 -59.59 27.57 C-54.06 21.16 -48.2 15.36 -40.86 11.05 C-32.82 6.6 -24.76 2.89 -15.69 1.12 C-14.43 0.86 -14.43 0.86 -13.14 0.6 C-8.74 -0.01 -4.44 -0.01 0 0 Z " fill="#F6D09C" transform="translate(286.6870403289795,352.8769521713257)"/>
<path d="M0 0 C4.79 1.4 9.11 3.34 13.28 6.09 C16.36 8.57 18.73 11.23 21.03 14.44 C23.8 19.03 25.74 23.84 27.04 29.03 C27.62 32.62 27.62 36.13 27.6 39.76 C27.6 40.54 27.6 41.33 27.6 42.14 C27.59 44.78 27.58 47.41 27.57 50.05 C27.56 51.94 27.56 53.83 27.55 55.72 C27.54 59.79 27.53 63.86 27.51 67.93 C27.49 74.37 27.48 80.81 27.47 87.25 C27.43 105.55 27.39 123.86 27.33 142.16 C27.29 152.27 27.27 162.39 27.26 172.5 C27.25 177.85 27.24 183.2 27.21 188.54 C27.19 193.58 27.18 198.61 27.18 203.64 C27.18 205.48 27.17 207.33 27.16 209.17 C27.14 211.7 27.14 214.22 27.15 216.74 C27.14 217.47 27.13 218.19 27.12 218.94 C27.14 221.69 27.3 224.25 28.14 226.87 C29.18 229.38 30.22 231.55 32 233.62 C34.5 235.5 36.51 236.88 39.5 237.88 C40.88 237.97 42.26 238 43.63 238 C44.48 238.01 45.33 238.01 46.2 238.01 C47.14 238.01 48.07 238.01 49.03 238.01 C50.03 238.01 51.02 238.01 52.05 238.01 C55.41 238.02 58.77 238.02 62.14 238.02 C64.56 238.02 66.98 238.02 69.41 238.02 C75.39 238.03 81.37 238.03 87.35 238.03 C94.51 238.04 101.67 238.04 108.84 238.05 C126.15 238.07 143.46 238.07 160.77 238.08 C168.96 238.08 177.15 238.08 185.33 238.09 C213.35 238.1 241.37 238.11 269.38 238.11 C271.14 238.11 272.9 238.11 274.66 238.11 C276.42 238.11 278.19 238.11 279.95 238.11 C283.49 238.11 287.02 238.11 290.56 238.12 C291.44 238.12 292.32 238.12 293.22 238.12 C321.67 238.12 350.12 238.14 378.57 238.16 C408.64 238.18 438.7 238.2 468.77 238.2 C472.07 238.2 475.37 238.2 478.67 238.2 C479.89 238.2 479.89 238.2 481.13 238.2 C494.22 238.2 507.3 238.21 520.39 238.23 C533.54 238.24 546.68 238.24 559.83 238.24 C567.65 238.23 575.46 238.23 583.28 238.25 C589.11 238.26 594.94 238.26 600.77 238.25 C603.13 238.24 605.49 238.25 607.85 238.26 C611.06 238.27 614.26 238.26 617.46 238.25 C618.39 238.25 619.31 238.26 620.26 238.27 C623.49 238.24 626.46 238.17 629.57 237.28 C631.69 236.47 631.69 236.47 634.5 234.88 C637.39 232.15 637.39 232.15 639.5 228.88 C640.9 225.51 641.51 222.79 641.75 219.14 C641.76 217.72 641.76 216.3 641.74 214.88 C641.75 214.09 641.75 213.3 641.75 212.49 C641.76 209.86 641.75 207.22 641.74 204.59 C641.74 202.7 641.74 200.81 641.75 198.92 C641.75 194.85 641.75 190.78 641.74 186.71 C641.74 180.27 641.75 173.82 641.76 167.38 C641.8 149.06 641.82 130.73 641.81 112.41 C641.8 102.29 641.81 92.17 641.84 82.05 C641.86 75.65 641.86 69.26 641.84 62.86 C641.83 58.87 641.84 54.87 641.86 50.88 C641.87 49.04 641.87 47.2 641.85 45.35 C641.76 30.95 641.76 30.95 643.51 24.99 C645.55 19.4 647.92 15.01 651.69 10.38 C654.72 7.28 657.68 4.92 661.5 2.88 C665.97 0.76 670.63 -0.4 675.5 -1.12 C679.77 -1.4 684.03 -1.4 688.31 -1.38 C689.41 -1.38 690.51 -1.39 691.64 -1.4 C699.05 -1.38 706.29 -0.89 713.5 0.88 C719.12 3.15 723.95 5.84 728.5 9.88 C730.41 12.39 730.41 12.39 732.12 15.12 C732.69 16.02 733.26 16.91 733.85 17.83 C735.79 21.4 737.38 24.97 738.5 28.88 C738.87 31.72 738.87 34.49 738.8 37.35 C738.79 38.14 738.77 38.92 738.76 39.72 C738.59 47.61 737.76 55.39 736.76 63.21 C736.57 64.75 736.38 66.29 736.2 67.83 C735.69 71.97 735.18 76.1 734.66 80.24 C734.11 84.63 733.57 89.03 733.03 93.43 C732.01 101.79 730.97 110.14 729.93 118.5 C728.77 127.83 727.62 137.16 726.48 146.48 C725.04 158.18 723.6 169.88 722.14 181.58 C722.03 182.44 721.92 183.3 721.81 184.19 C720.95 191.11 720.95 191.11 720.54 194.38 C719.21 205.06 717.91 215.74 716.65 226.43 C716.26 229.75 715.86 233.08 715.46 236.4 C715.12 239.3 714.79 242.21 714.46 245.11 C713.44 253.77 712.33 261.92 708.5 269.88 C705.77 274.78 702.76 278.87 698.62 282.69 C694.89 285.76 691.05 288.21 686.5 289.88 C679.83 291.9 673.72 292.16 666.77 292.13 C665.6 292.13 664.43 292.14 663.22 292.14 C659.97 292.15 656.72 292.14 653.48 292.14 C649.94 292.13 646.41 292.14 642.87 292.15 C636.68 292.16 630.49 292.16 624.29 292.15 C615.08 292.15 605.87 292.15 596.66 292.16 C579.26 292.18 561.85 292.18 544.44 292.18 C531 292.18 517.56 292.18 504.12 292.18 C502.19 292.18 500.26 292.18 498.33 292.18 C495.43 292.18 492.52 292.19 489.61 292.19 C462.56 292.19 435.51 292.2 408.47 292.19 C407.45 292.19 406.43 292.19 405.38 292.19 C400.21 292.19 395.04 292.19 389.87 292.19 C388.84 292.19 387.82 292.19 386.76 292.19 C384.68 292.19 382.61 292.19 380.53 292.19 C348.23 292.18 315.92 292.19 283.61 292.21 C247.33 292.23 211.04 292.24 174.75 292.24 C170.88 292.24 167.01 292.24 163.14 292.24 C162.19 292.24 161.24 292.24 160.26 292.24 C145.87 292.24 131.48 292.24 117.1 292.25 C100.74 292.27 84.38 292.27 68.02 292.25 C58.87 292.25 49.71 292.25 40.55 292.26 C34.44 292.27 28.32 292.27 22.21 292.26 C18.72 292.25 15.24 292.25 11.75 292.26 C8 292.27 4.24 292.26 0.48 292.25 C-0.59 292.26 -1.67 292.26 -2.78 292.27 C-8.72 292.23 -13.82 291.51 -19.47 289.65 C-24.41 287.76 -28.31 284.63 -32.41 281.35 C-35.97 278.14 -38.44 274.64 -40.75 270.44 C-46.38 258.17 -47.14 243.8 -48.63 230.5 C-48.82 228.82 -49.01 227.15 -49.21 225.48 C-49.72 220.98 -50.23 216.47 -50.74 211.97 C-51.28 207.22 -51.83 202.47 -52.37 197.72 C-53.4 188.71 -54.43 179.7 -55.45 170.7 C-56.61 160.54 -57.77 150.39 -58.93 140.23 C-60.35 127.8 -61.77 115.37 -63.19 102.94 C-63.29 102.06 -63.39 101.19 -63.49 100.28 C-63.97 96.05 -64.45 91.82 -64.93 87.58 C-65.75 80.38 -66.58 73.17 -67.44 65.96 C-67.65 64.18 -67.65 64.18 -67.86 62.35 C-68.12 60.22 -68.37 58.09 -68.63 55.96 C-69.78 46.3 -70.48 36.57 -69.07 26.91 C-67.93 22.35 -65.91 18.62 -63.38 14.69 C-60.3 10.57 -56.99 7.28 -52.82 4.28 C-49.21 2.1 -45.62 0.73 -41.5 -0.12 C-28.26 -2.23 -13.17 -2.68 0 0 Z " fill="#EF9959" transform="translate(183.5,519.125)"/>
<path d="M0 0 C1.29 -0 1.29 -0 2.62 -0.01 C5.51 -0.01 8.41 -0.01 11.31 -0.01 C13.41 -0.01 15.51 -0.01 17.6 -0.01 C23.37 -0.02 29.14 -0.02 34.91 -0.02 C41.13 -0.02 47.35 -0.02 53.57 -0.03 C65.75 -0.04 77.94 -0.04 90.13 -0.04 C100.03 -0.04 109.94 -0.04 119.84 -0.04 C122.7 -0.05 125.55 -0.05 128.4 -0.05 C129.11 -0.05 129.82 -0.05 130.55 -0.05 C150.48 -0.05 170.42 -0.06 190.36 -0.06 C191.49 -0.06 191.49 -0.06 192.64 -0.06 C196.45 -0.06 200.26 -0.06 204.07 -0.06 C204.83 -0.06 205.59 -0.06 206.36 -0.06 C207.9 -0.06 209.43 -0.06 210.96 -0.06 C234.76 -0.06 258.57 -0.06 282.37 -0.08 C309.12 -0.09 335.87 -0.1 362.61 -0.1 C365.47 -0.1 368.32 -0.1 371.17 -0.1 C371.87 -0.1 372.58 -0.1 373.3 -0.1 C384.6 -0.1 395.9 -0.11 407.2 -0.11 C418.56 -0.12 429.91 -0.12 441.27 -0.12 C447.42 -0.11 453.58 -0.11 459.73 -0.12 C465.36 -0.13 471 -0.13 476.63 -0.12 C478.67 -0.12 480.7 -0.12 482.74 -0.13 C503.02 -0.18 503.02 -0.18 511.34 2.13 C515.09 3.63 518.18 5.62 521.34 8.13 C524.73 11.59 526.85 15.12 528.98 19.46 C530.81 24.55 530.77 29.64 530.8 35.01 C530.79 36.99 530.79 36.99 530.78 39 C530.8 40.31 530.82 41.63 530.84 42.98 C530.84 47.86 530.8 52.44 529.52 57.17 C527.98 61.13 526.23 64.61 523.66 68 C521.99 69.73 520.45 71.06 518.38 72.29 C515.32 73.71 512.44 74.95 509.09 75.49 C506.72 75.64 504.37 75.66 502 75.63 C501.1 75.64 500.19 75.64 499.27 75.65 C496.25 75.66 493.24 75.65 490.23 75.64 C488.05 75.64 485.86 75.65 483.68 75.66 C477.68 75.67 471.69 75.66 465.69 75.65 C459.22 75.64 452.76 75.66 446.29 75.67 C434.35 75.68 422.41 75.68 410.48 75.67 C399.45 75.66 388.42 75.66 377.4 75.66 C376.66 75.66 375.93 75.66 375.18 75.66 C372.21 75.67 369.24 75.67 366.27 75.67 C338.42 75.68 310.56 75.67 282.71 75.65 C257.96 75.63 233.21 75.63 208.47 75.65 C180.66 75.67 152.85 75.68 125.05 75.67 C122.08 75.67 119.12 75.67 116.16 75.66 C115.43 75.66 114.7 75.66 113.94 75.66 C102.92 75.66 91.9 75.66 80.88 75.67 C68.35 75.69 55.82 75.68 43.29 75.66 C36.9 75.65 30.5 75.65 24.11 75.66 C18.26 75.67 12.4 75.66 6.55 75.64 C4.43 75.64 2.31 75.64 0.2 75.65 C-2.68 75.66 -5.56 75.65 -8.44 75.63 C-9.67 75.65 -9.67 75.65 -10.94 75.66 C-14.18 75.62 -16.88 75.42 -19.93 74.27 C-22.88 72.83 -25.35 71.39 -27.86 69.27 C-28.39 68.65 -28.92 68.02 -29.47 67.38 C-30.01 66.77 -30.55 66.15 -31.11 65.52 C-32.73 63.02 -34.08 60.57 -35.07 57.76 C-36.27 52.37 -36.14 46.84 -36.1 41.35 C-36.09 39.2 -36.12 37.05 -36.15 34.9 C-36.21 25.06 -36.21 25.06 -34.85 20.27 C-32.83 15.57 -30.19 11.67 -26.72 7.92 C-23.79 5.38 -20.67 3.7 -17.18 2.04 C-11.57 0.02 -5.91 -0.02 0 0 Z " fill="#EF9958" transform="translate(270.6568021774292,657.8713655471802)"/>
<path d="M0 0 C122.43 0 244.86 0 371 0 C371 58.74 371 117.48 371 178 C329.75 178 288.5 178 246 178 C243.36 168.45 240.72 158.9 238 149.06 C236.54 143.81 235.09 138.56 233.63 133.31 C230.57 122.3 227.52 111.28 224.53 100.24 C223.1 94.99 221.65 89.74 220.21 84.48 C219.53 82 218.86 79.52 218.19 77.03 C217.26 73.57 216.31 70.12 215.36 66.67 C215.09 65.66 214.82 64.64 214.55 63.6 C213.81 60.99 213.04 58.5 212 56 C209.84 52.9 209.84 52.9 207 51 C204.32 49.75 201.99 49.1 199.05 48.8 C196.8 48.67 194.57 48.62 192.32 48.59 C191.51 48.57 190.69 48.55 189.86 48.53 C187.28 48.47 184.7 48.42 182.12 48.38 C180.37 48.34 178.61 48.3 176.86 48.26 C172.57 48.16 168.29 48.08 164 48 C163.74 47.24 163.48 46.47 163.22 45.69 C162.87 44.69 162.52 43.69 162.16 42.66 C161.82 41.67 161.48 40.68 161.13 39.66 C160.75 38.78 160.38 37.91 160 37 C157.64 34.34 157.64 34.34 155 33 C151.35 31.78 147.96 31.82 144.16 31.79 C143.36 31.78 142.56 31.77 141.74 31.76 C139.09 31.73 136.43 31.71 133.78 31.68 C131.93 31.66 130.07 31.64 128.21 31.62 C124.31 31.58 120.41 31.54 116.5 31.5 C111.55 31.45 106.6 31.4 101.65 31.34 C96.88 31.29 92.11 31.23 87.34 31.18 C86.46 31.17 85.57 31.16 84.66 31.15 C79.6 31.1 74.54 31.06 69.48 31.02 C66.93 31 64.38 30.96 61.83 30.92 C60.15 30.9 58.47 30.88 56.79 30.86 C56.04 30.85 55.29 30.83 54.51 30.81 C49.16 30.77 44.13 31.42 39 33 C36.05 34.54 36.05 34.54 34 37 C32.61 39.44 31.73 41.32 31 44 C30.55 48.36 30.56 52.71 30.57 57.1 C30.56 58.4 30.55 59.71 30.54 61.06 C30.51 64.63 30.5 68.2 30.49 71.77 C30.48 75.51 30.46 79.24 30.43 82.98 C30.39 90.05 30.36 97.12 30.34 104.19 C30.31 112.24 30.27 120.29 30.22 128.34 C30.13 144.89 30.06 161.45 30 178 C20.1 178 10.2 178 0 178 C0 119.26 0 60.52 0 0 Z " fill="#ECD3A9" transform="translate(479,149)"/>
<path d="M0 0 C9.57 0 19.14 0 29 0 C42.16 45.26 42.16 45.26 46.52 61.73 C49.28 72.14 52.22 82.5 55.16 92.86 C55.35 93.53 55.54 94.2 55.73 94.89 C56.25 96.71 56.77 98.54 57.28 100.36 C58 103 58 103 58 104 C38.86 104 19.72 104 0 104 C0 69.68 0 35.36 0 0 Z " fill="#ECD2A9" transform="translate(641,223)"/>
<path d="M0 0 C9.57 0 19.14 0 29 0 C29 40.26 29 80.52 29 122 C19.43 122 9.86 122 0 122 C0 81.74 0 41.48 0 0 Z " fill="#ECD4AB" transform="translate(535,205)"/>
<path d="M0 0 C9.24 0 18.48 0 28 0 C28 40.26 28 80.52 28 122 C18.76 122 9.52 122 0 122 C0 81.74 0 41.48 0 0 Z " fill="#ECD2A8" transform="translate(589,205)"/>
<path d="M0 0 C0.81 0.09 1.62 0.19 2.45 0.28 C4 1.12 4 1.12 5.58 1.97 C6.2 2.73 6.82 3.5 7.45 4.28 C7.76 5.52 7.76 5.52 8.08 6.78 C7.87 7.61 7.67 8.43 7.45 9.28 C5.64 11.41 5.64 11.41 2.45 13.28 C0.63 13.8 -1.2 14.27 -3.05 14.72 C-4.89 15.19 -6.73 15.7 -8.55 16.28 C-12.77 19.47 -15.41 23.82 -18.31 28.2 C-19.69 30.35 -19.69 30.35 -20.55 33.28 C-20.98 39.17 -21.18 45.15 -20 50.95 C-19.08 53.39 -18.12 55.2 -16.55 57.28 C-13.99 59.71 -11.38 61.97 -8.59 64.14 C-7.92 64.85 -7.24 65.55 -6.55 66.28 C-6.12 68.92 -6.12 68.92 -6.55 71.28 C-7.21 71.94 -7.87 72.6 -8.55 73.28 C-10.45 73.69 -10.45 73.69 -12.81 73.92 C-13.69 74.01 -14.57 74.1 -15.48 74.19 C-16.44 74.28 -17.4 74.37 -18.38 74.46 C-19.87 74.62 -19.87 74.62 -21.38 74.77 C-25.62 75.2 -29.86 75.62 -34.1 76.03 C-50.56 77.37 -50.56 77.37 -66.55 81.28 C-69.61 82.96 -72.05 84.85 -74.69 87.13 C-76.92 88.99 -79.09 90.74 -81.55 92.28 C-82.66 92.34 -83.77 92.4 -84.92 92.47 C-87.55 91.28 -87.55 91.28 -89.48 89.72 C-89.84 88.91 -90.19 88.11 -90.55 87.28 C-90.6 84.1 -90.51 82.22 -89.55 79.28 C-88.42 77.17 -87.23 75.65 -85.55 73.94 C-81.89 70.91 -78.18 68.61 -73.71 66.94 C-65.26 64.37 -56.26 63.5 -47.55 62.28 C-44.92 61.89 -42.3 61.49 -39.67 61.09 C-38.71 60.96 -37.74 60.82 -36.74 60.68 C-34.51 60.38 -34.51 60.38 -32.55 59.28 C-33.06 56.47 -33.69 53.84 -34.56 51.12 C-36.31 44.32 -36.23 37.26 -35.55 30.28 C-34.7 26.59 -33.42 23.56 -31.55 20.28 C-30.88 19.1 -30.88 19.1 -30.19 17.89 C-27.46 13.47 -24.47 9.81 -20.41 6.56 C-13.96 2.13 -7.84 -0.09 0 0 Z " fill="#F6D4A4" transform="translate(609.546875,547.71875)"/>
<path d="M0 0 C16.83 0 33.66 0 51 0 C50.2 6.48 49.39 12.95 48.56 19.62 C48.18 22.68 48.18 22.68 47.8 25.79 C47.6 27.41 47.39 29.04 47.19 30.66 C47.09 31.5 46.99 32.33 46.88 33.19 C46.78 34 46.68 34.81 46.57 35.65 C46.49 36.34 46.4 37.04 46.31 37.76 C45.93 40.51 45.46 43.26 45 46 C30.15 46 15.3 46 0 46 C0 30.82 0 15.64 0 0 Z " fill="#7E5737" transform="translate(208,836)"/>
<path d="M0 0 C15.84 0 31.68 0 48 0 C48 15.18 48 30.36 48 46 C34.14 46 20.28 46 6 46 C5.01 39.15 4.02 32.3 3 25.25 C2.69 23.09 2.37 20.94 2.05 18.72 C1.8 17 1.56 15.29 1.31 13.58 C1.18 12.69 1.05 11.81 0.92 10.89 C0.8 10.04 0.68 9.19 0.55 8.31 C0.44 7.57 0.34 6.84 0.23 6.08 C0 4 0 4 0 0 Z " fill="#815939" transform="translate(776,836)"/>
<path d="M0 0 C2.7 0.25 2.7 0.25 5 1 C5.66 1.66 6.32 2.32 7 3 C7.38 5.75 7.38 5.75 7 9 C5.16 12.47 3.09 14.91 0.31 17.69 C-2.12 19.59 -4.53 20.76 -7.44 21.81 C-10.18 22.61 -12.72 23.1 -15.56 23.5 C-19 23 -19 23 -21.04 22.16 C-23.25 20.93 -25.09 19.66 -27 18 C-29.12 15.5 -30.68 13 -32 10 C-32.94 6.12 -32.94 6.12 -33 3 C-32.34 2.34 -31.68 1.68 -31 1 C-28.62 1.25 -28.62 1.25 -26 2 C-25.09 2.51 -25.09 2.51 -24.15 3.02 C-22.02 4.11 -22.02 4.11 -19.59 4.34 C-15.49 4.4 -11.95 4.3 -8.01 3.07 C-6.16 2.34 -4.32 1.58 -2.51 0.78 C-1.68 0.52 -0.85 0.26 0 0 Z " fill="#F6D6A6" transform="translate(379,523)"/>
<path d="M0 0 C9.24 0 18.48 0 28 0 C28 40.26 28 80.52 28 122 C18.76 122 9.52 122 0 122 C0 81.74 0 41.48 0 0 Z M2 1 C1.67 1.33 1.34 1.66 1 2 C0.9 3.53 0.87 5.06 0.87 6.59 C0.87 7.59 0.87 8.58 0.86 9.6 C0.87 10.7 0.87 11.8 0.87 12.93 C0.87 14.08 0.87 15.23 0.87 16.41 C0.86 20.23 0.86 24.05 0.87 27.88 C0.87 30.52 0.87 33.16 0.86 35.8 C0.86 41.35 0.86 46.89 0.87 52.44 C0.88 58.85 0.87 65.27 0.87 71.69 C0.86 77.86 0.86 84.02 0.87 90.19 C0.87 92.81 0.87 95.44 0.86 98.07 C0.86 101.74 0.87 105.4 0.87 109.07 C0.87 110.17 0.87 111.27 0.86 112.4 C0.87 113.39 0.87 114.38 0.87 115.41 C0.87 116.27 0.87 117.14 0.87 118.04 C0.92 118.68 0.96 119.33 1 120 C1.33 120.33 1.66 120.66 2 121 C3.7 121.1 5.4 121.13 7.09 121.13 C8.12 121.13 9.15 121.14 10.21 121.14 C11.3 121.13 12.38 121.13 13.5 121.12 C15.13 121.13 15.13 121.13 16.79 121.14 C17.82 121.14 18.85 121.13 19.91 121.13 C20.86 121.13 21.81 121.13 22.79 121.13 C23.52 121.09 24.25 121.04 25 121 C25.33 120.67 25.66 120.34 26 120 C26.1 118.47 26.13 116.94 26.13 115.41 C26.13 114.41 26.13 113.42 26.14 112.4 C26.13 111.3 26.13 110.2 26.13 109.07 C26.13 107.92 26.13 106.77 26.13 105.59 C26.14 101.77 26.14 97.95 26.13 94.12 C26.13 91.48 26.13 88.84 26.14 86.2 C26.14 80.65 26.14 75.11 26.13 69.56 C26.12 63.15 26.13 56.73 26.13 50.31 C26.14 44.14 26.14 37.98 26.13 31.81 C26.13 29.19 26.13 26.56 26.14 23.93 C26.14 20.26 26.13 16.6 26.13 12.93 C26.13 11.83 26.13 10.73 26.14 9.6 C26.13 8.61 26.13 7.62 26.13 6.59 C26.13 5.73 26.13 4.86 26.13 3.96 C26.08 3.32 26.04 2.67 26 2 C25.67 1.67 25.34 1.34 25 1 C23.3 0.9 21.6 0.87 19.91 0.87 C18.88 0.87 17.85 0.86 16.79 0.86 C15.7 0.87 14.62 0.87 13.5 0.88 C11.87 0.87 11.87 0.87 10.21 0.86 C9.18 0.86 8.15 0.87 7.09 0.87 C5.67 0.87 5.67 0.87 4.21 0.87 C3.48 0.91 2.75 0.96 2 1 Z " fill="#F7EBCB" transform="translate(589,205)"/>
<path d="M0 0 C9.57 0 19.14 0 29 0 C29 1.65 29 3.3 29 5 C28.01 4.01 27.02 3.02 26 2 C18.41 2 10.82 2 3 2 C3 35 3 68 3 102 C20.16 102 37.32 102 55 102 C55 101.34 55 100.68 55 100 C55.66 100 56.32 100 57 100 C57.33 101.32 57.66 102.64 58 104 C38.86 104 19.72 104 0 104 C0 69.68 0 35.36 0 0 Z " fill="#F6E9C7" transform="translate(641,223)"/>
<path d="M0 0 C0.5 0.99 0.5 0.99 1 2 C-0.06 4.54 -1.32 6.95 -2.58 9.39 C-5.69 17.29 -7.12 25.01 -7.38 33.46 C-7.47 38.32 -7.5 43.19 -7.51 48.05 C-7.53 50.16 -7.55 52.27 -7.57 54.38 C-7.61 59.9 -7.64 65.42 -7.67 70.93 C-7.7 76.58 -7.75 82.22 -7.79 87.87 C-7.88 98.91 -7.94 109.95 -8 121 C-9.02 120.79 -10.03 120.58 -11.08 120.36 C-21.89 118.22 -32.29 117.53 -43.29 117.49 C-44.96 117.47 -46.64 117.45 -48.32 117.43 C-52.68 117.39 -57.04 117.36 -61.4 117.33 C-65.87 117.3 -70.34 117.25 -74.81 117.21 C-83.54 117.12 -92.27 117.06 -101 117 C-98.39 115.26 -96.42 114.31 -93.5 113.31 C-92.73 113.04 -91.95 112.77 -91.16 112.49 C-90.44 112.33 -89.73 112.17 -89 112 C-88.01 112.33 -87.02 112.66 -86 113 C-86.99 113.99 -86.99 113.99 -88 115 C-86.8 115.01 -86.8 115.01 -85.58 115.02 C-77.99 115.1 -70.4 115.19 -62.81 115.29 C-58.91 115.34 -55 115.38 -51.1 115.42 C-47.33 115.46 -43.56 115.51 -39.78 115.56 C-38.35 115.58 -36.92 115.59 -35.49 115.6 C-26.83 115.68 -18.51 116.27 -10 118 C-10 116.86 -9.99 115.71 -9.99 114.53 C-9.95 103.69 -9.89 92.85 -9.82 82.01 C-9.78 76.44 -9.74 70.86 -9.73 65.29 C-9.71 59.9 -9.68 54.52 -9.63 49.13 C-9.62 47.08 -9.61 45.04 -9.61 42.99 C-9.6 32.25 -9.18 22.38 -6.12 12.04 C-4.53 7.74 -2.53 3.82 0 0 Z " fill="#FBF8DC" transform="translate(809,521)"/>
<path d="M0 0 C0.99 0 1.98 0 3 0 C3 40.26 3 80.52 3 122 C1.35 122 -0.3 122 -2 122 C-1.01 121.01 -1.01 121.01 0 120 C0.3 117.79 0.3 117.79 0.24 115.2 C0.24 114.19 0.25 113.18 0.25 112.14 C0.24 111.02 0.23 109.91 0.23 108.76 C0.23 107 0.23 107 0.23 105.21 C0.23 101.99 0.22 98.78 0.2 95.57 C0.19 92.21 0.19 88.85 0.19 85.49 C0.18 79.13 0.16 72.77 0.14 66.41 C0.12 59.17 0.11 51.93 0.1 44.69 C0.08 29.79 0.04 14.9 0 0 Z " fill="#EBC89F" transform="translate(561,205)"/>
<path d="M0 0 C0.33 0 0.66 0 1 0 C2.2 4.73 2.17 9.35 2.21 14.2 C2.22 15.11 2.23 16.03 2.24 16.98 C2.27 20 2.29 23.03 2.32 26.05 C2.34 28.15 2.36 30.25 2.38 32.35 C2.43 37.87 2.48 43.4 2.53 48.92 C2.58 54.56 2.64 60.19 2.69 65.83 C2.8 76.89 2.9 87.94 3 99 C4.9 98.69 6.79 98.38 8.69 98.06 C10.27 97.8 10.27 97.8 11.89 97.54 C13.43 97.27 13.43 97.27 15 97 C15.93 96.86 16.86 96.73 17.81 96.59 C18.54 96.39 19.26 96.2 20 96 C21.41 93.51 21.41 93.51 22.19 90.5 C22.75 88.65 23.34 86.81 24 85 C24.99 84.5 24.99 84.5 26 84 C25.52 85.77 25.04 87.54 24.56 89.31 C24.3 90.3 24.03 91.28 23.75 92.3 C23.22 94.22 22.63 96.11 22 98 C20.28 98.71 20.28 98.71 18.07 99.17 C17.27 99.34 16.48 99.51 15.66 99.69 C14.82 99.85 13.99 100.02 13.12 100.19 C12.3 100.36 11.47 100.54 10.61 100.72 C7.33 101.41 4.37 102 1 102 C0.67 68.34 0.34 34.68 0 0 Z " fill="#FCF9DE" transform="translate(234,540)"/>
<path d="M0 0 C16.83 0 33.66 0 51 0 C50.67 2.31 50.34 4.62 50 7 C49.67 7 49.34 7 49 7 C48.5 4.52 48.5 4.52 48 2 C32.82 2 17.64 2 2 2 C2 15.86 2 29.72 2 44 C5.96 44.33 9.92 44.66 14 45 C14 45.33 14 45.66 14 46 C9.38 46 4.76 46 0 46 C0 30.82 0 15.64 0 0 Z " fill="#B08053" transform="translate(208,836)"/>
<path d="M0 0 C0.33 0 0.66 0 1 0 C1.33 6.27 1.66 12.54 2 19 C4.97 18.67 7.94 18.34 11 18 C10.34 18.66 9.68 19.32 9 20 C6.03 20.66 3.06 21.32 0 22 C0 14.74 0 7.48 0 0 Z " fill="#FDFBE1" transform="translate(713,568)"/>
<path d="M0 0 C0.66 0 1.32 0 2 0 C1.31 1.69 1.31 1.69 0 4 C-1.63 5.7 -3.29 7.38 -5 9 C-5.66 8.67 -6.32 8.34 -7 8 C-5.88 6.66 -4.76 5.33 -3.62 4 C-2.69 2.89 -2.69 2.89 -1.73 1.75 C-1.16 1.17 -0.59 0.6 0 0 Z " fill="#F7E3BD" transform="translate(588,555)"/>
<path d="M0 0 C0.66 0 1.32 0 2 0 C0.99 2.25 0.06 3.94 -1.62 5.75 C-2.31 6.37 -2.31 6.37 -3 7 C-3.66 6.67 -4.32 6.34 -5 6 C-3.38 3.96 -1.71 1.96 0 0 Z " fill="#F8E7C2" transform="translate(526,620)"/>
</svg>
