<svg xmlns="http://www.w3.org/2000/svg" width="1024" height="1024" version="1.1"><path fill="#ECD2A8" fill-rule="evenodd" d="M350.118 606.094c-1.086-.688-.925-1.02.75-1.552 2.569-.815 6.39.231 5.588 1.53-.722 1.167-4.51 1.18-6.338.022M714.2 585.741c-.623-.751-.73-1.882-.252-2.657.634-1.025 1.001-.82 1.534.86.85 2.675.2 3.584-1.282 1.797m72.987-33.123c-.68-1.585-.957-3.768-.613-4.85 1.022-3.222 2.602-.464 2.207 3.85l-.356 3.882zM483.323 327.356c-5-1.093-4.823 2.176-4.823-89.473v-85.81l1.786-1.787 1.785-1.786H845.93l1.785 1.786 1.786 1.785V323.93l-1.786 1.785-1.785 1.786H728.21l-2.048-1.854c-1.127-1.02-2.325-3.27-2.662-5-.338-1.73-2.855-11.021-5.595-20.646s-5.865-20.65-6.947-24.5-4.42-15.55-7.417-26-6.864-24.395-8.593-30.988c-1.728-6.593-3.804-13.266-4.612-14.829-2.448-4.733-6.432-5.672-24.554-5.783-8.955-.055-17.407-.408-18.782-.785-1.754-.48-3.395-2.458-5.5-6.625-2.034-4.027-4.127-6.592-6.5-7.965l-3.5-2.025h-111l-3.24 1.77c-1.783.975-4.033 2.98-5 4.456l-1.76 2.684-.5 67.26-.5 67.26-1.76 1.76c-1.423 1.421-3.733 1.797-12 1.951-5.632.105-11.22-.023-12.417-.285m55.685-.187c-1.37-.415-3.057-1.861-3.748-3.212-.974-1.904-1.2-15.214-1.008-59.172l.248-56.715 1.787-1.785c1.507-1.505 3.579-1.785 13.2-1.785 8.032 0 11.799.385 12.714 1.3 1.036 1.037 1.299 13.217 1.299 60.2 0 44.47-.294 59.194-1.2 60.1-1.394 1.394-19.484 2.224-23.292 1.07m54-.005c-1.37-.413-3.057-1.856-3.748-3.207-.974-1.904-1.2-15.214-1.008-59.172l.248-56.715 1.698-1.697c1.208-1.208 3.95-1.827 9.5-2.145 9.716-.558 16.068.974 16.827 4.058.3 1.218.416 27.736.26 58.929l-.285 56.715-1.727 1.726c-1.323 1.322-3.777 1.788-10.5 1.992-4.825.146-9.894-.072-11.265-.484m52.69.115c-1.846-.278-3.125-1.273-3.75-2.916-1.28-3.367-1.255-95.426.027-98.798l.975-2.565h11.914c9.92 0 12.249.293 13.911 1.75 1.34 1.174 3.556 7.345 6.735 18.75 2.607 9.35 5.98 21.275 7.497 26.5s3.55 12.425 4.517 16c2.362 8.729 7.14 25.313 9.107 31.605 1.935 6.19.928 8.833-3.72 9.763-3.406.68-42.586.607-47.213-.09"/><path fill="#F6CF9B" fill-rule="evenodd" d="M177.244 811.336c-.691-.279-1.002-.918-.691-1.421.748-1.212 680.134-1.231 680.882-.02.305.493-.156 1.168-1.023 1.5-1.892.727-677.366.667-679.168-.06m-12.362-2.717c-1.99-.71-5.187-2.263-7.106-3.449-5.022-3.103-12.207-11.113-15.112-16.846-2.727-5.381-6.108-19.796-5.047-21.513 1.068-1.728 2.094 1.102 2.866 7.9.484 4.27 2.004 8.802 4.86 14.497l4.157 8.284 6.33 4.214c3.481 2.318 8.656 5.108 11.5 6.202 5.641 2.169 3.43 2.812-2.448.711M863 809.1c.825-.588 2.216-1.075 3.09-1.084 3.37-.032 13.896-6.276 17.897-10.617 6.763-7.337 8.824-13.113 11.086-31.076 2.414-19.16 2.761-20.888 3.958-19.69 1.209 1.208-1.51 22.584-4.095 32.191-1.084 4.028-2.92 9.186-4.082 11.462-2.767 5.426-11.505 13.883-17.18 16.63-4.885 2.365-13.367 4.1-10.674 2.183M136.592 759.79c-1.231-6.05-1.508-10.725-.666-11.245 1.072-.663 1.651 1.077 2.538 7.615.378 2.787.222 4.915-.387 5.291-.56.346-1.228-.401-1.485-1.661m93.652.545c-.691-.279-1.002-.918-.691-1.421.644-1.043 8.44-1.239 10.95-.276 1.328.51 1.395.81.33 1.485-1.429.906-8.515 1.048-10.59.212m27.76-.333c-1.947-1.204.888-1.704 7.996-1.411 8.655.356 8.416.325 7.744.998-.89.89-14.395 1.244-15.74.413m24.162.12c-1.057-.67-.976-.982.391-1.507.949-.364 2.62-.377 3.716-.03 1.581.503 1.707.813.61 1.508-1.736 1.1-3.017 1.107-4.717.03m13 .006c-2.152-1.372.92-2.082 4.923-1.138 2.212.522 2.65.84 1.243.907-1.193.056-2.768.322-3.5.591-.733.27-1.932.107-2.666-.36m26.183-.379c-.257-.413-.328-.766-.158-.786 4.462-.516 11.893-.442 13.365.135l1.944.76-2 .199c-5.374.533-12.734.36-13.15-.308m31.817.374c-2.588-1.64 1.806-2.124 19.166-2.109 16.215.015 22.223.79 18.17 2.346-2.486.954-35.79.742-37.336-.237m45 0c-2.644-1.676 1.956-2.124 21.666-2.109 18.44.015 24.85.742 20.67 2.346-2.49.956-40.792.741-42.336-.237m50.982-.032c-1.05-.65-1.006-.933.224-1.405 2.022-.776 150.22-.78 152.241-.005 1.246.478 1.292.759.23 1.415-1.725 1.066-150.97 1.061-152.695-.005m161.352-.007-4-.63 5.5-.72c7.702-1.005 57.211-.887 58.834.141 1.064.675.997.975-.332 1.485-2.113.81-54.644.57-60.002-.276m76.054.013-1.947-.762 2.447-.654c3.31-.886 17.972-.727 20.392.22l1.947.762-2.447.654c-3.31.886-17.972.727-20.392-.22m29.446-.05-2.5-.714 4-.64c2.2-.353 12.325-.48 22.5-.281 21.899.427 21.517.404 20.662 1.259-.922.921-41.555 1.264-44.662.377m89.824-1.118c2.378-.468 6.733-1.954 9.679-3.303 3.688-1.688 5.922-3.49 7.176-5.79l1.821-3.337.518-99 .517-99 2.925-7c4.705-11.26 15.024-20.009 26.54-22.502 3.447-.747 11.658-1.062 22-.845l16.5.347 5.675 2.66c6.272 2.94 14.186 9.703 16.427 14.038.797 1.541 1.255 2.802 1.017 2.802-.237 0-2.016-2.206-3.953-4.902-2.67-3.716-5.165-5.711-10.318-8.25l-6.795-3.348-21.092-.32-21.091-.318-5.667 2.506c-6.812 3.012-12.926 9.16-16.542 16.632l-2.661 5.5-.5 99c-.397 78.533-.77 99.62-1.81 102-2.244 5.142-8.228 10.434-13.604 12.03-2.722.809-6.33 1.42-8.018 1.36l-3.068-.11zm-587.324-1.8c-4.493-2.791-7.259-6.194-8.966-11.034L208 741.749l-.006-97.625c-.003-60.926-.375-98.94-.989-101.124-.54-1.925-2.68-5.975-4.755-9-3.054-4.453-5.1-6.166-10.742-9l-6.97-3.5H138.5l-3.5 1.868c-6.524 3.482-10.211 6.886-14.102 13.018-2.133 3.363-3.883 5.406-3.888 4.54-.014-2.234 6.136-10.597 10.341-14.064 1.954-1.61 6.163-4.151 9.351-5.645l5.798-2.717 16-.327c17.575-.358 25.33.678 32.467 4.338 7.046 3.613 13.371 10.887 16.93 19.47l3.103 7.481V746.08l1.946 3.813c1.474 2.89 3.17 4.34 7 5.988 2.78 1.196 5.054 2.387 5.054 2.647 0 1.12-3.74.316-6.5-1.399m-83.852-14.604c-.308-.804-.177-1.699.29-1.988.47-.29 1.105.131 1.414.936.308.804.177 1.699-.29 1.988-.47.29-1.105-.131-1.414-.936m764.043-1.217c-.307-.497-.195-1.494.25-2.214s1.06-.901 1.368-.404c.307.497.195 1.494-.25 2.214s-1.06.901-1.368.404m-765.126-7.414c-.3-1.317-.999-6.199-1.553-10.848-.63-5.288-.654-8.805-.065-9.394 1.152-1.152 1.673 1.024 2.957 12.347.553 4.882.59 8.88.085 9.395-.51.52-1.107-.109-1.424-1.5m119.712-1.423c-9.058-2.852-16.067-11.06-18.257-21.378-.793-3.739-1.11-10.273-.84-17.3l.434-11.294 3.63-7.54c3.08-6.4 4.426-8.057 8.886-10.947 2.89-1.873 7.517-3.993 10.281-4.71 4.067-1.054 53.75-1.3 260.557-1.291 215.36.01 256.356.231 260.77 1.406 6.272 1.67 14.034 7.138 16.674 11.745l1.912 3.337-4.417-4.68c-2.43-2.575-6.59-5.613-9.245-6.75l-4.828-2.07-261.167.022-261.167.022-4 1.831c-5.333 2.442-13.062 10.886-14.41 15.743-.594 2.135-1.081 10.772-1.084 19.194L237 713.124l2.588 5.47c1.952 4.127 3.854 6.324 7.737 8.939l5.148 3.467h265.33c193.242 0 265.922-.303 267.513-1.116 1.201-.613 4.37-3.2 7.04-5.75l4.856-4.634-2.026 4.053c-2.098 4.198-3.855 5.347-13.093 8.564L776.687 734l-259.594-.099c-213.002-.081-260.351-.337-263.816-1.429m646.414.837c-.307-.497-.195-1.494.25-2.214s1.06-.901 1.368-.404c.307.497.195 1.494-.25 2.214s-1.06.901-1.368.404m1.055-7.911c-.334-.54.042-6.137.835-12.44 1.793-14.253 2.29-16.49 3.41-15.353.508.516.254 5.975-.6 12.895-1.516 12.295-2.576 16.628-3.645 14.898M798.5 697.107V678.08l1.83 3.567c1.546 3.017 1.773 5.441 1.47 15.71-.23 7.797-.884 13.329-1.829 15.458l-1.471 3.317zm-667.958 9.788c-.312-1.317-1.433-9.82-2.49-18.895-1.108-9.508-1.55-16.88-1.042-17.395 1.208-1.229 1.686 1.268 3.902 20.395 1.065 9.189 1.532 16.896 1.055 17.395-.49.51-1.1-.132-1.425-1.5m774.14-14.546c-.644-.644-.333-4.128.905-10.14.873-4.24 2.37-1.178 1.753 3.585-.689 5.31-1.616 7.597-2.657 6.555m2.009-17.04c-.307-.497-.195-1.494.25-2.214s1.06-.901 1.368-.404c.307.497.195 1.494-.25 2.214s-1.06.901-1.368.404m1-8c-.307-.497-.195-1.494.25-2.214s1.06-.901 1.368-.404c.307.497.195 1.494-.25 2.214s-1.06.901-1.368.404m-782.15-3.414c-.315-1.317-1.881-13.645-3.482-27.395-1.658-14.233-2.536-25.385-2.04-25.895.503-.517 1.107.117 1.432 1.5.308 1.317 1.869 13.645 3.467 27.395 1.619 13.932 2.526 25.396 2.049 25.895-.49.51-1.1-.132-1.427-1.5m783.202-4.485c-.594-.594-.344-3.286.852-9.2.825-4.08 2.436-1.263 1.773 3.1-.728 4.798-1.69 7.034-2.625 6.1m2-16.016c-.573-.927 1.61-22.117 2.811-27.289.32-1.378.924-2.015 1.422-1.5.489.505.23 6.341-.594 13.395-1.482 12.69-2.54 17.17-3.638 15.394m-674.87-4.046c-1.106-1.33-1.48-11.297-1.922-51.25-.346-31.18-.947-50.724-1.618-52.63-3.199-9.079-7.146-15.3-14.899-23.48-6.01-6.341-8.48-9.72-8.954-12.242-.36-1.916-.48-19.855-.27-39.865l.383-36.381 2.318-9.5c2.877-11.788 9.305-24.565 16.936-33.664 6.863-8.183 19.036-17.208 28.653-21.243 3.85-1.615 10.825-3.76 15.5-4.765l8.5-1.828H845.93l1.785 1.785 1.786 1.786.27 66.345c.174 42.51-.088 67.29-.73 68.977-.55 1.447-2.246 3.132-3.77 3.745-11.978 4.812-18.085 8.6-25.784 15.99-6.45 6.193-8.873 9.353-11.441 14.925-6.002 13.022-6.019 13.197-6.048 63.447-.02 35.33-.323 46.58-1.305 48.5-1.052 2.059-1.889 2.444-4.735 2.184-1.901-.174-19.298-.624-38.659-1-35.683-.693-38.345-1.014-37.025-4.454.297-.772 4.922-3.292 10.278-5.599 12.81-5.517 24.251-13.108 33.292-22.09 7.93-7.877 12.643-14.56 16.64-23.6 4.817-10.89 5.864-16.823 5.9-33.441.055-24.668-2.691-33.516-20.333-65.507-5.75-10.427-8.545-19.932-7.62-25.911.917-5.93 5.122-13.982 9.147-17.515 1.923-1.69 5.843-4.245 8.71-5.68s6.21-3.523 7.43-4.64c3.299-3.026 5.628-10.96 4.813-16.394-.824-5.496-6.004-11.694-11.208-13.412-2.115-.698-7.287-1.006-12.819-.764l-9.273.405-7.527 3.72c-5.756 2.845-9.148 5.457-14.43 11.112-7.221 7.733-12.467 16.882-14.884 25.958-1.85 6.952-1.758 26.436.165 34.594 2.021 8.577 8.576 22.161 16.843 34.904 3.7 5.704 7.647 12.679 8.772 15.5 1.124 2.822 2.62 8.393 3.323 12.38 1.048 5.937 1.04 8.628-.042 14.858-.726 4.184-2.508 10.034-3.959 13-3.911 7.994-11.528 15.793-19.035 19.488-3.513 1.73-7.084 2.877-7.936 2.55-2.427-.931-3.447-4.875-4.516-17.467-1.121-13.204-2.151-18.455-5.722-29.179-6.016-18.067-16.874-32.642-32.442-43.551-10.604-7.43-20.69-11.975-34.84-15.697l-11.5-3.025-16.748-.48c-10.166-.29-19.99-.017-25 .695-12.622 1.793-27.835 6.32-48.481 14.425-10.324 4.053-21.921 8.547-25.771 9.986-14.008 5.236-25.336 6.071-35.574 2.622-6.105-2.057-16.389-8.543-24.184-15.253l-3.758-3.235-3.465-18.494c-5.29-28.242-7.744-35.036-14.254-39.459-4.236-2.879-9.83-3.328-14.078-1.13-3.97 2.052-11.76 10.74-19.555 21.81-3.763 5.344-7.357 10.124-7.987 10.624s-6.095 3.04-12.145 5.644c-21.212 9.131-28.117 13.224-37.004 21.936-8.71 8.538-14.335 16.207-19.588 26.703-1.756 3.508-3.899 7.195-4.763 8.193s-3.744 2.748-6.4 3.891-5.486 3.014-6.287 4.159c-.802 1.144-1.458 4.14-1.458 6.655v4.573l5.75 7.582c3.163 4.17 7.765 10.39 10.227 13.82s6.38 7.911 8.706 9.958c5.959 5.245 14.751 9.664 22.071 11.09 9.465 1.846 25.02.769 34.746-2.405 12.1-3.95 16.5-3.358 16.5 2.218 0 1.567-1.46 3.844-4.038 6.296-4.82 4.585-20.269 12.224-27.962 13.826-3.899.812-14.962.943-38 .45l-32.5-.695-8.959 1.783c-15.184 3.022-24.68 10.074-29.085 21.6-1.416 3.706-3.125 7.195-3.797 7.753-.99.821-14.426 4.128-16.787 4.131-.345 0-1.245-.742-2-1.651M525 639.225c-.825-.264-2.528-1.415-3.784-2.559-1.803-1.64-2.149-2.72-1.642-5.122 1.62-7.678 8.799-13.908 19.605-17.013 3.124-.898 12.8-2.63 21.5-3.85l15.821-2.22.325-2.815c.178-1.549-.326-4.465-1.122-6.48-.795-2.017-1.74-6.141-2.1-9.166-1.097-9.217 3.123-21.36 10.56-30.382 1.627-1.973 5.864-5.213 9.416-7.2 4.588-2.565 8.118-3.757 12.19-4.114l5.731-.504 2.894 3.056 2.895 3.055-1.698 2.59c-1.841 2.81-3.8 3.852-10.354 5.507-5.468 1.38-10.095 5.478-13.732 12.16-2.337 4.294-2.97 6.872-3.319 13.502l-.43 8.195 2.225 4.596c1.223 2.527 4.648 6.72 7.61 9.317 9.572 8.395 7.106 10.61-14.187 12.744-35.655 3.573-41.343 4.947-49.126 11.875-5.206 4.633-6.989 5.561-9.278 4.828m389.691-29.916c-.307-.497-.195-1.494.25-2.214s1.06-.901 1.368-.404c.307.497.195 1.494-.25 2.214s-1.06.901-1.368.404m-796.061-4.832c-.925-2.408.438-4.107 1.612-2.009.621 1.11.62 2.07-.006 2.696-.627.627-1.195.385-1.606-.687m797.02-3.233c-.526-.852.723-12.126 1.899-17.139.317-1.35.928-2.004 1.401-1.5.858.914-1.068 17.846-2.152 18.93-.329.33-.845.198-1.148-.291m-798.002-5.718c-.308-.804-.177-1.699.29-1.988.47-.29 1.105.131 1.414.936.308.804.177 1.699-.29 1.988-.47.29-1.105-.131-1.414-.936m-.98-8.175c-.29-1.018-1.277-8.826-2.19-17.351l-1.663-15.5 1.927-6 1.926-6-.443 9.5c-.259 5.536.225 14.907 1.159 22.457.942 7.614 1.234 13.325.709 13.85-.526.526-1.113.131-1.424-.956m802.023-10.042c-.307-.497-.195-1.494.25-2.214s1.06-.901 1.368-.404c.307.497.195 1.494-.25 2.214s-1.06.901-1.368.404m1.118-7.834c-.32-.32-.348-4.32-.063-8.891.315-5.036.028-10.357-.726-13.502-.685-2.854-1.029-5.407-.764-5.672s1.294 1.222 2.287 3.304c1.34 2.814 1.795 6.122 1.768 12.88-.033 8.367-1.074 13.31-2.502 11.881M358.5 544.498c-4.931-1.744-8.68-5.783-10.998-11.853-1.477-3.869-1.55-4.883-.44-6.22.96-1.156 2.166-1.406 4.381-.906 1.681.379 6.709.898 11.172 1.155 5.975.342 9.107.051 11.873-1.104 4.986-2.084 7.831-1.98 9.951.363 2.588 2.859 1.147 7.533-3.866 12.546-4.097 4.098-11.532 7.572-16.001 7.477-1.14-.024-3.872-.68-6.072-1.458"/><path fill="#E7C08F" fill-rule="evenodd" d="M312.118 760.094c-1.087-.688-.928-1.02.74-1.55 2.397-.76 4.469.118 3.6 1.525-.718 1.161-2.53 1.171-4.34.025m480 0c-1.086-.688-.925-1.02.75-1.552 1.173-.372 3.091-.372 4.264 0 1.675.532 1.836.864.75 1.552-.76.481-2.057.875-2.882.875s-2.122-.394-2.882-.875m-15.868-.783c.962-.252 2.538-.252 3.5 0 .962.251.175.457-1.75.457s-2.712-.206-1.75-.457M615.67 323.58c-.792-2.063-.787-104.113.005-106.176.485-1.266.764-1.312 1.428-.239 1.08 1.746 1.084 104.929.004 106.668-.666 1.072-.948 1.022-1.438-.253m24.97-.079c-.352-.916-.64-22.742-.64-48.502s.288-47.586.64-48.502c1.856-4.839 2.33 5.014 2.33 48.502s-.474 53.34-2.33 48.502"/><path fill="#F09857" fill-rule="evenodd" d="M169.5 810.11c-7.154-2.083-12.873-5.037-17.096-8.83-5.177-4.65-10.493-12.969-12.488-19.545-1.8-5.932-4.823-29.235-10.406-80.235-1.385-12.65-3.624-32-4.975-43s-3.385-28.775-4.52-39.5c-1.136-10.725-2.493-22.875-3.016-27s-1.701-13.605-2.617-21.067l-1.664-13.566 1.701-7.648c1.942-8.729 5.324-15.734 9.912-20.533 1.743-1.823 6.518-4.973 10.61-7l7.442-3.686 17.737-.312 17.737-.313 6.768 2.09c3.837 1.186 8.956 3.755 11.821 5.934 6.032 4.587 11.306 12.94 13.181 20.876 1.088 4.604 1.356 24.732 1.367 102.83l.014 97.107 2.88 3.974c1.583 2.186 4.394 4.614 6.245 5.394l3.367 1.42h589.146l4.153-2.748c2.284-1.512 4.95-3.966 5.927-5.455l1.774-2.708.5-99.044.5-99.045 2.948-7c3.619-8.59 10.554-15.892 19.052-20.058l6-2.942h19c15.308 0 20.047.338 24.39 1.737 8.724 2.813 16.41 9.475 20.702 17.944 1.337 2.64 3.08 7.885 3.874 11.659 1.746 8.297 1.897 6.61-6.98 77.66-.824 6.6-2.845 23.25-4.491 37s-3.44 28.375-3.988 32.5c-1.513 11.394-5.013 40.651-7.956 66.5-2.076 18.236-6.126 28.443-14.382 36.251-6.437 6.088-11.227 8.639-20.08 10.692L856.876 812l-340.688-.071-340.688-.071zm85.836-77.153c-4.902-.97-11.247-4.757-14.15-8.447-1.134-1.442-3.07-4.705-4.303-7.251-1.873-3.87-2.314-6.793-2.688-17.807-.366-10.816-.127-14.144 1.335-18.565 3.332-10.078 8.563-16.155 17.47-20.295l4.5-2.092h520l6.308 2.913c8.14 3.758 13.381 9.64 16.237 18.224l2.157 6.481-.453 12.191c-.554 14.904-2.396 21.268-7.878 27.215-2.921 3.17-5.643 4.89-10.127 6.405L777.612 734l-259.056-.11c-142.48-.06-260.93-.48-263.22-.933m307.624-432.54c-.022-.504-.23-3.392-.461-6.417-.232-3.025-.12-9.1.247-13.5l.668-8 .756 6c.77 6.12.338 21.325-.633 22.297-.295.295-.555.124-.577-.38m-.402-41.234c-.374-1.178-.256-2.9.262-3.826l.942-1.683.68 2.143c.374 1.178.256 2.9-.262 3.826l-.942 1.683zm0-13c-.374-1.178-.256-2.9.262-3.826l.942-1.683.68 2.143c.374 1.178.256 2.9-.262 3.826l-.942 1.683zm-.072-13.51c-.408-1.555-.317-5.155.202-8l.943-5.173.808 5.816c.499 3.591.422 6.651-.202 8l-1.01 2.184z"/><path fill="#E4874E" fill-rule="evenodd" d="M232.166 759.118c-1.066-.671-1.005-.966.307-1.47 2.157-.827 568.88-.834 571.036-.006 1.324.508 1.39.807.325 1.48-1.74 1.101-569.92 1.097-571.668-.004m-22.556-41.536c-.791-3.152-.638-76.295.164-78.416.374-.99.692-1.03 1.233-.155.996 1.611 1.1 77 .11 79.453l-.793 1.963zm59.556-58.458c-1.064-.675-.997-.975.332-1.485 2.526-.97 495.803-.734 497.336.237 1.064.675.997.975-.332 1.485-2.526.97-495.803.734-497.336-.237m-59.447-34.02c-.89-7.919-.957-65.319-.08-67.606 1.763-4.594 2.325 3.49 2.258 32.502-.04 17.325-.384 33.75-.766 36.5l-.694 5zm-55.601-106.01c-1.08-.684-.9-1.028.822-1.575 1.212-.385 3.386-.403 4.83-.04 2.066.518 2.317.854 1.178 1.574-1.83 1.159-5.035 1.178-6.83.041m720 0c-1.086-.688-.925-1.02.75-1.552 1.173-.372 3.091-.372 4.264 0 1.675.532 1.836.864.75 1.552-.76.481-2.057.875-2.882.875s-2.122-.394-2.882-.875"/><path fill="#B18154" fill-rule="evenodd" d="M208.571 881.429c-1.327-1.328-1.571-4.794-1.571-22.345V838.31l1.85-1.674 1.849-1.674 23.292.27 23.292.268 1.018 1.614c.56.888.708 2.421.33 3.407l-.689 1.794-2.01-2.158-2.01-2.157h-20.761c-14.814 0-21.105.344-21.961 1.2-1.692 1.692-1.692 37.908 0 39.6.66.66 2.648 1.2 4.418 1.2s3.968.288 4.884.64c2.74 1.05-.352 2.327-5.68 2.345-2.938.01-5.264-.57-6.25-1.556m36.56.673c-1.005-.637-.431-1.178 2.152-2.03 2.259-.746 3.714-1.954 4.055-3.368.292-1.212 1.048-6.929 1.68-12.704 1.407-12.863 2.769-18.613 4.095-17.287.614.614.627 2.576.035 5.377-.513 2.426-1.521 9.563-2.24 15.86-.963 8.427-1.784 11.926-3.108 13.25-1.942 1.942-4.485 2.286-6.67.902m537.403-1.065c-1.047-1.157-1.51-2.658-1.126-3.657l.65-1.695 1.877 2.015c1.032 1.108 3.832 2.348 6.22 2.755 3.566.609 3.987.89 2.345 1.573-3.621 1.505-8.111 1.06-9.966-.99m34.634 1.273c-.884-.353-.296-1.162 1.75-2.406L822 878.03v-18.814c0-13.3-.352-19.167-1.2-20.015-.853-.853-6.94-1.2-21.031-1.2h-19.832l-.64 1.666c-.35.917.123 7.33 1.055 14.25 1.887 14.02 2.114 19.483.71 17.084-.484-.825-1.862-8.603-3.065-17.284-1.73-12.49-1.932-16.09-.969-17.25 1-1.206 5.073-1.466 22.94-1.466h21.722l1.655 1.829 1.655 1.828v20.972c0 14.977-.343 21.314-1.2 22.171-1.228 1.228-4.252 1.46-6.632.51m-13.418-.972c.688-.278 1.813-.278 2.5 0 .688.277.125.504-1.25.504s-1.937-.227-1.25-.504M233.732 702.743c-.301-.783-.201-1.984.221-2.668.593-.958.894-.917 1.315.182.301.783.201 1.984-.221 2.668-.593.958-.894.917-1.315-.182m74.018-97.449c1.238-.238 3.262-.238 4.5 0 1.238.239.225.434-2.25.434s-3.488-.195-2.25-.434m51.325-17.247c-.958-.593-.917-.894.182-1.315.783-.301 1.984-.201 2.668.221.958.593.917.894-.182 1.315-.783.301-1.984.201-2.668-.221m-193.909-68.923c-1.057-.67-.976-.983.391-1.508.949-.364 2.62-.377 3.716-.03 1.581.503 1.707.813.61 1.508-1.736 1.1-3.017 1.107-4.717.03m699 .005c-1.074-.685-1.026-.969.249-1.458.87-.334 2.596-.2 3.834.297 1.238.498 1.725.934 1.083.969s-1.768.283-2.5.552c-.733.27-1.932.107-2.666-.36m-15.484-26.78c-.864-.864-.905-133.603-.043-135.851.51-1.329.81-1.396 1.485-.332 1.078 1.7 1.119 133.903.042 135.599-.441.696-1.11.958-1.484.583M600.75 478.337c.688-.278 1.813-.278 2.5 0 .688.277.125.504-1.25.504s-1.937-.227-1.25-.504m-38.11-154.032c-.951-.95-.745-17.592.236-19.14 1.42-2.239 2.124 1.196 2.124 10.357 0 7.693-.73 10.413-2.36 8.783m285.885-.389c-.298-.78-.425-39.892-.283-86.917.17-56.161.601-85.5 1.258-85.5s1.088 29.485 1.256 85.944c.237 79.697-.083 92.1-2.231 86.473M563.252 211.5c.011-2.2.216-2.982.455-1.738s.23 3.044-.02 4-.446-.062-.435-2.262m-34.158-31.442c-.983-.608-.943-.902.184-1.335 2.048-.785 87.171-.872 89.208-.09 1.34.514 1.41.818.348 1.494-1.67 1.062-88.017.996-89.74-.069"/><path fill="#47704C" fill-rule="evenodd" d="M0 512V0h1024v1024H0zm265.329 392.636c4.151-1.735 8.32-6.669 9.66-11.431.572-2.038 2.859-15.18 5.081-29.205 3.25-20.505 4.427-25.892 6.013-27.5l1.973-2h459.873l1.71 1.71c1.25 1.25 3.003 9.427 6.511 30.366 3.11 18.566 5.445 29.758 6.63 31.787 1.005 1.721 3.358 4.161 5.228 5.421l3.4 2.291 33.224-.287 33.225-.288 2.821-2.105c1.552-1.157 3.722-3.632 4.822-5.5l2-3.395.5-28.216.5-28.217 1.713-1.71c1.286-1.286 4.398-1.902 12.5-2.476 5.933-.42 12.137-1.177 13.787-1.681 7.419-2.269 16.072-7.726 23.49-14.813 6.226-5.948 8.812-9.351 12.316-16.208 2.44-4.773 5.156-11.829 6.037-15.679 1.654-7.226 2.213-11.554 13.115-101.5C943.229 586.876 946 562.052 946 553.71c0-10.118-2.66-20.317-7.416-28.432-5.035-8.59-15-18.198-23.518-22.674-3.957-2.08-8.628-4.237-10.38-4.796-1.752-.558-8.694-1.318-15.427-1.688-9.73-.535-12.601-1.034-14-2.432l-1.759-1.76-.5-181.046-.5-181.046-3.266-2.918-3.266-2.918H463.901l-2.773 1.434c-5.99 3.097-5.584-3.694-6.128 102.684l-.5 97.811-1.785 1.786-1.785 1.785-95.215.54-95.215.538-5.693 1.727c-7.734 2.347-17.576 6.846-24.091 11.014-7.175 4.59-17.427 14.28-24.79 23.432-7.276 9.046-15.106 24.776-18.043 36.249l-2.176 8.5-.604 40.216-.603 40.216-1.783 1.784-1.784 1.784-23.716.514-23.717.513-7.212 3.123c-3.967 1.718-9.474 4.784-12.238 6.813-11.282 8.282-20.293 21.802-23.084 34.638-1.712 7.875-.796 25.388 2.95 56.399 1.727 14.3 4.245 35.9 5.595 48s2.917 25.6 3.482 30 3.521 29.825 6.57 56.5c3.048 26.675 6.186 51.307 6.972 54.738s3.299 9.956 5.582 14.5c3.092 6.156 6.092 10.202 11.767 15.874 11.265 11.26 20.774 15.65 36.407 16.813 7.174.533 10.247 1.184 11.5 2.435l1.709 1.707.5 28.217.5 28.216 2.054 3.497c1.13 1.923 3.559 4.51 5.398 5.75l3.344 2.253h33.384c25.934 0 34.113-.304 36.649-1.364"/><path fill="#7D5637" fill-rule="evenodd" d="M210.77 882.314c-3.075-.805-3.936-6.923-3.595-25.53l.325-17.718 1.784-1.783 1.783-1.783 19.332-.325c22.041-.37 27.215.439 28.212 4.41.346 1.381.15 5.078-.439 8.213-.587 3.136-1.584 10.202-2.214 15.702-1.636 14.285-2.573 17.403-5.573 18.544-2.461.936-36.199 1.166-39.616.27m574.323-.146c-1.545-.458-2.837-1.96-3.606-4.191-.659-1.912-2.254-11.47-3.545-21.238l-2.348-17.761 1.739-1.74 1.738-1.738h41.858l1.785 1.786 1.786 1.785v39.858l-1.784 1.785-1.783 1.786-16.717.192c-9.194.105-17.8-.13-19.123-.524M261.166 734.124c-1.064-.675-.997-.975.332-1.485 2.526-.97 510.803-.734 512.336.237 1.064.675.997.975-.332 1.485-2.526.97-510.803.734-512.336-.237m539.473-30.622c-.927-2.415-.755-12.77.237-14.336.675-1.064.975-.997 1.485.332.927 2.415.755 12.77-.237 14.336-.675 1.064-.975.997-1.485-.332m-567.08-8.319c-.375-1.178-.257-2.9.26-3.826l.943-1.683.68 2.143c.374 1.178.256 2.9-.262 3.826l-.942 1.683zm591.08-1.68c-.952-2.481-.743-31.79.237-33.337 1.607-2.534 2.124 1.68 2.109 17.166-.015 14.442-.836 20.104-2.346 16.17m-591.034-55.09c-.812-2.115-.779-81.796.034-83.915 1.826-4.757 2.332 4.452 2.346 42.693.014 37.757-.473 46.19-2.38 41.221m485.395.673-3.5-.65 4.89-.718c6.852-1.006 57.821-.87 59.444.158 1.064.675.997.975-.332 1.485-2.15.825-55.896.581-60.502-.275M483.052 328.053c-1.148-.726-.941-1.034 1-1.487 1.346-.314 7.173-.683 12.948-.819l10.5-.247.518-64.5c.285-35.475.63-64.725.766-65s.683.175 1.216 1c.599.927.975 25.314.985 63.827l.015 62.327-2.923 2.923-2.923 2.923-10.327-.015c-5.68-.009-10.979-.428-11.775-.932m52.622-1.094L533 324.855V208.846l2.923-2.923 2.923-2.923 10.827.015c5.955.009 11.479.428 12.275.932 1.148.726.941 1.034-1 1.488-1.346.314-7.398.683-13.448.818l-11 .247v119l12 .5c7 .292 12 .917 12 1.5 0 .59-4.546 1.115-11.076 1.281l-11.075.281zm56.492 1.165C589.87 326.668 593.437 326 603.5 326s13.63.668 11.334 2.124c-.734.465-5.834.845-11.334.845s-10.6-.38-11.334-.845m52.528.237c-.352-.352-.4-1.027-.108-1.5S656.765 326 671 326c23.358 0 30.018.628 25.412 2.395-2.114.811-50.905.779-51.718-.034M728.5 328c-.345-.558-.037-1.241.686-1.518.722-.276 27.3-.385 59.063-.243 37.45.169 57.838.612 58 1.26.349 1.395-116.888 1.894-117.75.5M592.5 205.067l-2-.828 3.5-.676c4.932-.953 18.5-.265 18.5.937 0 1.237-17.204 1.725-20 .567m52.744-6.731c-.691-.279-1.002-.918-.691-1.421.71-1.15 30.472-1.186 32.28-.039 1.065.675.998.975-.33 1.485-1.944.745-29.403.723-31.26-.025m-163.192-49.281c-1.15-.729-.944-1.04 1-1.51 1.346-.326 83.673-.469 182.948-.319 119.484.182 180.5.612 180.5 1.274 0 1.31-362.385 1.862-364.448.555"/><path fill="#332922" fill-rule="evenodd" d="M198.327 908.956c-5.644-1.116-11.54-5.2-14.043-9.724-1.135-2.052-2.564-6.117-3.174-9.031-.631-3.013-1.11-15.418-1.11-28.75V838h-3.412c-5.25 0-17.484-2.58-23.49-4.955-7.004-2.769-19.282-11.282-23.754-16.469-5.17-5.997-11.18-16.523-13.859-24.27-1.294-3.743-3.043-11.531-3.887-17.306s-5.156-42-9.584-80.5C97.587 656 92.63 613.025 90.996 599c-1.632-14.025-3.509-30.29-4.17-36.144l-1.203-10.644 2.158-8.742c1.187-4.808 3.456-11.494 5.043-14.856 4.085-8.655 11.022-17.415 17.832-22.518 8.065-6.044 19.28-11.071 28.278-12.676 4.336-.774 14.89-1.365 24.723-1.385l17.156-.035.457-36.75.457-36.75 2.04-9c3.086-13.625 7.303-24.393 13.308-33.99 7.637-12.204 16.648-22.399 26.084-29.509 9.175-6.913 17.165-11.202 27.341-14.676 15.387-5.253 16.913-5.325 112.107-5.325h88.345l.274-96.25.274-96.25 2.092-3.988c1.467-2.797 3.55-4.738 6.973-6.5l4.881-2.512 196.027-.266c139.243-.188 197.562.052 201.324.831 6.709 1.389 11.435 5.828 13.056 12.264.841 3.343 1.147 51.722 1.147 181.614V492h5.816c7.207 0 15.757 1.476 23.927 4.13 7.459 2.423 19.16 9.936 24.91 15.995 9.082 9.567 14.865 21.422 17.323 35.508l1.07 6.133-4.059 34.867c-10.27 88.239-22.54 187.333-24.006 193.867-2.726 12.159-9.111 24.836-17.043 33.838-5.457 6.194-16.583 14.009-23.805 16.722-6.798 2.554-18.703 4.94-24.648 4.94h-4.34l-.322 26.75-.323 26.75-2.303 4.5c-3.296 6.441-9.908 11.59-16.691 12.999-3.628.753-14.56 1.028-31.769.8l-26.237-.347-4.273-1.844c-5.946-2.566-10.865-8.63-12.338-15.212-.657-2.94-3.04-16.268-5.292-29.62L748.5 838.5l-230.75-.252c-126.913-.139-230.75-.022-230.75.26 0 .28-2.01 12.708-4.466 27.615-2.98 18.084-5.175 28.57-6.599 31.51-2.668 5.513-9.08 10.067-16.027 11.384-6.169 1.17-55.603 1.12-61.58-.061m53.126-31.206c1.053-4.822 4.547-32.51 4.547-36.03V838h-46v42h40.962zM822 859v-21h-21.441c-11.793 0-21.689.4-21.991.89-.525.85 3.938 35.708 5.039 39.36l.528 1.75H822zm50.5-52.796c5.824-2.673 14.815-11.074 17.589-16.433 2.75-5.312 4.435-13.708 6.88-34.271 3.194-26.864 10.68-88.533 18.562-152.915 3.527-28.811 4.553-40.337 4.273-48-.29-7.949-.85-11.067-2.642-14.721-3.657-7.453-8.643-12.483-15.931-16.072l-6.686-3.292H853.5l-4.972 1.917c-9.431 3.638-18.656 14.8-20.039 24.25-.309 2.108-.67 47.033-.802 99.833l-.24 96-2.356 4.84c-2.872 5.898-8.43 10.138-15.19 11.588-6.842 1.467-578.458 1.466-584.901-.002-6.508-1.482-11.424-5.105-13.92-10.26l-2.16-4.465-.21-99.85-.21-99.851-3.16-6c-1.737-3.3-4.662-7.438-6.5-9.196-1.837-1.758-6.04-4.458-9.34-6l-6-2.804h-42l-4.972 1.917c-6.262 2.415-13.947 9.538-17.331 16.063l-2.603 5.02-.398 11.01c-.29 8.048.443 18.265 2.725 38 1.717 14.844 4.454 38.465 6.082 52.49s5.438 47.1 8.468 73.5c7.618 66.397 7.04 62.587 10.561 69.563 4.815 9.54 13.5 17.103 22.968 20.005 1.375.421 159.55.69 351.5.599l349-.167zM782.03 730.9c6.29-1.349 11.13-5.38 14.779-12.31l2.68-5.09.006-16.5.005-16.5-2.672-5.063c-3.638-6.893-9.553-12.01-16.075-13.906l-5.33-1.55-259.961.26-259.962.259-4.045 2.166c-5.32 2.849-11.845 10.021-13.57 14.918-.957 2.72-1.38 8.959-1.382 20.416l-.003 16.5 2.178 4.068c2.71 5.063 9.365 11.181 13.047 11.994 1.526.337 3.225.763 3.775.947s118.09.369 261.2.412c185.706.056 261.67-.236 265.33-1.02m-535.08-92.716 7.45-1.735 2.12-5.474c1.166-3.011 3.415-7.43 4.997-9.821 3.976-6.008 12.858-11.774 22.242-14.438l7.741-2.197 36.81.252c30.91.212 37.79-.001 42.914-1.33 7.93-2.054 18.28-7.343 23.097-11.803 2.978-2.757 3.75-4.156 3.5-6.338l-.321-2.8-3.549-.298c-2.045-.172-7.441 1.006-12.738 2.78-16.336 5.473-31.365 4.916-44.82-1.661-7.883-3.854-15.198-10.806-23.717-22.544-3.947-5.437-8.446-11.587-9.999-13.666s-3.062-5.563-3.355-7.744c-.437-3.263-.075-4.508 2.05-7.033 1.42-1.687 4.8-4.022 7.511-5.188l4.93-2.121 4.185-7.763c10.673-19.797 21.04-31.635 34.235-39.096 4.216-2.383 14.227-7.333 22.247-11l14.583-6.666 9.296-13c11.146-15.588 16.802-20.487 23.659-20.495 8.564-.01 14.714 6.544 18.763 19.995 1.076 3.575 3.434 14.308 5.24 23.852l3.283 17.352 7.098 5.945c9.397 7.87 16.862 11.608 26.03 13.033 6.299.98 8.786.891 16.253-.574 4.848-.952 15.79-4.454 24.315-7.781 44.027-17.184 55.637-20.422 77-21.477 18.696-.923 34.826 1.701 52.612 8.56 14.465 5.579 30.796 16.796 38.252 26.274 10.657 13.547 18.243 30.37 21.566 47.824.785 4.12 1.745 11.88 2.135 17.242l.709 9.75h2.903c7.295 0 19.064-9.685 24.042-19.786l3.281-6.657.326-12.585.325-12.586-2.113-6.273c-1.162-3.45-3.97-9.274-6.241-12.943-15.641-25.272-18.574-31.37-21.406-44.515-.849-3.935-1.54-10.305-1.535-14.155.022-21.724 13.886-44.827 32.387-53.97 5-2.472 10.056-4.095 14.912-4.789 6.134-.875 8.292-.772 13.087.631 7.183 2.1 12.175 6.835 14.074 13.349 1.72 5.895.645 11.464-3.114 16.141-1.486 1.85-5.627 5.09-9.202 7.202-9.732 5.75-10.708 6.583-13.723 11.713L760.5 452.5v19l2.8 6c1.54 3.3 5.453 10.5 8.694 16s7.294 13.513 9.005 17.806c3.887 9.75 6.798 22.63 7.614 33.694.735 9.972-1.217 22.462-5.304 33.94-3.371 9.464-12.543 23.21-20.246 30.341-8.088 7.488-20.817 15.812-31.9 20.86-5.04 2.296-9.163 4.746-9.163 5.446 0 .993 7.379 1.382 33.75 1.779 18.563.279 35.888.806 38.5 1.171l4.75.664v-41.528c0-23.514.455-44.8 1.049-49.069 2.138-15.376 9.068-29.848 18.418-38.467 6.227-5.74 14.334-10.878 22.174-14.053l6.859-2.779.257-69.152.257-69.153-286.757.017-286.757.018-7 1.464c-3.85.806-10.825 3.338-15.5 5.627-7.072 3.463-10.201 5.86-18.628 14.268-8.28 8.262-10.893 11.633-14.321 18.476-2.307 4.604-5.062 11.764-6.123 15.91L211 418.32v85.827l5.371 4.91c6.779 6.195 13.023 15.731 16.46 25.136l2.669 7.307.294 49.25.294 49.25 1.706-.041c.938-.023 5.058-.821 9.156-1.775m287.507-5.077c9.466-7.256 15.44-8.829 44.043-11.598 22.311-2.16 22.5-2.2 22.5-4.704 0-1.207-2.045-4.067-4.793-6.705-2.636-2.53-5.896-6.85-7.245-9.6-1.88-3.833-2.44-6.548-2.402-11.632.04-5.38.655-7.862 3.254-13.143 1.763-3.58 4.976-8.109 7.139-10.064 2.18-1.97 5.853-4.038 8.24-4.641 8.95-2.261 10.593-3.751 9.396-8.522l-.627-2.498h-7.014c-5.422 0-8.09.545-11.751 2.4-2.605 1.32-6.897 4.71-9.537 7.532-6.585 7.04-9.73 14.28-10.37 23.873-.48 7.198-.015 10.196 3.238 20.86.493 1.616.057 2.561-1.723 3.727-1.316.862-8.641 2.467-16.345 3.58-7.678 1.11-16.21 2.532-18.96 3.16-7.103 1.622-13.67 5.16-17.34 9.339-2.35 2.676-3.16 4.564-3.16 7.364 0 7.705 4.508 8.13 13.457 1.272m-159.522-91.574c6.676-3.383 9.24-6.848 8.863-11.979-.245-3.336-.698-4.11-2.553-4.374-1.24-.176-4.815.638-7.944 1.809-6.858 2.565-13.55 2.77-18.804.574-2.14-.894-4.478-1.4-5.194-1.126-1.73.664-1.656 4.98.146 8.464.797 1.541 3.062 4.219 5.035 5.95L358.07 544h5.998c4.395 0 7.3-.66 10.867-2.467m133.288-283.44.277-67.909 3.106-3.842c1.708-2.113 4.633-4.742 6.5-5.842l3.394-2h109l4 2.078c3.161 1.642 4.7 3.477 7.338 8.75l3.337 6.672 16.663.024c9.164.013 18.422.432 20.574.931s5.233 2.229 6.848 3.843c3.198 3.198 1.916-.996 24.663 80.702 6.125 22 11.564 41.012 12.086 42.25l.948 2.25H848V150H481v176h26.946zM562 266v-60h-26v120h26zm53 0v-60h-24v120h24zm81 57.513c0-1.943-15.918-59.904-25.573-93.115L668.858 225H643v101h53z"/><path fill="#140F0E" fill-rule="evenodd" d="M841.446 902.913c-.37-.598-.17-1.588.441-2.2.817-.817 1.409-.817 2.226 0 1.154 1.154.432 3.287-1.113 3.287-.485 0-1.184-.49-1.554-1.087"/></svg>