<svg xmlns="http://www.w3.org/2000/svg" width="1365.333" height="1365.333" preserveAspectRatio="xMidYMid meet" version="1.0" viewBox="0 0 1024 1024"><path fill="#000" d="M0 512v512h1024V0H0zm849.5-274v89h-124l-6.8-24.2c-3.7-13.4-11.3-40.5-16.9-60.3-5.5-19.8-10.7-37.2-11.5-38.7-2.7-5.5-5.9-6.2-27.4-6.6l-19.5-.4-1.2-4.3c-1.5-5.6-5.5-10.2-10-11.5-2.5-.8-21.6-1-58.4-.8-53.8.3-54.7.3-57.5 2.4-1.5 1.2-3.7 3.6-4.8 5.5-1.9 3.3-2 5.4-2.3 71.2l-.2 67.8-15 .2-15 .2v-179l185.2.2 185.3.3zm-285.7 28.1-.3 61-14.2.2-14.3.2-.2-61.3c-.2-33.8-.2-61.4-.1-61.5s6.7-.1 14.7.1l14.6.3zm53.2-.2v61l-14 .3-14 .3V205h28zm53-42.2c0 .5 6.5 23.7 14.4 51.8 8 28 14.4 51.1 14.2 51.2-.1.1-13 .3-28.7.3l-28.4.1-.3-52-.2-52.1h14.5c8 0 14.5.3 14.5.7m179.8 200-.3 70.7-5.6 1.7c-8.9 2.6-16.7 7.6-24.9 15.8-8.1 8.1-12.7 15.6-15.6 25.6-1.5 5.3-1.8 11.8-2.1 55.2-.2 27.1-.7 49.3-1.1 49.3s-3.2-.8-6.2-1.7c-4.6-1.3-12.2-1.7-46-2.1l-40.5-.4 9.5-3.4c36.9-13.2 59-33.6 67.2-62 2-6.8 2.3-10.1 2.3-23.4-.1-22.2-3.7-34.9-15.7-55-9.6-16.3-12.2-23-12.2-32 0-4.6.6-8.9 1.6-11.1 2.4-5.6 8.6-11.7 14.7-14.9 9.7-4.9 14.1-10.6 14.1-18.5 0-18.2-25.1-23.9-46.2-10.4-16.5 10.6-27.9 34.2-26.3 54.6 1.2 15.7 6.1 28.8 17 45.4 3.6 5.5 7.6 12.1 8.9 14.8 7.8 15.4 7.4 35.9-1 49.3-5.4 8.5-16.2 16.3-25.1 18.3l-3.3.7v-7.4c0-29.8-9.7-56.3-27-73.8-11.2-11.3-21.9-17.9-38.5-23.6-14.4-5-24.2-6.6-41.4-6.6-23.3.1-36.8 3.3-71.5 16.9-26.4 10.4-32.9 12.4-41.9 13-14.4 1-22.6-2.1-37.5-14.1-6.6-5.3-7.2-6.1-8.1-10.9-7.1-37.2-9.1-44.1-13.8-49.8-4.8-5.7-11.5-7.4-17.2-4.4-4 2-11.2 10.3-19.8 22.7-4.1 6-7.9 10.8-8.5 10.8-1.9 0-28.1 12.1-35.3 16.3-13.1 7.6-24.8 21.1-33.9 39.4-3.2 6.4-4 7.3-8.1 8.9-6.3 2.3-10.5 6.4-10.5 10.1 0 3.3 2.1 6.9 11 19 13.8 19 20.3 24.5 33.2 28.4 5.9 1.8 8.7 2.1 19.1 1.7 10.7-.4 13.2-.8 20.2-3.6 4.4-1.8 8.9-3.2 10-3.2 2.9 0 6.5 2.8 6.5 5.1 0 5-12.2 14.1-25.2 18.6-8.1 2.9-13.4 3.1-58.3 2.5-31-.4-40.7 1.9-50.9 12.1-4.5 4.5-5.8 6.6-7.6 12.5l-2.1 7-6.2 1.1c-6 1-10.5 2.2-13.7 3.5-1.3.5-1.5-5.3-1.5-49.1 0-45.5-.2-50.3-1.8-55.7-3.3-10.8-7.6-17.7-15.8-26l-7.9-7.8v-40.5c0-32.9.3-41.8 1.6-48.1 6.3-30.9 31.7-56.1 61.6-61.1 3-.5 132.9-.9 291.6-1L850 353zm-673 95.3c18.9 2.1 30.4 12.7 33.2 30.6.8 4.8 1.1 36.5.9 101.4-.1 62.4.2 95.3.9 97 1.3 3.2 5.9 7.6 9.5 8.9 3.8 1.5 586.7 1.5 591.6.1 3.9-1.1 8.5-5.1 10.9-9.5 1.5-2.7 1.7-12.2 2.2-102l.5-99 2.3-5.7c4.8-11.9 15.8-20.2 28.9-21.9 8.7-1.1 22.9-1.1 31.6 0 13.1 1.7 23 8.8 28.8 20.7 4.8 9.7 4.8 15.2 0 53.9-2.2 18.1-7 57.3-10.6 87-13.2 110-11.8 100.4-16.8 109.8-5.2 9.9-15.3 17.4-26.5 19.7-3.1.7-122 .9-350.2.8l-345.5-.3-5.7-2.7c-10.1-4.7-18.5-14.1-22.3-24.8-.9-2.6-4.6-30.3-8.6-65-3.8-33.3-9.5-82.1-12.5-108.5-6.3-54.5-6.5-60.2-1.8-70 5.2-11.1 15.3-18.7 27.2-20.4 8.1-1.2 22.3-1.2 32-.1m207 5.6c7.6 5.3-4.2 19.5-17.7 21.1-8.2.9-15.9-4.6-19.1-13.8-2.4-6.8.5-9.3 7.3-6 5.6 2.7 11.6 2.6 19.2-.3 7.5-2.9 7.6-2.9 10.3-1M615 550c4.5 4.5.8 10.3-7.5 11.6-10.8 1.6-19.5 14.1-19.5 27.8 0 8.3 3.2 15 9.9 20.6 4.4 3.8 5.2 4.8 4.9 7.4l-.3 3.1-22 2.2c-33.3 3.3-37.9 4.6-47.7 13.2-5.4 4.8-7.9 5.1-11.5 1.5-2.1-2.1-2.4-3.2-2-6.1 1.5-8.8 12-15.8 28-18.6 5.1-.9 13.4-2.2 18.4-2.8 5.1-.6 10-1.7 10.9-2.3 1.5-1.1 1.5-1.5 0-5-4.3-10.2-3.8-23.3 1.1-33.6 3.6-7.4 12.7-16.2 19.5-18.9 7.1-2.7 15.1-2.8 17.8-.1m168 111.1c7.4 3.5 11 6.7 14.5 13.1 2.9 5.1 3 5.8 3.3 20.8.3 14 .2 16.1-1.8 21.4-2.8 7.2-8.8 13.6-14.6 15.4-3.2.9-62 1.2-267.3 1.2H254l-4.5-2.1c-5.8-2.7-10.9-8.7-13.2-15.3-2.4-7.1-2.1-30.9.4-37.9 3.4-9.4 12.4-17 22-18.7 2.7-.4 120.5-.7 261.8-.6l257 .1zM258.1 839.7c-.5 3.8-.5 3.8-1 .8l-.6-3h-47v43l6.5.6 6.5.6H208V836h50.6zM824 859v23l-4.7-.1-4.8-.2 4-.6 4-.6v-43h-23.3c-12.7 0-23.2-.3-23.2-.8 0-.4 10.8-.7 24-.7h24zm-46.3-15.3c-.3 1-.5.2-.5-1.7s.2-2.7.5-1.8c.2 1 .2 2.6 0 3.5m-521.2 7.8c-.4 3.1-.9 5.4-1.2 5.1-.3-.2-.1-3 .2-6.1.4-3.1.9-5.4 1.2-5.1.3.2.1 3-.2 6.1m522.2-.8c-.3 1-.5.2-.5-1.7s.2-2.7.5-1.8c.2 1 .2 2.6 0 3.5m1 7c-.3 1-.5.2-.5-1.7s.2-2.7.5-1.8c.2 1 .2 2.6 0 3.5m-525 6.5c-.2 1.3-.4.3-.4-2.2s.2-3.5.4-2.3c.2 1.3.2 3.3 0 4.5m526 1c-.2 1.3-.4.5-.4-1.7-.1-2.2.1-3.2.4-2.3.2 1 .2 2.8 0 4m-527 6.5c-.3 1-.5.2-.5-1.7s.2-2.7.5-1.8c.2 1 .2 2.6 0 3.5m528 0c-.3 1-.5.4-.5-1.2 0-1.7.2-2.4.5-1.8.2.7.2 2.1 0 3m-529.1 7.9c-.6 2.1-1.1 2.4-5.4 2.2l-4.7-.1 4.5-.6c4.3-.6 4.5-.8 4.9-4.1.2-2.1.6-2.8.8-1.7.3 1 .2 2.9-.1 4.3m535.9 1.5 5 .6-5.5-.1-5.5-.1-.2-3.5c-.1-3.4-.1-3.4.5-.5.6 2.7 1.2 3.1 5.7 3.6m-549.2.6c-.7.2-2.1.2-3 0-1-.3-.4-.5 1.2-.5 1.7 0 2.4.2 1.8.5m565.4-.1c-.3.3-1.2.4-1.9.1-.8-.3-.5-.6.6-.6 1.1-.1 1.7.2 1.3.5"/></svg>