<svg xmlns="http://www.w3.org/2000/svg" width="1365.333" height="1365.333" preserveAspectRatio="xMidYMid meet" version="1.0" viewBox="0 0 1024 1024"><g fill="#000" stroke="none"><path d="M374.8 42.2c-4.2 3.3-4.4 11.1-4.3 116.8.2 115.9-.4 107.9 9.2 109.5 4 .6 4.2.5 5.8-2.9 1.4-2.8 1.6-6.1 1.4-17.8-.1-7.9 0-43.1.4-78.3.3-38.3.1-70.8-.5-81-.5-9.4-1-22-.9-28 .1-14-.4-16.2-3.9-18s-5.1-1.9-7.2-.3m6.2 1.3c1.6.8 3.1 2.3 3.4 3.2.3 1 .5 7 .5 13.3-.1 6.3.4 19.1.9 28.5.6 10.2.8 42.7.5 81-.4 35.2-.5 70.4-.4 78.2.2 11.4-.1 14.7-1.4 17.3-1.5 2.8-1.9 3.1-4.8 2.4-4.4-.9-4.7-1.1-6.5-5.3-1.4-3.2-1.6-15.2-1.7-103.6-.1-105 .1-112.2 4.2-115.3 2.1-1.5 1.8-1.5 5.3.3m118.4 3.2c-2.6 6.1-1 9.2 5.6 11.5 5.1 1.8 9.8 1.9 69.3 2.3 35.1.2 64.1.7 64.6.9.8.5 55.1 1.9 70.1 1.7h93c52.1.1 103.5-.1 109.5-.4 7.9-.3 10.2-.9 16.3-4 7-3.6 4.9-7.2-5.8-9.7-3-.7-6.2-1.8-7-2.5-1-.9-4.6-1.1-11.5-.9-5.5.2-39.9.3-76.5.2-36.6 0-69 .1-72 .3s-7.5.3-10 .2-7.6-.1-11.5-.1c-106.7.2-211.4-.8-222-2.1-4.9-.6-9.4-1.1-9.8-1.1s-1.5 1.7-2.3 3.7m16.1-1.1c7.8.9 131.9 1.8 218 1.6 3.9 0 9 0 11.5.1s7 0 10-.2 35.4-.3 72-.3c36.6.1 70.8 0 76-.2 6-.1 10.2.2 11.5 1 1.1.6 4.2 1.7 6.8 2.3 4.8 1.2 9.7 3.7 9.7 5 0 .4-2.6 2-5.7 3.6-4.7 2.4-7.4 3-13.8 3.3-6.8.2-56.7.4-109.5.3h-93c-15 .2-69.3-1.2-70.1-1.7-.5-.2-29.4-.6-64.3-.8-56.2-.4-64.1-.6-68.6-2.1-5.6-1.8-7.5-4.3-6.5-8.3 1.1-4.3 2.5-5.4 6.4-4.8 2 .3 6.3.8 9.6 1.2m439.8-1.8c-.6.4-2.1 4.5-3.3 9.2-2 7.6-2.1 9.9-1.5 22 .8 13.7.8 17.5-.1 53.5-1.1 46.7-1.9 96.9-1.8 109.5.4 39.2.4 64.4-.2 101-.7 47.8-.6 85.8.1 87 .7 1.1 9.2 5 10.9 5 2.6 0 7.6-5.9 7.8-9.2.6-9.1 1-48.2 1-87.3 0-10.5 0-30 .1-43.5 0-13.5 0-39.4-.2-57.5-.1-18.2.1-51 .5-73 1-59.2 1-66.5 0-84-.7-11.9-.6-17 .3-19.7 1.7-5.1 0-11.1-3.4-12.6-2.9-1.3-8.4-1.6-10.2-.4m9.9 1.6c3 2.3 4.1 6.6 2.7 11.4-.9 3.2-1 8.4-.3 20 1 17.2 1 24.5 0 83.7-.4 22-.6 54.8-.5 73 .2 18.1.2 44 .2 57.5-.1 13.5-.1 33-.1 43.5 0 55.5-.5 87.3-1.6 89.6-.4.9-2 2.6-3.6 3.8l-3 2.2-4.4-2.1c-2.5-1.1-4.7-2.4-5.1-2.9-.8-1.3-.8-37.6-.1-86.1.6-36.6.6-61.8.2-101-.1-12.5.7-61.8 1.8-109.5.3-11 .6-24.3.7-29.5s-.1-15.7-.6-23.2c-.6-11.5-.5-14.9 1-21 2.5-10.2 2.9-10.8 7.3-10.8 2 0 4.5.6 5.4 1.4"/><path d="M417.9 48.7c-1.7 2-3.8 42.1-2.7 52.8.9 8.8.9 33.4.2 78-.3 19.2-.6 36-.6 37.3s.5 9.3 1.2 17.9.9 19.1.6 23.4l-.7 7.9 3.4 1.6c4.1 2 7.3 1.4 11-2 2.5-2.3 3.4-5.7 2.9-11.6-1.1-13.9-1.6-37.4-1.5-67.5 0-15.4.2-22.9.7-44l.1-3 10.5.3c5.8.2 12.8-.1 15.5-.7 3.4-.6 7.6-.6 13.1.1l8.2 1.1v5.6c0 3.1.5 21.8 1.1 41.6s1.3 45.1 1.5 56.2c.4 23.3 1 25.3 7.2 25.3 5.5 0 9.1-2.3 9.8-6.4.6-3.2.3-19.2-.9-50.6-1-25.1-.7-54.1.6-55.6.9-1.1 3.2-1.4 9.6-1.2l8.4.3.4 20.7c.2 11.3.9 25.3 1.6 30.9.6 5.7.9 13.5.5 17.3-.6 6.9.6 29.7 2.4 44.6.7 5.8 1.4 7.9 3 9.2 2.9 2.4 5.5 2.3 9.2-.3 4.2-3.1 5-5.9 3.7-13.7-.6-3.7-1.2-16.6-1.4-28.7s-.9-28.8-1.5-37c-1.4-19-2-68.4-.9-70.7.5-.9 2.5-2.1 4.3-2.7 4.3-1.1 28.4-.2 29.3 1.2s1.1 7.1 1.7 43.7c.3 17.3.9 37.3 1.3 44.5.5 7.1.7 25.2.5 40.2l-.3 27.2 2.7 1.7c1.5 1 4.6 1.8 7.2 1.8l4.5.1 1.3-5.6c2.2-9.5 2.3-59.3.2-68.5-.5-2.3-.8-5.4-.6-7l.4-2.9 1.7 3.9c1.8 4 3.5 10.4 5.7 21.1.6 3.3 1.6 7.1 2.2 8.5s1.9 6.1 2.9 10.5c1.1 4.4 2.3 8.9 2.8 10s2.2 5.6 3.9 9.9c3.6 9.6 8.4 16.1 13.2 17.7 3.4 1.2 3.5 1.3 1 2-4.4 1.3-9.3.9-11.1-.7-2.8-2.6-4.7-1.1-4.7 3.7-.1 2.3-.6 5.5-1.3 7.1-1.9 4.7 0 5.8 11.2 6 5.1.1 12.1-.2 15.4-.5 8.8-.9 33.7-1.9 60.5-2.4 26.6-.5 28.4-.5 58 .1 30.5.8 49.7.9 79.2.7 17.3-.2 26.9.1 29.3.9 1.9.6 3.9.9 4.4.5.6-.3 9.5-.8 19.8-1.1 15-.5 20-.3 24.8.9 5.4 1.4 8.9 1.5 24.8.9 5.2-.3 8.1-3.3 7.4-7.9-1-5.7-2-6.3-11.4-6.3-8.4 0-8.5 0-7.8-2.3 2.4-7.8 2.8-14.8 3.1-53.2.2-23.1.6-48.3.9-56 .9-23.8.8-24.7-4.7-26.3-1.8-.5-5.1-1.5-7.3-2.1-2.8-.9-7.3-1-15.5-.4l-11.5.8-2.3 4.2c-2.1 3.9-2.7 4.3-6 4.3-2.1 0-5.3-.5-7.2-1-1.9-.6-7.5-1.3-12.3-1.7-4.8-.3-9-1-9.3-1.4-.3-.5 0-5.3.7-10.7.9-6.8.9-10.3.2-11.6-2.1-3.8-9.8-5.6-25.8-6.3l-15-.6-2.5-2.9-2.5-3-19.5.5c-30 .8-34.8 1.9-33.4 7.3.3 1.2.2 2.4-.3 2.6-.4.3-11.1.2-23.8-.3-20.9-.7-23.1-.6-24.3.9-1.1 1.4-1.2 5.3-.6 19.2.4 9.6.7 38.9.8 65s.5 48 .9 48.7c.4.6.9 5 1.2 9.7.3 4.8.6 9.2.8 9.8.1.8-2.1 1.5-6.5 1.9-8 .9-46.8 1.9-46.8 1.2 0-.2 2-1.3 4.4-2.4 5.8-2.5 9.7-6.7 11.3-12.1 1.4-4.9.6-9.8-3.1-18-5.5-12.5-6.5-14.7-9.6-22.8-1.8-4.7-3.8-9.9-4.5-11.5-.6-1.7-2.6-8.6-4.4-15.5s-4.4-16.6-5.8-21.5c-1.4-5-2.9-11.5-3.3-14.5-1.7-11.2-3.8-18.6-6.1-22.1-1.3-2-2.9-4.4-3.4-5.4-1.5-2.5-10.2-3.5-26.2-3l-13.1.4-.5-4.7c-.3-2.6-.6-6.1-.6-7.7 0-1.7-.6-5.2-1.2-7.8-1.6-6.8-4-8.1-12.9-7.3-3.8.4-11.4.2-16.9-.4-7.7-.8-11.1-.8-14.3.1-2.4.7-7.7 1.5-11.8 1.8-7.1.6-7.5.7-7.8 3.1-.2 1.4-.8 3.6-1.5 4.9s-1.2 6.2-1.2 10.7c.1 8.3.1 8.4-2.9 9.4-1.6.5-6 1-9.7 1h-6.8l-.6-3.3c-.3-1.7-.9-5.5-1.3-8.2l-.8-5-4.9.3c-2.8.1-7.2.7-10 1.2-2.7.5-11.1.9-18.5.9-7.4-.1-14.7.4-16.2 1-3.2 1.2-12.8.3-13.4-1.3-1-2.6-2-26.2-1.2-27.3 1.6-2 17.6-2.7 63.8-2.4h22.5c4.4 0 12.7.3 18.5.6s17.5.5 26 .4c19.6-.3 19.5-.3 25.7 1 4 .9 5.8.9 7.4 0 2.6-1.4 71.6-1.5 82.4-.1 3.9.4 9.9.8 13.5.7 21.2-.6 134.3-.6 159.5 0 16.5.4 31.1.7 32.5.7 1.4-.1 10.8-.5 21-.9 10.6-.5 19.4-1.3 20.5-2 1.1-.6 3.5-1.7 5.3-2.3 2.7-1.1 3.2-1.7 3.2-4.7 0-2.3-.6-3.6-1.7-4-1-.4-3.2-1.7-4.9-2.9-2.9-2.3-3.5-2.3-16-1.7-14.1.7-16.2.7-121.9.3-40.1-.2-86.5-.3-103-.2-16.5 0-74.8-.1-129.5-.2-54.7-.2-104.1 0-109.8.5-13.3 1.1-14.9.5-15.4-5.8-.2-2.6-.1-8.1.3-12.2.8-9.4.4-10.9-3.8-12.6-4.6-2-7.7-1.9-9.4.2m8 .4c4.4 1.5 5 3.3 4.2 11.9-.4 4.1-.5 9.9-.2 12.9.5 5 .9 5.5 3.5 6.2 1.6.5 7.4.4 13 0 5.5-.5 54.9-.7 109.6-.5 54.7.1 113 .2 129.5.2 16.5-.1 62.9 0 103 .2 105.2.4 107.8.4 121.5-.3 11.9-.6 12.6-.5 15.5 1.7 1.6 1.2 3.8 2.5 4.8 2.9s1.7 1.7 1.7 3c0 2-1 2.9-5.2 4.7-5.2 2.3-10.1 2.8-43.8 4.2-1.4 0-16-.3-32.5-.7-25.2-.6-138.3-.6-159.5 0-3.6.1-9.6-.3-13.5-.7-10.5-1.4-79.4-1.2-82.9.1-2.2.9-4.2.8-9.2-.5-3.5-.8-6.7-1.3-7.2-1-1.2.7-30.1.8-42.2.1-5.8-.3-14.1-.6-18.5-.6s-14.5 0-22.5-.1c-52.3-.1-63.6.4-64.9 3-.7 1.6.4 26.2 1.3 28.8.6 1.6 11.3 2.5 14.4 1.2 1.5-.5 8.8-1 16.2-.9 7.4 0 15.8-.3 18.5-.8 10.8-2 13.5-2.2 14-.9.2.7.9 4.6 1.5 8.5l1.2 7.3h7.1c4 0 8.9-.5 11-1.1l3.7-1-.6-6.9c-.5-5.2-.2-8.1 1.1-12.2 1-2.9 1.9-5.9 2.1-6.6s2.2-1.2 5.5-1.2c2.8 0 7.8-.7 11.1-1.5 5-1.3 7.6-1.4 15.6-.5 5.3.6 13.1.8 17.3.4 7.4-.6 7.6-.6 9.7 2.1 2 2.5 3.3 7.9 3.6 15.4.1 2 .3 5 .4 6.7l.2 3.1 18.4-.1c16.7-.1 18.6.1 20.5 1.8 1.2 1.1 2.1 2.5 2.1 3.1 0 .7 1 2.5 2.3 4.1 2.1 2.7 3.9 8.9 5.7 20.4 1.2 7.6 4.5 21.2 5.7 23.5.6 1.1 2.3 7.2 3.8 13.5 3.1 12.8 3.9 15.2 8.4 25.9 1.7 4 3.1 7.8 3.1 8.3s1.6 4.4 3.6 8.6c4.1 8.7 6 13.5 6.8 17.2.7 3.4-1.5 9.6-4.8 13.1-2.6 2.7-12.5 7.9-15.2 7.9-1.4 0-1.9 2.1-.8 3.3.3.3 2.8-.1 5.6-.9 2.7-.9 5.6-1.3 6.4-1 2.3.9 45.6-1.3 46.9-2.4.9-.8 1-2.1.4-4.7-.4-2-.5-4.1-.3-4.5.3-.5 0-4.1-.7-8.1-.8-4.8-1.3-23-1.4-54.2-.1-25.9-.5-54.4-.9-63.5-.6-13-.5-16.9.6-18.2 1.2-1.5 3.5-1.6 24.3-.9 24.2.8 25 .7 24-3.5-1-4.5 2.9-5.2 32-6l19-.6 2.5 3 2.5 2.9 14.5.5c14.8.6 23.6 2.4 26.2 5.5.9 1.1.9 3.5 0 11.2-.7 5.4-1 10.5-.7 11.3.5 1.1 2.9 1.7 9.8 2.1 5.1.4 10.8 1.1 12.7 1.7 1.9.5 5.4 1 7.7 1 3.9 0 4.3-.3 6.5-4.3l2.3-4.2 10.4-.8c8.1-.6 11.8-.4 16.4.7 8.5 2.2 10.7 3.9 10.8 8.4.1 2 0 4.1-.1 4.7-.5 2.2-1.1 30.2-1.4 70.5-.3 35.3-.6 43.5-2 48.3-.9 3.2-1.6 6.2-1.6 6.7 0 .6 3.8 1 8.5 1 7.9 0 8.6.2 10.1 2.5 2 3 1.2 7-1.6 8.5-3.6 1.9-21.6 2.2-28.4.4-4.9-1.3-9.6-1.5-24.9-1-10.3.3-19.2.8-19.8 1.1-.5.4-2.5.1-4.4-.5-2.4-.8-12-1.1-29.3-.9-29.5.2-48.7.1-79.2-.7-29.6-.6-31.4-.6-58-.1-26.8.5-51.7 1.5-60.5 2.4-3.3.3-10 .6-14.9.5-10-.1-12.7-1.4-10.7-5 .6-1.2 1.2-3.9 1.3-6.2.2-4.6 1-5.7 2.8-3.5 1.3 1.6 5.1 1.9 11.3.9 4.6-.8 4.8-2.6.5-4.2-7.3-2.7-15.6-18.9-20.3-39.5-.9-3.8-2-7.6-2.5-8.5-.4-.9-1.4-4.4-2-7.7-3.4-16.8-6.3-25.5-8.6-25.5-1.5 0-1.6.8-1 6.2 1.4 11.7 1.6 16.3 1.7 41.8 0 19-.3 26.8-1.4 30.5-1.4 5-1.4 5-5.5 4.9-2.6 0-5-.8-6.2-1.9-2-1.8-2.1-2.7-1.8-28.5.2-14.6 0-32.4-.5-39.5-.4-7.2-1-27-1.3-44-.5-34.1-.9-43.9-1.8-45.3-.8-1.4-25.4-2.2-30.4-1-2.9.7-4.6 1.8-5.1 3.2-1.1 2.9-.5 52.9.9 71.1.6 8.2 1.3 24.9 1.5 37s.8 25 1.4 28.8c1.3 7.6.8 9.4-3.9 12.7-3.5 2.5-6.3 2-8.5-1.4-1.9-2.8-3.7-26.9-4-50.1 0-8.8-.7-24.1-1.4-34s-1.1-22.3-.9-27.5l.3-9.5-9-.3c-13.2-.4-12.6-1.2-12.6 19.3 0 9.4.4 27.8.8 41s.8 29.8.8 36.8c0 12.5-.1 12.9-2.5 14.7-3.3 2.6-8.2 2.5-10.5 0-1.6-1.7-1.8-4.5-2.1-22.2-.2-11.2-.9-36.5-1.5-56.3s-1-38.7-1-42.1l-.1-6-8.7-1.1c-5.8-.8-10.3-.8-13.6-.1-2.8.5-9.9.8-16 .6l-11-.3-.1 3.5c0 1.9-.2 8.7-.3 15-.7 26.4-.5 67.3.5 85 1.2 20.1.7 22.4-5.6 25-2.3.9-3.4.9-5.7-.2-2.8-1.3-2.8-1.4-2.5-9.5.2-4.5-.1-14.6-.7-22.5-1.4-17.3-1.4-12.8-.7-55.3.7-44.5.7-69.1-.2-78-.4-3.9-.2-16.7.3-28.6 1.2-25.7 1.5-26.5 9.4-23.8M649 284.4c0 .2-.9.6-2 .9s-2 .1-2-.4.9-.9 2-.9 2 .2 2 .4"/><path d="m766.3 132.4-3.2 1.5-.1 14.3c-.2 54.2.2 76.7 1.4 89.8.3 3.6.9 11.9 1.2 18.5s.8 15.4 1.2 19.5l.7 7.5 4.5.8c4.7.9 54.8.1 57.3-.9 1.2-.4 1.5-4.4 1.6-23 0-12.4.3-23 .7-23.5.3-.5.7-22 1-47.7.2-25.7.5-47.6.6-48.7.3-1.8-.5-2.1-6.2-2.7-6-.6-11.9-.4-19.7.8-2.5.4-3.3 1.1-3.7 3.2-2 9.4-3.2 105.4-1.5 119.9 1.6 13.8 1.4 15.3-1.8 18-3.1 2.5-6.1 2.9-8.5 1-3.4-2.6-5-28.4-4.8-77.2.1-13.2.3-25.8.4-28 2.2-32.1 2.7-42.7 2.1-43.3-1.4-1.4-19.9-1.3-23.2.2m21.6.5c1.3.9 1.4.7-1.5 42.6-1.3 18.6 0 83.4 1.9 97l1.2 9 3.6.9c3 .7 4.3.5 7.2-1.3 4-2.4 5.1-6.3 3.4-12.1-.7-2.2-1.1-18.8-1.2-45.5 0-59.4.8-80.6 3.1-82.9 1.5-1.6 14-2.6 21.4-1.7 4.1.5 5.4 1 5.2 2.1-.2.8-.5 19.9-.7 42.5-.1 22.5-.6 47.7-1 56-.4 8.2-.8 21.3-.9 29l-.1 14-11 .6c-14.4.8-43.2.8-47 0-2.9-.6-3-.8-3.7-7.6-.4-3.9-.9-12.4-1.2-19s-.9-14.9-1.2-18.5c-1.2-13-1.6-38.3-1.3-89.3V135l2.7-1.5c3-1.6 18.8-2.1 21.1-.6m-71.6 9.3c-2.9 1.4-3.5 4.6-2.3 12.6.6 3.7 1.1 15.7 1 26.7 0 11-.1 20.7-.1 21.5.1.8.3 14.4.5 30.1.3 16.1 1 29.8 1.6 31.3 1.3 3.6 1.3 9.2-.2 13.3-1 2.8-1 3.6.2 4.3.7.5 9.4.9 19.2.9 16.5.1 17.8 0 17.8-1.7 0-1-.5-2.3-1.2-3-1.2-1.2-2.1-14.8-3.8-59.7-1.2-30.8-1.3-35.8-.4-58.3.3-9.9.2-14.8-.6-15.7-1.8-2.1-28.1-4-31.7-2.3m24.4 1.4c2.8.3 5.7 1.1 6.3 1.9.7.9.9 5.6.6 14.7-.9 21.4-.8 27.7.4 58.3 1.6 43.8 2.7 59.6 3.9 60.8.6.6 1.1 1.5 1.1 1.9 0 .5-8 .7-17.7.6-17.2-.3-17.8-.4-17.5-2.3 1.2-8 1.3-11.7.3-14.8-.7-2.2-1.4-14.3-1.7-31.9-.2-15.5-.4-29-.5-29.8 0-.8.1-10.7.1-22s-.4-23.2-1-26.5c-1.3-8-1.3-8.1 1.2-10.5 1.9-1.8 3.1-1.9 10.7-1.5 4.7.3 10.9.8 13.8 1.1m-148 8.6c-4.6 1.2-5.5 3-3.5 7.2 3.3 6.8 5.1 11.4 7.4 18.6 1.3 4.1 4.3 13.5 6.8 20.8 2.5 7.4 4.8 15.5 5.2 18 .3 2.6 1 5.1 1.4 5.7.4.5 1.1 3.2 1.4 6 .9 5.9 5 19.4 7.7 25 1 2.2 1.9 4.4 1.9 4.8 0 .5 1.4 2.8 3 5.3 3.6 5.2 5.2 5.4 15 2.3 8.3-2.6 10.3-4.3 9.4-8.3-.3-1.7-1.4-4-2.4-5.1s-3.4-5.8-5.4-10.5c-2.1-4.7-4.4-9.9-5.1-11.5-2-4.4-7.5-22.8-7.5-25.1 0-1-1-3.9-2.1-6.4s-2.4-6.5-2.9-9c-.9-5.2-7.3-29.1-8.9-33.3-.6-1.6-1.8-2.7-3-2.7-1 0-2.4-.7-3.1-1.5-1.4-1.7-9.3-1.9-15.3-.3m14.3 1.3c.7.8 2.1 1.5 3.1 1.5s2.3.9 2.9 1.9c1.3 2.5 8 27 9.1 33.3.4 2.6 1.7 6.8 2.8 9.4 1.2 2.6 2.1 5.4 2.1 6.2 0 1.8 3.8 14.9 5.1 17.4.5 1 .9 2.5.9 3.4s.9 3.5 1.9 5.8c1.1 2.3 3.1 6.6 4.5 9.7s2.6 6.1 2.6 6.7 1.1 2.3 2.4 3.9c5.3 6.3 4.1 8.9-5.9 12.3-8.5 2.9-9.9 2.7-13.2-2.3-5.7-8.5-11.6-24.6-12.9-34.7-.4-3-1-6-1.4-6.5-.4-.6-1.1-3-1.5-5.5-.9-5.4-14.5-46.6-18-54.5-1.3-3.1-2.2-6.1-1.9-6.6 1.6-2.7 15.4-3.8 17.4-1.4m286.5 8.8c-2.5 2.1-2.7 3-2.8 9.3-.1 3.8-.5 15-.9 24.9-.5 9.9-1 33.4-1.2 52.3-.4 31.1-.3 34.3 1.2 35.1 1 .5 5.3 1.1 9.7 1.2 6.4.3 8 .1 8.3-1.1.1-.8-.8-2-2-2.5-1.5-.7-2.2-1.7-2-3 .1-1.1.2-8.1.2-15.5s.5-27.5 1.1-44.5c.6-17.1 1.2-34.2 1.3-38 .2-3.9.6-9.6 1.1-12.7.7-5.5.6-5.7-1.6-6.2-8.5-1.7-9.7-1.7-12.4.7m11.4.3c2.2.5 2.3.8 1.6 5.2-.4 2.6-.9 8.1-1 12.2-2 52.3-2.5 71.7-2.4 83.2 0 7.6-.2 14.2-.6 14.7-.9 1.6 1.3 5.1 3.2 5.1.9 0 1.3.3 1 .7-1 1-15.1.3-16.2-.8-1.3-1.3-1.5-28.9-.3-61.4.5-14.9 1-33.5 1.2-41.4.2-14.3.3-14.4 3-16.8 2-1.7 3.5-2.2 5.4-1.7 1.5.3 3.8.7 5.1 1m-56.3 6.6c-1.1 1.8-1.6 8.2-2.1 28.8-.3 14.6-.8 28.5-1 31s-.6 15.8-1 29.6l-.6 25.1 12.8.6c20.5 1 23 .4 18.6-4.6l-2.8-3.2.1-21.5c.1-11.8.6-35.4 1.2-52.5.6-17 .9-31.1.7-31.3-.7-.7-18.9-4.2-21.7-4.2-1.8 0-3.3.8-4.2 2.2m16.4.7 8.5 1.7-.3 21.9c-.2 12.1-.7 27.8-1.2 35-.4 7.1-.7 21.3-.5 31.4l.2 18.5 2.7 2.3c1.5 1.3 2.3 2.4 1.9 2.4-3.9.7-8.6.7-19.1.2l-12.3-.5.7-24.7c.3-13.5.7-26.6.9-29.1s.7-16.4 1-31c.7-28.8 1-30.1 6.4-29.9 1.4 0 6.4.8 11.1 1.8M268.8 276.7c-55.4 5.3-81.2 8-88.8 9.4-3 .6-13.6 3.4-23.5 6.4-9.9 2.9-21.6 6.1-26 7s-10.9 2.8-14.5 4.1-9.6 3.3-13.5 4.5c-12.1 3.6-43.8 20-45.9 23.6-.5.9-2.3 3.2-4 5.2-7 7.8-10.1 15.5-8.9 21.9.6 3.7 3.5 5.5 6.8 4.2C53 362 64 351.5 64 350.2c0-.5 1.9-3 4.3-5.4 4.6-4.9 19.5-13.3 31.2-17.5 9.5-3.5 22.1-7.7 27-9.2 14.7-4.2 22-6.1 23.5-6.1 1 0 7.1-1.5 13.7-3.3 18.4-5.2 25.9-6.7 38.8-7.8 6.6-.5 12.7-1.4 13.6-1.8.8-.5 4-.9 7-1 3 0 8.1-.3 11.4-.6s6.7-.6 7.5-.6c1.6 0 21-1.9 27.5-2.6 10.5-1.2 147.6-2 149.4-.9.7.5 11 1.2 23 1.6 35.3 1.3 60.4 3.1 63.6 4.5 1.7.7 5.5 1.6 8.5 2 4.8.5 9.5 1.7 26 6.4 1.9.5 8 2.6 13.5 4.6s11.7 4 13.8 4.6c12.1 3.1 33.9 16.4 45 27.6 15.9 15.9 23.6 36.9 26.6 72.3.8 9.6 4 22 6.2 24.4 1.7 1.9.9 5-2 8.1-4.6 4.8-11.7 16.1-14.1 22.3-1.2 3.1-2.6 6.6-3.2 7.7-2 3.6-5.4 16.6-6.8 25.7-.5 3.5-1.6 10.8-2.5 16.3s-1.3 11.3-1 13c.2 1.6.7 5.4 1.1 8.4l.6 5.4-10.9-.8c-5.9-.4-12.8-1-15.3-1.2-10.7-1-47.7-.4-53 .8-3 .7-7.7 1.3-10.5 1.3l-5 .1.2-3.4c0-1.8.6-3.8 1.1-4.3.6-.6 6.3-.9 13.9-.8 28.9.6 25.9.9 29.2-3 3.4-4 4.2-9.9 1.5-12.1-1.2-.9-6.7-1.2-23.5-1-20.6.2-21.9.1-22-1.6-.1-1-.3-4.2-.5-7.2-.1-3-.5-6.4-.8-7.6-.5-1.8.2-2.8 3.2-4.7 4-2.6 10.1-5 17.2-6.7s18.1-4 22.3-4.6c3.2-.5 4.1-1.2 5.3-4 1.5-3.7 1.8-8.3.6-10.1-2.3-3.6-23.4-1.1-43.8 5.1-8.3 2.5-10.4 2.6-10.4.2 0-.7-1.5-4.1-3.3-7.7-1.9-3.6-3.7-7.7-4.1-9.3-.9-3.8-7.9-14.2-15.8-23.8-7.5-8.8-8.5-11.3-6.9-16 1.3-3.9 1.5-16.3.2-18.7-2.1-3.8-13.5-41.7-15.1-49.9-2.6-13.7-14.3-24.4-22.1-20.3-3.3 1.8-14.9 11-14.9 11.9 0 .4-.8 1.6-1.8 2.7-10.9 11.7-25.6 30.6-26.6 34.1-.4 1.2-2 3.8-3.6 5.8-1.7 2.1-3 4.2-3 4.8s-1.1 2.4-2.4 4.1c-1.2 1.7-3.1 4.6-4 6.4l-1.7 3.4-22.8-.8c-18.6-.5-25.6-.4-37.7 1-16.3 1.9-37.7 6.7-43.7 9.8l-3.9 1.9-6.6-6.2c-3.7-3.4-9.8-9.2-13.7-12.9-3.8-3.7-13.1-11.5-20.5-17.3-7.4-5.9-14.9-11.8-16.5-13.1-3.8-3-8.9-4-15.9-3.2-5 .7-5.7 1.1-8.2 4.9-1.5 2.3-3.4 6.7-4.2 9.7-5.7 22.5-7.4 37.7-7 63.2.3 18 .5 19.9 2.4 22.5 3.4 4.6 3.5 5.9.8 9.9-1.4 2-4.7 10.2-7.4 18.3-5.7 17-8.5 34-7.7 46.3.3 4.3.2 8-.3 8.3-.4.2-7.2.9-15.1 1.5-11.8.9-16.4 1.8-25.4 4.7-6 1.9-11.8 4.2-12.7 5.1-2.8 2.4-2.3 7.4 1.1 10.6l2.8 2.7 5.9-2c9.6-3.2 26.1-6.1 34.3-6 10.8.1 12.2.7 13.7 5.4.6 2.2 1.9 6.3 2.8 9.2.9 2.8 1.4 5.7 1.1 6.5-.3.7-3.4 2.4-6.9 3.6-10.9 3.9-27.9 13.8-29.3 16.9-1.7 3.9-1.6 7.8.2 9.3 1.6 1.4 9.9.7 11.9-.9.6-.5 2.2-1.2 3.6-1.6s8-3.4 14.7-6.6c13-6.3 14.7-6.8 16-4.4 1.9 3.3 14.1 15.9 18 18.7 2.4 1.6 4.3 3.3 4.3 3.7 0 .5-3.5 2.7-7.7 4.9-4.3 2.2-10.3 5.6-13.3 7.6s-5.8 3.6-6.3 3.6c-2.6 0-29.3 21.3-31.2 25-.8 1.6-2.1 3.2-2.7 3.7-.7.4-6.2.8-12.3.9-12.8.3-49.9 3-59.8 4.4-3.7.6-8 1-9.5 1-3 0-13.7 2.3-21.9 4.7-4.8 1.3-11.3 6.7-11.3 9.2 0 2 4.8 7.6 6.7 7.9 1.2.2 3.7-.3 5.5-1.1 6.3-2.8 9.5-3.4 29.8-5.7 4.7-.5 12.6-1.4 17.5-2 5-.6 15.8-1.3 24-1.5 8.3-.3 16.5-.8 18.3-1.1s3.6-.3 4.1 0c.4.3.2 2.9-.5 5.8-3.1 11.9-1.1 25.1 5.3 34.7 4.9 7.5 10.5 11.7 19.5 14.8 6.5 2.2 8.9 2.5 21.4 2.5 12.9 0 14.8-.3 20.6-2.6 3.6-1.4 6.9-2.6 7.5-2.6 1.7 0 11.3-6.9 18.2-13.1 7-6.3 19.1-12.9 28.6-15.6 8.3-2.3 45.3-2.3 53.5 0 8.6 2.4 12.3 3.9 15.5 6.1 1.7 1.2 3.2 2.2 3.4 2.3 1.1.7-3.5 5.5-9.1 9.4-6.7 4.7-20.9 18.6-22.6 22.2-3.4 7.4-4.3 10.3-4.8 16.9-.6 6.4-.3 8 1.9 13 3.1 7 12.7 16.7 20 20.2 6.7 3.2 15.2 3.9 33.9 2.8l14.7-.9 9.3-4.6c5.1-2.6 10.2-5.2 11.3-5.9s5.6-3.6 10-6.5c4.4-2.8 11-7.3 14.7-10 10.4-7.5 12.3-8.6 27.8-16.8 8-4.3 17.3-9.8 20.8-12.2l6.3-4.5 9.7.7c5.3.4 20.8.8 34.5.8 27.4.1 26.6-.1 24.7 6.7-1.5 5.4-1.2 10.3 1.1 16.4 3.5 9 10.2 14.2 23.5 18.2 8.7 2.7 27.2 2.1 37.4-1.2 12.2-3.9 11.6-4.2 12.4 8.5.8 11.1.7 11 6.7 19.7 3.7 5.5 13.9 10.7 24 12.3 11.7 1.9 28.2-1.9 35-8 1.5-1.3 5.3-4.4 8.4-6.9 8.2-6.4 14.6-12.1 16.9-15 5.4-6.8 17.4-18.2 24.8-23.5 4.6-3.3 13.7-11.4 20.4-18 10.9-10.9 12.3-12.7 14.9-19.3 1.5-4 3.5-7.8 4.3-8.5 2-1.6 16.7-1.2 26.1.8 9.2 1.9 15.1 5.4 19.4 11.3 4.7 6.4 5.6 8.4 6.7 14.2 2 10.4-2.7 22-13.4 33-2.9 3-7.3 8.4-9.7 11.9l-4.4 6.4-.3 14.3c-.4 14.1-.3 14.4 2.5 20 6.7 13.4 22.4 20.3 41.9 18.4 6.8-.6 10.2-.6 11.1.2.9.7 1.3 4.2 1.2 12.2-.1 16-.1 16-7.9 16.8-12.5 1.4-28.2 3.9-36 5.8-3.7.9-23.7 3.6-32.8 4.5-2.9.2-6.9.9-9 1.4-2 .6-9.1 1.7-15.7 2.6-6.6.8-13.3 1.7-15 2-1.6.3-7 .7-11.9 1s-9.3.8-9.7 1.1c-.5.3-5.9 1.2-12 2s-11.6 1.7-12.1 2c-.6.4-7.6 1-15.7 1.4-8 .4-16.4 1.3-18.6 1.9-2.2.5-8.3 1.2-13.5 1.5-5.2.2-15.8 1.4-23.5 2.6-16.4 2.5-28.2 3.9-38 4.5-3.9.2-12.7 1.3-19.6 2.4s-17 2.5-22.4 3.1c-5.5.6-12.5 1.5-15.5 2-5.8 1.1-16 2.2-35.5 4-6.6.6-15.1 1.8-19 2.6-3.8.8-10.1 2-14 2.5-23 3.2-28.9 3.9-37.4 4.4-5.2.4-9.7.8-10.1 1-.3.2-10.2 1.3-22 2.4-11.8 1.2-24.4 2.5-28 3.1-3.6.5-8.3 1.2-10.5 1.5s-11.4 1-20.5 1.5c-30.6 1.8-43.5 2.9-53.5 4.6-7.3 1.3-14.2 1.6-25.5 1.4-8.5-.2-17.3-.2-19.5-.2-46.4 1.6-57.8 1.1-59.1-2.3-.3-.7.2-4.3 1.1-8 1.9-7.4 2.1-10.9 1.6-32.5-.2-9-1-18.1-2.2-24-2.4-12-2.4-14.7-.1-15.9 1-.6 14.7-1.2 30.4-1.5 22.4-.4 31-.9 40.5-2.6 6.7-1.1 19-2.9 27.4-4 8.5-1 18.3-2.4 21.9-2.9 3.6-.6 11.7-1.1 18-1.2 6.3 0 15.1-.7 19.5-1.5 13.1-2.2 23.7-3.6 34.6-4.4 5.7-.4 16.3-1.5 23.4-2.4 7.2-.9 16.6-2.1 21-2.6 4.4-.6 12.7-1.7 18.5-2.5 5.8-.9 17.3-2 25.5-2.6 18.8-1.2 40.7-3.7 52.5-5.9 3-.6 10.5-1.5 16.5-2 6.1-.6 16.6-1.7 23.5-2.5 6.9-.9 16.6-2 21.5-2.5 18.9-1.9 32.7-5.1 36.6-8.6 1-.9 1.9-2.7 1.9-3.9 0-2.8-3.2-5.7-5.4-4.9-.9.3-2.2.1-2.9-.4-2.4-2.1-30.2-.8-41.7 1.8-5.1 1.2-18.8 2.8-33.5 4-5.5.4-11.7 1.3-13.8 2-2.2.6-4.4.9-5.1.7-.7-.3-3.5-.1-6.2.4s-7.6 1.2-10.8 1.5c-3.3.2-6.2.6-6.5.9-.4.2-7.8.6-16.6 1-8.8.3-20 1.2-25 2-4.9.7-11 1.6-13.5 2-2.5.3-7.6 1-11.5 1.6-3.8.6-8.6 1.2-10.5 1.4s-8.9.8-15.5 1.4-12.7 1.3-13.5 1.6c-.8.2-4.9.7-9 .9-4.1.3-11.3 1.3-16 2.1-10.3 2-21.6 3.1-42.1 4.4-14.1.9-28.5 2.6-42.4 5.1-26.7 4.8-28.7 5-61.5 5.4-17.9.3-33.7.7-35.1 1.1-2.3.6-3 0-6.6-5.5-5.2-7.9-18.7-20.1-29-26.3-4.5-2.6-8.5-4.7-9-4.7-.6 0-3.6-1.4-6.7-3-15-8-45.1-16.9-57.2-17-6.5 0-7.8 1.4-7.1 7.7.6 5.5 2.2 7 8.6 7.9 5.7.8 15.8 3.8 23.1 6.9 3 1.2 8 3 11 4s8.7 3.7 12.5 6c3.9 2.3 10.2 6.1 14.1 8.3 11 6.4 18.9 13.5 23.5 21.2 6.1 10.3 7.5 14.9 10.6 34 .2 1.4.8 11 1.3 21.5 1 19.9.2 30.2-2.5 35.5-.8 1.6-1.5 3.8-1.5 4.9 0 1.5-1.4 2.7-5.2 4.4-10.7 4.9-28 7.7-47.4 7.7-17.2 0-18.6.5-18.8 6.5-.1 3.4.3 4.1 2.9 5.4 2.9 1.4 10.2 2.9 17.7 3.5 3.7.3 21.6-1.3 36.1-3.3 8.2-1.1 14.8-2.6 17.6-4.1 6.3-3.2 9.8-3.9 15.6-3.2 3.3.4 17 .7 30.5.6s29.7-.2 36-.3c6.3 0 17.4-.5 24.5-1.1 14-1.2 32.8-2.9 38.5-3.5 12.4-1.3 28.9-2.3 31-1.9 1.4.3 5.7-.1 9.5-.9 3.9-.8 8.3-1.3 9.7-1 1.5.3 4.9 0 7.5-.6 2.7-.7 10.4-1.6 17.3-2.1 6.9-.6 16.8-1.7 22-2.5s17.5-2.2 27.3-3c9.7-.7 18.2-1.7 18.8-2.1.7-.4 5.5-1.3 10.8-2 5.3-.8 12-1.8 14.9-2.3 2.9-.6 11.6-1.5 19.5-2.1 7.8-.6 16.7-1.5 19.7-2 5.7-1 12.3-1.8 34.5-4.5 18.4-2.2 34.9-4.6 35.8-5.2.4-.2 3.3-.6 6.4-.9 9.6-.7 26.4-2.4 34.3-3.4 4.1-.5 14.1-1.6 22.2-2.4s15.1-1.7 15.6-2 7.9-1 16.3-1.6c8.5-.5 21.5-2.1 28.9-3.5s19.1-3 26-3.5c6.9-.6 16.3-1.7 21-2.5 13.8-2.3 26.4-4.5 28-5 .8-.3 7.1-.9 14-1.5 12.8-1 20.5-2.1 32-4.6 3.6-.7 7.4-1.3 8.5-1.3 1.1.1 6.1-.6 11-1.5 5-.9 9.6-1.6 10.3-1.6 1.3 0 1.1 25.8-.4 50.2-.9 14.9.1 16.9 9.9 19.3 1.7.5 2.8-.1 4.6-2.5 3.3-4.6 4.9-19.1 5.5-51.3.3-15 .8-38.3 1.2-51.9l.7-24.7 2.6-2.8c7.1-7.5 12.6-14.8 17.2-23 7.5-13.2 9.2-17 11-24.5 2.2-8.8 3.8-26.5 3.9-41.1 0-18.4-6.9-39.9-17.5-53.9-8.7-11.6-28.7-28.3-38.8-32.4-3.4-1.4-7-3-7.9-3.5-1-.5-2.4-.9-3.2-.9-.7 0-2.7-.7-4.2-1.5-1.6-.8-5.4-2-8.4-2.6s-9.8-2.3-15-3.9-12.6-3.4-16.5-4.1c-3.8-.6-8.9-1.8-11.3-2.5-2.3-.8-5.9-1.4-8-1.4-2 0-4.2-.4-4.8-.8-.7-.4-3.3-4.7-5.9-9.7-2.6-4.9-5.8-10.4-7.1-12.1s-2.4-3.5-2.4-4c0-1.4-5.8-9.3-12.5-16.9-5.3-6-13.9-13.1-29.4-24.3-5.6-4.1-16.9-9.5-27.1-12.9-4.1-1.4-8.4-3-9.5-3.6-3.4-1.8-37.8-11.7-40.6-11.7-5.1 0-5.8-1.9-5.3-13.8.2-5.9 1.1-14.1 1.9-18.2s1.7-10.2 2-13.5c.8-7.6 1.9-11.1 6.6-21.1 6.6-14.2 15.3-25.7 24.9-32.7 5.6-4.1 16.8-7.5 34.5-10.6 15.7-2.8 69.5-1.1 79.6 2.4 2.2.8 9.7 2 16.7 2.6s17 1.4 22.2 1.9c5.2.4 10.9 1.2 12.6 1.8 1.7.5 6.4 1.3 10.5 1.7s8.3.9 9.4 1.1c1.1.3 5.2.9 9 1.4 3.9.6 8.4 1.5 10 2 3.3 1 13.9 3.2 29 6.1 18.5 3.5 26.7 7.2 18.8 8.4-7 1-20.3 8.6-30.4 17.2-5.3 4.5-10.7 9.5-11.9 11-8.3 10.6-10.7 14.6-16 26.8-2.9 6.6-7.8 31.7-7.9 40.5-.2 10.5-2.2 58.9-2.8 66.5-.3 3.8 0 9.9.6 13.5s1.4 9.4 1.8 13c.8 6.4.8 6.5 4 6.8 1.8.2 5.3-.6 7.8-1.7l4.5-2 .2-6.3c.3-11.4.8-41.1.8-51.4 0-5.6.4-18.2.9-28 1.7-30.3 6.4-46.5 17.8-60.9 9.1-11.4 18-18.9 28.4-24 6.6-3.2 7.5-3.3 19.9-3.6l13-.3 3.6 3.4c4.3 4.3 7.5 10.7 10.8 22.4 3 10.1 3.2 16.9 1.1 27.6-3.6 19-9.6 31.3-19.1 39.7-3.7 3.1-6.7 6.7-7 8.2-.4 1.4-1.4 3.4-2.3 4.5-1.4 1.6-1.6 5.9-1.8 33-.1 17.1-.6 38.1-1.1 46.6s-.7 39.1-.5 68-.1 62.8-.6 75.5c-.6 12.6-1.3 34.9-1.6 49.4s-.7 26.6-.9 27c-.2.3-.7 6.8-1 14.5-.4 7.6-.8 14.1-1 14.5-.3.3-.7 7.3-1 15.4-.5 14.4-.5 14.7 1.7 16.1 3.8 2.4 8.5 2.9 11.2 1.2 1.8-1.2 2.7-3.3 3.9-8.8.9-4 1.6-9.1 1.4-11.3-.1-4 1.9-34 2.8-40.5.3-1.9.7-19.7.9-39.5s.9-38.1 1.4-40.6c.8-3.6.9-61.8.1-66.4-.1-.6.1-5.3.4-10.5.7-13.2.8-19.6.7-42.5-.1-11 .3-24.1.9-29.2.6-5.4.8-19.3.5-33.4q-.6-24.15.6-28.2c.8-3.1 2.7-5.7 7.5-10.2 5.5-5.1 7.4-7.9 13.2-19.5 7-14 8.3-18.2 10.3-33.7 1.4-10.7.7-17.9-2.7-31.5-1.3-5.3-2.4-10.7-2.4-12.1 0-3.5-7.2-14.1-15.4-22.5-7.8-8.1-20.5-17-28.8-20.2-2.9-1.2-6.6-2.7-8.3-3.4-4.4-2-12.2-4.3-18.5-5.5-23.1-4.5-42.7-8.2-49.5-9.2-4.4-.6-9.9-1.8-12.3-2.5-2.3-.8-6-1.4-8.1-1.4-2 0-8.4-.6-14.2-1.4-5.7-.8-15.3-1.7-21.4-2.1-6-.3-13-1.2-15.5-2-12.3-3.7-60.4-6.5-76.6-4.5-14.3 1.9-15.6 2-21.1 2.4-2.8.2-6.5 1.1-8.2 1.9-1.8.9-6.3 2.3-10.1 3.3-3.8.9-7.5 2.3-8.1 3-.6.8-2.4 1.4-3.9 1.4-2.7 0-2.8-.2-3.4-6.3-.4-3.4-1.1-9.1-1.6-12.7s-.9-7.2-.9-8c-.1-13.9-5-34.9-10.6-45.4-12.8-24.2-23.5-36.2-41-46.3-4.4-2.5-10-5.7-12.5-7.2-7.1-4.2-24.9-10.7-34.5-12.7-1.6-.3-6.8-2-11.5-3.6-22-7.7-37-10.7-56.8-11.3-9-.2-16.7-.7-17.2-1s-10.7-.7-22.7-.9-24-.9-26.7-1.5c-6.7-1.6-137.5-1.1-154.8.6m154.8.4c2.7.6 14.7 1.3 26.7 1.5s22.2.6 22.7.9 8.2.8 17.2 1c11 .4 19.4 1.2 25.8 2.6 9.7 2.1 34.7 9.6 36.5 10.9.6.4 3.3 1.1 6 1.5 2.8.4 5.5 1 6 1.4.6.5 3.3 1.4 6 2.1 7.4 1.8 13.3 4.5 27.5 12.5 21.2 11.9 29 19.3 41.4 39.3 9.9 15.9 14.2 28.1 15.7 44.2.5 5.2 1.1 11.3 1.3 13.5.8 8.6 2.7 24.1 3 25.1.5 1.4 6.6.6 8.7-1.3.9-.7 4.5-2.1 8-2.9s7.7-2.2 9.3-3.1c1.5-.8 5.1-1.7 8-1.9 5.4-.4 6.7-.5 21-2.4 16.2-2 64.3.8 76.6 4.5 2.5.8 9.5 1.7 15.5 2 6.1.4 15.7 1.3 21.4 2.1 5.8.8 12.2 1.4 14.2 1.4 2.1 0 5.8.6 8.1 1.4 2.4.7 7.9 1.9 12.3 2.5 7.9 1.2 37 6.7 51.3 9.6 10.1 2.1 25.6 8.4 34.9 14.2 4.3 2.6 11.3 8.1 15.6 12.2 8.2 7.8 17.7 20.9 17.7 24.3 0 1 1.1 6.3 2.4 11.6 3.5 13.6 4 20.7 2.6 31.9-1.6 13.2-2.8 17.6-6.7 25.3-1.8 3.6-3.3 6.8-3.3 7.1 0 2.5-9.2 15.8-13.3 19.2-8.4 7.2-8.2 5.8-8.2 43.2 0 18.1-.4 33.5-.8 34.2s-.7 11-.6 23c.1 24.9 0 31.1-.7 44.3-.3 5.2-.5 9.9-.4 10.5.8 4.6.7 62.8-.1 66.4-.5 2.5-1.2 20.8-1.4 40.6s-.6 37.6-.9 39.5c-.8 6.1-2.9 36.4-2.8 40 .3 5.8-1.9 15.9-4.1 18.6-1.6 2.1-2.6 2.5-5 2-1.7-.4-4.1-1.3-5.3-2.1-2.3-1.5-2.3-1.8-1.8-15.7.3-7.9.7-14.5 1-14.9.2-.4.6-6.9 1-14.5.3-7.7.8-14.2 1-14.5.2-.4.6-12.5.9-27s1-36.8 1.6-49.4c.5-12.7.8-46.6.6-75.5s0-59.5.5-68 1-29.3 1.1-46.1c.2-27.7.4-30.9 2-32.6.9-1.1 1.7-2.9 1.7-4.1 0-1.3 2.5-4.3 6.9-8.1 7.9-7.1 12.5-15 16.4-28.1 5.7-19.4 5.9-29 .9-45.2-3.6-11.3-4.5-13-9.5-18.4l-3.8-4.1-13.7.5c-12.8.4-14.2.7-20.7 3.7-6.2 2.8-15.1 9.1-21.1 15-5.3 5.1-13.5 16.6-16.4 23-6.5 14.3-10 41.1-10 75.9 0 10.6-.5 41-.8 50.8-.2 5.7-.3 5.8-4.3 7.8-2.2 1.2-5.3 2-6.7 1.8-2.5-.3-2.8-.8-3.5-6.3-.4-3.3-1.3-8.9-1.8-12.5-.6-3.6-.9-9.7-.6-13.5.6-7.6 2.6-56 2.8-66.5.1-12.2 5.2-34.4 10.4-45.5 2.9-6.3 6.8-12.2 13.6-20.9 2.6-3.3 22.6-20.6 23.9-20.6.4 0 3.5-1.5 6.8-3.4 3.2-1.8 8-3.6 10.6-4 3-.5 4.6-1.2 4.6-2.1 0-2.1-6.7-5.2-14.1-6.4-7.2-1.3-12.8-2.4-24.4-5.1-12.4-2.8-22.5-4.8-28-5.6-2.7-.4-5.2-.8-5.5-.9s-3.9-.5-8-.9-10-1.4-13-2.1c-3-.8-9.1-1.6-13.5-1.9-19-1.2-32.3-2.7-36.5-4.1-11-3.6-63.7-5.2-79.5-2.4-17.9 3.1-30.3 6.8-35.5 10.6-15.3 11.2-29.5 35.9-31.5 54.8-.3 3.3-1.3 9.4-2.1 13.6-1.5 7.7-2.4 30.2-1.3 31.3.4.4 3.1 1.1 6 1.5 5.9 1 34.8 9.4 37.8 11.1 1.1.5 5.7 2.3 10.3 3.9 17.4 6 21.9 8.5 41.9 23.7 14.3 10.8 25.9 25 36.3 44.7 1.3 2.3 2.8 5.2 3.4 6.2.6 1.1 1.3 2.8 1.6 3.7.3 1 1.9 1.9 4.3 2.3 2.1.3 6.1 1 8.8 1.5 2.8.6 7.3 1.5 10.1 2 2.7.5 9.5 2.2 15 3.6 5.4 1.5 12.6 3.3 15.9 4.1 14.2 3.4 32 11 39.4 16.8 23.7 18.5 36.5 35.6 40.6 54.4.8 3.6 1.9 8.4 2.5 10.6 2 8.4.4 41.4-2.8 54-3.1 12.7-15.7 33.6-28.3 46.8l-2.6 2.8-.7 25.7c-.4 14.1-.9 37.2-1.1 51.2-.6 32.6-1.9 45.2-5.3 50.3-2.7 4.1-4.3 4.2-9.2.8-4.2-3-4.5-5.6-3.1-25.3.6-10.1 1.1-23.6 1-30.1-.2-13.5 1.1-12.4-12.4-10.1-4.9.9-9.9 1.6-11 1.5-1.1 0-4.9.6-8.5 1.3-11.5 2.5-19.2 3.6-32 4.6-6.9.6-13.2 1.2-14 1.5-1.6.5-14.2 2.7-28 5-4.7.8-14.6 1.9-22 2.5s-14.2 1.3-15 1.5c-6 1.8-26 4.7-38.9 5.5-8.4.6-15.8 1.3-16.3 1.6-.5.4-7.6 1.2-15.6 2-8.1.8-17.8 1.8-21.7 2.3-6.4.9-25 2.8-35 3.6-2.2.2-6.2.8-9 1.4-5.4 1.2-21.8 3.4-38 5.2-5.5.6-14.3 1.7-19.5 2.5s-16.9 2.1-26 2.9-19.4 2-23 2.6-10.6 1.6-15.6 2.3-9.6 1.6-10.3 2c-.6.4-9.1 1.4-18.9 2.2-9.7.7-22.2 2-27.7 2.9s-15.4 2-21.9 2.5c-6.6.5-14.2 1.4-16.8 2.1-2.7.6-6.1.9-7.6.6-1.4-.3-5.8.2-9.7 1-3.8.8-8.1 1.2-9.5.9-2.1-.4-18.6.6-31 1.9-5.7.6-24.5 2.3-38.5 3.5-7.1.6-18.2 1.1-24.5 1.1-6.3.1-22.5.2-36 .3s-27.3-.2-30.8-.6c-6.3-.7-10.3.1-17.2 3.6-4.4 2.3-12.2 3.6-35.8 6-12.7 1.3-15.6 1.3-25.3-.2-9.8-1.5-13.4-5.7-8.9-10.2 1.8-1.8 3.3-2 16.7-2 17 0 36.7-2.9 44.8-6.5 1.7-.8 4.3-1.8 5.8-2.4 1.9-.7 2.7-1.8 2.7-3.4 0-1.3.7-3.8 1.6-5.6 2.7-5.3 3.4-15.7 2.4-35.7-.9-19.1-1-20.3-3-31.6-3.6-20-12.1-33.2-27.5-43-13.3-8.5-27-15.7-35.4-18.6-14.8-5.2-27.2-9-31.4-9.7-5-.8-7.7-3.6-7.7-7.9 0-5 1.8-6 10.2-5.3 17.9 1.5 56.1 16 73.4 27.7 8.4 5.8 19.2 16.2 23.6 22.8 3.9 6 4.3 6.3 7.2 5.7 1.7-.3 17.7-.8 35.6-1 32.7-.5 34.9-.7 61.5-5.5 13.9-2.5 28.3-4.2 42.4-5.1 20.5-1.3 31.8-2.4 42.1-4.4 4.7-.8 11.9-1.8 16-2.1 4.1-.2 8.2-.7 9-.9.8-.3 6.9-1 13.5-1.6s13.6-1.2 15.5-1.4 6.7-.8 10.5-1.4c3.9-.6 9-1.3 11.5-1.6 2.5-.4 8.6-1.3 13.5-2 5-.8 16.2-1.7 25-2 8.8-.4 16.2-.8 16.6-1 .3-.3 3.2-.7 6.5-.9 3.2-.3 8.1-1 10.8-1.5s5.5-.7 6.2-.4c.7.2 2.9-.1 5.1-.7 2.1-.7 8.3-1.6 13.8-2 14.7-1.2 28.4-2.8 33.5-4 11.4-2.6 38.3-3.8 40.7-1.8.7.5 2.3.8 3.6.4 1.9-.4 2.7 0 3.7 2 1.2 2.2 1.1 2.7-.6 4.4-4 4-16.2 7.1-35.9 9-4.9.5-14.6 1.6-21.5 2.5-6.9.8-17.4 1.9-23.5 2.5-6 .5-13.5 1.4-16.5 2-5.3 1-10.4 1.7-27.5 3.9-4.4.5-14.1 1.2-21.5 1.6-7.4.3-15.9 1.1-18.8 1.6-6.6 1.3-25.6 3.7-39.2 4.9-5.8.6-13 1.4-16 2s-10.9 1.5-17.5 2c-12.4 1-21.4 2.1-35 4.5-4.4.7-13.2 1.4-19.5 1.4-6.3.1-14.4.6-18 1.2-3.6.5-13.4 1.9-21.9 2.9-8.4 1.1-20.7 2.9-27.3 4-9.4 1.6-18.2 2.2-40.5 2.6-15.6.3-29.5.9-30.9 1.4-3 1.2-3.1 3.9-.5 17 1.2 5.9 2 15 2.2 24 .5 21.7.3 24.9-1.6 32.7-1 4-1.5 7.9-1.2 8.7s3.3 1.9 7.4 2.6c6.2 1.1 14.6 1.1 52.8-.2 2.2 0 11 0 19.5.2 11.3.2 18.2-.1 25.5-1.4 10-1.7 22.9-2.8 53.5-4.6 9.1-.5 18.3-1.2 20.5-1.5s6.9-1 10.5-1.5c3.6-.6 16.2-1.9 28-3.1 11.8-1.1 21.7-2.2 22.1-2.4.3-.2 5-.7 10.5-1 5.4-.3 14.2-1.2 19.4-2s12.2-1.7 15.5-2c3.3-.4 8.6-1.3 11.9-2.1 3.2-.9 12.4-2.2 20.5-3 8-.9 18.7-2 23.6-2.5 5-.5 11.5-1.3 14.5-1.9 3-.5 10-1.4 15.5-2 5.4-.6 15.5-2 22.4-3.1s15.7-2.2 19.6-2.4c9.8-.6 21.6-2 38-4.5 7.7-1.2 18.3-2.4 23.5-2.6 5.2-.3 11.2-.9 13.3-1.5s10.5-1.4 18.7-1.8c8.1-.5 15.2-1.1 15.8-1.5.5-.3 6-1.2 12.1-2s11.5-1.7 12-2c.4-.3 4.8-.8 9.7-1.1s10.3-.7 11.9-1c1.7-.3 8.4-1.2 15-2 6.6-.9 13.7-2 15.8-2.6s6.4-1.2 9.5-1.5c4.9-.4 19.7-2.3 29.7-3.9 1.7-.2 5.9-1.1 9.5-1.8 7.8-1.7 20-3.6 29.5-4.5 6.7-.7 7-.8 7.6-3.7 1.2-5.7 1-25-.3-26.8-1.2-1.5-2.4-1.6-11.6-.7-19.5 1.8-33.6-4.2-41.2-17.7l-3.1-5.5.3-13.8.3-13.7 4.4-6.4c2.4-3.5 7-9.1 10.1-12.4 10.5-11 14.9-22.5 13-33.9-1-6.2-1.9-8.2-6.7-14.8-3.9-5.4-8.5-8.3-16.2-10.4-7.6-2-23.8-3.5-28-2.6-3.7.8-3.6.6-8 10.6-2.6 5.8-5 8.7-14.9 18.5-6.4 6.4-15.4 14.3-20 17.6-7.4 5.3-19.4 16.7-24.8 23.5-2.3 2.9-8.7 8.6-16.9 15-3.1 2.5-6.9 5.5-8.3 6.8-7.2 6.4-22.7 10-34.5 8.1-6.6-1.1-15.9-5.4-19.7-9.2-1.4-1.3-3.9-4.4-5.7-6.8-3-4.1-3.2-5.1-3.9-15.7l-.7-11.2H617c-1.5 0-6.1 1.1-10.1 2.4-9.9 3.2-28.5 3.9-37.1 1.3-11.5-3.5-18.6-9-22.3-17.4-2.7-6-3.1-10.6-1.4-16.6 2.1-7.6 3-7.3-25.4-7.4-13.8 0-29.8-.4-35.4-.8l-10.2-.7-6.3 4.5c-3.5 2.4-12.8 7.9-20.8 12.2-15.5 8.2-17.4 9.3-27.8 16.8-9.1 6.6-22.9 15.7-23.8 15.7-.4 0-1.5.6-2.3 1.4-.9.8-5.3 3.3-9.9 5.7-8.3 4.2-8.4 4.2-23 5.1-19.1 1.1-27.3.4-33.6-3.1-6.7-3.5-15.9-12.9-19.2-19.3-2.4-4.7-2.6-5.9-2-12.5.3-4.6 1.5-9.1 3.1-12.5 3.1-6.6 15.3-19.4 24.8-26.1q8.7-6.3 8.7-10.5c0-1.9-9.5-6.1-20-8.9-9.5-2.5-44.7-2.4-54 .2-10.4 2.8-21.8 8.9-29.5 15.7-9.6 8.5-13.6 11.1-22.9 14.8-7.5 3-8.8 3.1-21.5 3.2-17.4.1-26.1-2.4-34.6-9.9-3.5-3.2-9.5-12.8-11-17.8-1.9-6-1.9-16.5-.2-23.2 1.8-6.6 1.1-7.6-4.4-6.9-2.4.3-10.9.8-18.9 1.1s-18.5 1-23.5 1.5c-4.9.6-12.8 1.5-17.5 2-16.6 1.9-22.9 3-28.6 5-3.2 1.1-6.2 2-6.6 2s-1.9-1.6-3.4-3.5l-2.7-3.6 3.8-3.9c2.2-2.2 4.7-4 5.7-4s2.6-.4 3.6-.9c4-2.2 18.9-4.4 40.2-6 7.4-.6 17.8-1.5 23-2.1s15.6-1.1 23-1.2 14.3-.5 15.2-1c1-.5 2.4-2.2 3.3-3.7 1.9-3.7 28.5-25.1 31.2-25.1.5 0 3.3-1.6 6.3-3.6s9-5.5 13.3-7.7c9-4.8 9.6-6.3 3.4-10.5-3.9-2.8-16.1-15.4-18-18.7-1.6-2.9-4.2-2.2-21.2 6.1-11.4 5.5-18.9 8.4-21.8 8.4-4.4 0-6-4.1-3.4-8.8 1.5-2.7 22.2-14.3 30.1-16.9 6.6-2.1 7.8-4.5 5.2-9.9-.9-1.9-1.6-4.2-1.6-5.2 0-.9-.7-3.5-1.4-5.7-1.6-4.7-3.1-5.2-14.7-5.4-7.9-.1-23.3 2.5-33.8 5.8l-6 1.8-2.5-2.6c-5.6-5.8-2.6-9.2 12-13.8 7.7-2.4 13.3-3.4 24.9-4.3 8.2-.6 15.3-1.3 15.7-1.6s.5-4 .1-8.2c-.7-9.8 2.1-31.5 5.1-39.7 1.3-3.3 3.3-9.4 4.7-13.5 1.3-4.1 3.4-8.8 4.6-10.3 3.4-4.2 3.4-8.8 0-12.5-2.1-2.3-2.2-3.2-2.2-25 0-33.3 3.8-57.5 10.7-68.4 2.6-4.2 3.5-4.8 7.4-5.4 6.3-.9 11 .1 14.7 3.1 1.8 1.4 9.3 7.3 16.7 13.2 7.4 5.8 16.7 13.6 20.5 17.3 10.2 9.8 20.3 19 21.1 19 .4 0 3.2-1.1 6.3-2.4s8.8-3.2 12.6-4.1c3.9-.9 8.6-2 10.5-2.5s10.2-1.7 18.4-2.6c12-1.4 19.2-1.5 38.1-1l23.4.8 2.1-3.9c4.4-7.9 7.6-13 9.8-15.8 1.2-1.5 2.2-3.4 2.2-4.1 0-2.1 18.6-25.9 26.7-34.2.7-.8 1.7-2.1 2.2-3.1 1.4-2.5 15.5-13.1 17.5-13.1 1 0 3.7 1.2 6.1 2.6 5.2 3 10.9 12.3 11.9 19.4.4 2.5 1.1 5.6 1.5 7 .5 1.4 1.4 4.5 2.1 7 1.6 5.7 9.9 31.7 11.1 34.8s1.1 14.4-.2 17.9c-1.8 4.8-.2 8.8 6.9 17.3 8.3 9.8 15.5 21.2 17.1 26.6.6 2.3 1.7 4.7 2.5 5.3.8.7 2 3.2 2.8 5.8.7 2.5 1.8 4.7 2.4 5 .7.2 5-.7 9.7-2.2 13.7-4.2 31.5-7.4 37.5-6.8 4.4.5 5.3.9 5.8 2.9.8 3-1.3 9.2-3.4 10.3-.9.5-4.4 1.2-7.6 1.6s-6.8 1-8 1.5c-1.2.4-4.6 1.3-7.6 2-8 1.7-18.3 5.7-20.8 8.1-1.5 1.4-2 2.7-1.6 4.3.3 1.2.7 4.7.8 7.7.2 3 .4 6.4.5 7.7l.1 2.3 22-.2c16.5-.1 22.3.1 23.5 1.1 2.5 2.1 1.8 6.2-2 10.2-3.8 4.3-4.7 4.4-19.5 2.9-4.7-.5-11.9-.6-16-.2l-7.5.6-.9 4.3c-.7 3.4-.6 4.6.5 5.3 1.6 1.1 9.3.6 16.4-1.1 4.8-1.1 42.3-1.6 52.5-.7 2.5.2 9.6.8 15.9 1.2l11.3.8-.6-6.4c-.4-3.5-.9-7.3-1.2-8.5-.3-1.1.2-6.8 1.1-12.5s2-13.2 2.5-16.7c1.6-10.5 4.8-22.1 6.6-24.3.8-.8 1.4-2.3 1.4-3.2 0-3.9 12.6-24.6 17.3-28.6 2.1-1.7 2.2-6.4.3-9.4-2.8-4.4-4.8-12.4-5.7-22.7-3.1-36-10.9-57.6-26.6-73.3-5.1-5.2-24.4-19.7-26.2-19.7-.5 0-2.5-.8-4.3-1.9-1.8-1-6.4-2.9-10.3-4.1-3.8-1.3-7.8-2.7-8.7-3.1-7-3.4-41.4-13.4-49.8-14.4-3-.4-6.6-1.3-8-2-2.7-1.4-26.2-3.1-64.1-4.5-12-.4-22.3-1.1-23-1.6-1.8-1.1-138.9-.3-149.4.9-6.5.7-25.9 2.6-27.5 2.6-.8 0-4.2.3-7.5.6s-8.2.5-11 .6c-2.7 0-6.1.4-7.5.9s-7.7 1.3-14.1 1.9c-12.2 1-18.7 2.3-35.9 7.1-5.8 1.6-14.1 3.7-18.5 4.6-4.3.8-9.7 2.1-12 2.8-2.2.7-6 1.9-8.5 2.6-4.1 1.1-22 7.2-31.5 10.6C82.1 332.5 64 344.2 64 348c0 1.1-11.6 12.7-14.1 14-1 .6-2.3.4-3.5-.5-4.4-3.2-1-14.4 7.1-23.6 1.8-2 3.6-4.3 4.1-5.2 2.1-3.6 36.4-21.3 46.9-24.2 5.3-1.4 8.4-2.5 16-5.5 1.1-.5 5.6-1.6 10-2.5 9.5-2.1 23.3-5.9 33-9.1 12.2-4.1 16.7-4.8 61-9.4 8.7-.9 18.9-1.9 44.3-4.3 17.3-1.7 148.1-2.2 154.8-.6"/><path d="M444.2 366.8c-8.4 9.8-17.6 23-27.3 38.9-3.8 6.3-6.9 11.7-6.9 12s-1.1 2.1-2.5 3.9-2.9 4.4-3.5 5.9c-.5 1.4-1.7 2.8-2.6 3.2-.8.3-8.6-.2-17.2-1.2-36.2-4-72.4.6-96.7 12.2-11 5.2-18.1 4.2-20.4-3-1.6-4.8-38.5-40.4-45.8-44.2-4.9-2.6-5.7-2-8.2 5.6-1.8 5.7-2.4 10.9-3.3 27.7-1.3 26.2-.8 38.4 1.6 43.5 2.9 5.9 1.9 13.2-2.7 19.9-2 2.9-3.7 5.9-3.7 6.6s-.9 3.1-1.9 5.5c-3.3 7.2-4.1 11.7-4.7 26.9-.5 12.4-.3 15.5 1.1 19.2 1.9 5.1 3 5.6 12.5 5.6 7.9.1 20.1 2.2 25.3 4.4 6.1 2.7 6.2 6.3 0 9.7-2.6 1.5-3.7 1.5-9.9.3-3.8-.7-10.6-1.3-15.1-1.4-8.1 0-8.3.1-8.3 2.4 0 1.3.7 3.7 1.5 5.2.8 1.6 1.5 3.6 1.5 4.5 0 2.6 2.7 3.1 6.8 1.3 4.5-2 22.9-2.9 24.9-1.2.7.6 1.3 2.6 1.3 4.4 0 3-.6 3.8-4.7 6.5-3.4 2.1-5.9 2.9-8.3 2.8-7.7-.5-10 0-10 2.1 0 4.7 4.4 10.1 14.2 17.1 4.8 3.5 8 5.2 23.3 12.4 2.8 1.3 9.5 3.6 15 5 17.6 4.7 17 4.4 17 9.5 0 4.3-.2 4.6-4.5 6.7-5.5 2.8-11.2 2.9-17.6.4-7.7-3-20.9-7.1-23.1-7.1-1 0-2.3.4-2.8.9-.6.6-6.3 3.7-12.7 7-16.2 8.2-28.4 15.6-34.2 20.9-2.8 2.4-6.1 4.9-7.5 5.7-3.4 1.8-12.1 11.9-13.6 15.9-.6 1.7-2.1 5.3-3.3 7.9-2.6 5.7-2.7 9.5-.7 16.4 2.2 7.5 9.2 13.1 13.1 10.5.6-.4 1.9-3 2.8-5.9 2.1-6.4 9.6-13.8 14.9-14.8 6.7-1.3 7.3 1.1 2.2 7.8-2.8 3.7-3.5 5.5-3.5 9.2 0 7.2 1.3 8.8 6.3 7.9 7.4-1.2 11.8-3.3 19.6-9.2 4.2-3.1 8.1-6.2 8.6-6.8.6-.6 3-2.5 5.5-4.1 16.5-11 31.6-15.7 53.5-16.7 8.1-.4 10.3-.2 11.7 1.1 1.1 1 4.5 1.7 10.5 2 9.6.5 28.7 5.9 38.5 10.9 3.7 1.9 7.3 2.8 12.9 3.1l7.8.6 9.5-5.6c10-6 16.8-12.7 19.3-18.8 2-5.1 8.9-8.9 12.8-7.1 2.5 1.2 2.7 1.6 2.3 6-.3 2.6-1.3 6.4-2.2 8.5-2.4 4.8-13.4 16.1-20.5 21-13.4 9.1-19 12.7-25.6 16.2-3.8 2.1-9.5 5.4-12.5 7.4-10 6.5-28 21-28 22.6 0 .4-.9 1.8-2 3.2-2.7 3.4-2.8 11.8-.2 13.2 2.2 1.2 4.1.2 9.5-5.3 6.2-6.1 15.3-9.7 17.1-6.7 1.2 1.9-.7 7-4.5 12-4.7 6.2-5.4 11.5-1.6 12.5s10.4.7 11.5-.7c.6-.7 1.6-3.4 2.3-6 1.6-6.5 10-15.9 13.7-15.5 4.3.5 4.8 2.8 2.3 10.3-2.8 8.7-2 10 4.6 7.8 5.6-1.9 10.8-4.9 19.8-11.3 12.3-8.6 19.8-13.6 29-19 35.4-21 37.9-22.9 47.1-36.7 10.1-15.1 13.1-17.3 18.3-13.7 3 2.1 2.5 5.6-1.9 14.7-4.3 9-3.6 10.2 6.5 11.1 10.8 1 46.6.6 55.5-.5 4.1-.6 9.1-1.9 11-3 11.6-6.4 18.3-8.9 28.9-11 7-1.4 11.5-2.8 11.8-3.7.6-1.5-2.1-6.9-7.1-14.2-6.9-10.2-9.5-17.5-10.3-29.6-.5-7.3-.2-10 1.2-13.7 2.5-6.6 5.4-9 9.8-8.2 5.3 1 6.1 2.4 4.8 8.7-1.5 7.4-.4 20.1 1.9 23.3.4.5 1.1 2.1 1.5 3.5 1.3 4.1 9.3 14.7 12.8 16.8 1.8 1 5.5 4 8.4 6.6 6 5.4 12.3 8.5 19.3 9.3 2.8.3 5.3 1 5.6 1.4.3.5 1.3.9 2.2.9 1 0 3.4.9 5.5 2 2 1.1 5 2 6.6 2 3.5 0 9.7 3.4 11.1 6 .6 1 1 3.7 1 6 0 3.8-.5 4.6-6.6 10.3-3.6 3.4-7.7 6.8-9.2 7.7-3.6 2.2-11.4 11-16.5 18.5-6.5 9.4-8.6 15.7-8.7 24.8 0 7 .3 8.1 2.5 10.2 3.9 4 6.6 3 8-3 .9-3.6 6.7-9.9 10.7-11.6 2.4-1 3.2-.9 4.5.4 1.3 1.2 1.3 2.1.5 4.6-.6 1.7-1.4 5.8-1.8 9.1-.6 5.6-.5 6 1.4 6 2.5 0 13.4-5.7 14.5-7.6.4-.7 2.7-2.5 5-3.9 2.3-1.3 9.8-8.2 16.7-15.1 6.9-7 13.9-13.6 15.6-14.8 10.4-7 27.1-21.6 32-27.9 5.8-7.5 12.3-22.2 16-36s-.6-37.7-10.1-57.3c-1.9-3.9-3.5-7.8-3.5-8.6 0-.9-1.9-4.2-4.3-7.4-2.3-3.3-5.3-7.5-6.5-9.5-2.3-3.8-10.4-11.3-23.9-22.2-6.9-5.5-20.5-13.4-28.8-16.7-20.3-8.1-25.7-10.1-29.5-11-2.5-.6-7.2-1.8-10.5-2.6s-9.1-1.9-13-2.4c-3.8-.6-7.6-1.2-8.5-1.5-1.3-.4-46.1-2.5-58-2.7-14.7-.3-51.7 2.7-53.7 4.4-.8.6-2.5 3.3-3.8 5.9-3.4 6.6-17 20.6-27.1 27.8-7.9 5.7-9 6.1-15.2 6.7-8.1.6-9.3 0-8.6-4.7.8-4.7 1.7-5.7 10.4-11.4 4.1-2.7 8.8-6.3 10.4-8 5.2-5.5 13.2-16 14.5-19 2.3-5.3 6-18.7 5.4-20.1-.4-1-3.1-1.1-12.6-.7-11.1.5-12.4.4-13.9-1.3-3-3.4-3.2-6.9-.6-8.6 2.2-1.4 23-5.8 27.6-5.8 2 0 2.2-.5 2.2-5.3 0-2.9-.6-6.1-1.3-7.1-1.3-1.8-1.6-1.8-6.3.4-10.8 4.8-21.4 2.9-21.4-3.8 0-2.6 1-3.5 9.3-8.6 5.1-3.1 9.8-5.6 10.4-5.6.5 0 1.8-.9 2.8-2 1.7-1.9 1.8-2.3.1-8.3-1.9-6.9-10.2-23.1-14.4-28.4-1.5-1.8-5.1-6.1-8-9.4-6.9-7.9-7.6-9.8-6.1-17.5.9-4.8 1-6.9.1-9-.7-1.6-1.6-6.4-2.2-10.6-.5-4.3-1.4-8.5-2-9.5-.9-1.6-2.6-7.8-6.4-23.3-1.8-7.3-4.4-15.3-5.3-16.5-1.6-2-3.2-1.3-7.1 3.3m6.6-1.6c1.1 1.4 2.5 5.8 4.7 14.8 3.6 14.3 6.3 23.8 7 24.9.4.7 1.1 4.5 1.6 8.4.5 4 1.4 8.4 2 10 .9 2 .9 4.2 0 8.5-1.6 8.3-.6 11.4 5.8 18.7 9 10.4 10.7 12.6 14.6 20 2.1 3.8 4.1 7.4 4.5 8 .4.5 1.8 4 3 7.8 2.2 6.5 2.2 6.8.5 8.7-1 1.1-2.7 2.2-3.9 2.6-1.1.4-5.8 2.9-10.3 5.7-8.1 4.9-8.3 5.1-8.3 8.8 0 3.1.5 4.2 2.7 5.6 3.8 2.5 13.4 2.3 19.5-.4 5.6-2.6 6.8-1.8 6.8 4.7v4.6l-13.7 2.4c-17.9 3.1-19.4 4-17.2 10.7 1.6 4.9 3.7 5.6 16.8 5.2s12.3-1.2 9.7 8.6c-2.4 8.6-4.2 12.2-10.1 19.5-8.2 10.1-10.5 12.2-18.7 17.5-7.8 5.1-9.2 6.9-10.4 13.7-.6 3.4-.4 3.6 2.6 4.3 1.8.4 5.7.4 8.9 0 4.6-.5 7.1-1.7 14-6.3 9.7-6.6 24.1-21.3 27.5-28.1 1.4-2.6 3.1-5.3 4-6 2.1-1.8 37.7-4.6 53.6-4.3 17.9.4 54.5 2.4 60.5 3.2 15.4 2.3 32.7 6.8 41 10.5 1.7.8 6.2 2.6 10 4 12.3 4.7 26.2 12.3 34.7 19.2 13.6 10.9 21.7 18.4 24 22.2 1.2 2 4.2 6.2 6.5 9.5 2.4 3.2 4.3 6.5 4.3 7.3s1.6 4.7 3.6 8.6c9.6 19.3 13.7 42.5 10 56.3-1.6 6.1-7 20.4-9.8 25.7-3.2 6.4-10.4 14.9-17.5 20.9-9.7 8.1-17.1 14-20.7 16.4-1.7 1.2-8.7 7.8-15.6 14.8-6.9 6.9-14.4 13.8-16.7 15.1-2.3 1.4-4.6 3.1-5 3.9-1 1.6-11.4 7.6-13.3 7.6-1.4 0-.8-7.5 1.2-14.3 1.5-5-.4-7.3-5.2-6.2-4.3.9-12 8-12 11 0 1.3-.9 3.3-1.9 4.6l-1.9 2.4-2.6-2.4c-2.3-2.2-2.6-3.2-2.6-9.8 0-4.4.7-8.9 1.7-11.5 3.5-8.9 17.3-27 23.5-30.8 1.5-.9 5.6-4.3 9.2-7.7 6.3-5.8 6.6-6.4 6.6-10.7 0-2.4-.4-5.6-1-7-1.1-3.1-7.7-6.6-12.4-6.6-1.9 0-3.7-.4-4-.9-.8-1.2-11.4-4.8-16.4-5.5-5.9-.9-11.7-3.9-17.7-9.4-2.7-2.5-6.5-5.4-8.3-6.5-3.1-1.9-13.2-15-13.2-17.2 0-.7-.7-2.6-1.6-4.3-2-4.2-2.6-14.3-1.2-21.5 1.3-6.9.5-8.1-5.8-9.2-3.5-.5-4.5-.3-6.6 1.7-4.4 4.1-6.2 10.8-5.5 21.2.8 11.8 3.9 21.5 9.4 29.1 4.1 5.7 8.3 13.6 7.8 14.5-.3.5-2.2 1.2-4.3 1.6-15.8 2.8-26.6 6.4-35.2 12-5.3 3.5-16.3 4.5-45.7 4.2-31.8-.4-31 0-26.2-10.1 1.7-3.7 3.3-8.4 3.6-10.6.4-3.2.2-4.1-1.8-5.5-3.2-2.2-7.1-2-10.2.4-1.4 1.1-5.9 7.1-10.1 13.3-9.2 13.8-11.7 15.7-47.1 36.7-9.2 5.4-16.7 10.3-29 19s-22.8 14-24 12c-.3-.5.4-3.5 1.5-6.7 3.2-9.2 2.4-12.3-3.3-12.3-4.5 0-12 8-14.1 14.9-.9 2.9-2.1 6-2.7 6.7-1.2 1.4-7.5 1.9-10.3.8-2.6-1-1.8-5.1 1.9-9.9 3.7-4.9 5.9-11.2 4.9-14-.6-1.4-1.6-1.6-5.6-1.2-5.5.7-9.3 3-15.6 9.4-3.5 3.5-4.6 4.2-5.8 3.2-2.2-1.8-1.7-8.3.9-12.1 5.4-8 25.1-23.1 42.2-32.3 6.6-3.5 12.5-7.2 25.6-16.2 7.2-4.9 17.4-15.3 20-20.5 1.1-2.2 2.3-6.5 2.6-9.6.7-5.9-.8-8.2-5.1-8.2-4.1 0-10.4 4-11.5 7.3-1.9 5.8-9.7 13.4-19.7 19.3l-9.5 5.7-7.2-.6c-4.8-.3-8.5-1.2-10.8-2.6-7.3-4.3-27.9-10.2-38.2-11.1-6.6-.5-10.3-1.3-11.5-2.3-3.2-2.9-25.4-1.1-41.7 3.5-9.5 2.6-27 11.8-31 16.2-1.5 1.6-15.7 12.2-18.1 13.4-1.2.6-4.3 1.6-6.9 2.2-6 1.4-7.5.3-7.5-5.7 0-3.5.7-5.4 3.5-9 3.5-4.6 4.5-8.6 2.4-9.8-.6-.4-3.1-.4-5.6 0-6.5.9-12.9 7.1-15.7 15.1-1.6 4.4-2.6 6-4.2 6.2-2.8.4-8.9-6.4-10.3-11.5-1.3-4.6-1.4-10.5-.3-11.8.5-.6 2.1-3.8 3.5-7.3 2.9-6.8 10.6-16.5 14.8-18.7 1.4-.8 4.7-3.3 7.5-5.7 5.9-5.3 16.7-11.9 32.9-20.3 6.7-3.4 13-6.8 14.2-7.6 1.9-1.1 3.3-.9 11 1.5 4.8 1.5 10.9 3.6 13.5 4.7 2.6 1 6.6 1.9 9 1.9 4.4 0 12.6-3.1 14-5.3 1.2-1.8 1-9.5-.3-10.2-.9-.6-8.2-2.7-23.9-6.8-2.5-.7-6.1-2.2-8.1-3.5-2-1.2-4.2-2.2-4.8-2.2-3.4 0-20-10.6-26.6-17-3.4-3.3-6.2-8.6-5.2-9.6.3-.4 3-.6 5.9-.6 5.8 0 9.8-1.1 14.1-4 2.2-1.6 2.7-2.7 2.7-6.2 0-2.4-.6-4.8-1.3-5.4-2.1-1.7-21.4-.9-26.1 1.2-2.2.9-4.2 1.4-4.5 1.1-.8-.9-4.1-9.8-4.1-11.3 0-1.7 12.4-1.6 22 .2 7.2 1.4 7.6 1.4 11.5-.7 3.2-1.8 4.1-2.9 4.3-5.4.3-2.8-.1-3.4-3.7-5.2-4.9-2.5-19.1-5.1-28-5.1-7.7 0-9.4-1-11.1-6.3-2.2-7.1-.3-34.2 2.9-41.2.5-1.1 1.7-4 2.6-6.5s2.7-5.9 3.9-7.5c4.8-6.3 6.2-17.2 2.9-22.2-2.3-3.5-2.8-16.2-1.4-42.8.8-16.8 1.4-22.2 3.2-27.3 1.1-3.4 2.6-6.2 3.2-6.2 2.8 0 13.6 9.3 34 29 8.4 8.1 13.6 14 14.9 16.7 1 2.4 2.8 4.8 4 5.4 3.3 1.8 13.1.5 18.2-2.4 9.3-5.2 29.9-10.6 48.5-12.7 13.9-1.6 29.4-1.4 47.4.6 17.7 1.9 19.6 1.6 20.7-2.2.3-1.1 1.7-3.6 3.3-5.5 1.5-2 2.7-3.9 2.7-4.2 0-1 13.3-22.7 18.6-30.2 9.1-13.2 18.2-24.5 19.5-24.5.3 0 1.1.6 1.7 1.2"/><path d="M435.5 488.6c-9.3 8.3-15.7 9.4-22.9 3.9-4.9-3.7-6.5-4.1-9.7-2.5-1.5.9-1.9 2.2-1.9 7 0 5.5.3 6.3 3.7 10.1 5.8 6.4 10.7 8.2 20.8 7.7 7.2-.4 8.9-.8 12.5-3.3 6.1-4.2 9.5-10.7 9.3-17.4-.3-9.5-4.9-11.6-11.8-5.5m8.7-.9c.9 1 1.9 3.6 2.2 5.8.5 3.3.1 4.9-2.3 9-1.6 2.8-4.8 6.4-7.2 8-3.5 2.5-5.4 3-11.5 3.3-9 .5-14.1-1.5-19.7-7.7-3.2-3.5-3.7-4.8-3.7-8.9 0-8 2.6-9 9.6-3.7 3.5 2.7 5.5 3.5 8.7 3.5 5.2 0 11-2.7 16.2-7.3 4.6-4.1 5.6-4.4 7.7-2m-131.3 17.7c-1.3.6-3.3 3-4.3 5.3-2.3 5.1-6.8 7.6-14.1 7.7-4.2 0-6.1-.6-10.2-3.2-5.6-3.6-13-4.4-15.3-1.7-1.6 2-.7 10.5 1.5 13.9 1.5 2.2 6.9 5.1 15.5 8.3 7.8 2.8 20.9.9 27.4-4.1 3.5-2.7 10.6-14.4 10.6-17.5 0-2.6-4.1-8.3-6.6-9.2-1.2-.4-3.1-.2-4.5.5m8 4.5c2.7 3.7 2.6 5.1-.1 9.6-1.3 1.9-3.2 5-4.3 6.7-1.1 1.8-4.2 4.6-6.8 6.2-3.9 2.4-6.2 3-12.6 3.4-7.4.4-8.2.3-16.3-3.5-7-3.3-8.7-4.6-10.1-7.5-2-4.2-2.2-8.9-.5-10.6 2-2 7.6-1.3 13.1 1.7 6.8 3.8 9.7 4.3 15.4 3.1 6.9-1.5 9.1-2.9 10.3-6.6.7-1.9 2.3-4.3 3.7-5.4 3-2.3 5-1.6 8.2 2.9m41.7 14.3c-4.7.7-6.9 1.8-10.9 5.1-4.7 4-4.9 4.4-4.4 8.4.7 6.1 2.9 8.8 9.7 12 6.1 2.9 8 5.4 8 11 0 5.3-6.1 12.5-12.4 14.7-4.9 1.7-14.7.4-23.2-3-7.6-3-9.9-3.2-13.9-1.3-5.3 2.6-4.8 10.7 1 14.5 3.6 2.3 20.8 6.4 27.2 6.4 5.9 0 18.4-3.7 25.1-7.5 3.4-1.9 4.8-2.2 5.8-1.4 2.1 1.8 15.5 4 19.9 3.4 4.8-.7 15.9-4.1 19.5-6 4.5-2.3 12.2-9.8 13.6-13.2 3.1-7.4-.2-17.3-5.7-17.3-2.9 0-7.8 4.9-11 11.2-3.2 6.2-10.2 9.8-19.1 9.8-8.6 0-11.7-2.8-11.8-10.6 0-7.1 1.5-10.6 6-14.3 8.2-6.6 7.4-18.3-1.4-21-5-1.5-15.6-2-22-.9m15.7.7c7.6 1 11.2 3.4 12.2 8.1.9 3.9-1.6 9.2-5.9 12.5-4.1 3.1-5.6 7.3-5.6 15.5.1 8.4 3.1 11 12.7 11 9.8 0 17-3.5 20.2-9.8 2.7-5.2 8-11.2 10-11.2 2.3 0 6.1 6.4 6.1 10.3 0 9.3-14.9 20.6-31.5 23.8-5.6 1.1-16.4-.4-20.2-2.7-3-1.9-3.7-1.8-8.1 1-5.8 3.6-18.4 7.6-24.2 7.6-6.9 0-22.8-3.8-26.3-6.2-5.8-4.1-6.5-10.2-1.5-12.9 2.7-1.5 7.5-1.4 9.3.1 2.4 2 14.9 5 21.1 5.1 6.7.1 10.4-1.3 14.6-5.8 4.6-4.8 5.7-9.6 3.8-16.3-.8-3-1.9-3.9-7-6.3-6.5-3-10-7.1-10-11.8 0-4.1 8.4-10.7 15.2-11.8 7.1-1.2 7.3-1.2 15.1-.2M778 665.7c.1 1.5.7 5.7 1.5 9.3.8 3.7 1.4 12 1.5 19.2 0 11.1.2 12.8 1.8 13.6 2.2 1.1 10.7 2.9 19.6 4.1 22.9 3.2 42.6 24.5 42.6 46 0 5.4-2.6 17.9-4.1 19.6-.5.5-.9 1.6-.9 2.6 0 1.6-4.2 7.3-15.1 20.6-6.1 7.3-8.5 13.4-9.5 24-.5 5.5-.3 6.1 3.1 10.6 4.8 6.4 9 8.1 17.5 7.4 10.9-1 21.7-5.8 30.4-13.6 6.3-5.7 15.6-19.8 18.6-28.1.6-1.9 1.9-5.3 2.7-7.5 2-5.5 3.2-12.2 4.3-24 2.2-25.8-3.9-50.3-15.8-63-3.5-3.8-16.5-15.3-21.2-18.7-6-4.5-16.1-9.8-18.5-9.8-1.3 0-2.6-.4-3-.9-.3-.5-2-1.2-3.8-1.6-1.7-.4-6.4-1.7-10.3-3-12.9-4.4-27-7.9-35.6-9l-5.8-.6zm19.5 1.5c9.9 2.5 29.9 8.5 34.3 10.4 1.8.8 3.9 1.4 4.6 1.4 1.7 0 12.7 6.1 17.6 9.8 4.4 3.2 17.7 14.9 20.8 18.2 12.5 13.5 18.4 36.4 16.2 62.5-1.2 13.4-2.3 18.7-5.5 27-3.9 9.8-6.1 14-12.1 22-6 8.2-8.9 10.9-16.5 15.8-7.4 4.8-12.9 6.7-21.4 7.3-8.4.6-11.6-.9-16.5-8.1-3-4.3-3.2-5.1-2.6-9.8 1.3-9.9 3.5-15 9.1-21.7 14.2-16.8 15.5-19.2 18.9-32.6 4-15.5.1-30.1-11.3-42.6-9.1-9.9-17.1-13.5-38.5-17.3-13.3-2.4-12.6-1.5-12.6-15.8-.1-6.7-.7-15.1-1.5-18.7s-1.4-7.5-1.5-8.8c0-2.2.3-2.2 5.3-1.6 2.8.3 8.8 1.5 13.2 2.6m-185 63.5c-8.2.8-16.5 2.1-18.2 2.9-7.5 3.3-9.9 4.2-12.3 4.9-4.1 1.2-16.3 10.2-18.7 13.8-2.3 3.3-3 9.6-1.7 13.1.9 2.5 5.1 1.9 7-.9 2-3.1 9.8-7.5 13.4-7.5 2.8 0 6 2.7 6 4.9 0 .7-.9 2.4-2 3.8-1.1 1.5-2 4.1-2 6.1v3.4l6.8-.7c7.6-.8 26.7-6.7 29.4-9.2 1-.9 3.8-2.1 6.2-2.7 3.8-1 5.1-2.1 10.6-9.4 3.4-4.6 7.3-9 8.5-9.8 6.6-4.3 6.4-9.6-.5-11.4-13.8-3.5-10.6-3.4-32.5-1.3m24.4.3c2 .5 4.8 1.1 6.2 1.4 1.5.3 3.7 1.4 5 2.4l2.3 1.9-5.1 4.9c-2.8 2.7-7.5 8-10.3 11.9-4.5 6-6 7.2-9.9 8.3-2.5.8-5.3 2-6.1 2.7-3 2.7-19.5 8-27.7 9l-6.3.7v-2.7c0-1.5.9-3.8 2-5.2 3.8-4.8 1.3-10.3-4.6-10.3-4.4 0-12.6 4.1-14.8 7.4-.9 1.4-2.3 2.6-3 2.6-3.3 0-3.5-8-.3-12.7 2.9-4.5 15-12.7 22.3-15.3 3.2-1.2 7.3-2.8 8.9-3.6 1.7-.8 9.5-2 17.5-2.8 18.8-1.8 19.6-1.8 23.9-.6m228.6-407.8c-14.4.8-78.8 1.1-153.5.7-23.2-.1-38.1.3-43 1-4.1.7-9.9 1.2-12.9 1.1-3.7-.1-5.9.4-7.2 1.6-2.6 2.3-2.6 8.7 0 11.3 1.8 1.8 3.1 1.9 15.8 1.5 7.6-.2 15.8-.7 18.3-1 2.5-.4 10.8-.5 18.5-.4 7.7.2 23 .3 34 .3 20.6.1 27.5.1 86.5.1 19 0 42.8-.3 53-.8 22.4-1.1 19.8-1.1 29.6.2 9.6 1.3 14.3.4 17.4-3.5 1.1-1.4 2-3.8 2-5.3 0-3.3-3.6-5-10.9-5-2.5 0-8.6-.7-13.6-1.5-9.5-1.6-10.5-1.6-34-.3m34 1.3c5 .8 11.1 1.5 13.7 1.5 9.4 0 12.7 3.9 7.6 8.8-4 3.7-7.1 4.2-16 3-10-1.3-7.3-1.3-29.8-.2-10.2.5-34 .8-53 .8-59 0-65.9 0-86.5-.1-11 0-26.3-.1-34-.3-7.7-.1-16 0-18.5.4-2.5.3-10.6.8-18 1-15.2.5-17-.2-17-5.9 0-4.6 2.7-6.6 8.6-6.5 2.7.1 8.3-.4 12.4-1.1 4.9-.7 19.7-1.1 43-1 74.7.4 139.1.1 153.5-.7 23.5-1.3 24.5-1.3 34 .3M782 793c-1.4.4-4.3.8-6.4.9-2.2.1-5.3.5-7 1-1.7.6-7.6 1.5-13.1 2.1-5.5.5-13.1 1.5-17 2.1-3.8.5-10.1 1.2-14 1.4-5.2.4-7.3.9-8.3 2.2-1.8 2.5-2.5 5.9-1.8 8.6.7 2.9 6.2 4.8 12.1 4.2 19-1.9 34.9-3.8 39.5-4.5 3-.5 8.7-1.2 12.5-1.6 8.3-.7 14.5-4.2 14.5-8 0-1.3-.4-2.4-.9-2.4-.4 0-1.2-1.5-1.7-3.3-1-3.5-3.6-4.3-8.4-2.7m7.5 3.7c.5 1.8 1.3 3.3 1.7 3.3 2.1 0 .4 3-2.9 5.2-2.9 2-6.1 2.8-13.8 3.8-5.5.6-15.2 1.8-21.5 2.6-28.5 3.5-35 3.6-37.2.1-1.3-2-.9-5.1 1-7.5 1.4-1.8 3-2.3 8.2-2.7 3.6-.2 9.7-.8 13.5-1.4 3.9-.6 11.3-1.5 16.5-2.1 9-1 12.9-1.6 24.5-3.8 7.6-1.5 8.9-1.1 10 2.5"/></g></svg>