<svg xmlns="http://www.w3.org/2000/svg" width="1365.333" height="1365.333" preserveAspectRatio="xMidYMid meet" version="1.0" viewBox="0 0 1024 1024"><g fill="#000" stroke="none"><path d="M375.2 43.2c-.5.7-1.6 4.7-2.5 8.8-1.1 6-1.4 15.1-1.1 45 .1 20.6.2 44.5.2 53-.4 97.8-.2 109.4 1.8 113.5 1.6 3.2 2.6 4.1 5.8 4.7 3.8.8 7.2-.4 6.1-2.2-.3-.5-.1-1.1.4-1.4.9-.6 1.1-15.4 1.3-107.1.1-34.7-.2-69.3-.7-77s-.8-17.9-.6-22.7c.3-10.5-.2-12.4-3.9-14.3-3.5-1.8-5.4-1.9-6.8-.3M500.5 47c-3.5 6.7.7 11.6 11 12.6 2.2.3 30.6.7 63 .9 32.5.3 61.5.7 64.5 1 6.5.6 57.8 1.8 70 1.6h93.5c38.8.1 103.8-.1 109.5-.4 8-.5 11-1.3 16.8-4.5l4.5-2.5-2.7-2.2c-1.5-1.2-5.2-2.8-8.2-3.4-3-.7-6.3-2.1-7.2-3.2-1.5-1.5-2.4-1.7-4.8-1-4.4 1.2-16.9 1.4-83.4 1.3-6.3-.1-46.6 0-51.5.1h-14c-5.5-.1-12 0-14.5 0-2.5.1-6.5 0-9-.1s-13.5 0-24.5.2c-24.5.6-56.9.7-61 .1-3.4-.4-36.2-1.9-38.5-1.8-.8.1-17.7.3-37.5.5-34.9.4-61.8-.2-70.3-1.7-3.8-.6-4.2-.5-5.7 2.5m455-2c-.3.5-1.5 4.4-2.6 8.7-1.7 6.7-1.9 9.7-1.4 21.3.7 14.7.7 24.4-.1 54-.9 37.7-1.8 96.6-1.8 109.5.4 48.3.4 65.5-.2 101.5-.9 62.3-.7 85.1.8 86.5.7.6 3.2 1.9 5.4 2.9 4.2 1.8 4.2 1.8 7.3-.5 1.7-1.2 3.4-3.2 3.8-4.3 1-2.8 1.6-40.2 1.4-89.6 0-10.2 0-29.5.1-43 0-13.5 0-40.3-.1-59.5-.1-19.3.1-52.3.5-73.5.9-49.6.8-74-.3-81.5-.5-3.5-.5-9.4 0-14 1.3-12.4 1.1-15.7-1.5-17.7-2.5-1.9-10.3-2.5-11.3-.8"/><path d="M421.3 48.1c-1.1.4-2.5 1.4-2.9 2.1-1.3 2-3 44.2-2.2 52.8.5 4.1.8 15.8.8 26-.1 16.4-.9 83.1-1.2 87 0 .8.3 6 .7 11.5s.8 16.3.9 24 .5 14.5.9 15.2c1.6 2.6 6.4 2.5 10.6-.2 4.2-2.6 4.9-4.6 4.3-12-.5-5.8-1.6-36-1.6-42.5 0-4.1.1-15.2.1-24.5 0-9.4.1-18.8.1-21s.1-9.4.3-16c.4-11.3.5-12 2.4-11.7 7 .9 19 1.2 23.9.4 3.6-.6 8.9-.5 14.1.1l8.2 1 .1 6.1c.1 3.4.3 10.4.6 15.6.6 14 2 71.3 2.1 87.5 0 11.8.3 14.5 1.8 16.8 3.3 5.1 12.9 2.7 14.1-3.6.6-3.2.3-16.4-1-50.7-1-28.5-.7-54.1.8-55.6 1.2-1.1 9.3-1.8 17-1.5l2.7.1-.5 8.7c-.3 4.9 0 16.7.6 26.3.7 9.6 1.4 25.6 1.5 35.5.2 9.9.8 23.8 1.4 31 .6 7.1 1.1 14.2 1.1 15.8 0 3 3.9 7.7 6.5 7.7 2.3 0 7.6-4.1 8.5-6.7.5-1.1.4-5-.1-8.5-.5-3.4-1.1-16.2-1.4-28.3-.2-12.1-.9-29-1.5-37.5s-1.3-28-1.4-43.3l-.3-27.8 2.5-1.7c2.2-1.4 4.9-1.7 17.6-1.4 8.3.2 15.3.5 15.5.8.6.6.9 9.7 1.5 45.4.3 17.3.9 35.8 1.2 41 .4 5.2.7 23 .6 39.4-.1 16.5.3 30.6.7 31.4 1 1.8 3 2.4 8.5 2.6 3.9.1 4 .1 5.3-4.9 1-3.6 1.4-11.6 1.4-29-.1-22.2-.3-29.6-1.5-43.1-1.4-16 5.3 1 9.1 23.1.3 1.6.9 3.5 1.3 4 .5.6 1.6 4.2 2.4 8 4.8 20.8 14 38.6 20.8 40 5 1.1 3.9 2.3-2.7 3-5.5.6-6.9.5-8.5-1-2.4-2.2-3.4-1.4-3.6 2.7-.1 1.7-.8 4.9-1.5 7-.8 2.5-.9 4.2-.3 4.8 1.1 1.1 17.8 1.5 26.4.7 8.1-.8 37.4-1.9 62.5-2.4 26.6-.5 27.2-.5 55.5.2 21.8.5 53.2.7 67.5.4 3.9-.1 9-.1 11.5 0 2.5 0 7.2.1 10.5 0 5.1-.1 10.8.2 22 1.2 1.1.1 7.6-.1 14.5-.5 16.8-.9 26.7-.7 31.5.6 7.5 2.1 28 1.3 31-1.2 1.9-1.6 1.9-6-.1-8.8-1.4-2-2.4-2.2-9.8-2.2-4.5 0-8.5-.3-8.9-.6-.3-.4 0-1.8.7-3.3 2.5-4.8 2.9-12.3 3.3-55.1.2-23.4.6-47.9.8-54.5.6-17.1.5-20.8-.7-22.2-.6-.7-4.1-2.2-7.8-3.3-5.9-1.7-8.4-1.9-18.4-1.4l-11.6.7-2 4.4c-1.8 4.2-2 4.3-6.4 4.3-2.4 0-5.6-.4-7-1-1.5-.5-6.9-1.3-12.1-1.6-5.3-.4-9.8-1.1-10.1-1.6s0-5.6.7-11.4c1.5-11.9 1.5-11.8-5.8-14.7-3.6-1.4-8.5-2-20-2.4l-15.1-.6-2.1-2.8-2.2-2.9h-17.8c-12.4 0-19 .4-21.7 1.3-2.2.8-5.5 1.2-7.5 1-4.2-.6-5.4.6-5.4 5.2v3l-18.9-.4c-10.5-.1-19.9-.7-21.1-1.1-3.5-1.3-7.5 0-9 3-.8 1.5-1.2 2.9-1 3.2 1 1 1.7 27.7 1.9 75.8.1 28.4.5 52.1.9 52.7.3.5.9 4.6 1.2 8.9s.7 8.8.8 9.9c.1 1.5-.5 2.1-2.3 2.3-3.5.4-25.2 1.3-40.5 1.7l-13 .3 3-2.4c1.7-1.3 3.7-2.4 4.6-2.4 2.8 0 8.3-6.4 9.6-11.1 1.6-5.5 0-12.3-5-21.7-1-1.8-3.4-7.4-5.3-12.5-3.7-9.8-5.9-15.1-7.4-17.9-.6-1-1-2.8-1-4 0-2.6-3.2-14.3-6.1-22.8-1.9-5.3-2.2-6.5-3.5-14-.4-1.9-1-4-1.4-4.5-.5-.6-1-3.5-1.3-6.5-.6-6.8-2.6-16-3.8-18-.5-.8-1.7-2.8-2.7-4.4-4.5-7.5-3-7-23.8-7.1h-18.9l-.1-6c-.1-9.3-1.4-16.3-3.4-18.8-1.7-2.1-2.7-2.2-15.2-2.4-7.3-.1-15.7-.4-18.6-.7-3.4-.3-7.1.1-10.5 1.1-2.8.9-7.6 1.5-10.4 1.4-3.8-.2-5.4.1-5.7 1.1-.2.7-1.2 4-2.2 7.3-1.1 3.3-1.8 6.7-1.7 7.5 1 6.4 1.2 11 .4 11.5-1.4.8-17.3 2.2-19.3 1.7-1-.2-1.6-.7-1.4-1.1.3-.4-.1-4.1-.8-8.2l-1.3-7.4-4.4.3c-2.4.1-6.6.7-9.4 1.2-2.7.5-11.3.9-19 .8-7.8 0-15.2.4-16.7 1-1.4.6-5.1.8-8.2.5-5.5-.6-5.6-.7-5.7-3.7 0-1.7-.4-8.1-.8-14.1-.5-6.4-.4-11.5.1-12.2 1-1.3 13.7-2.4 32.5-2.7 7.3-.1 13.5-.5 13.9-.9s1.3-.2 2.1.4c.8.7 4.7 1.1 10.1.9 4.8-.1 9.6-.1 10.7 0 2.5.2 2.6.2 15.5 0 5.8-.1 12.5 0 14.9.3s5.4.2 6.6-.3 2.9-.4 4.1.3 7.2 1 16.4.8c23.1-.5 24.2-.5 29.8.7 3.8.9 5.9.9 7.4.1 2.4-1.3 63.8-1.6 78.3-.4 5.5.5 14.1.8 19 .8 5-.1 19.8-.2 33-.2 13.2-.1 28.1-.2 33-.3 16.9-.2 60.9.2 91.5.8 16.8.3 31.9.5 33.5.4 1.7 0 10.6-.3 19.8-.5 11.5-.3 17.9-.9 20-1.9 1.8-.8 4.6-1.8 6.2-2.3 2.4-.8 3.1-1.6 3.3-4.1.2-2.4-.1-3.4-1.5-3.9-1-.4-3.1-1.7-4.8-2.9-2.8-2.1-3.7-2.2-15.5-1.7-6.9.4-20.8.6-31 .6-10.2-.1-51.6-.2-92-.3s-84.1-.2-97-.2c-12.9.1-28.4 0-34.5 0-6-.1-21.1-.1-33.5 0h-96.5c-40.7 0-78.4.1-83.7.3-6.5.3-10.1 0-10.9-.8-1.1-1.1-1.5-15.5-.5-21.8.3-1.7.3-3.8 0-4.7-.7-2.5-7.5-5.7-10.1-4.7m367.5 84.8c1.1.7 1.3 3.4.7 13.2-.4 6.8-.9 14-1.1 15.9-2.1 17.7-1.8 92.3.5 108.4.6 3.8.8 7.4.5 7.8-1.1 1.7 2.9 4.8 6 4.8 6.3-.1 10.8-6.9 8.5-12.7-1.5-3.7-2.6-70.6-1.5-87.3.3-4.1.8-14.8 1.1-23.7s.8-16.9 1.1-17.8c.4-.8 1.6-1.7 2.8-2 2.4-.6 14.9-1 21.9-.7 4.3.2 4.8.4 4.2 2.2-.3 1.1-.8 23.1-1 48.9-.2 25.9-.6 47.4-.9 47.9-.8 1.3-1.1 42.6-.3 43.9.4.6-.3 1.3-1.6 1.7-3.9 1-53 1.8-57.2.9l-4-.9-.7-7.9c-.4-4.4-1-12.7-1.3-18.5-.2-5.8-.7-13.4-1.1-17-1.2-13-1.6-39.4-1.4-90.8l.1-14.3 3.2-1.4c3.5-1.6 19.4-2 21.5-.6m-49.9 10.6c4.6.3 8.8.8 9.3 1.1s.6 8.9.2 19.2c-.7 22.7-.7 31.2 0 42.2.3 4.7.8 16.4 1.1 26 1.2 34.4 2.2 46 4 48 2.6 2.8.4 3.4-11.9 3.1-6.1-.2-14-.4-17.6-.5-6.4-.1-6.5-.2-6-2.6.6-3.3.4-13.6-.4-18-.6-3.7-1.8-51.8-1.5-63.5.1-3.9.2-9.9.3-13.5.2-6.5-.9-26.7-1.9-35-.7-6.4 1.7-8.2 10-7.5 3.3.3 9.8.7 14.4 1m-130.8 10.1c.6.8 2.1 1.4 3.3 1.4 1.7 0 2.5.9 3.4 4.2 2.5 8.4 6.4 23.4 7.4 28.3.5 2.7 1.9 7.2 3 10 1.1 2.7 2.4 6.9 2.9 9.2 1 5.3 3.8 14.3 5 16.5.5 1 .9 2.5.9 3.4 0 1.7 1.2 4.7 6.1 15 1.6 3.4 2.9 6.6 2.9 7.2s1.1 2.3 2.4 3.9c5.7 6.8 4.2 9.9-6.4 13.2-8.7 2.7-10.5 2.6-12.9-.7-3-4.3-8.1-14.4-8.1-16.2 0-.9-1.1-4.4-2.4-7.8-1.4-3.4-2.8-8.8-3.2-12-.3-3.1-1-6.2-1.4-6.7-.4-.6-1.1-3-1.5-5.5s-3.6-13.1-7.1-23.7-6.4-19.7-6.4-20.3c0-1-2.9-7.8-5.8-13.7-2-4-1.4-4.7 5.7-6.5 6.1-1.6 10.5-1.3 12.2.8m298.8 9c1 .3 1.2 1.6.6 5.7-.4 2.8-.8 9-1 13.7s-.6 12.1-.9 16.5-.8 23.5-1.1 42.5-.8 35.7-1.1 37.2c-.4 2.1 0 3 2.1 4.4 4.2 2.7 3 3-11 2-4.3-.4-6.5-1.7-5.6-3.4.4-.9.7-8.7.6-17.2-.2-8.5.1-27.7.7-42.5.5-14.9 1-33.5 1.2-41.4.3-14.3.3-14.5 3-16.8 2.2-1.9 3.4-2.2 6.9-1.7 2.3.3 4.8.8 5.6 1m-46.9 6.3c1.9.6 6 1.3 9 1.6 5.3.7 7.5 1.9 6.3 3.8-.7 1.2-2.4 52.7-2.7 80.7l-.2 22.5 2.9 2.9c1.5 1.6 2.6 3.1 2.3 3.4-1 .9-7.9 1.1-20.4.5l-12.3-.6.6-24.1c.4-13.2.8-27 1.1-30.6.2-3.6.6-17.9.9-31.9.4-21.9.7-25.6 2.1-27.2 1.9-2.1 5.1-2.4 10.4-1M647.5 285c.3.5-.1 1-1 1s-1.3-.5-1-1c.3-.6.8-1 1-1s.7.4 1 1"/><path d="M384.8 275.6c-.3.2-26 .6-57.1.8s-56.9.6-57.4.9c-.4.3-4.2.8-8.3 1.1s-14 1.2-22 2.1c-8 .8-19.4 2-25.5 2.5-6 .5-12.6 1.2-14.5 1.5s-5.7.7-8.5 1c-8 .7-20.1 3.3-27.8 5.9-12.7 4.2-24 7.3-32.4 9.1-4.6.9-10.6 2.6-13.5 3.7s-8.1 2.8-11.4 3.8c-7.2 2.1-10.6 3.5-23.4 9.8-12.5 6.1-26 14-26 15.2 0 .6-1.5 2.7-3.3 4.7-1.9 2.1-4.7 6-6.2 8.7-5 8.5-3.3 18.9 2.6 17.1 2.1-.7 13.9-12 13.9-13.4 0-.5 1.9-2.9 4.3-5.4 2.9-3.1 7.8-6.3 15.2-10.1 6.1-3.1 11.4-5.6 11.8-5.6.5 0 2.3-.6 4-1.4 7.6-3.3 14.1-5.6 15.8-5.6 1 0 2-.4 2.3-.9.4-.5 2.5-1.2 4.8-1.6s4.9-1.1 5.8-1.5c2.4-1.2 11.7-3.7 20.3-5.5 4.3-.8 12.4-2.8 18-4.3 18.4-5.1 23.9-6.2 36.6-7.3 6.9-.6 13.1-1.5 13.7-2 .7-.6 2.9-.9 5-.8 2.2 0 7.3-.2 11.4-.6 4.1-.3 8.4-.6 9.5-.7 1.1 0 6.5-.4 12-.9s12.9-1.2 16.5-1.5 8.1-.8 10-1 10.5-.3 19-.2c19.8.1 74.9-.6 82.5-1.2 4.2-.3 34.8 1.1 42 2 5 .5 15.8 1.2 24 1.4 8.3.2 18.2.6 22 .9 3.9.3 13.1.9 20.5 1.2 8.7.4 14.3 1.2 15.6 2 1.2.8 5 1.7 8.4 2s8.7 1.4 11.8 2.5c3.1 1 8.4 2.6 11.7 3.4 8.2 2 23.6 7.3 24.9 8.6.5.5 2.1 1 3.4 1 8 0 34.8 16 46.5 27.7 15.3 15.3 24.6 40.2 26.4 70.8.5 8.8 2.3 17.4 5 23.2.9 2.1 2 4.6 2.4 5.5.6 1.3-.4 3.2-3.6 7-2.5 2.8-4.5 5.8-4.5 6.5s-.4 1.3-1 1.3c-1.1 0-7.3 11.2-9.1 16.5-.7 2.2-1.8 4.6-2.3 5.4-1 1.3-2.4 5.6-4.7 14.6-.6 2.2-1.4 6.9-1.9 10.5s-1.6 10.7-2.4 15.7c-1 5.6-1.3 11.2-.9 14 .3 2.7.6 5.9.5 7.3 0 1.4.4 3.3 1 4.4 1 1.9.7 1.9-10.8 1.1-6.6-.4-13.9-.9-16.4-1.1-2.5-.3-14.2-.5-26-.5-16.8-.1-22.9.2-28 1.5-6.2 1.5-13.2 1.7-14.6.3-1-1 .6-7.8 1.9-8.3 2-.7 22.8-1.1 23.2-.3.3.3 4 .6 8.4.6h8.1l3.3-4.3c3.6-4.6 3.9-8.1 1.1-10.5-1-.8-8.5-1.2-23.6-1.3l-22.3-.1-.1-6.5c-.1-3.6-.4-7.9-.8-9.6-.6-2.9-.4-3.4 3.1-5.5 5.3-3.3 16.3-7.1 24.3-8.4 1.4-.2 4.5-.8 7-1.4 2.5-.5 6.2-1.2 8.3-1.6 3.2-.5 4.1-1.2 5.3-4.2.8-1.9 1.4-4.9 1.2-6.7-.3-3-.5-3.1-5.9-3.8-6-.7-23.5 2.4-39.7 7.1-4 1.2-7.7 1.9-8.1 1.7-.4-.3-1.4-2.4-2.1-4.8-.8-2.4-2.2-5.3-3.1-6.6-1-1.3-2.1-3.7-2.4-5.5-.9-4.3-8.5-15.9-16.7-25.8-7.5-8.8-8.7-11.6-6.9-16.4 2.4-6.8 1.4-14.4-4.4-32.1-3.1-9.2-5.4-17.3-5.1-18s-.1-1.8-.9-2.4c-.7-.6-1.5-2.3-1.8-3.8s-1.2-5.9-2-9.7c-.8-3.9-2.8-9.6-4.6-12.9-2.5-4.7-4.1-6.3-8-8.3-3.2-1.7-5.8-2.4-7.3-2-3 .8-15 9.9-17 12.9-1.6 2.3-5.1 6.6-12.3 14.7-6.2 7-15.1 19.2-16.9 23.1-.9 1.9-2.6 4.9-3.9 6.6-1.2 1.8-3.1 4.7-4.2 6.5-1.1 1.9-2.9 5-4.1 6.9l-2.1 3.5-6.4-.5c-14.7-.9-50.7-.4-57.4.8-3.8.7-8.3 1.3-10 1.3-1.6.1-4.1.5-5.5.9-1.4.5-6.1 1.6-10.5 2.6-4.4.9-10.1 2.8-12.7 4.1-2.6 1.2-5.4 2-6.2 1.7s-3.9-2.9-6.9-5.7c-2.9-2.9-8.7-8.4-12.8-12.3s-13.5-11.9-20.9-17.7c-7.4-5.9-15-11.8-16.7-13.3-3.7-2.9-9.1-4-15.6-3-3.7.6-4.8 1.3-7.6 5.2-1.8 2.6-3.4 6.4-3.8 8.7-.3 2.3-.9 5-1.4 5.9-1.4 2.7-4.7 24.2-5.4 35.3-1.6 26.3-.1 46.5 3.3 45.7 1.2-.2 1.7 2.3 1.3 6.3-.1 1.1-1.3 3.1-2.6 4.5-1.4 1.4-2.5 3.2-2.5 3.8 0 1.5-5.8 18.9-7.2 21.5-1.9 3.7-4.8 28.4-4.4 37.1.3 4.7.2 8.7-.2 9-.9.5-8.1 1.3-20.2 2.1-5.2.4-10.4.8-11.5 1-2.8.5-18.8 6-21.4 7.4-2.9 1.6-2.7 6.7.3 10.5 2.2 2.6 2.7 2.8 5.3 1.8 3.9-1.6 14.2-4.1 24.4-6.1 6.4-1.3 10.6-1.5 16.5-1 4.3.4 8.1.6 8.5.3.9-.5 3.9 8.1 3.9 11 0 1.2.7 3.4 1.6 5.1 1.8 3.5 1.1 7.5-1.4 7.5-1 0-2.2.4-2.7.9-.6.5-2.7 1.4-4.8 2.1-3.4 1.1-13.3 6.1-17.7 9-.8.5-2.9 1.6-4.6 2.4-3.5 1.5-5.7 6-5.2 10.2.3 2.5.8 2.9 3.8 3.2 3.8.3 15.7-3.7 20.1-6.9 1.5-1 3.1-1.9 3.6-1.9.4 0 3.5-1.3 6.8-2.9 8.8-4.3 11.5-4.8 13.2-2.5 3.7 5.1 14.3 16 18 18.6 2.4 1.6 4.3 3.5 4.3 4.2 0 .8-3.5 3.2-7.7 5.4-4.3 2.2-10.3 5.6-13.3 7.6s-6 3.6-6.7 3.6c-.6 0-2.5 1.1-4.1 2.5-1.7 1.4-3.4 2.5-4 2.5-.5 0-1.6.7-2.3 1.7-.8.9-5.6 4.9-10.7 9s-9.7 8.5-10.2 9.8c-1.4 3.6-3.5 4.2-17 4.3-11.2.1-23.6.9-28.2 1.8-.9.1-6.8.5-13 .8-16.1.8-36.2 3.8-45.4 6.6-1.7.6-3.9 1-5 1-1.7 0-8.4 6.8-8.4 8.6 0 .4 1.1 2.2 2.6 4.1 2.7 3.6 4.5 4 8.5 1.9 3.9-2 13.4-3.9 26.4-5.2 5.8-.5 11-1.1 22-2.5 7.3-.9 13.6-1.3 38.3-2.3 4.5-.1 8.5 0 8.7.4s-.2 2.8-1 5.5c-1.9 6.2-1.9 17.8 0 24.2.8 2.7 2.8 6.8 4.5 9.1 1.6 2.3 3 4.5 3 5 0 .4 2.1 2.4 4.7 4.4 9.7 7.2 17.4 9.2 34.8 9.1 12.1-.1 13.6-.4 20.9-3.3 8.9-3.5 14.5-7.1 23.1-14.7 6.6-5.9 8-6.8 17.3-11.3 9.7-4.7 16.2-6 33.2-6.4 24.5-.7 38.9 1.7 48.5 7.9 1.7 1 3.1 2 3.3 2.1.1 0-.2 1.3-.7 2.7s-4 4.7-7.8 7.4c-9.4 6.7-21.7 19.6-24.7 25.9-1.6 3.3-2.8 8-3.2 12.7-.6 6.7-.4 8 1.9 13 3 6.7 12.2 16 19.8 20.2l5.4 3 17.1-.1c9.3-.1 19.2-.4 21.8-.8 4.8-.8 19.5-7.3 22.6-10.1.9-.8 2-1.5 2.3-1.5.8 0 12.1-7.4 19.7-12.9 3-2.2 7.5-5.2 10-6.7s5.4-3.5 6.5-4.4 8.8-5.2 17-9.5c8.3-4.3 17.4-9.6 20.2-11.8 5.8-4.3 6.2-4.4 17.8-3.1 4.4.4 19.1.8 32.7.8 27.5 0 26.8-.2 24.8 6.6-1.6 5.6-1.2 10.6 1.5 17.3 3.6 8.8 10.3 13.8 23.5 17.5 8.6 2.3 25.5 1.7 35.5-1.3 13.9-4.2 12.8-4.9 14 8.7.8 9.7 1.4 12.1 3.3 14.5 1.2 1.5 2.6 3.7 3.1 4.9 1 2.3 8.4 7.4 14.2 9.8 13.4 5.6 36.4 2.4 45-6.2 1-.9 4.3-3.7 7.4-6.2 11.3-9.1 15.9-13.3 19.5-17.9 5.1-6.4 16.3-16.8 24-22.1 3.6-2.5 11.9-9.9 18.6-16.5 11.2-11.1 12.3-12.6 15.4-20.1 3.2-7.9 3.4-8.2 7.1-8.8 2-.3 5.7-.4 8-.1 2.4.3 6.4.7 8.9.9 11.7 1.1 20.9 5.1 25.3 11 7.2 9.3 9.3 16.8 7.5 26.8-.6 3.5-1.6 7-2.3 7.8s-2 3.1-3 5c-.9 1.9-4.3 6.2-7.5 9.5-3.1 3.3-7.7 8.9-10.1 12.4l-4.4 6.4-.3 14.3-.3 14.3 3.2 5.5c3.9 7.1 11.2 12.8 19.7 15.7 5.4 1.9 8.6 2.3 16.4 2.1 5.3-.1 10.8-.6 12.3-1.2 4.8-1.8 5.6.5 5.3 15.7-.2 7.3-.7 13.6-1.3 14.2-.5.5-4.5 1.2-8.7 1.5-4.3.4-9.9 1-12.5 1.5-2.7.5-7.7 1.5-11.3 2.1s-8.1 1.5-10 2c-3.5.9-24.7 3.7-33 4.4-2.5.2-6.7.9-9.4 1.5-6.5 1.5-32.2 4.9-41.8 5.5-4.2.3-9.4.9-11.5 1.5-2.1.5-7.8 1.4-12.8 2-4.9.6-10.4 1.5-12.2 2s-7.2 1-12.1 1c-4.8 0-12.8.8-17.7 1.7-5 .9-10.9 1.6-13.3 1.5-2.3 0-12.5 1.1-22.5 2.6-10 1.4-20 2.7-22.2 2.8s-5.8.5-8 .9-7.1.9-11 1.1c-9 .6-14.8 1.3-21 2.5-6.9 1.3-19.8 3.1-24.9 3.5-6.4.5-13.7 1.5-18.1 2.6-2.2.6-6.7 1.1-10 1.3-12.4.7-38 3.7-42.9 5.1-2.8.7-7.8 1.7-11.1 2s-10.3 1.2-15.5 2-14.2 1.6-19.9 2c-5.7.3-10.7.8-11.1 1s-10.3 1.3-22.1 2.4c-11.8 1.2-24.1 2.5-27.4 3.1-6.5 1.2-11.8 1.6-32.5 3-30.7 2-41 2.9-51.5 4.6-7.1 1.1-15.6 1.6-24 1.5-17.8-.3-22.8-.3-47 .4-18.6.6-31.6-.2-34.5-2-.4-.2.1-3.7 1.2-7.7 2.8-11.2 2.9-41.6 0-56.3-2.7-14.2-2.7-17.2-.2-18.5 1.9-1 5.6-1.4 10-1 .8.1 12.3-.1 25.6-.4 18.7-.5 27.4-1.1 39-3 8.2-1.4 20.1-3 26.4-3.6s12.4-1.5 13.5-2c1.8-.8 11-2.1 14.3-2 13.6.2 24.1-.4 28.9-1.6 3-.8 7.3-1.4 9.6-1.4s5.8-.5 7.7-1c1.9-.6 7.8-1.3 13-1.6 11.2-.6 15.8-1 18.5-1.7 1.2-.3 6.6-1 12-1.6 5.5-.7 13.4-1.6 17.5-2.2 4.1-.5 10-1.2 13-1.5 8.6-.7 12.5-1.3 17.6-2.4 2.6-.6 6.8-1 9.3-1 4.9.2 29.9-1.8 34.1-2.6 1.4-.3 5.9-.9 10-1.4s11.6-1.6 16.5-2.4c5-.8 11.3-1.5 14.2-1.6 2.9 0 7.4-.5 10-1 4.5-.9 17.6-2.4 31.8-3.6 12.1-1 29.8-4.4 34.3-6.7 5.8-2.9 7-4.7 5.4-8.2-1-2.2-1.7-2.6-3.8-2.1-1.4.4-3.1.2-3.8-.3-2.3-1.9-31.8-.6-41.1 1.9-4.2 1.1-17.6 2.7-33.5 4-5.2.4-11.4 1.3-13.8 1.9s-4.7.9-5.1.7c-.4-.3-4.5.2-9 .9-4.6.8-8.6 1.3-9.1 1-.4-.2-2.2 0-4 .5s-10.1 1.2-18.4 1.5-18 .9-21.6 1.5-9.9 1.5-14 2.1-10.4 1.5-14 2c-8.1 1.2-10.5 1.5-25.5 2.8-6.6.6-13.3 1.4-14.8 1.7s-4.9.7-7.5.9c-9 .6-16.8 1.6-23.2 3-3.6.8-13.7 1.9-22.5 2.5-21.3 1.4-27.4 1.9-31 2.5-10.4 1.6-25.5 3.8-28.5 4-1.9.2-8.2 1.3-13.9 2.5-6.8 1.4-13.7 2.1-20 2-17.4-.2-54.5.8-58.2 1.5-3.5.7-3.6.6-7.7-5.6-4.4-6.7-15.2-17.1-23.6-22.9-4.8-3.2-25.2-13.6-31.1-15.8-1.6-.6-5.9-2.2-9.5-3.6-3.6-1.3-7.6-2.7-9-3s-5.9-1.5-10-2.6c-9.9-2.7-21.4-3.7-23.5-2-1.7 1.4-2 7.2-.5 10 1.1 2 4.9 3.5 11.9 4.5 2.4.4 8.1 2.1 12.5 3.7 4.5 1.7 11.7 4.3 16.2 5.8 4.4 1.6 12.1 5.4 17.2 8.4 5 3.1 9.4 5.6 9.7 5.6.9 0 10.4 6.8 15.7 11.1 5.6 4.7 13 16.6 15.2 24.4 1.5 5 3.5 15.3 4.2 21 .8 6.1 2.2 39.2 2 44.1-.3 5.3-2.2 12.2-3.7 13.8-.5.6-.9 2.2-.9 3.7 0 2.3-.8 3.1-5.3 5.2-5.5 2.5-16.6 5.3-25.1 6.2-2.8.4-5.4.9-5.8 1.1-.5.3-8 .5-16.8.5-15.3-.1-16 0-17.5 2.1-6.2 9 7.1 13.6 33.5 11.5 13.6-1.1 33.4-4.3 37.6-6.2 2.1-.9 5.2-2.3 6.8-3 1.8-.8 5.1-1.1 9-.7 14 1.2 91.7.2 102.6-1.4 1.9-.3 8.2-1 14-1.5s12.1-1.1 14-1.4c13.1-1.4 29.5-2.4 31.5-1.9 1.2.3 4.9 0 8.1-.6 3.3-.7 8.8-1.4 12.4-1.5 3.6-.2 7.9-.6 9.5-.9 1.7-.3 6.6-.8 11-1.1 9.1-.7 11.2-.9 25-3.1 8.8-1.3 16.6-2.1 38.7-3.8 3.1-.2 6.1-.7 6.7-1 1.1-.7 3.7-1.2 14.7-2.5 4-.5 7.7-1.1 8.2-1.5.6-.3 4.3-.8 8.3-1.1 3.9-.3 7.6-.8 8-1.1.5-.3 6.1-.7 12.6-1 6.4-.3 12-.7 12.4-.9.9-.6 13.1-2.5 19.9-3.1 3-.3 10.2-1.1 16-1.9 5.8-.7 11.2-1.4 12-1.4 3-.1 10.6-1.3 18-2.7 7.9-1.5 8.9-1.7 28.2-3.4 6.8-.6 13.2-1.4 14.3-1.7 1.1-.4 4-.8 6.5-.9 5.7-.4 30.5-3.1 34.5-3.8 3.2-.5 11.5-1.3 23.5-2 6.6-.5 28.9-3.9 33-5.1.8-.2 6.9-.9 13.5-1.5 6.6-.5 13.5-1.2 15.3-1.5 10.1-1.3 12.2-1.7 17-2.5 2.8-.6 7.6-1.5 10.5-2 8.5-1.7 8.9-1.7 15.7-2.6 3.6-.5 7.2-.8 8-.7 2 .3 14.3-1.4 25-3.3 4.7-.8 10.3-1.7 12.5-1.9 2.2-.3 8.1-1.1 13-2 5-.8 9.5-1.5 10.1-1.5.7 0 1.2 4.3 1.3 12.2.4 16.1.4 15.7-.3 20.3-.3 2.2-.9 10-1.2 17.3-.6 12.9-.5 13.4 1.7 15.8 1.2 1.3 3.9 2.8 5.8 3.4 3.3.9 3.7.8 6.1-2.2 1.4-1.8 2.6-4.6 2.7-6.3.1-1.6.6-6.2 1.2-10.2.6-3.9 1.3-22.4 1.6-41 .2-18.6.8-37.4 1.2-41.8s.7-8.7.6-9.5c-.3-1.9-.6-16.1-.4-17.5 0-.6 1.3-2.3 2.7-3.8 13.7-14.8 24.8-33.3 28.5-47.4 1.9-7.6 3.6-24.7 3.9-41 0-5.3-.6-11.3-1.9-16.8-1.2-4.8-2.1-9.3-2.1-10.1 0-1.4-2.3-7-6.8-16.4-6.1-12.9-31.8-37-45.6-42.7-14.2-5.9-18-7.2-25-8.8-3.3-.7-9.9-2.5-14.6-3.8-11.1-3.2-20.2-5.2-21.8-4.9-.8.2-1.9-.1-2.5-.6-.7-.6-3.4-1.3-6.2-1.7-10.3-1.3-10.3-1.4-12.5-6.3-1.2-2.5-2.7-5.3-3.5-6.2-.7-.8-1.7-2.7-2-4.3-.4-1.5-1.2-3.1-1.9-3.5-1.5-.9-4.6-5.8-4.6-7.3 0-1.3-2.5-4.6-11.5-15.1-6.2-7.1-14.3-14-30.4-25.6-5.6-4.1-18.7-10.4-26.1-12.7-3-.9-8-2.7-11-4-5.8-2.5-35-11-41-12-2.8-.4-3.8-1.2-4.7-3.6-.8-1.9-.9-3.8-.4-4.8.5-.9.9-4.8.9-8.6 0-3.9.5-9.5 1.2-12.5.6-3 1.7-10 2.4-15.5.8-5.6 2.3-12.2 3.6-15 8.1-18.2 11.3-23.4 19.6-32.1 8.8-9.1 13.8-11.9 25.4-14.6 2.5-.5 6.3-1.4 8.5-1.9 10.9-2.5 23.7-3.7 32.1-3 3.9.3 10.2.4 14 .1 8.8-.6 36.2 1.5 42.8 3.4 5.3 1.5 10 2.1 22.1 3.1 3.9.4 8.4.8 10 1.1 1.7.2 5.7.4 8.9.5 3.2 0 7.1.5 8.5 1.1s4.6 1.2 7.1 1.3c2.5.2 5.2.6 6 .9s3.8.8 6.5 1.1c8.9.9 18.6 2.4 21.9 3.4 3.5 1.1 12.9 3.1 29.1 6.2 12.5 2.4 22.5 5.8 22.5 7.6 0 .7-1.7 1.5-3.7 1.8-7 1-20.3 8.6-30.4 17.2-5.3 4.5-10.7 9.5-11.9 11-13.6 17.4-16.9 25-22.3 52.3-.8 4.1-1.5 10.4-1.6 14-.2 11.2-2.2 60.2-2.8 67-.3 3.6 0 9.6.7 13.4.7 3.9 1.3 9.3 1.4 12 .2 6.3 1 7.6 4.5 7.6 3.3 0 9.6-2.5 10.7-4.1.4-.7.8-11.4 1-23.8.5-43.5 1.3-70.7 2.3-77.1 3.6-23.5 7.3-33.6 16.6-45.1 9.8-12.2 18.7-19.7 29.3-24.6 6.7-3.1 7.9-3.4 17.9-3.4 5.9 0 11.3-.5 12-1 1.6-1.4 9.4 5.8 12.2 11.1 3.2 6.1 8.2 24.5 8.2 30.4.1 5.7-.1 7.2-3.2 20.6-2.3 9.8-9.5 25.3-13.6 29.2-1.5 1.5-4.7 4.4-7 6.4-2.8 2.3-4.3 4.5-4.3 6 0 1.3-.8 2.7-1.7 3.3-1.7.9-1.8 3.6-2 32.8-.1 17.5-.6 38.5-1.1 46.8-.5 8.2-.7 38.8-.5 68 .2 29.1-.1 63.1-.7 75.5-.5 12.4-1.2 34.2-1.5 48.6-.2 14.3-.6 26.7-.9 27.5-.3.7-.7 7.4-1 14.7s-.7 13.6-1 14.1c-.3.4-.7 7.3-1 15.4-.5 14.3-.4 14.8 1.7 16.1 9.5 6.2 14.4.9 15.2-16.3.5-10.1 2.6-38.7 3.1-43.1.3-1.9.7-18.1.9-36 .3-17.9.7-34.8 1-37.5.5-5 1.4-35.3 1.5-54.2.1-5.6-.4-12-1-14.3-.6-2.2-.8-4.5-.5-5 .6-.9 2-26.2 1.7-31-.4-7.5-.1-41.9.4-44.5.3-1.7.7-17.6.7-35.5.2-37.1-.1-35.5 9.1-43.4 4.8-4.1 6.5-6.6 12.4-18.4 7.1-14.3 8.7-19.3 10-30.2 1.3-12.2.7-22.9-2.1-33.9-1.5-5.7-2.7-11.2-2.7-12.2 0-6.8-19-28.8-30.6-35.5-2.7-1.5-5.6-3.3-6.5-4.1-2.8-2.3-20.4-9-29.5-11.2-10.5-2.5-42.7-8.6-53.4-10.2-4.1-.6-9.5-1.7-12-2.5s-6.1-1.4-8.1-1.4c-1.9 0-8.2-.6-14-1.4-5.7-.8-15.7-1.7-22.3-2.1-6.5-.3-13.5-1.2-15.5-2-9.2-3.5-62.3-6.3-79.1-4.2-3.6.5-8.3 1.1-10.5 1.4s-5.8.6-8 .7-5.6.9-7.5 1.7c-5.1 2.3-10.3 3.9-12.7 3.9-1.1 0-3.2.9-4.7 2.1-1.5 1.1-3.3 1.8-4.1 1.5s-1.7-.1-2 .4c-.4.6-1 1-1.4 1-.7 0-2.7-15-3.7-27-.2-1.9-.6-6.7-.9-10.5-1.7-18.9-9.4-39.1-20.7-53.6-1.5-2-2.8-4.1-2.8-4.7 0-1.6-14.7-15.8-20.2-19.5-6.3-4.1-20.4-12.1-27.3-15.4-2.7-1.3-5.8-2.8-6.7-3.3-1-.6-2.7-1-3.7-1-1.8 0-3.1-.4-9.6-3.1-1.1-.4-4-1.1-6.5-1.5-2.4-.3-5.1-1-6-1.5-2.7-1.5-26.9-9.1-29.7-9.4-1.6-.1-5.7-1-9.3-1.8-3.6-.9-12.6-1.8-20-2.1s-16-.7-19-1.1c-3-.3-14.7-.7-26-.9s-22.5-.9-25-1.4c-2.5-.6-11.9-1.1-20.9-1.1-9-.1-16.7-.3-17.1-.6-.4-.2-.9-.2-1.2.1m68.5 94c2.5 7.9 5.5 18.5 7.2 25.9.7 3.3 2 7.6 2.8 9.5s1.7 6.6 2.1 10.4 1.2 7.8 1.7 8.8c.8 1.4.8 3.9 0 8.1-1.4 8.6-.6 11.2 5.5 17.6 3 3 5.4 5.9 5.4 6.3s1.8 2.8 4 5.3 4 5.1 4 5.6c0 .6 1.6 3.7 3.5 7 3.9 6.6 7.8 18.4 7 20.9-.3 1-2.7 2.7-5.3 3.8-6.8 3.1-18.7 10.7-18.6 12.1.1.6.2 2 .3 3.1 0 1.1 1.6 2.9 3.4 4 4 2.6 12.5 2 19.2-1.2 2.4-1.2 4.8-1.9 5.2-1.5.3.4 1 3.1 1.4 6 .5 4.1.4 5.5-.9 6.4-.8.7-1.9 1-2.3.7-1.5-.9-24.7 3.9-26.9 5.6-2.7 2-2.2 5.8 1.2 9.2 2 2 2.8 2 13.9 1.5 6.8-.3 12.1-.1 12.5.4.3.5.1 2.4-.5 4.2-.6 1.7-1.7 5.2-2.5 7.7-2.4 7.5-3.8 10.2-9.5 17.5-7.5 9.5-9.3 11.2-18.8 17.4-6.6 4.3-8.3 6-8.9 8.5-.3 1.7-1.1 3.7-1.7 4.4-2 2.5 1.1 3.7 8.9 3.6 7.4-.1 7.6-.2 16.1-6 9.9-6.8 24.5-21.6 27.4-27.9 3.2-6.8 4.5-7.5 15.6-8.6 11.9-1.1 33.7-2.1 45.3-2.1 13.5.1 53.3 2.2 56 3.1 1.4.4 4.7.9 7.4 1s5.8.7 6.8 1.2 3.5 1.2 5.5 1.4c5 .6 16.5 4 21.7 6.3 5.8 2.6 15 6.2 16 6.2 1.8 0 23.3 11.2 25.6 13.3 1.4 1.3 4.9 4.2 7.8 6.5 9.9 7.7 19.2 16.5 21.4 20.1 1.2 2 4.2 6.2 6.5 9.5 2.4 3.2 4.3 6.5 4.3 7.3s1.8 5.2 3.9 9.6c9.8 20.5 13.3 41.3 9.5 56.1-2.8 11.1-9.6 27-13.8 32.6-6.5 8.6-17.1 18.2-32.6 29.6-4.2 3.1-12.1 10.5-21.3 20.1-4.3 4.5-9.8 9.4-12.3 10.8-2.4 1.4-4.7 3.1-5.1 3.9-1 1.8-11.5 7.6-13.6 7.6s-2.2-3.3-.2-11.9c1.8-7.6 1-9.6-3.9-8.5-3.6.7-11.6 8-11.6 10.6 0 3-2.3 6.8-4.1 6.8-1 0-2.7-1.2-3.8-2.6-2.7-3.4-2.9-15.3-.4-21.6 3.5-8.9 17.3-27 23.5-30.8 1.5-.9 5.6-4.3 9.2-7.7 6-5.6 6.6-6.5 6.6-10.2 0-2.2-.4-5.1-.9-6.4-1.2-3.2-7.3-6.7-11.6-6.7-1.8 0-4.6-.7-6.2-1.5-4.6-2.4-9.7-4.3-11.3-4.3-2.3.1-10.1-2.2-13.5-4-1.6-.8-5.7-3.8-9-6.6-3.3-2.9-7.2-6-8.8-6.9-2.4-1.6-5.9-6-9.4-12.1-5.4-9.3-7.2-20.1-5.2-30.4 1.3-6.4.5-7.8-5.2-8.7-3.3-.6-4.5-.3-6.3 1.4-8.9 8.3-6.7 34.7 4.1 49.6 1.2 1.6 3.7 5.8 5.7 9.2l3.5 6.3-3.7.9c-2 .5-7.1 1.7-11.3 2.5-4.2.9-8.5 1.9-9.5 2.2-4.8 1.7-11.3 4.9-15.4 7.4-3.4 2.2-6.6 3.1-12.8 3.9-9.3 1.2-59.7.9-62.4-.3-2.2-1-1.8-4 1.4-10.2 5.3-10.1 4.4-16.4-2.3-16.4-3.8 0-7.8 3.7-13 12.1-2.4 3.9-5.2 7.9-6.1 8.8-1 .8-1.8 2.1-1.8 2.8 0 2.4-15.3 12.8-41.5 28.3-9.2 5.4-16.6 10.3-29 19-12.8 9.1-22.9 14-24.8 12.1-.6-.6-.1-3.5 1.3-7.5 2.9-8.7 2.5-11-1.9-11.4-2.8-.3-4.1.3-7.3 3.5-4.6 4.4-6.7 8-8.3 14.3-1 3.9-1.5 4.5-4 4.8-1.6.2-4.8.1-7.2-.3-4.1-.6-4.2-.7-3.6-3.8.3-1.8 2.1-4.9 3.9-7 3.1-3.7 6-11.9 4.9-13.8-.9-1.4-6.7-1.1-9.5.6-1.4.8-3.4 1.8-4.6 2.4-1.1.5-3.3 2.4-4.9 4.3-3.7 4.4-6 5.9-7.9 5.2-2.5-.9-2-9.1.7-13.4 4.8-7.7 24.6-22.9 41.7-32.2 12-6.5 14.5-8 18.5-11.3 2.2-1.7 6-4.5 8.5-6 6.5-4.1 16.9-15.2 19.6-21 3.2-6.7 3.2-12.8 0-14.8-2.1-1.4-2.7-1.4-7.3.8-4 1.8-5.3 3-6.2 5.7-1.9 5.8-9.6 13.4-19.7 19.4l-9.5 5.7-7.8-.6c-5.2-.4-9-1.3-11.3-2.6-1.9-1.2-9.5-4.1-16.9-6.5-10.3-3.4-15.4-4.5-22.1-4.9-6.8-.4-9.3-.9-11.4-2.6-1.4-1.1-3.1-1.7-3.8-1.3-.6.4-2.4.7-4.1.8-16.1.5-22.2 1.4-32.7 4.7-2.7.8-4.8 1.3-4.8 1.1 0-1.3-22.5 12-26 15.3-8.6 8.3-19 14.4-26.4 15.6-5.3.8-6.6-.5-6.6-6.5 0-4.1.6-5.7 3.5-9.5 5.5-7.2 4.4-10.3-3.1-8.8-5.5 1-12.5 8.1-14.8 14.9-2.7 8-6.2 8.4-12 1.6-4.8-5.7-5.9-14.3-2.7-21.3 1.1-2.3 2.7-5.9 3.5-8 1.8-4.5 10.1-14.4 13.7-16.2 1.4-.8 4.7-3.3 7.5-5.8 2.7-2.4 6.9-5.5 9.4-6.9 5.3-3 14.5-8.4 18-10.8 1.4-.8 5.4-2.9 9-4.4 3.6-1.6 7.9-3.9 9.5-5.1l3.1-2.3 5.9 2c3.3 1.1 6.7 2.2 7.5 2.5s2.3.8 3.3 1 4 1.2 6.7 2.4c5.8 2.5 13.7 2.2 19-.8 3.1-1.7 3.5-2.5 3.8-6.6.3-4.2.1-4.7-2.7-6.2-1.7-.8-3.1-1.4-3.1-1.1 0 .4-4.9-.9-18.7-4.8-2.8-.8-6.9-2.4-9-3.5s-6.7-3.4-10.3-5.1c-6.8-3.2-14.9-8.6-20.2-13.6-3.1-2.9-7-10.2-6.2-11.5.2-.4 3.5-.5 7.3-.3 6.2.3 7.3 0 11.5-2.6 4.2-2.7 4.6-3.3 4.6-6.9 0-2.1-.6-4.3-1.3-4.9-2.1-1.8-20.4-.8-25.5 1.3-2.5 1-4.7 1.4-5.1.9-1.6-1.8-4.4-11.2-3.8-12.8.4-1.1 1.5-1.4 3.4-1.1 1.5.3 6.2.6 10.4.8s8 .6 8.5.9c4.8 2.8 12.7.6 15.1-4.2 1.4-2.9 1.1-3.5-3-5.7-5.5-2.8-12.8-4.3-24.4-5-6.1-.3-11.6-.9-12.2-1.3-.6-.3-1.9-2.9-2.9-5.8-1.5-4.1-1.7-6.4-1.1-11.4.5-3.5.6-7.1.3-8-1-3.3 1.6-17.9 4.1-23.3 1.4-3.1 2.5-6.2 2.5-6.9s1.3-3.1 2.9-5.2c4.8-6.8 7-17.4 4.1-20.9-3.2-3.9-3.8-15.8-2.1-46.5.8-16.1 1.4-20.6 3.2-25.5 1.3-3.3 2.3-6.1 2.5-6.3.8-1.3 6.7 2 11.8 6.7 3.3 3.1 7.7 6.9 9.6 8.5 1.9 1.5 9.2 8.4 16.1 15.2 8.8 8.7 12.8 13.4 13.3 15.4.7 3.9 5.8 7.1 10 6.3 1.7-.3 5.8-1.7 9.1-3 14-5.9 31.2-10.8 41.5-12 1.9-.2 6.7-.8 10.5-1.3 7.8-1 32.6-1.5 36.5-.6 2.4.5 5.6.9 19 2.2 3.6.3 6.7.8 6.9 1 .8.7 4.1-2.9 4.1-4.4 0-.9.9-2.5 1.9-3.6 1.1-1.2 3.1-4.4 4.6-7.1 1.6-2.8 4.7-8.1 7.1-11.8s4.4-7 4.4-7.3c0-.5 9.7-14.6 14.8-21.4 6.2-8.2 11.5-14.1 12.6-13.7.6.2 1.9 3 2.9 6.3m346.2 297.9c5 1.3 13.1 3.7 18 5.3 5 1.6 10.5 3.3 12.2 3.7 1.8.3 3.5 1.1 3.8 1.6.4.5 1.8.9 3.2.9 8.2 0 38 24.1 46 37.3 7.2 11.9 10.9 32.8 9.3 52.7-1.2 14.9-2.4 21.1-5.4 27.6-1.4 3.1-2.6 6.4-2.6 7.3s-.9 2.7-2 4.1-2 2.8-2 3.3c0 1.2-10.6 15-13.6 17.8-7 6.3-16.6 11.4-24.6 13-11.5 2.3-16.5.8-22.4-6.9-3.4-4.4-3.6-5-3-10.2 1.2-11.2 3.6-16.8 10.6-24.9 9.4-10.9 14-17.1 14-19 0-1 .4-2.1.9-2.6 1.4-1.6 4.1-15 4.1-20.7 0-10.4-4.6-20.8-13.1-30.1-8.1-8.9-19.5-14.6-32.4-16.1-2.7-.3-8-1.3-11.7-2.2l-6.8-1.7-.1-9.1c-.1-5-.1-10.5 0-12.1.1-1.7-.5-6.6-1.4-11-2.3-12.1-2.5-11.6 4.3-10.9 3.1.3 9.8 1.6 14.7 2.9m-157.6 64.4c3 .6 6.3 1.9 7.4 2.9 1.8 1.9 1.8 2.1.2 4.5-.9 1.4-2.7 3.2-4 4.1-1.2.8-5.1 5.2-8.5 9.8-5.5 7.3-6.8 8.4-10.6 9.4-2.4.6-5.2 1.8-6.3 2.8-1 .9-3.1 2.1-4.7 2.6-1.6.4-5.3 1.8-8.2 2.9-6.1 2.3-19.4 4.6-21.5 3.8-1.9-.7-1-5.3 1.7-9 1.6-2.2 1.8-3.3 1-5.5-2-5.7-13.2-3.1-20.1 4.6-3.2 3.6-3.3 3.6-4.8 1.8-2.5-3.2-1.9-9.7 1.3-13.9 3.5-4.6 14-11.7 21.7-14.6 3.3-1.2 7.2-2.9 8.7-3.7 1.4-.8 4.1-1.4 6-1.4 1.8 0 8.5-.6 14.8-1.4 12.2-1.5 17.1-1.4 25.9.3"/><path d="M436.5 489.6c-5.5 4.9-10.7 7.4-15.4 7.4-3.1 0-5-.9-8.9-3.9-4.4-3.5-5.2-3.8-7.3-2.7-2 1-2.4 2-2.7 6.8-.3 5.3-.1 5.9 3.4 9.8 5.8 6.3 10.8 8.3 20.2 7.9 6.8-.3 8.5-.8 12.1-3.4 2.4-1.6 5.6-5.2 7.2-8 2.5-4.2 2.8-5.7 2.3-9.5-1.3-9.1-4.3-10.3-10.9-4.4M312.7 507c-1.4 1.1-3.1 3.6-3.7 5.4-2.6 7.8-18.8 9.6-26.2 2.9-2.7-2.4-9.3-3.3-11.9-1.5-1.8 1.2-2.1 2.2-1.7 6.2.7 6.5 3.5 10 10.5 12.9 3.2 1.2 6.8 2.8 8 3.4 1.3.6 5.5.8 10.3.4 6.2-.4 9-1.1 12.5-3.1 4.6-2.7 8.8-7.5 9.9-11.3.4-1.1 1.3-2.7 2.1-3.3 2.6-2.1 1.8-6.6-1.9-10.4-3.9-4.2-4.5-4.3-7.9-1.6m50.8 18.1c-3.8.6-6.6 1.7-7.7 2.9-.9 1.1-2 2-2.5 2-1.9 0-5.5 5-5.5 7.4 0 4.8 3.4 8.9 10.4 12.4 6.4 3.2 6.7 3.5 7.4 7.7 1.1 7.5-2.5 13.9-10.6 18.6-4.9 2.8-17.7 1-29.6-4.2-3.9-1.8-4.6-1.8-7.9-.5-6.7 2.8-6.7 9.2 0 14.1 3.8 2.7 19.2 6.5 26.8 6.5 5.6 0 19.5-3.9 22.7-6.4 4.1-3.2 6.7-3.9 9.1-2.3 3.5 2.1 14 3.9 19 3.1 5.3-.8 14.5-3.6 18.7-5.8 1.6-.8 5.6-4 8.7-6.9 5.3-5 5.8-5.8 6.3-10.6.4-4.3.1-5.7-2.2-9.1-1.4-2.2-3.1-4-3.6-4-1.7 0-8.4 7.3-10.5 11.4-2 3.8-7.1 8.6-9.7 9-.7.1-1.8.5-2.5.9-1.8 1.1-12.4 1-15.5-.2-3.6-1.4-4.8-3.9-4.8-10.5 0-6.7 2.2-12.8 5.2-14.1 6.1-2.8 8.4-13.1 3.9-17.8-1.3-1.5-3.9-2.8-6-3.1-8.5-1.2-14-1.4-19.6-.5m503-201c-11.6.7-49.9 1.3-60.5 1-.8-.1-20.4-.1-43.5-.2-23.1 0-50.6-.2-61.2-.3-18.7-.2-32.1.6-37.5 2.3-1.4.5-4.5.5-6.7.1-5.7-1-9.1 1.6-9.1 6.9 0 6.4 1.4 6.9 18 6.5 8-.2 16.3-.6 18.5-1s10.3-.6 18-.4c7.7.1 24.1.3 36.5.3h35.5c59.3.1 84.6 0 100.5-.7 10.2-.5 19.4-.8 20.5-.9 1.1 0 5.5.5 9.8 1.1 8.9 1.2 13.3.4 16.4-3 1.2-1.3 2.3-3.4 2.5-4.8.4-3.3-3.5-5.1-11-5.1-3.1 0-7.7-.5-10.1-1-6.6-1.5-19.8-1.7-36.6-.8m-85 470c-1.6.5-4.3.8-6 .7-1.6-.1-3.9.3-5 .9s-5.8 1.3-10.5 1.6c-4.7.2-9.2.7-10 1.1-2.1.8-18.2 2.8-25.4 3.2-6.9.3-9.5 2.6-9.6 8.1 0 6.1 6.5 6.9 31.3 3.7 6.6-.8 12.6-1.4 13.5-1.3 1 .1 2.4-.1 3.2-.4 2.2-.9 15.3-2.7 19.7-2.7 2.9-.1 4.8-.9 7.8-3.6 3.4-3 3.8-3.6 2.5-4.7-.8-.6-2-2.6-2.5-4.2-1.2-3.3-3.8-4.1-9-2.4"/></g></svg>