<svg version="1.1" xmlns="http://www.w3.org/2000/svg" style="display: block;" viewBox="0 0 2048 2048" width="1024" height="1024">
<path transform="translate(0,0)" fill="rgb(253,252,251)" d="M 0 0 L 2048 0 L 2048 2048 L 0 2048 L 0 0 z"/>
<path transform="translate(0,0)" fill="rgb(21,21,21)" d="M 758.709 551.538 C 774.625 550.39 791.144 551.886 807.11 552.284 C 817.726 552.549 828.742 551.778 839.291 552.799 C 849.15 553.753 858.851 556.573 868.762 557.004 L 972.498 560.969 C 987.509 561.603 1003.27 560.607 1018.1 562.923 C 1048.13 567.613 1075.68 578.258 1104.47 587.179 C 1123.51 593.076 1143.99 596.72 1162.32 604.497 C 1189.27 615.93 1224.31 636.087 1245.74 655.868 C 1278.07 685.696 1306.98 741.226 1311.84 784.527 C 1313.7 801.06 1317.2 859.075 1321.41 869.499 C 1323.09 869.936 1324.15 869.779 1325.76 869.226 C 1330.7 867.525 1335.1 864.429 1339.9 862.384 C 1344.93 860.24 1351.17 859.564 1356.45 857.857 C 1363.89 855.451 1371.16 852.033 1378.79 850.29 C 1388.35 848.103 1398.78 847.681 1408.54 846.644 C 1423.1 845.098 1437.94 842.921 1452.59 842.802 C 1491.6 842.214 1530.6 844.581 1569.25 849.884 C 1578.56 851.07 1587.2 855.471 1596.41 856.386 C 1611.27 857.86 1626.27 858.103 1641.15 859.263 C 1657.22 860.514 1673.72 862.721 1689.71 864.773 C 1697.27 865.742 1704.68 867.8 1712.18 869.155 C 1731.49 872.645 1750.79 876.058 1770.06 879.803 C 1790.25 883.727 1811 886.528 1830.96 891.271 C 1881.01 903.159 1931.1 931.472 1958.25 976.435 C 1965.33 988.173 1967.63 1001.39 1970.72 1014.56 C 1973.37 1025.84 1976.21 1037.06 1977.19 1048.64 C 1980.82 1091.92 1965.86 1135.68 1942.27 1171.53 C 1931.25 1188.28 1914.99 1189.65 1912.61 1213.07 C 1911.69 1222.11 1912.65 1231.67 1912.64 1240.77 C 1912.63 1250.34 1911.72 1259.97 1912.22 1269.53 C 1912.81 1280.81 1914.29 1291.88 1913.9 1303.22 C 1913.21 1322.96 1910.16 1342.61 1909.33 1362.34 C 1908.32 1386.03 1910.4 1410.24 1910.41 1433.98 C 1910.42 1453.94 1907.64 1473.98 1907.44 1493.89 C 1907.34 1504.21 1910.05 1514.58 1910.4 1524.97 C 1910.7 1534.3 1909.5 1543.74 1909.33 1553.09 C 1909.06 1568.83 1909.81 1584.58 1909.58 1600.31 C 1909.21 1626.15 1905.07 1651.77 1904.99 1677.68 C 1904.91 1702.03 1906.19 1726.69 1905.12 1750.99 C 1904.11 1773.91 1900.87 1796.66 1899.76 1819.48 C 1899.18 1831.51 1898.3 1843.49 1897.64 1855.51 C 1896.88 1869.33 1897.34 1883.01 1893.77 1896.54 C 1892.67 1900.71 1890.46 1906.58 1886.19 1908.46 C 1882.16 1910.23 1876.29 1909.36 1872.28 1907.97 C 1868.69 1906.72 1863.18 1903.98 1861.92 1900.09 C 1860.38 1895.35 1862.77 1888.46 1862.99 1883.45 C 1864.71 1844.91 1868.26 1806.49 1870.54 1767.95 C 1871.52 1751.29 1871.8 1734.21 1871.98 1717.5 C 1872.16 1700.82 1871.55 1684.26 1872.18 1667.56 C 1873.25 1639.48 1875.74 1611.19 1875.72 1583.12 L 1874.85 1464.32 C 1874.73 1451.44 1873.53 1438.5 1873.79 1425.63 C 1874.45 1393.56 1875.4 1361.48 1876.64 1329.42 C 1877.19 1317.32 1879.4 1305.09 1879.48 1293.03 C 1879.61 1274.79 1879.49 1256.26 1879.09 1238.02 C 1878.85 1226.58 1875.59 1200.8 1878.68 1190.74 C 1880.07 1186.23 1883.9 1186.91 1886.25 1183.72 C 1888.76 1180.32 1886.2 1174.02 1889.81 1169.59 C 1892.37 1166.44 1896.12 1164.27 1899.43 1161.99 C 1910.05 1154.68 1915.28 1147.54 1920.96 1136.15 C 1932.09 1113.86 1944.55 1076.48 1942.47 1051.24 C 1941.32 1037.19 1936.62 1022.78 1932.09 1009.45 C 1927.03 994.542 1917.26 976.933 1902.61 969.691 C 1893.46 977.422 1888.24 974.393 1877.03 973.687 C 1849.06 971.924 1826.24 986.322 1805.97 1004.37 C 1761.62 1043.88 1751.05 1089.3 1747.96 1146.49 C 1747.34 1158.05 1746.26 1169.77 1746.28 1181.35 C 1746.31 1193.08 1747.37 1204.82 1747.47 1216.55 C 1747.56 1227.4 1744.1 1238.03 1743.81 1248.86 C 1743.49 1260.47 1745.02 1272.26 1745.3 1283.88 C 1745.62 1296.8 1744.44 1309.98 1743.7 1322.89 C 1738.81 1325.29 1733.35 1327.71 1728.09 1329.12 C 1723.87 1330.25 1719.71 1331.32 1715.7 1329.1 C 1713.24 1322.22 1708.34 1283.48 1708.12 1275.44 C 1707.69 1259.9 1711.37 1244.67 1711.66 1229.23 C 1711.87 1218.16 1711.26 1207.1 1711.53 1196.02 C 1711.92 1180.15 1713.22 1164.38 1713.85 1148.54 C 1714.3 1137.15 1714.14 1125.5 1715.33 1114.18 C 1717.06 1097.71 1721.01 1079.91 1725.58 1063.97 C 1736.42 1026.1 1755.89 1000.59 1785.22 975.316 C 1791.61 969.814 1798.25 963.123 1805.66 959.061 C 1815.09 953.889 1825.64 946.305 1835.86 943.062 C 1840.83 941.483 1851.55 941.876 1854.81 937.979 C 1854.45 937.107 1854.43 936.874 1853.68 936.094 C 1849.93 932.186 1839.58 929.005 1834.3 927.491 C 1822.14 924.011 1809.12 922.833 1796.74 920.128 C 1751.72 910.291 1706.68 901.343 1660.93 895.428 C 1638.59 892.541 1615.8 892.364 1593.49 889.441 C 1575.29 887.057 1557.88 881.613 1539.52 879.974 C 1525.95 878.762 1512.15 877.907 1498.52 877.978 C 1482.82 878.061 1467.29 879.073 1451.6 878.03 C 1447.86 877.781 1445.6 877.318 1442.19 875.623 C 1441.88 875.467 1441.57 875.303 1441.26 875.143 C 1429.64 878.473 1417.87 878.886 1406 880.741 C 1360.1 887.912 1335.72 896.108 1307.71 935.209 C 1296.58 950.74 1287.58 969.538 1281.56 987.708 C 1277.29 1000.61 1265.48 1079.84 1267.91 1091.47 L 1269.71 1100.19 C 1305.48 1104.42 1389.37 1132.19 1420.99 1149.82 C 1432.36 1156.15 1442.12 1164.32 1452.46 1172.09 C 1491.88 1201.68 1502.58 1214.48 1527.66 1256.9 C 1534.38 1268.28 1541.86 1279.05 1545.55 1291.87 C 1552.8 1293.22 1560.19 1293.8 1567.44 1295.23 C 1593.7 1300.4 1619.11 1307.06 1644.95 1313.87 C 1666.24 1319.49 1687.2 1325.22 1707.41 1334.19 C 1737.65 1347.61 1775.81 1383.4 1793.64 1411.34 C 1799.55 1420.59 1804.11 1431 1807.98 1441.24 C 1813.96 1457.04 1818.34 1477.37 1819.71 1494.28 C 1821.66 1518.47 1817.12 1577.58 1809.06 1600.39 C 1802.1 1620.11 1788.39 1642.12 1776.24 1659.08 C 1770.7 1666.81 1751.58 1683.46 1749.66 1690.53 C 1746.73 1701.3 1751.12 1715.03 1750.82 1726.09 C 1750.63 1733.31 1749.37 1740.64 1748.89 1747.88 C 1747.98 1761.75 1747.78 1775.98 1747.33 1789.89 C 1745.85 1834.79 1747.84 1879.43 1742.29 1924.13 C 1741.67 1929.11 1741.66 1935.21 1739.58 1939.8 C 1737.24 1941.34 1735.44 1942.48 1734.3 1945.13 C 1733.51 1946.96 1732.88 1947.95 1731.4 1949.38 C 1729.4 1949.93 1728.22 1950.07 1726.14 1949.61 C 1718.58 1947.9 1712.11 1941.93 1707.95 1935.78 C 1708.27 1925 1708.05 1914.16 1708.83 1903.41 C 1709.85 1889.37 1712.06 1875.27 1712.54 1861.22 C 1713.11 1844.32 1709.02 1825.79 1712.71 1809.29 C 1703.22 1810.33 1693.87 1812.46 1684.45 1813.95 L 1629.14 1822.59 C 1608.14 1825.88 1587.1 1826.58 1566.17 1829.61 C 1536.39 1833.92 1507.04 1840.57 1477.16 1844.56 C 1466.03 1846.05 1454.91 1845.37 1443.78 1846.73 C 1419.91 1849.67 1396.44 1855.75 1372.52 1858.51 C 1357.92 1860.19 1343.22 1860.11 1328.61 1861.63 L 1167.55 1879.52 C 1153 1881.28 1138.5 1884.64 1123.95 1886.7 C 1100.17 1890.07 1076.33 1892.12 1052.52 1894.97 C 1038.12 1896.69 1023.83 1899.7 1009.41 1901.5 C 995.958 1903.18 981.91 1901.9 968.701 1903.76 C 965.485 1904.21 962.643 1905.87 959.533 1906.44 C 952.77 1907.69 945.506 1907.12 938.601 1908.27 C 918.108 1911.69 897.248 1916.61 876.675 1919.04 C 859.081 1921.11 841.114 1920.39 823.547 1922.34 C 805.207 1924.37 787.089 1929.16 768.663 1931.03 C 745.185 1933.41 721.406 1935.23 697.886 1937.47 C 689.39 1938.29 680.959 1940.04 672.455 1940.64 C 658.931 1941.58 645.454 1941.03 631.895 1942.25 C 592.503 1945.79 553.004 1951.09 513.5 1952.93 C 495.038 1953.79 476.652 1952.97 458.258 1953.48 C 451.315 1953.67 444.392 1954.8 437.462 1955.25 C 423.932 1956.13 409.678 1956.11 396.123 1955.87 C 383.12 1955.63 369.883 1955.32 356.903 1954.55 C 348.542 1954.06 338.636 1952.14 330.37 1953.17 C 319.991 1954.46 310.965 1961.36 300.86 1963.89 C 273.302 1970.79 192.632 1982.48 169.726 1967.39 C 166.756 1965.44 164.284 1962.56 163.917 1958.89 C 163.544 1955.15 165.519 1951.71 168.129 1949.21 C 170.488 1946.94 174.322 1944.41 177.726 1944.86 C 212.675 1949.54 274.629 1944.13 305.646 1927.57 C 308.002 1924.13 307.884 1919.82 309.125 1915.92 C 311.171 1909.48 314.68 1903.35 316.044 1896.72 C 319.578 1879.53 316.625 1843.58 315.86 1824.58 C 315.302 1810.71 313.407 1796.65 311.235 1782.95 C 302.166 1725.72 279.493 1704.8 230.951 1676.98 C 203.632 1661.12 174.452 1648.71 144.079 1640.04 C 134.704 1637.36 115.579 1636.66 108.991 1629.39 C 106.017 1626.11 105.938 1619.87 106.25 1615.68 C 106.489 1612.48 107.459 1609.4 110.2 1607.44 C 117.007 1602.56 142.052 1608.02 150.412 1610.15 C 208.367 1624.88 277.018 1651.59 316.15 1698.39 C 321.672 1705 325.939 1712.94 330.355 1720.32 C 357.124 1715.66 382.977 1716.44 409.904 1716.51 C 421.039 1716.53 432.138 1715.92 443.265 1715.84 C 455.535 1715.76 467.881 1716.07 480.1 1714.73 C 490.555 1713.57 500.83 1710.42 511.203 1708.66 C 538.585 1704.15 566.066 1700.26 593.624 1696.99 C 619.151 1694.03 645.084 1694.36 670.671 1691.44 C 686.846 1689.6 702.808 1686 719.003 1684.11 C 753.514 1680.08 788.281 1677.83 822.704 1673.16 C 847.408 1669.81 872.166 1664.64 896.896 1661.95 C 905.763 1660.98 914.655 1662.05 923.535 1661.6 C 941.323 1660.7 959.279 1658.87 976.967 1656.82 C 990.017 1655.31 1003.85 1654.66 1016.7 1652.45 C 1022.47 1651.46 1028.04 1648.27 1033.82 1647.73 C 1040.77 1647.08 1047.88 1649.51 1054.91 1648.71 C 1061.65 1647.95 1068.31 1646.01 1075.05 1645.06 C 1099.98 1641.54 1124.91 1638.44 1149.96 1635.97 C 1154.65 1635.51 1159.06 1633.82 1163.71 1633.33 C 1172.38 1632.43 1185.12 1632.33 1193.6 1634.7 C 1195.39 1636.59 1196.4 1637.86 1198.86 1638.9 C 1200.77 1637.86 1202.98 1636.3 1205.2 1636.29 C 1206.44 1636.29 1206.43 1636.67 1207.53 1637.61 C 1209.92 1639.68 1212.45 1642.97 1212.31 1646.29 C 1212.21 1648.66 1210.97 1650.57 1209.3 1652.14 C 1192.3 1668.2 1113.04 1672.66 1086.29 1675.5 C 1077.08 1676.48 1067.98 1678.38 1058.77 1679.25 C 1050.19 1680.06 1041.49 1679.64 1032.92 1680.65 C 1020.75 1682.08 1008.81 1685.56 996.657 1687.23 C 967.167 1691.28 937.021 1694.27 907.383 1696.73 C 902.201 1697.16 897.372 1695.53 892.074 1696.15 C 881.926 1697.34 871.938 1699.44 861.829 1700.83 C 851.504 1702.24 841.068 1702.82 830.75 1704.3 C 821.313 1705.65 811.256 1708.43 801.717 1707.84 C 789.261 1707.08 778.369 1711.34 766.064 1712.19 C 757.967 1713.66 749.718 1715.35 741.493 1715.87 C 732.628 1716.42 723.801 1716.17 714.972 1717.35 C 700.245 1719.32 685.407 1721.25 670.732 1723.54 C 662.302 1724.86 653.731 1726.92 645.224 1727.45 C 629.897 1728.42 614.352 1726.7 598.984 1728.31 C 587.827 1729.48 576.713 1731.97 565.611 1733.64 C 550.985 1735.84 536.208 1736.95 521.576 1739.11 C 500.076 1742.29 478.761 1746.39 457.037 1747.85 C 447.515 1748.48 437.98 1748.08 428.457 1748.46 C 421.107 1748.76 413.818 1749.94 406.461 1750.09 C 394.237 1750.35 354.938 1746.66 345.776 1751.95 C 340.809 1754.82 341.724 1761.9 342.325 1766.75 C 343.637 1777.34 346.992 1787.71 348.411 1798.29 C 350.04 1810.43 349.193 1823.65 349.554 1835.95 C 349.99 1850.82 352.005 1866.33 350.303 1881.09 C 348.934 1892.97 345.376 1904.91 342.569 1916.52 C 372.107 1924.79 409.68 1923 440.275 1920.94 C 449.236 1920.34 458.179 1918.92 467.166 1918.79 C 485.582 1918.52 503.829 1921.89 522.32 1920.93 C 543.646 1919.83 564.444 1914.53 585.694 1912.91 C 595.613 1912.15 605.576 1912 615.494 1911.23 C 624.914 1910.5 634.293 1909 643.717 1908.43 C 654.969 1907.74 666.141 1908.02 677.404 1907.02 C 728.691 1902.49 779.84 1895.6 831.014 1889.96 C 862.117 1886.54 893.321 1884.42 924.29 1879.61 C 933.938 1878.11 943.401 1875.44 953.044 1873.83 C 959.841 1872.7 969.236 1873.59 975.521 1871.66 C 976.549 1871.34 977.702 1869.3 978.727 1869 C 982.922 1867.75 991.815 1868.97 996.602 1868.74 C 1008.15 1868.19 1020.04 1867.39 1031.47 1865.81 C 1070.16 1860.43 1108.87 1853.87 1147.64 1849.2 C 1169.65 1846.54 1191.97 1845.77 1213.94 1842.88 C 1236.32 1839.93 1258.54 1835.74 1281.01 1833.2 C 1289.26 1832.27 1297.6 1833.61 1305.83 1832.65 C 1317.26 1831.33 1328.4 1827.6 1339.87 1826.38 C 1351.43 1825.14 1363.24 1826.51 1374.8 1825.26 C 1398.38 1822.71 1421.99 1817.28 1445.48 1813.87 C 1454.78 1812.52 1464.27 1812.43 1473.62 1811.52 C 1489.32 1810.01 1505.13 1807.87 1520.75 1805.66 C 1531.27 1804.17 1541.58 1801.47 1552.07 1799.8 C 1570.69 1796.85 1589.7 1795.6 1608.41 1792.79 C 1630.04 1789.53 1651.37 1784.47 1673 1781.06 C 1685.81 1779.04 1698.84 1778.49 1711.72 1776.96 L 1712.03 1774.97 C 1713.96 1762.4 1717.54 1725.75 1710.1 1715.65 C 1705.87 1713.84 1694.19 1717.74 1688.98 1718.31 C 1665.8 1720.87 1639.65 1716.93 1621.08 1701.83 C 1609.78 1692.64 1601.77 1678.74 1600.32 1664.17 C 1599.63 1657.21 1599.87 1649.91 1599.81 1642.91 C 1599.6 1615.9 1604.71 1604.36 1623.02 1584.07 C 1628.28 1578.25 1634.24 1573.03 1639.19 1566.92 C 1651.61 1551.59 1659.24 1531.87 1656.79 1511.96 C 1654.88 1496.42 1644.67 1480.26 1632.25 1470.83 C 1611.2 1454.85 1574 1453.1 1548.84 1456.34 C 1544.79 1465.1 1541.93 1474.42 1537.56 1483.03 C 1529.12 1499.66 1504.2 1522.64 1489.38 1534.24 C 1478.46 1542.78 1466.48 1550.38 1456.21 1559.69 C 1440.83 1573.63 1427.94 1589.5 1413.45 1604.17 C 1400.39 1617.4 1364.17 1646.95 1347.02 1652.34 C 1322.82 1659.94 1295.33 1658.45 1272.86 1646.42 C 1256.19 1637.5 1243.05 1621.45 1241.38 1602.04 C 1240.47 1591.45 1241.3 1579.61 1238.26 1569.45 C 1230.06 1566.93 1208.84 1577.49 1199.15 1579.28 C 1186.39 1581.64 1163.28 1582.07 1150.76 1579.6 C 1131.69 1575.83 1109.78 1568.2 1098.86 1550.95 C 1091.86 1539.9 1087.98 1524.43 1090.98 1511.51 C 1091.93 1507.4 1093.6 1503.51 1094.56 1499.36 C 1093.38 1496.88 1090.23 1495.35 1088 1493.75 C 1079.41 1492.42 1070.25 1496.36 1061.48 1496.17 C 1048.06 1495.88 1008.43 1493.88 997.457 1496.68 C 984.659 1491.2 969.175 1492.78 955.424 1490.53 C 945.76 1495.26 937.853 1502.78 928.552 1508.11 C 904.502 1521.9 879.801 1533.33 856.541 1548.61 C 825.434 1569.05 786.847 1601.51 751.472 1611.84 C 740.12 1615.15 685.671 1616.62 673.408 1614.8 C 666.703 1613.84 660.237 1611.64 654.343 1608.3 C 637.434 1598.77 618.135 1579.55 613.314 1560.22 C 605.809 1530.15 626.904 1498.12 649.138 1479.91 C 659.635 1471.31 677.617 1462.77 684.269 1450.57 C 685.521 1448.28 685.66 1447.02 685.081 1444.53 C 678.981 1438.66 668.451 1435.09 660.51 1432.48 C 651.964 1429.67 642.66 1427.23 633.752 1426.01 C 611.539 1422.97 562.975 1423.05 541.76 1428.21 C 525.426 1432.18 510.675 1438.97 496.63 1448.14 C 479.909 1459.06 467.508 1474.79 449.308 1483.93 C 418.907 1499.19 379.364 1502.1 346.943 1491.23 C 326.445 1484.37 311.923 1470.17 302.514 1450.82 C 293.182 1431.62 294.115 1403.94 301.056 1384.15 C 301.631 1382.51 301.553 1383.51 300.799 1381.32 C 293.609 1376.89 284.63 1384.96 276.004 1381.86 C 275.241 1381.59 274.516 1381.22 273.75 1380.95 C 268.806 1379.25 261.079 1382.68 255.727 1382.93 C 247.432 1383.3 239.134 1382.89 230.834 1383.43 C 211.529 1384.69 192.195 1387.61 172.969 1389.75 C 158.334 1391.37 143.258 1392.29 128.901 1395.65 C 119.197 1397.92 110.276 1401.29 101.213 1405.39 C 96.2664 1400.94 88.995 1395.8 89.1406 1388.41 C 89.2531 1382.71 95.6366 1377.99 99.2126 1374.1 C 142.634 1361.49 185.308 1358.46 230.136 1355.18 C 241.541 1354.34 252.94 1352.43 264.326 1351.85 C 271.053 1351.51 310.228 1352.37 313.019 1351.5 C 316.851 1350.3 324.571 1339.79 327.649 1336.57 C 338.519 1325.21 354.694 1312.48 367.508 1303.06 C 376.006 1296.81 385.3 1292.21 394.361 1286.9 C 401.336 1282.81 408.079 1278.19 415.17 1274.34 C 424.204 1269.42 433.59 1265.49 442.086 1259.61 C 435.92 1252.84 427.897 1247.67 421.179 1241.42 C 410.391 1231.38 400.948 1220.15 391.599 1208.8 C 382.142 1212.37 372.811 1216.27 363.622 1220.49 C 350.525 1226.57 321.298 1244.26 306.953 1242.26 C 304.322 1241.9 302.644 1241.17 301.281 1238.79 C 298.91 1234.64 299.874 1228.51 301.541 1224.29 C 306.76 1211.07 359.631 1190.12 373.442 1184.63 C 374.201 1182.78 375.595 1180.2 375.76 1178.23 C 376.018 1175.14 366.055 1145.44 364.254 1139.12 C 353.489 1139.32 342.738 1137.41 331.995 1137.6 C 312.645 1137.96 275.297 1146.6 257.945 1155.03 C 254.43 1150.05 250.719 1145.22 247.004 1140.39 C 247.394 1136.96 248.1 1133.59 248.766 1130.2 C 255.544 1125.75 263.134 1123.27 270.729 1120.61 C 278.325 1117.96 286.345 1114.73 294.209 1113.18 C 313.328 1109.4 333.769 1112.05 352.897 1108.56 C 363.769 1106.58 358.916 1096.62 358.158 1088.65 C 357.202 1078.59 358.625 1067.97 359.925 1058.01 C 361.299 1047.47 362.294 1036.53 364.671 1026.17 C 367.625 1013.3 372.585 1000.44 376.79 987.902 C 379.09 981.042 381.116 972.885 384.57 966.574 C 386.362 963.3 389.627 961.183 391.51 958.021 C 396.87 949.021 384.492 936.861 382.181 927.532 C 380.168 919.403 381.442 909.337 381.525 901.007 C 381.933 859.991 383.918 819.918 393.627 779.828 C 395.243 773.154 396.547 765.618 399.09 759.249 C 401.364 753.552 406.998 747.269 410.359 741.902 C 418.164 740.979 426.409 739.584 434.278 740.373 C 438.381 740.785 442.316 741.843 445.904 743.908 C 461.97 753.156 496.448 781.847 511.008 794.972 C 517.746 801.045 523.812 807.82 530.544 813.882 C 538.396 820.953 547.377 826.755 554 835.087 C 555.798 837.365 557.712 839.548 559.734 841.63 C 560.792 842.724 562.67 844.477 564.233 844.847 C 568.715 845.908 589.51 836.7 594.925 835.192 C 623.876 827.128 666.34 820.158 696.126 819.645 C 725.039 819.146 753.894 822.11 782.742 823.02 C 787.057 814.383 792.815 806.432 797.815 798.17 C 807.326 782.456 816.169 766.236 827.27 751.574 C 840.832 733.662 885.23 676.205 905.769 674.374 C 912.978 673.731 919.246 679.41 924.304 683.79 L 926.87 683.03 C 931.291 685.149 938.81 704.443 940.564 709.562 C 943.138 717.076 944.108 725.244 946.107 732.94 C 949.007 744.105 952.546 755.454 955.801 766.557 C 960.708 783.29 972.294 810.307 974.103 825.781 C 975.539 838.06 967.611 857.638 971.552 867.456 C 974.802 875.556 989.794 890.054 995.444 897.945 C 1001.61 906.562 1008.75 915.84 1013.79 925.145 C 1016.36 929.903 1017.99 935.229 1020.19 940.173 C 1025.07 951.125 1030.14 961.618 1034.35 972.885 C 1054.44 966.694 1120.53 945.364 1138.15 955.06 C 1140.92 956.589 1142.32 958.905 1142.88 961.964 C 1144.14 968.781 1138.53 977.098 1134.86 982.476 C 1102.84 986.599 1070.93 993.554 1042.48 1009.21 C 1043.52 1023.06 1044.82 1036.47 1045.12 1050.39 C 1058.88 1050.84 1072.66 1049.74 1086.43 1049.6 C 1102.94 1049.42 1117.52 1050.93 1133.94 1047.71 C 1136.15 1050.48 1138.67 1053.67 1139.89 1057.02 C 1143.12 1065.91 1133.89 1072.56 1130.27 1079.81 C 1130.08 1080.18 1129.91 1080.54 1129.73 1080.91 C 1124.76 1081.13 1100.3 1082.72 1096.98 1081.27 C 1095.76 1080.73 1095.01 1079.37 1093.77 1078.87 C 1089.25 1077.05 1056.65 1080.82 1047.85 1079.89 C 1045.88 1086.15 1044.2 1092.27 1042.95 1098.72 C 1064.37 1100.02 1077.68 1095.19 1098.22 1093.93 C 1129.68 1092 1161.49 1093.24 1192.91 1095.33 C 1202.27 1095.95 1228.92 1100.69 1236.72 1096.6 C 1236.56 1094.76 1236.77 1095.45 1236.25 1094.12 C 1234.09 1088.6 1232.89 1071.74 1232.69 1065.51 C 1232.31 1053.48 1235.46 1040.43 1237.31 1028.54 C 1245.61 975.135 1258.2 932.711 1295.83 892.065 C 1290.85 878.87 1284.38 867.101 1281.42 853.108 C 1279.25 842.816 1279.68 832.45 1278.97 822.03 C 1277.85 805.753 1274.99 787.822 1270.96 772.025 C 1242.83 661.634 1152.98 636.64 1056.15 608.675 C 1050.62 607.078 1045.06 605.345 1039.39 604.313 C 1030.81 602.749 1019.1 603.161 1011.63 598.543 C 1009.58 597.277 1008.17 596.118 1005.71 595.9 C 985.546 594.115 964.774 593.98 944.524 593.009 C 932.006 592.409 919.531 590.796 907.031 590.36 C 894.394 589.92 881.707 590.463 869.078 589.865 C 855.973 589.244 843.018 587.101 829.959 586.174 C 810.324 584.78 789.993 584.397 770.3 584.015 C 756.933 583.755 743.062 585.157 729.639 585.538 C 703.525 586.28 677.341 586.509 651.219 586.856 C 629.027 587.151 606.58 584.713 584.525 585.432 C 565.447 586.055 545.805 588.121 526.819 590.169 C 516.101 591.325 499.612 595.594 489.476 593.793 C 480.338 592.17 467.97 594.804 458.504 595.539 C 445.99 596.511 433.689 598.401 421.223 599.692 C 405.805 601.289 390.19 602.271 374.992 605.445 C 354.176 609.792 334.299 616.396 313.728 621.276 C 270.277 631.581 227.493 641.96 186.321 659.825 C 174.02 665.163 156.731 672.195 145.928 680.067 C 141.38 683.381 139.346 689.59 134.577 692.435 L 131.974 690.9 C 130.044 692.941 129.78 696.249 129.148 698.989 C 128.681 701.014 128.956 700.843 127.84 702.634 C 124.491 708.011 105.076 725.43 98.7197 726.411 C 96.2823 726.787 93.9851 726.402 92.0656 724.724 C 89.8257 722.767 89.0705 718.984 88.8026 716.183 C 87.1683 699.096 101.106 681.698 111.613 669.351 C 133.018 644.2 212.651 614.198 246.225 604.683 C 261.823 600.262 277.935 597.811 293.545 593.362 C 318.479 586.256 342.06 577.463 367.738 572.935 C 392.178 568.625 417.262 567.599 441.907 564.971 C 485.285 560.345 529.059 554.531 572.642 552.467 C 585.672 551.849 598.617 553.785 611.625 553.973 C 622.651 554.132 633.75 553.358 644.79 553.237 C 669.454 552.967 694.079 552.914 718.736 552.209 C 731.674 551.839 744.836 552.697 757.718 551.628 L 758.709 551.538 z"/>
<path transform="translate(0,0)" fill="rgb(253,252,251)" d="M 900.302 724.519 C 910.148 740.792 933.58 835.04 935.614 855.462 C 936.133 860.678 933.642 867.649 932.919 872.992 C 932.318 877.435 932.855 882.208 933.256 886.657 C 938.902 893.597 945.562 899.469 951.291 906.3 C 969.582 928.109 987.263 956.349 993.171 984.412 L 993.607 986.407 L 993.852 987.607 L 990.227 994.467 C 974.036 1000.02 958.391 1010.01 944.489 1019.92 C 945.133 1026.57 945.535 1031.18 950.997 1035.82 C 956.332 1040.36 963.982 1040.56 970.585 1039.69 C 981.655 1038.23 991.486 1032.84 1002 1029.49 C 1003.19 1035.96 1006.96 1049.79 1003.31 1055.34 C 992.151 1059.63 946.351 1059.91 941.338 1069.9 C 939.617 1073.33 940.371 1077.38 941.889 1080.73 C 943.472 1084.22 946.391 1087.94 950.075 1089.37 C 960.766 1093.52 991.411 1085.32 997.989 1088.68 C 1001.06 1095.58 993.54 1114.87 990.769 1122.05 C 983.182 1141.73 963.116 1166.68 945.469 1178.09 C 938.018 1182.9 926.606 1188.14 921.011 1194.99 C 917.744 1198.99 917.502 1207.32 915.072 1212.31 C 915.575 1214.12 915.699 1214.87 917.465 1215.89 C 924.861 1220.19 939.984 1217.88 947.539 1215.18 C 968.833 1207.58 1000.94 1177.22 1014.32 1158.67 C 1020.83 1149.65 1023.72 1140.25 1032.89 1133.24 C 1066.33 1131.78 1099.72 1128.02 1133.22 1127.17 C 1150.91 1126.73 1168.35 1128.64 1185.97 1129.54 C 1205.8 1130.54 1225.87 1130.57 1245.61 1132.56 C 1288.67 1136.91 1321.23 1147.5 1361 1163.13 C 1379.33 1170.33 1399.33 1178.24 1415.8 1189.19 C 1421.48 1192.96 1426.36 1198.18 1431.64 1202.51 C 1442.51 1211.42 1453.46 1219.58 1463.83 1229.15 C 1497.7 1260.4 1528.39 1334.06 1530.1 1379.54 C 1531.42 1414.89 1512.14 1464.01 1488.07 1489.85 C 1469.64 1509.64 1446.14 1524.7 1425.7 1542.33 C 1417.48 1549.42 1409.13 1556.82 1401.43 1564.47 C 1393.96 1571.9 1387.15 1580.1 1379.47 1587.29 C 1368.67 1597.39 1343.16 1618.63 1328.26 1619.79 C 1326.95 1618.93 1326.43 1619.02 1326.07 1617.34 C 1323.81 1606.76 1336.43 1586.49 1329.11 1578.06 C 1324.71 1576.84 1316.07 1580.56 1312.28 1582.7 C 1297.27 1591.17 1298.44 1616.94 1285.99 1612.66 C 1282.54 1611.48 1280.55 1608.4 1279.39 1605.12 C 1274.17 1590.28 1278.73 1569.58 1285.77 1556.15 C 1293.95 1540.54 1305.96 1524.34 1318.76 1512.21 C 1328.49 1502.99 1354.02 1486.7 1359.35 1475.55 C 1361.7 1470.62 1360.68 1462.24 1359.19 1457.08 C 1357.88 1452.56 1355.23 1448.95 1351.07 1446.72 C 1344.59 1443.24 1336.61 1443.27 1329.65 1441.22 C 1321.73 1438.89 1314.63 1434.21 1306.75 1431.87 C 1298.37 1429.38 1289.41 1429.21 1281.09 1426.28 C 1269.93 1422.36 1262.08 1414.69 1253.22 1407.24 C 1233.64 1390.77 1219.49 1380.54 1210.89 1354.93 C 1208.4 1347.49 1207.18 1340.09 1206.89 1332.26 C 1206.7 1326.82 1209.88 1298.69 1208.77 1296.48 C 1208.66 1296.25 1206.99 1295.27 1206.62 1295.08 C 1201.92 1292.64 1194.84 1292.73 1189.59 1292.32 C 1180.46 1299.46 1175.71 1309.25 1174.39 1320.75 C 1170.46 1354.89 1182.91 1378.75 1200.43 1406.44 C 1204.4 1412.71 1207.87 1419.82 1212.35 1425.67 C 1194.73 1431.01 1175.63 1432.39 1158.38 1438.59 C 1145.35 1443.27 1133.55 1454.2 1120.52 1457.31 C 1100.65 1462.05 995.417 1465.5 980.261 1457.63 C 978.753 1455.2 978.967 1454 979.66 1451.23 C 982.477 1439.98 989.311 1430.01 992.274 1418.52 L 993.585 1413.54 C 989.129 1409.82 984.685 1405.69 978.418 1406.36 C 970.679 1407.2 965.219 1412.65 960.782 1418.62 C 949.545 1433.73 942.491 1450.85 928.114 1463.61 C 918.416 1472.22 907.011 1478.62 896 1485.37 C 875.352 1498.04 854.172 1509.81 833.655 1522.7 C 814.145 1534.96 796.433 1549.85 776.64 1561.67 C 770.491 1565.34 759.047 1572.52 752.03 1573.19 C 750.495 1573.33 750.468 1573.25 749.179 1573 C 747.532 1571.21 747.143 1570.33 747.266 1567.83 C 747.759 1557.79 757.646 1544.5 751.981 1534.97 C 749.13 1533.33 747.47 1533.02 744.228 1533.81 C 734.176 1536.25 727.587 1542.95 722.433 1551.68 C 719.423 1556.78 714.318 1576.09 711.451 1578.25 C 710.664 1578.85 708.69 1579.46 707.692 1579.71 C 700.957 1581.35 691.622 1579.23 684.736 1578.4 C 684.943 1575.05 684.89 1570.8 686.333 1567.73 C 690.832 1558.13 709.526 1539.5 701.616 1529 C 696.762 1526.66 690.912 1527.92 685.971 1529.49 C 672.603 1533.74 658.83 1556.61 648.505 1554.63 C 645.857 1551.74 645.613 1547.84 645.697 1544.06 C 646.001 1530.4 655.028 1520.24 664.614 1511.56 C 678.838 1498.69 696.184 1486.04 712.483 1475.97 C 750.773 1452.31 829.043 1417.91 833.236 1366.81 C 833.419 1364.58 833.082 1363.1 831.957 1361.19 C 830.905 1360.59 826.408 1358.67 825.737 1357.84 C 824.223 1355.98 826.082 1353.53 822.467 1354.2 C 816.599 1355.3 808.051 1361.19 802.811 1364.2 L 799.118 1372.47 C 790.756 1391.13 773.575 1401.81 756.732 1411.62 C 752.393 1414.14 748.206 1417.29 743.408 1418.9 C 724.024 1425.38 705.352 1414.08 687.963 1407.32 C 674.432 1402.07 659.52 1396.56 645.349 1393.34 C 633.241 1390.59 620.126 1391.9 607.753 1390.66 C 605.139 1387.46 603.274 1384.47 598.881 1383.92 C 590.057 1382.8 579.188 1385.72 570.16 1386.21 C 534.391 1388.13 501.362 1397.9 471.839 1418.65 C 443.171 1438.81 433.73 1455.53 396.18 1460.26 C 393.953 1451 390.988 1442.08 396.494 1433.35 C 400.777 1426.56 407.998 1419.61 408.4 1411.23 C 407.651 1409.58 407.944 1409.25 406.113 1408.57 C 400.359 1406.41 391.976 1409.15 386.812 1411.85 C 379.938 1415.45 374.001 1421.29 370.122 1427.99 C 366.5 1434.25 362.868 1453.32 353.423 1451.71 C 346.88 1450.59 340.05 1442.05 337.167 1436.54 C 331.968 1426.6 330.572 1415.07 333.992 1404.32 C 337.048 1394.71 342.32 1381.43 348.037 1373.27 C 366.203 1347.33 419.649 1314.21 449.052 1299.7 C 460.645 1293.98 473.176 1289.22 483.318 1281.06 L 484.706 1281.37 C 508.187 1286.82 536.627 1305.07 560.819 1298.06 C 561.896 1297.48 565.66 1298.52 567.52 1298.16 L 567.416 1296.18 L 564.971 1295.57 L 564.409 1294.29 C 568.074 1293.38 571.526 1293.26 574.185 1290.5 C 575.218 1285.47 577.91 1276.9 575.939 1272.16 C 574.101 1270.23 572.523 1269.12 569.947 1268.32 C 564.389 1266.6 558.351 1266.12 552.674 1264.8 C 541.141 1262.11 529.073 1258.24 517.958 1254.16 C 492.313 1244.74 464.356 1230.46 445.567 1210.23 C 441.363 1205.71 434.441 1198.24 434.921 1191.71 C 435.042 1190.06 435.09 1190.53 436.486 1189.27 C 442.557 1190.21 461.075 1189.68 466.904 1187.33 C 472.381 1185.13 477.982 1180.78 482.992 1177.56 C 482.247 1172.99 482.688 1161.71 479.123 1159.24 C 475.675 1156.85 443.859 1158.43 438.396 1159.73 C 432.688 1161.1 427.869 1163.19 422.464 1165.36 C 420.801 1166.03 421.339 1165.8 419.212 1165.74 C 415.689 1161.48 409.101 1147.07 409.406 1141.69 C 409.518 1139.73 410.612 1138.68 411.753 1137.22 C 413.571 1136.77 413.509 1136.58 415.265 1137.17 C 420.464 1138.92 430.369 1137.54 436.261 1138.13 C 447.545 1139.28 458.725 1141.31 469.855 1143.46 C 475.56 1140.68 481.451 1138.1 486.75 1134.59 L 487.008 1123.37 C 453.315 1110.11 438.728 1111.31 403.759 1108.62 L 403.486 1107.39 C 402.058 1101.22 398.508 1095.29 397.645 1089.17 C 396.469 1080.82 397.775 1071.65 398.36 1063.25 C 400.477 1032.83 402.035 1011.79 418.782 984.633 C 424.857 974.783 431.432 963.762 428.117 951.633 C 426.155 944.457 421.966 937.901 420.592 930.539 C 416.638 909.362 420.249 881.49 421.363 859.921 C 422.084 845.975 421.629 832.188 423.976 818.354 C 425.796 807.624 429.481 797.667 432.612 787.302 L 433.875 787.642 C 438.477 788.925 442.251 790.448 446.172 793.209 C 460.142 803.048 523.612 859.8 530.663 872.559 C 534.818 880.078 537.093 889.541 546.292 892.166 C 561.92 896.626 581.009 882.266 594.992 876.924 C 619.779 867.456 658.185 860.644 684.965 858.831 C 696.23 858.068 709.095 860.561 719.957 857.742 C 733.471 854.234 798.644 866.773 804.208 865.023 C 806.092 864.43 808.9 858.941 809.949 857.178 C 830.35 822.873 849.94 787.975 873.866 755.928 C 882.12 744.873 891.537 735.102 900.302 724.519 z"/>
<path transform="translate(0,0)" fill="rgb(21,21,21)" d="M 729.435 1049.44 C 743.101 1048.47 763.027 1047.5 775.257 1054.75 C 779.338 1057.17 783.139 1061.29 784.025 1066.09 C 785.518 1074.17 780.357 1083.57 775.817 1089.88 C 772.981 1093.82 770.605 1093.78 766.094 1094.52 C 760.826 1104.11 758.802 1120.48 760.719 1131.16 C 761.423 1135.09 762.803 1138.28 766.292 1140.48 C 772.161 1144.17 781.041 1145.65 787.864 1145.26 C 827.277 1143.03 825 1106.4 845.168 1100.72 C 851.382 1102.37 855.328 1111.68 858.567 1116.92 C 858.304 1123.89 858.388 1130.25 854.845 1136.51 C 845.449 1153.11 823.884 1164.38 806.215 1169.55 C 791.049 1173.98 767.773 1175.44 753.524 1167.64 C 751.1 1165.91 749.062 1163.68 746.05 1163.56 C 743.719 1165.36 741.341 1167.12 738.809 1168.64 C 733.511 1171.82 727.346 1174.08 721.626 1176.41 C 697.571 1186.19 680.354 1185.08 655.284 1178.94 C 644.303 1176.25 632.183 1172.64 626.315 1161.97 C 624.26 1158.23 624.78 1152.63 626.257 1148.77 C 634.722 1126.64 680.655 1165.44 709.959 1152.18 C 722.382 1146.56 728.2 1136.25 733.019 1124.21 C 732.267 1120.16 731.836 1114.7 730.112 1110.99 C 726.056 1102.29 718.799 1101.05 710.939 1097.27 C 701.197 1092.59 697.692 1084.21 694.187 1074.68 C 695.006 1072.73 695.843 1070.8 696.998 1069.02 C 701.081 1062.73 712.508 1052.88 720.235 1051.31 L 729.435 1049.44 z"/>
<path transform="translate(0,0)" fill="rgb(33,33,32)" d="M 729.945 1063.49 C 730.846 1063.51 731.988 1063.48 732.843 1063.76 C 735.405 1064.57 736.143 1065.5 737.388 1067.65 C 737.079 1069.76 736.861 1070.68 735.547 1072.42 C 734.077 1074.37 733.005 1076.25 731.892 1078.43 L 731.712 1078.68 L 730.819 1078.73 C 729.885 1074.97 731.342 1071.16 732.303 1067.51 L 729.945 1063.49 z"/>
<path transform="translate(0,0)" fill="rgb(21,21,21)" d="M 631.803 1010.17 C 633.175 1010.5 633.983 1010.66 635.293 1011.12 C 639.546 1012.63 644.64 1018.13 646.29 1022.34 C 648.354 1027.62 647.138 1033.36 644.955 1038.37 C 638.972 1052.1 628.518 1064.61 614.336 1070.17 C 590.886 1079.36 572.814 1071.72 551.345 1062.12 C 549.209 1061.1 547.417 1059.88 545.71 1058.25 C 540.364 1053.12 538.117 1045.42 537.966 1038.2 C 537.861 1033.2 538.029 1029.39 541.641 1025.69 C 553.53 1020.24 571.808 1036.15 583.911 1038.52 C 595.86 1040.86 606.485 1037.03 616.233 1030.39 C 619.745 1020.54 622.259 1015.34 631.803 1010.17 z"/>
<path transform="translate(0,0)" fill="rgb(21,21,21)" d="M 881.685 972.085 C 884.508 971.768 886.598 971.329 889.118 973.001 C 892.212 975.051 894.032 979.285 894.8 982.769 C 896.913 992.35 893.853 1002.41 888.538 1010.39 C 881.728 1020.62 872.39 1027.2 860.291 1029.49 C 843.431 1032.68 829.336 1028.82 815.482 1019.02 C 810.738 1014.73 807.177 1010.59 804.795 1004.56 C 802.387 998.465 801.268 991.824 804.119 985.663 C 806.346 980.852 810.899 980.019 815.492 978.517 C 824.116 984.853 830.387 993.112 841.987 994.214 C 856.993 995.639 870.949 980.918 881.685 972.085 z"/>
<path transform="translate(0,0)" fill="rgb(253,252,251)" d="M 1557.3 1327.37 C 1564.74 1329.41 1573.01 1329.24 1580.69 1330.57 C 1603.82 1334.54 1667.63 1353.31 1688.34 1364.03 C 1711.44 1375.99 1746.43 1404.46 1761.31 1425.84 C 1788.28 1464.6 1789.12 1522.82 1780.73 1567.64 C 1774.4 1601.46 1756.06 1637.19 1730.1 1660.05 C 1723.48 1665.87 1716.02 1670.06 1708.8 1675.04 C 1707.27 1675.9 1705.72 1676.69 1704.13 1677.44 C 1690.87 1683.78 1669.97 1690 1655.65 1684.47 C 1644.03 1679.98 1636.38 1668.73 1631.57 1657.73 C 1636.43 1621.88 1639.82 1616.17 1663.48 1589.32 C 1670.03 1581.88 1676.13 1574.69 1680.48 1565.72 C 1692.2 1541.56 1695.7 1512.99 1686.51 1487.51 C 1680.81 1471.71 1666.3 1452.42 1653.13 1442.2 C 1644.06 1435.16 1622.5 1426.51 1611.23 1424.47 C 1596.15 1421.74 1578.43 1421.83 1564.55 1415.04 C 1564.16 1414.85 1563.78 1414.65 1563.4 1414.45 C 1563.29 1399.56 1565.51 1379.71 1563.92 1365.78 C 1562.51 1353.41 1556.45 1339.78 1557.3 1327.37 z"/>
<path transform="translate(0,0)" fill="rgb(253,252,251)" d="M 1258.45 1460.29 C 1258.98 1460.2 1259.52 1460.1 1260.05 1460.02 C 1271.47 1458.47 1294.09 1465.62 1302.93 1472.79 C 1302.64 1473.27 1302.34 1473.75 1302.06 1474.24 C 1296.28 1484.02 1285.61 1491.51 1278.25 1500.36 C 1271.85 1508.06 1266.88 1516.8 1260.36 1524.34 C 1245.94 1525.51 1235.04 1534.16 1221.73 1539.17 C 1212.03 1542.83 1179.73 1553.88 1170.55 1548.95 C 1169.05 1548.14 1169.13 1547.35 1168.57 1545.87 C 1169.31 1538.71 1173.87 1532.58 1178.01 1526.96 C 1177.68 1524.33 1177.54 1520.76 1175.99 1518.52 C 1174 1515.63 1171.46 1513.09 1167.85 1512.52 C 1154.62 1510.45 1141.72 1526.67 1132.52 1533.4 C 1130.57 1534.84 1130.54 1535.14 1128.06 1534.7 C 1123.79 1530.03 1123.8 1522.64 1123.14 1516.63 C 1124.83 1513.25 1126.39 1509.69 1128.52 1506.55 C 1141.03 1488.13 1178.59 1470.34 1200.13 1466.71 C 1218.9 1463.54 1238.35 1464.01 1256.99 1460.56 L 1258.45 1460.29 z"/>
<path transform="translate(0,0)" fill="rgb(33,33,32)" d="M 560.819 1298.06 C 559.048 1293.38 555.962 1288.97 554.38 1284.32 C 553.543 1281.86 553.902 1280.63 555.167 1278.51 C 557.635 1277.63 558.977 1277.11 561.641 1277.52 C 560.773 1280.86 560.121 1284.07 559.678 1287.49 C 560.507 1289.85 561.04 1291.31 562.936 1293.01 C 563.419 1293.45 563.918 1293.86 564.409 1294.29 L 564.971 1295.57 L 567.416 1296.18 L 567.52 1298.16 C 565.66 1298.52 561.896 1297.48 560.819 1298.06 z"/>
<path transform="translate(0,0)" fill="rgb(33,33,32)" d="M 688.808 1421.51 C 691.95 1421.59 695.115 1422.51 697.399 1424.78 C 699.077 1426.44 699.45 1426.67 699.459 1429.09 C 696.173 1430.21 694.089 1428.36 690.986 1426.99 C 691.449 1429.92 691.807 1430.65 690.552 1433.43 L 688.559 1434.1 C 686.272 1432.7 686.27 1432.27 685.208 1429.76 C 685.314 1426.28 686.936 1424.28 688.808 1421.51 z"/>
<path transform="translate(0,0)" fill="rgb(33,33,32)" d="M 1146.66 1855.9 C 1148.36 1857.76 1148.21 1858.13 1148.46 1860.68 C 1146.84 1864.66 1142.15 1867.1 1138.71 1869.41 C 1137.45 1867.28 1136.57 1866.06 1136.55 1863.5 C 1137.4 1861.76 1138.11 1861.18 1139.75 1860.28 C 1142.17 1858.95 1144.39 1857.46 1146.66 1855.9 z"/>
<path transform="translate(0,0)" fill="rgb(33,33,32)" d="M 416.889 1182.56 C 422.034 1185.93 424.987 1197.57 426.92 1203.3 C 425.991 1202.91 425.627 1202.81 424.742 1202.16 C 418.75 1197.71 417.612 1189.44 416.889 1182.56 z"/>
<path transform="translate(0,0)" fill="rgb(33,33,32)" d="M 1006.09 577.538 C 1008.19 577.996 1010.59 578.598 1012.37 579.845 C 1015.65 582.142 1017.51 586.542 1018.27 590.339 L 1015.22 590.321 C 1010.36 586.823 1008.43 582.957 1006.09 577.538 z"/>
<path transform="translate(0,0)" fill="rgb(33,33,32)" d="M 432.802 1929.99 C 433.042 1930.34 433.364 1930.65 433.523 1931.04 C 434.772 1934.14 434.793 1939.78 433.168 1942.64 L 431.19 1942.51 C 429.303 1940.08 427.109 1937.63 426.917 1934.45 C 428.434 1931.49 429.853 1931.38 432.802 1929.99 z"/>
<path transform="translate(0,0)" fill="rgb(33,33,32)" d="M 1751.23 1383.57 C 1752.12 1384.48 1752.46 1385.36 1753 1386.5 C 1752.78 1390.26 1751.3 1392.63 1749.44 1395.85 C 1748.4 1393.91 1747.72 1391.95 1746.98 1389.88 C 1747.76 1386.58 1748.87 1385.92 1751.23 1383.57 z"/>
<path transform="translate(0,0)" fill="rgb(21,21,21)" d="M 845.099 536.632 C 841.304 535.769 837.622 535.262 834.526 532.738 C 832.027 525.312 836.099 507.981 836.035 499.126 C 835.86 475.007 831.164 450.678 831.179 426.453 C 831.192 406.389 833.852 386.295 834.067 366.216 C 834.213 352.577 831.806 338.907 832.294 325.278 C 833.097 302.868 835.342 280.466 834.963 258.003 C 834.763 246.155 834.442 234.181 833.571 222.364 C 832.993 214.529 831.668 206.724 831.388 198.876 C 830.658 178.463 832.714 156.594 833.693 136.154 C 834.149 126.634 833.506 116.661 834.563 107.239 C 835.026 103.118 837.002 98.4906 840.465 96.0357 C 842.672 94.4707 845.691 94.7321 848.196 95.0254 C 852.149 97.8948 857.242 98.8979 860.946 101.85 C 865.879 105.783 859.663 144.073 861.358 153.136 C 861.954 156.325 862.832 158.181 865.616 160.046 C 884.089 162.14 902.056 158.493 920.498 158.592 L 1135.47 158.412 L 1683.51 158.946 C 1692.86 158.866 1702.64 158.175 1711.96 158.882 C 1721.1 159.576 1730.12 161.613 1739.31 161.853 C 1765.41 162.536 1792.62 160.246 1818.66 158.85 C 1824.2 158.553 1835.25 159.536 1839.01 159.054 C 1840.93 158.808 1842.92 157.757 1844.61 156.862 C 1851.13 161.807 1860.97 166.084 1865.69 172.836 C 1867.18 174.978 1867.23 176.158 1866.81 178.645 C 1861.61 185.515 1846.48 189.235 1838.59 192.97 C 1834.14 191.921 1829.54 192.345 1825 192.23 C 1814.66 191.966 1804.33 191.47 1794 192.199 C 1784.87 192.843 1775.67 194.569 1766.51 194.417 L 1602.5 192.587 C 1594.87 192.445 1587.43 190.361 1579.77 190.357 C 1560.31 190.345 1540.77 191.894 1521.3 192.278 C 1497.77 192.741 1473.99 191.313 1450.42 191.55 C 1425.67 191.8 1400.82 193.288 1376.09 193.03 C 1356.57 192.827 1337.33 189.883 1317.86 188.997 C 1307.47 188.524 1297.09 189.259 1286.7 189.232 C 1267.52 189.182 1248.34 188.738 1229.17 189.277 C 1217.92 189.594 1204.71 188.649 1193.87 191.514 C 1179.9 195.204 1173.74 189.152 1160.94 188.946 C 1133.6 188.507 1105.62 194.651 1078.89 186.995 C 1065.48 191.339 1056.16 185.761 1042.92 187.619 C 1039.7 188.07 1031.99 190.014 1028.91 188.749 C 1027.66 188.237 1026.1 185.944 1024.93 185.671 C 1022.43 185.09 1013.13 189.049 1009.02 188.917 C 1004.5 188.771 1000.02 188.095 995.481 188.027 C 987.445 187.907 979.415 188.813 971.379 188.224 C 965.856 187.82 960.552 185.9 954.988 185.85 C 948.499 185.791 941.566 188.931 935.312 188.601 C 931.19 188.383 927.179 185.687 923.142 185.45 C 919.232 185.221 915.909 188.752 911.495 188.494 C 911.021 188.466 910.547 188.423 910.072 188.394 C 901.576 187.861 867.835 187.127 862.367 192.66 C 858.539 196.534 864.151 241.093 863.975 249.855 L 863.933 251.505 C 871.429 251.408 877.184 251.631 884.302 254.023 C 906.809 247.381 927.945 250.131 951.003 248.885 C 963.893 248.189 976.636 245.635 989.566 244.856 L 990.906 246.163 C 994.034 255.65 994.867 268.836 994.979 278.892 C 1005.29 278.972 1015.84 278.659 1026.04 277.095 C 1030.79 276.367 1035.4 275.991 1038.43 271.86 C 1036.78 265.063 1037.61 258.201 1034.99 251.594 C 1036.26 246.58 1037.74 241.637 1039.23 236.683 C 1039.35 236.343 1039.49 236.004 1039.61 235.663 C 1041 231.828 1040.87 222.843 1044.57 220.961 C 1050.33 218.034 1057.79 221.439 1063.95 221.037 C 1070.78 220.593 1077.3 215.548 1084.32 214.971 C 1099.77 213.701 1114.04 217.598 1129.17 217.848 C 1138.84 218.007 1148.31 215.512 1157.99 216.681 C 1160.05 216.93 1162.11 217.156 1164.16 217.428 C 1169.81 237.855 1170.77 242.236 1170.82 263.602 C 1170.82 265.618 1170.64 270.655 1172.6 271.62 C 1176.98 273.768 1235.6 265.109 1249.23 274.68 C 1253.13 277.412 1257.18 288.025 1262.57 293.111 C 1266.13 310.502 1268.72 328.363 1272.76 345.587 C 1276.92 363.311 1282.53 380.372 1287.32 397.886 C 1290.89 410.942 1293.69 424.572 1298.13 437.349 C 1303.46 452.696 1309.74 468.204 1316.24 483.1 C 1321.64 495.478 1329.22 508.084 1331.93 521.387 C 1333.75 530.278 1332.62 539.248 1327.71 546.984 C 1320.47 558.378 1306.52 562.393 1296 570.051 L 1292.67 568.853 C 1290.94 569.861 1290.54 569.749 1289.65 571.64 C 1291.96 571.81 1293.49 571.609 1295.74 571.076 C 1315.96 566.27 1352.97 568.812 1374.96 567.822 C 1386.69 567.294 1398.39 564.804 1410.13 564.888 C 1407.3 554.365 1407.21 544.167 1406.23 533.432 C 1404.72 516.806 1403.03 500.198 1402.68 483.496 C 1402.32 466.342 1403.22 449.181 1403.18 432.027 C 1403.02 376.098 1403.55 319.61 1398.9 263.833 C 1400.46 260.571 1402.55 254.742 1406.14 253.368 C 1411.23 251.421 1425.16 255.178 1430.92 255.572 C 1444.71 256.517 1458.68 255.919 1472.5 256.346 C 1480.56 256.595 1490.04 258.339 1497.95 257.132 C 1500.63 252.547 1496.17 242.474 1502.23 240.691 C 1504.27 240.092 1507.44 240.421 1509.55 240.547 C 1519.38 241.135 1529.23 237.183 1539.01 236.123 C 1556.66 234.212 1587.5 234.373 1605.12 236.199 C 1606.75 239.106 1610.1 247.166 1613.55 247.968 C 1621.24 249.754 1631.64 248.481 1639.55 248.47 C 1659.48 248.443 1675.46 250.998 1694.42 257.058 C 1697.01 274.676 1691.72 290.935 1693.04 308.327 C 1702.21 308.292 1711.27 308.327 1720.39 309.463 C 1733.77 311.13 1746.43 314.1 1760.02 313.987 C 1762.76 308.084 1765.43 302.14 1768.51 296.404 C 1787.99 295.494 1826.95 289.539 1842.35 303.941 C 1846.01 307.371 1847.07 315.349 1847.16 320.145 C 1847.2 322.061 1846.71 323.183 1846.07 324.94 C 1842.75 333.955 1845.22 354.421 1845 364.823 L 1843.15 520.018 C 1843.02 532.549 1841.51 544.974 1840.98 557.472 C 1840.73 563.415 1835.36 567.79 1835.11 573.496 C 1839.95 577.555 1864.17 575.621 1871.83 576.287 C 1873.58 581.127 1877.99 590.25 1875.04 595.123 C 1872 600.154 1864.88 601.357 1859.56 602.06 C 1846.48 603.789 1832.37 604.273 1819.29 602.346 C 1804.22 600.128 1798.2 597.425 1781.8 597.432 C 1760.94 597.44 1739.82 600.736 1718.96 600.417 C 1707.54 600.242 1696.18 597.275 1684.65 597.185 L 1508.57 596.621 C 1496.35 596.642 1484.09 598.435 1471.89 598.166 C 1461.95 597.947 1452.25 593.916 1442.42 593.709 C 1432.99 593.509 1423.88 597.301 1414.46 597.505 C 1402.89 597.755 1391.23 596.657 1379.64 596.68 C 1351.09 597.011 1322.55 597.941 1294.03 599.47 C 1278.94 600.277 1264.18 600.623 1249.12 602.324 C 1241.53 603.181 1217.44 600.811 1213.21 602.675 C 1210.34 602.006 1209.83 601.653 1207.63 599.675 C 1207.03 597.663 1206.59 597.212 1207.16 595.13 C 1209.35 587.085 1208.44 576.882 1211.85 569.672 C 1213.78 569.027 1214.09 568.862 1216.02 569.853 C 1218.03 570.887 1219.76 572.706 1221.43 574.224 C 1227.85 573.795 1241.13 574.358 1246.05 570.575 C 1244.96 568.431 1243.79 568.043 1241.6 567.267 C 1239.45 566.508 1237.21 565.948 1235.02 565.346 C 1194.37 521.937 1197.46 452.217 1173.43 400.158 C 1172.02 413.374 1174.34 426.219 1175.04 439.402 C 1176.41 465.168 1181.43 550.616 1170.43 569.878 C 1168.45 571.099 1166.5 572.264 1164.44 573.337 C 1158.45 571.614 1152.86 569.542 1147.14 567.078 C 1145.52 564.276 1143.44 561.22 1143.22 557.905 C 1142.09 540.627 1144.18 522.402 1144.92 505.081 C 1145.62 488.782 1145.15 472.236 1144.76 455.925 C 1144.31 437.625 1141.64 419.466 1141.15 401.205 C 1140.24 367.128 1141.38 332.885 1140.89 298.791 C 1140.66 282.691 1138.25 266.803 1139.02 250.702 C 1128.49 249.927 1118.11 250.256 1107.59 249.972 C 1099.49 249.753 1091.03 248.448 1082.97 249.313 C 1078.12 249.833 1074 250.796 1069.72 253.133 C 1067.59 255.488 1067.28 258.286 1066.96 261.344 C 1065.98 270.722 1067.32 280.576 1067.25 290.03 C 1067.07 317.058 1066.71 343.897 1068.05 370.92 L 1073.51 503.713 C 1074.17 518.984 1078.03 534.857 1076.78 550.026 C 1071.59 553.697 1066.37 557.319 1061.31 561.175 L 1050.52 556.529 C 1039.17 537.611 1042.27 452.832 1041.1 427.04 C 1040.48 413.482 1037.14 399.499 1037.86 385.999 L 1038.24 378.109 C 1036.59 362.403 1033.29 328.563 1038.52 313.677 C 1036.64 311.006 1035.86 309.934 1032.58 309.201 C 1026.17 307.769 1004.57 308.729 999.241 312.709 C 995.98 315.144 995.637 317.616 995.314 321.429 C 994.393 332.319 995.112 343.831 995.202 354.766 C 995.325 369.633 994.839 384.628 995.305 399.474 C 995.6 408.85 996.835 418.161 997.229 427.524 C 997.73 439.426 996.757 451.37 997.413 463.276 C 998.444 482.016 1000.37 500.675 999.757 519.493 C 999.649 522.811 999.245 529.37 997.035 532.061 C 993.832 535.962 984.451 538.526 979.606 538.204 C 975.832 537.953 971.394 536.133 969.285 532.791 C 967.293 529.634 967.176 522.833 967.002 519.067 C 966.548 509.233 967.753 499.386 967.436 489.535 C 967.081 478.49 965.681 467.495 965.377 456.461 C 965.13 447.483 965.74 438.495 965.554 429.511 L 963.667 329.058 C 963.479 312.468 959.089 296.482 962.888 280.057 C 951.801 280.381 941.435 277.007 930.554 277.041 C 907.358 277.113 888.26 283.126 864.916 276.284 C 864.888 294.898 863.385 313.509 863.346 332.044 C 863.313 347.829 864.925 363.526 864.655 379.373 C 864.36 396.668 862.809 413.895 862.954 431.208 C 863.211 461.926 869.12 502.301 864.238 531.893 C 857.805 532.821 852.899 537.67 846.543 537.715 L 845.099 536.632 z"/>
<path transform="translate(0,0)" fill="rgb(33,33,32)" d="M 845.099 536.632 C 845.43 536.299 845.846 536.032 846.092 535.632 C 848.09 532.386 848.139 530.606 851.454 527.982 C 855.141 529.236 858.866 530.658 862.661 531.541 L 864.238 531.893 C 857.805 532.821 852.899 537.67 846.543 537.715 L 845.099 536.632 z"/>
<path transform="translate(0,0)" fill="rgb(253,252,251)" d="M 1542.38 264.371 C 1555.31 263.652 1567.61 262.608 1580.13 266.56 C 1579.63 311.969 1573.71 357.503 1572.91 403.001 C 1572.49 427.02 1574.05 451.041 1574.83 475.011 C 1575.26 488.324 1574.54 501.721 1575.35 515.01 C 1576.29 530.299 1578.85 545.451 1579.75 560.768 L 1579.81 560.941 C 1581.31 562.277 1583.79 565.029 1585.74 565.477 C 1589.07 566.24 1596.18 566.008 1599.19 564.517 C 1604.5 561.88 1607.88 557.41 1608.65 551.548 C 1610.18 539.956 1604.93 526.432 1604.78 514.445 C 1604.59 499.987 1605.08 485.519 1604.85 471.062 C 1604.5 448.756 1603.4 426.341 1603.61 404.031 C 1603.85 377.337 1605.39 350.344 1606.45 323.648 C 1606.93 311.357 1605.22 295.149 1609.44 283.545 C 1610.41 280.852 1611.79 279.675 1614.47 278.748 C 1621.98 276.153 1660.33 275.362 1667.35 279.042 C 1667.93 281.812 1666.69 283.383 1665.61 285.928 C 1663.68 304.516 1666.69 322.186 1666.4 340.602 C 1666.15 357.233 1665.26 373.858 1665.01 390.493 C 1664.8 404.922 1665.21 419.352 1664.7 433.778 L 1662.15 511.007 C 1661.7 528.881 1658.43 548.901 1663.69 566.167 C 1651.34 568.757 1638.11 568.271 1625.49 568.768 C 1595.16 569.964 1564.99 572.763 1535.02 566.349 C 1536.69 552.317 1534.36 539.75 1533.38 525.833 L 1529.34 459.585 C 1528.79 449.389 1529.25 439.181 1528.92 428.983 C 1528.64 419.969 1527.52 411.007 1527.18 402 C 1526.39 380.619 1526.56 358.385 1527.08 336.983 C 1527.34 326.721 1528.77 316.513 1529.14 306.269 C 1529.56 294.521 1525.06 282.382 1528.74 270.877 C 1532.25 266.422 1537.04 265.499 1542.38 264.371 z"/>
<path transform="translate(0,0)" fill="rgb(253,252,251)" d="M 1436.23 285.016 C 1447.22 284.101 1486.75 285.309 1495.9 290.255 C 1500 297.302 1495.65 356.835 1495.32 370.473 C 1494.81 391.236 1497.57 411.406 1498.21 432.061 L 1501.17 512.225 C 1501.81 527.455 1501.42 541.965 1504.2 557.047 C 1505.8 558.692 1507.61 560.234 1508.28 562.496 C 1508.68 563.861 1508.08 564.332 1507.49 565.498 C 1504.15 567.198 1501.44 566.989 1497.75 566.882 C 1476.23 564.783 1454.35 566.253 1432.74 564.807 C 1435.03 558.87 1437.66 553.085 1437.75 546.628 C 1437.95 531.77 1433.44 516.648 1433.13 501.596 C 1432.72 481.624 1433.41 461.622 1433.11 441.651 C 1432.96 431.257 1431.33 420.895 1431.38 410.504 C 1431.46 392.856 1433.58 375.522 1432.84 357.779 C 1432.38 346.682 1427.84 297.01 1429.22 291.157 C 1429.86 288.441 1434.02 286.475 1436.23 285.016 z"/>
<path transform="translate(0,0)" fill="rgb(253,252,251)" d="M 1705.46 334.93 C 1719.75 335.998 1736.73 341.036 1751.31 343.434 C 1750.21 355.544 1748.62 367.588 1748.25 379.754 C 1747.77 395.775 1748.71 411.798 1747.97 427.832 C 1747.01 448.61 1744.07 469.893 1744.16 490.649 C 1744.2 502.101 1746.17 513.539 1746.37 524.987 C 1746.54 534.162 1743.22 543.653 1744.73 552.77 C 1745.91 559.831 1753.88 561.531 1755.21 567.258 C 1753.2 569.153 1752.88 568.702 1750.25 568.908 C 1730.57 569.285 1710.46 569.372 1690.87 567.129 C 1689.54 560.668 1690.83 552.331 1690.79 545.609 C 1690.61 506.522 1693.5 467.853 1694.76 428.856 C 1695.49 406.432 1692.24 361.68 1697.51 342.227 C 1698.57 338.305 1702.19 336.843 1705.46 334.93 z"/>
<path transform="translate(0,0)" fill="rgb(253,252,251)" d="M 1202.04 303.318 C 1205.48 303.184 1209.49 303.612 1212.5 305.307 C 1217.37 308.047 1222.62 310.006 1227.78 312.131 C 1231.35 320.004 1232.93 329.233 1235.08 337.595 L 1247.21 385.49 C 1249.22 393.26 1252.51 400.647 1254.73 408.357 C 1259.77 425.852 1264.35 443.326 1270.24 460.579 C 1274.45 472.878 1280.65 485.432 1286.55 497.019 C 1290.52 504.809 1296.5 511.847 1298.15 520.529 C 1290.1 528.218 1284.95 530.199 1274.2 532.948 C 1272.46 533.596 1270.71 534.202 1268.97 534.815 C 1264.41 536.413 1261.03 536.442 1256.22 536.109 C 1248.85 525.631 1241.82 514.417 1237.37 502.343 C 1227.53 475.674 1223.86 448.05 1216.3 420.84 C 1210.57 400.21 1202.18 380.256 1195.84 359.792 C 1193.89 353.507 1192.4 346.905 1190.13 340.741 C 1186.91 331.988 1178.05 319.601 1178.59 310.394 C 1183.01 305.564 1195.63 304.561 1202.04 303.318 z"/>
<path transform="translate(0,0)" fill="rgb(253,252,251)" d="M 1794.4 322.858 C 1799.1 322.414 1809.6 322.825 1813.61 325.352 C 1818.34 328.339 1812.87 348.905 1812.79 354.725 C 1812.5 375.187 1810.64 395.574 1810.04 416.039 C 1809.74 426.535 1810.52 437.027 1810.28 447.526 C 1810 460.189 1808.61 472.83 1808.3 485.5 C 1807.83 505.159 1808.71 524.857 1808.65 544.499 C 1808.63 550.716 1806.05 556.245 1807.21 562.488 C 1810.3 566.373 1816.37 568.808 1820.62 571.371 L 1801.82 569.702 C 1794.58 569.325 1782.44 570.143 1776.53 565.882 C 1777.9 562.516 1779.74 558.91 1779.41 555.209 C 1779.09 551.64 1778.23 547.86 1779.13 544.367 C 1780.48 539.148 1778.66 507.98 1778.72 499.247 C 1779.1 456.737 1780.52 414.243 1782.99 371.803 C 1783.74 357.498 1781.98 344.156 1784.45 329.819 C 1787.51 327.215 1791.06 325.087 1794.4 322.858 z"/>
<path transform="translate(0,0)" fill="rgb(33,33,32)" d="M 921.757 166.694 C 924.938 167.992 928.418 168.407 931.721 169.737 L 932.207 170.987 C 930.341 173.058 927.791 173.523 925.218 174.315 L 916.746 177.361 L 921.757 166.694 z"/>
<path transform="translate(0,0)" fill="rgb(21,21,21)" d="M 1916.61 88.1554 C 1922.79 87.9419 1931.14 88.1273 1935.72 92.9482 C 1938.61 95.9837 1938.85 102.272 1938.81 106.234 C 1938.67 118.105 1934.83 129.735 1935.11 141.774 C 1935.6 162.19 1940.03 182.715 1939.99 203.165 C 1939.95 226.791 1937.68 250.325 1937.14 273.895 C 1936.41 305.897 1937.58 337.97 1936.84 369.934 C 1936.49 385.103 1934.56 400.353 1934.72 415.507 L 1935.29 684.945 C 1935.36 709.604 1937.66 734.123 1937.21 758.911 C 1937.01 769.532 1933.95 779.746 1933.74 790.239 C 1933.56 799.472 1935.09 808.896 1935.47 818.14 C 1935.89 828.121 1935.09 838.266 1934.59 848.241 C 1932 851.788 1929.26 854.712 1926.05 857.704 C 1924.21 859.626 1922.95 861.15 1920.26 861.828 C 1913.59 860.74 1902.86 857.545 1899.19 851.266 C 1895.73 845.356 1896.83 769.351 1897.23 759.069 C 1897.68 747.683 1899.73 736.311 1899.72 724.914 C 1899.7 703.12 1897.53 681.379 1897.85 659.494 C 1898.34 626.092 1901.2 592.882 1901.03 559.386 C 1900.87 527.887 1898.44 496.509 1898.86 464.993 L 1902.15 255.098 C 1902.46 239.179 1904.66 223.362 1904.77 207.461 C 1904.95 182.102 1900.84 156.135 1902.26 130.934 C 1903.02 117.588 1906.03 103.311 1909.98 90.5587 C 1912.01 88.5986 1913.91 88.702 1916.61 88.1554 z"/>
<path transform="translate(0,0)" fill="rgb(21,21,21)" d="M 1003.71 87.7663 C 1034.5 92.1347 1065.45 92.6148 1096.5 93.0312 C 1117.7 93.3157 1138.79 93.6787 1159.99 93.1337 C 1181.37 92.5842 1202.76 91.1786 1224.15 91.4066 C 1254.21 91.7271 1284.09 94.0798 1314.1 95.5033 C 1333.83 96.4392 1353.65 96.6392 1373.4 97.042 C 1380.38 97.1845 1386.91 94.2386 1393.76 94.0005 C 1400.71 93.7589 1407.67 96.2485 1414.66 96.1886 C 1433.25 96.0294 1452.21 92.8985 1470.65 93.071 C 1477.93 93.1392 1485.2 95.6075 1492.49 95.6115 L 1654.16 94.6196 L 1806.03 94.3598 C 1813.49 94.4153 1820.58 90.3653 1828.03 91.141 C 1828.55 92.3112 1829.29 94.702 1830.12 95.5883 C 1835.48 101.333 1854.29 97.3828 1866.2 112.328 C 1861.54 114.439 1857.01 116.888 1852.45 119.201 C 1847.05 122.016 1841.4 123.924 1835.66 125.921 C 1821.06 121.698 1807.06 127.756 1792.39 127.918 C 1759.67 128.279 1726.93 126.117 1694.22 125.776 C 1677.15 125.598 1660.24 127.057 1643.26 127.117 C 1622.96 127.188 1602.45 125.263 1582.15 124.972 C 1577.07 124.899 1572.44 127.184 1567.26 127.128 L 1412.29 126.614 C 1401.92 126.521 1391.66 125.293 1381.31 125.078 L 1186.14 120.44 C 1172.69 120.195 1159.19 121.065 1145.72 121.111 C 1127.72 121.172 1109.7 120.469 1091.72 120.554 C 1070.26 120.656 1026.08 123.494 1007.34 115.758 C 1003.24 114.069 1000.32 111.892 998.818 107.553 C 996.745 101.586 1000.91 92.8654 1003.71 87.7663 z"/>
<path transform="translate(0,0)" fill="rgb(21,21,21)" d="M 1769.03 646.412 C 1784.12 646.259 1798.17 648.997 1813.05 650.705 C 1819.79 651.479 1826.58 651.443 1833.32 652.307 C 1837.95 652.9 1846.65 654.156 1849.49 657.811 L 1846.59 669.939 C 1830.87 682.771 1817.62 679.113 1799.41 675.808 C 1796.24 675.232 1792.7 674.199 1789.53 675.142 C 1776.51 679.017 1756.57 676.184 1742.6 676.561 C 1729.12 676.925 1715.93 679.944 1702.56 680.365 C 1690.48 680.746 1678.38 679.506 1666.3 679.5 C 1641.94 679.488 1617.37 680.835 1593 680.552 C 1582.92 680.435 1573.05 677.404 1562.98 677.431 C 1542.84 677.484 1522.65 679.379 1502.48 679.559 C 1461.22 679.83 1419.96 678.935 1378.75 676.876 C 1371.49 677.686 1364.38 679.388 1357.11 680.141 C 1348.8 681.002 1303.24 683.563 1298.75 679.24 C 1295.47 676.086 1295.61 666.391 1295.23 662.01 C 1297.25 659.699 1299.97 655.862 1302.6 654.329 C 1306.67 651.96 1311.42 653.472 1315.74 654.28 C 1324.54 655.925 1335.09 652.182 1344.01 651.084 C 1356.24 649.58 1369.08 648.307 1381.4 648.23 C 1422.43 647.973 1463.7 650.337 1504.76 650.92 C 1522.13 651.166 1539.5 650.11 1556.86 650.131 C 1567.61 650.144 1578.38 651.198 1589.11 651.029 C 1596.92 650.906 1604.7 649.931 1612.51 649.864 C 1625.12 649.755 1637.85 652.023 1650.49 651.831 C 1656.69 651.737 1662.75 649.448 1668.88 649.379 C 1676.05 649.299 1683.19 652.397 1690.46 652.485 C 1698.74 652.585 1706.88 648.68 1715.18 648.194 C 1723.63 647.699 1732.29 648.405 1740.77 648.344 C 1750.21 648.275 1759.63 647.278 1769.03 646.412 z"/>
<path transform="translate(0,0)" fill="rgb(21,21,21)" d="M 755.152 82.6153 C 760.847 85.1 768.576 87.4739 770.821 93.8759 C 774.183 103.466 770.708 118.608 770.923 128.882 C 771.375 150.434 774.473 171.991 774.896 193.569 C 775.361 217.328 774.283 240.982 774.3 264.711 C 774.306 273.869 775.484 282.988 775.722 292.138 C 776.128 307.767 775.424 323.835 775.233 339.492 C 775.034 355.681 773.291 371.923 773.391 388.094 C 773.449 397.393 775.858 406.566 775.826 415.895 C 775.749 439.184 772.622 462.306 772.741 485.654 C 772.78 493.374 776.605 522.659 773.494 528.073 C 771.663 528.768 770.93 529.093 769.431 530.439 L 771.257 532.508 L 770.817 534.372 C 768.506 536.392 767.946 537.141 764.851 537.708 C 761.84 537.081 758.746 536.657 755.762 535.96 C 752.361 535.166 749.736 532.915 748.04 529.905 C 737.239 510.741 744.091 448.49 744.172 425.292 L 744.287 311.577 C 744.393 290.858 742.127 270.121 742.442 249.392 C 742.734 230.151 744.884 210.935 744.956 191.705 C 745.041 169.098 741.045 146.655 742.196 123.985 C 742.795 112.178 745.649 99.7425 749.137 88.4874 L 755.152 82.6153 z"/>
<path transform="translate(0,0)" fill="rgb(21,21,21)" d="M 1571.65 1586.12 C 1573.62 1585.72 1574.94 1585.83 1576.91 1586.19 C 1578.3 1587.19 1578.99 1587.89 1579.53 1589.54 C 1581.07 1594.3 1582.94 1597.55 1585.7 1601.73 C 1586.63 1603.13 1586.82 1603.32 1587.03 1605.05 C 1583.15 1609.91 1575.61 1616.06 1569.6 1617.86 C 1561.38 1620.33 1551.47 1618.9 1542.91 1619.96 C 1536.7 1620.74 1530.67 1622.79 1524.48 1623.74 C 1510.53 1625.88 1495.75 1626.6 1481.61 1628.23 C 1470.75 1629.48 1459.55 1628.7 1448.89 1631.33 L 1447.49 1631.68 C 1443.5 1630.86 1438.98 1630.13 1435.23 1628.55 C 1433.02 1627.62 1431.34 1626.33 1430.54 1624.01 C 1429.05 1619.65 1430.8 1612.67 1433.07 1608.84 C 1434.3 1606.75 1436.06 1604.62 1438.51 1604.07 C 1445.47 1602.51 1454.1 1603.21 1461.33 1602.3 C 1476.13 1600.44 1490.82 1597.73 1505.61 1595.93 C 1519.39 1594.24 1532.97 1592.3 1546.71 1590.45 C 1554.64 1589.38 1561.92 1588.88 1569.7 1586.68 L 1571.65 1586.12 z"/>
</svg>