<svg xmlns="http://www.w3.org/2000/svg" width="1365.333" height="1365.333" preserveAspectRatio="xMidYMid meet" version="1.0" viewBox="0 0 1024 1024"><g fill="#000" stroke="none"><path d="M0 91.7v91.8h49.3c85.4 0 217.5 1.3 236.7 2.3 21 1.2 32.2 2.9 46.5 7.3 35.1 10.9 58.3 34.6 69.9 71.6 5.1 16.2 9.6 40.7 9.6 52v4.9l-21.2 1.2c-11.7.7-24.8 1.8-29 2.5l-7.7 1.3-8.2-11c-11.5-15.6-50-54-58.4-58.3-8.4-4.4-13.2-5.5-17.8-4.2-14.5 4-21.7 25.6-21.7 65.4 0 17.4.6 24.5 4.9 57.5l2 15.5-2.3 3.6c-8.5 12.7-15.2 31.6-16.2 45.4-2.1 28.7 19.8 54.2 54.8 63.7 7.4 2 10.6 2.3 28.8 2.3 18.9-.1 21.4-.3 32.3-2.8 18.9-4.5 26.8-7.9 37.9-16.5 5-3.9 13.3-13.3 17.8-20l1.5-2.3 8.5 2.6c12.5 3.9 16.2 5.4 19.5 7.9 3.6 2.8 7.1 4 7.9 2.8.3-.5-1-4.9-2.9-9.7-4.7-12-12.8-36.8-16-49-1.6-6.1-3.2-16.4-4.1-26.5-1.6-18.9-4.6-37.7-7.4-47.6-1.1-3.8-2-7.2-2-7.5 0-.4 2.8.2 6.3 1.1 18.8 5.2 31.9 17.2 39.7 36.1 4 9.6 6.6 20.8 9.4 40.4 3.4 23.1 5.7 29.4 16.8 45.7 12.8 18.7 31.4 31.8 50.6 35.4 9.3 1.7 16.7.9 23.5-2.7 2.6-1.3 3.8-1.5 3.4-.7-.2.7-1.5 3.9-2.8 7l-2.4 5.7-23.9.1c-14.3 0-24.4.4-25 1-1.6 1.6 1 1.9 20.9 2.3 10.5.3 28.9.9 41 1.6 12.1.6 32.8 1.5 46 2.1 98.2 4.3 186.5 11.3 232.9 18.5 8.8 1.4 16.7 2.5 17.5 2.5 3.8 0-.5 1-10.3 2.5-15.3 2.3-30 8-42.6 16.5-7.7 5.2-18.2 16.7-21.5 23.4-2.2 4.5-3 5.4-4.4 4.7-.9-.5-9.7-1.9-19.6-3.1s-28.8-3.5-42-5.1c-42.9-5.3-47.7-5.8-73.5-8.4-14-1.4-33.6-3.4-43.5-4.4-9.9-1.1-29-2.9-42.5-4.1-13.5-1.1-27.3-2.4-30.8-2.8-5.8-.8-6.4-.6-9.3 1.7l-3 2.6 3.5 7.5c7.5 16.3 14.7 40.8 16.1 55 .8 8.8-.9 19.8-4.4 27.3-3.4 7.6-7.7 13.4-29 39.6-9.1 11.2-21.9 27.1-28.4 35.5-6.5 8.3-13.4 16.7-15.3 18.7l-3.5 3.6 9.2 5.2c27.2 15.5 52.7 40.9 63.4 63.2 6.1 12.8 7.2 29.4 2.4 38-2.3 4.2-9.9 10.9-12.2 10.9-.8 0-1.1-1.9-.9-6.1.4-6.8-1-16.3-3.9-26.1-1.4-4.8-3.1-8-6.2-11.4-5.9-6.5-7.6-5.2-3.6 2.8 3.8 7.4 6.9 19.4 6.9 26.2-.1 9.2-5.4 17.1-12.3 18.3-2 .3-7.5.2-12.2-.2-7.5-.6-8.5-.9-7.9-2.3 2.2-5.4 2.7-10.6 1.6-17.9-2-12.5-10.2-27.7-13.3-24.6-.8.8-.7 1.8.4 3.4 3.7 5.8 10.4 33.1 9.2 37.7-.6 2.4-.8 2.4-7.3 1.7-15.4-1.6-28.1-8.9-47.3-27.2-15.9-15-22.5-20.1-33.9-25.8-22.5-11.3-48.6-15.6-106-17.5-50.5-1.6-87.9-3.7-118.5-6.6-22-2.1-50.5-6-54.1-7.5-7.8-3.2-9.4-4.1-10.9-6.2-3.1-4.5-1.2-26.4 4.1-46.7 4.5-17 17.5-41 32.3-59.5 3.5-4.4 6.8-8.5 7.3-9.1.5-.7 2-5.7 3.3-11.3 6.6-27.3 17-43.1 41.5-63.1 10.5-8.6 13.7-11.8 16.7-17 4.7-7.9 5.5-13.1 6.3-42 .9-28.4 1.9-36.2 6.1-47.7 1.1-2.9 1.7-5.7 1.4-6.3-1.2-1.9-14.1-7.9-25.6-11.8-11.8-4.1-33-9.6-50.4-13.1-39.3-7.9-92.7-7.5-142.2 1L0 447.2v319.7l4.2.5c2.4.3 10.2 1.3 17.3 2.2 17.6 2.1 52.9 8.3 82 14.4 46.5 9.6 73.4 12.4 156 16 41.5 1.8 53.9 3.3 77 9 36.2 9 70.4 29.1 87 51.2 2.5 3.3 4.5 6.4 4.5 6.9s-3 .9-6.7.9c-3.8 0-24.8 1.1-46.8 2.5-22 1.3-48.1 2.9-58 3.5s-24.5 1.5-32.5 2c-8 .6-21.7 1.5-30.5 2-8.8.6-22.7 1.5-31 2-8.2.5-22.6 1.4-32 2-9.3.6-26.7 1.7-38.5 2.5s-28.5 2-37 2.5c-8.5.6-21.8 1.5-29.5 2-15.2 1.1-71.8 4.8-80.2 5.2l-5.3.3v5.2c0 4.4.3 5.3 1.8 5.3.9 0 10.5-.7 21.2-1.5s37.7-2.8 60-4.5c22.3-1.6 45.9-3.4 52.5-4 6.6-.5 18.3-1.4 26-1.9 14.8-1.1 23.3-1.7 79-5.6 96-6.8 134.3-9 174.5-10 24.7-.7 25.8-.6 36.5 1.8 19 4.3 25.6 5.1 39 5.1 10.9 0 14.1-.4 19.5-2.3 7.8-2.7 16.4-7.4 20.5-11.2 3.4-3.1 1.9-2.9 59.5-7.9 19-1.7 39.2-3.4 45-4 5.8-.5 15.2-1.4 21-2 13.4-1.2 54.3-4.9 59.3-5.3 3.7-.3 4-.1 6.2 4.3 1.2 2.5 5.3 12.1 9 21.5 9.2 23.1 14.7 33.7 21.1 40 16.8 16.9 44.6 16.2 62.1-1.4 18.3-18.4 23-44.8 12.9-72.5-2.8-7.7-3.8-7 11.9-8.6 6.1-.6 12.4-1.3 14.1-1.5l3.1-.3.6 15.6c1 22.2.8 73.9-.2 85.5-1.1 12.2-3.3 19.1-7.9 25.3-7 9.1-15.6 13.9-30.7 17-8.2 1.6-46.7 6.4-87.5 10.9-30.8 3.4-138.1 15.6-180 20.5-44.3 5.1-76.3 8.8-101.5 11.6-13.2 1.5-24.4 3.1-25 3.6-.5.4 90.3.8 201.8.8H828v-9.3c0-5.2.3-13.6.7-18.7.5-8.3.8-9.3 2.7-9.8 1.2-.3 5.5-2.3 9.8-4.4 12.5-6.3 20.6-16.4 24.4-30.6 3.4-13 4.1-76.8 1.3-118.2-2.8-40.2-16.7-59.4-63.1-87.2l-11.6-7-.8-7.6c-.4-4.2-.8-32-.8-61.7-.1-52.8-.1-54.2 2.2-62.8 4.8-19.1 13.3-34.3 23.8-43 7.2-5.9 29.5-17 38.4-19.1 18.3-4.4 37.4-5 49.6-1.6 8.8 2.4 25.5 9.8 32.4 14.4 2.5 1.6 7.2 5.7 10.5 9 14 14.3 18.5 31.5 16.5 64.2-2.9 48.6-4.1 67.4-5 80.9-1.9 27.7-3 45.8-5 79-1.1 18.1-3.8 60.2-6 93.5-2.1 33.3-4.4 67.7-4.9 76.5-.6 8.8-1.5 23.9-2.1 33.5s-1.3 20.3-1.5 23.7l-.6 6.3h85.1V0H617v190.5h-42V0H0zM817 99v92h-37V7h37zm-254 1.5V191h-34V10h34zm179 1.5v89h-32V13h32zm166 4.2v84.3h-38V22h38zm52.4-77c.3 1.8 1.3 13 2.1 24.8.9 11.8 3.6 46.1 6 76.1 2.5 30.1 4.5 56.1 4.5 57.8v3.1h-17.5c-9.6 0-17.5-.3-17.5-.8 0-.4-1.1-14.4-2.5-31.2-1.3-16.8-4-51.4-5.9-77-2-25.6-3.8-48.6-4-51.3l-.5-4.7h34.8zM772 349.9v98l-16.7.3c-9.3.2-17.1.2-17.5 0-1-.4-1.1-194.6-.1-195.5.3-.4 8.2-.7 17.5-.7H772zm-218.3-87.4c4 2.8 5.6 9.7 6.1 27.2.5 19.2-1 32.3-6.9 58.8-3.6 16.2-6.9 29.5-7.3 29.5-.1 0-4.4-4.1-9.6-9.1-11.7-11.2-21.8-19.5-33.1-26.9l-8.7-5.7 2.8-4.9c1.5-2.7 6.6-12.1 11.5-20.9 12.5-22.8 24.9-39.4 34.9-46.7 4.4-3.1 7.1-3.5 10.3-1.3m130.1 102.7-.3 83.3-21.2.3-21.3.2V282h43zm136.5-26.4c-.2 28.4-.3 64.7-.3 80.7v29l-15 .2-15 .1V286.5l15.2.3 15.3.3zm77.7 28.8V448l-10.7.1c-6 .1-12.5.3-14.5.4l-3.8.4-.2-81c-.2-44.6-.2-81.1-.1-81.2s6.7-.1 14.7.1l14.6.3zm38 .4v81h-30V287h30zm-393.6 46.2c-.2 5.4-6.3 17.5-12.1 23.8-10.4 11.3-22.2 14.5-36.4 10-5.4-1.8-8.4-3.5-11.7-6.6-4.2-4.1-4.4-4.5-3-6.6 1.6-2.5 14.9-11.9 15.9-11.2.3.2.9 2.8 1.2 5.9 1.4 13.3 11.3 19 16.2 9.4 1.3-2.4 1.6-5.1 1.3-11.8-.2-4.7-.6-9.2-.9-10-.2-.8 1.1-1.8 3.6-2.8 5-1.8 19-4.2 23-4 2.8.2 3 .5 2.9 3.9M366 419.1c3.5.5 6.5 1.1 6.6 1.2s-.2 2.5-.7 5.2c-2.5 12.9 3.4 25.5 10.7 23 4.3-1.5 6.6-6.5 7.3-15.6l.6-7.9 8 4.5c4.4 2.5 9.5 6.1 11.4 7.9l3.3 3.3-3.7 3.8c-7.2 7.1-19.9 11.2-31.2 10-13.1-1.4-26.6-11.3-35-25.6-4.2-7.2-4.5-9.1-1.3-10 3.8-1.1 16.8-1 24 .2m217 242.7c8.5 2.2 22.5 5.2 31 6.7 38.8 6.6 61 12.2 82 20.5 23.6 9.4 34.9 16.1 64.5 38 9.4 7 25.6 18.3 36 25.1 34 22.4 47.3 36 54.9 55.9 2.7 7.2 4.3 16 3 16s-25.2 2.9-29.9 3.6c-3.9.5-4 .5-6.5-4.3-5.9-11.4-18.8-29.3-30.4-42.4-2.3-2.5-8.4-9.4-13.6-15.5-37.3-43-60.3-58.2-104.9-69.4-15-3.8-37-8.1-60.1-12-25.6-4.2-29.5-6.1-39.5-19.4-5.8-7.7-6.6-9.2-3.7-7.7.9.5 8.7 2.7 17.2 4.9M608.8 785c36.6 2.6 53.6 8.6 79.2 27.8 9.6 7.2 15.7 13.4 21.4 22 2.5 3.9 4.6 7.2 4.6 7.5 0 .2-5.5.8-12.2 1.1-14.2.8-36.6 2.7-66.3 5.6-11.5 1.1-33.8 3.2-49.5 4.5-15.7 1.4-31.6 2.9-35.5 3.4-3.8.5-7.1.8-7.2.7s.8-2.2 2-4.7c6.4-12.9.6-37.9-13.7-59.3-4.2-6.3-4.3-6.6-2.3-7.1 9.1-2.2 57-3.1 79.5-1.5"/><path d="M395.1 485.3c-.6.8-.8 1.7-.5 2 1 .9 4.5-1.3 3.9-2.4-.9-1.3-2.1-1.1-3.4.4m90.1 5.7c-5 5.7-15.5 13-18.6 13-4 0-13-5.3-18.2-10.8-5.7-5.9-7.9-5.7-3.8.4s8.5 10.4 13.5 12.9c7.1 3.7 7.3 4.1 6.5 15.7-.4 5.6-1.2 11-1.7 12s-4.4 3.6-8.7 5.7c-14.3 7.1-32.6 11.9-40.8 10.6-5.2-.7-6.6.9-2.5 3 7.7 3.9 28-.5 50.1-10.9 7.4-3.5 11.2-3.3 20.6 1 9.3 4.3 18.2 5.6 20.3 3 1.1-1.3 1.1-1.7-.3-2.2-.9-.4-1.9-.4-2.2-.1-.7.7-9-2.2-17.6-6.2-3.7-1.7-7.4-3.1-8.2-3.1-4.5 0-6.2-12-2.7-19.5 1-2.2 5.7-8.1 10.3-13.2 8-8.7 11-13.6 9.1-15.3-.4-.5-2.7 1.4-5.1 4m-93.6-3.1c-.4.5-.2 1.2.3 1.5.5.4 1.2.2 1.5-.3.4-.5.2-1.2-.3-1.5-.5-.4-1.2-.2-1.5.3m4.2 28.6c-.3.4-3.2.8-6.5 1.1-3.2.2-15 2.1-26.3 4.2-15.9 2.9-20.5 4-20.5 5.2 0 2.5 9.3 1.6 30.5-2.9 10.7-2.3 20.2-4.5 21-4.8s2.4-.6 3.5-.7c2.7-.1 3.5-2 1-2.4-1.2-.2-2.4 0-2.7.3m119.8 4.4c-1 1.5.5 1.9 12.1 2.6 5.6.3 12.8 1 15.9 1.5 6.7 1.1 8.9.1 6.1-2.8-1.5-1.4-4.2-1.8-17.6-2.1-10.9-.2-16.1 0-16.5.8m-121.2 9.6c-4.9 1.2-16.7 4.8-26.1 8-17 5.6-21.9 8.3-19.5 10.7.8.8 4.1 0 12.9-3.4 10.4-4.1 32.1-11.8 40.8-14.5 2.8-.9 3.2-1.7 1.6-2.7-.3-.2-4.7.6-9.7 1.9m108.5 34c-17.8 11.2-23.4 13.4-42.2 16.7-9.8 1.8-16.1 2.2-31.7 2.3-21.1 0-34.6-1.9-50.5-6.9-8.2-2.6-10.1-2.2-5.4 1.3 8.5 6.3 31.2 15 48.1 18.5 9.7 2 26.5 2.1 35.8.1 16.8-3.5 36-14.1 46.6-25.7 8.2-8.9 7.9-11.7-.7-6.3M292.5 692c-3.3.5-9.8 2.1-14.5 3.6-15.5 4.8-14.6 6 6.1 8 43.2 4.1 112.8 17.3 139.4 26.4 8.7 3 9 1 .6-4-22.6-13.1-39-20.7-57.2-26.4-22-6.8-28.5-7.9-49.4-8.2-10.4-.1-21.7.2-25 .6"/></g></svg>