<svg version="1.1" xmlns="http://www.w3.org/2000/svg" style="display: block;" viewBox="0 0 2048 2048" width="1024" height="1024">
<defs>
	<linearGradient id="Gradient1" gradientUnits="userSpaceOnUse" x1="764.669" y1="1091.19" x2="743.116" y2="1061.11">
		<stop class="stop0" offset="0" stop-opacity="1" stop-color="rgb(0,0,5)"/>
		<stop class="stop1" offset="1" stop-opacity="1" stop-color="rgb(6,22,37)"/>
	</linearGradient>
</defs>
<path transform="translate(0,0)" fill="rgb(1,15,25)" d="M 0 0 L 894.884 0 L 967.884 0 L 1048.76 0 L 1150.3 0 L 1234.94 0 L 1238.71 0 L 1316.18 0 L 1636.23 0 L 1729.16 0 L 1966.66 0 L 2048 0 L 2048 2048 L 1966.41 2048 L 1878.95 2048 L 1654.55 2048 L 832.685 2048 L 0 2048 L 0 1810.02 L 0 1790.1 L 0 1533.4 L 0 894.952 L 0 367.027 L 0 0 z"/>
<path transform="translate(0,0)" fill="rgb(19,78,102)" d="M 967.884 0 L 1048.76 0 L 1150.3 0 L 1234.94 0 L 1238.71 0 L 1316.18 0 L 1636.23 0 L 1729.16 0 L 1966.66 0 L 2048 0 L 2048 2048 L 1966.41 2048 L 1965.78 949.044 L 1139.69 951.004 C 1140.99 933.162 1142.18 915.927 1141.14 898.009 L 1281.92 898.08 L 1281.95 654.345 C 1281.95 639.044 1280.09 575.826 1282.75 565.02 L 1282.78 897.416 L 1338.61 897.139 C 1347.88 897.113 1357.89 896.351 1367.05 897.512 C 1390.36 899.257 1414.55 897.799 1437.97 897.955 C 1455.75 898.073 1474.87 900.029 1492.47 898.27 C 1489.27 898.025 1486.05 897.733 1482.84 897.577 C 1500.05 897.182 1517.26 897.121 1534.47 897.395 C 1546.73 899.146 1566.5 899.302 1578.88 898.017 C 1590.68 897.588 1620.87 895.282 1630.92 897.885 C 1641.76 900.114 1655.41 898.599 1666.58 898.527 L 1736.75 898.104 C 1750.17 897.585 1763.6 897.347 1777.03 897.39 C 1783.61 900.458 1804.18 898.807 1811.71 897.356 L 1812.6 895.17 L 1813.86 897.159 C 1832.73 900.282 1853.85 894.076 1872.57 897.847 C 1875.46 899.446 1958.43 899.733 1965.32 898.52 L 1965.79 896.507 C 1967.27 839.346 1965.92 781.82 1965.9 724.624 L 1966.29 432.169 L 1049 435.016 L 1048.84 502.42 C 1036.37 515.965 1022.82 528.568 1010.31 542.119 C 995.57 558.093 981.965 575.24 968.084 591.967 C 966.675 566.552 967.51 540.774 967.548 515.31 L 967.598 391.534 L 967.884 0 z"/>
<path transform="translate(0,0)" fill="rgb(19,78,102)" d="M 1150.3 0 L 1234.94 0 L 1238.71 0 L 1316.18 0 C 1321.18 22.6719 1326.05 45.9854 1329.58 68.9256 C 1358.99 68.532 1389.31 67.9313 1418.63 70.0759 C 1418.64 66.2797 1417.89 60.6085 1419.65 57.235 C 1419.59 165.182 1420.74 273.299 1419.29 381.23 C 1413.85 383.198 1357.7 382.652 1348.73 381.832 C 1310.81 382.327 1272.88 379.976 1234.94 381.572 C 1206.64 381.015 1178.33 380.958 1150.03 381.401 C 1151.76 254.328 1149.8 127.097 1150.3 0 z"/>
<path transform="translate(0,0)" fill="rgb(226,102,21)" d="M 1150.3 0 L 1234.94 0 L 1234.94 381.572 C 1206.64 381.015 1178.33 380.958 1150.03 381.401 C 1151.76 254.328 1149.8 127.097 1150.3 0 z"/>
<path transform="translate(0,0)" fill="rgb(2,49,71)" d="M 1418.63 70.0759 C 1418.64 66.2797 1417.89 60.6085 1419.65 57.235 C 1419.59 165.182 1420.74 273.299 1419.29 381.23 C 1413.85 383.198 1357.7 382.652 1348.73 381.832 C 1367.63 380.319 1386.92 381.379 1405.89 380.586 L 1406.65 379.733 L 1409.94 380.059 L 1408.28 379.519 L 1408.13 380.091 C 1404.92 377.712 1392.67 378.303 1388.32 378.063 C 1385.65 356.379 1380.96 334.792 1376.93 313.314 L 1356.12 204.36 L 1339.27 116.811 C 1336.21 100.936 1333.82 84.5209 1329.58 68.9256 C 1358.99 68.532 1389.31 67.9313 1418.63 70.0759 z"/>
<path transform="translate(0,0)" fill="rgb(1,15,25)" d="M 1234.94 0 L 1238.71 0 L 1287.48 265.879 C 1294.3 303.609 1302.43 341.232 1308.62 379.056 C 1335.16 378.461 1361.77 377.575 1388.32 378.063 C 1392.67 378.303 1404.92 377.712 1408.13 380.091 L 1408.28 379.519 L 1409.94 380.059 L 1406.65 379.733 L 1405.89 380.586 C 1386.92 381.379 1367.63 380.319 1348.73 381.832 C 1310.81 382.327 1272.88 379.976 1234.94 381.572 L 1234.94 0 z"/>
<path transform="translate(0,0)" fill="rgb(1,15,25)" d="M 1729.16 0 L 1966.66 0 L 1967.01 380.968 C 1961.74 381.098 1951.85 382.387 1947.35 379.964 L 1946.67 378.191 L 1946.08 380.244 C 1938.34 382.922 1887.91 381.362 1876.03 381.561 C 1856.24 380.277 1836.01 380.853 1816.19 381.471 C 1790.86 381.385 1764.39 379.788 1739.2 381.986 C 1714.9 381.031 1690.25 382.121 1665.89 381.969 C 1656.71 381.912 1645.13 382.888 1636.28 380.58 C 1649.75 376.37 1712.02 378.451 1729.13 378.395 L 1729.16 0 z"/>
<path transform="translate(0,0)" fill="rgb(226,102,21)" d="M 1739.08 44.0687 L 1816.18 44.0017 L 1816.19 381.471 C 1790.86 381.385 1764.39 379.788 1739.2 381.986 L 1739.08 44.0687 z"/>
<path transform="translate(0,0)" fill="rgb(253,214,165)" d="M 1850.77 52.4581 C 1874.09 52.2117 1897.41 52.2502 1920.73 52.5735 C 1921.26 67.3236 1922.91 82.1595 1924.03 96.8887 L 1931.4 190.893 C 1935.9 253.372 1940.99 315.807 1946.67 378.191 L 1946.08 380.244 C 1938.34 382.922 1887.91 381.362 1876.03 381.561 C 1868.68 271.835 1856.73 162.264 1850.77 52.4581 z"/>
<path transform="translate(0,0)" fill="rgb(1,15,25)" d="M 1316.18 0 L 1636.23 0 C 1636.34 5.54804 1637.46 13.789 1635.79 18.9949 L 1634.74 13.9642 C 1633.62 29.3894 1634.23 45.1892 1634.23 60.6634 L 1634.24 140.513 L 1634.31 381.339 C 1609.55 381.435 1584.76 381.386 1559.99 381.822 C 1534.67 381.577 1509.4 381.092 1484.06 381.111 C 1462.55 380.542 1440.81 380.929 1419.29 381.23 C 1420.74 273.299 1419.59 165.182 1419.65 57.235 C 1417.89 60.6085 1418.64 66.2797 1418.63 70.0759 C 1389.31 67.9313 1358.99 68.532 1329.58 68.9256 C 1326.05 45.9854 1321.18 22.6719 1316.18 0 z"/>
<path transform="translate(0,0)" fill="rgb(253,214,165)" d="M 1559.96 14.2081 L 1634.74 13.9642 C 1633.62 29.3894 1634.23 45.1892 1634.23 60.6634 L 1634.24 140.513 L 1634.31 381.339 C 1609.55 381.435 1584.76 381.386 1559.99 381.822 L 1559.96 14.2081 z"/>
<path transform="translate(0,0)" fill="rgb(253,214,165)" d="M 1419.63 25.2248 C 1441.14 25.5338 1462.56 25.3152 1484.06 25.0539 L 1484.06 381.111 C 1462.55 380.542 1440.81 380.929 1419.29 381.23 C 1420.74 273.299 1419.59 165.182 1419.65 57.235 L 1419.63 25.2248 z"/>
<path transform="translate(0,0)" fill="rgb(253,214,165)" d="M 1048.76 0 L 1150.3 0 C 1149.8 127.097 1151.76 254.328 1150.03 381.401 C 1142.35 380.968 1133.14 382.712 1125.76 381.085 C 1120.53 382.686 1069.34 381.564 1058.97 381.674 C 1058.96 377.175 1058.89 372.676 1058.78 368.178 C 1057.8 372.264 1059.26 376.388 1057.69 380.494 C 1055.02 382.291 1051.63 381.476 1048.58 381.244 L 1048.76 0 z"/>
<path transform="translate(0,0)" fill="rgb(1,15,25)" d="M 1048.76 0 L 1150.3 0 C 1149.8 127.097 1151.76 254.328 1150.03 381.401 C 1142.35 380.968 1133.14 382.712 1125.76 381.085 L 1125.83 20.5197 C 1103.59 19.5106 1081.01 20.2244 1058.73 20.2409 L 1058.78 368.178 C 1057.8 372.264 1059.26 376.388 1057.69 380.494 C 1055.02 382.291 1051.63 381.476 1048.58 381.244 L 1048.76 0 z"/>
<path transform="translate(0,0)" fill="rgb(253,214,165)" d="M 824.908 674.373 C 861.129 683.605 888.994 697.258 908.58 730.557 C 953.645 807.173 914.336 871.617 992.254 949.556 C 1011.64 968.946 1035.63 984.356 1062.25 991.472 C 1083.71 997.209 1103.91 996.856 1123.38 985.409 C 1124.27 984.885 1125.14 984.332 1126.02 983.782 C 1122.53 993.252 1118.84 1002.65 1114.96 1011.97 C 1079.23 1011.05 1039.99 1007.46 1005.13 1016.31 C 1022.29 1020.33 1043.38 1018.1 1061.1 1018.22 C 1077.45 1018.37 1093.78 1019.09 1110.08 1020.37 C 1109.55 1026 1103.97 1037.67 1099.75 1041.48 C 1099.19 1041.99 1098.59 1042.3 1097.94 1042.7 C 1100.14 1044.87 1101.08 1045.52 1101.99 1048.54 C 1101.18 1050.02 1101.37 1050.49 1099.65 1051.02 C 1098.05 1051.51 1097.03 1051.51 1095.4 1051.39 C 1085.31 1071.37 1074.38 1089.63 1058.73 1105.81 L 1047.01 1113.84 C 1069.91 1162.32 1100.35 1234.49 1081.3 1287.72 C 1071.19 1315.95 1048.1 1339.13 1029.45 1362.1 C 1014.86 1380.37 1000.17 1398.55 985.378 1416.64 C 965.34 1441.28 946.766 1466.49 925.462 1490.12 C 938.634 1496.69 951.536 1503.43 963.823 1511.58 C 1006.1 1539.66 1060.33 1589.96 1076.24 1638.48 C 1082.43 1657.37 1085.7 1683.98 1076.1 1702.24 C 1070.24 1713.41 1060.77 1719.47 1049.68 1724.57 C 1040.86 1728.59 1026.89 1732.91 1017.29 1730.14 C 1002.36 1733.88 985.102 1731.7 970.135 1729.12 L 966.534 1727.92 C 903.956 1729.81 871.999 1681.7 829.245 1646.31 C 811.669 1631.59 791.758 1619.89 770.333 1611.72 C 697.27 1584.37 583.39 1585.29 504.218 1583.93 C 498.803 1562.43 498.658 1538.09 490.392 1517.62 C 474.998 1479.51 435.648 1479.18 402.534 1467.06 C 381.006 1459.32 361.345 1447.14 344.828 1431.32 C 320.967 1408.55 304.487 1376.2 300.996 1343.27 C 299.878 1332.71 300.648 1322.28 300.358 1311.72 C 317.039 1241.06 331.338 1212.27 388.711 1165.53 C 403.213 1153.72 418.241 1141.83 425.629 1124.05 C 439.103 1091.62 432.495 1052.18 434.167 1017.81 C 435.492 990.594 440.839 966.381 451.004 941.204 C 455.155 932.954 466.411 908.844 473.55 905.41 C 480.973 939.933 499.961 966.202 529.57 985.413 C 580.22 1018.28 645.274 1020.4 702.817 1007.79 C 720.682 1003.97 738.162 998.53 755.041 991.54 C 760.184 991.163 765.012 989.816 769.194 986.687 C 786.916 981.079 802.341 969.561 815.128 956.381 C 821.97 950.419 827.236 939.354 834.848 935.162 C 854.015 940.546 866.273 944.948 882.867 956.139 C 885.968 956.732 889.719 957.861 892.831 957.637 C 887.977 942.847 881.46 928.545 876.159 913.898 C 864.528 881.761 853.444 847.27 846.998 813.649 C 844.546 800.86 845.081 787.145 843.925 774.16 C 840.956 740.811 836.122 706.049 824.908 674.373 z"/>
<path transform="translate(0,0)" fill="rgb(226,102,21)" d="M 892.831 957.637 C 911.02 950.688 959.323 950.179 978.606 953.272 C 980.556 956.772 982.457 959.753 982.85 963.818 C 978.849 972.418 975.146 978.89 968.196 985.466 C 960.52 992.828 951.153 1001.24 941.274 1005.39 C 911.669 1017.83 894.455 976.268 882.379 972.44 C 882.036 972.331 881.668 972.321 881.313 972.262 L 876.105 962.903 L 882.867 956.139 C 885.968 956.732 889.719 957.861 892.831 957.637 z"/>
<path transform="translate(0,0)" fill="rgb(1,15,25)" d="M 881.313 972.262 C 881.668 972.321 882.036 972.331 882.379 972.44 C 894.455 976.268 911.669 1017.83 941.274 1005.39 C 951.153 1001.24 960.52 992.828 968.196 985.466 L 974.234 985.483 L 975.517 986.8 C 975.179 988.535 974.879 990.253 974.406 991.957 C 964.861 1008.24 947.592 1013.42 940.32 1035.04 C 937.585 1043.17 935.578 1055.45 939.842 1063.32 C 944.038 1071.06 987.345 1086.65 996.64 1089.25 C 999.805 1088.11 1004.08 1085.88 1007.45 1086.45 C 1006.74 1089.55 1005.33 1092.48 1002.7 1094.43 C 996.054 1099.36 985.109 1095.86 978.058 1093.36 C 967.174 1089.5 954.197 1080.52 942.734 1079.87 C 930.53 1079.17 915.786 1087.9 904.756 1092.7 C 882.707 1102.3 849.515 1114.97 825.253 1108.43 C 821.596 1107.44 818.756 1106.32 816.795 1103 C 821.513 1098.83 843.83 1101.01 851.801 1099.81 C 861.31 1098.39 872.03 1094.6 881.15 1091.47 C 892.153 1087.7 921.903 1078.04 926.868 1066.49 C 929.584 1060.17 928.538 1051.86 929.093 1045.11 C 929.621 1038.68 931.429 1030.24 929.062 1024.04 C 925.424 1014.52 908.303 1009.33 900.751 1002.22 C 892.099 994.074 885.992 983.05 881.313 972.262 z"/>
<path transform="translate(0,0)" fill="rgb(2,49,71)" d="M 1017.29 1730.14 C 1020.57 1727.97 1023.75 1725.82 1026.36 1722.84 C 1040.97 1706.22 1036.36 1674.8 1028.53 1655.9 C 1025.23 1647.92 1017.93 1638.05 1017.48 1629.41 L 1018.67 1628.39 C 1023.47 1629 1026.68 1632.46 1029.67 1636.01 C 1047.42 1657.12 1052.22 1698.13 1049.68 1724.57 C 1040.86 1728.59 1026.89 1732.91 1017.29 1730.14 z"/>
<path transform="translate(0,0)" fill="rgb(2,49,71)" d="M 966.534 1727.92 C 968.236 1706.84 961.673 1682.67 954.889 1662.75 C 953.276 1658.02 945.297 1644.37 945.535 1641.32 C 947.165 1640.12 946.948 1639.74 949.115 1640.09 C 953.706 1640.83 956.94 1645.15 959.306 1648.82 C 970.874 1666.72 979.077 1694.39 974.568 1715.55 C 973.562 1720.27 971.928 1724.66 970.135 1729.12 L 966.534 1727.92 z"/>
<path transform="translate(0,0)" fill="rgb(2,6,14)" d="M 1095.4 1051.39 C 1082.05 1046.63 1041.42 1046.14 1024.38 1044.67 C 1019.29 1044.23 1012.58 1043.93 1009.16 1039.87 L 1010.19 1039.26 C 1038.2 1043.02 1069.05 1036.59 1097.94 1042.7 C 1100.14 1044.87 1101.08 1045.52 1101.99 1048.54 C 1101.18 1050.02 1101.37 1050.49 1099.65 1051.02 C 1098.05 1051.51 1097.03 1051.51 1095.4 1051.39 z"/>
<path transform="translate(0,0)" fill="rgb(2,49,71)" d="M 968.196 985.466 C 975.146 978.89 978.849 972.418 982.85 963.818 C 983.142 973.564 981.952 983.796 975.055 991.328 C 974.851 991.55 974.622 991.747 974.406 991.957 C 974.879 990.253 975.179 988.535 975.517 986.8 L 974.234 985.483 L 968.196 985.466 z"/>
<path transform="translate(0,0)" fill="rgb(1,15,25)" d="M 622.091 1381.44 C 711.701 1378.28 802.426 1420.32 875.212 1469.31 C 851.458 1461.14 827.521 1454.21 803.297 1447.61 C 735.775 1432.03 668.344 1418.99 599.514 1410.38 C 576.073 1407.45 552.387 1405.71 528.862 1403.45 C 553.488 1384.78 592.287 1382.61 622.091 1381.44 z"/>
<path transform="translate(0,0)" fill="rgb(1,15,25)" d="M 1018.8 1121.91 L 1020.65 1122.31 C 1020.69 1123.6 1020.53 1124.43 1019.92 1125.58 C 1004.02 1155.9 956.271 1181.79 924.543 1190.62 C 869.79 1205.84 803.087 1188.92 754.488 1161.28 C 746.641 1156.3 739.07 1151.16 731.73 1145.44 C 747.275 1149.19 762.125 1155.23 777.876 1158.68 C 837.718 1171.78 912.847 1172.75 970.536 1149.29 C 987.415 1142.43 1000.69 1129.53 1017.33 1122.52 L 1018.8 1121.91 z"/>
<path transform="translate(0,0)" fill="url(#Gradient1)" d="M 825.814 1055.53 C 826.804 1055.51 826.359 1055.36 827.144 1055.98 C 783.198 1068.14 741.682 1086.11 698.687 1100.81 C 697.659 1099.54 697.027 1098.35 696.273 1096.91 C 696.637 1094.85 696.752 1094.02 698.245 1092.43 C 708.109 1081.9 786.247 1060.92 805.378 1057.23 C 812.155 1055.92 818.93 1055.68 825.814 1055.53 z"/>
<path transform="translate(0,0)" fill="rgb(2,6,14)" d="M 797.646 1032.42 C 804.643 1031.82 811.407 1032.35 818.392 1032.9 C 780.453 1040.86 742.319 1050.09 704.113 1056.51 C 699.753 1057.27 695.248 1058.16 690.82 1058.24 C 687.553 1058.3 686.021 1057.39 683.808 1055.11 L 684.091 1052.92 C 689.819 1047.81 784.433 1033.69 797.646 1032.42 z"/>
<path transform="translate(0,0)" fill="rgb(226,102,21)" d="M 1647.49 1673.32 C 1668.86 1670.01 1690.37 1667.73 1711.96 1666.49 C 1713.86 1714.49 1714.63 1762.52 1714.25 1810.56 C 1714.08 1836.41 1715.55 1865.02 1709.79 1890.3 C 1706.78 1903.54 1700.87 1916.22 1691.63 1926.26 C 1680.97 1937.85 1667.34 1945.35 1652.25 1949.54 C 1627.31 1956.46 1600.81 1958.99 1575.2 1962.15 C 1535.82 1966.99 1496.41 1971.46 1456.96 1975.58 L 1029.93 2024.56 L 893.833 2040.2 C 873.724 2042.61 852.367 2043.56 832.685 2048 L 0 2048 L 0 1810.02 C 13.5166 1808.63 27.0956 1808.14 40.6392 1807.08 C 77.4036 1804.05 114.188 1801.26 150.991 1798.74 C 244.142 1791.29 337.346 1784.51 430.595 1778.41 C 543.171 1770.84 656.037 1759.67 768.835 1756.37 C 792.024 1755.8 815.21 1755.11 838.392 1754.29 C 852.224 1753.84 866.639 1752.46 880.413 1753.72 C 892.396 1754.81 904.557 1758.48 916.313 1761.09 C 942.388 1766.88 968.881 1770.47 995.642 1768.56 C 1014.26 1767.23 1033.08 1760.62 1048.64 1750.31 C 1056.17 1745.32 1064.18 1737 1073.22 1735.4 C 1091.55 1732.14 1111.02 1731.65 1129.6 1730.07 L 1230.91 1721.09 L 1357.76 1709.52 C 1384.64 1706.98 1412.02 1703.28 1439 1702.74 C 1448.91 1722.53 1456.77 1743.07 1464.92 1763.63 C 1479.5 1800.36 1494.28 1841.28 1535.29 1855.04 C 1556.89 1862.28 1582.94 1860.03 1603.26 1849.88 C 1629.71 1836.68 1649.12 1809.27 1658.07 1781.64 C 1669.78 1745.52 1661.14 1707.49 1647.49 1673.32 z"/>
<path transform="translate(0,0)" fill="rgb(19,78,102)" d="M 0 0 L 894.884 0 L 894.974 648.286 C 871.132 644.415 848.153 644.401 824.091 644.702 C 824.183 640.617 824.229 636.531 824.227 632.444 C 824.176 616.29 821.403 600.353 818.661 584.483 C 808.934 528.183 790.899 475.489 749.254 434.394 C 719.699 405.23 682.943 388.495 642.72 379.642 C 611.587 372.789 584.316 372.569 552.827 371.032 C 493.636 368.143 434.553 368.072 375.314 367.769 L 0 367.027 L 0 0 z"/>
<path transform="translate(0,0)" fill="rgb(226,102,21)" d="M 0 367.027 L 375.314 367.769 C 434.553 368.072 493.636 368.143 552.827 371.032 C 584.316 372.569 611.587 372.789 642.72 379.642 C 682.943 388.495 719.699 405.23 749.254 434.394 C 790.899 475.489 808.934 528.183 818.661 584.483 C 821.403 600.353 824.176 616.29 824.227 632.444 C 824.229 636.531 824.183 640.617 824.091 644.702 C 784.962 645.263 745.767 646.322 707.262 653.98 C 682.492 615.815 596.988 515.901 554.583 506.603 C 545.779 504.673 537.011 505.815 529.357 510.713 C 512.529 521.483 505.157 547.559 501.609 566.07 C 487.695 638.661 501.882 710.177 510.009 782.407 C 487.186 820.589 468.715 859.619 473.55 905.41 C 466.411 908.844 455.155 932.954 451.004 941.204 C 449.466 940.069 447.899 938.975 446.305 937.921 C 420.961 921.225 386.39 911.951 357.064 904.396 C 240.378 873.652 118.148 870.42 5.68434e-14 894.952 L 0 367.027 z"/>
<path transform="translate(0,0)" fill="rgb(226,102,21)" d="M 1582.93 1476.78 C 1582.53 1457.49 1581.11 1438.25 1580.64 1418.97 C 1579.9 1380.66 1579.62 1342.34 1579.8 1304.03 C 1579.82 1279.53 1578.08 1253.7 1582 1229.48 C 1587.35 1196.49 1599.42 1160.98 1622.98 1136.37 C 1659.45 1098.27 1721.41 1081.33 1772.93 1080.7 C 1813.09 1080.2 1864.83 1102.14 1893.46 1130.44 C 1920.91 1157.57 1929.61 1191.77 1929.58 1229.58 C 1929.55 1259.52 1926.66 1289.62 1924.72 1319.49 L 1916.54 1451.94 L 1895.09 1786.87 C 1892 1831.16 1889.19 1875.48 1886.66 1919.81 C 1883.84 1962.44 1880.42 2005.31 1878.95 2048 L 1654.55 2048 C 1655.21 2023.59 1654.95 1997.96 1657.74 1973.74 C 1684.6 1964.38 1710.03 1950.74 1723.09 1924.1 C 1728.55 1912.95 1731.5 1900.69 1733.22 1888.45 C 1737.93 1854.85 1736.91 1818.99 1736.9 1785.06 C 1736.88 1737.43 1737.55 1688.24 1731.23 1640.95 C 1729.78 1629.6 1727.14 1618.43 1723.37 1607.63 C 1705.59 1557.22 1661.03 1525.07 1617.4 1497.84 C 1606.01 1490.72 1594.02 1484.36 1582.93 1476.78 z"/>
<path transform="translate(0,0)" fill="rgb(226,102,21)" d="M 0 1533.4 C 48.5834 1539.2 96.841 1545.69 144.928 1554.84 C 200.407 1565.4 254.992 1578.57 311.12 1585.73 C 372.384 1593.55 434.665 1595.82 496.338 1598.58 C 602.946 1603.36 694.953 1605.93 787.576 1666.88 C 808.69 1680.77 828.23 1695.87 844.036 1715.8 C 849.064 1722.19 853.714 1728.87 857.963 1735.8 C 803.867 1737.04 749.712 1741.32 695.697 1744.57 L 397.437 1763.55 L 150.494 1779.89 C 100.538 1783.14 49.7588 1784.66 0 1790.1 L 0 1533.4 z"/>
<path transform="translate(0,0)" fill="rgb(226,102,21)" d="M 1110.08 1020.37 C 1128.72 1023.54 1149.63 1022.52 1168.56 1023.08 C 1200.12 1023.85 1231.66 1025.15 1263.17 1026.99 C 1372.75 1032.79 1482.59 1038.08 1591.76 1049.45 C 1642.24 1054.71 1692.44 1060.14 1742.25 1070.19 C 1727.46 1071.55 1712.6 1072.73 1698.06 1075.89 C 1662.2 1083.67 1623.29 1103.25 1599.5 1131.76 C 1591.34 1141.54 1585.41 1152.19 1580.3 1163.8 C 1551.52 1154.98 1501 1152.53 1469.36 1148.43 C 1372.04 1135.93 1274.51 1125.21 1176.8 1116.27 L 1100.28 1109.21 C 1086.46 1108.06 1072.48 1107.61 1058.73 1105.81 C 1074.38 1089.63 1085.31 1071.37 1095.4 1051.39 C 1097.03 1051.51 1098.05 1051.51 1099.65 1051.02 C 1101.37 1050.49 1101.18 1050.02 1101.99 1048.54 C 1101.08 1045.52 1100.14 1044.87 1097.94 1042.7 C 1098.59 1042.3 1099.19 1041.99 1099.75 1041.48 C 1103.97 1037.67 1109.55 1026 1110.08 1020.37 z"/>
<path transform="translate(0,0)" fill="rgb(226,102,21)" d="M 504.218 1583.93 C 453.452 1581.43 245.549 1573.28 213.763 1549.67 C 209.427 1546.45 208.01 1541.58 207.364 1536.43 C 205.465 1521.29 208.475 1503.53 210.838 1488.54 C 219.233 1435.25 241.323 1389.02 273.218 1345.91 C 281.868 1334.21 291.636 1323.38 300.358 1311.72 C 300.648 1322.28 299.878 1332.71 300.996 1343.27 C 304.487 1376.2 320.967 1408.55 344.828 1431.32 C 361.345 1447.14 381.006 1459.32 402.534 1467.06 C 435.648 1479.18 474.998 1479.51 490.392 1517.62 C 498.658 1538.09 498.803 1562.43 504.218 1583.93 z"/>
<path transform="translate(0,0)" fill="rgb(19,78,102)" d="M 1642.25 512.597 L 1735.87 512.39 C 1734.8 640.281 1734.5 768.178 1734.98 896.073 C 1715.82 894.824 1696.57 895.322 1677.39 895.578 C 1665.49 895.737 1653.11 895.307 1641.32 896.921 L 1641.19 698.5 C 1641.13 656.844 1639.35 614.326 1641.6 572.76 C 1642.67 552.765 1642.32 532.615 1642.25 512.597 z"/>
<path transform="translate(0,0)" fill="rgb(2,49,71)" d="M 1873.07 537.823 C 1903.23 537.647 1933.59 536.977 1963.73 537.937 L 1965.17 774.865 L 1964.58 847.316 C 1964.42 863.529 1963.32 880.462 1965.79 896.507 L 1965.32 898.52 C 1958.43 899.733 1875.46 899.446 1872.57 897.847 C 1873.1 868.486 1872.3 838.934 1872.29 809.55 L 1872.44 574.003 C 1873.22 561.973 1873.03 549.874 1873.07 537.823 z"/>
<path transform="translate(0,0)" fill="rgb(253,214,165)" d="M 1283.07 564.099 C 1311.05 563.869 1339.04 563.841 1367.02 564.014 L 1366.98 781.566 C 1366.98 817.822 1365.4 854.92 1367.18 891.081 L 1367.05 897.512 C 1357.89 896.351 1347.88 897.113 1338.61 897.139 L 1282.78 897.416 L 1282.75 565.02 L 1283.07 564.099 z"/>
<path transform="translate(0,0)" fill="rgb(226,102,21)" d="M 1474.46 504.562 C 1497.79 503.479 1521.27 504.037 1544.62 504.063 L 1544.64 798.854 L 1544.67 862.96 C 1544.7 872.871 1546.51 886.853 1544.05 896.185 C 1541.28 898.099 1537.8 897.41 1534.47 897.395 C 1517.26 897.121 1500.05 897.182 1482.84 897.577 C 1479.84 897.651 1478.04 898.199 1475.5 896.527 C 1474.15 893.455 1473.61 890.471 1473.54 887.105 C 1473.38 879.433 1474.45 871.701 1474.42 864 L 1474.31 752.895 C 1474.25 670.166 1473.23 587.278 1474.46 504.562 z"/>
<path transform="translate(0,0)" fill="rgb(19,78,102)" d="M 1283.07 564.099 L 1283.14 560.527 C 1288.73 557.713 1423.51 558.915 1440.48 559.462 C 1440.82 589.454 1441.58 891.026 1440.76 892.508 C 1440.47 893.04 1439.95 893.412 1439.54 893.864 L 1434.21 894.069 C 1420.78 893.964 1407.35 893.994 1393.92 894.158 C 1386.07 894.307 1377.47 895.304 1369.7 894.221 L 1368.61 892.163 L 1367.18 891.081 C 1365.4 854.92 1366.98 817.822 1366.98 781.566 L 1367.02 564.014 C 1339.04 563.841 1311.05 563.869 1283.07 564.099 z"/>
<path transform="translate(0,0)" fill="rgb(226,102,21)" d="M 1578.86 572.695 C 1599.78 572.58 1620.69 572.602 1641.6 572.76 C 1639.35 614.326 1641.13 656.844 1641.19 698.5 L 1641.32 896.921 C 1637.86 897.301 1634.4 897.716 1630.92 897.885 C 1620.87 895.282 1590.68 897.588 1578.88 898.017 L 1578.86 572.695 z"/>
<path transform="translate(0,0)" fill="rgb(226,102,21)" d="M 1736.41 572.751 C 1756.34 572.524 1776.27 572.571 1796.2 572.892 L 1796.26 896.947 L 1777.03 897.39 C 1763.6 897.347 1750.17 897.585 1736.75 898.104 C 1735.8 863.388 1736.63 828.47 1736.64 793.726 L 1736.41 572.751 z"/>
<path transform="translate(0,0)" fill="rgb(253,214,165)" d="M 1812.8 573.875 L 1872.44 574.003 L 1872.29 809.55 C 1872.3 838.934 1873.1 868.486 1872.57 897.847 C 1853.85 894.076 1832.73 900.282 1813.86 897.159 L 1812.6 895.17 C 1814.06 858.147 1812.85 820.685 1812.84 783.614 L 1812.8 573.875 z"/>
<path transform="translate(0,0)" fill="rgb(179,153,126)" d="M 818.595 929.02 L 834.848 935.162 C 827.236 939.354 821.97 950.419 815.128 956.381 C 802.341 969.561 786.916 981.079 769.194 986.687 C 765.012 989.816 760.184 991.163 755.041 991.54 C 782.196 974.621 802.26 956.956 818.595 929.02 z"/>
<path transform="translate(0,0)" fill="rgb(151,135,119)" d="M 769.194 986.687 C 773.524 979.821 782.062 977.507 787.911 972.311 C 793.982 966.919 797.943 958.082 806.052 955.246 C 809.628 953.996 811.915 954.938 815.128 956.381 C 802.341 969.561 786.916 981.079 769.194 986.687 z"/>
<path transform="translate(0,0)" fill="rgb(2,6,14)" d="M 1368.61 892.163 L 1369.7 894.221 C 1377.47 895.304 1386.07 894.307 1393.92 894.158 C 1407.35 893.994 1420.78 893.964 1434.21 894.069 L 1435.01 895.622 C 1431.92 898.102 1376.38 897.193 1368.75 896.366 L 1368.61 892.163 z"/>
<path transform="translate(0,0)" fill="rgb(226,102,21)" d="M 1112.07 1568.44 C 1169.75 1565.53 1247.8 1566.23 1302.59 1583.9 C 1351.47 1599.66 1405.28 1640 1428.97 1685.87 C 1414.49 1687.45 1399.69 1687.56 1385.14 1688.39 C 1368.66 1689.34 1352.21 1690.96 1335.75 1692.21 C 1252.28 1700.04 1168.85 1708.69 1085.28 1715.44 C 1090.55 1706.04 1094.37 1697.37 1095.39 1686.49 C 1099.02 1647.92 1076.43 1602.28 1052.29 1573.46 C 1072.02 1570.52 1092.16 1569.31 1112.07 1568.44 z"/>
<path transform="translate(0,0)" fill="rgb(226,102,21)" d="M 1126.79 1311.92 C 1126.91 1311.96 1127.03 1311.98 1127.14 1312.02 C 1137.74 1316.26 1148.85 1318.85 1159.88 1321.75 C 1196.56 1331.41 1233.38 1337.02 1270.61 1343.99 C 1352.7 1359.35 1419.41 1382.09 1488.43 1429.59 C 1511.7 1445.61 1533.53 1463.66 1556.72 1479.78 C 1597.96 1508.45 1642.98 1531.59 1676.21 1570.32 C 1690.65 1587.15 1712.19 1624.69 1710.35 1647.41 C 1707.83 1649.53 1705.01 1649.06 1701.77 1649.32 C 1681.56 1651.22 1660.82 1652.79 1641.02 1657.42 C 1636.67 1648.49 1631.94 1639.74 1626.84 1631.21 C 1602.18 1590.58 1569.21 1555.06 1537.72 1519.71 C 1522.17 1502.26 1506.47 1484.75 1489.08 1469.09 C 1418.7 1405.76 1341.86 1391.07 1251.83 1374.14 C 1229.29 1369.9 1205.41 1368.04 1183.25 1362.46 C 1155.74 1355.53 1140.64 1335.41 1126.79 1311.92 z"/>
<path transform="translate(0,0)" fill="rgb(226,102,21)" d="M 1097.69 520.897 C 1099.39 520.902 1100.68 521.059 1102.33 521.566 C 1107.32 523.105 1111.27 527.947 1113.56 532.425 C 1120.47 545.937 1120.59 564.239 1120.66 579.063 C 1120.87 622.454 1114.14 662.679 1104.62 704.816 C 1100.54 722.857 1096.48 740.826 1090.89 758.473 C 1079.57 744.087 1065.18 731.337 1051.49 719.221 C 1031.44 701.701 1010.66 686.739 987.784 673.14 C 993.378 664.295 997.864 654.607 1002.86 645.407 C 1021.29 611.498 1038.67 577.787 1064.33 548.594 C 1073.95 537.648 1084.37 527.174 1097.69 520.897 z"/>
<path transform="translate(0,0)" fill="rgb(226,102,21)" d="M 690.353 836.271 C 708.87 834.653 728.078 836.409 746.128 840.596 C 744.63 846.29 743.65 852.108 743.202 857.978 C 742.408 869.185 743.248 883.561 751.167 892.217 C 753.859 895.159 757.545 897.278 761.619 897.24 C 765.159 897.207 768.394 895.531 770.855 893.054 C 781.107 882.731 780.027 863.443 779.668 850.101 C 794.712 856.932 808.717 864.454 821.412 875.116 C 823.17 877.152 824.349 878.488 825.218 881.09 C 823.077 887.946 815.404 893.402 809.494 897.163 C 791.798 908.427 768.018 912.765 747.586 907.994 C 721.48 901.898 701.334 882.508 687.798 860.138 C 684.505 854.697 677.761 845.932 679.308 839.749 C 682.231 837.171 686.628 836.948 690.353 836.271 z"/>
<path transform="translate(0,0)" fill="rgb(226,102,21)" d="M 1066.31 821.364 C 1073.33 820.054 1080.86 820.654 1087.92 821.196 C 1082.95 844.993 1071.96 868.497 1053.14 884.536 C 1039.88 895.844 1023.24 902.241 1005.67 900.656 C 987.986 899.06 969.124 890.972 957.637 877.246 C 957.19 875.266 956.584 874.08 957.169 872.083 C 960.516 860.648 980.983 851.418 990.818 845.914 C 991.389 851.45 991.824 857.122 992.92 862.581 C 994.52 870.55 997.932 880.299 1005.23 884.799 C 1008.03 886.525 1011.44 887.169 1014.65 886.363 C 1019.09 885.246 1022.36 881.79 1024.48 877.867 C 1031.72 864.519 1028.55 844.764 1024.01 830.98 C 1038.08 826.651 1051.66 823.239 1066.31 821.364 z"/>
</svg>