<svg xmlns="http://www.w3.org/2000/svg" width="1365.333" height="1365.333" preserveAspectRatio="xMidYMid meet" version="1.0" viewBox="0 0 1024 1024"><g fill="#000" stroke="none"><path d="M447.2 160c-.1 88.3-.6 161.1-1 161.8-.7 1-2.4 1-7.8.2-3.8-.5-11.3-1-16.6-1H412v-5.1c0-11.5-4.5-35.9-9.6-52.2-7.8-25-21.9-45.3-40.1-57.8-14.6-10.1-38.4-17.8-62.3-20.3-20.4-2.1-290.8-4.7-297.2-2.9-1.5.5 48 .9 110 1.1 112.5.2 175.6 1.3 190.7 3.3 29.6 3.8 50.5 12.3 67.3 27.4 6.4 5.7 17.4 19.4 20.2 24.9 1.1 2.3 2.4 4.8 2.9 5.6 7.4 11.9 17.1 52.3 17.1 70.9 0 6.2 1.3 5.8-21.5 6.5-9.3.3-21.3 1.2-26.5 2s-9.5 1.4-9.5 1.3c-.1-.1-1.9-2.7-4-5.7-10.3-14.6-32.8-39-49.5-53.8-22.6-19.9-38.4-18.7-46.7 3.8-4.3 11.6-5.8 23.9-5.8 48.5.1 20.2.5 26 3.3 47.4l3.3 24.3-2.6 4.3c-4.9 8.5-10.3 20.1-12.5 27-3.1 10.1-3.9 30.1-1.5 37.6 4.5 14 13.1 24.7 26.8 33.7 14.7 9.6 27.9 13.2 50.7 13.9 19.1.6 33.6-1.3 50.6-6.8 11.7-3.7 16.4-6 22-10.5 2.2-1.9 4.5-3 4.9-2.6.5.4.5.2.2-.4s1.2-2.8 3.4-5c2.2-2.1 6.1-6.7 8.7-10.2 2.5-3.4 4.9-6.2 5.4-6.2.4 0 2.2.6 4 1.4s6.5 2.4 10.3 3.6c3.9 1.1 8.7 3.2 10.7 4.6 3.3 2.1 3.7 2.8 3.2 5.3-.4 1.7 0 4.1.9 5.8.8 1.5 2 4 2.7 5.4 2.2 4.8 10.1 12.9 14.9 15.4 7.3 3.6 7.5 4.1 6.7 15.2-.4 5.4-1.2 10.6-1.8 11.6-1.4 2.6-19.7 11.2-29.4 13.8-4.8 1.3-11.2 2.2-16.1 2.2-7.1.1-8.3.3-8.3 1.8 0 2.1 4.8 3.9 10.6 3.9 8.9 0 27.8-5.5 42.4-12.4 6.3-3 11.2-3.3 15.5-1 10.3 5.5 22.5 8 25.3 5.2 2.4-2.4 1.3-3.8-3.1-3.8-2.8 0-6.7-1.2-11.5-3.5-3.9-1.9-9-4-11.3-4.6-5.2-1.6-6.9-4.1-6.9-10.4.1-7.2 2.6-11.8 12.3-22.3 7.4-7.9 8.7-9.9 9.7-14.5 1-4.4 1-5.8-.4-9.1l-1.6-3.9-17.8.7c-9.7.4-19.4.8-21.5.9-3.8.2-3.9.1-6.3-5.8-3.9-9.5-12.1-34.3-16-48.2-2.7-9.8-3.8-16.8-5-29.8-1.7-19.6-4.6-38.2-7.4-47.4-1.1-3.6-1.7-6.7-1.5-6.9 1-1 10.5 2.2 17.7 6 19.6 10.2 30.6 30.6 35.3 65.6 3.5 25.9 6.4 34.4 16.7 49.8 13.4 20.1 31.1 32.8 51.6 36.9 8.9 1.8 17.2 1.2 23.3-1.9 3.6-1.8 3.7-.8.5 5.4l-2.3 4.5-24.9.5-24.9.6 25.3.2 25.3.2 2.4-5.3c2.5-5.2 3.2-8.7 1.7-8.7-.4 0-2.4.8-4.5 1.9-15.3 7.8-43.5-2.2-62.3-22.1-5.9-6.2-13.8-17.8-18.2-26.4-3.9-7.7-5.9-15.3-7.8-30.1-3.1-23.6-8-41-14.9-52.3-4.9-8.1-14.1-16.4-22.6-20.5-7.1-3.4-17.4-6.3-18.5-5.3-.3.4.4 3.7 1.5 7.5 3 9.9 5.8 28.1 7.5 47.8 1.2 12.9 2.3 20 5 29.5 3.8 13.8 11 36 15.8 48.3l3 7.9 4.2-.6c2.2-.3 11.8-.8 21.3-1.2l17.1-.7 1.6 3.1c3.3 6.4 1.4 11-9.4 22.8-9.6 10.4-12 15.1-12 23.3 0 5.8 1.8 9.3 5.1 10.1 1.4.4 6.4 2.4 11 4.5s10.5 4 13.2 4.3c3.9.4 4.5.7 3.6 1.8-2.1 2.5-8.6 1.6-18.7-2.7-11.3-4.8-15.4-4.9-24.9-.1-17.1 8.7-38.5 13.3-45.8 10-3.8-1.7-3-3.1 1.4-2.3 5.1.8 18.9-1.8 29.1-5.5 10.6-3.9 19.7-8.6 20.9-10.7 1.6-3 2.5-21.7 1.2-24.1-.7-1.2-3.4-3.3-6-4.7-2.7-1.3-6.9-4.8-9.5-7.7-8.1-9.3-12-20.9-6.5-19.5 1 .3 1.7.1 1.3-.4-.3-.5-.9-.9-1.4-.9s-2.9-1.3-5.2-3c-2.4-1.6-8.2-4.1-13.1-5.4-4.8-1.4-9.6-3-10.6-3.6-3.5-1.8-4.6-1.1-9.4 5.4-5.8 7.9-18.1 19.6-24.3 23-6.8 3.8-22.2 8.4-35.8 10.8-16 2.7-40.7 2.2-53.1-1.1-25.1-6.7-45.2-23.7-52-44-2.3-7.1-1.6-27.6 1.3-36.6 1.9-6 8-18.8 12.8-27.1l2.6-4.4-3.3-24.7c-2.9-21.8-3.3-27.6-3.4-47.8 0-31.8 2.4-44.6 10.7-57.1 5.8-8.8 14-10.6 24.3-5.3 8 4.2 12.5 7.9 27.9 22.9 14 13.6 27 28.2 35.9 40.3 5.5 7.4 5.9 7.7 9 7.2 12.7-2.1 19.1-2.7 41.7-3.6 23.6-1 36-.8 45.2.7 3.5.6 3.7.5 4.3-2.7.3-1.9.4-75 .3-162.4l-.3-159zM574 94.5c0 74.9-.3 94.5-1.2 94.6-.7.1-2.5 0-4-.1-1.4-.1-2.8.2-3.1.7-.3.4 1.7.8 4.4.8h4.9V95.2c0-52.3-.2-95.2-.5-95.2s-.5 42.5-.5 94.5m42.4-91.6c.3 1.8.6 44.7.6 95.2 0 50.6.3 91.9.8 91.9 1 0-.1-188.7-1.2-189.7-.5-.5-.6.6-.2 2.6M817 2.8V6l-18.7.2-18.8.3v184l18.7.3 18.7.2.3-95.2c.2-52.4.2-95.5.1-95.7-.2-.2-.3 1-.3 2.7m-1 95.7V190l-17.7-.2-17.8-.3-.3-90c-.1-49.5 0-90.6.3-91.3.3-.9 4.9-1.2 18-1.2H816zm47.8-5.5c-.1 51.1-.2 94-.2 95.2-.1 1.8.5 2.3 2.4 2.3h2.5l.5-84 .5-84h37l.3 83.2.2 83.3-4.2.1c-2.4 0-10.8.1-18.8.1l-14.5.1 14.4.6c7.9.3 16.7.5 19.5.3l5.1-.4-.5-84.1-.5-84.2-19.2-.3c-10.6-.1-19.4-.1-19.5 0-.2.2-.5 38.1-.8 84.3-.4 67.7-.8 84-1.8 84s-1.3-18-1.2-94.8c0-52.1-.2-94.7-.5-94.7s-.6 41.8-.7 93M528.6 10.6c-.9 2.4-.7 177.7.2 179.2.7.9 4.8 1.2 17.3 1l16.4-.3V9.5l-16.6-.3c-14.5-.2-16.7 0-17.3 1.4m32.9 89.4v89.5h-32l-.3-88.5c-.1-48.7 0-89.1.3-89.8.3-1 4.2-1.2 16.2-1l15.8.3zm147.5.9v88.9l3.3.6c4 .7 24.4.7 27.5-.1l2.2-.5V12h-33zm32 0c0 74.8-.2 88-1.4 88.4-1.9.7-24.5.8-27.3 0l-2.3-.5V13h31zm183.9-74.7c-.2 3.7.6 16.3 4.6 68.3 6.4 82 7.4 94.6 8.1 95.6.7 1.2 32.5 1.1 34.3 0 1.3-.8.9-8.9-3.2-59.3-2.6-32.1-5.5-68-6.4-79.8s-2-22.5-2.4-23.8c-.8-2.2-1.1-2.2-17.9-2.2-12.9 0-17 .3-17.1 1.2m34.1 2c.5 1.3 1.6 12 2.4 23.8.9 11.8 3.7 47 6.2 78.2 2.6 31.2 4.4 57.4 4.1 58.3-.5 1.3-3.2 1.5-16.6 1.5-9.3 0-16.2-.4-16.6-1-.7-1.1-1.6-12.4-7.9-94.5-4.1-52.4-5-65.4-4.7-67.8.1-.4 7.3-.7 16.1-.7 15.7 0 16.1 0 17 2.2m-222.5 224c-.3.7-.6 44.9-.8 98.3l-.2 97h-15l-.3-84.3-.2-84.2-18.3.2-18.2.3 17.7.2 17.8.3.2 84.3.3 84.2 9 .1c5 0 17-.2 26.8-.5 9.7-.3 17.7-.2 17.7.2s3.5.7 7.8.5l7.7-.3.5-81 .5-81 15.2-.3c18-.3 16.2 1.5 16.6-17.2l.2-12.5h45l.5 14.5.5 14.5 14.5.5 14.5.5.3 80.2.2 80.3h-8.7c-4.9 0-11.2.3-14 .6l-5.3.7-.3-80.9-.2-80.9-.3 81-.2 81 32.2.3c17.7.1 33 0 34-.4 1.7-.5 1.8-3.9 1.8-81.5V286h-14.9c-12.7 0-15 .2-15.5 1.6-.3.9-.6 37.3-.6 81V448h-7V286l-2.2-.5c-1.3-.3-7.9-.6-14.8-.8l-12.5-.2-.5-14.5-.5-14.5h-47l-.2 12.5c-.4 18.8 1.2 17-15.7 17-10.8 0-14.6.3-15.5 1.3-.8 1-1.2 24.3-1.3 81.3l-.3 79.9h-14l-.5-98c-.3-53.9-.7-98.1-.8-98.3-.1-.1-8.1-.2-17.7-.2-13.1 0-17.7.3-18 1.2m34.9 4.4c.3 2.6.6 46.5.6 97.5V447h-14.4c-7.9 0-15.8.3-17.5.6l-3.1.6v-97.4c0-53.6.3-97.8.7-98.1.3-.4 7.9-.7 16.8-.7h16.2zm163.4 110.6-.3 80.3h-28l-.3-79c-.1-43.5 0-79.6.3-80.3.3-.9 4.2-1.2 14.5-1.2h14z"/><path d="M541 263.7c-11.6 9.7-20.9 22.1-33.2 44.3-10.6 18.9-14.8 27.5-14 28.6.4.5 4.7 3.6 9.7 6.9 10.9 7.3 23.6 17.8 33 27.4 3.8 3.9 7.5 7.1 8.2 7.1s1.7-1.9 2.3-4.3c.6-2.3 1.3-4.8 1.6-5.6 1.5-4.6 8.6-38.7 9.9-47.8 2-14 2-41.9 0-49.3-2-7.7-4.3-10.4-9.1-10.8-3.3-.2-4.6.3-8.4 3.5m13.3.5c1.3 1.8 2.9 5.4 3.6 8 1.6 6.7 1.4 35.5-.4 48.1-1.7 12-9.4 47.8-12.1 55.6-.3.8-4.5-2.6-11.7-9.5-11.2-10.9-23.2-20.5-33.8-27l-5.6-3.5 5.7-10.7c19.1-35.8 28.2-48.9 42-60.5 5.7-4.7 9-4.9 12.3-.5m86.4 17.5c-.4.3-.7 37.9-.7 83.4V448l2.3.5c3.5.9 39.4.1 40.4-.8 1-1 1.7-146.7.8-158.5l-.7-8.2h-20.7c-11.4 0-21.1.3-21.4.7m41.8 7.5c.3 4 .5 41 .3 82.1-.3 65.1-.5 74.9-1.8 75.7-.9.6-9.6.9-20.5.7l-19-.2-.3-81.5c-.1-44.8 0-82.1.3-82.8.3-.9 5.3-1.2 20.4-1.2h19.9zM527.4 410.5c-8.5 1.5-14.7 3.4-15.5 4.8-.4.5-.3 2.4.2 4.1 1.6 5.6 1.1 14.8-1.1 18.4-1.1 1.8-2.7 3.5-3.5 3.8-5 2-10.3-4.3-11.2-13.3-.7-6.5-2.2-6.8-9.1-2.1-10.9 7.3-11.8 10.4-5 16.3 8.8 7.5 26.5 9.8 36.8 4.8 5.5-2.7 12.1-9.1 16.7-16 4.3-6.3 8.6-19.2 7.1-21.1-1.3-1.5-6.1-1.4-15.4.3m15 .3c.9 1.4-4.2 14.3-7.7 19.6-4.8 7.1-11.3 13.2-17.5 16.3-4.7 2.3-6.1 2.5-13.5 2.1-9.3-.5-15.3-2.7-21-7.8-4.3-3.7-4.6-5.8-1.4-8.7 3.1-2.8 11.4-8.3 12.5-8.3.5 0 1.2 2.2 1.5 4.9.8 6.6 4.1 12.9 7.1 13.7 7.1 1.7 10.9-2.4 11.4-12.4.2-3.8-.1-8.5-.6-10.6-1.1-3.7-1-3.8 2.3-5.2 6.9-2.8 25.8-5.4 26.9-3.6m-200.9 6.9c-4.4 1.1-3.6 4.8 3.4 15.1 10.6 15.6 24.3 23.1 40.1 21.9 12-.9 26.1-8.2 26.8-13.9.4-3.1-4.9-8-13.7-12.7-8.2-4.3-9.1-4.2-9.1 1.6 0 6.5-1.6 11.6-4.6 15.3-3.3 3.8-5.5 3.8-8.8 0-3.2-3.8-4-8-3.4-18l.5-7.9-6.2-1c-6.2-1.1-21.2-1.3-25-.4m28 1.8c1.8.5 2 1.5 2 10.8 0 11.4 1.2 15.1 5.8 17.7 2.4 1.3 3 1.3 5.5 0 3.7-2.1 6.3-7.9 7-15.6.2-3.5.7-6.4.9-6.4.3 0 3.1 1.4 6.4 3.1 6.8 3.6 13.9 9.5 13.9 11.4 0 2.1-5.8 6.5-13 9.9-5.9 2.8-7.4 3.1-16.1 3.1-8.8 0-10-.3-16-3.3-9.7-4.9-19.1-15-25.3-27-1.6-3.2-1.6-3.3.6-4.2 2.4-1 24.7-.6 28.3.5M43 440.6c-14.4 1.4-42.2 5.3-42.9 6s1.1.5 15.1-1.6c24.2-3.6 44.5-5 70.3-5 34 0 49.8 2 85.2 10.5 17.6 4.2 24.7 6.4 37 11.6 12.8 5.4 16.6 7.8 15.7 9.8-.4.9-2 6.5-3.7 12.6-2.8 10.5-3 12.4-3.7 39-.9 29.4-1.5 33.5-6.1 41.4-3.2 5.3-6.3 8.5-16.9 17.1-12.5 10.2-21.6 19.8-27.8 29.3-6.4 9.8-10.4 20.3-15.2 40.4-.6 2.3-1.6 4.8-2.3 5.5-9.4 10-23.1 29.7-29.7 42.9-5.4 10.6-10.6 26.9-13.1 40.5-2.5 14.1-3 28-1 31.6 3.1 6 17.2 9.3 58.1 13.8 20.9 2.3 65.4 5 98.5 6 65.9 1.9 86 3.7 109 9.5 14.4 3.6 28.7 10.1 39 17.7 3.3 2.5 12 10.2 19.4 17.2 19.9 18.8 31.9 25.5 48.7 27.1l7 .7-.4-6.2c-.3-7.3-5.3-27.7-8.1-33.3-1.1-2.3-1.8-4.3-1.6-4.6 1.1-1 4.9 3.8 8.2 10.2 4.5 9.1 6.2 20.1 4.3 28.1-.7 3.1-1 5.9-.6 6.3.3.4 5.8.7 12.1.7 11.2.1 11.4.1 14.4-2.8 3.5-3.4 6.1-10.2 6.1-16 0-5.9-3.5-19.8-6.5-25.6-3.3-6.6-3.2-8 .6-4.4 7.1 6.8 10.7 17.5 11.6 34.7.6 10.3.7 10.7 2.7 10.1 3.9-1.1 9.1-6 11.5-10.8 4.7-9.3 3.5-25.7-2.8-39.2-9.8-20.9-36-47-62.1-61.9-4.7-2.7-8.7-5-8.9-5.2-.3-.2.9-1.8 2.7-3.6 1.7-1.7 8.4-10 14.9-18.3 6.5-8.4 19.4-24.5 28.6-35.9 27.8-34 30.6-38.8 32.8-54 1.2-8.8 0-20.1-3.7-34.1-2.6-10.1-9.9-30.6-13.3-37.3l-2.1-4 2.7-2c2.2-1.8 3.5-2 8.7-1.6 37 3.3 64.4 5.8 75.1 7 7.2.8 24.6 2.6 38.9 4 27.7 2.7 49.8 5.2 74.6 8.4 8.5 1.1 25.2 3.2 37.1 4.6 11.8 1.4 22.9 2.9 24.6 3.4 3.7 1.1 4.3.7 6.8-4.2 3.1-6 11.6-15.7 17.7-20.5 6.1-4.7 20.8-12.9 24.8-13.9 1.4-.3 3-.9 3.5-1.3 2.1-1.5 14.3-4.1 22.3-4.7 5.9-.4 8.2-1 8.2-1.9 0-.8-.5-1.4-1.1-1.4s-8.2-1.1-16.8-2.5c-16.9-2.6-23.8-3.5-52.1-6.5-24-2.5-36.4-3.5-85.5-6.9-13.2-1-45.1-2.8-91-5.1-33.9-1.8-72-3.2-94-3.5l-21-.2 20.5.7c11.3.4 22 .8 23.7.9l3.3.1-3 4.7-3 4.8-19.4-.4c-16.4-.2-19.4-.1-19.9 1.2-.9 2.4.1 2.7 7.9 2.7 6.9 0 27.5 1.8 28.2 2.5s-5.9 12-10.3 18c-2.5 3.3-4.5 6.4-4.5 7 .1 2.3 11.3-13.7 14.1-20.1 1.1-2.4 2.7-4.4 3.5-4.4 2 0 2.9-2.7 1.5-4.4-.7-.8-.8-1.6-.3-1.8.5-.1 2-2.3 3.3-4.7l2.5-4.5 11.9.3c24.9.4 108.2 4.5 146 7.2 55.6 3.8 76.9 5.7 113 9.9 11.6 1.4 40.8 6 41.4 6.6.2.2-1.6.4-4.1.4-2.6 0-7.9.6-12 1.4-26.7 5.1-50.9 21-60.3 39.6-2.4 4.7-2.6 4.8-5.7 4-1.7-.6-12.9-2.1-24.7-3.5-11.9-1.4-28.6-3.5-37.1-4.6-24.8-3.2-46.9-5.7-74.6-8.4-14.3-1.4-31.7-3.2-38.9-4-10.8-1.2-47.9-4.7-75.6-7-6.1-.5-6.9-.4-9.5 1.8l-2.8 2.4 4.1 8.9c11.6 25.2 17.5 51.2 15.3 67.2-1.9 13.6-5.7 19.8-33.4 53.7-8.1 9.9-20.7 25.6-28 35-7.4 9.3-14.3 17.9-15.5 18.9-3.5 3.2-2.5 4.8 6 9.6 20 11 43.8 32.4 56.1 50.3 9.2 13.5 13.6 27.6 12.5 39.8-.6 7.4-3.9 13.3-9.7 17.7l-4.5 3.5-.6-9.9c-.6-9.4-3.8-24.4-6-28.6-1.8-3.4-8.1-9.8-9.5-9.8-2.1 0-1.7 4 1 8.7 3 5.2 6.6 19.1 6.6 25.2 0 5.5-2.7 11.6-6.5 15.1-2.5 2.3-3.3 2.5-13.1 2.5-5.7-.1-10.6-.3-10.9-.6-.2-.3.1-3.1.7-6.1 2.8-13.2-6.1-38.8-13.4-38.8-2.4 0-2.3 2.1.2 6.4 4.2 6.9 9.9 35 7.7 37.3-.4.3-4 .1-8.1-.6-14.6-2.1-26.2-9.1-45.6-27.6-16-15.2-22.6-20-35.2-26C370.6 798 344.5 793.8 289 792c-17.3-.5-38.5-1.2-47-1.5-31.8-1.1-69.7-4.1-100.5-8-20.5-2.7-22.3-3.1-30.1-6.4-6.8-2.9-8-5.3-7.7-15.7.7-26.1 9.7-52.8 26.3-77.9 7.3-11.1 16.9-23.3 18.3-23.4.4-.1.7 2.5.7 5.6 0 3.2.9 9.5 2 14.1 7.2 30 27.9 49.6 61.8 58.3 12.6 3.3 18.2 6 24.8 12.1 5.6 5.2 7.9 10.9 10.4 26.3 1.1 7.1 2.3 13.1 2.5 13.4.7.7.7.2-1.6-13.5-2.6-16.2-4.8-22.2-10.2-27.1-6.7-6.2-10.7-8.1-23.3-11.4-34.1-8.8-56.7-29.5-63.4-58.2-3.5-14.9-2.7-24.3 3.6-44.1 6.1-19 17.5-34.6 36.4-49.9 15.3-12.3 18.9-16.7 22.3-27.2 1.6-5 2-10.6 2.7-34 .9-28.8 1.4-32.9 6.2-47.5 1.1-3.6 2.4-6.7 2.7-7 1.5-1.1 8.9-15 8-15-.4 0-2.7 3.3-4.9 7.4l-4.1 7.4-7.7-3.8c-20.1-10-59.7-20.3-94.7-24.5-15.1-1.8-60.5-1.8-79.5.1M549 522c.5.8.6 1.8.2 2.1s-5.4 0-11.2-.7-14.2-1.3-18.7-1.3c-5.3-.1-8.3-.5-8.3-1.2 0-.8 5.6-1 18.5-.7 15.1.2 18.7.6 19.5 1.8"/><path d="M407.1 476.2c-4.2 4.4-9.8 9.3-12.8 11-2.9 1.6-5.3 3.2-5.3 3.4 0 .6 5.3-1.6 8.6-3.7 3.6-2.2 17.4-16.4 17.4-17.9 0-.6-.1-1-.2-.9-.2 0-3.6 3.6-7.7 8.1m76.9 14.1c-4.8 5.5-14.7 12.7-17.6 12.7-4.4 0-11.8-4.4-17.8-10.5l-5.9-6 3.2 4.7c3.4 5.1 9.4 9.7 15 11.6 4.5 1.6 6.7 1.5 10.6-.4 3.8-1.8 15-11.6 16.6-14.5 1.6-3.2-.4-2-4.1 2.4m-103 27.3c-7.4 1.3-19.3 3.4-26.5 4.6-11.6 2.1-13 2.5-13 4.3s.6 2 5.5 1.9c4.2-.1 45.7-7.9 52.7-10 2.3-.6.2-3.4-2.6-3.3-1.4 0-8.7 1.1-16.1 2.5m18-.6c0 .5-.8 1-1.7 1-1 0-8.8 1.6-17.3 3.5-21.4 4.7-34.4 6.9-36.5 6.1-1.1-.4-1.5-1-.9-1.5.7-.8 17.2-3.9 49.4-9.4 4.7-.8 7-.7 7 .3m-5.5 12.6c-16.6 4.4-42.5 13.1-44.7 15.2-1 .8-1.8 2.1-1.8 2.9 0 2.6 3 2.5 9.7-.2 13.7-5.5 42-15.3 47.6-16.5 4.4-1 5.7-1.7 5.7-3.2 0-2.4-1.1-2.3-16.5 1.8m15.5-1.8c0 .5-2.2 1.4-4.8 2-4.8 1.1-35.7 12-48 16.9-7 2.8-10.2 2-5.9-1.4 3-2.3 26-10.2 43.4-14.8 14-3.7 15.3-3.9 15.3-2.7m467.5 11.8c-17.8 2-31.9 6-45.5 13-19.1 9.8-29.8 22.3-36.4 42.7-5.7 17.4-5.9 20.1-5.4 82.2.3 37.1.8 57.9 1.5 59.6.7 1.6 4.5 4.5 11 8.3 21 12.4 40.4 28.2 48.8 39.6 8.3 11.3 12.6 22.9 14.7 40 1.9 14.2 1.8 114.4-.1 122.5-4.1 17.9-15.7 30.6-34.3 37.4-3.2 1.2-3.5 3-4.1 24.6-.3 10-.2 12.7.3 8 .4-3.9.8-11.4.9-16.7 0-5.3.5-10.7 1-12 .6-1.5 2.9-3.1 7-4.8 19.3-7.9 28.9-21.7 31.1-44.9 1.3-13.2 1.2-84.5-.1-103.3-1.7-24.1-4.9-35.8-13.5-48.9-8.4-12.7-27.6-28.8-50.7-42.4-5.4-3.2-10.3-6.8-11-7.9-.8-1.5-1.2-18.4-1.5-59.6-.4-55.2-.3-57.9 1.7-67.6 4.6-22.2 14.2-38.7 28.5-48.8 18.7-13.3 40.7-19.9 66.1-20 10.9 0 12.9.3 21.4 3.2 5.2 1.8 13.9 5.6 19.5 8.4 8.2 4.2 11.6 6.7 18.1 13.3 9 9 12.4 14.7 15.4 25.5 2.9 10.4 3.5 22.6 2.2 43-1.6 24.5-2.9 45.7-4.1 65-2.6 43.4-9.2 147.6-11 173.5-1.1 15.9-2.6 40-3.5 53.5-.8 13.5-2.2 34.6-3 47s-1.7 29-1.9 37l-.5 14.5.9-13c1.1-16.6 3.6-54.2 5.5-85.5.9-13.5 2.4-37.6 3.5-53.5 1.8-25.9 8.4-130.1 11-173.5 1.2-19.3 2.5-40.5 4.1-65 2.4-37.2-1.8-53.8-17.5-69.6-6.9-6.8-9.7-8.8-19.1-13.4-12.8-6.3-12.9-6.3-22-9-6.9-2.1-21-3.2-29-2.4m-378.6 26.3c-10.7 7-15.1 9-25.3 11.6-30.7 7.8-68.2 6.8-96.5-2.5-3.5-1.2-6.5-1.9-6.7-1.7-.8.8 12.9 4.8 25.4 7.3 24.3 4.9 53.2 4.1 77.8-2.1 11.6-2.9 16.2-5 25.9-11.4 4.3-2.8 8.2-5.1 8.6-5.1 1.9 0 .7 2.2-4.6 7.8-10 10.8-28.6 21.6-43.5 25.2-11.3 2.6-28.2 2.7-40 .1-16.3-3.7-37.2-11.9-46.2-18.2-1.4-1.1-3.2-1.9-4-1.9-4.5 0 16.8 10.7 30.7 15.5 16.8 5.6 26.4 7.5 39.5 7.5 20.7 0 37.1-5.6 55.6-19.1 6.4-4.7 14.4-13.6 14.4-16 0-3.1-3.2-2.3-11.1 3"/><path d="M563 656.2c0 1.7 7.5 12.1 12 16.6 6.2 6.2 11.7 8.1 34.5 11.7 49.4 7.9 77.9 15.6 99.9 26.8 21 10.7 35 22.5 61.5 52.2 24.6 27.6 38.7 46 45.8 59.9l2.5 4.8 4.6-.5c2.6-.3 9.7-1 15.7-1.7 15.6-1.6 15.5-1.6 15.5-4.8 0-3.3-3.2-14.6-5.6-19.8-2.8-6-9.3-15.4-14.8-21.3-8-8.4-17.8-16-38.2-29.4-10.4-6.8-25.4-17.2-33.3-23.2C712.9 690.1 687.9 680 613 667c-14.9-2.5-42.5-9.1-48.2-11.5-1.2-.5-1.8-.3-1.8.7m17.8 4.9c8.1 2.2 23.9 5.5 35.2 7.5 70 12.1 96.6 23 146.1 59.9 7.9 6 22.9 16.4 33.3 23.2s22.1 15 26 18.2c16.5 13.5 26.4 27.4 31.1 43.4 2.9 9.9 2.7 10-10 11.3-6 .7-13.6 1.5-16.7 1.9l-5.6.8-2.5-4.9c-7.1-13.9-21.2-32.3-45.8-59.9-26.2-29.3-40.4-41.5-60.6-51.8-21.5-11-56.3-20.2-104.8-27.7-21.9-3.4-27.5-6.3-37.9-19.9-4.6-6.2-5.5-7.8-3.5-6.6.6.4 7.6 2.5 15.7 4.6M292 691c-7.5 1.2-23.2 5.8-24.7 7.3-2.8 2.7.4 3.8 15.8 5.3 42.4 4 97.4 14.1 133.1 24.4 9.7 2.8 14.4 3.8 15.1 3.1 1.3-1.3 2.1-.7-10.3-7.8-26.4-15.1-44.2-22.5-71.5-29.5-11.1-2.8-13.5-3.1-32-3.4-11-.1-22.5.1-25.5.6m56 3.4c22.3 5.6 39.7 12.3 58.9 22.7 12.8 6.8 24.8 13.9 23.9 13.9-.3 0-7-1.8-14.7-4-25.4-7.3-57.3-14-90.6-19-7.7-1.1-16.7-2.5-20-3s-11.6-1.4-18.5-2c-16.1-1.4-19-1.9-19-3 0-1.9 13.3-6.2 24.5-8 2.8-.5 14-.7 25-.5 17.7.2 21.2.6 30.5 2.9M4 766.9c2.5.5 9.2 1.4 15 2.1 21.1 2.5 45.3 6.7 82.5 14.4 48.1 10 69.6 12.2 155 16.1 43.8 2.1 57.2 3.6 78.9 9.1 28.6 7.2 54.3 20.2 74.7 37.8 6 5.2 17.7 19.2 16.8 20-.2.2-17 1.3-37.4 2.5-42.1 2.4-68.4 4.1-124 7.6-75.8 4.9-102.2 6.6-124 8.1-12.1.8-28.7 1.9-37 2.5-29 1.8-45.1 2.9-89.2 5.9-8 .5-14.9 1.3-15.2 1.6s3 .3 7.4 0c27-2 59.4-4.1 83-5.6 9.4-.6 22.6-1.5 29.5-2 14.8-1.1 12.2-1 145-9.5 71.5-4.5 154.5-9.5 159.7-9.5 4.7 0 4.3-2.2-2-10.2-13.1-17-41.7-35.8-67.1-44.3-29.6-9.9-47.1-12.6-99.1-15-85.4-3.9-106.9-6.1-155-16.1-43.5-9-74.4-14.1-95.5-15.8-5.5-.4-5.8-.4-2 .3m533.1 17.5c-6.2.6-10.6 1.6-10.8 2.3-.2.6 1.2 3.2 3.1 5.7 5.2 6.8 13 23.1 15.2 31.6 2.6 10.5 2.5 21.1-.4 27.4-1.2 2.7-1.9 5.3-1.5 5.7.7.6 37-2.5 94.3-8.1 11.8-1.1 31.2-2.7 43-3.6 33.6-2.4 34-2.4 34-3.9 0-2.5-8.5-14.1-15.5-21-8-8-25-20-35.7-25-10.6-5-28-9.2-45.3-11-17.6-1.8-64.4-1.8-80.4-.1m80.2 1.1c15.1 1.5 30.7 4.9 39.3 8.5 19.5 8.1 42.5 26.2 52.3 41l4.3 6.5-2.9.6c-1.5.4-5.9.7-9.8.8-8 .2-30.8 2-63.5 5.2-51.1 4.9-92.5 8.6-93.2 8.2-.3-.2.3-2.2 1.5-4.6 2.7-5.5 2.9-17.3.3-27.7-2.1-8.9-10-25.8-15.1-32.4-2.4-3.1-3.1-4.8-2.3-5.1 7.3-2.6 66.8-3.3 89.1-1"/><path d="M848.5 832.6c-1.1.1-6.9.8-13 1.5-6 .6-11.3 1.6-11.6 2.1s.6 4.6 2.1 9.1c3.9 11.6 5.5 25.6 4.1 35.4-1.7 11.8-8.3 24.5-17.5 33.8-10.2 10.3-17.9 13.5-32.3 13.5-6.6 0-9.6-.5-14.8-2.6-13.7-5.5-21.9-16.4-32.5-43.4-2.3-5.8-4.5-11.4-5-12.5-8.4-20.7-7.7-19.7-14.8-19-3.1.3-20.5 1.9-38.7 3.5-18.1 1.7-40.2 3.7-49 4.5-17.9 1.7-55.7 5-74 6.5-17 1.4-18.2 1.7-23.9 6-6.9 5.1-15.9 9.5-22.7 11-9.8 2.2-31.9.8-48.9-3-12.8-2.9-16.1-3.2-28-3.1-37.3.4-98.5 3.7-178 9.6-19 1.4-41.2 3-49.5 3.5-8.2.6-21.1 1.4-28.5 2-39.9 2.9-58.5 4.3-88 6.5-17.9 1.4-42.4 3.2-54.5 4-12.1.9-23.8 2-26 2.4-3.6.8-3.5.9 1.5.5 6.4-.5 30-2.2 86-6.4 22.3-1.7 49.3-3.7 60-4.5s26.7-1.9 35.5-2.5c8.8-.5 19.2-1.2 23-1.5 105.3-8 176.4-12.1 218.5-12.6 11.9-.1 15.2.2 28 3.1 17 3.8 39.1 5.2 48.9 3 7.6-1.7 17.4-6.2 23.7-11 6.2-4.6 6.2-4.7 22.9-6 11.1-.9 65.9-5.7 85-7.5 3.3-.3 20.6-1.9 38.5-3.5s34.9-3.2 37.7-3.5c6.6-.7 6.3-1.2 16.4 24.2 14.2 35.2 20 43.8 33.8 50.1 6.8 3.1 20.3 4.1 29 2.2 20.2-4.4 36.8-25.4 39.6-50.1.9-7.7-1.1-22.7-4.5-32.7-1.5-4.5-2.5-8.4-2.1-8.6.6-.4 10.9-1.7 24.2-3.1l5.6-.6.6 7.7c1.1 12.5.8 89.5-.3 98.1-1.9 14-9.4 25.4-20.9 31.6-9.1 5-22.7 7.3-84.1 14.2-17.3 1.9-55.6 6.2-85 9.5-29.4 3.4-57.3 6.5-62 7-4.7.6-12.1 1.4-16.5 1.9-4.4.6-19.7 2.4-34 4-25.5 3-34.2 4-87.5 10.1-14.6 1.7-29.2 3.3-32.5 3.6-7.8.7-10.5 1.3-10.5 2.2s3.7.8 6-.1c.8-.4 9.4-1.5 19-2.6s25.4-2.9 35-4c62.3-7.2 79.1-9.1 112.5-13.1 13.3-1.5 16-1.8 71-8 29.2-3.3 65.2-7.4 80-9 63.9-7.1 82-10.2 90.9-15.4 5.5-3.2 11-8.7 14.2-14.2 5.3-9.1 5.7-12.3 6.1-58.9.3-23.7.2-48.1-.2-54.3l-.7-11.2-2.6.1c-1.5.1-3.6.3-4.7.5"/></g></svg>