<svg xmlns="http://www.w3.org/2000/svg" width="1365.333" height="1365.333" preserveAspectRatio="xMidYMid meet" version="1.0" viewBox="0 0 1024 1024"><g fill="#000" stroke="none"><path d="M45 51.1c.1 28.3.1 64.8 0 81.1V162H31c-7.7 0-14 .3-14 .7 0 .5 6.4.8 14.3.9 12.8 0 26.1 1 77.2 5.9 26.4 2.5 69.3 6.5 81 7.5 6.1.6 14.8 1.4 19.5 2 4.7.5 10.3.9 12.5.9 5.3-.2-12.9-2.2-59-6.4-20.9-1.9-47.2-4.4-58.5-5.4-11.3-1.1-27-2.4-35-3s-16.4-1.4-18.7-1.7l-4.2-.5V81.8c0-44.6-.3-81.3-.6-81.6S45 22.8 45 51.1"/><path d="M169 1.1c-1.4.6-11.3 3.8-22 7.1-10.7 3.2-20 6.1-20.7 6.3-.9.3-1.1 17.6-.6 77.2.3 42.2.8 77 1.1 77.3.2.3.3-34.1.1-76.4l-.4-77L145 9.9c10.2-3.2 20.4-6.4 22.8-7.1 2.3-.7 4.2-1.6 4.2-2 0-.9.2-1-3 .3m177.5 7.7c-.3 191.4-.5 207.8-2.4 204.6-3-4.9-8.8-10-14.7-13-3-1.5-5.7-3.2-6-3.6-.7-1.2-4.2-1-4.6.2-.2.7-3.8.2-9.8-1.5-5.2-1.4-10.5-2.5-11.7-2.5-1.3 0-2.3-.5-2.3-1.1s.7-.9 1.5-.5c.8.3 1.5.1 1.5-.4 0-.6-1.1-1-2.4-1-1.9 0-2.3.4-1.9 2 .3 1.2 1.4 2 2.7 2 1.1 0 7.1 1.3 13.2 2.9 11.1 2.9 19 6.8 24.8 12 4.1 3.8 10.8 13.5 14.9 21.6 5.7 11.4 29.7 78.4 29.7 82.9 0 1.1-4.2 1.5-22.2 1.9-13.2.4-25.4 1.2-29.8 2.1-7 1.4-7.7 1.4-10-.3-1.4-1-10.2-11.4-19.7-23.2-26.4-32.8-34.5-40.3-48-44-7.9-2.2-11.7-2.4-13.1-.7-1.2 1.6-7.3 13.6-10 19.8-3.5 7.9-7.1 18.6-10.1 30.2-5.8 22-6.3 26.7-6.8 62.8l-.5 33.5-3 9c-5 15.2-7.1 25.2-10.3 49.6-2 15.4-2.8 17.5-7.8 20-4.7 2.5-10.3 2-14.7-1.1-2.9-2.1-6.9-2.6-8.6-1.2-.5.5-3.8 1.9-7.4 3.2s-11.5 4.5-17.6 7.2c-6.4 2.8-12.6 4.8-14.6 4.8-4.3 0-5.1-.9-25.4-31-15.8-23.5-20.1-29.3-33-44.6-10.2-12-13.6-14.7-15.7-12.4-.9 1-.9 1.1 0 .6 2.1-1.1 5 1.5 14.7 12.9 12.9 15.2 17.2 20.9 33 44.5 7.6 11.2 15.7 22.8 17.9 25.8l4.1 5.4 5.6-.5c3.5-.3 8.8-2 14.5-4.7 10.2-4.7 26.3-11 28.3-11 .8 0 2.5.9 3.9 1.9 3.9 3.1 10.3 3.6 15.5 1.3 5.3-2.3 6.2-4.6 8.4-21.5 3.1-24 5.2-34.1 10.2-49.2l3-9 .5-33.5c.5-36.1 1-40.8 6.8-62.8 1.6-6.2 4.3-15 6-19.5 3.7-10.2 13.1-28.8 15.1-30.1 2.5-1.5 13.1 1.3 19.8 5.2 8.8 5.2 17.5 14.2 35.4 36.7 18.4 23 21.3 26.4 24.1 27.5 1.2.4 5.3.2 9.5-.7 4.3-.8 17.2-1.6 30.3-2 21.4-.5 22.7-.7 22.7-2.4 0-4.5-22.7-68.7-29.5-83.6-6.4-13.9-13.7-22.7-23.4-28-7.8-4.3-7.6-4.1-6.9-4.9.7-.7 11.2 5.1 15.3 8.4 1.6 1.4 4.5 4.4 6.4 6.9 1.9 2.4 3.8 4 4.2 3.6.8-.8 1.5-215 .8-215.7-.2-.3-.4 3.5-.4 8.2M409 85c-.3 47-.5 85.6-.5 85.7s.5-.1 1-.5c.7-.4.8-31.3.5-85.7l-.5-85zM492 .2c-.1.2-.3 34.9-.5 77.3-.3 42.3-.7 80.8-.9 85.5-.2 5.5-.1 7.3.4 5 .8-3.5 2.2-168 1.4-168-.2 0-.4.1-.4.2"/><path d="M495 48.2c0 52.1-1 123-1.7 123.8-.3.3-33.1.4-73 .2-59.7-.3-72.3-.1-71.7 1 .5.7.9 2.6.9 4.3.1 1.6.2 5.7.3 9l.2 6 114.2-.4c67.5-.2 149.9.2 201.1.9l86.7 1.3v27.1c.1 14.9 0 74.4 0 132.3-.1 101.2 0 105.2 1.8 106.2 1 .5 6.7 1.3 12.8 1.7l10.9.7V231.2c0-127.1-.1-231-.1-230.9-.8.9-1.3 101.6-1.4 264.6v196.4l-10.2-.8c-5.7-.4-10.9-1.2-11.7-1.8-1.1-.9-1.2-37.8-.8-230 .3-125.8.3-228.7.1-228.4-.2.2-.6 38.6-.8 85.3-.3 46.7-.5 85.5-.6 86.2 0 1-16 1.2-78.2 1l-78.3-.3V158c.1-8 .2-45.7.3-83.9.2-62.1.1-69.6-1.3-71-1.3-1.3-4.5-1.6-19.6-1.5-9.9.1-18.3.4-18.7.8-1.2 1.2-2 40.3-2.1 106.6-.1 34.3-.4 62.7-.7 63-.8.7-36 1.2-41.2.4l-4.3-.5.5-7.7c.3-4.2.2-42.8-.3-85.7l-.9-78 .3 81c.2 44.5.1 83.4-.2 86.2l-.6 5.3h-11.6l.6-86.5c.3-47.6.3-86.5 0-86.5-.4 0-.7 21.7-.7 48.2m98.3-44.3c1.6 1.2 1.7 7 1.7 64.1 0 34.5-.3 72.2-.7 83.8l-.6 21.2h-39l.6-83.3c.3-45.7.8-84 1.2-84.9.8-2 5.7-2.6 23.1-2.4 8.7.1 12.6.5 13.7 1.5M672.8 174H750l.2 8.7.2 8.8.3-8.8c.5-11.8 2.3-11.2 2.3.9v9.6l-58.2-.9c-32.1-.4-122.5-.8-201.1-.8H351l-.2-5.5c-.1-3-.2-7.2-.3-9.3l-.1-3.8 122.6.5c67.4.4 157.3.6 199.8.6M932.6.8c-.2.4-.7 4.1-1 8.1-.3 4.4-1.1 7.8-1.8 8.3-.8.4-.8.8-.2.8 1.1 0 1.1 36.2-.2 116.8l-.6 38.2-47.4-.2c-26.1-.2-47.4 0-47.4.5 0 .4 29.6.7 65.8.7l65.9-.1.6-30.7c.4-16.9.7-37.3.7-45.5V83h2.8c3.8 0 13.2 5.8 15.9 9.9 1.3 1.9 2.3 2.7 2.3 1.8 0-4.5-12.2-12.7-18.9-12.7H966v16.2c0 36-1.3 71.8-2.6 71.8-.6 0-1.4.7-1.8 1.5-.5 1.3-2.9 1.5-15.8 1.3l-15.3-.3.3-56.5C931.3 35.1 932 3.4 933.6.8c.3-.5.3-.8 0-.8s-.7.3-1 .8M965 172c0 .5-.4 1-1 1-.5 0-1-.5-1-1 0-.6.5-1 1-1 .6 0 1 .4 1 1"/><path d="M967.7 9.2c-.8 10.6-1 66.8-.4 67.5.4.4 1.6-75.9 1.2-76.5-.1-.1-.5 3.9-.8 9M991.8 5c-.5 3-.8 17.3-.8 31.7 0 25.5.1 26.3 2 26.3s1.9-.9 2.2-28.5c.2-21.5 0-28.5-.9-28.5-.6 0-1.3-1.5-1.5-3.3-.2-2.6-.5-2.1-1 2.3m2.2 29.5c0 17.7-.4 27.5-1 27.5s-1-9.8-1-27.5.4-27.5 1-27.5 1 9.8 1 27.5M668.2 7.7c-2.4.5-3.5 2.1-4.6 6.8-.5 2-.4 2.7.2 2 .6-.6 1.2-2.1 1.4-3.5.4-3.4 4.5-5.2 9.7-4.4l4.1.7.2 7.1c.1 3.9.1 8.4.1 10.1q-.15 3 .6 1.5c.5-.8.6-5.7.3-10.8-.4-7.9-.7-9.2-2.2-9.2-1 0-3-.2-4.6-.4s-3.9-.2-5.2.1m13.9.2c-.6.4 1.7 1.3 5.2 2 6.3 1.3 34.6 10.2 40.5 12.7 1.8.8 4.8 1.4 6.7 1.4 1.8 0 4.5.4 5.9 1 1.5.5 2.6.6 2.6 0 0-.5-2.1-1.1-4.7-1.5-5.3-.6-6.2-.9-30.3-8.5-24.6-7.7-24.8-7.8-25.9-7.1m196.3 7.6c-1.3 2-1.7 6.4-2 25.7-.8 50.5-1.3 131.1-.8 130.5.3-.3.7-24.7 1-54.4.7-92.9.9-99.1 3-101.5 1.7-1.8 2.9-2 14.6-1.6 6.9.1 12.9.5 13.2.8s.1 35.2-.3 77.5c-.4 42.4-.5 77.6-.1 78.3.4.8.7-23.8.8-54.5.2-59.3.8-76.3 2.6-77.5.7-.5.7-.8-.3-.8-1.1 0-1.1-.3-.1-1.5.9-1 .9-1.5.1-1.5-.7 0-1.1-3.4-1.1-10.4V14.3l-3.7-.7c-2.1-.3-8.6-.6-14.5-.6-10.3 0-10.8.1-12.4 2.5m-50.8-.6c-.3.5-.6 36.2-.6 79.5 0 48.9-.4 78.6-1 78.6-.5 0-1.1-6-1.3-13.8l-.3-13.7-.2 14.2c-.2 13.7-.1 14.3 1.8 14.3s2-.7 2-24.4v-24.3l4.3-1.6c7.2-2.7 12.7-3.8 18.4-3.8 3 0 5.3-.3 5-.6-1.3-1.3-11.9-.2-19.5 2l-8.2 2.4.2-54.1.3-54.1 14.3-.3 14.2-.3v155l-11.7.3-11.8.3 12.3.5 12.2.5V14h-14.9c-8.3 0-15.2.4-15.5.9m31.9 3.8c0 2.3.3 4.3.8 4.3.4 0 .7-1.6.7-3.6v-3.6l4.6.7c2.6.3 5.3.9 6.1 1.2 1.3.5 1.4 10.2.8 77.2-.4 42.1-.5 76.4-.2 76.1.2-.3.8-35 1.2-77.2l.7-76.6-5.8-1.1c-3.3-.7-6.6-1.3-7.4-1.5-1.1-.2-1.5.7-1.5 4.1m-349.4 26c.4 16.4.8 51.6 1 78.3.3 35.3.5 41.4.7 22.5.4-32.8-.8-130.5-1.7-130.5-.3 0-.3 13.4 0 29.7m23.7-28.9-2.8.3v69.5c0 45.1-.3 69.4-1 69.4-.6 0-1.1-14.9-1.3-41.3l-.2-41.2-.3 41.2C528 154 528 155 530 156c2 1.1 2 .8 2-69 0-66 .1-70 1.8-70.1.9 0 5.3-.1 9.7-.2l8-.2.7 3c.6 2.9.6 2.9.5-.5l-.2-3.5h-8c-4.4 0-9.2.1-10.7.3"/><path d="M789.3 19.2c-.8 1.4-.5 152 .4 152.8.3.3.3-33.6.2-75.2-.3-59-.1-76 .9-77 .6-.6 1.2-.8 1.1-.3 0 .6.3 35.5.6 77.7l.7 76.8H779v18.5l118.2-.3c65.1-.1 120.3-.4 122.8-.6s-50.5-.3-117.8-.2l-122.2.1V175h7.6c6.7 0 7.5-.2 7-1.8-.9-3.2-1.9-150.9-1-151.4.5-.3 7.4-.7 15.4-.9l14.5-.4.3 53.2c.1 29.3.6 53.3 1 53.3s.5-24.2.2-53.7l-.5-53.8-15.7.4c-11.3.2-15.8 0-15.8-.8 0-1.5-2.7-1.4-3.7.1m-186.8 5.7-4 .6-.3 71.4c-.1 49.5-.6 71.7-1.3 72.2-2 1.2 2.2 1.9 12.1 1.9h9.8l.6-2.8c.6-3 .1-142-.5-142.6-.9-.8-12.7-1.3-16.4-.7m15.4 1.7c.6.5 1.1 139.7.5 141.6-.5 1.6-1.9 1.8-10 1.8H599l.2-71.8.3-71.7 3.5-.6c3.3-.6 14-.1 14.9.7M634 40c0 7.7.3 14 .8 14 .4 0 .6-6.1.4-13.5-.2-9 0-13.5.7-13.5.8 0 1.1 16.1 1.2 51.2.1 28.2 0 51.7-.1 52.3-.5 1.8.1 39.9.6 40.4.3.3.4-8.4.4-19.2-.2-19.2-.1-19.8 2.2-22.8 5.6-7.5 13-12.9 17.7-12.9 2 0 2.1.6 2.4 27.7l.2 27.8.3-28.3.2-28.2h-2.7c-5.8.1-13.5 5.1-18.5 12.1-1.6 2.3-1.7-.3-1.8-49.4 0-51 0-51.7-2-51.7-1.9 0-2 .7-2 14m46-7.6c0 1.3.6 2.6 1.3 2.8.6.2 8.2.1 16.7-.2s15.9-.4 16.4-.1c.9.4.4 52.4-1.1 109.3l-.6 25.8h-29.8l.3-66.5c.2-36.5 0-65.7-.4-64.7-.4.9-.7 30.6-.7 66-.1 56.2-.3 64.3-1.6 64.8-.8.4-1.5 1.1-1.5 1.6 0 .6.6.5 1.5-.2.8-.7 1.5-.9 1.5-.4s7.1.9 15.9.9h15.8l.6-27c.4-14.9 1-45.8 1.4-68.8.5-33.9.9-41.7 2-41.7.7 0 1.3-.9 1.3-2 0-1.9-.7-2-19.5-2H680zm38-.5c0 1.5-2 1.7-19.7 2-14.9.2-17.3.1-17.3-1.2s2.7-1.6 18.5-1.7c10.8 0 18.5.3 18.5.9"/><path d="M942.6 59.5c7 .9 11.7 2.1 15.4 4l5.3 2.7-.5 51.1c-.4 33.7-.3 41.8.2 23.7.4-15.1.8-38.4.9-51.8l.1-24.3-5.3-2.4c-5.3-2.5-16.2-4.5-22.7-4.4-1.9.1 1.1.7 6.6 1.4M990 87.6c0 10.4-.3 33.1-.6 50.4-.4 17.3-.4 31.3-.2 31 1.1-1 2.4-98.8 1.4-99.7-.3-.4-.6 7.9-.6 18.3m-520.4 35.6c-.3 25.4-.3 46.5.1 46.9.5.4 1-20.3 1.2-46.2.2-25.8.2-46.9-.1-46.9s-.8 20.8-1.2 46.2M349 138.7c-.3 20.4-.2 31.4.5 31.7.7.2.9-7.7.7-22.8-.4-39-.7-41.4-1.2-8.9M.1 164.4c.2.2 9.4.9 20.4 1.5 18.7 1.1 79.4 5.9 102 8.1l44 4c49 4.3 64.7 5.9 75.9 7.5 5.5.8 11.1 1.5 12.5 1.4 9.1-.3-37.2-5.6-87.4-9.9-13.2-1.2-36.1-3.2-51-4.5C52 166.7-1.4 163 .1 164.4m988.9 7.5c0 1.9.8 1.9 17.3 1.8l17.2-.1-14.8-.3c-11.9-.3-14.9-.6-15.3-1.8-.9-2.2-4.4-1.9-4.4.4m3 .1c0 .5-.4 1-1 1-.5 0-1-.5-1-1 0-.6.5-1 1-1 .6 0 1 .4 1 1m-754.5 10c6.6 1 13.6 1.8 15.5 1.8s-1.9-.9-8.5-1.9-13.6-1.7-15.5-1.7 1.9.9 8.5 1.8"/><path d="M259.3 184.7c1.5.2 2.7.9 2.7 1.5s-.9.8-2 .5-2-.1-2 .4 1.3.9 2.9.9c2.4 0 2.8-.3 2.4-2-.4-1.5-1.3-2-3.7-1.9-3 .2-3 .2-.3.6m7 1c1.5.2 2.7.9 2.7 1.5s-.9.8-2 .5-2-.1-2 .4 1.3.9 2.9.9c2.4 0 2.8-.3 2.4-2-.4-1.5-1.3-2-3.7-1.9-3 .2-3 .2-.3.6m5.4 2.3c.3 1.3 1.4 2 2.8 2 1.8 0 2.2-.4 1.8-2-.3-1.3-1.4-2-2.8-2-1.8 0-2.2.4-1.8 2m3.3 0c0 .5-.4 1-1 1-.5 0-1-.5-1-1 0-.6.5-1 1-1 .6 0 1 .4 1 1m2.7 1c.3 1.3 1.3 2 2.7 1.9 1.7-.1 1.7-.2.4-.6-1-.2-1.8-.9-1.8-1.5 0-.5.7-.7 1.6-.4s1.8.6 2 .6.4.7.4 1.5c0 .9.9 1.5 2.3 1.4 1.6-.1 1.8-.2.5-.6-1-.2-1.8-.9-1.8-1.5 0-.5.7-.7 1.6-.4s2.4.6 3.5.6c1 0 1.9.5 1.9 1.1s-.7.9-1.5.5c-.8-.3-1.5-.1-1.5.4 0 .6 1.1 1 2.4 1 1.9 0 2.3-.4 1.9-1.8-.3-1.4-2.1-2.2-6.7-3-8.3-1.6-8.5-1.5-7.9.8m29.8 4.5c9.4 2.5 11.2 2.9 10.3 1.9-.9-.8-15-4.4-17.3-4.3-1.1 0 2.1 1.1 7 2.4m475.5 1.3c0 .4 2.6 1.3 5.8 2.1 3.1.7 10.9 3.3 17.2 5.8 17.9 6.9 39.1 14.9 43.3 16.3 3.5 1.1 3.8 1.5 3.2 3.9-1.3 4.9-2.4 15.6-2.5 23 0 6.5-.2 7.2-1.7 6.6-1-.3-4.7-1.5-8.3-2.6s-9-2.9-12.1-4c-3.1-1-6.2-1.9-7-1.9-2.3.1 4 2.5 13.1 5 4.7 1.3 9 2.7 9.5 3.1.6.4 2.6 1 4.5 1.4l3.5.6-.3-5.8c-.3-5.4 1-20.4 2.4-26.3.5-2.4.1-2.7-5.3-4.4-3.2-1-7.1-2.4-8.8-3.1-1.6-.7-7.3-3-12.5-5-5.2-1.9-10.4-4-11.5-4.5-9.6-4.3-32.5-11.4-32.5-10.2M355.5 197c2.2.4 8.3 1.6 13.5 2.5 31.1 5.4 88.3 19.9 92.3 23.3 1 .9 1.7 1.1 1.7.4 0-1.7-2.3-2.6-20-7.5-34.5-9.6-70.4-17.5-86-19.1-4.7-.4-5-.4-1.5.4m-30.7 21c1.2 1.1 2.6 2 3.2 2 .5 0 1 .5 1 1.1s-1.6.1-3.5-1.1-3.5-1.8-3.5-1.3 1.7 1.7 3.7 2.8 6.5 4.9 10.1 8.4c4.3 4.3 6.7 6 7.4 5.3 1.5-1.5-.2-4-6-9.2-5.6-5-6.5-5.8-10.4-8.3-3.7-2.3-4.7-2.2-2 .3m9 6.2c1.1 1.3 2.7 2.9 3.4 3.5 4.1 3.9 6.1 6.3 5.7 6.8-.3.2-3.1-2.2-6.1-5.4-3.1-3.2-6.2-6.1-7-6.4-.9-.4-.9-.6.3-.6.8-.1 2.5.9 3.7 2.1m12.2-5.1c0 .5.6.9 1.4.9s1.8 1 2.1 2.2c.4 1.3 3.3 8.2 6.5 15.3 7.4 16.7 26.4 72.7 25.7 76-.4 2.2-.1 2.5 2.3 2.5 3.3 0 22-9.1 41.5-20.2 12.1-6.9 23.9-14.9 54.5-36.8 17.9-12.9 24.2-15.9 26.7-12.8.7.9.8 6.4.3 16.8-.7 15.9-2.3 24.2-10 54.5-5.9 23.2-8.2 34.1-9 43-.5 4.9-1.6 12.1-2.4 16-1.7 7.6-1.5 9.5 1.8 14 5.4 7.4 15.6 31.7 15.6 37.2 0 1.2.4 2.4.8 2.7.9.5 42.5 1.8 114.7 3.6 23.1.6 58.7 1.7 79 2.6 20.4.8 40.4 1.4 44.5 1.2l7.5-.3.5-9.7.5-9.7-4-.5c-2.2-.3-13.9-.8-26-1.1s-24.4-.8-27.2-1.1l-5.3-.5v-69c0-47.7-.3-69.7-1.1-71.1-1-1.9-1.7-1.9-11.4-1.3l-10.4.7-.3-4.3c-.2-2.4-.4 10.7-.5 29.1-.3 39-1.2 78.1-1.9 79.1-.2.4 0 1 .6 1.4 1.2.7 1.2-.5 2-69.1l.4-35.2 9.9-.7c5.4-.4 10.2-.4 10.5 0 .4.4.8 32.1 1 70.6l.2 69.9h-27.3l.6-32.8c.4-18 1-49.2 1.3-69.5l.7-36.7h-25.2l-.6-4.8c-.9-7.4-1.3-7.7-9.1-7.7-3.8.1-8.7.3-10.9.5l-4 .4-.3 74.3c-.1 40.9.1 74.3.5 74.3s1-33 1.2-73.3c.2-40.2.6-73.5 1-74 1.3-1.4 16.9-2.1 18.5-.8.7.6 1.7 3.6 2.1 6.6l.6 5.5h25.2l-.7 36.7c-.3 20.3-.9 50.7-1.3 67.6l-.6 30.9-22.1-.5c-16-.3-19.6-.2-13.1.4 5 .5 10.2.6 11.8.3 1.5-.3 2.7-.2 2.7.3 0 .4 4.7.7 10.5.5 7.3-.2 10.5 0 10.5.8 0 1.1-60.4.9-135.5-.4-16.1-.3-18.9-.2-10.5.4 6.3.4 45.9 1 88 1.4 72.6.6 137.6 2 144.8 3.2l3.3.5-.3 8.7-.3 8.7-7 .3c-3.8.2-23.6-.4-44-1.2-20.3-.9-55.9-2-79-2.6-72.2-1.8-112.8-3-113.6-3.6-.5-.3-.9-1.3-.9-2.3s-.9-4.3-1.9-7.4c-1.1-3-1.8-5.7-1.6-5.9.6-.5-9.5-20.5-12.9-25.4l-2.7-4.2 1.6-7.3c.9-4.1 2-11.5 2.5-16.4.8-9 3.3-20.7 9.5-45 7-27.6 9.3-40.3 9.8-55.2.5-16.3.2-16.9-6.2-15.8-4.1.7-11.1 4.8-23.1 13.4-27.8 20.1-42.5 30-55 37.2-16.6 9.5-37.3 19.9-39.5 19.9-.9 0-1.5-.9-1.5-2.1 0-2.3-7.3-25-16.2-50.4-6.2-17.7-6.4-18.1-12.2-30.9-2-4.3-3.9-8.8-4.2-10.1-.5-2.2-4.4-4.3-4.4-2.4m509.9.7c.5.2.8 9.2.6 22.5-.8 53-1 72.2-.7 122.2l.2 53 11.2-.5 11.3-.5-10.7-.3-10.8-.3-.2-52.2c-.3-70.8.5-141.3 1.7-142.5.4-.4 37.9-1 83.3-1.3l82.7-.6-84.8.1c-46.6 0-84.3.2-83.8.4"/><path d="m521.3 222.7-5.3.4v10c0 9.8 0 9.9-2.2 9.4-1.3-.3-5.7-1-9.8-1.6-4.1-.5-10.6-1.4-14.5-2-3.8-.5-12.5-1-19.2-1.1-6.8-.1-12.3-.4-12.3-.7s-2.9-.5-6.5-.3l-6.5.2 1.2-2.5c1-2.3 1.2-2.4 4.6-1 1.9.8 4.2 1.5 5.1 1.4.9 0-.8-.9-3.8-2-3-1-5.5-1.8-5.6-1.6-1.2 2.4-2.5 6.1-2.2 6.4.4.4 1.6.4 5.7.3 9.5-.4 41.3 1.6 47 3 1.9.4 6.5 1.1 10.3 1.5l6.7.7.1 27.6c0 15.2.2 33.8.4 41.2s.4 20.6.4 29.2c.1 8.7.4 15.8.9 15.8.4 0 .6-2.6.5-5.7-.9-25.5-.9-49.3.1-49 .7.2 1.3 7.7 1.6 21.8l.6 21.4.2-21.6c.2-20.8.1-21.7-1.8-23-2-1.4-2.1-2.3-2-28.9 0-16.7.4-27.8 1-28.4s1-5.1 1-10.2v-9.1l6.8-.6c3.7-.4 11.9-.7 18.3-.7 12.9 0 12.9 0 12.9 6.5 0 5.1 1.8 5.6 18.7 5.2 14.5-.4 18.9.2 18 2.6-.2.7-.1 5.9.4 11.7.8 10.1.8 10.6-1.4 12.2l-2.2 1.7-.6 61.3c-.4 33.7-.7 67-.8 74L587 411h-29l-.3-87.8-.2-87.7-.3 88.2-.2 88.3h30.7l.6-30.8c.4-16.9.7-50 .7-73.5v-42.8l2.5-2.3c2.5-2.3 2.5-2.4 1.6-13.2-1-12.5-.7-13.8 2.3-12.9 2.7.9 11.9 3.4 28.1 7.8 7.2 1.9 17 4.6 21.9 6.1 4.8 1.4 9.8 2.6 11 2.6s2.7.5 3.3 1.1c.7.7 3.9 1.3 7.2 1.4 3.4.1 6.7.7 7.3 1.2.7.6 3.1 1.3 5.3 1.7s4.8 1 5.9 1.3 1.6.1 1.3-.5c-.4-.5-2.7-1.2-5.3-1.6-2.6-.3-5.3-1.1-5.9-1.6-.7-.6-3.9-1.2-7.1-1.4-3.3-.2-7-.9-8.4-1.4s-5.4-1.6-9-2.5c-3.6-.8-11.2-2.8-17-4.4-5.8-1.7-14.3-4.1-19-5.3s-12.5-3.4-17.5-5c-8.5-2.6-9.8-2.8-23.9-2.4-16 .5-17.6.1-17.6-4.5 0-1.4-.3-3.6-.6-4.9-.6-2.2-.9-2.2-14.8-2-7.7.1-16.5.3-19.3.5m365.5 3.5c-.3.9-4.2 1.4-13.4 1.6-7.5.2-13.3.8-13.9 1.4-.7.7-.7.9 0 .5.6-.3 6.8-.7 13.8-.8l12.8-.2-.1 68.4c0 37.6-.3 80.6-.7 95.6l-.6 27.1 4.4.6c4.3.5 61.8 1.8 62 1.3 0-.1.3-12.6.5-27.7 1.3-74.4 2.4-119.8 3-122.7.7-3.8 2.7-4.7 8.7-3.8 3.4.5 4.8 1.3 6 3.5 1.8 3 1.8 2.1.2 101-.3 16.2-.5 33.2-.5 37.7v8.2l-8.2.4-8.3.3 8.8.2 8.7.2v-8.8c0-4.8.2-21.8.5-37.7 1.6-97.1 1.6-99.5-.1-102.5-1.4-2.2-2.7-2.9-6.5-3.4-7.4-1-9.6-.1-10.3 4.2-.6 3.5-2 62.9-2.9 122.7l-.4 27-29.4-.3c-16.2-.2-30.6-.5-32-.8l-2.6-.5.4-86.2c.2-47.4.5-90.7.6-96.2l.2-10h2.8c1.5.1 2.7-.3 2.7-.7 0-1.3-5.8-.9-6.2.4m-488.1 1.5c-1.8.3-3.1 1.3-3.8 2.9-.5 1.4-.9 18.8-.9 40 0 32.9.2 37.4 1.5 37.4.9 0 1.7-.6 2-1.3.2-.6.6-17.4.8-37.2.3-23 .9-37 1.6-38.8l1.1-2.8 15.7.4c10.1.2 17.9.9 21.6 1.9 3.1.8 5.7 1.2 5.7.8 0-2.4-35.1-4.9-45.3-3.3m.3 2.3c0 .5-.3 1-.7 1-.8 0-1.1 12.6-1.2 51.7-.1 15.5-.5 24.3-1.1 24.3-1.4 0-1.4-73.5 0-76.1 1.1-2 3-2.6 3-.9"/><path d="M894 229.1c0 .4 3.3 1.7 7.3 2.8 3.9 1.2 11.5 3.7 16.7 5.7s13.5 5.1 18.4 6.9c4.9 1.7 9.3 3.9 9.8 4.8.8 1.5-.1 1.7-8.9 1.7-5.4 0-10.3.4-10.9.8-1.3.8-2.4 17.3-1.2 16.5.5-.2.8-3.7.8-7.8 0-6.2.3-7.5 1.8-7.9s18.1-1 22.1-.7c1.1.1 1.3 1.7.8 8.3-1.4 18.5-1.6 22.2-1.1 20.5.3-.9 1-1.7 1.6-1.7.7 0 .7-.4-.1-1.3-.8-1-.8-3.5-.1-8.8.5-4.1 1-9.7 1-12.5 0-4.7-.2-5.2-2.5-5.8-1.4-.4-2.5-1.3-2.5-2.1 0-.7-1-1.7-2.2-2-1.3-.4-9-3.3-17.3-6.5-18-6.9-33.5-12-33.5-10.9m-468.5 1.2c-1.2.7-6.3 1-13.5.8-6.3-.1-11.2 0-10.9.3.8.8 22.2 1 24 .2 1.1-.5 1.9-.1 2.3 1 1 2.6 2.6 28.4 2.6 42.6 0 7 .4 12.9.9 13.2 1.2.8 29.6-18.8 40.6-27.9 6.2-5.1-17.7 11.2-30.8 21.1-4 3-7.8 5.4-8.4 5.4-1 0-1.3-3.1-1.3-12.3 0-14.2-1.7-40.7-2.8-43.6-.6-1.6-1-1.8-2.7-.8m273.7 3.7c-3.5.4-6.7 1.1-7.2 1.6-.9.9-1.9 177.4-1 177.4.6 0 .7-3 .9-96.7.1-74.3.2-79.3 1.9-80.2.9-.5 6.1-1.2 11.5-1.6l9.7-.7v57.9c0 31.9-.3 72.3-.7 89.8l-.6 31.7-10.6-.4c-5.8-.2-9.5-.1-8.1.3s6.4.7 11.1.8l8.6.1.6-32.3c.4-17.7.7-58.4.7-90.5V233l-5.2.1c-2.9.1-8.1.5-11.6.9m28.8 2.4c16.1 3.5 22.3 4.6 22.8 4.2.2-.2-2-.9-5-1.5-2.9-.6-9.8-2-15.3-3.1-5.6-1.1-10.7-2-11.5-1.9s3.2 1.1 9 2.3m82.2 10.4c-9 .3-9.3.4-10.5 3-.9 2-1.2 22.6-1.2 84.2v81.5l12.7.5c7 .3 12.4.2 12-.2s-5.9-.9-12.2-1l-11.5-.3v-81c0-64.1.3-81.5 1.3-83.3 1.2-2 2-2.2 10.2-2.2h9l.1 3.2c.2 8-.3 154.8-.6 158.8-.2 3 0 3.9.5 2.5.5-1.1 1-33.5 1.2-72 .4-85.9.3-92.4-.8-93.3-.5-.4-5.1-.6-10.2-.4M6.1 260.5c3.2 6.9 5.9 12.9 5.9 13.5s.4 1.8.9 2.8c3.2 6.2 7.9 20.9 11.2 34.4 1.2 5.1 3.3 13.3 4.7 18.3 1.3 4.9 3.7 13.7 5.2 19.5s4.5 16.3 6.5 23.5c6.6 23 8.6 31.5 20.9 88.5 3.1 14 7.3 33.8 9.5 43.8 2.3 10.1 5.5 26.1 7.2 35.5 1.7 9.5 3.7 19.9 4.5 23.2C87.7 586.1 97 652.8 97 667.4v6.9l7.3-.7c14.4-1.3 15.8-1.7 16.8-4.3 2.5-6.7 13.9-28 20.6-38.6 10.6-16.6 12.2-22.8 15.8-59.6 2.5-25.1 7-40.2 16.5-55.7 9.7-15.6 16.1-29.8 14.5-32.4-.3-.5-2.4-1-4.6-1-4.9 0-11.7-3.3-12.9-6.3-1-2.2-1-2.1-.7.2.3 3.3 5.2 6.1 12 7 4.8.6 5.2.8 4.9 3.1-.3 3.3-7.9 18.5-14.1 28.5-9.2 14.6-14.1 31.5-16.6 57-2.1 21.3-4.1 34.5-6.3 40.8-.9 2.9-5.1 10.6-9.3 17.2-7.2 11.3-11.2 18.7-18.9 34.7-3.6 7.4-2.7 7-17.2 8.4l-6.8.6v-6.3c0-14.2-9.4-81.3-14.4-103.4-.8-3.3-2.8-13.7-4.5-23.2-1.7-9.4-4.9-25.4-7.2-35.5-2.2-10-6.4-29.8-9.5-43.8-13-60-13.1-60.4-25.4-105-4.4-16.2-9.2-34.2-10.6-40-4-17.1-9.8-34.8-16-49-3.9-9-9-19-9.6-19-.4 0 2 5.6 5.3 12.5m482.4 2.5c-2.7 2.7-4.7 5.2-4.4 5.5.3.2 2.7-1.8 5.4-4.5 3.9-4 5.6-5 8.2-5 2.2 0 3.6.6 4.3 1.9 1.7 3.3 1.1 12.6-1.6 24.9-1.4 6.4-3 13.3-3.4 15.2-3.7 16.4-13.6 48.3-18 57.7-1.1 2.2-2.4 6.2-3.1 8.7-.6 2.5-1.5 4.6-1.9 4.6-1 0-8-8-8-9.1 0-.4 1-1.4 2.3-2.3 4.9-3.4 5.7-4.4 5.1-6-.9-2.3-2.5-2-6.7 1.5-3.6 3-3.9 3.1-5.7 1.4-1.9-1.7-1.9-1.8.5-4.7 4.2-4.9 1.5-6.5-3.9-2.3-1.8 1.4-3.7 2.5-4.2 2.5-1.3-.1-6.1-4-4.8-4 1.5 0 10.7-7.1 10-7.7-.2-.3-2.6 1.1-5.2 3.1s-5.1 3.6-5.5 3.6c-2.1 0-.6 3.1 2.1 4.5 3.9 2 4.6 1.9 8.6-1.1 4.1-3.2 5.7-2.6 2 .7-3.1 2.7-3.2 4-.8 6.2 2.6 2.4 4.2 2.1 7.9-1.5 2.1-2 3.7-2.8 4.2-2.2.6.5-.3 1.8-2.4 3.4-1.9 1.4-3.7 3.1-4 3.8-1.1 2.8 5.9 11.9 8.6 11 .6-.2 2.2-3.3 3.4-6.8 1.3-3.6 3.7-10.1 5.4-14.5 3-7.7 10.8-33.1 13.1-42.5 7.7-31.2 9.5-44.3 7-49.1-.8-1.4-2.1-1.9-5.3-1.9-3.8 0-4.8.6-9.2 5m291-2.8c-.3.7-.6 36.1-.7 78.6l-.3 77.4 3.5-.5c1.9-.2 5.9-.1 8.8.3l5.2.6V259h-8c-5.5 0-8.2.4-8.5 1.2m15.5 77.3v77.4l-7.5-.1-7.5-.2V260h15zm-554.5-74.6c-4.5 1.9-8.2 8.2-13.7 23.6-10.5 29.1-12.4 53.9-5.7 73.8 1.2 3.4 3.4 9 4.9 12.3 3 6.5 6.7 18.8 7.2 23.9.2 2.5.8 3.1 3.2 3.3 1.6.2 3.9-.2 5.1-.8 2.3-1.2 4.5-6.8 4.5-11.1 0-3.7 5.3-13.9 9.9-19.1 2.5-2.8 5.9-5.3 8.6-6.4 6.8-2.6 6-4.5-3.3-7.7-6.1-2.1-5.1-.6 1.1 1.8 2.8 1.1 5.1 2.4 5 3-.2.5-2.1 1.6-4.3 2.3-4.3 1.5-10.9 8.2-14 14.2-1.9 3.8-3.6 9.4-4.5 15.3-.3 2-1.6 4.6-2.7 5.7-2.4 2.2-6.7 2.7-7.2.7-.2-.6-1.2-5-2.3-9.7-1.2-4.7-4.1-13.2-6.5-19-6.4-14.8-7.3-19.4-7.3-35 0-15.7 2.2-27.5 8.5-45 6.9-19.4 11.7-26 18.9-26 4.4 0 12.1 4.5 16.8 9.8 1.8 2.1 3.2 3.2 3.3 2.6 0-2-7.5-9-12.2-11.2-4.5-2.2-9.7-2.7-13.3-1.3m352.3 1.2c-1.6.9-1.7 5.1-1.5 59.2.1 32 .3 52 .5 44.4.2-9.1.6-13.7 1.4-13.7.7 0 .7-.4 0-1.3-.7-.8-1.1-16-1.1-43.9-.1-49.5-1.2-45.2 11.5-44.6 4.1.2 7.4 0 7.4-.5 0-1.1-16.2-.8-18.2.4m405.2 5.8c0 1.8-.7 1.9-11.9 1.4l-11.9-.6-.4 8.7c-.2 4.8-.2 8.8-.1 8.9s5.5 0 12-.3 11.9-.5 12.1-.4 0 29.5-.4 65.3l-.7 65.1h-23.3l.3-48.8c.1-26.8 0-48-.2-47.2s-.6 23-.8 49.2l-.3 47.8H998v-31.3c.1-50.8 1.7-115.1 2.9-115.5 2-.7 1.2-4.2-.9-4.2-1.3 0-2 .7-2 1.9m3 0c0 .6-.4 1.3-1 1.6-.5.3-1-.1-1-.9 0-.9.5-1.6 1-1.6.6 0 1 .4 1 .9m-7.2 2.7 5.2.7v6.2c0 7.5.1 7.5-14.2 7.5H975v-15h6.8c3.7 0 9.1.3 12 .6"/><path d="M1.9 273.7c1.1 2.7 4.2 10.2 7.1 16.7 6.9 16.3 20.1 52.7 23.9 66.1 1.7 6 4.8 17.3 7 25 4.2 15.2 9.9 40.2 18.5 81 3 14.3 7.3 34.5 9.6 45 2.2 10.4 4.9 24.8 6 32 1.1 7.1 3.4 19.3 5 27 6.7 30.5 9.3 56.6 8.8 88.9l-.3 19.9-13.5 2.3c-11.7 2-36.4 6.9-66 13-4.6 1-7.9 1.9-7.3 2.1s7.3-1 14.9-2.6c17.6-3.8 58.3-11.7 64.9-12.6 9.3-1.2 8.5 1.1 8.5-23.4 0-34.2-2.1-55.5-8.6-85.9-2-9-4.4-22-5.4-29-1.9-12.2-5.3-29.4-10.5-52.7-1.4-6.1-4.9-22.7-7.9-37-14.1-67.4-24.3-103.3-41.9-148-4.9-12.5-7-17.6-12.3-29.3-2.3-4.9-2.6-3.8-.5 1.5m888.7 4.8c-1.5 1.5-1.6 7.6-1.4 70.3l.3 68.7 13.5.1c10.9 0 11.4 0 2.5-.3-6-.2-12-.5-13.2-.8l-2.3-.5v-67.9c0-57.8.2-68 1.4-69 .9-.8 3.1-1 5.8-.7 18.3 2.3 22.4 3 23.1 4 .8 1.2-.2 103.8-1.2 123.4-.3 6.8-.3 12.6 0 12.8.9.5 1.7-29.7 2.5-88.2.5-39.4.3-48.2-.8-49.1-1.2-.9-6.9-1.9-23.4-3.8-4-.5-5.5-.3-6.8 1m58.2 23c-.4 8.8-1.1 21.8-1.7 28.9-.6 8.3-.7 13.5 0 14.7.5 1.1.8 15.8.5 38.1l-.5 36.3 1-36c.6-23.4.6-36.8 0-38.2-.7-1.4-.6-6.6 0-15 1.3-16.7 2.2-39.1 1.7-42.3-.2-1.4-.7 4.7-1 13.5M923.7 350c-.4 32.7-1 61.7-1.3 64.4-.4 2.8-.2 4.6.3 4.3s1-6.3 1.1-13.4c.1-7 .5-33.8.8-59.5l.7-46.6 3.6.5c5.3.8 13.2 3.1 14.7 4.4 1 .8 1.4.8 1.4.1 0-1.9-3.8-3.1-17.7-5.8-1.7-.3-2.3-1.2-2.5-4.2-.2-2-.7 23.1-1.1 55.8m-285.2 10.5c0 27.5.1 38.6.2 24.7.2-13.9.2-36.4 0-50-.1-13.6-.2-2.2-.2 25.3M463.1 318c-2.4 1.1-4.2 2.2-3.9 2.5.2.3 2.3-.4 4.7-1.5 2.3-1.2 4.6-1.8 5.2-1.4.6.3-3.2 2.9-8.4 5.8-11 6.1-15.6 9.7-19.1 14.9-3.1 4.5-3.1 4.9-.8 7 2.7 2.5 5.4 2.1 9.8-1.4 5.7-4.5 7.3-5.2 8.8-4 1 .8 1.7.7 2.7-.5 1.2-1.5 1.1-1.6-.9-1-2.3.8-3.2-.8-.9-1.7.7-.3.5-.6-.6-.6-1-.1-2 .6-2.3 1.4-.4.8-1.2 1.5-1.8 1.5-.7 0-3.1 1.6-5.3 3.5-4.6 3.9-5.9 4.2-8.4 1.9-1.6-1.5-1.6-1.8.9-5.5 3.3-4.8 10.5-10.2 20.5-15.4 5-2.6 7.6-4.5 7.4-5.5-.4-2.2-2.7-2.2-7.6 0m172.4 40.5c0 23.1.1 32.4.2 20.7.2-11.7.2-30.6 0-42-.1-11.4-.2-1.8-.2 21.3m-26.5 16c0 20.3.2 36.6.5 36.3.7-.6.7-71.9 0-72.6-.3-.3-.5 16-.5 36.3M398 353c0 1.9 3 8.3 3.6 7.7.3-.3-.2-1.9-1.1-3.7s-1.5-3.4-1.2-3.6c.7-.7 3 2.6 10.9 15.1 12.7 20.3 18.8 33.5 22.3 48.9 1.5 6.5 1.5 17.9 0 31.6-.2 1.9-.1 2.7.1 1.7.3-.9.9-1.7 1.2-1.7.4 0 .7-6.6.7-14.8-.1-10.7-.5-16.3-1.8-20.8-2-7.1-7.5-21-11.3-28.6-2.9-5.8-16.8-28.2-19.2-31.1-1.7-1.9-4.2-2.3-4.2-.7m-16 23.2c0 .3 1.4 10.2 3.1 21.9 2.2 15.7 3.1 25.6 3.2 36.9.2 17.4-.2 19.9-3.9 23.4l-2.7 2.4 1.7 4.8c.9 2.6 1.6 7.6 1.6 11.1 0 5.5-.4 6.8-2.5 8.8-1.3 1.4-3.3 2.5-4.4 2.5s-5.5 1.1-9.7 2.4c-5.6 1.8-8.7 3.5-11.5 6.2-2.2 2.1-3.9 4.3-3.9 4.9 0 .5-1.6 2.6-3.5 4.5s-3.5 3.9-3.5 4.4c0 1.4 7.9-6.6 8-8 0-.6 2-3 4.4-5.2 4.3-4 14.6-8.2 20.1-8.2 1.3 0 3.3-.8 4.6-1.9 1.9-1.6 2.4-3 2.7-8.9.3-4.9-.1-8.6-1.2-11.9-1.6-4.7-1.6-4.7.8-7 3.7-3.4 5-11.4 4.2-27-.5-12.3-6-55-7.1-56.1-.3-.3-.5-.3-.5 0m280 23c0 8.3.3 14.9.6 14.6.8-.9 1-29.8.2-29.8-.5 0-.8 6.8-.8 15.2m-70.3 11.6c-1.5.2-2.5.8-2.1 1.3.3.5 1 .6 1.6.3.6-.4 4.7-.7 9.2-.6 4.4 0 7.2-.2 6.1-.4-3.4-.6-11.9-.9-14.8-.6m186.8 16.6v9.5H800c11.8.1 30.1.4 40.5.6 25.3.8 113.3 2.4 152 2.9l31 .4-27.5-.8c-37-1.1-121.2-2.8-172-3.6-22.8-.3-42.1-.7-42.7-1-.9-.2-1.3-2.8-1.3-8.4v-8.1l44.3.6c24.3.3 47.8.7 52.2.9 5.7.3 6.8.2 4-.4-2.2-.4-26-1-53-1.4l-49-.6zm173.5-6.2c.3.3 16.7.8 36.5 1.2 19.7.4 35.7.4 35.4.2-.3-.3-16.7-.8-36.5-1.2-19.7-.4-35.7-.4-35.4-.2m-487.5 13.6-8 2.7-.1 4.5c-.1 2.5-.2 5.5-.3 6.6-.2 3.2-5.4 8.4-8.5 8.4-2.9 0-6.6-4.8-6.6-8.8 0-2.9-3.6-3-4.5-.1-1.1 3.5.5 16.7 2.3 18.5 2.4 2.5 16.4 1.6 22.2-1.4 10.6-5.5 15.3-13.4 15.4-25.6.1-8.7-.3-8.8-11.9-4.8m11.3 2.5c.6 7.4-1.6 14.2-6.3 19.4-6.2 6.9-13.3 10.3-21.7 10.3-8.3 0-9.4-1-10.3-9.4-1.1-10.2 1.1-14.3 3.3-6.1 1.4 5.5 4.4 7.3 9.4 5.9 4.5-1.3 7.2-6.2 7-13-.2-6.1-.2-6.1 8.8-9.1 8.4-2.9 9.4-2.7 9.8 2m28.2 4.2v9.5l6.8-.2 6.7-.2-6.3-.3-6.3-.4.3-7.7.3-7.7 7 .3c3.8.2 6.7.1 6.4-.2s-3-.6-6-.7-6.2-.6-7.1-1.1c-1.7-.8-1.8-.1-1.8 8.7"/><path d="M316.4 444.6c-1.2 4.9 1.6 14.1 5.8 18.9 13.4 15.3 44.9 13 43.6-3.2-.3-3.3-.7-3.8-3-4.1s-3 .3-4.4 3.1c-1.9 4-6.6 7.1-9.4 6.2-3.8-1.2-7-6.3-7-11.3v-4.7l-11.3-3.8c-6.1-2-11.8-3.7-12.4-3.7-.7 0-1.6 1.2-1.9 2.6m13.9 2.1 10.7 3.7v4.7c0 5.4 3.2 10.2 7.5 11.3 3.8 1 8.9-1.9 10.8-6 2.1-4.3 5-4.3 5.5-.1.5 4-3.8 9.1-9.3 11.3-6.3 2.4-17 1.4-23.8-2.3-6.5-3.6-12.2-10.2-13.6-15.8-1.7-6.6-1.4-10.5.8-10.5.3 0 5.4 1.6 11.4 3.7"/><path d="M320.2 456.5c.3.4 4.4.9 9 1.1 4.5.3 9 .7 9.8 1 1 .3 1.1.2.5-.4-1.1-1-20.3-2.7-19.3-1.7M516 453l-12.5.5-.7 9.4c-.3 5.1-1.4 12.7-2.4 16.7-1.2 5.1-1.4 7.8-.7 8.5s4.3.5 11.4-.5c26.1-3.8 65.8-5 86.4-2.7 27.9 3.2 66.6 11.6 92.2 20 12.2 4 38.9 15.8 53.8 23.7 7.6 4.1 26.6 16.2 32 20.5 9 7.1 26.9 25.8 37.7 39.4 5.3 6.6 10.4 12.7 11.4 13.6 1.1.9 13.2 5.5 26.9 10.3 23.4 8.2 53.1 20.3 56.5 23.1.8.7 6.9 4.3 13.5 8 19 10.8 31.2 19.5 38.5 27.8 6.3 7.2 6 10.3 6-61.6-.1-72.5-.7-85.7-4.4-99.7-2.2-8.2-2.3-9.6-1.1-10.6 1.2-.9 1.5-3.5 1.3-12.3-.1-6.1-.5-11.7-.9-12.3-.6-.9-7.8-1.3-26.2-1.6l-25.5-.4-.7 2.2c-.4 1.2-.2 2.7.4 3.3.9.9 1.1.5.9-1.3l-.3-2.5 19.5-.3c10.7-.1 22.2.1 25.5.5l6 .8.3 10.8c.3 13.2-.8 15.4-5.4 10.6-4-4.3-9.5-7.2-18.9-10.2-9.3-3-33.1-7.9-52.5-10.7-47.9-6.9-150.9-15.7-222.5-19-12.6-.6-31.1-1.5-41-2-34.6-1.9-84.3-2.8-104.5-2m64 1.4c12.4.4 30.6 1.1 40.5 1.6s28.4 1.4 41 2c54.7 2.5 129.6 8.3 182 14.1 59.8 6.6 94.1 13.4 105 20.9 8.6 6 10.3 8.8 13.7 23 2 8.1 2.1 12.1 2.4 83.5l.4 75-3.7-4c-8.8-9.4-18.3-16.2-38.8-28-12.2-7-14-8.4-14.3-10.8-.2-1.6.2-3.5.9-4.3.9-1.2 1.3-9.9 1.5-34.8.2-18.2 0-33.7-.4-34.3s-.7 14.4-.7 33.3c-.1 25.5-.4 34.7-1.3 35.6-.7.7-1.2 2.2-1.2 3.5s-.2 2.3-.4 2.3-5.5-2.3-11.8-5.1c-6.2-2.9-23.9-9.6-39.2-15-15.4-5.5-28.8-10.7-29.9-11.7-1.1-.9-6.2-7.1-11.5-13.7-10.8-13.6-28.7-32.3-37.7-39.4-6.8-5.3-26.4-17.7-34-21.4-43.9-21.6-68.1-29.6-115-38.1-24.8-4.5-37.9-5.9-55-6-16.3-.1-46.7 1.9-60.9 3.9-6 .9-10.4 1.1-10.9.6-.6-.6-.3-3.5.7-7.5.9-3.6 2-10.7 2.4-15.8l.7-9.3 12-.5c13.5-.6 30.6-.4 63.5.4"/><path d="M645 488.8c0 .4 2.1.5 4.7.3s7.2.2 10.2 1c3.8.8 14.2 1.3 31.9 1.3 25.1.1 26.4.2 27.9 2.1 1.4 1.8 1.5 1.8.9.2-.6-1.8-.2-1.8 5.6-1.2 3.5.4 9.9 1.4 14.3 2.2 18.7 3.4 25.3 4.4 30.1 4.3 4.4 0 5.2.3 5.7 2 .5 2 4.7 3 4.7 1.1 0-.5-.9-.7-2-.4-1.2.3-2 0-2-.6 0-1.3 10.8-1 28.5.9 5.5.5 18.1 1.7 28 2.5 38.9 3.4 48.6 5.7 58.2 14.1 3.4 3.1 6.3 5.1 6.3 4.6 0-.6-2.6-3.2-5.8-6-9.1-7.9-20.3-10.5-58.7-13.7-10.4-.9-23.3-2-28.5-2.6-5.2-.5-11.6-1.1-14.2-1.3s-9.1-.7-14.5-1.1c-9.9-.7-21.2-2.2-35.8-4.9-14.9-2.7-33.2-3.9-53.8-3.4-15 .4-21.4.2-25.2-.8-5.4-1.5-16.5-1.9-16.5-.6m-211.6-28.5c.3 1.2 1 4.7 1.7 7.7 1.7 8.1 3.5 10.9 8.2 13 5.7 2.6 12.2 8.3 15.3 13.5 3.2 5.6 6.5 14.5 5.3 14.5-.5 0-.9.7-.9 1.5s.5 1.5 1 1.5c.6 0 .9-.6.8-1.2-.3-1.4 17.9-10.8 26.7-13.8 10.5-3.5 25-6 36.4-6.3 6-.1 10.2-.5 9.3-.8-6.1-2.3 39.9-2.2 55.3 0 3.9.6 16.9 2.4 29 4.1s26.1 4.1 31 5.4c25 6.7 41.5 11.8 50 15.6 2.8 1.2 10.4 4.4 17 7 19.5 7.8 21.9 9 40 20.8 17.1 11.2 24.9 18 39 34.5 3.2 3.7 6 6.5 6.3 6.3.8-.9-15.2-18.7-23.5-26-8.9-7.9-10.1-8.8-27.1-19.5-10.6-6.8-27.2-15-37.2-18.4-2.5-.9-7.6-3-11.5-4.8-3.8-1.7-9-3.8-11.5-4.5s-5.8-1.7-7.5-2.3c-13.1-4.9-41.4-11.8-57.5-14.1-43-6.1-44.5-6.3-65-6.4-41.1-.2-71.7 5.4-92.6 17l-6.2 3.4-.6-2.7c-2.6-10.4-10.6-20.6-19.2-24.4-5.7-2.6-7.8-5.8-9.8-15.2-1-4.2-2-7.7-2.3-7.7s-.3 1 .1 2.3m485.7 19.6c19.8 4.3 29.2 8 36.8 14.6 3 2.5 3.3 2.6 2.1.7-2.7-4.2-12-9-24.5-12.6-6.6-1.8-14.5-3.6-17.5-4-4.3-.4-3.6-.1 3.1 1.3m70.3 10.2c-.3.6-.9 38.1-1.3 83.2-.3 45.2-1 82.8-1.4 83.4-.5.8-2.9 1.3-5.8 1.3-2.7 0-4.9.3-4.9.8 0 .4 2.4.5 5.3.2 2.8-.3 11-.1 18 .3 7.1.5 13.1.6 13.4.3.4-.3.8-26.4 1-57.9.2-31.4.5-64.3.6-72.9s-.1-15.4-.5-15c-.3.4-.8 33-1 72.4s-.6 71.9-.9 72.3c-.4.3-5.8.3-12-.1l-11.4-.7.3-61.1c.2-33.6.6-71.2 1-83.6l.7-22.5 11.1-.3 11.1-.3.7 3.2c.3 1.7.6 6.6.6 10.9 0 8.7.4 9.2 6.5 7.9l4-.8-4.5.2-4.5.2-.2-6c-.2-3.3-.5-8.4-.9-11.3l-.5-5.2H1002c-7.5 0-12.1.4-12.6 1.1"/><path d="M516.5 492.7c-14.3 2-34.6 8.8-45 15-4.6 2.7-5 3.3-5.5 7.5-.3 2.6-.2 4.4.2 4.2.4-.3.8-2.1.8-3.9 0-4.2 2.9-6.4 16.6-12.4 13.4-6 28.4-9.3 42-9.5 6.2 0 11-.4 10.7-.9-.4-.7-14.4-.7-19.8 0m-97 10.3c.3.5 0 1-.7 1.1-.7 0-.4.4.7.9s5.4.9 9.5 1l7.5.1-3 2.5c-3.2 2.6-3.1 2.6-14.7.6-2.6-.5-5.3-.5-6-.1-2.2 1.4.7 5.5 6.6 9.4 3 2 5.7 4.4 6 5.3.2.9.4.6.3-.8s.3-3.2.8-4c.7-1.3.6-1.3-.7-.2s-2.3.8-6.2-1.8c-4.6-3.1-7.3-6.5-5.9-7.3.5-.2 4.3.3 8.6 1.1 8.5 1.7 11.3 1 14.1-3.3 1.5-2.2 1.4-2.2-6.2-2.4-10.4-.3-11.4-1.5-1.7-2.2l8-.5-8.8-.2c-5.7-.1-8.6.2-8.2.8"/><path d="M498.5 508.1c-10.8.6-27.9 3.9-29.4 5.5-.7.7 1.4.3 10.4-2 10.1-2.6 39.3-4 56.6-2.7 8.3.7 17.5 1.7 20.6 2.2 3 .6 5.7.8 5.9.6.9-.8-11.9-2.7-25-3.7-14.2-1.1-21.2-1.1-39.1.1"/><path d="M490.6 511.1c-3.8.5-8.3 1.4-10 1.9l-3.1 1 3.5-.5c14.5-2 20.5-2.4 35.6-2.5 16.5 0 34.9 1.3 42.8 3 2.1.5 3.4.5 3 0-2.9-2.8-56.7-5-71.8-2.9m526.1 42.1c-.4 21.5-.7 53.3-.7 70.7 0 17.8-.4 32.2-1 33.1-1.3 2 .6 3 5.5 2.8l4-.1-3.8-.6-3.9-.6.1-29c0-16 .4-48.5.7-72.3.4-23.7.5-43.2.2-43.2s-.8 17.6-1.1 39.2m-741.2-33.6c-1.6.2-6.6.9-11 1.5-15.9 2.1-38.5 7.7-41 10.2-.7.7-.3.8 1 .3 7.4-2.8 23.9-7 34.5-8.8 10.7-1.9 16-2.3 37-2.2 13.5 0 26.3.3 28.5.7 3.2.5 3.5.5 1.6-.3-2.4-1-45.1-2.2-50.6-1.4"/><path d="M277.2 522.2c-5.6.4-16.7 2.1-24.5 3.7-14 2.8-29.2 7-28.4 7.7.2.2 3.9-.7 8.3-2 10.3-3 24.2-5.8 25.4-5.1.6.3 1 .2 1-.3 0-1.8 19.5-3.4 38.7-3.3 10.6.1 20 .4 21 .7 1.5.4 1.5.4.3-.4-2-1.3-28.7-1.9-41.8-1M462 522c-1.6.5-.2.6 3.5.3 8.2-.7 33 1.4 44.5 3.7 5.2 1.1 9.6 1.8 9.8 1.6 1.1-1.2-17.6-4.4-32.3-5.6-13.9-1.1-22-1.1-25.5 0m-124.5.7c-6.8.6-20.6 3.3-28.5 5.4-18.9 5.1-49.4 19.7-64.8 31.1-4.5 3.4-5.2 4.2-3.8 5 1.2.7 4.2-.8 12.4-5.9 33.3-20.9 63.4-31.5 90.6-31.8 8.4-.1 13.1-.5 13.3-1.2.2-.6 0-1.3-.4-1.6-1.3-.8-14.4-1.5-18.8-1m16.3 1.3c1.2 0 2.2.4 2.2 1s-3 .7-7.9.3c-25.9-2-71.3 13.9-101.3 35.5-2.7 1.8-4.8 3-4.8 2.5 0-2 18.6-13.6 34.8-21.7 22.3-11.2 53.9-19.3 69.7-18 2.8.2 6 .4 7.3.4"/><path d="M460 524.9c0 .4 6 .5 13.3.3 11.9-.3 31.4 1.6 43.7 4.3l2.5.6-2.5-1.1c-5.2-2.3-30.3-5.1-43.7-4.9-7.3.1-13.3.5-13.3.8m-6.7 4.7c.3.3 6.1.9 12.9 1.4 15.7 1.2 21 2.8 30.9 9.6 8.8 6 12.1 6.9 4 1.1-7.5-5.4-14.6-8.7-22-10.2-6.7-1.4-26.8-2.9-25.8-1.9"/><path d="M452.7 532.2c.2.5 3.7.8 7.6.8 16.5.1 27.4 3.4 38.4 11.8 2.5 1.9 4.6 3.2 4.9 2.9 1.4-1.4-14.7-11.1-22-13.2-5.7-1.7-29.7-3.5-28.9-2.3m-89.2 1.5c-22.6 5.1-39.8 11.1-52.9 18.4-11.6 6.5-8.3 5.8 4.9-1 11.3-5.8 26.9-11.5 40.3-14.5 3.4-.8 6.2-1 6.2-.6 0 .5-2.6 1.4-5.7 2-8 1.7-26.5 7.7-33.2 10.9-10 4.7-18.3 9.2-17.8 9.7.2.3 3.1-.9 6.3-2.7 9.1-4.8 10.6-5.6 15.4-7.7 6.6-2.8 22.6-7.8 29.8-9.2 3.6-.8 6.2-1.8 6.2-2.5s.9-1.5 2-1.8c2.5-.6 2.7 1 .3 1.7-1.1.3-.7.4.7.3 1.5-.1 2.5-.8 2.5-1.7 0-1.6-1.8-2.1-5-1.3m60.2 1.6c-.2.6-2.2 1.8-4.3 2.6-2.2.7-8.4 3.4-13.9 5.8s-10.9 4.8-12 5.2c-1.1.5-3.6 1.6-5.5 2.4-1.9.9-4.7 1.9-6.2 2.2-1.6.4-2.8 1.1-2.8 1.5 0 1.1 14.5-4.5 28.5-11 3.3-1.5 8.3-3.6 11-4.5 2.8-1 5.6-2.5 6.2-3.3 1.1-1.3 1.3-1.3 1.9.2.8 2.1-.6 3.2-6 4.7-2.1.6-4.6 1.5-5.5 2-4.6 2.6-29.3 12.8-33.6 13.8-7.3 1.9-13.5 2.3-13.5 1.1 0-.7-.8-.9-2-.5-1.1.3-3.6-.2-5.7-1.1-5.9-2.7-6-2.7-3.3-.5 2.3 1.9 3.5 2.3 8.5 2.6 1.3 0 1.9.7 1.7 1.7-.2 1.1 1.7 2.6 6 4.7 9.1 4.4 16.8 6.1 28 6.1 16.3 0 28.5-6 39.9-19.5 3.9-4.6 7.1-7.5 8.8-7.9 2.6-.5 10.7-7.3 9.8-8.2-.2-.3-2 .9-3.8 2.6-1.9 1.8-5 3.9-7 4.8-2 1-6.2 4.7-9.4 8.4-6.4 7.6-16.3 14.6-24.4 17.3-4.3 1.4-7.6 1.6-17 1.3-12.1-.5-18.6-2.3-26.1-7-3.4-2.2-3.5-2.2-1-2.6 5.7-.8 18.4-4.4 23.3-6.6 26-11.7 31.5-13.9 33.9-13.3.7.2 1 .2.6 0-.5-.3-.8-1.5-.8-2.8 0-1.2-.7-2.6-1.6-2.9-2.1-.8-2.1-.8-2.7.7"/><path d="M353 555.9c0 3.1 26.3 17 33.8 17.9 2.3.2 4.2.7 4.2 1.1 0 .3-2.4 3.2-5.3 6.4-3.9 4.3-7.2 6.7-13.4 9.7-6.3 3-8.3 4.4-8.3 6 0 2.5 1.3 2.5 6.4.1 8.4-4 18.9-8.1 20.5-8.1 2.3.1-.4 2.1-22 16.6-31.5 21-39.6 31.9-43 58.2-.6 5.1-.9 12.4-.6 16.2.6 6.6.5 7.1-2 9-4 3.2-6.5 2.5-12.4-3.3-3.9-3.7-4.9-4.4-3.5-2.2 1 1.6 3.2 4 4.7 5.3 1.6 1.3 2.7 2.7 2.5 3.1-1 1.5 8.4-.6 10.4-2.4 1.7-1.5 1.9-2.6 1.3-9.4-.6-8.5 1-22.8 3.4-30.6 4.5-14.2 15.6-26.8 34.8-39.3 20.1-13 28.5-19.3 28.5-21.3 0-.9.6-2 1.3-2.2q1.35-.6 0-.6c-.6-.1-1.5.3-1.8.9-.3.5-1.4 1-2.3 1s-6.9 2.3-13.2 5c-13.1 5.7-12 5.3-12 4 0-.5 4-3 8.9-5.4 6.8-3.5 9.9-5.8 13.5-9.9 5.7-6.7 5.9-8.7 1-8.7-4.8 0-23.7-9.1-31.7-15.3-2.1-1.5-3.7-2.4-3.7-1.8M968 671v10.2l4.5 6.8c4.4 6.6 4.6 6.8 9.7 7.4 5.9.8 29.9 8.6 36 11.7 2.2 1.1 4.5 1.8 5.1 1.6 2.8-.9-31-12.7-41.1-14.3-3.9-.6-4.6-1.2-8.7-7.4l-4.5-6.8V662l10.3.1c5.6.1 17.9.4 27.4.8 9.5.3 16.9.3 16.5 0-.4-.4-13-1-27.9-1.4l-27.3-.7zm-856.5 4.2c-6 .6-9.2 1.2-23.5 4.1-4.1.9-15.6 3-25.5 4.7C39.7 688 .9 695.8.2 696.5c-.8.7-1.5.9 22.3-3.9 12.1-2.4 30.1-5.8 40-7.6 9.9-1.7 21.2-3.8 25-4.6 15.3-3.1 23.9-4.5 26.5-4.2l2.7.3-4.6 7.7c-2.6 4.2-6.3 9.4-8.2 11.6-2 2.1-5.7 6.5-8.2 9.8-2.5 3.2-8.4 9.9-13.1 14.8C72.4 731 69.5 736.3 69.5 744c0 11.4 11.9 29.6 22.3 34.1 7.9 3.4 15 4 24.4 1.9 12.9-2.8 21.5-6 30.7-11.5 11.5-6.9 18.6-14.2 24-24.8 4-7.9 5-9 11.5-13.5 14.1-9.8 24.7-13.7 40.3-15.1 26.2-2.3 58.4-2.5 58.2-.3 0 .4-6.6 5.9-14.6 12.2s-16.8 13.4-19.7 15.8c-2.8 2.4-11.1 8.4-18.4 13.4-23.7 16.2-29.6 25.4-29.5 45.9 0 21 8.5 31.6 29.1 36.7 5.5 1.3 7.5 1.4 14.1.3 11.4-1.9 17.6-4.3 40.1-15.4l20.5-10.2 10.5-10.6c14.6-14.8 30-24.3 47.4-29.3 12.4-3.6 19.5-4.6 41.1-5.6 48.9-2.4 79.4-6.5 106.9-14.5 4.2-1.3 6-1.3 14 0 29.1 4.7 38.3 8 68.1 24.6 11.7 6.4 15.1 8 19.4 8.6 4.9.8 18.7 10 21.1 14.1 2.5 4.2 2.5 7.3.1 12-3.9 7.6-14.2 15.5-42.6 32.8-19.3 11.8-50.5 28.1-96 49.9-17.7 8.6-42.3 17.5-47.9 17.5-2.4 0-18.2 4.9-24.1 7.5-1.6.7-4.1 1.6-5.4 2-1.4.4-5.8 2.3-9.9 4.2-5.8 2.8-9.3 3.7-16.1 4.3-5.9.5-9.9 1.4-12.9 3-4 2.1-5.1 2.2-13.5 1.6-12.9-1-30.4-3.7-52.2-8.2-5.2-1.1-32.6-8.4-42.5-11.3-15.6-4.7-31.9-9.2-42.5-11.8-18.1-4.4-44.9-10.5-50-11.3-5.4-1-25.8-5.2-48-9.9-7.8-1.6-19.5-4.5-26-6.4-6.6-2-22.1-6.3-34.5-9.7s-31.7-8.9-43-12.2c-25.5-7.4-24.9-7.2-23-6 1.6 1.1 27.3 8.5 66 19.2 12.4 3.4 27.9 7.7 34.5 9.7 6.5 1.9 18.2 4.8 26 6.4 22.2 4.7 42.6 8.9 48 9.9 17.1 2.9 65.7 15 92.5 23 9.8 3 37.2 10.3 42.5 11.4 21.7 4.5 39.3 7.2 52.1 8.2 8.3.6 9.5.5 15-1.9 3.8-1.7 8.4-2.7 12.9-3 3.9-.2 8.6-1.1 10.5-2 14.8-6.8 39.6-15.7 43.9-15.7 1.5 0 5.5-.9 8.9-2.1l6.2-2.1 2 2.4c1.1 1.2 1.9 1.8 2 1.1 0-.6-.4-1.5-1-1.8-1.9-1.2-1-2.4 2.3-3.3 6.3-1.8 23.8-9.4 40.4-17.6 9.2-4.6 23.8-11.8 32.3-16 15.1-7.4 20.8-10.4 38.8-20.6 24.8-14.1 44.5-27.3 51.4-34.6 8.5-9.1 7.4-18.9-3.1-26.2-7.3-5.1-11.5-7.2-14.3-7.2-2.2 0-14.3-5.8-23.9-11.4-20.4-12-36.9-17.6-64.5-22.1-8-1.3-9.8-1.3-14 0-27.5 8-58 12.1-106.9 14.5-21.6 1-28.6 1.9-41.1 5.5-19 5.5-33.4 14.2-48.4 29.4l-10.5 10.6-21.5 10.7c-23.3 11.5-26.8 12.9-37.7 14.8-15.3 2.7-31.9-4.6-38.7-17-5.2-9.5-5.5-27.1-.7-38.2 3-7.1 12-15.8 26.4-25.7 7.3-4.9 15.5-10.9 18.3-13.3 2.9-2.4 11.7-9.5 19.7-15.8 8.1-6.3 14.6-12.2 14.6-13.2.1-1.3-1.3-1.8-6.6-2.4-7.8-.8-53.3 1.1-61.5 2.6-8.8 1.7-22.5 7.5-31.1 13.3-7.2 4.8-8.2 5.9-12.4 13.7-6.2 11.4-8.5 14.2-15.5 19.5-16.9 12.7-39.6 20.5-53.1 18.4-7.8-1.3-12.1-3.6-18.4-10.1C77.2 763.6 70 749.6 70 744c0-5.7 4.3-12.9 13.6-22.5 4.7-5 10.6-11.7 13.1-14.9 2.5-3.3 6.2-7.7 8.2-9.8 4.2-4.7 13.3-19.5 12.9-21.2-.2-.8-2.1-.9-6.3-.4m868.1 22.6c-.3.5 1.1 4.2 3 8.3 4.2 8.7 10 28.1 11 36.7 1.2 10.8-1.9 30.9-7.3 47.7-5 15.6-18.2 38.3-32.4 55.7-7.6 9.2-26.1 26.9-35.4 33.8-18.6 13.8-49.5 30.9-66.5 36.8-22.8 7.9-38.3 9.7-73.5 8.3-32-1.3-41.8-2.8-48-7.2-3.9-2.8-5-3.1-8.7-2.6-5.6.8-20.9 6.9-37.8 15-12 5.8-24.9 10.9-34.8 13.9-1.9.5-3.2 1.2-2.9 1.4.2.3 4.4-.9 9.3-2.6 4.9-1.8 10-3.5 11.4-3.9 3.2-1 9.6-3.9 23.5-10.6 13.2-6.4 25.6-11.3 30.8-12.2 2.9-.4 4.5-.1 6.5 1.4 4.8 3.5 7.1 4.4 16 5.9 13.3 2.2 58.5 3.7 71.2 2.4 27.3-2.8 53-12.4 83.8-31.2 17.1-10.4 28.3-19.1 40.7-31.4 28.2-27.9 44.6-55.5 51.9-87.4 2.3-10.3 3.9-26.6 3.2-33.2-1-8.1-6.9-28.7-10.6-36.7-3.6-7.6-3.6-8.1-.7-7.4 10 2.3 24.4 7 31.3 10.3 9.1 4.4 11.5 5.1 6.9 2-4.1-2.7-16.1-7.3-27-10.3-12.8-3.5-14.3-3.8-14.9-2.9"/><path d="M857.3 709.1c-.7.7-1.3 1.7-1.3 2.1 0 .5 3 4.6 6.7 9.1 7.8 9.6 9.7 13.6 11.2 23.6 1.2 7.9.7 14.9-1.5 19.2-1.9 3.7-12.4 13.2-18.6 16.7-8.9 5.1-20.6 9.7-34.8 13.6-28.7 8-40.7 12.8-55 22.1-7.2 4.7-10.5 6.4-23.5 12.5-7.8 3.7-10.3 4.3-18.9 5-5.4.4-12.6.4-16-.1s-8.9-.9-12.3-.9c-8.3 0-21.1-4.2-35.1-11.3-7.8-4-8.4-5.7-2.3-5.7 4.9 0 10-1.7 12.9-4.3 1.6-1.5 2.2-3.2 2.2-6.3 0-6.3-1.3-8.6-7-13.2-6.6-5.3-9.6-5.4-18.9-.7-3.8 1.9-7.6 3.5-8.5 3.5s-1.6.4-1.6 1c0 1.1 1.6.5 11.4-3.9 3.8-1.7 7.9-3.1 9.1-3.1 2.4 0 11.9 7.1 13.5 10 1.4 2.6 1.2 9.2-.4 11.2-1.8 2.4-7.8 4.8-12 4.8-9.2 0-8.7 2.9 1.5 8 12.4 6.3 27.4 11 35 11 3.5 0 9.1.4 12.5.9s10.6.6 16.2.1c8.4-.6 11.2-1.3 17.4-4.2 4-2 9.9-4.7 13.2-6.2 3.2-1.4 8.8-4.6 12.5-7 15.5-10.2 24.4-13.9 52.3-21.6 17.8-5 21.3-6.2 34.6-12.8 8.7-4.2 20.6-14.7 22.1-19.5 1.9-6.2 2.2-12.3.8-20.2-2-10.9-3.4-13.8-11.1-23.3-3.7-4.5-6.4-8.7-6-9.3.4-.8 3.1-1 7.4-.7 13.4 1 29.8 13.1 36.4 26.8 2.8 5.9 3.1 7.4 3 16 0 8.8-.3 10.2-3.9 18.4-4.7 10.9-8.6 16.1-19 25.5-9.1 8.3-18.2 14.5-31.2 21.3-12.7 6.8-24.3 10.5-41.8 13.4-39.3 6.6-51.4 10.5-66.7 21.7-7.3 5.2-18 17.5-20.6 23.7-2 4.7-3.3 22-2.1 28.4.7 3.8.6 5.3-.3 6.2-.7.7-6.9 3.7-13.8 6.7s-17.4 8-23.5 11.1c-6 3-16.8 7.6-24 10.1-14.6 5.1-26.1 10.2-25.2 11.2.4.3 1.2.1 1.9-.4 1.8-1.4 17.2-7.7 23.8-9.8 8.5-2.7 16.3-6 30.5-13 7.2-3.5 16.8-8.1 21.5-10.1 11.4-4.9 11.4-4.8 10.1-12-1.3-7.5 0-23.8 2.2-28.1 3.5-6.6 13.7-18.1 20.5-23.1 15.8-11.5 26.6-15.1 65.7-21.6 30-5 53.5-16.1 74-34.7 10.9-9.9 14-14.1 18.7-25.6 8.3-20.3 5.9-34.9-8.3-49.1-8.1-8.2-18.3-13.3-27.8-13.9-4.6-.4-7-.1-7.8.8m160.9 27.6c-2.4 1.4-4.1 2.8-3.8 3 .5.5 9.6-4.6 9.6-5.3 0-.9-1.7-.2-5.8 2.3m2.2 1.8c-1 .8-1.4 1.4-.9 1.4.6 0 1.9-.6 2.9-1.4 1.1-.8 1.5-1.5 1-1.5-.6 0-1.9.7-3 1.5"/><path d="M882.5 744q-1.95.9 2.7.3c4.2-.5 5-.3 7.6 2.3 2.2 2.3 3.3 4.8 4.6 10.9 2 9.5 2.4 10.7 2.5 8 0-1.1-.8-5.6-1.9-10-1.4-5.7-2.7-8.6-4.6-10.3-2.6-2.3-7.2-2.8-10.9-1.2m-143 8.1c-14.3 1.4-23 5.3-36.1 16.3-10.4 8.7-13.6 12.5-17.1 20.4-4.9 11.1-4.1 19.6 2.7 28.1 6.3 7.7 20.8 13.6 32.4 12.9 4.2-.2 5.1-.6 5.4-2.3.2-1.8.2-1.8-.8-.3-2.4 3.8-19.7 1.1-27.8-4.3-5.6-3.8-9.5-8-12.4-13.3-3.8-7.3-1.4-17.7 6.4-28.2 3.9-5.2 16.3-16.2 23.3-20.6 13.4-8.4 38.5-10.8 55.5-5.3 5.4 1.8 11.4 6.5 13.6 10.7.8 1.6 1.8 2.8 2 2.5 1-1-2.6-6.6-6.1-9.4-1.9-1.6-5.9-3.7-8.8-4.6-4.7-1.4-20.6-3.9-23.2-3.6-.5.1-4.6.5-9 1m271.3 5.3c-11.1 5.6-17.3 9.5-16.4 10.3.3.3 1.9-.5 3.7-1.8 1.8-1.2 8.4-4.9 14.7-8.1 6.4-3.2 10.9-5.8 10.1-5.8s-6.3 2.4-12.1 5.4m7.7-.8c-12.9 6.8-19.6 10.7-19.1 11.1.3.3 1.2.1 1.9-.5s6.2-3.6 12.3-6.6c6-3.1 10.2-5.5 9.4-5.5s-2.8.7-4.5 1.5"/><path d="M684 770.6c-37.9 5.5-61.8 9.8-63.4 11.4-.6.6 1.9 3.9 6.5 8.7 11.3 11.8 13 17 8.4 24.8-3.5 6.1-18.7 18-33.7 26.4-3.8 2.2-5.5 3.7-5.1 4.7.3.9 1.3 1.2 2.8.8 2.8-.7 4.2 1.2 1.8 2.4-1 .5-4.1 1-7 1.1-6.4.2-9.1 1.3-24.5 10.2-6.8 3.8-23.3 12.5-36.8 19.1s-26.3 13.3-28.5 14.7c-2.2 1.5-8.3 5.1-13.5 8-5.2 3-11.4 6.5-13.7 7.8-2.4 1.3-4.3 2.8-4.3 3.4 0 .5 1.7-.1 3.8-1.4 2-1.3 8.4-5 14.2-8.2 5.8-3.3 12.3-7.1 14.5-8.6s15-8.1 28.5-14.7c13.5-6.7 29.7-15.1 36-18.8 16.9-9.8 18.3-10.4 24.4-10.5 3.1-.1 6.7-.7 8-1.4 2.1-1.1 2.7-1.1 4.1.6 1.7 1.7 1.5 1.9-4.9 4.9-3.7 1.6-7.3 3-8.1 3-.7 0-1.6.4-1.9.9-.3.4-3.4 1.6-6.8 2.6-3.4.9-9.1 3-12.5 4.6s-7.5 3.1-9 3.5-3.2 1-3.8 1.4c-.5.3-3.1 1.4-5.7 2.4s-5 2.2-5.4 2.7c-.3.5 1 .3 2.8-.5 3.9-1.8 27.7-11 40.1-15.5 13.2-4.9 17.7-7 17.7-8.6 0-1.9-6.9-6.5-9.8-6.5-1.8 0-1-.7 3-2.9 7.4-3.9 19-11.7 26.5-18 14.1-11.8 13.5-22.2-2-36.8-4.8-4.5-5.3-5.4-3.9-6.2 3.1-1.7 70.5-12.4 71.5-11.4.2.1-1.6 2.4-4 4.9-5.4 5.9-9.1 13.5-10.5 21.6-1 5.6-.9 7.2 1 13.4 1.2 3.8 3.4 8.9 5 11.2 2.8 4.2 10.2 10.2 10.2 8.3 0-.5-1.4-1.8-3-2.8-1.7-1-4.1-3.3-5.5-5.3-8-11.6-9.2-23-3.7-34.1 1.7-3.5 5.1-8.6 7.4-11.3 4.3-5 5.6-7.7 3.5-7.5-.7.1-5.5.8-10.7 1.5M843.5 825c-8.6 3.5-23.3 7.3-34 9-25.2 3.8-43.7 8.5-53.5 13.6-10.2 5.2-20.8 14.2-26.5 22.3-4.8 7-2.2 5.5 3.3-1.9 7.7-10.3 22.1-19.9 37.2-24.8 6.6-2.2 25.1-6 39.5-8.2 13.6-2.1 39.1-9.5 42-12.1 1.5-1.4-.4-.9-8 2.1m96.3 44.7c-1.9 4.4-23.1 47.9-33.5 68.8-5 10-11 24.5-15.4 37.5-1.6 4.7-3.4 9.3-3.9 10.2-1.2 2.1-1.3 4.8-.2 4.8.4 0 3.6-2 7.1-4.5 3.6-2.5 6.7-4.3 6.9-4 .6.6 1.1.2-7.2 5.9-3.8 2.6-7.6 4.4-8.3 4.2-.8-.3-1.2-.2-.8.3.7 1.2-4.6 5-6.2 4.4-1.4-.5-5.7 1.6-4.9 2.4.3.3 1.2 0 2-.7.9-.6 2.1-1 2.8-.8.8.3.3 1-1.2 1.8-4 2.1-23.5 16-22.4 16s4-1.9 16.9-10.9c5.5-3.8 22.2-15.2 37-25.2 23.2-15.7 36.9-25.1 69-47.4 3.3-2.3 9.6-6.7 14-9.7 4.5-3.2 8-6.3 8-7.2s2.5-3.4 5.6-5.4c14.4-9.5 16.5-11 17.8-12.5.8-1 .9-1.7.3-1.7s-1.3.4-1.6.9c-.9 1.4-40.7 29.1-97.6 67.9-17.3 11.8-32.6 22.3-33.9 23.4-2.8 2.1-3.7 1.8-2.2-.9.5-1 2.3-5.9 4-10.8 5-15 10.1-26.5 28-63 9.5-19.3 17.8-36.4 18.5-38 3.4-7.6 4.5-10.5 4-10.5-.3 0-1.4 2.1-2.6 4.7m57.8 47.2c-.4.5-2.6 2.3-4.9 3.9-2.3 1.5-9.2 6.3-15.4 10.5-6.1 4.2-11.6 7.7-12.2 7.7-.5 0-1.2.6-1.4 1.2-.3.7-.6.8-.6.2-.1-.6 5.4-4.8 12.2-9.4 6.7-4.6 14.1-9.6 16.4-11.2s4.5-3.4 4.9-3.9c.3-.6.8-.8 1.1-.5.3.2.2.9-.1 1.5m-35.9 24.9c-.3.4-4.1 3.2-8.4 6.2-4.3 2.9-11.2 7.7-15.3 10.5-20 13.8-34.9 23.5-36.1 23.5-.7 0 2.5-2.5 7.2-5.6 8.7-5.9 33.6-22.8 44.7-30.4 3.5-2.4 6.5-4.7 6.8-5.2.4-.5.8-.7 1.1-.4.3.2.3.9 0 1.4M6.5 872.9c3.9.5 14.2 1.1 23 1.5 17.9.7 34.9 2.2 41.2 3.6 2.3.6 8.7 1.7 14.4 2.5 5.6.9 17 2.9 25.3 4.6s23 4.6 32.6 6.4c44.7 8.8 76 16.7 110.8 28 62.7 20.4 93.8 28.4 111.2 28.8 5.7.1 7.5-.4 14.5-4 25.6-12.9 31.1-15.4 42-19.2 6.6-2.3 13.6-5 15.5-5.9 4.8-2.2 28.9-2.1 42 .1 11.8 2 43 10.4 56.9 15.2 19.4 6.8 45.2 22.1 53.5 31.9 2.7 3.1 5.4 7.7 6.6 11.1 1.8 5.3 6.7 28.3 8.9 41.5.6 3.6.9 4.5 1 2.4.1-4-6.1-35-8.8-43.9-2.9-9.3-8.6-15.8-21.4-24.2-19.5-12.8-35-19.3-67.7-28.2-26.1-7.1-43.6-9.6-59.4-8.6-7.4.5-11.2 1.6-26.9 7.4-18.1 6.8-23.5 9.2-41.2 18.6-8.2 4.3-9.6 4.8-15.5 4.7-8-.1-26.7-3.3-38.1-6.6-4.6-1.3-14.2-4-21.4-6-7.1-1.9-27.6-8.3-45.4-14.1-41.7-13.5-70.4-20.8-117.1-30-9.6-1.8-24.3-4.7-32.6-6.4s-19.7-3.7-25.3-4.6c-5.7-.8-12.1-1.9-14.4-2.5-8.1-1.8-23.7-2.9-60.7-4.4-9-.4-9.5-.3-3.5.3"/><path d="M528.5 888c-4.4 3.3-11.3 8.4-15.4 11.3-4.1 2.8-7.7 5.8-7.9 6.6-.3.8 1.5-.1 3.9-2.1s6.4-4.9 8.9-6.4c5.7-3.7 20-14.3 20-14.9 0-1.2-2.1 0-9.5 5.5M82 907.2c-16.5.9-60.1 7.3-78.5 11.7-6.7 1.5-1.1 1.2 6.7-.4 10.6-2.3 41.3-7.2 56.1-9 25.4-3.1 57.6-1.8 89.7 3.6 12.3 2.1 54.5 10 60.5 11.4 3.3.8 13 3 21.5 4.9 18.2 4.2 35.7 8.6 45.5 11.4 3.9 1.2 14 3.9 22.5 6.2s19.1 5.2 23.5 6.5 12.5 3.1 18.1 4.1c14 2.4 21.6 1.2 34.4-5.3 9.4-4.9 38.6-20.4 46.8-24.9 2.4-1.3 6.9-3.6 10-5s4.8-2.3 3.7-2c-4.2 1-9.3 3.3-18.4 8.1-5.2 2.8-14.7 7.7-21 11.1-6.4 3.3-13.8 7.4-16.6 9-15.3 9-23.8 10.7-39.2 7.9-5.4-1-13.4-2.8-17.8-4-4.4-1.3-15-4.2-23.5-6.5s-18.6-5-22.5-6.2c-9.8-2.8-27.3-7.2-45.5-11.4-8.5-1.9-18.2-4.1-21.5-4.9-3.3-.7-16.8-3.4-30-5.8-54.5-10.2-74-12.2-104.5-10.5m931.4 6.1c-4.5 3.4-19.4 13.8-33 23-13.7 9.3-40.6 27.8-59.9 41.3-19.2 13.5-41.7 29-50 34.5-8.2 5.5-15.2 10.6-15.4 11.2-.3.9 0 .9 1 .1.8-.5 8.6-5.8 17.4-11.7s31.1-21.2 49.5-34.1 44.7-31 58.3-40.3c28.2-19.1 43.7-30.3 41.6-30.2-.8 0-5.1 2.8-9.5 6.2M475 915c0 .4 2.2 1 4.8 1.3 7.5.9 37.3 8.5 52.7 13.4 18.5 6 40 16.8 53.8 27.2 10.1 7.6 14.4 19.3 20.7 56.9 1 5.9 1.9 9.5 1.9 8.1.1-2.7-2.9-20.8-5.5-32.4-2.2-10.2-6.4-22.5-9.1-26.5-6.4-9.8-34.4-25.4-60.8-33.9-22.2-7.2-58.5-15.9-58.5-14.1m542.9 2-3.7 1.9-.7 49.3c-.4 27.1-.5 50.9-.3 52.8.3 1.9.6-7.7.8-21.5.1-13.8.5-37.4.9-52.5l.6-27.5 4.5-2.2c2.5-1.3 3.8-2.3 3-2.2-.8 0-3.1.9-5.1 1.9m-17.6 10.3c-4.3 2.9-11.8 8.2-16.8 11.7-4.9 3.5-13.9 9.8-20 14-6 4.2-14.8 10.3-19.4 13.6-4.6 3.2-10.3 7.2-12.7 8.9-5.3 3.7-37.9 26.8-53.3 37.8-6.3 4.5-11.7 8.8-11.9 9.5-.2.8 2.2-.6 5.4-3.1 3.3-2.4 8.6-6.2 11.9-8.5s14.6-10.3 25-17.8c10.5-7.4 21.3-15 24-16.9 2.8-1.9 8.8-6.2 13.5-9.5 4.7-3.4 11.9-8.4 16-11.2s11.1-7.7 15.5-10.8c23-16.4 27.2-19.3 29.9-20.7l2.9-1.5-.6 50.7c-.3 27.9-.4 50.5-.1 50.2s.8-23.3 1.1-51.1c.5-45.8.5-50.6-1-50.6-.9 0-5.1 2.4-9.4 5.3m-404.7 22.6c-1.8.7-1.7.9 1.2 2.6 1.8 1.1 3.2 2.2 3.2 2.6 0 .3 2.7 2.5 6 4.7 3.3 2.3 6 3.7 6 3.2s-1.7-2-3.7-3.3c-5.4-3.5-11.3-8.9-10.7-9.9.6-.9.6-.9-2 .1"/><path d="M995.5 968.6c-11.2 8.8-21.2 16.3-31.3 23.5-6 4.2-4.7 4.8 1.4.7 9.3-6.3 43.4-32.5 43.4-33.4 0-1.2-2.6.6-13.5 9.2m-433.2-1.7c-3.7 3.3-4 3.9-2.4 4.4 2.2.5 9.1-4.6 9.1-6.9 0-2.4-2.3-1.5-6.7 2.5m4.1-.5c-1 .8-2.1 1.2-2.4.9-.3-.2.4-1.1 1.4-1.9 1.1-.7 2.2-1.2 2.5-.9.2.3-.4 1.2-1.5 1.9m-3.4 3c0 .3-.4.8-1 1.1-.5.3-1 .1-1-.4 0-.6.5-1.1 1-1.1.6 0 1 .2 1 .4m20.4-2.9c-1 .8-2.6 1.5-3.6 1.5-.9 0-5.4 2.8-10 6.2-14.9 11-43 28.9-58.1 37-17.1 9-19.7 10.6-19.7 12.1 0 .5.8.3 1.8-.5 3.1-2.9 13.1-7.8 14.6-7.2.8.3 2.8-.2 4.5-1.1 4.2-2.1 3.9-2.7-.5-.9-5.9 2.5-4.9 1 1.3-2.1 3.2-1.5 7.5-3.9 9.6-5.2 2.2-1.4 4.6-2.2 5.4-1.9 1.4.6 11.3-4.8 11.3-6.1 0-.3-1 .1-2.2.9-1.3.8-3.6 2.3-5.1 3.3s-3 1.5-3.3 1.2 1.2-1.7 3.3-3c2.1-1.4 8.5-5.4 14.1-9.1 6.6-4.2 10.8-6.3 11.9-6 1.3.4 1.4.3.5-.4-1-.7-.8-1.3 1.2-2.5 1.4-.9 3.1-1.4 3.9-1.1s1.8.1 2.2-.5c.4-.7-.1-.8-1.2-.4-1.7.5-1.7.5.1-1.3 1.3-1.4 2-1.5 2.3-.6.7 1.8 6.4-2.5 6.1-4.6-.2-1.1 1.7-2.6 5.9-4.7 3.4-1.6 6.5-3.4 6.9-3.8 1.3-1.3-1.2-.7-3.2.8m-11.8 10.1c-3 2.1-4.4 1.6-1.7-.7 1.3-1.1 2.7-1.7 3-1.3.3.3-.3 1.2-1.3 2m-101.8 44c-3.3 1.7-3.6 3-.8 3 1.3 0 1.9-.5 1.6-1.3-.3-.7-.1-1.3.3-1.3.5 0 1.1.5 1.3 1.2.3.9.6.9 1.2 0 .4-.7.2-1.2-.4-1.2s-.8-.5-.5-1c.8-1.3.6-1.2-2.7.6"/></g></svg>