<svg xmlns="http://www.w3.org/2000/svg" width="1365.333" height="1365.333" preserveAspectRatio="xMidYMid meet" version="1.0" viewBox="0 0 1024 1024"><g fill="#000" stroke="none"><path d="M0 82.4v82.4l14.8.7c15.2.7 62.9 4.3 92.7 7 9.4.9 17.9 1.5 19 1.4s2.7.1 3.7.5c2.3 1 8.4.3 7.8-.9-.3-.6-2.3-1-4.6-1.1-2.2 0-4.5-.3-5-.7-1-.6-35.3-3.9-58.9-5.7-7.7-.6-16.2-1.3-19-1.6l-5-.6.3-81.9L46 0H0zm409.7 2.3c.1 57.5-.2 85.2-.9 86-1.4 1.7.9 2.5 5.4 2.1 3.7-.3 4.5-2.1 1.1-2.6l-2.3-.3v-85c0-80.2-.1-84.9-1.7-84.9-1.7 0-1.8 4.6-1.6 84.7m34.3-80c-.1 2.7-.3 11.3-.5 19.3s-.7 43.7-1 79.4c-.3 36.5-1 65.6-1.5 66.6s-.6 2-.3 2.4c.3.3 7.3.6 15.4.6 13.6 0 17.8-.7 14.8-2.6-.8-.5-.9-7.7-.4-26.8.4-14.3.7-26.8.7-27.6-.2-4.3-.1-51.8.1-81.8l.2-34.2H444zm47.9 46.5c0 28.2-.2 59.2-.3 68.8-1 52.4-1 52.5 1.4 52.5h2.3l.4-83.5c.2-45.9.5-84.7.7-86.3.2-2.2-.1-2.7-2.1-2.7H492zm16.2 33.7c.2 46.8 0 85.3-.4 85.7s-.3 1.2.2 1.8c.6.7 5 .9 13.3.6 10.3-.4 12.2-.7 11.8-2-.3-.8-.6-35.8-.8-77.8l-.3-76.2 7.1-.2c3.8-.1 8.4-.2 10.1-.2l3.1-.1.1 71.5c.1 46.9.5 71.5 1.2 71.5 1.3 0 1.3 1 1.6-70.5.2-62.4.8-84.2 2.1-85.6.4-.4 8.7-.7 18.4-.8 22-.1 21.4-.5 20.7 14.3-.5 10.1.3 12.5 3.1 10.2.7-.6 5.4-1.4 10.3-1.7l9.1-.7.5 19.4c.9 32.9.7 124.1-.4 126-.6 1.2-.5 2 .3 2.5 2 1.3 48.6 1.5 49.3.3.4-.6-.3-1.3-1.4-1.6l-2.2-.5.3-79.5c.3-77.3.4-79.5 2.2-80.9 2.5-1.8 11.5-1.9 12.1-.2.3.7.6 34.1.7 74.3.2 47.8.6 73 1.3 73s1.1-21 1.3-60.5c.2-33.3.6-60.8 1-61.1.4-.4 7.8-.9 16.4-1.1l15.7-.4.3 3.6c.4 4.9-1 96.9-1.8 116.8l-.6 16.3-16.5-.2c-10.1-.1-16.8.2-17.5.9-.6.6-.6 1.2 0 1.6.9.6 72.2 1 72.8.4.1-.2.5-39.4.8-87.1l.5-86.7H507.8zM661 144.1V171l-3.7.1c-5.5.2-14.5.2-17 0-2.3-.1-2.3-.1-2.3-19.1v-18.9l2.9-4.6c1.6-2.5 4-5.6 5.4-6.9 2.1-2 8.1-5.1 9.9-5.1.3 0 1-.3 1.4-.7s1.3-.3 2.1.3c1 .9 1.3 6.8 1.3 28M778.5 1c.4.6 1.1.8 1.6.5 1.4-.9 1.1-1.5-.7-1.5-.8 0-1.2.5-.9 1m15 0c.4.6.1 1.7-.5 2.5-.7.8-.8 2-.4 2.7.5.7 1 2.2 1.1 3.2.3 1.8.2 1.8-1.4.5-1.9-1.6-4.3-1.9-4.3-.7 0 .5.2.7.5.5.2-.1 1.2.8 2.1 2.1 1.2 1.7 1.9 2 2.9 1.2s1.3-.7 1.1.6c-.2 2.5 3.2 2.5 4.9.1.8-1.2 1.5-1.8 1.5-1.4s1.1 0 2.5-.9 2.2-2.1 1.8-2.8c-.4-.6 0-.5.9.2 2 1.6 3.5-.2 1.9-2.2-.8-1-.8-1.6.2-2.5.8-.6 1.6-.9 1.9-.6s1.3-.5 2.4-1.6l1.9-2.2-3 .6c-1.6.3-3.9.8-5 1-1.1.3-2.2.6-2.4.6-.2.1.2.8.9 1.6 1.1 1.3 1.1 1.8 0 2.8q-1.35 1.35-.6 0c.9-1.7-1.2-2.7-2.8-1.4-1.1.9-1.4.8-1.2-.6 0-1-.5-1.7-1.3-1.5s-1.1-.3-.8-1.3c.5-1.1-.1-1.5-2.4-1.5-1.8 0-2.8.4-2.4 1m5.1 5.7c-.3.8-.6 1.7-.6 1.9s-.5.4-1.1.4c-.8 0-.8-.4 0-1.3.8-1 .7-1.7-.2-2.6-.9-1-.8-1.1.6-.5 1.1.4 1.6 1.3 1.3 2.1m-.9 5.5c-.3.8-.6.5-.6-.6-.1-1.1.2-1.7.5-1.3.3.3.4 1.2.1 1.9"/><path d="M800.8 1.2c.9.9 1.5.9 2.4 0S803.9 0 802 0s-2.1.3-1.2 1.2m22.7-.2c.3.5 0 .7-.9.4-.8-.3-1.9.3-2.6 1.5-.6 1.2-.8 2.2-.5 2.2.3.1.9.2 1.4.3 2.8.3 1.5 1.2-1.9 1.2-3.4.1-3.7-.1-2.2-1.2 1.6-1.2 1.6-1.4 0-3-1.6-1.7-1.8-1.6-2.7.8-.5 1.4-1.5 2.9-2.1 3.3-1.8 1.1.1 2.7 2.6 2.1 1.8-.5 2.2-.3 1.8.9-.4.8-.1 2.1.5 2.9.9 1.1.6 1.3-1.4 1.3-1.4 0-2.6-.3-2.6-.8-.1-.5-.2-1.3-.3-1.8-.2-1.9-1.3-2.1-2.6-.6-1.1 1.3-.9 2 1 4 2.3 2.5 2.3 2.5.3 2.5-2.9 0-5.4-1-4.8-2 .3-.4-.1-1.3-.8-1.9-1.6-1.2-6.1 1.4-5.1 3 .4.6 1.1.6 2-.2 1-.8 1.4-.8 1.4 0 0 1.3.1 1.3-6.7 1.6-2.9.2-6 .6-6.9.9-1.5.6-1.6 7.4-1 76.8.3 53.4.2 76.6-.6 77.5-.7.9-.6 1.4.5 1.9 1.7.6 6-1.3 5.3-2.4-.2-.4-.7-34.3-1.1-75.3-.6-51.7-.5-74.8.3-75.3.5-.3 7.8-.9 16-1.3l15.1-.6.3 3.4c.5 5.4 2.3 2.9 2.2-3.1l-.1-5.5 15.4.3 15.3.3v52c0 52.5.3 57.5 3.5 54.9.8-.7 1.5-.7 1.9-.1.4.5.2 1.2-.4 1.6s-.8 1.1-.4 1.6c.9 1.6-.5 5.9-1.9 5.6-.6-.1-1.2.5-1.2 1.3s.6 1.4 1.3 1.3c1.3-.3 1.3-.5 1.8 5.7.2 3.2.9 4.9 2.3 5.9 2 1.3 3.1 3.8 1.2 2.6-.5-.3-1.2-.1-1.5.4-.9 1.5 4.5 5.4 5.8 4.1.5-.5 1.3-1 1.6-1 .4 0 .5 3.5.1 6-.1.2-.8-.6-1.7-1.8-1.3-1.9-1.8-2.1-3.1-1.1-1.2 1.1-1.4 1-1.1-.2.1-.7-.2-1.5-.7-1.7-.6-.1-1 .3-1 1 0 2.2-2.3 1.9-2.7-.4-.2-1.3-.7-2.3-1.3-2.3-1.2 0-1.9 5-1 7.3.6 1.5.8 1.5 2.1-.2 1.4-1.9 1.5-1.9 1.8.6 0 .7 1.1 1.4 2.4 1.6 1.2.2 2.2.8 2.2 1.4 0 .5-.6.8-1.4.5-1.6-.6-5 2.6-3.9 3.6.3.4 1.4 0 2.3-.8 1-.9 2.4-1.5 3.1-1.3.8.2 1.3-.4 1.1-1.3-.1-.9.5-2.2 1.3-2.9 1.3-1.1 1.5-.5 1.4 5.3l-.2 6.7-4.9-.2c-3.6 0-4.8-.4-4.4-1.4.3-.7-.2-1.8-.9-2.4-1.2-1-1.6-.9-2.1.6-.3 1.1-1 2.7-1.5 3.7-1.3 2.4.2 2.8 9.9 2.5l8.2-.3.5-39.5c1.2-92 1.7-112.7 2.6-116.4l1-3.8 13.2.4c7.3.2 13.8.7 14.5 1.2 1 .6 1.1 9 .7 40.9-.3 22.1-.5 57.5-.6 78.7v38.5h22l.5-40.5c1.3-95.2 2.1-130.5 3.1-131.9.4-.8-16.1-1.1-55-1.1-36.4 0-55.4.3-55 1m2.5 6.1c0 .6-.4.7-1 .4-.5-.3-1-1.1-1-1.6 0-.6.5-.7 1-.4.6.3 1 1.1 1 1.6m35.7 24.1c-.3.8-.6.5-.6-.6-.1-1.1.2-1.7.5-1.3.3.3.4 1.2.1 1.9m0 4c-.3.8-.6.5-.6-.6-.1-1.1.2-1.7.5-1.3.3.3.4 1.2.1 1.9m12 0c-.3.8-.6.5-.6-.6-.1-1.1.2-1.7.5-1.3.3.3.4 1.2.1 1.9m-12 5c-.3.7-.5.2-.5-1.2s.2-1.9.5-1.3c.2.7.2 1.9 0 2.5M874 39c0 1.1-.4 2-.9 2s-.7-.9-.4-2 .7-2 .9-2 .4.9.4 2m-.6 10.1c-.2 3.9-.5 7.4-.8 7.7-.6.6-.5-13 .1-14.1.9-1.6 1.1-.4.7 6.4m-11.2-.9c-.6 7.2-1.2 7.4-1.2.5 0-3.2.4-5.7.8-5.7.5 0 .7 2.4.4 5.2m.2 9.3c.3.8.1 1.5-.4 1.5-.6 0-1-.7-1-1.5s.2-1.5.4-1.5.6.7 1 1.5M869 59c0 .5-.5 1-1.1 1-.5 0-.7-.5-.4-1 .3-.6.8-1 1.1-1 .2 0 .4.4.4 1m3.7 4.2c-.3.8-.6.5-.6-.6-.1-1.1.2-1.7.5-1.3.3.3.4 1.2.1 1.9m-9.7 1.7c0 .6-.4 1.3-1 1.6-.5.3-1-.1-1-.9 0-.9.5-1.6 1-1.6.6 0 1 .4 1 .9m9.8 13.3c-.1 9.4-.3 10.9-.7 6.3-.6-6.1-.3-18.5.5-18.5.2 0 .3 5.5.2 12.2m-10.5-3c-.2 3.9.2 7.7.8 8.4.7.8.7 1.4-.1 1.9-1.2.7-1.4 11.1-.2 11.9.9.6.9 3.2-.1 5.6-.4.8-.8 3.1-1 5s-.5-6.3-.5-18.3c-.1-11.9.1-21.7.6-21.7.4 0 .6 3.2.5 7.2M873 99c0 4.4-.4 8-.8 8s-.6-1.6-.4-3.5-.1-4.2-.7-4.9c-.8-1-.9-1.6-.1-2.1.5-.3 1-1.7 1-3.1 0-1.3.2-2.4.5-2.4s.5 3.6.5 8m-9.5 19.2c.1 1-.2 1.8-.6 1.8-.9 0-1.9-2.7-1.9-5.3.1-2.2.1-2.2 1.2-.2.7 1.1 1.3 2.8 1.3 3.7m9.2 1.5c.1 3.2-.1 3.4-.8 1.5s-1.2-2.1-2.9-1.2c-1.9 1-2 1-.8-.9.6-1.1 1.5-1.8 1.9-1.5.4.2 1 0 1.4-.6 1-1.6 1.1-1.3 1.2 2.7m.3 5.3c0 .5-.5 1-1.1 1-.5 0-.7-.5-.4-1 .3-.6.8-1 1.1-1 .2 0 .4.4.4 1m-6.9 3.3c-1 .9-1.1.8-.5-.6.3-1 .9-1.5 1.2-1.2s0 1.1-.7 1.8m6.9 9.7c0 2.7-1.9 3.5-3.5 1.4-1.6-2.3-1.3-2.9 1.4-3.1 1.4-.1 2.1.4 2.1 1.7m-5.4 4.8c-.9.9-1.6-.3-2.1-3.4l-.5-2.9 1.6 2.8c.8 1.6 1.3 3.1 1 3.5m4.1 1.9c-.4.3-.2 1.2.3 1.8.8.9.4 1.2-1.5 1.2-2.5 0-2.5 0-.9-1.8.9-1.1 1.9-1.9 2.2-1.9s.2.3-.1.7M966.2 2.2c.2 1.3.8 2.3 1.3 2.3.6 0 1.1-1 1.3-2.3.2-1.5-.2-2.2-1.3-2.2s-1.5.7-1.3 2.2m27 1.5c.2 2.1.6 3.7 1.1 3.5.4-.1 7.2-.2 15.2-.2h14.5V0h-31.1zM790.6 1.9c-.4.5-.2 1.2.3 1.5.5.4 1.2.2 1.5-.3.4-.5.2-1.2-.3-1.5-.5-.4-1.2-.2-1.5.3m-6 3c-.4.5-.2 1.2.3 1.5.5.4 1.2.2 1.5-.3.4-.5.2-1.2-.3-1.5-.5-.4-1.2-.2-1.5.3m207.9 5.2c-1 2.6-.1 27.4 1 27.4 1.4 0 1.9-26.5.6-27.8-.7-.7-1.2-.5-1.6.4m-27 9c-1 2.6-.1 47.4 1 47.4 1.4 0 1.9-46.5.6-47.8-.7-.7-1.2-.5-1.6.4"/><path d="M825.6 28.9c-.4.5-.2 1.2.3 1.5.5.4 1.2.2 1.5-.3.4-.5.2-1.2-.3-1.5-.5-.4-1.2-.2-1.5.3m-229 2c-.4.5-.2 1.2.3 1.5.5.4 1.2.2 1.5-.3.4-.5.2-1.2-.3-1.5-.5-.4-1.2-.2-1.5.3m0 4c-1.1 1.7-.2 116.6.9 116.6 1.3 0 1.9-116.1.6-117-.5-.3-1.2-.1-1.5.4m229 1c-.4.5-.2 1.2.3 1.5.5.4 1.2.2 1.5-.3.4-.5.2-1.2-.3-1.5-.5-.4-1.2-.2-1.5.3m165.8 52.4c-.9 2.6 0 20.2 1.1 20.2 1.4 0 2-19.4.6-20.8-.7-.7-1.2-.6-1.7.6m-26.9 8.9c-.9 2.3-.2 7.3 1 7.3 1.4 0 1.9-6.5.6-7.8-.7-.7-1.2-.5-1.6.5m27.1 14.7c-.4.5-.2 1.2.3 1.5.5.4 1.2.2 1.5-.3.4-.5.2-1.2-.3-1.5-.5-.4-1.2-.2-1.5.3m-131.7 31.5c-.5 2.4-.2 4.6.6 4.3 1.2-.3 1.4-3.6.3-4.3-.4-.3-.8-.3-.9 0m104 8c-.5 2.4-.2 4.6.6 4.3 1.2-.3 1.4-3.6.3-4.3-.4-.3-.8-.3-.9 0m-104.3 10.5c-.4.5-.2 1.2.3 1.5.5.4 1.2.2 1.5-.3.4-.5.2-1.2-.3-1.5-.5-.4-1.2-.2-1.5.3m-307 3c-.4.5-.2 1.2.3 1.5.5.4 1.2.2 1.5-.3.4-.5.2-1.2-.3-1.5-.5-.4-1.2-.2-1.5.3m312 2c-.4.5-.2 1.2.3 1.5.5.4 1.2.2 1.5-.3.4-.5.2-1.2-.3-1.5-.5-.4-1.2-.2-1.5.3m-312.5 2.9c-1 1.8-.9 2.3.4 2.8 2.5 1 3.7-.9 2.1-3.1-1.3-1.8-1.4-1.8-2.5.3m-203.7.7c-.9 2.3 1 4 2.5 2.2.9-1.1.8-1.7-.4-2.7s-1.6-.9-2.1.5m21.1.4c-.3.5-.2 1.2.3 1.5 1.1.7 3.6.2 4.2-.8.7-1.2-3.7-1.8-4.5-.7m17.1 0c-.4.5-.2 1.2.3 1.5.5.4 1.2.2 1.5-.3.4-.5.2-1.2-.3-1.5-.5-.4-1.2-.2-1.5.3m9 0c-.4.5-.2 1.2.3 1.5.5.4 1.2.2 1.5-.3.4-.5.2-1.2-.3-1.5-.5-.4-1.2-.2-1.5.3m199.9 0c-.7 1.2 1.2 2.4 2.5 1.6 1.1-.7.4-2.5-1-2.5-.5 0-1.1.4-1.5.9m5.1 1c-.4.5-.2 1.2.3 1.5.5.4 1.2.2 1.5-.3.4-.5.2-1.2-.3-1.5-.5-.4-1.2-.2-1.5.3m6.9.1c-.8 1.2 2 2.4 3.5 1.5.6-.3.8-1.1.5-1.6-.8-1.2-3.2-1.2-4 .1m63.1-.1c-.4.5-.2 1.2.3 1.5.5.4 1.2.2 1.5-.3.4-.5.2-1.2-.3-1.5-.5-.4-1.2-.2-1.5.3m107.9.1c-.4.6-.3 1.6.3 2.2s1.2.6 1.7-.2c.4-.6.3-1.6-.3-2.2s-1.2-.6-1.7.2m47.1-.1c-.4.5-.2 1.2.3 1.5.5.4 1.2.2 1.5-.3.4-.5.2-1.2-.3-1.5-.5-.4-1.2-.2-1.5.3m136.9 0c-.7 1.2 1.2 2.4 2.5 1.6 1.1-.7.4-2.5-1-2.5-.5 0-1.1.4-1.5.9m28 0c-.7 1.2 1.2 2.4 2.5 1.6 1.1-.7.4-2.5-1-2.5-.5 0-1.1.4-1.5.9m-850 2.1c-.3.5 0 1.3.8 1.6 2.3.8 8.2 0 8.2-1.1 0-1.4-8.2-1.9-9-.5m13 1c-.3.5 0 1.3.9 1.6 2.1.8 6.1.1 6.1-1.1 0-1.4-6.2-1.9-7-.5m12 1c-.8 1.3 2 2.4 4.1 1.6 2-.8.9-2.6-1.6-2.6-1 0-2.2.5-2.5 1m11 1c-.3.5 0 1.3.9 1.6 2.1.8 6.1.1 6.1-1.1 0-1.4-6.2-1.9-7-.5m11 .9c-.3.6.1 1.4.9 1.7 2 .8 4.9.1 5-1.1.1-1.4-5.1-1.9-5.9-.6m11 1.1c-.8 1.3 2 2.4 4.1 1.6 2-.8.9-2.6-1.6-2.6-1 0-2.2.5-2.5 1m10 1c-.8 1.3 2 2.4 4.1 1.6 2-.8.9-2.6-1.6-2.6-1 0-2.2.5-2.5 1m11 1c-.8 1.2 2 2.4 3.5 1.5.6-.3.8-1.1.5-1.6-.8-1.2-3.2-1.2-4 .1m11.1.9c-.4.5-.2 1.2.3 1.5.5.4 1.2.2 1.5-.3.4-.5.2-1.2-.3-1.5-.5-.4-1.2-.2-1.5.3m6.9 1c-.7 1.2 1.2 2.4 2.5 1.6 1.1-.7.4-2.5-1-2.5-.5 0-1.1.4-1.5.9m7 1.1c-.8 1.2 2 2.4 3.5 1.5.6-.3.8-1.1.5-1.6-.8-1.2-3.2-1.2-4 .1m7 1c-.8 1.2 2 2.4 3.5 1.5.6-.3.8-1.1.5-1.6-.8-1.2-3.2-1.2-4 .1m9.1.9c-.4.5-.2 1.2.3 1.5.5.4 1.2.2 1.5-.3.4-.5.2-1.2-.3-1.5-.5-.4-1.2-.2-1.5.3m7 1c-.4.5-.2 1.2.3 1.5.5.4 1.2.2 1.5-.3.4-.5.2-1.2-.3-1.5-.5-.4-1.2-.2-1.5.3m34 6c-.4.5-.2 1.2.3 1.5.5.4 1.2.2 1.5-.3.4-.5.2-1.2-.3-1.5-.5-.4-1.2-.2-1.5.3m63.2 0c-6.4.3-12 .9-12.4 1.3s-1.3.3-2.1-.4c-2.8-2.3-3.5.7-3.1 13.1.3 11.9.3 12.1-1.5 9.9-5.8-7.4-9.9-11.6-13.5-13.6-5.7-3.1-6.2-1.1-.6 2.4 4.8 3 11.9 11.9 17.1 21.4 3.6 6.4 17.9 44.5 26.4 70.2 3.3 9.7 5.9 17.9 5.9 18.1 0 .3-10 .7-22.2 1-15.1.3-25.2 1.1-31.1 2.2l-8.8 1.7-3.1-2.8c-1.6-1.6-10.7-12.6-20.2-24.4-18.8-23.3-30.6-35.4-38.9-39.4-5.8-2.9-15.5-5.3-17.8-4.4-2.2.9-12.3 21-16.3 32.7-9.8 28.2-11.7 41.1-12.3 81.6l-.5 33-2.9 8.5c-4.3 13-6.7 23.8-9.4 43.8-1.4 10-3.2 19.9-4 21.8q-3.15 7.65-15 5.7c-6.8-1.2-7.9-.9-6.5 1.6 1.2 2.4 6.4 4.7 12.3 5.6 4.3.6 4.7.8 4.1 2.8-2.4 7.8-5.4 14-11.6 24.3-12.5 20.6-16.8 34.1-19.3 60.9-1.6 16.1-3.8 32-5.4 38.5-1.4 5.7-3.7 10.4-8.8 18.2-6.2 9.1-13.6 22.5-19.2 34.5-4.9 10.3-3.2 9.3-19.3 10.9l-6.8.6v-7.3c0-15.8-7.2-66.5-15.1-106.9-7-35.9-12.2-61.1-14.4-70.5-1.3-5.5-5.2-22.8-8.5-38.5-6.8-31.6-15.2-66.9-17.1-71.5-.7-1.7-1.3-3.5-1.3-4-.3-2.8-3-12.1-3.7-13.1-.5-.6-.6-1.3-.4-1.6.3-.3 0-1.8-.6-3.4-.7-1.6-1.3-3.6-1.4-4.4-.5-3.8-5.8-22.6-6.6-23.4-.6-.6-1.3-.6-2 .1-.8.8-.1 4.1 2.6 12.5 2.1 6.2 4.2 11.8 4.6 12.4.5.6.6 1.3.4 1.6-.3.3 0 1.8.6 3.4.7 1.6 1.1 3.3 1 3.7-.2 1 1.7 8.1 3.1 11.6.6 1.4 1.2 3.3 1.3 4.1s1.6 6.9 3.3 13.5c3.8 14.6 7.5 31.3 15.2 68 3.3 15.4 7.7 36.5 10 47 2.2 10.4 5 25.1 6.1 32.5s3.6 20.9 5.5 30c5.7 27.1 7.4 43 8.1 76.1.7 33.7 1.7 30.2-8.7 31.4-3 .4-18.8 3.4-35 6.6-49 9.8-45 8.8-45 11.6 0 1.9.4 2.3 1.8 1.9 4.4-1.3 17.5-3.7 17.9-3.2.3.3 1.3.1 2.3-.4 1.6-.8 18.8-4.3 34.5-7 10.4-1.8 20-3.5 40.9-7.5 10.3-2 19.1-3.4 19.4-3.1s-.2 1.4-1 2.3c-.9 1-2.6 4-3.8 6.6-1.3 2.7-4.4 7.2-7 10-2.6 2.9-6.4 7.4-8.5 10.2-2.1 2.7-7.8 9.3-12.8 14.5-12.8 13.5-13.9 15.3-14 24.2-.2 6.9 0 7.8 4.2 15.2 11 20 23.7 26.2 44.3 21.5 5.1-1.2 10-2.1 10.8-2.1 2.2.1 6-1.8 10.5-5.3 2.1-1.6 4.2-2.9 4.5-2.7.3.1 1.3-.5 2.3-1.3.9-.8 2.2-1.5 2.8-1.5s3.2-1.8 5.7-4.1c2.6-2.2 6.2-4.7 8-5.5 1.9-.8 3.1-1.8 2.7-2.4s0-1.9.8-2.8 3.5-5.4 6.1-9.9l4.7-8.2 6 .3c3.3.1 6.2-.1 6.5-.6s.2-.8-.3-.7c-2.3.4-2.4-.3-.3-2.6 3.1-3.3 1.8-3.2-3.5.5-2.4 1.7-4.6 2.6-5 2.1-.7-1.3 4.9-5.5 10.8-8.1 2.5-1.1 4.9-2.5 5.2-3 .3-.6 1.5-1 2.6-1 1 0 1.9-.5 1.9-1 0-.6 1.1-1 2.4-1s4.3-.7 6.6-1.5c4.9-1.7 19.9-3.1 44-4 17-.7 23 .1 21.3 2.7-.4.7-.8 1.7-.8 2.3 0 .5-1.1.9-2.4.7-1.9-.2-2.1 0-1.2 1.1s-.7 2.9-8 8.8c-4.9 4.1-10.3 8.5-11.8 9.9-6.4 5.8-10.6 9-11.8 9-.6 0-1.6.6-2 1.3s-2.1 2.1-3.8 3.1c-8.8 5.5-22 16.3-25.5 20.9-2.2 2.9-4.6 5.9-5.3 6.7-.6.8-1.1 1.7-1.1 2 .1.3-.6 2.1-1.6 4-2.5 4.9-2.1 23.2.6 30.8 1.9 5.2 7.5 13.1 10.4 14.8 20.2 11.6 35.2 10.8 62-3.2 2.5-1.3 8.8-4.5 14-7.1s9.7-5.1 9.8-5.5c.2-.4 1.2-.8 2.1-.8 1 0 3.5-1.8 5.7-4 2.1-2.3 6.9-6.7 10.6-9.9 3.7-3.3 6.5-6.1 6.2-6.3-.8-.8 12.3-9.2 22.6-14.5 11.4-5.9 36-12.4 38.6-10.2 1 .8 2.2.8 4.5 0 1.8-.6 5-1.1 7.1-1.1 2.4 0 3.7-.4 3.3-1s4.1-1.1 12.7-1.2c13.3-.2 14.7-.3 26.8-1.3 14.5-1.2 22-2.1 24.7-2.9 1.1-.4 3.2-.2 4.6.3 1.9.8 2.7.7 3.1-.5.3-.8 1.9-1.4 3.8-1.4 4.7 0 18.5-2.6 23.8-4.4 2.5-.9 5.4-1.6 6.6-1.6 1.1 0 2.5-.5 3.1-1.1 2-2 23.7-.6 30.3 1.9.8.3 2.4.7 3.5.9 2.8.4 4.8.9 6.5 1.6.8.4 2.6.8 4 1s3.3.7 4.2 1.1 2.2.9 3 1c.7.1 2.3.8 3.6 1.4 1.2.7 2.2 1 2.2.7 0-.4.7.1 1.6.9.8.9 2.7 1.9 4.2 2.2 1.5.4 5.3 2.2 8.5 4 3.2 1.9 6.2 3.4 6.6 3.4s1.8.9 3.1 2c1.2 1.1 2.6 1.8 3 1.5.4-.2 1.5.4 2.5 1.5s2.1 1.7 2.5 1.5c.4-.3 1.3.2 2 1s2.1 1.5 3.1 1.5c1.1 0 1.9.4 1.9.9 0 .7 3.6 2.2 6.2 2.5.3.1 1 .4 1.4.8.4.5 1.8.8 3 .8 3.4 0 17.3 9.3 17.4 11.6 0 .6.7 1.7 1.5 2.4s1.5 2.1 1.5 3.2c0 2.2-5.7 13.8-6.8 13.8-.4 0-2.5 1.6-4.7 3.5-6.4 5.6-6.9 6-9.5 7.2-1.4.6-4.1 1.4-6 1.6-4.1.6-34.8 12.4-37 14.3-.8.7-3.3 1.6-5.5 2-2.4.4-5 1.8-6.7 3.6-2.5 2.7-2.6 2.9-.5 2.2 1.2-.3 4-1.5 6.1-2.5 2.2-1.1 4.5-1.9 5.1-1.9s1.6-.5 2.3-1.2c.6-.6 2.3-1.2 3.8-1.4 1.4-.2 3.4-1 4.3-1.8 1-.9 2.2-1.6 2.7-1.6.4 0 3.9-1.2 7.6-2.7 6.7-2.6 9.6-2.6 6.7.1-.8.8-4.5 3.1-8.3 5.1-3.8 2.1-10.3 5.8-14.5 8.4-4.2 2.5-8.8 5.2-10.3 6-1.6.8-2.8 1.8-2.8 2.3 0 .4-.6.8-1.2.8-1.6 0-30.2 14.2-30.6 15.2-.2.5-1.1.8-1.9.8-.9 0-10.7 4.5-21.8 10-11.2 5.5-20.6 10-20.9 10-.4 0-2.5.9-4.9 1.9-5.2 2.3-11.8 4.8-17.7 6.7-2.5.8-5.4 1.9-6.5 2.4-1.1.4-4.9 1.4-8.5 2-3.6.7-8.3 1.8-10.5 2.6-8.6 2.8-21 7.5-25.9 9.8-8.8 4.2-15.8 6-23.3 6-3.9 0-7.1.3-7 .6s-.2.7-.8.9c-.5.2-1.9 1-3 1.7-3.6 2.5-24.1.9-46-3.6-5.5-1.1-11.8-2.3-14-2.6s-4.9-.9-6-1.4-3.3-1.1-5-1.3c-3.5-.5-37-9.8-43.5-12.1-2.5-.9-5.7-1.6-7.2-1.6s-2.9-.4-3.2-.9-1.8-1.1-3.3-1.3c-1.6-.3-8.2-2-14.8-3.7-6.6-1.8-15.8-4.1-20.5-5.1-4.7-1.1-11.1-2.6-14.3-3.5-3.2-.8-6.8-1.5-7.9-1.5-1.2 0-3.5-.4-5.2-1-1.7-.5-11.2-2.5-21.1-4.5-26.9-5.3-46.2-9.4-53-11.4-1.6-.5-7.5-2.2-13-3.9-5.5-1.6-12.2-3.5-15-4.2-4.5-1.2-7-1.9-18.5-5.2-1.9-.5-5.2-1.2-7.2-1.5-2.1-.3-3.8-.9-3.8-1.4s-1-.9-2.2-.9c-1.3 0-6.1-1.2-10.8-2.6s-9.8-2.9-11.5-3.4c-1.6-.5-6.4-1.7-10.5-2.9-4.1-1.1-9.5-2.7-11.9-3.6-2.4-.8-4.7-1.5-5.2-1.5s-.9 5.6-.9 12.4v12.4l7.2.6c4 .3 17 1.1 28.8 1.7 11.8.5 25.6 1.7 30.5 2.5 5 .8 13.3 2.1 18.5 2.9 10 1.6 62 11.5 73 14 3.6.8 11.7 2.6 18 3.9 31 6.7 48.7 11.6 86 23.8 50.6 16.4 86.8 25.6 103 26.1 6.3.2 6.9 0 23.6-8.5 9.4-4.8 25.1-11.7 35-15.3 16.2-6.1 18.8-6.7 27.4-7.2 17.6-.9 47.1 4.7 80.5 15.4 22 7 49.7 22.8 58.9 33.6 4.6 5.4 8.3 14.1 10 23.2.4 2.2 1 4.4 1.3 4.8.3.5.7 2.9.9 5.4.2 2.4.6 4.9 1 5.5.4.5.8 3 1 5.5.4 5 1.1 6.6 2.5 5.7 1-.6.3-7.8-.8-9.8-.3-.4-.7-2.8-.9-5.3-.2-2.4-.7-4.9-1-5.5-.4-.6-.9-2.8-1-4.9-.5-5.5-6.2-22.6-9-27.1-5.4-8.5-35.7-25.7-58.7-33.3-12.2-4-41.6-11.6-56-14.5-3.2-.7-5.7-1.3-5.5-1.5.8-.8 31.2-18.3 39.3-22.7 5-2.7 17.1-8.9 27-13.7 9.9-4.9 24-12.4 31.4-16.6 9.8-5.7 14.5-7.8 17.5-8 5.5-.4 14.1-2.8 14.1-4 0-.5-1.7-1.3-3.8-1.8l-3.9-.9 8.9-5.2c23.7-13.9 34.3-24.1 34.3-33 0-4.6-3.1-9.7-10.8-17.8-4-4.2-6.9-7.8-6.5-8.1 2.4-1.3 16.9-3.9 49.1-8.7 27.7-4.1 26.5-4.2 20.4 2.5-5.8 6.3-8.8 12-10.4 19.9-2.8 13.2 4.9 29.2 16.7 35.1 3.4 1.7 6.1 2 19 2h15l13.1-6.1c7.2-3.4 16-8 19.5-10.4 14.1-9.4 26.2-14.3 56.4-22.9 12.6-3.6 17.8-5.5 29.5-10.9 9.6-4.4 21.8-14.9 24-20.7 1.6-4.2 1.3-20.1-.5-26.1-1.5-5.1-7.1-14-13.2-20.7-1.8-2.1-3.1-4.2-2.8-4.7.4-.6 3.8-1 7.6-1 9.6 0 17.3 3.6 26.7 12.5 15.8 14.9 18.1 30.7 7.7 53.1-4.1 8.9-6.2 11.6-16.8 21.2-13.8 12.5-32.3 23.5-49.7 29.4-4.7 1.6-16.3 4.2-25.9 5.9-36.5 6.2-46.8 9.4-61.4 19.2-10.1 6.8-18.4 15.9-22.8 25.2-2.5 5.3-2.9 7.3-3 15.5 0 5.2.2 11.8.6 14.6l.7 5-10.1 4.7c-5.6 2.6-10 5.1-9.7 5.6.3.4 4.9-.7 10.2-2.5 5.3-1.9 10.7-3.4 12-3.4s4.3 1.4 6.7 3c5.9 4.3 15.6 5.7 45.7 7 29.2 1.3 41.6.7 57-2.7 25.1-5.5 49-16.6 79-36.6 35.1-23.5 67.5-66.3 77-101.7 1.7-6.3 3.4-12.2 3.7-13s.7-4.8.9-8.9c.3-4 .8-8 1.2-8.8 2.3-4.1-4.5-33.5-10.9-47.2-2.1-4.6-3.7-8.6-3.5-8.8.6-.7 19.8 4.4 27 7.1 3.4 1.3 8.5 3.5 11.4 5 4.1 2.1 5.2 2.3 5.2 1.1 0-.8-2.3-2.7-5.2-4.1-6.6-3.3-29.7-11-36-11.9-4.6-.7-5-1.1-9.3-7.5l-4.5-6.8v-19.1l15.3-.3c9.3-.2 15.2-.7 15.2-1.3s-2.6-1.1-5.7-1.3l-5.8-.3.5-59.2c.8-83.9 1.2-107.4 1.9-108.6.5-.7 4.9-1.1 12-1.1h11.3l.7 3.7c.3 2.1.6 7.3.6 11.5 0 7.1 1 10.2 2.5 7.8.3-.5 1.9-1 3.6-1h2.9v-70.7l-40.7-.7c-22.5-.3-59.9-1.1-83.3-1.6s-60.5-1.1-82.5-1.2l-40-.3-.3 12.4-.3 12.4-11.2-.8c-6.2-.3-11.5-1-12-1.4-.4-.4-.8-60.4-1-133.4l-.2-132.7-32-.4c-57.5-.8-343.7-1.4-355.7-.7m.7 6.1c16 2.7 35.5 6.8 43.5 9.1 5.7 1.7 7.7 3 16.5 11.2l10 9.2H425c-12.1 0-15.6 1.8-4.3 2.3 5.6.2 7.3.6 7.8 2 1 2.7 2.4 26.3 2.5 41.4 0 7.5.4 13.9.9 14.2.5.4 4.3-1.9 8.5-5.1l7.6-5.6.1-16.6c.1-9.1 0-17.8-.1-19.3-.2-3.2 1.6-3.9 8.5-3.3 2.8.2 10.7.7 17.7 1 7 .4 14.1 1 15.7 1.5 1.6.4 3.2.6 3.5.3.2-.3 1.1-.1 1.8.3.7.5 3.3.9 5.8 1 2.5 0 6.6.4 9.2.8l4.7.7v26.2c0 14.4.2 27.2.5 28.4.2 1.3.1 2.5-.3 2.7-.4.3-.4 3.1 0 6.2s.4 6.6 0 7.8c-.5 1.1-.5 3-.1 4.1s.4 3-.1 4.2c-.5 1.3-.4 2.5.1 2.8 1.2.8 1 26.6-.3 28.2-.5.7-.6 1.3-.2 1.3.5 0 0 .9-.9 1.9-1.3 1.5-2.9 1.8-6.8 1.7-3.4-.2-5.2.2-5.5 1.1-.4.9-.9 1-1.8.3-.6-.5-1.5-.7-1.8-.4-.4.4-1.7.7-2.9.8-1.5.1-2.3.7-2.2 1.8.1.9-.5 1.9-1.3 2.3-2.3.8-1.2-13.5 2-26.5 14-56.5 14.8-60.2 15.2-74.7.2-6.8.6-13.1 1-14.2.3-1-.2-2.8-1.3-4.1-1.8-2.2-1.9-2.3-6.8-.6-3.1 1-14.9 8.7-32.9 21.6-28.3 20.3-48.6 32.7-70.8 43.4-6.5 3.1-12.2 5.6-12.7 5.6s-1.6-2.6-2.5-5.8c-6.6-23.1-20.1-61.1-27.3-76.8-5.7-12.4-5.6-11.8-5.4-26.7.2-9.8.4-10.8 2-10.3.9.3 7.1 1.5 13.7 2.6m225.4 35.9c1 .7 1.7 4.4 2.3 13.3.8 12 .8 12.3-1.4 14l-2.3 1.7-.4 70.3c-.2 38.7-.4 71.9-.6 73.8l-.2 3.5-15.1.3-15.2.3v-177l13.3-.4c7.2-.1 14.3-.4 15.7-.5s3.1.2 3.9.7M716 318.7c0 46.7-.3 87.1-.6 90l-.7 5.2-8.1.3c-4.5.2-8.1.7-8.1 1.3s9.2 1.3 24 1.7c26.7.9 29 1.1 28.1 3.4-.3.9-.6 5.1-.6 9.5v7.9h-10.2c-5.7 0-25.1-.7-43.3-1.5-40.2-1.7-163.1-4.8-170.6-4.3-6.5.5-7.1 2-1.1 2.5 3.3.3 5.9 1.6 10.5 5.1 3.4 2.6 7 5.7 8 7 1 1.2 2.2 2 2.5 1.8.9-.5 3.9 1.6 4 2.9.1.5.8 1 1.5 1 .6 0 1.1-.6.9-1.3-.1-.7.8-1.2 2.3-1.2 1.4 0 2.4.5 2.3 1.2-.5 2 5.7 2.6 36.2 3.7 91.8 3.4 173.9 8.8 238 15.7 56.1 5.9 88.9 11.3 107.6 17.5 11.5 3.7 19.4 10.2 21.7 17.7 5.8 18.2 6 24 5.8 135.6l-.1 34.9-8.3-8c-9.8-9.4-17.5-14.7-39.2-27-23.7-13.5-31.4-16.7-78-33-7.1-2.5-13.6-5-14.4-5.7-.8-.6-6.7-7.6-13.1-15.6-13.5-16.8-30.1-33.7-39.8-40.4-14.2-10-28-18.1-40.1-23.6-7-3.2-15.3-7.1-18.6-8.7-27.1-13.6-90.1-28-135-30.8-10.3-.6-58.3 2.4-71.8 4.6-3.8.6-7.1.8-7.4.5-.4-.3.2-4.1 1.1-8.3 1-4.3 2-11.9 2.3-17l.6-9.2 6.1-.3c7.7-.4 8-2.2.4-2.6l-5.8-.3v-17.1l4.3.2c5.9.3 6.1.2 4.7-1.5-.8-.9-3-1.5-5.6-1.5-4.1 0-4.4-.2-4.4-2.8 0-1.5-.9-5.4-2-8.5-1.1-3.2-1.8-6.3-1.4-6.8.3-.6-.1-1.8-.9-2.7s-3.3-5.4-5.5-9.9-4.9-9.5-6-11c-1.1-1.6-2.1-3.5-2.3-4.3-.4-2.4 1.2-10.1 2.1-9.5.4.2 1.9-.6 3.2-1.8 2.5-2.3 2.6-2.3 3.7-.4 1.5 2.3 2.5 1.5 2.6-1.9 0-2.1 1.1-3 7.4-5.9 11.3-5.1 10.9-6 11 21.1.1 12.5.4 23.1.7 23.5.3.5-2.2 1-5.5 1-7.8.2-8.1.2-8.3 1.3-.4 1.4 1.4 1.5 34.2 2.1 79.8 1.3 102.9 1.5 103.5.6 1.2-2-3.3-2.7-14.3-2.1q-11.4.45-12.3-.6c-.5-.6-1-13-1.1-27.5-.2-16.7-.7-26.4-1.3-26.4s-1.1 9.8-1.3 26.8l-.2 26.8-9.8-.3c-8-.3-9.6-.6-9.3-1.8.9-3.5 1-12.6 1.1-72.8 0-34.9-.3-63.9-.7-64.5-1.4-2.2-1.1-3.6 1.3-6.2 2.2-2.4 2.9-2.6 10.4-2.3l8.1.3.2 31c.1 19.5.6 31.2 1.2 31.5.7.3 1.1-10.3 1.3-30.6l.2-31.1 5.3-.7c8.3-1 14.5-.7 15.4.6.4.7 1.3 3.7 1.8 6.7l1 5.3 12.3-.1 12.2-.2.1 27.3c.1 15 .1 28.4 0 29.8-.8 8.9-.5 33.5.4 33.5 1.1 0 1.4-9.9 2.2-61 .2-17 .7-31.2.9-31.5.3-.2 5.4-.6 11.4-.8l10.8-.4.1 47.3c.1 43 .6 53.1 2.5 47.8.3-.8.7-30.8 1-66.7.2-35.9.7-65.6 1-65.9.7-.7 11.3-2 18.4-2.2l5.2-.1zm3.7-80.5c-.3.8-.6.5-.6-.6-.1-1.1.2-1.7.5-1.3.3.3.4 1.2.1 1.9m12.8.6c.5.3 2.1.6 3.5.7s3.9.2 5.5.4l3 .3-3.5.8c-2.1.5-4 .5-4.7-.2-1.5-1.2-3.6-.1-2.7 1.5.3.7-.4.1-1.5-1.3-1.8-2.2-2.6-2.1-2.3.2.1.3-.5 1.1-1.3 1.8-1.2 1-1.3.7-.5-1.8.4-1.7.5-3.3.2-3.7-.6-.6 2.5.4 4.3 1.3m-12.2 5.2c.3 1.1.1 2.3-.4 2.6s-.9-.6-.9-2c0-3.1.6-3.4 1.3-.6m1.8 13.8c-.7.2-1.8-.1-2.3-.6-.8-.8-.4-.9 1.3-.5 1.3.4 1.8.8 1 1.1m-219.7 3.8c1.4 2 1.7 3.5 1.1 6.7-.4 2.3-.9 5.5-1.1 7.2-.4 3.1-1.1 7-2 11.5-.3 1.4-.7 3.4-.9 4.5s-.4 2-.5 2c-.2 0-.7 2.1-1.2 5-.2 1.1-.6 2.4-.9 3-.3.5-.7 2.8-.8 5-.2 2.2-.7 4.2-1.1 4.5-.5.3-1.1 1.9-1.4 3.5-.2 1.7-.5 3-.6 3s-.4.9-.6 2c-.6 2.5-.9 3.6-1.7 5.5-.4.8-.8 2.4-1 3.5-.1 1.1-.5 2.4-.9 3-.3.5-.9 2.6-1.2 4.6s-1.1 4.9-1.7 6.5c-.7 1.6-1.3 3.2-1.4 3.6-.2.5-.4 1-.5 1.3s-.3.8-.5 1.2c-.1.5-.7 2.1-1.3 3.6-.7 1.6-1.2 3-1.2 3.3s-.7 2.1-1.7 4.2c-.9 2-1.7 4-1.8 4.4-.2.5-.3.9-.5 1-.1.2-.4 1.6-.6 3.3-.3 1.6-.7 3.2-1 3.4-.9 1-4.4-1.6-6.6-4.9l-2.4-3.5 4.6-3.9c2.5-2.2 4.5-4.4 4.5-5 0-2.2-4.5-1.3-8 1.6-2 1.7-4.2 2.7-5.1 2.4-1.9-.7-3-3.6-1.7-4.5.6-.3 2.1-1.4 3.4-2.4 3.8-2.8 9.1-6 13.2-7.9s4.2-4.1.2-3.4c-3.1.6-4.7 1.5-4.1 2.5.3.4-.4.8-1.5.8-3.1.3-8.4 3.8-8.1 5.4.2.8 0 1.1-.3.7-.4-.4-2.7.4-5.1 1.8-4 2.4-4.5 2.4-6 1-.8-.9-2-1.6-2.5-1.6-.6 0-.5-.8.1-2 .6-1.1 1.6-2 2.3-2s1.8-.9 2.5-2 1.8-2 2.6-2 3.7-2.1 6.5-4.6 5.1-4.2 5.1-3.8c0 .5 1.1-.3 2.5-1.8s4.6-3.6 7.1-4.7c4.1-1.9 5.2-4.1 2-4.1-2 0-14.1 8.3-14.2 9.8-.3 2.3-.4 2.4-1.8 1.3-1-.8-1.6-.8-2.5.2-.6.8-.7 1.8-.3 2.2.4.5.2.5-.4.2-.6-.4-2.7.4-4.5 1.7-1.9 1.4-5.3 3.6-7.7 5.1-4.1 2.5-4.4 2.6-6.2 1-1.9-1.7-1.9-1.8.3-4.9 1.2-1.7 2.2-3.6 2.2-4.1.1-.6.6-.9 1.3-.8.7.2 1.1-.3.9-1-.1-.6.5-1.2 1.3-1.2 1.7 0 5.6-2.5 6.1-4 .2-.6.9-.9 1.6-.7s1.2-.3 1.1-.9c-.2-.8.9-1.4 2.7-1.5 1.6-.2 3.5-1 4.1-1.9.6-.8 1.7-1.5 2.3-1.5.7 0 .9-.5.6-1-.5-.8 3.3-3.1 5.7-3.4 1.7-.2 3.2-2.6 2.2-3.6-1.2-1.2-6.2.5-7.6 2.5-.4.5-.8.6-.8.1s-.8-.2-1.7.6c-1 .8-2.8 1.5-4.1 1.6-1.2 0-3.9 1.4-5.9 3.1-2.1 1.7-4.1 2.7-4.6 2.2-.9-.9 3-8.1 4.4-8.1.5 0 .8-.6.7-1.3-.2-.6.3-1.1 1.1-.9s1.1-.3.8-1c-.2-.8 2-5.1 4.9-9.6 3-4.5 5.4-8.5 5.4-8.8 0-.2 3.1-5.1 6.9-10.7 8-11.9 17.6-23.9 20-24.9q4.65-1.95 7.5 1.8m220.5.9c1.7 0 2.8 2.4 1.2 2.6-.6.1-1.7.2-2.3.3-.8.1-1.3 1.5-1.3 3.3 0 1.7-.3 3.4-.6 3.7-.3.4-.6-2.1-.7-5.4 0-4.4.3-5.8 1.1-5.3.7.4 1.8.8 2.6.8m-469.8 3.1c6.5 3.3 12.6 10.1 19.3 21.4 4.8 8.1 13.6 26.8 13.6 28.9 0 1.2.5 2.1 1 2.1.6 0 1 1.1 1 2.5 0 1.3 1.3 6.4 2.9 11.2 3.3 10 4.4 16 3 16.8-1 .7-2.7-1-12.4-11.9-9.1-10.2-9.7-10.8-15.4-15.9-5.9-5.2-9.5-6.5-6.8-2.3.9 1.3 5.1 5.9 9.5 10.2 13.3 13.3 21.3 25.9 12.4 19.6-6.7-4.8-22.3-7.5-23-4-.3 1.4.3 1.8 3.1 1.8 1.9 0 4.9.5 6.8 1.2 4.6 1.5 14.6 8.4 15.9 10.8 2.1 3.9-1.8 3.4-11.2-1.5-7.6-3.9-9.7-4.6-13-4.2-2.1.3-3.6.1-3.3-.3 1.1-1.7-8.2-2.8-11.9-1.4-2.7 1.1-.6 2.9 3.7 3.2 5.6.3 19.3 4.5 18.9 5.7-.2.6-1.8 1.4-3.5 2-4.2 1.3-7.7 3.7-7.7 5.2 0 .6-.3 1.3-.7 1.5-1.6.7-6.3 7.8-7.9 11.9-1 2.4-2.1 4.9-2.6 5.6s-.8 2.8-.7 4.7c.4 4.2-3.4 9.5-6.8 9.6-2.2 0-2.2 0-4-9.5-.9-4.8-1-5.4-1.3-6-.1-.3-.4-1-.5-1.5-.1-.6-.3-1.1-.4-1.3-.2-.1-.4-1.2-.7-2.4-.2-1.3-1.3-4-2.4-6-1.1-2.1-2-4.3-2-5s-.4-1.3-.9-1.3c-.7 0-2.1-4.2-1.9-6 0-.3-.7-2.3-1.6-4.4-3.8-9.1-3.8-29.9-.1-46.1.4-1.7.8-3.9 1.1-5 .9-5.3 1.8-8 2.5-8.6.5-.3 1-1.7 1.1-3.2s.6-2.7 1-2.7.8-1.1.8-2.5.5-2.5 1-2.5c.6 0 1-.6 1-1.3 0-.6 1.3-4 3-7.5 1.6-3.4 2.6-6.2 2.2-6.2s1.1-1.6 3.2-3.5c4.5-4 9.5-4.6 14.7-1.9m484.2-.2c.4 1 .1 1.3-.8.9-.8-.3-1.7.2-2.1 1-.3.9-1.3 1.3-2.5 1-1-.3-1.6-1-1.3-1.5s.8-.7 1.1-.4 1.5-.1 2.7-.9c2.5-1.8 2.3-1.8 2.9-.1m7.1 3.1c.2.6-.4 1.2-1.4 1.2-1 .1-2-.4-2.3-1.1-.3-.6.3-1.2 1.4-1.2 1 0 2 .5 2.3 1.1m-5.9.5c.3.5-.1 1-1 1s-1.3-.5-1-1c.3-.6.8-1 1-1s.7.4 1 1m-8.5 4.9c0 .9-1.9 3.7-2.1 3.1-.8-2.7-.4-4.8.7-4.3.8.3 1.4.8 1.4 1.2m12-.2c0 .3-.7.3-1.5-.1-.8-.3-1.9.2-2.4 1.2-1 1.6-1 1.6-1.1 0 0-.9.6-1.8 1.3-2.1 1.3-.4 3.7.2 3.7 1m1.1 3.7c-.7.8-1.1 2.2-.9 3.2.2.9-.3 1.9-1.1 2.2-.9.3-1.2 0-.8-1 .3-.9 0-2.1-.6-2.8-.8-.9-.9-1.1-.1-.7.7.4 1.7 0 2.4-.8s1.5-1.5 1.7-1.5c.3 0 0 .6-.6 1.4m6.6.8c-.3.8-.6.5-.6-.6-.1-1.1.2-1.7.5-1.3.3.3.4 1.2.1 1.9m-16.8 2.4c-.6.8-.9 1.4-.5 1.4h1.4c.4 0 .7-.5.7-1.2 0-.6.6-1.3 1.4-1.6s1.1 0 .7.6c-.3.6-.2 1.3.4 1.7.5.3 1 1.3 1 2.2 0 1.2-.3 1.3-1.4.4-1-.9-1.6-.9-2.1-.1s-1.2.4-2.2-1c-1.2-1.7-1.8-1.9-2.9-.9-.8.6-1.4.9-1.4.5s-1.2.1-2.7 1.1l-2.8 1.7 1.9-2.2c1.1-1.2 2.6-2.1 3.5-2 .9.2 2-.7 2.6-1.9.7-1.7 1.2-1.9 2.2-1.1s1 1.4.2 2.4m-9.4-1.6c-.3.5-1.1 1-1.6 1-.6 0-.7-.5-.4-1 .3-.6 1.1-1 1.6-1 .6 0 .7.4.4 1m26.5 4.2c0 .6-.6.5-1.5-.2-.8-.7-1.5-1.4-1.5-1.6s.7-.1 1.5.2c.8.4 1.5 1.1 1.5 1.6m-20.6 2c-.4.6 0 1.6.9 2.3 1.5 1 1.3 1.2-1.1 1.1-2.5-.1-2.7-.3-1.7-2.3.5-1.3 1.4-2.3 1.8-2.3.5 0 .5.5.1 1.2m20.3 1.3c0 1.7-1.3 2-2.1.6-.4-.5 0-1.2.6-1.4.7-.3 1.3-.6 1.4-.6 0-.1.1.6.1 1.4m-25.2 1.6c1.1 1.7-.1 2.1-1.5.4-.8-.9-.8-1.5-.2-1.5s1.4.5 1.7 1.1m16.5-.1c-1.8 1.2-3 1.3-3 .2 0-.4 1-.9 2.2-.9 1.8-.2 2 0 .8.7m-21.3 3.2c-.3.8-.6.5-.6-.6-.1-1.1.2-1.7.5-1.3.3.3.4 1.2.1 1.9m7.9 1.9c.1.5.2 1.2.3 1.5 0 .4.7.1 1.5-.5 1.8-1.5 4.9-.3 4.2 1.6-.3.8-.6 1.9-.6 2.5s-.7.5-1.6-.3c-2.3-1.9-4.6-2-7.2-.3-1.6 1.1-2.1 2.1-1.7 3.2.4.9.7 2.4.8 3.2 0 2 1.7 4.1 2.8 3.4.5-.3.7-1 .4-1.5s.2-.6 1.1-.2c1.6.6 1.6.7-.1 1.9-1 .7-2.1 1.1-2.6.9-.4-.3-1.1-.1-1.4.5-.9 1.5 1.4 4.1 3.3 3.8.8-.2 1.7.2 1.9.7.2.6-.9 1.1-2.4 1-2 0-2.8.5-2.7 1.7.1.9-.4 1.4-1.1 1.2-1.6-.7-3 1.5-1.8 2.7.5.5 2.1 1 3.5 1.1 1.5.1 2.4.7 2.1 1.4-.2.7.1 1.5.7 1.9 1.4.9 4.2-1.4 3.3-2.8-.4-.6 0-.8 1-.4 1.9.7 5.1-3.7 4.3-6-.5-1.2-.9-1.3-2-.4s-1.6.9-2.2-.1c-1.4-2.1-1.4-4-.1-3 .7.5 2.1.8 3.3.7 1.4-.1 2.1.4 2 1.4-.1.9.6 1.5 1.5 1.3.9-.1 2.2.4 2.8 1.2 1 1.2.8 1.7-.9 2.6-3 1.6-1.5 3.1 2.6 2.5 3.1-.4 3.4-.2 2.4 1-.7.8-1.7 1.2-2.2.9-1.6-1-4.9 2.8-4.3 5 .5 1.9.5 1.9-.5.3-.9-1.3-.9-2.2 0-3.2s.9-1.9 0-3.5c-1.1-2.1-3.7-2.2-3.2-.1.1.6-.4 1.1-1.2 1.1-2.4 0-2.9 2-1.1 4 1 1.1 1.2 2 .6 2.4s-.8 1.3-.5 2c.3.8-.4 1.6-1.6 1.9-2.7.7-5.2-.2-4.4-1.5.3-.5 1.1-.5 1.9.2s1.5.7 1.9.1c.4-.5.2-1.3-.4-1.6-.8-.5-.7-1.1.1-2.1.9-1.1.8-1.5-.5-2-.9-.4-2-.4-2.3 0-.3.3-1.2-.3-2-1.3-.7-1.1-2.2-1.8-3.6-1.7-2.1.3-2.3-.1-2.3-4.5 0-2.6.3-4.6.7-4.3.4.2 1.3-.3 2-1.2 1.1-1.4 1-1.9-1-3.5-1.6-1.3-2.1-2.5-1.6-3.9.3-1.1.9-1.9 1.3-1.9 2 .3 2.2-.3.8-2.3-2-2.8-2-3.8-.2-3.8 1.9 0 5.7-4.9 4.9-6.4q-.45-.9.3-.3c.5.5 1 1.3 1 1.8m22.1 2.1c-.3.7-.5.2-.5-1.2s.2-1.9.5-1.3c.2.7.2 1.9 0 2.5m-12.1 1.5c-.7.7-2.6-.7-2.6-1.9 0-.6.6-.6 1.5.2.9.7 1.3 1.5 1.1 1.7m5.5 2c-1.2 2-1.4 1.4-.5-1.2.4-.9.9-1.4 1.1-1.1.3.2 0 1.3-.6 2.3m-7.5 2c0 1.1.6 1.8 1.6 1.8s2.3.6 3 1.3c.6.6.8 1.2.3 1.2-.4 0 0 .9 1.1 2.1 1 1.1 1.4 1.9.9 1.8-.6-.2-2 .2-3.2.9-1.6.9-2.4.9-2.9 0-.4-.6-.3-.8.3-.5 1.4.9 3.7-1.9 2.8-3.3-.5-.8-1.1-.7-2.2.2-.9.7-1.9 1.3-2.2 1.3s-.5.4-.3.8c.1.5-.2.6-.7.3-.5-.4-1.2-.2-1.6.4-.3.5-1.1 1-1.7 1s-.3-.9.6-1.9c1-1.1 1.5-2.5 1.1-3.1-.3-.6-.3-.9.2-.8.4.2.8-.2.8-.7 0-.6-.4-.9-.8-.7-.4.1-1.8-.5-3-1.3-2.2-1.6-2.1-1.6 1-1.2 1.8.3 3.5.1 3.9-.4.8-1.4 1.2-1.1 1 .8m10.3 5.2c.8.5.9 1.1.3 1.5-.5.3-1.5-.1-2.2-.9-1.4-1.6-.3-2 1.9-.6m3.7 6.6c.2 2.8-1.1 3.4-2 .9-.3-.8-1-1.3-1.5-.9-.5.3-1.2.1-1.5-.4-.6-.8 1.1-1.7 3.9-2 .6 0 1.1 1 1.1 2.4m-3 5.3c-.4.3-1.4-.2-2.4-1.2-1.6-1.8-1.6-1.8.6-.6 1.3.6 2.1 1.4 1.8 1.8m-19.4 1.4c-.7.7-1.2.8-1.2.2 0-1.4 1.2-2.6 1.9-1.9.2.3-.1 1.1-.7 1.7m22.8.6c0 1-.7 1.9-1.4 1.9-1.1 0-1.3-.5-.5-1.9.5-1 1.2-1.8 1.4-1.8.3 0 .5.8.5 1.8m0 5.2c0 1.4-2.8 1.9-3.3.5-.3-.7-.3-1.5 0-1.8.7-.7 3.3.3 3.3 1.3m-27.2 6.7c-.7.9-.7 1.7.1 2.7.9 1 .8 1.5-.4 1.9-.8.4-1.4.3-1.3-.1s-.4-1.8-1.1-3.1-.8-2.1-.3-1.7c.6.3 1.3.2 1.7-.4.3-.6-.1-1.3-.9-1.6-.9-.3-1.6-1.6-1.6-2.8.1-1.9.3-1.9 2.5.9 1.8 2.1 2.1 3.2 1.3 4.2m19.7-3.7c-.3.5-1.1 1-1.6 1-.6 0-.7-.5-.4-1 .3-.6 1.1-1 1.6-1 .6 0 .7.4.4 1m7.5 3c0 1.1-.2 2-.4 2s-.6-.9-.9-2-.1-2 .4-2 .9.9.9 2m-14 .4c0 .3-.4.8-1 1.1-.5.3-1 .1-1-.4 0-.6.5-1.1 1-1.1.6 0 1 .2 1 .4m8.5.5c-.3.6.3 1.5 1.2 2.1 1.2.7 1.3 1 .3.7-2-.6-7.2 2.1-6.5 3.3.3.6 0 .7-.8.4s-1.8-.1-2.2.5c-.9 1.6-2.8 1.3-2.2-.3.3-.7 0-1.9-.6-2.6-1-1-.8-1.1.8-.5 3.9 1.4 5 1.1 4.7-1.4-.2-1.9 0-2.1 1.2-1.2 1 .9 1.6.8 2.6-.4 1.4-1.6 2.5-2.1 1.5-.6m-16.8 7.9c-1 1-1.4 2.2-1 2.7.5.4.2.5-.4.1-1-.5-.9-1.3.3-3.2.9-1.3 1.9-2.2 2.2-1.9s-.2 1.3-1.1 2.3m19.4 1.4c-.9.9-1.2.9-.7.1.3-.6.2-1.4-.4-1.8-.5-.3-1-1.1-1-1.8 0-.6.7-.4 1.7.6 1.4 1.4 1.5 1.9.4 2.9m-8 .8c.1.5.3 1.4.4 2 .1.5.3 1.3.4 1.6 0 .4.7.2 1.4-.4 1.7-1.5 3.6-.1 2.8 2-.6 1.6-.9 1.6-3.4.3-1.5-.7-3.6-1.2-4.6-1-1.1.2-2.2-.3-2.5-1-.6-1.7 1-3 1.9-1.5s2.7.1 2.1-1.6c-.3-.8-.1-1.4.4-1.4.6 0 1.1.4 1.1 1m-18.7 4.1c-.3.6.2 1.9 1.2 3 1.7 1.9 1.7 2.1-.5 4.2l-2.2 2.2.2-5.7c.1-3.1.6-5.5 1.1-5.2s.6 1 .2 1.5m11.1-.3c0 .9-.4 2.3-.8 2.9-.9 1.5.7 2.5 2.7 1.7 2.3-.9 2 .9-.5 2.4-1.7 1.1-1.8 1.6-.8 2.8.9 1.1 1.5 1.2 2.5.3.9-.7 1.4-.7 1.4-.1 0 .5-.7 1.5-1.5 2.2-1.6 1.3-1 3.4.6 2.4 1.7-1 8-1 8.6 0 .4.5.1.6-.6.2-.6-.4-1.4-.1-1.7.7-.3.9-1.9 1.4-4.2 1.4-3.8-.1-6.4-2.1-5.5-4.3.3-.7-.9-2-2.6-2.9-1.7-.8-3-1.9-2.9-2.3s-.3-1.7-1-3c-1.2-2.1-.9-2.7 1.2-2.3.5.1 1.6-.1 2.4-.4 1.1-.4 1.2-.8.2-2s-.9-1.5.7-1.5q1.95 0 1.8 1.8m-342.1 7.4c1 2 2.8 4.7 4 6 3.5 3.6 9.6 11.4 9.6 12.2 0 .5 1 2.1 2.1 3.8 1.4 1.9 2.5 2.6 3.1 2s.7-1.6.2-2.4c-.5-.7-.9-1.8-1.1-2.3-.1-.6-1.1-3.5-2.3-6.5s-2.4-6.3-2.7-7.3c-.3-.9-.9-1.7-1.4-1.7s-.9-.5-.9-1.1c0-2.6 5.4 4.2 13.5 17 .6.9 1.2 1.8 1.5 2.1s2.5 4.5 5 9.5c2.5 4.9 5 9.3 5.5 9.7.6.4.7.8.3.8s.3 2.1 1.6 4.7c1.2 2.7 2.8 6.6 3.4 8.8.5 2.2 1.6 5.8 2.2 8 1.2 4 .9 19.7-.5 26-.5 2.3-.1 3.7 1.6 5.9 2.2 2.8 2.3 2.8 3 .7 1.1-2.8 3.9-2.7 3.9.1 0 3.9 3.7 8.8 6.6 8.8 6 0 9.7-5.2 9.8-13.9l.1-5.5 5.5-2.2c3-1.2 7.4-2.5 9.8-2.9l4.3-.7-.5 8c-.6 10-2.1 13.6-8 19-6.8 6.3-11.6 8.2-20.8 8.2-8.2 0-9.8-.9-9.8-5.9 0-2.3-1.5-2.8-2.7-.9-1 1.7-1 4 0 5.5.5.7.6 1.6.3 2.1-1.8 3 4.9 12.6 9.6 13.7 1.5.4 3.2 1.3 3.9 2.1.6.8 1.7 1.4 2.3 1.4 1.8 0 7.1 7.1 9.2 12.2 1 2.7 2.2 4.8 2.7 4.8.4 0 .7 1.3.7 2.8 0 1.6.3 3.1.6 3.5.3.3 5.4-1.8 11.3-4.8 10.7-5.3 20.2-8.7 27.6-9.8 4.8-.8 3-.1-9.5 3.7-4.7 1.4-12.5 4.7-17.5 7.4-8.5 4.5-9 5-9.8 8.7-1.7 8.7-2.9 7.9 12.8 8.6 13.9.6 31.1 2.7 30.1 3.6-.3.3-4.7.1-9.8-.5-14.6-1.8-28.2-2.5-31.7-1.7-2 .4-3.7 1.7-4.6 3.5l-1.4 2.8 7.7.7c8.3.7 15.1 2.4 20 4.9 5.4 2.8 4.5 3.6-1.1 1.1-2.9-1.4-7.7-2.9-10.7-3.5-6.6-1.2-19.3-1.3-18.6-.1.5.8-1.5 2.9-8.3 8.3-1.2 1-3.2 1.8-4.5 1.8s-2.9.7-3.6 1.5c-1.4 1.7-3.4.9-2.6-1.1.7-1.9-1.4-3-2.5-1.3-1.3 2.1-1.1 2.6 1.2 3.2 1.8.5 2 1.1 1.5 3.4-.8 3.6-11.7 13.9-15.5 14.6-1.6.3-3.7 1.4-4.7 2.4-.9 1-2 1.7-2.3 1.5s-1.5 0-2.6.3c-1.1.4-3.3.6-4.8.5-1.6-.1-4.2.4-5.8 1-2.3 1-3.2 1-4.4 0-1.1-.9-1.5-1-1.5-.1 0 .7-.8 1-1.7.7-1-.3-3.6-.6-5.8-.7-2.2-.2-4.5-.6-5-1-.6-.4-2.2-.9-3.5-1.2-4.2-.6-13.8-5.9-14.3-7.9-.4-1.2-1.4-1.8-3.3-1.8-1.5 0-4.8-1.2-7.2-2.6l-4.6-2.7 2.4-1.9 2.3-1.9-3.9.7c-3.7.5-4.2.3-7.6-3.4l-3.5-3.9-8.1 2.8c-12 4-42.9 20.3-44 23.1-.2.4-1.2 1.3-2.2 1.8-1.4.8-1.8.6-1.6-.7.2-.9.9-1.9 1.7-2.2.8-.4 4.6-2.7 8.4-5.2 11.5-7.6 28.2-15.8 40.5-19.8l11.5-3.8-4-1.7c-4.4-1.9-11.7-8.4-10.9-9.8.6-1 1.3-1.1-7.9.7-23.4 4.5-44.7 12.7-69.4 27-9.8 5.6-7.4 3.4 3.5-3.3 17.7-10.9 34.6-18.2 52.3-22.6 10.9-2.8 30.5-5.7 32.5-4.9.7.2 1.5-.1 1.9-.7.4-.7-.1-1.4-1.4-1.7-2-.5-2-.5.3-3.7 1.3-1.7 3.2-4.9 4.2-7.1 3.6-8 11.9-17.5 14.7-16.7.4.1.7-.2.7-.6s.8-.8 1.8-.9c.9-.1 3.7-.8 6.1-1.7 2.5-.8 4.8-1.3 5.3-1 1.1.7 4.8-1.4 4.8-2.7 0-.6.6-1.7 1.4-2.4 1.8-1.8 1.5-16.3-.4-17.5-.9-.5-.5-2.1 1.5-5.9 3.3-6.6 3.6-8.6 3.4-25.1-.1-16.5-.2-18.2-1.1-19.6-.4-.6-.7-2.7-.7-4.5 0-1.9-.3-5-.6-6.9-1.1-5.7-1.5-9.2-1.7-13.8 0-2.3-.5-4.2-1-4.2-.4 0-.8-1.9-.8-4.2v-4.2l2.9 2.8c1.7 1.6 3.1 2.3 3.5 1.7.4-.5.4-4.5 0-8.8-.3-4.3-.6-8.6-.6-9.5 0-1-.3-2-.9-2.3-.5-.4-.9-2.1-.9-3.9s-.3-3.6-.7-4-.9-1.9-1.1-3.4-.7-2.9-1.3-3c-.5-.2-.9-1.1-.9-1.9 0-2.1 3.1 1.9 5.4 6.9m350-2.7c.3.8.1 1.5-.4 1.5-.6 0-1-.7-1-1.5s.2-1.5.4-1.5.6.7 1 1.5m2.2 5.3c-1.4 1.5-1.5 1.3-.3-1.7.8-2.3 1.3-2.8 1.5-1.6.2 1-.3 2.5-1.2 3.3m5.9.1c-1.6 1-3.2 1.7-3.4 1.5-.7-.7 3.3-3.3 4.9-3.4.8 0 .2.8-1.5 1.9m-21.5.5c0 .2-.6.9-1.3 1.5-1 .8-1.4.7-1.4-.4 0-.8.6-1.5 1.4-1.5.7 0 1.3.2 1.3.4m-3.7 5.3c-.4.2-1.2.4-1.7.5-.5.2-1.1-.8-1.3-2.1-.3-2.4-.3-2.4 1.8-.5 1.1 1 1.7 2 1.2 2.1m6.4-2.2c0 .8-.6 1.6-1.4 1.9-.7.3-1.3-.1-1.3-.8 0-.8.6-1.7 1.3-1.9.6-.3 1.2-.6 1.3-.6 0-.1.1.6.1 1.4m1.7 4c-.7 1.6-2.4 2.1-2.4.6 0-.8.7-1.3 2.7-2 .1-.1 0 .6-.3 1.4m14.3 1.2c-.1 1.4-.9 2.9-1.7 3.1-1.2.4-1.3.3-.3-1 .7-.8 1-1.8.7-2.1-.6-.5.3-2.7 1.1-2.7.2 0 .3 1.2.2 2.7M727 364c0 .5-.7 1-1.6 1-.8 0-1.2-.5-.9-1 .3-.6 1-1 1.6-1 .5 0 .9.4.9 1m7.1 1.4c-.8.9-.8 2.2-.2 3.9.6 1.6.6 2.8-.1 3.5-.6.6-.6 1.2.1 1.6.6.4 2-.3 3.1-1.4 1.2-1.2 2-1.5 1.8-.7-.2.7 1.2 3 3.1 4.9 3.2 3.5 3.5 3.6 5.7 2.1 2.3-1.5 2.4-1.4 2.4 1.5 0 1.8-.6 3.2-1.6 3.6-.8.3-1.2 1-.9 1.6.4.6 1.1.7 1.7.4.7-.4.8-.2.4.5-.4.6-1.3 1-2 .9-.6-.2-1.4.1-1.6.7-.3.5.2 1 1 1.1 2.9.2 3.1.4 2.1 2.3-.6 1-.7 2.1-.4 2.5.4.4.8 1.5 1 2.6.3 1.8-.8 2.5-3.1 2.1-.5-.1-1.8.6-2.9 1.6s-1.7 1.3-1.4.6c1.1-1.8-.9-2.5-2.3-.8-1.2 1.5-.5 3.9 1 3 1.6-1 2 2.8.5 4.5-1.2 1.4-1.3 1.9-.3 2.7 1.8 1.4 5.8-.2 5.8-2.3 0-1.3.3-1.4 1.5-.4 1.9 1.6 2 6 .1 6-.8 0-1.8-.5-2.1-1-.4-.7-1.1-.8-1.8-.2-1.1.9-16.7 1-19.2.2-.5-.2-1.8 0-2.8.5-1 .4-2.1.4-2.5 0-1-.9-1.1-25.6-.2-25 1.2.8 6.8-6.8 6.4-8.8-.1-.9.2-1.5.6-1.2.5.3 1.6-.5 2.4-1.7 1.4-2 1.4-2.4-.1-4-1.5-1.7-1.5-1.8-.1-1.3 2.5 1 3.1-1.3.8-2.7-1.1-.7-2-1.7-2-2.2 0-.4.6-.3 1.4.3 1.2 1 1.7.8 2.6-.8.6-1.2 1.6-2.1 2.2-2.1.7 0 .7.4-.1 1.4m-11 1.3c1.4 1.4.5 2.9-1.9 3.5-1.4.4-1.8-.1-1.7-2.2 0-2.8 1.6-3.3 3.6-1.3m24.6 5.4c-1.5 2.3-1.6 2-1-1.4.4-1.9.8-2.5 1.3-1.6.5.7.3 2-.3 3m-5.2.1c-1.9 1.1-3 .5-2.1-1.1.4-.6 1.4-.7 2.2-.4 1.5.5 1.4.7-.1 1.5m-20.5 1.9c0 .4-.5 1.1-1 1.4-1.6 1-.2 2.4 2 2 1.3-.3 1.8.2 1.7 1.5-.1 2.2-2.3 3.4-3.2 1.9-.4-.5-1-.7-1.4-.5-.4.3-.8-1.2-.9-3.3-.2-2.8.1-3.8 1.3-3.8.8 0 1.5.4 1.5.8m27.7 2.1c-.3.7-.5.2-.5-1.2s.2-1.9.5-1.3c.2.7.2 1.9 0 2.5m.1 27.5c.2 2.6.1 2.6-1.2.8s-1.1-2.5.9-3.5c0 0 .2 1.2.3 2.7m-419.1 43 11.3 3.8v4.7c0 9.3 8.5 14.4 14.6 8.7 1.4-1.3 3.1-3.6 3.7-5 1-2.3 1.6-2.5 3.5-1.8 3 1.1 3 6.6 0 10.4-9.5 12.2-37.3 6.4-44.4-9.2-1.4-3.3-2-15.3-.6-15.3.4 0 5.8 1.7 11.9 3.7m450.5 3.8c.3 1.3.1 2.2-.3 1.9-.9-.5-1.3-4.4-.5-4.4.2 0 .6 1.1.8 2.5m-.5 5.7c-.3.8-.6.5-.6-.6-.1-1.1.2-1.7.5-1.3.3.3.4 1.2.1 1.9m1.6 4.1c.3.8-.1 1.4-.9 1.4s-1.4-.6-1.4-1.4c0-.7.4-1.3.9-1.3s1.1.6 1.4 1.3m177.5 15.3c.9.2 1.2 3.6 1.2 12.1v11.8l-2.9-3.6c-1.6-1.9-5.6-4.9-8.8-6.7-6.7-3.5-24-8.7-32.6-9.7-6-.8-7.3-1.6-6.3-4.1.5-1.2 4.1-1.3 24.3-.8 13.1.3 24.4.7 25.1 1m-732 36.7c5.4 3 16.9 10.1 18.3 11.3 1.3 1.1 3.6 1.1 14.5-.5 18.8-2.8 29.2-3.4 40.2-2.5l9.7.9-18 .6c-16 .5-30.4 2-35.9 3.6-2.4.7-1.2 1.6 4.6 3.8 4.7 1.7 8.3 4.5 5.9 4.5-2 0-11.3-3.9-13-5.4s-5.1-1.3-17.1.9c-2.6.5-3.1.4-2-.4.8-.6 2-1.1 2.7-1.1.6 0 2.4-.5 4-1.1l2.8-1.1-2.6-1.2c-5.5-2.3-20.6-13.2-24.2-17.4-5.5-6.4-3.4-7.3 2.8-1.2 2.9 2.9 6.2 5.7 7.3 6.3m322.7-1.5c5.7 1.4 2.1 1.4-13.6.1s-47.3.1-57.4 2.6c-3.2.8-6.1 1.2-6.3 1-.7-.7 10-3.4 17.3-4.4 8.4-1.2 54.3-.6 60 .7m-274 24.2c.3.5-.1 1-1 1s-1.3-.5-1-1c.3-.6.8-1 1-1s.7.4 1 1m2.9 23.1c-.3.5-1 .7-1.5.3-.5-.3-.7-1-.3-1.5.3-.5 1-.7 1.5-.3.5.3.7 1 .3 1.5m1.1 7.9c-.5.8-1.1.8-1.7.2s-.7-1.6-.3-2.2c.5-.8 1.1-.8 1.7-.2s.7 1.6.3 2.2m-25.4 1.2c-1.3 1-2.8 1.5-3.4 1.1s-.1-1.3 1.2-2.5c1.3-1 2.8-1.5 3.4-1.1s.1 1.3-1.2 2.5m15.3.9c-.3.5-1 .7-1.5.3-.5-.3-.7-1-.3-1.5.3-.5 1-.7 1.5-.3.5.3.7 1 .3 1.5m10.9-.9c1.4-1.3 1.9-1.4 2.9-.3 1.1 1 .9 1.5-.7 2.8-1.4 1.1-1.5 1.4-.3 1 .9-.3 1.8-.3 2.1-.1.7.8-20.8 22.4-22.2 22.4-.7 0-1 .4-.6.9.3.5.1 1.2-.5 1.6-1.6 1-1.2 2.2 1 2.8 1.5.4 3-.6 5.7-3.9 2.5-2.9 4-4.1 4.7-3.4.6.6 1.7 1 2.5 1 1.2 0 1.1-.3-.3-1.3-1.7-1.3-1.6-1.5 1.4-4 3.3-2.9 5.3-2.8 4.4.1-.4 1.2 0 1 1.2-.5 1.3-1.8 2-2.1 3.6-1.2s1.7 1.3.6 2.7c-1 1.2-1 1.4 0 .8.7-.4 1.5-.1 1.8.8.6 1.6 2.5 2.3 2.3.8-.4-2.3.4-2.3 3 .2s2.9 2.6 2.4.8c-.3-1.2-1-2-1.7-1.9-.6.1-1.1-.9-1.1-2.3 0-1.5.6-2.5 1.5-2.5.8 0 1.4.6 1.2 1.3-.1.8.2 1.1.7.8.5-.4 1.3-.1 1.7.5.5.8.9.7 1.5-.2.4-.8.3-1.9-.3-2.6s-.8-1.4-.4-1.4c3.9-.8 5.1-.2 3.5 1.7-.7.9-.8 1.4-.3 1.2s1 0 1.2.4c.1.5-.1.7-.4.5-.5-.2-2.8 3.2-2.9 4.4 0 .4-2.1 2.9-4.6 5.7-4.7 5-7.8 11.2-5.7 11.2.5 0 1.9-1.1 3-2.5s2.4-2.3 2.9-2c.5.4.6 0 .4-.8-.5-1.3 3.3-5.7 4.1-4.7.2.3 1.9-1 3.8-2.8 3.3-3.1 5.5-3.9 7-2.5.3.4 1.4.8 2.2.9 1.4.2 1.4 0-.1-1.6-1.8-2-.5-3.7 1.8-2.4.9.6.9.4-.1-.8-.7-.9-.9-1.8-.5-2.1 1.4-.9 8.6 3 8.9 4.8.4 2.7.8 2.6 4.3-.5 3-2.8 6.2-3.3 4.4-.7-.8 1.2-.9 4.7-.2 7.7.2.8 1.2 1.8 2.2 2.2 1.1.5 1.5 1.3 1.1 2-.5.8-.1.8 1-.1 1.5-1.3 2.1-1.3 3.9-.1 1.9 1.2 2.1 1.1.9-.2-1-1.2-1-1.7.1-2.7.8-.6 1.7-.8 2-.4.4.3 1.3.1 2-.6 1.1-.9 1.7-.8 2.6.2.6.8.8 1.7.4 2-.3.4.4 1.8 1.6 3.1 1.9 2 2 2.4.6 3.6-.8.7-2.4 1-3.5.7s-2.3-.1-2.6.4-1.3.9-2.4.9c-1 0-2 .7-2.4 1.5-.3.9-1.8 1.5-4 1.5-2.8 0-3.4.3-3 1.5.4.9 1.4 1.4 2.3 1.1 3.5-1 16.9-5 22.1-6.6 8.8-2.8 17.9-6.9 20.1-9.1 1.1-1.1 2.4-1.7 3-1.3 1.4.8 1.4.9-13.6 10.9-7.1 4.8-13.1 9.1-13.3 9.6s-.9.9-1.5.9c-1.5 0-14.7 13.1-14.7 14.6 0 .7-1.2 2.6-2.6 4.3s-2.3 3.1-1.9 3.1 0 1.1-.8 2.3c-.8 1.3-1.7 3.2-1.9 4.3-.2 1-.6 2.1-1 2.4s-1 2.3-1.3 4.5-.8 5.1-1.1 6.5c-1.1 5.2-1.9 21.2-1.2 23.1 1.1 2.8 0 4.3-1.8 2.8-1.1-.9-1.8-.9-2.9.1-1.3 1-1.9 1-3.3-.3-1.3-1.2-2.1-1.4-2.9-.6-.7.7-2.1.1-4.7-2.1-2-1.8-3.6-3.6-3.6-4.2 0-1.1-6.9-7.8-8-7.8-1.4 0-2.7 2.5-2.1 4 .3.8 1.3 1.5 2.1 1.5s1.9.9 2.5 2.1c.5 1.1 2.9 4.3 5.2 7 4 4.8 4.1 5.2 2.5 6.9-1.6 1.8-1.6 1.8.1.5 1.2-.9 2.1-1 2.8-.3 1.1 1.1-5.8 6.4-10 7.8-1.2.3-2.1 1.1-2.1 1.6s-.6.9-1.3.9c-.8 0-3.3 1.4-5.6 3.1-4.1 2.9-4.3 3-6.9 1.3-7-4.6-26-24.7-30.9-32.9-2.9-4.8-8.3-16.4-8.7-19.1-.3-1.6-1-4.5-1.6-6.4-1.5-5.1-1.3-17.9.3-18.5 1-.4 1.4-7.1.8-11.4-.2-1.3-4 5-4.5 7.6-.4 1.7-1.3 3.6-1.9 4.1-1.7 1.4-1.4 17.6.3 19.7.7.8 1 2.3.7 3.4-.2 1 0 2.5.4 3.4.6.9.5 1.8 0 2.2-.6.3-1.5-.3-2.1-1.4-.7-1.3-.7-2.2 0-2.6.6-.4.8-1.1.4-1.6-.4-.6-1-.6-1.9.1-1 .8-2.1.1-4.7-2.9-1.9-2.2-3.9-5.2-4.6-6.6s-1.7-3.6-2.4-5c-.9-1.9-.8-2.8.3-4.1 1.2-1.5 1.1-1.9-.9-3.2-2.6-1.7-2.8-3.4-.7-5.2 1.8-1.5 1.5-3.5-.6-3.5-.8 0-1.4-.8-1.4-1.8 0-.9.5-1.6 1-1.5.6.2.9.6.8 1-.2.4.4.5 1.2.2.8-.4 1.2-1.1.8-1.8-.4-.6-.8-1.6-.8-2.1 0-.6-.6-1-1.2-1-1.7 0-1.8-.5-1-3.4.3-1.3 1-2 1.6-1.6 1.3.8 1.4-.7.2-2.1-1.1-1.1-.3-6.4 1-6.4.5 0 .9-.7.9-1.5s3.4-4.9 7.5-9c7-7.1 8.7-9.5 6.7-9.5-.4 0-1.3.5-2 1.2-.6.6-1.7 1.3-2.4 1.4s-4.1.9-7.6 1.8c-7.1 1.9-13.2 1.9-12.5 0 .5-1.4 10.7-8.2 16-10.7 2.3-1.1 3.4-1.2 4.4-.3.9.8 1.1.7.6-.6-.4-1.1.1-2.3 1.5-3.2 2.6-1.9 4.8-.8 2.3 1-2.4 1.8-1.3 2.9 1.2 1.3 1.6-.9 2.8-.8 6.7 1 2.7 1.1 5.2 1.9 5.6 1.6.5-.3 1.2 0 1.6.7.6.9 1 .5 1.4-1.2s1.3-2.5 2.7-2.5c2.6 0 3.8-1.1 3.8-3.3 0-1.2.9-1.7 3-1.8 1.7-.1 3.2-.2 3.5-.3.3-.2 1.4-.4 2.4-.6s2.6-1.1 3.5-2c1.4-1.4 1.7-1.4 2.7-.1.9 1.3 1.3 1.3 2.7-.2m-32.9 2.9c-.3.5-1 .7-1.5.3-.5-.3-.7-1-.3-1.5.3-.5 1-.7 1.5-.3.5.3.7 1 .3 1.5m-4 2c-.3.5-1 .7-1.5.3-.5-.3-.7-1-.3-1.5.3-.5 1-.7 1.5-.3.5.3.7 1 .3 1.5m3 2c-.3.5-1 .7-1.5.3-.5-.3-.7-1-.3-1.5.3-.5 1-.7 1.5-.3.5.3.7 1 .3 1.5m39 3c-.3.5-1 .7-1.5.3-.5-.3-.7-1-.3-1.5.3-.5 1-.7 1.5-.3.5.3.7 1 .3 1.5m-2 3c-.3.5-1 .7-1.5.3-.5-.3-.7-1-.3-1.5.3-.5 1-.7 1.5-.3.5.3.7 1 .3 1.5m23 2c-.3.5-1 .7-1.5.3-.5-.3-.7-1-.3-1.5.3-.5 1-.7 1.5-.3.5.3.7 1 .3 1.5m68 7c-.3.5-1 .7-1.5.3-.5-.3-.7-1-.3-1.5.3-.5 1-.7 1.5-.3.5.3.7 1 .3 1.5m-39 1c-.3.5-1 .7-1.5.3-.5-.3-.7-1-.3-1.5.3-.5 1-.7 1.5-.3.5.3.7 1 .3 1.5m19.9 3.5c.4.1 1 .2 1.4.3.3 0-.1.9-1 1.9-2 2.2-6.2 2.2-6.2.1 0-.8.6-1.3 1.3-1.2.6.2 1.1 0 1.1-.5-.3-1.7.2-2.3 1.4-1.5.6.4 1.5.8 2 .9m-10.9 2.5c-.3.5-1 .7-1.5.3-.5-.3-.7-1-.3-1.5.3-.5 1-.7 1.5-.3.5.3.7 1 .3 1.5m-9 3c-.3.5-1 .7-1.5.3-.5-.3-.7-1-.3-1.5.3-.5 1-.7 1.5-.3.5.3.7 1 .3 1.5m16 2c-.3.5-1 .7-1.5.3-.5-.3-.7-1-.3-1.5.3-.5 1-.7 1.5-.3.5.3.7 1 .3 1.5m-29.9 87.8c.6 1.1-2.9 3.3-3.9 2.4-.7-.7 1.2-3.3 2.5-3.3.4 0 1 .4 1.4.9M762 754c2.5.1 6 .9 7.9 1.7 1.8.8 3.9 1.6 4.5 1.7 2.6.4 9.4 6.2 10.6 9.1 1.4 3.3 1.8 4.4 2 5.7.4 1.7 2.1 8 2.9 10.6.5 1.9.6 3 0 2.7-.5-.4-.9.1-.9 1 0 1.1.5 1.5 1.4 1.2 3.2-1.2 2.1.8-3.3 6.1-7.1 7.2-12.4 11.3-18.1 14.2-2.4 1.3-6 3.5-8 5-6.6 5.2-18.8 5.4-23.9.3-1.3-1.2-2.9-2.3-3.6-2.3s-1.6-1.2-1.9-2.6c-.4-1.4-1.7-3.6-3-4.8s-2.6-3.3-2.9-4.6c-.3-1.4-.5-.3-.4 2.5.1 8.2 5.1 15.7 9.3 14.1.8-.3 1.2-.2.9.4-.3.5.9 1.6 2.6 2.5 2.7 1.4 2.9 1.9 1.7 3.1-2.3 2.3-12.1 3.6-18.3 2.5-12.2-2.3-17.4-6.5-21.1-16.9-1.3-3.9-2-4.8-2.7-3.7-.4.9-1.2 1.3-1.8 1-1.9-1.3-.8 2.7 2.7 9 2 3.6 5.4 8 7.5 9.7s3.6 3.4 3.4 3.9c-1 1.5-10.8-3.6-16.1-8.3-6.2-5.7-8.7-11.2-8.1-17.9.2-2.5.7-5.1 1.1-5.7.4-.7.4-1.7.1-2.2-.3-.6-.1-1 .4-1 .6 0 1.1-1.1 1.1-2.5s.4-2.5.8-2.5c.5 0 1.5-1.2 2.3-2.7 1.3-2.6 11.4-13.3 12.5-13.3.3 0 2.3-1.8 4.6-4 3.9-3.7 15.9-10.4 21-11.7 6.4-1.6 14.4-1.9 32.8-1.3m102.1 72.5c5 2.6 6.9 4.5 6.9 7.2 0 1.2.4 2.3.9 2.3s.7.8.5 1.7c-.3 1 .2 2.7 1.1 3.8s1.3 1.3.9.5q-.9-1.8.6-.3c1 .9 1.7 1 2.7.2.7-.6 3.6-1.3 6.5-1.6s5.5-.9 5.8-1.4c.3-.4 1.4-.8 2.5-.8s4.8-.2 8.3-.5c3.4-.2 6.2-.1 6.2.4s-1.3 2.5-3 4.3c-1.6 1.9-3 4-3 4.6 0 .7-1.1 2.4-2.5 3.9s-2.5 3.2-2.5 3.9-.4 1.3-.9 1.3c-1.1 0-6.1 8.6-6.7 11.4-.2 1-2.1 4.7-4.4 8.3-2.2 3.5-4 6.9-4 7.4s-.4 1.5-1 2.2c-.5.7-2.5 3.1-4.4 5.5-11.4 14-31 24.8-52.5 28.7-5.6 1-9.7 1.3-10.3.7-.8-.8 9.5-9.7 14.8-12.8 1.5-.9 1.6-1.1.2-1.6-1.4-.6-11.6 3.4-12.8 5-1.3 1.7-13.3 7.3-18.6 8.7-12.9 3.3-38.6.9-50.2-4.7-14.1-6.9-21.3-20.8-17.9-34.8.7-3 1.8-5.4 2.4-5.3s1.9-1.7 2.9-4c1.9-4.4 13.6-16.7 15.9-16.7.7 0 1.8-.7 2.5-1.5.7-.9 1.5-1.3 1.8-1s1.4-.2 2.4-1.2c1-.9 1.8-1.2 1.8-.8s.9 0 2-1 2-1.5 2-1.1c0 .3 1.5-.1 3.3-1.1 1.7-.9 3.5-1.8 4-1.9.4-.1.9-.3 1.2-.4s1-.4 1.5-.5c.6-.1 1.1-.3 1.3-.5.1-.1 1.6-.4 3.2-.6 1.7-.3 3.7-.7 4.5-1.1 2.5-1 7.9-2.2 17-3.7.8-.1 3.1-.5 5-.9s5.5-.9 8-1.2 5.9-.8 7.5-1c1.7-.3 3.8-.6 4.8-.6.9 0 1.7-.4 1.7-1 0-.5 1.5-.9 3.4-.9s4.7-.5 6.3-1.2c1.5-.6 3-1.2 3.3-1.3s2-.6 3.8-1c1.7-.4 3.2-1.2 3.2-1.8s.3-.7.7-.4c.3.4 1.2.2 2-.4.7-.6 1.3-.9 1.3-.6 0 .2 1.7-.1 3.7-.8 3.9-1.3 6.6-.9 12.4 2m-148.5 2.2c-.2.3-1.4.2-2.7-.2-1.6-.6-1.8-.9-.8-1.6 1.3-.7 4.5.9 3.5 1.8m6.4.3c0 .5-.4 1-1 1-.5 0-1-.5-1-1 0-.6.5-1 1-1 .6 0 1 .4 1 1m-121.1 9.6c-.6.7-1.5 1.1-2.1.8-.5-.3-.4-1.2.3-2 .6-.7 1.5-1.1 2.1-.8.5.3.4 1.2-.3 2"/><path d="M396.5 230c-.4.6-.5 3.7-.4 7s-.1 6.3-.4 6.7c-1.1 1.1-.8 64.1.3 64.8.6.3 1.2 0 1.5-.7.2-.7.5-17.8.7-37.9.2-27.2.6-37 1.5-38.1.7-.8 1-1.8.6-2.1-1-1-3.1-.8-3.8.3m109.1 75.9c-.4.5-.2 1.2.3 1.5.5.4 1.2.2 1.5-.3.4-.5.2-1.2-.3-1.5-.5-.4-1.2-.2-1.5.3m6 5c-.4.5-.2 1.2.3 1.5.5.4 1.2.2 1.5-.3.4-.5.2-1.2-.3-1.5-.5-.4-1.2-.2-1.5.3m-7.2 1.6c-1 .8-1.5 1.5-1.1 1.5s.3.9-.3 1.9c-1.9 3.6.7 3.2 2.9-.4 2.2-3.8 1.5-5.3-1.5-3m2.2 3.4c-.4.5-.2 1.2.3 1.5.5.4 1.2.2 1.5-.3.4-.5.2-1.2-.3-1.5-.5-.4-1.2-.2-1.5.3m-5 6c-1.1 1.2-1.4 2.1-.7 2.6 1.1.6 1.5-.1 1.2-1.9-.1-.5.5-.4 1.3.3 2 1.7 4.1.4 2.5-1.5-1.5-1.9-2.3-1.8-4.3.5m-4.1 6.3c-1.2 2.9-1.1 3.5.1 5 1.1 1.1 1.2 1.8.4 2.3-.5.3-.8 1.1-.4 1.6.3.5 1 .7 1.5.3.5-.3.7-.9.4-1.4s-.1-1.1.4-1.5c.6-.3.8-1.2.5-2-.6-1.5 2.3-3.5 5.2-3.5.4 0 .1-.7-.6-1.5s-1.6-1.3-2-1c-.5.3-1.1.1-1.5-.5-1.1-1.8-2.6-1-4 2.2m-1.4 13.4c-1.7 1.3-2 1.9-1 3 .6.8.8 1.4.5 1.4-.4 0-.2.9.5 2.1 1.7 3.3 3.6.8 2-2.7-1.1-2.5-1.1-2.6.4-1.4 2.4 2 4-.2 1.7-2.3-1.7-1.5-2-1.5-4.1-.1m3.8 8.8c-.1.3-.3 1-.4 1.6-.1.5-.3 1.3-.4 1.6 0 .4-.7.1-1.4-.5-2.1-1.7-5.5 2.3-3.7 4.4 1.2 1.5 3.5 1.1 2.5-.5-.5-.8 2.3-2.5 3.7-2.2.3.1 1.1-.5 1.7-1.2.8-1 .7-1.7-.4-2.6-.8-.7-1.6-1-1.6-.6m10.2 5c-.7.8-.8 1.7-.3 2 .6.3 1.5-.1 2.1-.8.7-.8.8-1.7.3-2-.6-.3-1.5.1-2.1.8m101.5-24.5c-.4.5-.2 1.2.3 1.5.5.4 1.2.2 1.5-.3.4-.5.2-1.2-.3-1.5-.5-.4-1.2-.2-1.5.3m-1.2 15.5c-.4 1-.2 2.2.4 2.8.8.8 1.3.7 1.8-.6.4-1 .2-2.2-.4-2.8-.8-.8-1.3-.7-1.8.6m.5 5c-.5 2.4-.2 4.6.6 4.3 1.2-.3 1.4-3.6.3-4.3-.4-.3-.8-.3-.9 0m25.6 2.8c-.9 2.6 0 32.3 1 32.3 1.3 0 1.8-32.2.4-33-.5-.4-1.1 0-1.4.7m-131.9 13.7c-.4.5-.2 1.2.3 1.5.5.4 1.2.2 1.5-.3.4-.5.2-1.2-.3-1.5-.5-.4-1.2-.2-1.5.3M688.5 396c-.4.6-.3 1.6.3 2.2s1.2.6 1.7-.2c.4-.6.3-1.6-.3-2.2s-1.2-.6-1.7.2m-27.8 1.7c-.8 1.5-.1 9.4.9 9.1 1.1-.4 1.4-8.7.3-9.3-.4-.3-1-.2-1.2.2m27.8 7.3c-.4.6-.5 2.5-.4 4.3.2 1.8 0 3.8-.4 4.4-.9 1.5.9 2.7 2.9 1.9.9-.3 1.2-1.1.8-1.8-.5-.7-.7-2.9-.5-4.9.2-3.7-1.2-5.9-2.4-3.9m-28.5 8.5c-1 1.2-.9 1.6.5 2.1 2.3.9 4-1 2.2-2.5-1.1-.9-1.7-.8-2.7.4m-143.4 19.4c-.4.5-.2 1.2.3 1.5.5.4 1.2.2 1.5-.3.4-.5.2-1.2-.3-1.5-.5-.4-1.2-.2-1.5.3m-38.3-119.5c.3.8 0 1.9-.6 2.6-.9.8-.2.8 2.1-.2 3.7-1.5 3.9-3.1.4-3.4-1.6-.2-2.2.1-1.9 1m-44.8 141.4c.3.7.5 1.9.5 2.6s.7 1.3 1.5 1.3c1 0 1.5-1 1.5-2.8 0-2.2-.4-2.7-2-2.6-1.3.1-1.9.6-1.5 1.5m-17.8 47.7c-3 2.1-3.7 3.2-3.7 6 0 1.8.7 4.1 1.6 4.9.8.9 4 4.6 7.1 8.3 3 3.8 5.8 6.7 6.2 6.5.3-.1.6.9.6 2.3s-.4 2.6-1 2.7c-.5.2-1.9 1.2-3.1 2.3-3.9 3.5-4.9 4.2-6.1 3.8-.6-.2-1.7.3-2.6 1.1-.8.8-1.7 1.3-1.9 1-.3-.2-1.1.2-1.8 1.1-.7.8-2.5 1.5-4.1 1.5-1.5 0-3 .4-3.3.9s-3 1.4-5.8 2.1c-2.9.7-5.8 1.8-6.3 2.5-.6.7-3.5 2.1-6.5 3s-6.2 2-7 2.4c-.9.5-3 1.2-4.7 1.5-2.3.5-3 1.2-2.6 2.2.8 2.1 8.9 1.4 8.5-.7-.3-1.1-.1-1.1.9-.2.8.8 1.8.9 3.1.2 1-.5 1.8-.7 1.8-.3 0 .3.7.1 1.5-.6s1.5-.9 1.5-.6c0 .4 1 .1 2.3-.6 1.2-.6 2.9-1.3 3.7-1.4.8-.2 6-2.5 11.5-5.2 16.5-8.2 19.7-8.9 25.9-6.3 1.9.7 3.3.8 3.9.2 1.3-1.3 0-3.1-2.2-3.1-1 0-2.3-.6-2.9-1.3-1.4-1.7-1.2-14.9.3-16.2 3-2.6 11.5-14.7 11.5-16.4 0-1-1.1-2.6-2.5-3.5s-2.5-1.4-2.5-1-.7.1-1.5-.6c-1.7-1.4-5-.5-4 1.1.4.6 1.5.9 2.6.6 1-.3 2.6.4 3.6 1.5 1.8 2 1.7 2-10 1.6-6.4-.1-11.7-.4-11.7-.6s1.6-1 3.5-1.8c2-.8 3.3-1.9 3-2.4-1-1.6-2.8-1.2-6.8 1.5M336.5 527c.4.6 1.1.8 1.6.5 1.4-.9 1.1-1.5-.7-1.5-.8 0-1.2.5-.9 1m396-150.1c-.2.5.2 1.4 1 2.1s1.5.9 1.5.4c0-.4 1 .2 2.3 1.4 2.4 2.3 6.2 2.4 6.2.1 0-.8-1.3-1.6-3-1.9-1.6-.3-2.8-1-2.5-1.5.6-1.2-4.7-1.7-5.5-.6m-4.4 4.4c-.9 1.1-.8 1.7.4 2.7s1.6.9 2.1-.5c.9-2.3-1-4-2.5-2.2m3.9 2.3c-.9 1-1 1.8-.3 2.5.8.8 1.4.5 2.2-.9 1.3-2.5-.2-3.8-1.9-1.6m12.6-.7c-.4.5-.2 1.2.3 1.5.5.4 1.2.2 1.5-.3.4-.5.2-1.2-.3-1.5-.5-.4-1.2-.2-1.5.3m-9.1 2c-.3.5-.1 1.3.5 1.6.6.4 2.2 2.5 3.6 4.7 1.9 2.9 2.8 3.7 3.8 2.9 1.4-1.2 1.5-7.8.1-7.1-.6.3-.9 1.6-.8 3l.1 2.5-1.1-2.6c-2.2-5-4.9-7.1-6.2-5m-8.9 1c-1 1.6 5.8 8.6 7.4 7.6 1-.6.9-1.1-.6-2.2-1-.8-1.9-1.9-1.9-2.5 0-1.6-4.2-4.1-4.9-2.9m6.9 2.1c-1 1.7 2.2 4.7 3.5 3.4.7-.7.4-1.6-.9-2.8-1.4-1.2-2.1-1.4-2.6-.6m-11.3 3.1c-2.5.9-2.8 4.3-.4 4.5.6.1 1.5.3 2 .4.4.1 1.1.2 1.6.1s.4.4-.2 1.1c-1.4 1.7-.9 5.1.7 5.6 1.5.5 5.3-2.7 4.6-3.9-.3-.4-.1-1.1.5-1.4.8-.5.7-1.1-.1-2.1-.6-.7-1.5-1.2-1.9-.9-.5.3-1.1.1-1.5-.5s-1.1-.8-1.6-.5-.6 0-.3-.8c.7-2-.6-2.6-3.4-1.6m15.4 2.8c-.5.7 0 2.1 1 3.2 1.4 1.5 2 1.7 3.2.6.8-.6 1.7-1.1 1.9-1 .1.2.3 0 .3-.5 0-.4-.8-.7-1.7-.7-1 0-2.3-.6-2.9-1.4-.8-1.1-1.3-1.1-1.8-.2m-17 5c-.4.5-.2 1.2.3 1.5.5.4 1.2.2 1.5-.3.4-.5.2-1.2-.3-1.5-.5-.4-1.2-.2-1.5.3m10.8 1.2c-.3.6.1 1.8.9 2.7 1.4 1.4 1.8 1.3 4.2-.2 1.4-.9 2.3-2.1 1.9-2.7-.4-.7-1-.6-1.9.1-.9.8-1.5.8-2 0-.8-1.3-2.2-1.3-3.1.1m-10.8 4.8c-.4.5-.2 1.2.3 1.5.5.4 1.2.2 1.5-.3.4-.5.2-1.2-.3-1.5-.5-.4-1.2-.2-1.5.3m16.4.6c-.9 1.1-1.6 1.2-2.5.5s-1.5-.7-1.9-.1c-.7 1.1 1 2.4 3.5 2.8 2.2.3 4.6-2.4 3.2-3.8-.7-.7-1.4-.5-2.3.6m-9.7.8c-1.6 2.3-.9 5 1.5 5.2 2.5.2 3.7-.9 2.7-2.5-.5-.8-1.1-.7-2.1.1-1.6 1.3-1.9-.2-.3-1.8.7-.7.7-1.3.1-1.7-.5-.3-1.4 0-1.9.7M320 597c0 .6.7 1 1.5 1s1.5-.2 1.5-.4-.7-.6-1.5-1c-.8-.3-1.5-.1-1.5.4m-3 4c-1.7 1.1-1.3 1.5 2 2.4 2.1.6 2.2.5.7-.4-.9-.6-1.5-1.5-1.2-2.1.8-1.1.4-1.1-1.5.1m26.4.2c-.3.4.2.8 1 .8s1.7-.4 2-.8c.3-.5-.2-.9-1-.9s-1.7.4-2 .9m-18.9.8c-.3.5-.1 1 .4 1 .6 0 1.1-.5 1.1-1 0-.6-.2-1-.4-1-.3 0-.8.4-1.1 1m6.5 3c.6 1.1 1.5 2 2 2 .6 0 .5-.9-.2-2s-1.6-2-2.1-2c-.4 0-.3.9.3 2m-17.9.9c-1 .6-1 1-.1 1.6 1.3.8 2.4.1 1.9-1.4-.3-.6-1-.7-1.8-.2m5.6-.2c-1 .9-.9 2.3.2 2.3.5 0 1.1-.7 1.5-1.5.5-1.5-.5-2-1.7-.8M308 607c0 .5.5 1 1.1 1 .5 0 .7-.5.4-1-.3-.6-.8-1-1.1-1-.2 0-.4.4-.4 1m19.3 8.4c0 .8.8 1.1 1.9.8 1-.2 1.5-.8 1.2-1.3-.8-1.4-3.1-1.1-3.1.5m-5.6 4c-.6 1.5.1 2.6 1.5 2.6 1.1 0 1-2.7-.1-3.4-.5-.3-1.1 0-1.4.8m-1.7 4.7c0 1.5 1.8 1.9 2.3.6.3-.8-.1-1.4-.9-1.4s-1.4.4-1.4.8m-.7 6c.2 3.2 1.3 3 1.9-.4.3-1.5 0-2.4-.8-2.4s-1.2 1.1-1.1 2.8m-85.8 7.9c-.3.5-.1 1 .4 1 .6 0 1.1-.5 1.1-1 0-.6-.2-1-.4-1-.3 0-.8.4-1.1 1m85.9 13.6c.3.9.6 2.4.6 3.5 0 1.2.5 1.6 1.5 1.3 1.3-.5 1.3-.9-.1-3.5-1.5-3.1-3-4-2-1.3M321 681c0 .5.5 1 1.1 1 .5 0 .7-.5.4-1-.3-.6-.8-1-1.1-1-.2 0-.4.4-.4 1m-16.8 12c0 1.4.2 1.9.5 1.2.2-.6.2-1.8 0-2.5-.3-.6-.5-.1-.5 1.3m-17.7 13c.3.5.8 1 1.1 1 .2 0 .4-.5.4-1 0-.6-.5-1-1.1-1-.5 0-.7.4-.4 1m416.7 70.2c-3.9 5.9-4.5 6.9-3.5 6.6.4-.2.8.1.8.7 0 .5-.5.9-1.1.7-.6-.1-1.4.7-1.7 1.9-.3 1.1-.3 1.8 0 1.5.4-.3 1.2-.1 2 .5 1 .9 1.6.4 2.8-2.6 1.1-2.6 1.3-4 .6-4.9-1.2-1.5-.5-2.7 1.2-2.1 1.5.5 5-4.2 4.2-5.5-1.1-1.8-2.4-1-5.3 3.2m24.4 11.1c-2.9 5.7-3.4 8.6-1.3 6.8.8-.6 1.7-.8 2-.4.4.3.8 0 .9-.8 0-.8.2-1.9.2-2.4.1-.6 1.1-2.6 2.2-4.6 2-3.3 2-3.5.3-3.6-1.2-.1-2.6 1.5-4.3 5m48.2 5.5c-6.4 3.2-12 5.6-12.6 5.4-1.6-.5-6.3 1.8-5.7 2.8.4.7 1.2.7 2.5 0 1-.6 3.2-1.1 4.7-1.3s5.1-1.3 7.8-2.6c2.8-1.3 6.6-3 8.5-3.8 5.7-2.4 6.3-2.8 6.6-4.6.1-.9.2-1.7.1-1.6-.1 0-5.4 2.6-11.9 5.7m-79.1-3.1c-.9.9-.9 2.4.1 2 .4-.1.8.2 1 .8.1.5-.4 1-1 1-.7 0-1.4.8-1.6 1.8s.2 1.6 1 1.5c.7-.2 1.3.4 1.3 1.2s-.6 1.4-1.2 1.2c-.7-.1-1.3.7-1.3 1.8v2l2-2c1.1-1.1 2-3 2-4.3s.5-2.8 1-3.3c.7-.7.5-1.6-.8-2.7-1-.9-2.2-1.4-2.5-1m65.5 88.4c-3 1.7-5.1 3.3-4.8 3.6.3.4 0 1.3-.7 2.1-1.4 1.8-.2 1.3 4.8-2.2 1.7-1.2 3.2-2.1 3.5-2.1 1.7-.2 5-2.8 4.5-3.6-.9-1.3-1.5-1.2-7.3 2.2m-9.5 6.6c-1 .9-.9 2.3.1 2.3.5 0 .9-.7.9-1.5 0-1.7-.1-1.8-1-.8m-7 6.1c-3.5 3.6-4.7 6.2-2.8 6.2 1.1 0 6.5-7 6.7-8.7.3-1.8.3-1.8-3.9 2.5M794 192.9c-6.2.4-10.4 1-10.3 1.6.1.5 4.1 2.2 8.9 3.7 11.7 3.6 34.4 12.9 34.4 14.1 0 .5-.7.4-1.5-.3-.9-.7-1.8-1-2.2-.7-.3.4-1.2.2-1.9-.4q-1.2-.9-1.8 0c-.4.5-.2 1.2.4 1.6.5.3 1 .3 1-.1s.9.1 1.9 1c1.1 1 2.4 1.5 2.9 1.2.6-.3 1.2.1 1.6.9.3.8 0 1.7-.6 2.1-.7.5-.5 1.2.7 2 1.3 1 2.2 1.1 3.1.3.9-.7 1.2-.6 1 .8-.2 1-.8 1.8-1.4 1.8-.7 0-1.2.3-1.2.7v1.4c0 .4.6.1 1.4-.5 1-.9 1.6-.8 2.6.4.7.8 2 1.5 3 1.5 1.2 0 1.7.8 1.6 2.7-.1 1.8.4 2.8 1.4 2.9 3.4.2 4 .4 4 1.4 0 .7-.6.7-1.9 0-1.3-.6-2.2-.7-2.6 0-.8 1.3-3.5.1-2.9-1.4.2-.6-.2-2-.9-3-1.2-1.6-1.7-1.7-3.7-.6-2.2 1.2-2.2 1.4-.7 2.5.9.7 1.7 1.7 1.7 2.2 0 2.1 3.1 3.7 4.8 2.6 1.9-1.1 4.2-.7 4.2.8 0 .6-.4.7-1 .4-1.6-1-3.3.5-2.1 1.8.5.7 1.1 1.6 1.2 2.2.2.5.9.9 1.6.7 1.4-.3 4.9 4.5 3.9 5.5-.3.4.1 1.7.9 3 1.2 1.8 1.3 2.3.2 2.3-.8 0-1.7-.3-2.1-.8-.4-.4-1.1-.7-1.4-.7-2.3-.2-12.4-3.1-16-4.6-3.6-1.6-6-1.8-14.4-1.4-5.5.3-10.8 1-11.8 1.5-1.2.6-2.1 2.8-2.7 6.1l-.8 5.1h-8.8c-4.8.1-9 .5-9.3.9-.8 1.3.6 3 1.7 2.3.6-.3 4.4-.7 8.5-.7l7.4-.2.1 54.5c.1 30 .2 54.9.3 55.5 0 .5.6 1.2 1.1 1.5.7.3 1.1-18.1 1.2-54 .2-52.5.6-65.3 2.1-67.6.4-.6 5.1-1.4 10.4-1.7l9.6-.5.8 7.6c.4 4.3.4 20.7.1 36.7-.4 15.9-.7 50.5-.7 76.7V416h-10.9c-10.6 0-11-.1-11.3-2.3-.2-1.2-.7-2.2-1.3-2.2-.5 0-1.1 1-1.3 2.2-.3 1.9-1 2.3-4.2 2.3-3.6 0-6 1.3-4.3 2.3.5.2 16.2.6 35.1.8l34.3.4-.3-45c-.4-81.9-.3-100.8.5-122.9.4-12.1.8-22 1-22.2.1-.1 6.6-.3 14.5-.5l14.2-.4v94.3c0 51.9-.2 94.8-.6 95.3-.8 1.3 2.5 2.4 3.8 1.1.5-.5.6-1.2.1-1.5-.4-.3-.6-31.7-.3-69.9l.5-69.3 9 .2c5 .2 12 .8 15.8 1.4 6.3 1 6.7 1.2 6.7 3.7.1 1.5.2 12.1.3 23.7.1 13.2.6 21 1.2 21s1.1-8.1 1.1-22c.2-32.3 1.3-52.8 2.7-53.7.7-.4 6.3-.8 12.6-.8h11.4l-.6 15.2c-.4 8.4-1 32.6-1.3 53.8s-.9 52.2-1.3 68.8c-.5 24-.3 30.6.7 31.4.7.6 1.4.9 1.7.7.4-.5 1.1-33 2-94.4.6-47 1.3-59.2 3-59.9.7-.2 3.9-.3 7.1-.1 7.8.5 9.2 2.3 9.6 13 .4 10.6 2.2 10.4 2.6-.3l.3-8.2 10.7.4c5.9.2 11.6.5 12.6.5 1.8.1 1.9 1 1.3 23.8-.4 13.1-1 45.8-1.3 72.8-.4 27.1-1.1 49.5-1.6 50.2-1.5 1.8.1 2.2 14 2.9l13.2.7V192l-109.7.2c-60.4.1-114.5.4-120.3.7m43 22.1c.8.5 1.1 1 .5 1-.5 0-1.7-.5-2.5-1s-1-1-.5-1c.6 0 1.7.5 2.5 1m7 14.5c1.1 1.3 1 1.4-.4.9-.9-.3-1.6-1-1.6-1.5 0-1.3.6-1.1 2 .6m3.7 9.5c.2 2.3-1 2.6-2.6.6-1-1.1-.8-1.5.6-1.9 1-.3 1.8-.5 1.8-.6.1 0 .1.8.2 1.9m3.2 6.4c-.1 5.5-1.1 8.6-2.3 6.8-.3-.6-.1-1.4.5-1.8.8-.5.4-1.3-1.1-2.4l-2.3-1.8 2.4-3c1.3-1.7 2.5-3.1 2.6-3.1.1-.1.2 2.3.2 5.3m-545.3-51.5c-.4.5-.2 1.2.3 1.5.5.4 1.2.2 1.5-.3.4-.5.2-1.2-.3-1.5-.5-.4-1.2-.2-1.5.3m473 0c-.4.5-.2 1.2.3 1.5.5.4 1.2.2 1.5-.3.4-.5.2-1.2-.3-1.5-.5-.4-1.2-.2-1.5.3m-465 2c-.4.5-.2 1.2.3 1.5.5.4 1.2.2 1.5-.3.4-.5.2-1.2-.3-1.5-.5-.4-1.2-.2-1.5.3m6.9 1.1c-.4.6-.3 1.6.3 2.2s1.2.6 1.7-.2c.4-.6.3-1.6-.3-2.2s-1.2-.6-1.7.2"/><path d="M824.1 223.4c-.7.8-.8 1.7-.3 2 .6.3 1.5-.1 2.1-.8.7-.8.8-1.7.3-2-.6-.3-1.5.1-2.1.8m-488.5 3.4c-.3.6.1 1.5.8 2.1.8.7 1.7.8 2 .3.3-.6-.1-1.5-.8-2.1-.8-.7-1.7-.8-2-.3m489 1.1c-.4.5-.2 1.2.3 1.5.5.4 1.2.2 1.5-.3.4-.5.2-1.2-.3-1.5-.5-.4-1.2-.2-1.5.3m8 9c-.4.5-.2 1.2.3 1.5.5.4 1.2.2 1.5-.3.4-.5.2-1.2-.3-1.5-.5-.4-1.2-.2-1.5.3m-3 2c-.4.5-.2 1.2.3 1.5.5.4 1.2.2 1.5-.3.4-.5.2-1.2-.3-1.5-.5-.4-1.2-.2-1.5.3m11 5c-.4.5-.2 1.2.3 1.5.5.4 1.2.2 1.5-.3.4-.5.2-1.2-.3-1.5-.5-.4-1.2-.2-1.5.3M0 250.6c0 .8.5 1.2 1 .9.6-.4.8-1.1.5-1.6-.9-1.4-1.5-1.1-1.5.7m971.5 87.6c-.9 2.6 0 36.3 1 36.3 1.3 0 1.8-36.2.4-37-.5-.4-1.1 0-1.4.7m-50 6c-1 2.6-.1 59.3 1 59.3 1.4 0 1.9-58.5.6-59.8-.7-.7-1.2-.5-1.6.5m-124.6 30.2c-.5 2.4-.2 4.6.6 4.3 1.2-.3 1.4-3.6.3-4.3-.4-.3-.8-.3-.9 0m123.8 34.3c-.3.5-.7 3.3-.8 6.3l-.3 5.5h4.7c5.3 0 6.9-1.8 2-2.3-3.2-.3-3.3-.5-3.3-4.7 0-4.1-1.2-6.6-2.3-4.8m49.9 2c-.3.3-.6 2.3-.6 4.4 0 3.7-.1 3.8-4.2 4.1-2.5.2-4.1.7-3.8 1.3s6.7 1 16 1c9.8 0 15.3-.4 15-1-.6-1.2-.5-1.2-11.2-1.3l-8.8-.2v-3.9c0-3.8-1-5.7-2.4-4.4m-192 6.2c-.4.5-.2 1.2.3 1.5.5.4 1.2.2 1.5-.3.4-.5.2-1.2-.3-1.5-.5-.4-1.2-.2-1.5.3m4 0c-.4.5-.2 1.2.3 1.5.5.4 1.2.2 1.5-.3.4-.5.2-1.2-.3-1.5-.5-.4-1.2-.2-1.5.3m113.9 2.1c-.3.5 0 1.3.8 1.6 2.3.9 13.2 0 13.2-1.1 0-1.4-13.2-1.9-14-.5m118.9 102.4c-.4 1-.2 2.2.4 2.8.8.8 1.3.7 1.8-.6.4-1 .2-2.2-.4-2.8-.8-.8-1.3-.7-1.8.6m-.8 42.4c-1 1.7-.1 80.7.9 80.7 1.3 0 1.8-80.2.5-81-.5-.3-1.1-.1-1.4.3m-1.3 94.1c-.4 1.7-1.4 2.1-6.2 2.3-10 .5-6.2 2.3 5.7 2.6 9.5.2 11.2 0 11.2-1.3 0-1.1-1.1-1.5-4-1.5-2.8 0-4-.4-4-1.4 0-2.4-2.1-3-2.7-.7m-756.5 59.8c.7.3 1.6.2 1.9-.1.4-.3-.2-.6-1.3-.5-1.1 0-1.4.3-.6.6m11.2-.3c0 .9 3 1.4 3.5.6.4-.6-.3-1-1.4-1-1.2 0-2.1.2-2.1.4m-48.7 2.3c.9.2 2.3.2 3 0 .6-.3-.1-.5-1.8-.5-1.6 0-2.2.2-1.2.5M0 788.9c0 2.5 11.6 5.7 13.8 3.8 1.2-.9 1-1.2-.9-1.8-1.3-.3-4.8-1.3-7.6-2.2-5-1.5-5.3-1.5-5.3.2m16.3 4.3c.3 1.9 3.8 3 5.3 1.7 1.4-1.1 3.8-.3 3 1-.5.7 5.4 2.6 11.5 3.6 2.5.4 4 .1 4.8-.9.9-1.1.5-1.5-2.4-2-2.3-.5-4.2-.3-5.1.5-1.1.9-1.5.8-2-.4-.3-1-3.3-2.2-7.4-3.1-8.3-1.9-8.1-1.9-7.7-.4m29.2 6.8c1.7 1.1 4.3 2 5.8 2 1.6 0 3.7.5 4.7 1 1 .6 2.1.6 2.4.2.7-1.1-2.5-2.6-8.7-4.1-6.7-1.6-7.6-1.4-4.2.9m568.1 12.9c-.4.5-.2 1.2.3 1.5.5.4 1.2.2 1.5-.3.4-.5.2-1.2-.3-1.5-.5-.4-1.2-.2-1.5.3m-539.9.8c-1.3 1.2-.7 2.3 1.1 2.3 1 0 1.9-.7 1.9-1.5 0-1.5-1.8-2-3-.8m8.8 2.3c1 1.1 2.4 2 3.2 2 1.1 0 1.1-.4.3-2-.6-1.1-2-2-3.2-2-2 0-2.1.1-.3 2m520.5 1.6c-4.1 1.8-8.8 3.8-10.4 4.4-2.1.7-2.7 1.3-1.9 2.1.7.7 3.9-.3 10.4-3.1 9.6-4.2 11.7-5.4 10.2-6.2-.4-.3-4.2 1-8.3 2.8m-513.7-.1c0 1.8 8.7 4.6 10.4 3.3.7-.5 1.4-.5 1.8.2.3.5.3 1-.2 1-.4 0 0 .5 1 1.1 1.3.8 2.2.7 3.3-.1q1.95-1.65 1.5 1.2c0 .4 1.8 1.2 4.2 1.8 2.3.6 4.9 1.3 5.8 1.6.9.2 1.6-.2 1.6-1 0-.9-3.5-2.5-10.1-4.6-5.6-1.8-10.5-3.6-11.1-4-.5-.4-2.6-1-4.6-1.4-2.8-.5-3.6-.3-3.6.9m492.7 8.6c-2.5 1.1-5.3 2.5-6.2 3-1 .5-2.4.6-3.3.3-.8-.4-1.7.1-2.1 1-.3.9-1.3 1.6-2 1.6-.8 0-3.3.9-5.6 2.1-3 1.5-3.7 2.4-2.9 3.2s1.4.8 2.3-.1c.7-.7 2-1.2 3-1.2 1.1 0 2.9-1 4.1-2.3 1.6-1.7 3.4-2.4 6.6-2.5 2.4 0 5.1-.7 6-1.5.9-.7 2.9-1.9 4.4-2.5 1.5-.7 2.5-1.7 2.2-2.2-.8-1.3-1.2-1.2-6.5 1.1m-461.3.5c-1.2 1.2-.8 1.9 2.1 3.1 4.6 1.9 8 2.1 8.6.6.8-1.9-2.1-2.8-3.9-1.3-1.4 1.1-1.9.7-1.6-1.3 0-.4-.3-.7-.8-.7s-1.6-.2-2.3-.5c-.8-.3-1.7-.2-2.1.1m13.3 3.8c0 1.1 3.3 3.6 4.7 3.6s1.4-.3-.2-2c-1.6-1.8-4.5-2.8-4.5-1.6m8.3 3.1c0 2 8.8 4.9 9.8 3.3.9-1.3-2.1-3.2-6.7-4.1-2.3-.4-3.1-.2-3.1.8m12.4 3.9c-.7 1.7 3.3 3 4.7 1.6 1.1-1.1.8-1.5-2-2.4-1.4-.4-2.4-.2-2.7.8m400.9.5c-.4.5-.2 1.2.3 1.5.5.4 1.2.2 1.5-.3.4-.5.2-1.2-.3-1.5-.5-.4-1.2-.2-1.5.3m-394.3 1.3c.1.7 4 2.5 8.7 4 9.9 3.3 9.7 3.2 9.7 1.4 0-1.3-6.7-3.9-10.7-4.1-.8-.1-2.5-.6-3.7-1.3-2.8-1.5-4.4-1.5-4 0m386.9 1c-.7.7-1.2.9-1.2.6 0-.4-2.4.3-5.2 1.3-2.9 1.1-6.1 2.2-7.2 2.4-1 .2-2.5 1-3.4 1.7-.8.7-1.7 1.2-1.9 1-.1-.1-.3 0-.3.3 0 .4.6.6 1.3.4.1 0 1-.2 2-.5.9-.2 2.3-.6 3-.7.6-.2 2.6-.7 4.2-1.2 1.7-.4 4.4-1.5 6-2.3 1.7-.9 3.5-1.6 4-1.6 1.2-.1 1.5-1.4.6-2.1-.4-.3-1.2 0-1.9.7m-366.8 4.9c-.6 1 1.1 2.8 2.7 2.9 1.5 0 1.7-2.9.3-3.4-2.1-.8-2.2-.8-3 .5m7.2 2.3c.6 1.5 3.4 3 4.1 2.2.5-.5-2.6-3.6-3.7-3.6-.5 0-.7.6-.4 1.4m6.7 2.1c0 1.9 2.8 2.9 3.8 1.3.5-.8.2-1.6-.9-2-2.6-1-2.9-.9-2.9.7m321.7 1.2c-3 1.4-5.9 2.7-6.5 2.8-.5.1-1.3.3-1.7.5-.5.1-1.1.3-1.5.4-3.3.7-9.1 3.1-10.4 4.2-.9.8-1.9 1.1-2.2.8-.4-.4-1.3-.1-2.2.6-.8.7-1.5.9-1.5.6 0-.4-1-.2-2.1.5-1.7.9-1.9 1.3-.8 2 .8.4 1.9.3 2.6-.3s1.3-.7 1.3-.4c0 .4 1 .1 2.3-.6 1.2-.7 2.4-1.3 2.7-1.3 3.8-.9 6.7-2 7.8-2.8.6-.5 1.2-.7 1.2-.3s1.5-.1 3.3-1.1c1.7-.9 3.7-1.8 4.2-1.9 3.4-.8 11.1-4.1 11.5-4.9 1-2-2.6-1.4-8 1.2m-315.4.8c-.6 1.6 3.4 2.8 5 1.4.8-.7 1.4-.7 1.9.1.3.5.3 1-.2 1-.4 0 0 .5 1 1.1 1.7 1 3.7.5 3.7-1 0-.9-1.6-1.5-7.7-3-2.3-.6-3.3-.5-3.7.4m12.7 3.7c.3 1.6 1.8 2.8 3.5 2.8 1.4 0 1.2-2.1-.3-3.2-1.6-1.2-3.5-.9-3.2.4m323.2 1.8c-2.2 1-4.7 1.9-5.6 1.9-.9.1-2.2.8-2.9 1.6s-1.6 1.2-2.1 1c-.4-.3-3.4.4-6.6 1.5-3.1 1.1-6.5 2-7.3 2-.9 0-1.7.7-1.7 1.6 0 1.1.6 1.4 2.1.9 1.2-.4 3.2-.9 4.6-1.2s3.1-1.1 3.9-1.7c.7-.6 3.2-1.2 5.4-1.3 2.2-.2 4.8-1 5.7-1.8s2.1-1.5 2.7-1.5c1.8 0 5.8-2.5 6.1-3.8.1-.7.1-1.2 0-1.1-.2 0-2.1.9-4.3 1.9m-316.6.6c-.9 1.1-.8 1.4.4 1.4.8 0 2.2.2 3 .5.8.4 1.4 0 1.4-.9 0-2-3.4-2.7-4.8-1m7.4 1.6c.4 2.4 3.7 3.9 9.2 4.2 3.1.1 6.1.8 6.7 1.4 1.9 1.9 3 1.4 1.8-.8-.6-1.1-2.1-2-3.3-2s-4.9-.9-8.1-2c-7-2.4-6.7-2.3-6.3-.8m255.7 4.3c-.7.8-2.2 1.4-3.4 1.3-1.1 0-4.5.9-7.4 2.1-3 1.2-5.7 1.9-6.2 1.6s-1.2 0-1.7.7c-.7 1.2-15.8 9.1-17.5 9.2-.3.1-1 .4-1.4.8-.4.5-1.3.8-2 .8-1.4 0-20.2 8.7-22.2 10.3-.8.6-2.3 1.2-3.4 1.4s-3.4 1.3-5.1 2.5c-1.8 1.3-3.6 2.3-4.2 2.3-1.2 0-12.4 5.4-14.2 6.8-.7.5-1 1.3-.8 1.8.5.7 11.2-3.9 15.5-6.6.8-.5 1.7-1 2-1.1 1.4-.3 7.6-3.3 8.3-4.1.5-.4 1.2-.8 1.5-.9 2-.2 22.3-9.3 25.2-11.2 1.4-.9 3.6-1.8 4.9-2s4-1.1 6-2.2c9.9-5 14.4-6.9 15.2-6.5.8.6 3.9-.9 6.9-3.1.8-.7 2.4-1.4 3.4-1.5 1.1-.2 2-1.2 2.2-2.2.3-2.1 0-2.1-1.6-.2m-235.6 1.6c-.8 1.3-1.1 1.1 6.6 4.9 3.6 1.8 9.9 5.6 14 8.5 6.1 4.3 22 13.5 23.3 13.5.2 0 .4-.6.4-1.4 0-.7-1.6-2.2-3.6-3.2s-5.2-2.8-7.2-4-4.4-2.2-5.5-2.1c-1.2.1-1.8-.4-1.6-1.4.2-1.7-7.1-6.3-8.2-5.1-.4.4-.6.1-.4-.6s-2.7-2.9-6.8-5.1c-9.1-4.8-10.2-5.2-11-4m258.1 1.9c-.4.6-1 .8-1.5.5s-2.1 0-3.7.7c-1.5.6-3.3 1-3.9 1-.6-.1-1.1.5-1.1 1.3 0 1.8-.1 1.8 3.4.3 3-1.2 3.8-1.4 6.4-1.6.9-.1 1.9-.9 2.3-1.7.6-1.7-.9-2.1-1.9-.5m-15 3.8c-.5.4-1.1 1.3-1.3 2-.2 1 .4 1.2 2 .7 2.9-.9 3.1-1.1 2.3-2.4-.7-1.3-1.6-1.4-3-.3M485 873c-.8.5-1.7.7-2.1.4-.4-.2-1 0-1.4.6s-1 .8-1.5.5-3.4.8-6.4 2.4c-3.1 1.6-7 3.2-8.8 3.6-4.2.9-24.8 11.4-24.8 12.6 0 2 3.2 2.1 4.6.1.8-1.1 3.1-2.6 5.2-3.2 2-.7 6.2-2.3 9.2-3.8 3-1.4 6.6-3 8-3.6s3.1-1.5 3.9-2c.7-.6 2.8-1.1 4.6-1.3 1.8-.1 5-1.1 7.1-2.2 2.1-1.2 4.5-2.1 5.2-2.1.8 0 1.2-.5 1-1.2-.6-1.6-2-1.9-3.8-.8m-5.6 4.1c-.3.5-1 .7-1.5.3-.5-.3-.7-1-.3-1.5.3-.5 1-.7 1.5-.3.5.3.7 1 .3 1.5M294.5 891c-.9 1.5 1.3 3.6 4.7 4.4 2.7.6 3.2-.4 1.5-3.2-.9-1.3-2.9-1.7-2.4-.5.1.5-.2.9-.8 1-.5.2-1-.1-1-.6 0-1.6-1.3-2.3-2-1.1m9.8 4.2c.2 1.4 1.7 2.8 3 2.8.4 0 .3-.9-.3-2-1.2-2.2-3.1-2.7-2.7-.8m136.9 2.8c-1.8 1.6-2.9 3-2.6 3 .5 0 5-2.3 7.3-3.8.3-.1 0-.7-.5-1.2-.7-.7-2.1-.1-4.2 2m-130.9-.7c.3 1.9 2 2.7 3.4 1.6 1.3-1.2 3.6-.3 2.8 1.1-.3.4.3 1.1 1.2 1.4 2.6 1 3.5-1.6.9-2.9-3.6-1.9-8.6-2.6-8.3-1.2m12.3 4.2c-.2.7.2 1.6 1 1.9 2.1.8 2.1.8 2.7-.8.3-.8-.2-1.6-1.3-1.9-1-.3-2.1.1-2.4.8m6.1 1.9c-.3.8.1 1.7 1 2.1 2 .7 3.7-1.6 2-2.7s-2.4-1-3 .6m6 2c-.3.8.1 1.7 1 2.1 2 .7 3.7-1.6 2-2.7s-2.4-1-3 .6m55.1.3c-2 .5-2.3 1.8-.8 2.8 1.3.8 5.2-1.4 4.5-2.6-.6-.9-.9-1-3.7-.2m-49.1 1.6c-.4 1 1 1.9 4.6 3 2.7.9 5.4 1.4 5.9 1.1 1.7-1.1.7-2.1-3.3-3.3-2.3-.7-4.7-1.5-5.4-1.7-.7-.3-1.5.1-1.8.9m676.8 4.8c-2.7 2.2-13.8 9.9-24.5 17.1s-27.3 18.6-36.8 25.2c-9.5 6.7-22.6 15.8-29 20.3-20.8 14.5-39.3 27.2-55.6 38.1l-15.9 10.7 5.1.3 5.1.3 22.3-15.9c32.9-23.4 45.2-32.1 88.8-62.7 6.3-4.4 12.6-8.8 14-9.8 7.5-5.3 18.9-12.7 19.5-12.7.5 0 .5 22.7.2 50.5-.5 49.4-.5 50.5 1.4 50.5 1.8 0 1.9-.9 1.9-15.3 0-8.3.3-31.8.7-52l.6-36.9 4.4-2.1c3.9-1.9 4.3-2.4 4.3-5.9 0-2.1-.3-3.8-.7-3.7-.5 0-3 1.8-5.8 4m-662.5.4c1.3 1.4 2.9 2.4 3.6 2.1.6-.2 1.7.1 2.3.7s2 1.2 3.2 1.4c1.7.3 1.9 0 1.1-.9-.6-.7-1.2-1.8-1.4-2.3-.1-.6-.6-.9-1-.8-.5.2-.8-.2-.8-.8 0-.8-.4-.8-1.4 0-1 .9-1.6.8-2.6-.4-.7-.8-2.2-1.5-3.3-1.5-2 0-2 .1.3 2.5m11.7 1.7c.7.8 1 1.8.7 2.1-1.1 1.1 6.9 2 8.5 1 2.5-1.6 1-2.8-3.5-2.9-2.2 0-4.7-.5-5.5-.9-1.1-.7-1.2-.6-.2.7m327 9.9c-2.1 1.1-3.5 2.4-3.2 2.9.4.6 2.3.1 4.6-1 2.2-1.2 3.7-2.5 3.4-3-.7-1.2-.2-1.3-4.8 1.1m-8.2 4.3c-1.1.8-1.4 1.6-.8 1.9.6.4 1.8 0 2.8-.7 1.1-.8 1.4-1.6.8-1.9-.6-.4-1.8 0-2.8.7m191.1 70.5c-.4.5-.2 1.2.3 1.5.5.4 1.2.2 1.5-.3.4-.5.2-1.2-.3-1.5-.5-.4-1.2-.2-1.5.3m-3 2c-.4.5-.2 1.2.3 1.5.5.4 1.2.2 1.5-.3.4-.5.2-1.2-.3-1.5-.5-.4-1.2-.2-1.5.3m-7 5c-.4.5-.2 1.2.3 1.5.5.4 1.2.2 1.5-.3.4-.5.2-1.2-.3-1.5-.5-.4-1.2-.2-1.5.3m-16 11c-.4.5-.2 1.2.3 1.5.5.4 1.2.2 1.5-.3.4-.5.2-1.2-.3-1.5-.5-.4-1.2-.2-1.5.3m-244.2 2.5c-.8 2.1.3 4.9 1.6 4.1.5-.3 1-1.5 1-2.5 0-2.5-1.8-3.6-2.6-1.6m241.2-.5c-.4.5-.2 1.2.3 1.5.5.4 1.2.2 1.5-.3.4-.5.2-1.2-.3-1.5-.5-.4-1.2-.2-1.5.3m-4.1 3.1c-1.5 1.7-1.6 2-.3 2 1.9 0 4.2-2.6 3-3.4-.5-.3-1.7.3-2.7 1.4"/></g></svg>