<svg xmlns="http://www.w3.org/2000/svg" width="1365.333" height="1365.333" preserveAspectRatio="xMidYMid meet" version="1.0" viewBox="0 0 1024 1024"><g fill="#000" stroke="none"><path d="M624.5 44c-4.4.5-14.1.8-21.5.8-18.5.1-18.1.1-19.8 1.4-1.1 1-1.3 2.8-.8 8.8.5 6.8 1 38.9 2 127 .1 16.8-.1 44-.5 60.5-.9 33.9-1.9 78.9-1.9 88.2v6.3h-18.1l.6-48.8c.3-26.8.5-65.4.4-85.7-.3-75.7.3-132.3 1.6-145.8.5-5.4-1.3-9.6-3.4-8.2-2.4 1.4-4.5 7.3-4.7 13-.2 3.3-.6 52.8-.9 110-.4 57.2-.8 108.3-.9 113.5s-.3 19-.4 30.7l-.2 21.2-28.7-.1c-22.8 0-307.3 1.2-313.3 1.3-.8.1-5.3.5-10 .9-4.7.5-13 1.1-18.5 1.5-9.7.5-13.2 1.1-33.5 5.5-17.8 3.9-34.6 14.7-45.9 29.6-9.6 12.9-13 22.5-16.6 47.4-1.4 9.6-2.5 20.7-2.5 24.6s-.3 11.2-.6 16.2l-.7 9.2-4.7 3c-2.7 1.7-5.1 4.1-5.4 5.3-1.7 6.3.7 19.2 4.6 25.7 2 3.1 2.2 4.7 2 14.5-.2 6-.4 11-.5 11.2-.2.1-3.4.7-7.2 1.3-10.7 1.7-25 8.4-31 14.5-12.1 12.3-16.1 29.1-13 54.1.2 2.2.9 8.2 1.5 13.4 1.1 10.6 2.8 21.7 7.1 46 1.5 9.1 3.3 19.4 3.8 23 8 52.5 19.6 108.2 25.2 120.8 5.7 12.7 19.8 23.2 36.4 27.3l9.6 2.3-.6 4.5c-.3 2.5-1.2 7.7-2 11.6-1.6 7.7-4 20.6-8 42.5-1.4 8-3.3 17.4-4.1 21-.9 3.6-1.8 10.6-2.1 15.6-.5 8.4-.4 9.3 1.6 11.3 1.8 1.8 3.2 2.1 10.9 2.1 10 0 15-1.5 19.2-5.5 2.7-2.6 9-14.3 10.5-19.6.6-2.5 1.4-4.6 3.3-8.9 4.2-9.7 7.2-17.4 7.2-18.6 0-.8.5-1.4 1-1.4.6 0 1 .8 1 1.9 0 3.5 2.6 4.4 14.3 4.7 12.1.2 14-.3 16.1-4.4 1.8-3.7 8.9-24.8 11.6-34.9 1.3-4.5 3-10.5 3.9-13.4l1.7-5.2h50.5c27.7 0 70.9.3 95.9.6 58.4.9 176.3 1.7 290.3 2 83.9.2 89.9.3 91.1 1.9.7 1 2.5 5.7 4 10.5 10.7 34 12.7 39.2 16.3 42.5 2.7 2.5 27.7 2.8 30.1.4 2.4-2.3 2.3-6.6-1.2-47.9l-.6-6.7h9.8l2.1 5.7c1.1 3.2 4.1 12.3 6.5 20.3 10.1 33 20.2 63.5 23.2 69.5 1.3 2.7 2.4 5.5 2.4 6.1 0 3.1 3.5 4 17.1 4.3 11.8.2 13.8 0 15.8-1.6 2.6-2.1 2.8-3.7 1.3-11.8-.6-3.3-1.4-8.5-1.7-11.5-1.1-9.9-2.4-18.3-4.5-28-1.1-5.2-2-11.6-2-14.2 0-2.5-.4-6.8-1-9.5-1-5-3.8-23.7-4.2-28.7-.3-2.7 0-3 5.7-4.6 13-3.6 23-10.6 32.1-22.3l2.9-3.8 40-.5c38.9-.5 40-.6 41.8-2.6 1.4-1.7 1.7-4.1 1.7-14.7 0-20.4 1.6-97.1 2.6-125.8.3-9.5.8-55.6 1-102.5.8-180.7 2-320.7 2.8-335 .3-5.1.8-18.5 1.2-29.8.3-11.3.9-25 1.4-30.5.4-5.5.7-33.4.7-62 0-44.6-.2-52.3-1.5-53.8-2-2.2-4.9-2.2-6.1.2-.7 1.2-.8 17.1-.4 45.2.5 38.6-.2 66.6-2.2 81.9-.4 3.6-1.1 40.3-2 101-.3 19-.8 45.1-1.1 58-.4 12.9-.6 23.9-.5 24.5.5 4.5.6 127.3 0 171-1.1 89.8-2 146.2-2.4 160-.2 7.1-.7 28.5-1 47.5-.4 19-.8 37.2-.9 40.5-.2 3.3-.4 8.8-.5 12.2-.1 5.3-.3 6.1-1.8 5.8-1-.2-5.5-.4-10-.4l-8.2-.1.4-10.8c1.3-30.2 1.7-57.3 2.1-126.2.8-165 1.2-219.5 1.8-242.5 1-35.1 1.1-70 .3-114-.5-25.6-.3-44.2.4-54 .6-8.3 1.2-20 1.4-26 .2-6.1.6-22.9 1.1-37.5.4-14.6.8-43.4.8-64 .1-27.4.4-38.1 1.3-39.6 1-1.8.9-2.4-1-4.2-1.8-1.7-3.5-2.1-8.7-2.1-3.6 0-12.3-.5-19.5-1-7.1-.5-29.4-1-49.5-.9-20.1 0-41.2-.5-47-1.1-10.5-1-30.2-1.6-97.9-2.7-20-.3-45.8-.9-57.5-1.4-11.6-.4-28.7-.5-38-.3-29 .7-34.2.7-35.3 0-.6-.4-1.1-5-1.2-11.2l-.2-10.5 14.3-.1c7.9 0 16.6-.2 19.3-.4 6.6-.6 43.6-.6 70 0 11.6.2 37.7.7 58 1 20.4.4 44.7.8 54 1 9.4.2 27.8.7 41 .9 13.2.3 26.9.8 30.5 1.1 12 .9 28.3 1.5 55.7 2.1 27 .5 27.2.5 28.3-1.6 2.6-4.9-1.3-5.6-41.5-6.6-11.5-.2-22.3-.7-24-.9-1.6-.2-15.4-.7-30.5-.9-15.1-.3-33.8-.8-41.5-1.1-28.2-1-49.1-1.5-100-2-28.6-.3-60.8-.7-71.5-.9s-23.1 0-27.5.4M667 81.4c14 .4 33.8.9 44 1.2 31 .8 51.4 1.2 75 1.4 12.4.1 25.2.7 28.5 1.2 3.3.6 25.6 1.2 49.5 1.3s46.7.5 50.5.8c3.9.4 10.3.9 14.3 1.3l7.2.6v4.2c0 2.2.3 6.5.6 9.4l.7 5.2-12.4-.5c-6.8-.3-15.3-.9-18.9-1.3-9-1.2-13.8-.9-15.8 1.2-1.3 1.3-1.8 4.1-2.2 13.4l-.5 11.7-12.5-.4c-6.9-.1-12.8-.5-13.2-.8-.5-.2-.8-4.6-.8-9.7 0-12.3.1-12.3-16-13.2l-12.5-.7.3-5.5c.2-6.5-.9-8.2-5.4-8.2-1.8 0-4.3-.4-5.6-.9s-7-1-12.8-1.2l-10.5-.4-1.2 3.5c-.6 1.9-1.2 5.6-1.2 8.2l-.1 4.7-15.7.3-15.8.3-.7 5c-1.6 11.6-5.4 27.3-9.7 40.5-3.9 11.9-10.2 36.3-15.1 58.5-2.1 9.4-4.4 16.4-5.4 16.8-.6.1-3.8.1-7.1-.1l-6-.4v-40.6c0-45.3-.7-61.5-2.6-63.8-2.3-2.8-7-4.6-10.3-4-1.7.4-6.1.9-9.8 1.2l-6.8.6.1-11c0-7.4-.4-12.1-1.3-13.9l-1.4-2.8-17.8.2c-11.6.2-18.3.7-19.2 1.4-.8.6-1.4 2.9-1.4 5v3.8l-5.7.7c-3.2.4-8 .2-10.8-.3-5.7-1.2-8.9-.4-10.5 2.7-1 1.9-1.9 2-13.3 1.9-6.7-.1-13.5-.4-15.1-.8l-2.9-.6-.1-13.3-.1-13.3 19.4-.4c10.7-.3 19.6-.7 19.8-.8.2-.2 2.7-.3 5.6-.1 2.8.1 16.7.5 30.7.8m153.1 20.2 4.5.6-.3 10.7c-.2 5.8-.5 32.4-.7 59.1s-.5 50.6-.5 53.2l-.1 4.8h-23.2l.6-8.3c.3-4.5.8-16.3 1.2-26.2.3-9.9.7-22.3.9-27.5s.6-21 1-35c.7-22.4 1-30.9 1.4-31.8.2-.4 10.9-.2 15.2.4m-136.5 59.9c-.4 32.4-.9 60.1-1.1 61.5s-.4 3.1-.4 3.8c-.1 1-2.9 1.2-12.3 1l-12.3-.3-.6-15c-.5-13-.5-32.8.2-96.2l.1-13.2 8.1-.3c4.5-.2 10.6-.3 13.6-.3h5.4zm112.3-43.9c1 .9-.1 10-2 17.1-1.1 4.2-3.4 12.8-5.1 19.2s-4.1 15.4-5.3 20.1c-1.3 4.7-4.2 15.5-6.5 24-2.2 8.5-5.2 19.1-6.6 23.5l-2.5 8.1-12.4-.1c-10.6 0-12.4-.2-12-1.5.7-2.2 6.3-25.1 6.9-28 1.6-7.9 7.9-31 10.9-40 5.5-16.6 9.1-29.7 10.2-37.5.4-2.8.8-5.2 1-5.5.4-.6 22.8-.1 23.4.6m52-.6h5.4l-.7 36.7c-.6 35.5-1.1 49.8-2.1 66.8-.2 4.4-.4 8.5-.5 9.1 0 .8-3.1 1.1-9.7 1l-9.6-.1.6-44c.4-24.2.7-50 .7-57.4v-13.4l5.3.7c2.8.3 7.6.6 10.6.6m86.3 0h3l-.7 42.7c-.4 23.6-.9 43.1-1.1 43.4-.2.4-.4 6-.5 12.5-.1 17.3.4 16.4-9 16.4H918l.5-3.8c.2-2 .7-10.9 1-19.7s.8-20.7 1-26.5c.8-17.6 1.7-56.2 1.6-61.4l-.2-4.9 4.7.7c2.6.3 6 .6 7.6.6m-326.7 1c7.1.3 7.8.4 3.5.7-3 .3-6 .9-6.6 1.4-.8.6-1.4.6-1.8.1-.8-1.4-7.6-2-8.3-.9-.3.6.2 1.6 1.2 2.4 1.1.7 1.6 1.4 1.2 1.4-.4.1-1.1.3-1.7.4-.5.1-1.3.3-1.6.4-.4 0-.1.8.6 1.6.9 1.1.8 1.9-.4 3.7-1.5 2.1-1.6 1.9-1.6-4.9v-7.1l3.3.2c1.7.2 7.3.5 12.2.6m11.2 9.2c.2 1.7 0 1.9-.7.8-.5-.8-.6-1.8-.4-2.2.8-1.2 1-1 1.1 1.4m-10.6 1.1c-.6.8-1 1.6-.8 1.8.1.2 0 .3-.2.1-1.2-.7-.7-3.2.6-3.2 1.2 0 1.3.3.4 1.3m103.3 3.4c1.3 6.6 2.3 56 1.7 90l-.1 7.3h-5.7c-3.2 0-8.2-.3-11.1-.7l-5.4-.6.4-48.8.3-48.8 5.5-.3c3-.2 7.4-.4 9.7-.6 3.8-.2 4.2 0 4.7 2.5m-92.8 3.8c0 2.3-.1 2.4-1.8.8-1.4-1.3-1.6-1.8-.6-2.5 2-1.2 2.4-1 2.4 1.7m-11.6 1.8c1.5-.3 2.2-.2 1.7.3s-2.3.9-4 .9c-2.7.1-3.2-.3-3.4-2.4l-.1-2.5 1.6 2.2c1.3 1.6 2.3 2 4.2 1.5m-13.9 6.2c.2 1.6.7 3.5 1.2 4.2.4.6.3 1.4-.3 1.8-.7.4-.7 1.2 0 2.5.6 1.1.6 2.1.1 2.5-.5.3-.8 1.9-.6 3.5.2 1.7 0 3-.5 3s-.9-4.8-.9-10.7c-.1-10.2.4-13.1 1-6.8m291.8-1.9 2.3.5-.7 42.7c-.3 23.5-.8 43.4-1.1 44.2-.3 1.2-2.4 1.5-11.1 1.4-6 0-12.1-.1-13.7-.2l-2.8-.2.7-14.3c.3-7.8.8-20.1 1.1-27.2.2-7.2.6-16.4.9-20.5.2-4.1.5-12 .5-17.5v-10l10.7.3c6 .1 11.9.5 13.2.8m-284.9.9c-1.3 1.5-1.2 1.6 2.9 2.7.8.2.3.9-1.3 1.6-2.3 1-2.6 1-2.4-.2.2-.8-.6-2.2-1.7-3.1s-1.5-1.4-.8-1.1c.6.4 1.4.2 1.8-.4.3-.5 1.1-1 1.7-1 .7 0 .6.5-.2 1.5m17.7 2.7c-.3.7-.5.2-.5-1.2s.2-1.9.5-1.3c.2.7.2 1.9 0 2.5m-4.6.1c-.6.8-.7 1.8-.3 2.2.4.5.2.5-.5.1-.6-.3-1.4-.2-1.8.4-.3.5-1.1 1-1.6 1-.6 0-.8-.4-.4-.9.3-.6-.3-1.5-1.2-2.1-1.6-1-1.5-1.1.7-.6 1.4.3 3.2.1 4-.4 2.1-1.3 2.4-1.2 1.1.3m4.5 11.4c-.3.3-1.2.3-2.1-.1-1.3-.5-1.4-.9-.3-2.8 1.3-2.4 1.3-2.6 1.9-5.6.1-.9.4.5.6 3.2.2 2.6.2 5-.1 5.3m-11.7-5.5c2.2 2.5 1.3 3.3-1.6 1.5-.7-.5-1.8-.5-2.4-.2-1.3.9-.8-2.7.6-3.7.5-.4 1-.6 1-.5s1.1 1.4 2.4 2.9m-7.2 5.6c-1 1-1.4 2.2-1 2.5.3.4-.1.7-1.1.7-1.8 0-1.5-1.1 1.3-4 2.2-2.3 2.9-1.5.8.8m5.8-1.2c.6 0 1.6.2 2.4.2 2.4.3.2 1.7-2.8 1.8-2 .1-2.7-.4-2.8-1.8-.1-1.2.2-1.6 1-1.1.7.4 1.7.8 2.2.9m6.4 3.5c-.5 1-1.4 2.1-1.9 2.4-.6.4-.8 1.1-.4 1.6.3.5 1 .7 1.5.4s.6 0 .4.8c-.4.8-2.1 1.3-4.8 1.3-3.2-.1-4.2.3-4.1 1.4s-.7 1.6-2.5 1.5c-1.4-.1-3.6.2-4.8.7-1.7.5-2.3.4-2.3-.7 0-.9.9-1.3 2.8-1.1 2.9.4 5.5-1.1 4.6-2.5-.3-.5-1-.7-1.5-.4s-.6-.1-.3-.9c.3-.9 1-1.3 1.5-1 1.7 1 3.1-.7 1.8-2.2-.7-.9-.8-1.4-.1-1.4.6 0 1.3.4 1.6.8.6 1 4.8.8 6.4-.2.7-.4 1-1.2.7-1.7-.4-.5-.3-1.4.1-2 1.1-1.8 2.4 1.3 1.3 3.2m6.4 4.6c-.2 2.7-.4 6.4-.5 8.3 0 2-.2 2.6-.5 1.5s-1-2.5-1.6-3c-1.7-1.5-1.9-3.5-.3-2.9 1.9.7 2.9-1.2 1.8-3.3-.7-1.1-.6-2.3.1-3.5.7-1 1.2-1.8 1.3-1.8s0 2.1-.3 4.7m-22.9 1.4c-1 1.6-2.4.9-2.4-1.2 0-1.8.2-1.9 1.5-.9.8.7 1.2 1.6.9 2.1m200.1 10.6c-.9 17.1-1.4 32.5-1.5 43.5V230h-8c-4.4 0-8-.4-8-.8 0-.7 5.9-22 7.9-28.7.5-1.7 1.5-5.5 2.1-8.5.7-3 1.6-6.4 2.1-7.5.8-1.9 4.9-16.9 4.9-18 0-.3.2-.5.5-.5s.3 4.4 0 9.7m-201.2-1.5c-.2.5 0 1.5.7 2.3.8.9.8 1.5 0 2-.6.3-.8 1-.5 1.5s.1 1.1-.4 1.4c-.4.3-.9-2-1-5.2 0-3.8.2-5.2.8-4.2.6.8.7 1.8.4 2.2m13.1-.6c1 2.5-.1 2.9-1.4.5-.6-1.2-.7-2.1-.1-2.1.5 0 1.2.7 1.5 1.6m-3 5c.3.9 1.3 1.4 2 1.1 1-.4 1.4 0 1.3 1.3-.1 1.4-.4 1.6-1.4.9-.7-.6-1.7-.8-2.2-.5-1.1.7-3.4-2.8-2.4-3.8 1.1-1 2.1-.7 2.7 1m13.5 9.2c0 4.6-.2 5.2-1.4 4.2-1-.8-1.2-1.7-.6-2.4 1.1-1.4 1.1-4.8 0-6.2-.5-.6-.3-1.1.5-1.1 1 0 1.4 1.5 1.5 5.5m-22.3-2.5c-.1 2.9-2.1 3.2-2.2.4-.1-1.3.4-2.4 1.1-2.4s1.2.9 1.1 2m5.4-.9c0 .2-.7.9-1.5 1.6-1.3 1.1-1.4 1-.9-.4s2.4-2.3 2.4-1.2m2 4.1c-.7.9-1.5 1.3-1.9 1-.3-.3.1-1 .9-1.5 2.1-1.4 2.4-1.2 1 .5m8.5.9c.6-.3 1.2.2 1.2 1 0 1.8-3.9.6-4.5-1.5-.4-1.1-.2-1.1.8-.2.7.6 1.8.9 2.5.7m-15.5 4.2c-.9 1-1 1.7-.1 2.8.9 1 .8 1.6-.4 2.6-.8.7-1.5 1.1-1.6.9 0-.2-.1-2-.2-4-.2-2.8.2-3.5 1.6-3.7 1.5-.1 1.6.2.7 1.4m5 1.8c0 1.1-1.9 1.5-2.5.6-.3-.5.1-1 .9-1 .9 0 1.6.2 1.6.4m5 2.6c0 .5-.7.7-1.5.4-.8-.4-1.2-1-.9-1.5.6-1.1 2.4-.2 2.4 1.1m-2.1 4.1c-2.2 1.4-3.3 1-1.9-.6.7-.8 1.7-1.2 2.2-.9.6.4.5 1-.3 1.5m-7.2 2.6c1.3 1 1.2 1.2-.6 1-1.6-.1-2.1-.8-2-2.7 0-1.5.3-1.9.6-1 .3.8 1.2 2 2 2.7m13.3-.1c0 .8-1.9 1.3-2.4.6-.3-.5.1-.9.9-.9s1.5.2 1.5.3m-12.2 7.7c.9-.3 1.5-.4 1.2-.2-4.8 4-4.5 4-4.7.6-.2-2.5 0-2.8.8-1.5.6 1.1 1.6 1.5 2.7 1.1m19.2-.1c0 1.2-.3 1.8-.7 1.4-1.1-1-1.2-3.6-.2-3.6.5 0 .9 1 .9 2.2m-13.4 4.8c0 2.3-1.1 2.7-1.9.6-.3-.8-.1-1.7.6-2 .7-.2 1.2-.5 1.2-.5.1-.1.1.8.1 1.9m-5.9 1.4c.4.4.1.6-.7.4-1.8-.4-2.6 3.8-1.1 5.6.9 1 .8 1.5-.3 1.9-2 .8-2.2.4-1.8-4.6.4-4.3 1.7-5.5 3.9-3.3m16.3 2c0 .2-.7.7-1.6 1-.8.3-1.2.2-.9-.4.6-1 2.5-1.4 2.5-.6m-11.8 4.2c.4.6 2.8 1.2 5.4 1.3 6.5.2 7 1.1.6 1.1-2.8 0-5.4-.5-5.7-1-.4-.7-1.2-.7-2.5 0-1.5.8-1.9.7-1.7-.9.1-1.9 2.7-2.3 3.9-.5m13.8.8c0 .3-.4.8-1 1.1-.5.3-1 .1-1-.4 0-.6.5-1.1 1-1.1.6 0 1 .2 1 .4m69.5 11.1c17.4.6 60.3 1.2 142 2.1 31.9.3 58.3.8 58.6 1s11.5.4 24.8.5l24.2.1-.5 4.6c-.2 2.6-.5 6.9-.5 9.7l-.1 5-48.2-.3c-72.5-.5-122.1-1.2-153.2-2.2-15.3-.6-45.2-1-66.5-1-21.2 0-46.4-.3-55.8-.7l-17.3-.6v-19.9l38.8.6c21.3.3 45.5.8 53.7 1.1m-33.5 27c38 .4 61.8.9 114 2 12.6.3 160.6 1.7 164.8 1.6 2.2-.1 2.2 0 2.2 14.4V296l-2.2-.4c-1.3-.3-6.8-.8-12.3-1.1s-13-.8-16.7-1.2c-8.1-.7-7.6-1.4-10.8 16.2-2.9 16-4.5 24-8.6 43-1.9 8.8-3.9 18.2-4.4 21-2.8 14.5-7.7 34.2-9 36.4-.7 1.1-.9-2.2-.5-10.4.6-12.9 1.7-71.7 1.5-82.5-.1-3.5-.6-7-1.2-7.7-.7-.9-5-1.2-15.5-1.2-8 0-14.7-.2-15-.4-.5-.6-.5-9.3.2-18.7.7-10.9.1-11.2-22.7-12.6-7.6-.5-11.2-.3-12.2.5-.8.7-1.7 3.9-2.1 7.1l-.7 6h-12.3c-8.6 0-12.5.4-13.2 1.2-.6.7-1.3 6.4-1.6 12.7-.4 6.3-.9 11.6-1.1 11.9-.4.4-9.4-.6-21.5-2.4l-3.3-.5.4-9.7c.5-8.9.3-9.7-1.8-11.8-2.1-2.2-3-2.3-16.7-2.3-19.5 0-18.3-1.5-19.1 23.9-.3 10.7-.9 21.7-1.2 24.4l-.7 4.9-5.6-.7c-3.1-.4-11-.9-17.6-1.2s-12.9-.7-14.1-.9c-2.1-.5-2.1-.7-1.8-30.9.2-27.7.1-30.6-1.5-32-1.3-1.2-5.2-1.7-15.9-2.2-18.5-.9-18.2-1.1-18.2 13.3V298l-10.2.2c-5.7.1-11.2.1-12.3 0s-6-.5-11-.9l-9-.8.1-4.5c.2-3.7.9-18.8 1.3-27.5.1-1.8.7-2 7.8-1.8 4.3.2 27.4.5 51.3.8m10.4 22.5c-.1 1.9-.2 14.6-.3 28.2L661 339h-21v-28.5l.1-28.6 10.7.3 10.7.3zm165.9-.1c1.6.1 1.7 2 1.2 33.3-.3 18.3-.5 46.2-.5 62V410h-3.9c-2.1 0-6.5-.3-9.7-.6l-5.9-.6-.4-27.2c-.6-33.7-.6-68.3-.2-84.4l.4-12.3 8.6.5c4.7.3 9.4.5 10.4.5m-35.8 13.4c4.4.1 7.9.6 7.8 1-.2.4-.3 1.3-.3 2 0 .8-.7 1.4-1.5 1.4s-1.2-.4-1-.8c.9-1.4-2.1-2.6-6.5-2.5-4.7.1-7.1 1.9-3.2 2.4 1.2.2 2 .7 1.7 1.2s-.1 1.1.5 1.5c1.6 1 1.2 2.3-.7 2.1-1-.2-1.8-.9-1.8-1.7s-.6-1.5-1.2-1.5c-.7-.1-1.6-.3-2-.4-.5-.1-1.1-.2-1.5-.1-.5 0-.8-1.2-.8-2.9 0-1.9.4-2.8 1.3-2.5.6.3 4.8.6 9.2.8m131.2 4.1c.4.4-1.4 9.3-6.7 33.6-.4 1.9-1.5 7.1-2.4 11.5s-2.3 10.2-3 13c-.8 2.7-2.6 10.4-4.1 17s-3.3 14.5-4 17.5-1.6 7.9-2 10.8l-.7 5.3-11.4-.3c-8.8-.2-11.4-.6-11.4-1.7 0-.7.9-5.2 2.1-10 2.5-10.3 1.9-7.7 6.4-28.6 2-9.4 4.5-20.8 5.5-25.5 1.1-4.7 2.6-12.3 3.5-17s2.3-11.2 3-14.5 1.7-7.5 2-9.4l.7-3.4 11 .6c6.1.3 11.2.8 11.5 1.1m-315.3 2.7c1 .8 1.6 22 .9 28.4l-.5 4.1-7.1-.2c-4-.1-7.9-.2-8.8-.3-1.5-.1-1.6-2-1.5-15.9 0-8.6.4-16.2.8-16.8.8-1.3 14.7-.7 16.2.7m24.7 2.2c0 1.2.1 8.5.2 16.2l.2 14-8.2.3-8.1.3-.2-16.8-.1-16.8 8.1.3c7.4.3 8 .5 8.1 2.5m152-1.2c-.9 3.4-.9 8.9-.1 9.4 1.6 1 1.1 2.6-.7 2.3-1.3-.2-1.7.5-1.9 3 0 1.8.3 3.5.8 3.8.4.3.6 1 .2 1.5-.3.5 0 1.6.6 2.4.8.9.8 1.5.2 1.5s-1.8.3-2.8.7c-1.2.4-1.5.3-1-.5.4-.7.8-6.3.8-12.4 0-6.2.3-11.8.5-12.5.6-1.6 3.9-.8 3.4.8m15.1 1.6c-.5 1-.7 2.5-.5 3.3.3.9-.1.7-1-.5-1.3-1.7-1.3-2.1.2-3.2 2.2-1.7 2.3-1.6 1.3.4m-10.2 3.4c0 1.4-1.7 1-2.3-.5q-.6-1.5.9-.9c.7.3 1.4.9 1.4 1.4m4.4.4c-.4.8-1.1 1.5-1.6 1.5-.6 0-.5-.6.2-1.5.7-.8 1.4-1.5 1.6-1.5s.1.7-.2 1.5m5.3 3.9c0 .8-.7 1.2-1.6 1.1-.9-.2-1.9-.4-2.3-.4-1.9-.2-.6-1.7 1.5-1.9 1.4-.1 2.4.4 2.4 1.2m60.5.6c1.6 0 1.7 1.6 1.3 20.7-.2 11.5-.5 32.6-.5 47.1v26.3l-9.7-.5c-5.4-.2-11-.5-12.5-.5l-2.6-.1.3-10.3c.2-5.6.4-25.8.5-44.8 0-19 .4-35.6.7-36.8.6-2.3.8-2.3 10.7-1.7 5.6.3 10.9.6 11.8.6m-66.7 1.9c.3.5.2 1.2-.3 1.5s-.9-.1-.9-.9c0-1.7.3-1.9 1.2-.6m-4.1 4.8c.3.6-.2 1.4-1 1.7-.7.3-1.3 0-1.1-.7.1-.7-.5-1.1-1.3-1-.9.2-1.6-.5-1.6-1.5 0-1.5.4-1.6 2.3-.8 1.2.6 2.5 1.6 2.7 2.3m-28.1-1c5.6.9 10.5 2.1 10.9 2.7s.6 2.7.3 4.6c-.2 1.9-.7 9.8-1 17.5-.4 7.7-.9 14.2-1.1 14.4s-2.5-1-5.1-2.7c-6.1-3.9-15.3-8.2-17.6-8.2-1.6 0-1.7-.8-1.2-7.8 1.6-22.2 1.6-22.2 3.1-22.2.8 0 6.1.8 11.7 1.7m38.7 10.8c0 4.9-.3 6.3-1.3 5.9-1.4-.5-1.6-3.1-.3-5.2 1.1-1.8-.3-3.5-1.9-2.2-.9.7-1.6.6-2.5-.5-1.1-1.3-1.1-1.6.1-1.3.8.2 1.3-.3 1.1-1.1s.3-1.1 1.2-.8c.9.4 1.8.2 2.1-.3 1.2-2 1.5-.9 1.5 5.5m-12.3.7c-.5 2.9-2.5 3.5-2.2.6.3-2.8.3-2.8 1.5-2.8.5 0 .8 1 .7 2.2m3.9 2.5c.1.6-.4.9-1.1.7-.7-.3-1.2-1.7-1.2-3.1 0-2.4 0-2.4 1-.7.6 1 1.2 2.4 1.3 3.1m-9.8-1.5c-.2.7.3 1.2 1 1 1-.2 1 .2.2 1.9-.6 1.1-1.3 3-1.5 4.1-.8 4.1-1.5 3-1.5-2.5 0-3.2.5-5.7 1-5.7.6 0 .9.6.8 1.2m6.6 4.3c1.1.8 1.6 1.5 1.2 1.5-.5 0-.3.7.5 1.6 1.1 1.4 1 1.5-.7 1.2-1.3-.2-1.8.2-1.6 1.2.2.8 0 1.1-.5.7-.4-.5-.8-1.2-.8-1.5 0-.4-.4-1.3-.9-2.1-.6-.9-.5-1.2.2-.7.6.3 1.3.2 1.7-.3.3-.5-.3-1.4-1.2-2-1-.6-1.3-1-.8-1 .6 0 1.9.6 2.9 1.4M799 347c0 4.7-.3 5.6-1.8 5.7-1 .1-1.9-.5-1.9-1.2 0-.8.5-1.3 1.1-1.2s1.1-.9 1.1-2.3c0-2.7-1.4-3.2-5.3-1.8-1.7.6-2.1.5-1.5-.5.7-1.1.9-1.5 1.2-3.5 0-.4 1.7-.7 3.6-.7h3.5zm-249.7.7c-.7.2-1.9.2-2.5 0-.7-.3-.2-.5 1.2-.5s1.9.2 1.3.5m233.7.3c0 .4-.8 1.8-1.8 3.1l-1.9 2.2-.1-2.9c0-2.3.4-3 1.9-3.1 1-.1 1.9.2 1.9.7m-185.3.6c-.3.3-1.2.4-1.9.1-.8-.3-.5-.6.6-.6 1.1-.1 1.7.2 1.3.5m6.6.1c-.7.2-2.1.2-3 0-1-.3-.4-.5 1.2-.5 1.7 0 2.4.2 1.8.5m82.4 1.9c-.3.3-1.2.4-1.9.1-.8-.3-.5-.6.6-.6 1.1-.1 1.7.2 1.3.5m92.5 6.4c.3 1.7.1 3.3-.4 3.6-.4.3-.8-1.1-.8-3 0-4.4.6-4.7 1.2-.6m20.2.9.6 3.4-2.1-2.8c-1.8-2.2-1.9-2.9-.8-3.5 1.6-1.1 1.5-1.3 2.3 2.9m-19.7 7.2c-1.4 2.3-.1 5.3 1.9 4.5 1.4-.5 1.5-.4.5.8-.7.8-.8 1.7-.3 2 .6.3 1.5-.1 2.2-.9 1.3-1.5 3.5-1.1 2.5.5-.3.5-.1 1.1.5 1.5s.8 1.1.5 1.6c-.4.5.1 1.2 1 1.5 1.4.6 1.3.8-.5 2.1-1.7 1.2-1.9 1.7-.9 3 1.1 1.3 1.4 1.3 2.6-.3.7-1 1.3-1.4 1.3-.9 0 .4 1 0 2.2-1.1l2.2-1.9-1.7 2.5c-1 1.4-2.2 2.5-2.7 2.5-1.3 0-1.3 2 0 2.1.6.1 1.2.2 1.5.3.3 0 .1 1-.5 2.1-1.6 3-.2 4.5 2.2 2.3 2.1-1.8 2.1-1.8.8.7-.8 1.4-1.4 3.3-1.5 4.2-.2 2.4-1.4 3.4-1.9 1.7-.2-.8-1.2-4-2.2-7.1-.9-3.2-2.3-6.3-3-6.9-.8-.6-1.4-1.6-1.4-2.1s-1.5-2.8-3.4-5.1c-4-4.9-5.5-11.6-2.6-11.4 1.4.1 1.5.5.7 1.8m9.8 3.7c-.3.3-1.6-.5-2.8-1.7l-2.2-2.3 2.8 1.7c1.5 1 2.5 2 2.2 2.3m9.4-1.1c-.1.5-.1 1 .1 1.3.8 2.2.8 5-.1 5-.5 0-.8-.4-.5-.9.7-1.1-1.8-3.3-2.7-2.4-.4.3-.7.4-.7 0 0-.6 2.9-3.7 3.6-3.7.2 0 .3.3.3.7m-4.6 4.7c.3-.3 1.1-.3 1.7.1.9.6.9 1-.1 1.6-1.6 1-4.5 1.2-3.6.2.4-.3.1-1.3-.6-2.2-1-1.4-1-1.4.4-.4.9.7 1.9 1 2.2.7m5.5 7.7c-.2 2.1-.9 3.1-3 3.8-2.6.9-2.6.9-1.6-1.4.6-1.3 1.4-2.4 1.7-2.3q2.7.3 1.2-1.5c-.8-1-.7-1.4.4-1.4 1 0 1.4.9 1.3 2.8m0 13.5c0 3.4-.1 3.5-1.9 1.8-1.3-1.2-1.6-2.1-.9-2.9.5-.6.7-1.5.3-1.8-.3-.4.1-.7.9-.7 1.2 0 1.6 1 1.6 3.6m-3.6 6.4c1.4 1 2.7 1.8 2.9 1.6.2-.3.5 1.3.7 3.5.2 3.6 0 3.9-2.3 3.9-1.5 0-2.5-.6-2.5-1.4s-.3-2.2-.6-3.1c-.4-.9-.3-1.5.2-1.3s.9-.2.9-.7c0-.6-.6-.8-1.5-.7-.8.2-1.2.1-.8-.4.4-.4.3-1.3-.3-2.1-1.7-2 .5-1.6 3.3.7m65.3 19.5c27 .7 55.8 1.6 62.5 2 3 .2 6.2.4 7.1.4 1.4.1 1.6 1 1.4 4.8-.1 2.7-.3 6.9-.3 9.5l-.2 4.7-9.2-.4c-5.1-.2-25.9-.7-46.3-1-20.3-.4-41.9-.8-48-.9-6-.2-14.9-.4-19.7-.5-9.9-.1-9.1.9-10.4-12.9l-.6-7.3 21.8.5c12.1.4 30.9.9 41.9 1.1m-506.9 12.7c10.4 10.7 17.4 19.8 20.1 26.2l1.3 2.8 12.2-.8c21.7-1.4 36.3-.3 49.1 3.6 6.6 2 6.5 2.1 12.9-6 7.5-9.3 22.7-23.4 33.6-30.9 3-2.1 3.2-2.1 4-.4.7 1.9.7 37.4-.1 45.8-.3 2.7-1 9.3-1.6 14.5-1.1 9.4-1.1 9.6 2 18.5 2.5 7.3 3.1 11.1 3.5 19.9.6 14.6.6 14.6-6.5 14.6-7.6 0-16.2 1.7-18 3.5-1.3 1.3-1.2 1.7.4 3.5 1.8 2 2.6 2.1 11.9 1.4 11.1-.8 10.4-1.5 6.9 7.2l-1.7 4-6.9-1.8c-9.8-2.7-10.2-2.6-11.7.3-1.7 3.1 1.2 5.7 7.2 6.5 2.6.4 5.1 1 5.3 1.5 1.3 2-8.9 9.7-20.9 15.9-4.7 2.4-5.6 4.7-2.7 7.1 2.9 2.3 5.2 1.9 14.7-2.7 4.6-2.2 9.7-5.9 13.9-9.9l6.7-6.5 9.3 4.5c12.4 5.9 13.9 6.2 15.9 3.4.9-1.3 1.6-2.7 1.6-3.2 0-.9-20.2-10.7-22.1-10.7-.6 0-.9-.6-.6-1.3.4-.6 1.8-4.2 3.3-8 3.2-7.8 2.9-7.7 16-5 9.3 1.9 11.9 1.3 11.9-2.7 0-2-.8-2.6-5-3.7-2.7-.7-7-1.5-9.5-1.8-9.4-1.2-9.1-1-8.8-6.7l.3-5.2 14-2.2c43.1-6.8 72.7-6.5 107.5 1.2 14.2 3.1 38.3 10.8 43 13.7 1.9 1.2 3.7 2.2 4 2.2 1.1.2 11.8 6 17 9.3 8.9 5.6 20.5 15.8 26.2 22.9 2.9 3.6 8.7 12.5 12.9 19.7 8.7 15.1 8.1 14.6 26.4 20.2 38.8 12 57.4 24.2 72.1 47.6 11.3 17.9 14 27 14.7 50.3.8 22.2-4.1 44.6-14 63.9-7.6 14.9-17.4 25.5-33.3 36.3-12.7 8.5-28.7 13.3-44.5 13.3-9.1 0-10.4-.2-13.8-2.5-4.4-3-7-7.6-7-12.5 0-9 7.8-16.4 25.4-23.8 3-1.3 7-3 8.9-3.8 13.8-6 25.4-16.5 30.9-27.9 6-12.4 7.4-19.3 7.3-35-.2-12.3-.5-15.3-3.1-24.3-3.8-13-7.6-19.6-16.4-28.2-7.6-7.6-13.2-11.1-24.7-15.7-12.5-5.1-24.4-10.9-26.2-13-1-1.1-3.5-6.9-5.7-12.9-4.3-12.1-5.8-13.9-9.1-10.9-1.9 1.8-2.1 2.8-1.7 8.2.6 8.1 4.5 16.2 11.4 23.5 6.7 7 9.2 13 8.7 21.4-.5 11.4-5.2 22.9-27 67.4-5.9 11.8-11.3 22.9-12.1 24.7-.8 1.7-3 4.6-4.9 6.4l-3.3 3.2-.6-2.9c-2.5-11.6-4.2-14.7-6.9-12.5-.9.7-1.2 2.5-1 4.9.2 2 .6 5.6.9 7.9.5 4.5-.3 5.6-4.2 5.8-2.9.1-4.3-3.7-4.3-12.1 0-3.5-.4-6.5-.9-6.8-.4-.3-1.9.6-3.1 1.9-1.9 2.1-2.4 3.7-2.4 8.5-.1 3.3-.2 6-.3 6-4.9.2-7.8-11-5.2-20.5 1.6-6 8.3-20.5 13-28.2 8.6-14.1 13.3-24.4 13.7-30.5.4-5.1.1-6.2-2.3-9.4-3.3-4.4-11.4-8.2-28-13.4-15.9-4.9-27.8-11-35.9-18.4-6.7-6.2-9.6-11.6-10.3-19.6-.7-7-2.8-9.9-6.2-8-3.1 1.6-2.8 7.8 1 22.3.5 2 3 6.2 5.4 9.1l4.4 5.4-12.7 3c-27.2 6.5-57.7 6.9-101.2 1.3-4.1-.5-7.8-.7-8.2-.5-1.3.8-.9-.9.7-3 2-2.7 2-8.5-.1-9.3-.9-.3-2.6.5-4.2 1.9-1.5 1.4-4.7 3.9-7.1 5.4-2.4 1.6-5.4 3.6-6.7 4.4-9.1 6.1-28.3 16.5-46.7 25.4-12 5.9-22.1 10.6-22.5 10.6-1.3 0-15.5 6.2-21.1 9.2-7.6 4.2-12.8 8.3-19.5 15.8-3.2 3.6-7.2 7.8-9 9.4-3.7 3.3-11.6 8.6-12.9 8.6-.6 0-.8-3.1-.4-7.9.5-6.3.3-8.2-.9-9.1-3.4-2.9-7.4 5.5-7.4 15.4 0 4.4-.1 4.6-2.9 4.6-1.6 0-4.2-.5-5.6-1-2.4-.9-2.6-1.4-2.2-5.1.2-2.2 1.9-6.9 3.7-10.4s2.9-6.8 2.5-7.4c-2.3-3.8-10.3 3.6-12.5 11.4-1.4 5-2 5.4-3.8 2.5-3-4.8-.8-15.8 4.5-22.9 1.4-2 6.9-7.9 12.2-13.1 9.1-9 19.7-16.9 37.6-27.8 3.9-2.4 7.7-4.7 8.5-5.2s6.5-3.9 12.5-7.6c15.3-9.2 25-16.7 27-21 1.7-3.6 1.7-6.5 0-7.1-1.1-.3-1.5 0-17 10.6-8.8 6.1-10.2 6.7-12 5.7-3-1.9-23.1-9.6-30-11.5-11.7-3.3-15.7-2.6-49 7.9-30.8 9.8-39 13.3-50.8 21.7-4.8 3.3-22.7 13.3-24 13.3-1.2 0-.7-5.6.8-10 1.6-4.5.8-7-2.1-7-2.5 0-6.4 6.6-7.5 12.9-1.2 6.5-1.6 6.8-6.8 5-4.1-1.5-4.1-3.9.4-12.5 3.9-7.4 4.2-9.2 2-10-2.1-.9-7.3 3.3-10.7 8.5l-3 4.6.6-5.9c.9-7.9 4.8-13.6 16.1-23 6.8-5.7 12.4-9.3 23-14.5 7.7-3.8 16.5-7.9 19.5-9.1s8.2-3.4 11.5-5 8.3-3.8 11-5c11.1-4.9 23.4-14 37.3-27.6 6.4-6.3 8.4-7.8 9.3-6.8 2 2.5 10.6 7.4 16.1 9.3 6.5 2.2 8.8 1.4 8.8-3 0-2.3-.7-3.4-3.1-4.7-10.1-5.5-18.1-11.7-22.3-17.1-2.5-3.3-4.6-6.2-4.6-6.5s1.8-.6 3.9-.6c5.1 0 9.1-3.1 7.5-5.7-.9-1.4-2.6-1.9-7.5-2.1-8.2-.3-8.6-.4-9.1-4.1-.5-3.5-.7-3.5 7.8-1.9 5.7 1 6.6 1 8.4-.7 1.4-1.3 1.7-2.2 1-3.6-.9-1.5-3.5-2.5-16.9-6.5-1.4-.4-1.3-1.8.7-13.4 1.2-6.8 1.7-8 6-15.4 3.4-5.9 3.5-6.1 3.8-19 .4-18 1.2-27.8 3-36.6 2-9.8 5.6-22 6.4-22 .4 0 5.6 5.1 11.6 11.2M839 446.4c36.3.9 64.1 1.4 80.3 1.5l12.8.1-.3 22.7-.3 22.8-8-.1c-4.4-.1-10.5-.2-13.7-.3l-5.6-.1-.4-11c-.4-15 .3-14.4-19.2-14.7-12.5-.2-15.6 0-16.6 1.2-.8 1-1.2 5.1-1.1 12.6l.2 11.1-2.5-.6c-2.4-.6-5.9-.9-20.2-2-9-.7-9.3-.2-10 12.9-.3 6.1-1 12.6-1.5 14.5s-.9 6.3-.9 9.6v6.2l-3.2-.8c-1.8-.4-5.3-1.4-7.8-2.3-2.5-.8-7-2-10-2.7-11.3-2.5-10.9-2.1-10.5-10.8.8-16.4 1.2-51.2.6-60.5-.3-5.4-.5-10-.3-10.1.1-.2 2.4-.2 5 0 2.6.1 17.5.5 33.2.8m-550.2 12.1c2.1 5.9 7.3 22.7 7.7 25 .3 2.3 2.9 11 5.1 17.5 1.5 4.5 6.1 18.8 7.1 22.4.4 1.2.2 1.7-.5 1.2-3.3-2-29.4-2.5-31.8-.6-1.9 1.7-1.8 5.7.4 6.8.9.6 5.3.8 9.7.6 8.2-.4 22.3 1.2 24 2.7.5.5 1.4 3 2.1 5.7 1.4 5.4.9 6.1-4.6 6.2-6.6.2-25.5 4.4-27.7 6.2-1.6 1.3-1.7 4.4-.1 5.4 1.8 1.1 7 .6 17-1.6 4.8-1.1 11.3-2.2 14.4-2.3 4.9-.3 5.7-.1 6.4 1.7.4 1.2 2 3.8 3.4 6l2.7 3.8-4.3 5.5c-4.6 6-19.8 20.6-20.6 19.8-.3-.3-2 .6-3.7 1.9-1.8 1.4-6.8 4.3-11.1 6.4-10.2 5.1-25.2 12.2-25.9 12.2-.5 0-9.4 4-21.5 9.8-4.1 1.9-10.6 5.7-14.5 8.4-3.8 2.6-8.3 5-10 5.2-10.8 1.6-18.3 3-20.5 3.8-1.4.5-4.3 1.3-6.5 1.8-4.6 1-18.2 5.9-25.2 9.1l-4.6 2.1-1.8-2.3c-1-1.3-2.1-4-2.5-5.9s-.8-4-.9-4.5c-.2-.6-.6-5.1-.9-10-.4-5-1.4-12.2-2.1-16-.8-3.9-1.6-8.6-1.9-10.5-.2-1.9-.7-4.9-1-6.5-.3-1.7-.8-4.4-1-6-.4-3-6.2-17.7-9.7-24.6-3.3-6.6-15.7-18-24.2-22.4-5.4-2.7-8.2-4.8-8.9-6.5-1.4-3.4-3.8-11.9-4.3-15.2-.4-2.1-6.7-15.8-11.5-24.9-.5-.9-1.1-3.6-1.5-6.1l-.7-4.4 6.9-3.1c13.9-6.4 21.1-8.1 36.4-8.8 10.8-.5 17.4-1.4 36.4-4.9 4.4-.9 10-1.5 12.4-1.6 5.9 0 23.9-2.7 33.6-5 4.4-1.1 12.5-2.2 18-2.5 15-1 17.8-1.3 34.5-4 4.7-.7 12.5-1.3 17.4-1.2l8.9.2zM896 480c0 3.3-.3 3.7-2 3.3-2-.5-2-.6-.4-2.5 1.3-1.4 1.5-2.1.6-3-1.5-1.5-4.5.9-3.8 2.9.3.8.1 1.1-.4.8-1.1-.7-3.1 3.5-2.3 4.8.3.5 1 .4 1.6-.2 1.8-1.8 2.8-1.3 1.6.7-1.2 1.8-4.5 2.2-6.9.7-1.2-.8-4.2 1.3-3.5 2.5.2.4-.7 1.2-2.1 1.9-1.4.6-2.2 1.6-1.9 2.1.4.6 1 .8 1.5.5s1.2-.1 1.5.5c.4.6.3 1-.2.9-1.8-.3-2.4.2-1.6 1.3 1.5 2.5 1 6.4-.9 6.4-1.6 0-1.8-1.2-1.6-13.8l.1-13.8 10.3.1 10.4.2zm.6 7.7c-1 1-1.9-.5-1-1.8.6-1.1.8-1.1 1.2 0 .2.7.1 1.5-.2 1.8m.3 8.4c.1 4.5 0 5-1.4 3.9-.8-.7-1.5-.9-1.5-.4-.1.5-.7-.3-1.6-1.8-1-1.9-2-2.6-3.2-2.2-1.6.5-1.6.5.1-.6.9-.6 2.2-.8 2.8-.5 1.2.8 4.1-1.4 3.3-2.6-.3-.5-.1-.9.4-.9s1 2.3 1.1 5.1m-11.9.9c0 .5-.2 1-.4 1-.3 0-.8-.5-1.1-1-.3-.6-.1-1 .4-1 .6 0 1.1.4 1.1 1m5 2.6c0 .2-.7.4-1.5.4s-1.5-.4-1.5-1c0-.5.7-.7 1.5-.4.8.4 1.5.8 1.5 1m40.9 3c.7.7 1 94 .4 102.6-.4 4.1-.9 5.8-1.9 5.8s-1.2-.8-.8-3c1-4.6-1.5-18.7-4-23.4-3.1-5.8-12-16.4-16.9-20.1l-3.9-3 .6-11.5c.3-6.3.6-20 .6-30.3v-18.9l12.6.6c7 .3 13 .8 13.3 1.2m-38.5 1.6c-.3.4-1.1.5-1.9.1-2.1-.7-1.9-1.2.4-1 1.1 0 1.8.5 1.5.9m-15.9 1.8c.3.5.1 1-.4 1-.6 0-1.1-.5-1.1-1 0-.6.2-1 .4-1 .3 0 .8.4 1.1 1m20.5 4.1c0 4.5-.2 5-1.5 3.9-1.2-1-1.2-1.6-.4-2.6.6-.8.8-2.1.5-3-.6-1.5 0-3.4 1-3.4.2 0 .4 2.3.4 5.1m-21.3 1.9c-.1 1.1-.5 2-.9 2-1 0-1-.4-.2-2.4.8-2.2 1.3-2 1.1.4m-.2 4c.3.5.1 1-.4 1-.6 0-1.1-.5-1.1-1 0-.6.2-1 .4-1 .3 0 .8.4 1.1 1m.3 3.2c-.2.7.2 1.2.7 1.1.6-.1 1.1.6 1.2 1.6s-.6 1.7-1.8 1.8c-1.4.1-1.9-.5-1.9-2.1 0-2 .7-3.6 1.7-3.6.2 0 .2.6.1 1.2m21.4 1.8c.3 1.6.1 3-.4 3-.4 0-.8-1.4-.8-3 0-1.7.2-3 .4-3s.6 1.3.8 3m-5.9 3.4c.4 1 .1 1.3-.8.9-.8-.3-1.2-.9-.9-1.4.7-1.2 1.1-1.1 1.7.5m-16 2.6c-.3 1.1-.7 2-.9 2s-.4-.9-.4-2 .4-2 .9-2 .7.9.4 2m6.5-.5c.3.3-.4.5-1.6.5-1.1 0-2.3-.4-2.7-.9-.6-1 3.3-.6 4.3.4m15.1 14c-.2 8.5-.5 15.5-.8 15.5s-1.2-.4-1.9-.9c-1.1-.6-1-1 .5-1.5 1.7-.7 1.6-.9-.7-2.8-1.5-1.3-1.8-1.9-.8-1.5 2 .7 3.4-.8 1.8-1.8-.8-.5-.7-1.1.1-2.1.9-1.1.8-1.5-.5-2-1.4-.6-1.5-.9-.3-2.3 2-2.5 1.6-5.5-1-5.9-1.2-.2-2.7-1-3.3-1.8-1.5-1.7.1-1.9 1.7-.3 1.8 1.8 4.5.2 4.3-2.3-.3-3.4-.1-5.8.6-5.8.3 0 .4 7 .3 15.5m-18.8-7.2c-.7.7-.7 1.6 0 2.9.6 1.1.6 2.4 0 3.5-.6 1.2-.4 2.4.6 3.9.9 1.5 1.1 2.4.3 2.9-.6.3-.8 1.1-.5 1.6.9 1.4-.9 1.1-3.1-.5-1.3-1-1.5-1.4-.4-1.3.8.1 1.5-.3 1.5-.8 0-.6-.6-.9-1.2-.9-.9.1-1.3-1.8-1.3-6.6 0-6.7 0-6.7 2.6-6.2q2.55.45 1.5 1.5m9.9 4.2c0 1.2-1.9 1.2-2.3 0-.4-.9-.1-1.2.9-.8.7.3 1.4.7 1.4.8m4 .6c0 1.5-1.8 1.9-2.3.6-.3-.8.1-1.4.9-1.4s1.4.4 1.4.8m-7.3 11.4c0 1-.6 1.4-1.4 1-.8-.3-2-.5-2.6-.6-.7 0-.3-.4.8-.9 2.9-1.2 3.2-1.2 3.2.5m4.7 1.7c-.2.4.4 1.1 1.3 1.7 2.4 1.4 1 1.4-2.2-.1-3-1.3-3.2-2.4-.6-2.4 1.1 0 1.8.4 1.5.8m40.6 78.7c0 9.8 0 9.9-2.6 10.4-2.5.4-2.6.4-2-4.7.9-9 1.8-13.6 2.7-13 .5.3.6-.2.3-1-.3-.9-.1-1.6.5-1.6.7 0 1.1 3.3 1.1 9.9m.1 37.1c.4 14.9.1 78.6-.5 99l-.1 4.5-15.9.3-15.8.3.6-2.8c.4-1.6 1.1-4.6 1.5-6.8.5-2.2 1.9-8.3 3.1-13.5s2.6-11.1 3-13 1.8-8 3-13.5 2.6-12.5 3-15.5c1-7 5.4-28.9 7.9-40 1.1-4.7 2.3-10.7 2.6-13.3.6-4.7.7-4.8 3.8-4.5l3.2.3zm-298.6 6.1c6.9 3.6 14 6.3 20.8 8 4.7 1.1 7.3 2.9 4.2 2.9-3.3 0-40.2 19-48.5 25-9.4 6.8-13.9 9.4-14.7 8.6-.3-.2.3-2.5 1.2-5 .9-2.4 1.4-4.9 1-5.5-2.2-3.6-8.6 1.9-10.5 8.9-1 3.8-1.3 4-5 4-3.8 0-4-.1-4-3.3 0-1.7 1.4-5.7 3-8.6 2.7-4.8 2.9-5.7 1.6-6.9-.8-.8-2.1-1.2-3-.9-2.6 1-7.6 8.8-8.2 12.9-.8 4.5-1.7 4.8-4 1.2-3.5-5.2-1.3-14.4 5.4-23.2 3.4-4.5 16.2-12.8 22.5-14.6 10.7-3.1 25.3-6.4 28.7-6.5 2.2-.1 5.9 1.1 9.5 3m297.3 117.4c-.2 6.3-.6 11.6-.9 11.9-.2.2-9.8.6-21.2.8-18.7.4-20.7.3-20.2-1.1.4-.9 2-5.1 3.6-9.4 1.6-4.2 3.5-9 4.3-10.6l1.5-2.9 16.7-.1 16.6-.1zm-776.4 47.4c7.1 0 7.8.2 7.3 1.8-.8 2.7-13.6 36.5-14.7 38.8-.5 1.1-3 7.6-5.6 14.5-2.5 6.9-5.5 14.4-6.5 16.7-1 2.4-1.9 4.7-1.9 5.3 0 1.6-4.9 12.3-7.3 15.7-2.2 3.3-2.3 3.3-10.6 3.3-7.5 0-8.2-.2-7.6-1.8.3-.9 1.5-6.8 2.6-13.1s2.3-12.1 2.8-13c.4-.9.9-3.3 1-5.5.1-2.1.9-6.8 1.7-10.5.8-3.6 2.3-11.3 3.4-17.1 1-5.8 2.8-15.5 4-21.5 1.2-6.1 2.3-11.9 2.4-13 .2-1.1.4-2 .5-2 0 0 4.7.3 10.4.7 5.6.5 13.7.8 18.1.7m37.6.9c0 .9-4.2 15.8-5.4 18.9-.7 2.1-2.2 6.7-3.2 10.3-.9 3.6-2.2 7.1-2.7 7.7-.5.7-.7 1.3-.4 1.3s-.3 2.1-1.3 4.7l-1.8 4.8-8.1.3-8.1.3.7-3.3c.3-1.8 1-3.8 1.4-4.4.5-.6.7-1.3.4-1.5-.6-.7 4.2-24.4 6.2-30.4.9-2.8 1.5-5 1.3-5s.1-.9.7-2c1-1.8 2.1-2 10.7-2 5.3 0 9.6.1 9.6.3m642 10.4c.6 4.6 1.3 10 1.5 12s.5 4 .8 4.5 1.2 6.2 2.1 12.8 1.8 13.1 2.1 14.5.9 4.7 1.5 7.5c.5 2.7 1.2 7.5 1.5 10.5s1.4 10.2 2.4 16 1.6 10.7 1.4 11c-.2.2-3.8.4-8 .3-8.3-.2-10.4-1.5-11.8-7.3-.4-1.4-2.6-7.5-5-13.5-2.4-6.1-5.6-15.1-7-20-1.5-5-3.8-12.3-5.2-16.4-1.4-4-2.6-8.3-2.8-9.5-.2-1.1-1.7-6.1-3.4-11s-3.1-9.7-3.1-10.7-.4-2-.9-2.3-1.1-1.7-1.3-3c-.6-2.8-1-2.8 22.3-3.4l11.6-.3zm-64.9-4.9c0 1.2.2 3 .4 4.1.5 2.6 1.6 20.3 2 31.3l.3 9.2-8.4-.2c-9.8-.3-9.7-.2-13.5-13-1.1-4-2.7-9.2-3.6-11.7-.8-2.5-2.3-7.7-3.3-11.5-1-3.9-2.1-7.7-2.5-8.6-.6-1.5.9-1.7 13.9-1.7 14.3 0 14.6 0 14.7 2.1"/><path d="M796.6 405.9c-.4.5-.2 1.2.3 1.5.5.4 1.2.2 1.5-.3.4-.5.2-1.2-.3-1.5-.5-.4-1.2-.2-1.5.3m-447 39.9c-.8 1.3 2.9 13.7 5.3 17.5 3.4 5.5 6.9 8.3 8.9 7.1 2.8-1.8 2.5-5-1.1-10.6-1.9-2.9-4.5-7.3-5.8-9.8-2.3-4.3-5.9-6.4-7.3-4.2m122.3 3.4c-5 5.3-13.9 19.1-13.9 21.5 0 2.6 1.4 3.6 3.9 2.8 1.9-.6 9.7-11.2 14-19.1 4-7.3 1.3-10.9-4-5.2m-119.7 62c-2.1 2.1-1.3 5.5 2.6 9.7 5.5 6.3 14.8 7.5 23.2 3.2 3-1.5 3.5-2.3 3.5-5.2 0-4-1-4.1-9.8-1-5.2 1.9-6 2-8.6.7-1.5-.8-4-3.1-5.5-5-2.9-3.9-3.6-4.2-5.4-2.4m74.4 9.7c-2.3 2.5-1.4 5.2 2.8 8.9 4.5 3.9 10.1 4.7 17.8 2.6 4.5-1.3 6.5-2.5 8.5-5.1 2.2-2.9 2.4-3.7 1.5-5.8-1.6-3.4-3.8-3.1-8.3 1-3.1 2.7-4.8 3.5-7.8 3.5s-4.9-.8-8.1-3.5c-2.3-1.9-4.3-3.5-4.4-3.5-.2 0-1.1.9-2 1.9m-38 13.6c-4.7 2.3-1.9 10.9 3.8 11.7 1.8.3 2.1.9 1.8 4.3-.4 4.9-3.9 8.5-8.4 8.5-2.5 0-4.2-1.1-8.1-5.1-4.1-4.2-5.1-4.8-6.4-3.8-2 1.7-1 6.5 2 9.7 5.7 6.2 16.9 8.3 21.4 4 2.1-1.9 2.5-2 4-.6 5.7 4.8 15.8 5.5 22.2 1.6 4.4-2.8 7.3-7.5 6-10-1.4-2.7-3.7-2.2-8 1.7-4.2 3.7-8.9 4.6-14.4 2.5-2.5-.9-2.6-1.3-2.1-5.5.9-6.4 1.5-7.5 4.2-7.5 1.3 0 2.6.1 2.8.2.2.2 1.3-.6 2.5-1.6 2.5-2.3 2.7-5.8.5-7.7-2.2-1.8-21-3.8-23.8-2.4m488.7-56.4c-.7.7-.9 1.9-.4 2.8.9 1.9.8 3.2-.2 4.8-.4.6-.3 1.4.2 1.7.5.4 1.2.2 1.6-.4.3-.5.3-1-.1-1-.3 0-.1-.7.6-1.5 1.2-1.4 1.5-1.4 3.1.1 2.5 2.2 5.4.2 3.9-2.7-.6-1-.9-2.4-.8-3 .4-1.7-6.4-2.3-7.9-.8m5.8 3.2c-1 .9-1.1.8-.5-.6.3-1 .9-1.5 1.2-1.2s0 1.1-.7 1.8m4.5-3.4c-.4.5-.2 1.2.3 1.5.5.4 1.2.2 1.5-.3.4-.5.2-1.2-.3-1.5-.5-.4-1.2-.2-1.5.3M875.5 537c-.4.6-.3 1.6.3 2.2s1.2.6 1.7-.2c.4-.6.3-1.6-.3-2.2s-1.2-.6-1.7.2M138.6 838.9c-.4.5-.2 1.2.3 1.5.5.4 1.2.2 1.5-.3.4-.5.2-1.2-.3-1.5-.5-.4-1.2-.2-1.5.3m-3 53c-.4.5-.2 1.2.3 1.5.5.4 1.2.2 1.5-.3.4-.5.2-1.2-.3-1.5-.5-.4-1.2-.2-1.5.3m-13.5 30.4c-.6.8-.8 1.7-.5 2 1 .9 4.5-1.3 3.9-2.4-.9-1.3-2.1-1.1-3.4.4m-3 6.1c-.9 1-.9 1.6-.1 2.1 1.7 1 3.7-1.2 2.4-2.5-.8-.8-1.5-.6-2.3.4m57.5-82.5c-.4.5-.2 1.2.3 1.5.5.4 1.2.2 1.5-.3.4-.5.2-1.2-.3-1.5-.5-.4-1.2-.2-1.5.3m-1 15c-.4.5-.2 1.2.3 1.5.5.4 1.2.2 1.5-.3.4-.5.2-1.2-.3-1.5-.5-.4-1.2-.2-1.5.3m-8 1c-.4.5-.2 1.2.3 1.5.5.4 1.2.2 1.5-.3.4-.5.2-1.2-.3-1.5-.5-.4-1.2-.2-1.5.3m-.7 17.8c-.1.4-.1 1.1 0 1.5 0 .5-.5.7-1.1.5-.7-.1-1.3.5-1.3 1.3 0 2.6 4 1.8 4.1-.8.1-2.1-1.4-4.4-1.7-2.5m650.7-2.8c-.4.5-.2 1.2.3 1.5.5.4 1.2.2 1.5-.3.4-.5.2-1.2-.3-1.5-.5-.4-1.2-.2-1.5.3m6 1.8c-.4.5-1.2.8-1.7.8s-.9.3-.9.7c0 .8.3.9 1.8.7.4-.1 1.2-.2 1.7-.3.6 0 1.1-.4 1.1-.9.2-1.1-1.1-1.8-2-1m3.9 9.3c-.4.6-1 .8-1.5.5s-1.1-.1-1.4.4c-.4.5-.2 1.2.3 1.5.5.4 1.2.2 1.6-.4s1-.8 1.5-.5 1.1.1 1.4-.4c.4-.5.2-1.2-.3-1.5-.5-.4-1.2-.2-1.6.4m1 43c-.4.6-.3 1.6.3 2.2s1.2.6 1.7-.2c.4-.6.3-1.6-.3-2.2s-1.2-.6-1.7.2m-75.9-85.1c-.4.5-.2 1.2.3 1.5.5.4 1.2.2 1.5-.3.4-.5.2-1.2-.3-1.5-.5-.4-1.2-.2-1.5.3m-7 8c-.4.5-.2 1.2.3 1.5.5.4 1.2.2 1.5-.3.4-.5.2-1.2-.3-1.5-.5-.4-1.2-.2-1.5.3m10.2-.3c-.4.3-1.4.7-2.5.8-2.4.4-2.3 1.8.1 2.2 2.5.4 5.8-1.4 5.1-2.7-.7-1-1.9-1.2-2.7-.3m-7.2 4.3c-.4.5-.2 1.2.3 1.5.5.4 1.2.2 1.5-.3.4-.5.2-1.2-.3-1.5-.5-.4-1.2-.2-1.5.3m7.5 1.5c-1.3 1.3-1.8 2.6-1.3 3 .5.3 1.9-.5 3.1-1.8 1.3-1.3 1.8-2.6 1.3-3-.5-.3-1.9.5-3.1 1.8m-3.6 7.6c-.3.5-.2 1 .2 1.2 1.3.7 3.3.3 3.6-.6.3-1.2-3.1-1.7-3.8-.6m-1 7c-.4.6-.3 1.6.3 2.2s1.2.6 1.7-.2c.4-.6.3-1.6-.3-2.2s-1.2-.6-1.7.2m14 1.9c-.7 1.2 1.2 2.4 2.5 1.6 1.1-.7.4-2.5-1-2.5-.5 0-1.1.4-1.5.9m-1.9 3c-.4.5-.2 1.2.3 1.5.5.4 1.2.2 1.5-.3.4-.5.2-1.2-.3-1.5-.5-.4-1.2-.2-1.5.3m.9 3c-.7 1.2 1.2 2.4 2.5 1.6 1.1-.7.4-2.5-1-2.5-.5 0-1.1.4-1.5.9m-6.9 2c-.4.5-.2 1.2.3 1.5.5.4 1.2.2 1.5-.3.4-.5.2-1.2-.3-1.5-.5-.4-1.2-.2-1.5.3"/></g></svg>