<svg xmlns="http://www.w3.org/2000/svg" width="1365.333" height="1365.333" preserveAspectRatio="xMidYMid meet" version="1.0" viewBox="0 0 1024 1024"><g fill="#000" stroke="none"><path d="M562.6 41.2c-1.2.7-1.6 1.7-1.2 3.4.4 1.4-.2 3.8-1.4 6.1-1.3 2.5-2.1 6.7-2.4 12.3-.3 4.7-.8 57.8-1.2 118-.3 60.2-.7 111.7-.9 114.5-.1 2.7-.3 13-.4 22.8l-.1 17.8-18.2-.1c-34.6-.2-298.3 1-314.3 1.4-27.4.8-45 2.6-63.5 6.3-9.6 2-19.1 4.4-21 5.4-1.9 1.1-3.8 1.9-4.3 1.9-2.1 0-14.8 9.3-20.7 15.1C94.8 384 88.3 405 85.9 453l-.9 18.5-2.7 2c-4.9 3.6-7.2 6.3-7.9 9.1-.7 2.9 1.2 17.1 2.5 18.9.4.5 1.7 3.4 3 6.2 1.9 4.7 2.1 6.3 1.5 14.9-.4 5.6-1.2 9.7-1.8 9.9-.6.1-4.1.7-7.8 1.3-3.8.6-8.9 2-11.5 3.2-2.7 1.2-6.8 3.2-9.3 4.3-9.2 4.3-18.6 18-21 30.7-2.6 13.7-.3 40.7 7 82.5 4.5 25.2 5.1 29.3 6 36 .9 7.1 7.3 44.7 8.9 52 .5 2.2 2.5 11.6 4.5 21 9.4 43.8 11.2 48 25.7 59.5 5.2 4.1 14.1 8 24.2 10.5 7.3 1.9 7.2 1.7 5.8 9.5-5 27.4-10.4 56.3-11.1 59.5-2.9 12.9-5 26.2-5 31.3 0 8.1 1.7 9.6 11.9 10 10.3.5 18.2-1.8 21.5-6.1 4.1-5.6 7.7-12.4 10.6-20.4 6-16.3 11.1-28.7 10.7-26-.3 1.5-.2 2.5.1 2.3.3-.3 1 .1 1.6 1 1.7 2.3 25.8 2.6 28.1.3 2.1-2 8.2-19.6 13.5-38.9 2.4-8.5 4.7-16 5.2-16.6.9-1.2 81.6-1.2 170.3 0 62.4.8 176.1 1.6 274.3 1.9 77.5.2 81.4.3 82.7 2 .7 1 3 7.1 5.1 13.5 8.3 25.9 11.6 34.7 14 37.9l2.5 3.3h13.7c7.5 0 14.2-.4 14.8-.8 3.1-2 3.2-4.8 1.3-29.7-1.5-19.6-1.6-25.1-.6-25.7 1.2-.8 6.7-.1 7.8 1.1.9.8 6.1 16.6 8.9 26.6 1.2 4.4 2.6 8.9 3.1 10 .4 1.1 1.8 5.1 3 9 1.2 3.8 4.4 13.5 7.1 21.5s5.6 16.5 6.3 19 2.7 7.5 4.4 11.3c3.1 6.7 3.1 6.7 7.4 6.8 2.3 0 8.5.3 13.7.5 10.8.5 14.7-.6 15.6-4.3.4-1.4 0-6.6-.9-11.7-.9-5-2.3-14.9-3.2-22-.9-7.2-2.1-14-2.6-15.3s-1.3-6.7-1.9-12.1c-.6-5.3-1.5-12.4-2-15.7-3.2-21.6-3.7-26.1-3.1-26.8.4-.4 2.9-1.4 5.7-2.1 13.6-4 21.1-8.7 29.1-18.6l5.2-6.5 12.8-.6c7-.4 25-.7 39.9-.8 21.6-.1 27.4-.4 29-1.5 1.8-1.4 1.9-3.4 2.5-40.4.7-39.1 1.4-74.8 2.5-111.2.3-10.7.7-61.8 1-113.5 1.2-269.3 1.7-302.4 5.5-382 1.4-31.3.7-106.8-1.1-109-2-2.5-5.9-1.9-7 1.1-1.3 3.2-4.4 2.9-4.9-.6-.1-1.4-.8-2.8-1.4-3.2-1.4-.8-17.9-1.7-45-2.3-12-.2-22.2-.7-22.7-1-1.3-.8-91-2.8-181-4-27.2-.4-54.9-.8-61.5-1s-17.2.1-23.5.6-18.2 1-26.5 1c-8.2 0-15.6.4-16.5.9-1.6.8-12.9-1.7-16.5-3.7-1.4-.8-2.6-.8-3.9-.1m9.7 3.2c7.6 1.4 8.4 2.1 9.1 9.4.4 3.6.9 25.3 1.1 48.2.3 22.8.7 53.6 1 68.5.3 14.8 0 45.7-.6 68.5s-1.3 51.4-1.4 63.5c-.2 12.1-.4 24.6-.4 27.7l-.1 5.8h-16.8l.4-125.3c.2-68.8.6-132.8.8-142 .5-15.6.4-17.1-1.5-20.8-1.7-3.1-1.9-4.2-.9-5.4s1.5-1.2 3.3-.1c1.2.8 3.9 1.7 6 2m139.2.1c87.9 1.2 179.2 3.2 180.5 4 .5.3 11 .8 23.2 1 27.6.6 42.1 1.4 43.7 2.5.7.4 1.1 1.6.9 2.6-.3 1.8-1.6 1.9-27.8 1.6-15.1-.1-35.8-.7-46-1.2-24.2-1.4-56.2-2.2-136.5-3.5-22-.4-46.5-.8-54.5-1-18.3-.4-67.5-.4-75.5 0-3.3.2-11.5.4-18.2.4L589 51v11c0 10.9 0 11.1 2.6 12 1.5.6 7 .7 13.2.4 5.9-.3 17.5-.7 25.7-.7 29.1-.1 173.2 3.3 188.7 4.4l15.8 1.2-.5 2.6c-.5 2.4-.5 2.5.6.5 1-1.9 2.3-2.2 11.7-2.8 15.2-.9 42.7-.7 64.2.5 10.2.6 21.3 1.1 24.7 1.1 3.5 0 6.6.4 6.9 1 1.3 2.1.4 90.1-1.3 134.3-1.8 45-2 59-1.5 138.5.1 23.4-.2 57.8-.7 76.5-.4 18.7-.9 56.9-.9 85-.1 56.4-1.2 173.8-1.7 174.3-.2.2.2 2 .7 4 .6 2.1.8 8.3.4 14.7-.3 6-.8 24.5-1.1 41s-.8 34.8-1.1 40.7l-.6 10.8h7.5c4.1 0 8.8.3 10.4.6l3 .6.6-11.4c.4-6.2.9-24.8 1.2-41.3s.7-38.8 1-49.5c.5-19.5.9-45.3 2.1-120.5.3-22 .7-87 .9-144.5.4-137.4 2.1-240.4 4.5-273.5 1-14.1 1.1-84.4.1-96.5-.4-4.1-.5 11.8-.3 35.5.2 26-.1 49.5-.8 59.5-2.5 36.4-4.1 135.2-4.5 275-.2 57.5-.6 122.3-.9 144-1.4 88.1-1.6 103.3-2.1 121-.3 10.2-.7 32.4-1 49.5-.3 17-.8 35.6-1.2 41.3-.6 9.9-.7 10.3-2.7 9.8-1.2-.3-5.4-.6-9.5-.6h-7.3l.6-9.3c1.3-19.6 2.3-127.6 2.7-275.2.1-28.1.6-66.3 1-85 .5-18.7.8-53.1.7-76.5-.5-79.4-.3-93.5 1.5-138.5 2.3-59 2.6-134.3.6-135.6-.8-.5-3.4-.8-5.9-.7s-15.1-.5-28-1.2c-14-.7-33-1.1-47-.7-15.9.3-28.5.1-39-.9-8.5-.7-52.4-2.1-97.5-3.1-85.8-1.8-101.7-1.9-120.3-.9-15.4.8-15.2 1-15.2-11.4V52l14.3-.1c7.8-.1 15.6-.3 17.2-.4 4.1-.4 55.8-.4 73.5 0 8 .2 32.5.6 54.5 1 80.7 1.3 113.6 2.2 136.5 3.5 9.6.5 31.6 1.2 48.8 1.5l31.3.5.9-2.5c1.1-2.8 3.1-3.2 5-1 1.8 2.2 2.5 76.6 1.1 108-3.8 79.7-4.3 112.7-5.5 382-.3 51.7-.7 102.8-1 113.5-1 35.6-1.8 71.1-2.5 110.4-.6 36.8-.7 38.8-2.5 40.2-1.6 1.1-7.3 1.4-28.5 1.5-14.6.1-32.6.4-39.9.8l-13.3.6-5.2 6.5c-8 9.8-19.7 17.1-31.4 19.5-1.8.4-3.5 1-3.7 1.4-.5.7.3 6.4 3.4 27.6.5 3.3 1.4 10.4 2 15.7.6 5.4 1.4 10.8 1.9 12.1s1.7 8.1 2.6 15.3c.9 7.1 2.3 16.8 3.1 21.5 1.8 11.2 1.8 11.4-.8 13.9-2.1 1.9-3.1 2-12.8 1.6-5.8-.3-12-.5-13.7-.5-3.1-.1-3.5-.6-6.7-7.4-1.9-4-4-9.1-4.5-11.2-.6-2.2-2.9-9.2-5.1-15.5-5-13.9-9.4-27.6-16.4-51.2-1.4-4.8-3.6-11.3-4.9-14.5l-2.3-5.8-4.7.1c-2.6 0-4.9.3-5.2.6-.5.5 1.8 36.7 3 46.9.4 3.6.1 4.9-1.5 6.7-1.9 2-3 2.2-15 2.2h-12.9l-2.6-3.4c-2.9-3.8-8.2-17.8-12.5-33.1-1.6-5.5-3.7-12.1-4.8-14.6-2-4.6-2-4.6-7.9-5.3-3.2-.3-40-.6-81.8-.6-81 .1-194.7-.6-270-1.6-25.3-.4-74-.7-108.3-.9-56.6-.2-62.3-.1-63.1 1.4-.4.9-2.5 7.7-4.6 15.1-4.2 15.4-10 33.1-12.1 37.2s-4 4.7-15.4 4.2c-5.8-.2-10.9-.4-11.3-.4s-1.5-1.6-2.3-3.5-1.8-3.5-2.2-3.5-1.3 1.7-1.9 3.7c-.6 2.1-2.2 6.7-3.6 10.3s-3.7 9.6-5.2 13.5q-5.1 13.35-11.1 21c-3.7 4.8-8.9 6.5-19.3 6.5-5.5 0-7.4-.4-9.6-2.2-2.7-2.1-2.7-2.3-2.2-10.2.3-4.5 1.2-11.3 2-15.1 2.5-11.2 4.5-21.5 8.9-45.5 2.2-12.4 4.4-24.5 4.9-27 1.5-8.6 1.7-8.4-6.3-10.4-13.8-3.4-20.8-7.1-30.1-16.1-9.5-9.2-11.5-15.4-23.7-74-1.7-8.3-8.2-45.3-9-52-1.3-9.7-2.5-16.7-5.4-33-6.6-36.9-9.4-62.7-8.4-77.5.6-9.5 1.1-11.2 4.7-18.6 2.3-4.5 6.1-10.2 8.5-12.7 5.3-5.5 19.5-12.5 28.1-13.9 3.3-.5 6.9-1.2 8.1-1.4 1.9-.3 2.2-1.3 2.8-11 .7-10.4.6-10.8-2.3-17-3.6-7.7-5.6-17-4.7-21.9.6-2.8 1.8-4.4 5.7-7.1 4.3-3.1 4.9-4 5-7.2.5-23.8 3.8-53.7 7.4-67.7 4.3-16.5 16.4-33.3 32.2-44.3 16.3-11.4 46.6-17.3 96.6-18.7 17.1-.5 276.6-1.7 315-1.5l18.7.1.1-18.3c.1-10.1.3-20.6.4-23.3.2-2.8.6-54.3.9-114.5.4-60.2.9-113.3 1.2-117.9.4-7.7 2.5-14.1 4.5-14.1 1.2 0 1.7 2.6.9 4.1-.5.8-.4 1.9.2 2.6.7.9.8 4.6.4 11.1-.4 5.3-.7 41.2-.8 79.7 0 59.9-.2 69.6-1.4 68-1.1-1.5-1.4-1.6-1.4-.3 0 .9.7 1.8 1.5 2.2 1.3.4 1.4 8.1.9 60.6l-.5 60H582l.1-6.3c0-3.4.2-16.1.4-28.2.1-12.1.8-40.7 1.4-63.5s.9-53.4.6-68-.7-45.6-1-69c-.2-23.4-.7-45.1-1.1-48.2-.4-3.8-.3-6.2.5-7.2.9-1 4.8-1.4 17.4-1.5 8.9-.1 20-.5 24.7-1 4.7-.4 15.3-.6 23.5-.5 8.3.1 36.6.6 63 .9"/><path d="M629.7 79.6c-.1.2-9 .5-19.7.8-10.7.2-19.6.4-19.7.5-.2.1-.3 6.1-.3 13.5 0 9.7.4 13.7 1.3 14.3.6.4 7.5.9 15.3 1.1l14.1.4 2.9-2.7c2.7-2.5 3.2-2.6 9.6-2 3.7.4 9 .4 11.8 0l5-.7V101c0-2.1.6-4.2 1.3-4.8 1.5-1.2 33.7-2.5 35.4-1.4 2.5 1.7 3.3 5.7 3.3 16.1V122h3.8c2 0 6.5-.5 10-1 6.7-1.1 11.1.1 13.1 3.8 1.8 3.4 3.2 36.3 3 69.7l-.3 34 6.5.6c3.5.4 6.9.4 7.6.2 1.4-.6 3.6-7.6 6.3-20.5 3-14.4 8.7-36.9 13.1-51.8 2.2-7.4 5.1-17.1 6.4-21.5s2.9-11.8 3.6-16.5 1.7-9.1 2.2-9.8c.7-.9 5.1-1.2 15.7-1.2h14.7l.7-6.9c1-9.7 1.7-10.1 13.6-9.1 14 1.3 19.4 2.1 20.8 3.3.7.5 1.2 3.3 1.2 6.7v5.7l7.7.7c4.2.3 9.5.6 11.8.6 7 0 7.9 1.4 8.5 12.7l.5 9.8 12.2.9c6.8.4 13 .6 13.8.2 1.2-.4 1.5-2.6 1.6-10.3.1-5.4.4-10.9.8-12.3 1.2-4.2 4.9-5.3 13.8-4 4.3.7 13.8 1.4 21.1 1.6l13.3.4-.3-9.7-.3-9.8-10-1.3c-6.8-.9-25.1-1.4-56.5-1.6-25.6-.2-50.5-.8-55.5-1.4-4.9-.6-25-1.3-44.5-1.6-19.5-.4-44-.8-54.5-1.1-10.4-.3-31.4-.8-46.5-1.1s-30.1-.7-33.2-.8c-3.2-.2-5.9-.2-6.1 0m39.3 1.8c15.1.3 36.1.8 46.5 1.1 10.5.3 35 .7 54.5 1.1 19.5.3 39.6 1 44.5 1.6 5 .6 29.9 1.2 55.5 1.4 31.8.2 49.5.7 56 1.6l9.4 1.3.4 8.7.3 8.8-13.3-.5c-7.3-.2-16.2-.9-19.8-1.4-7.3-1.2-12.3-.6-14.1 1.6-.7.8-1.5 6.3-1.8 13.1l-.6 11.7-11.5-.3c-6.3-.1-12.1-.4-12.7-.7-.9-.3-1.3-3.1-1.3-9 0-13.1.3-12.9-18.2-14.1l-9.8-.6V101c0-3.4-.5-6.2-1.2-6.7-1.4-1.1-6.2-1.9-21.8-3.3-9.9-.9-10.6-.9-12.2 1-.9 1.2-1.9 4.8-2.3 8.5l-.7 6.5H780c-10.6 0-15 .3-15.7 1.2-.5.7-1.5 5-2.1 9.6-1.1 8.2-4.7 22.2-10.3 39.9-2.6 8.3-9.9 37.4-14.4 57.3-2.6 11.5-4 14.4-6.7 13.6-1.3-.3-4.1-.6-6.3-.6h-4l.4-32.2c.3-32.5-1.2-68.6-3.1-72.1-1.8-3.5-7.1-4.9-14.1-3.7-3.4.5-7.7 1-9.4 1H691v-10.4c0-11.4-1.1-16.1-4.1-16.9-3.2-.9-34 .3-36 1.4-1.4.7-1.9 2.1-1.9 4.8 0 3.8-.1 3.9-4.1 4.6-2.2.4-7.6.4-11.9 0-7.6-.7-7.9-.6-10.1 1.9s-2.5 2.6-14.3 2.5c-6.7-.1-13.2-.4-14.6-.8l-2.5-.7V81.5l18.9-.3c10.5-.1 19.1-.4 19.3-.6s2.9-.2 6.1 0c3.1.1 18.1.5 33.2.8"/><path d="M804.8 100.2c-1.5 1.1-1.8 4.1-2.3 23.8-.7 28.4-1.3 37-2.8 37-.9 0-.9.2 0 .8 1.3.8 1.2 16.9-.2 49.9l-.8 18.1 10.9.4c6 .2 11.7 0 12.7-.4 1.4-.7 1.7-2.3 1.7-10.1-.1-5.1.1-33.8.3-63.9l.4-54.6-4.1-.6c-12-1.7-14.1-1.7-15.8-.4m15.8 1.4 3 .6-.3 54.1c-.2 29.8-.4 58.3-.3 63.3 0 6.5-.4 9.3-1.2 9.6-.7.2-6 .2-11.7 0l-10.4-.4.8-17.6c.4-9.8.9-24.2 1-32 .2-7.9.6-19.2.9-25 .3-5.9.9-20.1 1.2-31.7.4-14.4.9-21.2 1.7-21.8 1.1-.7 8.1-.3 15.3.9m-156.3.2-8.3.3-.1 15.2c0 8.4-.2 30.9-.5 50.2-.2 19.2-.1 40.6.3 47.5l.8 12.5 12.7.3 12.7.3.7-3.8c.4-2.1.8-30.5.8-63.2l.1-59.4-5.5-.1c-3-.1-9.2 0-13.7.2m18.1 60.4c0 32.6-.4 60.6-.7 62.1l-.8 2.8-11.7-.3-11.7-.3-.7-11.5c-.5-6.3-.6-27.7-.3-47.5.2-19.8.4-42.4.5-50.2v-14.2l7.8-.3c4.2-.2 10-.3 12.7-.2l5 .2zm212.9-49.7c-.9 1-1.2 10.1-1.3 33.3 0 17.6-.5 41.1-1.2 52.3-1.1 19.8-1.2 31.9-.2 32.8.3.3 4.5.6 9.4.7l9 .3v-11.3c0-6.2.2-11.5.5-11.8s.8-13.5 1.1-29.4.9-35.2 1.3-42.9c.3-7.7.4-15.8.1-18l-.5-4-7-.8c-3.8-.5-7.7-1.2-8.5-1.6-.9-.5-2-.3-2.7.4m13.7 2.4c3 .6 3.6 1.1 4 4.1.3 1.9.3 9.8-.1 17.5s-1.1 27-1.5 43c-.4 15.9-.9 34-1.1 40.2l-.4 11.2-7.9-.3c-4.4-.1-8.2-.5-8.5-.7-.8-.9-.7-10.9.4-31.8.6-11.2 1.1-34.6 1.1-52.1.1-17.5.3-32 .6-32.3.5-.5 8 .1 13.4 1.2m-283.4-2.1c-.3.3-.6 9.7-.6 20.9 0 11.3-.5 30.4-1.1 42.6s-1.2 28.7-1.3 36.7l-.1 14.5 11.5.3c6.3.1 12.4.1 13.5-.2 2-.5 2-1.3 1.8-57.7l-.1-57.2-11.5-.3c-6.4-.1-11.8.1-12.1.4m22.6 57.3.1 56.4h-24.8l.1-14c.1-7.7.7-24 1.3-36.2s1.1-31.1 1.1-42.1c0-10.9.3-20.1.6-20.4s5.3-.5 11.1-.3l10.5.2zm124.2-54.4c-.6.4-1.9 4.8-2.8 9.8-1 4.9-2.4 11-3.2 13.5s-2.3 7.4-3.4 11-3.5 11.2-5.4 17-3.9 13.2-4.6 16.5-3.2 13.9-5.6 23.6-4.4 18.8-4.4 20.3v2.7l12.6-.3 12.7-.3 2.4-8.5c1.3-4.7 2.9-10.1 3.4-12 .6-1.9 1.4-5.3 1.9-7.5s1.3-5.2 1.9-6.7 2-6.7 3.1-11.5c1.2-4.9 3.5-13.5 5.2-19.3 7.4-25.9 11.5-45.7 9.7-47.4-.9-.9-22.4-1.8-23.5-.9m22.7 2.5c1.3 2.1-1.8 16.3-10.6 48.3-2.5 9.3-5.8 21.3-7.2 26.5s-4.2 15.3-6.2 22.5l-3.7 13-11.7.3c-11.3.3-11.7.2-11.7-1.8 0-3.1 9.4-41.4 13.6-55.5 2-6.6 5.3-17.6 7.4-24.5s4.6-16.3 5.5-21 2-8.9 2.3-9.4c.7-1.3 21.4.2 22.3 1.6m36.6-2.5c-.3.5-.9 26.4-1.3 57.5l-.7 56.5 4.8.6c2.6.4 7.2.7 10.1.7h5.3l.6-4.3c.8-6.4 2.5-64.4 2.5-89V116h-2.8c-1.6 0-6.3-.3-10.4-.6-4.5-.4-7.8-.3-8.1.3m17.6 1.3h2.7v21.2c0 24.3-1.7 83.7-2.5 88.5-.6 3.2-.7 3.3-5.8 3.3-2.9 0-7-.3-9.1-.7l-3.9-.6.7-55.5c.4-30.6 1-56 1.3-56.5.3-.6 3.3-.7 7.2-.3 3.6.3 7.8.6 9.4.6m71.3 24.7c-.4 14.8-1.2 37.4-1.8 50.3s-1.1 27.1-1.2 31.5l-.1 8 8.2.3 8.1.3.6-2.8c.8-3.8 2.6-67.8 2.6-92.9v-20.1l-5.2-.7c-2.9-.3-6.5-.6-7.9-.6h-2.7zm10.8-25.1 4.6.7v19.6c0 24.6-1.9 90-2.6 92.4-.5 1.5-1.6 1.7-7.7 1.5l-7.2-.3.1-8c.1-4.4.7-18.6 1.3-31.5s1.3-35.1 1.7-49.3l.6-25.7h2.3c1.2 0 4.3.3 6.9.6m-340.5 9.7c-.4 34.7.2 99.2.9 99.9.5.5 6 .7 12.3.6l11.4-.3 1.2-27c.6-14.9 1.3-39.6 1.5-55l.3-28-13.7-.2-13.8-.1zm26.3 18.7c-.2 15.1-.9 39.4-1.5 54l-1.2 26.5-10.4.3c-5.7.1-10.8-.1-11.2-.5-.7-.7-1.4-67-1-98.5l.1-9.6 12.8.2 12.7.2zm83.4-16.8c-5 .4-9.3 1.1-9.7 1.5-.4.5-.9 22.7-1.3 49.5-.6 46.2-.5 48.7 1.2 49.2 3 1 21.3.9 22.2 0 .6-.6 1.2-3.9 1.4-7.4.2-3.6.8-7.3 1.1-8.3.4-.9.3-2.3-.2-3-.6-.6-1.1-9.5-1.2-19.7 0-10.2-.4-26.4-.8-36-.3-9.6-.5-19.2-.4-21.2.2-5-1.4-5.6-12.3-4.6m11.2 5.2c-.1 1.7.2 10.7.5 20.1.9 23.7 1.1 54.7.2 56.6-.3 1-.2 2 .4 2.4.7.3.8 0 .5-.9-.4-.9-.1-1.6.6-1.6.8 0 1 .9.5 2.7-.4 1.6-1 5.5-1.4 8.8-.6 5.6-.8 6-3.6 6.5-1.6.3-6.6.3-11 0l-8-.5.4-48c.2-26.4.7-48.4 1.1-48.8 1.1-1.2 17.3-2.4 18.7-1.4.7.5 1.2 2.3 1.1 4.1m148.1 10.3c0 2.6-.2 7.3-.4 10.3s-.6 13.4-.9 23-.9 25.3-1.2 34.9c-.5 14.1-.4 17.5.7 18.2 1.8 1.1 26.6 1.2 27.3.1.5-.9 2.2-68.4 1.9-81 0-4.1-.5-7.7-.9-8.2-.5-.4-6.6-1.1-13.6-1.4l-12.8-.7zm25.5-1.6c.5.4.9 3.9 1 7.6.1 13.6-1.5 78.6-2 79.5-.7 1.2-25.1 1-25.9-.2-.5-.9 1-58.7 2-74.5.2-3.3.4-7.9.4-10.3l.1-4.2 11.8.6c6.4.3 12.1 1 12.6 1.5m-93.3 24c0 1.4-1 5.9-2.1 10-2.9 11.1-7.5 28-10.9 40.4-1.7 6-3.1 11.6-3.1 12.2 0 1 2.4 1.3 8.5 1.3h8.5v-11.3c0-6.1.2-15 .5-19.7.2-4.7.7-13.5 1-19.5.3-6.1.8-12 1.1-13.3.4-1.4.2-2.2-.6-2.2-.7 0-1 .7-.7 1.5.4.8.2 1.7-.3 2s-1.1-.5-1.3-1.7c-.4-2.1-.4-2.1-.6.3m.6 33.1-1.1 29.8h-7.3c-4 0-7.3-.4-7.3-.9s1.5-6.2 3.4-12.8c1.8-6.5 4.3-15.6 5.6-20.3 1.2-4.7 2.8-10.3 3.5-12.5.8-2.2 1.7-5.8 2.1-8 .6-3.9 1.4-5.9 1.8-5.3.2.2-.2 13.7-.7 30m-201.7 45v10.5l7.3.6c3.9.4 26.8.7 50.7.7 23.9.1 48.5.3 54.5.5 20.7.8 131 2.5 180.1 2.7l49.1.3.7-9.9c.4-5.4.6-9.9.4-10.1-.3-.3-24.6-.7-104.3-2-16.5-.3-55.4-.8-86.5-1.1s-56.7-.7-57-.9-21.8-.6-47.8-1l-47.2-.8zm95-7.7c.3.2 25.9.6 57 .9 82.7.9 189.3 2.6 189.8 3.1.2.1 0 4.2-.4 9.1l-.6 8.9-48.7-.3c-48.7-.2-159-1.9-179.6-2.7-6-.2-30.8-.4-55-.5-24.2 0-46.8-.4-50.2-.7l-6.3-.6v-19l46.8.8c25.7.4 46.9.8 47.2 1m-95 27c-.4 1.1-.9 9-1.1 17.5l-.4 15.5 9 .8c12.7 1.1 12.9 1.1 24.3.9l10.2-.2v-10.4c0-13.7-.5-13.4 17.7-12.9 12.1.4 14 .6 15.4 2.3 1.5 1.8 1.7 5.3 1.4 32l-.3 30 2.2.4c3 .6 37.8 2.7 38.2 2.4.5-.6 2.3-24.8 2.8-37.3.5-15.9.2-15.6 18.4-15.4 17.3.2 17.2.1 17.2 13.8v9.9l3.8.6c16.1 2.3 21.3 2.8 21.9 2.3.3-.4.9-5.8 1.1-12 .2-6.1.9-11.8 1.4-12.5.7-.8 4.7-1.2 13.3-1.2h12.3l.6-3.1c.3-1.7.6-4.4.6-5.9 0-4.8 1.4-5.1 16.8-4.2 18.9 1.1 18.2.4 18.2 17.9V308l6.3.2c3.4.1 10 .1 14.5 0 5.4-.2 8.9.1 9.8.9 1.2 1 1.4 6.9.9 39.8-.5 37.6-1.1 53.8-2.1 59.3-.5 2.3-.2 2.8 1.5 2.8 1.3 0 2.1-.7 2.1-1.8 0-.9 1.2-6 2.5-11.2 1.4-5.2 4.7-20.3 7.5-33.5 2.7-13.2 6-29 7.3-35 1.3-6.1 3.2-15.9 4.2-21.9 2.6-15.3 2.2-15 17.5-13.7 6.9.6 15.1 1.2 18.3 1.4l5.7.4.1-12.1c.1-12.2 0-16.8-.6-17.4-.2-.2-29.7-.5-65.7-.7-35.9-.2-75-.6-86.8-.9-55.2-1.4-73.9-1.7-121-2.2-27.8-.3-54-.6-58.4-.7-7-.2-7.9 0-8.6 1.8m67-.1c28.3.3 62.1.8 75 1.1s33.6.8 46 1.1 51.5.7 86.8.9c35.4.2 64.5.5 64.7.7.6.6.7 4.3.6 15.8l-.1 11.5-5.2-.3c-2.9-.1-11.1-.7-18.2-1.3-10.7-.9-13.1-.9-14.2.3-.8.8-3.2 11-5.4 22.8s-4.5 22.8-5 24.5c-.5 1.6-2.5 11.1-4.5 21-4.6 23.3-10.8 48.5-11.8 48.5-.5 0-.6-.8-.3-1.8.9-3.4 1.6-22.4 2.2-60.4l.5-38.7-2.1-1.1c-1.3-.7-4.8-1-8.8-.7-3.6.3-9.9.3-13.9 0l-7.3-.6v-13.3c0-13.3 0-13.4-2.6-15.1-2-1.3-6.2-1.9-17.1-2.5-16.3-1-17.3-.7-17.3 5.1 0 8.2.2 8.1-12.9 8.1-7.9 0-12.2.4-13.3 1.2-1.3 1-1.7 3.7-2 12.5-.2 6.1-.6 11.5-1 11.9-.6.6-6.7-.1-20.5-2.2l-3.3-.5v-9.8c0-14.1.6-13.6-18.4-13.6-12.9 0-15.8.3-17.1 1.6s-1.7 4.4-2.1 14c-.5 13.6-2.2 36.1-2.8 36.7-.2.2-6.8-.2-14.7-.8-7.9-.5-16.4-1.1-18.9-1.3l-4.5-.2v-30.7c0-26-.2-31-1.5-32.2-1.1-1.1-5.2-1.6-16.4-1.9-19-.6-18.6-.8-18.6 13.3v10l-9.7.2c-11.1.2-11.6.2-23.3-.9l-8.5-.8.3-14c.4-20.4-.2-19 8.5-18.8 3.9.1 30.4.5 58.7.7"/><path d="M640.2 281.2c-.8 1.1-1.2 9.3-1.2 28.4-.1 14.8-.1 27.5 0 28.1 0 1 2.9 1.3 11 1.3h11l.1-3.8c0-2 .2-15.1.4-29l.4-25.2h-7.3c-4.1 0-8.7-.3-10.3-.6-1.9-.4-3.3-.1-4.1.8m13.9.8h6.8l-.4 24.7c-.2 13.7-.4 26.3-.4 28.1l-.1 3.3-10.1-.3-10.1-.3.1-27.4c.1-15 .4-27.8.7-28.3.4-.6 2-.7 3.6-.4 1.7.3 6.1.6 9.9.6m152.4 23.8c-.4 12.1-.4 40 0 61.9.6 34.8.9 40 2.3 41 1 .8 4.9 1.3 10.4 1.3h8.8l.2-20.3c.1-11.1.2-27.9.3-37.2.1-9.4.3-28.1.5-41.7s.1-25.1-.3-25.4c-.4-.4-5.4-.9-11.1-1.2l-10.4-.5zm19.4-19.9 2.5.7-.4 24.4c-.2 13.5-.5 32.1-.5 41.5-.1 9.3-.2 25.9-.3 36.7L827 409h-8.2c-4.6 0-8.8-.4-9.4-.8-1.6-1-2.9-73.9-1.9-102.2l.7-21 7.7.1c4.2.1 8.7.4 10 .8m-105.6 9.9-3.1.3-.6 10.2c-1.7 31.1-1.8 36.7-.4 37.1 3.9 1.1 20.1 3.7 20.5 3.2.9-.8 2.1-16.1 2.9-34.4.6-13.5.5-16.2-.7-16.3-3.3-.4-15.7-.4-18.6-.1m18.1 1.1c1.3.2-1 47.1-2.4 48.4-.3.3-2.7.1-5.5-.4-2.7-.5-7.2-1.2-9.8-1.5l-4.8-.7.6-13.6c.3-7.5.8-17.7 1.1-22.8.6-9 .6-9.2 3.2-9.5 2.5-.3 15.5-.3 17.6.1m42.2 1.3c-.8 2.4-1.6 11.4-2.1 24.3-.3 7.1-1 20.1-1.6 28.8-1.1 17-.9 18.9 2.6 22.7 5.2 5.8 7.2 10.1 12.1 25.7 2.7 8.7 3.1 9.3 5.6 9.3h2.8l-.2-55.1c-.1-39.3-.4-55.2-1.2-55.4-.6-.2-4.8-.6-9.4-.9-6.2-.5-8.3-.3-8.6.6m17 1.3c.8.2 1.1 15.9 1.2 54.4.1 51.8.1 54.1-1.7 54.1-1.4 0-2.4-1.9-4.5-8.8-5-16-6.8-19.9-13.7-28.3-2-2.5-2-3-1-19.5.6-9.3 1.3-22.3 1.6-28.9.5-12.5 1.4-22.5 2.2-23.8.4-.6 13.2 0 15.9.8"/><path d="M793.6 391.2c-.2.7-.7 2.1-1 3.1s-.2 1.6.3 1.3 1.1-1.7 1.3-3.1c.5-2.6 0-3.5-.6-1.3m107.3-90.5c-2 .5-3 3.9-6.5 22.3-1.4 7.4-3.6 18.2-4.9 24s-3.4 15-4.5 20.5c-1.2 5.5-3.7 17.1-5.7 25.7-1.9 8.7-3.3 16.4-3 17.2.5 1.2 2.7 1.4 11.9 1.3l11.3-.2 1.1-5.5c1.8-8.9 4.2-19.6 7.4-33.5 7.2-31 15-66.6 15-68.4 0-2 0-2-17-3.4-1.9-.2-4.2-.2-5.1 0m15.9 1.9c3.6.4 5.2 1 5.2 2 0 1.4-9 42.1-15 67.9-1.7 7.1-4.2 18.4-5.6 24.9-1.4 6.6-2.7 12.3-3 12.8s-5.2.8-11 .7c-8.4-.1-10.4-.4-10.4-1.6 0-.8 1.2-6.5 2.6-12.6 4.9-21.1 19.4-89.6 19.4-91.9 0-.4.7-1.3 1.5-2.1 1.4-1.5 2.7-1.5 16.3-.1M590 304.9c-.5 1.1-1 8.8-1 17.4v15.5l3.8.6c2 .2 6.1.4 9.1.3 4.7-.2 5.5-.5 6.3-2.7 1.2-3.1.5-29.7-.8-30.9-.5-.5-4.4-1.1-8.6-1.5-7-.5-7.8-.4-8.8 1.3m16.5 1.3c1.3 1.2 2 27.1.7 29.4-1 1.9-9.1 2.9-14.4 1.8l-2.8-.6v-15.2c0-10.1.4-15.6 1.1-16.3 1.4-1.4 13.8-.6 15.4.9m322.7 2.5c-1.5 8-6.9 32.1-9.3 41.8-1.1 4.4-2.2 9.1-2.4 10.5s-.8 4.3-1.4 6.5-1.8 7.1-2.7 11c-.9 3.8-1.9 7.4-2.2 8-.4.5-.7 1.9-.8 3s-.7 4.9-1.3 8.5c-.7 3.6-1.5 8.1-1.8 10.1l-.5 3.6 6.8.6c3.8.4 9.7.7 13 .7h6.1l.7-8.8c.6-8.6.5-79.9-.2-94-.5-9.1-2.5-9.9-4-1.5m3.6 47.3c.1 21.7 0 43.3-.4 47.9l-.7 8.4-11.5-.6c-6.3-.4-11.7-.9-12-1.1-.2-.3.3-4.3 1.2-8.9 1-4.7 1.9-9.5 2-10.8.2-1.3.6-3.1.9-3.9s1.3-4.7 2.2-8.5c.9-3.9 2.1-8.9 2.7-11.3.6-2.3 1.2-5 1.3-6 .1-.9.4-2.4.8-3.2.9-2.1 3.3-12.8 5.7-24.8 1.1-5.7 2.6-12.9 3.4-16 .8-3.2 1.8-7.5 2.2-9.7.8-4 .8-3.9 1.4 2.5.3 3.6.6 24.3.8 46m-317.6-34.3.3 16.8 5 .5c2.8.3 6.6.3 8.5 0l3.5-.5.3-14.5c.4-20.2 1-19-9.3-19H615zm16.3.3v15.5l-3 .5c-1.6.3-5 .3-7.5 0l-4.5-.5-.3-15.8-.3-15.8 7.8.3 7.8.3zm204-6c-.4.6-.9 21.8-1.2 47.2-.4 38-.3 46.2.8 46.9.8.5 6.7.9 13.2.9H860v-9.8c0-5.3.3-26.6.6-47.3l.6-37.6-2.3-.6c-4-1.1-22.7-.8-23.4.3m23.4.9c1.1.7 1.2 6.9.7 36.7-.3 19.8-.6 40.5-.6 46.2v10.3l-11.7-.3-11.8-.3.1-45.3c.1-24.9.5-45.9.8-46.7.4-1.2 2.6-1.5 10.8-1.5 5.7 0 10.9.4 11.7.9m-113.3 7.8c-.3 2.7-.8 9.6-1.2 15.5-.5 9-.4 10.8.8 10.8 2 0 19.4 8.6 20.2 9.9.4.6 1.5 1.1 2.5 1.1 1.6 0 1.9-1.9 3.1-18.6.8-10.9.9-18.9.4-19.4-1-1-17.9-4-22.3-4-2.7 0-2.9.3-3.5 4.7m15.3-2.1c4.7.9 9 2 9.5 2.4 1.1 1.1-1.3 36-2.5 36-.4 0-1.1-.5-1.4-1-.8-1.3-12.8-7.3-17.8-9l-3.8-1.2.6-10.2c1-17.7 1.2-18.6 4.2-18.6 1.5 0 6.5.7 11.2 1.6M501 345.1c-10.1.7-70.4 1-162 .7-65.1-.2-120.2-.1-128 .1-3 .1-11.8 1-19.5 2-7.7 1.1-14.7 1.9-15.5 1.9-4.8 0-19.4 3.1-33.4 7.2-2.2.7-7.8 3.8-12.5 7-18.3 12.3-28.4 31.1-32.1 59.5-.6 4.4-1.5 11.1-2 15-.5 3.8-1 12.3-1 18.7 0 13 .3 13.5 6.3 10.3 3.4-1.8 14.8-3.5 29.7-4.5 6.3-.4 16.7-1.7 23-2.8s17.4-2.5 24.5-3.2c7.2-.6 15.9-1.8 19.5-2.6s8.4-1.9 10.7-2.4c2.3-.6 11.7-1.7 21-2.5 9.2-.9 20.8-2.2 25.8-3.1 11-1.8 30.2-2.9 33.9-2 2.2.5 3.4 2.1 6.1 8 4.4 9.4 14 40 16 50.8.9 5 4 5.3 4.9.5.4-1.7 2-6 3.7-9.5 2.9-6 3.1-7.2 3.9-24.5.9-18.1 3.1-32.9 6.9-46.2 1.1-3.9 2.1-7.3 2.1-7.7 0-.3 1.2-2 2.6-3.7 2-2.4 3.4-3.1 6.2-3.1 3.3 0 4.6 1 14.6 11.2 10.4 10.8 15.3 16.6 22.2 26.5l3.1 4.4 21.9.3c16.4.2 23.6.7 28.5 1.9l6.6 1.7 10.9-10.8c11.3-11.2 27.5-24.7 33.1-27.6 6.7-3.4 11.1-1.2 13.5 6.6 1.9 6.2 1.6 50.4-.4 61.8-1.5 8.4-1.5 8.6 1.3 19.5 1.6 6 2.9 12.1 2.9 13.4 0 2.1.3 2.3 3.8 1.6 4.9-.9 21.3-3.1 38.7-5.1 27.3-3.1 70.5.6 94.9 8.2 2.8.9 7.4 2.2 10.1 2.9 23.1 6.1 56.7 26.1 70.5 42 4.6 5.4 17.4 24.6 20.9 31.7.9 1.7 2.8 3.2 5 3.9 2 .6 4.1 1.5 4.6 1.9 1.3.9 13.6 4.3 14 3.8.1-.2.8-7.5 1.5-16.3 2.2-30.6 6.3-46.2 15.2-58.1 2.3-3 6.1-6.7 8.4-8l4.2-2.5.7-26.6c1-36.9-.1-56.4-5-83.3-1-5.3-6.1-21-8.8-27.1-5.7-12.9-19.8-23.8-37.3-28.9-26.3-7.6-46.2-9.7-100.9-10.4-19.2-.3-41.1-.8-48.5-1.1-7.4-.4-23.2-.8-35-1s-27.1-.5-34-.7-16.8 0-22 .3m56.4 1.5c11.6.1 27.2.5 34.6.9 7.4.3 29.3.8 48.5 1.1 53 .7 73.2 2.7 95.5 9.1 4.7 1.4 9.9 2.8 11.5 3.2 8.3 2.1 25 16.2 29.4 25 2.7 5.2 8.1 20.8 9.1 26.1 5.8 30.7 6.8 49.4 5.3 92.2l-.6 18.8-4.2 2.5c-13.1 7.6-20.8 29.6-23.5 66.5-.7 8.5-1.3 15.6-1.4 15.7-.3.3-11.6-3.2-16.2-5.1-3.2-1.3-4.8-2.8-6.9-6.9-4.9-9.1-14.9-24-20-29.7-11.5-13.1-35.1-28.5-55-35.7-3.8-1.4-7.4-2.9-8-3.3-1.4-1.1-25.5-7.5-35-9.4-15.4-3-31.2-4.7-47.5-5.2-16.5-.6-25.5.1-55.5 4.1-6.6.9-12.9 1.7-13.9 1.8-1.6.2-2.4-1.6-5.1-12.3l-3.2-12.5 1.5-8.5c1-5.8 1.5-16.3 1.6-33 .1-20.9-.2-25.4-1.7-30.2-1-3.3-2.6-6.2-3.7-6.8-2.8-1.5-7.7-1.2-11.3.6-5.6 2.9-21.8 16.4-33 27.5l-10.8 10.7-5.7-1.5c-4-1-12.5-1.6-27.7-1.9l-22-.4-3-4.4c-6.1-8.9-11.5-15.4-22.1-26.4-10.8-11-11-11.2-15.5-11.2-7 0-8.1 1.7-13.3 20.5-3 11.1-4.6 22.9-5.6 41.1-.8 16.6-1.1 18.5-3.5 23-1.4 2.7-3.1 6.8-3.7 9.1-1.2 5.1-2.4 5.5-3.3 1-2.5-11.8-12.4-43.4-16.3-51.9-2.8-6.2-3.3-6.7-6.8-7.4-4.8-.9-22.4.2-33.9 2-5 .9-16.6 2.2-25.8 3.1-9.3.8-18.7 1.9-21 2.5-2.3.5-7.1 1.6-10.7 2.4s-12.3 2-19.5 2.6c-7.1.7-18.2 2.1-24.5 3.2s-16.7 2.4-23 2.8c-15.9 1.1-26.5 2.7-30 4.5-1.6.8-3.4 1.5-4 1.5-1.5 0-1.3-20.3.5-33.3 4.5-33.2 7.4-41.9 19.2-56.7 6.2-7.8 18.9-17.2 27.3-20.2 7.7-2.8 29.7-7.5 32.2-7 .4.1 7.2-.7 15-1.8 7.9-1 16.6-1.9 19.3-2 10.7-.2 75.6-.3 128.5-.2 86.2.3 146.3 0 172-.7 12.9-.3 23.9-.4 24.4-.2s10.4.5 22 .7m240.1 80c.4 5.4 1 10.2 1.4 10.7.8.8 76.7 3 77.9 2.3.4-.2 12.8 0 27.6.5 14.7.6 27 .9 27.2.7.1-.2.6-4.5 1-9.5.7-9.1.6-9.2-1.7-10.2-1.3-.5-22-1.4-45.9-2s-53.6-1.4-65.9-1.8l-22.3-.6zm88-6.5c28.3.8 44.5 1.6 45.4 2.3 1 .8 1.2 2.8.7 9-.4 4.4-.8 8.2-1 8.3-.2.2-12.2 0-26.7-.6-14.5-.5-26.7-.7-27.1-.5-1.2.7-76.1-1.5-76.9-2.3-.4-.5-1-4.8-1.4-9.7l-.7-8.9 21.8.6c12.1.4 41.7 1.2 65.9 1.8"/><path d="M339.6 425.7c-4.4 13.9-7.5 40.4-7.4 62 0 2.5-.7 5.2-1.9 7-5.4 7.7-8.4 17.5-8.7 28.2l-.1 4.5 7 1.8c3.8 1 7.8 2.7 8.9 3.8 1.9 1.8 1.9 2.1.5 3.6-1.4 1.3-2.5 1.4-7.4.5-9.3-1.7-9.8-1.6-9 2.1.4 1.8 1 3.6 1.4 4s3.8.9 7.6 1.1c6.2.2 7 .5 7.3 2.3.3 2.4-3.3 4.4-7.8 4.4-3.9 0-3.8 1.4.5 7.2 4 5.4 11.8 11.9 18.4 15.3 5.6 2.8 8.4 5.7 7.9 8.2-.8 3.9-12.2.7-20.4-5.8-2-1.6-4.4-2.9-5.2-2.9s-6.3 4.6-12.1 10.3c-5.8 5.6-13.7 12.4-17.4 15-7.3 5.1-19.1 11.7-20.8 11.7-.6 0-4.7 1.8-9.2 3.9-4.5 2.2-14.4 6.7-22 10.1-16.1 7.4-20.1 9.8-30.8 18.7-9.6 8-13.5 13.8-14.5 21.3-.4 3-1.1 6-1.6 6.7-.9 1.2.8 3 1.9 1.9.4-.3.1-.6-.7-.6s-.9-.4-.3-1.3c.6-.6 1.3-3.4 1.7-6.1.9-7.1 5.3-13.3 15.9-22.1 9.4-7.8 24.7-16.3 42.2-23.4 4.4-1.8 9.9-4.4 12.2-5.7s4.7-2.4 5.3-2.4c2 0 14.5-6.6 20-10.6l5.2-3.8 1.7 2.3c1.3 1.7 1.9 1.9 2.9.9.6-.6 1.2-1.7 1.2-2.2 0-.6-.4-.5-.9.3-.8 1.2-1.1 1.2-2.3 0s.3-3 10.4-12.8c11.6-11.1 11.9-11.3 14.1-9.7 6.4 4.7 10.4 6.9 14.6 8.2 6 1.8 8.7 1.8 9.5-.2 1.7-4.5-.3-7.2-8.9-11.8-6.6-3.5-13.8-9.7-17.6-15.2l-3-4.4h3c1.7 0 4.2-.5 5.6-1.2 2.1-.9 2.5-1.8 2.3-4.2-.3-2.8-.6-3.1-3.8-3.2-10.8-.3-11-.3-12.1-3-.5-1.5-.7-2.9-.5-3.2.3-.2 3.4.1 7.1.7 7.6 1.4 10.8.3 10.3-3.2-.3-2.5-4.4-4.7-12.3-6.9-5.8-1.6-6.3-2.7-4.5-10.7 2.5-11.3 3-12.8 6.5-18.5l3.5-5.9.6-16.3c.7-22.2 2.9-38.3 6.9-50.1 1.5-4.7 1.9-5.1 3.4-4 4.9 3.5 21.6 22.3 26.6 30l5.7 8.8 8.6-.8c14.9-1.4 34.7-.6 44.7 1.7 5 1.2 10.2 2.4 11.6 2.6 2.3.5 3.7-.7 12-10.1 5.2-5.9 12.3-13 15.8-15.8 10.3-8.4 17-13.1 17.7-12.4 2.1 2.1 1.1 40.4-1.6 61.9-.9 6.8-.7 8.4 1 13.2 4.5 12 6.8 33.4 3.8 36.4-.7.7-3.7 1.2-6.7 1.3-3.1 0-8.1.6-11.1 1.2-4.6 1-5.6 1.6-5.8 3.5-.7 4.6 1.2 5.3 12 4.6 11-.8 11-.7 7.8 5.6-2.3 4.5-3.9 4.8-10.5 2.5-6-2.2-9.4-1.9-10.4.7-1.4 3.6.9 6.2 6.7 7.3 2.8.5 5.4 1.3 5.7 1.7.9.9-9.8 9.1-16.5 12.7-7.6 4.1-9.5 6.3-8 9.1 1 1.9 1.8 2.2 5.8 1.8 7.1-.7 15.8-5.5 23.8-13l7.1-6.8 8.4 4.1c10.6 5.2 13.6 6.1 16 4.8 2.2-1.1 2.5-5.1.7-6.7-.7-.6-5.1-2.7-9.8-4.7-11.3-5-11.2-4.8-9-9.4 1-2 2.2-5 2.6-6.5.3-1.5 1.3-3 2.1-3.3s6 .2 11.5 1.2c10.6 2 13 1.6 13.6-2.2.4-3-1.5-4-10.8-5.8-4.7-.9-9.5-1.8-10.8-2.1-2.1-.4-2.3-1-2-5.1l.3-4.7 6-1.2c3.3-.7 12.1-2 19.5-2.9s16.4-2 20-2.5c15-2.1 55.6.7 74 5.1 4.7 1.1 11.4 2.7 15 3.5 21.1 5 44 16.4 61.5 30.6 8.8 7.2 20.9 20.9 23.9 27.2.8 1.7 3.1 5.6 5.1 8.6 1.9 3 3.5 5.9 3.5 6.6 0 .6 1.1 2.3 2.4 3.7 1.7 1.8 6.9 4 19.2 8 9.3 3.1 18.9 6.4 21.4 7.5 9.7 4.2 14.7 6.7 19.8 9.9 2.9 1.8 5.6 3.3 6.1 3.3 2.2 0 17.2 15.6 22.3 23.1 13 19.4 16.3 29.3 17.4 51.7 1.5 32.7-9.7 66.8-28.5 86.5-6 6.3-20.3 16.8-28.8 21.1-9.5 4.7-21.1 7.5-33 7.7-10.7.3-12.3-.1-16.7-3.6-1.5-1.2-1.7-1.7-.7-2.9 1.4-1.6.7-3.6-1.2-3.6-.9 0-.9.2 0 .8.8.5.9 1.3.3 2.2-.7 1.1-1.3.6-2.5-2.2-2-4.9-1.9-6.3.7-11.5 2.9-5.8 10.3-11.3 21.8-16.3 11.3-4.9 20-9.3 25.6-13.1 10-6.8 17.5-19 21.5-34.9 1.9-7.5 2.1-10.3 1.6-23.5-.4-12.9-.9-16.1-3.2-22.5-1.4-4.1-2.9-8.4-3.3-9.5-1.2-4-7.1-12.1-12.9-17.8-5.6-5.4-19.9-14.7-22.7-14.7-.7 0-4-1.4-7.4-3-3.4-1.7-6.4-3-6.7-3-.2 0-3.3-1.4-6.8-3-7.4-3.6-8.5-5.2-13.3-18.8-4.2-11.7-5.6-13-9.5-9.1-1.9 1.9-2.1 2.9-1.5 8.6.9 8.4 4.9 16.4 12.5 24.8 11.5 12.7 11 21.8-3.3 53.5-3.1 6.9-7 15.2-8.7 18.5-5.8 11.2-12.7 25-16.2 32.5-4 8.7-9.5 16.6-10.6 15.4-.5-.5-1.4-3.7-2.1-7.1-1.3-6.7-3-8.9-5.6-7.9-1.4.5-1.6 1.9-1.2 9.2.4 8.3.4 8.6-1.9 9.7-3.7 1.7-4.8-.4-5.2-9.8-.3-7.5-.5-8.5-2.2-8.5-2.9 0-5.2 4.5-5.3 10.6s-1.2 6.5-3.8 1.3c-2.2-4.2-2.3-10.9-.3-17.7 1.9-6.1 8.8-20.6 13.2-27.5 7.2-11.1 12.7-23.5 13.1-29.4.6-9.6-2.7-13-18.3-18.8-3.8-1.5-9.1-3.3-11.8-4-6.2-1.7-18.4-6.8-24.7-10.3-12.4-6.9-22-18.8-22-27.3 0-5.8-1.5-8.9-4.4-8.9-4.7 0-5.8 5.6-3.1 16.4 2.4 9.5 3.5 11.8 7.8 16.3l4 4.2-3.9 1c-14 3.6-18.2 4.4-29.4 5.7-16.1 1.8-40.7 1.7-58.5-.1-7.7-.8-17.1-1.7-21-2.1-9.7-.8-9.9-.9-8-3.8 4.1-6.3-1-11.3-6.4-6.3-6.4 5.9-34 22.2-53.6 31.7-6.6 3.2-15.3 7.4-19.4 9.4s-7.8 3.6-8.2 3.6c-.9 0-6.2 2.3-20.4 8.8-7.1 3.3-9.4 5.1-20.5 16.3-11.8 11.8-18.1 16.9-21 16.9-1 0-1.2-1.8-.7-7.5.6-8 .1-9.1-3.8-8.1-1.8.5-2.7 1.8-3.9 6-.9 3-1.6 7.3-1.6 9.5 0 4-.1 4.1-3.3 4.1-1.8 0-4.1-.6-5.2-1.4-2.5-1.8-1.6-7.2 2.5-15 1.7-3.2 2.9-6.5 2.6-7.2-.8-2.1-4-1.7-7.1.8-2.7 2.1-7.5 11.3-7.5 14.6-.1 3.8-3.2-4.2-3.2-8.4-.2-7.8 4.7-15.6 17.4-28 12.5-12.1 20.8-18 53-37.3 11.3-6.8 23-14.6 26.2-17.3 5.5-4.9 9.2-10.9 8.2-13.5-.8-1.9-4.7-1.5-7.6.7-4.5 3.7-19.9 14-20.7 14-.5 0-4.6-1.6-9.1-3.5-11.5-4.8-29.9-10.5-34.1-10.5-3.8 0-13.1 2.5-34.6 9.1-7.1 2.3-15.9 5-19.5 6.1-9.7 3-22.9 8.7-28 12.1-11.1 7.4-28.9 17.7-30.5 17.7-.9 0-.5-5 .6-9.6 1-3.8.9-4.8-.3-6.1-1.3-1.2-2-1.3-3.8-.3-2.5 1.4-5.9 8.3-6 12.2 0 5.7-1.6 6.9-6.5 4.6-3.4-1.5-3.2-3.9 1.1-11.6 3.7-6.8 4.1-10.5 1.1-11-2.3-.5-11.7 8.8-11.7 11.4 0 1.5.4 1.2 1.9-1.1 1-1.7 3.5-4.6 5.5-6.4 2.8-2.7 3.9-3.2 4.8-2.3s.4 2.7-2.5 8.1c-4.7 8.8-4.9 12.5-.6 14 6.2 2.1 7.8.9 7.9-5.7 0-2.6 3.2-9.3 5.3-11 2.5-2.1 4 .9 2.8 5.5-1.5 5.2-1.4 10.3.2 10.3 2.6 0 19.8-9.6 31.2-17.4 7.3-5 28.2-13.6 36.1-14.9 1.6-.2 4.6-1.1 6.6-2 2-.8 11-3.6 19.9-6.2 12.6-3.7 17.2-4.6 20.8-4.2 5.6.6 23.1 6.3 32.5 10.6 3.8 1.7 7.7 3.1 8.8 3.1 1.8 0 12.4-6.7 21-13.4 2.1-1.6 4.4-2.6 5.3-2.2 1.9.7 1.9 1.4-.4 5.2-3.2 5.3-12.1 11.9-32.1 24-34.2 20.5-41.3 25.6-54.6 38.8-10.4 10.4-12.5 13-14.4 18.1-2.6 7-2.8 14.6-.5 18.1 1.7 2.6 3.5 2.4 3.5-.4.1-2.7 5.3-11.4 8.2-13.5 3.7-2.8 5.4-1.4 3 2.6-2.5 4.4-5.2 12.5-5.2 15.9 0 3.2 2.8 4.8 8.6 4.8h3.4v-4.8c0-8.4 3.9-16.6 6.9-14.7.5.2.6 3.8.3 8-.4 7.3-.4 7.5 1.8 7.5 4 0 9.2-4 21.5-16.5 12.2-12.4 19.8-17.7 30.8-21.1 2.1-.7 4.9-1.9 6.2-2.8s2.9-1.6 3.5-1.6c2.3 0 42.9-19.9 55.2-27.1 11.2-6.5 24-14.9 27-17.7 1.6-1.4 3.3-2.2 4.2-1.9 2.1.8 2 4.6 0 6.8-3 3.3-1.1 4.5 7.8 5.3 4.5.3 10.1.8 12.3 1.1 26.2 3 48.9 3.3 69 1 13-1.5 30.9-5.5 32.7-7.3.6-.6-.7-2.8-3.5-5.9-3.6-4.1-4.8-6.6-6.6-13.2-2.5-9.3-2.5-14.9.2-16.5 2.5-1.5 4.7 1.5 4.7 6.4 0 11.3 9.7 23.1 25.3 30.8 4.7 2.3 9.3 4.2 10.1 4.2s1.7.4 2 .9c.3.4 2.7 1.4 5.3 2.1 2.7.7 9.7 3.1 15.7 5.3 20.1 7.4 22.7 13.3 13.9 30.8-2.5 5.2-6.2 11.8-8.1 14.8-9.4 14.9-15.7 31.9-15 40.4.5 6.5 2.7 11.2 5.2 11.2 1.5 0 1.8-.9 2-5.1.1-4.9 2.6-10.4 4.6-10.4.6 0 1 2.6 1 5.9 0 11.5 1.7 14.3 7.3 12.2 2.5-1 2.5-1.1 2-8.5-.3-4.1-.3-8.2.1-9.1 1.1-2.8 3.3 0 4.6 5.8 1.9 8.2 2.1 8.7 3.6 8.7 1.8 0 7-7.1 9.6-13 4.6-10.3 14.8-30.9 15.7-31.4.5-.3 2.4-4.1 4.1-8.4 1.8-4.2 4.5-10.4 6-13.7 11.1-23.7 13.3-32.7 11-43.8-.9-4.7-2.1-6.7-7.3-12.5-7.4-8.3-11.4-15.8-12.3-23.2-.5-4.7-.3-5.9 1.5-8 2-2.4 2.2-2.4 3.5-.7.8 1 2.6 5.5 4.1 10 3.7 11.2 6.2 15.3 10.4 17.3 7 3.4 23.4 10.4 24.1 10.4 2.5 0 16.9 9.5 22.1 14.5 13.6 13.2 18.5 25.6 19.6 49.1.7 16.8-.7 25-6.6 37-7.5 15.5-15.6 21.9-42.1 33.5-14.7 6.4-21.7 12.5-23.5 20.7-1.4 6.5 3.2 14.9 9.5 17.5 1.4.5 7.2.9 13 .8 11.7-.2 22.4-2.5 32.8-7.2 14.2-6.3 33.9-22.9 39.9-33.5 13.8-24.2 20.1-49.7 18.8-76.3-.6-14.5-1.4-19.1-4.8-28.6-4.2-12-14.8-28.4-24.4-37.7-10.8-10.5-31.4-21.1-56.3-28.8-18.4-5.8-20.3-6.8-23.5-13.2-8.9-18-19.6-31.6-32.7-42-21.8-17.3-40.1-25.5-74.3-33.2-13.6-3.1-19.8-4-37.5-5.5-19.8-1.8-50.2.1-75.5 4.7l-10 1.8-.3 5.6-.3 5.7 3.8.6c11.7 2.1 17.9 3.6 19.2 5 1.4 1.3 1.3 1.7-.1 3.2-1.6 1.5-2.4 1.5-11.5-.1-5.4-1-10.6-1.7-11.6-1.5-1.2.3-2.5 2.2-3.6 5.4-1 2.8-2.4 6-3.2 7.2-1.9 3.1-.6 4.1 10.1 8.8 10.1 4.3 11.9 5.8 10.3 8.3-1.5 2.3-4.5 1.8-11.7-1.9-3.2-1.7-7.7-3.7-9.9-4.5l-4-1.4-7.1 6.7c-11 10.5-24.1 16-27.6 11.8-1.5-1.9-.4-2.9 8-7.5 8.3-4.5 17.2-11.8 16.8-13.8-.2-1.2-1.9-1.9-5.5-2.5-6.3-1-9-3.4-6.9-6.3 1.4-1.8 1.6-1.8 7.9-.1 9.7 2.5 10.5 2.4 12.7-2.6 3.6-7.9 3.4-8.1-7.8-7.4-9.9.7-12.2.1-12.2-3 0-2.1 4.6-3.4 14-4 4.7-.3 9.1-1 9.8-1.6 3-2.4.8-24.6-3.7-37.5-1.8-5-1.9-6.7-1.1-13.2 1.7-13.2 3.3-47.3 2.6-55.3-.9-9.2-1.8-9.6-9.3-4-12.2 9.1-18.4 14.8-27.2 24.8-7.7 8.8-9.8 10.5-11.5 10-15.6-4.5-34.9-6.2-51.5-4.6-10.3 1.1-11.5 1-13.2-.5-1.1-.9-1.9-2.1-1.9-2.6 0-4.5-27.8-35.5-32.1-35.8-.3 0-1.3 2.6-2.3 5.7"/><path d="M349.3 445.1c-1.5 1.5 1.4 12.1 5.1 18.3 2.9 5 5.5 6.9 8.9 6.4 3.8-.5 3.2-4.2-2.4-13.5-7.4-12.5-8.9-13.9-11.6-11.2m4.3 2.1c3.5 4 11.6 18.9 11 20.4-2.2 5.6-11-4.8-14.1-16.8-1.7-6.3-.5-7.6 3.1-3.6m446.6 31.4c-.1 19-.4 36.1-.8 38-1.1 5.8.1 8.2 4.4 9 2 .3 9 2.2 15.5 4.1 6.6 1.9 12.1 3.3 12.3 3 .2-.2 1.1-9.3 2-20.3.9-10.9 2.1-20.5 2.8-21.3 1-1.3 11.5-1.2 27.6.2l2.5.2.5-11.3c.4-8.5.9-11.5 2-12.2.8-.5 7.5-1 14.8-1h13.4l2.9 2.9c2.8 2.9 2.9 3.2 2.9 12.9v10l13.4.7c7.4.4 13.9.4 14.5.1.7-.5 1.1-8.1 1.1-23.6v-22.9l-13.2-.3c-7.3-.2-27.9-.5-45.8-.6-17.8-.1-34-.4-36-.7-1.9-.2-11-.7-20.1-1l-16.7-.5zm36.3-32.1c2.8.2 19.4.6 37 .7s37.7.4 44.8.6l12.7.3V470c0 14.7-.4 22.1-1.1 22.6-.6.3-6.7.3-13.5-.1l-12.4-.7V483c0-16.1-1.6-17.3-22-16.8-7.6.2-14.2.7-14.7 1.1-.4.5-1 5.9-1.3 12-.5 10.5-.6 11.2-2.5 10.9-1.1-.1-7.6-.5-14.5-.8-10.1-.6-12.7-.4-13.6.7-.6.8-1.8 10.3-2.7 21.3-.9 10.9-1.7 20-1.9 20.2s-5.5-1.2-11.8-3c-6.3-1.9-13.1-3.8-15-4.3-3.4-.9-3.5-1.1-3.4-5.3.1-2.5.3-20.1.4-39.3l.2-34.7 15.2.5c8.3.3 17.4.7 20.1 1m-366.2 2.7c-4.9 5.2-13.4 19-13.1 21.2.2 1.5 1.2 2.2 3.3 2.4 2.9.3 3.5-.3 9.2-9 7.3-11.1 8.8-14.1 8-16.2-1-2.6-4.1-1.8-7.4 1.6m6.2-1.2c.8 1.2-.4 3.3-7.8 14.8-4.7 7.1-6.6 9.2-8.1 9-1.1-.2-2.1-.8-2.3-1.4-.4-1.3 8.9-15.8 13-20.2 3.3-3.4 4.2-3.8 5.2-2.2M255 455c-6.3 1-18.4 2.4-26.8 3-8.5.6-17.5 1.8-20 2.6-6.4 1.9-20.7 4.2-33.9 5.3-6 .6-15.6 1.9-21.4 3.1-5.7 1.2-17.4 2.5-25.9 3-13.9.7-16.6 1.2-26.3 4.4-6 2-12.7 4.6-14.9 5.7l-4 2.1.6 4.9c.7 5.5 2.9 11.2 8.3 21.4 2 3.8 4 8.6 4.4 10.5s1.6 6.4 2.6 9.9c1.6 5.8 2.2 6.6 6.8 9.5 2.7 1.7 6.4 3.8 8 4.6 1.7.8 6.8 5.3 11.5 10 8.8 8.8 9.3 9.7 16.4 28.2 1.4 3.6 2.6 8.4 2.6 10.5s.7 7 1.5 10.8c.9 3.9 2.4 14.1 3.5 22.8 1.9 16.2 4 22.9 7.2 23.5.9.2 4.1-.8 7-2.2 11.5-5.4 30.6-10.8 47.3-13.4 5-.8 8-2.3 17-8.1 6-3.9 11.4-7.1 12.1-7.1s2.5-.6 4.1-1.4c7.6-3.8 21.2-10 24.7-11.2 2.2-.8 4.4-1.8 5-2.3.6-.4 4-2.1 7.6-3.7 12-5.2 23.9-13.4 33-22.5 10.8-11 12-13.1 9.8-16.7-1-1.5-2.6-4.4-3.8-6.5-1.8-3.2-2.5-3.7-5.8-3.7-4.1 0-20 2.6-24.8 4.1-4.4 1.3-7 1.1-8.5-.7-1.1-1.4-1.1-1.8.4-2.9 2.3-1.7 17.4-5.2 26-6.1 3.9-.4 7.1-1.2 7.3-1.9.3-.7-.1-3.6-.8-6.6l-1.4-5.3-6.5-1.2c-3.5-.7-11.2-1.3-17-1.3-8.3-.1-10.9-.4-11.9-1.6-1-1.3-1-1.9.5-3.5 1.5-1.7 3.1-2 9.4-1.9 4.2 0 10.9.4 15 .8 5.3.5 7.4.4 7.8-.5.2-.7-1.4-6.5-3.5-13-2.2-6.6-4.8-14.6-5.7-17.9s-2-7.4-2.5-9c-.5-1.7-2-7.1-3.4-12.1-1.4-5.1-3.5-11.2-4.7-13.8l-2-4.6-10.2.1c-5.6.1-15.4.9-21.7 1.9m33.3 4.4c1.4 3 3.4 9 4.6 13.3 2.9 11.2 7.3 26.2 11.5 38.7 2 6 3.6 11.1 3.6 11.3s-6.5.1-14.5-.3c-12.5-.6-14.7-.5-17 1-2.7 1.8-3.2 4.5-1.3 6.4.8.8 5.1 1.2 12.3 1.3 6 0 13.7.6 17 1.3 5.9 1.2 6 1.3 7.2 5.7.7 2.4 1.1 4.9.9 5.5-.2.5-4.4 1.5-9.3 2.2-12.8 1.7-24.7 5.2-25.1 7.5-.2 1 .2 2.5.9 3.4 1.4 1.6 3.6 1.5 14.4-.7 2.8-.5 8.8-1.5 13.4-2.2 7.8-1.1 8.5-1.1 9.5.6.6 1 2.4 3.8 4 6.2l2.8 4.4-2.7 3.6c-5.3 6.9-16.8 17.6-23.9 22.1-6.4 4.2-16 9.2-27.1 14.4-2.2 1-8.4 3.8-13.8 6.3-5.4 2.6-10.1 4.6-10.4 4.6-1.8 0-15.2 7.1-22.8 12-8.2 5.4-9.7 6-17 6.9-12.3 1.6-34.9 8.3-46.3 13.7-3.1 1.4-3.5 1.4-5.2-.1-2.3-2.1-3.7-8-5.1-22-.6-6.1-1.8-14.2-2.6-18-.8-3.9-1.9-10.4-2.3-14.5-.9-7.4-4.9-19.1-10.3-29.5-2.8-5.7-15.3-18.1-20.7-20.8-10-4.9-12.1-6.9-14.6-14.2-1.3-3.9-2.4-8-2.4-9.2s-2.4-7.1-5.4-13C85.4 497 83 490.5 83 486.8c0-2.3 5.2-5.1 17.6-9.3 9.8-3.4 12.2-3.8 26.3-4.5 8.6-.5 20.3-1.8 26.1-3s15.2-2.5 21-3c12.5-1.1 27.7-3.5 34.2-5.4 2.5-.8 11.6-2 20-2.6 8.5-.6 20.6-1.9 26.9-2.9 6.3-1.1 15.8-1.9 21.1-2l9.7-.1z"/><path d="m876.5 475-3 .5-.3 36.1-.3 36 4.3 1.4c2.4.8 7.1 2.7 10.5 4.2 9.3 4.2 9.3 4.2 9.4-5.5.4-23.6-.3-70.2-1.1-71.6-.7-1.3-2.5-1.6-8.7-1.7-4.3 0-9.1.3-10.8.6m18.5 1.6c.8.8 1.6 45.9 1.1 70.7-.1 8.9.2 8.8-9.5 4.1-2.8-1.3-5.5-2.4-6.1-2.4s-2.3-.6-3.9-1.3l-2.7-1.2.3-35 .3-34.9 2.5-.6c3.9-1 16.8-.6 18 .6m-53 21.9c-1 1.2-3.7 36.1-2.9 37 1 1 25.9 8.3 26.3 7.6.2-.3.5-10.3.7-22.1l.4-21.5-5.5-.6c-11.6-1.4-18.1-1.5-19-.4m18.5 1.4 5 .6-.4 20.5c-.2 11.3-.5 20.7-.7 20.9-.4.5-21.6-5.8-23.5-6.9-1-.7-1-4.2 0-18 .6-9.5 1.3-17.6 1.6-17.9.4-.8 9.6-.4 18 .8m43.5.7c-.1.5-.3 14.5-.6 31.1l-.6 30.1 3.2 2.4c4.2 3 15.2 16.4 17.8 21.4 2.6 5.2 3.3 8.9 3.4 17.8 0 6.6.2 7.6 1.8 7.6 1.5 0 1.9-1.2 2.5-7.8 1.2-13.8 1-100.1-.2-101.3-1.4-1.4-27.3-2.6-27.3-1.3m26.3 2.3c.8.8 1 14 .9 47.3-.1 45.3-.6 59.8-2.2 59.8-.4 0-.8-3.8-.9-8.5 0-6.4-.6-9.9-2.5-14.4-2.5-6.3-13.2-20-18.6-23.9l-3.2-2.4.6-29.6c.3-16.4.5-29.9.6-30.1.1-.9 24.2.7 25.3 1.8m-579.9 8.6c-1 2.6.5 6.4 4.1 10.3l3.3 3.7h9c7.6 0 9.5-.3 11.9-2.1 3.1-2.3 4.1-6.5 2-8.2-1-.9-2.8-.5-7.6 1.4-7.7 3.1-10 2.7-14.2-2.6-3.4-4.2-7.4-5.4-8.5-2.5m7.1 3.1c3.6 4.7 6.8 5.8 12.5 4.3 2.5-.6 5.6-1.8 6.9-2.6 2-1.3 2.5-1.3 3.2-.2 1.5 2.3.6 4.2-3 6.6-2.7 1.9-4.8 2.3-10.4 2.3-7 0-7 0-11.4-4.5-4-4.2-5.2-7.2-3.6-8.8 1.4-1.5 3.2-.6 5.8 2.9m90.5 6.9c-5.2 4.4-10.1 4.7-13.9 1.1s-7.7-4.3-9.1-1.7c-1.4 2.7.3 6.5 4.1 9.3 7.7 5.7 23.5 3.3 27.4-4.2 1.7-3.2 1.2-5.6-1.6-7-2.4-1.4-2.2-1.4-6.9 2.5m7.3-.7c1.5 1.6 1.5 2-.2 4.8-2.6 4.2-8.3 6.7-15.3 6.7-4.6 0-6.3-.5-9.2-2.7-4.6-3.5-6.1-6.2-4.5-8.2 1.6-1.9 2.1-1.8 6.4 1.6 5.5 4.4 11.2 4.2 16.3-.5 4.3-4 4.4-4 6.5-1.7m334.5 13.7c-11 7.4-16.8 26.6-18.6 61-.5 8.2-.6 15.6-.4 16.2.2.7 1.2 1.3 2.2 1.3 1.1 0 2.2.4 2.5 1 .3.5 1.4 1 2.3 1 1 0 6.7 2.4 12.7 5.4 17 8.4 31.7 21.4 40.1 35.3 1.9 3.1 3.4 5 3.4 4.1 0-2.8-7.6-13.2-15.1-20.9-11.3-11.3-21.4-17.5-42.4-25.9-1.1-.5-2.7-1-3.5-1.3-1.2-.3-1.4-2-1.1-8.7.8-21.5 2.8-37.7 6-48.1 2.4-7.6 8.6-16.8 13.5-19.8 3.3-2.1 3.3-2.1 12.2-.2 4.9 1 13 3.2 17.9 4.8 5 1.7 15.1 4.9 22.5 7.2 18.1 5.7 18 5.6 32 11.9 6.5 2.8 7.3 3.2 8.8 3.3.4 0-1.8.8-5 1.8-16.1 5.2-27.3 17.9-34.9 39.6-3.3 9.8-8.6 37.6-9.3 49.5l-.5 8.5 1.3-10.5c1.9-15.3 6.4-38.3 8.8-45.4 4.1-11.9 11.2-23.9 18.5-30.8 4.5-4.3 16.4-10.8 19.9-10.8 3.1 0 3.2-2.6.2-3.5-1.3-.4-3.6-1.2-5.3-2-3.2-1.5-7.8-3.4-13.8-5.9-2.1-.8-9.3-3.2-15.9-5.2-6.7-2-12.8-3.9-13.7-4.4-1.4-.7-12.8-4.2-22.6-7.1-4.9-1.4-16.3-3.9-17.7-3.9-.7 0-3 1.1-5 2.5m-403-.5c-3.9 2.4-.2 12 4.7 12 2.5 0 2 7.4-.7 10-3.8 3.5-7.6 2.6-13-3-5.1-5.3-7.3-5.7-8.4-1.4-.9 3.6 3.4 9.4 8.8 12.1 5.6 2.8 12.7 3 15.8.5 2.1-1.7 2.4-1.7 7.1.6 6.6 3.3 13.4 3.3 19.2-.1 4.8-2.8 7-6.2 6.5-9.8-.5-3.9-4.7-3.7-8.8.6-2.9 2.9-4.1 3.5-7.8 3.5-7.8 0-9.6-2.5-7.1-9.8.8-2.4 1.8-3.1 4.7-3.7 4.8-.9 6.2-2.1 6.2-5.6 0-1.9-.8-3.3-2.2-4.3-3-1.8-22.6-3.1-25-1.6m24 2.6c4.4 2.8 2.2 7-4.2 8.1-3.1.5-3.7 1.1-4.6 4.2-.5 2-1 4.8-1 6.4 0 3.3 2.9 4.7 9.6 4.7 3.6 0 5.1-.6 8.4-3.6 4.1-3.7 7-4 7-.7-.1 2.3-2.6 5.3-6.8 8.3-4.7 3.2-11.6 3-17.8-.4l-4.8-2.7-2.8 2.1c-5.6 4.2-16.3 1.3-21.6-5.9-2.4-3.3-2.7-5.2-1.1-6.8.8-.8 2.4.3 5.8 3.8 5 5.2 8.7 6.2 13.4 3.8 3.2-1.7 3.7-2.8 3.7-8.2 0-3.7-.3-4.7-1.7-4.7-2.5 0-6.3-4-6.3-6.6 0-1.3.8-2.8 1.8-3.4 2.4-1.4 20-.2 23 1.6m-340.7 5.9c-20.1 5.6-29.3 15.6-32.3 35.2-1.5 10 1.6 38.6 8.2 75.8 1.1 6 2.2 12.8 2.5 15s1 6.5 1.5 9.5 1.6 10.7 2.5 17c2.6 18.5 7.5 44.5 11.6 61 .4 1.9 1.1 4.8 1.4 6.5.4 1.6 1.8 7.6 3.1 13.1 1.3 5.6 2.4 11 2.4 12 0 3.8 5.4 16.1 9.3 21.2 8.7 11.4 23.6 16.4 54.7 18.1 8.5.5 16.2 1 17 1 .8.1 25.3.4 54.5.7 31.7.3 53.4.9 53.9 1.4 1.5 1.5 2.6 1.2 2-.5-.5-1.2.7-1.4 8.3-1 17.7.9 68.5 1.6 142.8 2.1 80.6.4 166 1 206.5 1.3 13.5.1 42.8.2 65.3.1 43.2-.1 43.6-.1 38.6-4.6-3.1-2.7-5.9-9.2-5.9-13.9-.1-11.8 8.5-22.7 22.5-28.7 2.2-.9 3.2-1.7 2.2-1.7-3.6-.2-13 5.4-17.5 10.4-5 5.4-8.2 13.2-8.2 19.7 0 5 2.6 11.8 5.8 15.1l2.7 2.8-16-.1c-8.8-.1-38-.2-65-.2-26.9 0-71.7-.2-99.5-.4s-85.8-.5-129-.8c-43.2-.2-87-.7-97.5-1.1-10.4-.3-51.8-.8-92-1-40.1-.2-73.7-.4-74.5-.5s-8.4-.6-16.8-1.1c-31-1.7-45-6.4-54-18.1-4.1-5.4-9.2-16.5-9.2-20.1 0-1.1-1.1-6.5-2.4-12.1-1.3-5.5-2.7-11.2-2.9-12.6-.3-1.4-1.2-5.4-2-9-4.8-20.7-8.5-40.4-11.1-58.5-.9-6.1-2.1-13.9-2.6-17.5-.6-3.6-1.4-9-1.9-12s-2.5-15.4-4.4-27.5c-5.4-33.4-7.2-51.9-5.8-60.9 2.2-15.1 7.9-23.3 20.4-29.5 10.8-5.3 16.4-6.4 25.9-5.3 12.3 1.6 27.3 9.9 34.5 19.4 12.3 16 20.2 54.3 22.8 110.8 2.5 55.9 4.5 80.4 7.2 92.5 1.4 5.8 2.4 7.7 5.8 11.2l4.1 4.2h39.5c21.7 0 47.5.4 57.4 1 9.9.5 22.3.8 27.5.6 18.6-.5 286.2-.7 332.8-.1 10 .1 22.5-.2 27.7-.6 9.2-.7 9.5-.7 15 2.2 4.9 2.6 6.8 3 13.1 3 5.5 0 8.5-.5 11.3-2 3.5-1.7 6.8-2 31.8-2.6 15.3-.3 28-.8 28.3-1.1s-12.3-.2-27.8.1c-25.5.6-28.8.8-32.5 2.6-2.9 1.4-6.1 2-11.1 2-5.9 0-7.8-.5-12.3-3-5.3-3-5.4-3-15.4-2.2-5.5.4-18.2.7-28.2.5-10-.1-27.4-.2-38.7-.1s-26.6.1-34 .1c-25-.2-92.3-.3-116-.2-12.9.1-48.5.1-79 .1s-59.8.2-65 .3c-5.2.2-17.6-.1-27.5-.6-9.9-.6-35.6-1-57.2-1h-39.2l-4-4.4c-2.2-2.4-4.3-5.6-4.7-7.2-.3-1.5-.9-4.2-1.4-5.8-1.8-6.7-4.2-39.8-6.5-89.5-1.1-22.6-3.3-46.6-5.6-59.5-2.1-12-7-31.2-10-39.1-5.5-14.4-15.8-24.1-31.9-30.1-7.7-2.8-19.1-3.6-25.9-1.8"/><path d="M887.5 570c-7.8 1.6-12.7 4-18.2 8.9-15.6 13.9-22.8 36.1-25.4 78.3-1.1 17.8-1 19.2.9 26.5 6.9 25.6 5.2 57.4-4.4 82.5-3.4 9.1-6.5 15.6-9.4 19.8-.9 1.4-3.4 5.1-5.6 8.3-7.6 11.5-27.6 28.2-39.4 33-3.6 1.5-5.6 2.7-4.5 2.7 5.8.1 21.1-9.9 33.7-21.9 6.6-6.2 9.2-9.6 17.4-22.1 4.2-6.4 11.2-24 13.5-34 5.1-22 5-48.7-.2-68-2.2-8-2.2-14.9.2-41 2.7-31.4 10.4-51 24.8-63.6 6.4-5.6 12-7.9 21.3-9 5.4-.6 5.9-.5 10.5 2.9 5.6 4.1 10.1 9.4 13.3 15.7 3.9 7.6 3.1 24.7-2.5 56-1.4 7.4-3.6 20-5.1 28-1.4 8-3.6 20.7-5 28.3-2 12.2-8.3 40.4-13.1 59.7-11.3 45.3-25.7 63.7-52.6 67.5-5.1.7-20 1.6-33.1 1.9-13.2.3-24.2.8-24.5 1.1-.8.9 44.6-.5 55.1-1.6 11.1-1.3 13.8-2.1 22.6-6.9 13.7-7.3 23.2-24 31.6-55.1 4.8-18.1 13.2-54.7 14.6-63.9.6-4.1 2.2-12.9 3.4-19.5 1.3-6.6 2.9-15.4 3.6-19.5s2-12 3-17.5c4-21.8 5.1-30.5 5.2-42 .1-10.2-.2-12.7-2-16.7-2.7-6.2-7.6-12.2-13.3-16.4-4.9-3.6-8.1-4.1-16.4-2.4m39.2 49.7c-1 1.7-3 18.2-2.4 19.7.7 1.7 4.2 2.2 5.1.8.3-.4.6-5.3.7-10.8.1-8.2-.1-10-1.4-10.2-.8-.2-1.7.1-2 .5m1.3 19.7c-.7.7-1.4.6-2.2-.2-.9-.9-.9-3.1.1-9.4.7-4.6 1.6-8.7 1.9-9.3.4-.5.8 3.2 1 8.4.2 5.6-.1 9.8-.8 10.5m-735 7.2c-17.6 4.3-31.8 10.1-38.2 15.6-3.2 2.7-3.4 5-2.4 25.1.3 7 .6 13.3.6 13.8 0 .7 1 .9 2.7.4 1.5-.3 11.1-.6 21.3-.5 23.3.2 33.4.2 64.5.1 13.8 0 35.8.2 49 .4l23.9.5 8.1-7.9c7.4-7.4 27.4-21.8 41.8-30.2 11.6-6.8 13.2-7.9 11.7-7.9-1.9 0-7.4 3.4-29.3 17.8-11.8 7.8-19.7 13.8-25.2 19.3l-8.1 7.9-23.4-.5c-12.9-.2-34.7-.4-48.5-.4-26.9.1-35.6.1-65 0-10.4-.1-19.8 0-20.7.1-1.6.3-1.8-1.2-2.4-12.7-1-20.1-.9-21.6 2.7-24.6 4-3.2 13.1-7.9 22.4-11.3 3.5-1.3 20.9-5.6 22.8-5.6 1.6 0 1.6.2-.2 2.1-3.5 3.8-5.4 9.2-5.9 16.5-.4 6.2-.1 7.9 2.1 12.5 4.1 8.6 8.5 12 17.7 13.7 7.7 1.4 22.2-1.4 27-5.4.8-.6 5.3-3.3 10-5.9s10.8-6.2 13.5-8.1c7.4-5.2 15-8.8 25-11.8 5-1.5 14.2-4.3 20.5-6.3 6.3-1.9 13.5-4.1 16-4.9 11.7-3.5 17-3.8 27-1.5 5.1 1.3 12.3 3.6 15.8 5.2 3.6 1.6 6.7 2.7 7 2.4s-1.7-1.4-4.4-2.5c-2.7-1.2-5.6-2.4-6.4-2.9-.8-.4-6.1-1.8-11.7-3.1-13.3-3-13.7-2.9-55.3 9.9-20.5 6.3-26.3 8.7-34.5 14.4-2.7 2-8.8 5.6-13.5 8.2s-9.2 5.3-10 6c-.8.8-3.6 2.1-6.2 2.9-17.7 6.1-29.4 2.6-36.3-10.6-2.4-4.7-2.7-6-2.3-12.5.4-6.2 1-8 4.1-12.6 1.9-3 3.2-5.8 2.9-6.4-.5-.7-4.1-.2-10.2 1.3m729.5 1.3c-.3.6-1.1 4.3-1.9 8.3-.7 4-3.2 16.5-5.4 27.8-2.3 11.3-4.6 23-5.2 26-1.3 6.6-5 23.9-8 37-3.4 14.8-5 22.4-5 23.2 0 1.4 31.8.9 32.6-.4.4-.7.9-28.1 1-61l.3-59.9-2.5-.9c-3.2-1.3-5.1-1.3-5.9-.1m5.5 1.1c1.8 1 1.9 3.2 1.6 59.8-.1 32.3-.6 59.3-1 60-.5.9-5 1.2-15.7 1.2-8.2 0-14.9-.1-14.9-.3 0-.3 2.5-11.6 5-22.7 3-13.1 6.7-30.4 8-37 .6-3 2.9-14.7 5.2-26 2.2-11.3 4.6-23.5 5.3-27.1 1.7-9.2 2.4-10.1 6.5-7.9m-187.3 9.3c-.2.6 0 3 .4 5.2.8 4.2-.5 18.7-1.8 20.8-2 3.1-6 14.3-5.4 15 2 2.1 27.8 2.8 45.9 1.2 8.6-.8 8.8-1.3 4.2-11.1-5-10.4-11.4-16.4-25.3-23.8-14.8-7.9-17.4-8.9-18-7.3m8 3.5c14.9 7.4 21.4 11.6 26.2 16.8 4.6 5 11.1 16.1 11.1 19 0 .8-2.4 1.5-6.7 2-9 .9-32.3 1-39.4 0l-5.7-.7 3.5-8.2c3.6-8.8 5.4-19.4 4.6-27.1-.3-2.6-.3-4.6.1-4.6.3 0 3.2 1.3 6.3 2.8M614 670c-15.4 3.4-25.8 6.6-31.5 9.9-7.4 4.3-12.6 9.2-16.4 15.5-4.2 7-4.9 15.9-1.7 19.5 2.8 3 4.3 2.6 5.1-1.5.7-3.9 4.1-10 6.9-12.3 1.2-1 1.9-1.1 3-.2 1.1 1 .9 2-1.6 6.6-1.9 3.6-2.8 6.5-2.6 8.7.3 3.1.6 3.3 4.3 3.6 4.1.3 4.1.3 6.4-5.3 2.7-6.4 5.8-9.3 7.8-7.2 1.1 1.1 1.1 2-.2 5-3.4 8.2-1 7.6 16.6-4.2 8.1-5.4 19.9-12 29.9-16.8 9.1-4.3 16.7-8.3 17-8.8.3-.6-1.5-1.5-4-2.2-7.4-2-13.1-4.2-20.2-7.8-7-3.6-11.2-4.2-18.8-2.5m17.1 2.9c6.5 3.5 16.9 7.5 22.4 8.6 3.7.7 3.8.8 1.5 1.5-1.4.4-5.2 2.1-8.5 3.8s-10.4 5.1-15.8 7.7c-5.4 2.5-15.9 8.7-23.3 13.7s-13.7 8.8-14 8.5c-.3-.2.3-2.4 1.2-4.7 1.6-4.1 1.6-4.4 0-5.6-3.1-2.2-5.9-.2-9.1 6.5-2.8 5.7-3.2 6.1-6 5.9-4.3-.4-4.4-3.7-.5-11 2.9-5.5 3.1-6.1 1.6-7.6-3.3-3.3-8.5 1.5-11.6 10.9-1.6 4.5-1.8 4.8-3.2 3.1-4-4.5-3.3-10.6 2.3-19.2 7-10.8 18.3-17.3 38.9-22.3 13.9-3.4 17.4-3.4 24.1.2M473 674.4c-3.5 1.9-19.1 10.8-21.5 12.3-1.1.7-7.2 3.7-13.5 6.8-6.3 3-12.3 6-13.2 6.5-1 .6-2.7 1-3.8 1-1.4 0-2 .7-2 2.1 0 1.8.4 2 3 1.4 7.5-1.6 60-3.5 100.1-3.5 16.8 0 31.4-.2 32.3-.6.9-.3 1.6-1.2 1.6-1.9 0-2.4 4.9-10 8.9-14 6.2-5.9 5.6-6.6-4.7-5.9-9.4.7-29.5-.6-56.7-3.7-20.1-2.2-27.1-2.4-30.5-.5m30.5 1.5c26.9 3.1 47.3 4.4 56.4 3.8l8.5-.6-4.7 4.7c-2.5 2.6-5.8 7.3-7.2 10.4l-2.6 5.8-15.7.1c-8.6 0-22.2 0-30.2-.1-24.2-.2-81.9 2.2-86.1 3.5-1.1.4-1.9.2-1.9-.4s.6-1.1 1.4-1.1c2 0 25.3-10.6 29.6-13.4 1.9-1.3 5.5-3.4 8-4.8s6.3-3.6 8.5-4.8c8.1-4.6 9.1-5 14-5 2.8 0 12.7.9 22 1.9m161 13.1c-7.6 1.5-28.5 10.5-28.5 12.4 0 1.6 36.1.9 37.7-.7.6-.7 1.4-3.1 1.8-5.3 1.1-6.7-1.5-8.2-11-6.4m9.4 1.4c.7.9.9 2.9.5 5.5-.5 3.1-1.2 4.2-2.8 4.6-1.8.4-34.6 1.2-34.6.9 0-.4 11.5-5.7 18.1-8.2 10.4-4.1 16.9-5.1 18.8-2.8m51.2 25.9c-15.6 32.6-25.1 51.6-26 52.2-.6.3-1.1 1.7-1.1 2.9v2.4l34.3-.5c38-.5 35.3 0 43.9-8.1 9.6-8.9 14.8-24.4 14.8-43.8 0-7.9-.4-11.5-1.3-12.2-.9-.8-7.3-.9-19.7-.6-16.5.5-22.6.2-37.2-2.1-2.6-.4-3 .1-7.7 9.8m40.4-6.8c12.1.1 22.6.3 23.3.4.9.1 1.2 3.1 1.2 11.2 0 20.8-5 34.2-16.7 44.8l-6.8 6.1H747c-10.7.1-25.9.3-33.7.5-11.8.4-14.3.2-14.3-1 0-.7.5-1.7 1.1-2.1.7-.4 3.7-6.1 6.9-12.8s8.9-18.4 12.7-26.1 7.5-15.6 8.3-17.5c2.2-5.7 2.3-5.7 9.2-4.7 3.5.6 16.2 1.1 28.3 1.2"/><path d="m158 708-4.5.5.3 10c.5 15.6 3.1 40.1 4.8 45.3 2.9 8.6-2.8 7.8 64.2 8.6 32.8.3 105.3.6 161 .6 88.8 0 101.3.2 101.8 1.5.4.8 1 1.5 1.6 1.5.5 0 .7-.4.4-.9-.4-.5.6-1.2 2.1-1.4 1.6-.3 37.9-.5 80.7-.5 42.8-.1 78.2-.4 78.7-.9.4-.4.3-3.3-.3-6.3-1.7-9.5 1.6-20.9 11.5-40 2.8-5.2 5.9-10.7 6.9-12.3 1.1-1.5 1.8-3.2 1.6-3.8-.2-.7-8.1-1-23.6-.9l-23.3.1-12.4 7.9c-6.8 4.4-13 8-13.7 8-.8 0-2 .6-2.6 1.2-.8.8-5.3 1.4-11.7 1.6-9.8.4-10.9.2-16.1-2.3-6-2.9-10.1-8.2-11.1-14l-.5-3.4-45.2.4c-24.8.3-51.4.9-59.1 1.5s-19.8 1-27 .9c-18.7-.3-23.4.6-34.4 5.9-8.7 4.2-10.5 5.6-22.6 17.9-11.5 11.7-14 13.7-21 17-7.3 3.5-8.7 3.8-16.5 3.7-9.6 0-14.2-1.8-19.7-7.6-6.8-7.2-8.3-19.2-3.8-30.3 1.4-3.3 2.5-6.1 2.5-6.3 0-1.4-8.2-2.2-25.7-2.6-30.3-.8-118-1.2-123.3-.6m122.5 1.5c11 .3 21.2.8 22.6 1.1l2.6.5-2.3 6.5c-2.5 6.9-3.4 20.7-1.4 21.9.6.3 1 1.5 1 2.6 0 2.9 6.9 9.9 12 12.2 3.5 1.6 6.6 2.1 13.5 2.1 8.3 0 9.6-.3 17-3.7 7-3.3 9.4-5.2 19.5-15.6 12.9-13.2 18.5-17.5 28-21.3 8.7-3.6 12.1-4 28.7-3.9 7.7.1 20.3-.3 28-.9 7.6-.6 33.9-1.2 58.4-1.4l44.5-.4 1.2 4.1c1.8 6.6 4.6 10.2 9.9 12.8 4.3 2.1 6.2 2.4 17 2.4 8.4 0 12.6-.4 13.5-1.3.6-.6 1.8-1.2 2.6-1.2.7 0 6.9-3.6 13.8-8l12.4-8h45.1l-1.9 2.7c-3.5 5.2-10 18.1-13.5 27-4.7 11.7-6.1 19.4-4.9 26.1.6 3.5.6 5.5-.1 5.9-1.3.8-347.8.5-424.8-.4-65.9-.7-60.5 0-63.4-8.2-1.6-4.7-4.2-28.8-4.7-44.1l-.3-9.5 4-.5c4.6-.6 91.8-.2 122 .5m611.6 74.7c-1.6 3.5-3.4 8.1-4.1 10.3s-1.6 4.4-2.1 4.9c-.5.6-.9 1.9-.9 2.9 0 1.8.8 1.9 21.3 1.2 11.6-.4 21.4-1 21.7-1.2.3-.3.7-5.8.8-12.4l.4-11.9h-34.3zm35.9 5c0 5.7-.4 10.8-.8 11.4-.7 1.1-41.2 3.1-41.2 2.1 0-1.1 8.3-21.3 9.2-22.5.8-.9 5.4-1.2 16.9-1.2H928zm-806.3 49.9c-.4 2.4-1.3 7.8-2.1 11.9s-2.1 11.5-3 16.5c-.8 4.9-2.2 12.1-3.1 16-1.9 8.9-9.2 47.1-9.5 50.1 0 .1 3.4.4 7.6.8 6.2.6 8.1.4 10.1-.9 2.3-1.5 9.3-14.7 9.3-17.5 0-.6 1.1-3.5 2.3-6.3 1.3-2.9 4.3-10.4 6.7-16.7 2.3-6.3 7.8-20.9 12.1-32.3 4.4-11.5 7.9-21.5 7.9-22.2 0-1.3-4.7-1.9-26.1-3.1l-11.6-.6zm30.6-1.5c3.7.3 6.7.9 6.7 1.3 0 .3-3.4 9.6-7.6 20.6-4.1 11-9.5 25.4-12 32s-4.9 12.9-5.4 14-2.3 5.5-4 9.8c-6.9 17.9-8.2 19.1-17.9 18.1-6.5-.6-7-.8-6.6-2.8.2-1.1 2-10.7 4-21.1 1.9-10.5 4-21 4.6-23.5s1.9-9.5 3-15.5c1-6.1 2.6-14.6 3.4-19s1.8-9.7 2.1-11.8l.7-3.9 11.1.6c6.1.4 14.1.9 17.9 1.2m14.8 6.1c-2.2 7.2-9.5 42.2-8.9 42.8.9.9 14.2 1.3 15.8.5 1-.5 2.6-3.1 3.5-5.7 3.1-8.8 12.5-40.8 12.5-42.6 0-1.5-1.2-1.7-10.4-1.7h-10.4zm21.9-4.5c0 .7-1.2 5.1-2.6 9.8s-3.4 11.4-4.4 15c-2.8 9.5-6 18.2-7.6 20.7-1.2 2-2 2.2-8.1 1.7-3.7-.3-6.8-.6-6.9-.7-.2-.2.6-5 3.5-20.3 1.7-9.1 4-18.4 6.6-26.2.3-.8 3.2-1.2 10-1.2 6.9 0 9.5.3 9.5 1.2m619.5.5c-6.6.2-12.4.8-12.8 1.2-.5.5.1 4.3 1.6 8.8 1.4 4.3 3.2 10 4 12.8 10.9 36.1 17.9 57 24.6 73.1 1 2.4 4.8 3.4 12.5 3.4 7.5 0 8.2-.7 6.8-7.2-.6-2.9-1.8-10.5-2.7-16.8-.8-6.3-2.4-16.2-3.5-22s-2.4-14.1-2.9-18.5c-2-16.7-4.2-31.1-5.1-33.3-.8-1.9-1.6-2.2-5.7-2-2.7.1-10.2.4-16.8.5m21.3 1.5c.9 1.2 3.1 15.1 5.3 33.3.5 4.4 1.8 12.7 2.9 18.5 2.1 11.5 6.2 38 6.4 42 .1 2.5 0 2.5-7.6 2.5-4.4 0-8.2-.5-8.8-1.1-1.9-1.9-14.1-35.4-19-51.9-1.7-6.1-5.2-17.5-7.6-25.5-2.5-8-4.6-15.2-4.7-16-.2-1.2 1.9-1.6 11.8-2 6.6-.4 13.9-.7 16.1-.8 2.4-.1 4.6.3 5.2 1m-92.5 2.5c.3 1.6 1.8 7.2 3.3 12.6 2.4 8.4 2.6 10 1.3 10.8-1.1.8-1 .9.6.7 1.1-.2 2 .1 2 .7.2 2.1 2.8 10.2 4.6 14.2 1.1 2.4 1.9 4.7 1.9 5.3 0 .7 3.4 1 9.6.8l9.7-.3-.2-9c-.2-5-.8-15.5-1.4-23.5l-1.2-14.5-15.4-.3-15.3-.3zm29.9 7.3c.5 4.7 1.1 14.9 1.5 22.8l.8 14.2h-17l-2.2-5.3c-1.2-2.8-2.7-7.2-3.4-9.7s-1.6-5-2-5.5c-.3-.6-1-2.6-1.4-4.5s-1.8-7.1-3.1-11.6c-1.3-4.4-2.4-8.3-2.4-8.7s6.4-.6 14.3-.5l14.2.3z"/></g></svg>