<svg version="1.1" xmlns="http://www.w3.org/2000/svg" style="display: block;" viewBox="0 0 2048 2048" width="1024" height="1024">
<path transform="translate(0,0)" fill="rgb(10,10,10)" d="M 0 0 L 2048 0 L 2048 2048 L 0 2048 L 0 0 z"/>
<path transform="translate(0,0)" fill="rgb(235,234,234)" d="M 178.683 120.151 C 202.338 119.33 226.203 119.947 249.875 119.952 L 379.382 119.987 L 769.004 119.997 L 965.921 119.986 C 983.106 119.979 1000.33 120.692 1017.48 120.639 C 1026.58 120.61 1037.09 118.859 1046.02 120.364 C 1048.64 120.805 1049.68 121.239 1051.18 123.388 C 1050.27 126.482 1048.62 127.321 1046.23 129.415 C 1048.65 221.669 1046.38 314.245 1046.47 406.534 C 1046.49 427.523 1048.33 640.93 1046.23 645.911 C 1043.9 647.276 1044 647.186 1041.35 646.575 C 1035.33 639.533 1038.08 586.206 1038.12 574.865 L 185.16 572.819 C 183.852 580.139 184.687 588.367 184.655 595.834 L 184.414 643.258 C 184.277 671.52 182.515 931.517 184.416 934.935 C 184.997 934.123 185.526 933.319 186.246 932.612 C 188.925 929.986 219.785 930.949 225.577 930.93 C 219.725 912.747 222.985 841.768 223.004 817.422 L 223.073 627.079 C 226.286 625.251 229.473 623.284 233.045 622.229 C 243.858 619.035 280.179 617.598 289.949 622.827 C 294.014 628.032 292.139 642.599 292.013 649.298 C 315.607 647.001 338.475 649.369 362.027 649.082 C 363.458 704.961 362.154 761.341 362.022 817.26 C 361.975 838.651 361.784 860.041 361.45 881.429 C 361.252 897.748 362.024 914.256 358.841 930.341 C 371.35 929.939 383.894 930.137 396.409 930.152 C 395.11 917.854 395.818 904.987 395.851 892.622 L 395.989 829.456 C 396.062 768.508 395.045 707.444 396.123 646.512 C 406.755 643.489 421.295 641.967 432.315 641.916 C 437.495 641.892 442.824 642.693 446.489 646.723 C 453.61 654.551 451.174 673.12 451.081 683.057 C 461.621 682.549 508.954 679.64 514.359 687.271 C 518.229 692.734 518.255 909.098 516.158 929.409 L 535.6 929.142 C 532.612 910.699 533.215 891.431 533.29 872.802 C 533.983 819.436 534.193 766.065 533.921 712.696 C 533.89 695.331 531.58 651.627 535.254 637.034 C 536.822 636.236 538.172 635.721 539.926 635.442 C 548.494 634.08 591.253 633.288 596.678 638.228 C 599.292 640.607 599.542 644.927 599.759 648.203 C 600.415 658.086 599.495 668.447 599.35 678.364 C 599.125 696.046 599.04 713.729 599.094 731.412 L 598.863 929.781 L 622.808 929.724 C 620.679 916.909 621.668 902.878 621.736 889.914 L 621.982 825.33 C 621.976 797.236 622.262 769.09 621.762 741.001 C 621.446 723.177 620.157 705.244 620.619 687.428 C 643.798 686.015 667.555 684.794 690.719 686.659 C 692.531 700.033 691.985 714.028 692.265 727.508 C 692.789 756.002 693.091 784.501 693.171 813 L 694.104 881.303 C 694.29 896.356 696.662 915.361 692.604 929.727 C 714.067 929.672 735.527 930.165 756.993 930.01 C 770.926 929.91 787.288 928.071 800.972 930.368 C 803.839 930.85 804.969 931.09 806.705 933.434 C 806.069 935.654 805.385 936.91 803.313 938.146 C 799.081 940.671 711.925 938.825 699.592 938.778 L 324.54 939.155 L 257.846 939.523 C 240.92 939.754 198.518 942.647 183.92 938.245 L 184.093 969 C 199.832 967.905 215.653 968.465 231.42 968.508 L 304.089 968.564 L 529.742 968.574 L 698.355 967.957 C 723.394 967.869 749.007 966.121 773.967 967.834 C 776.814 968.03 777.576 968.001 779.437 970.221 C 779.593 972.838 779.636 972.958 778.178 975.121 C 767.457 977.484 753.858 975.98 742.758 975.988 L 670.593 976.132 C 552.129 977.506 433.655 977.892 315.184 977.289 L 231.753 977.291 C 216.47 977.286 198.886 978.912 183.98 975.737 L 183.859 1067.42 C 183.82 1083.57 184.79 1101.16 182.923 1117.17 C 182.568 1120.21 182.104 1122.16 179.631 1124.01 L 177.682 1122.96 C 176.819 1121.41 176.001 1119.91 175.599 1118.17 C 174.017 1111.32 175.829 1082.94 175.87 1074.15 L 175.945 946.212 L 176.014 339.708 L 176.223 204.004 C 176.266 177.776 175.242 150.601 177.154 124.474 C 177.283 122.719 177.736 121.613 178.683 120.151 z"/>
<path transform="translate(0,0)" fill="rgb(10,10,10)" d="M 184.554 127.391 C 195.484 128.69 207.025 128.057 218.032 128.048 L 274.476 127.977 L 458.122 127.933 L 1038.81 128.86 C 1037.76 191.305 1038.61 253.924 1038.48 316.388 C 1037.83 384.909 1037.94 453.435 1038.81 521.954 L 973.71 522.015 C 974.558 508.336 973.73 494.24 973.726 480.512 L 973.971 404.219 C 974.104 342.004 975.587 279.427 973.96 217.264 C 973.861 213.492 974.112 206.185 971.865 203.114 C 958.32 197.165 928.548 200.643 912.895 201.076 C 913.935 228.937 912.9 256.809 913.026 284.69 L 914.626 430.439 C 914.998 460.77 914.407 492.004 917.194 522.209 L 898.772 522.079 C 900.017 509.804 899.307 497.002 899.184 484.654 L 897.866 411.605 L 896.299 310.139 C 896.011 289.977 896.486 269.843 894.765 249.732 C 882.474 249.237 865.014 246.076 854.462 253.462 C 852.523 263.806 853.586 275.188 853.57 285.706 L 853.289 339.347 C 852.886 393.024 850.366 447.054 852.02 500.708 C 852.19 506.244 852.03 515.068 854.336 520.076 C 855.029 521.582 855.028 520.39 854.573 522.207 C 845.295 523.902 834.912 523.125 825.464 523.208 C 828.003 499.717 826.85 475.109 826.869 451.458 L 827.021 338.784 C 826.945 315.007 827.022 291.23 827.253 267.454 C 827.592 248.298 829.031 228.854 827.322 209.745 C 813.845 208.039 800.482 209.227 787 210.195 C 783.646 213.97 780.823 216.635 776.421 219.239 L 776.924 249.899 L 713.719 249.979 C 713.47 241.634 715.531 225.632 709.088 219.469 C 704.536 215.114 697.791 215.968 691.973 215.961 L 664.444 215.799 C 659.047 215.805 650.266 215.17 646.302 219.151 C 644.91 229.996 645.675 241.243 645.704 252.171 C 645.803 269.531 645.749 286.891 645.54 304.25 C 645.184 347.354 645.098 390.461 645.283 433.566 C 645.268 462.976 644.697 492.427 645.296 521.828 C 633.344 522.175 621.324 521.912 609.364 521.879 C 608.752 490.661 611.284 257.778 606.38 249.364 C 603.752 248.204 601.038 247.982 598.203 247.795 C 588.078 247.13 565.378 245.294 557.58 252.011 C 556.67 254.515 556.637 254.46 557.605 256.936 C 562.882 259.22 593.174 257.126 600.746 257.098 C 604.498 345.265 598.076 433.698 602.487 521.916 L 556.019 522.024 L 556.111 342.948 C 556.192 317.203 558.838 288.36 556.895 262.993 C 556.657 259.898 555.634 259.041 553.587 256.779 L 552.594 255.699 C 552.442 247.942 553.434 217.499 555.559 211.395 C 556.382 209.03 558.431 209.67 558.772 206.325 C 557.597 204.896 556.832 204.294 555.032 203.668 C 549.567 201.768 495.869 199.83 491.591 201.82 C 488.268 217.591 488.265 235.224 486.588 251.343 C 481.622 299.078 477.919 346.919 473.53 394.709 C 471.048 421.579 468.336 448.429 465.395 475.253 C 463.701 491.152 460.831 507.906 461.34 523.887 L 430.195 523.974 C 430.9 520.356 431.38 516.697 431.632 513.019 C 432.571 499.653 432.081 485.975 432.088 472.576 L 432.064 403.352 L 431.417 317.419 C 431.273 297.603 431.718 277.343 430.386 257.584 C 430.175 254.462 430.109 249.416 428.093 247.091 C 414.697 244.693 303.453 245.632 290.157 248.03 L 290.074 184.359 C 275.388 182.719 233.488 179.309 221.84 185.678 C 219.745 189.391 219.827 195.438 219.68 199.703 C 218.759 226.511 219.139 253.485 219.074 280.312 L 219.002 426.845 L 218.876 485.961 C 218.841 497.878 217.249 512.393 220.181 523.898 L 184.18 523.971 C 182.658 419.411 183.896 314.581 184.04 210.001 C 184.078 182.466 184.92 154.922 184.554 127.391 z"/>
<path transform="translate(0,0)" fill="rgb(10,10,10)" d="M 184.411 530.41 C 200.538 532.954 217.219 532.105 233.497 532.067 L 300.967 531.988 C 389.338 532.806 477.717 532.225 566.07 530.246 C 624.223 529.265 682.308 530.754 740.44 530.995 L 1038.72 531.126 C 1038.54 543.08 1038.47 555.035 1038.51 566.99 C 1010.38 567.344 982.162 566.043 954.012 566.008 L 665.608 565.104 L 184.259 564.76 C 184.163 553.33 183.785 541.825 184.411 530.41 z"/>
<path transform="translate(0,0)" fill="rgb(10,10,10)" d="M 237.766 191.414 C 252.519 190.793 267.252 191.543 281.996 192.106 C 282.67 269.166 282.742 346.229 282.214 423.29 L 281.799 497.416 C 281.799 505.74 283.353 514.699 282.761 522.853 C 280.293 524.731 277.666 524.01 274.63 523.982 L 226.092 523.969 C 227.448 511.561 226.9 498.727 226.915 486.255 L 226.966 427.05 C 226.768 363.483 227.068 299.916 227.866 236.354 C 227.955 227.608 226.031 199.595 228.604 193.369 C 231.067 191.172 234.632 191.571 237.766 191.414 z"/>
<path transform="translate(0,0)" fill="rgb(10,10,10)" d="M 358.079 254.704 C 379.705 254.937 401.332 254.995 422.959 254.879 C 422.541 344.188 426.437 433.438 423.357 522.752 C 419.735 525.593 366.324 524.14 358.009 524.127 L 358.079 254.704 z"/>
<path transform="translate(0,0)" fill="rgb(10,10,10)" d="M 292.261 656.373 C 312.925 657.984 333.261 654.775 353.972 658.168 L 353.909 849.768 L 353.952 901.968 C 354.004 911.276 354.971 921.514 353.616 930.658 C 333.289 930.326 311.253 932.783 291.211 930.065 L 290.422 928.363 C 291.315 926.639 291.977 924.973 292.232 923.025 C 293.057 916.748 292.091 909.368 292.065 902.999 L 292.046 855.224 L 292.055 726.57 C 292.052 703.222 291.335 679.694 292.261 656.373 z"/>
<path transform="translate(0,0)" fill="rgb(10,10,10)" d="M 774.472 257.499 L 776.239 258.042 C 778.759 264.915 776.854 302.455 776.854 312.38 L 776.825 447.617 C 776.66 472.818 775.847 497.967 776.021 523.178 C 755.794 523.31 735.566 523.1 715.346 522.548 L 714.426 521.475 C 715.008 511.871 714.293 502.129 714.163 492.509 C 713.96 477.442 714.057 462.363 714.036 447.294 L 713.267 257.889 L 774.472 257.499 z"/>
<path transform="translate(0,0)" fill="rgb(10,10,10)" d="M 307.7 254.471 C 321.788 254.46 335.876 254.577 349.961 254.822 L 350.214 436.128 C 350.176 460.402 347.533 501.791 351.35 524.406 L 333.888 524.181 L 289.935 523.98 L 290.114 255.292 L 307.7 254.471 z"/>
<path transform="translate(0,0)" fill="rgb(10,10,10)" d="M 250.628 628.43 C 261.804 627.889 272.938 628.646 284.098 629.23 C 284.408 690.587 284.398 751.945 284.069 813.301 L 283.987 890.185 C 283.966 898.919 282.488 909.411 283.622 917.912 C 284.172 922.036 286.525 925.75 287.24 929.886 C 282.135 931.328 275.821 930.677 270.513 930.695 L 230.16 930.929 C 231.477 904.565 230.76 877.868 230.802 851.465 C 230.919 777.889 229.03 703.828 231.424 630.302 C 237.764 629.224 244.221 628.914 250.628 628.43 z"/>
<path transform="translate(0,0)" fill="rgb(10,10,10)" d="M 676.563 224.428 C 686.046 224.226 695.251 224.641 704.695 225.368 L 705.951 414.386 L 706.372 480.818 C 706.486 494.577 706.141 508.555 707.372 522.261 C 700.873 521.479 693.704 521.98 687.124 521.906 L 653.163 521.795 L 654.002 225.888 C 661.471 225.105 669.063 224.873 676.563 224.428 z"/>
<path transform="translate(0,0)" fill="rgb(10,10,10)" d="M 498.397 209.012 L 547.306 210.807 C 545.218 227.592 544.868 244.647 543.331 261.495 L 529.611 408.731 C 526.045 446.055 523.412 485.682 512.446 521.671 C 512.34 521.819 512.263 521.993 512.127 522.114 C 508.823 525.07 473.465 523.61 467.375 523.57 C 471.588 503.04 472.742 481.212 474.968 460.321 C 480.205 412.141 484.561 363.87 488.035 315.531 C 490.888 280.197 497.324 244.357 498.397 209.012 z"/>
<path transform="translate(0,0)" fill="rgb(10,10,10)" d="M 555.248 643.428 C 567.556 642.878 579.643 643.056 591.918 644.186 C 592.098 706.91 591.796 769.634 591.012 832.353 C 590.925 864.376 589.473 896.965 592.111 928.888 C 588.667 930.101 584.565 929.481 580.96 929.323 C 567.606 928.896 554.199 929.109 540.838 929.122 C 542.57 891.581 541.942 853.767 541.951 816.185 L 542.072 644.085 L 555.248 643.428 z"/>
<path transform="translate(0,0)" fill="rgb(10,10,10)" d="M 921.212 209.46 C 936.142 209.003 951.148 208.571 966.049 209.79 C 968.274 282.303 965.96 355.366 965.892 427.934 L 965.876 481.319 C 965.881 491.511 965.375 502.126 966.424 512.263 C 966.794 515.842 967.677 518.749 969.207 521.995 L 923.883 522.263 C 924.549 486.451 922.805 450.655 922.411 414.846 L 921.212 209.46 z"/>
<path transform="translate(0,0)" fill="rgb(10,10,10)" d="M 451.351 690.616 C 469.968 691.824 489.432 689.039 507.823 692.329 C 512.015 746.984 509.514 802.785 509.095 857.575 C 508.82 873.479 508.797 889.386 509.026 905.291 C 509.161 913.088 510.356 921.357 509.816 929.068 C 490.053 928.857 470.255 929.441 450.493 929.761 C 453.2 905.641 451.769 879.937 451.852 855.639 C 452.039 800.624 450.89 745.629 451.351 690.616 z"/>
<path transform="translate(0,0)" fill="rgb(10,10,10)" d="M 644.623 694.429 C 657.689 693.634 670.862 694.009 683.924 694.706 C 684.077 743.817 685.415 792.931 685.882 842.04 C 686.086 863.576 683.391 912.218 688.428 929.731 L 674.004 929.871 L 628.793 929.773 C 631.996 894.654 629.493 858.035 629.312 822.766 C 629.094 780.342 630.524 737.64 629.079 695.268 C 634.26 695.058 639.445 694.714 644.623 694.429 z"/>
<path transform="translate(0,0)" fill="rgb(10,10,10)" d="M 419.557 651.394 C 427.387 650.507 434.954 651.074 442.707 652.296 C 443.712 712.877 443.215 773.659 443.1 834.259 C 443.04 865.61 440.742 898.745 444.384 929.827 L 427.5 929.947 L 402.732 930.182 C 405.835 903.107 403.986 874.283 404.2 847 L 403.955 653.473 C 409.13 652.607 414.351 652.035 419.557 651.394 z"/>
<path transform="translate(0,0)" fill="rgb(10,10,10)" d="M 804.583 217.423 C 809.348 216.989 814.293 217.161 819.084 217.075 L 818.725 420.267 L 818.165 479.22 C 818.025 493.541 816.634 509.016 819.624 523.057 L 798.235 522.934 L 782.552 522.983 C 785.076 510.942 784.156 497.693 784.153 485.441 L 784.195 430.629 L 784.707 296.557 C 784.756 270.733 785.802 244.484 784.228 218.726 C 790.991 218.131 797.806 217.842 804.583 217.423 z"/>
<path transform="translate(0,0)" fill="rgb(10,10,10)" d="M 860.3 258.364 C 869.522 258.337 878.755 258.546 887.977 258.65 L 889.768 400.752 C 889.976 440.938 889.423 481.99 892.652 522.049 C 881.788 521.966 870.923 522.054 860.062 522.313 C 859.794 458.341 860.049 394.368 860.828 330.4 C 860.973 306.402 859.505 282.34 860.3 258.364 z"/>
<path transform="translate(0,0)" fill="rgb(10,10,10)" d="M 548.552 284.677 C 549.829 296.102 549.011 307.725 548.831 319.197 L 548.237 371.535 C 547.863 421.672 548.672 471.875 548.738 522.027 C 539.607 522.08 530.459 522.519 521.331 522.815 L 520.465 521.526 C 526.013 509.415 526.666 496.335 528.758 483.348 C 536.24 436.901 539.745 389.671 543.604 342.812 C 545.195 323.481 545.977 303.899 548.552 284.677 z"/>
<path transform="translate(0,0)" fill="rgb(235,234,234)" d="M 967.181 734.07 C 975.228 733.638 982.262 735.968 989.404 739.501 C 1008.98 749.183 1061.42 789.985 1077.87 805.492 C 1086.29 813.425 1093.2 826.392 1103.86 831.267 C 1116.59 837.084 1149.8 833.103 1165.62 834.857 C 1188.47 837.392 1210.1 842.424 1231.85 849.846 C 1242.65 841.72 1251.92 831.047 1262.06 822.027 C 1284.22 802.31 1309.82 782.651 1335.61 767.956 C 1340.93 764.922 1350.18 760.149 1356.45 762.683 C 1367.61 767.194 1369.55 783.996 1370.07 794.233 C 1371.32 818.34 1370.8 839.964 1364.77 863.569 C 1358.11 889.677 1343.99 918.238 1344.56 945.419 C 1344.69 951.705 1349.54 959.504 1351.66 965.59 C 1357.82 983.218 1358.44 1024.56 1354.16 1042.37 C 1352.09 1050.99 1348.41 1058.55 1344.51 1066.48 C 1353.05 1070.28 1361.43 1074.21 1369.44 1079.06 C 1382.09 1086.74 1393.96 1097.55 1408.53 1101.32 C 1434.53 1108.05 1464.5 1102.08 1491.19 1102.44 C 1569.81 1103.51 1659.5 1113.41 1732.03 1145.87 C 1807.78 1179.75 1870.53 1251.47 1899.66 1328.28 C 1929.85 1407.89 1933.15 1500.19 1897.44 1578.7 C 1888.07 1599.31 1875.5 1617.2 1861.23 1634.64 C 1800.36 1709.12 1711.72 1747.53 1618.74 1764.31 C 1581.68 1770.99 1538.78 1770.65 1504.27 1786.48 C 1487.75 1794.06 1471.29 1805.88 1458.41 1818.65 C 1438.43 1838.46 1421 1866.07 1393.55 1876.14 C 1378.38 1881.7 1358.47 1882.67 1343.72 1875.5 C 1332.37 1869.98 1322.71 1858.73 1318.69 1846.78 C 1311.1 1824.24 1323.63 1792.78 1333.99 1773 C 1359.04 1725.14 1415.37 1694.09 1465.24 1678.65 C 1440.66 1676.01 1415.79 1669.9 1391.57 1664.9 C 1355.51 1657.2 1319.32 1650.11 1283.01 1643.62 C 1248.15 1637.34 1213.04 1630.73 1178.07 1625.18 C 1157.38 1621.9 1136.55 1619.49 1115.83 1616.4 L 973.27 1593.7 C 956.513 1590.94 885.208 1582.6 876.036 1575.21 C 874.766 1574.19 875.131 1573.43 875.028 1571.94 C 877.685 1569.6 880.377 1569.92 883.794 1570.28 C 894.757 1571.44 905.648 1574.86 916.601 1576.61 L 1021.41 1593.02 L 1211.65 1623.09 C 1231.21 1626.35 1250.87 1628.97 1270.37 1632.58 C 1302.37 1638.52 1334.5 1644.51 1366.32 1651.27 C 1393.41 1657.04 1420.44 1662.53 1447.78 1667 C 1460.75 1669.12 1474.08 1671.9 1487.26 1671.74 C 1511.55 1671.43 1537.2 1663.8 1560.92 1658.83 C 1635.35 1643.25 1707.04 1629.58 1762.4 1572.2 C 1797.72 1535.59 1805.93 1496.67 1804.99 1447.58 C 1798.13 1473.03 1784.06 1494.15 1765.1 1512.26 C 1716.64 1558.54 1653.64 1572.19 1589.49 1580.59 C 1560.45 1584.39 1530.76 1587.16 1501.45 1586.25 C 1476.56 1585.47 1451.9 1580.54 1427.14 1578.03 C 1406.45 1575.94 1385.61 1573.64 1364.85 1572.51 C 1345.68 1571.46 1326.32 1571.58 1307.11 1571.07 C 1300.72 1576.7 1294.48 1578.04 1286.01 1577.75 C 1268.85 1577.17 1243.66 1566.22 1231.91 1553.51 C 1225.57 1546.64 1220.9 1537.53 1221.5 1527.97 C 1222.39 1513.92 1231.8 1500.34 1242.27 1491.38 C 1250.34 1484.46 1259.63 1480.06 1270.07 1477.99 C 1324.63 1467.15 1418.87 1496.77 1477.92 1501.79 C 1460.08 1496.94 1443.99 1492.3 1428.74 1481.44 C 1407.62 1466.4 1390.04 1440.99 1386.01 1415.14 C 1380.45 1379.55 1391.06 1342.04 1412.25 1313.3 C 1442.29 1272.56 1493.63 1246.12 1541.09 1231.34 C 1549.21 1228.81 1557.99 1225.46 1566.44 1224.46 C 1570.06 1224.03 1572.69 1224.68 1575.61 1226.94 C 1575.39 1232.63 1539 1240.58 1532.46 1242.8 C 1496.41 1255.04 1461.28 1274.56 1433.76 1301.03 C 1408.32 1325.48 1392.64 1360.57 1392.31 1396.02 C 1391.95 1433.4 1417.5 1471.81 1452.04 1486.35 C 1463.66 1491.24 1515.21 1502.15 1519.06 1506.75 C 1520.14 1508.04 1519.73 1507.84 1519.53 1509.76 C 1515.18 1513.75 1505.37 1511.64 1499.79 1511.51 C 1488.86 1511.25 1477.76 1511.44 1466.89 1510.22 C 1429.74 1506.03 1393.36 1495.61 1356.42 1490 C 1332.72 1486.4 1306.37 1482.33 1282.47 1485.04 C 1264.56 1487.07 1249.84 1492.65 1238.67 1507.28 C 1232.9 1514.83 1228.39 1524.8 1230.1 1534.49 C 1232.34 1547.16 1244.66 1554.86 1254.45 1561.56 C 1252.65 1557.78 1251.15 1553.94 1249.68 1550.02 C 1251.2 1541.24 1253.05 1532.58 1258.17 1525.08 C 1261.49 1520.22 1266.47 1515.18 1272.54 1514.25 C 1274.85 1513.9 1276 1513.87 1277.93 1515.31 L 1277.85 1517.32 C 1275.89 1521.71 1271.91 1522.34 1268.51 1525.31 C 1262.98 1530.13 1258.96 1537.79 1258.86 1545.18 C 1258.76 1553.69 1263.16 1559.48 1268.84 1565.26 L 1269.89 1566.31 C 1277.25 1568.83 1284.34 1569.03 1292.01 1569.01 C 1286.66 1563.11 1282.15 1556.34 1281.67 1548.16 C 1281.24 1540.94 1282.61 1531.73 1287.67 1526.19 C 1289.13 1524.6 1288.37 1525.05 1290.61 1524.93 C 1290.81 1525.16 1291.04 1525.36 1291.2 1525.62 C 1293.74 1529.51 1291.57 1535.37 1290.88 1539.62 C 1289.37 1548.9 1290.95 1554.37 1296.29 1561.98 L 1297.13 1563.16 C 1310.96 1559.92 1306.76 1563.16 1316.95 1563.29 C 1327.96 1563.44 1338.96 1562.3 1350 1562.55 C 1365.84 1562.91 1381.69 1565.18 1397.43 1566.87 C 1430.84 1570.46 1464.98 1575.93 1498.51 1577.37 C 1547.21 1579.47 1634.07 1569.25 1679.88 1553.47 C 1726.24 1537.51 1771.22 1506.15 1792.03 1460.44 C 1797.22 1449.04 1797.86 1434.62 1803.86 1423.99 C 1805.09 1421.81 1806.02 1421.33 1808.35 1420.65 C 1810.5 1422.3 1811.16 1423.4 1811.92 1426.03 C 1813.85 1432.8 1813.48 1441.09 1813.68 1448.13 C 1814.62 1481.78 1810.45 1514.09 1793.75 1543.88 C 1747.43 1626.54 1645.31 1652.57 1558.83 1668.45 C 1529.57 1673.82 1498.68 1677.37 1470.12 1685.44 C 1422.28 1698.95 1365.53 1733.21 1340.92 1777.31 C 1331.51 1794.16 1319.68 1824.46 1326.11 1843.81 C 1329.13 1852.89 1338.79 1863.14 1347.18 1867.36 C 1368.33 1878.01 1395.57 1868.87 1412.51 1854.62 C 1426.05 1843.22 1437.16 1828.95 1449.51 1816.3 C 1458.96 1806.62 1469.95 1797.89 1480.97 1790.07 C 1515.66 1765.45 1560.45 1764.48 1601.07 1757.87 C 1632.17 1752.8 1662.84 1747.3 1692.64 1736.85 C 1760.21 1713.16 1819.82 1677.25 1863.12 1618.98 C 1872.77 1606 1881.95 1592.53 1888.92 1577.9 C 1923.95 1504.3 1922.01 1414.47 1894.94 1338.72 C 1865.54 1256.4 1801.2 1184.1 1719.92 1149.95 C 1658.72 1124.23 1584.65 1114.88 1518.83 1111.54 C 1503.83 1110.76 1488.79 1110.59 1473.77 1111.03 C 1452.27 1111.69 1427.03 1114.93 1406 1109.8 C 1387.35 1105.25 1360.35 1082.96 1340.68 1073.62 C 1333.56 1084.42 1326.18 1095.05 1318.53 1105.48 C 1330.69 1111.54 1372.46 1137.13 1379.8 1147.55 C 1381.36 1149.76 1381.23 1151.05 1380.84 1153.61 L 1379.09 1154.76 C 1376.22 1154.41 1374.17 1153.17 1371.74 1151.67 C 1365.21 1147.64 1359.18 1142.36 1352.98 1137.81 C 1340.27 1128.47 1327.31 1119.45 1313.56 1111.7 C 1286.36 1137.67 1236.56 1164.05 1202.87 1181.34 C 1163.52 1201.54 1061.26 1242.48 1043.57 1281.99 C 1029.15 1314.2 1067.5 1332.14 1071.06 1347.53 C 1071.69 1350.26 1071.48 1351.49 1069.97 1353.84 C 1061.06 1367.7 998.255 1382.38 981.768 1385.76 C 947.31 1392.99 909.636 1402.6 877.017 1415.73 C 853.919 1425.02 829.97 1438.52 810.286 1453.71 C 781.92 1475.61 742.005 1520.93 728.202 1554.15 C 721.754 1569.67 714.357 1593.12 721.556 1609.29 C 727.695 1623.07 739.586 1630.92 753.119 1636.12 C 748.693 1624.65 741.913 1603.24 748.077 1591.53 C 749.43 1588.96 750.868 1588.53 753.481 1587.58 C 756.278 1589.09 755.579 1592.39 755.397 1595.25 C 754.336 1611.99 755.408 1620.29 764.7 1634.58 C 768.86 1634.15 773.095 1633.61 777.065 1632.24 C 803.823 1622.99 815.836 1590.71 827.525 1567.81 C 835.673 1551.85 846.557 1537.89 861.249 1527.44 C 908.142 1494.11 1024.5 1485.27 1080.5 1482.73 C 1122.49 1480.82 1167.39 1482.31 1207.76 1469.09 C 1255.28 1453.53 1292.03 1402.02 1312.18 1358.58 C 1315.32 1351.83 1318.36 1344.99 1320.86 1337.98 C 1322.72 1332.8 1323.81 1325.78 1326.59 1321.23 C 1328.3 1318.43 1330.02 1316.85 1333.21 1316.16 L 1334.45 1317.46 C 1334.78 1319.09 1334.89 1320.45 1334.71 1322.12 C 1332.58 1342.02 1312.72 1377.82 1301.74 1395.67 C 1286.58 1420.29 1257.46 1454.53 1232.01 1468.05 C 1192.88 1488.84 1140.71 1488.4 1097.44 1490.41 C 1032.69 1493.42 937.799 1497.55 879.58 1527.12 C 827.086 1553.79 834.906 1600.08 795.252 1631.38 C 782.846 1641.16 766.083 1644.17 750.59 1641.98 C 738.029 1640.2 727.259 1632.3 719.906 1622.19 C 711.244 1610.29 709.24 1596.22 711.415 1581.97 C 720.12 1524.93 775.585 1468.92 820.581 1435.6 C 806.894 1432.27 792.857 1431.59 778.85 1432.72 C 745.519 1435.39 700.27 1442.15 677.713 1469.5 C 669.165 1479.86 663.736 1492.37 654.792 1502.69 C 632.664 1528.24 619.753 1524.82 588.71 1527.15 C 583.141 1531.43 577.444 1533.99 570.356 1534.68 C 558.666 1535.82 550.838 1529.41 542.559 1522.26 C 534.643 1520.84 526.387 1520.58 518.398 1519.43 C 502.617 1517.15 440.509 1507.02 429.381 1500.73 C 427.361 1499.59 426.653 1498.95 426.139 1496.63 L 427.676 1495.01 C 430.504 1494.19 432.784 1493.95 435.729 1494.33 C 443.023 1495.28 450.135 1498.03 457.33 1499.57 C 482.147 1504.89 508.741 1510.99 534.078 1512.47 C 530.999 1504.7 528.91 1498.63 528.917 1490.05 C 528.944 1454.61 549.885 1440.79 572.46 1418.86 C 560.979 1419.35 549.522 1420.3 538.116 1421.7 C 493.613 1427.13 446.685 1442.69 418.197 1479.61 C 385.685 1521.75 387.316 1636.53 394.313 1688.75 C 406.721 1703.66 428.308 1714.22 446.107 1720.94 C 466.744 1728.73 489.592 1733.89 510.978 1739.29 C 563.506 1751.99 616.328 1763.46 669.397 1773.67 C 796.322 1799.5 923.485 1824.15 1050.87 1847.61 C 1094.91 1855.99 1138.96 1863.37 1182.89 1872.47 C 1193.8 1874.73 1204.93 1875.94 1215.81 1878.45 C 1220.42 1879.52 1226.35 1880.61 1229.48 1884.38 L 1229.14 1886.44 C 1227.34 1887.77 1227.19 1888.04 1224.95 1888.01 C 1212.93 1887.86 1188.75 1881.76 1175.72 1879.4 C 1133.6 1871.84 1091.53 1864 1049.51 1855.9 C 982.192 1843.55 914.97 1830.69 847.847 1817.33 C 778.745 1804.16 709.633 1791.53 640.85 1776.75 C 590.192 1765.86 538.375 1756.93 488.583 1742.65 C 455.681 1733.22 417.915 1723.96 393.333 1698.85 C 393.578 1702.39 393.741 1705.94 393.824 1709.5 C 394.103 1724.52 393.13 1739.56 392.991 1754.58 L 392.257 1850.88 C 391.899 1876.06 393.536 1901.9 391.739 1926.98 C 391.529 1929.91 391.655 1931.45 389.584 1933.61 C 387.439 1932.97 386.871 1932.81 385.492 1930.91 C 382.192 1926.35 383.984 1879 384.036 1870.05 C 384.385 1809.91 385.834 1749.63 385.263 1689.5 C 384.907 1651.92 381.005 1615.04 383.223 1577.38 C 384.295 1559.18 385.923 1539.86 389.824 1522.03 C 391.863 1512.72 395.955 1503.81 397.33 1494.36 C 398.684 1485.06 398.003 1475.08 398.004 1465.67 L 397.96 1417.77 C 397.852 1353.34 405.628 1254.47 365.096 1201.07 C 348.285 1178.93 326.354 1166.79 298.81 1163.29 C 267.597 1159.32 227.612 1166.79 202.526 1186.74 C 181.308 1203.61 168.85 1232.94 165.838 1259.33 C 161.856 1294.23 169.992 1329.16 197.821 1352.22 C 207.425 1360.18 218.876 1367.13 226.456 1377.16 C 234.89 1388.32 239.293 1405.07 240.59 1418.82 C 242.452 1438.57 241.661 1458.63 241.228 1478.42 C 240.451 1504.61 240.075 1530.81 240.098 1557.01 L 242.068 1781.91 C 242.309 1802.23 242.351 1822.56 242.192 1842.88 C 242.093 1850.74 242.817 1859.19 241.357 1866.92 C 240.801 1869.86 240.183 1871.78 237.638 1873.41 L 235.923 1872.12 C 234.688 1868.7 234.147 1865.65 233.891 1862.01 C 232.597 1843.61 233.932 1824.34 233.952 1805.85 L 233.943 1691.01 L 233.132 1437.77 C 232.987 1416.29 231.147 1391.54 213.772 1376.49 C 205.062 1368.94 195.434 1362.66 187.243 1354.47 C 165.425 1332.66 156.644 1303.84 156.792 1273.47 C 156.937 1243.5 169.229 1205.44 191.221 1184.3 C 206.368 1169.74 223.48 1155.71 242.335 1146.35 C 315.102 1110.23 439.461 1112.25 519.383 1114.14 C 574.881 1115.98 630.292 1119.87 685.503 1125.81 C 723.624 1129.79 763.087 1133.6 800.299 1142.96 C 807.039 1144.66 815.69 1144.97 820.716 1150.23 C 821.102 1152.61 821.189 1152.87 820.168 1155.03 C 814.178 1157.65 783.859 1148.32 775.841 1146.64 C 736.645 1138.43 696.441 1135.05 656.62 1131.39 C 576.57 1124.04 495.505 1119.68 415.13 1123.01 C 390.053 1124.05 364.91 1125.27 340.025 1128.69 C 301.786 1133.95 260.775 1142.28 228.084 1163.64 C 251.322 1156.56 272.97 1151.98 297.41 1154.27 C 325.406 1156.9 349.976 1168.05 367.933 1190.05 C 411.968 1243.99 406.273 1338.18 406.262 1404.37 C 406.258 1430.44 408.051 1458.05 405.29 1483.92 C 411.382 1475.23 418.393 1467.22 426.203 1460.02 C 436.922 1450.2 449.933 1440.17 462.778 1433.39 C 497.028 1415.32 542.766 1409.49 581.195 1411.3 C 606.913 1394.42 626.905 1369.73 655.439 1356.77 C 676.654 1347.2 698.625 1339.41 721.128 1333.47 C 763.497 1322.4 850.148 1312.69 875.987 1275.56 C 888.583 1257.46 886.427 1230.61 890.778 1209.68 C 894.799 1190.55 900.822 1171.91 908.749 1154.05 C 917.448 1134.96 929.487 1116.01 943.507 1100.38 C 949.358 1093.86 956.567 1088.23 961.819 1081.23 C 963.807 1078.58 965.062 1076.37 964.522 1072.95 C 956.644 1065.23 913.035 1078.65 902.736 1082.66 C 893.346 1086.32 882.714 1094.89 872.385 1094.63 C 870.249 1094.58 870.996 1094.94 869.747 1093.62 C 870.04 1092.71 870.021 1092.59 870.654 1091.67 C 872.922 1088.41 878.172 1085.5 881.584 1083.46 C 904.934 1069.48 931.273 1064.19 957.996 1061.73 C 955.053 1054.61 952.532 1047.49 950.239 1040.12 C 921.711 1038.36 894.223 1035.31 866.326 1044.29 C 858.546 1046.79 850.818 1050.92 843.34 1054.26 C 841.136 1053.74 841.532 1053.61 840.357 1051.86 C 840.635 1048.68 840.997 1047.74 843.584 1045.59 C 867.43 1025.8 919.355 1028.85 948.568 1031.3 C 940.065 999.869 946.026 964.918 958.698 935.503 C 963.47 924.428 969.63 913.981 974.609 902.977 C 973.542 887.361 968.91 872.161 965.789 856.888 C 963.778 847.049 962.908 837.003 961.333 827.091 C 957.51 803.022 948.523 771.494 955.132 747.724 C 957.208 740.261 960.651 737.881 967.181 734.07 z"/>
<path transform="translate(0,0)" fill="rgb(10,10,10)" d="M 967.259 742.639 C 988.985 741.969 1017.01 767.997 1033.56 780.78 C 1046.18 790.523 1059.44 800.09 1071.02 811.065 C 1080.17 819.731 1088.5 833.63 1099.87 839.372 C 1112.79 845.892 1139.71 842.043 1154.54 842.827 C 1181.97 844.278 1206.54 852.011 1232.57 859.588 C 1244.77 853.34 1252.92 841.708 1262.96 832.629 C 1286.59 811.271 1323.54 781.189 1353.29 770.121 L 1354.11 771.247 C 1361.34 781.357 1362.19 791.769 1362.73 803.792 C 1365 854.962 1345.06 889.114 1336.93 936.909 C 1322.96 927.713 1307.99 921.601 1292.43 915.67 C 1282.77 911.986 1272.05 908.904 1263.51 902.991 C 1261.26 898.365 1258.48 891.105 1259.4 885.888 C 1260.67 878.649 1307.86 846.289 1317.12 839.782 C 1320.33 837.523 1324.74 835.456 1327.5 832.799 C 1329.54 830.834 1329.43 830.359 1329.39 827.72 L 1327.51 825.969 C 1326.43 825.778 1326.24 825.672 1324.99 825.87 C 1314.67 827.502 1287.26 851.312 1277.54 858.203 C 1271.79 862.278 1265.48 865.708 1260.02 870.147 C 1257.31 872.348 1254.85 874.873 1253.13 877.936 C 1249.51 884.405 1250.24 892.962 1252.57 899.751 C 1254.12 904.384 1257.02 908.445 1260.91 911.41 C 1273.26 920.965 1303.3 927.741 1319.04 936.079 C 1332.13 943.016 1338.44 953.37 1342.67 967.123 C 1348.51 986.039 1351.25 1022.59 1346.25 1041.47 C 1344.22 1049.15 1340.43 1055.9 1336.72 1062.87 C 1331.69 1061.35 1326.64 1059.89 1321.58 1058.48 C 1284.29 1048.28 1243.42 1049.73 1205.75 1057.22 C 1199.79 1058.4 1189.16 1060.1 1184.26 1063.97 C 1182.13 1065.64 1182.12 1066.7 1181.72 1069.16 C 1182.55 1070.32 1182.59 1071.11 1184.15 1071.23 C 1190.4 1071.72 1215.81 1063.51 1226.26 1062.21 C 1262.56 1057.67 1296.68 1060.43 1331.89 1069.79 C 1325.81 1080.85 1318.62 1091.53 1311.96 1102.28 C 1282.4 1085.96 1253.18 1079.62 1220.28 1073.73 C 1214.76 1072.74 1204.75 1069.64 1199.35 1070.92 C 1196.87 1071.5 1196.26 1072.21 1195.19 1074.26 C 1196.3 1076.99 1197.68 1077.69 1200.44 1078.53 C 1211.45 1081.87 1223.54 1083.14 1234.85 1085.34 C 1259.6 1090.15 1282.69 1096.91 1305.63 1107.57 C 1282.16 1127.89 1254.96 1142.56 1228.01 1157.59 C 1210.99 1167.08 1194.31 1176.78 1176.67 1185.13 C 1136.3 1204.23 1095.91 1221.09 1060.81 1249.56 C 1047.69 1260.21 1034.29 1273.99 1032.85 1291.73 C 1030.96 1315.21 1048.26 1332.44 1062.21 1349.03 C 1037.19 1367.43 999.076 1373.48 969.253 1379.74 C 936.613 1386.84 881.779 1401.4 852.781 1416.66 C 845.811 1420.33 835.609 1427.77 828.06 1428.54 C 827.709 1428.19 827.387 1427.81 827.006 1427.5 C 820.311 1421.93 774.599 1424.47 765.026 1425.66 C 733.65 1429.57 696.11 1436.27 674.278 1461.27 C 666.61 1470.05 661.199 1480.7 653.987 1489.87 C 647.482 1498.14 633.596 1515.13 622.426 1515.95 C 616.04 1516.42 609.977 1509.01 605.466 1504.99 C 608.891 1502.72 614.781 1499.71 616.39 1495.79 C 617.473 1493.16 617.226 1492.44 616.038 1490.12 L 613.521 1489.61 C 607.2 1491.19 603.476 1495.27 599.231 1499.88 C 597.337 1506.72 604.295 1508.62 604.973 1514.39 C 605.143 1515.84 604.013 1516.29 603.069 1517.2 C 598.332 1518.77 593.229 1518.14 588.299 1517.97 C 565.86 1501.61 584.821 1486.82 580.051 1473.31 C 578.167 1472.05 578.246 1472.02 576.018 1472.35 C 571.179 1476.69 570.065 1487.33 569.403 1493.6 C 568.043 1506.48 571.652 1514.55 579.466 1524.33 C 569.883 1526.31 563.135 1525.97 553.931 1522.94 C 553.787 1522.66 553.625 1522.4 553.498 1522.11 C 551.019 1516.62 548.726 1515.22 544.586 1511.37 C 538.491 1505.7 536.792 1498.67 536.963 1490.6 C 537.692 1456.17 561.053 1439.52 585.477 1419.87 C 609.237 1400.74 631.729 1377.48 659.382 1364.07 C 679.549 1354.28 702.742 1346.87 724.447 1341.31 C 768.154 1330.1 842.988 1320.81 875.877 1289.02 C 893.324 1272.16 893.697 1250.9 896.43 1228.42 C 897.86 1216.65 899.883 1204.63 903.024 1193.21 C 914.427 1151.77 939.183 1114.22 970.198 1084.7 C 975.274 1091.98 980.337 1099.3 986.138 1106.02 C 1011.48 1135.4 1048.65 1154.66 1087.48 1157.14 C 1114.17 1158.85 1136.4 1151.86 1159.97 1139.69 C 1165.32 1136.92 1172.47 1133.96 1176.85 1129.76 C 1179.4 1127.31 1180.76 1124.74 1180.85 1121.28 C 1178.56 1120.27 1177.32 1120.64 1175.09 1121.64 C 1155.73 1130.31 1139.5 1141.52 1118.17 1145.96 C 1085.17 1152.85 1048.37 1143.14 1020.69 1124.67 C 1009.8 1117.4 980.176 1092.67 978.987 1079.59 C 978.74 1076.87 979.201 1074.64 981.19 1072.69 C 985.385 1068.57 1022.29 1073.07 1030.36 1073.1 C 1033.65 1071.3 1036.58 1069.61 1039.44 1067.17 C 1040.09 1064.78 1040.45 1064.01 1039.27 1061.65 C 1032.67 1048.38 972.138 1035.44 956.448 1032.51 C 949.104 978.692 957.891 947.734 985.689 901.572 C 975.752 881.292 969.937 828.653 966.108 804.483 C 963.293 786.712 956.1 757.995 967.259 742.639 z"/>
<path transform="translate(0,0)" fill="rgb(235,234,234)" d="M 1061.6 977.602 C 1061.78 978.41 1062.12 979.729 1062.11 980.529 C 1062.1 982.904 1060.95 984.458 1059.14 985.848 C 1052.68 990.818 1040.24 990.856 1032.43 989.782 C 1021.89 988.331 1012.5 981.66 1006.35 973.143 C 1002.55 967.886 998.531 960.487 999.712 953.863 C 1002.24 951.208 1004.68 950.811 1008.29 950.714 C 1024.95 950.264 1051.97 953.142 1064.04 964.808 C 1079.81 980.048 1080.65 1008.88 1081.1 1029.62 C 1097.72 1033.21 1114.5 1036.05 1131.13 1039.56 C 1132.1 1034.07 1133.34 1028.63 1134.87 1023.27 C 1140.05 1005.56 1151.79 987.731 1168.23 978.895 C 1180.66 972.22 1209.37 963.781 1222.89 968.441 C 1225.32 969.279 1227.81 971.14 1228.51 973.737 C 1229.97 979.113 1224.87 987.575 1222.15 992.132 C 1217.41 1000.11 1210.57 1004.76 1201.54 1006.92 C 1194.09 1008.69 1175.58 1008.82 1169 1004.08 C 1166.96 1002.61 1166.42 1001.47 1166.03 999.074 C 1170.43 995.524 1184.25 998.309 1190.14 998.582 C 1198.1 998.95 1206.19 997.151 1212.06 991.468 C 1215.68 987.961 1219.93 982.747 1219.94 977.5 L 1218.32 976.34 C 1208.65 975.623 1197.35 978.52 1188.05 980.996 C 1164.13 987.367 1148.56 1005.55 1142.28 1029.05 C 1139.65 1038.87 1138.57 1049.98 1133.14 1058.73 C 1126.55 1069.38 1117.07 1071.52 1105.69 1074.07 C 1106.81 1081.33 1108.48 1088.02 1112.3 1094.39 C 1127.73 1120.13 1144.59 1107.64 1163.76 1112.4 L 1164.53 1113.78 C 1163.34 1116.31 1162.14 1118.02 1159.61 1119.3 C 1152.04 1123.12 1138.39 1121.22 1130.47 1118.78 C 1117.18 1114.7 1105.28 1103.23 1101.07 1089.89 C 1099.59 1085.2 1099.86 1080.25 1097.6 1075.82 L 1096.09 1075.76 C 1095.46 1081.86 1094.46 1087.69 1091.54 1093.16 C 1086.39 1102.66 1077.63 1109.67 1067.24 1112.61 C 1059.16 1114.96 1037.72 1116.47 1030.86 1111.24 C 1028.74 1109.63 1028.69 1109.07 1028.45 1106.62 C 1029.44 1105.41 1029.82 1104.25 1031.49 1104.04 C 1034.16 1103.72 1036.92 1104.72 1039.54 1105.27 C 1048.2 1107.1 1058 1106.81 1066.28 1103.61 C 1080.39 1098.16 1085.68 1086.31 1091.49 1073.48 C 1082.02 1067.63 1071.1 1065.23 1063.67 1056.11 C 1060.95 1052.78 1059.07 1048.61 1059.75 1044.23 C 1060.84 1037.2 1066.8 1032.49 1072.23 1028.66 C 1071.32 1012.3 1072.4 990.314 1062.37 976.608 C 1048.18 958.94 1027.65 961.879 1007.69 957.671 C 1012.47 967.121 1018.19 976.122 1028.97 979.32 C 1039.32 982.392 1051.27 979.423 1061.6 977.602 z"/>
<path transform="translate(0,0)" fill="rgb(10,10,10)" d="M 1075.67 1038.07 C 1094.85 1039.42 1114.67 1045.05 1133.67 1048.43 C 1129.26 1052.02 1125.16 1056.16 1121 1060.05 C 1113.25 1064.46 1105.15 1064.47 1096.53 1063.27 C 1087.51 1062.01 1075.58 1058.43 1070.15 1050.56 C 1068.5 1048.17 1068.34 1046.26 1068.8 1043.42 C 1070.6 1040.55 1072.78 1039.58 1075.67 1038.07 z"/>
<path transform="translate(0,0)" fill="rgb(235,234,234)" d="M 1009.35 767.519 C 1011.23 768.015 1013.12 768.633 1014.83 769.562 C 1028.42 776.928 1065.28 838.13 1071.33 855.313 C 1067.22 857.507 1063.49 859.017 1061.1 863.219 C 1059.71 864.229 1059.19 863.911 1057.52 863.895 L 1055.78 862.111 C 1053.09 853.697 1059.28 856.269 1059.42 851.694 C 1059.65 844.844 1024.73 792.035 1018.44 784.342 C 1015.54 780.791 1011.41 778.34 1008.26 774.947 C 1007.67 771.596 1008.23 770.648 1009.35 767.519 z"/>
<path transform="translate(0,0)" fill="rgb(10,10,10)" d="M 959.627 1041.63 C 982.924 1046.02 1009.14 1052.4 1029.71 1064.77 C 1020.26 1064.45 1010.71 1062.94 1001.25 1062.29 C 990.52 1061.55 979.684 1061.91 968.933 1062.08 C 965.416 1055.47 962.577 1048.51 959.627 1041.63 z"/>
<path transform="translate(0,0)" fill="rgb(235,234,234)" d="M 1594.93 638.432 C 1632.66 635.882 1933.98 637.424 1947.56 646.346 C 1949.49 647.61 1949.48 648.613 1949.7 650.659 C 1947.65 653.3 1943.59 653.62 1940.47 653.742 C 1930.55 654.128 1919.9 652.356 1909.96 651.646 C 1890.33 650.175 1870.67 649.053 1851 648.282 C 1796.39 645.982 1742.11 645.588 1687.47 645.789 C 1658.39 645.897 1629.15 645.391 1600.08 646.286 C 1503.54 649.419 1407.35 659.528 1312.27 676.535 C 1254.15 686.567 1186.4 705.039 1138.41 740.764 C 1123.49 751.874 1110.53 767.228 1099.93 782.414 C 1095.49 788.778 1091.58 796.034 1086.62 801.96 C 1085.09 803.787 1083.71 805.01 1081.36 805.657 L 1079.66 804.489 C 1079.32 803.589 1079.05 803.096 1079.07 802.038 C 1079.29 791.533 1103.16 763.216 1110.34 755.326 C 1173.69 685.696 1306.41 666.213 1395.14 654.917 C 1428.66 650.649 1462.25 646.086 1495.95 643.421 C 1528.9 640.814 1561.92 640.027 1594.93 638.432 z"/>
<path transform="translate(0,0)" fill="rgb(235,234,234)" d="M 1073.96 105.182 C 1075.85 105.501 1077.34 106.115 1079.08 106.893 C 1081.1 110.028 1080.77 115.371 1080.79 119.05 L 1080.31 407.021 C 1080.7 459.376 1080.69 511.734 1080.27 564.09 C 1080.27 588.035 1081.63 612.04 1080.76 635.972 C 1080.67 636.005 1080.57 636.046 1080.48 636.071 C 1077.79 636.765 1076.87 637.266 1074.36 636.013 C 1072.43 632.035 1072.23 627.473 1072.16 623.113 C 1071.5 581.848 1072.01 540.479 1072 499.201 L 1072.11 257.953 L 1071.97 164.795 C 1071.95 146.04 1069.45 123.405 1073.96 105.182 z"/>
<path transform="translate(0,0)" fill="rgb(235,234,234)" d="M 1910.61 894.868 C 1911.19 895.103 1911.81 895.264 1912.36 895.574 C 1914.62 896.855 1914.66 897.714 1915.01 900.045 C 1911.53 907.688 1893.42 913.416 1886.5 919.513 C 1860.7 942.246 1844.89 974.338 1834.36 1006.59 C 1823.91 1038.55 1818.65 1072.42 1815.78 1105.84 C 1815.04 1114.39 1814.44 1122.95 1814.49 1131.54 C 1814.55 1140.74 1816.5 1153.04 1814.46 1161.91 C 1814.05 1163.7 1812.98 1165.02 1811.89 1166.43 C 1809.95 1165.83 1808.44 1165.3 1807.47 1163.45 C 1804.01 1156.85 1806.13 1143.04 1806.39 1135.49 C 1807.82 1092.34 1810.91 1048.05 1825.63 1007.03 C 1842.65 959.608 1862.79 917.465 1910.61 894.868 z"/>
<path transform="translate(0,0)" fill="rgb(235,234,234)" d="M 1750.77 1733.89 C 1764.16 1733.52 1881.59 1753.63 1894.48 1759.55 C 1895.67 1762.06 1895.05 1762.4 1894.14 1765.06 C 1890.57 1765.59 1887.4 1765.45 1883.84 1764.93 C 1868.84 1762.75 1853.91 1759 1838.95 1756.36 C 1821.66 1753.3 1761.93 1746.27 1750.89 1740.33 C 1749.59 1737.47 1750.09 1736.86 1750.77 1733.89 z"/>
</svg>