<svg xmlns="http://www.w3.org/2000/svg" width="1365.333" height="1365.333" preserveAspectRatio="xMidYMid meet" version="1.0" viewBox="0 0 1024 1024"><g fill="#000" stroke="none"><path d="M0 512v512h1024V0H0zm540.2-329.3c0 71.4 0 130.9-.1 132.3-.3 2.9-1.7 4.7-2.8 3.6-.9-.9-1.7-259.8-.8-263.4.3-1.2 1.2-2.2 2-2.2 1.3 0 1.5 15.9 1.7 129.7M525.5 61.1c.4.5 0 1.8-.9 2.8-1.5 1.6-1.6 13.8-1.6 130.6 0 70.8-.2 129-.5 129.3s-1.1 0-1.8-.7c-.8-.8-1.4-6.7-1.7-18.4l-.5-17.2-87.5-.5c-48.1-.3-144-.5-213-.5H92.5v179h20l-.5-3c-.6-3.4-.6-18.5-.2-95.8l.2-53.8 3.5-1.5c3.6-1.5 22.6-1.9 27.5-.5 2.3.6 2.5 1.3 3 7l.5 6.4 9.3-.2c5.2-.1 12.9.1 17.3.5l8 .7-.2 69.6-.1 69.6h16.7l.3-70.3.2-70.3 2.8-1c1.5-.6 6.8-1.2 11.9-1.2 11.6-.2 12 .1 12.6 11l.4 8.3 14.6.2c11.7.3 15 .6 16.2 1.9 1.4 1.4 1.6 8.5 1.8 61.5l.2 59.9h8.6l-.1-73.1v-73.2l4.2-.5c2.4-.2 9.2-.3 15.2-.2 9.4.2 11.1.5 12.4 2.1 1.2 1.6 1.4 12 1.1 73.4l-.4 71.5h11V344.2l4.4-.6c6.2-.8 28.4-.7 29.8.2.8.5 1.3 17.3 2 60.7l.8 60 27.5.5c25.1.5 27.5.6 27.8 2.2.2 1-.2 1.8-1 1.8-.7 0-70.6.1-155.3.3l-154 .4v13.8l148.5.5c131.1.4 148.5.7 148.5 2s-7.5 1.6-59 2.1c-32.4.4-99.3.7-148.5.7l-89.5.1-.5 36.3c-.3 20-.7 36.4-.8 36.5-.1.2-.9.3-1.7.3-1.4 0-1.5-27-1.5-249.5.1-137.3.3-250.2.6-251 .5-1.3 27-1.5 218.4-1.5 152.8 0 218.1.3 218.5 1.1m428 259.8c17.4 1.2 22 2.2 21.2 4.4-.5 1.5-4.7 1.5-32.2-.3-33.9-2.3-152.1-2.1-183.5.3-29.2 2.2-75 7.8-96.4 11.8-53.6 10-86.5 23.6-103.4 42.7-6 6.8-18.2 23.6-18.2 25.1 0 .4 2.7 3.3 5.9 6.4l6 5.7H566c17.6 0 38.2 3.2 48.2 7.5 1.3.5 3.7-1.2 9.5-6.7 9.3-8.8 20-17.4 32.6-26.1 15.3-10.7 20.6-12.6 24-8.9 3.7 4 4.7 8.8 4.8 22.4 0 15.2-1.1 22.1-7.1 41.2-2.2 7.1-4.5 16-5.1 19.8-1 6.2-.9 7.5.9 11.6 3.5 8.3 4.4 15 4.1 30.2-.4 13.5-.6 14.8-3.2 19.7L672 533l6.2 3.1c3.5 1.7 9.9 5.6 14.3 8.5 10.6 7.1 14.6 7.8 38.5 7 50.7-1.8 108.1 7.9 139.1 23.4 15.7 7.9 37.4 24.8 49.1 38.2 23.3 26.6 38.2 62.1 41.7 99.2 1.9 19.3-.8 44.3-6.6 62.1-5.6 17.3-10.9 26.7-24.4 43.4-14.7 18.2-31.8 31.5-55.4 43-25.5 12.4-45.8 18.3-82 23.6-13.2 2-26.7 4.3-30 5.1-14.3 3.7-25.8 11.8-43.1 30.1-15.4 16.3-20.7 19.5-33.4 20.1-7.8.3-9 .1-14-2.5-6.5-3.3-12.6-10.7-13.5-16.6-1.4-7.9 2-20.8 8.8-34.1 4.8-9.2 17.3-22.7 27.2-29.2 5.5-3.6 24.7-13.6 30.5-15.9 1.4-.6 2.3-1.4 2-2-1.2-2.1-120.1-24.7-156-29.5-8.5-1.1-18.9-2.7-23-3.5s-15.1-2.6-24.5-3.9c-39.1-5.8-79.8-12.7-83.2-14.1-2.8-1.2-3.4-1.8-2.5-2.7s3.9-.7 12.9 1c15.1 2.9 37.9 6.5 92.8 14.7 24.2 3.6 47.2 7.3 51 8 3.9.8 15.6 2.8 26 4.5 10.5 1.7 34.6 6.2 53.7 10 39.2 7.9 63.1 12 69.8 12 5 0 58-10.6 72.9-14.5 26.5-7.1 47.9-18.9 64.2-35.6 6.2-6.3 8.6-9.7 12.7-18.1 5.6-11.4 7.7-18.5 8.6-30 .8-9.2-.5-10.7-3.3-4.2-6.3 14.3-23.5 31-40.8 39.7-18.3 9.3-39.5 14.4-75.2 18.2-18.6 2-35.1 1.9-52.7-.5-39.2-5.1-73.9-6.6-80.4-3.4-3.7 1.9-12.7 1.4-16.3-.8-1.2-.8-4.4-2.2-7.1-3.3-5.9-2.1-12.4-7.8-14.3-12.2-2.5-6.1-1.7-11.5 2.6-17.9 7.4-10.9 13.8-14.3 28.9-15.2 11.6-.6 24.8.9 51.5 5.9 11.4 2.1 23.1 4.1 26 4.3 2.9.3 5.3.5 5.5.6.8.1 1.2-.1 1.2-.8 0-.4-.3-.7-.7-.8-5-.5-17.5-9.4-22.9-16.2-10-12.7-13.5-25.2-11.4-40.8 3.6-27.5 18.8-46.5 50.5-63.3 11.5-6.1 31-13.4 39.5-14.7 3.6-.6 4-.4 4 1.4 0 1.7-1 2.3-5.7 3.3-23.5 4.8-51.7 20.1-66.8 36.1-10.6 11.2-18.5 30.5-18.5 45 0 6.1 2.5 16 5.6 22 2.9 5.7 12.5 15.9 19.1 20.3 4.2 2.7 9.7 4.5 26.3 8.7 11.1 2.7 13.2 3.6 12.7 5.1-.3.9-4 1.2-13.8 1.1-11.3-.1-16.8-.8-35.4-4.4-29.6-5.7-42-7.6-54.6-8.5-19.5-1.3-30.6 2.3-37.3 12.4-5.3 8-4.5 15.7 2.4 21.5 3.5 2.9 5.1 2.7 4.3-.4-1.6-5.9 6.4-19 11.5-19 3.3 0 2.6 2.5-1.2 4.8-3.8 2.2-7.2 9.6-6.2 13.4 1.1 4.5 4.9 7.9 9.6 8.8 2.5.5 4.8.6 5.2.4.4-.3-.1-2.2-1.2-4.2-3.1-5.7-2-17.2 1.6-17.2 1 0 1.2 1.4.8 6.2-.7 8.6.8 11.3 6.1 11.3 2.2 0 4.5.4 5.2.8s5.2.5 10 .2c6.3-.5 15.1 0 31.3 1.8 56.2 6.3 53 6.1 72 4.8 23.8-1.6 33-2.7 50-6.3 26.9-5.5 44.8-14.4 60.5-30.2 10.1-10.1 16-19.9 19-31.6.9-3.5 2.1-7.3 2.7-8.4 1.1-1.9 1.1-1.9 2.9.3 2.7 3.3 2 31.4-1 41.9-7.3 25.2-24.8 45-51.6 58.5-16.4 8.2-42.3 16.1-70 21.2-7.7 1.4-17.1 3.2-21 4-3.8.7-10.1 1.9-14 2.5-16.3 2.7-33.9 10.1-50.9 21.4-19.1 12.7-31.8 31.9-34 51.3-.8 7 .4 10.7 4.9 16.1 4.4 5.2 8 6.6 17 6.7 12 0 16.1-2.3 32.3-19 26.1-26.7 33.1-30.2 70.7-35.6 42.5-6.1 66.3-13.1 91.5-26.6 27.7-14.8 52.5-39.5 64.5-63.8 17.5-35.6 18.8-81.1 3.5-122.5-4.1-11.1-13.9-30.1-19.6-38-14.2-19.7-33.9-37-56.4-49.7-12.7-7.2-29.6-12.6-55.5-17.8-26.1-5.2-46.3-6.9-78-6.7-14.8.1-29.1-.1-31.8-.4-3.6-.4-8.3-2.8-19.5-9.5-8.1-4.9-15-8.9-15.4-8.9-.8 0-11.1 15-10.6 15.5.1.1 5.7 3.9 12.3 8.3 12.4 8.3 18.5 13.3 18.5 15.1 0 2.5-4.2.7-12.1-5.2-4.6-3.4-11.5-8.2-15.2-10.6l-6.8-4.4-2.2 2c-10.5 9.6-48.2 31.4-77.2 44.6-32.9 15.1-53.7 30.2-56.4 41-1.9 7.6-.1 12.3 9 23.4 3.3 3.9 5.9 7.8 5.9 8.7 0 3.8-21.2 12.4-41.1 16.6-17 3.6-46.3 11.9-56.9 16.1-18.3 7.3-36.8 20.3-49.6 34.6-17 19.2-24.9 32.3-28 46.6-2.1 10-1.3 14.4 3.8 20.1 4.2 4.8 9.2 8.1 10.8 7.1.5-.3.3-2.3-.6-4.7-2.6-7.3-1.2-17.8 2.3-17.8 1.1 0 1.3 1.3.8 6.7-.6 6-.4 7.3 1.7 11.3 2.9 5.4 5.7 6.1 11.6 3.1 6.7-3.4 13.9-12.4 19.8-24.7 6.3-13.2 11.4-19.9 19.5-25.9 17.7-13 57.7-20.9 119.4-23.5 13.8-.6 29-1.5 34-2.1 10.8-1.3 24.5-5.1 30.1-8.4 18.8-11 39.6-39.1 47.9-64.5 2.1-6.6 3.9-9 5.6-7.3 1.4 1.4-1.1 8.9-7.6 23-11.2 24.1-32.1 47.6-48 54.2-13.9 5.8-27.4 7.6-78.5 10.1-33.8 1.7-59.6 5.6-79.1 12-21.2 7-29.1 13.7-39.2 33.7-11.2 21.9-19.9 29.3-34.7 29.3-6.7 0-8.2-.3-12.3-3-5.5-3.4-10.3-9.7-11.8-15.4-2.9-10.6 4.5-31.8 16.4-47.5 6-7.9 24.7-27.1 31.2-32.1 3.8-2.9 5.3-4.6 4.6-5.3-1.9-1.9-16.2-2-28-.2-25.8 3.8-37.4 9.9-45.9 24.3-4.5 7.5-15.6 18.8-19.3 19.6-3.9.8-16.2 2-18.2 1.7-1-.1-2.7.5-3.7 1.4-2.1 1.9-9.5 3.1-13.4 2.1-1.3-.3-3.7-1.7-5.3-3-1.9-1.6-4.7-2.6-8.8-3-9.6-1.2-47.2-8.5-50-9.8-2.5-1.1-3.5-3.8-1.4-3.8.6 0 9.9 1.8 20.7 3.9 24.1 4.8 28.7 5.5 30.8 4.7 1.3-.5 1.4-.9.3-2.2-1.7-2.1-1.5-11.8.4-18 2.5-8.5 5.2-12.7 11.6-18.2 3.4-3 5.8-5.8 5.5-6.4-.9-1.4-14.8-.4-25.2 1.8-14.2 2.9-22.9 6.3-31.5 12.1-9.6 6.4-12.6 9.1-17.8 15.6-10.1 12.7-15.9 52.5-13 89.7l1.1 14.5 4.1 3.6c9.3 8.2 23.3 13.7 55.6 21.8 27.2 6.9 100.5 22 172.3 35.6 16.2 3.1 37.6 7.1 47.5 9s26.6 5 37 7c10.5 2 25.3 4.7 33 6.1 32.6 5.7 66.1 12.7 67.4 13.9 3.8 3.7-.8 3-96.4-14.9-59.6-11.1-184.6-35.4-201-39.1-6-1.3-21.8-4.7-35-7.5-44.7-9.6-69.1-17.5-79.7-26-2.6-2.1-3.9-2.6-4.4-1.8-.4.6-1 26.6-1.3 57.7-.5 49.4-.8 56.6-2.1 56.6s-1.5-9.1-1.9-74c-.5-104.1-.5-107.9.9-118.5 1.3-10.2 3.1-18.8 4.9-23.3 1.4-3.7 1.5-83.6.1-99.7-2.4-26.9-7.8-42.4-19-54.4-9.7-10.3-22.4-15.5-37.8-15.6-14.1 0-33.2 6.2-41.1 13.4-12.7 11.7-19.4 31.8-17 51.2 1.9 15 7.1 23.8 20.1 34 10 7.7 11.4 9.7 14.4 18.9l2.6 8 .4 114.1c.3 100.2.2 114.3-1.1 115.4-1.2 1-1.6 1-2-.1-.2-.8-.6-52.9-.8-115.9l-.2-114.5-2.3-6.2c-2.4-6.3-3-7-17.1-19.2-10.7-9.1-16-19.5-18.1-35.1-2.7-19.7 5.7-43.3 19.9-55.7 16.6-14.6 28.2-20.4 50.1-25.3 23.7-5.2 45.5-7 83.7-7 50.9 0 108.4 4.4 151.5 11.5 21.8 3.6 28.8 5.9 26 8.7-.7.7-4.5.2-11.9-1.6-31.3-7.4-90.3-13.1-148.3-14.2-52-1.1-86 1.9-112.2 9.7-8.9 2.6-18 6.7-17.4 7.8.3.5 3.2.2 6.3-.5 3.2-.8 9.6-1.4 14.3-1.4 28.3 0 45.4 13 54.9 41.6 5.5 16.6 6.3 25.4 6.8 73.9.2 24.2.6 44.6.9 45.4.3.9 2.8-.9 7.7-5.5 13.9-13.4 22.9-18.4 40.7-22.7 11.4-2.8 30.9-5.1 35.6-4.1 2.5.5 4-.4 11.4-6.5 25.4-21.2 39.9-27.8 78.5-36.1 39-8.4 56.8-16.5 62.3-28.3 1.2-2.5 2.6-8.4 3.2-13.3 4.2-33.5 13.3-54.5 33-75.7 6.6-7.1 7.2-8 5.7-9.4-2.9-3-22.1 1.3-37.4 8.3-7.1 3.2-9.3 3.5-9.3 1.4 0-1.5 12.8-8.2 20.6-10.6 4.1-1.3 10.7-2.9 14.7-3.5 3.9-.6 7.5-1.3 7.9-1.5.3-.2-.2-2.5-1.2-5.1-2.2-5.7-2.9-6-18.3-6.2-12.4-.1-23.4 1.8-32 5.6-5.9 2.7-7.9 2.5-6.1-.5 3.3-5.5 19.9-9.4 39.3-9.2l13.6.2-.2-2.4c-.2-1.2-.3-7.3-.4-13.3-.1-13.8 2.2-23 9.2-37.4 4.9-9.8 5.1-10.6 4.5-16-.4-3.1-1.3-8.1-2.1-11.1-.9-3-2.2-10-2.9-15.5-.8-5.5-2.2-14.3-3.1-19.5-1-5.8-1.6-13-1.3-18.8.3-8.8.5-9.5 3.1-11.8 3.5-3 6.8-3 13.4 0 5 2.4 38.4 26.6 41.2 29.9.7 1 1.9 1.7 2.5 1.7.7 0 3.8-4 6.9-8.9 11.3-17.6 24-28.2 46.1-38.6 26.2-12.4 57.1-19.6 115.1-26.9 32.8-4.1 46.8-5.4 70-6.6 24.5-1.2 157.6-.5 178 .9m3.9 127.9c.8 1.3-.7 2.7-5.9 5.6-7.9 4.2-14 10-20.1 19.2-14.6 21.9-22.7 52.9-24.3 92.9-.5 13.3-.9 16-2.1 16-1.3 0-1.5-2.5-1.4-17 .2-27.5 4.4-50.3 13.2-72.2 2.7-6.8 6.5-14.8 8.3-18 8.3-14 29.3-31.3 32.3-26.5m-57.3 421.8c30.3 5.2 47.2 8.7 47.6 10.1.8 2.2-3.4 2.3-13.3.3-5.4-1.2-20.6-3.8-33.8-6-13.1-2.1-24.3-4.3-24.8-4.8-1.3-1.3-.2-3.2 1.8-3.2.8 0 10.9 1.6 22.5 3.6"/><path d="M92.5 65.2c-.3.7-.4 45.2-.3 98.8l.3 97.5h17l.3-83.5c.1-45.9.5-84 .7-84.7.7-2 7-2.6 21-1.8l13.5.7.2 15.5.3 15.5 34.5.1 34.5.2.7 11c.3 6 .7 37.1.7 69v58h14.6l.7-7.5c.3-4.1 1.8-18.8 3.1-32.5 1.4-13.8 3.3-33.3 4.2-43.5s2.7-29.6 4-43.1c1.4-13.6 2.5-26.8 2.5-29.3 0-3.1.5-4.8 1.4-5.2 1.7-.6 31.4 1.3 32.7 2.2.6.3.5 1.2-.3 2.1-1.4 1.8-1.3 1.2-2.2 13-.7 9.3.2 12.4 2.4 8.3 1-1.9 1.9-2 12.8-1.8l11.7.3.5 67.2c.4 46.3.9 67.6 1.6 68.3s4.3 1 9 .8l7.9-.3.5-76 .5-76 14.5-.3c10.8-.2 15 .1 16.3 1.1 1.3.9 2 3.3 2.5 8.2l.7 7h30l.3-7.1c.2-6.3.6-7.4 3.1-9.8s3.5-2.6 11.7-2.9c4.9-.1 9.5.2 10.2.7 1.1.7 1.3 14.4 1 78.5l-.3 77.6 3.1.3c1.8.2 4.6-.1 6.2-.5l3-.8.7-66.5c.6-60.6.8-66.6 2.3-67.8 1.1-.9 4.4-1.2 10.2-1l8.5.3.6 29c.4 15.9.9 46.3 1.2 67.5l.6 38.5h4.3c3.3 0 4.2-.3 3.9-1.5-.7-2.9-1.6-156.5-.9-157.5.8-1.2 19.7-1.8 25.3-.7l4 .7.5 79.5.5 79.5h31v-196l-212.8-.3c-169.7-.2-212.9 0-213.2 1"/><path d="M114.7 96.7c-.3.5-.6 37.7-.8 82.8l-.4 82H141v-81.9c0-45-.3-82.2-.6-82.7-.6-1.1-25.1-1.2-25.7-.2m134.8 8.8c-.3 1-1.6 13-3.5 31.5-.5 4.7-2.1 22.4-3.5 39.5-1.4 17-3.7 40.9-5 53s-2.5 24.2-2.7 27l-.3 5 9.9.3c6 .2 10.3-.1 11.1-.8.7-.6 2-4.3 2.9-8.3 3.1-14.6 4.1-23.5 10.6-94.2 1.2-12.7 2.5-27.1 3-32 .5-5 1-11.7 1.1-15l.3-6-11.8-.5c-7.5-.3-12-.1-12.1.5m216.5-.7-4.5.7-.2 56.5c-.2 31.1.1 65.9.5 77.5l.7 21h20.6l-.1-77c0-42.3-.4-77.3-.9-77.8-1.1-1.1-10.6-1.7-16.1-.9m-65.5 4c-3.8.2-7.3.6-7.7 1s-.8 34.7-.8 76.2l-.1 75.5h16.9l.6-75.6c.5-60.1.3-75.8-.6-76.5-.7-.5-4.4-.8-8.3-.6m-70.5 4.1-2.5.7v146.9h25.6l-.1-65c0-65.2-.4-79.9-2.3-82.3-1-1.3-16.2-1.6-20.7-.3m-183.3 15.3c-1.6 1.2-1.7 5.6-1.5 67.3l.3 66h29v-134l-13-.3c-9.4-.2-13.5.1-14.8 1m32.8 0c-.3.7-.4 31-.3 67.3l.3 66h32v-134l-15.8-.3c-12-.2-15.9 0-16.2 1m99 2c-.3.7-.4 30.3-.3 65.8l.3 64.5h22l.3-64.4c.1-46.6-.1-64.8-.9-65.7-1.6-1.9-20.7-2-21.4-.2m79.2-.6c-.4.4-.7 29.9-.7 65.6 0 60.8.1 64.9 1.8 65.6.9.4 7.8.7 15.2.7h13.5v-132l-14.6-.3c-8-.1-14.8.1-15.2.4m72.8.6c-.3.7-.4 30.3-.3 65.8l.3 64.5h15l-.4-46c-.2-25.3-.7-54.8-1-65.5l-.6-19.5-6.3-.3c-4.4-.2-6.4.1-6.7 1m-158.9 43.9c-.2.8-1.3 12.2-2.5 25.4-1.1 13.2-3.2 31.4-4.6 40.5s-2.6 17.4-2.8 18.5c-.2 1.8.4 2 5.8 2h6l.3-42.9c.1-27.1-.1-43.3-.8-44-.6-.6-1.1-.4-1.4.5M92.4 265.9c-.8.8-.4 15 .5 15.5.5.4 93.5.9 206.8 1.3 113.2.4 208.7.7 212.3.8h6.5v-17l-39.5-.7c-39.9-.8-385.8-.7-386.6.1m26.6 49c-1.8.5-2.6 1.6-3.2 4.5-.5 2.1-.7 35.6-.6 74.5l.3 70.6h26.6l-.1-73.9c0-52.6-.3-74.3-1.1-75.3-1.2-1.4-17.1-1.7-21.9-.4m161 6.9c-4.1.1-7.8.6-8.2 1s-.8 32.5-.8 71.2l-.1 70.5h24.6l.3-70.4c.2-38.6 0-70.7-.5-71.1-1.2-1.2-7-1.6-15.3-1.2m-72.5 3.9c-2.2.2-4.3.8-4.7 1.2-.4.3-.8 31.5-.8 69.1l-.1 68.5h19.6l-.2-68.4c-.2-38.8-.7-68.9-1.2-69.4-1.1-1.1-7.3-1.6-12.6-1m-61 3.5c-.3.7-.4 31.4-.3 68.3l.3 67h30l.3-67c.2-62.1.1-67.1-1.5-68.3-1.1-.8-5.9-1.2-15-1.2-9.8 0-13.5.3-13.8 1.2m80.1 16.6c-.3.5-.6 27.5-.6 59.8l-.1 58.9h28.6v-58.2c0-46.4-.3-58.5-1.3-59.5-1.6-1.6-25.6-2.5-26.6-1m90.1 2.4c-1.6 1.2-1.7 5.5-1.7 58.8l-.1 57.5h28.2l-.2-37c-.1-20.4-.4-46.7-.8-58.5l-.6-21.5-11.5-.3c-8.2-.2-12 .1-13.3 1m165.9 25c-1.1 1.5-1.6 4.5-1.6 9 0 11.5 8.3 61.4 11.1 67 .6 1.2-.3 3.8-3.3 9-8.7 15.3-11.9 27-11.7 42.6.2 14.4.6 15.5 5.6 16.4 7.4 1.2 25.7 6.9 31.3 9.6 6.6 3.3 7.7 6.3 3.3 8.5-2.2 1.2-4.8 1.3-12.6.6-10.2-.8-14.3-.2-15.3 2.6-.8 2.1 1.7 5.7 9.5 13.8 12.6 13.1 28.5 20.5 46.1 21.4 12.2.7 19.1-1 33.4-8.2 7.9-4 11.2-5.3 12-4.5 1.5 1.5-2.9 5-11.9 9.5-15.3 7.5-25.6 9.5-38.8 7.5-15.2-2.3-26-7-37.7-16.6-5.7-4.6-8.5-7.6-15.5-16.9-1.5-1.9-1.8-1.8-8.1 5-18.1 19.4-27.4 40.6-30.9 69.8-1 8.7-2 13.3-4 17.2-6.4 13.2-21.7 20.4-63.5 30-40.7 9.4-54.3 15.3-73.5 32-3.8 3.3-10.2 8.6-14.2 11.7-13.7 11-19.1 16.5-20.7 21.6-4.4 13.6-4 20.3 1.4 24.4 1.7 1.2 3 2.8 3 3.5 0 2.6 11 4.7 12.5 2.3.3-.5-.4-2.3-1.6-3.9-2-2.7-2.1-3.8-1.6-11.2.3-5.4 1-8.7 2.1-9.7 2.5-2.5 3.1-.6 1.9 6.5-1.8 10.2 1.1 15.3 8.6 15.3 3.9 0 4.6-1.3 2.6-5.3l-1.6-3.2 3.7-3.3c2.1-1.7 4.3-3.2 5.1-3.2 2.4 0 1.3 3.9-1.7 6.2l-3 2.2 2.7 2.8c3 3.1 5.1 3.5 9.1 1.4 4.2-2.2 12.5-11.4 17.5-19.1 5.5-8.7 8.9-11.7 19.2-16.7 11.9-5.7 25.2-8.1 44.7-8.2 10.5-.1 16.1.3 16.8 1 .9.9 3.2.1 9.3-3.1 13.4-7.1 43.4-16.6 71.2-22.6 13-2.7 24.6-6.4 31.8-10 3.1-1.6 5.7-3.1 5.7-3.3 0-.3-2.1-2.8-4.6-5.8-8.4-9.7-11.3-17.7-9.4-25.6 3.3-14 25.7-30.3 66.1-48.2 15.8-7 47.3-24.8 61.3-34.7l7.9-5.6-2.2-1.8c-3.1-2.5-18.5-7.4-31.2-9.8-21.8-4.3-21-4.1-20.7-6.4s.1-2.3-4.5-1.2c-2.3.6-2.7.4-2.7-1.3 0-2.4 2.7-3.5 14-5.9 6.4-1.4 13.1-1.8 27-1.8 16.2 0 19.6.3 26.9 2.3 9.6 2.6 9.9 2.5 13.1-5 2-4.7 2.2-6.3 1.8-19.7-.4-12-.9-15.9-2.8-21.6-3.6-10.4-6.6-12.8-24.5-19.9-8.3-3.2-16-6.7-17.2-7.8-2.7-2.5-4.6-10.8-3.4-14.2 1.2-3.1 10.9-10.8 30-23.9 5.4-3.7 9.1-4.7 9-2.5 0 .7-6.6 6-14.6 11.8-21.8 15.8-20.6 14.6-20 19.9.6 5.7 2.1 6.9 13.4 10.9 4.8 1.8 12.3 5 16.6 7.1 5.1 2.6 8 3.5 8.2 2.8.3-.7.9-3.5 1.5-6.2.6-2.8 2.9-10.8 5.1-17.8 6.7-21.4 8.3-44.8 3.7-54-1-2-2.1-3.7-2.4-3.7-1.3 0-9.7 4.8-17.4 10-11.4 7.7-21.5 15.8-32.9 26.4-5.5 5.1-9.9 8.5-10.7 8.2-5.2-2-19.1-5.7-24.9-6.7-3.8-.6-14.6-1.4-23.8-1.8l-16.8-.6-8.7-9c-9.3-9.6-25.7-22.9-27.2-22-.5.3 2.6 6 7 12.6 4.3 6.6 9.3 14.9 11.1 18.4l3.3 6.4-2.7 2.5c-1.6 1.4-3.2 2.6-3.6 2.6-1.7 0-2.2-3.4-.7-4.8 1.1-1.1 1.2-2.1.5-4-1.7-4.5-19.1-30.7-22.2-33.5-2.8-2.4-3-3-1.9-4.8s1.1-2.4-.4-4c-1.9-2.1-16.8-9.9-19-9.9-.7 0-2 1-2.8 2.2m33.9 103.4c8.3.7 13.2 3 17.3 8 3.9 4.7 5.1 10 6.6 28.6.2 1.4 1.6 1.9 13 4.2 8.3 1.7 11.9 2 12.1 1.2.2-.6.9-3.1 1.5-5.6 2.4-9.4 10.4-20.1 17.9-23.9 8.1-4.2 24.2-6.6 28-4.2 2.1 1.4.7 7.8-2.7 12-5.2 6.5-13.1 8.7-22.4 6.1-7.2-2-5.8-5.1 1.7-4 7.8 1.2 13.4-.3 17.2-4.4 5.9-6.4 3.8-7.7-8-5.1-10.3 2.1-14.5 4.3-19.2 9.7-4.8 5.6-8.1 12.5-10.1 21.7-1.9 8.7-5.7 13.7-10.9 14.7-1.9.3-4 1.2-4.6 2-1.8 2.2 1.5 9.6 6.1 13.8 4.4 3.9 8.9 5.1 16.1 4.3 5.1-.6 6.9.4 4.9 2.8-.9 1.1-3.3 1.5-8.2 1.5-10.5 0-16.8-4.1-21.8-14-2.1-4-2.4-4.3-3.4-2.6-6.1 10.3-11.5 13.6-21.9 13.6-6.8 0-12-1.5-11.4-3.4.2-.7 3.9-1.1 9.3-1.1 8.2 0 9.4-.3 13.2-2.8 2.8-1.8 5-4.4 6.6-7.7 2.7-5.5 2.6-5.5-4.2-8.5-9-3.9-11.7-10.9-6.2-16.3 2.3-2.3 3-3.9 3-6.9 0-5.3-1.9-17.6-2.8-18.5-.4-.4-2.6.1-4.7 1.2-5.6 2.8-14.1 2.7-18.6-.3-4.7-3.2-9.9-10.3-9.9-13.7 0-3.3 1.2-4 6-3.5 1.9.2 6.6.7 10.5 1.1"/><path d="M505.5 479.9c-.8 1.4.7 4 4 7.1 2.1 2 3.9 2.5 9.3 2.8 3.7.2 8-.1 9.6-.7 2.5-1 2.6-1.3 1.5-2.8-2.1-2.4-8.7-5-14.9-5.8-3-.3-6.2-.9-7.2-1.1-.9-.3-1.9 0-2.3.5m29.9 40.5c-1.8 1.4-1.8 1.7-.4 4.3 2.1 3.9 8 6.5 16 7.1 6.4.4 6.8.3 10.4-2.8 2.5-2.3 3.4-3.6 2.7-4.3-1.1-1.1-20.7-5.5-24.7-5.6-1.1-.1-2.9.5-4 1.3m-54.8 1.5c-.3.4.5 2.5 1.7 4.6l2.3 4 11.9.6c17.4.9 17.6-.3 1-5.9-9.7-3.2-16.2-4.5-16.9-3.3m130.8 9.6c-4.5.7-8.7 1.5-9.3 1.9-2 1.3-.2 2.4 5.2 3.1 15.5 2 33.6 6.9 42.8 11.6 4.4 2.2 5.9 2.5 6.7 1.6 2.8-3.5 9-14.7 8.4-15.1-.4-.2-5.6-1.4-11.5-2.5-12.4-2.4-29.3-2.7-42.3-.6"/></g></svg>