<svg xmlns="http://www.w3.org/2000/svg" width="1365.333" height="1365.333" preserveAspectRatio="xMidYMid meet" version="1.0" viewBox="0 0 1024 1024"><g fill="#000" stroke="none"><path d="M535.6 53.5c-.8 2.1-.8 260.8 0 262.9.9 2.4 4.1 2 4.5-.7.2-1.2.2-60.9-.1-132.7-.5-119.4-.6-130.5-2.1-130.8-.9-.2-1.9.4-2.3 1.3m3.4 131.9c0 72-.2 131.1-.4 131.3-2.4 2.4-2.6-7.1-2.6-130.7 0-71.4.3-130.6.6-131.5.4-.9 1-1.3 1.5-.8s.9 59.8.9 131.7M88.1 60.9c-.7 1.2-1 87.7-1.1 251.5V562h2c1.1 0 2.1-.1 2.2-.3.1-.1.5-16.5.8-36.5l.5-36.3 89.5-.1c49.2 0 116.1-.3 148.5-.7 58.1-.6 59-.6 59-2.6s-.8-2-148.5-2.5l-148.5-.5v-12l49-.7c27-.3 96-.6 153.5-.7h106.3c1.3-.1 1.7-.7 1.5-2.4l-.3-2.2-27.5-.5-27.5-.5-.8-59.5c-.6-38.1-1.3-59.9-1.9-60.8-1.1-1.3-26.5-1.6-32.2-.3l-2.9.6-.1 60-.1 60-2.9.3c-1.5.2-3.9.1-5.1-.2l-2.3-.6.5-71.3c.6-65.1.5-71.4-1-72.9-2.2-2.2-14-3.2-24.2-2.1l-8 .8-.3 72.8c-.2 79.3.1 74.7-5.7 73.3l-2.5-.6v-59.7c.1-52.3-.1-59.8-1.4-61.1-1.2-1.2-4.8-1.7-16-2l-14.5-.4-.5-5.2c-.4-2.8-.7-6.7-.9-8.6-.2-3-.7-3.7-3.7-4.7-3.7-1.3-17.5-.8-21.7.8l-2.3.8-.2 70.3-.3 70.3h-15.7l.1-69.8.2-69.7-3.3-.1c-1.8-.1-9.6-.4-17.3-.8l-14-.6-.5-5.9c-.5-5.9-.6-6-4-6.9-4.9-1.2-26-.4-28.7 1.1l-2.3 1.3-.1 47.2c-.1 26-.3 60.2-.5 76.2l-.3 29H92.5l-.3-87c-.1-47.9 0-88.1.3-89.4l.6-2.3 211.1.6c149.1.5 211.6 1 212.5 1.8 1 .8 1.3 4.9 1.3 15.7 0 16.6.4 19.1 3.1 19.1 2.2 0 2 15.3 1.9-157.4-.1-91.4.1-100 1.6-101.7.9-1 1.4-2.5 1.1-3.4-.6-1.3-23.4-1.5-218.6-1.5-211.6 0-218.1.1-219 1.9m436.3 0c.3.5-.1 1.4-.9 2.1-1.3 1.1-1.5 16.9-1.5 129.8 0 70.6-.2 128.7-.5 129.1-1.7 1.6-2.5-4-2.5-18.1 0-14.3-.2-15.8-1.9-16.7-2.9-1.6-422.7-2.7-424.6-1.1-1.3 1.1-1.5 12.9-1.5 90 0 80 .2 88.8 1.6 89.4 2.2.8 16.7.7 17.9-.2.6-.4 1-9.4 1-23.2 0-12.4.1-46.5.3-75.8l.2-53.3 3.5-1.5c4-1.6 22.9-2 26.9-.4 2.2.8 2.5 1.6 2.8 6.7l.3 5.8 14.5.6c8 .4 15.8.7 17.3.8l2.8.1-.2 69.7-.1 69.8h17.7l.3-70.2c.2-65.6.3-70.3 2-71.1.9-.5 5.1-1.3 9.3-1.6 5.8-.6 8.5-.4 11.3.8 3.3 1.4 3.6 1.9 3.6 5.4 0 2.2.3 6 .6 8.5l.6 4.5 14.4.4c11.4.3 14.7.7 15.9 1.9 1.5 1.4 1.6 8 1.5 60.6 0 65-.4 61.7 6.2 61.1l3.3-.3.5-73 .5-73 7.7-.9c9.7-1 20.2 0 22.5 2.2 1.5 1.5 1.6 7.6 1 72.4-.4 58.2-.3 70.9.8 71.8.7.6 3.5 1 6.2.8l4.8-.3.1-60 .1-60 2.4-.6c4.6-1.3 29.6-1 30.7.3.7.9 1.3 22.5 1.9 60.8l.8 59.5 27.4.5c20.7.4 27.5.8 27.9 1.7.2.7-.2 1.3-1 1.4H295.5c-57.2.1-126.5.4-154 .7l-50 .7v14l148.5.5c98 .3 148.5.8 148.5 1.5 0 1.3-86 2.3-206 2.4-49 0-89.6.1-90.2.1-1 0-1.3 7.7-1.3 34.9 0 19.2-.3 35.6-.6 36.5s-1 1.6-1.5 1.6c-1.4 0-1.1-498 .3-499.7.8-1.1 40.7-1.3 217.9-1.3 125 0 217 .4 217.3.9"/><path d="M91.5 64.2c-.3.7-.4 45.4-.3 99.3l.3 98 8.4.3c5.4.2 8.7-.1 9.1-.8.4-.6.8-38.3.9-83.8l.2-82.7 2.2-1.9c2-1.7 3.4-1.8 16.1-1.2 7.6.3 14.2.9 14.7 1.2s.9 7.2.9 15.5c0 11.2.3 14.9 1.3 14.9.6 0 16.3.2 34.7.3l33.5.2.6 10c.4 5.5.7 36.7.8 69.2l.1 59.3h7.5c6.9 0 7.5-.2 7.9-2.3.7-3.3 5.3-50 8.1-82.7 1.4-15.7 3.4-37.3 4.5-48s2-21.4 2-23.8c0-2.8.5-4.5 1.4-4.8 1.4-.5 30.6 1.3 31.3 2 .2.1-.1 1.6-.6 3.2-1.3 3.9-2.4 21.4-1.4 21.4.4 0 .9-4.2 1.1-9.3.2-5 .8-10.7 1.4-12.4.7-1.8 1-3.5.7-3.7-.8-.8-31.8-2.8-33.4-2.2-1 .4-1.5 2-1.5 5.3 0 2.6-.9 13.6-2 24.3s-3.4 34.8-5 53.5c-1.7 18.7-4.1 43.9-5.3 56l-2.3 22-6.7.3-6.7.3-.1-58.8c-.1-32.3-.4-63.5-.8-69.3l-.6-10.5-34.5-.2-34.5-.2-.5-15.3-.5-15.3-9-.8c-12.4-1.1-23.1-.5-24.9 1.3-1.3 1.3-1.5 13.5-1.8 85l-.3 83.5h-16v-196h425v195h-30L487 180l-.5-79.5-4-.7c-4.3-.8-23.1-.8-25.4 0-1.2.4-1.3 13-1 80.1l.4 79.6-2.4.3c-1.3.2-2.7 0-3.2-.5s-1.4-29.8-2-65.9c-.5-35.7-1.2-65.9-1.4-67.2-.5-2.1-1-2.2-9.3-2.2-5.5 0-9.4.5-10.4 1.2-1.5 1.2-1.7 8.1-2.3 67.8l-.7 66.5-4.3.9c-8.4 1.8-7.7 9.3-7-77.8.6-64.7.5-77.5-.6-78.2-.8-.5-5.7-.8-10.9-.7-8.6.2-9.6.5-12 2.8-2.1 2.1-2.6 3.7-3 9.8l-.5 7.2h-29l-.8-7c-.4-3.8-1.2-7.4-1.8-8s-7.3-1-16.7-1h-15.7l-.5 76-.5 76-7.4.3c-4.4.2-7.8-.1-8.5-.8s-1.2-22-1.6-68.3l-.5-67.2-10.5-.3c-12.1-.3-15 .2-15 2.5 0 1.5.1 1.5 1.3 0 1.1-1.5 2.7-1.7 12.2-1.5l11 .3.5 67.2c.4 45.7.9 67.6 1.6 68.3s4.5 1 9.5.8l8.4-.3.5-76 .5-76 14-.3c10.4-.2 14.5.1 15.8 1.1 1.3.9 2 3.3 2.5 8.2l.7 7h31l.3-7c.4-9.8 2.6-12 12.6-12.9 4.4-.4 8.4-.2 10.1.4l2.7 1-.7 77.5-.7 77.4 2.6.7c1.4.3 4.6.2 7-.2l4.4-.9.7-66.5c.6-60.6.8-66.6 2.3-67.8 1.1-.9 4.3-1.2 9.7-1l8 .3.8 42.5c.4 23.4 1 53.7 1.5 67.5l.7 25h8v-160l10-.3c5.5-.2 11.8.1 14 .5l4 .9.5 79.4.5 79.5h32l.3-97.9c.2-77.7 0-98.1-1-98.8-.7-.4-96.8-.8-213.6-.8-168.9 0-212.4.3-212.7 1.2"/><path d="M113.7 95.7c-.3.4-.6 37.9-.8 83.3l-.4 82.5h28v-166l-13.2-.3c-7.2-.1-13.4.1-13.6.5m25.8 82.8v82h-26l.4-81.5c.2-44.8.5-81.9.8-82.3.2-.4 5.9-.6 12.6-.5l12.2.3zm325.8-74.8-5.3.4.1 60.7c.1 33.4.4 68.6.8 78.2l.6 17.5 10.8.3c8.2.2 10.7 0 10.7-1 .4-36.5-.2-154.4-.8-155-1-1-10.5-1.6-16.9-1.1m15.9 2.1c.4.4.8 35.2.8 77.2v76.5h-19.5l-.6-16.5c-.3-9.1-.7-43.8-.8-77.2l-.1-60.7 4.8-.4c6-.6 14.3 0 15.4 1.1m-232.6-.6c-.9 2.9-4.8 42-7.7 76.8-1.1 13.5-3.3 36.6-4.9 51.4s-2.7 27.3-2.4 27.8c.9 1.4 21 1 22.2-.5 2.6-3.2 6.8-31 9.7-64.7.9-10.2 2.5-27.7 3.6-39 3.2-33.5 4.3-49.5 3.6-51.3-.5-1.5-2.2-1.7-12.2-1.7-8.4 0-11.7.3-11.9 1.2m23.1 1.5c.7 1.7-.3 15.6-3.6 50.3-1.1 11.3-2.7 28.8-3.6 39-3 34.4-7 60.4-9.6 63.7-1.3 1.4-19.4 1.9-20.3.5-.2-.4.9-12.5 2.4-26.9 1.6-14.4 3.8-37.6 5-51.5 2.8-35 6.6-72.7 7.5-75.6.3-.8 3.4-1.2 11-1.2 9 0 10.7.3 11.2 1.7m120.5 2.5c-.9.9-1.2 19.2-1.2 76.4 0 67.6.2 75.2 1.6 75.8 2.2.8 13.7.7 15-.2 1.2-.8 3-148.6 1.8-151.6-.5-1.3-2.2-1.6-8.3-1.6-4.7 0-8.2.5-8.9 1.2m15.9 75.3c-.2 41.2-.6 75.4-1.1 75.8-.4.4-3.8.7-7.6.5l-6.9-.3-.3-74.9c-.2-59.3 0-75.1 1-75.8.7-.4 4.5-.7 8.3-.6l7 .3zm-78.6-72.6-3 .6v148h26v-73.1c0-60.5-.2-73.4-1.4-74.7-1.1-1.4-3.1-1.7-10-1.6-4.7.1-9.9.4-11.6.8m20.6 1.8c1.2 1.3 1.4 14.1 1.4 73.7v72.1h-24V113.6l2.5-.7c1.4-.4 6.2-.7 10.6-.8 6.5-.1 8.4.2 9.5 1.6m-204.4 13.5c-1.6 1.2-1.7 6.2-1.5 67.8l.3 66.5h30l.3-66.4c.1-48.2-.1-66.8-.9-67.7-1.5-1.9-25.7-2-28.2-.2m27.8 2c.3 1.3.4 31.3.3 66.8l-.3 64.5h-28l-.3-65.4c-.1-47.5.1-65.8.9-66.7.9-1.1 4.4-1.4 14-1.4 12.5 0 12.9.1 13.4 2.2m5.6-1.8c-.8.9-1 19.5-.9 67.7l.3 66.4h33l.3-66.2c.2-59.1 0-66.3-1.4-67.7-2.1-2.2-29.5-2.4-31.3-.2m30.8 1c.8.9 1 19.2.9 66.7l-.3 65.4h-31l-.3-64.5c-.1-35.5 0-65.5.3-66.8.5-2.2.8-2.2 14.9-2.2 10.9 0 14.6.3 15.5 1.4m68.1 1.5c-.7 1.4-.9 23.1-.8 66.3l.3 64.3h23l.3-63c.1-34.7 0-64.5-.3-66.3l-.6-3.2h-10.4c-9.3 0-10.5.2-11.5 1.9m21.5 1.3c.3 1.3.4 30.6.3 65.3l-.3 63h-21l-.3-63.9c-.1-46.3.1-64.3.9-65.2.8-1 3.8-1.4 10.5-1.4 8.9 0 9.4.1 9.9 2.2m57.2-2.6c-1 1.1-.8 129.7.2 131.3.7 1 4.2 1.5 13.4 1.9 6.9.2 13.7.2 15.1-.2l2.6-.6-.2-66.3-.3-66.2-15.1-.3c-8.2-.1-15.3.1-15.7.4m29.8 66.4v65.5h-13c-7.1 0-13.8-.3-14.7-.7-1.7-.7-1.8-4.7-1.8-65.1 0-35.4.3-64.7.7-65.1.4-.3 7-.5 14.7-.4l14.1.3zm43-65.8c-.3.7-.4 30.5-.3 66.3l.3 65 7.4.3c4.1.2 7.8-.1 8.2-.5s.4-30-.2-65.8c-.7-49.4-1.2-65.1-2.2-65.7-2-1.3-12.7-.9-13.2.4m13.6 19.8c.3 10.7.8 40 1 65l.4 45.5h-14l-.3-64c-.1-35.2 0-64.6.3-65.3.3-.9 2.2-1.2 6.2-1l5.8.3zm-173.4 32.6c-2.1 27.9-4 45.4-6.9 62.4-3 18.1-3.4 16.4 4 16.8 4.4.2 6.3-.1 6.7-1 .2-.7.5-23.9.7-51.6.3-44.8.2-50.2-1.2-50.2-1.3 0-1.8 3.7-3.3 23.6m3.5 26.6c-.2 27.1-.5 49.9-.7 50.5-.5 1.4-10.1 1.9-10.8.5-.3-.4.1-3.6.9-7.2 3-14.5 9.4-74.7 9.4-88.5 0-2.5.3-4.5.8-4.5.4 0 .6 22.2.4 49.2M92 264.8c-1.2.4-1.3 15.9-.1 16.6.4.3 92.8.8 205.2 1.1s207 .8 210.1 1.1 7.1.3 8.7-.1l3.1-.7v-8.3c0-5.6-.4-8.7-1.2-9.2-1.2-.7-423.6-1.2-425.8-.5m424.8 1.5c.8.5 1.2 3.4 1.2 8.2 0 8.7-.4 9-10.8 8.1-3.7-.3-98.2-.8-210.1-1.1-111.8-.3-203.7-.8-204.2-1.1-.9-.5-1.3-13.7-.5-14.5s423.1-.4 424.4.4M118 313.9c-1.9.5-2.6 1.6-3.2 4.6-.8 4.9-1 142.7-.2 144.9.5 1.4 2.7 1.6 14 1.6H142v-75c0-73.1 0-75-1.9-76-2.2-1.1-18.1-1.2-22.1-.1m21.8 1.3c.9.9 1.2 18.9 1.2 75v73.9l-12.7-.3-12.8-.3-.3-68.5c-.2-37.7 0-70.9.3-73.8.5-4.2 1.1-5.5 2.8-6.2 3.4-1.4 20.1-1.2 21.5.2m138.7 5.7-8 .6v143h25l.3-71.2c.3-59 .2-71.4-1-71.7-2.9-1-8.7-1.2-16.3-.7m15.8 2.1c.5.4.7 32.2.5 70.6l-.3 69.9-11.8.3-11.7.3.2-70.8.3-70.8 7.5-.6c8-.6 14-.1 15.3 1.1m-87 1.7c-2.3.2-4.6 1-5.2 1.7-.8.9-1 21.7-.9 69.7l.3 68.4h20l-.2-68.9c-.2-38-.6-69.3-1-69.7-1.1-1.1-8-1.7-13-1.2m11.9 2.1c.4.4.9 31.4 1.1 68.8l.2 67.9h-18l-.3-67.4c-.1-47.2.1-67.8.9-68.7 1.8-2.2 14-2.7 16.1-.6m-73.7 1.4c-.3.7-.4 31.7-.3 68.8l.3 67.5h31l.3-67.8.2-67.7-2.6-1c-3.9-1.5-28.4-1.3-28.9.2m28.8 1c1.6 1.2 1.7 6.2 1.5 67.8l-.3 66.5h-29l-.3-66.5c-.1-36.6 0-67.1.3-67.8.3-.9 3.9-1.2 13.3-1.2 8.7 0 13.4.4 14.5 1.2m51.9 15.6c-.9.6-1.2 13.4-1 60.3l.3 59.4 12.8.3c7.1.1 13.5-.2 14.6-.7 1.8-1 1.8-3.4 1.7-59-.1-45.1-.4-58.3-1.4-59.3-1.4-1.4-25-2.4-27-1m26 2c1.9 1.9 2.1 114.7.3 116.2-.8.7-6.1 1-13.6.8l-12.4-.3-.3-58c-.1-31.9 0-58.6.3-59.4.7-1.8 23.8-1.2 25.7.7m63.5.4c-1.6 1.2-1.7 5.7-1.5 59.3l.3 58h28.7l-.1-27.5c-.2-49.6-1.3-89.4-2.5-90.2-1.9-1.3-23.1-.9-24.9.4m25.4 21.8c.4 11.8.7 37.9.8 58l.2 36.5h-26.6l-.3-56.9c-.1-41.9.1-57.2.9-58.3.9-1 3.8-1.3 12.8-1.1l11.6.3z"/><path d="M784 318.6c-33.5 1.5-61.2 4.2-102.4 10-39.9 5.6-74.9 15-96.9 26.1-18.4 9.2-30 19.3-40.9 35.7-3.4 5-6.2 9.3-6.4 9.5s-2.7-1.7-5.6-4.1c-11.6-9.8-33.6-25.3-39.2-27.6-6.6-2.7-11.2-2.4-14.2.9-2.9 3.2-3.1 17-.4 33.6 3.1 20 4.9 29.9 6.5 37.3 2.1 9.4 2 10.3-3.4 21.4-6.7 13.6-9.5 25.2-9.3 38.1.1 5.5.3 10.9.4 12 .3 1.9-.5 2-16.2 2.6-21.3.9-34.7 4.3-36.7 9.5-1.3 3.4 1.5 3.8 7.5 1.1 8.3-3.8 18.7-5.7 30.6-5.7 14.8 0 16.1.4 18.1 5.3.9 2.2 1.2 4.4.8 4.8s-3.7 1.3-7.3 1.8c-13.7 2.2-35.7 11.4-34.7 14.4.7 2.3 4.5 1.8 12.2-1.8 12.6-5.7 31.2-9.8 34-7.5 1.3 1 .4 2.4-5.6 8.9-17.9 19.1-27.8 40.6-31.6 68.1-2.4 17.8-3.7 21.5-9.1 26.9-9.1 9-23.1 14.5-55.5 21.6-19.9 4.5-30.5 7.5-42.3 12-13.5 5.2-19.4 9-38.9 25-6.2 5.1-8.5 6.5-10.3 6-3.2-.8-23.1 1.3-33.3 3.5-18.2 3.9-32.8 11.8-44.9 24.4-2.4 2.5-4.7 4.6-5.1 4.6s-.9-20.1-1.2-44.8c-.5-46.4-.9-51.8-5.3-69.1-8.3-32.8-28.4-48.5-59.8-46.8-5.5.3-11.8 1.1-13.9 1.7-5.9 1.7-4 2 2.8.4 7.8-1.8 21.4-1.8 29.3.1 26.6 6.3 41.3 29.6 45.1 71.5.6 6.3 1.1 28.7 1.1 49.7 0 43.9-.4 42.3 8.5 33.2 6.9-6.9 16.9-14.3 24.6-17.9 11.5-5.3 29.6-9 47.3-9.4l8.9-.2 7.9-6.5c27.7-22.6 37.4-27 79.5-36.4 32.6-7.2 48-13 56.2-21.4 5.5-5.4 6.6-8.6 8.6-24.1 3.9-29.5 13.6-50.7 32.4-71.3 6.3-6.9 7-8 6-9.9-1-1.8-1.7-2-6.7-1.4-8.5 1-20 4.2-29.6 8.2-4.7 2-9.1 3.4-9.8 3.2-1.9-.7 11.3-7.7 19.4-10.4 3.9-1.3 10.3-2.9 14.2-3.5s7.5-1.5 8-1.9c.4-.5.1-3.1-.8-5.8l-1.7-5.1-5.5-.7c-13.8-1.7-34.3.9-43.8 5.6-4.2 2.1-6.5 1.7-4.5-.7 4.1-4.9 15.1-7.4 35.4-8.2l17-.6-.2-2.5c-.2-1.4-.3-7.2-.4-13-.1-13.3 2.2-22.8 9.1-36.6 5.4-10.9 5.7-12.6 3.5-22.4-4.6-21-8.7-50.1-8.4-59.5.4-8.1.6-8.8 3.2-11.1 1.5-1.3 3.8-2.4 5-2.4 4.4 0 13 5.2 30.3 18.2 9.7 7.3 18.5 13.9 19.5 14.6 1 .8 2.3 1.1 2.9.7.6-.3 3.7-4.6 6.9-9.4 19.8-29.4 48.9-44.6 109.3-57 19.2-4 76.2-11.2 105.3-13.3 24.4-1.8 163-1.8 190.5.1 20.2 1.3 25.3 2.2 23.2 4.3-.7.7-5.3.7-14.4-.1-45.2-3.7-157.3-4.1-201.3-.7-28.3 2.2-75.5 7.9-96 11.7-52.4 9.7-86.7 23.9-103.3 42.7-6.8 7.7-18.2 23.7-18.2 25.5 0 .7 2.5 3.7 5.5 6.7l5.6 5.5 18.2.7c18.4.7 30.1 2.3 39.9 5.7 2.9 1 6 1.6 6.8 1.3.8-.2 4.7-3.5 8.5-7.2 12.3-11.7 35.9-29.3 45.7-34.1 6-2.9 9-1.8 11.8 4.4 1.6 3.4 2 6.5 2 17.4 0 15.3-1.3 23.3-6.9 41-2.2 7-4.5 15.9-5.1 19.6-1 6.4-.9 7.3 2.1 15.9 3 8.8 3.1 9.4 2.7 24.7-.3 14.1-.5 16-2.7 20.3-1.3 2.5-2.1 5.3-1.8 6.2.3.8 3 2.7 5.9 4.2 2.9 1.4 8.5 4.8 12.3 7.3 11.2 7.6 10.3 7.4 45 7.6 33.4.2 46.4 1.2 70.5 5.1 45.2 7.4 69 17.7 97.1 42 16.8 14.5 27.8 28.6 38.2 49.2 14.7 28.9 20.9 58.2 18.7 88.3-2.6 36.9-11.1 57.4-35.6 86.4-12.9 15.1-33.5 29.7-57.9 40.8-22.5 10.3-43.5 16-74.3 20.2-41.9 5.8-47.5 8.5-72.7 34.1-12.9 13.2-15.9 15.8-21.8 18.5-6.3 2.9-7.4 3.1-15.1 2.7-7.1-.4-8.9-.8-12.6-3.4-2.4-1.6-6-5.1-7.9-7.9-3.4-4.7-3.6-5.4-3.5-12.5.2-15 8-31.4 21.4-45 9.9-10.1 16.7-14.7 34.4-23.6 7.2-3.5 12.3-6.4 11.5-6.4-2.2 0-24.3 11.2-31.9 16.1-21 13.7-36.1 38.4-36.4 59.4-.1 7.7.1 8.3 3.5 13 6.3 8.9 13.2 12 25.4 11.3 11.9-.6 18-4.3 32.7-19.9 17.4-18.5 29.1-26.6 43.5-30.4 3.2-.9 15.2-2.9 26.6-4.5 20.1-2.9 24.6-3.7 42.7-8.2 19.3-4.7 46.7-16.6 63.5-27.6 16.3-10.7 28-22.1 42.2-41.2 21.3-28.6 29.2-76.2 19.7-118.9-8.4-37.5-26.2-68.2-53.3-91.5-27.8-24.1-52.2-34.5-98.1-42-24.1-4-37.1-4.9-70.5-5.1-21.1-.1-31.9-.5-33.7-1.3-1.6-.6-6.1-3.4-10-6.1-4-2.7-9.6-6-12.5-7.5-6.2-3.1-6.9-4-5.1-6.9 2.7-4.1 3.8-11.5 3.8-25.2 0-12.6-.2-14.4-3-22.7-2.8-8.4-2.9-9.4-2-15.6.6-3.7 2.9-12.5 5.1-19.5 5.6-17.8 6.9-25.7 6.8-41 0-20.3-3.5-26.6-12.8-23.8-7.8 2.3-33.5 20.9-48.7 35.3l-8.3 7.7-5.6-1.9c-10.2-3.5-21.7-5.2-39.5-5.7l-17.5-.6-5.9-5.7-5.8-5.6 6.2-9c13.1-18.7 21-25.8 39-35.2 26.1-13.6 62.1-22.5 120.5-29.6 51.9-6.3 67.6-7.1 144.5-7.1 49.7 0 74.5.4 90.5 1.5 29.8 2 32.9 1.9 33.3-.2.5-2.7-2.7-3.4-21.8-4.8-16.2-1.2-149.7-2.2-169-1.4"/><path d="M481.4 372.5c-1.4 2.1-1.6 4.3-1.1 12.3.6 11.9 3.8 33 7.9 51.9l3.1 14.1-4.6 8.4c-2.5 4.5-5.7 12.1-7.3 16.8-2.5 7.7-2.8 9.9-2.8 23.1-.1 16.5.2 17.3 6.7 18.3 11.2 1.8 30.7 8.7 34 12.1 2.3 2.3 2.1 3.2-1 4.8-2.2 1.1-4.9 1.3-11.8.7-11.1-1-14.4-.4-15.7 2.6-1.4 2.9.2 5.5 9.1 14.7 8.1 8.5 18 14.7 29.1 18.3 7.2 2.4 10.2 2.8 20 2.8 13.4.1 20-1.7 33.7-9 9.4-5.1 12.3-4.3 3.9 1.1-13.3 8.5-24.3 12-37.1 11.9-21.9-.2-42-10.1-56.5-28-2.9-3.6-6-6.4-7-6.4-3.4 0-19.8 20.8-25.7 32.5-5.8 11.5-9.5 25.1-11.7 43.3-1.2 9.7-2.2 13.5-4.3 17.4-7.1 13.1-21.6 19.7-64.4 29.7-21.2 4.9-40.8 11.1-50.4 15.9-6.4 3.1-13.1 8-22 15.7-3.8 3.3-10.1 8.6-14 11.6-11.6 9.2-18.7 16.2-20.2 19.6-.7 1.8-2 6.4-2.8 10.2-1.9 9-.8 13.2 5.2 19 3.7 3.7 5.2 4.5 9.4 4.9 4.5.4 4.9.3 4.9-1.7 0-1.2-.7-3.3-1.6-4.7-2.3-3.4-1.5-16.8 1.1-19.2 1.6-1.6 1.7-1.4 1 4.8-.3 3.5-.7 6.7-.7 7-.5 5.8 3.3 10 9.2 10 4.8 0 5.8-1.6 3.6-5.8-1.5-3-1.5-3.1 2-6.2 2.7-2.4 3.9-2.9 4.8-2 .8.8.4 1.7-1.6 3.5-1.6 1.3-2.8 3.1-2.8 3.9 0 1.9 4.7 5.6 7.2 5.6 5.1 0 14.6-8.9 22.1-20.5 5.3-8.4 7.3-10.3 15.5-14.9 14.8-8.4 42.1-12.6 61.1-9.6l6.3 1.1 8.7-4.5c13.1-6.7 42.2-16 65.1-20.7 22-4.5 41-11.5 41-15.1 0-1.1-1.8-4.1-4.1-6.6-10-11.4-12-21.7-5.9-31.1 7.6-11.9 34.3-29.2 63.3-41.2 3.8-1.6 9.6-4.4 13-6.2 32.6-17.6 54.7-31.6 54.7-34.8 0-3.4-19.5-10-40-13.4-11.2-1.8-13.4-2.8-12.7-5.6.4-1.4 0-1.6-2.1-1.3-1.4.3-2.9.7-3.3 1-.4.2-1 0-1.4-.5-1-1.7 3.7-3.9 12.5-5.8 6.5-1.4 12.9-1.8 27.5-1.8 16.7 0 20 .3 27.3 2.3 9.7 2.6 9.9 2.5 13.2-5 2-4.7 2.1-6.3 1.8-19.7-.4-11.8-.9-16-2.9-22.1-3.4-10.6-6.5-13.4-21.4-19-21-8-23.4-9.8-23.7-18.4-.2-4.5 0-5.1 3.8-8.4 4.3-3.9 26.1-19.8 30.1-22 1.3-.7 2.8-1 3.3-.7.6.4-6.7 6.4-16.2 13.4-17 12.5-17.3 12.8-17.6 16.7-.4 6.6 1.3 8.5 11.3 12.1 4.9 1.9 12.7 5.1 17.2 7.3s8.8 4 9.5 4c.9 0 1.9-2.2 2.6-6 .7-3.4 3.1-11.9 5.3-19.1 5-16.3 7-30.4 5.9-42.5-1.5-17.9-3.7-18.4-23-5.4-11.4 7.6-21.9 16.1-32.4 25.9-4.7 4.5-9.2 8.1-10.1 8.1-.8 0-5.2-1.1-9.8-2.4-12-3.5-28-5.6-42.4-5.6h-12.6l-10.6-10.5c-11.6-11.4-24.7-21.9-26.2-21-1.6 1.1-1 2.9 3.2 9 4.8 7.2 16.9 27.3 16.9 28.1s-4.8 5.4-5.6 5.4c-.3 0-.2-2.1.1-4.8.6-4.6.5-4.9-9.4-20.2-5.6-8.5-11.2-16.4-12.6-17.6-2.2-1.8-2.4-2.4-1.6-4.7.9-2.4.7-2.9-2.2-5.1-4-3-15.6-8.6-17.9-8.6-1 0-2.5 1.1-3.4 2.5m10.9 1.6c10.4 5.3 11.9 6.6 11.1 10.1-.5 2.5-.2 3.4 2 5.2 1.4 1.1 7.1 9.1 12.6 17.6 9.9 15.3 10 15.5 9.4 20.2-.5 4-.4 4.8.9 4.8 2 0 6.7-4.3 6.7-6.2 0-1.7-8.6-16.8-15.2-26.5-2.7-4-5.1-8-5.5-8.9-1.1-2.8 13.9 9.3 24.5 19.9l10.2 10.2 17.3.6c17.9.7 29.8 2.4 40.8 5.9 3.5 1.1 7.4 2 8.7 2 1.5 0 5.2-2.8 10.8-8.1 17-16 43.4-34.9 48.7-34.9 2.2 0 4.5 6.9 5 15 .7 10.5-1.6 26.1-5.7 39.3-1.9 6.2-4.3 14.3-5.2 18.2-.9 3.8-1.8 7.2-2 7.3-.1.2-3.8-1.3-8.1-3.4-4.3-2-11.8-5.2-16.8-7-10.2-3.8-12.7-6.1-12.3-11.3.3-3.2 1.4-4.2 17.5-16 9.4-6.9 17.2-13.1 17.2-13.8.1-1.7-1.7-2.6-4.2-1.9-2.3.5-23.9 15.8-31.3 22-2.3 2-4.4 4.7-4.6 6.1-.8 4.2 1.1 11.8 3.5 14.2 1.2 1.1 7.2 4 13.2 6.3 23.1 8.8 25.7 11 29.4 24.8 3 11.3 3 31.9 0 37.7-3.5 6.7-3.5 6.7-11.9 4.4-10.6-3-35.1-3.7-48.6-1.5-12.7 2-18.4 3.7-19.8 5.8-1.6 2.6.4 4.1 3.7 2.9 2.4-.9 2.7-.8 2.7.9 0 2.7 2.1 3.5 14 5.5 18 3 39 9.7 39 12.4 0 1.5-17.6 13-34 22.4-15.4 8.8-26.8 14.5-45 22.8-25.8 11.7-48.6 28.1-53.5 38.4-4.2 9-1.4 20.8 7.4 30.7 2.2 2.5 4.1 5 4.1 5.5 0 1.9-15.8 8.3-27.5 11.2-6.6 1.6-18.1 4.3-25.5 6.1-18 4.4-44.7 13.3-54 18-7.1 3.6-7.8 3.8-13 3-18.2-2.8-44.9 1-60.1 8.6-9 4.5-12.3 7.5-18.3 16.8-5.7 8.7-16.5 19.6-19.6 19.6-1 0-3.1-1.1-4.7-2.4l-2.8-2.4 2.8-2.2c1.8-1.5 2.7-3 2.5-4.4-.5-3.3-3.4-3-7.5.8l-3.8 3.5 1.8 3.1c2 3.7 1.5 5-1.9 5-6.2 0-9.7-5.2-8.3-12.3 1.3-6.6 1.1-10.7-.5-10.7-2.7 0-3.8 3.1-4.3 11.4-.5 6.9-.3 9 1.1 11 2.4 3.7 2 4.6-1.9 4.6-2.8 0-4.5-1-8.5-4.8-6.4-6.1-7.4-9.3-5.5-18.4.8-3.8 2.1-8.1 2.9-9.7 1.7-3.1 9.5-10.6 20.1-19 3.9-3 10.2-8.3 14-11.6 19.2-16.7 32.4-22.6 71.4-31.6 44.3-10.3 59.2-17.2 65.5-30.2 1.9-3.8 3-8.7 4.1-17.6 3.1-25 7.2-36.8 18.8-54.1 5.2-7.8 16.3-21 17.7-21 .4 0 3.1 2.9 6 6.4 14.7 18.1 34.6 27.8 57.5 27.9 10 0 11.8-.2 20-3.2 9.9-3.6 22.3-10.4 23.2-12.7.3-.9.1-2-.5-2.6-.8-.8-4.3.5-12.4 4.6-14.5 7.2-21.6 9-33.3 8.4-19.8-1.1-38-11-51.6-28.1-6.3-7.9-3.5-10 11.2-8.7 7.1.6 10.2.4 12.7-.6 3.8-1.5 4.2-4.4 1.1-7.3-2.9-2.7-20.4-8.7-34.4-11.8-6-1.3-6.7-3.4-6.2-18.8.6-15.4 1.8-20 9.4-35.2l5.6-11.1-3.1-14.4c-4.1-19-7.3-40-7.9-52.1-.5-8.4-.3-10 1.2-11.7 2.3-2.6 2.4-2.6 9.8 1.1"/><path d="M500.8 474.7c-4.7 1.2-.1 12.1 7.4 17.6 3.7 2.8 12.8 3.4 18.8 1.3 5.9-2 6.5-1.2 7.5 9.9.7 8.4.7 8.5-2.4 12.2-5.7 6.9-3.2 13.5 6.8 18.3 4.3 2 5 2.7 4.5 4.4-1.4 4.7-5.4 9.4-9.9 11.6-4 1.9-5.8 2.2-12 1.7-5.8-.4-7.5-.2-7.9.9-.3.8.5 2.1 1.9 3 2 1.3 4.3 1.6 10.9 1.2 9.9-.5 15-3.2 18.8-9.8 1.3-2.2 2.6-4 2.9-4s1.4 1.8 2.4 4c2.3 5.2 8.3 10.6 13.2 12 5.7 1.7 16.3.9 17.7-1.3 1.6-2.5-.5-3.6-5.9-2.9-9.6 1-17-3.1-20.7-11.6-2.3-5.1-1.5-6.7 3.7-7.6 5.3-1 8.9-6 11-15.2 2.1-9.5 4.9-15.3 10.4-21.5 4.6-5.3 10.4-8.1 20.4-9.9 9.2-1.7 10.4-.5 5 5-4.3 4.2-4.9 4.4-16.9 4-9.6-.3-7.8 4.3 2.1 5.5 8.9 1.2 13.4-.1 18.2-5.1 4.4-4.6 6.4-10.4 4.6-13.3-1.3-2-9.7-2.6-16.3-1.2-16.7 3.6-26 11.9-30.5 27.3-.9 3.2-2.1 6-2.7 6.4-1.5.9-20-2.7-21.9-4.3-1.1-1-1.9-3.9-2.3-9.6-1-11.7-2.3-16-6.2-20.5-4.9-5.8-8.6-7-26.9-8.6-2.2-.2-4.8-.2-5.7.1m15.7 1.9c7.4.8 12.4 3.2 16.4 8.1 3.7 4.5 4.7 7.9 5.7 19.2.5 5.6 1.2 8.9 2.3 10 1.7 1.7 21.1 5.7 23.5 4.8.7-.3 1.9-2.7 2.5-5.4 2.5-9.7 10.4-20.4 18.1-24.3 8.5-4.4 24-6.6 26.8-3.8 2 2 1.3 5.5-2.1 10-4.8 6.4-8.7 8-17.1 7.4-4.5-.3-7.5-1.1-8.5-2.1-1.5-1.5-1.1-1.6 3.9-1.5 12 .4 13.7.1 17-2.7 3.7-3 5.6-7.1 4.1-8.6-1.3-1.3-13.5.8-20.8 3.5q-14.1 5.25-19.8 28.8c-1.5 6-2.5 8.2-5.5 11.2-2.4 2.4-4.7 3.8-6.3 3.8-1.3 0-3 .6-3.6 1.4-1.9 2.2.4 9.1 4.6 13.6 4 4.5 8.9 6.3 16.7 6 6.8-.3 7-.2 5.6 1.5-1.9 2.3-13.1 2-17.9-.4-4.4-2.3-9.1-7.4-11-11.9-1.8-4.4-4-3.9-7.6 1.6-4.2 6.5-9.8 9.2-18.9 9.2-4.7-.1-7.8-.6-9-1.5-2.3-1.7-2.6-1.6 7.9-1.8 5.6-.2 9.1-.8 11.8-2.1 4.3-2.1 8.3-7.5 9.3-12.2.5-2.8.3-3.1-4.6-5.4-5.8-2.7-10-7.1-10-10.3 0-1.3 1.4-3.9 3.1-6l3.1-3.8-.7-8.7c-.4-4.7-1.1-9.7-1.6-10.9-.9-2.4-3.8-3-5.6-1.2-.6.6-4.2 1.4-8 1.6-5.9.4-7.2.2-10.3-1.9-4.5-3.1-10-10.4-10-13.3 0-3.7.2-3.7 16.5-1.9"/><path d="M504.8 479.1c-1.9 1.2.8 5.7 5.1 8.6 2.6 1.7 4.8 2.3 9.2 2.3 10.7 0 14-3.3 7.2-7.3-3.7-2.1-19.6-4.8-21.5-3.6m19.9 4.2c1.7.9 3.4 2.1 3.8 2.6 1 1.7-3.2 3.1-9.4 3.1-5.6 0-6.3-.2-10.2-3.9-2.2-2.2-3.8-4.4-3.5-4.9.8-1.3 15.4 1.1 19.3 3.1m10.1 35.8c-5.1 2.9.8 10 9.7 11.9 8.3 1.7 14.1.9 17.6-2.6 1.9-2 2.6-3.3 2-4.3-.5-.7-6-2.4-12.2-3.7-12.9-2.6-14.7-2.8-17.1-1.3m15.7 2c6.1 1.2 11.5 2.6 12 3.1.6.6-.2 2-2.4 4-3.3 2.9-3.7 3-10.2 2.5-7.7-.6-12.1-2.6-14.6-6.3-1.6-2.5-1.6-2.7.2-4 2.4-1.8 2-1.8 15 .7m395.9-70.3c-7.1 4.7-17.7 15.8-22.2 23.5-7.2 12-15.4 35.8-18.2 52.3-4 24.2-5.4 53-2.7 55.2 2.8 2.3 3.4-.5 4-17.3 2-54.4 19-97 43.9-110 4.5-2.3 5.8-3.5 5.8-5.3 0-3.4-3.7-2.8-10.6 1.6m9.6-1.6c0 .7-2.6 2.6-5.8 4.3-24.6 12.8-41.9 56.3-43.8 110-.3 8.8-.8 16.7-1 17.5-1.2 3.6-2.4-2.1-2.4-11.6 0-37.2 9.8-76.2 24.8-98 8.6-12.5 28.2-27.9 28.2-22.2m-475.6 72.2c-.7 1.8 2.1 8.5 3.8 9 .7.3 6.6.7 13.1.9 10.9.5 11.7.4 11.7-1.3 0-1.5-2.1-2.6-10.7-5.3-14-4.5-17.2-5.1-17.9-3.3m17.6 4.1c7.7 2.6 10.8 4.1 10 4.8-.3.3-5.7.2-11.9-.2l-11.5-.6-1.9-3.2c-1-1.8-1.6-3.7-1.3-4.2.7-1.1 6.4.1 16.6 3.4m119 4.2c-15.8 2.4-16 2.5-16 4.2 0 1.4 2 2 11.2 3.5 13.5 2.1 26 5.6 34.7 9.6 3.5 1.7 7.2 3 8.2 3 2.1 0 10.4-13.2 9.6-15.4-.6-1.4-2-1.8-15.2-4.2-7.2-1.3-26.2-1.7-32.5-.7m33.3 1.8c4.8.9 9.9 2 11.3 2.5l2.5 1-2.8 5c-1.5 2.8-3.5 6-4.4 7.2l-1.7 2.2-5.8-2.6c-9.4-4.2-21.7-7.7-34.8-10-6.6-1.1-12.3-2.2-12.5-2.4-1.1-.9 1.4-1.7 9.1-2.9 11.6-1.8 28.7-1.8 39.1 0"/><path d="M664 543.5c-2.8 4.2-5 8-4.8 8.4.2.5 5.7 4.5 12.3 8.9 13.6 9.1 19.7 14.3 17.7 15-.8.2-3.3-1-5.5-2.7-9.1-6.7-24.3-16.9-26.4-17.5-1.2-.4-2.4-.2-2.8.3-1.2 2-16.9 12.7-29.3 20-12.7 7.5-36.3 19.7-55.7 28.8-22.1 10.5-42.2 24.2-46.8 32.1-5.5 9.3-3.9 17.2 5.8 29.2 4.1 5 6.3 8.5 5.9 9.4-.6 1.6-13.2 8-21.4 10.9-2.5.9-12.5 3.4-22.2 5.6-19.8 4.4-45.6 11.9-56 16.2-23.8 9.8-44.2 26.9-62.4 52.3-10 14-16.1 32.8-13.5 41.6 2 6.8 13.3 17.2 15.8 14.6.4-.3.1-2.9-.5-5.7-1.5-6.4-1.5-11.1 0-14.4 2-4.4 2.9-2.7 2.3 4.2-.6 6-.4 7.3 1.7 11.3 2.9 5.3 5.1 5.9 11.4 3.5 7.1-2.7 14.5-11.7 21.6-26.3 9.8-20 19.3-28.2 41-35.1 22.2-7 53.4-11.3 95.8-13.1 34.1-1.4 44-2.7 59-7.6 19.5-6.4 43.8-36.5 54-66.6 2.3-6.8 4.3-9.8 5.4-8 1.5 2.5-9.4 26.9-17.7 39.4-11 16.8-26.8 32-38.4 36.8-14.2 5.9-24.1 7.3-68.2 9.5-52 2.6-80.9 7.7-103.1 18.2-11.2 5.4-17.1 11.9-25.2 27.8-7.1 13.9-12.2 20.6-19.6 25.7-4.2 2.9-5.6 3.2-13.2 3.6-8.1.3-8.7.2-13.2-2.7-5.6-3.6-10.4-9.8-11.9-15.5-3.2-11.9 5.7-33.9 21.1-52.1 7.5-8.8 24-25.2 28.3-28 1.5-.9 2.7-2.5 2.7-3.5 0-5.8-36.8-2.3-54.7 5.1-9 3.8-14.9 9-20.1 17.7-2.3 3.8-7.2 9.8-11 13.4l-7 6.6-10.9.7c-7.2.5-11.4 1.2-12.5 2.2-2 1.7-8.7 2.8-12.2 1.9-1.3-.3-3.7-1.7-5.3-3-2-1.7-4.6-2.5-9.3-3.1-11.2-1.2-47.4-8.6-49.8-10.2-1.3-.8-2.1-1.7-1.9-2 .3-.2 11.1 1.6 24 4.2 13 2.6 24.6 4.5 25.9 4.3 1.8-.2 2.2-.9 2-2.8-1.1-10.6.6-20.3 4.6-27 .8-1.4 4.4-5.2 8-8.6 8.4-7.8 8-8.9-3.3-8-20 1.5-37.5 6.7-49 14.4-14.5 9.8-19.5 15.7-23.6 27.9-6.4 18.7-9.1 48.6-7 77.3l1.1 15.5 3.7 3.3c14.6 12.9 38.1 19.5 149.8 42.2 39.9 8.1 161.5 31.4 196.5 37.6 25.7 4.6 59.7 11.3 63.8 12.5 3.1 1 4.4 2.9 2 2.9-1.2 0-25.9-4.6-95.3-17.5-13.7-2.5-38.5-7.3-55-10.5s-49.1-9.5-72.5-13.9c-50.1-9.5-126.1-25.6-144.4-30.7-21.1-5.8-34.7-11.3-42.3-17-1.7-1.3-3.9-2.4-4.7-2.4-1.9 0-1.7-5.3-2.5 63-.4 33.8-.9 51.3-1.6 51-.9-.4-1.7-80.9-1.8-164 0-22 1.7-35.8 6.3-51.4 1.9-6.4.7-99.1-1.4-112.1-3.3-20.3-7.9-31.2-17.8-42-15.7-17.1-43.4-20.2-70-7.9-17.1 8.1-26.9 25.9-27 49.2 0 20.5 5.2 30.9 21.9 44 9.5 7.5 12.5 12.3 14.6 23.7 1.8 9.9 1.8 229.6 0 230.2-1 .4-1.3-25.1-1.5-114.4l-.3-114.8-2.3-6.7c-1.9-5.7-3.1-7.4-7.9-11.5-15.8-13.5-21.2-20.1-24.8-30.2-4.2-12-3.9-31.5.7-42.6 5.2-12.5 11-20.5 20.4-28.4 17.9-14.9 31.8-20.4 64.9-25.5 31.3-4.9 92.2-4.9 149-.1 53.1 4.6 92.5 11 92.5 15 0 2-.5 1.9-12.1-1-18.1-4.6-48.4-8.4-96.4-12.1-28-2.2-98.7-2.5-117.9-.6-16.6 1.7-31.6 4.4-44.1 8-10.6 3-20.2 6.9-19.3 7.7.3.3 2.9-.6 5.9-1.9 12.2-5.6 33.9-10.4 57.5-12.8 19.2-1.9 89.9-1.6 117.9.6 48 3.7 78.3 7.5 96.4 12.1 12.4 3.1 13.1 3.1 13.1 0 0-2.5.5-2.3-12-5.5-5.8-1.5-34.4-5.8-49.5-7.4-43.7-4.7-77.2-6.6-115.5-6.6-31.9 0-50.7 1.1-68.5 4.1-32.4 5.3-46.5 11-63.9 25.8C83.7 600.2 75 623 78 644.8c2.1 15.8 7.4 26.1 18 35.3 13.1 11.2 15.7 14.2 17.6 19.9 1.8 5.2 1.9 12 2.2 120.8l.3 115.3 2.2-.3 2.2-.3-.2-115-.1-115-2.6-8c-3-9.2-4.5-11.2-14.3-18.8-15.4-12.1-20.5-22.4-20.5-41.8.1-16.1 4.7-28.8 14.3-39.4 8.4-9.1 28-16.5 43.7-16.5 7.4 0 18.1 2.3 24 5.2 6.8 3.3 18 14.9 22.4 23.3 4.3 8.3 6.2 14.6 8.4 28 2.2 13 3.3 106.5 1.4 111.8-3.9 10.7-6.3 30.3-6.3 51.7.1 162.9.2 164.7 1.6 165.3.7.3 1.8.2 2.4-.1.7-.5 1.2-19.9 1.5-56.9.2-31 .7-56.6 1.1-56.9.3-.3 2.1.5 3.9 1.9 7.2 5.4 21.5 11.1 43.3 17.1 18.4 5.1 94.4 21.2 144.5 30.7 23.4 4.4 56 10.7 72.5 13.9s41.3 8 55 10.5c73.2 13.7 94.2 17.5 95.8 17.5 1 0 1.7-.8 1.7-2 0-1.4-1-2.2-3.7-2.9-5.7-1.5-42.4-8.6-64.3-12.5-62.1-11.1-204.9-38.9-254-49.5-57.7-12.5-79-19.5-90.8-29.8l-4.3-3.8-1.1-14.5c-2.6-35 2.6-73.9 11.6-86.9 7.2-10.3 23.1-21.6 36.8-26 9.6-3 27.2-6.1 34.9-6.1h4.4l-7.1 6.8c-5.8 5.4-7.6 7.9-9.4 12.7-2.9 8-4 15.4-3 20.1 1 4.4.6 5.4-2.1 5.4-1.1 0-12.1-2-24.6-4.5-12.4-2.5-23.2-4.5-23.9-4.5-1.8 0-1.8 2.4.1 4 1.6 1.3 34.6 8.3 48 10.1 6.8.9 9.7 1.7 11.8 3.5 1.5 1.3 4.3 2.6 6.2 3 4.5.8 12-.3 13.4-2 .7-.9 4.9-1.6 11.4-2.1 5.6-.4 11.3-1.3 12.7-2 4-2.1 14.3-13.5 17.8-19.6 6.4-11.3 17.7-18.2 36.2-22 10.7-2.2 33.9-3.3 35.6-1.6.5.4-.7 2-2.6 3.5-6.4 4.8-21.1 19.6-29 29-9.4 11.2-16.2 24.1-19.2 36.5-1.9 7.8-2 9.6-1 14.5 1.4 6.8 5.2 12.6 11.1 16.7 4 2.8 4.8 3 13.9 3 8.8 0 10.2-.3 14.3-2.7 7.5-4.4 13.4-11.9 20.6-26.2 10.1-19.8 17.8-26.5 38.9-33.5 20.7-6.9 45.5-10.5 88-12.6 34.5-1.7 46.5-2.8 56.8-5.5 16.8-4.3 22.2-7.6 35.4-21.2 13.2-13.5 22.2-27.5 29.1-45.3 5-13 5.2-13.7 4.1-15.5-1.6-2.6-4.1.1-6.5 7-7.6 22-23.9 46.4-39.3 58.6-14.8 11.7-27.4 14.5-73.2 16.4-44.4 1.9-74.2 6.1-98.6 14.1-21.1 6.8-29.5 14.2-39.3 34.5-6.4 13.1-13.5 22-20.2 25.5-5.8 2.9-7.5 2.5-10.5-2.6-2.4-4.2-2.5-5.1-1.9-11.5.7-6.6.6-7-1.3-7-4 0-5.1 9.1-2.6 20.3 1 4.2-1.1 3.4-7.6-3.1-7.2-7.2-8-10.2-5.6-21.1 2.3-10.5 7-19.8 16-31.9 26.9-35.8 53-50.5 114.4-64.3 18.6-4.2 27.6-7.1 37.9-12 8.9-4.3 9.1-5.9 1.5-15.1-3.3-4-6.8-8.9-7.8-10.8-2.6-5.1-2.2-11.8 1-16.8 5.5-8.7 24.5-21.8 47.1-32.5 38-17.9 73.1-37.9 84.1-47.8 2-1.9 2.1-1.8 12 4.9 5.4 3.7 12.1 8.4 14.9 10.5 5.3 4.1 9.3 4.7 8.7 1.2-.5-2.6-4.3-5.8-18.3-15.1l-11.7-7.8 5-7.4 4.9-7.3 4.7 2.7c2.6 1.5 8.9 5.4 14.1 8.5 5.8 3.6 11.3 6.2 14.5 6.9 2.9.5 17.1.9 33.1.8 43.5-.2 79.4 4.5 109.5 14.3 30.6 10 60.3 32.1 80.4 59.9 6.9 9.5 17.8 31.8 22 44.8 9.9 30.7 10.6 67.8 1.9 95.7-10.3 33-37.5 64.2-72.3 82.8-26.2 14-47.1 20.2-88.5 26.2-40.5 5.9-47.5 9.3-73.5 35.9-16.3 16.6-20.2 19-31.5 19-9.1 0-12.6-1.4-17-6.6-4.9-5.8-5.7-9-4.5-17.5 3.2-23.2 18.8-41.7 49-58.1 12.4-6.8 22.4-9.8 46.2-14.2 43.8-8 57.3-11.3 76.3-18.2 21-7.7 34-15.5 46.4-27.7 18.3-18 26-37.6 26.1-66.3 0-11.9-1-15.8-3.9-15.8-1.6 0-2.4 1.2-3.6 5.2-.8 2.8-1.5 5.7-1.5 6.4 0 .6-2.1 5.4-4.7 10.5-3.9 7.8-6.2 10.9-13.7 18.5-22.7 22.6-49.9 32-104.3 36l-22.8 1.7-35-3.9c-29.8-3.3-46.8-4.4-65.6-4.4-5.5 0-7.3-3.4-6.5-11.7.6-5.8.5-6.4-1.1-6.1-4.1.8-5.7 11-2.7 17.4.9 1.9 1.5 3.7 1.3 3.9-.3.2-2.2 0-4.3-.5-4.1-.9-8.1-4.7-9.2-8.7-.9-3.2 3.2-11 6.7-12.9 1.8-.9 2.9-2.2 2.9-3.6 0-1.8-.4-2-3.2-1.4-5.9 1.1-11.8 10.3-11.8 18.5 0 3.1-1.5 2.6-5.4-2.1-4.5-5.2-4.8-9.9-1-16.4 3.1-5.3 7.3-9 13.4-11.8 8.3-3.8 36.7-2.3 63.2 3.4 24.6 5.3 38.5 7.3 51.8 7.4 12.8.1 13.5 0 13.5-1.9 0-1.6-1.6-2.4-10-4.6-5.5-1.4-12.9-3.4-16.5-4.3-8.8-2.4-14-5.6-22.1-13.6-16.6-16.2-19.2-38-7.4-61.7 5.4-10.9 12.1-18.6 24.4-27.9 11.7-8.8 30.9-18.3 44.1-21.8 13.4-3.6 15-4.2 15-6.1 0-2.8-2.9-2.8-12.7 0-13.6 3.8-21.2 6.9-32.2 12.7-13.7 7.3-20.5 12.1-28.6 20.2-12.8 12.7-18.8 24.8-21.5 43.2-2.3 15.4 1.5 29 11.5 41.7 4.6 5.8 15.8 14.1 20.8 15.3 1.5.3 2.7 1 2.7 1.6 0 .5-.8.7-1.7.4-1-.3-6.1-1.2-11.3-2.1s-16.5-2.9-25-4.5c-21.2-4-34.7-5.4-46-4.7-12.4.7-17.7 2.7-23.8 8.7-8.4 8.3-11.2 17.3-7.9 25.3 1.9 4.4 8.4 10.1 14.3 12.2 2.7 1.1 5.8 2.5 7 3.2 3.5 2.2 13.4 2.7 17.8.9 7.4-3.1 40.4-1.7 79 3.4 23.4 3.1 41.8 2.6 73.5-2.1 38.3-5.6 59.9-14.5 79.3-32.7 7-6.6 16.3-19.3 17.4-23.9.4-1.2 1-2.3 1.6-2.3.5 0 .6 3.2.3 7.7-2.5 31.3-23.5 57.1-59.9 73.7-14.5 6.7-28.2 10.3-68.9 18.6-32.6 6.7-28.5 6.9-94.2-6.1-45.4-9-76.5-14.4-132-22.9-64.2-9.8-93-14.4-98.8-15.6-9.6-2-10.9-1.9-10.5.8.3 2.1 1.4 2.5 11.8 4.5 13.8 2.6 67.9 11.2 125 19.8 32.5 5 69.2 11.5 112.5 20.1 20.9 4.1 38.6 7.7 39.3 7.9.6.2 1.2 0 1.2-.5 0-.6-.8-1-1.8-1s-18.7-3.4-39.3-7.5c-42.2-8.4-78.8-15-111.9-20-93.9-14.2-133.7-20.8-135.4-22.5-2.1-2.1.7-2.2 11.6-.1 6.2 1.1 27.5 4.6 47.3 7.6s41.9 6.4 49 7.5c55.8 8.5 86.6 13.9 132 22.9 65.7 13 61.6 12.8 94.2 6.1 39.6-8 56.5-12.6 70.9-19 22.2-10 41.7-26.9 50-43.2 4.4-8.7 8.2-21.9 8.8-31.1.7-8.2.6-8.7-1.2-8.7-1.2 0-2.2.9-2.6 2.3-1.1 4.6-10.4 17.3-17.4 23.9-19.5 18.4-40.7 27.2-78.2 32.7-31.8 4.7-50.2 5.2-73.6 2.1-38.7-5.1-73.5-6.6-79.6-3.4-3.8 2-14.2 1.3-16.8-1.1-.9-.8-2.3-1.5-3.1-1.5-2.3 0-9.1-3.9-12.7-7.4-7.6-7.1-8.3-14.2-2.3-23.2 7.3-10.9 13.8-14.4 28.1-15.1 11.3-.7 24.9.7 46 4.7 8.5 1.6 19.8 3.6 25 4.5s10.5 1.9 11.8 2.2c1.7.4 2.2.1 2.2-1.5 0-1.3-.9-2.2-2.7-2.6-5-1.3-16.1-9.4-20.8-15.3-11.1-14.2-14.1-25.9-11.1-43.2 2.9-16.5 8.6-27.2 21.1-39.7 8.9-8.9 15.7-13.5 32.6-22.1 18.4-9.5 42.5-16.3 37.9-10.8-.6.7-2.8 1.5-5.1 1.9-7.4 1.2-25.3 7.7-35 12.8-20 10.4-35 24-41.9 38.1-5.5 11.3-7.4 19.2-7.4 30.7 0 8.3.5 10.5 3.4 17.9 2.7 7 4.3 9.5 9.9 15.1 10.8 10.9 11.7 11.3 39.1 18.6 16 4.2 14.5 6-4.3 5.1-11.4-.6-28.3-3.2-49.2-7.6-26-5.6-53.3-7.2-63.1-3.8-9.7 3.3-17.4 12.8-17.4 21.1 0 4.3 1.2 7 4.8 10.9 3.4 3.6 6.2 3.6 6.2-.1 0-5.2 2.1-10.2 5.9-14.2 2.1-2.2 4.5-4 5.4-4 2.6 0 2 1.8-1.2 3.4-1.5.8-3.7 3.2-4.7 5.3-4.2 8.7-.9 16.4 7.8 18.2 2.7.6 5.1 1.1 5.3 1.1 1.1 0 .3-4.7-1-6.4-2.2-2.9-1.9-10.9.5-13.7l1.9-2.4-.5 6.1c-.5 4.6-.2 6.8 1.1 9.3 1.5 3.1 2 3.3 5.5 2.8 2.1-.3 4.2-.2 4.5.2.4.3 6.8.6 14.3.6 9 .1 25.3 1.4 47.2 3.9 28.4 3.2 35.3 3.7 45.5 3.1 40.7-2.2 69.6-7.6 90.3-17.1 9.8-4.5 19.5-11.4 28.3-20.4 7-7 9.5-10.3 12.7-17.1 2.3-4.6 4.8-11.3 5.7-14.9 2-7.8 3.1-9.2 5.1-6.6 1 1.4 1.4 5 1.4 12.7 0 28.7-7.5 47.7-26.1 66-22.3 22-50.2 32.9-113.9 44.4-35.6 6.4-44.6 9.4-63.3 20.4-24 14.4-37.6 32.6-40.7 54.3-1.3 9 .1 13.8 5.5 19.4 3.2 3.4 5.1 4.4 9.8 5.4 3.3.7 8.1.9 11 .5 9.4-1.2 14.3-4.4 28.5-19 25.8-26.4 33.8-30.4 69.2-35.5 34.9-4.9 48.9-8.2 70.5-16.6 25.3-9.9 42.7-20.8 59-36.9 29.4-29 41.8-59.1 41.7-101.5 0-28-5.9-52.4-18.7-77.9-12.7-25.1-30.4-44.7-55.4-61.3-12.6-8.4-21.2-12.5-35.6-17.2-31.4-10.3-66.8-15-110-14.7-14.8 0-29.2-.2-31.8-.5-3.6-.4-8.2-2.7-18.5-8.9-7.5-4.5-14.7-8.6-15.9-8.9-1.9-.6-2.9.4-7.3 6.9m210.3 324.1c-.3.8-.1 2 .4 2.5s11.9 2.7 25.4 4.9c13.4 2.2 28.6 5 33.8 6.1 9.9 2.1 13.1 1.9 13.1-1 0-1.4-3.1-2.3-19.2-5.4-21-4-48.6-8.7-51.2-8.7-.9 0-1.9.7-2.3 1.6m22 2.4c26.1 4.4 49.7 9.2 49.7 10.1 0 2-2.8 1.9-14.3-.5-6.7-1.3-21.2-3.9-32.1-5.6-21.1-3.4-25.1-4.4-24.1-6 .8-1.3.3-1.4 20.8 2"/></g></svg>