<svg xmlns="http://www.w3.org/2000/svg" width="1365.333" height="1365.333" preserveAspectRatio="xMidYMid meet" version="1.0" viewBox="0 0 1024 1024"><g fill="#000" stroke="none"><path d="M139.5 58.1c-11.5.3-21.1.6-21.2.7s-1.2 1.7-2.5 3.4l-2.3 3.3-.5 177-.5 177-8.8 2.2c-10.4 2.7-22 7.9-27.6 12.3-2.2 1.8-6.1 5.9-8.6 9.1-11.2 14.3-15.9 32.3-16.9 64.4l-.4 14-3.3-.2c-13.9-1-41-1.4-43.7-.7-2.1.6 3.2.9 15.5.9 10.4 0 22 .2 25.8.5 7 .5 7 .5 6.8-2-.5-8.3 1.8-37.7 3.6-46 3.5-15.8 12-30.8 22.2-39 5.5-4.4 19.4-10.6 28.1-12.6 4-.9 7.6-2.2 8-2.8s.8-79.8.8-175.9c0-160.4.1-175.2 1.6-178.4 1-1.9 2.8-4.2 4.3-5.1 2.3-1.6 15.9-1.7 185.1-1.6 126.4.1 183.3.5 185.2 1.2 1.5.6 3.5 2.3 4.5 3.9 1.9 2.9 2 12 2.2 281l.1 73.3 11.3-.1c6.1 0 14.6-.4 18.8-.7 8.3-.8 8.6-.9 20.9-12.6 25.3-23.9 54.2-43.7 75.5-51.8l7-2.6-.3-7.9c-.4-11.5 1.1-16 9.1-28.1 9.3-14.1 10-16.8 8-31.9-2.6-20.4.5-29.5 14.4-42 9.7-8.7 11.2-11.4 13-23.1 2.4-16.6 9.3-26.4 23.9-34 12.3-6.3 24.9-8.6 37.5-6.7 3.6.5 5.5.3 8.6-1.4 18.7-9.5 50.4-6.2 69 7.1 5.7 4.1 12.8 14.7 17.6 26.5 5.3 12.9 9.3 16.3 22.8 19.8 9.2 2.4 17.3 7 22.9 13.2 10 10.9 12.6 21.4 9.6 39.4-2.4 14.7 0 19.8 13.5 28.5 3.6 2.3 8.2 5.9 10.2 7.9 13.7 14.1 17.5 34.9 9.5 51.8-4.9 10.2-12.4 18.9-19.3 22.2-3 1.5-5.5 2.9-5.5 3.2s3.4 4.2 7.6 8.6c9.5 10.3 14.5 16.7 22.1 28.7 6.7 10.5 17.2 31 19.6 38 .9 2.5 3 8.3 4.7 13 9.2 24.7 18.6 54.3 22.5 71 1 4.1 2.1 8 2.6 8.5.4.6.7 6.9.6 14-.2 11.4-.5 13.5-2.5 17.2-4.9 9.2-12.3 15.1-22.4 17.9-6.7 1.9-27.8 2-44.6.3l-12.5-1.3-5.3 6c-6.2 6.9-10.4 14.4-13.2 23.4-1.8 6-2 11-2.8 69.5-.5 34.6-.8 94.9-.6 134 .3 61.8.2 71.3-1.1 73-.9 1.1-1.9 1.6-2.4 1.2-.4-.5-.9-18.1-1.1-39.3l-.3-38.4-2.3-.6c-1.2-.3-23.2-.3-48.7 0-25.7.3-47.1.1-47.9-.4-1-.6-1.1-1.4-.4-3 .9-2.1 1.3-2.1 49.4-2.6 43.4-.5 48.6-.8 49.9-2.3 1-1.3 1.2-6.5.7-27.1-.6-27.3-1.6-35-6.3-46.7-4.2-10.4-12.3-15.8-33.4-21.8-18.4-5.3-31.7-6.7-67.1-7.1l-30.7-.3-6.2-4.2c-8.6-5.8-19.8-11.2-30.9-14.8-12.6-4.1-20.8-5.7-39.2-7.8-13.2-1.4-17.3-1.5-30.3-.5-22.8 1.9-38 4.9-61.2 12.3-13.2 4.2-23.9 5.3-26.2 2.5-.8-.9-.8-4.1 0-11.7 1.2-10.9.1-25.8-2.1-29.9-2.1-3.9-7.4-2-17.5 6.1-3.3 2.7-9.1 7.2-12.9 10l-7 5.1-9.2-1.3c-7.9-1-10.4-1-17.1.3-9.5 1.9-10.7 1.4-22.7-8.5-9.8-8.3-19.1-11.8-22.4-8.5-1.9 1.9-1.5 15.8.9 30l2.1 12.6-2.2 6.4c-5.9 17-2.3 37.8 8.2 47.9 4.7 4.5 5.5 6.9 2.3 6.9-.8 0-8.1 2.1-16.2 4.6-18.1 5.6-31.7 12.1-38.5 18.3-4.8 4.4-5.1 5.1-5.5 10.2-.3 4.6.1 6.4 3 12.1l3.3 6.8h-80c-117.1.1-278.8.9-288.9 1.5-4.8.3-9.7 1-11 1.6-2.1.9-2.1.9.3.5 7.2-1.3 25.5-1.6 126.5-2.1 182.1-.8 255.9-.7 258.9.5 1.5.5 6.6 1 11.3 1h8.5l-.7-5c-1.1-8.3 4-15.2 16-21.2 6.6-3.3 16.7-5.8 23.8-5.8 7.2 0 7.4 1.5.5 2.4-7.4 1-18.3 4.3-25 7.7-7.5 3.8-11 8.5-11.6 15.3-.7 8.6-5.4 8.1 80.8 8.1h74.5l.5-4.1c1-7.1 4.6-11.4 13.3-16 6.1-3.2 16.8-4.6 32.4-4.2 6.7.1 12.5-.1 12.9-.4.3-.4-.8-2.4-2.5-4.5-13.6-17-6-44.6 16.4-59.3 10.6-6.9 25-11.2 26.9-8.1.9 1.3-1.2 2.5-7.9 4.5-19.7 6-33.9 20.3-37.5 37.9-1 5-.9 6.9.6 13 1.8 7.5 5.6 14.2 9.6 16.9 4.3 2.9 1.2 3.9-8.6 2.7-6.5-.8-11.5-.8-18.7.1-26.7 3.1-37.7 11.9-31.1 25 1.5 3 2.4 3.6 7.7 4.8 8.7 1.9 55.6 2.7 73 1.3 18.1-1.5 31.5-3.6 41-6.6 4.1-1.2 7.8-1.9 8.1-1.4s3.2.9 6.5.9c7.9 0 7.7 1.4-1.1 8.7-17.5 14.4-30.5 19-63.2 22.2-19.3 1.9-30.8 8.5-32.3 18.6-2.4 15.8 4.9 19.9 35 19.9 14.7 0 20.1-.4 29.3-2.2 22.7-4.6 37.4-11 54.6-23.9 14.2-10.6 28.6-28 33.2-40 1.1-2.7 2.1-4 2.8-3.5.6.4 22.9.7 49.6.7h48.5l.6 39c.3 21.4.6 39.1.7 39.2.1.2 1.1.3 2.2.3 1.3 0 2.4-1 3.1-2.8s1-25.2.7-73.2c-.1-38.8.1-98.9.5-133.5.9-62.9.9-63 3.3-70.3 2.7-8.1 6.9-15.1 13.7-22.6l4.4-5 11.5 1.3c17.3 1.8 36.9 1.6 45.2-.5 12.2-3.1 21-11.1 24.2-22 1.1-4 1.5-8.5 1.2-16-.2-6.5.1-10.4.7-10.4 2.7 0 12.6 7 18 12.5 6.1 6.2 11.3 15.3 14.1 24.5 3.9 12.7 3.6 33.8-.7 51-2.5 9.8-11.9 29-17.9 36.5-10.6 13.3-22.8 33.4-21.5 35.5.3.4 3.7 1.1 7.7 1.4 9.8 1 24.4 4 36.9 7.6 5.6 1.6 10.5 2.8 10.6 2.6.4-.4-9.8-3.6-19.3-6-9-2.3-20.2-4.4-28.2-5.2l-7.1-.6 3.1-6.2c3.3-6.5 12.3-20 18.9-28.1 5.7-7.1 15.4-27.4 17.9-37.5 5.9-23.9 4.3-46.3-4.6-64.4-4-8.3-14.1-18.3-22.9-22.7l-7-3.5-1.8-7c-5.5-21.5-12.9-45-21.8-69.3-2.7-7.5-5.7-15.6-6.6-18.1-2.9-8-14.7-30.2-21.6-40.6-6.4-9.8-22-28.3-25.3-30.2-1.2-.7-.4-1.5 4.1-3.6 3.8-1.9 7.1-4.7 10.6-8.8 12.2-14.6 15.6-30.1 10.6-47.4-3.6-12.4-9.7-20.2-21.7-27.9-7.5-4.8-13.5-11.3-14.3-15.3-.3-1.5.2-7.7 1.1-13.9 2.6-17.7 0-27.9-9.8-38.6-5.7-6.2-11.9-9.8-21.6-12.5-8-2.2-13.8-5-17.3-8.3-2.1-2-10.1-17.6-10.1-19.8 0-.5-2.2-4.3-5-8.4-7.4-11.1-16.7-16.7-35-21.2-14-3.5-35.2-1.6-46.1 4-2.2 1.2-4.3 1.5-6.8 1-15.9-3-40.1 4.3-50.8 15.3-6.1 6.2-10.1 15-11.4 25.2-.6 4.7-1.8 9.8-2.7 11.5-.8 1.6-5.6 7-10.7 12-14.3 14-16.9 21.9-14.2 42.7 1 7.3 1.2 13 .7 15.3-.5 2-4 8.4-7.8 14.3-8.4 12.7-10.4 18.8-10 29.8l.3 7.8-7 2.6c-21.5 8-50 27.5-75.5 51.6-12.1 11.5-12.6 11.8-20.4 12.6-3.9.4-11.9.7-17.8.7l-10.8.1-.1-72.8c0-40 0-117.8.1-172.8.1-102.5 0-106.4-3.7-110.6-.8-.9-3-1.9-5-2.3-4.5-.8-321.6-1.2-349.8-.4m392.9 618.1c2.2 5.2 2.8 17.6 1.6 28.7-1.4 12.8-1.2 13.1 8.2 13.1 5.3 0 9.8-.9 19.1-3.9 23.2-7.4 38.4-10.4 61.2-12.3 13-1 17.1-.9 30.3.5 25 2.8 38.7 6.4 54.2 14.1 14.1 7.1 23.1 13.6 31.9 23.2 19.6 21.3 28.8 42.3 29.9 68.4 1 24.8-7 43.5-27.2 63.5-23.9 23.7-51.6 35.4-88 37.1-22.4 1.1-36.7-2-40.1-8.6-2.9-5.7-1.3-14.2 3.6-18.7 5.1-4.7 15.4-8.3 26.7-9.4 23.9-2.3 42.1-6.9 51.7-13 13.9-8.8 24.6-20.3 31.4-33.6 3.6-7.3 3.6-7.3 1.4-7.3-.9 0-3.2 1.7-5.2 3.7-5.8 6.1-10.4 9.6-16.2 12.5-19 9.5-48.6 13.4-94.4 12.5-30.6-.6-36.8-1.5-39.6-6.1-4.1-6.7-1.5-12.9 7.3-17.6 10.3-5.5 25.4-7.3 48.8-5.7 2.9.2 3.6-.2 3.8-2 .2-1.4-.4-2.6-1.7-3.2-3.4-1.8-7.9-9.4-9.6-16.1-1.4-5.3-1.5-7.4-.5-12.2 1.5-8.1 7.4-18.1 14.5-24.6 6.3-5.8 19.3-12.8 25.8-13.9 3.8-.6 5.8-2.7 5-5.1-.7-1.9-7.2-1.4-15.4 1.3-16 5.4-29.7 18.5-34.1 32.9-4.3 13.6-2.5 26.8 4.6 35.2l2.3 2.9-17.6.1c-19.2.1-23.4 1-32.1 6.4-5.2 3.3-7.8 7.2-8.8 13.2l-.8 4.3-72.4.3c-82.8.2-81 .4-81-6.8 0-10.1 16.2-20.3 36.3-22.6 4.7-.6 5.7-1 5.7-2.5 0-4-18.4-1.8-30.5 3.5-12.2 5.5-18.3 13.5-17 22.3l.7 4.6-9.4-.5c-6.9-.4-10.2-1-12.2-2.4-3.7-2.3-8.6-12.6-8.6-17.8 0-3.5.7-4.6 5.3-9.1 8.5-8.2 28.4-17 53.5-23.5 5.3-1.4 5.6-3.9.7-7.6-6.5-5-11.2-15.4-12.2-27.1-.6-7.7.8-17.4 3.2-22 1.9-3.6 1.9-4.9-.5-18.8-2.3-13.2-2.6-26.5-.8-28.3 3.1-3.1 10.5.1 20.8 8.8 4.1 3.5 9.3 7.1 11.5 8 3.7 1.7 4.5 1.7 11.8.2 6.7-1.3 9.1-1.3 17.5-.2l9.8 1.3 6.9-5.2c3.9-2.8 9.7-7.3 12.9-9.9 11.8-9.4 14-10 16-5m270.1 55.2c21.1 2.8 41.6 9.7 50.5 17.3 4.1 3.4 8.3 12.4 10.5 22.3 2.3 10.6 3.4 58 1.4 59.6-1 .8-16 1.3-48.9 1.5l-47.5.4.3-3c1.4-16.6 1.3-26.7-.3-35.1-4.4-23.2-12.7-39.1-29.7-57-6.4-6.7-6.7-7.3-4.6-7.8 5-1.1 56.6.3 68.3 1.8m-76.7 93.3c-1.7 3.2-4.6 7.9-6.4 10.4l-3.3 4.5-6.3-.4c-8.8-.5-8.9-.6-3.3-3.3 3.5-1.8 6.3-2.5 9.5-2.3l4.5.2-3.9-.6-4-.7 5.6-4.3c3.1-2.4 6.4-5.4 7.3-6.8 3.1-4.8 3.4-2.3.3 3.3"/><path d="M530.4 722.5c-.3.8.9 5.1 2.7 9.7 2.9 7.2 3.3 9.5 3.4 17.3 0 7.8-.4 9.8-2.8 14.8-3 6.5-11.1 15.6-17 19.4-7.5 4.7-17.5 6.6-35.7 6.7-14.2.1-16.8-.1-19-1.7-2.8-1.9-5.6-2.2-6.5-.6-1.2 1.9 3.8 5.9 9.4 7.6 12 3.4 42.6-.3 55.3-6.8 9.1-4.6 19.6-19 21.9-29.8 1.7-8.1.7-18.4-2.6-26.4-4-9.8-7.7-14-9.1-10.2m7.1 9c3.9 7.8 4 8.2 4 18.5-.1 11.6-.7 13.5-8.6 25.1-9.1 13.4-23.7 19.5-49.4 20.6-14.9.6-20-.3-24.8-4.7-3.5-3.2-2.3-3.9 2.5-1.4s24.9 3 36.5 1c16.7-2.9 25.2-7.7 33.4-18.9 1.8-2.4 2.9-3.3 3.3-2.5.3.7.4.4.1-.8-.8-3.1.4-5.4 2.3-4.7 1.4.4 1.4.3.3-.5s-1.1-1.6-.2-4.2c2.5-7.2.4-20.1-5.6-34.9-.3-.8 0-1.2.8-.9.8.2 3.2 3.9 5.4 8.3"/><path d="M491.3 744.7c-.4 1 .2 2.3 1.6 3.4 2 1.6 2.6 1.7 6.9.4 2.6-.8 4.8-1.5 5-1.5.1 0 .2-.9.2-2 0-1.8-.7-2-6.5-2-5.2 0-6.7.3-7.2 1.7m12.7.2c0 .5-2 1.6-4.4 2.4-4.1 1.4-4.6 1.4-6-.2-.9-1-1.3-2.1-.9-2.4 1-1 11.3-.8 11.3.2m-57.3-.2c-2.8 2.8 3.6 5.8 10.2 4.7 4.6-.7 5.8-3.7 1.9-4.8-3.1-.8-11.3-.8-12.1.1m11.7.9c2.6 1 1.8 2.1-2 2.9-3.9.7-9.8-1.1-8.8-2.6.6-1 8.4-1.2 10.8-.3m10.6 11.7c-3.9 2-3.4 5.8 1.3 8 4.2 2.1 4.9 5.3 1.8 8.1-1.6 1.4-3.3 1.7-8.3 1.4-5.7-.3-6.3-.1-6.3 1.7 0 3 6.1 4.2 13.3 2.7 4-.8 6.8-.9 9.2-.2 4.6 1.3 11.9 1.3 15.9-.1 2.4-.9 3.1-1.6 2.9-3.3-.2-1.4-.9-2-2.3-1.8-9.1 1.2-13.4 1.3-15.3.3-2.9-1.5-2.8-3.1.6-9.1 3.6-6.6 2.6-8.4-4.9-8.8-3-.1-6.5.4-7.9 1.1m13 1.2c1 1.2.7 2.3-1.4 5.9-5.1 8.8-2.7 12.2 7.8 11.3 3.4-.2 6.7-.6 7.5-.8.7-.2 1.5.1 1.8.7.8 2.2-5.4 3.7-11.9 2.9-8.1-.9-12.1-.9-18.4 0-3.3.5-5.9.3-7.3-.5q-4.95-2.55 4.5-2.1c7.6.3 10.6-1.6 10.2-6.7-.2-2.9-.8-3.8-2.4-4-1.2-.2-3-1.2-4-2.4-1.8-1.9-1.8-2 .5-3.9 2.9-2.4 11.2-2.6 13.1-.4M138.8 83.3c-1 1.7-1.2 19.9-.9 82.7.1 44.3.5 80.8.8 81.3.5.8 65.7.9 67.9 0 1.2-.4 1.4-10.7 1.4-63.9V120l-2.6-.6c-3.7-.9-29.7.6-31.1 1.8-1 .8-1.3 14.7-1.3 63.4V247h-16.4c-9.1 0-16.7-.3-16.9-.8-.3-.4-.7-36.5-.8-80.2-.3-61.9-.1-80 .9-81.7l1.2-2.2 73.3.5c40.2.3 73.7.9 74.2 1.4.6.5 2.8.5 5 0 2.3-.6 41.4-1 90.2-1h86.2l1.3 2.2c1 1.8 1.2 18.4 1 81.2-.1 43.4-.5 79.3-.8 79.7-.7 1.1-60.4 1.2-60.4.1 0-.4 2.6-1.3 5.8-2 3.1-.7 8-2.5 10.9-4.2 4.2-2.4 5.7-4 8.2-9.1 1.7-3.4 3.1-7.7 3.1-9.5 0-4.3-2.8-11.2-5-12.4s-64.3-1.2-67.5 0c-4.1 1.6-6.7 6.7-6 12 .9 5.8 6 15.5 9.6 18.1 3.1 2.2 13.2 5.9 16.1 5.9 1 0 1.8.4 1.8 1s-12.3 1-35 1c-19.2 0-35-.3-35-.8 0-.4.9-1.3 2-2 2.6-1.6 2.6-2.6-1.4-23.2-11.3-59.1-18.1-91.7-19.4-93.3-1.2-1.4-3.1-1.7-10.1-1.7-8.2 0-17.9 1.1-22.8 2.6l-2.3.6v-13.9c0-9.5-.4-14.3-1.2-15.1-1.6-1.6-26.3-1.6-30.7-.1l-3.1 1.1v18.7l-9-.1c-5-.1-9.3.2-9.6.4-.3.3 3.6.6 8.6.6s9.3.2 9.5.4c.4.4 1.4 74.5 1.5 104V248l29.2-.1c16 0 29.6-.3 30-.5 1.4-.9 27.9-1 28.4-.2.8 1.2 70.2 1 70.9-.2.3-.6 5.2-1 11-1s10.7.4 11 1c.8 1.3 61.1 1.4 61.9.1.3-.5.7-36.8.8-80.7.2-63.7 0-80.4-1-82.2l-1.3-2.2h-87.2c-48.8 0-88.6.4-90.4.9-1.7.5-3.5.5-3.9.1-.5-.5-34.3-1.1-75.1-1.4l-74.3-.5zm123 17.9c.8.8 1.2 5.6 1.2 14.9 0 15 .6 16.5 5.5 13.3 1.7-1.1 6-1.7 15.2-2.1 11.7-.5 12.9-.4 14.4 1.3s9.7 40.9 21.1 100.8l2.3 11.8-2.3 1.8c-1.3 1.1-4.8 2.1-8.7 2.5-6.9.8-19 .3-20-.7-.8-.8-2.6-8.6-8-34.3-2.4-11.6-6.3-29.6-8.5-40-2.2-10.5-4.7-22.6-5.6-27-2-10.4-2.1-10.6-3.7-9.9-1 .4-1.3 2.9-1.1 10.7.1 5.6.4 30.9.6 56.2l.3 46-16.7.3-16.8.2v-17.2c0-9.5-.3-42.1-.7-72.3l-.6-55.1 2.4-1.1c3.3-1.6 28.1-1.7 29.7-.1m-55.3 82.3v63l-13.9.3c-7.7.2-15 .1-16.3-.3l-2.3-.5V122l2.3-.5c3.5-.8 11.4-1.2 21.2-1.1l9 .1zm59.5-45.9c0 1.4-.4 2.3-1 1.9-.5-.3-1-1.5-1-2.6 0-1 .5-1.9 1-1.9.6 0 1 1.2 1 2.6m1 4.1c0 .5.7 3.9 1.5 7.8 2.6 12 8.4 39.1 13 61 2.4 11.5 5.1 24.1 6 27.8.8 3.7 1.3 7.2 1 7.7-1 1.6-18.8 1.2-21-.4-1.9-1.4-2-3.5-2.5-46.8-.5-48.3-.4-57.8 1.1-57.8.5 0 .9.3.9.7m168.1 70.4c3.7 5.2 3.7 10.7-.1 17.8-5.6 10.4-16.4 15-35.1 15.1-11.1 0-18.1-1.3-24.9-4.8-4.5-2.2-6.2-3.9-9.2-8.8-2-3.4-3.9-8.1-4.3-10.6-.6-4.1-.4-4.7 2.8-8.1l3.4-3.6h65.2zm-296.5 57.1c-2.1 1.6-2.1 2.2-2.1 75l-.1 73.3.6-72.7c.4-65 .7-72.9 2.1-74.3 1.5-1.5 16.3-1.6 166.5-1.5 90.7 0 165.3.5 165.7.9.5.5 1.1 33.7 1.4 73.9.6 71.1.5 73-1.3 73.5-1 .3-15.2.4-31.4.2-16.2-.1-38.3-.3-49-.3-10.8-.1-20.4-.4-21.3-.8-1.6-.6-1.7-4.2-1.7-46.3 0-35.1-.3-46.1-1.3-47.4-1.1-1.6-3-1.7-16.7-1.5l-15.5.3-.3 47.4c-.1 32.5.1 47.8.8 48.5 1.3 1.3 32 2.2 32 1 0-.5 9.8-.7 21.7-.5 12 .2 40.6.5 63.5.5 34.5.1 41.9-.1 43-1.3s1-1.3-.7-.6c-1.1.5-6.2 1-11.2 1.3l-9.3.4v-36.4c.1-48.1-1-112.1-1.8-113-.4-.4-75.2-.9-166.2-1-152.9-.3-165.6-.2-167.4 1.4m227.3 54.2c.8.9 1 14.3.9 47.7l-.3 46.4h-14c-7.7 0-14.8-.3-15.7-.7-1.7-.7-1.8-3.9-1.8-47.1 0-25.5.3-46.7.7-47 .3-.4 7-.7 14.8-.7 10.8 0 14.5.3 15.4 1.4"/><path d="M206.5 301.7c-5 .8-5.5 1.8-5.3 10.2l.2 7.6.3-7.2c.3-5 .9-7.5 2-8.4 2.3-2 28.5-2.6 30-.8 1.3 1.6 2.2 111.7.9 113.7-.8 1.3-30.1 1.8-30.9.4-.3-.4-.8-22.2-1.2-48.5-.8-47.2-.8-47.8-2.9-49-2.4-1.4-25.9-1.7-27.3-.4-.4.5-.8 22.4-.8 48.7 0 30.7-.4 48.2-1 48.8-.5.5-13.1 1.3-28 1.6-14.8.4-27.2.9-27.4 1.2-1 1 55.4-.8 56.4-1.8.6-.6.9-17.5.7-48.1-.2-31.1 0-47.7.7-48.7.8-1.2 3.3-1.5 11.8-1.5 5.9 0 12 .3 13.4.7l2.6.8.8 48.2c.4 26.6.9 48.6 1.2 49 .8 1.4 32.1.9 32.9-.4.4-.7.7-22.3.5-48.1l-.3-46.8 16.1.3c13.1.2 16.2 0 16.6-1.1.5-1.1 3.3-1.3 15.8-.9 8.5.3 13.2.1 10.7-.3-6.8-1.1-27-1.1-27 .1 0 .6-6 1-16 1h-16v-9.5c0-8.3-.2-9.6-1.9-10.5-1.9-1-21.4-1.2-27.6-.3m100 1c-2.2.2-4.3.7-4.7 1.1-1 1-1.9 18-1 18.6.4.2.8-3.4.9-8.1.1-4.8.7-9.1 1.3-9.7.7-.7 5.9-1.1 14.5-1.1 16.1 0 16.5.2 17.6 10.2l.8 6.8-.3-7.3c-.2-4.7-.9-7.9-1.8-8.8-1.5-1.5-19.5-2.6-27.3-1.7m217 122.5c-22.7 19.8-48.9 47.6-58.1 61.8-8.2 12.7-11.4 29.4-8 41.2 1 3.2 2.2 6 2.7 6.3 1.2.8 1.2.8-1.1-5.3-4.9-12.8-1-29.7 10.5-45.6 10.5-14.6 35.4-40.5 55.1-57.3l6.1-5.2 5.9 3.5c6.2 3.7 22.3 18.7 28.8 26.7 2.1 2.6 4.1 4.6 4.3 4.3 2-2-26.1-29.3-33.6-32.7-2.7-1.3-4.7-2.7-4.5-3.1 1.4-2.2-1.8-.1-8.1 5.4m315.1 45.6c-1.3 2.2 7.6 30.5 11.8 37.6 1.3 2.2 4.9 7 7.9 10.5s6.2 7.6 7.1 9.2l1.7 2.9-9.8-.6c-17.5-.9-26.3-1.6-26.3-2 0-1.4 3.9-7.7 9.6-15.6 3.5-4.8 6-8.8 5.5-8.8-1.1 0-12.7 16.1-14.9 20.8l-1.7 3.5-13-.7c-7.1-.4-16.8-1.2-21.4-1.7-4.7-.6-15.9-.9-25.5-.6-19.1.5-26.4 2.1-38.6 8.2-11.2 5.6-28.8 21.2-35.5 31.4-4.2 6.3-2.4 5.9 2-.4 4-5.9 14.6-16.2 23.6-23.2 6.9-5.3 17.6-10.6 25.9-12.9 8.8-2.5 38.2-2.5 67-.1 24 2 53.3 3.8 53.8 3.2.9-.8-3.3-7.5-8.4-13.5-3.1-3.6-6.9-8.8-8.5-11.5-2.9-5-9-22.2-10.8-30.3-1.7-8.1 2.6-5.3 5.2 3.3 2.3 7.8 7.7 21.9 8.8 22.9 1.4 1.5 1.1.3-1.5-5.5-1.3-3-3.7-9.6-5.5-14.8-1.7-5.1-3.6-10-4.2-10.7-1.3-1.6-3.5-1.8-4.3-.6M424 600.6c-64 3.4-98.2 17.1-144.4 58.2-6.1 5.3-15.7 13.9-21.5 19.1s-19.1 17.6-29.6 27.6c-10.4 10.1-21.2 20.1-24 22.4-5.3 4.4-7.3 7.7-5.5 9.5 1.6 1.6 60.5 2.3 129.5 1.7 31.4-.3 64.9-.5 74.5-.4 16.7 0 17 0 7-.8-5.9-.4-24-.4-41.5.2-24.9.8-164.2.3-165.2-.5-.2-.2 2.6-2.5 6.1-5.4 3.5-2.8 13.7-12.2 22.7-20.9s21.8-20.6 28.4-26.4c6.6-5.9 17-15.1 23-20.4 38.6-34.3 66.6-48.3 110-55.1 8.4-1.3 20.4-1.9 50.5-2.3 38.6-.6 39.5-.6 39.5-2.6 0-1.8-.9-2.1-7-2.6-9.4-.9-44.4-1.7-52.5-1.3m51.9 2.3c3.5.3 6.6 1.1 6.8 1.7.3.9-10.1 1.3-39.4 1.7-30.8.3-42.2.8-50.3 2.1-45 7.3-71.6 20.6-110.5 55.1-6 5.3-16.4 14.5-23 20.4-6.6 5.8-19.3 17.7-28.3 26.3-18.4 17.8-29.6 27.3-31.2 26.3-1.5-.9 0-3.1 5.6-7.6 2.7-2.3 13.5-12.3 23.9-22.4 10.5-10 23.8-22.4 29.6-27.6s15.4-13.8 21.5-19.1c21.8-19.4 42.4-33.3 61.4-41.5 24.2-10.4 45.4-14.8 82-16.7 8.3-.4 43.5.4 51.9 1.3M92.2 685c-1.8 1.1-10.8 9.3-20 18.3-20.4 19.8-49 42-65.7 50.9-7.9 4.2-7.2 5.2.8 1.2 15.1-7.7 45.6-31.4 67-52.1 9.8-9.5 18.9-17.6 20.2-17.9 3.1-.8 7.4 2.5 18.1 13.9 14 14.8 24.9 32.4 23.1 37.1-.3.8-5 3.8-10.4 6.7-30.4 16.3-38.8 24.1-46.2 42.7-7.8 19.5-11.8 26-18 29.2-5.5 2.8-19.6 4.3-32.7 3.5-7.6-.5-12.4-.3-15 .4-5.7 1.8-13.4 5.3-13.4 6.2 0 .4 3-.6 6.8-2.4 6.6-3.1 6.9-3.2 19.7-2.9 15.5.3 29.4-1.2 35.1-3.7 6.5-2.9 10.5-9.3 18.5-29.3 5.5-13.8 12.5-22.3 24.8-30.3 6.1-3.9 31.9-18.5 32.8-18.5.2 0 1.3 2.1 2.4 4.6 1.1 2.6 2.2 4.5 2.5 4.2.7-.7-3.4-9.8-4.4-9.8-.4 0-1.4-2.4-2.1-5.3-.8-2.8-2-6.4-2.7-7.8-2.4-4.7-13.7-19.3-20.3-26.3-6.4-6.7-15.6-14.6-16.9-14.6-.4 0-2.2.9-4 2M379 837.2c-5.2.3-54 .9-108.5 1.2-54.4.4-119.2 1.1-143.8 1.6-24.7.6-58.7 1.1-75.5 1.1-16.9.1-35.4.4-41.2.8-12.8.8 38.5.4 111.5-.9 29.7-.6 84.2-1.1 121-1.1 65.9-.1 145.3-1.4 146.3-2.4s-.4-1-9.8-.3M26 919.7l25.5.3-.3 30.6c-.2 25.4 0 31.5 1.3 36 2.1 7.2 4.9 8.7 15.5 8.2 8.4-.3 11.2-1.8 13.2-6.8 1.2-3.1 8.8-31.7 13.4-50.5 1.8-7.7 3.6-14.5 3.8-15.2.4-1 14.7-1.3 70.3-1.3 68.1 0 69.9 0 73.3 2 1.9 1.1 5.3 2.9 7.5 3.9s9.6 4.6 16.5 7.8c6.9 3.3 14.1 6.6 16 7.3 5.7 2.2 30.2 15 34 17.7 6 4.5 11.1 9.7 13.1 13.5 3.3 6.4 2.4 9.6-4.4 16.3l-4.1 3.9-100.5-.1c-55.3 0-109.6.2-120.6.6-15.6.5 149.4.6 215 .2 7.2-.1 150.5-.1 318.5 0 216.2.1 307.4-.2 312.1-1 7.7-1.3 20.2-5.2 26.2-8.2 14.4-7.3 32.6-23.4 42.8-38 5.9-8.3 10.2-15.9 9.1-15.9-.4 0-1.9 1.9-3.2 4.2-11 19.9-32.9 40.8-52.4 49.9-15.3 7.1-34.2 9.6-63.6 8.4-9.6-.5-18.2-.7-19-.7-.8.1-5.3.4-10 .8l-8.5.6-2.7-3.5c-2-2.5-3.8-7.6-6.4-17.4-3.8-14.7-10.3-37-12.9-44.2-2.6-7.6-4-7.1 21-7.1 17.3 0 22.7.3 23 1.3.3.7.6 15 .8 31.7.2 27.7 0 30.8-1.5 33.2-2.2 3.3-2.3 4.5-.4 2.9 3.3-2.7 3.9-10.6 3.2-40-.4-15.7-1-28.9-1.2-29.3-.3-.5-11.1-.8-24-.8-26.8 0-25-.8-21.4 9.6 2.7 7.8 9.1 29.9 13.1 45.3 2 7.6 4.1 13.3 5.4 15l2.3 2.6-267.7-.2c-147.2-.1-269.2-.2-271.1-.3h-3.5l3.7-3.3c4.3-3.8 5.8-6.5 5.8-10.7 0-10.9-14.3-22.3-45-36-5.2-2.3-14.7-6.7-21-9.7s-13.1-6.2-15-7c-1.9-.9-4.8-2.5-6.5-3.7-3-2.1-3.3-2.1-74.4-2.4-49-.2-71.7.1-72.6.8s-2.6.7-5.6 0c-2.6-.6-22.6-1.2-47.9-1.3-23.9-.2-32-.2-18 0m64.9 2.4c3 .5 5.6 1 5.7 1.2.6.6-13.6 57.5-15.8 63-.6 1.5-2.4 3.9-4 5.2-2.6 2.2-3.9 2.5-10.2 2.5s-7.7-.3-9.9-2.4c-1.4-1.3-3-4.1-3.6-6.2-1.6-5.6-1.5-62.6.1-64.2 1.3-1.3 28.4-.7 37.7.9"/><path d="m524.8 920.8-48.6.2-2.3 3.6c-2.9 4.8-5.9 16.5-5.9 23.3.1 18 10.5 34.9 25 40.6 3.5 1.4 7.1 2.5 7.9 2.4.9 0-.7-.9-3.5-1.8-7.9-2.9-10.6-4.6-15.5-9.8-9.4-10-13.5-21.2-12.6-34.3.5-7.7 3.3-16.7 6.5-20.8l1.8-2.4 159-.3c87.4-.1 162.4 0 166.7.4 7.7.6 7.9.7 9.7 4.1 1.1 1.9 2.6 5.3 3.5 7.4.8 2.2 1.8 3.7 2.1 3.4.5-.6-1.5-5.7-4.7-11.8-1.8-3.5-1.8-3.5-10-4-8.4-.6-189.4-.7-279.1-.2"/></g></svg>