<svg xmlns="http://www.w3.org/2000/svg" width="1365.333" height="1365.333" preserveAspectRatio="xMidYMid meet" version="1.0" viewBox="0 0 1024 1024"><path fill="#000" d="m233 100.9-2.5.7.1 44.4c.1 24.5.2 57.4.3 73.3l.1 28.7 17.2-.2 17.2-.3.1-53.5c0-29.4.4-54.3.9-55.3.6-1.2.4-1.7-.8-1.7-1.9 0-2.1-1.1-.4-2.8.9-.9.9-1.5 0-2.4-.8-.8-1.2-5.6-1.2-14.9 0-7.6-.3-14.4-.6-15.3-.5-1.4-2.7-1.6-14.3-1.5-7.5.1-14.7.4-16.1.8m179.2 8.7c-2.3.9-6.6 3.8-9.6 6.5-12.7 11.6-17.1 32.6-11.4 53.9 1.5 5.2 3.6 14 4.8 19.5 2.8 12.9 3.7 13.8 7.7 8.3 1.7-2.4 4.4-7.2 6-10.8 1.7-3.6 5.7-10.3 9-14.9 3.4-4.6 6.6-10.1 7.2-12.1 2.5-8.3.8-45.4-2.3-49.5-1.7-2.2-6.6-2.6-11.4-.9m-272.1 16.8c-.8.9-1 17.8-.9 61.2l.3 59.9h34l.3-59.2c.3-67.6 1.5-60.2-9.9-62.2-9.4-1.6-22.4-1.4-23.8.3m212.1 8.8c-3.3 3.6-4.4 7.7-4.3 16.3.1 20.4 9.8 39.3 23.6 46.4 4 2 18.2 6.1 18.9 5.4s-5.4-32.6-7.9-41.5c-3-10.4-7.2-19.3-10.6-22.4-7.3-6.6-15.7-8.4-19.7-4.2m90.1 33.8c-8.3 2.2-11.9 3.9-18.8 9-7.9 5.9-13.1 12.8-16.1 21.3-1.2 3.5-1.2 4.3 0 6.2 1.4 2.1 2.5 2.3 12.8 2.7 10.1.5 11.8.3 16.3-1.7 7-3 16.5-12.2 23.2-22.3 7-10.6 8.1-13.5 6.4-15.6-1.9-2.2-14.6-2-23.8.4m320.5 1c-3.1.5-9 2.1-13 3.6-7.4 2.7-8.5 2.8-21.8 2.4-5.2-.2-9.8.4-15.3 1.9-22.8 6.3-35.2 18.6-37.7 37.7-1.7 12.7-2.4 14-13 24.4-14.4 14.2-17.3 22-15 40.6 2.1 16.9 1.5 19.6-6.9 32.1-9 13.5-10.7 18.8-9.5 29.2l.9 7.5 13-.3c12.2-.2 39.7 2.5 48.1 4.8 3.1.8 3 .3 1.8 11.2-1.2 10.8 3.7 22 12.8 28.7 11.5 8.6 21.8 12.2 36.9 12.9 10.3.5 12.6.3 21.8-2.1 18-4.6 32.6-12.7 46.7-25.8 4.1-3.8 8.5-7.3 9.8-7.7 4.8-1.9 24.8 1.9 38.1 7.1 2.8 1.1 11.9 5.4 20.3 9.6l15.4 7.6 5.5-2.8c9.5-5 19.4-19 22.3-31.5 1.6-6.9.8-18.8-1.9-26.4-3.7-10.6-12.6-20.9-22.6-26-4.5-2.3-11.4-9.9-12.5-13.7-.7-2.5-.5-6.6.7-14.8 1.4-9.2 1.5-12.5.6-17.8-2.9-16.5-15.4-29.5-32.3-33.4-6.7-1.5-16.7-6.6-18.6-9.5-.7-1.1-3.3-6.6-5.8-12.3-8-18.3-15.1-25.9-29.4-31.7-12.2-5-28.3-7.2-39.4-5.5M205 303.3l-2.5 1.3.3 54.8c.2 30.1.1 55.9-.2 57.2l-.6 2.4-29.8.2c-16.3.1-36 .2-43.7.2-7.7.1-14.2.4-14.5.7s-4.5 1.6-9.3 2.8c-4.9 1.2-12.6 4-17.3 6.2C63 441 51.2 468.6 52.2 510.9l.3 12.5 9.5 2.7c30.8 8.9 50.4 26.1 62.7 54.9 4.7 11 7.5 21.5 10.3 39 3.3 20.5 3.5 19.5-6.7 28.7-4.9 4.2-19.4 18.5-32.3 31.7-25.5 25.9-37.6 36.5-41.8 36.7-1.5.1-3.8.2-5.2.3-1.4.2-6.3.6-11 1-13.3 1-31.2 2.7-34.7 3.2l-3.3.5V919l3.8.1c2 .1 4.8.3 6.2.4s11.6.3 22.7.4l20.3.1-.6 28.3c-.7 31.6 0 39.6 3.9 43.5 2.1 2.1 3.4 2.4 10.4 2.4 9.6.1 12.5-1.4 14.7-7.5 1.8-4.9 8.7-31 12.7-48.2 2.6-11 2.7-12.1 1.2-13.7-.9-1-2.8-1.8-4.2-1.8s-3.3-.5-4.1-1c-1.7-1.1 286.6-1.4 350.2-.3l39.7.6-2.4 4.1c-7.2 12.3-7.1 31.9.3 44.6 3.5 6.1 10.9 13.8 15.3 16.1 2 1 7 2.9 11 4.1l7.4 2.3 162.6.3c144.9.2 162.8.1 163.9-1.3 1-1.2 1-2.8.1-7.6-2.1-10.3-9-31.6-14.3-43.8-2.8-6.4-5.6-13.3-6.4-15.3l-1.3-3.7h15.5c8.4.1 15.2.4 14.9.9-.2.4.9 4.7 2.6 9.6 2.7 8 4.6 14.8 13.5 47.8 3.4 12.3 5 13.6 16.5 13.6 7.1 0 7.7-.2 10.4-3 3.9-4.1 4.4-9.3 3.7-42.8l-.5-26.2h8.4c17.7-.1 31.1-3.5 42.1-10.7 8.5-5.6 13.9-11.7 18.3-20.7 6.7-13.7 6.7-13.6 7-79.1.2-62 1.1-79.5 4.5-89.3 2.4-6.7 10.3-19.4 19-30.5 15.2-19.3 23-42.4 23-68.2s-10.4-46.3-28.8-56.5c-3.4-1.9-6.9-4-7.7-4.5-.8-.6-3-7.3-5-14.9-3.8-14.6-15.8-51.8-19.4-59.9l-2.1-4.8-5.7.6c-10.7 1-14.7 1.7-28.5 5.1-21.9 5.4-34.5 10.5-49.5 20l-5.1 3.3-1.6-2.4c-.9-1.3-1.6-2.7-1.6-3.1 0-.3-.8-1.8-1.8-3.2-1.8-2.6-6.2-14-9.7-24.9-1.7-5.6-4-8.2-5.5-6.7-1.1 1.1.9 9.1 5.9 23.7 1.6 4.8 2.7 8.6 2.3 8.3-1.4-.8-18.6 24.6-17.5 25.8.7.6-7.7.1-26.7-1.6-6.9-.6-20.4-1.1-30-1.1-15-.1-18.6.2-25.5 2.1-24.4 6.7-48.3 26.9-58.4 49.4-4 9-8.2 22.5-8.8 28.3-.4 4.1-.1 5.5 1.7 7.7 1.3 1.7 3.1 2.8 4.6 2.8 1.8 0 2.5.7 3 2.7.3 1.6.7 3.3.9 3.9.4 1.3 10.6 6.4 12.6 6.4.7 0 2.2-.9 3.4-2 1.8-1.7 2.7-1.9 4.9-1 5.6 2.1 6.4 1.5 19.3-15 8.1-10.2 10.8-13 19.3-19.3 3-2.2 8.3-6.5 11.8-9.5l6.3-5.5 9.2 3.1c15.6 5.3 17.2 6 17.5 7.5.4 2.2-3.8 12.7-12.5 30.7-4.1 8.5-9.5 20.2-12 26-4.7 10.9-16.9 35.9-18.3 37.4-.5.4-4.3-1.1-8.7-3.6-9.8-5.4-34.8-17-44.5-20.4-4-1.5-11.5-4.6-16.7-7S672.9 647 672 647c-1.1 0-2.6-2.1-4.4-6.2-7.3-17.1-18.7-30.7-32.4-38.9-4.8-2.9-11.6-7.5-15.1-10.3-6.5-5.3-23-23.2-38.5-42.2-4.9-6-13.9-16-20-22.1L550.5 516l2.5-1.7c3-2.1 9.6-7.9 16.8-14.7 3.5-3.4 5.2-5.8 5.2-7.5 0-3 10.2-28.7 14.3-36.1 6.6-11.8 14.6-22 27.4-34.9 7.3-7.4 13.3-14.1 13.3-14.7 0-3.9-3.4-1.4-16.5 11.7-15.2 15.4-22.9 25.8-30.9 41.6-2.5 5-5.1 9.5-5.8 9.9s-1 .4-.6-.1c1.1-1.1-2.8-8.1-9.1-16.4-7.4-9.7-27-27.5-32.7-29.7-2.4-.9-4.4-1.9-4.4-2.3 0-.3 1.5-1.7 3.3-2.9 2.7-2 2.8-2.3.8-1.7-3.5 1-36.2 2.1-36.8 1.2-.2-.4-1.2-.3-2.3.3-1.9 1-36 1.3-42.2.3-2.1-.3-3.5-.9-3.2-1.4s-1.8-11.2-4.6-23.7c-2.9-12.5-7.1-32-9.5-43.4-4.3-20.3-6.4-26.3-9.7-26.6-7.6-.7-30.1-.3-31 .6-1.6 1.6.4 14.5 13.1 84.5l1.8 9.8-20.9-.3c-11.4-.2-20.8 0-20.8.5 0 .4-7.3.6-16.2.5l-16.3-.3-.1-56.3c0-46.8-.3-56.5-1.4-57.2-3.8-2.3-30.1-2.3-31.5.1-.3.4-.7 4.5-.8 8.9l-.2 8h-33.7l.6 21.2c.6 21.5 1 70.8.5 74.1-.2 1.6-1.6 1.7-16.1 1.5-8.7-.2-15.9-.3-16-.3s-.5-26.1-.8-58l-.5-58-14-.2c-9.9-.2-14.7.1-16.5 1m328.9 373.2c1.2 2.3 1.5 6.6 1.3 18-.1 8.2-.3 16.8-.4 19l-.3 4 7.2.3c6.1.2 8.9-.3 19.5-3.7 42.3-13.7 77.8-16.3 115.2-8.5 29.7 6.1 53.5 20.5 71.6 43.1 19.1 23.8 27.1 58.2 19.5 83.8-4.6 15.6-10.4 25.1-23.5 38.5-20.1 20.5-38.3 30.4-66.5 36.2-9.2 1.9-14.1 2.3-30 2.3-22.2-.1-28.5-1.3-33-6.7-2.5-2.9-2.7-3.8-2.3-10 .3-6.3.6-7 4.2-10.7 4.9-5 14.2-8.9 24.4-10.1 4.3-.5 11.8-1.4 16.8-2 25.4-2.9 41.2-10.4 56.6-26.9 7-7.5 15.5-21.1 14.4-23-.3-.5-3.4 1.8-6.8 5.1-7.1 6.8-19.7 13.5-31.8 16.7-16.2 4.4-30.3 5.5-67.5 5.6-40.7 0-46.5-.7-52.5-6.2l-3.8-3.3h-54.3c-29.9 0-63 .1-73.4.1-14.6.1-19.9-.2-22.5-1.3s-6.2-1.4-14.1-1c-12.8.5-18.5-1.3-22-7.2-1.2-2-2.5-3.6-3-3.6-.4 0-.6-.6-.3-1.4s.1-1.7-.5-2.1c-1.3-.8-1.4-6.5-.2-9.8 1.3-3.5 7.6-9.3 14.1-13.1 8.4-4.9 27.2-12.1 40.9-15.6 9.9-2.6 9.7-2.2 3.3-8.7-6.3-6.3-9.4-13-10.9-23.3-1.1-7.4.1-18 2.8-24.6l2.2-5.5-2.7-15.7c-2.8-16.9-3.1-21.7-1.6-25.6 2.1-5.5 12.8-2 24 7.9 8.7 7.6 13 9.8 16.7 8.4 4.9-1.8 18.3-2.2 25.5-.7 6.4 1.4 6.9 1.4 8.5-.4 1-1.1 5.1-4.4 9.3-7.4 4.1-3 10.2-7.5 13.4-10 7-5.3 10.3-5.6 12.5-.9"/></svg>