<svg version="1.1" xmlns="http://www.w3.org/2000/svg" style="display: block;" viewBox="0 0 2048 2048" width="1024" height="1024">
<defs>
	<linearGradient id="Gradient1" gradientUnits="userSpaceOnUse" x1="1187.72" y1="883.063" x2="1206.99" y2="897.479">
		<stop class="stop0" offset="0" stop-opacity="1" stop-color="rgb(55,40,42)"/>
		<stop class="stop1" offset="1" stop-opacity="1" stop-color="rgb(80,48,43)"/>
	</linearGradient>
	<linearGradient id="Gradient2" gradientUnits="userSpaceOnUse" x1="1417.54" y1="1207.33" x2="1393.99" y2="1190.63">
		<stop class="stop0" offset="0" stop-opacity="1" stop-color="rgb(101,53,29)"/>
		<stop class="stop1" offset="1" stop-opacity="1" stop-color="rgb(51,39,44)"/>
	</linearGradient>
	<linearGradient id="Gradient3" gradientUnits="userSpaceOnUse" x1="1211.05" y1="1551.71" x2="1271" y2="1625.5">
		<stop class="stop0" offset="0" stop-opacity="1" stop-color="rgb(213,106,29)"/>
		<stop class="stop1" offset="1" stop-opacity="1" stop-color="rgb(228,137,61)"/>
	</linearGradient>
</defs>
<path transform="translate(0,0)" fill="rgb(255,223,208)" d="M 0 0 L 2048 0 L 2048 1472.77 L 2048 1862.02 L 2048 2048 L 0 2048 L 0 1839.16 L 0 1685.78 L 0 1674.61 L 0 1651.72 L 0 1518.68 L 0 1443.96 L 0 1044.15 L 0 0 z"/>
<path transform="translate(0,0)" fill="rgb(118,145,119)" d="M 1949.14 1124.42 C 1981.39 1140.11 2004.35 1159.76 2016.34 1194.54 C 2032.71 1242.01 2025.39 1299.2 2003.52 1343.77 C 1984.93 1381.63 1951.49 1410.23 1937.68 1450.58 C 1965.99 1449.82 2021.57 1460.93 2048 1472.77 L 2048 1862.02 L 2048 2048 L 0 2048 L 0 1839.16 L 0 1685.78 L 0 1674.61 C 29.2152 1666.72 61.8152 1668.89 91.8198 1669.02 C 132.209 1669.19 172.627 1670.38 213.01 1670.02 C 346.423 1668.3 479.846 1667.63 613.269 1668.01 C 665.233 1668.01 717.527 1666.1 769.437 1667.44 C 761.034 1660.25 754.2 1648.57 751.597 1637.67 C 749.964 1630.84 751.223 1624.25 755.014 1618.37 C 773.988 1588.92 847.821 1569.21 881.476 1561.15 C 875.297 1554.41 867.947 1548.89 862.123 1541.75 C 847.788 1524.2 844.18 1498.87 846.235 1477.01 C 848.295 1463.55 852.434 1452.16 857.386 1439.57 C 852.724 1425.19 843.275 1374.86 847.67 1361.29 C 848.658 1358.23 850.465 1355.7 853.591 1354.54 C 869.082 1348.8 896.695 1376.7 907.653 1384.81 C 912.627 1388.49 917.823 1391.16 923.436 1393.72 C 948.792 1387.63 968.496 1387.2 993.932 1393.62 C 1003.9 1383.14 1015.91 1376.02 1027.2 1367.21 C 1034.01 1361.89 1040.32 1355.73 1047.57 1350.98 C 1050.61 1348.99 1054.48 1346.74 1058.17 1346.34 C 1060.85 1346.06 1063.16 1346.46 1065.17 1348.41 C 1077.32 1360.14 1068.24 1415.23 1067.72 1432.61 L 1067.7 1433.59 C 1074.04 1438.37 1086.21 1436.24 1094 1436.07 C 1110.2 1433.34 1125.02 1427.53 1140.61 1422.66 C 1152.48 1418.95 1164.81 1415.95 1176.94 1413.27 C 1270.26 1392.61 1374.66 1399.16 1454.55 1455.79 C 1461.49 1444.89 1467.26 1433.28 1473.86 1422.17 C 1484.64 1404.03 1496.06 1386.68 1505.02 1367.49 C 1514.95 1349.31 1524.72 1330.95 1533.31 1312.1 C 1540.78 1295.68 1547.27 1278.8 1554.91 1262.46 C 1568.22 1234.01 1583.87 1206.37 1593.33 1176.26 C 1656.1 1198.86 1721.94 1212.27 1787.54 1223.61 C 1822.58 1224.56 1855.6 1232.31 1891 1226.85 C 1910.16 1223.89 1928.74 1216.22 1940.31 1199.9 C 1956.26 1177.4 1953.6 1150.04 1949.14 1124.42 z"/>
<path transform="translate(0,0)" fill="rgb(255,223,208)" d="M 0 1839.16 C 22.1985 1839.21 44.3961 1839.47 66.5898 1839.93 C 79.3185 1840.15 92.4684 1839.8 105.146 1840.99 C 123.823 1840.64 142.395 1841.43 161.046 1842.39 C 168.662 1842.78 177.23 1844.19 184.764 1843.84 C 204.307 1841.1 224.036 1841.59 243.72 1841.62 L 312.237 1841.78 L 418.423 1842.1 C 439.552 1842.17 460.818 1841.79 481.92 1842.82 C 527.96 1871.59 611.789 1896.65 647.553 1930.35 C 656.116 1938.42 662.036 1947.8 665.315 1959.11 C 664.217 1962.65 663.118 1966.94 660.95 1970 C 657.222 1975.27 648.477 1981.05 647.173 1987.16 C 648.617 1988.12 649.374 1988.46 651.099 1989.01 C 697.413 1990.04 743.379 1988.93 789.672 1988.57 L 941.627 1988.48 C 962.634 1988.54 983.64 1988.79 1004.64 1989.23 C 1023.09 1989.71 1044.48 1992.54 1062.53 1988.95 C 1101.17 1989.37 1139.99 1988.1 1178.66 1988.08 L 1507.95 1988.06 C 1561.11 1988.06 1614.71 1986.62 1667.82 1988.3 C 1681.65 1990.33 1741.6 1990.98 1755.31 1989.18 C 1759.51 1989.14 1763.69 1988.66 1767.87 1988.26 C 1811.66 1989.26 1868.05 1993.73 1909.8 1982.03 C 1972.56 1964.43 2016.74 1917.25 2048 1862.02 L 2048 2048 L 0 2048 L 0 1839.16 z"/>
<path transform="translate(0,0)" fill="rgb(249,182,160)" d="M 184.764 1843.84 C 204.307 1841.1 224.036 1841.59 243.72 1841.62 L 312.237 1841.78 L 418.423 1842.1 C 439.552 1842.17 460.818 1841.79 481.92 1842.82 C 527.96 1871.59 611.789 1896.65 647.553 1930.35 C 656.116 1938.42 662.036 1947.8 665.315 1959.11 C 664.217 1962.65 663.118 1966.94 660.95 1970 C 657.222 1975.27 648.477 1981.05 647.173 1987.16 C 648.617 1988.12 649.374 1988.46 651.099 1989.01 L 312.932 1988.84 C 278.103 1988.89 243.274 1989.14 208.448 1989.58 C 189.922 1989.66 169.898 1991 151.599 1988.43 C 152.888 1987.57 154.172 1986.71 155.375 1985.73 C 158.278 1983.35 160.925 1980.69 162.42 1977.21 C 167.657 1965.02 170.072 1950.52 173.483 1937.7 C 181.49 1907.61 191.984 1876.07 195.658 1845.21 L 184.764 1843.84 z"/>
<path transform="translate(0,0)" fill="rgb(132,58,23)" d="M 105.146 1840.99 C 123.823 1840.64 142.395 1841.43 161.046 1842.39 C 168.662 1842.78 177.23 1844.19 184.764 1843.84 L 195.658 1845.21 C 191.984 1876.07 181.49 1907.61 173.483 1937.7 C 170.072 1950.52 167.657 1965.02 162.42 1977.21 C 160.925 1980.69 158.278 1983.35 155.375 1985.73 C 154.172 1986.71 152.888 1987.57 151.599 1988.43 C 141.472 1990.07 121.351 1992.69 112.984 1985.49 C 108.382 1981.52 106.264 1973.79 105.263 1968.06 C 102.055 1949.72 103.339 1930.24 103.669 1911.71 L 105.146 1840.99 z"/>
<path transform="translate(0,0)" fill="rgb(254,207,160)" d="M 993.932 1393.62 C 1003.9 1383.14 1015.91 1376.02 1027.2 1367.21 C 1034.01 1361.89 1040.32 1355.73 1047.57 1350.98 C 1050.61 1348.99 1054.48 1346.74 1058.17 1346.34 C 1060.85 1346.06 1063.16 1346.46 1065.17 1348.41 C 1077.32 1360.14 1068.24 1415.23 1067.72 1432.61 L 1067.7 1433.59 C 1074.04 1438.37 1086.21 1436.24 1094 1436.07 C 1110.2 1433.34 1125.02 1427.53 1140.61 1422.66 C 1152.48 1418.95 1164.81 1415.95 1176.94 1413.27 C 1270.26 1392.61 1374.66 1399.16 1454.55 1455.79 L 1460.48 1459.73 C 1507.49 1503.22 1538.07 1552.03 1540.89 1617.97 C 1541.68 1634.56 1539.5 1651.15 1534.46 1666.97 C 1533.22 1671.43 1531.97 1675.81 1530.27 1680.12 C 1508.49 1734.1 1458.77 1776.78 1406.11 1799.48 C 1366.16 1816.69 1315.62 1822.34 1272.54 1819.25 C 1262.12 1818.5 1250.75 1817.71 1240.91 1813.87 C 1234.39 1811.32 1228.74 1807.4 1225.96 1800.76 C 1222.75 1793.05 1223.03 1780.71 1226.43 1773.06 C 1232.44 1759.54 1244.05 1754.69 1257.04 1749.96 C 1276.12 1743.01 1296.02 1742.68 1315.98 1740.51 C 1362.18 1735.47 1404.08 1717.43 1434.18 1681.13 C 1425.38 1680.73 1401.85 1683.12 1395.13 1679.54 C 1342.28 1695.02 1288.44 1696.2 1233.85 1695.93 C 1204.2 1695.79 1175.67 1696.02 1146.69 1688.49 C 1141.24 1684.87 1137.63 1679.48 1131.9 1675.88 C 1082.12 1677 1032.35 1674.58 982.529 1675.16 L 888.941 1676.49 C 870.16 1676.6 851.516 1677.58 832.894 1674.58 C 829.327 1673.17 825.683 1671.93 822.077 1670.62 L 817.08 1671.12 C 801.407 1673.52 784.345 1672.98 769.437 1667.44 C 761.034 1660.25 754.2 1648.57 751.597 1637.67 C 749.964 1630.84 751.223 1624.25 755.014 1618.37 C 773.988 1588.92 847.821 1569.21 881.476 1561.15 C 875.297 1554.41 867.947 1548.89 862.123 1541.75 C 847.788 1524.2 844.18 1498.87 846.235 1477.01 C 848.295 1463.55 852.434 1452.16 857.386 1439.57 C 852.724 1425.19 843.275 1374.86 847.67 1361.29 C 848.658 1358.23 850.465 1355.7 853.591 1354.54 C 869.082 1348.8 896.695 1376.7 907.653 1384.81 C 912.627 1388.49 917.823 1391.16 923.436 1393.72 C 948.792 1387.63 968.496 1387.2 993.932 1393.62 z"/>
<path transform="translate(0,0)" fill="url(#Gradient3)" d="M 1252.11 1627.82 C 1238.34 1613.91 1230.68 1598.68 1230.67 1578.82 C 1230.66 1552.72 1241.87 1529.17 1260.28 1510.94 C 1276.95 1494.44 1304.06 1479.51 1328.09 1479.53 C 1329.7 1479.53 1331.74 1479.5 1332.84 1480.8 C 1333.9 1482.06 1334.11 1483.07 1334.49 1484.63 C 1333.76 1486.96 1333.23 1487.98 1330.88 1489.03 C 1325.51 1491.41 1319.03 1491.14 1313.34 1493.27 C 1285.86 1503.54 1261.23 1520.9 1248.44 1548.05 C 1240.31 1565.32 1238.48 1583.64 1245.18 1601.72 C 1247.16 1607.06 1249.87 1612.6 1253.18 1617.24 C 1256.67 1622.12 1266.11 1626.73 1265.59 1633.05 C 1263.61 1634.61 1261.72 1634.67 1259.28 1634.72 C 1247.82 1634.99 1236.25 1632.82 1224.72 1632.81 C 1202.54 1632.8 1146.19 1637.23 1142.02 1666.4 C 1140.81 1674.82 1147.23 1681.07 1146.69 1688.49 C 1141.24 1684.87 1137.63 1679.48 1131.9 1675.88 C 1131.94 1663.99 1132.96 1654.72 1141.9 1645.83 C 1163.62 1624.23 1202.48 1625.93 1230.65 1626.6 C 1237.8 1626.77 1244.99 1627.05 1252.11 1627.82 z"/>
<path transform="translate(0,0)" fill="rgb(222,121,56)" d="M 817.08 1671.12 C 812.89 1664.17 811.082 1657.66 813.25 1649.58 C 816.636 1636.96 829.173 1627.65 840.151 1621.66 C 862.226 1609.61 889.453 1605.12 913.991 1611.03 C 887.904 1616.08 843.207 1620.66 827.157 1645.24 C 822.134 1652.94 821.002 1661.63 822.077 1670.62 L 817.08 1671.12 z"/>
<path transform="translate(0,0)" fill="rgb(28,79,79)" d="M 1423.21 1666.8 C 1429.48 1666.98 1437.71 1666.37 1443.68 1668.1 C 1440.6 1672.5 1437.62 1677.01 1434.18 1681.13 C 1425.38 1680.73 1401.85 1683.12 1395.13 1679.54 C 1404.69 1675.67 1413.93 1671.27 1423.21 1666.8 z"/>
<path transform="translate(0,0)" fill="rgb(118,145,119)" d="M 1423.21 1666.8 C 1438.34 1655.6 1450.7 1645.25 1460.98 1629.23 C 1458.36 1642.39 1452.2 1657.57 1443.68 1668.1 C 1437.71 1666.37 1429.48 1666.98 1423.21 1666.8 z"/>
<path transform="translate(0,0)" fill="rgb(249,182,160)" d="M 1067.7 1433.59 C 1074.04 1438.37 1086.21 1436.24 1094 1436.07 C 1088.78 1437.56 1084.07 1441.49 1079 1443.59 C 1075.68 1444.96 1073.98 1444.65 1070.73 1443.31 C 1068.17 1440.56 1068.18 1437.15 1067.7 1433.59 z"/>
<path transform="translate(0,0)" fill="rgb(222,121,56)" d="M 1063.63 1443.33 C 1073.33 1449.03 1080.3 1468.88 1083.3 1479.14 C 1089.47 1500.18 1086.09 1521.74 1075.66 1540.79 C 1062.67 1564.51 1045.29 1578.53 1019.36 1585.85 C 991.701 1593.66 946.654 1601.78 920.47 1587.14 C 917.064 1584.35 913.606 1581.88 912.395 1577.46 L 913.679 1576.24 C 921.292 1576.49 928.734 1581.15 936.335 1582.5 C 966.395 1587.82 1015.56 1583.37 1041.24 1565.31 C 1064.73 1548.78 1081.95 1515.61 1075.41 1486.74 C 1072.67 1474.64 1061.44 1455.33 1063.44 1444.27 C 1063.5 1443.95 1063.57 1443.64 1063.63 1443.33 z"/>
<path transform="translate(0,0)" fill="rgb(193,73,37)" d="M 953.583 1554.64 C 951.817 1555.38 950.037 1556.08 948.243 1556.75 C 941.247 1559.33 923.623 1562.41 916.898 1558.01 C 914.393 1556.37 914.32 1555.59 913.653 1552.86 L 914.72 1551.26 C 919.51 1550.12 925.233 1552.07 930.142 1552.41 C 936.227 1552.84 942.387 1552.63 947.1 1548.24 C 949.786 1545.74 951.742 1542.85 951.998 1539.14 C 950.05 1532.3 939.848 1530.78 934.747 1526.36 C 933.848 1524.31 933.094 1523.34 934.11 1521.1 C 935.54 1517.95 939.086 1516.09 942.176 1515 C 948.132 1512.9 958.849 1511.5 964.558 1514.85 C 967.17 1516.38 967.832 1518.23 968.691 1520.91 C 965.747 1527.6 962.027 1533.23 957.757 1539.12 C 957.559 1540.29 957.209 1541.8 957.266 1543.01 C 957.387 1545.57 958.398 1547.88 960.325 1549.61 C 967.869 1556.4 984.36 1550.1 993.409 1549.16 C 996.01 1548.89 997.172 1549.15 999.135 1550.8 L 999.058 1553.45 C 997.736 1555.99 996.462 1557.28 993.766 1558.24 C 980.657 1562.91 965.794 1560.17 953.583 1554.64 z"/>
<path transform="translate(0,0)" fill="rgb(180,99,55)" d="M 957.757 1539.12 C 957.172 1536.15 956.863 1533.58 957.884 1530.61 C 959.693 1525.34 963.932 1523.13 968.691 1520.91 C 965.747 1527.6 962.027 1533.23 957.757 1539.12 z"/>
<path transform="translate(0,0)" fill="rgb(180,99,55)" d="M 993.191 1487.22 C 998.27 1487.07 1007.2 1486.89 1011.16 1490.28 L 1010.93 1492.15 C 1007.75 1495.18 1003.33 1496.13 999.247 1497.48 C 996.99 1498.44 994.858 1498.99 992.484 1499.56 C 989.896 1498.76 986.316 1497.57 984.551 1495.35 C 983.05 1493.46 983.492 1492.53 983.843 1490.35 C 986.338 1487.9 989.887 1487.8 993.191 1487.22 z"/>
<path transform="translate(0,0)" fill="rgb(180,99,55)" d="M 892.597 1490.42 C 901.236 1490.31 912.823 1489 921.041 1491.5 C 923.146 1492.14 922.763 1492.21 923.754 1493.91 L 922.694 1497.33 C 920.205 1497.82 917.705 1498.27 915.197 1498.66 C 909.168 1499.57 900.072 1500.31 894.969 1496.2 C 892.64 1494.32 892.982 1493.26 892.597 1490.42 z"/>
<path transform="translate(0,0)" fill="rgb(28,79,79)" d="M 1593.33 1176.26 C 1656.1 1198.86 1721.94 1212.27 1787.54 1223.61 C 1761.21 1251.86 1744.01 1276.97 1745.49 1317.25 C 1747.88 1382.55 1744.14 1448.19 1743.2 1513.5 C 1742.1 1590.29 1743.36 1667.15 1743.21 1743.94 L 1743.08 1810.61 C 1743.03 1816.95 1743.94 1823.39 1743.57 1829.68 C 1743.4 1832.56 1742.79 1834.67 1741.4 1837.18 C 1739.09 1838.85 1738.52 1838.99 1735.68 1839.33 C 1733.75 1838.16 1733.7 1838.14 1733.23 1836.02 C 1730.95 1825.66 1732.45 1795.87 1732.49 1783.96 C 1732.66 1749.7 1732.47 1715.44 1731.91 1681.19 C 1687.29 1680.79 1642.66 1680.75 1598.03 1681.05 C 1585.47 1681.08 1538.94 1683.12 1530.27 1680.12 C 1531.97 1675.81 1533.22 1671.43 1534.46 1666.97 C 1539.5 1651.15 1541.68 1634.56 1540.89 1617.97 C 1538.07 1552.03 1507.49 1503.22 1460.48 1459.73 L 1454.55 1455.79 C 1461.49 1444.89 1467.26 1433.28 1473.86 1422.17 C 1484.64 1404.03 1496.06 1386.68 1505.02 1367.49 C 1514.95 1349.31 1524.72 1330.95 1533.31 1312.1 C 1540.78 1295.68 1547.27 1278.8 1554.91 1262.46 C 1568.22 1234.01 1583.87 1206.37 1593.33 1176.26 z"/>
<path transform="translate(0,0)" fill="rgb(118,145,119)" d="M 1460.48 1459.73 C 1529.16 1456.57 1623.87 1454.07 1686.57 1484.19 C 1694.7 1488.1 1703.28 1492.47 1709.91 1498.7 C 1730.67 1518.21 1732.93 1566.41 1733.23 1593 C 1733.4 1616.95 1733.29 1640.91 1732.88 1664.87 C 1710.53 1667.57 1686.85 1666.22 1664.27 1666.45 C 1621 1666.95 1577.73 1667.13 1534.46 1666.97 C 1539.5 1651.15 1541.68 1634.56 1540.89 1617.97 C 1538.07 1552.03 1507.49 1503.22 1460.48 1459.73 z"/>
<path transform="translate(0,0)" fill="rgb(107,95,134)" d="M 955.638 1843.67 C 971.522 1844.64 987.725 1844.19 1003.64 1844.13 C 1039.71 1844.01 1075.73 1842.94 1111.79 1842.95 L 1464.34 1842.96 L 1569.11 1842.99 C 1587.3 1843 1606.7 1841.67 1624.72 1843.77 C 1633.75 1862.14 1642.15 1881.52 1649.55 1900.62 C 1654.55 1913.54 1675.72 1975.38 1671.25 1984.94 C 1670.56 1986.41 1669.07 1987.36 1667.82 1988.3 C 1614.71 1986.62 1561.11 1988.06 1507.95 1988.06 L 1178.66 1988.08 C 1139.99 1988.1 1101.17 1989.37 1062.53 1988.95 C 1053.75 1987.01 1043.18 1987.85 1034.14 1987.44 C 1011.54 1986.4 983.973 1980.37 966.867 1964.56 C 948.561 1947.63 939.295 1925.01 938.386 1900.32 C 937.671 1880.9 942.035 1858.35 955.638 1843.67 z"/>
<path transform="translate(0,0)" fill="rgb(222,121,56)" d="M 1937.68 1450.58 C 1965.99 1449.82 2021.57 1460.93 2048 1472.77 L 2048 1862.02 C 2016.74 1917.25 1972.56 1964.43 1909.8 1982.03 C 1868.05 1993.73 1811.66 1989.26 1767.87 1988.26 C 1769.67 1986.74 1771.49 1985.21 1773.15 1983.54 C 1777 1979.66 1779.23 1974.72 1780.22 1969.39 C 1783.54 1951.49 1781.69 1931.08 1781.23 1912.88 C 1780.55 1890.24 1780.04 1867.6 1779.71 1844.96 C 1815.35 1845.18 1852.82 1842.2 1882.94 1821.38 C 1905.44 1805.82 1919.82 1783.12 1926.58 1756.77 C 1934.51 1725.86 1930.28 1694.16 1929.96 1662.71 C 1929.46 1613.95 1929.32 1565.39 1931.76 1516.67 C 1932.87 1494.66 1933.66 1472.29 1937.68 1450.58 z"/>
<path transform="translate(0,0)" fill="rgb(199,136,140)" d="M 481.92 1842.82 C 497.074 1840.89 513.546 1842.74 528.89 1842.42 C 581.116 1841.84 633.345 1841.68 685.574 1841.94 L 866.255 1843.2 C 895.708 1843.41 926.34 1841.29 955.638 1843.67 C 942.035 1858.35 937.671 1880.9 938.386 1900.32 C 939.295 1925.01 948.561 1947.63 966.867 1964.56 C 983.973 1980.37 1011.54 1986.4 1034.14 1987.44 C 1043.18 1987.85 1053.75 1987.01 1062.53 1988.95 C 1044.48 1992.54 1023.09 1989.71 1004.64 1989.23 C 983.64 1988.79 962.634 1988.54 941.627 1988.48 L 789.672 1988.57 C 743.379 1988.93 697.413 1990.04 651.099 1989.01 C 649.374 1988.46 648.617 1988.12 647.173 1987.16 C 648.477 1981.05 657.222 1975.27 660.95 1970 C 663.118 1966.94 664.217 1962.65 665.315 1959.11 C 662.036 1947.8 656.116 1938.42 647.553 1930.35 C 611.789 1896.65 527.96 1871.59 481.92 1842.82 z"/>
<path transform="translate(0,0)" fill="rgb(132,58,23)" d="M 1682.93 1843.88 C 1703.82 1841.84 1725.71 1842.87 1746.67 1843.43 C 1757.54 1843.72 1768.98 1843.39 1779.71 1844.96 C 1780.04 1867.6 1780.55 1890.24 1781.23 1912.88 C 1781.69 1931.08 1783.54 1951.49 1780.22 1969.39 C 1779.23 1974.72 1777 1979.66 1773.15 1983.54 C 1771.49 1985.21 1769.67 1986.74 1767.87 1988.26 C 1763.69 1988.66 1759.51 1989.14 1755.31 1989.18 C 1741.6 1990.98 1681.65 1990.33 1667.82 1988.3 C 1669.07 1987.36 1670.56 1986.41 1671.25 1984.94 C 1675.72 1975.38 1654.55 1913.54 1649.55 1900.62 C 1642.15 1881.52 1633.75 1862.14 1624.72 1843.77 C 1644.12 1843.68 1663.53 1843.71 1682.93 1843.88 z"/>
<path transform="translate(0,0)" fill="rgb(222,121,56)" d="M 1624.72 1843.77 C 1644.12 1843.68 1663.53 1843.71 1682.93 1843.88 C 1695.31 1872.07 1703.37 1902.92 1711.14 1932.69 C 1715.03 1947.62 1717.62 1965.87 1724.64 1979.49 C 1726.47 1983.05 1730.34 1985.69 1733.97 1987.19 C 1740.5 1989.9 1748.35 1989.2 1755.31 1989.18 C 1741.6 1990.98 1681.65 1990.33 1667.82 1988.3 C 1669.07 1987.36 1670.56 1986.41 1671.25 1984.94 C 1675.72 1975.38 1654.55 1913.54 1649.55 1900.62 C 1642.15 1881.52 1633.75 1862.14 1624.72 1843.77 z"/>
<path transform="translate(0,0)" fill="rgb(28,79,79)" d="M 769.437 1667.44 C 784.345 1672.98 801.407 1673.52 817.08 1671.12 L 822.077 1670.62 C 825.683 1671.93 829.327 1673.17 832.894 1674.58 C 826.844 1677.78 791.996 1675.97 782.504 1676.17 C 742.616 1677 702.686 1678.65 662.794 1678.99 L 383.952 1679.57 L 0 1685.78 L 0 1674.61 C 29.2152 1666.72 61.8152 1668.89 91.8198 1669.02 C 132.209 1669.19 172.627 1670.38 213.01 1670.02 C 346.423 1668.3 479.846 1667.63 613.269 1668.01 C 665.233 1668.01 717.527 1666.1 769.437 1667.44 z"/>
<path transform="translate(0,0)" fill="rgb(107,95,134)" d="M 603.65 609.567 C 603.921 609.491 604.193 609.418 604.463 609.338 C 611.23 607.324 618.12 606.805 625.143 606.397 C 635.739 605.782 660.841 604.075 669.117 611.406 C 672.916 620.811 671.251 632.855 670.988 642.86 C 692.111 644.574 713.51 642.715 734.525 644.913 C 736.585 667.124 734.918 690.431 734.939 712.787 L 735.103 837.523 C 745.092 836.023 756.009 836.598 766.105 836.46 C 783.875 836.071 801.651 836.027 819.424 836.327 C 845.313 839 874.646 837.618 900.727 836.733 C 916.195 837.674 931.285 837.608 946.778 837.012 C 962.911 837.21 979.046 837.093 995.174 836.661 C 1015.72 836.838 1053.06 837.775 1071.79 831.769 C 1068.3 834.915 1063.55 838.306 1061 842.217 C 1097.33 858.617 1137.96 903.587 1155.41 938.855 C 1151.77 951.703 1147.07 964.299 1142.63 976.889 C 1141.1 978.995 1139.55 981.087 1138.11 983.251 C 1127.8 992.004 1100.78 1013.88 1099.72 1027.35 C 1099.6 1028.92 1100.54 1029.71 1101.35 1030.97 C 1114.56 1044.07 1127.88 1057.03 1140.09 1071.08 C 1169.26 1104.66 1196.21 1141.17 1228.18 1172.15 C 1253.3 1196.5 1281.66 1205.15 1304.86 1231.43 C 1317.88 1246.19 1335.36 1273.68 1340.36 1292.68 C 1354.73 1297.38 1368.28 1304.53 1382.26 1310.25 C 1423.95 1327.29 1466.62 1343.52 1505.02 1367.49 C 1496.06 1386.68 1484.64 1404.03 1473.86 1422.17 C 1467.26 1433.28 1461.49 1444.89 1454.55 1455.79 C 1374.66 1399.16 1270.26 1392.61 1176.94 1413.27 C 1164.81 1415.95 1152.48 1418.95 1140.61 1422.66 C 1125.02 1427.53 1110.2 1433.34 1094 1436.07 C 1086.21 1436.24 1074.04 1438.37 1067.7 1433.59 L 1067.72 1432.61 C 1068.24 1415.23 1077.32 1360.14 1065.17 1348.41 C 1063.16 1346.46 1060.85 1346.06 1058.17 1346.34 C 1054.48 1346.74 1050.61 1348.99 1047.57 1350.98 C 1040.32 1355.73 1034.01 1361.89 1027.2 1367.21 C 1015.91 1376.02 1003.9 1383.14 993.932 1393.62 C 968.496 1387.2 948.792 1387.63 923.436 1393.72 C 917.823 1391.16 912.627 1388.49 907.653 1384.81 C 896.695 1376.7 869.082 1348.8 853.591 1354.54 C 850.465 1355.7 848.658 1358.23 847.67 1361.29 C 843.275 1374.86 852.724 1425.19 857.386 1439.57 C 852.434 1452.16 848.295 1463.55 846.235 1477.01 C 844.18 1498.87 847.788 1524.2 862.123 1541.75 C 867.947 1548.89 875.297 1554.41 881.476 1561.15 C 847.821 1569.21 773.988 1588.92 755.014 1618.37 C 751.223 1624.25 749.964 1630.84 751.597 1637.67 C 754.2 1648.57 761.034 1660.25 769.437 1667.44 C 717.527 1666.1 665.233 1668.01 613.269 1668.01 C 479.846 1667.63 346.423 1668.3 213.01 1670.02 C 172.627 1670.38 132.209 1669.19 91.8198 1669.02 C 61.8152 1668.89 29.2152 1666.72 0 1674.61 L 0 1651.72 L 0 1518.68 L 0 1443.96 L 0 1044.15 C 34.8982 1039.24 68.394 1042.05 103.146 1046.36 C 102.737 997.542 102.44 939.645 130.14 897.414 C 153.411 861.937 187.347 849.789 227.269 841.295 C 242.206 838.479 258.814 839.092 274.023 839.009 L 344.31 838.037 C 364.466 838.157 384.646 837.188 404.787 837.502 C 412.731 838.885 466.78 839.511 472.787 837.223 C 482.303 840.394 526.347 837.681 538.916 837.069 C 560.646 836.788 582.395 836.983 604.127 836.989 C 606.364 817.763 604.282 797.7 604.128 778.372 L 603.024 645.082 C 602.756 633.303 602.699 621.313 603.65 609.567 z"/>
<path transform="translate(0,0)" fill="rgb(118,145,119)" d="M 603.65 609.567 C 603.921 609.491 604.193 609.418 604.463 609.338 C 611.23 607.324 618.12 606.805 625.143 606.397 C 635.739 605.782 660.841 604.075 669.117 611.406 C 672.916 620.811 671.251 632.855 670.988 642.86 C 692.111 644.574 713.51 642.715 734.525 644.913 C 736.585 667.124 734.918 690.431 734.939 712.787 L 735.103 837.523 C 745.092 836.023 756.009 836.598 766.105 836.46 C 783.875 836.071 801.651 836.027 819.424 836.327 C 845.313 839 874.646 837.618 900.727 836.733 C 916.195 837.674 931.285 837.608 946.778 837.012 C 962.911 837.21 979.046 837.093 995.174 836.661 C 1015.72 836.838 1053.06 837.775 1071.79 831.769 C 1068.3 834.915 1063.55 838.306 1061 842.217 C 1060.78 842.454 1060.56 842.694 1060.34 842.929 C 1052.81 850.892 1043.12 857.161 1035.01 864.665 C 1001.16 895.97 939.144 953.849 922.094 995.984 C 916.348 1010.19 914.685 1024.36 913.933 1039.54 C 887.19 1037.9 860.198 1038.4 833.405 1037.6 C 785.34 1036.17 736.749 1032.82 688.959 1040.1 C 623.051 1050.15 544.255 1087.76 487.656 1121.84 C 461.294 1137.71 436.037 1155.34 410.863 1173 C 396.609 1183.01 382.04 1192.8 368.235 1203.4 C 336.171 1228.03 305.935 1255.13 274.524 1280.6 C 259.393 1297.25 241.117 1310.27 224.757 1325.59 C 212.28 1337.27 202.366 1350.92 190.435 1362.98 C 182.432 1371.06 172.295 1378.16 166.288 1387.96 C 159.732 1394.24 152.757 1400.37 146.76 1407.18 C 146.479 1407.34 146.194 1407.48 145.916 1407.64 C 134.753 1414.02 127.101 1426.05 115.532 1431.71 C 106.03 1436.36 90.5412 1435.1 80.0198 1435.96 C 64.2738 1437.25 48.5648 1439.01 32.8313 1440.44 C 22.0986 1441.42 10.5026 1441.58 0 1443.96 L 0 1044.15 C 34.8982 1039.24 68.394 1042.05 103.146 1046.36 C 102.737 997.542 102.44 939.645 130.14 897.414 C 153.411 861.937 187.347 849.789 227.269 841.295 C 242.206 838.479 258.814 839.092 274.023 839.009 L 344.31 838.037 C 364.466 838.157 384.646 837.188 404.787 837.502 C 412.731 838.885 466.78 839.511 472.787 837.223 C 482.303 840.394 526.347 837.681 538.916 837.069 C 560.646 836.788 582.395 836.983 604.127 836.989 C 606.364 817.763 604.282 797.7 604.128 778.372 L 603.024 645.082 C 602.756 633.303 602.699 621.313 603.65 609.567 z"/>
<path transform="translate(0,0)" fill="rgb(222,121,56)" d="M 0 1044.15 C 34.8982 1039.24 68.394 1042.05 103.146 1046.36 C 116.828 1050.36 130.85 1053.75 144.186 1058.8 C 183.782 1073.78 218.356 1101.67 238.845 1139.03 C 262.313 1181.82 271.027 1232.36 274.524 1280.6 C 259.393 1297.25 241.117 1310.27 224.757 1325.59 C 212.28 1337.27 202.366 1350.92 190.435 1362.98 C 182.432 1371.06 172.295 1378.16 166.288 1387.96 C 159.732 1394.24 152.757 1400.37 146.76 1407.18 C 146.479 1407.34 146.194 1407.48 145.916 1407.64 C 134.753 1414.02 127.101 1426.05 115.532 1431.71 C 106.03 1436.36 90.5412 1435.1 80.0198 1435.96 C 64.2738 1437.25 48.5648 1439.01 32.8313 1440.44 C 22.0986 1441.42 10.5026 1441.58 0 1443.96 L 0 1044.15 z"/>
<path transform="translate(0,0)" fill="rgb(254,207,160)" d="M 670.988 642.86 C 692.111 644.574 713.51 642.715 734.525 644.913 C 736.585 667.124 734.918 690.431 734.939 712.787 L 735.103 837.523 C 719.424 840.615 687.918 837.518 670.745 836.899 C 669.041 810.553 669.984 783.854 669.972 757.465 C 669.954 719.18 669.503 681.135 670.988 642.86 z"/>
<path transform="translate(0,0)" fill="rgb(118,145,119)" d="M 166.288 1387.96 C 175.405 1381.59 182.684 1372.9 193.055 1368.4 C 220.329 1384.72 254.393 1425.14 268.63 1453.61 C 271.888 1460.12 272.5 1467.77 275.627 1474.28 C 282.909 1482.21 292.683 1506.58 295.104 1517.27 C 315.915 1496.25 383.936 1477.49 412.766 1477.45 C 493.927 1477.31 575.171 1480.15 656.338 1480.07 C 688.633 1480.03 720.847 1478.28 753.125 1477.52 C 784.168 1476.78 815.188 1477.04 846.235 1477.01 C 844.18 1498.87 847.788 1524.2 862.123 1541.75 C 867.947 1548.89 875.297 1554.41 881.476 1561.15 C 847.821 1569.21 773.988 1588.92 755.014 1618.37 C 751.223 1624.25 749.964 1630.84 751.597 1637.67 C 754.2 1648.57 761.034 1660.25 769.437 1667.44 C 717.527 1666.1 665.233 1668.01 613.269 1668.01 C 479.846 1667.63 346.423 1668.3 213.01 1670.02 C 172.627 1670.38 132.209 1669.19 91.8198 1669.02 C 61.8152 1668.89 29.2152 1666.72 0 1674.61 L 0 1651.72 L 0 1518.68 L 0 1443.96 C 10.5026 1441.58 22.0986 1441.42 32.8313 1440.44 C 48.5648 1439.01 64.2738 1437.25 80.0198 1435.96 C 90.5412 1435.1 106.03 1436.36 115.532 1431.71 C 127.101 1426.05 134.753 1414.02 145.916 1407.64 C 146.194 1407.48 146.479 1407.34 146.76 1407.18 C 152.757 1400.37 159.732 1394.24 166.288 1387.96 z"/>
<path transform="translate(0,0)" fill="rgb(132,58,23)" d="M 166.288 1387.96 C 175.405 1381.59 182.684 1372.9 193.055 1368.4 C 220.329 1384.72 254.393 1425.14 268.63 1453.61 C 271.888 1460.12 272.5 1467.77 275.627 1474.28 C 267.238 1481.18 256.773 1486.19 247.23 1491.32 C 219.773 1506.06 193.056 1520.28 173.897 1545.75 C 157.261 1567.87 149.893 1620.64 124.295 1631.97 C 92.8969 1645.87 58.0332 1633.71 29.414 1639.62 C 18.9018 1641.79 9.40428 1646.72 0 1651.72 L 0 1518.68 L 0 1443.96 C 10.5026 1441.58 22.0986 1441.42 32.8313 1440.44 C 48.5648 1439.01 64.2738 1437.25 80.0198 1435.96 C 90.5412 1435.1 106.03 1436.36 115.532 1431.71 C 127.101 1426.05 134.753 1414.02 145.916 1407.64 C 146.194 1407.48 146.479 1407.34 146.76 1407.18 C 152.757 1400.37 159.732 1394.24 166.288 1387.96 z"/>
<path transform="translate(0,0)" fill="rgb(118,145,119)" d="M 0 1443.96 C 10.5026 1441.58 22.0986 1441.42 32.8313 1440.44 C 48.5648 1439.01 64.2738 1437.25 80.0198 1435.96 C 90.5412 1435.1 106.03 1436.36 115.532 1431.71 C 127.101 1426.05 134.753 1414.02 145.916 1407.64 C 146.194 1407.48 146.479 1407.34 146.76 1407.18 C 111.753 1447.4 46.8925 1493.43 0 1518.68 L 0 1443.96 z"/>
<path transform="translate(0,0)" fill="rgb(132,58,23)" d="M 1061 842.217 C 1097.33 858.617 1137.96 903.587 1155.41 938.855 C 1151.77 951.703 1147.07 964.299 1142.63 976.889 C 1141.1 978.995 1139.55 981.087 1138.11 983.251 C 1127.8 992.004 1100.78 1013.88 1099.72 1027.35 C 1099.6 1028.92 1100.54 1029.71 1101.35 1030.97 C 1114.56 1044.07 1127.88 1057.03 1140.09 1071.08 C 1169.26 1104.66 1196.21 1141.17 1228.18 1172.15 C 1253.3 1196.5 1281.66 1205.15 1304.86 1231.43 C 1317.88 1246.19 1335.36 1273.68 1340.36 1292.68 C 1342.46 1299.14 1345.32 1307.4 1344.96 1314.22 C 1344.56 1321.8 1341.49 1325.17 1336.08 1330.14 L 1337.16 1334.29 C 1340.98 1349.13 1343.96 1362.23 1335.69 1376.29 C 1328.37 1381.41 1316.72 1384.25 1307.84 1385.32 C 1298.12 1386.48 1293.93 1384.75 1286.46 1378.85 C 1281.03 1381.17 1275.62 1382.88 1269.94 1384.5 L 1268.09 1383.79 C 1240.36 1373.34 1188.09 1283.99 1161.43 1258.88 C 1125.11 1224.67 1079.45 1206.64 1037.61 1180.67 C 1009.84 1163.43 985.353 1140.86 961.918 1118.21 C 940.447 1097.45 914.462 1071.31 913.933 1039.54 C 914.685 1024.36 916.348 1010.19 922.094 995.984 C 939.144 953.849 1001.16 895.97 1035.01 864.665 C 1043.12 857.161 1052.81 850.892 1060.34 842.929 C 1060.56 842.694 1060.78 842.454 1061 842.217 z"/>
<path transform="translate(0,0)" fill="rgb(47,34,44)" d="M 1266.32 1281.88 C 1279.28 1285.65 1288.53 1304.91 1295.03 1315.89 C 1302.83 1329.06 1324.56 1364.52 1320.96 1378.51 C 1319.59 1378.32 1318.84 1378 1317.61 1377.42 C 1314 1371.18 1311.69 1364.42 1308.66 1357.9 C 1304.67 1349.32 1300.12 1340.95 1295.55 1332.67 C 1288.53 1319.96 1268.22 1293.17 1266.32 1281.88 z"/>
<path transform="translate(0,0)" fill="rgb(47,34,44)" d="M 1083.07 1023.66 C 1071.67 1017.72 1045.05 1005.55 1036.55 998.333 C 1037.49 996.033 1038 995.859 1040.35 994.952 C 1049.69 991.359 1078.47 1010.07 1087.61 1015.28 C 1090.39 1017.92 1094.16 1020.74 1094.18 1024.93 C 1094.19 1026.49 1093.56 1026.7 1092.6 1027.78 C 1089.44 1028.14 1086.35 1026.23 1083.85 1024.38 C 1083.57 1024.17 1083.33 1023.9 1083.07 1023.66 z"/>
<path transform="translate(0,0)" fill="rgb(76,45,40)" d="M 1087.61 1015.28 C 1090.39 1017.92 1094.16 1020.74 1094.18 1024.93 C 1094.19 1026.49 1093.56 1026.7 1092.6 1027.78 C 1089.44 1028.14 1086.35 1026.23 1083.85 1024.38 C 1083.57 1024.17 1083.33 1023.9 1083.07 1023.66 C 1084.27 1022.68 1083.88 1023.22 1084.53 1021.77 C 1085.51 1019.57 1086.55 1017.43 1087.61 1015.28 z"/>
<path transform="translate(0,0)" fill="rgb(47,34,44)" d="M 1239.29 1299.73 C 1241.35 1299.72 1243.47 1299.61 1245.3 1300.76 C 1254.75 1306.72 1278.8 1353.33 1283.59 1364.97 C 1285.29 1369.1 1286.11 1373.34 1286.88 1377.71 C 1286.33 1377.57 1285.77 1377.46 1285.23 1377.28 C 1283.15 1376.6 1281.74 1375.57 1280.6 1373.71 C 1274.36 1363.51 1269.76 1351.78 1263.99 1341.2 C 1256.24 1327.01 1247.32 1313.7 1239.29 1299.73 z"/>
<path transform="translate(0,0)" fill="rgb(47,34,44)" d="M 851.712 1203.43 C 877.628 1201.19 904.66 1203.22 930.633 1204.29 C 941.312 1204.73 953.39 1204.18 963.792 1206.55 C 967.171 1207.32 968.607 1208.06 970.413 1211.01 L 969.789 1212.44 C 951.389 1217.88 905.486 1213.45 884.213 1213.24 C 784.885 1212.27 697.77 1228.47 616.108 1288.2 C 595.114 1303.55 575.968 1321.1 556.5 1338.3 C 525.387 1365.79 494.491 1393.19 464.841 1422.28 L 464.396 1422.73 C 453.792 1433.16 413.032 1475.73 399.706 1475.59 C 397.626 1473.96 398.091 1474.24 397.675 1471.89 C 398.469 1469.65 399.314 1468 400.906 1466.22 C 408.28 1457.97 423.941 1446.6 432.959 1438.11 C 457.938 1414.61 481.915 1390.26 507.338 1367.19 C 604.605 1278.92 668.715 1220.78 804.291 1206.18 C 819.976 1204.5 835.95 1204.16 851.712 1203.43 z"/>
<path transform="translate(0,0)" fill="rgb(222,121,56)" d="M 227.269 841.295 C 226.248 795.43 227.187 749.303 227.189 703.411 L 227.204 434.517 L 227.477 240.503 C 227.569 210.463 226.082 180.067 227.761 150.078 C 228.248 141.387 229.055 132.088 234.231 124.736 C 237.64 119.894 240.971 119.028 246.545 118.161 C 267.827 114.852 301.634 116.994 324.293 116.988 L 483.954 116.958 L 825.917 117.037 C 872.176 117.166 918.864 115.677 965.059 117.061 C 972.59 117.286 981.287 117.546 987.454 122.368 C 994.134 127.591 994.787 136.409 995.457 144.224 C 993.838 163.565 995.068 183.929 995.075 203.373 L 995.112 318.862 L 995.383 688.685 L 995.423 782.868 C 995.495 800.553 996.716 819.098 995.174 836.661 C 979.046 837.093 962.911 837.21 946.778 837.012 C 931.285 837.608 916.195 837.674 900.727 836.733 C 874.646 837.618 845.313 839 819.424 836.327 C 801.651 836.027 783.875 836.071 766.105 836.46 C 756.009 836.598 745.092 836.023 735.103 837.523 L 734.939 712.787 C 734.918 690.431 736.585 667.124 734.525 644.913 C 713.51 642.715 692.111 644.574 670.988 642.86 C 671.251 632.855 672.916 620.811 669.117 611.406 C 660.841 604.075 635.739 605.782 625.143 606.397 C 618.12 606.805 611.23 607.324 604.463 609.338 C 604.193 609.418 603.921 609.491 603.65 609.567 C 602.699 621.313 602.756 633.303 603.024 645.082 L 604.128 778.372 C 604.282 797.7 606.364 817.763 604.127 836.989 C 582.395 836.983 560.646 836.788 538.916 837.069 C 526.347 837.681 482.303 840.394 472.787 837.223 C 466.78 839.511 412.731 838.885 404.787 837.502 C 384.646 837.188 364.466 838.157 344.31 838.037 L 274.023 839.009 C 258.814 839.092 242.206 838.479 227.269 841.295 z"/>
<path transform="translate(0,0)" fill="rgb(132,58,23)" d="M 274.023 839.009 L 274.004 654.576 C 273.992 622.052 272.484 588.699 274.185 556.255 C 274.475 550.718 274.78 544.066 277.497 539.171 C 280.771 536.699 283.95 536.96 287.963 536.856 C 326.392 535.856 365.155 537.025 403.613 537.067 L 660.515 537.729 L 844.687 537.932 C 878.233 537.919 912.261 536.677 945.747 538.288 C 948.846 560.422 946.907 584.626 947.06 606.994 L 947.264 756.293 C 947.262 772.472 950.352 824.429 946.778 837.012 C 931.285 837.608 916.195 837.674 900.727 836.733 C 874.646 837.618 845.313 839 819.424 836.327 C 801.651 836.027 783.875 836.071 766.105 836.46 C 756.009 836.598 745.092 836.023 735.103 837.523 L 734.939 712.787 C 734.918 690.431 736.585 667.124 734.525 644.913 C 713.51 642.715 692.111 644.574 670.988 642.86 C 671.251 632.855 672.916 620.811 669.117 611.406 C 660.841 604.075 635.739 605.782 625.143 606.397 C 618.12 606.805 611.23 607.324 604.463 609.338 C 604.193 609.418 603.921 609.491 603.65 609.567 C 602.699 621.313 602.756 633.303 603.024 645.082 L 604.128 778.372 C 604.282 797.7 606.364 817.763 604.127 836.989 C 582.395 836.983 560.646 836.788 538.916 837.069 C 526.347 837.681 482.303 840.394 472.787 837.223 C 466.78 839.511 412.731 838.885 404.787 837.502 C 384.646 837.188 364.466 838.157 344.31 838.037 L 274.023 839.009 z"/>
<path transform="translate(0,0)" fill="rgb(107,95,134)" d="M 536.02 644.3 C 558.2 642.029 580.802 643.711 603.024 645.082 L 604.128 778.372 C 604.282 797.7 606.364 817.763 604.127 836.989 C 582.395 836.983 560.646 836.788 538.916 837.069 C 526.347 837.681 482.303 840.394 472.787 837.223 L 471.87 644.86 C 492.626 644.718 515.608 647.766 536.02 644.3 z"/>
<path transform="translate(0,0)" fill="rgb(206,100,84)" d="M 536.02 644.3 C 537.403 676.016 536.967 707.763 537.447 739.498 C 537.94 772.062 539.284 804.476 538.916 837.069 C 526.347 837.681 482.303 840.394 472.787 837.223 L 471.87 644.86 C 492.626 644.718 515.608 647.766 536.02 644.3 z"/>
<path transform="translate(0,0)" fill="rgb(28,79,79)" d="M 403.907 669.26 C 404.365 657.754 400.822 614.157 408.279 607.954 C 415.803 601.697 460.447 604.665 471.632 605.218 C 472.54 618.284 471.902 631.749 471.87 644.86 L 472.787 837.223 C 466.78 839.511 412.731 838.885 404.787 837.502 C 407.604 821.187 406.203 803.005 406.124 786.448 C 405.667 747.381 404.928 708.317 403.907 669.26 z"/>
<path transform="translate(0,0)" fill="rgb(28,79,79)" d="M 788.502 647.809 C 794.495 644.283 839.408 645.55 847.249 647.379 C 851.088 648.275 855.415 649.9 857.571 653.412 C 867.029 668.819 872.327 709.581 876.585 728.975 C 884.432 764.939 892.48 800.859 900.727 836.733 C 874.646 837.618 845.313 839 819.424 836.327 C 818.173 819.525 813.278 798.775 810.205 781.88 C 802.147 737.589 792.646 692.668 788.502 647.809 z"/>
<path transform="translate(0,0)" fill="rgb(222,121,56)" d="M 345.394 639.45 C 363.774 637.417 385.435 637.374 403.459 641.086 C 403.206 650.387 400.082 660.416 403.907 669.26 C 404.928 708.317 405.667 747.381 406.124 786.448 C 406.203 803.005 407.604 821.187 404.787 837.502 C 384.646 837.188 364.466 838.157 344.31 838.037 C 346.191 811.903 344.89 785.157 344.304 758.963 C 343.997 736.665 343.866 714.365 343.912 692.065 C 343.887 674.484 343.55 656.962 345.394 639.45 z"/>
<path transform="translate(0,0)" fill="rgb(132,58,23)" d="M 277.761 257.872 C 274.858 252.05 275.207 179.45 278.197 171.138 C 279.117 168.579 280.162 166.629 282.487 165.115 C 301.854 161.398 336.464 164.677 357.411 164.904 L 484.07 165.059 L 778.254 165.687 C 826.56 165.552 874.914 164.229 923.223 165.046 C 930.112 165.163 936.523 165.716 943.198 167.555 C 946.241 171.007 946.48 179.109 946.782 183.658 C 948.215 205.227 947.508 227.173 947.55 248.796 C 947.616 282.865 947.768 316.716 947.232 350.788 C 946.467 399.41 947.047 447.976 946.952 496.594 C 913.652 497.09 880.485 496.231 847.2 496.127 C 811.246 496.015 775.267 496.649 739.322 496.316 C 715.666 496.078 692.009 495.981 668.351 496.026 C 654.618 496 640.569 495.227 626.9 496.399 C 626.497 496.617 626.126 496.907 625.691 497.051 C 617.601 499.72 589.781 501.07 582.24 498.478 C 580.256 497.796 580.35 496.711 579.484 494.909 C 563.69 495.814 547.702 495.423 531.89 495.181 C 508.631 495.745 485.285 495.323 462.006 495.656 C 446.773 496.502 431.039 498.662 415.984 495.417 C 394.135 494.433 371.697 495.838 349.767 495.969 C 350.021 482.953 348.622 469.788 348.175 456.765 C 347.659 441.764 347.939 426.748 347.27 411.75 L 347.282 278.25 C 346.843 271.461 347.173 264.487 347.201 257.677 C 332.59 253.949 294.721 245.688 281.358 252.361 C 278.841 253.618 278.707 255.423 277.761 257.872 z"/>
<path transform="translate(0,0)" fill="rgb(254,207,160)" d="M 416.914 241.051 C 431.308 241.025 445.664 241.035 460.048 241.643 C 461.828 270.659 460.865 300.113 460.916 329.189 C 460.676 384.681 461.039 440.173 462.006 495.656 C 446.773 496.502 431.039 498.662 415.984 495.417 C 394.135 494.433 371.697 495.838 349.767 495.969 C 350.021 482.953 348.622 469.788 348.175 456.765 C 347.659 441.764 347.939 426.748 347.27 411.75 L 347.282 278.25 C 348.145 266.454 348.005 254.544 348.836 242.709 C 371.215 239.989 394.414 240.675 416.914 241.051 z"/>
<path transform="translate(0,0)" fill="rgb(193,73,37)" d="M 416.914 241.051 C 431.308 241.025 445.664 241.035 460.048 241.643 C 461.828 270.659 460.865 300.113 460.916 329.189 C 460.676 384.681 461.039 440.173 462.006 495.656 C 446.773 496.502 431.039 498.662 415.984 495.417 L 416.051 333.708 C 416.034 303.018 414.565 271.615 416.914 241.051 z"/>
<path transform="translate(0,0)" fill="rgb(100,134,135)" d="M 460.048 241.643 C 459.706 231.019 456.906 213.593 461.015 203.836 C 469.424 198.276 515.432 199.892 526.983 201.127 C 530.102 299.125 528.897 397.191 531.89 495.181 C 508.631 495.745 485.285 495.323 462.006 495.656 C 461.039 440.173 460.676 384.681 460.916 329.189 C 460.865 300.113 461.828 270.659 460.048 241.643 z"/>
<path transform="translate(0,0)" fill="rgb(222,121,56)" d="M 579.981 494.423 C 569.202 436.896 555.545 379.654 543.587 322.34 C 541.153 310.674 538.81 298.975 536.191 287.349 C 534.92 281.706 532.814 276.031 531.987 270.336 C 531.523 267.139 531.811 263.36 533.951 260.774 C 540.018 253.44 574.565 252.828 584.671 253.05 C 589.706 253.161 594 253.659 598.566 255.822 C 600.914 258.423 601.638 263.246 602.457 266.621 C 614.78 317.442 623.48 369.884 633.345 421.247 C 636.014 435.142 644.652 470.221 644.622 481.929 C 644.615 484.647 642.574 487.446 640.598 489.191 C 636.766 492.575 631.072 493.771 626.123 494.204 L 626.9 496.399 C 626.497 496.617 626.126 496.907 625.691 497.051 C 617.601 499.72 589.781 501.07 582.24 498.478 C 580.256 497.796 580.35 496.711 579.484 494.909 L 579.981 494.423 z"/>
<path transform="translate(0,0)" fill="rgb(180,99,55)" d="M 579.981 494.423 C 595.187 495.995 610.999 492.632 626.123 494.204 L 626.9 496.399 C 626.497 496.617 626.126 496.907 625.691 497.051 C 617.601 499.72 589.781 501.07 582.24 498.478 C 580.256 497.796 580.35 496.711 579.484 494.909 L 579.981 494.423 z"/>
<path transform="translate(0,0)" fill="rgb(222,121,56)" d="M 849.106 416.988 L 854.596 417.187 C 859.762 417.552 864.98 417.473 869.234 420.855 C 873.502 424.249 877.757 434.03 878.25 439.482 C 879.192 449.909 872.883 464.096 866.226 471.681 C 852.192 487.672 828.143 491.479 808.004 492.517 C 786.498 493.626 755.856 491.128 739.374 475.457 C 727.834 464.484 722.842 449.377 722.465 433.864 C 725.402 427.638 728.343 423.611 733.792 419.345 C 756.563 416.658 779.546 418.492 802.4 418.778 C 817.928 418.972 833.616 418.064 849.106 416.988 z"/>
<path transform="translate(0,0)" fill="rgb(28,79,79)" d="M 833.987 217.181 C 836.244 217.449 838.566 217.692 840.755 218.331 C 843.962 219.266 846.361 221.008 847.847 224.079 C 854.291 237.4 856.824 304.547 851.626 319.084 C 846.002 334.81 833.324 347.584 824.875 361.762 C 819.13 371.403 815.527 382.223 809.293 391.616 C 807.104 394.914 803.512 400.971 799.848 402.593 C 792.823 389.915 791.279 372.084 787.946 357.978 C 785.647 348.254 782.76 338.697 780.39 328.998 C 773.95 302.637 778.251 271.295 792.385 248.001 C 802.036 232.095 815.993 221.714 833.987 217.181 z"/>
<path transform="translate(0,0)" fill="rgb(28,79,79)" d="M 708.717 267.139 C 720.222 266.26 729.158 267.809 738.578 275.138 C 767.082 297.315 775.657 372.535 780.574 407.2 L 769.24 403.615 C 749.84 398.64 735.216 393.725 721.74 378.238 C 703.12 356.84 693.684 322.478 695.829 294.439 C 696.694 283.14 700.074 274.543 708.717 267.139 z"/>
<path transform="translate(0,0)" fill="rgb(28,79,79)" d="M 849.106 416.988 L 848.059 416.864 C 839.989 415.96 820.955 417.861 815.879 411.03 C 813.941 408.423 813.684 405.089 814.367 402.01 C 819.275 379.871 839.217 360.079 858.119 349.038 C 873.984 339.771 908.082 329.741 926.094 334.217 C 929.394 335.038 931.206 336.386 932.996 339.331 C 934.788 348.613 919.907 367.056 914.73 374.741 C 903.19 391.87 884.17 411.889 863.116 416.433 C 860.333 417.034 857.433 417.101 854.596 417.187 L 849.106 416.988 z"/>
<path transform="translate(0,0)" fill="rgb(28,79,79)" d="M 277.761 257.872 C 278.707 255.423 278.841 253.618 281.358 252.361 C 294.721 245.688 332.59 253.949 347.201 257.677 C 347.173 264.487 346.843 271.461 347.282 278.25 L 347.27 411.75 C 346.124 439.709 347.089 468.07 346.967 496.077 C 324.099 496.088 300.929 497.028 278.107 495.61 C 277.68 439.712 278.739 383.703 278.534 327.774 C 278.449 304.681 279.547 280.856 277.761 257.872 z"/>
<path transform="translate(0,0)" fill="rgb(193,73,37)" d="M 1262.94 699.874 C 1288.09 694.983 1370.64 700.772 1392.87 709.172 C 1386.29 726.863 1385.81 745.621 1393.72 763.028 C 1403.85 785.298 1426.38 798.499 1448.49 806.566 C 1487.02 820.621 1530.75 815.228 1567.46 797.903 C 1586.61 788.639 1604.39 776.77 1620.29 762.634 C 1628.43 755.385 1636.17 747.335 1644.71 740.601 C 1685.96 741.553 1720.63 754.735 1757.13 772.769 C 1768.3 778.288 1780.36 783.842 1790.82 790.619 C 1844.55 840.377 1874.8 897.863 1899.61 966.037 C 1903.43 978.515 1908.95 990.545 1913.19 1002.92 C 1923.02 1031.31 1932 1059.98 1940.11 1088.91 C 1942.99 1100.78 1946 1112.62 1949.14 1124.42 C 1953.6 1150.04 1956.26 1177.4 1940.31 1199.9 C 1928.74 1216.22 1910.16 1223.89 1891 1226.85 C 1855.6 1232.31 1822.58 1224.56 1787.54 1223.61 C 1721.94 1212.27 1656.1 1198.86 1593.33 1176.26 C 1583.87 1206.37 1568.22 1234.01 1554.91 1262.46 C 1547.27 1278.8 1540.78 1295.68 1533.31 1312.1 C 1524.72 1330.95 1514.95 1349.31 1505.02 1367.49 C 1466.62 1343.52 1423.95 1327.29 1382.26 1310.25 C 1368.28 1304.53 1354.73 1297.38 1340.36 1292.68 C 1335.36 1273.68 1317.88 1246.19 1304.86 1231.43 C 1281.66 1205.15 1253.3 1196.5 1228.18 1172.15 C 1196.21 1141.17 1169.26 1104.66 1140.09 1071.08 C 1127.88 1057.03 1114.56 1044.07 1101.35 1030.97 C 1100.54 1029.71 1099.6 1028.92 1099.72 1027.35 C 1100.78 1013.88 1127.8 992.004 1138.11 983.251 C 1139.55 981.087 1141.1 978.995 1142.63 976.889 C 1147.07 964.299 1151.77 951.703 1155.41 938.855 C 1137.96 903.587 1097.33 858.617 1061 842.217 C 1063.55 838.306 1068.3 834.915 1071.79 831.769 C 1078.63 824.611 1086.56 818.073 1093.83 811.315 C 1130.83 776.904 1171.74 741.996 1216.85 718.763 C 1231.37 711.287 1247.14 707.479 1261.59 700.536 L 1262.94 699.874 z"/>
<path transform="translate(0,0)" fill="rgb(132,58,23)" d="M 1719.95 1023.53 C 1732.19 1015.92 1744.43 1007.67 1757.35 1001.27 C 1797.23 981.531 1854.93 966.345 1899.61 966.037 C 1903.43 978.515 1908.95 990.545 1913.19 1002.92 C 1923.02 1031.31 1932 1059.98 1940.11 1088.91 C 1942.99 1100.78 1946 1112.62 1949.14 1124.42 C 1953.6 1150.04 1956.26 1177.4 1940.31 1199.9 C 1928.74 1216.22 1910.16 1223.89 1891 1226.85 C 1855.6 1232.31 1822.58 1224.56 1787.54 1223.61 C 1721.94 1212.27 1656.1 1198.86 1593.33 1176.26 C 1575.75 1168.09 1557.05 1163.23 1539.55 1155.3 C 1530.59 1162.82 1521.72 1170.53 1512.51 1177.76 C 1501.4 1186.48 1489.71 1194.61 1479.88 1204.84 C 1472.03 1213 1465.29 1222.79 1458.33 1231.73 C 1452.21 1239.58 1441.34 1256.25 1430.47 1256.21 C 1426.39 1256.2 1421.75 1253.43 1418.53 1251.15 C 1416.97 1254.63 1414.87 1258.22 1410.98 1259.47 C 1408.48 1260.28 1406.45 1260.15 1403.89 1259.67 C 1399.69 1257.01 1394.7 1255.05 1390.21 1252.88 C 1389.11 1252.43 1388.03 1251.97 1386.97 1251.45 C 1383.37 1249.7 1382.83 1246.96 1381.57 1243.43 C 1379.98 1231.44 1372.52 1235.72 1365.06 1228.81 C 1362.05 1226.03 1361.27 1221.5 1361.17 1217.62 C 1360.68 1198.37 1378.46 1156.66 1388.54 1139.54 C 1394.5 1129.54 1401.58 1120.25 1409.63 1111.85 C 1463.48 1054.87 1515.1 1046.95 1589.98 1053.89 C 1612.27 1055.96 1635.56 1059.58 1657.93 1058.86 C 1658.33 1058.85 1658.73 1058.83 1659.13 1058.81 C 1669.52 1042.21 1682.43 1019.01 1696.65 1005.7 C 1699.33 1012.22 1703.42 1017.67 1707.38 1023.46 C 1708.25 1023.88 1709.12 1024.31 1710.03 1024.66 C 1713.89 1026.17 1716.38 1025.01 1719.95 1023.53 z"/>
<path transform="translate(0,0)" fill="rgb(118,145,119)" d="M 1659.13 1058.81 C 1669.52 1042.21 1682.43 1019.01 1696.65 1005.7 C 1699.33 1012.22 1703.42 1017.67 1707.38 1023.46 C 1717.02 1036.99 1728.27 1048.91 1737.51 1062.87 L 1731.05 1063.27 C 1706.81 1061.68 1683.36 1062.3 1659.13 1058.81 z"/>
<path transform="translate(0,0)" fill="rgb(47,34,44)" d="M 1737.51 1062.87 C 1753.05 1058.13 1796.21 1064.63 1813.19 1067.48 C 1820.54 1068.72 1834.99 1071.29 1839.59 1077.75 C 1838.05 1079.35 1838.91 1078.9 1836.5 1079.36 C 1825.54 1081.47 1790.51 1074.15 1776.12 1072.77 C 1764.57 1071.66 1752.77 1071.91 1741.29 1070.27 C 1738.04 1069.8 1734.1 1069.45 1731.4 1067.53 L 1731.05 1063.27 L 1737.51 1062.87 z"/>
<path transform="translate(0,0)" fill="url(#Gradient2)" d="M 1381.57 1243.43 C 1381.75 1217.68 1393.05 1194.49 1406.17 1173 C 1410.3 1166.23 1414.3 1159.3 1419.92 1153.64 C 1422.48 1151.06 1425.45 1148.11 1429.1 1147.54 C 1430.14 1151.68 1427.05 1156.2 1424.96 1159.69 C 1413.14 1179.39 1387.67 1215.6 1388.71 1238.67 C 1388.85 1241.76 1389.93 1245.19 1390.66 1248.2 C 1391.13 1250.14 1391.09 1251.06 1390.21 1252.88 C 1389.11 1252.43 1388.03 1251.97 1386.97 1251.45 C 1383.37 1249.7 1382.83 1246.96 1381.57 1243.43 z"/>
<path transform="translate(0,0)" fill="rgb(47,34,44)" d="M 1416.46 1220.44 C 1424.69 1202.67 1440.72 1171.95 1457.2 1161.37 L 1458.86 1161.79 C 1460.06 1166.07 1456.93 1171.39 1454.87 1175.02 C 1445.41 1191.75 1429.94 1208.09 1423.58 1226.08 C 1421.35 1223.97 1418.94 1222.23 1416.46 1220.44 z"/>
<path transform="translate(0,0)" fill="rgb(76,45,40)" d="M 1416.46 1220.44 C 1418.94 1222.23 1421.35 1223.97 1423.58 1226.08 C 1420.58 1234.27 1417.11 1242.23 1418.53 1251.15 C 1416.97 1254.63 1414.87 1258.22 1410.98 1259.47 C 1408.48 1260.28 1406.45 1260.15 1403.89 1259.67 C 1403.92 1245.19 1410.34 1233.16 1416.46 1220.44 z"/>
<path transform="translate(0,0)" fill="url(#Gradient1)" d="M 1155.41 938.855 C 1179.31 891.007 1195.78 865.924 1234.64 828.114 C 1241.25 821.684 1248.53 812.314 1257.3 809.078 L 1258.93 809.585 C 1259.57 812.6 1258.87 814.515 1257.22 817.116 C 1250.21 828.184 1237.04 837.493 1227.63 846.651 C 1218.4 855.632 1210.11 865.277 1202.34 875.545 C 1188.93 893.256 1176.29 912.732 1168.03 933.391 C 1162.3 947.717 1158.06 963.536 1150.71 977.068 C 1147.85 976.129 1145.53 976.526 1142.63 976.889 C 1147.07 964.299 1151.77 951.703 1155.41 938.855 z"/>
<path transform="translate(0,0)" fill="rgb(76,45,40)" d="M 1696.65 1005.7 C 1693.01 993.007 1677.28 954.269 1679.52 943.393 C 1681.47 941.886 1681.76 942.087 1684.26 942.098 C 1689.49 946.41 1700.94 986.267 1705.24 996.25 C 1709.33 1005.74 1714.74 1014.63 1719.95 1023.53 C 1716.38 1025.01 1713.89 1026.17 1710.03 1024.66 C 1709.12 1024.31 1708.25 1023.88 1707.38 1023.46 C 1703.42 1017.67 1699.33 1012.22 1696.65 1005.7 z"/>
<path transform="translate(0,0)" fill="rgb(28,79,79)" d="M 1138.11 983.251 C 1141.75 985.102 1145.61 986.801 1148.85 989.291 C 1135.5 1003.77 1118.4 1020.8 1101.35 1030.97 C 1100.54 1029.71 1099.6 1028.92 1099.72 1027.35 C 1100.78 1013.88 1127.8 992.004 1138.11 983.251 z"/>
<path transform="translate(0,0)" fill="rgb(57,60,58)" d="M 1142.63 976.889 C 1145.53 976.526 1147.85 976.129 1150.71 977.068 C 1149.48 981.271 1148.95 984.915 1148.85 989.291 C 1145.61 986.801 1141.75 985.102 1138.11 983.251 C 1139.55 981.087 1141.1 978.995 1142.63 976.889 z"/>
<path transform="translate(0,0)" fill="rgb(47,34,44)" d="M 1475.39 354.084 C 1475.87 354.203 1476.35 354.345 1476.84 354.441 C 1482.35 355.519 1498.83 346.178 1505.83 344.391 C 1517.74 341.351 1529.85 339.108 1542.17 338.871 C 1576.46 338.212 1621.89 350.272 1643.91 378.476 C 1658.56 397.246 1664.62 428.963 1678.36 442.19 C 1691.46 454.802 1709.72 456.18 1725.92 462.377 C 1764.46 477.113 1781.7 513.462 1776.42 553.207 C 1774.27 569.35 1768.58 586.827 1779.58 600.839 C 1788.27 611.912 1800.98 617.718 1812.22 625.665 C 1839.3 644.808 1852.71 679.832 1849.47 712.292 C 1847.79 729.218 1841.02 743.577 1832.28 757.942 C 1819.36 773.969 1809.89 782.703 1790.82 790.619 C 1780.36 783.842 1768.3 778.288 1757.13 772.769 C 1720.63 754.735 1685.96 741.553 1644.71 740.601 C 1636.17 747.335 1628.43 755.385 1620.29 762.634 C 1604.39 776.77 1586.61 788.639 1567.46 797.903 C 1530.75 815.228 1487.02 820.621 1448.49 806.566 C 1426.38 798.499 1403.85 785.298 1393.72 763.028 C 1385.81 745.621 1386.29 726.863 1392.87 709.172 C 1370.64 700.772 1288.09 694.983 1262.94 699.874 C 1255.88 662.071 1263.63 650.138 1284.52 619.766 C 1289.8 612.105 1294.8 603.421 1296.42 594.139 C 1301.19 566.692 1284.79 544.948 1297.85 513.364 C 1308.73 487.045 1334.4 477.954 1344.58 456.911 C 1350.77 444.142 1348.93 428.296 1353.15 414.782 C 1360 392.837 1376.36 376.758 1396.43 366.534 C 1419.05 355.009 1450.34 346.043 1475.39 354.084 z"/>
<path transform="translate(0,0)" fill="rgb(132,58,23)" d="M 1374.98 493.606 C 1371.03 472.974 1379.25 450.267 1390.83 433.183 C 1401.14 417.962 1414.15 406.49 1430.61 398.409 C 1432.91 419.281 1434.8 446.617 1452.43 461.022 C 1470.01 475.377 1500.04 472.168 1521.96 492.163 C 1536.69 505.602 1526.7 521.858 1551.69 527.045 C 1552.08 526.922 1552.48 526.804 1552.87 526.676 C 1568.19 521.664 1583.35 506.024 1600.32 514.695 C 1606.87 518.036 1611.15 524.398 1613.3 531.276 C 1616.81 542.514 1615.23 555.188 1609.61 565.456 C 1601.29 580.625 1587.3 590.495 1572.35 598.336 C 1568.51 623.442 1570.77 653.065 1571.76 678.434 C 1572.11 687.358 1571.65 696.807 1573.28 705.585 C 1574 709.475 1575.21 713.067 1577.62 716.252 C 1589.65 732.146 1625.94 738.288 1644.71 740.601 C 1636.17 747.335 1628.43 755.385 1620.29 762.634 C 1604.39 776.77 1586.61 788.639 1567.46 797.903 C 1530.75 815.228 1487.02 820.621 1448.49 806.566 C 1426.38 798.499 1403.85 785.298 1393.72 763.028 C 1385.81 745.621 1386.29 726.863 1392.87 709.172 C 1414.6 717.938 1424.37 715.534 1445.61 718.85 C 1446.77 715.381 1447.83 711.309 1450.31 708.527 C 1459.7 697.957 1478.02 693.124 1489.6 684.457 C 1494.06 681.114 1497.5 677.02 1501.14 672.843 C 1477.19 679.316 1442.02 693.386 1418.64 679.934 C 1395.05 666.364 1384.13 638.831 1377.99 613.858 C 1372.12 589.956 1358.57 539.987 1371.5 517.476 C 1374.85 511.656 1383.79 505.081 1385.46 499.202 C 1383.78 496.11 1378.16 494.773 1374.98 493.606 z"/>
<path transform="translate(0,0)" fill="rgb(47,34,44)" d="M 1401.36 604.663 C 1404.58 604.662 1407.78 604.646 1410.93 605.433 C 1414.53 606.332 1416.66 607.583 1418.57 610.884 L 1416.06 612.616 C 1418.18 616.601 1435.84 608.705 1441.03 611.201 C 1442.51 611.914 1442.26 612.931 1442.61 614.382 C 1440.88 621.007 1435.82 623.093 1430.44 626.685 C 1428.34 628.089 1426.2 629.569 1423.95 630.741 C 1417.71 634.001 1402.26 637.84 1395.59 634.933 C 1393.43 633.99 1391.83 632.831 1391.1 630.477 C 1388.89 623.297 1397.94 610.914 1401.36 604.663 z"/>
<path transform="translate(0,0)" fill="rgb(47,34,44)" d="M 1444.47 494.524 C 1459.96 493.698 1471.85 493.113 1485.71 501.337 C 1479.94 505.405 1472.69 508.418 1468.2 514.006 C 1466.53 516.086 1465.19 517.242 1462.97 518.738 C 1459.79 519.072 1456.02 519.846 1452.83 519.646 C 1449.98 519.468 1449.17 518.641 1447.48 516.493 C 1446.97 513.405 1447.31 511.341 1448.04 508.3 L 1448.92 504.526 C 1442.29 502.344 1433.83 507.326 1427.61 503.691 L 1427.67 502.265 C 1432.24 498.396 1438.73 496.055 1444.47 494.524 z"/>
<path transform="translate(0,0)" fill="rgb(47,34,44)" d="M 1397.96 571.426 C 1394.48 572.81 1386.21 574.008 1382.6 573.033 C 1379.27 572.134 1377.97 570.782 1376.44 567.792 C 1376.66 566.126 1376.5 565.217 1377.63 563.862 C 1380.13 560.869 1383.98 559.96 1387.74 559.867 C 1392.46 559.749 1399.48 560.828 1403.04 564.052 L 1403.13 565.97 L 1400.38 568.934 L 1398.33 569.995 L 1397.96 571.426 z"/>
<path transform="translate(0,0)" fill="rgb(76,45,40)" d="M 1397.96 571.426 L 1398.33 569.995 L 1400.38 568.934 C 1403.23 570.961 1405.66 572.525 1407.46 575.573 L 1407.29 577.977 C 1405.65 579.26 1406.25 579.309 1404.46 579.157 C 1402.48 578.988 1401.53 578.302 1399.92 577.247 C 1398.98 575.341 1398.49 573.477 1397.96 571.426 z"/>
<path transform="translate(0,0)" fill="rgb(249,182,160)" d="M 995.457 144.224 C 997.962 151.577 996.128 210.758 996.126 224.351 L 996.113 406.132 C 996.114 440.304 995.552 474.595 996.384 508.755 C 1019.5 497.512 1045.38 481.042 1054.14 455.558 C 1058.04 444.177 1060.53 431.927 1063.49 420.244 C 1069.35 397.116 1074.03 372.346 1081.73 349.849 C 1096.37 307.073 1123.77 273.455 1164.48 253.329 C 1182.5 244.419 1201.9 238.051 1221.16 232.396 C 1271.25 217.685 1322.25 209.125 1373.01 226.568 C 1405.27 237.652 1435.86 260.534 1450.83 291.674 C 1456.83 304.147 1459.64 317.992 1465.11 330.68 C 1467.59 336.42 1475.75 347.21 1475.44 352.839 C 1475.42 353.254 1475.41 353.669 1475.39 354.084 C 1450.34 346.043 1419.05 355.009 1396.43 366.534 C 1376.36 376.758 1360 392.837 1353.15 414.782 C 1348.93 428.296 1350.77 444.142 1344.58 456.911 C 1334.4 477.954 1308.73 487.045 1297.85 513.364 C 1284.79 544.948 1301.19 566.692 1296.42 594.139 C 1294.8 603.421 1289.8 612.105 1284.52 619.766 C 1263.63 650.138 1255.88 662.071 1262.94 699.874 L 1261.59 700.536 C 1247.14 707.479 1231.37 711.287 1216.85 718.763 C 1171.74 741.996 1130.83 776.904 1093.83 811.315 C 1086.56 818.073 1078.63 824.611 1071.79 831.769 C 1053.06 837.775 1015.72 836.838 995.174 836.661 C 996.716 819.098 995.495 800.553 995.423 782.868 L 995.383 688.685 L 995.112 318.862 L 995.075 203.373 C 995.068 183.929 993.838 163.565 995.457 144.224 z"/>
<path transform="translate(0,0)" fill="rgb(249,182,160)" d="M 1832.28 757.942 C 1832.67 758.083 1833.07 758.233 1833.46 758.366 C 1841.31 760.979 1852.4 758.534 1860.93 760.144 C 1909.2 769.261 1958.57 792.361 1983.2 837.168 C 2007.68 881.708 2010.95 930.324 1996.59 978.601 C 1987.81 1008.1 1974.12 1033.18 1958.46 1059.43 C 1952.58 1069.29 1946.79 1079.55 1940.11 1088.91 C 1932 1059.98 1923.02 1031.31 1913.19 1002.92 C 1908.95 990.545 1903.43 978.515 1899.61 966.037 C 1874.8 897.863 1844.55 840.377 1790.82 790.619 C 1809.89 782.703 1819.36 773.969 1832.28 757.942 z"/>
</svg>