<?xml version="1.0" encoding="UTF-8"?>
<!-- Generator: visioncortex VTracer 0.6.4 -->
<svg version="1.1" xmlns="http://www.w3.org/2000/svg" width="1024" height="1024">
<path d="M0 0 C337.92 0 675.84 0 1024 0 C1024 337.92 1024 675.84 1024 1024 C686.08 1024 348.16 1024 0 1024 C0 686.08 0 348.16 0 0 Z " fill="#070B08" transform="translate(0,0)"/>
<path d="M0 0 C337.92 0 675.84 0 1024 0 C1024 337.92 1024 675.84 1024 1024 C686.08 1024 348.16 1024 0 1024 C0 978.46 0 932.92 0 886 C1.98 887.65 3.96 889.3 6 891 C9.11 891.59 9.11 891.59 12.38 891.44 C16.45 891.57 19.58 891.87 23.47 893.1 C24.67 893.58 25.86 894.07 27.1 894.56 C28.51 895.11 29.92 895.66 31.33 896.21 C32.08 896.5 32.83 896.79 33.6 897.09 C37.92 898.73 42.29 900.21 46.66 901.69 C47.59 902.01 48.52 902.32 49.47 902.65 C52.33 903.62 55.2 904.59 58.06 905.56 C59.98 906.22 61.9 906.87 63.82 907.52 C65.71 908.16 67.59 908.8 69.47 909.44 C70.38 909.75 71.29 910.06 72.22 910.38 C76.34 911.78 80.46 913.16 84.6 914.47 C85.3 914.7 86 914.92 86.71 915.15 C88.54 915.73 90.37 916.3 92.2 916.87 C95 918 95 918 96.65 919.17 C97.32 920.08 97.32 920.08 98 921 C98.38 923.85 98.38 923.85 98.38 927.36 C98.39 928.68 98.4 929.99 98.42 931.35 C98.41 932.05 98.41 932.76 98.41 933.48 C98.41 935.69 98.42 937.9 98.44 940.1 C98.48 944.8 98.49 949.49 98.5 954.19 C98.51 959.61 98.53 965.04 98.58 970.46 C98.59 972.63 98.59 974.79 98.58 976.96 C98.58 985.02 98.58 985.02 100.34 992.83 C100.89 993.88 101.43 994.92 102 996 C102.99 996.66 103.98 997.32 105 998 C115.18 998.9 125.58 997.56 135.72 996.57 C137.31 996.42 138.9 996.27 140.49 996.12 C144.65 995.73 148.82 995.33 152.98 994.93 C157.11 994.53 161.25 994.14 165.39 993.75 C178.78 992.48 192.18 991.19 205.56 989.82 C224.21 987.92 242.88 986.39 261.56 984.88 C281.49 983.27 301.4 981.51 321.3 979.54 C333.53 978.33 345.77 977.18 358 976.07 C358.88 975.99 359.75 975.91 360.65 975.83 C365.12 975.43 369.59 975.02 374.05 974.62 C383.6 973.76 393.14 972.9 402.68 972.03 C403.63 971.95 404.59 971.86 405.57 971.77 C427.86 969.75 450.14 967.66 472.42 965.56 C489.21 963.98 506 962.42 522.8 960.98 C535.41 959.9 548 958.71 560.58 957.39 C575.36 955.84 590.15 954.4 604.95 953.07 C605.83 952.99 606.7 952.91 607.61 952.83 C612.11 952.43 616.61 952.02 621.12 951.62 C648.32 949.19 675.52 946.71 702.69 943.94 C725.53 941.61 748.38 939.45 771.25 937.36 C773.86 937.13 776.47 936.89 779.08 936.65 C783.18 936.27 787.28 935.9 791.38 935.53 C792.9 935.39 794.41 935.25 795.93 935.11 C798.02 934.92 800.11 934.73 802.2 934.55 C803.38 934.44 804.55 934.33 805.76 934.23 C808.85 934.01 811.9 933.96 815 934 C818.42 943.03 819.79 952.39 821.38 961.87 C821.74 964.05 822.12 966.23 822.5 968.41 C822.72 969.7 822.93 970.99 823.16 972.32 C824.07 976.31 825.1 979.38 827 983 C827.96 983.7 827.96 983.7 828.93 984.41 C831.05 985.01 832.89 985.31 835.09 985.41 C835.87 985.45 836.65 985.49 837.45 985.53 C838.68 985.58 838.68 985.58 839.94 985.62 C841.21 985.68 841.21 985.68 842.5 985.73 C845 985.83 847.5 985.92 850 986 C851.27 986.05 852.55 986.11 853.86 986.16 C858.63 986.29 863 986.29 867.56 984.81 C870.95 983.17 870.95 983.17 873.38 981.06 C874.99 978.03 875.54 975.86 876.12 972.5 C876.42 970.33 876.71 968.17 877 966 C877.16 965.07 877.32 964.13 877.49 963.17 C878.44 957.74 879.07 952.41 879.43 946.91 C879.5 945.83 879.58 944.74 879.66 943.63 C879.8 941.43 879.93 939.24 880.04 937.05 C880.14 935.53 880.14 935.53 880.24 933.99 C880.29 933.08 880.34 932.16 880.39 931.22 C880.59 930.49 880.79 929.76 881 929 C882.91 927.7 882.91 927.7 885 927 C887.27 926.76 887.27 926.76 889.81 926.69 C897.31 926.11 904.09 923.83 911 921 C915.16 918.91 918.52 916.52 921.77 913.19 C923.95 910.55 925.59 907.94 926.96 904.79 C930.95 892.89 931.32 879.49 932.06 867.06 C932.18 865.25 932.18 865.25 932.3 863.4 C932.56 859.27 932.78 855.13 933 851 C933.04 850.24 933.08 849.49 933.12 848.71 C933.85 835.08 934.13 821.45 934.35 807.8 C934.39 804.76 934.45 801.71 934.5 798.67 C934.53 796.6 934.57 794.53 934.6 792.47 C934.62 791.43 934.64 790.4 934.66 789.33 C934.75 784.02 934.83 778.71 934.9 773.4 C934.97 768.18 935.06 762.97 935.16 757.75 C935.19 755.79 935.22 753.83 935.24 751.86 C935.34 741.98 935.66 732.97 938.82 723.53 C940.43 720.09 942.57 717.58 945.2 714.88 C949.87 710 953.04 704.27 955.75 698.12 C958.54 691.59 959.74 684.8 960.22 677.73 C960.83 661.05 960.83 661.05 958.44 644.62 C957.7 642.39 956.88 640.18 956 638 C955.53 636.82 955.05 635.64 954.56 634.42 C951.43 627.47 947.63 621.67 942.39 616.2 C936.26 610.1 929.84 604.71 921.95 601.03 C913.23 597.21 904.25 594.25 895 592 C894.25 591.81 893.49 591.62 892.72 591.43 C876.2 587.38 859.45 585.04 842.62 582.76 C836.2 581.89 829.78 581.01 823.36 580.12 C814.64 578.91 805.91 577.71 797.19 576.51 C786.97 575.1 776.76 573.69 766.55 572.26 C765.6 572.12 764.64 571.99 763.66 571.85 C759.14 571.22 754.61 570.58 750.09 569.93 C742.91 568.91 735.75 567.93 728.52 567.28 C714.34 565.99 714.34 565.99 709.94 564.13 C706.25 562.15 702.97 559.71 699.65 557.19 C691.16 551.08 681.23 547.5 671.25 544.69 C667.84 543.76 664.42 542.87 661 542 C659.84 541.69 658.68 541.39 657.49 541.07 C650.98 539.39 644.42 538 637.84 536.65 C635 536 635 536 633 535 C632.66 533.27 632.66 533.27 632.53 530.98 C632.45 529.7 632.45 529.7 632.37 528.38 C632.32 527.44 632.27 526.5 632.22 525.54 C632.13 524.08 632.13 524.08 632.04 522.59 C631.92 520.5 631.8 518.41 631.68 516.32 C631.5 513.06 631.31 509.79 631.11 506.52 C630.85 502.25 630.59 497.97 630.34 493.7 C627.77 444.58 627.77 444.58 614.21 397.68 C609.92 388.28 604.23 379.56 597.14 372.02 C590.49 365.75 583.07 361.02 574.7 357.38 C562.39 352.8 549.52 350.3 536.57 348.38 C533.45 347.92 530.33 347.44 527.22 346.96 C526.05 346.78 524.89 346.6 523.68 346.41 C522.36 346.21 522.36 346.21 521 346 C520.95 337.72 520.92 329.45 520.9 321.17 C520.89 317.33 520.87 313.49 520.85 309.65 C520.83 305.94 520.82 302.23 520.81 298.52 C520.81 297.1 520.8 295.69 520.79 294.28 C520.77 292.29 520.77 290.31 520.77 288.33 C520.77 287.2 520.76 286.07 520.76 284.91 C520.88 283.47 520.88 283.47 521 282 C521.63 280.65 522.29 279.31 523 278 C560.49 277.98 597.97 277.96 635.46 277.95 C639.93 277.95 644.4 277.95 648.87 277.95 C650.21 277.94 650.21 277.94 651.57 277.94 C665.79 277.94 680.01 277.93 694.24 277.92 C708.94 277.91 723.64 277.91 738.35 277.91 C746.56 277.9 754.77 277.9 762.98 277.89 C796.73 277.86 830.48 277.96 864.23 278.41 C866.56 278.44 868.88 278.47 871.21 278.5 C885.49 278.69 899.76 278.92 914.02 279.47 C915.54 279.53 915.54 279.53 917.08 279.58 C917.99 279.62 918.89 279.66 919.83 279.7 C920.61 279.74 921.4 279.77 922.21 279.8 C923.1 279.9 923.1 279.9 924 280 C924.33 280.33 924.66 280.66 925 281 C925.1 283.15 925.13 285.31 925.13 287.46 C925.13 288.14 925.13 288.83 925.13 289.53 C925.14 291.84 925.13 294.14 925.13 296.45 C925.13 298.1 925.13 299.74 925.13 301.39 C925.14 305.88 925.14 310.38 925.13 314.87 C925.13 319.58 925.13 324.29 925.14 329 C925.14 336.92 925.14 344.85 925.13 352.77 C925.12 361.9 925.13 371.03 925.13 380.16 C925.14 388.01 925.14 395.86 925.13 403.71 C925.13 408.39 925.13 413.07 925.14 417.75 C925.14 422.17 925.14 426.59 925.13 431.01 C925.13 432.62 925.13 434.22 925.13 435.83 C925.15 446.59 924.74 457.27 924 468 C921.33 469.13 919.19 469.98 916.28 470.27 C915.36 470.26 914.45 470.26 913.5 470.25 C912.58 470.26 911.66 470.26 910.72 470.27 C907.81 469.98 905.64 469.25 903 468 C902.67 467.67 902.34 467.34 902 467 C901.9 464.16 901.86 461.34 901.87 458.5 C901.87 457.57 901.86 456.63 901.86 455.67 C901.86 452.45 901.87 449.22 901.88 446 C901.87 443.69 901.87 441.38 901.87 439.07 C901.89 423.16 902.06 407.26 902.29 391.36 C902.33 388.07 902.38 384.77 902.42 381.48 C902.43 380.39 902.45 379.3 902.46 378.17 C902.49 375.96 902.52 373.74 902.55 371.53 C902.64 364.89 902.74 358.26 902.85 351.62 C902.92 347.42 902.98 343.21 903.03 339 C903.06 337.02 903.09 335.04 903.13 333.06 C903.19 330.32 903.22 327.58 903.25 324.84 C903.27 324.04 903.29 323.25 903.31 322.43 C903.33 319.46 903.25 316.82 902.39 313.97 C901.55 311.84 901.55 311.84 900 309 C899.34 308.34 898.68 307.68 898 307 C895.11 306.78 892.31 306.67 889.41 306.66 C888.56 306.66 887.71 306.65 886.83 306.64 C885.02 306.63 883.21 306.63 881.41 306.63 C878.64 306.63 875.88 306.59 873.12 306.55 C871.36 306.54 869.61 306.54 867.85 306.54 C866.61 306.52 866.61 306.52 865.35 306.5 C863.16 306.51 861.15 306.58 859 307 C856.47 308.74 856.47 308.74 855 311 C854.67 311.66 854.34 312.32 854 313 C853.77 316.41 853.6 319.82 853.48 323.23 C853.39 325.16 853.2 327.08 853 329 C852.34 329.66 851.68 330.32 851 331 C848.99 331.16 848.99 331.16 846.31 331.06 C839.85 330.97 833.4 331.1 826.94 331.31 C825.4 331.35 825.4 331.35 823.84 331.38 C822.87 331.42 821.9 331.45 820.9 331.49 C820.03 331.51 819.16 331.54 818.26 331.57 C817.52 331.71 816.77 331.85 816 332 C814.2 333.26 814.2 333.26 813 335 C811.86 338.42 811.85 341.1 811.81 344.71 C811.8 345.39 811.79 346.07 811.79 346.77 C811.76 349.05 811.74 351.32 811.72 353.6 C811.7 355.21 811.68 356.82 811.66 358.43 C811.63 361.86 811.59 365.29 811.55 368.72 C811.5 374.06 811.44 379.4 811.37 384.74 C811.36 385.62 811.35 386.5 811.34 387.41 C811.32 389.19 811.3 390.97 811.28 392.76 C811.25 395.43 811.21 398.1 811.18 400.77 C810.85 428.83 810.85 428.83 810.62 442.56 C810.58 444.68 810.55 446.81 810.52 448.93 C810.48 451.82 810.43 454.72 810.38 457.61 C810.37 458.45 810.36 459.28 810.35 460.14 C810.31 462.1 810.17 464.05 810 466 C809.34 466.66 808.68 467.32 808 468 C805.75 468.25 805.75 468.25 802.92 468.24 C801.87 468.25 800.81 468.25 799.72 468.25 C798.57 468.25 797.43 468.24 796.25 468.23 C795.07 468.23 793.9 468.23 792.7 468.23 C790.22 468.23 787.74 468.22 785.26 468.21 C781.45 468.19 777.64 468.19 773.83 468.19 C771.43 468.18 769.02 468.17 766.62 468.17 C765.47 468.17 764.33 468.17 763.14 468.16 C762.09 468.16 761.03 468.15 759.95 468.15 C759.01 468.14 758.08 468.14 757.12 468.13 C756.42 468.09 755.72 468.05 755 468 C754.67 467.67 754.34 467.34 754 467 C752.57 460.04 752.85 452.96 752.84 445.88 C752.84 444.45 752.83 443.02 752.83 441.59 C752.82 438.52 752.81 435.45 752.8 432.37 C752.79 427.52 752.77 422.66 752.75 417.8 C752.69 403.99 752.63 390.18 752.6 376.37 C752.58 368.74 752.55 361.1 752.51 353.46 C752.49 349.43 752.47 345.39 752.47 341.35 C752.47 337.56 752.45 333.77 752.43 329.97 C752.42 328.58 752.42 327.19 752.42 325.8 C752.43 323.9 752.41 322 752.39 320.1 C752.39 319.03 752.39 317.97 752.38 316.88 C752.13 313.92 752.13 313.92 750.7 311.16 C750.14 310.45 749.58 309.74 749 309 C746.08 308.45 743.72 308.23 740.79 308.22 C739.98 308.2 739.18 308.18 738.35 308.16 C736.65 308.13 734.94 308.1 733.24 308.09 C730.64 308.06 728.04 308 725.45 307.94 C723.79 307.9 722.13 307.87 720.48 307.85 C719.32 307.82 719.32 307.82 718.13 307.8 C714.95 307.78 712.16 307.95 709.1 308.82 C708.06 309.41 708.06 309.41 707 310 C706.34 310.99 705.68 311.98 705 313 C704.72 316.22 704.59 319.4 704.52 322.64 C704.44 324.63 704.44 324.63 704 328 C703.01 328.66 702.02 329.32 701 330 C698.32 330.24 695.73 330.37 693.05 330.41 C691.89 330.44 691.89 330.44 690.71 330.47 C688.24 330.53 685.78 330.58 683.31 330.62 C681.64 330.66 679.97 330.7 678.29 330.74 C674.2 330.84 670.1 330.92 666 331 C664.85 333.34 663.84 335.54 663 338 C662.72 340.71 662.57 343.19 662.58 345.9 C662.57 346.66 662.57 347.42 662.56 348.2 C662.53 350.71 662.53 353.22 662.52 355.73 C662.51 357.51 662.49 359.29 662.48 361.06 C662.44 364.83 662.42 368.59 662.4 372.35 C662.38 378.19 662.33 384.02 662.28 389.85 C662.26 391.78 662.25 393.72 662.23 395.65 C662.22 396.6 662.21 397.55 662.2 398.53 C662.18 401.4 662.16 404.26 662.14 407.12 C662.03 420.59 661.87 434.05 661.56 447.51 C661.52 449.33 661.48 451.15 661.45 452.97 C661.4 455.4 661.34 457.83 661.28 460.27 C661.24 462.21 661.24 462.21 661.19 464.2 C661.1 465.58 661.1 465.58 661 467 C660.67 467.33 660.34 467.66 660 468 C658.39 468.15 656.78 468.23 655.16 468.28 C654.18 468.32 653.2 468.36 652.19 468.39 C650.64 468.45 650.64 468.45 649.06 468.5 C647.03 468.57 645 468.64 642.97 468.72 C642.07 468.75 641.16 468.78 640.23 468.81 C639.49 468.87 638.76 468.94 638 469 C637.01 469.5 637.01 469.5 636 470 C635.97 471.65 635.95 473.29 635.94 474.94 C635.92 476.31 635.92 476.31 635.9 477.71 C635.95 478.85 635.95 478.85 636 480 C636.33 480.33 636.66 480.66 637 481 C645.06 482.1 653.19 482.13 661.3 482.08 C662.49 482.08 663.68 482.08 664.91 482.07 C668.2 482.07 671.49 482.06 674.78 482.04 C681.46 482.02 688.14 482.02 694.83 482.01 C695.62 482.01 696.41 482.01 697.23 482.01 C718.35 481.98 739.48 482.08 760.6 482.18 C761.58 482.19 762.56 482.19 763.58 482.2 C774.65 482.25 785.72 482.31 796.79 482.37 C806.09 482.42 815.38 482.47 824.67 482.51 C832.82 482.55 840.96 482.59 849.1 482.64 C853.89 482.66 858.69 482.69 863.48 482.71 C897.18 482.86 897.18 482.86 912.88 483.39 C913.91 483.42 914.93 483.45 915.98 483.48 C917.35 483.54 917.35 483.54 918.75 483.6 C919.53 483.63 920.31 483.66 921.12 483.69 C922.05 483.84 922.05 483.84 923 484 C923.66 484.66 924.32 485.32 925 486 C925.23 487.89 925.23 487.89 925.21 490.24 C925.21 491.13 925.21 492.03 925.2 492.94 C925.18 494.41 925.18 494.41 925.16 495.91 C925.16 496.94 925.15 497.97 925.14 499.03 C925.13 501.27 925.11 503.51 925.09 505.75 C925.05 509.29 925.03 512.83 925.02 516.38 C924.97 526.45 924.9 536.52 924.81 546.6 C924.75 552.75 924.72 558.91 924.7 565.06 C924.69 567.41 924.67 569.76 924.64 572.11 C924.6 575.4 924.59 578.68 924.58 581.96 C924.56 582.94 924.54 583.92 924.52 584.92 C924.53 585.82 924.53 586.71 924.53 587.63 C924.52 588.79 924.52 588.79 924.51 589.98 C924.75 590.98 924.75 590.98 925 592 C926.78 593.82 926.78 593.82 929 595 C932 595.5 932 595.5 935 595 C937.24 593.89 937.24 593.89 939 592 C939.6 589.55 939.6 589.55 939.51 586.72 C939.53 585.62 939.54 584.51 939.55 583.38 C939.55 582.16 939.54 580.94 939.53 579.68 C939.54 578.39 939.55 577.1 939.56 575.77 C939.59 572.16 939.59 568.55 939.58 564.95 C939.58 561.05 939.61 557.14 939.63 553.24 C939.66 546.43 939.68 539.61 939.69 532.79 C939.7 522.72 939.73 512.66 939.77 502.59 C939.84 486.9 939.89 471.21 939.92 455.52 C939.98 431.36 940.08 407.2 940.2 383.05 C940.37 345.63 940.51 308.22 940.63 270.81 C940.64 266.75 940.65 262.68 940.67 258.62 C940.67 257.61 940.67 256.61 940.68 255.57 C940.73 238.82 940.8 222.07 940.87 205.33 C940.94 187.79 941 170.25 941.05 152.71 C941.08 142.99 941.12 133.28 941.16 123.56 C941.2 115.42 941.23 107.28 941.25 99.14 C941.25 95.01 941.27 90.88 941.29 86.74 C941.32 82.97 941.33 79.2 941.33 75.42 C941.33 73.41 941.35 71.4 941.37 69.38 C941.36 68.19 941.36 67.01 941.36 65.78 C941.36 64.24 941.36 64.24 941.37 62.67 C941.19 61.35 941.19 61.35 941 60 C939.71 57.67 939.71 57.67 938 56 C936.14 55.37 936.14 55.37 934.03 55.41 C933.2 55.38 932.36 55.35 931.49 55.32 C930.54 55.31 929.59 55.3 928.62 55.28 C927.58 55.26 926.54 55.23 925.47 55.2 C922.36 55.12 919.25 55.07 916.14 55.03 C913.89 55 911.64 54.96 909.39 54.93 C897.06 54.73 884.72 54.61 872.38 54.49 C867.96 54.45 863.53 54.41 859.11 54.37 C844.69 54.23 830.28 54.1 815.86 53.97 C812.13 53.94 808.39 53.9 804.66 53.87 C735.48 53.26 666.3 52.77 597.11 52.7 C590.32 52.69 583.52 52.68 576.73 52.66 C568.53 52.64 560.33 52.63 552.13 52.63 C547.99 52.64 543.85 52.64 539.71 52.62 C535.95 52.61 532.19 52.61 528.43 52.62 C526.43 52.63 524.44 52.62 522.44 52.6 C521.26 52.61 520.08 52.62 518.86 52.63 C517.84 52.63 516.82 52.63 515.77 52.63 C512.95 52.91 512.95 52.91 510.2 54.02 C509.47 54.68 508.75 55.33 508 56 C507.38 58.85 507.08 61.13 507 64 C506.96 65.28 506.91 66.56 506.86 67.88 C506.85 69.26 506.85 70.63 506.85 72.01 C506.84 72.78 506.84 73.54 506.84 74.33 C506.82 76.88 506.82 79.43 506.81 81.98 C506.8 83.82 506.79 85.66 506.79 87.5 C506.77 91.47 506.75 95.44 506.74 99.41 C506.72 105.78 506.69 112.15 506.66 118.52 C506.61 131.01 506.56 143.51 506.51 156 C506.45 173.78 506.37 191.56 506.3 209.33 C506.29 211.52 506.28 213.72 506.27 215.91 C506.08 258.94 505.63 301.97 505 345 C503.9 345.01 503.9 345.01 502.77 345.03 C499.43 345.08 496.09 345.17 492.75 345.25 C491.59 345.26 490.43 345.28 489.24 345.29 C488.12 345.33 487.01 345.36 485.86 345.39 C484.83 345.41 483.81 345.43 482.75 345.45 C481.84 345.63 480.93 345.81 480 346 C477.81 347.95 477.81 347.95 476 350 C473.31 350.31 473.31 350.31 471 350 C470.67 349.67 470.34 349.34 470 349 C469.61 346.82 469.27 344.62 468.95 342.43 C468.74 341.04 468.54 339.66 468.33 338.27 C468.01 336.1 467.69 333.92 467.38 331.75 C465.31 317.35 462.72 302.05 456 289 C454.17 287.15 454.17 287.15 452 286 C449 285.25 447.01 284.82 444 285 C441.11 285.95 438.57 287.38 436 289 C433.26 291.17 430.82 293.56 428.38 296.06 C427.69 296.76 427 297.45 426.3 298.17 C415.79 309.08 407.1 321.58 399.45 334.63 C398 337 398 337 396 339 C393.74 339.16 393.74 339.16 390.88 339.05 C389.28 339.01 389.28 339.01 387.64 338.97 C386.48 338.94 385.32 338.91 384.12 338.88 C371.59 338.69 359.61 339.96 347.25 341.93 C346.2 342.1 345.15 342.26 344.07 342.44 C340.99 342.96 340.99 342.96 337.96 343.79 C335.23 344.47 332.82 345 330 345 C328.15 344.05 328.15 344.05 326.58 342.6 C325.62 341.45 324.7 340.27 323.81 339.06 C322.8 337.83 321.78 336.61 320.76 335.38 C320.29 334.79 319.81 334.2 319.32 333.59 C317.2 331.04 314.77 328.98 312.23 326.86 C310.42 325.35 308.65 323.81 306.89 322.23 C298.43 314.72 289.65 307.66 279.38 302.75 C277.05 301.9 277.05 301.9 274.68 301.88 C273.94 301.96 273.2 302.04 272.44 302.12 C271.32 302.22 271.32 302.22 270.18 302.32 C269.1 302.66 269.1 302.66 268 303 C265.76 304.68 265.76 304.68 264 307 C257.67 320.2 256.78 336.64 255 351 C252.61 351.15 252.61 351.15 250 351 C248.31 348.56 248.31 348.56 247 346 C246.34 345.67 245.68 345.34 245 345 C191.18 340.68 135.74 343.89 82 348 C81.21 348.06 80.42 348.12 79.61 348.18 C56.61 349.91 33.11 352.06 11 359 C8 360.26 8 360.26 6 362 C5.65 362.7 5.3 363.4 4.94 364.12 C4.63 364.74 4.32 365.36 4 366 C2.68 366.33 1.36 366.66 0 367 C0 245.89 0 124.78 0 0 Z " fill="#F9F4EA" transform="translate(0,0)"/>
<path d="M0 0 C0.99 0.33 1.98 0.66 3 1 C3.98 3.31 4.74 5.47 5.44 7.88 C5.76 8.93 5.76 8.93 6.08 10.01 C11.02 26.96 13.14 43.41 13.43 61.03 C13.56 65.55 13.71 69.23 15.34 73.49 C16.92 75.88 18.53 78.21 20.25 80.5 C27.13 90.22 31.8 100.8 35.07 112.2 C36.28 117.13 36.88 121.93 37 127 C36.47 127.23 35.93 127.46 35.38 127.7 C29.49 130.28 23.73 133.08 18 136 C17.83 139.42 17.83 139.42 18 143 C18.66 143.66 19.32 144.32 20 145 C23.54 144.57 26.91 143.48 30.31 142.44 C31.2 142.17 32.08 141.9 32.99 141.62 C33.65 141.42 34.32 141.21 35 141 C35.33 141.33 35.66 141.66 36 142 C36.13 143.6 36.18 145.21 36.19 146.81 C36.2 147.69 36.22 148.56 36.23 149.46 C36 152 36 152 35.49 154.25 C35 154.83 34.51 155.4 34 156 C31.22 156.6 28.75 156.97 25.94 157.19 C23.29 157.43 20.65 157.7 18 158 C17.67 158.33 17.34 158.66 17 159 C16.96 161 16.96 163 17 165 C18.66 166.04 18.66 166.04 21 167 C23.32 167.39 25.66 167.73 28 168 C28.33 168.99 28.66 169.98 29 171 C26.11 179.25 20.92 186.46 15.48 193.22 C13.37 195.58 11.57 197.25 8.94 198.94 C7.97 199.62 7 200.3 6 201 C5.63 202.03 5.26 203.06 4.88 204.12 C4.94 205.55 4.94 205.55 5 207 C5.33 207.62 5.66 208.24 6 208.88 C6.66 209.25 7.32 209.62 8 210 C11.5 210.42 11.5 210.42 15 210 C16.49 209.01 16.49 209.01 18 208 C20.23 208.14 20.23 208.14 23 209 C25.48 210.18 27.89 211.4 30.31 212.69 C42.29 218.81 54.48 223 67.44 226.56 C68.41 226.83 69.37 227.1 70.37 227.38 C93.29 233.47 116.79 236.78 140.22 240.21 C147.37 241.26 154.52 242.32 161.66 243.38 C162.43 243.49 163.19 243.61 163.97 243.72 C224.78 252.78 224.78 252.78 242 262 C250.46 266.87 258.99 272.14 266 279 C269.04 283.04 271.31 287.46 273.38 292.06 C274.24 296.14 274.56 299.86 274 304 C273.36 306.08 272.59 307.67 271.4 309.49 C269.78 311.24 268.22 312.29 266.12 313.44 C263.34 314.66 261.62 315.03 258.5 315.25 C257.67 315.17 256.85 315.09 256 315 C255.73 313.97 255.46 312.94 255.19 311.88 C254.16 308.34 252.85 305.2 251 302 C249.37 299.54 249.37 299.54 247 298 C243.33 297.67 243.33 297.67 240 298 C239.12 300.67 239.12 300.67 239 304 C239.83 305.86 239.83 305.86 241 307.62 C241.66 308.74 242.32 309.85 243 311 C242.94 311.78 242.88 312.57 242.81 313.38 C242 315 242 315 241 316 C238.42 316.31 236.54 316.38 234 316 C230.46 314.72 227.13 313.04 223.75 311.38 C206.98 303.46 190.28 298.94 172 296 C171.28 295.88 170.56 295.76 169.82 295.64 C161.75 294.34 153.79 293.79 145.62 293.69 C144.8 293.67 143.97 293.65 143.12 293.63 C140.54 293.6 140.54 293.6 137 294 C136.34 294.99 135.68 295.98 135 297 C134.58 299.5 134.58 299.5 135 302 C136.17 303.83 136.17 303.83 138 305 C140.94 305.9 143.77 306.21 146.82 306.43 C147.76 306.5 148.7 306.57 149.67 306.65 C150.66 306.72 151.66 306.8 152.69 306.88 C175.5 308.76 197.08 313.56 218 323 C220.81 324.3 223.62 325.6 226.41 326.96 C229.88 328.36 233.3 329.41 237 330 C239.52 329.87 242.05 329.68 244.56 329.44 C247.79 329.3 250.81 329.45 254 330 C266.07 333.92 277.78 340.61 287.79 348.39 C288.86 349.26 289.93 350.13 291 351 C291.9 351.73 291.9 351.73 292.82 352.47 C299.81 358.16 306.4 363.91 312 371 C312.8 371.97 313.61 372.94 314.44 373.93 C323.69 385.21 331.44 397.44 338.44 410.22 C339.01 411.27 339.59 412.31 340.18 413.39 C341.29 415.42 342.38 417.47 343.46 419.52 C344.22 420.92 344.22 420.92 344.99 422.34 C345.43 423.17 345.87 424 346.32 424.85 C346.87 425.56 347.43 426.27 348 427 C352.41 429.71 357.11 431 362.08 432.27 C362.85 432.47 363.63 432.68 364.42 432.89 C367.69 433.75 370.97 434.59 374.24 435.44 C407.26 444.01 407.26 444.01 419 452 C424.57 456.45 429.76 461.25 434 467 C435 470.01 435.1 472.04 435.06 475.19 C435.05 476.09 435.04 476.99 435.04 477.92 C435.02 478.95 435.02 478.95 435 480 C432.88 477.95 431.02 475.81 429.19 473.5 C427.17 471.14 425.66 469.78 423 468.06 C420.01 466.86 420.01 466.86 416.69 466.75 C415.8 466.83 414.91 466.91 414 467 C413.67 467.33 413.34 467.66 413 468 C412.81 468.87 412.63 469.73 412.44 470.62 C412.62 471.74 412.81 472.85 413 474 C414.88 475.95 416.91 477.58 419.02 479.27 C421 481 421 481 423 484.12 C424 487 424 487 424.56 489.62 C424.38 490.41 424.19 491.19 424 492 C421.31 494.38 421.31 494.38 418 496 C415.48 495.93 415.48 495.93 413 495 C411.38 492.64 411.38 492.64 410 489.69 C408.33 486.41 407.05 484.06 404.5 481.38 C401.98 479.86 401.98 479.86 398.81 479.12 C397.88 479.08 396.96 479.04 396 479 C395.34 479.66 394.68 480.32 394 481 C393.42 483.87 393.42 483.87 394 487 C395.65 488.69 397.31 490.36 399 492 C398.65 494.15 398.65 494.15 398 496 C387.43 493.84 377 491.28 366.56 488.56 C365.07 488.18 363.57 487.79 362.08 487.4 C307.33 473.26 307.33 473.26 288.43 460.45 C284.85 457.95 281.46 455.24 278.06 452.5 C267.13 443.71 255.23 436.76 242 432 C231.94 428.72 221.68 426.35 211.28 424.43 C208.07 423.81 205.23 423.1 202.21 421.81 C200 420 200 420 197.93 416.92 C197.24 415.68 196.55 414.44 195.88 413.19 C190.35 403.55 183.9 394.43 175.81 386.75 C164.72 377.56 151.96 370.82 138.49 365.86 C127.18 361.96 115.81 359.55 103.87 358.95 C100.93 358.86 100.93 358.86 98 360 C96.83 362.07 96.83 362.07 96.62 364.94 C96.75 365.95 96.87 366.96 97 368 C99.1 369.75 99.1 369.75 102 371 C104.44 371.57 106.9 372.04 109.38 372.44 C124.95 375.13 139.51 379.55 153.35 387.35 C162.64 393.14 171.05 400.84 177.9 409.37 C189.29 425.12 196.84 442.62 202.25 461.21 C203.08 464.29 203.8 467.38 204.5 470.49 C204.75 471.6 205 472.71 205.26 473.86 C205.74 476.02 206.2 478.2 206.64 480.37 C207.51 484.33 208.33 487.87 210.41 491.38 C211.86 493.34 213.37 495.18 215 497 C215.57 497.7 216.15 498.39 216.74 499.11 C225.67 508.41 237.12 515.31 248.06 522 C256.46 527.13 264.27 532.93 272 539 C272.83 539.64 273.65 540.27 274.5 540.93 C280.06 545.47 284.15 550.98 288 557 C289.73 559.93 291.12 562.7 292 566 C292.28 569.37 292.25 572.63 292 576 C291.34 575.67 290.68 575.34 290 575 C289.2 573.44 288.46 571.85 287.75 570.25 C286.5 567.68 285.33 565.4 283.52 563.19 C281.86 561.6 281.86 561.6 279 560 C276.2 560.04 276.2 560.04 274 561 C273.02 563.11 273.02 563.11 273 566 C274.42 568.83 276.23 571.38 278 574 C279.38 576.44 279.38 576.44 280 579 C280.09 582.14 279.9 584.98 279 588 C277.89 589.02 277.89 589.02 276.75 590.06 C274 591 274 591 271.31 591.31 C270.17 591.16 270.17 591.16 269 591 C268.34 590.34 267.68 589.68 267 589 C266.53 587.14 266.12 585.26 265.75 583.38 C264.98 580.14 264.2 577.37 262.65 574.43 C260.6 571.46 260.6 571.46 258 569 C255.45 568.56 255.45 568.56 253 569 C252.34 569.66 251.68 570.32 251 571 C250.5 573.83 250.5 573.83 251 577 C251.66 577.97 252.32 578.94 253 579.94 C253.66 580.95 254.32 581.96 255 583 C255.25 586.88 255.25 586.88 255 590 C250.19 589.06 246.03 587.61 241.79 585.11 C236.69 581.65 231.9 578.03 227.38 573.81 C214.14 561.53 198.53 551.85 183.28 542.3 C181.34 541.08 179.4 539.86 177.47 538.64 C175.59 537.46 173.72 536.29 171.84 535.12 C163.69 530 155.49 524.52 149.5 516.88 C148.77 515.95 148.04 515.02 147.29 514.06 C144.35 510.13 141.5 506.13 138.66 502.13 C132.29 493.16 125.98 484.84 116.96 478.31 C101.78 468.15 85.18 462.26 67.62 457.81 C56.99 455.2 46.28 453.04 35.54 450.95 C21.8 448.27 8.35 445.27 -5 441 C-5.86 440.73 -6.72 440.46 -7.61 440.19 C-19.28 436.56 -30.46 432.3 -41.53 427.14 C-44.34 425.84 -47.16 424.57 -49.98 423.3 C-52.01 422.39 -54.03 421.48 -56.06 420.56 C-57.03 420.13 -58 419.69 -59.01 419.24 C-59.9 418.83 -60.8 418.42 -61.72 418 C-62.52 417.64 -63.33 417.28 -64.15 416.9 C-66 416 -66 416 -67 415 C-66.98 413.09 -66.95 411.18 -66.88 409.27 C-66.64 400.89 -67.21 393.58 -69.69 385.52 C-72.62 377.64 -76.31 370.73 -81.76 364.28 C-87.66 357.67 -94.41 352.59 -102 348 C-102.87 347.46 -102.87 347.46 -103.75 346.9 C-121 336.28 -141.44 330.78 -160.95 325.91 C-164 325 -164 325 -167 323 C-166.75 320.88 -166.75 320.88 -166 318 C-165.32 317.01 -164.64 316.02 -163.94 315 C-163.3 314.01 -162.66 313.02 -162 312 C-161.81 311.13 -161.63 310.27 -161.44 309.38 C-161.62 308.59 -161.81 307.81 -162 307 C-164.15 304.52 -164.15 304.52 -167 303 C-169.04 303.03 -169.04 303.03 -171 304 C-174.11 307.54 -176.38 311.69 -178.38 315.94 C-179.28 320.38 -179.65 324.49 -179 329 C-177.67 332.18 -177.67 332.18 -175.95 333.71 C-168.69 338.52 -159.36 340.19 -151.05 342.44 C-134.92 346.81 -119.77 351.76 -105.94 361.36 C-99.45 366.02 -93.96 370.44 -89.25 376.94 C-85.24 382.96 -81.97 389.01 -80 396 C-79.8 399.43 -79.8 399.43 -79.88 402.88 C-79.89 404.03 -79.91 405.18 -79.93 406.37 C-79.95 407.24 -79.98 408.1 -80 409 C-81.32 409.66 -82.64 410.32 -84 411 C-84.3 410.12 -84.61 409.24 -84.92 408.33 C-87.14 401.98 -87.14 401.98 -90.23 396.02 C-91.53 394.47 -91.53 394.47 -94 393 C-97.17 392.5 -97.17 392.5 -100 393 C-100.33 393.33 -100.66 393.66 -101 394 C-101.33 396.62 -101.45 398.43 -101 401 C-99.9 403.23 -99.9 403.23 -98.5 405.44 C-97.12 407.72 -97.12 407.72 -96 410 C-95.48 412.93 -95.63 414.99 -96 418 C-96.66 418.66 -97.32 419.32 -98 420 C-100.38 420.41 -100.38 420.41 -103.12 420.62 C-104.49 420.74 -104.49 420.74 -105.88 420.85 C-106.58 420.9 -107.28 420.95 -108 421 C-110 418 -110 418 -110.71 415.29 C-110.93 414.27 -111.15 413.24 -111.38 412.19 C-112.6 407.06 -112.6 407.06 -114.81 402.31 C-115.53 401.55 -116.26 400.79 -117 400 C-120.03 398.85 -120.03 398.85 -123 399 C-123.66 399.66 -124.32 400.32 -125 401 C-124.72 404.3 -124.72 404.3 -124 408 C-123.67 410.33 -123.33 412.67 -123 415 C-125.7 414.58 -127.93 414.03 -130.41 412.86 C-131.24 412.4 -132.06 411.93 -132.91 411.45 C-133.84 410.94 -134.77 410.42 -135.72 409.89 C-136.68 409.35 -137.64 408.81 -138.62 408.25 C-151.8 400.84 -164.58 394.77 -179.5 392 C-180.84 391.74 -180.84 391.74 -182.21 391.48 C-189.38 390.17 -196.56 389.34 -203.81 388.56 C-214.99 387.33 -224.84 385.19 -235.17 380.59 C-239.41 378.44 -243.27 376.05 -246.81 372.88 C-251.05 368.28 -253.59 362.72 -256 357 C-257.89 352.24 -258.19 347.6 -258.38 342.5 C-258.18 333.28 -256.21 324.92 -253.01 316.34 C-245.43 297.02 -235.19 280.19 -222.46 263.88 C-221.05 262.07 -219.65 260.24 -218.25 258.42 C-205.1 241.33 -190.36 226.09 -175 211 C-171.74 212.59 -168.82 214.42 -165.81 216.44 C-161.68 219.07 -157.79 221.26 -153.08 222.64 C-150.94 223.01 -149.16 223.04 -147 222.81 C-145.51 222.41 -145.51 222.41 -144 222 C-143.67 221.34 -143.34 220.68 -143 220 C-142.96 217.67 -142.96 215.33 -143 213 C-144.56 212.27 -144.56 212.27 -146.15 211.53 C-154.51 207.55 -162.33 203.57 -169 197 C-171.82 193.77 -174.46 190.46 -177 187 C-176.34 186.01 -175.68 185.02 -175 184 C-173.18 183.43 -173.18 183.43 -171.01 183.16 C-170.22 183.04 -169.43 182.93 -168.62 182.82 C-167.8 182.71 -166.97 182.61 -166.12 182.5 C-161.53 181.92 -161.53 181.92 -157 181 C-154.5 179.58 -154.5 179.58 -153 178 C-153.64 175.99 -154.31 173.99 -155 172 C-155.33 171.67 -155.66 171.34 -156 171 C-165.37 171.2 -174.73 172.68 -184 174 C-184.69 172.7 -185.35 171.38 -186 170.06 C-186.37 169.33 -186.74 168.6 -187.12 167.85 C-188.34 163.88 -188.16 160.12 -188 156 C-187.25 156.01 -186.51 156.02 -185.74 156.03 C-182.37 156.07 -179 156.1 -175.62 156.12 C-173.86 156.15 -173.86 156.15 -172.06 156.18 C-170.94 156.18 -169.82 156.19 -168.66 156.2 C-167.63 156.21 -166.59 156.22 -165.52 156.23 C-164.27 156.11 -164.27 156.11 -163 156 C-162.34 155.34 -161.68 154.68 -161 154 C-160.58 151.5 -160.58 151.5 -161 149 C-162.49 148.01 -162.49 148.01 -164 147 C-166.36 146.47 -166.36 146.47 -169 146.18 C-170.45 146 -170.45 146 -171.94 145.81 C-172.95 145.68 -173.96 145.56 -175 145.44 C-177 145.19 -179 144.94 -181 144.68 C-181.89 144.58 -182.77 144.47 -183.69 144.36 C-186 144 -186 144 -189 143 C-190.12 136.61 -189.97 131.03 -188.88 124.69 C-187.47 117.1 -185.31 109.99 -182 103 C-181.51 102.23 -181.02 101.46 -180.52 100.66 C-178.77 97.82 -177.28 95.09 -176 92 C-175.23 87.32 -175.26 82.73 -175.31 78 C-175.29 75.27 -175.25 72.54 -175.2 69.8 C-175.19 69.1 -175.18 68.39 -175.17 67.66 C-175.03 59.89 -174.47 52.17 -173.82 44.43 C-173.69 42.91 -173.57 41.39 -173.45 39.87 C-172.42 26.64 -172.42 26.64 -170.65 20.55 C-170.1 19.38 -169.56 18.21 -169 17 C-168.07 16.57 -168.07 16.57 -167.12 16.14 C-166.07 16.07 -166.07 16.07 -165 16 C-163.24 16.85 -163.24 16.85 -161.46 18.21 C-160.8 18.71 -160.13 19.22 -159.45 19.74 C-158.76 20.28 -158.08 20.82 -157.38 21.38 C-156.71 21.88 -156.05 22.38 -155.37 22.89 C-147.62 28.86 -140.45 35.38 -133.75 42.51 C-132.87 43.43 -132 44.35 -131.1 45.3 C-129.3 47.21 -127.53 49.13 -125.77 51.06 C-123.28 53.65 -120.95 55.95 -118 58 C-115.61 58.57 -115.61 58.57 -113.26 58.23 C-111.06 57.72 -111.06 57.72 -109 57 C-107.89 56.71 -106.79 56.43 -105.65 56.13 C-104.57 55.8 -103.49 55.47 -102.38 55.12 C-87.89 50.99 -72.05 49.1 -57 50 C-53.21 50.35 -49.43 50.79 -45.66 51.35 C-43.24 51.57 -41.36 51.58 -39 51 C-37.07 49.47 -35.98 47.87 -34.64 45.79 C-34.1 44.87 -33.56 43.95 -33 43 C-31.43 40.43 -29.84 37.87 -28.25 35.31 C-27.82 34.62 -27.4 33.93 -26.96 33.21 C-19.37 21.03 -10.2 10.09 0 0 Z " fill="#F5EAD1" transform="translate(443,302)"/>
<path d="M0 0 C0.97 0.02 1.94 0.04 2.94 0.07 C5.23 0.16 7.43 0.29 9.69 0.69 C10.53 1.13 11.37 1.58 12.23 2.04 C12.71 2.59 13.19 3.13 13.69 3.69 C14.02 4.68 14.35 5.67 14.69 6.69 C16.34 7.02 17.99 7.35 19.69 7.69 C19.57 11.6 19.44 15.51 19.32 19.42 C19.25 21.39 19.19 23.36 19.13 25.32 C18.93 31.33 18.7 37.34 18.29 43.34 C18.23 44.26 18.17 45.18 18.11 46.13 C17.5 49.83 15.89 52.69 14.09 55.93 C9.87 64.21 7.36 73.53 6.02 82.69 C5.53 87.14 5.25 91.6 5.03 96.07 C4.92 96.93 4.8 97.8 4.69 98.69 C4.03 99.35 3.37 100.01 2.69 100.69 C-0.13 100.97 -0.13 100.97 -3.72 101.03 C-5.02 101.06 -6.32 101.09 -7.66 101.12 C-9.05 101.14 -10.43 101.17 -11.81 101.19 C-20.5 101.32 -28.85 101.53 -37.31 103.69 C-38.08 107.04 -38.08 107.04 -38.31 110.69 C-37.14 112.49 -37.14 112.49 -35.31 113.69 C-32.39 113.87 -29.69 113.87 -26.78 113.73 C-25.53 113.68 -25.53 113.68 -24.25 113.64 C-21.58 113.54 -18.92 113.43 -16.25 113.31 C-13.58 113.21 -10.91 113.1 -8.24 113.01 C-6.58 112.95 -4.92 112.88 -3.26 112.8 C-1.28 112.73 0.71 112.7 2.69 112.69 C3.35 113.02 4.01 113.35 4.69 113.69 C5.95 117.03 6.71 120.53 7.56 124 C7.96 125.45 7.96 125.45 8.36 126.92 C8.59 127.85 8.82 128.78 9.05 129.74 C9.27 130.59 9.49 131.44 9.71 132.32 C9.71 133.1 9.7 133.88 9.69 134.69 C8.13 136.82 8.13 136.82 5.69 138.69 C2.68 140.15 2.68 140.15 -0.8 141.48 C-1.42 141.72 -2.04 141.96 -2.68 142.21 C-3.99 142.71 -5.31 143.2 -6.62 143.69 C-8.61 144.43 -10.6 145.2 -12.58 145.97 C-13.86 146.46 -15.14 146.94 -16.43 147.42 C-17.58 147.86 -18.73 148.29 -19.92 148.74 C-23.59 149.76 -26.52 149.92 -30.31 149.69 C-32.98 149.26 -32.98 149.26 -35.51 148.66 C-36.46 148.45 -37.41 148.23 -38.39 148.01 C-39.4 147.78 -40.4 147.55 -41.44 147.31 C-52.71 144.85 -63.81 143.45 -75.31 142.69 C-76.09 142.63 -76.86 142.57 -77.66 142.52 C-114.29 139.89 -152.82 141.4 -188.88 148.62 C-189.62 148.77 -190.36 148.92 -191.13 149.07 C-195.48 150.01 -199.48 151.45 -203.57 153.2 C-204.14 153.69 -204.72 154.18 -205.31 154.69 C-206.62 157.12 -207.55 159.08 -208.31 161.69 C-209.43 172.29 -207.81 182.62 -205.69 193 C-205.38 194.55 -205.08 196.09 -204.78 197.64 C-203.65 203.33 -202.48 209.01 -201.31 214.69 C-201.07 215.87 -200.82 217.06 -200.57 218.28 C-197.23 234.45 -193.85 250.61 -190.44 266.77 C-188.3 276.97 -186.17 287.17 -184.07 297.37 C-183.81 298.59 -183.56 299.82 -183.3 301.07 C-182.35 305.7 -181.39 310.33 -180.44 314.96 C-179.8 318.07 -179.16 321.17 -178.52 324.28 C-178.23 325.69 -178.23 325.69 -177.93 327.13 C-176.72 332.9 -175.39 338.61 -173.8 344.29 C-173.22 347.15 -173.17 349.78 -173.31 352.69 C-173.64 353.02 -173.97 353.35 -174.31 353.69 C-176.81 353.97 -179.28 354.19 -181.79 354.37 C-183.34 354.5 -184.9 354.62 -186.45 354.74 C-188.9 354.93 -191.36 355.12 -193.81 355.31 C-196.18 355.49 -198.54 355.68 -200.91 355.87 C-201.63 355.92 -202.35 355.98 -203.1 356.03 C-208.02 356.43 -212.58 357.25 -217.31 358.69 C-217.64 359.35 -217.97 360.01 -218.31 360.69 C-218.56 363.69 -218.56 363.69 -218.31 366.69 C-217.65 367.35 -216.99 368.01 -216.31 368.69 C-210.92 369.87 -206.18 369.56 -200.78 368.88 C-199.99 368.78 -199.19 368.69 -198.37 368.59 C-195.85 368.3 -193.33 368 -190.81 367.69 C-187.49 367.28 -184.17 366.89 -180.84 366.5 C-180.09 366.4 -179.34 366.31 -178.57 366.21 C-173.95 365.67 -169.92 365.79 -165.31 366.69 C-164.32 367.02 -163.33 367.35 -162.31 367.69 C-148.42 368.74 -134.45 367.25 -120.67 365.61 C-118.77 365.39 -116.86 365.17 -114.96 364.95 C-109.99 364.39 -105.03 363.81 -100.07 363.23 C-95.09 362.64 -90.1 362.08 -85.12 361.51 C-81.24 361.06 -77.36 360.61 -73.48 360.17 C-72.54 360.06 -71.6 359.95 -70.63 359.84 C-61.86 358.83 -53.09 357.81 -44.34 356.62 C-43.19 356.47 -42.05 356.32 -40.87 356.16 C-38.88 355.89 -36.89 355.61 -34.91 355.31 C-29.16 354.54 -24.27 354.96 -18.6 356.16 C-15.88 356.81 -13.18 357.47 -10.49 358.22 C-3.35 360.04 3.88 360.87 11.19 361.75 C26.4 363.67 39.69 366.6 53.46 373.46 C60.07 376.87 66.36 380.8 72.69 384.69 C79.79 388.97 87.61 391.04 95.69 392.69 C101.66 393.4 107.03 392.76 112.88 391.44 C117.23 390.27 120.96 388.76 124.77 386.36 C125.41 386.14 126.04 385.92 126.69 385.69 C132.76 385.97 138.38 388.79 143.94 391.06 C145.59 391.73 145.59 391.73 147.27 392.41 C152.91 394.69 158.52 397.03 164.09 399.48 C189.44 410.59 215.12 417.53 242.08 423.41 C243.01 423.62 243.94 423.82 244.89 424.03 C246.65 424.41 248.4 424.79 250.15 425.17 C254.17 426.04 257.92 426.99 261.69 428.69 C261.69 429.35 261.69 430.01 261.69 430.69 C258.56 431.57 255.58 431.93 252.35 432.16 C251.26 432.24 250.18 432.32 249.06 432.4 C247.87 432.49 246.68 432.57 245.46 432.66 C243.57 432.79 243.57 432.79 241.65 432.93 C238.18 433.18 234.72 433.43 231.26 433.68 C227.56 433.94 223.87 434.21 220.18 434.47 C213.92 434.92 207.66 435.37 201.4 435.82 C195.11 436.26 188.82 436.71 182.53 437.17 C149.32 439.56 116.1 441.89 82.87 444 C56.19 445.7 29.51 447.57 2.84 449.5 C-3.11 449.92 -9.06 450.35 -15.01 450.78 C-25.27 451.51 -35.53 452.25 -45.78 453 C-52.03 453.45 -58.28 453.9 -64.53 454.33 C-68.3 454.59 -72.07 454.85 -75.85 455.12 C-77.58 455.25 -79.31 455.36 -81.05 455.48 C-83.4 455.64 -85.74 455.8 -88.09 455.97 C-89.4 456.06 -90.71 456.15 -92.05 456.25 C-95.22 456.56 -95.22 456.56 -97.71 457.55 C-98.24 457.93 -98.77 458.3 -99.31 458.69 C-100.4 461.55 -100.4 461.55 -100.31 464.69 C-99.21 466.95 -99.21 466.95 -97.31 468.69 C-95 469.22 -95 469.22 -92.32 469.01 C-91.24 468.97 -90.17 468.94 -89.06 468.9 C-87.82 468.83 -86.59 468.76 -85.31 468.69 C-84.63 468.65 -83.96 468.62 -83.26 468.58 C-77.56 468.28 -71.87 467.9 -66.18 467.52 C-64.31 467.39 -62.44 467.27 -60.57 467.14 C-55.61 466.82 -50.65 466.48 -45.69 466.15 C-42.61 465.94 -39.53 465.73 -36.45 465.52 C-12.73 463.93 10.97 462.28 34.66 460.26 C50.81 458.88 66.96 457.8 83.14 456.83 C99.77 455.83 116.38 454.68 132.99 453.49 C146.33 452.54 159.67 451.61 173.02 450.79 C176.68 450.56 180.33 450.33 183.99 450.11 C186.45 449.95 188.91 449.8 191.37 449.65 C207.07 448.67 222.74 447.45 238.4 446 C241.19 445.74 243.98 445.48 246.77 445.23 C255.01 444.47 263.24 443.71 271.47 442.88 C274.89 442.54 278.3 442.23 281.72 441.92 C283.31 441.77 284.9 441.61 286.49 441.44 C298.53 440.17 298.53 440.17 303.77 441.43 C306.21 442.37 308.42 443.39 310.69 444.69 C311.47 445.13 312.26 445.58 313.06 446.04 C319.47 449.88 324.89 454.99 329.69 460.69 C333.99 466.2 338.05 471.88 342.14 477.55 C347.89 485.5 353.83 492.72 361.69 498.69 C366.16 501.64 370.76 504.36 375.37 507.1 C385.66 513.22 385.66 513.22 389.69 516.69 C389.69 517.35 389.69 518.01 389.69 518.69 C387.69 519.69 387.69 519.69 383.91 520.17 C382.22 520.34 380.54 520.51 378.85 520.67 C377.93 520.76 377 520.86 376.04 520.95 C372.91 521.27 369.78 521.57 366.65 521.88 C365.55 521.99 364.46 522.1 363.33 522.21 C335.17 524.99 306.99 527.52 278.81 530.04 C273.68 530.5 268.55 530.96 263.42 531.42 C262.68 531.49 261.94 531.56 261.18 531.63 C259.69 531.76 258.2 531.89 256.7 532.03 C240.54 533.48 224.38 534.93 208.22 536.37 C204.97 536.66 201.71 536.95 198.46 537.24 C165.11 540.23 131.75 543.13 98.37 545.89 C97.1 545.99 95.83 546.1 94.53 546.21 C93.88 546.26 93.23 546.31 92.56 546.37 C72.98 547.99 53.41 549.64 33.84 551.29 C25.6 551.98 17.35 552.68 9.11 553.37 C4.52 553.76 -0.07 554.14 -4.66 554.53 C-6.34 554.67 -6.34 554.67 -8.06 554.81 C-21.32 555.93 -34.59 557.05 -47.86 558.19 C-52.72 558.6 -57.58 559.02 -62.44 559.43 C-64.9 559.64 -67.35 559.85 -69.81 560.07 C-96.61 562.4 -96.61 562.4 -103.31 561.69 C-106.09 560.83 -106.09 560.83 -108.31 559.69 C-109.18 557.11 -109.18 557.11 -109.31 553.69 C-109.13 551.61 -108.94 549.54 -108.69 547.47 C-107.28 536.06 -107.06 524.64 -107.01 513.16 C-107 511.33 -106.99 509.5 -106.97 507.67 C-106.89 498.43 -107.07 489.41 -108.65 480.28 C-108.77 479.6 -108.89 478.92 -109.01 478.22 C-109.84 473.97 -111.21 470.34 -113.19 466.5 C-116.1 461.79 -119.03 457.62 -123.29 454.02 C-134.36 445.64 -147.83 441.31 -160.94 437.23 C-163.86 436.33 -166.77 435.45 -169.69 434.56 C-171.63 433.96 -173.57 433.36 -175.52 432.76 C-180.21 431.31 -184.92 429.89 -189.63 428.49 C-191.4 427.96 -193.17 427.43 -194.94 426.89 C-197.39 426.14 -199.84 425.42 -202.29 424.7 C-203 424.47 -203.71 424.25 -204.45 424.03 C-207.89 423.04 -210.6 422.71 -214.19 422.94 C-215.22 423.18 -216.25 423.43 -217.31 423.69 C-217.97 424.35 -218.63 425.01 -219.31 425.69 C-218.99 429.28 -218.99 429.28 -218.31 432.69 C-206.86 436.61 -195.37 440.39 -183.79 443.94 C-182.87 444.22 -181.95 444.5 -181 444.79 C-176.37 446.21 -171.73 447.63 -167.09 449.03 C-142.23 456.59 -142.23 456.59 -132.5 463.8 C-129.11 466.72 -126.55 469.82 -124.31 473.69 C-122.27 477.88 -121.17 481.89 -120.53 486.51 C-120.09 490.96 -120.15 495.42 -120.14 499.89 C-120.14 501.49 -120.14 501.49 -120.13 503.13 C-120.13 505.4 -120.13 507.66 -120.13 509.92 C-120.13 513.35 -120.11 516.77 -120.09 520.2 C-120.08 522.41 -120.08 524.62 -120.08 526.82 C-120.07 527.83 -120.07 528.84 -120.06 529.88 C-120.09 538.18 -120.8 546.38 -123.56 554.25 C-125.31 556.69 -125.31 556.69 -127.88 558.56 C-131.65 559.8 -134.57 559.98 -138.51 559.92 C-143.46 559.51 -147.99 557.99 -152.69 556.44 C-153.78 556.09 -154.86 555.74 -155.98 555.39 C-159.77 554.17 -163.54 552.93 -167.31 551.69 C-168.06 551.44 -168.81 551.2 -169.57 550.94 C-179.64 547.62 -189.69 544.27 -199.74 540.89 C-200.92 540.49 -202.1 540.1 -203.31 539.69 C-204.4 539.31 -205.49 538.94 -206.62 538.55 C-209.27 537.6 -209.27 537.6 -212 537.38 C-213.14 537.53 -213.14 537.53 -214.31 537.69 C-214.91 538.06 -215.51 538.43 -216.12 538.81 C-216.71 539.74 -216.71 539.74 -217.31 540.69 C-217.65 543.73 -217.65 543.73 -217.31 546.69 C-216.98 547.35 -216.65 548.01 -216.31 548.69 C-218.37 548.8 -220.44 548.87 -222.5 548.94 C-223.65 548.98 -224.8 549.03 -225.98 549.08 C-227.08 548.95 -228.18 548.82 -229.31 548.69 C-232.18 546.8 -232.18 546.8 -234.31 544.69 C-234.64 544.03 -234.97 543.37 -235.31 542.69 C-235.41 539.9 -235.44 537.13 -235.44 534.34 C-235.44 533.46 -235.44 532.58 -235.44 531.67 C-235.44 528.7 -235.44 525.72 -235.43 522.74 C-235.43 520.6 -235.43 518.46 -235.44 516.32 C-235.44 510.4 -235.43 504.49 -235.43 498.58 C-235.42 492.21 -235.43 485.84 -235.43 479.48 C-235.43 468.44 -235.42 457.4 -235.42 446.36 C-235.41 434.78 -235.41 423.2 -235.41 411.62 C-235.41 410.9 -235.41 410.18 -235.41 409.44 C-235.41 405.78 -235.41 402.13 -235.41 398.48 C-235.4 372.58 -235.4 346.69 -235.39 320.8 C-235.38 295.64 -235.37 270.48 -235.37 245.32 C-235.37 244.54 -235.37 243.77 -235.37 242.97 C-235.37 235.19 -235.36 227.4 -235.36 219.62 C-235.36 203.76 -235.36 187.9 -235.35 172.04 C-235.35 171.31 -235.35 170.58 -235.35 169.83 C-235.35 121.12 -235.33 72.4 -235.31 23.69 C-234.35 23.51 -234.35 23.51 -233.37 23.34 C-232.69 23.12 -232.01 22.91 -231.31 22.69 C-231 21.9 -230.69 21.12 -230.38 20.31 C-230.02 19.45 -229.67 18.58 -229.31 17.69 C-226.66 15.77 -224.25 14.67 -221.13 13.66 C-216.87 12.61 -212.6 11.62 -208.31 10.69 C-207.57 10.52 -206.83 10.35 -206.06 10.18 C-184.19 5.42 -161.58 4.39 -139.31 2.69 C-138.54 2.63 -137.76 2.57 -136.96 2.5 C-91.54 -1.03 -45.52 -1.4 0 0 Z " fill="#EC5742" transform="translate(235.3125,343.3125)"/>
<path d="M0 0 C1.07 -0.01 1.07 -0.01 2.16 -0.01 C3.94 -0.01 5.72 0.05 7.5 0.12 C7.83 0.46 8.16 0.78 8.5 1.12 C8.6 2.83 8.64 4.53 8.65 6.24 C8.65 7.88 8.65 7.88 8.66 9.55 C8.67 11.33 8.67 11.33 8.67 13.15 C8.67 14.36 8.67 15.57 8.68 16.82 C8.68 19.39 8.69 21.96 8.69 24.53 C8.69 28.48 8.71 32.42 8.72 36.36 C8.73 38.85 8.73 41.34 8.73 43.84 C8.74 45.02 8.74 46.2 8.75 47.43 C8.75 48.52 8.75 49.62 8.74 50.75 C8.74 51.72 8.75 52.69 8.75 53.68 C8.67 54.49 8.58 55.29 8.5 56.12 C7.84 57.12 7.18 58.11 6.5 59.12 C3.66 59.66 1 60 -1.87 60.24 C-2.75 60.32 -3.63 60.41 -4.54 60.49 C-7.53 60.77 -10.52 61.03 -13.52 61.3 C-15.67 61.5 -17.83 61.7 -19.99 61.9 C-24.71 62.34 -29.44 62.77 -34.17 63.19 C-41.91 63.89 -49.66 64.6 -57.41 65.32 C-60.13 65.57 -62.86 65.82 -65.58 66.08 C-66.61 66.17 -66.61 66.17 -67.66 66.27 C-72.65 66.73 -77.65 67.19 -82.64 67.65 C-102.93 69.51 -123.21 71.42 -143.48 73.36 C-147.38 73.74 -151.28 74.11 -155.17 74.48 C-155.95 74.56 -156.74 74.63 -157.54 74.71 C-159.92 74.94 -162.3 75.17 -164.68 75.4 C-165.47 75.47 -166.26 75.55 -167.08 75.62 C-259.59 84.49 -352.15 92.91 -571.83 112.56 C-579.73 113.26 -587.64 113.96 -595.54 114.65 C-597.21 114.8 -598.88 114.95 -600.55 115.09 C-621.44 116.94 -642.32 118.84 -663.19 120.88 C-677.22 122.24 -691.24 123.6 -705.29 124.79 C-706.87 124.93 -708.45 125.07 -710.03 125.21 C-712.14 125.39 -714.25 125.57 -716.36 125.74 C-717.53 125.84 -718.7 125.94 -719.91 126.04 C-720.76 126.07 -721.62 126.1 -722.5 126.12 C-722.83 125.79 -723.16 125.47 -723.5 125.12 C-723.6 123.17 -723.64 121.22 -723.65 119.26 C-723.65 118.01 -723.66 116.75 -723.66 115.46 C-723.67 114.08 -723.67 112.7 -723.67 111.32 C-723.67 109.91 -723.67 108.5 -723.68 107.1 C-723.68 104.15 -723.69 101.19 -723.69 98.24 C-723.69 94.46 -723.7 90.67 -723.72 86.88 C-723.73 83.97 -723.73 81.07 -723.73 78.16 C-723.73 76.77 -723.73 75.37 -723.74 73.97 C-723.75 72.02 -723.75 70.07 -723.74 68.12 C-723.74 67.01 -723.75 65.9 -723.75 64.75 C-723.67 63.88 -723.58 63.02 -723.5 62.12 C-722.84 61.47 -722.18 60.8 -721.5 60.12 C-719.12 59.94 -719.12 59.94 -716.07 60.03 C-714.34 60.06 -714.34 60.06 -712.58 60.09 C-711.31 60.12 -710.04 60.15 -708.73 60.18 C-691.18 60.4 -673.84 59 -656.37 57.5 C-651.9 57.11 -647.43 56.74 -642.96 56.37 C-635.42 55.75 -627.88 55.11 -620.34 54.47 C-609.97 53.59 -599.6 52.72 -589.23 51.86 C-551.37 48.71 -513.53 45.47 -475.69 42.08 C-459.93 40.67 -444.16 39.35 -428.39 38.1 C-381.43 34.39 -334.55 29.83 -287.66 25.42 C-284.6 25.13 -281.54 24.85 -278.47 24.56 C-266.32 23.42 -254.16 22.27 -242 21.12 C-241.24 21.05 -240.49 20.98 -239.71 20.91 C-236.1 20.57 -232.49 20.23 -228.88 19.88 C-226.25 19.63 -223.62 19.39 -220.99 19.14 C-215.44 18.63 -209.9 18.07 -204.37 17.36 C-203.44 17.24 -202.52 17.13 -201.57 17.01 C-199.92 16.81 -198.27 16.58 -196.62 16.33 C-194.45 16.07 -194.45 16.07 -190.5 16.12 C-187.19 17.42 -184.48 19.38 -181.66 21.52 C-181.2 21.94 -180.75 22.36 -180.28 22.79 C-179.75 23.27 -179.22 23.74 -178.67 24.24 C-178.12 24.74 -177.57 25.24 -177 25.75 C-167.31 34.26 -157.15 41.54 -145.09 46.29 C-137.75 48.67 -130.32 48.59 -122.67 48.46 C-118.06 48.26 -114.2 47.52 -109.81 46.06 C-104.89 43.99 -100.49 41.62 -96.41 38.16 C-93.05 34.58 -90.65 30.52 -88.5 26.12 C-86.98 21.58 -87.05 16.94 -86.78 12.18 C-86.69 11.17 -86.6 10.16 -86.5 9.12 C-86.17 8.79 -85.84 8.47 -85.5 8.12 C-83.44 7.83 -81.36 7.59 -79.29 7.38 C-78.31 7.28 -78.31 7.28 -77.32 7.18 C-75.16 6.96 -73 6.75 -70.84 6.53 C-69.34 6.38 -67.84 6.23 -66.34 6.07 C-62.37 5.67 -58.4 5.27 -54.43 4.87 C-50.43 4.47 -46.42 4.06 -42.41 3.65 C-37.9 3.19 -33.38 2.73 -28.86 2.28 C-20.57 1.45 -20.57 1.45 -12.29 0.53 C-8.17 0.09 -4.14 -0.02 0 0 Z " fill="#EC5742" transform="translate(835.5,857.875)"/>
<path d="M0 0 C3.71 0 7.43 0 11.14 -0 C68.12 0 125.09 0.55 182.06 1.09 C185.6 1.13 189.13 1.16 192.67 1.19 C206.31 1.32 219.95 1.45 233.58 1.59 C237.77 1.63 241.96 1.67 246.15 1.71 C258.35 1.83 270.55 1.97 282.75 2.15 C285.56 2.19 288.36 2.23 291.16 2.26 C295.77 2.32 300.37 2.4 304.97 2.49 C306.69 2.52 308.4 2.54 310.12 2.57 C312.47 2.6 314.81 2.64 317.16 2.7 C317.85 2.7 318.53 2.71 319.24 2.71 C321.17 2.76 321.17 2.76 324.48 3.19 C325.28 3.55 326.08 3.91 326.91 4.28 C327.43 4.91 327.95 5.54 328.48 6.19 C328.98 9.3 328.98 9.3 328.97 13.23 C328.98 14.31 328.98 14.31 328.98 15.41 C328.99 17.83 328.97 20.26 328.95 22.68 C328.95 24.41 328.95 26.15 328.96 27.88 C328.96 32.6 328.94 37.32 328.92 42.04 C328.9 46.98 328.9 51.93 328.9 56.87 C328.89 65.18 328.87 73.49 328.84 81.81 C328.8 92.45 328.78 103.09 328.77 113.73 C328.76 122.9 328.75 132.07 328.73 141.24 C328.72 143.2 328.72 145.16 328.71 147.13 C328.7 152.73 328.69 158.34 328.67 163.95 C328.66 165.64 328.66 167.33 328.65 169.03 C328.62 190.06 328.62 190.06 327.48 196.19 C326.82 196.85 326.16 197.51 325.48 198.19 C322.22 198.38 322.22 198.38 318.36 198.31 C317.08 198.3 315.79 198.28 314.47 198.26 C313.49 198.24 312.5 198.21 311.48 198.19 C306.78 186.64 302.26 175.02 297.83 163.36 C293.57 152.14 289.24 140.97 284.5 129.93 C281.93 123.95 279.5 117.91 277.04 111.88 C276.58 110.74 276.11 109.59 275.63 108.42 C273.36 102.85 271.12 97.28 268.92 91.68 C268.52 90.66 268.12 89.65 267.7 88.61 C266.95 86.71 266.21 84.81 265.47 82.9 C265.14 82.06 264.8 81.21 264.45 80.34 C264.17 79.61 263.88 78.88 263.59 78.12 C262.54 76.07 262.54 76.07 260.61 74.42 C259.91 74.02 259.21 73.61 258.48 73.19 C255.41 72.89 252.49 73.54 249.48 74.19 C246 75.18 242.62 76.37 239.23 77.63 C238.36 77.94 237.49 78.25 236.59 78.57 C233.22 79.79 229.87 81.03 226.56 82.41 C225.87 82.67 225.19 82.92 224.48 83.19 C223.49 83.19 222.5 83.19 221.48 83.19 C219.95 75.91 219.16 68.79 218.83 61.35 C218.57 58.22 218.57 58.22 217.7 55.4 C217.3 54.67 216.9 53.94 216.48 53.19 C214.84 51.92 214.84 51.92 212.48 51.19 C209.93 51.05 207.52 51.02 204.98 51.11 C204.26 51.12 203.54 51.14 202.8 51.16 C201.28 51.2 199.76 51.25 198.25 51.3 C195.92 51.38 193.6 51.42 191.28 51.47 C189.8 51.52 188.33 51.56 186.85 51.61 C186.16 51.62 185.46 51.63 184.75 51.65 C182.56 51.7 182.56 51.7 179.48 52.19 C177.74 53.41 177.74 53.41 176.48 55.19 C174.09 64.04 175.14 74.8 174.94 83.94 C174.92 84.85 174.9 85.76 174.88 86.7 C174.55 101.2 174.37 115.71 174.27 130.22 C174.26 132.12 174.24 134.03 174.23 135.94 C174.17 143.66 174.11 151.38 174.08 159.1 C174.06 163.93 174.02 168.77 173.98 173.6 C173.97 175.41 173.96 177.23 173.95 179.04 C173.95 181.54 173.93 184.03 173.9 186.53 C173.9 187.63 173.9 187.63 173.91 188.76 C173.87 190.81 173.87 190.81 173.48 194.19 C173.1 194.83 172.71 195.48 172.32 196.14 C171.71 196.49 171.11 196.83 170.48 197.19 C167.86 197.56 167.86 197.56 164.66 197.56 C163.47 197.57 162.28 197.57 161.04 197.58 C159.75 197.57 158.46 197.56 157.13 197.55 C155.8 197.55 154.46 197.55 153.13 197.55 C150.33 197.55 147.53 197.54 144.73 197.52 C141.14 197.5 137.55 197.5 133.96 197.51 C131.2 197.51 128.44 197.51 125.69 197.5 C123.72 197.49 121.75 197.49 119.78 197.49 C118.59 197.48 117.4 197.47 116.17 197.46 C115.12 197.46 114.06 197.45 112.98 197.45 C112.16 197.36 111.33 197.28 110.48 197.19 C109.82 196.53 109.16 195.87 108.48 195.19 C108.3 192.69 108.24 190.29 108.27 187.79 C108.27 187.02 108.27 186.25 108.27 185.46 C108.28 182.89 108.3 180.31 108.32 177.74 C108.33 175.92 108.33 174.09 108.34 172.27 C108.35 168.38 108.37 164.48 108.39 160.59 C108.44 151.45 108.45 142.31 108.46 133.17 C108.46 131.12 108.47 129.07 108.47 127.03 C108.5 109.14 108.46 91.26 108.22 73.38 C108.18 70.67 108.16 67.97 108.13 65.26 C108.1 61.55 108.05 57.84 107.99 54.13 C107.99 53.05 107.98 51.97 107.97 50.86 C107.95 49.88 107.93 48.91 107.91 47.9 C107.9 47.06 107.89 46.21 107.88 45.34 C107.75 44.63 107.62 43.92 107.48 43.19 C106.16 41.42 106.16 41.42 104.48 40.19 C103.82 39.86 103.16 39.53 102.48 39.19 C99.78 39.08 97.11 39.02 94.4 39.02 C93.6 39.02 92.79 39.01 91.97 39.01 C90.26 39.01 88.56 39 86.85 39 C84.26 39 81.66 38.98 79.06 38.96 C77.41 38.96 75.75 38.96 74.09 38.96 C73.32 38.95 72.55 38.94 71.75 38.94 C68.26 38.95 65.41 39.21 62.01 40.08 C61.17 40.44 60.34 40.81 59.48 41.19 C59.15 41.85 58.82 42.51 58.48 43.19 C58.36 44.72 58.3 46.25 58.28 47.78 C58.26 48.75 58.24 49.72 58.22 50.72 C58.2 51.8 58.18 52.87 58.17 53.98 C58.13 55.68 58.13 55.68 58.1 57.41 C58.04 61.21 57.98 65.01 57.92 68.81 C57.9 70.12 57.88 71.43 57.85 72.77 C57.58 89.35 57.45 105.92 57.45 122.49 C57.45 123.3 57.45 124.1 57.46 124.92 C57.46 132.82 57.48 140.71 57.51 148.61 C57.62 175.36 57.62 175.36 57.04 187.22 C57 188.04 56.97 188.85 56.93 189.7 C56.82 191.53 56.66 193.36 56.48 195.19 C56.15 195.52 55.82 195.85 55.48 196.19 C53.3 196.39 53.3 196.39 50.61 196.44 C49.28 196.48 49.28 196.48 47.93 196.52 C46.72 196.35 46.72 196.35 45.48 196.19 C43.85 194.94 43.85 194.94 42.48 193.19 C42.12 191.17 42.12 191.17 42.13 188.81 C42.12 187.91 42.12 187.02 42.12 186.09 C42.13 185.11 42.14 184.13 42.16 183.12 C42.16 182.08 42.16 181.05 42.16 179.98 C42.17 176.53 42.2 173.08 42.22 169.63 C42.23 167.22 42.24 164.8 42.24 162.39 C42.26 156 42.3 149.61 42.33 143.22 C42.69 103.76 42.69 103.76 42.18 64.31 C42.15 63.17 42.13 62.03 42.11 60.85 C42.07 59.85 42.03 58.85 42 57.82 C41.97 56.98 41.94 56.15 41.92 55.28 C41.77 54.59 41.63 53.9 41.48 53.19 C40.19 51.38 40.19 51.38 38.48 50.19 C35.97 49.7 35.97 49.7 33.14 49.71 C32.08 49.68 31.01 49.65 29.92 49.62 C28.8 49.6 27.69 49.58 26.54 49.56 C24.37 49.51 22.19 49.46 20.02 49.4 C18.94 49.37 17.87 49.34 16.77 49.32 C11.66 49.12 6.57 48.67 1.48 48.19 C1.32 46.53 1.32 46.53 1.15 44.83 C0.99 43.37 0.83 41.9 0.67 40.44 C0.56 39.34 0.56 39.34 0.46 38.23 C0.23 36.2 -0.14 34.19 -0.52 32.19 C-1.75 29.74 -1.75 29.74 -3.52 28.19 C-7.48 26.87 -11.29 26.99 -15.42 26.95 C-16.3 26.94 -17.17 26.93 -18.07 26.93 C-19.92 26.91 -21.77 26.9 -23.62 26.89 C-26.44 26.88 -29.27 26.83 -32.09 26.79 C-33.89 26.78 -35.69 26.77 -37.48 26.76 C-38.33 26.75 -39.17 26.73 -40.04 26.71 C-42.27 26.72 -44.33 26.78 -46.52 27.19 C-47.34 27.77 -48.17 28.36 -49.02 28.97 C-50.55 31.02 -50.55 31.02 -51.1 32.92 C-51.64 35.87 -51.65 38.69 -51.66 41.69 C-51.67 42.34 -51.67 43 -51.67 43.67 C-51.68 45.85 -51.69 48.03 -51.69 50.21 C-51.7 51.77 -51.71 53.33 -51.71 54.9 C-51.73 58.26 -51.74 61.63 -51.75 65 C-51.76 70.32 -51.79 75.63 -51.81 80.95 C-51.88 96.08 -51.94 111.2 -52 126.33 C-52.02 134.68 -52.06 143.03 -52.1 151.39 C-52.13 156.68 -52.15 161.97 -52.16 167.26 C-52.17 170.55 -52.18 173.83 -52.2 177.12 C-52.21 178.65 -52.22 180.17 -52.22 181.7 C-52.22 183.78 -52.23 185.86 -52.25 187.94 C-52.25 189.1 -52.26 190.27 -52.26 191.47 C-52.35 192.37 -52.43 193.26 -52.52 194.19 C-53.51 195.18 -53.51 195.18 -54.52 196.19 C-56.66 196.43 -56.66 196.43 -59.27 196.42 C-60.68 196.42 -60.68 196.42 -62.11 196.41 C-63.09 196.4 -64.07 196.39 -65.08 196.38 C-66.07 196.38 -67.05 196.37 -68.06 196.37 C-73.41 196.34 -73.41 196.34 -75.52 196.19 C-75.85 195.86 -76.18 195.53 -76.52 195.19 C-76.62 192.4 -76.65 189.63 -76.65 186.83 C-76.65 185.95 -76.65 185.06 -76.65 184.15 C-76.66 181.17 -76.65 178.19 -76.65 175.22 C-76.65 173.1 -76.65 170.99 -76.66 168.87 C-76.66 163.15 -76.65 157.42 -76.65 151.7 C-76.64 148.14 -76.64 144.58 -76.64 141.03 C-76.62 108.21 -76.47 75.4 -76.11 42.58 C-76.08 39.68 -76.05 36.78 -76.02 33.89 C-75.98 29.37 -75.92 24.86 -75.87 20.34 C-75.85 18.69 -75.83 17.04 -75.81 15.4 C-75.79 13.17 -75.76 10.94 -75.72 8.71 C-75.71 7.47 -75.69 6.23 -75.68 4.94 C-75.62 4.03 -75.57 3.13 -75.52 2.19 C-75.19 1.86 -74.86 1.53 -74.52 1.19 C-70.71 0.8 -66.86 0.76 -63.03 0.64 C-61.11 0.58 -61.11 0.58 -59.14 0.51 C-39.44 -0.08 -19.71 -0.01 0 0 Z " fill="#F9F4EA" transform="translate(597.5185928344727,66.81132125854492)"/>
<path d="M0 0 C0.62 0.29 1.24 0.58 1.88 0.88 C3.58 2.95 3.58 2.95 5.13 5.45 C5.91 6.69 5.91 6.69 6.71 7.95 C7.09 8.59 7.48 9.23 7.88 9.88 C6.98 10.78 6.98 10.78 6.06 11.68 C3.8 13.93 1.55 16.17 -0.71 18.42 C-1.68 19.38 -2.65 20.35 -3.62 21.31 C-9.35 26.99 -14.94 32.7 -20.12 38.88 C-20.6 39.46 -21.09 40.04 -21.59 40.63 C-29.63 50.35 -36.99 60.49 -44.12 70.88 C-44.57 71.53 -45.01 72.17 -45.47 72.84 C-58.23 91.32 -69.27 111.18 -75.68 132.82 C-76.88 137.54 -77.81 142.02 -78.12 146.88 C-78.18 147.74 -78.25 148.59 -78.31 149.47 C-78.65 157.62 -77.17 165.21 -74.78 172.96 C-73.1 177.86 -70.82 182.47 -68.12 186.88 C-67.38 187.76 -66.63 188.63 -65.87 189.53 C-65.29 190.31 -64.71 191.08 -64.12 191.88 C-64.45 192.87 -64.78 193.86 -65.12 194.88 C-67.12 195.88 -67.12 195.88 -70.76 196.38 C-72.36 196.57 -73.97 196.74 -75.57 196.92 C-76.89 197.06 -76.89 197.06 -78.23 197.21 C-81.13 197.53 -84.03 197.85 -86.94 198.17 C-88.96 198.39 -90.98 198.61 -92.99 198.84 C-97.23 199.3 -101.47 199.77 -105.71 200.23 C-111.13 200.82 -116.55 201.42 -121.97 202.02 C-126.14 202.49 -130.32 202.94 -134.49 203.4 C-136.49 203.62 -138.49 203.84 -140.48 204.06 C-143.28 204.37 -146.09 204.68 -148.89 204.98 C-149.71 205.07 -150.53 205.17 -151.37 205.26 C-157.43 205.91 -163.32 206.15 -169.4 205.57 C-170.3 205.01 -171.19 204.46 -172.12 203.88 C-173.85 200.36 -174.72 196.68 -175.65 192.88 C-175.94 191.76 -176.23 190.63 -176.53 189.48 C-179.62 177.4 -182.19 165.22 -184.68 153.01 C-185.19 150.57 -185.69 148.14 -186.2 145.7 C-187 141.84 -187.8 137.98 -188.59 134.12 C-190.49 124.9 -192.42 115.68 -194.36 106.47 C-195.3 102 -196.24 97.53 -197.18 93.07 C-197.93 89.48 -198.69 85.89 -199.44 82.3 C-201.37 73.17 -203.27 64.03 -205.12 54.88 C-205.5 53.01 -205.5 53.01 -205.89 51.1 C-206.62 47.48 -207.33 43.85 -208.03 40.22 C-208.24 39.16 -208.46 38.11 -208.68 37.02 C-210.08 29.58 -210.35 22.44 -210.12 14.88 C-202.12 12.46 -194.22 11.02 -185.92 10 C-183.95 9.76 -181.98 9.5 -180.01 9.25 C-162.55 7.04 -145.25 6.67 -127.67 6.64 C-123.92 6.63 -120.17 6.6 -116.42 6.57 C-90.99 6.46 -64.18 7.58 -39.99 16.26 C-35.22 18.21 -31.3 20.72 -27.12 23.72 C-26.46 24.1 -25.8 24.49 -25.12 24.88 C-21.32 25.56 -21.32 25.56 -18.12 24.88 C-17.46 24.22 -16.8 23.56 -16.12 22.88 C-15.7 19.93 -15.7 19.93 -16.12 16.88 C-17.2 15.14 -17.2 15.14 -19.12 13.88 C-21.1 12.52 -23.1 11.19 -25.12 9.88 C-24.79 9.22 -24.46 8.56 -24.12 7.88 C-20.62 6.23 -16.94 5.01 -13.31 3.7 C-12.3 3.32 -11.28 2.93 -10.24 2.54 C-9.27 2.19 -8.29 1.83 -7.29 1.47 C-6.39 1.14 -5.5 0.81 -4.58 0.47 C-2.12 -0.12 -2.12 -0.12 0 0 Z " fill="#4B98B0" transform="translate(250.119873046875,492.115966796875)"/>
<path d="M0 0 C2.31 0 4.62 0 7 0 C7.66 2.64 8.32 5.28 9 8 C12.84 9.31 16.12 10.14 20.19 10.09 C21.79 10.04 23.4 9.99 25 9.94 C47.98 9.58 72.68 11.68 94.55 19.06 C100.82 21.33 106.52 24.09 111.83 28.16 C119.6 34.76 125.56 41.99 130.63 50.85 C138.38 65.6 141.1 81.61 143.42 97.94 C145.45 113.24 146.58 128.62 147.69 144 C147.75 144.9 147.82 145.8 147.89 146.73 C148.8 159.18 149.17 171.52 149 184 C142.89 184.15 137.14 183.6 131.1 182.68 C130.16 182.54 129.21 182.4 128.24 182.26 C125.18 181.8 122.12 181.34 119.06 180.88 C117.49 180.64 117.49 180.64 115.88 180.4 C34.17 168.03 34.17 168.03 8.39 154.65 C6.24 153.46 4.11 152.25 2 151 C2.55 148.51 3.09 146.84 4.42 144.62 C5 143.76 5.59 142.89 6.19 142 C9.5 136.99 11.97 131.89 14.25 126.34 C15.12 125.18 15.12 125.18 16 124 C19.13 123.26 19.13 123.26 23 123 C25.66 123.39 28.13 123.84 30.73 124.47 C31.44 124.63 32.15 124.79 32.88 124.95 C35.13 125.46 37.38 125.98 39.62 126.5 C41.88 127.02 44.13 127.54 46.39 128.05 C47.79 128.36 49.19 128.69 50.58 129.02 C53.48 129.67 55.92 130.01 58.88 129.7 C59.58 129.47 60.28 129.24 61 129 C61.45 128.42 61.91 127.85 62.38 127.25 C63.1 124.98 63.1 124.98 63.06 122.44 C62.71 121.63 62.36 120.83 62 120 C56.03 116.85 49.71 115.72 43.12 114.44 C41.04 114.02 38.96 113.6 36.88 113.18 C35.89 112.99 34.9 112.79 33.88 112.59 C29.91 111.78 25.95 110.9 22 110 C21.78 96.5 21.78 96.5 23 92 C25.19 90.39 25.19 90.39 28 89 C30.75 88.23 30.75 88.23 33.72 87.68 C34.82 87.48 35.92 87.27 37.05 87.06 C38.19 86.85 39.33 86.65 40.5 86.44 C41.61 86.23 42.72 86.02 43.86 85.81 C51.55 84.38 59.26 83.15 67 82 C67.74 80.03 68.4 78.02 69 76 C68.65 75.23 68.31 74.45 67.95 73.66 C67.31 73.11 66.66 72.56 66 72 C61.76 71.02 57.31 71.53 53 72 C47.75 72.75 42.53 73.63 37.32 74.58 C36.31 74.76 35.31 74.94 34.28 75.12 C33.38 75.29 32.49 75.46 31.56 75.63 C29.01 76 26.58 76.07 24 76 C22.36 72.31 21.38 68.63 20.45 64.72 C17.58 52.75 13.57 40.81 6.74 30.46 C2.23 23.55 2.23 23.55 1 20 C-0.15 13.39 -0.11 6.69 0 0 Z " fill="#EC5742" transform="translate(470,349)"/>
<path d="M0 0 C4.8 1.51 8.49 3.89 12.52 6.85 C16.85 10.6 19.94 15.18 23 20 C26.05 26.02 27.97 32.34 29 39 C29.33 43.59 29.37 48.15 29.38 52.75 C29.4 53.94 29.42 55.12 29.45 56.34 C29.47 63.79 28.45 70.15 26.14 77.24 C24.41 81.43 22.02 84.66 19 88 C18.42 88.62 17.83 89.24 17.23 89.88 C13.94 93.43 11.34 96.83 9.19 101.19 C5.49 110.06 4.97 119.29 4.48 128.79 C4.44 129.61 4.4 130.44 4.35 131.3 C3.96 139.2 3.75 147.1 3.58 155.01 C3.53 157.53 3.48 160.05 3.42 162.57 C3.34 166.16 3.26 169.75 3.18 173.34 C2.07 224.42 2.07 224.42 1.17 245.97 C1.1 247.74 1.03 249.52 0.97 251.3 C0.57 261.93 0.01 272.74 -3 283 C-5.05 286.49 -6.92 288.92 -9.88 291.69 C-13.02 293.72 -16.07 294.78 -19.69 295.69 C-27.27 297.1 -34.94 297.78 -42.62 298.44 C-44.49 298.61 -44.49 298.61 -46.4 298.79 C-47.58 298.88 -48.76 298.97 -49.98 299.06 C-51.04 299.14 -52.1 299.23 -53.2 299.32 C-54.12 299.21 -55.05 299.11 -56 299 C-56.71 298.53 -57.42 298.06 -58.15 297.57 C-59.06 296.3 -59.06 296.3 -60 295 C-60.58 291.85 -60.51 288.74 -60.45 285.55 C-60.45 284.59 -60.46 283.64 -60.46 282.65 C-60.45 279.49 -60.42 276.33 -60.39 273.17 C-60.38 270.98 -60.38 268.79 -60.37 266.6 C-60.36 260.83 -60.32 255.06 -60.27 249.3 C-60.23 243.41 -60.22 237.53 -60.2 231.64 C-60.15 220.09 -60.08 208.55 -60 197 C-59.38 196.8 -58.76 196.59 -58.12 196.38 C-57.31 196.11 -56.5 195.85 -55.66 195.57 C-54.45 195.17 -54.45 195.17 -53.22 194.76 C-48.18 193.03 -43.89 190.38 -39.61 187.25 C-36.32 184.55 -33.62 182 -31.36 178.37 C-29.63 174.97 -28.21 171.62 -27 168 C-26.56 162.4 -26.48 156.81 -27.51 151.28 C-28.85 147.26 -30.76 144.31 -33.36 140.96 C-38.85 134.55 -44.83 129.49 -52 125 C-53.19 124.21 -54.38 123.42 -55.56 122.62 C-56.37 122.09 -57.17 121.55 -58 121 C-58.33 120.67 -58.66 120.34 -59 120 C-59.1 117.05 -59.14 114.12 -59.13 111.16 C-59.13 110.26 -59.13 109.35 -59.14 108.41 C-59.14 106.47 -59.13 104.54 -59.13 102.6 C-59.13 99.7 -59.13 96.8 -59.14 93.91 C-59.14 84.8 -59.03 75.72 -58.57 66.63 C-58.51 65.51 -58.51 65.51 -58.45 64.37 C-57.75 52.03 -55.49 40.11 -50.72 28.66 C-48.25 23.17 -45.07 18.45 -41 14 C-36.19 9.34 -31.19 5.9 -25.12 3.06 C-17.04 -0.42 -8.72 -1.05 0 0 Z " fill="#EC5742" transform="translate(918,616)"/>
<path d="M0 0 C34.13 3.52 68.12 8.27 102.11 12.98 C104.87 13.36 107.63 13.74 110.39 14.12 C124.08 15.99 137.73 17.99 151.29 20.65 C152.35 20.86 153.41 21.06 154.5 21.27 C155.46 21.47 156.42 21.66 157.41 21.87 C158.26 22.04 159.1 22.21 159.97 22.38 C160.64 22.59 161.31 22.79 162 23 C162.99 23.99 162.99 23.99 164 25 C162.98 25.51 162.98 25.51 161.95 26.03 C153.15 30.61 145.62 36.01 138.81 43.25 C133.62 49.39 129.7 56 126.56 63.4 C119.7 82.28 119.41 102.39 118.81 122.25 C118.73 124.66 118.65 127.08 118.56 129.49 C118.36 135.33 118.18 141.16 118 147 C116.21 147.54 116.21 147.54 114 148 C111.46 147.56 109.05 147.05 106.57 146.42 C105.49 146.16 105.49 146.16 104.4 145.89 C102.89 145.52 101.38 145.15 99.87 144.77 C97.58 144.19 95.28 143.63 92.97 143.07 C91.51 142.71 90.04 142.34 88.57 141.98 C87.54 141.73 87.54 141.73 86.5 141.47 C82.87 140.56 79.38 139.61 76 138 C72.76 135.3 70.48 131.78 68.28 128.22 C66.4 124.98 64.57 121.71 62.75 118.44 C54.26 103.43 45.02 90.37 33 78 C32.21 77.17 32.21 77.17 31.41 76.33 C20.85 65.26 9.77 56.23 -3.61 48.79 C-4.4 48.2 -5.19 47.61 -6 47 C-6 45.68 -6 44.36 -6 43 C-4.79 41.18 -4.79 41.18 -3.19 39.31 C-1.06 36.57 0.64 34.07 1.88 30.81 C3.28 25.98 3.41 21.24 3.3 16.23 C2.93 12.27 2 8.76 0.66 5.02 C0 3 0 3 0 0 Z " fill="#EC5742" transform="translate(727,581)"/>
<path d="M0 0 C2.21 0.88 2.21 0.88 3.94 2.12 C4.6 2.58 5.26 3.04 5.93 3.51 C6.62 4 7.3 4.49 8 5 C13.54 8.78 19.06 12.31 25.06 15.31 C26.21 15.89 27.35 16.46 28.54 17.05 C40.38 22.43 52.75 26.31 65.25 29.81 C65.98 30.02 66.72 30.23 67.48 30.44 C79.43 33.83 91.45 36.98 103.5 40 C104.63 40.28 104.63 40.28 105.78 40.57 C113.51 42.51 121.21 44.34 129.08 45.61 C129.71 45.74 130.35 45.87 131 46 C131.33 46.33 131.66 46.66 132 47 C132.28 51.62 132.23 56.25 132.25 60.88 C132.28 62.83 132.28 62.83 132.31 64.83 C132.32 66.71 132.32 66.71 132.33 68.62 C132.34 69.77 132.35 70.92 132.36 72.1 C132.24 73.06 132.12 74.02 132 75 C131.49 75.91 131.49 75.91 130.98 76.84 C130.32 77.22 129.67 77.6 129 78 C126.3 78.49 123.78 78.79 121.06 78.99 C120.24 79.06 119.43 79.13 118.59 79.21 C115.87 79.44 113.16 79.66 110.44 79.88 C106.55 80.2 102.66 80.54 98.77 80.88 C97.75 80.97 96.73 81.05 95.68 81.14 C87.84 81.82 80.02 82.59 72.2 83.4 C71.06 83.52 69.93 83.64 68.76 83.76 C64.27 84.22 59.78 84.69 55.3 85.17 C52.17 85.5 49.04 85.82 45.91 86.14 C44.52 86.3 44.52 86.3 43.09 86.45 C39.63 86.8 36.48 87.05 33.01 86.69 C32.35 86.46 31.68 86.23 31 86 C28.89 83.85 28.89 83.85 26.81 81.06 C14.93 65.95 0.13 56.09 -15.62 45.44 C-40.58 28.55 -40.58 28.55 -45.92 21.71 C-47.46 19.27 -48.56 16.79 -49.55 14.09 C-50.13 11.37 -50.03 8.77 -50 6 C-44.17 5.14 -38.33 4.28 -32.5 3.44 C-30.51 3.15 -28.53 2.86 -26.55 2.56 C-23.69 2.14 -20.83 1.73 -17.97 1.31 C-17.09 1.18 -16.21 1.05 -15.31 0.91 C-10.15 0.18 -5.21 -0.31 0 0 Z " fill="#EC5742" transform="translate(712,766)"/>
<path d="M0 0 C3.81 -0.25 7.62 -0.19 11.44 -0.19 C13.05 -0.21 13.05 -0.21 14.7 -0.22 C15.72 -0.23 16.75 -0.23 17.81 -0.23 C19.23 -0.24 19.23 -0.24 20.68 -0.24 C21.44 -0.16 22.21 -0.08 23 0 C23.66 0.66 24.32 1.32 25 2 C25.25 4.61 25.25 4.61 25.25 8 C25.26 9.28 25.27 10.56 25.27 11.87 C25.27 13.3 25.26 14.72 25.26 16.15 C25.26 17.64 25.27 19.14 25.27 20.63 C25.28 24.7 25.27 28.76 25.27 32.83 C25.26 37.08 25.27 41.33 25.27 45.58 C25.28 52.71 25.27 59.85 25.26 66.98 C25.25 75.24 25.25 83.5 25.26 91.76 C25.27 98.84 25.27 105.92 25.27 113 C25.27 117.23 25.27 121.47 25.27 125.7 C25.28 129.68 25.27 133.66 25.26 137.64 C25.26 139.1 25.26 140.56 25.27 142.03 C25.27 144.02 25.26 146.01 25.25 148 C25.25 149.12 25.25 150.24 25.25 151.39 C25.17 152.25 25.09 153.11 25 154 C24.01 154.99 24.01 154.99 23 156 C20.68 156.15 20.68 156.15 17.81 156.01 C16.78 155.96 15.76 155.92 14.7 155.87 C13.08 155.78 13.08 155.78 11.44 155.69 C10.36 155.64 9.28 155.59 8.17 155.54 C2.32 155.25 2.32 155.25 0 155 C-0.33 154.67 -0.66 154.34 -1 154 C-1.13 151.43 -1.2 148.88 -1.22 146.3 C-1.23 145.49 -1.24 144.68 -1.26 143.84 C-1.29 141.12 -1.32 138.39 -1.35 135.67 C-1.38 133.75 -1.4 131.82 -1.42 129.9 C-1.49 124.73 -1.54 119.56 -1.59 114.4 C-1.62 111.2 -1.66 108.01 -1.69 104.81 C-1.97 78.29 -2.09 51.77 -1.62 25.25 C-1.6 23.98 -1.58 22.72 -1.56 21.41 C-1.5 17.93 -1.43 14.44 -1.35 10.95 C-1.33 9.94 -1.31 8.93 -1.29 7.89 C-1.27 6.98 -1.25 6.08 -1.22 5.15 C-1.19 3.97 -1.19 3.97 -1.16 2.77 C-1.11 2.19 -1.06 1.6 -1 1 C-0.67 0.67 -0.34 0.34 0 0 Z " fill="#4CA97F" transform="translate(560,107)"/>
<path d="M0 0 C4.31 -0.25 8.62 -0.19 12.94 -0.19 C14.16 -0.2 15.38 -0.21 16.63 -0.22 C18.37 -0.23 18.37 -0.23 20.15 -0.23 C21.22 -0.23 22.3 -0.24 23.4 -0.24 C24.69 -0.12 24.69 -0.12 26 0 C26.66 0.66 27.32 1.32 28 2 C28.29 4.92 28.29 4.92 28.33 8.72 C28.35 9.41 28.36 10.11 28.37 10.82 C28.41 13.14 28.43 15.47 28.45 17.79 C28.47 19.43 28.49 21.07 28.52 22.71 C28.58 27.1 28.62 31.5 28.66 35.9 C28.69 38.61 28.72 41.33 28.75 44.05 C28.99 65.95 29.12 87.85 28.69 109.75 C28.67 110.75 28.65 111.74 28.64 112.77 C28.59 115.51 28.52 118.25 28.45 120.98 C28.43 121.77 28.42 122.55 28.4 123.36 C28.34 125.24 28.18 127.12 28 129 C27.34 129.99 26.68 130.98 26 132 C23.49 132.36 23.49 132.36 20.37 132.33 C19.25 132.32 18.14 132.32 16.99 132.31 C15.82 132.29 14.64 132.27 13.44 132.25 C12.26 132.24 11.09 132.24 9.88 132.23 C3.6 132.18 3.6 132.18 1 132 C0.67 131.67 0.34 131.34 0 131 C-1.04 122.64 -1.15 114.21 -1.13 105.8 C-1.13 104.09 -1.13 104.09 -1.13 102.34 C-1.14 98.62 -1.14 94.89 -1.13 91.17 C-1.13 88.57 -1.13 85.97 -1.14 83.37 C-1.14 77.94 -1.14 72.51 -1.13 67.09 C-1.12 60.81 -1.13 54.53 -1.13 48.26 C-1.14 42.2 -1.14 36.15 -1.13 30.09 C-1.13 27.52 -1.13 24.95 -1.14 22.38 C-1.14 18.8 -1.13 15.22 -1.13 11.65 C-1.13 10.58 -1.13 9.51 -1.14 8.4 C-1.13 7.44 -1.13 6.47 -1.13 5.47 C-1.13 4.63 -1.13 3.78 -1.13 2.91 C-1.08 2.28 -1.04 1.65 -1 1 C-0.67 0.67 -0.34 0.34 0 0 Z " fill="#F8CA35" transform="translate(599,130)"/>
<path d="M0 0 C0.97 0.02 1.94 0.04 2.94 0.07 C5.23 0.16 7.43 0.3 9.69 0.69 C10.53 1.12 11.37 1.54 12.23 1.98 C13.69 3.69 13.69 3.69 14.44 5.59 C14.52 6.26 14.6 6.93 14.69 7.62 C14.79 8.29 14.89 8.96 15 9.65 C14.9 10.32 14.79 11 14.69 11.69 C13.05 13.79 13.05 13.79 10.69 15.69 C7.9 16.16 7.9 16.16 4.63 16.13 C3.39 16.12 2.16 16.12 0.89 16.12 C-0.47 16.09 -1.82 16.07 -3.18 16.04 C-4.59 16.03 -6.01 16.02 -7.42 16.02 C-10.44 16 -13.46 15.97 -16.47 15.93 C-21.22 15.87 -25.96 15.84 -30.71 15.82 C-31.5 15.82 -32.28 15.81 -33.1 15.81 C-34.68 15.8 -36.27 15.79 -37.86 15.79 C-40.24 15.77 -42.62 15.76 -45 15.74 C-130.95 14.6 -130.95 14.6 -215.53 27.75 C-219.85 28.82 -222.91 29.06 -227.31 28.69 C-228.3 28.16 -228.3 28.16 -229.31 27.62 C-229.64 26.99 -229.97 26.35 -230.31 25.69 C-230.69 22.19 -230.69 22.19 -230.31 18.69 C-229.05 17.07 -229.05 17.07 -227.31 15.69 C-215.28 10.24 -200.64 8.88 -187.68 7.2 C-186.2 7 -186.2 7 -184.69 6.81 C-174.38 5.51 -164.05 4.62 -153.69 3.81 C-150.55 3.56 -147.41 3.31 -144.28 3.05 C-125.42 1.53 -106.6 0.55 -87.69 0.12 C-86.79 0.1 -85.89 0.08 -84.96 0.06 C-56.67 -0.58 -28.29 -0.87 0 0 Z " fill="#070B08" transform="translate(235.3125,343.3125)"/>
<path d="M0 0 C3.25 -0.12 6.5 -0.19 9.75 -0.25 C10.67 -0.28 11.59 -0.32 12.54 -0.35 C13.43 -0.36 14.32 -0.38 15.23 -0.39 C16.05 -0.41 16.87 -0.43 17.71 -0.45 C18.47 -0.3 19.22 -0.15 20 0 C22.11 1.67 22.11 1.67 24 4 C24.5 6.62 24.5 6.62 24.5 9.66 C24.52 11.39 24.52 11.39 24.53 13.16 C24.52 14.42 24.51 15.68 24.5 16.98 C24.51 18.33 24.51 19.67 24.52 21.02 C24.53 24.67 24.52 28.32 24.5 31.97 C24.49 35.79 24.5 39.61 24.5 43.43 C24.5 49.84 24.49 56.26 24.47 62.67 C24.44 70.09 24.44 77.5 24.45 84.92 C24.46 92.06 24.45 99.19 24.44 106.32 C24.43 109.36 24.43 112.4 24.44 115.43 C24.44 119.01 24.43 122.58 24.41 126.16 C24.4 128.1 24.41 130.04 24.42 131.98 C24.41 133.13 24.4 134.28 24.39 135.47 C24.39 136.47 24.38 137.47 24.38 138.5 C24.19 139.74 24.19 139.74 24 141 C22.6 142.82 22.6 142.82 21 144 C18.95 144.36 18.95 144.36 16.62 144.33 C15.36 144.32 15.36 144.32 14.08 144.31 C13.21 144.29 12.34 144.27 11.44 144.25 C10.56 144.24 9.69 144.24 8.78 144.23 C4.11 144.18 4.11 144.18 2 144 C1.34 143.67 0.68 143.34 0 143 C-0.91 140.27 -1.14 138.64 -1.16 135.83 C-1.18 134.98 -1.19 134.13 -1.2 133.26 C-1.21 132.33 -1.21 131.4 -1.22 130.44 C-1.24 128.96 -1.24 128.96 -1.26 127.46 C-1.29 124.19 -1.32 120.92 -1.35 117.64 C-1.37 115.35 -1.4 113.05 -1.42 110.76 C-1.47 105.92 -1.52 101.08 -1.56 96.24 C-1.6 91.34 -1.65 86.44 -1.7 81.54 C-2.22 34.64 -2.22 34.64 -1.59 14.7 C-1.55 13.4 -1.5 12.1 -1.46 10.76 C-1.22 4.39 -1.22 4.39 -1 2 C-0.67 1.34 -0.34 0.68 0 0 Z " fill="#EC5742" transform="translate(669,119)"/>
<path d="M0 0 C1.51 -0.03 3.03 0.01 4.54 0.09 C5.43 0.13 6.32 0.17 7.24 0.22 C8.17 0.27 9.1 0.32 10.06 0.38 C11.47 0.44 11.47 0.44 12.9 0.51 C18.07 0.78 18.07 0.78 20 1 C20.33 1.33 20.66 1.66 21 2 C21.1 4.36 21.13 6.68 21.11 9.04 C21.11 9.78 21.11 10.52 21.11 11.28 C21.11 13.76 21.1 16.25 21.09 18.73 C21.09 20.49 21.08 22.25 21.08 24.01 C21.03 42.86 20.84 61.7 20.63 80.55 C20.57 85.41 20.52 90.26 20.47 95.12 C20.43 98.95 20.39 102.79 20.35 106.62 C20.33 108.41 20.31 110.2 20.29 111.99 C20.2 121.03 20.03 130.07 19.61 139.1 C19.58 139.87 19.55 140.63 19.52 141.42 C19.42 143.29 19.22 145.15 19 147 C18.01 147.99 18.01 147.99 17 149 C15.06 149.26 15.06 149.26 12.72 149.27 C11.88 149.27 11.04 149.27 10.17 149.27 C9.29 149.27 8.41 149.26 7.5 149.25 C6.62 149.26 5.74 149.27 4.83 149.27 C3.99 149.27 3.15 149.27 2.28 149.27 C1.51 149.26 0.74 149.26 -0.06 149.26 C-0.7 149.17 -1.34 149.09 -2 149 C-2.66 148.34 -3.32 147.68 -4 147 C-5.41 138.86 -5.16 130.36 -5.12 122.12 C-5.12 120.81 -5.12 119.49 -5.12 118.14 C-5 85.82 -4.37 53.48 -3.56 21.17 C-3.52 19.61 -3.48 18.05 -3.45 16.49 C-3.4 14.4 -3.34 12.3 -3.28 10.21 C-3.25 9.07 -3.22 7.93 -3.19 6.75 C-3 4 -3 4 -2 1 C-1.34 0.67 -0.68 0.34 0 0 Z " fill="#EA5742" transform="translate(869,319)"/>
<path d="M0 0 C3.27 -0.23 3.27 -0.23 7.25 -0.19 C9.21 -0.18 9.21 -0.18 11.2 -0.17 C14.57 -0.02 17.69 0.41 21 1 C21.05 19.61 21.08 38.22 21.1 56.83 C21.11 65.47 21.13 74.11 21.15 82.75 C21.17 90.28 21.18 97.81 21.19 105.34 C21.19 109.33 21.2 113.32 21.21 117.31 C21.22 121.06 21.23 124.81 21.23 128.56 C21.23 129.94 21.23 131.32 21.24 132.7 C21.25 134.57 21.24 136.45 21.24 138.33 C21.24 139.38 21.24 140.44 21.25 141.52 C21.16 142.34 21.08 143.16 21 144 C20.01 144.99 20.01 144.99 19 146 C16.75 146.23 16.75 146.23 13.99 146.2 C13.01 146.19 12.02 146.18 11 146.18 C9.46 146.15 9.46 146.15 7.88 146.12 C6.83 146.12 5.79 146.11 4.72 146.1 C2.15 146.07 -0.43 146.04 -3 146 C-3.33 145.34 -3.66 144.68 -4 144 C-4.09 141.43 -4.13 138.88 -4.11 136.31 C-4.11 135.51 -4.11 134.71 -4.11 133.89 C-4.11 131.22 -4.1 128.55 -4.09 125.88 C-4.09 123.99 -4.08 122.1 -4.08 120.21 C-4.03 100.13 -3.85 80.05 -3.63 59.96 C-3.57 54.8 -3.52 49.63 -3.47 44.47 C-3.43 40.42 -3.39 36.37 -3.35 32.32 C-3.33 30.42 -3.31 28.51 -3.29 26.6 C-3.27 23.96 -3.24 21.32 -3.21 18.69 C-3.2 17.92 -3.19 17.16 -3.19 16.37 C-3.12 11.51 -2.82 6.8 -2 2 C-1.34 1.34 -0.68 0.68 0 0 Z " fill="#4DAA7F" transform="translate(719,321)"/>
<path d="M0 0 C4.12 -0.06 8.25 -0.09 12.38 -0.12 C13.55 -0.14 14.73 -0.16 15.94 -0.18 C17.62 -0.19 17.62 -0.19 19.34 -0.2 C20.37 -0.21 21.41 -0.22 22.48 -0.23 C23.31 -0.15 24.14 -0.08 25 0 C25.66 0.66 26.32 1.32 27 2 C27.25 4.12 27.25 4.12 27.24 6.8 C27.25 7.81 27.25 8.82 27.25 9.87 C27.24 10.98 27.24 12.1 27.23 13.25 C27.23 14.42 27.23 15.59 27.23 16.79 C27.23 20 27.22 23.22 27.2 26.43 C27.19 28.43 27.18 30.44 27.18 32.44 C27.15 42.29 27.08 52.15 27 62 C26.99 62.71 26.99 63.42 26.98 64.16 C26.91 73.17 26.81 82.18 26.68 91.2 C26.64 93.82 26.61 96.44 26.58 99.05 C26.53 102.71 26.48 106.36 26.41 110.01 C26.4 111.1 26.39 112.19 26.38 113.31 C26.36 114.3 26.34 115.29 26.32 116.31 C26.31 117.17 26.29 118.03 26.28 118.92 C26.19 119.61 26.09 120.29 26 121 C25.01 121.99 25.01 121.99 24 123 C21.69 123.26 21.69 123.26 18.84 123.27 C17.31 123.27 17.31 123.27 15.75 123.27 C14.67 123.27 13.6 123.26 12.5 123.25 C10.89 123.26 10.89 123.26 9.25 123.27 C8.23 123.27 7.21 123.27 6.16 123.27 C5.22 123.26 4.28 123.26 3.31 123.26 C2.55 123.17 1.78 123.09 1 123 C0.34 122.34 -0.32 121.68 -1 121 C-1.25 118.9 -1.25 118.9 -1.25 116.26 C-1.25 115.25 -1.26 114.25 -1.26 113.22 C-1.25 112.12 -1.25 111.02 -1.24 109.88 C-1.24 108.72 -1.25 107.57 -1.25 106.37 C-1.25 102.53 -1.24 98.69 -1.23 94.84 C-1.23 92.18 -1.23 89.52 -1.23 86.86 C-1.23 81.28 -1.22 75.7 -1.21 70.12 C-1.19 63.66 -1.18 57.2 -1.19 50.74 C-1.19 44.53 -1.18 38.33 -1.17 32.12 C-1.17 29.48 -1.17 26.83 -1.17 24.19 C-1.16 20.5 -1.16 16.81 -1.15 13.12 C-1.15 12.02 -1.15 10.91 -1.15 9.78 C-1.14 8.78 -1.14 7.78 -1.13 6.74 C-1.13 5.87 -1.13 5 -1.13 4.1 C-1.09 3.41 -1.04 2.71 -1 2 C-0.67 1.34 -0.34 0.68 0 0 Z " fill="#FBCD35" transform="translate(676,344)"/>
<path d="M0 0 C1.81 -0.08 3.63 -0.11 5.45 -0.1 C6.52 -0.09 7.6 -0.09 8.71 -0.09 C9.83 -0.08 10.96 -0.07 12.12 -0.06 C13.26 -0.06 14.4 -0.05 15.57 -0.05 C18.38 -0.04 21.19 -0.02 24 0 C24.33 0.66 24.66 1.32 25 2 C25.1 5.07 25.14 8.11 25.13 11.18 C25.13 12.15 25.14 13.12 25.14 14.11 C25.14 17.37 25.13 20.62 25.12 23.88 C25.12 24.99 25.12 26.11 25.12 27.26 C25.09 47.01 24.93 66.76 24.68 86.51 C24.64 89.59 24.61 92.67 24.58 95.75 C24.54 99.4 24.5 103.06 24.44 106.71 C24.41 108.72 24.4 110.73 24.38 112.73 C24.36 113.93 24.34 115.12 24.32 116.36 C24.31 117.4 24.29 118.45 24.28 119.53 C24.19 120.34 24.09 121.16 24 122 C23.01 122.99 23.01 122.99 22 124 C19.48 124.14 19.48 124.14 16.34 123.98 C15.33 123.93 14.32 123.89 13.27 123.84 C11.99 123.77 10.7 123.7 9.38 123.62 C7.17 123.51 4.96 123.4 2.75 123.29 C0.83 123.19 -1.08 123.1 -3 123 C-4.11 97.05 -3.85 71.23 -3.14 45.27 C-3.01 40.25 -2.88 35.23 -2.76 30.22 C-2.52 20.48 -2.26 10.74 -2 1 C-1.34 0.67 -0.68 0.34 0 0 Z " fill="#F9CB35" transform="translate(827,344)"/>
<path d="M0 0 C0.99 0.66 1.98 1.32 3 2 C3.51 4.23 3.51 4.23 3.68 6.96 C3.75 7.95 3.81 8.95 3.88 9.97 C4.06 14.55 4.12 19.1 4.09 23.68 C4.09 24.76 4.08 25.84 4.08 26.96 C4.06 30.97 4.03 34.99 4 39 C3.99 39.83 3.99 40.66 3.98 41.51 C3.88 54.56 3.76 67.6 3.63 80.64 C3.57 86.06 3.52 91.47 3.47 96.89 C3.43 101.08 3.39 105.27 3.35 109.46 C3.33 111.46 3.31 113.47 3.29 115.47 C3.27 118.23 3.24 121 3.21 123.76 C3.2 124.59 3.19 125.41 3.19 126.26 C3.16 128.18 3.09 130.09 3 132 C2.67 132.33 2.34 132.66 2 133 C-0.84 133.1 -3.66 133.14 -6.5 133.12 C-7.3 133.13 -8.1 133.13 -8.92 133.14 C-10.95 133.13 -12.97 133.07 -15 133 C-15.33 132.67 -15.66 132.34 -16 132 C-17.42 124.16 -17.13 116.22 -17.09 108.29 C-17.09 106.7 -17.08 105.12 -17.08 103.53 C-17.03 85.38 -16.84 67.23 -16.63 49.08 C-16.57 44.23 -16.52 39.39 -16.47 34.55 C-16.43 30.77 -16.39 27 -16.35 23.22 C-16.33 21.43 -16.31 19.64 -16.29 17.85 C-16.27 15.39 -16.24 12.92 -16.21 10.46 C-16.2 9.73 -16.19 9 -16.19 8.24 C-16.16 6.49 -16.09 4.75 -16 3 C-15.67 2.34 -15.34 1.68 -15 1 C-10.32 -0.51 -4.86 -0.49 0 0 Z " fill="#F8CA35" transform="translate(801,131)"/>
<path d="M0 0 C7.53 15.83 14.04 31.98 20.39 48.31 C23.72 56.87 27.14 65.41 30.56 73.94 C31.15 75.41 31.74 76.88 32.33 78.35 C32.61 79.05 32.89 79.75 33.18 80.47 C33.72 81.82 34.26 83.17 34.8 84.52 C35.94 87.38 37.1 90.24 38.29 93.08 C38.66 93.96 39.02 94.84 39.4 95.75 C39.87 96.86 39.87 96.86 40.35 97.99 C41 100 41 100 41 104 C38.44 104.87 35.88 105.72 33.31 106.56 C32.23 106.93 32.23 106.93 31.13 107.31 C28.13 108.28 25.45 108.97 22.29 109.15 C21.54 108.77 20.78 108.39 20 108 C15.67 102.46 13.2 96 10.74 89.48 C10.16 87.98 10.16 87.98 9.57 86.45 C8.33 83.22 7.1 79.98 5.88 76.75 C5.02 74.52 4.17 72.3 3.31 70.08 C1.63 65.7 -0.04 61.33 -1.72 56.95 C-4.56 49.53 -7.46 42.14 -10.38 34.75 C-11.54 31.8 -12.71 28.85 -13.86 25.89 C-14.69 23.77 -15.56 21.67 -16.43 19.56 C-16.9 18.41 -17.37 17.26 -17.85 16.08 C-18.29 15.04 -18.72 13.99 -19.17 12.92 C-20 10 -20 10 -19.8 7.22 C-19.41 6.12 -19.41 6.12 -19 5 C-16.27 3.42 -16.27 3.42 -12.81 2.19 C-11.68 1.77 -10.56 1.35 -9.39 0.92 C-6.09 0.02 -3.41 -0.18 0 0 Z " fill="#4B98B0" transform="translate(851,155)"/>
<path d="M0 0 C1.36 1.18 1.36 1.18 3 3 C4.11 5.29 4.11 5.29 5.17 8.05 C5.58 9.1 5.99 10.15 6.41 11.24 C6.85 12.4 7.3 13.56 7.75 14.75 C8.22 15.96 8.69 17.18 9.17 18.43 C10.22 21.13 11.25 23.83 12.29 26.54 C13.8 30.47 15.31 34.4 16.83 38.33 C18.47 42.57 20.11 46.82 21.75 51.06 C22.06 51.86 22.37 52.67 22.69 53.49 C26.14 62.45 29.55 71.43 32.89 80.43 C33.19 81.23 33.49 82.03 33.79 82.86 C34.07 83.6 34.34 84.35 34.63 85.12 C34.87 85.77 35.11 86.43 35.36 87.1 C36.02 89.05 36.53 91 37 93 C31.89 93.02 26.78 93.04 21.67 93.05 C19.93 93.06 18.2 93.07 16.46 93.08 C13.96 93.09 11.47 93.09 8.97 93.1 C8.19 93.1 7.41 93.11 6.6 93.11 C4.73 93.11 2.87 93.06 1 93 C0.67 92.67 0.34 92.34 0 92 C-0.16 89.72 -0.25 87.44 -0.32 85.16 C-0.34 84.44 -0.36 83.71 -0.38 82.96 C-0.45 80.52 -0.51 78.07 -0.56 75.62 C-0.58 74.79 -0.6 73.95 -0.63 73.08 C-1.01 57.12 -1.11 41.16 -1.12 25.19 C-1.13 24.05 -1.13 22.9 -1.13 21.73 C-1.14 18.48 -1.14 15.23 -1.13 11.98 C-1.13 11 -1.14 10.02 -1.14 9.01 C-1.14 8.11 -1.13 7.21 -1.13 6.29 C-1.13 5.51 -1.13 4.72 -1.13 3.91 C-1.09 3.28 -1.04 2.65 -1 2 C-0.67 1.34 -0.34 0.68 0 0 Z " fill="#F9F4EB" transform="translate(818,171)"/>
<path d="M0 0 C0.85 -0.01 1.7 -0.02 2.58 -0.04 C6.15 -0.05 9.16 0.05 12.61 1.06 C13.27 1.43 13.94 1.8 14.62 2.19 C16.5 4.44 16.5 4.44 17.62 7.19 C17.56 10.19 17.56 10.19 16.62 13.19 C14.88 15.81 14.88 15.81 12.62 18.19 C11.23 19.08 11.23 19.08 9.81 20 C9.09 20.72 8.37 21.44 7.62 22.19 C7.57 25.41 7.68 27.23 8.62 30.19 C9.12 31.18 9.62 32.17 10.12 33.19 C10.95 33.85 11.77 34.51 12.62 35.19 C14.91 35.79 16.82 35.87 19.18 35.77 C21.71 35.29 21.71 35.29 24.04 33.8 C25.55 32.71 27.04 31.58 28.48 30.4 C29.19 30 29.9 29.6 30.62 29.19 C33.27 29.38 33.27 29.38 35.62 30.19 C36.62 31.18 36.62 31.18 37.62 32.19 C37.56 35.5 37.56 35.5 36.62 39.19 C34.05 42.46 31.07 44.66 27.62 46.94 C25.43 48.24 23.56 49.21 21.12 50 C19.89 50.09 19.89 50.09 18.62 50.19 C17.37 50.31 16.11 50.44 14.81 50.56 C12.74 50.56 12.74 50.56 10.62 50.19 C8.45 49 6.47 47.65 4.43 46.25 C3.83 45.9 3.24 45.55 2.62 45.19 C1.78 45.15 0.93 45.11 0.06 45.06 C-2.83 46.4 -5.22 48.08 -7.73 50.03 C-9.38 51.19 -9.38 51.19 -12.38 52.19 C-15.42 52.57 -18.32 52.52 -21.38 52.19 C-26.46 50.83 -31.39 48.93 -36 46.38 C-36.78 45.65 -37.57 44.93 -38.38 44.19 C-39.5 40.69 -39.5 40.69 -39.38 37.19 C-38.86 36.36 -38.34 35.54 -37.81 34.69 C-37.01 34.19 -36.2 33.7 -35.38 33.19 C-32.56 33.25 -32.56 33.25 -29.38 34.19 C-27.77 34.96 -27.77 34.96 -26.12 35.75 C-23.99 36.7 -22.21 37.21 -19.88 37.56 C-17.26 37.69 -14.96 37.67 -12.38 37.19 C-9.27 35 -9.27 35 -7.38 32.19 C-7.05 31.53 -6.72 30.87 -6.38 30.19 C-6.14 27.92 -6.27 25.88 -6.52 23.62 C-6.8 22.82 -7.08 22.01 -7.38 21.19 C-9.44 19.03 -9.44 19.03 -11.94 17.12 C-14.39 15.17 -14.39 15.17 -16.38 13.19 C-17.11 11.05 -17.11 11.05 -17.19 8.94 C-16.92 7.7 -16.65 6.46 -16.38 5.19 C-14.56 2.75 -14.56 2.75 -12.38 1.19 C-8.23 -0.19 -4.34 0 0 0 Z " fill="#080C09" transform="translate(390.375,436.8125)"/>
<path d="M0 0 C0.66 0.66 1.32 1.32 2 2 C2.86 9.72 1.65 17.71 0.69 25.38 C0.57 26.43 0.45 27.48 0.33 28.57 C0.2 29.58 0.08 30.6 -0.05 31.65 C-0.16 32.56 -0.27 33.47 -0.38 34.4 C-1 37 -1 37 -2.25 39.8 C-3.11 40.89 -3.11 40.89 -4 42 C-6.31 42.62 -6.31 42.62 -9 42.59 C-9.97 42.59 -10.94 42.59 -11.94 42.59 C-12.95 42.56 -13.96 42.53 -15 42.5 C-16.01 42.5 -17.02 42.51 -18.06 42.51 C-23.61 42.43 -23.61 42.43 -26 42 C-26.57 41.61 -27.14 41.21 -27.73 40.81 C-29 39 -29 39 -29.78 36.52 C-29.97 35.56 -30.16 34.59 -30.35 33.59 C-30.67 31.98 -30.67 31.98 -30.99 30.34 C-31.2 29.22 -31.41 28.09 -31.62 26.94 C-31.84 25.84 -32.06 24.75 -32.28 23.62 C-35.15 8.76 -35.15 8.76 -35 4 C-34.34 3.34 -33.68 2.68 -33 2 C-30.93 1.59 -30.93 1.59 -28.38 1.37 C-27.44 1.28 -26.51 1.2 -25.54 1.11 C-24.56 1.03 -23.58 0.96 -22.56 0.88 C-21.61 0.79 -20.67 0.7 -19.69 0.61 C-5.69 -0.59 -5.69 -0.59 0 0 Z " fill="#F9F4EB" transform="translate(865,930)"/>
<path d="M0 0 C1.32 0.33 2.64 0.66 4 1 C5.98 3.97 7.96 6.94 10 10 C4.39 15.61 -1.22 21.22 -7 27 C-8.98 25.68 -10.96 24.36 -13 23 C-13.74 21.04 -13.74 21.04 -13.88 19.06 C-14.17 16.95 -14.17 16.95 -15 15 C-17.45 12.88 -20.09 11.41 -23 10 C-22.67 9.34 -22.34 8.68 -22 8 C-18.5 6.35 -14.82 5.13 -11.19 3.81 C-10.18 3.43 -9.16 3.05 -8.12 2.66 C-6.66 2.13 -6.66 2.13 -5.17 1.58 C-4.27 1.25 -3.38 0.93 -2.46 0.59 C-1.65 0.39 -0.84 0.2 0 0 Z " fill="#EB5742" transform="translate(248,492)"/>
<path d="M0 0 C14.63 1.88 27.84 5.34 41 12 C41 12.66 41 13.32 41 14 C29.4 16.51 17.9 18.44 6 18 C3.28 12.16 1.59 6.23 0 0 Z " fill="#E95742" transform="translate(652,740)"/>
<path d="M0 0 C2.87 -0.59 5.64 -0.61 8.56 -0.56 C9.32 -0.59 10.07 -0.61 10.85 -0.63 C13.07 -0.63 13.07 -0.63 17 0 C19.52 2.32 19.52 2.32 21 5 C21.06 8.5 21.06 8.5 20 12 C17.69 14.88 17.69 14.88 15 17 C12.52 18.07 10.41 18.04 7.69 18.25 C4 18 4 18 0.25 16.81 C-3 15 -3 15 -5 12.69 C-5.33 11.8 -5.66 10.91 -6 10 C-6 6.94 -6 6.94 -5 4 C-2.97 1.85 -2.97 1.85 0 0 Z " fill="#0A0D09" transform="translate(422,410)"/>
<path d="M0 0 C1.31 -0.05 2.62 -0.1 3.97 -0.15 C5.13 0.02 6.3 0.2 7.5 0.38 C9.94 2.68 9.94 2.68 11.5 5.38 C12 8.94 12 8.94 11.5 12.38 C9.69 14.75 9.69 14.75 7.5 16.38 C3.21 17.8 -0.82 17.76 -5.31 17.71 C-8.5 17.38 -8.5 17.38 -10.69 16.54 C-12.31 15.38 -12.31 15.38 -14.5 12.38 C-14.95 10.37 -14.95 10.37 -15.06 8.25 C-14.88 6.97 -14.69 5.69 -14.5 4.38 C-14.09 3.74 -13.68 3.1 -13.25 2.44 C-11.5 1.38 -11.5 1.38 -9.86 0.83 C-6.56 0.19 -3.36 0.09 0 0 Z " fill="#080C08" transform="translate(336.5,417.625)"/>
<path d="M0 0 C2.96 -0.1 5.89 -0.13 8.85 -0.12 C9.79 -0.12 10.73 -0.12 11.7 -0.12 C14.88 -0.12 18.05 -0.12 21.23 -0.11 C23.49 -0.11 25.76 -0.11 28.03 -0.11 C34.2 -0.11 40.37 -0.11 46.55 -0.1 C52.99 -0.1 59.43 -0.09 65.88 -0.09 C76.7 -0.09 87.52 -0.08 98.34 -0.08 C109.49 -0.07 120.64 -0.06 131.79 -0.05 C132.48 -0.05 133.16 -0.05 133.87 -0.05 C137.31 -0.05 140.76 -0.05 144.2 -0.05 C172.8 -0.04 201.4 -0.02 230 0 C229.67 0.66 229.34 1.32 229 2 C227.84 2 226.67 2 225.48 2 C197.89 1.98 170.31 1.96 142.73 1.95 C139.34 1.95 135.94 1.95 132.55 1.95 C131.88 1.94 131.2 1.94 130.51 1.94 C119.56 1.94 108.61 1.93 97.67 1.92 C86.44 1.91 75.22 1.91 63.99 1.91 C57.68 1.9 51.37 1.9 45.07 1.89 C39.13 1.89 33.2 1.89 27.27 1.89 C25.09 1.89 22.91 1.88 20.73 1.88 C17.76 1.88 14.79 1.88 11.82 1.88 C10.95 1.88 10.07 1.87 9.17 1.87 C7.12 1.88 5.06 1.93 3 2 C2.01 2.5 2.01 2.5 1 3 C0.34 3.99 -0.32 4.98 -1 6 C-1.04 4.33 -1.04 2.67 -1 1 C-0.67 0.67 -0.34 0.34 0 0 Z " fill="#FDFDFB" transform="translate(523,278)"/>
<path d="M0 0 C0.66 0 1.32 0 2 0 C2 0.54 2 1.09 2 1.65 C1.97 15.06 1.96 28.48 1.95 41.89 C1.94 48.38 1.94 54.87 1.92 61.36 C1.87 90.59 1.93 119.79 3 149 C15.4 149.73 27.77 150.11 40.19 150.12 C40.86 150.13 41.53 150.13 42.22 150.13 C44.14 150.14 46.06 150.14 47.98 150.13 C49.09 150.13 50.21 150.13 51.35 150.13 C52.23 150.09 53.1 150.04 54 150 C54.66 149.67 55.32 149.34 56 149 C55.67 149.99 55.34 150.98 55 152 C47.47 152.03 39.94 152.04 32.41 152.05 C29.85 152.06 27.28 152.07 24.72 152.08 C21.04 152.09 17.37 152.09 13.69 152.1 C12.54 152.1 11.38 152.11 10.19 152.11 C8.6 152.11 8.6 152.11 6.98 152.11 C6.04 152.12 5.1 152.12 4.13 152.12 C3.08 152.06 3.08 152.06 2 152 C1.67 151.67 1.34 151.34 1 151 C-0.43 144.07 -0.13 137.03 -0.11 129.99 C-0.11 128.57 -0.11 127.15 -0.11 125.73 C-0.11 121.89 -0.11 118.05 -0.1 114.21 C-0.1 110.2 -0.09 106.18 -0.09 102.16 C-0.09 94.56 -0.08 86.96 -0.07 79.36 C-0.06 70.71 -0.06 62.05 -0.05 53.39 C-0.04 35.6 -0.02 17.8 0 0 Z " fill="#FDFDFA" transform="translate(753,316)"/>
<path d="M0 0 C0.66 0 1.32 0 2 0 C2.02 15.18 2.04 30.36 2.05 45.53 C2.06 52.58 2.06 59.63 2.08 66.68 C2.09 73.49 2.09 80.3 2.09 87.1 C2.1 89.7 2.1 92.29 2.11 94.88 C2.11 98.52 2.11 102.16 2.11 105.81 C2.12 106.87 2.12 107.93 2.12 109.02 C2.11 116.06 1.68 123 1 130 C-0.32 130.33 -1.64 130.66 -3 131 C-2.51 130.17 -2.51 130.17 -2.02 129.33 C-0.88 127.04 -0.88 127.04 -0.74 124.52 C-0.73 123.59 -0.73 122.66 -0.72 121.7 C-0.71 120.62 -0.7 119.55 -0.69 118.44 C-0.69 117.27 -0.68 116.1 -0.68 114.89 C-0.67 113.65 -0.66 112.41 -0.65 111.13 C-0.63 107.74 -0.61 104.34 -0.6 100.95 C-0.58 97.4 -0.55 93.85 -0.53 90.3 C-0.48 83.58 -0.44 76.87 -0.41 70.15 C-0.37 62.5 -0.32 54.85 -0.27 47.2 C-0.17 31.47 -0.08 15.73 0 0 Z " fill="#DAD6CE" transform="translate(924,133)"/>
<path d="M0 0 C1.71 -0.07 3.42 -0.08 5.12 -0.06 C6.04 -0.05 6.95 -0.04 7.88 -0.04 C8.93 -0.02 8.93 -0.02 10 0 C10 0.66 10 1.32 10 2 C8.84 2.09 8.84 2.09 7.66 2.18 C6.66 2.27 5.66 2.35 4.62 2.44 C3.13 2.56 3.13 2.56 1.6 2.68 C-0.98 2.85 -0.98 2.85 -3 4 C-3.03 5.65 -3.05 7.29 -3.06 8.94 C-3.07 9.85 -3.09 10.77 -3.1 11.71 C-3.07 12.47 -3.03 13.22 -3 14 C-2.67 14.33 -2.34 14.66 -2 15 C9.1 16.8 20.67 16.08 31.88 16 C35.73 15.97 39.58 15.95 43.43 15.94 C44.3 15.93 45.17 15.92 46.07 15.91 C50.5 15.89 54.64 16.1 59 17 C58.67 17.66 58.34 18.32 58 19 C50.54 18.94 43.08 18.86 35.62 18.76 C32.16 18.72 28.7 18.68 25.23 18.65 C21.25 18.62 17.26 18.57 13.27 18.51 C12.04 18.51 10.8 18.5 9.52 18.49 C1.07 18.35 1.07 18.35 -2.15 17.3 C-3.83 16.47 -3.83 16.47 -6 15 C-6.99 18.46 -6.99 18.46 -8 22 C-8.33 22 -8.66 22 -9 22 C-9.33 15.07 -9.66 8.14 -10 1 C-9.34 1 -8.68 1 -8 1 C-7.34 2.32 -6.68 3.64 -6 5 C-5.38 4.36 -4.76 3.72 -4.12 3.06 C-2 1 -2 1 0 0 Z " fill="#E0DDD6" transform="translate(639,466)"/>
<path d="M0 0 C0.33 0 0.66 0 1 0 C1.13 8.07 1.26 16.14 1.39 24.2 C1.45 27.95 1.51 31.7 1.57 35.45 C1.63 39.08 1.69 42.71 1.75 46.34 C1.78 48.37 1.81 50.4 1.85 52.43 C1.93 57.78 2.01 63.14 1.98 68.49 C1.97 69.23 1.97 69.97 1.97 70.73 C1.96 72.16 1.94 73.59 1.92 75.02 C1.91 76.68 1.95 78.34 2 80 C2.33 80.33 2.66 80.66 3 81 C4.56 81.16 6.13 81.25 7.69 81.32 C8.64 81.36 9.58 81.4 10.55 81.44 C11.55 81.48 12.54 81.52 13.56 81.56 C15.06 81.63 15.06 81.63 16.58 81.69 C19.06 81.8 21.53 81.9 24 82 C24 82.33 24 82.66 24 83 C20.19 83.03 16.38 83.05 12.56 83.06 C11.47 83.07 10.39 83.08 9.26 83.09 C8.23 83.09 7.19 83.09 6.13 83.1 C5.17 83.1 4.21 83.11 3.22 83.11 C2.12 83.06 2.12 83.06 1 83 C0.67 82.67 0.34 82.34 0 82 C-0.1 79.44 -0.13 76.92 -0.11 74.36 C-0.11 73.56 -0.11 72.76 -0.11 71.94 C-0.11 69.28 -0.11 66.62 -0.1 63.96 C-0.1 62.13 -0.09 60.29 -0.09 58.45 C-0.09 53.61 -0.08 48.76 -0.07 43.92 C-0.06 38.98 -0.05 34.04 -0.05 29.1 C-0.04 19.4 -0.02 9.7 0 0 Z " fill="#FDFDFB" transform="translate(818,181)"/>
<path d="M0 0 C0.66 0 1.32 0 2 0 C2.33 0.99 2.66 1.98 3 3 C21.81 3.5 21.81 3.5 41 4 C41 4.66 41 5.32 41 6 C35.48 6.05 29.96 6.09 24.45 6.11 C22.57 6.12 20.69 6.13 18.81 6.15 C16.12 6.18 13.42 6.19 10.73 6.2 C9.88 6.21 9.04 6.22 8.17 6.23 C6.11 6.23 4.06 6.12 2 6 C1.34 5.34 0.68 4.68 0 4 C0 2.68 0 1.36 0 0 Z " fill="#E3E1DA" transform="translate(706,258)"/>
<path d="M0 0 C1.39 1.21 1.39 1.21 3 3 C3.95 5.26 3.95 5.26 4.69 7.69 C4.94 8.5 5.19 9.3 5.45 10.14 C5.63 10.75 5.81 11.37 6 12 C5.34 12 4.68 12 4 12 C3.34 11.34 2.68 10.68 2 10 C1.34 10 0.68 10 0 10 C0 24.19 0 38.38 0 53 C-0.33 53 -0.66 53 -1 53 C-1.03 45.77 -1.04 38.55 -1.05 31.32 C-1.06 28.86 -1.07 26.4 -1.08 23.94 C-1.09 20.41 -1.09 16.88 -1.1 13.35 C-1.1 12.25 -1.11 11.14 -1.11 10 C-1.11 8.98 -1.11 7.96 -1.11 6.91 C-1.12 6.01 -1.12 5.11 -1.12 4.18 C-1.08 3.46 -1.04 2.74 -1 2 C-0.67 1.34 -0.34 0.68 0 0 Z " fill="#D0C9BF" transform="translate(818,171)"/>
<path d="M0 0 C0.33 0 0.66 0 1 0 C1.33 6.6 1.66 13.2 2 20 C6.26 20.71 9.65 21.11 13.88 21.06 C15.33 21.05 15.33 21.05 16.8 21.04 C17.89 21.02 17.89 21.02 19 21 C19 21.66 19 22.32 19 23 C15.85 23.03 12.71 23.05 9.56 23.06 C8.66 23.07 7.77 23.08 6.84 23.09 C5.56 23.09 5.56 23.09 4.25 23.1 C3.46 23.1 2.67 23.11 1.86 23.11 C1.24 23.08 0.63 23.04 0 23 C-0.33 22.67 -0.66 22.34 -1 22 C-1.1 20.54 -1.13 19.07 -1.13 17.6 C-1.13 16.26 -1.13 16.26 -1.14 14.9 C-1.13 13.96 -1.13 13.03 -1.12 12.06 C-1.13 11.13 -1.13 10.2 -1.14 9.24 C-1.14 8.34 -1.13 7.45 -1.13 6.54 C-1.13 5.71 -1.13 4.89 -1.13 4.05 C-1.09 3.37 -1.04 2.7 -1 2 C-0.67 1.34 -0.34 0.68 0 0 Z " fill="#FCFBF7" transform="translate(522,240)"/>
<path d="M0 0 C1.7 0.25 3.38 0.58 5.06 0.94 C5.98 1.13 6.9 1.33 7.85 1.53 C8.91 1.76 8.91 1.76 10 2 C10 2.33 10 2.66 10 3 C8.97 3.02 7.93 3.04 6.87 3.06 C3.02 3.14 -0.83 3.23 -4.68 3.32 C-6.34 3.36 -8.01 3.39 -9.67 3.42 C-12.06 3.47 -14.46 3.53 -16.86 3.59 C-17.6 3.6 -18.34 3.61 -19.1 3.62 C-22.18 3.71 -24.92 3.98 -27.88 4.84 C-28.93 5.41 -28.93 5.41 -30 6 C-30.99 7.49 -30.99 7.49 -32 9 C-32.45 11.22 -32.81 13.45 -33.12 15.69 C-33.29 16.87 -33.46 18.05 -33.63 19.26 C-33.75 20.17 -33.88 21.07 -34 22 C-34.33 22 -34.66 22 -35 22 C-35.18 18.32 -35.24 14.68 -35 11 C-33.75 7.5 -33.75 7.5 -32 5 C-30.28 3.37 -30.28 3.37 -28 2 C-25.08 1.58 -25.08 1.58 -21.74 1.52 C-20.54 1.49 -19.34 1.46 -18.1 1.43 C-16.85 1.41 -15.6 1.39 -14.31 1.38 C-11.83 1.32 -9.35 1.27 -6.86 1.21 C-5.76 1.19 -4.66 1.18 -3.53 1.16 C-2.69 1.11 -1.86 1.05 -1 1 C-0.67 0.67 -0.34 0.34 0 0 Z " fill="#F9F8F5" transform="translate(737,304)"/>
<path d="M0 0 C2.16 -0.29 2.16 -0.29 4.62 -0.19 C5.44 -0.16 6.26 -0.13 7.1 -0.11 C8.04 -0.05 8.04 -0.05 9 0 C9 0.33 9 0.66 9 1 C6.36 1.66 3.72 2.32 1 3 C4.92 9.07 9.63 13.48 15.22 18.02 C18.04 20.03 20.87 21.54 24 23 C23.67 23.66 23.34 24.32 23 25 C15.45 20.91 9.01 16.15 3 10 C1.15 7.73 -0.42 5.47 -2 3 C-1.34 2.01 -0.68 1.02 0 0 Z " fill="#F0EDE6" transform="translate(268,486)"/>
<path d="M0 0 C3.25 -0.31 3.25 -0.31 6 0 C5.67 0.66 5.34 1.32 5 2 C3.34 2.37 1.67 2.71 0 3 C-0.33 3.33 -0.66 3.66 -1 4 C-1.5 6.83 -1.5 6.83 -1 10 C0.65 11.69 2.31 13.36 4 15 C3.65 17.15 3.65 17.15 3 19 C0.73 18.55 -1.54 18.09 -3.81 17.62 C-5.08 17.37 -6.34 17.11 -7.64 16.85 C-11 16 -11 16 -14 14 C-8.99 14.62 -3.99 15.27 1 16 C0.36 15.3 -0.28 14.6 -0.94 13.88 C-3 11 -3 11 -4 8 C-4 7.01 -4 6.02 -4 5 C-3.48 4.05 -2.97 3.1 -2.44 2.12 C-1.63 1.42 -0.83 0.72 0 0 Z " fill="#FBF8F0" transform="translate(838,779)"/>
<path d="M0 0 C3 -0.5 3 -0.5 6 0 C8.38 1.5 8.38 1.5 10 3 C9.67 3.66 9.34 4.32 9 5 C8.44 4.48 7.89 3.97 7.31 3.44 C6.55 2.96 5.79 2.49 5 2 C2.34 2.15 2.34 2.15 0 3 C-0.33 3.33 -0.66 3.66 -1 4 C-0.72 6.34 -0.38 8.67 0 11 C0.33 13.33 0.67 15.67 1 18 C-1.19 17.69 -1.19 17.69 -4 17 C-6.81 15.44 -6.81 15.44 -9 14 C-8.34 13.67 -7.68 13.34 -7 13 C-4.38 13.94 -4.38 13.94 -2 15 C-2.14 14.28 -2.29 13.56 -2.44 12.81 C-2.62 11.88 -2.81 10.96 -3 10 C-3.27 9.17 -3.54 8.35 -3.81 7.5 C-3.91 6.26 -3.91 6.26 -4 5 C-2.44 2.19 -2.44 2.19 0 0 Z " fill="#F8F4EB" transform="translate(319,699)"/>
<path d="M0 0 C1.3 0.59 2.59 1.2 3.88 1.81 C4.59 2.15 5.31 2.49 6.05 2.83 C6.7 3.22 7.34 3.6 8 4 C8.99 5.49 8.99 5.49 10 7 C9.42 6.69 8.85 6.38 8.25 6.06 C6.11 5.05 4.31 4.48 2 4 C0.55 3.91 -0.91 3.87 -2.37 3.87 C-3.19 3.87 -4.01 3.86 -4.86 3.86 C-5.71 3.87 -6.56 3.87 -7.44 3.88 C-8.28 3.87 -9.13 3.87 -10 3.86 C-14.13 3.87 -17.98 3.96 -22 5 C-20.75 3.56 -20.75 3.56 -19 2 C-16.43 1.08 -14.34 0.99 -11.58 0.94 C-9.72 0.97 -9.72 0.97 -7.81 1 C-5.54 1.04 -3.27 1.05 -1 1 C-0.67 0.67 -0.34 0.34 0 0 Z " fill="#F8F6F0" transform="translate(398,434)"/>
<path d="M0 0 C1.73 0.31 1.73 0.31 4 1 C6.14 2.41 6.14 2.41 8.25 4.06 C8.96 4.61 9.66 5.16 10.39 5.72 C11.19 6.35 11.19 6.35 12 7 C11.67 5.35 11.34 3.7 11 2 C11.66 2 12.32 2 13 2 C13.33 2.66 13.66 3.32 14 4 C14.07 5.71 14.08 7.42 14.06 9.12 C14.05 10.04 14.04 10.95 14.04 11.88 C14.02 12.58 14.01 13.28 14 14 C11.9 11.95 9.99 9.83 8.12 7.56 C5.66 4.65 3.08 2.27 0 0 Z " fill="#F7F5F0" transform="translate(864,768)"/>
<path d="M0 0 C0.33 0 0.66 0 1 0 C1.16 0.9 1.16 0.9 1.33 1.83 C1.81 4.25 2.32 6.62 3 9 C3.8 10.05 3.8 10.05 4.62 11.12 C5.08 11.74 5.53 12.36 6 13 C6.19 16.75 6.19 16.75 6 20 C4.02 19.34 2.04 18.68 0 18 C1.32 17.67 2.64 17.34 4 17 C3.05 13.85 2.16 11.24 0.31 8.5 C-0.12 7.67 -0.55 6.85 -1 6 C-0.69 2.69 -0.69 2.69 0 0 Z " fill="#F5F3EC" transform="translate(692,872)"/>
<path d="M0 0 C0.33 0 0.66 0 1 0 C1.05 0.9 1.1 1.81 1.15 2.74 C1.22 3.92 1.3 5.1 1.38 6.31 C1.44 7.48 1.51 8.66 1.59 9.86 C1.72 10.9 1.86 11.93 2 13 C2.99 14.49 2.99 14.49 4 16 C2.35 15.67 0.7 15.34 -1 15 C-1.03 12.69 -1.05 10.38 -1.06 8.06 C-1.07 6.77 -1.09 5.49 -1.1 4.16 C-1.07 3.12 -1.03 2.07 -1 1 C-0.67 0.67 -0.34 0.34 0 0 Z " fill="#FBFBF8" transform="translate(634,520)"/>
<path d="M0 0 C0.66 0 1.32 0 2 0 C2.33 0.66 2.66 1.32 3 2 C3.07 3.71 3.08 5.42 3.06 7.12 C3.05 8.04 3.04 8.95 3.04 9.88 C3.02 10.58 3.01 11.28 3 12 C2.34 11.67 1.68 11.34 1 11 C-0.12 8.75 -0.12 8.75 -1 6 C-1.19 3.25 -1.19 3.25 -1 1 C-0.67 0.67 -0.34 0.34 0 0 Z " fill="#F5F3ED" transform="translate(732,866)"/>
<path d="M0 0 C0.99 0.33 1.98 0.66 3 1 C4.25 3.38 4.25 3.38 5 6 C4.67 6.99 4.34 7.98 4 9 C2.51 6.03 2.51 6.03 1 3 C0.54 3.41 0.08 3.82 -0.39 4.24 C-1 4.78 -1.62 5.32 -2.25 5.88 C-3.15 6.68 -3.15 6.68 -4.08 7.49 C-5.97 8.98 -7.81 10 -10 11 C-6.79 7.19 -3.59 3.45 0 0 Z " fill="#FBF9F2" transform="translate(443,302)"/>
<path d="M0 0 C1.79 -0.05 3.58 -0.09 5.38 -0.12 C6.37 -0.15 7.37 -0.17 8.4 -0.2 C9.26 -0.13 10.12 -0.07 11 0 C11.66 0.66 12.32 1.32 13 2 C13.2 4.6 13.2 4.6 13.12 7.62 C13.11 8.63 13.09 9.63 13.07 10.66 C13.04 11.82 13.04 11.82 13 13 C11.86 10.94 11.04 9.18 10.59 6.86 C10.39 4.91 10.2 2.95 10 1 C6.7 1 3.4 1 0 1 C0 0.67 0 0.34 0 0 Z " fill="#D4D1C7" transform="translate(854,930)"/>
<path d="M0 0 C1.18 0.14 2.35 0.29 3.56 0.44 C4.29 0.53 5.02 0.62 5.77 0.71 C7.79 0.97 9.8 1.3 11.81 1.62 C13.39 1.81 13.39 1.81 15 2 C15.99 1.67 16.98 1.34 18 1 C17.67 2.32 17.34 3.64 17 5 C14.73 4.55 12.46 4.09 10.19 3.62 C8.92 3.37 7.66 3.11 6.36 2.85 C3 2 3 2 0 0 Z " fill="#F2F0EA" transform="translate(824,793)"/>
<path d="M0 0 C0.99 0.33 1.98 0.66 3 1 C0.56 2.01 -1.87 3.01 -4.31 4 C-5.35 4.43 -5.35 4.43 -6.4 4.87 C-8.25 5.62 -10.13 6.31 -12 7 C-12.99 7 -13.98 7 -15 7 C-15 5.35 -15 3.7 -15 2 C-14.34 2.66 -13.68 3.32 -13 4 C-9.03 3.65 -5.51 2.07 -1.87 0.52 C-1.25 0.35 -0.63 0.18 0 0 Z " fill="#FAF9F5" transform="translate(834,143)"/>
<path d="M0 0 C1.5 1.19 1.5 1.19 3 3 C3.19 5.69 3.19 5.69 3 8 C0.81 7.69 0.81 7.69 -2 7 C-4.81 5.44 -4.81 5.44 -7 4 C-6.34 3.67 -5.68 3.34 -5 3 C-2.38 3.94 -2.38 3.94 0 5 C0 3.35 0 1.7 0 0 Z " fill="#EFF0E7" transform="translate(317,709)"/>
<path d="M0 0 C0.66 1.32 1.32 2.64 2 4 C1.34 4 0.68 4 0 4 C0 4.66 0 5.32 0 6 C4.45 6.99 4.45 6.99 9 8 C9 8.33 9 8.66 9 9 C7.74 8.88 6.48 8.75 5.19 8.62 C4.48 8.56 3.77 8.49 3.04 8.41 C2.37 8.28 1.69 8.14 1 8 C0.01 7.34 -0.98 6.68 -2 6 C-1.7 4.33 -1.36 2.66 -1 1 C-0.67 0.67 -0.34 0.34 0 0 Z " fill="#F3F0E9" transform="translate(278,619)"/>
<path d="M0 0 C0.99 0.33 1.98 0.66 3 1 C3 3.31 3 5.62 3 8 C2.67 8 2.34 8 2 8 C1.67 6.35 1.34 4.7 1 3 C-4.44 3.99 -4.44 3.99 -10 5 C-6 2 -6 2 -2.94 0.75 C-1.97 0.5 -1 0.25 0 0 Z " fill="#F9F7F2" transform="translate(476,443)"/>
<path d="M0 0 C2 3 2 3 2.75 5.12 C3.37 6.05 3.37 6.05 4 7 C7.06 7.82 7.06 7.82 10 8 C8.25 9.06 8.25 9.06 6 10 C4.95 9.97 4.95 9.97 3.88 9.94 C3.26 9.63 2.64 9.32 2 9 C0.75 6.69 0.75 6.69 0 4 C0 2.68 0 1.36 0 0 Z " fill="#F9F8F4" transform="translate(256,466)"/>
<path d="M0 0 C0.33 0 0.66 0 1 0 C1.08 1.62 1.14 3.25 1.19 4.88 C1.22 5.78 1.26 6.68 1.29 7.62 C1.2 8.4 1.1 9.19 1 10 C0.01 10.66 -0.98 11.32 -2 12 C-4.69 12.12 -4.69 12.12 -7 12 C-5 10.67 -3 9.33 -1 8 C-0.42 6.04 -0.42 6.04 -0.31 3.88 C-0.21 2.6 -0.11 1.32 0 0 Z " fill="#CACFC3" transform="translate(703,318)"/>
<path d="M0 0 C3.3 0 6.6 0 10 0 C10.33 0.99 10.66 1.98 11 3 C9.54 2.89 8.08 2.76 6.62 2.62 C5.41 2.52 5.41 2.52 4.16 2.41 C3.09 2.21 3.09 2.21 2 2 C1.34 1.34 0.68 0.68 0 0 Z " fill="#FBF8F0" transform="translate(450,745)"/>
<path d="M0 0 C1.99 2.99 2.94 5.6 4 9 C2.68 8.67 1.36 8.34 0 8 C0 5.36 0 2.72 0 0 Z " fill="#F7F3EB" transform="translate(698,608)"/>
<path d="M0 0 C0.99 0.33 1.98 0.66 3 1 C2.34 1 1.68 1 1 1 C0.67 4.63 0.34 8.26 0 12 C-0.33 12 -0.66 12 -1 12 C-1.22 10.38 -1.43 8.75 -1.62 7.12 C-1.74 6.22 -1.86 5.32 -1.98 4.38 C-1.98 3.6 -1.99 2.81 -2 2 C-1.34 1.34 -0.68 0.68 0 0 Z " fill="#E1DBD3" transform="translate(832,932)"/>
<path d="M0 0 C2.48 0.14 2.48 0.14 5.19 0.81 C6.54 1.13 6.54 1.13 7.92 1.46 C8.61 1.64 9.29 1.82 10 2 C10 2.33 10 2.66 10 3 C5.71 3 1.42 3 -3 3 C-2.01 2.01 -1.02 1.02 0 0 Z " fill="#FEFEFC" transform="translate(737,304)"/>
</svg>
