<svg xmlns="http://www.w3.org/2000/svg" width="1365.333" height="1365.333" preserveAspectRatio="xMidYMid meet" version="1.0" viewBox="0 0 1024 1024"><g fill="#000" stroke="none"><path d="M510.7 53.5c-1.5.9-3.2 2.6-3.6 3.8s-.9 32.1-1 68.7c0 36.6-.4 100.8-.7 142.7l-.7 76.3h-12.2c-11.6 0-12.3.1-14.4 2.4-2.1 2.2-2.2 2.8-1.1 6.1 1.8 5.6 4.7 6.9 13.6 6.2 8.4-.8 38.9 1.5 53.4 3.9 17.7 3 32.7 9.3 41.3 17.2 18.5 17.4 26 40.4 30.1 93.2 3.2 40.2 4 57 2.9 58.1-2.2 2.2-73.1-9.1-101.3-16.1-19.2-4.9-45-14.6-45-17.1 0-.4 2-3.7 4.5-7.3 2.5-3.5 5.6-8.8 6.9-11.8s3.1-6 4-6.7c1.7-1.4 1.2-1.5 24.3 3.6 15.4 3.4 16.3 3.5 18.7 1.9 2.9-1.9 4.4-6.1 2.9-8.5-1.7-2.9-7.6-5-21.3-7.6-7.4-1.4-14.8-2.9-16.5-3.4l-3-.7.3-8.5c.2-4.9.8-8.9 1.5-9.5 1.5-1.5 17.6-4.9 31.7-6.8 8.5-1.2 10.8-1.9 12.2-3.6 2.3-2.9 2.3-5.5-.2-8-2.8-2.8-9.8-2.6-28.3.5-8.2 1.4-15.2 2.3-15.7 2-.4-.2-1.1-2.6-1.5-5.2-1.6-11.1-8.8-29.5-16.9-43.8-4.3-7.5-4.6-8.4-4.6-15.6 0-23.5-9.3-65.3-16-72-3.7-3.8-9-4.6-14.1-2.4-8.1 3.7-26.1 24.4-40.2 46.5l-4.2 6.5-11.5-.3c-11.8-.4-28.7 1.4-45.5 4.7l-9 1.7-9-9c-16.4-16.6-35.6-31.4-43.8-33.8-6.3-1.9-11.6.5-14.5 6.4-3.6 7.2-6.4 23.2-8.7 49.3-.2 2.7-.7 11.4-1.1 19.3-.5 12.4-.9 14.8-2.9 18.5-1.3 2.3-4 9.1-6 15-2.9 8.6-3.7 13-4.2 21.3-.3 5.7-1.1 10.8-1.7 11.3s-9.2 1.1-19.1 1.3c-20.9.4-23.5 1.2-23.5 7.3 0 5.2 2.7 6.5 13 6.4 4.7 0 12.6-.4 17.5-.8 12.4-1 12.9-.8 14.9 8.1.9 4 1.9 8.9 2.2 10.9l.6 3.6-6.3 2.6c-29.3 12-26.7 11.5-42.7 7.8-17.2-3.9-33.7-5.3-65.2-5.5-37.8-.1-64.4 2.2-87.3 7.5-9.9 2.4-13.9 5-15.8 10.6-2 6.3-.4 21.8 5 47.8 2.7 13.2 9.5 46 15 73 5.6 26.9 11.3 53.8 12.7 59.8 2.2 9.2 2.4 11.1 1.3 12.2-.9.7-8 1.7-19.4 2.4-21.9 1.5-25 2.6-25 8.5 0 3 .6 4.3 2.6 5.8 2.8 2.1 5.3 2 35.9-1.7 10.9-1.3 11.8-1.3 17.5.7 6.8 2.3 5.4 2.4 59.5-3.8 16.8-1.9 38.4-4.3 48-5.4 9.6-1 20-2.2 23.1-2.6 4.1-.5 7.7-.1 14 1.4 4.6 1.2 17 3.2 27.5 4.6 26.9 3.4 34.5 6.1 59.2 20.9 19.9 11.8 36.6 13.6 53.7 5.6l6.4-3 11.5 4.5c6.4 2.6 17.3 7.1 24.3 10.2 24.2 10.5 38.7 15 74.2 22.9 21.3 4.8 24.3 5.7 22.1 7-.7.4-22.2 2.3-47.9 4.1-25.6 1.8-56.7 4-69.1 4.9s-29.5 2.1-38 2.6c-12.9.7-67.1 4.6-92 6.4-3.6.3-29.7 2.1-58 4.1-44.2 3-51.9 3.8-54 5.3-3.4 2.4-3.8 7.3-.9 10.2 2.1 2.1 2.7 2.2 14.8 1.5 15-.8 40.1-2.6 95.1-6.7 22.3-1.7 47.5-3.5 56-3.9 13.6-.8 37.6-2.4 87-6 7.4-.5 18.5-1.2 24.5-1.5 17.8-1 73.3-5.3 95.5-7.5 27.8-2.7 29-2.7 36.3 1.2 9 4.8 15.5 11.4 28.1 28.2 13.4 17.9 18.1 22.5 30.1 30.1 18.9 12 21.5 13.7 21.5 14.6 0 1.4 3.3 1-92 9.9-17.9 1.7-37.9 3.5-44.5 4-6.6.6-31.3 2.8-55 5-23.6 2.2-52 4.6-63 5.5-18.4 1.4-48 3.8-78 6.5-6.6.6-17.4 1.5-24 2s-25.5 2-42 3.4-33.1 2.8-37 3.1c-3.8.3-17.3 1.4-30 2.5-31.4 2.8-34.5 2.1-32.5-7.6.6-2.7 1.4-16.8 1.7-31.4.6-28.6-.3-40.1-3.8-49.6-4.6-12.1-16.8-22.6-33.6-28.7C73.7 779.2 26 765 22 765c-3.9 0-7 2.7-7 5.9 0 4.8 2.7 6.7 14.3 10.1 27.2 7.9 58.8 18.5 65.2 21.8 8.4 4.4 14 9.8 16.7 16 5.1 11.4 5.1 67.4.1 78-2.2 4.6-7 6.6-14.3 5.9-3.1-.3-19.8-5.3-38.5-11.6-18.1-6.1-33.9-11.1-35-11.1s-3.1.7-4.3 1.6c-3.2 2.2-2.7 8 .8 10.5 1.4 1 19.1 7.5 39.4 14.3 20.3 6.9 37.2 13 37.7 13.7.4.7.8 15.8.8 33.7.1 34.5.5 38.7 4.8 43 2.4 2.4 2.8 2.5 12.6 1.9 5.6-.3 19.9-1.5 31.7-2.7 60-5.8 73-7 90-8.5 10.2-.8 26.6-2.2 36.5-3.1 9.9-.8 34.7-3.1 55-5 20.4-1.9 49.2-4.6 64-5.9 14.9-1.3 49.3-4.5 76.5-7 27.2-2.6 56.3-5.2 64.5-6 20.2-1.8 35.1-3.3 46.5-4.5 9.1-.9 18.7-1.8 81-7.5 15.1-1.4 31.8-2.9 37-3.5 19.8-2.1 104.8-10 111-10.2l6.4-.3 1.3 5.6c.7 3 2.4 12.1 3.7 20.1 1.4 8.1 3.3 16.5 4.2 18.8 2.6 6.5 5 7.2 24.3 7.4 14.9.1 16.9-.1 20-1.9 6-3.6 7.1-5.9 9.1-21.1 1-7.6 2.1-18.2 2.5-23.5.4-5.2 1-10.1 1.4-10.7.4-.7 4.1-1.6 8.2-2.1 19.8-2.6 32.1-10.1 37.5-23 4-9.5 5.9-38.8 7.9-118.6 1.4-62.3 1.3-61 10-70.5 5.9-6.4 9.2-12.2 12.6-22.1 3.3-9.8 3.9-34.3 1.1-45.6-4.3-17-13.7-30.8-27.6-40.8-15.5-11-41.8-18.3-89.1-24.5-8.3-1.1-34.3-4.6-58-7.9-23.6-3.3-49.5-6.7-57.5-7.6-14.4-1.6-14.6-1.7-21-6-16.1-10.8-33.9-17.5-60.4-22.6-2.7-.5-6.6-1.4-8.8-1.9l-3.8-1.1V528c0-22.1-6.7-89.6-10.7-107.5-4.4-20-16.2-41.1-28.8-51.8-14.6-12.4-29.9-17.4-68.3-22.3l-4.3-.5.3-32.7c.2-18 .7-33.3 1.2-34.1.8-1.2 28.4-1.3 190.5-.7 191 .7 209.8 1 211.6 2.7 1 1 .8 165-.3 178.8-.7 8.3-.7 8.5-3.7 9.3-4 1.1-16.2-.1-17.5-1.7-.7-.9-.8-24-.2-75.6.5-40.9.5-75.9.1-77.8s-1.9-4.6-3.4-6l-2.6-2.6-18.7.3c-10.2.2-19.4.8-20.4 1.3-3.2 1.7-4.8 6.4-4.8 14.3 0 4.4-.5 7.8-1.1 8.2-.6.3-8.8.8-18.2 1.1-9.4.2-17.8.8-18.8 1.3-1 .6-2.2 2.5-2.7 4.2-.6 2-1.3 29.4-1.7 66.3-.4 42.1-1 63.4-1.7 64.3-.8.9-7 1.2-27.7 1l-26.6-.3-.6-3c-.4-1.7-.7-36.4-.8-77.2l-.1-74.2-2.2-2.5c-2.2-2.4-2.8-2.5-20.3-3.1-11.4-.4-19.1-.2-20.7.4-4 1.5-5.5 4.8-6.1 12.9-.2 4-.7 7.6-1.1 8s-8.9.9-18.9 1.2l-18.2.5-1.7 3.5c-1.6 3.1-1.8 7.6-1.9 44.5-.1 22.5-.4 51.8-.8 65l-.6 24-11.7.5c-7.6.3-12.2 1-13 1.8-.7.7-1.2 3.1-1.2 5.3.2 7.9-7.1 7.3 90.7 7.6 47.9.1 111.9.4 142.2.7 51.5.5 55 .6 56.3 2.3 1.2 1.5 1.3 10.4.9 54l-.6 52.3 2.6 2c3.4 2.6 7.6 2.5 10.7-.3l2.4-2.2.6-134.5c.3-74 .7-193.8.8-266.3.2-129.8.1-131.8-1.8-133.7s-3.9-2-36.9-2.5c-80.7-1.1-129.9-1.5-256-2.1-121-.5-133.3-.4-135.8 1.1M829.9 69c80.8.9 91.7 1.2 93.9 2.6l2.4 1.6-.5 94.6c-.7 108.1.4 97.5-10.2 97-5.2-.3-6.1-.6-7.2-2.8-.7-1.4-5.5-13.5-10.7-27-8.4-21.7-13.3-33.9-32.5-80.9-3.2-8-5.4-12-7.4-13.5-2.7-2-2.9-2-9.2-.4-3.5 1-11.3 3.5-17.2 5.8-5.8 2.2-11 4-11.4 4-1.1 0-1.9-4.4-2.8-16.8-1.1-16.2-.5-15.8-21.9-15.4-9.2.2-17.5.5-18.5.8-.9.3-2.2 1.5-2.9 2.7-1.5 2.7-2.6 45.3-2.7 100.4-.1 34.2-.3 39.4-1.7 40.7-1.3 1.4-5.5 1.6-30.5 1.6-17 0-29.8-.4-30.9-1-1.7-.9-1.8-4.4-1.8-75.8 0-41.2-.3-75.9-.7-77-1.3-4.4-5.1-5.2-24.3-5.2-18.7 0-23.5.8-25.3 4.2-.7 1.3-1.1 27.2-1.3 76.8-.2 41.1-.7 75.3-1 75.9-.9 1.3-9.5 1.4-11.6.1-1.3-.8-1.5-9.9-1.5-70.7 0-72.9-.1-73.4-4.2-74.7-1-.3-9.6-.8-19.2-1.1s-17.6-.7-17.8-.9c-.4-.3-.9-6.1-1.2-12.9 0-1.7-1.3-4-3-5.8l-2.9-2.9h-20.5c-23.2 0-24 .2-25.7 7.5-.6 2.3-1 37.8-1 82.1 0 65.6-.2 78.3-1.4 79.3-.9.8-5 1.1-11.7.9l-10.4-.3v-53c0-29.2.2-72.8.5-97l.5-44 16-.5c24.4-.8 188.9-.2 291.4 1m-138.7 51.8c1 1 1.4 15.2 1.6 69.5.2 58.2 0 68.5-1.2 70.2-1.3 1.8-2.6 2-11.4 2-5.5 0-10.4-.4-10.9-.8-.4-.5-.9-32.2-1.1-70.4-.2-53.6 0-69.9 1-71 1.6-1.9 20-1.5 22 .5M626 132.5c.9 2.3 1.1 23.7 1 99.7 0 22.9-.2 26.9-1.6 28.2-2.1 2.2-23.5 2.3-25.3.2-.9-1-1.2-18.2-1.2-64.7-.1-34.9 0-64 0-64.7.1-.9 3.4-1.2 13.1-1.2 13 0 13.1 0 14 2.5m177.5 1.2c1.2 2.9.6 127.5-.7 129-.7.9-3.7 1.3-8.9 1.3-7.2 0-7.8-.2-8.5-2.3-1.4-4-.2-126.5 1.2-128.8.3-.5 4-.9 8.4-.9 6.5 0 7.9.3 8.5 1.7m23.5 56.8c6.7 16.8 18 46.3 24.9 65.2l3 8.3H837c-9.8 0-18.1-.3-18.3-.8-.8-1.3-1.9-86.6-1.1-89.5.3-1.6 1-2.5 1.4-2 .4.4 4 8.9 8 18.8M447.7 309.2c4.2 12.3 7.3 31.3 8.1 48.5.7 14.6 1 16.5 3 19 9.3 11.8 16.6 27.7 19.8 43.4 1.6 7.9 1.6 8.3-.2 9.6-1 .7-2.4 1.3-3.1 1.3s-4.3 1.3-7.8 2.9c-7.1 3.2-9.4 6.5-7.5 10.1 2 3.8 4.3 4.1 10.9 1.4 3.4-1.4 6.6-2.2 7.1-1.9 1.3.8 1.3 8.6.1 11.8-.8 2.2-1.7 2.5-8.7 3.1-8.8.8-10.4 1.7-10.4 5.6 0 3.6 2 5.1 7.5 5.8 2.5.2 4.8.8 5 1.2 1.8 3-12 23.6-19.8 29.5-4.9 3.8-5.7 6.8-2.6 10.1 2.6 2.8 6.8 3.1 10.4.8 2.3-1.5 2.9-1.4 13.7 4 23.6 11.7 52.3 18.9 105 26.6 80.7 11.7 94.6 15.1 114.6 27.4 11.3 7 17.6 13.1 20.8 20.1 5.5 11.9 3.7 21.2-4.9 25.4-4.8 2.3-9.6 2.7-10.2.8-.2-.6-.6-2.9-1-5-.9-5.6-6.7-11.7-11.1-11.7-2.7 0-3.7.5-4.6 2.6-1.1 2.3-.8 3.3 1.7 7.9 2.4 4.5 2.6 5.6 1.6 6.9-2.2 2.6-6 1.9-16.6-3-24.6-11.3-55.8-18.4-80.5-18.4-7 0-8.1.2-9.4 2.2-2.3 3.2-2 6.1.8 8.7 2.1 2 4.1 2.4 13.8 3.2 27.7 2.2 47.4 6.9 66.8 16.1 13.1 6.1 21.3 8.2 30 7.3 6.4-.6 6.7-.4 17.7 4.9 31.7 15.4 50.6 35.1 75.6 78.7 9.5 16.5 6.3 14.4 32.2 21.3 32.4 8.7 42.6 13.1 53.1 22.9 7.3 6.8 9.4 10.7 9.3 17.4 0 4.2-.2 4.5-1.2 2.8-.7-1.1-3.3-4.1-5.9-6.7-7.2-7.3-14.9-7.8-15.6-1.1-.3 2.5.4 3.6 4.2 6.6 4.6 3.8 8.4 11.2 7.3 14.2-.8 2-7.1 4.9-9.1 4.2-.9-.4-2.7-3-3.9-6-3.9-8.7-11.7-13.8-15.7-10.2-2.9 2.6-2.5 6.4 1.1 10.1 1.8 1.9 2.9 3.9 2.6 4.7-.6 1.7-4.1 1.2-16.8-2.2-4.2-1.1-14.8-3.9-23.5-6.1-44-11.4-58.1-16.9-72.9-28.5-9.2-7.2-24.7-17.6-31-20.8-8.5-4.2-21.9-8.5-35.2-11.2-17.7-3.6-17.7-3.6-22.4-11.6-12.8-22.1-28.5-36.1-50.6-45.3-19.6-8.3-45.6-12.6-48.9-8.2-2 2.7-1.8 7 .5 9 1 .9 5.4 2.3 9.7 3 17.7 3.2 27.2 6 37.9 11.4 29.7 14.8 48.2 42.6 58.4 87.7 1.8 7.7 4.1 15.9 5.2 18.2 3.3 6.8 15.3 17.2 35.5 30.5 30.1 19.9 38.4 27.4 44.6 40.5 2.2 4.7 2.8 7.3 2.6 11l-.3 4.8-2.4-5.2c-2.5-5.6-9-12.3-11.8-12.3-2.2 0-5.3 2.9-5.3 4.9 0 .9 1.1 3.3 2.6 5.4 3.6 5.3 5.6 11.6 4.8 15.2-.9 4.2-2.1 5.3-6 6.1-4 .7-6.4-.8-6.4-4 0-6.8-7.1-18.6-11.2-18.6-3 0-5.8 2.9-5.8 5.9 0 1.5 1.1 4.3 2.5 6.3s2.5 5.1 2.5 6.8c0 2.8-.3 3.1-2.2 2.5-5.5-1.6-13.5-6.4-21.1-12.7-17.2-14.1-27.9-21.9-49.7-35.8-12.8-8.2-24.7-16.6-27.5-19.5-2.7-2.7-9.5-11.2-15-18.9-13.8-19.2-20.7-25.1-40.8-34.6-12.3-5.9-29.3-10.9-51-15.1-23.6-4.6-46.4-10.2-61.2-15.2-15.2-5.1-20.1-7.2-39-16.1l-14-6.6.4-8c.7-16.3-6.1-33.1-18.4-45.6-14.5-14.8-34.9-24.9-67.5-33.6-6.3-1.6-12.3-3.4-13.2-3.9-2.6-1.4-2.2-3.8 1.2-8.3 1.7-2.2 3-5 3-6.2 0-2.3-5.1-7.4-7.5-7.4-2 0-7.5 7.4-9.6 13-2.7 7.2-2.5 12.5.7 16.7 3.3 4.4 8 6.4 26.6 11.3 38.7 10.3 61.1 26.3 68.7 48.8 3.2 9.3 2.6 19.2-1.1 19.2-.4 0-1.2-1.9-1.8-4.3-2.8-10.3-9.1-16.8-14.1-14.4-3.5 1.8-3.5 5.7 0 12.9 3.2 6.4 4 11.8 1.9 13.6-.7.5-3.4 1.3-6 1.7-5.3.8-6.1 0-7.2-7.5-1.3-8.9-8.2-17-12.3-14.4-3.4 2.1-3.8 4.1-2 9.1 3.2 9 2.1 9.3-9 2.7-24.2-14.4-37.3-18.6-66.8-21.9-34.8-3.9-50.4-13.6-56-35-1.9-7.5-1.9-13.6.1-23.3 1.9-9.5 9-27 15.1-37.7 11.4-19.9 31.6-45.7 52.3-66.9l14.6-14.9 6.2 4.6c6.5 4.7 15.4 8.7 19.7 8.7 3.6 0 6.5-3.4 6.5-7.4s-.6-4.5-8.4-7.6c-7.5-3-16.5-9.7-22.2-16.7-3.2-4-4.2-5.9-3.4-6.8.5-.7 5-1.8 10-2.4 9-1.3 14-3.6 14-6.6 0-.8-1.1-2.6-2.4-4.1l-2.3-2.8-13.4 2.1c-7.3 1.2-13.6 2-14 1.7-1.4-.8-3.9-9.8-3.9-13.7v-4l12.4.6c11 .5 12.6.4 14-1.2 2-2.2 2.1-5.5.1-7.1-1.1-.9-21.6-4.8-26.6-5-1.7 0-1.8-7.9-.4-16.6 2.1-11.9 4.4-18.6 9.5-28l4-7.3v-12.5c0-6.8.7-20.9 1.5-31.1 1.9-23.1 3.7-31.5 6.8-31.5 2.8 0 21.2 15.1 34.8 28.7 16.6 16.5 13.5 15.3 29.9 11 5.3-1.4 15.6-3.3 22.9-4.2 11.6-1.5 15-1.6 26.3-.5 15.3 1.5 14 2.2 22.8-12 11-17.9 28.6-39.6 31.4-38.7.6.2 2.1 3.3 3.3 6.9m441.7 12.4c.4 1 .4 16.8.1 35.3s-.7 50.4-1 71c-.4 25-.9 37.9-1.6 38.8-.8.9-4 1.3-10.5 1.3-8.2 0-9.5-.2-10.4-1.9-1.9-3.7-.7-141.6 1.4-144.9.5-.8 4-1.2 11.1-1.2 8.6 0 10.4.3 10.9 1.6M702 346.1c.8 1.5.9 18.4.4 60.5-.7 54.6-.8 58.6-2.5 59.4-2.6 1.5-22.2 1.3-23.7-.2-1.7-1.7-1.7-118.9 0-120.6.8-.8 5.1-1.2 13-1.2 10.8 0 11.8.2 12.8 2.1m148.5-1.1c1 .8 1.2 12.9.8 59.3-.2 32-.6 59.2-.8 60.3-.6 2.9-1.2 3-14.5 2.4l-11.5-.5.3-59.9c.1-38.4.6-60.4 1.3-61.2 1.3-1.5 22.6-1.9 24.4-.4M254 496.4c1.6 2.5 3 4.8 3 5.3s-3.8 4.7-8.6 9.3c-7.4 7.4-8.6 8.3-9.5 6.7-.6-.9-1.8-1.7-2.7-1.7-1.4 0-1.7-.7-1.4-4 .4-3.8.2-4.1-4.7-7.1-2.9-1.8-4.8-3.5-4.4-3.9.4-.3 4.2-1.9 8.3-3.4s9.1-3.4 11-4.1c5.2-2 5.6-1.9 9 2.9m498.5 88.1c94 12.2 134.4 18.2 136.8 20.5.5.4-2 2.3-5.5 4.1-8.5 4.5-21.4 17.4-26.3 26.2-8.5 15.4-11.1 29.5-12.1 66.7-.4 14.3-1.1 26.3-1.5 26.6-.5.2-3.2-.2-6.1-1s-11.5-2.9-19.1-4.6c-10.9-2.5-14.5-3.8-16.8-5.8-1.6-1.5-6.7-9.5-11.5-17.7-11.9-20.6-15.9-26-30.4-40.9-13.8-14.1-20.6-19.8-32.2-27-4.3-2.7-7.8-5-7.8-5.3s1.3-2.1 3-3.9c5.3-6.1 7.3-11.2 7.8-19.9.3-6.1-.1-9.5-1.6-14.3l-2-6.2h3.2c1.7 0 11.7 1.1 22.1 2.5m171 34.2c5.7 3 14.7 12.8 17.9 19.6 3.9 8.3 5.6 17.5 5.6 30.7 0 18.3-2.8 26.3-13 37.5-6.6 7.4-9.5 13.7-11 24.5-1 6.7-2 35.2-4 108-1.1 38.2-2.1 51.9-4.2 58.1-4 11.7-12 14.9-40.9 16.4-13.1.7-13.7.7-14.8-1.3-.7-1.3-1-17.4-.8-50.7l.2-48.8 5.4-1.4c9.7-2.4 20.2-10.8 24.9-19.8 2.4-4.4 2.7-6.2 2.7-14.5 0-8.7-.3-10-3-14.9-3.5-6.3-15.4-17.7-23-22-3.8-2.2-5.7-3.9-6.1-5.8-.9-3.5.4-52.3 1.7-62.7 3.5-28.7 15.9-46.9 36.9-53.8 7.4-2.4 19.9-2 25.5.9M663.7 742.4c11.9 2.7 26.4 7.8 28.3 10 1.3 1.7 1.1 1.7-18.1 4.2-7.5.9-14.3 1.5-15.1 1.2s-2.5-3.9-3.7-8c-1.3-4-2.5-7.9-2.8-8.6-.6-1.5-1.5-1.6 11.4 1.2m58 30.5c13.4 8.5 22.3 13 33.4 16.9 10 3.5 65.5 18.6 74.9 20.3 3.6.6 8.2 1.6 10.3 2.1l3.7.9v13.4c0 17.2.2 16.9-14.1 17.8-5.7.4-18.5 1.5-28.4 2.6-21 2.3-50.7 5.2-54.9 5.3-2.1.1-3.5-.7-5-2.8-7.6-10.7-21-22.2-45.1-38.7-28.4-19.4-33.1-24.2-33.8-34.2l-.2-4 5.5-.8c23.3-3.5 37-5.4 39.7-5.6 2.3-.1 6 1.7 14 6.8m122.1 110.7c.1 13.8-.1 26.8-.6 29l-.8 3.9-12.9 1.2c-18.2 1.7-30.8 2.8-63 5.8-15.4 1.4-34.5 3.2-42.5 4s-28.9 2.8-46.5 4.5-34.2 3.3-37 3.5c-14.3 1.4-46 4.3-136 12.5-54.4 4.9-108.4 9.9-120 11-11.5 1.1-36.1 3.3-54.5 5-18.4 1.6-49 4.3-68 6-19 1.6-42.4 3.7-52 4.5-9.6.9-18.6 1.8-20 2s-13.1 1.4-26 2.5-27.9 2.5-33.3 3c-5.4.6-11.8 1-14.2 1H112v-31.4c0-27 .2-31.5 1.5-32.6 1.2-1 4.9-1.2 15.1-.7 13.1.6 24.7-.2 95.9-6.2 6.6-.6 21-1.8 32-2.6 11-.9 40.3-3.4 65-5.5 24.8-2.2 59.2-5.1 76.5-6.5 30.7-2.5 68.6-5.9 100-9 8.5-.8 25.9-2.4 38.5-3.5 23-2 42.7-3.9 86.2-8.1l23.2-2.3 4 2.9c2.1 1.7 7.7 6.1 12.3 9.8 17.1 14.1 30 19.8 44.8 20 17.2.2 31.6-7 38.8-19.2 2.1-3.7 2.8-6.3 3.2-13.1l.5-8.5 4-.3c7.4-.4 54.9-5.4 65-6.7 5.5-.7 13.4-1.3 17.5-1.2l7.5.2zm22.2 47.9c.9 1.1 1 3.7.5 9.2-1.2 14-3.5 28.6-4.6 29.9-.8 1-3.9 1.4-10.8 1.4-11 0-13.7-.5-14.6-2.8-1.7-4.3-6.3-34.8-5.4-35.7.5-.5 6.7-1.5 13.7-2.1 18.1-1.6 19.8-1.6 21.2.1"/><path d="M419.4 412.4c-3.9 3.3-3.9 8.9-.1 12.2 5.9 5.1 18.1 4 21.7-1.9 2.5-4.1 2.5-6.8-.1-10.1-1.9-2.4-2.6-2.6-10.4-2.6-7.4 0-8.7.3-11.1 2.4m-91.9 6.3c-3.6.9-5.5 3.4-5.5 7.3 0 6.8 7.2 10.6 16.6 8.9 8.7-1.6 12.1-8.2 7.3-14.3-1.9-2.4-2.6-2.6-9.2-2.5-4 .1-8.1.4-9.2.6m50.9 19.7c-3.5 1.6-4.4 3.2-4.4 8.1 0 2.8.8 4.1 5 7.7 5.5 4.7 6.7 8 5 13.3-2.5 7.7-10.3 9.6-20.6 5-6.9-3.1-7.5-3.1-10.2-.2-4.5 4.8-2.2 9.1 7 13.2 4.9 2.3 7.8 2.9 12.9 3 6.1 0 7.1-.3 12.3-3.9 6.2-4.2 5.6-4.2 13.6.5 11.5 6.8 36.3-9.2 27-17.6-2.4-2.2-5.5-1.5-10.5 2.5-5.3 4.2-11.3 4.2-14.9 0-1.4-1.7-2.8-4.7-3.2-6.7-.7-3.5-.4-3.9 3.9-7.7 5.5-5 7-7.8 6.2-11.6-1.2-5.4-3.6-6.4-15.3-6.8-7.6-.2-11.6.2-13.8 1.2m-239.5-94.3c-58.7 2.1-115.8 8.6-128.9 14.8-1.9.9-4.1 2.8-5 4.3-1.3 2.5-1.3 3.1 0 5.5 2.1 3.7 5.6 4 17.8 1.4 16.4-3.5 41-6.3 74.7-8.7 15.1-1.1 41.5-1.8 84-2 34.1-.3 63-.7 64.2-.9 5.1-1.1 5.5-10 .6-13.2-2.4-1.6-6.7-1.8-45.2-1.8-23.4-.1-51.4.2-62.2.6"/></g></svg>