<svg xmlns="http://www.w3.org/2000/svg" width="1365.333" height="1365.333" preserveAspectRatio="xMidYMid meet" version="1.0" viewBox="0 0 1024 1024"><g fill="#000" stroke="none"><path d="M510.2 52.4c-1.7.8-3.6 2.5-4.1 3.8s-1 43.5-1.1 93.8-.5 114.4-.9 142.5l-.6 51-12 .3c-11.3.3-12.1.4-14.6 2.8-4.3 4.1-6.3 2.9-7.2-4.1-3.3-26.5-9.7-50.6-14.6-55.6-3.8-3.7-9-4.6-14.6-2.5-3.1 1.2-7.2 4.7-14.7 12.4-9.5 10-15.3 17.5-26.1 34.1l-4.2 6.3-16 .2c-12.2.2-20 .9-32.6 3.1l-16.6 2.8-10.3-10.2c-16.2-16-32.6-28.7-41.2-31.7-5.4-1.9-11.3-1-14.4 2.1s-6 13.3-7.9 27.7c-2.6 19.8-2.4 18.8-4.6 18.8-1.1 0-2.4-1-3-2.4-2.2-4.7-3.8-4.9-46.9-5.1-69.2-.4-122.9 2.6-164 9.1-23.4 3.7-32.4 6.4-33.7 10.2-.3.9-1.5 2.5-2.7 3.5s-1.5 1.5-.6 1.2c1-.4 2.5.6 3.9 2.6 2.2 2.9 2.7 3.1 7 2.6 2.5-.3 7.8-1.2 11.7-2.1 31.7-7 88.9-10.6 168.2-10.7h53.4l2.4-2.4c1.3-1.3 2.4-3.1 2.4-4 0-.8.9-1.5 2-1.5s2 .6 2 1.3c0 .8-.5 9.6-1.1 19.8-.8 14.8-1.4 19-2.9 21.4-5.2 8.4-11 31.2-11 42.9 0 2.4-.6 4.8-1.2 5.4-.7.5-9.4 1.2-19.4 1.4-19.1.6-22 1.2-23 5.5-1 3.7.4 7.3 3.2 8.3 1.6.7 8.9.7 20.2 0 14.9-.8 17.9-.7 19.2.5.9.8 2.4 5.7 3.5 11.1 2.3 11.5 3 10.5-11.8 15.9-5.6 2.1-12.1 4.6-14.4 5.6-5 2.3-8.3 2.4-14.9.5-15.9-4.5-40.9-6.9-71.9-6.8-41.8 0-81.9 4.4-95.2 10.2-6.7 2.9-7.8 5.6-7.7 18.5 0 11.4.4 13.6 11.4 65.5 2.2 10.7 7.2 35 11.1 54 3.8 19 8.4 40.4 10.1 47.7s2.8 13.9 2.5 14.8c-.5 1.1-2.1 1.5-5.9 1.5-2.9 0-11.4.7-18.8 1.5S21.8 699 20.9 699c-.8 0-2.5.9-3.7 2-4.4 4.1-1.7 11.6 4.3 12.2 3.4.3 14.4-.7 32.1-2.8 10.7-1.2 12.7-1.2 16.4.1 6.2 2.2 15.7 1.9 45.2-1.5 14.5-1.6 36.4-4.1 48.8-5.4 12.4-1.4 26.8-3.1 32-3.7 10.3-1.3 11.4-1.2 26.5 1.9 5.5 1.2 15 2.6 21 3.2 22.8 2.4 35.4 6.7 57.3 19.9 21.9 13.1 38.1 15.1 56.3 6.9l6.7-3 9.4 3.7c5.1 2.1 13.8 5.8 19.3 8.3 5.5 2.4 11.7 5 13.8 5.8 2 .7 5.2 2 7 2.7 10.5 4.7 30.2 10.3 58.7 16.7 12.3 2.8 22.8 5.4 23.3 5.9 1.5 1.5-2.4 1.9-49.8 5.1-24.2 1.6-49.8 3.4-57 4-13.2 1-19.8 1.4-74.5 5-16.8 1.1-35.9 2.5-42.5 3s-25.3 1.9-41.5 3c-36.3 2.4-69.1 4.8-83 6-8.9.8-10.7 1.2-12.2 3.1-2.5 3-2.2 6.6.8 9.5 2.5 2.6 2.6 2.6 14.2 1.9 6.4-.3 17.1-1.1 23.7-1.6s19-1.4 27.5-1.9c18.3-1.1 36.4-2.5 62.5-4.5 10.5-.8 26-1.9 34.5-2.5 8.5-.5 25-1.6 36.5-2.4 11.6-.8 31.6-2.2 44.5-3.1 72.9-4.7 106.2-7.3 147.5-11.5 9-.9 9-.9 16.4 2.6 9.2 4.3 19.4 14.3 30.2 29.3 9.2 13 16.5 21 23.2 25.4 2.9 1.8 10.3 6.7 16.5 10.7 7.6 4.9 10.9 7.6 10 8.1-1.3.7-23.9 2.9-104.3 10.4-66.3 6.1-118.7 10.7-152.5 13.5-20.1 1.6-57.9 4.8-84 7-47.5 4.1-55.5 4.7-90 7.5-10.2.8-27.3 2.2-38 3.2-10.7.9-20.7 1.3-22.2 1-4-1-6.1-3.6-5.4-6.6 3-14.2 3.1-65.1.2-76.9-3.6-14.4-12-24.5-26.1-31.2-11.1-5.3-73.6-25-79.4-25-3.1 0-7.1 3.9-7.1 6.8.1 4.7 2.2 6.1 17.1 10.6 50.6 15.4 56.1 17.3 65 22.6 7.7 4.6 11.2 8.3 14.8 16 2.5 5.4 2.6 6 2.9 31.2.5 36.3-1 45.8-8 49.4-5.8 3-12.8 1.5-48.6-10.5C38.9 884 23.3 879 22.6 879s-2.5.9-4 2.1c-1.9 1.5-2.6 2.9-2.5 5.2.2 2.7.2 2.8.6.7.5-2.8 4-7 5.9-7 .7 0 16.2 5 34.6 11.1 36.6 12.3 43.2 13.6 49.8 10.2 2.8-1.4 3.9-3 5.5-7.3 1.8-5 2-8.2 2-36.5 0-27.4-.2-31.6-1.8-36.2-2.6-7.3-6.9-12.8-13.5-17-7.9-5.1-8.4-5.3-69.3-24.3-10.4-3.3-12.8-4.4-13.9-6.5-1.6-3.1-.7-5.2 3.2-7.4 2.2-1.3 4.1-1 20.8 3.8 29.4 8.5 51.1 15.8 59.7 20.1 14.2 7.1 23.2 18.1 26.4 32.5 1.8 7.8 1.8 58.6.1 69.4-.7 4-1 8.2-.7 9.2 1.3 3.9 7.2 4.4 28.4 2.6 10.8-1 27.9-2.4 38.1-3.2 34.5-2.8 42.5-3.4 90-7.5 26.1-2.2 63.9-5.4 84-7 39-3.2 120-10.4 190-17 5.8-.6 22.7-2.1 37.5-3.5 30.5-2.9 31.5-3 31.5-4.9 0-.8-5.1-4.7-11.2-8.7-6.2-4-13.6-8.8-16.5-10.6-6.7-4.4-14-12.3-23.1-25.2-13-18.1-22.4-26.8-33.6-31-4.4-1.6-6.3-1.8-14.1-1C475 789 452 790.7 379 795.5c-12.9.9-32.9 2.3-44.5 3.1-11.5.8-28 1.9-36.5 2.4-8.5.6-24 1.7-34.5 2.5-28.1 2.2-45 3.4-63.5 4.5-9.1.6-17.8 1.2-19.5 1.5-1.6.3-11.8 1-22.5 1.6l-19.5 1.1-2.2-2.7c-2.8-3.2-2.9-4.6-.5-7.5 1.6-1.9 3.2-2.4 11.8-3.1 14.6-1.2 48.9-3.6 82.4-5.9 16.2-1.1 34.7-2.4 41-3 6.3-.5 25.7-1.9 43-3s41.2-2.7 53-3.6c11.8-.8 35-2.4 51.5-3.5 75.4-5.1 81.1-5.8 78-8.8-.6-.5-10.4-3-22-5.6-38.1-8.4-47.9-11.5-83.5-26.7-9.6-4.1-19.9-8.3-22.8-9.2l-5.2-1.8-6.7 3.1c-9.1 4.3-18.3 5.7-27.4 4.2-8.9-1.5-14.6-3.9-27.4-11.5-21-12.5-35.1-17.2-58-19.6-6-.6-15.5-2-21-3.2-15.1-3.1-16.2-3.2-26.5-1.9-5.2.6-19.6 2.3-32 3.7-12.4 1.3-34.3 3.8-48.8 5.4-29.5 3.4-39 3.7-45.2 1.5-3.7-1.3-5.7-1.3-16.4-.1-17.7 2.1-28.8 3.1-31.6 2.7-3.4-.4-6-2.9-6-5.7 0-2.3 3.4-6.4 5.4-6.4.6 0 7.2-.7 14.6-1.5s16.1-1.5 19.3-1.5c4.4 0 5.9-.4 6.4-1.7.4-.9-.4-5.9-1.6-11.2S54.3 657.2 50 636c-4.4-21.2-9.8-47.3-12-58-10.8-50.9-11.3-54.2-11.4-65-.1-12.1.9-14.7 7.2-17.9 11.3-5.8 52.3-10.3 94.7-10.3 31-.1 56 2.3 71.9 6.8 7.2 2 9.8 1.8 18.9-1.9 4.5-1.9 11.7-4.6 16-6.2 4.3-1.5 8.1-3.4 8.4-4.2 1-2.6-3-20.6-5-22.6-1.6-1.6-3-1.7-9.5-1.3-26.5 1.9-29 1.8-31.1-.3-4.8-4.8-1.2-9.5 8.1-10.5 3.3-.3 11.8-.6 18.7-.6 8.6 0 13.1-.4 13.9-1.2.7-.7 1.2-3.3 1.2-5.9 0-12.4 5.4-33.3 10.9-42.3 1.6-2.6 2.1-6.5 3.1-23.6 2.6-48.5 6.5-65.6 15.3-68.9 3-1.1 4.6-1.2 7.5-.3 7.8 2.4 25.7 16 41.6 31.8 5.9 5.7 11.4 10.4 12.4 10.4s8.6-1.2 16.8-2.6c11.5-2.1 18.8-2.7 31.9-2.9l17-.3 4.2-6.3c10.6-16.3 16.5-24.1 25.8-33.7 13-13.6 17.9-16.1 24.5-12.7 4.3 2.2 6.5 6 9.8 17 5 16.2 7.9 34.3 8.8 53.5.6 11.9.8 12.8 3.9 18 8 13.4 14.3 28.9 17.1 41.9 1 4.6 2.4 8.5 3.1 8.8s8.2-.7 16.7-2.1c18.6-3.1 23.7-3.3 25.9-.8 2.1 2.2 2.2 6.5.3 8.1-.7.6-5.1 1.6-9.7 2.2-12.3 1.5-32.2 5.8-33.6 7.2-1.8 1.8-2.9 18.2-1.3 19.2.7.4 7.1 1.8 14.4 3.2 18.3 3.3 23.3 4.9 25.2 7.9 1.4 2.1 1.5 2.9.4 4.9-1.4 2.7-4.3 4-7.5 3.6-1.1-.1-9.3-1.8-18.2-3.8-8.9-1.9-17.3-3.3-18.5-3-1.7.5-3.3 2.5-5.4 6.9-1.6 3.4-4.8 9-7.1 12.5-2.4 3.4-4.3 6.9-4.3 7.8 0 3.5 28.3 14 52 19.4 25.6 5.8 91.1 16 94.4 14.8 2.1-.8 2.1-6.7-.4-41.9-4.8-67.2-10.1-87.6-27.9-106.9-3.3-3.7-8.3-8.1-10.9-9.8-6.3-4-22.4-9.6-33.3-11.5-11.8-2.1-41.8-4.7-50.9-4.6-11.7.3-12.8.1-14.9-2.1-2.9-3.1-3.2-6.5-.7-8.8 1.9-1.8 3.8-2.1 14.1-2.3l12-.3.6-51.5c.4-28.3.7-92.7.9-143 .1-52.3.6-92.2 1.2-93.2.5-1 2.3-2.5 4.1-3.4 3-1.6 13-1.7 135.7-1 72.9.4 167.8 1.1 210.9 1.5l78.3.9 2.2 2.3 2.3 2.4-.9 265.4-.8 265.5-2.2 2.3c-2.7 2.8-6.7 3-10.1.3l-2.5-2 .5-51.3c.4-34.5.2-52.1-.5-53.8l-1.1-2.7-31.3-.6c-17.2-.3-81-.8-141.8-.9-60.8-.2-111.3-.7-112.3-1.1-2.8-1.3-4-8.7-1.7-11 .6-.6 6.3-1.3 12.8-1.6l11.7-.5.6-23.5c.4-12.9.7-42.2.8-65 .1-37.3.3-41.9 1.9-45l1.7-3.5 17.5-.3c20.9-.3 21-.3 21-10.8 0-5.2.4-6.8 2.4-9.1 2.4-2.8 2.5-2.8 13.8-2.7 28.5.4 26.7.2 29.3 2.9l2.5 2.4.1 74.3c.1 40.9.4 75.6.8 77.3l.6 3 27.1.3c21.1.2 27.4-.1 28.2-1 .7-.9 1.3-22.2 1.7-64.3.4-34.7 1.1-64.4 1.6-66.1s2-3.6 3.2-4.2c1.2-.7 9.5-1.3 18.9-1.6 9.2-.2 17.2-.7 17.8-1.1.5-.3 1-4 1-8.1 0-7.9 1.6-12.6 4.8-14.3 1-.5 9.9-1.1 20-1.3l18.2-.3 2.5 2.6c1.5 1.4 3 4.1 3.4 6s.3 36.9-.1 77.7c-.6 53.7-.6 74.8.2 75.7 1.4 1.7 14.5 2.9 18.5 1.7 2.9-.8 3-1 3.7-8.8 1.1-13.5 1.4-179.2.3-180.3-.5-.5-5.3-1.2-10.5-1.5s-95.5-.8-200.6-1.2c-163.4-.6-191.2-.5-192 .7-1.2 1.8-1.8 65.9-.7 67 .5.5 6.1 1.5 12.4 2.3 38.5 4.8 58 14.6 72.6 36.4 11.1 16.7 16.1 32.9 20.2 65.7 2.1 16.9 6.1 67.8 6.1 78.1 0 3.7.5 6.5 1.3 7.1.6.6 8 2.5 16.2 4.3 25.9 5.5 39.3 10.7 55.5 21.5 6.4 4.3 6.7 4.4 21 6 8 .9 33.9 4.3 57.5 7.6 23.7 3.3 49.5 6.8 57.5 7.9 34.7 4.5 59.7 10 74 16 21 9 34.5 23.2 42.1 44.7 2.7 7.3 3.7 29.1 2 40.2s-7.2 22.9-14.2 30.6c-9.2 10.2-8.9 8.4-10.5 71-2.5 105.2-4 118.2-15 129.2-7 6.9-17.3 10.9-33.6 12.8-5.6.7-5.4 0-6.8 17-1.3 16.1-3.6 31.8-4.9 34.4-.6 1.1-2.8 3.3-4.8 4.8l-3.7 2.8-17-.2c-23.5-.4-23.8-.6-28-25.3-1.4-8-3.2-17.2-3.9-20.5l-1.4-6-6.9.3c-3.8.1-30.5 2.5-59.4 5.3-68.3 6.5-110.7 10.5-159.5 14.9-5.5.5-17.2 1.7-26 2.5-8.8.9-22.7 2.2-31 3-8.2.8-37.3 3.4-64.5 6-27.2 2.5-61.6 5.7-76.5 7-14.8 1.3-43.6 4-64 5.9-20.3 1.9-45.5 4.2-56 5.1-30.2 2.6-71.9 6.3-99.5 9-54.1 5.2-63.9 5.9-66.7 5-1.9-.7-3.6-2.5-5.1-5.5-2.2-4.5-2.2-5.4-2.3-37.7 0-29.8-.2-33.4-1.7-35.1-1-1.2-15.2-6.5-36.7-13.7-19.2-6.5-36.3-12.5-38-13.3-1.9-.9-5.3-1.4-9-1.3-4.9.2-6.6-.2-8.9-2-3.2-2.5-4.5-2-1.6.6 1.4 1.3 4.4 2.1 9.8 2.5 6.2.6 15 3.2 44.7 13.4 20.3 7 37.7 13.4 38.7 14.3 1.5 1.4 1.7 4.6 1.7 34 .1 34.4.6 38.9 4.6 42.9 2.9 2.9 6.4 3 28.5.9 57-5.5 100.5-9.5 141.5-13 10.5-.9 35.7-3.2 56-5.1 20.4-1.9 49.2-4.6 64-5.9 14.9-1.3 49.3-4.5 76.5-7 27.2-2.6 56.3-5.2 64.5-6 8.3-.8 22.2-2.1 31-3 8.8-.8 20.5-2 26-2.5 47.3-4.3 89.4-8.3 159.5-14.9 28.9-2.8 55.4-5.2 58.9-5.3l6.4-.3 1.3 5c.8 2.7 2.3 10.6 3.4 17.5 2.8 16.7 4.7 23.4 7.6 26.1 2.1 2 4 2.4 16.2 3.2 20.2 1.3 27.5-.2 31.6-6.6 1.6-2.3 4.6-22.8 6.3-42.2l.8-9 3.5-.7c1.9-.4 6.4-1.2 10-1.8 14.1-2.5 22.9-7.1 28.6-15 7.8-10.8 9.6-29.2 11.4-119 .6-29.4 1.5-56.4 2.1-59.9 1.3-8.1 2.9-11.3 9.1-17.9 5.1-5.4 9.2-13.3 12.5-23.7 1.5-4.9 1.8-9.3 1.8-24l-.1-18-3.5-9.6c-9.9-26.4-27.4-39.7-64.1-48.8-13.6-3.4-29.6-6.2-51.7-9.1-8-1.1-32.1-4.4-53.6-7.4-21.4-3-47.1-6.4-57-7.6l-18-2.1-6.5-4.4c-14.8-10-30-15.8-56-21.5-7.9-1.7-15-3.6-15.7-4.2-.8-.6-1.3-3.3-1.3-6.7 0-9.9-4-61.1-6.1-77.6-2.6-21.2-5.2-33.5-9.4-45.1-9.5-26.3-25.1-42.5-48.4-50.4-8.4-2.8-27-6.7-36.1-7.6-4.1-.4-8.5-1.1-9.7-1.5l-2.3-.9v-30.4c0-18.5.4-31.5 1-33.2l1.1-2.7 190.7.7c104.9.4 194.8.9 199.7 1.2 5 .3 9.5 1 10 1.5 1.1 1.1 1 157.7-.1 175.7-.6 10-.7 10.4-3.3 11.4-3.3 1.2-15.1.2-16.9-1.6-1-1-1.1-15.3-.4-75.2.4-41.3.4-75.7 0-78-.5-2.3-2-5.2-3.4-6.5-2.5-2.4-2.7-2.4-21.7-2.1-10.5.2-19.9.8-21 1.4-2.9 1.5-4.7 7.1-4.7 14.7 0 3.9-.5 7.3-1.1 7.6-.6.4-8.5.9-17.7 1.1-9.7.3-17.6.9-19 1.6-1.3.7-2.6 2.6-3.1 4.7-.5 2-1.2 31.7-1.6 66.1-.4 41.8-1 62.9-1.7 63.7-.8 1-6.9 1.3-27.1 1.1l-26.1-.3-.7-2.5c-.4-1.4-.7-35.7-.8-76.2-.1-44-.5-74.7-1.1-76.2-.5-1.4-1.8-2.9-2.8-3.5-1.1-.6-10.7-1.1-21.5-1.3-19.2-.3-19.7-.3-21.9 1.9-1.8 1.9-2.3 3.7-2.6 9.5-.6 11-.3 10.8-19.9 10.8-9.2 0-17.3.4-18.3 1-3.5 1.9-4 7.4-4.1 49.5-.1 22.5-.4 51.3-.8 64l-.6 23-11.7.5c-6.8.3-12.2 1-12.9 1.7-1.2 1.2-1.5 6.9-.5 10.1.4 1.1 1.4 2.3 2.4 2.7.9.5 42.9.9 93.2 1.1s114 .6 141.5.8c46.5.5 50.1.6 51.3 2.3 1.2 1.5 1.3 10.5.9 54-.5 49.8-.5 52.2 1.3 53.8 3 2.7 9.1 3 12.1.6l2.6-2 .6-142.8c.4-78.5.8-198.7.9-267.1l.2-124.3-2.1-2c-2-2.1-3.1-2.1-81.4-3-43.7-.4-139-1.1-211.9-1.4-116.7-.5-132.9-.4-135.8.9M244.7 345c2.2 1.4 4.3 5 4.3 7.4 0 .7-1 2.2-2.3 3.4-2.2 2.1-2.6 2.1-55.2 2.1-78.9.1-136 3.7-167.9 10.7-13.2 2.9-14.8 2.9-17.4.1-4.4-4.7-.4-9.3 10.4-12.1 8.9-2.3 34.8-6.3 52.4-8 39.5-3.9 75.3-5.3 131.5-5.1 33.5.1 42.4.4 44.2 1.5m231.3 7.3c0 3.4 3.5 6.7 7.3 6.8 1.8.1 6.6 0 10.7-.1 9-.1 39.1 2.5 50.8 4.6 18.8 3.3 31 9 41.3 19.4 19.7 19.9 25 38.8 29.9 107.8 2.4 34.5 2.5 40.1.5 40.8-.8.3-11.5-.8-23.7-2.6-44.9-6.4-74.7-12.4-93.8-18.7-10.7-3.6-27-10.7-27-11.8 0-.3 1.9-3.4 4.3-6.8 2.3-3.5 5.5-9.1 7.1-12.5 2-4.2 3.7-6.4 5.1-6.8 1.2-.3 9.4 1 18.1 3 19 4.2 19.2 4.2 22.5 3.3 3.1-.8 5.4-5.5 4.4-8.7-1.1-3.6-4.6-4.9-21.5-8.1-9.1-1.7-17.2-3.5-18-3.9-2.1-1.1-1.8-15.6.3-17.8 1.6-1.6 19.5-5.5 32.5-7.1 10.8-1.4 12.2-2.2 12.2-7.1 0-7.7-4.6-8.5-28.3-4.5-8.2 1.4-15.6 2.4-16.2 2.1-.7-.2-2-4-3-8.3-2.9-13.4-9.6-29.9-17-42.3-3-4.9-3.4-6.4-3.7-14.3l-.3-8.7h2.8c2.2 0 2.7.5 2.7 2.3"/><path d="m537.5 67-16 .5-.7 61.5c-.4 33.8-.7 77.7-.5 97.5l.2 36 11.1.3c8.4.2 11.4-.1 12.2-1.1s1.2-24.3 1.4-81.9c.3-80.2.3-80.7 2.4-83.5l2.1-2.8 20.7-.3 20.7-.2 3 2.9c2 2 2.9 4 3 6.3.1 5.8.8 11.1 1.7 12 .4.4 8.4 1 17.7 1.3 9.4.3 17.8.8 18.8 1.1 4.2 1.3 4.2 1.8 4.2 74.7 0 60.9.2 69.9 1.5 70.7 2.1 1.3 11.7 1.2 12.6-.1.3-.6.8-34.6 1-75.6.2-40.9.6-75.4 1-76.5 1.2-3.8 6.1-4.8 24.9-4.8 18.9 0 22.7.8 24 5.1.4 1.2.7 35.9.7 77.1v74.9l2.5 1c1.3.5 15.4.9 31.3.9 23.5 0 29.1-.3 30.3-1.4 1.1-1.2 1.5-12.6 2.1-66.8.4-35.9 1.1-67.5 1.5-70.2.5-2.7 1.6-5.5 2.4-6.1 2.1-1.5 31.9-2.8 35.2-1.5 3.4 1.3 5.5 6 5.6 12.7.1 8.6 1.4 17.2 2.7 18.5.9.9 3.3.3 10.4-2.4 11.7-4.5 21.7-7.8 23.9-7.8 3.4 0 6.7 4 9.9 12.2 1.7 4.6 4.5 11.2 6 14.8 1.6 3.6 4.7 11.2 7 17s6.9 17 10.2 25c3.4 8 8.1 19.7 10.4 26 9.4 24.8 11.2 29.3 12.5 30.1.8.5 3.9.9 7 .9 10 0 9 10.4 9.6-97.7l.5-95.1-2.5-1.6c-2.2-1.5-16.7-1.8-146.8-3.1C637 66.1 570.7 66 537.5 67m239.4 1.5c135.8 1.4 144.5 1.5 146.3 3.2 2 1.8 2 3.2 1.5 95.6-.4 70.7-.8 94.2-1.7 95.3-1.6 1.8-12.3 1.9-13.8.1-.6-.6-4.2-9.5-8-19.7-3.9-10.2-9.4-24.1-12.3-31-2.8-6.9-8.2-20.2-11.9-29.5-3.8-9.4-8.4-20.6-10.3-25-1.8-4.4-3.7-9.2-4-10.6-1-3.9-4.4-7.7-7.7-8.4-3-.7-20.2 4.3-29.6 8.5-6.5 3-7.1 2.2-8.2-12.7-1-14.2-2.2-16.8-7.9-17.7-6-.9-34.1.8-35.5 2.2-2.2 2.2-2.6 11.9-3.4 76.2-.4 35.5-1.1 65.3-1.6 66.2-.8 1.7-3.3 1.8-29.9 1.8-17 0-29.8-.4-30.9-1-1.7-.9-1.8-4.4-1.8-76.3 0-52.3-.3-76.1-1.1-77.5-1.8-3.4-6.5-4.2-24.5-4.2-18.2 0-23.9.9-25.6 4-.7 1.4-1.2 27.1-1.4 76.9-.2 41.2-.7 75.4-1 76-.9 1.3-8.5 1.4-10.6.1-1.3-.8-1.5-9.8-1.6-70.2 0-71.7-.1-74-4.1-75.2-1-.3-9.4-.8-18.7-1-9.3-.3-17.4-1-17.9-1.5s-1.2-3.8-1.4-7.3c-.3-3.5-1-7.4-1.6-8.8-2.2-4.5-4.7-5-26.3-5-23.2 0-23.9.2-25.5 8-.4 2.5-.8 39.4-.9 82.1 0 65.2-.2 77.8-1.4 78.8-.9.8-4.8 1.1-11.2.9l-9.9-.3-.2-35.5c-.2-19.5.1-63 .5-96.5l.7-61L538 68c32.2-1 99-.9 238.9.5"/><path d="M558.5 107c-.9 1.4-.7 153.2.2 154.1 1.1 1 23.5 1.6 25.1.6 1.7-1.2 1.8-152.7 0-154.5-1.5-1.5-24.4-1.7-25.3-.2m24.3 1.2c1.8 1.8 1.7 151.3 0 152.5-1.6.9-22 .4-23.1-.6-.9-.9-1.1-150.7-.2-152.1.9-1.5 21.8-1.3 23.3.2m85.3 11.2c-.8 1-1.1 19.9-1.1 69.7 0 37.6.3 69.4.6 70.7.8 2.9 3.4 3.5 14.4 3.1 6.7-.3 9.3-.8 10-1.9.6-.9 1-28.7 1-70.3 0-81.1 1.6-72.7-13.9-72.7-7.1 0-10.2.4-11 1.4m22.1 1.3c1.7 1.5 1.8 5 1.8 69.9 0 60.7-.2 68.4-1.6 69.8-1.2 1.2-3.7 1.6-10.9 1.6-8.3 0-9.6-.2-10.5-1.9-1.5-2.9-1.4-137.9.1-139.7 1.8-2.2 18.7-1.9 21.1.3m-92.3 9.5c-.1.7-.1 30-.1 65.1 0 48 .4 64.2 1.3 65.3 1.8 2.1 24.1 2 26.3-.2 1.4-1.4 1.6-8.5 1.6-63.9 0-38.1-.4-63.4-1-64.9l-1-2.6h-13.5c-10.1 0-13.5.3-13.6 1.2m27.1 1.7c.6 1.3 1 23.3 1 64.5 0 60.8-.1 62.6-1.9 63.6-3.1 1.6-22.6 1.3-24.1-.4-.9-1.1-1.2-16.9-1.2-64.3 0-34.5.1-63.4.1-64.1.1-.9 3.3-1.2 12.6-1.2 11.3 0 12.5.2 13.5 1.9m160.5.1c-.9 1.5-1.3 22.3-1.7 78.6-.2 41.3-.1 50.4 1.1 51.7 1.7 2.1 16.2 2.5 17.9.4 1.3-1.5 2-125.8.8-129.5-.7-2-1.3-2.2-9.1-2.2-4.6 0-8.7.4-9 1m17.1 2.2c1.2 3.7.4 126-.8 127.5-1.6 2-14.2 1.7-15.9-.4-1.2-1.3-1.3-10.3-1.1-51.2.4-56.8.8-75.6 1.7-77.1.3-.5 3.9-1 8-1 6.7 0 7.4.2 8.1 2.2m36.8 21.8c-7.6 2.7-9.4 3.8-9.4 6.1 0 1.2 3.8 11.6 8.4 23.3C843 197 851.2 218 856.6 232c10.4 26.7 12.7 31.3 15.9 31.8 3.2.4 17.7-4.2 18.8-6 .8-1.3-1.8-8.8-11.8-34-13.1-33.1-24-59.5-27.1-66.1-1.5-3.1-2.3-3.7-4.8-3.6-1.7 0-5.4.9-8.2 1.9m13.8 6.7c4.5 10 11.9 27.8 15.3 36.8 1.5 3.8 4.2 10.6 6 15s5.5 13.4 8 20c2.6 6.6 5.6 14.2 6.7 16.9 2 4.9 2 5 .1 6.6-1.1.8-5.2 2.4-9.1 3.4-6 1.5-7.5 1.6-8.8.5-2.3-1.9-5.4-8.5-11.9-25.4-10.4-27.2-17.7-45.8-23.1-59.1-3-7.2-5.4-13.9-5.4-14.7 0-2.5 10.7-7.5 16.1-7.6 2.3-.1 3 .8 6.1 7.6m-36.8 10.8c-.3 1.4-.2 22.2.2 46.2l.9 43.8 18.4.3 18.3.2-.5-2.7c-.6-3.6-12.4-35.3-22.7-61.3-4.5-11.3-8.9-22.4-9.7-24.8-1.7-4.7-3.9-5.5-4.9-1.7m7.9 12.5c2.4 5.8 6.5 16.1 9.1 23 2.7 6.9 5.2 13.4 5.7 14.5 1.5 3.3 13.9 37.8 13.9 38.7 0 .5-7.8.7-17.2.6l-17.3-.3-.9-43.7c-.4-24.1-.5-44.6-.1-45.5.7-1.7.8-1.6 1.6.2.4 1.1 2.8 6.7 5.2 12.5M436.4 307.2c-7.5 7.8-16.6 20-24.4 32.8-8.8 14.2-7.5 13.5-22.7 12-11.1-1.1-14.5-1-25.8.4-7.2.9-17.5 2.8-23 4.2s-11.1 2.8-12.4 3.1c-1.9.5-4.6-1.7-17-14-14.6-14.5-32-28.7-35.3-28.7-3.6 0-5.3 7.3-7.3 31.5-.8 10.2-1.5 24.2-1.5 30.9v12.3l-4.9 9.6c-3.1 6-5.8 13.2-7.1 18.9-2.5 10.3-3.1 22.1-1.4 23.8.6.6 6.6 2 13.3 2.9 6.6 1 12.8 2.4 13.6 3.1 1.9 1.6 1.9 3.9-.1 6.1-1.3 1.5-3 1.6-14 1.1l-12.4-.5v4.5c0 4.5 2.5 13.4 4 14.3.5.3 6.6-.4 13.5-1.6 6.9-1.1 13.2-1.9 14-1.6.7.3 2.2 1.8 3.1 3.2 1.6 2.5 1.6 2.7-.4 4.8-1.6 1.6-4.7 2.5-11.9 3.7-8.8 1.4-9.8 1.8-10.1 3.8-.7 4.9 13.8 18.4 24.4 22.7 3.2 1.3 6.5 3 7.6 3.9 2.5 2.2 2.3 5.8-.6 8.5-2.1 2-3.1 2.2-6.3 1.7-4.1-.8-11.9-4.9-18.5-9.6-2.9-2.2-4.5-2.7-5.7-2-3.6 1.9-30.2 30.3-40.1 42.9-21.1 26.7-31.1 43.6-38.4 65.3-9.8 28.8-2.7 51.1 19.7 61.3 9.2 4.2 17.3 6.1 33.4 8 30.2 3.5 40.5 6.9 65.6 21.4 10.7 6.2 13.1 6.5 12.4 1.8-.2-1.7-1.1-4.7-1.8-6.5-1.2-2.9-1.2-3.4.9-5.4 2.1-2.1 2.4-2.2 5-.8 3.4 2 7 8.3 7.8 14 1.1 7.6 1.8 8.3 7.7 7.6 2.8-.4 5.7-1.2 6.4-1.8 2.2-1.8 1.5-8.2-1.8-14.7-2.1-4.2-2.9-7-2.5-8.6.7-2.9 4.5-4.2 7.4-2.6 2.5 1.4 6.7 8.4 8.1 13.8 1.2 4.3 2.7 5.3 4.9 3.1 1.9-1.9 1.4-11.8-1-18.9-4.3-13-12.1-22.2-26.5-31.6-10.9-7.1-23.5-12.2-42.5-17.3-8.1-2.2-16.7-4.9-19.3-6.1-11.7-5.5-12.6-16.1-2.6-29.7 1.7-2.3 3.5-4.2 4-4.2 1.7 0 7.1 5.1 7.1 6.7 0 .8-1.4 3.4-3.1 5.9-5.3 7.8-4.9 8.2 15.2 14 27.4 7.9 40.1 13.5 55.2 24.6 18.3 13.5 28.2 32.7 27.5 53.1l-.3 8.7 12.5 5.8c6.9 3.2 14.1 6.6 16 7.5 10.7 4.9 33.7 12.8 48.6 16.6 4.4 1.1 18.3 4.1 31 6.6 32.9 6.6 42.5 9.4 58.9 17.5 18.9 9.3 25.7 15.2 38.9 33.5 5.6 7.7 12.4 16.3 15.1 19 2.9 2.9 14.7 11.2 27.5 19.5 21.8 13.9 32.5 21.7 49.7 35.8 8 6.7 16.1 11.5 21.6 12.8 2.6.6 2.7.4 2.7-3 0-2.3-1-5.1-2.5-7.4-3-4.3-3.2-7.3-.7-9.5 2.7-2.5 4.7-2.1 7.6 1.4 3.8 4.5 5.5 8.2 6.3 13.4.7 5.7 2.1 6.9 7.2 6s6.5-2.6 6.5-8.4c0-4.5-1.4-8.1-5.9-15.8-1.9-3.1-1.9-3.2-.1-5.2 1.1-1.2 2.5-2.1 3.2-2.1 3.6 0 12.4 11 12.4 15.5 0 .8.7 1.5 1.5 1.5 2.4 0 1.9-8.5-.9-15.3-5.4-13.1-14.1-21.1-45-41.5-20.2-13.3-31.8-23.3-35.4-30.5-1.2-2.4-3.5-10.4-5.2-17.8-7.6-33.5-17.7-53.8-35.5-71.4-9.6-9.6-15.6-13.6-28.2-19-8.6-3.7-24.6-8.1-33.6-9.1-10-1.2-13.9-7-7.6-11.6 2.4-1.8 3.2-1.9 11-.8 19.4 2.6 38 9.3 52.9 19.1 13.7 9 23.5 19.6 33.1 36 2.1 3.7 4.6 7 5.6 7.3 1 .4 8 2 15.7 3.7 7.6 1.6 17.3 4.1 21.5 5.5 12.8 4.3 28.7 13.7 45.6 27 6.9 5.4 17.8 11.3 28.5 15.3 14.2 5.3 77 22.1 82.9 22.1 4.1 0 4.1-2.6.1-6.5-3.4-3.3-3.8-6.4-1.1-8.9 1.7-1.5 2.2-1.6 5.2-.3 4.3 1.8 7.1 4.9 10.1 11.2 2.2 4.6 2.7 5 5.6 4.9 4.3-.3 8.2-2.9 8.2-5.7-.1-4-3.7-10.3-7.9-13.6s-5.3-6.5-2.9-8.9c1.7-1.7 4.3-1.5 8.7.7 3.8 2 10.1 8.3 10.1 10.1 0 .6.7 1 1.5 1 2.1 0 2-8.1-.1-12.6-2.4-5-13-14.4-20.9-18.6-8-4.1-18.9-7.7-43.6-14.4-9.6-2.5-18.1-5-19-5.5-.9-.4-5.2-7-9.5-14.6-24.5-43.2-44.2-63.7-75.3-78.6-10.5-5.1-10.7-5.1-21.1-5.3-11.1-.2-14.2-1-24.6-6.2-17.5-8.8-42.5-15-69.2-17.1-9.7-.8-11.7-1.2-13.8-3.2-2.9-2.7-3.1-5.2-.4-7.9 2.5-2.5 10.3-2.7 28-.5 24.1 3 39.6 7.3 60.5 16.9 10.1 4.6 15.1 5.6 17.3 3.4 1.8-1.8 1.5-4-1.3-8-3-4.5-3.1-5.9-.5-8.3 1.6-1.5 2.6-1.7 4.7-.9 3.9 1.4 8.6 7.8 9.2 12.7.6 3.9.8 4.2 3.9 4.5 1.9.2 5.2-.6 7.9-1.9 12.5-6 10-26.8-4.7-38.7-22.6-18.3-38.3-22.6-129.5-35.8-47.9-6.9-78-14.5-100.4-25.6-12.3-6.1-12.5-6.1-15.4-4.5-4 2.3-7 2.1-9.6-.7-2.9-3.1-2.2-5.4 2.7-9.1 8.1-6.1 19.2-22.8 19.2-28.8 0-2.2-.5-2.5-4.6-3-5.6-.6-7.9-2.6-7-6 .7-3 1.9-3.5 10.8-4.4 6.2-.5 7.1-.9 7.9-3 1.2-3.3 1.1-12-.1-12.8-.6-.4-3.9.4-7.4 1.6-6.4 2.3-9.2 2.1-10.2-.6-1.8-4.6 2.7-8.6 13.8-12.4l5.3-1.8-.2-4.4c-.3-5.6-3.6-18-7.2-26.7-2.3-5.8-7.5-14.5-13.8-23.1-1.4-1.9-1.9-5.6-2.5-18.5-1.1-23.5-7.7-54.6-11.9-55.4-.8-.1-4.2 2.6-7.5 6m11.2 3.3c3.4 11.4 6.5 30.5 7 43 .8 19.7.9 20.4 5.9 27.1 8.3 11 15.6 28.4 18 43.2.8 4.7 1.4 4.1-10.6 8.6-6.2 2.2-8.9 4.9-8.9 8.9 0 6.1 4.2 7.3 12.4 3.6 2.5-1.1 5.1-1.7 5.6-1.4 1.3.8 1.3 9.1 0 11.4-.7 1.4-2.7 2-8.5 2.6-8.3.7-10.5 2.1-10.5 6.4 0 3.7 1.6 5 7.4 5.7 5.4.8 5.8 2.1 2.5 8.7-2.5 4.9-12.2 17.3-15.9 20.2-6.8 5.4-7.6 8-3.5 12 2.8 2.9 7.4 3.3 10.9 1 2.2-1.5 2.8-1.3 9.7 2.4 21 11.3 55.8 20.4 105.4 27.5 80.5 11.7 96.6 15.4 115.5 26.8 17.8 10.8 26 21.2 26 33.1 0 6.9-7.7 14.7-14.4 14.7-2.8 0-3.1-.4-4.1-6.3-.4-2.4-2-5.1-4.5-7.8-3.2-3.4-4.4-4-7.1-3.7-2.4.2-3.8 1.1-4.9 3.1-1.4 2.6-1.3 3.1 1.3 7.8 2.2 4 2.5 5.4 1.6 6.5-1.9 2.3-5.1 1.7-14.6-2.7-20-9.3-38.5-14.4-62.3-17.4-15.2-1.8-26-1.9-28.3-.3-2.9 2.2-3.2 7.1-.5 10.2 2.2 2.5 3 2.7 14.8 3.7 26.8 2.1 45.6 6.6 64 15.1 15.1 7.1 18.6 8 29.5 8.2 10 .1 10.2.1 20.7 5.3 31.4 15.2 50 34.7 75.1 78.3l8.3 14.5 6 1.7c3.2.9 14.9 4.2 25.9 7.2 22.8 6.4 35.3 11.9 43.5 19.3s11 11.8 11 17.2v4.6l-1.9-3c-2.6-4.2-6-7.1-10.3-9-7.2-2.9-10.8-1.6-10.8 4.1 0 2.5.9 3.9 4.3 6.7 4.5 3.7 8.4 10.5 7.4 13.1-.8 2-6.5 4.9-8.3 4.2-.8-.3-2.6-2.9-3.8-5.8-1.3-2.9-3.5-6.3-4.8-7.6-9-8.3-18.8-.9-10.8 8.1 1.7 1.9 3 3.7 3 4.1 0 1.5-7 .2-30.9-6-51.3-13.2-65.8-18.6-81.1-30.4-26.6-20.6-39.3-26.7-67.1-32.5-17.2-3.6-17.3-3.7-21.8-11.4-11.5-19.7-25.4-33.1-43.6-42.3-12.5-6.4-36-12.7-48.3-13.1-5.6-.2-6.6.1-8.3 2.2-2.4 2.9-2.4 6.2-.1 9 1.3 1.6 3.9 2.5 10.7 3.6 14.3 2.3 24.3 5.2 34.4 10.1 12 5.7 19.9 11.4 28.1 20 16 17 26.4 38.8 33.4 70.1 1.4 6.2 3.5 13.5 4.7 16.3 3.2 7.5 14 17 34.6 30.5 22.5 14.9 32.4 22.5 38.1 29.5 6.2 7.6 10.2 16.3 10.1 22-.1 3.7-.2 4-.8 2-2.2-7-7.5-13.3-12.3-14.5-2-.5-3.2-.1-4.8 1.5-2.6 2.6-2.2 4.8 1.9 11.7 5.5 8.9 4.8 15.8-1.7 17.7-4.3 1.2-5.5-.1-7.1-7.7-2.4-11-10.2-17.7-15.3-13-2.5 2.2-2 7.8 1.1 12.2 1.2 1.6 2.1 4.1 2.1 5.6 0 2.3-.3 2.5-2.2 2-4.6-1.4-15.5-8.5-23.8-15.5-13.7-11.7-22.2-17.8-46-33-12.8-8.3-24.6-16.6-27.5-19.5-2.7-2.7-9.5-11.3-15.1-19-14.2-19.7-23.4-27.1-45.6-36.7-11.8-5.1-25.8-8.8-53.3-14.3-38.7-7.7-57.9-13.5-83.8-25.6-8.4-4-17.1-8-19.4-9l-4.3-1.8.6-7.4c.9-9.6-1.5-20.2-6.6-30.5-4.8-9.5-11.2-16.9-21-24.2-14.1-10.4-28.1-16.6-55-24.1-15.3-4.4-18-5.4-18-6.9 0-.5 1.4-3.1 3-5.7 3.6-5.6 3.8-8.3.8-11-4.1-3.7-6.5-3.8-9.7-.4-6.7 7.2-10 19.6-6.7 25.9 2.9 5.7 7.7 7.8 31.6 14.1 14.6 3.8 27.6 9.4 38.5 16.5 13.9 9.1 22.4 19 26.6 31.3 2.3 6.7 2.5 15.5.5 17.2-1.2 1-1.7.4-2.9-3.6-1.8-5.9-5.3-12-7.7-13.3-2.8-1.5-6.7-1.2-8.4.6-2.4 2.3-2 5.8 1.4 12.4 3.3 6.4 3.8 11.1 1.6 12.9-.8.7-3.4 1.3-5.7 1.4-4.8.2-4.3.8-7.4-10.5-2.6-9.6-8.5-14-13.5-10-2.4 1.9-2.4 2.2-1.2 6.3 2.3 7.6 2.5 8.9 1.4 8.9-.6 0-5-2.3-9.9-5.1-24.1-14-36.3-17.9-66.6-21.4-16.5-2-24.4-3.9-33-8.2-19-9.5-27-27.2-22.3-49.4 5.9-27.7 31.3-67 67-103.6l14.8-15.3 3.8 3c5.7 4.5 14.4 8.8 19.5 9.6 4 .5 5 .3 7.1-1.7 2.4-2.2 3.2-7.1 1.6-9.5-.4-.6-4.6-2.9-9.5-5.3-6.9-3.3-10.3-5.8-16.3-11.7-4.5-4.6-7.4-8.2-7.2-9.2.3-1.3 2.6-2.1 10.3-3.4 7.8-1.3 10.4-2.2 11.8-3.9 2-2.5 1.5-5.3-1.4-8.3-1.8-2-2.1-2-13.1-.2-6.2.9-12.3 2-13.6 2.3-1.8.4-2.5-.2-4.2-3.8-1.1-2.4-2-6.4-2-8.8v-4.4l12.4.6c11 .5 12.6.4 14-1.2 2-2.2 2.1-6.5.2-8-.8-.7-6.9-2-13.7-3-14.7-2.2-15.4-2.7-14.4-11.6 1.2-11.6 4.4-22.5 9.5-32.3l5-9.6v-12.7c0-26.4 3.8-59.4 7-61.4 2.1-1.3 17.8 11.3 33.7 26.9 14.6 14.2 16.5 15.8 19 15.3 1.5-.3 7.3-1.6 12.8-3.1 5.5-1.4 15.8-3.3 23-4.2 11.3-1.4 14.7-1.5 26.3-.4 15.7 1.5 14.4 2.3 23.2-12 7.8-12.8 16.9-25 24.4-32.8 6.9-7.2 7.4-7.1 10.2 2.3"/><path d="M420.5 410c-3.3 1.3-4.8 3.8-4.8 8 0 5.2 2.2 7.5 8.4 9 5.4 1.3 10.9.7 14.5-1.6 4.6-3.1 5.3-12 1-14.9-2.3-1.6-15.6-2-19.1-.5m18.7 1.7c6.2 7.1-1.3 16.4-12 14.9-7.9-1.1-12.2-5.7-10.2-11 1.6-4.2 4.8-5.6 13.1-5.6 6 0 7.9.4 9.1 1.7m-112.7 6.4c-3.8 1.1-5.5 3.4-5.5 7.5 0 5.2 3.6 8.6 9.8 9.2 7 .6 12-.5 14.8-3.3 3.3-3.3 3.3-8.7-.1-12-2.1-2.2-3.3-2.5-9.2-2.4-3.7 0-8.1.5-9.8 1m18.5 2.6c5.1 6.6-.4 13.3-11.1 13.3-4.8 0-6.3-.5-8.9-2.6-2.6-2.2-3.1-3.3-2.8-6.3.4-4.9 4.8-7.1 14-7.1 6 0 6.9.2 8.8 2.7m34 16c-3.8 1.5-6 4.7-6 8.6 0 3.5.7 4.6 5.5 9.2 6 5.8 6.7 8.3 4 13.5-3.4 6.6-10.4 7.8-19.9 3.4-6.5-3-8.2-2.9-10.8.7-4.4 5.8.5 11.7 12.8 15.4 8.6 2.6 14.3 1.6 22.5-4.1l3.6-2.5 5.9 3.2c5.1 2.7 6.5 3 10.9 2.4 13.4-1.7 24.6-13.3 19-19.5-2.6-2.9-5.5-2.5-11.1 1.5-7.8 5.6-13.3 4.6-17.3-3.2-2-3.9-1.2-6.1 3.3-9.8 4.9-4 6.8-8.1 5.9-12.6-1-5-4.3-6.4-16.2-6.6-5.8-.1-11.3 0-12.1.4m22.5 1.8c7.2 2.9 6.7 9.6-1.1 16-4.7 3.8-5.3 6-3.3 11.2 3.2 8.5 10.6 9.8 19.6 3.6 5.6-3.9 7.3-3.9 9.7 0 2.9 4.5-8.9 14.9-18.4 16.2-4.4.6-5.6.3-10.5-2.4-3-1.7-6-3.1-6.6-3.1-.7 0-3.7 1.6-6.7 3.6-6.7 4.5-12 5.3-19.3 2.9-12-4-16.4-9.4-11.6-14.3l2.6-2.5 6.2 2.7c5 2.3 7.2 2.7 11.5 2.4 6.1-.5 8.8-2.4 10.5-7.5 1.8-5.7.5-9.5-5.1-14.2-4.2-3.5-5-4.8-5-7.6 0-2.5.8-4 3.1-5.9 2.8-2.4 3.8-2.6 12-2.6 5.6 0 10.3.5 12.4 1.5m465.4-118.4c-1.5 1.5-1.8 6.5-2.4 39-1.3 67.4-1.2 105.4.4 107.2 1.9 2.3 20.2 2.5 22.1.2.9-1.1 1.5-18.6 2.1-73.2.5-39.5.7-72.3.5-72.9-.3-.9-3.9-1.4-10.8-1.6-8.5-.2-10.6 0-11.9 1.3m21.7 1.2c.2.7 0 33.1-.4 72-.7 54.1-1.2 71-2.2 72.2-1.6 2-18.2 2.2-19.7.2-2.1-2.5-2.3-19.3-1.2-80.5.8-49.6 1.4-63 2.4-64.2 1.7-1.9 20.3-1.6 21.1.3m-171.5 0c-.6.8-1.3 5.8-1.6 11.3-.7 12.9-1.4 131.5-.8 133.1.7 1.9 22.6 1.8 24.1 0 .8-.9 1.1-22.8 1.1-72.9v-71.5l-4.6-.7c-7.9-1.1-17-.7-18.2.7m18.1.3 3.7.6v70.6c0 49.3-.3 71-1.1 71.9-1.5 1.8-21.4 1.9-22.1 0-.6-1.6.1-120.4.8-132.1.3-4.9 1-9.5 1.6-10.2 1.2-1.5 10.4-1.9 17.1-.8m-60 22.6c-1.7 1.7-1.7 119.9 0 121.6 1.5 1.5 22.1 1.7 24.7.2 1.7-.8 1.8-4.7 2.5-59.9.6-42.7.5-59.5-.4-61-1-2-1.9-2.1-13.3-2.1q-12.3 0-13.5 1.2m25.8 1.9c.9 1.5 1 18.1.4 60-.7 54.2-.8 58.1-2.5 58.9-2.6 1.5-21.2 1.3-22.7-.2-1.7-1.7-1.7-117.9 0-119.6.8-.8 5-1.2 12.5-1.2 10.4 0 11.3.2 12.3 2.1m124.7-1.9c-1.5 1.2-1.8 6.6-2.4 61.4-.3 35.6-.2 60.3.3 60.6 1.5 1 25.2 1.4 26.1.5 1.2-1.3 2.3-120.9 1.1-122.5-.7-.8-4.5-1.2-12.2-1.2-7.4 0-11.8.4-12.9 1.2m24.1 1c1.4 1.9.3 118.3-1.2 120.2-.9 1-3.6 1.2-12.6.7l-11.5-.6.2-59.4c.2-42.2.6-59.8 1.4-60.7 1.5-1.9 22.2-2 23.7-.2M238 494.6c-5.2 2-10.3 3.8-11.2 4.1-2.7.8-2.1 3.7 1.2 5.6 6.2 3.7 7.8 7.8 4.2 11-2.9 2.6-5.9 2-12.4-2.3-15-10-46-15-92.8-15-35 0-70.4 3-84.3 7.2l-4 1.2.6 9c.3 5 2.2 16.7 4.1 26.1C68 660.5 70 669.8 74.1 684.7l3.1 11.3 4.1 1.1c4.3 1.1 6.1 1 33.7-2.1 9.1-1 27.5-3.1 41-4.5 28-2.9 28.9-3.1 29.6-4.8.2-.8-1.6-4.3-4-8-2.5-3.7-5.7-10.5-7.2-15-2.4-7-2.7-9.8-2.7-19.2.1-13.6 2.5-22.2 11.6-42.1 7.2-15.7 14.4-27.6 29.1-47.9 12.2-16.9 18.5-24.4 33.3-39.6 6.2-6.4 11.3-12.1 11.3-12.8 0-2.3-6.1-10.1-7.8-10.1-.9.1-6 1.7-11.2 3.6m15 2 3.2 4.5-11.4 11.7c-15.5 16-20.8 22.3-33.5 39.8-14.5 20-22.1 32.5-28.9 47.5-9.9 21.6-13.8 39.7-11.5 52.4 2 10.7 5.2 19.5 9.7 26.1 4.2 6.4 4.2 6.5 2.1 7.4-1.2.5-13.2 2.1-26.7 3.5s-31.9 3.5-41 4.5c-28.2 3.2-29.6 3.3-33.4 2-3.2-1-3.7-1.7-5.6-7.8-1.1-3.7-4.2-16.8-7-29.2-4.3-19.7-8.6-40.1-24.6-117.5-1.9-9.4-3.8-20.9-4.1-25.6l-.6-8.7 3.4-1.1c6-1.9 29.6-5 47.6-6.2 22.7-1.5 70.7-.6 86.3 1.6 22.2 3.1 35 7.2 43.9 13.9 6.5 4.9 14.1 2.7 14.1-4 0-3.5-1.4-5.3-6-8.1-2.5-1.4-4-3.3-2.7-3.3.2 0 5-1.8 10.8-4 5.7-2.2 10.9-4 11.6-4s2.6 2.1 4.3 4.6m473.6 84.3c-.3.5.2 2.8 1.1 5.2 1.1 2.9 1.7 7.6 1.7 13.9.1 10.5-.8 13-7.1 20.8-1.9 2.3-3.3 4.8-3 5.6.3.7 3.7 3.1 7.6 5.5 10.2 6 20.1 14.3 32.7 27.4 12.9 13.3 18.3 20.6 30 40.7 4.6 8 9.6 15.8 11.1 17.2 2.3 2.1 6.5 3.5 22.6 7.3 11.3 2.7 20.2 4.4 20.7 3.9s1.2-11.7 1.5-24.9c1-38.3 3.9-54 12.5-68.7 5.5-9.2 12.8-16.9 21.8-22.8 9.7-6.3 10.6-7 9.5-8.1-1.8-1.7-31.3-6.7-74.8-12.4-6.6-.9-18.5-2.5-26.5-3.6-8-1-23.5-3-34.5-4.4s-21.4-2.7-23.2-3c-1.7-.3-3.4-.1-3.7.4m26.9 3.6c11 1.4 26.5 3.4 34.5 4.4 8 1.1 19.9 2.7 26.5 3.6 42.3 5.6 71.9 10.5 73.4 12.1.3.4 0 .9-.7 1.1-3.9 1.4-16.7 11-21.1 15.9-15.6 17-20.4 35.1-21.6 81.4-.3 12.9-.9 23.8-1.4 24.3-.4.4-9.3-1.3-19.7-3.8-15.5-3.8-19.3-5-21.6-7.2-1.6-1.5-6.6-9.3-11.2-17.3-12.6-21.6-17.5-28.1-33.5-44.1-13.4-13.3-19-17.8-34.4-27.3l-2.8-1.7 3.5-4.2c5.5-6.7 7.1-11.9 7-22.2 0-5.6-.7-10.6-1.7-13.2-1.8-4.7-1.5-5.4 2.2-4.7 1.4.2 11.6 1.6 22.6 2.9"/><path d="M897.5 616.4c-10.2 3.2-20.4 10.8-26 19.2-4.8 7.2-9.1 19.2-11 30.7-2.2 12.8-3.3 68-1.5 70.2.7.8 3.8 2.9 6.9 4.7 7 4 19.1 15.8 22.1 21.8 3.5 6.7 3.8 16.8.9 24.5-3.8 10.3-16.6 21-27.6 23.3l-3.8.8-.3 48.4c-.1 26.7 0 49.5.3 50.8.9 3.7 4 4.1 21.1 2.6 19.3-1.6 24.2-2.7 29.3-6.5 9.6-6.9 10.1-11.1 12.6-109.4.8-31.9 1.9-61.7 2.5-66 1.5-10.5 5.3-18.6 12.9-26.9 5.1-5.7 6.5-8 8.6-14.7 2.1-6.8 2.5-9.9 2.5-21 0-21.5-3.8-33.2-14.3-43.9-7.3-7.5-13.1-10-23.2-9.9-4.4 0-9.8.6-12 1.3m24.2 1.8c6 3 14.4 11.7 18.2 18.7 4.9 9.3 6.3 17.4 5.9 34.1-.5 18-2.1 22.8-10.8 32.5-6.8 7.4-9.4 12-11.5 20.2-1.9 7.2-3.2 30.7-4 70.8-.3 17-1 42.9-1.6 57.5-1.5 42-2.8 48-11.1 54-5.5 4-8.5 4.7-27.8 6.4-17.4 1.5-19.6 1.2-20.5-2.7-.3-1.2-.4-23.5-.3-49.6l.3-47.3 5.5-1.7c7-2.2 9.4-3.5 14.9-7.9 9.3-7.6 13.7-17.5 12.9-29.2-.3-3.6-1.5-8.7-2.6-11.4-2.7-6-14.7-18.1-22.3-22.4-3.1-1.8-6.2-3.9-6.9-4.7-1.8-2.2-.6-56.4 1.5-69.4 3.7-22.4 13.6-37.5 30-45.9 7.1-3.6 9-4 17.9-4.1 6.3-.1 8.8.4 12.3 2.1m-270.6 122c0 .7 1.3 4.9 2.7 9.3 2.5 7.4 2.9 8 5.7 8.3 2.7.3 25.5-2.1 31.3-3.4 8-1.7-7.2-8.8-28.7-13.4-11.1-2.4-11.1-2.4-11-.8m11 1.8c11.8 2.5 14.7 3.5 23.2 7.3 4.3 1.9 6.3 3.3 5.5 3.8-2.7 1.4-30.9 4.3-32.5 3.3-1.4-.9-7.1-16.4-6-16.4.2 0 4.6.9 9.8 2m24.9 25.6c-9.1 1.3-18.5 2.7-21 3.1l-4.5.8.1 4.6c.1 2.5 1.1 6.4 2.3 8.6 3.2 6.3 8.1 10.3 41.1 32.9 13.5 9.3 27 21.3 35.6 31.7 2.9 3.4 3.5 3.7 7 3.2 2.2-.2 11.6-1.2 20.9-2 9.4-.9 24.9-2.5 34.5-3.5 9.6-1.1 22.1-2.3 27.7-2.6 13.8-.9 13.4-.4 13.1-18.5l-.3-14.3-3.5-.7c-1.9-.4-7.3-1.5-12-2.4-4.7-1-16.8-3.9-27-6.7-47.9-12.7-59.9-17.3-79.5-30.2-11.7-7.7-10.1-7.5-34.5-4m31.5 3.7c17 11.4 27.3 16 50.1 22.6 22.3 6.4 50.2 13.7 59.4 15.6 4.7.9 9.9 2 11.5 2.4l3 .7.3 13.3c.3 16.9.6 16.6-12.6 17.5-5.3.3-17.6 1.5-27.2 2.6-9.6 1-25.1 2.6-34.5 3.5-9.3.8-18.7 1.8-20.7 2-3.5.5-3.9.2-8.2-5.4-6.9-9-18.6-19.2-34.1-29.8-31.5-21.6-36.3-25.4-40.1-31.5-1.5-2.4-2.6-5.7-2.7-8.1-.2-5-1.5-4.6 23.8-8.1 24.2-3.4 22.7-3.5 32 2.7m96.5 87.3c-6.3.8-23.9 2.7-39 4.2l-27.5 2.8-.6 8c-1 15.2-9.2 24.8-25.9 30.4-5.5 1.9-8.1 2.1-17 1.8-16.1-.7-25.3-5.2-46.7-22.9-5.4-4.5-10.7-8.5-11.8-8.9s-11.7.3-23.5 1.5c-21.6 2.3-44.8 4.5-94.5 9-14.8 1.4-32.2 2.9-38.5 3.5-30 2.8-55.6 5.1-77.5 7-13.2 1.1-47.4 4-76 6.5s-65.9 5.6-83 7c-50.4 4-68 5.5-86 7-9.3.8-25.3 1.5-35.5 1.5-13.1 0-19 .4-19.8 1.2-1.8 1.8-1.7 64.4.1 65.1.7.2 19.9-1.3 42.7-3.4 77.4-7.1 85.5-7.9 136.5-12.4 28.1-2.4 56.4-4.9 63-5.5s16.3-1.5 21.5-2c5.2-.6 54.3-5.1 109-10 54.7-5 111.4-10.1 126-11.5s38.4-3.7 53-5c26.9-2.6 31-3 66.5-6.4 11-1.1 40.5-3.9 65.5-6.2s46-4.6 46.5-5.1c.6-.5 1-11.8 1-29.6v-28.7l-8.5-.1c-4.7-.1-13.7.4-20 1.2m27.8 26.9c.2 20.7-.1 27.5-1 28.7-1.1 1.4-9 2.4-45.8 5.7-39.3 3.6-53.1 4.9-95.5 9.1-5.5.5-21.9 2.1-36.5 3.5-14.6 1.3-38.4 3.6-53 5S539.7 944 485 949c-54.7 4.9-103.8 9.4-109 10-5.2.5-14.9 1.4-21.5 2s-34.9 3.1-63 5.5c-52 4.6-63.5 5.7-136.5 12.4-22.8 2.1-41.8 3.7-42.2 3.4-1.4-.8-1-61.7.4-63.1.8-.8 6.6-1.2 19.3-1.2 9.9 0 25.7-.7 35-1.5 18-1.5 35.6-3 86-7 17.1-1.4 54.4-4.5 83-7s62.8-5.4 76-6.5c21.9-1.9 47.5-4.2 77.5-7 6.3-.6 23.7-2.1 38.5-3.5 50.7-4.5 73-6.7 94.5-9 24.8-2.7 21.2-3.5 35.5 8.4 19.6 16.3 29.5 21 46.2 21.8 8.6.5 11.2.2 17.5-1.7 17.2-5.1 25.5-14.7 26.7-30.5l.6-8 26.5-2.7c14.6-1.4 31.9-3.3 38.5-4.1s15.6-1.4 20-1.3l8 .1zm3.7 44.6c-12.5 1.1-16.3 1.7-17 2.9-1 1.7 5.4 35.4 7.1 37 2.1 2.2 23.5 2.8 25.2.7 1.3-1.5 3.7-16.9 4.8-30.8.9-11.8 1.4-11.6-20.1-9.8m18.6 1.5c1 1.2.9 4.4-.5 17.7-1 8.9-2.3 17.3-2.9 18.7-1.2 2.4-1.7 2.5-11.3 2.8-14.1.4-13.7.8-17.5-19.8-2.7-14.9-2.8-16.6-1.4-17.7.9-.6 6.4-1.4 12.3-1.8 5.9-.3 11.2-.8 11.7-1 2.8-1 8.4-.3 9.6 1.1"/></g></svg>