<svg version="1.1" xmlns="http://www.w3.org/2000/svg" style="display: block;" viewBox="0 0 2048 2048" width="1024" height="1024">
<path transform="translate(0,0)" fill="rgb(5,7,6)" d="M 0 0 L 2048 0 L 2048 2048 L 0 2048 L 0 1771.65 L 0 733.523 L 0 0 z"/>
<path transform="translate(0,0)" fill="rgb(248,243,229)" d="M 0 0 L 2048 0 L 2048 2048 L 0 2048 L 0 1771.65 C 4.11026 1778 7.45039 1782.02 15.1633 1783.54 C 22.545 1784.99 30.714 1783.68 38.2279 1784.29 C 59.8128 1796 188.492 1832.72 193.581 1839.57 C 195.685 1842.41 196.023 1848.28 196.179 1851.64 C 196.752 1864.04 195.315 1876.73 195.162 1889.17 C 194.998 1902.5 195.769 1915.86 195.853 1929.2 C 195.924 1940.63 195.355 1952.09 195.661 1963.52 C 195.934 1973.69 197.556 1987.49 205.66 1994.52 C 210.991 1999.13 222.166 1998.11 229.006 1997.79 C 254.048 1996.61 279.197 1993.12 304.159 1990.8 C 367.57 1984.49 431.02 1978.57 494.503 1973.04 L 760.29 1949.07 L 1312.25 1897.93 C 1418.31 1887.95 1524.43 1875.9 1630.65 1867.91 C 1636.42 1889.09 1642.35 1947.51 1651.76 1962.78 C 1655.42 1968.72 1660.69 1970.68 1667.33 1971.99 C 1677.46 1973.98 1715.25 1974.25 1725.77 1972.82 C 1731.02 1972.11 1736.23 1970.7 1740.57 1967.57 C 1746 1963.67 1749.68 1958 1751.87 1951.75 C 1759.76 1929.26 1758.92 1883.94 1763.13 1858.04 L 1763.39 1856.49 C 1784.09 1851.38 1804.46 1852.38 1823.99 1842.03 C 1838.95 1834.26 1850.44 1821.15 1856.18 1805.29 C 1864.46 1782.33 1864.19 1752.54 1865.58 1728.33 C 1868.31 1680.83 1869.32 1633.38 1870.08 1585.81 C 1870.39 1566.48 1871.4 1547.17 1871.85 1527.84 C 1872.36 1505.83 1870.64 1483.33 1874.36 1461.56 C 1878.17 1439.27 1887.88 1436.68 1899.48 1420.69 C 1907.08 1410.21 1912.94 1396.59 1916.63 1384.23 C 1923.74 1360.42 1924.45 1322.31 1919.38 1297.94 C 1916.39 1284.23 1911.48 1271.01 1904.81 1258.66 C 1891.59 1234.46 1870.44 1214.94 1845.93 1202.5 C 1789.92 1174.07 1716.71 1169.03 1655.14 1160.12 C 1603.03 1152.59 1550.8 1145.04 1498.56 1138.48 C 1475.82 1135.63 1451.71 1134.54 1429.3 1129.8 C 1418.84 1127.59 1409.37 1119.31 1400.39 1113.72 C 1372.08 1096.12 1341.32 1086.51 1308.91 1079.7 C 1295.24 1076.82 1281.1 1074.61 1267.73 1070.59 L 1266.21 1070.12 C 1265.85 1036 1263.01 1002.24 1260.41 968.242 C 1256.84 921.58 1254.08 870.748 1240.65 825.763 C 1233.47 801.731 1222.29 777.75 1206.93 757.83 C 1166.31 705.124 1102.98 699.601 1042 691.928 L 1041.95 615.53 C 1041.95 595.878 1040.79 575.502 1044.57 556.147 C 1123.2 554.261 1202 556.1 1280.65 555.986 C 1408.94 554.997 1537.23 555.601 1665.49 557.798 C 1711.34 558.845 1757.25 557.384 1803.12 558.619 C 1816.53 558.981 1830.63 557.994 1843.94 559.507 C 1846.32 559.777 1847.6 560.634 1849.38 562.159 C 1850.97 565.204 1850.8 569.779 1850.89 573.187 C 1852.8 648.983 1850.1 725.073 1850.03 800.878 C 1850 835.039 1850.25 869.151 1849.21 903.293 C 1848.97 911.454 1850.25 920.746 1848.85 928.729 C 1848.27 932.026 1847.02 935.107 1844.11 937.016 C 1837.53 941.34 1817.21 939.893 1809.58 937.86 C 1808.62 937.606 1806.39 936.932 1805.83 936.122 C 1802.73 931.646 1803.9 917.916 1803.91 912.546 L 1806.01 706.699 C 1806.08 683.906 1808.42 660.223 1806.91 637.568 C 1806.5 631.481 1805.2 621.675 1801.46 616.851 C 1798.42 612.941 1792.31 612.033 1787.71 611.394 C 1775.22 609.664 1737.56 610.292 1725.71 612.115 C 1720.66 612.892 1715.32 614.52 1711.3 617.799 C 1703.76 623.957 1706.82 643.181 1705.75 652.247 C 1705.5 654.347 1704.87 658.738 1702.71 659.847 C 1692.17 665.257 1637.87 656.674 1627.8 665.71 C 1624.67 668.521 1623.73 672.651 1623.18 676.654 C 1620.56 695.525 1622.17 717.052 1622.09 736.159 C 1621.92 780.67 1621.31 825.179 1620.26 869.678 C 1619.94 887.732 1621.65 907.232 1619.53 925.075 C 1619.02 929.304 1618.19 933.22 1614.81 935.947 C 1607.27 937.304 1514.45 936.423 1510.34 934.622 C 1506.78 933.06 1506.57 921.934 1506.38 918.346 C 1504.42 881.512 1505.55 842.313 1505.9 805.34 L 1506.01 691.064 C 1506.06 675.509 1508.53 636.271 1503.97 623.706 C 1502.82 620.524 1500.38 618.994 1497.3 617.861 C 1485.51 613.508 1425.75 612.306 1415.2 617.869 C 1403.43 624.075 1410.19 645.106 1406.18 655.076 C 1402.22 664.889 1347.08 656.666 1334.24 661.551 C 1329.51 663.351 1326.26 666.78 1324.97 671.701 C 1321.83 683.798 1324.18 699.693 1323.96 712.439 C 1323.56 735.672 1324.24 926.642 1320.75 934.03 C 1312.88 939.472 1291.96 934.762 1282.12 935.561 C 1278.01 935.895 1273.41 937.122 1270.91 940.691 C 1268.09 944.727 1268.69 952.085 1270 956.589 C 1270.72 959.082 1272.36 961.803 1274.69 963.131 C 1280.45 966.409 1309.64 964.949 1317.61 964.935 L 1632.64 965.938 C 1690.91 965.939 1749.16 965.685 1807.39 967.953 C 1818.05 968.368 1828.83 967.127 1839.46 967.935 C 1841.85 968.117 1844.37 968.388 1846.43 969.716 C 1848.29 970.916 1848.88 975.169 1849.09 977.238 C 1850.47 990.421 1849.32 1005.01 1849.43 1018.33 C 1849.71 1054.24 1849.55 1090.35 1848.94 1126.27 C 1848.64 1143.9 1846.02 1163.59 1848.61 1181 C 1849.1 1184.27 1850.84 1186.9 1853.51 1188.8 C 1857.43 1191.6 1862.74 1192.21 1867.39 1191.47 C 1871.08 1190.89 1876.39 1189.04 1878.43 1185.7 C 1879.61 1183.77 1879.9 1181.7 1880.01 1179.49 C 1881.18 1156.05 1879.94 1132.02 1880.03 1108.5 L 1880.8 950.5 L 1881.97 331.131 L 1882.38 190.495 C 1882.66 167.214 1886.46 138.913 1882.13 116.255 C 1879.74 113.387 1877.88 111.258 1874.01 110.676 C 1865.62 109.414 1856.52 110.092 1848.02 109.859 L 1795.51 108.774 L 1577.51 106.968 L 1192 104.318 L 1069.56 104.763 C 1057.51 104.892 1045.2 103.645 1033.19 104.28 C 1027.98 104.555 1022.49 105.774 1018.34 109.134 C 1014.76 112.037 1013.84 114.583 1013.23 119.112 C 1011.39 132.795 1013.01 148.463 1012.92 162.339 C 1012.74 191.157 1012.02 219.963 1012.01 248.785 L 1010.15 552.745 L 1010.01 642.482 C 1010 657.638 1011.08 673.815 1009.47 688.853 C 1009.43 689.221 1009.38 689.589 1009.34 689.956 C 995.258 690.185 974.302 686.908 961.223 691.17 C 956.651 692.659 954.662 695.368 952.674 699.588 C 948.811 699.069 944.818 699.197 940.923 699.144 C 937.807 671.195 929.024 591.578 907.754 573.691 C 902.906 569.615 896.806 567.572 890.478 568.342 C 868.737 570.986 836.638 612.973 823.856 630.445 C 812.739 645.64 803.63 662.204 792.53 677.341 C 759.733 675.047 729.002 677.17 696.627 682.629 C 684.494 684.675 672.344 687.99 660.173 689.486 C 640.297 667.21 578.118 603.866 547.368 602.433 C 541.87 602.177 536.395 603.637 532.265 607.391 C 515.411 622.709 512.353 679.582 510.155 702.342 L 500.225 701.99 C 498.396 697.474 496.583 692.187 491.716 690.103 C 477.92 684.196 413.83 686.663 395.631 686.881 C 357.81 687.334 320.046 686.904 282.209 687.903 C 214.286 689.694 145.43 694.598 78.2398 704.794 C 59.0236 707.71 35.912 709.906 18.2901 718.19 C 13.178 720.593 9.85477 725.918 7.98566 731.038 L 6.85512 732.55 L 0 733.523 L 0 0 z"/>
<path transform="translate(0,0)" fill="rgb(237,86,67)" d="M 7.98566 731.038 C 9.85477 725.918 13.178 720.593 18.2901 718.19 C 35.912 709.906 59.0236 707.71 78.2398 704.794 C 145.43 694.598 214.286 689.694 282.209 687.903 C 320.046 686.904 357.81 687.334 395.631 686.881 C 413.83 686.663 477.92 684.196 491.716 690.103 C 496.583 692.187 498.396 697.474 500.225 701.99 L 510.155 702.342 C 509.183 717.189 508.349 732.044 507.652 746.907 C 507.255 756.46 507.75 766.639 506.296 776.075 C 504.727 786.254 498.669 795.664 494.713 805.091 C 490.024 816.267 485.991 828.231 483.268 840.046 C 480.74 851.011 482.075 878.69 477.082 885.815 C 460.904 894.261 398.624 879.352 392.632 899.177 C 391.71 902.225 391.486 906.438 393.137 909.274 C 395.584 913.477 401.517 915.125 406.026 915.605 C 416.891 916.761 474.494 909.629 478.848 915.172 C 481.191 918.154 488.968 952.632 488.281 957.222 C 488.021 958.956 485.428 960.355 483.994 961.237 C 474.892 966.839 427.372 985.213 418.794 985.747 C 407.256 986.466 392.405 980.717 380.967 978.425 C 367.676 975.747 354.255 973.761 340.758 972.478 C 316.738 970.173 291.624 968.543 267.473 968.39 C 224.188 968.117 102.932 972.531 67.2578 990.287 C 61.124 993.34 55.8714 997.449 54.0734 1004.31 C 45.9023 1035.48 67.7711 1118.87 75.2835 1154.84 C 87.1242 1210.94 98.684 1267.1 109.963 1323.31 C 113.952 1342.62 119.561 1361.79 123.011 1381.16 C 123.581 1384.36 124.469 1388.14 123.154 1391.21 C 105.682 1399.88 38.1026 1390.33 32.0585 1409.89 C 30.9761 1413.4 31.8993 1417.55 33.8795 1420.55 C 36.0794 1423.88 38.6823 1425.82 42.6701 1426.5 C 59.4118 1429.33 106.584 1420.43 126.544 1419 C 140.853 1417.98 153.327 1426.41 168.003 1425.17 C 235.031 1419.56 301.734 1409.21 368.713 1402.87 C 382.575 1401.56 402.104 1396.65 415.252 1397.56 C 428.475 1398.48 441.845 1403.59 454.956 1405.91 C 490.603 1412.23 525.22 1412.14 559.417 1426.13 C 603.979 1444.36 639.004 1483.39 691.839 1471.72 C 704.821 1468.86 715.697 1461.6 728.18 1458.09 C 762.908 1468.65 795.834 1486.31 829.597 1499.66 C 866.346 1514.19 904.697 1523.14 943.177 1531.64 C 950.165 1533.19 990.547 1540.33 993.567 1545.73 C 991.078 1548.29 986.29 1548.92 982.897 1549.36 C 962.093 1552.08 940.484 1552.47 919.511 1553.95 C 875.713 1557.23 831.894 1560.23 788.057 1562.95 L 428.374 1588.13 C 394.707 1590.3 361.054 1592.69 327.419 1595.3 C 313.516 1596.34 299.198 1596.52 285.407 1598.37 C 277.635 1599.42 268.306 1601.92 267.934 1611.52 C 267.818 1614.51 270.02 1619.8 272.242 1621.9 C 274.408 1623.95 276.921 1625.04 279.832 1625.51 C 293.157 1627.68 337.944 1622.91 353.515 1621.7 C 523.855 1608.99 694.26 1597.15 864.721 1586.19 C 907.47 1583.49 950.173 1580.12 992.815 1576.07 L 1042.88 1571.21 C 1051.67 1570.37 1061.25 1568.77 1070.05 1569.2 C 1083.92 1569.88 1100 1580.54 1110.34 1589.31 C 1137.86 1612.69 1152.66 1647.27 1178.64 1671.87 C 1195.09 1687.46 1216.19 1697.79 1234.93 1710.33 C 1240.74 1714.21 1247.14 1718.01 1251.99 1723.08 C 1238.61 1727.33 1223.13 1727.62 1209.15 1728.97 L 1149.66 1734.59 L 934.882 1754.06 L 497.996 1791.56 L 367.116 1802.27 C 338.348 1804.71 309.506 1807.8 280.689 1809.51 C 273.324 1809.95 264.174 1810.49 257.468 1806.97 C 255.415 1805.9 254.277 1804.79 253.698 1802.47 C 251.102 1792.05 255.529 1777.07 256.296 1766.23 C 257.925 1743.19 258.276 1719.71 257.943 1696.63 C 257.269 1649.97 255.127 1613.51 212.736 1585.96 C 205.526 1581.29 197.865 1577.35 189.87 1574.21 C 170.775 1566.6 53.5173 1527.68 40.4062 1530.83 C 36.8638 1531.68 33.193 1534.02 31.3341 1537.21 C 29.4015 1540.52 29.8161 1544.49 31.1992 1547.92 C 33.1764 1552.82 36.2118 1554.32 40.9284 1556.18 C 50.2999 1559.88 60.4227 1562.04 70.0602 1565.01 L 131.24 1584.03 C 162.187 1593.61 207.32 1603.94 222.571 1636.27 C 225.865 1643.25 227.527 1650.97 228.46 1658.59 C 231.536 1683.75 232.339 1769.22 224.435 1790.21 C 222.179 1796.21 219.093 1800.82 213.089 1803.44 C 205.977 1806.55 197.511 1806.36 189.969 1805.2 C 176.441 1803.13 162.928 1797.89 149.921 1793.66 C 126.094 1785.87 102.335 1777.87 78.6489 1769.66 C 69.7661 1766.61 58.4189 1761.19 49.0817 1760.68 C 43.1545 1760.36 36.9257 1762.59 34.6737 1768.54 C 33.2253 1772.36 33.7639 1776.39 35.5751 1779.98 C 36.3323 1781.49 37.2199 1782.93 38.2279 1784.29 C 30.714 1783.68 22.545 1784.99 15.1633 1783.54 C 7.45039 1782.02 4.11026 1778 0 1771.65 L 0 733.523 L 6.85512 732.55 L 7.98566 731.038 z"/>
<path transform="translate(0,0)" fill="rgb(5,7,6)" d="M 7.98566 731.038 C 9.85477 725.918 13.178 720.593 18.2901 718.19 C 35.912 709.906 59.0236 707.71 78.2398 704.794 C 145.43 694.598 214.286 689.694 282.209 687.903 C 320.046 686.904 357.81 687.334 395.631 686.881 C 413.83 686.663 477.92 684.196 491.716 690.103 C 496.583 692.187 498.396 697.474 500.225 701.99 C 499.643 708.177 498.543 711.64 493.863 715.857 C 480.113 719.932 452.147 717.231 436.843 717.316 C 384.84 717.602 332.804 717.035 280.808 718.126 C 228.099 719.231 174.604 723.224 122.164 728.57 C 99.0915 730.919 76.1081 734.075 53.2564 738.033 C 43.9802 739.704 34.0047 743.566 24.8313 744.373 C 21.6147 744.656 18.3157 744.318 15.44 742.762 C 10.8385 740.272 9.50621 735.701 7.98566 731.038 z"/>
<path transform="translate(0,0)" fill="rgb(237,86,67)" d="M 940.923 699.144 C 944.818 699.197 948.811 699.069 952.674 699.588 C 953.209 704.642 954.39 710.875 958.084 714.672 C 959.955 716.595 961.881 717.58 964.46 718.128 C 973.953 720.146 984.546 718.639 994.189 718.528 C 1002.89 718.475 1011.59 718.778 1020.26 719.433 C 1075.09 723.087 1142.09 727.338 1180.5 771.576 C 1191.92 784.468 1201.11 799.17 1207.7 815.081 C 1227.8 863.635 1230.49 934.716 1234.17 987.046 C 1235.57 1006.89 1239.91 1040.21 1238.06 1059.14 C 1237.76 1062.16 1237.75 1063.8 1235.32 1065.7 C 1218.77 1066.43 1200.81 1061.74 1184.33 1059.45 C 1123.46 1051.01 991.054 1032.34 942.71 998.134 C 947.531 989.467 954.044 981.576 959.152 973.017 C 961.939 968.348 970.687 947.955 974.571 945.918 C 989.524 938.074 1042.4 964.735 1060.1 957.293 C 1063.03 956.061 1065.53 953.67 1066.65 950.666 C 1067.82 947.539 1068.13 944.093 1066.7 941.02 C 1059.78 926.133 1000.92 922.6 984.339 917.472 C 983.955 917.354 983.575 917.225 983.193 917.101 C 983.445 909.558 983.962 887.1 987.661 881.642 C 994.337 871.792 1057.17 868.039 1070.29 864.091 C 1073.5 863.125 1076.1 861.574 1077.7 858.47 C 1079.33 855.281 1079.44 851.286 1078.26 847.927 C 1070.43 825.471 1003.5 855.589 987.668 848.255 C 984.715 840.276 983.237 831.348 981.061 823.091 C 977.59 810.166 973.331 797.466 968.309 785.061 C 961.844 769.179 947.898 751.324 943.626 736.448 C 940.331 724.976 941.26 711.035 940.923 699.144 z"/>
<path transform="translate(0,0)" fill="rgb(248,243,229)" d="M 887.777 603.707 C 888.793 604.033 889.033 603.999 889.871 604.731 C 900.935 614.394 910.377 686.891 911.628 703.525 C 912.608 716.558 911.488 730.268 913.362 743.111 C 914.956 754.039 922.755 759.139 928.49 767.711 C 932.576 773.817 936.017 780.725 939.353 787.268 C 950.703 809.532 956.88 833.269 960.155 857.934 C 949.081 863.6 931.407 865.982 922.641 874.677 C 920.229 877.07 919.078 881.182 919.033 884.509 C 918.992 887.484 920.104 890.284 922.369 892.271 C 931.21 900.029 943.823 886.653 952.985 886.841 C 955.848 886.899 956.169 887.393 958 889.342 C 959.702 895.086 958.937 904.356 957.068 910.061 C 954.328 918.425 929.734 916.473 921.959 920.472 C 919.125 921.93 917.4 923.603 916.432 926.713 C 916.709 929.545 917.411 931.168 919.079 933.406 C 924.366 940.501 935.976 939.835 944.098 941.237 C 938.419 961.916 924.666 981.829 909.145 996.49 C 905.118 1000.3 897.566 1004.04 895.209 1009.03 C 893.896 1011.81 894.192 1015.19 895.47 1017.91 C 897.346 1021.9 901.255 1024.98 905.477 1026.15 C 912.603 1028.12 919.827 1022.69 925.797 1019.46 C 1001.82 1065.46 1099.37 1075.71 1185.8 1087.88 C 1202.79 1090.27 1219.7 1093.44 1236.65 1096.1 C 1295.08 1105.28 1347.52 1111.61 1397.65 1146.44 C 1415.76 1159.03 1429.55 1173.95 1433.29 1196.4 C 1434.65 1204.57 1434.68 1212.97 1429.42 1219.75 C 1424.17 1226.5 1414.16 1234.49 1405.23 1235.03 C 1393.75 1235.73 1394.45 1210.26 1384.34 1201.96 C 1380.05 1198.44 1373.65 1197.16 1368.24 1198.1 C 1366.45 1198.41 1364.2 1199.4 1363.27 1201.01 C 1358.65 1209.05 1369.8 1221.08 1371.12 1229.13 C 1371.56 1231.8 1371.07 1232.86 1369.61 1235.04 C 1364.92 1237.43 1359.04 1235.92 1354.24 1234.55 C 1341.4 1230.88 1329.13 1223 1316.81 1217.75 C 1296.93 1209.29 1275.27 1203.52 1254.14 1199.24 C 1232.04 1194.76 1190.3 1187.72 1168.46 1189.24 C 1165.12 1189.48 1161.3 1190.74 1158.58 1192.71 C 1155.93 1194.62 1154.25 1197.43 1154 1200.7 C 1153.71 1204.66 1155.38 1209.33 1158.19 1212.14 C 1160.61 1214.56 1163.75 1215.67 1167.01 1216.39 C 1175.88 1218.33 1185.65 1217.91 1194.72 1218.62 C 1207.45 1219.61 1220.31 1221.38 1232.91 1223.5 C 1257.19 1227.57 1281.52 1233.55 1304.28 1243.06 C 1320.61 1249.88 1336.91 1260.25 1354.32 1263.79 C 1365.36 1266.03 1375.87 1263.88 1386.86 1264.47 C 1402.59 1265.3 1422.35 1277.13 1435.65 1284.84 C 1474.89 1307.59 1508.06 1340.3 1533.47 1377.75 C 1542.6 1391.19 1579.87 1457.8 1585.6 1461.51 C 1593.61 1466.7 1605.86 1467.69 1615.02 1470.07 C 1657.9 1481.2 1714.08 1492.63 1744.62 1527.12 C 1755.52 1539.44 1756.83 1549.58 1755.81 1565.35 C 1749.13 1554.31 1740.45 1542.31 1727.88 1537.67 C 1723.27 1535.97 1717.48 1535.25 1713.08 1537.94 C 1710.94 1539.25 1709.32 1541.48 1709.04 1544.01 C 1707.91 1553.98 1725.11 1562.72 1730.11 1571.06 C 1732.3 1574.71 1735.22 1582.34 1733.49 1586.57 C 1732.02 1590.17 1727.06 1593.31 1723.59 1594.6 C 1707.27 1600.66 1705.96 1569.15 1689.61 1562.48 C 1685.74 1560.9 1678.81 1560.03 1675.01 1562.17 C 1663.88 1568.44 1683.45 1586.31 1682.55 1593.78 C 1673.16 1597.79 1541.6 1559.71 1525.07 1554.13 C 1510.05 1549.06 1494.81 1543.26 1480.85 1535.72 C 1467.33 1528.42 1455.38 1518.08 1443.24 1508.74 C 1424.73 1494.5 1404.1 1480.69 1382.53 1471.59 C 1370.78 1466.64 1358.16 1462.74 1345.82 1459.49 C 1333.78 1456.32 1297.86 1452.08 1289.66 1445.52 C 1281.51 1439 1275.52 1424.48 1269.68 1415.57 C 1243.67 1375.86 1206.05 1349.7 1161.37 1334.43 C 1146.19 1329.24 1097.84 1315.09 1083.67 1322.83 C 1080.83 1324.38 1079.04 1326.81 1078.24 1329.94 C 1077.34 1333.5 1077.82 1337.87 1079.91 1340.9 C 1085.99 1349.67 1104.41 1349.01 1114.02 1350.87 C 1214.01 1370.17 1265.73 1433.74 1290.12 1529.41 C 1295.87 1551.99 1296.88 1578.17 1312.93 1596.34 C 1355.08 1644.04 1422.12 1659.97 1460.16 1716.26 C 1468.78 1731.23 1471.48 1742.51 1468.85 1759.87 C 1468.4 1758.33 1467.92 1756.79 1467.49 1755.24 C 1464.85 1745.89 1459.78 1735.43 1452.66 1728.67 C 1449.17 1725.36 1443.95 1721.5 1438.81 1722.27 C 1436.46 1722.63 1433.6 1724.42 1432.36 1726.53 C 1426.67 1736.18 1443.44 1754.14 1445.22 1764.91 C 1446.03 1769.81 1445.39 1776.97 1442.01 1780.87 C 1439.48 1783.79 1431.93 1786.34 1427.99 1786.07 C 1418.14 1785.39 1418.78 1769.34 1416.54 1762.13 C 1414.75 1756.33 1409.89 1748.54 1405.59 1744.35 C 1402.87 1741.68 1400.06 1739.75 1396.09 1740.07 C 1392.84 1740.34 1388.44 1743.01 1386.71 1745.78 C 1380.77 1755.32 1395.69 1767.44 1396.88 1777.03 C 1397.21 1779.73 1396.61 1781.69 1394.92 1783.75 C 1386.96 1783.98 1373.13 1775.21 1366.45 1770.87 C 1343.3 1755.81 1323.65 1735.29 1301.02 1719.25 C 1280.76 1704.88 1259.28 1692.05 1238.31 1678.76 C 1224.25 1669.85 1209.25 1660.91 1197.05 1649.53 C 1187.11 1640.26 1179.3 1629.19 1171.54 1618.12 C 1154.43 1593.73 1138.57 1572.35 1113.19 1555.76 C 1048.28 1513.32 969.161 1511.4 896.509 1491.21 C 844.344 1476.71 799.466 1456.58 750.955 1432.95 C 752.852 1425.61 753.856 1418.07 753.947 1410.49 C 754.111 1396.37 750.658 1382.03 745.418 1368.97 C 721.368 1309.06 656.669 1281.65 599.035 1264.35 C 589.422 1261.47 559.847 1256.65 554.264 1249.9 C 547.108 1241.25 564.527 1230.69 564.678 1221.43 C 564.725 1218.6 563.144 1216.39 561.079 1214.63 C 557.017 1211.15 552.719 1208.88 547.323 1209.14 C 541.902 1211.28 537.736 1218.32 534.905 1223.24 C 528.942 1233.59 523.237 1247.56 526.76 1259.53 C 533.802 1283.45 587.371 1289.79 608.836 1296.54 C 625.133 1301.72 640.908 1308.41 655.956 1316.54 C 686.404 1333.27 713.613 1357.03 723.337 1391.53 C 725.573 1399.46 728.897 1415.26 724.147 1422.46 C 722.775 1424.53 721.515 1425.38 719.127 1425.7 C 715.283 1420.86 713.617 1411.34 711.18 1405.5 C 708.518 1399.11 704.251 1390.61 697.323 1388.16 C 694.089 1387.02 689.434 1387.25 686.503 1389.16 C 669.911 1399.98 700.505 1423.48 694.231 1438.01 C 692.851 1441.2 688.426 1443.1 685.451 1444.41 C 681.501 1446.16 676.705 1447.32 672.623 1445.26 C 663.986 1440.92 665.096 1424.61 661.469 1416.43 C 658.67 1410.11 654.444 1403.9 647.642 1401.5 C 644.337 1400.33 640.511 1400.2 637.457 1402.16 C 627.677 1408.45 641.579 1424.62 639.741 1433.48 L 638.042 1434.44 C 626.22 1431.53 615.148 1423.06 604.692 1417 C 589.52 1408.21 573.726 1399.76 556.94 1394.51 C 539.617 1389.1 521.245 1385.59 503.25 1383.18 C 465.231 1378.09 421.499 1377.17 392.775 1347.83 C 377.178 1331.9 370.012 1309.7 370.233 1287.68 C 370.944 1216.79 443.212 1124.68 489.019 1074.3 C 504.358 1057.42 521.053 1041.45 537.334 1025.49 C 550.616 1035.87 567.409 1048.81 584.521 1051.54 C 588.938 1052.24 593.646 1052.06 597.248 1049.09 C 600.627 1046.31 602.251 1041.28 602.382 1037.03 C 602.481 1033.83 601.442 1030.7 598.921 1028.61 C 592.825 1023.54 582.436 1021.01 575.171 1017.64 C 564.485 1012.68 554.289 1003.05 546.097 994.718 C 541.336 989.879 533.688 982.97 533.75 975.769 C 539.744 967.072 568.753 972.585 579.315 962.123 C 581.013 960.441 582.345 958.462 582.12 955.953 C 581.818 952.575 578.647 948.593 576.084 946.544 C 568.833 940.745 528.549 950.516 517.563 952.171 C 511.57 939.897 510.009 929.561 509.762 915.972 C 520.742 915.886 551.484 919.215 559.364 916.3 C 562.2 915.251 564.844 913.271 565.813 910.286 C 566.782 907.3 566.258 903.56 564.351 901.046 C 559.923 895.209 517.003 891.497 507.493 889.189 C 504.427 862.628 511.978 830.721 523.932 806.967 C 526.963 800.944 532.896 795.124 534.379 788.565 C 537.467 774.899 535.893 758.287 536.169 744.242 C 536.58 723.307 538.821 652.303 550.25 637.348 C 557.239 634.74 566.753 644.051 572.187 648.242 C 584.906 658.053 597.099 668.258 608.697 679.379 C 618.313 688.6 641.414 715.876 651.174 720.952 C 653.607 722.218 656.155 721.57 658.783 721.032 C 668.343 719.075 677.741 716.059 687.246 713.793 C 705.211 709.511 724.453 706.251 742.86 704.724 C 760.459 703.264 777.497 706.201 794.958 707.676 C 798.061 707.938 805.894 708.507 808.506 706.716 C 815.587 701.859 837.018 664.019 844.229 653.778 C 856.82 635.897 870.926 617.71 887.777 603.707 z"/>
<path transform="translate(0,0)" fill="rgb(5,7,6)" d="M 765.794 874.242 C 778.502 873.664 794.112 872.83 806.179 877.165 C 810.084 878.568 814.539 881.002 815.953 885.182 C 821.255 900.853 797.343 909.989 794.29 920.857 C 792.918 925.74 795.97 932.645 798.349 936.769 C 800.837 941.08 805.006 945.55 810.008 946.765 C 821.073 949.453 830.335 939.398 839.178 934.554 C 842.251 932.871 846.023 931.482 849.467 932.962 C 852.426 934.234 855.118 937.396 855.971 940.522 C 857.1 944.655 855.315 948.909 852.992 952.261 C 846.085 962.229 832.771 970.106 820.992 972.388 C 807.26 975.048 798.798 971.455 787.594 963.946 C 786.96 963.546 786.205 963.03 785.502 962.789 C 779.629 960.777 764.515 973.743 757.114 976.033 C 742.784 980.466 727.115 975.249 714.355 968.498 C 709.482 965.919 703.172 961.767 702.066 955.857 C 701.456 952.596 702.733 948.942 704.578 946.289 C 715.311 930.862 733.548 954.496 754.419 949.915 C 759.143 948.878 762.85 946.318 765.331 942.148 C 767.354 938.75 768.527 934.791 769.275 930.932 C 773.09 911.235 751.488 911.22 747.83 894.961 C 746.898 890.817 747.256 886.253 749.685 882.663 C 753.5 877.022 759.498 875.469 765.794 874.242 z"/>
<path transform="translate(0,0)" fill="rgb(5,7,6)" d="M 851.317 820.321 C 859.07 819.98 867.99 818.764 875.388 821.417 C 879.69 822.959 883.551 825.832 885.291 830.181 C 886.91 834.227 886.171 838.68 884.193 842.452 C 880.599 849.301 875.597 852.306 868.499 854.648 C 859.059 856.349 849.164 856.474 840.863 850.877 C 836.574 847.985 833.271 843.438 832.452 838.27 C 831.855 834.504 832.739 830.591 835.16 827.605 C 839.471 822.287 844.808 821.051 851.317 820.321 z"/>
<path transform="translate(0,0)" fill="rgb(5,7,6)" d="M 664.622 836.374 C 672.135 835.88 680.044 834.584 687.042 838.036 C 691.192 840.083 694.694 843.678 696.056 848.169 C 697.189 851.788 696.788 855.713 694.948 859.028 C 691.164 865.963 684.309 868.235 677.268 870.398 C 667.707 871.473 658.108 871.616 650.206 865.293 C 646.357 862.214 643.338 857.655 642.978 852.639 C 642.744 849.249 643.872 845.905 646.113 843.35 C 651.114 837.572 657.55 837.101 664.622 836.374 z"/>
<path transform="translate(0,0)" fill="rgb(237,86,67)" d="M 1672.93 1715.43 C 1676.39 1715.12 1681.01 1715.07 1684.22 1716.39 C 1685.87 1717.07 1687.03 1717.84 1687.57 1719.62 C 1690.05 1727.77 1688.56 1824.07 1685.72 1830.34 C 1684.88 1832.22 1684.39 1832.33 1682.42 1832.96 C 1671.4 1836.53 1615.52 1839.77 1601.82 1841.05 L 1381.53 1861.72 L 807.674 1914.54 C 693.97 1925.37 580.213 1935.62 466.406 1945.31 C 435.445 1947.78 232.212 1969.26 225.747 1966.16 C 221.465 1954.37 223.906 1927.42 223.999 1913.94 C 224.015 1900.47 220.998 1846.98 226.851 1837.94 C 240.186 1831.82 272.896 1837.93 289.031 1837 C 353.164 1833.34 417.44 1826.07 481.516 1821.09 C 560.441 1815.04 639.313 1808.31 718.124 1800.92 C 805.555 1794.06 892.935 1786.55 980.256 1778.41 L 1210.5 1757.08 C 1237.27 1754.69 1264.11 1750.22 1290.9 1748.81 C 1300.99 1753.97 1309.45 1761.92 1318.08 1769.14 C 1333.78 1782.29 1350.08 1795.56 1368.74 1804.3 C 1394.84 1816.76 1424.87 1818.13 1452 1808.12 C 1471.24 1800.9 1494.73 1782.69 1497.06 1760.62 C 1497.91 1752.5 1496.02 1740.79 1499.42 1733.4 C 1511.93 1729.99 1539.57 1729.38 1554.09 1727.89 C 1593.64 1723.83 1633.31 1718.28 1672.93 1715.43 z"/>
<path transform="translate(0,0)" fill="rgb(248,243,229)" d="M 1206.19 134.564 C 1207.97 134.426 1209.72 134.301 1211.5 134.238 C 1241.2 133.18 1271.18 134.052 1300.9 134.568 L 1388.07 135.652 L 1591.54 137.782 L 1786.51 139.737 C 1801.67 140.028 1816.92 139.642 1832.06 140.294 C 1836.72 140.495 1846.72 140.859 1850.09 143.966 C 1854.38 160.094 1851.75 186.715 1851.69 203.927 L 1850.91 319.715 C 1850.59 381.423 1852.46 443.375 1850.76 505.069 C 1850.6 511 1851.18 521.614 1848.21 526.865 C 1840.34 531.801 1826.87 529.755 1817.91 529.022 C 1811.64 513.69 1806.35 497.706 1800.35 482.225 C 1781.36 433.314 1762.25 384.13 1741.57 335.933 C 1735.19 321.077 1730.15 304.818 1722.65 290.547 C 1720.84 287.089 1717.73 281.196 1714.02 279.558 C 1700.36 273.543 1655 295.939 1640.24 300.45 L 1638.81 300.881 L 1638.53 299.915 C 1633.58 283.193 1637.7 257.586 1631.92 245.074 C 1629.95 240.827 1626.47 237.805 1622.1 236.202 C 1613.92 233.202 1559.63 234.17 1552.19 237.817 C 1547.39 240.168 1546.5 246.533 1545.71 251.257 C 1542.14 272.554 1544.21 296.049 1543.87 317.667 C 1542.82 366.081 1542.26 414.504 1542.19 462.929 C 1542.19 474.609 1544.19 515.096 1540.26 523.963 C 1539.46 525.756 1539.05 525.994 1537.2 526.576 C 1528.32 529.379 1420.55 528.356 1414.51 525.372 C 1409.47 518.511 1411.94 467.768 1411.99 456.759 L 1412.14 290.402 C 1412.03 270.8 1413.77 250.441 1412.46 230.967 C 1412.14 226.168 1411.64 221.195 1409.52 216.83 C 1397.54 206.08 1356.38 209.62 1339.89 209.849 C 1331.74 209.962 1319.31 209.885 1313.45 216.364 C 1310.12 220.048 1309.56 225.023 1309.11 229.783 C 1307.47 247.488 1309.46 266.365 1309.41 284.205 C 1309.3 327.111 1308.91 369.795 1309.8 412.699 C 1310.22 432.916 1309.08 453.273 1308.98 473.511 C 1308.91 487.961 1310.29 503.364 1308.63 517.647 C 1308.19 521.349 1308.09 522.535 1305.54 525.199 C 1299.95 527.36 1292.54 527.308 1286.81 525.58 C 1283.27 524.512 1281.49 522.562 1280.74 518.956 C 1276.85 500.246 1281.26 457.511 1281.79 436.523 C 1282.58 405.014 1281.18 373.32 1281.14 341.787 C 1281.12 320.985 1280.86 300.274 1280.4 279.482 C 1280.17 269.148 1280.73 258.485 1279.64 248.208 C 1279.14 243.485 1278.2 239.293 1275.89 235.135 C 1267.26 229.033 1212.39 230.294 1198.42 230.044 C 1195.83 218.804 1199.93 198.174 1190.02 190.096 C 1187.3 187.881 1182.18 187.401 1178.83 187.08 C 1166.35 185.88 1153.05 186.833 1140.47 186.768 C 1128.57 186.707 1115.94 185.485 1104.14 186.783 C 1098.24 187.432 1094.51 191.235 1092.91 196.803 C 1087.68 215.054 1090.7 247.36 1090.57 267.133 L 1089.99 421.969 C 1090.02 451.969 1091.04 482.333 1089.83 512.297 C 1089.74 514.691 1089.7 521.252 1088.04 522.845 C 1082.19 528.444 1051.59 526.044 1042.92 525.497 C 1039.95 504.552 1042.06 465.619 1042.1 442.656 L 1043.87 251.349 C 1044.01 230.17 1044.02 208.991 1043.9 187.813 C 1043.82 171.396 1041.89 152.565 1045.93 136.61 C 1055.81 133.416 1071.01 135.67 1081.47 135.545 C 1095.99 135.372 1110.49 134.65 1125.01 134.756 C 1151.97 134.952 1179.27 136.011 1206.19 134.564 z"/>
<path transform="translate(0,0)" fill="rgb(74,149,173)" d="M 79.0594 1015.27 C 94.4099 1008.74 112.86 1006.99 129.31 1004.78 C 207.087 994.313 318.023 992.423 394.463 1009.89 C 404.824 1012.26 414.923 1015.24 424.622 1019.65 C 433.196 1023.55 447.245 1035.3 455.543 1036.21 C 461.353 1036.84 464.981 1033.64 469.044 1030.02 C 474.248 1031.88 477.328 1034.42 480.886 1038.56 C 480 1039.45 479.122 1040.33 478.275 1041.26 C 424.173 1100.42 333.912 1218.61 343.568 1302.97 C 345.035 1315.67 348.36 1328.09 353.436 1339.82 C 356.132 1345.94 371.587 1369.47 371.719 1371.93 C 370.846 1372.77 370.766 1372.95 369.504 1373.58 C 363.209 1376.71 194.787 1394.63 180.077 1395.14 C 171.751 1395.44 164.74 1394.84 156.814 1392.17 C 147.805 1365.34 141.927 1337.47 135.865 1309.85 C 126.604 1266.36 117.623 1222.81 108.921 1179.21 C 98.2355 1127.07 81.1448 1068.08 79.0594 1015.27 z"/>
<path transform="translate(0,0)" fill="rgb(237,86,67)" d="M 1808.47 1232.23 C 1825.98 1230.67 1841.34 1231.89 1856.01 1242.88 C 1877.95 1259.33 1889.56 1284.5 1893.09 1311.19 C 1896.81 1339.37 1896.94 1377.96 1878.5 1401.58 C 1862.18 1422.49 1851.99 1427.53 1847.03 1455.54 C 1841.72 1485.54 1842.41 1518.2 1842.01 1548.63 C 1841.33 1600.5 1839.97 1652.73 1837.89 1704.55 C 1836.86 1730.22 1837.3 1757.58 1832.79 1782.87 C 1831.3 1791.24 1828.75 1800.9 1823.31 1807.58 C 1806.46 1828.29 1759.99 1826.72 1735.46 1828.59 C 1734.45 1828.69 1733.44 1828.81 1732.42 1828.88 C 1727.89 1829.2 1722.57 1829.76 1719.03 1826.34 C 1716.57 1823.96 1716.43 1817.88 1716.24 1814.51 C 1714.83 1788.87 1716.35 1762.37 1716.5 1736.64 C 1716.73 1699.62 1716.04 1662.64 1716.02 1625.63 C 1739.49 1620.15 1760.63 1609.95 1774.01 1588.86 C 1798.48 1550.28 1777.57 1513.92 1744.66 1489.84 C 1737.8 1484.82 1724.91 1479.27 1720.11 1472.62 C 1719.33 1471.54 1718.81 1468.18 1718.56 1466.87 C 1715.45 1450.94 1718.7 1372.37 1720.75 1351.18 C 1721.81 1340.19 1723.55 1329.27 1725.96 1318.5 C 1729.75 1302.18 1736.09 1285.81 1745.69 1272 C 1760.61 1250.54 1782.94 1236.91 1808.47 1232.23 z"/>
<path transform="translate(0,0)" fill="rgb(237,86,67)" d="M 1453.43 1162.84 C 1468.51 1162.8 1484.63 1166.01 1499.61 1167.87 C 1533.5 1172.12 1567.36 1176.62 1601.18 1181.38 C 1639.16 1186.69 1677.24 1191.26 1715.17 1197.05 C 1737.51 1200.46 1760.6 1203.25 1782.06 1210.52 C 1767.3 1220.61 1753 1226.56 1739.56 1239.41 C 1697.55 1279.58 1692.96 1334.48 1691.64 1389.25 C 1690.94 1402.8 1692.8 1447.82 1688.27 1456.95 C 1678.87 1457.87 1612.88 1442.3 1605.38 1436.82 C 1594.73 1429.04 1569.2 1378.94 1560.26 1364.94 C 1554.28 1355.57 1547.01 1346.73 1539.85 1338.23 C 1521.22 1316.16 1498.84 1293.35 1475.37 1276.49 C 1463.47 1267.94 1450.23 1261.35 1438.67 1252.34 C 1445.28 1245.21 1451.96 1238.1 1456.14 1229.19 C 1466.64 1206.79 1461.17 1184.96 1453.43 1162.84 z"/>
<path transform="translate(0,0)" fill="rgb(237,86,67)" d="M 1416.24 1531.32 C 1418.53 1531.18 1420.31 1531.44 1422.41 1532.44 C 1430.17 1536.14 1437.73 1541.91 1445 1546.58 C 1459.39 1555.82 1474.47 1564.93 1490.23 1571.67 C 1515.19 1582.36 1541.84 1589.29 1567.98 1596.45 C 1592.08 1603.06 1616.26 1609.86 1640.54 1615.78 C 1655.99 1619.55 1672.9 1620.45 1687.78 1625.85 C 1689.6 1638.33 1690.77 1673.76 1685.28 1684.2 C 1678.52 1688.98 1605.89 1693.7 1590.86 1695.69 C 1557.1 1699.49 1523 1701.29 1489.34 1705.75 C 1482.62 1699.86 1477.39 1691.93 1471.6 1685.13 C 1464.08 1676.46 1455.91 1668.37 1447.15 1660.95 C 1417.69 1636 1383.38 1617.32 1352.83 1593.78 C 1334.14 1579.38 1326.45 1569.32 1323.29 1545.2 C 1335.92 1542.14 1349.11 1541.12 1361.98 1539.45 C 1380.12 1537.13 1398.21 1534.42 1416.24 1531.32 z"/>
<path transform="translate(0,0)" fill="rgb(72,166,123)" d="M 1121.06 213.292 C 1131.21 213.745 1161.36 211.338 1168.32 216.918 C 1174 238.618 1170.24 268.719 1170.1 291.406 L 1170.06 389.056 C 1170.04 427.763 1172.34 466.695 1170.61 505.379 C 1170.3 512.121 1170.37 519.171 1167.05 525.21 C 1154.12 525.164 1130.4 527.197 1118.98 522.389 C 1117.22 519.914 1117.38 516.159 1117.26 513.195 C 1115.92 482.513 1117.39 451.327 1117.57 420.619 C 1117.79 383.28 1117 345.963 1117.1 308.619 C 1117.17 280.137 1118.24 251.597 1117.9 223.131 C 1117.85 218.635 1117.86 216.585 1121.06 213.292 z"/>
<path transform="translate(0,0)" fill="rgb(254,202,53)" d="M 1198.03 260.348 C 1206.83 259.637 1243.91 258.155 1250.54 261.593 C 1252.06 262.38 1252.02 263.744 1252.36 265.27 C 1256.04 281.983 1254.03 334.99 1254.1 354.371 L 1253.98 458.073 C 1253.96 476.165 1254.83 494.633 1253.8 512.685 C 1253.59 516.318 1253.29 519.53 1251.3 522.645 C 1250.56 522.83 1249.82 523.021 1249.07 523.159 C 1238.77 525.068 1207.83 527.421 1199.47 521.638 C 1196.9 513.64 1197.28 503.379 1197.04 494.942 C 1196.55 476.986 1197.08 458.964 1197.04 440.995 L 1196.91 340.561 C 1197.04 316.708 1195.34 288.688 1196.69 265.495 C 1196.81 263.526 1197.24 262.13 1198.03 260.348 z"/>
<path transform="translate(0,0)" fill="rgb(237,86,67)" d="M 1338.83 238.175 C 1343.87 238.077 1348.9 238.005 1353.94 237.958 C 1362.45 237.889 1377.37 236.249 1383.9 242.668 C 1388.37 262.417 1385.96 292.289 1385.99 313.314 L 1386.06 432.967 L 1386.02 487.195 C 1386.03 497.008 1386.81 507.502 1385.62 517.198 C 1385.18 520.755 1384.17 522.528 1381.31 524.795 C 1371.73 525.979 1348.69 528.111 1340.2 524.146 C 1338.69 523.441 1338.34 523.141 1337.87 521.522 C 1333.7 507.292 1336.01 487.106 1336 472.281 L 1335.98 397.749 C 1335.94 374.946 1336.11 352.052 1335.84 329.259 C 1335.5 301.793 1334.52 273.681 1336.31 246.255 C 1336.52 243.025 1337.06 240.881 1338.83 238.175 z"/>
<path transform="translate(0,0)" fill="rgb(237,86,67)" d="M 1735.93 639.066 L 1778.67 640.117 C 1782.58 659.877 1779.83 683.325 1779.32 703.514 C 1778.39 731.497 1777.99 759.496 1778.1 787.495 C 1778.31 824.837 1777.92 862.181 1776.93 899.511 C 1776.73 908.417 1778.13 922.3 1776.04 930.378 C 1775.51 932.394 1773.51 934.139 1772.08 935.57 C 1763.33 936.869 1740.72 938.713 1733.36 933.96 C 1731.43 932.713 1731.16 931.93 1730.69 929.725 C 1727.87 916.545 1728.81 900.697 1728.78 887.197 C 1728.77 859.542 1729.08 831.889 1729.7 804.242 L 1731.69 701.657 C 1732.09 684.014 1731.29 666.009 1733.05 648.451 C 1733.42 644.71 1733.88 642.238 1735.93 639.066 z"/>
<path transform="translate(0,0)" fill="rgb(72,166,123)" d="M 1436.84 642.174 C 1451.25 641.812 1465.32 642.45 1479.66 644.002 C 1481.71 674.766 1479.06 706.112 1479.05 736.982 L 1479.25 854.306 C 1479.38 867.688 1481.8 919.436 1479.29 928.589 C 1478.48 931.523 1477.56 932.098 1475.04 933.682 C 1464.64 934.177 1453.88 935.245 1443.49 934.907 C 1439.34 934.772 1434.88 934.775 1431.93 931.596 C 1429.27 916.935 1430.8 900.059 1430.82 885.105 C 1430.73 852.894 1431.05 820.683 1431.75 788.48 C 1432.36 748.78 1430.23 708.564 1432.32 668.974 C 1432.73 661.272 1432.47 648.708 1436.84 642.174 z"/>
<path transform="translate(0,0)" fill="rgb(254,202,53)" d="M 1353.04 688.284 C 1363.29 687.544 1395.68 685.507 1403.44 690.473 C 1404.91 691.417 1404.94 692.75 1405.23 694.417 C 1407.33 706.724 1406.05 720.573 1406.02 733.096 C 1405.95 763.439 1405.16 793.639 1404.62 823.969 C 1404.02 857.38 1405.68 891.283 1403.89 924.593 C 1403.72 927.891 1403 929.673 1401.16 932.395 C 1391.98 935.471 1364.34 936.522 1355.39 933.025 C 1353.32 932.22 1351.63 931.326 1350.97 929.078 C 1347.68 917.801 1349.75 888.539 1349.8 876.009 L 1349.91 796.031 C 1349.99 763.498 1348.36 730.373 1350.17 697.952 C 1350.39 693.994 1350.88 691.62 1353.04 688.284 z"/>
<path transform="translate(0,0)" fill="rgb(254,202,53)" d="M 1666.74 688.496 C 1676.39 688.284 1693.84 685.711 1701.97 690.522 C 1703.7 693.988 1703.82 697.828 1703.98 701.631 C 1704.65 716.704 1703.55 731.902 1703.25 746.978 L 1702.01 826.483 L 1701.86 889.228 C 1701.89 900.811 1702.58 912.739 1701.57 924.261 C 1701.2 928.599 1701.01 931.02 1698.1 934.226 C 1694.13 936 1690.05 935.313 1685.82 935.057 C 1673.26 934.662 1660.74 935.224 1648.2 934.158 C 1646.29 879.812 1647.99 825.453 1648.91 771.106 L 1649.76 721.27 C 1649.91 712.669 1649.39 703.655 1650.43 695.138 C 1650.69 692.977 1650.82 691.708 1652.32 690.032 C 1656.74 688.032 1661.96 688.544 1666.74 688.496 z"/>
<path transform="translate(0,0)" fill="rgb(74,149,173)" d="M 1697.64 309.049 L 1700.3 309.446 C 1707.99 317.487 1777.39 493.06 1785.05 517.016 C 1773.65 521.387 1761.96 524.623 1750.14 527.619 C 1748.08 527.805 1745.1 528.079 1743.34 526.945 C 1739.61 524.535 1737.59 519.966 1735.77 516.058 C 1729.85 503.336 1725.15 489.865 1720.06 476.786 L 1692.43 405.483 C 1681.88 378.271 1668.32 350.747 1660.88 322.603 C 1671.57 315.375 1685.34 312.459 1697.64 309.049 z"/>
<path transform="translate(0,0)" fill="rgb(254,202,53)" d="M 1577.33 263.429 C 1585.88 262.808 1597.7 261.188 1605.6 264.804 C 1609.27 269.749 1609.02 292.838 1609.23 300.336 C 1610.35 341.216 1607.99 382.367 1608.04 423.295 C 1608.07 453.028 1611.3 495.865 1607.53 524.079 C 1605.49 526.945 1604.47 526.92 1601.23 528.056 C 1593.62 528.23 1577.03 530.536 1571.08 525.151 C 1569.12 519.476 1569.16 513.13 1569.01 507.181 C 1567.76 457.794 1570.15 408.341 1570.31 358.962 C 1570.28 337.521 1570.47 316.08 1570.9 294.642 C 1570.99 285.9 1569.83 275.805 1571.37 267.245 C 1573.54 264.695 1574.28 264.515 1577.33 263.429 z"/>
<path transform="translate(0,0)" fill="rgb(248,243,229)" d="M 1636.89 341.559 C 1642.16 347.281 1709.03 518.455 1708.73 527.333 L 1707.13 528.042 C 1692.93 527.943 1648.8 531.235 1637.85 526.662 C 1633.59 511.519 1636.18 483.493 1635.87 466.898 C 1635.21 430.929 1633.22 394.414 1634.41 358.495 C 1634.6 352.691 1634.75 347.02 1636.89 341.559 z"/>
<path transform="translate(0,0)" fill="rgb(248,243,229)" d="M 1721.24 1860.44 C 1724.24 1860.11 1728.04 1860.05 1730.62 1861.87 C 1732.76 1863.38 1733.41 1865.41 1733.64 1867.88 C 1734.74 1879.76 1729 1934.86 1722.63 1942.13 C 1709.98 1947.09 1689.64 1943.7 1675.96 1942.74 C 1674.24 1940.74 1673.26 1938.88 1672.45 1936.35 C 1669.32 1926.44 1658.51 1874.46 1662.67 1866.73 C 1674.06 1861.33 1707.29 1861.38 1721.24 1860.44 z"/>
<path transform="translate(0,0)" fill="rgb(237,86,67)" d="M 448.547 1003.44 C 463.488 993.97 484.249 988.691 501.088 983.264 C 506.069 989.966 510.888 996.788 515.539 1003.72 C 503.882 1015.23 492.331 1026.84 480.886 1038.56 C 477.328 1034.42 474.248 1031.88 469.044 1030.02 C 470.15 1025.68 470.948 1021.56 468.611 1017.45 C 464.733 1010.63 455.223 1006.88 448.547 1003.44 z"/>
<path transform="translate(0,0)" fill="rgb(237,86,67)" d="M 1303.89 1479.79 C 1320.06 1482.18 1337.62 1486.13 1353.16 1491.09 C 1360.56 1493.45 1381.15 1499.16 1384.88 1506.44 C 1383.48 1508.74 1382.25 1508.54 1379.78 1509.3 C 1358.54 1511.71 1336.68 1516.65 1315.3 1516.02 C 1310.66 1504.54 1307.17 1491.76 1303.89 1479.79 z"/>
</svg>