<svg version="1.1" xmlns="http://www.w3.org/2000/svg" xmlns:xlink="http://www.w3.org/1999/xlink" width="600" height="600" viewBox="0,0,600,600"><g fill="none" fill-rule="nonzero" stroke="none" stroke-width="1" stroke-linecap="butt" stroke-linejoin="miter" stroke-miterlimit="10" stroke-dasharray="" stroke-dashoffset="0" font-family="none" font-weight="none" font-size="none" text-anchor="none"><g><path d="M56.84853,68.04319c0.29824,-0.16324 2.48274,-0.14791 2.68462,-0.14948c1.8813,-0.0146 3.76295,-0.00129 5.64428,0c2.24217,0.00153 4.48433,0.00598 6.7265,0.00598c1.6024,0 3.2048,-0.00598 4.8072,-0.00598c16.56012,0 33.12029,0.01566 49.6804,0.02392c24.84319,0.01239 49.68638,0.01891 74.52957,0.03587c4.10765,0.00281 8.21529,0.009 12.32294,0.01196c0.63578,0.00046 1.27155,-0.00598 1.90734,-0.00598c0.572,0 1.144,0.00491 1.716,0.00598c0.49826,0.00093 0.99674,-0.01482 1.49478,0c0.37343,0.01111 0.77047,-0.05914 1.11809,0.07773c0.26226,0.10326 0.54954,0.32023 0.59791,0.59791c0.18575,1.06643 0.05617,2.16428 0.07175,3.24666c0.01033,0.71742 0.00598,1.43498 0.00598,2.15248c0,1.63608 -0.00598,3.27276 -0.00598,4.90885c0,9.13408 -0.00254,18.26817 -0.00598,27.40225c-0.00989,26.25227 -0.02426,52.50453 -0.03587,78.7568c-0.00162,3.65921 0.00126,7.31843 0,10.97764c-0.00871,25.28166 -0.48423,50.5674 -0.0299,75.84497c0.00835,0.4643 0.92875,0.00033 1.39313,0c27.27669,-0.0196 54.55337,-0.04022 81.83006,-0.05979c36.6021,-0.02626 73.2042,-0.05756 109.8063,-0.07773c4.70633,-0.00259 16.48289,-0.03289 20.11521,0.0724c4.02863,0.11678 8.06286,0.24052 12.07481,0.62491c7.75899,0.7434 16.36193,2.12749 23.6967,4.90511c3.99652,1.51345 7.86467,3.4061 11.53594,5.59345c3.66823,2.18554 6.95473,4.95636 10.4014,7.47687c3.0431,2.22539 8.09094,7.81345 9.07031,9.01649c4.84855,5.95593 8.17624,12.24371 10.90215,19.41192c1.36608,3.59232 2.25043,7.34987 3.34606,11.03369c0.11755,0.39522 0.22839,0.79456 0.29298,1.2018c0.50367,3.17578 0.9699,6.35759 1.41107,9.54265c0.0672,0.48513 0.07634,0.97654 0.1136,1.46488c0.1162,1.52263 0.23012,3.04544 0.34679,4.56804c0.27397,3.57559 0.18432,7.19817 0.82512,10.72652c0.06595,0.36316 0.73209,-0.0979 1.10016,-0.12556c3.37516,-0.25363 6.74393,-0.71424 10.12861,-0.71824c3.37816,-0.00399 6.76514,0.22592 10.11067,0.69432c1.41577,0.19822 2.75909,0.76918 4.08896,1.29373c1.32924,0.52431 2.67899,1.05466 3.86923,1.8453c1.39478,0.92651 2.64541,2.06886 3.8199,3.26235c2.53879,2.57984 4.84388,6.04102 6.35729,9.28256c0.88078,1.88652 1.6953,3.83763 2.11586,5.87671c0.47558,2.30588 0.56155,4.68752 0.54858,7.04189c-0.02934,5.32678 -1.19756,10.16544 -2.18686,15.37976c-0.19606,1.0334 -0.40218,2.06487 -0.60389,3.09718c-0.4241,2.1705 -0.8485,4.34094 -1.27355,6.51125c-0.57295,2.92551 -3.41629,17.40619 -3.97611,20.3469c-1.52129,7.99131 -3.02115,15.98669 -4.5202,23.9822c-0.32258,1.72056 -0.63207,3.44355 -0.9447,5.16595c-0.86525,4.76693 -1.72572,9.53473 -2.58895,14.30202c-0.37245,2.05686 -0.74694,4.11335 -1.11809,6.17044c-0.16896,0.93645 -0.30548,1.87918 -0.50224,2.81018c-1.22168,5.78034 -1.9212,10.17601 -4.6936,15.48589c-1.08525,2.07854 -2.53031,3.96328 -4.03141,5.76461c-3.34611,4.01533 -5.87754,6.09919 -10.45372,8.52621c-5.40405,2.86608 -8.70974,3.53966 -15.12041,4.1196c-3.07394,0.27809 -6.22714,-0.45519 -9.25865,0.12481c-0.53086,0.10157 0.30083,1.03901 0.41854,1.56653c1.44295,6.46654 2.84853,12.94136 4.2631,19.41416c0.74189,3.39473 1.52085,6.78182 2.20629,10.1884c0.26048,1.29457 0.27079,2.18855 0.28251,3.4549c0.00755,0.81546 -0.80945,2.39603 0.00448,2.44648c13.12884,0.81384 26.34455,-0.97892 39.46211,0c1.01343,0.07563 0.59791,1.9733 0.59791,2.98955c0,0.28186 -0.31963,0.55314 -0.59791,0.59791c-1.16117,0.1868 -2.35165,0.05246 -3.52767,0.06577c-0.54602,0.00618 -4.31828,-0.0049 -4.77133,-0.00598c-5.33535,-0.01272 -10.67071,-0.01882 -16.00607,-0.0299c-4.45444,-0.00924 -8.93596,-0.5205 -13.3633,-0.0299c-0.49933,0.05533 0.02721,1.00442 0.03587,1.50673c0.01127,0.65367 0.01394,1.30746 0.02392,1.96115c0.00751,0.49181 0.10649,3.14187 -0.05979,3.70705c-0.19776,0.67216 -0.5237,1.32422 -0.96862,1.86548c-0.37914,0.46125 -0.92714,0.75965 -1.44022,1.06503c-1.63106,0.97079 -3.11009,1.12495 -5.08897,1.33857c-1.19382,0.12887 -2.3995,0.09852 -3.59942,0.1435c-0.44834,0.01681 -0.89672,0.03377 -1.3453,0.04185c-0.43641,0.00786 -0.87297,0.00178 -1.30942,0.00598c-0.39266,0.00378 -0.78778,0.0628 -1.17788,0.01794c-1.65614,-0.19046 -3.33605,-1.26546 -4.20331,-2.68462c-1.58297,-2.59031 -0.5528,-8.29149 -3.58746,-8.37075c-105.59488,-2.75808 -211.2978,-2.75808 -316.89267,0c-3.03467,0.07926 -2.17412,5.68413 -3.58746,8.37075c-1.26932,2.41286 -4.0536,2.4495 -6.45146,2.58297c-2.43057,0.1353 -4.88002,0.06807 -7.30049,-0.19133c-0.69306,-0.07428 -1.3093,-0.48649 -1.93275,-0.79821c-1.26556,-0.63278 -1.88641,-1.0309 -2.71302,-2.13305c-0.29077,-0.38769 -0.58499,-0.79344 -0.73543,-1.25412c-0.15702,-0.48081 -0.142,-1.00303 -0.16667,-1.50823c-0.00826,-0.16911 0.03917,-2.97711 0.04709,-3.13156c0.02293,-0.44763 -0.00248,-0.90804 0.11958,-1.33932c0.12136,-0.42881 1.04354,-1.19067 0.59791,-1.19582c-34.6765,-0.40088 -69.37179,0.99042 -104.03646,0c-1.01584,-0.02902 -0.59791,-1.9733 -0.59791,-2.98955c0,-0.28186 0.31891,-0.55785 0.59791,-0.59791c1.34171,-0.19266 2.71044,-0.05364 4.06579,-0.07175c0.43444,-0.00581 0.86896,-0.00046 1.30345,0c1.45292,0.00153 2.90585,0.00482 4.35877,0.00598c6.80821,0.00545 13.61642,0.00719 20.42463,0.01196c11.94426,0.00837 23.88853,0.01534 35.83279,0.02392c13.08229,0.00939 26.1763,0.5839 39.24686,0.0299c0.57363,-0.02431 0.16721,-1.13606 0.25112,-1.70405c0.3127,-2.11663 0.62501,-4.23333 0.93872,-6.34981c0.81139,-5.47419 1.51275,-10.20523 2.87819,-16.01728c1.03047,-4.38623 3.2035,-8.52165 3.7048,-12.99933c0.08361,-0.74684 -1.5027,0.03065 -2.25412,0.04185c-1.27102,0.01895 -2.54207,0.03573 -3.81316,0.04859c-0.97205,0.00984 -1.94421,0.03192 -2.91623,0.01951c-2.4071,-0.03073 -4.1054,0.03256 -6.3713,-0.50281c-3.00448,-0.70988 -7.19514,-2.72882 -9.35982,-3.98386c-5.31739,-3.0829 -5.2893,-3.49906 -8.76836,-6.9836c-0.37542,-0.37602 -0.79918,-0.70616 -1.14201,-1.11211c-2.56632,-3.03884 -4.78739,-5.64447 -6.26013,-9.41111c-2.10427,-5.38186 -2.45195,-9.51278 -3.50974,-15.1391c-0.59481,-3.16377 -1.24687,-6.31652 -1.8595,-9.47688c-3.54359,-18.28032 -7.36894,-38.35548 -10.81023,-56.30525c-0.47418,-2.47333 -0.96812,-4.94283 -1.45292,-7.41409c-0.11181,-0.56997 -0.21457,-1.14178 -0.33483,-1.71002c-0.80054,-3.78263 -1.87752,-7.51527 -2.42752,-11.34237c-0.36403,-2.53306 1.47963,-5.83701 -0.30493,-7.67119c-1.53512,-1.5778 -4.37598,0.5593 -6.57702,0.59791c-9.16655,0.16082 -25.59428,-8.96688 -27.50389,0c-8.96688,42.10535 0.79341,86.10645 0,129.14871c-0.01514,0.82161 -1.58107,0.73301 -2.39164,0.59791c-0.55605,-0.09267 -0.92362,-0.70218 -1.19582,-1.19582c-0.1959,-0.35526 -0.10793,-0.80498 -0.13079,-1.21002c-0.02702,-0.47885 -0.01491,-0.95912 -0.01868,-1.43872c-0.00939,-1.19379 0,-2.38766 0,-3.58149c0,-0.66568 -0.00598,-1.33134 -0.00598,-1.99702c0,-7.35828 0.00598,-14.71658 0.00598,-22.07486c0,-46.34805 0.02047,-92.69609 0.0299,-139.04413c0.00806,-39.6315 0.01034,-79.26306 0.01794,-118.89454c0.00358,-18.6782 -0.00039,-37.35639 0.00258,-56.03459c0.00221,-13.91994 0.00059,-27.83992 0.02837,-41.75984c0.0151,-7.5644 0.04439,-15.12872 0.1061,-22.69289c0.05639,-6.91121 0.10776,-10.7307 0.17984,-17.80942c0.01555,-1.52665 0.02584,-3.05335 0.04185,-4.58c0.02385,-2.27408 0.05144,-4.54811 0.07773,-6.82216c0.02147,-1.85754 0.04555,-3.71505 0.07175,-5.57253c0.00349,-0.24765 -0.02702,-2.71718 0.19133,-3.12707c0.26504,-0.49752 0.70133,-0.92517 1.19582,-1.19582z" fill="#31434e"/><path d="M216.17977,275.8046c2.72249,-0.00146 5.44497,0.00598 8.16746,0.00598c8.70957,0 17.41913,-0.00278 26.1287,0c18.72258,0.00598 37.44515,0.01444 56.16773,0.02392c11.62139,0.00588 23.24278,0.01508 34.86417,0.01794c12.68169,0.00312 25.36337,0 38.04506,0c12.40865,0 24.81727,0.00334 37.22592,0.01196c5.57452,0.00387 11.14904,0.01487 16.72356,0.01794c0.95865,0.00053 1.91868,-0.05734 2.87595,-0.00598c4.68107,0.25117 9.37184,0.42099 14.03371,0.91331c3.491,0.36867 10.40327,2.02284 13.67945,3.25413c6.13363,2.3052 11.85175,4.68099 17.32241,8.17101c5.69926,3.63586 6.56174,4.92162 11.90945,10.02341c1.87447,1.78827 3.58294,3.76135 5.14465,5.82486c3.31312,4.37768 6.16418,9.76341 8.29041,14.65956c2.03346,4.68253 3.84408,11.65796 4.51871,16.70861c0.07369,0.55169 2.46091,20.05528 1.77729,24.98968c-0.05829,0.42077 -0.81155,0.25345 -1.20778,0.40658c-2.6578,1.02713 -4.10216,1.51286 -6.4395,3.18686c-1.07633,0.77087 -2.01906,1.71304 -3.03739,2.55906c-0.41874,0.34788 -0.79219,0.76814 -1.27355,1.02243c-0.55727,0.29439 -1.34808,0.15225 -1.79373,0.59791c-0.28186,0.28186 0.28186,0.91396 0,1.19582c-0.28186,0.28186 -1.22877,0.39724 -1.19582,0c0.38877,-4.68738 1.52939,-9.28201 2.34979,-13.91338c0.4622,-2.60924 1.14402,-5.18107 1.49777,-7.80722c0.1137,-0.84409 1.22925,-6.77534 0.32586,-9.41111c-0.17614,-0.51391 -0.44255,-0.99541 -0.72347,-1.4604c-0.31485,-0.52115 -0.55715,-1.143 -1.0583,-1.4888c-0.96049,-0.66274 -2.09317,-1.04366 -3.18985,-1.44246c-4.22675,-1.537 -7.10198,-1.3308 -12.08676,-1.7743c-0.83973,-0.07471 -1.68201,-0.11728 -2.52318,-0.17339c-8.2809,-0.55242 -16.56272,-1.09139 -24.84319,-1.65023c-4.52245,-0.30522 -9.04456,-0.61544 -13.56659,-0.92676c-1.81782,-0.12515 -3.63525,-0.25576 -5.45295,-0.38266c-1.09413,-0.07639 -2.18695,-0.1755 -3.28253,-0.22721c-5.83054,-0.27517 -11.66278,-0.51317 -17.49487,-0.75337c-1.77015,-0.0729 -4.68805,-0.04543 -6.05086,0.15546c-0.70288,0.10361 -1.36006,0.43115 -1.99553,0.74888c-0.56772,0.28386 -1.21621,0.53327 -1.59194,1.04485c-1.02257,1.39233 -1.80931,2.95545 -2.50674,4.5359c-2.25811,5.11708 -2.86163,11.16102 -3.83709,16.4687c-0.10614,0.5775 -0.18449,1.15977 -0.27504,1.73992c-0.08085,0.51801 -0.07621,1.05625 -0.23916,1.55457c-0.424,1.29662 -0.49037,2.89949 -1.51271,3.80271c-0.63719,0.56294 -1.6942,-0.14615 -2.54112,-0.22123c-0.59205,-0.05248 -1.18441,-0.10192 -1.77579,-0.16144c-1.60697,-0.16172 -3.21029,-0.36069 -4.81916,-0.50224c-3.69489,-0.32509 -7.38722,-0.70225 -11.09124,-0.89761c-3.70502,-0.19542 -7.4178,-0.19511 -11.12712,-0.27429c-0.57386,-0.01225 -1.14871,-0.0287 -1.72198,0c-4.88097,0.24438 -9.7815,0.27638 -14.63835,0.81914c-4.86014,0.54312 -9.65189,1.58405 -14.46794,2.4335c-1.79491,0.31658 -3.57614,0.70635 -5.36326,1.06428c-1.02905,0.2061 -2.04457,0.49194 -3.08522,0.62781c-2.41304,0.31505 -4.83902,0.52733 -7.26462,0.72347c-0.53439,0.04321 -1.07227,-0.00144 -1.60838,-0.00598c-0.40462,-0.00343 -0.91409,0.25396 -1.21376,-0.01794c-0.27013,-0.24509 -0.00639,-0.72947 -0.01196,-1.09418c-0.05821,-3.8127 -0.12127,-7.62533 -0.17937,-11.43803c-0.02162,-1.41902 -0.04871,-2.83799 -0.05979,-4.25712c-0.00985,-1.26183 0.00148,-2.52375 -0.00301,-3.78562c-0.00893,-2.507 -0.02051,-5.11172 -0.18981,-7.6001c-0.16923,-2.48735 -0.50978,-5.06149 -0.8406,-7.54461c-0.25108,-1.8846 -0.18782,-3.43157 -1.00395,-5.06384c-0.19073,-0.38145 -0.355,-0.821 -0.70105,-1.07026c-0.46343,-0.33381 -1.05322,-0.45549 -1.60763,-0.59268c-1.80524,-0.4467 -3.91963,0.30663 -5.41782,1.11884c-5.16472,2.79993 -8.58451,6.13969 -12.7056,10.23623c-0.36864,0.36644 -0.61431,0.83881 -0.93274,1.24963c-0.48415,0.62463 -1.33932,1.70585 -1.96115,2.18835c-0.39296,0.30492 -0.79411,0.75009 -1.29149,0.74739c-1.78894,-0.00972 -3.52846,-0.61443 -5.30945,-0.78326c-1.90281,-0.18039 -3.81769,-0.19979 -5.72798,-0.26308c-2.89452,-0.09589 -7.34377,0.78701 -10.45671,-0.80419c-0.49336,-0.25219 -1.00122,-0.52119 -1.38192,-0.92377c-1.20032,-1.26934 -2.29308,-2.64168 -3.32364,-4.05234c-1.03148,-1.41191 -1.82561,-2.98707 -2.85278,-4.40212c-1.22983,-1.69423 -2.58707,-3.29251 -3.91034,-4.91483c-0.37923,-0.46493 -0.77946,-0.9133 -1.19582,-1.3453c-0.79565,-0.82553 -1.28887,-1.28269 -2.32587,-1.78177c-0.44231,-0.21287 -0.90209,-0.40676 -1.38267,-0.50673c-0.62069,-0.12912 -1.25994,-0.18226 -1.89388,-0.17489c-0.7014,0.00815 -1.43163,-0.01338 -2.09269,0.22123c-0.73124,0.25951 -2.0968,1.76036 -2.39164,2.39164c-0.05687,0.12177 -1.81998,4.6685 -2.24217,6.20631c-0.75556,2.75215 -1.54941,5.49553 -2.2033,8.27359c-0.65409,2.77888 -1.14972,5.5927 -1.71899,8.39018c-0.86232,4.23752 -1.90664,10.74553 -2.19508,13.5225c-0.4151,3.99636 1.8924,8.89405 -0.60912,12.03818c-1.8613,2.33944 -6.04547,-0.6264 -8.96866,0c-0.61626,0.13206 0.19802,1.30659 0.59791,1.79373c0.30186,0.36773 2.50383,0.84303 2.84008,0.93274c0.5457,0.14559 1.08762,0.30502 1.6323,0.45441c1.06763,0.29284 2.22495,0.56651 3.25263,0.97758c0.43075,0.1723 0.93426,0.27912 1.24365,0.62482c0.2953,0.32995 0.33058,0.82454 0.43797,1.25412c0.09287,0.37147 0.52325,1.01659 0.15994,1.13753c-3.48688,1.16065 -7.40416,0.89909 -10.76239,2.39164c-0.7285,0.32378 -0.33003,1.66595 0,2.39164c0.14561,0.32017 0.70106,-0.0596 1.05232,-0.07773c1.58009,-0.08153 3.16148,-0.13698 4.74143,-0.22123c1.99446,-0.10635 4.2878,-0.50604 6.16446,0.29896c1.05671,0.45328 2.51163,3.97345 2.98955,4.78329c1.29268,2.19043 2.39636,1.80263 2.98955,5.3812c0.23368,1.40975 -0.30821,2.84641 -0.60763,4.24367c-0.29992,1.39961 -0.71782,2.77447 -1.18611,4.12708c-0.15303,0.44202 -0.43928,0.8261 -0.66966,1.23319c-0.15038,0.26572 -0.2921,0.53833 -0.47235,0.78476c-0.3948,0.53977 -0.84985,1.03342 -1.24963,1.56952c-0.42772,0.57355 -0.7405,1.23763 -1.2317,1.75786c-1.72897,1.83115 -4.30541,3.9732 -6.583,5.0942c-3.46373,1.70479 -6.94943,2.67031 -10.78631,3.0613c-5.29579,0.53966 -10.61904,0.76334 -15.92834,1.14799c-4.20919,0.30494 -8.43105,0.47003 -12.62713,0.92078c-3.7729,0.40529 -8.73065,1.56447 -12.28183,2.91183c-1.73412,0.65794 -3.75499,2.22734 -5.10018,3.45592c-0.45548,0.416 -0.81295,0.92821 -1.2317,1.38117c-0.19133,0.20697 -0.53513,0.32313 -0.59791,0.59791c-0.27176,1.18938 -0.21938,2.43066 -0.3707,3.64128c-0.04814,0.38513 -0.0254,0.81047 -0.22721,1.14201c-0.2931,0.48153 -0.64674,1.06822 -1.19582,1.19582c-1.65232,0.38397 -3.38905,0.15963 -5.08224,0.26308c-3.737,0.22831 -6.74936,0.23586 -10.32592,1.53663c-2.51233,0.91372 -6.70947,3.51433 -8.62785,5.3812c-1.34331,1.30723 -2.46361,2.83507 -3.53515,4.37297c-1.07243,1.53918 -2.12848,3.11621 -2.88043,4.83486c-0.24234,0.55389 -1.61208,4.38474 -0.63976,5.73396c0.79546,1.10381 2.06307,1.30417 3.25039,1.49552c0.53787,0.08669 1.08171,0.1311 1.62258,0.19656c0.67563,0.08177 1.35113,0.16465 2.02692,0.24514c1.59043,0.18944 3.18018,0.38466 4.77133,0.56802c5.88295,0.67793 11.76634,1.35207 17.65032,2.02094c3.09265,0.35156 6.1865,0.69257 9.27957,1.04036c0.39872,0.04483 0.79805,0.08495 1.19582,0.13752c11.84749,1.56578 23.69809,3.10868 35.53981,4.71752c8.54916,1.1615 17.08755,2.40092 25.63243,3.59344c0.60915,0.08501 1.21954,0.16094 1.82961,0.23916c1.70585,0.21874 3.41245,0.43159 5.11812,0.65172c1.87424,0.24189 2.08348,0.30866 4.33999,0.54643c0.64539,0.068 1.29203,0.13025 1.94031,0.15985c0.64724,0.02955 1.29582,0.02647 1.94368,0.01747c0.9481,-0.01317 1.93194,0.17759 2.84335,-0.08399c1.18267,-0.33943 4.20336,-1.82998 5.88344,-2.70256c1.32908,-0.69027 2.65319,-1.3901 3.98209,-2.08073c1.30191,-0.6766 2.60723,-1.34663 3.91034,-2.02094c0.86532,-0.44777 1.72096,-0.91467 2.59493,-1.3453c2.27727,-1.12207 4.56625,-2.22031 6.85804,-3.31243c0.86838,-0.41381 3.69178,-1.60124 4.13156,-1.79373c0.71254,-0.31188 2.66903,-1.16458 3.13305,-1.69209c0.36188,-0.41139 0.45608,-1.00684 0.56353,-1.5441c0.09452,-0.47259 0.48278,-1.26877 0.03438,-1.44545c-0.88532,-0.34883 -1.90258,0.14799 -2.8341,0.3423c-3.05509,0.6373 -4.37022,1.65062 -7.41409,3.19135c-1.18174,0.59817 -2.36579,1.19178 -3.54561,1.79373c-1.84761,0.94266 -3.68878,1.89792 -5.53665,2.84008c-1.79142,0.91337 -3.59127,1.81017 -5.3812,2.72647c-1.68037,0.86022 -2.79458,1.57697 -4.70556,2.24291c-3.87983,1.35206 -5.0728,0.90362 -9.82741,0.50523c-2.19091,-0.18357 -4.36652,-0.5184 -6.54936,-0.78102c-4.36209,-0.52481 -8.72151,-1.07288 -13.08229,-1.60838c-2.67054,-0.32794 -5.34155,-0.65196 -8.012,-0.98057c-0.67963,-0.08363 -1.35927,-0.16723 -2.03888,-0.25112c-0.59594,-0.07356 -1.19522,-0.12395 -1.78775,-0.22123c-1.54465,-0.2536 -4.11484,0.64985 -4.62185,-0.8311c-0.45873,-1.33992 2.304,-1.65456 3.52543,-2.37146c0.73832,-0.43335 3.76419,-1.90979 5.15025,-2.5912c1.09426,-0.53795 2.43665,-0.73613 3.28253,-1.61436c0.41478,-0.43065 0.38711,-1.33806 0,-1.79373c-0.27348,-0.32192 -3.47593,-0.04025 -3.58746,0c-1.0615,0.38303 -5.61845,2.71606 -7.22874,3.55757c-1.31243,0.68585 -2.56319,1.50079 -3.92827,2.07475c-1.62619,0.68374 -3.25816,1.54351 -5.01647,1.68611c-4.06914,0.33001 -14.39047,-1.18726 -18.37978,-1.69209c-7.26701,-0.9196 -14.53335,-1.84456 -21.79982,-2.76833c-2.59701,-0.33015 -5.19375,-0.66251 -7.79078,-0.99253c-3.49969,-0.44472 -7.00115,-0.87677 -10.49931,-1.33334c-0.0265,-0.00346 -2.8094,-0.34686 -3.26908,-0.48655c-0.55294,-0.16803 -1.27537,-0.17225 -1.60987,-0.6435c-0.26186,-0.3689 0.11158,-0.8987 0.2003,-1.34231c0.11078,-0.55388 0.12723,-1.15131 0.39761,-1.64724c1.14394,-2.09819 4.09646,-6.11469 5.91334,-7.69511c1.26761,-1.10264 2.73217,-1.96842 4.19808,-2.78925c1.46832,-0.82218 2.97023,-1.63262 4.57925,-2.12557c2.65922,-0.8147 6.75269,-0.84895 9.48286,-0.76533c1.05862,0.03243 2.8024,0.33304 3.82663,0.72347c0.45824,0.17468 0.93569,0.36249 1.29747,0.69358c0.18425,0.16862 1.70814,2.21862 2.14276,2.71302c0.26789,0.30474 0.50378,0.65769 0.84679,0.87444c1.13602,0.71787 3.4144,1.6782 4.78329,1.79373c2.18533,0.18443 4.38807,0.20877 6.57851,0.1009c2.18941,-0.10782 4.3561,-0.49496 6.53367,-0.74664c2.68273,-0.31007 5.35522,-0.72341 8.04722,-0.93863c5.94156,-0.47501 20.47858,-0.5941 24.28181,-0.20936c0.49583,0.05016 -0.02127,0.99649 -0.0299,1.49478c-0.01131,0.65369 -0.01988,1.30743 -0.0299,1.96115c-0.00992,0.64774 -0.04031,1.29548 -0.0299,1.94321c0.00953,0.59261 -0.06176,1.20278 0.08969,1.77579c0.79672,3.01448 2.51343,3.54416 5.39315,5.47686c0.66925,0.44916 1.45847,0.60867 2.2332,0.70628c0.42635,0.05372 0.85301,0.11726 1.28252,0.13079c0.89244,0.02812 1.78577,-0.00091 2.67864,-0.00598c0.51024,-0.0029 1.02211,0.02378 1.53065,-0.01794c3.98442,-0.32686 7.97639,-0.5971 11.94401,-1.08745c3.97076,-0.49073 7.90557,-1.23813 11.85881,-1.85427c3.46752,-0.54044 6.93562,-1.07716 10.40365,-1.61436c3.71767,-0.57587 7.04657,-1.02611 10.80574,-1.96787c2.38142,-0.5966 4.72705,-1.34003 7.04189,-2.15771c0.49274,-0.17405 0.90715,-0.52014 1.3453,-0.80494c0.39956,-0.25971 0.77244,-0.55853 1.16593,-0.82736c0.37097,-0.25344 0.74136,-0.50876 1.12706,-0.73917c0.37235,-0.22243 0.71438,-0.56627 1.145,-0.61809c1.93068,-0.23234 3.88561,-0.17332 5.82963,-0.22123c0.56398,-0.0139 1.12819,0.01884 1.69209,0.03587c1.8776,0.05671 3.75477,0.12689 5.63232,0.18535c1.45083,0.04518 2.90218,0.07375 4.35279,0.12556c4.12994,0.1475 8.25895,0.32004 12.38871,0.47235c2.08995,0.07708 4.69083,0.037 6.57702,0.59791c1.25283,0.37256 1.75251,1.94033 2.31391,2.87595c0.65194,1.08651 2.33149,3.84942 3.43799,4.59793c1.34835,0.91212 2.85376,1.62354 4.41258,2.09269c1.43562,0.43206 2.96544,0.46496 4.46041,0.57773c1.01252,0.07638 4.41059,0.10389 6.08075,0.10389c1.70604,0 3.41208,-0.00302 5.11812,-0.00598c0.58994,-0.00102 1.1799,-0.01186 1.76982,-0.00598c2.52384,0.02518 5.04741,0.07311 7.57124,0.09917c5.06627,0.05231 10.13918,0.10552 15.20093,-0.16942c5.04937,-0.27427 10.07413,-0.87556 15.09247,-1.47605c2.49647,-0.29872 4.99612,-0.57402 7.48688,-0.91709c0.54057,-0.07446 1.07108,-0.2105 1.6024,-0.33483c2.96514,-0.69385 5.96004,-1.2772 8.88645,-2.11959c2.9234,-0.84152 5.62215,-2.57879 8.64429,-2.92677c0.71388,-0.0822 1.0942,1.08236 1.19582,1.79373c0.31004,2.17031 0.41021,4.4234 0,6.57702c-0.67562,3.54699 -2.29708,6.26482 -4.58822,8.84235c-0.79942,0.89935 -1.58718,1.848 -2.58671,2.51795c-2.71522,1.81992 -5.53385,3.51243 -8.49033,4.9066c-2.9515,1.39182 -6.02937,2.54326 -9.17195,3.42229c-2.61873,0.7325 -5.34105,1.04539 -8.03816,1.39164c-4.10827,0.5274 -6.08908,0.5825 -9.373,0.7429c-0.11853,0.00579 -2.75439,0.13714 -3.26609,0.15994c-3.82701,0.17055 -6.35899,0.19053 -10.8745,0.96488c-2.97191,0.50964 -5.91059,1.24744 -8.78331,2.16369c-2.46032,0.78472 -5.98365,2.96756 -8.03592,4.48433c-0.25835,0.19094 -2.45873,2.37626 -2.65472,2.76833c-0.6754,1.35107 -0.86804,3.50323 -0.93274,4.96864c-0.02021,0.4578 0.06098,2.85824 0.26308,3.32438c0.40875,0.94278 1.00673,1.79907 1.62632,2.61885c2.00814,2.65698 3.93294,4.0154 7.53965,4.84906c2.26829,0.52429 4.65491,0.46324 6.97762,0.30493c1.28566,-0.08763 2.47778,-0.7102 3.72498,-1.03439c1.7027,-0.44259 3.3962,-0.93344 5.12381,-1.2657c5.79067,-1.11367 9.05686,-0.77954 15.58781,-1.11996c4.45246,-0.23208 8.91288,-0.39047 13.34985,-0.82811c3.09954,-0.30572 10.13406,-1.75919 13.03595,-2.92677c7.85262,-3.15953 12.94584,-6.12434 19.45601,-11.54566c3.28546,-2.73595 7.39983,-7.75815 9.41111,-11.5337c1.35245,-2.53879 2.42737,-5.2328 3.29972,-7.97389c0.87177,-2.73928 1.57763,-5.55397 1.91406,-8.40887c0.08122,-0.68918 0.08586,-7.89894 0.05979,-10.69662c-0.01692,-1.81569 -1.7956,-4.91408 -0.05979,-5.44697c5.08649,-1.56154 10.63601,0.34824 15.95226,0.56802c1.30502,0.05395 7.31648,0.66615 7.38345,0.67863c1.62716,0.30329 3.29098,0.61591 4.78403,1.33035c1.57114,0.7518 2.94608,1.87867 4.27506,3.0045c2.94862,2.49789 4.12958,3.92936 5.67118,7.29974c0.56915,1.24434 1.13166,2.51774 1.39612,3.86026c0.44695,2.26897 0.53438,4.59506 0.72347,6.89989c0.06422,0.78272 0.0253,1.57049 0.03587,2.35577c0.02302,1.71001 0.043,3.42006 0.06577,5.13007c0.06125,4.59993 0.12272,9.19986 0.18535,13.79978c0.06203,4.55608 -0.62461,9.18431 0.18535,13.66824c0.14607,0.80866 2.25932,1.40894 2.39164,0.59791c0.83858,-5.13988 0.03938,-10.41561 0.05979,-15.62341c0.01865,-4.75737 0.03617,-9.51475 0.05381,-14.27213c0.00329,-0.8869 0.0259,-1.7739 0.01196,-2.6607c-0.0698,-4.43963 0.08334,-9.17398 -1.32138,-13.48289c-0.863,-2.6472 -4.29409,-7.95523 -6.2661,-9.9014c-1.31661,-1.29936 -3.23672,-1.8979 -4.49629,-3.25263c-0.26819,-0.28845 0.3393,-0.71341 0.46039,-1.0882c0.73969,-2.28934 1.54623,-4.56277 2.12034,-6.89914c0.66394,-2.70195 1.4767,-8.11211 1.98133,-11.27734c0.31174,-1.95535 0.61931,-3.91139 0.93872,-5.8655c0.711,-4.34987 1.43308,-8.69792 2.15248,-13.04641c0.48519,-2.93278 1.52612,-9.2886 2.08746,-11.41038c0.6433,-2.43158 1.32621,-4.88403 2.43275,-7.14279c0.97068,-1.98143 2.3383,-3.75763 3.74143,-5.46042c1.39812,-1.69672 2.85209,-3.40385 4.62932,-4.69808c2.07731,-1.51276 4.4407,-2.61492 6.80273,-3.62708c2.36654,-1.01409 4.82278,-1.8524 7.33188,-2.42976c2.14543,-0.49368 4.35941,-0.69793 6.55983,-0.76682c4.1708,-0.13057 7.9028,0.30288 11.83639,1.62258c1.69543,0.56881 3.33611,1.30794 4.9223,2.13379c1.78292,0.92828 4.14947,2.80128 5.45295,4.33485c0.88162,1.03724 1.64924,2.17432 2.33708,3.34905c0.68772,1.17452 1.37504,2.37593 1.77654,3.6764c0.61299,1.98548 1.01372,4.04329 1.2444,6.10841c0.49745,4.45336 0.00741,9.08984 -0.6577,13.48064c-0.36324,2.39797 -0.91197,4.76418 -1.38192,7.14354c-0.48298,2.44532 -0.98524,4.88679 -1.47684,7.33039c-0.25779,1.28138 -0.52643,2.56065 -0.7713,3.84457c-1.15625,6.06249 -2.2976,12.12781 -3.43201,18.19442c-2.2119,11.82887 -4.40312,23.6616 -6.60691,35.49198c-0.6294,3.37873 -1.27177,6.75503 -1.91515,10.13113c-0.37946,1.99122 -0.75811,3.98262 -1.14849,5.97173c-0.42906,2.18616 -1.04237,5.28685 -1.59035,7.54601c-0.2408,0.99273 -0.73244,2.86642 -1.18115,3.88007c-0.42924,0.96965 -0.83764,1.95923 -1.41154,2.85091c-1.87065,2.90648 -5.51731,7.86089 -8.38869,9.92532c-2.01994,1.45227 -4.41329,2.29818 -6.63681,3.41407c-2.33423,1.17145 -6.88464,2.47359 -8.29302,2.8042c-0.88513,0.20778 -1.81745,0.06022 -2.72647,0.07773c-0.45385,0.00874 -2.98137,0.00533 -3.3782,0.00598c-4.25512,0.00696 -8.51026,0.0131 -12.76539,0.01794c-8.22925,0.00935 -16.45849,0.02133 -24.68773,0.0299c-10.84211,0.01128 -21.68423,0.02091 -32.52634,0.0299c-22.68672,0.0188 -45.37345,0.0284 -68.06018,0.04185c-4.9786,0.00295 -9.95721,0.00112 -14.93581,0.00598c-38.72669,0.03781 -77.45333,0.07079 -116.18003,0.09567c-8.70753,0.00559 -17.41519,0.02848 -26.12272,0.03587c-8.23721,0.00699 -16.47443,0.00571 -24.71165,0.01196c-4.8929,0.00371 -9.7858,0.01566 -14.67871,0.01794c-3.65523,0.0017 -7.31045,-0.0074 -10.96568,-0.00598c-2.7496,0.00107 -5.49916,0.02285 -8.24875,0.03159c-1.45581,0.00463 -3.58812,0.01228 -5.10478,-0.02604c-1.42663,-0.03605 -2.56901,-0.09445 -4.0112,-0.37784c-0.78827,-0.1549 -1.59032,-0.30189 -2.33045,-0.61426c-5.52405,-2.33138 -8.69268,-3.92185 -13.30351,-7.80871c-2.13328,-1.79832 -5.44816,-5.88925 -6.6966,-8.39467c-1.09661,-2.20072 -1.88406,-4.54808 -2.64015,-6.88774c-2.13068,-6.59325 -3.51008,-15.44865 -4.73209,-21.72826c-1.57018,-8.06877 -3.1133,-16.14279 -4.6637,-24.21538c-2.02401,-10.53858 -4.04361,-21.07802 -6.06281,-31.61752c-0.4143,-2.16249 -0.82894,-4.32492 -1.24365,-6.48733c-0.22705,-1.18389 -0.49211,-2.36111 -0.68162,-3.55159c-0.56448,-3.54602 -1.29626,-7.07607 -1.57998,-10.65552c-0.28362,-3.5782 -0.37607,-7.18748 -0.11809,-10.76762c0.10949,-1.51943 0.67904,-2.97932 1.21152,-4.4066c1.29338,-3.46685 2.33387,-4.95088 4.83784,-7.64877c1.03198,-1.1119 2.06943,-2.24957 3.30794,-3.12558c2.28058,-1.61308 6.98868,-3.71099 9.72801,-4.27506c2.05828,-0.42383 4.17635,-0.53786 6.27731,-0.58371c2.11089,-0.04606 4.23809,-0.001 6.32664,0.30867c3.91937,0.58112 8.36639,2.16098 11.84461,4.0359c2.31374,1.24721 6.87512,4.58898 8.48435,6.7265c1.54136,2.04738 2.7539,4.34079 3.82663,6.6682c1.0743,2.33083 1.95456,4.76431 2.58895,7.25116c1.23915,4.85751 2.84988,13.30493 3.98806,19.47395c0.52025,2.81977 0.34251,5.86185 1.55457,8.46044c0.33699,0.72249 2.26447,0.78701 2.39164,0c0.4978,-3.08068 -0.48191,-6.22552 -0.88566,-9.31993c-0.40393,-3.09576 -1.01421,-6.16111 -1.53588,-9.23922c-0.74909,-4.41999 -1.61058,-9.52963 -2.99254,-13.66824c-0.94745,-2.83734 -2.16113,-5.59196 -3.54262,-8.24519c-1.23259,-2.36725 -4.47326,-6.32001 -6.58898,-7.95819c-1.13046,-0.8753 -2.48067,-1.43003 -3.7788,-2.02916c-1.29756,-0.59887 -3.53223,-0.20589 -3.99404,-1.5583c-0.66968,-1.96113 0.73142,-17.46022 0.97833,-19.37903c0.76362,-5.93424 2.21347,-13.25866 4.21153,-18.91715c1.27448,-3.60931 2.84233,-7.11305 4.47088,-10.57704c0.81531,-1.73419 1.81488,-3.37996 2.84923,-4.99311c2.77216,-4.32341 3.04265,-4.23876 6.02526,-7.71847c0.38266,-0.44643 0.70474,-0.94522 1.11211,-1.36922c4.76495,-4.95939 7.4505,-8.05664 13.52474,-11.47391c6.58892,-3.70681 13.4838,-6.92466 20.74703,-9.04798c2.44471,-0.71468 4.91665,-1.36457 7.42652,-1.79812c1.95193,-0.33717 3.94191,-0.41975 5.92081,-0.50748c1.98064,-0.08781 7.9527,-0.03011 8.95521,-0.03064z" fill="#fefcf7"/><path d="M253.12318,318.42876c0.5547,0.22188 1.1399,0.40078 1.63379,0.73692c0.65746,0.44747 2.50052,2.49557 2.98955,2.98955c0.3095,0.31264 0.65372,0.58963 0.96264,0.90285c0.87451,0.88667 1.80033,1.73014 2.58671,2.69583c0.78336,0.96199 1.39151,2.05446 2.10689,3.06803c1.46385,2.07402 2.83654,4.21859 4.43052,6.19435c0.32949,0.40841 0.818,0.67447 1.29223,0.89911c1.83456,0.869 6.06747,0.71301 7.05086,0.72422c1.83941,0.02096 3.67818,-0.21979 5.51647,-0.15247c1.49008,0.05457 2.97761,0.24283 4.44322,0.51719c1.46916,0.27503 2.891,0.7607 4.34008,1.12706c1.04602,0.26446 2.07352,0.63887 3.14501,0.76533c0.54784,0.06465 1.10183,-0.09211 1.64276,-0.2003c0.459,-0.0918 1.12793,0.01616 1.34679,-0.39761c0.22137,-0.4185 -0.32569,-0.89301 -0.41854,-1.35726c-0.10735,-0.53674 -0.47364,-1.17075 -0.17937,-1.6323c1.72545,-2.70627 5.83278,-5.86089 8.40662,-7.62336c2.52359,-1.72807 4.98718,-3.59358 7.73696,-4.93276c0.71673,-0.34906 2.0894,-0.7377 2.39164,0c1.06409,2.59715 0.81269,5.55846 1.03214,8.35655c0.29968,3.82088 0.29312,7.074 0.27728,10.7168c-0.01748,4.01995 -0.03515,8.03991 -0.05381,12.05986c-0.01844,3.97213 -0.78742,8.0114 -0.05979,11.91636c0.15053,0.80784 1.57414,0.51452 2.39164,0.59791c0.56958,0.0581 2.31689,-0.46795 2.81616,-0.59791c0.57727,-0.15026 1.15604,-0.29466 1.73394,-0.44245c0.63785,-0.16312 1.26986,-0.35092 1.91331,-0.49029c5.0164,-1.08652 10.00911,-2.30077 15.06473,-3.18705c10.06503,-1.76445 20.2436,-2.90747 30.477,-2.90547c5.12933,0.001 10.27262,0.20098 15.36743,0.79503c6.84252,0.79784 15.15726,2.48126 21.95528,4.86157c2.35007,0.82287 4.72665,1.63213 6.92381,2.80364c4.00367,2.13474 6.86399,5.13122 10.17644,8.13159c0.40592,0.36768 0.86016,0.68635 1.22572,1.09418c2.00683,2.23891 4.11851,4.40296 5.88344,6.83711c1.76896,2.4397 3.43956,4.98833 4.68164,7.73397c1.83879,4.0647 3.22649,8.32803 4.51647,12.59873c1.29234,4.27851 2.15927,8.67416 3.2205,13.01577c0.31658,1.29515 0.44679,2.1932 0.83259,3.41855c0.19797,0.62877 1.06347,2.89497 1.27206,3.26609c0.42991,0.76491 1.11816,1.37174 1.50673,2.15846c1.05467,2.1353 2.03898,4.31602 2.80495,6.57104c0.7691,2.26423 1.40338,4.58741 1.78701,6.94772c0.58287,3.58621 0.53514,9.3289 -0.22721,12.89095c-0.62945,2.94112 -1.50879,5.83843 -2.60857,8.63787c-1.09978,2.79944 -2.38143,5.54868 -3.96845,8.10363c-1.69849,2.73441 -5.57053,6.13525 -8.19138,7.91036c-8.0334,5.44105 -12.42872,7.99204 -21.62045,11.19887c-1.92475,0.67151 -3.97383,0.92636 -5.98658,1.24954c-7.59699,1.21981 -9.31008,0.48165 -18.44405,1.2856c-4.61923,0.40658 -9.21185,1.07871 -13.80576,1.71002c-0.97508,0.134 -1.92879,0.39335 -2.8942,0.58495c-1.57097,0.31178 -3.79391,0.75844 -5.32034,0.89189c-0.7637,0.06677 -1.5347,0.05938 -2.29981,0.0114c-0.92245,-0.05785 -1.86943,-0.05799 -2.75329,-0.32829c-1.45149,-0.4439 -2.85168,-1.06907 -4.18537,-1.79373c-0.53701,-0.29178 -0.93407,-0.79057 -1.36623,-1.22273c-0.62298,-0.62298 -1.39233,-1.46278 -1.62333,-2.36474c-0.17612,-0.68769 -0.19734,-2.96517 0,-3.58746c0.20723,-0.6535 0.64961,-1.20985 1.0299,-1.78028c0.41839,-0.62759 0.75092,-1.36467 1.36174,-1.80719c1.57189,-1.13876 3.30634,-2.05558 5.07477,-2.85577c1.76884,-0.80038 3.60086,-1.50713 5.49629,-1.92751c3.08661,-0.68457 6.24707,-0.98632 9.38496,-1.37295c3.13979,-0.38687 6.29529,-0.63339 9.44325,-0.94694c1.00148,-0.09975 6.96649,-0.66681 8.34132,-0.85847c1.8825,-0.26243 3.77261,-0.49881 5.6311,-0.89715c3.0042,-0.6439 6.05048,-1.64985 8.97724,-2.62113c5.29053,-1.75572 5.73983,-1.62716 11.08939,-5.51195c2.09918,-1.52441 4.07225,-3.23754 5.88344,-5.09495c0.88341,-0.90595 1.50928,-2.0383 2.14127,-3.13455c1.65256,-2.86652 2.2138,-4.67551 2.65846,-8.06656c0.34007,-2.59341 0.30756,-6.17436 -0.15023,-8.80125c-0.23355,-1.34016 -0.61133,-2.65439 -1.02616,-3.94995c-0.32729,-1.02216 -0.4369,-2.23063 -1.19582,-2.98955c-0.42279,-0.42279 -1.52634,-0.53479 -1.79373,0c-0.7186,1.4372 0.78827,3.97061 -0.59791,4.78329c-4.41239,2.58684 -9.76601,3.083 -14.75354,4.21677c-4.82326,1.09642 -9.72472,1.85141 -14.63302,2.46339c-4.92139,0.61361 -9.87726,0.93647 -14.82921,1.21002c-5.10851,0.2822 -10.22777,0.31479 -15.34211,0.45665c-2.17547,0.06035 -8.55326,0.14806 -10.06284,0.17339c-2.59767,0.04359 -3.30964,0.15733 -6.62709,-0.33632c-3.49945,-0.52074 -5.58258,-1.00072 -8.4283,-3.02991c-0.55488,-0.39567 -0.94431,-0.99188 -1.32437,-1.55756c-0.31094,-0.46279 -0.60628,-0.96066 -0.73244,-1.50375c-0.26377,-1.13544 0.16992,-2.04703 0.73543,-2.98955c0.95939,-1.59899 2.13495,-2.62226 3.71527,-3.72797c0.93951,-0.65735 1.91031,-1.31834 2.99329,-1.69508c1.68801,-0.58721 3.46519,-0.90541 5.23321,-1.16667c1.77493,-0.26229 3.57812,-0.27167 5.36774,-0.39985c0.73907,-0.05294 1.47747,-0.12723 2.21825,-0.1435c6.61028,-0.14518 13.25879,0.36672 19.8327,-0.34081c0.59448,-0.06398 0.36821,-1.32265 0,-1.79373c-0.40677,-0.5204 -1.26247,-0.39067 -1.88342,-0.61585c-4.1781,-1.5151 -7.39598,-2.4826 -11.04341,-5.13605c-1.04032,-0.75682 -1.8515,-1.7969 -2.65173,-2.8042c-0.80012,-1.00716 -1.6211,-2.03608 -2.13155,-3.21676c-1.7758,-4.10747 -2.37086,-7.12551 -1.42303,-11.54566c0.29886,-1.3937 1.07181,-2.64848 1.75562,-3.89913c0.68351,-1.25011 1.39169,-2.51217 2.33409,-3.58074c2.75093,-3.1192 6.11046,-5.58248 9.73399,-7.58151c2.69802,-1.48844 5.93876,-2.09086 8.299,-4.07177c0.62944,-0.52828 0.17018,-2.09956 -0.59791,-2.39164c-1.08348,-0.41201 -6.43534,1.68458 -7.25864,2.15248c-3.94011,2.23923 -8.83809,5.80162 -11.87451,9.20782c-1.1274,1.2647 -1.93555,2.79162 -2.72348,4.2915c-0.78784,1.4997 -1.60549,3.02687 -1.98805,4.67716c-0.56881,2.45369 -0.8012,4.99126 -0.83707,7.50976c-0.0218,1.53051 1.18065,5.53898 1.96115,6.8401c1.02525,1.70911 2.37969,3.1979 3.58746,4.78329c0.46251,0.60711 0.94625,1.19776 1.42303,1.79373c0.32045,0.40056 0.8648,0.69347 0.96862,1.19582c0.05705,0.27602 -0.32561,0.52512 -0.59791,0.59791c-0.36189,0.09674 -5.63343,0.46129 -5.63521,0.46143c-2.06004,0.15961 -4.21304,0.32925 -6.2363,0.69777c-1.24721,0.22717 -2.47396,0.55658 -3.70256,0.86912c-0.45417,0.11553 -5.26921,1.51189 -5.3528,1.55915c-2.11781,1.19727 -4.09622,2.64483 -5.97911,4.18537c-0.34492,0.28221 -0.2068,0.98217 -0.59791,1.19582c-1.20612,0.65886 -3.9523,0.59146 -5.23172,0.59193c-0.46465,0.00017 -0.92868,-0.03417 -1.39313,-0.04783c-1.50666,-0.04431 -3.01348,-0.08322 -4.5202,-0.12556c-1.53062,-0.04302 -3.06231,-0.05596 -4.59195,-0.12556c-5.91666,-0.26923 -11.9136,0.13993 -17.74599,-0.89089c-0.76549,-0.13529 0.67858,-1.40487 1.11436,-2.04859c1.29996,-1.92027 3.16254,-3.31185 4.793,-4.92305c0.44762,-0.44234 1.03536,-0.81421 1.26757,-1.39911c0.22062,-0.55572 0.59567,-1.84549 0,-1.79373c-2.25536,0.19598 -4.06596,1.96707 -5.71603,3.32438c-0.52525,0.43206 -1.05814,0.85476 -1.58446,1.28551c-1.11993,0.91655 -2.18039,1.91003 -3.35428,2.75637c-2.1449,1.54642 -4.27138,3.14507 -6.59122,4.41408c-8.14757,4.45691 -15.73238,5.32216 -25.29088,7.0247c-6.0546,1.07843 -12.17635,1.73812 -18.26468,2.60614c-2.50074,0.35654 -5.54877,0.79446 -7.81619,0.83707c-2.06973,0.0389 -4.14247,-0.13872 -6.19884,-0.37668c-0.65906,-0.07627 -2.64963,-1.26581 -2.91183,-1.54261c-0.66713,-0.7043 -1.16786,-1.86503 -1.44956,-2.83858c-0.12879,-0.4451 -0.37606,-0.88453 -0.34417,-1.34679c0.08677,-1.25805 0.36894,-2.50047 0.69358,-3.719c0.18742,-0.70349 1.22802,-1.9914 1.69807,-2.37371c0.54174,-0.44062 1.20095,-0.71311 1.79373,-1.08222c0.374,-0.23288 0.70234,-0.54724 1.10613,-0.72347c2.17393,-0.94878 4.33505,-1.96101 6.60691,-2.64277c2.28221,-0.68486 4.66374,-0.98024 7.00153,-1.44096c1.07056,-0.21098 2.14962,-0.37645 3.22274,-0.57399c2.13171,-0.3924 4.26044,-0.80079 6.39167,-1.19582c0.48167,-0.08928 0.97106,-0.1409 1.44694,-0.2571c3.84016,-0.93771 6.01287,-1.38799 9.5008,-3.33036c0.4925,-0.27426 0.98646,-0.67242 1.19582,-1.19582c0.22206,-0.55515 0.59633,-1.75029 0,-1.79373c-1.96419,-0.14307 -3.83605,0.89466 -5.74592,1.37519c-2.7401,0.68943 -5.46432,1.44082 -8.20333,2.13454c-0.45623,0.11555 -0.92063,0.19606 -1.38117,0.29298c-4.25339,0.89507 -11.5287,2.34399 -15.14209,3.55159c-3.06796,1.02532 -5.95324,2.53255 -8.93578,3.78477c-0.61398,0.25778 -1.21221,0.56587 -1.85352,0.74515c-1.4451,0.40398 -2.45162,0.30081 -3.94023,0.31913c-0.77333,0.00952 -1.54656,0.02675 -2.31989,0.03587c-0.40855,0.00482 -0.81732,-0.00619 -1.22572,0.00598c-3.42784,0.10218 -6.85948,0.12979 -10.28257,0.33707c-3.42561,0.20743 -6.83532,0.6254 -10.25566,0.90658c-4.668,0.38375 -9.33768,0.74786 -14.00905,1.0882c-0.41751,0.03042 -0.839,0.06476 -1.25561,0.02392c-1.51825,-0.14885 -3.03958,-0.30637 -4.53814,-0.59193c-0.4876,-0.09292 -2.87213,-1.28854 -2.98955,-1.45292c-0.95576,-1.33799 -0.02039,-2.79601 -0.59791,-4.18537c-0.21637,-0.52054 -0.99708,-0.6683 -1.19582,-1.19582c-0.20113,-0.53389 0.00785,-1.14578 0.10164,-1.70853c0.1065,-0.63898 0.19049,-1.30786 0.49627,-1.87893c0.32758,-0.6118 0.86505,-1.08926 1.35576,-1.57998c2.15539,-2.15539 3.49927,-2.52722 7.00378,-3.59868c1.84967,-0.56551 3.75901,-0.95853 5.6794,-1.18909c6.50334,-0.78079 13.03973,-1.25705 19.56364,-1.84156c2.00645,-0.17977 4.45527,-0.23959 6.49256,-0.45208c1.46774,-0.15308 2.94032,-0.28662 4.3939,-0.5412c2.34943,-0.41148 4.74332,-1.09083 7.04558,-1.74773c1.15922,-0.33076 2.37319,-0.51468 3.47316,-1.00789c1.52718,-0.68477 2.96682,-1.56438 4.35354,-2.50151c2.79017,-1.88558 4.2766,-3.09274 6.05833,-5.75115c2.31001,-3.44662 2.14226,-4.75793 3.51347,-9.37375c0.14595,-0.49129 0.25831,-0.9971 0.46936,-1.46413c0.22797,-0.50446 1.2592,-1.73995 1.15098,-2.43424c-0.16158,-1.03661 -1.66503,-2.78144 -2.12856,-3.58746c-1.3913,-2.41928 -2.89369,-4.79099 -4.01796,-7.34533c-1.12618,-2.55868 -2.12318,-5.20368 -2.70854,-7.93726c-1.24956,-5.8354 -1.19482,-12.5576 -0.35875,-18.43359c0.44859,-3.15274 1.34823,-6.22469 2.03888,-9.33339c0.19229,-0.8655 0.40331,-1.72674 0.60987,-2.58895c0.58269,-2.43229 1.17164,-4.86307 1.75786,-7.29451c0.23691,-0.98263 0.47083,-1.96599 0.71151,-2.9477c0.34128,-1.39201 0.69217,-2.78164 1.03439,-4.17342c0.31836,-1.29477 0.54051,-2.44831 1.06503,-3.72723c0.32341,-0.78856 0.72446,-1.54767 1.17714,-2.26982c0.2174,-0.34681 1.73192,-0.6331 2.1749,-0.45591z" fill="#74b7ba"/><path d="M426.46975,517.03706c14.68103,0 45.68892,-0.0005 45.92552,0.03587c2.45329,0.37714 1.51422,4.72764 2.27206,7.09122c0.21476,0.66982 0.4351,1.33786 0.64574,2.00898c1.68474,5.36779 3.36724,10.7363 5.04039,16.10771c0.43948,1.4109 0.8645,2.82627 1.29747,4.23919c0.40803,1.33152 0.8221,2.66118 1.22572,3.99404c0.01384,0.0457 0.70858,2.2856 0.76906,2.69882c0.07397,0.5054 0.62064,1.52594 0.10987,1.52841c-105.23105,0.50964 -210.47118,1.18007 -315.69685,0c-1.20608,-0.01353 0.52162,-2.35525 0.78812,-3.5316c0.15353,-0.67769 0.29587,-1.35829 0.47198,-2.03047c0.49428,-1.88656 1.09059,-3.74533 1.66967,-5.60691c0.51698,-1.66195 1.03319,-3.32414 1.54859,-4.98658c0.52642,-1.69799 1.05203,-3.39622 1.57848,-5.0942c0.34051,-1.09825 0.68226,-2.19613 1.02243,-3.29449c0.1561,-0.50404 0.29932,-1.0122 0.46637,-1.51271c0.88134,-2.64067 1.77444,-5.27743 2.67864,-7.91036c0.20397,-0.59393 0.42986,-1.18011 0.64574,-1.76982c0.16279,-0.44468 0.01684,-1.32386 0.49029,-1.33334c26.89678,-0.53873 53.80399,-0.19495 80.70599,-0.29298c1.53862,-0.00561 3.07724,-0.01326 4.61587,-0.01794c26.72685,-0.08127 53.45365,-0.18655 80.18057,-0.23991c27.18272,-0.05427 54.36553,-0.05531 81.54829,-0.08296M436.44708,88.03613c1.41904,0.43647 2.93149,0.64092 4.25712,1.30942c1.47217,0.7424 2.75267,1.82557 4.02908,2.86922c4.31132,3.52513 6.22501,6.56461 10.33274,10.98437c2.14723,2.31034 4.41948,4.50128 6.63681,6.74443c0.34974,0.35381 0.70935,0.69773 1.06428,1.04634c0.31672,0.31109 0.64526,0.61054 0.95068,0.93274c0.3071,0.32397 0.62056,0.64534 0.88566,1.00449c0.44635,0.60473 1.05465,1.98802 1.81092,2.34979c0.91209,0.43631 3.15123,0.31511 4.05981,0.32287c0.39668,0.00339 0.79317,0.0196 1.18984,0.02392c1.25358,0.01363 2.50726,0.01794 3.76086,0.0299c1.25364,0.01196 2.50722,0.02932 3.76086,0.04185c1.13801,0.01138 2.27669,-0.0096 3.41407,0.0299c1.32518,0.04601 2.28812,-0.11933 2.9477,1.3453c0.24184,0.537 0.11259,1.17311 0.13602,1.76159c0.00672,0.1688 0.02541,2.79911 0.02541,3.37446c0,4.99655 -0.00183,9.99305 0,14.98962c0.00471,12.82917 0,25.65834 0,38.48751c0,10.94575 0.00967,21.89151 0,32.83726c-0.00115,1.29946 -0.00471,2.59892 -0.00598,3.89838c-0.00072,0.73742 0.02934,1.47543 0,2.21227c-0.05227,1.31285 0.09103,2.2277 -1.35128,2.88791c-0.37613,0.17217 -3.61917,0.15399 -3.80869,0.15546c-2.68046,0.0207 -5.36135,0.01492 -8.0419,0.01794c-9.83962,0.01108 -19.67923,0.01036 -29.51885,0.01794c-15.00158,0.01155 -30.00315,0.02725 -45.00474,0.03587c-2.20031,0.00127 -4.40062,0.00221 -6.60093,0c-0.71749,-0.00072 -1.43621,0.04187 -2.15248,0c-1.05089,-0.06144 -2.0639,-0.09678 -2.85801,-0.89089c-0.85226,-0.85226 -0.79959,-1.80543 -0.86323,-2.94247c-0.03987,-0.7122 -0.02051,-1.42649 -0.02765,-2.13977c-0.0146,-1.45794 0,-4.5366 0,-5.28553c0,-0.97061 -0.00598,-1.94121 -0.00598,-2.91183c0,-10.02298 0.01989,-20.04596 0.0299,-30.06893c0.01267,-12.69763 0.00734,-25.39527 0.01794,-38.09289c0.00402,-4.82113 0.01442,-9.64233 0.02392,-14.46346c0.00041,-0.20756 -0.05313,-3.4336 0.15546,-3.88044c0.23845,-0.5108 0.6888,-0.94944 1.19582,-1.19582c0.32348,-0.15719 2.9821,-0.07031 3.18088,-0.07773c2.39315,-0.08925 9.92682,0.88486 13.70785,-1.31466c1.48879,-0.86606 2.97747,-2.9866 4.03814,-3.98881c1.32333,-1.2504 2.76773,-2.36609 4.1495,-3.55159c0.72288,-0.6202 1.43373,-1.25453 2.16444,-1.86548c1.78661,-1.49379 3.62907,-2.92122 5.38718,-4.44846c2.78094,-2.41576 5.44885,-4.95953 8.22725,-7.37822c1.29233,-1.12502 2.5124,-2.36959 3.98209,-3.25039c1.46098,-0.87558 3.14501,-1.30893 4.71752,-1.96339M216.49068,71.63066c28.68958,18.76276 11.79012,70.65173 0,102.84064c-4.31848,11.79012 -25.83994,4.21241 -37.66837,0c-4.22458,-1.50448 -0.0696,-8.96868 -0.10762,-13.45299c-0.02376,-2.80223 -0.05311,-5.6044 -0.07773,-8.40662c-0.08276,-9.41906 -0.15924,-18.83818 -0.23916,-28.25726c-0.02562,-3.01949 -0.04711,-6.03893 -0.07773,-9.05835c-0.00096,-0.09427 0.01445,-2.14589 -0.09567,-2.40958c-0.10861,-0.26009 -0.31847,-0.56105 -0.59791,-0.59791c-1.55541,-0.20517 -3.13691,-0.07412 -4.70556,-0.10164c-0.47627,-0.00836 -0.95267,-0.0047 -1.42901,-0.00598c-1.0025,-0.0027 -2.005,-0.00283 -3.00749,-0.00598c-2.50724,-0.00788 -5.01449,-0.01348 -7.52172,-0.02392c-1.30247,-0.00542 -4.03768,-0.07299 -4.86101,0.13752c-0.6962,0.17801 -1.32616,0.65015 -1.79373,1.19582c-0.31669,0.36959 -0.21562,2.10106 -0.21525,2.45741c0.00054,0.52019 -0.00788,1.04036 -0.00598,1.56055c0.00209,0.57203 0.01502,1.14398 0.01794,1.716c0.00307,0.60189 -0.00233,1.2038 0,1.80569c0.00764,1.97312 0.02283,3.9462 0.0299,5.91932c0.00489,1.36522 0.00159,2.73046 0.00598,4.09569c0.02335,7.2706 0.04975,14.5412 0.07773,21.81178c0.05862,15.23456 7.33855,30.88634 -16.65181,21.62045c-2.01351,-0.77768 -0.01273,-4.31693 -0.02392,-6.47537c-0.03665,-7.0733 -0.08111,-14.14656 -0.11958,-21.21985c-0.0544,-10.00303 -0.09838,-20.00612 -0.15546,-30.00914c-0.01263,-2.21427 -0.03261,-4.4285 -0.04185,-6.64279c-0.01283,-3.07583 0.13721,-4.65631 -0.46637,-8.36029c-0.39259,-2.40917 -0.54119,-5.40669 -2.40061,-7.26611c-0.28962,-0.28962 -0.59145,-0.60781 -0.97758,-0.7444c-0.90575,-0.32039 -2.87721,-0.23726 -3.77282,-0.23916c-0.74938,-0.00159 -1.49876,-0.00793 -2.24814,-0.00598c-0.78328,0.00204 -1.56651,0.01544 -2.34979,0.01794c-0.78328,0.0025 -1.5665,-0.01674 -2.34979,-0.01794c-0.74938,-0.00114 -1.49876,0.0039 -2.24814,0.00598c-0.83978,0.00233 -2.88604,-0.08248 -3.77282,0.23916c-0.56319,0.20428 -1.61417,1.18522 -1.79373,1.79373c-0.97659,3.30953 -0.80218,4.93439 -1.02841,8.34085c-0.01447,0.21796 0.18171,2.26298 -0.76533,2.42154c-1.09506,0.18334 -2.22012,0.04865 -3.33036,0.05979c-0.94106,0.00944 -3.2637,-0.01882 -4.1794,-0.02392c-0.71748,-0.00399 -1.43499,-0.00252 -2.15248,-0.00598c-1.76185,-0.0085 -3.65361,0.63421 -5.28553,-0.0299c-0.66104,-0.26901 -0.02622,-1.42716 -0.04783,-2.14052c-0.02821,-0.93094 -0.07384,-1.86129 -0.10164,-2.79224c-0.01405,-0.47021 -0.00973,-0.94086 -0.02392,-1.41107c-0.01372,-0.45464 -0.04319,-0.90869 -0.05979,-1.36324c-0.01529,-0.41843 0.02968,-0.84207 -0.03587,-1.25561c-0.15869,-1.00103 -0.50843,-1.8083 -1.24963,-2.53514c-1.95912,-1.92117 -2.99257,-1.19951 -6.24219,-1.35726c-0.46184,-0.02242 -0.92477,-0.00193 -1.38715,0c-0.96663,0.00404 -1.93323,0.01479 -2.89987,0.01794c-1.48082,0.00482 -2.96166,0.0011 -4.44248,0.00598c-0.93873,0.00309 -1.87742,0.01524 -2.81616,0.01794c-0.75816,0.00218 -2.04437,-0.02864 -2.78925,0.03139c-0.60955,0.04912 -1.31248,-0.11449 -1.82064,0.22571c-1.24172,0.8313 -1.29043,2.06769 -1.35576,3.32065c-0.02923,0.56053 -0.00362,1.12259 -0.00747,1.68387c-0.02951,4.30294 -0.04792,8.60589 -0.07175,12.90889c-0.06172,11.14507 -0.13471,22.2901 -0.19731,33.43517c-0.05499,9.78978 3.88105,20.45303 -0.16144,29.36937c-1.81053,3.99342 -12.59774,4.34925 -13.15404,0c-4.34925,-34.00319 -34.28021,-228.10028 157.25051,-102.84064z" fill="#fefcf7"/><path d="M59.24017,178.05876c0.62301,-4.53126 9.1477,0.03513 13.72155,0.0527c21.43875,0.08233 42.8775,0.16474 64.31626,0.24626c21.73859,0.08266 43.47719,0.16441 65.21578,0.24626c4.66564,0.01757 12.19984,-4.253 13.99692,0.0527c4.2989,10.29987 5.13243,23.57209 0,33.483c-2.65787,5.13243 -11.57241,0.38447 -17.33941,0c-0.53028,-0.03535 -0.91101,-4.54728 -2.98955,-1.19582c-0.88242,1.42282 -0.51204,3.31024 -0.69358,4.97462c-0.01015,0.09302 -0.02985,3.22903 -0.0299,3.2347c-0.02191,2.54112 -0.04427,5.08224 -0.06577,7.62336c-0.07218,8.5322 -0.14684,17.06438 -0.22123,25.59656c-0.06205,7.11713 0.59729,14.27715 -0.18535,21.35139c-0.08906,0.805 -1.51467,0.5741 -2.27206,0.86099c-0.42647,0.16154 -0.84272,0.35327 -1.27953,0.48431c-2.59387,0.77816 -6.67744,4.70264 -7.80871,2.24217c-0.64931,-1.41223 1.27543,-12.2972 2.15846,-17.44703c1.45629,-8.49311 2.9044,-16.98762 4.36245,-25.48043c0.54187,-3.1563 1.19475,-6.95079 1.72736,-9.99647c0.47851,-2.73635 0.97539,-5.54516 1.48891,-8.28116c0.4222,-2.24938 0.77034,-3.9881 1.22686,-6.2307c0.24533,-1.20513 0.58061,-2.39488 0.74306,-3.61395c0.20753,-1.55747 0.26981,-3.13121 0.36473,-4.69958c0.01781,-0.29427 0.08891,-2.77261 -0.1136,-3.17491c-0.25346,-0.50352 -0.7161,-0.89977 -1.19582,-1.19582c-0.37716,-0.23276 -2.07162,-0.33982 -2.43948,-0.37668c-0.49845,-0.04995 -0.99607,-0.10819 -1.49478,-0.15546c-0.53173,-0.0504 -1.06451,-0.08907 -1.59642,-0.13752c-0.54036,-0.04921 -1.08032,-0.10265 -1.62034,-0.15546c-1.97751,-0.19336 -4.53521,-0.49517 -6.59346,-0.55307c-0.89155,-0.02508 -1.78409,-0.00806 -2.67565,0.01663c-1.30362,0.0361 -2.678,-0.26525 -3.90884,0.16573c-0.80884,0.28322 -1.34329,2.25632 -1.51869,2.98357c-0.10971,0.4549 -0.16652,0.92095 -0.25112,1.38117c-0.09676,0.52633 -0.19851,1.05174 -0.29298,1.57848c-0.10284,0.57343 -0.19654,1.14847 -0.29896,1.72198c-0.10686,0.59841 -0.22085,1.19553 -0.32885,1.79373c-0.3504,1.94092 -0.69715,3.88251 -1.04634,5.82365c-0.24274,1.34936 -0.48718,2.69841 -0.72945,4.04786c-0.7961,4.43435 -1.5968,8.86787 -2.38566,13.30351c-0.80158,4.50712 -1.58778,9.01696 -2.38566,13.52474c-1.26709,7.15866 -2.54443,14.31508 -3.82663,21.47097c-0.39247,2.19037 -0.78255,4.38118 -1.17788,6.57104c-0.08633,0.47822 -0.17131,0.95667 -0.2571,1.43499c-0.07365,0.41058 -0.16339,0.81859 -0.22123,1.2317c-0.291,2.07856 1.18316,5.63234 -0.82512,6.24219c-6.29326,1.91104 -13.16608,0.39788 -19.73105,0c-0.39788,-0.02411 -0.23169,-0.87146 0,-1.19582c0.81913,-1.14679 2.05077,-1.93847 2.98955,-2.98955c1.16571,-1.30516 2.90599,-3.70826 3.48582,-5.39315c0.74497,-2.16477 1.28367,-4.40054 1.74123,-6.64372c0.45316,-2.22159 0.81658,-4.46911 0.98674,-6.73005c0.34224,-4.54738 0.37973,-9.11261 0.54858,-13.66973c0.01601,-0.4322 0.01647,-0.8651 0.00598,-1.29747c-0.1268,-5.22759 0.05006,-8.40909 -1.38715,-13.50082c-0.3621,-1.28283 -1.06818,-2.44764 -1.72348,-3.60839c-0.6552,-1.16057 -1.26771,-2.38578 -2.19882,-3.33933c-1.47371,-1.50924 -3.10438,-2.91218 -4.93276,-3.96415c-1.70995,-0.98382 -3.64555,-1.53708 -5.54637,-2.06503c-2.37046,-0.65839 -6.00617,-1.16241 -8.69194,-1.42592c-1.60951,-0.15792 -2.31492,-0.1788 -3.93014,-0.11416c-0.95819,0.03835 -1.93178,-0.0214 -2.87203,0.16713c-0.56968,0.11423 -1.08624,0.42753 -1.58446,0.72646c-0.82111,0.49266 -2.00232,1.49463 -2.50824,2.33783c-1.39609,2.32682 -0.99833,5.98122 -1.10315,8.18241c-0.09664,2.02954 1.68853,5.30724 -0.18535,6.09271c-4.41141,1.84913 -10.03261,2.05941 -14.34986,0c-2.07246,-0.9886 -0.05708,-4.59199 -0.08969,-6.88793c-0.08405,-5.91737 -0.18135,-11.83457 -0.26308,-17.75197c-0.00958,-0.69354 -0.00862,-1.38719 -0.01794,-2.08073c-0.00862,-0.64181 -0.02528,-1.28349 -0.03587,-1.92527c-0.00934,-0.566 0.0116,-1.1331 -0.02392,-1.69807c-0.02835,-0.451 0.04621,-0.94709 -0.16741,-1.3453c-0.26649,-0.49675 -0.64609,-1.07103 -1.19582,-1.19582c-1.55576,-0.35316 -3.18849,-0.12003 -4.78329,-0.16144c-0.47817,-0.01241 -0.95666,-0.00064 -1.43499,0c-1.0005,0.00135 -2.00101,0.00598 -3.00151,0.00598c-1.53464,0 -3.06927,-0.00476 -4.60391,-0.00598c-0.9726,-0.00077 -1.9452,0.00135 -2.9178,0c-0.46637,-0.00065 -0.933,-0.02171 -1.39911,-0.00598c-1.12879,0.0381 -2.30167,-0.15479 -3.38417,0.16741c-1.35599,0.40361 -1.30065,1.63554 -1.35576,2.66892c-0.02957,0.55453 -0.00365,1.11063 -0.00747,1.66593c-0.00974,1.41305 -0.0165,2.82612 -0.02392,4.23919c-0.04874,9.28556 -0.10765,18.57112 -0.16144,27.85666c-0.02759,4.76336 -0.05698,9.5267 -0.08371,14.29007c-0.05499,9.79975 3.88175,20.4723 -0.16144,29.39927c-1.80901,3.99411 -12.58136,4.34712 -13.15404,0c-4.34712,-32.99859 -4.53361,-66.8776 0,-99.85109z" fill="#fdfbf7"/><path d="M59.24017,282.09522c4.16588,-11.48725 24.4386,-0.02277 36.65791,-0.03587c3.77481,-0.00405 7.54961,-0.01507 11.32443,-0.01794c3.09917,-0.00235 6.19834,-0.00422 9.29751,-0.00598c0.41057,-0.00023 0.82116,-0.00485 1.2317,0c18.16458,0.21439 36.33823,0.04017 54.49358,0.6577c0.39838,0.01355 0.2768,0.909 0,1.19582c-0.8687,0.90014 -2.13924,1.30495 -3.13903,2.05681c-3.0095,2.2632 -6.13422,4.40581 -8.88047,6.9821c-6.76563,6.34693 -9.77662,11.30854 -14.35883,19.48292c-1.05109,1.87508 -1.87816,3.87146 -2.67303,5.86868c-2.68046,6.73497 -3.82596,12.60652 -4.97873,20.11951c-0.71962,4.69 -0.98818,9.43824 -1.45591,14.16002c-0.12755,1.2876 -0.13001,2.2568 -0.23916,3.53365c-0.03826,0.44758 -0.02245,0.90844 -0.14948,1.33932c-0.12602,0.42747 -0.17968,1.0419 -0.59791,1.19582c-0.59227,0.21798 -1.24137,-0.251 -1.87146,-0.287c-3.734,-0.21332 -7.47329,-0.32209 -11.21083,-0.46039c-0.73303,-0.02713 -1.46706,-0.05616 -2.20031,-0.03587c-4.0857,0.11304 -6.93424,0.07593 -10.85806,1.41705c-1.72932,0.59106 -3.15344,2.02447 -4.9507,2.35577c-0.47238,0.08708 -0.00734,-0.96065 -0.01196,-1.44096c-0.04321,-4.4943 -0.0881,-8.98859 -0.13154,-13.48289c-0.0439,-4.54213 -0.08747,-9.08426 -0.13154,-13.62638c-0.00824,-0.84903 -0.01688,-1.69806 -0.02392,-2.5471c-0.01374,-1.6581 0.02652,-3.83363 -0.15172,-5.54786c-0.121,-1.16376 -0.74494,-4.61243 -0.99029,-5.43576c-0.22504,-0.75519 -0.46717,-1.54221 -0.95068,-2.16444c-0.27345,-0.3519 -0.75167,-0.56128 -1.19582,-0.59791c-1.1084,-0.09141 -8.71036,-0.12197 -11.12712,-0.13154c-0.78127,-0.00309 -1.56254,-0.0039 -2.34381,-0.00598c-0.71949,-0.00191 -1.43942,-0.03154 -2.15846,-0.00598c-0.57165,0.02032 -1.19054,-0.09594 -1.71002,0.1435c-0.51195,0.23596 -0.92108,0.70359 -1.19582,1.19582c-0.21318,0.38194 -0.16458,2.27767 -0.16741,2.61885c-0.0326,3.91827 -0.05146,7.83655 -0.07773,11.75492c-0.06188,9.22976 -0.13402,18.45949 -0.19731,27.68924c-0.05282,7.70308 5.26388,17.63467 -0.15546,23.10925c-5.32807,5.38239 -21.05916,7.38905 -22.72061,0c-7.38905,-32.86182 -11.48317,-69.38251 0,-101.04691z" fill="#fefcf7"/><path d="M416.07477,330.81c1.16772,-0.01504 2.3307,0.15196 3.49628,0.22422c0.74724,0.04633 1.49501,0.08382 2.24217,0.13154c1.71825,0.10973 3.43595,0.22791 5.15399,0.34081c3.31637,0.21794 6.63315,0.42961 9.94923,0.65172c14.02408,0.93934 28.04639,1.9033 42.069,2.86399c1.63741,0.11218 3.27499,0.22177 4.91228,0.33562c1.80387,0.12544 4.58964,0.31816 6.48429,0.48459c1.51417,0.13301 3.04269,0.27833 4.52672,0.62598c0.68162,0.15968 1.37101,0.33144 2.00207,0.63453c0.38909,0.18688 0.70376,0.50645 1.00897,0.81166c1.73575,1.73575 1.09253,2.67887 0.88192,5.93651c-0.10744,1.66174 -0.48254,3.29532 -0.73692,4.94098c-0.08494,0.54951 -0.18867,1.09594 -0.28102,1.64425c-0.09899,0.58772 -0.19476,1.17598 -0.29298,1.76384c-0.53841,3.22269 -1.07591,6.44553 -1.61436,9.66822c-0.44558,2.66683 -0.89904,5.33234 -1.33932,8.00005c-2.19356,13.29106 -4.3256,26.59179 -6.42156,39.89858c-0.51013,3.2387 -1.02147,6.4772 -1.53065,9.71605c-0.33854,2.15338 -0.63992,4.46424 -1.22646,6.51648c-0.44876,1.57015 -0.98866,3.12725 -1.72124,4.58672c-0.21832,0.43495 -0.60257,0.87483 -1.07624,0.98655c-2.4191,0.57057 -7.24467,0.4061 -9.66149,0.20404c-3.22597,-0.26972 -6.43742,-0.69159 -9.65701,-1.02915c-0.77473,-0.08123 -1.55091,-0.14817 -2.32587,-0.22721c-0.7298,-0.07443 -1.4589,-0.15552 -2.18835,-0.23319c-0.6557,-0.06982 -1.3148,-0.11291 -1.96713,-0.20927c-0.97982,-0.14473 -2.15171,-0.38277 -3.0613,-0.81914c-0.37131,-0.17813 -0.80221,-0.33549 -1.03439,-0.67564c-0.84456,-1.23731 -1.4298,-2.63305 -2.12856,-3.95817c-1.49911,-2.8429 -3.75508,-9.38051 -3.94995,-9.97913c-0.98564,-3.02783 -1.63252,-6.15573 -2.47759,-9.22576c-0.85004,-3.08807 -1.56487,-6.21976 -2.60764,-9.24818c-1.04132,-3.02423 -2.39159,-5.93338 -3.63455,-8.88047c-0.17839,-0.42297 -0.39708,-0.82887 -0.62781,-1.22572c-1.20216,-2.06771 -2.28128,-4.2184 -3.66968,-6.16595c-4.28558,-6.01154 -8.17173,-8.86569 -14.90965,-12.97989c-3.62033,-2.21059 -7.56268,-3.84506 -11.37002,-5.71528c-0.60368,-0.29654 -1.27319,-0.45373 -1.8595,-0.78326c-0.24571,-0.1381 -0.60026,-0.31606 -0.59791,-0.59791c0.06493,-7.80399 0.67772,-15.53605 3.37222,-22.95379c0.66301,-1.82521 2.03005,-3.31932 3.21078,-4.86101c0.30054,-0.39241 3.49813,-1.18386 4.65922,-1.19881z" fill="#eea696"/><path d="M436.44708,88.03613c1.41904,0.43647 2.93149,0.64092 4.25712,1.30942c1.47217,0.7424 2.75267,1.82557 4.02908,2.86922c4.31132,3.52513 6.22501,6.56461 10.33274,10.98437c2.14723,2.31034 4.41948,4.50128 6.63681,6.74443c0.34974,0.35381 0.70935,0.69773 1.06428,1.04634c0.31672,0.31109 0.64526,0.61054 0.95068,0.93274c0.3071,0.32397 0.62056,0.64534 0.88566,1.00449c0.44635,0.60473 1.05465,1.98802 1.81092,2.34979c0.91209,0.43631 3.15123,0.31511 4.05981,0.32287c0.39668,0.00339 0.79317,0.0196 1.18984,0.02392c1.25358,0.01363 2.50726,0.01794 3.76086,0.0299c1.25364,0.01196 2.50722,0.02932 3.76086,0.04185c1.13801,0.01138 2.27669,-0.0096 3.41407,0.0299c1.32518,0.04601 2.28812,-0.11933 2.9477,1.3453c0.24184,0.537 0.11259,1.17311 0.13602,1.76159c0.00672,0.1688 0.02541,2.79911 0.02541,3.37446c0,4.99655 -0.00183,9.99305 0,14.98962c0.00471,12.82917 0,25.65834 0,38.48751c0,10.94575 0.00967,21.89151 0,32.83726c-0.00115,1.29946 -0.00471,2.59892 -0.00598,3.89838c-0.00072,0.73742 0.02934,1.47543 0,2.21227c-0.05227,1.31285 0.09103,2.2277 -1.35128,2.88791c-0.37613,0.17217 -3.61917,0.15399 -3.80869,0.15546c-2.68046,0.0207 -5.36135,0.01492 -8.0419,0.01794c-9.83962,0.01108 -19.67923,0.01036 -29.51885,0.01794c-15.00158,0.01155 -30.00315,0.02725 -45.00474,0.03587c-2.20031,0.00127 -4.40062,0.00221 -6.60093,0c-0.71749,-0.00072 -1.43621,0.04187 -2.15248,0c-1.05089,-0.06144 -2.0639,-0.09678 -2.85801,-0.89089c-0.85226,-0.85226 -0.79959,-1.80543 -0.86323,-2.94247c-0.03987,-0.7122 -0.02051,-1.42649 -0.02765,-2.13977c-0.0146,-1.45794 0,-4.5366 0,-5.28553c0,-0.97061 -0.00598,-1.94121 -0.00598,-2.91183c0,-10.02298 0.01989,-20.04596 0.0299,-30.06893c0.01267,-12.69763 0.00734,-25.39527 0.01794,-38.09289c0.00402,-4.82113 0.01442,-9.64233 0.02392,-14.46346c0.00041,-0.20756 -0.05313,-3.4336 0.15546,-3.88044c0.23845,-0.5108 0.6888,-0.94944 1.19582,-1.19582c0.32348,-0.15719 2.9821,-0.07031 3.18088,-0.07773c2.39315,-0.08925 9.92682,0.88486 13.70785,-1.31466c1.48879,-0.86606 2.97747,-2.9866 4.03814,-3.98881c1.32333,-1.2504 2.76773,-2.36609 4.1495,-3.55159c0.72288,-0.6202 1.43373,-1.25453 2.16444,-1.86548c1.78661,-1.49379 3.62907,-2.92122 5.38718,-4.44846c2.78094,-2.41576 5.44885,-4.95953 8.22725,-7.37822c1.29233,-1.12502 2.5124,-2.36959 3.98209,-3.25039c1.46098,-0.87558 3.14501,-1.30893 4.71752,-1.96339M389.28389,120.06023v93.87198h92.67616v-93.87198z" fill="#2e414c"/><path d="M439.46474,141.26633c3.7489,0.81914 7.0972,2.05681 10.40963,4.00002c2.92378,2.02094 5.3513,4.31094 7.57553,7.08524c1.87744,3.01945 3.39015,6.18838 4.4066,9.60245c0.48431,3.04337 0.69358,5.85355 0.37668,8.93279c-0.67564,3.36026 -1.65023,6.44548 -3.33634,9.44699c-2.39762,3.55757 -5.13007,6.75639 -8.56208,9.34534c-2.30196,1.53065 -4.69958,2.82214 -7.34832,3.62334c-4.46041,0.8012 -9.17195,0.71749 -13.64432,0.02392c-2.53514,-0.66966 -4.71154,-1.72198 -6.94772,-3.08522c-2.91183,-2.09867 -5.29749,-4.49031 -7.39616,-7.39616c-1.98506,-3.42005 -3.7489,-6.94174 -4.78329,-10.76239c-0.33483,-4.42454 -0.47833,-9.09422 0.63379,-13.41712c1.18984,-3.28851 3.16295,-6.009 5.34532,-8.70558c0.31091,-0.39462 0.62781,-0.78326 0.95068,-1.18386c1.50673,-1.67415 2.99553,-2.86399 4.94472,-4.01796c5.83561,-3.01347 10.82816,-4.53216 17.37529,-3.4918z" fill="#eda697"/><path d="M128.95431,217.34673c1.87664,0.32559 3.78916,0.66574 5.52993,1.43872c4.23587,1.88093 5.44421,4.05275 7.50901,8.15999c0.92467,1.83932 1.78953,3.73874 2.29075,5.73546c1.41279,5.62825 1.45914,10.78093 1.0583,16.52625c-0.23862,3.42028 -0.6382,6.83087 -1.1435,10.22203c-0.25132,1.68659 -0.64757,3.35328 -1.12332,4.99078c-0.86626,2.98159 -1.59185,5.13689 -3.38642,7.54292c-0.63166,0.84688 -1.24886,1.75817 -2.11959,2.35652c-1.6405,1.12731 -3.40741,2.13858 -5.30347,2.74441c-1.48351,0.47401 -3.09907,0.3153 -4.65175,0.43647c-0.27789,0.02169 -3.70612,0.14062 -3.94621,0.14948c-1.40137,0.05167 -6.9735,0.27032 -7.02545,0.2571c-0.46941,-0.11946 -0.01747,-0.96859 -0.02392,-1.45292c-0.06131,-4.60389 -0.11881,-9.20783 -0.17937,-13.81174c-0.06124,-4.65577 -0.12751,-9.31146 -0.19133,-13.96719c-0.01246,-0.90882 -0.01322,-1.81785 -0.03587,-2.72647c-0.11886,-4.76762 -0.24652,-9.53504 -0.38864,-14.30202c-0.02331,-0.78175 -0.06773,-1.56273 -0.10762,-2.34381c-0.07371,-1.44317 -0.15731,-2.88582 -0.23319,-4.32887c-0.03374,-0.64166 -0.06156,-1.28363 -0.09567,-1.92527c-0.04244,-0.79844 -0.22602,-2.31827 0.05979,-3.13903c0.134,-0.38481 1.34819,-2.20029 1.79373,-2.39164c0.92796,-0.39855 1.96289,-0.50277 2.96638,-0.6166c1.00797,-0.11434 6.86633,0.11908 8.74743,0.44544z" fill="#e8e4e0"/><path d="M76.57958,97.34082h17.33941v77.13048h-17.33941z" fill="#78b9bc"/><path d="M76.57958,200.77937c11.95821,0 11.95821,0 16.7415,0.59791l0.59791,1.19582c0.05381,0.99851 0.07175,2.003 0.07175,3.00151v1.92527c0,0.70553 0,1.40509 -0.00598,2.12258v2.23021c0,2.01496 0,4.0359 -0.00598,6.05684c0,2.10465 -0.00598,4.21527 -0.00598,6.31992c0,3.99404 -0.00598,7.98809 -0.01196,11.98213c-0.00598,4.5501 -0.00598,9.09422 -0.01196,13.63834c-0.00598,9.35132 -0.01794,18.70863 -0.0299,28.05995h-17.33941z" fill="#fdfbf7"/><path d="M175.83276,199.58355c10.08077,-0.13154 10.08077,-0.13154 14.94777,0.59791l1.19582,0.59791c-0.82512,7.82665 -2.0329,15.55764 -3.34232,23.31254l-0.62781,3.73694c-0.5441,3.25263 -1.0882,6.50527 -1.63828,9.7579c-0.7713,4.56804 -1.53663,9.14205 -2.30196,13.71009c-0.40658,2.42154 -0.81316,4.84308 -1.21974,7.27059c-1.18386,7.03741 -2.32587,14.0808 -3.42603,21.13614c-5.6084,0.07773 -11.15103,-0.20329 -16.7415,-0.59791c-0.1136,-3.79075 0.30493,-7.30049 0.9447,-11.03145c0.10164,-0.60987 0.20329,-1.21974 0.31091,-1.85352c0.33483,-2.02094 0.68162,-4.04188 1.02243,-6.06281l0.71749,-4.25712c1.90734,-11.25866 3.90436,-22.50536 5.93725,-33.74608c0.07175,-0.39462 0.1435,-0.79522 0.21525,-1.2018c0.47833,-2.65472 0.96264,-5.30945 1.44096,-7.96417c0.12556,-0.66368 0.24514,-1.32736 0.3707,-2.01496c0.69358,-3.80271 1.42303,-7.59945 2.19433,-11.3902z" fill="#76b8bb"/><path d="M118.43333,97.34082c1.3453,-0.20329 1.3453,-0.20329 2.99553,-0.17339l1.78775,0.01794c0.61585,0.01196 1.2317,0.0299 1.86548,0.04185l1.8894,0.02392c1.53663,0.02392 3.07924,0.05381 4.61587,0.08969c0.98057,2.15248 1.716,4.02394 1.96115,6.37971c0.05381,1.86548 0.05381,3.72498 0.03587,5.59047v2.14052c0,2.31989 -0.01196,4.64577 -0.0299,6.96566c0,1.61436 -0.00598,3.22872 -0.00598,4.84308c-0.00598,3.81467 -0.01794,7.62336 -0.03587,11.43205c-0.02392,4.34083 -0.0299,8.67568 -0.04185,13.01652c-0.01794,8.92083 -0.05381,17.84166 -0.08969,26.76248h-16.7415c-0.01196,-8.32292 -0.02392,-16.64583 -0.0299,-24.96277c-0.00598,-3.86848 -0.00598,-7.73099 -0.01794,-11.59947c-0.00598,-3.73694 -0.00598,-7.47388 -0.00598,-11.21083c-0.00598,-1.41705 -0.00598,-2.8341 -0.01196,-4.25712c-0.03587,-17.99113 -0.03587,-17.99113 0.66368,-23.30656z" fill="#e6e3e0"/><path d="M157.89543,115.87605h17.33941v58.59525h-17.33941z" fill="#e8e4e0"/><path d="M199.15127,216.32505h17.33941v55.6057l-17.33941,1.19582z" fill="#fefcf8"/><path d="M98.10436,110.49485h14.34986v63.97645h-14.34986z" fill="#fefdf8"/><path d="M85.54824,320.36151h15.54568c0.09567,5.76386 0.17339,11.52772 0.21525,17.29158c0.02392,2.67864 0.05381,5.35728 0.10164,8.02994c0.04185,2.58895 0.07175,5.17193 0.07773,7.76088c0.01196,0.98057 0.02392,1.96713 0.04783,2.9477c0.06577,2.98955 0.06577,5.85952 -0.44245,8.8132c-0.9148,1.60838 -1.79373,2.67864 -3.17491,3.8924c-0.33483,0.29298 -0.66966,0.58595 -1.01047,0.89089c-1.51869,2.89987 -2.23021,5.74592 -2.8042,8.93279c-0.07773,0.40658 -0.15546,0.81914 -0.23319,1.23768c-0.18535,0.99253 -0.3707,1.99104 -0.55008,2.98357h-7.77284z" fill="#f8f6f1"/><path d="M476.58184,517.67204c5.97911,0 12.15572,-1.52406 17.93732,0c1.65143,0.43532 0.7125,3.34054 1.07026,5.01049c0.72625,3.38999 1.45278,6.77991 2.17639,10.17046c0.46077,2.15895 1.05774,4.97571 1.54709,7.20931c0.39684,1.81132 1.2612,5.66462 1.60987,7.20034c0.14535,0.64016 1.13877,4.91649 1.33334,5.86401c0.24145,1.17585 0.50285,2.34919 0.67863,3.53664c0.23253,1.57081 0.34813,4.26776 0.23617,5.78628c-0.03133,0.42492 -0.16881,0.83981 -0.32511,1.23618c-0.15086,0.38258 -0.30461,0.78731 -0.58969,1.08371c-1.41865,1.47501 -3.99283,0.91205 -5.64428,0.99851c-0.68817,0.03603 -1.84137,0.06085 -2.52094,-0.00149c-0.65748,-0.06032 -1.36073,0.00809 -1.96339,-0.26159c-0.44832,-0.20061 -1.65711,-2.06367 -1.79373,-2.39164c-0.62043,-1.48938 -1.86047,-5.69822 -2.34979,-7.30049c-0.65682,-2.15076 -1.31617,-4.30074 -1.97311,-6.45146c-1.69953,-5.56404 -3.51555,-11.09184 -5.28553,-16.63388c-1.13828,-3.5641 -2.28519,-7.12545 -3.42005,-10.69064c-0.23392,-0.73488 -0.60669,-1.85629 -0.6861,-2.64725c-0.05721,-0.56977 -0.02491,-1.145 -0.03737,-1.7175M165.89548,517.60029c0.76737,-0.00802 1.53459,-0.02771 2.30196,-0.03587c0.73141,-0.00778 1.4629,-0.00678 2.19433,-0.01196c0.67565,-0.00479 1.35161,-0.04008 2.02692,-0.01794c0.98779,0.03239 2.47901,-0.08686 2.81616,1.33334c0.13322,0.56116 -0.3488,1.09953 -0.52018,1.65023c-1.45493,4.67504 -2.90759,9.35078 -4.35877,14.02699c-0.83933,2.70461 -1.65504,5.41654 -2.49927,8.11963c-1.66271,5.32374 -3.33537,10.64437 -5.01049,15.96422c-0.61817,1.96316 -1.83624,5.96054 -3.15697,6.87597c-1.32222,0.91646 -3.21172,0.19741 -4.81916,0.26308c-1.11015,0.04536 -4.40016,-0.15423 -4.74741,-0.26308c-2.67542,-0.83867 -1.03167,-7.0356 -1.00972,-7.25565c0.20095,-2.01454 0.66263,-3.99457 1.0157,-5.98808c0.11309,-0.63851 0.25425,-1.27173 0.38266,-1.90734c0.2682,-1.32754 0.53942,-2.65446 0.80718,-3.98209c1.80263,-8.93803 11.91042,-28.7436 14.57706,-28.77146z" fill="#fcfbf7"/><path d="M97.50645,234.26237h14.94777v44.24539h-14.94777z" fill="#f8f7f3"/><path d="M439.46474,141.26633c3.7489,0.81914 7.0972,2.05681 10.40963,4.00002c2.92378,2.02094 5.3513,4.31094 7.57553,7.08524c1.87744,3.01945 3.39015,6.18838 4.4066,9.60245c0.48431,3.04337 0.69358,5.85355 0.37668,8.93279c-0.67564,3.36026 -1.65023,6.44548 -3.33634,9.44699c-2.39762,3.55757 -5.13007,6.75639 -8.56208,9.34534c-2.30196,1.53065 -4.69958,2.82214 -7.34832,3.62334c-4.46041,0.8012 -9.17195,0.71749 -13.64432,0.02392c-2.53514,-0.66966 -4.71154,-1.72198 -6.94772,-3.08522c-2.91183,-2.09867 -5.29749,-4.49031 -7.39616,-7.39616c-1.98506,-3.42005 -3.7489,-6.94174 -4.78329,-10.76239c-0.33483,-4.42454 -0.47833,-9.09422 0.63379,-13.41712c1.18984,-3.28851 3.16295,-6.009 5.34532,-8.70558c0.31091,-0.39462 0.62781,-0.78326 0.95068,-1.18386c1.50673,-1.67415 2.99553,-2.86399 4.94472,-4.01796c5.83561,-3.01347 10.82816,-4.53216 17.37529,-3.4918M427.20159,146.90462c-2.75637,1.26159 -5.13007,2.86997 -7.42007,4.84906c-1.69807,1.78177 -3.01347,3.56953 -4.07177,5.79973c-0.9148,2.17639 -1.43499,4.14352 -1.57251,6.50527c-0.01196,0.95666 -0.01196,1.90734 0,2.86399l0.01794,1.51869c0.07175,2.6607 0.2571,5.07028 1.17788,7.59945c1.66817,3.36026 3.89838,6.30796 6.58898,8.91485c2.00898,1.6024 4.20929,2.5471 6.60093,3.45592c3.27057,0.99851 6.27806,1.36324 9.69213,1.2317c2.47535,-0.29298 4.63381,-0.86697 6.93576,-1.82363c2.60689,-1.3453 4.80122,-2.95368 6.91783,-4.97462c1.70405,-1.86548 3.10316,-3.75488 4.1794,-6.04488c1.16593,-2.96564 1.81765,-5.7818 1.98506,-8.94474c-0.04185,-2.98955 -0.80718,-5.61438 -1.82363,-8.41858c-1.10613,-2.50525 -2.5172,-4.46041 -4.34083,-6.48733c-0.32287,-0.37668 -0.63976,-0.75337 -0.97459,-1.14201c-1.41107,-1.54261 -2.74441,-2.78028 -4.56804,-3.81467c-2.31391,-1.07026 -4.49031,-1.82363 -7.01349,-2.21825c-4.22125,-0.29298 -8.28704,-0.26906 -12.31098,1.13005z" fill="#30424d"/><path d="M441.90302,95.54708c3.17491,2.52916 5.87148,5.3513 8.586,8.34683c2.42154,2.65472 4.92678,5.17791 7.52172,7.66522c1.2317,1.32736 1.2317,1.32736 3.02543,4.31692h-52.61614c3.37222,-3.37222 3.37222,-3.37222 4.94472,-4.8371l1.04036,-0.96862c0.35875,-0.32885 0.71151,-0.6577 1.07624,-0.99851c0.3707,-0.34081 0.74141,-0.68162 1.12407,-1.04036c2.27804,-2.09867 4.56206,-4.18537 6.91783,-6.20631c0.74141,-0.63976 1.47086,-1.29747 2.19433,-1.96713c0.3707,-0.33483 0.74141,-0.67564 1.12407,-1.02243l0.98655,-0.9148c0.45441,-0.287 0.45441,-0.287 0.92078,-0.57997l1.79373,0.59791c0.34679,0.40658 0.6876,0.81316 1.04634,1.2317c0.66368,0.57399 0.66368,0.57399 1.3453,1.15995c2.06877,0.34679 2.06877,0.34679 4.18537,0c1.67415,-0.63976 1.67415,-0.63976 2.98955,-1.79373c1.08222,-1.53663 1.08222,-1.53663 1.79373,-2.98955z" fill="#fdfcf8"/><path d="M317.60516,158.69901c1.43499,-0.07773 2.70256,-0.02392 4.1196,0.22721c1.97908,1.01047 1.97908,1.01047 3.58746,2.39164c1.19582,1.35726 2.18237,2.57102 2.98955,4.18537c0.01794,2.02692 -0.20927,3.98806 -0.59791,5.97911c-1.01047,2.05681 -1.01047,2.05681 -2.39164,3.58746c-1.68611,1.11809 -1.68611,1.11809 -3.58746,1.79373c-2.02094,0.29896 -2.02094,0.29896 -4.18537,0c-1.78775,-0.78924 -3.29449,-1.73394 -4.78329,-2.98955c-0.29896,-0.44245 -0.59193,-0.89089 -0.89687,-1.3453c-0.43647,-2.38566 -0.56802,-4.61587 -0.29896,-7.02545c0.70553,-2.27804 0.70553,-2.27804 1.79373,-4.18537c0.41854,-0.48431 0.83707,-0.96264 1.26757,-1.4589c1.72198,-0.93274 1.72198,-0.93274 2.98357,-1.15995z" fill="#344650"/><path d="M273.79444,366.92859c1.83704,0.08952 3.67748,0.28897 5.47686,0.66966c0.44143,0.09339 0.76453,0.47963 1.13977,0.7302c0.23531,0.15713 0.48083,0.30346 0.69133,0.49253c0.40812,0.36656 0.95093,0.66111 1.15845,1.16892c0.17116,0.41884 -0.03982,0.9076 -0.12855,1.35128c-0.11141,0.55703 -0.12781,1.18436 -0.46936,1.63828c-0.4638,0.61639 -1.237,0.92321 -1.82961,1.41705c-0.60397,0.50331 -1.39119,0.87706 -1.75786,1.57251c-0.34175,0.6482 -0.22422,1.45408 -0.22422,2.18686c0,0.67035 -0.43741,1.8907 0.22422,1.99852c2.76094,0.44991 5.57766,-0.75242 8.37075,-0.59791c0.38576,0.02134 0.31736,0.7089 0.41106,1.08371c0.28299,1.13197 0.37324,1.71945 -0.56054,2.65323c-2.11449,2.11449 -5.64946,1.41375 -8.22127,1.04634c-0.71138,-0.10163 -1.11215,-0.96817 -1.79373,-1.19582c-0.47371,-0.15822 -2.76617,0.29298 -3.17491,0.33483c-1.13151,0.11585 -2.26945,0.36699 -3.40211,0.26308c-1.0276,-0.09427 -2.78555,-1.16565 -3.58746,-1.79373c-0.49062,-0.38427 -0.92108,-0.84036 -1.36174,-1.28102c-0.35701,-0.35701 -0.95562,-0.61123 -1.0299,-1.11062c-0.42706,-2.87118 2.1508,-1.73457 3.58746,-1.19582c0.67285,0.25232 1.10406,0.99399 1.79373,1.19582c0.23966,0.07014 2.75227,-0.40602 2.98955,-0.59791c0.61031,-0.49357 0.72428,-2.47822 0.59791,-2.98955c-0.11588,-0.46889 -0.52187,-0.81391 -0.81166,-1.20031c-0.30879,-0.41172 -0.65808,-0.79148 -0.98207,-1.19134c-0.32925,-0.40635 -0.66379,-0.80882 -0.97758,-1.22721c-0.28439,-0.37919 -0.67679,-0.71139 -0.81615,-1.16443c-0.27118,-0.88155 -0.19077,-2.31023 0.59791,-2.98955c0.54517,-0.46957 1.241,-0.7571 1.92826,-0.97011c0.69467,-0.21531 1.43504,-0.33286 2.16145,-0.29746z" fill="#2f424c"/><path d="M534.61685,243.82894c1.75786,0.59791 1.75786,0.59791 3.70107,1.94321c1.64425,1.64425 1.64425,1.64425 2.50525,3.02543c0.30493,1.48282 0.35277,2.51122 0.22123,4.00002c-0.2571,1.59044 -0.58595,2.59493 -1.30942,4.07177c-0.31689,0.4305 -0.63976,0.86697 -0.96862,1.30942c-0.23319,0.35875 -0.47235,0.71749 -0.71151,1.08222c-0.35875,0.23319 -0.71749,0.47235 -1.08222,0.71151c-1.80569,0.20927 -3.04337,0.29896 -4.78329,0c-1.97908,-1.02841 -3.3782,-2.19433 -5.01049,-3.70107c-0.96862,-1.68013 -0.96862,-1.68013 -1.2018,-2.94172c-0.07175,-1.43499 -0.01196,-2.70256 0.23319,-4.1196c0.93274,-2.02094 0.93274,-2.02094 2.39164,-3.58746c2.12258,-1.21974 3.56355,-1.79373 6.01498,-1.79373z" fill="#33454f"/><path d="M157.89543,115.87605h17.33941v58.59525h-17.33941zM168.10177,116.46798c-0.53008,0.02916 -1.0605,0.05219 -1.59044,0.08371c-0.54233,0.03226 -1.084,0.07514 -1.62632,0.10762c-1.12559,0.06741 -2.63964,0.12949 -3.73545,0.21525c-0.68715,0.05378 -1.39802,-0.00037 -2.05831,0.19731c-0.27002,0.08084 -0.56476,0.31801 -0.59791,0.59791c-0.20023,1.69043 -0.05808,3.40402 -0.07773,5.10616c-0.00626,0.54207 0,1.08421 0,1.62632c0,1.77978 0.00118,3.55956 0,5.33934c-0.00641,9.67618 0.00512,19.35238 0,29.02856c-0.00155,2.93375 0,5.8675 0,8.80125c0,0.5162 -0.01384,1.03245 -0.00598,1.54859c0.01805,1.18605 -0.1083,2.38703 0.08371,3.55757c0.04562,0.27814 0.31806,0.56433 0.59791,0.59791c2.47659,0.29719 4.98246,0.24978 7.47388,0.3707c1.38871,0.0674 2.77819,0.11816 4.16744,0.17339c0.10295,0.00409 2.9629,0.15921 3.30645,0.05381c0.26946,-0.08267 0.5657,-0.3179 0.59791,-0.59791c0.0681,-0.59205 0.06724,-5.07794 0.06577,-6.81618c-0.00821,-9.68416 -0.02227,-19.36833 -0.03587,-29.05248c-0.00924,-6.57901 0.45862,-13.17618 -0.0299,-19.73703c-0.0388,-0.52112 -0.98249,-0.35681 -1.47852,-0.52121c-0.83176,-0.27568 -1.20228,-0.36969 -2.06466,-0.52224c-0.51139,-0.09046 -2.5076,-0.185 -2.99198,-0.15835z" fill="#fcfbf9"/><path d="M85.54824,320.36151h14.34986v0.59791c-4.12558,0.82512 -8.35879,0.93274 -12.55612,1.19582v59.19316c0.89089,-0.29896 0.89089,-0.29896 1.79373,-0.59791l2.39164,0.59791l1.79373,-5.3812h0.59791l-0.59791,7.17493h-7.77284z" fill="#dee8e7"/><path d="M269.10682,236.65401c0.86529,-0.17688 1.76566,-0.05243 2.64874,-0.06577c0.40902,-0.00618 3.21671,0.00489 3.55757,0.00598c2.16889,0.00693 6.70569,0.02112 7.88046,0.02392c1.35128,0.00322 2.70256,0.00252 4.05383,0.00598c3.3204,0.0085 6.76874,-0.88301 9.96119,0.0299c0.97709,0.27941 0.59791,1.9733 0.59791,2.98955c0,0.28186 -0.32203,0.54018 -0.59791,0.59791c-0.85872,0.17969 -1.75365,0.06074 -2.63081,0.07773c-0.79141,0.01532 -2.77638,0 -3.53365,0c-1.9412,0 -3.88245,0 -5.82365,0c-2.01695,0 -4.0339,0.00598 -6.05086,0.00598c-1.27355,0 -2.5471,-0.00598 -3.82065,-0.00598c-1.17788,0 -2.35577,0.0022 -3.53365,0c-0.27393,-0.00051 -2.31625,0.03254 -2.70854,-0.07773c-0.42903,-0.1206 -1.10842,-0.16091 -1.19582,-0.59791c-0.16116,-0.80579 0.29272,-1.62867 0.59791,-2.39164c0.10468,-0.2617 0.32176,-0.54146 0.59791,-0.59791z" fill="#2e404b"/><path d="M317.53759,162.51308c1.94321,-0.22721 1.94321,-0.22721 4.18537,0c1.75786,1.26757 1.75786,1.26757 2.98955,2.98955c0.29896,1.79373 0.29896,1.79373 0,3.58746c-0.74739,1.64425 -0.74739,1.64425 -1.79373,2.98955c-0.53812,0.40658 -0.53812,0.40658 -1.08222,0.82512c-1.30942,0.3707 -1.30942,0.3707 -3.13903,0.29896l-1.75786,-0.52616c-0.3707,-0.32287 -0.74141,-0.63976 -1.12407,-0.96862c-0.66966,-1.42303 -0.66966,-1.42303 -0.89687,-3.47984c0.07773,-0.69956 0.14948,-1.40509 0.22721,-2.12856c0.69358,-1.38117 1.29747,-2.49329 2.39164,-3.58746z" fill="#fbfaf7"/><path d="M531.58962,246.81849c0.72347,-0.20329 0.72347,-0.20329 1.4589,-0.41256c0.50224,0.13752 1.01047,0.27504 1.53065,0.41256c1.32736,1.23768 2.14052,2.04485 2.98955,3.58746c0.29896,1.86548 0.29896,1.86548 0,3.58746c-0.20927,0.46637 -0.41854,0.93872 -0.63379,1.42303c-0.38266,0.31689 -0.76533,0.63976 -1.15995,0.96862c-2.05681,0.29896 -2.05681,0.29896 -4.18537,0c-0.47833,-0.31091 -0.96264,-0.61585 -1.4589,-0.93274c-0.30493,-0.48431 -0.61585,-0.96264 -0.93274,-1.4589c-0.29896,-2.05681 -0.29896,-2.05681 0,-4.18537c1.01047,-1.75786 1.01047,-1.75786 2.39164,-2.98955z" fill="#fafaf7"/><path d="M303.78565,380.15258c4.30496,1.27355 8.12561,3.03141 11.95821,5.3812l1.19582,1.19582c-0.22721,1.26757 -0.22721,1.26757 -0.59791,2.39164c-1.90136,-0.16741 -3.58149,-0.35875 -5.36326,-1.0583c-1.19582,-0.57399 -2.36175,-1.18386 -3.53365,-1.81765c-0.4006,-0.20927 -0.80718,-0.41256 -1.21974,-0.62183c-1.16593,-0.62183 -1.16593,-0.62183 -3.03739,-1.88342c-0.49029,-1.2018 -0.49029,-1.2018 -0.59791,-2.39164z" fill="#30434d"/><path d="M257.14861,357.43197c3.31243,0.1435 6.69062,0.64574 9.85357,1.68013c0.92078,0.39462 1.81765,0.84305 2.70256,1.30942l-0.59791,2.39164c-4.59195,0.12556 -8.70558,0.01196 -13.15404,-1.19582l-0.59791,-2.98955z" fill="#30424d"/><path d="M132.78318,102.72201h0.59791v71.15137h-14.94777v-0.59791l13.15404,-0.59791l0.59791,-1.19582c0.05979,-0.9148 0.08969,-1.83559 0.09567,-2.75637c0.00598,-0.86697 0.00598,-0.86697 0.01794,-1.75786c0,-0.63976 0.00598,-1.27355 0.01196,-1.93125c0.00598,-1.01047 0.00598,-1.01047 0.01794,-2.0329c0.01794,-2.23021 0.0299,-4.45443 0.04783,-6.67866l0.03587,-4.62185c0.0299,-3.64128 0.05381,-7.28853 0.08371,-10.92981c0.0299,-4.1495 0.05979,-8.299 0.09567,-12.4485c0.06577,-8.53219 0.13154,-17.07035 0.19133,-25.60254z" fill="#fdfdfa"/><path d="M283.45668,360.42153c0.98057,-0.01196 1.96115,0.02392 2.93574,0.07175c0.88491,0.04185 0.88491,0.04185 1.79373,0.08969c0.93274,0.04783 0.93274,0.04783 1.88342,0.10164l1.89538,0.09567c1.54859,0.07773 3.09718,0.15546 4.64577,0.23916v2.39164l-1.19582,1.19582c-1.14799,0.15546 -1.14799,0.15546 -2.54112,0.16144h-1.51271c-0.52616,0 -1.05232,-0.00598 -1.59044,-0.01196c-0.52018,0.00598 -1.04036,0.01196 -1.57848,0.01196h-1.51869c-0.46039,-0.00598 -0.92078,-0.00598 -1.39313,-0.00598c-0.60389,-0.07773 -0.60389,-0.07773 -1.22572,-0.15546l-1.79373,-1.19582c0.17937,-0.8012 0.38266,-1.59642 0.59791,-2.39164z" fill="#2f424c"/><path d="M305.57938,374.77138c3.08522,-0.19731 5.62036,-0.04185 8.59796,0.82512c1.80569,0.56802 2.95368,1.09418 4.55608,2.16444l-0.59791,2.39164c-3.12707,0.13154 -5.64428,-0.287 -8.63383,-1.19582c-0.73543,-0.22123 -1.47684,-0.44245 -2.23619,-0.66966c-0.83707,-0.26308 -0.83707,-0.26308 -1.68611,-0.52616c-0.33483,-1.15995 -0.33483,-1.15995 -0.59791,-2.39164z" fill="#31434e"/><path d="M116.6396,232.46864l1.79373,2.39164l-0.59791,0.59791c-0.05979,0.92676 -0.07773,1.85352 -0.07773,2.78028c0,0.59193 -0.00598,1.18386 -0.00598,1.79971c0,0.64574 0.00598,1.29747 0.00598,1.96713c0,0.66368 0,1.33334 -0.00598,2.02094c0,1.42303 0.00598,2.84605 0.00598,4.26908c0,2.1465 0,4.293 -0.00598,6.44548c0,6.94772 0.04783,13.85359 0.68162,20.7774c1.72198,0.57399 2.79822,0.66966 4.58598,0.6577c0.53214,-0.00598 1.06428,-0.00598 1.61436,-0.00598l1.68611,-0.01794c0.56204,0 1.12407,-0.00598 1.70405,-0.00598c1.38715,-0.00598 2.77431,-0.01794 4.16146,-0.0299l-1.19582,1.19582l-14.34986,0.59791z" fill="#fdfdfb"/><path d="M101.09392,320.36151v44.8433h-0.59791l-0.01794,-1.44694c-0.05979,-4.51423 -0.11958,-9.02845 -0.18535,-13.5367c-0.0299,-2.31989 -0.06577,-4.63979 -0.09567,-6.95968l-0.08969,-6.72052l-0.03587,-2.55906c-0.01196,-1.2018 -0.0299,-2.39762 -0.04783,-3.59942c-0.01196,-0.68162 -0.02392,-1.36324 -0.0299,-2.06279c-0.10164,-2.09867 -0.29298,-4.10167 -0.69358,-6.16446c-1.15995,-0.90285 -1.15995,-0.90285 -2.39164,-1.19582c2.84008,-0.59791 2.84008,-0.59791 4.18537,-0.59791z" fill="#dfe0dd"/><path d="M175.83276,199.58355c10.08077,-0.13154 10.08077,-0.13154 14.94777,0.59791l1.19582,0.59791l-0.59791,4.78329h-0.59791l-0.59791,-3.58746c-1.40509,-0.20329 -2.81616,-0.4006 -4.22125,-0.59791c-0.39462,-0.05979 -0.78924,-0.1136 -1.18984,-0.17339c-2.64874,-0.36473 -5.02843,-0.42452 -7.74294,-0.42452l-2.39164,12.55612h-0.59791c0.28102,-4.67566 0.72945,-9.18391 1.79373,-13.75195z" fill="#99bbbe"/><path d="M117.23751,266.54955h0.59791l0.59791,8.96866c1.72198,0.57399 2.79822,0.66966 4.58598,0.6577c0.53214,-0.00598 1.06428,-0.00598 1.61436,-0.00598l1.68611,-0.01794c0.56204,0 1.12407,-0.00598 1.70405,-0.00598c1.38715,-0.00598 2.77431,-0.01794 4.16146,-0.0299l-1.19582,1.19582c-1.45292,0.19133 -1.45292,0.19133 -3.25861,0.24514l-1.94919,0.07175c-1.01047,0.0299 -1.01047,0.0299 -2.03888,0.05381l-2.06279,0.07175c-1.68013,0.05979 -3.36026,0.10762 -5.04039,0.15546l-0.01794,-3.42603c-0.00598,-0.63976 -0.00598,-1.27355 -0.01196,-1.93125c0.03587,-2.06279 0.2571,-3.97611 0.62781,-6.00302z" fill="#f8f7f4"/><path d="M84.35242,479.40576c1.79373,-0.07175 1.79373,-0.07175 3.58746,0l0.59791,0.59791c0.07175,1.79373 0.07175,1.79373 0,3.58746l-0.59791,0.59791c-1.79373,0.07175 -1.79373,0.07175 -3.58746,0l-0.59791,-0.59791c-0.07175,-1.79373 -0.07175,-1.79373 0,-3.58746z" fill="#2e414c"/><path d="M270.90056,107.5053c1.53065,0.18535 1.53065,0.18535 2.98955,0.59791l0.59791,0.59791c0.1136,1.4589 0.1136,1.4589 0,2.98955l-1.19582,1.19582c-1.53065,-0.18535 -1.53065,-0.18535 -2.98955,-0.59791l-0.59791,-0.59791c-0.1136,-1.4589 -0.1136,-1.4589 0,-2.98955z" fill="#31444e"/><path d="M434.13018,92.55753c1.39911,0.17339 2.79224,0.3707 4.18537,0.59791c-0.1136,1.42303 -0.1136,1.42303 -0.59791,2.98955c-1.4589,0.82512 -1.4589,0.82512 -2.98955,1.19582l-1.19582,-0.59791c-0.02392,-1.19582 -0.02392,-2.39164 0,-3.58746z" fill="#f9f9f7"/><path d="M162.67872,276.11612c0.35277,0.287 0.70553,0.57399 1.07026,0.87295c1.79373,0.98057 1.79373,0.98057 3.40211,1.12407c1.75786,0.10762 3.51571,0.16741 5.27955,0.20927l1.8595,0.05979c1.51271,0.04783 3.01945,0.08969 4.53216,0.12556v1.19582c-5.40511,0.10164 -10.75641,-0.22123 -16.14359,-0.59791z" fill="#9bbec1"/><path d="M129.79363,218.11878c1.53663,0.06577 2.72049,0.17339 4.18537,0.59791c1.8894,1.07026 3.64128,2.29598 5.3812,3.58746l-0.59791,1.19582c-0.52018,-0.36473 -0.52018,-0.36473 -1.05232,-0.74141c-2.12258,-1.46488 -4.04188,-2.73245 -6.45744,-3.67117c-0.48431,-0.11958 -0.96264,-0.24514 -1.4589,-0.3707z" fill="#f6f6f4"/><path d="M96.90854,366.99854h1.19582c-0.79522,2.1465 -1.76982,4.0359 -2.98955,5.97911l-0.59791,-1.19582c-0.02392,-0.99851 -0.02392,-1.99104 0,-2.98955l1.79373,-0.59791z" fill="#fdfcf9"/><path d="M193.77008,213.9334l1.19582,1.19582c-0.14948,2.12856 -0.14948,2.12856 -0.59791,4.18537c-0.59193,0.29896 -0.59193,0.29896 -1.19582,0.59791z" fill="#e5e9e8"/></g></g></svg>