<?xml version="1.0" encoding="UTF-8"?>
<!-- Generator: visioncortex VTracer 0.6.4 -->
<svg version="1.1" xmlns="http://www.w3.org/2000/svg" width="1024" height="1024">
<path d="M0 0 C337.92 0 675.84 0 1024 0 C1024 337.92 1024 675.84 1024 1024 C686.08 1024 348.16 1024 0 1024 C0 686.08 0 348.16 0 0 Z " fill="#FEFCF7" transform="translate(0,0)"/>
<path d="M0 0 C1.99 -0.25 1.99 -0.25 4.49 -0.25 C5.92 -0.26 5.92 -0.26 7.37 -0.26 C8.95 -0.26 8.95 -0.26 10.56 -0.25 C11.67 -0.25 12.78 -0.25 13.93 -0.25 C17.68 -0.26 21.43 -0.25 25.18 -0.24 C27.86 -0.24 30.54 -0.25 33.22 -0.25 C39.75 -0.25 46.28 -0.25 52.82 -0.24 C60.42 -0.23 68.02 -0.23 75.63 -0.23 C89.19 -0.23 102.75 -0.22 116.31 -0.21 C129.48 -0.19 142.65 -0.18 155.82 -0.19 C157.04 -0.19 157.04 -0.19 158.28 -0.19 C159.09 -0.19 159.9 -0.19 160.74 -0.19 C175.71 -0.19 190.69 -0.18 205.67 -0.17 C210.97 -0.17 216.28 -0.17 221.58 -0.17 C228.04 -0.17 234.5 -0.16 240.96 -0.15 C244.26 -0.15 247.56 -0.15 250.86 -0.15 C254.43 -0.15 258 -0.14 261.57 -0.13 C262.62 -0.14 263.68 -0.14 264.76 -0.14 C266.18 -0.13 266.18 -0.13 267.63 -0.13 C268.46 -0.13 269.28 -0.13 270.13 -0.13 C270.75 -0.08 271.37 -0.04 272 0 C272.33 0.33 272.66 0.66 273 1 C273.1 2.81 273.12 4.62 273.12 6.43 C273.13 7.62 273.13 8.81 273.13 10.03 C273.13 11.36 273.12 12.69 273.12 14.03 C273.12 15.43 273.12 16.83 273.12 18.24 C273.13 22.11 273.12 25.99 273.12 29.86 C273.11 34.03 273.11 38.2 273.11 42.37 C273.11 49.61 273.11 56.84 273.11 64.07 C273.1 74.53 273.1 84.99 273.09 95.44 C273.09 112.41 273.08 129.37 273.08 146.34 C273.07 162.82 273.06 179.31 273.05 195.79 C273.05 197.31 273.05 197.31 273.05 198.87 C273.05 203.96 273.05 209.05 273.05 214.15 C273.04 256.43 273.02 298.72 273 341 C273.77 341 274.54 341 275.33 341 C320.95 340.95 366.57 340.92 412.19 340.9 C417.67 340.9 423.16 340.89 428.65 340.89 C429.74 340.89 430.83 340.89 431.95 340.89 C449.6 340.88 467.25 340.86 484.9 340.85 C503.03 340.83 521.16 340.82 539.29 340.81 C550.46 340.81 561.64 340.8 572.81 340.78 C580.49 340.77 588.16 340.77 595.84 340.77 C600.26 340.77 604.68 340.77 609.1 340.76 C636.38 340.7 663.29 340.83 689.31 350.14 C702.87 355.31 714.97 362.63 726 372 C726.87 372.71 727.74 373.41 728.63 374.14 C737.85 381.94 745.29 391.56 751.31 402 C757.64 413.61 762 425.18 765 438 C765.16 438.66 765.32 439.33 765.49 440.01 C766.75 445.33 767.46 450.52 767.85 455.97 C767.92 456.78 767.98 457.59 768.04 458.42 C768.24 460.97 768.43 463.52 768.62 466.06 C768.76 467.8 768.9 469.55 769.03 471.29 C769.36 475.52 769.68 479.76 770 484 C770.61 483.93 771.21 483.86 771.84 483.79 C782.86 482.59 794.71 481.8 805.69 483.75 C810.38 484.95 814.8 486.57 819 489 C823.76 492.33 827.36 496.24 830.75 500.94 C834.81 507.05 837.81 512.65 839.56 519.81 C841.08 527.39 840.53 535.77 839.43 543.41 C838.68 548.07 837.75 552.69 836.82 557.31 C836.48 559.04 836.15 560.76 835.81 562.49 C835.11 566.12 834.4 569.75 833.68 573.38 C832.55 579.06 831.44 584.74 830.34 590.42 C829.24 596.08 828.14 601.75 827.03 607.41 C824.42 620.76 821.9 634.13 819.47 647.52 C818.94 650.4 818.42 653.28 817.89 656.16 C816.43 664.13 814.98 672.1 813.56 680.08 C812.94 683.52 812.32 686.96 811.69 690.4 C811.4 691.97 811.12 693.53 810.85 695.1 C809.26 704.22 807.18 712.68 803 721 C799.01 727.67 794.01 734.04 788 739 C781.98 743.44 775.84 746.89 768.73 749.22 C758.44 752.15 748.61 752.22 738 752 C738.23 752.86 738.46 753.73 738.7 754.62 C741.48 765.37 743.7 776.2 745.83 787.09 C746.95 792.8 748.19 798.47 749.52 804.13 C750 807 750 807 750 814 C771.78 814 793.56 814 816 814 C816.33 815.65 816.66 817.3 817 819 C816.67 819.33 816.34 819.66 816 820 C814.04 820.09 812.07 820.12 810.1 820.11 C808.84 820.11 807.58 820.11 806.28 820.11 C804.89 820.11 803.51 820.1 802.12 820.1 C800.71 820.1 799.3 820.09 797.89 820.09 C794.17 820.09 790.45 820.08 786.73 820.07 C782.93 820.06 779.14 820.05 775.35 820.05 C767.9 820.04 760.45 820.02 753 820 C753.02 820.83 753.04 821.66 753.06 822.52 C753.07 823.6 753.09 824.69 753.1 825.8 C753.12 826.88 753.14 827.96 753.16 829.07 C753.11 830.04 753.05 831 753 832 C752.46 833.03 751.93 834.06 751.38 835.12 C749 837 749 837 746.39 838.09 C742.32 839.18 738.63 839.37 734.44 839.38 C733.7 839.4 732.95 839.42 732.19 839.45 C731.47 839.45 730.74 839.46 730 839.46 C729.35 839.47 728.7 839.48 728.03 839.49 C727.36 839.33 726.69 839.17 726 839 C724.35 837.68 722.7 836.36 721 835 C719.02 830.38 717.04 825.76 715 821 C540.1 821 365.2 821 185 821 C183.02 825.62 181.04 830.24 179 835 C178.05 835.95 177.1 836.9 176.12 837.88 C173.47 838.97 171.09 839.08 168.21 839.32 C164.07 839.47 160.12 839.47 156 839 C152.69 837.72 152.69 837.72 150 836 C148.14 834.13 148.14 834.13 147 832 C146.67 829.49 146.67 829.49 146.75 826.88 C146.77 826.01 146.78 825.14 146.8 824.24 C146.86 823.5 146.93 822.76 147 822 C147.33 821.34 147.66 820.68 148 820 C90.58 820 33.16 820 -26 820 C-26.33 818.35 -26.66 816.7 -27 815 C-26.67 814.67 -26.34 814.34 -26 814 C-23.73 813.9 -21.47 813.88 -19.2 813.88 C-18.48 813.88 -17.76 813.88 -17.02 813.88 C-14.59 813.88 -12.16 813.88 -9.73 813.89 C-8 813.89 -6.26 813.89 -4.53 813.89 C0.2 813.89 4.92 813.89 9.64 813.9 C14.57 813.9 19.5 813.91 24.43 813.91 C33.77 813.91 43.12 813.92 52.46 813.93 C63.09 813.94 73.73 813.94 84.36 813.95 C106.24 813.96 128.12 813.98 150 814 C150.14 813.06 150.28 812.12 150.42 811.15 C150.94 807.61 151.46 804.07 151.99 800.53 C152.22 799.01 152.44 797.49 152.67 795.97 C154.87 780.9 158.05 766.42 163 752 C161.76 752.02 160.51 752.05 159.23 752.07 C139.95 752.33 139.95 752.33 133 750 C125.14 746.87 117.82 743.11 111.44 737.5 C109.94 736.02 108.46 734.52 107 733 C106.37 732.39 105.74 731.78 105.09 731.14 C100.63 726.55 97.26 721.22 94.62 715.4 C91.39 707.35 90.24 698.59 88.75 690.08 C87.8 684.78 86.71 679.51 85.64 674.23 C83.31 662.63 81.09 651.01 78.92 639.37 C75.22 619.59 71.44 599.82 67.56 580.06 C67.35 578.99 67.14 577.93 66.93 576.83 C66.33 573.77 65.73 570.71 65.13 567.66 C64.94 566.72 64.76 565.77 64.57 564.8 C63.31 558.45 61.96 552.13 60.51 545.83 C59.73 541.49 59.8 537.39 60 533 C56.37 533.33 52.74 533.66 49 534 C33.82 534 18.64 534 3 534 C3 605.28 3 676.56 3 750 C1.68 750.33 0.36 750.66 -1 751 C-1.66 750.34 -2.32 749.68 -3 749 C-3.25 747.04 -3.25 747.04 -3.25 744.57 C-3.25 743.64 -3.26 742.7 -3.26 741.73 C-3.26 740.69 -3.25 739.65 -3.25 738.58 C-3.25 737.48 -3.25 736.37 -3.26 735.24 C-3.26 731.5 -3.26 727.76 -3.25 724.02 C-3.25 721.33 -3.25 718.64 -3.25 715.95 C-3.26 710.07 -3.26 704.2 -3.25 698.32 C-3.24 689.58 -3.24 680.84 -3.25 672.09 C-3.25 657.37 -3.25 642.65 -3.24 627.92 C-3.23 613.29 -3.23 598.65 -3.23 584.01 C-3.23 583.1 -3.23 582.19 -3.23 581.25 C-3.23 577.55 -3.23 573.85 -3.23 570.15 C-3.23 535.35 -3.22 500.56 -3.2 465.77 C-3.19 435.03 -3.18 404.29 -3.19 373.55 C-3.19 371.58 -3.19 369.62 -3.19 367.66 C-3.19 366.2 -3.19 366.2 -3.19 364.72 C-3.19 359.83 -3.19 354.94 -3.19 350.06 C-3.19 349.09 -3.19 348.13 -3.19 347.13 C-3.19 321.33 -3.18 295.52 -3.18 269.72 C-3.18 268.79 -3.17 267.87 -3.17 266.92 C-3.17 263.21 -3.17 259.5 -3.17 255.79 C-3.17 243.03 -3.17 230.28 -3.17 217.53 C-3.16 83.52 -3.16 83.52 -2.64 35.62 C-2.61 33.07 -2.59 30.51 -2.57 27.96 C-2.53 24.16 -2.49 20.36 -2.44 16.55 C-2.41 14.59 -2.39 12.62 -2.37 10.66 C-2.36 9.53 -2.34 8.39 -2.32 7.23 C-2.3 6.25 -2.29 5.28 -2.28 4.28 C-2.19 3.53 -2.09 2.78 -2 2 C-1.34 1.34 -0.68 0.68 0 0 Z " fill="#31434E" transform="translate(121,92)"/>
<path d="M0 0 C1.68 -0 3.35 -0.01 5.03 -0.02 C9.58 -0.03 14.13 -0.02 18.69 -0.01 C23.62 0 28.55 -0.01 33.48 -0.02 C43.11 -0.03 52.75 -0.02 62.39 -0.01 C73.63 0.01 84.87 0.01 96.11 0 C116.19 -0 136.26 0.01 156.33 0.03 C175.77 0.06 195.2 0.07 214.64 0.06 C235.85 0.04 257.06 0.04 278.27 0.06 C280.53 0.06 282.8 0.06 285.06 0.06 C286.73 0.06 286.73 0.06 288.44 0.06 C296.26 0.07 304.08 0.07 311.9 0.06 C321.44 0.06 330.99 0.06 340.53 0.08 C345.39 0.09 350.25 0.1 355.11 0.09 C359.58 0.08 364.04 0.09 368.5 0.11 C370.1 0.11 371.7 0.11 373.31 0.1 C389.12 0.04 404.64 1.91 419.66 7.07 C433.11 11.94 446.14 17.95 457.37 26.96 C461.28 30.29 464.95 33.84 468.55 37.5 C469.8 38.75 469.8 38.75 471.07 40.03 C479.8 49.22 485.93 60.22 491.02 71.76 C498.57 89.7 500.16 109.39 501.41 128.61 C501.62 132.91 501.62 137.2 501.55 141.5 C500.55 141.84 500.55 141.84 499.53 142.18 C495.57 143.56 492.18 145.05 488.76 147.51 C487.05 148.92 485.35 150.34 483.68 151.79 C482.63 152.64 482.63 152.64 481.55 153.5 C480.56 153.83 479.57 154.16 478.55 154.5 C478.55 155.16 478.55 155.82 478.55 156.5 C477.89 156.5 477.23 156.5 476.55 156.5 C477.49 148.65 478.84 140.97 480.48 133.23 C482.34 124.43 484.12 115.97 484.02 106.95 C483.65 104.42 483.65 104.42 482.32 101.99 C481.44 100.76 481.44 100.76 480.55 99.5 C477.12 97.44 473.42 96.46 469.55 95.5 C464.71 94.76 459.88 94.42 455 94.12 C453.59 94.03 452.19 93.93 450.78 93.83 C447.04 93.57 443.3 93.32 439.56 93.09 C435.66 92.84 431.77 92.57 427.88 92.31 C421.66 91.88 415.44 91.47 409.23 91.07 C401.66 90.58 394.1 90.05 386.54 89.52 C383.5 89.3 380.46 89.09 377.42 88.88 C375.59 88.76 373.76 88.63 371.93 88.5 C362.18 87.81 352.45 87.36 342.67 87.24 C341.75 87.22 340.83 87.2 339.88 87.18 C337.4 87.17 335.01 87.22 332.55 87.5 C329.1 88.67 329.1 88.67 326.55 90.5 C323 95.31 321.25 100.64 319.56 106.34 C317.92 112.67 316.96 119.17 315.94 125.63 C315.79 126.59 315.64 127.55 315.48 128.54 C315.28 129.83 315.28 129.83 315.08 131.14 C314.55 133.52 313.73 135.38 312.55 137.5 C311.13 137.38 309.72 137.25 308.3 137.13 C307.32 137.04 306.34 136.95 305.33 136.86 C302.64 136.61 299.96 136.33 297.27 136.02 C284.87 134.63 272.59 134.06 260.11 134.06 C259.16 134.06 258.21 134.06 257.23 134.06 C240.46 134.07 224.94 135.89 208.55 139.5 C205.56 140.11 202.58 140.7 199.58 141.28 C197.86 141.62 196.14 141.97 194.42 142.33 C190.31 143.17 186.46 143.58 182.27 143.54 C181.38 143.54 180.49 143.53 179.58 143.53 C178.91 143.52 178.24 143.51 177.55 143.5 C177.54 142.9 177.53 142.29 177.53 141.67 C177.44 135.29 177.34 128.91 177.23 122.54 C177.19 120.16 177.16 117.79 177.13 115.42 C177.13 96.35 177.13 96.35 174.55 77.5 C173.78 75.22 173.78 75.22 172.55 73.5 C169.78 72.38 169.78 72.38 167.66 72.29 C165.07 72.55 163.17 73.29 160.8 74.38 C152.77 78.77 145.86 84.92 139.55 91.5 C138.78 92.54 138.78 92.54 137.99 93.59 C136.55 95.44 136.55 95.44 134.71 97.25 C133.64 97.87 133.64 97.87 132.55 98.5 C129.41 98.54 126.73 97.92 123.67 97.19 C120.38 96.49 117.44 96.54 114.09 96.75 C109.06 97.01 104.21 97.13 99.22 96.38 C96.55 95.5 96.55 95.5 94.29 93.86 C90.16 89.62 87.04 84.74 83.96 79.72 C82.03 76.69 79.85 74.15 77.42 71.5 C76.76 70.76 76.1 70.02 75.42 69.25 C73.63 67.45 73.63 67.45 71.53 66.27 C69.36 65.33 69.36 65.33 66.05 65.13 C64.89 65.25 63.74 65.37 62.55 65.5 C60.36 67.01 60.36 67.01 58.55 69.5 C57.4 72.18 56.44 74.72 55.57 77.49 C55.31 78.28 55.06 79.07 54.8 79.88 C51.94 89.03 50.02 98.34 48.24 107.75 C48.06 108.64 47.89 109.53 47.71 110.45 C45.13 123.82 43.3 136.84 43.55 150.5 C38.6 150.5 33.65 150.5 28.55 150.5 C28.88 151.49 29.21 152.48 29.55 153.5 C31.71 154.46 31.71 154.46 34.3 155.06 C35.2 155.31 36.1 155.56 37.03 155.82 C37.86 156.05 38.69 156.27 39.55 156.5 C42.61 157.44 42.61 157.44 44.55 158.5 C45.36 160.63 45.36 160.63 45.55 162.5 C39.63 164.34 33.66 165.46 27.55 166.5 C27.55 167.82 27.55 169.14 27.55 170.5 C28.42 170.44 28.42 170.44 29.31 170.37 C31.95 170.21 34.59 170.1 37.24 170 C38.15 169.93 39.06 169.87 40 169.8 C42.73 169.72 44.92 169.76 47.55 170.5 C49.9 172.87 51.15 175.5 52.55 178.5 C53.11 179.25 53.66 179.99 54.24 180.76 C55.82 183.01 56.79 184.84 57.55 187.5 C57.25 192.41 56.14 196.85 54.55 201.5 C52.67 205 52.67 205 50.55 207.5 C49.87 208.47 49.19 209.44 48.49 210.44 C45.37 214.06 41.54 216.51 37.48 218.96 C31.67 222.02 25.9 223.21 19.44 224.08 C10.58 225.17 1.72 225.67 -7.2 226 C-21.16 226.52 -35.67 227.45 -48.86 232.41 C-52.27 233.99 -54.58 235.62 -57.39 238.19 C-58.07 238.95 -58.75 239.71 -59.45 240.5 C-59.78 240.83 -60.11 241.16 -60.45 241.5 C-60.68 243.53 -60.9 245.56 -61.07 247.59 C-61.2 248.22 -61.32 248.85 -61.45 249.5 C-62.11 250.16 -62.77 250.82 -63.45 251.5 C-66.3 251.73 -69.09 251.87 -71.95 251.94 C-77.92 252.19 -83.55 252.47 -89.22 254.51 C-94.56 256.89 -99.31 259.54 -103.65 263.51 C-108.03 268.16 -111.46 273.23 -114.38 278.91 C-115.35 281.26 -115.89 283.04 -116.01 285.56 C-115.73 287.02 -115.73 287.02 -115.45 288.5 C-114.46 289.16 -113.47 289.82 -112.45 290.5 C-110.06 291.03 -110.06 291.03 -107.3 291.33 C-105.62 291.53 -105.62 291.53 -103.91 291.74 C-102.65 291.89 -101.38 292.04 -100.08 292.19 C-98.69 292.36 -97.31 292.52 -95.93 292.69 C-86.1 293.88 -76.25 294.97 -66.41 296.07 C-61.23 296.65 -56.06 297.23 -50.89 297.81 C-50.23 297.89 -49.57 297.96 -48.89 298.04 C-29.01 300.28 -9.22 302.88 10.55 305.93 C24.82 308.13 39.11 310.1 53.42 311.94 C54.94 312.14 54.94 312.14 56.48 312.34 C59.33 312.71 62.19 313.07 65.04 313.43 C65.87 313.54 66.71 313.65 67.56 313.77 C75.54 314.77 75.54 314.77 83.55 314.5 C86.3 313.65 88.74 312.43 91.27 311.06 C91.97 310.71 92.67 310.35 93.39 309.98 C95.62 308.84 97.84 307.67 100.05 306.5 C102.23 305.37 104.41 304.25 106.59 303.12 C108.04 302.38 109.49 301.62 110.93 300.87 C114.71 298.9 118.5 297.05 122.4 295.33 C123.18 294.98 123.97 294.63 124.78 294.27 C126.28 293.61 127.79 292.96 129.31 292.33 C131.6 291.36 131.6 291.36 134.55 289.5 C135.64 286.89 135.64 286.89 135.55 284.5 C132.17 284.73 129.39 285.15 126.25 286.44 C123.61 287.72 121.01 289.06 118.41 290.41 C116.43 291.41 114.45 292.41 112.48 293.41 C109.39 294.98 106.3 296.56 103.22 298.16 C100.23 299.7 97.23 301.21 94.22 302.72 C93.32 303.2 92.41 303.68 91.48 304.17 C87.98 305.92 84.82 307.33 80.92 307.85 C73.58 307.97 66.23 306.92 58.96 306.01 C57.7 305.85 56.44 305.7 55.15 305.54 C52.5 305.22 49.86 304.89 47.21 304.57 C43.84 304.14 40.46 303.73 37.08 303.32 C33.83 302.93 30.58 302.53 27.34 302.13 C25.53 301.91 25.53 301.91 23.68 301.68 C22.55 301.54 21.43 301.4 20.27 301.26 C19.28 301.14 18.3 301.01 17.28 300.89 C14.68 300.52 12.12 300.04 9.55 299.5 C13.27 296.39 17.47 294.43 21.8 292.31 C22.92 291.76 22.92 291.76 24.06 291.2 C25.89 290.3 27.72 289.4 29.55 288.5 C29.55 287.51 29.55 286.52 29.55 285.5 C26.88 285.18 26.88 285.18 23.55 285.5 C20.82 286.51 18.3 287.87 15.74 289.25 C14.31 289.99 12.88 290.72 11.46 291.45 C9.26 292.6 7.08 293.76 4.89 294.92 C2.13 296.31 -0.41 297.38 -3.5 297.74 C-13.82 297.82 -24.02 296.23 -34.24 294.91 C-36.34 294.64 -38.45 294.38 -40.56 294.11 C-44.96 293.55 -49.36 292.99 -53.76 292.43 C-59.4 291.7 -65.05 290.99 -70.7 290.28 C-75.04 289.73 -79.39 289.18 -83.73 288.62 C-85.81 288.36 -87.9 288.09 -89.98 287.83 C-92.88 287.46 -95.78 287.09 -98.68 286.72 C-99.54 286.61 -100.4 286.5 -101.29 286.39 C-107.22 285.62 -107.22 285.62 -109.45 284.5 C-109.17 282.34 -109.17 282.34 -108.45 279.5 C-105.71 274.81 -102.43 270.46 -98.56 266.63 C-94.15 263.07 -89.14 260.49 -83.88 258.41 C-78.55 257 -73.51 257.04 -68.02 257.13 C-64.45 257.5 -64.45 257.5 -61.62 258.34 C-60.91 258.73 -60.19 259.11 -59.45 259.5 C-58.31 260.96 -58.31 260.96 -57.14 262.44 C-55.89 264.06 -55.89 264.06 -54.45 265.5 C-51.48 267.15 -49.7 267.9 -46.45 268.5 C-38.97 269.18 -31.9 268.63 -24.52 267.42 C-6.62 264.5 11.48 265.23 29.55 265.5 C29.53 266.33 29.51 267.15 29.5 268 C29.48 269.09 29.47 270.17 29.45 271.28 C29.43 272.36 29.42 273.43 29.4 274.53 C29.45 275.51 29.5 276.49 29.55 277.5 C30.07 278.66 30.58 279.81 31.11 281 C33.43 283.37 35.66 285.07 38.57 286.66 C40.8 287.71 40.8 287.71 44.45 288.06 C45.94 288.08 47.44 288.08 48.93 288.05 C49.78 288.04 50.62 288.03 51.49 288.02 C64.86 287.62 78.12 285.21 91.3 283.1 C94.23 282.63 97.16 282.19 100.09 281.74 C102.96 281.3 105.83 280.85 108.7 280.4 C110.69 280.09 112.69 279.78 114.68 279.48 C122.84 278.16 130.81 276.47 138.55 273.5 C140.85 272.16 140.85 272.16 142.75 270.77 C144.63 269.5 144.63 269.5 146.55 268.5 C149.83 267.89 152.98 267.98 156.3 268.13 C157.7 268.16 157.7 268.16 159.13 268.19 C162.27 268.27 165.41 268.38 168.55 268.5 C170.98 268.57 173.4 268.64 175.83 268.71 C182.74 268.92 189.64 269.16 196.55 269.5 C197.59 269.53 198.62 269.56 199.69 269.59 C202.39 269.72 204.91 269.91 207.55 270.5 C208.35 271.21 209.15 271.92 209.98 272.65 C210.46 273.53 210.93 274.41 211.42 275.31 C213.25 278.35 214.59 280.54 217.17 283 C219.62 284.55 221.79 285.63 224.55 286.5 C229.58 287.55 234.42 287.65 239.53 287.63 C240.4 287.64 241.28 287.64 242.18 287.64 C245.03 287.64 247.88 287.63 250.74 287.63 C251.71 287.62 252.69 287.62 253.7 287.62 C291.84 288.15 291.84 288.15 329.55 283.5 C330.43 283.32 331.32 283.13 332.23 282.94 C342.22 280.78 352.1 278.46 361.55 274.5 C362.21 275.49 362.87 276.48 363.55 277.5 C364.08 281.2 363.93 284.79 363.55 288.5 C362.69 292.15 361.4 295.24 359.55 298.5 C357.24 301.99 354.73 304.78 351.55 307.5 C342.51 313.59 332.57 318.65 322.01 321.43 C313.02 323.45 304.16 324.46 294.98 324.9 C294.29 324.93 293.6 324.96 292.89 325 C287.04 325.29 287.04 325.29 284.29 325.4 C273.9 325.83 264.46 327.22 254.55 330.5 C249.71 332.51 245.26 334.77 241.11 338 C238.61 340.38 238.61 340.38 236.67 342.63 C235.51 345.61 235.25 347.76 235.11 350.94 C235.15 353.81 235.15 353.81 235.55 356.5 C237.24 359.95 239.05 362 241.74 364.69 C244.72 366.61 247.55 367.81 250.88 368.99 C254.81 369.74 258.56 369.83 262.55 369.5 C264.67 369.03 266.7 368.42 268.78 367.77 C280.22 364.2 291.55 363.87 303.42 363.78 C318.34 363.65 333.33 362.31 347.55 357.5 C359.59 352.95 370.3 346.52 380.09 338.19 C386.51 332.53 391.54 326.3 395.83 318.9 C400.19 310.28 403.28 301.09 404.55 291.5 C404.77 286.79 404.74 282.09 404.67 277.38 C404.66 275.51 404.66 275.51 404.65 273.61 C404.62 270.57 404.59 267.54 404.55 264.5 C413.49 264.35 422.32 264.66 431.23 265.45 C432.57 265.57 433.92 265.67 435.27 265.77 C440.93 266.16 446.33 266.54 451.58 268.81 C456.84 271.87 460.96 275.4 464.86 280.06 C467.54 283.93 469.23 288 470.55 292.5 C471.47 296.39 471.7 300.04 471.76 304.04 C471.78 305.34 471.8 306.64 471.82 307.98 C471.83 309.39 471.85 310.8 471.87 312.21 C471.89 313.66 471.91 315.11 471.93 316.56 C471.98 320.36 472.03 324.17 472.08 327.98 C472.13 331.86 472.19 335.75 472.24 339.64 C472.35 347.26 472.45 354.88 472.55 362.5 C473.87 362.83 475.19 363.16 476.55 363.5 C476.6 354.79 476.63 346.08 476.65 337.37 C476.66 333.32 476.68 329.28 476.7 325.23 C476.72 321.32 476.73 317.41 476.74 313.5 C476.74 312.02 476.75 310.53 476.76 309.05 C476.82 301.28 476.72 294.01 474.55 286.5 C471.96 280.44 468.51 274.82 464.07 269.94 C461.75 267.75 459.29 266.13 456.55 264.5 C456.81 263.9 457.06 263.3 457.32 262.68 C460.35 255.02 461.83 247.37 463.07 239.28 C463.43 236.95 463.81 234.61 464.18 232.28 C464.71 229.01 465.23 225.74 465.75 222.47 C466.92 215.19 468.12 207.92 469.35 200.65 C469.73 198.43 470.09 196.22 470.46 194 C471.86 185.62 473.26 177.35 476.91 169.62 C480.9 163.19 484.94 157.36 490.91 152.63 C498.26 147.57 506.02 144.89 514.55 142.5 C521.71 140.74 529.3 141.07 536.59 141.81 C542.72 142.79 548.08 144.59 553.55 147.5 C557.13 149.54 559.92 151.72 562.67 154.75 C565.62 158.36 567.85 162.16 569.55 166.5 C571.87 173.47 572.01 179.88 571.86 187.18 C571.51 195.33 569.88 203.24 568.22 211.21 C567.37 215.29 566.56 219.38 565.75 223.47 C565.32 225.62 564.89 227.76 564.46 229.9 C562.43 240.02 560.56 250.17 558.72 260.33 C555.13 280.13 551.42 299.91 547.67 319.69 C547.44 320.93 547.2 322.18 546.96 323.46 C539.43 363.33 539.43 363.33 535.55 370.5 C531.5 376.68 527.21 382.37 521.52 387.1 C518.07 389.56 514.32 391.18 510.42 392.81 C509.64 393.16 508.85 393.51 508.05 393.86 C504.2 395.53 500.69 396.78 496.55 397.5 C495.03 397.59 493.51 397.63 491.99 397.63 C491.1 397.63 490.2 397.64 489.28 397.64 C488.31 397.64 487.34 397.64 486.34 397.64 C485.29 397.64 484.25 397.64 483.17 397.65 C479.65 397.65 476.13 397.65 472.61 397.66 C470.07 397.66 467.53 397.66 464.99 397.67 C458.73 397.68 452.46 397.69 446.2 397.69 C438.7 397.69 431.2 397.7 423.7 397.72 C405.56 397.74 387.43 397.76 369.3 397.77 C363.29 397.77 357.29 397.78 351.28 397.78 C319.35 397.81 287.41 397.83 255.47 397.84 C248.07 397.85 240.67 397.85 233.28 397.85 C232.36 397.85 231.44 397.85 230.49 397.85 C200.69 397.86 170.89 397.9 141.09 397.94 C110.45 397.98 79.81 398.01 49.17 398.01 C44.84 398.01 40.51 398.01 36.18 398.01 C34.91 398.01 34.91 398.01 33.6 398.02 C19.9 398.02 6.2 398.04 -7.51 398.07 C-21.28 398.09 -35.06 398.1 -48.84 398.09 C-57.02 398.08 -65.2 398.09 -73.39 398.12 C-79.5 398.14 -85.61 398.13 -91.73 398.11 C-94.2 398.11 -96.67 398.12 -99.14 398.13 C-118.45 398.24 -118.45 398.24 -124.67 396.46 C-132.83 393.43 -140.29 389.03 -146.92 383.4 C-151.38 379.18 -155.15 374.75 -158.12 369.36 C-165.06 354.43 -167.33 337.55 -170.45 321.5 C-170.62 320.65 -170.78 319.79 -170.96 318.91 C-173.41 306.28 -175.84 293.64 -178.25 281 C-179.85 272.65 -181.45 264.31 -183.05 255.96 C-184.1 250.51 -185.14 245.06 -186.19 239.61 C-186.92 235.78 -187.65 231.95 -188.39 228.12 C-189.08 224.5 -189.78 220.88 -190.47 217.27 C-190.85 215.29 -191.23 213.31 -191.61 211.33 C-193.91 199.32 -195.41 187.76 -194.45 175.5 C-193.46 170.27 -191.81 165.83 -189.13 161.24 C-186.22 157.06 -182.69 153.39 -178.8 150.11 C-173.9 146.76 -168.23 144.57 -162.53 142.96 C-155.81 141.48 -148.28 141.99 -141.45 142.5 C-134.43 143.52 -127.94 146.06 -121.64 149.25 C-116.3 152.4 -111.6 155.87 -107.45 160.5 C-102.17 167.63 -99.24 175.35 -96.72 183.78 C-94.26 192.55 -92.76 201.55 -91.14 210.5 C-90.78 212.45 -90.41 214.4 -90.05 216.35 C-89.17 221.07 -88.31 225.78 -87.45 230.5 C-86.13 230.5 -84.81 230.5 -83.45 230.5 C-83.92 219.99 -85.58 209.79 -87.5 199.46 C-88.01 196.71 -88.48 193.96 -88.95 191.2 C-90.8 180.95 -93.42 171.98 -98.43 162.81 C-101.53 157.74 -104.89 153.33 -109.45 149.5 C-113.61 146.9 -117.81 145.05 -122.45 143.5 C-122.8 121.85 -120.63 100.07 -113.77 79.45 C-109.57 67.46 -103.97 55.54 -95.95 45.63 C-94.46 43.91 -92.96 42.2 -91.45 40.5 C-90.84 39.75 -90.23 38.99 -89.59 38.21 C-83.22 30.52 -75.54 24.14 -66.97 19.02 C-51.91 10.53 -36.86 4.12 -19.85 0.88 C-13.27 -0.17 -6.64 -0.04 0 0 Z " fill="#FEFCF7" transform="translate(382.45005798339844,439.49879455566406)"/>
<path d="M0 0 C2.19 0.69 2.19 0.69 5 2 C7.38 4.19 7.38 4.19 10 7 C10.53 7.5 11.07 8 11.61 8.51 C14.79 11.51 17.35 14.32 19.46 18.15 C21.62 21.94 23.83 25.38 26.87 28.51 C28.96 30.14 28.96 30.14 31.62 30.76 C37.76 31.52 43.88 31.17 50.05 30.97 C55.16 31.03 59.86 32.3 64.74 33.72 C66.47 34.21 68.24 34.61 70 35 C72.83 34.72 72.83 34.72 75 34 C74.65 32.88 74.65 32.88 74.3 31.73 C74.2 30.83 74.1 29.93 74 29 C77.34 23.79 83.21 19.96 88.06 16.25 C92.25 13.19 96.32 10.24 101 8 C102.32 8 103.64 8 105 8 C106.59 17.45 107.28 26.47 107.2 36.05 C107.19 37.32 107.19 38.59 107.19 39.9 C107.18 43.21 107.16 46.53 107.14 49.85 C107.12 53.25 107.11 56.66 107.1 60.07 C107.08 66.71 107.04 73.36 107 80 C108.32 80.37 109.66 80.7 111 81 C113.28 80.69 113.28 80.69 115.71 80 C116.67 79.75 117.63 79.51 118.61 79.26 C119.67 78.99 120.72 78.72 121.81 78.44 C155.25 70.33 189.34 65.85 223.68 69.58 C240.06 71.66 256.96 75.34 271.98 82.4 C278.42 86.01 283.69 90.92 289 96 C289.68 96.6 290.36 97.21 291.05 97.83 C298.5 104.7 303.95 113.33 308.72 122.2 C314.95 135.68 318.32 150.63 321.66 165.04 C322.93 170.8 322.93 170.8 325.18 176.22 C326.01 177.43 326.85 178.63 327.7 179.83 C331.66 186.46 333.69 194.97 335.38 202.44 C336.47 209.61 336.16 216.86 335 224 C332.88 233.85 329.15 243.35 324 252 C320.47 257.45 315.42 261.34 310.3 265.23 C299.28 273.34 287.11 279.58 274.14 283.96 C261.04 287.52 246.78 287.67 233.28 288.2 C225.36 288.53 217.94 289.48 210.19 291.06 C195.57 294.03 195.57 294.03 188 293 C185.24 292.3 183.51 291.46 181 290 C178.62 287.94 178.62 287.94 177 286 C176.67 285.34 176.34 284.68 176 284 C175.69 281.25 175.69 281.25 176 278 C177.63 275.03 177.63 275.03 180 272 C185.39 268.21 191.35 265.72 197.68 264 C208.07 262 218.65 261.17 229.17 260.12 C252.7 257.84 252.7 257.84 274.94 250.31 C282.71 246.27 289.93 241.49 295.94 235.06 C298.73 231.66 300.59 228.14 302.27 224.08 C304.1 218.85 304.28 213.87 304.33 208.37 C304.27 203.61 303.53 199.55 302 195 C301.36 193.32 300.7 191.65 300 190 C299.01 190 298.02 190 297 190 C296.67 192.64 296.34 195.28 296 198 C262.73 209.73 231.41 211.41 196.39 211.96 C194.2 212 192.01 212.04 189.83 212.09 C186.41 212.16 182.98 212.21 179.56 212.25 C178.63 212.27 177.69 212.29 176.72 212.31 C170.98 212.34 165.92 211.43 160.39 209.88 C158.07 209.02 156.34 208.12 154.38 206.62 C152 204 152 204 150.94 201.5 C150.97 200.26 150.97 200.26 151 199 C152.06 196.5 152.06 196.5 154 194 C157.09 190.98 159.47 189.25 163.39 187.43 C169.14 185.36 175.07 185.17 181.12 184.81 C182.35 184.73 183.57 184.65 184.83 184.57 C195.89 183.89 206.92 183.8 218 184 C218 183.01 218 182.02 218 181 C216.96 180.66 215.92 180.32 214.85 179.97 C208.31 177.74 202 175.5 196.38 171.38 C192.99 168.36 190.61 165.25 188.38 161.31 C186.93 158.06 186.03 155.21 185.46 151.69 C185.31 148.32 185.44 145.33 186 142 C187.63 137.31 189.92 133.47 192.84 129.49 C197.36 124.27 203.11 120.18 209.12 116.81 C213.69 114.41 218.33 112.18 223 110 C222.67 108.68 222.34 107.36 222 106 C217.48 106.61 213.94 107.52 209.86 109.6 C202.55 113.95 195.77 118.72 190 125 C186.49 129.64 183.99 134.5 182.12 140 C181.02 144.22 180.56 148.2 180.72 152.56 C181.19 156.67 182.19 160.28 184 164 C185.82 166.83 187.85 169.42 190 172 C190.78 172.99 191.57 173.98 192.38 175 C193.18 175.99 193.18 175.99 194 177 C193.67 177.33 193.34 177.66 193 178 C191.61 178.18 190.2 178.3 188.8 178.39 C173.06 179.52 173.06 179.52 158 184 C154.42 186.06 151.1 188.26 148 191 C147.67 191.66 147.34 192.32 147 193 C143.92 194.03 141.47 194.06 138.25 193.99 C137.48 193.96 136.71 193.94 135.92 193.91 C135.12 193.89 134.31 193.87 133.49 193.85 C131.78 193.8 130.07 193.75 128.36 193.7 C125.8 193.63 123.24 193.56 120.68 193.49 C110.77 193.22 100.89 192.75 91 192 C92.25 189.29 93.26 187.73 95.38 185.53 C97.21 183.8 99.05 182.07 100.88 180.34 C101.93 179.18 101.93 179.18 103 178 C103 177.01 103 176.02 103 175 C100.29 175.95 98.08 176.94 95.75 178.63 C94.6 179.59 94.6 179.59 93.44 180.56 C92.56 181.27 91.69 181.98 90.79 182.71 C88.92 184.25 87.05 185.78 85.18 187.32 C77.92 193.04 70.77 197.06 62 200 C42.32 205.53 21.53 208.07 1.31 210.81 C0.42 210.94 -0.46 211.06 -1.38 211.19 C-8.15 212.06 -15.38 212.91 -22.13 211.58 C-24 210.94 -24 210.94 -27 209 C-29.06 205.81 -29.06 205.81 -30 202 C-29.9 199.76 -29.53 197.92 -28.84 195.78 C-28 194 -28 194 -26 191.81 C-25.01 191.21 -24.02 190.62 -23 190 C-22.39 189.6 -21.78 189.2 -21.15 188.79 C-14.04 184.64 -6.38 183.43 1.61 181.96 C3.4 181.64 5.2 181.32 7 181 C10.57 180.35 14.13 179.68 17.69 179 C18.49 178.86 19.29 178.72 20.11 178.57 C25.77 177.49 30.93 175.76 36 173 C36.66 172.34 37.32 171.68 38 171 C38 170.01 38 169.02 38 168 C34.59 168.44 31.63 169.13 28.39 170.3 C23.88 171.83 19.32 172.87 14.67 173.87 C13.52 174.11 13.52 174.11 12.36 174.36 C9.17 175.04 5.98 175.71 2.79 176.37 C-8.04 178.62 -18.16 181.18 -27.91 186.63 C-31 188 -31 188 -34.17 188.38 C-35.87 188.4 -35.87 188.4 -37.6 188.41 C-38.88 188.43 -40.16 188.45 -41.48 188.47 C-42.16 188.47 -42.83 188.48 -43.53 188.48 C-55.06 188.58 -66.41 189.19 -77.88 190.56 C-85.69 191.48 -93.43 192.31 -101.31 192.38 C-102.01 192.39 -102.7 192.4 -103.41 192.42 C-106.02 192.39 -108.48 192.15 -111 191.43 C-112.93 190.7 -112.93 190.7 -116 189 C-116.81 185.44 -116.81 185.44 -117 182 C-117.66 181.34 -118.32 180.68 -119 180 C-118.94 177.19 -118.94 177.19 -118 174 C-115.81 171.31 -115.81 171.31 -113 169 C-107.08 165.71 -101.13 164.41 -94.52 163.35 C-83.68 161.84 -72.71 161.16 -61.8 160.27 C-43.49 159.1 -43.49 159.1 -26 154 C-20.87 151.43 -16.34 148.54 -12.12 144.62 C-9.44 141.74 -7.47 138.83 -5.84 135.25 C-4.53 131.74 -3.59 128.15 -2.71 124.52 C-2 122 -2 122 -0.69 120.05 C-0.46 119.37 -0.24 118.7 0 118 C-1.37 115.04 -1.37 115.04 -3.56 112 C-8.83 103.95 -12.46 95.81 -14.81 86.44 C-16.76 76.25 -16.95 65.86 -15.41 55.61 C-14.49 50.35 -13.25 45.18 -12 40 C-11.66 38.56 -11.32 37.11 -10.98 35.67 C-10.01 31.6 -9.03 27.54 -8.04 23.47 C-7.64 21.83 -7.24 20.19 -6.85 18.54 C-6.28 16.21 -5.7 13.89 -5.12 11.56 C-4.95 10.86 -4.78 10.16 -4.61 9.43 C-3.85 6.46 -3.06 4.09 -1.37 1.53 C-0.92 1.02 -0.46 0.52 0 0 Z " fill="#74B7BA" transform="translate(447,510)"/>
<path d="M0 0 C1.01 0 2.03 0 3.07 0 C27.65 0.01 52.23 0.03 76.81 0.06 C78.08 4.02 79.35 7.97 80.61 11.92 C80.97 13.03 81.32 14.14 81.69 15.28 C84.56 24.24 87.37 33.22 90.12 42.22 C90.84 44.58 91.57 46.95 92.29 49.31 C92.76 50.83 93.22 52.35 93.69 53.87 C93.9 54.57 94.12 55.27 94.34 55.99 C95.81 60.83 95.81 60.83 95.81 63.06 C-78.43 63.06 -252.67 63.06 -432.19 63.06 C-429.94 52.94 -429.94 52.94 -428.83 49.36 C-428.58 48.56 -428.34 47.75 -428.08 46.92 C-427.69 45.66 -427.69 45.66 -427.29 44.38 C-427.01 43.49 -426.74 42.6 -426.45 41.68 C-425.87 39.8 -425.29 37.92 -424.7 36.04 C-423.82 33.2 -422.94 30.36 -422.06 27.52 C-421.49 25.68 -420.92 23.84 -420.35 22.01 C-420.09 21.17 -419.84 20.34 -419.57 19.48 C-418.18 15.03 -416.69 10.63 -415.09 6.25 C-414.73 5.28 -414.37 4.3 -414.01 3.29 C-413.74 2.56 -413.47 1.82 -413.19 1.06 C-368.19 0.89 -323.2 0.73 -278.21 0.57 C-275.63 0.56 -273.06 0.55 -270.49 0.54 C-181.34 0.23 -92.2 -0.04 0 0 Z " fill="#FEFCF7" transform="translate(739.1875,842.9375)"/>
<path d="M0 0 C2.74 0.49 4.64 1.03 7.12 2.19 C16.52 7.74 24.17 17.09 31.14 25.36 C34.67 29.28 38.47 32.95 42.24 36.64 C42.83 37.22 43.41 37.8 44.02 38.39 C44.54 38.91 45.07 39.42 45.61 39.95 C47.12 41.56 47.12 41.56 48.4 43.73 C48.97 44.33 49.54 44.94 50.12 45.56 C53.28 46.18 53.28 46.18 56.91 46.1 C57.57 46.11 58.22 46.13 58.9 46.14 C61 46.17 63.09 46.18 65.19 46.19 C67.29 46.2 69.39 46.23 71.48 46.26 C73.39 46.29 75.29 46.3 77.19 46.31 C78.64 46.43 78.64 46.43 80.12 46.56 C80.78 47.22 81.44 47.88 82.12 48.56 C82.38 51.4 82.38 51.4 82.38 55.09 C82.38 56.11 82.38 56.11 82.39 57.15 C82.4 59.43 82.39 61.71 82.38 64 C82.39 65.63 82.39 67.26 82.39 68.89 C82.4 73.34 82.4 77.78 82.39 82.22 C82.39 86.86 82.39 91.5 82.4 96.14 C82.4 103.94 82.4 111.73 82.39 119.53 C82.37 128.55 82.38 137.57 82.39 146.59 C82.4 154.33 82.4 162.06 82.39 169.8 C82.39 174.42 82.39 179.05 82.4 183.67 C82.4 188.02 82.4 192.36 82.39 196.71 C82.39 198.31 82.39 199.91 82.39 201.51 C82.4 203.68 82.39 205.86 82.38 208.03 C82.38 209.86 82.38 209.86 82.38 211.73 C82.29 212.66 82.21 213.6 82.12 214.56 C81.47 215.22 80.81 215.88 80.12 216.56 C77.36 216.82 77.36 216.82 73.75 216.82 C73.09 216.83 72.43 216.83 71.75 216.83 C69.53 216.85 67.3 216.84 65.07 216.84 C63.48 216.84 61.89 216.85 60.3 216.85 C55.97 216.87 51.64 216.87 47.31 216.86 C43.7 216.86 40.09 216.87 36.48 216.87 C27.96 216.88 19.44 216.88 10.93 216.88 C2.13 216.87 -6.67 216.88 -15.46 216.91 C-23 216.92 -30.55 216.93 -38.09 216.93 C-42.6 216.92 -47.11 216.93 -51.62 216.94 C-55.86 216.95 -60.1 216.95 -64.34 216.94 C-65.89 216.94 -67.45 216.94 -69.01 216.95 C-71.13 216.96 -73.25 216.95 -75.38 216.94 C-76.57 216.94 -77.76 216.94 -78.98 216.94 C-79.94 216.81 -80.89 216.69 -81.88 216.56 C-82.5 216.2 -83.12 215.83 -83.76 215.45 C-84.13 214.83 -84.5 214.21 -84.88 213.56 C-85.25 210.62 -85.25 210.62 -85.25 206.95 C-85.25 206.28 -85.26 205.6 -85.26 204.91 C-85.27 202.64 -85.26 200.37 -85.25 198.11 C-85.25 196.48 -85.25 194.86 -85.26 193.24 C-85.27 188.83 -85.26 184.42 -85.25 180.01 C-85.23 175.4 -85.24 170.79 -85.24 166.18 C-85.24 158.43 -85.23 150.69 -85.21 142.95 C-85.19 133.99 -85.19 125.03 -85.19 116.07 C-85.2 107.46 -85.19 98.85 -85.18 90.25 C-85.18 86.58 -85.18 82.91 -85.18 79.24 C-85.18 74.92 -85.17 70.61 -85.16 66.29 C-85.15 64.7 -85.15 63.12 -85.15 61.53 C-85.16 59.37 -85.15 57.21 -85.14 55.05 C-85.13 53.84 -85.13 52.62 -85.13 51.38 C-85.05 50.45 -84.96 49.52 -84.88 48.56 C-84.22 47.9 -83.55 47.24 -82.88 46.56 C-80.51 46.37 -80.51 46.37 -77.56 46.43 C-70.97 46.45 -64.41 46.47 -57.88 45.56 C-54.5 44.34 -54.5 44.34 -52.19 42.25 C-50.72 40.71 -49.29 39.15 -47.88 37.56 C-45.61 35.52 -43.27 33.58 -40.94 31.62 C-39.73 30.59 -38.52 29.55 -37.32 28.5 C-34.36 25.96 -31.35 23.5 -28.31 21.06 C-23.5 17.18 -18.99 13.03 -14.55 8.72 C-10.32 4.7 -5.87 1.15 0 0 Z " fill="#FEFCF7" transform="translate(755.875,125.4375)"/>
<path d="M0 0 C86.79 0 173.58 0 263 0 C263 56.76 263 113.52 263 172 C242.21 172 221.42 172 200 172 C199.94 164.58 199.88 157.15 199.82 149.5 C199.78 144.81 199.74 140.12 199.69 135.44 C199.63 127.98 199.56 120.53 199.5 113.08 C199.46 107.08 199.4 101.07 199.35 95.07 C199.33 92.77 199.31 90.48 199.29 88.18 C199.27 84.98 199.24 81.77 199.21 78.57 C199.2 77.61 199.19 76.65 199.19 75.66 C199.17 74.36 199.17 74.36 199.16 73.03 C199.15 72.27 199.15 71.51 199.14 70.73 C199.09 70.16 199.05 69.59 199 69 C198.67 68.67 198.34 68.34 198 68 C195.37 67.89 192.76 67.84 190.13 67.83 C189.34 67.83 188.55 67.83 187.74 67.82 C186.06 67.82 184.38 67.81 182.71 67.81 C180.14 67.81 177.58 67.79 175.01 67.78 C173.39 67.77 171.76 67.77 170.13 67.77 C169.36 67.76 168.6 67.76 167.8 67.75 C165.87 67.76 163.93 67.87 162 68 C161.01 68.66 160.02 69.32 159 70 C158.56 71.9 158.56 71.9 158.64 74.11 C158.64 74.97 158.63 75.83 158.63 76.72 C158.64 77.67 158.65 78.62 158.66 79.59 C158.66 80.59 158.66 81.58 158.66 82.61 C158.66 85.91 158.68 89.21 158.71 92.51 C158.71 94.79 158.72 97.08 158.72 99.36 C158.73 105.38 158.76 111.4 158.79 117.42 C158.82 123.56 158.84 129.7 158.85 135.84 C158.89 147.89 158.94 159.95 159 172 C149.76 172 140.52 172 131 172 C130.98 166.64 130.98 166.64 130.96 161.17 C130.91 149.34 130.84 137.51 130.76 125.68 C130.72 118.51 130.68 111.34 130.65 104.17 C130.63 97.92 130.6 91.67 130.55 85.41 C130.53 82.11 130.51 78.8 130.5 75.49 C130.49 71.79 130.46 68.08 130.43 64.38 C130.43 63.3 130.44 62.22 130.44 61.11 C130.35 53.86 129.57 46.83 127 40 C125.68 38.16 125.68 38.16 124 37 C121.05 36.54 121.05 36.54 117.69 36.6 C116.45 36.6 115.21 36.59 113.93 36.59 C112.63 36.6 111.34 36.61 110 36.62 C108.05 36.61 108.05 36.61 106.07 36.59 C104.83 36.59 103.59 36.6 102.31 36.6 C101.17 36.6 100.04 36.61 98.86 36.61 C97.92 36.74 96.97 36.87 96 37 C94.11 38.23 94.11 38.23 93 40 C91.48 44.55 91.55 49.18 91.28 53.95 C91.19 54.95 91.1 55.96 91 57 C90.67 57.33 90.34 57.66 90 58 C88.15 58.09 86.29 58.11 84.43 58.1 C83.31 58.09 82.18 58.09 81.03 58.09 C79.84 58.08 78.66 58.07 77.44 58.06 C76.25 58.06 75.06 58.05 73.84 58.05 C70.89 58.04 67.95 58.02 65 58 C64.97 56.82 64.95 55.64 64.92 54.42 C64.87 52.86 64.81 51.31 64.75 49.75 C64.74 48.97 64.72 48.2 64.71 47.39 C64.67 46.64 64.64 45.89 64.61 45.11 C64.58 44.07 64.58 44.07 64.55 43.01 C64.08 40.85 64.08 40.85 62.46 38.77 C61.65 38.19 60.84 37.6 60 37 C57.21 36.61 54.81 36.46 52.02 36.5 C51.26 36.5 50.49 36.5 49.7 36.5 C48.09 36.5 46.47 36.51 44.85 36.53 C42.38 36.56 39.9 36.55 37.42 36.54 C35.85 36.55 34.28 36.56 32.71 36.57 C31.6 36.56 31.6 36.56 30.46 36.56 C28.15 36.57 28.15 36.57 25 37 C24.34 37.99 23.68 38.98 23 40 C22.69 42.51 22.69 42.51 22.72 45.37 C22.71 46.49 22.7 47.6 22.69 48.75 C22.69 49.97 22.68 51.2 22.68 52.46 C22.67 53.75 22.66 55.03 22.65 56.36 C22.62 59.89 22.61 63.43 22.6 66.96 C22.58 70.65 22.55 74.34 22.53 78.03 C22.48 85.02 22.44 92.02 22.41 99.01 C22.37 106.97 22.32 114.92 22.27 122.88 C22.17 139.26 22.08 155.63 22 172 C14.74 172 7.48 172 0 172 C0 115.24 0 58.48 0 0 Z " fill="#FEFCF7" transform="translate(125,98)"/>
<path d="M0 0 C130.19 0.5 130.19 0.5 263 1 C263 19.48 263 37.96 263 57 C253.43 57 243.86 57 234 57 C233.67 56.34 233.34 55.68 233 55 C231.68 55 230.36 55 229 55 C228.2 57.84 227.87 60.37 227.84 63.32 C227.83 64.17 227.82 65.03 227.81 65.91 C227.81 66.84 227.8 67.77 227.79 68.73 C227.78 69.71 227.77 70.7 227.76 71.71 C227.73 74.97 227.71 78.23 227.68 81.48 C227.66 83.74 227.64 86 227.62 88.26 C227.57 94.21 227.52 100.15 227.47 106.09 C227.42 112.16 227.36 118.23 227.31 124.29 C227.2 136.2 227.1 148.1 227 160 C225.73 160.48 224.47 160.96 223.2 161.44 C222.49 161.71 221.79 161.98 221.06 162.25 C216.8 163.8 212.39 164.85 208 166 C208.53 157.35 209.52 148.91 211 140.37 C211.2 139.2 211.4 138.02 211.61 136.82 C212.25 133.02 212.91 129.23 213.56 125.44 C213.9 123.47 214.24 121.5 214.57 119.53 C223.87 65.16 223.87 65.16 227.58 47.17 C228.09 44.53 228.17 42.01 228.19 39.31 C228.2 38.36 228.22 37.41 228.23 36.43 C228.15 35.63 228.08 34.82 228 34 C227.34 33.34 226.68 32.68 226 32 C224.11 31.54 224.11 31.54 221.92 31.37 C221.1 31.28 220.27 31.2 219.42 31.11 C218.54 31.03 217.66 30.96 216.75 30.88 C215.85 30.79 214.96 30.71 214.04 30.62 C203.01 29.49 203.01 29.49 192 30 C189.97 32.71 189.97 32.71 189.46 34.99 C189.25 36.13 189.25 36.13 189.04 37.3 C188.8 38.61 188.8 38.61 188.55 39.94 C188.39 40.89 188.22 41.84 188.05 42.82 C187.87 43.81 187.69 44.8 187.5 45.82 C186.91 49.07 186.33 52.31 185.75 55.56 C185.34 57.82 184.93 60.07 184.53 62.33 C183.34 68.88 182.17 75.44 181 82 C180.85 82.85 180.7 83.7 180.54 84.58 C179.2 92.11 177.87 99.65 176.55 107.2 C175.34 114.07 174.12 120.94 172.89 127.8 C172.52 129.87 172.15 131.93 171.79 133.99 C171.24 137.03 170.7 140.07 170.15 143.11 C169.64 145.93 169.14 148.75 168.64 151.57 C168.49 152.41 168.34 153.24 168.18 154.1 C168.04 154.89 167.9 155.68 167.75 156.5 C167.63 157.18 167.51 157.86 167.38 158.56 C166.84 162.03 166.44 165.52 166 169 C155.11 169 144.22 169 133 169 C133 168.34 133 167.68 133 167 C134.67 165.33 136.33 163.67 138 162 C140.39 159.21 142.43 156.39 143.83 152.98 C148.71 138.27 149.29 123.12 149.31 107.75 C149.32 107.04 149.32 106.32 149.32 105.58 C149.34 97.83 149.17 90.5 147 83 C145.3 78.78 143.2 75 140.44 71.38 C137.95 68.68 135.31 66.67 132.19 64.75 C126.09 61.64 119.89 60.41 113.18 59.47 C105.09 58.49 105.09 58.49 97 59 C94.3 60.12 94.3 60.12 92 62 C90.04 64 90.04 64 89 67 C88.51 70.6 88.4 74.18 88.31 77.81 C88.21 81.17 88.11 84.54 88 88 C80.08 88 72.16 88 64 88 C63.95 84.2 63.9 80.39 63.85 76.48 C63.8 72.81 63.74 69.14 63.68 65.47 C63.64 62.91 63.61 60.35 63.58 57.79 C63.53 54.13 63.47 50.46 63.41 46.79 C63.4 45.64 63.39 44.49 63.38 43.31 C63.36 42.25 63.34 41.19 63.32 40.09 C63.31 39.16 63.29 38.22 63.28 37.25 C63.19 36.51 63.09 35.77 63 35 C62.34 34.34 61.68 33.68 61 33 C58.3 32.8 55.7 32.72 53 32.73 C51.81 32.73 51.81 32.73 50.6 32.73 C48.93 32.73 47.25 32.73 45.58 32.74 C43.01 32.75 40.44 32.74 37.88 32.73 C36.25 32.73 34.62 32.73 33 32.73 C31.84 32.73 31.84 32.73 30.66 32.72 C28.77 32.74 26.89 32.86 25 33 C24.34 33.66 23.68 34.32 23 35 C22.69 37.41 22.69 37.41 22.72 40.25 C22.71 41.37 22.7 42.48 22.69 43.63 C22.69 44.85 22.68 46.08 22.68 47.34 C22.67 48.63 22.66 49.92 22.65 51.25 C22.62 54.78 22.61 58.32 22.6 61.86 C22.58 65.55 22.55 69.25 22.53 72.94 C22.48 79.94 22.44 86.94 22.41 93.93 C22.37 101.9 22.32 109.87 22.27 117.83 C22.17 134.22 22.08 150.61 22 167 C14.74 167 7.48 167 0 167 C0 111.89 0 56.78 0 0 Z " fill="#FDFBF7" transform="translate(125,276)"/>
<path d="M0 0 C20.23 -0.02 40.47 -0.04 61.31 -0.06 C70.69 -0.08 70.69 -0.08 80.25 -0.09 C85.43 -0.09 90.62 -0.1 95.8 -0.1 C96.82 -0.1 96.82 -0.1 97.86 -0.1 C128.25 -0.1 158.62 0.36 189 1 C189 1.66 189 2.32 189 3 C187.29 4.21 185.53 5.34 183.75 6.44 C173.12 13.38 163.93 22.05 156.28 32.21 C147.69 44.18 140.95 56.67 136.86 70.86 C132.65 86.29 130.74 101.92 129.65 117.85 C129.57 118.88 129.5 119.91 129.43 120.97 C129.37 121.89 129.31 122.81 129.25 123.76 C129.13 124.87 129.13 124.87 129 126 C128.67 126.66 128.34 127.32 128 128 C126.97 127.84 125.93 127.68 124.87 127.52 C118.64 126.74 112.39 126.78 106.12 126.75 C104.91 126.73 103.69 126.71 102.44 126.69 C96.03 126.66 90.38 127.04 84.28 129.06 C81.44 130.23 78.74 131.62 76 133 C75.99 132.21 75.99 131.41 75.98 130.59 C75.92 123.08 75.85 115.56 75.76 108.04 C75.72 104.18 75.68 100.31 75.65 96.45 C75.63 92.71 75.59 88.98 75.54 85.25 C75.52 83.83 75.51 82.41 75.5 80.99 C75.48 71.68 75.48 71.68 73.59 62.62 C73.07 61.42 72.54 60.23 72 59 C71.34 58.67 70.68 58.34 70 58 C65.86 57.79 61.72 57.81 57.57 57.81 C55.51 57.81 53.45 57.79 51.39 57.78 C50.09 57.77 48.8 57.77 47.47 57.77 C46.28 57.77 45.09 57.76 43.86 57.76 C42.91 57.84 41.97 57.92 41 58 C40.34 58.66 39.68 59.32 39 60 C38.69 62.02 38.69 62.02 38.72 64.38 C38.71 65.3 38.7 66.22 38.69 67.17 C38.69 68.18 38.68 69.19 38.68 70.23 C38.67 71.83 38.67 71.83 38.65 73.46 C38.62 76.98 38.6 80.51 38.59 84.04 C38.57 86.48 38.55 88.92 38.53 91.36 C38.48 97.8 38.44 104.23 38.4 110.67 C38.36 117.23 38.31 123.79 38.26 130.35 C38.16 143.23 38.08 156.12 38 169 C25.46 169 12.92 169 0 169 C0 113.23 0 57.46 0 0 Z " fill="#FEFCF7" transform="translate(125,450)"/>
<path d="M0 0 C3.92 -0.87 7.67 -0.48 11.65 -0.15 C12.89 -0.08 14.12 -0.01 15.4 0.07 C18.28 0.24 21.15 0.43 24.02 0.64 C29.57 1.05 35.11 1.39 40.66 1.73 C52.83 2.5 65 3.34 77.17 4.2 C81.81 4.52 86.45 4.83 91.09 5.15 C95.6 5.46 100.11 5.77 104.62 6.08 C106.75 6.23 108.88 6.38 111.02 6.52 C135.88 8.21 135.88 8.21 141 10 C142.75 11.31 142.75 11.31 144 13 C144.98 18.37 143.81 24.21 142.93 29.55 C142.78 30.45 142.62 31.36 142.46 32.3 C142.22 33.76 142.22 33.76 141.97 35.25 C141.45 38.42 140.91 41.58 140.38 44.75 C140 46.97 139.63 49.2 139.27 51.42 C138.52 55.88 137.78 60.34 137.03 64.8 C135.78 72.3 134.56 79.79 133.35 87.29 C133 89.44 132.65 91.59 132.3 93.75 C131 101.74 129.72 109.73 128.47 117.73 C127.74 122.33 127.01 126.93 126.29 131.53 C125.93 133.78 125.58 136.04 125.23 138.3 C124.73 141.46 124.23 144.62 123.73 147.78 C123.59 148.72 123.44 149.67 123.29 150.64 C122.41 156.17 121.37 161.31 118.8 166.35 C118.21 166.89 117.61 167.44 117 168 C106.61 169.72 95.07 167.65 84.69 166.62 C83.41 166.5 82.12 166.37 80.8 166.24 C79.59 166.11 78.38 165.98 77.14 165.85 C76.05 165.74 74.97 165.62 73.85 165.5 C71 165 71 165 68.73 164.13 C68.16 163.76 67.59 163.39 67 163 C65.65 160.79 64.53 158.71 63.44 156.38 C63.15 155.78 62.86 155.19 62.56 154.58 C57.84 144.82 55.3 134.74 52.69 124.26 C50.05 113.82 47.18 103.56 42.25 93.94 C41.9 93.26 41.56 92.58 41.2 91.89 C37.41 84.64 33.25 78.13 27.32 72.42 C16.31 62.9 4.55 55.84 -8.89 50.31 C-9.92 49.88 -10.94 49.45 -12 49 C-12.33 48.67 -12.66 48.34 -13 48 C-13.46 35.12 -11.3 21.86 -7.36 9.61 C-5.79 6.6 -4.24 4.03 -1.99 1.48 C-1.34 0.99 -0.68 0.5 0 0 Z " fill="#EEA696" transform="translate(716,532)"/>
<path d="M0 0 C2.74 0.49 4.64 1.03 7.12 2.19 C16.52 7.74 24.17 17.09 31.14 25.36 C34.67 29.28 38.47 32.95 42.24 36.64 C42.83 37.22 43.41 37.8 44.02 38.39 C44.54 38.91 45.07 39.42 45.61 39.95 C47.12 41.56 47.12 41.56 48.4 43.73 C48.97 44.33 49.54 44.94 50.12 45.56 C53.28 46.18 53.28 46.18 56.91 46.1 C57.57 46.11 58.22 46.13 58.9 46.14 C61 46.17 63.09 46.18 65.19 46.19 C67.29 46.2 69.39 46.23 71.48 46.26 C73.39 46.29 75.29 46.3 77.19 46.31 C78.64 46.43 78.64 46.43 80.12 46.56 C80.78 47.22 81.44 47.88 82.12 48.56 C82.38 51.4 82.38 51.4 82.38 55.09 C82.38 56.11 82.38 56.11 82.39 57.15 C82.4 59.43 82.39 61.71 82.38 64 C82.39 65.63 82.39 67.26 82.39 68.89 C82.4 73.34 82.4 77.78 82.39 82.22 C82.39 86.86 82.39 91.5 82.4 96.14 C82.4 103.94 82.4 111.73 82.39 119.53 C82.37 128.55 82.38 137.57 82.39 146.59 C82.4 154.33 82.4 162.06 82.39 169.8 C82.39 174.42 82.39 179.05 82.4 183.67 C82.4 188.02 82.4 192.36 82.39 196.71 C82.39 198.31 82.39 199.91 82.39 201.51 C82.4 203.68 82.39 205.86 82.38 208.03 C82.38 209.86 82.38 209.86 82.38 211.73 C82.29 212.66 82.21 213.6 82.12 214.56 C81.47 215.22 80.81 215.88 80.12 216.56 C77.36 216.82 77.36 216.82 73.75 216.82 C73.09 216.83 72.43 216.83 71.75 216.83 C69.53 216.85 67.3 216.84 65.07 216.84 C63.48 216.84 61.89 216.85 60.3 216.85 C55.97 216.87 51.64 216.87 47.31 216.86 C43.7 216.86 40.09 216.87 36.48 216.87 C27.96 216.88 19.44 216.88 10.93 216.88 C2.13 216.87 -6.67 216.88 -15.46 216.91 C-23 216.92 -30.55 216.93 -38.09 216.93 C-42.6 216.92 -47.11 216.93 -51.62 216.94 C-55.86 216.95 -60.1 216.95 -64.34 216.94 C-65.89 216.94 -67.45 216.94 -69.01 216.95 C-71.13 216.96 -73.25 216.95 -75.38 216.94 C-76.57 216.94 -77.76 216.94 -78.98 216.94 C-79.94 216.81 -80.89 216.69 -81.88 216.56 C-82.5 216.2 -83.12 215.83 -83.76 215.45 C-84.13 214.83 -84.5 214.21 -84.88 213.56 C-85.25 210.62 -85.25 210.62 -85.25 206.95 C-85.25 206.28 -85.26 205.6 -85.26 204.91 C-85.27 202.64 -85.26 200.37 -85.25 198.11 C-85.25 196.48 -85.25 194.86 -85.26 193.24 C-85.27 188.83 -85.26 184.42 -85.25 180.01 C-85.23 175.4 -85.24 170.79 -85.24 166.18 C-85.24 158.43 -85.23 150.69 -85.21 142.95 C-85.19 133.99 -85.19 125.03 -85.19 116.07 C-85.2 107.46 -85.19 98.85 -85.18 90.25 C-85.18 86.58 -85.18 82.91 -85.18 79.24 C-85.18 74.92 -85.17 70.61 -85.16 66.29 C-85.15 64.7 -85.15 63.12 -85.15 61.53 C-85.16 59.37 -85.15 57.21 -85.14 55.05 C-85.13 53.84 -85.13 52.62 -85.13 51.38 C-85.05 50.45 -84.96 49.52 -84.88 48.56 C-84.22 47.9 -83.55 47.24 -82.88 46.56 C-80.51 46.37 -80.51 46.37 -77.56 46.43 C-70.97 46.45 -64.41 46.47 -57.88 45.56 C-54.5 44.34 -54.5 44.34 -52.19 42.25 C-50.72 40.71 -49.29 39.15 -47.88 37.56 C-45.61 35.52 -43.27 33.58 -40.94 31.62 C-39.73 30.59 -38.52 29.55 -37.32 28.5 C-34.36 25.96 -31.35 23.5 -28.31 21.06 C-23.5 17.18 -18.99 13.03 -14.55 8.72 C-10.32 4.7 -5.87 1.15 0 0 Z M-78.88 53.56 C-78.88 105.37 -78.88 157.18 -78.88 210.56 C-27.73 210.56 23.42 210.56 76.12 210.56 C76.12 158.75 76.12 106.94 76.12 53.56 C24.98 53.56 -26.17 53.56 -78.88 53.56 Z " fill="#2E414C" transform="translate(755.875,125.4375)"/>
<path d="M0 0 C6.27 1.37 11.87 3.44 17.41 6.69 C22.3 10.07 26.36 13.9 30.08 18.54 C33.22 23.59 35.75 28.89 37.45 34.6 C38.26 39.69 38.61 44.39 38.08 49.54 C36.95 55.16 35.32 60.32 32.5 65.34 C28.49 71.29 23.92 76.64 18.18 80.97 C14.33 83.53 10.32 85.69 5.89 87.03 C-1.57 88.37 -9.45 88.23 -16.93 87.07 C-21.17 85.95 -24.81 84.19 -28.55 81.91 C-33.42 78.4 -37.41 74.4 -40.92 69.54 C-44.24 63.82 -47.19 57.93 -48.92 51.54 C-49.48 44.14 -49.72 36.33 -47.86 29.1 C-45.87 23.6 -42.57 19.05 -38.92 14.54 C-38.4 13.88 -37.87 13.23 -37.33 12.56 C-34.81 9.76 -32.32 7.77 -29.06 5.84 C-19.3 0.8 -10.95 -1.74 0 0 Z " fill="#EDA697" transform="translate(760.921875,214.46484375)"/>
<path d="M0 0 C6.47 0.32 12.71 0.87 18.79 3.26 C21.47 4.69 23.66 6.14 25.95 8.14 C30.36 13.59 32.86 19.95 35.18 26.5 C37.77 35.47 37.39 44.91 36.95 54.14 C36.09 65.6 34.94 77.09 30.26 87.68 C28.43 91.12 26.82 93.47 23.95 96.14 C21.16 98.08 18.34 99.71 15.08 100.73 C12.48 101.24 9.96 101.36 7.3 101.46 C6.23 101.5 5.16 101.54 4.06 101.59 C2.95 101.63 1.84 101.67 0.7 101.71 C-0.43 101.75 -1.56 101.79 -2.72 101.84 C-5.5 101.94 -8.28 102.05 -11.05 102.14 C-11.06 101.34 -11.08 100.54 -11.09 99.71 C-11.19 92.01 -11.29 84.31 -11.39 76.61 C-11.45 72.65 -11.5 68.69 -11.55 64.74 C-11.6 60.91 -11.65 57.08 -11.71 53.25 C-11.73 51.73 -11.75 50.21 -11.77 48.69 C-11.88 40.71 -12.04 32.74 -12.42 24.77 C-12.48 23.48 -12.54 22.18 -12.6 20.85 C-12.71 18.43 -12.84 16.02 -12.99 13.61 C-13.04 12.54 -13.1 11.48 -13.15 10.39 C-13.2 9.46 -13.26 8.54 -13.31 7.59 C-13.23 6.79 -13.14 5.98 -13.05 5.14 C-11.74 2.88 -11.74 2.88 -10.05 1.14 C-6.53 -0.03 -3.69 -0.06 0 0 Z " fill="#E8E4E0" transform="translate(232.0546875,340.85546875)"/>
<path d="M0 0 C9.57 0 19.14 0 29 0 C29 42.57 29 85.14 29 129 C19.43 129 9.86 129 0 129 C0 86.43 0 43.86 0 0 Z " fill="#78B9BC" transform="translate(154,141)"/>
<path d="M0 0 C20 0 20 0 28 1 C28.33 1.66 28.66 2.32 29 3 C29.09 4.67 29.12 6.35 29.12 8.02 C29.12 9.09 29.12 10.15 29.12 11.24 C29.12 12.42 29.12 13.59 29.11 14.79 C29.11 16.02 29.11 17.25 29.11 18.52 C29.11 21.89 29.11 25.27 29.1 28.65 C29.1 32.17 29.09 35.7 29.09 39.22 C29.09 45.9 29.08 52.58 29.07 59.26 C29.06 66.87 29.06 74.47 29.05 82.07 C29.04 97.71 29.02 113.36 29 129 C19.43 129 9.86 129 0 129 C0 86.43 0 43.86 0 0 Z " fill="#FDFBF7" transform="translate(154,314)"/>
<path d="M0 0 C16.86 -0.22 16.86 -0.22 25 1 C25.66 1.33 26.32 1.66 27 2 C25.62 15.09 23.6 28.02 21.41 40.99 C21.06 43.07 20.71 45.16 20.36 47.24 C19.45 52.68 18.54 58.12 17.62 63.56 C16.33 71.2 15.05 78.85 13.77 86.49 C13.09 90.54 12.41 94.59 11.73 98.65 C9.75 110.42 7.84 122.2 6 134 C-3.38 134.13 -12.65 133.66 -22 133 C-22.19 126.66 -21.49 120.79 -20.42 114.55 C-20.25 113.53 -20.08 112.51 -19.9 111.45 C-19.34 108.07 -18.76 104.69 -18.19 101.31 C-17.79 98.94 -17.39 96.56 -16.99 94.19 C-13.8 75.36 -10.46 56.55 -7.06 37.75 C-6.94 37.09 -6.82 36.42 -6.7 35.74 C-5.9 31.3 -5.09 26.86 -4.29 22.42 C-4.08 21.31 -3.88 20.2 -3.67 19.05 C-2.51 12.69 -1.29 6.34 0 0 Z " fill="#76B8BB" transform="translate(320,312)"/>
<path d="M0 0 C2.25 -0.34 2.25 -0.34 5.01 -0.29 C5.99 -0.28 6.98 -0.27 8 -0.26 C9.03 -0.24 10.06 -0.21 11.12 -0.19 C12.69 -0.17 12.69 -0.17 14.28 -0.15 C16.85 -0.11 19.43 -0.06 22 0 C23.64 3.6 24.87 6.73 25.28 10.67 C25.37 13.79 25.37 16.9 25.34 20.02 C25.34 21.79 25.34 21.79 25.34 23.6 C25.34 27.48 25.32 31.37 25.29 35.25 C25.29 37.95 25.28 40.65 25.28 43.35 C25.27 49.73 25.25 56.1 25.22 62.47 C25.18 69.73 25.17 76.98 25.15 84.24 C25.12 99.16 25.06 114.08 25 129 C15.76 129 6.52 129 -3 129 C-3.02 115.08 -3.04 101.16 -3.05 87.25 C-3.06 80.78 -3.06 74.32 -3.08 67.85 C-3.09 61.6 -3.09 55.35 -3.09 49.1 C-3.1 46.73 -3.1 44.36 -3.11 41.98 C-3.17 11.89 -3.17 11.89 -2 3 C-1.34 2.01 -0.68 1.02 0 0 Z " fill="#E6E3E0" transform="translate(224,141)"/>
<path d="M0 0 C9.57 0 19.14 0 29 0 C29 32.34 29 64.68 29 98 C19.43 98 9.86 98 0 98 C0 65.66 0 33.32 0 0 Z " fill="#E8E4E0" transform="translate(290,172)"/>
<path d="M0 0 C9.57 0 19.14 0 29 0 C29 30.69 29 61.38 29 93 C14.64 93.99 14.64 93.99 0 95 C0 63.65 0 32.3 0 0 Z " fill="#FEFCF8" transform="translate(359,340)"/>
<path d="M0 0 C7.92 0 15.84 0 24 0 C24 35.31 24 70.62 24 107 C16.08 107 8.16 107 0 107 C0 71.69 0 36.38 0 0 Z " fill="#FEFDF8" transform="translate(190,163)"/>
<path d="M0 0 C8.58 0 17.16 0 26 0 C26.16 9.64 26.29 19.28 26.36 28.92 C26.4 33.4 26.45 37.88 26.53 42.35 C26.6 46.68 26.65 51 26.66 55.33 C26.68 56.97 26.7 58.62 26.74 60.26 C26.85 65.26 26.85 70.06 26 75 C24.47 77.69 23 79.48 20.69 81.51 C20.13 82 19.57 82.49 19 83 C16.46 87.85 15.27 92.61 14.31 97.94 C14.18 98.62 14.05 99.31 13.92 100.01 C13.61 101.67 13.3 103.34 13 105 C8.71 105 4.42 105 0 105 C0 70.35 0 35.7 0 0 Z " fill="#F8F6F1" transform="translate(169,514)"/>
<path d="M0 0 C9.9 0 19.8 0 30 0 C30.59 2.77 31.18 5.53 31.79 8.38 C32.18 10.18 32.56 11.97 32.95 13.77 C33.78 17.64 34.6 21.51 35.43 25.39 C38 37.45 38 37.45 40.71 49.49 C44.57 66.22 44.57 66.22 44.47 74.89 C44 77 44 77 42.94 78.77 C42.3 79.18 41.66 79.58 41 80 C38.4 80.33 36.1 80.46 33.5 80.44 C32.82 80.46 32.15 80.48 31.45 80.5 C29.47 80.5 29.47 80.5 26 80 C24.42 78.36 24.42 78.36 23 76 C22.21 73.93 21.51 71.82 20.87 69.7 C20.68 69.08 20.49 68.46 20.29 67.82 C19.88 66.48 19.47 65.13 19.07 63.79 C17.99 60.19 16.88 56.6 15.77 53 C15.55 52.26 15.32 51.52 15.09 50.76 C12.46 42.2 9.7 33.69 6.93 25.18 C5 19.23 3.06 13.28 1.21 7.3 C0.98 6.54 0.74 5.77 0.5 4.98 C0 3 0 3 0 0 Z " fill="#FCFBF7" transform="translate(823,844)"/>
<path d="M0 0 C4.46 -0.06 8.92 -0.09 13.38 -0.12 C15.28 -0.15 15.28 -0.15 17.23 -0.18 C19.04 -0.19 19.04 -0.19 20.9 -0.2 C22.02 -0.21 23.14 -0.22 24.29 -0.23 C25.19 -0.15 26.08 -0.08 27 0 C27.66 0.66 28.32 1.32 29 2 C28.71 2.91 28.43 3.82 28.13 4.76 C25.69 12.58 23.26 20.4 20.84 28.22 C20.29 30.02 19.74 31.81 19.18 33.6 C18.34 36.34 17.5 39.07 16.66 41.8 C13.91 50.72 11.17 59.63 8.28 68.5 C7.91 69.64 7.54 70.79 7.16 71.97 C6.02 74.95 4.91 77.44 3 80 C0.09 80.44 -2.18 80.57 -5.06 80.44 C-6.16 80.43 -6.16 80.43 -7.28 80.42 C-9.19 80.38 -11.1 80.2 -13 80 C-13.66 79.34 -14.32 78.68 -15 78 C-15.45 71.02 -14.39 64.67 -12.99 57.85 C-12.78 56.8 -12.57 55.75 -12.35 54.66 C-11.91 52.44 -11.46 50.22 -11 48 C-10.32 44.67 -9.66 41.34 -8.99 38 C-6.42 25.21 -3.5 12.57 0 0 Z " fill="#FCFBF7" transform="translate(290,844)"/>
<path d="M0 0 C8.25 0 16.5 0 25 0 C25 24.42 25 48.84 25 74 C16.75 74 8.5 74 0 74 C0 49.58 0 25.16 0 0 Z " fill="#F8F7F3" transform="translate(189,370)"/>
<path d="M0 0 C6.27 1.37 11.87 3.44 17.41 6.69 C22.3 10.07 26.36 13.9 30.08 18.54 C33.22 23.59 35.75 28.89 37.45 34.6 C38.26 39.69 38.61 44.39 38.08 49.54 C36.95 55.16 35.32 60.32 32.5 65.34 C28.49 71.29 23.92 76.64 18.18 80.97 C14.33 83.53 10.32 85.69 5.89 87.03 C-1.57 88.37 -9.45 88.23 -16.93 87.07 C-21.17 85.95 -24.81 84.19 -28.55 81.91 C-33.42 78.4 -37.41 74.4 -40.92 69.54 C-44.24 63.82 -47.19 57.93 -48.92 51.54 C-49.48 44.14 -49.72 36.33 -47.86 29.1 C-45.87 23.6 -42.57 19.05 -38.92 14.54 C-38.4 13.88 -37.87 13.23 -37.33 12.56 C-34.81 9.76 -32.32 7.77 -29.06 5.84 C-19.3 0.8 -10.95 -1.74 0 0 Z M-20.51 9.43 C-25.12 11.54 -29.09 14.23 -32.92 17.54 C-35.76 20.52 -37.96 23.51 -39.73 27.24 C-41.26 30.88 -42.13 34.17 -42.36 38.12 C-42.38 39.72 -42.38 41.31 -42.36 42.91 C-42.35 43.75 -42.34 44.58 -42.33 45.45 C-42.21 49.9 -41.9 53.93 -40.36 58.16 C-37.57 63.78 -33.84 68.71 -29.34 73.07 C-25.98 75.75 -22.3 77.33 -18.3 78.85 C-12.83 80.52 -7.8 81.13 -2.09 80.91 C2.05 80.42 5.66 79.46 9.51 77.86 C13.87 75.61 17.54 72.92 21.08 69.54 C23.93 66.42 26.27 63.26 28.07 59.43 C30.02 54.47 31.11 49.76 31.39 44.47 C31.32 39.47 30.04 35.08 28.34 30.39 C26.49 26.2 24.13 22.93 21.08 19.54 C20.54 18.91 20.01 18.28 19.45 17.63 C17.09 15.05 14.86 12.98 11.81 11.25 C7.94 9.46 4.3 8.2 0.08 7.54 C-6.98 7.05 -13.78 7.09 -20.51 9.43 Z " fill="#30424D" transform="translate(760.921875,214.46484375)"/>
<path d="M0 0 C5.31 4.23 9.82 8.95 14.36 13.96 C18.41 18.4 22.6 22.62 26.94 26.78 C29 29 29 29 32 34 C2.96 34 -26.08 34 -56 34 C-50.36 28.36 -50.36 28.36 -47.73 25.91 C-47.16 25.38 -46.58 24.84 -45.99 24.29 C-45.39 23.74 -44.8 23.19 -44.19 22.62 C-43.57 22.05 -42.95 21.48 -42.31 20.88 C-38.5 17.37 -34.68 13.88 -30.74 10.5 C-29.5 9.43 -28.28 8.33 -27.07 7.21 C-26.45 6.65 -25.83 6.08 -25.19 5.5 C-24.64 4.99 -24.1 4.49 -23.54 3.97 C-22.78 3.49 -22.78 3.49 -22 3 C-21.01 3.33 -20.02 3.66 -19 4 C-18.42 4.68 -17.85 5.36 -17.25 6.06 C-16.14 7.02 -16.14 7.02 -15 8 C-11.54 8.58 -11.54 8.58 -8 8 C-5.2 6.93 -5.2 6.93 -3 5 C-1.19 2.43 -1.19 2.43 0 0 Z " fill="#FDFCF8" transform="translate(765,138)"/>
<path d="M0 0 C2.4 -0.13 4.52 -0.04 6.89 0.38 C10.2 2.07 10.2 2.07 12.89 4.38 C14.89 6.65 16.54 8.68 17.89 11.38 C17.92 14.77 17.54 18.05 16.89 21.38 C15.2 24.82 15.2 24.82 12.89 27.38 C10.07 29.25 10.07 29.25 6.89 30.38 C3.51 30.88 3.51 30.88 -0.11 30.38 C-3.1 29.06 -5.62 27.48 -8.11 25.38 C-8.61 24.64 -9.1 23.89 -9.61 23.13 C-10.34 19.14 -10.56 15.41 -10.11 11.38 C-8.93 7.57 -8.93 7.57 -7.11 4.38 C-6.41 3.57 -5.71 2.77 -4.99 1.94 C-2.11 0.38 -2.11 0.38 0 0 Z " fill="#344650" transform="translate(557.11328125,243.62109375)"/>
<path d="M0 0 C3.1 0.24 6.1 0.52 9.16 1.12 C12.41 3.18 12.41 3.18 14.16 5.12 C14.04 7.3 14.04 7.3 13.16 10.12 C12.15 10.9 11.14 11.68 10.1 12.49 C9.13 13.36 8.16 14.22 7.16 15.12 C6.66 18.83 6.66 18.83 7.16 22.12 C11.94 22.21 16.44 21.89 21.16 21.12 C21.91 22.87 21.91 22.87 22.16 25.12 C21.54 26.23 21.54 26.23 20.91 27.37 C20 27.94 19.1 28.52 18.16 29.12 C14.45 29.57 10.86 29.6 7.16 29.12 C6.17 28.46 5.18 27.8 4.16 27.12 C1.61 27.21 1.61 27.21 -1.15 27.68 C-3.04 27.89 -4.94 28.04 -6.84 28.12 C-10.28 26.93 -10.28 26.93 -12.84 25.12 C-15.21 22.93 -15.21 22.93 -16.84 21.12 C-16.51 20.13 -16.18 19.14 -15.84 18.12 C-14.16 18.39 -12.5 18.73 -10.84 19.12 C-9.85 19.78 -8.86 20.44 -7.84 21.12 C-5.19 20.81 -5.19 20.81 -2.84 20.12 C-2.55 19.46 -2.26 18.8 -1.96 18.12 C-1.92 17.13 -1.88 16.14 -1.84 15.12 C-3.15 13.11 -3.15 13.11 -4.84 11.12 C-6.52 9.05 -6.52 9.05 -7.84 7.12 C-7.88 6.17 -7.92 5.22 -7.96 4.24 C-7.59 3.54 -7.22 2.84 -6.84 2.12 C-4.44 0.5 -2.92 0.12 0 0 Z " fill="#2F424C" transform="translate(483.83984375,591.8828125)"/>
<path d="M0 0 C2.94 1 2.94 1 6.19 3.25 C8.94 6 8.94 6 10.38 8.31 C10.89 10.79 10.97 12.51 10.75 15 C10.32 17.66 9.77 19.34 8.56 21.81 C8.03 22.53 7.49 23.26 6.94 24 C6.55 24.6 6.15 25.2 5.75 25.81 C5.15 26.2 4.55 26.6 3.94 27 C0.92 27.35 -1.15 27.5 -4.06 27 C-7.37 25.28 -9.71 23.33 -12.44 20.81 C-14.06 18 -14.06 18 -14.45 15.89 C-14.57 13.49 -14.47 11.37 -14.06 9 C-12.5 5.62 -12.5 5.62 -10.06 3 C-6.51 0.96 -4.1 0 0 0 Z " fill="#33454F" transform="translate(920.0625,386)"/>
<path d="M0 0 C9.57 0 19.14 0 29 0 C29 32.34 29 64.68 29 98 C19.43 98 9.86 98 0 98 C0 65.66 0 33.32 0 0 Z M19.5 0.85 C18.7 0.89 17.9 0.94 17.07 0.99 C16.2 1.04 15.32 1.08 14.41 1.13 C13.51 1.19 12.61 1.25 11.69 1.31 C10.77 1.36 9.85 1.41 8.9 1.46 C5.44 1.65 5.44 1.65 2 2 C1.67 2.33 1.34 2.66 1 3 C0.9 5.86 0.86 8.69 0.87 11.54 C0.87 12.44 0.87 13.33 0.87 14.26 C0.86 17.23 0.86 20.21 0.87 23.19 C0.87 25.25 0.87 27.31 0.86 29.36 C0.86 33.69 0.86 38.01 0.87 42.33 C0.88 47.88 0.87 53.43 0.87 58.98 C0.86 63.24 0.86 67.49 0.87 71.74 C0.87 73.79 0.87 75.84 0.86 77.89 C0.86 80.74 0.87 83.6 0.87 86.46 C0.87 87.31 0.87 88.17 0.86 89.05 C0.87 91.03 0.93 93.02 1 95 C1.33 95.33 1.66 95.66 2 96 C6.15 96.38 10.33 96.47 14.5 96.62 C16.27 96.7 16.27 96.7 18.07 96.78 C19.19 96.83 20.31 96.87 21.47 96.91 C22.5 96.95 23.54 97 24.61 97.04 C25.4 97.03 26.19 97.01 27 97 C27.33 96.67 27.66 96.34 28 96 C28.1 93.11 28.13 90.24 28.11 87.35 C28.11 86.44 28.11 85.53 28.11 84.6 C28.11 81.59 28.11 78.57 28.1 75.56 C28.1 73.47 28.09 71.39 28.09 69.31 C28.09 63.81 28.08 58.32 28.07 52.82 C28.06 47.22 28.05 41.61 28.05 36.01 C28.04 25.01 28.02 14 28 3 C23.84 1.51 23.84 1.51 19.5 0.85 Z " fill="#FCFBF9" transform="translate(290,172)"/>
<path d="M0 0 C7.92 0 15.84 0 24 0 C24 0.33 24 0.66 24 1 C17.1 2.38 10.02 2.56 3 3 C3 35.67 3 68.34 3 102 C4.49 101.5 4.49 101.5 6 101 C7.32 101.33 8.64 101.66 10 102 C10.99 99.03 11.98 96.06 13 93 C13.33 93 13.66 93 14 93 C13.67 96.96 13.34 100.92 13 105 C8.71 105 4.42 105 0 105 C0 70.35 0 35.7 0 0 Z " fill="#DEE8E7" transform="translate(169,514)"/>
<path d="M0 0 C1.47 -0.09 2.95 -0.12 4.43 -0.11 C5.37 -0.11 6.31 -0.11 7.28 -0.11 C8.3 -0.11 9.33 -0.1 10.38 -0.1 C11.42 -0.1 12.46 -0.09 13.54 -0.09 C16.88 -0.09 20.22 -0.08 23.56 -0.06 C25.82 -0.06 28.08 -0.05 30.34 -0.05 C35.89 -0.04 41.45 -0.02 47 0 C47.38 1.66 47.71 3.32 48 5 C47.67 5.33 47.34 5.66 47 6 C45.54 6.1 44.07 6.13 42.6 6.13 C41.67 6.13 40.73 6.14 39.77 6.14 C38.76 6.14 37.74 6.13 36.69 6.13 C35.14 6.13 35.14 6.13 33.55 6.14 C31.35 6.14 29.15 6.13 26.95 6.13 C23.58 6.13 20.21 6.13 16.83 6.14 C14.7 6.14 12.57 6.13 10.44 6.13 C9.43 6.13 8.41 6.14 7.37 6.14 C6.43 6.14 5.49 6.13 4.53 6.13 C3.7 6.13 2.87 6.13 2.02 6.13 C1.35 6.09 0.69 6.04 0 6 C-0.66 5.67 -1.32 5.34 -2 5 C-1.7 3.66 -1.36 2.33 -1 1 C-0.67 0.67 -0.34 0.34 0 0 Z " fill="#2E404B" transform="translate(476,374)"/>
<path d="M0 0 C3.25 -0.38 3.25 -0.38 7 0 C9.94 2.12 9.94 2.12 12 5 C12.5 8 12.5 8 12 11 C10.75 13.75 10.75 13.75 9 16 C8.1 16.68 8.1 16.68 7.19 17.38 C5 18 5 18 1.94 17.88 C0.97 17.59 -0 17.3 -1 17 C-1.62 16.46 -2.24 15.93 -2.88 15.38 C-4 13 -4 13 -4.38 9.56 C-4.25 8.39 -4.13 7.21 -4 6 C-2.84 3.69 -1.83 1.83 0 0 Z " fill="#FBFAF7" transform="translate(557,250)"/>
<path d="M0 0 C1.21 -0.34 1.21 -0.34 2.44 -0.69 C3.28 -0.46 4.13 -0.23 5 0 C7.22 2.07 8.58 3.42 10 6 C10.5 9.12 10.5 9.12 10 12 C9.65 12.78 9.3 13.57 8.94 14.38 C8.3 14.91 7.66 15.45 7 16 C3.56 16.5 3.56 16.5 0 16 C-0.8 15.48 -1.61 14.97 -2.44 14.44 C-2.95 13.63 -3.47 12.83 -4 12 C-4.5 8.56 -4.5 8.56 -4 5 C-2.31 2.06 -2.31 2.06 0 0 Z " fill="#FAFAF7" transform="translate(915,391)"/>
<path d="M0 0 C7.2 2.13 13.59 5.07 20 9 C20.66 9.66 21.32 10.32 22 11 C21.62 13.12 21.62 13.12 21 15 C17.82 14.72 15.01 14.4 12.03 13.23 C10.03 12.27 8.08 11.25 6.12 10.19 C5.45 9.84 4.77 9.5 4.08 9.15 C2.13 8.11 2.13 8.11 -1 6 C-1.82 3.99 -1.82 3.99 -2 2 C-1.34 1.34 -0.68 0.68 0 0 Z " fill="#30434D" transform="translate(534,614)"/>
<path d="M0 0 C5.54 0.24 11.19 1.08 16.48 2.81 C18.02 3.47 19.52 4.22 21 5 C20.67 6.32 20.34 7.64 20 9 C12.32 9.21 5.44 9.02 -2 7 C-2.33 5.35 -2.66 3.7 -3 2 C-2.01 1.34 -1.02 0.68 0 0 Z " fill="#30424D" transform="translate(456,576)"/>
<path d="M0 0 C0.33 0 0.66 0 1 0 C1 39.27 1 78.54 1 119 C-7.25 119 -15.5 119 -24 119 C-24 118.67 -24 118.34 -24 118 C-16.74 117.67 -9.48 117.34 -2 117 C-1.67 116.34 -1.34 115.68 -1 115 C-0.9 113.47 -0.85 111.93 -0.84 110.39 C-0.83 108.94 -0.83 108.94 -0.81 107.45 C-0.81 106.38 -0.8 105.32 -0.79 104.22 C-0.78 102.53 -0.78 102.53 -0.76 100.82 C-0.73 97.09 -0.71 93.37 -0.68 89.65 C-0.66 87.07 -0.64 84.5 -0.62 81.92 C-0.57 75.83 -0.53 69.73 -0.48 63.64 C-0.43 56.7 -0.38 49.76 -0.32 42.82 C-0.21 28.55 -0.1 14.27 0 0 Z " fill="#FDFDFA" transform="translate(248,150)"/>
<path d="M0 0 C1.64 -0.02 3.28 0.04 4.91 0.12 C6.39 0.19 6.39 0.19 7.91 0.27 C9.47 0.35 9.47 0.35 11.06 0.44 C12.63 0.52 12.63 0.52 14.23 0.6 C16.82 0.73 19.41 0.86 22 1 C22 2.32 22 3.64 22 5 C21.34 5.66 20.68 6.32 20 7 C18.08 7.26 18.08 7.26 15.75 7.27 C14.5 7.27 14.5 7.27 13.22 7.27 C12.34 7.27 11.46 7.26 10.56 7.25 C9.69 7.26 8.82 7.27 7.92 7.27 C7.08 7.27 6.24 7.27 5.38 7.27 C4.61 7.26 3.84 7.26 3.05 7.26 C2.04 7.13 2.04 7.13 1 7 C0.01 6.34 -0.98 5.68 -2 5 C-1.7 3.66 -1.36 2.33 -1 1 C-0.67 0.67 -0.34 0.34 0 0 Z " fill="#2F424C" transform="translate(500,581)"/>
<path d="M0 0 C5.16 -0.33 9.4 -0.07 14.38 1.38 C17.4 2.33 19.32 3.21 22 5 C21.67 6.32 21.34 7.64 21 9 C15.77 9.22 11.56 8.52 6.56 7 C5.33 6.63 4.09 6.26 2.82 5.88 C1.42 5.44 1.42 5.44 0 5 C-0.56 3.06 -0.56 3.06 -1 1 C-0.67 0.67 -0.34 0.34 0 0 Z " fill="#31434E" transform="translate(537,605)"/>
<path d="M0 0 C0.99 1.32 1.98 2.64 3 4 C2.67 4.33 2.34 4.66 2 5 C1.9 6.55 1.87 8.1 1.87 9.65 C1.87 10.64 1.86 11.63 1.86 12.66 C1.86 13.74 1.87 14.83 1.87 15.95 C1.87 17.06 1.87 18.18 1.86 19.33 C1.86 21.71 1.87 24.09 1.87 26.47 C1.87 30.06 1.87 33.65 1.86 37.25 C1.86 48.87 1.94 60.42 3 72 C5.88 72.96 7.68 73.12 10.67 73.1 C11.56 73.09 12.45 73.09 13.37 73.09 C14.3 73.08 15.23 73.07 16.19 73.06 C17.13 73.06 18.07 73.05 19.04 73.05 C21.36 73.04 23.68 73.02 26 73 C25.01 73.99 25.01 73.99 24 75 C16.08 75.33 8.16 75.66 0 76 C0 50.92 0 25.84 0 0 Z " fill="#FDFDFB" transform="translate(221,367)"/>
<path d="M0 0 C0 24.75 0 49.5 0 75 C-0.33 75 -0.66 75 -1 75 C-1.01 74.2 -1.02 73.4 -1.03 72.58 C-1.13 65.03 -1.23 57.48 -1.34 49.94 C-1.39 46.06 -1.45 42.18 -1.5 38.3 C-1.55 34.55 -1.6 30.8 -1.65 27.06 C-1.67 25.63 -1.69 24.2 -1.71 22.78 C-1.73 20.77 -1.76 18.77 -1.79 16.76 C-1.81 15.62 -1.83 14.48 -1.84 13.31 C-2.01 9.8 -2.33 6.45 -3 3 C-4.94 1.49 -4.94 1.49 -7 1 C-2.25 0 -2.25 0 0 0 Z " fill="#DFE0DD" transform="translate(195,514)"/>
<path d="M0 0 C16.86 -0.22 16.86 -0.22 25 1 C25.66 1.33 26.32 1.66 27 2 C26.67 4.64 26.34 7.28 26 10 C25.67 10 25.34 10 25 10 C24.67 8.02 24.34 6.04 24 4 C21.65 3.66 19.29 3.33 16.94 3 C16.28 2.9 15.62 2.81 14.95 2.71 C10.52 2.1 6.54 2 2 2 C0.68 8.93 -0.64 15.86 -2 23 C-2.33 23 -2.66 23 -3 23 C-2.53 15.18 -1.78 7.64 0 0 Z " fill="#99BBBE" transform="translate(320,312)"/>
<path d="M0 0 C0.33 0 0.66 0 1 0 C1.33 4.95 1.66 9.9 2 15 C4.88 15.96 6.68 16.12 9.67 16.1 C10.56 16.09 11.45 16.09 12.37 16.09 C13.3 16.08 14.23 16.07 15.19 16.06 C16.13 16.06 17.07 16.05 18.04 16.05 C20.36 16.04 22.68 16.02 25 16 C24.34 16.66 23.68 17.32 23 18 C20.57 18.32 20.57 18.32 17.55 18.41 C16.48 18.45 15.4 18.49 14.29 18.53 C12.6 18.58 12.6 18.58 10.88 18.62 C9.74 18.66 8.6 18.7 7.43 18.74 C4.62 18.84 1.81 18.92 -1 19 C-1.01 17.09 -1.02 15.18 -1.03 13.27 C-1.04 12.2 -1.04 11.14 -1.05 10.04 C-0.99 6.59 -0.62 3.39 0 0 Z " fill="#F8F7F4" transform="translate(222,424)"/>
<path d="M0 0 C3 -0.12 3 -0.12 6 0 C6.33 0.33 6.66 0.66 7 1 C7.12 4 7.12 4 7 7 C6.67 7.33 6.34 7.66 6 8 C3 8.12 3 8.12 0 8 C-0.33 7.67 -0.66 7.34 -1 7 C-1.12 4 -1.12 4 -1 1 C-0.67 0.67 -0.34 0.34 0 0 Z " fill="#2E414C" transform="translate(167,780)"/>
<path d="M0 0 C2.56 0.31 2.56 0.31 5 1 C5.33 1.33 5.66 1.66 6 2 C6.19 4.44 6.19 4.44 6 7 C5.34 7.66 4.68 8.32 4 9 C1.44 8.69 1.44 8.69 -1 8 C-1.33 7.67 -1.66 7.34 -2 7 C-2.19 4.56 -2.19 4.56 -2 2 C-1.34 1.34 -0.68 0.68 0 0 Z " fill="#31444E" transform="translate(479,158)"/>
<path d="M0 0 C2.34 0.29 4.67 0.62 7 1 C6.81 3.38 6.81 3.38 6 6 C3.56 7.38 3.56 7.38 1 8 C0.34 7.67 -0.32 7.34 -1 7 C-1.04 5 -1.04 3 -1 1 C-0.67 0.67 -0.34 0.34 0 0 Z " fill="#F9F9F7" transform="translate(752,133)"/>
<path d="M0 0 C0.59 0.48 1.18 0.96 1.79 1.46 C4.79 3.1 4.79 3.1 7.48 3.34 C10.42 3.52 13.36 3.62 16.31 3.69 C17.85 3.74 17.85 3.74 19.42 3.79 C21.95 3.87 24.47 3.94 27 4 C27 4.66 27 5.32 27 6 C17.96 6.17 9.01 5.63 0 5 C0 3.35 0 1.7 0 0 Z " fill="#9BBEC1" transform="translate(298,440)"/>
<path d="M0 0 C2.57 0.11 4.55 0.29 7 1 C10.16 2.79 13.09 4.84 16 7 C15.67 7.66 15.34 8.32 15 9 C14.13 8.39 14.13 8.39 13.24 7.76 C9.69 5.31 6.48 3.19 2.44 1.62 C1.63 1.42 0.83 1.21 0 1 C0 0.67 0 0.34 0 0 Z " fill="#F6F6F4" transform="translate(243,343)"/>
<path d="M0 0 C0.66 0 1.32 0 2 0 C0.67 3.59 -0.96 6.75 -3 10 C-3.33 9.34 -3.66 8.68 -4 8 C-4.04 6.33 -4.04 4.67 -4 3 C-3.01 2.67 -2.02 2.34 -1 2 C-0.67 1.34 -0.34 0.68 0 0 Z " fill="#FDFCF9" transform="translate(188,592)"/>
<path d="M0 0 C0.66 0.66 1.32 1.32 2 2 C1.75 5.56 1.75 5.56 1 9 C0.01 9.5 0.01 9.5 -1 10 C-0.67 6.7 -0.34 3.4 0 0 Z " fill="#E5E9E8" transform="translate(350,336)"/>
</svg>
