<svg xmlns="http://www.w3.org/2000/svg" width="1365.333" height="1365.333" preserveAspectRatio="xMidYMid meet" version="1.0" viewBox="0 0 1024 1024"><g fill="#000" stroke="none"><path d="M119.9 93.7c-1.2 1.3-1.5 60.2-1.7 374.3-.3 338.2-.2 372.7 1.2 373.9.9.7 2.3 1.1 3.1.7 1.3-.5 1.5-13.1 1.5-108.6V626h20.3c11.1 0 23.8-.3 28.3-.6l8.1-.7.7 7.4c.4 4.1 1.8 12.3 3.1 18.4 1.3 6 6.9 34.6 12.5 63.5 5.5 28.9 11.7 60.6 13.6 70.5 4.5 23.4 7.4 29.7 18.9 41.3 13 13 26 18.2 45.7 18.2 4.8 0 8.8.2 8.8.4s-.9 3.2-2 6.7c-2.8 9.4-5.6 21.9-7.5 34.4-.9 6-2.1 13.1-2.7 15.7l-1 4.8-88.1.2-88.2.3v5l87.1.3 87 .2-.4 5.8c-.7 9.7 4 13.2 17.8 13.2 9.8 0 12.8-2 16.6-11.1l3.1-7.4h530.8l2.7 7c4 10 6.1 11.5 15.5 11.5 14.7 0 19.3-3.1 19.3-13.1V912l31.8-.2 31.7-.3v-5l-32.9-.5-32.9-.5-3.2-16.5c-1.8-9.1-4.4-22.1-5.9-29s-2.8-13.2-3-14.1c-.3-1.4 1.3-1.7 10.8-2.2 25.2-1.3 43.6-12.5 54-33 4.2-8.2 3.2-3.4 19.6-91.7 6.2-32.7 12.5-66.7 14.2-75.5 4.5-24 3.4-34.3-5.4-48.2-5.6-8.9-12.4-14.7-20.6-17.5-6-2.1-8.4-2.3-24-2.2-16.7 0-17.3 0-17.7-2-.2-1.2-.9-8.9-1.5-17.1-.6-8.3-2-19.4-3.1-24.7-10.1-50.1-47.4-85.7-100.9-96.1-10.3-2-13.8-2.1-200.8-2.4l-190.2-.4.1-169.4c0-93.2-.2-169.9-.6-170.5-.4-.7-44.7-1-136.4-1-125.2 0-136 .1-137.2 1.7M388 184v86h-63v-51.3c0-38.6-.3-51.6-1.2-52.5-.8-.8-6.5-1.2-19-1.2-16.6 0-17.9.1-19.8 2-2 2-2.1 2.9-1.8 52.5l.3 50.5h-27.4l-.3-62.3c-.4-65.9-.4-66.2-5.1-71.5-1.9-2.1-2.8-2.2-15.7-2.2-13.4 0-13.7.1-16.1 2.6-2 2.2-2.4 3.8-2.7 10.3l-.4 7.8-5.2.7c-6.6.8-17 .8-19 0-1.3-.5-1.6-2.2-1.6-8.6 0-7-.3-8.2-2.5-10.3-2.4-2.5-2.7-2.5-19.9-2.5-16.9 0-17.5.1-19 2.2-1.4 2-1.6 10.1-1.6 68V270h-22V98h263zm-206-42.3c0 .5-6 .8-13.2.8h-13.3v126h26l.5-62.5.5-62.5.3 63.2.2 63.3h-29V141h14c7.7 0 14 .3 14 .7m65.3 4c.9 2.7 1.7 5.9 1.8 7.3s.1 28.3.1 59.7L249 270h-28l.1-49.8c0-48.7.8-75.6 2.3-78 .5-.8 4.2-1.2 11.5-1.2h10.7zm-32.8 70.8V270H190V163h24.5zM319 221v49h-29v-98h29zm69 84v28h-14.4c-11.9 0-14.5-.3-15-1.5-.7-1.8-4.2-2-5.3-.3-.4.7-1 24.6-1.3 53.2l-.5 51.8-9.3 2.8-9.4 2.8.7-4.7c1.7-11.4 16.8-99.8 18.9-110.3 1.3-6.4 2.1-12.8 1.9-14.2-1-4.8-2.8-5.5-20.2-6.8-16.3-1.2-16.3-1.2-18.1 1-1 1.2-2.6 6.3-3.5 11.4-5 27.3-11 61.1-16.2 92l-5.8 34.8h-16.2c-9 0-16.3-.2-16.3-.4s1.8-2.3 4-4.7c8.3-9 11.3-19.6 12.9-45.4 1.9-30-2.8-44.8-16.9-53.3-6.6-3.9-10.3-5-21.8-6.3-19-2.2-23.2 1.2-23.2 19.1v10h-24.1l.3-25.9c.2-24.2.1-26.1-1.6-28-1.8-2-3-2.1-19.4-2.1-14.9 0-17.8.2-19.4 1.7-1.7 1.5-1.8 4.9-1.8 67.5V443h-9.4c-5.2 0-10.1.3-11 .6-1.5.6-1.6-7.2-1.6-83.2v-83.9l131.5.3 131.5.2zm-47 8.6 5.5.6-.4 4.2-.5 4.1-.5-3.4c-.7-4.2-2.3-4.8-14.8-5.3l-8.8-.3-2.1 11c-1.2 6-2.2 10.3-2.3 9.5-.1-1.7 2.7-18.7 3.5-20.9.4-1.4 2.5-1.3 20.4.5m-159 2.1c.3.3.6 29 .8 63.8l.3 63.4-14.7.3c-11.5.2-14.8 0-15.2-1-.2-.8-.2-17.2.1-36.5.4-19.4.7-48 .7-63.6v-28.3l13.8.7c7.5.4 13.9.9 14.2 1.2m155.4 55.4c-4.3 25.9-8 46.6-8.2 46s2.8-20.3 6.7-43.8 7.4-44.5 7.7-46.6.8-3.6 1.1-3.3-3 21.7-7.3 47.7m-23.9-13c-3.5 19.1-5.9 30-5.1 23.4.9-7.6 8.1-45.8 8.4-44.4.2.9-1.3 10.3-3.3 21m74.5 28.2v46.4l-12.2.7c-6.8.3-13.3.9-14.5 1.2l-2.3.6V340h29zM246 343c1.9.5 5.6 2.3 8.2 3.9 3.8 2.5 5.3 4.3 8.7 11.3 6.5 13.2 7.5 27.2 3.6 52.3-2.5 16.1-6.3 23.5-14.2 28.2-4.4 2.6-5.8 2.8-18 3.3l-13.3.5v-30.8c0-16.9-.5-38.4-1.1-47.8-1.4-22.9-1.2-23.2 14.6-22.3 4.4.3 9.6.9 11.5 1.4m-32 64.5V444h-12c-10.7 0-12-.2-12.1-1.8 0-.9-.2-17.3-.4-36.5l-.3-34.7H214zm93-13.1c-.8 4.8-1.5 8.4-1.8 8.2-.2-.3.1-4.3.9-9.1.7-4.7 1.4-8.3 1.7-8.1.2.3-.1 4.3-.8 9m-4.6 27.6c-1.6 9.4-3 16.6-3.2 16-.5-1.3 5-34.1 5.6-33.6.2.3-.8 8.2-2.4 17.6m26.3.7c-.3 1-.5.4-.5-1.2 0-1.7.2-2.4.5-1.8.2.7.2 2.1 0 3m-1.7 11.7c-.8 4.8-1.5 8.4-1.8 8.2-.2-.3.1-4.3.9-9.1.7-4.7 1.4-8.3 1.7-8.1.2.3-.1 4.3-.8 9m448 6.7c28.8 3.4 53.7 15 73 33.9 23.8 23.3 32.3 46.2 35.5 95.7.6 9.2.5 10.3-.9 10.3-2.7 0-9.7 3.9-15.1 8.4-9 7.5-8.5 7.3-7.8 2.9.3-2.1 2.1-11.3 3.9-20.5 5.4-26.5 4.5-31.8-5.8-35.6-5.4-2-10.9-2.5-106.3-8.8-28.5-1.9-37.3-1.7-41.1 1.2-5.3 3.9-8.9 14-12.4 34.8-1.1 6.6-2.4 12.4-2.9 12.9-.6.6-4.5.4-10.8-.8-6.7-1.2-17.4-1.9-34-2.2-26.4-.6-33.6.1-62.8 5.7-8.2 1.7-17.8 3.4-21.3 3.8l-6.3.9.2-24.6c.3-44.7-2.7-53-16.6-45.6-6.7 3.6-16 10.9-23 18.2l-6 6.3-8-1.5c-4.4-.8-12.3-1.4-17.6-1.5h-9.7l-7.3-9.7c-9-12-14.4-18-18-19.9-4.2-2.1-8.6-1.8-11.4 1-5.8 5.8-15.8 51-15.9 71.9l-.1 11.9-7.6-.7c-5.7-.5-7.9-.4-8.4.6-1.3 1.9 2.9 4.6 9.3 5.9 6.1 1.3 8.2 2.5 8.2 4.6 0 1.4-.5 1.6-11.5 3.6-6.5 1.2-7 1.5-7 3.8v2.5h21l4.6 8.6 4.5 8.7-1.6 7c-1.9 8-3.5 10.8-9.5 16.6-9.3 9.1-19.4 11.7-52.2 13.5-28 1.6-39.4 3.9-48.5 9.9-4.6 3-6.8 6.3-7.2 10.8-.2 1.9-.7 3.8-1 4.2-.4.4-5.6 1-11.5 1.3-9.2.4-11.6.9-17.4 3.7-8.3 3.9-16.9 12.2-21.5 20.8-3.8 7.4-4.1 11.7-.9 13.8 1.5 1 15.4 3 42.7 6.1 22.3 2.5 51.3 6.1 64.5 8 41.7 6 83.9 11.5 87 11.4 1.7 0 14.4-5.7 29.5-13.2 24.1-12 26.5-13.4 26.5-15.7 0-1.8-.6-2.6-2-2.8-1.2-.2-13.6 5.3-27.6 12.1l-25.5 12.3-33.4-4.2c-18.4-2.4-34.6-4.4-36-4.6-1.9-.2 0-1.5 8.3-5.6 10.3-5 12.1-6.8 9.4-9-1.7-1.4-8.6 1.1-21 7.6-5.9 3.2-11.1 5.2-13 5.2-5.2 0-103.7-12.7-104.4-13.4-1.2-1.2 4-9.6 9.1-14.8 3-3 7.7-6.3 11.5-8.2 6.1-2.8 7.4-3.1 16.9-3.1h10.4l3 3.8c4.9 6 7.9 7.2 18.8 7.1 5.2 0 15.8-.8 23.5-1.8 9.6-1.2 18.8-1.7 29.4-1.4l15.5.3-.3 5.5c-.3 6.7 2.3 11.2 8.4 14.8 3.8 2.2 4.7 2.3 17 1.8 7.2-.3 16.8-1.2 21.5-2 4.7-.9 18.7-3.1 31.2-5 23.2-3.6 31.7-6 37.8-10.8 2.9-2.3 3.3-2.3 16.2-1.6 7.3.4 20.9 1 30.2 1.4l16.8.6 1.7 3.1c3 5.6 8.2 10.6 12.9 12.4 4.3 1.6 8.3 1.8 45 1.6 30.7-.1 42.8-.5 51-1.7 11.5-1.7 29.3-6.1 38.2-9.4l5.5-2.1.8 3.7c1.9 8.6-2.4 20.5-9.9 27.1-5.3 4.6-19.5 12.2-27.2 14.5-8.9 2.6-15.8 3.5-35.1 4.6-25 1.4-36.8 4.2-46.7 11.1-11.2 7.7-12.8 19.7-3.7 28 7.6 7.2 17.1 8.5 30.8 4.4 8.1-2.5 11.4-2.8 31.5-3.6 15.6-.6 25.3-1.4 31.5-2.7 18.7-4 38.4-15 51.1-28.5 8.4-8.9 12.6-15.8 16.8-27.4 3-8.5 3.1-9.3 3.1-25.4v-16.7l3 .4c1.7.2 11.3 1.1 21.5 2 20.2 1.8 22.9 2.6 30.1 9.1 2.2 2 5.2 5.6 6.6 8.1 4.7 8 5.3 13.1 5.3 47.3 0 26.8.2 31.8 1.5 32.9.8.7 2.2 1 3 .6 1.4-.5 1.6-4.6 1.3-36.8l-.3-36.3-3.3-6.9c-3.7-8-8.5-14.2-13.4-17.5l-3.4-2.4 1.9-3.8c2-4 3.1-9.8 10.2-53.9 5-31.2 6.5-35.9 14.3-45.6 11.3-14.3 36.1-22.3 56.1-18 16.5 3.5 25.1 10.8 30.1 25.5 3.5 10.4 2.8 16.6-6.5 66.4-4.7 24.8-11.7 62.3-15.6 83.2-3.8 20.9-7.9 40.8-9 44.2-2.3 7.1-10.1 18.6-15.5 23.2-2.1 1.7-8.1 5-13.4 7.3l-9.5 4.3-309 .3c-305.6.2-309.1.2-315.5-1.8-9.2-2.8-18.3-8.5-25-15.7-9.9-10.6-13-19-19.6-54-1.9-10.3-8.5-44.5-14.5-75.8-10.5-54.3-11-57.5-10.6-67 .6-12.7 3-19.5 9.8-26.9 14.8-16.3 42.7-18.2 65.5-4.5 13.1 7.9 19.1 19.1 24.1 44.8 6.9 35.9 6.6 34.6 9.1 34.9 4.2.6 4.2.2-2.3-35.3-3.2-17.5-4.2-21.1-7.8-28.4-6.3-12.6-15.2-21.4-24-23.6-2.2-.6-2.7-1.3-2.7-3.9 0-6.6 3.2-36.4 4.6-43.6 3.9-19.2 12.8-38.5 24.4-53.1 18.3-23 52.1-40.6 82.5-42.8 16.5-1.1 393.1-.3 403.5 1M301.5 443c1.2.5 7 1 12.9 1.1 5.8.1 10.6.6 10.6.9 0 .8-15.1.3-22.7-.6-3.6-.4-4.3-.9-4.2-2.7 0-1.2.3-1.6.6-.9s1.5 1.7 2.8 2.2m8.3 8.6 4.3.6-6.8 4.6c-14.5 9.6-32.4 31.2-40.2 48.4-6.3 13.8-10 29.9-12.1 52.3-1.9 21-1.8 20.8-4.3 20.1-1.2-.3-6.3-1.1-11.3-1.6-12.3-1.4-24.5 0-32.4 3.8l-6 2.8V552c0-32.9-.7-40.4-4.1-43.3-3-2.4-28.2-2.6-31.7-.1l-2.2 1.5V619h-38V449.9l90.3.5c49.6.4 92.1.9 94.5 1.2m137 61.4c-.7 1-1.4 1.8-1.5 1.6-.6-.6.9-3.6 1.8-3.6.5 0 .4.9-.3 2m8.8 3.2 2.9 3.3-3.2-2.9c-3.1-2.8-3.8-3.6-3-3.6.2 0 1.6 1.5 3.3 3.2m-261.2.9c.3 1.7.6 18.4.6 37V588l-3.5 3.8c-4.6 5.1-7.2 11.1-8.7 19.9l-1.2 7.3H169V514h24.8zm357.3 5.1c-.3.8-.6.5-.6-.6-.1-1.1.2-1.7.5-1.3.3.3.4 1.2.1 1.9m-89.6 1.5c1.3 1.6 1.2 1.7-.3.4-1.7-1.3-2.2-2.1-1.4-2.1.2 0 1 .8 1.7 1.7m-19.4 1.5c-.3.8-.6.5-.6-.6-.1-1.1.2-1.7.5-1.3.3.3.4 1.2.1 1.9m24.4 4.5c1.3 1.6 1.2 1.7-.3.4-1.7-1.3-2.2-2.1-1.4-2.1.2 0 1 .8 1.7 1.7m85.6 1.5c-.3.7-.5.2-.5-1.2s.2-1.9.5-1.3c.2.7.2 1.9 0 2.5m189.5 2.3c56.4 3.7 109.5 7.6 112 8.1 1.5.3 3.4 1.5 4.4 2.5 1.9 2.1 1.8 4.8-1.4 23.4-1.2 6.6-3.2 19.2-4.6 28s-4.6 28.4-7 43.5c-2.5 15.1-5.4 33.5-6.6 40.9-2.2 14.3-4 18.8-7.9 19.8-2.6.6-25-1-38.6-2.9l-8-1-5.3-10.2c-3.9-7.5-6-13.4-8.3-22.6-6.3-26.3-13.6-43.9-22.1-53.5-6.8-7.8-21.4-18.3-33.5-24.2l-11.3-5.5v-7.7c0-9 2.8-23.6 6-30.9 2.1-4.8 6-9.2 8.1-9.2.4 0 11.3.7 24.1 1.5m-222.5 13.1c-.3.3-1.2.4-1.9.1-.8-.3-.5-.6.6-.6 1.1-.1 1.7.2 1.3.5m-60.4 29.1c-.7.2-1.9.2-2.5 0-.7-.3-.2-.5 1.2-.5s1.9.2 1.3.5m5.4.9c-.3.3-1.2.4-1.9.1-.8-.3-.5-.6.6-.6 1.1-.1 1.7.2 1.3.5m172.6 3.1c-1.8.2-4.8.2-6.5 0-1.8-.2-.4-.4 3.2-.4s5 .2 3.3.4m14 0c-1.3.2-3.5.2-5 0-1.6-.2-.5-.4 2.2-.4 2.8 0 4 .2 2.8.4m-28 1c-.7.2-2.1.2-3 0-1-.3-.4-.5 1.2-.5 1.7 0 2.4.2 1.8.5m45 0c-.7.2-2.1.2-3 0-1-.3-.4-.5 1.2-.5 1.7 0 2.4.2 1.8.5m-53 1c-.7.2-1.9.2-2.5 0-.7-.3-.2-.5 1.2-.5s1.9.2 1.3.5m61.4-.1c-.3.3-1.2.4-1.9.1-.8-.3-.5-.6.6-.6 1.1-.1 1.7.2 1.3.5m-68.4 1.1c-.7.2-1.9.2-2.5 0-.7-.3-.2-.5 1.2-.5s1.9.2 1.3.5m-149 2c-.7.2-1.9.2-2.5 0-.7-.3-.2-.5 1.2-.5s1.9.2 1.3.5m93.4 3c-.3 1-.5.4-.5-1.2 0-1.7.2-2.4.5-1.8.2.7.2 2.1 0 3m-87.4-2c-.7.2-1.9.2-2.5 0-.7-.3-.2-.5 1.2-.5s1.9.2 1.3.5m37.4 2.9c-.3.3-1.2.4-1.9.1-.8-.3-.5-.6.6-.6 1.1-.1 1.7.2 1.3.5m73 0c-.3.3-1.2.4-1.9.1-.8-.3-.5-.6.6-.6 1.1-.1 1.7.2 1.3.5m-5 1c-.3.3-1.2.4-1.9.1-.8-.3-.5-.6.6-.6 1.1-.1 1.7.2 1.3.5m-4 1c-.3.3-1.2.4-1.9.1-.8-.3-.5-.6.6-.6 1.1-.1 1.7.2 1.3.5m-80.9 1.1c-1 .2-2.8.2-4 0-1.3-.2-.5-.4 1.7-.4 2.2-.1 3.2.1 2.3.4m233.2 1.8c1.7.9 3 1.8 3 2.1 0 .4-5.9-2.3-6.9-3.2s1.3-.3 3.9 1.1m-285.3 3.7c-.3.8-.6.5-.6-.6-.1-1.1.2-1.7.5-1.3.3.3.4 1.2.1 1.9m294.8 2.8c1 1.1 1.6 2 1.3 2s-1.3-.9-2.3-2-1.6-2-1.3-2 1.3.9 2.3 2m9.6 8.7c1.3 1.6 1.2 1.7-.3.4-1-.7-1.8-1.5-1.8-1.7 0-.8.8-.3 2.1 1.3m-196.4 2.9c-.3.3-1.2.4-1.9.1-.8-.3-.5-.6.6-.6 1.1-.1 1.7.2 1.3.5m127 3c-.3.3-1.2.4-1.9.1-.8-.3-.5-.6.6-.6 1.1-.1 1.7.2 1.3.5m-181.3 4.3c.4.5-.3.7-1.4.4-2.3-.6-2.6-1.3-.6-1.3.8 0 1.7.4 2 .9m-8.7 1.7c-.3.3-1.2.4-1.9.1-.8-.3-.5-.6.6-.6 1.1-.1 1.7.2 1.3.5m167.3 4.7c0 .2-1 1.2-2.2 2.3l-2.3 1.9 1.9-2.3c1.8-2.1 2.6-2.7 2.6-1.9m1 9c0 .2-1.5 1.6-3.2 3.3l-3.3 2.9 2.9-3.3c2.8-3 3.6-3.7 3.6-2.9m-19.3 17.9c-.3.8-.6.5-.6-.6-.1-1.1.2-1.7.5-1.3.3.3.4 1.2.1 1.9m7 0c-.3.8-.6.5-.6-.6-.1-1.1.2-1.7.5-1.3.3.3.4 1.2.1 1.9m127 1c-.3.8-.6.5-.6-.6-.1-1.1.2-1.7.5-1.3.3.3.4 1.2.1 1.9M436 655.4c0 .2-.8 1-1.7 1.7-1.6 1.3-1.7 1.2-.4-.4s2.1-2.1 2.1-1.3m190.7 7.8c-.2 1.8-.4.6-.4-2.7s.2-4.8.4-3.3.2 4.2 0 6m7-2c-.2 1.3-.4.5-.4-1.7-.1-2.2.1-3.2.4-2.3.2 1 .2 2.8 0 4m-226.4 8.5c-.7.2-1.9.2-2.5 0-.7-.3-.2-.5 1.2-.5s1.9.2 1.3.5m-8.5 1c-1 .2-2.6.2-3.5 0-1-.3-.2-.5 1.7-.5s2.7.2 1.8.5m-13.5 1c-.7.2-2.1.2-3 0-1-.3-.4-.5 1.2-.5 1.7 0 2.4.2 1.8.5m381.4 1.5c-.3.8-.6.5-.6-.6-.1-1.1.2-1.7.5-1.3.3.3.4 1.2.1 1.9m-391.9-.5c-1 .2-2.8.2-4 0-1.3-.2-.5-.4 1.7-.4 2.2-.1 3.2.1 2.3.4m-12.5 1c-.7.2-2.1.2-3 0-1-.3-.4-.5 1.2-.5 1.7 0 2.4.2 1.8.5m-8 1c-.7.2-1.9.2-2.5 0-.7-.3-.2-.5 1.2-.5s1.9.2 1.3.5m288.3 3.5 2.9 3.3-3.2-2.9c-3.1-2.8-3.8-3.6-3-3.6.2 0 1.6 1.5 3.3 3.2m-9.5.5c1.3 1.6 1.2 1.7-.3.4-1-.7-1.8-1.5-1.8-1.7 0-.8.8-.3 2.1 1.3m-296.6.5c-1.1.6-2.9 1.8-4 2.7-1.2.9-.8.4.7-1.2 1.6-1.5 3.4-2.7 4.1-2.7.6 0 .3.6-.8 1.2m122.2 4.4c-.3.3-1.2.4-1.9.1-.8-.3-.5-.6.6-.6 1.1-.1 1.7.2 1.3.5m175.6 4.1c-.7.2-1.9.2-2.5 0-.7-.3-.2-.5 1.2-.5s1.9.2 1.3.5m-159.6.9c-.3.3-1.2.4-1.9.1-.8-.3-.5-.6.6-.6 1.1-.1 1.7.2 1.3.5m149.1.1c-1 .2-2.6.2-3.5 0-1-.3-.2-.5 1.7-.5s2.7.2 1.8.5m-83.8.6c0 .2-1 1.2-2.2 2.3l-2.3 1.9 1.9-2.3c1.8-2.1 2.6-2.7 2.6-1.9m75.7.3c-.3.3-1.2.4-1.9.1-.8-.3-.5-.6.6-.6 1.1-.1 1.7.2 1.3.5M427 691.4c0 .2-.7.7-1.6 1-.8.3-1.2.2-.9-.4.6-1 2.5-1.4 2.5-.6m181 .6c-.8.5-1.9 1-2.5 1-.5 0-.3-.5.5-1s2-1 2.5-1c.6 0 .3.5-.5 1m-154.3.6c-.3.3-1.2.4-1.9.1-.8-.3-.5-.6.6-.6 1.1-.1 1.7.2 1.3.5m81.3.7c0 .2-1 1.2-2.2 2.3l-2.3 1.9 1.9-2.3c1.8-2.1 2.6-2.7 2.6-1.9m117.8 1.4c-1 .2-2.8.2-4 0-1.3-.2-.5-.4 1.7-.4 2.2-.1 3.2.1 2.3.4m-13.1.9c-.3.3-1.2.4-1.9.1-.8-.3-.5-.6.6-.6 1.1-.1 1.7.2 1.3.5m21.6.1c-.7.2-1.9.2-2.5 0-.7-.3-.2-.5 1.2-.5s1.9.2 1.3.5m-62.3.6c0 .2-1.7 1.9-3.7 3.8l-3.8 3.4 3.4-3.8c3.3-3.4 4.1-4.2 4.1-3.4m28.8.4c-1.5.2-4.2.2-6 0s-.6-.4 2.7-.4 4.8.2 3.3.4m-226.5 1c-3.4.2-9.3.2-13 0s-.9-.3 6.2-.3c7.2 0 10.2.1 6.8.3m11.4-.1c-.3.3-1.2.4-1.9.1-.8-.3-.5-.6.6-.6 1.1-.1 1.7.2 1.3.5m203 0c-.3.3-1.2.4-1.9.1-.8-.3-.5-.6.6-.6 1.1-.1 1.7.2 1.3.5m-238.4 1.1c-.7.2-1.9.2-2.5 0-.7-.3-.2-.5 1.2-.5s1.9.2 1.3.5m151.7-.3c0 .2-.8 1-1.7 1.7-1.6 1.3-1.7 1.2-.4-.4s2.1-2.1 2.1-1.3m-159.3 1.2c-.3.3-1.2.4-1.9.1-.8-.3-.5-.6.6-.6 1.1-.1 1.7.2 1.3.5m-8.4 1.1c-.7.2-2.1.2-3 0-1-.3-.4-.5 1.2-.5 1.7 0 2.4.2 1.8.5m-14 1c-.7.2-2.1.2-3 0-1-.3-.4-.5 1.2-.5 1.7 0 2.4.2 1.8.5m205 0c-.7.2-2.1.2-3 0-1-.3-.4-.5 1.2-.5 1.7 0 2.4.2 1.8.5m-48.6 8.9c-.3.3-1.2.4-1.9.1-.8-.3-.5-.6.6-.6 1.1-.1 1.7.2 1.3.5m-15.4 3.1c-.7.2-2.1.2-3 0-1-.3-.4-.5 1.2-.5 1.7 0 2.4.2 1.8.5m235.4-.1c-.3.3-1.2.4-1.9.1-.8-.3-.5-.6.6-.6 1.1-.1 1.7.2 1.3.5m-4 1c-.3.3-1.2.4-1.9.1-.8-.3-.5-.6.6-.6 1.1-.1 1.7.2 1.3.5m62 1.6c-.3.8-.6.5-.6-.6-.1-1.1.2-1.7.5-1.3.3.3.4 1.2.1 1.9m-304.4-.5c-.7.2-1.9.2-2.5 0-.7-.3-.2-.5 1.2-.5s1.9.2 1.3.5m-53.9 4.2c-.2.3-1.2-.3-2.2-1.3-1.6-1.7-1.6-1.8.5-.5 1.2.7 2 1.5 1.7 1.8m40.9-2.2c-.7.2-2.1.2-3 0-1-.3-.4-.5 1.2-.5 1.7 0 2.4.2 1.8.5m-8.6.9c-.3.3-1.2.4-1.9.1-.8-.3-.5-.6.6-.6 1.1-.1 1.7.2 1.3.5m243.6.1c-.7.2-2.1.2-3 0-1-.3-.4-.5 1.2-.5 1.7 0 2.4.2 1.8.5m-10.5 1c-1 .2-2.8.2-4 0-1.3-.2-.5-.4 1.7-.4 2.2-.1 3.2.1 2.3.4m-261.1.9c-.3.3-1.2.4-1.9.1-.8-.3-.5-.6.6-.6 1.1-.1 1.7.2 1.3.5m188 0c-.3.3-1.2.4-1.9.1-.8-.3-.5-.6.6-.6 1.1-.1 1.7.2 1.3.5m39.6.1c-2.9.2-7.7.2-10.5 0-2.9-.2-.6-.3 5.2-.3s8.1.1 5.3.3m16.5 0c-2.1.2-5.5.2-7.5 0-2.1-.2-.4-.4 3.7-.4s5.8.2 3.8.4m109.9 7c-.3 1-.5.2-.5-1.7s.2-2.7.5-1.8c.2 1 .2 2.6 0 3.5m-1 7.5c-.3.8-.6.5-.6-.6-.1-1.1.2-1.7.5-1.3.3.3.4 1.2.1 1.9m-1 4c-.3.8-.6.5-.6-.6-.1-1.1.2-1.7.5-1.3.3.3.4 1.2.1 1.9m-34.7 6.1c0 .2-1 1.2-2.2 2.3l-2.3 1.9 1.9-2.3c1.8-2.1 2.6-2.7 2.6-1.9m25 17c0 .2-1.9 2.1-4.2 4.2l-4.3 4 4-4.3c3.6-3.9 4.5-4.7 4.5-3.9m-82.7 8.4c-.7.2-1.9.2-2.5 0-.7-.3-.2-.5 1.2-.5s1.9.2 1.3.5m-7.6.9c-.3.3-1.2.4-1.9.1-.8-.3-.5-.6.6-.6 1.1-.1 1.7.2 1.3.5m-10.4 1.1c-1.3.2-3.3.2-4.5 0-1.3-.2-.3-.4 2.2-.4s3.5.2 2.3.4m89.7-.3c0 .2-.8 1-1.7 1.7-1.6 1.3-1.7 1.2-.4-.4s2.1-2.1 2.1-1.3m-100.7 1.3c-.7.2-2.1.2-3 0-1-.3-.4-.5 1.2-.5 1.7 0 2.4.2 1.8.5m-7.6.9c-.3.3-1.2.4-1.9.1-.8-.3-.5-.6.6-.6 1.1-.1 1.7.2 1.3.5m95.3 6.9c0 .2-1 .9-2.2 1.5-2.2 1.1-2.2 1-.4-.4 2.1-1.7 2.6-1.9 2.6-1.1m-55.2 15.2c-1.6.2-4 .2-5.5 0-1.6-.2-.3-.4 2.7-.4s4.3.2 2.8.4m-18 1c-1 .2-2.8.2-4 0-1.3-.2-.5-.4 1.7-.4 2.2-.1 3.2.1 2.3.4m-9.5 1c-.7.2-1.9.2-2.5 0-.7-.3-.2-.5 1.2-.5s1.9.2 1.3.5m153.5 48.8c1.2 3.7 16.6 52.7 17.8 56.7.5 1.7-12.5 1.8-263.5 1.8-145.3 0-264.1-.3-264.1-.6 0-.8 10.4-34.7 15.2-49.1l4-12.3 149.1-.2c82.1-.2 192.2-.3 244.7-.3h95.5zm-499.5-2.9c1.3.5 1.1 1.7-.9 8.2-1.4 4.2-6.3 20.3-11 35.7-4.8 15.4-9.5 29.7-10.5 31.7L293 924h-7.1c-8.4 0-10.9-1.1-10.9-4.8 0-3.4 10.2-54.7 13.2-66.5l2.3-8.7h12.7c6.9 0 13.3.3 14.1.6m536.5 5.1c.6 3.2 3.2 15.2 5.7 26.8 8.4 37.9 9 43.4 5.3 45.9-2.9 2-15 2.2-16.7.3-.6-.8-3.6-9.2-6.7-18.8-8.6-26.8-18.4-58.2-18.4-59.1 0-.4 6.7-.8 14.8-.8h14.8z"/><path d="M750.2 128c-1.8 1.1-8.6 6.7-15 12.3-6.4 5.7-17.4 15.1-24.4 21L698 172h-12.3q-12.3 0-13.5 1.2c-.9.9-1.2 20.8-1.2 83.3 0 78.4.1 82.3 1.8 83.8 1.7 1.6 8.9 1.7 82.3 1.7 61.3 0 80.8-.3 81.7-1.2s1.2-20.9 1.2-84c0-80.8 0-82.8-1.9-83.8-1.1-.5-8.2-1-15.8-1l-13.8-.1-19.5-20.6c-15.2-16.1-20.6-21.1-24.5-22.9-6.1-2.9-8.1-3-12.3-.4m7.2 5.6c3.9 1.5-.3 7.8-4.5 6.7-1.9-.5-2.8-5.1-1.2-6.6.8-.9 3.6-.9 5.7-.1m37.9 36 1.8 2.4h-44.2c-37.6 0-44.1-.2-42.9-1.4.8-.7 7.6-6.6 15-13.1s14.7-12.9 16.2-14.3l2.7-2.5 3.1 3.3c2.8 3 3.4 3.2 7.6 2.7 4.7-.5 8.8-3.4 10-7 .5-1.7 2.9.3 14.7 12.8 7.8 8.1 15 15.8 16 17.1m36.7 87.9V336H677V179h155z"/><path d="M746 215.1c-12.1 2.4-24.8 12.6-30.6 24.6-3.9 8.2-4.6 21.3-1.5 30.6 4.3 13 13.3 23.6 24 28.5 7.5 3.5 21.3 4.3 29.2 1.7 11.2-3.6 22.2-13.2 27.4-23.8 10.3-21.1.4-47.4-21.7-57.7-9.8-4.6-17.5-5.7-26.8-3.9m24.4 10.3c6.9 3.4 13.9 11 17.8 19.2 2.9 6.1 3 7 2.6 16.2-.3 7.6-.9 10.7-2.7 14.1-3.2 6.2-10.1 12.5-17.8 16.3-5.9 2.9-7.5 3.2-15.2 3.2-7.6 0-9.4-.4-15.2-3.2-7.9-3.8-13.7-9.4-17.5-17-2.7-5.3-2.9-6.5-2.9-16.7 0-13 1.7-17.8 8.7-24.7 7.6-7.6 17.1-11 29.1-10.4 5.8.3 9.2 1.1 13.1 3m-292.4-66c-2.8 3.5 1.1 9.3 4.8 7 3.5-2.2 2.2-8.4-1.8-8.4-1 0-2.3.7-3 1.4m74.1 87.1c-1.6 1.4-3.5 4.2-4.1 6.1-1.5 4.5-.8 12.5 1.3 15.7 2.2 3.4 9.6 6.1 14.1 5.3 6.9-1.3 12.7-10.5 11.1-17.7-2.2-9.8-15.3-15.3-22.4-9.4m14.1 6.2c1.5 1.5 2.8 3.7 2.8 5 0 3.8-2.6 7.9-5.9 9.2-6 2.5-10.8-1.9-9.8-9 1.1-7.9 7.4-10.5 12.9-5.2M475 375.5c-1 1.2-1 1.8 0 3 1.1 1.3 4.8 1.5 24.9 1.3l23.6-.3v-5l-23.6-.3c-20.1-.2-23.8 0-24.9 1.3m438.3 11.9c-7.2 3.2-9.6 13.7-4.7 19.6 5.6 6.5 13.2 8 17.7 3.2 1.4-1.5 3.1-4.8 3.8-7.3 1.1-4 1-5-.7-8.4-3.4-6.9-10-9.8-16.1-7.1m9.1 6.7c4.7 5.6 2.5 12.9-4 12.9-6.8 0-9.8-7.6-5.3-13.4 2.8-3.5 6.1-3.3 9.3.5M166.7 780.6c-1.5 1.5-.7 6.3 1.3 7.4 3.3 1.7 6.2-.4 5.8-4.3-.3-2.7-.7-3.2-3.3-3.5-1.7-.2-3.4 0-3.8.4"/></g></svg>