<svg version="1.1" xmlns="http://www.w3.org/2000/svg" style="display: block;" viewBox="0 0 2048 2048" width="1024" height="1024">
<path transform="translate(0,0)" fill="rgb(254,254,252)" d="M 0 0 L 2048 0 L 2048 2048 L 0 2048 L 0 0 z"/>
<path transform="translate(0,0)" fill="rgb(48,67,77)" d="M 243.341 184.259 C 346.468 183.019 449.742 184.167 552.885 184.171 L 695.746 184.131 C 721.298 184.124 746.982 183.603 772.521 184.251 C 776.433 184.35 783.864 184.019 787.088 186.194 C 791.354 205.666 789.001 233.12 789.005 253.477 L 788.973 376.582 L 788.859 866.246 L 1310.42 866.535 L 1448.62 866.371 C 1488.35 866.312 1528.8 865.032 1568.18 871.296 C 1606.34 877.603 1642.65 892.222 1674.54 914.117 C 1732.14 954.057 1766.05 1013.95 1775.19 1083.07 C 1778.25 1106.21 1777.75 1130.05 1781.94 1152.95 C 1795.32 1152.72 1808.61 1149.88 1822.12 1149.77 C 1846.18 1149.56 1873.24 1153.69 1891.04 1171.39 C 1909.19 1189.43 1922.15 1216.81 1922.07 1242.62 C 1921.97 1270.33 1913.87 1299.76 1908.67 1327.04 L 1884.47 1455.59 L 1866.49 1553.07 C 1863.37 1569.96 1861.28 1588.29 1855.98 1604.63 C 1849.91 1623.37 1839.31 1639.7 1825.34 1653.48 C 1795.2 1683.22 1759.31 1688.26 1718.63 1687.97 C 1720.99 1704.53 1725.39 1720.79 1728.84 1737.14 C 1734.08 1761.99 1738.71 1786.99 1743.54 1811.92 C 1785 1811.92 1826.54 1811.42 1867.99 1811.99 C 1871.46 1812.04 1872.64 1812.49 1875.06 1814.96 C 1875.61 1818.08 1875.58 1818.67 1874.51 1821.65 C 1871.83 1823.63 1870.27 1823.77 1866.9 1824.06 C 1854.41 1825.14 1841.1 1824.19 1828.51 1824.17 C 1801.43 1824.02 1774.36 1824.05 1747.28 1824.25 C 1747.87 1831.27 1749.68 1841.25 1747.1 1847.95 C 1744.92 1853.61 1738.99 1857.07 1733.59 1859.08 C 1722.52 1863.2 1701.95 1864.32 1691.3 1859.18 C 1681.25 1854.33 1676.56 1833.97 1672.99 1824.26 C 1626.34 1823.19 1579.48 1824.09 1532.81 1824.09 L 1264.5 1824.09 L 754.5 1824.07 C 739.829 1824.07 620.386 1822.39 614.308 1824.57 C 607.076 1827.17 604.531 1848.99 594.73 1856.36 C 585.202 1863.53 568.95 1862.89 557.629 1861.21 C 550.755 1860.19 543.974 1858.05 539.778 1852.13 C 533.986 1843.96 536.109 1833.28 537.463 1824.1 L 303.713 1824.07 L 228.786 1824.09 C 219.124 1824.1 208.932 1825.08 199.357 1824.45 C 194.915 1824.16 192.025 1823 188.67 1820.13 C 187.56 1817.64 187.301 1817.7 188.223 1815.18 C 191.507 1812.43 196.104 1812.26 200.218 1812 C 213.48 1811.15 227.183 1811.88 240.499 1811.91 L 312.136 1811.97 L 541.916 1812.01 C 546.586 1789.93 549.112 1767.46 553.441 1745.33 C 557.297 1725.62 562.868 1706.36 568.379 1687.06 C 561.731 1687.46 555.05 1687.92 548.388 1687.97 C 514.067 1688.23 483.422 1676.96 458.966 1652.57 C 447.492 1641.12 436.39 1626.44 430.888 1611.04 C 424.247 1592.46 421.525 1571.43 417.928 1552.05 L 401.977 1467.91 L 376.224 1335.69 C 370.674 1307.19 362.904 1279.14 362.756 1249.96 C 351.21 1249.93 339.685 1251.04 328.142 1251.23 C 301.627 1251.43 275.11 1251.4 248.594 1251.14 C 250.179 1331.57 248.776 1412.33 248.795 1492.79 L 248.779 1624.74 C 248.763 1641.79 249.541 1659.09 249.09 1676.09 C 248.999 1679.51 248.563 1682.05 247.032 1685.11 C 244.715 1686.86 244.533 1686.75 241.597 1686.72 C 240.287 1685.96 238.706 1685.46 238.004 1684.04 C 235.138 1678.25 236.703 1451.67 236.657 1426.66 L 236.935 361.582 C 236.993 343.104 235.527 194.312 237.709 188.889 C 238.843 186.071 240.876 185.5 243.341 184.259 z"/>
<path transform="translate(0,0)" fill="rgb(254,254,252)" d="M 747.542 879.415 C 747.888 879.374 748.234 879.322 748.582 879.292 C 764.174 877.948 780.343 879.114 796.004 879.306 L 869.259 879.526 L 1135.5 879.501 L 1402.46 879.538 L 1477.56 879.411 C 1507.32 879.347 1536.72 879.079 1566.15 884.235 C 1611.8 892.059 1654.44 912.247 1689.42 942.606 C 1757.67 1002.47 1763.01 1076.94 1768.27 1160.78 C 1747.83 1166.09 1734.64 1179.66 1718.5 1192.42 C 1720.98 1164.48 1737.26 1116.71 1733.47 1092.41 C 1732.45 1085.82 1730.15 1080.54 1724.57 1076.66 C 1718.6 1072.51 1710.98 1069.95 1703.82 1068.85 C 1692.39 1067.09 1680.38 1067 1668.83 1066.21 L 1601.19 1061.55 C 1564.86 1058.76 1528.5 1056.31 1492.12 1054.2 C 1472.01 1053.03 1450.38 1049.92 1430.43 1053.22 C 1404.77 1057.48 1399.73 1104.92 1396.32 1126.4 C 1395.01 1134.65 1394.85 1145.38 1389.8 1152.33 C 1387.17 1153.9 1384.49 1153.85 1381.51 1153.66 C 1371.92 1153.03 1362.24 1150.3 1352.73 1148.84 C 1339.41 1146.8 1325.29 1146.42 1311.84 1146.02 C 1278.46 1145.02 1247.11 1145.79 1214.05 1151.06 C 1182.63 1156.08 1151.69 1163.98 1120 1167.21 C 1120.08 1140.44 1126 1042.18 1109.58 1025.85 C 1107.09 1023.39 1104.26 1022.3 1100.77 1022.47 C 1078.41 1023.56 1043.8 1060.17 1029.33 1076.24 C 1005.22 1070.76 983.172 1071.06 958.702 1070.77 C 945.692 1053.76 934.078 1035.02 918.953 1019.74 C 913.361 1014.08 904.664 1007.35 896.261 1007.57 C 891.569 1007.69 887.639 1010.03 884.506 1013.41 C 870.461 1028.58 855.475 1115.37 853.337 1139 C 852.098 1152.68 852.712 1166.47 853.079 1180.18 C 842.965 1180.07 833.098 1177.78 822.926 1178.17 C 820.967 1179.71 821.218 1179.99 820.798 1182.49 C 825.361 1194.5 846.206 1189.38 855.146 1197.73 C 856.064 1200.05 856.192 1200.03 855.357 1202.35 C 845.91 1210.13 830.193 1205.51 820.272 1211.32 C 817.766 1212.78 817.754 1213.52 817.089 1216.14 C 817.551 1217.78 817.9 1218.96 819.214 1220.16 C 820.236 1221.1 821.707 1221.97 823.104 1222.19 C 829.106 1223.1 851.426 1219.84 860.516 1219.87 C 866.56 1231.74 872.812 1243.5 879.271 1255.16 C 877.147 1266.22 875.374 1278.14 869.684 1288.02 C 845.874 1329.36 792.393 1327.67 751.016 1329.82 C 728 1331.01 703.693 1332.38 681.362 1338.29 C 669.993 1341.29 657.394 1345.99 649.095 1354.65 C 641.488 1362.59 640.753 1370.11 640.985 1380.47 C 613.871 1384.45 595.96 1378.94 570.686 1395.18 C 554.421 1405.62 536.035 1426.87 532.492 1446.34 C 531.805 1450.11 531.878 1454.16 534.393 1457.3 C 537.681 1461.41 545.413 1462.18 550.351 1462.86 C 603.979 1470.3 658.265 1473.53 711.855 1481.24 C 759.83 1488.39 807.868 1495.11 855.963 1501.4 C 877.109 1504.26 901.769 1509.5 922.694 1509.73 C 926.761 1509.77 929.977 1509.28 933.781 1507.83 C 943.398 1504.15 1034.41 1458.58 1035.44 1457.34 C 1037.68 1454.66 1038.09 1452.56 1037.62 1449.18 C 1036.6 1447.94 1036.3 1447.12 1034.69 1446.61 C 1032.12 1445.81 1030.05 1446.14 1027.56 1446.95 C 1017 1450.38 1006.4 1456.67 996.406 1461.54 C 973.07 1472.9 949.878 1484.9 926.116 1495.34 C 897.929 1491.43 869.646 1488.09 841.41 1484.54 C 821.827 1482.08 802.135 1478.98 782.44 1477.73 C 791.232 1472.69 822.956 1460.48 825.606 1452.04 C 826.147 1450.31 825.474 1449.82 824.761 1448.3 C 810.13 1441.6 774.522 1472.77 757.855 1474.29 C 750.282 1474.98 741.202 1472.92 733.572 1471.99 L 685.459 1465.98 L 595.204 1454.63 C 578.499 1452.52 560.866 1451.28 544.517 1447.37 C 551.673 1433.05 559.824 1420.04 572.545 1410 C 593.771 1393.26 616.596 1392.5 642.401 1395.7 C 645.251 1399 648.081 1402.35 651.019 1405.57 C 657.356 1412.53 664.225 1415.46 673.447 1416.71 C 697.452 1419.94 721.792 1413.12 745.623 1411.24 C 771.376 1409.21 797.573 1409.9 823.344 1411.11 C 821.941 1421.51 820.859 1433.06 827.2 1442.17 C 833.283 1450.9 841.903 1454.14 851.998 1455.68 C 879.987 1459.94 926.402 1448.93 955.28 1444.64 C 979.059 1441.1 1005.83 1439.32 1028.69 1432.04 C 1040.67 1428.23 1050.45 1422.14 1060.56 1414.79 C 1100.06 1418.9 1140.76 1418.51 1180.45 1420.18 C 1185.45 1427.99 1188.74 1435.87 1195.56 1442.53 C 1210.48 1457.07 1233.48 1456.02 1252.8 1456.12 C 1277.89 1456.06 1302.99 1455.69 1328.07 1455 C 1357.13 1454.43 1386.09 1454.53 1414.76 1449.14 C 1429.48 1446.37 1444.77 1443.25 1459.01 1438.62 C 1468.98 1435.38 1478.69 1430.74 1489.01 1428.74 L 1490.34 1428.5 C 1492.24 1449.07 1490.84 1466.95 1477.23 1483.41 C 1469.44 1492.82 1458.81 1499.69 1448.18 1505.46 C 1404.76 1529.03 1366.86 1525.13 1319.96 1529.58 C 1294.4 1532.01 1258.27 1538.8 1241.25 1560.26 C 1235.21 1567.88 1232.51 1577.01 1233.95 1586.69 C 1235.47 1596.86 1241.89 1604.4 1250.08 1610.26 C 1258.9 1616.58 1268.92 1619.73 1279.72 1619.89 C 1298.33 1620.16 1315.26 1610.91 1333.59 1608.91 C 1345.35 1607.62 1357.72 1608.61 1369.57 1608.46 C 1388.5 1608.23 1407.86 1606.73 1426.54 1603.63 C 1472.79 1595.94 1521.83 1568.15 1549.07 1529.48 C 1575.31 1492.22 1580.35 1450.73 1572.9 1406.69 C 1592.88 1407.78 1648.06 1410.63 1664.34 1416.26 C 1672.42 1419.06 1679.82 1424.18 1685.92 1430.12 C 1711.15 1454.69 1708.46 1488.48 1708.43 1520.85 C 1708.41 1543.86 1707.62 1567 1708.05 1589.99 C 1708.18 1596.92 1708.71 1604.26 1713.94 1609.3 C 1715.07 1608.92 1716.22 1608.87 1716.9 1607.82 C 1719.02 1604.54 1719.72 1600 1720.05 1596.19 C 1721.2 1582.52 1720.04 1567.8 1720.07 1553.98 C 1720.14 1529.52 1722.62 1488.07 1718.42 1466 C 1713.59 1440.7 1699.7 1421.71 1678.65 1407.45 C 1688.36 1391.35 1689.74 1373.16 1692.65 1354.96 L 1704.32 1282.08 C 1706.92 1265.9 1708.74 1248.92 1713.6 1233.26 C 1716.38 1224.1 1720.6 1215.43 1726.1 1207.58 C 1743.86 1182.27 1769.91 1169.07 1799.99 1163.94 C 1825.98 1159.51 1856.69 1162.93 1878.63 1178.61 C 1895.29 1190.52 1904.34 1209.82 1907.62 1229.64 C 1909.13 1238.74 1909.1 1247.78 1907.91 1256.92 C 1904.91 1279.98 1899.59 1303.05 1895.28 1325.91 L 1871.17 1453.61 L 1854.38 1544.59 C 1851.13 1562.24 1848.61 1580.5 1843.76 1597.79 C 1840.26 1610.25 1834.37 1621.67 1826.79 1632.14 C 1810.44 1654.75 1784.7 1668.85 1757.14 1673 C 1737.96 1675.88 1717.24 1674.47 1697.85 1674.48 L 1597.22 1674.48 L 1250.83 1674.51 L 763.929 1674.52 L 613 1674.45 C 586.528 1674.46 559.06 1676.12 532.724 1673.9 C 513.242 1672.25 495.12 1663.09 479.624 1651.57 C 464.393 1640.24 452.529 1624.98 445.299 1607.43 C 434.39 1580.58 430.336 1550.44 425.218 1522.07 C 420.968 1499.29 416.601 1476.52 412.115 1453.78 L 389.807 1337.55 C 385.624 1316.14 380.295 1294.62 377.258 1273.03 C 373.529 1246.52 375.098 1217.27 392.052 1195.28 C 406.163 1176.97 426.917 1167.14 449.589 1164.51 C 469.139 1162.24 490.418 1165.16 508.721 1172.34 C 570.752 1196.67 573.803 1260.51 584.129 1317.4 C 585.768 1326.43 586.768 1338.22 594.45 1344.28 L 596.543 1343.72 C 597.248 1342.68 597.297 1342.7 597.86 1341.33 C 599.381 1337.63 599.379 1332.93 599.12 1329.02 C 598.32 1316.94 594.874 1304.54 592.716 1292.6 C 588.583 1269.72 586.558 1243.18 577.314 1221.72 C 564.603 1192.21 549.345 1176.18 519.598 1164.25 C 523.071 1091.07 531.504 1019.16 581.303 961.214 C 622.184 913.643 685.227 883.912 747.542 879.415 z"/>
<path transform="translate(0,0)" fill="rgb(115,182,186)" d="M 893.733 1019.65 C 912.205 1025.67 927.489 1048.72 938.586 1064.1 C 942.1 1068.97 945.561 1074.86 950.027 1078.9 C 958.372 1086.45 980.832 1081.9 991.986 1082.39 C 996.483 1082.59 1001.16 1082.78 1005.58 1083.68 C 1016.11 1085.84 1029.63 1092.56 1040.23 1091.33 C 1042.79 1091.03 1043.67 1090.42 1045.21 1088.44 C 1045.27 1086.47 1044.62 1085.46 1043.7 1083.78 C 1042.62 1081.83 1042.4 1081.58 1042.31 1079.25 C 1058.42 1062.13 1078.45 1043.35 1100.73 1034.74 C 1101.15 1034.58 1101.58 1034.42 1102 1034.26 C 1111.57 1059.5 1107.07 1123.46 1107.02 1153.14 C 1107.01 1162.32 1105.78 1173.87 1108.36 1182.66 C 1111.41 1183.36 1114.36 1182.91 1117.41 1182.34 C 1131.99 1179.62 1146.47 1175.59 1161.03 1172.56 C 1190.49 1166.43 1220.6 1161.47 1250.55 1158.47 C 1282.62 1155.25 1316.39 1156.46 1348.29 1161.07 C 1409.26 1169.88 1454.33 1184.19 1492.48 1235.85 C 1514.1 1265.13 1524.29 1298.39 1532.21 1333.46 C 1534.4 1343.17 1535.9 1353.27 1538.55 1362.83 C 1540.19 1368.72 1546.05 1373.98 1548.8 1379.54 C 1561.98 1406.15 1568.23 1435.39 1563.56 1464.91 C 1557.36 1504.14 1541.87 1529.69 1509.98 1552.67 C 1440.86 1602.48 1405.82 1588.76 1331.29 1597.76 C 1311.72 1600.13 1291 1609.08 1271.25 1605.49 C 1260.82 1603.59 1253.3 1598.82 1247.15 1590.3 C 1246.21 1583.19 1245.93 1577.03 1249.78 1570.67 C 1265.39 1544.84 1325.91 1544.42 1353.39 1541.54 C 1372.43 1539.54 1392.37 1537.5 1411.03 1533.27 C 1439.28 1526.85 1477.47 1507.22 1493.08 1481.96 C 1504.59 1463.32 1506.79 1438.74 1501.64 1417.72 C 1500.02 1411.1 1497.69 1403.22 1491.57 1399.5 C 1490.05 1399.57 1489.55 1399.22 1488.44 1400.44 C 1485.1 1404.1 1486.73 1410.58 1487.16 1415.09 C 1477.75 1419.47 1467.17 1422.45 1457.21 1425.44 C 1403.11 1441.64 1349.28 1442.09 1293.36 1442.98 C 1274.36 1443.28 1255.13 1445.12 1236.17 1443.41 C 1224.3 1442.33 1208.19 1439.71 1200.44 1429.72 C 1197.83 1426.35 1196.1 1422.24 1196.94 1417.93 C 1198.4 1410.37 1205.03 1404.85 1210.95 1400.63 C 1216.36 1397.37 1221.92 1395.01 1228.07 1393.62 C 1242.69 1390.31 1289.07 1387.78 1305.48 1387.9 C 1312.11 1387.95 1319.05 1390.36 1325.58 1389.72 C 1328.7 1389.42 1329.74 1388.74 1331.73 1386.42 C 1331.89 1383.42 1331.12 1382.39 1328.53 1380.81 C 1324.12 1378.12 1318.36 1376.84 1313.46 1375.28 C 1298.86 1370.62 1286.51 1363.02 1277.1 1350.67 C 1268.54 1339.45 1263.52 1323.72 1265.61 1309.61 C 1269.56 1282.84 1296.56 1261.92 1318.95 1249.95 C 1325.18 1246.62 1333.22 1245 1338.67 1240.56 C 1340.84 1238.79 1341.15 1237.73 1341.48 1235.03 C 1340.19 1232.8 1339.89 1232.57 1337.61 1231.34 C 1316.42 1231.89 1293.28 1249.5 1279.19 1264.25 C 1263.31 1280.88 1253.91 1300.52 1254.56 1323.8 C 1255.22 1347.12 1268.42 1359.44 1284.15 1374.31 C 1245.33 1380.85 1214.4 1374.49 1185.44 1406.96 C 1164.1 1407.8 1094.45 1406.84 1075.39 1402.54 C 1082.84 1394.41 1091.53 1386.83 1098.28 1378.15 C 1100.54 1375.24 1102.21 1372.79 1101.7 1369.05 L 1099.74 1368.13 C 1087.16 1370.23 1067.05 1391.9 1056.25 1400.03 C 1049.95 1404.84 1043.12 1408.92 1035.91 1412.2 C 1025.74 1416.79 1014.77 1420.16 1003.95 1422.8 C 977.506 1429.25 866.385 1449.76 846.357 1441.18 C 841.509 1439.1 837.963 1434.63 836.195 1429.75 C 834.212 1424.28 834.337 1417.83 836.837 1412.54 C 851.926 1380.65 927.196 1384.92 956.539 1372.73 C 961.754 1370.56 970.554 1364.21 972.416 1358.62 C 973.056 1356.7 972.991 1357.53 971.904 1355.53 C 969.568 1354.86 967.903 1354.52 965.443 1355.08 C 955.524 1357.35 945.966 1361.42 935.975 1363.74 C 910.24 1369.72 883.214 1373.76 858.166 1382.13 C 848.596 1385.33 840.583 1392.48 830.928 1395.42 C 818.071 1399.34 785.427 1396.48 769.539 1397.14 C 746.373 1398.1 686.308 1411.07 666.399 1399.8 C 658.303 1395.22 663.619 1391.16 661.946 1385.02 C 660.697 1383.8 659.103 1382.46 658.114 1381.03 C 656.144 1378.18 656.312 1375 657.147 1371.73 C 659.375 1363.01 667.435 1357.97 675.26 1354.75 C 710.44 1340.29 776.665 1343.95 816.818 1336.47 C 830.121 1334.1 842.862 1329.26 854.381 1322.2 C 877.444 1307.81 883.862 1290.8 889.784 1265.48 L 896.452 1259.07 C 893.196 1252.78 888.899 1246.91 885.265 1240.82 C 876.259 1225.71 869.025 1209.27 865.132 1192.08 C 861.323 1175.25 861.376 1157.75 863.004 1140.65 C 864.859 1121.16 884.775 1033.8 893.733 1019.65 z"/>
<path transform="translate(0,0)" fill="rgb(48,67,77)" d="M 959.942 1185.14 C 964.213 1184.84 968.415 1184.63 972.68 1185.09 C 979.642 1185.84 990.348 1186.25 995.009 1191.97 C 998.865 1204.48 981.093 1209.45 979.068 1219.93 C 978.604 1222.33 979.43 1223.53 980.836 1225.36 C 988.348 1235.15 1001.08 1225.28 1010.33 1226.22 C 1011.75 1227.92 1012.33 1229.52 1012.02 1231.82 C 1011.58 1235.05 1009.88 1237.31 1007.19 1239 C 1000.03 1243.52 991.676 1243.11 983.77 1241.5 C 979.568 1239.5 975.571 1237.08 971.537 1234.76 C 965.877 1236.84 960.167 1238.15 954.294 1239.47 C 946.392 1236.68 937.896 1232.03 933.495 1224.6 C 933.333 1221.9 933.296 1221.94 934.951 1219.8 C 942.956 1218 947.902 1225.95 955.125 1227.8 C 957.828 1228.49 960.697 1227.23 962.946 1225.68 C 973.315 1218.54 950.806 1201.49 953.451 1191.73 C 954.359 1188.37 957.217 1186.87 959.942 1185.14 z"/>
<path transform="translate(0,0)" fill="rgb(48,67,77)" d="M 1064.84 1228.89 C 1067.41 1228.87 1069.98 1228.89 1072.49 1229.5 C 1082.92 1232.04 1106.69 1242.69 1112.08 1252.1 C 1112.23 1255.48 1111.46 1256.03 1109.66 1258.79 C 1108.19 1258.84 1106.8 1258.86 1105.35 1258.57 C 1097.47 1256.97 1067.4 1242.7 1064.22 1235.37 C 1063.04 1232.64 1063.82 1231.41 1064.84 1228.89 z"/>
<path transform="translate(0,0)" fill="rgb(48,67,77)" d="M 909.159 1153.03 C 909.502 1153.01 909.845 1152.98 910.189 1152.97 C 921.265 1152.67 945.534 1155.27 953.7 1162.8 C 954.549 1166.07 953.802 1166.76 952.521 1169.8 C 941.359 1171.1 919.983 1171.18 910.202 1165.58 C 908.093 1164.37 906.68 1162.67 906.424 1160.16 C 906.144 1157.42 907.741 1155.16 909.159 1153.03 z"/>
<path transform="translate(0,0)" fill="rgb(48,67,77)" d="M 998.94 1163.08 C 1010.04 1163.31 1030.86 1161.82 1040.58 1164.78 C 1043.19 1165.58 1043.76 1166.28 1044.93 1168.66 C 1044.07 1171.81 1043.18 1172.39 1040.9 1174.63 C 1030.22 1176.67 1010.67 1178.77 1000.63 1174.39 C 997.999 1173.24 997.322 1172.16 996.166 1169.64 C 996.47 1166.59 997.21 1165.48 998.94 1163.08 z"/>
<path transform="translate(0,0)" fill="rgb(48,67,77)" d="M 1076.04 1209.22 C 1087.51 1209.63 1102.74 1211.69 1112.84 1217.43 C 1115.61 1219.01 1116.53 1220.32 1117.34 1223.36 C 1116.1 1226.62 1115.39 1227.14 1112.82 1229.34 C 1102.76 1227.48 1083.88 1224.04 1075.46 1219.03 C 1073.1 1217.63 1072.78 1216.59 1072.19 1214.03 C 1073.31 1211.4 1073.78 1210.99 1076.04 1209.22 z"/>
<path transform="translate(0,0)" fill="rgb(102,165,171)" d="M 1203.79 1328.86 C 1205.92 1328.77 1207.95 1328.92 1210.07 1329.09 C 1212.54 1331.32 1212.56 1332.58 1213.46 1335.73 C 1209.78 1335.18 1206.7 1335.02 1203.93 1332.49 L 1203.79 1328.86 z"/>
<path transform="translate(0,0)" fill="rgb(254,254,252)" d="M 1118.77 1687.5 L 1631.41 1686.97 L 1670.38 1811.93 L 1165.5 1811.95 L 613.276 1811.93 L 651.934 1688.04 L 1118.77 1687.5 z"/>
<path transform="translate(0,0)" fill="rgb(254,254,252)" d="M 249.792 195.956 L 775.946 196.07 L 775.927 540.12 L 650.126 540.203 L 650.172 410.379 C 650.183 388.969 651.4 366.711 649.98 345.395 C 649.738 341.754 649.566 335.573 647.166 332.761 C 645.691 331.033 641.123 330.423 638.956 330.16 C 629.078 328.959 586.092 328.826 576.521 330.428 C 573.855 330.874 571.548 331.792 569.515 333.61 C 567.602 335.32 567.457 338.095 567.209 340.492 C 566.087 351.322 566.89 362.872 566.9 373.797 L 566.985 437.58 C 566.828 471.828 566.903 506.076 567.211 540.323 C 548.838 539.905 530.403 540.188 512.023 540.16 L 512.044 385.117 C 512.045 358.296 513.957 329.965 511.203 303.342 C 510.287 294.482 508.107 278.841 501.958 272.093 C 498.239 268.013 490.254 267.248 485.098 267.052 C 473.654 266.617 446.612 263.896 438.137 272.241 C 429.796 280.454 431.703 299.936 431.433 310.877 C 414.235 311.083 397.036 311.111 379.838 310.961 C 379.922 300.74 382.376 281.427 375.425 273.271 C 371.861 269.09 366.368 268.145 361.167 267.797 C 351.202 267.13 340.887 268.035 330.879 267.996 C 322.996 267.966 314.67 266.762 306.872 267.908 C 303.531 268.399 300.173 269.381 297.683 271.783 C 295.515 273.874 295.444 276.478 295.195 279.325 C 294.285 289.716 294.812 300.54 294.814 310.975 L 294.837 366.185 L 294.929 540.198 L 250.01 540.24 L 249.792 195.956 z"/>
<path transform="translate(0,0)" fill="rgb(254,254,252)" d="M 250.014 553.001 C 309.396 554.679 369.245 553.183 428.682 553.172 L 775.778 553.117 C 776.169 591.012 776.238 628.909 775.985 666.805 C 758.698 666.905 735.552 669.003 719.002 666.114 C 717.108 663.728 715.291 661.802 712.948 659.851 C 709.907 659.38 709.507 659.555 706.664 660.795 C 701.318 668.515 704.193 853.695 704.216 872.704 C 691.049 876.266 678.089 879.731 665.157 884.104 L 695.146 706.262 C 699.324 682.231 705.489 657.922 708.534 633.8 C 709.066 629.586 709.025 625.431 707.351 621.462 C 705.958 618.158 704.164 616.603 700.82 615.428 C 691.458 612.139 639.543 607.784 633.393 611.458 C 630.385 613.255 629.07 618.853 628.142 622.125 C 623.571 638.233 621.408 655.728 618.457 672.225 L 602.264 763.507 C 594.948 805.139 586.246 847.347 581.472 889.319 L 514.908 889.142 L 517.505 886.622 C 541.109 863.495 545.986 838.456 548.732 806.523 C 549.917 792.746 550.93 778.819 550.996 764.985 C 551.121 738.997 547.988 711.335 528.707 692.076 C 509.471 672.862 479.383 668.248 453.286 668.598 C 445.846 668.698 437.895 670.149 432.688 675.94 C 421.224 688.691 425.279 712.9 426.155 728.643 C 410.475 727.743 394.638 728.225 378.935 728.358 C 378.586 712.957 381.223 629.674 377 622.817 C 374.869 619.356 371.679 617.095 367.723 616.223 C 357.038 613.87 318.574 613.837 307.188 615.658 C 303.226 616.292 300.403 617.294 297.04 619.458 C 294.276 623.26 294.114 629.7 293.852 634.342 C 292.143 664.628 293.538 695.835 293.495 726.195 C 293.255 779.782 293.296 833.371 293.62 886.958 L 249.962 887.039 L 250.014 553.001 z"/>
<path transform="translate(0,0)" fill="rgb(254,254,252)" d="M 249.914 899.826 L 415.179 901.104 C 486.798 900.665 558.42 901.401 630.015 903.314 C 618.46 911.127 606.76 918.704 596.177 927.834 C 522.18 991.672 513.428 1065.75 506.398 1156.55 C 473.52 1148.01 437.613 1147.24 407.017 1163.08 C 405.274 1164.26 404.999 1164.47 402.799 1164.64 C 400.382 1157.73 402.071 1145.55 402.089 1138.08 C 402.158 1110.47 404.844 1053.99 399.442 1028.43 C 398.607 1024.47 397.424 1018.86 393.615 1016.7 C 388.234 1013.65 336.507 1014.12 329.68 1016.32 C 326.994 1020.89 326.433 1026.87 326.103 1032.1 C 324.675 1054.72 325.894 1078.26 325.896 1100.98 L 326.07 1237.92 C 300.521 1236.9 274.723 1237.72 249.154 1237.89 C 250.839 1125.28 249.067 1012.48 249.914 899.826 z"/>
<path transform="translate(0,0)" fill="rgb(239,165,151)" d="M 1434.8 1064.18 C 1435.09 1064.17 1435.37 1064.15 1435.66 1064.15 C 1452.63 1063.82 1470.12 1065.74 1487.06 1066.79 L 1590.18 1073.75 L 1662.07 1078.5 C 1676.01 1079.43 1690.54 1079.67 1704.29 1082.15 C 1710.18 1083.21 1714.24 1084.68 1718.55 1088.87 C 1720.26 1094.59 1719.76 1101.41 1719.12 1107.31 C 1717.83 1119 1715.14 1130.65 1713.3 1142.28 L 1700.11 1225.05 C 1691.55 1278.15 1684.41 1331.87 1674.35 1384.67 C 1673.31 1389.03 1671.01 1393.86 1667.59 1396.86 C 1664.71 1399.39 1661.33 1400.16 1657.6 1400.45 C 1634.75 1402.22 1593.54 1394.27 1568.97 1392.79 C 1562.78 1379.54 1553.55 1366.84 1548.71 1353.17 C 1545.31 1343.55 1543.37 1333.2 1540.93 1323.28 C 1536.19 1303.96 1531.22 1284.33 1523.87 1265.8 C 1501.08 1208.32 1461.47 1183.85 1406.85 1160.04 C 1406.26 1134.87 1409.38 1106.45 1418.83 1082.95 C 1422.26 1074.43 1426.13 1067.9 1434.8 1064.18 z"/>
<path transform="translate(0,0)" fill="rgb(254,254,252)" d="M 447.793 683.24 C 448.136 683.213 448.479 683.18 448.823 683.157 C 469.744 681.748 496.997 681.88 513.453 696.99 C 530.711 712.837 536.991 741.523 537.414 763.979 C 538.03 796.719 536.038 847.504 512.539 871.99 C 489.908 891.636 468.278 880.812 442.975 884.901 C 442.653 884.953 442.334 885.017 442.013 885.075 C 441.665 839.369 442.773 793.371 440.781 747.717 C 440.336 737.52 436.482 698.296 439.174 690.992 C 440.729 686.772 444.073 685.255 447.793 683.24 z"/>
<path transform="translate(0,0)" fill="rgb(115,182,186)" d="M 307.711 281.221 L 365.077 281.308 C 368.338 303.586 366.152 343.592 366.159 367.906 L 366.148 540.262 C 346.662 540.617 327.175 540.819 307.686 540.869 C 307.123 454.328 308.835 367.756 307.711 281.221 z"/>
<path transform="translate(0,0)" fill="rgb(254,254,252)" d="M 307.166 628.859 C 325.663 628.052 345.929 627.921 364.258 630.699 C 367.68 656.946 365.778 686.541 365.759 713.197 C 365.719 771.051 364.57 829.131 366.01 886.959 L 306.807 886.985 L 307.166 628.859 z"/>
<path transform="translate(0,0)" fill="rgb(115,182,186)" d="M 640.636 622.724 C 658.563 624.055 676.472 625.621 694.358 627.423 C 690.958 649.773 652.818 888.564 649.859 892.133 C 631.59 891.633 613.058 890.561 594.849 889.01 C 601.733 836.928 611.802 785.119 621.139 733.444 C 627.799 696.585 633.471 659.477 640.636 622.724 z"/>
<path transform="translate(0,0)" fill="rgb(254,254,252)" d="M 447.485 281.188 C 461.831 280.765 476.264 281.034 490.621 280.987 C 494.136 289.31 498.005 298.008 498.822 307.068 C 499.813 318.051 499.028 329.527 498.92 340.554 C 498.767 357.932 498.701 375.312 498.724 392.691 L 498.67 498.336 C 498.67 509.993 500.861 528.293 498.166 539.175 L 496.176 539.968 C 478.349 539.774 460.617 539.384 442.798 540.233 C 441.93 504.222 440.281 296.974 447.485 281.188 z"/>
<path transform="translate(0,0)" fill="rgb(254,254,252)" d="M 579.241 343.996 L 638.062 343.972 C 639.028 369.054 638.445 394.303 638.449 419.412 L 638.55 540.226 C 618.742 540.066 598.932 540.103 579.124 540.335 L 579.241 343.996 z"/>
<path transform="translate(0,0)" fill="rgb(254,254,252)" d="M 717.765 679.843 C 737.156 680.014 756.548 680.003 775.939 679.81 L 775.881 803.872 C 775.871 824.147 776.626 844.759 775.664 864.999 L 774.025 866.087 C 755.099 865.92 736.191 867.285 717.485 870.171 C 719.405 806.957 718.124 743.104 717.765 679.843 z"/>
<path transform="translate(0,0)" fill="rgb(254,254,252)" d="M 380.408 325.3 L 429.038 325.803 L 429.065 540.181 L 379.952 540.179 L 379.955 406.559 C 379.962 379.5 379.507 352.343 380.408 325.3 z"/>
<path transform="translate(0,0)" fill="rgb(254,254,252)" d="M 338.771 1028.02 L 388.905 1028.01 C 389.336 1055.9 389.496 1083.8 389.387 1111.7 C 389.41 1133.67 389.873 1155.76 389.026 1177.72 C 377.352 1189.93 371.555 1199.35 367.041 1215.69 C 365.504 1223.38 364.615 1231.08 363.742 1238.87 C 355.498 1238.11 347.121 1238.3 338.845 1238.22 L 338.771 1028.02 z"/>
<path transform="translate(0,0)" fill="rgb(254,254,252)" d="M 1645.52 1687.45 C 1665.17 1688.12 1685.08 1688.46 1704.71 1687.38 C 1713.6 1728.23 1723.89 1769.08 1731.26 1810.23 C 1732.9 1819.38 1737.08 1836.66 1731.42 1844.8 C 1724.32 1847.93 1717.18 1848.35 1709.52 1848.47 C 1706.19 1848.52 1698.8 1848.43 1696.44 1845.62 C 1692.48 1840.89 1645.52 1695.68 1645.52 1687.45 z"/>
<path transform="translate(0,0)" fill="rgb(254,254,252)" d="M 580.726 1687.48 C 599.628 1687.77 618.653 1687.64 637.501 1689.19 C 630.45 1715.42 621.477 1741.07 613.637 1767.08 C 606.85 1789.58 601.391 1814.02 592.016 1835.56 C 590.825 1838.53 589.61 1842.29 587.495 1844.74 C 583.31 1849.59 570.09 1848.28 564.269 1848.08 C 559.341 1847.91 554.812 1847.34 551.316 1843.59 C 546.181 1830.9 575.505 1708.05 580.726 1687.48 z"/>
<path transform="translate(0,0)" fill="rgb(254,254,252)" d="M 378.958 740.984 L 428.466 741.087 C 430.299 789.836 428.864 839.173 428.714 887.976 C 412.157 887.278 395.585 886.993 379.013 887.124 L 378.958 740.984 z"/>
<path transform="translate(0,0)" fill="rgb(48,67,77)" d="M 1505.25 253.119 C 1507.32 252.915 1509.36 252.732 1511.45 252.771 C 1518.92 252.912 1525.6 256.128 1531.61 260.389 C 1542.64 268.218 1552.11 279.512 1561.5 289.235 C 1579.24 307.63 1596.81 326.201 1614.18 344.947 C 1626.47 345.091 1665.88 342.36 1674.39 347.334 C 1675.96 352.156 1675.97 357.642 1676.03 362.687 C 1676.74 429.945 1676.04 497.301 1676.04 564.571 L 1676.04 637.621 C 1676.04 649.904 1676.69 662.609 1675.83 674.846 C 1675.63 677.747 1674.8 679.942 1672.55 681.931 C 1670.6 683.658 1666.59 683.719 1664.12 683.878 C 1646.92 684.985 1629.23 684.107 1611.97 684.101 L 1512.5 684.047 L 1414.17 684.102 C 1398.37 684.125 1359.85 686.532 1346.33 682.194 C 1344.23 680.308 1342.99 678.711 1342.52 675.893 C 1340.81 665.628 1341.96 653.601 1341.95 643.114 L 1341.97 574.301 C 1341.98 502.96 1340.28 431.238 1342.04 359.941 C 1342.14 355.775 1341.86 349.385 1344.17 345.929 C 1357.51 341.022 1378.85 345.125 1393.56 344.177 L 1394.91 344.084 C 1405.35 337.5 1414.92 328.354 1424.33 320.369 C 1440.63 306.597 1456.79 292.664 1472.81 278.57 C 1482.97 269.667 1493.04 259.116 1505.25 253.119 z"/>
<path transform="translate(0,0)" fill="rgb(254,254,252)" d="M 1353.85 358.111 L 1663.85 358.118 L 1663.79 671.516 C 1560.58 670.208 1457.09 671.107 1353.87 671.715 L 1353.85 358.111 z"/>
<path transform="translate(0,0)" fill="rgb(48,67,77)" d="M 1496.53 430.42 C 1544.16 422.959 1588.82 455.547 1596.24 503.184 C 1603.66 550.821 1571.03 595.448 1523.39 602.83 C 1475.8 610.203 1431.24 577.625 1423.83 530.043 C 1416.41 482.462 1448.96 437.872 1496.53 430.42 z"/>
<path transform="translate(0,0)" fill="rgb(239,165,151)" d="M 1500.18 443.963 C 1540.35 438.616 1577.25 466.846 1582.59 507.017 C 1587.94 547.188 1559.7 584.085 1519.53 589.427 C 1479.36 594.768 1442.47 566.538 1437.13 526.371 C 1431.78 486.205 1460.01 449.311 1500.18 443.963 z"/>
<path transform="translate(0,0)" fill="rgb(254,254,252)" d="M 1530.47 276.43 C 1538.62 281.941 1545.95 291.53 1552.81 298.754 C 1567.06 313.77 1581.44 328.604 1595.1 344.162 C 1578.54 345.285 1561.87 344.789 1545.28 344.727 L 1470.25 344.427 C 1452.09 344.347 1433.85 343.929 1415.7 344.691 C 1440.6 324.212 1463.57 301.357 1488.65 281.117 C 1491.13 285.339 1493.76 289.424 1498.19 291.811 C 1503.22 294.517 1508.9 295.075 1514.29 293.158 C 1522.72 290.166 1526.62 283.927 1530.47 276.43 z"/>
<path transform="translate(0,0)" fill="rgb(254,254,252)" d="M 1503.61 266.112 C 1507.32 266.078 1512.06 265.519 1515.32 267.661 C 1517.73 269.24 1517.81 270.16 1518.29 272.766 C 1517.29 276.203 1515.93 277.734 1513.4 280.223 C 1511 280.817 1507.58 281.428 1505.26 280.383 C 1503.34 279.522 1501.48 277.495 1501.01 275.421 C 1500.28 272.17 1501.75 268.67 1503.61 266.112 z"/>
<path transform="translate(0,0)" fill="rgb(48,67,77)" d="M 1112.03 488.182 C 1117.46 487.781 1122.3 487.528 1127.6 489.201 C 1135.69 491.755 1142.62 497.343 1146.35 505.02 C 1149.85 512.256 1150.28 520.592 1147.57 528.153 C 1144.47 536.99 1138.27 542.574 1129.98 546.446 C 1125.1 547.635 1119.46 547.687 1114.55 546.633 C 1107.86 545.194 1102.03 541.367 1098.32 535.576 C 1093.37 527.844 1092.65 517.313 1094.98 508.584 C 1097.63 498.685 1103.29 493.017 1112.03 488.182 z"/>
<path transform="translate(0,0)" fill="rgb(254,254,252)" d="M 1117.84 499.047 C 1118.5 499.095 1119.15 499.133 1119.81 499.191 C 1125.52 499.697 1131.15 502.253 1134.75 506.823 C 1137.6 510.424 1138.66 514.931 1137.89 519.433 C 1136.68 526.437 1132 530.846 1126.38 534.677 C 1122.91 535.5 1119.85 536.036 1116.37 534.932 C 1112.53 533.717 1109.48 530.817 1107.71 527.251 C 1105.09 521.978 1105.15 515.411 1107.25 509.977 C 1109.43 504.336 1112.5 501.599 1117.84 499.047 z"/>
<path transform="translate(0,0)" fill="rgb(48,67,77)" d="M 1830.22 773.104 C 1836.13 772.611 1841.12 772.915 1846.54 775.586 C 1852.81 778.663 1857.62 784.09 1859.93 790.691 C 1862.39 797.911 1861.55 806.305 1858.18 813.101 C 1854.54 820.439 1849.11 824.553 1841.44 826.963 C 1838.71 826.738 1836.11 826.356 1833.48 825.546 C 1825.21 823.002 1817.85 817.59 1814.08 809.658 C 1811.15 803.513 1810.83 796.446 1813.19 790.059 C 1816.25 781.547 1822.3 776.827 1830.22 773.104 z"/>
<path transform="translate(0,0)" fill="rgb(254,254,252)" d="M 1831.36 780.777 C 1831.61 780.802 1831.86 780.82 1832.11 780.854 C 1837.87 781.632 1842.88 784.2 1846.29 789.028 C 1849.32 793.318 1850.54 798.631 1849.41 803.787 C 1848.21 809.24 1845.77 811.858 1841.15 814.772 C 1835.75 814.888 1830.78 814.627 1826.45 810.988 C 1823.41 808.434 1821.89 804.768 1821.73 800.85 C 1821.39 792.645 1825.92 786.373 1831.36 780.777 z"/>
<path transform="translate(0,0)" fill="rgb(48,67,77)" d="M 952.786 748.326 C 968.526 747.761 1032.82 745.871 1044.12 749.696 C 1046.93 750.646 1047.49 751.98 1048.82 754.487 C 1048.31 757.007 1046.86 758.471 1044.9 760.045 C 1028.8 760.45 960.899 762.428 950.247 757.794 C 948.686 756.051 948.322 755.738 947.898 753.47 C 949.37 751.149 950.537 749.907 952.786 748.326 z"/>
<path transform="translate(0,0)" fill="rgb(48,67,77)" d="M 335.328 1560.75 C 338.118 1558.99 341.648 1558.89 344.533 1560.49 C 347.418 1562.09 349.199 1565.14 349.177 1568.44 C 349.155 1571.74 347.333 1574.77 344.426 1576.33 C 340.145 1578.63 334.81 1577.13 332.359 1572.93 C 329.908 1568.74 331.221 1563.35 335.328 1560.75 z"/>
<path transform="translate(0,0)" fill="rgb(48,67,77)" d="M 959.671 316.291 C 964.3 315.003 969.104 317.684 970.437 322.301 C 971.771 326.917 969.137 331.747 964.534 333.126 C 959.866 334.524 954.954 331.846 953.601 327.164 C 952.249 322.482 954.976 317.597 959.671 316.291 z"/>
</svg>