<svg version="1.1" xmlns="http://www.w3.org/2000/svg" style="display: block;" viewBox="0 0 2048 2048" width="1024" height="1024">
<path transform="translate(0,0)" fill="rgb(249,242,233)" d="M 0 0 L 2048 0 L 2048 2048 L 0 2048 L 0 0 z"/>
<path transform="translate(0,0)" fill="rgb(169,183,154)" d="M 289.937 1126.59 C 279.49 1112.48 266.917 1099.54 255.109 1086.55 C 218.773 1046.57 177.521 1006.64 149.239 960.453 C 129.838 929.113 119.16 893.16 118.312 856.31 C 117.887 828.726 121.362 800.949 131.361 775.105 C 139.951 752.903 153.091 733.365 166.1 713.607 C 198.256 664.767 226.377 616.596 227.955 556.216 C 230.137 472.716 181.381 398.414 167.731 317.017 C 158.133 259.782 170.036 204.291 204.141 157.051 C 213.203 144.498 223.558 132.462 235.7 122.78 C 266.335 98.3547 311.178 83.6891 349.666 77.5409 C 387.502 71.4967 428.074 71.8335 465.506 79.8797 C 491.646 85.4985 516.583 94.9375 541.7 103.916 C 599.978 124.747 657.189 149.535 715.887 168.952 C 781.997 190.822 851.653 201.655 917.049 225.94 C 942.575 235.419 968.235 247.401 990.304 263.437 C 1024.31 288.147 1043.76 320.181 1055.14 360.404 C 1063.56 390.857 1066.04 422.645 1062.45 454.036 C 1051.24 549.755 986.93 612.529 965.848 703.562 C 964.04 711.37 959.156 727.854 960.349 735.23 L 964.341 736.965 L 1467.21 747.965 C 1515.26 748.862 1563.26 751.224 1611.29 752.152 C 1662.82 753.147 1714.69 751.64 1765.68 760.443 C 1795.8 765.643 1828.7 775.034 1850.61 797.647 C 1875.3 823.123 1881.4 860.767 1880.73 894.906 C 1880.34 914.74 1878.34 934.643 1876.74 954.411 C 1872.69 1004.37 1866.87 1054.4 1863.52 1104.38 C 1877.11 1099.57 1922.79 1081.25 1934.08 1082.28 C 1934.05 1084.36 1934.41 1083.52 1932.73 1085.15 C 1930.57 1087.23 1928.12 1088.72 1925.3 1089.73 C 1915.54 1093.24 1905.18 1095.64 1895.31 1099.14 C 1875.69 1106.07 1727.78 1160.84 1718.3 1161.19 C 1716.79 1159.72 1717.08 1159.59 1716.78 1157.62 C 1719.55 1154.76 1843.1 1111.12 1857.72 1106.49 C 1862.69 1065.98 1865.46 1024.9 1868.77 984.223 C 1872.04 944.036 1878.81 899.841 1873.16 859.975 C 1870.54 841.482 1864.15 823.377 1852.58 808.534 C 1827.15 775.886 1780.02 767.072 1741.2 762.537 C 1694.21 757.047 1646.78 758.758 1599.59 757.765 L 1392 751.512 C 1268.74 747.345 1145.43 744.801 1022.09 743.881 C 981.13 743.764 939.26 739.212 898.47 743.064 C 874.792 745.3 851.786 752.362 833.013 767.368 C 815.84 781.095 803.508 799.749 794.983 819.848 C 783.731 846.377 778.939 875.311 774.208 903.573 L 758.904 999.23 C 756.477 1014.62 754.806 1030.58 751.485 1045.77 C 776.2 1051.58 797.871 1062.89 811.541 1085.17 C 816.753 1093.84 820.409 1103.35 822.345 1113.28 C 827.127 1137 827.332 1192.67 823.869 1216.66 C 846.123 1212.39 868.285 1207.64 890.339 1202.43 C 943.48 1189.73 966.695 1176.93 998.441 1130.79 C 1004.06 1122.62 1009.09 1114.02 1014.18 1105.51 C 1006.2 1096.68 1000.76 1087.96 996.189 1076.97 C 984.647 1077.11 931.423 1081.32 926.893 1080.06 L 925.602 1078.37 C 926.143 1075.83 926.345 1075.94 928.471 1074.38 C 950.456 1071.86 972.505 1071.87 994.599 1071.96 L 991.512 1059.56 C 975.111 1056.64 958.774 1052.94 942.332 1050.37 C 934.156 1049.09 925.234 1049.14 917.26 1047.33 C 915.065 1046.84 914.288 1046.5 912.624 1044.94 C 913.282 1042.73 913.275 1043.12 915.006 1041.92 C 939.927 1041.7 966.417 1048.52 990.617 1054.06 C 989.253 1033.82 990.345 1014.39 997.906 995.345 C 994.601 994.197 991.277 993.561 989.235 990.504 L 989.499 988.595 C 993.809 987.282 996.008 988.394 999.914 990.27 C 1007.09 974.796 1015.92 960.147 1026.26 946.582 C 1015.93 925.806 1002 886.572 1009.05 863.264 C 1009.78 860.838 1011.25 858.258 1013.66 857.175 C 1018.51 854.999 1028.35 859.247 1032.72 861.555 C 1050.67 871.034 1066.78 902.815 1077.21 919.862 C 1104.23 920.091 1131.48 924.647 1157.61 931.465 C 1169.43 910.653 1183.58 881.511 1208.57 874.57 C 1212.83 873.385 1217.66 873.167 1221.55 875.58 C 1228.96 880.169 1230.92 891.76 1232.43 899.658 C 1238.68 932.301 1234.06 964.317 1227.41 996.449 C 1233.46 1010.61 1237.6 1022.52 1238.12 1037.96 C 1313.11 1058.59 1321.25 1037.6 1389.37 1029.21 C 1421.24 1025.29 1452.98 1025.4 1484.91 1028.38 C 1506.61 1030.4 1528.92 1033.31 1549.96 1039.15 C 1613.21 1056.54 1666.91 1098.48 1699.09 1155.64 C 1727.21 1205.16 1751.25 1277.64 1735.66 1334.14 C 1721.86 1384.15 1684.71 1414.92 1688.73 1471.69 C 1690 1489.88 1695.33 1507.56 1704.32 1523.42 C 1718.16 1547.95 1739.95 1565.09 1764.58 1577.96 C 1773.43 1582.58 1783.88 1586.86 1790.6 1594.43 C 1795.07 1599.46 1796.1 1604.42 1794.18 1610.87 C 1791.18 1620.86 1784.22 1629.18 1774.92 1633.9 C 1758.49 1642.21 1736.76 1638.8 1720.05 1632.91 C 1679.48 1618.6 1645.15 1582.5 1626.96 1544.19 C 1604.14 1496.13 1602.37 1444.74 1620.34 1394.75 C 1627.63 1374.48 1637.3 1354.64 1646.76 1335.31 C 1617.04 1362.31 1592.94 1360.56 1555.06 1362.44 C 1548.44 1362.77 1541.47 1362.71 1534.95 1363.78 C 1518.84 1366.43 1503.37 1376.68 1488.05 1382.49 C 1473.17 1388.13 1457.37 1393.07 1443.17 1400.28 C 1405.75 1419.3 1393.01 1453.2 1391.1 1493.44 C 1390.06 1515.27 1390.92 1537.3 1390.59 1559.16 L 1388.91 1746.69 C 1388.76 1763.45 1388.71 1780.21 1388.76 1796.97 C 1388.81 1806.62 1389.5 1816.72 1388.81 1826.32 C 1388.59 1829.33 1388.3 1831.8 1387.01 1834.53 L 1385.5 1834.83 C 1382.98 1832.39 1383.31 1830.71 1383.25 1827.29 C 1382.64 1794.41 1383.64 1761.42 1383.88 1728.54 L 1384.37 1597.68 L 1384.93 1537.56 C 1385 1514.01 1384.25 1490.13 1388.52 1466.86 C 1391.99 1447.98 1399.72 1429.25 1413.22 1415.3 C 1433.43 1394.44 1463.95 1386.66 1490.27 1376.34 C 1501.06 1372.11 1511.61 1367.26 1522.1 1362.37 C 1502.19 1364.83 1481.92 1365.54 1461.91 1367.33 C 1429.95 1370.18 1397.95 1373.45 1365.85 1374 C 1356.47 1374.15 1346.52 1374.77 1337.19 1373.66 C 1332.86 1373.15 1329.08 1371.92 1325.59 1369.23 C 1321.22 1365.86 1319.01 1360.74 1318.41 1355.35 C 1317.36 1345.79 1320.84 1336.88 1326.92 1329.64 C 1327.77 1328.64 1328.65 1327.66 1329.54 1326.71 C 1295.58 1325.09 1261.63 1322.07 1227.72 1319.51 C 1204.21 1317.73 1179.94 1317.03 1156.7 1313.16 C 1149.83 1321.69 1143.14 1328.57 1132.92 1333.17 C 1113.46 1341.93 1089.81 1344.36 1068.86 1347.94 C 1022.2 1355.92 975.281 1362.52 928.806 1371.52 C 912.086 1374.76 893.548 1377.15 877.567 1382.91 C 839.548 1396.62 814.828 1444 775.459 1448.35 C 767.131 1449.27 758.561 1449 751.875 1443.32 C 746.667 1438.9 744.4 1434.04 743.908 1427.25 C 742.304 1405.12 752.155 1380.35 766.862 1364.05 C 774.71 1355.35 783.91 1348.98 794.446 1343.94 C 819.246 1332.06 847.832 1325.26 873.841 1316.13 C 883.141 1312.87 982.425 1276.34 983.317 1271.19 C 974.797 1273.27 966.293 1277.25 957.895 1279.98 C 946.551 1283.67 933.819 1285.04 921.958 1286.35 C 863.35 1292.8 803.134 1283.95 745.839 1299.66 C 722.187 1306.14 666.297 1329.24 645.408 1316.15 C 637.898 1311.45 633.957 1303.35 631.682 1295.1 C 634.644 1280.37 639.926 1269.32 652.909 1260.65 C 656.657 1258.2 660.526 1255.93 664.5 1253.86 C 599.242 1268.8 493.22 1289.44 455.106 1350.15 C 432.493 1386.17 425.893 1436.32 435.588 1477.51 C 437.958 1487.58 442.141 1496.99 451.228 1502.62 C 456.746 1506.04 463.12 1508.29 469.359 1510 C 492.38 1516.3 516.737 1519.42 540.269 1523.36 L 650.385 1541.74 C 792.754 1566.08 935.263 1589.59 1077.91 1612.27 L 1254.24 1640.1 C 1291.48 1645.9 1329.2 1650.77 1366.15 1658.14 C 1370.31 1658.97 1377.18 1660.03 1379.26 1663.97 L 1378.21 1665.32 C 1365.7 1666.3 1333.43 1658.18 1319.19 1655.89 L 1163.97 1631.56 C 996.016 1605.43 828.266 1578 660.737 1549.27 C 600.33 1538.82 538.835 1531.03 478.914 1518.26 C 466.887 1515.69 452.025 1512 442.63 1503.53 C 428.01 1490.36 427.061 1462.19 426.692 1444.01 C 425.834 1401.81 435.296 1359.39 465.481 1328.15 C 516.062 1275.8 649.629 1249.77 719.67 1238.31 C 752.549 1232.93 787.197 1232.61 817.816 1218.1 C 820.699 1189.95 822.73 1135.66 815.616 1109.1 C 812.919 1098.75 808.064 1089.1 801.37 1080.77 C 786.982 1062.95 765.908 1052.98 743.372 1050.82 C 732.949 1049.87 722.455 1050.03 712.066 1051.29 C 698.257 1052.87 684.526 1056.06 670.849 1058.52 C 648.658 1062.49 626.427 1066.23 604.159 1069.74 C 539.369 1079.71 474.681 1090.34 410.104 1101.61 C 380.636 1106.73 329.823 1112.71 304.286 1124.58 C 332.575 1124.97 359.174 1134.17 379.166 1154.83 C 392.802 1168.92 401.379 1186.47 406.415 1205.29 C 423.13 1267.78 418.096 1354.04 417.152 1419.4 C 416.501 1464.48 416.647 1509.65 415.608 1554.71 C 415.214 1571.78 416.452 1637.19 413.412 1646.28 C 410.986 1646.46 411.29 1646.92 409.28 1645.18 C 408.521 1559.41 411.704 1473.45 412.128 1387.66 C 412.418 1328.88 416.017 1266.42 401.583 1208.92 C 396.661 1189.31 387.791 1171.18 373.248 1156.9 C 356.308 1140.28 330.365 1129.15 306.451 1129.83 C 294.817 1130.16 285.854 1134.06 277.856 1142.59 C 260.264 1161.34 251.116 1191.67 252.065 1217.02 C 252.985 1241.61 263.057 1258.14 280.008 1275.28 C 285.57 1280.9 291.713 1286.41 296.447 1292.75 C 297.528 1320.24 296.163 1347.84 296.044 1375.34 L 295.717 1531.03 C 295.636 1557.74 293.651 1592.37 296.203 1618.28 C 296.783 1624.17 297.723 1632.89 302.208 1636.96 C 305.637 1640.08 309.874 1641.78 314.35 1642.76 C 341.355 1648.65 368.993 1652.52 396.169 1657.71 L 573.175 1692.19 L 974.738 1770.57 L 1222.04 1818.02 C 1269.87 1827.27 1317.77 1837.56 1365.92 1844.97 C 1389.2 1848.55 1412.7 1851.41 1436.28 1849.54 C 1441.85 1849.1 1446.55 1848.31 1451.82 1846.36 C 1466.3 1840.97 1480.06 1832.42 1493.52 1824.9 C 1511.75 1814.64 1530.05 1804.52 1548.43 1794.52 L 1769.77 1674.23 C 1795.75 1660.25 1821.62 1646.15 1847.81 1632.56 C 1858.97 1626.77 1870.2 1620.32 1881.71 1615.29 C 1886.14 1613.35 1892.44 1610.59 1897.27 1611.4 L 1897.47 1613.67 C 1880.51 1624.41 1856.13 1634.63 1837.51 1644.47 L 1707.51 1714.51 L 1539.61 1805.99 C 1513.77 1820.1 1488.06 1836.5 1461.36 1848.79 C 1450.33 1853.86 1439.88 1854.97 1427.97 1856.12 C 1427.96 1878.41 1424.37 1968.25 1409.18 1980.91 C 1403.13 1985.95 1388.37 1985.04 1381 1983.64 C 1375.67 1982.63 1370.45 1980.2 1367.36 1975.56 C 1355.19 1957.3 1350.11 1872.73 1349.87 1848.56 L 997.025 1780.6 C 937.973 1769.37 878.603 1758.99 819.782 1746.61 C 826.736 1785.56 830.991 1819.35 808.447 1854.04 C 848.875 1870.82 890.37 1896.1 931.96 1907.79 C 948.182 1912.35 965.268 1914.44 982.071 1915.51 C 988.782 1915.94 1013.33 1914.63 1017.79 1917.2 L 1017.72 1918.97 C 1009.86 1924.69 963.701 1918.59 952.322 1916.77 C 904.925 1909.17 849.174 1876.43 803.923 1857.17 C 772.629 1904.22 717.52 1931.98 664.226 1945.92 C 552.549 1975.13 427.548 1974.73 315.935 1945.57 C 280.768 1936.39 247.422 1925.03 215.976 1906.51 C 162.278 1874.87 121.934 1828.14 106.508 1766.97 C 97.3132 1730.5 98.8876 1685 112.001 1649.44 C 117.936 1633.35 127.051 1617.71 135.9 1603.06 C 163.974 1556.56 207.647 1522.44 254.421 1496.26 C 265.283 1490.17 278.213 1482.47 290.249 1479.45 L 290.44 1363.88 C 290.49 1340.69 291.661 1316.97 290.069 1293.88 C 279.644 1281.65 267.217 1271.95 258.639 1258.04 C 245.466 1236.69 243.964 1211.61 249.619 1187.61 C 255.466 1162.8 267.848 1140.13 289.937 1126.59 z"/>
<path transform="translate(0,0)" fill="rgb(0,0,0)" d="M 745.816 1045.22 C 748.674 1032.77 749.986 1019.54 751.966 1006.9 L 766.301 917.764 C 771.644 885.347 776.09 851.887 788.396 821.234 C 796.944 799.942 809.087 780.304 826.645 765.285 C 863.396 733.851 918.464 733.404 964.341 736.965 L 1467.21 747.965 C 1515.26 748.862 1563.26 751.224 1611.29 752.152 C 1662.82 753.147 1714.69 751.64 1765.68 760.443 C 1795.8 765.643 1828.7 775.034 1850.61 797.647 C 1875.3 823.123 1881.4 860.767 1880.73 894.906 C 1880.34 914.74 1878.34 934.643 1876.74 954.411 C 1872.69 1004.37 1866.87 1054.4 1863.52 1104.38 C 1877.11 1099.57 1922.79 1081.25 1934.08 1082.28 C 1934.05 1084.36 1934.41 1083.52 1932.73 1085.15 C 1930.57 1087.23 1928.12 1088.72 1925.3 1089.73 C 1915.54 1093.24 1905.18 1095.64 1895.31 1099.14 C 1875.69 1106.07 1727.78 1160.84 1718.3 1161.19 C 1716.79 1159.72 1717.08 1159.59 1716.78 1157.62 C 1719.55 1154.76 1843.1 1111.12 1857.72 1106.49 C 1862.69 1065.98 1865.46 1024.9 1868.77 984.223 C 1872.04 944.036 1878.81 899.841 1873.16 859.975 C 1870.54 841.482 1864.15 823.377 1852.58 808.534 C 1827.15 775.886 1780.02 767.072 1741.2 762.537 C 1694.21 757.047 1646.78 758.758 1599.59 757.765 L 1392 751.512 C 1268.74 747.345 1145.43 744.801 1022.09 743.881 C 981.13 743.764 939.26 739.212 898.47 743.064 C 874.792 745.3 851.786 752.362 833.013 767.368 C 815.84 781.095 803.508 799.749 794.983 819.848 C 783.731 846.377 778.939 875.311 774.208 903.573 L 758.904 999.23 C 756.477 1014.62 754.806 1030.58 751.485 1045.77 C 776.2 1051.58 797.871 1062.89 811.541 1085.17 C 816.753 1093.84 820.409 1103.35 822.345 1113.28 C 827.127 1137 827.332 1192.67 823.869 1216.66 C 846.123 1212.39 868.285 1207.64 890.339 1202.43 C 943.48 1189.73 966.695 1176.93 998.441 1130.79 C 1004.06 1122.62 1009.09 1114.02 1014.18 1105.51 C 1006.2 1096.68 1000.76 1087.96 996.189 1076.97 C 984.647 1077.11 931.423 1081.32 926.893 1080.06 L 925.602 1078.37 C 926.143 1075.83 926.345 1075.94 928.471 1074.38 C 950.456 1071.86 972.505 1071.87 994.599 1071.96 L 991.512 1059.56 C 975.111 1056.64 958.774 1052.94 942.332 1050.37 C 934.156 1049.09 925.234 1049.14 917.26 1047.33 C 915.065 1046.84 914.288 1046.5 912.624 1044.94 C 913.282 1042.73 913.275 1043.12 915.006 1041.92 C 939.927 1041.7 966.417 1048.52 990.617 1054.06 C 989.253 1033.82 990.345 1014.39 997.906 995.345 C 994.601 994.197 991.277 993.561 989.235 990.504 L 989.499 988.595 C 993.809 987.282 996.008 988.394 999.914 990.27 C 1007.09 974.796 1015.92 960.147 1026.26 946.582 C 1015.93 925.806 1002 886.572 1009.05 863.264 C 1009.78 860.838 1011.25 858.258 1013.66 857.175 C 1018.51 854.999 1028.35 859.247 1032.72 861.555 C 1050.67 871.034 1066.78 902.815 1077.21 919.862 C 1104.23 920.091 1131.48 924.647 1157.61 931.465 C 1169.43 910.653 1183.58 881.511 1208.57 874.57 C 1212.83 873.385 1217.66 873.167 1221.55 875.58 C 1228.96 880.169 1230.92 891.76 1232.43 899.658 C 1238.68 932.301 1234.06 964.317 1227.41 996.449 C 1233.46 1010.61 1237.6 1022.52 1238.12 1037.96 C 1313.11 1058.59 1321.25 1037.6 1389.37 1029.21 C 1421.24 1025.29 1452.98 1025.4 1484.91 1028.38 C 1506.61 1030.4 1528.92 1033.31 1549.96 1039.15 C 1613.21 1056.54 1666.91 1098.48 1699.09 1155.64 C 1727.21 1205.16 1751.25 1277.64 1735.66 1334.14 C 1721.86 1384.15 1684.71 1414.92 1688.73 1471.69 C 1690 1489.88 1695.33 1507.56 1704.32 1523.42 C 1718.16 1547.95 1739.95 1565.09 1764.58 1577.96 C 1773.43 1582.58 1783.88 1586.86 1790.6 1594.43 C 1795.07 1599.46 1796.1 1604.42 1794.18 1610.87 C 1791.18 1620.86 1784.22 1629.18 1774.92 1633.9 C 1758.49 1642.21 1736.76 1638.8 1720.05 1632.91 C 1679.48 1618.6 1645.15 1582.5 1626.96 1544.19 C 1604.14 1496.13 1602.37 1444.74 1620.34 1394.75 C 1627.63 1374.48 1637.3 1354.64 1646.76 1335.31 C 1617.04 1362.31 1592.94 1360.56 1555.06 1362.44 C 1548.44 1362.77 1541.47 1362.71 1534.95 1363.78 C 1518.84 1366.43 1503.37 1376.68 1488.05 1382.49 C 1473.17 1388.13 1457.37 1393.07 1443.17 1400.28 C 1405.75 1419.3 1393.01 1453.2 1391.1 1493.44 C 1390.06 1515.27 1390.92 1537.3 1390.59 1559.16 L 1388.91 1746.69 C 1388.76 1763.45 1388.71 1780.21 1388.76 1796.97 C 1388.81 1806.62 1389.5 1816.72 1388.81 1826.32 C 1388.59 1829.33 1388.3 1831.8 1387.01 1834.53 L 1385.5 1834.83 C 1382.98 1832.39 1383.31 1830.71 1383.25 1827.29 C 1382.64 1794.41 1383.64 1761.42 1383.88 1728.54 L 1384.37 1597.68 L 1384.93 1537.56 C 1385 1514.01 1384.25 1490.13 1388.52 1466.86 C 1391.99 1447.98 1399.72 1429.25 1413.22 1415.3 C 1433.43 1394.44 1463.95 1386.66 1490.27 1376.34 C 1501.06 1372.11 1511.61 1367.26 1522.1 1362.37 C 1502.19 1364.83 1481.92 1365.54 1461.91 1367.33 C 1429.95 1370.18 1397.95 1373.45 1365.85 1374 C 1356.47 1374.15 1346.52 1374.77 1337.19 1373.66 C 1332.86 1373.15 1329.08 1371.92 1325.59 1369.23 C 1321.22 1365.86 1319.01 1360.74 1318.41 1355.35 C 1317.36 1345.79 1320.84 1336.88 1326.92 1329.64 C 1327.77 1328.64 1328.65 1327.66 1329.54 1326.71 C 1295.58 1325.09 1261.63 1322.07 1227.72 1319.51 C 1204.21 1317.73 1179.94 1317.03 1156.7 1313.16 C 1149.83 1321.69 1143.14 1328.57 1132.92 1333.17 C 1113.46 1341.93 1089.81 1344.36 1068.86 1347.94 C 1022.2 1355.92 975.281 1362.52 928.806 1371.52 C 912.086 1374.76 893.548 1377.15 877.567 1382.91 C 839.548 1396.62 814.828 1444 775.459 1448.35 C 767.131 1449.27 758.561 1449 751.875 1443.32 C 746.667 1438.9 744.4 1434.04 743.908 1427.25 C 742.304 1405.12 752.155 1380.35 766.862 1364.05 C 774.71 1355.35 783.91 1348.98 794.446 1343.94 C 819.246 1332.06 847.832 1325.26 873.841 1316.13 C 883.141 1312.87 982.425 1276.34 983.317 1271.19 C 974.797 1273.27 966.293 1277.25 957.895 1279.98 C 946.551 1283.67 933.819 1285.04 921.958 1286.35 C 863.35 1292.8 803.134 1283.95 745.839 1299.66 C 722.187 1306.14 666.297 1329.24 645.408 1316.15 C 637.898 1311.45 633.957 1303.35 631.682 1295.1 C 634.644 1280.37 639.926 1269.32 652.909 1260.65 C 656.657 1258.2 660.526 1255.93 664.5 1253.86 C 599.242 1268.8 493.22 1289.44 455.106 1350.15 C 432.493 1386.17 425.893 1436.32 435.588 1477.51 C 437.958 1487.58 442.141 1496.99 451.228 1502.62 C 456.746 1506.04 463.12 1508.29 469.359 1510 C 492.38 1516.3 516.737 1519.42 540.269 1523.36 L 650.385 1541.74 C 792.754 1566.08 935.263 1589.59 1077.91 1612.27 L 1254.24 1640.1 C 1291.48 1645.9 1329.2 1650.77 1366.15 1658.14 C 1370.31 1658.97 1377.18 1660.03 1379.26 1663.97 L 1378.21 1665.32 C 1365.7 1666.3 1333.43 1658.18 1319.19 1655.89 L 1163.97 1631.56 C 996.016 1605.43 828.266 1578 660.737 1549.27 C 600.33 1538.82 538.835 1531.03 478.914 1518.26 C 466.887 1515.69 452.025 1512 442.63 1503.53 C 428.01 1490.36 427.061 1462.19 426.692 1444.01 C 425.834 1401.81 435.296 1359.39 465.481 1328.15 C 516.062 1275.8 649.629 1249.77 719.67 1238.31 C 752.549 1232.93 787.197 1232.61 817.816 1218.1 C 820.699 1189.95 822.73 1135.66 815.616 1109.1 C 812.919 1098.75 808.064 1089.1 801.37 1080.77 C 786.982 1062.95 765.908 1052.98 743.372 1050.82 C 732.949 1049.87 722.455 1050.03 712.066 1051.29 C 698.257 1052.87 684.526 1056.06 670.849 1058.52 C 648.658 1062.49 626.427 1066.23 604.159 1069.74 C 539.369 1079.71 474.681 1090.34 410.104 1101.61 C 380.636 1106.73 329.823 1112.71 304.286 1124.58 C 332.575 1124.97 359.174 1134.17 379.166 1154.83 C 392.802 1168.92 401.379 1186.47 406.415 1205.29 C 423.13 1267.78 418.096 1354.04 417.152 1419.4 C 416.501 1464.48 416.647 1509.65 415.608 1554.71 C 415.214 1571.78 416.452 1637.19 413.412 1646.28 C 410.986 1646.46 411.29 1646.92 409.28 1645.18 C 408.521 1559.41 411.704 1473.45 412.128 1387.66 C 412.418 1328.88 416.017 1266.42 401.583 1208.92 C 396.661 1189.31 387.791 1171.18 373.248 1156.9 C 356.308 1140.28 330.365 1129.15 306.451 1129.83 C 294.817 1130.16 285.854 1134.06 277.856 1142.59 C 260.264 1161.34 251.116 1191.67 252.065 1217.02 C 252.985 1241.61 263.057 1258.14 280.008 1275.28 C 285.57 1280.9 291.713 1286.41 296.447 1292.75 C 297.528 1320.24 296.163 1347.84 296.044 1375.34 L 295.717 1531.03 C 295.636 1557.74 293.651 1592.37 296.203 1618.28 C 296.783 1624.17 297.723 1632.89 302.208 1636.96 C 305.637 1640.08 309.874 1641.78 314.35 1642.76 C 341.355 1648.65 368.993 1652.52 396.169 1657.71 L 573.175 1692.19 L 974.738 1770.57 L 1222.04 1818.02 C 1269.87 1827.27 1317.77 1837.56 1365.92 1844.97 C 1389.2 1848.55 1412.7 1851.41 1436.28 1849.54 C 1441.85 1849.1 1446.55 1848.31 1451.82 1846.36 C 1466.3 1840.97 1480.06 1832.42 1493.52 1824.9 C 1511.75 1814.64 1530.05 1804.52 1548.43 1794.52 L 1769.77 1674.23 C 1795.75 1660.25 1821.62 1646.15 1847.81 1632.56 C 1858.97 1626.77 1870.2 1620.32 1881.71 1615.29 C 1886.14 1613.35 1892.44 1610.59 1897.27 1611.4 L 1897.47 1613.67 C 1880.51 1624.41 1856.13 1634.63 1837.51 1644.47 L 1707.51 1714.51 L 1539.61 1805.99 C 1513.77 1820.1 1488.06 1836.5 1461.36 1848.79 C 1450.33 1853.86 1439.88 1854.97 1427.97 1856.12 C 1427.96 1878.41 1424.37 1968.25 1409.18 1980.91 C 1403.13 1985.95 1388.37 1985.04 1381 1983.64 C 1375.67 1982.63 1370.45 1980.2 1367.36 1975.56 C 1355.19 1957.3 1350.11 1872.73 1349.87 1848.56 L 997.025 1780.6 C 937.973 1769.37 878.603 1758.99 819.782 1746.61 C 826.736 1785.56 830.991 1819.35 808.447 1854.04 C 848.875 1870.82 890.37 1896.1 931.96 1907.79 C 948.182 1912.35 965.268 1914.44 982.071 1915.51 C 988.782 1915.94 1013.33 1914.63 1017.79 1917.2 L 1017.72 1918.97 C 1009.86 1924.69 963.701 1918.59 952.322 1916.77 C 904.925 1909.17 849.174 1876.43 803.923 1857.17 C 772.629 1904.22 717.52 1931.98 664.226 1945.92 C 552.549 1975.13 427.548 1974.73 315.935 1945.57 C 280.768 1936.39 247.422 1925.03 215.976 1906.51 C 162.278 1874.87 121.934 1828.14 106.508 1766.97 C 97.3132 1730.5 98.8876 1685 112.001 1649.44 C 117.936 1633.35 127.051 1617.71 135.9 1603.06 C 163.974 1556.56 207.647 1522.44 254.421 1496.26 C 265.283 1490.17 278.213 1482.47 290.249 1479.45 L 290.44 1363.88 C 290.49 1340.69 291.661 1316.97 290.069 1293.88 C 279.644 1281.65 267.217 1271.95 258.639 1258.04 C 245.466 1236.69 243.964 1211.61 249.619 1187.61 C 255.466 1162.8 267.848 1140.13 289.937 1126.59 C 300.165 1120.27 310.638 1115.2 322.339 1112.26 C 349.264 1105.5 377.838 1101.94 405.194 1097.13 C 461.766 1087.1 518.432 1077.6 575.183 1068.64 C 602.359 1064.43 629.49 1059.94 656.572 1055.16 C 676.772 1051.52 697.181 1046.95 717.593 1044.77 C 727.112 1043.75 736.326 1044.16 745.816 1045.22 z"/>
<path transform="translate(0,0)" fill="rgb(240,210,163)" d="M 290.249 1479.45 L 290.021 1572.52 C 289.987 1588.38 288.586 1605.73 290.932 1621.42 C 291.866 1627.66 294.045 1635.87 298.774 1640.4 C 309.687 1650.87 332.276 1650.95 346.553 1654.34 C 351.092 1679.23 347.552 1789.6 363.935 1802.13 C 369.872 1806.67 385.258 1807.76 392.462 1806.33 C 398.309 1805.17 402.039 1801.95 405.115 1796.96 C 418.449 1775.32 425.577 1695.35 423.36 1668.97 C 555.679 1693.85 687.189 1723.18 819.782 1746.61 C 826.736 1785.56 830.991 1819.35 808.447 1854.04 C 848.875 1870.82 890.37 1896.1 931.96 1907.79 C 948.182 1912.35 965.268 1914.44 982.071 1915.51 C 988.782 1915.94 1013.33 1914.63 1017.79 1917.2 L 1017.72 1918.97 C 1009.86 1924.69 963.701 1918.59 952.322 1916.77 C 904.925 1909.17 849.174 1876.43 803.923 1857.17 C 772.629 1904.22 717.52 1931.98 664.226 1945.92 C 552.549 1975.13 427.548 1974.73 315.935 1945.57 C 280.768 1936.39 247.422 1925.03 215.976 1906.51 C 162.278 1874.87 121.934 1828.14 106.508 1766.97 C 97.3132 1730.5 98.8876 1685 112.001 1649.44 C 117.936 1633.35 127.051 1617.71 135.9 1603.06 C 163.974 1556.56 207.647 1522.44 254.421 1496.26 C 265.283 1490.17 278.213 1482.47 290.249 1479.45 z"/>
<path transform="translate(0,0)" fill="rgb(0,0,0)" d="M 803.923 1857.17 C 716.703 1825.57 659.171 1818.59 569.975 1854.49 C 546.228 1864.04 522.794 1877.17 498.028 1883.81 C 494.513 1884.76 491.173 1885.74 487.906 1883.85 L 487.828 1882 C 493.872 1877.72 505.438 1876.95 512.568 1874.35 C 530.578 1867.78 548.133 1858.16 565.924 1850.79 C 654.136 1814.28 722.103 1818.28 808.447 1854.04 C 848.875 1870.82 890.37 1896.1 931.96 1907.79 C 948.182 1912.35 965.268 1914.44 982.071 1915.51 C 988.782 1915.94 1013.33 1914.63 1017.79 1917.2 L 1017.72 1918.97 C 1009.86 1924.69 963.701 1918.59 952.322 1916.77 C 904.925 1909.17 849.174 1876.43 803.923 1857.17 z"/>
<path transform="translate(0,0)" fill="rgb(249,242,233)" d="M 1005.83 992.328 C 1009.87 983.119 1014.77 974.623 1020.33 966.245 C 1024.65 959.747 1031.2 952.221 1033.84 944.919 C 1029.86 939.043 1025.44 933.293 1023.32 926.47 C 1019.01 912.622 1008.8 880.747 1015.08 867.415 C 1015.91 865.651 1017.48 863.979 1019.4 863.491 C 1023.05 862.56 1026.34 864.379 1029.32 866.346 C 1051.05 880.714 1066.16 922.545 1078.11 929.511 L 1079.48 929.128 L 1080.68 926.394 C 1091.81 922.452 1139.95 933.46 1154.24 935.542 C 1154.36 937.09 1154.36 938.388 1154.26 939.923 L 1156.36 941.67 L 1158.21 941.351 C 1169.76 922.345 1188.07 885.714 1210.63 879.212 C 1212.83 878.578 1215.13 878.518 1217.22 879.573 C 1223.12 882.556 1224.7 892.836 1225.98 898.752 C 1232.51 929.097 1228.78 958.728 1222.92 988.798 C 1221.34 989.738 1220.7 989.961 1218.97 990.302 C 1218.58 998.117 1225.74 1008.15 1228.39 1015.48 C 1230.36 1020.95 1231.51 1026.89 1232.11 1032.67 C 1232.86 1040.04 1229.09 1052.98 1231.77 1058.95 C 1234.68 1058.87 1234.57 1058.89 1236.65 1056.85 C 1238.07 1052.51 1237.97 1048.18 1238.1 1043.66 C 1311.54 1064.67 1322.1 1043.5 1388.71 1035.08 C 1418.9 1031.26 1448.87 1031.34 1479.16 1033.77 C 1573.94 1041.39 1648.41 1076.51 1696.07 1162.46 C 1722.69 1210.47 1745.03 1279.75 1729.44 1333.88 C 1722.93 1356.48 1710.48 1376.11 1699.98 1396.92 C 1678.43 1439.65 1675.61 1483.52 1699.12 1526.21 C 1707.84 1542.06 1719.54 1554.38 1733.72 1565.47 C 1739.49 1569.97 1745.54 1574.09 1751.84 1577.81 C 1759.82 1582.51 1786.38 1594.41 1789.01 1603.08 C 1789.58 1604.97 1789.13 1607.76 1788.55 1609.61 C 1786.03 1617.64 1778.87 1624.9 1771.5 1628.68 C 1757 1636.09 1736.6 1632.41 1721.87 1627.17 C 1680.3 1612.39 1648.12 1575.14 1629.89 1536.07 C 1609.59 1492.58 1609.14 1442.54 1625.57 1397.71 C 1635.07 1371.79 1647.97 1346.51 1659.87 1321.6 C 1663.56 1313.88 1668.28 1306.65 1671.16 1298.55 C 1673.44 1292.15 1675.62 1283.93 1674.47 1277.12 L 1672.81 1275.97 C 1669.69 1277.85 1669.13 1280.94 1668.28 1284.34 C 1666.83 1290.19 1665.78 1296.42 1663.63 1302.05 C 1657.21 1318.91 1640.69 1335.04 1625.5 1344.19 C 1617.63 1348.91 1608.92 1352.07 1599.85 1353.48 C 1568.83 1358.34 1535.76 1356.18 1504.34 1358.1 C 1455.3 1361.1 1406.68 1367.54 1357.47 1368.39 C 1356.07 1365.39 1359.18 1363.84 1357.64 1360.9 L 1355.57 1360.99 C 1355.4 1361.29 1355.23 1361.59 1355.06 1361.88 C 1353.12 1365.09 1351.67 1367.12 1347.86 1368.16 C 1344.89 1368.97 1340.15 1368.06 1337.06 1367.81 C 1339.16 1363.38 1341.11 1359.07 1344.73 1355.64 C 1351.14 1349.57 1364.04 1346.32 1368 1342.14 C 1368.88 1341.2 1368.47 1341.26 1368.25 1339.67 C 1364.19 1337.96 1358.36 1340.34 1354.55 1341.94 C 1344.59 1346.13 1336.94 1353.18 1332.98 1363.27 C 1332.53 1364.44 1332.1 1365.61 1331.7 1366.79 C 1326.88 1361.71 1325.05 1357.55 1323.42 1350.8 C 1327.64 1334.82 1338.03 1324.51 1352.08 1316.43 C 1359.21 1312.33 1366.79 1309.51 1374.97 1308.43 C 1392.44 1306.11 1485.95 1314.73 1492.65 1298.59 C 1488.7 1293.86 1480.16 1291.94 1474.43 1289.89 C 1444.07 1279.05 1414.35 1266.58 1399.94 1235.76 C 1394.56 1224.25 1391.59 1211.86 1392.76 1199.13 C 1395.01 1175.49 1406.63 1153.73 1425.04 1138.73 C 1435.97 1129.76 1448.45 1121.8 1461 1115.3 C 1467.95 1111.7 1477.3 1109.14 1483.22 1104.21 C 1482.82 1102.01 1482.76 1101.91 1481.13 1100.38 C 1461.43 1102.51 1418.56 1133.86 1406.39 1149.19 C 1392.88 1166.2 1384.29 1190.62 1386.89 1212.45 C 1389.45 1233.98 1401.31 1255.7 1418.5 1268.98 C 1435.58 1282.17 1463.02 1294.54 1484.19 1299.31 C 1469.91 1301.34 1455.86 1302.79 1441.4 1302.81 C 1418.42 1302.85 1384.98 1298.23 1363.69 1304.7 C 1352.41 1308.13 1343.12 1314.89 1334.1 1322.25 C 1275.75 1320.87 1217.2 1313.18 1158.92 1309.59 C 1164.99 1297.32 1167.06 1284.32 1176.87 1274.38 L 1177.3 1272.53 C 1175.53 1270.69 1175.57 1270.48 1173.06 1270.23 C 1157.57 1278.65 1160.62 1313.19 1132.99 1326.78 C 1112.65 1336.79 1085.32 1339.25 1063.02 1343.02 C 1021.87 1349.97 980.521 1355.93 939.462 1363.4 C 917.961 1367.32 895.551 1370.93 874.772 1377.84 C 837.834 1390.14 817.382 1428.02 781.522 1442.38 C 782.912 1437.1 784.438 1432.59 783.377 1427.08 C 780.549 1429.1 779.445 1430.49 778.237 1433.69 C 777.077 1436.76 776.538 1439.78 773.923 1441.81 C 771.078 1441.97 768.452 1442.25 765.675 1441.44 L 764.857 1439.76 C 766.096 1432.52 773.05 1423.58 778.858 1419.22 C 781.172 1417.66 783.43 1416.56 784.312 1413.74 L 783.43 1412.22 C 781.386 1411.92 779.945 1412.17 778.055 1413.05 C 767.66 1417.89 762.47 1430.37 758.723 1440.42 L 757.042 1440.18 C 754.301 1438.33 752.313 1435.77 751.018 1432.72 C 746.64 1422.41 751.795 1404.57 755.581 1394.55 C 761.739 1378.24 771.019 1365.96 785.451 1356.17 C 807.002 1341.54 848.546 1331.33 874.212 1322.28 C 907.682 1310.48 941.214 1297.92 973.462 1283.12 C 993.842 1273.76 1024.01 1259.74 1031.96 1236.89 C 1034.15 1230.6 1035.6 1221.88 1032.52 1215.69 C 1030.56 1214.62 1030.49 1214.53 1028.3 1214.88 C 1023.92 1223.27 1029.93 1232.74 1022.15 1243.71 C 1012.81 1256.88 997.726 1261.07 983.261 1265.85 C 970.038 1270.23 956.824 1274.65 943.169 1277.5 C 910.668 1284.28 875.743 1284 842.643 1284 C 820.845 1284.01 798.802 1283.37 777.169 1286.49 C 740.976 1291.71 707.099 1306.68 671.187 1313.7 C 673.215 1309.7 676.129 1305.28 677.311 1300.98 C 677.923 1298.75 677.678 1298.36 676.627 1296.47 L 673.952 1296.09 C 669.988 1302.22 668.872 1311.13 662.757 1315.03 C 660.372 1315.02 660.42 1314.97 658.612 1313.4 C 657.986 1311.45 657.774 1310.31 658.087 1308.24 C 659.117 1301.43 665.638 1296.61 671.028 1293.28 C 671.533 1292.86 672.05 1292.46 672.543 1292.03 C 674.668 1290.18 675.002 1290.15 675.146 1287.44 L 673.34 1286.44 C 670.261 1286.82 668.114 1287.66 665.455 1289.3 C 656.338 1294.9 653.024 1303.18 650.904 1313.09 C 643.97 1307.55 640.573 1303.15 637.687 1294.71 C 638.943 1289.85 640.052 1285.12 642.499 1280.67 C 664.856 1240.07 744.178 1244.35 783.657 1235.67 C 798.256 1232.47 811.662 1226.4 826.042 1222.79 C 854.354 1215.67 883.242 1211 911.405 1203.18 C 945.167 1193.79 964.432 1182.54 987.041 1155.7 C 999.078 1141.41 1009.08 1126.35 1018.24 1110.12 C 1031.38 1122.07 1050.29 1129.39 1068.02 1129.61 C 1091.83 1129.91 1119.59 1118.4 1136.53 1101.81 C 1150.03 1106.72 1195.97 1126.31 1207.29 1126.86 L 1207.79 1125.74 C 1194.89 1111.81 1151.52 1105.72 1142.93 1095.29 L 1145.4 1092.7 L 1144.69 1091.62 C 1142.39 1091.39 1141.37 1091.76 1139.41 1092.82 C 1132.55 1096.53 1125.33 1091.24 1118.02 1090.11 C 1115.56 1089.73 1114.29 1089.88 1112.32 1091.32 L 1112.17 1094.02 C 1115.47 1097.14 1125.63 1098.24 1130.37 1099.36 C 1125.74 1103.33 1120.31 1108.05 1114.66 1110.39 C 1103.09 1115.18 1081.35 1113.41 1069.98 1108.49 C 1063.94 1105.87 1054.45 1100.68 1052.51 1093.78 C 1049.67 1083.62 1066.14 1084.36 1069.2 1076.45 C 1070.38 1073.37 1069.21 1071.8 1068.02 1069.1 C 1062.98 1073.5 1054.56 1081.57 1047.77 1083.04 C 1045.91 1083.44 1046.72 1083.44 1044.83 1082.23 C 1041.81 1074.48 1043.48 1069.37 1043.69 1061.59 L 1043.73 1060.02 C 1039.43 1063.93 1036.89 1069.23 1033.08 1073.57 C 1033.25 1073.92 1033.42 1074.26 1033.6 1074.6 C 1036.82 1080.67 1046.52 1087.33 1046.1 1094.04 C 1043.65 1096.2 1041.73 1096.43 1038.47 1096.28 C 1028.41 1095.81 1018.43 1092.22 1008.95 1089.12 C 1006.98 1085.8 1004.37 1082.44 1004.34 1078.46 C 1006.35 1075.71 1010.25 1076.04 1010.34 1073.13 C 1007.69 1071.75 1004.91 1071.96 1001.99 1071.91 C 999.505 1070.12 998.629 1064.4 997.722 1061.49 C 1004.16 1062.22 1010.62 1063.1 1017.09 1063.46 C 1010.59 1060.18 1003.94 1057.01 996.848 1055.23 C 994.529 1035.4 996.787 1016.57 1003.29 997.74 C 1012.9 1002.79 1024.09 1007.81 1032.02 1015.31 C 1036.59 1019.63 1041.76 1031.34 1047.05 1033.54 C 1049.51 1034.57 1051.23 1034.26 1053.6 1033.53 C 1054.03 1032.32 1054.58 1031.76 1054.01 1030.48 C 1052.54 1027.21 1048.16 1024.68 1045.69 1022.04 C 1043.27 1019.45 1041.53 1016.31 1039.05 1013.73 C 1029.88 1004.24 1017.46 998.199 1005.83 992.328 z"/>
<path transform="translate(0,0)" fill="rgb(85,75,74)" d="M 1043.73 1060.02 C 1047.05 1059.79 1050.44 1059.39 1053.76 1059.37 C 1058.96 1062.24 1063.4 1065.4 1068.02 1069.1 C 1062.98 1073.5 1054.56 1081.57 1047.77 1083.04 C 1045.91 1083.44 1046.72 1083.44 1044.83 1082.23 C 1041.81 1074.48 1043.48 1069.37 1043.69 1061.59 L 1043.73 1060.02 z"/>
<path transform="translate(0,0)" fill="rgb(0,0,0)" d="M 1123.65 1080.19 C 1124.35 1080.05 1125.28 1079.85 1126.01 1079.78 C 1142.67 1078.08 1214.15 1085.04 1226.35 1094.17 L 1226.57 1096.02 C 1225.41 1096.48 1224.33 1097.22 1223.09 1097.39 C 1222.24 1097.51 1176.39 1089.17 1168.79 1088.34 C 1156.41 1086.99 1140.4 1087.43 1128.55 1084.82 C 1125.17 1084.08 1125.18 1082.96 1123.65 1080.19 z"/>
<path transform="translate(0,0)" fill="rgb(0,0,0)" d="M 1129.21 1014.37 C 1130.26 1014.27 1131.95 1013.98 1133.04 1014.16 C 1135.48 1014.56 1136.03 1015.14 1137.57 1016.87 C 1136.33 1020.89 1133.01 1020.44 1129.51 1020.85 C 1111.02 1023.03 1095.81 1027.82 1081.53 1040.16 C 1080.28 1041.04 1078.76 1041.44 1077.34 1041.98 L 1076.1 1041.3 C 1075.64 1038.7 1076.32 1037.67 1077.89 1035.56 C 1088.06 1021.81 1113.19 1016.28 1129.21 1014.37 z"/>
<path transform="translate(0,0)" fill="rgb(240,210,163)" d="M 352.123 1655.54 C 373.892 1657.71 397.075 1662.88 418.3 1668.18 C 417.678 1706.68 415.552 1748.68 404.153 1785.65 C 401.991 1790.89 400.201 1796.11 394.941 1799.03 C 386.437 1803.75 374.888 1800.25 366.242 1797.5 C 355.587 1769.55 355.169 1724.91 354.506 1694.96 C 354.221 1682.07 355.068 1668.12 352.123 1655.54 z"/>
<path transform="translate(0,0)" fill="rgb(249,242,233)" d="M 1355.56 1849.41 C 1378.06 1852.61 1400.36 1855.58 1423.11 1856.04 C 1422.09 1867.95 1422.15 1880.02 1421.41 1891.96 C 1420 1917 1416.27 1941.86 1410.29 1966.22 C 1409.28 1969.3 1408.35 1973.51 1405.93 1975.84 C 1401.84 1979.77 1392.36 1979.39 1387.18 1978.84 C 1382.16 1978.31 1375.58 1977.13 1372.36 1972.78 C 1363.15 1960.35 1353.84 1865.15 1355.56 1849.41 z"/>
<path transform="translate(0,0)" fill="rgb(249,242,233)" d="M 1013.93 1096.74 C 1026.39 1100.35 1036.11 1103.46 1049.07 1100.08 C 1068.63 1121.73 1084.35 1114.45 1091.23 1119.65 C 1083.14 1122.6 1073.83 1123.78 1065.23 1123.29 C 1044.52 1122.1 1027.54 1111.8 1013.93 1096.74 z"/>
<path transform="translate(0,0)" fill="rgb(0,0,0)" d="M 435.954 319.155 C 454.783 318.347 473.505 318.613 492.331 319.396 C 493.349 325.094 493.768 330.857 494.289 336.617 C 509.887 338.896 525.169 340.123 540.901 340.686 C 544.032 378.953 542.16 426.058 541.504 465.097 L 540.394 587.982 C 563.552 587.987 586.708 588.414 609.85 589.264 C 601.231 585.1 593.07 580.468 584.857 575.575 C 587.855 563.824 592.861 552.182 596.961 540.743 L 620.56 474.903 L 642.734 412.874 C 647.027 400.877 650.905 387.993 656.655 376.616 C 658.423 373.118 659.844 370.72 663.855 369.518 C 675.924 365.901 701.066 378.791 711.792 385.087 C 715.548 387.293 719.13 389.282 720.108 393.812 C 720.96 397.761 720.325 401.58 719.172 405.394 C 715.623 417.128 710.413 428.656 706.02 440.119 L 680.065 507.967 L 662.429 554.358 C 658.035 566.121 654.321 579.266 647.59 589.898 C 691.246 589.819 734.829 591.325 778.467 592.213 C 780.05 550.655 781.216 509.082 781.963 467.5 C 782.382 431.994 781.968 396.481 783.02 360.985 C 764.456 361.058 746.412 360.149 728.195 356.286 C 728.084 383.249 729.604 576.877 725.959 585.414 C 725.672 586.087 724.952 586.475 724.448 587.005 L 722.137 586.629 C 721.729 585.935 721.09 585.332 720.913 584.546 C 719.602 578.719 721.537 527.109 721.637 517.406 C 722.179 460.594 722.25 403.779 721.849 346.966 C 742.682 354.055 761.617 354.132 783.377 354.125 C 784.047 345.87 783.764 329.555 789.354 323.3 C 795.591 316.323 820.805 319.249 830.541 319.08 C 831.349 334.778 830.131 351.222 829.738 366.956 L 827.436 459.269 C 826.801 485.105 826.315 510.944 825.977 536.785 C 825.701 555.44 826.324 574.858 823.42 593.311 C 831.377 594.196 839.741 593.847 847.756 594.1 C 862.677 594.572 877.598 595.315 892.512 595.974 C 891.159 579.696 891.427 562.94 891.103 546.598 C 890.48 506.048 890.601 465.489 891.466 424.942 C 892.11 391.408 893.342 357.707 891.812 324.188 C 891.631 324.225 891.448 324.257 891.268 324.297 C 875.726 327.754 859.755 325.993 844.074 329.584 C 845.548 350.954 845.736 372.454 845.694 393.867 L 844.954 578.872 C 844.927 582.308 845.441 586.348 842.937 588.814 L 840.864 587.621 C 839.061 584.683 838.683 581.992 838.529 578.562 C 837.598 557.737 839.015 536.15 839.029 515.225 C 839.072 451.711 840.288 388.175 838.935 324.681 C 850.447 320.808 886.28 317.077 897.83 320.931 C 899.567 339.964 898.717 358.925 898.385 377.998 L 897.326 455.68 C 897.018 480.755 896.913 505.832 897.013 530.908 C 897.256 552.566 898.187 574.284 897.553 595.936 C 899.52 596.273 901.486 596.458 903.469 596.663 C 905.482 598.171 905.842 597.861 906.423 600.453 C 904.149 602.538 901.599 602.59 898.646 602.688 C 877.066 603.407 853.817 600.477 832.004 599.945 C 767.102 598.007 702.184 596.663 637.258 595.912 C 608.23 595.563 579.206 595.004 550.186 594.235 C 516.678 593.67 483.207 593.63 449.697 592.718 C 425.909 592.07 400.946 593.435 377.318 591.152 C 374.505 590.88 372.431 590.174 370.406 588.13 L 370.913 586.625 C 380.838 582.365 470.082 586.754 486.919 587.033 C 488.375 538.914 487.848 490.788 488.347 442.653 C 488.753 403.534 490.987 363.867 487.294 324.896 C 469.528 324.67 451.832 324.494 434.072 325.251 L 432.723 501.122 C 432.563 524.882 434.078 549.137 433.107 572.808 C 433.008 575.215 432.799 577.941 431.637 580.104 C 430.765 581.727 430.489 581.376 428.849 581.789 C 426.846 579.673 427.1 577.955 426.953 575.083 C 425.649 549.497 426.648 523.074 426.805 497.413 C 427.638 443.551 427.983 389.683 427.84 335.815 C 414.726 338.151 401.979 340.051 388.63 340.091 C 389.54 373.871 388.13 408.012 387.988 441.842 L 387.384 533.567 C 387.337 544.193 388.018 554.936 387.766 565.534 C 387.683 569.051 387.553 570.55 385.588 573.412 L 384.147 573.345 C 383.919 572.942 383.674 572.548 383.462 572.136 C 381.4 568.128 381.429 561.587 381.27 557.088 C 379.642 510.977 381.633 464.047 382.166 417.896 C 382.364 400.712 380.854 349.538 384.797 336.376 C 396.047 331.274 410.911 332.931 422.995 329.053 C 428.31 327.347 429.659 321.102 435.954 319.155 z"/>
<path transform="translate(0,0)" fill="rgb(169,183,154)" d="M 663.873 375.249 C 666.848 375.112 669.948 375.042 672.865 375.713 C 681.027 377.591 709.611 387.477 712.677 395.744 C 713.719 398.554 711.979 404.075 711.19 406.89 C 707.54 419.909 701.606 432.819 696.796 445.477 L 668.066 520.962 L 652.476 562.22 C 650.267 568.097 648.402 575.486 645.24 580.817 C 643.895 583.084 640.785 584.542 638.54 585.784 C 636.979 586.231 635.405 586.628 633.819 586.975 C 619.216 590.032 603.656 579.593 592.109 571.966 C 609.861 526.67 625.553 480.392 641.904 434.573 C 648.37 416.452 654.823 391.556 663.873 375.249 z"/>
<path transform="translate(0,0)" fill="rgb(169,183,154)" d="M 494.894 341.906 C 507.762 346.267 522.371 346.78 535.848 346.803 C 536.246 395.62 536.071 444.441 535.323 493.254 C 535.102 524.585 536.472 556.755 533.913 587.929 C 520.101 587.777 506.279 587.308 492.469 586.985 C 495.226 552.937 493.816 517.872 493.949 483.679 C 494.133 436.413 495.104 389.181 494.894 341.906 z"/>
<path transform="translate(0,0)" fill="rgb(169,183,154)" d="M 802.635 326.389 C 809.88 325.804 817.31 325.903 824.585 325.697 L 820.344 507.467 L 819.315 562.001 C 819.173 571.858 819.805 582.209 818.607 591.988 C 816.35 593.9 814.123 593.136 811.25 593.065 C 802.483 592.9 793.707 592.462 784.944 592.146 C 786.531 543.978 787.705 495.798 788.464 447.61 C 788.797 419.554 785.845 352.455 793.045 328.231 C 795.406 326.352 799.661 326.6 802.635 326.389 z"/>
<path transform="translate(0,0)" fill="rgb(0,0,0)" d="M 504.942 663.572 C 518.204 662.654 530.024 662.606 542.956 665.961 C 545.891 678.16 547.325 690.146 548.177 702.652 C 565.521 700.961 583.765 702.166 601.123 703.37 C 602.274 719.467 601.873 735.883 602.245 752.034 C 613.291 748.85 628.924 742.142 640.383 743.209 C 642.684 745.264 643.741 748.798 644.801 751.654 C 655.144 779.53 663.384 808.682 672.604 836.982 C 682.356 866.916 693.29 896.698 701.897 926.962 C 693.547 929.261 652.836 939.502 648.171 937.102 C 639.466 922.838 634.346 895.651 629.566 879.116 C 619.814 846.228 610.421 813.234 601.39 780.141 C 601.838 814.617 601.836 849.098 601.383 883.574 C 601.298 896.392 602.695 910.04 601.756 922.693 C 601.42 927.223 600.843 932.028 598.303 935.886 L 597.162 935.54 C 592.28 921.787 595.814 834.805 595.953 813.426 C 596.181 778.36 596.758 743.153 594.867 708.127 L 548.768 708.013 C 549.174 748.261 547.358 788.524 546.331 828.757 C 545.397 865.327 545.298 901.879 543.988 938.448 C 590.663 941.02 637.515 941.03 684.222 942.826 C 697.771 943.347 711.766 942.858 725.233 944.125 C 728.377 944.421 731.124 944.485 733.401 946.732 L 733.414 948.851 C 731.327 950.702 728.743 950.86 726.051 950.918 C 707.039 951.325 687.426 949.564 668.377 949.003 L 536.048 944.85 C 501.319 943.059 466.572 941.624 431.813 940.545 C 416.276 940.057 385.552 941.796 371.581 937.541 L 371.055 935.851 C 371.239 935.621 371.395 935.364 371.608 935.161 C 373.716 933.144 377.849 933.047 380.603 932.897 C 397.625 931.969 415.721 933.588 432.78 934.204 C 467.941 935.686 503.109 936.988 538.283 938.112 C 539.784 897.699 539.936 857.169 540.813 816.734 C 541.61 780.006 546.613 702.841 537.42 670.154 C 519.733 668.784 501.789 670.853 484.061 671.267 C 486.76 714.929 486.023 759.103 486.933 802.856 L 488.42 886.539 C 488.646 899.747 489.603 913.327 489.196 926.504 C 489.113 929.181 489.214 930.118 487.844 932.387 L 485.604 932.302 C 483.618 929.777 483.563 927.058 483.357 923.883 C 481.594 896.731 482.154 869.139 481.774 841.908 L 478.969 701.769 C 461.964 702.492 444.946 702.847 427.926 702.835 L 426.886 850.795 C 426.812 865.179 426.586 879.581 426.705 893.964 C 426.795 904.811 427.517 915.796 426.294 926.594 C 424.379 928.373 424.909 927.975 422.625 927.898 C 421.26 926.177 420.968 924.504 420.789 922.363 C 420.31 916.645 420.974 910.662 420.949 904.909 C 420.866 888.682 420.865 872.454 420.947 856.226 C 421 803.406 421.51 750.587 422.479 697.776 C 440.956 696.178 460.283 696.092 478.825 696.315 C 478.407 685.933 477.941 675.65 476.765 665.318 C 485.871 663.657 495.706 663.886 504.942 663.572 z"/>
<path transform="translate(0,0)" fill="rgb(169,183,154)" d="M 635.455 750.247 L 636.829 750.574 C 638.815 752.794 689.408 906.748 694.199 922.55 C 683.576 924.014 673.038 926.578 662.721 929.443 C 659.088 930.683 655.614 932.309 652.11 933.868 C 648.838 920.072 644.188 906.37 640.192 892.754 L 617.599 815.018 C 612.253 796.489 605.876 777.451 603.605 758.261 C 614.168 755.376 624.698 752.331 635.455 750.247 z"/>
<path transform="translate(0,0)" fill="rgb(0,0,0)" d="M 342.912 180.231 C 344.326 180.604 345.538 181.108 346.879 181.679 C 349.966 189.124 347.82 358.785 347.769 382.468 L 346.39 860.054 L 346.016 996.783 C 346.002 1016.56 348.082 1041.03 345.535 1060.15 L 341.096 1058.71 C 338.156 1054.21 340.492 926.445 340.557 911.422 L 341.821 400.887 L 342.096 253.865 C 342.094 230.686 339.93 202.914 342.912 180.231 z"/>
<path transform="translate(0,0)" fill="rgb(0,0,0)" d="M 376.686 609.65 C 394.648 608.976 413.19 610.812 431.195 611.389 L 526.371 613.643 L 812.002 619.579 L 863.013 620.756 C 874.544 620.928 889.578 618.761 900.517 622.051 C 902.314 624.332 901.941 624.661 901.763 627.61 C 880.352 629.797 857.375 627.743 835.84 627.147 L 723.423 624.33 L 529 620.269 C 478.814 619.271 428.699 619.083 378.585 615.8 C 376.639 613.796 376.997 612.329 376.686 609.65 z"/>
<path transform="translate(0,0)" fill="rgb(0,0,0)" d="M 391.099 256.199 C 402.502 255.26 414.411 256.451 425.831 256.958 C 442.306 257.689 458.788 258.265 475.274 258.684 L 775.305 267.994 C 792.803 268.543 900.94 270.66 907.566 273.512 C 908.985 274.123 909.253 276.102 909.802 277.452 C 894.172 280.183 875.949 277.751 860.055 277.106 C 832.343 275.855 804.621 274.807 776.894 273.964 L 543.64 266.73 C 494.166 265.239 444.28 264.972 394.911 261.613 C 392.293 259.934 392.255 259.006 391.099 256.199 z"/>
<path transform="translate(0,0)" fill="rgb(0,0,0)" d="M 918.877 252.181 L 922.354 253.449 C 925.271 266.706 923.32 283.77 923.227 297.4 L 922.994 374.899 C 923.539 479.935 923.201 584.974 921.979 690.004 C 921.924 692.852 921.735 694.943 920.835 697.642 C 918.728 696.796 917.735 696.303 916.364 694.472 C 915.459 686.284 916.065 677.569 916.089 669.3 L 916.249 622.972 L 916.852 471.363 L 917.202 330.546 C 917.201 308.718 915.311 272.01 918.877 252.181 z"/>
<path transform="translate(0,0)" fill="rgb(0,0,0)" d="M 365.676 962.293 C 392.246 961.102 419.166 963.166 445.749 963.712 L 625.467 967.849 C 634.578 968.008 683.796 968.212 687.946 972.508 L 687.763 975.246 C 671.406 976.985 653.857 974.972 637.393 974.48 L 556.608 972.412 L 398.525 968.232 C 390.649 967.965 382.788 968.525 374.907 968.139 C 372.223 968.008 369.204 967.928 366.971 966.255 C 365.686 965.292 365.909 963.765 365.676 962.293 z"/>
<path transform="translate(0,0)" fill="rgb(187,207,209)" d="M 1262 284.716 L 1262.41 282.962 C 1265.13 271.023 1265.05 258.585 1268.35 246.686 C 1283.88 190.611 1322.95 145.979 1371.31 114.826 C 1437.09 72.4549 1520.06 64.7673 1595.28 81.4182 C 1623.93 87.7611 1649.93 99.2873 1675.14 114.054 C 1729.96 146.169 1769.57 187.386 1803.44 240.851 C 1859.6 329.522 1892.91 483.558 1869.82 586.652 C 1861.4 624.232 1839.55 661.234 1806.46 682.102 C 1771.5 704.15 1731.99 703.293 1692.98 694.263 C 1620.79 677.554 1572.32 633.856 1526.32 578.71 C 1508.03 556.779 1490.19 534.025 1467.89 515.957 C 1443.23 495.98 1416.22 483.063 1388.49 468.399 C 1348.68 447.345 1314.85 418.574 1290.98 380.064 C 1274.3 353.162 1263.31 321.48 1262.9 289.645 C 1222.8 282.742 1189.63 262.816 1161.25 234.28 C 1156.73 229.736 1151.56 225.173 1147.6 220.146 C 1146.28 218.478 1145.81 218.271 1146.11 216.093 C 1146.66 216.058 1147.22 215.825 1147.74 215.988 C 1148.48 216.22 1183.17 248.9 1189.41 253.365 C 1211.52 269.187 1235.42 279.279 1262 284.716 z"/>
<path transform="translate(0,0)" fill="rgb(0,0,0)" d="M 1262.9 289.645 C 1222.8 282.742 1189.63 262.816 1161.25 234.28 C 1156.73 229.736 1151.56 225.173 1147.6 220.146 C 1146.28 218.478 1145.81 218.271 1146.11 216.093 C 1146.66 216.058 1147.22 215.825 1147.74 215.988 C 1148.48 216.22 1183.17 248.9 1189.41 253.365 C 1211.52 269.187 1235.42 279.279 1262 284.716 C 1286.49 288.657 1310.39 288.007 1334.62 282.553 C 1402.53 267.264 1456.11 225.634 1530.35 240.821 C 1549.24 244.687 1564.98 251.702 1576.52 267.762 C 1598.87 298.887 1601.72 346.504 1623.73 373.626 C 1641.44 395.461 1677.7 414.807 1703.67 426.52 C 1720.43 434.076 1741.15 440.709 1753.97 454.584 C 1761.6 462.841 1766.08 474.427 1770.14 484.746 C 1775.54 498.485 1778.47 511.383 1775.97 526.115 C 1771.04 555.116 1752.79 582.092 1728.79 598.895 C 1725.93 600.895 1722.33 603.501 1718.66 603.095 C 1717.12 602.925 1717.53 602.866 1716.46 601.521 C 1720.48 596.269 1729.69 592.272 1735.01 587.541 C 1757.25 567.758 1775.21 535.945 1770.93 505.483 C 1768.46 487.84 1756.86 461.3 1742.18 450.699 C 1730.18 442.036 1715.55 436.651 1702.09 430.632 C 1675.06 418.542 1644.83 402.386 1624.07 380.98 C 1614.92 371.544 1609.85 359.953 1605.13 347.854 C 1586.95 301.221 1583.39 254.037 1524.99 244.453 C 1505.77 241.351 1486.17 241.449 1466.99 244.742 C 1393.32 257.352 1345.51 303.128 1262.9 289.645 z"/>
<path transform="translate(0,0)" fill="rgb(0,0,0)" d="M 856.907 1408.73 C 905.264 1412.76 953.738 1419.6 1001.96 1425.21 L 1302.46 1460.31 C 1322.17 1462.7 1341.96 1464.29 1361.79 1465.06 C 1366.03 1465.26 1379.6 1464.85 1382.91 1466.27 C 1383.46 1466.51 1383.78 1467.08 1384.22 1467.48 L 1383.83 1471.04 C 1339.8 1471.61 1295.88 1465.38 1252.22 1460.31 L 1089.43 1441.24 L 917.814 1421.31 C 897.76 1419.01 876.796 1418.98 856.998 1415.68 C 855.853 1412.94 856.432 1411.62 856.907 1408.73 z"/>
<path transform="translate(0,0)" fill="rgb(0,0,0)" d="M 182.828 1186.53 C 184.83 1187.02 184.728 1186.61 185.968 1188.47 C 183.261 1195.26 175.479 1202.4 170.971 1208.34 C 159.398 1223.59 151.526 1239.82 146.043 1258.1 C 135.91 1291.89 133.519 1335.58 155.687 1365.26 C 165.564 1378.48 177.057 1389.48 184.949 1404.26 C 194.869 1422.83 199.851 1444.91 193.314 1465.49 C 184.629 1492.83 157.732 1509.87 133.573 1522.15 C 132.807 1521.89 132.228 1521.2 131.628 1520.67 C 132.349 1518.61 132.677 1518.05 134.488 1516.69 C 139.099 1513.23 144.826 1510.61 149.8 1507.64 C 159.435 1501.88 168.636 1493.74 176.004 1485.29 C 199.966 1457.82 193.092 1422.88 173.188 1395.42 C 164.566 1383.52 153.537 1373.36 146.329 1360.44 C 138.896 1347.12 135.02 1332.31 134.128 1317.12 C 131.098 1265.51 149.445 1224.48 182.828 1186.53 z"/>
<path transform="translate(0,0)" fill="rgb(0,0,0)" d="M 471.115 1355.87 C 494.659 1359.38 518.437 1361.86 542.058 1364.87 L 675.597 1381.95 C 688.198 1383.54 736.805 1387.61 745.307 1391.71 L 746.089 1394.6 C 722.185 1396.41 690.079 1389.68 665.98 1386.57 L 517.387 1367.48 C 504.861 1366 482.993 1367.14 472.071 1363.97 C 470.425 1361.3 471.039 1358.96 471.115 1355.87 z"/>
<path transform="translate(0,0)" fill="rgb(0,0,0)" d="M 1768.99 1832.4 C 1791.64 1830.64 1821.76 1834.76 1842.63 1844.27 C 1846.85 1846.19 1854.13 1849.88 1855.83 1854.35 C 1849.39 1854.4 1833.95 1846.22 1826.96 1844.02 C 1811.26 1838.95 1794.87 1836.34 1778.37 1836.28 C 1707.85 1836.67 1687.81 1890.35 1632.36 1910.09 C 1608.5 1918.02 1566.06 1919.24 1541.61 1912.36 C 1538.64 1911.52 1537.08 1910.57 1535.62 1907.88 L 1536.22 1906.21 C 1541.29 1905.35 1551.4 1909.31 1556.87 1910.2 C 1579.52 1913.9 1606.33 1913.63 1628.38 1906.76 C 1643.34 1902.1 1655.42 1893.86 1667.82 1884.53 C 1701.42 1859.26 1725.35 1836.27 1768.99 1832.4 z"/>
<path transform="translate(0,0)" fill="rgb(0,0,0)" d="M 852.767 82.4085 C 916.855 77.3006 981.528 107.046 1042.38 121.277 L 1043.23 122.846 L 1041.13 124.358 C 1032.74 125.871 976.616 106.638 964.312 103.138 C 956.172 100.543 947.699 98.4345 939.376 96.5015 C 888.129 84.5997 829.647 78.1202 782.523 106.619 C 779.761 108.289 778.296 109.037 775.126 108.28 L 775.472 106.514 C 788.992 92.0437 833.491 83.9394 852.767 82.4085 z"/>
<path transform="translate(0,0)" fill="rgb(0,0,0)" d="M 1224.94 528.406 C 1241.72 527.09 1258.98 529.345 1275.19 533.641 C 1280.44 535.032 1290.41 537.625 1293.15 542.381 C 1289.5 544.772 1282.74 541.2 1278.94 539.905 C 1262.91 534.447 1247.5 532.063 1230.49 532.354 C 1179.09 533.232 1136.8 556.936 1101.73 593.033 C 1089.51 605.94 1080.98 618.381 1072.96 634.037 C 1071.77 636.369 1071.06 637.234 1068.57 637.927 L 1067.36 636.439 C 1068.8 625.491 1085.16 605.623 1092.33 597.213 C 1127.5 555.989 1170.85 532.855 1224.94 528.406 z"/>
<path transform="translate(0,0)" fill="rgb(0,0,0)" d="M 1893.49 1294.84 C 1895.08 1295.36 1895.17 1295.79 1896.23 1297.01 L 1895.9 1298.88 C 1890.75 1304.68 1760.77 1353.27 1742.38 1360.36 C 1740.93 1360.62 1741.79 1360.65 1739.95 1359.54 L 1739.79 1357.04 C 1740.32 1356.26 1740.67 1355.31 1741.39 1354.7 C 1744.85 1351.78 1878.75 1300.78 1893.49 1294.84 z"/>
<path transform="translate(0,0)" fill="rgb(0,0,0)" d="M 1940.57 721.38 C 1945.77 721.02 1950.76 721.173 1955.56 723.363 C 1954.3 725.046 1953.71 725.089 1951.7 725.524 C 1947.15 726.507 1942.09 726.39 1937.44 726.765 C 1927.28 727.585 1918.88 730.492 1909.67 734.712 C 1907.65 736.011 1905.55 737.561 1903.28 738.377 C 1901.41 739.048 1901.3 739.148 1899.44 738.281 C 1899.69 737.383 1899.7 737.082 1900.35 736.238 C 1907.72 726.588 1929.17 722.581 1940.57 721.38 z"/>
<path transform="translate(0,0)" fill="rgb(0,0,0)" d="M 1076.76 227.325 C 1078.38 228.064 1079.91 228.347 1080.93 229.896 C 1083.07 233.16 1082.34 237.127 1081.88 240.776 C 1079.33 240.101 1078.34 239.555 1076.54 237.608 C 1075.34 233.991 1076.11 231.004 1076.76 227.325 z"/>
<path transform="translate(0,0)" fill="rgb(0,0,0)" d="M 1080.19 142.57 C 1081.79 144.707 1081.96 145.445 1082.06 148.138 C 1082.21 151.914 1081.09 154.552 1078.54 157.228 C 1077.28 154.756 1076.04 152.302 1076.02 149.448 C 1076.01 146.34 1078.14 144.533 1080.19 142.57 z"/>
<path transform="translate(0,0)" fill="rgb(0,0,0)" d="M 1019.71 226.377 C 1022.16 227.995 1023.23 228.45 1024.13 231.416 C 1024.92 234.049 1024.01 236.918 1022.93 239.288 C 1019.86 237.473 1019.47 237.256 1017.91 234.085 C 1017.94 230.844 1018.28 229.288 1019.71 226.377 z"/>
<path transform="translate(0,0)" fill="rgb(0,0,0)" d="M 1839.16 189.383 C 1839.27 189.436 1839.39 189.476 1839.5 189.542 C 1841.71 190.94 1842.47 191.735 1843.09 194.44 C 1843.66 196.956 1842.58 198.864 1841.26 200.831 C 1838.55 199.423 1837.71 199.207 1836.09 196.523 C 1836.1 193.626 1837.65 191.721 1839.16 189.383 z"/>
</svg>