<svg xmlns="http://www.w3.org/2000/svg" width="1365.333" height="1365.333" preserveAspectRatio="xMidYMid meet" version="1.0" viewBox="0 0 1024 1024"><g fill="#000" stroke="none"><path d="M421.3 40.7c.9.2 2.5.2 3.5 0 .9-.3.1-.5-1.8-.5s-2.7.2-1.7.5m19 0c1.5.2 2.7.8 2.7 1.3s-1.2 1.1-2.7 1.3c-2.6.4-2.6.4.5.6 2.6.1 3.2-.3 3.2-1.9s-.6-2-3.2-1.9c-3.1.2-3.1.2-.5.6M413 42c0 .5.7.7 1.5.4.8-.4 1.5-.1 1.5.4 0 .6-.8 1.3-1.7 1.5-1.4.4-1.4.5.3.6 1.4.1 2.4-.6 2.7-1.9.4-1.6 0-2-1.9-2-1.3 0-2.4.4-2.4 1m34 1c0 1.3.7 2 2 2s2-.7 2-2-.7-2-2-2-2 .7-2 2m3 0c0 .5-.4 1-1 1-.5 0-1-.5-1-1 0-.6.5-1 1-1 .6 0 1 .4 1 1m-47.5 1.4C390.1 49 388 50.2 388 52.1c0 2.5 1.2 2.4 6.6-.5 2.4-1.3 7.4-3.2 10.9-4.2 3.6-1 6.5-2.2 6.5-2.5 0-1.1-12.9 3-18.2 5.7-2.7 1.4-4.8 2-4.8 1.5 0-1.2 5.8-3.9 15.5-7.2 4.4-1.6 7.1-2.8 6-2.8s-4.7 1.1-8 2.3m51.2-.4c.3 1.3 1.3 2 2.7 1.9 1.7-.1 1.7-.2.4-.6-1-.2-1.8-.9-1.8-1.5 0-.5.7-.8 1.5-.4.8.3 1.5.1 1.5-.4 0-.6-1.1-1-2.4-1-1.9 0-2.3.4-1.9 2m-32.4-.3c.9.2 2.5.2 3.5 0 .9-.3.1-.5-1.8-.5s-2.7.2-1.7.5m37.8-.3c.3.3 4.6 1.5 9.5 2.5 10.7 2.4 12 2.7 38.4 10.7 13.5 4 13.6 4.1 12.8 5-.4.3-6.4-1.2-13.5-3.5C477.2 49 459 44.3 459 45.9c0 .4 2.9 1.3 6.5 2 6.3 1.1 22 5.5 43 12 11.7 3.6 12.5 3.7 12.5 1.3 0-1.4-1.3-2.2-5.2-3.2-2.9-.7-10.9-3.1-17.8-5.2-19.8-6.2-40.6-11.2-38.9-9.4M537 74.5c0 1.8.5 2.5 2 2.5s2-.7 2-2.5-.5-2.5-2-2.5-2 .7-2 2.5m3 0c0 .8-.4 1.5-1 1.5-.5 0-1-.7-1-1.5s.5-1.5 1-1.5c.6 0 1 .7 1 1.5m367-.5c0 1.5.5 2 1.8 1.8.9-.2 1.7-1 1.7-1.8s-.8-1.6-1.7-1.8c-1.3-.2-1.8.3-1.8 1.8m41.7 14.6c-1.4 1.5-.6 3.4 1.4 3.4 1.4 0 1.9-.5 1.7-1.7-.3-1.8-2-2.7-3.1-1.7M170 146.7c0 31.3-.3 130-.7 219.5-.6 162.4-.6 162.8 1.4 162.8s2-.9 2.6-96.8c.4-53.2.7-151.9.7-219.5 0-122 0-122.7-2-122.7s-2 .7-2 56.7m2.7 162.4c-.3 120-.9 218.4-1.2 218.7s-.8.3-1.1-.1c-1.1-1.1.8-436.7 1.9-436.7.7 0 .8 68.1.4 218.1M917.2 97.2c.2 1.3 1 2.3 1.8 2.3s1.6-1 1.8-2.3c.3-1.7-.2-2.2-1.8-2.2s-2.1.5-1.8 2.2m2.8.4c0 .8-.4 1.2-1 .9-.5-.3-1-1-1-1.6 0-.5.5-.9 1-.9.6 0 1 .7 1 1.6m-428.8 1.1c.5 2.6 3.8 2.9 3.8.4 0-1.5-.6-2.1-2.1-2.1-1.4 0-1.9.5-1.7 1.7m2.8.3c0 .5-.2 1-.4 1-.3 0-.8-.5-1.1-1-.3-.6-.1-1 .4-1 .6 0 1.1.4 1.1 1m51.7 3.6c-1.6 1.6-.6 3.4 1.9 3.4 1.9 0 2.5-.5 2.2-1.7-.3-1.9-2.9-2.9-4.1-1.7m2.8 1.4c.3.5-.1 1-1 1s-1.3-.5-1-1c.3-.6.8-1 1-1s.7.4 1 1m410.2 1.6c-1.4 1.5-.6 3.4 1.4 3.4 1.4 0 1.9-.5 1.7-1.7-.3-1.8-2-2.7-3.1-1.7m-434 1.8c-.7 1.6.1 2.6 2 2.6.7 0 1.3-.9 1.3-2 0-2.3-2.5-2.7-3.3-.6m2.3.6c0 .5-.5 1-1.1 1-.5 0-.7-.5-.4-1 .3-.6.8-1 1.1-1 .2 0 .4.4.4 1m46 1.3c0 1.8 16.3 17.5 22 21.3 12 8 27.9 13.8 41.1 15 6.6.7 6.9.6 6.9-1.5 0-1.8-.6-2.1-4.6-2.1-2.5 0-8.1-.9-12.4-2-15.9-4.1-30.4-12.4-42.9-24.6-7.3-7.2-10.1-8.8-10.1-6.1m9.6 7.1c12 12.2 25.4 19.9 42.7 24.5 4.2 1.2 9.7 2.1 12.2 2.1 2.7 0 4.5.5 4.5 1.1 0 1.5-9.6.4-19.7-2.2-15-3.9-32.4-14.9-43.6-27.4-7-8-4.6-6.8 3.9 1.9m-74.6-.9c0 1.8.5 2.5 2 2.5s2-.7 2-2.5-.5-2.5-2-2.5-2 .7-2 2.5m3 0c0 .8-.4 1.5-1 1.5-.5 0-1-.7-1-1.5s.5-1.5 1-1.5c.6 0 1 .7 1 1.5m26 1c0 1.8.5 2.5 2 2.5s2-.7 2-2.5-.5-2.5-2-2.5-2 .7-2 2.5m3 0c0 .8-.4 1.5-1 1.5-.5 0-1-.7-1-1.5s.5-1.5 1-1.5c.6 0 1 .7 1 1.5m195.7 3.5c-.4 1.7 0 2 2.4 2 2.2 0 2.9-.5 2.9-2 0-1.4-.7-2-2.4-2-1.5 0-2.6.7-2.9 2m4.3 0c0 .5-.7 1-1.5 1s-1.5-.5-1.5-1c0-.6.7-1 1.5-1s1.5.4 1.5 1m12.8-1.3c2.6.5 2.9 2 .5 2.6-1 .3.3.5 2.9.6 4.1.1 4.6-.1 4.1-1.9-.4-1.7-1.3-2-5.2-1.9-2.5.1-3.6.4-2.3.6m6.2 1.3c0 .5-.7 1-1.5 1s-1.5-.5-1.5-1c0-.6.7-1 1.5-1s1.5.4 1.5 1m-32.5.1c-7.3 1.7-15.8 4.6-30 10.2S665.4 141 661.3 141c-1.3 0-2.3.6-2.3 1.4s-.6 1.7-1.2 2c-.7.3 1.1.4 4 .1 7.5-.8 20.3-4.7 38.1-11.7 8.6-3.3 19.5-7 24.3-8.2 6.3-1.5 8.8-2.6 9.1-3.9.6-1.9-.6-2-6.8-.6m5.5.9c0 .5-.8 1-1.7 1-3 .1-17.3 4.6-27.9 8.8-12.5 5-26.2 9.6-33.4 11.2-3 .6-6.3 1.4-7.2 1.7-1 .2-1.8 0-1.8-.5s1.9-1.2 4.3-1.5c5.4-.8 18.4-5 37.2-12.1 8.3-3.2 18.4-6.6 22.5-7.6s7.6-1.9 7.8-1.9c.1-.1.2.3.2.9m30.4-.4c.2 1.1 2.3 2.3 5.8 3.4 13.8 4.2 19.4 11.2 27.7 34.5 8.3 22.8 10.8 27.9 16.4 33.2 9.4 8.9 21.3 16.1 43.2 26.3 13.9 6.4 18 9.3 21.1 14.6 3.6 6.1 7.3 16 8 21.4.8 5.9-1.6 15.3-5.9 23.4-3.3 6.3-15.1 19-18.7 20.1-2.1.7-2.7 3-.9 4 1.5 1 8.6-4 14.7-10.4 9-9.4 16.1-27.3 14.8-36.9-.7-4.9-4.5-16.1-7.5-22-2.9-5.7-9.2-10.8-18.7-15.3-4.7-2.1-8.8-3.9-9.2-3.9-2 0-23.8-13-31.2-18.6-10.8-8.2-14-13-20.3-30.9-11-31.4-16.7-38.9-33.2-43.4-5.4-1.5-6.4-1.4-6.1.5m14.9 4.2c9.2 5 15.2 14.9 22.8 37.3 2.3 6.8 5.4 14.9 7 17.9 5.7 11.4 22.8 23.8 48.4 35 11.8 5.2 19.4 10.1 22.4 14.5 3.4 5 9 19 9.7 24.3 1.1 8.8-4.1 23.2-12 33.2-4.3 5.5-14.6 14.1-15.9 13.3-.5-.3.4-1.3 2-2.3 4.5-2.7 12.9-11.3 16.3-16.6 3.7-5.9 8-19 8-24.5 0-4.3-3.7-16.5-6.9-22.8-3.2-6.1-8-10-19.1-15.2-30.8-14.6-46.2-24.8-52.4-34.8-2.4-3.8-9.9-22.6-11.2-27.6-1.3-5.5-9-21-12.2-24.6-3.2-3.7-12-8.5-17.3-9.6-1.6-.3-2.9-.9-2.9-1.3 0-1.3 8.2 1 13.3 3.8m-319.6 26.9c-.4 14.1-.7 63.8-.7 110.5 0 84.1 0 84.8 2 84.8s2-.7 2-31.8c0-17.4.3-67.1.7-110.5.6-78.3.6-78.7-1.4-78.7-1.9 0-2 .9-2.6 25.7m3 53.5c-.4 43-.7 92.2-.7 109.5 0 20.2-.4 31.3-1 31.3-.7 0-1-31.7-1-93.1 0-51.1.3-92.8.8-92.6.4.3.6-7.1.4-16.4-.2-12.7 0-16.9.9-16.9 1 0 1.1 17.3.6 78.2M196 128.8c0 1.8.9 2 13.3 2.6 7.2.4 36.4 1.3 64.7 2.1 28.3.9 77.8 2.4 110 3.5 73 2.5 70.2 2.5 69.8.2-.3-1.5-2.1-1.8-15.3-2.4-18.1-.8-92.8-3.2-160-5.3-26.9-.8-56.5-1.7-65.7-2.1-16.3-.6-16.8-.5-16.8 1.4m35 .2c42.9 1.3 62.3 1.9 79 2.5 8 .3 22.6.7 32.5 1s23.9.7 31 1c7.2.3 27.6 1 45.5 1.6 18.8.6 32.9 1.5 33.5 2.1.9 1-29.2.5-52-.7-4.4-.2-17.4-.7-29-1-11.5-.3-26.4-.7-33-1s-35.6-1.2-64.5-2c-61.8-1.7-77-2.4-77-3.6 0-1.1-3.2-1.1 34 .1m321 9.1c0 2.5 3.3 2.2 3.8-.4.2-1.2-.3-1.7-1.7-1.7-1.5 0-2.1.6-2.1 2.1m3-.7c0 .3-.4.8-1 1.1-.5.3-1 .1-1-.4 0-.6.5-1.1 1-1.1.6 0 1 .2 1 .4m-31.5 3.6c-.8 1.4.3 3 2.1 3 .8 0 1.4-.9 1.4-2 0-2.1-2.4-2.8-3.5-1m123.3 1.7c1.7.2 3.2.8 3.2 1.3s-1.5 1.1-3.2 1.3c-1.9.2-.6.4 2.8.5 5.4.2 6.2-.1 6.7-1.8.5-1.9.1-2-6.1-1.8-3.7 0-5.2.3-3.4.5m8.2 1.3c0 .5-.9 1-2 1s-2-.5-2-1c0-.6.9-1 2-1s2 .4 2 1m-437.5 14.7c-1.1.3-3.1 1.5-4.5 2.8-2.4 2.2-9.6 4.1-18 4.7-3 .3-3.6.7-4.1 3.3-.4 1.6-.7 28.3-.8 59.2-.1 55 .1 59.5 2.9 56.7.5-.5 1-26.6 1.1-58l.3-57.1 7-.7c3.9-.3 8-.7 9.1-.9 2-.2 2 .3 1.6 60.5-.3 60.3-.3 60.8 1.7 60.8 1.5 0 2.1-.8 2.5-3.3.2-1.7.5-30.2.6-63.2s.4-60.1.6-60.4c.9-.8 14.6-1.3 19.9-.7l5.6.7v62.4c0 39.9-.4 63.3-1 65-1 2.7-1.2 2.7-7.3 2.1-3.4-.3-15.6-.7-27.2-.8-18.9-.3-21-.1-21.3 1.4-.3 1.3.8 1.7 6 2.2 3.5.4 48.8 1.3 100.8 2.1 52 .9 106.7 2 121.5 2.5 37.5 1.4 38.5 1.3 38.5-.6 0-.9-.9-1.8-2-2.1-2.3-.6-2.2 2.9-2.4-85.3l-.1-52.5-8-.3c-9.6-.4-17.7.5-19.9 2.1-1.5 1.1-1.7 7.3-2 65.8-.3 35.5-.1 65.2.4 65.9.4.7 1.4 1 2.2.7 1.2-.4 1.5-10.4 1.6-64.8l.2-64.4 3.8-.7c2-.4 6.7-.7 10.5-.7 3.7-.1 6.7-.5 6.7-1.1 0-.5-1.2-.8-2.7-.5-1.6.2-5.9.7-9.8 1-3.8.3-8.1.8-9.5 1.1-2.4.6-2.4.6-.7-1.2 1.5-1.6 3.3-1.9 14-1.9h12.2l.1 54.5c.2 88.1 0 82.7 2.6 83.3 6.1 1.6-2 1.8-32.4.8-18.3-.6-75.4-1.8-126.8-2.6-91.6-1.4-105.1-1.9-103.4-3.4.5-.5 12.6-.5 26.9-.1s26.5.5 27.1.3c.7-.2 1.5-1.8 1.8-3.5s.6-28.9.6-60.4c0-50.4.2-57.4 1.5-57.4s1.5 2.2 1.5 13.6c0 7.4-.3 13.3-.7 13.1-.5-.3-.8 20.8-.8 46.9 0 54.8-1.6 48.7 12.5 48.2l8.5-.3.6-25c.3-13.8.7-40.9.8-60.2l.1-35.3-2.2-.4c-1.9-.4-9.5-1.2-19.3-1.9-1.6-.2-2.1-1-2.3-4.4l-.3-4.2-6.6-.7c-5.8-.6-20 0-20.9.8-.1.2-.4 27.6-.5 60.8-.1 33.3-.3 61.7-.6 63.2-.3 1.6-.9 2.8-1.5 2.8-.7 0-.9-19.3-.7-60.8l.4-60.7-2.5.2c-1.4.1-5.9.5-10 .9l-7.5.7-.1 7.1c0 3.9-.1 29.7-.2 57.3-.1 32.8-.5 50.3-1.2 50.3-1.1 0-1.2-109.9-.1-114 .5-1.7 1.5-2.6 3.1-2.7 10.1-1 16.3-2.7 19.2-5.1 3-2.6 3.8-2.7 15.9-2.9 14.1-.3 15.9.3 15.9 5.7 0 3.4 1.2 3.8 13 4.7 4.7.3 9.1 1 9.8 1.6 1.1.9 1.3 12.2 1.1 61.6-.3 52.3-.1 60.6 1.2 60.8 3.8.5 32.8.9 32.4.4-.3-.3-7.8-.7-16.7-1l-16.1-.6.2-60.6c.2-49.3 0-60.7-1.1-61.6-.7-.6-5.3-1.3-10.3-1.6-11.1-.7-12.5-1.2-12.5-4.6 0-5.3-.9-5.6-14.7-5.8-7-.1-13.7.1-14.8.4m204.3 53.6c.3 47.5-.4 78.7-1.8 78.7-.5 0-.7-28.6-.7-63.4.1-42.3.5-63.2 1.2-62.5.6.6 1.1 18.1 1.3 47.2m-156-38.7c1.3.4 1.5 47 .3 94.4l-.6 24.5h-18.6V254c.1-21.2.4-48.3.8-60.3l.6-21.7 8.1.6c4.5.3 8.7.7 9.4 1"/><path d="M393.9 160.6c-.7.9-1.8 4.6-2.4 8.3l-1.1 6.6-8.3.3c-5.1.2-10.5-.3-14.3-1.3-3.3-.8-6.4-1.3-6.9-.9-.5.3-.9 5-.9 10.4v9.9l-6.3-3.2c-10.3-5.3-14.5-6.7-19.7-6.7-4 0-5.1.4-6.1 2.1-1.7 3.2-35.9 98.9-35.9 100.4 0 1.8 4.9 5.2 8.6 6 2.4.5 2.1.2-1.5-1.7-2.4-1.3-4.8-3-5.3-3.8-.7-1.1 4-15.3 15.2-46.5 8.9-24.8 17.2-47.4 18.5-50.3 2.4-5.2 2.4-5.2 7-5.2 3.5 0 7.1 1.2 14.1 4.5 12.7 6.1 12.7 5.7.7 36.9-4.6 12.2-11.8 31.1-16 42.1-4.1 11-8.1 21.1-9 22.4-.8 1.3-1.1 2.7-.6 3.1.4.4 15.3 1.1 33 1.5l32.1.7.7-8.4c.4-4.6.8-30.9.9-58.3l.1-50-12-.6c-6.6-.4-12.7-.8-13.5-1-1.3-.4-1.6 6.6-2 56.3-.3 31.1-.8 57-1.2 57.4-1 1-1 4.9-.8-46.1.1-24.7-.1-44.8-.4-44.5-.2.3-.6 21-.7 46-.2 40.3-.1 45.5 1.3 45.8 1 .2 1.7-.8 2.2-2.9.3-1.7.6-27.5.6-57.2v-54l5.3.7c2.8.3 8.7.6 13 .6h7.7l-.1 33.2c0 35.6-1.2 80.5-2.2 81.4-.3.3-14.7.3-32-.1l-31.4-.8 1.3-2.6c.7-1.4 4.6-11.6 8.7-22.6s9.6-25.4 12.2-32 6.5-16.6 8.7-22.3c2.4-6.3 4-12 4.1-14.8 0-2.8.3-4 .8-3.2.5.7.9-3.6.9-9.9 0-6.1.3-11.4.8-11.7.4-.2 3.2.2 6.2 1 3.4.9 9 1.3 14.5 1.2l9-.3.7-5.9c.4-3.2 1.5-7 2.3-8.3 1.5-2.2 2.1-2.4 10.3-2.1 7.8.3 8.7.5 9.1 2.3.4 2.1-1.7 112.4-2.4 126.2l-.4 8.3h8.3c4.5 0 12.3.3 17.2.6l8.9.7.1-68.9c0-68.7 0-68.8-.7-23.9-.4 24.7-.5 55.5-.2 68.3l.6 23.2-16.4-.6c-9-.4-16.4-.7-16.5-.8 0 0 .3-15.6.8-34.6.4-19 .9-49.6 1-68l.3-33.5-9.6-.3c-7.9-.2-9.8 0-11 1.4"/><path d="M396.7 163.2c-2.8 2.2-3.6 15.9-4.2 75.4l-.5 57.1 7.6.6c4.2.4 8 .5 8.4.2 1.2-.7 1.9-15 2.5-51.5.3-17.9.8-43.9 1.2-57.8l.6-25.2h-7c-4 0-7.6.5-8.6 1.2m13.9 28.5c-.4 15.9-1.1 45.6-1.5 66.1s-1 37.5-1.3 37.7c-.3.3-3.7.2-7.7-.1l-7.1-.7.6-57.1c.5-55.6 1.3-70.5 3.5-73.3.8-.8 3.4-1.3 7.7-1.3h6.5zm-80-3.9c-1.4 2.3-34.6 95.7-34.6 97.4 0 1.2 2 2.8 5.8 4.6 7.2 3.7 11.5 4.5 16.3 3.2 3.3-.9 4-1.7 5.8-6.3 1.1-2.8 7.9-20.7 15.1-39.7s14.3-37.5 15.7-41.2c2.4-6.5 2.5-6.9.8-9.4-3.2-4.9-23-11.7-24.9-8.6m13.8 3.2c4 1.7 8.4 4.2 9.6 5.5l2.3 2.5-6.6 17.2c-3.6 9.5-10.9 28.8-16.2 42.8-5.4 14-10.4 26.9-11.2 28.7-1.7 3.8-6.1 5.6-11.2 4.7-4.6-.9-14.1-6.2-14.1-7.9 0-.7 4.2-12.9 9.4-27.1 5.1-14.3 12.6-35.1 16.6-46.4s7.7-21.1 8.3-21.8c1.5-1.9 5.3-1.4 13.1 1.8M53.5 232c-.8 1.4.3 3 2.1 3 .8 0 1.4-.9 1.4-2 0-2.1-2.4-2.8-3.5-1M606 265c0 1.9.7 2 10.8 2 8 0 12.6.5 17.7 2.1 8.9 2.6 11 2.8 11 .9 0-1-2.4-2.3-6.5-3.7-6.9-2.4-11.5-2.9-10.5-1.3.4.6-3.3 1-10.4 1-7.2 0-11.1-.4-11.1-1.1s3.4-.9 10-.7c5.5.2 10 0 10-.5 0-.4-4.7-.7-10.5-.7-9.8 0-10.5.1-10.5 2m33.4 2.4c2.2.6 4.1 1.6 4.3 2.3.2.6-1.8.3-5.3-.8-3.1-1.1-6.3-1.9-7.1-1.9-.7 0-1.3-.5-1.3-1 0-1 1.6-.8 9.4 1.4m-48.2-.8c-15.7 4.6-27.4 11.8-40.1 24.6-8.7 8.8-18.1 21.7-18.1 24.9 0 3 2.8 2.2 4.6-1.4 2.9-5.5 11.9-16.9 18.1-22.9 11.2-10.6 28.8-20.3 41.9-23.1 4.1-.8 5.4-1.5 5.4-2.9 0-2.3-1.7-2.2-11.8.8m10.8-.7c0 .4-2.6 1.4-5.7 2-7.5 1.5-21.2 7.6-29.3 13.1-8.9 6-21.8 19.4-27.6 28.6-2.7 4.1-5 7.1-5.2 6.5-.4-1.1 6.5-11.8 10.3-16.1 15.2-17.3 31.4-28.3 48.5-32.9 8.8-2.3 9-2.4 9-1.2m-413.8 39.7c.5 2.7 5.9 3.1 68.6 4.3 67 1.4 132.1 2.8 166.8 3.7 23.5.6 26.1.5 26.7-.9.3-.9.3-1.8-.1-2.1-1.2-.7-29-1.6-83.7-2.6-80.2-1.6-141.2-2.9-160.8-3.6-17.1-.6-17.9-.5-17.5 1.2M269 307c25 .5 69.1 1.4 98 2 67.2 1.3 83.5 1.9 82.2 3.2-.7.7-15.4.7-46.4-.1-24.9-.6-69.8-1.6-99.8-2.1-82.4-1.6-112.1-2.6-113.4-4-.8-.9 3.1-1 16.4-.6 9.6.4 38 1.1 63 1.6m-20.5 23.9-10 .6-.3 7.7-.3 7.8h-11.4c-6.2 0-12.5.4-13.8.9l-2.4 1-.8 56.6c-.7 57.5-.6 61 2.8 57.7.9-1 1.3-13.9 1.5-56 .2-30 .4-54.7.6-54.9.1-.1 5.4-.6 11.8-.9 10.8-.6 11.6-.6 12.1 1.2.3 1 .9 24.8 1.2 52.8.4 28.1 1.1 53 1.5 55.5.7 3.8.8 3.2.5-2.9-.2-4.1-.7-29.3-1.1-56s-.8-49.2-.9-50c-.2-1.3-2.3-1.5-13-1.3-7 .2-13 .4-13.1.6-.2.2-.4 24.4-.4 53.8-.1 29.4-.4 54.4-.7 55.6-.3 1.3-.9 2-1.5 1.7-.6-.4-.7-21-.3-56.3.7-62.2.2-58.3 8-58.1 2.2.1 7.7.1 12.3.1l8.2-.1v-7.4c0-4.1.4-7.7.9-8s7-.7 14.5-.8c11.4-.1 14 .1 15.3 1.4.9 1 2 4.9 2.6 9.7l1.1 8.1h12.1c8.1 0 12.5.4 13.3 1.2s1.2 4.9 1.2 11.8c0 5.9.3 10.9.6 11.2.3.4 4.5-.4 9.2-1.8 6.8-1.8 8.9-2.1 9.9-1.1 1.2 1.2 28.3 83.1 29.1 87.9.4 2.5.1 2.7-5.4 3.8-3.3.6-8.2 1.8-11.1 2.6-6.8 1.9-8 1.8-9.3-.7-2-3.7-20.7-69.3-21.2-74.6-.1-.6-.7-.9-1.4-.6-1.1.4-1.1.8.1 2 .8.8 1.5 2.4 1.5 3.6 0 2.3 18.7 68.2 20.2 71 1.1 2.2 2.9 2.1 18.2-1.4l9.8-2.3-.6-3.5c-.7-5-28.1-88-29.3-89.2-.7-.7-3.4-.4-8.5 1-11.5 3.2-10.8 3.8-10.8-8.9 0-9.8-.2-11-1.9-12-1.1-.5-7.2-1-13.5-1-11.2 0-11.6-.1-11.6-2.2 0-5.5-2.3-14.9-3.9-15.7-2.5-1.3-10.7-1.8-21.6-1.2"/><path d="m243.6 334.7-2.9.5.6 11.1c.6 9.4 2.2 94.8 2.2 112.9 0 3.2.3 5.8.6 5.8.7 0 .5-16.4-1.1-88-.5-22.3-.6-40.7-.3-41 .2-.3 5.8-.7 12.3-.9 14.8-.4 14.2-1.2 14.8 19.4.4 16.5-1.4 112.4-2.2 113.2-.3.3-13 .1-28.3-.6-47.7-1.8-52.7-1.8-53.1 0-.4 2.2 3.6 2.9 16.2 2.9 5.6 0 26.1.7 45.6 1.5 40.8 1.7 97.4 3.5 109.6 3.5 7.6 0 8.4-.2 8.4-1.9 0-1.8-1.3-1.9-22.7-2.5-42.7-1.3-70.4-2.3-70.7-2.7-.1-.2.2-25.8.8-56.9l1.1-56.5 10.4-.3c7.7-.2 10.7.1 11.3 1 .4.7.8 26.2.8 56.6 0 52.2.1 55.3 1.8 55 1.6-.3 1.7-2.8 1.7-36.3v-36l-.2 35c-.2 21.2-.7 35.3-1.3 35.9-.7.7-1-17.6-1-53.4 0-30-.3-55.5-.6-56.8-.6-2.2-.9-2.3-12.3-2l-11.6.3-1.1 57.5c-.6 31.6-1 57.7-.8 57.9.3.3 28.1 1.4 71.7 2.7 11.9.3 21.7 1 21.7 1.5s-3.5.9-7.9.9c-11.8 0-68.9-1.8-109.1-3.5-19.5-.8-40.4-1.5-46.5-1.6-10.3 0-16.1-.9-13.9-2.1.9-.5 30.2.3 63.5 1.7l17.7.8.7-18.4c1.3-34.2 1.1-111.1-.2-114.2L268 334l-10.7.1c-6 .1-12.1.4-13.7.6m719.3 25.8c-7.2 1.8-13.9 5.3-13.9 7.2 0 1.8 1 1.6 11.2-1.9 3.7-1.3 6.8-2.6 6.8-3 0-.8-5.9.8-11.7 3.3-6.6 2.8-6.7 1.4-.1-1.6 4.8-2.2 13.7-4.5 17.4-4.5 2.8 0 1.3 1.9-1.8 2.3l-3.3.4 3.6.1c3.4.2 5.7-1.6 4.2-3.2-1-1-6.3-.5-12.4.9"/><path d="M442.5 368.4c-18.2 3.5-29.9 10.4-39.2 22.9-12 16.4-15.2 27.8-25.3 92.2-2.8 17.6-5.3 33.2-5.6 34.7-.5 2.7-.7 2.8-7.4 2.8-3.7 0-14.2 1.3-23.1 3-9 1.6-34.6 5.9-56.9 9.5-67.7 10.9-120.4 20.3-129 22.9-4.9 1.5-14.9 7.3-18.8 10.8-10.9 10-17.7 34.5-13.8 49.5 2.3 9.3 5 13.8 13.2 22.4l7.4 7.8v82.4c0 89-.2 86.4 5.3 91.5 1.7 1.6 5.3 2.9 12.3 4.3 5.4 1.1 10.1 2.5 10.4 3 .4.5 1.2 12.3 1.8 26.1 1.2 24.4 2.8 38 5.2 43.9 1.5 3.4 6.2 5.2 13.7 5.2 4.2 0 5.9-.5 7.8-2.3 5-4.7 8.8-21.9 10.7-48.9.6-9.1 1.2-16.7 1.3-16.9.3-.3 70.2 13.3 119.5 23.3 15.1 3 68.7 13.4 119 23s120.7 23.1 156.5 30c35.7 6.9 65.2 12.5 65.6 12.5.3 0 .9 5.1 1.3 11.2 1.8 29.1 5.2 49 9.1 53.6 2.2 2.6 2.8 2.7 11.5 2.7 7.8 0 9.4-.3 10.5-1.9 3.4-4.6 8.5-36.5 8.5-53.3 0-8 .1-8.3 2.3-8.3 5 0 14.2-3.3 23.5-8.3 18.8-10.4 131-71.5 153.2-83.6 12.4-6.7 29.8-15.9 38.7-20.4 11.7-5.9 16.3-8.7 16.3-10 0-2.7-2.3-2.1-15.3 4.4-17.8 8.9-117.9 63.2-196.7 106.5l-12.5 6.9-14.5-.1c-8 0-18.1-.6-22.5-1.3S634.2 912.4 580 902s-119-22.7-144-27.5c-52.2-9.9-85.1-16.3-120-23.4-13.5-2.7-31.7-6.4-40.5-8.1s-31.7-6.2-51-10c-19.2-3.8-42-8.1-50.5-9.6-18.3-3.1-21.3-4.2-24-8.6-2-3.2-2-4.8-2-86.7v-83.4l-7.3-7.6c-11.9-12.4-15.5-21.2-14.4-34.5 1.3-15.5 9.9-31.6 19.1-36 6.8-3.2 20.3-1.1 30.2 4.8 13.6 7.9 22 20.6 25.3 38.6 4.1 22.1 4.3 28.8 3.7 106.5-.3 41.2-.9 82.1-1.2 90.7-.4 8.9-.3 15.8.2 15.8s.9-3.7.9-8.2c0-4.6.4-45.7.8-91.3.8-80.1.8-83.5-1.2-98.5-3.4-26-7.4-36.9-17.2-46.8-12.8-12.8-35.7-18.2-45.5-10.7-8.3 6.4-15.1 21.4-16.1 35.8-1 13.5 2.8 22.7 14.2 34.6l7.5 7.8v82.7c0 89.6-.1 87.5 5.4 91.1 2.2 1.5 9.9 3 41.1 8.5 2.8.4 18.7 3.5 35.5 6.9 16.8 3.3 37.7 7.4 46.5 9.1s27 5.4 40.5 8.1c37.3 7.6 71.4 14.3 93 18.4 10.7 2 23.8 4.5 29 5.5s14.7 2.8 21 4 56.1 10.7 110.5 21.1c117.1 22.4 118.6 22.7 134 23.5 16.5.9 21.4-.2 35-7.7 21.6-12.1 108.6-59.5 145.5-79.4 42.5-23 62-32.9 62.8-32.1.7.8 1.9.2-19.8 11.3-10.7 5.5-27.8 14.5-38 20-20.2 11-134 73.1-151.1 82.4-10.4 5.7-16.4 7.8-22.4 7.9h-3l.4 6.7c.7 13.2-4 46.6-7.4 53.3-1.8 3.5-3.2 4-11.2 4-5.8 0-6.8-.3-9.3-2.8-1.5-1.6-3.3-4.6-3.9-6.8-1.8-6-4-23.2-5.3-41.5l-1.2-16.6-8.5-1.6c-4.7-.8-43.9-8.3-87.1-16.7-43.2-8.3-86.8-16.7-97-18.6-21.3-4-34.5-6.6-51.5-9.9-6.6-1.3-16-3.1-21-4-4.9-.9-13.5-2.5-19-3.6-49.2-9.5-68.7-13.3-78.5-15.4-14.7-3.1-98.5-19.5-99.7-19.5-.5 0-1.4 7.8-2.1 17.2-1.9 28.3-5.3 43.8-10.7 48.8-4.4 4.1-16.7 2.6-19.4-2.3-2.3-4.4-4.1-18.6-5.1-41.7-1.5-31.1-1.2-29.8-5.8-30.5-10.8-1.8-16.6-3.5-18.9-5.7-5.5-5.1-5.3-1-5.3-90.8v-83.1l-7.5-7.9c-10.1-10.6-13.8-18.3-14.1-29.5-.5-13.7 4.5-28.5 12.7-37.9 3.8-4.3 14.7-11.4 20.9-13.5 5.6-1.9 64.7-12.2 147-25.6 9.1-1.4 25-4.2 35.4-6.1s22.2-3.4 26.3-3.4c4 0 7.3-.2 7.3-.5s1.6-10 3.5-21.7 4.1-26 5-31.8c2.8-19 7.5-42.7 10-50.5 8.4-25.5 23.5-41.1 46-47.1 6.4-1.7 10.6-1.9 52-1.7 52.7.3 115.4 1.6 214.5 4.4 39.3 1.1 90.2 2.4 113 2.9 52.9 1.2 69 3.1 86.5 9.9 14.6 5.6 23.8 13.7 29.5 25.7 4.8 10.2 6.3 18.1 6.2 33.4 0 10.6-4.2 66.3-6.7 89.5-.2 2.2-.7 6.6-1 9.7-.4 3.2-.4 6.2-.1 6.7s7.6-1.5 16.2-4.5c16.3-5.7 17.4-6 17.4-4.5 0 .5-4.2 2.3-9.3 3.9-5.1 1.7-28.3 9.9-51.6 18.1-23.2 8.3-42.9 15.1-43.7 15.1-3.5 0 .3-2.1 9.4-5.1 5.3-1.7 20-7 32.7-11.5 12.6-4.6 23.5-8.4 24.1-8.4.7 0 1.5-.4 1.8-.8.4-.7 3.2-31.4 7.6-83.7 3.1-36.4.2-54.2-11.3-68-3.8-4.7-13-10.7-20.6-13.6-8.5-3.2-25.3-6.7-37.6-7.9-6-.6-30.6-1.5-54.5-2s-58.3-1.4-76.5-2c-128.8-4-278.3-6.6-289.2-5-21.8 3.1-35.9 12.4-45.7 30.1-6.6 12.1-10.3 25.4-15.1 54.9-6.5 39.7-7.6 46.5-8.5 52.5-.5 3.3-1.2 7.7-1.5 9.8-.5 3.4-.3 3.8 2.2 4.8 18.4 7.2 26.4 14.7 31.4 29.1 2 5.7 2.2 8.8 2.5 30.7.2 13.4.6 24.6.8 24.8.5.5 27.4-5.3 40.6-8.8 14.8-3.9 22.6-7.7 29.9-14.5 6.6-6.1 15.1-16.8 20.5-25.8 3.3-5.5 3.5-6.1 2.1-8-.8-1.2-2.9-4.5-4.7-7.5l-3.2-5.4-16.8.6c-9.7.4-16.8.3-16.8-.2 0-1.3 12.8-2.3 23.8-1.9l9.3.3-.6-3.5c-.4-1.9-.8-3.7-1-3.9-.6-.5-13.1-2.8-26.7-4.8-11.4-1.7-15.4-3.3-8.4-3.3 4.8 0 25.5 3.6 30.5 5.3l4.1 1.5v-7.9c0-4.3.8-11.3 1.7-15.6 1.3-5.8 1.4-7.8.5-8.1-2-.6-1.3-2.2 1.1-2.2 1.7 0 3.1-1.6 5.9-6.8 2.1-3.7 4.9-8.5 6.2-10.7l2.5-4-3-6.8c-5.9-13.3-7.8-31.2-3.9-35.5 2.5-2.6 2.1-2.6 6.8-.6 5.5 2.3 9.7 6.7 17.8 19.1l7.3 11.3h5.4c3 0 10.8 1 17.3 2.2 18.9 3.4 17.8 3.7 23.6-5.7 8.3-13.4 16.2-20 23.1-19.3 2.6.2 3.6 1.1 5.3 4.6 4.7 9.2 5.4 27.8 1.8 47.2-1.6 9-1.6 9.1.6 14.2 1.2 2.8 2.4 7.5 2.7 10.4.6 6-.1 5.5 11.8 7.9 13.3 2.7 22.9 2.3 39-1.8 21.7-5.4 27.8-6.1 51.5-6.1 45.4 0 72.6 8 99.1 29.2 14.4 11.5 25.1 25.6 34.9 45.7 10.1 21 15 39.9 15 58.7 0 14.7-2 21.8-11.5 40.3-10.2 19.9-12.2 25.2-13.6 36.2-2.8 21.2 6.2 42.8 23.2 56.1 3.3 2.6 10.6 7.2 16.2 10.3 14.5 7.9 16.4 12 9.5 20.3-4.5 5.4-9.4 7.6-17.5 7.6-8.7 0-15.6-1.9-24.1-6.5-18.7-10.3-34.1-28.9-42.1-50.9-4.1-11.5-5.5-21.6-4.8-34.9.8-15.5 4.7-28.2 15-49.4 1.9-4 3.1-7.5 2.6-7.9-.5-.3-2.3.6-4.1 2.1-3.5 3-11 6.9-15.1 7.9-1.5.3-10.6 1.1-20.2 1.6-10.7.6-18.8 1.5-20.8 2.4-1.9.7-4.5 1.2-5.9.9s-3.8.2-5.4 1-8.5 3.6-15.4 6.2-14.7 5.9-17.4 7.2c-5.7 2.9-13.9 10.2-17.2 15.5-3.8 6-7.2 17.5-8.3 28.3-.5 5.5-1.1 47-1.3 93-.3 82.4-.3 83 1.7 83s2-.9 2.6-88.5c.6-97.8.6-97.7 7-109.8 6.3-11.7 12.9-16.5 33.9-24.7 8-3.1 17.7-7.2 21.6-9.1 7-3.3 7.7-3.5 25.3-4.4 11.3-.6 19.8-1.6 22.8-2.6 6.2-2 12.9-5.9 13.7-7.9.3-.8.9-1.5 1.4-1.5.4 0-1.3 4.3-3.9 9.5-5.5 11.1-11.4 28.3-12.8 37.5-5.2 32.2 8.5 68.1 33.8 88.2 12.5 10 24.8 14.8 37.6 14.8 8.5 0 13.9-2.2 18.2-7.5 4-4.9 4.8-8.8 2.6-13.4-1.4-2.8-3.9-4.6-12-9-18.6-10.2-27.3-18.7-34.4-33.6-5.3-11.1-6.8-22.3-4.6-35 1.4-7.7 2.9-11.5 11.2-28 11.2-22.4 13.5-30 13.5-45 0-13.2-2.1-25-7.1-40-14.1-42.5-38.8-70.2-75.6-84.5-19.4-7.6-38.1-10.5-67.8-10.5-23.2.1-29.6.9-51 6.2-18.3 4.6-29.2 4.7-45.7.3-3.2-.9-3.8-1.5-3.8-3.8 0-3.3-1.7-9.6-3.7-13.9-1.4-3-1.4-4.2.1-12 3.6-19.1 2.8-39.2-2.1-49.1-1.5-3-2.4-3.8-5.2-4-8.3-.8-16.2 5.3-24.9 19.3-5.8 9.3-4.1 8.9-22.6 5.6-6.5-1.2-14.1-2.1-16.8-2.1h-4.9l-7.3-11.3c-8.5-13-12.4-17-18.5-19.2-5.6-1.9-5.6-1.9-8.1.7-4 4.3-2.1 22.6 3.8 36.5l2.8 6.9-3.3 4.9c-1.8 2.7-4.5 7.3-6 10.2-2.1 3.9-3.4 5.3-5 5.3-3 0-4 2-1.9 3.6 1.7 1.2 1.7 1.7.2 8.3-.9 3.8-1.6 10.1-1.6 13.9v6.9l-11.2-2.3c-6.2-1.3-14.8-2.7-19-3-7.4-.6-7.8-.6-7.8 1.3 0 1.8.9 2.1 6.9 2.7 6.5.6 30.9 5.1 31.6 5.8.1.2.6 1.3.9 2.5.7 2.3.7 2.3-11.1 2.4-15.4.1-21.8 1-21.8 2.9 0 1.3 2.6 1.5 17.4 1.5h17.4l2.4 4.5c1.3 2.4 3.2 5.4 4.3 6.5 1.9 2 1.8 2.1-4.8 12-3.6 5.5-10.2 13.7-14.7 18.1-12 12.1-20.3 15.6-57 23.3-7.7 1.7-14.1 2.9-14.2 2.7-.1-.1-.4-11-.7-24.2-.3-21.2-.6-24.7-2.6-30.8-2.7-8.6-5.4-12.9-11.4-18.4-4.6-4.2-15.5-10.2-18.7-10.2-2.4 0-3.8-2.1-3.3-4.9.2-1.4 3.1-19.7 6.5-40.6 8.2-51.7 10.6-61.4 18.2-74.9 10.5-18.6 23.9-27.6 45.1-30.7 10.8-1.5 161.2 1.2 289.1 5.1 18.2.6 52.6 1.5 76.5 2 41.6.9 56.2 1.8 69.5 4.1 24.9 4.3 40.3 13.4 48.2 28.5 6.7 12.6 7.8 28.1 4.8 63.9-4.2 50.8-6.6 76-7.3 76.6-.9.8-39.4 14.8-56.2 20.4-8.7 2.9-12.6 4.7-12.8 5.8s.3 1.7 1.6 1.7c1.1 0 21.1-6.8 44.4-15.1 23.2-8.3 46.7-16.5 52.1-18.2 7.4-2.4 9.7-3.6 9.7-4.9 0-1-.6-1.8-1.4-1.8s-8.5 2.4-17.1 5.4l-15.7 5.5.6-5.2c.9-7.1 5.2-56.8 7.1-81.3 1.8-23.4 1-35-3.1-47.2-5.6-16.9-15.5-26.6-33.5-32.8-19.2-6.6-34.1-8.2-85.9-9.4-22.8-.5-73.7-1.8-113-2.9-153.8-4.3-251.1-5.7-261.5-3.7m312.1 317.3c-1.6.8-9.9 4.2-18.5 7.5s-17.7 7.3-20.3 8.9c-6.3 4.1-11.9 10.4-15 16.9-3.1 6.4-5.8 18.8-5.8 26q0 4.95-1.2 5.1c-.7 0-.8.2-.3.5 1 .4 1 162.5 0 165.3-.4.9-.9 1.1-1.4.5-.5-.5-.5-40.1-.1-89.4.8-97.2.7-95.3 7.1-108.3 3.8-7.9 12-16.2 20-20.2 2.9-1.5 9.9-4.5 15.4-6.6 5.5-2 12-4.6 14.5-5.7 5.6-2.6 10-2.9 5.6-.5"/><path d="M308.3 376.2c-6.3 1.8-7.3 2.4-7.3 4.4 0 1.9 14.6 54 21.6 77.2 2.3 7.6 2.8 8.3 4.7 7.8 1.2-.3 5.9-1.4 10.4-2.4s8.4-2 8.7-2.3c.3-.2-5.9-19.8-13.7-43.4-9.9-30.1-14.7-43-15.7-43.2-.8-.1-4.8.8-8.7 1.9m9.9.9c.4.8 6.8 19.8 14.2 42.2 8.6 26.3 13 41 12.3 41.2-2.1.6-17.2 3.9-18.2 4-1 0-.3 2.5-14-45.3-5.8-20-10.5-37.2-10.5-38.2 0-1.4 1.4-2.3 5.8-3.5 3.1-.9 6.2-1.8 6.7-2 1.5-.5 2.8 0 3.7 1.6m188.2 56.5c-1.7 6.6 1.6 23.8 6.4 33.5l2.7 5.7-4.3 6.3c-5.4 8-8.2 13.3-8.2 15.6 0 1.1 2.3 3.1 6.1 5.3 5.5 3.1 15.9 13.1 15.9 15.2 0 2-2.1.4-5.2-3.8-3.5-4.9-14-12.4-17.4-12.4-1.8 0-2.4.9-3.5 5.2-.7 2.9-1.3 9.3-1.4 14.2 0 8.3.1 8.9 2.3 9.7 1.2.5 2.2.5 2.2 0s-1-1.1-2.2-1.4c-2-.6-2.1-1-1.5-9.9.7-10.4 2.2-16.8 4-16.8 2.6 0 13.5 8.1 16.5 12.4 3.4 4.7 7.2 6.2 7.2 2.8 0-2.9-8.6-11.8-15.3-15.8-3.4-2.1-6.4-3.8-6.5-4q-1.35-.9 6.9-13.5l5.9-9-3.5-7.2c-3.7-7.7-6.5-19-6.5-26.5 0-6.1 1-7.7 4.5-6.8 4.1 1 10.3 8.1 18 20.3l7 11.2 5.5-.5c6.3-.6 33.2 3.8 33.8 5.5.2.6 1.2 1.1 2.2 1.1 1.2 0 3.4-2.6 6.5-8 6.5-11.1 11.7-17.3 16.8-20 5.2-2.8 7.3-2.2 9.2 2.3 2.1 5.1 3.8 19.5 3.1 27.2-1 10.8-2.8 21.5-3.7 22.1-1.5.9-1 4 1.8 10 2.2 4.9 2.8 7.6 3 15.4.2 8.3.5 9.5 2 9.5 1.3 0 1.9-.9 2.1-3.1l.3-3.2 5.1 1.4c7.8 2 23.4 3.6 28.1 2.9 2.3-.4 9.4-2 15.7-3.5 25.2-6.3 46.1-8.1 69.5-6.1 25.7 2.2 41.1 5.9 56 13.3 35.5 17.8 59.3 49.9 70.2 94.3 1.1 4.9 1.7 11.5 1.7 22 .1 18-.3 19.6-11.4 41-10.9 21.2-13.4 29.1-13.5 43 0 12.1 2 20.7 7.6 31.7 5.6 11.1 19.8 23.8 34.9 31.3 3 1.5 6.5 3.6 7.8 4.8 4.3 4 2.1 9.9-5.5 14.4-4.1 2.4-5.1 2.5-12.8 2-6.6-.4-9.9-1.1-15.1-3.6-17.6-8.3-31.6-22.6-41.8-43-9.3-18.4-11-43.5-4.5-64.9 1.9-6 9.6-23.2 21-46.7 5.7-11.6 6.9-20.9 2.6-19.2-.8.3-1.6 2.4-1.9 5-1.5 12.7-16.3 28.8-30.3 32.8-1.6.5-14.5 1.4-28.5 1.9-14 .6-35.1 1.9-46.9 3s-28.2 2.3-36.5 2.6c-14.4.7-14.9.7-14.3-1.2.7-1.8.6-1.8-.7-.2-1.5 2.1-5.6 2.4-5.6.5 0-2.1 5.5-6.7 9.6-8.2 4.8-1.6 5.9-4.5 1.7-4.5-6.1.1-15.3 6.5-15.3 10.6 0 2.4-1.7 1.5-3-1.6-.7-1.6-.9-4.1-.6-5.6.9-3.4 8.8-11.3 15.1-15l5-2.9 28.5-.6c30.4-.6 35.4-1.3 34.8-5.1-.2-1.4-2.2-2.6-7.8-4.4-10.1-3.4-24-10.7-29-15.2-5.3-4.9-10.6-14.1-12.1-21.1-2.1-10.4 2.1-24 10.6-33.9 4.1-4.7 17.7-14.1 27.3-18.7 4.1-2 6.2-3.6 6.2-4.8 0-.9-.5-1.7-1.1-1.7-2.4 0-16.3 7.2-23.3 12-13.5 9.3-19.4 17.4-23.1 31.5-2 7.7-1.9 11.6.4 19.7 4.7 16.3 12.2 23.2 37.3 34.2 2 .9 4.7 1.6 6 1.6 1.2 0-.7-1.1-4.3-2.4-10.3-3.6-22.4-10.5-27.3-15.5-9.2-9.4-13.8-22.5-11.9-33.7 2.4-13.9 9.9-24.7 23.6-34.2 8-5.5 21.6-12.6 22.5-11.8.7.8 1 .6-9.2 6-22.6 11.8-31.5 22.1-34.7 39.7-1 5.8-1 7.8.5 13.6 2 8.1 6.7 16.3 11.9 20.8s16.1 10.1 27.1 14c5 1.8 9.2 3.7 9.3 4.2.2.5-.9 1.6-2.4 2.3-2.1 1.1-10 1.6-31.3 2-27.4.5-28.7.6-33.3 2.9-6.5 3.2-15.3 11.8-16.2 15.9-.9 4.4 1.1 10.2 3.6 10.2 1 0 1.9-.6 1.9-1.4 0-3.8 9.1-10.6 14.2-10.6 2.9 0 1.3 1.4-3.3 2.9-4 1.3-8.6 5.6-9.1 8.6-.3 1.9.2 2 17.2 1.8 9.6 0 27.9-1 40.5-2.2 12.7-1.2 34.3-2.5 48-3.1 32.2-1.3 35.2-2.1 46.8-13 6.8-6.3 11.1-14 12.5-22.1.4-2.2 1.2-4.1 1.7-4.1 2.6 0-.5 8.6-11 30.7-12.4 26.4-15.8 35.8-17.6 49.1-4.5 33.7 11.1 68.9 38.7 87.3 9.7 6.5 17.1 9.2 27.1 9.8 7.1.5 8.7.3 12.8-1.7 5.3-2.5 8.5-6.9 8.5-11.6 0-3.7-2.5-6.2-10-9.9-28.6-14.2-44.4-38.5-42.6-65.6.7-10.9 3.6-19.1 13.1-37.4 11-21.1 12-24.9 11.9-43 0-16.1-.9-21.2-6.5-38.5-13.7-42.4-42.6-72.6-80.9-84.8-18.1-5.7-45-8.8-68-7.8-15.5.6-26.4 2.4-43.5 6.8-9.7 2.6-13.9 3.2-21.5 3.1-8.1-.1-21.7-2.1-26.5-3.9-.9-.4-1.5.4-1.7 2.7-.2 1.8-.7 3.4-1.3 3.6s-1-3.3-1.1-9c0-7.6-.5-10.4-2.8-15.9-1.9-4.8-2.4-7.2-1.8-8.5 1.2-2.2 2.9-12.4 3.7-22.3.7-7.9-.7-21.4-2.9-27.7-1.7-5.1-3.5-6-8.6-4.4-5.7 1.7-11.7 8.1-18.6 19.7-3.1 5.2-6.1 9.4-6.6 9.4-.6 0-.7-.7-.4-1.6.3-.8.2-1.3-.3-1s-7.6-.6-15.7-2c-8.2-1.4-17-2.4-19.5-2.1l-4.6.4-6.3-10.1c-8.4-13.3-12.2-18-16.4-20-5-2.4-7.4-2.1-8.2 1M183 482c0 1.7.7 2 4.3 2 7.7 0 118.9 2.9 137.5 3.6 18.1.6 18.2.6 18.2-1.5 0-1.2-.1-2.1-.2-2.1-1.2-.2-148.8-4-153.5-4-5.6 0-6.3.2-6.3 2m69.3.5c32.6.8 64.6 1.7 71.2 1.9 6.6.3 13.5.6 15.3.6 1.7 0 3.2.5 3.2 1.1 0 .8-4.9.9-17.2.5-16-.6-130.3-3.6-137.5-3.6-1.8 0-3.3-.5-3.3-1 0-1.3-2-1.3 68.3.5"/><path d="M556 507.6c-11.2 3-19.9 8.6-18.7 11.9.9 2.1 1.9 1.9 6.1-1.4 4.4-3.5 10.1-5.8 18.2-7.4 4.1-.8 5.9-1.7 5.9-2.7 0-2.1-4.8-2.3-11.5-.4m10 .4c0 .5-1.7 1.2-3.7 1.6-9.9 1.6-16.2 4.2-20.4 8.1-1.6 1.5-2.9 2-3.3 1.4-.7-1.1 3.9-4.9 9.1-7.5 6.6-3.3 18.3-5.6 18.3-3.6m-212.5 16.9c-2.7.5-14 2.5-25 4.5s-27.6 4.7-37 6.2c-22.3 3.3-24.4 3.7-73 11.8-43.8 7.4-66.5 12.1-66.5 13.9 0 .1 1.1.2 2.4.2s2.2-.3 2-.7c-.9-1.5 57.8-12 138.8-24.8 17.4-2.8 37.4-6.2 44.5-7.5 23.8-4.6 34.6-4.3 46 1.2 7.4 3.6 15.1 11.2 18.7 18.6 3.2 6.4 4.5 17.4 4.5 38.8.1 16.6-.6 20.7-3.8 22.3-4.1 2.1-14.6 4.5-27.6 6.2-36 4.7-81.8 15-103 22.9-11.7 4.4-27.4 12.2-34 17-8.6 6.1-14.8 13.4-19.6 23-6.5 13.3-8.2 21.4-8.3 40-.1 17.7 1.4 25.1 6.1 31.4 5.2 6.8 10.4 8.1 82.3 20.1 174.5 29.2 194.6 32.5 297 48.5 46.1 7.2 69.9 11.1 87.8 14.2 2.7.5 3.2.3 3.2-1.5 0-1.7-1.2-2.2-8.7-3.6-8.8-1.6-69.9-11.3-142.3-22.7-35-5.4-246.3-40.4-281-46.5-27.2-4.7-33.3-7.2-36.9-14.7-4.4-9.1-5.2-32.5-1.6-47.6 2.2-9.1 9.7-23 15.9-29.4 14.1-14.7 42.1-27.1 80.3-35.6 4.9-1.1 9.8-2.3 10.9-2.7 1-.4-.2 1.2-2.8 3.5-10.2 9.1-9.9 21.4.5 26.7 4.2 2.2 15.6 1.4 26.7-2 33.8-10.3 41.6-11.6 70.8-11.6 23.2 0 43.1-1.5 52.5-4 4-1.1 8.3-2.2 9.7-2.5 2.2-.5 2.2-.4.5.4-1.1.6-8.1 3.3-15.5 6.1-7.4 2.9-14.9 5.8-16.6 6.6-1.7.7-14.4 5.2-28.2 9.8-13.8 4.7-27 9.5-29.3 10.6-13.6 7-23.8 25-22.7 40.2.4 4.7 1 6.4 3.1 8.6 2.6 2.5 3.3 2.7 11.5 2.7 10.6 0 12.9-1.2 28-14.4 12.2-10.8 17.9-14.8 24.2-17.2 6-2.3 34-7.8 66-12.9 56.1-9.1 62.2-10.6 70.3-18 3-2.7 5.7-4.7 6-4.4s.3-.3 0-1.5-.1-2.7.5-3.4c.5-.6 1.5-3 2.2-5.2s2.1-5.2 3.1-6.7c2.2-3.1 2.5-5.8.6-5.8-2.2 0-5.3 4.2-7.1 9.4-3.9 11.8-10 18.1-21 21.5-3.4 1-18.9 4-34.6 6.5-67.6 11.2-83.4 14.4-93.2 19-3 1.4-9.9 6.5-15.4 11.2-11.9 10.4-21.1 17.4-22.9 17.4-.8 0-1.1-.8-.8-1.9.8-3-2.6-3.5-3.7-.6-1 2.6-3.6 4.3-4.7 3.1-1-.9 1.8-5.6 5.5-9.2 3.2-3.1 3.6-5.4.8-5.4-2.5 0-6.9 4.4-9.1 9.2-2.1 4.5-2.3 4.7-3.9 3-3.6-4-.8-18.6 5.5-28.3 3.3-5.2 10.4-11.2 17.4-14.6 2.2-1.1 10.5-4.2 18.5-6.8 13.9-4.6 50.7-18 58-21.2 32.2-14.2 41-21.6 41-34.9 0-3.7-.3-4.4-2-4.4-1.6 0-2 .7-2 3.4 0 6.7-3.7 12.4-11 17-3.7 2.4-19.2 7.5-30 10-9.1 2.1-31.9 3.6-56.1 3.6-24.5 0-32.8 1.2-54.9 8-8.5 2.6-17.5 5.1-19.9 5.5-4 .7-4.3.6-3.6-1.1 1.8-4.5 1.8-5.4-.2-5.4-1.8 0-3.3 2-4.7 6.2-.3 1-1.2 1.8-2.1 1.8-2.7 0-1.6-3.1 2.5-7.2 2.2-2.2 4-4.7 4-5.4 0-4.2-9.3 1.9-11 7.2-1.4 4.2-2.3 4.3-5.1.3-2-2.8-2.1-3.4-.9-7.2 1.4-5 7.4-11 14.7-15 5.7-3 17.5-5.6 38.3-8.2 16.2-2.1 25.9-4.1 33.4-7 3.4-1.2 14.9-4.2 25.6-6.5 23-5 38.7-9.8 45.3-13.9 7.7-5 21-19.8 27.8-31.1 1.8-3 3.4-5.7 3.5-5.9.2-.2 1.6.6 3.2 1.7 13.5 9.7 35.5 8.5 51.5-2.7l5.5-3.9 14.3 5.5c16.9 6.5 19.9 7.2 19.9 4.9 0-.9-1.2-2.1-2.7-2.7-1.6-.6-7.9-3.1-14.2-5.5-6.2-2.4-12.5-5.1-13.9-6-1.4-1-4-1.8-5.6-1.9-1.7-.1-4.8-.6-6.8-1-3.4-.7-3.8-.5-3.8 1.3 0 1.5.9 2.2 3.8 2.9l3.7.9-4.3 2.8c-3.9 2.6-4.9 2.9-12.5 2.7-6-.1-9.3-.7-12.2-2.2-4.8-2.5-8.5-5.8-8.5-7.6 0-.7 1-1.7 2.3-2.2 3.6-1.4 7-5.7 6.2-8-.9-2.9-6.6-6.1-10.8-6.1-2.9 0-3.9.6-5.6 3.4-2.7 4.4-2.7 4.9 1 9 4.9 5.7 1.8 7.1-8.7 4q-8.4-2.4-8.4-8.1c0-1.2-.4-2.5-1-2.8-1.9-1.2-1.1-3.8 1-3.2 1.1.3 2.2.2 2.4-.2.3-.4-.9-.8-2.5-.9-2.5-.2-2.9.1-2.9 2.2 0 1.4.5 2.8 1 3.1.6.3 1 1.7 1 2.9 0 3.6 2.9 6.2 9.1 8.1 11.2 3.4 16.1.4 9.9-6-2.7-2.8-3-3.6-2-5.4 1.3-2.5 3.4-1.8 2.5.8-.7 2.4 2.8 5.5 5.3 4.7 1-.4 3-1.8 4.3-3.3l2.4-2.6-4.2 2.8c-3.5 2.3-4.6 2.5-5.8 1.5-.9-.8-1.3-2.1-.9-3.6s.2-2.4-.5-2.4c-.6 0-1.1-.7-1.1-1.5 0-3.5 11.8-.1 13.3 3.9.6 1.5-3.6 5.9-6.5 6.9-2.4.8-2.3 3.8.2 6.9 3.3 4.2 10.6 6.7 20.3 6.9 7.9.1 9.1-.1 12.7-2.5 4.4-2.9 5.3-5.6 1.8-5.6-2.7 0-5.5-1.6-4.5-2.6.3-.4 2.7-.1 5.1.6 2.5.7 5.2 1 6 .7s1.7 0 1.9.7c.3.7 5.1 3 10.7 5 13.2 4.9 21.8 8.8 20.2 9.4-.7.2-4.5-1-8.5-2.6-3.9-1.7-11.1-4.4-15.8-6l-8.6-3.1-5.4 3.7c-6.8 4.6-18.1 9-25.1 9.8-7.3.9-15.4-1-22.3-5.1-3.2-1.9-6.3-3.5-6.9-3.5s-2.4 2.3-3.9 5c-3.6 6.5-12.8 17.9-20.2 25.3-9.7 9.7-20.9 14-54.5 21.1-9.6 2.1-20.2 4.8-23.6 6.1-7.5 2.9-17.1 4.9-33.4 7-20.9 2.6-34.1 5.4-39.5 8.3-11.6 6.3-17.5 15.8-14.1 22.8.8 1.8 2.4 3.8 3.6 4.4 1.8.9 2.2.6 3.6-2.9 1.4-3.6 7.9-10 9-8.8.2.2-1.4 2.2-3.6 4.4-5 5.1-5.6 9.6-1.2 9.2 1.5-.2 3.3 0 4 .5 1.1.7 1.1.4.1-1.2-1.1-1.7-1.1-2.5.1-4.6.7-1.4 1.7-2.6 2.2-2.6 1.1 0 1 1.8-.2 2.5-.5.3-1 1.5-1 2.7 0 1.9.4 2 4.7 1.3 2.6-.4 11.1-2.7 18.9-5.1 23.6-7.3 24.6-7.4 61.4-8.4 18.4-.5 37.2-1.4 41.8-1.9 8.6-1.1 33.1-8 39.2-11.1 7.3-3.8 12-10.9 12-18.2 0-1.6.5-2.8 1-2.8 1.7 0 1.1 7.9-.9 11.8-4.2 8.2-15.8 15.7-40.2 26-13.3 5.7-38.2 14.9-58.7 21.7-26 8.6-33.5 14.5-38.7 30.8-3.9 12.2-3 20.5 2.3 21.9 1.5.4 1.8.1 1.5-1.2-.6-2.1 3.7-9.2 6.8-11.4 2.9-2 4-1 1.3 1.2-3.1 2.5-6.4 7.7-6.4 10.1 0 3.2 4.7 2.9 6.2-.4 1.3-3 3.2-3.4 2.3-.5-.5 1.6-.2 2 1.8 2 2.9 0 10.2-5.3 24.2-17.4 17.4-15.2 18.4-15.5 107.5-30.2 29.3-4.8 39-7.1 44.8-10.6 4.6-2.8 8.7-8.7 11.2-16.2 1.8-5.6 7-12.8 7-9.8 0 .6-.4 1.3-.9 1.6-.4.3-2.3 4.3-4.1 8.8-4.9 12.6-12 19-24.5 22.2-7.6 1.9-22.1 4.5-53.9 9.6-31.4 5.1-58.7 10.4-66 13-7.1 2.4-11.9 5.8-25.3 17.5-13.5 11.8-18.4 14.5-27.1 14.5-5.9 0-6.6-.2-9.8-3.4-3-3-3.4-4-3.4-8.9 0-15.2 10.1-31.1 24.1-38.2 2.9-1.5 16.3-6.5 29.8-11 30.4-10.3 59.7-21.9 59.3-23.4-.1-.6.3-1.1 1-1.1.6 0 .9-.2.6-.5s-2.4.2-4.8 1c-12.9 4.5-31.3 6.5-61.2 6.5-29.2 0-37 1.3-70.8 11.6-4.7 1.4-12 2.8-16.2 3.1-7.3.5-7.9.4-11.3-2.1-3.8-2.9-6.5-7.3-6.5-10.6 0-3.8 3.8-9.7 9.7-15 3.2-2.9 5.1-4.8 4.2-4.2-.9.7-1.8.9-2.1.6-.6-.5-10.8 1.7-26.3 5.7-21.5 5.5-42.8 14.1-55.5 22.3-10.7 6.9-17.3 14.3-22.6 25.1-6.7 13.8-7.8 19.3-7.8 38 0 20.9 2.1 28.2 9.2 32.7 6.3 3.9 15.9 5.7 124.7 23.8 40.2 6.6 78 12.9 84 14 22.4 4 104.8 17.3 124.5 20.1 3.6.5 13.5 2 22 3.4s19.8 3.2 25 4.1c5.2.8 13.3 2.1 18 2.8 4.7.8 11.9 1.9 16 2.6 18.9 2.8 48.3 7.9 48.8 8.4 1.5 1.6-1.4 1.7-8.5.2-8.3-1.6-15.8-2.9-26.3-4.5-3.6-.6-11-1.7-16.5-2.6s-12.7-2-16-2.5-10.3-1.6-15.5-2.4c-5.2-.9-15.3-2.5-22.5-3.6-7.1-1.1-15.5-2.5-18.5-3s-10.4-1.6-16.4-2.5c-14.1-1.9-76.5-12-120.6-19.5-32.5-5.5-49.1-8.3-54.5-9.1-3.3-.4-13.9-2.2-23.5-3.9s-20.4-3.5-24-4.1c-20.1-3-79.7-13.3-86.8-14.9-19.4-4.6-23.8-10.8-24.8-35-1.2-27.6 7.9-50.7 25.4-64.5 6.7-5.4 20.8-12.8 34.7-18.3 19.9-8 67.6-18.8 104.2-23.6 11.8-1.6 25.9-4.8 29.4-6.6 2.5-1.4 3.3-12.8 2.5-34.3-.8-20.6-2.4-27.3-8.4-35.2-4.5-6-12.6-11.6-19.9-13.9-6.2-2-20.5-2.8-27.8-1.7m208.7 15.7c.3 1.7 1.9 2 14.3 3 12.3 1 26.4 3.2 33.3 5 1.8.5 2.2.2 2.2-1.4s-1-2.4-3.7-3.2c-6.6-1.8-22.4-4-34.7-4.7-11.2-.6-11.8-.5-11.4 1.3m25.3.9c14 1.6 23.5 3.9 23.5 5.6 0 .6-.7.8-1.7.5-3.6-1.4-24.2-4.5-34.6-5.2-5.9-.4-11-1.1-11.3-1.5-.8-1.4 9.7-1.1 24.1.6"/><path d="M508 549.3c0 .8 1.5 2.8 3.3 4.3 7 5.9 18.6 9.1 27.8 7.5 4.8-.8 5-.9 1.9-1.1l-3.5-.3 4-.7 4-.7-3.5-.2c-4.1-.2-11.6-3.4-14.6-6.2-1.6-1.5-3.8-2.1-9-2.3-3.8-.1-7.7-.6-8.6-1-1.3-.6-1.8-.4-1.8.7m11.2 1.6c3.7-.2 5.3.2 7 1.8 2.8 2.5 8.1 5.3 10.2 5.3 1 0 1.3.6.9 1.6-.5 1.3-1.6 1.5-6.2.9-6.7-.8-11-2.5-17.3-6.8-5.3-3.6-6.2-5.2-2.1-3.6 1.5.6 4.9.9 7.5.8M162.3 563c2.6.5 7.6 2.2 11 3.8 17.1 8 27.6 23.1 30.7 44.3.6 4.1 1.3 8.5 1.6 9.9.2 1.4.7 5.2 1.1 8.5.9 6.7.6 187.6-.3 191.5-.4 1.7-.2 2.2.5 1.5.6-.7 1.1-33.8 1.3-96 .3-87.6.2-95.9-1.5-106.5-3.7-23.5-8.1-34.3-17.8-44-7.4-7.5-21-14.2-28.3-13.9-2.4.1-2 .3 1.7.9M59 568c0 1.5.5 2 1.8 1.8.9-.2 1.7-1 1.7-1.8s-.8-1.6-1.7-1.8c-1.3-.2-1.8.3-1.8 1.8m25.8 30.5c-12.6 15.9-18.8 34-18.8 54.9 0 15.9 3.2 24.6 14.1 37.6 10 12.1 13.3 19.2 13.8 29.8.3 7.3 0 8.9-2.3 13.7-3.1 6.2-11.9 14.8-20 19.5-5.2 2.9-6.6 4.7-5 6.3 1.3 1.2 12.4-5.6 18.7-11.3 3.4-3.2 7.6-8.2 9.2-11.1 2.8-5 3-6.1 3-15.9 0-10-.2-10.9-3.6-18-1.9-4.1-6.6-11.1-10.3-15.5s-8.1-10.9-9.9-14.5c-3.2-6.4-3.2-6.6-3.2-21 0-12.1.4-15.8 2.3-22.4 2.9-10.1 8.7-21.3 15.2-29.3 5.4-6.7 6-8.3 3.1-8.3-1.2 0-3.7 2.3-6.3 5.5m3.3.4c-12.8 15.2-19 33.2-19.1 54.7 0 16.4 2.3 22.2 14.3 36.7 3.5 4.2 7.9 10.7 9.7 14.4 3.2 6.3 3.4 7.5 3.5 16.8 0 12.5-1.3 15.4-11 25C79 753 67 761 67 759c0-.5 2.5-2.3 5.6-4 8.1-4.7 16.9-13.3 20-19.5 2.3-4.9 2.6-6.3 2.2-14.7-.3-8-.8-10.2-3.5-15.8-1.7-3.6-6.4-10.3-10.3-15-11-13.2-13.9-20.8-14-36 0-15.7 4.1-32 11.1-43.5 4.2-7 11.8-16.5 13.1-16.5.5 0-.9 2.2-3.1 4.9M488.5 636c.3.5.8 1 1.1 1 .2 0 .4-.5.4-1 0-.6-.5-1-1.1-1-.5 0-.7.4-.4 1m452 12.5c-1.6.8-9.5 3.9-17.5 7.1-8 3.1-15.8 6.2-17.5 6.9-2.8 1.2-29.8 11.5-33.7 12.8-1.7.6-2.6 4.7-1.1 4.7.5 0 17.8-6.6 38.5-14.7 29.8-11.7 37.8-15.2 37.8-16.5 0-2.2-2.4-2.3-6.5-.3m5.5.4c0 .8-7.1 3.7-37 15.3-5.8 2.3-16.6 6.5-24 9.4-12.3 4.8-16 5.8-13.4 3.5.5-.4 5.5-2.6 11.2-4.7 5.6-2.1 21.6-8.5 35.5-14 25.9-10.4 27.7-11 27.7-9.5M708.5 650c-29.1.6-29.5.7-37.7 6.6-2.6 1.8-5.2 3.4-5.7 3.4-1 0-2.7 2.7-5.7 9-2.2 4.7-1.2 11.6 2.1 15 4.3 4.3 21.4 4 81-1.2 7.7-.7 13-1.4 11.9-1.6-1.2-.2-12.7.7-25.5 1.8-12.9 1.2-32.2 2.4-43 2.7l-19.6.6-3.2-2.9c-4.6-4.1-5.3-10.4-1.9-15.4 1.3-1.9 2.7-4.3 3.1-5.3.3-.9 1.1-1.7 1.6-1.7.6 0 3.6-1.8 6.7-4 3.2-2.2 7.3-4.4 9.3-5 2-.5 14.9-1 28.6-1.1 13.8 0 25.9-.4 27-.9l2-.9-2 .2c-1.1 0-14.1.4-29 .7m-123.7 4.7c1.2.2 3.2.2 4.5 0 1.2-.2.2-.4-2.3-.4s-3.5.2-2.2.4m13 1c1.2.2 3.2.2 4.5 0 1.2-.2.2-.4-2.3-.4s-3.5.2-2.2.4m12.5 1c1.5.2 3.7.2 5 0 1.2-.2 0-.4-2.8-.4-2.7 0-3.8.2-2.2.4m-25 1c1.5.2 3.9.2 5.5 0 1.5-.2.2-.4-2.8-.4s-4.3.2-2.7.4m36.5 0c1.8.2 4.5.2 6 0s0-.4-3.3-.4-4.5.2-2.7.4m-23.5 1c1.5.2 3.7.2 5 0 1.2-.2 0-.4-2.8-.4-2.7 0-3.8.2-2.2.4m35.7.1c0 .4 1.7.6 3.8.4 5.8-.5 6.2-1 1-1.1-2.7-.1-4.8.3-4.8.7m-23.2.9c1.8.2 4.5.2 6 0s0-.4-3.3-.4-4.5.2-2.7.4m39.5 0c1.5.2 3.7.2 5 0 1.2-.2 0-.4-2.8-.4-2.7 0-3.8.2-2.2.4m-27 1c1.5.2 3.7.2 5 0 1.2-.2 0-.4-2.8-.4-2.7 0-3.8.2-2.2.4m13 1c1.5.2 3.7.2 5 0 1.2-.2 0-.4-2.8-.4-2.7 0-3.8.2-2.2.4m12.7.9c3.4.7 10.8.8 10.3.1-.2-.4-3-.6-6.1-.6-3.1.1-5 .3-4.2.5m-413.7 16c-1 2.8 1.3 3.6 12.4 4.4 5.9.5 35.9 4.1 66.7 8 46 6 56 7 56.7 5.9.4-.8.5-1.7.1-2.1-.7-.7-21.2-3.4-91.7-12.2-19.8-2.5-37.7-4.8-39.8-5.1-2.8-.4-3.9-.2-4.4 1.1M267 682c13.5 1.7 35.1 4.4 48 6 12.9 1.7 27.1 3.5 31.5 4 15.5 1.8 23.5 3.2 23.5 4.1 0 1.2 3.7 1.6-44.6-4.6-68.3-8.8-73.6-9.5-79.1-9.5-5.8 0-10.7-1.5-9.8-3 .3-.5 1.8-.7 3.3-.5 1.5.3 13.7 1.9 27.2 3.5m160.4 23.1c-1.3 2.2 1.7 3.1 12.8 4 6.2.4 40.3 4.2 75.8 8.4 114 13.3 150.2 17.3 162.8 18 12 .7 12.2.7 12.2-1.4 0-1.5-.6-2.1-2.2-2.1-12.1-.1-31.9-2.2-158.3-17-101.6-11.9-101.8-11.9-103.1-9.9m38.6 3.4c16.8 1.9 47.6 5.5 68.5 8 71.5 8.4 136 15.5 145.8 16.1 5.4.3 9.7 1 9.7 1.6 0 1.4-18.1.2-44.5-2.7-11.5-1.3-29.3-3.3-39.5-4.5-10.2-1.1-23.7-2.7-30-3.5s-21.2-2.6-33-4c-63.3-7.3-75.2-8.7-83-9.6-4.7-.5-13.4-1.4-19.3-1.8s-11.3-1.3-11.9-1.9c-1.9-1.9 3.9-1.5 37.2 2.3M176 834.2c.1 14.3 2 42.8 3.5 52.5 1.9 12.1 3 13.3 12.1 13.3 5.4 0 6.5-.3 7.9-2.3 2-2.8 4.1-10.1 6-20.7 1.7-9.4 4.2-42.6 3.3-43.5-.4-.5-14.2-3.3-29-5.9l-3.8-.7zm17.2-3.1c7 1.2 13.3 2.6 13.9 3 1 .6 1 4.3.1 17.8-1.8 24.3-4.6 39-8.4 44.3-1.7 2.5-2.5 2.8-7.7 2.8-7.7 0-8.8-1.4-10.7-12.6-1.4-8.6-3.4-39.2-3.4-52.2 0-5.6.2-6.3 1.8-5.8.9.2 7.4 1.5 14.4 2.7M73.7 842.6c-.9 1 .4 3.4 1.9 3.4.8 0 1.4-.9 1.4-2 0-1.9-1.9-2.7-3.3-1.4m250.8 69.5c-16.2 2.1-37.3 9.2-65.5 22.2-3 1.4-7.5 3.1-10 3.8-5.5 1.5-6.2 2-5.1 3.8 1.2 1.8 8.3-.4 26.1-8.2 23-10.1 35.9-14.4 52-17.3l7.5-1.4-6.2.5c-11.5.9-29.2 6.4-50.8 16-14.6 6.4-19.5 8.4-24.2 9.5-5.4 1.3-3.7-.6 2-2.3 2.8-.8 12.4-4.7 21.2-8.5 8.8-3.9 20-8.4 24.8-10.1 36.8-12.9 73-9.3 118.9 11.9 40.6 18.8 49.3 22.3 58.8 23.6 2.8.4 5 1.1 5 1.6 0 .6-.9.8-2 .5s-2-.1-2 .4 1.3.9 2.9.9c2.4 0 2.8-.3 2.4-2-.3-1.2-1.4-2-2.8-2-7.7 0-19.8-4.7-60-23.2-36-16.6-66.4-23.1-93-19.7"/><path d="M334.8 914.7c2.9.2 7.4.2 10 0s.2-.3-5.3-.3-7.6.1-4.7.3m17.7.9c14.1 2.2 31 6.6 44 11.4 2.8 1 16.7 7.2 31 13.8 24.9 11.5 40.1 17.3 44.8 17.1 1.2 0-1.7-1.1-6.5-2.4-4.8-1.4-14.1-4.9-20.5-7.8-6.5-3-19.2-8.8-28.3-13-24-11-48.1-18.5-61.5-19.2-3.3-.2-4.6-.1-3 .1m527.8.1c.9.2 2.5.2 3.5 0 .9-.3.1-.5-1.8-.5s-2.7.2-1.7.5m13.7-.3c0 .2 1.4.6 3 .8 1.7.3 3 .1 3-.4 0-.4-1.3-.8-3-.8-1.6 0-3 .2-3 .4m-24.5 2.2c-8.7 3.3-14.6 6.9-29.5 18-17.4 12.9-23.1 16-31.9 17.7-4.7.9-6.1 1.6-6.1 2.9s.8 1.8 2.5 1.8c1.4 0 2.5-.4 2.5-.9s-.9-.7-2-.4-2 .1-2-.4c0-.4 2.7-1.4 6.1-2 8.9-1.7 14.6-4.9 31.9-17.8 16-11.9 24.2-16.7 32.6-19 3.1-.8 4-1.3 2.4-1.4-1.4 0-4.3.7-6.5 1.5m31.9-.8c.5.8-.6 1.2-3.6 1.3-4.1.1-4.1.2 1.4 1 3.2.4 9.7 2.2 14.5 3.9 12.2 4.3 13.3 4.5 13.3 2.7 0-2.2-1.8-3.3-10.1-6.1-9.3-3.1-16.5-4.4-15.5-2.8m14.8 3.8c4.2 1.4 8.2 3.2 9 4.1 1.1 1.5 1.1 1.6-.7.9-6.1-2.6-18.2-6.6-19.7-6.6-1 0-1.8-.5-1.8-1 0-1.2 2.9-.7 13.2 2.6"/><path d="M872.5 919.4c-8.2 2.6-15.4 6.9-30.5 18.2-16.8 12.5-20.6 14.8-29 17.5-3 .9-4.8 1.8-3.9 1.8 2.3.1 11.7-3.2 16.2-5.8 2.2-1.2 8.3-5.5 13.7-9.6 16.5-12.5 25.2-18 31.7-20.1 3.5-1 6.3-2.2 6.3-2.7 0-.4-.1-.7-.2-.6-.2 0-2.1.6-4.3 1.3m7.3-.7c1.2.2 3 .2 4 0 .9-.3-.1-.5-2.3-.4-2.2 0-3 .2-1.7.4m-202.4 15.4c1.2 17.7 3.6 38.1 5.1 44.4 2.2 8.7 4.8 10.7 13.3 10.3 6.1-.3 6.8-.5 7.9-2.9 3.3-6.8 7.3-35.1 7.3-50.9v-7.6l-13.7-1.2c-7.6-.7-15.3-1.6-17.2-1.9l-3.4-.6zm19.5-6.9 13.4 1.2-.6 13.6c-.7 15.4-4 36.8-6.5 42-1.6 3.4-1.9 3.5-7.8 3.8-5.8.3-6.3.1-8.7-2.7-1.4-1.7-3-5.4-3.6-8.3-1.3-6.2-3.7-28-4.7-42.2l-.7-9.9 2.9.6c1.6.3 8.9 1.2 16.3 1.9m70.8 25.5c-1.1 1.7.9 3.1 6.1 4.2 7.6 1.6 9.2 1.4 9.2-.9 0-1.6-.6-2-3.2-1.9-3.1.2-3.1.2-.5.6 1.5.2 2.7.9 2.7 1.5s-1.2.8-3.1.4c-1.7-.3-3.8-.6-4.5-.6-.8 0-1.4-.5-1.4-1.1s.7-.9 1.5-.5c.8.3 1.5.1 1.5-.4 0-.6-.8-1-1.7-1-1 0-2.8-.3-3.9-.6-1.2-.3-2.4-.2-2.7.3m4.3 1.9c0 .2-.7.4-1.5.4s-1.5-.4-1.5-1c0-.5.7-.7 1.5-.4.8.4 1.5.8 1.5 1m-215.6.5c-1 1.7 1.3 3.6 2.7 2.2 1.2-1.2.4-3.3-1.1-3.3-.5 0-1.2.5-1.6 1.1m-73.8 2.5c-.9 2.4-.9 2.4 3.2 2.3l3.7-.2-3.5-.7c-3.5-.6-3-1.3 1.5-2.3 1.3-.3.9-.5-1.1-.6-2.1-.1-3.4.5-3.8 1.5m16.7.1c4.2.2 7.7.8 7.7 1.3s-3.3 1.1-7.2 1.3l-7.3.3 7.8.2c7.1.2 7.7 0 7.7-1.8 0-1.9-.6-2-8.2-1.8l-8.3.2z"/></g></svg>