<svg xmlns="http://www.w3.org/2000/svg" width="1365.333" height="1365.333" preserveAspectRatio="xMidYMid meet" version="1.0" viewBox="0 0 1024 1024"><g fill="#000" stroke="none"><path d="M99 .5c0 .3 1 2.5 2.2 4.8 2.7 5.2 3.6 19.7 1.9 29-2.7 14.2-6.9 27-10.6 32.5-1.4 2-2.5 3.9-2.5 4.3 0 1 11.2 1 16.5 0 2.7-.5 5.4-.6 6-.2 1.2 1 4.4 1.1 6.5.4 2.5-.9 5.1-1 5.6-.2.2.5 1.5.4 2.7 0 1.2-.5 3.4-.4 5 .1 1.7.6 3.2.7 4 .1 1-.8 13.8-1 15.7-.3.3.2.9.2 1.3.1s8.1-.2 17-.3c12-.1 16.1.1 16 1-.4 1.5 8.8 1.7 10.2.3.8-.8 23.2-1.7 25.5-1.1 2.6.7 4 .7 4-.1 0-.5-.4-.9-.8-.9-.5 0-.9-1.4-.9-3.2s-.5-3.4-1.1-3.6-.8-1.7-.5-3.8c.3-1.9.2-3.4-.3-3.2s-.9-.2-.9-.7c0-.6.3-.9.7-.8.5.2.7 0 .6-.5 0-.4.1-1.4.5-2.2 1.1-3.1 1.5-6 .6-5.4-.5.3-.9-.2-.9-1 0-.9.6-1.5 1.3-1.3.7.1 1.2-1 1.3-2.8 0-1.7.6-2.9 1.2-2.8.7.2 1.2-.2 1.2-.7 0-3.4 13.5-19.4 19-22.7 1.7-.9 3-2.1 3-2.5s.6-.8 1.3-.8c2.8 0 8.7-2.2 8.2-3-.3-.5.5-.7 1.7-.5 2.6.5 5.8-.3 5.7-1.3-.3-1.8.2-2.3 1.4-1.4 1.6 1.4 9.9.3 9-1.1-.4-.7.1-.8 1.3-.3 1 .4 5.1 1.1 8.9 1.6 7 .8 9.8 1.6 23.3 7.1 15 6.2 30.8 17.9 53.6 39.9 25.6 24.7 38.8 38.4 37.9 39.5-.4.4-.2.5.5.1s1.5 0 1.8 1.1c.4 1 2.3 3.3 4.3 5.1s2.9 3 2.1 2.7c-.8-.4.1.7 2 2.3 1.9 1.7 3.9 3 4.5 2.9.5-.1.9.3.8.9-.2 1.1 3.5 5.1 4.3 4.6.2-.1.3 0 .2.1-.8 1 15.9 13.9 23.3 18 4.9 2.8 17.6 7.8 18.7 7.5.4-.1 1.7.3 2.9 1s2.6 1.1 3 1c.4 0 3 .8 5.6 2 2.7 1.2 6.4 2.2 8.2 2.2 1.9 0 3.7.5 4.1 1.1.3.6 1.5.8 2.6.5 1.1-.2 3.1.2 4.4 1.1 1.5.9 3.4 1.3 4.9.9 1.6-.4 3.4 0 5 1 1.4.9 3.2 1.4 4 1 .9-.3 2.7.2 4.1 1 1.8 1.2 3.8 1.5 7.3 1.1 3.1-.4 5.3-.2 6 .6.8.8 4.9 1.1 12.8 1 6.9-.1 12.2.2 12.9.8s9.4 1.3 19.3 1.6l18.1.6v-2.8c0-4.3-2-20.5-3-24.5-.5-1.9-1.4-6.9-2.1-11-1.5-9.5-4.5-22.7-7-30.5-5.4-17.1-7-21.7-10.2-29-3.5-8.1-4.4-9.9-11.2-21.4-3.9-6.6-11.7-15.9-24.7-29.4L524.4 0H311.7C194.7 0 99 .2 99 .5"/><path d="M698 53.6c-6.3 1-21.6 7.1-29.5 11.6-1.1.7-4.1 2.2-6.7 3.5-2.7 1.3-4.8 2.7-4.8 3.1 0 .5-1.1 1.4-2.5 2-7.2 3.3-32.6 31.6-44.5 49.5-8.1 12.1-15.5 26.1-16.5 31-.3 1.5-.9 2.6-1.3 2.3-.4-.2-.8 4.2-.8 9.8-.3 16.3-3.3 48.8-5.3 57.1-.6 2.2-1.3 5.3-1.7 7-.4 1.6-1.2 3.6-1.7 4.4-.6.7-1.2 1.9-1.3 2.7-.1.7-.9 2.8-1.8 4.5-.9 1.8-1.6 3.7-1.6 4.2 0 3.1-18.4 19.1-26 22.6-1.9.9-3.7 1.9-4 2.2-.3.4-2.3.9-4.5 1.2-2.2.2-7.1 1.2-11 2.1-3.8.8-9.2 1.6-11.8 1.6-2.7 0-4.6.4-4.2.9.3.5.1 1.2-.4 1.5-.5.4-1.2.2-1.6-.4-.3-.5-2.6-1-5.1-1-2.8 0-4.3.4-3.9 1 .3.5-.1 1-1 1s-1.3-.5-1-1c.4-.6-1.3-1-4.4-1-3.6 0-5 .4-4.9 1.2.2.7-.4 1.2-1.2 1-1.8-.4-3.3-.4-8 .2-1.9.2-3.9 0-4.5-.4-.5-.4-3.7-1-7-1.3s-7.1-.8-8.5-1.1c-1.4-.4-2-.4-1.4-.1.7.3 1 1.5.7 2.5-.6 2.2 3.2 8.1 5 7.7.6-.1 1.1.7 1.2 1.8 0 1.1.5 2 1 2 2.1.1 3.3 1.6 2.8 3.5-.4 1.4-.1 2 .8 1.8s1.3.4 1.1 1.4c-.3 1.8 6.2 12.3 7.6 12.3.4 0 .6.4.4.9-.1.4.6 2.4 1.8 4.3 1.1 1.9 2 3.6 2 3.8s-1.9.3-4.2.3c-5.5-.1-20.2 1.7-21.8 2.7-.7.5-3.1 1-5.4 1.2-2.2.2-4.4.7-4.9 1.2s-1.6.7-2.3.4c-.8-.3-2.5.2-3.9 1.1s-3 1.4-3.5 1.1c-1.6-1-8.1 1.7-7.1 2.9.4.6 1.4 3.1 2.1 5.6.8 2.5 2.3 6.5 3.3 9 1.8 4 2 6.5 1.7 21-.1 9.1-.4 17.8-.6 19.5-.3 1.6-.6 4.1-.8 5.5s-.9 3.8-1.5 5.4-.9 3.7-.6 4.6c.3 1 .1 2.1-.4 2.4-.6.4-.8 1.3-.4 2.2.3.8-.2 2-1.1 2.7-1 .7-1.9 3.3-2.3 6.4-.3 3.1-1.3 5.9-2.4 6.9-1 .9-1.5 2.3-1.2 3.2.4.9.2 1.3-.5.8-1.5-.9-2.2.3-3.5 7-.2.6-1 2.3-2 3.7-.9 1.5-1.7 3.1-1.7 3.6 0 .6-.9 1.5-2 2.1s-1.9 1.4-1.9 1.8c.4 2.3-1.6 7.4-3.3 8.3-1.1.6-1.7 1.3-1.4 1.6.9.9-3.7 3.8-6.1 3.8-1.2.1-1.9-.3-1.7-.7.3-.5-.3-1.1-1.3-1.4-1-.4-5-2.2-8.9-4.1s-8.2-3.5-9.5-3.6-3.3-.8-4.4-1.4c-2.3-1.3-7.6-2.4-12-2.7-1.6 0-3.9-.6-5-1.2-3.3-1.8-11.5-3.5-13.6-2.9-1.1.4-2.5.2-3.2-.3-1.5-1.2-16.3-4-23.2-4.4l-5-.2-.1 16.9c0 9.4-.5 17.9-1 19s-.9 13.7-.9 28c0 29.6.3 31.4 8.7 58 2.8 8.8 5.1 16.2 5.1 16.5s1 1.8 2.3 3.3c5.5 6.5 11.3 37.9 11.4 61.4v8.2l-5.7.6c-5.4.6-8.8 1-26.3 3.5-17.6 2.5-38.4 6.1-46 8-1.9.5-6.2 1.4-9.5 2.1-7.5 1.5-34.7 8.3-44 11-10.8 3.1-37.5 12.4-43.5 15-1.4.7-3.6 1.6-5 2.2-1.4.5-3.4 1.4-4.5 2s-4.3 2.3-7.2 3.8-7.2 4.1-9.6 5.8c-4.2 2.9-4.4 3.2-4 7.1.3 2.2 0 4.7-.6 5.4s-.8 1.5-.5 1.9c.8.7.4 80.8-.4 96.2-.4 7-.2 16.2.4 22 .6 5.5 1.2 9.6 1.3 9.1 0-.5.9-.3 1.9.5.9.9 3.3 1.6 5.2 1.8s4.4.8 5.5 1.4c1.1.5 3.8 1.1 6 1.1 2.6.1 3.9.5 3.7 1.3-.1.9 1.1 1.3 3.8 1.3 2.1 0 4.9.4 6.2.9s4.1 1.4 6.3 1.9c2.2.6 6 1.6 8.5 2.3 2.5.6 5.6 1.4 7 1.6s3.9.6 5.5.8c1.7.3 4.8.9 7 1.5 2.2.5 9 1.9 15 3 6.1 1.2 12.4 2.5 14 3 1.7.5 5.7 1.4 9 2.1 7.9 1.5 19 4.1 34.9 7.9 7.1 1.7 13.6 3 14.5 2.8.9-.1 2.5.3 3.7.9 1.1.7 3.1 1.4 4.5 1.6 1.3.2 3.1.7 3.9 1s3.1.8 5 1.1c3.6.5 8.5 1.5 17.5 3.7 2.8.6 5.9 1.3 7 1.4s2.7.5 3.5.8c1.7.7 6.1 1.8 16.5 4.1 3.9.9 10.8 2.5 15.5 3.6 4.7 1 9.9 2.1 11.5 2.4 1.7.2 5 1 7.5 1.6 2.5.7 9.9 2.5 16.5 4 6.6 1.6 15.8 3.8 20.5 4.9 8.2 2.1 15 3.5 27.5 6.1 3.3.7 8.9 2 12.5 3s10.8 2.7 16 3.9c5.2 1.1 12.2 2.7 15.5 3.4l6 1.4-3.7 1.7c-2.1.9-5.7 1.6-8.2 1.6s-4.8.5-5.1 1c-.3.6-1.9 1-3.6 1-1.6 0-2.9.4-2.9 1 0 .5-.6 1-1.4 1-1.9 0-24.4 10.8-25.1 12.1-.4.5-1 .7-1.4.5-.9-.6-15.5 10.9-19.1 15-1.4 1.6-5 5.8-8 9.4s-5.8 6.6-6.2 6.8c-.5.2-.8 1-.8 1.8s-.4 1.4-1 1.4c-.5 0-1 .9-1 1.9 0 1.1-.6 2.1-1.2 2.4-2.4.8-.1 1.8 10.3 4.3 5.7 1.4 11.2 2.9 12.1 3.4 1 .6 2.7 1 3.8 1 2.1 0 22.4 5.4 26.5 7 3.8 1.5 17.3 5 19.4 5 1.1 0 2.3.5 2.6 1 .3.6 1.9 1 3.6 1 1.6 0 2.9.4 2.9 1 0 .5 1.2 1 2.6 1s8 1.8 14.7 3.9c22.9 7.4 32.2 10.1 34.4 10.1 1.2 0 2.5.4 2.8 1 .4.7 63.9 1 187.3 1 109.6 0 186.2-.4 185.7-.9-.6-.5-9.8-3-20.5-5.6s-22.9-5.6-27-6.7-9.3-2.3-11.5-2.8-10.1-2.4-17.5-4.3c-30.7-7.9-43.4-10.6-44.6-9.6-.8.7-1.4.7-1.9-.1-.3-.5-.3-1.1.2-1.1 1.4-.2-7-2.1-10.2-2.3-1.6-.1-3.6-.5-4.3-1-.7-.4-6.8-2.1-13.5-3.7-8.8-2.1-12.4-2.5-13.4-1.7-1.2.9-1.7.5-1.5-1.4.1-.3-6-2-13.6-3.8-7.5-1.7-15.2-3.6-16.9-4.1-1.8-.6-3.8-.7-4.3-.4-.6.4-1.7.2-2.5-.5-.9-.8-1.5-.8-2 0-.3.6-1.1.8-1.6.4-.5-.3-.7-.9-.5-1.3.3-.4-3-1.5-7.2-2.5s-11.4-2.6-15.9-3.7-8.6-1.9-9-1.8-1.5 0-2.3-.4c-2.3-.8-7-1.8-11.7-2.4-2.4-.3-4.3-.9-4.3-1.4s-1.6-.9-3.5-.9-4.3-.4-5.3-.9c-2.4-1.3-43.3-11.1-53-12.8-1.8-.3-3.5-.9-3.8-1.4s-2.4-.9-4.7-.9c-4.1 0-15.2-2.9-21.3-5.6-1.7-.8-3.8-2.4-4.7-3.6-.8-1.3-2.8-3.7-4.4-5.4-2.8-3-7.2-9.8-10.2-15.6-.7-1.5-1.8-2.6-2.4-2.5s-1.2-.7-1.2-1.8c-.2-3.4-1.7-8.9-2.8-10.3-1.3-1.6-1.5-3.6-2.1-17.2-.2-5.8-.8-11.3-1.1-12.3-.4-.9-.3-2.3.2-3 .6-.6 1.6-4.6 2.2-8.7 1.3-7.7 2.2-10.1 7.3-20.5 3.6-7.4 5-9.8 6.8-12 3-3.6 2.1-4.2-10.9-6.8-6.9-1.5-13.7-2.8-15.1-3.1-1.4-.2-5.6-1.2-9.5-2-3.8-.9-11.7-2.5-17.5-3.6-5.8-1-20.2-3.8-32-6.1s-22.6-4.3-24-4.4c-3.9-.5-18.7-3.3-28.2-5.4-5.2-1.1-8.6-1.5-8.5-.9s-1.8 1.1-4.3 1.3c-2.5.1-6.1.9-8 1.7s-3.7 1.5-4 1.5-2.3.8-4.5 1.7c-2.2 1-4 1.7-4 1.6s-1.3.4-3 1c-1.6.7-4.4 1.6-6.2 2-3.2.8-3.2.7-2.6-2.4.9-4.8 5.1-12.2 8.6-15.3 1.8-1.6 3.3-3.3 3.4-3.8.2-1.2-4.8-.7-6.2.6-.5.5-1.6.9-2.5.9-3.6 0-11.9 11.7-10.8 15.2.3.7-.6 2.1-1.8 3.1-2.9 2.2-10.8 2.2-9.9-.1.3-.7.8-3.2 1.2-5.5.8-5 2.7-10 4.7-12 .8-.7 1.6-2.3 1.8-3.3.2-1.5-.2-1.8-2.1-1.6-1.4.1-3.4 1-4.4 2-2.6 2.3-5.7 8.6-5.7 11.4 0 3-.9 4.1-4.2 5.5-2.5 1.1-2.9 1-3.9-.9-1.4-2.6-1.3-15.6.1-17.4.7-.8.8-1.4.1-1.8-2.2-1.4 3.5-10.6 6.6-10.6.7 0 1.3-.3 1.3-.8 0-.4 1-1.2 2.3-1.8 21.5-10.8 27-13.4 28.6-13.4 1.1 0 2.1-.4 2.3-.8.7-1.9 22.7-9.6 37.8-13.4 5.2-1.2 9.7-2.6 10-3 .8-1 18.4-6.3 29-8.7 11.3-2.6 16.7-4 19.8-5.2 1.3-.5 4.4-.9 7-1 4.7 0 10.2-2.4 11-4.7.3-1-15.4-9.2-17.7-9.2-.5 0-1.1-.3-1.3-.8-.1-.4-3.3-2.2-7.1-4-6.6-3.2-6.7-3.4-6.3-6.7s.4-3.4-2.7-2.9c-1.8.3-3.9.8-4.7 1.1-1.6.5-10 2-16.5 2.8s-16.7 2.6-20.5 3.5c-1.9.5-5.7 1.4-8.5 2-2.7.6-6.6 1.5-8.5 2-1.9.4-7.8 1.5-13 2.4s-11.5 2-14 2.6c-4.6 1-11.3 2.5-18.5 3.9-7.8 1.5-25 6.4-26 7.2-.5.5-2.1.9-3.7.9-1.5 0-6.7 2.1-11.7 4.8-16.7 8.8-21.9 15.2-26.5 32.9-1.6 5.8-1.6 6.4 0 8.8 2.1 3.2 1.2 4.2-2.1 2.7-1.4-.7-4.2-1.2-6.2-1.2s-5-.4-6.7-.9c-1.7-.6-8-1.9-14.1-3.1-6-1.2-12.6-2.5-14.5-3-4.2-1-41.3-8.7-49-10.1-3-.6-7.3-1.5-9.5-2-4.6-1-30.4-5.9-31.3-5.9-2.3 0 13.2-12.7 22.8-18.6 6.9-4.2 25.8-13.6 30-14.9 1.4-.4 4.5-1.7 7-2.8s5.9-2.3 7.5-2.7c1.7-.5 7.5-2.2 13-4 10-3.3 36.5-10.5 44-12.1 8.8-1.8 22.4-4.8 29-6.3 9.6-2.1 32-5.2 49.5-6.7 11.2-.9 18.2-1 31-.1 21.3 1.5 47 4 54 5.2 7.8 1.3 26.1 4 27.7 4 .7 0 1.3-.4 1.3-1 0-1.5 15.5-26.7 20.1-32.6 4.4-5.8 4.6-6.6 2.1-10.2-1.7-2.6-5.6-10.4-7.2-14.7-.4-1.1-1.5-3.6-2.3-5.5-1.4-3.2-3.8-12-3.3-12 .1 0 4.5.9 9.6 2 10 2.1 16.5 2.6 17.4 1.1 1.5-2.4-6.2-4.7-23.1-6.7l-5.3-.7v-7.8c0-4.4.4-7.9.9-7.9.9 0 6.3 1.7 9.6 2.9 1.1.5 4.8 1.5 8.2 2.3 5 1.3 6.6 1.3 7.9.3 2.6-1.9.9-3.3-6.9-5.6-4-1.1-7.9-2.3-8.7-2.6-.8-.4-3.5-1.4-6-2.3-4.9-1.8-4.7-1.2-3.6-11 .4-4 2.2-10.7 4.3-16.5 2-5.3 3.5-12.9 3.7-18.5.1-2.5.5-5.1.9-5.7.8-1.2 4.7-15.3 5.2-18.3.1-.8.6-2.4 1-3.5 4.9-12.8 8-20.2 8.7-21.2.6-.7.7-1.7.4-2.2-.4-.5-.2-1.2.3-1.5s2.3-3.5 4-7.1c1.6-3.6 3.7-6.8 4.6-7.1 1-.4 2.8.4 4.6 2.2 3.8 3.5 13.7 17.7 15.6 22.2.7 1.8 2.8 5.2 4.6 7.5 1.7 2.3 4.9 7.2 7 10.7 6.3 10.8 5.4 10.2 12.8 8.3 9-2.3 30.9-2.3 41 0 9.3 2 9.7 2.2 18.2 5.6 1.5.6 3.9 1.1 5.2 1.1 1.4 0 2.5.4 2.5 1 0 .5.6 1 1.4 1 1.7 0 19.5 9.1 23.7 12 1.5 1.1 2.9 2 3.2 2 .6 0 10.9 6.2 11.7 7 4.4 4.4 11.1 5.9 9.4 2.1-.4-.9-1.1-11.3-1.5-23.1-.5-11.8-1.3-24.4-1.8-28-2.1-13.2-2.4-14.5-3-15.5-.6-.8-1.7-4-3.7-11.3-.2-.6-.9-1.2-1.7-1.2-1 0-17.9 16.4-33.5 32.6-1.3 1.3-2.7 2.4-3.2 2.4-.6 0-1 .6-1 1.3 0 1.4-4.4 5.7-5.8 5.7-1.6 0-2.3-46.2-.9-62.5 1.3-15.3 2.8-28.8 3.7-33 .5-2.2 1.4-7.4 2-11.5.7-4.1 1.9-10.2 2.7-13.5.9-3.3 1.8-7.7 2-9.8.3-2 .9-4 1.4-4.3s.9-1.4.9-2.5c0-1.9.4-2.8 2.8-7.6.7-1.3 1.2-2.9 1.2-3.6s.8-3.1 1.9-5.3c1-2.1 2.5-5.7 3.2-7.9.8-2.2 2.6-6.2 4.1-8.8 1.6-2.6 2.8-5 2.8-5.2 0-1.4 12.7-18.5 18.2-24.6 1.7-1.8 3.6-1.9 58.5-1.5 31.3.2 70.3.7 86.8 1.1l30 .7 12.1-11.9c11.7-11.5 21.3-23.6 19.5-24.7-1.2-.8-14.7 10.2-27.4 22.4-9 8.6-11 10-12.2 9-.8-.7-1.5-1.8-1.5-2.5 0-1.7 15.5-16.3 34.7-32.7 11.6-10 15.7-14.2 17.3-17.6 2.3-4.8 2-7.9-.5-6.5-3.1 1.8-29.5 25.4-42.5 38-13.4 13-13.7 13.2-15.4 11.2-.9-1.1-1.6-2.4-1.4-2.7.7-1.7 28.2-27.5 36.8-34.7 26.8-22.4 32.6-28.9 30.6-34.1-.7-1.8-.8-1.8-2.4.1-1 1.1-5.5 5.4-10.2 9.5-8.9 7.8-14.6 13.1-40.4 37.5-8.7 8.2-16.2 15.2-16.7 15.3-1.5.6-3.9-1.8-3.9-3.7 0-2 36-35.4 63.8-59 11.5-9.8 12.2-10.7 12.2-14.1 0-5.1-.8-5.4-4.4-1.7-5.2 5.3-27.7 26.1-30.6 28.2-3.4 2.6-21.4 19.1-34.7 31.9l-10.3 10-2.4-2.3-2.4-2.3 5.6-5.1c3.2-2.8 7.1-6.5 8.7-8.2 1.7-1.6 11.3-10.4 21.5-19.5 48.2-42.8 51.9-46.6 48.8-49.6-1.4-1.4-6.6 2.9-33.8 28.6-8 7.5-19 17.6-24.5 22.5-5.5 4.8-14.1 12.8-19.1 17.8l-9.1 8.9-2.7-1.7c-1.4-1-2.6-2.1-2.6-2.5s7.7-7.7 17.2-16.2c18.5-16.5 20.9-18.6 42.8-38.9 8-7.4 18.6-17.1 23.5-21.6l9-8.1-.2-8.9c-.2-8.7-2.3-20.1-4.8-25.8-.7-1.7-2.7-6.8-4.5-11.5-8.9-22.9-13.5-30.3-28-44.5l-8.2-8L846.9 99c-6.6 6.9-15.2 16.1-19.2 20.6-4 4.4-14.7 16.4-23.9 26.6-15 16.5-21.5 24.2-32.6 38.1-4 5.1-17.2 24.6-17.2 25.5 0 .4-.7 1.5-1.5 2.6-1.4 1.8-1.8 1.6-8.9-3.8-17.2-13.2-30.9-32.1-35.9-49.6-6.5-22.6-8.4-71.4-3.6-94 2-9.4 1.8-11.5-1.1-11.6-1.4-.1-3.6 0-5 .2m193.9 136c-5.9 6.1-43.9 40.7-58.5 53.4-3.5 3-10.6 9.5-15.8 14.3l-9.5 8.8-3-2.2c-1.7-1.3-3.1-2.5-3.1-2.7s1.2-1.4 2.7-2.5c1.5-1.2 10.6-9.3 20.3-18.1 51.8-47 56.1-50.6 62.9-53.7 3.6-1.7 7.3-3.4 8.1-3.9 3.4-1.8 2 .4-4.1 6.6m-42 22.8c-.8.7-5.9 5.5-11.4 10.7s-13.6 12.5-18 16.4c-4.3 3.8-10.6 9.5-13.9 12.5-7.1 6.6-6.4 4.8 2.4-5.4 8.9-10.5 26.5-26.4 37-33.4 4.4-3 6.8-3.5 3.9-.8m-523 533.8c-3.6 3.5-8.3 9.2-10.4 12.8-2.5 4.1-4.1 5.9-4.3 4.8-.9-4.4 8.1-17.1 15.1-21.2 6.7-3.8 6.6-3-.4 3.6m12.3 12.4c-1.2 2.3-2.8 6.3-3.6 8.6-.7 2.2-3.6 1.3-3.6-1.2 0-3.8 5.7-11.6 7.3-10 .5.4.4 1.6-.1 2.6m-23.2 13c0 1.6-.9 1.7-2.9.5-.8-.5-1.1-1.6-.7-2.6.5-1.4.9-1.5 2.1-.5.8.7 1.5 1.9 1.5 2.6m699.5-682.4c-26.8 12.3-52.4 34.2-69.4 59.7-8.8 13.1-16.4 27.4-15.9 29.9.2 1 1.2 1.8 2.3 1.8 2.7.2 18.8 5 21.4 6.4 1.2.6 2.6.8 3.1.5s1.1-.1 1.4.4c.9 1.4 11.4 7.1 13.1 7.1.8 0 1.5.4 1.5.9s2.4 2.7 5.4 4.8c5.3 3.7 17.6 14.9 17.6 16 0 .3 1.4 2.2 3 4.3 1.7 2.1 3 4.1 3 4.4 0 .9 5.3 9 6.4 9.7.5.4.6 1.2.2 1.7-.4.6-.2 1.9.3 2.9.9 1.7 3.6 9.7 4.7 13.8 3.9 15.4 4.8 38.5 2 52.3-1 4.6-1.9 9.7-2 11.3-.1 1.5-.5 3.1-.8 3.5-.4.3-.4 1.2-.1 2 .3 1 2.2 1.4 5.9 1.4h5.4V205c0-65.5-.3-119-.7-119-.5 0-3.9 1.5-7.8 3.2m-863.9 33.7c-1.5 2.8-1.6 11.3-1.6 79.8 0 42.1.1 76.8.3 76.9.1.1 10 .4 21.9.6l21.8.3v-79.2c0-74.6-.1-79.2-1.7-79.7-1-.2-10.2-.8-20.5-1.1l-18.6-.7zm-95 10.2c-.9 3-2.6 73.2-2.6 108.4 0 27.5.3 37.4 1.2 38.3 1.4 1.4 45.4 1.7 47.6.4.9-.6 1.1-3.1.8-8.8-.3-4.3-.8-32.9-1.2-63.4-.3-30.5-.9-59.7-1.3-64.8l-.6-9.3-7-.3c-3.8-.2-13.6-.7-21.7-1.1-12.2-.7-14.8-.5-15.2.6m182 15.6c-1.2 3-1.8 41.5-.6 40.8.6-.3 1 .3 1 1.5s-.4 1.8-1 1.5c-.6-.4-.9 11-.9 31.9 0 19.2.4 32.8 1 33.1.5.4.9 1.1.9 1.6 0 .6-.4.7-1 .4-.5-.3-1 .1-1 1s.5 1.3 1 1c.6-.3 1 .1 1 1s-.4 1.3-1 1c-.6-.4-1 .8-1 2.9 0 2 .3 3.5.8 3.3.4-.1.7.2.7.8 0 .5-.3.9-.7.8-.5-.2-.8 1.5-.8 3.7 0 2.7.4 3.9 1.3 3.7.6-.1 1.1.4 1 1-.2 1 4.2 1.3 19.8 1.3 12.1 0 19.8-.4 19.4-.9-.3-.5-.1-1.2.5-1.6.8-.5.8-99.3 0-124.8l-.2-5.8-18.9.4c-10.4.2-18.9 0-18.9-.5 0-1.5-1.8-.8-2.4.9m-7.5 166c.3 2.1-.3 2.4-1.8 1.2-1.1-1-1.4-1-.9-.2.4.8.1 1.3-.8 1.3-1 0-1.6.9-1.6 2.4 0 1.3-.6 2.9-1.4 3.6-.8.6-1.6 2.1-1.8 3.3s-.9 2.1-1.6 1.9c-1.1-.2-1.7 1.1-1.3 3.2.1.4-.4 1.5-1.1 2.3-.7.9-1.3 2.1-1.3 2.7-.2 2.2-2.7 7.1-4.7 9.3-1.2 1.3-1.8 2.3-1.5 2.3.4 0-.5 1.8-2 4.1-1.8 2.7-2.6 5.2-2.5 7.4.2 1.9-.2 3.6-.7 4-.6.3-.8 1.2-.5 1.9.3.8.1 1.7-.5 2-1.3.9-1.3 17 .1 20.3.6 1.6 1 3.6.9 4.6-.1.9.7 3.2 1.8 5.1 1.1 1.8 2.2 4.1 2.4 5.2.4 2.6 2.4 6 3.4 5.6.4-.1.8.1.8.5.1 2 6.2 9 8.9 10.3 1.7.8 3 1.9 3 2.5-.2 1.3 3.8 4.1 5.1 3.7.5-.2 1.4.3 2 1 .5.7 1.9 1.3 3 1.3s1.9.5 1.8 1.2c-.2.7.4 1 1.2.7.8-.4 1.7.1 2.1 1 .3.9 1.5 1.6 2.6 1.6 1.2 0 1.7.4 1.2 1.2s0 .9 1.7.5c1.3-.4 3.2-.7 4.2-.7s1.6-.4 1.3-.8c-.3-.5 5.2-.7 12.3-.4l12.8.4.7-3.1c.3-1.7.9-4.5 1.2-6.1.4-1.7.2-3.6-.4-4.3-.5-.6-.8-2.6-.6-4.2.7-5.2 1.1-17.4.7-17.9-.4-.4-.4-54.2 0-71.3.1-7-.1-9.4-1.1-9.8-1.8-.7-2.2-.6-2 .2.2.5-.1.8-.7.8-.5 0-.9-.3-.7-.8.3-1-31.6-.9-32.2.2-.9 1.3-5.9 1-8.1-.5s-3.6-1.8-3.4-.7"/><path d="M45 322.3c-18.9 10.1-26.2 15.2-36.3 25.6l-8.7 9 .2 125.8c.2 69.2.7 124.9 1.1 123.8 8.9-21.3 25.1-39.2 43-47.3 6.3-2.8 12-4.4 21.4-5.8 2.4-.4 4.1-.9 3.9-1.3-.2-.3 2.4-.6 5.7-.6 3.4 0 7.1-.4 8.2-.9s4-.8 6.3-.6c6 .2 21.3-1.1 20.8-1.9-.7-1 106.4-.3 124.4.9 32.8 2.1 30.3 2.1 29 .5-.7-.8-1.8-1.5-2.5-1.5-2.2 0-23.7-11.6-32.5-17.5-19.1-13-39.4-33.5-47.6-48.1-3.1-5.6-14.1-18.4-15.8-18.4-.3 0-1.9-1.2-3.5-2.8-3.7-3.5-17-11.4-18.1-10.7-.4.3-1-.2-1.4-1-.3-.8-1.4-1.5-2.5-1.5s-2.1-.4-2.3-1c-.1-.5-1.2-1.1-2.3-1.3s-2.7-.7-3.5-1c-11.2-4.8-30.1-8.2-32.4-6-.8.8-8.7 1.4-16.6 1.3-7.6-.2-15.1 1-14.4 2.2.5.8-.6.9-3.7.3-2.4-.4-6.4-.7-8.9-.6l-4.6.2.4-22.1c.3-12.3.1-22-.4-21.8s-.9-.2-.9-.7c0-.6.3-.9.8-.8.4.2.7-.9.7-2.3s-.4-2.3-.8-2c-.5.3-.9-2.3-1-5.7 0-3.4-.1-7.1-.2-8.2s.3-4.4.9-7.2c.5-2.9 1.1-15 1.3-26.8.3-18.3.1-21.7-1.2-22.5-2-1.3-3-1.2-6 .3M953 368c-6.7.8-23.6 5.2-27 7-1.1.6-1.9 1.6-1.7 2.2.1.6-.7 1.1-1.8 1.3-3.3.3-6.9 2.6-17 11-5.7 4.7-10.5 9.6-11.6 11.8-1.1 2.1-2.4 3.5-2.9 3.2-1-.6-5.2 4.4-4.7 5.8.4 1.4 14.8 5.8 18.2 5.5 1.7-.1 2.9.2 2.8.8-.2 1.3 9.9 5.7 11.9 5.2.7-.2 1.3 0 1.3.4s2 1.8 4.5 3.1 5.7 3 7 3.8c3.4 1.9 12.9 9.4 16.1 12.5 1.4 1.4 3.2 2.4 4 2.2s1.3.3 1.1 1c-.1.7 2.4 4.9 5.5 9.4 3.2 4.5 7.6 11.4 9.8 15.4s4.5 7.4 5 7.6c.6.2.9.7.7 1.2-.1.4.6 3.5 1.8 6.7 1.1 3.3 2 6.8 2 7.8s.7 3.5 1.5 5.4c.8 2 1.5 3.8 1.5 3.9 0 .2-1.3.4-2.9.5-2.6.2-6.7 1.6-21.5 7.4-2.7 1-5.6 1.9-6.6 1.9-.9 0-3.1.7-4.7 1.5l-3 1.5-.1 15.8c0 8.6-.6 17.9-1.2 20.6s-.9 5-.8 5.2c.8.7 16-1.6 23.3-3.6 4.4-1.2 9.4-2.5 11.1-2.9 1.8-.5 4.5-1.5 6.2-2.4l3.1-1.5-.3 9.2c-.2 5-.7 13-1.1 17.8l-.8 8.8h-3.5c-4.2 0-25-3.9-27.4-5.1-1-.5-4.4-.9-7.7-.9-5.9 0-5.9 0-6.6 3.2-.9 4.3-4.5 15.8-5.6 18-.5 1-.9 2.6-.9 3.6s-.4 2.2-.9 2.8c-1.2 1.3-2.2 7.2-1.2 7.8.4.3 4.3 1.5 8.7 2.6 4.3 1.2 10.4 2.8 13.4 3.7 6.2 1.7 12.2 3.2 16.3 4 3.3.7 4.1 1.7 2.8 4-.5 1-3.2 6.5-6 12.3s-5.9 11.5-6.8 12.7l-1.8 2.1-9.5-5.5c-5.2-3-12.6-7.9-16.5-10.8-7.6-5.9-8-5.9-11.1.5-1 2.2-2.2 4-2.6 4-.5 0-.8.8-.8 1.9 0 1-.7 2.4-1.5 3.1-.9.7-1.3 1.5-1 1.8s-.2 1.4-1.2 2.4c-.9 1-1.3 1.8-.9 1.8s-.2 1.2-1.3 2.6c-1.2 1.5-2.1 3.2-2.1 3.8 0 .7-1 3.2-2.2 5.7-1.2 2.4-2.1 4.8-2 5.2.2.5-.3.7-1 .5-.7-.3-2.3-2.4-3.5-4.8-1.3-2.4-3-5.1-3.8-6s-1.5-2.2-1.5-2.8c0-1.6-4-2.6-5.3-1.3-.6.6-2.8 1.1-4.8 1.1-2.1 0-4 .4-4.3.8-.3.5-3.1 1.4-6.3 2.1-3.2.8-7.7 2.3-10 3.5-6 3-29.6 26.6-33.8 33.7-6.1 10.4-7.3 19.1-2.8 19.7 2 .3 9.1-4 16.3-9.7 1.4-1.1 3-2.1 3.7-2.1.6 0 1.3-.4 1.5-.8 1-2.6 23-13.5 30.8-15.3 11.3-2.6 19-3.9 22.5-3.9 2.3 0 4.6-.5 5.2-1.1 2-2 4-.2 5.8 5.3 1 2.9 2.1 5.7 2.6 6.3.5.5.9 2.1.9 3.6s.5 3.1 1 3.4c.6.3 1 1.5 1 2.6s.5 2.9 1.1 4.1c.6 1.1 1.2 4.4 1.4 7.3s.8 6.2 1.4 7.2c1 2 6.8 3.5 24.6 6.3 3.9.7 12.6 2.3 19.5 3.7s14.8 2.9 17.5 3.3c7.9 1.1 23.3 4 32.2 6.1 4.5 1 8.7 1.9 9.3 1.9.7 0 1-57.5 1-183.3V377.5l-9.3-2.8c-5-1.5-11.4-3.2-14.2-3.8-2.7-.5-6.8-1.4-9-1.9-5.6-1.2-30.7-1.9-38.5-1"/><path d="M813.5 439.9c-15.2 3.3-26.7 8.4-35.7 15.7-5.9 4.9-14.5 12.3-18.6 16.1-1.9 1.8-3.9 3.3-4.4 3.3-1.1 0-6.8 5.8-6.8 6.9 0 .3-2 2.8-4.5 5.5s-4.5 5.5-4.5 6.2-.6 1.7-1.2 2.1c-2.5 1.6-8.7 13.4-11.7 22.3-1.2 3.6-2.6 7.3-3.1 8.2-.6 1-1 2.9-1 4.2 0 1.4-.4 2.8-1 3.1-.5.3-1 2.1-1 3.9 0 1.7-.4 3.6-.9 4.1-1.5 1.8-3.3 10.3-2.6 12.5.4 1.3.3 2.5-.4 3-.7.4-1.4 4.9-1.8 10.7-.6 10.3.2 19.7 1.7 18.8.4-.3.6.4.3 1.5-.7 2.7.7 13.1 1.7 12.5.4-.3 1.3.2 2 1 1.3 1.6 7 2.1 7 .6 0-1.7 3.9-1.9 5.4-.2 1.2 1.3 1.3 2.5.6 5.6-.5 2.2-1 6-1 8.4s-.4 6-1 8c-.5 2-2.1 8.1-3.4 13.6-2.6 10.3-5.8 21.8-6.9 24.5-.3.8-1.1 3.3-1.8 5.5-.6 2.2-2.3 6.2-3.7 9-2 4.1-5 13.7-5.2 16.7 0 .4.9 1.2 2.1 1.8 4.9 2.7 12-3.8 19.6-17.9 2.6-4.7 5-8.8 5.5-8.9.4-.2.8-.9.8-1.6 0-2 7.7-15.4 12.8-22.2 1.7-2.5 3.2-4.6 3.2-4.8s1.7-3.3 3.8-6.7c2.2-3.5 4.5-8.2 5.2-10.4s2.2-5.6 3.3-7.5c1.3-2.4 1.8-4.6 1.4-7.3-.4-3-.2-3.9 1.1-4.3 1-.3 2.4-.9 3.2-1.3.8-.5 2.6-.4 4 .1 1.3.5 3.6.6 5.2.3 1.9-.5 2.8-.3 2.8.6 0 .8 1.2 1 4 .6 2.2-.3 4.3-.1 4.6.4s1.2.9 2 .9 1.2-.5.9-1c-.3-.6-.1-1 .4-1 .6 0 1.1.4 1.1 1 0 .5.8 1 1.8 1.1.9 0 3.5.6 5.7 1.3l4 1.2-9.5 10c-10.8 11.4-13 14-13 15.4 0 .6-.4 1-.8 1-.5 0-1.7 1.7-2.9 3.7-1.1 2.1-3.1 5.8-4.5 8.3-8.1 14.3-11.7 23.6-15.9 40.4-6.6 26-7.2 33.5-3.6 45.7 2.6 9 5.6 16.7 8.6 22.7 3.2 6.4 4.5 6.2-22.9 3.3-17.2-1.8-45.8-2.5-54.5-1.1-16 2.4-32 8.1-42.5 15.1-6.9 4.6-9 6.9-8.7 9.7.1 2 .7 2.2 5.4 2.2 2.9 0 6.1.4 7.1.9.9.5 8.2 1.7 16.2 2.7 23.2 2.7 27.2 3.2 33.5 4.4 3.3.6 7.7 1.4 9.8 1.7 2 .3 4 .9 4.3 1.4.7 1.2 7.4 1.1 7.4-.1 0-.6.8-1 1.8-1s2.2-.4 2.8-.8c.9-.9 9.7-3.6 21.9-6.8 3.9-1 11.1-2.1 16-2.5 43.2-3.6 46.7-4.2 45.2-8.3-.3-.8-4.9-4.9-10.2-9.2-11.7-9.2-21.2-20.9-25.7-31.4-5.5-12.6-4.2-22.8 5.1-42 6.9-14.3 9.6-18.5 20-30.7 4.8-5.6 19.3-17.6 26.1-21.4 1.4-.8 2.7-1.6 3-1.9 1.5-1.5 10.1-7 14-9 2.5-1.3 5.7-3.3 7.2-4.6 2.3-1.8 3.4-2.1 5.7-1.4 1.6.4 3.2.6 3.5.4s.4-.1.2.2c-.3.4 1.8 2.2 4.7 4.2 2.8 1.9 6 4.4 7.1 5.3 1 1 2.2 1.6 2.6 1.4.5-.3 1.1.2 1.4 1.1.4.9.9 1.5 1.1 1.2.3-.3-.1-1.8-.9-3.4-2.5-5-3.9-8.9-3.7-10.1.1-.6-.3-1.4-.9-1.8-.5-.3-1-1.4-1-2.3s-.6-2.8-1.3-4.3c-3.2-5.9-5-34.6-2.8-41.9.6-1.9 1.1-4.9 1.1-6.7 0-1.7.4-3.4.9-3.7.4-.3 1.2-2 1.6-3.8s.8-3.5.9-3.8 1.6-2.6 3.4-5.2 3.1-5.3 3-6c-.2-.7.3-1.2.9-1.1.7.2 1.2 0 1-.5-.1-.4.1-.7.5-.7s2.6-1.8 5-4.1c2.4-2.2 5.9-5.2 7.8-6.4 1.9-1.3 3.7-2.7 4-3s3.7-2 7.5-3.9c3.9-1.8 7.8-3.7 8.7-4.2 1-.5 2.8-.9 4-.9s3.5-.4 5.2-.9c3.1-1 11-2.6 17.7-3.6 2.2-.3 3.6-1.1 3.6-2 0-.8-.3-1.5-.6-1.5-.4 0-1.3-2.1-2-4.8-2.3-8.4-8-21.8-10.8-25.2-.6-.8-3.4-4.4-6.1-8-5.1-6.9-16.5-17.1-21.3-19.2-1.6-.7-2.9-1.6-2.9-1.9s-1.8-1.2-4-1.9-4-1.7-4-2.2c0-.4-.8-.8-1.7-.8-1 0-5.3-1.4-9.7-3.1-4.3-1.7-8.5-2.8-9.3-2.5s-1.1.2-.8-.4c.3-.5-1.1-1.2-3.2-1.5s-6.2-1-9.2-1.5c-8.8-1.6-33.5-1-42.6.9M521.2 565.3c-1.2 1.4-1.6 4.4-1.4 9.5.3 4.8 5.3 9.5 12.4 11.8 5.1 1.5 6.2 1.6 10 .4 2.4-.8 6-3.1 8.1-5.3 3.2-3.3 3.8-4.5 3.5-7.5-.4-4.6-1.6-4.7-4.1-.2-3.1 5.8-4.2 6.5-10.6 6.5-3.8 0-6.3-.5-7.2-1.5-2.1-2.2-4-6.2-4.3-9.2-.5-4.8-4.1-7.4-6.4-4.5m81.7 17.8c-2.7 2.7-2.1 7.6 1.6 12.5 8.7 11.4 29.5 6.9 29.5-6.4 0-4.4-1.6-6.5-2.6-3.5-1.4 4.2-2.7 5.9-5.5 7.2-6.9 3.1-11.6 1.1-15-6.2-2.7-5.9-4.8-6.8-8-3.6"/><path d="M686.7 583.7c-.4.3-.7 4.9-.7 10 0 5.2-.5 10.3-1.1 11.4s-1 5.8-1 10.4c0 5.8-.8 11.7-2.5 18.5-2.1 8.9-3.3 12.5-6.4 20.5-3.3 8.8-3.7 12.6-1.5 14.5 3.7 3.1 12.6-4.7 18.2-16 6.5-13 10.1-26.3 10.4-38.3l.2-7.9-4.1-3.6c-4.1-3.7-8.2-10-8.2-12.6 0-.8-.7-1.7-1.6-2-1.1-.4-1.5-1.4-1.2-3.1.6-2.7.5-2.9-.5-1.8M553.5 594c.8.9 1.3 1.9 1 2.2-1.1 1.1 7 17.8 8.7 17.8.4 0 .8.9.8 2s-.4 2-1 2c-.5 0-1 .7-1 1.6 0 3.1-2.7 4.4-9.1 4.4-7.3 0-11.9-2.5-14.5-7.8-.8-1.8-2.1-3.1-2.7-2.9-1.6.6-1.1 5.4.8 8.4 2.3 3.5 10.4 8.3 13.9 8.3 4.3 0 10.8-1.9 12.9-3.8 1.6-1.4 2-1.3 4.5 1 1.5 1.4 3.7 3.1 4.9 3.7 3.1 1.6 14.8 1.4 16.2-.2 1.7-2.1.3-2.6-4.8-2-8 .9-16.1-4.4-16.1-10.6 0-3.7 3.2-10.1 5-10.1.5 0 1-.5 1-1 0-.6.8-2.3 1.7-3.7 2.3-3.5 2.7-6.8.9-8.2-2.1-1.7-5.2-.9-4.8 1.2.2 1.2-.4 1.7-2.3 1.7-3 0-3.3-1.5-.5-2.3 3.1-.8 2.4-2.5-1.4-3.2-4.6-.9-8.1-.3-8.1 1.4 0 2.3-2.2 2.4-2.8.2-.3-1.3-1.2-1.9-2.6-1.8-1.8.1-1.9.3-.6 1.7m64.9 17.4c-1.3 3.5 1.2 4.3 15.4 5 7.5.3 18.4 1 24.2 1.5 9.9.8 14.8.1 13.6-1.8-.3-.4-5.6-1.1-11.8-1.4-6.2-.4-12.9-1.1-14.8-1.6-1.9-.6-7.8-1.2-13-1.5-5.2-.2-10.3-.8-11.2-1.1-1.2-.5-2-.1-2.4.9m4.1 11.6c-1.8 2.9 3.5 4.8 28 10 3.3.7 8 1.9 10.5 2.7 6.6 2 10.5 2.1 10.5.3 0-1-1.4-1.7-4-2.1-5.3-.8-14.7-3.4-21.5-5.9-3-1.1-6.5-2-7.7-2-1.3 0-2.3-.4-2.3-.9 0-.4-1.9-1.1-4.2-1.4-2.4-.3-5.3-.9-6.4-1.2-1.3-.4-2.5-.2-2.9.5M0 648c0 1.8.4 2.9 1 2.5 1.3-.8 1.3-4.2 0-5-.6-.4-1 .7-1 2.5m0 82.5v78.3l3.7.4c2.6.3 4.1 0 4.6-.9.5-.7 1.3-1.1 1.8-.8.5.4.7 1 .4 1.4-.5.9 16.4 2.1 29.2 2.1 6.1 0 8.2-.3 8-1.3-.1-.6.4-1.1 1.2-.9 1.1.2 1.2-2.8.6-18.5-.4-10.3-.9-21.7-1.1-25.3s-.4-14.5-.4-24.2c0-9.8-.3-17.7-.7-17.5-1.2.3-1.5-.6-.8-2.5.4-1 .5-6.4.3-12-.3-11.5-.5-11.9-8.8-17.5-4.6-3.1-8.4-4.7-11-4.8-.8 0-1.5-.5-1.5-1.1 0-1.6-10.1-10.5-12.2-10.9-1.1-.1-1.7-.9-1.5-1.9.2-.9-.3-1.5-1-1.4-.7.2-1.2-.3-1-1.1.2-.7-.7-3.4-1.9-6-1.2-2.5-2.8-6.1-3.4-8-.7-1.9-2-3.6-2.9-3.7-1.5-.2-1.6 6.5-1.6 78.1m1014.5 40.2c-8.3 3.4-27.1 11.7-38.7 16.9-5.4 2.4-10.4 4.4-11.2 4.4-3.4 0-29.4 11.8-47.1 21.3-12.4 6.7-34.6 22-42.1 28.9-10.4 9.7-25.9 31.7-25.2 35.7.2 1.1 1.9 1.8 5.8 2.2 3 .3 9.1 1.3 13.5 2.2 4.4 1 10.7 2.2 14 2.8 12.3 2.2 16.9 3.2 37.5 8.5 3.6.9 8.5 2 11 2.4 2.5.5 7.4 1.5 11 2.3s10.3 2 15 2.7c4.7.6 9.9 1.5 11.5 2 1.7.4 5.7 1.3 9 2 8.8 1.9 36.5 9.3 41 11 1.4.5 3.1 1 3.6 1s.9-29 .9-74.5c0-84.8 1.1-76.3-9.5-71.8m-298 52.3c-.3.5-.3 1 0 1s-.1 1-.9 2.2c-1.9 2.7-2.1 7.9-.4 9.6s3.9 1.5 3.2-.3c-.4-.8-.9-1.3-1.4-1-.4.2-.4-1.5.1-3.8.4-2.3.5-4.4.3-4.6s.1-1 .7-1.7q.9-1.2 0-1.8c-.5-.4-1.2-.2-1.6.4m15.6 4.9c-2.9 4.1-2.4 6.4 1.4 6.5 2.9.1 3 0 2.7-3.9-.5-5.5-1.6-6.2-4.1-2.6M92.7 906.7c-.4.3-.7 7.5-.7 15.9 0 13.7-.2 15.3-1.7 15.7-1 .2-2.5-.2-3.3-.9-.9-.8-4.5-2-8-2.8-3.6-.8-9.4-2.2-13-3.1-3.9-.9-9-1.5-12.7-1.2-3.8.2-7.5-.2-9.4-1-2.2-.9-8.8-1.3-23.5-1.3H0v96h104c65.6 0 104-.4 104-1 0-2.3-20.2-26-26.6-31-8.6-6.9-20.4-15.5-22.4-16.3-.8-.4-3.3-1.7-5.5-3l-4-2.4.2-5.9c.2-3.3.7-10 1.3-14.9.5-5 1.1-12.9 1.4-17.6l.5-8.6-6.7-2.5c-3.7-1.4-9.4-3.1-12.7-3.8-3.3-.6-7-1.6-8.3-2.1s-3.6-.9-5.2-.9c-1.7 0-3-.5-3-1 0-.6-1.7-1-3.8-1s-4.2-.3-4.6-.7c-1-1.1-7.9-3.3-10.3-3.3-1.2 0-2.5-.5-2.8-1-.7-1.2-1.9-1.3-2.8-.3"/></g></svg>