<svg version="1.1" xmlns="http://www.w3.org/2000/svg" style="display: block;" viewBox="0 0 2048 2048" width="1024" height="1024">
<defs>
	<linearGradient id="Gradient1" gradientUnits="userSpaceOnUse" x1="1163.72" y1="1749.1" x2="300.325" y2="1604.71">
		<stop class="stop0" offset="0" stop-opacity="1" stop-color="rgb(0,138,178)"/>
		<stop class="stop1" offset="1" stop-opacity="1" stop-color="rgb(23,174,198)"/>
	</linearGradient>
	<linearGradient id="Gradient2" gradientUnits="userSpaceOnUse" x1="1006.68" y1="1745.51" x2="1670.04" y2="2267.91">
		<stop class="stop0" offset="0" stop-opacity="1" stop-color="rgb(11,82,180)"/>
		<stop class="stop1" offset="1" stop-opacity="1" stop-color="rgb(0,158,180)"/>
	</linearGradient>
	<linearGradient id="Gradient3" gradientUnits="userSpaceOnUse" x1="36.7171" y1="663.989" x2="195.796" y2="1143.74">
		<stop class="stop0" offset="0" stop-opacity="1" stop-color="rgb(0,136,170)"/>
		<stop class="stop1" offset="1" stop-opacity="1" stop-color="rgb(20,106,191)"/>
	</linearGradient>
</defs>
<path transform="translate(0,0)" fill="rgb(6,125,177)" d="M 0 0 L 198.077 0 L 554.877 0 L 837.235 0 L 1047.96 0 L 1456.3 0 L 1776.09 0 C 1772.26 61.5595 1755.36 124.288 1718.02 174.144 C 1734.9 187.786 1751.09 204.369 1763.3 222.302 C 1781.36 248.828 1804.87 311.014 1808.32 343.028 C 1808.77 347.174 1809.07 351.051 1808.65 355.219 C 1823.46 355.032 1846.22 351.946 1859.28 359.25 C 1859.55 357.177 1859.96 355.64 1860.75 353.677 C 1866.87 338.443 1875.84 324.12 1884.48 310.203 C 1924.62 245.522 1977.98 201.001 2048 171.581 L 2048 647.991 L 2048 756.551 L 2048 982.885 L 2048 1469.41 L 2048 1488.46 L 2048 1535.13 L 2048 1834.83 L 2048 2048 L 1855.46 2048 L 1108.25 2048 L 615.861 2048 L 417.329 2048 L 0 2048 L 0 1856.06 L 0 1617.99 L 0 1287.17 L 0 1218.52 L 0 714.586 L 0 291.851 L 0 0 z"/>
<path transform="translate(0,0)" fill="rgb(253,112,34)" d="M 0 0 L 198.077 0 L 554.877 0 L 837.235 0 L 1047.96 0 L 1456.3 0 L 1776.09 0 C 1772.26 61.5595 1755.36 124.288 1718.02 174.144 L 1717.52 174.271 C 1686.68 205.053 1657.73 237.158 1628.43 269.37 C 1581.75 320.673 1536.75 368.82 1502.72 429.874 C 1505.08 432.897 1503.77 439.28 1506.9 440.303 C 1500.26 454.439 1493.94 468.349 1489.86 483.492 C 1481.06 516.143 1474.92 586.838 1487.01 618.531 C 1488.36 622.054 1490.51 624.953 1492.8 627.916 L 1353.94 628.147 C 1335.69 648.481 1318.66 673.279 1306.78 697.792 C 1267.5 778.881 1251.95 902.347 1256.76 992.071 C 1257.52 1006.24 1260.44 1020.97 1257.43 1034.96 C 1257.04 1040.82 1256.38 1046.66 1255.79 1052.51 C 1247.96 1050.92 1240.19 1047.84 1232.35 1045.99 C 1189.93 1035.95 1168.49 1036.6 1125.48 1045.8 C 1116.3 1033.5 1108.57 1020 1100.57 1006.91 L 1099.53 1005.46 C 1083.57 983.021 1073.7 954.108 1050.34 937.443 C 1031.22 959.794 1009.48 1027.36 1002.81 1056.31 C 998.781 1073.84 996.951 1091.65 991.78 1108.97 C 990.761 1107.86 990.188 1106.96 989.67 1105.54 C 984.435 1091.18 976.534 1078.59 968.867 1065.46 C 944.485 1023.7 911.345 974.515 872.635 945.177 C 858.101 934.161 835.231 926.409 823.355 916.409 C 822.884 916.012 822.428 915.597 821.965 915.191 L 820.848 915.203 C 784.932 893.923 745.371 884.287 704.785 876.298 C 692.951 873.968 680.998 872.438 669.271 869.587 C 660.495 868.362 651.701 867.697 642.871 867.017 L 641.608 866.938 C 617.709 859.682 584.483 862.5 559.248 863.065 C 541.959 865.673 521.243 864.605 503.585 864.792 C 459.948 876.164 417.43 884.279 381.805 914.457 C 373.494 921.497 356.871 942.721 350.775 946.688 L 350.882 947.434 C 347.839 952.591 345.61 958.315 342.745 963.625 C 318.111 1009.27 305.861 1043.52 301.376 1095.84 C 253.067 1096.17 137.78 1097.15 96.4162 1115.21 C 63.4239 1124.71 31.3981 1158.02 15.2222 1187.27 C 9.68208 1197.28 5.88847 1208.91 0 1218.52 L 0 714.586 L 0 291.851 L 0 0 z"/>
<path transform="translate(0,0)" fill="rgb(243,62,61)" d="M 0 0 L 198.077 0 L 554.877 0 C 556.482 2.00474 559.246 4.74619 559.078 7.48432 C 559.006 8.63616 558.698 9.83252 558.055 10.7894 C 531.516 11.2372 496.389 24.8082 477.72 43.8804 C 459.734 62.2558 444.996 89.3373 445.645 115.694 C 445.876 125.075 448.493 134.48 451.714 143.242 C 455.466 151.472 458.54 159.963 462.988 167.861 C 477.094 192.909 500.862 214.399 525.683 228.556 C 535.952 234.413 548.37 238.738 557.729 245.8 C 569.505 249.695 581.267 253.85 593.156 257.373 C 602.721 260.207 614.269 261.876 623.073 266.551 C 625.445 267.81 626.624 269.244 627.78 271.613 C 630.228 276.626 631.223 282.442 631.713 287.962 C 633.387 306.787 632.274 326.332 632.314 345.241 C 632.565 368.998 633.244 392.749 634.35 416.481 C 634.721 424.92 634.254 434.477 635.977 442.676 L 637.038 561.494 C 637.971 584.658 638.28 607.843 637.963 631.024 C 622.887 633.075 567.162 628.615 559.685 631.888 C 560.912 697.075 560.018 762.428 559.909 827.627 C 559.889 839.437 559.125 851.275 559.248 863.065 C 541.959 865.673 521.243 864.605 503.585 864.792 C 459.948 876.164 417.43 884.279 381.805 914.457 C 373.494 921.497 356.871 942.721 350.775 946.688 L 350.882 947.434 C 347.839 952.591 345.61 958.315 342.745 963.625 C 318.111 1009.27 305.861 1043.52 301.376 1095.84 C 253.067 1096.17 137.78 1097.15 96.4162 1115.21 C 63.4239 1124.71 31.3981 1158.02 15.2222 1187.27 C 9.68208 1197.28 5.88847 1208.91 0 1218.52 L 0 714.586 L 0 291.851 L 0 0 z"/>
<path transform="translate(0,0)" fill="url(#Gradient3)" d="M 0 714.586 C 30.5389 683.391 40.5796 671.494 80.6913 650.13 C 85.8737 647.37 93.6064 642.094 99.5799 642.145 C 100.937 642.156 101.784 643.059 102.556 644.123 C 105.226 647.803 105.103 656.562 105.182 661.023 C 105.368 671.488 104.231 682.022 103.928 692.489 C 103.35 717.274 102.918 742.062 102.631 766.852 C 102.431 806.004 105.481 845.78 101.991 884.826 C 139.412 883.418 176.729 876.118 214.185 876.081 C 224.844 878.627 235.804 880.523 246.315 883.593 C 284.479 894.738 325.232 915.417 350.775 946.688 L 350.882 947.434 C 347.839 952.591 345.61 958.315 342.745 963.625 C 318.111 1009.27 305.861 1043.52 301.376 1095.84 C 253.067 1096.17 137.78 1097.15 96.4162 1115.21 C 63.4239 1124.71 31.3981 1158.02 15.2222 1187.27 C 9.68208 1197.28 5.88847 1208.91 0 1218.52 L 0 714.586 z"/>
<path transform="translate(0,0)" fill="rgb(253,112,34)" d="M 109.955 214.531 C 110.094 226.17 108.044 254.683 111.024 264.137 C 112.214 306.282 109.756 348.849 108.57 390.998 C 107.97 422.133 107.731 453.274 107.853 484.414 C 107.811 509.864 106.182 536.531 109.339 561.75 C 110.649 585.212 110.963 607.935 110.092 631.42 C 139.405 627.139 169.615 627.353 199.134 629.1 C 215.04 633.052 232.245 639.744 245.465 649.62 C 248.056 656.513 253.803 661.561 259.972 665.404 C 270.912 678.195 281.202 693.53 287.805 709.067 C 290.791 716.094 292.984 723.542 296.175 730.458 C 303.243 756.935 298.026 788.618 284.247 812.149 C 269.975 836.522 252.416 853.595 226.289 864.706 C 222.15 866.466 213.45 868.498 213.299 873.649 L 214.354 875.11 L 214.185 876.081 C 176.729 876.118 139.412 883.418 101.991 884.826 C 105.481 845.78 102.431 806.004 102.631 766.852 C 102.918 742.062 103.35 717.274 103.928 692.489 C 104.231 682.022 105.368 671.488 105.182 661.023 C 105.103 656.562 105.226 647.803 102.556 644.123 C 101.784 643.059 100.937 642.156 99.5799 642.145 C 93.6064 642.094 85.8737 647.37 80.6913 650.13 C 40.5796 671.494 30.5389 683.391 0 714.586 L 0 291.851 C 23.3962 276.816 46.8635 260.861 69.3085 244.435 C 82.9529 234.45 95.9257 224.062 109.955 214.531 z"/>
<path transform="translate(0,0)" fill="rgb(243,62,61)" d="M 199.134 629.1 C 217.768 625.32 239.74 627.791 258.821 627.917 L 381.083 629.484 C 404.119 629.921 429.628 627.761 452.277 630.191 C 466.553 630.366 552.978 629.522 559.685 631.888 C 560.912 697.075 560.018 762.428 559.909 827.627 C 559.889 839.437 559.125 851.275 559.248 863.065 C 541.959 865.673 521.243 864.605 503.585 864.792 C 459.948 876.164 417.43 884.279 381.805 914.457 C 373.494 921.497 356.871 942.721 350.775 946.688 C 325.232 915.417 284.479 894.738 246.315 883.593 C 235.804 880.523 224.844 878.627 214.185 876.081 L 214.354 875.11 L 213.299 873.649 C 213.45 868.498 222.15 866.466 226.289 864.706 C 252.416 853.595 269.975 836.522 284.247 812.149 C 298.026 788.618 303.243 756.935 296.175 730.458 C 292.984 723.542 290.791 716.094 287.805 709.067 C 281.202 693.53 270.912 678.195 259.972 665.404 C 253.803 661.561 248.056 656.513 245.465 649.62 C 232.245 639.744 215.04 633.052 199.134 629.1 z"/>
<path transform="translate(0,0)" fill="rgb(6,125,177)" d="M 452.277 630.191 C 466.553 630.366 552.978 629.522 559.685 631.888 C 560.912 697.075 560.018 762.428 559.909 827.627 C 559.889 839.437 559.125 851.275 559.248 863.065 C 541.959 865.673 521.243 864.605 503.585 864.792 C 498.815 864.124 494.028 864.394 489.29 863.27 C 469.552 858.586 449.903 844.84 436.197 830.219 C 409.078 801.288 401.411 752.636 413.119 715.395 C 416.581 704.384 423.05 694.17 428.229 683.896 C 432.09 676.236 435.337 668.27 439.258 660.64 C 443.984 651.441 451.969 642.025 452.256 631.507 C 452.268 631.069 452.27 630.63 452.277 630.191 z"/>
<path transform="translate(0,0)" fill="rgb(250,98,35)" d="M 245.465 649.62 C 253.204 653.971 261.513 660.232 266.509 667.688 C 281.785 685.801 294.659 706.213 296.175 730.458 C 292.984 723.542 290.791 716.094 287.805 709.067 C 281.202 693.53 270.912 678.195 259.972 665.404 C 253.803 661.561 248.056 656.513 245.465 649.62 z"/>
<path transform="translate(0,0)" fill="rgb(251,104,103)" d="M 0 0 L 198.077 0 C 217.711 39.9028 207.638 76.7532 194.03 117.017 C 190.84 126.454 182.477 134.84 180.238 143.87 C 174.275 149.214 169.395 156.745 163.741 162.637 C 146.415 180.695 128.874 198.128 109.955 214.531 C 95.9257 224.062 82.9529 234.45 69.3085 244.435 C 46.8635 260.861 23.3962 276.816 0 291.851 L 0 0 z"/>
<path transform="translate(0,0)" fill="rgb(6,125,177)" d="M 198.077 0 L 554.877 0 C 556.482 2.00474 559.246 4.74619 559.078 7.48432 C 559.006 8.63616 558.698 9.83252 558.055 10.7894 C 531.516 11.2372 496.389 24.8082 477.72 43.8804 C 459.734 62.2558 444.996 89.3373 445.645 115.694 C 445.876 125.075 448.493 134.48 451.714 143.242 C 442.796 145.497 430.736 144.328 421.428 144.497 C 407.501 144.748 393.51 145.598 379.593 145.515 C 361.646 145.408 343.691 144.441 325.737 144.208 C 277.256 143.579 228.724 143.878 180.238 143.87 C 182.477 134.84 190.84 126.454 194.03 117.017 C 207.638 76.7532 217.711 39.9028 198.077 0 z"/>
<path transform="translate(0,0)" fill="rgb(251,104,103)" d="M 207.344 560.143 C 211.777 562.039 291.922 561.788 300.037 560.121 C 329.228 559.848 358.782 561.915 387.871 560.96 C 413.986 559.08 449.075 558.689 475.115 560.887 C 502.97 561.262 532.572 560.061 559.925 561.041 C 585.505 561.029 611.514 559.917 637.038 561.494 C 637.971 584.658 638.28 607.843 637.963 631.024 C 622.887 633.075 567.162 628.615 559.685 631.888 C 552.978 629.522 466.553 630.366 452.277 630.191 C 429.628 627.761 404.119 629.921 381.083 629.484 L 258.821 627.917 C 239.74 627.791 217.768 625.32 199.134 629.1 C 169.615 627.353 139.405 627.139 110.092 631.42 C 110.963 607.935 110.649 585.212 109.339 561.75 C 120.46 563.103 202.301 563.312 207.344 560.143 z"/>
<path transform="translate(0,0)" fill="rgb(5,84,157)" d="M 111.024 264.137 C 127.006 263.867 143.187 264.368 159.156 265.242 C 173.49 266.027 188.306 268.175 202.586 266.019 C 204.278 364.01 203.912 462.204 207.344 560.143 C 202.301 563.312 120.46 563.103 109.339 561.75 C 106.182 536.531 107.811 509.864 107.853 484.414 C 107.731 453.274 107.97 422.133 108.57 390.998 C 109.756 348.849 112.214 306.282 111.024 264.137 z"/>
<path transform="translate(0,0)" fill="rgb(254,186,5)" d="M 202.586 266.019 L 203.998 264.454 C 218.942 262.146 234.94 263.549 250.02 263.706 C 266.67 263.879 283.382 263.529 300.012 264.377 C 299.438 362.958 299.446 461.541 300.037 560.121 C 291.922 561.788 211.777 562.039 207.344 560.143 C 203.912 462.204 204.278 364.01 202.586 266.019 z"/>
<path transform="translate(0,0)" fill="rgb(45,182,200)" d="M 300.012 264.377 C 300.03 257.538 299.337 248.079 304.662 242.876 C 306.455 241.124 307.589 240.822 310.046 240.489 C 320.147 239.119 331.697 240.514 341.874 240.887 C 353.917 241.33 366.014 241.367 378.044 242.01 C 381.4 242.189 384.721 242.598 388.048 243.06 L 388.223 285.773 C 387.965 377.428 389.673 469.341 387.871 560.96 C 358.782 561.915 329.228 559.848 300.037 560.121 C 299.446 461.541 299.438 362.958 300.012 264.377 z"/>
<path transform="translate(0,0)" fill="rgb(253,112,34)" d="M 388.223 285.773 C 405.31 295.696 457.054 282.514 476.049 293.593 L 475.115 560.887 C 449.075 558.689 413.986 559.08 387.871 560.96 C 389.673 469.341 387.965 377.428 388.223 285.773 z"/>
<path transform="translate(0,0)" fill="rgb(6,125,177)" d="M 476.049 293.593 C 492.592 296.758 538.056 297.385 556.209 295.528 C 556.688 296.184 557.357 296.737 557.644 297.497 C 559.397 302.135 558.281 323.89 558.405 329.978 C 559.976 406.997 559.014 484.031 559.925 561.041 C 532.572 560.061 502.97 561.262 475.115 560.887 L 476.049 293.593 z"/>
<path transform="translate(0,0)" fill="rgb(5,84,157)" d="M 1456.3 0 L 1776.09 0 C 1772.26 61.5595 1755.36 124.288 1718.02 174.144 L 1717.52 174.271 C 1686.68 205.053 1657.73 237.158 1628.43 269.37 C 1581.75 320.673 1536.75 368.82 1502.72 429.874 C 1505.08 432.897 1503.77 439.28 1506.9 440.303 C 1500.26 454.439 1493.94 468.349 1489.86 483.492 C 1481.06 516.143 1474.92 586.838 1487.01 618.531 C 1488.36 622.054 1490.51 624.953 1492.8 627.916 L 1353.94 628.147 L 1353.24 627.809 C 1308.46 629.331 1263.3 625.618 1218.45 626.021 C 1214.72 618.678 1207.1 611.703 1201.82 605.31 C 1184.37 584.155 1167.95 561.343 1146.68 543.659 C 1138.62 536.949 1127.43 536.268 1121.42 526.907 C 1132.46 519.052 1143.91 509.671 1151.76 498.482 C 1177.25 462.14 1179.92 399.126 1182.48 355.513 C 1183.28 341.725 1183 327.267 1185.55 313.709 L 1185.83 312.268 L 1186.7 311.258 C 1192.61 284.975 1212.85 254.86 1228.72 233.157 C 1253.11 199.806 1285.82 161.48 1320.76 139.255 C 1331.38 132.499 1343.24 127.291 1354.72 122.172 C 1373.81 113.664 1388.13 108.585 1408.98 105.36 L 1410.71 104.105 C 1413.06 72.5694 1439.19 26.6873 1456.3 0 z"/>
<path transform="translate(0,0)" fill="rgb(254,158,155)" d="M 1456.3 0 L 1776.09 0 C 1772.26 61.5595 1755.36 124.288 1718.02 174.144 L 1717.52 174.271 C 1686.68 205.053 1657.73 237.158 1628.43 269.37 C 1581.75 320.673 1536.75 368.82 1502.72 429.874 C 1481.22 411.54 1459.16 396.607 1442.64 373.023 C 1432.05 357.915 1422.59 341.326 1416.64 323.807 C 1406.18 293.044 1404.53 258.309 1402.53 226.077 C 1401.91 216.076 1400.76 205.938 1401.03 195.928 C 1401.69 171.179 1404.66 147.774 1408.83 123.419 C 1409.74 118.065 1412.26 109.99 1408.98 105.36 L 1410.71 104.105 C 1413.06 72.5694 1439.19 26.6873 1456.3 0 z"/>
<path transform="translate(0,0)" fill="rgb(251,104,103)" d="M 1456.3 0 L 1776.09 0 C 1772.26 61.5595 1755.36 124.288 1718.02 174.144 L 1717.52 174.271 C 1703.92 163.035 1688.38 152.558 1672.93 144.09 C 1599.24 103.708 1545.57 95.2155 1462.72 99.3237 C 1446.14 100.146 1426.64 99.4496 1410.71 104.105 C 1413.06 72.5694 1439.19 26.6873 1456.3 0 z"/>
<path transform="translate(0,0)" fill="rgb(15,163,191)" d="M 1408.98 105.36 C 1412.26 109.99 1409.74 118.065 1408.83 123.419 C 1404.66 147.774 1401.69 171.179 1401.03 195.928 C 1400.76 205.938 1401.91 216.076 1402.53 226.077 C 1404.53 258.309 1406.18 293.044 1416.64 323.807 C 1422.59 341.326 1432.05 357.915 1442.64 373.023 C 1459.16 396.607 1481.22 411.54 1502.72 429.874 C 1505.08 432.897 1503.77 439.28 1506.9 440.303 C 1500.26 454.439 1493.94 468.349 1489.86 483.492 C 1481.06 516.143 1474.92 586.838 1487.01 618.531 C 1488.36 622.054 1490.51 624.953 1492.8 627.916 L 1353.94 628.147 L 1353.24 627.809 C 1357.83 619.479 1370.35 608.516 1376.94 599.134 C 1404.77 559.53 1412.92 517.878 1411.71 469.95 C 1410.73 431.666 1390.1 395.58 1362.65 369.75 C 1336.76 345.399 1297.58 327.573 1262.95 319.707 C 1248.79 316.492 1234.03 315.332 1219.61 313.858 C 1208.81 312.755 1197.54 310.948 1186.7 311.258 C 1192.61 284.975 1212.85 254.86 1228.72 233.157 C 1253.11 199.806 1285.82 161.48 1320.76 139.255 C 1331.38 132.499 1343.24 127.291 1354.72 122.172 C 1373.81 113.664 1388.13 108.585 1408.98 105.36 z"/>
<path transform="translate(0,0)" fill="rgb(15,163,191)" d="M 1121.42 526.907 C 1127.43 536.268 1138.62 536.949 1146.68 543.659 C 1167.95 561.343 1184.37 584.155 1201.82 605.31 C 1207.1 611.703 1214.72 618.678 1218.45 626.021 C 1263.3 625.618 1308.46 629.331 1353.24 627.809 L 1353.94 628.147 C 1335.69 648.481 1318.66 673.279 1306.78 697.792 C 1267.5 778.881 1251.95 902.347 1256.76 992.071 C 1257.52 1006.24 1260.44 1020.97 1257.43 1034.96 C 1257.04 1040.82 1256.38 1046.66 1255.79 1052.51 C 1247.96 1050.92 1240.19 1047.84 1232.35 1045.99 C 1189.93 1035.95 1168.49 1036.6 1125.48 1045.8 C 1116.3 1033.5 1108.57 1020 1100.57 1006.91 L 1099.53 1005.46 C 1083.57 983.021 1073.7 954.108 1050.34 937.443 C 1031.22 959.794 1009.48 1027.36 1002.81 1056.31 C 998.781 1073.84 996.951 1091.65 991.78 1108.97 C 990.761 1107.86 990.188 1106.96 989.67 1105.54 C 984.435 1091.18 976.534 1078.59 968.867 1065.46 C 944.485 1023.7 911.345 974.515 872.635 945.177 C 858.101 934.161 835.231 926.409 823.355 916.409 C 822.884 916.012 822.428 915.597 821.965 915.191 C 834.605 900.529 853.398 862.892 861.476 844.059 C 871.996 819.531 881.758 787.333 884.363 760.879 C 885.531 749.014 885.212 736.968 884.957 725.062 C 884.724 714.131 884.542 702.927 882.181 692.211 C 879.593 680.464 873.833 668.098 869.351 656.927 C 877.804 653.057 887.393 651.432 896.412 649.364 C 909.085 646.458 922.129 642.715 934.998 640.882 C 948.396 638.973 962.398 639.173 975.924 638.863 L 977.129 636.471 C 967.189 624.288 959.652 608.635 951.328 595.256 C 942.306 580.754 932.225 567.02 923.372 552.389 C 929.283 552.596 935.367 554.692 941.244 555.566 C 954.295 557.506 969.195 555.852 982.43 555.661 C 1029 554.992 1082.4 555.746 1121.42 526.907 z"/>
<path transform="translate(0,0)" fill="rgb(45,182,200)" d="M 1121.42 526.907 C 1127.43 536.268 1138.62 536.949 1146.68 543.659 C 1167.95 561.343 1184.37 584.155 1201.82 605.31 C 1207.1 611.703 1214.72 618.678 1218.45 626.021 C 1263.3 625.618 1308.46 629.331 1353.24 627.809 L 1353.94 628.147 C 1335.69 648.481 1318.66 673.279 1306.78 697.792 C 1267.5 778.881 1251.95 902.347 1256.76 992.071 C 1257.52 1006.24 1260.44 1020.97 1257.43 1034.96 C 1257.04 1040.82 1256.38 1046.66 1255.79 1052.51 C 1247.96 1050.92 1240.19 1047.84 1232.35 1045.99 C 1189.93 1035.95 1168.49 1036.6 1125.48 1045.8 C 1116.3 1033.5 1108.57 1020 1100.57 1006.91 C 1106.17 998.215 1108.08 984.572 1111.1 974.584 C 1122.34 937.472 1134.64 900.53 1140.89 862.157 C 1149.22 810.929 1147.51 753.747 1115.7 710.243 C 1106.43 697.56 1094.84 687.816 1082.46 678.329 C 1042.12 647.43 1023.86 646.596 975.924 638.863 L 977.129 636.471 C 967.189 624.288 959.652 608.635 951.328 595.256 C 942.306 580.754 932.225 567.02 923.372 552.389 C 929.283 552.596 935.367 554.692 941.244 555.566 C 954.295 557.506 969.195 555.852 982.43 555.661 C 1029 554.992 1082.4 555.746 1121.42 526.907 z"/>
<path transform="translate(0,0)" fill="rgb(6,125,177)" d="M 1121.42 526.907 C 1127.43 536.268 1138.62 536.949 1146.68 543.659 C 1167.95 561.343 1184.37 584.155 1201.82 605.31 C 1207.1 611.703 1214.72 618.678 1218.45 626.021 C 1167.5 625.045 1116.54 625.997 1065.67 628.877 C 1036.16 630.261 1006.22 630.95 977.129 636.471 C 967.189 624.288 959.652 608.635 951.328 595.256 C 942.306 580.754 932.225 567.02 923.372 552.389 C 929.283 552.596 935.367 554.692 941.244 555.566 C 954.295 557.506 969.195 555.852 982.43 555.661 C 1029 554.992 1082.4 555.746 1121.42 526.907 z"/>
<path transform="translate(0,0)" fill="rgb(15,163,191)" d="M 837.235 0 L 1047.96 0 L 1456.3 0 C 1439.19 26.6873 1413.06 72.5694 1410.71 104.105 L 1408.98 105.36 C 1388.13 108.585 1373.81 113.664 1354.72 122.172 C 1343.24 127.291 1331.38 132.499 1320.76 139.255 C 1285.82 161.48 1253.11 199.806 1228.72 233.157 C 1212.85 254.86 1192.61 284.975 1186.7 311.258 L 1185.83 312.268 C 1183.07 311.983 1182.41 312.318 1180.51 310.337 C 1180.42 310.45 1180.34 310.581 1180.23 310.674 C 1176 314.143 1086.15 308.326 1074.41 307.495 C 1021.24 303.734 931.025 283.383 885.253 256.151 C 859.805 241.011 829.882 212.637 810.315 190.106 L 808.081 187.267 C 814.21 155.419 815.218 123.003 820.194 90.9825 C 824.94 60.4493 833.801 30.71 837.235 0 z"/>
<path transform="translate(0,0)" fill="rgb(254,186,5)" d="M 1047.96 0 L 1456.3 0 C 1439.19 26.6873 1413.06 72.5694 1410.71 104.105 L 1408.98 105.36 C 1388.13 108.585 1373.81 113.664 1354.72 122.172 C 1343.24 127.291 1331.38 132.499 1320.76 139.255 C 1285.82 161.48 1253.11 199.806 1228.72 233.157 C 1212.85 254.86 1192.61 284.975 1186.7 311.258 L 1185.83 312.268 C 1183.07 311.983 1182.41 312.318 1180.51 310.337 C 1174.47 231.561 1150.89 125.684 1104.51 61.1551 C 1088.48 38.8414 1067.3 19.4594 1047.96 0 z"/>
<path transform="translate(0,0)" fill="rgb(251,104,103)" d="M 810.315 190.106 C 829.882 212.637 859.805 241.011 885.253 256.151 C 931.025 283.383 1021.24 303.734 1074.41 307.495 C 1086.15 308.326 1176 314.143 1180.23 310.674 C 1180.34 310.581 1180.42 310.45 1180.51 310.337 C 1182.41 312.318 1183.07 311.983 1185.83 312.268 L 1185.55 313.709 C 1183 327.267 1183.28 341.725 1182.48 355.513 C 1179.92 399.126 1177.25 462.14 1151.76 498.482 C 1143.91 509.671 1132.46 519.052 1121.42 526.907 C 1082.4 555.746 1029 554.992 982.43 555.661 C 969.195 555.852 954.295 557.506 941.244 555.566 C 935.367 554.692 929.283 552.596 923.372 552.389 C 917.324 548.267 909.31 545.724 902.594 542.71 C 884.096 534.409 868.367 522.209 855.285 506.682 C 837.231 485.254 812.444 440.613 805.542 413.897 C 793.699 368.057 799.921 267.063 804.632 218.132 C 805.519 208.923 809.468 200.768 810.206 191.579 L 810.315 190.106 z"/>
<path transform="translate(0,0)" fill="rgb(254,186,5)" d="M 635.977 442.676 C 714.027 468.975 780.736 504.479 826.589 576.045 C 837.309 592.775 846.217 611.663 855.058 629.465 C 859.451 638.309 863.293 647.761 868.292 656.26 C 842.986 668.361 816.326 680.472 793.554 696.981 C 784.933 703.231 777.105 710.735 769.363 718.028 C 739.069 746.566 717.43 777.129 696.443 812.863 C 686.456 829.867 676.327 847.732 670.12 866.526 C 669.788 867.531 669.517 868.557 669.271 869.587 C 660.495 868.362 651.701 867.697 642.871 867.017 L 641.608 866.938 C 617.709 859.682 584.483 862.5 559.248 863.065 C 559.125 851.275 559.889 839.437 559.909 827.627 C 560.018 762.428 560.912 697.075 559.685 631.888 C 567.162 628.615 622.887 633.075 637.963 631.024 C 638.28 607.843 637.971 584.658 637.038 561.494 L 635.977 442.676 z"/>
<path transform="translate(0,0)" fill="rgb(243,62,61)" d="M 559.685 631.888 C 567.162 628.615 622.887 633.075 637.963 631.024 C 638.883 681.885 638.4 732.773 639.768 783.617 C 640.246 801.374 640.661 819.25 641.492 836.99 C 641.955 846.859 643.569 857.171 642.871 867.017 L 641.608 866.938 C 617.709 859.682 584.483 862.5 559.248 863.065 C 559.125 851.275 559.889 839.437 559.909 827.627 C 560.018 762.428 560.912 697.075 559.685 631.888 z"/>
<path transform="translate(0,0)" fill="rgb(5,84,157)" d="M 554.877 0 L 837.235 0 C 833.801 30.71 824.94 60.4493 820.194 90.9825 C 815.218 123.003 814.21 155.419 808.081 187.267 C 805.521 184.265 802.909 181.307 800.248 178.394 C 781.462 157.886 761.525 138.831 741.741 119.357 C 690.638 69.0512 634.068 14.1073 558.055 10.7894 C 558.698 9.83252 559.006 8.63616 559.078 7.48432 C 559.246 4.74619 556.482 2.00474 554.877 0 z"/>
<path transform="translate(0,0)" fill="rgb(251,104,103)" d="M 1859.28 359.25 C 1859.55 357.177 1859.96 355.64 1860.75 353.677 C 1866.87 338.443 1875.84 324.12 1884.48 310.203 C 1924.62 245.522 1977.98 201.001 2048 171.581 L 2048 647.991 L 2048 756.551 L 2048 982.885 L 2048 1469.41 C 2036.13 1467.6 2024.23 1464.61 2012.46 1462.19 C 1977.02 1454.92 1942.23 1447.23 1909.24 1431.91 C 1892.91 1424.33 1867.33 1402.84 1853.31 1399.9 C 1860.25 1390.96 1866.13 1380.83 1872.26 1371.31 C 1885.92 1350.1 1899.72 1329.23 1909.86 1306.03 C 1897.55 1298.81 1884.66 1291.89 1872.87 1283.88 C 1862.24 1276.66 1852.56 1267.93 1841.42 1261.49 C 1826.69 1286.91 1812.23 1314.82 1802.14 1342.42 C 1797.59 1334.9 1785.18 1311.23 1777.48 1308.31 L 1775.29 1308.74 C 1770.64 1297.13 1760.29 1285.81 1750.78 1277.89 C 1737.04 1265.48 1722.06 1254.52 1706.09 1245.18 C 1705.86 1244.86 1705.67 1244.51 1705.42 1244.21 C 1697.39 1234.9 1650.99 1220.03 1637.58 1216.75 C 1630.76 1215.08 1623.92 1214.25 1616.95 1213.56 C 1589.09 1208.68 1562.05 1206.28 1533.72 1205.9 C 1517.59 1200.86 1485.86 1207.6 1467.79 1205.04 C 1458.36 1202.93 1446.32 1206.1 1436.84 1207.64 C 1427.23 1208.73 1415.11 1208.83 1406.15 1212.48 C 1403.07 1211.74 1400.11 1210.97 1397.57 1208.99 C 1383.52 1198.01 1376.79 1176.22 1374.29 1159.36 C 1372.34 1170.27 1373.4 1181.5 1372.21 1192.52 C 1371.81 1182.58 1372.02 1172.63 1371.47 1162.71 C 1370.58 1146.45 1368.67 1130.73 1369.89 1114.41 C 1338.82 1090.98 1292.49 1065.17 1255.79 1052.51 C 1256.38 1046.66 1257.04 1040.82 1257.43 1034.96 C 1260.44 1020.97 1257.52 1006.24 1256.76 992.071 C 1251.95 902.347 1267.5 778.881 1306.78 697.792 C 1318.66 673.279 1335.69 648.481 1353.94 628.147 L 1492.8 627.916 C 1490.51 624.953 1488.36 622.054 1487.01 618.531 C 1474.92 586.838 1481.06 516.143 1489.86 483.492 C 1493.94 468.349 1500.26 454.439 1506.9 440.303 C 1503.77 439.28 1505.08 432.897 1502.72 429.874 C 1536.75 368.82 1581.75 320.673 1628.43 269.37 C 1657.73 237.158 1686.68 205.053 1717.52 174.271 L 1718.02 174.144 C 1734.9 187.786 1751.09 204.369 1763.3 222.302 C 1781.36 248.828 1804.87 311.014 1808.32 343.028 C 1808.77 347.174 1809.07 351.051 1808.65 355.219 C 1823.46 355.032 1846.22 351.946 1859.28 359.25 z"/>
<path transform="translate(0,0)" fill="rgb(5,84,157)" d="M 1773.41 822.671 C 1822.09 833.966 1874.11 855.683 1907.71 893.902 C 1916.69 904.11 1923.9 916.266 1931.08 927.78 C 1944.29 948.971 1958.05 977.543 1960.46 1002.78 L 1961.51 1004.87 C 1961.8 1004.74 1962.06 1004.56 1962.36 1004.48 C 1990.71 996.406 2018.79 987.544 2048 982.885 L 2048 1469.41 C 2036.13 1467.6 2024.23 1464.61 2012.46 1462.19 C 1977.02 1454.92 1942.23 1447.23 1909.24 1431.91 C 1892.91 1424.33 1867.33 1402.84 1853.31 1399.9 C 1860.25 1390.96 1866.13 1380.83 1872.26 1371.31 C 1885.92 1350.1 1899.72 1329.23 1909.86 1306.03 C 1897.55 1298.81 1884.66 1291.89 1872.87 1283.88 C 1862.24 1276.66 1852.56 1267.93 1841.42 1261.49 C 1826.69 1286.91 1812.23 1314.82 1802.14 1342.42 C 1797.59 1334.9 1785.18 1311.23 1777.48 1308.31 L 1775.29 1308.74 C 1770.64 1297.13 1760.29 1285.81 1750.78 1277.89 C 1737.04 1265.48 1722.06 1254.52 1706.09 1245.18 C 1705.86 1244.86 1705.67 1244.51 1705.42 1244.21 C 1697.39 1234.9 1650.99 1220.03 1637.58 1216.75 C 1630.76 1215.08 1623.92 1214.25 1616.95 1213.56 C 1589.09 1208.68 1562.05 1206.28 1533.72 1205.9 C 1517.59 1200.86 1485.86 1207.6 1467.79 1205.04 C 1458.36 1202.93 1446.32 1206.1 1436.84 1207.64 C 1433.1 1201.59 1429.2 1163.54 1428.75 1155.39 C 1428.36 1147.9 1428.49 1140.38 1429.13 1132.91 C 1433.31 1078.49 1456.05 1008.87 1492.78 967.857 C 1510.38 948.2 1531.73 932.147 1551.76 915.054 C 1573.11 895.075 1601.33 886.95 1628.91 879.669 C 1659.16 873.472 1706.43 873.764 1736.31 882.471 C 1737.19 881.351 1736.84 881.905 1737.52 880.559 C 1745.58 864.59 1769.25 836.212 1773.41 822.671 z"/>
<path transform="translate(0,0)" fill="rgb(45,182,200)" d="M 2048 982.885 L 2048 1469.41 C 2036.13 1467.6 2024.23 1464.61 2012.46 1462.19 C 1977.02 1454.92 1942.23 1447.23 1909.24 1431.91 C 1892.91 1424.33 1867.33 1402.84 1853.31 1399.9 C 1860.25 1390.96 1866.13 1380.83 1872.26 1371.31 C 1885.92 1350.1 1899.72 1329.23 1909.86 1306.03 C 1897.55 1298.81 1884.66 1291.89 1872.87 1283.88 C 1862.24 1276.66 1852.56 1267.93 1841.42 1261.49 C 1844.83 1248.71 1848.24 1235.5 1853.16 1223.21 L 1874.83 1152.01 C 1904.25 1151.99 1933.05 1161.42 1962.25 1164.69 C 1967.19 1141.98 1967.49 1116.62 1967.82 1093.47 C 1972.13 1065.55 1968.43 1032.21 1961.51 1004.87 C 1961.8 1004.74 1962.06 1004.56 1962.36 1004.48 C 1990.71 996.406 2018.79 987.544 2048 982.885 z"/>
<path transform="translate(0,0)" fill="rgb(5,84,157)" d="M 1874.83 1152.01 C 1904.25 1151.99 1933.05 1161.42 1962.25 1164.69 C 1959.79 1172.85 1958.68 1181.51 1956.75 1189.82 C 1952.46 1208.33 1947.13 1227.78 1940.28 1245.49 C 1931.63 1265.9 1922.96 1288.04 1909.86 1306.03 C 1897.55 1298.81 1884.66 1291.89 1872.87 1283.88 C 1862.24 1276.66 1852.56 1267.93 1841.42 1261.49 C 1844.83 1248.71 1848.24 1235.5 1853.16 1223.21 L 1874.83 1152.01 z"/>
<path transform="translate(0,0)" fill="rgb(253,112,34)" d="M 1853.16 1223.21 L 1907.43 1237.56 C 1918.03 1240.39 1929.4 1244.18 1940.28 1245.49 C 1931.63 1265.9 1922.96 1288.04 1909.86 1306.03 C 1897.55 1298.81 1884.66 1291.89 1872.87 1283.88 C 1862.24 1276.66 1852.56 1267.93 1841.42 1261.49 C 1844.83 1248.71 1848.24 1235.5 1853.16 1223.21 z"/>
<path transform="translate(0,0)" fill="rgb(6,125,177)" d="M 1551.76 915.054 C 1555.47 939.817 1559.76 964.713 1568.12 988.421 C 1574.4 1006.23 1583.1 1026.67 1592.47 1042.98 C 1600.6 1057.13 1610.72 1069.68 1620.4 1082.74 C 1645.58 1116.71 1671.09 1150 1705.45 1175.37 C 1712.66 1180.69 1720.1 1185.22 1728.11 1189.24 C 1729.21 1207.17 1731.51 1223.63 1737.49 1240.71 C 1741.08 1250.95 1749.8 1267.75 1750.78 1277.89 C 1737.04 1265.48 1722.06 1254.52 1706.09 1245.18 C 1705.86 1244.86 1705.67 1244.51 1705.42 1244.21 C 1697.39 1234.9 1650.99 1220.03 1637.58 1216.75 C 1630.76 1215.08 1623.92 1214.25 1616.95 1213.56 C 1589.09 1208.68 1562.05 1206.28 1533.72 1205.9 C 1517.59 1200.86 1485.86 1207.6 1467.79 1205.04 C 1458.36 1202.93 1446.32 1206.1 1436.84 1207.64 C 1433.1 1201.59 1429.2 1163.54 1428.75 1155.39 C 1428.36 1147.9 1428.49 1140.38 1429.13 1132.91 C 1433.31 1078.49 1456.05 1008.87 1492.78 967.857 C 1510.38 948.2 1531.73 932.147 1551.76 915.054 z"/>
<path transform="translate(0,0)" fill="rgb(15,163,191)" d="M 1628.91 879.669 C 1659.16 873.472 1706.43 873.764 1736.31 882.471 L 1737.03 883.092 C 1723.07 927.006 1717.3 961.716 1739.26 1004.31 C 1752.88 1030.74 1767.8 1040.87 1792.44 1055.97 C 1761.59 1076.21 1739.22 1099.77 1731.38 1136.87 C 1727.72 1154.2 1727.83 1171.62 1728.11 1189.24 C 1720.1 1185.22 1712.66 1180.69 1705.45 1175.37 C 1671.09 1150 1645.58 1116.71 1620.4 1082.74 C 1610.72 1069.68 1600.6 1057.13 1592.47 1042.98 C 1583.1 1026.67 1574.4 1006.23 1568.12 988.421 C 1559.76 964.713 1555.47 939.817 1551.76 915.054 C 1573.11 895.075 1601.33 886.95 1628.91 879.669 z"/>
<path transform="translate(0,0)" fill="rgb(251,104,103)" d="M 1792.44 1055.97 C 1802.94 1051.3 1813.53 1045.06 1824.44 1041.61 C 1843.63 1035.53 1864.33 1034.16 1883.77 1028.85 C 1884.69 1043.71 1885.8 1058.61 1884.85 1073.5 C 1883.99 1086.86 1879.63 1102.5 1881.15 1115.64 C 1879.57 1118.24 1875.19 1147.33 1874.83 1152.01 L 1853.16 1223.21 C 1848.24 1235.5 1844.83 1248.71 1841.42 1261.49 C 1826.69 1286.91 1812.23 1314.82 1802.14 1342.42 C 1797.59 1334.9 1785.18 1311.23 1777.48 1308.31 L 1775.29 1308.74 C 1770.64 1297.13 1760.29 1285.81 1750.78 1277.89 C 1749.8 1267.75 1741.08 1250.95 1737.49 1240.71 C 1731.51 1223.63 1729.21 1207.17 1728.11 1189.24 C 1727.83 1171.62 1727.72 1154.2 1731.38 1136.87 C 1739.22 1099.77 1761.59 1076.21 1792.44 1055.97 z"/>
<path transform="translate(0,0)" fill="rgb(253,112,34)" d="M 1773.41 822.671 C 1822.09 833.966 1874.11 855.683 1907.71 893.902 C 1916.69 904.11 1923.9 916.266 1931.08 927.78 C 1944.29 948.971 1958.05 977.543 1960.46 1002.78 C 1934.9 1010.89 1909.92 1020.78 1884.36 1029.01 C 1875.38 1009.79 1871.85 989.72 1861.06 970.919 C 1832.57 921.285 1790.74 897.604 1737.03 883.092 L 1736.31 882.471 C 1737.19 881.351 1736.84 881.905 1737.52 880.559 C 1745.58 864.59 1769.25 836.212 1773.41 822.671 z"/>
<path transform="translate(0,0)" fill="rgb(253,112,34)" d="M 1967.82 1093.47 C 1967.49 1116.62 1967.19 1141.98 1962.25 1164.69 C 1933.05 1161.42 1904.25 1151.99 1874.83 1152.01 C 1875.19 1147.33 1879.57 1118.24 1881.15 1115.64 C 1890.18 1112.9 1899.41 1112.38 1908.63 1110.66 C 1928.25 1107 1949.59 1101.47 1967.82 1093.47 z"/>
<path transform="translate(0,0)" fill="rgb(253,112,34)" d="M 1859.28 359.25 C 1859.55 357.177 1859.96 355.64 1860.75 353.677 C 1866.87 338.443 1875.84 324.12 1884.48 310.203 C 1924.62 245.522 1977.98 201.001 2048 171.581 L 2048 647.991 C 2040.29 647.864 2032.62 647.297 2024.92 646.744 C 2007.03 643.926 1988.58 644.075 1970.51 643.054 C 1960.18 642.471 1949.93 641.064 1939.61 640.417 C 1929.41 639.776 1919.15 640.022 1908.94 639.47 C 1895.55 638.747 1882.11 637.139 1868.76 635.809 C 1867.25 626.965 1856.17 608.423 1852.73 597.529 C 1848.24 583.309 1845.28 568.549 1842.2 553.975 C 1833.71 513.763 1827.68 473.401 1835.37 432.456 C 1838.14 417.772 1843.08 402.001 1848.45 388.089 C 1851.72 379.596 1857.29 369.909 1858.96 361.059 C 1859.08 360.457 1859.17 359.853 1859.28 359.25 z"/>
<path transform="translate(0,0)" fill="rgb(15,163,191)" d="M 1859.28 359.25 C 1859.55 357.177 1859.96 355.64 1860.75 353.677 C 1866.87 338.443 1875.84 324.12 1884.48 310.203 C 1924.62 245.522 1977.98 201.001 2048 171.581 L 2048 647.991 C 2040.29 647.864 2032.62 647.297 2024.92 646.744 C 2025.31 645.328 2025.68 643.93 2026 642.497 C 2037.16 592.583 2040.32 551.436 2026.04 501.47 C 2020.21 481.058 2012.85 462.846 2001.11 445.012 C 1969.76 397.376 1913.5 370.61 1859.28 359.25 z"/>
<path transform="translate(0,0)" fill="rgb(45,182,200)" d="M 1718.02 174.144 C 1734.9 187.786 1751.09 204.369 1763.3 222.302 C 1781.36 248.828 1804.87 311.014 1808.32 343.028 C 1808.77 347.174 1809.07 351.051 1808.65 355.219 C 1808.04 360.703 1808.66 365.646 1809.38 371.062 C 1778.25 396.407 1750.16 425.277 1720.33 452.078 L 1652.41 512.844 C 1642.64 521.623 1632.37 529.96 1623.2 539.375 L 1616.17 532.399 C 1612.03 528.901 1608.15 525.189 1604.24 521.439 C 1602.84 519.993 1601.82 518.213 1600.71 516.541 C 1594.48 511.189 1588.79 505.141 1582.5 499.791 C 1557.86 479.259 1532.65 459.422 1506.9 440.303 C 1503.77 439.28 1505.08 432.897 1502.72 429.874 C 1536.75 368.82 1581.75 320.673 1628.43 269.37 C 1657.73 237.158 1686.68 205.053 1717.52 174.271 L 1718.02 174.144 z"/>
<path transform="translate(0,0)" fill="rgb(254,186,5)" d="M 1798.17 363.922 C 1773.67 390.205 1746.96 413.697 1720.27 437.666 C 1685.36 469.029 1650.36 500.26 1616.17 532.399 C 1612.03 528.901 1608.15 525.189 1604.24 521.439 C 1638.32 491.315 1672.46 461.312 1706.1 430.655 C 1726.05 413.785 1744.27 392.503 1766.53 378.719 C 1776.42 372.591 1787.41 368.258 1798.17 363.922 z"/>
<path transform="translate(0,0)" fill="rgb(254,186,5)" d="M 1601.99 515.412 C 1602.01 515.019 1601.99 514.618 1602.06 514.233 C 1602.92 510.061 1608.45 504.43 1611.27 500.941 C 1636.96 469.107 1670.93 438.365 1705.91 417.021 C 1703.29 420.373 1700.4 423.475 1697.55 426.621 L 1601.99 515.412 z"/>
<path transform="translate(0,0)" fill="rgb(15,163,191)" d="M 1697.55 426.621 L 1699.42 426.805 L 1699.56 428.392 C 1690.64 436.965 1651 469.245 1647.46 478.082 C 1651.31 478.248 1654.12 475.28 1656.84 472.801 C 1671.86 459.064 1687.77 440.231 1704.95 429.82 L 1706.1 430.655 C 1672.46 461.312 1638.32 491.315 1604.24 521.439 C 1602.84 519.993 1601.82 518.213 1600.71 516.541 L 1601.99 515.412 L 1697.55 426.621 z"/>
<path transform="translate(0,0)" fill="rgb(6,125,177)" d="M 1777.82 811.166 C 1802.89 788.284 1823.15 764.204 1855.22 749.732 C 1863.49 746 1872.38 743.866 1881.15 741.675 C 1936.67 727.808 1995.04 736.901 2048 756.551 L 2048 982.885 C 2018.79 987.544 1990.71 996.406 1962.36 1004.48 C 1962.06 1004.56 1961.8 1004.74 1961.51 1004.87 L 1960.46 1002.78 C 1958.05 977.543 1944.29 948.971 1931.08 927.78 C 1923.9 916.266 1916.69 904.11 1907.71 893.902 C 1874.11 855.683 1822.09 833.966 1773.41 822.671 L 1772.73 820.796 C 1773.23 817.058 1775.71 814.173 1777.82 811.166 z"/>
<path transform="translate(0,0)" fill="rgb(254,186,5)" d="M 1808.65 355.219 C 1823.46 355.032 1846.22 351.946 1859.28 359.25 C 1859.17 359.853 1859.08 360.457 1858.96 361.059 C 1857.29 369.909 1851.72 379.596 1848.45 388.089 C 1843.08 402.001 1838.14 417.772 1835.37 432.456 C 1827.68 473.401 1833.71 513.763 1842.2 553.975 C 1845.28 568.549 1848.24 583.309 1852.73 597.529 C 1856.17 608.423 1867.25 626.965 1868.76 635.809 C 1848.93 636.245 1829.11 633.289 1809.26 632.844 C 1774.74 632.071 1739.5 633.636 1705.12 630.835 C 1700.77 631.15 1696.66 631.378 1692.31 630.896 L 1690.48 626.147 C 1687.82 623.151 1685.18 620.129 1682.58 617.08 C 1679.41 614.045 1677.41 610.354 1675.16 606.63 C 1671.96 603.082 1669.57 598.892 1667.03 594.86 L 1662.41 585.829 C 1659.22 582.648 1656.93 578.905 1654.46 575.168 C 1652.16 572.386 1650.04 569.437 1647.86 566.561 C 1644.92 563.534 1642.22 560.319 1639.49 557.112 C 1637.11 554.896 1635.48 552.316 1633.68 549.639 L 1623.2 539.375 C 1632.37 529.96 1642.64 521.623 1652.41 512.844 L 1720.33 452.078 C 1750.16 425.277 1778.25 396.407 1809.38 371.062 C 1808.66 365.646 1808.04 360.703 1808.65 355.219 z"/>
<path transform="translate(0,0)" fill="rgb(15,163,191)" d="M 1633.68 549.639 C 1642.7 535.753 1661.77 521.325 1674.21 510.096 L 1726.25 462.887 C 1750.56 440.68 1773.79 416.738 1798.72 395.301 C 1801.16 393.199 1803.88 390.909 1806.95 389.814 C 1808.72 391.769 1809.21 393.686 1809.08 396.343 C 1808.91 399.972 1807.54 403.441 1805.18 406.204 C 1798.94 413.374 1790.21 419.73 1783.18 426.197 C 1762.46 445.222 1741.56 464.046 1720.48 482.668 C 1705.03 496.492 1689.14 510.163 1674.05 524.335 C 1662.85 534.854 1652.22 546.537 1640.44 556.35 C 1640.13 556.611 1639.8 556.858 1639.49 557.112 C 1637.11 554.896 1635.48 552.316 1633.68 549.639 z"/>
<path transform="translate(0,0)" fill="rgb(15,163,191)" d="M 1647.86 566.561 C 1698.43 513.506 1757.74 469.135 1809.08 416.791 L 1807.86 436.017 C 1801.09 445.611 1772.43 467.393 1761.76 476.712 C 1740.52 495.548 1719.47 514.615 1698.64 533.909 C 1683.8 547.488 1668.33 560.581 1654.46 575.168 C 1652.16 572.386 1650.04 569.437 1647.86 566.561 z"/>
<path transform="translate(0,0)" fill="rgb(15,163,191)" d="M 1662.41 585.829 L 1750.41 503.171 C 1761.93 492.368 1773.93 482.211 1785.57 471.572 C 1789.94 467.57 1793.96 462.593 1798.68 459.084 C 1800.58 457.673 1801.52 457.244 1803.79 457.058 C 1805.35 460.19 1804.62 462.601 1803.52 465.855 C 1801.6 471.493 1799.05 476.595 1794.88 480.911 C 1789.09 486.911 1782.11 492.251 1775.8 497.721 C 1758.84 512.439 1741.41 526.78 1724.7 541.766 C 1707.81 556.912 1685.57 583.861 1667.03 594.86 L 1662.41 585.829 z"/>
<path transform="translate(0,0)" fill="rgb(15,163,191)" d="M 1675.16 606.63 C 1684.46 595.015 1696.01 584.747 1706.72 574.45 C 1734.9 547.501 1764.21 521.751 1794.55 497.268 C 1792.04 505.629 1789.88 515.276 1784.96 522.542 C 1778.71 531.777 1767.21 539.704 1758.79 546.95 C 1735.34 567.129 1701.41 593.224 1682.58 617.08 C 1679.41 614.045 1677.41 610.354 1675.16 606.63 z"/>
<path transform="translate(0,0)" fill="rgb(15,163,191)" d="M 1690.48 626.147 C 1708.14 603.161 1731.5 585.524 1753.66 567.158 C 1760.67 561.347 1767.13 554.942 1774.27 549.274 C 1763.31 566.359 1752.77 583.566 1738.9 598.53 C 1728.55 609.702 1712.94 617.653 1705.12 630.835 C 1700.77 631.15 1696.66 631.378 1692.31 630.896 L 1690.48 626.147 z"/>
<path transform="translate(0,0)" fill="rgb(6,125,177)" d="M 1506.9 440.303 C 1532.65 459.422 1557.86 479.259 1582.5 499.791 C 1588.79 505.141 1594.48 511.189 1600.71 516.541 C 1601.82 518.213 1602.84 519.993 1604.24 521.439 C 1608.15 525.189 1612.03 528.901 1616.17 532.399 L 1623.2 539.375 L 1633.68 549.639 C 1635.48 552.316 1637.11 554.896 1639.49 557.112 C 1642.22 560.319 1644.92 563.534 1647.86 566.561 C 1650.04 569.437 1652.16 572.386 1654.46 575.168 C 1656.93 578.905 1659.22 582.648 1662.41 585.829 L 1667.03 594.86 C 1669.57 598.892 1671.96 603.082 1675.16 606.63 C 1677.41 610.354 1679.41 614.045 1682.58 617.08 C 1685.18 620.129 1687.82 623.151 1690.48 626.147 L 1692.31 630.896 C 1675.97 630.922 1659.66 632.398 1643.3 632.167 C 1616.03 631.782 1588.74 629.775 1561.5 628.733 C 1538.66 627.859 1515.66 628.135 1492.8 627.916 C 1490.51 624.953 1488.36 622.054 1487.01 618.531 C 1474.92 586.838 1481.06 516.143 1489.86 483.492 C 1493.94 468.349 1500.26 454.439 1506.9 440.303 z"/>
<path transform="translate(0,0)" fill="rgb(5,84,157)" d="M 1257.43 1034.96 C 1257.72 1034.76 1258.01 1034.55 1258.3 1034.34 C 1275.24 1021.82 1336.25 950.199 1347.69 948.385 C 1351.9 950.669 1353.03 956.331 1354.3 960.62 C 1358.1 973.51 1362.06 987.011 1364.08 1000.31 C 1368.03 1026.22 1366.95 1053.18 1368.22 1079.32 C 1368.76 1090.43 1371.4 1103.5 1369.89 1114.41 C 1338.82 1090.98 1292.49 1065.17 1255.79 1052.51 C 1256.38 1046.66 1257.04 1040.82 1257.43 1034.96 z"/>
<path transform="translate(0,0)" fill="rgb(254,186,5)" d="M 1628.91 879.669 L 1628.62 877.826 C 1630.11 875.983 1631.62 874.385 1633.39 872.803 C 1659.3 849.761 1743.85 809.086 1777.82 811.166 C 1775.71 814.173 1773.23 817.058 1772.73 820.796 L 1773.41 822.671 C 1769.25 836.212 1745.58 864.59 1737.52 880.559 C 1736.84 881.905 1737.19 881.351 1736.31 882.471 C 1706.43 873.764 1659.16 873.472 1628.91 879.669 z"/>
<path transform="translate(0,0)" fill="rgb(254,186,5)" d="M 1436.49 1592.89 C 1445.21 1590.98 1454.16 1585.86 1462.65 1582.85 C 1479 1577.05 1497.91 1572.42 1515 1569.34 C 1537.52 1565.28 1598.93 1566.13 1614.89 1558.58 C 1617.81 1557.2 1618.75 1555.44 1619.72 1552.51 C 1619.2 1549.82 1618.43 1548.23 1616.57 1546.29 C 1605.27 1534.52 1588.16 1526.11 1575.73 1512.27 C 1558.82 1493.44 1539.32 1465.91 1541.14 1439.2 C 1542.54 1418.74 1551.4 1399.13 1560.3 1380.95 C 1585.6 1329.25 1618.77 1301.81 1665.91 1271.66 C 1679.61 1262.9 1693.71 1255.9 1706.09 1245.18 C 1722.06 1254.52 1737.04 1265.48 1750.78 1277.89 C 1760.29 1285.81 1770.64 1297.13 1775.29 1308.74 L 1777.48 1308.31 C 1785.18 1311.23 1797.59 1334.9 1802.14 1342.42 C 1812.23 1314.82 1826.69 1286.91 1841.42 1261.49 C 1852.56 1267.93 1862.24 1276.66 1872.87 1283.88 C 1884.66 1291.89 1897.55 1298.81 1909.86 1306.03 C 1899.72 1329.23 1885.92 1350.1 1872.26 1371.31 C 1866.13 1380.83 1860.25 1390.96 1853.31 1399.9 C 1867.33 1402.84 1892.91 1424.33 1909.24 1431.91 C 1942.23 1447.23 1977.02 1454.92 2012.46 1462.19 C 2024.23 1464.61 2036.13 1467.6 2048 1469.41 L 2048 1488.46 L 2048 1535.13 L 2048 1834.83 L 2048 2048 L 1855.46 2048 L 1108.25 2048 L 615.861 2048 C 640.024 2014.68 687.258 1965.19 725.232 1948.63 L 730.202 1946.43 C 763.675 1955.33 799.447 1957.86 831.786 1970.42 C 848.697 1936.18 881.764 1903.02 914.892 1884.63 C 917.847 1882.99 924.134 1878.51 926.976 1878.2 C 930.511 1877.82 931.515 1878.7 934.998 1876.86 C 945.675 1871.21 954.883 1864.34 966.708 1860.94 C 978.585 1857.52 1005.28 1855.82 1014.61 1851.08 C 1015.2 1850.78 1015.77 1850.45 1016.36 1850.13 C 1037.02 1853.85 1137.94 1876.36 1147.99 1874.84 C 1120.92 1844.47 1098.63 1811.52 1096.01 1769.56 C 1093.24 1725.21 1103.15 1677.94 1133.43 1643.91 L 1134.26 1643.86 C 1153.64 1615.58 1195.06 1575.07 1226.43 1562.77 C 1242.63 1563.28 1258.62 1566.11 1274.79 1566.65 C 1289.48 1568.33 1303.89 1571.38 1318.52 1573.22 C 1354.27 1577.71 1403.31 1580.18 1436.49 1592.89 z"/>
<path transform="translate(0,0)" fill="rgb(253,112,34)" d="M 1134.26 1643.86 C 1146.23 1648.56 1161.38 1649.48 1174.1 1651.58 C 1189.89 1654.32 1205.65 1657.26 1221.37 1660.39 L 1513.87 1718.66 C 1557.01 1726.97 1600.23 1734.56 1643.27 1743.41 C 1660.82 1747.02 1683.05 1748.7 1698.85 1757.31 L 1698.93 1757.74 C 1692.69 1763.15 1681.78 1810.62 1680.41 1820.7 C 1678.39 1835.67 1677.64 1851.19 1676.58 1866.26 C 1674.59 1894.48 1674.19 1930.48 1678.21 1958.54 C 1680.02 1971.18 1686.52 1993.75 1686.76 2004.62 C 1719.14 2012.9 1751.56 2021 1784.02 2028.92 C 1799.88 2032.72 1843.29 2041.35 1855.46 2048 L 1108.25 2048 L 615.861 2048 C 640.024 2014.68 687.258 1965.19 725.232 1948.63 L 730.202 1946.43 C 763.675 1955.33 799.447 1957.86 831.786 1970.42 C 848.697 1936.18 881.764 1903.02 914.892 1884.63 C 917.847 1882.99 924.134 1878.51 926.976 1878.2 C 930.511 1877.82 931.515 1878.7 934.998 1876.86 C 945.675 1871.21 954.883 1864.34 966.708 1860.94 C 978.585 1857.52 1005.28 1855.82 1014.61 1851.08 C 1015.2 1850.78 1015.77 1850.45 1016.36 1850.13 C 1037.02 1853.85 1137.94 1876.36 1147.99 1874.84 C 1120.92 1844.47 1098.63 1811.52 1096.01 1769.56 C 1093.24 1725.21 1103.15 1677.94 1133.43 1643.91 L 1134.26 1643.86 z"/>
<path transform="translate(0,0)" fill="url(#Gradient2)" d="M 1016.36 1850.13 C 1037.02 1853.85 1137.94 1876.36 1147.99 1874.84 C 1165.81 1884.03 1187.85 1886.02 1207.16 1890.49 C 1230.06 1895.79 1252.93 1901.54 1275.77 1907.11 L 1490.51 1957.94 L 1622.25 1989.5 C 1643.69 1994.57 1665.13 2000.45 1686.76 2004.62 C 1719.14 2012.9 1751.56 2021 1784.02 2028.92 C 1799.88 2032.72 1843.29 2041.35 1855.46 2048 L 1108.25 2048 L 615.861 2048 C 640.024 2014.68 687.258 1965.19 725.232 1948.63 L 730.202 1946.43 C 763.675 1955.33 799.447 1957.86 831.786 1970.42 C 848.697 1936.18 881.764 1903.02 914.892 1884.63 C 917.847 1882.99 924.134 1878.51 926.976 1878.2 C 930.511 1877.82 931.515 1878.7 934.998 1876.86 C 945.675 1871.21 954.883 1864.34 966.708 1860.94 C 978.585 1857.52 1005.28 1855.82 1014.61 1851.08 C 1015.2 1850.78 1015.77 1850.45 1016.36 1850.13 z"/>
<path transform="translate(0,0)" fill="rgb(253,112,34)" d="M 730.202 1946.43 C 763.675 1955.33 799.447 1957.86 831.786 1970.42 C 907.171 1987.33 981.813 2009.69 1055.62 2032.4 C 1068.71 2036.43 1097.7 2042.66 1108.25 2048 L 615.861 2048 C 640.024 2014.68 687.258 1965.19 725.232 1948.63 L 730.202 1946.43 z"/>
<path transform="translate(0,0)" fill="rgb(250,98,35)" d="M 1436.49 1592.89 C 1445.21 1590.98 1454.16 1585.86 1462.65 1582.85 C 1479 1577.05 1497.91 1572.42 1515 1569.34 C 1537.52 1565.28 1598.93 1566.13 1614.89 1558.58 C 1617.81 1557.2 1618.75 1555.44 1619.72 1552.51 C 1619.2 1549.82 1618.43 1548.23 1616.57 1546.29 C 1605.27 1534.52 1588.16 1526.11 1575.73 1512.27 C 1558.82 1493.44 1539.32 1465.91 1541.14 1439.2 C 1542.54 1418.74 1551.4 1399.13 1560.3 1380.95 C 1585.6 1329.25 1618.77 1301.81 1665.91 1271.66 C 1679.61 1262.9 1693.71 1255.9 1706.09 1245.18 C 1722.06 1254.52 1737.04 1265.48 1750.78 1277.89 C 1760.29 1285.81 1770.64 1297.13 1775.29 1308.74 L 1777.48 1308.31 C 1785.18 1311.23 1797.59 1334.9 1802.14 1342.42 C 1812.23 1314.82 1826.69 1286.91 1841.42 1261.49 C 1852.56 1267.93 1862.24 1276.66 1872.87 1283.88 C 1884.66 1291.89 1897.55 1298.81 1909.86 1306.03 C 1899.72 1329.23 1885.92 1350.1 1872.26 1371.31 C 1866.13 1380.83 1860.25 1390.96 1853.31 1399.9 C 1847.17 1407.44 1841.35 1415.22 1835.85 1423.24 C 1837.08 1431.44 1839.23 1439.74 1840.17 1447.92 C 1839.72 1461.16 1840.56 1474.45 1839.79 1487.67 C 1837.49 1526.89 1823.15 1560.91 1794.31 1587.82 C 1753.38 1626.02 1694.46 1633.51 1640.99 1638.49 C 1629.53 1639.56 1617.88 1639.84 1606.49 1641.45 C 1590.08 1643.78 1573.32 1646.13 1557.03 1649.08 C 1540.83 1652.01 1524.91 1655.46 1508.5 1657.19 C 1500.96 1663.9 1492.26 1672.47 1481.45 1672.22 C 1477.57 1672.13 1474.47 1671.04 1471.84 1668.14 L 1464.38 1668.86 C 1461.01 1667.36 1460.76 1666.34 1458.85 1663.29 C 1448.92 1665.09 1451.2 1675.33 1435.28 1674.49 C 1430.72 1671.74 1428.59 1669.09 1426.49 1664.25 L 1425.64 1664.44 C 1420.91 1668.91 1418.93 1670.09 1412.4 1670.3 C 1410.77 1669.67 1409.69 1669.19 1408.5 1667.84 C 1402.71 1661.25 1399.77 1641.35 1400.14 1632.54 C 1401.06 1611.13 1421.84 1606.3 1435.22 1594.08 C 1435.65 1593.69 1436.07 1593.28 1436.49 1592.89 z"/>
<path transform="translate(0,0)" fill="rgb(5,84,157)" d="M 1841.42 1261.49 C 1852.56 1267.93 1862.24 1276.66 1872.87 1283.88 C 1884.66 1291.89 1897.55 1298.81 1909.86 1306.03 C 1899.72 1329.23 1885.92 1350.1 1872.26 1371.31 C 1866.13 1380.83 1860.25 1390.96 1853.31 1399.9 C 1847.17 1407.44 1841.35 1415.22 1835.85 1423.24 C 1831.36 1403.2 1823.43 1382.86 1816.05 1363.7 C 1802.57 1369.67 1786.84 1369.25 1772.42 1372.11 C 1726.68 1381.18 1703.98 1397.92 1667.22 1423.79 C 1662.28 1427.26 1653.48 1433.6 1647.22 1431.99 C 1645.71 1431.6 1644.7 1430.27 1644.06 1428.89 C 1640.77 1421.76 1646.55 1408.49 1649.73 1401.77 C 1653.39 1393.85 1657.94 1386.36 1663.29 1379.47 C 1675.68 1363.54 1708.82 1330.03 1726.79 1322.2 C 1741.81 1315.65 1758.94 1314.67 1774.29 1309.12 C 1774.63 1309 1774.96 1308.87 1775.29 1308.74 L 1777.48 1308.31 C 1785.18 1311.23 1797.59 1334.9 1802.14 1342.42 C 1812.23 1314.82 1826.69 1286.91 1841.42 1261.49 z"/>
<path transform="translate(0,0)" fill="rgb(5,84,157)" d="M 1458.85 1663.29 C 1464.87 1651.53 1472.51 1644.37 1484.69 1639.21 C 1480.44 1643.72 1475.83 1648.17 1471.94 1652.98 C 1472 1657.92 1472.49 1663.25 1471.84 1668.14 L 1464.38 1668.86 C 1461.01 1667.36 1460.76 1666.34 1458.85 1663.29 z"/>
<path transform="translate(0,0)" fill="rgb(5,84,157)" d="M 1426.49 1664.25 C 1429.67 1649.88 1436.54 1639.83 1447 1629.8 C 1437.89 1646.42 1434.42 1655.11 1435.28 1674.49 C 1430.72 1671.74 1428.59 1669.09 1426.49 1664.25 z"/>
<path transform="translate(0,0)" fill="rgb(254,186,5)" d="M 1686.76 2004.62 C 1686.52 1993.75 1680.02 1971.18 1678.21 1958.54 C 1674.19 1930.48 1674.59 1894.48 1676.58 1866.26 C 1677.64 1851.19 1678.39 1835.67 1680.41 1820.7 C 1681.78 1810.62 1692.69 1763.15 1698.93 1757.74 C 1706.07 1760.73 1716.13 1760.6 1723.9 1761.97 C 1745.32 1765.73 1766.84 1769.73 1788.16 1774 C 1822.5 1780.88 1856.31 1790.64 1890.64 1797.8 C 1904.19 1800.63 1918.08 1801.66 1931.67 1804.28 C 1970.82 1811.82 2010.18 1822.33 2048 1834.83 L 2048 2048 L 1855.46 2048 C 1843.29 2041.35 1799.88 2032.72 1784.02 2028.92 C 1751.56 2021 1719.14 2012.9 1686.76 2004.62 z"/>
<path transform="translate(0,0)" fill="rgb(15,163,191)" d="M 1698.85 1757.31 C 1701.57 1747.65 1707.71 1737.85 1713.23 1729.51 C 1722.68 1715.24 1733.73 1700.45 1746.01 1688.49 C 1774.97 1660.26 1839.16 1621.17 1876.93 1604.84 C 1890.18 1599.12 1903.58 1593.44 1917.1 1588.4 C 1928.05 1584.32 1939.22 1580.93 1949.89 1576.14 C 1971.01 1566.52 1992.25 1557.16 2013.59 1548.06 C 2024.47 1543.45 2036.4 1537.47 2048 1535.13 L 2048 1834.83 C 2010.18 1822.33 1970.82 1811.82 1931.67 1804.28 C 1918.08 1801.66 1904.19 1800.63 1890.64 1797.8 C 1856.31 1790.64 1822.5 1780.88 1788.16 1774 C 1766.84 1769.73 1745.32 1765.73 1723.9 1761.97 C 1716.13 1760.6 1706.07 1760.73 1698.93 1757.74 L 1698.85 1757.31 z"/>
<path transform="translate(0,0)" fill="rgb(6,125,177)" d="M 1853.31 1399.9 C 1867.33 1402.84 1892.91 1424.33 1909.24 1431.91 C 1942.23 1447.23 1977.02 1454.92 2012.46 1462.19 C 2024.23 1464.61 2036.13 1467.6 2048 1469.41 L 2048 1488.46 C 2001.44 1477.99 1954.31 1469.71 1907.37 1460.95 C 1884.83 1456.74 1862.29 1454.34 1840.17 1447.92 C 1839.23 1439.74 1837.08 1431.44 1835.85 1423.24 C 1841.35 1415.22 1847.17 1407.44 1853.31 1399.9 z"/>
<path transform="translate(0,0)" fill="rgb(250,98,35)" d="M 1050.34 937.443 C 1073.7 954.108 1083.57 983.021 1099.53 1005.46 L 1100.57 1006.91 C 1108.57 1020 1116.3 1033.5 1125.48 1045.8 C 1168.49 1036.6 1189.93 1035.95 1232.35 1045.99 C 1240.19 1047.84 1247.96 1050.92 1255.79 1052.51 C 1292.49 1065.17 1338.82 1090.98 1369.89 1114.41 C 1368.67 1130.73 1370.58 1146.45 1371.47 1162.71 C 1372.02 1172.63 1371.81 1182.58 1372.21 1192.52 C 1373.4 1181.5 1372.34 1170.27 1374.29 1159.36 C 1376.79 1176.22 1383.52 1198.01 1397.57 1208.99 C 1400.11 1210.97 1403.07 1211.74 1406.15 1212.48 C 1415.11 1208.83 1427.23 1208.73 1436.84 1207.64 C 1446.32 1206.1 1458.36 1202.93 1467.79 1205.04 C 1485.86 1207.6 1517.59 1200.86 1533.72 1205.9 C 1562.05 1206.28 1589.09 1208.68 1616.95 1213.56 C 1623.92 1214.25 1630.76 1215.08 1637.58 1216.75 C 1650.99 1220.03 1697.39 1234.9 1705.42 1244.21 C 1705.67 1244.51 1705.86 1244.86 1706.09 1245.18 C 1693.71 1255.9 1679.61 1262.9 1665.91 1271.66 C 1618.77 1301.81 1585.6 1329.25 1560.3 1380.95 C 1551.4 1399.13 1542.54 1418.74 1541.14 1439.2 C 1539.32 1465.91 1558.82 1493.44 1575.73 1512.27 C 1588.16 1526.11 1605.27 1534.52 1616.57 1546.29 C 1618.43 1548.23 1619.2 1549.82 1619.72 1552.51 C 1618.75 1555.44 1617.81 1557.2 1614.89 1558.58 C 1598.93 1566.13 1537.52 1565.28 1515 1569.34 C 1497.91 1572.42 1479 1577.05 1462.65 1582.85 C 1454.16 1585.86 1445.21 1590.98 1436.49 1592.89 C 1403.31 1580.18 1354.27 1577.71 1318.52 1573.22 C 1303.89 1571.38 1289.48 1568.33 1274.79 1566.65 C 1258.62 1566.11 1242.63 1563.28 1226.43 1562.77 C 1195.06 1575.07 1153.64 1615.58 1134.26 1643.86 L 1133.43 1643.91 C 1113.06 1638.69 1092.4 1635 1071.82 1630.77 C 1026.14 1621.5 980.368 1612.67 934.52 1604.26 C 908.772 1599.52 866.589 1594.63 843.872 1585.61 C 835.03 1587.66 825.787 1588.35 817.112 1590.96 C 802.098 1595.47 777.849 1608.39 764.32 1609.34 C 756.582 1607.56 753.86 1605.62 748.474 1600 C 746.517 1603.6 744.564 1607.03 740.487 1608.51 C 736.365 1610.01 730.979 1608.78 727.287 1606.65 C 726.86 1606.41 726.444 1606.14 726.022 1605.89 C 724.266 1606.11 723.356 1606.01 721.642 1605.39 C 717.683 1603.95 715.32 1600.47 713.511 1596.89 C 713.231 1597.17 712.97 1597.47 712.671 1597.72 C 710.117 1599.92 707.523 1600.46 704.257 1600.4 C 702.512 1599.69 701.764 1599.19 700.603 1597.62 C 693.532 1588.09 698.001 1564.43 699.251 1553.24 C 694.447 1555.77 688.791 1558.22 683.438 1559.25 C 679.926 1559.93 676.041 1559.81 673.201 1557.32 C 667.996 1552.77 669.246 1543.46 669.162 1537.22 L 662.634 1536.17 C 658.101 1541.23 650.615 1549.48 643.463 1550.03 C 640.251 1550.28 637.109 1548.94 634.891 1546.64 C 632.35 1544 630.184 1540.8 627.806 1537.99 L 626.267 1538 L 625.495 1538.98 C 622.996 1542.11 621.292 1544.23 617.09 1544.83 C 612.473 1545.5 605.829 1542.28 601.756 1540.19 C 599.094 1535.64 596.778 1531.01 594.483 1526.27 C 598.422 1509.95 602.958 1489.74 613.516 1476.36 C 624.576 1462.34 646.444 1450.03 662.848 1443.68 C 677.097 1438.16 692.643 1434.3 707.451 1430.5 C 744.71 1420.93 781.934 1414.25 819.625 1406.93 C 833.168 1404.3 846.473 1400.56 860.015 1397.93 C 877.311 1394.58 894.822 1392.46 912.161 1389.36 C 924.936 1387.07 937.615 1384.19 950.5 1382.59 C 953.391 1377.49 956.612 1372.36 960.979 1368.4 C 968.643 1360.42 984.783 1329.37 992.293 1317.91 C 998.622 1308.26 1009.32 1297.61 1013.14 1287.02 C 1000.38 1274.69 987.373 1236.15 982.205 1218.13 C 989.262 1214.68 1020.82 1226.82 1033.2 1223.93 C 1035.88 1223.31 1036.58 1222.49 1037.87 1220.17 L 1037.32 1218.39 C 1029.26 1211.75 991.654 1208.31 979.858 1207.42 C 980.002 1196.85 979.951 1186.28 979.707 1175.72 C 993.81 1180.14 1008.41 1185.58 1022.98 1188.15 C 1027.05 1188.86 1031.74 1189.6 1035.3 1187.07 C 1036.05 1184.93 1035.89 1184.04 1035.24 1181.88 C 1030.43 1177 989.072 1165.23 979.692 1161.92 C 983.696 1144 985.804 1126.46 991.78 1108.97 C 996.951 1091.65 998.781 1073.84 1002.81 1056.31 C 1009.48 1027.36 1031.22 959.794 1050.34 937.443 z"/>
<path transform="translate(0,0)" fill="rgb(253,112,34)" d="M 1050.34 937.443 C 1073.7 954.108 1083.57 983.021 1099.53 1005.46 L 1100.57 1006.91 C 1108.57 1020 1116.3 1033.5 1125.48 1045.8 C 1168.49 1036.6 1189.93 1035.95 1232.35 1045.99 C 1240.19 1047.84 1247.96 1050.92 1255.79 1052.51 C 1292.49 1065.17 1338.82 1090.98 1369.89 1114.41 C 1368.67 1130.73 1370.58 1146.45 1371.47 1162.71 C 1372.02 1172.63 1371.81 1182.58 1372.21 1192.52 C 1371.79 1203.98 1368.96 1216.54 1366.41 1227.74 C 1361.87 1242.47 1348.23 1251.92 1342.39 1265.62 C 1342.17 1266.15 1341.92 1266.67 1341.7 1267.2 C 1341.55 1267.54 1341.42 1267.88 1341.28 1268.22 C 1343.23 1269.21 1344.57 1269.73 1345.69 1271.67 C 1345.29 1273.06 1345.47 1273.75 1344.13 1274.51 C 1340.1 1276.78 1336.34 1275.43 1332.1 1274.48 C 1321.29 1297.41 1270.45 1324.62 1246.57 1333.19 C 1183.88 1355.68 1111.69 1337.38 1053.51 1309.63 C 1042.89 1304.57 1022.23 1289.01 1013.14 1287.02 C 1000.38 1274.69 987.373 1236.15 982.205 1218.13 C 989.262 1214.68 1020.82 1226.82 1033.2 1223.93 C 1035.88 1223.31 1036.58 1222.49 1037.87 1220.17 L 1037.32 1218.39 C 1029.26 1211.75 991.654 1208.31 979.858 1207.42 C 980.002 1196.85 979.951 1186.28 979.707 1175.72 C 993.81 1180.14 1008.41 1185.58 1022.98 1188.15 C 1027.05 1188.86 1031.74 1189.6 1035.3 1187.07 C 1036.05 1184.93 1035.89 1184.04 1035.24 1181.88 C 1030.43 1177 989.072 1165.23 979.692 1161.92 C 983.696 1144 985.804 1126.46 991.78 1108.97 C 996.951 1091.65 998.781 1073.84 1002.81 1056.31 C 1009.48 1027.36 1031.22 959.794 1050.34 937.443 z"/>
<path transform="translate(0,0)" fill="rgb(5,84,157)" d="M 1332.1 1274.48 C 1316.4 1269.96 1300.75 1266.29 1284.78 1262.88 C 1275.92 1260.99 1265.75 1259.8 1257.27 1256.7 C 1251.6 1254.63 1246.38 1252.1 1242.4 1247.44 C 1243.22 1246.6 1244 1245.71 1244.86 1244.91 C 1249.25 1240.77 1326.71 1267.65 1340.08 1268.19 C 1340.48 1268.2 1340.88 1268.21 1341.28 1268.22 C 1343.23 1269.21 1344.57 1269.73 1345.69 1271.67 C 1345.29 1273.06 1345.47 1273.75 1344.13 1274.51 C 1340.1 1276.78 1336.34 1275.43 1332.1 1274.48 z"/>
<path transform="translate(0,0)" fill="rgb(5,84,157)" d="M 1106.17 1187.95 L 1105.31 1185.97 C 1106.79 1184.09 1107.04 1184.28 1109.33 1184 C 1121.89 1182.48 1145.24 1184.31 1155.83 1191.75 L 1156.43 1193.63 L 1155.01 1195.13 C 1154.98 1195.24 1154.92 1195.35 1154.91 1195.47 C 1154.86 1195.9 1154.85 1196.33 1154.81 1196.76 C 1154.77 1197.33 1154.71 1197.9 1154.66 1198.47 C 1153.69 1211.41 1138.67 1219.51 1136.47 1232.38 C 1135.65 1237.17 1136.25 1242.21 1139.22 1246.18 C 1149.58 1260.02 1166.21 1254.35 1180.11 1256.74 C 1180.88 1259.07 1180.75 1259.16 1179.9 1261.49 C 1174.85 1265.53 1167.37 1265.38 1161.18 1265.09 C 1147.99 1264.48 1139.78 1260.07 1131.16 1250.51 C 1122.48 1257.16 1111.67 1260.4 1100.76 1259.62 C 1090.7 1258.84 1080.02 1253.73 1073.76 1245.68 C 1069.47 1240.21 1067.6 1233.23 1068.58 1226.34 C 1070.54 1224.88 1070.51 1224.86 1072.95 1225.01 C 1076.23 1227.44 1077.28 1231.84 1079.09 1235.38 C 1082.24 1241.55 1089.55 1245.83 1095.99 1247.81 C 1103.24 1250.05 1111.33 1250.29 1118.02 1246.3 C 1124.82 1242.24 1125.79 1236.85 1127.41 1229.68 C 1116.44 1216.39 1111.64 1204.03 1106.17 1187.95 z"/>
<path transform="translate(0,0)" fill="rgb(5,84,157)" d="M 1211.22 1160.9 C 1212.52 1161.12 1214.29 1161.31 1215.55 1161.82 C 1220.62 1163.87 1224.47 1178.02 1227.05 1183.17 C 1232 1186.92 1238.38 1189.64 1244.7 1189.18 C 1256.05 1188.35 1259 1174.86 1265.09 1167.62 L 1267 1167.66 C 1267.27 1168 1267.58 1168.31 1267.81 1168.68 C 1271.13 1173.74 1268 1183.79 1266.45 1189.33 C 1264.32 1192.71 1262.02 1195.64 1258.84 1198.11 C 1251.13 1204.11 1241.46 1206.04 1231.89 1204.52 C 1221.49 1202.91 1212.22 1197.06 1206.3 1188.36 C 1202.97 1183.44 1200.78 1177.4 1202.22 1171.43 C 1203.47 1166.3 1206.99 1163.62 1211.22 1160.9 z"/>
<path transform="translate(0,0)" fill="rgb(5,84,157)" d="M 1043.93 1127.95 C 1045.78 1127.96 1048.8 1128.07 1050.5 1128.85 C 1055.93 1131.31 1057.29 1145.95 1059.34 1151.38 C 1060.8 1155.25 1063.43 1158.34 1067.29 1159.96 C 1070.89 1161.47 1075.03 1161.71 1078.9 1161.56 C 1100.72 1160.7 1095.61 1142.95 1106.33 1138.72 L 1107.77 1140.14 C 1109.73 1146.28 1109 1149.8 1107.19 1155.93 C 1105.67 1158.38 1104.03 1160.96 1102.18 1163.18 C 1096.2 1170.39 1087.04 1174.8 1077.74 1175.39 C 1066.86 1176.08 1054.7 1171.95 1046.8 1164.36 C 1041.69 1159.45 1037.66 1151.86 1037.76 1144.64 C 1037.84 1138.22 1039.39 1132.56 1043.93 1127.95 z"/>
<path transform="translate(0,0)" fill="rgb(5,84,157)" d="M 1236.36 1219.96 C 1249.86 1222.07 1263.26 1222.2 1276.79 1223.63 C 1288.73 1224.89 1300.5 1227.59 1312.47 1228.68 C 1322.78 1229.62 1333.63 1228.64 1343.76 1230.53 C 1345.22 1233.03 1344.77 1234.01 1344.51 1236.83 C 1343.08 1237.06 1341.64 1237.23 1340.19 1237.35 C 1321.9 1238.86 1296.5 1234.13 1277.54 1232.79 C 1266.25 1231.99 1254.81 1232.69 1243.56 1231.64 C 1241.2 1231.42 1239.4 1231.36 1237.52 1229.78 C 1235.83 1226.46 1236.18 1223.61 1236.36 1219.96 z"/>
<path transform="translate(0,0)" fill="rgb(5,84,157)" d="M 1616.95 1213.56 C 1623.92 1214.25 1630.76 1215.08 1637.58 1216.75 C 1650.99 1220.03 1697.39 1234.9 1705.42 1244.21 C 1705.67 1244.51 1705.86 1244.86 1706.09 1245.18 C 1693.71 1255.9 1679.61 1262.9 1665.91 1271.66 C 1618.77 1301.81 1585.6 1329.25 1560.3 1380.95 C 1551.4 1399.13 1542.54 1418.74 1541.14 1439.2 C 1539.32 1465.91 1558.82 1493.44 1575.73 1512.27 C 1588.16 1526.11 1605.27 1534.52 1616.57 1546.29 C 1618.43 1548.23 1619.2 1549.82 1619.72 1552.51 C 1618.75 1555.44 1617.81 1557.2 1614.89 1558.58 C 1598.93 1566.13 1537.52 1565.28 1515 1569.34 C 1497.91 1572.42 1479 1577.05 1462.65 1582.85 C 1454.16 1585.86 1445.21 1590.98 1436.49 1592.89 C 1403.31 1580.18 1354.27 1577.71 1318.52 1573.22 C 1303.89 1571.38 1289.48 1568.33 1274.79 1566.65 C 1274.77 1566.29 1274.73 1565.94 1274.73 1565.58 C 1274.81 1560.2 1278.76 1555.81 1282.4 1552.25 C 1292.47 1542.41 1306.36 1535.82 1319.08 1530.16 C 1371.66 1506.73 1432.03 1510.06 1488.05 1515.59 C 1504.84 1517.25 1521.51 1520.21 1538.4 1520.55 C 1527.13 1495.3 1512.86 1467.98 1511.76 1439.86 C 1511.02 1420.98 1516.15 1401.93 1520.57 1383.71 C 1531.72 1337.77 1549.15 1291.99 1579.26 1254.81 C 1590.88 1240.46 1604.47 1227.21 1616.95 1213.56 z"/>
<path transform="translate(0,0)" fill="rgb(5,84,157)" d="M 594.483 1526.27 C 598.422 1509.95 602.958 1489.74 613.516 1476.36 C 624.576 1462.34 646.444 1450.03 662.848 1443.68 C 677.097 1438.16 692.643 1434.3 707.451 1430.5 C 744.71 1420.93 781.934 1414.25 819.625 1406.93 C 833.168 1404.3 846.473 1400.56 860.015 1397.93 C 877.311 1394.58 894.822 1392.46 912.161 1389.36 C 924.936 1387.07 937.615 1384.19 950.5 1382.59 L 945.049 1394.3 C 955.777 1400.36 1007.55 1424.05 1011.7 1429.56 L 1011.36 1432.22 C 1001.77 1439.38 931.427 1453.21 912.818 1458.02 C 897.913 1461.87 884.034 1468.1 869.416 1472.68 C 850.557 1478.6 831.386 1483.13 812.622 1489.48 C 786.107 1498.47 726.713 1523.09 707.134 1540.87 C 703.115 1544.52 700.994 1548.16 699.251 1553.24 C 694.447 1555.77 688.791 1558.22 683.438 1559.25 C 679.926 1559.93 676.041 1559.81 673.201 1557.32 C 667.996 1552.77 669.246 1543.46 669.162 1537.22 L 662.634 1536.17 C 658.101 1541.23 650.615 1549.48 643.463 1550.03 C 640.251 1550.28 637.109 1548.94 634.891 1546.64 C 632.35 1544 630.184 1540.8 627.806 1537.99 L 626.267 1538 L 625.495 1538.98 C 622.996 1542.11 621.292 1544.23 617.09 1544.83 C 612.473 1545.5 605.829 1542.28 601.756 1540.19 C 599.094 1535.64 596.778 1531.01 594.483 1526.27 z"/>
<path transform="translate(0,0)" fill="rgb(250,98,35)" d="M 681.704 1507.46 C 677.711 1517.11 674.144 1528.12 669.162 1537.22 L 662.634 1536.17 C 666.443 1522.82 671.08 1516.2 681.704 1507.46 z"/>
<path transform="translate(0,0)" fill="rgb(250,98,35)" d="M 665.311 1479.86 C 666.256 1480.17 665.816 1479.87 666.404 1481.02 C 662.073 1485.25 656.841 1488.43 652.365 1492.52 C 640.763 1503.12 633.702 1515.83 626.46 1529.53 L 624.788 1528.17 C 624.233 1525.59 624.319 1523.75 625.082 1521.25 C 630.644 1503.06 649.457 1488.6 665.311 1479.86 z"/>
<path transform="translate(0,0)" fill="rgb(254,158,155)" d="M 843.872 1585.61 C 886.748 1568.69 991.229 1556.52 1039.56 1553.44 C 1055.59 1552.42 1071.89 1552.87 1087.95 1552.75 C 1122.02 1552.5 1154.99 1552.61 1188.9 1556.33 C 1201.46 1557.7 1214.36 1558.88 1226.43 1562.77 C 1195.06 1575.07 1153.64 1615.58 1134.26 1643.86 L 1133.43 1643.91 C 1113.06 1638.69 1092.4 1635 1071.82 1630.77 C 1026.14 1621.5 980.368 1612.67 934.52 1604.26 C 908.772 1599.52 866.589 1594.63 843.872 1585.61 z"/>
<path transform="translate(0,0)" fill="rgb(5,84,157)" d="M 1467.79 1205.04 C 1485.86 1207.6 1517.59 1200.86 1533.72 1205.9 L 1537.38 1217.43 C 1533.34 1231.24 1526.65 1245.82 1520.05 1258.6 C 1510.71 1276.67 1498.41 1292.88 1487.92 1310.26 C 1473.91 1333.48 1459.61 1371.57 1438.54 1388.22 C 1435.18 1390.87 1430.56 1392.81 1426.22 1391.72 C 1423.94 1391.16 1422.03 1389.6 1421.03 1387.47 C 1417 1379 1427.48 1358.69 1431.05 1350.57 C 1444.99 1318.93 1455.26 1280.51 1461.65 1246.44 C 1464.21 1232.73 1463.75 1218.41 1467.79 1205.04 z"/>
<path transform="translate(0,0)" fill="rgb(5,84,157)" d="M 1372.21 1192.52 C 1373.4 1181.5 1372.34 1170.27 1374.29 1159.36 C 1376.79 1176.22 1383.52 1198.01 1397.57 1208.99 C 1400.11 1210.97 1403.07 1211.74 1406.15 1212.48 C 1406.04 1212.77 1405.92 1213.05 1405.81 1213.33 C 1402.32 1222.84 1404.85 1234.63 1403.54 1244.67 C 1400.03 1271.47 1383.33 1325.2 1356.99 1337.82 C 1353.9 1339.3 1351.29 1339.95 1347.88 1339.8 C 1345.45 1338.53 1344.65 1338.32 1343.81 1335.49 C 1340 1322.67 1373.12 1262.06 1366.41 1227.74 C 1368.96 1216.54 1371.79 1203.98 1372.21 1192.52 z"/>
<path transform="translate(0,0)" fill="rgb(5,84,157)" d="M 748.474 1600 C 747.189 1594.13 749.006 1587.99 752.117 1582.93 C 761.08 1568.36 779.97 1563.65 795.304 1559.38 C 781.927 1572.95 764.229 1585.12 764.167 1606.47 C 764.162 1608.11 764.179 1607.98 764.32 1609.34 C 756.582 1607.56 753.86 1605.62 748.474 1600 z"/>
<path transform="translate(0,0)" fill="rgb(5,84,157)" d="M 713.511 1596.89 C 715.496 1585.24 717.55 1570.08 728.067 1562.79 C 731.799 1560.21 735.919 1557.97 740.52 1557.84 L 742.076 1558.99 C 742.382 1564.78 734.863 1570.97 732.511 1576.56 C 728.662 1585.72 726.665 1596.01 726.022 1605.89 C 724.266 1606.11 723.356 1606.01 721.642 1605.39 C 717.683 1603.95 715.32 1600.47 713.511 1596.89 z"/>
<path transform="translate(0,0)" fill="url(#Gradient1)" d="M 656.537 1358.79 L 658.208 1358.7 C 668.065 1358.09 678.206 1355.7 688.011 1354.3 C 706.734 1351.63 726.029 1349.36 744.891 1348.27 C 777.563 1346.38 809.7 1349.29 842.152 1352.54 C 866.606 1355 890.81 1357.45 915.125 1361.03 C 930.273 1363.26 946.117 1364.76 960.979 1368.4 C 956.612 1372.36 953.391 1377.49 950.5 1382.59 C 937.615 1384.19 924.936 1387.07 912.161 1389.36 C 894.822 1392.46 877.311 1394.58 860.015 1397.93 C 846.473 1400.56 833.168 1404.3 819.625 1406.93 C 781.934 1414.25 744.71 1420.93 707.451 1430.5 C 692.643 1434.3 677.097 1438.16 662.848 1443.68 C 646.444 1450.03 624.576 1462.34 613.516 1476.36 C 602.958 1489.74 598.422 1509.95 594.483 1526.27 C 596.778 1531.01 599.094 1535.64 601.756 1540.19 C 605.829 1542.28 612.473 1545.5 617.09 1544.83 C 621.292 1544.23 622.996 1542.11 625.495 1538.98 L 626.267 1538 L 627.806 1537.99 C 630.184 1540.8 632.35 1544 634.891 1546.64 C 637.109 1548.94 640.251 1550.28 643.463 1550.03 C 650.615 1549.48 658.101 1541.23 662.634 1536.17 L 669.162 1537.22 C 669.246 1543.46 667.996 1552.77 673.201 1557.32 C 676.041 1559.81 679.926 1559.93 683.438 1559.25 C 688.791 1558.22 694.447 1555.77 699.251 1553.24 C 698.001 1564.43 693.532 1588.09 700.603 1597.62 C 701.764 1599.19 702.512 1599.69 704.257 1600.4 C 707.523 1600.46 710.117 1599.92 712.671 1597.72 C 712.97 1597.47 713.231 1597.17 713.511 1596.89 C 715.32 1600.47 717.683 1603.95 721.642 1605.39 C 723.356 1606.01 724.266 1606.11 726.022 1605.89 C 726.444 1606.14 726.86 1606.41 727.287 1606.65 C 730.979 1608.78 736.365 1610.01 740.487 1608.51 C 744.564 1607.03 746.517 1603.6 748.474 1600 C 753.86 1605.62 756.582 1607.56 764.32 1609.34 C 777.849 1608.39 802.098 1595.47 817.112 1590.96 C 825.787 1588.35 835.03 1587.66 843.872 1585.61 C 866.589 1594.63 908.772 1599.52 934.52 1604.26 C 980.368 1612.67 1026.14 1621.5 1071.82 1630.77 C 1092.4 1635 1113.06 1638.69 1133.43 1643.91 C 1103.15 1677.94 1093.24 1725.21 1096.01 1769.56 C 1098.63 1811.52 1120.92 1844.47 1147.99 1874.84 C 1137.94 1876.36 1037.02 1853.85 1016.36 1850.13 C 1015.77 1850.45 1015.2 1850.78 1014.61 1851.08 C 1005.28 1855.82 978.585 1857.52 966.708 1860.94 C 954.883 1864.34 945.675 1871.21 934.998 1876.86 C 931.515 1878.7 930.511 1877.82 926.976 1878.2 C 924.134 1878.51 917.847 1882.99 914.892 1884.63 C 881.764 1903.02 848.697 1936.18 831.786 1970.42 C 799.447 1957.86 763.675 1955.33 730.202 1946.43 L 725.232 1948.63 C 687.258 1965.19 640.024 2014.68 615.861 2048 L 417.329 2048 C 412.611 2038.79 405.346 2030.43 398.884 2022.37 C 392.228 2014.06 385.617 2005.39 378.226 1997.72 C 355.931 1974.6 326.111 1955.03 297.673 1940.58 C 299.972 1908.51 305.012 1876.85 305.312 1844.6 C 321.892 1845.09 339.658 1850.27 355.921 1853.74 C 359.139 1816.69 368.638 1739.31 388.158 1708.51 C 367.587 1705 347.651 1698.24 326.984 1694.64 C 317.536 1663.1 306.285 1618.34 307.034 1585.83 C 307.394 1570.24 310.396 1554.35 311.997 1538.81 C 313.244 1526.71 312.661 1513.5 315.728 1501.74 C 320.964 1481.66 359.934 1455.32 377.478 1444.7 C 401.298 1430.28 428.496 1418.71 454.59 1409.11 C 474.077 1401.94 494.536 1395.81 514.532 1390.15 C 531.527 1385.34 643.981 1355.65 656.537 1358.79 z"/>
<path transform="translate(0,0)" fill="rgb(251,104,103)" d="M 388.158 1708.51 C 399.19 1710.08 410.069 1713.08 421.046 1715.08 C 485.86 1726.89 549.952 1742.74 614.064 1757.85 C 694.371 1776.77 775.039 1793.89 855.263 1813.22 C 876.673 1818.38 898.328 1822.45 919.791 1827.37 C 934.037 1830.63 948.087 1834.61 962.372 1837.77 C 978.547 1841.35 1001.3 1844.49 1016.36 1850.13 C 1015.77 1850.45 1015.2 1850.78 1014.61 1851.08 C 1005.28 1855.82 978.585 1857.52 966.708 1860.94 C 954.883 1864.34 945.675 1871.21 934.998 1876.86 C 931.515 1878.7 930.511 1877.82 926.976 1878.2 C 924.134 1878.51 917.847 1882.99 914.892 1884.63 C 881.764 1903.02 848.697 1936.18 831.786 1970.42 C 799.447 1957.86 763.675 1955.33 730.202 1946.43 L 725.232 1948.63 C 687.258 1965.19 640.024 2014.68 615.861 2048 L 417.329 2048 C 412.611 2038.79 405.346 2030.43 398.884 2022.37 C 392.228 2014.06 385.617 2005.39 378.226 1997.72 C 355.931 1974.6 326.111 1955.03 297.673 1940.58 C 299.972 1908.51 305.012 1876.85 305.312 1844.6 C 321.892 1845.09 339.658 1850.27 355.921 1853.74 C 359.139 1816.69 368.638 1739.31 388.158 1708.51 z"/>
<path transform="translate(0,0)" fill="rgb(254,186,5)" d="M 305.312 1844.6 C 321.892 1845.09 339.658 1850.27 355.921 1853.74 C 373.15 1860.24 392.528 1863.4 410.484 1867.52 L 519.118 1891.91 C 565.392 1902.5 610.523 1917.51 656.55 1929.13 C 680.484 1935.17 707.124 1937.77 730.202 1946.43 L 725.232 1948.63 C 687.258 1965.19 640.024 2014.68 615.861 2048 L 417.329 2048 C 412.611 2038.79 405.346 2030.43 398.884 2022.37 C 392.228 2014.06 385.617 2005.39 378.226 1997.72 C 355.931 1974.6 326.111 1955.03 297.673 1940.58 C 299.972 1908.51 305.012 1876.85 305.312 1844.6 z"/>
<path transform="translate(0,0)" fill="rgb(254,158,155)" d="M 656.537 1358.79 L 658.208 1358.7 C 668.065 1358.09 678.206 1355.7 688.011 1354.3 C 706.734 1351.63 726.029 1349.36 744.891 1348.27 C 777.563 1346.38 809.7 1349.29 842.152 1352.54 C 866.606 1355 890.81 1357.45 915.125 1361.03 C 930.273 1363.26 946.117 1364.76 960.979 1368.4 C 956.612 1372.36 953.391 1377.49 950.5 1382.59 C 937.615 1384.19 924.936 1387.07 912.161 1389.36 C 894.822 1392.46 877.311 1394.58 860.015 1397.93 C 846.473 1400.56 833.168 1404.3 819.625 1406.93 C 781.934 1414.25 744.71 1420.93 707.451 1430.5 C 692.643 1434.3 677.097 1438.16 662.848 1443.68 C 646.444 1450.03 624.576 1462.34 613.516 1476.36 C 602.958 1489.74 598.422 1509.95 594.483 1526.27 C 596.778 1531.01 599.094 1535.64 601.756 1540.19 C 595.834 1539.97 589.175 1538.02 583.272 1536.99 C 564.74 1533.75 546.448 1529.93 528.047 1526.04 L 407.747 1501.52 C 381.391 1496.2 354.68 1489.54 327.953 1486.67 C 343.173 1470.9 360.419 1457.23 379.237 1446 C 454.217 1401.22 570.634 1375.02 656.537 1358.79 z"/>
<path transform="translate(0,0)" fill="rgb(251,104,103)" d="M 96.4162 1115.21 C 96.7491 1115.26 97.0814 1115.32 97.415 1115.37 C 106.235 1116.67 114.361 1112.96 123.145 1113.69 C 169.229 1117.54 222.091 1134.72 251.17 1172.79 C 262.335 1187.4 269.128 1204.79 273.056 1222.67 C 281.553 1261.34 279.322 1326.62 278.745 1367.54 C 278.602 1377.64 276.383 1396.23 280.094 1405.01 C 278.336 1410.03 280.28 1462.55 280.256 1471.23 L 280.027 1595.6 C 279.862 1611.6 278.332 1627.65 278.49 1643.63 C 278.599 1654.71 278.304 1674.06 282.05 1684.11 C 295.711 1689.65 312.489 1691.55 326.984 1694.64 C 347.651 1698.24 367.587 1705 388.158 1708.51 C 368.638 1739.31 359.139 1816.69 355.921 1853.74 C 339.658 1850.27 321.892 1845.09 305.312 1844.6 C 305.012 1876.85 299.972 1908.51 297.673 1940.58 C 326.111 1955.03 355.931 1974.6 378.226 1997.72 C 385.617 2005.39 392.228 2014.06 398.884 2022.37 C 405.346 2030.43 412.611 2038.79 417.329 2048 L 0 2048 L 0 1856.06 L 0 1617.99 L 0 1287.17 L 0 1218.52 C 5.88847 1208.91 9.68208 1197.28 15.2222 1187.27 C 31.3981 1158.02 63.4239 1124.71 96.4162 1115.21 z"/>
<path transform="translate(0,0)" fill="rgb(15,163,191)" d="M 183.988 1811.74 C 200.41 1816.83 216.83 1822.16 233.536 1826.24 C 250.903 1830.49 268.918 1833.53 286.021 1838.65 C 292.31 1840.94 298.661 1843.59 305.312 1844.6 C 305.012 1876.85 299.972 1908.51 297.673 1940.58 C 326.111 1955.03 355.931 1974.6 378.226 1997.72 C 385.617 2005.39 392.228 2014.06 398.884 2022.37 C 405.346 2030.43 412.611 2038.79 417.329 2048 L 0 2048 L 0 1856.06 C 22.3631 1855.99 44.966 1855.25 67.3044 1856.16 C 77.2207 1856.56 87.0982 1858.02 96.9798 1858.91 C 106.678 1859.77 116.396 1859.91 125.997 1861.72 C 138.867 1864.15 151.896 1867.89 164.479 1871.55 C 170.689 1873.36 177.471 1876.32 183.869 1877.08 C 184.236 1855.26 183.154 1833.61 183.988 1811.74 z"/>
<path transform="translate(0,0)" fill="rgb(5,84,157)" d="M 183.988 1811.74 C 200.41 1816.83 216.83 1822.16 233.536 1826.24 C 250.903 1830.49 268.918 1833.53 286.021 1838.65 C 292.31 1840.94 298.661 1843.59 305.312 1844.6 C 305.012 1876.85 299.972 1908.51 297.673 1940.58 C 295.617 1959.79 291.165 1994.76 283.157 2011.91 C 280.654 2017.26 277.018 2022.61 271.11 2024.45 C 262.835 2027.02 209.981 2010.79 201.437 2005.43 C 184.726 1977.56 185.117 1909.94 183.869 1877.08 C 184.236 1855.26 183.154 1833.61 183.988 1811.74 z"/>
<path transform="translate(0,0)" fill="rgb(253,112,34)" d="M 0 1617.99 C 33.1797 1619.73 66.6045 1621.53 99.83 1620.84 C 100.047 1656.02 100.517 1691.21 101.24 1726.38 C 101.763 1747.33 103.121 1768.21 103.337 1789.18 C 129.549 1798.15 158.426 1800.37 183.988 1811.74 C 183.154 1833.61 184.236 1855.26 183.869 1877.08 C 177.471 1876.32 170.689 1873.36 164.479 1871.55 C 151.896 1867.89 138.867 1864.15 125.997 1861.72 C 116.396 1859.91 106.678 1859.77 96.9798 1858.91 C 87.0982 1858.02 77.2207 1856.56 67.3044 1856.16 C 44.966 1855.25 22.3631 1855.99 0 1856.06 L 0 1617.99 z"/>
<path transform="translate(0,0)" fill="rgb(6,125,177)" d="M 0 1287.17 C 14.888 1330.86 22.5827 1355.97 66.5213 1377.62 C 76.3522 1382.46 85.6325 1387.67 91.8558 1397.02 C 95.6136 1451.95 95.3667 1507.05 96.6289 1562.06 C 97.0748 1581.49 101.082 1601.42 99.83 1620.84 C 66.6045 1621.53 33.1797 1619.73 0 1617.99 L 0 1287.17 z"/>
<path transform="translate(0,0)" fill="rgb(243,62,61)" d="M 282.05 1684.11 C 295.711 1689.65 312.489 1691.55 326.984 1694.64 C 347.651 1698.24 367.587 1705 388.158 1708.51 C 368.638 1739.31 359.139 1816.69 355.921 1853.74 C 339.658 1850.27 321.892 1845.09 305.312 1844.6 C 298.661 1843.59 292.31 1840.94 286.021 1838.65 C 286.753 1825.3 285.613 1811.34 285.32 1797.92 C 284.492 1759.99 282.301 1722.05 282.05 1684.11 z"/>
<path transform="translate(0,0)" fill="rgb(254,186,5)" d="M 559.248 863.065 C 584.483 862.5 617.709 859.682 641.608 866.938 C 638.155 878.167 640.181 908.447 639.87 921.357 C 639.524 935.689 637.34 949.857 636.597 964.152 C 633.719 1019.54 637.332 1062.05 655.863 1114.47 C 659.923 1126.55 664.087 1138.17 669.54 1149.71 C 690.15 1182.92 691.731 1250.8 692.336 1290.32 C 591.594 1298.38 358.412 1342.43 280.094 1405.01 C 276.383 1396.23 278.602 1377.64 278.745 1367.54 C 279.322 1326.62 281.553 1261.34 273.056 1222.67 C 269.128 1204.79 262.335 1187.4 251.17 1172.79 C 222.091 1134.72 169.229 1117.54 123.145 1113.69 C 114.361 1112.96 106.235 1116.67 97.415 1115.37 C 97.0814 1115.32 96.7491 1115.26 96.4162 1115.21 C 137.78 1097.15 253.067 1096.17 301.376 1095.84 C 305.861 1043.52 318.111 1009.27 342.745 963.625 C 345.61 958.315 347.839 952.591 350.882 947.434 L 350.775 946.688 C 356.871 942.721 373.494 921.497 381.805 914.457 C 417.43 884.279 459.948 876.164 503.585 864.792 C 521.243 864.605 541.959 865.673 559.248 863.065 z"/>
<path transform="translate(0,0)" fill="rgb(251,104,103)" d="M 559.248 863.065 C 584.483 862.5 617.709 859.682 641.608 866.938 C 638.155 878.167 640.181 908.447 639.87 921.357 C 639.524 935.689 637.34 949.857 636.597 964.152 C 633.719 1019.54 637.332 1062.05 655.863 1114.47 C 659.923 1126.55 664.087 1138.17 669.54 1149.71 C 649.861 1139.77 630.22 1129.94 609.36 1122.65 C 584.721 1114.05 558.741 1108.8 533.281 1103.16 C 480.605 1096.4 427.646 1095.98 374.631 1095.81 C 350.268 1095.74 325.713 1094.82 301.376 1095.84 C 305.861 1043.52 318.111 1009.27 342.745 963.625 C 345.61 958.315 347.839 952.591 350.882 947.434 L 350.775 946.688 C 356.871 942.721 373.494 921.497 381.805 914.457 C 417.43 884.279 459.948 876.164 503.585 864.792 C 521.243 864.605 541.959 865.673 559.248 863.065 z"/>
<path transform="translate(0,0)" fill="rgb(15,163,191)" d="M 350.882 947.434 L 351.583 948.385 C 359.712 959.586 365.937 972.07 374.158 983.223 C 403.61 1023.18 443.139 1053.51 485.546 1078.67 C 495.054 1084.31 528.871 1097.85 533.281 1103.16 C 480.605 1096.4 427.646 1095.98 374.631 1095.81 C 350.268 1095.74 325.713 1094.82 301.376 1095.84 C 305.861 1043.52 318.111 1009.27 342.745 963.625 C 345.61 958.315 347.839 952.591 350.882 947.434 z"/>
<path transform="translate(0,0)" fill="rgb(15,163,191)" d="M 642.871 867.017 C 651.701 867.697 660.495 868.362 669.271 869.587 C 680.998 872.438 692.951 873.968 704.785 876.298 C 745.371 884.287 784.932 893.923 820.848 915.203 C 807.807 928.828 799.289 945.574 788.77 961.077 C 780.419 973.386 770.848 985.317 761.597 996.985 C 750.933 1010.44 738.727 1022.91 727.259 1035.7 L 655.863 1114.47 C 637.332 1062.05 633.719 1019.54 636.597 964.152 C 637.34 949.857 639.524 935.689 639.87 921.357 C 640.181 908.447 638.155 878.167 641.608 866.938 L 642.871 867.017 z"/>
<path transform="translate(0,0)" fill="rgb(5,84,157)" d="M 864.181 1202.49 C 892.916 1189.06 926.986 1196.68 956.494 1202.89 C 964.262 1204.53 972.118 1205.63 979.858 1207.42 C 991.654 1208.31 1029.26 1211.75 1037.32 1218.39 L 1037.87 1220.17 C 1036.58 1222.49 1035.88 1223.31 1033.2 1223.93 C 1020.82 1226.82 989.262 1214.68 982.205 1218.13 C 978.422 1214.9 919.189 1207.78 911.309 1207.39 C 898.873 1206.77 884.497 1208.96 872.435 1206.53 C 869.456 1205.92 866.725 1204.08 864.181 1202.49 z"/>
<path transform="translate(0,0)" fill="rgb(5,84,157)" d="M 885.09 1149.23 C 916.362 1147.04 949.328 1155.09 979.692 1161.92 C 989.072 1165.23 1030.43 1177 1035.24 1181.88 C 1035.89 1184.04 1036.05 1184.93 1035.3 1187.07 C 1031.74 1189.6 1027.05 1188.86 1022.98 1188.15 C 1008.41 1185.58 993.81 1180.14 979.707 1175.72 C 962.384 1166.4 913.518 1160 892.9 1157.74 C 890.032 1155.22 887.597 1152.11 885.09 1149.23 z"/>
<path transform="translate(0,0)" fill="rgb(254,158,155)" d="M 1776.09 0 L 2048 0 L 2048 171.581 C 1977.98 201.001 1924.62 245.522 1884.48 310.203 C 1875.84 324.12 1866.87 338.443 1860.75 353.677 C 1859.96 355.64 1859.55 357.177 1859.28 359.25 C 1846.22 351.946 1823.46 355.032 1808.65 355.219 C 1809.07 351.051 1808.77 347.174 1808.32 343.028 C 1804.87 311.014 1781.36 248.828 1763.3 222.302 C 1751.09 204.369 1734.9 187.786 1718.02 174.144 C 1755.36 124.288 1772.26 61.5595 1776.09 0 z"/>
</svg>