<svg xmlns="http://www.w3.org/2000/svg" width="1365.333" height="1365.333" preserveAspectRatio="xMidYMid meet" version="1.0" viewBox="0 0 1024 1024"><g fill="#000" stroke="none"><path d="M269.3.6c.8 1.3-3.4 4.4-5.9 4.4-.9 0-2.3.8-3 1.7-.8 1.1-1.3 1.3-1.4.5 0-2-2.6-1.4-4.3 1-1.7 2.7-3.1 1.8-3.2-1.9 0-1.5-.7-2.8-1.5-3.1-1.2-.3-1.2-.2-.3.8.6.7.9 1.9.6 2.6-.3.8 0 2 .6 2.8.9 1.1.8 1.5-.5 2-1.8.7-3.7-1.1-2.8-2.6.3-.4 0-.8-.5-.8-1.5 0-1.4 2.3.2 3.9 1 1.2.8 1.3-.8.6-1.1-.5-3-.8-4.2-.8-1.3.1-2.3-.2-2.3-.7 0-.4-.8-1.7-1.9-2.8-1.8-2.2-5.1-3-5.1-1.3 0 .5.8.8 1.8.7.9 0 1.6.5 1.4 1.2-.1.8.2 1.1.7.7.6-.3 1.5.4 2.1 1.5s1.6 2 2.3 1.9 2-.1 3 0c2.4.1 1.1 2.1-1.3 2.1-1.1 0-2.4.9-3 2s-1.7 2-2.4 2c-1.5 0-5.2 3.8-4.4 4.5.3.3 1.3-.4 2.3-1.5s2.4-2 3.1-2 1.8-.9 2.4-2 1.9-2 3-2c1 0 2.2-.5 2.5-1 .3-.6 2.6-1.9 4.9-3 2.4-1.1 4.6-2.7 5-3.6.5-1.4.9-1.4 2.2-.3 1.4 1.1 1.8 1.1 2.8-.2.6-.9 2.2-1.8 3.6-2.2 1.4-.3 3.4-1.3 4.5-2.1 1.7-1.2 1.8-1.7.6-2.8-.8-.7-1.1-.8-.8-.2m7.8.4c-.1 2.8 1.4 3.7 7.4 4.5 11.9 1.4 32.6 9.8 43.9 17.9 15.9 11.2 37.8 31.2 63.5 58 5.6 5.7 10.3 10.1 10.6 9.7.2-.5-10.9-12.1-24.8-25.9-21.6-21.5-35.1-33.5-48.2-42.8-11-7.8-32.6-16.4-44.8-17.9-4.6-.6-6-1.2-6.7-2.9-.5-1.2-.9-1.5-.9-.6m140.4 2.7c-.3 2.1-1.6 8.7-3 14.8-4.4 19.9-6.8 34.8-8 49.5-.3 4.1-1 10.2-1.5 13.5-1.8 12.2-1.9 13.5-.7 13.5.7 0 2.4 1.4 3.8 3.2 2.5 3 2.8 3.1 5.8 1.8 3.9-1.6 3.5-2.5-.4-1-2.5 1-3.1.7-5.7-2.2-3.2-3.7-3.2-1.6-.4-28.3 2.3-21.7 4.7-36.3 8.6-51.5 1.9-7.6 3.3-17 2.5-17-.2 0-.7 1.7-1 3.7M525 .8c0 .5 3 4.1 6.7 7.8C547.6 25 552 30.8 561.3 47c4.5 7.9 10.8 24.2 14.7 38 .7 2.5 1.6 5.4 2 6.5.5 1.1 1.1 3.1 1.4 4.5s1.5 6.5 2.6 11.5c2.6 11.7 3.8 19.1 5.8 35.2 1.2 9.6 2 13.3 2.9 13.3 1.9 0 1 16.2-2.7 52.3-1.3 13.5-3.6 21.4-9.9 34.7-5.2 11.2-23.4 26-34.9 28.5-1.8.4-3.5 1.2-3.8 1.9-.3.8-2.3 1.1-5.4 1-3.8-.2-4.8 0-4.3 1.1.5 1.4-.3 1.7-7.4 2.9-2.2.4-3.3.1-3.7-.9-.8-2.2-5.9-1.8-7.9.5-1.4 1.6-2.4 1.9-5.7 1.4-4.2-.7-11 .2-11 1.4 0 .4.9.8 2 .8s2-.4 2-.8c0-.5 3.1-.7 6.9-.4 6.1.3 7 .1 7.4-1.5.6-2.3 4.5-2.5 5.4-.4.7 2.1 8.7 1.1 12.5-1.6 2.8-2 5-2.4 6.2-1.2 1.4 1.4 3.4 1 3.9-.7.3-1.2 2.1-2.3 4.8-3 6.6-1.8 11.7-4.7 19.6-11.1 8.2-6.7 12.1-11.5 14.7-17.9 1-2.5 2.7-6.4 3.8-8.8 4.1-9.5 5.3-16.8 7.8-47.7 2.8-34.9 2.8-35.2 6.5-42.3 2-3.7 4.4-8.1 5.5-9.7 1.1-1.7 2.3-3.7 2.7-4.5 1.5-3.2 13.7-20.2 16.9-23.7 1.9-2 3.4-3.9 3.4-4.3 0-1.5 26.8-28 28.3-28 .9 0 2.2-.9 3-2 .7-1 3.3-2.8 5.8-3.9 2.4-1.2 5.1-2.5 5.9-3.1 2.4-1.6 16.5-7.8 21.2-9.4 2.4-.8 6.6-1.6 9.3-1.8 5.7-.3 5.7-.3 3.6 10.2-2.5 11.9-3.2 24.1-2.6 43 .5 18.2 3 40.6 5.6 50.5 3.5 13.2 12.9 28.6 24.6 40.4 5.1 5.2 9.6 9.2 9.9 8.8.3-.3-3.1-4-7.5-8.2-10.5-10.1-21.8-27.4-25.2-38.6-4.6-15.5-8-59.1-6.1-79 .6-6.3 1.6-13.9 2.3-16.9.6-3 1.2-6.9 1.3-8.5.1-3 .1-3-4.9-2.8-2.7.1-7 .7-9.5 1.4-6.5 1.8-33.3 14.9-34.8 17.1-.7 1-2 1.8-2.9 1.8-1.5 0-28.3 26.5-28.3 28 0 .4-1.5 2.3-3.4 4.3-3.2 3.5-15.4 20.5-16.9 23.7-.4.8-1.6 2.8-2.7 4.5-3.7 5.5-9 16.9-9 19.2 0 1.3-.6 2.3-1.3 2.3-1 0-1.8-3.8-3-13.3-2.1-16.8-5-33.1-7.6-42.7-4.3-15.7-6-21.7-7.9-27.5-2.4-7.2-8.1-20.6-10.9-25.5-7.2-12.6-10.3-17.2-16.4-24.1C536.5 11.3 525-.3 525 .8m199.1 2.9c-1.1 2.1-2.9 5.4-4 7.3-8.3 14.5-15.5 32.1-14.9 36.9.4 3.1-1.2 3 33.3 1.7 18.6-.7 23.8-.6 33.5.8 12.9 1.9 27.7 5.5 36 8.8 17 6.6 48.4 24.7 47.8 27.5-.2.7-6.8 8.1-14.8 16.6-20.6 21.8-30.3 32.7-29.7 33.3.2.3 4-3.4 8.3-8.2 4.4-4.8 14.4-15.7 22.4-24.1 8-8.5 14.8-16.3 15.2-17.3.6-1.5-1.1-3-9-8.3-9.7-6.5-26.9-15.6-37.2-19.7-8-3.2-26.2-7.7-39.2-9.6-9.1-1.3-15.2-1.5-31.3-1-11 .4-23 .9-26.7 1.3-5.8.5-6.8.3-7.4-1.1-1.4-3.6 5-19 17.1-40.9 2-3.8 3.5-7.1 3.2-7.4s-1.5 1.2-2.6 3.4m162.4 2.5c-2.8 27.3-12.1 56-23.3 72.5-2.3 3.4-4.2 6.8-4.2 7.5 0 .8 3.4 4.7 7.6 8.8 13.9 13.7 18.8 21.6 27.3 44 1.8 4.7 3.8 9.6 4.6 11 2.3 4.6 4.9 18.4 4.8 26.4l-.1 7.9-4.9 4.6c-2.7 2.5-14.5 13.4-26.2 24.1s-22.5 20.6-24 22-10.2 9.2-19.4 17.4-16.5 15.1-16.2 15.4c.4.4 6.4-4.6 22.1-18.8 3.3-3 10-9.1 14.9-13.5 8.7-7.8 39.9-36.4 49.8-45.6l4.9-4.6.1-8.9c0-8.7-2.1-20.7-4.8-26.9-.7-1.7-2.7-6.8-4.5-11.5-5.2-13.3-10.7-24.9-14.2-29.4-1.7-2.2-7.2-8.2-12.1-13.2l-8.9-9.2 4.3-6.3c5.5-8.1 12.9-24.8 16.2-36.4 4-14.3 9-43.5 7.4-43.5-.3 0-.8 2.8-1.2 6.2M222 39.9c0 .5.5 1.1 1.1 1.3.5.2.7 1.1.4 2.1-.4.9-1 1.5-1.4 1.3-.3-.2-.5 1.3-.3 3.5.3 2.9 0 4-1.2 4.5-1.8.7-2.3 9.4-.6 9.4 1.9 0 2.2 2.9.6 4.6-1.4 1.3-4.5 1.6-18.6 1.9-9.4.1-17.3-.1-17.6-.6s-1-.7-1.5-.4c-.5.4-.9 0-.9-.7 0-1-.3-.9-1 .2s-.1 1.7 2.3 2.5c1.8.6 3.7.8 4.3.3.7-.5 1.8-.3 2.7.7.9.9 1.7 1.1 1.9.4.2-.6 5.6-1.1 13.6-1.3 11-.3 13.5-.6 15.2-2.1 2.4-2.1 2.6-5.3.5-6.1-.9-.4-1.5-1.9-1.5-3.9s.6-3.5 1.5-3.9c1-.3 1.5-1.9 1.5-4.5 0-2.2.5-4.3 1-4.6 1.5-.9 1.2-4.2-.5-4.9-.8-.3-1.5-.1-1.5.3m-120.1 3.3c-1.5 1.2-4.9 12-4.9 15.3 0 2.7 3.1 1.6 4.1-1.5.9-2.4 1.7-3 3.9-3 3.2 0 5.5 2.3 4.6 4.5-.4 1.2-1.4 1.4-4.2.9-3.6-.7-3.7-.6-3.2 2.4.3 2.4 0 3.2-1.5 3.6-1 .2-1.7 1.1-1.5 1.8.3.9 2.4 1.3 6.4 1.3 6.1.1 8.4.8 8.4 2.8 0 .8-.3.8-1.2-.1-1.5-1.5-8.4-1.6-9.3-.2-.3.5-3.8 1-7.7 1h-7L75.1 85.9c-7.5 7.6-15.3 15.1-17.4 16.6l-3.8 2.8.3 26.6c.2 14.6-.1 52.7-.5 84.6-.5 33.8-.5 59.3.1 61l.8 3 23.7.3c13 .1 23.7-.1 23.7-.5 0-.5 10.8-.7 24-.5l24 .3v-77.7c0-70 .1-77.9 1.6-80.2l1.6-2.4 19.7.7c10.8.4 19.7.8 19.9 1 .1.1.6 5.1 1 11.1l.7 10.9 18.8.8c10.4.4 19.9 1.2 21.3 1.7 2 .8 2.4 1.6 2.4 5.4 0 2.5.5 4.8 1 5.1 1.4.9 1.2 6.1-.2 8.5-1 1.6-1 2.4 0 4 1.8 2.9 1.4 29.6-.5 31.1-2 1.7-1.8 56.3.3 58.4 1 .9 1.4 3.8 1.4 9.4 0 10 .9 11.1 9.3 11.2 3.4.1 8.3.3 11 .4 2.6.1 5-.1 5.3-.6.8-1.3 6.2-1.1 6.6.3.3.9 6.1 1.2 22.5 1.3 12.2 0 21.5-.4 20.7-.8-.8-.5-9.1-.6-18.4-.4-9.8.3-16.8.1-16.4-.4.3-.5-.2-.6-1-.3-1.3.5-1.4.1-.5-2.4.7-2.2.7-3.7-.1-5.1-.7-1.5-.7-2.1 0-2.1.6 0 1.5 1 2 2.2.5 1.3.9 1.6.9.8.1-2.5-2.3-5-3.9-4-1.1.7-1.2 1.4-.2 3.4 1.5 3.4 0 7.6-2.7 7.6-1.1 0-2.3-.5-2.7-1.1-.4-.7-2.1-.9-4.3-.5-6.1 1-24.3.6-25.8-.5-.9-.8-1.3-3.9-1.3-9.9 0-6.5-.4-8.9-1.4-9.3-2.1-.8-2.3-54.9-.2-56.6 1.2-1 1.5-4.3 1.5-15.7.1-8.7-.3-15.4-1-16.6-.8-1.4-.8-2.3 0-3.1 1.4-1.4 1.4-9.4.1-10.2-.6-.3-.9-2.6-.8-5.1.1-4.5.1-4.5 3.2-3.8 1.7.3 2.8.3 2.4-.1-.3-.4-2.1-.9-4-1.1-1.8-.2-5.5-.6-8.3-.9-2.7-.4-12-1-20.5-1.3l-15.5-.7-.2-2.5c-.1-1.4-.5-6.4-.8-11.1l-.7-8.7-20.5-.7c-23.2-.8-22.8-.9-24.1 6.6l-.8 4.4-23.8.5-23.9.5-.1 9c-.1 4.9.2 25.6.6 46 1.2 60.7 1.3 90.9.5 92.2-.6 1-6.4 1.3-23.3 1.3H56l-1-2.6c-.6-1.4-1-14.3-1-29.2 0-26.6 1.9-114.4 2.5-115 .9-1 13-1 14.1-.1.8.6 2.6.9 4 .6 1.5-.3 4.7.2 7.1 1 5 1.7 14.8 1.2 16.7-.8.8-.9.6-1-.9-.4-4 1.5-11.3 1.7-15.1.4-4.3-1.5-8.2-1.9-19.1-2.2-8.6-.2-8.3.4-8.3-14.8v-10.7l3.8-2.7c2-1.5 9.8-9 17.3-16.6L89.8 73h7c3.9 0 7.4-.5 7.7-1 .9-1.4 5.1-1.2 7.5.2 1.7 1.1 2.2 1 3-.2 1-1.7-.5-4-2.6-4-.8 0-1.4-.9-1.4-2 0-2.8-3-2.6-3.1.2v2.3l-.9-2.3c-.5-1.2-1.6-2.2-2.5-2.2-.8 0-1.5-.9-1.5-1.9 0-1.7.5-1.9 3.4-1.4 2.8.4 3.5.2 4.1-1.5 1-3.3-1.1-6.2-4.6-6.2-2.7 0-3-.3-2.7-2.8.2-1.9.8-2.7 2.1-2.6.9.1 1.7-.3 1.7-.8 0-.6-1.1-.7-2.4-.4-1.4.3-2.7.2-3.1-.3-.6-1.2 2.9-3.3 3.9-2.4.3.3.6.1.6-.5 0-1.6-2.2-1.5-4.1 0m-.1 7.3c-.1 2-.5 3.8-1 4.1-.4.3-.8 1.4-.8 2.5 0 1-.4 1.9-1 1.9-1 0-.9-1 .4-6.5 1.7-6.7 2.6-7.5 2.4-2m4.2 16c0 .9-.9 1.5-2.5 1.5-2.6 0-3.4-1.5-1.2-2.3 2.3-1 3.7-.7 3.7.8m43 139V279h-45.8l.2-9.8c0-5.3-.3-30.9-.9-56.7-.5-25.9-.9-54.5-1-63.7V132H149z"/><path d="M1016.6 87.5c-10.3 4.2-28.8 15.5-37.3 22.7-4.5 3.8-12.1 11.1-17 16.2-13.3 13.9-30.6 40.6-32.8 50.5-.4 1.8-1.8 5.6-3.1 8.5-3.2 7.1-9 26.6-10.4 35.6-2.3 13.8 0 38 6 63.5 1.8 7.7 7 23.6 9.1 27.9 1 2.2 1.7 4.1 1.5 4.4-.7.6-4.2.5-16.6-.7-6.3-.6-22.9-1.1-36.8-1-14 0-25.6-.1-25.8-.4-.3-.2 3.7-4.2 8.7-8.8 9.1-8.2 20.9-22.7 20.9-25.5 0-.8-.7-1.4-1.5-1.4-2.1 0-14.2 10-26.8 22l-10.4 9.9-2-2.2c-5.2-5.7-5.4-5.4 8.5-18.8 17.7-17.3 42.5-38.9 43.5-38 .5.5-.1 2.8-1.3 5.3-1.6 3.4-5.8 7.7-17.8 18-18.4 15.8-33.2 29.6-33.2 31 0 .6 4.4-3.1 9.7-8.2 5.3-5 16.6-15 25-22.2 11.4-9.8 15.7-14.2 17.3-17.4 1.1-2.4 2-5 2-5.8 0-2.6-2.9-2.5-6.2.2-10.7 8.8-29 25.4-40.1 36.3-12.2 11.9-12.9 12.4-14.1 10.5-5.4-8.9-8.6-13.7-11.8-17.4l-3.8-4.3 5.3-4.7c2.8-2.6 7.9-7.3 11.2-10.3 3.3-3.1 17.3-15.7 31-28.1 35.2-31.6 36.4-32.8 36.7-36.3.2-2.4-.1-3.1-1.7-3.3-2.2-.2-8.5 5.2-33.5 28.8-8 7.5-19 17.6-24.5 22.5-5.5 4.8-14.1 12.9-19.2 17.9l-9.2 9-13.3-13c-12.5-12.3-22.8-21-40.6-34.7-4.2-3.1-8.1-5.7-8.7-5.7-1.6 0-7 12.2-9.6 21.7-3 11.2-4.7 26.9-4.3 41.3.3 13.3 1.9 25.6 3.5 27.6.7.9.4 1.4-1.1 1.9-3.8 1.2-.4 3.5 4.9 3.3l4.6-.2-4.7-.3c-2.7-.2-4.8-.9-4.8-1.4 0-.7 3.1-.9 8.8-.5 4.8.3 19.7.8 33.2 1.1 13.5.4 28.7 1 33.8 1.6 5.2.5 9.9.6 10.5.2.7-.4 5.3-1 10.2-1.4l9-.6-7.7-.1c-4.2-.1-8.9.3-10.3.8-1.7.7-5.6.7-11.3 0-4.8-.5-20.8-1.2-35.7-1.5-36.6-.8-37-.8-38.8-4.8-2.1-4.3-4-25.8-3.2-36.5 1.4-19.9 4-32.6 9.5-44.5 1.6-3.7 3.2-6.7 3.3-6.7.5 0 14.2 10.5 25.3 19.4 10.9 8.7 33.8 30.7 41.8 40.1 5.8 6.8 12.6 16.1 12.6 17.3 0 .4 1.8 3.2 4.1 6.2 7.6 10.2 5.8 10.3 18-1.4 11.6-11.1 25.8-23.1 26.5-22.3 1.1 1.1-12.1 17-20.4 24.6-5.1 4.6-9.2 8.9-9.2 9.7 0 1 1.4 1.4 4.8 1.4 30.6 0 65.3 1 68.2 1.9 6.3 2 11.5-.9 8.1-4.5-1.6-1.6-7.9-19.6-9.9-28.4-5.5-23.5-6.6-31.1-6.6-48.5 0-15.5.2-17.9 2.7-27 1.6-5.5 4.4-13.8 6.3-18.5 2-4.7 4-10.2 4.5-12.3 2.7-11 19.7-37.3 33.2-51.3 16.9-17.7 31.3-28.2 53-38.4 9.2-4.4 9.3-5.2.3-1.5M903.2 198.6c-.3 2.3-5.5 7.3-40.6 38.7-14.9 13.3-30.6 27.7-35 31.9-6.7 6.4-8.3 7.5-9.4 6.5-1.1-1.1.3-2.9 7.5-9.9 4.8-4.7 13.5-12.7 19.3-17.8 5.8-5.2 17-15.5 25-23 21.6-20.4 31.4-29 32.5-28.6.6.2.9 1.2.7 2.2M292 130.1c0 .7.8 1.8 1.8 2.6 1.6 1.3 1.5 1.3-.7.8-2.2-.7-2.3-.5-1.6 3.2.5 3.4.4 4-1.2 4-5-.1-7.4.4-6.8 1.3.4.6 1.1.8 1.6.4.5-.3 1.7 0 2.5.7 1.2 1 1.3.9.8-.5s-.2-1.7 1.7-1.4c2.2.3 2.4 0 2.2-3.4-.2-2.8.1-3.6 1.1-3.2 2.2.9 3-1.6 1-3.1-1.7-1.3-1.5-1.4 2.1-1.5 2.3 0 6.5.9 9.5 1.9 4.1 1.5 5.7 2.6 7.1 5.2 1.2 2.5 1.4 3.8.7 4.7-.8.9-.7 2 .2 3.7 1.1 2.1 1.1 2.9 0 5-.9 1.7-1 2.8-.2 3.7.6.8 1.3 11.4 1.7 27.3.3 14.3 1 28.9 1.5 32.5l.8 6.5-.3-7c-.2-3.9-.6-18.7-1-33s-1.1-26.5-1.6-27.2c-.7-.7-.6-1.4.1-1.8 1.3-.8 1.3-6.2 0-7-.6-.4-.6-1.2.1-2.3.9-1.4.6-2.7-1-5.7-1.7-3.2-3-4.2-7.3-5.6-6.2-2-14.8-2.5-14.8-.8M276.5 147c-.4.6-.2 1.7.4 2.4 1.1 1.3.8 69.5-.3 80.3-.3 2.9-.2 5.3.2 5.3s.8-2.1 1-4.7c.5-10.4 1.1-28.6 1.3-45.3.1-11.4.5-15.8.9-12.5l.7 5 .1-5.3c.1-2.9-.2-5.2-.8-5.2-.5 0-1-1.6-1-3.5s.5-3.5 1-3.5c1.1 0 1.4-9.8.4-12.4-.7-1.8-3-2.1-3.9-.6m3.2 6.6c.2 4-.1 5.2-.6 3.9-.5-1.1-.6-3.2-.4-4.7.3-1.6 0-3.5-.8-4.5-1.2-1.4-1.2-1.6.1-1.1 1.1.3 1.6 2.1 1.7 6.4m322.8 2.4c18.5 2.1 32 4.2 34.9 5.5 1.7.7 6.9 2.8 11.6 4.6 10.4 4 12.6 5.1 21.7 11.2 13.1 8.7 26.9 26.6 31.5 40.7 4 12.7 3.3 36.4-1.7 54.6-3.3 11.8-11.3 25.3-21.2 35.7l-4.7 5-28.1-.7c-43.8-1.1-85.5-.8-116 .9-34.2 1.8-31.5 1.8-31.5-.1 0-.9-.7-1.4-1.7-1.2-1.2.2-2.2-.6-2.9-2.3-1.1-2.5-6.3-5.9-9-5.9-.7 0-1.4-1.2-1.6-2.7-.2-1.4-1-2.8-1.8-3-.9-.2-1-.1-.2.3 1.9.9 1.5 4.4-.5 4.4-1.4 0-1.8-.9-1.8-4.3 0-3.6.3-4.2 2.3-4.5 1.6-.3 2.2-1 2.2-2.9 0-2.3.3-2.5 3-1.9 2.3.4 3.2.2 3.7-1.1.5-1.4.8-1.3 1.4.5 1 2.6 3.1 2.8 5 .5 1.1-1.3 1.1-1.7.1-2-2.1-.8-.2-2.3 2.9-2.3 1.6 0 2.9-.3 2.9-.8 0-1.2-5.8-.8-7.1.5-1.9 1.9-5.4 1.6-7.4-.7-1-1.1-2.3-2-2.9-2s-.3.7.7 1.4c1 .8 1.5 2 1.1 3-1 2.6-3.1 1.9-4.3-1.4q-1.05-3-3-3c-4.3 0-1.9-1.6 2.6-1.8 2.6-.1 5-.7 5.4-1.3s1.2-.8 1.8-.5c.6.4 1.1.3 1.1-.3 0-.5 1-1.1 2.3-1.3 1.2-.2-1.3-.4-5.5-.5-4.3-.1-8 .2-8.3.7-.3.4 1.3.6 3.5.3 2.6-.4 4-.2 4 .6 0 1.1-3.3 1.6-7.8 1.2-3.1-.3-2.6 3.3.4 3.7 2.1.3 3.4 3.5 3.4 8.3 0 2.3-2.3 2.5-4 .4-1-1.2-1-1.5.4-1.5 1.7 0 2.3-3.5.7-4.4-.5-.4-.7.3-.4 1.4.4 1.4 0 2-1.1 2-2 0-2.1 1.4-.1 3.4.8.8 1.1 1.7.7 2-.5.3-1.8-.8-3-2.4-1.3-1.7-1.8-3.1-1.2-3.5.6-.3 1-1.5 1-2.6 0-1.3.4-1.8 1.2-1.3.7.4.8.3.4-.4-1-1.7-2.6-1.5-2.6.3 0 .8-.5 2.4-1.2 3.5-1.1 1.7-.8 2.4 1.6 4.9 2.2 2.3 2.9 4 2.9 7 0 3.9 0 3.9 4.3 4.6 5.3.8 10.8 4.3 11.2 7.3.3 1.7.8 2.1 2.2 1.7 1.1-.3 2 0 2.4 1.1.6 1.4-.2 1.6-5.9 1.2-4.2-.2-6.1 0-5.5.6s6.6.5 16.7-.3c43.7-3.2 83.3-3.9 142.8-2.5l29.1.7 4.7-5c6.3-6.7 12.2-14.9 14.7-20.3 1.1-2.5 2.5-5.3 3.1-6.4 5.6-9.6 9.6-43.2 6.9-57.7-4.3-23.6-25.6-48-50.5-57.9-3.3-1.3-6.4-2.7-7-3.1-.5-.4-2.6-1-4.5-1.4s-4.6-1.3-6-2c-3.1-1.6-21.4-4.3-33.5-4.9l-9-.5zm-113 130.9c.3.5.1 1.2-.5 1.6-.5.3-1-.1-1-.9 0-1.8.6-2.1 1.5-.7m6.3 1c1.1.7 1.1.9-.1 1.4-1.6.6-2.7 0-2.7-1.5 0-1 1.1-1 2.8.1"/><path d="M899.8 210.9c-.4 1.1-25.3 24.2-31.3 29.1-10.5 8.6-43.5 39.9-43.5 41.3 0 .6 4.6-3.4 10.3-8.9 5.7-5.4 15.8-14.9 22.6-20.9 11.5-10.3 16.4-14.8 36.5-33.3 4.3-3.9 8-7.2 8.2-7.2s.4 1.5.4 3.3c0 3-1.2 4.3-12.2 13.8-22.2 18.9-62.8 56-62.8 57.3 0 .6 1.5-.4 3.3-2 27.5-25.3 46.4-42.3 60.5-54.3 12.1-10.4 12.2-10.5 12.2-14.8 0-3.6-.3-4.3-1.9-4.3-1.1 0-2.1.4-2.3.9m-582.4 55.8c1.5 102.3 2.7 158.6 3.2 159.5.3.5.3 2.1-.1 3.5-.6 2.5-.8 2.5-5.8 1.8-2.9-.4-12.4-.9-21.2-1-14.9-.3-16-.5-15.7-2.2.1-1 .2-2.7.2-3.8-.8-27.9-.7-32.7.7-31.2 1.2 1.2 1.2 2.2.3 5.6-.6 2.3-.8 4.6-.4 5.2.4.7.8 5.4 1 10.7.2 5.2.6 9.7.9 10 .4.4 0-13.5-.7-22.8-.1-.8.2-2.9.6-4.7.6-2.5.3-3.6-1.2-5.1-1.7-1.7-2-3.4-1.9-11.8 0-17.5 0-17.7-2.3-17.1-1.1.3-2 .1-2-.3 0-.5.9-1.2 2-1.5 1.9-.6 2-1.6 2.2-14.8.2-22.3 0-24.9-2.5-26.9-2.4-1.9-9.7-2.5-9.7-.8 0 .5-.9 1-1.9 1-1.7 0-1.9.7-1.9 5.5.2 6-.5 7.6-2.5 5.6-.9-.9-.9-1.4.3-2.1 1.3-.8 1.2-1-.2-1-2.4 0-2.3 2.3.1 4.4 2.5 2.3 3.4.8 3.4-6 0-4.6.2-5.4 1.8-5.4 1.1 0 1.9-.5 1.9-1 0-1.6 5.3-1.1 7.7.8s2.7 5 2.5 21.4c-.2 9-.4 9.8-2.1 9.8-1.1 0-2.2.4-2.5.9-.3.4.6.6 2.1.3 1.8-.3 2.4-.1 1.9.7-.4.6-1.1.9-1.5.7-.4-.3-1.3 0-2.1.5-1.1.8-.8.9 1.3.6 2.3-.4 2.7-.1 2.7 1.9 0 1.4-.8 2.5-2 2.9-1.1.4-2 1.5-2 2.6 0 1.6.5 1.9 2 1.4 1.7-.5 2-.2 2.2 2.7.2 4.9-.2 22-.6 24.3-.2 1.1-.1 2.4.1 2.8.6 1.1 1.1 30.6.5 33.9-.4 2.6-.7 2.8-5.8 2.8-2.9 0-5.6-.5-5.9-1-.3-.6-1.7-1-3.1-1-1.3 0-2.4.4-2.4 1 0 1.4-4.3 1.3-7.7-.2s-5.4-3.8-4.8-5.5c.2-.7 0-1.5-.4-1.7-.4-.3-.8.7-.7 2.1.1 3.6 5.6 7.3 10.7 7.3 2 0 3.9-.5 4.1-1.2.3-.8 1-.9 2.4-.2 1 .5 11.6.9 23.4.9s24.4.4 28 .9l6.6.8-.4 3.4c-.5 4.1 1.4 7 3.4 5.3.8-.6 1.4-1.8 1.4-2.5 0-.8.5-1.4 1-1.4.6 0 1-.5 1-1 0-2-2.1-.9-3 1.5-1.4 3.7-3 3.1-3-1.1v-3.6l6.6.4 6.6.4 2.1-4.5c8-17.9 20.6-39 31.3-52.4C377.5 365.2 395 349 405 343c1.4-.8 8.4-4.5 15.5-8.1 10.5-5.3 12.9-7 12.7-8.5-.4-1.9-10.2-21.9-16.5-33.3-8.4-15.4-27.4-36.4-41.8-46.2-8-5.4-31-17.2-38.9-20-3.6-1.2-6.9-2.6-7.4-3.1-.6-.4-2-.8-3.2-.8-1.3 0-2.6-.5-2.9-1-.3-.6-1.8-1-3.2-1h-2.6zm4.1-43.7c.3.5 1.5 1 2.6 1 1 0 2.7.4 3.7.9.9.5 4.4 1.9 7.7 3.1 8 3 31.2 15 38.4 19.9 8.6 5.9 26.2 23.1 32.7 32 6.3 8.7 9.4 14.2 19.4 34l6.8 13.5-12.7 6.3c-14.7 7.3-17.7 9-22.8 12.8-9 6.8-23.2 20.8-30.7 30.2-11.2 14.1-26.6 40.1-31.2 52.6-1.2 3.4-2.1 4.6-3.1 4.2-.8-.3-3.6-.5-6.3-.5h-4.8l.1-3.8c0-2-.5-29.1-1.1-60.2-2.5-126.3-2.6-147-.9-147 .9 0 1.9.4 2.2 1m575.8 6.3c-.4.7-4.8 4.8-9.8 9.2-19.2 16.8-57 53-54.9 52.3.7-.2 8.1-6.8 16.5-14.8 35.7-33.8 50.8-47.4 51.7-46.6.3.4.1 2.1-.6 3.8-.6 1.8-1 3.4-.7 3.6.6.7 2.5-4.5 2.5-6.9 0-2.2-3.4-2.7-4.7-.6m-435 47.3c.4.4 1.8.9 3 1.1 1.2.1 3.3.5 4.7.7 1.4.3 3.2.1 4-.4 1.2-.7 1-.9-.5-.8-1.1.1-4.2-.2-7-.6-2.7-.4-4.7-.4-4.2 0M134 312c-2.5.4-10.3.5-17.3.3-11.7-.4-12.8-.3-12.5 1.3.2.9 3.9 3.5 8.4 5.9 14.2 7.3 21 14.4 28.5 29.5.7 1.4 1.8 3.2 2.5 4 1.9 2.4 5.4 17.4 5.4 23.2 0 6.5-2.1 16.4-4.9 23.8-4.5 11.4-18.1 25.6-29.8 31-7.1 3.2-4.5 8 4.2 8 1.9 0 3.7.4 4 1 .3.5 1.4 1 2.4 1 .9 0 2.6.7 3.7 1.5 1.8 1.4 1.7 1.4-1.6.8-1.9-.3-4.6-1.2-6-2-1.4-.7-3.5-1.3-4.6-1.3-1.2 0-4-.6-6.2-1.4-3.3-1.2-6.6-1.3-17.9-.5-7.6.5-16.3 1.4-19.3 2-3 .5-8 1-10.9 1.1-3 0-6.3.5-7.3 1.1-1.2.8-2.1.8-2.8.1-.6-.6-1.1-10-1.2-24.5-.1-12.8-.4-22.3-.8-20.9-.5 2-.8 2.2-1.6 1-.5-.8-2-2.4-3.3-3.5-2.2-1.7-2.1-1.5.5 1.7 1.6 2.1 3.1 3.8 3.4 3.8s.5 4.3.5 9.5c.1 8.4-.1 9.5-1.7 9.5-2.1 0-2.4-1.6-.5-2.3.7-.3.5-.6-.5-.6-1.2-.1-1.8.6-1.8 1.9 0 1.5.7 2 2.6 2h2.5l-.3 11.4c-.2 6.3 0 11.2.5 10.9.4-.2.7.1.7.6 0 1.2 4.3 1.5 5.4.3.4-.4 3.1-.8 5.9-.9 2.9-.1 7.9-.6 11.2-1.2s12-1.5 19.4-2c11.1-.8 14-.7 16.9.5 1.9.7 4.6 1.4 6.1 1.4s3.5.6 4.6 1.4c1.1.7 3.8 1.6 6 2s4.6 1.3 5.4 1.9c1.7 1.4 8.1 1.9 8.1.7 0-.5-1.3-.8-2.8-.6-2.9.3-7.1-1.8-5.9-3 .4-.4 1.3-.1 2.1.5.8.7 2.5 1.1 3.8.8 2.1-.4 2-.4-.4-.6-1.5 0-2.9-.5-3.2-1-.3-.4-2.7-1.4-5.3-2.1-6.1-1.7-6.8-2.1-5.2-3.1.7-.4-.5-.5-2.7-.2-4.2.5-9.4-1-9.4-2.7 0-.6 1.9-2 4.3-3 12.2-5.7 25.4-19.7 30-32 5.1-13.7 5.9-24.4 2.6-37.3-2.3-9.3-2.1-8.9-5.4-14.2-1.3-2.2-2.9-5.1-3.5-6.4-1.7-3.7-9.6-13.3-13.6-16.5-2.1-1.6-7.2-4.7-11.3-6.9-4.2-2.1-8-4.2-8.5-4.7s6.2-.9 15-.9c8.8-.1 17-.1 18.4-.2 6.3-.1 60 1 72.5 1.6q13.95.75 16.2 2.1c1.2.8 4.2 1.4 6.5 1.4 2.4 0 6 .9 8.1 2 2 1.1 3.8 1.8 3.8 1.5.1-.3.2-1.1.3-1.8 0-.6 1.3-1.3 2.9-1.5 2.5-.3 2.7-.1 2.7 3.5 0 2.2.5 4.4 1.2 5.1.9.9.9 1.2 0 1.2-1.6 0-5.2 4.1-5.1 5.9 0 1.1.3.9.9-.5 1.2-3 2.9-3.8 3.7-1.8.7 1.9-2.8 5.4-5.6 5.4-2.5.1-11.4 4.7-9.9 5.2.7.3 2.9-.6 4.8-1.9 1.9-1.2 4.3-2.3 5.3-2.3 3 0 6.7-3.1 6.7-5.6 0-1.3-.6-2.4-1.2-2.5-.7 0-.2-.5 1.1-1 2.2-.9 2.2-1.1.8-2.7-.8-.9-1.7-3.3-1.9-5.2-.3-3.1-.6-3.5-3.6-3.8-2.1-.2-3.4.2-3.8 1.1-.5 1.3-.9 1.3-3.2.1-1.5-.8-5-1.4-7.8-1.4-3.2 0-5.6-.5-6.3-1.4-1.4-1.6-19.2-2.6-58.1-3.1-14-.2-26.8-.5-28.5-.8-1.6-.3-5-.2-7.5.3m699.4 6.5c3.6 1.9 4.2 1.9 2.6 0-.7-.8-2.2-1.5-3.4-1.5-1.8 0-1.7.2.8 1.5"/><path d="M221.2 323.7c-1.6 2.7-3.6 6.6-4.3 8.8-.8 2.2-2.6 6.1-4.1 8.6-1.6 2.5-2.8 5.4-2.8 6.3s-.4 1.6-.8 1.6c-1.3 0-3.9 6.2-5 12-2.9 15.2-2.1 28.4 2.2 37.5 1.3 2.7 3 6.5 3.7 8.3.6 1.9 2.3 4 3.6 4.9 1.2.8 2.3 2 2.3 2.7.1.6 1.2 2 2.6 3.1s3.7 3.2 5.3 4.6c1.5 1.4 5.4 3.9 8.7 5.5 3.2 1.5 6.1 3.2 6.2 3.6.6 1.4 3.1.9 4-.8.6-1.1 1.1-1.3 1.6-.5 1.1 1.8-.2 3-4.7 4.1-29.2 7.4-47.2 17.1-60 32.2-2.3 2.7-4.3 4.5-4.5 3.9s-.9-1.1-1.5-1.1c-.8 0-.7.4.1 1.2.7.7 1.2 1.7 1.2 2.3-.1.5-1-.1-2-1.4-1.5-1.7-2-1.9-2-.8 0 .9.7 2 1.5 2.4 1.2.7.1 3.6-6.1 15.6-7.9 15.8-11.7 27.5-14.9 46.2-.9 5.5-1.8 10.6-2.1 11.2-.2 1-4 1.3-14.1 1.3-25.6.1-63 3.3-80.1 7-14.7 3.2-26 10.3-37.7 23.7-4.1 4.7-8.1 9.6-8.8 10.8C2.5 599.7-.2 606 1 606c.5 0 1.3-1.2 1.6-2.7 1.3-5 8.5-16.1 15.9-24.7 11.1-12.7 21.6-19.6 35-23.1 9.8-2.5 32.9-5.3 55-6.5 25.5-1.5 121.3-.8 142 .9 21.6 1.8 48.9 9 69 18.1 9.4 4.3 11.7 5.1 11.1 4.2-.5-.9-14.7-7.3-24.7-11.1-3-1.2-13.6-4.1-23.5-6.6-23-5.7-33.3-6.6-88.6-7.2l-42.8-.5v-2.1c0-3.6 3.1-19.5 5.7-29.7 1.8-6.7 5-14.5 11.1-26.4 7.7-15.2 9.3-17.7 16.1-24.6 4.2-4.2 10.5-9.6 14.1-12.1 9.2-6.5 26.8-13.5 41.9-16.8 5.4-1.2 6.9-2.5 5.5-4.8s-3.4-2.8-3.4-.9c0 .9-.2 1.6-.4 1.6-1.2 0-15.5-8.5-17.3-10.3-1.1-1.2-3.3-3.1-4.7-4.2s-2.5-2.4-2.6-2.8c0-.5-1.3-2.1-2.9-3.6-3.9-3.7-5-7.7-2.5-9.6 1.6-1.3 1.7-1.6.4-2.4-.8-.6-1.7-.8-1.9-.5-.3.3 0 .9.8 1.3 1 .7.9.9-.3 1.4-1.9.7-5-5.5-6.5-13-1.1-5.5-.6-17.3 1.1-26.1 1-5.7 4.3-12.2 6-12.2.7 0 .7.4.1 1.2-1.3 1.7-2.4 10-1.2 9.2.5-.3.9-2 .9-3.9 0-3.5 1.9-6.1 2.1-2.8 0 1.1.3 1.3.6.5.2-.6.9-1 1.4-.6.5.3 1.2-.3 1.6-1.3s1.1-2.1 1.6-2.5c.6-.3 1-2 1-3.8 0-2.2.4-2.9 1.4-2.6 1.8.7 1.6-.4-.3-1.9-1.2-.8-1.5-2-1-3.9.5-2.2 1.1-2.5 3-2 1.8.4 2.5.1 2.9-1.7.5-1.9.8-2 2.2-.9 1.3 1.1 1.9 1 3.5-.5 1.6-1.4 2.2-1.5 3.5-.5 1.8 1.5 1 3.1-1.3 2.4-1.4-.5-1.4-.4.1.6 2.3 1.4 3.4.5 4.1-3.5.5-2.4.4-2.6-.3-1-.5 1.1-1 1.5-1 1-.1-1.7-4.9-1.6-5.9.1-.6 1.1-1.1 1.3-1.6.5-1.1-1.7-3.4-1.3-4.1.8-.4 1.3-1.2 1.7-3 1.4-2.1-.4-2.5 0-3 3-.4 2-.4 4-.1 4.6.4.6-.5 1.8-1.9 2.7-2.7 1.8-3.2 4.3-1.3 6.2.7.7.8 1.2.2 1.2s-1.9-.8-2.8-1.9c-1.6-1.7-1.5-2.2 1.4-7.7 1.6-3.3 3.9-7.9 5-10.4 3.5-7.9 5.5-11 6.8-10.5.6.2 1.2 0 1.2-.5 0-2.5-3.1-.5-5.8 3.7M218 347c-.9 1.7-1.5 1.9-2.3 1-.9-.9-.7-1.5.7-2.6 2.5-1.8 3.1-1.2 1.6 1.6M51 330.5c0 2.5.3 4.5.8 4.5.4 0 .7-2 .7-4.5s-.3-4.5-.7-4.5c-.5 0-.8 2-.8 4.5m-13.5 13.7c-.8 2.7-2.5 17.1-2.5 21.3 0 2.5.4 4.5.9 4.5s.7-.9.4-2c-.4-1.4.1-2 1.8-2.4 4.9-1.1 8.2-1.1 8.6.1.3.8-.4 1.3-1.6 1.3s-2.1.4-2.1 1c0 1.8 4.5-.7 4.5-2.6.1-1.1.5-2.1 1-2.4.6-.3 1.1 1.9 1.3 5.1.2 4.1-.1 5.9-1.3 6.9-2 1.7-1.9 3.3.5 5.5 2.3 2.1 2.7.9.5-1.5-1.4-1.5-1.4-1.8 0-3 1.1-.9 1.5-3.1 1.5-7.7 0-7.2-1-8.2-5.6-5.8-3.6 1.9-6.4 1.9-6.4.1 0-3.2 1.3-7.5 2.1-7 .5.3.9 0 .9-.5 0-.9-2.9-1.7-3.1-.9 0 .2-.3 2.5-.6 5.3-.6 5.3-.9 6.2-2 5.2-1.1-1.2 2.1-20.2 3.5-20 .6.2 1.2-.2 1.2-.7 0-1.4-3-1.2-3.5.2M964 367l-6.5.7 7.3.1c4.7.1 7.1-.2 6.7-.8-.3-.6-.7-.9-.8-.8s-3.1.4-6.7.8m-44.5 11.2c-1.1 1.1-4.8 4-8.2 6.5-5.7 4-8 7.3-5.2 7.3.5 0 .8-.4.4-.9-.3-.5.4-1.7 1.6-2.5 2.2-1.5 3.9-1.3 3.9.5 0 .6-.4.8-.9.4-.5-.3-1.2-.1-1.6.5-.3.5.1 1 .9 1 2.2 0 3-1.9 1.5-3.6-1.1-1.3-.9-1.4 1.7-.8 1.6.4 3.4 1.1 4.1 1.6 1.4 1.2 3.3.2 3.3-1.7 0-1.7 2-2.4 5.4-1.8 2.6.5 2.7.4 2.4-3.3-.3-3.6-.5-3.9-3.3-3.7-1.6.1-3.2-.1-3.5-.6-.3-.4-1.4.1-2.5 1.1m8.3 3.1c.2 1.5-.1 2.7-.7 2.7s-1.1-.5-1.1-1.1c0-.5-.4-.7-1-.4-.5.3-1 0-1-.7 0-.8-.5-.6-1.1.4-.5 1-1.6 1.8-2.4 1.8-.9 0-1.2.6-.9 1.5.4 1 0 1.5-1.1 1.5-.9 0-1.3-.5-1-1 .4-.7-.3-.9-2.2-.5-2.7.6-2.7.6 1.1-2.7 3.7-3.1 7.7-4.8 10.1-4.3.6.1 1.1 1.4 1.3 2.8m-34.3 14.8c-.4.6-.4 1.3-.1 1.6.3.4.6.1.6-.5 0-.7.4-1.2 1-1.2 1.7 0 0 2.7-2.7 4.1-1.4.7-2.8 2.2-3.2 3.2-.6 1.5-1.9 1.9-5.7 2.1-5.2.2-23.6 5.9-33.2 10.3-3.1 1.4-8.1 3.6-11.1 5-7.6 3.4-26.1 16.2-26.1 18 0 1.1.6 1.3 2.3.8 4.5-1.5 31.9-1.8 40.9-.4 4.8.7 9.3 1.6 10 2 .8.5.3 3.2-1.8 9.6-2.6 7.9-2.9 10.1-2.8 21.8s.3 13.7 2.8 20c3.9 10.1 8.2 17.3 13.5 22.8 5.1 5.4 14.8 11.7 17.8 11.7 1.1 0 5.3-1.5 9.4-3.4 4.8-2.2 12.2-4.4 20.9-6.1 13.5-2.7 15.5-3.7 14.4-6.5-.4-.8-1.2-3.8-1.9-6.5-4.1-16.3-16.9-35.6-30.3-45.7-8.2-6.2-31.3-16.8-36.4-16.8-4.4 0-3.1-3.3 7.9-19.3 4.1-6 7.2-11.4 7-12-.5-1.6 3.6-7.4 7.8-11 1.9-1.6 3.5-3.3 3.5-3.8 0-1.3-3.8-1.1-4.5.2m-7.4 11.8c-.6 1-.8 2.1-.5 2.3.2.3-3.4 6.2-8 13.1-4.7 7-8.8 13.8-9.2 15.2-.3 1.4-1.1 2.2-1.6 1.9-4.6-2.8-39.1-4.6-48.3-2.4-2.2.5-4.1.7-4.3.6-.6-.7 20.7-14.6 26.1-17 3.2-1.4 8.3-3.8 11.5-5.2 8.9-4.1 28.3-10.4 32-10.4 2.9 0 3.2.2 2.3 1.9m-9.3 36.7c18.8 6.4 32 14.6 41.7 26.1 11.5 13.4 17.1 24.8 20.7 41.4.2.8-3.2 2-10.2 3.5-16.1 3.5-18.3 4.1-25.4 7.4-3.7 1.6-7.1 3-7.7 3-2.5 0-12.8-7.3-17.6-12.3-6.6-7-14-21.9-15.5-31.3-1.5-9.8-.5-21.4 2.7-31.7 1.5-4.8 2.9-8.7 3.2-8.7s3.9 1.2 8.1 2.6"/><path d="M406.1 460.7c-1.8 2.1-5.3 7.2-7.9 11.3-8.6 14-22.5 31.1-44.2 54.5-14.2 15.2-23.5 25.7-24.9 28-1.3 2-1.2 3.1.8 9.6 1.2 4.1 2.7 8.1 3.2 8.9 6.3 10.5 11.8 39.4 11.9 62.7v8.2l-4.7.6c-2.7.3-7.6 1-10.9 1.5-3.4.6-7.7 1-9.6 1s-4.8.4-6.4.9-7.2 1.4-12.4 2.1c-5.2.6-11.1 1.5-13 2s-7.5 1.7-12.5 2.6c-11.1 2-16.8 3.1-22 4.3-8.2 1.8-35.9 9.2-39.9 10.6-2.2.8-5 1.5-6.1 1.5-1.7 0-8.6 2.4-15 5.1-1.1.5-6.3 2.4-11.5 4.3-5.2 1.8-11 3.9-12.9 4.6-4.6 1.7-19.7 9.6-23 11.9-5.6 4-5.5 4.5-5.2-18.9.4-39.8-1.5-64.8-6.1-77.5-6.6-18.1-20.7-30.6-44.8-39.4-9.7-3.5-27.4-5.8-33.8-4.4-2.3.6-.2.8 7 1 15.1.2 23 2.3 39.5 10.5 12.1 6 22.2 15.2 28.2 25.7.7 1.3 2.6 6.5 4.2 11.4 2.6 8.2 3 11.3 4 30.6.6 11.9.9 31.2.7 43-.2 16.9 0 21.5 1 21.9.7.2 3.2-.9 5.5-2.4s6.5-4 9.2-5.4c2.8-1.5 5.9-3.1 7-3.7s3.1-1.5 4.5-2.1c1.4-.5 4.1-1.7 6-2.5s7.1-2.7 11.5-4.1c4.4-1.5 8.9-3.1 10-3.7 3.4-1.5 10.8-4.1 14.5-4.9 1.9-.5 8.5-2.2 14.5-3.9 6.1-1.7 12.8-3.5 15-4s6.5-1.6 9.5-2.4 8.2-2 11.5-2.6c3.3-.7 7.6-1.6 9.5-2.1 9.6-2.3 36-6.8 53.5-9 3.9-.5 10.4-1.4 14.5-1.9 4.1-.6 8.1-1 8.8-1.1.9 0 1.2-2.4 1.2-8.8 0-8.1-2.1-31.5-3.4-37.2-3-14.2-5.7-23-8.1-26-.6-.8-2.1-4.8-3.4-8.7-1.9-6.2-2-7.6-.9-9.2 1.4-2 13.3-15.2 24.8-27.6 21.9-23.7 36-41 44.1-54.4 2.4-4 6-9 7.9-11.1l3.5-3.8 11.5 6.3c9.4 5.1 13.5 8.1 22.3 16.6 14.4 13.6 25.7 28.7 40.8 54.4 9 15.5 9.6 17.6 6.7 27.5-.9 3-2 8.2-2.3 11.6l-.7 6 3.8 1.7c2.2.9 7.1 2.6 10.9 3.7 3.9 1.2 8.5 2.8 10.4 3.6 3 1.3 3.2 1.7 2 3-1.3 1.2-4.2.6-22.3-4.6-19.6-5.6-30.3-8-42.3-9.5-5.5-.7-7.3-1.9-5.5-3.7 1.2-1.2 14.9.3 29.2 3.3 12.2 2.5 16.2 2.4 5-.2-9.1-2-24.9-4.2-31.5-4.3-3.6-.1-4 .1-4 2.4 0 2.4.3 2.5 11.9 4.2 10.9 1.6 30.3 6.1 31.5 7.4.3.3.7 4 .8 8.2l.2 7.7 4.3.6c19 2.7 23.8 3.9 23.8 6 0 1.3-7.5.8-18.8-1.4-4-.8-7.5-1-7.8-.6-.5.9 1.3 8.7 2.5 10.4.4.5 1.5 3.5 2.5 6.5 1.1 3 2.3 6 2.8 6.7.5.6 2.2 3.6 3.7 6.7l2.9 5.5-2.6 3.8c-1.3 2.1-4.1 6-6.1 8.8-4.4 6.1-5.7 8.2-7.7 12-.8 1.6-2.3 4.3-3.4 6-1.1 1.6-2.6 4.2-3.5 5.8-1.2 2-2.1 2.6-3.8 2.2-13.8-2.9-61.5-8-85.2-9.1-18.7-.9-56.6 2.9-77 7.6-4.4 1.1-10.7 2.4-14 3s-7.3 1.6-9 2.1c-1.6.5-8.8 2.3-16 3.9-11.7 2.7-35.5 9.7-41.3 12.1-1.3.5-3 .9-3.8.9s-3.3.9-5.7 1.9c-2.3 1-6.1 2.6-8.5 3.5-6.9 2.6-27.3 12.8-32.2 16.1-11.2 7.5-23.4 17.8-26 22-1.3 2.2-2.2 6.5-3 15.5-.6 6.9-1.5 15.6-2 19.5-2 15.4-.2 30.5 6.6 55.9 1.3 4.9 2.1 9.2 1.9 9.7-.3.4 1.6.9 4.3 1.2 2.6.2 6.5 1 8.7 1.6 5.5 1.7 11.4 3 15.5 3.6 1.9.3.6-.2-3-1.1s-7.4-2-8.5-2.4c-2.4-1-6.6-2-11.7-2.7-3.6-.5-3.7-.6-5.7-8.1-5.2-19.5-8.1-35.1-8.1-43.7 0-3.3.7-11.6 1.4-18.5.8-6.9 1.7-16 2.1-20.2.6-6.7 1-8.1 3.9-11.5 2.6-2.9 3.7-3.5 4.7-2.7.8.6 4.6 1.6 8.4 2.3 17.4 3.1 42.5 8.2 77 15.6 24.9 5.3 33.3 6.9 46 8.8 1.1.2 3 .9 4.3 1.6s4 1.1 6 .9l3.7-.3.7-6.8c.6-6.1 1.1-7.3 5.5-12.9 4.9-6.2 12.6-12.6 15.3-12.7.7-.1-1.3 1.9-4.5 4.2-10 7.4-15.3 16.8-14.1 25.3.5 3.8.3 4.2-1.2 3.7-.9-.3-1.4-.3-1.1.1.7.7 3.7 1.6 8.5 2.3 4.2.6 9.9-4.3 11.4-9.7 1-3.5 5.7-10.6 6.6-9.7.5.4-3.5 10.9-4.7 12.3-.5.6-.6 3.2-.3 5.8.9 6.1 3.3 7.5 9.9 5.6 3.6-1 5.2-2.2 7-5 1.3-2.1 3.8-4.8 5.6-6 2.9-2.1 30.3-16 31.5-16 .3 0 2.9-1.1 5.7-2.4 8.2-3.8 31.5-11.3 40.7-13.1 1.9-.4 5.3-1.6 7.5-2.7 4.1-2.2 15.5-5.4 29-8.3 4.4-1 10-2.4 12.5-3.2s7.4-1.9 10.9-2.4c7.4-1.1 11.5-2.8 11.9-5 .3-1.5-4.3-4.2-15.8-9.3-4.9-2.1-14.1-7.3-15.3-8.5-1.8-1.8-1.8-5 .1-6.9 3.2-3.4 11.2-13.8 11.2-14.6 0-1.2 8.8-15.3 12.8-20.6 2.3-3 4.9-6.9 5.7-8.6 1.4-3 1.3-3.4-2.3-10-3.6-6.7-9.4-20.5-10.5-25.2-.4-1.9-.1-2.2 2.1-2.2 1.5.1 5.4.7 8.7 1.5s8.1 1.5 10.8 1.5c4 0 4.7-.3 4.7-2 0-2.7-1.9-3.4-15.6-5.5l-12.2-1.9-.4-7.1c-.3-3.8-.4-7.1-.3-7.3.2-.2 5.8 1.3 12.5 3.2 9.4 2.7 12.7 3.3 14.2 2.5 4-2.2 1.6-4.3-8.7-7.6-5.5-1.8-11.7-4-13.8-5l-3.8-1.7.6-5c.4-2.8 1.6-8.5 2.7-12.7 2.3-9.1 1.9-11.6-3.9-21.5-2.1-3.7-5.1-9-6.7-11.8-9.8-17.2-24.4-36.3-37.4-48.7-9.2-8.8-12.8-11.4-22.6-16.7-6.5-3.4-12.1-6.2-12.5-6.2s-2.2 1.7-4 3.7M416.9 676c5.9.6 14.9 1.5 20.1 2 10.2 1.1 40.3 5.2 40.9 5.6.2.2-.8 1.8-2.3 3.6-2.8 3.7-2.4 3.6-32.1 8.3-8.8 1.4-18.2 3.2-21 4-2.7.7-11.3 2.5-19 3.9-53.5 9.8-79.6 18.1-93.2 29.4-5.5 4.6-7.5 8-10.7 18.2-2.8 8.8-3.3 13.9-1.4 15.8 1.7 1.7 0 2.8-2.2 1.4-1.1-.7-3.6-1.2-5.7-1.2-2 0-5-.4-6.7-1-2.9-.9-23.7-5.2-33.6-7-2.5-.4-9.9-2-16.5-3.4-6.6-1.5-15.4-3.4-19.5-4.1-4.1-.8-13.3-2.5-20.5-3.9-7.1-1.5-15.5-3.1-18.5-3.7-9.6-1.8-9.4-1.8-7.3-4.1 2.2-2.4 11.6-9.8 18.5-14.5 7.6-5 37.8-19.3 45.3-21.3 1.7-.4 9.5-2.8 17.5-5.3s20.4-5.9 27.5-7.6c7.2-1.7 14.4-3.5 16-4 1.7-.5 5.7-1.5 9-2.1s9.6-2 14-3c7.6-1.8 29.1-4.9 47.5-6.9 9.8-1.1 38.6-.6 53.9.9m55.1 17c0 .5-.1 1.1-.2 1.2-.7 1.2 3 5.1 6.9 7.1 2.7 1.3 6.2 3.1 7.8 4 1.7.8 6.6 3.2 10.9 5.2l8 3.8-2.3 1.8c-1.2 1-4.3 2.1-6.9 2.4-6.7.9-14.5 2.7-15.6 3.7-.6.4-2.1.8-3.5.8-1.3 0-3.8.4-5.5 1-1.7.5-8 2.1-14.1 3.6-6 1.4-13.4 3.7-16.3 5s-7.4 2.9-10 3.4c-2.6.6-6.2 1.5-7.9 2-1.8.6-5 1.5-7 2.1-2.1.6-4.7 1.4-5.8 1.9s-4.8 1.8-8.3 2.9c-7.5 2.5-10.8 4-31.8 14.2-11.6 5.6-16.8 8.6-18.5 10.9-4.7 6.2-6.7 7.9-10.4 8.6-2.6.4-4.1.2-5-.7-1.6-1.7-3.1-9.9-1.7-9.9.5 0 1.5-2 2.2-4.5s1.7-4.8 2.1-5.1c.5-.3.9-1.4.9-2.5 0-5.1-7.2 1.2-9 8.1-1.2 4.5-7 10-10.5 10-1.5 0-3.1-1-4.1-2.5-4.1-6.3 2.1-19.3 12.8-26.9 5.8-4.1 7.3-6.6 4-6.6-3.2 0-12.3 7.1-16.7 13.1-4.3 5.8-5.2 8.3-5.7 15.9-.3 3.3-.6 3.5-4 3.8-3.1.3-4-.2-6.2-3.1-3.2-4.1-3.2-6.5-.5-15.3 4.1-13.3 8.7-18.4 24-26.7 12.6-6.8 38.3-13.7 79.4-21.3 7.7-1.4 16.3-3.2 19-3.9 2.8-.8 12.2-2.6 21-4s17.8-2.9 20-3.4c5.6-1.2 8.5-1.3 8.5-.1"/><path d="M764.9 465.6c-5.2 4.2-11.4 9.5-13.8 11.7-4.1 4-15.1 17.9-15.1 19.2 0 .4-1 2.1-2.3 3.8-5.3 7.2-10.2 20.1-15.2 39.7-3 11.8-3.8 16.9-4.1 27.2-.5 14.4.9 28.3 3.1 30.8.8.9 1.5 2.4 1.5 3.3s.8 1.7 1.8 1.7c1.5 0 1.5.2.2 1.1s-1.3 1 0 .6c.8-.2 1.4-1 1.3-1.6-.2-.6.8-1.1 2.1-1.1s2.9-.7 3.6-1.5c.7-.9 1.9-1.4 2.7-1.1.7.3 1.3.1 1.3-.4 0-1.5-3.6-1.2-4.9.4-1.7 2.1-7.1 2.6-7.1.8 0-.9-.7-2.3-1.5-3.2-4-4.4-4.3-36.6-.5-50.5 1.2-4.4 2.6-9.8 3.1-12 2-9.6 7.8-24.1 12.6-32 9.3-15.2 15.9-22.6 32.5-36.3 9.5-7.9 9.1-8 10.3 1.3.7 5.7 6.3 27.1 7.6 29.4.5.9 2.8 6.1 5.2 11.6 5.5 12.7 8.6 18 16.7 28.9 22.1 29.6 34.2 42.6 48.2 51.8l8.6 5.7.5 5.8c.7 7.8 2.6 17.1 4.2 20.8 4 9 5.5 12.8 5 13.3-.3.3-1.1-.2-1.8-1-.6-.9-3.1-2.8-5.5-4.2-2.4-1.5-4.5-3.3-4.8-4.1-.3-.7-1.2-1.1-2-.8-.7.3-1.7-.2-2-1.1s-1.5-1.6-2.5-1.6-1.9-.6-1.9-1.4c0-.7-1.9-2.1-4.2-2.9-2.4-.8-9.3-3.4-15.4-5.6s-14.2-4.7-17.9-5.5-7-1.8-7.4-2.3c-.3-.4-2.6-.9-5-1.1-2.4-.1-5.1-.6-6-1.1s-5.4-.7-10.1-.6c-4.7.2-8.9 0-9.5-.5-2.2-1.7-6.5-1.7-8 0-1.3 1.5-2.3 1.6-5.8.8-4.9-1.2-27.5-.2-29.3 1.2-.6.6-1.4 4.4-1.8 8.5-1.2 13.5-9.2 44.6-14.8 58-3.9 9.1-6.6 16.7-7.4 21-.5 3-.3 3.6 1.9 4.6 6.7 3.1 13.8-4.6 25.9-28.2 2.9-5.7 6.1-11.5 7.1-12.9 1.6-2.3 4-5.9 10.5-15.9 2.2-3.5 6.7-12.5 11.2-22.8 1.6-3.5 2.1-6.1 1.7-8.3-1.1-5 3.9-8.1 7.9-4.9.6.5 4.9.7 9.5.5s9.1 0 10 .5c.9.4 3.8 1 6.5 1.2 2.6.3 5 .9 5.2 1.5s-3.7 5.2-8.6 10.4c-13 13.6-24.8 32.1-30.9 48.5-5.9 15.7-12.3 44-12.3 54.1 0 7.5 5.4 25.3 11.1 36.3l2 4.1-7.3-.5c-4-.3-12-1.1-17.8-1.7-5.8-.7-20.6-1.3-33-1.3-20.3-.1-23.4.1-31.5 2.1-10.3 2.6-25.1 8.3-31 12-4.9 3-10.5 8.2-10.5 9.7 0 .6 2.1-.9 4.8-3.4 7.3-7.1 22.4-13.8 39.7-17.8 6.5-1.5 11.9-1.8 28.5-1.7 11.3.1 25.7.7 32 1.4 17.5 1.8 27 2.3 27 1.2 0-.6-1.4-3.8-3.1-7.2-4.3-8.7-9-23.5-9.6-30.3-.7-6.7.8-16.6 4.9-32.7 7.5-30 19.3-52.1 38.5-72.4l9.3-9.8 4.2.7c5.8.9 21.8 6.1 29.6 9.6 3.4 1.6 6.7 2.9 7.2 2.9.6 0 1 .6 1 1.3 0 1.4-8 7.7-9.7 7.7-.6 0-3.4 1.7-6.4 3.8s-6.1 4.1-6.9 4.4c-.9.3-7 4.6-13.5 9.5-17.2 12.8-25.7 23.4-36.3 44.8-5.5 11-8 18.9-8.7 26.7-1.2 14.3 10.5 33.9 28.9 48.2 9.8 7.7 11.3 9.3 9.8 10.8s-8.9 2.7-23.2 3.9c-23.9 1.8-31.5 2.7-36.5 4.2-2.7.9-7.6 2.1-10.8 2.8s-6 1.6-6.3 2.1c-.3.4-1.3.8-2.3.8s-4 .9-6.6 2.1l-4.7 2.1-7.6-2c-4.3-1.1-11.7-2.6-16.7-3.2-4.9-.6-11.1-1.6-13.6-2-2.5-.5-8.8-1.2-14-1.6-5.2-.3-11.9-1.3-14.9-2-3-.8-12.9-1.9-22-2.5-9.1-.5-17.8-1.4-19.5-1.9-1.6-.5-8.4-1.7-15-2.6-15.2-2.2-62.6-2.7-83.5-.9-19.2 1.7-50.5 6.1-60.5 8.5-4.4 1-12.4 2.8-17.7 4-5.7 1.2-9.8 2.6-9.8 3.3 0 1.5 22.9 6.8 42 9.8 7.7 1.2 11.7 1.9 27.5 5.2 6.6 1.4 16.3 3.2 21.5 4.2s10.2 2.1 11 2.5 3.9 1 6.8 1.3c4.1.5 5.2.3 5.2-.8 0-1.9-1.1-2.4-7.2-3.5-10.4-1.9-11.2-2-6.3-.6 2.8.8 6.7 1.8 8.8 2.1 2 .3 3.7 1 3.7 1.5 0 1-6 .4-10-1-1.4-.5-4.1-1.2-6-1.6s-3.7-.8-4-.9-3.4-.5-7-.9c-3.6-.5-7.6-1.3-8.9-1.8-1.3-.4-4-1.1-6-1.4-11.2-1.6-13.9-2.5-14.5-4.9-.6-2.2-1-2.3-7.4-2.2-5.3 0-6.1.2-3.7.9 1.7.4 4.4.5 6.1.2 2.8-.5 5.5.9 4.2 2.2-.8.7-17.8-1.9-17.8-2.7 0-.5.5-.9 1.2-.9.6 0 .8-.3.5-.6-.4-.4-1.3-.1-2.1.5-1.1.9-2.8.9-7.8 0-7.4-1.5-10.5-3.4-3.8-2.4 2.5.3 5.4.9 6.5 1.1 1.6.4 1.7.3.5-.4-2.4-1.6-12-2.6-12-1.3 0 1.1-3.9.9-9.3-.4-4-1-1.7-3.2 4.1-4 4.8-.7 13.9-3 18-4.6 1.3-.5 4.2-.9 6.5-.9s6.2-.5 8.7-1.1c4.6-1.1 33-4.5 43-5.2 3-.2 18.1-.5 33.5-.7 23.1-.3 25.6-.5 14.5-1-7.4-.3-12.6-.8-11.5-1.2 4.8-1.7 41.2.6 53.5 3.4 2.5.5 12.6 1.6 22.4 2.4 9.9.7 20.6 2 23.8 2.9 3.3.8 7.8 1.5 9.9 1.5 7.5 0 42.5 5.2 50.7 7.6l5.4 1.5 11.8-4c6.5-2.3 12.7-4.1 13.8-4.1s3.9-.7 6.3-1.6c4.3-1.5 12.4-2.5 35.9-4.4 28.4-2.2 30.4-3.7 17.8-13.7-14.7-11.6-23.6-22.2-29.4-34.9-5.2-11.2-3.4-23.4 6-41.6 7.8-15.1 9-17 16.8-26.2 9.7-11.7 21.7-20.8 49.9-38.1 1.8-1.1 4.2-2.6 5.4-3.4 1.7-1.1 2.5-1.2 3.6-.3 3.9 3.2 7.8 6.1 11.2 8.1 2 1.2 3.7 2.7 3.7 3.2 0 1.2 2.7 1.2 3.5-.1.3-.6-1-4.7-2.9-9.3-3.7-8.7-5.6-16.7-6.3-25.9l-.5-5.7-8.6-5.8c-14.4-9.6-26.5-22.8-49-53-4-5.4-7.8-10.9-8.6-12.3-10.5-19.9-18.1-40.7-20.1-55-1-7.6-1.6-10-2.4-10-.5 0-5 3.4-10.2 7.6m-2.7 137c5.2.9 5.8 4.2 2.3 13.1-5.2 12.8-5.4 13.2-16.2 29.9-1.8 2.7-3.9 5.8-4.7 7-.8 1.1-4 7-7.2 13-7.7 14.7-7.3 14.1-12.2 20.6-5 6.8-9.2 9.4-12.2 7.8-1.1-.6-2-1.3-2-1.6 0-1.7 3.5-12.6 5.5-16.9 6.8-15.2 15.7-47.7 17.1-63.2.4-4 1.2-7.7 1.8-8.2 1.9-1.6 20.9-2.6 27.8-1.5M547.1 776.9c1.7.7-1.7 1-11.6 1-7.7.1-16.4.4-19.4.8-3.6.4-5.2.3-4.8-.4.4-.6 3-1.1 5.8-1.2 2.9 0 5.3-.2 5.5-.3.8-.8 22.5-.7 24.5.1m-37.5 1.8c-.3.4-7.9 1.5-16.9 2.4-8.9 1-17.7 2.1-19.4 2.5-2 .4-3.3.3-3.3-.3s4.4-1.5 9.8-2.2c5.3-.6 11.7-1.4 14.2-1.7 2.4-.3 4.7-.7 4.9-1 .2-.2 2.9-.4 5.9-.4 3.1 0 5.2.3 4.8.7m-41.1 5.3c-.3.5-2.5 1-4.9 1s-5.7.5-7.5 1.1-3.5.9-3.8.5c-1.1-1.1.3-1.6 6.3-2.5 8.4-1.2 10.6-1.2 9.9-.1m-18.5 3.5c-.8.8-4.9 1.9-9 2.5-4.6.6-8 1.6-8.7 2.6-.8 1.2-2 1.4-4.9.8-3.7-.7-3.7-.7-1.4-1.6 2.1-.9 21.6-5.3 24.5-5.7.5 0 .3.6-.5 1.4"/><path d="M649.2 495.6c-18 18.4-21.3 22.2-21.8 25.3-.7 4.3.2 5.2 6.1 7.1 2.2.7 4.5 1.6 5 2 .6.4 4.8 2.7 9.5 5 4.7 2.4 9.9 5.4 11.7 6.7 1.7 1.2 3.4 2.3 3.7 2.3.2 0 4.5 2.5 9.4 5.5 12 7.4 12.6 7.3 11.8-1.3-.4-3.7-1.1-16.4-1.6-28.2-.9-21.4-1.3-24.6-6.3-41-2.6-8.5-3.7-7.8-27.5 16.6m25.8-18c4.7 12.3 6.2 21.1 7 42.4.5 11.8 1.2 24.3 1.5 27.7.4 3.5.4 6.3 0 6.3s-4.7-2.5-9.7-5.5c-4.9-3-9.2-5.5-9.4-5.5-.3 0-2-1.1-3.7-2.4-1.8-1.3-8.6-4.9-15.2-8.1-6.6-3.1-13.1-6.2-14.5-6.9-1.9-.9-2.5-2-2.4-4.2.1-2.4 4-6.9 21.4-24.7 11.7-11.9 21.9-21.7 22.6-21.7.8 0 1.9 1.2 2.4 2.6m293 26.9c-3 1.3-10 3.8-15.5 5.6-5.5 1.7-10.2 3.4-10.5 3.6-.3.3-.5 6.4-.6 13.6 0 7.3-.4 16.9-.8 21.5l-.9 8.2 5.9-.6c6.7-.7 31.3-6.7 35.2-8.6 1.9-.9 2.9-2.5 3.5-5.3 1-4.5.3-19-1.3-29.3-1.9-11.8-1.6-11.2-5.8-11.1-2 0-6.2 1.1-9.2 2.4m12.5.7c2.7 12.4 4.2 32.4 2.8 37.3-.9 2.9-5.3 6.3-8.5 6.4-1 .1-6.6 1.4-12.5 3s-13.2 3.2-16.2 3.5l-5.4.5.9-7.2c.4-4 .8-13.3.8-20.7l.1-13.4 13.5-4.7c7.4-2.5 14.6-5.1 16-5.7 4.4-1.9 7.9-1.5 8.5 1M520 564.5c-2.1 2.5-1.6 12.2.7 15.4 4.8 6.6 18.6 9.4 25.6 5.3 4.7-2.7 7.9-7.9 7.5-12.2-.4-5-3-5.1-5.2 0s-6.4 7.4-12 6.7c-4.8-.7-7.1-3.1-8.6-9-.6-2.3-1.4-4.9-1.9-5.7-1.2-2.1-4.5-2.4-6.1-.5m4.8.8c.6.7 1.5 3.2 2 5.5 1.5 6.5 3.5 8.9 8.1 9.7 2.2.4 5.4.4 7.1 0 3.3-.7 8.4-5.1 8.6-7.3.2-2.9.5-3.3 1.4-2.7 3.4 2.1-2.2 12.5-7.9 14.6-7.3 2.8-17.9-.1-22.3-6.2-4.3-5.7-1.3-18.9 3-13.6m411.9 10.3c-.3.5-1.3 3.8-2.2 7.4s-2.3 8.3-3.2 10.5c-2.6 6.7-5 16.3-4.4 17.4.4.5 4.9 2.1 10.1 3.5 25.5 6.8 29.6 7.8 31.4 7.9 1.5.2 2.4-1.3 4.3-7.3 4.2-13.4 7.3-26.3 7.3-30.2 0-3.5-.2-3.8-2.9-3.8-1.6 0-8.7-1.1-15.6-2.5-15.3-3.1-24-4.1-24.8-2.9m13.8 1.9c4.4.8 11.3 2.1 15.3 2.9 4 .9 8.7 1.6 10.3 1.6 2.6 0 2.9.3 2.9 3.3 0 5.4-8.3 35.1-10.1 36.3-.5.3-1.8 0-2.9-.6s-3.9-1.5-6.2-2c-2.4-.4-7.9-1.8-12.3-3s-9.6-2.5-11.5-3c-1.9-.4-4.7-1.2-6.2-1.8l-2.7-1.1 2.6-8.3c1.4-4.6 2.9-9 3.3-9.8s1.3-4 2-7c2.3-10 2.1-9.9 15.5-7.5m-348.6 4.6c-1.7 1.7-2 2.9-1.6 6.1 1.1 8.1 8.4 13.9 17.6 13.7 10.4-.1 16.1-5.1 16.1-14 0-6.1-2-6.6-4.7-1.2-1.1 2.4-3.2 4.5-5.6 5.6-3.6 1.8-3.8 1.8-7 0-1.9-1.1-4.3-3.9-5.8-6.8-2.9-5.7-5.6-6.8-9-3.4m8.1 4.5c3.3 6.3 8 9 13.1 7.3 4.6-1.6 5.9-2.8 7.8-6.9l1.6-3.5.3 4.3c.6 7.8-5.7 13.2-15.3 13.2-5.6 0-9.6-1.9-12.9-6.3-3.8-4.9-4.3-9-1.6-11.7 2.9-2.9 4-2.3 7 3.6m76.7 3.1c-.4.3-.7 1.9-.7 3.4s-.7 6.1-1.6 10.1-1.6 10-1.5 13.3c.1 7.5-1.8 16.2-7.5 33.4-4.8 14.4-5.2 17.2-2.9 19.1 3.7 3.1 11.4-2.6 17.2-12.8 7.9-13.6 11.3-25.1 12-40.3.5-10.4.5-10.7-1.7-11.4s-10-11.7-10-14.2c0-1.4-2.2-1.8-3.3-.6m7.3 10.7c1.6 2.5 3.9 4.8 5 5.1 3.4 1.1 2.7 14.2-1.8 31.5-3.4 13-17.1 32.7-22.1 31.8-3.8-.8-3.6-3.5.8-17 6-17.9 7.4-24 7.6-32.8.2-4.1 1-11 1.9-15.2s1.6-8.8 1.6-10.1c0-3.7 1.2-4 2.6-.7.7 1.6 2.7 5 4.4 7.4m-141.6-8.2c-.9 1.4 4.4 14.6 7.6 18.8 2.2 2.9 2.5 4 1.8 6.6-1.2 4.6-3.3 5.8-9.4 5.8-6.1-.1-11.2-3.3-13.9-8.5-1-1.8-2.3-2.9-3.7-2.9-1.8 0-2 .4-1.5 3.6.8 4.9 2.9 7.9 7.9 11.2 3.4 2.2 5.2 2.7 10.2 2.7 3.8-.1 7.5-.8 9.9-1.9 3.7-1.8 3.8-1.8 6.1.3 2.9 2.7 7.7 4.1 14.3 4.1 6.5 0 8.3-.7 8.3-3.2 0-1.7-.5-1.8-5.7-1.3-5.4.7-6.1.5-10.8-2.7-7.3-4.8-7.4-8.6-.5-17.7 3-4 4-6.2 4-9.1v-3.7l-6.2-1.6c-7-1.8-17.4-2.1-18.4-.5m5.2 3.8c1.7 0 2.4-.5 2.4-2s.7-2 3-2c1.6 0 3.9.4 5.2.9s3.5 1.2 5.1 1.5c4.1.9 3.6 5.1-1.3 11.7-4.5 6-5.3 8.1-4.8 13 .2 2.6 1.2 4 4.6 6.4 3.8 2.6 5.2 3 10.8 2.9 6.2-.1 8.1.7 4.8 2-5.2 2-16.3-.2-19.3-3.7-1.7-2.2-4.5-2.1-7.8 0-1.8 1.2-4.7 1.8-8.8 1.8-5.4 0-6.5-.4-10.3-3.4-4.3-3.4-7.2-7.6-7.2-10.6 0-.9.6-1.5 1.3-1.2.6.2 1.1 1.2 1.1 2.1-.1 1 0 1.6.2 1.3.2-.2 2.2 1.3 4.3 3.3 3 2.9 5 3.9 9 4.4 6.4.8 11.8-1.2 12.7-4.8.4-1.6 1.1-2.3 1.8-1.9s.6.1-.1-.9c-.7-.8-1-1.8-.7-2.1.4-.3-.8-2.3-2.5-4.4s-3.1-4.1-3.1-4.5-1.1-3.2-2.5-6.3c-1.5-3.2-2.2-6.1-1.8-6.8.5-.8.9-.5 1.1 1 .3 1.7 1 2.3 2.8 2.3m1.2-2.2c.2.7-.3 1.2-1.2 1.2s-1.6-.7-1.6-1.6c0-1.7 2.2-1.4 2.8.4"/><path d="M561.7 594.3c-.7 1.8 2.9 3.5 8.6 4.2l4.2.5-4.9-1.4c-2.7-.8-5.5-2.1-6.2-3-.9-1.4-1.3-1.4-1.7-.3"/><path d="M566 595c.8.5 2.4 1 3.4 1 2.6 0 1.8-.6-1.9-1.4-2.2-.5-2.6-.4-1.5.4m51 16.8c0 1.1.6 2.4 1.3 3 .6.5 7.3 1.2 14.7 1.6 7.4.3 18.5 1 24.5 1.5 11 .9 15 .2 14.2-2.2-.2-.8-4.3-1.5-11.3-1.9-6-.4-12.9-1.2-15.3-1.8-2.5-.6-9.8-1.3-16.3-1.6-11.2-.5-11.8-.4-11.8 1.4m27.3 1.1c1.4.6 7.8 1.3 14.2 1.7 7.7.5 11.4 1.1 11.2 1.8-.4 1.3-16.3 1-24.1-.5-2.7-.5-9.4-.9-15-.9-9.6 0-12.6-.8-12.6-3.2 0-1.1 23.1-.1 26.3 1.1m206.4 2.8c-1 1-.8 2.5.2 1.9 1.2-.8 4.1.4 4.1 1.6 0 .5-.5.6-1.2.2s-.8-.3-.4.5c.8 1.3 2.6.6 2.6-1.1 0-1-2.9-3.7-4.1-3.8-.3 0-.9.3-1.2.7m-228.5 6.6c-3 3.6 4.8 6.4 32.8 11.8 3 .6 6 1.5 6.5 1.9.6.4 3 1 5.5 1.2 3.9.3 4.5.1 4.5-1.7 0-1.6-.9-2.2-4-2.7-3.6-.6-9.9-2.2-19-4.8-4.5-1.3-25-7-25.1-7s-.6.6-1.2 1.3m16.8 4.1c13 3.7 24.9 6.9 27.9 7.5 1.9.3 3.2 1 3 1.6-.5 1.2-2.7 1-9.4-.9-2.7-.7-7.5-1.9-10.5-2.5-22-4.7-29.8-7.4-26.9-9.1 1-.7 3.7-.1 15.9 3.4m278.4 7.8c-6 11.5-14.8 29.7-15.3 31.5-.8 3-2.3 3.3-3.6.8-2.4-4.8-8.8-12.5-10.3-12.4-5.8.2-23.3 4.9-28.9 7.7-1.9 1-9.5 7.9-17 15.3-11.7 11.7-14 14.4-17.4 21.5-8.1 16.7-3.7 22.3 9.7 12.2 14.6-11 32.7-20.8 41.9-22.8 13.9-3 19.5-4 23.2-4 2.3 0 4.5-.5 4.8-1 1.2-2 2.3-.9 4.4 4.2 1.2 2.9 2.6 6.2 3.1 7.3.6 1.1 1.7 4.7 2.5 7.9 1.6 6.4 2.7 8.2 4.4 7.2 3-1.9 24.5-34.1 32-48 4.3-7.8 4.1-9.7-1.1-12.5-6.8-3.5-15.9-9.4-21.7-13.9-6.4-5.1-8.5-5.3-10.7-1m10.7 2.7c3.5 2.7 8.2 6 10.5 7.2 2.2 1.3 6.4 3.7 9.2 5.4 2.9 1.6 5.2 3.6 5.2 4.2 0 2-5.3 11.3-15.5 27.3-13.1 20.5-18.9 28.2-20.4 26.7-.6-.6-1.1-2-1.1-3.2 0-1.9-.8-4.2-6-17.8-1.9-5.2-2.5-5.8-4.4-5.2-2.7.9-4.2 1.1-15.1 2.6-4.9.7-9.4 1.5-10 1.9-.5.4-2.7 1-4.7 1.3s-5.2 1.2-7 2-4.6 2-6.3 2.6c-5.3 2.2-18.2 10.1-27.2 16.7-9.6 7.1-12.6 7.8-13.1 3.1-.4-3.2 3-12.4 6.1-17.2 2.7-3.9 12-13.8 22.7-24 7.8-7.3 9.3-8.3 16-10.4 4.1-1.2 8.6-2.6 10-3.1s4.6-1.1 7.2-1.4l4.7-.5 3.8 5.1c2.1 2.9 4.3 6.1 4.8 7.3 1.5 2.9 4.2 3.1 5 .3.8-2.6 12.9-27.6 15.8-32.6 1-1.7 2.2-3.2 2.7-3.2.4 0 3.6 2.2 7.1 4.9m-9.1 99.3c0 23.1-6.1 39.4-19.9 53.4-17.3 17.6-37.5 24.9-78.1 28.4-6.9.6-15.2 1.5-18.5 2s-9.6 1.4-14 2-12.3 2-17.5 3.1c-5.2 1-11.2 1.9-13.3 1.9-3.1 0-4.8.8-7.8 3.5-4.2 3.8-7.6 5-11.3 4.1-2.1-.5-2.5-1.3-2.8-5.8-.4-4.4-.1-5.6 1.6-7 1.1-.9 2.4-1.4 2.8-1.2.4.3.8 0 .8-.5 0-3.4-6.4 1-9.6 6.6-3.1 5.1-2.6 7.3 1.5 7.3 1.6 0 3.3.4 3.6 1 .9 1.5 7.2 1.2 10.3-.4 1.5-.8 3.8-2.6 5.1-4 1.8-1.9 3.5-2.6 6-2.6 2 0 6.8-.7 10.6-1.5 7.3-1.6 32-5.5 39-6.1 2.2-.3 9.2-.9 15.5-1.5 10.1-.9 18.3-2.1 31-4.5 8.6-1.6 23.1-6.9 30.3-11.1 11.3-6.6 22.7-18.5 27.6-28.8 5.7-11.8 7.3-18.9 7.8-35.3.6-16.1-.3-15 10.1-12.8 3.7.8 10.1 1.9 14.2 2.6 4.1.6 13.1 2.3 20 3.7s13.6 2.7 15 3c1.4.2 7.9 1.3 14.5 2.4 6.6 1.2 16 3 20.8 4.1s9 1.8 9.2 1.6c.8-.8-19.1-4.9-44.5-9.1-1.4-.3-8.1-1.6-15-3s-15.9-3.1-20-3.7c-4.1-.7-10.5-1.8-14.2-2.6-11.6-2.4-10.8-3.2-10.8 10.8m-184 92.3c0 3.7-2.2 5.7-4.2 3.7-.7-.7-.4-2 1.1-4.1 1.3-1.7 2.4-3.1 2.7-3.1.2 0 .4 1.6.4 3.5m285.8-60.8c.6.2 1.8.2 2.5 0 .6-.3.1-.5-1.3-.5s-1.9.2-1.2.5m-8.3 2.3c-1.1.5-7.8 3.5-15 6.6-7.1 3.1-17.3 7.5-22.5 9.9-5.2 2.3-10.8 4.5-12.5 4.9-6.9 1.6-28.5 11.4-46 20.9-12.4 6.7-34.6 22-42.1 28.9-11.5 10.7-26.1 32-25 36.3.5 1.9 1.5 2.3 6.3 2.8 3.2.3 9.2 1.2 13.3 2.1s10.2 2.1 13.5 2.7c12.3 2.2 16.9 3.2 37.5 8.5 3.6.9 8.5 1.9 11 2.4 2.5.4 7.4 1.4 11 2.3 3.6.8 10.3 2.1 15 2.7s9.9 1.5 11.5 2c1.7.4 5.7 1.3 9 2 8.8 1.9 19.5 4.6 32.7 8.5 6.5 1.9 12.3 3.5 13 3.4 3.1-.1-30.9-9.7-45.7-12.9-3.3-.7-7.3-1.6-9-2-1.6-.5-6.8-1.4-11.5-2s-11.2-1.8-14.5-2.7c-3.3-.8-8-1.8-10.5-2.3-2.5-.4-10.3-2.2-17.5-4-7.1-1.8-14.8-3.6-17-4-5.5-1.1-14.5-2.8-20.7-3.9-2.9-.6-7.5-1.5-10.3-2.1-2.7-.6-7.4-1.4-10.3-1.7-3-.3-5.6-1.1-5.8-1.8-1.2-3.2 14.8-25.8 25-35.3 7.5-6.9 29.7-22.2 42.1-28.9 17.7-9.5 43.7-21.3 47.1-21.3.8 0 5.8-2 11.2-4.4 10.6-4.8 30.5-13.5 36.5-16 2-.8 3.7-1.7 3.7-2 0-.8-1.1-.6-3.5.4M365 779.3c-3.6 1.8-6.7 7-8 13.3-1 4.7-.9 5.9.5 8 2.4 3.8 4.8 2.7 5.7-2.6 1-5.8 2.5-9.6 5.5-14.2 3.5-5.2 1.8-7.3-3.7-4.5m4.4.6c.3.5-.1 1.4-.9 2.1-2.1 1.7-5.1 8.9-6 14.1-1 5.9-1.4 6.3-3.7 4.3-1.5-1.5-1.8-2.6-1.2-5.9.9-5.3 3.7-10.8 7-13.4 2.9-2.3 4-2.6 4.8-1.2m214.1-.4c3.3.8 8.5 1.4 11.5 1.3l5.5-.1-7-.7c-3.8-.4-9-1-11.5-1.4-3.5-.4-3.2-.2 1.5.9m-198 2.9c-6 2.9-9.8 6.7-11.6 11.8-1.2 3.4-1.1 4 .8 6.5 2.4 3.4 6.6 3.8 7.1.8.9-6.1 9-17.5 12.3-17.5.5 0 .9-.9.9-2 0-2.7-3.2-2.6-9.5.4m8.5-.4c0 1.2-3 2.1-4.3 1.3-.7-.3-.9-.2-.4.2.4.5-.2 1.8-1.2 2.9-2.7 2.9-7.1 11.3-7.1 13.6 0 1-.5 2.2-1.1 2.5-1.2.8-5.9-3.2-5.9-5 0-2.2 2.9-7 5.7-9.7 4.8-4.4 14.3-8.3 14.3-5.8m208.8-.3c1.2.2 2.2.9 2.2 1.4 0 .7-1.2.8-3.1.4-2.7-.6-3.1-.4-4.2 2.4-1 2.9-3.1 3.8-6.9 3.2-.4 0-.3 1 .2 2.3 1.3 3.6-3.1 7.4-9 7.8-3.7.2-4.5.7-4.5 2.2 0 1.1.7 2.2 1.5 2.4 1.2.4 1.3.3.3-1-1.4-1.6-.8-2.8 1.4-2.8 2.6 0 .3 4.2-6.4 11.5-5.7 6.3-6.8 7.1-9.4 6.7-1.7-.3-3.7-1.5-4.6-2.8-1.8-2.8-3.1-3-4.7-.8-1 1.3-1.9 1.3-6 .4-2.7-.6-5.1-.9-5.3-.6-.3.2 2.1 1 5.3 1.6 5.1 1.1 5.9 1 7-.4 1.1-1.6 1.3-1.5 2.7.4.8 1.2 3.2 2.6 5.4 3.1 3.8.8 3.8.8 10-5.9 3.4-3.7 6.8-8.2 7.5-10 .8-2.2 1.8-3.2 3.3-3.2 2.7 0 7-4.5 7-7.3 0-1.5.7-2.3 2.3-2.5 1.2-.2 2.9-1.6 3.7-3.2 1.3-2.5 2-2.9 4.4-2.4 1.7.4 3.2.1 3.6-.6.9-1.5-1.3-3-4-2.8-1.7.1-1.7.1.3.5M42.7 792.6c-1.3 1.3-.7 2.3.9 1.7 1.4-.5 1.6-.1 1.2 1.9s0 2.9 1.8 3.7c1.9.8 2.2.7 2.1-.9-.1-1.4-.5-1.6-1.3-.9-1 .8-1.3.2-1.6-2.2-.3-3.2-1.7-4.6-3.1-3.3m668.2 7.3c-11.9 7.9-13.8 12.8-10.2 26.4.9 3.4 2.3 6.8 3.2 7.4 1.8 1.6 6.7 1.7 7.6.3.5-.8 1.1-.7 2.1.1 2 1.6 2.8.4 4.2-5.9 1.6-7 1.5-7.2-.7-7.2-1.4 0-2.2 1.4-3.5 6-1.4 4.8-2.2 6.1-4.1 6.6-4.1 1-6.1-1-7.9-8-2-8.1-2-11.2.2-15.3 1.6-3 10.3-10.4 13.4-11.6.7-.2 1-.7.7-1.1-.3-.3-2.5.7-5 2.3m6.7 24.3c-.4 1.3-1 4-1.3 6-.3 2.1-.9 3.5-1.4 3.2-1.3-.7-1.1-4.2.3-8.1 1.3-3.7 3.4-4.6 2.4-1.1m-212.2-19.1c-.3.6-2.1.9-4.3.5l-3.6-.5 4 1.3c3.5 1.1 4.2 1.1 5.2-.3 1.1-1.4 1.2-1.4 1.3.1 0 1 .4 1.8.9 1.8s.7-.9.4-2c-.6-2.2-2.8-2.7-3.9-.9M5 806c0 .5-1.2 1-2.7 1.1l-2.8.1 2.5.8c1.4.4 3.8.8 5.3.9 2.5.1 2.7-.1 1.7-1.9-1.1-2.1-4-2.8-4-1m3 1c0 .5-.7 1-1.6 1-.8 0-1.2-.5-.9-1 .3-.6 1-1 1.6-1 .5 0 .9.4.9 1m530.3 8.7c.4.5 4.1 1.5 8.4 2.2s11 2.1 14.8 3.1c3.9 1.1 10.2 2.4 14 3 3.9.6 12.9 2.2 20 3.6 30.8 5.8 40.4 7.6 46.5 8.9 3.6.8 10.1 2.1 14.5 3s10.7 2.3 14 3 11.6 2.3 18.5 3.5 21.3 4 32 6.1c17.2 3.5 36.2 7.2 72 14.1 5.8 1.1 14.6 2.8 19.5 3.8 5 1 13.9 2.8 20 4 12.5 2.5 14.9 3.5 14.2 5.8-7.1 24.6-8.1 30.2-9.6 54.7-1.1 17.5-.2 38.3 2.3 53.1 1.8 11.3 1.4 13.6-2.3 12.8-5.2-1.1-5.8-1.5-3.6-2.4 1.6-.7 1.7-.9.3-.9-2.2-.1-3.4 1.9-1.8 2.9.7.5 3.4 1.1 5.9 1.5s8.9 1.8 14.1 3.2c5.2 1.3 11.3 2.8 13.5 3.3s7.6 1.8 12 2.9 15.7 3.9 25 6.2c9.4 2.2 18.5 4.7 20.3 5.4 1.7.8 3.2 1 3.2.5 0-1.1-19.6-6.4-44.5-12-2.7-.6-7.2-1.7-10-2.5-5.7-1.6-29.3-7.5-30.2-7.5-.3 0-.2-.7.1-1.5.3-.9-.4-7.7-1.5-15.3-3.6-23.8-2.5-65.1 2.2-83.7 1.1-4.4 2.9-11.3 4.1-15.4 2-6.7 2-7.5.6-8.5-.9-.6-6.9-2.2-13.4-3.5-6.6-1.2-15.9-3.1-20.9-4.1-4.9-1-13.7-2.7-19.5-3.8-16.9-3.3-56.6-11.1-68.5-13.6-6-1.3-14.4-2.9-18.5-3.6-9.7-1.6-44.2-8.3-59-11.5-16.6-3.5-56.5-11.1-70.5-13.5-6.6-1.1-14.2-2.7-17-3.5-2.7-.7-8.1-1.9-12-2.6-3.8-.6-7.6-1.4-8.4-1.7s-1.2-.1-.8.5m186.5 17.4c-.8 1.3-3 2.5-5.3 2.9l-4 .8 3.6.1c1.9 0 4.2-.5 5-1.2 2.4-2 4.2-4.7 3.1-4.7-.5 0-1.6 1-2.4 2.1m-583.2 6.6c-1.8.5-1.8 1.5-1.2 23.6.4 12.8.9 30.3 1.1 39.1l.5 15.8-2.3-.5c-1.2-.3-5.6-1.2-9.7-2-4.1-.9-11.5-2.8-16.5-4.2-15.2-4.4-20.5-5.6-21.7-4.9-1.9 1.2-.3 59.2 2.1 74.9 2 13.7 3.2 17.9 5.8 20.7 1.7 1.9 14.4 6.1 26.5 8.8 10 2.2 12.6 1.2 15.5-5.6 2.5-5.8 6.7-29.8 8.3-46.9.6-6.6 1.5-16.4 2-21.7s.6-10.5.3-11.6c-.2-1.1-.1-2.2.4-2.5 1-.7 19.3 3 35.3 7.1 16.4 4.2 30.8 7.6 52 12.2 18.2 4 34 8 69.5 17.8 9.9 2.7 21.4 5.7 25.5 6.5 4.1.9 11.5 2.5 16.4 3.7 5 1.1 9.9 2 11 1.9 1.9 0-7-2.2-27.4-6.5-4.1-.9-15.6-3.9-25.5-6.6C274 949 258.2 945 240 941c-21.5-4.7-35.4-8-53.5-12.6-17.4-4.4-33.5-7.5-34.7-6.8-.5.4-.8 1.8-.5 3.3.3 1.4.1 6.9-.4 12.1-.4 5.2-1.3 14.9-1.9 21.5-1.7 18.8-5.8 41.2-8.5 46.5-3.2 6.3-5.1 7-14.4 4.9-11.5-2.5-22.4-6-24.5-7.8-3.3-2.9-4.7-7.1-6.7-20.4-2.2-14.6-4-74.7-2.3-74.7 1.6.1 12.2 2.8 13.1 3.3 1 .7 22.3 6 31.1 7.8 3.4.7 6.2 1.7 6.2 2.1s.8.8 1.8.8 2.3.5 3 1.2c.8.8 1.2.8 1.2.1 0-.6-1.3-1.6-3-2.2-2.6-.9-3-1.5-3.1-4.8-.1-2.1-.2-8.5-.4-14.3-.1-5.8-.6-21.7-1-35.4l-.7-24.9 2.6.5c1.6.3 2.5.1 2.3-.5-.4-1.3-1.6-1.6-4.1-1m365 85.2c-.7 1-10.1 2.6-13 2.2-1-.2-2.8.2-4 .7-1.2.6-4.3 1.5-6.9 2.1-2.7.7-6.7 2.4-9 3.8-5.2 3.3-15.3 8.3-17 8.3-.6.1-2.8 1.4-4.7 3-1.9 1.7-3.9 3-4.5 3-2.2 0-12.8 9.8-20.5 19-8.4 10-11.4 14.9-10.4 17.3.3.8 3.7 2.1 8.2 3.2 8.5 1.9 14.5 3.5 27.2 7.1 4.7 1.3 18.4 5.1 30.5 8.5 26.2 7.2 30.5 8.4 49.8 14.4 8.2 2.5 15.5 4.5 16.3 4.5s1.4.4 1.4.8.9.8 2 .8 2-.4 2-.8-.7-.8-1.5-.8c-1.3 0-18.2-4.9-40-11.6-4.4-1.3-17.9-5.1-30-8.4s-25.8-7.1-30.5-8.4c-11.1-3.2-19.4-5.4-25.1-6.6-6.2-1.3-9.9-2.7-9.9-3.9 0-1.9 12.2-17.1 19.5-24.4 4.1-4.1 9-8.2 10.9-9.1s4.8-2.7 6.3-3.9 5.5-3.3 8.8-4.7c3.3-1.3 8.7-4.1 12-6.1s8-4 10.5-4.4 5-1.2 5.7-1.7c.6-.5 2-.8 3-.7 2.8.4 12.7-1.2 14-2.3 1.2-1 6.6-.1 32.3 5.3 7.4 1.5 16.2 3.3 19.5 4 3.3.6 10.1 2.2 15 3.5 5 1.3 12.2 3.1 16 4 18.4 4.1 84.3 20.2 90 21.9 3.2.9 5.3 1.1 5.9.5.7-.7.3-1-1-1-1 0-6.4-1.1-11.9-2.5-23.8-5.8-72.5-17.6-82.5-19.8-3.6-.8-10.8-2.6-16-4s-12.2-3-15.5-3.7c-3.3-.6-12.1-2.4-19.5-3.9-17-3.6-30.1-6.1-31.7-6.1-.6 0-1.4.4-1.7.9"/><path d="M154.2 973.5c2 1.4 4 2.5 4.4 2.5.8 0 12.6 8.6 21.8 15.9 6.2 5 18.6 19.2 25 28.6 1.5 2.1 2.6 3.1 2.6 2.2 0-2.9-19.3-26-26.6-31.7-9.9-7.9-21-16-22-16-.5 0-2-.9-3.4-2s-3.2-2-4-2 .2 1.1 2.2 2.5m196.6 6.3c-5.6 3.8-14.3 10.8-19.3 15.7-9.8 9.6-24.5 26.3-24.5 27.9 0 1.2.5.7 9.5-9.9 14.6-17 29.1-29.7 44-38.2 2.2-1.2 3.3-2.3 2.3-2.3-.9 0-6.3 3.1-12 6.8"/></g></svg>