<svg version="1.1" xmlns="http://www.w3.org/2000/svg" xmlns:xlink="http://www.w3.org/1999/xlink" width="600" height="600" viewBox="0,0,600,600"><g fill="none" fill-rule="nonzero" stroke="none" stroke-width="1" stroke-linecap="butt" stroke-linejoin="miter" stroke-miterlimit="10" stroke-dasharray="" stroke-dashoffset="0" font-family="none" font-weight="none" font-size="none" text-anchor="none"><g><path d="M258.9248,51.52352c3.14704,-0.00154 6.29408,0.00101 9.44113,0c10.04568,-0.00323 20.09136,-0.00913 30.13703,-0.01264c20.72961,-0.00724 41.45922,-0.01007 62.18883,-0.01264c43.15071,-0.00535 86.30141,-0.02877 129.45211,-0.03792c6.431,-0.00136 12.86201,-0.00632 19.29301,-0.00632c2.25149,0 4.50298,-0.00924 6.75447,-0.00759c1.84706,0.00135 4.48417,-0.00214 6.2405,0.16163c1.22931,0.11463 4.57165,0.76502 5.58395,1.26782c1.77977,0.88401 3.50009,1.92284 5.05549,3.15968c0.93575,0.7441 1.63838,1.75036 2.33816,2.7197c0.69972,0.96925 1.49465,1.93229 1.84525,3.07516c1.55883,5.08132 1.13017,8.30509 1.12485,13.52343c-0.0011,1.07641 0.01039,2.15279 0.01264,3.22919c0.00617,2.94903 0.00757,5.89807 0.01264,8.84711c0.00547,3.18285 0.01356,6.3657 0.01896,9.54855c0.02286,13.48551 0.03649,26.97104 0.05687,40.45655c0.03854,25.49652 0.07753,50.99303 0.11375,76.48955c0.00663,4.66579 0.01847,9.33159 0.02528,13.99739c0.047,32.22874 -0.47267,64.46326 0.13903,96.68623c0.01128,0.59429 1.13753,0.3453 1.70623,0.51819c0.74784,0.22734 1.49535,0.45575 2.24337,0.68249c0.73914,0.22404 1.49948,0.38681 2.2181,0.66985c4.3391,1.70906 6.94301,2.7506 10.57861,5.75694c3.22864,2.66982 6.43825,6.43434 8.53114,10.06674c1.26987,2.20398 2.34566,4.52703 3.24736,6.90548c0.90048,2.37524 1.69356,4.81296 2.14305,7.31308c0.78419,4.36177 0.80205,11.21025 -0.18326,15.55195c-1.38456,6.10093 -4.30609,12.70476 -7.83601,17.86483c-1.59238,2.32776 -3.51677,4.42818 -5.52786,6.40546c-2.01307,1.97924 -4.30054,3.65981 -6.5042,5.42438c-0.55638,0.44552 -1.10667,0.93834 -1.76942,1.20068c-0.39172,0.15506 -1.06741,-0.37268 -1.26387,0c-0.36154,0.68581 0.02777,1.55031 0.03792,2.32552c0.14407,11.00408 0.28462,22.0082 0.4234,33.01234c0.04558,3.61466 0.08687,7.22937 0.13271,10.84402c0.01736,1.36922 0.06914,2.73831 0.05687,4.10758c-0.04646,5.18804 0.02697,10.38128 -0.23303,15.56301c-0.12942,2.5794 -0.46328,5.15203 -0.93378,7.69145c-0.47317,2.55383 -1.05416,5.10022 -1.89176,7.55875c-1.58474,4.65155 -4.20517,9.5957 -7.24199,13.46656c-3.49613,4.45632 -7.81428,8.38442 -12.4681,11.59603c-1.56559,1.08042 -3.33615,1.82864 -5.01125,2.72996c-2.11422,1.1376 -4.12595,1.91032 -6.53027,2.70943c-1.81063,0.60178 -3.87403,0.54816 -5.52075,1.51191c-0.44152,0.2584 0.27719,0.9849 0.41076,1.47873c0.60369,2.23194 1.19623,4.46688 1.80102,6.69852c0.75641,2.79109 1.60741,5.47795 1.98033,8.39211c0.48417,3.78353 0.90799,6.92464 -1.45582,10.10466c-1.07064,1.44032 -2.39272,2.76622 -3.9496,3.65891c-4.3119,2.47238 -7.55707,1.96687 -12.32907,2.06643c-0.6297,0.01314 -1.25966,0.007 -1.88949,0.00632c-1.31865,-0.00143 -2.63727,-0.01264 -3.95592,-0.01264c-2.00535,0 -4.01068,0.01135 -6.01603,0.01264c-1.28494,0.00082 -2.56987,-0.00632 -3.85481,-0.00632c-2.62847,0 -4.08972,0.08217 -7.17405,-0.33493c-3.92271,-0.53047 -5.27126,-0.74471 -8.27757,-2.74892c-0.95266,-0.6351 -2.05194,-1.18821 -2.68494,-2.14226c-3.08819,-4.65448 -4.028,-9.16016 -5.56736,-14.41446c-0.20606,-0.70335 -0.41478,-1.40632 -0.59402,-2.11699c-0.36169,-1.43408 -0.79115,-2.8563 -1.02848,-4.31612c-0.23788,-1.46322 1.08894,-4.41137 -0.39338,-4.42987c-101.31276,-1.26425 -202.64632,-0.44205 -303.96127,0.63194c-0.8991,0.00953 -0.48404,1.73194 -0.72608,2.5979c-0.19096,0.6832 -0.38187,1.36642 -0.57294,2.0496c-0.87328,3.1225 -0.91942,3.28725 -1.79707,6.4181c-0.09428,0.33632 -1.32697,4.73142 -1.32746,4.73281c-0.44035,1.25153 -0.97899,2.4664 -1.48781,3.69169c-0.64861,1.56191 -1.62588,3.88333 -2.73352,5.07958c-3.19183,3.44717 -6.16972,4.0029 -10.94513,5.13132c-0.34888,0.08244 -3.77533,0.11243 -4.62577,0.12007c-2.56141,0.02299 -5.12289,0.0154 -7.68434,0.0316c-2.00748,0.0127 -4.01486,0.03901 -6.02235,0.05055c-1.28913,0.00741 -2.57832,-0.00087 -3.86745,0.00632c-2.69432,0.01502 -3.50441,0.16942 -6.89837,-0.376c-1.6882,-0.2713 -4.50092,-0.86792 -6.35175,-1.79707c-0.59993,-0.30117 -1.25822,-0.53823 -1.75204,-0.99293c-1.10166,-1.01438 -2.85112,-3.62885 -3.36822,-5.03653c-0.34728,-0.9454 -0.49378,-1.95945 -0.6035,-2.96062c-0.11028,-1.00628 -0.20729,-2.03586 -0.05371,-3.03645c0.50126,-3.26588 1.31299,-6.47667 2.00956,-9.70654c0.15036,-0.69718 0.35173,-1.38239 0.53083,-2.07275c0.25016,-0.96433 0.49751,-1.92943 0.75694,-2.89131c0.14766,-0.54747 0.27304,-1.1027 0.46428,-1.63652c0.23552,-0.65742 0.99003,-1.25488 0.81362,-1.93056c-0.11939,-0.45727 -0.93564,-0.14896 -1.39026,-0.27805c-2.38078,-0.67605 -4.80718,-1.23138 -7.11086,-2.13594c-2.30401,-0.90469 -4.56611,-1.96189 -6.66535,-3.27343c-5.04723,-3.15337 -10.4693,-7.68424 -14.07322,-12.4681c-1.99886,-2.6533 -3.6595,-5.56745 -5.11078,-8.55563c-1.45169,-2.98903 -2.69728,-6.10178 -3.5657,-9.30921c-1.90771,-7.04599 -1.77773,-12.6187 -1.91477,-19.83647c-0.01344,-0.70798 0.04616,-4.53836 0.05055,-5.83277c0.01458,-4.29083 0.01364,-8.58172 0.0316,-12.87254c0.01575,-3.76216 0.05242,-7.52422 0.06951,-11.28638c0.00334,-0.73416 0.01051,-11.71509 0.06951,-15.12223c0.03478,-2.00851 0.18132,-4.10131 0.04266,-6.1203c-0.05645,-0.82196 -0.16573,-1.63996 -0.28437,-2.45527c-0.17371,-1.19378 -0.16373,-2.44263 -0.59244,-3.57024c-0.47401,-1.24678 -2.29194,-2.66423 -3.38086,-3.29239c-1.14976,-0.66325 -2.5293,-0.93977 -3.57044,-1.7631c-3.30443,-2.61316 -5.98054,-6.39478 -8.1267,-9.95299c-2.49484,-4.13631 -4.3701,-7.8357 -5.3525,-12.61345c-1.16192,-5.65078 -1.47348,-12.11252 -0.6193,-17.83324c0.36403,-2.438 1.12518,-4.81077 1.95426,-7.13219c0.82922,-2.32182 1.78059,-4.61866 3.00644,-6.75777c2.28609,-3.98924 6.15455,-8.57869 9.76973,-11.43172c3.23498,-2.55298 8.48626,-5.08022 12.39859,-6.3004c1.77984,-0.5551 3.64118,-0.8266 5.48906,-1.07429c5.50067,-0.7373 11.27766,-0.34455 16.73614,-0.05687c1.52505,0.08037 3.03775,0.64269 4.55626,0.48027c0.4015,-0.04294 -0.57981,-0.56478 -0.83416,-0.87839c-1.49677,-1.84557 -3.07845,-3.63207 -4.41644,-5.59579c-1.33955,-1.96601 -2.05504,-4.3525 -3.59651,-6.16454c-0.33166,-0.38988 -1.01932,0.09502 -1.52929,0.13903c-1.1682,0.10081 -2.33666,0.19857 -3.5052,0.29541c-1.21528,0.10071 -5.28251,0.4415 -6.22662,0.43922c-1.51457,-0.00366 -3.03485,-0.05042 -4.5373,-0.24172c-0.45118,-0.05745 -1.91457,-0.80362 -2.28761,-1.10589c-0.48862,-0.39592 -2.02079,-1.91356 -2.36976,-2.60358c-0.25773,-0.50961 -0.64138,-2.71218 -0.63194,-3.15968c0.02881,-1.36519 0.53253,-2.89263 1.26387,-4.03175c0.41315,-0.64351 0.88688,-1.27771 1.49769,-1.73782c0.50232,-0.37839 1.15227,-0.5089 1.74888,-0.70777c2.01718,-0.67239 2.17984,-0.62026 4.35562,-0.65563c0.294,-0.00478 4.45662,0.05028 4.7332,0.05529c0.60042,0.01088 1.76441,0.64364 1.80102,0.04424c0.10627,-1.74018 -1.00062,-3.34019 -1.49769,-5.01125c-0.40073,-1.34718 -1.24343,-4.3831 -1.66199,-5.09972c-0.23756,-0.40672 -0.79628,-0.57528 -1.26387,-0.63194c-1.08356,-0.1313 -2.18289,0.12769 -3.27343,0.08215c-1.68767,-0.07048 -3.43815,0.07804 -5.04917,-0.42972c-1.84458,-0.58138 -4.04804,-1.68278 -4.93779,-3.56254c-0.2695,-0.56937 -0.58326,-1.15016 -0.64221,-1.77732c-0.15769,-1.67777 -0.28326,-3.3943 0,-5.05549c0.14311,-0.83927 0.75887,-1.53088 1.24254,-2.23152c0.48344,-0.7003 1.00903,-1.38695 1.6454,-1.95189c1.97369,-1.75216 4.59556,-0.95484 7.06505,-0.98582c0.50769,-0.00637 1.01536,0.0142 1.52297,0.02528c1.23023,0.02684 2.63883,0.72734 3.69051,0.08847c0.61665,-0.3746 -0.26257,-1.42229 -0.30965,-2.14226c-0.19745,-3.01961 -0.30386,-6.04459 -0.4234,-9.06828c-0.02372,-0.59987 -0.00434,-1.20068 -0.00632,-1.80102c-0.00868,-2.63096 -0.02003,-5.26191 -0.02528,-7.89288c-0.00707,-3.54727 -0.01066,-7.09454 -0.01896,-10.6418c-0.00855,-3.6526 -0.02209,-7.30518 -0.0316,-10.95777c-0.00734,-2.82054 -0.01182,-5.64109 -0.01896,-8.46162c-0.00817,-3.2313 -0.00781,-6.46261 -0.01896,-9.6939c-0.00191,-0.55403 -0.05374,-1.10905 -0.01896,-1.66199c0.10227,-1.62586 0.1595,-3.26178 0.42972,-4.86828c0.6233,-3.70569 1.64135,-6.99072 4.23397,-9.90639c1.37607,-1.54753 3.06423,-2.87182 4.91646,-3.79794c3.39492,-1.69746 5.99034,-1.6181 9.44666,-0.90683c1.31473,0.27056 2.6251,0.61912 3.86192,1.14064c7.26855,3.06491 8.73086,4.2559 15.26758,8.61961c0.63168,0.42169 3.45218,2.53354 4.03175,2.96378c0.34708,0.25765 0.72426,0.47866 1.04269,0.77096c1.73747,1.59491 3.41688,3.25195 5.11868,4.88487c1.06875,1.02549 4.13652,5.19648 6.89995,5.92677c0.51419,0.13588 1.05629,0.20054 1.58695,0.16509c1.87186,-0.12504 3.7377,-0.35377 5.59105,-0.64457c1.85499,-0.29106 3.66039,-0.87581 5.5247,-1.09957c2.65554,-0.31873 5.33595,-0.3799 8.00663,-0.52451c0.48169,-0.02608 0.96647,-0.02821 1.44713,0.01264c5.24619,0.44587 10.46424,1.51617 15.72889,1.44713c0.67301,-0.00883 0.72779,-1.1343 1.13749,-1.66831c2.89265,-3.77043 5.71683,-7.59825 8.76732,-11.24214c1.52183,-1.81787 3.21749,-3.48723 4.93315,-5.12342c3.85986,-3.68107 6.13283,-5.65898 10.8534,-8.01927c1.89872,-0.94936 3.82186,-1.97766 5.90544,-2.38398c2.06751,-0.40319 4.23417,-0.29852 6.31936,0c1.1953,0.17112 2.27171,0.83592 3.34768,1.38394c1.07723,0.54866 2.13714,1.15408 3.09175,1.89581c0.67122,0.52153 1.20923,1.19981 1.74335,1.86105c2.46617,3.05312 2.76021,5.23407 3.76555,9.81476c0.5824,2.65364 0.96115,5.36042 1.12643,8.07219c0.2763,4.53357 -0.65095,9.16221 0.1959,13.62454c0.14629,0.77087 1.55882,-0.18079 2.33816,-0.27173c1.02589,-0.11971 2.0518,-0.2392 3.07753,-0.3602c1.01302,-0.11951 2.0261,-0.23856 3.03961,-0.35388c0.45925,-0.05226 0.91574,-0.14049 1.37762,-0.15798c1.98747,-0.07526 4.1342,0.6559 5.96548,-0.12007c0.73896,-0.31312 0.00129,-1.60512 0,-2.40768c-0.03031,-18.90332 -0.06478,-37.80663 -0.09479,-56.70995c-0.00444,-2.79737 -0.00114,-5.59475 -0.00632,-8.39211c-0.01388,-7.49898 -0.03176,-14.99795 -0.04424,-22.49693c-0.0128,-7.69698 -0.01987,-15.39397 -0.0316,-23.09095c-0.00723,-4.74795 -0.01813,-9.49589 -0.02528,-14.24384c-0.00549,-3.64206 -0.00816,-7.28412 -0.01264,-10.92618c-0.00435,-3.53252 -0.00417,-7.06505 -0.01264,-10.59757c-0.00582,-2.4269 -0.10999,-3.692 0.38232,-6.51368c0.27186,-1.55815 0.57016,-3.14523 1.22912,-4.58312c0.70391,-1.53597 1.67734,-2.96385 2.8058,-4.22133c1.2156,-1.35459 2.60764,-2.58566 4.15814,-3.53884c1.78609,-1.09802 6.0464,-2.02754 8.08878,-2.13594c4.35902,-0.23136 15.38975,-0.22061 16.53777,-0.22118z" fill="#00375c"/><path d="M192.46029,203.27919c0.77696,4.8733 1.1634,9.80096 1.71255,14.70515c0.05757,0.51411 0.07351,1.03203 0.10743,1.54824c0.13881,2.11265 0.18343,4.23335 0.41076,6.33832c0.53182,4.9244 0.96631,9.87082 1.86579,14.74149c0.90022,4.87469 2.33733,9.63481 3.52462,14.44764c0.85019,3.44635 1.96005,6.83607 2.58778,10.32979c0.62638,3.48623 1.61185,7.04814 1.16592,10.56202c-0.10559,0.83202 -1.67689,0.04124 -2.51511,0.06951c-1.09765,0.03703 -2.19477,0.08854 -3.29239,0.12639c-0.55176,0.01903 -1.10495,0.0055 -1.65567,0.04424c-3.76718,0.26497 -3.98427,-0.23467 -6.5674,1.48742c-0.63101,0.42067 -1.63705,0.68511 -1.76784,1.43213c-0.29289,1.67283 0.23648,3.40389 0.63194,5.05549c0.20856,0.87106 1.32783,1.65179 2.06643,1.98112c1.6857,0.75163 2.58075,0.62621 4.5373,0.74884c0.54089,0.0339 1.08269,0.05104 1.62408,0.07583c1.1312,0.05181 2.26237,0.10453 3.3935,0.15798c1.39234,0.0658 3.39718,-0.95938 4.1771,0.1959c0.95023,1.40756 0.15052,3.5482 -0.63194,5.05549c-0.31172,0.60048 -1.35254,0.04112 -2.02851,0.06951c-0.87863,0.03691 -1.75658,0.08861 -2.63517,0.12639c-0.8096,0.03481 -2.06162,0.04724 -2.84924,0.13587c-0.65881,0.07413 -1.41786,-0.07257 -1.96611,0.30017c-0.62808,0.42702 -1.07304,1.16068 -1.26387,1.89581c-0.32503,1.25211 -0.23382,2.58016 -0.23382,3.87377c0,1.01551 0.43952,1.96277 1.49769,2.36976c2.24796,0.8646 5.37063,0.1544 6.9513,1.97164c0.90458,1.03997 -1.26456,2.4833 -2.18018,3.51356c-0.83062,0.93462 -1.92498,1.60567 -2.97405,2.28603c-1.04935,0.68054 -2.19125,1.20696 -3.30108,1.78364c-0.40079,0.20825 -0.83378,0.3519 -1.22912,0.57032c-0.36922,0.20399 -0.81438,0.34954 -1.05849,0.69355c-0.38663,0.54486 -0.64134,1.19902 -0.752,1.85789c-0.10614,0.63192 -0.02324,1.29363 0.1177,1.91872c0.27327,1.212 0.93506,2.30339 1.85078,3.1344c0.40982,0.37191 0.8475,0.78946 1.3871,0.91236c1.9653,0.44759 4.03749,0.65428 6.01366,0.21328c0.50785,-0.11333 1.05682,-0.17082 1.49374,-0.45341c1.72597,-1.11634 3.40146,-2.32967 4.93147,-3.70236c1.53387,-1.37614 2.98298,-2.86868 4.22528,-4.51281c1.34007,-1.77353 1.80258,-4.23111 3.48197,-5.68743c0.61643,-0.53455 1.5614,0.50218 2.36976,0.61298c7.72361,1.05867 11.95635,1.55281 19.748,0.65089c5.32557,-0.61645 10.62416,-2.54485 15.7984,-3.79162c4.28793,-1.0332 8.57137,-2.11516 12.91697,-2.86988c8.65164,-1.50256 17.3565,-2.14927 26.13253,-2.11639c4.41652,0.01655 8.83222,0.25792 13.23689,0.58168c6.00538,0.44141 9.45435,1.27791 15.33077,2.50879c5.13089,1.07471 10.85237,2.97307 15.23835,4.89987c4.16522,1.82982 8.2134,3.99215 11.9665,6.56345c6.94739,4.75974 13.27036,11.48318 18.11761,18.31983c5.46679,7.71046 7.33108,12.95627 11.05256,21.56166c0.20993,0.48542 0.40241,0.97884 0.57506,1.47873c0.371,1.07416 0.63945,2.18424 1.05533,3.24183c0.61332,1.5597 0.84162,3.41723 2.02851,4.60049c1.33709,1.333 3.99565,1.47541 5.84541,1.89581c1.20761,0.27446 2.40595,0.58825 3.60836,0.88471c0.63443,0.15642 1.28053,0.27248 1.90213,0.47395c2.75102,0.89165 5.51767,1.74852 8.21023,2.80362c8.04858,3.15392 15.85762,7.66078 23.40553,11.63612c2.08522,1.09824 4.16216,2.21215 6.24353,3.31766c0.4885,0.25947 0.96969,0.53328 1.46609,0.77728c3.36078,1.65194 6.74652,3.25284 10.10466,4.91014c1.76231,0.86974 3.58339,1.63915 5.25613,2.67072c1.66896,1.02924 3.1791,2.29708 4.73478,3.49066c0.36323,0.27868 0.69453,0.59806 1.01742,0.92263c0.74441,0.74828 0.91221,0.96399 1.41919,1.73644c0.24576,0.37445 0.6434,0.69179 0.72307,1.13255c0.13494,0.74654 -0.00014,1.52237 -0.10743,2.27339c-0.16373,1.14608 -0.94035,3.94109 -1.78838,4.67791c-0.36389,0.31616 -0.95577,-0.12673 -1.43449,-0.18326c-0.6272,-0.07407 -1.25584,-0.13554 -1.88317,-0.20854c-0.99393,-0.11565 -2.60982,-0.39572 -3.63363,-0.24014c-0.48971,0.07442 -0.95828,0.27297 -1.40132,0.49449c-0.4067,0.20335 -0.84824,0.40971 -1.12643,0.76938c-0.3327,0.43014 -0.52529,0.97078 -0.63194,1.50401c-0.10823,0.54117 -0.17477,1.13218 0,1.65567c0.185,0.55414 0.6138,1.00718 1.0269,1.42028c1.06701,1.06701 2.04364,1.39583 3.45827,1.86737c0.60152,0.20051 1.46586,-0.01213 1.83419,0.50397c0.29094,0.40765 -0.26583,0.96791 -0.45183,1.43292c-0.23623,0.59056 -0.43337,1.21571 -0.81204,1.72677c-0.49606,0.66949 -2.90965,2.92764 -3.79162,3.15968c-4.18435,1.1009 -5.9059,0.88645 -9.67178,-0.41076c-3.85278,-1.32714 -4.38474,-2.02654 -7.90236,-4.40459c-1.72973,-1.16937 -4.50823,-3.14177 -5.80749,-4.03175c-3.3685,-2.3074 -6.69683,-4.67622 -10.12944,-6.88712c-3.41787,-2.2014 -6.85665,-4.38045 -10.41559,-6.34563c-3.54808,-1.95918 -7.15498,-3.83339 -10.88599,-5.41668c-3.75808,-1.59478 -7.57985,-3.11099 -11.54063,-4.10028c-2.63708,-0.65866 -5.40655,-0.56924 -8.11406,-0.80888c-0.48276,-0.04273 -0.96894,-0.0264 -1.45345,-0.03792c-1.0216,-0.02429 -2.04329,-0.04495 -3.06489,-0.06951c-5.71121,-0.1373 -11.42896,-0.26536 -17.13942,-0.43521c-2.99503,-0.08909 -7.17359,-0.21172 -10.26388,-0.44277c-1.14916,-0.08592 -2.30448,-0.14729 -3.43993,-0.34402c-1.82033,-0.3154 -3.62611,-0.72121 -5.41313,-1.18992c-0.93492,-0.24521 -1.83245,-0.61631 -2.74011,-0.94853c-3.33213,-1.21963 -5.67382,-2.14584 -8.92247,-4.09086c-1.80816,-1.08257 -3.46275,-2.4036 -5.17003,-3.63916c-2.14089,-1.54937 -4.91737,-4.32433 -6.24906,-5.89912c-1.44221,-1.70549 -2.76795,-3.52844 -3.86192,-5.47573c-1.21035,-2.15444 -2.17379,-4.44883 -3.01828,-6.7712c-0.84487,-2.32338 -1.6352,-4.69208 -2.0372,-7.1314c-0.50931,-3.09046 -0.46085,-6.24732 -0.68249,-9.37161c-0.07432,-1.04762 -0.09357,-2.21344 -0.27726,-3.26474c-0.07564,-0.4329 -0.18386,-0.85986 -0.2977,-1.28431c-0.1667,-0.62156 -0.28743,-1.26211 -0.54356,-1.85246c-0.29438,-0.67851 -1.51147,-2.14797 -1.9906,-2.55302c-0.58,-0.49033 -1.1906,-0.98191 -1.89581,-1.26387c-0.5797,-0.23178 -1.23358,-0.23698 -1.85789,-0.23698c-0.6494,0 -1.31907,0.02741 -1.93372,0.23698c-0.63286,0.21577 -1.20939,0.59499 -1.7315,1.01268c-1.76665,1.41332 -2.91594,3.81061 -3.32398,5.93862c-0.43433,2.26506 -0.21068,4.60804 -0.27805,6.91338c-0.08287,2.83576 0.48995,8.71916 0.71093,9.97037c0.46608,2.63899 1.07555,5.28336 2.09487,7.76176c2.82659,6.87262 7.25543,13.98659 12.29116,19.46363c5.23209,5.6906 10.89734,9.48226 17.5931,13.22642c1.53973,0.86099 3.24442,1.3865 4.87223,2.06643c0.58616,0.24484 1.17961,0.47185 1.76942,0.70777c0.46342,0.18537 1.82967,0.31939 1.39026,0.5561c-1.09039,0.5874 -2.42379,0.53681 -3.65575,0.66432c-0.5842,0.06047 -3.92248,0.10522 -5.20399,0.11928c-5.18606,0.05688 -10.3722,0.10813 -15.55827,0.1643c-3.02698,0.03279 -6.05381,0.08358 -9.08092,0.10111c-15.16428,0.0878 -30.33961,0.7939 -45.49308,0.21486c-0.68036,-0.026 0.45299,-1.28417 0.67617,-1.92741c0.29501,-0.85024 0.58328,-1.70282 0.87839,-2.55302c0.64856,-1.86847 1.05182,-2.78397 1.50243,-5.12184c0.253,-1.31265 0.51132,-2.64867 0.45657,-3.98436c-0.196,-4.7821 -1.25263,-9.10834 -2.88163,-13.58663c-0.16342,-0.44927 -0.52929,-0.80418 -0.86733,-1.14222c-0.81971,-0.81971 -1.63979,-1.10747 -2.84845,-1.10747c-0.66772,0 -1.45225,-0.06573 -1.97164,0.35388c-1.27974,1.03388 -2.17256,2.47546 -3.15968,3.79162c-0.28261,0.37681 -0.57268,0.7966 -0.63194,1.26387c-0.04306,0.33952 0.0462,4.73412 0.06951,5.67479c0.04212,1.69927 0.23605,6.68548 0.08373,8.50033c-0.11167,1.3305 -0.12239,2.72166 -0.63352,3.95513c-0.82839,1.99909 -2.09053,3.79766 -3.31766,5.58c-0.336,0.48802 -0.89189,0.78027 -1.33339,1.1754c-0.44113,0.39481 -0.80266,0.89676 -1.31443,1.19436c-2.31313,1.34509 -5.43176,2.5775 -8.08878,2.98906c-2.8379,0.43957 -5.71509,0.5715 -8.57537,0.82784c-1.4413,0.12917 -2.88582,0.21942 -4.32876,0.32861c-2.56563,0.19414 -5.13378,0.35741 -7.69698,0.58138c-12.35913,1.07994 -24.7139,2.2093 -37.06937,3.3303c-0.43716,0.03966 -0.87484,0.08122 -1.30811,0.15166c-3.20641,0.52129 -6.46607,0.80329 -9.60938,1.62329c-3.13082,0.81674 -6.20822,1.89941 -9.14017,3.2679c-2.49283,1.16353 -4.75186,2.77839 -7.05083,4.28927c-2.078,1.36565 -10.4481,7.55517 -12.85358,8.94506c-4.84429,2.79903 -6.88429,4.13758 -12.32433,3.19602c-0.75505,-0.13068 -2.13285,-1.34204 -2.7975,-2.04392c-1.78692,-1.88702 -2.2805,-2.71784 -2.88992,-6.17125c-0.32946,-1.86696 -0.35066,-3.82433 0,-5.68743c0.27942,-1.48461 1.12256,-2.81317 1.8492,-4.1376c2.17769,-3.96922 4.74838,-6.56478 8.39369,-9.54697c2.12825,-1.7411 4.39037,-3.35285 6.81938,-4.64157c7.06361,-3.74761 11.78368,-4.73792 19.46995,-6.67325c1.84894,-0.46554 3.71997,-0.83851 5.58,-1.25755c0.50552,-0.11389 1.01529,-0.21027 1.51665,-0.34125c7.36866,-1.925 14.7305,-3.87605 22.09249,-5.82645c0.71632,-0.18977 1.42816,-0.39608 2.14226,-0.59402c2.03692,-0.5646 4.07373,-1.12962 6.11082,-1.69359c2.30671,-0.63861 4.61024,-1.28869 6.91338,-1.94004c1.57257,-0.44474 1.90058,-0.53879 3.45669,-0.99214c0.79842,-0.23261 2.36132,-0.6619 3.10281,-1.00873c1.18598,-0.55473 2.63056,-1.4244 3.53489,-2.40531c0.90246,-0.97887 1.33371,-2.01969 1.9124,-3.17706c0.68046,-1.36092 0.86891,-1.3914 0.86891,-3.09807c0,-1.64282 -0.2432,-2.59558 -1.46293,-3.81531c-0.54944,-0.54944 -1.16013,-1.22882 -1.93372,-1.30179c-1.87821,-0.17715 -3.7726,0.2524 -5.62897,0.58849c-0.7373,0.13348 -5.15379,1.32968 -7.04135,1.84446c-3.97115,1.08304 -7.94084,2.17143 -11.912,3.25447c-0.59157,0.16134 -1.18293,0.32353 -1.77574,0.48027c-5.36636,1.41889 -10.73356,2.8346 -16.10173,4.24661c-0.93435,0.24577 -1.86816,0.49382 -2.8058,0.72673c-4.00627,0.99517 -8.01483,1.98117 -12.02574,2.95746c-0.4633,0.11277 -0.92434,0.2436 -1.39658,0.30965c-1.05024,0.14688 -1.98164,0.09368 -3.02697,-0.12007c-0.69095,-0.14129 -2.02201,-0.53337 -2.55302,-1.10589c-3.54891,-3.8263 -6.77616,-7.79616 -9.03669,-12.55025c-1.70954,-3.59532 -2.86176,-8.9703 -3.26079,-12.89782c-0.17482,-1.72064 -0.04143,-3.45876 -0.05687,-5.1882c-0.01905,-2.13356 -0.01768,-4.69423 0.22276,-6.6772c0.19208,-1.5841 0.5506,-3.14555 0.92105,-4.69766c0.19615,-0.82184 0.84232,-1.88163 0.90999,-2.76788c0.03245,-0.42497 -0.05619,-0.85513 -0.15956,-1.26861c-0.10872,-0.43489 -0.21652,-0.89104 -0.47237,-1.25913c-0.45794,-0.65884 -1.67351,-1.30624 -2.30657,-1.70623c-0.48213,-0.30462 -0.95875,-0.6179 -1.44081,-0.92263c-0.51431,-0.32511 -1.05223,-0.61448 -1.54824,-0.96686c-6.5805,-4.67496 -10.65416,-7.09559 -15.84126,-12.40747c-1.57567,-1.61358 -2.99734,-3.37121 -4.45653,-5.09084c-0.1161,-0.13682 -1.49237,-1.98953 -1.57984,-2.28761c-0.11862,-0.40425 -0.34002,-1.01513 0,-1.26387c0.58208,-0.42583 1.42928,-0.19469 2.14226,-0.30333c0.93223,-0.14204 1.86083,-0.30729 2.79316,-0.44867c1.00132,-0.15185 2.06831,-0.23472 3.05146,-0.48422c0.7186,-0.18237 1.50068,-0.25834 2.1241,-0.65958c0.93059,-0.59894 1.60597,-2.16168 1.89581,-3.15968c0.2814,-0.96894 0.44979,-2.19027 0,-3.15968c-0.24632,-0.53089 -0.67467,-0.96378 -1.08851,-1.37762c-0.43424,-0.43424 -0.88038,-0.89553 -1.43923,-1.15012c-0.95113,-0.4333 -2.5916,-0.26405 -3.56412,-0.24646c-0.68243,0.01234 -1.36508,0.01082 -2.04747,0.02528c-0.71003,0.01504 -1.41961,0.04749 -2.12962,0.06319c-0.7182,0.01589 -1.43669,0.01632 -2.1549,0.0316c-3.9101,0.08319 -8.53334,1.8971 -7.16616,-5.56104c0.17742,-0.96786 1.96756,-0.04115 2.95114,-0.06951c1.28088,-0.03694 2.56131,-0.08863 3.84217,-0.12639c0.64867,-0.01912 1.2977,-0.02494 1.94636,-0.04424c0.62577,-0.01862 1.25115,-0.04866 1.87685,-0.06951c0.98247,-0.03275 2.34564,0.01806 3.30503,-0.32861c0.60467,-0.21849 2.22076,-1.20545 2.50879,-1.88949c0.28476,-0.67628 0.22806,-1.45086 0.29306,-2.18176c0.09654,-1.08561 0.14241,-1.93944 -0.32782,-2.94877c-0.22362,-0.47999 -0.50408,-0.95017 -0.88155,-1.32154c-2.21072,-2.175 -4.04303,-1.36813 -7.539,-1.5672c-1.05608,-0.06014 -2.11481,-0.05739 -3.17232,-0.08215c-0.47179,-0.01105 -0.94651,0.02693 -1.41554,-0.02528c-1.76638,-0.19663 -4.9616,1.02759 -5.28299,-0.72041c-1.61815,-8.80098 0.14293,-17.89643 0.21486,-26.84465c0.07793,-9.6939 0.15591,-19.3878 0.23382,-29.0817c0.02709,-3.37037 0.04987,-6.74068 0.08215,-10.11098c0.0089,-0.92886 -0.0381,-1.99593 0.16904,-2.91718c0.1395,-0.62039 -0.06833,-1.88936 0.564,-1.82235c2.34883,0.24892 4.48637,1.52515 6.59899,2.58146c5.41289,2.70645 12.08333,8.31552 16.17362,11.87803c3.26791,2.84625 5.899,6.44683 9.45613,8.92215c0.84546,0.58834 2.05667,-0.11949 3.08385,-0.1959c2.91826,-0.21709 3.48385,-0.41059 7.14088,-0.76464c7.47477,-0.72367 11.04582,-1.11938 18.54969,-0.96607c3.07715,0.06287 6.15417,0.23798 9.21827,0.52796c3.10279,0.29364 6.16898,0.90803 9.26981,1.22171c1.51218,0.15297 3.05141,0.39032 4.55626,0.17694c0.47322,-0.0671 0.74406,-0.60835 1.05375,-0.97239c0.33081,-0.38887 0.5671,-0.84915 0.85469,-1.27098c0.33013,-0.48422 0.66939,-0.96219 0.99846,-1.44713c0.35133,-0.51776 0.68863,-1.04499 1.04269,-1.56088c0.72448,-1.05559 1.46223,-2.102 2.19282,-3.15336c2.40475,-3.46061 4.23768,-6.19804 7.47501,-9.73261c2.33233,-2.54648 4.91312,-4.86649 7.57138,-7.07058c1.24293,-1.03057 4.6874,-2.80528 4.72056,-2.59726z" fill="#eb892e"/><path d="M81.33669,340.75689c3.84765,1.28255 6.20581,2.87417 9.50274,5.64082c1.81331,1.52166 3.61257,3.11571 5.03574,5.0073c2.79312,3.71246 5.89215,10.46715 7.04609,14.95161c1.06449,4.13682 1.58076,8.39577 2.33184,12.60081c0.57754,3.23344 0.5911,5.12328 0.3918,8.89134c-0.02643,0.49964 -0.80396,2.03584 -1.13117,2.36976c-2.08354,2.12625 -4.37592,4.0402 -6.47103,6.15506c-1.06259,1.07261 -2.08723,2.19167 -2.9938,3.39903c-1.81939,2.42303 -3.82545,6.2461 -4.91725,8.9569c-0.70737,1.75631 -1.42255,3.53794 -1.75757,5.40147c-0.60768,3.38021 -0.53005,9.79244 0.2275,13.15059c0.46657,2.06826 1.30104,4.04796 2.20072,5.96785c1.73931,3.71162 4.15502,7.53776 7.52478,10.02646c1.17633,0.86876 4.43227,1.7697 6.08712,2.80738c0.52265,0.32773 1.20598,0.56611 1.47083,1.12327c1.07676,2.26515 1.59135,4.75752 2.44559,7.1156c0.44077,1.21672 0.8504,2.45321 1.43844,3.60599c1.20452,2.36129 2.64155,4.18565 4.58786,5.96864c0.90544,0.82946 1.83582,1.66038 2.90296,2.26786c2.05969,1.17249 7.74781,3.42553 10.11098,3.79162c1.85909,0.288 3.76206,0.05966 5.64319,0.08215c0.58556,0.007 1.17118,0.00583 1.75678,0.00632c1.95689,0.00162 3.91379,-0.00122 5.87069,0c9.06196,0.00567 18.12393,0.01344 27.18589,0.01896c10.07727,0.00614 20.15455,0.01324 30.23182,0.01896c25.72401,0.0146 51.44803,0.01505 77.17204,0.02528c34.07821,0.01355 68.15642,0.03614 102.23463,0.05055c10.0183,0.00424 20.03659,0.01343 30.05488,0.01896c7.65906,0.00422 15.31813,0.00359 22.9772,0.00632c4.14761,0.00148 8.29521,0.00522 12.44282,0.00632c3.80004,0.00101 7.60009,-0.00155 11.40013,0c2.54264,0.00104 5.08527,0.0201 7.62791,0.01666c2.31916,-0.00314 4.74135,-0.00952 7.03774,-0.24416c1.41594,-0.14468 2.81833,-0.40284 4.22133,-0.6424c0.54127,-0.09242 6.00465,-1.21008 6.13136,-1.25973c1.43423,-0.56191 2.76713,-1.37059 4.05703,-2.21257c2.73721,-1.7867 4.31831,-3.21549 6.21667,-5.80275c2.15696,-2.9397 3.30946,-5.70864 4.36194,-9.31316c0.59602,-2.04122 1.02983,-4.1377 1.28283,-6.24906c0.19349,-1.61472 0.03531,-3.25235 0.05055,-4.87855c0.02369,-2.52809 0.00726,-2.659 0.01896,-5.84541c0.00777,-2.11489 0.02282,-4.22975 0.0316,-6.34464c0.02493,-6.00971 0.0447,-12.01943 0.06951,-18.02914c0.01521,-3.68419 0.03527,-7.36837 0.05055,-11.05256c0.00578,-1.39236 -0.03006,-2.78538 0.01264,-4.1771c0.1706,-5.56077 0.22132,-11.12981 0.6272,-16.67837c0.34328,-4.69277 1.73219,-11.87748 3.34768,-16.30869c1.49702,-4.10625 4.35851,-8.76843 7.20407,-12.06998c2.24491,-2.60465 6.27061,-5.83059 9.32106,-7.42525c2.44779,-1.27961 5.92109,-1.90922 8.62593,-2.16754c0.99184,-0.09472 1.99271,-0.00907 2.98906,-0.00632c1.88233,0.0052 4.04273,0.06252 5.81381,0.32624c1.39722,0.20805 2.82225,0.41054 4.13286,0.93764c1.64634,0.66212 3.18138,1.59616 4.64868,2.5941c2.99721,2.03845 4.89857,3.92372 6.99553,6.802c0.87827,1.20551 1.73821,2.442 2.38477,3.78609c0.5947,1.23628 0.98609,2.56823 1.31285,3.90063c0.7553,3.07987 0.84885,6.18093 0.61693,9.33844c-0.12876,1.75299 -0.30276,3.51942 -0.74805,5.21979c-0.54939,2.09787 -2.58089,6.0145 -3.94328,7.69698c-1.32559,1.63704 -2.91171,3.04497 -4.39196,4.54362c-1.54659,1.56581 -2.94105,2.51395 -5.06339,3.6518c-1.58635,0.85049 -4.57867,1.94623 -6.50736,2.66756c-0.56622,0.21176 -1.28956,0.18802 -1.69991,0.63194c-0.27311,0.29544 0.00151,0.80467 0,1.207c-0.03641,9.72129 -0.07542,19.44257 -0.11375,29.16385c-0.03472,8.80709 -0.07193,17.61416 -0.10743,26.42125c-0.00874,2.16754 -0.01913,4.33507 -0.02528,6.50262c-0.00556,1.95901 0.00008,3.91806 -0.00984,5.87706c-0.01183,2.33525 -0.02702,5.5612 -0.15268,7.9696c-0.04699,0.90067 -0.07496,1.80587 -0.21112,2.69743c-0.2223,1.45557 -0.47321,2.91226 -0.86249,4.33232c-0.97833,3.56885 -2.37507,7.00168 -4.36125,10.1406c-1.04702,1.6547 -2.22591,3.24041 -3.5657,4.66843c-1.46414,1.56056 -3.08291,2.98734 -4.80666,4.2553c-3.39574,2.49785 -7.37646,4.4459 -11.4183,5.63529c-5.87104,1.72768 -11.17409,1.63473 -17.40273,1.78759c-3.73494,0.09166 -7.47212,0.01306 -11.20818,0.01896c-10.26895,0.0162 -20.53793,0.01359 -30.80689,0.01896c-59.29667,0.03097 -118.59335,0.04362 -177.89002,0.06951c-22.56644,0.00985 -45.13288,0.01271 -67.69932,0.02528c-17.29398,0.00963 -34.58797,0.01737 -51.88196,0.02528c-5.14607,0.00235 -10.29213,0.01143 -15.4382,0.01264c-3.84849,0.0009 -7.69698,-0.00632 -11.54547,-0.00632c-1.55246,0 -3.10536,0.04382 -4.65737,0.00632c-7.49756,-0.18116 -13.37831,0.03167 -20.42941,-1.41652c-2.26206,-0.46459 -4.55687,-0.91075 -6.69329,-1.78739c-2.09371,-0.85912 -4.02298,-2.09772 -5.89043,-3.37612c-1.87075,-1.28065 -3.70257,-2.65658 -5.28852,-4.27663c-1.42486,-1.4555 -2.57683,-3.1663 -3.67629,-4.88092c-1.1017,-1.7181 -2.09257,-3.51725 -2.90849,-5.38805c-1.64756,-3.77768 -2.69287,-7.93136 -3.07753,-12.03206c-0.19183,-2.04503 -0.06251,-4.10754 -0.08847,-6.16138c-0.03626,-2.86881 -0.03503,-5.73797 -0.05055,-8.60697c-0.01186,-2.19282 -0.02698,-4.38563 -0.03792,-6.57846c-0.0442,-8.86396 -0.08868,-17.72791 -0.13271,-26.59187c-0.04818,-9.70021 0.58626,-19.42748 -0.13903,-29.10066c-0.05722,-0.76318 -1.40774,-0.60098 -2.11067,-0.90367c-0.92115,-0.39666 -1.84045,-0.7976 -2.76156,-1.19436c-1.81312,-0.78099 -3.81827,-1.5914 -5.4781,-2.5309c-1.31092,-0.74201 -2.65927,-1.47815 -3.76081,-2.50563c-1.35311,-1.26214 -2.47124,-2.76744 -3.52383,-4.28927c-2.13545,-3.0874 -3.41215,-5.78544 -4.37379,-9.37635c-0.4172,-1.55789 -0.77857,-3.14657 -0.89261,-4.75532c-0.11469,-1.61785 0.01454,-3.25119 0.21091,-4.86117c0.37054,-3.03807 1.01877,-5.52902 2.32,-8.25467c0.53473,-1.12009 1.13113,-2.21942 1.84841,-3.23235c0.60343,-0.85216 1.39039,-1.55825 2.09171,-2.33184c2.37578,-2.62062 3.46069,-3.69293 7.48212,-6.07291c1.31999,-0.7812 2.85877,-1.13262 4.34189,-1.52376c5.11043,-1.34774 12.28406,-1.32506 17.3422,0.36099z" fill="#00b1c3"/><path d="M253.4813,67.87929c1.53561,0 3.07121,0.00632 4.60681,0.00632c4.16235,0 8.3247,-0.00494 12.48706,-0.00632c9.74024,-0.00323 19.48048,-0.00632 29.22073,-0.00632c33.90127,0 67.80253,0.00903 101.7038,0.00632c28.02428,-0.00224 56.04851,-0.00613 84.07278,0c7.3136,0.0016 14.62722,-0.00606 21.94082,0c1.46399,0.00121 2.92797,0.00497 4.39196,0.00632c3.43017,0.00316 5.32015,-0.17936 9.16307,1.42186c0.70107,0.29211 1.09927,1.15437 1.26387,1.89581c0.33214,1.4961 0.13033,3.06236 0.17694,4.59418c0.01448,0.47584 0.00437,0.95212 0.00632,1.42818c0.00648,1.58405 0.01159,3.16811 0.01896,4.75216c0.06293,13.52971 0.11378,27.05952 0.17062,40.58926c0.04586,10.91402 0.27338,63.63091 0.25909,63.64861c-7.27836,9.01383 -23.26403,1.46528 -34.75649,0c-1.4648,-0.18676 0.00745,-2.95331 0.01136,-4.42997c0.00937,-3.54724 0.02428,-7.09447 0.03288,-10.64171c0.02953,-12.18372 0.04818,-24.36746 0.07583,-36.55119c0.00838,-3.69261 0.01416,-7.38523 0.02528,-11.07784c0.00544,-1.80675 0.06458,-3.74652 -0.12086,-5.52075c-0.12452,-1.19142 -0.32088,-2.37926 -0.61219,-3.54121c-0.13153,-0.52465 -0.37839,-1.01882 -0.64852,-1.48742c-0.24946,-0.43274 -0.54966,-0.84201 -0.89972,-1.19831c-0.29154,-0.29674 -0.63446,-0.55066 -1.00478,-0.74016c-1.377,-0.70461 -5.1977,-0.74067 -5.61791,-0.77017c-0.21881,-0.01536 -3.66732,-0.0668 -3.81057,-0.06951c-4.26343,-0.08082 -8.5269,-0.16115 -12.79039,-0.24014c-3.55358,-0.06583 -7.1513,0.36619 -10.66076,-0.1959c-0.49929,-0.07997 -0.01972,-1.01113 -0.0316,-1.51665c-0.05342,-2.2729 -0.11279,-4.54565 -0.1643,-6.81859c-0.018,-0.79407 -0.02495,-1.58836 -0.04424,-2.3824c-0.01863,-0.76687 -0.04867,-1.53343 -0.06951,-2.30025c-0.03205,-1.17892 0.01661,-2.85774 -0.31834,-4.02701c-0.31937,-1.11489 -1.0533,-2.33451 -1.87764,-3.15257c-0.41136,-0.40823 -0.89006,-0.7502 -1.3871,-1.04822c-0.58147,-0.34865 -1.17997,-0.69872 -1.83261,-0.88234c-0.67702,-0.19048 -1.39557,-0.18913 -2.09803,-0.22355c-0.82053,-0.0402 -1.64304,0.00135 -2.46455,0c-0.4571,-0.00075 -0.9142,-0.00682 -1.3713,-0.00632c-2.52143,0.00273 -5.04285,0.00767 -7.56428,0.01264c-7.08611,0.01397 -14.17221,0.02848 -21.25833,0.03792c-2.45613,0.00327 -4.91226,0.00978 -7.36838,0.01896c-1.05432,0.00394 -3.42174,-0.0516 -4.53967,0.16193c-0.85965,0.1642 -2.41088,0.75399 -3.20313,1.26387c-0.42601,0.27418 -1.71156,1.33435 -1.91319,1.9045c-0.77588,2.19398 -0.73165,4.08629 -0.83416,6.36992c-0.01956,0.43578 -0.02576,0.87206 -0.03792,1.30811c-0.0384,1.37761 -0.0736,2.7553 -0.11375,4.13286c-0.02726,0.93533 -0.06159,1.87045 -0.08847,2.8058c-0.0658,2.28964 0.48263,4.67942 -0.18958,6.86915c-0.18793,0.61217 -1.28076,-0.00042 -1.92109,0.00632c-2.36139,0.02486 -4.72265,0.06053 -7.084,0.08847c-1.02161,0.01209 -2.04328,0.01951 -3.06489,0.0316c-1.47032,0.0174 -2.94054,0.04402 -4.41091,0.05687c-0.8524,0.00745 -2.10714,-0.04417 -2.93929,0.06003c-0.6952,0.08705 -1.43223,0.08918 -2.06564,0.38864c-0.91346,0.43186 -2.71377,2.22171 -3.15968,3.15968c-0.64132,1.34901 -0.66311,3.29357 -0.70777,4.7332c-0.01351,0.43539 0.01091,3.32925 0.01264,3.69051c0.0092,1.92212 0.00888,4.73138 0.01264,6.40783c0.02881,12.8641 0.05146,25.72824 0.08215,38.59234c0.00543,2.27709 0.01873,4.55415 0.02528,6.83123c0.00752,2.6141 0.0076,5.22823 0.01264,7.84233c0.00019,0.09742 0.04568,2.38938 -0.06951,2.67941c-0.10996,0.27686 -0.33945,0.57539 -0.63194,0.63194c-0.97019,0.18756 -1.9757,0.05096 -2.96378,0.06319c-0.60358,0.00747 -3.28018,-0.02238 -3.70947,-0.02528c-1.1775,-0.00796 -2.35502,-0.01219 -3.53252,-0.01896c-1.02163,-0.00587 -2.77776,0.96151 -3.06489,-0.01896c-4.2889,-14.64562 -6.70467,-29.7759 -10.02251,-44.67156c-0.61915,-2.7797 -1.19204,-5.56951 -1.78838,-8.3542c-0.86695,-4.04835 -1.73183,-8.09714 -2.59726,-12.14581c-0.19868,-0.92946 -1.24814,-5.81335 -1.51497,-7.07295c-0.29821,-1.40775 -0.599,-2.81498 -0.88876,-4.22449c-0.54302,-2.6415 -0.76635,-3.90185 -1.28046,-6.62427c-0.14282,-0.7563 -0.29238,-1.51134 -0.42972,-2.26865c-0.23551,-1.29862 -0.41979,-2.60695 -0.68881,-3.89905c-0.62319,-2.99317 -0.35122,-3.94694 -2.1944,-5.79011c-0.39539,-0.39539 -0.87068,-0.7062 -1.34444,-1.0032c-0.39908,-0.25018 -0.79557,-0.58139 -1.26387,-0.63194c-1.85169,-0.19986 -3.72409,-0.07828 -5.58632,-0.10743c-1.73551,-0.02716 -3.47144,-0.0014 -5.20715,-0.00632c-1.79892,-0.0051 -3.59781,-0.01883 -5.39673,-0.02528c-1.13959,-0.00408 -2.27919,-0.00204 -3.41877,-0.00632c-0.54348,-0.00204 -1.08709,-0.02657 -1.6304,-0.01264c-1.34661,0.03453 -2.7281,-0.15591 -4.03807,0.15798c-0.73859,0.17698 -1.16069,1.07302 -1.89581,1.26387c-0.49239,0.12783 -3.99042,-0.45285 -4.42355,-0.63194c-0.70187,-0.29019 -1.197,-0.9664 -1.89581,-1.26387c-0.45333,-0.19297 -0.97653,-0.14087 -1.46846,-0.16825c-0.53132,-0.02958 -1.0643,0.00089 -1.59643,-0.00237c-0.62985,-0.00385 -1.25963,-0.01592 -1.88949,-0.01896c-0.67827,-0.00328 -1.35656,0.00104 -2.03483,0c-2.16122,-0.00331 -4.32245,-0.00017 -6.48366,-0.00632c-2.23707,-0.00637 -4.47409,-0.02515 -6.71116,-0.0316c-1.41974,-0.00409 -2.83951,0.00428 -4.25925,0c-0.6762,-0.00204 -1.35266,-0.04045 -2.02851,-0.01896c-1.70944,0.05436 -3.43361,-0.0072 -5.125,0.24646c-0.99054,0.14855 -2.50959,1.1022 -3.15968,1.89581c-1.15315,1.40773 -0.70042,3.31144 -0.73305,4.96702c-0.01435,0.72828 -0.02791,4.39316 -0.0316,5.02389c-0.02005,3.42931 -0.04346,6.85861 -0.06319,10.28792c-0.07608,13.22222 -0.15636,26.44442 -0.23382,39.66663c-0.06804,11.61498 5.39436,24.66701 -0.20222,34.84496c-3.04488,5.53742 -16.47374,5.81054 -18.95808,0c-5.84154,-13.66255 -0.06802,-29.71785 -0.10111,-44.57677c-0.04251,-19.09078 -0.07449,-38.18159 -0.11375,-57.27237c-0.00227,-1.10168 -0.01086,-2.20334 -0.01264,-3.30503c-0.00243,-1.5019 0.00489,-3.00381 0,-4.5057c-0.0034,-1.04439 -0.05454,-1.61857 0.02133,-2.66519c0.04978,-0.68676 0.03272,-1.38901 0.20617,-2.05537c0.16036,-0.61606 1.20948,-2.82198 1.89581,-3.15968c1.28616,-0.63283 2.72564,-0.92804 4.13918,-1.16592c1.41918,-0.23883 5.23243,-0.26225 5.69374,-0.26225z" fill="#ef6550"/><path d="M230.15022,237.31527c11.62755,-0.02775 23.25531,-0.03 34.88287,-0.03792c16.66837,-0.01135 33.33675,-0.0123 50.00511,-0.02528c10.31952,-0.00803 20.63903,-0.02329 30.95855,-0.0316c10.60599,-0.00854 21.21199,-0.01086 31.81798,-0.01896c11.01886,-0.00841 22.03772,-0.01921 33.05658,-0.02528c4.95438,-0.00273 9.90876,-0.00056 14.86314,-0.00632c4.66312,-0.00543 8.21398,-0.13787 13.23274,0.59481c3.13328,0.45742 6.22708,1.21177 9.25786,2.12883c1.29396,0.39153 2.43586,1.17365 3.64627,1.77574c0.42857,0.21318 0.86186,0.42009 1.27019,0.66985c1.52381,0.93207 3.09776,1.79708 4.52308,2.87373c1.42561,1.07687 2.67873,2.36501 4.00174,3.5657c1.97007,1.78794 3.40842,3.65024 4.93779,6.03262c2.17033,3.38083 3.8134,7.34044 4.96652,11.17638c1.66615,5.54255 2.40112,11.94621 2.73441,17.54748c0.34465,5.79226 0.2573,11.60217 0.37284,17.40352c0.04455,2.2369 0.07784,4.47402 0.10743,6.71116c0.02307,1.74407 0.02578,3.48838 0.05055,5.23243c0.04047,2.84909 0.32747,7.32034 -0.53083,9.83293c-0.5625,1.64666 -3.97573,3.36986 -5.05549,4.42355c-2.21743,2.16391 -4.82638,5.6445 -6.08554,8.49322c-3.19252,7.22271 -4.29824,11.48285 -5.28931,19.31197c-0.25542,2.01774 -0.13982,4.0653 -0.20222,6.09818c-0.01765,0.57493 -0.02569,1.15011 -0.03792,1.72519c-0.03833,1.80312 -0.07365,3.6063 -0.11375,5.40937c-0.02731,1.22811 -0.06153,2.45607 -0.08847,3.68419c-0.06575,2.99743 1.90096,6.84337 -0.18958,8.99245c-0.64726,0.66538 -5.4909,-2.12167 -7.36838,-3.20392c-0.42851,-0.24701 -0.85407,-0.49911 -1.28283,-0.74568c-0.88989,-0.51176 -1.78171,-1.02013 -2.67309,-1.52929c-0.4399,-0.25127 -0.87729,-0.50705 -1.32075,-0.752c-2.73312,-1.50974 -7.61938,-1.44579 -8.20885,-4.51202c-0.59579,-3.09909 4.00767,-4.87784 5.92124,-7.38733c1.85601,-2.434 3.80508,-4.81649 5.3841,-7.43868c3.27651,-5.44111 5.69916,-11.81093 7.0374,-17.99833c0.71838,-3.32147 1.19371,-6.71336 1.3168,-10.1094c0.25626,-7.07036 0.03853,-16.44037 -1.4734,-23.84186c-0.5399,-2.64304 -1.11287,-5.30398 -2.09072,-7.81814c-2.84869,-7.32426 -6.67187,-14.10273 -11.8488,-20.05133c-5.15739,-5.92615 -11.84156,-11.25985 -18.76218,-14.97689c-3.10914,-1.6699 -6.43946,-2.93184 -9.80378,-3.99799c-6.3353,-2.00764 -12.77156,-3.08045 -19.41774,-2.90671c-3.02731,0.07914 -6.07372,0.34379 -9.02958,1.00241c-2.92376,0.65147 -9.51954,3.79759 -11.8488,5.68743c-1.27181,1.03188 -2.16325,2.47004 -3.08701,3.82242c-0.9253,1.35465 -1.85324,2.74163 -2.44243,4.27268c-0.4999,1.29901 -0.63402,2.7179 -0.78044,4.10206c-0.29135,2.75416 -0.10464,7.30778 0.74252,9.80054c0.54849,1.61393 1.68173,2.96607 2.56566,4.42355c1.8521,3.05386 2.46362,3.43845 6.29408,6.03262c1.77042,1.19901 3.70166,2.14442 5.59895,3.13045c2.31301,1.20209 4.70146,2.254 7.02713,3.43141c2.77898,1.40691 5.57922,2.77869 8.28547,4.32086c1.99559,1.1372 5.87704,3.95913 7.39918,5.67637c1.44908,1.63481 2.8163,3.37709 3.86113,5.29562c0.52552,0.96496 0.60318,2.11923 0.76859,3.2055c0.42317,2.77893 0.24734,6.43243 -0.53478,8.99719c-0.39539,1.29659 -1.3584,2.34624 -2.04747,3.51356c-0.3368,0.57055 -0.5581,1.23491 -1.03006,1.69991c-0.88898,0.87587 -1.92941,1.59456 -2.98669,2.25759c-2.82116,1.7692 -5.12737,2.45233 -8.48295,3.14546c-0.65204,0.13469 -1.33142,0.0242 -1.99692,0.04424c-1.03115,0.03105 -2.80684,0.2367 -3.82953,-0.1959c-0.52083,-0.22031 -0.92087,-0.66494 -1.32075,-1.06481c-1.66374,-1.66374 -2.61363,-3.97789 -3.85481,-5.88648c-2.1666,-3.33164 -4.25445,-6.72544 -6.65982,-9.88901c-2.40737,-3.16621 -5.15526,-6.05852 -7.75465,-9.06907c-1.66649,-1.93009 -4.86585,-4.86652 -6.14114,-5.95313c-1.70836,-1.45563 -3.45324,-2.88506 -5.33719,-4.10492c-7.6965,-4.98345 -11.96959,-7.42933 -20.04353,-10.56577c-5.68767,-2.20946 -11.56803,-3.95041 -17.55222,-5.14909c-7.90597,-1.58363 -15.60631,-2.12876 -23.72061,-2.23626c-9.77725,-0.12953 -19.60833,0.60217 -29.26101,2.16004c-4.82883,0.77934 -9.60747,1.85486 -14.3722,2.96042c-7.74254,1.79651 -9.81086,3.15654 -16.78106,3.83585c-2.03592,0.19842 -4.08832,0.15273 -6.13294,0.21486c-1.1788,0.03582 -2.31592,0.02301 -3.49461,0.02528c-0.51819,0.001 -1.03816,0.0493 -1.55456,0.00632c-0.62597,-0.0521 -1.24786,-0.15812 -1.86184,-0.29069c-0.50652,-0.10936 -3.5157,-1.12248 -3.51593,-1.12485c-0.29486,-2.96435 0.1447,-6.08635 1.26387,-8.84711c0.29452,-0.72652 1.56737,-0.04134 2.3508,-0.06951c1.03235,-0.03713 2.06416,-0.08847 3.09649,-0.12639c1.73713,-0.06381 3.0737,-0.02049 4.90698,-0.37837c1.10665,-0.21603 2.20026,-0.53091 3.24499,-0.95501c0.57393,-0.23298 1.13546,-0.55431 1.5672,-0.99846c0.72685,-0.74773 0.72318,-1.85491 0.80967,-2.7896c0.03185,-0.34416 0.07663,-0.69 0.05924,-1.03519c-0.042,-0.83421 0.04566,-1.70858 -0.23698,-2.49457c-0.34907,-0.97072 -2.2545,-2.39741 -3.15968,-2.52774c-1.72028,-0.24769 -6.12999,-0.18332 -8.70808,-0.12007c-1.52093,0.03731 -3.72555,1.3905 -4.56258,0.12007c-2.11011,-3.20268 -1.82858,-7.44953 -2.72364,-11.17895c-1.63269,-6.80289 -4.20391,-13.45258 -4.85959,-20.41786c-0.09192,-0.97642 1.92083,-0.39728 2.88163,-0.59402c0.5411,-0.1108 1.07667,-0.255 1.62408,-0.32861c2.4597,-0.33076 4.91734,-0.70702 7.39286,-0.88392c2.48236,-0.17739 4.97597,-0.11849 7.46396,-0.17773M475.8078,409.99814c0.47557,0.1606 0.93968,0.35336 1.40922,0.53083c1.13558,0.42919 3.10982,0.11189 3.40614,1.28915c1.02887,4.08765 0.06495,8.43005 0.10111,12.64504c0.01229,1.43241 0.03302,2.86475 0.04424,4.29717c0.01617,2.06641 0.02023,4.1329 0.03792,6.19929c0.00548,0.64043 0.04977,1.2809 0.0316,1.92109c-0.08464,2.98091 -0.09698,5.60351 -1.11221,8.46162c-0.5124,1.44251 -1.26212,2.79614 -2.04115,4.1139c-0.27388,0.46327 -0.7326,0.7886 -1.09325,1.18804c-0.99739,1.10466 -1.07229,1.36467 -2.29867,2.20704c-0.40612,0.27895 -0.80965,0.59974 -1.28441,0.73147c-1.22873,0.34091 -2.49707,0.54756 -3.76634,0.66985c-0.53437,0.05148 -4.35597,0.06848 -5.61159,0.06951c-46.98232,0.03876 -93.9647,0.02838 -140.94703,0.03792c-34.19828,0.00694 -68.39655,0.01825 -102.59483,0.02528c-9.58226,0.00197 -19.16452,0.01001 -28.74677,0.01264c-8.15619,0.00224 -16.31238,0 -24.46857,0c-4.16446,0 -8.32892,0 -12.49338,0c-3.80847,0 -7.61694,-0.00155 -11.42541,0c-1.38184,0.00056 -2.76367,0.00721 -4.1455,0.00632c-1.87054,-0.00121 -3.74106,-0.01427 -5.61159,-0.01264c-1.9897,0.00173 -3.77448,0.13754 -5.82645,-0.23382c-0.51642,-0.09346 -3.33869,-1.39727 -3.79162,-1.89581c-1.25305,-1.37922 -2.28402,-2.94892 -3.31766,-4.49939c-0.2365,-0.35476 -0.40919,-0.76662 -0.47395,-1.18804c-0.09599,-0.6246 -0.32736,-1.35528 0,-1.89581c0.31331,-0.51733 1.09977,-0.506 1.6304,-0.79624c2.42621,-1.3271 4.88188,-2.60682 7.23804,-4.05466c2.35771,-1.44879 4.60979,-3.0632 6.89205,-4.62814c1.72787,-1.1848 4.37971,-3.17453 6.20423,-4.39946c2.5955,-1.74254 3.92325,-2.72977 6.69023,-3.85086c4.65968,-1.88796 8.97357,-2.45876 14.19269,-3.23986c3.56436,-0.53344 7.16395,-0.79664 10.74686,-1.18646c0.55552,-0.06044 1.1107,-0.1279 1.66831,-0.1643c9.96024,-0.65032 19.91998,-1.3107 29.88426,-1.89581c1.23936,-0.07278 2.48257,-0.04687 3.72368,-0.07766c0.97713,-0.02424 1.95507,-0.03325 2.931,-0.08743c1.50811,-0.08373 3.01948,-0.14946 4.51953,-0.32624c2.424,-0.28567 4.91028,-0.81346 7.30656,-1.32544c1.20495,-0.25744 2.43243,-0.42978 3.61171,-0.78681c0.78177,-0.23668 1.49407,-0.66067 2.24337,-0.98582c0.76525,-0.33207 1.54527,-0.631 2.30025,-0.98582c0.27194,-0.1278 3.4158,-1.81676 4.49702,-2.12094c0.43825,-0.12329 0.89462,-0.1805 1.34839,-0.21723c0.49552,-0.04011 0.99425,-0.00776 1.49137,-0.01264c1.20486,-0.01184 2.40978,-0.01748 3.61467,-0.02528c4.49096,-0.02907 8.98192,-0.0636 13.47288,-0.09479c16.79464,-0.11663 33.58946,-0.20186 50.38427,-0.29069c19.017,-0.10058 38.03407,-0.19666 57.05119,-0.27173c0.93068,-0.00367 12.16813,-0.03476 15.86792,-0.05687c0.62722,-0.00375 5.2376,-0.04678 6.20314,-0.03673c1.19564,0.01244 2.39258,0.00634 3.58634,0.07465c1.17073,0.06699 3.70222,0.40906 4.78929,0.79624c1.1494,0.40938 4.80322,1.98008 6.43943,2.92586c0.4962,0.28682 0.9563,0.63197 1.43449,0.9479c0.57714,0.38131 1.17066,0.73891 1.7315,1.1438c1.44727,1.04483 2.83407,2.17237 4.29085,3.20392c7.59921,5.38102 10.00307,7.51088 18.8317,10.73028c1.99325,0.72685 7.59233,1.09465 9.66862,0.91631c1.76002,-0.15117 3.50018,-0.53033 5.20715,-0.98503c3.79968,-1.01215 6.22849,-2.12168 9.50827,-4.26004c1.43722,-0.93704 2.94983,-1.83197 4.11627,-3.09017c1.50763,-1.62623 2.69247,-3.53863 3.80663,-5.45598c1.11998,-1.92739 2.06495,-3.96136 2.87294,-6.03894c0.9562,-2.45865 10.15652,-4.97715 14.02266,-3.67155z" fill="#00b1c3"/><path d="M241.7513,203.27919c93.3541,-5.67694 187.05404,-0.42034 280.57964,0c0.47101,0.00212 0.57253,0.79662 0.63194,1.26387c0.18094,1.42326 0.0566,2.8689 0.07583,4.30348c0.00604,0.45074 0.00048,0.90156 0,1.35234c-0.00162,1.50822 -0.00509,3.01644 -0.00632,4.52466c-0.00576,7.06925 -0.0076,14.13852 -0.01264,21.20778c-0.00884,12.39859 -0.01622,24.79717 -0.02528,37.19576c-0.00992,13.58031 0.39342,27.16726 -0.0316,40.74092c-0.01474,0.47079 -0.79695,0.56996 -1.26387,0.63194c-0.48969,0.065 -4.83735,0.00655 -5.88964,-0.00632c-3.82896,-0.04682 -7.07239,-0.12957 -11.17579,0.11059c-1.10623,0.06474 -12.97955,1.51644 -15.16331,1.1596c-0.43866,-0.07168 -0.00679,-0.88894 -0.01264,-1.33339c-0.05524,-4.19818 -0.11496,-8.39631 -0.17062,-12.59449c-0.0286,-2.15699 -0.05924,-4.31397 -0.08215,-6.47103c-0.02431,-2.28933 -0.02906,-4.57887 -0.0595,-6.86813c-0.04142,-3.11486 -0.09372,-6.6836 -0.31007,-9.82202c-0.1909,-2.76938 -0.46953,-5.04452 -0.95435,-7.7775c-0.54678,-3.08224 -1.3538,-6.52413 -2.06606,-9.54238c-0.5216,-2.2103 -0.80913,-4.49312 -1.596,-6.62346c-2.13625,-5.78364 -4.43975,-8.60797 -8.01927,-13.53607c-1.94224,-2.67398 -6.19231,-6.66106 -7.72147,-7.93396c-5.45936,-4.54446 -9.83397,-6.82956 -16.62703,-9.14728c-3.18405,-1.08636 -6.44226,-2.05692 -9.77605,-2.50879c-4.629,-0.62742 -9.32619,-0.58692 -13.99581,-0.7133c-4.67306,-0.12647 -9.3495,-0.02936 -14.02424,-0.04503c-6.32357,-0.02119 -12.64714,-0.0392 -18.97072,-0.05687c-27.70409,-0.07745 -55.40815,-0.16637 -83.11224,-0.24646c-23.40691,-0.06766 -47.49064,5.38621 -70.22074,-0.20222c-5.52295,-1.35787 -5.67694,-16.71706 0,-17.06228z" fill="#ef6550"/><path d="M409.21438,100.90554h27.80519v86.57525c-13.76357,-0.31597 -13.76357,-0.31597 -27.80519,-0.63194z" fill="#00afc1"/><path d="M403.32947,268.94115c2.64841,0.64178 5.22777,1.55569 7.78071,2.50879c0.89338,0.33353 1.68505,0.89334 2.52774,1.3397c0.50544,0.26773 1.03613,0.49232 1.51665,0.80256c1.97889,1.27763 3.99768,2.50787 5.85489,3.95671c1.85878,1.45006 3.52653,3.12985 5.26719,4.71977c0.46412,0.42393 0.95349,0.82978 1.34602,1.32075c1.89903,2.37521 3.89072,4.69612 5.51838,7.2649c3.25865,5.14278 5.54747,10.55213 6.82728,16.50775c0.61674,2.86999 0.95483,5.80749 1.07666,8.74047c0.20529,4.94222 0.03874,12.01115 -0.98019,17.29777c-0.36885,1.91375 -0.74205,3.84712 -1.44012,5.66679c-1.23531,3.22011 -2.62653,6.3991 -4.33745,9.39373c-3.14647,5.5073 -4.37711,6.67893 -7.37864,10.27212c-0.38178,0.45703 -0.74427,0.93039 -1.13749,1.37762c-0.51999,0.59143 -2.01415,2.16928 -2.65413,2.414c-0.45121,0.17254 -0.9687,-0.04587 -1.44239,-0.14061c-2.51333,-0.50267 -3.63293,-1.54435 -6.29882,-2.81686c-2.2818,-1.08917 -4.5585,-2.19607 -6.89837,-3.15415c-2.34024,-0.95823 -4.77393,-1.6731 -7.13061,-2.59015c-1.61205,-0.6273 -3.3462,-1.06043 -4.77112,-2.04115c-0.3416,-0.23511 0.78069,-0.28116 1.16276,-0.44236c2.59146,-1.09332 5.27811,-1.99189 7.75702,-3.32082c2.47135,-1.32488 4.84871,-2.85614 7.03661,-4.60997c1.44073,-1.1549 2.63616,-2.60078 3.77345,-4.05545c2.66979,-3.41485 3.95642,-6.0838 5.14396,-10.29187c0.54575,-1.93388 0.98742,-3.9155 1.14301,-5.91887c0.14585,-1.87797 -0.01541,-3.77597 -0.24488,-5.64556c-0.22906,-1.86622 -0.50005,-3.75424 -1.12643,-5.52707c-0.7716,-2.18385 -1.86599,-4.25107 -3.03487,-6.25064c-1.16779,-1.9977 -2.46743,-3.93257 -3.95434,-5.70559c-1.0859,-1.29486 -2.40997,-2.37682 -3.71954,-3.44494c-3.92474,-3.20115 -8.31306,-5.35305 -12.80559,-7.73401c-1.8512,-0.9811 -3.75742,-1.85469 -5.63687,-2.78052c-0.39973,-0.19691 -0.79925,-0.39427 -1.20068,-0.5877c-1.04993,-0.50592 -2.17553,-0.87617 -3.15336,-1.51033c-1.97695,-1.28212 -3.91072,-2.65289 -5.67479,-4.21501c-0.63278,-0.56034 -1.76533,-2.95663 -1.89581,-3.79162c-0.11682,-0.7476 -0.02802,-1.51958 0.07899,-2.26865c0.10487,-0.73412 0.19212,-1.50703 0.55294,-2.1549c0.32614,-0.5856 0.90951,-0.99207 1.43292,-1.4108c2.18793,-1.75034 4.237,-2.07885 7.29333,-2.45428c1.90291,-0.23375 11.17473,0.63799 13.82597,1.28046z" fill="#eb8b2e"/><path d="M275.24392,104.06522h18.32615c-0.32229,17.89643 -0.73937,35.79286 -1.21964,53.68929c-0.04424,1.52297 -0.08215,3.04593 -0.12639,4.5689c-0.06319,2.42663 -0.12639,4.85959 -0.1959,7.29254c-0.02528,0.89735 -0.05055,1.7947 -0.06951,2.69837c-0.03792,1.24491 -0.06951,2.48983 -0.10743,3.74106c-0.02528,1.04901 -0.02528,1.04901 -0.05687,2.11699c-0.15798,3.10913 -0.46763,6.21193 -0.752,9.30842h-15.7984z" fill="#00b4c5"/><path d="M452.18603,124.91911h20.22196l0.63194,0.63194c0.06319,1.88317 0.08215,3.7537 0.06951,5.64319v1.78838c0,1.97164 0,3.93696 -0.00632,5.90228c0,1.35866 -0.00632,2.71733 -0.00632,4.07599c0,3.58308 -0.00632,7.17247 -0.01264,10.75555c-0.00632,3.65891 -0.01264,7.3115 -0.01264,10.96409c-0.00632,7.17879 -0.01896,14.35759 -0.0316,21.53638h-20.85389z" fill="#ef6550"/><path d="M308.73653,106.59296h13.90259c0.37916,1.71887 0.75832,3.43773 1.15012,5.20715c1.27019,5.76958 2.54038,11.53283 3.81057,17.29609c0.77096,3.48197 1.5356,6.96394 2.30657,10.45222c0.73937,3.36822 1.48505,6.73644 2.23073,10.10466c0.29069,1.32707 0.58138,2.64781 0.87839,3.97488c1.40922,6.38887 2.82475,12.77143 4.33508,19.13503c0.10743,0.45499 0.21486,0.91631 0.32861,1.38394c0.48659,2.06011 0.98582,4.12022 1.49137,6.17402c0.30456,1.29298 0.61632,2.58426 0.93527,3.87377c0.07583,0.46131 0.15166,0.91631 0.2275,1.39026l-0.63194,1.26387c-6.88178,-0.31597 -6.88178,-0.31597 -13.90259,-0.63194c-3.09649,-12.664 -6.06659,-25.3596 -8.93558,-38.08047c-0.44236,-1.95268 -0.88471,-3.90537 -1.33339,-5.85173c-6.79331,-29.79579 -6.79331,-29.79579 -6.79331,-35.69175z" fill="#ee664f"/><path d="M161.0183,277.92538c1.07097,0.4641 1.85569,1.42832 2.67467,2.25996c1.05704,1.07339 2.37949,2.48651 2.81133,4.06256c0.28619,1.0445 0.34205,1.96857 0.24488,3.01907c-0.04113,0.44469 -0.02157,0.91399 -0.19511,1.32549c-0.69041,1.63705 -1.69961,3.12826 -2.37608,4.77112c-0.80123,1.94584 -4.02222,5.24471 -2.04747,5.9718c1.07914,0.39733 10.81897,-4.19376 13.78253,-4.77744c1.1179,-0.22017 2.25945,1.02763 2.79474,1.69675c0.44409,0.55512 1.0029,1.11513 1.11695,1.81682c0.27034,1.66334 0.1571,3.37766 0,5.05549c-0.16955,1.8108 -1.68399,2.86486 -2.98432,3.89273c-1.78837,1.41364 -4.17515,2.82464 -6.49472,3.05857c-2.93415,0.29591 -5.90341,0.1773 -8.84711,0c-0.56542,-0.03406 -1.06445,-0.39125 -1.57905,-0.62799c-0.46219,-0.21263 -0.90037,-0.47407 -1.34681,-0.71804c-0.71241,-0.38931 -1.33333,-1.02358 -2.12962,-1.18172c-0.45179,-0.08972 -2.23889,1.17677 -2.52774,1.26387c-1.97518,0.59563 -3.96385,1.24205 -6.01603,1.45345c-2.05918,0.21212 -4.15165,0.05056 -6.20719,-0.19432c-4.18169,-0.49818 -5.78495,-0.70645 -8.77285,-2.91875c-0.8571,-0.63462 -1.69512,-1.31919 -2.38556,-2.13199c-0.57723,-0.67953 -0.86386,-2.59241 -0.87207,-3.31766c-0.00899,-0.79391 0.05977,-1.59655 0.24014,-2.36976c0.09566,-0.4101 0.35871,-0.76357 0.57506,-1.12485c0.58272,-0.97308 1.58664,-2.21932 2.58462,-2.66677c0.63693,-0.28557 1.39053,-0.15166 2.08855,-0.15166c0.77997,0 1.56811,0.00943 2.335,0.15166c1.74655,0.32393 2.77247,1.03943 4.46147,1.54192c2.70965,0.80615 5.41044,2.83005 8.17725,2.24969c1.27142,-0.26669 -0.66055,-2.52038 -1.15012,-3.72368c-1.02003,-2.50712 -3.09826,-5.17145 -3.57044,-7.88498c-0.24002,-1.37936 0.00631,-2.82017 0.29701,-4.18974c0.15853,-0.74688 0.60337,-1.41219 1.0269,-2.04747c1.32319,-1.98479 2.89031,-2.94562 5.26798,-3.78214c1.34498,-0.47319 7.51993,-0.43344 9.02326,0.21802z" fill="#01375c"/><path d="M382.04112,127.44686h12.00679v59.402h-12.00679z" fill="#ed8f2d"/><path d="M508.42835,328.40254c-1.66199,1.27651 -3.35558,2.414 -5.13132,3.51356c-4.36036,2.92586 -7.93712,6.47735 -11.07152,10.6734c-4.19606,5.88333 -7.00817,11.90568 -9.04933,18.8317c-2.72364,11.18527 -2.73628,23.1415 -3.18496,34.5985c-1.03006,-0.60034 -2.05379,-1.207 -3.08385,-1.81998c-0.56874,-0.33493 -1.13749,-0.66985 -1.7315,-1.01742c-1.50401,-0.95422 -1.50401,-0.95422 -2.76788,-2.2181c-0.1643,-1.28283 -0.1643,-1.28283 -0.17062,-2.88163l-0.01896,-1.81998v-1.97796c-0.00632,-0.67617 -0.00632,-1.35234 -0.00632,-2.04747c-0.00632,-1.43449 -0.00632,-2.87531 -0.00632,-4.3098c0.00632,-2.16754 -0.01264,-4.33508 -0.02528,-6.50262c-0.02528,-9.11884 0.3918,-17.52359 3.46301,-26.20007c1.51033,-3.3303 3.50093,-5.91492 6.04131,-8.53114c2.49615,-2.28761 4.97334,-3.77898 8.02559,-5.20083c5.83277,-2.39504 12.4365,-3.23551 18.71795,-3.09017z" fill="#00b7c7"/><path d="M107.14891,517.98338c11.57075,0.31597 11.57075,0.31597 23.38164,0.63194c-1.42186,7.82337 -1.42186,7.82337 -2.28761,10.54701c-0.25277,0.7836 -0.25277,0.7836 -0.49923,1.58616c-0.12639,0.37284 -0.24646,0.752 -0.37284,1.13749c-8.01927,1.03638 -15.91215,2.03483 -24.01357,1.89581c0.3918,-1.68727 0.78992,-3.36822 1.18804,-5.05549c0.10743,-0.46763 0.21486,-0.94158 0.32861,-1.42186c0.11375,-0.47395 0.22118,-0.94158 0.33493,-1.42186c0.10111,-0.4234 0.1959,-0.84679 0.30333,-1.28283c0.53083,-2.21178 1.08693,-4.41091 1.63671,-6.61637z" fill="#eb882e"/><path d="M491.36607,517.35144c0.63826,2.26233 1.27019,4.53098 1.89581,6.79331c0.18326,0.64457 0.3602,1.28283 0.54978,1.94636c0.33071,1.20126 0.66353,2.40194 0.99846,3.60204c0.34756,1.56088 0.34756,1.56088 0.34756,4.08863c-3.02697,-0.1643 -6.04763,-0.33493 -9.0746,-0.50555l-3.09017,-0.17062l-4.43619,-0.24646l-1.39658,-0.07583c-1.92741,-0.11375 -3.53884,-0.28437 -5.3841,-0.89735c-0.65037,-1.72224 -1.21766,-3.47473 -1.69991,-5.25139c-0.13903,-0.49291 -0.28437,-0.9795 -0.42972,-1.47873c-0.65721,-2.32552 -1.03006,-4.08231 -1.03006,-6.54054c2.93218,-0.18326 5.87069,-0.3602 8.80287,-0.53715l2.99538,-0.18958c1.44081,-0.08847 2.87531,-0.17062 4.3098,-0.25909l1.35234,-0.08847c1.76942,-0.10111 3.51988,-0.18958 5.28931,-0.18958z" fill="#ea882e"/><path d="M112.83633,260.78538c1.23228,0.17062 1.23228,0.17062 2.68573,0.51187c0.76464,0.17694 0.76464,0.17694 1.54824,0.3602c1.45345,0.3918 1.45345,0.3918 3.34926,1.1438c1.81998,0.49291 2.93218,0.54347 4.77744,0.3918c1.45977,-0.17062 1.45977,-0.17062 2.8058,-0.51187c0.56242,-0.34125 1.11853,-0.67617 1.69991,-1.02374c0.48027,-0.29069 0.96054,-0.57506 1.45977,-0.87207c1.97164,0 1.97164,0 3.79162,0.63194c1.18804,1.38394 1.18804,1.38394 1.89581,3.15968c0.12007,0.60034 0.23382,1.20068 0.35388,1.81998c-0.35388,1.97164 -0.35388,1.97164 -0.98582,3.10913c-0.96054,1.27651 -1.92741,2.26233 -3.15968,3.28607c-2.03483,1.27019 -3.9812,1.99692 -6.31936,2.52774c-3.0017,0.32861 -5.84541,0.34125 -8.84711,0c-1.65567,-0.4234 -3.01434,-0.92895 -4.52466,-1.7315c-1.15012,-0.78992 -2.12962,-1.5672 -3.09649,-2.57198c-0.40444,-0.66353 -0.80888,-1.33339 -1.22596,-2.01588c-0.35388,-2.24969 -0.35388,-2.24969 0,-4.42355c1.18804,-1.81998 1.18804,-1.81998 2.52774,-3.15968zM169.07865,260.15344c3.49461,0.47395 3.49461,0.47395 5.01757,1.27651c1.25755,0.67617 1.25755,0.67617 2.59094,0.80888c2.07907,0.01264 3.918,-0.04424 5.92124,-0.63826c0.96686,-0.35388 1.93372,-0.70145 2.89427,-1.05533c1.27019,-0.3918 1.27019,-0.3918 3.09017,-0.35388c1.3397,0.59402 1.3397,0.59402 2.52774,1.57984c0.23382,0.51187 0.46763,1.01742 0.70777,1.54192c0.12007,2.40768 0.12007,2.40768 -0.10111,3.72842c-0.53083,1.32707 -0.53083,1.32707 -1.59248,2.59094c-1.75678,1.59248 -3.3935,2.86899 -5.52944,3.90537c-2.31921,0.73937 -4.39828,0.72673 -6.81859,0.66985c-2.06011,-0.17694 -3.7853,-0.51819 -5.68111,-1.34602c-1.29547,-0.80256 -2.28761,-1.65567 -3.34294,-2.75524c-0.90367,-1.16908 -0.90367,-1.16908 -1.57984,-2.36976c-0.35388,-2.28761 -0.35388,-2.28761 0,-4.42355c0.9479,-1.85789 0.9479,-1.85789 1.89581,-3.15968z" fill="#02375c"/><path d="M409.21438,100.90554h27.80519v86.57525c-13.76357,-0.31597 -13.76357,-0.31597 -27.80519,-0.63194zM409.84631,102.80135c-0.19567,1.05454 -0.06434,2.14417 -0.08215,3.21655c-0.01168,0.70346 -0.00632,1.40711 -0.00632,2.11067c0,1.59223 0.00632,3.1852 0.00632,4.77744c0,8.42583 -0.00211,16.85161 0,25.27744c0.00268,10.6734 -0.00632,21.34681 -0.00632,32.0202c0,2.57409 0.00632,5.14817 0.00632,7.72226c0,1.48084 -0.00237,2.96168 0,4.44251c0.00098,0.61508 -0.0157,1.23037 0,1.84525c0.00915,0.3583 -0.18257,1.89995 0.71409,2.00324c1.8438,0.21238 3.71151,0.05954 5.56736,0.08215c1.16781,0.01423 4.7141,0 5.24507,0c1.81787,0 3.63574,0.00632 5.45361,0.00632c1.14802,0 2.29603,-0.00632 3.44405,-0.00632c0.55189,0 1.10384,0.01446 1.65567,0.00632c1.30409,-0.01924 2.62355,0.11577 3.91168,-0.08847c0.29422,-0.04665 0.57759,-0.33904 0.63194,-0.63194c0.19567,-1.05454 0.06434,-2.14417 0.08215,-3.21655c0.01508,-0.90786 0.00112,-3.59468 0,-4.44251c-0.00401,-3.03329 -0.00141,-6.06659 0,-9.09988c0.00677,-14.57244 -0.00498,-29.14489 0,-43.71734c0.00167,-4.88276 0,-9.76552 0,-14.64828c0,-1.48084 0.00237,-2.96168 0,-4.44251c-0.00014,-0.08505 0.03688,-2.88262 -0.08215,-3.21655c-0.10003,-0.2806 -0.336,-0.59785 -0.63194,-0.63194c-1.8438,-0.21238 -3.71151,-0.05954 -5.56736,-0.08215c-1.16781,-0.01423 -4.7141,0 -5.24507,0c-2.96587,0 -5.93179,0 -8.89766,0c-0.55189,0 -1.10384,-0.01446 -1.65567,-0.00632c-1.30409,0.01924 -4.48927,0.42751 -4.54362,0.72041z" fill="#04eff5"/><path d="M306.20879,157.14785h0.63194c0.17062,0.80888 0.33493,1.61776 0.51187,2.45191c0.62562,3.00802 1.25755,6.01603 1.88317,9.01773l0.8152,3.90537c0.3918,1.87053 0.7836,3.73474 1.16908,5.60527c0.12639,0.58138 0.24646,1.16276 0.36652,1.7631c0.17062,0.8152 0.17062,0.8152 0.34756,1.64935c0.10111,0.47395 0.20222,0.95422 0.30333,1.44713c0.28437,1.28915 0.60034,2.5783 0.92263,3.86113h-7.58323c-0.13271,-21.30257 -0.13271,-21.30257 0.63194,-29.701z" fill="#e9694c"/><path d="M82.5034,214.65404c0.18841,-0.0942 0.62981,-0.21063 0.63194,0c0.21063,20.85283 -3.8926,42.0743 0,62.56168c0.7481,3.93736 8.04559,0.02252 12.00679,0.63194c1.58557,0.24393 3.05203,1.06365 4.42355,1.89581c0.53746,0.3261 0.833,0.95072 1.15644,1.48979c0.73333,1.22222 0.9479,2.13941 0.9479,3.5657c0,0.63575 0.01144,1.29933 -0.20854,1.89581c-0.23445,0.63572 -0.69367,1.16924 -1.11695,1.69833c-0.42297,0.52871 -0.8051,1.15875 -1.4108,1.46135c-3.41866,1.70793 -4.8048,1.45162 -8.41107,1.65567c-0.47387,0.02681 -0.94781,0.05241 -1.42186,0.07583c-1.14582,0.05662 -2.60992,-0.62995 -3.43773,0.1643c-0.6267,0.6013 -0.22476,2.38496 0.63194,2.52774c4.77892,0.79649 9.70642,-0.40234 14.53453,0c0.46939,0.03912 1.10145,1.22631 0.63194,1.26387c-3.06365,0.24509 -20.3048,5.1063 -18.32615,-5.68743c0.17742,-0.96786 1.96756,-0.04115 2.95114,-0.06951c1.28088,-0.03694 2.56131,-0.08863 3.84217,-0.12639c0.64867,-0.01912 1.2977,-0.02494 1.94636,-0.04424c0.62577,-0.01862 1.25115,-0.04866 1.87685,-0.06951c0.98247,-0.03275 2.34564,0.01806 3.30503,-0.32861c0.60467,-0.21849 2.22076,-1.20545 2.50879,-1.88949c0.28476,-0.67628 0.22806,-1.45086 0.29306,-2.18176c0.09654,-1.08561 0.14241,-1.93944 -0.32782,-2.94877c-0.22362,-0.47999 -0.50408,-0.95017 -0.88155,-1.32154c-2.21072,-2.175 -4.04303,-1.36813 -7.539,-1.5672c-1.05608,-0.06014 -2.11481,-0.05739 -3.17232,-0.08215c-0.47179,-0.01105 -0.94651,0.02693 -1.41554,-0.02528c-1.76638,-0.19663 -4.93526,1.02254 -5.28299,-0.72041c-1.60981,-8.06911 0.14294,-16.45562 0.21486,-24.68342c0.07791,-8.91241 0.15593,-17.82481 0.23382,-26.73722c0.01719,-1.96742 0.03438,-3.93485 0.05055,-5.90228c0.00488,-0.59401 -0.00079,-1.18818 0.01264,-1.78206c0.03081,-1.36311 -0.09443,-2.74214 0.12007,-4.08863c0.04687,-0.29419 0.36549,-0.49871 0.63194,-0.63194z" fill="#f2af26"/><path d="M243.64711,396.01971l0.63194,1.89581h67.61717v0.63194c-5.59895,0.49291 -11.16631,0.752 -16.79054,0.83416l-2.414,0.03792l-6.38255,0.09479c-1.31443,0.01896 -2.62885,0.03792 -3.9496,0.06319c-13.53607,0.20854 -27.07214,0.32861 -40.60822,0.23382z" fill="#fbbb21"/><path d="M493.26188,524.14476c0.35712,1.27621 1.35171,4.75117 1.54824,5.5484c0.27929,1.13293 0.32352,1.57174 0.34213,2.60289c0.00894,0.49517 0.49781,1.43252 0.00543,1.48574c-3.01202,0.32554 -6.04971,-0.33741 -9.0746,-0.50555c-2.50876,-0.13945 -5.01755,-0.27845 -7.52636,-0.41708c-0.4655,-0.02572 -0.9351,-0.0096 -1.39658,-0.07583c-1.801,-0.25848 -3.68376,-0.24985 -5.3841,-0.89735c-0.4654,-0.17723 -0.41682,-0.90606 -0.58375,-1.37525c-0.02457,-0.06905 -0.95678,-3.21543 -0.96449,-3.2758c-0.20455,-1.60048 -1.86492,-5.37661 -0.34756,-4.82799c1.87581,0.67822 1.55512,3.67415 2.28761,5.52944c0.19692,0.49877 0.33362,1.01926 0.49923,1.52929c0.12508,0.38522 -0.02348,1.07297 0.37284,1.15644c2.28405,0.48106 17.86689,1.88811 20.22196,1.26387c0.90695,-0.2404 -0.34058,-1.84538 -0.51187,-2.76788c-0.09624,-0.51831 -0.15411,-1.04539 -0.29069,-1.55456c-0.7465,-2.78291 0.38526,-7.43244 -2.35712,-8.31628c-6.81961,-2.19789 -14.32389,0.84258 -21.48583,0.63194c-0.42111,-0.01239 -0.41274,-1.17943 0,-1.26387c2.88009,-0.58925 5.86868,-0.35641 8.80287,-0.53715c2.43503,-0.14999 4.87012,-0.2992 7.30518,-0.44867c0.4509,-0.02768 0.90099,-0.06958 1.35234,-0.08847c1.76269,-0.07379 6.55159,4.33974 7.18511,6.60373z" fill="#f5b225"/><path d="M107.14891,517.98338c11.57075,0.31597 11.57075,0.31597 23.38164,0.63194c-1.42186,7.82337 -1.42186,7.82337 -2.28761,10.54701c-0.25277,0.7836 -0.25277,0.7836 -0.49923,1.58616c-0.12639,0.37284 -0.24646,0.752 -0.37284,1.13749c-8.02559,1.03638 -15.90583,2.00324 -24.01357,1.89581l1.89581,-7.58323l0.63194,2.52774c-0.16638,1.27085 -0.37716,2.5355 -0.63194,3.79162c2.75524,-0.17694 5.50416,-0.36652 8.25309,-0.5561c0.77728,-0.04424 1.55456,-0.09479 2.35712,-0.14535c3.7853,-0.26541 7.28622,-0.5561 10.87562,-1.8263c0.33493,-1.207 0.66353,-2.42032 0.98582,-3.63363c0.18326,-0.67617 0.36652,-1.34602 0.5561,-2.04115c0.12007,-0.63194 0.23382,-1.25755 0.35388,-1.90845c-0.31597,-1.25123 -0.31597,-1.25123 -0.63194,-2.52774l-19.59002,-0.63194l-1.26387,3.79162c-0.35388,-1.10589 -0.35388,-1.10589 -0.63194,-2.52774z" fill="#f9b823"/><path d="M464.19282,406.13069c0.99846,0.28437 2.00324,0.57506 3.0017,0.87207c0.5561,0.15798 1.11221,0.32229 1.68727,0.48659c1.47873,0.48659 2.78684,1.06797 4.15814,1.80102l-1.89581,0.63194c-1.42818,-0.35388 -1.42818,-0.35388 -2.96378,-0.90999c-0.51187,-0.17694 -1.01742,-0.3602 -1.54824,-0.54978c-0.38548,-0.14535 -0.77728,-0.28437 -1.1754,-0.43604l-0.5561,1.55456c-1.99692,5.39673 -3.98752,10.74291 -7.72226,15.19806c-2.414,2.51511 -4.94174,4.86591 -7.98767,6.59109c-3.53884,1.66199 -7.10928,2.9701 -11.0336,3.32398c-3.12808,0.15798 -6.23089,0.17062 -9.35265,-0.12639l-1.89581,-1.26387c0.72673,0.0316 1.45345,0.05687 2.19914,0.08847c4.66369,0.13271 9.08092,0.1959 13.59927,-1.11221c4.18342,-1.50401 7.72858,-3.5578 11.30534,-6.1677c1.59248,-1.37762 2.79316,-2.82475 3.87377,-4.63209c2.71733,-4.88487 5.04285,-9.88348 6.30672,-15.34973z" fill="#03dde6"/><path d="M191.82835,203.27919h0.63194c1.13749,7.05241 1.73782,14.09218 2.24969,21.20778c0.08215,1.08061 0.1643,2.1549 0.24014,3.23551c0.15798,2.06643 0.30965,4.13286 0.46131,6.20561c0.27173,3.68419 0.5561,7.37469 0.84048,11.05888h-0.63194c-1.69991,-7.81073 -2.42032,-15.53299 -2.91954,-23.5017c-0.12007,-1.74414 -0.23382,-3.49461 -0.35388,-5.23875l-0.20854,-3.22919c-0.15798,-2.45823 -0.37284,-4.80903 -0.94158,-7.21039c-3.66523,1.7947 -6.19297,4.12654 -9.02405,7.05873c-0.3602,0.38548 -0.71409,0.76464 -1.08693,1.15644l-1.26387,-0.63194c3.68419,-3.89273 7.29886,-7.4758 12.00679,-10.11098z" fill="#f2ae27"/><path d="M445.23473,392.22809c0.52609,-0.09091 3.00843,1.11962 3.15968,1.26387c3.64838,3.47951 4.9186,3.56652 4.373,7.38575c-0.14617,1.02318 -1.1516,4.01835 -1.84525,4.62103c-0.36389,0.31616 -0.95577,-0.12673 -1.43449,-0.18326c-0.6272,-0.07407 -1.25584,-0.13554 -1.88317,-0.20854c-0.99393,-0.11565 -2.60982,-0.39572 -3.63363,-0.24014c-0.48971,0.07442 -0.95828,0.27297 -1.40132,0.49449c-0.4067,0.20335 -0.84824,0.40971 -1.12643,0.76938c-0.3327,0.43014 -0.52529,0.97078 -0.63194,1.50401c-0.10823,0.54117 -0.17477,1.13218 0,1.65567c0.185,0.55414 0.6138,1.00718 1.0269,1.42028c1.06701,1.06701 2.04364,1.39583 3.45827,1.86737c0.60152,0.20051 1.46586,-0.01213 1.83419,0.50397c0.29094,0.40765 -0.26583,0.96791 -0.45183,1.43292c-0.73961,1.84903 -0.92365,2.11007 -2.58699,3.49619c-0.62724,0.5227 -1.24407,1.12619 -2.01667,1.39026c-1.33732,0.45709 -2.76383,0.71962 -4.1771,0.72673c-1.2469,0.00627 -2.47528,-0.35486 -3.67708,-0.68723c-1.20612,-0.33356 -2.58528,-0.47208 -3.52067,-1.30337c-0.35207,-0.31289 0.18369,-1.11919 0.63194,-1.26387c0.47548,-0.15348 0.89034,0.46326 1.36498,0.6193c0.84886,0.27906 1.7113,0.53377 2.59252,0.6817c1.06581,0.17891 3.24899,0.26161 4.46305,0.17773c0.56666,-0.03915 1.15995,-0.0118 1.69043,-0.21486c0.68896,-0.26372 1.31186,-0.69402 1.88791,-1.15486c0.48711,-0.38969 1.15194,-0.76069 1.27177,-1.37288c0.38125,-1.94767 -1.42342,-2.26548 -2.52774,-3.0017c-0.65725,-0.43817 -1.42742,-0.78579 -1.89581,-1.42186c-0.79365,-1.07777 -0.99253,-3.17681 -0.63194,-4.42355c0.19847,-0.6862 0.56287,-1.35279 1.06797,-1.85789c2.86891,-2.86891 5.4838,-0.58924 9.67494,-1.30179c0.51247,-0.08713 0.52094,-0.90888 0.67775,-1.40448c0.33508,-1.05903 0.66329,-3.33005 -0.04582,-4.28295c-1.19554,-1.60656 -2.94576,-2.71395 -4.44251,-4.04439c-0.39956,-0.35517 -0.92206,-0.585 -1.24491,-1.0111c-0.12721,-0.16789 -0.20757,-0.59607 0,-0.63194z" fill="#f5b125"/><path d="M456.60959,353.67999h0.63194v27.17325l-3.79162,-1.26387l-0.63194,-1.26387h2.52774c0.01896,-0.5877 0.0316,-1.18172 0.05055,-1.78838c0.05687,-2.19914 0.12007,-4.40459 0.18326,-6.61005c0.0316,-0.9479 0.05687,-1.90213 0.08215,-2.85003l0.11375,-4.12022c0.03792,-1.23228 0.03792,-1.23228 0.06951,-2.49615c0.13271,-2.30657 0.40444,-4.49939 0.76464,-6.78067z" fill="#02d3de"/><path d="M186.77286,279.11153h0.63194c0.10111,0.38548 0.20222,0.77728 0.30333,1.1754c0.14535,0.51187 0.29701,1.02374 0.44867,1.54824l0.4234,1.5356c0.23382,0.46763 0.47395,0.94158 0.72041,1.42818c1.26387,1.22596 1.26387,1.22596 3.15968,1.89581c2.06643,0.30333 4.1139,0.37916 6.19929,0.43604c0.56242,0.01896 1.11853,0.04424 1.69359,0.06319c1.3713,0.05055 2.7426,0.09479 4.1139,0.13271l-0.63194,5.05549l-8.21517,-0.63194v-0.63194h6.9513v-1.89581c-0.5877,-0.02528 -1.1754,-0.04424 -1.78206,-0.06951c-7.18511,-0.38548 -7.18511,-0.38548 -9.66862,-1.35234c-1.81998,-1.10589 -1.81998,-1.10589 -3.3619,-2.52774c-0.48659,-0.85943 -0.48659,-0.85943 -0.98582,-1.73782c-0.15798,-2.40768 -0.15798,-2.40768 0,-4.42355z" fill="#f4a927"/><path d="M275.24392,104.06522h18.32615c0,10.17417 0,10.17417 -0.31597,15.09063l-0.08847,1.52297l-0.2275,3.60836h-0.63194c-0.31597,-9.6939 -0.31597,-9.6939 -0.63194,-19.59002h-16.43034z" fill="#02ccd9"/><path d="M448.39442,354.31192l0.63194,1.26387c-2.26233,4.56258 -5.52312,8.3542 -9.02405,12.00679c-0.3602,0.41708 -0.71409,0.83416 -1.08693,1.26387v1.26387l9.47904,5.05549c-0.62562,0.31597 -0.62562,0.31597 -1.26387,0.63194c-1.13117,-0.44867 -1.13117,-0.44867 -2.47087,-1.18172c-0.48027,-0.25909 -0.96686,-0.51819 -1.45977,-0.7836c-0.49923,-0.27805 -1.00478,-0.5561 -1.51665,-0.84048c-0.51187,-0.27173 -1.01742,-0.54978 -1.5356,-0.82784c-1.25539,-0.68083 -2.50874,-1.36543 -3.76002,-2.05379c1.90845,-2.6099 3.83585,-5.14396 6.00339,-7.54532c2.29393,-2.56566 4.16446,-5.34618 6.00339,-8.25309z" fill="#03dce5"/><path d="M409.21438,346.09676l1.26387,0.63194c-1.0111,0.6193 -2.02851,1.23859 -3.03961,1.85789c-0.56874,0.34125 -1.13117,0.68881 -1.71255,1.04269c-1.5672,0.89103 -1.5672,0.89103 -3.46301,1.52297v1.26387l8.21517,3.15968l-0.63194,1.26387c-1.73782,-0.60666 -3.47565,-1.207 -5.21347,-1.81998c-0.49291,-0.1643 -0.9795,-0.33493 -1.49137,-0.51187c-0.47395,-0.17062 -0.9479,-0.33493 -1.44081,-0.50555l-1.32707,-0.46131c-1.31443,-0.51187 -2.5467,-1.10589 -3.79794,-1.75678c0.38548,-0.14535 0.76464,-0.29069 1.16276,-0.44236c3.51988,-1.3713 6.86283,-2.90691 10.19313,-4.7016c0.4234,-0.18326 0.84679,-0.3602 1.28283,-0.54347z" fill="#f4b125"/><path d="M308.1046,393.49196c2.89427,0.91631 5.67479,2.02851 8.45531,3.23551c0.40444,0.17694 0.80888,0.35388 1.22596,0.53083l2.95746,1.28915c-2.02851,0.60034 -3.84217,0.70777 -5.95284,0.69513c-0.65089,-0.00632 -1.29547,-0.00632 -1.96532,-0.00632l-2.03483,-0.01896c-0.68249,0 -1.36498,-0.00632 -2.06643,-0.00632c-1.68095,-0.00632 -3.3619,-0.01896 -5.04285,-0.0316v-0.63194c0.87839,-0.04424 0.87839,-0.04424 1.77574,-0.09479c0.75832,-0.04424 1.51033,-0.09479 2.29393,-0.14535c0.752,-0.03792 1.51033,-0.08215 2.28761,-0.13271c0.61298,-0.08215 1.22596,-0.17062 1.85789,-0.25909l0.63194,-1.26387l-4.42355,-2.52774z" fill="#eaa02b"/><path d="M217.73773,265.20893c0.02613,-0.20902 0.53773,-0.18841 0.63194,0c0.5958,1.19159 0.56014,2.66042 1.26387,3.79162c0.19706,0.31676 0.74575,0.02339 1.11853,0.03792c1.68102,0.06552 3.36177,0.13822 5.04285,0.20222c0.58758,0.02237 1.17553,0.03436 1.7631,0.05687c0.56678,0.02172 1.13318,0.05281 1.69991,0.07583c0.52231,0.02122 1.04705,0.00491 1.5672,0.05687c0.9613,0.09603 1.94203,0.31067 2.81844,0.73305c0.41114,0.19815 0.84731,0.39728 1.15644,0.73305c0.51442,0.55875 1.13901,1.14665 1.26387,1.89581c0.10951,0.65706 0.02194,1.76867 -0.63194,1.89581c-0.63691,0.12384 -0.78271,-1.03526 -1.18804,-1.54192c-0.69479,-0.86849 -1.34943,-2.05274 -2.60358,-2.24969c-0.98853,-0.15524 -2.00107,-0.03264 -3.0017,-0.03792c-0.92752,-0.00489 -2.75778,0.02752 -3.67155,0.03792c-1.22594,0.01395 -2.45193,0.02337 -3.67787,0.03792c-0.11779,0.0014 -2.60778,0.07602 -2.91954,-0.03792c-0.2798,-0.10225 -0.59904,-0.33586 -0.63194,-0.63194c-0.1861,-1.67486 -0.20902,-3.38334 0,-5.05549z" fill="#04e4ec"/><path d="M102.72536,296.80574l1.26387,0.63194c0.12007,1.76942 0.20222,3.31135 0,5.05549c-1.02374,1.81998 -1.02374,1.81998 -2.52774,3.15968c-2.66045,1.18172 -5.33354,1.54824 -8.21517,1.89581l1.26387,3.79162c-1.07985,-1.02626 -2.13342,-2.07983 -3.15968,-3.15968l-0.63194,-1.89581c0.70777,-0.10111 1.41554,-0.20222 2.14226,-0.30333c0.93527,-0.14535 1.86421,-0.29701 2.79316,-0.44867c0.46763,-0.06319 0.93527,-0.12639 1.41554,-0.18958c1.55456,-0.23382 1.55456,-0.23382 3.76002,-0.95422c1.3397,-1.42186 1.3397,-1.42186 1.89581,-3.15968c0.15798,-2.34448 0.15798,-2.34448 0,-4.42355z" fill="#f6b324"/><path d="M202.57126,270.89636h0.63194l0.63194,5.05549c-0.82784,0.02528 -1.66199,0.04424 -2.51511,0.06951c-1.09957,0.04424 -2.19282,0.08847 -3.29239,0.12639c-0.54347,0.01896 -1.09325,0.0316 -1.65567,0.04424c-1.5356,0.06319 -3.02065,0.15798 -4.54362,0.3918c-1.84525,0.84048 -1.84525,0.84048 -3.15968,1.89581c-0.62562,0.31597 -0.62562,0.31597 -1.26387,0.63194c0.47395,-1.18804 0.47395,-1.18804 1.26387,-2.52774c0.96686,-0.68881 0.96686,-0.68881 2.52774,-1.26387c1.83893,-0.24014 3.67787,-0.32229 5.52944,-0.3918l1.51665,-0.07583c1.23228,-0.06319 2.46455,-0.11375 3.69683,-0.1643z" fill="#faba22"/><path d="M306.20879,157.14785h0.63194c0.32229,1.49769 0.63826,3.0017 0.9479,4.49939c0.08847,0.4234 0.18326,0.84679 0.27173,1.27651c0.52451,2.54038 0.77096,4.90382 0.67617,7.49476c-1.26387,-1.26387 -1.26387,-1.26387 -1.89581,-2.52774h-0.63194z" fill="#e78236"/><path d="M192.46029,299.96542c0.7836,0.42972 0.7836,0.42972 1.57984,0.87207c2.43295,1.12485 4.65737,1.69991 7.26727,2.28761c-0.63826,1.42186 -1.22596,2.48983 -2.28761,3.63363c-0.29069,0.25909 -0.57506,0.52451 -0.87207,0.78992l-1.26387,-0.63194l1.89581,-2.52774c-0.40444,-0.15798 -0.80888,-0.32229 -1.21964,-0.48659c-0.52451,-0.21486 -1.04901,-0.43604 -1.58616,-0.65721c-0.51819,-0.21486 -1.03638,-0.42972 -1.57352,-0.64457c-0.43604,-0.24646 -0.86575,-0.48659 -1.30811,-0.73937z" fill="#f7b524"/><path d="M479.35929,378.3255h0.63194v17.69421l-3.15968,-1.89581l1.89581,-0.63194z" fill="#04ebf2"/><path d="M508.42835,328.40254c-1.81998,1.41554 -3.64627,2.71733 -5.68743,3.79162l-1.26387,-0.63194l0.63194,-1.26387l-2.52774,-1.26387c5.94652,-0.72673 5.94652,-0.72673 8.84711,-0.63194z" fill="#04e3eb"/><path d="M201.93933,287.3267c1.30179,0.27805 1.30179,0.27805 2.52774,0.63194l-0.63194,4.42355l-8.21517,-0.63194v-0.63194h6.9513v-1.89581l-1.26387,-1.26387z" fill="#fcbd21"/><path d="M217.73773,265.20893h0.63194c0.13903,0.89735 0.13903,0.89735 0.27805,1.81998c0.32229,0.65089 0.65089,1.30179 0.98582,1.97164c1.85789,0.73305 3.70947,1.03006 5.68743,1.26387v0.63194c-1.1438,0.01896 -2.28761,0.0316 -3.43773,0.03792c-0.63826,0.00632 -1.27651,0.01896 -1.93372,0.02528c-0.51819,-0.01896 -1.04269,-0.04424 -1.57984,-0.06319l-0.63194,-0.63194c-0.08847,-1.68727 -0.02528,-3.3619 0,-5.05549z" fill="#03d7e1"/><path d="M179.18963,214.02211l1.89581,0.63194l-2.52774,2.52774l-1.26387,-0.63194z" fill="#ee982b"/></g></g></svg>