<svg xmlns="http://www.w3.org/2000/svg" width="1365.333" height="1365.333" preserveAspectRatio="xMidYMid meet" version="1.0" viewBox="0 0 1024 1024"><g fill="#000" stroke="none"><path d="M425.3 148.1c-6.6 2-6.3-2.7-6.3 97.4V336h31v-73.8c.1-56.4.3-74.1 1.3-75.2 3.7-4.8 4.8-5 30.2-5 22.3 0 24.2.2 27 2 3.5 2.3 7.2 2.5 9.9.5 1.6-1.2 5.8-1.5 21.1-1.5 18.3 0 19.4.1 22.5 2.3 3.2 2 3.5 2.9 5.1 11.7.9 5.2 4.4 22.1 7.8 37.5 3.3 15.4 9.4 43.7 13.5 63 4.2 19.2 8 36 8.6 37.3 1 2.2 1.4 2.3 11.7 2l10.8-.3V281c0-42.7.3-56 1.3-57.7 2.7-4.9 4.5-5.3 22.4-5.3H660v-15c0-15.8.6-18.5 4.8-22.4 2-1.7 4.6-1.8 41.2-1.9h39.1l3.2 3.2 3.2 3.1.3 14.5.3 14.4 25.5.3 25.4.3 3.2 3.3 3.3 3.2-.4 57-.3 57H864v-91.5c0-90.2 0-91.5-2-93.5-1.1-1.1-3.2-2-4.7-2-1.6 0-98.6-.2-215.8-.5-140.6-.3-214.1-.1-216.2.6m431.5.9c1.2 0 3.1.9 4.2 2 2 2 2 3.3 2 92.5V334h-53.2l.3-56.9.4-56.9-2.4-2.6c-1.4-1.4-4.1-3-6-3.6-2-.5-13.8-1-26.3-1h-22.6l-.4-14.5-.3-14.5-3.2-3.1-3.1-3.2H706c-37.6.1-40.2.2-42.2 1.9-4 3.6-4.8 7.5-4.8 22.9V217h-34.2l-2.9 2.9c-1.6 1.6-3 4-3.1 5.3-.2 1.3-.3 26.6-.3 56.3v54l-9.6.3c-6.9.2-9.9-.1-10.6-1-.6-.7-4.3-16.2-8.2-34.3-3.9-18.2-10.4-48.5-14.5-67.5s-7.7-36.8-8.1-39.5c-1.6-11-2.9-11.5-28-11.5-16.7 0-20.1.3-22.6 1.7-2.7 1.6-3 1.6-7.2-.5S504 181 481 181c-26.2 0-28.5.4-30.9 5.7-.8 1.7-1.1 25-1.1 75.3v73h-29v-90.3c0-83.9.2-90.4 1.8-92.4.9-1.2 2.8-2.7 4.2-3.3 1.7-.7 68.1-.8 215.5-.5 117.2.3 214 .5 215.3.5"/><path d="M684 268v68h45V200h-45zm44 0v67h-43V201h43zm-255.3-63.3c-.4.3-.7 30.3-.7 66.5V337h13c7.2 0 13-.1 13-.3.5-2.9 3.8-131.3 3.4-131.9-.6-.9-27.8-1.1-28.7-.1m27.7 1.1c.3.6-2.9 127.7-3.4 129.9 0 .2-5.4.3-12 .3h-12v-64.8c0-35.7.3-65.2.7-65.5.9-1 26.1-.9 26.7.1m25.2 3.1c-1.3 2 5.4 33.7 25.1 119.3l1.5 6.7 11.5.3c6.3.2 11.6.1 11.8-.2s-.5-4.1-1.6-8.5c-2.6-10.8-24.6-110-25.4-114.8l-.7-3.7h-10.9c-5.9 0-11 .4-11.3.9m21.9 3.3c1.4 7.1 23.6 106.8 25.4 114l1.8 7.8H553l-.6-2.8c-.3-1.5-1.2-5.2-2-8.2-.7-3-5.6-24.6-10.9-48-9.6-42.4-13.8-63.7-12.9-65.2.3-.4 5-.8 10.4-.8h9.8zm204.9 26.3c-.2.5-.3 22.4-.2 48.5l.3 47.5 16.8.3 16.7.2v-48.5c0-26.7-.3-48.5-.7-48.5-21-.5-32.6-.3-32.9.5m32.4 48 .2 47.6-15.7-.3-15.8-.3-.3-46.5c-.1-25.6 0-47 .2-47.5.2-.6 6.2-.9 15.7-.8l15.4.2zm-143.8 2V336h20v-95h-20zm19 0V335h-18v-93h18zM520.2 312l-.3 24h6.1c4.7 0 6-.3 6-1.5 0-.9-1.5-8.4-3.4-16.8s-3.7-17.2-4-19.7c-1.3-8.4-1.8-10-2.9-10-.9 0-1.3 6.3-1.5 24m3.2-15.3c.4 2.9 2.2 12.2 4.1 20.7s3.5 16 3.5 16.6c0 .5-2.2 1-5.1 1h-5l.3-22.9c.3-22.3.8-26.1 2.2-15.4m-103.7 65c-.4.3-.7 6.6-.7 13.9v13.3l157.8.3 157.7.4 9.5 2.6c17.4 4.9 28.4 11.1 39.6 22.2 12.6 12.7 20.7 27.5 24.6 45.1 1.7 7.7 2 14.2 2.5 44.7l.6 35.8h2.6c1.4 0 5.3-.5 8.6-1.1s14-1.3 23.8-1.7l17.7-.7V362c0-1.1-443.2-1.5-444.3-.3m443.6 87.6.2 86.7h-13c-7.1 0-17.9.7-24 1.5-6 .8-11.7 1.5-12.6 1.5-1.5 0-1.7-3.7-2.2-35.3-.5-29.8-.8-36.6-2.5-44.2-4.2-19.3-11.8-33.4-25.1-46.5-8.7-8.6-17.8-14.4-28.7-18.2-18.8-6.6-5.6-6.1-178.1-6.5l-157.3-.4v-12.3c0-6.7.3-12.6.7-12.9.3-.4 100-.6 221.5-.5l220.8.3zm-530.3-83c-7.3 5.8-16.6 16.1-24.3 27.1-9.8 14-7.8 12.8-18.2 11.1-19.6-3.2-48.5-2.7-67.1 1.1-2.9.6-4-.1-13.8-9.2-5.9-5.4-14.6-12.7-19.4-16.2-8.1-6-19.2-12.2-21.8-12.2-.7 0-1.4 1.5-1.7 3.2-.3 1.8-.7 27.1-.9 56.3l-.2 53 2.9.6c1.7.4 7.2.7 12.3.8 8.4.1 9.5.3 11.7 2.6 3.3 3.2 3.3 7.8 0 11-2.2 2.3-3.1 2.5-12.5 2.5-11.2 0-11.8.4-10.2 6.1l.9 3.4 12-.3 12-.4 2.6 3.2c3.1 3.7 3.2 4.1 1.2 8s-3.7 4.7-11.7 5.5c-3.8.4-6.8 1.2-6.8 1.7 0 2.1 7.4 11 14.7 17.8 4.2 3.8 12.8 10.4 19 14.5 8.9 6 11.3 8 10.8 9.3-3.7 9.6-4.6 27.3-2 39.7.8 3.8 3 10.2 5 14.1 4.1 8.3 14.6 20.4 17.8 20.4 3.3 0 15.4-3 57.5-14.2l38.3-10.1 2.7 2c4.2 3.2 4.9 7.3 2.1 12.4-2.9 5.1-7.4 8.4-14.3 10.4-24.9 6.8-67.4 17.9-77.1 20.1-14 3-24.6 7-32.4 12.2-7.5 4.9-17.3 14.7-20 20.1-4.8 9.4-3.5 21.1 3 26.6 6.8 5.6 16.2 2.6 35.9-11.5 12.1-8.6 24.1-15.1 32.5-17.5 7-2 45.7-6.1 80-8.5 34.8-2.4 37.8-3.1 45.1-10.4 6.8-6.9 7.9-10.6 7-24.7-.8-11.6-.1-14.7 4.2-19.2 5.6-5.9 9.9-2.4 13.2 10.8 2.6 10.5 2.3 18.4-.9 25.5-4.1 9.1-7.6 8.4 39.2 7.6 22.6-.3 50.5-.7 62-.8 15.8-.1 20.7-.4 20.7-1.4 0-.7-1.5-1.6-3.2-1.9-10.8-2.4-32.3-18.4-42.8-32-5.5-7.2-11.7-18.7-14.7-27.5-2-5.8-2.7-10.2-3.1-19.6-.5-14 .4-17.9 5.4-23 4-3.9 7-4.3 10.8-1.3 4.1 3.2 5.3 6.6 6 17.7 1.4 20.8 7.2 34.9 19.2 46.7 8 8 15.1 12.5 25 16.1 11.2 4 22 5.3 53.4 6.3 26.1.7 30.3 1.1 36.5 3 12.1 3.9 34.3 15.6 51.1 27.1 8.7 6 19.1 12.9 22.9 15.4 14.9 9.6 28 9.3 33.1-.6 1.4-2.7 1.4-2.8-3.1-4.9-2.5-1.2-5-3-5.6-4-2.3-4.4 4.4-9 10.2-7 1.8.6 3.7 1.1 4.4 1.1 2 0 4.8-7.4 4-10.8-1-4.8-8.5-10.9-20.4-16.4-5.8-2.8-20-10-31.4-16-21.9-11.6-39.7-19.3-52.5-22.8-4.2-1.2-8.9-2.6-10.4-3.1-2.8-1.1-3-1.4-8.2-15.9-13.5-37.9-40.2-65.2-75.1-76.8-18.3-6.1-35.7-8.4-61.5-8.4-22 0-41.6 2.4-56.7 6.8-25 7.3-42.9 9.2-56.5 6-3.1-.7-6-1-6.5-.7-.4.3-2.5 3.2-4.7 6.3-4.7 7-10.2 12.1-16.2 15-4.2 2.1-4.7 2.1-8.6.8-2.8-1-4.8-2.6-6.1-4.8-1.8-3-1.8-3.4-.3-5.7.9-1.4 3.8-3.6 6.4-4.9 5.4-2.8 11.7-8.9 10.8-10.5-.4-.6-2.2-1.3-4-1.7-1.9-.3-4.8-1.4-6.5-2.5-2.5-1.5-3.1-2.5-3.1-5.2 0-1.8.7-4.3 1.6-5.5 1.3-1.9 2.4-2.2 9-2.2h7.4v-9h-9.4c-8.6 0-9.7-.2-12.4-2.5-3.5-2.9-4.7-6.7-3.1-9.6 1.7-3.3 7-4.9 16.4-4.9 4.7 0 8.5-.2 8.5-.5 0-3-3.5-22-5.4-29-1.3-5-3.5-13.4-4.9-18.7-2.6-9.7-3.7-18.5-5.7-45.3-1.4-18.6-1.9-21.5-3.9-21.5-.9 0-4.1 2-7.1 4.3m8.4-.2c.3 1.7 1 9.4 1.6 17.2 1.9 26.7 3.1 35.7 5.5 45 5.1 18.9 8.3 32.3 8.9 37.2.4 2.7.9 6.2 1.2 7.7l.6 2.8-8.4.1c-4.6 0-9.9.5-11.8 1.2-6.3 2.2-7.5 10-2.3 14.9 2.2 2 3.6 2.3 12.4 2.6l9.9.4v6.8h-7.4c-8.4 0-9.5.7-10.3 6.8-.8 5.9.9 8 7.8 9.9l6 1.6-3.3 3.4c-1.8 1.9-5.5 4.6-8.3 6.1-6.7 3.6-8.3 6.9-5.8 12 1.4 2.9 2.7 3.9 6.5 5.1 4.2 1.3 5.1 1.2 9.2-.3 5.9-2.3 12.7-8.4 17.7-16l4.1-6.3 5.7 1.3c13.5 3.2 31.4 1.3 56.4-6 15.1-4.4 34.7-6.8 56.7-6.8 32.5-.1 53.8 4 74.5 14.2 29.4 14.4 50.9 40.1 63.1 75.4l3.6 10.6 5.7 1.6c20.4 5.6 32.1 10.5 59.1 24.8 10.7 5.6 25.1 13 32 16.3 9.5 4.6 13.6 7.2 16.8 10.7 5.2 5.7 5.3 7.4.6 14.4-.2.2-1.9-.1-3.8-.8-4.7-1.5-10.3.2-11.6 3.5-1.5 4-.1 6.6 5.2 8.9l4.8 2.1-3 3.7c-6.3 7.6-15.6 7.1-29-1.5a2531 2531 0 0 1-23.8-15.9c-17.9-12.2-35.4-21.4-49.2-26-9.3-3-10-3.1-36.5-3.9-30.6-.9-37.3-1.4-46.5-3.5-14.1-3.2-31.3-14.2-39.3-25.1-8.4-11.5-12.1-22.4-13.2-39.3-.8-11.3-1.8-15-4.9-17.9-5.4-5.1-13.5-2.9-17.2 4.5-1.6 3.3-1.9 6.1-1.9 17.4s.4 14.7 2.3 21c4.7 15 13.3 28.9 24.4 39.7 9.5 9.2 27.9 21.3 32.5 21.3 1 0 2.4.4 3.1.8.7.5-7.9.9-19 1-11.2.1-38.6.5-61 .8-22.5.4-40.8.4-40.8.1 0-.4.9-3 2.1-5.9 3.3-8.4 3.5-16.7.5-27.8-3.4-12.8-7.5-16-14-10.9-4.3 3.4-5 6.3-5.1 21.6 0 14.1 0 14.1-3 18.4-3.8 5.4-10.4 10.5-15.3 11.8-2 .6-16.7 2-32.7 3.1-35.1 2.5-73 6.5-80.5 8.6-9.3 2.6-21 8.8-33 17.4-23.6 16.8-31.8 18.1-38 5.9-4.4-8.6-1.1-19 9.2-29.3 12-11.8 23.6-17.7 43.3-22 11-2.5 62.7-16 78.7-20.7 7.9-2.3 12-5.4 14.2-11 2.7-6.8.7-12.6-5.1-14.3-1.4-.5-15.6 2.9-39.5 9.2-20.5 5.5-42 11-47.7 12.3l-10.4 2.4-6.3-6.9c-7.9-8.5-13.7-19.6-15.4-29.7-1.6-9.2-.8-27.9 1.3-33.7.9-2.3 1.4-4.8 1.1-5.6-.3-.7-5.4-4.6-11.3-8.5-11.8-7.8-24.7-19.2-29.8-26.4l-3.3-4.5 6.3-.7c8.6-1 10.6-2 12.3-6 1.8-4.4 1-7.9-2.5-10.6-2.4-2-3.4-2.1-13.8-1.4l-11.3.6-1-2.6c-2-5.2-1.8-5.3 10.1-5.7 10.4-.3 11.2-.5 13.1-2.8 1.6-1.9 1.9-3.5 1.5-6.8-.8-6.9-2-7.5-15.7-8.2-6.6-.4-12.4-1.1-12.8-1.6-.9-1.1 0-109 .9-109.9 1.1-1.1 11.9 4.9 21.1 11.7 4.8 3.5 13.5 10.8 19.4 16.2 10.6 9.8 10.7 9.8 14.8 9.1 10.3-1.7 29.9-3.5 38.1-3.5s30.7 2.3 36.2 3.6c2.6.7 3.6-.3 12.1-12.4 7.5-10.7 17.1-21.3 24.1-26.8 3.1-2.4 5.9-4.4 6.2-4.4.4 0 .9 1.4 1.3 3.1"/><path d="M303.6 452.5c-2.7 2.7-3.1 8.5-1 12.4 2.7 5 6.1 7.1 13.6 8.3 7.5 1.3 12.1.4 17.9-3.5 6.8-4.5 8.7-13.8 3.5-17.2-1.9-1.3-2.9-1.2-8.5.5-7.9 2.5-11.8 2.5-17.2 0-5.3-2.4-6.3-2.4-8.3-.5m7.5 1.5c5.6 2.5 10.1 2.5 18.1 0l6.3-2 2.3 2.6c1.2 1.4 2.2 3.3 2.2 4.3 0 3.2-4.5 8.5-9.5 11.4-4.4 2.5-5.7 2.7-11.2 2.3-7.4-.6-11.3-2.4-14.7-6.9-3-3.9-3.2-6.6-1.1-10.7 1.8-3.5 2-3.6 7.6-1m-71 .7-5.5 2.6-6.5-1.8c-14.7-4.1-18.6-2.8-18.6 6.5 0 6.1 2.6 9.2 10.2 12 10 3.7 23.3 1.6 30.7-5 2.6-2.4 3.1-3.5 3.1-7.5 0-3.9-.5-5.1-2.8-7.1-3.4-2.9-3.8-2.9-10.6.3m10.3 1.4c4.9 5.8 2.3 11.2-7.8 16-7.9 3.8-15.8 3.9-23.2.5-8.8-4.1-11.7-10.4-7.3-16 2.5-3.2 5.1-3.3 13.9-.5 7.2 2.2 11.9 1.9 16.6-1.1 4-2.6 4.8-2.4 7.8 1.1m25.7 23.7c-6.3 2.4-8.6 6-8.6 13.1 0 4.8.6 6.7 3.3 11 1.7 2.9 3.2 6.2 3.2 7.3 0 1.9-.4 2-4.2 1.5-2.4-.3-7.1-1.8-10.5-3.2-7.2-2.9-10-3.1-13-1-2.7 1.9-4.6 7.7-3.8 11.5.9 4 4.5 6.6 12.7 9.1 8.4 2.6 18.3 2.3 24.3-.6 3.9-2 4.1-2 7.8-.1 8.9 4.3 24.9 2.6 30.8-3.3 4.7-4.7 5.1-12.9.8-17.2-2.6-2.6-5.7-2.1-14.8 2.1-3.5 1.7-7.2 3-8.2 3-2.6 0-2.5-4 .2-7.3 1.1-1.5 2.7-4.7 3.6-7.2 2.7-8.1-.3-15-8.1-18.6-5-2.3-9.7-2.3-15.5-.1m14.8 1.2c9.8 4.9 11.5 13.6 4.6 23-1.5 2-2.5 4.7-2.5 6.7 0 3 .3 3.3 2.9 3.3 1.6 0 6.2-1.6 10.2-3.5 4.1-1.9 8.1-3.5 9.1-3.5 2.3 0 5.8 5.2 5.8 8.7 0 4.2-3.4 8.9-8.2 11.5-6 3.2-19.4 3.3-25.2.2l-4-2.1-5.4 2.5c-4.7 2.1-6.5 2.4-13.1 2-8.9-.5-17.9-4.1-20.6-8.2-2.2-3.3-1.3-8.5 2-11.6 2.8-2.6 4.6-2.5 15.2 1.4 4 1.4 8.6 2.6 10.3 2.6 2.6 0 3-.3 3-2.9 0-1.6-1.6-5.5-3.5-8.7-5.7-9.5-3.9-17.5 4.8-21.4 5.4-2.5 9.8-2.5 14.6 0m88.6-64.5c-4.4.8-8.1 1.4-8.2 1.4-.9.3.2 6.1 3.3 18 2 7.5 4.4 17.9 5.3 23.1l1.7 9.5h11.1c10.4 0 11.3.2 13.7 2.4 2.8 2.7 3.5 7.5 1.3 10.1-3.1 3.8-5.2 4.5-14.6 5l-9.6.5-1.3 6.4c-1.8 9.5-1.6 9.6 16.1 9.6 13.7-.1 14.9-.3 31.9-4.8 21.2-5.6 39.9-8.4 60.8-9.3 66.7-2.8 117.7 21.9 148.5 71.9 8.5 13.9 8.4 13.7 15.5 13.7 11.6 0 21.8-6.1 26.1-15.4 2.5-5.5 2.5-15.7 0-21.2-4.4-9.6-12-15.4-35.1-26.7-17.5-8.5-23.9-13.8-28.6-23.4-2.4-4.7-2.6-6.2-2.2-13.2.4-6.2 1-8.8 3.2-12.6 8.6-14.6 24.8-21.6 46.6-20.1 13.3.8 23.7 3.7 36.5 10.1 27.3 13.6 46.7 36.9 54.2 65.3 2.4 8.8 2.6 11.5 2.7 29.2 0 17-.2 20.6-2.2 28.4-4.1 16.4-10.7 28.9-22.5 42.7-3.2 3.6-5.7 7.3-5.7 8.1s1.7 2.2 3.8 3.2c2 .9 8.9 4.6 15.3 8.2 6.4 3.5 12.1 6.4 12.7 6.4s1.2-8.3 1.5-23.3c.4-19.4.8-24.6 2.6-31.7 3.3-12.9 8.3-22.2 16.8-31l7.3-7.5V521c0-15.7-.5-33.5-1-39.5-2.6-29.5-14.1-49.2-34.4-59-16.3-7.9-5.1-7.5-196-7.4-133.9.1-170.8.4-177.1 1.4m355 1c19.1 3.4 35.1 15.4 43.4 32.7 7.6 15.9 9 26.6 9.1 70v28.7l-5.5 5.2c-9.7 9.1-14.8 18.6-18.7 34.4-1.6 6.3-2.1 12.7-2.5 30.8l-.5 22.8-4.7-2.7c-2.5-1.4-9.3-5.1-15.1-8.2-5.8-3-10.7-5.7-10.9-5.8-.2-.2 2.2-3.4 5.4-7.1 12.2-14.2 19.1-27.7 23.1-45.3 2.8-12.6 2.7-42-.3-54.1-3-12-6.4-20.5-11.5-28.7-18.8-30.7-52.1-50.1-86.4-50.2-6.4 0-16.6 1.5-19.9 2.9-12.6 5.5-18.5 10.4-22.7 18.8-3.3 6.8-3.3 20.7 0 27.4 4.3 8.9 11.1 14.3 28.2 22.6 17.2 8.4 25.1 13.4 29.8 18.7 5.2 6 7.2 10.8 7.2 17.6 0 9.9-4.9 17.3-14.4 22-5.3 2.7-7.2 3.1-12.6 2.8l-6.3-.3-6.6-10.7c-26-42.5-60-64.5-112.6-73-5-.8-16.6-1.2-30.5-1.2-27 .1-42 2.1-68.8 9.1-15.4 4-19.3 4.7-30.2 5-15.4.5-17.7-.3-17.1-6.2.7-8.1 1.2-8.5 9.6-8.5 8 0 13.8-1.7 16.1-4.8 2.2-2.9 1.7-8.7-1-11.9-2.4-2.8-2.6-2.8-13.7-2.8h-11.3l-2.1-11c-1.2-6.1-3.7-16.3-5.4-22.8-1.8-6.5-3.1-12.6-2.9-13.5.7-3.7 9.5-3.9 184.4-4.1 147.8-.1 170.2.1 177.9 1.4"/><path d="M646.6 464.6c-5.3 1.9-7.4 4-8.2 7.9-1.4 7.9 4.8 13.8 23.6 22.7 15.1 7.2 20 10.3 27.6 17.8s13.7 18.6 15.4 27.8c2.5 14.2-3.2 30.5-14.3 40.8-5.9 5.5-19.9 13.4-23.7 13.4-3.3 0-2.3 2.8 1.3 3.5 5.1 1.2 22.6 8.3 29.4 12.1 3.4 1.9 6.7 3.4 7.5 3.4s3.4-2.1 5.9-4.8c16.8-17.5 23.9-35.9 23.9-61.8 0-14-1.7-24.1-5.9-35-7.3-18.8-26-37.6-44-44.2-13.8-5-30.5-6.6-38.5-3.6m24.8.8c15.1 2.9 28.5 10.5 39.7 22.4 11.9 12.5 18.3 24.6 21.4 40 2.1 10.5 1.6 34.5-.9 43.7-3.4 12.6-13.5 29.3-22.9 38.4l-3.5 3.3-5.6-3.2c-3.1-1.7-12.1-5.6-19.9-8.6-7.8-2.9-13.4-5.4-12.3-5.4 1 0 5.5-1.7 10-3.8 17.3-8.2 26.7-21.2 29.1-40.7 1.5-12.3-5.2-28.9-16-39.6-7.8-7.6-10.2-9.2-28-17.9-19.5-9.5-26.1-16.2-22.4-22.9 3.6-6.6 15.4-8.7 31.3-5.7m-550.8 55.2c-1.8 4.7.9 12.3 5.7 15.8 2.6 1.9 4.2 2.1 16.3 2.1 7.4 0 13.4-.4 13.4-.8 0-.5-5.5-.6-12.2-.2-11.4.6-12.5.5-15.6-1.5-2.8-1.7-3.2-2.3-2.2-3.5 1.8-2.1.5-4.5-2.2-4.2-1.9.2-2.4-.3-2.6-3.3-.3-2.4.2-3.8 1.4-4.7 1.5-1.1 1.5-1.3.2-1.3-.9 0-1.9.7-2.2 1.6m4.6 11c-.7 1.2-1.1 1.3-1.7.4-.4-.7-.2-1.6.6-2.1 1.8-1.1 2.3-.4 1.1 1.7M904 557.1c0 .5.4.7 1 .4 1.4-.8 5.8 1.7 12.3 7 3.2 2.5 5.7 4.2 5.7 3.7 0-1.1-7.1-7.1-12-10.1-3.8-2.3-7-2.8-7-1m-74.5 2.9c-24.6 2.7-37.8 14-43.2 37-1.5 6.2-1.8 12.2-1.8 35v27.5l4.9 3.2c7.1 4.8 7.6 4.6 7.6-4.1 0-11.1 1.8-32.1 3.6-41.1 3.3-16.8 10.7-30.5 23.4-43.6 5.3-5.5 10.2-9.5 13-10.8 5.1-2.2 3.8-2.9-1.5-.7-2.5 1.1-3.5 1.2-3.9.3-.3-.7-.5-.5-.3.3.1.8-2.5 4-5.7 7-16 15.1-24.8 33.7-27.7 58.5-.5 4.9-1.3 15.2-1.7 22.8l-.7 13.9-5-3.4-5-3.3-.3-24c-.3-27.5 1-37.9 5.9-48.6 5.8-12.5 18.5-21.8 32.6-23.9 18.7-2.7 21.4-3.6 5.8-2m-636.1 11.5c-.8 2 .4 3.5 2.7 3.5 2.1 0 2.5-2 .7-3.8-1.6-1.6-2.7-1.5-3.4.3m3.2 2.2c-.7.7-2.6-.7-2.6-1.9 0-.6.6-.6 1.5.2.9.7 1.3 1.5 1.1 1.7"/><path d="M136.2 579c-7.5 2.7-11.4 5.3-17.1 11.5-18 19.8-10.5 53.6 14.4 65 3.9 1.8 8.2 3.7 9.8 4.3l2.7 1.2v61.8c0 58.4.1 62.3 2 69.6 5.3 20.7 19.1 34.6 40 40.3 6.1 1.7 23.5 1.8 323 1.8 297.2 0 316.9-.1 323.3-1.7 19.3-5 34-18.8 40.3-37.8 1.7-5 1.9-11.2 2.4-70l.5-64.4 2.5-1.3c1.4-.7 5.1-2.3 8.3-3.7 8-3.5 16.9-12.2 21-20.5 3-6.3 3.2-7.2 3.2-18.1 0-10.4-.3-12-2.7-17.3-3.5-7.4-12.1-16-19.5-19.5-5.3-2.5-6.8-2.7-18.3-2.7-11.7 0-12.9.2-18.3 2.9-3.2 1.5-8.8 5.6-12.3 8.9-8.3 7.7-14.3 19.4-17.5 34.2-2.1 9.4-2.2 13.3-2.8 67-.6 54.4-.8 57.3-2.8 63.2-5.4 16.1-16.2 25.8-31.8 28.8-6.6 1.3-43.8 1.5-276.9 1.5-244.6 0-269.7-.1-274.7-1.6-15.2-4.5-24.2-13.7-28.4-29-1.7-5.8-1.9-6.1-6.9-8.5-14.5-6.8-24.6-25.3-23.3-42.9.9-13.5 6.8-24.9 20.2-38.8l7.5-7.9v-6.9c0-14.4-4.8-34.7-10.7-45.7-6-10.8-17.2-20.3-28-23.7-8.6-2.7-21.7-2.7-29.1 0m33.2 2.9c13 6.4 24.5 20.6 29 36.1 2.4 7.9 4.6 22.5 4.6 29.9v6.4l-7.5 7.9c-13.4 13.9-19.1 25.3-20.2 39.8-1.3 18.1 8.6 37 22.9 43.5 5.5 2.5 5.7 2.8 7.2 8.3 4.7 16.9 14.7 26.5 31.6 30.1 4.2.9 71 1.1 277 .9 256.6-.3 271.8-.4 277.5-2.1 13-3.8 22.6-13.4 27.2-27.2l2.7-8 .7-57c.6-53.9.7-57.5 2.8-67 1.3-5.5 3.9-13.3 5.9-17.5 4.7-9.6 15.1-20.4 23.7-24.6 5.6-2.7 6.8-2.9 18-2.9 10.8 0 12.5.2 17 2.5 6.6 3.3 15.6 12.3 19.1 19 2.7 5.1 2.9 6.3 2.9 16.5 0 10.4-.2 11.4-3.2 17.6-4.3 8.7-13 17-22 21-3.7 1.7-7.5 3.4-8.3 3.8-1.3.7-1.6 9.4-2 65.7-.5 49.4-.9 65.9-1.9 68.9-6.2 19.1-23.3 34.7-42.1 38.7-5.4 1.1-62.1 1.3-322 1.3-298.4 0-315.8-.1-321.9-1.8-14.8-4-27.4-14.1-34.3-27.3-6.8-12.9-6.8-12.9-6.8-81.4 0-33.8-.4-62-.8-62.6s-2.3-1.6-4.4-2.3c-12.1-4-21.9-12.4-27.6-24-3.5-7.1-3.7-8-3.7-17 0-8.3.4-10.4 2.7-15.3 2.7-5.8 8.9-13.3 14.1-17 1.7-1.2 5.5-3.2 8.6-4.5 4.9-2.1 6.9-2.3 16.1-2.1 9.7.3 11.2.6 17.4 3.7m745.8 85.3c.2 1.5 1 2.3 2.3 2.3 3 0 2.7-3.9-.3-4.3-2-.3-2.3 0-2 2m2.7.3c.3 1.2-1.3.9-1.7-.4-.2-.7 0-1.1.6-.7.5.3 1 .8 1.1 1.1"/><path d="M769.2 689.7c-4.6 14.4-13.3 25.2-24.8 30.9-19.3 9.6-35.3 6.3-60.9-12.7-6-4.5-13.9-9.6-17.5-11.3l-6.5-3.1-124.5.3-124.4.4-4.8 2.4c-12.2 6.2-17.8 7.3-43.9 8.4-27.8 1.2-64.1 4.3-76.2 6.6-10.2 1.9-21.1 7.1-33.7 16.1-5.3 3.7-13.3 8.8-17.8 11.3s-8.1 5.2-8.2 6c0 2.5 4.3 9.2 7.3 11.4l2.8 2.1 272.2.3c187.2.2 273.3 0 275.8-.8 5.4-1.5 11.4-8.5 12.8-14.9.6-3 1.1-15.1 1.1-28.5v-23.2l-10.2-3.8c-5.7-2.1-11.7-4-13.3-4.3-3-.5-3.1-.3-5.3 6.4m12-3.3c4 1.3 9.2 3.2 11.6 4.1l4.3 1.8-.3 25.6c-.2 21.6-.6 26.1-2 28.6-1.9 3.4-7.2 8.7-10.5 10.4-1.6.8-75.3 1.1-274 1.1-268.2 0-271.8 0-275-2-2.9-1.7-8.3-8.8-8.3-10.7 0-.5 3.7-2.8 8.2-5.3s12.3-7.4 17.3-10.9c13.7-9.8 23.6-14.7 33.2-16.5 12.1-2.3 48.3-5.4 76-6.6 26.1-1.1 31.2-2.1 43.8-8l6-2.8 124-.4 124-.3 5.6 2.9c3.2 1.6 10.8 6.7 17 11.2 14.3 10.4 20.7 13.9 30.5 16.4 9.3 2.4 14.1 2.5 21.9.5 18.1-4.7 28.8-15 35-33.6 1.5-4.3 3.1-7.9 3.6-7.9.4 0 4.1 1.1 8.1 2.4M902.6 795c-1 6.2-4.4 15.2-9 23.8s-16.3 21.9-17.9 20.3c-1.8-1.8-3.7-1.2-3.7.9 0 1.1.8 2.4 1.7 2.7 1.2.5 3.8-1.6 9.5-7.6 6.3-6.6 8.8-10.3 12.8-18.4 4.9-10.1 8.4-21.4 7.7-24.6-.2-.9-.6.4-1.1 2.9m-27.2 46.1c-.6 1.1-2.4.2-2.4-1.1 0-.5.7-.7 1.5-.4.8.4 1.2 1 .9 1.5m-696.2 17.2c-1.6 1.8-7.2 25-7.2 29.5s1.7 10.2 3.4 11.7c.7.5 1.5 1.8 1.9 2.7.3 1 1.3 1.8 2.2 1.8.8 0 1.5.5 1.5 1 0 1.4 7.8 5 10.5 4.9 1.2-.1.5-.5-1.5-1.1-5.8-1.6-8.8-4.3-8.2-7.4.4-2.3.2-2.5-2.4-2.2-2.5.2-3.2-.2-4.6-3.2-1-1.9-1.8-5.4-1.8-7.8 0-4.8 5.6-28 7.2-29.9.6-.7.8-1.3.5-1.3-.2 0-.9.6-1.5 1.3m1.8 42.5c0 1.3-1.2 2.2-2.2 1.6s-.1-2.4 1.3-2.4c.5 0 .9.4.9.8M804 859c-4.1.4-11.7.8-16.7.9-7.6.1-9.3.4-9.3 1.6 0 .8 1.2 5.8 2.6 11l2.6 9.4 4.2.6c7.1 1.1 32.1 2.2 32.9 1.5.4-.4-.3-5.2-1.7-10.8-3.3-12.7-4.2-15.2-5.8-15-.7.1-4.7.4-8.8.8m9.9 1.8c1.3 2.4 6.1 21.5 5.6 22.1-1.2 1.1-33.8-.9-35.1-2.2-.7-.7-5.3-16.7-5.4-18.5 0-.8 2.5-1.2 8.8-1.3 7.3-.1 21.8-1.2 24.4-1.7.4-.1 1.2.6 1.7 1.6m-610.6 10.3c-1.8 7.4-2.7 12.8-2.2 13.3.6.6 6.4.5 15.6-.2 23.7-2 21.7-1.2 24.2-9.7 1.2-4 2.4-8.9 2.8-10.9l.6-3.6h-7c-3.8 0-12.3-.3-18.9-.6l-11.9-.7zm33.1-10.1h6.8l-.7 3.6c-.3 2-1.5 6.4-2.6 9.9-1.8 6.1-2.1 6.4-5.7 6.9-6.1.9-24.1 2.6-28.3 2.6-4.8 0-4.9-.5-1.2-14.2l2.7-10.1 11.1.7c6 .3 14.1.6 17.9.6m516.7 16.7c-.2 2.5 6 20.3 7.3 21 .7.4 1.5 1.6 1.9 2.5.3 1 1.3 1.8 2.2 1.8.8 0 1.5.5 1.5 1.1 0 .5 2.6 2.2 5.8 3.7 5.6 2.7 6 2.7 30.6 3 13.7.2 25.2 0 25.7-.5.4-.4-9.4-.7-21.8-.5-24.3.3-30-.3-36.2-4.2-3.3-2.1-3.8-2.9-3.3-5.2.4-2.5.3-2.6-2.2-2.2-3.5.7-5-1.5-8.7-13-1.5-4.8-2.8-8.1-2.8-7.5m12.9 22.1c0 1.3-1.2 2.2-2.2 1.6s-.1-2.4 1.3-2.4c.5 0 .9.4.9.8m82.5-10.9c0 7-2.5 11.7-5.4 10.1-3-1.5-4.7 1.2-2.2 3.4 2.1 1.9 4.1 1.4 4.1-.9 0-.7.6-1.5 1.3-1.8 2.6-1 5.1-14.7 3-16-.5-.3-.8 2.1-.8 5.2m-5.1 13.3c-.4.6-1 .5-1.5-.3-1.4-2.2-1-3.3.6-1.9.8.7 1.2 1.7.9 2.2"/></g></svg>