<svg version="1.1" xmlns="http://www.w3.org/2000/svg" style="display: block;" viewBox="0 0 2048 2048" width="1024" height="1024">
<path transform="translate(0,0)" fill="rgb(0,57,94)" d="M 789.476 782.129 C 791.043 739.693 789.838 696.826 789.829 654.349 L 789.854 421.912 L 789.782 337.823 C 789.77 322.458 788.445 305.656 790.778 290.506 C 792.588 278.753 797.912 267.489 806.629 259.276 C 815.652 250.776 827.145 246.318 839.344 245.127 C 855.895 243.51 872.759 244.066 889.373 244.06 L 965.523 244.052 L 1212.7 244.084 L 1552.56 244.063 L 1660.85 244.04 C 1680.99 244.017 1701.52 243.229 1721.61 244.259 C 1739.34 245.167 1754.6 249.206 1766.69 263.09 C 1773.65 271.071 1777.21 281.537 1778.41 291.926 C 1780.96 314.187 1779.06 344.459 1779.05 367.443 L 1779 520.087 L 1778.99 909.175 C 1779 975.465 1777.44 1042.16 1779.16 1108.41 C 1811.9 1115.36 1837.83 1131.08 1856.48 1159.42 C 1875.8 1189.13 1882.63 1225.26 1875.47 1259.97 C 1869.34 1289.63 1853.88 1316.55 1831.36 1336.8 C 1823.08 1344.16 1813.75 1350.39 1804.9 1357.04 C 1805.06 1390.15 1806.48 1423.86 1804.92 1456.92 C 1805.81 1474.5 1805.16 1492.45 1805.21 1510.07 C 1805.33 1553.24 1807.03 1594 1786.25 1633.53 C 1762.73 1678.27 1725.95 1700.14 1679.11 1714.66 C 1684.67 1730.59 1689.84 1748.1 1692.85 1764.72 C 1694.88 1775.96 1695.02 1788.26 1688.02 1797.89 C 1680.93 1807.63 1670.1 1813.4 1658.32 1815.08 C 1641.34 1817.51 1576.64 1817.61 1559.81 1814.26 C 1551.34 1812.57 1542.12 1809.24 1535.31 1803.84 C 1519.95 1791.66 1507.34 1739.62 1505.32 1720.01 L 544.049 1720.01 C 536.978 1744.11 530.195 1792.68 507.096 1806.67 C 499.967 1810.99 491.697 1813.66 483.488 1814.95 C 466.203 1817.65 398.736 1817.62 382.637 1813.86 C 371.689 1811.3 362.314 1805.26 356.53 1795.43 C 344.887 1775.64 360.202 1735.81 365.788 1714.78 C 336.136 1705.92 310.785 1694.3 288.503 1672.19 C 268.881 1652.58 254.61 1628.27 247.052 1601.57 C 236.658 1563.9 240.141 1520.57 240.143 1481.77 L 240.2 1356.95 C 226.365 1348.68 213.945 1338.24 203.415 1326.04 C 179.013 1297.89 167.737 1262.09 170.547 1225.01 C 173.169 1190.38 187.748 1158.55 214.481 1136.01 C 241.247 1113.44 275.358 1105.09 309.873 1107.84 C 321.247 1108.75 332.337 1111.43 343.719 1112.42 C 332.008 1098.46 321.548 1084.88 313.555 1068.35 C 311.873 1068.67 310.224 1068.97 308.525 1069.2 C 295.144 1070.96 267.161 1076.23 255.915 1067.2 C 251.122 1063.35 248.503 1057.7 248.07 1051.62 C 247.654 1045.77 249.526 1039.45 253.596 1035.13 C 262.882 1025.3 283.746 1028.04 296.189 1028.12 C 292.092 1016.62 289.007 1004.79 285.996 992.967 C 285.271 993.078 284.548 993.199 283.819 993.279 C 271.564 994.633 256.021 995.655 245.969 987.228 C 240.608 982.734 237.382 976.193 237.08 969.204 C 236.741 962.457 238.95 955.12 243.675 950.172 C 252.722 940.695 273.75 944.049 285.863 943.641 C 283.529 925.242 284.121 906.196 284.133 887.683 L 284.189 815.128 L 284.077 765.911 C 284.041 754.308 283.452 742.392 285.048 730.874 C 286.442 720.813 290.24 710.826 296.321 702.669 C 303.489 693.055 313.772 686.638 325.678 684.924 C 355.115 680.689 394.677 708.761 416.907 726.09 C 432.179 737.996 446.179 751.15 460.078 764.608 C 495.069 751.582 541.888 755.068 578.119 760.954 C 598.622 728.528 638.368 679.674 677.253 671.005 C 689.605 668.251 702.903 669.855 713.46 677.092 C 728.682 687.526 733.106 705.279 735.916 722.495 C 739.365 743.623 739.938 765.092 740.297 786.453 C 756.495 783.461 773.027 782.536 789.476 782.129 z"/>
<path transform="translate(0,0)" fill="rgb(0,9,23)" d="M 789.476 782.129 C 791.043 739.693 789.838 696.826 789.829 654.349 L 789.854 421.912 L 789.782 337.823 C 789.77 322.458 788.445 305.656 790.778 290.506 C 792.588 278.753 797.912 267.489 806.629 259.276 C 815.652 250.776 827.145 246.318 839.344 245.127 C 855.895 243.51 872.759 244.066 889.373 244.06 L 965.523 244.052 L 1212.7 244.084 L 1552.56 244.063 L 1660.85 244.04 C 1680.99 244.017 1701.52 243.229 1721.61 244.259 C 1739.34 245.167 1754.6 249.206 1766.69 263.09 C 1773.65 271.071 1777.21 281.537 1778.41 291.926 C 1780.96 314.187 1779.06 344.459 1779.05 367.443 L 1779 520.087 L 1778.99 909.175 C 1779 975.465 1777.44 1042.16 1779.16 1108.41 C 1811.9 1115.36 1837.83 1131.08 1856.48 1159.42 C 1875.8 1189.13 1882.63 1225.26 1875.47 1259.97 C 1869.34 1289.63 1853.88 1316.55 1831.36 1336.8 C 1823.08 1344.16 1813.75 1350.39 1804.9 1357.04 C 1805.06 1390.15 1806.48 1423.86 1804.92 1456.92 C 1805.81 1474.5 1805.16 1492.45 1805.21 1510.07 C 1805.33 1553.24 1807.03 1594 1786.25 1633.53 C 1762.73 1678.27 1725.95 1700.14 1679.11 1714.66 C 1684.67 1730.59 1689.84 1748.1 1692.85 1764.72 C 1694.88 1775.96 1695.02 1788.26 1688.02 1797.89 C 1680.93 1807.63 1670.1 1813.4 1658.32 1815.08 C 1641.34 1817.51 1576.64 1817.61 1559.81 1814.26 C 1551.34 1812.57 1542.12 1809.24 1535.31 1803.84 C 1519.95 1791.66 1507.34 1739.62 1505.32 1720.01 L 544.049 1720.01 C 536.978 1744.11 530.195 1792.68 507.096 1806.67 C 499.967 1810.99 491.697 1813.66 483.488 1814.95 C 466.203 1817.65 398.736 1817.62 382.637 1813.86 C 371.689 1811.3 362.314 1805.26 356.53 1795.43 C 344.887 1775.64 360.202 1735.81 365.788 1714.78 C 336.136 1705.92 310.785 1694.3 288.503 1672.19 C 268.881 1652.58 254.61 1628.27 247.052 1601.57 C 236.658 1563.9 240.141 1520.57 240.143 1481.77 L 240.2 1356.95 C 226.365 1348.68 213.945 1338.24 203.415 1326.04 C 179.013 1297.89 167.737 1262.09 170.547 1225.01 C 173.169 1190.38 187.748 1158.55 214.481 1136.01 C 241.247 1113.44 275.358 1105.09 309.873 1107.84 C 321.247 1108.75 332.337 1111.43 343.719 1112.42 C 343.29 1112.65 342.869 1112.91 342.432 1113.13 C 335.364 1116.72 318.143 1111.65 309.857 1111.2 C 254.549 1108.17 204.307 1129.89 183.131 1184.05 C 170.078 1217.43 170.128 1257.71 184.674 1290.64 C 195.745 1315.71 217.891 1342.75 243.042 1354.62 L 243.235 1480.51 C 243.196 1518 240.184 1561.86 249.696 1598.11 C 256.786 1625.13 272.365 1652.18 292.319 1671.76 C 314.085 1693.1 340.444 1703.71 368.907 1712.81 C 368.853 1713.25 368.805 1713.69 368.745 1714.13 C 365.469 1738.27 345.313 1774.86 361.597 1796.73 C 369.418 1807.23 378.834 1810.04 391.299 1811.51 C 409.433 1813.65 470.08 1813.94 487.541 1810.63 C 495.233 1809.18 503.469 1806.25 509.528 1801.21 C 529.43 1784.66 532.137 1740.48 542.251 1716.92 L 1155.41 1716.65 L 1389.31 1716.63 C 1426.98 1716.65 1465.12 1715.31 1502.73 1716.72 C 1504.03 1716.77 1504.75 1717 1505.85 1717.68 C 1520.03 1746.26 1515.24 1796.63 1551.47 1808.9 C 1566.24 1813.9 1641.14 1813.62 1657.2 1811.49 C 1662.58 1810.77 1667.9 1809.34 1672.75 1806.87 C 1680.67 1802.83 1686.33 1796.3 1688.95 1787.78 C 1696.05 1764.67 1679.85 1735.32 1676.02 1712.35 C 1723.19 1697.06 1759.69 1678.08 1783.37 1631.98 C 1809.21 1581.67 1800.31 1525.64 1802.15 1471.36 C 1801.01 1457.99 1801.95 1443.63 1801.91 1430.16 C 1801.85 1405.58 1801.37 1380.92 1802.08 1356.36 C 1809.6 1348.75 1819.19 1342.95 1827.31 1335.92 C 1850.58 1315.83 1866.41 1288.5 1872.25 1258.32 C 1880.18 1216.31 1867.99 1170.91 1837.04 1140.74 C 1831.1 1134.95 1823.87 1128.62 1816.5 1124.8 C 1810.07 1121.47 1779.11 1110.74 1777.27 1108.7 C 1774.75 1105.9 1775.79 1077.2 1775.79 1071.64 L 1775.82 545.11 L 1775.86 379.822 C 1775.88 351.646 1777.6 322.482 1775.47 294.47 C 1774.73 284.749 1772.36 275.958 1766.58 267.908 C 1757.59 255.385 1747.14 250.296 1732.26 248.253 C 1718.05 246.302 1703.13 247.112 1688.8 247.132 L 1622.75 247.153 L 1390.86 247.164 L 1028.43 247.258 L 912.411 247.202 C 890.725 247.185 868.654 246.311 847.012 247.566 C 832.987 248.379 823.442 250.153 812.137 258.766 C 802.592 266.037 796.878 275.537 794.61 287.273 C 791.811 301.758 792.896 317.262 792.9 331.975 L 792.951 394.366 L 792.993 654.963 L 792.959 731.329 C 792.944 748.213 793.784 765.512 791.544 782.273 C 790.258 784.075 789.598 784.001 787.479 784.372 C 780.741 785.552 773.242 785.053 766.357 785.574 C 756.887 786.291 747.774 788.044 738.432 789.602 C 733.565 758.6 740.507 704.941 715.041 682.089 C 706.332 674.274 694.994 672.125 683.581 673.231 C 649.972 676.485 618.612 711.467 599.037 736.469 C 591.959 745.508 585.807 755.19 578.571 764.114 C 542.32 757.237 493.912 755.423 459.418 767.971 C 452.008 761.908 445.601 754.412 438.456 747.997 C 413.925 725.968 374.28 694.234 341.964 688.743 C 329.97 686.704 316.419 688.425 306.541 695.965 C 297.763 702.664 292.375 713.596 289.772 724.159 C 284.378 746.053 287.053 772.686 287.057 795.196 L 287.081 903.487 C 287.103 915.927 289.211 930.517 287.361 942.633 L 285.863 943.641 C 283.529 925.242 284.121 906.196 284.133 887.683 L 284.189 815.128 L 284.077 765.911 C 284.041 754.308 283.452 742.392 285.048 730.874 C 286.442 720.813 290.24 710.826 296.321 702.669 C 303.489 693.055 313.772 686.638 325.678 684.924 C 355.115 680.689 394.677 708.761 416.907 726.09 C 432.179 737.996 446.179 751.15 460.078 764.608 C 495.069 751.582 541.888 755.068 578.119 760.954 C 598.622 728.528 638.368 679.674 677.253 671.005 C 689.605 668.251 702.903 669.855 713.46 677.092 C 728.682 687.526 733.106 705.279 735.916 722.495 C 739.365 743.623 739.938 765.092 740.297 786.453 C 756.495 783.461 773.027 782.536 789.476 782.129 z"/>
<path transform="translate(0,0)" fill="rgb(235,136,47)" d="M 601.744 814.401 C 627.676 779.178 645.549 748.227 683.744 723.571 C 685.211 738.744 687.487 753.765 688.52 769.001 C 690.092 792.211 690.101 815.604 694.376 838.547 C 698.076 858.407 704.623 877.562 709.662 897.1 C 714.578 916.157 717.576 935.09 719.863 954.617 C 707.376 954.109 684.032 951.022 673.581 959.318 C 670.488 961.774 668.866 964.986 668.638 968.911 C 668.338 974.059 670.018 979.59 673.651 983.324 C 683.787 993.742 708.084 990.202 721.744 990.054 L 719.746 1006.44 C 711.55 1005.97 697.135 1003.39 689.897 1007.53 C 686.602 1009.41 684.693 1013.8 684.038 1017.36 C 683.175 1022.05 683.783 1027.92 686.824 1031.78 C 692.127 1038.5 705.28 1039.2 713.062 1040.42 C 701.427 1057.48 684.369 1059.84 677.489 1069.17 C 674.989 1072.56 674.418 1077.67 675.332 1081.68 C 676.346 1086.14 679.46 1089.63 683.357 1091.89 C 689.921 1095.69 698.226 1096.39 705.414 1094.13 C 725.434 1087.83 741.064 1065.51 750.535 1048.02 C 802.063 1065.2 847.015 1044.97 896.774 1034.24 C 921.491 1028.9 946.67 1026.37 971.892 1025.28 C 985.488 1024.77 999.414 1024.39 1012.99 1025.36 C 1055.1 1027.06 1098.38 1034.25 1136.71 1052.39 C 1188.35 1076.83 1228 1120.37 1251.71 1171.98 C 1259.79 1189.55 1265.58 1207.8 1272.02 1226 C 1282.68 1230.01 1294.38 1232.48 1305.32 1235.81 C 1318.66 1239.87 1331.93 1245.03 1344.8 1250.41 C 1371.5 1261.57 1396.46 1276.37 1422.03 1289.82 C 1439.59 1299.06 1457.71 1307.03 1475.43 1315.93 C 1486.17 1321.33 1503.78 1330.65 1507.34 1343.3 C 1509.57 1351.21 1504.15 1358.56 1500.36 1365.02 C 1495.42 1362.95 1490.53 1361.39 1485.39 1359.92 C 1482.6 1360.46 1479.63 1361.09 1476.98 1362.12 C 1473.67 1363.4 1470.07 1366.13 1468.95 1369.64 C 1468.15 1372.14 1468.71 1374.69 1469.94 1376.93 C 1474.19 1384.67 1482.8 1386.35 1490.59 1388.47 C 1486.61 1396.02 1481.34 1404.46 1472.89 1407.37 C 1444.1 1417.28 1408.39 1384.96 1386.53 1369.59 C 1350.13 1344.01 1305.99 1315.93 1261.97 1306.76 C 1244.4 1303.11 1226.5 1303.24 1208.64 1303.25 C 1166.95 1303.26 1121.2 1304.83 1082.77 1286.22 C 1041.74 1266.35 1012.78 1228.18 1007.92 1182.36 C 1006.52 1169.1 1008.22 1152.9 1003.42 1140.4 C 1001.27 1134.81 996.771 1130.03 991.257 1127.66 C 986.644 1125.68 981.251 1125.42 976.641 1127.53 C 969.519 1130.79 964.993 1139.07 962.573 1146.14 C 953.603 1172.37 963.102 1217.16 975.165 1241.74 C 999.1 1290.51 1042.15 1326.15 1093.13 1343.74 C 1069.93 1342.21 1046.35 1343.86 1023.07 1343.96 L 839.488 1346.09 C 848.222 1330.64 852.618 1316.12 851.311 1298.28 C 850.493 1287.11 847.258 1262.11 838.033 1254.77 C 834.781 1252.19 831.177 1251.61 827.147 1252.32 C 801.976 1256.77 813.871 1300.21 811.579 1317.64 C 810.457 1326.05 807.16 1334.03 802.014 1340.78 C 795.386 1349.55 786.135 1355.99 775.604 1359.15 C 757.067 1364.82 734.941 1364.19 715.576 1365.48 C 676.379 1367.83 637.253 1371.26 598.245 1375.76 C 579.214 1377.91 558.635 1379.03 540.389 1384.95 C 527.207 1389.22 514.342 1395.81 502.717 1403.31 C 482.279 1416.49 453.907 1443.28 429.974 1446.35 C 423.829 1447.14 418.179 1446.23 413.313 1442.27 C 405.605 1435.99 401.203 1426.83 400.179 1417.02 C 398.804 1403.83 404.296 1391.1 411.854 1380.59 C 419.113 1370.5 428.355 1362.21 438.388 1354.95 C 470.896 1331.42 505.786 1327.12 543.529 1317.66 C 571.764 1310.59 599.759 1302.17 627.873 1294.58 C 643.158 1290.46 660.096 1287.71 674.744 1281.85 C 680.722 1279.45 686.229 1276.24 690.285 1271.13 C 694.295 1266.09 698.695 1255.58 697.576 1248.99 C 696.693 1243.79 693.11 1239.39 688.845 1236.47 C 684.975 1233.82 681.157 1234.02 676.694 1234.77 C 669.475 1236 662.064 1238.7 654.987 1240.65 L 617.971 1250.63 C 575.659 1262.08 533.474 1273.48 490.614 1282.73 C 476.452 1271.26 464.829 1256.97 456.482 1240.77 C 438.928 1206.34 440.895 1166.67 452.378 1130.86 C 443.069 1122.77 431.903 1116.56 421.694 1109.66 C 396.927 1092.93 377.643 1074.46 360.425 1050.14 C 370.228 1049.46 388.927 1050.13 396.018 1042.94 C 399.742 1039.16 401.586 1033.85 401.35 1028.57 C 401.17 1024.54 399.681 1020.44 396.519 1017.8 C 387.568 1010.31 356.443 1015.87 344.368 1016.62 C 341.794 1010.71 339.939 1004.5 337.92 998.383 C 352.326 999.151 366.907 998.552 381.299 997.748 C 383.256 996.61 385.122 995.321 386.878 993.892 C 390.489 990.932 392.725 987.09 392.934 982.383 C 393.134 977.883 391.783 973.298 388.627 970.012 C 379.429 960.438 346.018 962.956 332.211 962.695 L 333.5 841.262 C 333.759 806.521 333.347 771.676 335.189 736.98 C 375.592 752.026 409.554 784.195 439.423 814.457 C 500.324 804.417 541.044 803.381 601.744 814.401 z"/>
<path transform="translate(0,0)" fill="rgb(0,57,94)" d="M 562.783 958.218 C 573.677 957.413 583.653 959.411 592.154 966.741 C 618.832 989.745 584.376 1011.91 587.479 1024.4 C 588.134 1027.04 588.805 1027.25 591.009 1028.47 C 599.826 1029.01 610.565 1021.28 618.549 1017.68 C 623.335 1015.52 630.501 1012.45 635.664 1015.27 C 639.811 1017.53 643.112 1023.91 644.078 1028.38 C 645.382 1034.42 643.781 1040.45 640.385 1045.52 C 634.636 1054.09 623.755 1059.41 613.762 1060.92 C 597.863 1063.32 582.129 1062.18 568.7 1052.59 C 565.606 1052.77 554.881 1061.4 542.038 1061.9 C 526.261 1062.52 503.776 1060.52 491.878 1048.92 C 488.019 1045.16 485.939 1040.47 486.2 1035.04 C 486.471 1029.41 489.158 1022.5 493.419 1018.69 C 504.153 1009.1 530.886 1028.28 544.095 1028.21 C 546.763 1028.19 547.802 1027.65 549.724 1025.9 C 551.666 1017.04 540.185 1004.33 537.498 995.519 C 535.288 988.271 535.303 979.901 539.025 973.136 C 543.995 964.102 553.435 960.688 562.783 958.218 z"/>
<path transform="translate(0,0)" fill="rgb(0,57,94)" d="M 492.806 905.904 C 494.18 905.918 494.497 905.862 495.977 906.189 C 499.913 907.059 504.543 911.002 506.329 914.534 C 508.639 919.101 508.256 924.988 506.408 929.65 C 502.947 938.381 494.455 944.073 486.135 947.626 C 468.555 955.136 452.458 953.092 435.066 946.096 C 430.225 943.296 425.377 940.167 422.467 935.226 C 419.327 929.894 419.505 922.891 421.217 917.102 C 422.195 913.795 424.138 910.926 427.238 909.296 C 436.781 904.277 451.447 911.645 460.918 914.465 C 473.003 918.065 482.531 911.443 492.806 905.904 z"/>
<path transform="translate(0,0)" fill="rgb(0,57,94)" d="M 611.321 903.725 C 617.378 904.492 622.455 907.395 627.974 909.818 C 642.363 916.133 651.215 908.713 664.88 905.789 C 668.833 904.943 673.239 904.52 676.649 907.201 C 679.678 909.582 681.489 913.909 681.836 917.677 C 682.52 925.099 677.841 930.975 673.189 936.147 C 665.996 942.239 658.06 946.208 648.628 947.391 C 636.587 948.901 622.4 945.879 612.818 938.194 C 608.032 934.355 604.311 929.179 603.817 922.921 C 603.215 915.297 606.66 909.387 611.321 903.725 z"/>
<path transform="translate(0,0)" fill="rgb(0,176,192)" d="M 298.686 1155.43 C 299.853 1155.34 301.019 1155.25 302.188 1155.22 C 326.942 1154.68 349.854 1165.12 367.274 1182.36 C 400.179 1214.92 408.476 1265.86 408.748 1310.31 C 404.013 1315.87 398.102 1320.74 392.904 1325.9 C 377.311 1341.36 364.253 1358.59 357.152 1379.57 C 348.813 1404.3 350.663 1431.34 362.294 1454.7 C 372.533 1474.97 387.984 1488.78 409.499 1495.96 C 411.433 1504.76 413.599 1513.42 417.119 1521.74 C 425.516 1541.6 439.042 1555.29 459.133 1563.26 C 469.121 1567.22 479.262 1568.95 489.96 1569.44 C 510.798 1570.39 531.873 1569.69 552.739 1569.66 L 664.328 1569.65 L 1007.88 1569.7 L 1373.34 1569.32 L 1493.75 1569.22 C 1515.88 1569.2 1538.21 1569.82 1560.31 1568.9 C 1572.48 1568.39 1584.63 1565.98 1595.79 1561.01 C 1618.22 1551.02 1632.99 1529.84 1639.48 1506.7 C 1646.12 1483.02 1644.92 1458.04 1644.9 1433.7 L 1644.83 1334.29 C 1644.81 1314.69 1643.84 1294.55 1645.82 1275.06 C 1647.65 1256.97 1651.2 1238.38 1657.79 1221.38 C 1667.72 1195.75 1685.01 1173.37 1710.67 1162.13 C 1729.42 1153.92 1756.01 1152.41 1775.11 1160.15 C 1795.47 1168.4 1812.12 1183.64 1820.71 1204.02 C 1829.34 1224.47 1828.22 1247.03 1820.03 1267.38 C 1819 1269.79 1817.85 1272.09 1816.58 1274.38 C 1802.75 1299.31 1780.65 1311.94 1754.01 1319.69 L 1754.23 1477.34 C 1754.24 1508.75 1757.28 1554.97 1750.37 1584.73 C 1745.86 1604.16 1736.01 1621.94 1721.94 1636.07 C 1695.14 1663.15 1662.37 1668.82 1625.8 1669.09 L 778.078 1669.2 L 520.313 1669.21 L 443.336 1669.23 C 426.238 1669.23 408.54 1670.05 391.562 1667.92 C 367.023 1664.83 343.799 1654.34 326.213 1636.78 C 311.594 1622.18 301.673 1603.04 296.991 1583 C 289.929 1552.77 293.003 1509.66 293.001 1478.16 L 293.041 1320.6 C 277.64 1315.6 262.881 1310.51 250.341 1299.85 C 233.131 1284.94 222.469 1263.86 220.65 1241.16 C 218.983 1220.04 225.331 1199.3 239.275 1183.23 C 254.817 1165.31 275.484 1157.21 298.686 1155.43 z"/>
<path transform="translate(0,0)" fill="rgb(240,100,83)" d="M 864.943 296.473 C 1049.73 295.737 1234.51 296.124 1419.29 297.634 L 1622.51 297.81 C 1651.71 297.801 1681.43 295.557 1710.56 297.001 C 1715.86 297.264 1720.45 298.323 1724.51 301.971 C 1728.21 305.297 1728.4 313.048 1728.73 317.771 C 1729.66 331.453 1729.02 345.532 1729.03 359.253 L 1729.03 433.404 L 1729.12 670.098 L 1619.53 670.054 C 1619.96 619.858 1620.07 569.659 1619.85 519.461 C 1619.96 493.205 1624.33 465.86 1619.13 439.962 C 1617.76 438.328 1616.39 436.653 1614.84 435.181 C 1610.48 431.015 1604.02 429.485 1598.23 428.605 C 1587.55 426.978 1575.81 427.906 1564.98 427.927 L 1506.02 428.11 C 1505.82 411.511 1510.8 374.97 1498.47 362.898 C 1495.52 360.012 1492.24 358.278 1488.17 357.569 C 1475.73 355.401 1461.61 357.181 1449.01 357.403 C 1427.98 357.654 1406.95 357.697 1385.92 357.533 L 1354.71 356.849 C 1344.93 356.693 1333.33 356.796 1326.05 364.416 C 1316.42 374.479 1320.16 421.125 1320.28 435.911 C 1305.25 436.035 1257.16 431.79 1246.9 440.552 C 1242.55 444.27 1239.84 450.073 1238.97 455.649 C 1235.93 475.014 1238.79 496.69 1238.99 516.328 C 1239.51 567.451 1241.55 622.896 1239.41 673.62 C 1225.07 673.182 1210.56 672.957 1196.24 673.83 C 1185.88 634.636 1178.75 594.273 1170.13 554.655 C 1157.24 495.418 1143.48 436.244 1132.85 376.567 C 1131.75 375.132 1130.54 373.78 1129.24 372.524 C 1126.7 370.035 1123.71 367.998 1120.22 367.128 C 1109.33 364.411 1057.86 364.512 1046.55 366.306 C 1040.77 367.222 1032.55 372.537 1028.12 372.399 C 1021.36 372.189 1015.85 364.905 1008.17 364.069 C 1000.61 363.246 992.555 364.247 984.918 364.212 C 966.233 364.127 947.532 363.719 928.848 363.802 C 921.148 363.836 911.05 364.211 905.42 370.232 C 902.084 373.8 900.476 377.166 899.925 381.969 C 898.668 392.92 899.473 404.55 899.557 415.576 L 899.797 472.996 L 899.766 672.004 L 840.051 672.053 L 839.981 433.367 L 839.964 356.71 C 839.963 342.602 839.258 328.097 840.355 314.051 C 840.679 309.906 841.371 306.703 844.052 303.455 C 849.183 297.236 857.53 296.904 864.943 296.473 z"/>
<path transform="translate(0,0)" fill="rgb(0,176,192)" d="M 784.543 832.407 C 793.23 831.671 802.092 831.806 810.806 831.724 L 1252.54 831.694 L 1381.97 831.81 C 1410.23 831.817 1439.88 829.956 1467.83 834.453 C 1492.27 838.385 1516.38 848.874 1534.09 866.466 C 1576.43 908.505 1575.97 970.957 1576 1026.43 L 1575.95 1100.05 C 1570.57 1104.96 1565.05 1109.8 1559.93 1114.98 C 1515.45 1160.05 1521.82 1229.44 1522.04 1287.54 C 1500.49 1274.71 1478.44 1262.72 1455.96 1251.6 C 1501.35 1202.79 1520.21 1160.24 1519.98 1092.98 C 1519.75 1028.59 1500.79 982.275 1455.23 936.852 C 1423.79 908.569 1386.96 889.08 1344.66 883.837 C 1314.06 880.045 1280.2 881.475 1254.94 901.357 C 1240.79 912.497 1231.45 927.985 1229.49 946.002 C 1221.66 1017.73 1320.51 1021.06 1354.39 1064.09 C 1362.7 1074.65 1368.63 1089.11 1366.63 1102.67 C 1364.65 1116.1 1356.92 1129.44 1346 1137.5 C 1331.71 1148.05 1313.79 1149.22 1296.83 1146.71 C 1279.92 1117.98 1263.77 1091.07 1240.32 1066.88 C 1150.77 974.467 1015.73 963.056 895.655 986.709 C 852.847 995.141 808.095 1015.89 764.11 1002.06 C 765.609 992.923 766.751 983.83 767.737 974.629 C 780.444 975.071 803.005 976.872 813.501 969.142 C 817.684 966.061 820.128 960.912 820.536 955.806 C 820.947 950.672 819.39 945.209 815.777 941.442 C 806.526 931.795 777.952 938.069 765.007 938.108 C 760.263 903.643 751.112 870.892 742.161 837.356 C 756.317 836.171 770.343 833.547 784.543 832.407 z"/>
<path transform="translate(0,0)" fill="rgb(0,176,192)" d="M 1544.83 1366.19 C 1562.21 1372.36 1579.55 1378.64 1596.84 1385.03 C 1596.83 1410.56 1599.38 1462.68 1594.15 1485.03 C 1591.51 1496.29 1585.53 1507.01 1575.33 1513.01 C 1571.07 1515.51 1566.44 1517.15 1561.52 1517.7 C 1543.22 1519.74 1521.62 1518.01 1502.92 1517.99 L 1382.22 1518.01 L 694.688 1518.13 L 552.074 1518.16 C 534.542 1518.21 490.845 1520.54 476.514 1516.72 C 467.429 1514.31 462.279 1508.04 457.66 1500.33 L 453.409 1489.08 C 484.502 1474.61 505.642 1454.95 534.241 1438.91 C 543.244 1433.8 552.876 1429.88 562.892 1427.25 C 583.545 1421.88 605.621 1420.37 626.812 1418.41 C 656.321 1415.63 685.895 1413.56 715.505 1412.21 C 734.88 1411.5 755.17 1412.09 774.301 1408.98 C 780.455 1407.97 786.711 1406.74 792.537 1404.47 C 803.843 1400.05 815.735 1391.1 827.977 1390.29 C 856.212 1388.44 885.346 1389.84 913.682 1389.78 L 1074.5 1388.89 C 1129.08 1387.93 1183.68 1387.6 1238.27 1387.88 C 1260.82 1387.86 1292.83 1385.52 1314.27 1389.37 C 1353.9 1396.49 1382.19 1438.53 1424.78 1450.16 C 1449.03 1456.99 1475.02 1453.58 1496.69 1440.74 C 1524.78 1424.42 1536.74 1396.3 1544.83 1366.19 z"/>
<path transform="translate(0,0)" fill="rgb(240,100,83)" d="M 839.999 724.01 L 1729.07 724.1 C 1727.35 808.554 1728.93 893.375 1728.96 977.866 L 1728.81 1038.21 C 1728.83 1047.69 1729.77 1057.26 1729.34 1066.73 C 1729.21 1069.73 1729.32 1072.43 1727.44 1074.83 L 1723.76 1074.74 C 1688.75 1071.63 1658.23 1077.84 1623.87 1080.46 L 1623.95 1011.73 C 1623.99 941.775 1621.86 880.408 1568.89 827.878 C 1544.71 803.901 1513.43 788.798 1480.1 782.501 C 1450.54 776.917 1418.3 778.681 1388.27 778.686 L 1271.41 778.726 L 839.965 778.965 L 839.999 724.01 z"/>
<path transform="translate(0,0)" fill="rgb(0,176,192)" d="M 1370.02 400.977 L 1458.05 401.006 L 1458.09 673.082 C 1428.79 672.348 1399.36 672.855 1370.04 672.882 C 1368.48 582.361 1369.93 491.525 1370.02 400.977 z"/>
<path transform="translate(0,0)" fill="rgb(235,136,47)" d="M 1307.08 928.323 C 1309.08 928.149 1311.03 928.081 1313.04 928.048 C 1353.89 927.386 1391.7 942.918 1420.83 971.434 C 1454.37 1004.28 1470.52 1047.46 1470.99 1094 C 1471.56 1150.22 1450.45 1190.42 1411.75 1229.64 C 1401.27 1222.64 1390.63 1217.11 1379.11 1212.03 C 1362.61 1204.91 1345.78 1198.22 1328 1195.11 C 1359.15 1183.01 1382.93 1175.38 1400.91 1144.38 C 1413.21 1123.18 1416.3 1095.5 1409.81 1071.95 C 1400.85 1039.51 1374.94 1014.96 1345.82 999.815 C 1332.1 992.679 1317.44 987.161 1304.04 979.452 C 1292.04 972.544 1281.89 964.751 1278.11 950.826 L 1277.75 949.454 C 1278.73 946.039 1279.6 942.553 1281.77 939.672 C 1287.93 931.494 1297.56 929.685 1307.08 928.323 z"/>
<path transform="translate(0,0)" fill="rgb(0,176,192)" d="M 945.904 410.27 L 1003.85 410.381 C 1001.92 441.956 1002.03 473.973 1001.13 505.622 C 999.567 560.486 997.649 615.373 996.769 670.25 L 996.487 672.86 C 990.192 676.786 954.491 674.376 945.393 674.332 C 946.117 586.374 943.835 498.186 945.904 410.27 z"/>
<path transform="translate(0,0)" fill="rgb(240,100,83)" d="M 1506.01 476.492 C 1527.81 478.037 1550.08 477.248 1571.93 476.885 L 1571.81 670.013 L 1506.01 670.104 L 1506.01 476.492 z"/>
<path transform="translate(0,0)" fill="rgb(240,100,83)" d="M 1055.05 417.487 L 1095.41 417.088 C 1099.64 447.19 1108.27 477.597 1114.89 507.315 C 1126.55 561.522 1138.75 615.612 1151.47 669.579 L 1150.01 671.052 C 1135.46 670.214 1121.15 669.802 1106.6 671.204 C 1094.59 624.013 1084.61 576.049 1074.04 528.508 C 1068.61 504.054 1051.06 439.105 1053.04 418.632 L 1055.05 417.487 z"/>
<path transform="translate(0,0)" fill="rgb(235,136,47)" d="M 1283.74 483.223 C 1296.46 483.689 1309.26 483.583 1322 483.732 C 1321.33 546.744 1322.01 609.833 1322.04 672.854 C 1309.3 672.251 1296.56 672.617 1283.83 672.917 L 1283.74 483.223 z"/>
<path transform="translate(0,0)" fill="rgb(0,176,192)" d="M 1679.65 1120.49 C 1681.11 1120.03 1681.97 1120.13 1683.48 1120.23 C 1680.2 1124.55 1669.95 1128.12 1665.09 1131.52 C 1660.01 1135.11 1655.23 1139.11 1650.81 1143.49 C 1596.61 1196.87 1594.5 1262.54 1594.07 1333.61 L 1581.33 1325.88 C 1577.37 1323.48 1573.8 1320.58 1570.15 1317.74 C 1569.49 1303.32 1569.68 1288.76 1569.54 1274.32 C 1569.15 1234.47 1567.17 1183.45 1594.9 1151.46 C 1616.59 1126.44 1648.59 1122.65 1679.65 1120.49 z"/>
<path transform="translate(0,0)" fill="rgb(235,136,47)" d="M 415.245 1718.68 C 439.799 1721.31 464.428 1722 489.103 1722.14 C 486.425 1733.07 483.652 1753 477.79 1761.92 C 476.247 1764.27 474.638 1764.04 472.085 1764.57 C 449.191 1768.13 425.035 1770.05 401.83 1770.15 C 405.908 1752.92 410.889 1735.86 415.245 1718.68 z"/>
<path transform="translate(0,0)" fill="rgb(235,136,47)" d="M 1628.11 1718.61 L 1629.09 1718.91 C 1635.18 1734.77 1638.62 1752.89 1642.63 1769.47 C 1620.94 1768.2 1599.42 1767.44 1577.76 1765.47 C 1575.02 1765.29 1572.56 1764.97 1569.88 1764.39 C 1564 1757.48 1559.43 1732 1556.81 1722.1 C 1580.74 1722.12 1604.28 1720.42 1628.11 1718.61 z"/>
<path transform="translate(0,0)" fill="rgb(240,100,83)" d="M 1043.33 576.842 C 1044.74 578.228 1044.86 579.219 1045.36 581.075 C 1046.78 586.377 1064.93 670.096 1064.86 670.49 C 1064.73 671.202 1064.12 671.737 1063.75 672.361 C 1056.53 672.783 1049.24 672.576 1042 672.533 C 1042.27 640.693 1043.98 608.654 1043.33 576.842 z"/>
</svg>