<svg xmlns="http://www.w3.org/2000/svg" width="1365.333" height="1365.333" preserveAspectRatio="xMidYMid meet" version="1.0" viewBox="0 0 1024 1024"><g fill="#000" stroke="none"><path d="M0 512v512h1024V0H0zm857.1-363c1.4 0 3.4.6 4.5 1.4 1.8 1.4 1.9 3.8 2.4 93l.5 91.6h-54.7l.3-57 .4-57-3.3-3.2-3.2-3.3-25.4-.3-25.5-.3-.3-14.4-.3-14.5-3.2-3.2-3.2-3.1h-39.7l-39.6.1-3.2 3.1-3.1 3.1-.3 16.5-.3 16.5h-16.7c-17.9 0-19.7.4-22.4 5.3-1 1.7-1.3 15-1.3 57.7v55.5l-10.6.3-10.6.3-1.1-4.3c-1.6-6.2-25.7-118.3-28.1-130.8-1.2-5.8-2.4-11.5-2.6-12.8-.3-1.2-2-3.1-3.8-4.2-2.9-1.8-5.1-2-22.8-2-15.6 0-19.9.3-21.5 1.5-2.6 2-5.4 1.8-8.9-.5-2.8-1.8-4.7-2-27.3-2-25.8 0-28.8.5-31.2 4.9-.6 1.3-1 27-1 75.5V336h-30v-90c0-99.6-.3-94.9 6.3-96.9 2.1-.7 75.4-.9 215.7-.5 116.9.2 213.7.4 215.1.4m-308.6 63.7c1.6 8.9 25.7 116.9 27 121.3.4 1.3-1.2 1.5-11 1.2-6.3-.2-11.5-.4-11.5-.6 0-.1-4.9-21.9-11-48.4-9.6-42.1-13.1-59-15.5-73.5l-.6-3.7h21.9zM785.8 287l.2 48h-33v-96.5l16.2.2 16.3.2zM661 288.9v47l-9.5.3-9.5.3V242h19zm-133.9 22.6c2.2 10.4 4.4 20.2 4.9 21.7l.9 2.8H521v-11.3c0-13.2 1.2-37.1 1.8-34.2.2 1.1 2.1 10.5 4.3 21M344 384c1.8 26.2 3 35.9 5.4 44.9 7.7 28.6 8.1 30.3 10 43.7l.6 4.2-10.6.4c-10.3.3-10.7.5-13.1 3.2-3 3.5-2.6 7.8 1.2 11.6 2.3 2.3 3.4 2.5 13.1 2.8 8.8.3 10.5.6 10 1.9-.3.8-.6 2.6-.6 3.9 0 2.3-.2 2.4-7.4 2.4-6.6 0-7.7.3-9 2.2-2.2 3.1-2 9.1.2 11.1 1 .9 4.1 2.2 7 2.8 2.9.7 5.2 1.6 5.2 2 0 1.4-7.7 7.6-12.4 9.8-5.9 2.9-7.4 6.1-5.2 10.9 1.9 4 7.5 6.6 12.3 5.9 6.5-1.1 18-11.3 22.4-20 1.7-3.2 2.4-3.7 4.2-3.1 5.8 1.9 10 2.4 20.2 2.4 11.5 0 22.1-1.9 40.8-7.4 26.9-7.8 70.3-9.1 100.7-3 44.4 9 77.4 39.3 93.1 85.4 1.7 5.2 3.7 10 4.3 10.6s4.9 2.1 9.6 3.4c13.6 3.7 28.4 9.8 44.5 18.2 8.3 4.3 24.1 12.3 35.2 17.9 16.1 8 20.9 10.9 24.2 14.4 4.5 4.9 4.9 6.7 2.4 12-1.5 3.2-2 3.5-4.3 2.8-5-1.5-10.2-.8-12.1 1.6-1.1 1.3-1.9 3-1.9 3.8 0 2.1 4.6 6 8 6.7 1.7.3 3 .9 3 1.3 0 .5-1.4 2.5-3.1 4.5-6.8 8.3-16.9 7.1-33.4-4-5.5-3.7-15.5-10.4-22.1-14.9-15.4-10.4-34.2-20.3-46.4-24.4l-9.5-3.2-28.5-.8c-15.7-.5-32.1-1.3-36.5-1.9-29.8-4.2-52.1-22.4-59.4-48.8-1.1-3.9-2.3-12-2.7-17.9-.7-11.6-1.8-14.9-6-18.2-5.6-4.4-12.7-1-16 7.4-1.4 3.7-1.6 6.8-1.2 17.2.4 10.9.9 14.1 3.6 21.6 9 26.2 31.1 48.4 59.1 59.4 1.7.6-4.3 1-19 1.1-11.8.1-39.9.5-62.6.8l-41.2.7 2.6-6.4c3.8-9.3 4-17.2.9-28.9-1.4-5.5-3.2-10-4.2-10.7-2.9-2.1-6.8-1.5-9.6 1.4-4.3 4.5-5 7.7-4.3 19.1 1 13.8-.2 18-7.1 24.9s-10.7 7.9-38.4 9.8c-29.2 2-53 4.3-77.5 7.4-8.1 1-19.7 4.9-26.4 8.7-2.5 1.5-8.4 5.4-13.1 8.8-17.1 12.3-23.2 15.5-29.6 15.6-5.1 0-8.9-2.8-11.5-8.4-5.5-12 2-26.7 19.5-38.4 9.7-6.5 19.6-10.5 34.1-13.7 13.4-2.9 73.7-18.8 80.3-21.2 8.5-3 14-10.3 12.7-17-.6-3.3-4.6-7.3-7.3-7.3-.8 0-11.6 2.7-24.1 6.1-41.2 11-55.5 14.7-63.9 16.5l-8.3 1.8-4-4c-6.1-5.9-13.6-17.7-16-25.2-3.1-9.7-3.8-28.4-1.4-37.2 2.8-10.3 3.2-9.5-9.2-17.9-6.2-4.2-13.8-9.8-16.9-12.5-5.2-4.5-16.4-17.2-16.4-18.6 0-.3 3.4-1.1 7.5-1.7 8.3-1.2 11-2.9 12-7.3.8-3.6-1.7-8.6-4.6-9.5-1.2-.4-7.1-.4-13.1 0-12 .7-10.9 1.2-13.2-6.3-.7-2.2-.7-2.2 10.2-2.2 9.5 0 11.3-.3 13.6-2.1 3.5-2.8 3.7-8.9.3-12.3-2.1-2.1-3.5-2.4-14.5-2.8-6.8-.3-12.4-.7-12.5-.9-.6-.9.9-110.8 1.5-111.4.9-.9 8 2.4 14.8 6.7 8.2 5.3 16.4 11.9 27.2 21.9l9.7 8.9 11.8-1.5c23.8-3.2 46.4-2.8 65.9 1.1 2.9.6 3.3.2 11.7-11.4 10.5-14.5 18.2-23 26.2-29l6-4.4.7 3.4c.4 1.8 1.2 10.3 1.8 18.8m520 65.9v87.3l-12.7-.1c-7.1-.1-18 .5-24.3 1.4-6.3.8-12.3 1.5-13.2 1.5-1.7 0-1.8-2-1.8-27.3 0-41.7-1.5-54.3-8.5-70.7-4.2-10.1-10.3-19-18.9-27.5-11.6-11.6-22.3-17.5-40.8-22.6l-8.3-2.3-157.7-.4-157.8-.3V362l222 .2 222 .3zm-194.4 15.2c15.3 2.7 28.1 9 39 19.2 11.2 10.4 20.1 25 24 39.2 2.2 8.2 3 31.7 1.4 40.9-2.8 15.9-10.5 31.4-21.8 43.6l-5.8 6.3-11.4-5.5c-11.3-5.5-25.4-10.8-28.7-10.8-2.7 0-.8-1.1 6.2-3.5 32.8-11.5 44.3-48.1 23.7-75.3-6.9-9.2-14.5-14.7-31.7-23.3-20.8-10.3-26.6-15.6-25-23 1.7-7.5 13.9-10.7 30.1-7.8M234.3 860.9c7.1.1 9.7.4 9.7 1.4 0 1.5-4.7 18.7-5.3 19.3s-27.5 3.4-33 3.4c-4.1 0-4.8-.3-4.3-1.8.3-.9 1.7-6.2 3.1-11.7s2.8-10.5 2.9-11c.3-.7 3.3-.8 8.7-.4 4.6.4 12.8.8 18.2.8M818 871.5c1.8 6.9 3.1 12.7 2.9 12.9-.5.4-29.4-1.2-33.5-1.9-3-.5-3.3-1-5.8-9.8-1.4-5.1-2.6-9.8-2.6-10.5 0-.8 2.8-1.2 9.3-1.3 7.6-.1 20.6-1 25.2-1.7.6-.1 2.6 5.4 4.5 12.3"/><path d="M303.5 455c-2.2 4.3-1.9 8.4 1.1 12 3.6 4.3 7.4 6 14.7 6.7 5.1.4 7 .2 10.8-1.6 9.6-4.5 13.4-12.1 8.7-17.5l-2.4-2.8-6.8 2.1c-8.5 2.6-12.6 2.6-17.6.1-5.3-2.7-6.7-2.5-8.5 1m-88.1-.9c-5.8 2.1-7.1 9.9-2.5 15.1 8.1 9.3 29.6 8.8 38-.8 3.4-3.8 3.9-7 1.6-11.4-2-4-5.6-4.7-9.7-2.2-5.5 3.3-9.1 3.6-16.6 1.2-3.7-1.2-7.1-2.3-7.7-2.4-.5-.2-2 0-3.1.5m60.9 26.8c-8.9 4.2-10.8 14.1-4.5 23.3 1.8 2.6 3.2 5.9 3.2 7.4 0 2.6-.1 2.7-4.5 2.1-2.4-.4-7.2-1.8-10.6-3.2s-7.4-2.5-8.9-2.5c-3.6 0-7 3.9-7.7 8.9-.5 3.7-.2 4.4 3 7.4 7.7 7.4 28.8 9.1 35.8 3 1.4-1.2 2.2-1.1 5.5.9 3.3 1.9 5.3 2.3 12.9 2.3 13.6 0 20.4-4.2 21.2-13.2.4-3.9.1-5.3-1.7-7.6-2.8-3.5-4.7-3.4-14 .8-4.3 1.9-8.7 3.5-9.9 3.5-3.1 0-2.7-3.9 1-9.9 4.2-6.8 4.8-12.5 1.7-17-3.6-5.3-7.1-7.4-13-7.8-3.8-.3-6.5.2-9.5 1.6"/></g></svg>