<?xml version="1.0" encoding="UTF-8"?>
<!-- Generator: visioncortex VTracer 0.6.4 -->
<svg version="1.1" xmlns="http://www.w3.org/2000/svg" width="1024" height="1024">
<path d="M0 0 C1.82 -0 3.63 -0 5.45 -0.01 C10.43 -0.01 15.41 -0.01 20.39 -0.01 C25.76 -0.01 31.13 -0.02 36.51 -0.02 C47.03 -0.03 57.56 -0.03 68.08 -0.03 C76.63 -0.03 85.18 -0.04 93.74 -0.04 C117.99 -0.05 142.24 -0.05 166.49 -0.05 C167.79 -0.05 169.1 -0.05 170.45 -0.05 C172.41 -0.05 172.41 -0.05 174.41 -0.05 C195.63 -0.05 216.84 -0.06 238.06 -0.07 C259.85 -0.09 281.63 -0.1 303.42 -0.1 C315.65 -0.09 327.88 -0.1 340.11 -0.11 C350.52 -0.12 360.93 -0.12 371.34 -0.11 C376.65 -0.11 381.97 -0.11 387.28 -0.12 C392.14 -0.13 397 -0.12 401.87 -0.12 C403.62 -0.11 405.38 -0.12 407.14 -0.12 C423.51 -0.17 423.51 -0.17 431.27 2.13 C434.25 3.44 436.73 5.12 439.27 7.13 C442.17 10.03 444.03 12.65 445.89 16.3 C448.33 23.11 447.7 30.55 447.67 37.7 C447.68 39.4 447.69 41.1 447.69 42.81 C447.71 47.47 447.71 52.14 447.71 56.81 C447.71 61.85 447.72 66.88 447.74 71.92 C447.76 80.65 447.77 89.37 447.78 98.1 C447.78 110.71 447.81 123.32 447.83 135.94 C447.88 156.4 447.91 176.87 447.93 197.34 C447.95 217.22 447.98 237.1 448.01 256.98 C448.02 258.81 448.02 258.81 448.02 260.69 C448.03 266.84 448.04 272.99 448.05 279.13 C448.15 330.13 448.22 381.13 448.27 432.13 C449.16 432.4 450.06 432.67 450.97 432.95 C452.14 433.31 453.31 433.66 454.52 434.03 C455.68 434.38 456.83 434.73 458.03 435.09 C464.5 437.17 469.38 440.05 474.77 444.2 C480.32 448.89 484.52 453.92 488.27 460.13 C492.21 467.3 495.19 474.6 496.8 482.63 C497.91 490.82 498.2 499.1 496.51 507.24 C494.02 517.65 489.99 526.6 484.11 535.51 C478.77 543.15 472.47 548.66 465.07 554.23 C464.15 554.86 463.22 555.49 462.27 556.13 C461.61 556.13 460.95 556.13 460.27 556.13 C460.29 557.35 460.31 558.56 460.33 559.81 C460.49 571.31 460.63 582.81 460.77 594.32 C460.84 600.23 460.91 606.14 461 612.05 C461.08 617.77 461.15 623.49 461.21 629.21 C461.24 631.38 461.27 633.54 461.3 635.71 C461.55 652.14 461.68 668.7 456.46 684.47 C453.74 692.17 450.01 699.33 445 705.78 C439.27 712.72 432.81 719.18 425.27 724.13 C422.67 725.66 420.02 727.07 417.34 728.45 C416.7 728.77 416.07 729.1 415.42 729.43 C409.91 732.12 404.21 733.66 398.27 735.13 C398.49 735.9 398.7 736.68 398.92 737.47 C399.88 741 400.83 744.54 401.77 748.07 C402.11 749.28 402.44 750.5 402.79 751.75 C404.55 758.4 405.84 764.24 405.27 771.13 C404.66 773.54 403.82 775.19 402.6 777.34 C400.81 779.76 398.82 781.42 396.35 783.13 C393.41 784.55 390.47 785.49 387.27 786.13 C383.8 786.41 380.33 786.41 376.84 786.4 C375.85 786.4 374.86 786.4 373.85 786.41 C371.76 786.41 369.67 786.4 367.59 786.39 C364.42 786.38 361.25 786.39 358.07 786.41 C356.04 786.41 354 786.4 351.97 786.4 C351.03 786.4 350.09 786.41 349.13 786.41 C343.29 786.37 337.89 785.77 332.27 784.13 C328.77 782.62 326.1 780.68 323.27 778.13 C318.71 771.23 316.59 763.23 314.46 755.32 C314.15 754.22 313.84 753.11 313.52 751.97 C312.18 747.09 311.27 743.25 311.27 738.13 C152.54 738.46 -6.19 738.79 -169.73 739.13 C-173.19 751.51 -173.19 751.51 -176.73 764.13 C-180.73 774.13 -180.73 774.13 -183.41 778.01 C-185.16 779.88 -186.72 781.13 -188.94 782.41 C-192.83 784.22 -196.5 785.39 -200.73 786.13 C-202.27 786.23 -203.81 786.28 -205.36 786.29 C-206.25 786.3 -207.13 786.31 -208.05 786.32 C-209 786.33 -209.95 786.33 -210.93 786.34 C-211.92 786.34 -212.91 786.35 -213.93 786.35 C-216.02 786.36 -218.11 786.37 -220.21 786.37 C-223.38 786.38 -226.56 786.41 -229.74 786.45 C-231.78 786.45 -233.82 786.46 -235.86 786.46 C-236.8 786.47 -237.74 786.49 -238.71 786.5 C-244.38 786.48 -249.24 785.68 -254.64 783.94 C-256.73 783.13 -256.73 783.13 -259.6 781.45 C-261.92 778.92 -263.55 776.61 -264.93 773.48 C-266.03 770.23 -266.03 767.4 -265.97 763.99 C-265.52 758.73 -264.15 753.72 -262.79 748.63 C-262.51 747.55 -262.23 746.47 -261.95 745.35 C-259.91 737.5 -259.91 737.5 -258.73 735.13 C-259.82 734.91 -259.82 734.91 -260.93 734.69 C-268.87 732.92 -275.73 730.3 -282.73 726.13 C-290.99 720.61 -299.07 714.46 -305 706.4 C-311.2 697.51 -315.79 688.61 -318.73 678.13 C-321.4 667.85 -321.89 657.32 -321.76 646.74 C-321.74 644.72 -321.72 642.71 -321.71 640.69 C-321.7 639.64 -321.69 638.59 -321.68 637.51 C-321.63 630.72 -321.63 623.93 -321.63 617.14 C-321.62 611.19 -321.59 605.24 -321.52 599.28 C-321.46 593.5 -321.45 587.72 -321.47 581.93 C-321.47 579.74 -321.45 577.54 -321.41 575.35 C-321.1 565.64 -321.1 565.64 -322.73 556.13 C-324.98 552.98 -324.98 552.98 -328.08 550.92 C-329.94 549.95 -331.82 549.02 -333.73 548.13 C-339.19 543.82 -342.92 538.24 -346.59 532.38 C-350.63 525.76 -353.42 520.04 -355.06 512.42 C-356.94 502.89 -357.35 493.85 -356.04 484.2 C-354.57 476.4 -351.88 469.23 -348.19 462.22 C-344.02 455.23 -339.01 449.33 -332.73 444.13 C-326.6 439.79 -320.31 436.39 -313.11 434.16 C-301.62 431.04 -289.72 431.63 -277.94 432.37 C-275.53 432.58 -273.13 432.82 -270.73 433.13 C-271.16 432.67 -271.6 432.21 -272.05 431.74 C-277.22 426.07 -281.29 420 -284.73 413.13 C-285.53 413.21 -286.32 413.28 -287.15 413.35 C-303.92 414.77 -303.92 414.77 -309.73 414.13 C-311.74 413.38 -311.74 413.38 -313.35 412.38 C-315.73 410.13 -315.73 410.13 -317.1 408.26 C-317.73 406.13 -317.73 406.13 -318.1 403.26 C-317.73 400.13 -317.73 400.13 -316.1 396.88 C-315.32 395.98 -314.53 395.07 -313.73 394.13 C-311.04 392.97 -311.04 392.97 -307.73 392.13 C-304.08 391.94 -304.08 391.94 -300.35 392.01 C-299.11 392.03 -297.86 392.04 -296.58 392.06 C-295.17 392.1 -295.17 392.1 -293.73 392.13 C-294.51 389.48 -295.3 386.84 -296.1 384.2 C-296.32 383.44 -296.54 382.69 -296.77 381.91 C-297.37 379.97 -298.04 378.05 -298.73 376.13 C-299.39 375.8 -300.05 375.47 -300.73 375.13 C-302.46 375.14 -304.19 375.19 -305.91 375.26 C-308.72 375.28 -311.18 375.27 -313.9 374.58 C-316.38 373.55 -318.51 372.31 -320.6 370.63 C-321.73 369.13 -321.73 369.13 -322.73 366.13 C-322.91 363.33 -323.03 360.89 -322.73 358.13 C-321.51 355.39 -320.23 353.66 -318.16 351.51 C-317.36 351.05 -316.55 350.6 -315.73 350.13 C-312.8 349.77 -309.92 349.85 -306.98 349.95 C-306.18 349.96 -305.39 349.97 -304.57 349.99 C-302.62 350.02 -300.67 350.08 -298.73 350.13 C-298.89 349.01 -299.05 347.9 -299.22 346.74 C-299.81 341.95 -299.88 337.21 -299.89 332.39 C-299.89 330.98 -299.89 330.98 -299.9 329.54 C-299.92 326.45 -299.92 323.36 -299.93 320.27 C-299.93 318.67 -299.93 318.67 -299.94 317.05 C-299.95 311.44 -299.96 305.82 -299.97 300.21 C-299.97 294.43 -300 288.65 -300.02 282.87 C-300.04 278.41 -300.05 273.95 -300.05 269.48 C-300.05 267.36 -300.06 265.23 -300.07 263.1 C-300.09 260.11 -300.09 257.12 -300.08 254.14 C-300.1 252.84 -300.1 252.84 -300.11 251.51 C-300.07 246.1 -299.19 241.45 -297.55 236.29 C-296.35 233.15 -294.84 230.74 -292.73 228.13 C-290.28 225.74 -287.92 223.82 -284.95 222.12 C-282.08 220.83 -279.46 220.2 -276.33 219.93 C-271.93 220.06 -268 220.96 -263.89 222.49 C-255.14 226.02 -247.33 230.54 -239.73 236.13 C-238.69 236.88 -237.66 237.63 -236.59 238.41 C-235.51 239.21 -234.43 240.01 -233.35 240.82 C-232.81 241.22 -232.26 241.63 -231.7 242.04 C-228.63 244.39 -226.08 246.8 -223.6 249.77 C-220.91 252.89 -218.27 255.78 -214.9 258.16 C-212.73 259.27 -212.73 259.27 -210.17 259.41 C-204.2 259.15 -198.41 257.87 -192.58 256.65 C-188.34 255.89 -184.21 255.77 -179.91 255.82 C-179.16 255.83 -178.4 255.84 -177.62 255.84 C-169.27 256.03 -161 257.03 -152.73 258.13 C-152.13 257.26 -151.54 256.39 -150.93 255.49 C-142.32 243.05 -132.61 231.61 -120.73 222.13 C-115.01 218.31 -109.37 215.01 -102.73 213.13 C-99.35 212.73 -96.1 212.79 -92.73 213.13 C-88.77 214.39 -85.96 215.98 -82.54 218.32 C-80.38 220.48 -79.01 221.95 -77.54 224.51 C-74.05 232.21 -72.95 241.22 -72.04 249.57 C-71.5 256.74 -71.64 263.95 -71.73 271.13 C-70.51 270.99 -69.29 270.84 -68.03 270.7 C-66.41 270.51 -64.79 270.32 -63.16 270.13 C-61.96 269.99 -61.96 269.99 -60.74 269.84 C-59.95 269.75 -59.16 269.66 -58.35 269.57 C-57.27 269.45 -57.27 269.45 -56.17 269.32 C-53.02 269.08 -49.89 269.12 -46.73 269.13 C-46.73 267.87 -46.73 266.61 -46.73 265.32 C-46.8 235.4 -46.85 205.49 -46.88 175.58 C-46.88 171.89 -46.89 168.21 -46.89 164.53 C-46.89 163.79 -46.89 163.06 -46.89 162.3 C-46.91 150.44 -46.93 138.57 -46.96 126.7 C-46.99 114.52 -47 102.34 -47.01 90.16 C-47.01 82.65 -47.03 75.14 -47.05 67.62 C-47.07 61.86 -47.07 56.09 -47.07 50.33 C-47.07 47.96 -47.07 45.6 -47.08 43.24 C-47.1 40.01 -47.09 36.78 -47.09 33.56 C-47.1 32.62 -47.1 31.69 -47.11 30.73 C-47.08 25.43 -46.33 21 -44.54 16 C-43.41 13.4 -42 11.42 -40.1 9.32 C-38.01 7.13 -36.06 5.35 -33.52 3.72 C-29.3 1.67 -25.41 0.84 -20.72 0.34 C-13.83 -0.14 -6.91 -0.01 0 0 Z " fill="#00375C" transform="translate(441.725830078125,121.86628723144531)"/>
<path d="M0 0 C0.33 0 0.66 0 1 0 C2.26 7.75 3.18 15.44 3.71 23.27 C3.77 24.08 3.82 24.89 3.88 25.72 C4.1 29.06 4.32 32.41 4.53 35.75 C5.51 51.72 8.58 66.59 13.06 81.94 C16.06 92.55 19 103.9 19 115 C17.69 115.04 16.37 115.07 15.02 115.11 C13.28 115.18 11.55 115.25 9.81 115.31 C8.95 115.34 8.08 115.36 7.19 115.38 C4.76 115.48 2.41 115.63 0 116 C-2.42 117.17 -4.12 118.12 -6 120 C-5.82 122.8 -5.62 125.29 -5 128 C-4.55 128.64 -4.09 129.28 -3.62 129.94 C-1.87 131.19 -1.87 131.19 1 132 C2.48 132.15 3.96 132.25 5.45 132.32 C6.3 132.36 7.14 132.4 8.02 132.44 C8.9 132.48 9.78 132.52 10.69 132.56 C11.58 132.61 12.47 132.65 13.39 132.69 C15.59 132.8 17.8 132.9 20 133 C19.67 135.64 19.34 138.28 19 141 C17.94 141.04 16.88 141.07 15.79 141.11 C14.4 141.18 13.01 141.25 11.62 141.31 C10.93 141.34 10.23 141.36 9.51 141.38 C7.23 141.47 7.23 141.47 4 142 C3.34 142.99 2.68 143.98 2 145 C1.6 147.11 1.56 148.99 1.63 151.13 C1.81 152.06 1.81 152.06 2 153 C2.99 153.93 2.99 153.93 4 154.88 C7.64 156.24 11.2 157.16 15 158 C14.05 160.14 13.15 161.84 11.55 163.56 C8.37 166.29 5.49 168.33 1.62 170 C-0.37 170.87 -0.37 170.87 -2 172 C-2.39 172.97 -2.78 173.94 -3.19 174.94 C-3.16 178.02 -3.16 178.02 -1.88 180.75 C-0.14 183.06 -0.14 183.06 2.12 184.38 C4.68 184.93 6.65 185.15 9.25 185.06 C11.64 184.78 11.64 184.78 14 184 C19.7 180.7 24.28 176.01 28.49 171 C30.65 168.14 32.34 165.18 34 162 C35.24 162.32 36.48 162.64 37.75 162.97 C47.89 165.2 58.7 164.87 69 164 C77.49 162.66 85.74 160.34 94 158 C121.16 150.58 148.68 148.74 176.74 151.03 C184.99 151.8 192.95 152.98 201 155 C202.21 155.28 203.42 155.55 204.67 155.84 C218.83 159.27 231.9 165.08 244.05 173.14 C255.22 180.97 264.87 191.01 272.72 202.13 C280.1 212.92 285.59 224.04 290.21 236.25 C290.51 237.02 290.81 237.79 291.12 238.59 C291.73 240.27 292.29 241.99 292.79 243.72 C293.64 246.39 294.48 248.63 296 251 C298.19 252.37 300.08 252.92 302.6 253.5 C303.47 253.67 304.35 253.83 305.25 254 C307.16 254.45 309.06 254.92 310.96 255.4 C311.95 255.65 312.95 255.9 313.97 256.15 C331.57 261.08 348 270.37 364 279 C367.29 280.76 370.58 282.51 373.88 284.25 C374.64 284.66 375.41 285.06 376.2 285.48 C381.45 288.25 386.79 290.78 392.19 293.25 C397.98 295.92 403.31 298.6 408 303 C408.53 303.48 409.06 303.96 409.61 304.46 C411.06 305.94 411.06 305.94 413 309 C412.94 312.63 412.94 312.63 412 316 C411.36 317.34 410.69 318.68 410 320 C409.25 319.9 408.5 319.81 407.73 319.71 C406.75 319.6 405.76 319.49 404.75 319.38 C403.78 319.26 402.8 319.14 401.8 319.02 C400.87 319.02 399.95 319.01 399 319 C396.71 319.71 396.71 319.71 395 321 C394.67 321.78 394.34 322.57 394 323.38 C394 324.24 394 325.11 394 326 C395.5 328.33 395.5 328.33 398 330 C401.13 331.27 401.13 331.27 404 332 C403.38 334.19 403.38 334.19 402 337 C399.93 339.22 398.58 340.56 396 342 C392.93 342.96 390.2 343.12 387 343 C382.68 342.15 378.6 340.86 374.72 338.77 C372.49 337.37 370.34 335.89 368.19 334.38 C367.41 333.84 366.63 333.31 365.83 332.76 C363.54 331.18 361.27 329.6 359 328 C337.8 313.17 316.17 298.99 291 292 C286.73 290.96 282.53 290.8 278.16 290.72 C277.4 290.7 276.64 290.68 275.86 290.66 C274.24 290.63 272.63 290.59 271.01 290.55 C266.8 290.46 262.6 290.35 258.39 290.24 C257.57 290.22 256.75 290.2 255.9 290.18 C219.6 289.25 219.6 289.25 204.12 283.25 C197.79 280.63 192.32 277.31 187 273 C186.22 272.38 185.44 271.77 184.64 271.13 C179.01 266.43 174.74 261.3 171 255 C167.25 247.97 164.68 240.79 163 233 C162.39 228.07 162.16 223.12 161.92 218.17 C161.63 212.97 161.63 212.97 160.15 208.04 C159.04 206.21 159.04 206.21 157 204 C156.01 203.34 155.02 202.68 154 202 C151.08 201.5 151.08 201.5 148 202 C145.18 203.47 145.18 203.47 143 206 C141.68 208.42 140.75 210.38 140 213 C139.55 216.65 139.52 220.26 139.56 223.94 C139.58 225.47 139.58 225.47 139.59 227.03 C139.79 235.8 140.84 243.77 144 252 C148.72 263.57 155.21 273.4 163.45 282.8 C171.49 291.32 180.92 298.28 191.29 303.73 C193.84 304.9 196.39 305.99 199 307 C199.92 307.37 200.85 307.74 201.8 308.12 C202.53 308.41 203.25 308.7 204 309 C200.16 310.23 196.31 310.17 192.31 310.21 C191.54 310.22 190.77 310.23 189.98 310.24 C187.41 310.27 184.85 310.29 182.28 310.32 C180.47 310.34 178.65 310.36 176.84 310.38 C173.01 310.42 169.19 310.46 165.36 310.5 C160.57 310.55 155.78 310.6 150.99 310.66 C127 310.94 103 311.06 79 311 C79.35 309.99 79.71 308.99 80.07 307.95 C80.54 306.6 81 305.25 81.46 303.91 C81.7 303.25 81.93 302.58 82.17 301.9 C83.6 297.73 84.39 293.95 84.56 289.5 C84.25 282.15 82.58 274.88 80 268 C78.67 266.09 78.67 266.09 77 265 C76.05 264.81 75.1 264.63 74.12 264.44 C73.09 264.62 72.06 264.81 71 265 C68.9 266.83 67.62 268.69 66 271 C65.67 271.66 65.34 272.32 65 273 C64.96 274.86 64.99 276.71 65.04 278.57 C65.06 279.69 65.09 280.82 65.11 281.98 C65.16 284.34 65.23 286.7 65.3 289.06 C65.37 293.42 65.43 297.48 64.24 301.69 C62.84 305.04 61.25 307.69 58.99 310.52 C57.94 311.44 57.94 311.44 56.88 312.38 C56.19 313 55.51 313.63 54.8 314.27 C50.74 316.78 46.65 317.95 42 319 C37.49 319.6 32.97 319.98 28.43 320.31 C26.15 320.47 23.87 320.65 21.58 320.83 C17.52 321.15 13.46 321.45 9.4 321.75 C-10.19 323.21 -29.76 324.71 -49.26 327.02 C-49.95 327.1 -50.63 327.18 -51.33 327.26 C-61.86 328.48 -71.46 330.31 -81 335 C-88.73 339.12 -95.75 344.2 -102.82 349.34 C-109.05 353.84 -115.67 358.56 -123 361 C-126.07 361.41 -128.94 361.45 -132 361 C-135.37 359 -135.37 359 -138 356 C-139.49 353.4 -140.36 350.92 -141 348 C-141.51 344.86 -141.54 342.14 -141 339 C-139.44 334.3 -137.05 330.42 -134.12 326.46 C-128.39 319.65 -121.68 314.45 -114 310 C-104.11 304.87 -94.09 301.71 -83.19 299.44 C-80.24 298.79 -77.3 298.13 -74.36 297.45 C-73.17 297.18 -73.17 297.18 -71.96 296.91 C-60.22 294.18 -48.62 290.9 -37 287.69 C-35.88 287.38 -34.76 287.07 -33.61 286.75 C-30.39 285.86 -27.16 284.97 -23.94 284.07 C-22.5 283.68 -22.5 283.68 -21.04 283.27 C-18.36 282.52 -15.68 281.76 -13 281 C-12.08 280.74 -11.16 280.48 -10.22 280.21 C-9.33 279.95 -8.45 279.69 -7.53 279.43 C-6.35 279.08 -6.35 279.08 -5.14 278.73 C-2.71 277.97 -2.71 277.97 0.44 276.12 C3.09 274.12 3.09 274.12 4.81 271.38 C5.2 270.59 5.6 269.81 6 269 C6.33 268.34 6.66 267.68 7 267 C7.5 264.13 7.5 264.13 7 261 C6.04 259.55 6.04 259.55 5.06 258.06 C4.05 257.38 3.04 256.7 2 256 C-3.95 255.82 -9.93 257.6 -15.62 259.19 C-16.42 259.41 -17.22 259.62 -18.05 259.85 C-19.77 260.32 -21.49 260.79 -23.21 261.26 C-27.77 262.52 -32.34 263.76 -36.9 265 C-37.83 265.25 -38.76 265.5 -39.71 265.76 C-48.19 268.06 -56.68 270.29 -65.19 272.48 C-66.67 272.87 -68.15 273.25 -69.63 273.63 C-75.95 275.27 -82.28 276.9 -88.66 278.31 C-89.39 278.47 -90.12 278.63 -90.87 278.8 C-93 279 -93 279 -95.66 278.61 C-98 278 -98 278 -99.7 276.86 C-105.48 271.07 -110.25 264.27 -114 257 C-116.55 250.51 -118.69 243.58 -119.16 236.59 C-119.21 233.85 -119.24 231.11 -119.25 228.38 C-119.25 227.39 -119.26 226.4 -119.26 225.39 C-119.22 220.15 -118.94 215.43 -117.44 210.38 C-117.15 209.6 -116.86 208.82 -116.56 208.02 C-116.37 207.36 -116.19 206.69 -116 206 C-116.17 203.99 -116.17 203.99 -117 202 C-118.59 200.51 -118.59 200.51 -120.65 199.3 C-121.4 198.82 -122.15 198.34 -122.93 197.84 C-123.74 197.34 -124.54 196.83 -125.38 196.31 C-137.41 188.54 -148.67 180.05 -157.5 168.62 C-158.97 166.66 -158.97 166.66 -160 165 C-160 164.34 -160 163.68 -160 163 C-158.88 162.84 -157.76 162.68 -156.61 162.52 C-155.13 162.29 -153.66 162.05 -152.19 161.81 C-151.08 161.66 -151.08 161.66 -149.95 161.51 C-147.49 161.14 -147.49 161.14 -144 160 C-141.92 157.68 -141.92 157.68 -141 155 C-140.42 152.46 -140.42 152.46 -141 150 C-142.63 147.76 -142.63 147.76 -145 146 C-147.7 145.45 -147.7 145.45 -150.64 145.61 C-151.71 145.62 -152.78 145.64 -153.88 145.65 C-154.99 145.68 -156.11 145.72 -157.25 145.75 C-158.38 145.77 -159.5 145.79 -160.66 145.8 C-163.44 145.85 -166.22 145.92 -169 146 C-169.99 143.03 -170.98 140.06 -172 137 C-170.46 136.96 -168.92 136.93 -167.33 136.89 C-165.3 136.82 -163.28 136.75 -161.25 136.69 C-160.23 136.66 -159.22 136.64 -158.17 136.62 C-157.19 136.58 -156.21 136.55 -155.2 136.51 C-153.85 136.47 -153.85 136.47 -152.47 136.43 C-149.93 136.13 -149.93 136.13 -147.71 134.71 C-147.14 134.15 -146.58 133.58 -146 133 C-145.47 129.39 -145.47 129.39 -145.47 127.04 C-145.92 124.87 -145.92 124.87 -147.45 122.79 C-148.71 121.9 -148.71 121.9 -150 121 C-153.12 120.39 -156.2 120.35 -159.38 120.31 C-161.05 120.27 -162.72 120.22 -164.4 120.18 C-165.14 120.16 -165.88 120.15 -166.64 120.14 C-169.47 119.97 -172.21 119.48 -175 119 C-174.89 104.84 -174.78 90.68 -174.66 76.52 C-174.61 69.95 -174.55 63.37 -174.5 56.8 C-174.46 50.45 -174.4 44.11 -174.35 37.77 C-174.33 35.35 -174.31 32.93 -174.29 30.5 C-174.27 27.12 -174.24 23.73 -174.21 20.35 C-174.2 18.83 -174.2 18.83 -174.19 17.29 C-174.18 16.37 -174.17 15.45 -174.16 14.5 C-174.15 13.7 -174.15 12.9 -174.14 12.07 C-174 10 -174 10 -173 7 C-165.37 9.13 -159.45 12.43 -153 17 C-141.86 25.06 -131.71 34.29 -122 44 C-120.37 43.96 -118.75 43.84 -117.12 43.69 C-116.03 43.59 -114.93 43.49 -113.8 43.39 C-111.14 43.12 -108.48 42.82 -105.82 42.48 C-86.03 40.07 -66.87 40.4 -47.21 43.72 C-44.7 44.04 -42.52 44.27 -40 44 C-38.28 42.54 -38.28 42.54 -36.98 40.45 C-36.46 39.69 -35.94 38.94 -35.4 38.16 C-34.85 37.34 -34.31 36.53 -33.75 35.69 C-32.6 34.02 -31.44 32.36 -30.28 30.7 C-29.72 29.89 -29.16 29.08 -28.58 28.25 C-22.35 19.4 -15.17 10.61 -6.47 4.11 C-4.34 2.67 -2.23 1.27 0 0 Z " fill="#EB892E" transform="translate(341,362)"/>
<path d="M0 0 C4.35 0.8 8.06 2 12 4 C18.51 7.89 24.28 12.58 29.16 18.4 C34.3 25.64 37.76 33.59 40.31 42.06 C42.03 48.67 43.29 55.21 44 62 C44.19 63.29 44.38 64.58 44.57 65.91 C44.95 69.36 45.11 72.63 44.62 76.07 C44 78 44 78 42.83 79.82 C39.75 83.42 36.17 86.47 32.59 89.56 C28.99 92.83 26.42 96.82 24 101 C21.24 106.26 18.52 111.82 17.29 117.66 C16.43 124.64 16.35 131.55 17.65 138.47 C19.51 145.15 22.24 150.92 26.16 156.63 C28.26 159.34 30.38 161.62 33.04 163.78 C35.31 165.2 37.62 165.99 40.12 166.94 C42.71 168.14 42.71 168.14 45 170 C46.71 173.7 47.78 177.35 48.87 181.26 C50.15 185.49 51.81 188.62 54.42 192.14 C57.05 195.23 59.56 197.82 63 200 C68.14 202.49 73.39 204.79 79 206 C81.99 206.1 84.95 206.14 87.93 206.13 C88.85 206.13 89.77 206.14 90.71 206.14 C93.81 206.14 96.91 206.14 100 206.14 C102.23 206.14 104.47 206.15 106.7 206.15 C112.86 206.16 119.01 206.16 125.17 206.16 C131.12 206.16 137.07 206.17 143.02 206.17 C158.97 206.19 174.91 206.2 190.86 206.2 C198.41 206.2 205.95 206.21 213.5 206.21 C239.33 206.22 265.17 206.23 291 206.24 C292.62 206.24 294.24 206.24 295.86 206.24 C297.49 206.24 299.12 206.24 300.74 206.24 C304 206.24 307.27 206.24 310.53 206.24 C311.34 206.24 312.14 206.24 312.98 206.24 C339.19 206.24 365.4 206.26 391.61 206.28 C419.33 206.31 447.04 206.32 474.76 206.32 C477.8 206.32 480.85 206.32 483.89 206.32 C485.02 206.32 485.02 206.32 486.16 206.32 C498.22 206.32 510.27 206.34 522.32 206.35 C534.44 206.36 546.56 206.37 558.68 206.36 C565.24 206.36 571.81 206.36 578.37 206.37 C584.38 206.38 590.4 206.38 596.41 206.37 C598.58 206.37 600.75 206.37 602.92 206.38 C619.67 206.45 619.67 206.45 636 203 C640.65 200.9 644.4 198.42 648.21 195.03 C651.23 191.93 653.54 188.89 655.54 185.04 C658.21 178.85 660.64 172.45 661.19 165.69 C661.26 163.11 661.28 160.55 661.27 157.97 C661.28 157 661.28 156.03 661.29 155.02 C661.3 152.92 661.3 150.82 661.3 148.72 C661.31 145.37 661.33 142.03 661.35 138.68 C661.4 129.17 661.43 119.66 661.46 110.15 C661.47 104.32 661.5 98.49 661.54 92.66 C661.55 90.45 661.56 88.25 661.56 86.05 C661.56 68.54 662.11 50.58 667.85 33.85 C670.73 26.71 674.24 20.61 679.25 14.75 C683.65 10.11 688.34 6.03 694 3 C698.48 1.1 702.78 -0.15 707.65 -0.43 C709.22 -0.46 710.8 -0.46 712.38 -0.44 C713.2 -0.43 714.03 -0.42 714.89 -0.41 C719.51 -0.29 723.7 0.11 728.12 1.56 C733.4 3.9 737.83 7.02 742 11 C745.35 14.51 748 18.16 750.32 22.42 C752.11 26.55 753.04 30.55 753.41 35.02 C753.7 40.7 753.43 46.07 752.19 51.63 C750.64 56.17 748.78 59.94 745.95 63.81 C743.75 66.37 741.47 68.7 739 71 C738.37 71.59 737.74 72.17 737.1 72.77 C733.15 76.06 729.04 77.87 724.23 79.67 C723.07 80.11 721.9 80.55 720.69 81 C719.81 81.33 718.92 81.66 718 82 C718 82.63 718 83.26 718 83.91 C717.96 99.29 717.9 114.68 717.82 130.06 C717.78 137.51 717.74 144.95 717.73 152.39 C717.72 158.88 717.69 165.37 717.65 171.87 C717.62 175.3 717.61 178.73 717.61 182.16 C717.59 210.26 717.59 210.26 713 223 C710.54 228.99 707.43 233.78 703.11 238.63 C698.25 243.74 693.12 247.48 686.81 250.62 C680.42 253.64 674.6 255.48 667.61 256.27 C655.81 257.34 643.99 257.15 632.16 257.14 C629.62 257.14 627.08 257.15 624.54 257.15 C618.3 257.16 612.07 257.16 605.83 257.16 C598.36 257.16 590.89 257.17 583.41 257.17 C565.36 257.19 547.31 257.2 529.25 257.2 C520.71 257.2 512.16 257.21 503.62 257.21 C474.35 257.22 445.08 257.23 415.81 257.24 C413.98 257.24 412.14 257.24 410.31 257.24 C408.47 257.24 406.63 257.24 404.79 257.24 C401.1 257.24 397.41 257.24 393.71 257.24 C392.8 257.24 391.88 257.24 390.94 257.24 C361.26 257.24 331.58 257.26 301.91 257.28 C270.5 257.31 239.1 257.32 207.7 257.32 C204.25 257.32 200.8 257.32 197.36 257.32 C196.51 257.32 195.66 257.32 194.78 257.32 C181.14 257.32 167.49 257.34 153.84 257.35 C140.12 257.36 126.4 257.37 112.68 257.36 C104.54 257.36 96.39 257.36 88.25 257.38 C82.16 257.39 76.07 257.38 69.98 257.37 C67.52 257.37 65.07 257.37 62.61 257.38 C47.82 257.43 33.83 257.12 19.69 252.31 C13.06 249.38 7.36 245.03 2 240.2 C-2.58 235.43 -5.46 229.79 -8.42 223.95 C-11.03 217.92 -12.68 211.45 -13.29 204.91 C-13.4 201.66 -13.44 198.42 -13.43 195.16 C-13.45 193.33 -13.45 193.33 -13.46 191.46 C-13.49 188.16 -13.5 184.85 -13.51 181.54 C-13.52 178.07 -13.54 174.6 -13.57 171.13 C-13.61 164.57 -13.64 158.02 -13.66 151.46 C-13.69 143.99 -13.73 136.52 -13.78 129.05 C-13.87 113.7 -13.94 98.35 -14 83 C-15.1 82.53 -16.2 82.05 -17.34 81.57 C-18.8 80.94 -20.26 80.31 -21.71 79.68 C-22.44 79.37 -23.16 79.06 -23.91 78.74 C-28.37 76.8 -32.56 74.85 -36.33 71.71 C-40.49 67.44 -43.72 62.68 -46.29 57.31 C-48.31 52.44 -49.72 47.83 -50.24 42.56 C-50.39 37.2 -49.82 32.49 -48.38 27.31 C-47.06 23.44 -45.67 20.04 -43.31 16.69 C-42.24 15.43 -41.14 14.2 -40 13 C-39.36 12.31 -38.73 11.62 -38.07 10.91 C-35.01 7.9 -31.9 5.51 -28.16 3.39 C-19.03 -0.7 -9.82 -1.11 0 0 Z " fill="#00B1C3" transform="translate(160,578)"/>
<path d="M0 0 C1.09 -0 1.09 -0 2.19 -0.01 C4.62 -0.02 7.05 -0.01 9.48 -0 C11.23 -0 12.99 -0.01 14.75 -0.01 C19.58 -0.02 24.41 -0.02 29.24 -0.01 C34.45 -0.01 39.65 -0.01 44.86 -0.02 C55.07 -0.03 65.27 -0.02 75.48 -0.02 C83.77 -0.01 92.06 -0.01 100.35 -0.02 C101.53 -0.02 102.71 -0.02 103.93 -0.02 C106.32 -0.02 108.72 -0.02 111.12 -0.02 C133.59 -0.02 156.07 -0.02 178.55 -0.01 C197.84 0 217.13 0 236.42 -0.01 C258.82 -0.02 281.21 -0.02 303.61 -0.02 C305.99 -0.02 308.38 -0.02 310.77 -0.02 C312.53 -0.02 312.53 -0.02 314.33 -0.02 C322.61 -0.01 330.89 -0.02 339.18 -0.02 C349.27 -0.03 359.37 -0.03 369.46 -0.01 C374.61 -0.01 379.76 -0.01 384.91 -0.01 C389.63 -0.02 394.34 -0.02 399.06 -0.01 C400.76 -0 402.47 -0 404.18 -0.01 C406.49 -0.02 408.81 -0.01 411.13 0 C413.06 0 413.06 0 415.03 0 C418.86 0.27 422.04 0.92 425.63 2.25 C426.29 3.24 426.95 4.23 427.63 5.25 C427.83 7.71 427.91 10.06 427.91 12.52 C427.91 13.27 427.92 14.01 427.92 14.78 C427.94 17.29 427.94 19.79 427.95 22.3 C427.96 24.09 427.97 25.89 427.98 27.68 C428 32.56 428.02 37.43 428.03 42.31 C428.05 47.4 428.08 52.49 428.1 57.59 C428.15 67.23 428.18 76.88 428.22 86.53 C428.26 97.51 428.31 108.49 428.36 119.47 C428.46 142.07 428.55 164.66 428.63 187.25 C410.48 187.25 392.33 187.25 373.63 187.25 C373.66 175.45 373.66 175.45 373.7 163.4 C373.71 158.41 373.72 153.43 373.73 148.44 C373.74 140.53 373.75 132.62 373.78 124.7 C373.8 118.32 373.81 111.94 373.82 105.56 C373.82 103.13 373.83 100.69 373.84 98.26 C373.85 94.85 373.86 91.44 373.86 88.03 C373.86 87.02 373.87 86.02 373.88 84.98 C373.87 80.97 373.72 77.59 372.7 73.69 C371.74 71.26 371.74 71.26 370.25 69.44 C368.7 68.17 368.7 68.17 366.83 67.69 C364.43 67.21 362.21 67.09 359.77 67.05 C358.81 67.03 357.85 67.01 356.86 66.99 C355.83 66.97 354.8 66.95 353.74 66.94 C352.15 66.9 352.15 66.9 350.53 66.87 C347.14 66.81 343.76 66.75 340.38 66.69 C338.08 66.65 335.79 66.6 333.5 66.56 C327.87 66.45 322.25 66.35 316.63 66.25 C316.61 65.06 316.61 65.06 316.58 63.85 C316.51 60.26 316.41 56.66 316.32 53.06 C316.29 51.82 316.27 50.57 316.25 49.29 C316.19 47.49 316.19 47.49 316.14 45.65 C316.1 43.99 316.1 43.99 316.06 42.3 C315.77 39.23 315.77 39.23 314.41 36.54 C312.74 34.19 312.74 34.19 310.47 32.63 C307.64 31.06 307.64 31.06 304.25 30.88 C302.32 30.88 302.32 30.88 300.35 30.88 C299.28 30.87 299.28 30.87 298.18 30.87 C295.83 30.86 293.48 30.87 291.13 30.89 C289.49 30.89 287.85 30.89 286.21 30.89 C282.78 30.89 279.34 30.9 275.91 30.92 C271.51 30.94 267.12 30.94 262.73 30.93 C259.34 30.93 255.95 30.94 252.57 30.95 C250.95 30.95 249.33 30.95 247.71 30.95 C245.44 30.95 243.18 30.96 240.91 30.98 C239.62 30.98 238.33 30.99 237.01 30.99 C233.67 31.12 233.67 31.12 230.78 32.18 C228.6 33.17 228.6 33.17 226.88 34.69 C226.47 35.2 226.05 35.72 225.63 36.25 C224.46 39.74 224.42 42.64 224.31 46.33 C224.28 47.35 224.28 47.35 224.25 48.4 C224.18 50.58 224.12 52.76 224.07 54.94 C224.02 56.42 223.98 57.9 223.93 59.38 C223.83 63 223.73 66.63 223.63 70.25 C222.62 70.26 221.62 70.26 220.59 70.26 C216.85 70.29 213.11 70.34 209.38 70.4 C207.76 70.43 206.15 70.44 204.53 70.45 C202.2 70.46 199.88 70.5 197.55 70.54 C196.48 70.54 196.48 70.54 195.38 70.53 C193.03 70.55 193.03 70.55 189.63 71.25 C186.65 73.46 186.65 73.46 184.63 76.25 C183.68 79.09 183.51 80.81 183.51 83.74 C183.51 84.66 183.51 85.58 183.51 86.53 C183.52 87.54 183.53 88.54 183.53 89.58 C183.53 90.64 183.53 91.71 183.54 92.8 C183.54 95.11 183.54 97.42 183.55 99.72 C183.57 103.37 183.57 107.02 183.58 110.66 C183.59 118.4 183.61 126.14 183.63 133.88 C183.65 142.85 183.67 151.82 183.68 160.79 C183.69 164.39 183.7 167.99 183.72 171.6 C183.72 173.79 183.72 175.99 183.73 178.18 C183.73 179.19 183.74 180.2 183.74 181.24 C183.74 182.16 183.74 183.07 183.74 184.01 C183.74 184.81 183.75 185.61 183.75 186.43 C183.71 187.03 183.67 187.63 183.63 188.25 C183.3 188.58 182.97 188.91 182.63 189.25 C181.07 189.34 179.5 189.36 177.94 189.35 C177.09 189.35 176.24 189.34 175.36 189.34 C174.27 189.33 173.19 189.32 172.07 189.31 C170.2 189.3 168.34 189.29 166.48 189.28 C164.86 189.27 163.25 189.26 161.63 189.25 C155.74 165.82 150.81 142.18 145.77 118.56 C144.83 114.16 143.89 109.75 142.94 105.34 C142.02 101.03 141.1 96.72 140.17 92.41 C139.73 90.31 139.28 88.22 138.83 86.12 C134.73 67.01 134.73 67.01 133 57.76 C132.78 56.58 132.56 55.39 132.32 54.17 C131.94 52.11 131.58 50.06 131.23 48 C130.8 45.68 130.37 43.48 129.63 41.25 C127.8 38.7 127.8 38.7 125.63 37.25 C124.97 36.92 124.31 36.59 123.63 36.25 C120.67 36.14 117.74 36.09 114.79 36.08 C113.91 36.08 113.03 36.08 112.13 36.07 C110.27 36.07 108.41 36.07 106.55 36.07 C103.71 36.06 100.86 36.05 98.01 36.03 C96.21 36.02 94.4 36.02 92.6 36.02 C91.32 36.01 91.32 36.01 90.02 36 C87.88 36.01 85.76 36.12 83.63 36.25 C82.64 36.91 81.65 37.57 80.63 38.25 C77.13 38 77.13 38 73.63 37.25 C72.14 36.26 72.14 36.26 70.63 35.25 C68.34 34.94 68.34 34.94 65.78 34.98 C64.79 34.97 63.81 34.96 62.79 34.95 C61.2 34.95 61.2 34.95 59.57 34.95 C58.48 34.95 57.39 34.94 56.26 34.94 C53.94 34.93 51.63 34.93 49.31 34.94 C45.77 34.94 42.23 34.92 38.69 34.89 C36.45 34.89 34.2 34.89 31.95 34.89 C30.89 34.88 29.83 34.87 28.74 34.86 C26 34.88 23.35 34.94 20.63 35.25 C17.54 36.44 17.54 36.44 15.63 38.25 C15.3 38.91 14.97 39.57 14.63 40.25 C14.52 42.2 14.48 44.16 14.47 46.11 C14.46 47.98 14.46 47.98 14.44 49.89 C14.43 51.28 14.43 52.67 14.42 54.06 C14.41 55.52 14.4 56.98 14.39 58.44 C14.37 62.41 14.34 66.37 14.32 70.34 C14.3 74.48 14.28 78.63 14.25 82.77 C14.2 90.62 14.15 98.46 14.11 106.31 C14.06 115.25 14.01 124.18 13.95 133.11 C13.84 151.49 13.73 169.87 13.63 188.25 C3.73 188.25 -6.17 188.25 -16.37 188.25 C-16.44 164.74 -16.49 141.23 -16.53 117.71 C-16.54 106.79 -16.56 95.88 -16.6 84.96 C-16.63 75.45 -16.65 65.93 -16.65 56.42 C-16.66 51.38 -16.67 46.34 -16.69 41.3 C-16.71 36.56 -16.72 31.82 -16.71 27.08 C-16.71 25.33 -16.72 23.59 -16.73 21.85 C-16.74 19.48 -16.74 17.1 -16.73 14.72 C-16.74 14.03 -16.75 13.35 -16.76 12.63 C-16.74 10.69 -16.74 10.69 -16.37 7.25 C-15.22 4.41 -15.22 4.41 -13.37 2.25 C-8.82 0.33 -4.91 0 0 0 Z " fill="#EF6550" transform="translate(436.3717336654663,147.74831771850586)"/>
<path d="M0 0 C1.4 -0 2.79 -0.01 4.19 -0.01 C8.02 -0.02 11.85 -0.02 15.68 -0.02 C19.82 -0.02 23.95 -0.03 28.08 -0.04 C37.12 -0.05 46.16 -0.06 55.2 -0.06 C60.85 -0.06 66.49 -0.07 72.14 -0.07 C87.79 -0.08 103.44 -0.09 119.1 -0.1 C120.1 -0.1 121.1 -0.1 122.13 -0.1 C123.13 -0.1 124.14 -0.1 125.17 -0.1 C127.2 -0.1 129.24 -0.1 131.27 -0.1 C132.78 -0.1 132.78 -0.1 134.33 -0.1 C150.66 -0.1 166.99 -0.12 183.32 -0.15 C200.1 -0.17 216.88 -0.18 233.67 -0.18 C243.08 -0.18 252.5 -0.19 261.91 -0.21 C269.93 -0.22 277.96 -0.23 285.98 -0.22 C290.06 -0.22 294.15 -0.22 298.24 -0.23 C301.99 -0.24 305.74 -0.24 309.5 -0.23 C311.47 -0.23 313.45 -0.24 315.43 -0.25 C325.41 -0.2 335.59 0.82 345.09 4.08 C347.09 4.92 348.96 5.85 350.86 6.89 C351.52 7.24 352.19 7.59 352.87 7.95 C357.99 10.74 362.34 13.89 366.36 18.14 C366.95 18.71 367.53 19.28 368.14 19.86 C372.85 24.73 375.97 30.33 378.79 36.45 C383.95 48.26 385.53 60.39 386.36 73.14 C386.77 82.32 386.9 91.49 386.95 100.68 C386.97 104.22 387.04 107.76 387.12 111.3 C387.17 114.06 387.19 116.82 387.2 119.58 C387.21 121.51 387.26 123.45 387.32 125.38 C387.3 128.82 387.19 131.81 386.36 135.14 C384.07 138.16 381.48 140.05 378.36 142.14 C374.17 146.08 371.43 150.52 368.73 155.58 C363.96 165.16 361.66 175.55 360.36 186.14 C360.18 189.36 360.1 192.57 360.04 195.79 C360.01 197.14 360.01 197.14 359.98 198.52 C359.91 201.37 359.85 204.23 359.8 207.08 C359.75 209.02 359.71 210.96 359.66 212.91 C359.56 217.65 359.46 222.4 359.36 227.14 C355.95 226.06 352.76 224.98 349.66 223.19 C349.01 222.82 348.36 222.45 347.7 222.07 C347.03 221.68 346.36 221.29 345.67 220.89 C344.26 220.08 342.85 219.28 341.44 218.47 C340.75 218.08 340.06 217.68 339.35 217.28 C335.06 214.83 330.71 212.49 326.36 210.14 C329.31 206.07 332.31 202.14 335.73 198.45 C342.2 191.11 347 182.67 350.67 173.64 C354.59 163.57 357.06 153.01 357.47 142.2 C357.78 124.83 357.48 108.66 351.83 92.1 C347.54 80.21 341.07 70.11 333.08 60.37 C324.63 50.6 314.65 42.96 303.39 36.67 C293.35 31.61 282.67 28.22 271.55 26.58 C262.14 25.48 252.12 25.2 242.86 27.33 C236.02 29.35 230.01 32.35 224.11 36.33 C220.38 40.14 217.73 44.38 215.36 49.14 C213.89 53.37 214 57.84 213.97 62.28 C214.03 65.42 214.36 68.14 215.3 71.14 C216.5 73.61 217.81 75.86 219.36 78.14 C220.06 79.19 220.76 80.24 221.48 81.33 C225.99 86.32 232.31 89.52 238.18 92.64 C241.87 94.49 245.58 96.29 249.3 98.07 C258.46 102.43 266.83 106.67 274.12 113.89 C276.54 116.52 278.39 119.19 280.23 122.27 C281.51 125.65 281.67 128.98 281.8 132.58 C281.72 135.78 281.55 138.52 280.6 141.58 C279.65 143.56 278.6 145.33 277.36 147.14 C276.82 148.03 276.29 148.91 275.73 149.83 C272.72 152.76 269.48 154.33 265.7 156.12 C262.93 157.33 260.6 158.12 257.58 158.38 C256.54 158.4 255.5 158.43 254.42 158.45 C253.38 158.49 252.34 158.53 251.27 158.57 C249.83 158.36 249.83 158.36 248.36 158.14 C246.24 156.56 246.24 156.56 244.36 154.14 C242.9 151.82 241.52 149.52 240.17 147.14 C233.73 136.14 226.11 126.41 217.36 117.14 C216.74 116.46 216.11 115.79 215.47 115.09 C205.48 104.62 193.63 96.84 180.77 90.32 C163.36 81.83 144.64 76.23 125.36 74.14 C94.54 71.01 63.14 73.37 33.12 80.92 C27.45 82.38 21.8 83.89 16.15 85.45 C9.66 87.06 3.51 87.32 -3.14 87.33 C-4.07 87.34 -4.99 87.35 -5.94 87.37 C-6.84 87.37 -7.74 87.37 -8.67 87.37 C-9.48 87.38 -10.29 87.38 -11.13 87.38 C-13.64 87.14 -13.64 87.14 -19.64 85.14 C-18.98 80.52 -18.32 75.9 -17.64 71.14 C-16.41 71.1 -15.18 71.07 -13.92 71.03 C-12.28 70.96 -10.65 70.9 -9.02 70.83 C-8.21 70.81 -7.4 70.78 -6.57 70.76 C-2.64 70.58 0.19 70.21 3.88 68.72 C4.7 68.2 5.52 67.68 6.36 67.14 C6.69 66.48 7.02 65.82 7.36 65.14 C7.86 61.07 7.86 61.07 7.36 57.14 C6.75 56.4 6.14 55.66 5.51 54.9 C4.47 54.32 3.43 53.74 2.36 53.14 C-1.26 52.66 -4.81 52.76 -8.45 52.89 C-9.43 52.91 -10.41 52.93 -11.42 52.95 C-13.83 52.99 -16.23 53.06 -18.64 53.14 C-20.4 47.3 -21.7 41.42 -22.95 35.45 C-25.27 24.62 -27.88 13.87 -30.64 3.14 C-29.12 2.83 -27.6 2.51 -26.08 2.2 C-24.81 1.94 -24.81 1.94 -23.51 1.68 C-15.6 0.2 -8.06 -0.01 0 0 Z " fill="#00B1C3" transform="translate(401.64183044433594,415.85955810546875)"/>
<path d="M0 0 C6.25 1.71 12.32 3.82 18.38 6.12 C19.48 6.53 19.48 6.53 20.61 6.96 C22.4 7.64 24.2 8.32 26 9 C26.08 15.67 26.13 22.34 26.16 29.01 C26.18 31.28 26.2 33.55 26.23 35.81 C26.26 39.08 26.28 42.35 26.29 45.62 C26.31 46.62 26.32 47.63 26.34 48.66 C26.34 53.4 26.05 57.53 24.58 62.05 C23.69 64.51 22.78 66.34 21.35 68.56 C20.78 69.18 20.21 69.8 19.62 70.44 C19.06 71.08 18.5 71.71 17.91 72.37 C16 74 16 74 13.95 75.09 C9.89 76.34 6.13 76.28 1.91 76.25 C0.98 76.26 0.06 76.26 -0.89 76.26 C-4 76.27 -7.11 76.27 -10.21 76.26 C-12.46 76.26 -14.7 76.27 -16.95 76.27 C-23.12 76.28 -29.3 76.28 -35.48 76.28 C-41.46 76.27 -47.44 76.28 -53.41 76.29 C-67.15 76.3 -80.88 76.3 -94.61 76.3 C-105.22 76.3 -115.82 76.3 -126.43 76.31 C-127.95 76.31 -129.47 76.31 -131 76.31 C-133.29 76.31 -135.58 76.31 -137.88 76.31 C-159.21 76.32 -180.55 76.32 -201.89 76.32 C-203.09 76.32 -203.09 76.32 -204.32 76.32 C-208.4 76.32 -212.48 76.32 -216.56 76.32 C-217.77 76.32 -217.77 76.32 -219.01 76.32 C-220.65 76.32 -222.29 76.32 -223.93 76.32 C-249.42 76.31 -274.91 76.32 -300.4 76.34 C-329.03 76.36 -357.66 76.37 -386.28 76.36 C-389.34 76.36 -392.39 76.36 -395.44 76.36 C-396.19 76.36 -396.94 76.36 -397.72 76.36 C-409.07 76.36 -420.42 76.37 -431.77 76.38 C-444.68 76.39 -457.59 76.39 -470.49 76.38 C-477.08 76.37 -483.67 76.37 -490.26 76.38 C-496.29 76.4 -502.31 76.39 -508.34 76.38 C-510.53 76.38 -512.71 76.38 -514.9 76.39 C-517.86 76.4 -520.82 76.39 -523.78 76.37 C-524.64 76.38 -525.49 76.39 -526.37 76.4 C-528.62 76.38 -530.77 76.3 -533 76 C-536.44 74.63 -536.44 74.63 -539 73 C-541.09 70.73 -542.69 68.53 -544.25 65.88 C-544.5 65.26 -544.75 64.64 -545 64 C-545 63.01 -545 62.02 -545 61 C-544.15 60.58 -543.3 60.17 -542.42 59.74 C-534.49 55.75 -527.26 51.2 -520.06 46 C-503.33 34.04 -503.33 34.04 -494 31 C-482.88 28.19 -471.58 27.01 -460.19 25.94 C-458.88 25.81 -458.88 25.81 -457.55 25.68 C-441.81 24.16 -426.06 23.26 -410.26 22.68 C-392.51 22.33 -392.51 22.33 -375.3 18.56 C-374.13 18.05 -372.96 17.53 -371.75 17 C-370.55 16.48 -369.35 15.97 -368.11 15.44 C-366.41 14.65 -364.72 13.84 -363.09 12.93 C-361 12 -361 12 -358.86 11.74 C-357.69 11.73 -357.69 11.73 -356.5 11.72 C-355.6 11.71 -354.69 11.7 -353.77 11.69 C-352.78 11.69 -351.79 11.68 -350.78 11.68 C-349.73 11.67 -348.68 11.66 -347.59 11.65 C-344.07 11.62 -340.54 11.6 -337.01 11.59 C-334.49 11.57 -331.98 11.55 -329.46 11.53 C-323.33 11.48 -317.21 11.44 -311.09 11.41 C-306.12 11.38 -301.15 11.35 -296.18 11.32 C-280.69 11.23 -265.21 11.14 -249.73 11.07 C-239.37 11.03 -229.02 10.97 -218.66 10.91 C-205.46 10.83 -192.26 10.77 -179.05 10.73 C-172.52 10.71 -165.98 10.68 -159.45 10.64 C-153.32 10.6 -147.18 10.58 -141.05 10.58 C-138.81 10.58 -136.57 10.57 -134.34 10.55 C-117.53 10.41 -117.53 10.41 -111.27 11.87 C-108.72 12.77 -106.38 13.74 -104 15 C-103.04 15.5 -102.07 15.99 -101.08 16.5 C-100.33 17 -99.58 17.49 -98.81 18 C-97.91 18.6 -97 19.2 -96.07 19.81 C-93.76 21.46 -91.51 23.13 -89.28 24.88 C-79.86 32.2 -70.83 37.97 -59.48 41.86 C-54.49 43.18 -49.33 43.42 -44.18 43.31 C-38.48 42.75 -33.3 41.15 -28 39 C-23.06 36.61 -18.53 33.71 -14.38 30.12 C-9.55 24.99 -6.67 18.29 -3.81 11.93 C-2.18 8.05 -0.95 4.1 0 0 Z " fill="#00B1C3" transform="translate(772,683)"/>
<path d="M0 0 C146.52 0 293.04 0 444 0 C444.33 0.66 444.66 1.32 445 2 C445.09 4.27 445.12 6.54 445.12 8.81 C445.12 9.87 445.12 9.87 445.12 10.95 C445.12 13.34 445.12 15.72 445.11 18.11 C445.11 19.81 445.11 21.52 445.11 23.22 C445.11 27.86 445.11 32.5 445.1 37.14 C445.1 41.98 445.09 46.82 445.09 51.67 C445.09 60.84 445.08 70.02 445.07 79.2 C445.06 89.64 445.06 100.08 445.05 110.53 C445.04 132.02 445.02 153.51 445 175 C444.34 175.33 443.68 175.66 443 176 C441.08 176.06 439.16 176.06 437.24 176.03 C436.07 176.01 434.89 176 433.68 175.99 C432.42 175.97 431.17 175.95 429.88 175.94 C420.5 175.87 411.46 176.07 402.2 177.56 C398.76 178.03 395.46 178.03 392 178 C391.99 177.31 391.98 176.61 391.98 175.89 C391.9 169.25 391.81 162.6 391.71 155.96 C391.66 152.54 391.62 149.13 391.58 145.72 C391.34 112.98 391.34 112.98 383.69 81.42 C380.48 73.37 376.49 66.69 371 60 C370.31 59.15 369.62 58.29 368.91 57.41 C362.63 50.03 355.44 44.26 347.13 39.28 C337.85 34.35 327.36 30.81 317 29 C302.28 27.56 287.44 27.83 272.66 27.8 C268.99 27.79 265.33 27.78 261.66 27.76 C255.32 27.74 248.98 27.72 242.64 27.71 C233.48 27.69 224.32 27.66 215.16 27.63 C200.28 27.58 185.41 27.54 170.54 27.5 C156.11 27.46 141.67 27.42 127.24 27.37 C125.9 27.37 125.9 27.37 124.54 27.36 C120.06 27.35 115.59 27.34 111.12 27.32 C74.08 27.21 37.04 27.1 0 27 C0 18.09 0 9.18 0 0 Z " fill="#EF6550" transform="translate(420,362)"/>
<path d="M0 0 C14.52 0 29.04 0 44 0 C44 45.21 44 90.42 44 137 C22.22 136.5 22.22 136.5 0 136 C0 91.12 0 46.24 0 0 Z " fill="#00AFC1" transform="translate(685,200)"/>
<path d="M0 0 C8.44 0.82 17.27 2.78 25.09 6.08 C26.44 6.76 27.77 7.47 29.09 8.2 C29.88 8.62 30.68 9.04 31.49 9.47 C38.17 13.21 43.65 17.85 49.09 23.2 C50.14 24.24 50.14 24.24 51.22 25.29 C57.97 32.38 62.62 40.75 66.63 49.61 C70.24 58.5 72.08 67.14 72.46 76.74 C72.68 89.23 72.54 101.12 68.63 113.08 C64.82 123.61 59.53 132.75 52.45 141.4 C51.67 142.32 50.89 143.25 50.09 144.2 C49.5 144.92 48.9 145.64 48.29 146.38 C46.78 148.08 46.78 148.08 44.09 150.2 C41.88 150.07 41.88 150.07 39.09 149.2 C36.64 148.02 34.24 146.8 31.84 145.52 C24.64 141.78 17.33 138.98 9.64 136.43 C6.96 135.5 4.56 134.57 2.09 133.2 C2.7 132.97 3.3 132.74 3.93 132.5 C12.45 129.19 20.34 125.98 27.34 119.95 C31.72 115.79 35.3 111.58 38.09 106.2 C40.63 100.29 42.79 94.34 43.26 87.88 C43.31 81.78 42.9 76.05 41.09 70.2 C38.28 63.35 34.78 56.98 30.03 51.28 C22.55 43.27 13.52 38.51 3.88 33.59 C0.91 32.11 -2.06 30.64 -5.04 29.19 C-5.98 28.73 -5.98 28.73 -6.94 28.26 C-8.6 27.45 -10.26 26.66 -11.93 25.87 C-15.38 23.94 -17.98 21.86 -20.91 19.2 C-22.85 16.33 -22.85 16.33 -23.91 13.2 C-23.91 9.58 -23.91 9.58 -22.91 6.2 C-20.72 3.89 -20.72 3.89 -17.91 2.2 C-11.89 -0.13 -6.41 -0.38 0 0 Z " fill="#EB8B2E" transform="translate(662.90966796875,463.7958984375)"/>
<path d="M0 0 C9.57 0 19.14 0 29 0 C28.49 28.32 27.83 56.64 27.07 84.96 C27 87.37 26.94 89.78 26.87 92.19 C26.77 96.03 26.67 99.88 26.56 103.73 C26.52 105.15 26.48 106.57 26.45 108 C26.39 109.97 26.34 111.94 26.28 113.92 C26.24 115.58 26.24 115.58 26.19 117.27 C25.94 122.19 25.45 127.1 25 132 C16.75 132 8.5 132 0 132 C0 88.44 0 44.88 0 0 Z " fill="#00B4C5" transform="translate(473,205)"/>
<path d="M0 0 C10.56 0 21.12 0 32 0 C32.5 0.5 32.5 0.5 33 1 C33.1 3.98 33.13 6.94 33.11 9.93 C33.11 10.86 33.11 11.8 33.11 12.76 C33.11 15.88 33.11 18.99 33.1 22.1 C33.1 24.25 33.09 26.4 33.09 28.55 C33.09 34.22 33.08 39.9 33.07 45.57 C33.06 51.36 33.05 57.14 33.05 62.92 C33.04 74.28 33.02 85.64 33 97 C22.11 97 11.22 97 0 97 C0 64.99 0 32.98 0 0 Z " fill="#EF6550" transform="translate(753,238)"/>
<path d="M0 0 C7.26 0 14.52 0 22 0 C22.6 2.72 23.2 5.44 23.82 8.24 C25.83 17.37 27.84 26.49 29.85 35.61 C31.07 41.12 32.28 46.63 33.5 52.15 C34.67 57.48 35.85 62.81 37.03 68.14 C37.49 70.24 37.95 72.33 38.42 74.43 C40.65 84.54 42.89 94.64 45.28 104.71 C45.45 105.43 45.62 106.16 45.8 106.9 C46.57 110.16 47.36 113.42 48.16 116.67 C48.55 118.31 48.55 118.31 48.95 119.98 C49.29 121.38 49.29 121.38 49.64 122.8 C49.76 123.53 49.88 124.25 50 125 C49.67 125.66 49.34 126.32 49 127 C38.11 126.5 38.11 126.5 27 126 C22.1 105.96 17.4 85.87 12.86 65.74 C12.16 62.65 11.46 59.56 10.75 56.48 C0 9.33 0 9.33 0 0 Z " fill="#EE664F" transform="translate(526,209)"/>
<path d="M0 0 C2.9 0.15 4.83 0.6 7.62 1.56 C11 3.86 12.94 6.17 15.38 9.44 C16.38 11.44 16.38 11.44 16.75 14.44 C16.73 16.31 16.73 16.31 16.38 18.44 C15.26 21.04 13.97 23.5 12.62 25.99 C11.04 29.09 10.18 32.06 9.38 35.44 C14.49 34.03 19.38 32.52 24.19 30.25 C26.61 29.15 28.56 28.4 31.19 27.88 C31.91 28.06 32.63 28.25 33.38 28.44 C35.69 30.44 35.69 30.44 37.38 33.44 C37.88 36.2 37.82 38.67 37.38 41.44 C37.05 42.32 36.72 43.21 36.38 44.12 C34 46.87 31.49 48.55 28.41 50.42 C26.32 51.46 24.67 52.04 22.38 52.44 C17.68 52.79 13.07 52.85 8.38 52.44 C5.82 51.47 5.82 51.47 3.75 50.31 C2.64 49.69 1.52 49.08 0.38 48.44 C-1.56 49.19 -1.56 49.19 -3.62 50.44 C-6.9 51.73 -9.62 52.44 -13.14 52.74 C-19.88 52.76 -26.13 52.67 -32.53 50.43 C-35.81 48.88 -38.06 47 -40.62 44.44 C-41.62 42.44 -41.62 42.44 -42 39.19 C-41.81 37.33 -41.81 37.33 -41.62 35.44 C-40.75 33.64 -40.75 33.64 -39.56 32 C-38.59 31.15 -37.62 30.31 -36.62 29.44 C-33.38 29.12 -33.38 29.12 -29.62 29.44 C-26.09 30.5 -26.09 30.5 -22.56 31.88 C-18.22 33.56 -14.25 34.83 -9.62 35.44 C-10.64 31.12 -11.91 27.84 -14.25 24.06 C-15.62 21.68 -16.56 19.77 -17.09 17.07 C-17.19 14.74 -17.08 12.73 -16.62 10.44 C-15.12 7.12 -15.12 7.12 -12.62 4.44 C-8.67 1.57 -4.88 0.19 0 0 Z " fill="#01375C" transform="translate(284.625,478.5625)"/>
<path d="M0 0 C6.27 0 12.54 0 19 0 C19 31.02 19 62.04 19 94 C12.73 94 6.46 94 0 94 C0 62.98 0 31.96 0 0 Z " fill="#ED8F2D" transform="translate(642,242)"/>
<path d="M0 0 C-2.63 2.02 -5.31 3.82 -8.12 5.56 C-15.02 10.19 -20.68 15.81 -25.64 22.45 C-32.28 31.76 -36.73 41.29 -39.96 52.25 C-44.27 69.95 -44.29 88.87 -45 107 C-46.63 106.05 -48.25 105.09 -49.88 104.12 C-50.78 103.59 -51.68 103.06 -52.62 102.51 C-55 101 -55 101 -57 99 C-57.26 96.97 -57.26 96.97 -57.27 94.44 C-57.28 93.49 -57.29 92.54 -57.3 91.56 C-57.3 90.53 -57.3 89.49 -57.3 88.43 C-57.31 87.36 -57.31 86.29 -57.31 85.19 C-57.32 82.92 -57.32 80.64 -57.32 78.37 C-57.31 74.94 -57.34 71.51 -57.36 68.08 C-57.4 53.65 -56.74 40.35 -51.88 26.62 C-49.49 21.35 -46.34 17.26 -42.32 13.12 C-38.37 9.5 -34.45 7.14 -29.62 4.89 C-20.39 1.1 -9.94 -0.23 0 0 Z " fill="#00B7C7" transform="translate(842,560)"/>
<path d="M0 0 C18.31 0.5 18.31 0.5 37 1 C34.75 13.38 34.75 13.38 33.38 17.69 C32.98 18.93 32.98 18.93 32.59 20.2 C32.39 20.79 32.2 21.39 32 22 C19.31 23.64 6.82 25.22 -6 25 C-5.38 22.33 -4.75 19.67 -4.12 17 C-3.95 16.26 -3.78 15.51 -3.6 14.75 C-3.42 14 -3.25 13.26 -3.07 12.5 C-2.91 11.83 -2.76 11.16 -2.59 10.47 C-1.75 6.97 -0.87 3.49 0 0 Z " fill="#EB882E" transform="translate(207,860)"/>
<path d="M0 0 C1.01 3.58 2.01 7.17 3 10.75 C3.29 11.77 3.57 12.78 3.87 13.83 C4.14 14.81 4.41 15.79 4.69 16.8 C4.94 17.7 5.19 18.6 5.45 19.53 C6 22 6 22 6 26 C1.21 25.74 -3.57 25.47 -8.36 25.2 C-9.99 25.11 -11.62 25.02 -13.25 24.93 C-15.59 24.8 -17.93 24.67 -20.27 24.54 C-21.36 24.48 -21.36 24.48 -22.48 24.42 C-25.53 24.24 -28.08 23.97 -31 23 C-32.05 20.21 -32.91 17.55 -33.69 14.69 C-33.91 13.91 -34.14 13.14 -34.37 12.35 C-35.41 8.67 -36 5.89 -36 2 C-31.36 1.71 -26.71 1.43 -22.07 1.15 C-20.49 1.05 -18.91 0.95 -17.33 0.85 C-15.05 0.71 -12.78 0.58 -10.51 0.44 C-9.45 0.37 -9.45 0.37 -8.37 0.3 C-5.57 0.14 -2.8 0 0 0 Z " fill="#EA882E" transform="translate(815,859)"/>
<path d="M0 0 C1.95 0.27 1.95 0.27 4.25 0.81 C5.46 1.09 5.46 1.09 6.7 1.38 C9 2 9 2 12 3.19 C14.88 3.97 16.64 4.05 19.56 3.81 C21.87 3.54 21.87 3.54 24 3 C24.89 2.46 25.77 1.93 26.69 1.38 C27.45 0.92 28.21 0.47 29 0 C32.12 0 32.12 0 35 1 C36.88 3.19 36.88 3.19 38 6 C38.19 6.95 38.37 7.9 38.56 8.88 C38 12 38 12 37 13.8 C35.48 15.82 33.95 17.38 32 19 C28.78 21.01 25.7 22.16 22 23 C17.25 23.52 12.75 23.54 8 23 C5.38 22.33 3.23 21.53 0.84 20.26 C-0.98 19.01 -2.53 17.78 -4.06 16.19 C-4.7 15.14 -5.34 14.08 -6 13 C-6.56 9.44 -6.56 9.44 -6 6 C-4.12 3.12 -4.12 3.12 -2 1 C-1.34 0.67 -0.68 0.34 0 0 Z " fill="#02375C" transform="translate(216,453)"/>
<path d="M0 0 C5.53 0.75 5.53 0.75 7.94 2.02 C9.93 3.09 9.93 3.09 12.04 3.3 C15.33 3.32 18.24 3.23 21.41 2.29 C22.94 1.73 24.47 1.18 25.99 0.62 C28 0 28 0 30.88 0.06 C33 1 33 1 34.88 2.56 C35.25 3.37 35.62 4.17 36 5 C36.19 8.81 36.19 8.81 35.84 10.9 C35 13 35 13 33.32 15 C30.54 17.52 27.95 19.54 24.57 21.18 C20.9 22.35 17.61 22.33 13.78 22.24 C10.52 21.96 7.79 21.42 4.79 20.11 C2.74 18.84 1.17 17.49 -0.5 15.75 C-1.93 13.9 -1.93 13.9 -3 12 C-3.56 8.38 -3.56 8.38 -3 5 C-1.5 2.06 -1.5 2.06 0 0 Z " fill="#02375C" transform="translate(305,452)"/>
<path d="M0 0 C14.52 0 29.04 0 44 0 C44 45.21 44 90.42 44 137 C22.22 136.5 22.22 136.5 0 136 C0 91.12 0 46.24 0 0 Z M2 2 C1.67 2.33 1.34 2.66 1 3 C0.9 4.69 0.87 6.39 0.87 8.09 C0.87 9.19 0.87 10.29 0.86 11.43 C0.87 12.65 0.87 13.87 0.87 15.12 C0.87 16.4 0.87 17.68 0.87 18.99 C0.86 22.5 0.86 26.01 0.87 29.52 C0.87 33.19 0.87 36.85 0.86 40.52 C0.86 46.68 0.86 52.83 0.87 58.99 C0.88 66.12 0.87 73.25 0.87 80.37 C0.86 86.48 0.86 92.59 0.87 98.7 C0.87 102.36 0.87 106.01 0.86 109.66 C0.86 113.74 0.87 117.81 0.87 121.88 C0.87 123.1 0.87 124.32 0.86 125.57 C0.87 126.68 0.87 127.78 0.87 128.91 C0.87 129.88 0.87 130.84 0.87 131.83 C0.92 132.55 0.96 133.26 1 134 C1.33 134.33 1.66 134.66 2 135 C4.95 135.1 7.87 135.14 10.81 135.13 C11.7 135.13 12.58 135.13 13.49 135.14 C15.36 135.14 17.24 135.13 19.11 135.13 C21.99 135.13 24.86 135.13 27.74 135.14 C29.56 135.14 31.37 135.13 33.19 135.13 C34.49 135.14 34.49 135.14 35.81 135.14 C37.88 135.13 39.94 135.07 42 135 C42.33 134.67 42.66 134.34 43 134 C43.1 132.31 43.13 130.61 43.13 128.91 C43.13 127.81 43.13 126.71 43.14 125.57 C43.13 124.35 43.13 123.13 43.13 121.88 C43.13 120.6 43.13 119.32 43.13 118.01 C43.14 114.5 43.14 110.99 43.13 107.48 C43.13 103.81 43.13 100.15 43.14 96.48 C43.14 90.32 43.14 84.17 43.13 78.01 C43.12 70.88 43.13 63.75 43.13 56.63 C43.14 50.52 43.14 44.41 43.13 38.3 C43.13 34.64 43.13 30.99 43.14 27.34 C43.14 23.26 43.13 19.19 43.13 15.12 C43.13 13.9 43.13 12.68 43.14 11.43 C43.13 10.32 43.13 9.22 43.13 8.09 C43.13 7.12 43.13 6.16 43.13 5.17 C43.08 4.45 43.04 3.74 43 3 C42.5 2.5 42.5 2.5 42 2 C39.05 1.9 36.13 1.86 33.19 1.87 C32.3 1.87 31.42 1.87 30.51 1.86 C28.64 1.86 26.76 1.87 24.89 1.87 C22.01 1.87 19.14 1.87 16.26 1.86 C14.44 1.86 12.63 1.87 10.81 1.87 C9.51 1.86 9.51 1.86 8.19 1.86 C6.12 1.87 4.06 1.93 2 2 Z " fill="#04EFF5" transform="translate(685,200)"/>
<path d="M0 0 C0.33 0 0.66 0 1 0 C1.27 1.28 1.53 2.56 1.81 3.88 C2.8 8.64 3.8 13.4 4.79 18.15 C5.22 20.21 5.65 22.27 6.08 24.33 C6.7 27.29 7.32 30.24 7.93 33.2 C8.13 34.12 8.32 35.04 8.51 35.99 C8.78 37.28 8.78 37.28 9.06 38.6 C9.22 39.35 9.38 40.11 9.54 40.89 C9.99 42.93 10.49 44.97 11 47 C7.04 47 3.08 47 -1 47 C-1.21 13.29 -1.21 13.29 0 0 Z " fill="#E9694C" transform="translate(522,289)"/>
<path d="M0 0 C0.33 0 0.66 0 1 0 C1 32.67 1 65.34 1 99 C7.27 99.33 13.54 99.66 20 100 C22.31 100.99 24.62 101.98 27 103 C28.94 105.31 28.94 105.31 30 108 C30.44 111 30.44 111 30 114 C28.31 116.75 28.31 116.75 26 119 C23.72 120.18 21.64 120.92 19.1 121.25 C16.96 121.42 14.83 121.53 12.69 121.62 C11.95 121.66 11.21 121.7 10.44 121.74 C8.63 121.84 6.81 121.92 5 122 C5.33 123.32 5.66 124.64 6 126 C13.59 126 21.18 126 29 126 C29.5 126.99 29.5 126.99 30 128 C21.42 128 12.84 128 4 128 C3.01 125.03 2.02 122.06 1 119 C2.54 118.96 4.08 118.93 5.67 118.89 C7.7 118.82 9.72 118.75 11.75 118.69 C12.77 118.66 13.78 118.64 14.83 118.62 C15.81 118.58 16.79 118.55 17.8 118.51 C19.15 118.47 19.15 118.47 20.53 118.43 C23.07 118.13 23.07 118.13 25.29 116.71 C25.86 116.15 26.42 115.58 27 115 C27.53 111.39 27.53 111.39 27.53 109.04 C27.08 106.87 27.08 106.87 25.55 104.79 C24.29 103.9 24.29 103.9 23 103 C19.88 102.39 16.8 102.35 13.62 102.31 C11.95 102.27 10.28 102.22 8.6 102.18 C7.86 102.16 7.12 102.15 6.36 102.14 C3.53 101.97 0.79 101.48 -2 101 C-1.89 87.98 -1.78 74.96 -1.66 61.94 C-1.61 55.89 -1.55 49.85 -1.5 43.8 C-1.46 37.97 -1.4 32.14 -1.35 26.31 C-1.33 24.08 -1.31 21.85 -1.29 19.63 C-1.27 16.51 -1.24 13.4 -1.21 10.29 C-1.2 9.36 -1.19 8.43 -1.19 7.47 C-1.16 5.31 -1.09 3.16 -1 1 C-0.67 0.67 -0.34 0.34 0 0 Z " fill="#F2AF26" transform="translate(168,380)"/>
<path d="M0 0 C0.33 0.99 0.66 1.98 1 3 C36.31 3 71.62 3 108 3 C108 3.33 108 3.66 108 4 C99.14 4.78 90.33 5.19 81.43 5.32 C80.17 5.34 78.91 5.36 77.61 5.38 C74.24 5.43 70.88 5.48 67.51 5.53 C65.43 5.56 63.35 5.59 61.26 5.63 C39.84 5.96 18.42 6.15 -3 6 C-2.01 4.02 -1.02 2.04 0 0 Z " fill="#FBBB21" transform="translate(423,667)"/>
<path d="M0 0 C1.01 3.58 2.01 7.17 3 10.75 C3.29 11.77 3.57 12.78 3.87 13.83 C4.14 14.81 4.41 15.79 4.69 16.8 C4.94 17.7 5.19 18.6 5.45 19.53 C6 22 6 22 6 26 C1.21 25.74 -3.57 25.47 -8.36 25.2 C-9.99 25.11 -11.62 25.02 -13.25 24.93 C-15.59 24.8 -17.93 24.67 -20.27 24.54 C-21.36 24.48 -21.36 24.48 -22.48 24.42 C-25.53 24.24 -28.08 23.97 -31 23 C-31.95 20.89 -31.95 20.89 -32.69 18.25 C-32.94 17.39 -33.19 16.53 -33.45 15.64 C-34 13.01 -34.1 10.68 -34 8 C-32.49 10.85 -31.37 13.68 -30.38 16.75 C-30.11 17.55 -29.85 18.35 -29.59 19.17 C-29.39 19.78 -29.2 20.38 -29 21 C-18.25 22.47 -7.85 23.28 3 23 C2.74 21.54 2.46 20.08 2.19 18.62 C2.04 17.81 1.89 17 1.73 16.16 C0.7 11.72 -0.69 7.37 -2 3 C-13.22 3.33 -24.44 3.66 -36 4 C-36 3.34 -36 2.68 -36 2 C-31.36 1.71 -26.71 1.43 -22.07 1.15 C-20.49 1.05 -18.91 0.95 -17.33 0.85 C-15.05 0.71 -12.78 0.58 -10.51 0.44 C-9.45 0.37 -9.45 0.37 -8.37 0.3 C-5.57 0.14 -2.8 0 0 0 Z " fill="#F5B225" transform="translate(815,859)"/>
<path d="M0 0 C18.31 0.5 18.31 0.5 37 1 C34.75 13.38 34.75 13.38 33.38 17.69 C32.98 18.93 32.98 18.93 32.59 20.2 C32.39 20.79 32.2 21.39 32 22 C19.3 23.64 6.83 25.17 -6 25 C-5.01 21.04 -4.02 17.08 -3 13 C-2.67 14.32 -2.34 15.64 -2 17 C-2.27 19.01 -2.59 21.01 -3 23 C1.36 22.72 5.71 22.42 10.06 22.12 C11.29 22.05 12.52 21.97 13.79 21.89 C19.78 21.47 25.32 21.01 31 19 C31.53 17.09 32.05 15.17 32.56 13.25 C32.85 12.18 33.14 11.12 33.44 10.02 C33.63 9.02 33.81 8.03 34 7 C33.5 5.02 33.5 5.02 33 3 C22.77 2.67 12.54 2.34 2 2 C1.34 3.98 0.68 5.96 0 8 C-0.56 6.25 -0.56 6.25 -1 4 C-0.67 2.68 -0.34 1.36 0 0 Z " fill="#F9B823" transform="translate(207,860)"/>
<path d="M0 0 C1.58 0.45 3.17 0.91 4.75 1.38 C5.63 1.63 6.51 1.89 7.42 2.15 C9.76 2.92 11.83 3.84 14 5 C13.01 5.33 12.02 5.66 11 6 C8.74 5.44 8.74 5.44 6.31 4.56 C5.5 4.28 4.7 3.99 3.86 3.69 C3.25 3.46 2.63 3.24 2 3 C1.71 3.81 1.42 4.62 1.12 5.46 C-2.04 14 -5.19 22.46 -11.1 29.51 C-14.92 33.49 -18.92 37.21 -23.74 39.94 C-29.34 42.57 -34.99 44.64 -41.2 45.2 C-46.15 45.45 -51.06 45.47 -56 45 C-56.99 44.34 -57.98 43.68 -59 43 C-57.85 43.05 -56.7 43.09 -55.52 43.14 C-48.14 43.35 -41.15 43.45 -34 41.38 C-27.38 39 -21.77 35.75 -16.11 31.62 C-13.59 29.44 -11.69 27.15 -9.98 24.29 C-5.68 16.56 -2 8.65 0 0 Z " fill="#03DDE6" transform="translate(772,683)"/>
<path d="M0 0 C0.33 0 0.66 0 1 0 C2.8 11.16 3.75 22.3 4.56 33.56 C4.69 35.27 4.82 36.97 4.94 38.68 C5.19 41.95 5.43 45.22 5.67 48.5 C6.1 54.33 6.55 60.17 7 66 C6.67 66 6.34 66 6 66 C3.31 53.64 2.17 41.42 1.38 28.81 C1.19 26.05 1.01 23.28 0.82 20.52 C0.71 18.81 0.6 17.11 0.49 15.41 C0.24 11.52 -0.1 7.8 -1 4 C-6.8 6.84 -10.8 10.53 -15.28 15.17 C-15.85 15.78 -16.41 16.38 -17 17 C-17.66 16.67 -18.32 16.34 -19 16 C-13.17 9.84 -7.45 4.17 0 0 Z " fill="#F2AE27" transform="translate(341,362)"/>
<path d="M0 0 C2.06 0.5 2.06 0.5 5 2 C7.77 4.4 10.08 6.87 12 10 C12.06 13.75 12.06 13.75 11 17 C10.35 18.34 9.69 19.68 9 21 C8.25 20.9 7.5 20.81 6.73 20.71 C5.26 20.54 5.26 20.54 3.75 20.38 C2.29 20.2 2.29 20.2 0.8 20.02 C-0.59 20.01 -0.59 20.01 -2 20 C-4.29 20.71 -4.29 20.71 -6 22 C-6.33 22.78 -6.66 23.57 -7 24.38 C-7 25.24 -7 26.11 -7 27 C-5.5 29.33 -5.5 29.33 -3 31 C0.13 32.27 0.13 32.27 3 33 C2.38 35.19 2.38 35.19 1 38 C-1.07 40.23 -2.42 41.57 -5 43 C-7.25 43.69 -9.26 44 -11.61 44.15 C-15.67 43.89 -19.27 42.56 -23 41 C-22.67 40.34 -22.34 39.68 -22 39 C-21.29 39.32 -20.58 39.64 -19.84 39.98 C-16.89 41.04 -14.63 41.33 -11.5 41.38 C-8.65 41.39 -8.65 41.39 -6 41 C-2.85 39.23 -2.85 39.23 -1 37 C-1.33 36.01 -1.66 35.02 -2 34 C-2.99 33.42 -3.98 32.85 -5 32.25 C-5.99 31.51 -6.98 30.76 -8 30 C-8.39 28.87 -8.78 27.73 -9.19 26.56 C-9.13 25.39 -9.06 24.21 -9 23 C-8.44 22.03 -7.89 21.06 -7.31 20.06 C-5.67 19.04 -5.67 19.04 -4 18 C0.04 17.59 3.96 17.71 8 18 C9.16 15.89 9.16 15.89 9.62 12.88 C9.42 11.6 9.21 10.32 9 9 C6.82 6.6 4.5 4.62 1.97 2.6 C1.32 2.07 0.67 1.54 0 1 C0 0.67 0 0.34 0 0 Z " fill="#F5B125" transform="translate(742,661)"/>
<path d="M0 0 C0.33 0 0.66 0 1 0 C1 14.19 1 28.38 1 43 C-0.98 42.34 -2.96 41.68 -5 41 C-5.33 40.34 -5.66 39.68 -6 39 C-4.68 39 -3.36 39 -2 39 C-1.97 38.07 -1.95 37.13 -1.92 36.17 C-1.83 32.69 -1.73 29.2 -1.63 25.71 C-1.58 24.21 -1.54 22.7 -1.5 21.2 C-1.44 19.03 -1.38 16.86 -1.32 14.68 C-1.26 12.73 -1.26 12.73 -1.21 10.73 C-1 7.08 -0.57 3.61 0 0 Z " fill="#02D3DE" transform="translate(760,600)"/>
<path d="M0 0 C0.33 0 0.66 0 1 0 C1.16 0.61 1.32 1.23 1.48 1.86 C1.71 2.67 1.95 3.48 2.19 4.31 C2.52 5.51 2.52 5.51 2.86 6.74 C3.23 7.48 3.61 8.23 4 9 C6 10.94 6 10.94 9 12 C12.27 12.48 15.51 12.6 18.81 12.69 C19.7 12.72 20.58 12.76 21.49 12.79 C23.66 12.87 25.83 12.94 28 13 C27.67 15.64 27.34 18.28 27 21 C22.71 20.67 18.42 20.34 14 20 C14 19.67 14 19.34 14 19 C17.63 19 21.26 19 25 19 C25 18.01 25 17.02 25 16 C24.07 15.96 23.14 15.93 22.18 15.89 C10.81 15.28 10.81 15.28 6.88 13.75 C4 12 4 12 1.56 9.75 C0.79 8.39 0.79 8.39 0 7 C-0.25 3.19 -0.25 3.19 0 0 Z " fill="#F4A927" transform="translate(333,482)"/>
<path d="M0 0 C9.57 0 19.14 0 29 0 C29 16.1 29 16.1 28.5 23.88 C28.43 25.07 28.43 25.07 28.36 26.29 C28.24 28.19 28.12 30.1 28 32 C27.67 32 27.34 32 27 32 C26.5 16.66 26.5 16.66 26 1 C17.42 1 8.84 1 0 1 C0 0.67 0 0.34 0 0 Z " fill="#02CCD9" transform="translate(473,205)"/>
<path d="M0 0 C0.33 0.66 0.66 1.32 1 2 C-2.58 9.22 -7.74 15.22 -13.28 21 C-13.85 21.66 -14.41 22.32 -15 23 C-15 23.66 -15 24.32 -15 25 C-10.05 27.64 -5.1 30.28 0 33 C-0.99 33.5 -0.99 33.5 -2 34 C-3.79 33.29 -3.79 33.29 -5.91 32.13 C-6.67 31.72 -7.44 31.31 -8.22 30.89 C-9.01 30.45 -9.81 30.01 -10.62 29.56 C-11.43 29.13 -12.23 28.69 -13.05 28.25 C-15.04 27.17 -17.02 26.09 -19 25 C-15.98 20.87 -12.93 16.86 -9.5 13.06 C-5.87 9 -2.91 4.6 0 0 Z " fill="#03DCE5" transform="translate(747,601)"/>
<path d="M0 0 C0.66 0.33 1.32 0.66 2 1 C0.4 1.98 -1.21 2.96 -2.81 3.94 C-3.71 4.48 -4.6 5.03 -5.52 5.59 C-8 7 -8 7 -11 8 C-11 8.66 -11 9.32 -11 10 C-6.71 11.65 -2.42 13.3 2 15 C1.67 15.66 1.34 16.32 1 17 C-1.75 16.04 -4.5 15.09 -7.25 14.12 C-8.03 13.86 -8.8 13.59 -9.61 13.31 C-10.36 13.04 -11.11 12.78 -11.89 12.51 C-12.58 12.27 -13.27 12.03 -13.99 11.78 C-16.07 10.97 -18.02 10.03 -20 9 C-19.39 8.77 -18.79 8.54 -18.16 8.3 C-12.59 6.13 -7.3 3.7 -2.03 0.86 C-1.36 0.57 -0.69 0.29 0 0 Z " fill="#F4B125" transform="translate(685,588)"/>
<path d="M0 0 C4.58 1.45 8.98 3.21 13.38 5.12 C14.02 5.4 14.66 5.68 15.32 5.96 C16.88 6.64 18.44 7.32 20 8 C16.79 8.95 13.92 9.12 10.58 9.1 C9.55 9.09 8.53 9.09 7.47 9.09 C6.41 9.08 5.35 9.07 4.25 9.06 C3.17 9.06 2.09 9.05 0.98 9.05 C-1.68 9.04 -4.34 9.02 -7 9 C-7 8.67 -7 8.34 -7 8 C-5.61 7.93 -5.61 7.93 -4.19 7.85 C-2.99 7.78 -1.8 7.7 -0.56 7.62 C0.63 7.56 1.83 7.49 3.06 7.41 C4.03 7.28 5 7.14 6 7 C6.33 6.34 6.66 5.68 7 5 C4.69 3.68 2.38 2.36 0 1 C0 0.67 0 0.34 0 0 Z " fill="#EAA02B" transform="translate(525,663)"/>
<path d="M0 0 C0.33 0 0.66 0 1 0 C1.66 1.98 2.32 3.96 3 6 C3.88 6.03 3.88 6.03 4.77 6.06 C7.43 6.16 10.09 6.27 12.75 6.38 C13.67 6.41 14.59 6.44 15.54 6.47 C16.43 6.51 17.32 6.55 18.23 6.59 C19.05 6.62 19.87 6.65 20.71 6.68 C23 7 23 7 25.17 7.84 C25.78 8.22 26.38 8.61 27 9 C27.99 10.49 27.99 10.49 29 12 C28.67 12.99 28.34 13.98 28 15 C27.38 14.2 26.76 13.39 26.12 12.56 C25.42 11.72 24.72 10.87 24 10 C23.34 9.67 22.68 9.34 22 9 C20.42 8.93 18.83 8.92 17.25 8.94 C15.84 8.95 15.84 8.95 14.41 8.96 C12.94 8.98 12.94 8.98 11.44 9 C9.5 9.03 7.56 9.05 5.62 9.06 C4.76 9.07 3.9 9.09 3.01 9.1 C2.01 9.05 2.01 9.05 1 9 C0.67 8.67 0.34 8.34 0 8 C-0.14 5.33 -0.04 2.68 0 0 Z " fill="#04E4EC" transform="translate(382,460)"/>
<path d="M0 0 C0.66 0.33 1.32 0.66 2 1 C2.19 3.8 2.32 6.24 2 9 C0.38 11.88 0.38 11.88 -2 14 C-6.21 15.87 -10.44 16.45 -15 17 C-14.34 18.98 -13.68 20.96 -13 23 C-14.71 21.38 -16.37 19.71 -18 18 C-18.33 17.01 -18.66 16.02 -19 15 C-17.88 14.84 -16.76 14.68 -15.61 14.52 C-14.13 14.29 -12.66 14.05 -11.19 13.81 C-10.45 13.71 -9.71 13.61 -8.95 13.51 C-6.49 13.14 -6.49 13.14 -3 12 C-0.88 9.75 -0.88 9.75 0 7 C0.25 3.29 0.25 3.29 0 0 Z " fill="#F6B324" transform="translate(200,510)"/>
<path d="M0 0 C0.33 0 0.66 0 1 0 C1.33 2.64 1.66 5.28 2 8 C0.69 8.04 -0.63 8.07 -1.98 8.11 C-3.72 8.18 -5.45 8.25 -7.19 8.31 C-8.05 8.34 -8.92 8.36 -9.81 8.38 C-12.24 8.48 -14.59 8.63 -17 9 C-19.92 10.33 -19.92 10.33 -22 12 C-22.99 12.5 -22.99 12.5 -24 13 C-23.25 11.12 -23.25 11.12 -22 9 C-20.47 7.91 -20.47 7.91 -18 7 C-15.09 6.62 -12.18 6.49 -9.25 6.38 C-8.46 6.34 -7.66 6.3 -6.85 6.26 C-4.9 6.16 -2.95 6.08 -1 6 C-0.67 4.02 -0.34 2.04 0 0 Z " fill="#FABA22" transform="translate(358,469)"/>
<path d="M0 0 C0.33 0 0.66 0 1 0 C1.51 2.37 2.01 4.75 2.5 7.12 C2.64 7.79 2.79 8.46 2.93 9.14 C3.76 13.16 4.15 16.9 4 21 C2 19 2 19 1 17 C0.67 17 0.34 17 0 17 C0 11.39 0 5.78 0 0 Z " fill="#E78236" transform="translate(522,289)"/>
<path d="M0 0 C1.24 0.68 1.24 0.68 2.5 1.38 C6.35 3.16 9.87 4.07 14 5 C12.99 7.25 12.06 8.94 10.38 10.75 C9.92 11.16 9.47 11.58 9 12 C8.34 11.67 7.68 11.34 7 11 C7.99 9.68 8.98 8.36 10 7 C9.36 6.75 8.72 6.49 8.07 6.23 C7.24 5.89 6.41 5.54 5.56 5.19 C4.74 4.85 3.92 4.51 3.07 4.17 C2.38 3.78 1.7 3.4 1 3 C0.67 2.01 0.34 1.02 0 0 Z " fill="#F7B524" transform="translate(342,515)"/>
<path d="M0 0 C0.33 0 0.66 0 1 0 C1 9.24 1 18.48 1 28 C-0.65 27.01 -2.3 26.02 -4 25 C-3.01 24.67 -2.02 24.34 -1 24 C-0.67 16.08 -0.34 8.16 0 0 Z " fill="#04EBF2" transform="translate(796,639)"/>
<path d="M0 0 C-2.88 2.24 -5.77 4.3 -9 6 C-9.66 5.67 -10.32 5.34 -11 5 C-10.67 4.34 -10.34 3.68 -10 3 C-11.32 2.34 -12.64 1.68 -14 1 C-4.59 -0.15 -4.59 -0.15 0 0 Z " fill="#04E3EB" transform="translate(842,560)"/>
<path d="M0 0 C2.06 0.44 2.06 0.44 4 1 C3.67 3.31 3.34 5.62 3 8 C-1.29 7.67 -5.58 7.34 -10 7 C-10 6.67 -10 6.34 -10 6 C-6.37 6 -2.74 6 1 6 C1 5.01 1 4.02 1 3 C0.34 2.34 -0.32 1.68 -1 1 C-0.67 0.67 -0.34 0.34 0 0 Z " fill="#FCBD21" transform="translate(357,495)"/>
<path d="M0 0 C0.33 0 0.66 0 1 0 C1.22 1.42 1.22 1.42 1.44 2.88 C1.95 3.91 2.47 4.94 3 6 C5.94 7.16 8.87 7.63 12 8 C12 8.33 12 8.66 12 9 C10.19 9.03 8.38 9.05 6.56 9.06 C5.55 9.07 4.54 9.09 3.5 9.1 C2.68 9.07 1.85 9.03 1 9 C0.67 8.67 0.34 8.34 0 8 C-0.14 5.33 -0.04 2.68 0 0 Z " fill="#03D7E1" transform="translate(382,460)"/>
<path d="M0 0 C0.99 0.33 1.98 0.66 3 1 C1.68 2.32 0.36 3.64 -1 5 C-1.66 4.67 -2.32 4.34 -3 4 C-2.01 2.68 -1.02 1.36 0 0 Z " fill="#EE982B" transform="translate(321,379)"/>
</svg>
