<svg xmlns="http://www.w3.org/2000/svg" width="1024" height="1024" version="1.1"><path fill="#EB882F" fill-rule="evenodd" d="M206.095 885.103c-4.5-1.213-4.715-3.128-1.587-14.132 1.767-6.215 3.5-10.422 4.445-10.787 1.958-.756 5.738-.736 19.926.108 6.258.372 11.996 1.189 12.75 1.815 1.665 1.382 1.71 3.216.245 10.047-.699 3.257-2.13 6.257-3.768 7.894l-2.642 2.642-11.482 1.19c-6.315.655-12.382 1.344-13.482 1.53-1.1.188-3.082.05-4.405-.307m590.717-1.095c-5.015-.402-9.678-1.345-11.028-2.23-1.675-1.097-3.02-3.884-4.728-9.798l-2.388-8.264 1.636-1.196c.912-.667 8.406-1.682 16.916-2.292 12.223-.875 15.542-.839 16.59.184.72.703 2.675 5.862 4.346 11.465 3.751 12.583 3.47 13.187-6.028 12.976-3.646-.081-10.538-.461-15.316-.845m-590.49-163.39c-6.131-5.16-7.912-13.596-4.798-22.735.838-2.46 3.576-6.818 6.083-9.684 4.814-5.502 16.508-14.708 22.393-17.626 5.81-2.881 16.032-6.248 24.5-8.07 9.2-1.98 55.25-14.095 73-19.205 16.558-4.768 20.5-8.073 20.5-17.189 0-4.755-3.257-8.109-7.877-8.109-3.081 0-16.152 3.307-47.623 12.05-18.087 5.025-42.818 10.95-45.706 10.95-3.28 0-13.63-11.257-18.002-19.579-2-3.807-4.384-10.071-5.3-13.921-2.223-9.352-2.298-25.196-.158-33.33.916-3.483 1.666-7.123 1.666-8.09 0-1.12-4.191-4.637-11.519-9.67-6.335-4.35-12.76-8.81-14.275-9.91-4.128-2.995-16.206-16.452-16.206-18.056 0-1.958 3.776-4.172 8.5-4.982 2.2-.378 5.012-1.321 6.25-2.097 1.769-1.11 2.25-2.336 2.25-5.733 0-6.87-1.649-7.726-14.573-7.555l-10.842.142-2.331-2.71c-3.965-4.61-1.42-5.847 14.203-6.9 4.704-.317 6.346-.882 7.807-2.687 1.436-1.773 1.704-3.197 1.195-6.353-.36-2.238-1.268-4.71-2.016-5.492-.749-.783-3.067-1.396-5.152-1.363-6.134.097-21.31-1.934-21.928-2.936-.53-.857-.43-70.47.133-93.514.278-11.396 1.687-16.264 4.707-16.264 2.539 0 12.465 5.834 19.65 11.55 15.11 12.019 17.815 14.332 22.656 19.365l5.208 5.415 10.891-1.214c5.99-.668 15.236-1.71 20.546-2.314 11.177-1.275 19.642-.75 45.088 2.796 3.15.438 5.234.252 6.208-.556.806-.67 4.522-5.552 8.258-10.85 3.736-5.297 11.092-14.033 16.348-19.412 7.353-7.524 10.17-9.78 12.215-9.78 1.532 0 3.065.76 3.618 1.792 1.38 2.578 3.139 16.513 3.186 25.236.087 15.994 2.391 29.349 9.392 54.44 3.108 11.139 5.71 25.91 4.924 27.956-.796 2.075-6.602 3.564-13.918 3.57-7.684.008-10.473 1.776-10.473 6.64 0 2.557.8 4.32 2.923 6.443l2.923 2.923h6.627c7.423 0 12.527 1.998 12.527 4.903 0 2.732-2.11 4.026-7.6 4.66-8.914 1.03-9.265 1.201-9.952 4.86-.956 5.096 1.23 8.811 5.823 9.895 5.11 1.207 6.318 3.663 3.54 7.196-1.181 1.5-3.759 3.392-5.729 4.203-4.743 1.953-8.085 5.145-8.068 7.707.027 4.148 1.298 6.686 4.063 8.116 3.927 2.03 11.804 1.855 15.127-.337 3.767-2.484 12.047-11.126 14.277-14.901 2.81-4.757 5.323-5.724 11.453-4.41 2.84.61 9.08 1.107 13.865 1.105 8.85-.003 26.447-2.84 33.701-5.432 8.761-3.13 25.203-6.574 41-8.586 9.904-1.261 40.092-1.186 48.731.12 23.284 3.524 42.318 9.229 55.718 16.7 8.32 4.64 22.055 16.09 29.114 24.272 6.916 8.017 20.937 29.096 20.937 31.476 0 .662 1.594 4.701 3.542 8.977 1.949 4.275 4.017 9.986 4.597 12.69.758 3.531 1.662 5.152 3.208 5.751 1.184.459 8.678 2.936 16.653 5.506 14.123 4.551 19.447 7.017 64.26 29.765 8.382 4.255 15.713 7.742 16.291 7.75 1.996.027 13.09 7.842 16.265 11.457 3.682 4.194 4.12 8.18 1.28 11.686l-1.903 2.351-5.97-.295c-4.473-.222-6.377.111-7.596 1.33-1.695 1.696-2.128 5.227-.862 7.033.404.577 2.197 2.07 3.985 3.318s3.25 3.1 3.25 4.113c0 2.705-5.332 6.732-9.944 7.511-2.207.373-5.465.36-7.24-.03-4.564-1.003-14.952-6.756-24.316-13.469-19.877-14.248-29.205-20.085-42.5-26.598-22.217-10.884-24.111-11.274-60-12.375-18.805-.577-32.22-1.452-37-2.415-10.26-2.065-22.177-6.745-28.788-11.304-3.03-2.09-6.94-4.769-8.687-5.954-3.54-2.4-12.792-15.47-15.616-22.058-2.958-6.9-5.909-20.928-5.915-28.116-.007-8.648-1.435-13.586-4.663-16.126-3.335-2.623-10.37-2.788-12.555-.295-4.12 4.699-4.776 7.79-4.764 22.45.007 9.036.52 16.14 1.391 19.3 3.646 13.216 12.146 27.024 23.911 38.842 7.26 7.293 12.717 11.452 24.936 19.004 1.513.935 2.75 2.146 2.75 2.692 0 .545-1.462 1.91-3.25 3.035l-3.25 2.043-7.5-.543c-4.125-.298-21.9-.195-39.5.23-36.936.892-54.822.304-56.999-1.873l-1.45-1.45 1.475-4.899c.81-2.694 1.474-8.147 1.474-12.117 0-8.39-2.582-21.184-4.786-23.714-.947-1.088-2.951-1.75-5.296-1.75-2.885 0-4.26.62-5.846 2.635-1.14 1.45-2.594 4.377-3.232 6.504-.893 2.98-.87 5.49.101 10.92 1.391 7.782.87 12.432-2.03 18.117-3.005 5.888-7.3 10.189-13.09 13.105l-5.321 2.681-14.5 1.04c-7.975.57-18.775 1.454-24 1.96-5.225.508-15.8 1.444-23.5 2.08-28.778 2.38-46.941 4.827-55.27 7.446-6.582 2.07-11.076 4.524-22 12.018-22.864 15.682-24.968 16.847-31.24 17.301l-5.586.404zM692.405 607.62c-6.101-2.95-12.703-5.893-14.67-6.542-4.17-1.377-5.997-3.23-5.209-5.285.308-.804 3.028-2.484 6.045-3.734 3.718-1.54 7.835-4.574 12.784-9.416 11.39-11.145 15.42-21.73 14.323-37.626-.597-8.662-2.857-16.36-6.532-22.249-1.121-1.797-5.326-6.49-9.342-10.427l-7.304-7.158-16.5-8.208c-16.291-8.104-22.677-12.642-25.582-18.175-.78-1.486-1.418-3.528-1.418-4.538s1.237-3.304 2.75-5.095c2.034-2.41 4.3-3.658 8.7-4.796 6.255-1.617 8.943-1.47 23.05 1.264 8.326 1.613 19.338 6.49 28.147 12.466 7.336 4.977 18.76 18.216 23.397 27.112 11.373 21.825 13.608 42.754 7.284 68.207-3.56 14.328-20.879 39.604-27.113 39.57-.943-.004-6.708-2.421-12.81-5.37m119.262-69.287c-.848-.847-.865-5.654-.028-7.835.51-1.329.81-1.396 1.485-.332.465.734.852 3.021.86 5.084.015 3.53-.794 4.606-2.317 3.083m14.408-.286c-.917-.567-.783-.945.508-1.44.963-.37 2.156-.268 2.651.227 1.186 1.186-1.521 2.224-3.159 1.213m8.49-.942c-.783-1.267 2.334-2.272 4.708-1.518 1.581.502 1.707.812.61 1.507-1.801 1.14-4.617 1.146-5.318.01m22.064.02c-1.503-.591-1.04-.985 2.347-2 2.32-.695 4.464-1.018 4.764-.718.901.901-1.864 3.598-3.612 3.523-.896-.039-2.47-.401-3.499-.806m-546.288-8.148c8.508-2.629 10.659-5.234 10.659-12.912 0-3.116-.54-6.205-1.2-6.865-1.93-1.93-7.138-1.392-13.143 1.357-6.887 3.153-10.504 3.516-12.004 1.205-.908-1.4-.475-2.925 2.226-7.839l3.354-6.1-.462-5.576-.463-5.577-3.64-3.335L292.03 480h-7.366c-5.993 0-7.984.42-10.675 2.25-3.984 2.71-6.365 8.713-5.456 13.75.348 1.925 1.97 5.847 3.604 8.715 2.419 4.246 2.769 5.594 1.882 7.25-.598 1.12-1.93 2.035-2.957 2.035-1.028 0-5.175-1.122-9.215-2.493-9.388-3.186-14.198-3.27-16.29-.284-1.964 2.804-2.014 9.678-.09 12.424 2.651 3.786 8.166 5.55 19.102 6.108 7.97.407 11.419.152 15.344-1.131l5.063-1.656 5.762 1.982c3.17 1.09 7.403 1.998 9.408 2.017s6.592-.878 10.196-1.99M863.272 520c0-2.475.195-3.487.434-2.25.238 1.237.238 3.263 0 4.5-.239 1.237-.434.225-.434-2.25m-51.633-12.498c-.836-2.178-.802-22.29.043-25.448l.654-2.447.762 1.947c1.048 2.678 1.07 24.633.026 26.28-.675 1.064-.975.997-1.485-.332m-574.073-32.596c3.264-.602 7.059-1.768 8.434-2.59 3.487-2.086 8-8.203 8-10.842 0-3.082-3.716-7.474-6.323-7.474-1.197 0-4.951.994-8.342 2.21l-6.164 2.21-6.836-2.224c-3.759-1.224-7.847-2.218-9.085-2.21-1.238.007-3.15.914-4.25 2.014-1.42 1.42-2 3.333-2 6.599 0 3.776.514 5.079 2.877 7.286 2.982 2.786 10.722 5.853 15.19 6.02 1.41.052 5.236-.397 8.5-1m92.734-2.83c1.337-.508 4.062-2.646 6.057-4.75 2.708-2.858 3.628-4.692 3.634-7.247.011-4.234-2.424-7.079-6.057-7.079-1.516 0-5.258.958-8.317 2.128l-5.56 2.128-4.779-1.698c-7.419-2.636-9.174-2.889-10.784-1.553-.936.777-1.494 2.988-1.494 5.921 0 3.97.493 5.159 3.25 7.823 1.788 1.727 4.375 3.587 5.75 4.133 3.206 1.271 15.134 1.398 18.3.194m532.328-49.421c-.377-1.502-.276-3.462.224-4.356l.91-1.625.64 2.018c.353 1.11.252 3.07-.224 4.356l-.865 2.337zM423.694 389.36c-1.874-1.874 2.186-2.36 19.615-2.346 18.014.015 24.35.75 20.193 2.346-2.174.834-38.974.834-39.808 0m50.358-.308c-1.135-.718-.865-1.062 1.25-1.593 1.484-.372 3.912-.372 5.396 0 2.115.531 2.385.875 1.25 1.593-.796.504-2.573.916-3.948.916s-3.152-.412-3.948-.916m14.448.049-2-.863 3.5-.598c1.925-.329 6.2-.216 9.5.25 3.479.49 4.693.902 2.89.978-1.711.072-5.086.348-7.5.613-2.415.266-5.29.094-6.39-.38m24.666.027c-1.086-.692-1.055-.958.166-1.426.824-.316 2.774-.193 4.333.275s2.084.889 1.167.936c-.918.047-2.268.306-3 .575-.733.27-1.932.107-2.666-.36m24.952-.035c-1.08-.684-.9-1.028.822-1.575 1.212-.385 3.386-.403 4.83-.04 2.066.518 2.317.854 1.178 1.574-1.83 1.159-5.035 1.178-6.83.041m24.382-.008-3-.678 4.346-.731c2.39-.402 5.99-.413 8-.023l3.654.709-2.5.719c-3.09.888-6.578.89-10.5.004m22.054.012-1.947-.762 2.447-.654c3.326-.89 57.072-.86 65.05.037l6.396.718-5 .694c-6.814.946-64.519.917-66.946-.033m78.112-.333c-.641-.404-.716-.755-.166-.78 12.496-.565 27.082-.549 30.102.033l3.898.752-3.5.286c-7.496.614-29.229.405-30.334-.29m38.5.359C699.032 387.77 702.24 387 710 387c3.76 0 7.586.288 8.502.64 3.219 1.234-.777 2.33-8.502 2.33-4.125 0-8.1-.381-8.834-.846m161.685-15.29c-.236-.734-.167-3.134.153-5.334l.582-4 .488 4.296c.482 4.245-.362 7.723-1.223 5.038M526.59 336.145c-.29-.47.571-1.887 1.915-3.15l2.443-2.295.633 1.65c.348.908.374 2.325.057 3.15-.616 1.607-4.173 2.061-5.048.645m119.418.017c-4.929-1.48-5.03-2.516-4.76-48.377l.252-42.715 1.781-1.78c1.358-1.358 3.4-1.782 8.593-1.785 4.53-.003 7.407.488 8.588 1.466l1.775 1.47-.4 44.276-.401 44.276-1.528 1.528c-1.753 1.753-10.207 2.75-13.9 1.641M599.5 335c-.787-1.273 1.53-1.273 3.5 0 1.22.788 1.09.972-.691.985-1.205.008-2.47-.435-2.809-.985m-46-1c-.34-.55-.168-1 .382-1s1.278.45 1.618 1 .168 1-.382 1-1.278-.45-1.618-1m309.658-2c0-1.375.227-1.937.504-1.25.278.688.278 1.813 0 2.5-.277.688-.504.125-.504-1.25M528.5 325c-.375-1.183-.458-2.376-.183-2.65.275-.276.808.467 1.183 1.65s.458 2.376.183 2.65c-.275.276-.808-.467-1.183-1.65m-6.031-15.5c-.258-.825-.71-2.253-1.004-3.174-.722-2.256.545-10.326 1.62-10.326.473 0 1.573 2.456 2.445 5.457 1.198 4.118 1.318 5.958.493 7.5-1.288 2.407-2.895 2.653-3.554.543m12.198-57.167c-.367-.366-.653-1.379-.637-2.25.025-1.3.22-1.257 1.092.242 1.077 1.852.765 3.228-.455 2.008m82.998-2.833c-.333-1.65-.27-7.275.14-12.5l.743-9.5.686 10.272c.377 5.65.314 11.275-.14 12.5l-.824 2.228zm137.501-9.376c-2.451-1.554 1.517-2.125 14.666-2.109 12.236.015 17.424.905 13.67 2.346-2.472.948-26.787.745-28.336-.237m-97.15-36.29c.008-7.334.434-13.996.946-14.806l.93-1.472.586 1.525c.321.839.458 7.314.303 14.39-.2 9.196-.637 12.984-1.531 13.28-.959.319-1.246-2.691-1.235-12.918m-131.43 8.532c-.366-.956-.054-2.327.703-3.083.982-.982 2.596-1.163 5.786-.646l4.425.717-3.5.908c-1.925.5-4.232 1.564-5.126 2.366l-1.627 1.458zm335.994-39.38c-.754-3.252-.27-19.897.563-19.39.354.214.961 4.403 1.35 9.309.44 5.565.321 9.604-.316 10.742l-1.02 1.825zm-172.414-22.878c-1.07-.666-1.02-.95.26-1.441 1.99-.764 126.289-.714 128.284.052 1.138.437 1.18.731.191 1.342-1.705 1.054-127.042 1.1-128.735.047"/><path fill="#05F0F6" fill-rule="evenodd" d="M188.37 832.62c-4.473-1.227-10.704-3.781-13.848-5.676-7.415-4.467-17.718-15.41-21.426-22.754-3.956-7.836-6.601-17.085-5.269-18.417.703-.703 1.384.354 2.156 3.35 3.062 11.869 6.343 19.023 11.815 25.765 4.31 5.309 12.723 10.903 21.332 14.184l6.37 2.428h646.028l9.82-4.748c7.434-3.594 11.136-6.116 15.236-10.384 2.979-3.1 5.416-5.178 5.416-4.617 0 1.997-13.189 13.315-18.796 16.13-3.137 1.574-9.81 3.82-14.828 4.99L823.252 835l-313.376-.074-313.376-.075zm680.664-28.804c1.131-2.924 2.824-6.891 3.761-8.816l1.705-3.5.279-65.5.278-65.5 2.082-1.75c1.146-.962 2.993-1.75 4.107-1.75h2.024l-2.58 2.03-2.58 2.028-.406 62.221-.407 62.221-1.994 7c-2.087 7.326-5.552 14.918-7.3 15.998-.564.349-.1-1.758 1.031-4.682M234.491 785.03c-8.495-2.465-13.367-5.208-18.107-10.197-4.978-5.24-9.39-11.744-9.37-13.815.008-.835 2.053 1.718 4.543 5.672 4.732 7.514 8.986 10.912 19.093 15.25l4.85 2.082 277.5-.308c152.625-.17 278.85-.652 280.5-1.072 2.521-.642 2.703-.577 1.141.408-1.022.644-4.847 1.796-8.5 2.56-5.58 1.168-49.646 1.372-276.14 1.277l-269.501-.114zm-87.886-5.618c-.984-2.562-.702-118.412.288-118.412.491 0 1.166.712 1.5 1.582.984 2.563.703 117.24-.288 117.853-.493.305-1.168-.156-1.5-1.023m656.55-1.974c2.39-1.958 5.02-4.12 5.845-4.802s2.778-2.792 4.34-4.688l2.839-3.448-1.722 3c-2.379 4.145-5.276 7.27-9.857 10.636-5.549 4.075-6.63 3.553-1.445-.698M816.18 763c1.153-3.121 4.784-15.62 5.359-18.448.41-2.023.85-2.54 1.4-1.65 1.474 2.385-2.907 18.016-5.681 20.271-1.382 1.123-1.547 1.097-1.078-.173m-577.15-4.113c-4.217-1.682-8.68-5.627-10.015-8.852l-1.279-3.086 1.87-2.067c1.03-1.137 2.777-2.5 3.883-3.03 1.13-.54.805-.025-.739 1.176-1.512 1.176-2.75 3.008-2.75 4.07s1.54 3.612 3.423 5.667l3.423 3.735 269.827.248c148.405.136 270.49.498 271.299.804l1.472.556-1.472.93c-2.065 1.306-535.666 1.157-538.942-.15m-34.868-4.952c-1.62-3.455-3.461-5.602-6-7-9.163-5.043-13.378-9.554-18.76-20.079-3.25-6.356-5.495-15.088-4.353-16.935.568-.919 1.002-.426 1.439 1.631 2.836 13.377 5.97 19.854 13.017 26.9 2.493 2.494 6.69 5.627 9.327 6.963s5.277 3.027 5.868 3.757c1 1.236 2.887 9.878 2.138 9.787-.186-.023-1.39-2.284-2.676-5.024M785 756.217c4.998-3.354 8.818-7.897 9.891-11.764.647-2.33 1.1-13.233 1.103-26.548L796 695.31l-1.75-1.467c-3.648-3.06-16.27-7.29-19.083-6.396-1.146.364-2.95 3.289-4.68 7.587-1.55 3.847-3.462 7.53-4.25 8.185-1.117.927-1.058.315.267-2.765.937-2.174 2.482-6.654 3.435-9.954 1.337-4.627 2.212-6.071 3.826-6.31 1.151-.17 5.162.876 8.914 2.326s8.171 3.126 9.821 3.725c1.65.598 3.788 1.759 4.75 2.579l1.75 1.49v19.722c0 14.674-.42 21.585-1.643 26.997l-1.642 7.274-4.674 4.848c-2.57 2.667-5.544 4.825-6.607 4.797l-1.934-.053zm-549-15.7c0-.445 12.251-8.51 15.866-10.445 4.525-2.422 1.813.082-5.116 4.723-6.853 4.59-10.75 6.665-10.75 5.722m586.64-5.015c-.814-2.119-.847-94.8-.035-96.914.332-.867 1.007-1.328 1.5-1.023 1.143.706 1.161 96.467.019 98.269-.675 1.064-.975.997-1.485-.332m-110.606-9.11c-8.543-2.525-17.119-6.585-19.196-9.087-.62-.747 3.302.783 8.716 3.4l9.844 4.76 10.254.379c8.296.307 11.56-.017 17.093-1.698 8.219-2.496 18.592-8.963 20.597-12.84.8-1.546 2.46-3.71 3.692-4.808l2.24-1.998-1.557 3c-2.053 3.956-8.995 10.545-15.217 14.44-6.457 4.044-16.342 7.074-22.855 7.007-2.83-.03-8.954-1.18-13.61-2.555M259.5 724.546c3.52-2.966 13.7-8.546 15.59-8.546 2.092 0 .09 1.331-9.59 6.38-6.346 3.31-8.115 3.948-6 2.166m20.5-9.838c0-.832 12.449-3.47 21.953-4.651 5.288-.658 8.805-.699 9.394-.11 1.203 1.203-1.197 1.734-13.847 3.063-5.5.578-11.687 1.32-13.75 1.648-2.062.329-3.75.351-3.75.05m400.473-6.29c-4.385-3.07-10.11-6.678-12.723-8.017-2.612-1.34-4.75-2.652-4.75-2.918s.646-.483 1.434-.483c2.223 0 26.562 16.826 24.54 16.964-.29.02-4.115-2.476-8.5-5.546m-363.918 1.672c-.798-1.292 1.563-1.843 10.945-2.55 4.57-.345 8.62-.191 9.448.36 1.16.77.96 1.064-1 1.469-5.42 1.121-18.837 1.62-19.393.72m27.611-1.966c-1.064-.675-.997-.975.332-1.485.916-.351 2.717-.639 4.002-.639s3.086.288 4.002.64c1.329.509 1.396.81.332 1.484-.734.465-2.684.845-4.334.845s-3.6-.38-4.334-.845m16-1C358.032 705.77 361.24 705 369 705c3.76 0 7.586.288 8.502.64 3.219 1.234-.777 2.33-8.502 2.33-4.125 0-8.1-.381-8.834-.846M385 705.097c.825-.586 2.427-1.073 3.56-1.082 1.134-.008 4.944-1.145 8.468-2.526s6.855-2.361 7.404-2.178c2.12.706-10.334 5.767-15.493 6.296-4.004.41-5.043.275-3.939-.51m-210.403-4.706c-.799-2.08 1.774-11.22 4.884-17.348 2.31-4.552 7.45-11.386 17.269-22.959 4.083-4.813 5.25-6.94 5.25-9.577 0-3.695 1.43-5.437 2.395-2.92 1.858 4.842-.963 11.506-5.477 12.939-2.568.815-13.202 14.128-16.529 20.692-1.386 2.736-3.391 8.382-4.457 12.547s-2.105 7.741-2.31 7.947c-.207.206-.668-.388-1.025-1.32m237.113-4.567 3.79-1.676 67-.059c61.2-.053 75.496.446 67.448 2.354-1.346.32-33.853.688-72.238.819l-69.79.238zm199.123.196c-25.668-.286-46.983-.836-47.368-1.221s.372-.971 1.685-1.3c1.312-.33 21.952-.453 45.868-.275l43.482.324 4 1.656c3.05 1.262 3.406 1.617 1.5 1.495-1.375-.088-23.5-.394-49.167-.68M790.5 662.897c-2.2-1.646-4.542-4.209-5.205-5.695-.786-1.763-1.22-8.844-1.25-20.37-.025-9.718.227-18.378.56-19.244 1.689-4.402 2.395 1.44 2.395 19.816v20.286l1.926 1.743c1.059.958 2.746 1.585 3.75 1.393l1.824-.349.705-13.388c.864-16.416 3.281-32.161 5.765-37.55 1.27-2.757 1.888-3.402 1.946-2.032.046 1.103-.38 3.578-.946 5.5-1.901 6.449-3.189 18.372-3.832 35.482-.722 19.214-.862 19.478-7.638 14.408m-649-4.212c-9.25-3.708-14.485-6.96-19.148-11.899-5.637-5.968-9.428-12.727-11.2-19.964-1.214-4.96-.603-9.14.972-6.656.465.734.852 2.76.86 4.501.02 3.92 3.084 11.216 7.517 17.898 3.504 5.282 11.618 11.086 18.669 13.356 2.019.65 4.211 1.833 4.872 2.63 1.41 1.698 1.368 1.7-2.542.134m742.5-2.168c0-.266 2.138-1.578 4.75-2.917s7.337-4.757 10.5-7.597c6.644-5.965 7.82-5.422 1.5.694-6.376 6.17-16.75 12.252-16.75 9.82m-128.053-15.489c-1.405-1.05-7.812-4.67-14.24-8.046-6.427-3.376-11.946-6.56-12.264-7.074s1.736-3.517 4.565-6.672c2.828-3.155 6.796-8.357 8.817-11.56s4.463-6.804 5.427-8l1.752-2.176-.665 2c-1.07 3.217-7.17 12.095-12.009 17.478-3.037 3.377-4.371 5.692-4.152 7.202.24 1.657 3.001 3.73 10.822 8.122 5.775 3.243 11.962 6.323 13.75 6.844 1.788.522 3.25 1.602 3.25 2.401 0 1.979-1.985 1.775-5.053-.519m-554.342-.616c-.333-.866-.605-2.683-.605-4.036 0-4.713-3.097-17.407-5.968-24.461-3.328-8.18-6.734-13.59-12.474-19.817-2.232-2.42-3.061-3.74-1.843-2.93 3.787 2.516 9.947 10.146 13.629 16.882 4.818 8.815 11.097 33.941 8.831 35.342-.53.328-1.238-.113-1.57-.98m705.06-2.912c.367-1.1 1.268-2.888 2.001-3.973 1.078-1.593 1.334-1.662 1.334-.36 0 .886-.9 2.674-2.002 3.972l-2.002 2.361zm-82.638-7c-.034-3.061 3.969-17.838 4.648-17.158.533.532-2.772 16.856-3.777 18.658-.6 1.074-.847.649-.87-1.5m86.473-11.635V606.5l-2.6-5.5c-2.985-6.315-10.514-14.248-16.377-17.253-2.221-1.139-3.44-2.26-2.723-2.505.715-.243 4.05 1.405 7.412 3.662 9.415 6.321 16.29 17.7 17.371 28.753.41 4.192.056 7.5-1.255 11.708l-1.828 5.865zm-799.92-6.615c-.934-2.94 2.968-12.498 7.377-18.077 5.545-7.015 14.624-13.813 17.27-12.93.615.204-1.366 1.773-4.4 3.486-3.036 1.713-7.373 5.22-9.64 7.796-3.872 4.4-8.168 13.44-8.202 17.263-.009.941-.41 2.334-.891 3.094-.694 1.096-1.008.964-1.515-.632m648.86-.636c-1.483-5.907 3.066-28.368 7.791-38.47C770.924 565.246 782.46 551 785.16 551c1.654 0-.538 3.144-3.124 4.481-3.685 1.906-11.237 13.356-14.852 22.519-3.22 8.165-5.175 18.576-5.2 27.692-.017 6.891-1.46 10.247-2.545 5.922m26.112-.53c-.385-.622-.21-4.28.387-8.13 1.956-12.608 6.88-22.768 14.39-29.69 2.46-2.267 6.315-5.062 8.567-6.211 5.304-2.706 21.532-7.047 26.354-7.05 6.065-.005 5.02 1.554-5.298 7.9-5.759 3.541-15.142 15.198-20.915 25.983-2.454 4.585-4.63 7.832-4.836 7.216-.506-1.516 6.16-13.54 10.59-19.102 1.97-2.475 5.75-6.836 8.396-9.69 2.647-2.855 4.813-5.892 4.813-6.75 0-1.15-1.04-1.56-3.962-1.56-5.297 0-13.558 3.2-20.056 7.767-3.737 2.627-6.282 5.496-8.59 9.682-3.568 6.47-7.383 19.15-7.407 24.62-.018 4.004-1.355 6.76-2.433 5.014m43.448.476c0-.426 1.423-3.763 3.161-7.417 3.74-7.856 14.018-18.666 20.839-21.914 5.769-2.747 15.42-5.246 19.96-5.168 1.947.034 5.964.821 8.926 1.75l5.386 1.689H860.5l-5.5 2.748c-10.963 5.479-15.413 9.98-21.996 22.252-3.449 6.428-4.004 7.269-4.004 6.06m-77.969-17.083c-.017-.562 1.263-4.387 2.844-8.5 1.582-4.112 3.186-9.749 3.566-12.525s1.049-5.626 1.486-6.334c1.32-2.136 2.166 1.508 1.038 4.474-.539 1.417-1.664 5.589-2.502 9.271s-2.62 8.483-3.962 10.667c-1.341 2.183-2.453 3.51-2.47 2.947M168.5 583.137l-6-2.637h-25.738l5.87-1.828c4.052-1.262 7.725-1.683 11.868-1.359 6.645.52 16.175 3.764 19.709 6.71 3.038 2.533 1.545 2.301-5.709-.886m476.394-15.887c-8.793-15.545-24.626-36.026-29.998-38.804-1.538-.795-3.156-2.043-3.596-2.772-1.438-2.383-12.035-10.43-19.496-14.805-8.537-5.005-22.05-10.99-32.551-14.418-4.083-1.333-12.447-3.442-18.588-4.687L529.5 489.5l-30 .053-30 .053-11.5 2.177c-18.32 3.468-29.306 5.907-32 7.102-4.527 2.008-15.3 4.047-16.837 3.186-1.244-.696-1.174-.932.424-1.432 1.052-.33 6.863-1.702 12.913-3.05s14.15-3.326 18-4.397c6.9-1.92 11.766-2.838 28.5-5.379 11.473-1.742 48.782-1.706 61 .06 11.54 1.668 27.472 5.699 38 9.615 10.58 3.935 25.351 12.151 35.592 19.797 6.087 4.545 14.691 12.235 19.261 17.215 4.543 4.95 11.816 14.4 16.164 21s9.154 13.237 10.68 14.75l2.773 2.75h-2.162c-1.587 0-3.025-1.526-5.414-5.75M662 571.78c13.053-5.669 12.794-5.491 15.92-10.943l3.061-5.337-.032-7c-.022-4.649-.607-8.061-1.74-10.16-1.927-3.562-9.327-11.687-13.765-15.112l-2.944-2.271 3 1.564c9.123 4.757 15.312 12.357 17.505 21.498.962 4.012.892 5.825-.399 10.264-2.71 9.32-13.064 18.825-20.316 18.65l-2.79-.068zm97.62-12.794c-.296-1.367-.718-9.911-.94-18.986-.335-13.804-.819-18.005-2.957-25.708-2.073-7.466-5.426-15.778-9.56-23.697-.26-.497.032-.593.647-.212 2.254 1.393 10.44 20.356 12.353 28.617 2.325 10.04 3.714 37.611 2.045 40.593l-1.051 1.879zM648.8 515.074c-6.984-3.25-14.644-7.247-17.022-8.883-4.061-2.794-12.778-11.467-12.778-12.713 0-.312 2.415 1.906 5.367 4.93 4.46 4.568 8 6.774 20.943 13.047 8.566 4.153 15.853 7.999 16.192 8.548.339.548.477.993.307.988s-6.024-2.668-13.008-5.917M389 502.902c-2.475-.483-5.006-1.568-5.625-2.41-1.275-1.737-.66-10.302.878-12.242.644-.811 3.77-1.25 8.902-1.25 8.662 0 14.057-1.66 15.765-4.85 1.89-3.53 1.298-8.597-1.288-11.026l-2.368-2.225-10.806.173-10.806.173-1.326-1.814c-.73-.997-1.326-3.19-1.326-4.872 0-4.132-2.666-18.12-4.394-23.059-2.447-6.995-4.942-18.183-4.38-19.646.671-1.75 16.71-4.318 18.126-2.902 1.028 1.028-.909 1.58-8.685 2.476-2.658.306-5.246.812-5.75 1.123-1.37.847-1.108 6.585.55 12.084 2.295 7.614 5.649 21.326 6.685 27.33.519 3.004 1.185 5.704 1.481 6 .296.294 4.988.535 10.427.535h9.89l3.002 3c4.021 4.018 4.7 8.077 2.06 12.318-2.509 4.03-8.52 6.87-17.001 8.029-3.413.467-6.604 1.48-7.093 2.25-1.583 2.502-1.032 6.772 1.016 7.868 1.064.57 4.402 1.035 7.418 1.035s6.234.288 7.15.64c1.329.509 1.396.81.332 1.484-1.637 1.038-6.845.948-12.834-.222m396.649-5.374c-.357-.93-.65-5.592-.65-10.36 0-20.715-7.343-41.286-18.692-52.358-2.644-2.58-8.407-6.74-12.807-9.243s-7.704-4.555-7.343-4.56 3.715 1.365 7.454 3.043c12.753 5.722 25.491 21.84 29.991 37.95a858 858 0 0 1 2.463 9c1.475 5.577 2.35 24.435 1.227 26.442l-.994 1.777zm-170.92-12.268c-.871-2.068-1.843-4.969-2.16-6.446-.683-3.19 1.061-12.115 3.178-16.256 1.75-3.424 10.828-13.26 13.615-14.752 1.05-.562-.78 1.614-4.067 4.836-4.375 4.29-6.554 7.408-8.135 11.646-2.327 6.234-2.822 14.918-1.177 20.652.54 1.885.836 3.574.656 3.754s-1.039-1.366-1.91-3.434m126.016-1.942c-6.57-8.794-14.258-16.682-20.916-21.461-3.34-2.396-7.03-5.178-8.2-6.182-1.582-1.356-.98-1.227 2.342.5 5.645 2.935 26.8 23.295 29.858 28.735 1.265 2.25 2.043 4.09 1.73 4.09s-2.48-2.557-4.814-5.682M702 450.923c-3.575-1.692-10.325-4.247-15-5.68l-8.5-2.603-17.5-.07-17.5-.07-5.347 2.32c-2.941 1.275-5.543 2.124-5.781 1.885-.964-.963 4.672-3.613 12.177-5.725l7.951-2.238 12 .55c8.699.397 14.418 1.26 20.788 3.135 8.75 2.575 21.99 8.596 23.197 10.548.348.564.494 1.025.324 1.024s-3.234-1.385-6.809-3.076m32-31.603c-1.925-.198-4.619-.611-5.986-.918l-2.486-.559 1.709-.956c1.155-.646 3.742-.43 7.986.668 9.193 2.377 8.896 2.806-1.223 1.765m-338.435-2.215c-.305-.493.156-1.168 1.023-1.5 2.118-.813 320.795-.78 322.914.034 1.329.51 1.396.81.332 1.485-1.811 1.148-323.56 1.13-324.27-.02M473.2 336.8c-.908-.908-1.2-16.778-1.2-65.3s.292-64.392 1.2-65.3c.802-.802 5.25-1.2 13.429-1.2 9.783 0 12.542.314 13.8 1.571 1.265 1.266 1.568 4.043 1.556 14.25-.009 6.974-.396 13.28-.861 14.013-1.514 2.388-2.124-1.408-2.124-13.216 0-7.392-.41-11.627-1.2-12.418-1.634-1.634-19.966-1.634-21.6 0-.907.907-1.2 16.111-1.2 62.3s.293 61.393 1.2 62.3c.736.736 4.333 1.2 9.3 1.2s8.564-.464 9.3-1.2c.66-.66 1.207-3.248 1.215-5.75.018-5.22 1.304-8.266 2.346-5.552 1.098 2.86.698 13.043-.561 14.302-1.65 1.65-22.95 1.65-24.6 0m212-1c-.91-.91-1.2-17.222-1.2-67.3s.29-66.39 1.2-67.3c1.697-1.697 41.903-1.697 43.6 0 .91.91 1.2 17.222 1.2 67.3s-.29 66.39-1.2 67.3c-1.697 1.697-41.903 1.697-43.6 0m40.6-3c.908-.908 1.2-16.556 1.2-64.3s-.292-63.392-1.2-64.3c-1.688-1.688-35.912-1.688-37.6 0-.908.908-1.2 16.556-1.2 64.3s.292 63.392 1.2 64.3c1.688 1.688 35.912 1.688 37.6 0m-228.16-25.298c-.948-2.467-.747-24.785.236-26.336 1.529-2.412 2.125 1.45 2.109 13.666-.015 11.358-.938 16.34-2.346 12.67m1-37c-.946-2.462-.748-22.784.236-24.336 1.501-2.368 2.125 1.379 2.109 12.666-.015 10.482-.973 15.247-2.346 11.67"/><path fill="#02C9D5" fill-rule="evenodd" d="M147 783c0-.55.45-1 1-1s1 .45 1 1-.45 1-1 1-1-.45-1-1m728-2.559c0-.857.45-1.28 1-.941s1 1.041 1 1.559-.45.941-1 .941-1-.702-1-1.559m-360.834-22.317c-1.074-.68-1.025-.964.25-1.453.871-.335 2.297-.335 3.168 0 1.275.489 1.324.772.25 1.453-.734.465-1.559.845-1.834.845s-1.1-.38-1.834-.845m50.334-.114-5-.696 4.75-.324c2.612-.178 5.425-.36 6.25-.407 1.835-.102 2.131 1.876.303 2.02-.717.056-3.553-.211-6.303-.593m20.194.35c-.352-.351-.4-1.026-.108-1.5.593-.959 194.337-1.21 196.826-.255.867.332 1.328 1.007 1.023 1.5-.626 1.013-196.73 1.266-197.741.256m-357.085-12.184c-.353-.57-.154-1.339.441-1.707 1.486-.918 2.012-.188 1.02 1.417-.53.86-1.046.962-1.461.29M822 740c0-.55.45-1 1-1s1 .45 1 1-.45 1-1 1-1-.45-1-1m-482.554-31.087c-.37-.598-.28-1.48.2-1.958 1.182-1.183 3.785.538 2.923 1.933-.873 1.414-2.258 1.425-3.123.025m16-1c-.37-.598-.19-1.569.399-2.158.76-.76 1.513-.702 2.602.2.842.7 1.284 1.67.983 2.158-.761 1.232-3.174 1.11-3.984-.2m-182.052-1.33c-.828-2.157.323-4.844 1.857-4.333.687.23 1.249 1.467 1.249 2.75 0 2.74-2.227 3.876-3.106 1.583m208.245.723c-1.126-1.126-.685-2.306.861-2.306.825 0 1.5.423 1.5.941 0 1.261-1.562 2.164-2.36 1.365m172.028-10.973c-.367-.366-.667-1.268-.667-2.004 0-1.077 2.573-1.227 13.25-.77 7.288.313 14.352.796 15.698 1.073 1.935.4 2.144.697 1 1.421-1.65 1.044-28.263 1.298-29.281.28m87.027.028c-1.53-1.53.868-2.361 6.806-2.361 6.208 0 9.1 1.172 5.912 2.395-2.094.804-11.906.777-12.718-.034M194.5 664c.995-1.1 2.035-2 2.31-2s-.315.9-1.31 2-2.035 2-2.31 2 .315-.9 1.31-2m-50-5c-.34-.55.084-1 .941-1s1.559.45 1.559 1-.423 1-.941 1-1.22-.45-1.559-1m641.75-.143c-1.496-1.504-1.695-12.464-.243-13.361 1.564-.967 2.123 1.655 1.794 8.417-.24 4.966-.55 5.951-1.551 4.944m-29.464-18.55c-.468-.937 1.11-26.605 1.863-30.293l.508-2.486.929 1.66c.51.914 1.42 6.325 2.022 12.025q1.995 18.905-2.791 19.594c-1.17.17-2.31-.056-2.531-.5M730 625.122c0-.482.675-1.437 1.5-2.122 1.253-1.04 1.5-.896 1.5.878 0 1.22-.638 2.122-1.5 2.122-.825 0-1.5-.395-1.5-.878m-620.524-7.16c-1.008-1.631 1.231-3.655 2.566-2.32.724.724.598 1.412-.41 2.249-1.075.891-1.637.91-2.156.07m676.163-1.656c-.953-.953-.772-3.306.254-3.306 1.227 0 2.212 2.817 1.203 3.44-.45.278-1.105.218-1.457-.134M749 597.622c0-.207.685-.946 1.523-1.641 1.273-1.057 1.42-.995.893.378-.347.902-1.032 1.641-1.523 1.641s-.893-.17-.893-.378M799.5 575c.995-1.1 2.035-2 2.31-2s-.315.9-1.31 2-2.035 2-2.31 2 .315-.9 1.31-2m-146.019-1.03c-.388-.63-.254-1.597.3-2.15 1.42-1.422 4.719-.587 4.719 1.194 0 1.798-4.024 2.564-5.019.956M828.232 564c-.687-1.1-.885-2-.44-2 1.041 0 3.208 2.161 3.208 3.2 0 1.473-1.506.82-2.768-1.2M759 564c0-.55.45-1 1-1s1 .45 1 1-.45 1-1 1-1-.45-1-1m1.558-14.817c-.374-1.178-.256-2.9.262-3.826l.942-1.683.68 2.143c.374 1.178.256 2.9-.262 3.826l-.942 1.683zm24.327.036c-.063-.946-.093-12.212-.066-25.037.036-16.852.389-23.727 1.273-24.793.773-.932 1.573-1.124 2.174-.523 1.022 1.022 1.246 45.946.245 49.1-.803 2.53-3.479 3.454-3.626 1.253m-381.693-47.294c.197-.591.786-1.075 1.308-1.075s1.111.484 1.308 1.075S405.417 503 404.5 503s-1.505-.484-1.308-1.075m326.732-32.675-2.424-2.75 2.75 2.424c1.513 1.334 2.75 2.571 2.75 2.75 0 .785-.81.146-3.076-2.424m-346.478-1.337c-.37-.598-.283-1.451.191-1.896 1.077-1.008 5.363.55 5.363 1.95 0 1.376-4.699 1.33-5.554-.054m9.804-49.554c-2.64-1.111-1.08-2.466 2.5-2.17 2.063.171 3.651.761 3.531 1.311-.245 1.119-4.107 1.67-6.031.86m287.916-.235c-1.064-.675-.997-.975.332-1.485 2.218-.85 15.382-.817 19.627.05l3.375.69-2.5.711c-3.57 1.015-19.246 1.04-20.834.034m31.952-.005c-1.11-.723-1.013-1.008.5-1.446 1.035-.3 3.907-.687 6.382-.86 3.473-.241 4.5.03 4.5 1.187 0 1.099-1.338 1.57-5 1.76-2.75.143-5.622-.145-6.382-.64m-235.066-82.066c-1.135-.718-.865-1.062 1.25-1.593 1.484-.372 3.912-.372 5.396 0 2.115.531 2.385.875 1.25 1.593-.796.504-2.573.916-3.948.916s-3.152-.412-3.948-.916m207.407-4.303c-.262-.687-.36-29.563-.218-64.167.203-49.259.53-63.007 1.509-63.333.991-.33 1.25 12.944 1.25 64.167 0 43.699-.334 64.583-1.031 64.583-.568 0-1.247-.562-1.51-1.25m-188.801-13.425c-.362-.362-.658-2.533-.658-4.825s.296-4.463.658-4.825c1.304-1.304 3.342 1.638 3.342 4.825s-2.038 6.129-3.342 4.825m1.03-39.97c-.996-.997-.845-6.14.199-6.785 1.393-.861 3.3 2.088 2.94 4.547-.338 2.302-1.936 3.44-3.14 2.237m.327-39.032c.009-2.103.433-4.483.943-5.29.739-1.168 1.151-.876 2.03 1.435 1.455 3.827.931 6.932-1.238 7.345-1.422.271-1.747-.384-1.735-3.49"/><path fill="#00AFC1" fill-rule="evenodd" d="M201.84 835.508c-.27-.271-4.31-1.159-8.977-1.973s-10.07-2.141-12.005-2.95c-7.07-2.954-18.747-11.631-21.861-16.245-4.498-6.664-8.781-15.51-10.694-22.083l-1.675-5.757-.564-62.885-.564-62.886-8.227-3.614c-13.227-5.812-21.627-15.002-25.632-28.044-1.892-6.158-2.196-8.718-1.613-13.58.93-7.766 2.84-14.24 5.309-17.991 2.991-4.547 9.74-11.436 13.663-13.948 9.536-6.106 24.033-7.57 36.44-3.677 17.803 5.585 31.306 23.007 36.138 46.625 2.179 10.652 3.35 24.561 2.299 27.325-.505 1.326-4.396 6.13-8.647 10.674-4.252 4.545-9.444 11.35-11.539 15.12s-4.727 10.236-5.85 14.368c-1.577 5.81-1.906 9.171-1.448 14.823.723 8.932 4.447 18.793 9.829 26.023 2.38 3.2 6.431 6.874 10.123 9.183 3.385 2.116 6.919 4.53 7.852 5.363s2.173 3.452 2.755 5.818c2.723 11.077 10.093 20.038 20.554 24.991l6.994 3.312 274 .283c194.024.2 275.867-.035 280.398-.805 3.518-.598 8.176-1.995 10.349-3.104 9.316-4.752 16.277-14.01 20.21-26.874l1.68-5.5-.118-50.2c-.077-32.999.264-52.36.997-56.5 3.787-21.402 5.148-26.662 8.951-34.587 5.414-11.283 13.825-20.076 23.79-24.868l7.3-3.512 8.753-.069c4.813-.038 10.988.476 13.72 1.142 6.49 1.582 15.778 8.213 21.152 15.1 2.357 3.022 5.012 7.898 5.9 10.836 2.287 7.573 2.036 18.792-.6 26.711-1.54 4.627-3.58 8.035-7.153 11.944-7.184 7.86-12.176 11.518-19.176 14.052l-6.153 2.227-.598 62.862c-.507 53.28-.844 63.797-2.212 68.996-2.935 11.161-6.246 17.12-13.925 25.06-5.33 5.51-9.277 8.526-14.814 11.319-7.27 3.666-11.026 4.644-26.644 6.933-4.918.72-103.737 1.054-312.583 1.054-167.965 0-305.612-.222-305.883-.492m40.451-76.406c-2.864-.357-6.399-1.539-7.854-2.626s-3.61-3.651-4.791-5.699c-2.501-4.34-1.874-6.11 3.285-9.277 1.792-1.1 9.615-6.206 17.385-11.347 15.834-10.477 22.703-14.192 30.556-16.523 2.954-.877 13.754-2.475 24-3.551L329 707.545c3.025-.317 8.875-.743 13-.946s13.575-.713 21-1.134 15.652-.682 18.283-.58c3.151.12 7.927-.893 14-2.971 5.07-1.734 10.792-3.94 12.717-4.902s5.525-2.036 8-2.387c2.475-.35 57.6-.706 122.5-.79l118-.151 5.541 2.009c5.288 1.917 13.1 6.868 24.836 15.742 7.337 5.547 20.023 12.101 26.376 13.628 7.735 1.858 18.337 1.636 24.708-.518 15.803-5.342 25.061-15.166 32.15-34.111 1.146-3.064 2.7-5.808 3.452-6.097 1.718-.659 15.835 3.997 20.212 6.667 1.801 1.098 3.759 3.234 4.35 4.746 1.347 3.442.528 43.273-.988 48.095-1.315 4.183-7.426 11.738-10.967 13.56-2.238 1.151-46.053 1.452-270.67 1.86-147.4.268-270.344.194-273.209-.163m548.017-96.243c-1.92-1.188-3.657-3.387-4.362-5.522-1.372-4.158-2.026-44.655-.81-50.198 3.258-14.867 4.114-18.023 5.86-21.63 1.084-2.24 4.285-6.669 7.113-9.841 3.463-3.887 7.302-6.855 11.766-9.1 10.564-5.311 23.125-7.044 23.125-3.19 0 .738-3.813 5.241-8.473 10.008s-9.686 10.791-11.17 13.39c-1.482 2.598-3.214 5.399-3.848 6.224-2.739 3.564-6.539 14.271-8.518 24-1.402 6.892-2.298 15.827-2.606 26-.475 15.644-1.563 22.069-3.713 21.917-.644-.045-2.608-.971-4.364-2.058M751.5 638.504c-2.2-1.297-7.736-4.216-12.302-6.485s-8.537-4.74-8.826-5.491c-.588-1.533 1.665-5.534 5.645-10.028 4.772-5.387 12.217-16.863 15.246-23.5 1.632-3.575 4.103-11.225 5.491-17l2.525-10.5.046-18 .047-18-2.352-10c-2.625-11.16-6.77-21.97-10.736-28-1.447-2.2-3.733-5.68-5.08-7.731-3.884-5.916-17.144-19.007-23.704-23.404-16.897-11.323-31.121-16.743-48.325-18.416-19.62-1.907-35.476 2.133-44.383 11.31-2.36 2.432-5.305 6.455-6.542 8.94-1.836 3.689-2.25 6.19-2.25 13.595 0 4.992.46 10.283 1.02 11.76 1.512 3.976 7.985 11.844 11.98 14.56 5.693 3.872 12.854 7.69 21.964 11.71 8.817 3.89 20.186 11.026 23.31 14.63 4.642 5.355 7.761 10.742 8.735 15.088 1.486 6.629-.168 13.707-4.628 19.808-2.711 3.708-5.051 5.533-9.941 7.75-4.76 2.158-7.918 2.9-12.342 2.9h-5.946l-2.15-2.75c-1.182-1.513-5.83-8.345-10.326-15.183-11.35-17.259-31.31-37.4-42.676-43.06-2.475-1.232-5.225-2.876-6.11-3.653-2.966-2.6-24.288-11.482-33.39-13.909-19.541-5.21-23.822-5.721-51-6.091l-26-.355-15 2.106c-8.25 1.159-20.85 3.64-28 5.515-21.034 5.514-26.365 6.441-37.162 6.463-7.533.016-11.066-.408-13.384-1.607l-3.148-1.628.638-3.674c1.62-9.335 3.691-10.944 12.571-9.766 3.454.458 6.02.186 8.662-.917 2.064-.863 4.1-2.114 4.523-2.78s.776-3.083.785-5.372c.012-3.429-.526-4.617-3.062-6.75-3.214-2.705-7.02-3.263-11.258-1.652-2.992 1.138-8.932-.47-11.265-3.048-.885-.978-2.877-7.578-4.425-14.667-1.55-7.089-3.785-16.079-4.97-19.978s-2.007-8.362-1.829-9.917l.324-2.827 8-1.405c6.597-1.159 32.998-1.428 150.5-1.533 78.375-.07 156.45.153 173.5.496 34.453.695 35.763.907 49.527 8.035 8.715 4.513 17.19 12.553 22.454 21.302 5.178 8.605 9.52 22.396 10.736 34.105 1.287 12.387 1.245 10.555.992 42.743L788 548.985l-7.54 8.19c-10.976 11.918-14.063 19.206-18.378 43.385-.595 3.333-1.089 12.558-1.097 20.5-.015 14.73-.932 19.215-4.01 19.613-.811.104-3.275-.871-5.475-2.169m-277.015-302.89-1.985-1.452-.294-59.831c-.16-32.907-.023-61.319.306-63.137.33-1.818 1.474-4.18 2.544-5.25L477 204h22l2.127 2.127 2.127 2.127-.82 8.623c-.45 4.743-.926 15.373-1.057 23.623s-.487 23.55-.793 34-.752 27.414-.99 37.699c-.298 12.763-.861 19.588-1.776 21.5l-1.34 2.801-10.004.282c-7.519.213-10.496-.078-11.989-1.169m215.523.534c-1.37-.404-3.06-1.84-3.754-3.191-.986-1.919-1.207-16.534-1.008-66.744l.254-64.287 1.5-.99c.898-.593 9.207-.88 20.702-.713 14.116.204 19.546.621 20.5 1.577 1.037 1.04 1.298 14.426 1.298 66.7s-.26 65.66-1.298 66.7c-.948.95-5.93 1.351-18.5 1.49-9.461.106-18.323-.139-19.694-.542"/><path fill="#F06551" fill-rule="evenodd" d="M813.074 539.59c-.644-.777-1.383-2.914-1.643-4.75-.26-1.837-.631-17.29-.824-34.34-.275-24.25-.724-32.819-2.062-39.351-3.518-17.172-10.42-31.382-20.62-42.452-8.415-9.133-14.08-13.401-24.83-18.71-9.38-4.632-16.29-6.681-27.595-8.186-5.172-.688-61.98-1.283-160.715-1.683l-152.714-.618-1.786-1.786c-1.496-1.496-1.785-3.557-1.785-12.714s.29-11.218 1.786-12.714l1.785-1.786 217.215-.285c119.468-.157 218.671-.025 220.452.293 1.824.326 3.72 1.48 4.343 2.644 1.626 3.037 1.603 170.318-.023 172.278-1.624 1.957-7.873 2.856-19.053 2.74-5.222-.054-14.188.56-19.924 1.366-5.736.805-10.52 1.464-10.633 1.464s-.73-.635-1.374-1.41m-389.25-202.24c-1.473-.258-3.273-1.186-4-2.063-1.076-1.296-1.324-18.197-1.324-90.348v-88.753l3.066-3.789c1.687-2.084 4.387-4.178 6-4.654 4.328-1.277 430.246.086 432.672 1.384 1.062.569 2.616 2.672 3.452 4.674l1.52 3.64.39 79.03c.213 43.466.096 82.777-.26 87.359-.443 5.684-1.206 9.019-2.404 10.5l-1.756 2.17-20.84.318c-11.462.174-22.79.029-25.172-.324l-4.332-.641-1.5-3.593-1.502-3.593.535-42.084c.294-23.145.728-46.133.965-51.083s-.051-10.733-.64-12.85c-1.826-6.568-2.631-6.758-29.582-6.965l-24.041-.185-1.786-1.784c-1.487-1.485-1.869-4.11-2.285-15.718-.416-11.603-.798-14.233-2.284-15.716l-1.784-1.782-37.216-.5c-20.469-.275-38.592-.165-40.273.244s-4.231 1.984-5.667 3.5l-2.61 2.756-.333 14.716c-.283 12.499-.602 14.984-2.116 16.5l-1.783 1.784-16.18.5-16.181.5-2.402 3.5-2.402 3.5.62 24c.342 13.2.645 36.986.673 52.859l.051 28.859-1.616 1.786c-2.202 2.432-5.382 2.887-13.767 1.966-4.78-.524-7.517-1.325-8.33-2.437-1.156-1.582-2.952-8.344-5.982-22.533-.763-3.575-2.304-10.775-3.423-16s-3.112-14.9-4.428-21.5c-1.317-6.6-3.306-15.6-4.42-20-2.064-8.145-6.116-26.973-11.15-51.812-1.578-7.783-3.505-14.592-4.417-15.6l-1.617-1.786-18.731-.655c-14.185-.496-20.106-.327-24.392.696-4.748 1.135-6.175 1.135-8.864.005-2.408-1.012-9.603-1.348-28.9-1.348-20.632 0-26.076.28-27.635 1.422l-1.941 1.421V333.92l-1.71 1.714c-1.368 1.373-3.857 1.761-12.5 1.95-5.934.13-11.995.025-13.467-.233m97.502-1.502c-.595-.741-1.396-2.375-1.782-3.631-.841-2.743 2.526-34.217 3.661-34.217.806 0 1.16 1.5.877 3.718-.085.67.712 2.92 1.772 5 1.678 3.292 4.343 14.161 5.845 23.838.564 3.63-1.058 5.303-5.906 6.09-2.21.359-3.761.082-4.467-.798m36.698.07c-4.232-.923-6.761-3.845-7.563-8.74-.331-2.023-1.435-6.603-2.451-10.178s-2.808-11.225-3.98-17-2.73-12.975-3.46-16c-.732-3.025-2.54-10.9-4.018-17.5s-3.988-17.625-5.577-24.5C527.69 227.782 526 218.708 526 215.27c0-1.298 1.105-3.465 2.455-4.815l2.454-2.455h7.923c5.443 0 8.275.424 9.047 1.354.618.745 1.983 5.357 3.034 10.25L554.002 234c2.022 9.436 5.067 23.165 6.987 31.5 1.014 4.4 3.064 13.625 4.556 20.5 1.493 6.875 4.212 18.8 6.043 26.5 4.569 19.216 4.818 20.927 3.238 22.181-1.765 1.401-12.44 2.187-16.802 1.237m197.211.103c-1.245-.532-2.721-2.17-3.28-3.638-.647-1.702-.913-18.559-.735-46.492l.28-43.821 1.786-1.785 1.785-1.785h28.858l1.785 1.786 1.786 1.786v90.857l-1.757 1.757c-1.468 1.467-3.94 1.802-15 2.03-7.284.15-14.262-.163-15.508-.695"/><path fill="#B46846" fill-rule="evenodd" d="M458.118 673.094c-1.086-.688-.925-1.02.75-1.552 1.173-.372 3.091-.372 4.264 0 1.675.532 1.836.864.75 1.552-.76.481-2.057.875-2.882.875s-2.122-.394-2.882-.875m72.957-1.047c-.958-.593-.917-.894.182-1.315.783-.301 1.984-.201 2.668.221.958.593.917.894-.182 1.315-.783.301-1.984.201-2.668-.221m61.091-19.923C589.898 650.686 593.4 650 603 650s13.102.686 10.834 2.124c-.734.465-5.609.845-10.834.845s-10.1-.38-10.834-.845m-198-124c-1.074-.68-1.025-.964.25-1.453.871-.335 2.297-.335 3.168 0 1.275.489 1.324.772.25 1.453-.734.465-1.559.845-1.834.845s-1.1-.38-1.834-.845m97.952-15.03c-1.086-.688-.925-1.02.75-1.552 1.173-.372 3.091-.372 4.264 0 1.675.532 1.836.864.75 1.552-.76.481-2.057.875-2.882.875s-2.122-.394-2.882-.875M171.44 499.468c2.01-1.52 7.155-1.944 10.061-.829 2.913 1.118-.498 2.332-6.502 2.314l-5.5-.017zm2.309-18.13c.688-.278 1.813-.278 2.5 0 .688.277.125.504-1.25.504s-1.937-.227-1.25-.504m426.416-144.214c-2.243-1.422 1.201-2.124 10.416-2.124 7.833 0 10.573.96 6.836 2.393-2.37.91-15.72.701-17.252-.27m-79.527-18.622c-.809-2.109-.83-8.84-.034-10.914 1.138-2.967 2.395-.473 2.38 4.721-.017 5.762-1.256 9.033-2.346 6.193m98-1c-.834-2.173-.834-48.831 0-51.004 1.68-4.376 2.33 2.75 2.33 25.502 0 22.753-.65 29.878-2.33 25.502m-170-101c-.942-2.456-.748-20.782.237-22.336 1.47-2.318 2.125 1.306 2.109 11.666-.016 9.61-1.012 14.145-2.346 10.67m233.527-37.378c-2.69-1.706 2.102-2.124 24.166-2.109 20.672.015 27.456.701 23.17 2.346-2.495.957-45.794.74-47.336-.237m-251-30c-1.064-.675-.997-.975.332-1.485 2.512-.964 92.799-.737 94.336.237 1.064.675.997.975-.332 1.485-2.512.964-92.799.737-94.336-.237m105.388-.026-1.947-.762 2.447-.654c3.145-.842 9.307-.865 11.448-.043 1.329.51 1.396.81.332 1.485-1.632 1.034-9.613 1.017-12.28-.026m19.498-.04c-1.151-.732-.946-1.043 1-1.516 1.346-.328 25.398-.471 53.448-.319 33.149.18 51 .627 51 1.277 0 1.307-103.41 1.855-105.448.558m294.023-.011c-.958-.593-.917-.894.182-1.315.783-.301 1.984-.201 2.668.221.958.593.917.894-.182 1.315-.783.301-1.984.201-2.668-.221"/><path fill="#29474E" fill-rule="evenodd" d="M0 512V0h1024v1024H0zm247.32 392.928c4.958-1.377 11.512-7.328 13.836-12.563 1.01-2.274 3.386-9.792 5.281-16.706s3.923-13.463 4.507-14.554c.697-1.303 2.517-2.19 5.309-2.586 2.336-.331 110.093-.471 239.461-.31l235.215.291 1.467 1.5c.808.825 2.422 5.325 3.587 10 4.04 16.204 7.05 24.886 9.74 28.082 1.482 1.762 4.964 4.26 7.736 5.551l5.041 2.347 27-.006 27-.007 3.97-2.249c2.184-1.237 4.997-3.77 6.25-5.631 3.286-4.875 3.057-13.582-.734-28l-3.001-11.413 1.524-1.684c.838-.925 3.428-2.247 5.757-2.936s8.284-3.315 13.234-5.835c7.32-3.726 10.797-6.368 18.626-14.15 7.724-7.678 10.436-11.186 13.728-17.754 2.257-4.502 5.093-11.477 6.302-15.5l2.2-7.315.572-57.398.572-57.399 5-4.101c2.75-2.256 8.193-7.339 12.096-11.295 7.786-7.892 12.918-16.598 16.305-27.662 1.632-5.332 2.099-9.513 2.099-18.808 0-6.573-.508-14.063-1.13-16.644-.62-2.581-2.86-8.446-4.977-13.033-3.032-6.572-5.39-9.882-11.12-15.611-7.322-7.32-15.338-12.278-23.33-14.43-2.202-.593-4.89-1.726-5.974-2.518l-1.969-1.44-.5-206.33c-.423-174.745-.715-206.714-1.906-208.831-3.015-5.36-6.603-9.223-10.513-11.316L871.5 124.5h-458l-4 2.153c-4.945 2.66-7.614 5.535-10.538 11.347l-2.264 4.5-.23 123.345-.229 123.344-1.473 1.474c-.962.961-5.225 1.821-12.266 2.474l-10.792 1-1.56-1.561c-1.176-1.175-1.732-4.835-2.252-14.818-.777-14.889-2.319-24.703-4.592-29.216-2-3.972-6.12-8.364-9.504-10.131-1.617-.845-5.675-1.411-10.11-1.411h-7.41l-6.39 3.25c-9.573 4.869-30.166 25.343-38.14 37.92l-1.692 2.671-20.779-.542c-16.574-.433-22.65-.214-30.03 1.08-5.087.891-9.472 1.621-9.744 1.621-.271 0-4.657-3.853-9.747-8.563-12.105-11.203-23.048-19.063-34.758-24.967l-9.5-4.79-7.571-.458c-5.59-.338-8.352-.055-10.552 1.083-4.514 2.334-11.092 10.006-12.296 14.34-.698 2.515-1.072 22.302-1.075 56.914-.005 43.196-.26 53.405-1.368 54.922-1.096 1.498-3.072 1.953-10.094 2.321l-8.732.459-1.902 3.12c-1.046 1.715-1.903 4.694-1.903 6.619 0 4.404 3.219 9.8 6.212 10.415 1.255.257 5.404.674 9.221.927 5.168.341 7.278.919 8.26 2.262 1.457 1.993 2.99 6.913 3.933 12.624l.615 3.727-2.689 1.023c-1.479.562-5.3 1.022-8.49 1.022-4.353 0-6.456.517-8.434 2.073-2.186 1.72-2.635 2.881-2.635 6.825 0 3.704.522 5.244 2.363 6.973l2.363 2.22 12.506-.185c6.879-.102 12.967.099 13.529.446.562.348 4.046 5.175 7.743 10.728 4.292 6.446 6.374 10.442 5.761 11.055s-4.177.555-9.862-.158c-4.897-.615-12.503-.824-16.903-.465-17.493 1.43-28.047 6.025-39.005 16.983C92.247 584.742 87 598.39 87 618c0 12.638 2.333 23.071 7.225 32.314 3.25 6.14 16.51 20.576 23.775 25.883l3.5 2.557.574 57.373.575 57.373 1.681 6c2.597 9.266 9.972 23.303 16.105 30.65 3.053 3.657 8.608 8.917 12.345 11.687C159.406 846.75 173.113 854 175.771 854c.73 0 2.656.687 4.279 1.526 3.684 1.905 3.736 3.785.45 16.474-1.381 5.334-2.469 12.395-2.48 16.102-.016 5.206.457 7.32 2.238 10 1.242 1.869 4.262 4.41 6.712 5.648l4.454 2.25 26.038-.006c15.27-.003 27.618-.444 29.859-1.066"/><path fill="#5D434E" fill-rule="evenodd" d="M813.75 884.338c.688-.278 1.813-.278 2.5 0 .688.277.125.504-1.25.504s-1.937-.227-1.25-.504M468.166 673.124C466.032 671.77 469.24 671 477 671c3.76 0 7.586.288 8.502.64 3.219 1.234-.777 2.33-8.502 2.33-4.125 0-8.1-.381-8.834-.846M537 671c0-.55.423-1 .941-1s1.22.45 1.559 1c.34.55-.084 1-.941 1s-1.559-.45-1.559-1m48.075-18.953c-.958-.593-.917-.894.182-1.315.783-.301 1.984-.201 2.668.221.958.593.917.894-.182 1.315-.783.301-1.984.201-2.668-.221m149.414-101.36c-.406-1.548-.283-3.798.273-5l1.011-2.187.738 2.814c.406 1.547.283 3.797-.273 5l-1.011 2.186zM706.158 548c0-1.375.227-1.937.504-1.25.278.688.278 1.813 0 2.5-.277.688-.504.125-.504-1.25m157.086-97.25c.168-55.996.6-85.25 1.256-85.25s1.095 28.517 1.275 83c.151 45.65.03 84.013-.269 85.25s-.988 2.25-1.53 2.25c-.644 0-.898-29.685-.732-85.25m-361.169 62.297c-.958-.593-.917-.894.182-1.315.783-.301 1.984-.201 2.668.221.958.593.917.894-.182 1.315-.783.301-1.984.201-2.668-.221m308.657-27.304c-.301-.783-.201-1.984.221-2.668.593-.958.894-.917 1.315.182.301.783.201 1.984-.221 2.668-.593.958-.894.917-1.315-.182M166.158 466c0-1.375.227-1.937.504-1.25.278.688.278 1.813 0 2.5-.277.688-.504.125-.504-1.25m-.519-9.498c-.938-2.445-.75-17.779.237-19.336 1.415-2.232 2.126 1.192 2.109 10.166-.016 8.31-1.08 12.47-2.346 9.17m256.527-66.378c-1.064-.675-.997-.975.332-1.485 2.177-.835 292.827-.835 295.004 0 1.329.51 1.396.81.332 1.485-1.744 1.105-293.924 1.105-295.668 0m101-53c-1.064-.675-.997-.975.332-1.485 2.415-.927 6.295-.783 6.937.256 1.117 1.806-4.784 2.804-7.269 1.229m121.584-.786c.688-.278 1.813-.278 2.5 0 .688.277.125.504-1.25.504s-1.937-.227-1.25-.504m218.89-4.836c-.968-2.52-.737-171.801.236-173.336.675-1.064.975-.997 1.485.332.967 2.52.736 171.801-.237 173.336-.675 1.064-.975.997-1.485-.332m-343.072-29.286c-.346-1.093-.12-3.106.504-4.475.794-1.742.824-3.067.1-4.418-.568-1.064-.664-2.527-.212-3.259.633-1.023.953-.896 1.394.554 1.069 3.512 1.026 11.402-.067 12.495-.784.784-1.264.534-1.719-.897m98.071-40.714c-.91-2.37-.763-8.758.237-10.336.675-1.064.975-.997 1.485.332.91 2.37.763 8.758-.237 10.336-.675 1.064-.975.997-1.485-.332m190.92-18.319c-.375-1.178-.257-2.9.26-3.826l.943-1.683.68 2.143c.374 1.178.256 2.9-.262 3.826l-.942 1.683zm-52.507-4.113c-1.155-.744-.953-1.056 1-1.542 3.943-.982 24.48-.157 24.201.972-.319 1.295-23.27 1.814-25.2.57m-226.358-29.71c-1.496-1.495.807-2.36 6.283-2.36 6.418 0 9.314.72 8.458 2.105-.626 1.013-13.756 1.24-14.741.256m141.424-30.266c-1.086-.688-.925-1.02.75-1.552 1.173-.372 3.091-.372 4.264 0 1.675.532 1.836.864.75 1.552-.76.481-2.057.875-2.882.875s-2.122-.394-2.882-.875m61.934-.04c-1.135-.719-.865-1.063 1.25-1.594 3.263-.819 8.014.22 7.18 1.57-.757 1.224-6.506 1.24-8.43.023m-67.358-29.693c-1.65-1.65 1.144-2.361 9.283-2.361 9.622 0 13.126.685 10.857 2.124-1.547.98-19.189 1.188-20.14.237m159.472-.237C823.961 147.726 827.321 147 836 147c4.31 0 8.586.288 9.502.64 3.349 1.284-.914 2.33-9.502 2.33-4.675 0-9.1-.381-9.834-.846"/><path fill="#1F3742" fill-rule="evenodd" d="M901.719 776.103c-.89-7.914-.96-93.31-.08-95.605.51-1.329.81-1.396 1.485-.332 1.004 1.585 1.01 90.1.007 97.334l-.694 5zM167 554c0-.55.675-1 1.5-1s1.5.45 1.5 1-.675 1-1.5 1-1.5-.45-1.5-1m721.607-1.582c-.948-2.47-.682-401.752.27-403.252.674-1.064.974-.997 1.484.332 1.011 2.636.76 404.502-.254 404.502-.491 0-1.166-.712-1.5-1.582m-746.972-84.2c-.277-.447-.145-1.392.292-2.1.62-1.004.925-.946 1.39.266.63 1.64-.823 3.224-1.682 1.835m242.115-76.88c.688-.278 1.813-.278 2.5 0 .688.277.125.504-1.25.504s-1.937-.227-1.25-.504"/><path fill="#00375D" fill-rule="evenodd" d="m193.055 908.443-6.446-1.397-5.241-5.177c-3.944-3.894-5.511-6.315-6.328-9.773l-1.086-4.596 3.023-12.31c1.663-6.771 3.023-13.423 3.023-14.782 0-1.456-.719-2.719-1.75-3.075-13.573-4.69-25.222-11.494-34.464-20.133-5.796-5.418-15.616-20.457-19.066-29.2-1.41-3.575-3.356-10.325-4.322-15l-1.757-8.5-.57-53.148-.571-53.148-6.212-4.572c-9.97-7.337-20.507-22.229-24.244-34.26-3.06-9.848-4.172-20.405-3.02-28.645 1.501-10.738 5.538-21.81 10.929-29.972 5.647-8.55 10.248-13.087 18.857-18.595 11.528-7.376 26.338-10.782 41.94-9.647l9.25.674v-1.71c0-.94-2.07-4.82-4.599-8.625l-4.598-6.918-7.652.769c-14.812 1.488-18.07.771-22.16-4.874-4.073-5.622-3.992-9.767.282-14.43l3.273-3.57 7.727-1.114c8.58-1.236 8.585-1.243 6.362-8.68l-1.335-4.463-7.958-1.137c-4.377-.626-9.193-1.946-10.701-2.935-7.723-5.06-7.779-17.904-.099-22.936 1.586-1.038 5.51-1.949 9.801-2.273l7.157-.541-.333-48.955-.332-48.955 1.647-7.404c2.042-9.177 6.357-15.856 12.812-19.828 6.787-4.177 13.21-4.545 22.555-1.295 3.994 1.389 10.328 4.346 14.074 6.572 9.277 5.511 21.998 15.003 31.343 23.388l7.766 6.967 10.718-1.758c12.412-2.036 22.488-2.335 37.327-1.107l10.578.875 8.013-10.375c8.755-11.335 17.327-19.77 26.145-25.729 7.66-5.175 9.143-5.9 15.439-7.54 6.96-1.812 13.3-.698 19.225 3.378 8.195 5.638 12.376 18.36 14.074 42.823l.715 10.307 8.117-.612c4.464-.337 9.12-.82 10.348-1.071l2.23-.46.287-122.235c.236-100.836.528-122.88 1.664-125.91.757-2.02 3.012-5.838 5.011-8.482 5.14-6.8 11.992-10.04 24.077-11.384 6.463-.72 78.542-.961 225.5-.758l216 .298 5.206 1.776c7.683 2.62 13.288 7.36 16.784 14.196l3.01 5.886.262 205.196.261 205.195 7.705 2.735c4.238 1.505 10.219 4.443 13.291 6.53 8.44 5.73 16.333 14.866 20.95 24.246 4.153 8.44 7.988 22.955 7.988 30.24 0 6.202-3.493 20.522-6.768 27.744-5.631 12.419-11.823 19.955-25.439 30.962l-4.75 3.84v52.867c0 57.915-.318 61.994-5.971 76.676-1.577 4.094-5.363 11.196-8.414 15.78-5.361 8.059-7.032 9.79-18.37 19.032-5.223 4.256-16.392 10.223-23.415 12.507-6.034 1.963-6.428 3.095-3.992 11.479 1.172 4.032 2.793 10.482 3.603 14.334 1.942 9.23.86 13.265-5.238 19.526-7.47 7.671-10.022 8.253-36.203 8.253-28.184 0-31.193-.635-39.194-8.266-6.234-5.947-7.34-8.424-12.75-28.547L751.32 862.5H272.627l-.854 3.5c-2.683 10.996-8.352 27.142-10.982 31.28-6.287 9.892-15.977 12.717-43.291 12.623-11.443-.04-20.348-.571-24.445-1.46m33.058-26.503c5.68-.582 10.87-1.511 11.536-2.064 1.242-1.03 5.055-15.518 4.28-16.264-.613-.592-31.204-2.379-32.542-1.9-1.197.427-5.423 15.323-5.4 19.038L204 883h5.894c3.242 0 10.54-.477 16.22-1.06m592.351.117c.735-1.188-3.294-17.442-4.85-19.571l-1.16-1.585-15.727 1.208c-12.691.975-15.727 1.495-15.727 2.692 0 2.612 4.024 15.096 5.075 15.745.98.606 17.5 2.013 27.116 2.31 2.58.079 4.953-.28 5.273-.799m18.036-51.179c9.04-2.851 15.9-6.975 22.83-13.726 3.987-3.884 8.047-9.04 9.758-12.392 5.793-11.347 5.881-12.532 5.897-79.445.01-38.071.39-62.172 1.009-63.798.622-1.637 2.398-3.17 4.75-4.099 10.352-4.093 13.657-6.174 19.599-12.34 4.604-4.777 6.955-8.22 8.589-12.578l2.249-6-.385-11c-.317-9.047-.794-11.78-2.684-15.392-3.249-6.21-10.166-13.269-16.338-16.672l-5.274-2.909-12-.352-12-.352-5.845 2.196c-4.12 1.548-7.848 4.085-12.63 8.597-10.923 10.304-16.712 23.68-18.993 43.884-.558 4.95-1.02 31.09-1.024 58.09L824 741.68l-2.015 7.91c-1.108 4.35-3.219 10.385-4.691 13.41-3.426 7.038-11.271 14.879-18.294 18.283-3.025 1.466-9.552 3.357-14.505 4.202l-9.004 1.537-268.496-.261L238.5 786.5l-6.174-2.316c-8.286-3.109-15.946-8.634-20.209-14.576-1.93-2.691-4.712-8.301-6.182-12.467-1.493-4.228-3.494-8.03-4.53-8.607-1.022-.569-4.492-2.763-7.711-4.876-4.324-2.837-7.096-5.744-10.606-11.12-2.614-4.004-5.594-10.15-6.623-13.659-3.847-13.118-1.648-27.444 6.253-40.746 2.08-3.502 7.335-10.166 11.676-14.808l7.895-8.441-.597-11.692c-.704-13.77-3.363-25.447-8.161-35.831-2.573-5.568-5.258-9.294-10.41-14.447-4.474-4.474-9.02-7.908-12.782-9.655l-5.839-2.712-11.5-.363-11.5-.363-6 2.252c-7.67 2.878-17.32 11.87-20.656 19.246l-2.343 5.181v11l-.001 11 3.087 6.5c4.551 9.585 10.676 15.325 22 20.616 7.085 3.311 9.724 5.073 10.447 6.972.583 1.535.966 26.725.966 63.583v61.04l1.574 6.073c.865 3.34 2.718 8.355 4.118 11.145 7.207 14.365 21.429 24.746 37.655 27.485 2.862.484 146.094.797 322.153.706l317-.165zm-47.878-77.12c2.03-1.782 4.511-5.045 5.513-7.25l1.821-4.008.022-24.677.022-24.678-8.068-3.11c-10.328-3.984-13.263-4.56-14.606-2.871-.584.735-1.813 3.64-2.731 6.457-.919 2.817-3.233 7.767-5.143 11-6.94 11.745-18.738 19.895-33.127 22.884l-7.174 1.49-7.797-1.492c-4.289-.82-10.96-3.01-14.826-4.865s-11.978-7.021-18.028-11.48-13.7-9.581-17-11.383l-6-3.275-45.5-.249c-25.025-.137-81.725.132-126 .597l-80.5.846-8.615 3.653c-4.738 2.01-10.987 4.103-13.886 4.653-2.9.55-15.899 1.458-28.886 2.018-27.355 1.179-63.539 4.369-73.525 6.483-3.802.804-9.652 2.75-13 4.324s-13.143 7.616-21.766 13.428c-8.622 5.811-16.61 10.862-17.75 11.224-1.496.475-2.072 1.5-2.072 3.69 0 2.116 1.028 4.061 3.4 6.433l3.4 3.4h548.13zM223.775 718.58c3.699-1.88 11.45-6.821 17.225-10.979 12.459-8.97 21.069-13.66 30.216-16.46 10.13-3.1 47.22-7.264 94.428-10.601 13.35-.944 21.444-1.966 24-3.031 4.387-1.828 10.817-7.668 12.979-11.788 1.099-2.094 1.408-6.037 1.255-16.006-.167-10.92.109-13.885 1.583-16.991.982-2.07 3.037-4.655 4.567-5.744 7.976-5.68 13.349.774 16.864 20.254.864 4.79.711 6.998-.929 13.41-1.08 4.222-1.963 8.279-1.963 9.016 0 1.083 4.647 1.34 24.25 1.338 13.337 0 37.413-.298 53.5-.66 22.804-.515 29.25-.943 29.25-1.944 0-.706-4.163-4.12-9.25-7.586-10.88-7.413-21.616-17.768-27.672-26.69-10.66-15.705-16.668-34.9-15.843-50.618.476-9.082 2.776-14.649 7.798-18.874 1.716-1.444 4.323-2.624 5.794-2.622 3.985.005 8.604 3.277 10.617 7.52 1.137 2.395 2.114 7.971 2.693 15.368.5 6.384 1.614 14.083 2.476 17.108.863 3.025 3.38 8.992 5.595 13.26 2.983 5.75 5.91 9.52 11.297 14.552 10.43 9.74 22.243 15.604 36.73 18.23 3.363.61 19.423 1.481 35.69 1.935l29.575.826 7.708 2.101c16.47 4.49 36.08 14.816 61.12 32.187 22.17 15.38 25.409 17.086 33.531 17.667l6.705.48 3.218-2.708c1.77-1.49 3.218-3.331 3.218-4.093s-1.346-2.082-2.99-2.932-3.734-2.68-4.642-4.067c-1.308-1.995-1.423-3.022-.553-4.93 1.647-3.615 6.573-5.787 11.31-4.987 5.01.846 6.875-.628 6.875-5.435 0-5.862-5.778-10.6-23.5-19.273-8.25-4.037-24.675-12.322-36.5-18.412-19.819-10.206-33.375-15.787-48.35-19.906-3.22-.886-6.818-2.656-8-3.938-1.183-1.28-3.174-5.642-4.426-9.693-3.08-9.967-10.853-25.923-17.233-35.377-6.488-9.616-17.926-21.699-27.358-28.902-8.715-6.656-25.126-14.678-36.868-18.023-16.206-4.617-29.087-6.022-54.765-5.974-27.376.051-38.869 1.453-61 7.44-25.92 7.01-32.003 7.635-52.54 5.392l-6.04-.66-5.062 6.939c-3.382 4.635-7.186 8.359-11.46 11.218l-6.398 4.28-4.843-.461c-3.668-.349-5.563-1.18-7.812-3.43-3.805-3.805-4.096-8.346-.761-11.895 1.314-1.4 4.524-3.705 7.132-5.125 4.603-2.505 6.568-5.209 5.29-7.277-.343-.555-1.49-1.009-2.55-1.009-1.058 0-3.327-1.253-5.04-2.784-2.465-2.202-3.116-3.587-3.116-6.627 0-2.789.701-4.545 2.556-6.4 2.029-2.029 3.8-2.645 8.6-2.992 4.925-.356 6.044-.762 6.044-2.189 0-1.481-1.212-1.821-7.86-2.206-9.995-.579-14.063-2.746-16.102-8.577l-1.461-4.181 2.051-2.772c1.129-1.525 3.223-3.347 4.654-4.049s6.271-1.56 10.756-1.905l8.154-.63-.675-5.594c-.938-7.778-4.111-22.006-7.148-32.046-4.129-13.65-6.236-26.632-7.33-45.165-.565-9.56-1.306-19.296-1.646-21.633-.507-3.476-1.009-4.252-2.757-4.259-3-.012-20.464 18.228-28.928 30.215-3.736 5.29-7.434 10.152-8.22 10.804-1.105.917-4.05.824-13.046-.413-14.594-2.006-38.367-2.052-53.98-.105-6.58.82-12.755 1.496-13.724 1.5s-6.369-4.315-12-9.6C192.312 382.978 176.628 372 171.033 372H169v17.836c0 9.81-.297 34.051-.66 53.869l-.66 36.031 11.707.448 11.707.448 3.053 3.053c2.322 2.322 3.053 3.954 3.053 6.815 0 2.866-.732 4.493-3.072 6.833l-3.072 3.072-9.581.42-9.582.418.303 2.129.304 2.128h22.652l3.424 3.735c4.393 4.793 4.432 7.957.149 12.24-2.519 2.519-4.483 3.442-8.5 3.994l-5.225.719-.002 2.156c-.002 3.277 17.824 20.048 29.515 27.768 5.507 3.637 10.634 7.36 11.394 8.275l1.38 1.664-1.643 5.09c-1.21 3.747-1.64 8.814-1.632 19.224.007 8.615.535 16.088 1.35 19.135 2.142 7.995 7.138 16.846 13.214 23.409l5.64 6.091h3.443c3.952 0 19.502-3.811 61.446-15.06 16.282-4.367 30.748-7.94 32.146-7.94 3.286 0 8.749 6.07 8.749 9.72 0 4.34-3.94 11.218-7.871 13.74-1.996 1.28-5.879 3.017-8.629 3.86-7.886 2.419-67.653 18.116-81.745 21.47-16.845 4.01-27.138 9.013-36.635 17.805-3.994 3.698-8.575 9.014-10.181 11.814-2.413 4.207-2.922 6.237-2.93 11.693-.007 5.227.466 7.307 2.271 9.986 2.613 3.877 6.001 5.876 9.995 5.897 1.526.008 5.801-1.524 9.5-3.405m572.042-73.445c1.312-18.87 3.867-32.946 7.792-42.932 3.463-8.811 13.817-24.317 20.811-31.169 3.069-3.006 5.58-6.044 5.58-6.75 0-2.797-11.741-.516-20.5 3.983-5.896 3.028-13.472 10.588-16.311 16.276-4.832 9.68-5.447 14.367-5.92 45.088l-.447 29.131 2.312 1.62c1.27.89 3.03 1.618 3.91 1.618 1.358 0 1.779-2.561 2.773-16.865M759 623.131c0-17.62 1.538-29.076 5.63-41.937 3.12-9.808 8.455-18.545 16.086-26.347l5.53-5.653-.52-37.347-.518-37.347-2.143-8.476c-6.059-23.967-19.68-38.918-41.625-45.69l-5.94-1.834h-177c-97.35 0-178.687.358-180.75.795-2.873.61-3.75 1.28-3.75 2.87 0 1.142 1.543 7.984 3.43 15.205 1.886 7.222 3.929 15.83 4.54 19.13.61 3.3 1.327 7.022 1.594 8.272l.485 2.272 9.793-.164c8.027-.135 10.302.168 12.612 1.682 3.366 2.205 5.667 7.193 4.858 10.53-.32 1.325-1.714 3.627-3.096 5.118-2.656 2.864-8.452 4.507-17.69 5.016l-4.972.274-.848 4.312c-1.331 6.768-.52 7.188 13.889 7.188h12.35l15.277-3.89c19.169-4.882 28.374-6.74 42.278-8.539 17.768-2.297 34.893-2.869 48.5-1.619 43.295 3.98 76.208 18.172 102.045 44.005 9.8 9.797 19.47 22.609 27.394 36.293l2.751 4.75h7.226c5.9 0 8.222-.505 12.655-2.75 3.862-1.956 6.367-4.153 8.679-7.613l3.25-4.863v-7.927c0-9.824-1.725-13.567-9.55-20.718-4.258-3.893-10.032-7.31-23.265-13.769l-17.601-8.591-6.102-6.135c-3.356-3.374-7.2-8.384-8.542-11.134-1.94-3.974-2.435-6.545-2.415-12.53.02-6.182.526-8.553 2.819-13.24 5.82-11.896 17.375-19.634 33.522-22.447 7.193-1.253 10.285-1.306 18.531-.318 18.68 2.237 34.054 8.17 49.587 19.134 10.096 7.125 19.947 17.428 27.11 28.353 6.743 10.283 11.141 20.844 14.155 33.989 1.611 7.03 2.093 12.642 2.151 25.059.083 17.79-1.346 26.689-6.636 41.327-3.041 8.416-10.995 21.516-18.612 30.655-2.283 2.74-4.152 5.694-4.152 6.566 0 .942 2.331 2.704 5.75 4.345 3.163 1.519 8.225 4.267 11.25 6.108s6.513 3.38 7.75 3.422L759 639zm-45.543-18.381c4.636-5.079 8.098-10.245 11.56-17.25 2.72-5.5 5.61-12.925 6.426-16.5 2.175-9.534 2.891-24.154 1.723-35.187-1.168-11.035-5.255-23.966-10.296-32.574-1.849-3.157-7.882-10.293-13.408-15.86-8.475-8.538-11.369-10.76-18.504-14.208-4.652-2.249-11.383-4.775-14.958-5.615-3.646-.856-11.156-1.533-17.102-1.541L648.296 466l-3.398 2.283c-2.811 1.888-3.45 2.994-3.7 6.405-.484 6.574 3.514 10.228 19.745 18.045 7.456 3.591 16.578 8.519 20.27 10.95 12.285 8.091 21.903 20.985 25.256 33.859 1.95 7.489 1.937 13.777-.047 22.502-1.107 4.864-3.028 9.16-6.427 14.367-5.238 8.023-12.262 14.262-20.745 18.428-3.028 1.487-5.25 3.246-5.25 4.157 0 1.076 3.42 2.934 10.75 5.838 5.913 2.343 12.55 5.361 14.75 6.708 2.2 1.346 4.751 2.45 5.669 2.453s4.647-3.258 8.288-7.245M832.5 536.444c6.6-.847 15.6-1.46 20-1.362s8.563.12 9.25.048c.99-.103 1.25-17.966 1.25-85.63V364H422v24h152.428c102.683 0 154.98.349 160.25 1.07 9.2 1.258 23.447 5.81 31.272 9.992 14.117 7.546 26.358 19.723 34.548 34.368 1.97 3.522 4.863 9.928 6.43 14.237 4.933 13.558 6.106 23.699 6.775 58.583l.609 31.75 3.094-.008c1.702-.004 8.494-.701 15.094-1.548m-571.488-4.566c-3.018-.511-7.395-1.853-9.727-2.982-5.088-2.463-9.285-7.168-9.285-10.408 0-5.941 4.288-11.488 8.88-11.488 1.585 0 5.87 1.125 9.524 2.5 7.61 2.865 12.596 3.266 12.596 1.015 0-.817-1.395-4.147-3.1-7.4-1.796-3.426-3.1-7.427-3.1-9.51 0-5.5 3.197-10.673 8.277-13.394 3.543-1.897 5.549-2.292 10.083-1.982 14.34.978 21.189 14.09 13.46 25.768-3.12 4.716-3.432 8.003-.758 8.003 1.024 0 4.839-1.35 8.478-3s7.673-3 8.964-3c2.843 0 6.449 3.622 7.556 7.59 1.91 6.843-3.19 14.03-12.043 16.97-6.68 2.22-13.838 2.181-21.09-.113l-5.771-1.826-4.728 1.626c-6.546 2.252-11.784 2.721-18.216 1.631m-36.93-55.455c-8.937-2.421-14.552-6.882-15.104-11.996-.453-4.196.124-6.245 2.474-8.781 1.849-1.995 3.418-2.646 6.375-2.646 2.157 0 5.835.675 8.173 1.5 5.82 2.053 11.333 1.88 16-.5 2.156-1.1 4.658-2 5.559-2s2.944 1.398 4.54 3.106c4.006 4.288 4 9.506-.017 13.806-3.517 3.765-11.922 7.685-18.082 8.433-2.6.316-6.787-.074-9.919-.922m89.038-2.576c-4.773-1.372-7.769-3.543-10.102-7.319-2.763-4.47-2.616-9.722.37-13.192l2.386-2.775 7.02 2.301 7.019 2.302 5.843-1.554c3.214-.854 6.783-1.824 7.93-2.155 1.427-.412 3.119.267 5.357 2.15l3.272 2.754-.506 3.774c-.278 2.075-1.455 5.106-2.614 6.734-3.108 4.364-11.37 8.153-17.541 8.043-2.78-.05-6.575-.528-8.434-1.063M496.386 328.75c.3-3.437 1.015-26.275 1.59-50.75s1.327-50.463 1.67-57.75l.624-13.25H475v128h20.84zM530 332.562c0-2.169-2.23-13.164-3.614-17.812-.286-.962-1.165-1.75-1.953-1.75-1.157 0-1.433 2.119-1.433 11v11h7zm87.876-50.812-.316-53.25 1.97-3.935c1.083-2.165 3.24-4.865 4.793-6l2.823-2.065 15.334-.355 15.333-.354.362-13.646c.399-15.003 1.701-19.47 6.661-22.836l2.664-1.809h78l2.664 1.809c4.701 3.192 6.23 7.977 6.655 20.847l.386 11.657 22.648.36 22.647.36 3.691 1.82c4.045 1.994 6.108 4.587 7.213 9.07.396 1.607.68 26.92.63 56.25l-.09 53.327H863V154l-1.76-1.76-1.759-1.759-216.322-.302-216.321-.303-2.42 1.585-2.418 1.585V334h25.949l.276-72.25.275-72.25 1.82-2.68c1-1.475 3.025-3.5 4.5-4.5l2.68-1.82h48l3.2 1.75c3.74 2.045 8.374 2.276 10.144.506.846-.846 6.05-1.362 16.242-1.61 19.926-.486 25.115.213 29.383 3.961l3.36 2.95 1.205 7.221c.663 3.972 4.313 21.622 8.11 39.222 3.799 17.6 8.668 40.325 10.82 50.5 4.742 22.41 9.912 45.862 10.639 48.25l.532 1.75h19.057zm37.999 52.625 3.125-.625v-89.51l-6.25-.47c-3.437-.26-6.812-.266-7.5-.014-.975.357-1.25 10.447-1.25 45.851V335h4.375c2.406 0 5.781-.281 7.5-.625M573 331.258c0-1.329-1.774-10.143-3.942-19.587s-7.793-34.721-12.5-56.171-8.912-40.35-9.345-42l-.788-3H528.5l.268 5.5c.34 6.983.927 9.953 9.376 47.5 12.114 53.83 14.924 65.945 15.78 68.031l.834 2.032 9.12.056 9.122.056zM727 268.5V203h-40v131h40zm57 18V240h-29v93h29z"/><path fill="#020A22" fill-rule="evenodd" d="M180.553 901.085a1.117 1.117 0 0 1 .362-1.532 1.117 1.117 0 0 1 1.532.362c.322.52.16 1.21-.362 1.532-.52.322-1.21.16-1.532-.362m660 0a1.117 1.117 0 0 1 .362-1.532 1.117 1.117 0 0 1 1.532.362c.322.52.16 1.21-.362 1.532-.52.322-1.21.16-1.532-.362m-75-1a1.117 1.117 0 0 1 .362-1.532 1.117 1.117 0 0 1 1.532.362c.322.52.16 1.21-.362 1.532-.52.322-1.21.16-1.532-.362m107-60a1.117 1.117 0 0 1 .362-1.532 1.117 1.117 0 0 1 1.532.362c.322.52.16 1.21-.362 1.532-.52.322-1.21.16-1.532-.362m43-173a1.117 1.117 0 0 1 .362-1.532 1.117 1.117 0 0 1 1.532.362c.322.52.16 1.21-.362 1.532-.52.322-1.21.16-1.532-.362m3-96a1.117 1.117 0 0 1 .362-1.532 1.117 1.117 0 0 1 1.532.362c.322.52.16 1.21-.362 1.532-.52.322-1.21.16-1.532-.362m-793-40a1.117 1.117 0 0 1 .362-1.532 1.117 1.117 0 0 1 1.532.362c.322.52.16 1.21-.362 1.532-.52.322-1.21.16-1.532-.362"/></svg>